<svg xmlns="http://www.w3.org/2000/svg" viewBox="0 0 14 14">
                                        <path d="M12.687,2.945 C12.669,2.920 12.648,2.899 12.630,2.874 C12.499,2.696 12.361,2.525 12.215,2.360 C12.175,2.315 12.135,2.271 12.094,2.227 C11.944,2.066 11.787,1.912 11.622,1.766 C11.591,1.739 11.563,1.711 11.532,1.684 C11.126,1.336 10.681,1.035 10.207,0.788 C10.188,0.778 10.168,0.770 10.148,0.760 C9.937,0.652 9.720,0.555 9.499,0.470 C9.449,0.452 9.404,0.435 9.356,0.420 C9.159,0.349 8.959,0.287 8.757,0.234 C8.697,0.218 8.637,0.201 8.576,0.187 C8.376,0.141 8.176,0.105 7.972,0.076 C7.910,0.067 7.849,0.055 7.787,0.047 C7.260,-0.017 6.728,-0.017 6.202,0.047 C6.140,0.055 6.079,0.067 6.017,0.076 C5.813,0.105 5.611,0.141 5.413,0.187 C5.352,0.201 5.292,0.218 5.232,0.234 C5.028,0.287 4.828,0.349 4.633,0.420 C4.583,0.437 4.537,0.454 4.490,0.470 C4.269,0.555 4.052,0.652 3.841,0.760 C3.821,0.770 3.801,0.778 3.782,0.788 C3.306,1.035 2.860,1.336 2.452,1.684 C2.422,1.711 2.393,1.739 2.363,1.766 C2.196,1.913 2.039,2.066 1.890,2.227 C1.849,2.271 1.809,2.315 1.769,2.360 C1.623,2.525 1.485,2.696 1.355,2.874 C1.337,2.899 1.315,2.920 1.298,2.945 C1.296,2.950 1.294,2.954 1.292,2.959 C-0.431,5.376 -0.431,8.623 1.292,11.040 C1.294,11.045 1.296,11.049 1.298,11.054 C1.315,11.079 1.337,11.100 1.355,11.125 C1.485,11.303 1.623,11.474 1.769,11.639 C1.809,11.684 1.849,11.728 1.890,11.772 C2.041,11.933 2.198,12.087 2.363,12.233 C2.393,12.260 2.422,12.288 2.452,12.315 C2.858,12.663 3.303,12.964 3.778,13.211 C3.797,13.221 3.817,13.229 3.836,13.239 C4.048,13.347 4.264,13.443 4.486,13.529 C4.536,13.547 4.581,13.564 4.628,13.579 C4.825,13.650 5.025,13.712 5.228,13.765 C5.288,13.781 5.348,13.798 5.409,13.812 C5.608,13.858 5.808,13.894 6.013,13.923 C6.074,13.932 6.135,13.944 6.198,13.951 C6.724,14.015 7.256,14.015 7.782,13.951 C7.845,13.944 7.906,13.932 7.967,13.923 C8.172,13.894 8.374,13.858 8.571,13.812 C8.632,13.798 8.692,13.781 8.752,13.765 C8.957,13.712 9.156,13.650 9.352,13.579 C9.401,13.562 9.447,13.545 9.494,13.529 C9.716,13.443 9.932,13.347 10.144,13.239 C10.163,13.229 10.183,13.221 10.202,13.211 C10.677,12.964 11.122,12.663 11.528,12.315 C11.558,12.288 11.587,12.260 11.617,12.233 C11.784,12.087 11.941,11.933 12.090,11.772 C12.131,11.728 12.171,11.684 12.211,11.639 C12.357,11.474 12.495,11.303 12.625,11.125 C12.643,11.100 12.665,11.079 12.682,11.054 C12.684,11.049 12.686,11.045 12.688,11.040 C14.411,8.623 14.411,5.376 12.688,2.959 C12.688,2.954 12.687,2.950 12.687,2.945 ZM12.118,10.094 C11.353,9.702 10.535,9.423 9.690,9.265 C9.839,8.687 9.932,8.096 9.969,7.500 L12.961,7.500 C12.884,8.418 12.596,9.306 12.118,10.094 ZM11.483,10.962 C11.365,11.095 11.243,11.223 11.115,11.345 C11.084,11.375 11.051,11.403 11.019,11.432 C10.896,11.545 10.768,11.652 10.636,11.754 C10.602,11.780 10.567,11.806 10.532,11.832 C10.396,11.932 10.256,12.026 10.112,12.114 L10.012,12.175 C9.861,12.263 9.706,12.345 9.547,12.421 C9.518,12.434 9.489,12.449 9.460,12.463 C9.295,12.538 9.125,12.604 8.953,12.663 C8.927,12.672 8.904,12.683 8.875,12.692 C8.702,12.750 8.525,12.798 8.346,12.842 C8.318,12.848 8.291,12.857 8.262,12.863 C8.194,12.878 8.123,12.885 8.053,12.898 C8.605,12.063 9.056,11.166 9.398,10.226 C10.135,10.358 10.852,10.588 11.528,10.911 C11.514,10.928 11.498,10.944 11.483,10.962 ZM5.639,12.841 C5.460,12.799 5.283,12.751 5.109,12.691 C5.083,12.682 5.057,12.672 5.031,12.662 C4.859,12.602 4.690,12.536 4.524,12.462 C4.495,12.449 4.467,12.434 4.438,12.420 C4.279,12.344 4.124,12.263 3.972,12.175 L3.872,12.114 C3.728,12.026 3.589,11.932 3.453,11.831 C3.418,11.806 3.383,11.781 3.348,11.753 C3.215,11.653 3.088,11.546 2.966,11.432 C2.934,11.403 2.901,11.374 2.869,11.344 C2.741,11.223 2.620,11.094 2.502,10.961 C2.487,10.944 2.471,10.928 2.456,10.911 C3.132,10.588 3.848,10.358 4.586,10.226 C4.928,11.166 5.379,12.063 5.931,12.898 C5.861,12.885 5.790,12.878 5.722,12.863 C5.694,12.857 5.667,12.848 5.639,12.841 ZM1.024,7.500 L4.016,7.500 C4.053,8.096 4.146,8.687 4.296,9.265 C3.451,9.423 2.633,9.702 1.867,10.094 C1.389,9.306 1.101,8.418 1.024,7.500 ZM1.867,3.905 C2.632,4.297 3.450,4.576 4.295,4.734 C4.146,5.312 4.053,5.903 4.016,6.499 L1.024,6.499 C1.101,5.581 1.389,4.693 1.867,3.905 ZM2.502,3.037 C2.620,2.904 2.742,2.776 2.870,2.654 C2.901,2.624 2.934,2.596 2.966,2.567 C3.089,2.454 3.217,2.347 3.349,2.245 C3.383,2.219 3.418,2.195 3.453,2.167 C3.589,2.067 3.729,1.973 3.873,1.885 L3.973,1.824 C4.124,1.735 4.279,1.653 4.438,1.578 C4.467,1.565 4.496,1.550 4.525,1.536 C4.690,1.461 4.860,1.395 5.032,1.336 C5.057,1.327 5.081,1.316 5.110,1.307 C5.283,1.249 5.460,1.201 5.639,1.157 C5.667,1.151 5.694,1.142 5.723,1.136 C5.791,1.121 5.862,1.114 5.932,1.101 C5.380,1.936 4.928,2.833 4.586,3.774 C3.849,3.642 3.132,3.411 2.456,3.088 C2.471,3.071 2.487,3.055 2.502,3.037 ZM8.346,1.158 C8.525,1.200 8.702,1.248 8.876,1.308 C8.902,1.317 8.928,1.327 8.954,1.337 C9.126,1.397 9.295,1.463 9.461,1.537 C9.490,1.550 9.518,1.565 9.547,1.579 C9.706,1.655 9.861,1.737 10.013,1.825 L10.113,1.885 C10.257,1.973 10.397,2.067 10.532,2.168 C10.567,2.193 10.602,2.218 10.637,2.246 C10.770,2.346 10.897,2.453 11.019,2.567 C11.051,2.596 11.084,2.625 11.116,2.655 C11.244,2.776 11.365,2.905 11.483,3.038 C11.498,3.055 11.514,3.071 11.529,3.088 C10.853,3.411 10.136,3.641 9.399,3.773 C9.057,2.833 8.606,1.936 8.054,1.101 C8.124,1.114 8.195,1.121 8.263,1.136 C8.291,1.142 8.318,1.151 8.346,1.158 ZM6.992,9.000 C6.422,8.999 5.852,9.033 5.286,9.100 C5.143,8.577 5.051,8.041 5.013,7.500 L8.972,7.500 C8.933,8.041 8.841,8.577 8.698,9.100 C8.132,9.033 7.562,8.999 6.992,9.000 ZM8.383,10.075 C8.027,10.995 7.560,11.868 6.992,12.675 C6.424,11.868 5.957,10.995 5.600,10.074 C6.525,9.975 7.458,9.975 8.383,10.074 L8.383,10.075 ZM5.013,6.499 C5.052,5.958 5.144,5.422 5.287,4.899 C5.853,4.966 6.423,5.000 6.992,4.999 C7.563,4.999 8.133,4.965 8.699,4.896 C8.842,5.421 8.934,5.957 8.972,6.499 L5.013,6.499 ZM6.992,3.999 C6.528,3.998 6.064,3.973 5.602,3.924 C5.958,3.004 6.425,2.131 6.992,1.324 C7.561,2.131 8.028,3.004 8.385,3.925 C7.922,3.974 7.457,3.999 6.992,3.999 ZM9.969,6.499 C9.932,5.903 9.839,5.312 9.689,4.734 C10.534,4.576 11.352,4.297 12.118,3.905 C12.596,4.693 12.884,5.581 12.961,6.499 L9.969,6.499 Z"></path>
                                        </svg>