<svg xmlns="http://www.w3.org/2000/svg" viewBox="0 0 16 14">
                                        <path d="M14.815,1.403 C14.003,0.494 12.877,-0.006 11.643,-0.006 C9.905,-0.006 8.809,1.012 8.195,1.865 C8.130,1.955 8.067,2.049 8.005,2.146 C7.944,2.049 7.880,1.955 7.816,1.865 C7.202,1.012 6.106,-0.006 4.367,-0.006 C3.133,-0.006 2.007,0.494 1.195,1.403 C0.425,2.264 0.001,3.415 0.001,4.644 C0.001,5.978 0.524,7.212 1.646,8.527 C2.625,9.675 4.021,10.849 5.646,12.214 L5.706,12.263 C6.286,12.752 6.888,13.257 7.547,13.825 C7.673,13.935 7.836,13.995 8.005,13.995 C8.175,13.995 8.338,13.935 8.484,13.808 C9.103,13.273 9.688,12.782 10.253,12.306 L10.365,12.213 C11.985,10.852 13.385,9.676 14.364,8.527 C15.486,7.212 16.009,5.978 16.009,4.644 C16.009,3.415 15.586,2.264 14.815,1.403 ZM9.292,11.305 C8.876,11.654 8.450,12.013 8.005,12.393 C7.561,12.013 7.134,11.654 6.718,11.305 L6.548,11.161 C3.445,8.555 1.396,6.833 1.396,4.644 C1.396,3.751 1.695,2.925 2.240,2.316 C2.784,1.708 3.539,1.373 4.367,1.373 C5.511,1.373 6.256,2.075 6.680,2.665 C7.069,3.208 7.273,3.754 7.343,3.964 C7.436,4.248 7.702,4.440 8.005,4.440 C8.308,4.440 8.574,4.248 8.667,3.964 C8.738,3.754 8.941,3.208 9.331,2.665 C9.754,2.075 10.500,1.373 11.643,1.373 C12.471,1.373 13.226,1.708 13.770,2.317 C14.315,2.925 14.614,3.751 14.614,4.644 C14.614,6.833 12.565,8.555 9.462,11.161 L9.292,11.305 ZM9.618,11.347 L9.618,11.346 L9.618,11.347 L9.618,11.347 Z"></path>
                                        </svg>