<svg width="150" height="163" viewBox="0 0 150 163" fill="none" xmlns="http://www.w3.org/2000/svg">
<rect x="0.5" y="0.5" width="149" height="161.632" rx="9.5" fill="#FDFDFD" fill-opacity="0.8"/>
<path d="M116.053 141.316H21.3158C17.8263 141.316 15 138.489 15 135V21.3158C15 17.8263 17.8263 15 21.3158 15H116.053C119.542 15 122.368 17.8263 122.368 21.3158V135C122.368 138.489 119.542 141.316 116.053 141.316Z" fill="#45B0D0"/>
<path opacity="0.05" d="M85.0169 21.3158C86.6905 21.3158 88.2979 21.9821 89.4821 23.1663L114.202 47.8863C115.386 49.0705 116.053 50.6779 116.053 52.3516V131.842C116.053 133.585 114.638 135 112.895 135H24.4737C22.7305 135 21.3158 133.585 21.3158 131.842V24.4737C21.3158 22.7305 22.7305 21.3158 24.4737 21.3158H85.0169ZM85.0169 18.1579H24.4737C20.9905 18.1579 18.1579 20.9905 18.1579 24.4737V131.842C18.1579 135.325 20.9905 138.158 24.4737 138.158H112.895C116.378 138.158 119.211 135.325 119.211 131.842V52.3516C119.211 49.8221 118.225 47.4411 116.435 45.6537L91.7147 20.9337C89.9242 19.1432 87.5463 18.1579 85.0169 18.1579Z" fill="black"/>
<path opacity="0.07" d="M85.0168 21.3158C86.6905 21.3158 88.2979 21.9821 89.4821 23.1663L114.202 47.8863C115.386 49.0705 116.053 50.6779 116.053 52.3516V131.842C116.053 133.585 114.638 135 112.895 135H24.4737C22.7305 135 21.3158 133.585 21.3158 131.842V24.4737C21.3158 22.7305 22.7305 21.3158 24.4737 21.3158H85.0168ZM85.0168 19.7368H24.4737C21.8621 19.7368 19.7368 21.8621 19.7368 24.4737V131.842C19.7368 134.454 21.8621 136.579 24.4737 136.579H112.895C115.506 136.579 117.632 134.454 117.632 131.842V52.3516C117.632 50.2421 116.811 48.259 115.32 46.7684L90.6 22.0484C89.1063 20.5579 87.1231 19.7368 85.0168 19.7368Z" fill="black"/>
<path d="M24.4737 21.3158C22.7305 21.3158 21.3158 22.7305 21.3158 24.4737V131.842C21.3158 133.585 22.7305 135 24.4737 135H112.895C114.638 135 116.053 133.585 116.053 131.842V52.3516C116.053 50.6779 115.386 49.0705 114.202 47.8863L89.4821 23.1663C88.2979 21.9821 86.6905 21.3158 85.0168 21.3158H24.4737Z" fill="url(#paint0_linear_287_5950)"/>
<path d="M48.1579 109.737H32.3684C31.4969 109.737 30.7895 109.029 30.7895 108.158V105C30.7895 104.128 31.4969 103.421 32.3684 103.421H48.1579C49.0295 103.421 49.7369 104.128 49.7369 105V108.158C49.7369 109.029 49.0295 109.737 48.1579 109.737Z" fill="#4DB6D5"/>
<path d="M73.4211 109.737H57.6316C56.76 109.737 56.0527 109.029 56.0527 108.158V105C56.0527 104.128 56.76 103.421 57.6316 103.421H73.4211C74.2927 103.421 75 104.128 75 105V108.158C75 109.029 74.2927 109.737 73.4211 109.737Z" fill="#4DB6D5"/>
<path d="M98.6842 109.737H82.8947C82.0232 109.737 81.3158 109.029 81.3158 108.158V105C81.3158 104.128 82.0232 103.421 82.8947 103.421H98.6842C99.5558 103.421 100.263 104.128 100.263 105V108.158C100.263 109.029 99.5558 109.737 98.6842 109.737Z" fill="#4DB6D5"/>
<path d="M48.1579 100.263H32.3684C31.4969 100.263 30.7895 99.5558 30.7895 98.6842V95.5263C30.7895 94.6547 31.4969 93.9474 32.3684 93.9474H48.1579C49.0295 93.9474 49.7369 94.6547 49.7369 95.5263V98.6842C49.7369 99.5558 49.0295 100.263 48.1579 100.263Z" fill="#4DB6D5"/>
<path d="M73.4211 100.263H57.6316C56.76 100.263 56.0527 99.5558 56.0527 98.6842V95.5263C56.0527 94.6547 56.76 93.9474 57.6316 93.9474H73.4211C74.2927 93.9474 75 94.6547 75 95.5263V98.6842C75 99.5558 74.2927 100.263 73.4211 100.263Z" fill="#4DB6D5"/>
<path d="M98.6842 100.263H82.8947C82.0232 100.263 81.3158 99.5558 81.3158 98.6842V95.5263C81.3158 94.6547 82.0232 93.9474 82.8947 93.9474H98.6842C99.5558 93.9474 100.263 94.6547 100.263 95.5263V98.6842C100.263 99.5558 99.5558 100.263 98.6842 100.263Z" fill="#4DB6D5"/>
<path d="M48.1579 90.7895H32.3684C31.4969 90.7895 30.7895 90.0821 30.7895 89.2105V86.0526C30.7895 85.181 31.4969 84.4737 32.3684 84.4737H48.1579C49.0295 84.4737 49.7369 85.181 49.7369 86.0526V89.2105C49.7369 90.0821 49.0295 90.7895 48.1579 90.7895Z" fill="#4DB6D5"/>
<path d="M73.4211 90.7895H57.6316C56.76 90.7895 56.0527 90.0821 56.0527 89.2105V86.0526C56.0527 85.181 56.76 84.4737 57.6316 84.4737H73.4211C74.2927 84.4737 75 85.181 75 86.0526V89.2105C75 90.0821 74.2927 90.7895 73.4211 90.7895Z" fill="#4DB6D5"/>
<path d="M98.6842 90.7895H82.8947C82.0232 90.7895 81.3158 90.0821 81.3158 89.2105V86.0526C81.3158 85.181 82.0232 84.4737 82.8947 84.4737H98.6842C99.5558 84.4737 100.263 85.181 100.263 86.0526V89.2105C100.263 90.0821 99.5558 90.7895 98.6842 90.7895Z" fill="#4DB6D5"/>
<path d="M48.1579 81.3158H32.3684C31.4969 81.3158 30.7895 80.6084 30.7895 79.7368V76.5789C30.7895 75.7074 31.4969 75 32.3684 75H48.1579C49.0295 75 49.7369 75.7074 49.7369 76.5789V79.7368C49.7369 80.6084 49.0295 81.3158 48.1579 81.3158Z" fill="#C7E7FF"/>
<path d="M73.4211 81.3158H57.6316C56.76 81.3158 56.0527 80.6084 56.0527 79.7368V76.5789C56.0527 75.7074 56.76 75 57.6316 75H73.4211C74.2927 75 75 75.7074 75 76.5789V79.7368C75 80.6084 74.2927 81.3158 73.4211 81.3158Z" fill="#C7E7FF"/>
<path d="M98.6842 81.3158H82.8947C82.0232 81.3158 81.3158 80.6084 81.3158 79.7368V76.5789C81.3158 75.7074 82.0232 75 82.8947 75H98.6842C99.5558 75 100.263 75.7074 100.263 76.5789V79.7368C100.263 80.6084 99.5558 81.3158 98.6842 81.3158Z" fill="#C7E7FF"/>
<path d="M48.1579 119.211H32.3684C31.4969 119.211 30.7895 118.503 30.7895 117.632V114.474C30.7895 113.602 31.4969 112.895 32.3684 112.895H48.1579C49.0295 112.895 49.7369 113.602 49.7369 114.474V117.632C49.7369 118.503 49.0295 119.211 48.1579 119.211Z" fill="#4DB6D5"/>
<path d="M73.4211 119.211H57.6316C56.76 119.211 56.0527 118.503 56.0527 117.632V114.474C56.0527 113.602 56.76 112.895 57.6316 112.895H73.4211C74.2927 112.895 75 113.602 75 114.474V117.632C75 118.503 74.2927 119.211 73.4211 119.211Z" fill="#4DB6D5"/>
<path d="M98.6842 119.211H82.8947C82.0232 119.211 81.3158 118.503 81.3158 117.632V114.474C81.3158 113.602 82.0232 112.895 82.8947 112.895H98.6842C99.5558 112.895 100.263 113.602 100.263 114.474V117.632C100.263 118.503 99.5558 119.211 98.6842 119.211Z" fill="#4DB6D5"/>
<path d="M48.1579 52.8297C48.1579 44.9516 36.7426 46.4901 36.7426 41.8356C36.7426 39.4049 39.4231 39.2776 40.2624 39.2776C42.278 39.2776 44.2215 39.8279 45.7047 40.5375C46.1726 40.7613 46.7095 40.4302 46.7095 39.9045V37.6116C46.7095 36.8422 46.4251 36.3871 45.9723 36.2077C44.9553 35.8046 43.4965 35.5119 41.3365 35.4383V32.9156C41.3365 32.6136 41.0956 32.3684 40.7995 32.3684H39.7254C39.4291 32.3684 39.1884 32.6136 39.1884 32.9156V35.4797C35.8401 35.8138 32.3684 37.7389 32.3684 42.2188C32.3684 50.3847 43.7838 48.7662 43.7838 53.0671C43.7838 54.4185 42.9369 55.5836 40.2639 55.5836C37.5774 55.5836 35.1106 54.6287 33.7448 53.9158C33.283 53.6737 32.7414 54.0203 32.7414 54.5462V57.1561C32.7414 57.6571 33.0378 58.1018 33.4891 58.298C35.1075 58.9986 37.2781 59.5286 39.1869 59.6836V62.4712C39.1869 62.7736 39.4276 63.0186 39.7239 63.0186H40.7978C41.0944 63.0186 41.3347 62.7736 41.3347 62.4712V59.6894C46.3467 59.2633 48.1579 55.846 48.1579 52.8297Z" fill="#33A3EE" fill-opacity="0.67"/>
<path opacity="0.05" d="M122.368 78.1579H87.6316C84.1421 78.1579 81.3158 80.9842 81.3158 84.4737V141.316C81.3158 144.805 84.1421 147.632 87.6316 147.632H122.368V78.1579Z" fill="black"/>
<path opacity="0.07" d="M122.368 81.3158H89.2105C86.5958 81.3158 84.4737 83.4379 84.4737 86.0526V142.895C84.4737 145.509 86.5958 147.632 89.2105 147.632H122.368V81.3158Z" fill="black"/>
<path d="M131.842 84.4737H90.7895C89.0463 84.4737 87.6316 85.8884 87.6316 87.6316V144.474C87.6316 146.217 89.0463 147.632 90.7895 147.632H131.842C133.585 147.632 135 146.217 135 144.474V87.6316C135 85.8884 133.585 84.4737 131.842 84.4737Z" fill="url(#paint1_linear_287_5950)"/>
<path d="M127.105 100.263H95.5263C94.6548 100.263 93.9474 99.5558 93.9474 98.6842V92.3684C93.9474 91.4968 94.6548 90.7895 95.5263 90.7895H127.105C127.977 90.7895 128.684 91.4968 128.684 92.3684V98.6842C128.684 99.5558 127.977 100.263 127.105 100.263Z" fill="url(#paint2_linear_287_5950)"/>
<path d="M114.474 116.053H108.158C107.286 116.053 106.579 115.345 106.579 114.474V108.158C106.579 107.286 107.286 106.579 108.158 106.579H114.474C115.345 106.579 116.053 107.286 116.053 108.158V114.474C116.053 115.345 115.345 116.053 114.474 116.053Z" fill="#CAD2D9"/>
<path d="M101.842 116.053H95.5263C94.6548 116.053 93.9474 115.345 93.9474 114.474V108.158C93.9474 107.286 94.6548 106.579 95.5263 106.579H101.842C102.714 106.579 103.421 107.286 103.421 108.158V114.474C103.421 115.345 102.714 116.053 101.842 116.053Z" fill="#CAD2D9"/>
<path d="M114.474 128.684H108.158C107.286 128.684 106.579 127.977 106.579 127.105V120.789C106.579 119.918 107.286 119.211 108.158 119.211H114.474C115.345 119.211 116.053 119.918 116.053 120.789V127.105C116.053 127.977 115.345 128.684 114.474 128.684Z" fill="#CAD2D9"/>
<path d="M101.842 128.684H95.5263C94.6548 128.684 93.9474 127.977 93.9474 127.105V120.789C93.9474 119.918 94.6548 119.211 95.5263 119.211H101.842C102.714 119.211 103.421 119.918 103.421 120.789V127.105C103.421 127.977 102.714 128.684 101.842 128.684Z" fill="#CAD2D9"/>
<path d="M114.474 141.316H108.158C107.286 141.316 106.579 140.608 106.579 139.737V133.421C106.579 132.549 107.286 131.842 108.158 131.842H114.474C115.345 131.842 116.053 132.549 116.053 133.421V139.737C116.053 140.608 115.345 141.316 114.474 141.316Z" fill="#CAD2D9"/>
<path d="M101.842 141.316H95.5263C94.6548 141.316 93.9474 140.608 93.9474 139.737V133.421C93.9474 132.549 94.6548 131.842 95.5263 131.842H101.842C102.714 131.842 103.421 132.549 103.421 133.421V139.737C103.421 140.608 102.714 141.316 101.842 141.316Z" fill="#CAD2D9"/>
<path d="M127.105 116.053H120.789C119.918 116.053 119.211 115.345 119.211 114.474V108.158C119.211 107.286 119.918 106.579 120.789 106.579H127.105C127.977 106.579 128.684 107.286 128.684 108.158V114.474C128.684 115.345 127.977 116.053 127.105 116.053Z" fill="#CAD2D9"/>
<path d="M127.105 141.316H120.789C119.918 141.316 119.211 140.608 119.211 139.737V120.789C119.211 119.918 119.918 119.211 120.789 119.211H127.105C127.977 119.211 128.684 119.918 128.684 120.789V139.737C128.684 140.608 127.977 141.316 127.105 141.316Z" fill="url(#paint3_linear_287_5950)"/>
<rect x="54.6794" y="49.7368" width="1.57895" height="14.1223" rx="0.789474" transform="rotate(20.4862 54.6794 49.7368)" fill="#D9D9D9"/>
<path d="M59.2105 63.7551V56.1516H61.2203V57.4931H61.3094C61.4678 57.0476 61.7318 56.6962 62.1014 56.4387C62.471 56.1813 62.9133 56.0526 63.4281 56.0526C63.9495 56.0526 64.3934 56.183 64.7597 56.4437C65.126 56.7011 65.3702 57.0509 65.4923 57.4931H65.5715C65.7266 57.0575 66.0071 56.7094 66.413 56.4486C66.8223 56.1846 67.3057 56.0526 67.8635 56.0526C68.573 56.0526 69.1489 56.2787 69.5911 56.7308C70.0366 57.1796 70.2593 57.8165 70.2593 58.6416V63.7551H68.1555V59.0574C68.1555 58.635 68.0433 58.3182 67.8189 58.107C67.5945 57.8958 67.314 57.7901 66.9774 57.7901C66.5946 57.7901 66.2959 57.9123 66.0814 58.1565C65.8669 58.3974 65.7596 58.7158 65.7596 59.1118V63.7551H63.7152V59.0128C63.7152 58.6399 63.6079 58.3429 63.3934 58.1218C63.1822 57.9007 62.9034 57.7901 62.5568 57.7901C62.3225 57.7901 62.1113 57.8495 61.9232 57.9684C61.7384 58.0839 61.5916 58.2472 61.4827 58.4584C61.3737 58.6663 61.3193 58.9105 61.3193 59.1911V63.7551H59.2105Z" fill="#74BFF2"/>
<path d="M75.3605 63.9036C74.5916 63.9036 73.9266 63.7403 73.3656 63.4136C72.8079 63.0836 72.3772 62.6248 72.0736 62.0374C71.77 61.4467 71.6182 60.7619 71.6182 59.9831C71.6182 59.1977 71.77 58.5112 72.0736 57.9238C72.3772 57.3331 72.8079 56.8744 73.3656 56.5476C73.9266 56.2176 74.5916 56.0526 75.3605 56.0526C76.1295 56.0526 76.7928 56.2176 77.3505 56.5476C77.9115 56.8744 78.3438 57.3331 78.6475 57.9238C78.9511 58.5112 79.1029 59.1977 79.1029 59.9831C79.1029 60.7619 78.9511 61.4467 78.6475 62.0374C78.3438 62.6248 77.9115 63.0836 77.3505 63.4136C76.7928 63.7403 76.1295 63.9036 75.3605 63.9036ZM75.3704 62.2701C75.7202 62.2701 76.0123 62.1711 76.2466 61.9731C76.4809 61.7718 76.6575 61.4978 76.7763 61.1513C76.8984 60.8048 76.9594 60.4104 76.9594 59.9682C76.9594 59.526 76.8984 59.1316 76.7763 58.7851C76.6575 58.4386 76.4809 58.1647 76.2466 57.9634C76.0123 57.7621 75.7202 57.6614 75.3704 57.6614C75.0173 57.6614 74.7203 57.7621 74.4794 57.9634C74.2418 58.1647 74.0619 58.4386 73.9398 58.7851C73.821 59.1316 73.7616 59.526 73.7616 59.9682C73.7616 60.4104 73.821 60.8048 73.9398 61.1513C74.0619 61.4978 74.2418 61.7718 74.4794 61.9731C74.7203 62.1711 75.0173 62.2701 75.3704 62.2701Z" fill="#74BFF2"/>
<path d="M81.7067 63.8838C81.38 63.8838 81.0994 63.7683 80.8651 63.5373C80.6341 63.303 80.5186 63.0225 80.5186 62.6958C80.5186 62.3724 80.6341 62.0952 80.8651 61.8642C81.0994 61.6331 81.38 61.5176 81.7067 61.5176C82.0235 61.5176 82.3007 61.6331 82.5383 61.8642C82.7759 62.0952 82.8947 62.3724 82.8947 62.6958C82.8947 62.9136 82.8386 63.1133 82.7264 63.2948C82.6175 63.473 82.474 63.6165 82.2957 63.7254C82.1175 63.831 81.9212 63.8838 81.7067 63.8838Z" fill="#74BFF2"/>
<path d="M73.2901 63.5432L73.2892 63.5427C72.7067 63.198 72.2566 62.7182 71.9403 62.1063L71.9402 62.106C71.6239 61.4907 71.4682 60.7817 71.4682 59.9831C71.4682 59.1783 71.6238 58.4675 71.9402 57.8552C72.2564 57.2399 72.7067 56.7598 73.2897 56.4183C73.8776 56.0725 74.5698 55.9026 75.3605 55.9026C76.1511 55.9026 76.8417 56.0724 77.4264 56.4183M73.2901 63.5432L77.3505 56.5476M73.2901 63.5432C73.878 63.8855 74.57 64.0536 75.3605 64.0536C76.151 64.0536 76.8416 63.8855 77.4263 63.543L77.4266 63.5429C78.0124 63.1983 78.4643 62.7184 78.7807 62.1063L78.7809 62.106C79.0971 61.4907 79.2529 60.7817 79.2529 59.9831C79.2529 59.1783 79.0973 58.4675 78.7809 57.8552M73.2901 63.5432L78.6475 57.9238M77.4264 56.4183C77.4266 56.4184 77.4267 56.4185 77.4269 56.4186L77.3505 56.5476M77.4264 56.4183C77.4263 56.4182 77.4261 56.4181 77.426 56.418L77.3505 56.5476M77.4264 56.4183C78.0126 56.7597 78.4646 57.2398 78.7809 57.8552M77.3505 56.5476C77.9115 56.8744 78.3438 57.3331 78.6475 57.9238M78.7809 57.8552C78.7808 57.8551 78.7808 57.855 78.7807 57.8549L78.6475 57.9238M78.7809 57.8552L78.6475 57.9238M82.8542 63.3734C82.9812 63.1677 83.0447 62.9408 83.0447 62.6958C83.0447 62.3308 82.9087 62.0151 82.6429 61.7566C82.3787 61.4998 82.0645 61.3676 81.7067 61.3676C81.3402 61.3676 81.022 61.4989 80.7598 61.7573L80.7591 61.7581C80.5003 62.0169 80.3686 62.3321 80.3686 62.6958C80.3686 63.0622 80.4999 63.3805 80.7583 63.6426L80.7598 63.6441C81.022 63.9026 81.3402 64.0338 81.7067 64.0338C81.9471 64.0338 82.17 63.9743 82.3722 63.8545L82.374 63.8534C82.5723 63.7322 82.7329 63.5717 82.8542 63.3734ZM82.8542 63.3734C82.8541 63.3735 82.8541 63.3736 82.854 63.3736L82.7264 63.2948M82.8542 63.3734C82.8542 63.3733 82.8543 63.3731 82.8544 63.373L82.7264 63.2948M82.7264 63.2948C82.6175 63.473 82.474 63.6165 82.2957 63.7254L80.8651 63.5373C80.6341 63.303 80.5186 63.0225 80.5186 62.6958C80.5186 62.3724 80.6341 62.0952 80.8651 61.8642C81.0994 61.6331 81.38 61.5176 81.7067 61.5176C82.0235 61.5176 82.3007 61.6331 82.5383 61.8642C82.7759 62.0952 82.8947 62.3724 82.8947 62.6958C82.8947 62.9136 82.8386 63.1133 82.7264 63.2948ZM59.0605 63.7551C59.0605 63.838 59.1277 63.9051 59.2105 63.9051H61.3193C61.4021 63.9051 61.4693 63.838 61.4693 63.7551V59.1911C61.4693 58.9301 61.5199 58.7106 61.6155 58.528L61.616 58.5272C61.7137 58.3377 61.8428 58.1955 62.0027 58.0956L62.0033 58.0952C62.1661 57.9923 62.3493 57.9401 62.5568 57.9401C62.8684 57.9401 63.1059 58.038 63.285 58.2254L63.285 58.2254L63.2858 58.2263C63.4676 58.4137 63.5652 58.6702 63.5652 59.0128V63.7551C63.5652 63.838 63.6323 63.9051 63.7152 63.9051H65.7596C65.8425 63.9051 65.9096 63.838 65.9096 63.7551V59.1118C65.9096 58.7439 66.0086 58.4638 66.1934 58.2562L66.1941 58.2555C66.375 58.0495 66.6293 57.9401 66.9774 57.9401C67.2796 57.9401 67.5222 58.0337 67.7161 58.2162C67.9005 58.3898 68.0055 58.6605 68.0055 59.0574V63.7551C68.0055 63.838 68.0727 63.9051 68.1555 63.9051H70.2593C70.3422 63.9051 70.4093 63.838 70.4093 63.7551V58.6416C70.4093 57.7897 70.1788 57.1102 69.6979 56.6255C69.224 56.1412 68.6077 55.9026 67.8635 55.9026C67.2813 55.9026 66.7688 56.0407 66.332 56.3224C65.9834 56.5463 65.7193 56.8328 65.5426 57.1807C65.3953 56.8313 65.1628 56.5438 64.8463 56.3212C64.4508 56.0398 63.9754 55.9026 63.4281 55.9026C62.8871 55.9026 62.414 56.0383 62.0157 56.3157C61.749 56.5014 61.5338 56.7329 61.3703 57.0087V56.1516C61.3703 56.0688 61.3031 56.0016 61.2203 56.0016H59.2105C59.1277 56.0016 59.0605 56.0688 59.0605 56.1516V63.7551ZM76.6348 61.1015L76.6344 61.1027C76.5227 61.4284 76.3597 61.6779 76.1494 61.8588C75.946 62.0306 75.6899 62.1201 75.3704 62.1201C75.0476 62.1201 74.7859 62.0305 74.5755 61.8579C74.3621 61.6768 74.1962 61.4273 74.0815 61.1021C73.9692 60.7742 73.9116 60.397 73.9116 59.9682C73.9116 59.5395 73.9692 59.1622 74.0815 58.8344C74.1963 58.5089 74.3623 58.2593 74.5759 58.0782C74.7864 57.9025 75.048 57.8114 75.3704 57.8114C75.6894 57.8114 75.9454 57.9023 76.1489 58.0772C76.3594 58.2581 76.5226 58.5078 76.6344 58.8338L76.6348 58.835C76.7502 59.1626 76.8094 59.5396 76.8094 59.9682C76.8094 60.3968 76.7502 60.7739 76.6348 61.1015Z" stroke="#64717C" stroke-opacity="0.3" stroke-width="0.3" stroke-linejoin="round"/>
<rect x="0.5" y="0.5" width="149" height="161.632" rx="9.5" stroke="rgba(0,0,0,0)" stroke-linejoin="round"/>
<defs>
<linearGradient id="paint0_linear_287_5950" x1="68.6842" y1="60.2621" x2="68.6842" y2="195.009" gradientUnits="userSpaceOnUse">
<stop stop-color="#F9F9F9"/>
<stop offset="0.26" stop-color="#F0F1F2"/>
<stop offset="0.678" stop-color="#D9DCDF"/>
<stop offset="1" stop-color="#C2C8CC"/>
</linearGradient>
<linearGradient id="paint1_linear_287_5950" x1="89.4979" y1="85.86" x2="131.615" y2="144.145" gradientUnits="userSpaceOnUse">
<stop stop-color="#899198"/>
<stop offset="1" stop-color="#787E85"/>
</linearGradient>
<linearGradient id="paint2_linear_287_5950" x1="97.8884" y1="89.3053" x2="127.639" y2="103.086" gradientUnits="userSpaceOnUse">
<stop stop-color="#4FE5FF" stop-opacity="0.52"/>
<stop offset="1" stop-color="#2EB7ED" stop-opacity="0.52"/>
</linearGradient>
<linearGradient id="paint3_linear_287_5950" x1="123.947" y1="120.079" x2="123.947" y2="140.751" gradientUnits="userSpaceOnUse">
<stop stop-color="#11498A"/>
<stop offset="1" stop-color="#0F417A"/>
</linearGradient>
</defs>
</svg>
