<svg width="150" height="163" viewBox="0 0 150 163" fill="none" xmlns="http://www.w3.org/2000/svg">
<rect x="0.5" y="0.5" width="149" height="161.632" rx="9.5" fill="#FDFDFD" fill-opacity="0.8"/>
<path d="M116.053 141.316H21.3158C17.8263 141.316 15 138.489 15 135V21.3158C15 17.8263 17.8263 15 21.3158 15H116.053C119.542 15 122.368 17.8263 122.368 21.3158V135C122.368 138.489 119.542 141.316 116.053 141.316Z" fill="#057093"/>
<path opacity="0.05" d="M85.0169 21.3158C86.6905 21.3158 88.2979 21.9821 89.4821 23.1663L114.202 47.8863C115.386 49.0705 116.053 50.6779 116.053 52.3516V131.842C116.053 133.585 114.638 135 112.895 135H24.4737C22.7305 135 21.3158 133.585 21.3158 131.842V24.4737C21.3158 22.7305 22.7305 21.3158 24.4737 21.3158H85.0169ZM85.0169 18.1579H24.4737C20.9905 18.1579 18.1579 20.9905 18.1579 24.4737V131.842C18.1579 135.325 20.9905 138.158 24.4737 138.158H112.895C116.378 138.158 119.211 135.325 119.211 131.842V52.3516C119.211 49.8221 118.225 47.4411 116.435 45.6537L91.7147 20.9337C89.9242 19.1432 87.5463 18.1579 85.0169 18.1579Z" fill="black"/>
<path opacity="0.07" d="M85.0169 21.3158C86.6905 21.3158 88.2979 21.9821 89.4821 23.1663L114.202 47.8863C115.386 49.0705 116.053 50.6779 116.053 52.3516V131.842C116.053 133.585 114.638 135 112.895 135H24.4737C22.7305 135 21.3158 133.585 21.3158 131.842V24.4737C21.3158 22.7305 22.7305 21.3158 24.4737 21.3158H85.0169ZM85.0169 19.7368H24.4737C21.8621 19.7368 19.7368 21.8621 19.7368 24.4737V131.842C19.7368 134.454 21.8621 136.579 24.4737 136.579H112.895C115.506 136.579 117.632 134.454 117.632 131.842V52.3516C117.632 50.2421 116.811 48.259 115.32 46.7684L90.6 22.0484C89.1063 20.5579 87.1232 19.7368 85.0169 19.7368Z" fill="black"/>
<path d="M24.4737 21.3158C22.7305 21.3158 21.3158 22.7305 21.3158 24.4737V131.842C21.3158 133.585 22.7305 135 24.4737 135H112.895C114.638 135 116.053 133.585 116.053 131.842V52.3516C116.053 50.6779 115.386 49.0705 114.202 47.8863L89.4821 23.1663C88.2979 21.9821 86.6905 21.3158 85.0168 21.3158H24.4737Z" fill="url(#paint0_linear_287_5956)"/>
<path d="M48.1579 109.737H32.3684C31.4968 109.737 30.7895 109.029 30.7895 108.158V105C30.7895 104.128 31.4968 103.421 32.3684 103.421H48.1579C49.0295 103.421 49.7368 104.128 49.7368 105V108.158C49.7368 109.029 49.0295 109.737 48.1579 109.737Z" fill="#057093"/>
<path d="M73.421 109.737H57.6316C56.76 109.737 56.0526 109.029 56.0526 108.158V105C56.0526 104.128 56.76 103.421 57.6316 103.421H73.421C74.2926 103.421 75 104.128 75 105V108.158C75 109.029 74.2926 109.737 73.421 109.737Z" fill="#057093"/>
<path d="M98.6842 109.737H82.8947C82.0231 109.737 81.3158 109.029 81.3158 108.158V105C81.3158 104.128 82.0231 103.421 82.8947 103.421H98.6842C99.5558 103.421 100.263 104.128 100.263 105V108.158C100.263 109.029 99.5558 109.737 98.6842 109.737Z" fill="#057093"/>
<path d="M48.1579 100.263H32.3684C31.4968 100.263 30.7895 99.5558 30.7895 98.6842V95.5263C30.7895 94.6547 31.4968 93.9474 32.3684 93.9474H48.1579C49.0295 93.9474 49.7368 94.6547 49.7368 95.5263V98.6842C49.7368 99.5558 49.0295 100.263 48.1579 100.263Z" fill="#057093"/>
<path d="M73.421 100.263H57.6316C56.76 100.263 56.0526 99.5558 56.0526 98.6842V95.5263C56.0526 94.6547 56.76 93.9474 57.6316 93.9474H73.421C74.2926 93.9474 75 94.6547 75 95.5263V98.6842C75 99.5558 74.2926 100.263 73.421 100.263Z" fill="#057093"/>
<path d="M98.6842 100.263H82.8947C82.0231 100.263 81.3158 99.5558 81.3158 98.6842V95.5263C81.3158 94.6547 82.0231 93.9474 82.8947 93.9474H98.6842C99.5558 93.9474 100.263 94.6547 100.263 95.5263V98.6842C100.263 99.5558 99.5558 100.263 98.6842 100.263Z" fill="#057093"/>
<path d="M48.1579 90.7895H32.3684C31.4968 90.7895 30.7895 90.0821 30.7895 89.2105V86.0526C30.7895 85.181 31.4968 84.4737 32.3684 84.4737H48.1579C49.0295 84.4737 49.7368 85.181 49.7368 86.0526V89.2105C49.7368 90.0821 49.0295 90.7895 48.1579 90.7895Z" fill="#057093"/>
<path d="M73.421 90.7895H57.6316C56.76 90.7895 56.0526 90.0821 56.0526 89.2105V86.0526C56.0526 85.181 56.76 84.4737 57.6316 84.4737H73.421C74.2926 84.4737 75 85.181 75 86.0526V89.2105C75 90.0821 74.2926 90.7895 73.421 90.7895Z" fill="#057093"/>
<path d="M98.6842 90.7895H82.8947C82.0231 90.7895 81.3158 90.0821 81.3158 89.2105V86.0526C81.3158 85.181 82.0231 84.4737 82.8947 84.4737H98.6842C99.5558 84.4737 100.263 85.181 100.263 86.0526V89.2105C100.263 90.0821 99.5558 90.7895 98.6842 90.7895Z" fill="#057093"/>
<path d="M48.1579 81.3158H32.3684C31.4968 81.3158 30.7895 80.6084 30.7895 79.7368V76.5789C30.7895 75.7074 31.4968 75 32.3684 75H48.1579C49.0295 75 49.7368 75.7074 49.7368 76.5789V79.7368C49.7368 80.6084 49.0295 81.3158 48.1579 81.3158Z" fill="#C7E7FF"/>
<path d="M73.421 81.3158H57.6316C56.76 81.3158 56.0526 80.6084 56.0526 79.7368V76.5789C56.0526 75.7074 56.76 75 57.6316 75H73.421C74.2926 75 75 75.7074 75 76.5789V79.7368C75 80.6084 74.2926 81.3158 73.421 81.3158Z" fill="#C7E7FF"/>
<path d="M98.6842 81.3158H82.8947C82.0231 81.3158 81.3158 80.6084 81.3158 79.7368V76.5789C81.3158 75.7074 82.0231 75 82.8947 75H98.6842C99.5558 75 100.263 75.7074 100.263 76.5789V79.7368C100.263 80.6084 99.5558 81.3158 98.6842 81.3158Z" fill="#C7E7FF"/>
<path d="M48.1579 119.211H32.3684C31.4968 119.211 30.7895 118.503 30.7895 117.632V114.474C30.7895 113.602 31.4968 112.895 32.3684 112.895H48.1579C49.0295 112.895 49.7368 113.602 49.7368 114.474V117.632C49.7368 118.503 49.0295 119.211 48.1579 119.211Z" fill="#057093"/>
<path d="M73.421 119.211H57.6316C56.76 119.211 56.0526 118.503 56.0526 117.632V114.474C56.0526 113.602 56.76 112.895 57.6316 112.895H73.421C74.2926 112.895 75 113.602 75 114.474V117.632C75 118.503 74.2926 119.211 73.421 119.211Z" fill="#057093"/>
<path d="M98.6842 119.211H82.8947C82.0231 119.211 81.3158 118.503 81.3158 117.632V114.474C81.3158 113.602 82.0231 112.895 82.8947 112.895H98.6842C99.5558 112.895 100.263 113.602 100.263 114.474V117.632C100.263 118.503 99.5558 119.211 98.6842 119.211Z" fill="#057093"/>
<path d="M48.1579 52.8297C48.1579 44.9516 36.7426 46.4901 36.7426 41.8356C36.7426 39.4049 39.4231 39.2776 40.2624 39.2776C42.278 39.2776 44.2215 39.8279 45.7047 40.5375C46.1726 40.7613 46.7095 40.4302 46.7095 39.9045V37.6116C46.7095 36.8422 46.4251 36.3871 45.9723 36.2077C44.9553 35.8046 43.4965 35.5119 41.3365 35.4383V32.9156C41.3365 32.6136 41.0956 32.3684 40.7995 32.3684H39.7254C39.4291 32.3684 39.1884 32.6136 39.1884 32.9156V35.4797C35.8401 35.8138 32.3684 37.7389 32.3684 42.2188C32.3684 50.3847 43.7838 48.7662 43.7838 53.0671C43.7838 54.4185 42.9369 55.5836 40.2639 55.5836C37.5774 55.5836 35.1106 54.6287 33.7448 53.9158C33.283 53.6737 32.7414 54.0203 32.7414 54.5462V57.1561C32.7414 57.6571 33.0378 58.1018 33.4891 58.298C35.1075 58.9986 37.2781 59.5286 39.1869 59.6836V62.4712C39.1869 62.7736 39.4276 63.0186 39.7239 63.0186H40.7978C41.0944 63.0186 41.3347 62.7736 41.3347 62.4712V59.6894C46.3467 59.2633 48.1579 55.846 48.1579 52.8297Z" fill="#45B0D0"/>
<path opacity="0.05" d="M122.368 78.1579H87.6316C84.1421 78.1579 81.3158 80.9842 81.3158 84.4737V141.316C81.3158 144.805 84.1421 147.632 87.6316 147.632H122.368V78.1579Z" fill="black"/>
<path opacity="0.07" d="M122.368 81.3158H89.2105C86.5958 81.3158 84.4737 83.4379 84.4737 86.0526V142.895C84.4737 145.509 86.5958 147.632 89.2105 147.632H122.368V81.3158Z" fill="black"/>
<path d="M131.842 84.4737H90.7895C89.0463 84.4737 87.6316 85.8884 87.6316 87.6316V144.474C87.6316 146.217 89.0463 147.632 90.7895 147.632H131.842C133.585 147.632 135 146.217 135 144.474V87.6316C135 85.8884 133.585 84.4737 131.842 84.4737Z" fill="url(#paint1_linear_287_5956)"/>
<path d="M127.105 100.263H95.5263C94.6547 100.263 93.9474 99.5558 93.9474 98.6842V92.3684C93.9474 91.4968 94.6547 90.7895 95.5263 90.7895H127.105C127.977 90.7895 128.684 91.4968 128.684 92.3684V98.6842C128.684 99.5558 127.977 100.263 127.105 100.263Z" fill="url(#paint2_linear_287_5956)"/>
<path d="M114.474 116.053H108.158C107.286 116.053 106.579 115.345 106.579 114.474V108.158C106.579 107.286 107.286 106.579 108.158 106.579H114.474C115.345 106.579 116.053 107.286 116.053 108.158V114.474C116.053 115.345 115.345 116.053 114.474 116.053Z" fill="#CAD2D9"/>
<path d="M101.842 116.053H95.5263C94.6547 116.053 93.9474 115.345 93.9474 114.474V108.158C93.9474 107.286 94.6547 106.579 95.5263 106.579H101.842C102.714 106.579 103.421 107.286 103.421 108.158V114.474C103.421 115.345 102.714 116.053 101.842 116.053Z" fill="#CAD2D9"/>
<path d="M114.474 128.684H108.158C107.286 128.684 106.579 127.977 106.579 127.105V120.789C106.579 119.918 107.286 119.211 108.158 119.211H114.474C115.345 119.211 116.053 119.918 116.053 120.789V127.105C116.053 127.977 115.345 128.684 114.474 128.684Z" fill="#CAD2D9"/>
<path d="M101.842 128.684H95.5263C94.6547 128.684 93.9474 127.977 93.9474 127.105V120.789C93.9474 119.918 94.6547 119.211 95.5263 119.211H101.842C102.714 119.211 103.421 119.918 103.421 120.789V127.105C103.421 127.977 102.714 128.684 101.842 128.684Z" fill="#CAD2D9"/>
<path d="M114.474 141.316H108.158C107.286 141.316 106.579 140.608 106.579 139.737V133.421C106.579 132.549 107.286 131.842 108.158 131.842H114.474C115.345 131.842 116.053 132.549 116.053 133.421V139.737C116.053 140.608 115.345 141.316 114.474 141.316Z" fill="#CAD2D9"/>
<path d="M101.842 141.316H95.5263C94.6547 141.316 93.9474 140.608 93.9474 139.737V133.421C93.9474 132.549 94.6547 131.842 95.5263 131.842H101.842C102.714 131.842 103.421 132.549 103.421 133.421V139.737C103.421 140.608 102.714 141.316 101.842 141.316Z" fill="#CAD2D9"/>
<path d="M127.105 116.053H120.789C119.918 116.053 119.211 115.345 119.211 114.474V108.158C119.211 107.286 119.918 106.579 120.789 106.579H127.105C127.977 106.579 128.684 107.286 128.684 108.158V114.474C128.684 115.345 127.977 116.053 127.105 116.053Z" fill="#CAD2D9"/>
<path d="M127.105 141.316H120.789C119.918 141.316 119.211 140.608 119.211 139.737V120.789C119.211 119.918 119.918 119.211 120.789 119.211H127.105C127.977 119.211 128.684 119.918 128.684 120.789V139.737C128.684 140.608 127.977 141.316 127.105 141.316Z" fill="url(#paint3_linear_287_5956)"/>
<rect x="54.6794" y="49.7368" width="1.57895" height="14.1223" rx="0.789474" transform="rotate(20.4862 54.6794 49.7368)" fill="#D9D9D9"/>
<path d="M63.5871 63.6075V60.2516H63.534C63.4523 60.4258 63.3367 60.5986 63.187 60.7701C63.04 60.9388 62.8481 61.079 62.6113 61.1906C62.3773 61.3022 62.0915 61.358 61.754 61.358C61.2777 61.358 60.8463 61.2355 60.4598 60.9906C60.076 60.7429 59.7712 60.3795 59.5453 59.9005C59.3221 59.4187 59.2105 58.8281 59.2105 58.1286C59.2105 57.4101 59.3262 56.8127 59.5575 56.3364C59.7889 55.8574 60.0964 55.4994 60.4802 55.2627C60.8667 55.0231 61.2899 54.9034 61.7499 54.9034C62.101 54.9034 62.3936 54.9633 62.6277 55.083C62.8644 55.2001 63.055 55.347 63.1992 55.5239C63.3462 55.6981 63.4578 55.8696 63.534 56.0384H63.6075V54.985H65.3222V63.6075H63.5871ZM62.3051 59.974C62.5855 59.974 62.8223 59.8978 63.0155 59.7454C63.2115 59.5902 63.3612 59.3738 63.4646 59.0962C63.5707 58.8186 63.6238 58.4934 63.6238 58.1205C63.6238 57.7476 63.5721 57.4237 63.4687 57.1488C63.3652 56.8739 63.2155 56.6616 63.0196 56.5119C62.8236 56.3622 62.5855 56.2874 62.3051 56.2874C62.0193 56.2874 61.7785 56.365 61.5825 56.5201C61.3865 56.6752 61.2382 56.8903 61.1375 57.1651C61.0368 57.44 60.9864 57.7585 60.9864 58.1205C60.9864 58.4852 61.0368 58.8077 61.1375 59.0881C61.2409 59.3657 61.3893 59.5834 61.5825 59.7413C61.7785 59.8964 62.0193 59.974 62.3051 59.974Z" fill="#45B0D0"/>
<path d="M66.7184 61.2559V54.985H68.4045V56.0792H68.4699C68.5842 55.69 68.7761 55.396 69.0455 55.1973C69.315 54.9959 69.6252 54.8952 69.9763 54.8952C70.0634 54.8952 70.1573 54.9007 70.258 54.9116C70.3587 54.9224 70.4472 54.9374 70.5234 54.9565V56.4997C70.4418 56.4752 70.3288 56.4534 70.1846 56.4344C70.0403 56.4153 69.9083 56.4058 69.7885 56.4058C69.5327 56.4058 69.3041 56.4616 69.1027 56.5732C68.904 56.682 68.7461 56.8345 68.6291 57.0304C68.5148 57.2264 68.4576 57.4523 68.4576 57.7081V61.2559H66.7184Z" fill="#45B0D0"/>
<path d="M73.1618 52.8947V61.2559H71.4226V52.8947H73.1618Z" fill="#45B0D0"/>
<path d="M75.6287 63.6075C75.4082 63.6075 75.2014 63.5898 75.0081 63.5544C74.8176 63.5218 74.6598 63.4796 74.5346 63.4279L74.9265 62.1296C75.1306 62.1922 75.3143 62.2262 75.4776 62.2317C75.6437 62.2371 75.7866 62.199 75.9063 62.1173C76.0288 62.0357 76.1281 61.8969 76.2044 61.7009L76.3064 61.4356L74.0569 54.985H75.8859L77.1842 59.5902H77.2495L78.56 54.985H80.4013L77.964 61.9336C77.8469 62.2711 77.6877 62.5651 77.4863 62.8155C77.2876 63.0686 77.0358 63.2632 76.731 63.3993C76.4262 63.5381 76.0587 63.6075 75.6287 63.6075Z" fill="#45B0D0"/>
<path d="M81.9149 61.3621C81.6454 61.3621 81.4141 61.2668 81.2209 61.0763C81.0303 60.883 80.9351 60.6517 80.9351 60.3822C80.9351 60.1155 81.0303 59.8869 81.2209 59.6964C81.4141 59.5058 81.6454 59.4106 81.9149 59.4106C82.1762 59.4106 82.4048 59.5058 82.6008 59.6964C82.7967 59.8869 82.8947 60.1155 82.8947 60.3822C82.8947 60.5619 82.8484 60.7265 82.7559 60.8762C82.6661 61.0232 82.5477 61.1416 82.4007 61.2314C82.2537 61.3185 82.0918 61.3621 81.9149 61.3621Z" fill="#45B0D0"/>
<path d="M63.5871 63.7575C63.5042 63.7575 63.4371 63.6903 63.4371 63.6075V60.6993C63.3947 60.7562 63.349 60.8126 63.3001 60.8686L63.5871 63.7575ZM63.5871 63.7575H65.3222C65.405 63.7575 65.4722 63.6903 65.4722 63.6075V54.985C65.4722 54.9022 65.405 54.835 65.3222 54.835H63.6075C63.5246 54.835 63.4575 54.9022 63.4575 54.985V55.6115M63.5871 63.7575L63.4575 55.6115M63.4575 55.6115C63.4138 55.5503 63.3661 55.4892 63.3147 55.4281M63.4575 55.6115L63.3155 55.4292C63.3152 55.4288 63.3149 55.4285 63.3147 55.4281M63.3147 55.4281C63.1552 55.2329 62.9472 55.0738 62.695 54.949M63.3147 55.4281L62.695 54.949M62.695 54.949C62.4341 54.8158 62.1167 54.7534 61.7499 54.7534C61.2624 54.7534 60.8118 54.8807 60.4013 55.1351C59.9892 55.3894 59.664 55.771 59.4225 56.271C59.1784 56.7736 59.0605 57.3952 59.0605 58.1286C59.0605 58.8433 59.1744 59.4568 59.4092 59.9635L59.4096 59.9645C59.6455 60.4647 59.9676 60.8514 60.3784 61.1166L60.3795 61.1172C60.791 61.3781 61.2505 61.508 61.754 61.508C62.1072 61.508 62.4163 61.4497 62.6756 61.3261C62.6757 61.3261 62.6758 61.326 62.6759 61.326L62.6113 61.1906L62.695 54.949ZM77.2174 59.1551L78.4157 54.944C78.4341 54.8795 78.493 54.835 78.56 54.835H80.4013C80.4499 54.835 80.4955 54.8586 80.5236 54.8983C80.5518 54.938 80.5589 54.9888 80.5428 55.0347L78.1057 61.9828C78.1056 61.9829 78.1056 61.983 78.1055 61.9832L78.1055 61.9833L77.964 61.9336L77.2174 59.1551ZM77.2174 59.1551L76.0303 54.9443C76.0121 54.8797 75.9531 54.835 75.8859 54.835H74.0569C74.0083 54.835 73.9627 54.8586 73.9346 54.8982C73.9065 54.9378 73.8993 54.9886 73.9153 55.0344L76.1467 61.433L76.0646 61.6466C75.9949 61.8256 75.9111 61.9339 75.8231 61.9925L75.8218 61.9934C75.7321 62.0546 75.6216 62.0863 75.4826 62.0817C75.3358 62.0768 75.1656 62.046 74.9705 61.9862C74.9323 61.9745 74.8911 61.9785 74.8559 61.9972C74.8207 62.016 74.7944 62.0481 74.7829 62.0862L74.391 63.3845C74.3687 63.4584 74.406 63.5371 74.4773 63.5665C74.6159 63.6238 74.7851 63.6683 74.982 63.7021M77.2174 59.1551L77.6037 62.9088C77.3896 63.1813 77.1184 63.3905 76.7927 63.536C76.4637 63.6857 76.0741 63.7575 75.6287 63.7575C75.4006 63.7575 75.1849 63.7392 74.982 63.7021M74.982 63.7021C74.9823 63.7022 74.9825 63.7022 74.9828 63.7023L75.0081 63.5544L74.9811 63.702C74.9814 63.702 74.9817 63.7021 74.982 63.7021ZM82.8837 60.9548C82.9911 60.781 83.0447 60.589 83.0447 60.3822C83.0447 60.0739 82.9295 59.8068 82.7053 59.5888C82.4828 59.3725 82.2172 59.2606 81.9149 59.2606C81.6057 59.2606 81.3366 59.3716 81.1155 59.5895L81.1148 59.5903C80.8965 59.8086 80.7851 60.0753 80.7851 60.3822C80.7851 60.6914 80.8961 60.9605 81.114 61.1816L81.1155 61.1831C81.3366 61.4011 81.6057 61.5121 81.9149 61.5121C82.1177 61.5121 82.3062 61.4618 82.4772 61.3605L82.4789 61.3594C82.6461 61.2573 82.7815 61.1219 82.8837 60.9548ZM82.8837 60.9548C82.8836 60.9549 82.8836 60.955 82.8835 60.9551L82.7559 60.8762L82.8839 60.9545C82.8838 60.9546 82.8838 60.9547 82.8837 60.9548ZM63.3245 59.0426L63.324 59.0439C63.2284 59.3005 63.0932 59.4925 62.9225 59.6277C62.7594 59.7563 62.5566 59.824 62.3051 59.824C62.0485 59.824 61.8421 59.7551 61.6765 59.6244C61.508 59.4865 61.3741 59.293 61.2784 59.0365C61.1848 58.7758 61.1364 58.4713 61.1364 58.1205C61.1364 57.7721 61.1849 57.4717 61.2783 57.2167C61.3712 56.9633 61.5048 56.7729 61.6756 56.6377C61.8413 56.5065 62.048 56.4374 62.3051 56.4374C62.5573 56.4374 62.7622 56.5041 62.9285 56.6311C63.0982 56.7607 63.2328 56.948 63.3283 57.2016C63.4239 57.4558 63.4738 57.761 63.4738 58.1205C63.4738 58.4795 63.4227 58.7859 63.3245 59.0426ZM66.5684 61.2559C66.5684 61.3388 66.6356 61.4059 66.7184 61.4059H68.4576C68.5405 61.4059 68.6076 61.3388 68.6076 61.2559V57.7081C68.6076 57.4757 68.6592 57.2767 68.7583 57.1067C68.8617 56.9338 68.9999 56.8005 69.1747 56.7047L69.1754 56.7044C69.3521 56.6064 69.5552 56.5558 69.7885 56.5558C69.9005 56.5558 70.0258 56.5647 70.1649 56.5831C70.3059 56.6017 70.4098 56.6222 70.4803 56.6434C70.5257 56.657 70.5749 56.6483 70.6129 56.62C70.651 56.5917 70.6734 56.5471 70.6734 56.4997V54.9565C70.6734 54.8876 70.6266 54.8276 70.5598 54.8109C70.4753 54.7898 70.3799 54.7738 70.2742 54.7624C70.1689 54.751 70.0696 54.7452 69.9763 54.7452C69.5946 54.7452 69.2526 54.8554 68.9561 55.0769C68.7964 55.1947 68.6628 55.3415 68.5545 55.5152V54.985C68.5545 54.9022 68.4874 54.835 68.4045 54.835H66.7184C66.6356 54.835 66.5684 54.9022 66.5684 54.985V61.2559ZM73.3118 52.8947C73.3118 52.8119 73.2446 52.7447 73.1618 52.7447H71.4226C71.3398 52.7447 71.2726 52.8119 71.2726 52.8947V61.2559C71.2726 61.3388 71.3398 61.4059 71.4226 61.4059H73.1618C73.2446 61.4059 73.3118 61.3388 73.3118 61.2559V52.8947Z" stroke="#64717C" stroke-opacity="0.3" stroke-width="0.3" stroke-linejoin="round"/>
<rect x="0.5" y="0.5" width="149" height="161.632" rx="9.5" stroke="rgba(0,0,0,0)" stroke-linejoin="round"/>
<defs>
<linearGradient id="paint0_linear_287_5956" x1="68.6842" y1="60.2621" x2="68.6842" y2="195.009" gradientUnits="userSpaceOnUse">
<stop stop-color="#F9F9F9"/>
<stop offset="0.26" stop-color="#F0F1F2"/>
<stop offset="0.678" stop-color="#D9DCDF"/>
<stop offset="1" stop-color="#C2C8CC"/>
</linearGradient>
<linearGradient id="paint1_linear_287_5956" x1="89.4979" y1="85.86" x2="131.615" y2="144.145" gradientUnits="userSpaceOnUse">
<stop stop-color="#899198"/>
<stop offset="1" stop-color="#787E85"/>
</linearGradient>
<linearGradient id="paint2_linear_287_5956" x1="97.8884" y1="89.3053" x2="127.639" y2="103.086" gradientUnits="userSpaceOnUse">
<stop stop-color="#4FE5FF" stop-opacity="0.52"/>
<stop offset="1" stop-color="#2EB7ED" stop-opacity="0.52"/>
</linearGradient>
<linearGradient id="paint3_linear_287_5956" x1="123.947" y1="120.079" x2="123.947" y2="140.751" gradientUnits="userSpaceOnUse">
<stop stop-color="#11498A"/>
<stop offset="1" stop-color="#0F417A"/>
</linearGradient>
</defs>
</svg>
