<svg width="150" height="163" viewBox="0 0 150 163" fill="none" xmlns="http://www.w3.org/2000/svg">
<rect x="0.5" y="0.5" width="149" height="161.632" rx="9.5" fill="#FDFDFD" fill-opacity="0.8"/>
<path d="M116.053 141.316H21.3158C17.8263 141.316 15 138.489 15 135V21.3158C15 17.8263 17.8263 15 21.3158 15H116.053C119.542 15 122.368 17.8263 122.368 21.3158V135C122.368 138.489 119.542 141.316 116.053 141.316Z" fill="#88B0CE"/>
<path opacity="0.05" d="M85.0169 21.3158C86.6905 21.3158 88.2979 21.9821 89.4821 23.1663L114.202 47.8863C115.386 49.0705 116.053 50.6779 116.053 52.3516V131.842C116.053 133.585 114.638 135 112.895 135H24.4737C22.7305 135 21.3158 133.585 21.3158 131.842V24.4737C21.3158 22.7305 22.7305 21.3158 24.4737 21.3158H85.0169ZM85.0169 18.1579H24.4737C20.9905 18.1579 18.1579 20.9905 18.1579 24.4737V131.842C18.1579 135.325 20.9905 138.158 24.4737 138.158H112.895C116.378 138.158 119.211 135.325 119.211 131.842V52.3516C119.211 49.8221 118.225 47.4411 116.435 45.6537L91.7147 20.9337C89.9242 19.1432 87.5463 18.1579 85.0169 18.1579Z" fill="black"/>
<path opacity="0.07" d="M85.0168 21.3158C86.6905 21.3158 88.2979 21.9821 89.4821 23.1663L114.202 47.8863C115.386 49.0705 116.053 50.6779 116.053 52.3516V131.842C116.053 133.585 114.638 135 112.895 135H24.4737C22.7305 135 21.3158 133.585 21.3158 131.842V24.4737C21.3158 22.7305 22.7305 21.3158 24.4737 21.3158H85.0168ZM85.0168 19.7368H24.4737C21.8621 19.7368 19.7368 21.8621 19.7368 24.4737V131.842C19.7368 134.454 21.8621 136.579 24.4737 136.579H112.895C115.506 136.579 117.632 134.454 117.632 131.842V52.3516C117.632 50.2421 116.811 48.259 115.32 46.7684L90.6 22.0484C89.1063 20.5579 87.1231 19.7368 85.0168 19.7368Z" fill="black"/>
<path d="M24.4737 21.3158C22.7305 21.3158 21.3158 22.7305 21.3158 24.4737V131.842C21.3158 133.585 22.7305 135 24.4737 135H112.895C114.638 135 116.053 133.585 116.053 131.842V52.3516C116.053 50.6779 115.386 49.0705 114.202 47.8863L89.4821 23.1663C88.2979 21.9821 86.6905 21.3158 85.0168 21.3158H24.4737Z" fill="url(#paint0_linear_287_5952)"/>
<path d="M48.1579 109.737H32.3684C31.4969 109.737 30.7895 109.029 30.7895 108.158V105C30.7895 104.128 31.4969 103.421 32.3684 103.421H48.1579C49.0295 103.421 49.7369 104.128 49.7369 105V108.158C49.7369 109.029 49.0295 109.737 48.1579 109.737Z" fill="#88B0CE"/>
<path d="M73.421 109.737H57.6316C56.76 109.737 56.0526 109.029 56.0526 108.158V105C56.0526 104.128 56.76 103.421 57.6316 103.421H73.421C74.2926 103.421 75 104.128 75 105V108.158C75 109.029 74.2926 109.737 73.421 109.737Z" fill="#88B0CE"/>
<path d="M98.6842 109.737H82.8947C82.0232 109.737 81.3158 109.029 81.3158 108.158V105C81.3158 104.128 82.0232 103.421 82.8947 103.421H98.6842C99.5558 103.421 100.263 104.128 100.263 105V108.158C100.263 109.029 99.5558 109.737 98.6842 109.737Z" fill="#88B0CE"/>
<path d="M48.1579 100.263H32.3684C31.4969 100.263 30.7895 99.5558 30.7895 98.6842V95.5263C30.7895 94.6547 31.4969 93.9474 32.3684 93.9474H48.1579C49.0295 93.9474 49.7369 94.6547 49.7369 95.5263V98.6842C49.7369 99.5558 49.0295 100.263 48.1579 100.263Z" fill="#88B0CE"/>
<path d="M73.421 100.263H57.6316C56.76 100.263 56.0526 99.5558 56.0526 98.6842V95.5263C56.0526 94.6547 56.76 93.9474 57.6316 93.9474H73.421C74.2926 93.9474 75 94.6547 75 95.5263V98.6842C75 99.5558 74.2926 100.263 73.421 100.263Z" fill="#88B0CE"/>
<path d="M98.6842 100.263H82.8947C82.0232 100.263 81.3158 99.5558 81.3158 98.6842V95.5263C81.3158 94.6547 82.0232 93.9474 82.8947 93.9474H98.6842C99.5558 93.9474 100.263 94.6547 100.263 95.5263V98.6842C100.263 99.5558 99.5558 100.263 98.6842 100.263Z" fill="#88B0CE"/>
<path d="M48.1579 90.7895H32.3684C31.4969 90.7895 30.7895 90.0821 30.7895 89.2105V86.0526C30.7895 85.181 31.4969 84.4737 32.3684 84.4737H48.1579C49.0295 84.4737 49.7369 85.181 49.7369 86.0526V89.2105C49.7369 90.0821 49.0295 90.7895 48.1579 90.7895Z" fill="#88B0CE"/>
<path d="M73.421 90.7895H57.6316C56.76 90.7895 56.0526 90.0821 56.0526 89.2105V86.0526C56.0526 85.181 56.76 84.4737 57.6316 84.4737H73.421C74.2926 84.4737 75 85.181 75 86.0526V89.2105C75 90.0821 74.2926 90.7895 73.421 90.7895Z" fill="#88B0CE"/>
<path d="M98.6842 90.7895H82.8947C82.0232 90.7895 81.3158 90.0821 81.3158 89.2105V86.0526C81.3158 85.181 82.0232 84.4737 82.8947 84.4737H98.6842C99.5558 84.4737 100.263 85.181 100.263 86.0526V89.2105C100.263 90.0821 99.5558 90.7895 98.6842 90.7895Z" fill="#88B0CE"/>
<path d="M48.1579 81.3158H32.3684C31.4969 81.3158 30.7895 80.6084 30.7895 79.7368V76.5789C30.7895 75.7074 31.4969 75 32.3684 75H48.1579C49.0295 75 49.7369 75.7074 49.7369 76.5789V79.7368C49.7369 80.6084 49.0295 81.3158 48.1579 81.3158Z" fill="#C7E7FF"/>
<path d="M73.421 81.3158H57.6316C56.76 81.3158 56.0526 80.6084 56.0526 79.7368V76.5789C56.0526 75.7074 56.76 75 57.6316 75H73.421C74.2926 75 75 75.7074 75 76.5789V79.7368C75 80.6084 74.2926 81.3158 73.421 81.3158Z" fill="#C7E7FF"/>
<path d="M98.6842 81.3158H82.8947C82.0232 81.3158 81.3158 80.6084 81.3158 79.7368V76.5789C81.3158 75.7074 82.0232 75 82.8947 75H98.6842C99.5558 75 100.263 75.7074 100.263 76.5789V79.7368C100.263 80.6084 99.5558 81.3158 98.6842 81.3158Z" fill="#C7E7FF"/>
<path d="M48.1579 119.211H32.3684C31.4969 119.211 30.7895 118.503 30.7895 117.632V114.474C30.7895 113.602 31.4969 112.895 32.3684 112.895H48.1579C49.0295 112.895 49.7369 113.602 49.7369 114.474V117.632C49.7369 118.503 49.0295 119.211 48.1579 119.211Z" fill="#88B0CE"/>
<path d="M73.421 119.211H57.6316C56.76 119.211 56.0526 118.503 56.0526 117.632V114.474C56.0526 113.602 56.76 112.895 57.6316 112.895H73.421C74.2926 112.895 75 113.602 75 114.474V117.632C75 118.503 74.2926 119.211 73.421 119.211Z" fill="#88B0CE"/>
<path d="M98.6842 119.211H82.8947C82.0232 119.211 81.3158 118.503 81.3158 117.632V114.474C81.3158 113.602 82.0232 112.895 82.8947 112.895H98.6842C99.5558 112.895 100.263 113.602 100.263 114.474V117.632C100.263 118.503 99.5558 119.211 98.6842 119.211Z" fill="#88B0CE"/>
<path opacity="0.05" d="M122.368 78.1579H87.6316C84.1421 78.1579 81.3158 80.9842 81.3158 84.4737V141.316C81.3158 144.805 84.1421 147.632 87.6316 147.632H122.368V78.1579Z" fill="black"/>
<path opacity="0.07" d="M122.368 81.3158H89.2105C86.5957 81.3158 84.4736 83.4379 84.4736 86.0526V142.895C84.4736 145.509 86.5957 147.632 89.2105 147.632H122.368V81.3158Z" fill="black"/>
<path d="M131.842 84.4737H90.7895C89.0463 84.4737 87.6316 85.8884 87.6316 87.6316V144.474C87.6316 146.217 89.0463 147.632 90.7895 147.632H131.842C133.585 147.632 135 146.217 135 144.474V87.6316C135 85.8884 133.585 84.4737 131.842 84.4737Z" fill="url(#paint1_linear_287_5952)"/>
<path d="M127.105 100.263H95.5263C94.6548 100.263 93.9474 99.5558 93.9474 98.6842V92.3684C93.9474 91.4968 94.6548 90.7895 95.5263 90.7895H127.105C127.977 90.7895 128.684 91.4968 128.684 92.3684V98.6842C128.684 99.5558 127.977 100.263 127.105 100.263Z" fill="url(#paint2_linear_287_5952)"/>
<path d="M114.474 116.053H108.158C107.286 116.053 106.579 115.345 106.579 114.474V108.158C106.579 107.286 107.286 106.579 108.158 106.579H114.474C115.345 106.579 116.053 107.286 116.053 108.158V114.474C116.053 115.345 115.345 116.053 114.474 116.053Z" fill="#CAD2D9"/>
<path d="M101.842 116.053H95.5263C94.6548 116.053 93.9474 115.345 93.9474 114.474V108.158C93.9474 107.286 94.6548 106.579 95.5263 106.579H101.842C102.714 106.579 103.421 107.286 103.421 108.158V114.474C103.421 115.345 102.714 116.053 101.842 116.053Z" fill="#CAD2D9"/>
<path d="M114.474 128.684H108.158C107.286 128.684 106.579 127.977 106.579 127.105V120.789C106.579 119.918 107.286 119.211 108.158 119.211H114.474C115.345 119.211 116.053 119.918 116.053 120.789V127.105C116.053 127.977 115.345 128.684 114.474 128.684Z" fill="#CAD2D9"/>
<path d="M101.842 128.684H95.5263C94.6548 128.684 93.9474 127.977 93.9474 127.105V120.789C93.9474 119.918 94.6548 119.211 95.5263 119.211H101.842C102.714 119.211 103.421 119.918 103.421 120.789V127.105C103.421 127.977 102.714 128.684 101.842 128.684Z" fill="#CAD2D9"/>
<path d="M114.474 141.316H108.158C107.286 141.316 106.579 140.608 106.579 139.737V133.421C106.579 132.549 107.286 131.842 108.158 131.842H114.474C115.345 131.842 116.053 132.549 116.053 133.421V139.737C116.053 140.608 115.345 141.316 114.474 141.316Z" fill="#CAD2D9"/>
<path d="M101.842 141.316H95.5263C94.6548 141.316 93.9474 140.608 93.9474 139.737V133.421C93.9474 132.549 94.6548 131.842 95.5263 131.842H101.842C102.714 131.842 103.421 132.549 103.421 133.421V139.737C103.421 140.608 102.714 141.316 101.842 141.316Z" fill="#CAD2D9"/>
<path d="M127.105 116.053H120.79C119.918 116.053 119.211 115.345 119.211 114.474V108.158C119.211 107.286 119.918 106.579 120.79 106.579H127.105C127.977 106.579 128.684 107.286 128.684 108.158V114.474C128.684 115.345 127.977 116.053 127.105 116.053Z" fill="#CAD2D9"/>
<path d="M127.105 141.316H120.79C119.918 141.316 119.211 140.608 119.211 139.737V120.789C119.211 119.918 119.918 119.211 120.79 119.211H127.105C127.977 119.211 128.684 119.918 128.684 120.789V139.737C128.684 140.608 127.977 141.316 127.105 141.316Z" fill="url(#paint3_linear_287_5952)"/>
<path d="M58.5789 42.5V65.5262C58.5789 66.544 57.7546 67.3684 56.7368 67.3684H32.7895C31.7717 67.3684 30.9474 66.544 30.9474 65.5262V34.2105C30.9474 33.1927 31.7717 32.3684 32.7895 32.3684H48.4474L58.5789 42.5Z" fill="#88B0CE"/>
<path opacity="0.05" d="M58.5789 65.5263V50.7895C54.903 50.7895 52.1316 52.3737 52.1316 54.4737V58.1947C51.8258 58.1699 51.5182 58.1579 51.2105 58.1579C47.5346 58.1579 44.7632 59.7421 44.7632 61.8421V67.3684H56.7368C57.7546 67.3684 58.5789 66.5441 58.5789 65.5263Z" fill="black"/>
<path opacity="0.07" d="M58.579 65.5262V51.2499C55.2218 51.2499 52.5922 52.6665 52.5922 54.4736V58.704C52.1362 58.6469 51.673 58.6183 51.2106 58.6183C47.8534 58.6183 45.2238 60.0349 45.2238 61.842V67.3683H56.7369C57.7547 67.3683 58.579 66.544 58.579 65.5262Z" fill="black"/>
<path d="M48.4474 32.3684V40.6579C48.4474 41.6756 49.2717 42.5 50.2895 42.5H58.5789L48.4474 32.3684Z" fill="#C6F2FF"/>
<path d="M45.9136 52.9557C45.9136 48.2215 38.9237 49.1462 38.9237 46.349C38.9237 44.8882 40.565 44.8118 41.079 44.8118C42.3132 44.8118 43.5032 45.1424 44.4113 45.5689C44.6978 45.7033 45.0266 45.5044 45.0266 45.1885V43.8106C45.0266 43.3482 44.8525 43.0747 44.5753 42.9669C43.9527 42.7247 43.0592 42.5487 41.7366 42.5045V40.9885C41.7366 40.807 41.5892 40.6597 41.4078 40.6597H40.7502C40.5687 40.6597 40.4213 40.807 40.4213 40.9885V42.5294C38.3711 42.7302 36.2453 43.887 36.2453 46.5793C36.2453 51.4866 43.2352 50.514 43.2352 53.0985C43.2352 53.9108 42.7166 54.6108 41.0799 54.6108C39.4349 54.6108 37.9244 54.037 37.0881 53.6087C36.8053 53.4632 36.4737 53.6714 36.4737 53.9873V55.5558C36.4737 55.857 36.6552 56.1241 36.9315 56.242C37.9225 56.6629 39.2516 56.9816 40.4204 57.0746V58.75C40.4204 58.9315 40.5678 59.0788 40.7492 59.0788H41.4069C41.5883 59.0788 41.7357 58.9315 41.7357 58.75V57.0783C44.8046 56.8223 45.9136 54.7683 45.9136 52.9557Z" fill="white"/>
<path d="M64.1052 63.6841H53.0526C53.0526 64.0074 53.0526 65.2029 53.0526 65.5262C53.0526 67.0524 55.5266 68.2893 58.5789 68.2893C61.6313 68.2893 64.1052 67.0524 64.1052 65.5262C64.1052 65.2029 64.1052 64.0074 64.1052 63.6841Z" fill="url(#paint4_linear_287_5952)"/>
<path d="M64.1052 61.842H53.0526C53.0526 62.1653 53.0526 63.3609 53.0526 63.6841C53.0526 65.2103 55.5266 66.4473 58.5789 66.4473C61.6313 66.4473 64.1052 65.2103 64.1052 63.6841C64.1052 63.3609 64.1052 62.1653 64.1052 61.842Z" fill="url(#paint5_linear_287_5952)"/>
<path d="M64.1052 59.9999H53.0526C53.0526 60.3232 53.0526 61.5187 53.0526 61.842C53.0526 63.3682 55.5266 64.6052 58.5789 64.6052C61.6313 64.6052 64.1052 63.3682 64.1052 61.842C64.1052 61.5187 64.1052 60.3232 64.1052 59.9999Z" fill="url(#paint6_linear_287_5952)"/>
<path d="M64.1052 58.1579H53.0526C53.0526 58.4812 53.0526 59.6767 53.0526 60C53.0526 61.5262 55.5266 62.7631 58.5789 62.7631C61.6313 62.7631 64.1052 61.5262 64.1052 60C64.1052 59.6767 64.1052 58.4812 64.1052 58.1579Z" fill="url(#paint7_linear_287_5952)"/>
<path d="M64.1052 56.3157H53.0526C53.0526 56.639 53.0526 57.8345 53.0526 58.1578C53.0526 59.684 55.5266 60.921 58.5789 60.921C61.6313 60.921 64.1052 59.684 64.1052 58.1578C64.1052 57.8345 64.1052 56.639 64.1052 56.3157Z" fill="url(#paint8_linear_287_5952)"/>
<path d="M64.1052 54.4737H53.0526C53.0526 54.797 53.0526 55.9925 53.0526 56.3158C53.0526 57.842 55.5266 59.0789 58.5789 59.0789C61.6313 59.0789 64.1052 57.842 64.1052 56.3158C64.1052 55.9925 64.1052 54.797 64.1052 54.4737Z" fill="url(#paint9_linear_287_5952)"/>
<path d="M58.5789 57.2367C61.631 57.2367 64.1052 55.9996 64.1052 54.4736C64.1052 52.9475 61.631 51.7104 58.5789 51.7104C55.5268 51.7104 53.0526 52.9475 53.0526 54.4736C53.0526 55.9996 55.5268 57.2367 58.5789 57.2367Z" fill="url(#paint10_linear_287_5952)"/>
<path d="M58.5789 56.3157C60.868 56.3157 62.7237 55.491 62.7237 54.4736C62.7237 53.4563 60.868 52.6315 58.5789 52.6315C56.2899 52.6315 54.4342 53.4563 54.4342 54.4736C54.4342 55.491 56.2899 56.3157 58.5789 56.3157Z" fill="#FFC800"/>
<path opacity="0.05" d="M53.0526 58.3015C53.0526 61.4184 53.0526 65.3301 53.0526 65.5263C53.0526 66.8655 54.9583 67.9809 57.4866 68.2351C57.5952 67.9578 57.6579 67.6696 57.6579 67.3684V61.8421C57.6579 60.1114 55.7725 58.7335 53.0526 58.3015Z" fill="black"/>
<path opacity="0.07" d="M53.0526 58.7694C53.0526 61.796 53.0526 65.3393 53.0526 65.5263C53.0526 66.7789 54.7216 67.8363 57.0085 68.1743C57.1273 67.9173 57.1973 67.6484 57.1973 67.3684V61.8421C57.1973 60.3822 55.4814 59.1784 53.0526 58.7694Z" fill="black"/>
<path d="M56.7368 65.5263H45.6842C45.6842 65.8496 45.6842 67.0451 45.6842 67.3684C45.6842 68.8946 48.1581 70.1315 51.2105 70.1315C54.2629 70.1315 56.7368 68.8946 56.7368 67.3684C56.7368 67.0451 56.7368 65.8496 56.7368 65.5263Z" fill="url(#paint11_linear_287_5952)"/>
<path d="M56.7368 63.6841H45.6842C45.6842 64.0074 45.6842 65.2029 45.6842 65.5262C45.6842 67.0524 48.1581 68.2893 51.2105 68.2893C54.2629 68.2893 56.7368 67.0524 56.7368 65.5262C56.7368 65.2029 56.7368 64.0074 56.7368 63.6841Z" fill="url(#paint12_linear_287_5952)"/>
<path d="M56.7368 61.842H45.6842C45.6842 62.1653 45.6842 63.3609 45.6842 63.6841C45.6842 65.2103 48.1581 66.4473 51.2105 66.4473C54.2629 66.4473 56.7368 65.2103 56.7368 63.6841C56.7368 63.3609 56.7368 62.1653 56.7368 61.842Z" fill="url(#paint13_linear_287_5952)"/>
<path d="M51.2105 64.6053C54.2626 64.6053 56.7368 63.3682 56.7368 61.8421C56.7368 60.3161 54.2626 59.079 51.2105 59.079C48.1584 59.079 45.6842 60.3161 45.6842 61.8421C45.6842 63.3682 48.1584 64.6053 51.2105 64.6053Z" fill="url(#paint14_linear_287_5952)"/>
<path d="M51.2105 63.6841C53.4996 63.6841 55.3553 62.8594 55.3553 61.842C55.3553 60.8246 53.4996 59.9999 51.2105 59.9999C48.9215 59.9999 47.0658 60.8246 47.0658 61.842C47.0658 62.8594 48.9215 63.6841 51.2105 63.6841Z" fill="#FFC800"/>
<rect x="0.5" y="0.5" width="149" height="161.632" rx="9.5" stroke="rgba(0,0,0,0)" stroke-linejoin="round"/>
<defs>
<linearGradient id="paint0_linear_287_5952" x1="68.6842" y1="60.2621" x2="68.6842" y2="195.009" gradientUnits="userSpaceOnUse">
<stop stop-color="#F9F9F9"/>
<stop offset="0.26" stop-color="#F0F1F2"/>
<stop offset="0.678" stop-color="#D9DCDF"/>
<stop offset="1" stop-color="#C2C8CC"/>
</linearGradient>
<linearGradient id="paint1_linear_287_5952" x1="89.4979" y1="85.86" x2="131.615" y2="144.145" gradientUnits="userSpaceOnUse">
<stop stop-color="#899198"/>
<stop offset="1" stop-color="#787E85"/>
</linearGradient>
<linearGradient id="paint2_linear_287_5952" x1="97.8884" y1="89.3053" x2="127.639" y2="103.086" gradientUnits="userSpaceOnUse">
<stop stop-color="#4FE5FF" stop-opacity="0.52"/>
<stop offset="1" stop-color="#2EB7ED" stop-opacity="0.52"/>
</linearGradient>
<linearGradient id="paint3_linear_287_5952" x1="123.947" y1="120.079" x2="123.947" y2="140.751" gradientUnits="userSpaceOnUse">
<stop stop-color="#11498A"/>
<stop offset="1" stop-color="#0F417A"/>
</linearGradient>
<linearGradient id="paint4_linear_287_5952" x1="58.3137" y1="62.8625" x2="59.184" y2="68.7535" gradientUnits="userSpaceOnUse">
<stop stop-color="#FEDE00"/>
<stop offset="1" stop-color="#FFD000"/>
</linearGradient>
<linearGradient id="paint5_linear_287_5952" x1="58.3137" y1="61.0205" x2="59.184" y2="66.9115" gradientUnits="userSpaceOnUse">
<stop stop-color="#E5A505"/>
<stop offset="0.116" stop-color="#EAA804"/>
<stop offset="0.595" stop-color="#F8B301"/>
<stop offset="1" stop-color="#FDB700"/>
</linearGradient>
<linearGradient id="paint6_linear_287_5952" x1="58.3137" y1="59.1783" x2="59.184" y2="65.0694" gradientUnits="userSpaceOnUse">
<stop stop-color="#FEDE00"/>
<stop offset="1" stop-color="#FFD000"/>
</linearGradient>
<linearGradient id="paint7_linear_287_5952" x1="58.3137" y1="57.3363" x2="59.184" y2="63.2273" gradientUnits="userSpaceOnUse">
<stop stop-color="#E5A505"/>
<stop offset="0.116" stop-color="#EAA804"/>
<stop offset="0.595" stop-color="#F8B301"/>
<stop offset="1" stop-color="#FDB700"/>
</linearGradient>
<linearGradient id="paint8_linear_287_5952" x1="58.3137" y1="55.4942" x2="59.184" y2="61.3852" gradientUnits="userSpaceOnUse">
<stop stop-color="#FEDE00"/>
<stop offset="1" stop-color="#FFD000"/>
</linearGradient>
<linearGradient id="paint9_linear_287_5952" x1="58.3137" y1="53.6521" x2="59.184" y2="59.5432" gradientUnits="userSpaceOnUse">
<stop stop-color="#E5A505"/>
<stop offset="0.116" stop-color="#EAA804"/>
<stop offset="0.595" stop-color="#F8B301"/>
<stop offset="1" stop-color="#FDB700"/>
</linearGradient>
<linearGradient id="paint10_linear_287_5952" x1="55.5662" y1="51.4608" x2="61.6571" y2="57.5517" gradientUnits="userSpaceOnUse">
<stop stop-color="#FEDE00"/>
<stop offset="1" stop-color="#FFD000"/>
</linearGradient>
<linearGradient id="paint11_linear_287_5952" x1="50.9452" y1="64.7047" x2="51.8156" y2="70.5957" gradientUnits="userSpaceOnUse">
<stop stop-color="#E5A505"/>
<stop offset="0.116" stop-color="#EAA804"/>
<stop offset="0.595" stop-color="#F8B301"/>
<stop offset="1" stop-color="#FDB700"/>
</linearGradient>
<linearGradient id="paint12_linear_287_5952" x1="50.9452" y1="62.8625" x2="51.8156" y2="68.7535" gradientUnits="userSpaceOnUse">
<stop stop-color="#FEDE00"/>
<stop offset="1" stop-color="#FFD000"/>
</linearGradient>
<linearGradient id="paint13_linear_287_5952" x1="50.9452" y1="61.0205" x2="51.8156" y2="66.9115" gradientUnits="userSpaceOnUse">
<stop stop-color="#E5A505"/>
<stop offset="0.116" stop-color="#EAA804"/>
<stop offset="0.595" stop-color="#F8B301"/>
<stop offset="1" stop-color="#FDB700"/>
</linearGradient>
<linearGradient id="paint14_linear_287_5952" x1="48.1978" y1="58.8294" x2="54.2887" y2="64.9203" gradientUnits="userSpaceOnUse">
<stop stop-color="#FEDE00"/>
<stop offset="1" stop-color="#FFD000"/>
</linearGradient>
</defs>
</svg>
