<svg width="150" height="163" viewBox="0 0 150 163" fill="none" xmlns="http://www.w3.org/2000/svg">
<rect width="150" height="162.632" rx="10" fill="white" fill-opacity="0.8"/>
<path d="M116.053 141.316H21.3158C17.8263 141.316 15 138.489 15 135V21.3158C15 17.8263 17.8263 15 21.3158 15H116.053C119.542 15 122.368 17.8263 122.368 21.3158V135C122.368 138.489 119.542 141.316 116.053 141.316Z" fill="#7D8E94" fill-opacity="0.5"/>
<path opacity="0.05" d="M85.0169 21.3158C86.6905 21.3158 88.2979 21.9821 89.4821 23.1663L114.202 47.8863C115.386 49.0705 116.053 50.6779 116.053 52.3516V131.842C116.053 133.585 114.638 135 112.895 135H24.4737C22.7305 135 21.3158 133.585 21.3158 131.842V24.4737C21.3158 22.7305 22.7305 21.3158 24.4737 21.3158H85.0169ZM85.0169 18.1579H24.4737C20.9905 18.1579 18.1579 20.9905 18.1579 24.4737V131.842C18.1579 135.325 20.9905 138.158 24.4737 138.158H112.895C116.378 138.158 119.211 135.325 119.211 131.842V52.3516C119.211 49.8221 118.225 47.4411 116.435 45.6537L91.7147 20.9337C89.9242 19.1432 87.5463 18.1579 85.0169 18.1579Z" fill="black"/>
<path opacity="0.07" d="M85.0169 21.3158C86.6905 21.3158 88.2979 21.9821 89.4821 23.1663L114.202 47.8863C115.386 49.0705 116.053 50.6779 116.053 52.3516V131.842C116.053 133.585 114.638 135 112.895 135H24.4737C22.7305 135 21.3158 133.585 21.3158 131.842V24.4737C21.3158 22.7305 22.7305 21.3158 24.4737 21.3158H85.0169ZM85.0169 19.7368H24.4737C21.8621 19.7368 19.7368 21.8621 19.7368 24.4737V131.842C19.7368 134.454 21.8621 136.579 24.4737 136.579H112.895C115.506 136.579 117.632 134.454 117.632 131.842V52.3516C117.632 50.2421 116.811 48.2589 115.32 46.7684L90.6 22.0484C89.1063 20.5579 87.1232 19.7368 85.0169 19.7368Z" fill="black"/>
<path d="M24.4737 21.3158C22.7305 21.3158 21.3158 22.7305 21.3158 24.4737V131.842C21.3158 133.585 22.7305 135 24.4737 135H112.895C114.638 135 116.053 133.585 116.053 131.842V52.3516C116.053 50.6779 115.386 49.0705 114.202 47.8863L89.4821 23.1663C88.2979 21.9821 86.6905 21.3158 85.0168 21.3158H24.4737Z" fill="url(#paint0_linear_287_5958)"/>
<path d="M48.1579 109.737H32.3684C31.4968 109.737 30.7895 109.029 30.7895 108.158V105C30.7895 104.128 31.4968 103.421 32.3684 103.421H48.1579C49.0295 103.421 49.7368 104.128 49.7368 105V108.158C49.7368 109.029 49.0295 109.737 48.1579 109.737Z" fill="#7D8E94" fill-opacity="0.5"/>
<path d="M73.4211 109.737H57.6316C56.76 109.737 56.0526 109.029 56.0526 108.158V105C56.0526 104.128 56.76 103.421 57.6316 103.421H73.4211C74.2926 103.421 75 104.128 75 105V108.158C75 109.029 74.2926 109.737 73.4211 109.737Z" fill="#7D8E94" fill-opacity="0.5"/>
<path d="M98.6842 109.737H82.8947C82.0232 109.737 81.3158 109.029 81.3158 108.158V105C81.3158 104.128 82.0232 103.421 82.8947 103.421H98.6842C99.5558 103.421 100.263 104.128 100.263 105V108.158C100.263 109.029 99.5558 109.737 98.6842 109.737Z" fill="#7D8E94" fill-opacity="0.5"/>
<path d="M48.1579 100.263H32.3684C31.4968 100.263 30.7895 99.5558 30.7895 98.6842V95.5263C30.7895 94.6547 31.4968 93.9474 32.3684 93.9474H48.1579C49.0295 93.9474 49.7368 94.6547 49.7368 95.5263V98.6842C49.7368 99.5558 49.0295 100.263 48.1579 100.263Z" fill="#7D8E94" fill-opacity="0.5"/>
<path d="M73.4211 100.263H57.6316C56.76 100.263 56.0526 99.5558 56.0526 98.6842V95.5263C56.0526 94.6547 56.76 93.9474 57.6316 93.9474H73.4211C74.2926 93.9474 75 94.6547 75 95.5263V98.6842C75 99.5558 74.2926 100.263 73.4211 100.263Z" fill="#7D8E94" fill-opacity="0.5"/>
<path d="M98.6842 100.263H82.8947C82.0232 100.263 81.3158 99.5558 81.3158 98.6842V95.5263C81.3158 94.6547 82.0232 93.9474 82.8947 93.9474H98.6842C99.5558 93.9474 100.263 94.6547 100.263 95.5263V98.6842C100.263 99.5558 99.5558 100.263 98.6842 100.263Z" fill="#7D8E94" fill-opacity="0.5"/>
<path d="M48.1579 90.7895H32.3684C31.4968 90.7895 30.7895 90.0821 30.7895 89.2105V86.0526C30.7895 85.1811 31.4968 84.4737 32.3684 84.4737H48.1579C49.0295 84.4737 49.7368 85.1811 49.7368 86.0526V89.2105C49.7368 90.0821 49.0295 90.7895 48.1579 90.7895Z" fill="#7D8E94" fill-opacity="0.5"/>
<path d="M73.4211 90.7895H57.6316C56.76 90.7895 56.0526 90.0821 56.0526 89.2105V86.0526C56.0526 85.1811 56.76 84.4737 57.6316 84.4737H73.4211C74.2926 84.4737 75 85.1811 75 86.0526V89.2105C75 90.0821 74.2926 90.7895 73.4211 90.7895Z" fill="#7D8E94" fill-opacity="0.5"/>
<path d="M98.6842 90.7895H82.8947C82.0232 90.7895 81.3158 90.0821 81.3158 89.2105V86.0526C81.3158 85.1811 82.0232 84.4737 82.8947 84.4737H98.6842C99.5558 84.4737 100.263 85.1811 100.263 86.0526V89.2105C100.263 90.0821 99.5558 90.7895 98.6842 90.7895Z" fill="#7D8E94" fill-opacity="0.5"/>
<path d="M48.1579 81.3158H32.3684C31.4968 81.3158 30.7895 80.6084 30.7895 79.7368V76.5789C30.7895 75.7074 31.4968 75 32.3684 75H48.1579C49.0295 75 49.7368 75.7074 49.7368 76.5789V79.7368C49.7368 80.6084 49.0295 81.3158 48.1579 81.3158Z" fill="#C7E7FF"/>
<path d="M73.4211 81.3158H57.6316C56.76 81.3158 56.0526 80.6084 56.0526 79.7368V76.5789C56.0526 75.7074 56.76 75 57.6316 75H73.4211C74.2926 75 75 75.7074 75 76.5789V79.7368C75 80.6084 74.2926 81.3158 73.4211 81.3158Z" fill="#C7E7FF"/>
<path d="M98.6842 81.3158H82.8947C82.0232 81.3158 81.3158 80.6084 81.3158 79.7368V76.5789C81.3158 75.7074 82.0232 75 82.8947 75H98.6842C99.5558 75 100.263 75.7074 100.263 76.5789V79.7368C100.263 80.6084 99.5558 81.3158 98.6842 81.3158Z" fill="#C7E7FF"/>
<path d="M48.1579 119.211H32.3684C31.4968 119.211 30.7895 118.503 30.7895 117.632V114.474C30.7895 113.602 31.4968 112.895 32.3684 112.895H48.1579C49.0295 112.895 49.7368 113.602 49.7368 114.474V117.632C49.7368 118.503 49.0295 119.211 48.1579 119.211Z" fill="#7D8E94" fill-opacity="0.5"/>
<path d="M73.4211 119.211H57.6316C56.76 119.211 56.0526 118.503 56.0526 117.632V114.474C56.0526 113.602 56.76 112.895 57.6316 112.895H73.4211C74.2926 112.895 75 113.602 75 114.474V117.632C75 118.503 74.2926 119.211 73.4211 119.211Z" fill="#7D8E94" fill-opacity="0.5"/>
<path d="M98.6842 119.211H82.8947C82.0232 119.211 81.3158 118.503 81.3158 117.632V114.474C81.3158 113.602 82.0232 112.895 82.8947 112.895H98.6842C99.5558 112.895 100.263 113.602 100.263 114.474V117.632C100.263 118.503 99.5558 119.211 98.6842 119.211Z" fill="#7D8E94" fill-opacity="0.5"/>
<path opacity="0.05" d="M122.368 78.1579H87.6316C84.1421 78.1579 81.3158 80.9842 81.3158 84.4737V141.316C81.3158 144.805 84.1421 147.632 87.6316 147.632H122.368V78.1579Z" fill="black"/>
<path opacity="0.07" d="M122.368 81.3158H89.2105C86.5958 81.3158 84.4737 83.4379 84.4737 86.0526V142.895C84.4737 145.509 86.5958 147.632 89.2105 147.632H122.368V81.3158Z" fill="black"/>
<path d="M131.842 84.4737H90.7895C89.0463 84.4737 87.6316 85.8884 87.6316 87.6316V144.474C87.6316 146.217 89.0463 147.632 90.7895 147.632H131.842C133.585 147.632 135 146.217 135 144.474V87.6316C135 85.8884 133.585 84.4737 131.842 84.4737Z" fill="url(#paint1_linear_287_5958)"/>
<path d="M127.105 100.263H95.5263C94.6547 100.263 93.9474 99.5558 93.9474 98.6842V92.3684C93.9474 91.4968 94.6547 90.7895 95.5263 90.7895H127.105C127.977 90.7895 128.684 91.4968 128.684 92.3684V98.6842C128.684 99.5558 127.977 100.263 127.105 100.263Z" fill="url(#paint2_linear_287_5958)"/>
<path d="M114.474 116.053H108.158C107.286 116.053 106.579 115.345 106.579 114.474V108.158C106.579 107.286 107.286 106.579 108.158 106.579H114.474C115.345 106.579 116.053 107.286 116.053 108.158V114.474C116.053 115.345 115.345 116.053 114.474 116.053Z" fill="#CAD2D9"/>
<path d="M101.842 116.053H95.5263C94.6547 116.053 93.9474 115.345 93.9474 114.474V108.158C93.9474 107.286 94.6547 106.579 95.5263 106.579H101.842C102.714 106.579 103.421 107.286 103.421 108.158V114.474C103.421 115.345 102.714 116.053 101.842 116.053Z" fill="#CAD2D9"/>
<path d="M114.474 128.684H108.158C107.286 128.684 106.579 127.977 106.579 127.105V120.789C106.579 119.918 107.286 119.211 108.158 119.211H114.474C115.345 119.211 116.053 119.918 116.053 120.789V127.105C116.053 127.977 115.345 128.684 114.474 128.684Z" fill="#CAD2D9"/>
<path d="M101.842 128.684H95.5263C94.6547 128.684 93.9474 127.977 93.9474 127.105V120.789C93.9474 119.918 94.6547 119.211 95.5263 119.211H101.842C102.714 119.211 103.421 119.918 103.421 120.789V127.105C103.421 127.977 102.714 128.684 101.842 128.684Z" fill="#CAD2D9"/>
<path d="M114.474 141.316H108.158C107.286 141.316 106.579 140.608 106.579 139.737V133.421C106.579 132.549 107.286 131.842 108.158 131.842H114.474C115.345 131.842 116.053 132.549 116.053 133.421V139.737C116.053 140.608 115.345 141.316 114.474 141.316Z" fill="#CAD2D9"/>
<path d="M101.842 141.316H95.5263C94.6547 141.316 93.9474 140.608 93.9474 139.737V133.421C93.9474 132.549 94.6547 131.842 95.5263 131.842H101.842C102.714 131.842 103.421 132.549 103.421 133.421V139.737C103.421 140.608 102.714 141.316 101.842 141.316Z" fill="#CAD2D9"/>
<path d="M127.105 116.053H120.789C119.918 116.053 119.211 115.345 119.211 114.474V108.158C119.211 107.286 119.918 106.579 120.789 106.579H127.105C127.977 106.579 128.684 107.286 128.684 108.158V114.474C128.684 115.345 127.977 116.053 127.105 116.053Z" fill="#CAD2D9"/>
<path d="M127.105 141.316H120.789C119.918 141.316 119.211 140.608 119.211 139.737V120.789C119.211 119.918 119.918 119.211 120.789 119.211H127.105C127.977 119.211 128.684 119.918 128.684 120.789V139.737C128.684 140.608 127.977 141.316 127.105 141.316Z" fill="url(#paint3_linear_287_5958)"/>
<path opacity="0.05" d="M52.3333 44.5H46.5V38.6667C46.5 37.7458 45.7542 37 44.8333 37H43.1667C42.2458 37 41.5 37.7458 41.5 38.6667V44.5H35.6667C34.7458 44.5 34 45.2458 34 46.1667V47.8333C34 48.7542 34.7458 49.5 35.6667 49.5H41.5V55.3333C41.5 56.2542 42.2458 57 43.1667 57H44.8333C45.7542 57 46.5 56.2542 46.5 55.3333V49.5H52.3333C53.2542 49.5 54 48.7542 54 47.8333V46.1667C54 45.2458 53.2542 44.5 52.3333 44.5Z" fill="black"/>
<path opacity="0.07" d="M52.3333 44.9167H46.0833V38.6667C46.0833 37.9767 45.5233 37.4167 44.8333 37.4167H43.1667C42.4767 37.4167 41.9167 37.9767 41.9167 38.6667V44.9167H35.6667C34.9767 44.9167 34.4167 45.4767 34.4167 46.1667V47.8334C34.4167 48.5234 34.9767 49.0834 35.6667 49.0834H41.9167V55.3334C41.9167 56.0234 42.4767 56.5834 43.1667 56.5834H44.8333C45.5233 56.5834 46.0833 56.0234 46.0833 55.3334V49.0834H52.3333C53.0233 49.0834 53.5833 48.5234 53.5833 47.8334V46.1667C53.5833 45.4767 53.0233 44.9167 52.3333 44.9167Z" fill="black"/>
<path d="M61.3333 50.6667C61.3333 59.8708 53.8708 67.3333 44.6667 67.3333C35.4625 67.3333 28 59.8708 28 50.6667C28 41.4625 35.4625 34 44.6667 34C53.8708 34 61.3333 41.4625 61.3333 50.6667Z" fill="url(#paint4_linear_287_5958)"/>
<path d="M43.8333 41.5H45.5C45.96 41.5 46.3333 41.8733 46.3333 42.3333V59C46.3333 59.46 45.96 59.8333 45.5 59.8333H43.8333C43.3733 59.8333 43 59.46 43 59V42.3333C43 41.8733 43.3733 41.5 43.8333 41.5Z" fill="white"/>
<path d="M53.8333 49.8333V51.5C53.8333 51.96 53.46 52.3333 53 52.3333H36.3333C35.8733 52.3333 35.5 51.96 35.5 51.5V49.8333C35.5 49.3733 35.8733 49 36.3333 49H53C53.46 49 53.8333 49.3733 53.8333 49.8333Z" fill="white"/>
<defs>
<linearGradient id="paint0_linear_287_5958" x1="68.6842" y1="60.2621" x2="68.6842" y2="195.009" gradientUnits="userSpaceOnUse">
<stop stop-color="#F9F9F9"/>
<stop offset="0.26" stop-color="#F0F1F2"/>
<stop offset="0.678" stop-color="#D9DCDF"/>
<stop offset="1" stop-color="#C2C8CC"/>
</linearGradient>
<linearGradient id="paint1_linear_287_5958" x1="89.4979" y1="85.86" x2="131.615" y2="144.145" gradientUnits="userSpaceOnUse">
<stop stop-color="#899198"/>
<stop offset="1" stop-color="#787E85"/>
</linearGradient>
<linearGradient id="paint2_linear_287_5958" x1="97.8884" y1="89.3052" x2="127.639" y2="103.086" gradientUnits="userSpaceOnUse">
<stop stop-color="#4FE5FF" stop-opacity="0.52"/>
<stop offset="1" stop-color="#2EB7ED" stop-opacity="0.52"/>
</linearGradient>
<linearGradient id="paint3_linear_287_5958" x1="123.947" y1="120.079" x2="123.947" y2="140.751" gradientUnits="userSpaceOnUse">
<stop stop-color="#11498A"/>
<stop offset="1" stop-color="#0F417A"/>
</linearGradient>
<linearGradient id="paint4_linear_287_5958" x1="32.8817" y1="38.8817" x2="56.4517" y2="62.4517" gradientUnits="userSpaceOnUse">
<stop stop-color="#21AD64"/>
<stop offset="1" stop-color="#088242"/>
</linearGradient>
</defs>
</svg>
