<?xml version="1.0" encoding="UTF-8"?>
<svg xmlns="http://www.w3.org/2000/svg" xmlns:xlink="http://www.w3.org/1999/xlink" viewBox="0 0 96 96" width="96px" height="96px">
<defs>
<linearGradient id="linear0" gradientUnits="userSpaceOnUse" x1="51.243629" y1="54.819191" x2="50.788658" y2="94.231331" gradientTransform="matrix(1.557896,0,0,1.557896,0,0)">
<stop offset="0" style="stop-color:rgb(65.882355%,88.627452%,96.862745%);stop-opacity:1;"/>
<stop offset="1" style="stop-color:rgb(27.843139%,75.686276%,100%);stop-opacity:1;"/>
</linearGradient>
<linearGradient id="linear1" gradientUnits="userSpaceOnUse" x1="95.738586" y1="55.575611" x2="117.909317" y2="55.575611" gradientTransform="matrix(0.55814,0,0,0.55814,0,0)">
<stop offset="0" style="stop-color:rgb(18.82353%,47.450981%,83.92157%);stop-opacity:1;"/>
<stop offset="1" style="stop-color:rgb(16.078432%,48.627451%,82.352942%);stop-opacity:1;"/>
</linearGradient>
<linearGradient id="linear2" gradientUnits="userSpaceOnUse" x1="86" y1="62.707199" x2="131.243027" y2="62.707199" gradientTransform="matrix(0.55814,0,0,0.55814,0,0)">
<stop offset="0" style="stop-color:rgb(25.882354%,63.921571%,94.901961%);stop-opacity:1;"/>
<stop offset="1" style="stop-color:rgb(25.882354%,64.313728%,92.156863%);stop-opacity:1;"/>
</linearGradient>
<linearGradient id="linear3" gradientUnits="userSpaceOnUse" x1="400.980042" y1="-8328.310547" x2="419.272644" y2="-8328.310547" gradientTransform="matrix(1.557896,0,0,1.557896,0,0)">
<stop offset="0" style="stop-color:rgb(25.882354%,63.921571%,94.901961%);stop-opacity:1;"/>
<stop offset="1" style="stop-color:rgb(25.882354%,64.313728%,92.156863%);stop-opacity:1;"/>
</linearGradient>
<linearGradient id="linear4" gradientUnits="userSpaceOnUse" x1="269.546356" y1="-8350.183594" x2="287.838959" y2="-8350.183594" gradientTransform="matrix(1.557896,0,0,1.557896,0,0)">
<stop offset="0" style="stop-color:rgb(25.882354%,63.921571%,94.901961%);stop-opacity:1;"/>
<stop offset="1" style="stop-color:rgb(25.882354%,64.313728%,92.156863%);stop-opacity:1;"/>
</linearGradient>
<linearGradient id="linear5" gradientUnits="userSpaceOnUse" x1="485.789551" y1="-26328.833984" x2="536.601501" y2="-26328.833984" gradientTransform="matrix(0.55814,0,0,0.55814,0,0)">
<stop offset="0" style="stop-color:rgb(18.82353%,47.450981%,83.92157%);stop-opacity:1;"/>
<stop offset="1" style="stop-color:rgb(16.078432%,48.627451%,82.352942%);stop-opacity:1;"/>
</linearGradient>
<linearGradient id="linear6" gradientUnits="userSpaceOnUse" x1="2225.89502" y1="1033.753784" x2="3256.332764" y2="1983.708496" gradientTransform="matrix(1.557896,0,0,1.557896,0,0)">
<stop offset="0" style="stop-color:rgb(65.882355%,88.627452%,96.862745%);stop-opacity:1;"/>
<stop offset="1" style="stop-color:rgb(27.843139%,75.686276%,100%);stop-opacity:1;"/>
</linearGradient>
<linearGradient id="linear7" gradientUnits="userSpaceOnUse" x1="110.828918" y1="110.828918" x2="161.504425" y2="161.504425" gradientTransform="matrix(1.999998,0,0,1.999998,0,0)">
<stop offset="0" style="stop-color:rgb(12.941177%,67.843139%,39.215687%);stop-opacity:1;"/>
<stop offset="1" style="stop-color:rgb(3.137255%,50.980395%,25.882354%);stop-opacity:1;"/>
</linearGradient>
</defs>
<g id="surface23915355">
<path style=" stroke:none;fill-rule:nonzero;fill:rgb(94.901961%,94.901961%,94.901961%);fill-opacity:1;" d="M 8.160156 96 C 3.652344 96 0 92.347656 0 87.839844 L 0 8.160156 C 0 3.652344 3.652344 0 8.160156 0 L 87.839844 0 C 92.347656 0 96 3.652344 96 8.160156 L 96 87.839844 C 96 92.347656 92.347656 96 87.839844 96 Z M 8.160156 96 "/>
<path style=" stroke:none;fill-rule:nonzero;fill:rgb(39.215687%,44.313726%,48.627451%);fill-opacity:1;" d="M 26.191406 37.09375 L 30.863281 37.09375 L 30.863281 55.789062 L 26.191406 55.789062 Z M 26.191406 37.09375 "/>
<path style=" stroke:none;fill-rule:nonzero;fill:rgb(39.215687%,44.313726%,48.627451%);fill-opacity:1;" d="M 28.527344 30.085938 C 28.320312 30.085938 28.121094 30.003906 27.976562 29.855469 C 27.828125 29.710938 27.746094 29.511719 27.746094 29.304688 L 27.746094 19.179688 C 27.746094 18.75 28.097656 18.398438 28.527344 18.398438 C 28.957031 18.398438 29.304688 18.75 29.304688 19.179688 L 29.304688 29.304688 C 29.304688 29.511719 29.222656 29.710938 29.078125 29.855469 C 28.929688 30.003906 28.734375 30.085938 28.527344 30.085938 Z M 28.527344 30.085938 "/>
<path style=" stroke:none;fill-rule:nonzero;fill:rgb(53.333336%,56.470591%,59.215689%);fill-opacity:1;" d="M 31.441406 33.980469 L 25.613281 33.980469 C 24.597656 33.980469 23.730469 33.246094 23.5625 32.242188 L 23.015625 28.957031 C 22.964844 28.65625 23.050781 28.347656 23.246094 28.113281 C 23.445312 27.882812 23.734375 27.746094 24.039062 27.746094 L 33.011719 27.746094 C 33.316406 27.746094 33.609375 27.882812 33.804688 28.113281 C 34.003906 28.347656 34.085938 28.65625 34.035156 28.957031 L 33.488281 32.242188 C 33.324219 33.246094 32.457031 33.980469 31.441406 33.980469 Z M 31.441406 33.980469 "/>
<path style=" stroke:none;fill-rule:nonzero;fill:rgb(20.784314%,75.686276%,94.509804%);fill-opacity:1;" d="M 32.898438 41.769531 L 24.15625 41.769531 C 22.632812 41.769531 21.332031 40.667969 21.082031 39.164062 L 20.261719 34.234375 C 20.183594 33.785156 20.3125 33.320312 20.609375 32.972656 C 20.902344 32.621094 21.339844 32.421875 21.796875 32.421875 L 35.253906 32.421875 C 35.714844 32.421875 36.148438 32.621094 36.445312 32.972656 C 36.742188 33.320312 36.867188 33.785156 36.792969 34.234375 L 35.972656 39.164062 C 35.71875 40.667969 34.421875 41.769531 32.898438 41.769531 Z M 32.898438 41.769531 "/>
<path style=" stroke:none;fill-rule:nonzero;fill:url(#linear0);" d="M 24.632812 32.421875 L 32.421875 32.421875 L 32.421875 41.769531 L 24.632812 41.769531 Z M 24.632812 32.421875 "/>
<path style=" stroke:none;fill-rule:nonzero;fill:url(#linear1);" d="M 65.808594 32.324219 L 56.449219 27.957031 C 55.601562 27.5625 54.601562 27.734375 53.9375 28.390625 L 53.433594 28.890625 L 59.722656 34.289062 Z M 65.808594 32.324219 "/>
<path style=" stroke:none;fill-rule:nonzero;fill:url(#linear2);" d="M 73.253906 32.875 L 71.867188 29.164062 L 52.328125 36.542969 L 50.328125 34.796875 C 49.773438 34.316406 48.988281 34.214844 48.328125 34.539062 L 48.195312 34.605469 C 48.027344 34.6875 47.953125 34.886719 48.027344 35.058594 L 50.078125 39.800781 L 52.535156 40.835938 Z M 73.253906 32.875 "/>
<path style=" stroke:none;fill-rule:nonzero;fill:url(#linear3);" d="M 74.484375 31.046875 C 74.484375 32.140625 73.589844 33.027344 72.488281 33.027344 C 71.390625 33.027344 70.496094 32.140625 70.496094 31.046875 C 70.496094 29.953125 71.390625 29.066406 72.488281 29.066406 C 73.589844 29.066406 74.484375 29.953125 74.484375 31.046875 Z M 74.484375 31.046875 "/>
<path style=" stroke:none;fill-rule:nonzero;fill:url(#linear4);" d="M 53.878906 38.964844 C 53.878906 40.058594 52.984375 40.945312 51.882812 40.945312 C 50.78125 40.945312 49.890625 40.058594 49.890625 38.964844 C 49.890625 37.871094 50.78125 36.984375 51.882812 36.984375 C 52.984375 36.984375 53.878906 37.871094 53.878906 38.964844 Z M 53.878906 38.964844 "/>
<path style=" stroke:none;fill-rule:nonzero;fill:url(#linear5);" d="M 61.214844 35.972656 C 60.984375 36.058594 60.824219 36.269531 60.808594 36.515625 L 60.082031 46.441406 L 60.792969 46.441406 C 61.722656 46.445312 62.558594 45.863281 62.878906 44.988281 L 66.710938 34.433594 C 66.75 34.320312 66.722656 34.199219 66.636719 34.117188 C 66.554688 34.035156 66.433594 34.011719 66.324219 34.054688 Z M 61.214844 35.972656 "/>
<path style=" stroke:none;fill-rule:nonzero;fill:url(#linear6);" d="M 18.398438 55.789062 L 77.601562 55.789062 L 77.601562 75.652344 L 18.398438 75.652344 Z M 18.398438 55.789062 "/>
<path style=" stroke:none;fill-rule:nonzero;fill:rgb(20.784314%,75.686276%,94.509804%);fill-opacity:1;" d="M 30.863281 55.789062 L 33.980469 55.789062 L 33.980469 75.261719 L 30.863281 75.261719 Z M 30.863281 55.789062 "/>
<path style=" stroke:none;fill-rule:nonzero;fill:rgb(20.784314%,75.686276%,94.509804%);fill-opacity:1;" d="M 46.441406 55.789062 L 49.558594 55.789062 L 49.558594 75.261719 L 46.441406 75.261719 Z M 46.441406 55.789062 "/>
<path style=" stroke:none;fill-rule:nonzero;fill:rgb(20.784314%,75.686276%,94.509804%);fill-opacity:1;" d="M 62.019531 55.789062 L 65.136719 55.789062 L 65.136719 75.261719 L 62.019531 75.261719 Z M 62.019531 55.789062 "/>
<path style=" stroke:none;fill-rule:nonzero;fill:rgb(53.333336%,56.470591%,59.215689%);fill-opacity:1;" d="M 15.285156 54.230469 L 80.714844 54.230469 L 80.714844 57.347656 L 15.285156 57.347656 Z M 15.285156 54.230469 "/>
<path style=" stroke:none;fill-rule:nonzero;fill:rgb(53.333336%,56.470591%,59.215689%);fill-opacity:1;" d="M 15.285156 74.484375 L 80.714844 74.484375 L 80.714844 77.601562 L 15.285156 77.601562 Z M 15.285156 74.484375 "/>
<path style=" stroke:none;fill-rule:nonzero;fill:url(#linear7);" d="M 96 76 C 96 87.046875 87.046875 96 76 96 C 64.953125 96 56 87.046875 56 76 C 56 64.953125 64.953125 56 76 56 C 87.046875 56 96 64.953125 96 76 Z M 96 76 "/>
<path style=" stroke:none;fill-rule:nonzero;fill:rgb(100%,100%,100%);fill-opacity:1;" d="M 77 86 L 75 86 C 74.449219 86 74 85.550781 74 85 L 74 67 C 74 66.449219 74.449219 66 75 66 L 77 66 C 77.550781 66 78 66.449219 78 67 L 78 85 C 78 85.550781 77.550781 86 77 86 Z M 77 86 "/>
<path style=" stroke:none;fill-rule:nonzero;fill:rgb(100%,100%,100%);fill-opacity:1;" d="M 66 77 L 66 75 C 66 74.449219 66.449219 74 67 74 L 85 74 C 85.550781 74 86 74.449219 86 75 L 86 77 C 86 77.550781 85.550781 78 85 78 L 67 78 C 66.449219 78 66 77.550781 66 77 Z M 66 77 "/>
</g>
</svg>
