<?xml version="1.0" encoding="UTF-8"?>
<svg xmlns="http://www.w3.org/2000/svg" xmlns:xlink="http://www.w3.org/1999/xlink" viewBox="0 0 96 96" width="96px" height="96px">
<defs>
<linearGradient id="linear0" gradientUnits="userSpaceOnUse" x1="76.820686" y1="53.23558" x2="98.022987" y2="128.911041" gradientTransform="matrix(0.55814,0,0,0.55814,0,0)">
<stop offset="0" style="stop-color:rgb(19.607843%,74.117649%,93.725491%);stop-opacity:1;"/>
<stop offset="1" style="stop-color:rgb(11.764706%,63.529414%,89.411765%);stop-opacity:1;"/>
</linearGradient>
<linearGradient id="linear1" gradientUnits="userSpaceOnUse" x1="30.291109" y1="65.742218" x2="141.708893" y2="65.742218" gradientTransform="matrix(1.413332,0,0,1.413332,0,0)">
<stop offset="0" style="stop-color:rgb(27.058825%,28.627452%,30.19608%);stop-opacity:1;"/>
<stop offset="1" style="stop-color:rgb(42.745098%,45.490196%,47.450981%);stop-opacity:1;"/>
</linearGradient>
<linearGradient id="linear2" gradientUnits="userSpaceOnUse" x1="115.186394" y1="107.523888" x2="132.911957" y2="107.523888" gradientTransform="matrix(1.413332,0,0,1.413332,0,0)">
<stop offset="0" style="stop-color:rgb(99.607843%,87.058824%,0%);stop-opacity:1;"/>
<stop offset="1" style="stop-color:rgb(100%,81.568629%,0%);stop-opacity:1;"/>
</linearGradient>
</defs>
<g id="surface24024984">
<path style=" stroke:none;fill-rule:nonzero;fill:rgb(92.54902%,94.117647%,94.509804%);fill-opacity:1;" d="M 8.160156 96 C 3.652344 96 0 92.347656 0 87.839844 L 0 8.160156 C 0 3.652344 3.652344 0 8.160156 0 L 87.839844 0 C 92.347656 0 96 3.652344 96 8.160156 L 96 87.839844 C 96 92.347656 92.347656 96 87.839844 96 Z M 8.160156 96 "/>
<path style=" stroke:none;fill-rule:nonzero;fill:url(#linear0);" d="M 75.03125 26.800781 L 20.96875 26.800781 C 18.726562 26.800781 16.90625 28.617188 16.90625 30.863281 L 16.90625 65.136719 C 16.90625 67.382812 18.726562 69.199219 20.96875 69.199219 L 75.03125 69.199219 C 77.273438 69.199219 79.09375 67.382812 79.09375 65.136719 L 79.09375 30.863281 C 79.09375 28.617188 77.273438 26.800781 75.03125 26.800781 Z M 75.03125 26.800781 "/>
<path style=" stroke:none;fill-rule:nonzero;fill:url(#linear1);" d="M 16.90625 33.867188 L 79.09375 33.867188 L 79.09375 39.519531 L 16.90625 39.519531 Z M 16.90625 33.867188 "/>
<path style=" stroke:none;fill-rule:nonzero;fill:rgb(65.882355%,90.588236%,100%);fill-opacity:1;" d="M 73.441406 48 L 22.558594 48 C 21.78125 48 21.148438 47.367188 21.148438 46.585938 L 21.148438 43.761719 C 21.148438 42.980469 21.78125 42.347656 22.558594 42.347656 L 73.441406 42.347656 C 74.21875 42.347656 74.851562 42.980469 74.851562 43.761719 L 74.851562 46.585938 C 74.851562 47.367188 74.21875 48 73.441406 48 Z M 73.441406 48 "/>
<path style=" stroke:none;fill-rule:nonzero;fill:rgb(81.176472%,9.803922%,15.686275%);fill-opacity:1;" d="M 67.785156 60.011719 C 67.785156 62.746094 65.570312 64.960938 62.839844 64.960938 C 60.109375 64.960938 57.894531 62.746094 57.894531 60.011719 C 57.894531 57.28125 60.109375 55.066406 62.839844 55.066406 C 65.570312 55.066406 67.785156 57.28125 67.785156 60.011719 Z M 67.785156 60.011719 "/>
<path style=" stroke:none;fill-rule:nonzero;fill:url(#linear2);" d="M 74.183594 60.011719 C 74.183594 62.746094 71.96875 64.960938 69.238281 64.960938 C 66.503906 64.960938 64.289062 62.746094 64.289062 60.011719 C 64.289062 57.28125 66.503906 55.066406 69.238281 55.066406 C 71.96875 55.066406 74.183594 57.28125 74.183594 60.011719 Z M 74.183594 60.011719 "/>
<path style=" stroke:none;fill-rule:nonzero;fill:rgb(85.09804%,44.705883%,9.411765%);fill-opacity:1;" d="M 64.289062 60.011719 C 64.289062 61.527344 64.96875 62.875 66.039062 63.785156 C 67.105469 62.875 67.785156 61.527344 67.785156 60.011719 C 67.785156 58.5 67.105469 57.148438 66.039062 56.242188 C 64.96875 57.148438 64.289062 58.5 64.289062 60.011719 Z M 64.289062 60.011719 "/>
</g>
</svg>
