<svg width="328" height="329" viewBox="0 0 328 329" fill="none" xmlns="http://www.w3.org/2000/svg">
<g id="icon=icon">
<g id="Frame" filter="url(#filter0_d_193_5371)">
<path id="Vector" d="M289.806 10.5H38.1935C24.8319 10.5 14 21.3319 14 34.6935V286.306C14 299.667 24.8319 310.5 38.1935 310.5H289.806C303.167 310.5 314 299.667 314 286.306V34.6935C314 21.3319 303.167 10.5 289.806 10.5Z" fill="white"/>
<path id="Vector_2" d="M289.806 10.5H38.1935C24.8319 10.5 14 21.3319 14 34.6935V286.306C14 299.667 24.8319 310.5 38.1935 310.5H289.806C303.167 310.5 314 299.667 314 286.306V34.6935C314 21.3319 303.167 10.5 289.806 10.5Z" stroke="#D5EAF6" stroke-width="20" stroke-linecap="round"/>
<g id="Vector_3">
<path d="M289.806 10.5H38.1935C24.8319 10.5 14 21.3319 14 34.6935V286.306C14 299.667 24.8319 310.5 38.1935 310.5H289.806C303.167 310.5 314 299.667 314 286.306V34.6935C314 21.3319 303.167 10.5 289.806 10.5Z" fill="url(#paint0_linear_193_5371)" fill-opacity="0.2"/>
<path d="M38.1935 11.5H289.806C302.615 11.5 313 21.8842 313 34.6935V286.306C313 299.115 302.615 309.5 289.806 309.5H38.1935C25.3842 309.5 15 299.115 15 286.306V34.6935C15 21.8842 25.3842 11.5 38.1935 11.5Z" stroke="#F7F7F7" stroke-opacity="0.27" stroke-width="2"/>
</g>
</g>
<g id="Group">
<path id="Vector_4" d="M59.5 86.8164H196.342V181.553H70.0263C64.2105 181.553 59.5 176.843 59.5 171.027V86.8164Z" fill="url(#paint1_linear_193_5371)"/>
<path id="Vector_5" d="M196.342 86.8158V76.2895C196.342 70.4737 191.632 65.7632 185.816 65.7632H70.0263C64.2105 65.7632 59.5 70.4737 59.5 76.2895V86.8158H196.342Z" fill="url(#paint2_linear_193_5371)"/>
<path id="Vector_6" d="M112.131 155.237H85.8149C82.9097 155.237 80.5518 152.879 80.5518 149.974V118.395C80.5518 115.49 82.9097 113.132 85.8149 113.132H112.131C115.036 113.132 117.394 115.49 117.394 118.395V149.974C117.394 152.879 115.036 155.237 112.131 155.237Z" fill="url(#paint3_linear_193_5371)"/>
<path id="Vector_7" d="M170.026 155.237H143.711C140.805 155.237 138.448 152.879 138.448 149.974V118.395C138.448 115.49 140.805 113.132 143.711 113.132H170.026C172.932 113.132 175.29 115.49 175.29 118.395V149.974C175.29 152.879 172.932 155.237 170.026 155.237Z" fill="url(#paint4_linear_193_5371)"/>
<path id="Vector_8" opacity="0.05" d="M196.343 181.553V134.185H133.185C124.48 134.185 117.396 141.269 117.396 149.974V181.553H196.343Z" fill="black"/>
<path id="Vector_9" opacity="0.07" d="M196.343 181.553V136.816H133.185C125.932 136.816 120.027 142.721 120.027 149.974V181.553H196.343Z" fill="black"/>
<path id="Vector_10" d="M122.658 160.5H259.5V244.711C259.5 250.526 254.79 255.237 248.974 255.237H133.184C127.368 255.237 122.658 250.526 122.658 244.711V160.5Z" fill="url(#paint5_linear_193_5371)"/>
<path id="Vector_11" d="M259.5 160.5V149.973C259.5 144.157 254.79 139.447 248.974 139.447H133.184C127.368 139.447 122.658 144.157 122.658 149.973V160.5H259.5Z" fill="url(#paint6_linear_193_5371)"/>
<g id="Group_2">
<path id="Vector_12" d="M175.289 228.921H148.973C146.068 228.921 143.71 226.563 143.71 223.658V192.079C143.71 189.173 146.068 186.815 148.973 186.815H175.289C178.194 186.815 180.552 189.173 180.552 192.079V223.658C180.552 226.563 178.194 228.921 175.289 228.921Z" fill="#58B684"/>
<path id="Vector_13" d="M233.184 228.921H206.869C203.963 228.921 201.605 226.563 201.605 223.657V192.078C201.605 189.173 203.963 186.815 206.869 186.815H233.184C236.09 186.815 238.448 189.173 238.448 192.078V223.657C238.448 226.563 236.09 228.921 233.184 228.921Z" fill="#58B684"/>
</g>
</g>
</g>
<defs>
<filter id="filter0_d_193_5371" x="0" y="0.5" width="328" height="328" filterUnits="userSpaceOnUse" color-interpolation-filters="sRGB">
<feFlood flood-opacity="0" result="BackgroundImageFix"/>
<feColorMatrix in="SourceAlpha" type="matrix" values="0 0 0 0 0 0 0 0 0 0 0 0 0 0 0 0 0 0 127 0" result="hardAlpha"/>
<feOffset dy="4"/>
<feGaussianBlur stdDeviation="2"/>
<feComposite in2="hardAlpha" operator="out"/>
<feColorMatrix type="matrix" values="0 0 0 0 0 0 0 0 0 0 0 0 0 0 0 0 0 0 0.25 0"/>
<feBlend mode="normal" in2="BackgroundImageFix" result="effect1_dropShadow_193_5371"/>
<feBlend mode="normal" in="SourceGraphic" in2="effect1_dropShadow_193_5371" result="shape"/>
</filter>
<linearGradient id="paint0_linear_193_5371" x1="164" y1="25.0161" x2="164" y2="295.983" gradientUnits="userSpaceOnUse">
<stop stop-color="white"/>
<stop offset="0.472222" stop-color="#0D5176" stop-opacity="0.527778"/>
<stop offset="0.940972" stop-color="#12A6F7" stop-opacity="0.465278"/>
</linearGradient>
<linearGradient id="paint1_linear_193_5371" x1="74.2" y1="77.3796" x2="157.216" y2="160.395" gradientUnits="userSpaceOnUse">
<stop stop-color="#7DD8F3"/>
<stop offset="1" stop-color="#45B0D0"/>
</linearGradient>
<linearGradient id="paint2_linear_193_5371" x1="59.5" y1="76.2895" x2="196.342" y2="76.2895" gradientUnits="userSpaceOnUse">
<stop stop-color="#0077D2"/>
<stop offset="1" stop-color="#0B59A2"/>
</linearGradient>
<linearGradient id="paint3_linear_193_5371" x1="98.9728" y1="113.132" x2="98.9728" y2="162.805" gradientUnits="userSpaceOnUse">
<stop stop-color="#199AE0"/>
<stop offset="1" stop-color="#0782D8"/>
</linearGradient>
<linearGradient id="paint4_linear_193_5371" x1="156.869" y1="113.132" x2="156.869" y2="162.805" gradientUnits="userSpaceOnUse">
<stop stop-color="#199AE0"/>
<stop offset="1" stop-color="#0782D8"/>
</linearGradient>
<linearGradient id="paint5_linear_193_5371" x1="122.658" y1="207.869" x2="259.5" y2="207.869" gradientUnits="userSpaceOnUse">
<stop stop-color="#9DFFCE"/>
<stop offset="1" stop-color="#50D18D"/>
</linearGradient>
<linearGradient id="paint6_linear_193_5371" x1="122.658" y1="149.973" x2="259.5" y2="149.973" gradientUnits="userSpaceOnUse">
<stop stop-color="#21AD64"/>
<stop offset="1" stop-color="#088242"/>
</linearGradient>
</defs>
</svg>
