<svg width="309" height="309" viewBox="0 0 309 309" fill="none" xmlns="http://www.w3.org/2000/svg">
<g id="icon=icon-plain">
<g id="icon-plain">
<g id="Frame" filter="url(#filter0_d_193_5391)">
<g id="Vector">
<path d="M280.806 0.5H29.1935C15.8319 0.5 5 11.3319 5 24.6935V276.306C5 289.667 15.8319 300.5 29.1935 300.5H280.806C294.167 300.5 305 289.667 305 276.306V24.6935C305 11.3319 294.167 0.5 280.806 0.5Z" fill="url(#paint0_linear_193_5391)" fill-opacity="0.2"/>
<path d="M29.1935 1.5H280.806C293.615 1.5 304 11.8842 304 24.6935V276.306C304 289.115 293.615 299.5 280.806 299.5H29.1935C16.3842 299.5 6 289.115 6 276.306V24.6935C6 11.8842 16.3842 1.5 29.1935 1.5Z" stroke="#F7F7F7" stroke-opacity="0.27" stroke-width="2"/>
</g>
</g>
<g id="Group">
<path id="Vector_2" d="M50.5 76.8164H187.342V171.553H61.0263C55.2105 171.553 50.5 166.843 50.5 161.027V76.8164Z" fill="url(#paint1_linear_193_5391)"/>
<path id="Vector_3" d="M187.342 76.8158V66.2895C187.342 60.4737 182.632 55.7632 176.816 55.7632H61.0263C55.2105 55.7632 50.5 60.4737 50.5 66.2895V76.8158H187.342Z" fill="url(#paint2_linear_193_5391)"/>
<path id="Vector_4" d="M103.131 145.237H76.8149C73.9097 145.237 71.5518 142.879 71.5518 139.974V108.395C71.5518 105.49 73.9097 103.132 76.8149 103.132H103.131C106.036 103.132 108.394 105.49 108.394 108.395V139.974C108.394 142.879 106.036 145.237 103.131 145.237Z" fill="url(#paint3_linear_193_5391)"/>
<path id="Vector_5" d="M161.027 145.237H134.711C131.806 145.237 129.448 142.879 129.448 139.974V108.395C129.448 105.49 131.806 103.132 134.711 103.132H161.027C163.932 103.132 166.29 105.49 166.29 108.395V139.974C166.29 142.879 163.932 145.237 161.027 145.237Z" fill="url(#paint4_linear_193_5391)"/>
<path id="Vector_6" opacity="0.05" d="M187.343 171.553V124.185H124.185C115.48 124.185 108.396 131.269 108.396 139.974V171.553H187.343Z" fill="black"/>
<path id="Vector_7" opacity="0.07" d="M187.343 171.553V126.816H124.185C116.933 126.816 111.027 132.721 111.027 139.974V171.553H187.343Z" fill="black"/>
<path id="Vector_8" d="M113.658 150.5H250.5V234.711C250.5 240.526 245.789 245.237 239.974 245.237H124.184C118.368 245.237 113.658 240.526 113.658 234.711V150.5Z" fill="url(#paint5_linear_193_5391)"/>
<path id="Vector_9" d="M250.5 150.5V139.973C250.5 134.157 245.789 129.447 239.974 129.447H124.184C118.368 129.447 113.658 134.157 113.658 139.973V150.5H250.5Z" fill="url(#paint6_linear_193_5391)"/>
<g id="Group_2">
<path id="Vector_10" d="M166.288 218.921H139.973C137.067 218.921 134.709 216.563 134.709 213.658V182.079C134.709 179.173 137.067 176.815 139.973 176.815H166.288C169.194 176.815 171.552 179.173 171.552 182.079V213.658C171.552 216.563 169.194 218.921 166.288 218.921Z" fill="#58B684"/>
<path id="Vector_11" d="M224.184 218.921H197.868C194.963 218.921 192.605 216.563 192.605 213.657V182.078C192.605 179.173 194.963 176.815 197.868 176.815H224.184C227.089 176.815 229.447 179.173 229.447 182.078V213.657C229.447 216.563 227.089 218.921 224.184 218.921Z" fill="#58B684"/>
</g>
</g>
</g>
</g>
<defs>
<filter id="filter0_d_193_5391" x="1" y="0.5" width="308" height="308" filterUnits="userSpaceOnUse" color-interpolation-filters="sRGB">
<feFlood flood-opacity="0" result="BackgroundImageFix"/>
<feColorMatrix in="SourceAlpha" type="matrix" values="0 0 0 0 0 0 0 0 0 0 0 0 0 0 0 0 0 0 127 0" result="hardAlpha"/>
<feOffset dy="4"/>
<feGaussianBlur stdDeviation="2"/>
<feComposite in2="hardAlpha" operator="out"/>
<feColorMatrix type="matrix" values="0 0 0 0 0 0 0 0 0 0 0 0 0 0 0 0 0 0 0.25 0"/>
<feBlend mode="normal" in2="BackgroundImageFix" result="effect1_dropShadow_193_5391"/>
<feBlend mode="normal" in="SourceGraphic" in2="effect1_dropShadow_193_5391" result="shape"/>
</filter>
<linearGradient id="paint0_linear_193_5391" x1="155" y1="15.0161" x2="155" y2="285.983" gradientUnits="userSpaceOnUse">
<stop stop-color="white"/>
<stop offset="0.472222" stop-color="#0D5176" stop-opacity="0.527778"/>
<stop offset="0.940972" stop-color="#12A6F7" stop-opacity="0.465278"/>
</linearGradient>
<linearGradient id="paint1_linear_193_5391" x1="65.2" y1="67.3796" x2="148.216" y2="150.395" gradientUnits="userSpaceOnUse">
<stop stop-color="#7DD8F3"/>
<stop offset="1" stop-color="#45B0D0"/>
</linearGradient>
<linearGradient id="paint2_linear_193_5391" x1="50.5" y1="66.2895" x2="187.342" y2="66.2895" gradientUnits="userSpaceOnUse">
<stop stop-color="#0077D2"/>
<stop offset="1" stop-color="#0B59A2"/>
</linearGradient>
<linearGradient id="paint3_linear_193_5391" x1="89.9728" y1="103.132" x2="89.9728" y2="152.805" gradientUnits="userSpaceOnUse">
<stop stop-color="#199AE0"/>
<stop offset="1" stop-color="#0782D8"/>
</linearGradient>
<linearGradient id="paint4_linear_193_5391" x1="147.869" y1="103.132" x2="147.869" y2="152.805" gradientUnits="userSpaceOnUse">
<stop stop-color="#199AE0"/>
<stop offset="1" stop-color="#0782D8"/>
</linearGradient>
<linearGradient id="paint5_linear_193_5391" x1="113.658" y1="197.869" x2="250.5" y2="197.869" gradientUnits="userSpaceOnUse">
<stop stop-color="#9DFFCE"/>
<stop offset="1" stop-color="#50D18D"/>
</linearGradient>
<linearGradient id="paint6_linear_193_5391" x1="113.658" y1="139.973" x2="250.5" y2="139.973" gradientUnits="userSpaceOnUse">
<stop stop-color="#21AD64"/>
<stop offset="1" stop-color="#088242"/>
</linearGradient>
</defs>
</svg>
