<svg width="133" height="133" viewBox="0 0 133 133" fill="none" xmlns="http://www.w3.org/2000/svg">
<g filter="url(#filter0_d_186_5743)">
<path d="M122.421 94.1053H10.5789C6.94408 94.1053 4 97.0493 4 100.684V120.421C4 124.053 6.94408 127 10.5789 127H43.4737H122.421C126.056 127 129 124.053 129 120.421V100.684C129 97.0493 126.056 94.1053 122.421 94.1053Z" fill="#EFEFEF"/>
<path d="M63.2106 94.1053V127H28.4343L36.8948 94.1053H63.2106Z" fill="url(#paint0_linear_186_5743)" fill-opacity="0.5"/>
<path d="M102.684 127V94.1053H122.421C126.056 94.1053 129 97.0493 129 100.684V120.421C129 124.056 126.056 127 122.421 127H102.684Z" fill="#0078D4"/>
<path d="M96.1053 94.1053V127H69.7895V94.1053H96.1053Z" fill="url(#paint1_linear_186_5743)" fill-opacity="0.5"/>
<path opacity="0.05" d="M27.727 94.1053V126.868L83.3158 94.1053H27.727Z" fill="black"/>
<path opacity="0.05" d="M27.727 94.1053V127H30.7434L86.5526 94.1053H27.727Z" fill="black"/>
<path d="M120.316 62.7533L110.293 45.75C108.447 42.6184 104.414 41.5789 101.283 43.421L4.93421 100.211C4.5921 100.411 4.28947 100.648 4 100.895V111.582L12.6283 126.22C12.7961 126.507 12.9967 126.753 13.1974 127H24.2664L117.99 71.7632C121.118 69.9178 122.161 65.8849 120.316 62.7533Z" fill="#EFEFEF"/>
<path d="M78.6152 56.7862L95.3192 85.125L72.6481 98.4868L55.9442 70.148L78.6152 56.7862Z" fill="url(#paint2_linear_186_5743)" fill-opacity="0.5"/>
<path opacity="0.05" d="M58.1085 68.8717L25.1809 126.461L40.0987 117.668L75.4046 58.6776L58.1085 68.8717Z" fill="black"/>
<path d="M100.984 81.7829L84.2796 53.4441L101.283 43.421C104.414 41.5757 108.447 42.6184 110.293 45.7467L120.316 62.75C122.161 65.8816 121.118 69.9145 117.99 71.7599L100.984 81.7829Z" fill="#0078D4"/>
<path opacity="0.05" d="M58.1085 68.8717L25.1809 126.461L37.1349 119.414L72.4441 60.4211L58.1085 68.8717Z" fill="black"/>
<path d="M50.2763 73.4868L66.9803 101.826L32.0592 122.398L27.6086 86.8487L50.2763 73.4868Z" fill="url(#paint3_linear_186_5743)" fill-opacity="0.5"/>
<path d="M86.0526 21.6645L69.1151 11.5329C65.9967 9.66775 61.9572 10.6842 60.0921 13.8026L4 107.592V118.102C4.29605 118.359 4.60855 118.605 4.95395 118.813L18.6447 127H30.6743C30.75 126.888 30.8454 126.793 30.9178 126.674L88.3224 30.6875C90.1875 27.5691 89.1711 23.5296 86.0526 21.6645Z" fill="#EFEFEF"/>
<path d="M46.5822 36.3882L74.8125 53.273L61.3059 75.8586L33.0756 58.9737L46.5822 36.3882Z" fill="url(#paint4_linear_186_5743)" fill-opacity="0.5"/>
<path d="M29.7007 64.6217L57.9309 81.5066L36.4671 117.362L16.1941 87.2072L29.7007 64.6217Z" fill="url(#paint5_linear_186_5743)" fill-opacity="0.5"/>
<path opacity="0.05" d="M29.6151 127H30.6743H37.6184C39.1973 125.25 40.1842 122.957 40.1842 120.421V47.0888L29.6151 64.7599V127V127Z" fill="black"/>
<path opacity="0.05" d="M29.6151 127H30.6743H35.2006C37.2171 125.5 38.5395 123.122 38.5395 120.421V49.8388L29.6151 64.7599V127V127Z" fill="black"/>
<path d="M78.1907 47.625L49.9604 30.7401L60.092 13.8026C61.9572 10.6842 65.9966 9.66775 69.1151 11.5329L86.0526 21.6645C89.171 23.5296 90.1874 27.5691 88.3223 30.6875L78.1907 47.625Z" fill="#0078D4"/>
<path d="M30.3158 127H10.5789C6.94408 127 4 124.056 4 120.421V8.57895C4 4.94408 6.94408 2 10.5789 2H30.3158C33.9507 2 36.8947 4.94408 36.8947 8.57895V120.421C36.8947 124.056 33.9507 127 30.3158 127Z" fill="url(#paint6_linear_186_5743)"/>
<path d="M36.8947 28.3158H4V8.57895C4 4.94408 6.94408 2 10.5789 2H30.3158C33.9507 2 36.8947 4.94408 36.8947 8.57895V28.3158Z" fill="#0078D4"/>
<path d="M4 34.8947H36.8947V61.2105H4V34.8947Z" fill="url(#paint7_linear_186_5743)" fill-opacity="0.5"/>
<path d="M4 67.7895H36.8947V94.1053H4V67.7895Z" fill="url(#paint8_linear_186_5743)" fill-opacity="0.5"/>
<path d="M20.4474 107.263C18.6316 107.263 17.1579 108.737 17.1579 110.553C17.1579 112.368 18.6316 113.842 20.4474 113.842C22.2632 113.842 23.7368 112.368 23.7368 110.553C23.7368 108.737 22.2632 107.263 20.4474 107.263Z" fill="#007AD9"/>
<path d="M20.4474 107.263C18.6316 107.263 17.1579 108.737 17.1579 110.553C17.1579 112.368 18.6316 113.842 20.4474 113.842C22.2632 113.842 23.7368 112.368 23.7368 110.553C23.7368 108.737 22.2632 107.263 20.4474 107.263Z" fill="#211B1B" fill-opacity="0.2"/>
</g>
<defs>
<filter id="filter0_d_186_5743" x="0" y="0" width="133" height="133" filterUnits="userSpaceOnUse" color-interpolation-filters="sRGB">
<feFlood flood-opacity="0" result="BackgroundImageFix"/>
<feColorMatrix in="SourceAlpha" type="matrix" values="0 0 0 0 0 0 0 0 0 0 0 0 0 0 0 0 0 0 127 0" result="hardAlpha"/>
<feOffset dy="2"/>
<feGaussianBlur stdDeviation="2"/>
<feComposite in2="hardAlpha" operator="out"/>
<feColorMatrix type="matrix" values="0 0 0 0 1 0 0 0 0 1 0 0 0 0 1 0 0 0 0.25 0"/>
<feBlend mode="normal" in2="BackgroundImageFix" result="effect1_dropShadow_186_5743"/>
<feBlend mode="normal" in="SourceGraphic" in2="effect1_dropShadow_186_5743" result="shape"/>
</filter>
<linearGradient id="paint0_linear_186_5743" x1="45.8224" y1="94.1053" x2="45.8224" y2="127" gradientUnits="userSpaceOnUse">
<stop stop-color="#199BE2"/>
<stop offset="1" stop-color="#199BE2"/>
</linearGradient>
<linearGradient id="paint1_linear_186_5743" x1="82.9474" y1="94.1053" x2="82.9474" y2="127" gradientUnits="userSpaceOnUse">
<stop stop-color="#0A85D9"/>
<stop offset="0.701389" stop-color="#0A85D9"/>
</linearGradient>
<linearGradient id="paint2_linear_186_5743" x1="75.6317" y1="56.7862" x2="75.6317" y2="98.4868" gradientUnits="userSpaceOnUse">
<stop stop-color="#0A85D9"/>
<stop offset="0.701389" stop-color="#0A85D9"/>
</linearGradient>
<linearGradient id="paint3_linear_186_5743" x1="47.2944" y1="73.4868" x2="47.2944" y2="122.398" gradientUnits="userSpaceOnUse">
<stop stop-color="#199BE2"/>
<stop offset="1" stop-color="#199BE2"/>
</linearGradient>
<linearGradient id="paint4_linear_186_5743" x1="53.944" y1="36.3882" x2="53.944" y2="75.8586" gradientUnits="userSpaceOnUse">
<stop stop-color="#0A85D9"/>
<stop offset="0.701389" stop-color="#0A85D9"/>
</linearGradient>
<linearGradient id="paint5_linear_186_5743" x1="37.0625" y1="64.6217" x2="37.0625" y2="117.362" gradientUnits="userSpaceOnUse">
<stop stop-color="#199BE2"/>
<stop offset="1" stop-color="#199BE2"/>
</linearGradient>
<linearGradient id="paint6_linear_186_5743" x1="20.4474" y1="64.5" x2="20.4474" y2="136.447" gradientUnits="userSpaceOnUse">
<stop stop-color="white"/>
<stop offset="1" stop-color="white"/>
</linearGradient>
<linearGradient id="paint7_linear_186_5743" x1="20.4474" y1="34.8947" x2="20.4474" y2="61.2105" gradientUnits="userSpaceOnUse">
<stop stop-color="#0A85D9"/>
<stop offset="0.701389" stop-color="#0A85D9"/>
</linearGradient>
<linearGradient id="paint8_linear_186_5743" x1="20.4474" y1="67.7895" x2="20.4474" y2="94.1053" gradientUnits="userSpaceOnUse">
<stop stop-color="#199BE2"/>
<stop offset="1" stop-color="#199BE2"/>
</linearGradient>
</defs>
</svg>
