<svg width="160" height="128" viewBox="0 0 160 128" fill="none" xmlns="http://www.w3.org/2000/svg">
<path d="M0 120V28H160V120C160 124.4 156.4 128 152 128H8C3.6 128 0 124.4 0 120Z" fill="#F6F6F6"/>
<path d="M160 8V28H0V8C0 3.6 3.6 0 8 0H152C156.4 0 160 3.6 160 8Z" fill="url(#paint0_linear_187_6085)"/>
<path d="M12.5 18.5C14.9853 18.5 17 16.4853 17 14C17 11.5147 14.9853 9.5 12.5 9.5C10.0147 9.5 8 11.5147 8 14C8 16.4853 10.0147 18.5 12.5 18.5Z" fill="url(#paint1_linear_187_6085)"/>
<path d="M29.5 18.5C31.9853 18.5 34 16.4853 34 14C34 11.5147 31.9853 9.5 29.5 9.5C27.0147 9.5 25 11.5147 25 14C25 16.4853 27.0147 18.5 29.5 18.5Z" fill="url(#paint2_linear_187_6085)"/>
<path d="M51.9231 20H148.077C149.138 20 150 19.104 150 18V10C150 8.896 149.138 8 148.077 8H51.9231C50.8615 8 50 8.896 50 10V18C50 19.104 50.8615 20 51.9231 20Z" fill="#A9CEEB"/>
<defs>
<linearGradient id="paint0_linear_187_6085" x1="160" y1="14" x2="0" y2="14" gradientUnits="userSpaceOnUse">
<stop stop-color="#1951A8"/>
<stop offset="0.175" stop-color="#1955B0"/>
<stop offset="0.505" stop-color="#195AB9"/>
<stop offset="1" stop-color="#195BBC"/>
</linearGradient>
<linearGradient id="paint1_linear_187_6085" x1="10.253" y1="10.748" x2="14.096" y2="16.307" gradientUnits="userSpaceOnUse">
<stop stop-color="#7ACDE5"/>
<stop offset="0.942708" stop-color="#49AFCE"/>
</linearGradient>
<linearGradient id="paint2_linear_187_6085" x1="27.253" y1="10.748" x2="31.096" y2="16.307" gradientUnits="userSpaceOnUse">
<stop stop-color="#7ACDE5"/>
<stop offset="0.942708" stop-color="#49AFCE"/>
</linearGradient>
</defs>
</svg>
