<svg width="160" height="148" viewBox="0 0 160 148" fill="none" xmlns="http://www.w3.org/2000/svg">
<path d="M0 10C0 4.47716 4.47715 0 10 0H150C155.523 0 160 4.47715 160 10V25.6H0V10Z" fill="url(#paint0_linear_187_6112)"/>
<path d="M0 25.6001H160V137.2C160 142.723 155.523 147.2 150 147.2H10C4.47715 147.2 0 142.723 0 137.2V25.6001Z" fill="white" fill-opacity="0.3"/>
<path d="M0 25.6001H160V137.2C160 142.723 155.523 147.2 150 147.2H10C4.47715 147.2 0 142.723 0 137.2V25.6001Z" fill="url(#paint1_radial_187_6112)" fill-opacity="0.1"/>
<path d="M0 25.6001H160V137.2C160 142.723 155.523 147.2 150 147.2H10C4.47715 147.2 0 142.723 0 137.2V25.6001Z" fill="white"/>
<path d="M35 85.7211V64H43.5697C45.2101 64 46.6101 64.2934 47.7696 64.8803C48.9363 65.4601 49.8237 66.2838 50.4318 67.3515C51.0469 68.4121 51.3545 69.6601 51.3545 71.0954C51.3545 72.5378 51.0434 73.7787 50.4211 74.8181C49.7989 75.8505 48.8974 76.6424 47.7166 77.1939C46.5429 77.7454 45.1217 78.0212 43.453 78.0212H37.7151V74.3303H42.7106C43.5873 74.3303 44.3156 74.2101 44.8954 73.9697C45.4752 73.7293 45.9065 73.3686 46.1893 72.8878C46.4792 72.407 46.6242 71.8096 46.6242 71.0954C46.6242 70.3742 46.4792 69.7661 46.1893 69.2712C45.9065 68.7762 45.4717 68.4015 44.8848 68.147C44.305 67.8853 43.5732 67.7545 42.6894 67.7545H39.5924V85.7211H35ZM46.7303 75.8363L52.1287 85.7211H47.059L41.7772 75.8363H46.7303Z" fill="#D0D9E0"/>
<path d="M61.6131 86.0393C59.9657 86.0393 58.5409 85.6893 57.3389 84.9893C56.144 84.2822 55.2213 83.2994 54.5708 82.0408C53.9202 80.7752 53.595 79.308 53.595 77.6393C53.595 75.9565 53.9202 74.4858 54.5708 73.2272C55.2213 71.9616 56.144 70.9788 57.3389 70.2788C58.5409 69.5717 59.9657 69.2182 61.6131 69.2182C63.2606 69.2182 64.6818 69.5717 65.8768 70.2788C67.0788 70.9788 68.005 71.9616 68.6555 73.2272C69.306 74.4858 69.6313 75.9565 69.6313 77.6393C69.6313 79.308 69.306 80.7752 68.6555 82.0408C68.005 83.2994 67.0788 84.2822 65.8768 84.9893C64.6818 85.6893 63.2606 86.0393 61.6131 86.0393ZM61.6344 82.5393C62.3838 82.5393 63.0096 82.3272 63.5116 81.903C64.0136 81.4716 64.3919 80.8848 64.6465 80.1424C64.9081 79.3999 65.0389 78.555 65.0389 77.6075C65.0389 76.66 64.9081 75.8151 64.6465 75.0727C64.3919 74.3303 64.0136 73.7434 63.5116 73.3121C63.0096 72.8808 62.3838 72.6651 61.6344 72.6651C60.8778 72.6651 60.2414 72.8808 59.7253 73.3121C59.2162 73.7434 58.8308 74.3303 58.5692 75.0727C58.3147 75.8151 58.1874 76.66 58.1874 77.6075C58.1874 78.555 58.3147 79.3999 58.5692 80.1424C58.8308 80.8848 59.2162 81.4716 59.7253 81.903C60.2414 82.3272 60.8778 82.5393 61.6344 82.5393Z" fill="#D0D9E0"/>
<path d="M83.0161 78.7848V69.4303H87.5342V85.7211H83.1964V82.762H83.0267C82.659 83.7166 82.0474 84.4838 81.1919 85.0635C80.3434 85.6433 79.3075 85.9332 78.0843 85.9332C76.9954 85.9332 76.0373 85.6858 75.2101 85.1908C74.3828 84.6959 73.7358 83.9923 73.2692 83.0802C72.8096 82.1681 72.5762 81.0757 72.5692 79.803V69.4303H77.0873V78.9969C77.0944 79.9585 77.3525 80.7186 77.8616 81.2772C78.3706 81.8358 79.053 82.1151 79.9085 82.1151C80.453 82.1151 80.9621 81.9913 81.4358 81.7439C81.9095 81.4893 82.2913 81.1146 82.5812 80.6196C82.8782 80.1247 83.0232 79.5131 83.0161 78.7848Z" fill="#D0D9E0"/>
<path d="M95.6664 76.303V85.7211H91.1483V69.4303H95.4543V72.3045H95.6452C96.0058 71.357 96.6104 70.6075 97.4588 70.056C98.3073 69.4975 99.3361 69.2182 100.545 69.2182C101.676 69.2182 102.663 69.4656 103.504 69.9606C104.346 70.4555 105 71.1626 105.466 72.0818C105.933 72.9939 106.166 74.0828 106.166 75.3484V85.7211H101.648V76.1545C101.655 75.1575 101.401 74.3798 100.885 73.8212C100.368 73.2555 99.6578 72.9727 98.7528 72.9727C98.1447 72.9727 97.6073 73.1035 97.1406 73.3651C96.6811 73.6267 96.3205 74.0085 96.0588 74.5106C95.8043 75.0055 95.6735 75.603 95.6664 76.303Z" fill="#D0D9E0"/>
<path d="M115.73 85.9863C114.493 85.9863 113.372 85.6681 112.368 85.0317C111.371 84.3883 110.579 83.4444 109.992 82.1999C109.413 80.9484 109.123 79.4141 109.123 77.5969C109.123 75.7303 109.423 74.1782 110.024 72.9409C110.625 71.6964 111.424 70.7666 112.421 70.1515C113.425 69.5293 114.525 69.2182 115.72 69.2182C116.632 69.2182 117.392 69.3737 118 69.6848C118.615 69.9889 119.11 70.3707 119.485 70.8303C119.867 71.2828 120.157 71.7283 120.355 72.1666H120.492V64H125V85.7211H120.545V83.112H120.355C120.142 83.5646 119.842 84.0136 119.453 84.459C119.071 84.8974 118.573 85.2615 117.958 85.5514C117.35 85.8413 116.607 85.9863 115.73 85.9863ZM117.162 82.3908C117.89 82.3908 118.506 82.1929 119.008 81.7969C119.517 81.3939 119.906 80.8317 120.174 80.1105C120.45 79.3893 120.588 78.5444 120.588 77.5757C120.588 76.607 120.454 75.7656 120.185 75.0515C119.916 74.3373 119.527 73.7858 119.018 73.3969C118.509 73.008 117.89 72.8136 117.162 72.8136C116.42 72.8136 115.794 73.0151 115.285 73.4181C114.776 73.8212 114.39 74.3798 114.129 75.0939C113.867 75.808 113.736 76.6353 113.736 77.5757C113.736 78.5232 113.867 79.361 114.129 80.0893C114.398 80.8105 114.783 81.3762 115.285 81.7863C115.794 82.1893 116.42 82.3908 117.162 82.3908Z" fill="#D0D9E0"/>
<defs>
<linearGradient id="paint0_linear_187_6112" x1="0" y1="12.8" x2="160" y2="12.8" gradientUnits="userSpaceOnUse">
<stop stop-color="#1951A8"/>
<stop offset="0.175" stop-color="#1955B0"/>
<stop offset="0.505" stop-color="#195AB9"/>
<stop offset="1" stop-color="#195BBC"/>
</linearGradient>
<radialGradient id="paint1_radial_187_6112" cx="0" cy="0" r="1" gradientUnits="userSpaceOnUse" gradientTransform="translate(80 86.4001) rotate(90) scale(60.8 80)">
<stop stop-opacity="0.37"/>
<stop offset="1" stop-opacity="0"/>
</radialGradient>
</defs>
</svg>
