<svg width="160" height="148" viewBox="0 0 160 148" fill="none" xmlns="http://www.w3.org/2000/svg">
<path d="M0 25.6001H160V147.2H0V25.6001Z" fill="#F2F2F2"/>
<path d="M0 25.6001H160V147.2H0V25.6001Z" fill="url(#paint0_radial_187_6113)" fill-opacity="0.1"/>
<rect width="160" height="25.6" fill="url(#paint1_linear_187_6113)"/>
<path d="M0 25.6001H160V147.2H0V25.6001Z" fill="white" fill-opacity="0.3"/>
<path d="M0 25.6001H160V147.2H0V25.6001Z" fill="url(#paint2_radial_187_6113)" fill-opacity="0.1"/>
<path d="M0 25.6001H160V147.2H0V25.6001Z" fill="white"/>
<path d="M46.0849 70.8109C46.0096 70.0511 45.6862 69.461 45.1148 69.0403C44.5435 68.6196 43.7681 68.4093 42.7886 68.4093C42.1231 68.4093 41.5612 68.5035 41.1028 68.6918C40.6445 68.8739 40.2929 69.1282 40.048 69.4547C39.8094 69.7812 39.6901 70.1516 39.6901 70.566C39.6776 70.9113 39.7498 71.2127 39.9067 71.4701C40.07 71.7275 40.2929 71.9504 40.5754 72.1388C40.8579 72.3209 41.1844 72.481 41.5549 72.6191C41.9253 72.7509 42.3209 72.864 42.7415 72.9581L44.4744 73.3725C45.3158 73.5609 46.088 73.812 46.7912 74.126C47.4944 74.4399 48.1035 74.826 48.6183 75.2844C49.1332 75.7427 49.5319 76.2827 49.8144 76.9043C50.1032 77.5258 50.2508 78.2385 50.257 79.0421C50.2508 80.2225 49.9494 81.2459 49.3529 82.1124C48.7627 82.9725 47.9088 83.6412 46.7912 84.1184C45.6799 84.5893 44.3394 84.8247 42.7698 84.8247C41.2127 84.8247 39.8565 84.5861 38.7012 84.109C37.5523 83.6318 36.6544 82.9254 36.0077 81.9899C35.3673 81.0481 35.0314 79.8835 35 78.4959H38.9461C38.9901 79.1426 39.1753 79.6825 39.5018 80.1158C39.8345 80.5427 40.2772 80.8661 40.8297 81.0858C41.3885 81.2993 42.0195 81.406 42.7227 81.406C43.4133 81.406 44.013 81.3056 44.5215 81.1046C45.0364 80.9037 45.4351 80.6243 45.7176 80.2664C46.0001 79.9086 46.1414 79.4973 46.1414 79.0327C46.1414 78.5995 46.0127 78.2353 45.7553 77.9402C45.5041 77.6451 45.1337 77.394 44.644 77.1868C44.1605 76.9796 43.5672 76.7912 42.864 76.6217L40.7638 76.0943C39.1376 75.6988 37.8536 75.0803 36.9118 74.239C35.97 73.3976 35.5023 72.2644 35.5086 70.8391C35.5023 69.6713 35.8131 68.651 36.4409 67.7783C37.0751 66.9056 37.9447 66.2243 39.0497 65.7346C40.1547 65.2449 41.4105 65 42.8169 65C44.2484 65 45.4978 65.2449 46.5652 65.7346C47.6389 66.2243 48.4739 66.9056 49.0704 67.7783C49.6668 68.651 49.9745 69.6619 49.9933 70.8109H46.0849Z" fill="#D0D9E0"/>
<path d="M62.4838 89.9763V82.2348H62.3614C62.1731 82.6366 61.9062 83.0353 61.5609 83.4309C61.2218 83.8201 60.7792 84.1435 60.233 84.4009C59.693 84.6583 59.0337 84.787 58.2552 84.787C57.1564 84.787 56.1613 84.5045 55.2697 83.9394C54.3844 83.3681 53.6812 82.5299 53.1601 81.4249C52.6453 80.3135 52.3878 78.9511 52.3878 77.3375C52.3878 75.6799 52.6547 74.3018 53.1884 73.203C53.722 72.098 54.4315 71.2723 55.3168 70.7261C56.2084 70.1736 57.1847 69.8973 58.2458 69.8973C59.0557 69.8973 59.7307 70.0354 60.2706 70.3117C60.8169 70.5817 61.2564 70.9207 61.5891 71.3288C61.9282 71.7307 62.1856 72.1262 62.3614 72.5155H62.5309V70.0857H66.4865V89.9763H62.4838ZM59.5266 81.5944C60.1733 81.5944 60.7196 81.4186 61.1653 81.067C61.6174 80.7091 61.9627 80.2099 62.2013 79.5695C62.4462 78.9291 62.5686 78.1788 62.5686 77.3186C62.5686 76.4585 62.4493 75.7113 62.2107 75.0772C61.9721 74.443 61.6268 73.9533 61.1748 73.608C60.7227 73.2627 60.1733 73.09 59.5266 73.09C58.8674 73.09 58.3117 73.2689 57.8596 73.6268C57.4076 73.9847 57.0654 74.4807 56.8331 75.1148C56.6008 75.749 56.4846 76.4836 56.4846 77.3186C56.4846 78.16 56.6008 78.904 56.8331 79.5507C57.0717 80.1911 57.4139 80.6934 57.8596 81.0576C58.3117 81.4154 58.8674 81.5944 59.5266 81.5944Z" fill="#D0D9E0"/>
<path d="M78.984 78.3923V70.0857H82.9961V84.5516H79.1441V81.924H78.9935C78.667 82.7716 78.1239 83.4528 77.3642 83.9677C76.6107 84.4825 75.6909 84.74 74.6047 84.74C73.6378 84.74 72.7871 84.5202 72.0525 84.0807C71.3179 83.6412 70.7434 83.0165 70.329 82.2065C69.9209 81.3966 69.7137 80.4266 69.7074 79.2964V70.0857H73.7194V78.5806C73.7257 79.4345 73.9549 80.1095 74.4069 80.6055C74.859 81.1015 75.4649 81.3495 76.2246 81.3495C76.708 81.3495 77.1601 81.2396 77.5808 81.0199C78.0014 80.7939 78.3405 80.4611 78.5979 80.0216C78.8616 79.5821 78.9903 79.039 78.984 78.3923Z" fill="#D0D9E0"/>
<path d="M90.3303 84.8247C89.4073 84.8247 88.5848 84.6646 87.8628 84.3444C87.1407 84.0179 86.5694 83.5376 86.1487 82.9035C85.7343 82.263 85.5271 81.4657 85.5271 80.5113C85.5271 79.7077 85.6747 79.0327 85.9698 78.4865C86.2649 77.9402 86.6667 77.5007 87.1753 77.168C87.6838 76.8352 88.2615 76.584 88.9082 76.4145C89.5612 76.245 90.2455 76.1257 90.9613 76.0566C91.8026 75.9687 92.4807 75.8871 92.9956 75.8118C93.5104 75.7301 93.884 75.6109 94.1163 75.4539C94.3486 75.2969 94.4648 75.0646 94.4648 74.757V74.7005C94.4648 74.104 94.2764 73.6425 93.8997 73.316C93.5292 72.9895 93.0018 72.8263 92.3175 72.8263C91.5954 72.8263 91.0209 72.9864 90.594 73.3066C90.167 73.6205 89.8845 74.0161 89.7464 74.4933L86.0357 74.1919C86.2241 73.3129 86.5945 72.5532 87.147 71.9128C87.6995 71.2661 88.4122 70.77 89.2849 70.4247C90.1639 70.0731 91.181 69.8973 92.3363 69.8973C93.14 69.8973 93.9091 69.9915 94.6437 70.1799C95.3846 70.3682 96.0407 70.6602 96.612 71.0557C97.1897 71.4513 97.6449 71.9598 97.9776 72.5814C98.3104 73.1967 98.4768 73.9345 98.4768 74.7946V84.5516H94.6719V82.5456H94.5589C94.3266 82.9976 94.0158 83.3963 93.6266 83.7417C93.2373 84.0807 92.7695 84.3475 92.2233 84.5422C91.677 84.7305 91.046 84.8247 90.3303 84.8247ZM91.4793 82.0559C92.0695 82.0559 92.5906 81.9397 93.0426 81.7074C93.4947 81.4688 93.8494 81.1486 94.1069 80.7468C94.3643 80.3449 94.493 79.8897 94.493 79.3812V77.846C94.3674 77.9277 94.1948 78.003 93.975 78.0721C93.7615 78.1349 93.5198 78.1945 93.2498 78.251C92.9799 78.3012 92.7099 78.3483 92.4399 78.3923C92.1699 78.43 91.9251 78.4645 91.7053 78.4959C91.2344 78.5649 90.8232 78.6748 90.4716 78.8255C90.12 78.9762 89.8468 79.1802 89.6522 79.4377C89.4576 79.6888 89.3602 80.0027 89.3602 80.3795C89.3602 80.9257 89.558 81.3432 89.9536 81.632C90.3554 81.9146 90.864 82.0559 91.4793 82.0559Z" fill="#D0D9E0"/>
<path d="M101.589 84.5516V70.0857H105.479V72.6097H105.63C105.893 71.7118 106.336 71.0337 106.958 70.5754C107.579 70.1108 108.295 69.8785 109.105 69.8785C109.306 69.8785 109.522 69.891 109.755 69.9162C109.987 69.9413 110.191 69.9758 110.367 70.0198V73.5797C110.179 73.5232 109.918 73.473 109.585 73.429C109.252 73.3851 108.948 73.3631 108.672 73.3631C108.081 73.3631 107.554 73.4918 107.089 73.7492C106.631 74.0004 106.267 74.352 105.997 74.8041C105.733 75.2561 105.601 75.7772 105.601 76.3674V84.5516H101.589Z" fill="#D0D9E0"/>
<path d="M118.36 84.8341C116.872 84.8341 115.592 84.5328 114.518 83.93C113.45 83.321 112.628 82.4608 112.05 81.3495C111.473 80.2319 111.184 78.9103 111.184 77.3846C111.184 75.8965 111.473 74.5906 112.05 73.4667C112.628 72.3428 113.441 71.467 114.49 70.8391C115.544 70.2112 116.781 69.8973 118.2 69.8973C119.155 69.8973 120.043 70.0511 120.866 70.3588C121.694 70.6602 122.416 71.1154 123.032 71.7244C123.653 72.3334 124.137 73.0994 124.482 74.0224C124.827 74.939 125 76.0127 125 77.2433V78.3452H112.785V75.8589H121.223C121.223 75.2812 121.098 74.7695 120.847 74.3237C120.596 73.878 120.247 73.5295 119.801 73.2784C119.362 73.0209 118.85 72.8922 118.266 72.8922C117.657 72.8922 117.117 73.0335 116.646 73.316C116.182 73.5923 115.818 73.9659 115.554 74.4368C115.29 74.9014 115.155 75.4194 115.149 75.9907V78.3546C115.149 79.0704 115.281 79.6888 115.544 80.2099C115.814 80.7311 116.194 81.1329 116.684 81.4154C117.174 81.698 117.754 81.8392 118.426 81.8392C118.872 81.8392 119.28 81.7765 119.651 81.6509C120.021 81.5253 120.338 81.337 120.602 81.0858C120.866 80.8347 121.066 80.527 121.205 80.1629L124.915 80.4077C124.727 81.2993 124.341 82.0778 123.757 82.7434C123.179 83.4026 122.432 83.9175 121.515 84.2879C120.605 84.6521 119.553 84.8341 118.36 84.8341Z" fill="#D0D9E0"/>
<defs>
<radialGradient id="paint0_radial_187_6113" cx="0" cy="0" r="1" gradientUnits="userSpaceOnUse" gradientTransform="translate(80 86.4001) rotate(90) scale(60.8 80)">
<stop stop-opacity="0.37"/>
<stop offset="1" stop-opacity="0"/>
</radialGradient>
<linearGradient id="paint1_linear_187_6113" x1="0" y1="12.8" x2="160" y2="12.8" gradientUnits="userSpaceOnUse">
<stop stop-color="#1951A8"/>
<stop offset="0.175" stop-color="#1955B0"/>
<stop offset="0.505" stop-color="#195AB9"/>
<stop offset="1" stop-color="#195BBC"/>
</linearGradient>
<radialGradient id="paint2_radial_187_6113" cx="0" cy="0" r="1" gradientUnits="userSpaceOnUse" gradientTransform="translate(80 86.4001) rotate(90) scale(60.8 80)">
<stop stop-opacity="0.37"/>
<stop offset="1" stop-opacity="0"/>
</radialGradient>
</defs>
</svg>
