<svg width="160" height="163" viewBox="0 0 160 163" fill="none" xmlns="http://www.w3.org/2000/svg">
<path d="M0 151.8V23H160V151.8C160 157.96 156.4 163 152 163H8C3.6 163 0 157.96 0 151.8Z" fill="#F6F6F6"/>
<path d="M14 37C14 34.2386 16.2386 32 19 32H140C142.761 32 145 34.2386 145 37V81C145 83.7614 142.761 86 140 86H19C16.2386 86 14 83.7614 14 81V37Z" fill="#6196BE" fill-opacity="0.1"/>
<path d="M160 6.57143V23H0V6.57143C0 2.95714 3.6 0 8 0H152C156.4 0 160 2.95714 160 6.57143Z" fill="url(#paint0_linear_187_6189)"/>
<path d="M12.5 16.5C14.9853 16.5 17 14.4853 17 12C17 9.51472 14.9853 7.5 12.5 7.5C10.0147 7.5 8 9.51472 8 12C8 14.4853 10.0147 16.5 12.5 16.5Z" fill="url(#paint1_linear_187_6189)"/>
<path d="M29.5 16.5C31.9853 16.5 34 14.4853 34 12C34 9.51472 31.9853 7.5 29.5 7.5C27.0147 7.5 25 9.51472 25 12C25 14.4853 27.0147 16.5 29.5 16.5Z" fill="url(#paint2_linear_187_6189)"/>
<path d="M24.2589 146.973L16.9165 147.035C15.9038 147.043 15.0768 146.23 15.0683 145.217L15.0069 137.88C14.9983 136.862 15.8116 136.035 16.8243 136.027L24.1611 135.965C25.1794 135.957 26.0064 136.77 26.0148 137.783L26.0763 145.119C26.0848 146.138 25.2716 146.965 24.2589 146.973Z" fill="#C1C8CB"/>
<path opacity="0.05" d="M108.025 65.6504C108.024 66.6093 108.38 67.5163 109.025 68.2085L118.568 78.4011C119.293 79.1736 120.266 79.601 121.31 79.6029C122.354 79.6048 123.329 79.1834 124.054 78.4161L133.636 68.2533C134.286 67.5634 134.643 66.6577 134.645 65.6988C134.648 63.861 133.377 62.339 131.625 62.0829L131.181 62.0445L111.497 62.0063L111.099 62.0406C109.298 62.2952 108.029 63.8102 108.025 65.6504Z" fill="black"/>
<path opacity="0.07" d="M109.278 65.6521C109.276 66.2906 109.513 66.8969 109.941 67.3534L119.484 77.5459C119.969 78.0651 120.619 78.3492 121.313 78.3504C122.006 78.3517 122.658 78.07 123.144 77.5551L132.725 67.3948C133.153 66.9399 133.392 66.3369 133.394 65.6959C133.396 64.4866 132.576 63.4862 131.445 63.3214L131.087 63.2932L111.495 63.2576L111.227 63.2846C110.103 63.4453 109.28 64.4403 109.278 65.6521Z" fill="black"/>
<path d="M131.263 64.558C132.131 64.6848 132.437 65.8771 131.815 66.5345L122.235 76.6923C121.981 76.9622 121.648 77.0968 121.315 77.0962C120.982 77.0956 120.649 76.9598 120.397 76.689L110.854 66.4964C110.234 65.8368 110.544 64.6456 111.413 64.522C111.471 64.5146 111.531 64.5097 111.591 64.5098L131.087 64.5452C131.147 64.5453 131.205 64.5504 131.263 64.558Z" fill="url(#paint3_linear_187_6189)"/>
<rect x="40" y="136" width="102" height="11" rx="2" fill="#C1C8CB"/>
<path d="M24.2589 126.973L16.9165 127.035C15.9038 127.043 15.0768 126.23 15.0683 125.217L15.0069 117.88C14.9983 116.862 15.8116 116.035 16.8243 116.027L24.1611 115.965C25.1794 115.957 26.0064 116.77 26.0148 117.783L26.0763 125.119C26.0848 126.138 25.2716 126.965 24.2589 126.973Z" fill="#C1C8CB"/>
<rect x="40" y="116" width="102" height="11" rx="2" fill="#C1C8CB"/>
<path d="M24.2589 106.973L16.9165 107.035C15.9038 107.043 15.0768 106.23 15.0683 105.217L15.0069 97.8803C14.9983 96.8621 15.8116 96.0351 16.8243 96.0266L24.1611 95.9652C25.1794 95.9566 26.0064 96.7699 26.0148 97.7826L26.0763 105.119C26.0848 106.138 25.2716 106.965 24.2589 106.973Z" fill="#C1C8CB"/>
<rect x="40" y="96" width="102" height="11" rx="2" fill="#C1C8CB"/>
<defs>
<linearGradient id="paint0_linear_187_6189" x1="160" y1="11.5" x2="0" y2="11.5" gradientUnits="userSpaceOnUse">
<stop stop-color="#1951A8"/>
<stop offset="0.175" stop-color="#1955B0"/>
<stop offset="0.505" stop-color="#195AB9"/>
<stop offset="1" stop-color="#195BBC"/>
</linearGradient>
<linearGradient id="paint1_linear_187_6189" x1="10.253" y1="8.748" x2="14.096" y2="14.307" gradientUnits="userSpaceOnUse">
<stop stop-color="#7ACDE5"/>
<stop offset="0.942708" stop-color="#49AFCE"/>
</linearGradient>
<linearGradient id="paint2_linear_187_6189" x1="27.253" y1="8.748" x2="31.096" y2="14.307" gradientUnits="userSpaceOnUse">
<stop stop-color="#7ACDE5"/>
<stop offset="0.942708" stop-color="#49AFCE"/>
</linearGradient>
<linearGradient id="paint3_linear_187_6189" x1="132.134" y1="70.8315" x2="110.519" y2="70.7922" gradientUnits="userSpaceOnUse">
<stop stop-color="#45B0D0"/>
<stop offset="1" stop-color="#45B0D0"/>
</linearGradient>
</defs>
</svg>
