<svg width="160" height="160" viewBox="0 0 160 160" fill="none" xmlns="http://www.w3.org/2000/svg">
<path d="M0 151.111C0 156.022 3.97778 160 8.88889 160H115.556C120.467 160 124.444 156.022 124.444 151.111V8.88889C124.444 3.97778 120.467 0 115.556 0H8.88889C3.97778 0 0 3.97778 0 8.88889V151.111Z" fill="#F6F6F6"/>
<path d="M102.222 160H151.746C156.306 160 160 156.022 160 151.111V8.88889C160 3.97778 156.306 0 151.746 0H102.222V160Z" fill="url(#paint0_linear_187_6082)"/>
<path d="M120.556 27.7778C123.317 27.7778 125.556 25.5393 125.556 22.7778C125.556 20.0164 123.317 17.7778 120.556 17.7778C117.794 17.7778 115.556 20.0164 115.556 22.7778C115.556 25.5393 117.794 27.7778 120.556 27.7778Z" fill="url(#paint1_linear_187_6082)"/>
<path d="M139.444 27.7778C142.206 27.7778 144.444 25.5393 144.444 22.7778C144.444 20.0164 142.206 17.7778 139.444 17.7778C136.683 17.7778 134.444 20.0164 134.444 22.7778C134.444 25.5393 136.683 27.7778 139.444 27.7778Z" fill="url(#paint2_linear_187_6082)"/>
<rect x="111.111" y="35.5557" width="40" height="8.88889" rx="0.5" fill="url(#paint3_linear_187_6082)"/>
<defs>
<linearGradient id="paint0_linear_187_6082" x1="160" y1="80" x2="102.222" y2="80" gradientUnits="userSpaceOnUse">
<stop stop-color="#1951A8"/>
<stop offset="0.175" stop-color="#1955B0"/>
<stop offset="0.505" stop-color="#195AB9"/>
<stop offset="1" stop-color="#195BBC"/>
</linearGradient>
<linearGradient id="paint1_linear_187_6082" x1="118.059" y1="19.1645" x2="122.329" y2="25.3412" gradientUnits="userSpaceOnUse">
<stop stop-color="#7ACDE5"/>
<stop offset="0.942708" stop-color="#49AFCE"/>
</linearGradient>
<linearGradient id="paint2_linear_187_6082" x1="136.948" y1="19.1645" x2="141.218" y2="25.3412" gradientUnits="userSpaceOnUse">
<stop stop-color="#7ACDE5"/>
<stop offset="0.942708" stop-color="#49AFCE"/>
</linearGradient>
<linearGradient id="paint3_linear_187_6082" x1="106.667" y1="37.7779" x2="191.111" y2="75.5557" gradientUnits="userSpaceOnUse">
<stop stop-color="white"/>
<stop offset="1" stop-color="#E2E4E6"/>
</linearGradient>
</defs>
</svg>
