<svg width="160" height="160" viewBox="0 0 160 160" fill="none" xmlns="http://www.w3.org/2000/svg">
<path d="M35.5557 155.556C35.5557 158.009 37.5468 160 40.0001 160H151.111C156.022 160 160 156.022 160 151.111V8.88889C160 3.97778 156.022 0 151.111 0H40.0001C37.5468 0 35.5557 1.99111 35.5557 4.44444V155.556Z" fill="#F6F6F6"/>
<path d="M57.7778 0H8.25397C3.69365 0 0 3.97778 0 8.88889V151.111C0 156.022 3.69365 160 8.25397 160H57.7778V0Z" fill="url(#paint0_linear_187_6083)"/>
<path d="M18.3333 27.7778C21.0947 27.7778 23.3333 25.5393 23.3333 22.7778C23.3333 20.0164 21.0947 17.7778 18.3333 17.7778C15.5718 17.7778 13.3333 20.0164 13.3333 22.7778C13.3333 25.5393 15.5718 27.7778 18.3333 27.7778Z" fill="url(#paint1_linear_187_6083)"/>
<path d="M37.2222 27.7778C39.9836 27.7778 42.2222 25.5393 42.2222 22.7778C42.2222 20.0164 39.9836 17.7778 37.2222 17.7778C34.4607 17.7778 32.2222 20.0164 32.2222 22.7778C32.2222 25.5393 34.4607 27.7778 37.2222 27.7778Z" fill="url(#paint2_linear_187_6083)"/>
<rect x="8.88892" y="35.5557" width="40" height="8.88889" rx="0.5" fill="url(#paint3_linear_187_6083)"/>
<defs>
<linearGradient id="paint0_linear_187_6083" x1="80.3317" y1="156.422" x2="-17.2236" y2="26.4739" gradientUnits="userSpaceOnUse">
<stop stop-color="#1951A8"/>
<stop offset="0.175" stop-color="#1955B0"/>
<stop offset="0.505" stop-color="#195AB9"/>
<stop offset="1" stop-color="#195BBC"/>
</linearGradient>
<linearGradient id="paint1_linear_187_6083" x1="15.8366" y1="19.1645" x2="20.1066" y2="25.3412" gradientUnits="userSpaceOnUse">
<stop stop-color="#7ACDE5"/>
<stop offset="0.942708" stop-color="#49AFCE"/>
</linearGradient>
<linearGradient id="paint2_linear_187_6083" x1="34.7255" y1="19.1645" x2="38.9955" y2="25.3412" gradientUnits="userSpaceOnUse">
<stop stop-color="#7ACDE5"/>
<stop offset="0.942708" stop-color="#49AFCE"/>
</linearGradient>
<linearGradient id="paint3_linear_187_6083" x1="4.44447" y1="37.7779" x2="88.8889" y2="75.5557" gradientUnits="userSpaceOnUse">
<stop stop-color="white"/>
<stop offset="1" stop-color="#E2E4E6"/>
</linearGradient>
</defs>
</svg>
