<svg width="160" height="148" viewBox="0 0 160 148" fill="none" xmlns="http://www.w3.org/2000/svg">
<path d="M0 25.6001H160V145.7C160 146.529 159.328 147.2 158.5 147.2H1.5C0.671569 147.2 0 146.529 0 145.7V25.6001Z" fill="white" fill-opacity="0.3"/>
<path d="M0 25.6001H160V145.7C160 146.529 159.328 147.2 158.5 147.2H1.5C0.671569 147.2 0 146.529 0 145.7V25.6001Z" fill="url(#paint0_radial_187_6111)" fill-opacity="0.1"/>
<path d="M0 25.6001H160V145.7C160 146.529 159.328 147.2 158.5 147.2H1.5C0.671569 147.2 0 146.529 0 145.7V25.6001Z" fill="#F2F2F2"/>
<path d="M0 2.5C0 1.11929 1.11929 0 2.5 0H157.5C158.881 0 160 1.11929 160 2.5V25.6H0V2.5Z" fill="url(#paint1_linear_187_6111)"/>
<path d="M0 25.6001H160V144.7C160 146.081 158.881 147.2 157.5 147.2H2.5C1.11929 147.2 0 146.081 0 144.7V25.6001Z" fill="white" fill-opacity="0.3"/>
<path d="M0 25.6001H160V144.7C160 146.081 158.881 147.2 157.5 147.2H2.5C1.11929 147.2 0 146.081 0 144.7V25.6001Z" fill="url(#paint2_radial_187_6111)" fill-opacity="0.1"/>
<path d="M0 25.6001H160V144.7C160 146.081 158.881 147.2 157.5 147.2H2.5C1.11929 147.2 0 146.081 0 144.7V25.6001Z" fill="white"/>
<path d="M31.4573 73.0061C31.3794 72.2208 31.0452 71.6108 30.4547 71.176C29.8641 70.7412 29.0627 70.5238 28.0503 70.5238C27.3624 70.5238 26.7816 70.6212 26.3078 70.8159C25.8341 71.0041 25.4707 71.2669 25.2176 71.6043C24.971 71.9418 24.8477 72.3247 24.8477 72.753C24.8347 73.1099 24.9093 73.4214 25.0716 73.6875C25.2403 73.9536 25.4707 74.1839 25.7627 74.3786C26.0548 74.5668 26.3922 74.7323 26.7751 74.8751C27.158 75.0114 27.5668 75.1282 28.0016 75.2255L29.7927 75.6538C30.6623 75.8485 31.4606 76.1081 32.1874 76.4326C32.9142 76.757 33.5437 77.1562 34.0758 77.6299C34.608 78.1036 35.0201 78.6617 35.3121 79.3042C35.6106 79.9467 35.7631 80.6832 35.7696 81.5139C35.7631 82.7339 35.4516 83.7917 34.8351 84.6873C34.2251 85.5764 33.3425 86.2675 32.1874 86.7607C31.0387 87.2474 29.6532 87.4908 28.0308 87.4908C26.4214 87.4908 25.0197 87.2442 23.8256 86.751C22.638 86.2578 21.71 85.5277 21.0416 84.5607C20.3796 83.5873 20.0324 82.3835 20 80.9493H24.0787C24.1241 81.6177 24.3156 82.1758 24.653 82.6236C24.997 83.0649 25.4545 83.3991 26.0256 83.6262C26.6031 83.8469 27.2553 83.9572 27.9822 83.9572C28.696 83.9572 29.3158 83.8534 29.8414 83.6457C30.3736 83.438 30.7856 83.1493 31.0777 82.7794C31.3697 82.4095 31.5157 81.9844 31.5157 81.5042C31.5157 81.0564 31.3827 80.68 31.1166 80.375C30.857 80.07 30.4741 79.8104 29.968 79.5962C29.4683 79.3821 28.855 79.1874 28.1282 79.0122L25.9574 78.467C24.2766 78.0582 22.9495 77.419 21.9761 76.5494C21.0026 75.6798 20.5192 74.5084 20.5257 73.0353C20.5192 71.8282 20.8404 70.7737 21.4894 69.8716C22.1448 68.9696 23.0436 68.2655 24.1858 67.7593C25.3279 67.2531 26.6258 67 28.0795 67C29.5591 67 30.8505 67.2531 31.9538 67.7593C33.0635 68.2655 33.9266 68.9696 34.5431 69.8716C35.1596 70.7737 35.4776 71.8185 35.4971 73.0061H31.4573Z" fill="#D0D9E0"/>
<path d="M46.4798 72.2565V75.3715H37.4756V72.2565H46.4798ZM39.5198 68.6743H43.6666V82.6139C43.6666 82.9968 43.725 83.2953 43.8418 83.5094C43.9586 83.7171 44.1209 83.8631 44.3285 83.9475C44.5427 84.0318 44.7893 84.074 45.0683 84.074C45.263 84.074 45.4577 84.0578 45.6524 84.0254C45.8471 83.9864 45.9963 83.9572 46.1002 83.9377L46.7524 87.0235C46.5447 87.0884 46.2527 87.1631 45.8763 87.2474C45.4999 87.3383 45.0424 87.3934 44.5038 87.4129C43.5044 87.4518 42.6283 87.3188 41.8755 87.0138C41.1292 86.7088 40.5484 86.235 40.133 85.5926C39.7177 84.9501 39.5133 84.1389 39.5198 83.159V68.6743Z" fill="#D0D9E0"/>
<path d="M53.4447 87.4908C52.4908 87.4908 51.6406 87.3253 50.8943 86.9943C50.148 86.6569 49.5575 86.1604 49.1227 85.505C48.6944 84.843 48.4802 84.0189 48.4802 83.0324C48.4802 82.2018 48.6327 81.5042 48.9377 80.9396C49.2428 80.375 49.6581 79.9207 50.1837 79.5768C50.7094 79.2328 51.3064 78.9732 51.9749 78.798C52.6498 78.6228 53.3571 78.4995 54.0969 78.4281C54.9665 78.3373 55.6674 78.2529 56.1996 78.175C56.7317 78.0907 57.1178 77.9674 57.3579 77.8051C57.5981 77.6429 57.7181 77.4028 57.7181 77.0848V77.0264C57.7181 76.4099 57.5234 75.9329 57.134 75.5954C56.7512 75.258 56.206 75.0892 55.4987 75.0892C54.7524 75.0892 54.1586 75.2547 53.7173 75.5857C53.276 75.9102 52.984 76.319 52.8412 76.8122L49.0059 76.5007C49.2006 75.5922 49.5835 74.8069 50.1545 74.145C50.7256 73.4766 51.4622 72.9639 52.3642 72.607C53.2728 72.2436 54.3241 72.0619 55.5182 72.0619C56.3488 72.0619 57.1438 72.1592 57.9031 72.3539C58.6688 72.5486 59.347 72.8503 59.9375 73.2592C60.5346 73.668 61.0051 74.1937 61.349 74.8361C61.693 75.4721 61.8649 76.2346 61.8649 77.1237V87.2085H57.9323V85.1351H57.8155C57.5753 85.6023 57.2541 86.0144 56.8518 86.3713C56.4494 86.7218 55.9659 86.9976 55.4013 87.1987C54.8367 87.3934 54.1845 87.4908 53.4447 87.4908ZM54.6323 84.6289C55.2423 84.6289 55.781 84.5088 56.2482 84.2687C56.7155 84.0221 57.0821 83.6911 57.3482 83.2758C57.6143 82.8605 57.7473 82.39 57.7473 81.8643V80.2776C57.6175 80.362 57.4391 80.4399 57.2119 80.5113C56.9913 80.5762 56.7414 80.6378 56.4624 80.6962C56.1833 80.7481 55.9043 80.7968 55.6252 80.8422C55.3462 80.8812 55.0931 80.9169 54.866 80.9493C54.3792 81.0207 53.9542 81.1343 53.5908 81.29C53.2273 81.4458 52.945 81.6567 52.7439 81.9227C52.5427 82.1823 52.4421 82.5068 52.4421 82.8962C52.4421 83.4608 52.6465 83.8923 53.0554 84.1908C53.4707 84.4829 53.9964 84.6289 54.6323 84.6289Z" fill="#D0D9E0"/>
<path d="M69.229 78.5644V87.2085H65.0821V72.2565H69.0343V74.8945H69.2095C69.5405 74.0249 70.0953 73.3371 70.8741 72.8309C71.6528 72.3182 72.597 72.0619 73.7068 72.0619C74.7451 72.0619 75.6504 72.289 76.4226 72.7433C77.1949 73.1975 77.7952 73.8465 78.2235 74.6901C78.6518 75.5273 78.866 76.5267 78.866 77.6883V87.2085H74.7191V78.4281C74.7256 77.5131 74.492 76.7992 74.0183 76.2866C73.5445 75.7674 72.8923 75.5078 72.0617 75.5078C71.5035 75.5078 71.0103 75.6279 70.582 75.868C70.1602 76.1081 69.8292 76.4585 69.5891 76.9193C69.3555 77.3736 69.2354 77.9219 69.229 78.5644Z" fill="#D0D9E0"/>
<path d="M87.6439 87.4518C86.5082 87.4518 85.4796 87.1598 84.5581 86.5757C83.6431 85.9852 82.9162 85.1188 82.3776 83.9767C81.8455 82.828 81.5794 81.4198 81.5794 79.752C81.5794 78.0387 81.8552 76.6143 82.4068 75.4786C82.9584 74.3364 83.6917 73.4831 84.6068 72.9185C85.5283 72.3474 86.5374 72.0619 87.6342 72.0619C88.4713 72.0619 89.1689 72.2046 89.727 72.4902C90.2916 72.7692 90.7459 73.1197 91.0898 73.5415C91.4403 73.9568 91.7063 74.3656 91.8881 74.768H92.0146V67.2726H96.1517V87.2085H92.0633V84.8138H91.8881C91.6934 85.2292 91.4176 85.6413 91.0606 86.0501C90.7102 86.4524 90.2527 86.7867 89.6881 87.0527C89.13 87.3188 88.4486 87.4518 87.6439 87.4518ZM88.958 84.1519C89.6264 84.1519 90.191 83.9702 90.6518 83.6068C91.119 83.2369 91.476 82.721 91.7226 82.059C91.9757 81.3971 92.1022 80.6216 92.1022 79.7325C92.1022 78.8434 91.9789 78.0712 91.7323 77.4157C91.4857 76.7603 91.1288 76.2541 90.6615 75.8972C90.1943 75.5403 89.6264 75.3618 88.958 75.3618C88.2766 75.3618 87.7023 75.5467 87.235 75.9166C86.7678 76.2866 86.4141 76.7992 86.174 77.4547C85.9339 78.1101 85.8138 78.8694 85.8138 79.7325C85.8138 80.6021 85.9339 81.3711 86.174 82.0395C86.4206 82.7015 86.7743 83.2206 87.235 83.597C87.7023 83.9669 88.2766 84.1519 88.958 84.1519Z" fill="#D0D9E0"/>
<path d="M103.825 87.4908C102.871 87.4908 102.021 87.3253 101.274 86.9943C100.528 86.6569 99.9375 86.1604 99.5027 85.505C99.0744 84.843 98.8603 84.0189 98.8603 83.0324C98.8603 82.2018 99.0128 81.5042 99.3178 80.9396C99.6228 80.375 100.038 79.9207 100.564 79.5768C101.089 79.2328 101.686 78.9732 102.355 78.798C103.03 78.6228 103.737 78.4995 104.477 78.4281C105.347 78.3373 106.047 78.2529 106.58 78.175C107.112 78.0907 107.498 77.9674 107.738 77.8051C107.978 77.6429 108.098 77.4028 108.098 77.0848V77.0264C108.098 76.4099 107.903 75.9329 107.514 75.5954C107.131 75.258 106.586 75.0892 105.879 75.0892C105.132 75.0892 104.539 75.2547 104.097 75.5857C103.656 75.9102 103.364 76.319 103.221 76.8122L99.3859 76.5007C99.5806 75.5922 99.9635 74.8069 100.535 74.145C101.106 73.4766 101.842 72.9639 102.744 72.607C103.653 72.2436 104.704 72.0619 105.898 72.0619C106.729 72.0619 107.524 72.1592 108.283 72.3539C109.049 72.5486 109.727 72.8503 110.318 73.2592C110.915 73.668 111.385 74.1937 111.729 74.8361C112.073 75.4721 112.245 76.2346 112.245 77.1237V87.2085H108.312V85.1351H108.195C107.955 85.6023 107.634 86.0144 107.232 86.3713C106.829 86.7218 106.346 86.9976 105.781 87.1987C105.217 87.3934 104.565 87.4908 103.825 87.4908ZM105.012 84.6289C105.622 84.6289 106.161 84.5088 106.628 84.2687C107.096 84.0221 107.462 83.6911 107.728 83.2758C107.994 82.8605 108.127 82.39 108.127 81.8643V80.2776C107.998 80.362 107.819 80.4399 107.592 80.5113C107.371 80.5762 107.121 80.6378 106.842 80.6962C106.563 80.7481 106.284 80.7968 106.005 80.8422C105.726 80.8812 105.473 80.9169 105.246 80.9493C104.759 81.0207 104.334 81.1343 103.971 81.29C103.607 81.4458 103.325 81.6567 103.124 81.9227C102.923 82.1823 102.822 82.5068 102.822 82.8962C102.822 83.4608 103.027 83.8923 103.435 84.1908C103.851 84.4829 104.376 84.6289 105.012 84.6289Z" fill="#D0D9E0"/>
<path d="M115.462 87.2085V72.2565H119.482V74.8653H119.638C119.911 73.9373 120.368 73.2365 121.011 72.7627C121.653 72.2825 122.393 72.0424 123.23 72.0424C123.438 72.0424 123.662 72.0554 123.902 72.0813C124.142 72.1073 124.353 72.143 124.535 72.1884V75.868C124.34 75.8096 124.071 75.7577 123.727 75.7122C123.383 75.6668 123.068 75.6441 122.782 75.6441C122.172 75.6441 121.627 75.7771 121.147 76.0432C120.673 76.3028 120.297 76.6662 120.018 77.1334C119.745 77.6007 119.609 78.1393 119.609 78.7493V87.2085H115.462Z" fill="#D0D9E0"/>
<path d="M131.492 87.4518C130.357 87.4518 129.328 87.1598 128.406 86.5757C127.491 85.9852 126.765 85.1188 126.226 83.9767C125.694 82.828 125.428 81.4198 125.428 79.752C125.428 78.0387 125.704 76.6143 126.255 75.4786C126.807 74.3364 127.54 73.4831 128.455 72.9185C129.377 72.3474 130.386 72.0619 131.482 72.0619C132.32 72.0619 133.017 72.2046 133.575 72.4902C134.14 72.7692 134.594 73.1197 134.938 73.5415C135.289 73.9568 135.555 74.3656 135.736 74.768H135.863V67.2726H140V87.2085H135.912V84.8138H135.736C135.542 85.2292 135.266 85.6413 134.909 86.0501C134.559 86.4524 134.101 86.7867 133.536 87.0527C132.978 87.3188 132.297 87.4518 131.492 87.4518ZM132.806 84.1519C133.475 84.1519 134.039 83.9702 134.5 83.6068C134.967 83.2369 135.324 82.721 135.571 82.059C135.824 81.3971 135.951 80.6216 135.951 79.7325C135.951 78.8434 135.827 78.0712 135.581 77.4157C135.334 76.7603 134.977 76.2541 134.51 75.8972C134.043 75.5403 133.475 75.3618 132.806 75.3618C132.125 75.3618 131.551 75.5467 131.083 75.9166C130.616 76.2866 130.262 76.7992 130.022 77.4547C129.782 78.1101 129.662 78.8694 129.662 79.7325C129.662 80.6021 129.782 81.3711 130.022 82.0395C130.269 82.7015 130.623 83.2206 131.083 83.597C131.551 83.9669 132.125 84.1519 132.806 84.1519Z" fill="#D0D9E0"/>
<defs>
<radialGradient id="paint0_radial_187_6111" cx="0" cy="0" r="1" gradientUnits="userSpaceOnUse" gradientTransform="translate(80 86.4001) rotate(90) scale(60.8 80)">
<stop stop-opacity="0.37"/>
<stop offset="1" stop-opacity="0"/>
</radialGradient>
<linearGradient id="paint1_linear_187_6111" x1="0" y1="12.8" x2="160" y2="12.8" gradientUnits="userSpaceOnUse">
<stop stop-color="#1951A8"/>
<stop offset="0.175" stop-color="#1955B0"/>
<stop offset="0.505" stop-color="#195AB9"/>
<stop offset="1" stop-color="#195BBC"/>
</linearGradient>
<radialGradient id="paint2_radial_187_6111" cx="0" cy="0" r="1" gradientUnits="userSpaceOnUse" gradientTransform="translate(80 86.4001) rotate(90) scale(60.8 80)">
<stop stop-opacity="0.37"/>
<stop offset="1" stop-opacity="0"/>
</radialGradient>
</defs>
</svg>
