<svg width="21" height="18" viewBox="0 0 21 18" fill="none" xmlns="http://www.w3.org/2000/svg">
<path d="M18.1667 17.7917H2.16667C1.06167 17.7917 0.166666 16.8967 0.166666 15.7917V2.79175C0.166666 1.68675 1.06167 0.791748 2.16667 0.791748H18.1667C19.2717 0.791748 20.1667 1.68675 20.1667 2.79175V15.7917C20.1667 16.8967 19.2717 17.7917 18.1667 17.7917Z" fill="url(#paint0_linear_316_6059)"/>
<path d="M3.16667 6.29175V5.29175C3.16667 5.01575 3.39067 4.79175 3.66667 4.79175H16.6667C16.9427 4.79175 17.1667 5.01575 17.1667 5.29175V6.29175C17.1667 6.56775 16.9427 6.79175 16.6667 6.79175H3.66667C3.39067 6.79175 3.16667 6.56775 3.16667 6.29175ZM3.66667 13.7917H16.6667C16.9427 13.7917 17.1667 13.5677 17.1667 13.2917V12.2917C17.1667 12.0157 16.9427 11.7917 16.6667 11.7917H3.66667C3.39067 11.7917 3.16667 12.0157 3.16667 12.2917V13.2917C3.16667 13.5677 3.39067 13.7917 3.66667 13.7917Z" fill="url(#paint1_linear_316_6059)"/>
<path d="M7.16667 7.79175C8.27124 7.79175 9.16667 6.89632 9.16667 5.79175C9.16667 4.68718 8.27124 3.79175 7.16667 3.79175C6.0621 3.79175 5.16667 4.68718 5.16667 5.79175C5.16667 6.89632 6.0621 7.79175 7.16667 7.79175Z" fill="url(#paint2_linear_316_6059)"/>
<path d="M13.1667 14.7917C14.2712 14.7917 15.1667 13.8963 15.1667 12.7917C15.1667 11.6872 14.2712 10.7917 13.1667 10.7917C12.0621 10.7917 11.1667 11.6872 11.1667 12.7917C11.1667 13.8963 12.0621 14.7917 13.1667 14.7917Z" fill="url(#paint3_linear_316_6059)"/>
<defs>
<linearGradient id="paint0_linear_316_6059" x1="6.11967" y1="-13.6573" x2="12.4377" y2="22.1717" gradientUnits="userSpaceOnUse">
<stop stop-color="#F9F9F9"/>
<stop offset="0.966" stop-color="#C4C9CD"/>
<stop offset="1" stop-color="#C2C8CC"/>
</linearGradient>
<linearGradient id="paint1_linear_316_6059" x1="8.11867" y1="-2.32525" x2="11.3567" y2="16.0417" gradientUnits="userSpaceOnUse">
<stop stop-color="#28AFEA"/>
<stop offset="1" stop-color="#0B88DA"/>
</linearGradient>
<linearGradient id="paint2_linear_316_6059" x1="5.16667" y1="5.79175" x2="9.16667" y2="5.79175" gradientUnits="userSpaceOnUse">
<stop stop-color="#1D59B3"/>
<stop offset="1" stop-color="#195BBC"/>
</linearGradient>
<linearGradient id="paint3_linear_316_6059" x1="11.1667" y1="12.7917" x2="15.1667" y2="12.7917" gradientUnits="userSpaceOnUse">
<stop stop-color="#1D59B3"/>
<stop offset="1" stop-color="#195BBC"/>
</linearGradient>
</defs>
</svg>
