 <svg width="16" height="20" viewBox="0 0 16 20" fill="none" xmlns="http://www.w3.org/2000/svg">
                                <rect x="1.5" y="3.5" width="13" height="13" stroke="#AAAAAD"/>
                                <path d="M2 4H9V7C9 9.20914 7.20914 11 5 11H2V4Z" fill="#8C8C92"/>
                                <path d="M6 11C7.65685 11 9 9.65685 9 8C9 6.34315 7.65685 5 6 5C4.34315 5 3 6.34315 3 8C3 9.65685 4.34315 11 6 11Z" fill="#74747B"/>
                                <path d="M6 10C7.10457 10 8 9.10457 8 8C8 6.89543 7.10457 6 6 6C4.89543 6 4 6.89543 4 8C4 9.10457 4.89543 10 6 10Z" fill="white"/>
                                <rect x="1" y="3" width="8" height="1" fill="white"/>
                                <rect x="1" y="11" width="8" height="1" transform="rotate(-90 1 11)" fill="white"/>
                            </svg>