<svg width="24" height="24" viewBox="0 0 24 24" fill="none" xmlns="http://www.w3.org/2000/svg">
<path d="M11.716 17.2831C14.8017 17.2831 17.3033 14.7816 17.3033 11.6958C17.3033 8.61004 14.8017 6.10854 11.716 6.10854C8.63025 6.10854 6.12874 8.61004 6.12874 11.6958C6.12874 14.7816 8.63025 17.2831 11.716 17.2831Z" fill="url(#paint0_linear_40_141)"/>
<path d="M11.716 15.0968C13.5943 15.0968 15.117 13.5741 15.117 11.6958C15.117 9.81752 13.5943 8.29486 11.716 8.29486C9.83773 8.29486 8.31506 9.81752 8.31506 11.6958C8.31506 13.5741 9.83773 15.0968 11.716 15.0968Z" fill="url(#paint1_linear_40_141)"/>
<path d="M21.1449 9.38469C19.9842 9.3706 18.8604 8.76572 18.2381 7.68762C17.639 6.64984 17.6512 5.4289 18.1594 4.43583C17.1269 3.51903 15.904 2.81358 14.5495 2.40109C13.9402 3.3174 12.8991 3.92228 11.7165 3.92228C10.5339 3.92228 9.49277 3.31789 8.88352 2.40109C7.52897 2.81358 6.30609 3.51903 5.27365 4.43583C5.78185 5.4289 5.794 6.64984 5.19495 7.68762C4.57257 8.76572 3.4488 9.3706 2.28811 9.38469C2.10689 10.1266 2 10.8981 2 11.6958C2 12.3197 2.06462 12.9275 2.17685 13.5187C3.37641 13.494 4.55314 14.1057 5.19543 15.2182C5.86007 16.3697 5.77214 17.7466 5.08855 18.7868C6.10009 19.7328 7.31034 20.4659 8.65468 20.9124C9.20369 19.7721 10.3668 18.9831 11.717 18.9831C13.0672 18.9831 14.2303 19.7721 14.7793 20.9124C16.1236 20.4659 17.3339 19.7328 18.3454 18.7868C17.6618 17.7466 17.5739 16.3697 18.2386 15.2182C18.8808 14.1057 20.0571 13.494 21.2571 13.5187C21.3694 12.9275 21.434 12.3197 21.434 11.6958C21.433 10.8981 21.3261 10.1266 21.1449 9.38469ZM11.716 16.7973C8.89858 16.7973 6.6146 14.5133 6.6146 11.6958C6.6146 8.87844 8.89858 6.59446 11.716 6.59446C14.5335 6.59446 16.8174 8.87844 16.8174 11.6958C16.8174 14.5133 14.5335 16.7973 11.716 16.7973Z" fill="url(#paint2_linear_40_141)"/>
<path d="M11.3113 20.6272V13.8253H22V20.6272C22 21.1616 21.5627 21.5989 21.0283 21.5989H12.283C11.7486 21.5989 11.3113 21.1616 11.3113 20.6272Z" fill="url(#paint3_linear_40_141)"/>
<path d="M22 12.8536V13.8253H11.3113V12.8536C11.3113 12.3192 11.7486 11.8819 12.283 11.8819H21.0283C21.5627 11.8819 22 12.3192 22 12.8536Z" fill="url(#paint4_linear_40_141)"/>
<path d="M13.8115 20.3134L12.8398 19.3417C12.7451 19.2469 12.7451 19.0929 12.8398 18.9982L13.1833 18.6547C13.278 18.5599 13.432 18.5599 13.5268 18.6547L13.983 19.1109L15.4109 17.683C15.5057 17.5882 15.6597 17.5882 15.7544 17.683L16.0979 18.0265C16.1926 18.1212 16.1926 18.2752 16.0979 18.37L14.1545 20.3134C14.0602 20.4081 13.9067 20.4081 13.8115 20.3134Z" fill="#195BBC"/>
<path d="M13.8115 17.3983L12.8398 16.4266C12.7451 16.3318 12.7451 16.1778 12.8398 16.0831L13.1833 15.7396C13.278 15.6448 13.432 15.6448 13.5268 15.7396L13.983 16.1958L15.4109 14.7679C15.5057 14.6731 15.6597 14.6731 15.7544 14.7679L16.0979 15.1114C16.1926 15.2061 16.1926 15.3601 16.0979 15.4549L14.1545 17.3983C14.0602 17.493 13.9067 17.493 13.8115 17.3983Z" fill="#195BBC"/>
<defs>
<linearGradient id="paint0_linear_40_141" x1="15.6086" y1="15.5885" x2="7.7714" y2="7.7512" gradientUnits="userSpaceOnUse">
<stop stop-color="white"/>
<stop offset="0.242" stop-color="#F2F2F2"/>
<stop offset="1" stop-color="#CCCCCC"/>
</linearGradient>
<linearGradient id="paint1_linear_40_141" x1="8.5337" y1="8.51349" x2="14.1161" y2="14.0959" gradientUnits="userSpaceOnUse">
<stop stop-color="#0D61A9"/>
<stop offset="0.363" stop-color="#0E5FA4"/>
<stop offset="0.78" stop-color="#135796"/>
<stop offset="1" stop-color="#16528C"/>
</linearGradient>
<linearGradient id="paint2_linear_40_141" x1="2.64375" y1="2.63187" x2="18.5578" y2="18.5463" gradientUnits="userSpaceOnUse">
<stop stop-color="#889097"/>
<stop offset="0.331" stop-color="#848C94"/>
<stop offset="0.669" stop-color="#78828B"/>
<stop offset="1" stop-color="#64717C"/>
</linearGradient>
<linearGradient id="paint3_linear_40_141" x1="13.6847" y1="13.0791" x2="18.8464" y2="20.5461" gradientUnits="userSpaceOnUse">
<stop stop-color="#7DD8F3"/>
<stop offset="1" stop-color="#45B0D0"/>
</linearGradient>
<linearGradient id="paint4_linear_40_141" x1="11.5372" y1="11.9018" x2="21.7168" y2="13.9716" gradientUnits="userSpaceOnUse">
<stop stop-color="#0077D2"/>
<stop offset="1" stop-color="#0B59A2"/>
</linearGradient>
</defs>
</svg>
