<svg width="24" height="24" viewBox="0 0 24 24" fill="none" xmlns="http://www.w3.org/2000/svg">
<path d="M6.76191 8.66667H5.33334V14.381H6.76191V8.66667Z" fill="#64717C"/>
<path d="M6.04762 6.52381C6.01634 6.52383 5.98538 6.51769 5.95649 6.50572C5.92759 6.49376 5.90133 6.47623 5.87922 6.45411C5.85711 6.432 5.83957 6.40574 5.82761 6.37685C5.81565 6.34795 5.80951 6.31699 5.80952 6.28571V3.19048C5.80952 3.12733 5.83461 3.06677 5.87926 3.02211C5.92391 2.97747 5.98448 2.95238 6.04762 2.95238C6.11076 2.95238 6.17132 2.97747 6.21598 3.02211C6.26063 3.06677 6.28572 3.12733 6.28572 3.19048V6.28571C6.28573 6.31699 6.27959 6.34795 6.26763 6.37685C6.25567 6.40574 6.23813 6.432 6.21602 6.45411C6.19391 6.47623 6.16765 6.49376 6.13875 6.50572C6.10986 6.51769 6.0789 6.52383 6.04762 6.52381Z" fill="#64717C"/>
<path d="M6.93834 7.71429H5.15691C5.00661 7.71429 4.86119 7.66097 4.74652 7.56382C4.63183 7.46668 4.55534 7.332 4.53063 7.18374L4.3632 6.17917C4.35562 6.1337 4.35803 6.08711 4.37028 6.04267C4.38253 5.99822 4.40431 5.95696 4.43411 5.92179C4.46392 5.88661 4.50102 5.85834 4.54285 5.83895C4.58468 5.81956 4.63023 5.80952 4.67634 5.80952H7.41891C7.46501 5.80952 7.51056 5.81956 7.55239 5.83895C7.59422 5.85834 7.63134 5.88661 7.66114 5.92179C7.69094 5.95696 7.71272 5.99822 7.72496 6.04267C7.73721 6.08711 7.73962 6.1337 7.73205 6.17917L7.56462 7.18374C7.53991 7.332 7.46341 7.46668 7.34874 7.56382C7.23405 7.66097 7.08863 7.71429 6.93834 7.71429Z" fill="#889097"/>
<path d="M7.3837 10.0952H4.71155C4.48611 10.0952 4.26797 10.0153 4.09595 9.86954C3.92394 9.72382 3.80919 9.5218 3.77213 9.29943L3.52099 7.79257C3.50962 7.72435 3.51325 7.65448 3.53161 7.58781C3.54998 7.52113 3.58266 7.45926 3.62735 7.40649C3.67206 7.35372 3.72772 7.31132 3.79047 7.28224C3.85321 7.25316 3.92153 7.2381 3.9907 7.2381H8.10454C8.17371 7.2381 8.24203 7.25316 8.30478 7.28224C8.36752 7.31132 8.42318 7.35372 8.46789 7.40649C8.51259 7.45926 8.54526 7.52113 8.56363 7.58781C8.582 7.65448 8.58562 7.72435 8.57426 7.79257L8.32311 9.29943C8.28605 9.5218 8.17131 9.72382 7.99929 9.86954C7.82727 10.0153 7.60913 10.0952 7.3837 10.0952Z" fill="url(#paint0_linear_40_190)"/>
<path d="M7.23809 7.2381H4.85714V10.0952H7.23809V7.2381Z" fill="url(#paint1_linear_40_190)"/>
<path d="M17.4438 7.20878L14.5823 5.87345C14.4561 5.81456 14.315 5.79575 14.1778 5.81955C14.0407 5.84335 13.914 5.90862 13.8151 6.00656L13.6613 6.15923L15.5835 7.80919L17.4438 7.20878Z" fill="url(#paint2_linear_40_190)"/>
<path d="M19.7188 7.37699L19.2957 6.24293L13.3228 8.49854L12.7116 7.96449C12.629 7.89246 12.5269 7.84651 12.4181 7.83244C12.3094 7.81837 12.199 7.83681 12.1007 7.88544L12.0603 7.90541C12.0354 7.91758 12.0163 7.93881 12.0068 7.96471C11.9971 7.99062 11.9979 8.01921 12.0089 8.04457L12.6352 9.49405L13.3862 9.80988L19.7188 7.37699Z" fill="url(#paint3_linear_40_190)"/>
<path d="M19.4857 7.4233C19.8224 7.4233 20.0952 7.15232 20.0952 6.81806C20.0952 6.48379 19.8224 6.21282 19.4857 6.21282C19.149 6.21282 18.8762 6.48379 18.8762 6.81806C18.8762 7.15232 19.149 7.4233 19.4857 7.4233Z" fill="url(#paint4_linear_40_190)"/>
<path d="M13.1871 9.84331C13.5238 9.84331 13.7967 9.57233 13.7967 9.23808C13.7967 8.90381 13.5238 8.63284 13.1871 8.63284C12.8505 8.63284 12.5776 8.90381 12.5776 9.23808C12.5776 9.57233 12.8505 9.84331 13.1871 9.84331Z" fill="url(#paint5_linear_40_190)"/>
<path d="M16.0392 8.32369C16.0049 8.33652 15.9748 8.35896 15.9527 8.38834C15.9307 8.41772 15.9174 8.45282 15.9147 8.48947L15.693 11.5237H15.9105C16.0493 11.524 16.185 11.4815 16.299 11.4021C16.413 11.3226 16.4996 11.2099 16.5474 11.0794L17.7193 7.85275C17.7251 7.83631 17.7262 7.81854 17.7222 7.80154C17.7183 7.78454 17.7095 7.76903 17.697 7.75684C17.6846 7.74465 17.6689 7.73631 17.6518 7.73278C17.6347 7.72927 17.617 7.73072 17.6007 7.73699L16.0392 8.32369Z" fill="url(#paint6_linear_40_190)"/>
<path d="M21.0476 14.381H2.95238V20.4524H21.0476V14.381Z" fill="url(#paint7_linear_40_190)"/>
<path d="M7.71428 14.381H6.7619V20.3333H7.71428V14.381Z" fill="url(#paint8_linear_40_190)"/>
<path d="M12.4762 14.381H11.5238V20.3333H12.4762V14.381Z" fill="url(#paint9_linear_40_190)"/>
<path d="M17.2381 14.381H16.2857V20.3333H17.2381V14.381Z" fill="url(#paint10_linear_40_190)"/>
<path d="M21.5238 13.9048H2.47619C2.2132 13.9048 2 14.118 2 14.381C2 14.6439 2.2132 14.8571 2.47619 14.8571H21.5238C21.7868 14.8571 22 14.6439 22 14.381C22 14.118 21.7868 13.9048 21.5238 13.9048Z" fill="#889097"/>
<path d="M21.5238 20.0952H2.47619C2.2132 20.0952 2 20.3085 2 20.5714C2 20.8344 2.2132 21.0476 2.47619 21.0476H21.5238C21.7868 21.0476 22 20.8344 22 20.5714C22 20.3085 21.7868 20.0952 21.5238 20.0952Z" fill="#889097"/>
<defs>
<linearGradient id="paint0_linear_40_190" x1="5.36546" y1="7.36264" x2="5.6852" y2="10.4804" gradientUnits="userSpaceOnUse">
<stop stop-color="#32BDEF"/>
<stop offset="1" stop-color="#1EA2E4"/>
</linearGradient>
<linearGradient id="paint1_linear_40_190" x1="6.07047" y1="6.68048" x2="5.99285" y2="13.4043" gradientUnits="userSpaceOnUse">
<stop stop-color="#A8E2F7"/>
<stop offset="1" stop-color="#47C1FF"/>
</linearGradient>
<linearGradient id="paint2_linear_40_190" x1="13.6614" y1="6.80954" x2="17.4438" y2="6.80954" gradientUnits="userSpaceOnUse">
<stop stop-color="#3079D6"/>
<stop offset="1" stop-color="#297CD2"/>
</linearGradient>
<linearGradient id="paint3_linear_40_190" x1="12" y1="8.02621" x2="19.7186" y2="8.02621" gradientUnits="userSpaceOnUse">
<stop stop-color="#42A3F2"/>
<stop offset="1" stop-color="#42A4EB"/>
</linearGradient>
<linearGradient id="paint4_linear_40_190" x1="18.8762" y1="6.81806" x2="20.0952" y2="6.81806" gradientUnits="userSpaceOnUse">
<stop stop-color="#42A3F2"/>
<stop offset="1" stop-color="#42A4EB"/>
</linearGradient>
<linearGradient id="paint5_linear_40_190" x1="12.5776" y1="9.23808" x2="13.7967" y2="9.23808" gradientUnits="userSpaceOnUse">
<stop stop-color="#42A3F2"/>
<stop offset="1" stop-color="#42A4EB"/>
</linearGradient>
<linearGradient id="paint6_linear_40_190" x1="15.6929" y1="9.62716" x2="17.7248" y2="9.62716" gradientUnits="userSpaceOnUse">
<stop stop-color="#3079D6"/>
<stop offset="1" stop-color="#297CD2"/>
</linearGradient>
<linearGradient id="paint7_linear_40_190" x1="10.4167" y1="13.0662" x2="15.0429" y2="25.7771" gradientUnits="userSpaceOnUse">
<stop stop-color="#A8E2F7"/>
<stop offset="1" stop-color="#47C1FF"/>
</linearGradient>
<linearGradient id="paint8_linear_40_190" x1="7.10985" y1="14.6404" x2="10.3649" y2="17.5045" gradientUnits="userSpaceOnUse">
<stop stop-color="#32BDEF"/>
<stop offset="1" stop-color="#1EA2E4"/>
</linearGradient>
<linearGradient id="paint9_linear_40_190" x1="11.8718" y1="14.6404" x2="15.1269" y2="17.5045" gradientUnits="userSpaceOnUse">
<stop stop-color="#32BDEF"/>
<stop offset="1" stop-color="#1EA2E4"/>
</linearGradient>
<linearGradient id="paint10_linear_40_190" x1="16.6337" y1="14.6404" x2="19.8888" y2="17.5045" gradientUnits="userSpaceOnUse">
<stop stop-color="#32BDEF"/>
<stop offset="1" stop-color="#1EA2E4"/>
</linearGradient>
</defs>
</svg>
