<svg width="24" height="24" viewBox="0 0 24 24" fill="none" xmlns="http://www.w3.org/2000/svg">
<path d="M22 17.5556C22 20.01 20.01 22 17.5556 22H6.44444C3.99 22 2 20.01 2 17.5556V6.44444C2 3.99 3.99 2 6.44444 2H17.5556C20.01 2 22 3.99 22 6.44444V17.5556Z" fill="url(#paint0_linear_40_227)"/>
<path opacity="0.05" d="M20.7583 10.885C20.4867 10.4289 19.7239 10.3333 19.1317 10.3333C18.3672 10.3333 17.6272 10.5506 17.09 10.9372C16.8206 11.1411 16.7072 11.4556 16.8022 11.7378C16.8361 11.8383 16.8989 11.92 16.9739 11.99C16.2428 12.21 15.4839 12.3744 14.735 12.5294C14.0117 12.68 13.1572 12.7533 12.1239 12.7533C11.75 12.7533 11.3806 12.7439 11.0211 12.73C9.73611 12.6817 8.66722 12.5189 7.56555 12.2056C7.32722 12.1322 7.08889 12.0628 6.85111 11.9928C5.88833 11.7111 4.97889 11.4444 4.11778 10.9778C3.83667 10.8233 3.46222 10.8994 3.26333 11.1461C3.14833 11.2872 3.09555 11.4656 3.11444 11.6467C3.13333 11.8272 3.22111 11.99 3.36278 12.105C4.43055 12.9694 5.59889 13.4383 6.83555 13.9344L6.95 13.9806C8.26111 14.4883 9.63944 14.7561 11.0467 14.7778C11.3617 14.7822 11.6772 14.7872 11.9928 14.7872C12.9483 14.7872 14.075 14.7489 15.1844 14.4656C16.3006 14.1767 17.55 13.8489 18.6828 13.1472C18.64 13.2678 18.5967 13.39 18.5456 13.5272C18.4539 13.7572 18.4728 13.9944 18.5972 14.1778C18.7139 14.35 18.9111 14.4522 19.125 14.4522C19.2911 14.4522 19.4572 14.3933 19.6333 14.2589C20.6361 13.3978 21.1406 11.5311 20.7583 10.885Z" fill="black"/>
<path opacity="0.07" d="M20.5194 11.0272C20.3039 10.6656 19.5578 10.6111 19.1317 10.6111C18.4239 10.6111 17.7428 10.8089 17.2578 11.1583C17.0822 11.2911 17.0083 11.4794 17.0656 11.6494C17.1067 11.7722 17.2417 11.8972 17.4944 11.9011L17.5711 11.8911C17.7611 11.8672 18.01 11.8367 18.265 11.8156C17.1756 12.3061 15.9678 12.5583 14.7911 12.8006C14.0489 12.955 13.1761 13.0306 12.1233 13.0306C11.7461 13.0306 11.3728 13.0211 11.0106 13.0072C9.70278 12.9578 8.61333 12.7917 7.48389 12.4706C7.24667 12.3978 7.00944 12.3283 6.77278 12.2589C5.79556 11.9728 4.87278 11.7022 3.98389 11.2211C3.81778 11.13 3.59611 11.175 3.47778 11.3211C3.41 11.4044 3.37833 11.51 3.39 11.6172C3.40111 11.7244 3.45333 11.8206 3.53722 11.8889C4.57222 12.7272 5.72222 13.1883 6.93889 13.6767L7.05 13.7211C8.33111 14.2167 9.67667 14.4789 11.0506 14.4994C11.3639 14.5039 11.6783 14.5089 11.9922 14.5089C12.9306 14.5089 14.0356 14.4717 15.1144 14.1961C16.3228 13.8833 17.6928 13.5289 18.8717 12.6933C19.0794 12.5472 19.1528 12.2728 19.0461 12.0406C18.995 11.9306 18.9111 11.8478 18.8111 11.7933C19.1794 11.8 19.2794 11.8589 19.2828 11.8494C19.3233 11.9667 19.2739 12.3656 18.8028 13.6294C18.725 13.8256 18.7839 13.9589 18.8261 14.0217C18.8922 14.1189 19.0006 14.1744 19.1239 14.1744C19.2289 14.1744 19.3372 14.1344 19.4506 14.0483C20.4483 13.1922 20.8067 11.3678 20.5194 11.0272Z" fill="black"/>
<path opacity="0.05" d="M8.10111 2V6.44444C8.10111 7.05722 8.59945 7.55556 9.21222 7.55556H12.2317L15.8989 3.89722V2H8.10111Z" fill="black"/>
<path opacity="0.07" d="M8.37889 2V6.44444C8.37889 6.90389 8.75278 7.27778 9.21222 7.27778H12.1167L15.6211 3.78222V2H8.37889Z" fill="black"/>
<path d="M17.5667 13.9428L17.2861 13.6117V10.8889H20.4556V13.9428H17.5667Z" fill="#343434"/>
<path d="M3.85945 11.4706C4.98722 12.0806 6.19222 12.3661 7.40278 12.7372C8.62278 13.0844 9.75111 13.2383 11 13.2856C12.2461 13.3328 13.6183 13.3294 14.8478 13.0733C16.0722 12.8206 17.3072 12.5667 18.4428 12.0433L18.4622 12.0344C18.5883 11.9767 18.7367 12.0317 18.7944 12.1572C18.8456 12.2683 18.8083 12.3978 18.7117 12.4661C17.6017 13.2533 16.3472 13.59 15.045 13.9272C13.745 14.26 12.3933 14.2422 11.0556 14.2222C9.705 14.2017 8.39167 13.9428 7.15111 13.4628C5.91445 12.9661 4.74611 12.51 3.71278 11.6739C3.65889 11.63 3.65056 11.5511 3.69445 11.4972C3.73278 11.4494 3.8 11.4378 3.85111 11.4656L3.85945 11.4706Z" fill="url(#paint1_linear_40_227)"/>
<path d="M12.0022 7H9.21278C8.90611 7 8.65722 6.75111 8.65722 6.44444V2H15.3433V3.66667L12.0022 7Z" fill="url(#paint2_linear_40_227)"/>
<path d="M12.01 7V4.77778C12.01 4.16389 12.5072 3.66667 13.1211 3.66667H15.3433L12.01 7Z" fill="url(#paint3_linear_40_227)"/>
<defs>
<linearGradient id="paint0_linear_40_227" x1="5.25722" y1="1.35389" x2="17.9083" y2="21.3289" gradientUnits="userSpaceOnUse">
<stop stop-color="#E2BF85"/>
<stop offset="1" stop-color="#CAA36F"/>
</linearGradient>
<linearGradient id="paint1_linear_40_227" x1="5.09278" y1="4.62883" x2="11.2039" y2="11.8511" gradientUnits="userSpaceOnUse">
<stop stop-color="#4C4C4C"/>
<stop offset="1" stop-color="#343434"/>
</linearGradient>
<linearGradient id="paint2_linear_40_227" x1="9.30111" y1="1.31167" x2="15.2039" y2="7.90889" gradientUnits="userSpaceOnUse">
<stop stop-color="#00B3EE"/>
<stop offset="1" stop-color="#0082D8"/>
</linearGradient>
<linearGradient id="paint3_linear_40_227" x1="12.8244" y1="4.43111" x2="15.1856" y2="6.93111" gradientUnits="userSpaceOnUse">
<stop stop-color="#00B3EE"/>
<stop offset="1" stop-color="#0082D8"/>
</linearGradient>
</defs>
</svg>
