<svg width="24" height="24" viewBox="0 0 24 24" fill="none" xmlns="http://www.w3.org/2000/svg">
<path d="M20.721 22H3.27899C2.71315 22 2.25299 21.5398 2.25299 20.974V6.93827C2.25299 6.54018 2.48641 6.17493 2.84756 6.00717L11.0694 2.20584C11.6599 1.93139 12.3386 1.93139 12.9301 2.20584L21.1514 6.00717C21.5136 6.17441 21.747 6.53967 21.747 6.93827V20.974C21.747 21.5398 21.2868 22 20.721 22Z" fill="url(#paint0_linear_40_349)"/>
<path opacity="0.05" d="M10.8324 10.0209C10.8324 9.5659 11.2254 9.33505 12 9.33505C13.067 9.33505 13.9494 9.67414 14.3808 9.87626C14.6481 10.0019 15.591 10.1774 15.591 9.116V8.04126C15.591 7.25432 15.116 6.98448 14.9118 6.90496C14.4157 6.71208 13.7955 6.59049 13.026 6.5356V5.84049C13.026 5.41624 12.6807 5.07099 12.2565 5.07099H11.7435C11.3192 5.07099 10.974 5.41624 10.974 5.84049V6.59614C9.32419 6.89778 7.71747 7.97149 7.71747 10.2C7.71747 14.66 13.1676 14.2758 13.1676 15.2833C13.1676 15.4654 13.1676 15.9497 12 15.9497C10.6436 15.9497 9.45295 15.3946 9.12053 15.2248C8.85838 15.0899 7.896 14.9924 7.896 15.9784V17.2009C7.896 17.64 8.15865 18.035 8.56546 18.2079C9.25339 18.5003 10.1409 18.7332 10.974 18.8456V19.6915C10.974 20.1157 11.3192 20.461 11.7435 20.461H12.2565C12.6807 20.461 13.026 20.1157 13.026 19.6915V18.8409C15.4186 18.4429 16.2825 16.655 16.2825 15.1735C16.2825 10.8176 10.8324 11.5091 10.8324 10.0209Z" fill="black"/>
<path opacity="0.07" d="M10.5759 10.0209C10.5759 9.22424 11.4126 9.07855 12 9.07855C13.0142 9.07855 13.9202 9.37711 14.4896 9.64439C14.7348 9.7593 15.3345 9.76956 15.3345 9.116V8.04126C15.3345 7.46773 15.0293 7.22559 14.8189 7.14402C14.328 6.95319 13.6693 6.8234 12.7695 6.77928V5.84049C12.7695 5.55731 12.5397 5.32749 12.2565 5.32749H11.7435C11.4603 5.32749 11.2305 5.55731 11.2305 5.84049V6.81878C9.60634 7.04758 7.97397 8.03562 7.97397 10.1995C7.97397 14.343 13.4241 13.7715 13.4241 15.2828C13.4241 15.6906 13.222 16.2057 12 16.2057C10.6806 16.2057 9.49604 15.7045 9.00408 15.4526C8.76348 15.3289 8.1525 15.3618 8.1525 15.9779V17.2009C8.1525 17.5379 8.35462 17.8396 8.66601 17.9719C9.39652 18.2823 10.3584 18.5229 11.2305 18.6152V19.6915C11.2305 19.9747 11.4603 20.2045 11.7435 20.2045H12.2565C12.5397 20.2045 12.7695 19.9747 12.7695 19.6915V18.6142C15.1616 18.3151 16.026 16.6207 16.026 15.173C16.026 11.1495 10.5759 11.8554 10.5759 10.0209Z" fill="black"/>
<path d="M15.7695 15.173C15.7695 11.4814 10.3194 12.2022 10.3194 10.0209C10.3194 8.88207 11.5993 8.82205 12 8.82205C12.9619 8.82205 13.8904 9.08009 14.5983 9.412C14.8215 9.51716 15.078 9.36224 15.078 9.116V8.04126C15.078 7.68113 14.9426 7.46721 14.7261 7.38308C14.2408 7.1943 13.5436 7.05681 12.513 7.02244V5.84049C12.513 5.6989 12.3981 5.58399 12.2565 5.58399H11.7435C11.6019 5.58399 11.487 5.6989 11.487 5.84049V7.04194C9.88849 7.1984 8.23047 8.10025 8.23047 10.2C8.23047 14.0269 13.6806 13.2682 13.6806 15.2833C13.6806 15.9168 13.2758 16.4627 12 16.4627C10.7175 16.4627 9.53913 16.0153 8.88711 15.6814C8.66754 15.569 8.40899 15.7316 8.40899 15.9779V17.2009C8.40899 17.4353 8.55007 17.6441 8.76604 17.7354C9.53862 18.0637 10.5754 18.312 11.487 18.3849V19.6915C11.487 19.8331 11.6019 19.948 11.7435 19.948H12.2565C12.3981 19.948 12.513 19.8331 12.513 19.6915V18.388C14.9051 18.1879 15.7695 16.5868 15.7695 15.173Z" fill="white"/>
<defs>
<linearGradient id="paint0_linear_40_349" x1="9.31495" y1="1.42659" x2="13.8268" y2="22.4812" gradientUnits="userSpaceOnUse">
<stop stop-color="#21AD64"/>
<stop offset="1" stop-color="#088242"/>
</linearGradient>
</defs>
</svg>
