<svg width="24" height="24" viewBox="0 0 24 24" fill="none" xmlns="http://www.w3.org/2000/svg">
<path d="M5.61111 2H7.27778C7.43111 2 7.55556 2.12444 7.55556 2.27778V21.7222C7.55556 21.8756 7.43111 22 7.27778 22H5.61111C5.45778 22 5.33333 21.8756 5.33333 21.7222V2.27778C5.33333 2.12444 5.45778 2 5.61111 2ZM8.94444 22H9.5C9.65333 22 9.77778 21.8756 9.77778 21.7222V2.27778C9.77778 2.12444 9.65333 2 9.5 2H8.94444C8.79111 2 8.66667 2.12444 8.66667 2.27778V21.7222C8.66667 21.8756 8.79111 22 8.94444 22ZM2.27778 22H3.94444C4.09778 22 4.22222 21.8756 4.22222 21.7222V2.27778C4.22222 2.12444 4.09778 2 3.94444 2H2.27778C2.12444 2 2 2.12444 2 2.27778V21.7222C2 21.8756 2.12444 22 2.27778 22ZM11.1667 22H15.0556C15.2089 22 15.3333 21.8756 15.3333 21.7222V2.27778C15.3333 2.12444 15.2089 2 15.0556 2H11.1667C11.0133 2 10.8889 2.12444 10.8889 2.27778V21.7222C10.8889 21.8756 11.0133 22 11.1667 22ZM19.7778 2.27778V21.7222C19.7778 21.8756 19.9022 22 20.0556 22H21.7222C21.8756 22 22 21.8756 22 21.7222V2.27778C22 2.12444 21.8756 2 21.7222 2H20.0556C19.9022 2 19.7778 2.12444 19.7778 2.27778ZM16.7222 22H18.3889C18.5422 22 18.6667 21.8756 18.6667 21.7222V2.27778C18.6667 2.12444 18.5422 2 18.3889 2H16.7222C16.5689 2 16.4444 2.12444 16.4444 2.27778V21.7222C16.4444 21.8756 16.5689 22 16.7222 22Z" fill="url(#paint0_linear_40_362)"/>
<defs>
<linearGradient id="paint0_linear_40_362" x1="8.71556" y1="1.35778" x2="14.8717" y2="21.3033" gradientUnits="userSpaceOnUse">
<stop stop-color="#33BEF0"/>
<stop offset="1" stop-color="#0A85D9"/>
</linearGradient>
</defs>
</svg>
