<svg width="24" height="24" viewBox="0 0 24 24" fill="none" xmlns="http://www.w3.org/2000/svg">
<path d="M18.0773 20.1407H15.5967L14.2385 21.8339C14.0338 22.0892 13.631 22.0343 13.5017 21.7343L10.8104 15.4893H16.6107L18.4713 19.5254C18.6039 19.8128 18.3941 20.1407 18.0773 20.1407Z" fill="url(#paint0_linear_40_372)"/>
<path d="M13.7008 15.4893L10.9648 21.7399C10.8341 22.0385 10.4327 22.092 10.229 21.8376L8.86795 20.1407H6.38734C6.07058 20.1407 5.8608 19.8128 5.99336 19.5254L7.85394 15.4893H13.7008Z" fill="url(#paint1_linear_40_372)"/>
<path d="M12.9217 2.24106L13.9064 2.79319L15.0353 2.80714C15.6916 2.81505 16.2968 3.16437 16.6317 3.72906L17.208 4.69935L18.1783 5.27566C18.7425 5.61103 19.0918 6.21572 19.1002 6.87204L19.1142 8.00094L19.6663 8.98565C19.9872 9.55825 19.9872 10.2564 19.6663 10.829L19.1142 11.8137L19.1002 12.9426C19.0923 13.599 18.743 14.2041 18.1783 14.539L17.208 15.1153L16.6317 16.0856C16.2963 16.6498 15.6916 16.9992 15.0353 17.0075L13.9064 17.0215L12.9217 17.5736C12.3491 17.8946 11.6509 17.8946 11.0783 17.5736L10.0936 17.0215L8.96471 17.0075C8.30839 16.9996 7.70324 16.6503 7.36833 16.0856L6.79202 15.1153L5.82173 14.539C5.25751 14.2036 4.90818 13.599 4.89981 12.9426L4.88586 11.8137L4.33373 10.829C4.01278 10.2564 4.01278 9.55825 4.33373 8.98565L4.88586 8.00094L4.89981 6.87204C4.90772 6.21572 5.25704 5.61057 5.82173 5.27566L6.79202 4.69935L7.36833 3.72906C7.7037 3.16484 8.30839 2.81551 8.96471 2.80714L10.0936 2.79319L11.0783 2.24106C11.6504 1.91965 12.3491 1.91965 12.9217 2.24106Z" fill="#FDB700"/>
<path d="M11.9998 15.9544C15.3394 15.9544 18.0466 13.2472 18.0466 9.90756C18.0466 6.56797 15.3394 3.86069 11.9998 3.86069C8.66018 3.86069 5.9529 6.56797 5.9529 9.90756C5.9529 13.2472 8.66018 15.9544 11.9998 15.9544Z" fill="url(#paint2_linear_40_372)"/>
<path opacity="0.05" d="M9.84568 13.1123V11.2429H10.9616V8.92747L9.81544 9.17492V7.2562L13.0752 6.60035V11.2429H14.1841V13.1123H9.84568Z" fill="black"/>
<path opacity="0.07" d="M10.0783 12.8798V11.4756H11.1941V8.63911L10.048 8.88704V7.44648L12.8426 6.88412V11.4756H13.9515V12.8798H10.0783Z" fill="black"/>
<path d="M13.7194 12.6474H10.3113V11.7082H11.4267V8.35171L10.2806 8.59916V7.63678L12.6105 7.16792V11.7082H13.7194V12.6474Z" fill="white"/>
<defs>
<linearGradient id="paint0_linear_40_372" x1="14.661" y1="15.4756" x2="14.661" y2="21.9728" gradientUnits="userSpaceOnUse">
<stop stop-color="#2AA4F4"/>
<stop offset="1" stop-color="#007AD9"/>
</linearGradient>
<linearGradient id="paint1_linear_40_372" x1="9.82689" y1="15.4756" x2="9.82689" y2="21.9765" gradientUnits="userSpaceOnUse">
<stop stop-color="#2AA4F4"/>
<stop offset="1" stop-color="#007AD9"/>
</linearGradient>
<linearGradient id="paint2_linear_40_372" x1="5.9529" y1="9.90756" x2="18.0466" y2="9.90756" gradientUnits="userSpaceOnUse">
<stop stop-color="#FEDE00"/>
<stop offset="1" stop-color="#FFD000"/>
</linearGradient>
</defs>
</svg>
