<svg width="24" height="24" viewBox="0 0 24 24" fill="none" xmlns="http://www.w3.org/2000/svg">
<path d="M4.5 21.5V2.5C4.5 2.224 4.724 2 5 2H11.7705C13.999 2 15.712 2.409 16.91 3.2275C18.1075 4.0455 18.7065 5.1985 18.7065 6.6865C18.7065 7.765 18.342 8.709 17.6135 9.5175C16.8845 10.327 15.9535 10.889 14.8205 11.2055V11.2615C16.2415 11.438 17.3765 11.9635 18.226 12.838C19.0755 13.711 19.5 14.7755 19.5 16.0305C19.5 17.862 18.8455 19.315 17.5365 20.389C16.227 21.463 14.4395 22 12.1745 22H5C4.724 22 4.5 21.776 4.5 21.5ZM8.999 5.3195V10.0615H10.9765C11.905 10.0615 12.636 9.8365 13.1705 9.385C13.705 8.9335 13.9715 8.3135 13.9715 7.523C13.9715 6.054 12.876 5.3195 10.6845 5.3195H8.999ZM8.999 13.4085V18.6805H11.436C12.476 18.6805 13.2905 18.439 13.8805 17.9555C14.47 17.472 14.7645 16.812 14.7645 15.975C14.7645 15.1755 14.474 14.548 13.894 14.092C13.314 13.637 12.5035 13.409 11.4635 13.409H8.999V13.4085Z" fill="url(#paint0_linear_40_381)"/>
<defs>
<linearGradient id="paint0_linear_40_381" x1="12" y1="1.95805" x2="12" y2="21.9278" gradientUnits="userSpaceOnUse">
<stop stop-color="#2AA4F4"/>
<stop offset="1" stop-color="#007AD9"/>
</linearGradient>
</defs>
</svg>
