<svg width="24" height="24" viewBox="0 0 24 24" fill="none" xmlns="http://www.w3.org/2000/svg">
<path d="M20.8889 22H3.11111C2.5 22 2 21.5 2 20.8889V3.11111C2 2.5 2.5 2 3.11111 2H20.8889C21.5 2 22 2.5 22 3.11111V20.8889C22 21.5 21.5 22 20.8889 22Z" fill="url(#paint0_linear_40_558)"/>
<path d="M9.22222 2H14.7778V4.77778H9.22222V2Z" fill="#FFF8E6"/>
<path d="M19.7778 19.2222H14.2222V20.3333H19.7778V19.2222Z" fill="#6B5F41"/>
<path d="M19.7778 16.4444L18.6667 15.3333L17.5556 16.4444H18.1111V18.1111H19.2222V16.4444H19.7778Z" fill="#6B5F41"/>
<path d="M16.4444 16.4444L15.3333 15.3333L14.2222 16.4444H14.7778V18.1111H15.8889V16.4444H16.4444Z" fill="#6B5F41"/>
<defs>
<linearGradient id="paint0_linear_40_558" x1="2.55389" y1="2.27333" x2="21.305" y2="21.5817" gradientUnits="userSpaceOnUse">
<stop stop-color="#FFD869"/>
<stop offset="1" stop-color="#FEC52B"/>
</linearGradient>
</defs>
</svg>
