<svg width="24" height="24" viewBox="0 0 24 24" fill="none" xmlns="http://www.w3.org/2000/svg">
<path d="M2 5.33333V18.6667C2 19.1929 2.42619 19.619 2.95238 19.619H21.0476C21.5738 19.619 22 19.1929 22 18.6667V5.33333C22 4.80714 21.5738 4.38095 21.0476 4.38095H2.95238C2.42619 4.38095 2 4.80714 2 5.33333Z" fill="url(#paint0_linear_40_513)"/>
<path d="M13.9048 10.0952H14.8571V11.0476H13.9048V10.0952ZM13.9048 12H14.8571V12.9524H13.9048V12ZM13.9048 13.9048H14.8571V14.8571H13.9048V13.9048ZM13.9048 15.8095H14.8571V16.7619H13.9048V15.8095ZM13.9048 17.7143H14.8571V18.6667H13.9048V17.7143Z" fill="#1976D2"/>
<path d="M16.7619 12H19.619C19.8819 12 20.0952 12.2133 20.0952 12.4762C20.0952 12.739 19.8819 12.9524 19.619 12.9524H16.7619C16.499 12.9524 16.2857 12.739 16.2857 12.4762C16.2857 12.2133 16.499 12 16.7619 12ZM16.7619 13.9048H19.619C19.8819 13.9048 20.0952 14.1181 20.0952 14.381C20.0952 14.6438 19.8819 14.8571 19.619 14.8571H16.7619C16.499 14.8571 16.2857 14.6438 16.2857 14.381C16.2857 14.1181 16.499 13.9048 16.7619 13.9048ZM14.8571 6.28571H19.619C19.8819 6.28571 20.0952 6.49905 20.0952 6.7619C20.0952 7.02476 19.8819 7.23809 19.619 7.23809H14.8571C14.5943 7.23809 14.3809 7.02476 14.3809 6.7619C14.3809 6.49905 14.5943 6.28571 14.8571 6.28571ZM14.8571 8.19048H19.619C19.8819 8.19048 20.0952 8.40381 20.0952 8.66667C20.0952 8.92952 19.8819 9.14286 19.619 9.14286H14.8571C14.5943 9.14286 14.3809 8.92952 14.3809 8.66667C14.3809 8.40381 14.5943 8.19048 14.8571 8.19048ZM16.7619 15.8095H19.619C19.8819 15.8095 20.0952 16.0229 20.0952 16.2857C20.0952 16.5486 19.8819 16.7619 19.619 16.7619H16.7619C16.499 16.7619 16.2857 16.5486 16.2857 16.2857C16.2857 16.0229 16.499 15.8095 16.7619 15.8095ZM6.28571 12H10.0952C10.3581 12 10.5714 12.2133 10.5714 12.4762C10.5714 12.739 10.3581 12.9524 10.0952 12.9524H6.28571C6.02285 12.9524 5.80952 12.739 5.80952 12.4762C5.80952 12.2133 6.02285 12 6.28571 12ZM6.28571 13.9048H10.0952C10.3581 13.9048 10.5714 14.1181 10.5714 14.381C10.5714 14.6438 10.3581 14.8571 10.0952 14.8571H6.28571C6.02285 14.8571 5.80952 14.6438 5.80952 14.381C5.80952 14.1181 6.02285 13.9048 6.28571 13.9048ZM4.38095 6.28571H10.0952C10.3581 6.28571 10.5714 6.49905 10.5714 6.7619C10.5714 7.02476 10.3581 7.23809 10.0952 7.23809H4.38095C4.11809 7.23809 3.90475 7.02476 3.90475 6.7619C3.90475 6.49905 4.11809 6.28571 4.38095 6.28571ZM4.38095 8.19048H10.0952C10.3581 8.19048 10.5714 8.40381 10.5714 8.66667C10.5714 8.92952 10.3581 9.14286 10.0952 9.14286H4.38095C4.11809 9.14286 3.90475 8.92952 3.90475 8.66667C3.90475 8.40381 4.11809 8.19048 4.38095 8.19048ZM4.38095 12C4.6438 12 4.85714 12.2133 4.85714 12.4762C4.85714 12.739 4.6438 12.9524 4.38095 12.9524C4.11809 12.9524 3.90475 12.739 3.90475 12.4762C3.90475 12.2133 4.11809 12 4.38095 12ZM4.38095 13.9048C4.6438 13.9048 4.85714 14.1181 4.85714 14.381C4.85714 14.6438 4.6438 14.8571 4.38095 14.8571C4.11809 14.8571 3.90475 14.6438 3.90475 14.381C3.90475 14.1181 4.11809 13.9048 4.38095 13.9048Z" fill="url(#paint1_linear_40_513)"/>
<path d="M7.2381 3.42857H16.7619C17.2881 3.42857 17.7143 3.85476 17.7143 4.38095V19.619C17.7143 20.1452 17.2881 20.5714 16.7619 20.5714H7.2381C6.71191 20.5714 6.28572 20.1452 6.28572 19.619V4.38095C6.28572 3.85476 6.71191 3.42857 7.2381 3.42857Z" fill="url(#paint2_linear_40_513)"/>
<path d="M11.0476 11.5238H14.8571C15.12 11.5238 15.3333 11.7371 15.3333 12C15.3333 12.2629 15.12 12.4762 14.8571 12.4762H11.0476C10.7848 12.4762 10.5714 12.2629 10.5714 12C10.5714 11.7371 10.7848 11.5238 11.0476 11.5238ZM9.14286 5.80952H14.8571C15.12 5.80952 15.3333 6.02286 15.3333 6.28571C15.3333 6.54857 15.12 6.76191 14.8571 6.76191H9.14286C8.88001 6.76191 8.66667 6.54857 8.66667 6.28571C8.66667 6.02286 8.88001 5.80952 9.14286 5.80952ZM9.14286 7.71429H14.8571C15.12 7.71429 15.3333 7.92762 15.3333 8.19048C15.3333 8.45333 15.12 8.66667 14.8571 8.66667H9.14286C8.88001 8.66667 8.66667 8.45333 8.66667 8.19048C8.66667 7.92762 8.88001 7.71429 9.14286 7.71429ZM11.0476 13.4286H14.8571C15.12 13.4286 15.3333 13.6419 15.3333 13.9048C15.3333 14.1676 15.12 14.381 14.8571 14.381H11.0476C10.7848 14.381 10.5714 14.1676 10.5714 13.9048C10.5714 13.6419 10.7848 13.4286 11.0476 13.4286ZM11.0476 15.3333H14.8571C15.12 15.3333 15.3333 15.5467 15.3333 15.8095C15.3333 16.0724 15.12 16.2857 14.8571 16.2857H11.0476C10.7848 16.2857 10.5714 16.0724 10.5714 15.8095C10.5714 15.5467 10.7848 15.3333 11.0476 15.3333ZM11.0476 17.2381H14.8571C15.12 17.2381 15.3333 17.4514 15.3333 17.7143C15.3333 17.9771 15.12 18.1905 14.8571 18.1905H11.0476C10.7848 18.1905 10.5714 17.9771 10.5714 17.7143C10.5714 17.4514 10.7848 17.2381 11.0476 17.2381ZM9.14286 11.5238C9.40572 11.5238 9.61905 11.7371 9.61905 12C9.61905 12.2629 9.40572 12.4762 9.14286 12.4762C8.88001 12.4762 8.66667 12.2629 8.66667 12C8.66667 11.7371 8.88001 11.5238 9.14286 11.5238ZM9.14286 13.4286C9.40572 13.4286 9.61905 13.6419 9.61905 13.9048C9.61905 14.1676 9.40572 14.381 9.14286 14.381C8.88001 14.381 8.66667 14.1676 8.66667 13.9048C8.66667 13.6419 8.88001 13.4286 9.14286 13.4286ZM9.14286 15.3333C9.40572 15.3333 9.61905 15.5467 9.61905 15.8095C9.61905 16.0724 9.40572 16.2857 9.14286 16.2857C8.88001 16.2857 8.66667 16.0724 8.66667 15.8095C8.66667 15.5467 8.88001 15.3333 9.14286 15.3333ZM9.14286 17.2381C9.40572 17.2381 9.61905 17.4514 9.61905 17.7143C9.61905 17.9771 9.40572 18.1905 9.14286 18.1905C8.88001 18.1905 8.66667 17.9771 8.66667 17.7143C8.66667 17.4514 8.88001 17.2381 9.14286 17.2381Z" fill="url(#paint3_linear_40_513)"/>
<defs>
<linearGradient id="paint0_linear_40_513" x1="9.307" y1="5.04519" x2="11.5912" y2="21.5317" gradientUnits="userSpaceOnUse">
<stop stop-color="#32BDEF"/>
<stop offset="1" stop-color="#1EA2E4"/>
</linearGradient>
<linearGradient id="paint1_linear_40_513" x1="7.49162" y1="4.72505" x2="13.1246" y2="17.5044" gradientUnits="userSpaceOnUse">
<stop stop-color="#FCFCFC"/>
<stop offset="0.95" stop-color="#C3C9CD"/>
</linearGradient>
<linearGradient id="paint2_linear_40_513" x1="9.88899" y1="3.69176" x2="19.941" y2="16.6123" gradientUnits="userSpaceOnUse">
<stop stop-color="#7DD8F3"/>
<stop offset="1" stop-color="#45B0D0"/>
</linearGradient>
<linearGradient id="paint3_linear_40_513" x1="10.1436" y1="3.9651" x2="18.9185" y2="10.9011" gradientUnits="userSpaceOnUse">
<stop stop-color="#FCFCFC"/>
<stop offset="0.95" stop-color="#C3C9CD"/>
</linearGradient>
</defs>
</svg>
