<svg width="24" height="24" viewBox="0 0 24 24" fill="none" xmlns="http://www.w3.org/2000/svg">
<path d="M12 19.1429C16.7339 19.1429 20.5714 15.3053 20.5714 10.5714C20.5714 5.83756 16.7339 2 12 2C7.26614 2 3.42857 5.83756 3.42857 10.5714C3.42857 15.3053 7.26614 19.1429 12 19.1429Z" fill="url(#paint0_linear_40_565)"/>
<path d="M12 16.2857C15.1559 16.2857 17.7143 13.7273 17.7143 10.5714C17.7143 7.41551 15.1559 4.85714 12 4.85714C8.84408 4.85714 6.28571 7.41551 6.28571 10.5714C6.28571 13.7273 8.84408 16.2857 12 16.2857Z" fill="url(#paint1_linear_40_565)"/>
<path d="M12 12.4762C13.052 12.4762 13.9048 11.6234 13.9048 10.5714C13.9048 9.51945 13.052 8.66666 12 8.66666C10.948 8.66666 10.0952 9.51945 10.0952 10.5714C10.0952 11.6234 10.948 12.4762 12 12.4762Z" fill="url(#paint2_linear_40_565)"/>
<path d="M12 22C11.1867 22 10.5033 21.3886 10.4138 20.58L9.88191 15.7948C9.74191 14.5324 10.73 13.4286 12 13.4286C13.27 13.4286 14.2581 14.5324 14.1181 15.7948L13.5862 20.58C13.4967 21.3886 12.8133 22 12 22Z" fill="url(#paint3_linear_40_565)"/>
<defs>
<linearGradient id="paint0_linear_40_565" x1="8.83347" y1="2.26319" x2="17.3104" y2="18.6073" gradientUnits="userSpaceOnUse">
<stop stop-color="#7DD8F3"/>
<stop offset="1" stop-color="#45B0D0"/>
</linearGradient>
<linearGradient id="paint1_linear_40_565" x1="8.81762" y1="3.15459" x2="16.5646" y2="14.5269" gradientUnits="userSpaceOnUse">
<stop stop-color="#FCFCFC"/>
<stop offset="0.95" stop-color="#C3C9CD"/>
</linearGradient>
<linearGradient id="paint2_linear_40_565" x1="12" y1="8.67762" x2="12" y2="25.4309" gradientUnits="userSpaceOnUse">
<stop stop-color="#0D61A9"/>
<stop offset="1" stop-color="#16528C"/>
</linearGradient>
<linearGradient id="paint3_linear_40_565" x1="12" y1="8.67762" x2="12" y2="25.431" gradientUnits="userSpaceOnUse">
<stop stop-color="#0D61A9"/>
<stop offset="1" stop-color="#16528C"/>
</linearGradient>
</defs>
</svg>
