<svg width="24" height="24" viewBox="0 0 24 24" fill="none" xmlns="http://www.w3.org/2000/svg">
<path d="M12.1971 5.53048L10.9895 4.32286C10.7219 4.05524 10.3586 3.90476 9.97952 3.90476H2.95238C2.42619 3.90476 2 4.33095 2 4.85714V19.1429C2 19.669 2.42619 20.0952 2.95238 20.0952H21.0476C21.5738 20.0952 22 19.669 22 19.1429V6.7619C22 6.23571 21.5738 5.80952 21.0476 5.80952H12.8705C12.6181 5.80952 12.3757 5.70905 12.1971 5.53048Z" fill="url(#paint0_linear_40_544)"/>
<path d="M10.8505 7.43524L12.4067 5.87905C12.451 5.83476 12.5114 5.80952 12.5748 5.80952H21.0476C21.5738 5.80952 22 6.23571 22 6.76191V19.1429C22 19.669 21.5738 20.0952 21.0476 20.0952H2.95238C2.42619 20.0952 2 19.669 2 19.1429V7.95238C2 7.82095 2.10667 7.71429 2.2381 7.71429H10.1771C10.4295 7.71429 10.6719 7.61381 10.8505 7.43524Z" fill="url(#paint1_linear_40_544)"/>
<path d="M14.1829 15.7219L13.341 16.5638L15.4091 18.6319C15.4557 18.6786 15.531 18.6786 15.5776 18.6319L16.251 17.9586C16.2976 17.9119 16.2976 17.8367 16.251 17.79L14.1829 15.7219Z" fill="url(#paint2_linear_40_544)"/>
<path d="M12.8571 14.3967L12.0157 15.2381L13.341 16.5638L14.1829 15.7219L12.8571 14.3967Z" fill="url(#paint3_radial_40_544)"/>
<path d="M10.8095 16.7619C12.782 16.7619 14.381 15.163 14.381 13.1905C14.381 11.218 12.782 9.61905 10.8095 9.61905C8.83708 9.61905 7.2381 11.218 7.2381 13.1905C7.2381 15.163 8.83708 16.7619 10.8095 16.7619Z" fill="url(#paint4_linear_40_544)"/>
<defs>
<linearGradient id="paint0_linear_40_544" x1="12" y1="3.76571" x2="12" y2="7.70333" gradientUnits="userSpaceOnUse">
<stop stop-color="#EBA600"/>
<stop offset="1" stop-color="#C28200"/>
</linearGradient>
<linearGradient id="paint1_linear_40_544" x1="12" y1="5.74" x2="12" y2="20.0871" gradientUnits="userSpaceOnUse">
<stop stop-color="#FFD869"/>
<stop offset="1" stop-color="#FEC52B"/>
</linearGradient>
<linearGradient id="paint2_linear_40_544" x1="14.8134" y1="15.7157" x2="14.8134" y2="18.6562" gradientUnits="userSpaceOnUse">
<stop stop-color="#2AA4F4"/>
<stop offset="1" stop-color="#007AD9"/>
</linearGradient>
<radialGradient id="paint3_radial_40_544" cx="0" cy="0" r="1" gradientUnits="userSpaceOnUse" gradientTransform="translate(9.81476 12.2152) scale(5.36571)">
<stop offset="0.693" stop-color="#006185"/>
<stop offset="0.921" stop-color="#35C1F1"/>
</radialGradient>
<linearGradient id="paint4_linear_40_544" x1="8.33429" y1="10.7152" x2="13.3405" y2="15.7214" gradientUnits="userSpaceOnUse">
<stop stop-color="#80DAFA"/>
<stop offset="1" stop-color="#0A85D9"/>
</linearGradient>
</defs>
</svg>
