<svg width="24" height="24" viewBox="0 0 24 24" fill="none" xmlns="http://www.w3.org/2000/svg">
<path d="M2 9.91667L5.71 6.94875C6.00583 6.71209 6.37292 6.58334 6.75125 6.58334H13.9242V14.5604L10.3804 17.285C9.21542 18.1808 7.78667 18.6667 6.31708 18.6667H2V9.91667Z" fill="url(#paint0_linear_40_635)"/>
<path d="M21.1667 14.5H9.50001C9.03959 14.5 8.66667 14.1271 8.66667 13.6667V6.16667C8.66667 5.70625 9.03959 5.33334 9.50001 5.33334H21.1667C21.6271 5.33334 22 5.70625 22 6.16667V13.6667C22 14.1271 21.6271 14.5 21.1667 14.5Z" fill="url(#paint1_linear_40_635)"/>
<path d="M5.75 14.0833L13.8596 10.4608L15.5633 13.3054L13.2883 15.0475L8.25 15.3333L5.75 14.0833Z" fill="url(#paint2_linear_40_635)"/>
<path d="M22 6.58334H8.66667V8.25H22V6.58334Z" fill="url(#paint3_linear_40_635)"/>
<path d="M14.5 13.6667C15.4205 13.6667 16.1667 12.9205 16.1667 12C16.1667 11.0795 15.4205 10.3333 14.5 10.3333C13.5795 10.3333 12.8333 11.0795 12.8333 12C12.8333 12.9205 13.5795 13.6667 14.5 13.6667Z" fill="url(#paint4_linear_40_635)"/>
<path d="M14.5 13.0417C15.0753 13.0417 15.5417 12.5753 15.5417 12C15.5417 11.4247 15.0753 10.9583 14.5 10.9583C13.9247 10.9583 13.4583 11.4247 13.4583 12C13.4583 12.5753 13.9247 13.0417 14.5 13.0417Z" fill="#FFDE87"/>
<path d="M7 13.25L8.66667 12.8333V6.58334H7V13.25Z" fill="url(#paint5_linear_40_635)"/>
<defs>
<linearGradient id="paint0_linear_40_635" x1="5.16708" y1="6.83667" x2="11.0613" y2="19.0421" gradientUnits="userSpaceOnUse">
<stop stop-color="#FFCF54"/>
<stop offset="0.261" stop-color="#FDCB4D"/>
<stop offset="0.639" stop-color="#F7C13A"/>
<stop offset="1" stop-color="#F0B421"/>
</linearGradient>
<linearGradient id="paint1_linear_40_635" x1="14.2267" y1="5.96584" x2="16.7829" y2="15.0908" gradientUnits="userSpaceOnUse">
<stop stop-color="#32BDEF"/>
<stop offset="1" stop-color="#1EA2E4"/>
</linearGradient>
<linearGradient id="paint2_linear_40_635" x1="5.56417" y1="3.14914" x2="13.4162" y2="19.4083" gradientUnits="userSpaceOnUse">
<stop stop-color="#FFCF54"/>
<stop offset="0.261" stop-color="#FDCB4D"/>
<stop offset="0.639" stop-color="#F7C13A"/>
<stop offset="1" stop-color="#F0B421"/>
</linearGradient>
<linearGradient id="paint3_linear_40_635" x1="8.66667" y1="7.41667" x2="22" y2="7.41667" gradientUnits="userSpaceOnUse">
<stop stop-color="#323538"/>
<stop offset="1" stop-color="#6D7479"/>
</linearGradient>
<linearGradient id="paint4_linear_40_635" x1="10.3037" y1="3.31084" x2="16.6175" y2="16.385" gradientUnits="userSpaceOnUse">
<stop stop-color="#FFCF54"/>
<stop offset="0.261" stop-color="#FDCB4D"/>
<stop offset="0.639" stop-color="#F7C13A"/>
<stop offset="1" stop-color="#F0B421"/>
</linearGradient>
<linearGradient id="paint5_linear_40_635" x1="7.3225" y1="9.86" x2="8.68333" y2="9.62084" gradientUnits="userSpaceOnUse">
<stop stop-color="#F0B421" stop-opacity="0"/>
<stop offset="0.512" stop-color="#E9AB12" stop-opacity="0.512"/>
<stop offset="1" stop-color="#E09F00"/>
</linearGradient>
</defs>
</svg>
