<svg width="24" height="24" viewBox="0 0 24 24" fill="none" xmlns="http://www.w3.org/2000/svg">
<path d="M21.4737 8.05263C21.4737 5.57895 19.4737 3.57895 17 3.57895C16.4211 3.57895 15.8947 3.68421 15.3684 3.89474C14.5789 2.73684 13.2632 2 11.7368 2C10.3158 2 9 2.68421 8.21052 3.73684C7.78947 3.63158 7.42105 3.57895 7 3.57895C4.52631 3.57895 2.52631 5.57895 2.52631 8.05263C2.52631 10.0526 3.8421 11.7895 5.68421 12.3158V22H18.3158V12.3158C20.1579 11.7895 21.4737 10.0526 21.4737 8.05263Z" fill="url(#paint0_linear_40_852)"/>
<path d="M8.8421 19.8947C8.52631 19.8947 8.31579 19.6316 8.31579 19.3684V14.6316C8.31579 14.3684 8.52631 14.1053 8.8421 14.1053C9.10526 14.1053 9.36842 14.3158 9.36842 14.6316V19.3684C9.36842 19.6316 9.15789 19.8947 8.8421 19.8947ZM12.5263 19.3684V14.6316C12.5263 14.3684 12.3158 14.1053 12 14.1053C11.7368 14.1053 11.4737 14.3158 11.4737 14.6316V19.3684C11.4737 19.6316 11.6842 19.8947 12 19.8947C12.3158 19.8947 12.5263 19.6316 12.5263 19.3684ZM15.6842 19.3684V14.6316C15.6842 14.3684 15.4737 14.1053 15.1579 14.1053C14.8947 14.1053 14.6316 14.3158 14.6316 14.6316V19.3684C14.6316 19.6316 14.8421 19.8947 15.1579 19.8947C15.4737 19.8947 15.6842 19.6316 15.6842 19.3684Z" fill="url(#paint1_linear_40_852)"/>
<path d="M5.68421 18.8421H18.3158V22H5.68421V18.8421Z" fill="url(#paint2_linear_40_852)"/>
<path opacity="0.05" d="M18.3158 18.3158H5.68421V18.8421H18.3158V18.3158Z" fill="#231F20"/>
<path opacity="0.07" d="M18.3158 18.5789H5.68421V18.8421H18.3158V18.5789Z" fill="#231F20"/>
<defs>
<linearGradient id="paint0_linear_40_852" x1="12" y1="2" x2="12" y2="22.2463" gradientUnits="userSpaceOnUse">
<stop stop-color="#A8E2F7"/>
<stop offset="1" stop-color="#47C1FF"/>
</linearGradient>
<linearGradient id="paint1_linear_40_852" x1="12" y1="14.1053" x2="12" y2="19.8947" gradientUnits="userSpaceOnUse">
<stop offset="0.002" stop-color="#427FDB"/>
<stop offset="0.397" stop-color="#2668CB"/>
<stop offset="0.763" stop-color="#1358BF"/>
<stop offset="1" stop-color="#0C52BB"/>
</linearGradient>
<linearGradient id="paint2_linear_40_852" x1="12" y1="16.641" x2="12" y2="22.1979" gradientUnits="userSpaceOnUse">
<stop stop-color="#32BDEF"/>
<stop offset="1" stop-color="#1EA2E4"/>
</linearGradient>
</defs>
</svg>
