<svg width="24" height="24" viewBox="0 0 24 24" fill="none" xmlns="http://www.w3.org/2000/svg">
<path d="M22 12C22 17.5225 17.5225 22 12 22C6.4775 22 2 17.5225 2 12C2 6.4775 6.4775 2 12 2C17.5225 2 22 6.4775 22 12Z" fill="url(#paint0_linear_40_828)"/>
<path opacity="0.05" d="M16.676 11.22L10.958 7.408C10.6695 7.2155 10.301 7.1975 9.9955 7.3615C9.69 7.525 9.5 7.8415 9.5 8.188V15.812C9.5 16.1585 9.69 16.4755 9.9955 16.639C10.1345 16.7135 10.286 16.75 10.4375 16.75C10.6195 16.75 10.8005 16.697 10.9575 16.5925L16.6755 12.7805C16.937 12.606 17.093 12.3145 17.093 12.0005C17.0935 11.686 16.937 11.3945 16.676 11.22Z" fill="black"/>
<path opacity="0.07" d="M10.8405 7.6185L16.2355 11.2155C16.58 11.463 16.812 11.6845 16.812 11.972C16.812 12.2595 16.7 12.46 16.4545 12.639C16.269 12.774 10.932 16.321 10.932 16.321C10.4815 16.623 9.75 16.559 9.75 15.5715V8.372C9.75 7.3695 10.542 7.4195 10.8405 7.6185Z" fill="black"/>
<path d="M10 15.784V8.2165C10 7.845 10.414 7.623 10.7235 7.8295L16.3995 11.6135C16.676 11.7975 16.676 12.2035 16.3995 12.388L10.7235 16.172C10.414 16.3775 10 16.156 10 15.784Z" fill="white"/>
<defs>
<linearGradient id="paint0_linear_40_828" x1="4.929" y1="4.929" x2="19.071" y2="19.071" gradientUnits="userSpaceOnUse">
<stop stop-color="#33BEF0"/>
<stop offset="1" stop-color="#0A85D9"/>
</linearGradient>
</defs>
</svg>
