<svg width="24" height="24" viewBox="0 0 24 24" fill="none" xmlns="http://www.w3.org/2000/svg">
<path d="M21.4737 3.05263H7.78947C7.49894 3.05263 7.26315 3.28842 7.26315 3.57894V15.1579C7.26315 15.4484 7.49894 15.6842 7.78947 15.6842H21.4737C21.7642 15.6842 22 15.4484 22 15.1579V3.57894C22 3.28842 21.7642 3.05263 21.4737 3.05263Z" fill="url(#paint0_linear_40_859)"/>
<path opacity="0.05" d="M11.2105 7.78947C11.1205 7.78947 7.26315 7.78947 7.26315 7.78947V10.4211C7.26315 10.4211 11.1205 10.4211 11.2105 10.4211C11.9374 10.4211 12.5263 9.83211 12.5263 9.10526C12.5263 8.37842 11.9374 7.78947 11.2105 7.78947Z" fill="black"/>
<path opacity="0.07" d="M11.2105 8.05263C11.1189 8.05263 7.26315 8.05263 7.26315 8.05263V10.1579C7.26315 10.1579 11.1189 10.1579 11.2105 10.1579C11.7921 10.1579 12.2632 9.68684 12.2632 9.10526C12.2632 8.52368 11.7921 8.05263 11.2105 8.05263Z" fill="black"/>
<path d="M4.10526 7.26315C2.94737 7.26315 2 6.31579 2 5.15789C2 4 2.94737 3.05263 4.10526 3.05263C5.26316 3.05263 6.21053 4 6.21053 5.15789C6.21053 6.31579 5.26316 7.26315 4.10526 7.26315Z" fill="url(#paint1_linear_40_859)"/>
<path d="M11.2105 8.31578H4.10526C2.94263 8.31578 2 9.25841 2 10.421V15.1579C2 15.4484 2.23579 15.6842 2.52632 15.6842H5.68421C5.97474 15.6842 6.21053 15.4484 6.21053 15.1579V10.421C6.21053 10.1305 6.44632 9.89473 6.73684 9.89473H11.2105C11.6463 9.89473 12 9.54104 12 9.10525C12 8.66946 11.6463 8.31578 11.2105 8.31578Z" fill="url(#paint2_linear_40_859)"/>
<path d="M4.10526 20.9474C2.94737 20.9474 2 20 2 18.8421C2 17.6842 2.94737 16.7368 4.10526 16.7368C5.26316 16.7368 6.21053 17.6842 6.21053 18.8421C6.21053 20 5.26316 20.9474 4.10526 20.9474Z" fill="url(#paint3_linear_40_859)"/>
<path d="M9.36842 20.9474C8.21052 20.9474 7.26315 20 7.26315 18.8421C7.26315 17.6842 8.21052 16.7368 9.36842 16.7368C10.5263 16.7368 11.4737 17.6842 11.4737 18.8421C11.4737 20 10.5263 20.9474 9.36842 20.9474Z" fill="url(#paint4_linear_40_859)"/>
<path d="M14.6316 20.9474C13.4737 20.9474 12.5263 20 12.5263 18.8421C12.5263 17.6842 13.4737 16.7368 14.6316 16.7368C15.7895 16.7368 16.7368 17.6842 16.7368 18.8421C16.7368 20 15.7895 20.9474 14.6316 20.9474Z" fill="url(#paint5_linear_40_859)"/>
<path d="M19.8947 20.9474C18.7368 20.9474 17.7895 20 17.7895 18.8421C17.7895 17.6842 18.7368 16.7368 19.8947 16.7368C21.0526 16.7368 22 17.6842 22 18.8421C22 20 21.0526 20.9474 19.8947 20.9474Z" fill="url(#paint6_linear_40_859)"/>
<defs>
<linearGradient id="paint0_linear_40_859" x1="10.528" y1="1.17086" x2="18.541" y2="14.8944" gradientUnits="userSpaceOnUse">
<stop stop-color="#FCFCFC"/>
<stop offset="0.95" stop-color="#C3C9CD"/>
</linearGradient>
<linearGradient id="paint1_linear_40_859" x1="2.65211" y1="3.70473" x2="5.54684" y2="6.59947" gradientUnits="userSpaceOnUse">
<stop stop-color="#32BDEF"/>
<stop offset="1" stop-color="#1EA2E4"/>
</linearGradient>
<linearGradient id="paint2_linear_40_859" x1="5.08947" y1="7.2221" x2="9.56211" y2="18.6553" gradientUnits="userSpaceOnUse">
<stop stop-color="#32BDEF"/>
<stop offset="1" stop-color="#1EA2E4"/>
</linearGradient>
<linearGradient id="paint3_linear_40_859" x1="2.65211" y1="17.3889" x2="5.54684" y2="20.2837" gradientUnits="userSpaceOnUse">
<stop stop-color="#32BDEF"/>
<stop offset="1" stop-color="#1EA2E4"/>
</linearGradient>
<linearGradient id="paint4_linear_40_859" x1="7.91526" y1="17.3889" x2="10.81" y2="20.2837" gradientUnits="userSpaceOnUse">
<stop stop-color="#32BDEF"/>
<stop offset="1" stop-color="#1EA2E4"/>
</linearGradient>
<linearGradient id="paint5_linear_40_859" x1="13.1784" y1="17.3889" x2="16.0732" y2="20.2837" gradientUnits="userSpaceOnUse">
<stop stop-color="#32BDEF"/>
<stop offset="1" stop-color="#1EA2E4"/>
</linearGradient>
<linearGradient id="paint6_linear_40_859" x1="18.4416" y1="17.3889" x2="21.3363" y2="20.2837" gradientUnits="userSpaceOnUse">
<stop stop-color="#32BDEF"/>
<stop offset="1" stop-color="#1EA2E4"/>
</linearGradient>
</defs>
</svg>
