<svg width="24" height="24" viewBox="0 0 24 24" fill="none" xmlns="http://www.w3.org/2000/svg">
<path d="M21.7561 7.85366V22H17.8537V7.85366C17.8537 7.5844 18.0722 7.36586 18.3415 7.36586H21.2683C21.5376 7.36586 21.7561 7.5844 21.7561 7.85366Z" fill="url(#paint0_linear_40_870)"/>
<path d="M17.8537 10.2927V22H13.9512V10.7805C13.9512 10.5112 14.1698 10.2927 14.439 10.2927H17.8537Z" fill="url(#paint1_linear_40_870)"/>
<path d="M13.9512 13.2195V22H10.0488V13.7073C10.0488 13.438 10.2673 13.2195 10.5366 13.2195H13.9512Z" fill="url(#paint2_linear_40_870)"/>
<path d="M10.0488 16.1463V22H6.14633V16.6342C6.14633 16.3649 6.36487 16.1463 6.63414 16.1463H10.0488Z" fill="url(#paint3_linear_40_870)"/>
<path d="M6.14634 19.0732V22H2.2439V19.561C2.2439 19.2917 2.46243 19.0732 2.7317 19.0732H6.14634Z" fill="url(#paint4_linear_40_870)"/>
<path d="M6.63414 9.2239V2.4878C6.63414 2.21854 6.4156 2 6.14634 2H4.19512C3.92585 2 3.70731 2.21854 3.70731 2.4878V9.2239C2.83316 9.73024 2.2439 10.6732 2.2439 11.7561C2.2439 13.3727 3.55414 14.6829 5.17073 14.6829C6.78731 14.6829 8.09756 13.3727 8.09756 11.7561C8.09756 10.6732 7.50829 9.73024 6.63414 9.2239Z" fill="url(#paint5_linear_40_870)"/>
<path d="M5.65854 9.87365V5.41463H4.68293V9.87365C3.84293 10.0912 3.21951 10.8478 3.21951 11.7561C3.21951 12.8337 4.09317 13.7073 5.17073 13.7073C6.24829 13.7073 7.12195 12.8337 7.12195 11.7561C7.12195 10.8478 6.49854 10.0912 5.65854 9.87365Z" fill="url(#paint6_linear_40_870)"/>
<path d="M5.65853 2.97562H4.68292V5.41464H5.65853V2.97562Z" fill="#1B9DE2"/>
<defs>
<linearGradient id="paint0_linear_40_870" x1="17.8537" y1="14.6829" x2="21.7561" y2="14.6829" gradientUnits="userSpaceOnUse">
<stop stop-color="#50E6FF"/>
<stop offset="1" stop-color="#35C1F1"/>
</linearGradient>
<linearGradient id="paint1_linear_40_870" x1="13.9512" y1="16.1463" x2="17.8537" y2="16.1463" gradientUnits="userSpaceOnUse">
<stop stop-color="#32BDEF"/>
<stop offset="1" stop-color="#1EA2E4"/>
</linearGradient>
<linearGradient id="paint2_linear_40_870" x1="10.0488" y1="17.6098" x2="13.9512" y2="17.6098" gradientUnits="userSpaceOnUse">
<stop stop-color="#199BE2"/>
<stop offset="1" stop-color="#0078D4"/>
</linearGradient>
<linearGradient id="paint3_linear_40_870" x1="6.14633" y1="19.0732" x2="10.0488" y2="19.0732" gradientUnits="userSpaceOnUse">
<stop stop-color="#0078D4"/>
<stop offset="1" stop-color="#0D62AB"/>
</linearGradient>
<linearGradient id="paint4_linear_40_870" x1="2.2439" y1="20.5366" x2="6.14634" y2="20.5366" gradientUnits="userSpaceOnUse">
<stop stop-color="#0078D4"/>
<stop offset="1" stop-color="#0D578E"/>
</linearGradient>
<linearGradient id="paint5_linear_40_870" x1="2.2439" y1="8.34146" x2="8.09756" y2="8.34146" gradientUnits="userSpaceOnUse">
<stop stop-color="#50E6FF"/>
<stop offset="1" stop-color="#35C1F1"/>
</linearGradient>
<linearGradient id="paint6_linear_40_870" x1="3.21951" y1="9.56097" x2="7.12195" y2="9.56097" gradientUnits="userSpaceOnUse">
<stop stop-color="#D12845"/>
<stop offset="1" stop-color="#AF2031"/>
</linearGradient>
</defs>
</svg>
