<svg width="24" height="24" viewBox="0 0 24 24" fill="none" xmlns="http://www.w3.org/2000/svg">
<path d="M22 11.1665C22 8.43729 19.8167 6.22062 17.1 6.17062C15.9 4.40812 13.8792 3.24979 11.5833 3.24979C8.44167 3.24979 5.8125 5.42062 5.10417 8.34145C3.325 8.73312 2 10.3165 2 12.2081C2 14.3956 3.77083 16.1665 5.95833 16.1665H6.17667C6.87917 17.6431 8.38083 18.6665 10.125 18.6665C11.495 18.6665 12.7171 18.0356 13.5192 17.0498C13.975 17.5315 14.6183 17.8331 15.3333 17.8331C16.4425 17.8331 17.3813 17.1102 17.7083 16.1106C20.1342 15.766 22 13.6877 22 11.1665Z" fill="url(#paint0_linear_40_902)"/>
<path opacity="0.05" d="M21.425 13.4873C21.3917 13.554 21.3583 13.6165 21.3208 13.6748C20.5708 14.9706 19.25 15.8915 17.7083 16.1123C17.4458 16.9165 16.7833 17.5415 15.9583 17.754C15.8875 17.7706 15.8208 17.7873 15.75 17.7998V14.2915C15.75 13.3498 18.0792 13.2498 19.0833 13.2498C19.6583 13.2498 20.6708 13.2831 21.425 13.4873Z" fill="black"/>
<path opacity="0.07" d="M21.3208 13.6748C20.5708 14.9706 19.25 15.8914 17.7083 16.1123C17.4458 16.9164 16.7833 17.5414 15.9583 17.7539V14.2914C15.9583 13.4831 18.7625 13.4581 19.0833 13.4581C19.2833 13.4581 20.4708 13.4664 21.3208 13.6748Z" fill="black"/>
<path d="M22 17.8594H16.1667C16.1667 17.8594 16.1667 19.8385 16.1667 19.9794C16.1667 20.4052 17.4725 20.7502 19.0833 20.7502C20.6942 20.7502 22 20.4052 22 19.9794C22 19.8385 22 17.8594 22 17.8594Z" fill="url(#paint1_linear_40_902)"/>
<path d="M22 16.0365H16.1667C16.1667 16.0365 16.1667 18.1227 16.1667 18.2706C16.1667 18.7194 17.4725 19.0831 19.0833 19.0831C20.6942 19.0831 22 18.7194 22 18.2706C22 18.1227 22 16.0365 22 16.0365Z" fill="url(#paint2_linear_40_902)"/>
<path d="M22 14.2915H16.1667C16.1667 14.2915 16.1667 16.1552 16.1667 16.3031C16.1667 16.6877 17.4725 16.9998 19.0833 16.9998C20.6942 16.9998 22 16.6877 22 16.3031C22 16.1552 22 14.2915 22 14.2915Z" fill="url(#paint3_linear_40_902)"/>
<path d="M19.0833 14.9165C20.6942 14.9165 22 14.6366 22 14.2915C22 13.9463 20.6942 13.6665 19.0833 13.6665C17.4725 13.6665 16.1667 13.9463 16.1667 14.2915C16.1667 14.6366 17.4725 14.9165 19.0833 14.9165Z" fill="url(#paint4_linear_40_902)"/>
<defs>
<linearGradient id="paint0_linear_40_902" x1="6.43083" y1="0.95312" x2="15.6754" y2="18.5585" gradientUnits="userSpaceOnUse">
<stop stop-color="#FCFCFC"/>
<stop offset="0.95" stop-color="#C3C9CD"/>
</linearGradient>
<linearGradient id="paint1_linear_40_902" x1="16.1667" y1="19.3048" x2="22" y2="19.3048" gradientUnits="userSpaceOnUse">
<stop stop-color="#11408A"/>
<stop offset="1" stop-color="#103F8F"/>
</linearGradient>
<linearGradient id="paint2_linear_40_902" x1="16.1667" y1="17.5598" x2="22" y2="17.5598" gradientUnits="userSpaceOnUse">
<stop stop-color="#1D59B3"/>
<stop offset="1" stop-color="#195BBC"/>
</linearGradient>
<linearGradient id="paint3_linear_40_902" x1="16.1667" y1="15.6456" x2="22" y2="15.6456" gradientUnits="userSpaceOnUse">
<stop stop-color="#3079D6"/>
<stop offset="1" stop-color="#297CD2"/>
</linearGradient>
<linearGradient id="paint4_linear_40_902" x1="16.1667" y1="14.2915" x2="22" y2="14.2915" gradientUnits="userSpaceOnUse">
<stop stop-color="#42A3F2"/>
<stop offset="1" stop-color="#42A4EB"/>
</linearGradient>
</defs>
</svg>
