<svg width="24" height="24" viewBox="0 0 24 24" fill="none" xmlns="http://www.w3.org/2000/svg">
<path d="M12.841 19.5H9C7.6215 19.5 6.5 18.3785 6.5 17V14C6.5 13.724 6.7235 13.5 7 13.5C7.2765 13.5 7.5 13.724 7.5 14V17C7.5 17.827 8.173 18.5 9 18.5H12.841C13.1175 18.5 13.341 18.7235 13.341 19C13.341 19.2765 13.117 19.5 12.841 19.5Z" fill="url(#paint0_linear_40_880)"/>
<path d="M18.5 20.4865V20.514C18.5 20.7825 18.2825 21 18.0135 21H15.977V20H18.0135C18.2825 20 18.5 20.2175 18.5 20.4865Z" fill="url(#paint1_linear_40_880)"/>
<path d="M18.5 17.4865V17.514C18.5 17.7825 18.2825 18 18.0135 18H15.977V17H18.0135C18.2825 17 18.5 17.2175 18.5 17.4865Z" fill="url(#paint2_linear_40_880)"/>
<path d="M11 20V18C11 17.51 11.286 17.0085 11.7395 16.7895C12.1325 16.599 12.5665 16.5 13.006 16.5H15.3465V21.5H13.006C12.566 21.5 12.1325 21.401 11.739 21.2105C11.286 20.9915 11 20.49 11 20Z" fill="#A1AAB3"/>
<path d="M15.0315 21.5V16.5C15.0315 16.224 15.2555 16 15.5315 16H16.108C16.384 16 16.608 16.224 16.608 16.5V21.5C16.608 21.776 16.384 22 16.108 22H15.5315C15.255 22 15.0315 21.776 15.0315 21.5Z" fill="#8795A1"/>
<path d="M17.0915 5.017C15.996 3.211 14.017 2 11.75 2C8.7065 2 6.174 4.1765 5.617 7.0575C3.848 7.359 2.5 8.895 2.5 10.75C2.5 12.821 4.179 14.5 6.25 14.5C6.2535 14.5 6.257 14.4995 6.2605 14.4995V14.5H16.75C19.3735 14.5 21.5 12.3735 21.5 9.75C21.5 7.242 19.555 5.193 17.0915 5.017Z" fill="url(#paint3_linear_40_880)"/>
<defs>
<linearGradient id="paint0_linear_40_880" x1="11.4095" y1="16.5" x2="9.239" y2="16.5" gradientUnits="userSpaceOnUse">
<stop offset="0.168" stop-color="#C9CDCF"/>
<stop offset="0.269" stop-color="#D2D5D7"/>
<stop offset="0.482" stop-color="#E1E2E4"/>
<stop offset="0.859" stop-color="#E4E4E6"/>
</linearGradient>
<linearGradient id="paint1_linear_40_880" x1="18.413" y1="20.5" x2="16.336" y2="20.5" gradientUnits="userSpaceOnUse">
<stop stop-color="#FEDE00"/>
<stop offset="0.787" stop-color="#FFD400"/>
<stop offset="1" stop-color="#FFD000"/>
</linearGradient>
<linearGradient id="paint2_linear_40_880" x1="18.473" y1="17.5" x2="16.57" y2="17.5" gradientUnits="userSpaceOnUse">
<stop stop-color="#FEDE00"/>
<stop offset="0.567" stop-color="#FED900"/>
<stop offset="1" stop-color="#FFD000"/>
</linearGradient>
<linearGradient id="paint3_linear_40_880" x1="8.416" y1="3.3855" x2="15.0985" y2="15.9535" gradientUnits="userSpaceOnUse">
<stop stop-color="#2AA4F4"/>
<stop offset="1" stop-color="#007AD9"/>
</linearGradient>
</defs>
</svg>
