<svg width="24" height="24" viewBox="0 0 24 24" fill="none" xmlns="http://www.w3.org/2000/svg">
<path d="M12.1971 5.53047L10.9895 4.32285C10.7219 4.05523 10.3586 3.90475 9.97952 3.90475H2.95238C2.42619 3.90475 2 4.33095 2 4.85714V19.1428C2 19.669 2.42619 20.0952 2.95238 20.0952H21.0476C21.5738 20.0952 22 19.669 22 19.1428V6.7619C22 6.23571 21.5738 5.80952 21.0476 5.80952H12.8705C12.6181 5.80952 12.3757 5.70904 12.1971 5.53047Z" fill="url(#paint0_linear_40_897)"/>
<path d="M10.8505 7.43522L12.4067 5.87903C12.451 5.83475 12.5114 5.80951 12.5748 5.80951H21.0476C21.5738 5.80951 22 6.2357 22 6.76189V19.1428C22 19.669 21.5738 20.0952 21.0476 20.0952H2.95238C2.42619 20.0952 2 19.669 2 19.1428V7.95237C2 7.82094 2.10667 7.71427 2.2381 7.71427H10.1771C10.4295 7.71427 10.6719 7.61379 10.8505 7.43522Z" fill="url(#paint1_linear_40_897)"/>
<path d="M15.0119 12.0076C14.4781 10.8786 13.3319 10.0952 12 10.0952C10.32 10.0952 8.93381 11.3395 8.70381 12.9562C8.69143 12.9557 8.67952 12.9524 8.66667 12.9524C7.3519 12.9524 6.28571 14.0186 6.28571 15.3333C6.28571 16.6481 7.3519 17.7143 8.66667 17.7143C9.5519 17.7143 13.979 17.7143 14.8571 17.7143C16.4352 17.7143 17.7143 16.4352 17.7143 14.8571C17.7143 13.3314 16.5176 12.0886 15.0119 12.0076Z" fill="url(#paint2_linear_40_897)"/>
<defs>
<linearGradient id="paint0_linear_40_897" x1="12" y1="3.76571" x2="12" y2="7.70333" gradientUnits="userSpaceOnUse">
<stop stop-color="#EBA600"/>
<stop offset="1" stop-color="#C28200"/>
</linearGradient>
<linearGradient id="paint1_linear_40_897" x1="12" y1="5.73999" x2="12" y2="20.0871" gradientUnits="userSpaceOnUse">
<stop stop-color="#FFD869"/>
<stop offset="1" stop-color="#FEC52B"/>
</linearGradient>
<linearGradient id="paint2_linear_40_897" x1="10.3243" y1="10.4624" x2="13.0295" y2="17.8748" gradientUnits="userSpaceOnUse">
<stop stop-color="#2AA4F4"/>
<stop offset="1" stop-color="#007AD9"/>
</linearGradient>
</defs>
</svg>
