<svg width="24" height="24" viewBox="0 0 24 24" fill="none" xmlns="http://www.w3.org/2000/svg">
<path d="M11.4737 3.05263H20.9474C21.2379 3.05263 21.4737 3.28842 21.4737 3.57894V10.1042C21.4737 10.3647 21.1284 10.4568 20.9984 10.2316L19.8947 8.31579H11.4737C11.1832 8.31579 10.9474 8.08 10.9474 7.78947V3.57894C10.9474 3.28842 11.1832 3.05263 11.4737 3.05263Z" fill="url(#paint0_linear_40_958)"/>
<path d="M17.7895 15.1579C19.2428 15.1579 20.4211 13.9797 20.4211 12.5263C20.4211 11.0729 19.2428 9.89473 17.7895 9.89473C16.3361 9.89473 15.1579 11.0729 15.1579 12.5263C15.1579 13.9797 16.3361 15.1579 17.7895 15.1579Z" fill="url(#paint1_linear_40_958)"/>
<path d="M6.21053 15.1579C7.66391 15.1579 8.84211 13.9797 8.84211 12.5263C8.84211 11.0729 7.66391 9.89473 6.21053 9.89473C4.75715 9.89473 3.57895 11.0729 3.57895 12.5263C3.57895 13.9797 4.75715 15.1579 6.21053 15.1579Z" fill="url(#paint2_linear_40_958)"/>
<path d="M17.7895 16.2105C15.4642 16.2105 13.5789 18.0958 13.5789 20.4211V21.4332C13.5789 21.7463 13.8326 22 14.1458 22H21.4332C21.7463 22 22 21.7463 22 21.4332V20.4211C22 18.0958 20.1147 16.2105 17.7895 16.2105Z" fill="url(#paint3_linear_40_958)"/>
<path d="M6.21053 16.2105C3.88526 16.2105 2 18.0958 2 20.4211V21.4332C2 21.7463 2.25368 22 2.56684 22H9.85421C10.1674 22 10.4211 21.7463 10.4211 21.4332V20.4211C10.4211 18.0958 8.53579 16.2105 6.21053 16.2105Z" fill="url(#paint4_linear_40_958)"/>
<path opacity="0.05" d="M12.5263 7.78947H10.9474V3.05263H13.579V6.73684C13.579 7.31842 13.1079 7.78947 12.5263 7.78947Z" fill="black"/>
<path opacity="0.07" d="M12.5263 7.52631H10.9474V3.05263H13.3158V6.73684C13.3158 7.17263 12.9621 7.52631 12.5263 7.52631Z" fill="black"/>
<path d="M12.5263 2H3.05264C2.76211 2 2.52632 2.23579 2.52632 2.52632V9.05158C2.52632 9.31211 2.87158 9.40421 3.00158 9.17895L4.10527 7.26316H12.5263C12.8168 7.26316 13.0526 7.02737 13.0526 6.73684V2.52632C13.0526 2.23579 12.8168 2 12.5263 2Z" fill="url(#paint5_linear_40_958)"/>
<defs>
<linearGradient id="paint0_linear_40_958" x1="14.6347" y1="3.48579" x2="19.9295" y2="10.8726" gradientUnits="userSpaceOnUse">
<stop stop-color="#037478"/>
<stop offset="1" stop-color="#006063"/>
</linearGradient>
<linearGradient id="paint1_linear_40_958" x1="16.0142" y1="10.751" x2="19.9305" y2="14.6668" gradientUnits="userSpaceOnUse">
<stop stop-color="#32BDEF"/>
<stop offset="1" stop-color="#1EA2E4"/>
</linearGradient>
<linearGradient id="paint2_linear_40_958" x1="4.43526" y1="10.751" x2="8.35105" y2="14.6668" gradientUnits="userSpaceOnUse">
<stop stop-color="#32BDEF"/>
<stop offset="1" stop-color="#1EA2E4"/>
</linearGradient>
<linearGradient id="paint3_linear_40_958" x1="15.4516" y1="15.9253" x2="18.7189" y2="22.3005" gradientUnits="userSpaceOnUse">
<stop stop-color="#32BDEF"/>
<stop offset="1" stop-color="#1EA2E4"/>
</linearGradient>
<linearGradient id="paint4_linear_40_958" x1="3.92947" y1="16.1647" x2="7.51526" y2="22.9384" gradientUnits="userSpaceOnUse">
<stop stop-color="#32BDEF"/>
<stop offset="1" stop-color="#1EA2E4"/>
</linearGradient>
<linearGradient id="paint5_linear_40_958" x1="6.08264" y1="2.59842" x2="10.0047" y2="9.85421" gradientUnits="userSpaceOnUse">
<stop stop-color="#20AFB5"/>
<stop offset="1" stop-color="#16979D"/>
</linearGradient>
</defs>
</svg>
