<svg width="24" height="24" viewBox="0 0 24 24" fill="none" xmlns="http://www.w3.org/2000/svg">
<path d="M22 11.5238V20.0952C22 20.6214 21.5738 21.0476 21.0476 21.0476H12.4762C11.95 21.0476 11.5238 20.6214 11.5238 20.0952V8.66666C11.5238 8.14047 11.95 7.71428 12.4762 7.71428H18.1905L22 11.5238Z" fill="url(#paint0_linear_40_1040)"/>
<path d="M18.1905 7.71428V10.5714C18.1905 11.0976 18.6167 11.5238 19.1429 11.5238H22L18.1905 7.71428Z" fill="url(#paint1_linear_40_1040)"/>
<path opacity="0.05" d="M11.5238 16.7619C12.3095 16.7619 12.9524 16.119 12.9524 15.3333V7.71428H12.4762C11.95 7.71428 11.5238 8.14047 11.5238 8.66666V16.7619Z" fill="black"/>
<path opacity="0.05" d="M12.4762 7.71428H12.7143V15.3333C12.7143 15.9909 12.1814 16.5238 11.5238 16.5238V8.66666C11.5238 8.14047 11.95 7.71428 12.4762 7.71428Z" fill="black"/>
<path d="M12.4762 6.7619V15.3333C12.4762 15.8595 12.05 16.2857 11.5238 16.2857H2.95238C2.42619 16.2857 2 15.8595 2 15.3333V3.90476C2 3.37857 2.42619 2.95238 2.95238 2.95238H8.66667L12.4762 6.7619Z" fill="url(#paint2_linear_40_1040)"/>
<path d="M8.66667 2.95238V5.80952C8.66667 6.33571 9.09286 6.7619 9.61905 6.7619H12.4762L8.66667 2.95238Z" fill="url(#paint3_linear_40_1040)"/>
<path d="M7.71429 11.5133V12.7352C7.71429 12.9286 7.9481 13.0252 8.08429 12.8881L9.86952 11.0933C10.0252 10.9362 10.0252 10.6829 9.86952 10.5262L8.08429 8.73143C7.9481 8.59381 7.71429 8.69047 7.71429 8.88381V10.441" fill="url(#paint4_linear_40_1040)"/>
<path d="M8.19048 10.0952H4.61905C4.48762 10.0952 4.38095 10.2019 4.38095 10.3333V11.2857C4.38095 11.4171 4.48762 11.5238 4.61905 11.5238H8.19048" fill="url(#paint5_linear_40_1040)"/>
<path d="M15.3333 16.2857H19.381C19.5124 16.2857 19.619 16.179 19.619 16.0476V15.0952C19.619 14.9638 19.5124 14.8571 19.381 14.8571H15.3333" fill="url(#paint6_linear_40_1040)"/>
<path d="M16.2857 15.2029V13.6457C16.2857 13.4524 16.0519 13.3557 15.9157 13.4929L14.1305 15.2876C13.9748 15.4443 13.9748 15.6976 14.1305 15.8548L15.9157 17.6495C16.0519 17.7871 16.2857 17.6905 16.2857 17.4971V16.2752" fill="url(#paint7_linear_40_1040)"/>
<defs>
<linearGradient id="paint0_linear_40_1040" x1="13.8448" y1="5.72797" x2="23.459" y2="16.8171" gradientUnits="userSpaceOnUse">
<stop stop-color="#FCFCFC"/>
<stop offset="0.95" stop-color="#C3C9CD"/>
</linearGradient>
<linearGradient id="paint1_linear_40_1040" x1="17.7367" y1="11.9781" x2="21.8705" y2="7.84333" gradientUnits="userSpaceOnUse">
<stop stop-color="#0077D2"/>
<stop offset="1" stop-color="#0B59A2"/>
</linearGradient>
<linearGradient id="paint2_linear_40_1040" x1="5.30299" y1="3.15708" x2="12.7198" y2="14.3929" gradientUnits="userSpaceOnUse">
<stop stop-color="#7DD8F3"/>
<stop offset="1" stop-color="#45B0D0"/>
</linearGradient>
<linearGradient id="paint3_linear_40_1040" x1="8.92667" y1="6.5019" x2="10.6048" y2="4.82381" gradientUnits="userSpaceOnUse">
<stop stop-color="#3079D6"/>
<stop offset="1" stop-color="#297CD2"/>
</linearGradient>
<linearGradient id="paint4_linear_40_1040" x1="8.21764" y1="8.02831" x2="11.2438" y2="10.3834" gradientUnits="userSpaceOnUse">
<stop stop-color="#FCFCFC"/>
<stop offset="0.95" stop-color="#C3C9CD"/>
</linearGradient>
<linearGradient id="paint5_linear_40_1040" x1="5.36916" y1="10.0134" x2="5.99006" y2="11.7611" gradientUnits="userSpaceOnUse">
<stop stop-color="#FCFCFC"/>
<stop offset="0.495" stop-color="#F4F4F4"/>
<stop offset="0.946" stop-color="#E8E8E8"/>
<stop offset="1" stop-color="#E8E8E8"/>
</linearGradient>
<linearGradient id="paint6_linear_40_1040" x1="15.7465" y1="14.9111" x2="17.0164" y2="17.2798" gradientUnits="userSpaceOnUse">
<stop stop-color="#A1AAB3"/>
<stop offset="1" stop-color="#8F979E"/>
</linearGradient>
<linearGradient id="paint7_linear_40_1040" x1="14.2327" y1="13.5906" x2="16.9525" y2="14.4871" gradientUnits="userSpaceOnUse">
<stop stop-color="#A1AAB3"/>
<stop offset="1" stop-color="#8F979E"/>
</linearGradient>
</defs>
</svg>
