<svg width="24" height="24" viewBox="0 0 24 24" fill="none" xmlns="http://www.w3.org/2000/svg">
<path d="M11.2791 4.23364L10.1264 3.08091C9.87091 2.82546 9.52409 2.68182 9.16227 2.68182H2.90909C2.40682 2.68182 2 3.08864 2 3.59091V6.54546L2.90909 16.3182C2.90909 16.8205 3.31591 17.2273 3.81818 17.2273H18.3636C18.8659 17.2273 19.2727 16.8205 19.2727 16.3182V5.86364C19.2727 5.36137 18.8659 4.95455 18.3636 4.95455L11.9218 4.50001C11.6809 4.50001 11.4495 4.4041 11.2791 4.23364Z" fill="url(#paint0_linear_40_1146)"/>
<path d="M9.99364 6.05182L11.4791 4.56636C11.5214 4.52409 11.5791 4.5 11.6395 4.5H19.2727C19.775 4.5 20.1818 4.90682 20.1818 5.40909V17.2273C20.1818 17.7295 19.775 18.1364 19.2727 18.1364H2.90909C2.40682 18.1364 2 17.7295 2 17.2273V6.54545C2 6.42 2.10182 6.31818 2.22727 6.31818H9.35091C9.59182 6.31818 9.82318 6.22227 9.99364 6.05182Z" fill="url(#paint1_linear_40_1146)"/>
<path opacity="0.05" d="M20.6364 12.0409V18.1364H13.3636V13.5909C13.3636 12.8409 13.9773 12.2273 14.7273 12.2273C14.7273 11.4773 15.3409 10.8636 16.0909 10.8636H19.4591L20.6364 12.0409Z" fill="black"/>
<path opacity="0.07" d="M20.6364 12.3591V18.1364H13.5909V13.5909C13.5909 12.9636 14.1 12.4545 14.7273 12.4545H14.9545V12.2273C14.9545 11.6 15.4636 11.0909 16.0909 11.0909H19.3682L20.6364 12.3591Z" fill="black"/>
<path d="M19.7273 21.3182H14.7273C14.225 21.3182 13.8182 20.9114 13.8182 20.4091V13.5909C13.8182 13.0886 14.225 12.6818 14.7273 12.6818H17.9091C18.3636 13.5909 19.7273 14.9546 20.6364 15.4091V20.4091C20.6364 20.9114 20.2295 21.3182 19.7273 21.3182Z" fill="url(#paint2_linear_40_1146)"/>
<path d="M21.0909 19.9546H16.0909C15.5886 19.9546 15.1818 19.5477 15.1818 19.0455V12.2273C15.1818 11.725 15.5886 11.3182 16.0909 11.3182H19.2727C19.7273 12.2273 21.0909 13.5909 22 14.0455V19.0455C22 19.5477 21.5932 19.9546 21.0909 19.9546Z" fill="url(#paint3_linear_40_1146)"/>
<path d="M19.2727 11.3182V13.1364C19.2727 13.6386 19.6795 14.0455 20.1818 14.0455H22L19.2727 11.3182Z" fill="url(#paint4_linear_40_1146)"/>
<defs>
<linearGradient id="paint0_linear_40_1146" x1="10.6364" y1="2.55682" x2="10.6364" y2="6.09455" gradientUnits="userSpaceOnUse">
<stop stop-color="#EBA600"/>
<stop offset="1" stop-color="#C28200"/>
</linearGradient>
<linearGradient id="paint1_linear_40_1146" x1="11.0909" y1="4.43364" x2="11.0909" y2="18.1286" gradientUnits="userSpaceOnUse">
<stop stop-color="#FFD869"/>
<stop offset="1" stop-color="#FEC52B"/>
</linearGradient>
<linearGradient id="paint2_linear_40_1146" x1="15.3287" y1="11.3953" x2="21.5518" y2="18.6074" gradientUnits="userSpaceOnUse">
<stop stop-color="#FCFCFC"/>
<stop offset="0.95" stop-color="#C3C9CD"/>
</linearGradient>
<linearGradient id="paint3_linear_40_1146" x1="17.3315" y1="11.4508" x2="22.1265" y2="18.7496" gradientUnits="userSpaceOnUse">
<stop stop-color="#7DD8F3"/>
<stop offset="1" stop-color="#45B0D0"/>
</linearGradient>
<linearGradient id="paint4_linear_40_1146" x1="19.5259" y1="13.7918" x2="20.6586" y2="12.6596" gradientUnits="userSpaceOnUse">
<stop stop-color="#3079D6"/>
<stop offset="1" stop-color="#297CD2"/>
</linearGradient>
</defs>
</svg>
