<svg width="24" height="24" viewBox="0 0 24 24" fill="none" xmlns="http://www.w3.org/2000/svg">
<path d="M2 20V8.5H22V20C22 20.55 21.55 21 21 21H3C2.45 21 2 20.55 2 20Z" fill="url(#paint0_linear_40_1165)"/>
<path d="M22 6V8.5H2V6C2 5.45 2.45 5 3 5H21C21.55 5 22 5.45 22 6Z" fill="url(#paint1_linear_40_1165)"/>
<path d="M8.25 7.5H20.75C20.888 7.5 21 7.388 21 7.25V6.25C21 6.112 20.888 6 20.75 6H8.25C8.112 6 8 6.112 8 6.25V7.25C8 7.388 8.112 7.5 8.25 7.5Z" fill="url(#paint2_linear_40_1165)"/>
<path d="M3.75 7.5C4.16421 7.5 4.5 7.16421 4.5 6.75C4.5 6.33579 4.16421 6 3.75 6C3.33579 6 3 6.33579 3 6.75C3 7.16421 3.33579 7.5 3.75 7.5Z" fill="url(#paint3_linear_40_1165)"/>
<path d="M6.25 7.5C6.66421 7.5 7 7.16421 7 6.75C7 6.33579 6.66421 6 6.25 6C5.83579 6 5.5 6.33579 5.5 6.75C5.5 7.16421 5.83579 7.5 6.25 7.5Z" fill="url(#paint4_linear_40_1165)"/>
<path opacity="0.05" d="M15.5 5V14C15.5 14.0985 15.5295 14.1955 15.584 14.2775L16.584 15.7775C16.677 15.9165 16.833 16 17 16C17.167 16 17.323 15.9165 17.416 15.7775L18.416 14.2775C18.4705 14.1955 18.5 14.0985 18.5 14V5H15.5Z" fill="black"/>
<path opacity="0.07" d="M15.75 5V14C15.75 14.0495 15.7645 14.0975 15.792 14.1385L16.792 15.6385C16.885 15.778 17.115 15.778 17.208 15.6385L18.208 14.1385C18.2355 14.0975 18.25 14.0495 18.25 14V5H15.75Z" fill="black"/>
<path d="M17.5 3H16.5C16.224 3 16 3.224 16 3.5V4.5H18V3.5C18 3.224 17.776 3 17.5 3Z" fill="#C94F60"/>
<path d="M18 14L17 15.5L16 14L16.98 12.65L18 14Z" fill="#F0F0F0"/>
<path d="M18 5V14H16V5H18Z" fill="url(#paint5_linear_40_1165)"/>
<path d="M16 5.5V4H18V5.5H16Z" fill="url(#paint6_linear_40_1165)"/>
<path d="M16.5 14.75H17.5L17 15.5L16.5 14.75Z" fill="#787878"/>
<defs>
<linearGradient id="paint0_linear_40_1165" x1="8.30571" y1="8.69191" x2="12.742" y2="22.3773" gradientUnits="userSpaceOnUse">
<stop stop-color="#7DD8F3"/>
<stop offset="1" stop-color="#45B0D0"/>
</linearGradient>
<linearGradient id="paint1_linear_40_1165" x1="2.307" y1="4.8705" x2="21.468" y2="8.7665" gradientUnits="userSpaceOnUse">
<stop stop-color="#0077D2"/>
<stop offset="1" stop-color="#0B59A2"/>
</linearGradient>
<linearGradient id="paint2_linear_40_1165" x1="8" y1="6.75" x2="21" y2="6.75" gradientUnits="userSpaceOnUse">
<stop stop-color="#7DD8F3"/>
<stop offset="1" stop-color="#45B0D0"/>
</linearGradient>
<linearGradient id="paint3_linear_40_1165" x1="3.3755" y1="6.208" x2="4.016" y2="7.1345" gradientUnits="userSpaceOnUse">
<stop stop-color="#75DAFF"/>
<stop offset="1" stop-color="#49BEF1"/>
</linearGradient>
<linearGradient id="paint4_linear_40_1165" x1="5.8755" y1="6.208" x2="6.516" y2="7.1345" gradientUnits="userSpaceOnUse">
<stop stop-color="#75DAFF"/>
<stop offset="1" stop-color="#49BEF1"/>
</linearGradient>
<linearGradient id="paint5_linear_40_1165" x1="16" y1="9.5" x2="18" y2="9.5" gradientUnits="userSpaceOnUse">
<stop stop-color="#FFD869"/>
<stop offset="0.765625" stop-color="#F2C032"/>
<stop offset="1" stop-color="#FFD869"/>
</linearGradient>
<linearGradient id="paint6_linear_40_1165" x1="16.1857" y1="3.93568" x2="17.9245" y2="5.67445" gradientUnits="userSpaceOnUse">
<stop stop-color="#DEDEDE"/>
<stop offset="1" stop-color="#D6D6D6"/>
</linearGradient>
</defs>
</svg>
