<svg width="24" height="24" viewBox="0 0 24 24" fill="none" xmlns="http://www.w3.org/2000/svg">
<path d="M20.4211 14.1053H3.57895C3.57895 14.1053 3.57895 19.511 3.57895 19.8947C3.57895 21.0574 7.34895 22 12 22C16.6511 22 20.4211 21.0574 20.4211 19.8947C20.4211 19.511 20.4211 14.1053 20.4211 14.1053Z" fill="url(#paint0_linear_40_1293)"/>
<path d="M20.4211 8.8421H3.57895C3.57895 8.8421 3.57895 14.2479 3.57895 14.6316C3.57895 15.7942 7.34895 16.7368 12 16.7368C16.6511 16.7368 20.4211 15.7942 20.4211 14.6316C20.4211 14.2479 20.4211 8.8421 20.4211 8.8421Z" fill="url(#paint1_linear_40_1293)"/>
<path d="M20.4211 3.57895H3.57895C3.57895 3.57895 3.57895 8.71369 3.57895 9.10527C3.57895 10.1226 7.34895 10.9474 12 10.9474C16.6511 10.9474 20.4211 10.1226 20.4211 9.10527C20.4211 8.71369 20.4211 3.57895 20.4211 3.57895Z" fill="url(#paint2_linear_40_1293)"/>
<path d="M12 5.15789C16.6508 5.15789 20.4211 4.45098 20.4211 3.57895C20.4211 2.70692 16.6508 2 12 2C7.34918 2 3.57895 2.70692 3.57895 3.57895C3.57895 4.45098 7.34918 5.15789 12 5.15789Z" fill="url(#paint3_linear_40_1293)"/>
<defs>
<linearGradient id="paint0_linear_40_1293" x1="3.57895" y1="18.0526" x2="20.4211" y2="18.0526" gradientUnits="userSpaceOnUse">
<stop stop-color="#11408A"/>
<stop offset="1" stop-color="#103F8F"/>
</linearGradient>
<linearGradient id="paint1_linear_40_1293" x1="3.57895" y1="12.7895" x2="20.4211" y2="12.7895" gradientUnits="userSpaceOnUse">
<stop stop-color="#1D59B3"/>
<stop offset="1" stop-color="#195BBC"/>
</linearGradient>
<linearGradient id="paint2_linear_40_1293" x1="3.57895" y1="7.26316" x2="20.4211" y2="7.26316" gradientUnits="userSpaceOnUse">
<stop stop-color="#3079D6"/>
<stop offset="1" stop-color="#297CD2"/>
</linearGradient>
<linearGradient id="paint3_linear_40_1293" x1="3.57895" y1="3.57895" x2="20.4211" y2="3.57895" gradientUnits="userSpaceOnUse">
<stop stop-color="#42A3F2"/>
<stop offset="1" stop-color="#42A4EB"/>
</linearGradient>
</defs>
</svg>
