<svg width="24" height="24" viewBox="0 0 24 24" fill="none" xmlns="http://www.w3.org/2000/svg">
<path d="M21.6916 18.0074L5.99263 2.30841C5.58157 1.89736 4.91526 1.89736 4.50421 2.30841L2.30842 4.50367C1.89736 4.91473 1.89736 5.58104 2.30842 5.9921L18.0074 21.691C18.4184 22.1021 19.0847 22.1021 19.4958 21.691L21.6916 19.4953C22.1026 19.0853 22.1026 18.4184 21.6916 18.0074Z" fill="#0370C8"/>
<path d="M21.7805 4.14053L19.8589 2.21947C19.5668 1.92684 19.0911 1.92684 18.7984 2.21947L17.8942 3.12474L20.8753 6.10579L21.7805 5.20158C22.0732 4.90842 22.0732 4.43421 21.7805 4.14053Z" fill="#C94F60"/>
<path d="M3.00263 18.0158L2 22L5.98474 20.9968L6.40263 17.5405L3.00263 18.0158Z" fill="#F0F0F0"/>
<path d="M18.3326 8.64842L5.98526 20.9963L3.00368 18.0147L15.3511 5.66684L18.3326 8.64842Z" fill="#EDBE00"/>
<path d="M15.3489 5.66735L17.8921 3.12314L20.8753 6.10419L18.3321 8.6484L15.3489 5.66735Z" fill="url(#paint0_linear_40_1385)"/>
<path d="M2.50789 19.9853L2 22L4.01421 21.4921L2.50789 19.9853Z" fill="#787878"/>
<path d="M18.9962 15.3121L17.9437 16.3646L18.688 17.1089L19.7405 16.0564L18.9962 15.3121Z" fill="#0E8DF2"/>
<path d="M20.5755 16.8907L18.9964 18.4699L19.7407 19.2141L21.3198 17.6351L20.5755 16.8907Z" fill="#0E8DF2"/>
<path d="M15.8383 12.1542L14.7858 13.2067L15.5301 13.951L16.5826 12.8985L15.8383 12.1542Z" fill="#0E8DF2"/>
<path d="M17.4176 13.7328L15.8385 15.312L16.5828 16.0562L18.1619 14.4772L17.4176 13.7328Z" fill="#0E8DF2"/>
<path d="M9.52281 5.8381L7.94376 7.41721L8.68809 8.16153L10.2672 6.58241L9.52281 5.8381Z" fill="#0E8DF2"/>
<path d="M11.1015 7.41739L10.0489 8.46988L10.7933 9.21419L11.8458 8.16169L11.1015 7.41739Z" fill="#0E8DF2"/>
<path d="M6.36492 2.68021L4.78586 4.25931L5.5302 5.00363L7.10925 3.42451L6.36492 2.68021Z" fill="#0E8DF2"/>
<path d="M7.94354 4.25949L6.89108 5.31199L7.63542 6.05629L8.68787 5.0038L7.94354 4.25949Z" fill="#0E8DF2"/>
<defs>
<linearGradient id="paint0_linear_40_1385" x1="18.1116" y1="3.31261" x2="18.1116" y2="8.80051" gradientUnits="userSpaceOnUse">
<stop stop-color="#DEDEDE"/>
<stop offset="1" stop-color="#D6D6D6"/>
</linearGradient>
</defs>
</svg>
