<svg width="24" height="24" viewBox="0 0 24 24" fill="none" xmlns="http://www.w3.org/2000/svg">
<path d="M21 2.74976H3C2.4475 2.74976 2 3.19726 2 3.74976V18.7498C2 19.3023 2.4475 19.7498 3 19.7498H21C21.5525 19.7498 22 19.3023 22 18.7498V3.74976C22 3.19726 21.5525 2.74976 21 2.74976Z" fill="url(#paint0_linear_40_1435)"/>
<path d="M18.5 3.74976H5.5C5.5 5.13026 4.3805 6.24976 3 6.24976V16.2498C4.3805 16.2498 5.5 17.3693 5.5 18.7498H18.5C18.5 17.3693 19.6195 16.2498 21 16.2498V6.24976C19.6195 6.24976 18.5 5.13026 18.5 3.74976ZM16 10.7498H8C7.724 10.7498 7.5 10.5258 7.5 10.2498C7.5 9.97376 7.724 9.74976 8 9.74976H16C16.276 9.74976 16.5 9.97376 16.5 10.2498C16.5 10.5258 16.276 10.7498 16 10.7498ZM16.5 8.74976H7.5C6.9475 8.74976 6.5 8.30226 6.5 7.74976C6.5 7.19726 6.9475 6.74976 7.5 6.74976H16.5C17.0525 6.74976 17.5 7.19726 17.5 7.74976C17.5 8.30226 17.0525 8.74976 16.5 8.74976Z" fill="url(#paint1_linear_40_1435)"/>
<path d="M13.1115 21.2078L12 20.4663L10.8885 21.2073C10.7225 21.3188 10.5 21.1993 10.5 20.9998V16.4668H13.5V20.9998C13.5 21.1993 13.2775 21.3188 13.1115 21.2078Z" fill="url(#paint2_linear_40_1435)"/>
<path d="M14.3665 15.5133L14.1915 15.4083C14.117 15.3633 14.0665 15.2898 14.044 15.2063C14.0435 15.2048 14.043 15.2033 14.0425 15.2018C14.019 15.1173 14.026 15.0273 14.069 14.9508L14.168 14.7723C14.2695 14.5898 14.1395 14.3653 13.931 14.3618L13.725 14.3583C13.6375 14.3568 13.557 14.3178 13.4955 14.2563C13.495 14.2553 13.4945 14.2548 13.4935 14.2543C13.4315 14.1928 13.393 14.1118 13.3915 14.0248L13.388 13.8188C13.3845 13.6103 13.16 13.4808 12.9775 13.5818L12.8005 13.6818C12.7235 13.7243 12.634 13.7313 12.5495 13.7083C12.548 13.7078 12.5465 13.7073 12.5445 13.7068C12.4605 13.6838 12.387 13.6338 12.3425 13.5593L12.2375 13.3843C12.13 13.2052 11.871 13.2052 11.7635 13.3843L11.659 13.5583C11.614 13.6333 11.5395 13.6843 11.4555 13.7073C11.4545 13.7078 11.454 13.7078 11.453 13.7083C11.3675 13.7318 11.277 13.7248 11.2 13.6818L11.0225 13.5833C10.84 13.4818 10.6155 13.6118 10.612 13.8203L10.608 14.0258C10.6065 14.1128 10.5675 14.1938 10.506 14.2553C10.505 14.2558 10.5045 14.2568 10.504 14.2573C10.4425 14.3193 10.3615 14.3578 10.2745 14.3593L10.0685 14.3628C9.86 14.3663 9.7305 14.5908 9.8315 14.7733L9.9305 14.9518C9.973 15.0288 9.98 15.1183 9.957 15.2028C9.9565 15.2043 9.956 15.2063 9.9555 15.2073C9.9325 15.2913 9.882 15.3648 9.808 15.4093L9.633 15.5143C9.454 15.6218 9.454 15.8808 9.633 15.9883L9.808 16.0933C9.8825 16.1383 9.933 16.2118 9.9555 16.2953C9.956 16.2968 9.9565 16.2982 9.957 16.2997C9.9805 16.3842 9.9735 16.4743 9.9305 16.5508L9.8315 16.7293C9.73 16.9118 9.86 17.1362 10.0685 17.1397L10.2745 17.1432C10.362 17.1447 10.4425 17.1838 10.504 17.2453C10.5045 17.2458 10.505 17.2462 10.506 17.2472C10.568 17.3087 10.6065 17.3898 10.608 17.4767L10.6115 17.6828C10.615 17.8913 10.8395 18.0208 11.022 17.9198L11.2005 17.8207C11.2775 17.7782 11.367 17.7713 11.4515 17.7943C11.453 17.7948 11.455 17.7948 11.4565 17.7953C11.5405 17.8183 11.614 17.8683 11.6585 17.9428L11.7635 18.1178C11.871 18.2968 12.13 18.2968 12.2375 18.1178L12.3425 17.9428C12.3875 17.8683 12.461 17.8178 12.5445 17.7953C12.546 17.7948 12.548 17.7948 12.5495 17.7943C12.634 17.7708 12.724 17.7777 12.8005 17.8207L12.979 17.9198C13.1615 18.0213 13.386 17.8913 13.3895 17.6828L13.393 17.4767C13.3945 17.3892 13.4335 17.3087 13.495 17.2472C13.496 17.2467 13.4965 17.2463 13.497 17.2453C13.5585 17.1833 13.6395 17.1447 13.7265 17.1432L13.9325 17.1397C14.141 17.1362 14.2705 16.9118 14.1695 16.7293L14.0705 16.5508C14.028 16.4738 14.021 16.3842 14.044 16.2997C14.0445 16.2982 14.0445 16.2968 14.045 16.2953C14.068 16.2113 14.118 16.1378 14.1925 16.0933L14.3675 15.9883C14.5455 15.8793 14.5455 15.6208 14.3665 15.5133Z" fill="url(#paint3_linear_40_1435)"/>
<defs>
<linearGradient id="paint0_linear_40_1435" x1="2" y1="11.2498" x2="22" y2="11.2498" gradientUnits="userSpaceOnUse">
<stop stop-color="#32BDEF"/>
<stop offset="1" stop-color="#1EA2E4"/>
</linearGradient>
<linearGradient id="paint1_linear_40_1435" x1="7.6693" y1="2.89087" x2="17.7205" y2="15.6222" gradientUnits="userSpaceOnUse">
<stop stop-color="#FCFCFC"/>
<stop offset="0.495" stop-color="#F4F4F4"/>
<stop offset="0.946" stop-color="#E8E8E8"/>
<stop offset="1" stop-color="#E8E8E8"/>
</linearGradient>
<linearGradient id="paint2_linear_40_1435" x1="10.9394" y1="17.1673" x2="13.9843" y2="19.077" gradientUnits="userSpaceOnUse">
<stop stop-color="#21AD64"/>
<stop offset="1" stop-color="#088242"/>
</linearGradient>
<linearGradient id="paint3_linear_40_1435" x1="10.729" y1="13.5412" x2="13.261" y2="17.9417" gradientUnits="userSpaceOnUse">
<stop stop-color="#FFDA1C"/>
<stop offset="1" stop-color="#FEB705"/>
</linearGradient>
</defs>
</svg>
