<svg width="24" height="24" viewBox="0 0 24 24" fill="none" xmlns="http://www.w3.org/2000/svg">
<path d="M7.12571 3.42856H19.7309C19.9629 3.42861 20.1869 3.51336 20.3609 3.66688C20.5349 3.82041 20.6469 4.03216 20.6757 4.26237L22 15.8095H4.85714L6.18095 4.26237C6.20983 4.03216 6.32177 3.82041 6.49572 3.66688C6.66967 3.51336 6.89369 3.42861 7.12571 3.42856Z" fill="url(#paint0_linear_40_1441)"/>
<path d="M21.0476 14.8571H5.80952C5.55693 14.8571 5.31469 14.9575 5.13608 15.1361C4.95748 15.3146 4.85714 15.5569 4.85714 15.8095V19.619C4.85714 19.8716 4.95748 20.1139 5.13608 20.2924C5.31469 20.471 5.55693 20.5714 5.80952 20.5714H21.0476C21.3002 20.5714 21.5425 20.471 21.721 20.2924C21.8996 20.1139 22 19.8716 22 19.619V15.8095C22 15.5569 21.8996 15.3146 21.721 15.1361C21.5425 14.9575 21.3002 14.8571 21.0476 14.8571Z" fill="url(#paint1_linear_40_1441)"/>
<path d="M7.71429 9.14285H19.1429V11.0476C19.1429 11.1739 19.0927 11.295 19.0034 11.3844C18.9141 11.4736 18.793 11.5238 18.6667 11.5238H8.19048C8.06418 11.5238 7.94306 11.4736 7.85376 11.3844C7.76446 11.295 7.71429 11.1739 7.71429 11.0476V9.14285Z" fill="url(#paint2_linear_40_1441)"/>
<path d="M6.2019 6.76189C6.07065 6.76089 5.93958 6.75151 5.80952 6.7338V6.41951H4.77524C4.21221 6.2411 3.60779 6.2411 3.04476 6.41951L2 6.52856V7.49094H2.00238C2.01524 8.14285 2.86095 8.66666 3.90476 8.66666C4.28829 8.67079 4.66825 8.59269 5.01905 8.43761C5.39094 8.27103 5.79443 8.18672 6.2019 8.19046H7.71429V6.76189H6.2019Z" fill="url(#paint3_linear_40_1441)"/>
<path d="M6.7619 7.71426H20.0952V8.66664C20.0952 8.79294 20.045 8.91406 19.9558 9.00336C19.8665 9.09266 19.7453 9.14284 19.619 9.14284H7.23809C7.1118 9.14284 6.99067 9.09266 6.90138 9.00336C6.81207 8.91406 6.7619 8.79294 6.7619 8.66664V7.71426Z" fill="url(#paint4_linear_40_1441)"/>
<path d="M20.0905 7.64712L19.6776 5.26616C19.6614 5.15265 19.6049 5.04878 19.5183 4.97363C19.4316 4.89849 19.3209 4.85712 19.2062 4.85712H7.65095C7.5363 4.85712 7.42549 4.89849 7.33888 4.97363C7.25228 5.04878 7.1957 5.15265 7.17952 5.26616L7.1019 5.8095H6.20191C5.79443 5.81324 5.39094 5.72894 5.01905 5.56235C4.66825 5.40728 4.28829 5.32917 3.90476 5.33331C2.85286 5.33331 2 5.86616 2 6.52378C2 7.1814 2.85286 7.71426 3.90476 7.71426C4.28823 7.71825 4.66812 7.64033 5.01905 7.48569C5.39084 7.31873 5.79437 7.23425 6.20191 7.23807H6.8281L6.77 7.64712C6.76039 7.7146 6.76538 7.78336 6.78463 7.84875C6.80389 7.91415 6.83695 7.97465 6.8816 8.02615C6.92625 8.07767 6.98144 8.11899 7.04343 8.14734C7.10543 8.17568 7.17278 8.19038 7.24095 8.19045H19.619C19.6872 8.19045 19.7547 8.17579 19.8168 8.14748C19.8788 8.11916 19.934 8.07785 19.9788 8.02634C20.0234 7.97482 20.0566 7.9143 20.0758 7.84887C20.095 7.78345 20.1001 7.71464 20.0905 7.64712Z" fill="url(#paint5_linear_40_1441)"/>
<path opacity="0.05" d="M18.6667 16.7619C18.855 16.7619 19.0391 16.8177 19.1958 16.9224C19.3524 17.027 19.4745 17.1758 19.5466 17.3498C19.6187 17.5238 19.6375 17.7153 19.6008 17.9001C19.564 18.0848 19.4733 18.2546 19.3401 18.3877C19.207 18.5209 19.0372 18.6116 18.8525 18.6484C18.6677 18.6851 18.4762 18.6663 18.3022 18.5942C18.1282 18.5221 17.9794 18.4 17.8748 18.2434C17.7701 18.0868 17.7143 17.9027 17.7143 17.7143C17.7143 17.4617 17.8147 17.2194 17.9932 17.0408C18.1718 16.8623 18.4141 16.7619 18.6667 16.7619ZM18.6667 16.2857C18.3841 16.2857 18.1079 16.3695 17.873 16.5265C17.6381 16.6834 17.455 16.9066 17.3469 17.1676C17.2388 17.4287 17.2104 17.7159 17.2655 17.9929C17.3207 18.2701 17.4568 18.5247 17.6565 18.7245C17.8563 18.9242 18.1109 19.0603 18.388 19.1154C18.665 19.1706 18.9523 19.1422 19.2133 19.0341C19.4744 18.926 19.6975 18.7428 19.8545 18.508C20.0114 18.273 20.0952 17.9968 20.0952 17.7143C20.0952 17.3354 19.9448 16.972 19.6769 16.7041C19.409 16.4362 19.0455 16.2857 18.6667 16.2857Z" fill="black"/>
<path opacity="0.07" d="M18.6667 16.7619C18.855 16.7619 19.0391 16.8177 19.1958 16.9224C19.3524 17.027 19.4745 17.1758 19.5466 17.3498C19.6187 17.5238 19.6375 17.7153 19.6008 17.9001C19.564 18.0849 19.4733 18.2546 19.3401 18.3877C19.207 18.5209 19.0372 18.6116 18.8525 18.6484C18.6677 18.6851 18.4762 18.6663 18.3022 18.5942C18.1282 18.5221 17.9794 18.4 17.8748 18.2434C17.7701 18.0868 17.7143 17.9027 17.7143 17.7143C17.7143 17.4617 17.8147 17.2194 17.9932 17.0409C18.1718 16.8623 18.4141 16.7619 18.6667 16.7619ZM18.6667 16.5238C18.4312 16.5238 18.201 16.5936 18.0052 16.7245C17.8095 16.8552 17.6569 17.0411 17.5669 17.2587C17.4767 17.4763 17.4531 17.7156 17.499 17.9466C17.545 18.1774 17.6584 18.3896 17.8249 18.5561C17.9913 18.7226 18.2035 18.8359 18.4344 18.8819C18.6653 18.9278 18.9047 18.9043 19.1223 18.8142C19.3398 18.724 19.5257 18.5714 19.6565 18.3757C19.7873 18.1799 19.8571 17.9497 19.8571 17.7143C19.8571 17.3986 19.7317 17.0957 19.5085 16.8725C19.2852 16.6492 18.9824 16.5238 18.6667 16.5238Z" fill="black"/>
<path d="M18.6667 18.6667C19.1927 18.6667 19.619 18.2403 19.619 17.7143C19.619 17.1883 19.1927 16.7619 18.6667 16.7619C18.1407 16.7619 17.7143 17.1883 17.7143 17.7143C17.7143 18.2403 18.1407 18.6667 18.6667 18.6667Z" fill="url(#paint6_linear_40_1441)"/>
<defs>
<linearGradient id="paint0_linear_40_1441" x1="13.4286" y1="4.02237" x2="13.4286" y2="15.2947" gradientUnits="userSpaceOnUse">
<stop stop-color="#DAE0E8"/>
<stop offset="0.359" stop-color="#D7DDE6"/>
<stop offset="0.621" stop-color="#CED5DF"/>
<stop offset="0.85" stop-color="#BEC7D2"/>
<stop offset="1" stop-color="#AFBAC7"/>
</linearGradient>
<linearGradient id="paint1_linear_40_1441" x1="13.4286" y1="14.8966" x2="13.4286" y2="23.6152" gradientUnits="userSpaceOnUse">
<stop stop-color="#636363"/>
<stop offset="1" stop-color="#444444"/>
</linearGradient>
<linearGradient id="paint2_linear_40_1441" x1="13.4286" y1="11.7881" x2="13.4286" y2="8.77428" gradientUnits="userSpaceOnUse">
<stop stop-color="#947947"/>
<stop offset="0.12" stop-color="#9F824B"/>
<stop offset="0.698" stop-color="#D0AC5D"/>
<stop offset="0.984" stop-color="#E3BC64"/>
</linearGradient>
<linearGradient id="paint3_linear_40_1441" x1="4.85714" y1="10.0086" x2="4.85714" y2="2.30856" gradientUnits="userSpaceOnUse">
<stop stop-color="#947947"/>
<stop offset="0.097" stop-color="#9F824B"/>
<stop offset="0.561" stop-color="#D0AC5D"/>
<stop offset="0.791" stop-color="#E3BC64"/>
</linearGradient>
<linearGradient id="paint4_linear_40_1441" x1="2" y1="9.71093" x2="2.47619" y2="7.31522" gradientUnits="userSpaceOnUse">
<stop stop-color="#947947"/>
<stop offset="0.12" stop-color="#9F824B"/>
<stop offset="0.698" stop-color="#D0AC5D"/>
<stop offset="0.984" stop-color="#E3BC64"/>
</linearGradient>
<linearGradient id="paint5_linear_40_1441" x1="11.0476" y1="8.16759" x2="11.0476" y2="4.71807" gradientUnits="userSpaceOnUse">
<stop stop-color="#E3BC64"/>
<stop offset="1" stop-color="#E3BC64"/>
</linearGradient>
<linearGradient id="paint6_linear_40_1441" x1="18.6667" y1="16.6033" x2="18.6667" y2="18.67" gradientUnits="userSpaceOnUse">
<stop stop-color="#75FF8A"/>
<stop offset="1" stop-color="#1EE446"/>
</linearGradient>
</defs>
</svg>
