<svg width="24" height="24" viewBox="0 0 24 24" fill="none" xmlns="http://www.w3.org/2000/svg">
<path d="M20.3368 18.237H3.62162C2.70686 18.237 2 17.5302 2 16.657V7.34304C2 6.46986 2.70686 5.763 3.62162 5.763H20.3784C21.2516 5.763 22 6.46986 22 7.34304V16.657C21.9584 17.5302 21.2516 18.237 20.3368 18.237Z" fill="url(#paint0_linear_40_1463)"/>
<path d="M11.3139 15.7422C11.106 15.6591 10.1081 15.4927 9.90021 14.079C8.90229 14.5364 7.98752 14.4117 7.57172 14.3285C8.11226 15.1185 9.06861 15.7838 10.8565 15.7838C11.0229 15.7422 11.1476 15.7422 11.3139 15.7422Z" fill="#0F94BF"/>
<path d="M9.81705 14.079C9.23493 14.2869 8.237 14.3285 7.6133 14.3285C7.73804 14.4948 7.86278 14.6611 8.0291 14.7859C8.52807 14.7859 9.23493 14.7443 10.0249 14.5364C10.1497 14.4948 10.1913 14.3285 10.1497 14.2037C10.0665 14.079 9.94179 14.0374 9.81705 14.079ZM10.8565 13.3306C10.6071 13.3306 10.3576 13.5385 10.3576 13.8295C10.3576 14.079 10.5655 14.3285 10.8565 14.3285C11.1476 14.3285 11.3555 14.1206 11.3555 13.8295C11.3555 13.5385 11.1476 13.3306 10.8565 13.3306Z" fill="#0F94BF"/>
<path d="M10.8565 13.58C10.7318 13.58 10.6071 13.7048 10.6071 13.8295C10.6071 13.9543 10.7318 14.079 10.8565 14.079C10.9813 14.079 11.106 13.9543 11.106 13.8295C11.106 13.6632 10.9813 13.58 10.8565 13.58ZM11.3139 15.7422C11.106 15.6591 10.1081 15.4927 9.90021 14.079C8.90229 14.5364 7.98752 14.4116 7.57172 14.3285C8.11226 15.1185 9.06861 15.7838 10.8565 15.7838C11.0229 15.7422 11.1476 15.7422 11.3139 15.7422Z" fill="#0F94BF"/>
<path d="M9.81705 14.079C9.23493 14.2869 8.237 14.3285 7.6133 14.3285C7.73804 14.4948 7.86278 14.6611 8.0291 14.7859C8.52807 14.7859 9.23493 14.7443 10.0249 14.5364C10.1497 14.4948 10.1913 14.3285 10.1497 14.2037C10.0665 14.079 9.94179 14.0374 9.81705 14.079ZM10.8565 13.3306C10.6071 13.3306 10.3576 13.5385 10.3576 13.8295C10.3576 14.079 10.5655 14.3285 10.8565 14.3285C11.1476 14.3285 11.3555 14.1206 11.3555 13.8295C11.3555 13.5385 11.1476 13.3306 10.8565 13.3306Z" fill="#0F94BF"/>
<path d="M10.8565 13.58C10.7318 13.58 10.6071 13.7048 10.6071 13.8295C10.6071 13.9543 10.7318 14.079 10.8565 14.079C10.9813 14.079 11.106 13.9543 11.106 13.8295C11.106 13.6632 10.9813 13.58 10.8565 13.58Z" fill="#0F94BF"/>
<path d="M7.11435 13.2474C7.40541 14.3285 8.23701 15.7422 10.8981 15.7422C13.4345 15.7422 14.7651 14.3701 15.4304 13.2474H7.11435Z" fill="#0F94BF"/>
<path d="M16.9688 10.7526C16.5946 10.7526 16.3035 10.8774 16.1372 11.0021C16.1372 10.5447 16.0541 10.0458 15.4719 9.50521C15.0146 9.92101 14.8898 10.2952 14.8898 10.6695C14.8898 11.0437 15.0977 11.4179 15.3056 11.6258C15.3056 11.6258 15.0146 12 14.0582 12V10.7526H12.8108V8.25781H11.5634V9.50521H9.06861V10.7526H7.82121V12C7.32225 12 6.9896 12 6.9896 12C6.9896 12 6.94802 12.3327 7.03119 12.79C7.28067 12.7485 7.44699 12.6237 7.61331 12.4158C7.82121 12.6653 8.02911 12.8316 8.44491 12.8316C8.86071 12.8316 9.06861 12.6653 9.27651 12.4158C9.48441 12.6653 9.69231 12.8316 10.1081 12.8316C10.5239 12.8316 10.7318 12.6653 10.9397 12.4158C11.1476 12.6653 11.3555 12.8316 11.7713 12.8316C12.1871 12.8316 12.395 12.6653 12.6029 12.4158C12.8108 12.6653 13.0187 12.8316 13.4345 12.8316C13.8503 12.8316 14.0582 12.6653 14.2661 12.4158C14.474 12.6653 14.6819 12.8316 15.0977 12.8316C15.3472 12.8316 15.5551 12.7485 15.6798 12.6653C15.8046 12.3742 15.8877 12.1248 15.9293 12C16.0125 12 16.0956 12 16.2204 12C16.7193 12 17.5509 11.9584 17.8004 10.9189C17.5094 10.7942 17.2183 10.7526 16.9688 10.7526Z" fill="#0F94BF"/>
<path d="M15.9293 13.2474H16.9688V12.79C16.8857 12.79 16.8441 12.8316 16.7609 12.8316C16.3451 12.8316 16.1372 12.6653 15.9293 12.4158C15.8462 12.499 15.763 12.5821 15.6798 12.6653C15.5967 12.8316 15.5135 13.0395 15.3888 13.2474H15.9293Z" fill="#0F94BF"/>
<defs>
<linearGradient id="paint0_linear_40_1463" x1="2.53971" y1="5.58629" x2="20.0915" y2="17.5119" gradientUnits="userSpaceOnUse">
<stop stop-color="#7DD8F3"/>
<stop offset="1" stop-color="#45B0D0"/>
</linearGradient>
</defs>
</svg>
