<svg width="24" height="24" viewBox="0 0 24 24" fill="none" xmlns="http://www.w3.org/2000/svg">
<path d="M12.1971 5.53047L10.9895 4.32285C10.7219 4.05523 10.3586 3.90475 9.97952 3.90475H2.95238C2.42619 3.90475 2 4.33095 2 4.85714V19.1428C2 19.669 2.42619 20.0952 2.95238 20.0952H21.0476C21.5738 20.0952 22 19.669 22 19.1428V6.7619C22 6.23571 21.5738 5.80952 21.0476 5.80952H12.8705C12.6181 5.80952 12.3757 5.70904 12.1971 5.53047Z" fill="url(#paint0_linear_40_1474)"/>
<path d="M10.8505 7.43522L12.4067 5.87903C12.451 5.83475 12.5114 5.80951 12.5748 5.80951H21.0476C21.5738 5.80951 22 6.2357 22 6.76189V19.1428C22 19.669 21.5738 20.0952 21.0476 20.0952H2.95238C2.42619 20.0952 2 19.669 2 19.1428V7.95237C2 7.82094 2.10667 7.71427 2.2381 7.71427H10.1771C10.4295 7.71427 10.6719 7.61379 10.8505 7.43522Z" fill="url(#paint1_linear_40_1474)"/>
<path d="M12 18.6667C14.6299 18.6667 16.7619 16.5347 16.7619 13.9048C16.7619 11.2749 14.6299 9.14285 12 9.14285C9.37008 9.14285 7.23809 11.2749 7.23809 13.9048C7.23809 16.5347 9.37008 18.6667 12 18.6667Z" fill="url(#paint2_linear_40_1474)"/>
<path d="M14.8571 13.1905H12.7143V11.0476C12.7143 10.9162 12.6076 10.8095 12.4762 10.8095H11.5238C11.3924 10.8095 11.2857 10.9162 11.2857 11.0476V13.1905H9.14286C9.01143 13.1905 8.90476 13.2971 8.90476 13.4286V14.3809C8.90476 14.5124 9.01143 14.619 9.14286 14.619H11.2857V16.7619C11.2857 16.8933 11.3924 17 11.5238 17H12.4762C12.6076 17 12.7143 16.8933 12.7143 16.7619V14.619H14.8571C14.9886 14.619 15.0952 14.5124 15.0952 14.3809V13.4286C15.0952 13.2971 14.9886 13.1905 14.8571 13.1905Z" fill="white"/>
<defs>
<linearGradient id="paint0_linear_40_1474" x1="12" y1="3.76571" x2="12" y2="7.70333" gradientUnits="userSpaceOnUse">
<stop stop-color="#EBA600"/>
<stop offset="1" stop-color="#C28200"/>
</linearGradient>
<linearGradient id="paint1_linear_40_1474" x1="12" y1="5.73999" x2="12" y2="20.0871" gradientUnits="userSpaceOnUse">
<stop stop-color="#FFD869"/>
<stop offset="1" stop-color="#FEC52B"/>
</linearGradient>
<linearGradient id="paint2_linear_40_1474" x1="11.199" y1="9.21" x2="12.7643" y2="18.3833" gradientUnits="userSpaceOnUse">
<stop stop-color="#F44F5A"/>
<stop offset="0.443" stop-color="#EE3D4A"/>
<stop offset="1" stop-color="#E52030"/>
</linearGradient>
</defs>
</svg>
