<svg width="24" height="24" viewBox="0 0 24 24" fill="none" xmlns="http://www.w3.org/2000/svg">
<path d="M18 8.5V21C18 21.5525 17.5525 22 17 22H5C4.4475 22 4 21.5525 4 21V5C4 4.4475 4.4475 4 5 4H13.5L18 8.5Z" fill="url(#paint0_linear_40_1480)"/>
<path opacity="0.05" d="M5 4H13.5L18 8.5V21H6.8405C5.824 21 5 20.176 5 19.1595V4Z" fill="black"/>
<path opacity="0.07" d="M5.5 4H13.5L18 8.5V20.5H6.9195C6.1355 20.5 5.5 19.8645 5.5 19.0805V4Z" fill="black"/>
<path d="M20 7V19C20 19.5525 19.5525 20 19 20H7C6.4475 20 6 19.5525 6 19V3C6 2.4475 6.4475 2 7 2H15L20 7Z" fill="url(#paint1_linear_40_1480)"/>
<path d="M15 2V6C15 6.5525 15.4475 7 16 7H20L15 2Z" fill="url(#paint2_linear_40_1480)"/>
<path d="M16.6585 10.467H9.1585C9.0205 10.467 8.9085 10.355 8.9085 10.217V9.71701C8.9085 9.57901 9.0205 9.46701 9.1585 9.46701H16.6585C16.7965 9.46701 16.9085 9.57901 16.9085 9.71701V10.217C16.9085 10.355 16.7965 10.467 16.6585 10.467Z" fill="#057093"/>
<path d="M16.6585 12.467H9.1585C9.0205 12.467 8.9085 12.355 8.9085 12.217V11.717C8.9085 11.579 9.0205 11.467 9.1585 11.467H16.6585C16.7965 11.467 16.9085 11.579 16.9085 11.717V12.217C16.9085 12.355 16.7965 12.467 16.6585 12.467Z" fill="#057093"/>
<path d="M16.6585 14.467H9.1585C9.0205 14.467 8.9085 14.355 8.9085 14.217V13.717C8.9085 13.579 9.0205 13.467 9.1585 13.467H16.6585C16.7965 13.467 16.9085 13.579 16.9085 13.717V14.217C16.9085 14.355 16.7965 14.467 16.6585 14.467Z" fill="#057093"/>
<path d="M14.6585 16.467H9.1585C9.0205 16.467 8.9085 16.355 8.9085 16.217V15.717C8.9085 15.579 9.0205 15.467 9.1585 15.467H14.6585C14.7965 15.467 14.9085 15.579 14.9085 15.717V16.217C14.9085 16.355 14.7965 16.467 14.6585 16.467Z" fill="#057093"/>
<defs>
<linearGradient id="paint0_linear_40_1480" x1="7.10158" y1="1.31849" x2="20.0988" y2="16.1582" gradientUnits="userSpaceOnUse">
<stop stop-color="#FCFCFC"/>
<stop offset="0.95" stop-color="#C3C9CD"/>
</linearGradient>
<linearGradient id="paint1_linear_40_1480" x1="10.414" y1="2.27635" x2="20.4663" y2="17.3509" gradientUnits="userSpaceOnUse">
<stop stop-color="#7DD8F3"/>
<stop offset="1" stop-color="#45B0D0"/>
</linearGradient>
<linearGradient id="paint2_linear_40_1480" x1="15.267" y1="6.733" x2="17.545" y2="4.455" gradientUnits="userSpaceOnUse">
<stop stop-color="#3079D6"/>
<stop offset="1" stop-color="#297CD2"/>
</linearGradient>
</defs>
</svg>
