<svg width="24" height="24" viewBox="0 0 24 24" fill="none" xmlns="http://www.w3.org/2000/svg">
<path d="M19.8641 22H4.13585C3.59273 22 3.15283 21.5601 3.15283 21.017V5.28868C3.15283 4.74556 3.59273 4.30566 4.13585 4.30566H19.8641C20.4073 4.30566 20.8472 4.74556 20.8472 5.28868V21.017C20.8472 21.5601 20.4073 22 19.8641 22Z" fill="url(#paint0_linear_40_1538)"/>
<path d="M12 6.74699C13.3109 6.74699 14.3735 5.68434 14.3735 4.3735C14.3735 3.06265 13.3109 2 12 2C10.6891 2 9.6265 3.06265 9.6265 4.3735C9.6265 5.68434 10.6891 6.74699 12 6.74699Z" fill="white"/>
<path opacity="0.05" d="M12.0005 20.2895C11.6722 20.2895 11.3635 20.1618 11.1315 19.9298L7.83789 16.6362C7.5828 16.3811 7.50711 16.0011 7.64522 15.6679C7.78285 15.3341 8.10528 15.1189 8.46604 15.1189H10.034V9.71227C10.034 9.17013 10.4748 8.72925 11.017 8.72925H12.983C13.5251 8.72925 13.966 9.17013 13.966 9.71227V15.1189H15.5339C15.8947 15.1189 16.2171 15.3341 16.3553 15.6674C16.4934 16.0006 16.4177 16.3806 16.1626 16.6357L12.869 19.9293C12.6375 20.1613 12.3288 20.2895 12.0005 20.2895Z" fill="black"/>
<path opacity="0.07" d="M12.0005 20.0438C11.7375 20.0438 11.4908 19.9416 11.305 19.7558L8.0114 16.4622C7.82708 16.2779 7.77203 16.0026 7.87181 15.7618C7.97159 15.5209 8.20505 15.3651 8.46555 15.3651H10.2792V9.71227C10.2792 9.30579 10.61 8.97501 11.0165 8.97501H12.9825C13.389 8.97501 13.7198 9.30579 13.7198 9.71227V15.3646H15.5335C15.7944 15.3646 16.0279 15.5204 16.1277 15.7618C16.2275 16.0026 16.1729 16.2779 15.9886 16.4622L12.695 19.7558C12.5102 19.9416 12.263 20.0438 12.0005 20.0438Z" fill="black"/>
<path d="M15.5339 15.6104H13.4745V9.71227C13.4745 9.44096 13.2543 9.22076 12.983 9.22076H11.017C10.7457 9.22076 10.5255 9.44096 10.5255 9.71227V15.6104H8.46604C8.11216 15.6104 7.93521 16.038 8.18539 16.2882L11.479 19.5818C11.767 19.8698 12.234 19.8698 12.5215 19.5818L15.8151 16.2882C16.0653 16.038 15.8878 15.6104 15.5339 15.6104Z" fill="white"/>
<defs>
<linearGradient id="paint0_linear_40_1538" x1="3.49787" y1="4.6507" x2="19.4144" y2="20.5672" gradientUnits="userSpaceOnUse">
<stop stop-color="#21AD64"/>
<stop offset="1" stop-color="#088242"/>
</linearGradient>
</defs>
</svg>
