<svg width="24" height="24" viewBox="0 0 24 24" fill="none" xmlns="http://www.w3.org/2000/svg">
<path d="M14.8571 14.8571H3.42857C2.63952 14.8571 2 14.2176 2 13.4286V4.85713C2 4.06808 2.63952 3.42856 3.42857 3.42856H14.8571C15.6462 3.42856 16.2857 4.06808 16.2857 4.85713V13.4286C16.2857 14.2176 15.6462 14.8571 14.8571 14.8571Z" fill="url(#paint0_linear_40_1545)"/>
<path d="M20.619 20.5714H9.57143C8.80857 20.5714 8.19048 19.9586 8.19048 19.2024V10.9881C8.19048 10.2319 8.80857 9.61905 9.57143 9.61905H20.619C21.3819 9.61905 22 10.2319 22 10.9881V19.2024C22 19.9586 21.3819 20.5714 20.619 20.5714Z" fill="url(#paint1_linear_40_1545)"/>
<path d="M11.0476 3.66665V4.14284C11.0476 4.27427 11.1543 4.38094 11.2857 4.38094H12.7143C12.8457 4.38094 12.9524 4.27427 12.9524 4.14284V3.66665C12.9524 3.53523 12.8457 3.42856 12.7143 3.42856H11.2857C11.1543 3.42856 11.0476 3.53523 11.0476 3.66665Z" fill="url(#paint2_linear_40_1545)"/>
<path d="M8.42857 4.38094H9.85714C9.98857 4.38094 10.0952 4.27427 10.0952 4.14284V3.66665C10.0952 3.53523 9.98857 3.42856 9.85714 3.42856H8.42857C8.29714 3.42856 8.19048 3.53523 8.19048 3.66665V4.14284C8.19048 4.27427 8.29714 4.38094 8.42857 4.38094Z" fill="url(#paint3_linear_40_1545)"/>
<path d="M5.57143 4.38094H7C7.13143 4.38094 7.2381 4.27427 7.2381 4.14284V3.66665C7.2381 3.53523 7.13143 3.42856 7 3.42856H5.57143C5.44 3.42856 5.33334 3.53523 5.33334 3.66665V4.14284C5.33334 4.27427 5.44 4.38094 5.57143 4.38094Z" fill="url(#paint4_linear_40_1545)"/>
<path d="M2.2381 8.66666H2.71429C2.84571 8.66666 2.95238 8.56 2.95238 8.42857V7C2.95238 6.86857 2.84571 6.7619 2.71429 6.7619H2.2381C2.10667 6.7619 2 6.86857 2 7V8.42857C2 8.56 2.10667 8.66666 2.2381 8.66666Z" fill="url(#paint5_linear_40_1545)"/>
<path d="M14.1429 4.38094H15.3333V5.57142C15.3333 5.70284 15.44 5.80951 15.5714 5.80951H16.0476C16.179 5.80951 16.2857 5.70284 16.2857 5.57142V4.38094C16.2857 3.85475 15.8595 3.42856 15.3333 3.42856H14.1429C14.0114 3.42856 13.9048 3.53523 13.9048 3.66665V4.14284C13.9048 4.27427 14.0114 4.38094 14.1429 4.38094Z" fill="url(#paint6_linear_40_1545)"/>
<path d="M2.95238 11.2857V9.85714C2.95238 9.72572 2.84571 9.61905 2.71429 9.61905H2.2381C2.10667 9.61905 2 9.72572 2 9.85714V11.2857C2 11.4171 2.10667 11.5238 2.2381 11.5238H2.71429C2.84571 11.5238 2.95238 11.4171 2.95238 11.2857Z" fill="url(#paint7_linear_40_1545)"/>
<path d="M2.95238 5.57142V4.38094H4.14286C4.27429 4.38094 4.38095 4.27427 4.38095 4.14284V3.66665C4.38095 3.53523 4.27429 3.42856 4.14286 3.42856H2.95238C2.42619 3.42856 2 3.85475 2 4.38094V5.57142C2 5.70284 2.10667 5.80951 2.2381 5.80951H2.71429C2.84571 5.80951 2.95238 5.70284 2.95238 5.57142Z" fill="url(#paint8_linear_40_1545)"/>
<path d="M15.3333 7V8.42857C15.3333 8.56 15.44 8.66666 15.5714 8.66666H16.0476C16.179 8.66666 16.2857 8.56 16.2857 8.42857V7C16.2857 6.86857 16.179 6.7619 16.0476 6.7619H15.5714C15.44 6.7619 15.3333 6.86857 15.3333 7Z" fill="url(#paint9_linear_40_1545)"/>
<path d="M5.33334 14.1428V14.619C5.33334 14.7505 5.44 14.8571 5.57143 14.8571H7C7.13143 14.8571 7.2381 14.7505 7.2381 14.619V14.1428C7.2381 14.0114 7.13143 13.9048 7 13.9048H5.57143C5.44 13.9048 5.33334 14.0114 5.33334 14.1428Z" fill="url(#paint10_linear_40_1545)"/>
<path d="M2.71429 12.4762H2.2381C2.10667 12.4762 2 12.5828 2 12.7143V13.9047C2 14.4309 2.42619 14.8571 2.95238 14.8571H4.14286C4.27429 14.8571 4.38095 14.7505 4.38095 14.619V14.1428C4.38095 14.0114 4.27429 13.9047 4.14286 13.9047H2.95238V12.7143C2.95238 12.5828 2.84571 12.4762 2.71429 12.4762Z" fill="url(#paint11_linear_40_1545)"/>
<path opacity="0.05" d="M15.9671 19.1429C15.7029 19.1429 15.4648 18.9867 15.3605 18.7443L14.7962 17.4462L14.0429 18.0743C13.9219 18.1743 13.7719 18.2286 13.6181 18.2286C13.251 18.2286 12.9524 17.9305 12.9524 17.5638V12.1848C12.9524 11.9205 13.109 11.6824 13.3519 11.5786C13.4329 11.5424 13.5219 11.5238 13.6148 11.5238C13.79 11.5238 13.9552 11.5929 14.0805 11.7176L17.84 15.4771C18.0248 15.6609 18.0843 15.9276 17.9948 16.1738C17.9062 16.4195 17.689 16.5862 17.4286 16.6086L16.6662 16.6771L17.2152 17.94C17.2848 18.1029 17.2876 18.2819 17.2233 18.4462C17.159 18.61 17.0343 18.739 16.8719 18.81L16.231 19.0886C16.1486 19.1243 16.059 19.1429 15.9671 19.1429Z" fill="black"/>
<path opacity="0.07" d="M15.9671 18.9047C15.7986 18.9047 15.6457 18.8047 15.579 18.65L14.8881 17.06L13.8905 17.8919C13.8129 17.9562 13.7167 17.9909 13.6186 17.9909C13.3829 17.9909 13.191 17.7995 13.191 17.5643V12.1847C13.191 12.0162 13.291 11.8638 13.4462 11.7976C13.4986 11.7743 13.5557 11.7624 13.6148 11.7624C13.7262 11.7624 13.8319 11.8066 13.9119 11.8866L17.6714 15.6462C17.79 15.7643 17.8281 15.9352 17.771 16.0928C17.7143 16.2505 17.5748 16.3576 17.4076 16.3719L16.3157 16.47L16.9967 18.0352C17.0414 18.139 17.0433 18.2538 17.0019 18.359C16.9605 18.4643 16.8805 18.5466 16.7767 18.5914L16.1357 18.87C16.0819 18.8933 16.0252 18.9047 15.9671 18.9047Z" fill="black"/>
<path d="M17.5029 15.8138L13.7433 12.0543C13.6843 11.9952 13.6043 11.9876 13.5395 12.0157C13.4771 12.0429 13.4286 12.1038 13.4286 12.1848V17.5643C13.4286 17.7238 13.6148 17.811 13.7376 17.7091L14.9795 16.6733L15.7976 18.5557C15.8381 18.6491 15.9471 18.6919 16.0405 18.6514L16.6819 18.3724C16.7752 18.3319 16.8181 18.2229 16.7776 18.1295L15.9657 16.2614L17.3867 16.1343C17.5457 16.12 17.6162 15.9267 17.5029 15.8138Z" fill="white"/>
<defs>
<linearGradient id="paint0_linear_40_1545" x1="5.78905" y1="4.65284" x2="12.7276" y2="13.9419" gradientUnits="userSpaceOnUse">
<stop stop-color="#0D61A9"/>
<stop offset="1" stop-color="#16528C"/>
</linearGradient>
<linearGradient id="paint1_linear_40_1545" x1="12.5444" y1="9.7872" x2="17.2064" y2="21.1206" gradientUnits="userSpaceOnUse">
<stop stop-color="#7DD8F3"/>
<stop offset="1" stop-color="#45B0D0"/>
</linearGradient>
<linearGradient id="paint2_linear_40_1545" x1="11.4696" y1="3.28668" x2="11.893" y2="4.52992" gradientUnits="userSpaceOnUse">
<stop stop-color="#FCFCFC"/>
<stop offset="0.95" stop-color="#C3C9CD"/>
</linearGradient>
<linearGradient id="paint3_linear_40_1545" x1="8.61246" y1="3.28668" x2="9.03591" y2="4.52992" gradientUnits="userSpaceOnUse">
<stop stop-color="#FCFCFC"/>
<stop offset="0.95" stop-color="#C3C9CD"/>
</linearGradient>
<linearGradient id="paint4_linear_40_1545" x1="5.75532" y1="3.28668" x2="6.17877" y2="4.52992" gradientUnits="userSpaceOnUse">
<stop stop-color="#FCFCFC"/>
<stop offset="0.95" stop-color="#C3C9CD"/>
</linearGradient>
<linearGradient id="paint5_linear_40_1545" x1="2.21099" y1="6.47814" x2="3.53466" y2="7.4497" gradientUnits="userSpaceOnUse">
<stop stop-color="#FCFCFC"/>
<stop offset="0.95" stop-color="#C3C9CD"/>
</linearGradient>
<linearGradient id="paint6_linear_40_1545" x1="14.4323" y1="3.07386" x2="16.0462" y2="5.44311" gradientUnits="userSpaceOnUse">
<stop stop-color="#FCFCFC"/>
<stop offset="0.95" stop-color="#C3C9CD"/>
</linearGradient>
<linearGradient id="paint7_linear_40_1545" x1="2.21099" y1="9.33529" x2="3.53466" y2="10.3069" gradientUnits="userSpaceOnUse">
<stop stop-color="#FCFCFC"/>
<stop offset="0.95" stop-color="#C3C9CD"/>
</linearGradient>
<linearGradient id="paint8_linear_40_1545" x1="2.52748" y1="3.07386" x2="4.14143" y2="5.44311" gradientUnits="userSpaceOnUse">
<stop stop-color="#FCFCFC"/>
<stop offset="0.95" stop-color="#C3C9CD"/>
</linearGradient>
<linearGradient id="paint9_linear_40_1545" x1="15.5443" y1="6.47814" x2="16.868" y2="7.4497" gradientUnits="userSpaceOnUse">
<stop stop-color="#FCFCFC"/>
<stop offset="0.95" stop-color="#C3C9CD"/>
</linearGradient>
<linearGradient id="paint10_linear_40_1545" x1="5.75532" y1="13.7628" x2="6.17877" y2="15.0061" gradientUnits="userSpaceOnUse">
<stop stop-color="#FCFCFC"/>
<stop offset="0.95" stop-color="#C3C9CD"/>
</linearGradient>
<linearGradient id="paint11_linear_40_1545" x1="2.52748" y1="12.1215" x2="4.14143" y2="14.4907" gradientUnits="userSpaceOnUse">
<stop stop-color="#FCFCFC"/>
<stop offset="0.95" stop-color="#C3C9CD"/>
</linearGradient>
</defs>
</svg>
