<svg width="24" height="24" viewBox="0 0 24 24" fill="none" xmlns="http://www.w3.org/2000/svg">
<path d="M2 18.3637V7H20.1819V18.3637C20.1819 18.8637 19.7728 19.2728 19.2728 19.2728H2.90909C2.40909 19.2728 2 18.8637 2 18.3637Z" fill="url(#paint0_linear_40_1597)"/>
<path d="M17.6819 10.6364H7.22729C7.10183 10.6364 7.00002 10.5345 7.00002 10.4091V9.95454C7.00002 9.82908 7.10183 9.72726 7.22729 9.72726H17.6819C17.8073 9.72726 17.9091 9.82908 17.9091 9.95454V10.4091C17.9091 10.5345 17.8073 10.6364 17.6819 10.6364Z" fill="#0F94BF"/>
<path d="M17.6819 12.4546H7.22729C7.10183 12.4546 7.00002 12.3527 7.00002 12.2273V11.7727C7.00002 11.6473 7.10183 11.5455 7.22729 11.5455H17.6819C17.8073 11.5455 17.9091 11.6473 17.9091 11.7727V12.2273C17.9091 12.3527 17.8073 12.4546 17.6819 12.4546Z" fill="#0F94BF"/>
<path d="M17.6819 14.2727H7.22729C7.10183 14.2727 7.00002 14.1709 7.00002 14.0455V13.5909C7.00002 13.4655 7.10183 13.3636 7.22729 13.3636H17.6819C17.8073 13.3636 17.9091 13.4655 17.9091 13.5909V14.0455C17.9091 14.1709 17.8073 14.2727 17.6819 14.2727Z" fill="#0F94BF"/>
<path d="M16.091 16.0909H7.22729C7.10183 16.0909 7.00002 15.9891 7.00002 15.8637V15.4091C7.00002 15.2837 7.10183 15.1819 7.22729 15.1819H16.091V16.0909Z" fill="#0F94BF"/>
<path opacity="0.05" d="M20.1819 9.09183L12.955 16.32L12.3946 18.5455C12.3441 18.7464 12.5264 18.9287 12.7273 18.8782L14.9532 18.3178L20.1819 13.0882V9.09183Z" fill="black"/>
<path opacity="0.07" d="M20.1819 9.41321L13.3368 16.2596L13.0882 16.7219H13.0877L12.695 18.2828C12.65 18.461 12.8114 18.6219 12.9896 18.5773L14.5559 18.1828L15.0132 17.936L20.1819 12.7559V9.41321Z" fill="black"/>
<path opacity="0.2" d="M20.1819 9.7341L16.7737 13.1432L13.3655 16.5523L13.3659 16.5528H13.365L12.9955 18.0214C12.9564 18.1764 13.0969 18.3169 13.2519 18.2778L14.7205 17.9082V17.9078L17.451 15.1768L20.1819 12.4455V9.7341Z" fill="black"/>
<path d="M20.1819 5.63636V7H2V5.63636C2 5.13636 2.40909 4.72726 2.90909 4.72726H19.2728C19.7728 4.72726 20.1819 5.13636 20.1819 5.63636Z" fill="url(#paint1_linear_40_1597)"/>
<path d="M4.50001 10.6364H4.95456C5.08001 10.6364 5.18183 10.5345 5.18183 10.4091V9.95454C5.18183 9.82908 5.08001 9.72726 4.95456 9.72726H4.50001C4.37455 9.72726 4.27274 9.82908 4.27274 9.95454V10.4091C4.27274 10.5345 4.37455 10.6364 4.50001 10.6364Z" fill="#0F94BF"/>
<path d="M4.50001 12.4546H4.95456C5.08001 12.4546 5.18183 12.3527 5.18183 12.2273V11.7727C5.18183 11.6473 5.08001 11.5455 4.95456 11.5455H4.50001C4.37455 11.5455 4.27274 11.6473 4.27274 11.7727V12.2273C4.27274 12.3527 4.37455 12.4546 4.50001 12.4546Z" fill="#0F94BF"/>
<path d="M4.50001 14.2727H4.95456C5.08001 14.2727 5.18183 14.1709 5.18183 14.0455V13.5909C5.18183 13.4655 5.08001 13.3636 4.95456 13.3636H4.50001C4.37455 13.3636 4.27274 13.4655 4.27274 13.5909V14.0455C4.27274 14.1709 4.37455 14.2727 4.50001 14.2727Z" fill="#0F94BF"/>
<path d="M4.50001 16.0909H4.95456C5.08001 16.0909 5.18183 15.9891 5.18183 15.8637V15.4091C5.18183 15.2837 5.08001 15.1819 4.95456 15.1819H4.50001C4.37455 15.1819 4.27274 15.2837 4.27274 15.4091V15.8637C4.27274 15.9891 4.37455 16.0909 4.50001 16.0909Z" fill="#0F94BF"/>
<path d="M21.9005 10.2459L21.0269 9.37274C20.8942 9.23956 20.6778 9.23956 20.5446 9.37274L20.1337 9.78411L21.4887 11.1391L21.9001 10.7282C22.0332 10.5946 22.0332 10.3791 21.9005 10.2459Z" fill="#C94F60"/>
<path d="M13.365 16.5528L12.9091 18.3637L14.7205 17.9078L14.9105 16.3369L13.365 16.5528Z" fill="#F0F0F0"/>
<path d="M20.3332 12.2945L14.7205 17.9073L13.3655 16.5523L18.9782 10.9395L20.3332 12.2945Z" fill="#EDBE00"/>
<path d="M18.9769 10.9395L20.1328 9.78317L21.4887 11.1382L20.3328 12.2945L18.9769 10.9395Z" fill="url(#paint2_linear_40_1597)"/>
<path d="M13.14 17.4478L12.9091 18.3637L13.8246 18.1328L13.14 17.4478Z" fill="#787878"/>
<defs>
<linearGradient id="paint0_linear_40_1597" x1="6.12228" y1="5.63545" x2="14.6937" y2="18.0341" gradientUnits="userSpaceOnUse">
<stop stop-color="#7DD8F3"/>
<stop offset="1" stop-color="#45B0D0"/>
</linearGradient>
<linearGradient id="paint1_linear_40_1597" x1="2.36727" y1="4.17272" x2="19.6137" y2="7.67955" gradientUnits="userSpaceOnUse">
<stop stop-color="#0077D2"/>
<stop offset="1" stop-color="#0B59A2"/>
</linearGradient>
<linearGradient id="paint2_linear_40_1597" x1="20.2328" y1="9.86908" x2="20.2328" y2="12.3641" gradientUnits="userSpaceOnUse">
<stop stop-color="#DEDEDE"/>
<stop offset="1" stop-color="#D6D6D6"/>
</linearGradient>
</defs>
</svg>
