<svg width="24" height="24" viewBox="0 0 24 24" fill="none" xmlns="http://www.w3.org/2000/svg">
<path d="M4.38095 6.5238H19.619C19.7453 6.5238 19.8665 6.57398 19.9558 6.66328C20.045 6.75258 20.0952 6.8737 20.0952 6.99999V9.85714H3.90476V6.99999C3.90476 6.8737 3.95493 6.75258 4.04424 6.66328C4.13353 6.57398 4.25466 6.5238 4.38095 6.5238Z" fill="url(#paint0_linear_40_1680)"/>
<path d="M2.95238 9.38095H21.0476C21.3002 9.38095 21.5425 9.48133 21.721 9.6599C21.8996 9.83847 22 10.0808 22 10.3333V20.3333H2V10.3333C2 10.0808 2.10034 9.83847 2.27894 9.6599C2.45755 9.48133 2.69979 9.38095 2.95238 9.38095Z" fill="url(#paint1_linear_40_1680)"/>
<path d="M5.80952 7.4762H4.85714V8.42858H5.80952V7.4762Z" fill="#0370C8"/>
<path d="M7.71428 7.4762H6.7619V8.42858H7.71428V7.4762Z" fill="#0370C8"/>
<path d="M9.61905 7.4762H8.66667V8.42858H9.61905V7.4762Z" fill="#0370C8"/>
<path d="M11.5238 7.4762H10.5714V8.42858H11.5238V7.4762Z" fill="#0370C8"/>
<path d="M13.4286 7.4762H12.4762V8.42858H13.4286V7.4762Z" fill="#0370C8"/>
<path d="M11.0476 10.8095H10.0952C9.83225 10.8095 9.61905 11.0227 9.61905 11.2857V13.6667C9.61905 13.9296 9.83225 14.1428 10.0952 14.1428H11.0476C11.3106 14.1428 11.5238 13.9296 11.5238 13.6667V11.2857C11.5238 11.0227 11.3106 10.8095 11.0476 10.8095Z" fill="#0370C8"/>
<path d="M8.19047 10.8095H7.23809C6.9751 10.8095 6.7619 11.0227 6.7619 11.2857V13.6667C6.7619 13.9296 6.9751 14.1428 7.23809 14.1428H8.19047C8.45346 14.1428 8.66666 13.9296 8.66666 13.6667V11.2857C8.66666 11.0227 8.45346 10.8095 8.19047 10.8095Z" fill="#0370C8"/>
<path d="M5.33333 10.8095H4.38095C4.11796 10.8095 3.90476 11.0227 3.90476 11.2857V13.6667C3.90476 13.9296 4.11796 14.1428 4.38095 14.1428H5.33333C5.59632 14.1428 5.80952 13.9296 5.80952 13.6667V11.2857C5.80952 11.0227 5.59632 10.8095 5.33333 10.8095Z" fill="#0370C8"/>
<path d="M8.19047 15.0952H7.23809C6.9751 15.0952 6.7619 15.3085 6.7619 15.5714V17.9524C6.7619 18.2153 6.9751 18.4285 7.23809 18.4285H8.19047C8.45346 18.4285 8.66666 18.2153 8.66666 17.9524V15.5714C8.66666 15.3085 8.45346 15.0952 8.19047 15.0952Z" fill="#0370C8"/>
<path d="M5.33333 15.0952H4.38095C4.11796 15.0952 3.90476 15.3085 3.90476 15.5714V17.9524C3.90476 18.2153 4.11796 18.4285 4.38095 18.4285H5.33333C5.59632 18.4285 5.80952 18.2153 5.80952 17.9524V15.5714C5.80952 15.3085 5.59632 15.0952 5.33333 15.0952Z" fill="#0370C8"/>
<path d="M19.619 15.0952H18.6667C18.4037 15.0952 18.1905 15.3085 18.1905 15.5714V17.9524C18.1905 18.2153 18.4037 18.4285 18.6667 18.4285H19.619C19.882 18.4285 20.0952 18.2153 20.0952 17.9524V15.5714C20.0952 15.3085 19.882 15.0952 19.619 15.0952Z" fill="#0370C8"/>
<path d="M16.7619 15.0952H15.8095C15.5466 15.0952 15.3333 15.3085 15.3333 15.5714V17.9524C15.3333 18.2153 15.5466 18.4285 15.8095 18.4285H16.7619C17.0249 18.4285 17.2381 18.2153 17.2381 17.9524V15.5714C17.2381 15.3085 17.0249 15.0952 16.7619 15.0952Z" fill="#0370C8"/>
<path d="M13.9048 10.8095H12.9524C12.6894 10.8095 12.4762 11.0227 12.4762 11.2857V13.6667C12.4762 13.9296 12.6894 14.1428 12.9524 14.1428H13.9048C14.1677 14.1428 14.381 13.9296 14.381 13.6667V11.2857C14.381 11.0227 14.1677 10.8095 13.9048 10.8095Z" fill="#0370C8"/>
<path d="M16.7619 10.8095H15.8095C15.5466 10.8095 15.3333 11.0227 15.3333 11.2857V13.6667C15.3333 13.9296 15.5466 14.1428 15.8095 14.1428H16.7619C17.0249 14.1428 17.2381 13.9296 17.2381 13.6667V11.2857C17.2381 11.0227 17.0249 10.8095 16.7619 10.8095Z" fill="#0370C8"/>
<path d="M19.619 10.8095H18.6667C18.4037 10.8095 18.1905 11.0227 18.1905 11.2857V13.6667C18.1905 13.9296 18.4037 14.1428 18.6667 14.1428H19.619C19.882 14.1428 20.0952 13.9296 20.0952 13.6667V11.2857C20.0952 11.0227 19.882 10.8095 19.619 10.8095Z" fill="#0370C8"/>
<path d="M12 15.0952C12.6314 15.0952 13.237 15.3461 13.6836 15.7925C14.1301 16.2391 14.381 16.8447 14.381 17.4762V20.3333H9.61905V17.4762C9.61905 16.8447 9.8699 16.2391 10.3164 15.7925C10.763 15.3461 11.3686 15.0952 12 15.0952Z" fill="#0370C8"/>
<path d="M15.3333 7.4762H14.381V8.42858H15.3333V7.4762Z" fill="#0370C8"/>
<path d="M17.2381 7.4762H16.2857V8.42858H17.2381V7.4762Z" fill="#0370C8"/>
<path d="M19.1429 7.4762H18.1905V8.42858H19.1429V7.4762Z" fill="#0370C8"/>
<path d="M15.0907 6.04208C13.541 6.00485 13.791 5.60768 12.2369 5.57135C12.1742 5.57045 12.1143 5.5451 12.0701 5.50068C12.0258 5.45627 12.0007 5.39633 12 5.33363V3.9051C12 3.87344 12.0064 3.84211 12.0187 3.81293C12.031 3.78375 12.0489 3.75729 12.0714 3.73511C12.094 3.71293 12.1208 3.69545 12.1502 3.68372C12.1796 3.67198 12.211 3.6662 12.2427 3.66672C13.7924 3.70396 13.5423 4.10113 15.0965 4.13746C15.1591 4.13835 15.219 4.16371 15.2632 4.20812C15.3075 4.25253 15.3327 4.31248 15.3333 4.37517V5.8037C15.3333 5.83536 15.327 5.86669 15.3147 5.89587C15.3024 5.92506 15.2845 5.95151 15.2619 5.9737C15.2393 5.99588 15.2126 6.01335 15.1831 6.02509C15.1537 6.03683 15.1223 6.04261 15.0907 6.04208Z" fill="url(#paint2_linear_40_1680)"/>
<path opacity="0.05" d="M20.0952 8.90475H3.90476V9.38095H20.0952V8.90475Z" fill="black"/>
<path opacity="0.07" d="M20.0952 9.14285H3.90476V9.38095H20.0952V9.14285Z" fill="black"/>
<defs>
<linearGradient id="paint0_linear_40_1680" x1="8.90381" y1="-0.120482" x2="13.3395" y2="12.0662" gradientUnits="userSpaceOnUse">
<stop stop-color="#32BDEF"/>
<stop offset="1" stop-color="#1EA2E4"/>
</linearGradient>
<linearGradient id="paint1_linear_40_1680" x1="8.80286" y1="6.46524" x2="16.4705" y2="27.5319" gradientUnits="userSpaceOnUse">
<stop stop-color="#32BDEF"/>
<stop offset="1" stop-color="#1EA2E4"/>
</linearGradient>
<linearGradient id="paint2_linear_40_1680" x1="12.4882" y1="4.01457" x2="14.0758" y2="6.24248" gradientUnits="userSpaceOnUse">
<stop stop-color="#21AD64"/>
<stop offset="1" stop-color="#088242"/>
</linearGradient>
</defs>
</svg>
