<svg width="24" height="24" viewBox="0 0 24 24" fill="none" xmlns="http://www.w3.org/2000/svg">
<path d="M2 19V7.5H22V19C22 19.55 21.55 20 21 20H3C2.45 20 2 19.55 2 19Z" fill="url(#paint0_linear_40_1725)"/>
<path opacity="0.05" d="M7.5 18.5C6.9485 18.5 6.5 18.0515 6.5 17.5V14C6.5 13.4485 6.9485 13 7.5 13H8.0765L8.472 10.6265C8.532 10.2635 8.8435 10 9.212 10H9.788C10.156 10 10.4675 10.2635 10.5275 10.627L10.9235 13H11.5V12.941C11.408 12.889 11.3245 12.822 11.2535 12.7425C10.8865 12.3305 10.9235 11.6975 11.335 11.3305L13.536 9.36901C13.802 9.13201 14.1445 9.00201 14.5 9.00201C14.856 9.00201 15.198 9.13251 15.4635 9.36901L17.665 11.3305C18.0765 11.6975 18.1135 12.3305 17.747 12.742C17.675 12.8225 17.5915 12.89 17.5 12.9425V17.406C17.5 18.0095 17.0265 18.5 16.4445 18.5H7.5Z" fill="black"/>
<path opacity="0.07" d="M7.5 18.25C7.0865 18.25 6.75 17.9135 6.75 17.5V14C6.75 13.5865 7.0865 13.25 7.5 13.25H8.288L8.7185 10.668C8.7585 10.426 8.966 10.25 9.2115 10.25H9.7875C10.033 10.25 10.2405 10.426 10.2805 10.668L10.711 13.25H11.75V12.7815C11.6315 12.741 11.5255 12.671 11.44 12.5755C11.165 12.2665 11.1925 11.792 11.501 11.5165L13.702 9.555C13.9225 9.359 14.206 9.2515 14.5 9.2515C14.7945 9.2515 15.0775 9.3595 15.2975 9.555L17.499 11.516C17.8075 11.7915 17.835 12.266 17.56 12.575C17.475 12.6705 17.3675 12.7415 17.25 12.7835V17.406C17.25 17.8715 16.8885 18.25 16.4445 18.25H7.5Z" fill="black"/>
<path d="M22 5V7.5H2V5C2 4.45 2.45 4 3 4H21C21.55 4 22 4.45 22 5Z" fill="url(#paint1_linear_40_1725)"/>
<path d="M8.25 6.5H20.75C20.888 6.5 21 6.388 21 6.25V5.25C21 5.112 20.888 5 20.75 5H8.25C8.112 5 8 5.112 8 5.25V6.25C8 6.388 8.112 6.5 8.25 6.5Z" fill="url(#paint2_linear_40_1725)"/>
<path d="M3.75 6.5C4.16421 6.5 4.5 6.16421 4.5 5.75C4.5 5.33579 4.16421 5 3.75 5C3.33579 5 3 5.33579 3 5.75C3 6.16421 3.33579 6.5 3.75 6.5Z" fill="url(#paint3_linear_40_1725)"/>
<path d="M6.25 6.5C6.66421 6.5 7 6.16421 7 5.75C7 5.33579 6.66421 5 6.25 5C5.83579 5 5.5 5.33579 5.5 5.75C5.5 6.16421 5.83579 6.5 6.25 6.5Z" fill="url(#paint4_linear_40_1725)"/>
<path d="M10.5 13.5L9.5 14L8.5 13.5L8.6665 12.5005L9.25 12L8.8335 11.4995L8.9655 10.7085C8.9855 10.5885 9.0895 10.5 9.212 10.5H9.7885C9.9105 10.5 10.015 10.5885 10.035 10.709L10.167 11.5L9.75 12L10.3335 12.5005L10.5 13.5Z" fill="url(#paint5_linear_40_1725)"/>
<path d="M13.5 13.5H7.5C7.224 13.5 7 13.724 7 14V17.5C7 17.776 7.224 18 7.5 18H13.5V13.5Z" fill="url(#paint6_linear_40_1725)"/>
<path d="M12.5555 18H16.4445C16.75 18 17 17.733 17 17.406V12.077L14.7985 10.116C14.6255 9.96199 14.3745 9.96199 14.2015 10.116L12 12.077V17.4065C12 17.734 12.2485 18 12.5555 18Z" fill="url(#paint7_linear_40_1725)"/>
<path d="M10.335 12.5H8.665L8.835 11.5H10.165L10.335 12.5Z" fill="#A8A8A8"/>
<path d="M9 14.5H8V16.5H9V14.5Z" fill="#FF8800"/>
<path d="M11 14.5H10V16.5H11V14.5Z" fill="#FF8800"/>
<path d="M14 13H13V14H14V13Z" fill="#FF8800"/>
<path d="M16 13H15V14H16V13Z" fill="#FF8800"/>
<path d="M14 15H13V16H14V15Z" fill="#FF8800"/>
<path d="M16 15H15V16H16V15Z" fill="#FF8800"/>
<path d="M17 12.577C16.8815 12.577 16.7625 12.5355 16.6675 12.4505L14.5 10.519L12.3325 12.45C12.1265 12.6335 11.811 12.616 11.6265 12.409C11.443 12.203 11.4615 11.887 11.6675 11.703L13.8685 9.7415C14.229 9.421 14.7715 9.421 15.1305 9.7415L17.332 11.703C17.538 11.8865 17.5565 12.203 17.373 12.409C17.2745 12.5205 17.1375 12.577 17 12.577Z" fill="url(#paint8_linear_40_1725)"/>
<defs>
<linearGradient id="paint0_linear_40_1725" x1="8.30571" y1="7.69191" x2="12.742" y2="21.3773" gradientUnits="userSpaceOnUse">
<stop stop-color="#7DD8F3"/>
<stop offset="1" stop-color="#45B0D0"/>
</linearGradient>
<linearGradient id="paint1_linear_40_1725" x1="2.307" y1="3.8705" x2="21.468" y2="7.7665" gradientUnits="userSpaceOnUse">
<stop stop-color="#0077D2"/>
<stop offset="1" stop-color="#0B59A2"/>
</linearGradient>
<linearGradient id="paint2_linear_40_1725" x1="8" y1="5.75" x2="21" y2="5.75" gradientUnits="userSpaceOnUse">
<stop stop-color="#7DD8F3"/>
<stop offset="1" stop-color="#45B0D0"/>
</linearGradient>
<linearGradient id="paint3_linear_40_1725" x1="3.3755" y1="5.208" x2="4.016" y2="6.1345" gradientUnits="userSpaceOnUse">
<stop stop-color="#75DAFF"/>
<stop offset="1" stop-color="#49BEF1"/>
</linearGradient>
<linearGradient id="paint4_linear_40_1725" x1="5.8755" y1="5.208" x2="6.516" y2="6.1345" gradientUnits="userSpaceOnUse">
<stop stop-color="#75DAFF"/>
<stop offset="1" stop-color="#49BEF1"/>
</linearGradient>
<linearGradient id="paint5_linear_40_1725" x1="9.5" y1="10.504" x2="9.5" y2="14.892" gradientUnits="userSpaceOnUse">
<stop stop-color="#C93702"/>
<stop offset="0.325" stop-color="#C63602"/>
<stop offset="0.528" stop-color="#BE3402"/>
<stop offset="0.698" stop-color="#AF2F03"/>
<stop offset="0.849" stop-color="#9B2903"/>
<stop offset="0.98" stop-color="#822204"/>
</linearGradient>
<linearGradient id="paint6_linear_40_1725" x1="6.9885" y1="15.75" x2="13.531" y2="15.75" gradientUnits="userSpaceOnUse">
<stop stop-color="#C93702"/>
<stop offset="0.325" stop-color="#C63602"/>
<stop offset="0.528" stop-color="#BE3402"/>
<stop offset="0.698" stop-color="#AF2F03"/>
<stop offset="0.849" stop-color="#9B2903"/>
<stop offset="0.98" stop-color="#822204"/>
</linearGradient>
<linearGradient id="paint7_linear_40_1725" x1="14.5" y1="9.92249" x2="14.5" y2="17.994" gradientUnits="userSpaceOnUse">
<stop stop-color="#C93702"/>
<stop offset="0.499" stop-color="#BA3302"/>
<stop offset="1" stop-color="#A62D03"/>
</linearGradient>
<linearGradient id="paint8_linear_40_1725" x1="14.5" y1="9.225" x2="14.5" y2="13.8405" gradientUnits="userSpaceOnUse">
<stop stop-color="#C93702"/>
<stop offset="0.499" stop-color="#A60F0F"/>
<stop offset="1" stop-color="#A62D03"/>
</linearGradient>
</defs>
</svg>
