<svg width="24" height="24" viewBox="0 0 24 24" fill="none" xmlns="http://www.w3.org/2000/svg">
<path d="M2 17V19.7778C2 20.6983 2.74333 21.4444 3.66111 21.4444H20.3389C21.2561 21.4444 22 20.6983 22 19.7778V17H2Z" fill="url(#paint0_linear_40_1745)"/>
<path d="M22 17C21.9306 17.9205 21.1883 18.6667 20.2728 18.6667H3.65833C2.74222 18.6667 2 17.9205 2 17V4.22221C2 3.30165 2.74222 2.55554 3.65833 2.55554H20.2722C21.1878 2.55554 21.93 3.30165 21.9994 4.22221L22 17Z" fill="url(#paint1_linear_40_1745)"/>
<path d="M10.0706 13.5689H6.80444V8.12277H9.945V9.12166H8.03111V10.3333H9.81222V11.3283H8.03111V12.5739H10.0706V13.5689Z" fill="url(#paint2_linear_40_1745)"/>
<path d="M10.5722 13.4661V12.4939C10.7694 12.6128 10.9667 12.7017 11.1628 12.76C11.3594 12.8183 11.545 12.8472 11.7194 12.8472C11.9322 12.8472 12.1 12.8183 12.2228 12.76C12.3456 12.7017 12.4067 12.6133 12.4067 12.4939C12.4067 12.4178 12.3789 12.355 12.3233 12.3039C12.2678 12.2528 12.1961 12.2089 12.1089 12.1711C12.0211 12.1333 11.9256 12.0989 11.8217 12.0683C11.7178 12.0378 11.6178 12.0039 11.5217 11.9655C11.3672 11.9072 11.2311 11.8444 11.1139 11.7778C10.9956 11.7105 10.8967 11.6328 10.8178 11.5444C10.7372 11.4555 10.6767 11.3533 10.6356 11.2367C10.5933 11.1205 10.5728 10.9822 10.5728 10.8228C10.5728 10.605 10.6206 10.4178 10.715 10.2605C10.8106 10.1033 10.9367 9.97499 11.095 9.87499C11.2533 9.77499 11.4344 9.70166 11.6389 9.65499C11.8422 9.60832 12.0544 9.58499 12.275 9.58499C12.4472 9.58499 12.6217 9.59833 12.7989 9.62499C12.9761 9.65166 13.1511 9.68999 13.3228 9.74055V10.6672C13.1711 10.5783 13.0083 10.5122 12.8344 10.4678C12.6611 10.4233 12.4911 10.4011 12.3239 10.4011C12.245 10.4011 12.1717 10.4083 12.1022 10.4222C12.0322 10.4361 11.9711 10.4567 11.9178 10.4828C11.8644 10.5089 11.8228 10.5433 11.7922 10.5855C11.7617 10.6278 11.7467 10.675 11.7467 10.7278C11.7467 10.7983 11.7694 10.8594 11.815 10.91C11.8606 10.9605 11.92 11.0044 11.9933 11.0411C12.0667 11.0778 12.1483 11.1105 12.2383 11.14C12.3278 11.1689 12.4172 11.1989 12.5056 11.2294C12.665 11.285 12.8094 11.3455 12.9383 11.4117C13.0672 11.4778 13.1783 11.5544 13.2711 11.6433C13.3633 11.7322 13.4339 11.8355 13.4839 11.955C13.5328 12.0739 13.5578 12.2155 13.5578 12.3805C13.5578 12.6111 13.5078 12.8078 13.4078 12.9711C13.3072 13.1344 13.1744 13.2672 13.0083 13.37C12.8428 13.4728 12.6511 13.5472 12.4356 13.5944C12.2183 13.6411 11.9939 13.6644 11.7611 13.6644C11.3328 13.6639 10.9367 13.5978 10.5722 13.4661Z" fill="url(#paint3_linear_40_1745)"/>
<path d="M17.1956 13.4283C16.925 13.585 16.5339 13.6639 16.0222 13.6639C15.425 13.6639 14.9411 13.4828 14.5717 13.1205C14.2022 12.7583 14.0172 12.2911 14.0172 11.7194C14.0172 11.0589 14.215 10.5378 14.6117 10.1567C15.0078 9.77555 15.5372 9.58499 16.2006 9.58499C16.6589 9.58499 16.9906 9.64555 17.1956 9.76721V10.785C16.945 10.5978 16.665 10.5039 16.3561 10.5039C16.0117 10.5039 15.7389 10.6044 15.5378 10.8055C15.3361 11.0067 15.2356 11.2844 15.2356 11.6389C15.2356 11.9833 15.3317 12.2533 15.5244 12.4494C15.7172 12.6455 15.9811 12.7439 16.3183 12.7439C16.6172 12.7439 16.9094 12.6505 17.1956 12.4628V13.4283Z" fill="url(#paint4_linear_40_1745)"/>
<defs>
<linearGradient id="paint0_linear_40_1745" x1="12" y1="31.5422" x2="12" y2="13.1506" gradientUnits="userSpaceOnUse">
<stop stop-color="#899198"/>
<stop offset="1" stop-color="#787E85"/>
</linearGradient>
<linearGradient id="paint1_linear_40_1745" x1="6.43083" y1="0.15542" x2="16.3299" y2="18.1948" gradientUnits="userSpaceOnUse">
<stop stop-color="#FCFCFC"/>
<stop offset="0.95" stop-color="#C3C9CD"/>
</linearGradient>
<linearGradient id="paint2_linear_40_1745" x1="7.11928" y1="8.32875" x2="10.9248" y2="9.74764" gradientUnits="userSpaceOnUse">
<stop stop-color="#A1AAB3"/>
<stop offset="1" stop-color="#8F979E"/>
</linearGradient>
<linearGradient id="paint3_linear_40_1745" x1="10.86" y1="9.73928" x2="14.1427" y2="11.2329" gradientUnits="userSpaceOnUse">
<stop stop-color="#A1AAB3"/>
<stop offset="1" stop-color="#8F979E"/>
</linearGradient>
<linearGradient id="paint4_linear_40_1745" x1="14.3236" y1="9.73926" x2="17.7399" y2="11.3943" gradientUnits="userSpaceOnUse">
<stop stop-color="#A1AAB3"/>
<stop offset="1" stop-color="#8F979E"/>
</linearGradient>
</defs>
</svg>
