<svg width="24" height="24" viewBox="0 0 24 24" fill="none" xmlns="http://www.w3.org/2000/svg">
<path d="M8.00706 11.9451C7.79963 11.9451 7.61405 11.7997 7.57034 11.5892L6.33243 5.57496C6.24723 5.16188 5.8801 4.86255 5.45854 4.86255H4.67654C4.4303 4.86255 4.23045 4.6627 4.23045 4.41646C4.23045 4.17022 4.4303 3.97037 4.67654 3.97037H5.45854C6.30121 3.97037 7.03636 4.56947 7.20632 5.39474L8.44423 11.4089C8.49374 11.6503 8.3385 11.8862 8.09717 11.9358C8.06728 11.9425 8.03695 11.9451 8.00706 11.9451Z" fill="url(#paint0_linear_40_1834)"/>
<path d="M18.5054 20.4757C19.2444 20.4757 19.8436 19.8765 19.8436 19.1374C19.8436 18.3984 19.2444 17.7992 18.5054 17.7992C17.7663 17.7992 17.1671 18.3984 17.1671 19.1374C17.1671 19.8765 17.7663 20.4757 18.5054 20.4757Z" fill="#5C5F61"/>
<path opacity="0.15" d="M18.5054 19.5835C18.7517 19.5835 18.9514 19.3838 18.9514 19.1374C18.9514 18.8911 18.7517 18.6913 18.5054 18.6913C18.259 18.6913 18.0593 18.8911 18.0593 19.1374C18.0593 19.3838 18.259 19.5835 18.5054 19.5835Z" fill="black"/>
<path d="M10.4757 20.4757C11.2148 20.4757 11.814 19.8765 11.814 19.1374C11.814 18.3984 11.2148 17.7992 10.4757 17.7992C9.73661 17.7992 9.13745 18.3984 9.13745 19.1374C9.13745 19.8765 9.73661 20.4757 10.4757 20.4757Z" fill="#5C5F61"/>
<path opacity="0.15" d="M10.4757 19.5835C10.7221 19.5835 10.9218 19.3838 10.9218 19.1374C10.9218 18.8911 10.7221 18.6913 10.4757 18.6913C10.2294 18.6913 10.0296 18.8911 10.0296 19.1374C10.0296 19.3838 10.2294 19.5835 10.4757 19.5835Z" fill="black"/>
<path d="M20.2897 18.2453H9.58354C8.59947 18.2453 7.79918 17.445 7.79918 16.4609C7.79918 15.4768 8.59947 14.6765 9.58354 14.6765H18.9514C19.1977 14.6765 19.3975 14.8764 19.3975 15.1226C19.3975 15.3689 19.1977 15.5687 18.9514 15.5687H9.58354C9.0915 15.5687 8.69136 15.9689 8.69136 16.4609C8.69136 16.9529 9.0915 17.3531 9.58354 17.3531H20.2897C20.536 17.3531 20.7358 17.5529 20.7358 17.7992C20.7358 18.0454 20.536 18.2453 20.2897 18.2453Z" fill="url(#paint1_linear_40_1834)"/>
<path d="M5.56873 4.41644C5.56873 4.90893 5.16903 5.30862 4.67654 5.30862C4.18406 5.30862 3.78436 4.90893 3.78436 4.41644C3.78436 3.92396 4.18406 3.52426 4.67654 3.52426C5.16903 3.52426 5.56873 3.92396 5.56873 4.41644Z" fill="url(#paint2_linear_40_1834)"/>
<path d="M8.10698 14.8434C8.18728 15.2645 8.5553 15.5687 8.98355 15.5687H19.9801C20.4164 15.5687 20.7884 15.2533 20.8603 14.8233L21.7806 9.30114L6.80573 8.01193L8.10698 14.8434Z" fill="url(#paint3_linear_40_1834)"/>
<path d="M21.5883 7.50161L6.46091 6.20081L6.80574 8.01193L21.7801 9.30114L21.9938 8.01996C22.0371 7.76168 21.8493 7.52168 21.5883 7.50161Z" fill="url(#paint4_linear_40_1834)"/>
<path d="M6.46091 11.5539C6.37793 11.5539 3.42125 11.5539 3.33827 11.5539C3.09203 11.5539 2.89218 11.7537 2.89218 12C2.89218 12.2462 3.09203 12.4461 3.33827 12.4461C3.42125 12.4461 6.37793 12.4461 6.46091 12.4461C6.70715 12.4461 6.907 12.2462 6.907 12C6.907 11.7537 6.70715 11.5539 6.46091 11.5539Z" fill="#0D62AB"/>
<path d="M6.01482 9.32346C5.93184 9.32346 2.52906 9.32346 2.44609 9.32346C2.19985 9.32346 2 9.5233 2 9.76955C2 10.0158 2.19985 10.2156 2.44609 10.2156C2.52906 10.2156 5.93184 10.2156 6.01482 10.2156C6.26106 10.2156 6.46091 10.0158 6.46091 9.76955C6.46091 9.5233 6.26106 9.32346 6.01482 9.32346Z" fill="#0D62AB"/>
<path d="M6.907 13.7844C6.82403 13.7844 4.31343 13.7844 4.23045 13.7844C3.98421 13.7844 3.78436 13.9842 3.78436 14.2305C3.78436 14.4767 3.98421 14.6765 4.23045 14.6765C4.31343 14.6765 6.82403 14.6765 6.907 14.6765C7.15324 14.6765 7.35309 14.4767 7.35309 14.2305C7.35309 13.9842 7.15324 13.7844 6.907 13.7844Z" fill="#0D62AB"/>
<defs>
<linearGradient id="paint0_linear_40_1834" x1="6.3418" y1="11.9451" x2="6.3418" y2="3.97037" gradientUnits="userSpaceOnUse">
<stop stop-color="#92A3B0"/>
<stop offset="0.015" stop-color="#A3B5C4"/>
<stop offset="0.032" stop-color="#AEC2D1"/>
<stop offset="0.046" stop-color="#B2C6D6"/>
</linearGradient>
<linearGradient id="paint1_linear_40_1834" x1="14.2675" y1="18.2453" x2="14.2675" y2="14.6765" gradientUnits="userSpaceOnUse">
<stop stop-color="#92A3B0"/>
<stop offset="0.015" stop-color="#A3B5C4"/>
<stop offset="0.032" stop-color="#AEC2D1"/>
<stop offset="0.046" stop-color="#B2C6D6"/>
</linearGradient>
<linearGradient id="paint2_linear_40_1834" x1="4.12161" y1="3.86151" x2="5.29393" y2="5.03383" gradientUnits="userSpaceOnUse">
<stop stop-color="#199AE0"/>
<stop offset="1" stop-color="#0782D8"/>
</linearGradient>
<linearGradient id="paint3_linear_40_1834" x1="6.80573" y1="11.7903" x2="21.7806" y2="11.7903" gradientUnits="userSpaceOnUse">
<stop stop-color="#3079D6"/>
<stop offset="1" stop-color="#297CD2"/>
</linearGradient>
<linearGradient id="paint4_linear_40_1834" x1="6.46091" y1="7.75097" x2="22" y2="7.75097" gradientUnits="userSpaceOnUse">
<stop stop-color="#42A3F2"/>
<stop offset="1" stop-color="#42A4EB"/>
</linearGradient>
</defs>
</svg>
