<svg width="24" height="24" viewBox="0 0 24 24" fill="none" xmlns="http://www.w3.org/2000/svg">
<path d="M2 16.5452V6.09079H20.1815V16.5452C20.1815 17.0452 19.7724 17.4542 19.2725 17.4542H2.90908C2.40908 17.4542 2 17.0452 2 16.5452Z" fill="url(#paint0_linear_40_1869)"/>
<path d="M20.1815 3.8181V6.0908H2V3.8181C2 3.31811 2.40908 2.90903 2.90908 2.90903H19.2725C19.7724 2.90903 20.1815 3.31811 20.1815 3.8181Z" fill="url(#paint1_linear_40_1869)"/>
<path d="M3.59088 5.18173C3.96743 5.18173 4.27269 4.87647 4.27269 4.49992C4.27269 4.12337 3.96743 3.81812 3.59088 3.81812C3.21433 3.81812 2.90907 4.12337 2.90907 4.49992C2.90907 4.87647 3.21433 5.18173 3.59088 5.18173Z" fill="url(#paint2_linear_40_1869)"/>
<path d="M5.86357 5.18173C6.24012 5.18173 6.54538 4.87647 6.54538 4.49992C6.54538 4.12337 6.24012 3.81812 5.86357 3.81812C5.48702 3.81812 5.18176 4.12337 5.18176 4.49992C5.18176 4.87647 5.48702 5.18173 5.86357 5.18173Z" fill="url(#paint3_linear_40_1869)"/>
<path d="M8.13626 5.18173C8.51281 5.18173 8.81807 4.87647 8.81807 4.49992C8.81807 4.12337 8.51281 3.81812 8.13626 3.81812C7.75971 3.81812 7.45445 4.12337 7.45445 4.49992C7.45445 4.87647 7.75971 5.18173 8.13626 5.18173Z" fill="url(#paint4_linear_40_1869)"/>
<path opacity="0.05" d="M20.1815 16.5452V14.9384L19.1684 14.8316L18.0706 12.368C17.9606 12.1216 17.7243 11.9684 17.4543 11.9684C17.1834 11.9684 16.9479 12.1216 16.8388 12.368L15.7416 14.8311L13.0594 15.1143C12.7898 15.1425 12.5716 15.3198 12.4885 15.5779C12.4053 15.8347 12.4785 16.1066 12.6785 16.2861L13.9743 17.4543H19.2724C19.7724 17.4543 20.1815 17.0452 20.1815 16.5452Z" fill="black"/>
<path opacity="0.07" d="M20.1815 16.5452V15.1666L19.0143 15.0434L17.8629 12.4598C17.7902 12.2966 17.6334 12.1953 17.4543 12.1953C17.2752 12.1953 17.1189 12.2966 17.0466 12.4598L15.8957 15.0429L13.083 15.3397C12.9048 15.3584 12.7598 15.4761 12.7048 15.647C12.6498 15.8175 12.698 15.9975 12.8307 16.1166L14.3139 17.4543H19.2725C19.7724 17.4543 20.1815 17.0452 20.1815 16.5452Z" fill="black"/>
<path d="M17.6552 12.553L18.8602 15.2556L21.8029 15.5665C21.9924 15.5865 22.0683 15.8211 21.927 15.9488L19.7288 17.9297L20.3429 20.8246C20.3824 21.011 20.1829 21.156 20.0179 21.061L17.4543 19.5819L14.8912 21.0605C14.7262 21.1555 14.5266 21.0105 14.5662 20.8242L15.1802 17.9292L12.9821 15.9484C12.8407 15.8211 12.9171 15.5861 13.1062 15.5661L16.0489 15.2552L17.2538 12.5525C17.3307 12.3793 17.5775 12.3793 17.6552 12.553Z" fill="url(#paint5_linear_40_1869)"/>
<defs>
<linearGradient id="paint0_linear_40_1869" x1="7.73237" y1="6.26525" x2="11.7653" y2="18.7063" gradientUnits="userSpaceOnUse">
<stop stop-color="#7DD8F3"/>
<stop offset="1" stop-color="#45B0D0"/>
</linearGradient>
<linearGradient id="paint1_linear_40_1869" x1="2.27909" y1="2.7913" x2="19.6979" y2="6.33306" gradientUnits="userSpaceOnUse">
<stop stop-color="#0077D2"/>
<stop offset="1" stop-color="#0B59A2"/>
</linearGradient>
<linearGradient id="paint2_linear_40_1869" x1="3.25043" y1="4.0072" x2="3.83269" y2="4.84946" gradientUnits="userSpaceOnUse">
<stop stop-color="#75DAFF"/>
<stop offset="1" stop-color="#49BEF1"/>
</linearGradient>
<linearGradient id="paint3_linear_40_1869" x1="5.52312" y1="4.0072" x2="6.10538" y2="4.84946" gradientUnits="userSpaceOnUse">
<stop stop-color="#75DAFF"/>
<stop offset="1" stop-color="#49BEF1"/>
</linearGradient>
<linearGradient id="paint4_linear_40_1869" x1="7.79581" y1="4.0072" x2="8.37807" y2="4.84946" gradientUnits="userSpaceOnUse">
<stop stop-color="#75DAFF"/>
<stop offset="1" stop-color="#49BEF1"/>
</linearGradient>
<linearGradient id="paint5_linear_40_1869" x1="14.1575" y1="12.8116" x2="20.5538" y2="21.3692" gradientUnits="userSpaceOnUse">
<stop stop-color="#FFDA1C"/>
<stop offset="1" stop-color="#FEB705"/>
</linearGradient>
</defs>
</svg>
