<svg width="24" height="24" viewBox="0 0 24 24" fill="none" xmlns="http://www.w3.org/2000/svg">
<path d="M12.1971 5.53047L10.9895 4.32285C10.7219 4.05523 10.3586 3.90475 9.97952 3.90475H2.95238C2.42619 3.90475 2 4.33095 2 4.85714V19.1428C2 19.669 2.42619 20.0952 2.95238 20.0952H21.0476C21.5738 20.0952 22 19.669 22 19.1428V6.7619C22 6.23571 21.5738 5.80952 21.0476 5.80952H12.8705C12.6181 5.80952 12.3757 5.70904 12.1971 5.53047Z" fill="url(#paint0_linear_40_1891)"/>
<path d="M10.8505 7.43522L12.4067 5.87903C12.451 5.83475 12.5114 5.80951 12.5748 5.80951H21.0476C21.5738 5.80951 22 6.2357 22 6.76189V19.1428C22 19.669 21.5738 20.0952 21.0476 20.0952H2.95238C2.42619 20.0952 2 19.669 2 19.1428V7.95237C2 7.82094 2.10667 7.71427 2.2381 7.71427H10.1771C10.4295 7.71427 10.6719 7.61379 10.8505 7.43522Z" fill="url(#paint1_linear_40_1891)"/>
<path d="M6.52381 14.3809H11.6057C11.8581 14.3809 12.1005 14.2805 12.2786 14.1024L13.8352 12.5457C13.8795 12.5014 13.94 12.4762 14.0033 12.4762H14.299C14.0467 12.4762 13.8043 12.3757 13.6257 12.1971L12.4181 10.9895C12.1505 10.7219 11.7871 10.5714 11.4086 10.5714H7.23809C6.7119 10.5714 6.28571 10.9976 6.28571 11.5238V14.619C6.28571 14.4876 6.39238 14.3809 6.52381 14.3809Z" fill="url(#paint2_linear_40_1891)"/>
<path d="M14.0033 12.4762C13.94 12.4762 13.8795 12.5014 13.8352 12.5457L12.279 14.1019C12.1005 14.2805 11.8581 14.381 11.6057 14.381H6.52381C6.39238 14.381 6.28571 14.4876 6.28571 14.6191V20.0952H21.0476C21.5738 20.0952 22 19.6691 22 19.1429V12.4762H14.0033Z" fill="url(#paint3_linear_40_1891)"/>
<defs>
<linearGradient id="paint0_linear_40_1891" x1="12" y1="3.76571" x2="12" y2="7.70333" gradientUnits="userSpaceOnUse">
<stop stop-color="#EBA600"/>
<stop offset="1" stop-color="#C28200"/>
</linearGradient>
<linearGradient id="paint1_linear_40_1891" x1="12" y1="5.73999" x2="12" y2="20.0871" gradientUnits="userSpaceOnUse">
<stop stop-color="#FFD869"/>
<stop offset="1" stop-color="#D99800"/>
</linearGradient>
<linearGradient id="paint2_linear_40_1891" x1="10.2924" y1="14.1081" x2="10.2924" y2="10.8886" gradientUnits="userSpaceOnUse">
<stop stop-color="#C28200"/>
<stop offset="1" stop-color="#EBA600"/>
</linearGradient>
<linearGradient id="paint3_linear_40_1891" x1="14.1429" y1="20.1324" x2="14.1429" y2="13.0829" gradientUnits="userSpaceOnUse">
<stop stop-color="#FEC52B"/>
<stop offset="1" stop-color="#FFD869"/>
</linearGradient>
</defs>
</svg>
