<svg width="24" height="24" viewBox="0 0 24 24" fill="none" xmlns="http://www.w3.org/2000/svg">
<path d="M2 8.1739V15.8261C2 16.3543 2.44739 16.7826 3 16.7826H21C21.5526 16.7826 22 16.3543 22 15.8261V8.1739C22 7.64564 21.5526 7.21738 21 7.21738H3C2.44739 7.21738 2 7.64564 2 8.1739Z" fill="url(#paint0_linear_40_1884)"/>
<path d="M13.087 14.6087C13.4471 14.6087 13.7391 14.3167 13.7391 13.9565C13.7391 13.5963 13.4471 13.3043 13.087 13.3043C12.7268 13.3043 12.4348 13.5963 12.4348 13.9565C12.4348 14.3167 12.7268 14.6087 13.087 14.6087Z" fill="url(#paint1_linear_40_1884)"/>
<path d="M10.913 14.6087C11.2732 14.6087 11.5652 14.3167 11.5652 13.9565C11.5652 13.5963 11.2732 13.3043 10.913 13.3043C10.5529 13.3043 10.2609 13.5963 10.2609 13.9565C10.2609 14.3167 10.5529 14.6087 10.913 14.6087Z" fill="url(#paint2_linear_40_1884)"/>
<path d="M7.43479 9.3913H6.34783L3.73914 14.6087H4.82609L7.43479 9.3913Z" fill="url(#paint3_linear_40_1884)"/>
<path d="M10.4783 9.3913H9.3913L6.78261 14.6087H7.86956L10.4783 9.3913Z" fill="url(#paint4_linear_40_1884)"/>
<defs>
<linearGradient id="paint0_linear_40_1884" x1="8.30571" y1="7.36423" x2="11.01" y2="18.2662" gradientUnits="userSpaceOnUse">
<stop stop-color="#7DD8F3"/>
<stop offset="1" stop-color="#45B0D0"/>
</linearGradient>
<linearGradient id="paint1_linear_40_1884" x1="12.8876" y1="13.3614" x2="13.1012" y2="14.75" gradientUnits="userSpaceOnUse">
<stop stop-color="#0D61A9"/>
<stop offset="1" stop-color="#16528C"/>
</linearGradient>
<linearGradient id="paint2_linear_40_1884" x1="10.7136" y1="13.3614" x2="10.9273" y2="14.75" gradientUnits="userSpaceOnUse">
<stop stop-color="#0D61A9"/>
<stop offset="1" stop-color="#16528C"/>
</linearGradient>
<linearGradient id="paint3_linear_40_1884" x1="5.02208" y1="9.61945" x2="6.2014" y2="15.0492" gradientUnits="userSpaceOnUse">
<stop stop-color="#0D61A9"/>
<stop offset="1" stop-color="#16528C"/>
</linearGradient>
<linearGradient id="paint4_linear_40_1884" x1="8.06556" y1="9.61945" x2="9.24487" y2="15.0492" gradientUnits="userSpaceOnUse">
<stop stop-color="#0D61A9"/>
<stop offset="1" stop-color="#16528C"/>
</linearGradient>
</defs>
</svg>
