<svg width="24" height="24" viewBox="0 0 24 24" fill="none" xmlns="http://www.w3.org/2000/svg">
<path d="M2 12.5V20.5625C2 21.0805 2.469 21.5 3.0475 21.5H20.9525C21.531 21.5 22 21.0805 22 20.5625V12.5L12 11.5L2 12.5Z" fill="url(#paint0_linear_40_1908)"/>
<path d="M7.5 9H6.5V21.5H7.5V9Z" fill="url(#paint1_linear_40_1908)"/>
<path d="M12.5 9H11.5V21.5H12.5V9Z" fill="url(#paint2_linear_40_1908)"/>
<path d="M17.5 9H16.5V21.5H17.5V9Z" fill="url(#paint3_linear_40_1908)"/>
<path d="M2 12.5V10C2 9.4475 2.4475 9 3 9H21C21.5525 9 22 9.4475 22 10V12.5H2Z" fill="url(#paint4_linear_40_1908)"/>
<path d="M7.5 9H6.5V12.5H7.5V9Z" fill="#0077D1"/>
<path d="M12.5 9H11.5V12.5H12.5V9Z" fill="#0077D1"/>
<path d="M17.5 9H16.5V12.5H17.5V9Z" fill="#0077D1"/>
<path d="M21.75 8H21.25C21.112 8 21 7.888 21 7.75V2.75C21 2.612 21.112 2.5 21.25 2.5H21.75C21.888 2.5 22 2.612 22 2.75V7.75C22 7.888 21.888 8 21.75 8Z" fill="#0A85D9"/>
<path d="M2.75 8H2.25C2.112 8 2 7.888 2 7.75V2.75C2 2.612 2.112 2.5 2.25 2.5H2.75C2.888 2.5 3 2.612 3 2.75V7.75C3 7.888 2.888 8 2.75 8Z" fill="#0A85D9"/>
<path d="M19.8385 4.89299L18.01 3.10049C17.82 2.91449 17.5 3.04899 17.5 3.31499V4.49999H6.5V3.31499C6.5 3.04899 6.18 2.91449 5.99 3.10049L4.1615 4.89299C3.9615 5.08899 3.9615 5.41099 4.1615 5.60699L5.99 7.39949C6.18 7.58549 6.5 7.45099 6.5 7.18499V5.99999H17.5V7.18499C17.5 7.45099 17.82 7.58549 18.01 7.39949L19.8385 5.60699C20.0385 5.41099 20.0385 5.08899 19.8385 4.89299Z" fill="url(#paint5_linear_40_1908)"/>
<defs>
<linearGradient id="paint0_linear_40_1908" x1="8.30571" y1="11.6535" x2="11.2455" y2="22.9899" gradientUnits="userSpaceOnUse">
<stop stop-color="#7DD8F3"/>
<stop offset="1" stop-color="#45B0D0"/>
</linearGradient>
<linearGradient id="paint1_linear_40_1908" x1="6.86535" y1="9.54489" x2="11.9459" y2="11.7799" gradientUnits="userSpaceOnUse">
<stop stop-color="#32BDEF"/>
<stop offset="1" stop-color="#1EA2E4"/>
</linearGradient>
<linearGradient id="paint2_linear_40_1908" x1="11.8654" y1="9.54489" x2="16.9459" y2="11.7799" gradientUnits="userSpaceOnUse">
<stop stop-color="#32BDEF"/>
<stop offset="1" stop-color="#1EA2E4"/>
</linearGradient>
<linearGradient id="paint3_linear_40_1908" x1="16.8654" y1="9.54489" x2="21.9459" y2="11.7799" gradientUnits="userSpaceOnUse">
<stop stop-color="#32BDEF"/>
<stop offset="1" stop-color="#1EA2E4"/>
</linearGradient>
<linearGradient id="paint4_linear_40_1908" x1="6.43083" y1="8.47859" x2="7.03017" y2="13.5061" gradientUnits="userSpaceOnUse">
<stop stop-color="#FCFCFC"/>
<stop offset="0.95" stop-color="#C3C9CD"/>
</linearGradient>
<linearGradient id="paint5_linear_40_1908" x1="4.0115" y1="5.24999" x2="19.9885" y2="5.24999" gradientUnits="userSpaceOnUse">
<stop stop-color="#FFD869"/>
<stop offset="0.765625" stop-color="#F2C032"/>
<stop offset="1" stop-color="#FFD869"/>
</linearGradient>
</defs>
</svg>
