<svg width="24" height="24" viewBox="0 0 24 24" fill="none" xmlns="http://www.w3.org/2000/svg">
<path d="M8.11111 2H20.8889C21.5028 2 22 2.49722 22 3.11111V16.4444C22 17.0583 21.5028 17.5556 20.8889 17.5556H7.55556V2.55556C7.55556 2.24889 7.80445 2 8.11111 2Z" fill="url(#paint0_linear_40_1966)"/>
<path d="M7.55556 2.67722C7.55556 2.93222 7.72889 3.15444 7.97611 3.2161L16.0233 5.22777C16.2711 5.28999 16.4444 5.51222 16.4444 5.76722V6.99999L7.55556 7.55555V2.67722Z" fill="url(#paint1_linear_40_1966)"/>
<path d="M2.55556 6.44444H15.8889C16.1956 6.44444 16.4444 6.19555 16.4444 5.88889V21.4444C16.4444 21.7511 16.1956 22 15.8889 22H2.55556C2.24889 22 2 21.7511 2 21.4444V7C2 6.69333 2.24889 6.44444 2.55556 6.44444Z" fill="url(#paint2_linear_40_1966)"/>
<path d="M13.6667 8.66666H4.77778C4.47112 8.66666 4.22223 8.91555 4.22223 9.22221V14.7778C4.22223 15.6983 4.96834 16.4444 5.8889 16.4444H12.86C13.6122 16.4444 14.2222 15.8344 14.2222 15.0822V9.22221C14.2222 8.91555 13.9733 8.66666 13.6667 8.66666Z" fill="#45B0D0"/>
<path d="M14.2222 15.0489L11.2333 12.06C10.9122 11.7389 10.3939 11.7322 10.0644 12.0445L7.55556 14.4206V16.4445H13.6667C13.9733 16.4445 14.2222 16.1956 14.2222 15.8889V15.0489Z" fill="#436DCD"/>
<path d="M13.1111 16.4444L7.95612 11.2895C7.56445 10.8978 6.93223 10.8895 6.53001 11.27L4.22223 13.4567V15.8889C4.22223 16.1956 4.47112 16.4444 4.77778 16.4444H13.1111Z" fill="url(#paint3_linear_40_1966)"/>
<path d="M12.2778 11.4444C12.738 11.4444 13.1111 11.0713 13.1111 10.6111C13.1111 10.1509 12.738 9.77777 12.2778 9.77777C11.8176 9.77777 11.4444 10.1509 11.4444 10.6111C11.4444 11.0713 11.8176 11.4444 12.2778 11.4444Z" fill="white"/>
<path d="M13.9445 19.2222H4.50001C4.34667 19.2222 4.22223 19.0978 4.22223 18.9444V18.3889C4.22223 18.2356 4.34667 18.1111 4.50001 18.1111H13.9445C14.0978 18.1111 14.2222 18.2356 14.2222 18.3889V18.9444C14.2222 19.0978 14.0978 19.2222 13.9445 19.2222Z" fill="url(#paint4_linear_40_1966)"/>
<defs>
<linearGradient id="paint0_linear_40_1966" x1="12.8329" y1="2.67808" x2="16.068" y2="19.1976" gradientUnits="userSpaceOnUse">
<stop stop-color="#32BDEF"/>
<stop offset="1" stop-color="#1EA2E4"/>
</linearGradient>
<linearGradient id="paint1_linear_40_1966" x1="9.52481" y1="1.95047" x2="11.856" y2="8.18594" gradientUnits="userSpaceOnUse">
<stop stop-color="#FCFCFC"/>
<stop offset="0.95" stop-color="#C3C9CD"/>
</linearGradient>
<linearGradient id="paint2_linear_40_1966" x1="6.55412" y1="6.13624" x2="15.003" y2="20.7411" gradientUnits="userSpaceOnUse">
<stop stop-color="#7DD8F3"/>
<stop offset="1" stop-color="#45B0D0"/>
</linearGradient>
<linearGradient id="paint3_linear_40_1966" x1="8.66667" y1="10.9778" x2="8.66667" y2="16.5394" gradientUnits="userSpaceOnUse">
<stop stop-color="#124787"/>
<stop offset="0.923" stop-color="#173B75"/>
<stop offset="1" stop-color="#173A73"/>
</linearGradient>
<linearGradient id="paint4_linear_40_1966" x1="6.43764" y1="17.9456" x2="6.55947" y2="19.5551" gradientUnits="userSpaceOnUse">
<stop stop-color="#FCFCFC"/>
<stop offset="0.95" stop-color="#C3C9CD"/>
</linearGradient>
</defs>
</svg>
