<svg width="24" height="24" viewBox="0 0 24 24" fill="none" xmlns="http://www.w3.org/2000/svg">
<path d="M13.1815 14.0093L9.4604 3.73042C9.40079 3.56578 9.24408 3.45575 9.06861 3.45575H6.47825C6.30403 3.45575 6.14815 3.56412 6.0873 3.7275L2.01982 14.705C1.94397 14.9092 2.09526 15.1259 2.31283 15.1259H4.45973C4.64061 15.1259 4.80108 15.0092 4.85651 14.8371L5.57006 12.6239H9.85593L10.577 14.8383C10.6328 15.0101 10.7929 15.1259 10.9734 15.1259H12.3984C12.9756 15.1259 13.3782 14.5524 13.1815 14.0093ZM6.1619 10.5412L7.69528 5.84855L9.22157 10.5412H6.1619Z" fill="url(#paint0_linear_40_2009)"/>
<path d="M21.9458 17.209L17.6012 4.98328C17.542 4.81698 17.3849 4.70612 17.2086 4.70612H14.3464C14.1714 4.70612 14.0147 4.81573 13.9547 4.98036L9.5075 17.2065C9.43331 17.4108 9.58418 17.6267 9.80133 17.6267H12.2008C12.3825 17.6267 12.5434 17.5087 12.598 17.3353L13.4262 14.7091H17.9955L18.8324 17.3366C18.8874 17.5096 19.0483 17.6267 19.2292 17.6267H21.6511C21.867 17.6267 22.0179 17.4129 21.9458 17.209ZM14.0668 12.423L15.6923 7.35525L17.3103 12.423H14.0668Z" fill="url(#paint1_linear_40_2009)"/>
<path d="M21.5832 18.877H9.91303C9.68296 18.877 9.49624 19.0638 9.49624 19.2938V20.1274C9.49624 20.3579 9.68296 20.5442 9.91303 20.5442H21.5832C21.8133 20.5442 22 20.3579 22 20.1274V19.2938C22 19.0638 21.8133 18.877 21.5832 18.877Z" fill="url(#paint2_linear_40_2009)"/>
<defs>
<linearGradient id="paint0_linear_40_2009" x1="6.10361" y1="3.96446" x2="8.45126" y2="16.3896" gradientUnits="userSpaceOnUse">
<stop stop-color="#32BDEF"/>
<stop offset="1" stop-color="#1EA2E4"/>
</linearGradient>
<linearGradient id="paint1_linear_40_2009" x1="15.7262" y1="4.67902" x2="15.7262" y2="17.58" gradientUnits="userSpaceOnUse">
<stop stop-color="#2AA4F4"/>
<stop offset="1" stop-color="#007AD9"/>
</linearGradient>
<linearGradient id="paint2_linear_40_2009" x1="14.3881" y1="16.7485" x2="19.5092" y2="27.9018" gradientUnits="userSpaceOnUse">
<stop stop-color="#FED100"/>
<stop offset="1" stop-color="#E36001"/>
</linearGradient>
</defs>
</svg>
