<svg width="24" height="24" viewBox="0 0 24 24" fill="none" xmlns="http://www.w3.org/2000/svg">
<path d="M11.8315 8.4552L11.1175 9.22866L17.9595 15.5447L18.6735 14.7712L11.8315 8.4552Z" fill="#64717C"/>
<path d="M12.1702 8.45618L5.32713 14.7711L6.041 15.5446L12.8841 9.22977L12.1702 8.45618Z" fill="#64717C"/>
<path d="M5.1579 10.421V4.10526H18.8421V10.421C18.8421 11 18.3684 11.4737 17.7895 11.4737H6.21053C5.63158 11.4737 5.1579 11 5.1579 10.421Z" fill="url(#paint0_linear_40_2034)"/>
<path d="M18.8421 3.05263V4.10526H5.1579V3.05263C5.1579 2.47368 5.63158 2 6.21053 2H17.7895C18.3684 2 18.8421 2.47368 18.8421 3.05263Z" fill="url(#paint1_linear_40_2034)"/>
<path d="M7.52632 6.73684H7C6.85474 6.73684 6.73685 6.61894 6.73685 6.47368V5.94736C6.73685 5.8021 6.85474 5.6842 7 5.6842H7.52632C7.67158 5.6842 7.78948 5.8021 7.78948 5.94736V6.47368C7.78948 6.61894 7.67158 6.73684 7.52632 6.73684Z" fill="url(#paint2_linear_40_2034)"/>
<path d="M17 6.73684H9.10526C8.96 6.73684 8.8421 6.61894 8.8421 6.47368V5.94736C8.8421 5.8021 8.96 5.6842 9.10526 5.6842H17C17.1453 5.6842 17.2632 5.8021 17.2632 5.94736V6.47368C17.2632 6.61894 17.1453 6.73684 17 6.73684Z" fill="#195BBC"/>
<path d="M7.52632 9.36843H7C6.85474 9.36843 6.73685 9.25053 6.73685 9.10527V8.57895C6.73685 8.43369 6.85474 8.3158 7 8.3158H7.52632C7.67158 8.3158 7.78948 8.43369 7.78948 8.57895V9.10527C7.78948 9.25053 7.67158 9.36843 7.52632 9.36843Z" fill="url(#paint3_linear_40_2034)"/>
<path d="M17 9.36843H9.10526C8.96 9.36843 8.8421 9.25053 8.8421 9.10527V8.57895C8.8421 8.43369 8.96 8.3158 9.10526 8.3158H17C17.1453 8.3158 17.2632 8.43369 17.2632 8.57895V9.10527C17.2632 9.25053 17.1453 9.36843 17 9.36843Z" fill="#195BBC"/>
<path d="M20.1579 20.9474H18.8421V19.3684H16.7368V20.9474H15.4211C15.2758 20.9474 15.1579 21.0653 15.1579 21.2105V21.7368C15.1579 21.8821 15.2758 22 15.4211 22H20.1579C20.3032 22 20.4211 21.8821 20.4211 21.7368V21.2105C20.4211 21.0653 20.3032 20.9474 20.1579 20.9474Z" fill="url(#paint4_linear_40_2034)"/>
<path d="M21.4737 20.9474H14.1053C13.8147 20.9474 13.5789 20.7116 13.5789 20.4211V15.1579C13.5789 14.8674 13.8147 14.6316 14.1053 14.6316H21.4737C21.7642 14.6316 22 14.8674 22 15.1579V20.4211C22 20.7116 21.7642 20.9474 21.4737 20.9474Z" fill="url(#paint5_linear_40_2034)"/>
<path d="M8.57895 20.9474H7.26316V19.3684H5.1579V20.9474H3.84211C3.69684 20.9474 3.57895 21.0653 3.57895 21.2105V21.7368C3.57895 21.8821 3.69684 22 3.84211 22H8.57895C8.72421 22 8.84211 21.8821 8.84211 21.7368V21.2105C8.84211 21.0653 8.72421 20.9474 8.57895 20.9474Z" fill="url(#paint6_linear_40_2034)"/>
<path d="M9.89474 20.9474H2.52632C2.23579 20.9474 2 20.7116 2 20.4211V15.1579C2 14.8674 2.23579 14.6316 2.52632 14.6316H9.89474C10.1853 14.6316 10.4211 14.8674 10.4211 15.1579V20.4211C10.4211 20.7116 10.1853 20.9474 9.89474 20.9474Z" fill="url(#paint7_linear_40_2034)"/>
<defs>
<linearGradient id="paint0_linear_40_2034" x1="9.4879" y1="2.66841" x2="13.9137" y2="10.9931" gradientUnits="userSpaceOnUse">
<stop stop-color="#7DD8F3"/>
<stop offset="1" stop-color="#45B0D0"/>
</linearGradient>
<linearGradient id="paint1_linear_40_2034" x1="4.88421" y1="1.95158" x2="19.6437" y2="4.40158" gradientUnits="userSpaceOnUse">
<stop stop-color="#0077D2"/>
<stop offset="1" stop-color="#0B59A2"/>
</linearGradient>
<linearGradient id="paint2_linear_40_2034" x1="6.79316" y1="6.67999" x2="7.69158" y2="5.78157" gradientUnits="userSpaceOnUse">
<stop offset="0.003" stop-color="#42A3F2"/>
<stop offset="1" stop-color="#42A4EB"/>
</linearGradient>
<linearGradient id="paint3_linear_40_2034" x1="6.79316" y1="9.31211" x2="7.69158" y2="8.41369" gradientUnits="userSpaceOnUse">
<stop offset="0.003" stop-color="#42A3F2"/>
<stop offset="1" stop-color="#42A4EB"/>
</linearGradient>
<linearGradient id="paint4_linear_40_2034" x1="17.7895" y1="19.3626" x2="17.7895" y2="22.0053" gradientUnits="userSpaceOnUse">
<stop stop-color="#484B4F"/>
<stop offset="0.374" stop-color="#656D75"/>
<stop offset="0.597" stop-color="#727D86"/>
<stop offset="0.604" stop-color="#86949E"/>
</linearGradient>
<linearGradient id="paint5_linear_40_2034" x1="16.234" y1="14.7285" x2="18.8157" y2="21.3656" gradientUnits="userSpaceOnUse">
<stop stop-color="#7DD8F3"/>
<stop offset="1" stop-color="#45B0D0"/>
</linearGradient>
<linearGradient id="paint6_linear_40_2034" x1="6.21053" y1="19.3626" x2="6.21053" y2="22.0053" gradientUnits="userSpaceOnUse">
<stop stop-color="#484B4F"/>
<stop offset="0.374" stop-color="#656D75"/>
<stop offset="0.597" stop-color="#727D86"/>
<stop offset="0.604" stop-color="#86949E"/>
</linearGradient>
<linearGradient id="paint7_linear_40_2034" x1="4.65504" y1="14.7285" x2="7.23679" y2="21.3656" gradientUnits="userSpaceOnUse">
<stop stop-color="#7DD8F3"/>
<stop offset="1" stop-color="#45B0D0"/>
</linearGradient>
</defs>
</svg>
