<svg width="24" height="24" viewBox="0 0 24 24" fill="none" xmlns="http://www.w3.org/2000/svg">
<path d="M19.6316 19.3684C18.6158 19.3684 17.7895 18.5421 17.7895 17.5263V13.579H15.6842C15.3932 13.579 15.1579 13.3437 15.1579 13.0526C15.1579 12.7616 15.3932 12.5263 15.6842 12.5263H17.7895C18.37 12.5263 18.8421 12.9984 18.8421 13.579V17.5263C18.8421 17.9616 19.1963 18.3158 19.6316 18.3158C20.0668 18.3158 20.4211 17.9616 20.4211 17.5263V9.56264L19.0358 7.94369L16.5432 6.95685C16.2726 6.85001 16.1405 6.54422 16.2474 6.27369C16.3542 6.00264 16.6611 5.87158 16.9305 5.9779L19.5447 7.01264C19.6242 7.04422 19.6953 7.09474 19.7511 7.15948L21.3474 9.02579C21.4289 9.12158 21.4737 9.24316 21.4737 9.36843V17.5263C21.4737 18.5421 20.6474 19.3684 19.6316 19.3684Z" fill="url(#paint0_linear_40_2065)"/>
<path d="M16.2105 22H3.57895V4.10526C3.57895 2.94737 4.52632 2 5.68421 2H14.1053C15.2632 2 16.2105 2.94737 16.2105 4.10526V22Z" fill="#FAD500"/>
<path d="M14.1053 3.57895H5.68421C5.36842 3.57895 5.1579 3.78948 5.1579 4.10526V9.36842C5.1579 9.68421 5.36842 9.89474 5.68421 9.89474H14.1053C14.4211 9.89474 14.6316 9.68421 14.6316 9.36842V4.10526C14.6316 3.78948 14.4211 3.57895 14.1053 3.57895Z" fill="#B2EBF2"/>
<path d="M14.1053 3.57895H5.68421C5.36842 3.57895 5.1579 3.78948 5.1579 4.10526V9.36842C5.1579 9.68421 5.36842 9.89474 5.68421 9.89474H14.1053C14.4211 9.89474 14.6316 9.68421 14.6316 9.36842V4.10526C14.6316 3.78948 14.4211 3.57895 14.1053 3.57895Z" fill="#1B9DE2"/>
<path d="M9.77473 8.93895L12.35 5.43C12.4479 5.29632 12.6358 5.26737 12.7695 5.36579C12.8916 5.45579 12.9263 5.62053 12.8558 5.75053L10.7842 9.57895C10.6268 9.87 10.2632 9.97791 9.97263 9.82053C9.68157 9.66316 9.57368 9.29947 9.73105 9.00895C9.74368 8.98474 9.75999 8.95947 9.77473 8.93895Z" fill="url(#paint1_linear_40_2065)"/>
<path d="M10.9474 9.89473H8.84212C8.84212 9.31579 9.3158 8.8421 9.89475 8.8421C10.4737 8.8421 10.9474 9.31579 10.9474 9.89473Z" fill="url(#paint2_linear_40_2065)"/>
<path d="M16.2105 19.8947H3.57895C2.99737 19.8947 2.52632 20.3658 2.52632 20.9474V22H17.2632V20.9474C17.2632 20.3658 16.7921 19.8947 16.2105 19.8947Z" fill="#EDBE00"/>
<path d="M19.6768 6.73685H18.8421V9.89474C18.8421 10.1853 19.0779 10.4211 19.3684 10.4211H21.4737V8.75158C21.4737 8.47264 21.3626 8.20474 21.1653 8.00737L20.049 6.89106C19.95 6.79211 19.8163 6.73685 19.6768 6.73685Z" fill="#42A5F5"/>
<defs>
<linearGradient id="paint0_linear_40_2065" x1="15.1579" y1="12.6547" x2="21.4737" y2="12.6547" gradientUnits="userSpaceOnUse">
<stop stop-color="#92A3B0"/>
<stop offset="0.015" stop-color="#A3B5C4"/>
<stop offset="0.032" stop-color="#AEC2D1"/>
<stop offset="0.046" stop-color="#B2C6D6"/>
</linearGradient>
<linearGradient id="paint1_linear_40_2065" x1="10.7812" y1="5.50791" x2="11.8219" y2="10.278" gradientUnits="userSpaceOnUse">
<stop stop-color="#0D61A9"/>
<stop offset="1" stop-color="#16528C"/>
</linearGradient>
<linearGradient id="paint2_linear_40_2065" x1="9.50591" y1="8.85826" x2="9.81538" y2="10.0516" gradientUnits="userSpaceOnUse">
<stop stop-color="#7DD8F3"/>
<stop offset="1" stop-color="#45B0D0"/>
</linearGradient>
</defs>
</svg>
