<svg width="24" height="24" viewBox="0 0 24 24" fill="none" xmlns="http://www.w3.org/2000/svg">
<path d="M22 8.28571L19.619 9.59523L17.2381 11.8571V19.619H20.5714C21.3605 19.619 22 18.9795 22 18.1905V8.28571Z" fill="#4CAF50"/>
<path d="M2 8.28571L3.72095 9.09999L6.7619 11.8571V19.619H3.42857C2.63952 19.619 2 18.9795 2 18.1905V8.28571Z" fill="#1E88E5"/>
<path d="M17.2381 5.90475L12 9.83333L6.7619 5.90475L6.28571 8.66666L6.7619 11.8571L12 15.7857L17.2381 11.8571L17.7143 8.66666L17.2381 5.90475Z" fill="#E53935"/>
<path d="M2 6.42762V8.28571L6.7619 11.8571V5.90476L5.27429 4.79C4.92 4.52428 4.48952 4.38095 4.04667 4.38095C2.91619 4.38095 2 5.29714 2 6.42762Z" fill="#C62828"/>
<path d="M22 6.42762V8.28571L17.2381 11.8571V5.90476L18.7257 4.79C19.08 4.52428 19.5105 4.38095 19.9533 4.38095C21.0838 4.38095 22 5.29714 22 6.42762Z" fill="#FBC02D"/>
</svg>
