<svg width="24" height="24" viewBox="0 0 24 24" fill="none" xmlns="http://www.w3.org/2000/svg">
<path d="M16.8837 7.11628V18.7442C16.8837 19.2581 16.4674 19.6744 15.9535 19.6744H3.86047C3.34652 19.6744 2.93024 19.2581 2.93024 18.7442V2.93023C2.93024 2.41628 3.34652 2 3.86047 2H11.7674L16.8837 7.11628Z" fill="url(#paint0_linear_40_2145)"/>
<path d="M11.7674 2V6.18605C11.7674 6.7 12.1837 7.11628 12.6977 7.11628H16.8837L11.7674 2Z" fill="url(#paint1_linear_40_2145)"/>
<path d="M11.3023 14.2856L8.51162 11.4949L6.04976 13.9567L5.39209 13.2991L8.51162 10.1795L11.3023 12.9702L13.7642 10.5084L14.4219 11.166L11.3023 14.2856Z" fill="#0D62AB"/>
<path d="M14.093 11.7674C14.6068 11.7674 15.0233 11.351 15.0233 10.8372C15.0233 10.3234 14.6068 9.90698 14.093 9.90698C13.5793 9.90698 13.1628 10.3234 13.1628 10.8372C13.1628 11.351 13.5793 11.7674 14.093 11.7674Z" fill="url(#paint2_linear_40_2145)"/>
<path d="M11.3023 14.5581C11.8161 14.5581 12.2326 14.1417 12.2326 13.6279C12.2326 13.1141 11.8161 12.6977 11.3023 12.6977C10.7886 12.6977 10.3721 13.1141 10.3721 13.6279C10.3721 14.1417 10.7886 14.5581 11.3023 14.5581Z" fill="url(#paint3_linear_40_2145)"/>
<path d="M8.51164 11.7674C9.02541 11.7674 9.44187 11.351 9.44187 10.8372C9.44187 10.3234 9.02541 9.90698 8.51164 9.90698C7.99789 9.90698 7.58141 10.3234 7.58141 10.8372C7.58141 11.351 7.99789 11.7674 8.51164 11.7674Z" fill="url(#paint4_linear_40_2145)"/>
<path d="M5.72093 14.5581C6.23468 14.5581 6.65116 14.1417 6.65116 13.6279C6.65116 13.1141 6.23468 12.6977 5.72093 12.6977C5.20718 12.6977 4.7907 13.1141 4.7907 13.6279C4.7907 14.1417 5.20718 14.5581 5.72093 14.5581Z" fill="url(#paint5_linear_40_2145)"/>
<path opacity="0.05" d="M13.6279 19.6744H16.8837V13.1628H15.0233C14.2526 13.1628 13.6279 13.7874 13.6279 14.5581V19.6744Z" fill="black"/>
<path opacity="0.07" d="M14.093 19.6744H16.8837V13.6279H15.0233C14.5093 13.6279 14.093 14.0442 14.093 14.5581V19.6744Z" fill="black"/>
<path d="M20.1395 22H15.0233C14.7665 22 14.5581 21.7916 14.5581 21.5349V14.5581C14.5581 14.3014 14.7665 14.093 15.0233 14.093H20.6046C20.8614 14.093 21.0698 14.3014 21.0698 14.5581V21.0698C21.0698 21.5837 20.6535 22 20.1395 22Z" fill="url(#paint6_linear_40_2145)"/>
<path d="M19.2093 21.0698C19.2093 20.813 19.0009 20.6046 18.7442 20.6046H14.093C13.8363 20.6046 13.6279 20.813 13.6279 21.0698C13.6279 21.5837 14.0442 22 14.5581 22H20.1395C19.6256 22 19.2093 21.5837 19.2093 21.0698Z" fill="url(#paint7_linear_40_2145)"/>
<defs>
<linearGradient id="paint0_linear_40_2145" x1="7.32958" y1="2.27136" x2="17.1426" y2="17.2085" gradientUnits="userSpaceOnUse">
<stop stop-color="#7DD8F3"/>
<stop offset="1" stop-color="#45B0D0"/>
</linearGradient>
<linearGradient id="paint1_linear_40_2145" x1="12.0135" y1="6.87023" x2="14.3721" y2="4.51163" gradientUnits="userSpaceOnUse">
<stop stop-color="#3079D6"/>
<stop offset="1" stop-color="#297CD2"/>
</linearGradient>
<linearGradient id="paint2_linear_40_2145" x1="13.6454" y1="9.80047" x2="14.9252" y2="11.1513" gradientUnits="userSpaceOnUse">
<stop stop-color="#FCFCFC"/>
<stop offset="0.495" stop-color="#F4F4F4"/>
<stop offset="0.946" stop-color="#E8E8E8"/>
<stop offset="1" stop-color="#E8E8E8"/>
</linearGradient>
<linearGradient id="paint3_linear_40_2145" x1="10.8547" y1="12.5912" x2="12.1345" y2="13.9419" gradientUnits="userSpaceOnUse">
<stop stop-color="#FCFCFC"/>
<stop offset="0.495" stop-color="#F4F4F4"/>
<stop offset="0.946" stop-color="#E8E8E8"/>
<stop offset="1" stop-color="#E8E8E8"/>
</linearGradient>
<linearGradient id="paint4_linear_40_2145" x1="8.06401" y1="9.80047" x2="9.34382" y2="11.1513" gradientUnits="userSpaceOnUse">
<stop stop-color="#FCFCFC"/>
<stop offset="0.495" stop-color="#F4F4F4"/>
<stop offset="0.946" stop-color="#E8E8E8"/>
<stop offset="1" stop-color="#E8E8E8"/>
</linearGradient>
<linearGradient id="paint5_linear_40_2145" x1="5.27331" y1="12.5912" x2="6.5531" y2="13.9419" gradientUnits="userSpaceOnUse">
<stop stop-color="#FCFCFC"/>
<stop offset="0.495" stop-color="#F4F4F4"/>
<stop offset="0.946" stop-color="#E8E8E8"/>
<stop offset="1" stop-color="#E8E8E8"/>
</linearGradient>
<linearGradient id="paint6_linear_40_2145" x1="14.893" y1="14.147" x2="20.4874" y2="21.6153" gradientUnits="userSpaceOnUse">
<stop stop-color="#A8E1F3"/>
<stop offset="0.754" stop-color="#5EBCD9"/>
<stop offset="1" stop-color="#45B0D0"/>
</linearGradient>
<linearGradient id="paint7_linear_40_2145" x1="16.8837" y1="20.6842" x2="16.8837" y2="22.0028" gradientUnits="userSpaceOnUse">
<stop stop-color="#0176D0"/>
<stop offset="1" stop-color="#16538C"/>
</linearGradient>
</defs>
</svg>
