<svg width="24" height="24" viewBox="0 0 24 24" fill="none" xmlns="http://www.w3.org/2000/svg">
<path d="M4.10521 2H19.8948C20.7669 2 21.4737 2.70685 21.4737 3.57896V18.8422H2.52625V3.57896C2.52625 2.70685 3.2331 2 4.10521 2Z" fill="#FEC62D"/>
<path d="M4.10521 3.05264H19.8948C20.1853 3.05264 20.4211 3.28843 20.4211 3.57896V18.8422H3.57889V3.57896C3.57889 3.28843 3.81468 3.05264 4.10521 3.05264Z" fill="url(#paint0_linear_40_2389)"/>
<path d="M20.9474 15.6841H15.5227C15.0469 15.6841 14.6548 16.0126 14.5132 16.4668C14.18 17.5378 13.1811 18.3157 12 18.3157C10.8189 18.3157 9.81998 17.5378 9.48682 16.4668C9.34524 16.0126 8.95314 15.6841 8.47734 15.6841H3.05257C2.76204 15.6841 2.52625 15.9199 2.52625 16.2105V20.421C2.52625 21.2931 3.2331 22 4.10521 22H19.8948C20.7669 22 21.4737 21.2931 21.4737 20.421V16.2105C21.4737 15.9199 21.238 15.6841 20.9474 15.6841Z" fill="url(#paint1_linear_40_2389)"/>
<defs>
<linearGradient id="paint0_linear_40_2389" x1="12" y1="2.56001" x2="12" y2="20.4775" gradientUnits="userSpaceOnUse">
<stop stop-color="#ECB635"/>
<stop offset="1" stop-color="#BD9139"/>
</linearGradient>
<linearGradient id="paint1_linear_40_2389" x1="12" y1="15.7215" x2="12" y2="21.8384" gradientUnits="userSpaceOnUse">
<stop stop-color="#FFD869"/>
<stop offset="1" stop-color="#FEC52B"/>
</linearGradient>
</defs>
</svg>
