<svg width="24" height="24" viewBox="0 0 24 24" fill="none" xmlns="http://www.w3.org/2000/svg">
<path d="M22 12C22 17.5225 17.5225 22 12 22C6.4775 22 2 17.5225 2 12C2 6.4775 6.4775 2 12 2C17.5225 2 22 6.4775 22 12Z" fill="url(#paint0_linear_40_2440)"/>
<path opacity="0.05" d="M10.9795 17.939H12.9795C13.2555 17.939 13.4795 17.715 13.4795 17.439V9.93903C13.4795 9.66303 13.2555 9.43903 12.9795 9.43903H10.9795C10.7035 9.43903 10.4795 9.66303 10.4795 9.93903V17.439C10.4795 17.715 10.7035 17.939 10.9795 17.939Z" fill="black"/>
<path opacity="0.07" d="M11.093 17.689H12.8665C13.067 17.689 13.23 17.5265 13.23 17.3255V10.0525C13.23 9.85203 13.0675 9.68903 12.8665 9.68903H11.093C10.8925 9.68903 10.7295 9.85153 10.7295 10.0525V17.326C10.7295 17.5265 10.892 17.689 11.093 17.689Z" fill="black"/>
<path opacity="0.15" d="M11.9795 9.44451C13.0808 9.44451 13.9735 8.63661 13.9735 7.64001C13.9735 6.64342 13.0808 5.83551 11.9795 5.83551C10.8782 5.83551 9.9855 6.64342 9.9855 7.64001C9.9855 8.63661 10.8782 9.44451 11.9795 9.44451Z" fill="url(#paint1_radial_40_2440)"/>
<path d="M11.9795 8.80503C12.8295 8.80503 13.3045 8.27103 13.3045 7.61103C13.3045 6.95103 12.803 6.43903 11.9795 6.43903C11.156 6.43903 10.6545 6.95103 10.6545 7.61103C10.6545 8.27103 11.1295 8.80503 11.9795 8.80503Z" fill="white"/>
<path d="M12.9795 9.93903H10.9795V17.439H12.9795V9.93903Z" fill="white"/>
<defs>
<linearGradient id="paint0_linear_40_2440" x1="4.929" y1="4.929" x2="19.071" y2="19.071" gradientUnits="userSpaceOnUse">
<stop stop-color="#33BEF0"/>
<stop offset="1" stop-color="#0A85D9"/>
</linearGradient>
<radialGradient id="paint1_radial_40_2440" cx="0" cy="0" r="1" gradientUnits="userSpaceOnUse" gradientTransform="translate(11.9791 7.63981) scale(1.99416 1.80466)">
<stop offset="0.516"/>
<stop offset="1" stop-opacity="0"/>
</radialGradient>
</defs>
</svg>
