<svg width="24" height="24" viewBox="0 0 24 24" fill="none" xmlns="http://www.w3.org/2000/svg">
<path d="M18.005 16.1823L16.2072 17.9801L20.1523 21.9251C20.2522 22.025 20.402 22.025 20.5019 21.9251L21.9001 20.5269C22 20.427 22 20.2772 21.9001 20.1773L18.005 16.1823Z" fill="url(#paint0_linear_40_2481)"/>
<path d="M15.8077 14.035L14.0599 15.7828L16.2072 17.98L18.005 16.1823L15.8077 14.035Z" fill="url(#paint1_radial_40_2481)"/>
<path d="M10.015 17.98C14.4278 17.98 18.005 14.4028 18.005 9.99001C18.005 5.57725 14.4278 2 10.015 2C5.60222 2 2.02497 5.57725 2.02497 9.99001C2.02497 14.4028 5.60222 17.98 10.015 17.98Z" fill="url(#paint2_linear_40_2481)"/>
<path d="M5.07116 10.1398L7.06866 12.1373C7.16854 12.2372 7.26841 12.2372 7.36829 12.1373L7.76779 11.7378C7.86766 11.6379 7.86766 11.5381 7.76779 11.4382L5.77029 9.44069C5.67041 9.34081 5.57054 9.34081 5.47066 9.44069L5.07116 9.84019C5.02122 9.94007 5.02122 10.0399 5.07116 10.1398Z" fill="url(#paint3_linear_40_2481)"/>
<path d="M5.7703 10.5393L7.7678 8.54179C7.86768 8.44192 7.86768 8.34204 7.7678 8.24217L7.3683 7.84267C7.26843 7.74279 7.16855 7.74279 7.06868 7.84267L5.07118 9.84017C4.9713 9.94005 4.9713 10.0399 5.07118 10.1398L5.47068 10.5393C5.57055 10.6392 5.72036 10.6392 5.7703 10.5393Z" fill="url(#paint4_linear_40_2481)"/>
<path d="M14.9588 10.1398L12.9613 12.1373C12.8614 12.2372 12.7615 12.2372 12.6617 12.1373L12.2622 11.7378C12.1623 11.6379 12.1623 11.5381 12.2622 11.4382L14.2597 9.44069C14.3596 9.34081 14.4594 9.34081 14.5593 9.44069L14.9588 9.84019C15.0087 9.94007 15.0087 10.0399 14.9588 10.1398Z" fill="url(#paint5_linear_40_2481)"/>
<path d="M14.2597 10.5393L12.2622 8.54179C12.1623 8.44192 12.1623 8.34204 12.2622 8.24217L12.6617 7.84267C12.7615 7.74279 12.8614 7.74279 12.9613 7.84267L14.9588 9.84017C15.0587 9.94005 15.0587 10.0399 14.9588 10.1398L14.5094 10.5393C14.4594 10.6392 14.3096 10.6392 14.2597 10.5393Z" fill="url(#paint6_linear_40_2481)"/>
<path d="M11.1635 6.44446H10.4145C10.3146 6.44446 10.2147 6.4944 10.2147 6.59427L8.76654 13.3358C8.76654 13.4357 8.81648 13.5356 8.91636 13.5356H9.66542C9.7653 13.5356 9.86517 13.4856 9.86517 13.3858L11.3134 6.64421C11.3134 6.54433 11.2634 6.44446 11.1635 6.44446Z" fill="url(#paint7_linear_40_2481)"/>
<defs>
<linearGradient id="paint0_linear_40_2481" x1="18.0258" y1="16.2716" x2="20.9168" y2="21.798" gradientUnits="userSpaceOnUse">
<stop stop-color="#7DD8F3"/>
<stop offset="1" stop-color="#45B0D0"/>
</linearGradient>
<radialGradient id="paint1_radial_40_2481" cx="0" cy="0" r="1" gradientUnits="userSpaceOnUse" gradientTransform="translate(10.027 10.038) scale(9.78976)">
<stop offset="0.693" stop-color="#006185"/>
<stop offset="0.921" stop-color="#35C1F1"/>
</radialGradient>
<linearGradient id="paint2_linear_40_2481" x1="5.56522" y1="-0.380591" x2="16.3974" y2="15.5209" gradientUnits="userSpaceOnUse">
<stop stop-color="#FCFCFC"/>
<stop offset="0.95" stop-color="#C3C9CD"/>
</linearGradient>
<linearGradient id="paint3_linear_40_2481" x1="5.02122" y1="10.7705" x2="7.83021" y2="10.7705" gradientUnits="userSpaceOnUse">
<stop stop-color="#3079D6"/>
<stop offset="1" stop-color="#297CD2"/>
</linearGradient>
<linearGradient id="paint4_linear_40_2481" x1="5.02124" y1="9.20996" x2="7.83023" y2="9.20996" gradientUnits="userSpaceOnUse">
<stop stop-color="#3079D6"/>
<stop offset="1" stop-color="#297CD2"/>
</linearGradient>
<linearGradient id="paint5_linear_40_2481" x1="12.1998" y1="10.7705" x2="15.0087" y2="10.7705" gradientUnits="userSpaceOnUse">
<stop stop-color="#3079D6"/>
<stop offset="1" stop-color="#297CD2"/>
</linearGradient>
<linearGradient id="paint6_linear_40_2481" x1="12.1998" y1="9.20996" x2="15.0087" y2="9.20996" gradientUnits="userSpaceOnUse">
<stop stop-color="#3079D6"/>
<stop offset="1" stop-color="#297CD2"/>
</linearGradient>
<linearGradient id="paint7_linear_40_2481" x1="8.73109" y1="9.99002" x2="11.2989" y2="9.99002" gradientUnits="userSpaceOnUse">
<stop stop-color="#3079D6"/>
<stop offset="1" stop-color="#297CD2"/>
</linearGradient>
</defs>
</svg>
