<svg width="24" height="24" viewBox="0 0 24 24" fill="none" xmlns="http://www.w3.org/2000/svg">
<path d="M12.1971 5.5305L10.9895 4.32288C10.7219 4.05526 10.3586 3.90479 9.97952 3.90479H2.95238C2.42619 3.90479 2 4.33098 2 4.85717V19.1429C2 19.6691 2.42619 20.0953 2.95238 20.0953H21.0476C21.5738 20.0953 22 19.6691 22 19.1429V6.76193C22 6.23574 21.5738 5.80955 21.0476 5.80955H12.8705C12.6181 5.80955 12.3757 5.70907 12.1971 5.5305Z" fill="url(#paint0_linear_40_2505)"/>
<path d="M10.8505 7.43528L12.4067 5.87909C12.451 5.83481 12.5114 5.80957 12.5748 5.80957H21.0476C21.5738 5.80957 22 6.23576 22 6.76195V19.1429C22 19.6691 21.5738 20.0953 21.0476 20.0953H2.95238C2.42619 20.0953 2 19.6691 2 19.1429V7.95243C2 7.821 2.10667 7.71433 2.2381 7.71433H10.1771C10.4295 7.71433 10.6719 7.61386 10.8505 7.43528Z" fill="url(#paint1_linear_40_2505)"/>
<path d="M16.7619 13.9048C16.7619 16.5343 14.6295 18.6667 12 18.6667C9.37048 18.6667 7.2381 16.5343 7.2381 13.9048C7.2381 11.2753 9.37048 9.14288 12 9.14288C14.6295 9.14288 16.7619 11.2748 16.7619 13.9048Z" fill="url(#paint2_linear_40_2505)"/>
<path d="M11.9452 16.4067C12 16.5691 11.9452 16.7867 11.8905 16.8962C11.8371 17.0591 11.7824 17.2767 11.6733 17.3848C11.5652 17.4938 11.4557 17.5486 11.3476 17.6029C11.1848 17.711 11.0757 17.9281 10.9129 18.0924C10.9129 18.1457 10.6952 18.4224 10.641 18.4224C10.621 18.4329 10.6014 18.4429 10.5819 18.4524C10.261 18.3524 9.95619 18.2172 9.6681 18.0553C9.66619 18.0495 9.66429 18.0438 9.6619 18.0381C9.6619 17.9834 9.60857 17.6572 9.60857 17.6034C9.55381 17.44 9.49952 17.2224 9.44476 17.0595C9.33667 16.7876 9.11905 16.5157 9.11905 16.19C9.11905 15.9176 9.17286 15.6472 9.01 15.4286C8.79286 15.1567 8.3581 15.1567 8.14048 14.9938C7.81381 14.7767 7.48857 14.451 7.32571 14.1243C7.28667 14.06 7.26048 14.0005 7.23905 13.9415C7.23952 13.9286 7.2381 13.9172 7.2381 13.9048C7.2381 12.6295 7.74238 11.4738 8.55905 10.6191C9.00571 10.2576 9.87667 10.0915 10.4057 10.251C10.5686 10.3048 11.1548 10.6548 11.1548 10.8181C11.1548 10.8729 11.1548 10.8729 11.1 10.9272C11.0467 10.9819 10.9919 10.9819 10.9371 10.9819C10.7743 10.9819 10.261 10.8634 10.2062 10.8086C9.87952 10.6995 9.39095 11.4062 9.33667 11.6238C9.2819 11.7876 9.28191 12.1676 9.55381 12.2224C9.71667 12.2224 10.4619 11.59 10.5714 11.5353C11.0062 11.4819 11.3419 11.8543 11.4514 12.2357C11.6143 12.6705 10.6957 13.0905 10.3686 13.2C10.2605 13.2548 10.2062 13.1453 10.0967 13.2C9.82571 13.3081 9.66524 13.551 9.63286 13.8762C9.60571 14.151 9.5781 14.4191 9.52476 14.6915C9.47 14.6915 9.35857 14.6905 9.35857 14.6362V14.5281C9.35857 14.3643 9.30381 14.1467 9.14143 14.0924C9.08667 14.0391 9.01 14.1248 8.95524 14.1248C8.79238 14.1248 8.62952 13.961 8.46714 14.07C8.35809 14.1781 8.24952 14.3419 8.24952 14.5048C8.24952 14.5595 8.24952 14.6138 8.30333 14.6676C8.41238 14.7224 8.52048 14.6143 8.63 14.6676C8.7381 14.6676 8.7381 14.7767 8.7381 14.8315C8.84714 14.9943 8.95524 15.2119 9.11905 15.2662H10.2057C10.3686 15.321 10.6405 15.3743 10.7495 15.4838C10.8029 15.5919 10.8029 15.701 10.8576 15.8095C11.1295 16.0815 11.4548 16.0815 11.7814 16.1905C11.891 16.2438 11.9452 16.2972 11.9452 16.4067ZM14.9819 10.1953C14.9576 10.2024 14.9338 10.2091 14.9105 10.2191C14.7476 10.2738 14.3224 11.0581 14.2138 11.221C14.159 11.2757 14.1057 11.3838 14.159 11.4381C14.159 11.4929 14.2138 11.4929 14.2681 11.4929C14.3762 11.5476 14.391 11.57 14.5 11.6234C14.5548 11.6234 14.6081 11.6781 14.5548 11.7324C14.5548 11.7324 14.5548 11.7872 14.5 11.7872C14.2281 12.0591 13.9562 12.2767 13.6848 12.5476C13.63 12.6029 13.5938 12.7119 13.5938 12.7653C13.5938 12.82 13.63 12.82 13.63 12.8743C13.63 12.9286 13.5752 12.9291 13.521 12.9824C13.4129 13.0372 13.3033 13.0915 13.249 13.1462C13.1957 13.2543 13.249 13.4181 13.1957 13.5267C13.141 13.7986 12.9776 14.0162 12.869 14.2881C12.76 14.451 12.6624 14.6138 12.5533 14.7776C12.5533 14.9948 12.4986 15.1581 12.6081 15.3205C12.88 15.7015 13.4243 15.3372 13.8048 15.4995C13.9129 15.5543 14.0062 15.5638 14.0767 15.6624C14.2119 15.8495 14.2281 16.2448 14.2829 16.4081C14.3362 16.6257 14.391 16.8429 14.5 17.06C14.5543 17.3295 14.6605 17.5991 14.7157 17.8138C15.9514 16.9534 16.7619 15.5243 16.7619 13.9048C16.7619 12.4043 16.0662 11.0681 14.9819 10.1953ZM13.0971 10.4181C13.259 10.3138 13.3676 10.1067 13.4219 9.95145C13.4748 9.84717 13.6376 9.64003 13.5838 9.48479C13.5414 9.40384 13.3705 9.35526 13.2448 9.31288C12.8471 9.20574 12.4314 9.14288 12 9.14288C11.8905 9.14288 11.7833 9.15193 11.6757 9.15955C11.5848 9.19098 11.5071 9.24431 11.4771 9.32955C11.4229 9.5886 11.639 9.53669 11.8548 9.5886C11.8548 9.5886 11.909 10.0034 11.909 10.0557C11.9633 10.3153 11.801 10.4705 11.801 10.7291C11.801 10.8853 11.801 11.1443 11.909 11.2481H11.9633C12.0176 11.2481 12.071 11.1957 12.179 11.1453C12.341 11.041 12.5038 10.8857 12.6652 10.7815C12.8271 10.6776 12.9886 10.5219 13.0971 10.4181Z" fill="url(#paint3_linear_40_2505)"/>
<defs>
<linearGradient id="paint0_linear_40_2505" x1="12" y1="3.76574" x2="12" y2="7.70336" gradientUnits="userSpaceOnUse">
<stop stop-color="#EBA600"/>
<stop offset="1" stop-color="#C28200"/>
</linearGradient>
<linearGradient id="paint1_linear_40_2505" x1="12" y1="5.74005" x2="12" y2="20.0872" gradientUnits="userSpaceOnUse">
<stop stop-color="#FFD869"/>
<stop offset="1" stop-color="#FEC52B"/>
</linearGradient>
<linearGradient id="paint2_linear_40_2505" x1="8.63286" y1="10.5376" x2="15.4257" y2="17.33" gradientUnits="userSpaceOnUse">
<stop stop-color="#00BFFE"/>
<stop offset="1" stop-color="#1D55C4"/>
</linearGradient>
<linearGradient id="paint3_linear_40_2505" x1="8.71524" y1="10.4953" x2="15.4819" y2="17.2619" gradientUnits="userSpaceOnUse">
<stop stop-color="#84E1FE"/>
<stop offset="1" stop-color="#167CF7"/>
</linearGradient>
</defs>
</svg>
