<svg width="24" height="24" viewBox="0 0 24 24" fill="none" xmlns="http://www.w3.org/2000/svg">
<path d="M12 20.0949C17.5228 20.0949 21.9999 16.4705 21.9999 11.9997C21.9999 7.52892 17.5228 3.9046 12 3.9046C6.47722 3.9046 2.00012 7.52892 2.00012 11.9997C2.00012 16.4705 6.47722 20.0949 12 20.0949Z" fill="url(#paint0_radial_40_2533)"/>
<path d="M12 17.2378C15.6819 17.2378 18.6666 14.2531 18.6666 10.5712C18.6666 6.88934 15.6819 3.9046 12 3.9046C8.31816 3.9046 5.33342 6.88934 5.33342 10.5712C5.33342 14.2531 8.31816 17.2378 12 17.2378Z" fill="url(#paint1_linear_40_2533)"/>
<path d="M12 13.9045C13.8409 13.9045 15.3333 12.4121 15.3333 10.5712C15.3333 8.73028 13.8409 7.23792 12 7.23792C10.1591 7.23792 8.6667 8.73028 8.6667 10.5712C8.6667 12.4121 10.1591 13.9045 12 13.9045Z" fill="url(#paint2_radial_40_2533)"/>
<path d="M9.61907 9.14265C10.1451 9.14265 10.5714 8.71626 10.5714 8.19028C10.5714 7.66431 10.1451 7.23792 9.61907 7.23792C9.0931 7.23792 8.6667 7.66431 8.6667 8.19028C8.6667 8.71626 9.0931 9.14265 9.61907 9.14265Z" fill="white"/>
<path d="M21.9466 20.9206L3.07916 2.05321C3.00821 1.98226 2.89345 1.98226 2.8225 2.05321L2.05346 2.82273C1.98251 2.89368 1.98251 3.00844 2.05346 3.07939L20.9209 21.9468C20.9918 22.0177 21.1066 22.0177 21.1775 21.9468L21.947 21.1773C22.0175 21.1063 22.0175 20.9911 21.9466 20.9206Z" fill="#E52030"/>
<defs>
<radialGradient id="paint0_radial_40_2533" cx="0" cy="0" r="1" gradientUnits="userSpaceOnUse" gradientTransform="translate(12.0669 9.46126) scale(10.6114 10.7377)">
<stop offset="0.55" stop-color="#E4E4E6"/>
<stop offset="0.73" stop-color="#E1E2E4"/>
<stop offset="0.854" stop-color="#D8DADC"/>
<stop offset="0.961" stop-color="#C9CDCF"/>
<stop offset="1" stop-color="#C1C6C9"/>
</radialGradient>
<linearGradient id="paint1_linear_40_2533" x1="7.75672" y1="6.32791" x2="16.3633" y2="14.9345" gradientUnits="userSpaceOnUse">
<stop stop-color="#32BDEF"/>
<stop offset="1" stop-color="#1EA2E4"/>
</linearGradient>
<radialGradient id="paint2_radial_40_2533" cx="0" cy="0" r="1" gradientUnits="userSpaceOnUse" gradientTransform="translate(10.0362 5.69412) scale(8.6518)">
<stop stop-color="#4B4B4B"/>
<stop offset="0.531" stop-color="#393939"/>
<stop offset="1" stop-color="#252525"/>
</radialGradient>
</defs>
</svg>
