<svg width="24" height="24" viewBox="0 0 24 24" fill="none" xmlns="http://www.w3.org/2000/svg">
<path d="M3.85797 22C3.64418 22 3.43519 21.9365 3.25744 21.8178C3.07969 21.699 2.94115 21.5302 2.85934 21.3327C2.77752 21.1351 2.75612 20.9178 2.79782 20.7081C2.83951 20.4984 2.94246 20.3058 3.09361 20.1546L8.97201 14.2762C9.07239 14.1759 9.19156 14.0962 9.3227 14.0419C9.45388 13.9875 9.59442 13.9597 9.73637 13.9597C9.87831 13.9597 10.0189 13.9875 10.15 14.0419C10.2812 14.0962 10.4004 14.1759 10.5007 14.2762C10.6011 14.3766 10.6807 14.4958 10.7351 14.6269C10.7893 14.758 10.8173 14.8986 10.8173 15.0405C10.8173 15.1826 10.7893 15.3231 10.7351 15.4543C10.6807 15.5854 10.6011 15.7045 10.5007 15.805L4.62233 21.6834C4.52207 21.7839 4.40294 21.8636 4.27176 21.9179C4.14059 21.9723 3.99996 22.0002 3.85797 22Z" fill="#21A366"/>
<path d="M21.1639 2.05908L5.79337 17.4295C4.25128 15.8869 3.38499 13.7949 3.38499 11.6137C3.38499 9.43243 4.25128 7.34049 5.79337 5.79784C10.363 1.22825 21.1639 2.05908 21.1639 2.05908Z" fill="#33C481"/>
<path d="M17.425 17.4295C15.8824 18.9716 13.7904 19.8379 11.6092 19.8379C9.42792 19.8379 7.336 18.9716 5.79335 17.4295L21.1639 2.05908C21.1639 2.05908 21.9947 12.8599 17.425 17.4295Z" fill="#21A366"/>
</svg>
