<svg width="24" height="24" viewBox="0 0 24 24" fill="none" xmlns="http://www.w3.org/2000/svg">
<path d="M19.5 22H4.5C3.9475 22 3.5 21.5525 3.5 21V3C3.5 2.4475 3.9475 2 4.5 2H19.5C20.0525 2 20.5 2.4475 20.5 3V21C20.5 21.5525 20.0525 22 19.5 22Z" fill="url(#paint0_linear_40_2682)"/>
<path opacity="0.05" d="M14.586 3C14.851 3 15.1055 3.1055 15.293 3.293L19.207 7.207C19.3945 7.3945 19.5 7.649 19.5 7.914V20.5C19.5 20.776 19.276 21 19 21H5C4.724 21 4.5 20.776 4.5 20.5V3.5C4.5 3.224 4.724 3 5 3H14.586ZM14.586 2.5H5C4.4485 2.5 4 2.9485 4 3.5V20.5C4 21.0515 4.4485 21.5 5 21.5H19C19.5515 21.5 20 21.0515 20 20.5V7.914C20 7.5135 19.844 7.1365 19.5605 6.8535L15.6465 2.9395C15.363 2.656 14.9865 2.5 14.586 2.5Z" fill="black"/>
<path opacity="0.07" d="M14.586 3C14.851 3 15.1055 3.1055 15.293 3.293L19.207 7.207C19.3945 7.3945 19.5 7.649 19.5 7.914V20.5C19.5 20.776 19.276 21 19 21H5C4.724 21 4.5 20.776 4.5 20.5V3.5C4.5 3.224 4.724 3 5 3H14.586ZM14.586 2.75H5C4.5865 2.75 4.25 3.0865 4.25 3.5V20.5C4.25 20.9135 4.5865 21.25 5 21.25H19C19.4135 21.25 19.75 20.9135 19.75 20.5V7.914C19.75 7.58 19.62 7.266 19.384 7.03L15.47 3.116C15.2335 2.88 14.9195 2.75 14.586 2.75Z" fill="black"/>
<path d="M5 3C4.724 3 4.5 3.224 4.5 3.5V20.5C4.5 20.776 4.724 21 5 21H19C19.276 21 19.5 20.776 19.5 20.5V7.914C19.5 7.649 19.3945 7.3945 19.207 7.207L15.293 3.293C15.1055 3.1055 14.851 3 14.586 3H5Z" fill="url(#paint1_linear_40_2682)"/>
<path d="M17.278 10.5H12.222C11.823 10.5 11.5 10.8195 11.5 11.2145V14.429C11.5 15.0205 11.985 15.5 12.5835 15.5H17.1145C17.6035 15.5 18 15.108 18 14.6245V11.2145C18 10.8195 17.677 10.5 17.278 10.5Z" fill="url(#paint2_radial_40_2682)"/>
<path d="M18 14.603L16.1335 12.658C15.925 12.4515 15.588 12.4475 15.3735 12.648L13.6665 14.199V15.5H17.2775C17.677 15.5 18 15.1805 18 14.7855V14.603Z" fill="#436DCD"/>
<path d="M17.278 15.5L13.962 12.1925C13.7075 11.9405 13.2965 11.9355 13.035 12.18L11.5 13.5795V14.786C11.5 15.1805 11.823 15.5 12.222 15.5H17.278Z" fill="url(#paint3_linear_40_2682)"/>
<path d="M16.5 11.989C16.7761 11.989 17 11.7676 17 11.4945C17 11.2214 16.7761 11 16.5 11C16.2239 11 16 11.2214 16 11.4945C16 11.7676 16.2239 11.989 16.5 11.989Z" fill="white"/>
<path d="M10.25 11.5H6.25C6.112 11.5 6 11.388 6 11.25V10.75C6 10.612 6.112 10.5 6.25 10.5H10.25C10.388 10.5 10.5 10.612 10.5 10.75V11.25C10.5 11.388 10.388 11.5 10.25 11.5Z" fill="#29AFEA"/>
<path d="M10.25 13.5H6.25C6.112 13.5 6 13.388 6 13.25V12.75C6 12.612 6.112 12.5 6.25 12.5H10.25C10.388 12.5 10.5 12.612 10.5 12.75V13.25C10.5 13.388 10.388 13.5 10.25 13.5Z" fill="#29AFEA"/>
<path d="M10.25 15.5H6.25C6.112 15.5 6 15.388 6 15.25V14.75C6 14.612 6.112 14.5 6.25 14.5H10.25C10.388 14.5 10.5 14.612 10.5 14.75V15.25C10.5 15.388 10.388 15.5 10.25 15.5Z" fill="#29AFEA"/>
<path d="M17.75 17.5H6.25C6.112 17.5 6 17.388 6 17.25V16.75C6 16.612 6.112 16.5 6.25 16.5H17.75C17.888 16.5 18 16.612 18 16.75V17.25C18 17.388 17.888 17.5 17.75 17.5Z" fill="#29AFEA"/>
<path d="M17.75 19.5H6.25C6.112 19.5 6 19.388 6 19.25V18.75C6 18.612 6.112 18.5 6.25 18.5H17.75C17.888 18.5 18 18.612 18 18.75V19.25C18 19.388 17.888 19.5 17.75 19.5Z" fill="#29AFEA"/>
<defs>
<linearGradient id="paint0_linear_40_2682" x1="12" y1="2.7085" x2="12" y2="22.9605" gradientUnits="userSpaceOnUse">
<stop stop-color="#2AA4F4"/>
<stop offset="1" stop-color="#007AD9"/>
</linearGradient>
<linearGradient id="paint1_linear_40_2682" x1="12" y1="9.1665" x2="12" y2="30.5015" gradientUnits="userSpaceOnUse">
<stop stop-color="#F9F9F9"/>
<stop offset="0.26" stop-color="#F0F1F2"/>
<stop offset="0.678" stop-color="#D9DCDF"/>
<stop offset="1" stop-color="#C2C8CC"/>
</linearGradient>
<radialGradient id="paint2_radial_40_2682" cx="0" cy="0" r="1" gradientUnits="userSpaceOnUse" gradientTransform="translate(19.1697 14.733) scale(3.78202 3.7405)">
<stop stop-color="#BD8AF5"/>
<stop offset="0.137" stop-color="#B88BF5"/>
<stop offset="0.309" stop-color="#A88FF3"/>
<stop offset="0.499" stop-color="#8F96F2"/>
<stop offset="0.702" stop-color="#6B9EEF"/>
<stop offset="0.913" stop-color="#3EAAEC"/>
<stop offset="1" stop-color="#29AFEA"/>
</radialGradient>
<linearGradient id="paint3_linear_40_2682" x1="14.389" y1="11.992" x2="14.389" y2="15.561" gradientUnits="userSpaceOnUse">
<stop stop-color="#124787"/>
<stop offset="0.923" stop-color="#173B75"/>
<stop offset="1" stop-color="#173A73"/>
</linearGradient>
</defs>
</svg>
