<svg width="24" height="24" viewBox="0 0 24 24" fill="none" xmlns="http://www.w3.org/2000/svg">
<path d="M3.46443 20.5356C5.41701 22.4882 8.58272 22.4882 10.5353 20.5356C11.4474 19.6235 13.3073 17.7636 14.2194 16.8515C16.172 14.8989 16.172 11.7332 14.2194 9.7806C12.2668 7.82802 9.10113 7.82802 7.14855 9.7806C6.23646 10.6927 4.37651 12.5526 3.46443 13.4647C1.51238 15.4168 1.51238 18.583 3.46443 20.5356ZM5.32543 15.3252C5.86226 14.7884 8.60798 12.0427 9.00955 11.6411C9.93426 10.7164 11.4342 10.7164 12.3589 11.6411C13.2837 12.5658 13.2837 14.0658 12.3589 14.9905C11.9574 15.392 9.21165 18.1378 8.67482 18.6746C7.75011 19.5993 6.25015 19.5993 5.32543 18.6746C4.40072 17.7499 4.40072 16.2499 5.32543 15.3252Z" fill="#0078D4"/>
<path opacity="0.05" d="M11.7942 11.2153C11.7942 11.2153 11.4737 10.4211 12.1995 9.56744L12.92 8.84641C11.2542 8.01327 9.22428 8.17011 7.6959 9.31376C7.26328 10.9474 7.89326 12.7573 7.89326 12.7573C8.44062 12.21 8.8785 11.7721 9.00955 11.6411C9.76743 10.8837 10.869 10.7437 11.7942 11.2153Z" fill="black"/>
<path opacity="0.07" d="M11.3826 11.049C11.3395 10.6995 11.289 9.98375 11.9205 9.28849C11.9574 9.25165 12.4047 8.79377 12.5221 8.6764C11.1316 8.09273 9.52795 8.20484 8.21061 8.9764C7.76378 10.3332 8.04378 11.8826 8.21061 12.4405C8.60166 12.0495 8.90744 11.7437 9.01007 11.6411C9.65689 10.9937 10.5548 10.7969 11.3826 11.049Z" fill="black"/>
<path d="M20.5356 3.46444C18.583 1.51185 15.4173 1.51185 13.4647 3.46444C12.5526 4.37652 10.6927 6.23647 9.78057 7.14855C7.82799 9.10113 7.82799 12.2668 9.78057 14.2194C11.7332 16.172 14.8989 16.172 16.8515 14.2194C17.7635 13.3073 19.6235 11.4474 20.5356 10.5353C22.4876 8.58325 22.4876 5.41702 20.5356 3.46444ZM18.6746 8.67483C18.1377 9.21166 15.392 11.9574 14.9904 12.3589C14.0657 13.2836 12.5658 13.2836 11.6411 12.3589C10.7163 11.4342 10.7163 9.93426 11.6411 9.00956C12.0426 8.60799 14.7884 5.86227 15.3252 5.32544C16.2499 4.40073 17.7499 4.40073 18.6746 5.32544C19.5993 6.25015 19.5993 7.75011 18.6746 8.67483Z" fill="#1B9DE2"/>
<path opacity="0.05" d="M12.2032 12.7768C12.2032 12.7768 12.5263 13.5789 11.8005 14.4326L11.08 15.1536C12.7458 15.9868 14.7757 15.8299 16.3041 14.6863C16.7367 13.0526 16.1067 11.2427 16.1067 11.2427C15.5594 11.79 15.1215 12.2279 14.9904 12.359C14.2326 13.1163 13.1 13.2605 12.2032 12.7768Z" fill="black"/>
<path opacity="0.07" d="M12.6252 12.9505C12.6684 13.2999 12.711 14.0162 12.0795 14.7115C12.0426 14.7483 11.5953 15.1957 11.4779 15.313C12.8684 15.8967 14.4873 15.7851 15.7915 14.9825C16.2383 13.6257 15.9567 12.1168 15.7894 11.5594C15.3983 11.9505 15.0926 12.2563 14.9899 12.3589C14.3431 13.0063 13.4068 13.1952 12.6252 12.9505Z" fill="black"/>
<path d="M12.3589 11.641C13.2837 12.5658 13.2837 14.0657 12.3589 14.9904C11.9574 15.392 9.21165 18.1377 8.67482 18.6745L10.5358 20.5356C11.4479 19.6235 13.3079 17.7635 14.2199 16.8514C16.1725 14.8989 16.1725 11.7331 14.2199 9.78058L12.3589 11.641Z" fill="#0078D4"/>
</svg>
