<svg width="24" height="24" viewBox="0 0 24 24" fill="none" xmlns="http://www.w3.org/2000/svg">
<path d="M22 19.2222C22 20.7567 20.7567 22 19.2222 22H4.77778C3.24389 22 2 20.7567 2 19.2222V4.77778C2 3.24333 3.24389 2 4.77778 2H19.2222C20.7567 2 22 3.24333 22 4.77778V19.2222Z" fill="#0078D4"/>
<path opacity="0.05" d="M15.3333 19.2222V13.6117C15.3333 12.6733 14.8783 12.1128 14.1156 12.1128C13.6628 12.1128 13.33 12.3678 13.1272 12.8705C13.1178 12.9061 13.1044 13.0511 13.11 13.4894L13.1111 19.2222H9.22222V8.66666H13.1111V9.2561C13.6789 8.86444 14.375 8.66666 15.1878 8.66666C17.7139 8.66666 19.2217 10.385 19.2217 13.2633L19.2222 19.2222H15.3333ZM4.77778 19.2222V8.66666H6.69833C5.58556 8.66666 4.77778 7.84888 4.77778 6.72166C4.77778 5.59555 5.59889 4.77777 6.73 4.77777C7.84778 4.77777 8.64389 5.57277 8.66667 6.71055C8.66667 7.8461 7.845 8.66666 6.71389 8.66666H8.66667V19.2222H4.77778Z" fill="black"/>
<path opacity="0.07" d="M15.6111 18.9444V13.6117C15.6111 12.5155 15.0383 11.835 14.1156 11.835C13.3961 11.835 13.0406 12.3417 12.8694 12.7667C12.8239 12.8772 12.83 13.3161 12.8322 13.5033L12.8333 18.9444H9.5V8.94443H12.8333V9.85443C13.275 9.39721 13.9861 8.94443 15.1878 8.94443C17.5394 8.94443 18.9439 10.5589 18.9439 13.2633L18.9444 18.9444H15.6111ZM5.05556 18.9444V8.94443H8.38889V18.9444H5.05556ZM6.69833 8.38888C5.74667 8.38888 5.05556 7.68776 5.05556 6.72165C5.05556 5.7561 5.76 5.05554 6.73 5.05554C7.68778 5.05554 8.36944 5.73832 8.38889 6.7161C8.38889 7.68776 7.68444 8.38888 6.71389 8.38888H6.69833Z" fill="black"/>
<path d="M5.33333 9.2222H8.11111V18.6666H5.33333V9.2222ZM6.71389 8.11109H6.69833C5.86944 8.11109 5.33333 7.49331 5.33333 6.72165C5.33333 5.93331 5.88611 5.33331 6.73 5.33331C7.575 5.33331 8.09556 5.93331 8.11111 6.72165C8.11111 7.49276 7.575 8.11109 6.71389 8.11109ZM18.6667 18.6666H15.8889V13.6116C15.8889 12.3905 15.2083 11.5572 14.1156 11.5572C13.2817 11.5572 12.8306 12.1194 12.6117 12.6628C12.5317 12.8572 12.5556 13.395 12.5556 13.6666V18.6666H9.77778V9.2222H12.5556V10.6755C12.9561 10.0555 13.5833 9.2222 15.1878 9.2222C17.1756 9.2222 18.6661 10.4722 18.6661 13.2633L18.6667 18.6666Z" fill="white"/>
</svg>
