<svg width="24" height="24" viewBox="0 0 24 24" fill="none" xmlns="http://www.w3.org/2000/svg">
<path d="M14.1053 22H5.15789C4.57632 22 4.10526 21.5289 4.10526 20.9474V3.05263C4.10526 2.47105 4.57632 2 5.15789 2H18.8421C19.4237 2 19.8947 2.47105 19.8947 3.05263V16.2105L14.1053 22Z" fill="url(#paint0_linear_40_2765)"/>
<path d="M19.8947 16.2105H15.1579C14.5763 16.2105 14.1053 16.6816 14.1053 17.2631V22L19.8947 16.2105Z" fill="url(#paint1_linear_40_2765)"/>
<path d="M16.7368 5.1579H11.4737C11.1832 5.1579 10.9474 5.39369 10.9474 5.68421C10.9474 5.97474 11.1832 6.21053 11.4737 6.21053H16.7368C17.0274 6.21053 17.2632 5.97474 17.2632 5.68421C17.2632 5.39369 17.0274 5.1579 16.7368 5.1579Z" fill="#057093"/>
<path d="M6.73684 6.21053H9.36842C9.65895 6.21053 9.89474 5.97474 9.89474 5.68421C9.89474 5.39369 9.65895 5.1579 9.36842 5.1579H6.73684C6.44632 5.1579 6.21053 5.39369 6.21053 5.68421C6.21053 5.97474 6.44632 6.21053 6.73684 6.21053Z" fill="#057093"/>
<path d="M6.73684 8.31582H9.36842C9.65895 8.31582 9.89474 8.08003 9.89474 7.7895C9.89474 7.49897 9.65895 7.26318 9.36842 7.26318H6.73684C6.44632 7.26318 6.21053 7.49897 6.21053 7.7895C6.21053 8.08003 6.44632 8.31582 6.73684 8.31582Z" fill="#057093"/>
<path d="M6.73684 10.421H9.36842C9.65895 10.421 9.89474 10.1853 9.89474 9.89472C9.89474 9.6042 9.65895 9.36841 9.36842 9.36841H6.73684C6.44632 9.36841 6.21053 9.6042 6.21053 9.89472C6.21053 10.1853 6.44632 10.421 6.73684 10.421Z" fill="#057093"/>
<path d="M6.73684 12.5263H9.36842C9.65895 12.5263 9.89474 12.2905 9.89474 12C9.89474 11.7095 9.65895 11.4737 9.36842 11.4737H6.73684C6.44632 11.4737 6.21053 11.7095 6.21053 12C6.21053 12.2905 6.44632 12.5263 6.73684 12.5263Z" fill="#057093"/>
<path d="M6.73684 14.6316H9.36842C9.65895 14.6316 9.89474 14.3958 9.89474 14.1052C9.89474 13.8147 9.65895 13.5789 9.36842 13.5789H6.73684C6.44632 13.5789 6.21053 13.8147 6.21053 14.1052C6.21053 14.3958 6.44632 14.6316 6.73684 14.6316Z" fill="#057093"/>
<path d="M11.4737 14.6316H16.2105C16.501 14.6316 16.7368 14.3958 16.7368 14.1052C16.7368 13.8147 16.501 13.5789 16.2105 13.5789H11.4737C11.1832 13.5789 10.9474 13.8147 10.9474 14.1052C10.9474 14.3958 11.1832 14.6316 11.4737 14.6316Z" fill="#057093"/>
<path d="M11.4737 10.421H17.2632C17.5537 10.421 17.7895 10.1853 17.7895 9.89472C17.7895 9.6042 17.5537 9.36841 17.2632 9.36841H11.4737C11.1832 9.36841 10.9474 9.6042 10.9474 9.89472C10.9474 10.1853 11.1832 10.421 11.4737 10.421Z" fill="#057093"/>
<path d="M11.4737 8.31582H15.1579C15.4484 8.31582 15.6842 8.08003 15.6842 7.7895C15.6842 7.49897 15.4484 7.26318 15.1579 7.26318H11.4737C11.1832 7.26318 10.9474 7.49897 10.9474 7.7895C10.9474 8.08003 11.1832 8.31582 11.4737 8.31582Z" fill="#057093"/>
<path d="M11.4737 12.5263H15.1579C15.4484 12.5263 15.6842 12.2905 15.6842 12C15.6842 11.7095 15.4484 11.4737 15.1579 11.4737H11.4737C11.1832 11.4737 10.9474 11.7095 10.9474 12C10.9474 12.2905 11.1832 12.5263 11.4737 12.5263Z" fill="#057093"/>
<defs>
<linearGradient id="paint0_linear_40_2765" x1="9.08346" y1="2.30706" x2="20.1877" y2="19.2096" gradientUnits="userSpaceOnUse">
<stop stop-color="#7DD8F3"/>
<stop offset="1" stop-color="#45B0D0"/>
</linearGradient>
<linearGradient id="paint1_linear_40_2765" x1="14.3837" y1="16.4884" x2="17.0526" y2="19.1579" gradientUnits="userSpaceOnUse">
<stop stop-color="#3079D6"/>
<stop offset="1" stop-color="#297CD2"/>
</linearGradient>
</defs>
</svg>
