<svg width="24" height="24" viewBox="0 0 24 24" fill="none" xmlns="http://www.w3.org/2000/svg">
<path d="M21.0476 7.71426H7.71428C7.19047 7.71426 6.7619 7.28569 6.7619 6.76188V5.8095C6.7619 5.28569 7.19047 4.85712 7.71428 4.85712H21.0476C21.5714 4.85712 22 5.28569 22 5.8095V6.76188C22 7.28569 21.5714 7.71426 21.0476 7.71426Z" fill="url(#paint0_linear_40_2757)"/>
<path d="M3.90476 7.71426H2.95238C2.42857 7.71426 2 7.28569 2 6.76188V5.8095C2 5.28569 2.42857 4.85712 2.95238 4.85712H3.90476C4.42857 4.85712 4.85714 5.28569 4.85714 5.8095V6.76188C4.85714 7.28569 4.42857 7.71426 3.90476 7.71426Z" fill="url(#paint1_linear_40_2757)"/>
<path d="M21.0476 13.4286H7.71428C7.19047 13.4286 6.7619 13 6.7619 12.4762V11.5238C6.7619 11 7.19047 10.5714 7.71428 10.5714H21.0476C21.5714 10.5714 22 11 22 11.5238V12.4762C22 13 21.5714 13.4286 21.0476 13.4286Z" fill="url(#paint2_linear_40_2757)"/>
<path d="M3.90476 13.4286H2.95238C2.42857 13.4286 2 13 2 12.4762V11.5238C2 11 2.42857 10.5714 2.95238 10.5714H3.90476C4.42857 10.5714 4.85714 11 4.85714 11.5238V12.4762C4.85714 13 4.42857 13.4286 3.90476 13.4286Z" fill="url(#paint3_linear_40_2757)"/>
<path d="M21.0476 19.1428H7.71428C7.19047 19.1428 6.7619 18.7143 6.7619 18.1905V17.2381C6.7619 16.7143 7.19047 16.2857 7.71428 16.2857H21.0476C21.5714 16.2857 22 16.7143 22 17.2381V18.1905C22 18.7143 21.5714 19.1428 21.0476 19.1428Z" fill="url(#paint4_linear_40_2757)"/>
<path d="M3.90476 19.1428H2.95238C2.42857 19.1428 2 18.7143 2 18.1905V17.2381C2 16.7143 2.42857 16.2857 2.95238 16.2857H3.90476C4.42857 16.2857 4.85714 16.7143 4.85714 17.2381V18.1905C4.85714 18.7143 4.42857 19.1428 3.90476 19.1428Z" fill="url(#paint5_linear_40_2757)"/>
<defs>
<linearGradient id="paint0_linear_40_2757" x1="9.94285" y1="1.84759" x2="18.431" y2="10.3357" gradientUnits="userSpaceOnUse">
<stop stop-color="#1D59B3"/>
<stop offset="1" stop-color="#195BBC"/>
</linearGradient>
<linearGradient id="paint1_linear_40_2757" x1="2.22714" y1="5.08426" x2="4.52476" y2="7.38188" gradientUnits="userSpaceOnUse">
<stop offset="0.003" stop-color="#42A3F2"/>
<stop offset="1" stop-color="#42A4EB"/>
</linearGradient>
<linearGradient id="paint2_linear_40_2757" x1="9.94285" y1="7.56189" x2="18.431" y2="16.05" gradientUnits="userSpaceOnUse">
<stop stop-color="#1D59B3"/>
<stop offset="1" stop-color="#195BBC"/>
</linearGradient>
<linearGradient id="paint3_linear_40_2757" x1="2.22714" y1="10.7986" x2="4.52476" y2="13.0962" gradientUnits="userSpaceOnUse">
<stop stop-color="#42A3F2"/>
<stop offset="1" stop-color="#42A4EB"/>
</linearGradient>
<linearGradient id="paint4_linear_40_2757" x1="9.94285" y1="13.2762" x2="18.431" y2="21.7643" gradientUnits="userSpaceOnUse">
<stop stop-color="#1D59B3"/>
<stop offset="1" stop-color="#195BBC"/>
</linearGradient>
<linearGradient id="paint5_linear_40_2757" x1="2.22714" y1="16.5128" x2="4.52476" y2="18.8105" gradientUnits="userSpaceOnUse">
<stop stop-color="#42A3F2"/>
<stop offset="1" stop-color="#42A4EB"/>
</linearGradient>
</defs>
</svg>
