<svg width="24" height="24" viewBox="0 0 24 24" fill="none" xmlns="http://www.w3.org/2000/svg">
<path d="M4.66667 11.3333L20.6667 4.97778V16.6667C20.6667 17.1556 20.2667 17.5556 19.7778 17.5556H4.66667V11.3333Z" fill="url(#paint0_linear_40_2833)"/>
<path d="M2 4.97778V16.6667C2 17.1556 2.4 17.5556 2.88889 17.5556H19.7778C20 17.5556 20.1778 17.4667 20.3556 17.3333L2 4.97778Z" fill="url(#paint1_linear_40_2833)"/>
<path opacity="0.05" d="M2 4.66663H20.6667V5.42218L12.9778 11.3777C12 12.1333 10.6667 12.1333 9.68889 11.3777L2 5.42218V4.66663Z" fill="black"/>
<path opacity="0.07" d="M2 4.4444H20.6667V5.19995L12.6667 11.0222C11.8667 11.6 10.8 11.6 10.0444 11.0222L2 5.19995V4.4444Z" fill="black"/>
<path d="M2.88889 3.33331H19.7778C20.2667 3.33331 20.6667 3.73331 20.6667 4.2222V4.97776L12.3556 10.6666C11.7333 11.0666 10.9778 11.0666 10.3556 10.6666L2 4.97776V4.2222C2 3.73331 2.4 3.33331 2.88889 3.33331Z" fill="url(#paint2_linear_40_2833)"/>
<path opacity="0.05" d="M18.1333 13.1555C18 12.8888 17.7333 12.6666 17.3333 12.6666C16.8889 12.6666 16.6222 12.9777 16.5778 13.1111L13.7778 17.5555H19.7778C20.1333 17.5555 20.4444 17.3333 20.5778 17.0222L18.1333 13.1555Z" fill="black"/>
<path opacity="0.07" d="M17.9111 13.2444C17.8667 13.1111 17.6444 12.8889 17.3333 12.8889C17.0222 12.8889 16.8 13.1111 16.7556 13.2444L14 17.5555H19.7778C20.0444 17.5555 20.3111 17.4222 20.4444 17.2444L17.9111 13.2444Z" fill="black"/>
<path d="M21.9111 19.9555L17.7333 13.3333C17.7333 13.3333 17.6 13.1111 17.3333 13.1111C17.0667 13.1111 16.9333 13.3333 16.9333 13.3333L12.7556 19.9555C12.7556 19.9555 12.6667 20.0444 12.6667 20.2222C12.6667 20.4444 12.8444 20.6666 13.1111 20.6666H21.5556C21.8222 20.6666 22 20.4889 22 20.2222C22 20.0889 21.9111 19.9555 21.9111 19.9555Z" fill="url(#paint3_linear_40_2833)"/>
<path d="M17.3333 19.7778C17.2 19.7778 17.0667 19.7333 16.9778 19.6444C16.8889 19.5555 16.8444 19.4666 16.8444 19.3333C16.8444 19.2 16.8889 19.1111 16.9778 19.0222C17.0667 18.9333 17.2 18.8889 17.3333 18.8889C17.4667 18.8889 17.6 18.9333 17.6889 19.0222C17.7778 19.1111 17.8222 19.2 17.8222 19.3333C17.8222 19.4666 17.7778 19.5555 17.6889 19.6444C17.6 19.7333 17.4667 19.7778 17.3333 19.7778ZM17.8222 15.5111L17.7333 18.3111C17.7333 18.4 17.6444 18.4444 17.6 18.4444H17.1111C17.0222 18.4444 16.9778 18.3555 16.9778 18.3111L16.8889 15.5111C16.8889 15.4222 16.9778 15.3333 17.0222 15.3333H17.7333C17.7778 15.3333 17.8222 15.4222 17.8222 15.5111Z" fill="url(#paint4_radial_40_2833)"/>
<defs>
<linearGradient id="paint0_linear_40_2833" x1="10.2293" y1="7.61689" x2="20.9298" y2="23.6324" gradientUnits="userSpaceOnUse">
<stop stop-color="#28AFEA"/>
<stop offset="1" stop-color="#0B88DA"/>
</linearGradient>
<linearGradient id="paint1_linear_40_2833" x1="1.29244" y1="10.6267" x2="16.8138" y2="20.2951" gradientUnits="userSpaceOnUse">
<stop stop-color="#28AFEA"/>
<stop offset="1" stop-color="#0B88DA"/>
</linearGradient>
<linearGradient id="paint2_linear_40_2833" x1="7.88533" y1="3.4505" x2="9.75973" y2="12.2883" gradientUnits="userSpaceOnUse">
<stop stop-color="#7DD8F3"/>
<stop offset="1" stop-color="#45B0D0"/>
</linearGradient>
<linearGradient id="paint3_linear_40_2833" x1="-56.2507" y1="-65.0845" x2="20.1858" y2="22.5817" gradientUnits="userSpaceOnUse">
<stop stop-color="#FFDA1C"/>
<stop offset="1" stop-color="#FEB705"/>
</linearGradient>
<radialGradient id="paint4_radial_40_2833" cx="0" cy="0" r="1" gradientUnits="userSpaceOnUse" gradientTransform="translate(16.1729 15.2853) scale(4.45376 4.59764)">
<stop stop-color="#4B4B4B"/>
<stop offset="0.531" stop-color="#393939"/>
<stop offset="1" stop-color="#252525"/>
</radialGradient>
</defs>
</svg>
