<svg width="24" height="24" viewBox="0 0 24 24" fill="none" xmlns="http://www.w3.org/2000/svg">
<path d="M19.4737 21.8651H4.5264C4.01025 21.8651 3.59219 21.4403 3.59219 20.9159V10.9488L12.0001 2.88025L20.408 10.9488V20.9159C20.408 21.4403 19.9899 21.8651 19.4737 21.8651Z" fill="url(#paint0_linear_40_2857)"/>
<path d="M4.5264 21.5408C4.19423 21.5408 3.91652 21.2661 3.91652 20.9159V11.0871L12.0001 3.32974L20.0836 11.0871V20.9159C20.0836 21.2661 19.8059 21.5408 19.4737 21.5408H4.5264Z" stroke="black" stroke-opacity="0.19" stroke-width="1.5"/>
<path d="M4.5264 21.5408C4.19423 21.5408 3.91652 21.2661 3.91652 20.9159V11.0871L12.0001 3.32974L20.0836 11.0871V20.9159C20.0836 21.2661 19.8059 21.5408 19.4737 21.5408H4.5264Z" stroke="black" stroke-opacity="0.2" stroke-width="1.5"/>
<path opacity="0.05" d="M12.0001 3.35532C11.7787 3.35532 11.5573 3.43505 11.3807 3.59405L8.87749 5.87745L3.59219 10.9493V13.5075L12.0001 5.93155L20.408 13.5075V10.9493L15.1227 5.87745L12.6195 3.59405C12.4429 3.43505 12.2215 3.35532 12.0001 3.35532Z" fill="#88B0CE"/>
<path opacity="0.07" d="M12.0001 2.88025C11.7787 2.88025 11.5573 2.95951 11.3807 3.11756L8.87749 5.38815L3.59219 10.431V12.9745L12.0001 5.44178L20.408 12.9745V10.431L15.1227 5.38815L12.6195 3.11756C12.4429 2.95951 12.2215 2.88025 12.0001 2.88025Z" fill="#88B0CE"/>
<path d="M21.7546 10.514L21.7543 10.5136L12.8003 2.44313L12.8002 2.44305C12.5728 2.23821 12.2865 2.13489 12 2.13489C11.7135 2.13489 11.4272 2.23821 11.1998 2.44305L11.1997 2.44313L2.24575 10.5136L2.24536 10.514C1.93744 10.7926 1.91662 11.2717 2.19831 11.5765L2.96225 12.4045C3.23438 12.6997 3.69014 12.7227 3.99012 12.4548C3.99019 12.4548 3.99026 12.4547 3.99033 12.4546L12 5.34284L20.0097 12.4552C20.0098 12.4552 20.0099 12.4553 20.01 12.4554C20.3092 12.7224 20.7653 12.7004 21.0377 12.405C21.0377 12.405 21.0377 12.4049 21.0378 12.4049L21.8018 11.5768L21.8019 11.5767C22.0832 11.2717 22.0627 10.7927 21.7546 10.514Z" fill="url(#paint1_linear_40_2857)"/>
<path d="M21.7546 10.514L21.7543 10.5136L12.8003 2.44313L12.8002 2.44305C12.5728 2.23821 12.2865 2.13489 12 2.13489C11.7135 2.13489 11.4272 2.23821 11.1998 2.44305L11.1997 2.44313L2.24575 10.5136L2.24536 10.514C1.93744 10.7926 1.91662 11.2717 2.19831 11.5765L2.96225 12.4045C3.23438 12.6997 3.69014 12.7227 3.99012 12.4548C3.99019 12.4548 3.99026 12.4547 3.99033 12.4546L12 5.34284L20.0097 12.4552C20.0098 12.4552 20.0099 12.4553 20.01 12.4554C20.3092 12.7224 20.7653 12.7004 21.0377 12.405C21.0377 12.405 21.0377 12.4049 21.0378 12.4049L21.8018 11.5768L21.8019 11.5767C22.0832 11.2717 22.0627 10.7927 21.7546 10.514Z" stroke="url(#paint2_linear_40_2857)" stroke-width="1.25"/>
<path d="M21.7546 10.514L21.7543 10.5136L12.8003 2.44313L12.8002 2.44305C12.5728 2.23821 12.2865 2.13489 12 2.13489C11.7135 2.13489 11.4272 2.23821 11.1998 2.44305L11.1997 2.44313L2.24575 10.5136L2.24536 10.514C1.93744 10.7926 1.91662 11.2717 2.19831 11.5765L2.96225 12.4045C3.23438 12.6997 3.69014 12.7227 3.99012 12.4548C3.99019 12.4548 3.99026 12.4547 3.99033 12.4546L12 5.34284L20.0097 12.4552C20.0098 12.4552 20.0099 12.4553 20.01 12.4554C20.3092 12.7224 20.7653 12.7004 21.0377 12.405C21.0377 12.405 21.0377 12.4049 21.0378 12.4049L21.8018 11.5768L21.8019 11.5767C22.0832 11.2717 22.0627 10.7927 21.7546 10.514Z" stroke="black" stroke-opacity="0.2" stroke-width="1.25"/>
<path d="M15.5064 12.4295H8.76416C8.64475 12.4295 8.54794 12.5263 8.54794 12.6457V13.1245C8.54794 13.2439 8.64475 13.3407 8.76416 13.3407H15.5064C15.6258 13.3407 15.7226 13.2439 15.7226 13.1245V12.6457C15.7226 12.5263 15.6258 12.4295 15.5064 12.4295Z" fill="url(#paint3_linear_40_2857)"/>
<mask id="mask0_40_2857" style="mask-type:alpha" maskUnits="userSpaceOnUse" x="8" y="16" width="8" height="2">
<path d="M15.5064 16.9855H8.76416C8.64475 16.9855 8.54794 17.0823 8.54794 17.2017V17.6805C8.54794 17.7999 8.64475 17.8967 8.76416 17.8967H15.5064C15.6258 17.8967 15.7226 17.7999 15.7226 17.6805V17.2017C15.7226 17.0823 15.6258 16.9855 15.5064 16.9855Z" fill="white"/>
</mask>
<g mask="url(#mask0_40_2857)">
<path d="M15.5064 16.9855H8.76416C8.64475 16.9855 8.54794 17.0823 8.54794 17.2017V17.6805C8.54794 17.7999 8.64475 17.8967 8.76416 17.8967H15.5064C15.6258 17.8967 15.7226 17.7999 15.7226 17.6805V17.2017C15.7226 17.0823 15.6258 16.9855 15.5064 16.9855Z" fill="url(#paint4_linear_40_2857)" stroke="url(#paint5_linear_40_2857)" stroke-width="2.10732"/>
</g>
<mask id="mask1_40_2857" style="mask-type:alpha" maskUnits="userSpaceOnUse" x="8" y="14" width="8" height="2">
<path d="M15.5064 14.7075H8.76416C8.64475 14.7075 8.54794 14.8043 8.54794 14.9237V15.4025C8.54794 15.522 8.64475 15.6188 8.76416 15.6188H15.5064C15.6258 15.6188 15.7226 15.522 15.7226 15.4025V14.9237C15.7226 14.8043 15.6258 14.7075 15.5064 14.7075Z" fill="white"/>
</mask>
<g mask="url(#mask1_40_2857)">
<path d="M15.5064 14.7075H8.76416C8.64475 14.7075 8.54794 14.8043 8.54794 14.9237V15.4025C8.54794 15.522 8.64475 15.6188 8.76416 15.6188H15.5064C15.6258 15.6188 15.7226 15.522 15.7226 15.4025V14.9237C15.7226 14.8043 15.6258 14.7075 15.5064 14.7075Z" fill="url(#paint6_linear_40_2857)" stroke="url(#paint7_linear_40_2857)" stroke-width="2"/>
</g>
<defs>
<linearGradient id="paint0_linear_40_2857" x1="7.31758" y1="0.0520191" x2="20.6832" y2="17.4308" gradientUnits="userSpaceOnUse">
<stop stop-color="#FCFCFC"/>
<stop offset="0.95" stop-color="#C3C9CD"/>
</linearGradient>
<linearGradient id="paint1_linear_40_2857" x1="6.58136" y1="0.920414" x2="11.0975" y2="13.8645" gradientUnits="userSpaceOnUse">
<stop stop-color="#FCFCFC"/>
<stop offset="0.95" stop-color="#C3C9CD"/>
</linearGradient>
<linearGradient id="paint2_linear_40_2857" x1="6.58136" y1="0.920414" x2="11.0975" y2="13.8645" gradientUnits="userSpaceOnUse">
<stop stop-color="#FCFCFC"/>
<stop offset="0.95" stop-color="#C3C9CD"/>
</linearGradient>
<linearGradient id="paint3_linear_40_2857" x1="9.23953" y1="12.4639" x2="9.62102" y2="14.3312" gradientUnits="userSpaceOnUse">
<stop stop-color="#A1AAB3"/>
<stop offset="1" stop-color="#8F979E"/>
</linearGradient>
<linearGradient id="paint4_linear_40_2857" x1="9.23953" y1="17.0199" x2="9.62103" y2="18.8873" gradientUnits="userSpaceOnUse">
<stop stop-color="#A1AAB3"/>
<stop offset="1" stop-color="#8F979E"/>
</linearGradient>
<linearGradient id="paint5_linear_40_2857" x1="9.23953" y1="17.0199" x2="9.62103" y2="18.8873" gradientUnits="userSpaceOnUse">
<stop stop-color="#A1AAB3"/>
<stop offset="1" stop-color="#8F979E"/>
</linearGradient>
<linearGradient id="paint6_linear_40_2857" x1="9.23953" y1="14.742" x2="9.62102" y2="16.6093" gradientUnits="userSpaceOnUse">
<stop stop-color="#A1AAB3"/>
<stop offset="1" stop-color="#8F979E"/>
</linearGradient>
<linearGradient id="paint7_linear_40_2857" x1="9.23953" y1="14.742" x2="9.62102" y2="16.6093" gradientUnits="userSpaceOnUse">
<stop stop-color="#A1AAB3"/>
<stop offset="1" stop-color="#8F979E"/>
</linearGradient>
</defs>
</svg>
