<svg width="24" height="24" viewBox="0 0 24 24" fill="none" xmlns="http://www.w3.org/2000/svg">
<path d="M18.0465 22H9.67442V5.2558H18.0465C18.5605 5.2558 18.9767 5.67208 18.9767 6.18603V21.0698C18.9767 21.5837 18.5605 22 18.0465 22Z" fill="url(#paint0_linear_40_2883)"/>
<path d="M6.1614 3.4995C6.09582 3.46647 6.02465 3.4502 5.95349 3.4502V20.1944C6.02465 20.1944 6.09582 20.2107 6.1614 20.2437L9.67442 22V5.25578L6.1614 3.4995Z" fill="url(#paint1_linear_40_2883)"/>
<path d="M5.74558 3.49954L2.74698 4.99861C2.43163 5.15628 2.23256 5.47861 2.23256 5.8307V21.2474C2.23256 21.593 2.59628 21.8181 2.90558 21.6633L5.74558 20.2433C5.81116 20.2107 5.88233 20.194 5.95349 20.194V3.44977C5.88233 3.45023 5.81116 3.46651 5.74558 3.49954Z" fill="url(#paint2_linear_40_2883)"/>
<path opacity="0.05" d="M18.9767 6.18603C18.9767 5.67208 18.5605 5.2558 18.0465 5.2558H10.6047C10.306 5.97208 10.1395 6.75719 10.1395 7.58138C10.1395 9.21952 10.794 10.7032 11.8521 11.7925C11.8581 11.7986 15.7112 15.6553 15.7112 15.6553C15.9735 15.9177 16.3991 15.9177 16.6614 15.6553C16.6614 15.6553 17.9023 14.4135 18.9772 13.3377V6.18603H18.9767Z" fill="black"/>
<path opacity="0.07" d="M18.9767 6.18603C18.9767 5.67208 18.5605 5.2558 18.0465 5.2558H10.8609C10.5488 5.96836 10.3721 6.75347 10.3721 7.58138C10.3721 9.15673 11.0065 10.5781 12.0186 11.6302C12.0242 11.6363 15.7293 15.3442 15.7293 15.3442C15.9814 15.5963 16.3907 15.5963 16.6428 15.3442C16.6428 15.3442 17.9228 14.0632 18.9767 13.0084V6.18603Z" fill="black"/>
<path d="M20.1865 11.4684C21.1637 10.4633 21.7674 9.09349 21.7674 7.5814C21.7674 4.49907 19.2684 2 16.186 2C13.1037 2 10.6047 4.49907 10.6047 7.5814C10.6047 9.09349 11.2084 10.4633 12.1856 11.4684C12.1912 11.474 15.7479 15.034 15.7479 15.034C15.9902 15.2763 16.3828 15.2763 16.6251 15.034C16.6247 15.034 20.1814 11.474 20.1865 11.4684Z" fill="url(#paint3_linear_40_2883)"/>
<path d="M16.186 10.186C17.6246 10.186 18.7907 9.01991 18.7907 7.5814C18.7907 6.14289 17.6246 4.97675 16.186 4.97675C14.7475 4.97675 13.5814 6.14289 13.5814 7.5814C13.5814 9.01991 14.7475 10.186 16.186 10.186Z" fill="url(#paint4_radial_40_2883)"/>
<path d="M16.186 9.81399C17.4191 9.81399 18.4186 8.81444 18.4186 7.58144C18.4186 6.34842 17.4191 5.34888 16.186 5.34888C14.953 5.34888 13.9535 6.34842 13.9535 7.58144C13.9535 8.81444 14.953 9.81399 16.186 9.81399Z" fill="#F9F9F9"/>
<defs>
<linearGradient id="paint0_linear_40_2883" x1="11.7353" y1="2.76137" x2="23.6829" y2="12.5052" gradientUnits="userSpaceOnUse">
<stop stop-color="#FCFCFC"/>
<stop offset="0.95" stop-color="#C3C9CD"/>
</linearGradient>
<linearGradient id="paint1_linear_40_2883" x1="7.31293" y1="4.2588" x2="17.4914" y2="15.4862" gradientUnits="userSpaceOnUse">
<stop stop-color="#32BDEF"/>
<stop offset="1" stop-color="#1EA2E4"/>
</linearGradient>
<linearGradient id="paint2_linear_40_2883" x1="3.52428" y1="4.24844" x2="13.0959" y2="16.9241" gradientUnits="userSpaceOnUse">
<stop stop-color="#0D61A9"/>
<stop offset="1" stop-color="#16528C"/>
</linearGradient>
<linearGradient id="paint3_linear_40_2883" x1="12.24" y1="3.63442" x2="20.1321" y2="11.5265" gradientUnits="userSpaceOnUse">
<stop stop-color="#D43A02"/>
<stop offset="1" stop-color="#B9360C"/>
</linearGradient>
<radialGradient id="paint4_radial_40_2883" cx="0" cy="0" r="1" gradientUnits="userSpaceOnUse" gradientTransform="translate(16.1856 7.58114) scale(2.60456)">
<stop offset="0.177"/>
<stop offset="1" stop-opacity="0"/>
</radialGradient>
</defs>
</svg>
