<svg width="24" height="24" viewBox="0 0 24 24" fill="none" xmlns="http://www.w3.org/2000/svg">
<path d="M11.2791 4.23364L10.1264 3.08091C9.87091 2.82546 9.52409 2.68182 9.16227 2.68182H2.90909C2.40682 2.68182 2 3.08864 2 3.59091V6.54546L2.90909 16.3182C2.90909 16.8205 3.31591 17.2273 3.81818 17.2273H18.3636C18.8659 17.2273 19.2727 16.8205 19.2727 16.3182V5.86364C19.2727 5.36137 18.8659 4.95455 18.3636 4.95455L11.9218 4.50001C11.6809 4.50001 11.4495 4.4041 11.2791 4.23364Z" fill="url(#paint0_linear_40_2873)"/>
<path d="M9.99364 6.05182L11.4791 4.56636C11.5214 4.52409 11.5791 4.5 11.6395 4.5H19.2727C19.775 4.5 20.1818 4.90682 20.1818 5.40909V17.2273C20.1818 17.7295 19.775 18.1364 19.2727 18.1364H2.90909C2.40682 18.1364 2 17.7295 2 17.2273V6.54545C2 6.42 2.10182 6.31818 2.22727 6.31818H9.35091C9.59182 6.31818 9.82318 6.22227 9.99364 6.05182Z" fill="url(#paint1_linear_40_2873)"/>
<path opacity="0.05" d="M20.6364 12.9727V18.1364H11.55L11.5545 17.2273C11.5636 17.0591 11.5909 16.9318 11.6364 16.8136L12.9273 13.5455C13.1318 13.0227 13.6318 12.6818 14.1954 12.6818H19.8C20.1136 12.6818 20.4045 12.7864 20.6364 12.9727Z" fill="url(#paint2_linear_40_2873)"/>
<path opacity="0.07" d="M20.6364 13.2818V18.1364H11.7773L11.7818 17.2273C11.7909 17.0955 11.8136 16.9909 11.85 16.8955L13.1409 13.6273C13.3091 13.1909 13.7273 12.9091 14.1954 12.9091H19.8C20.1273 12.9091 20.4318 13.05 20.6364 13.2818Z" fill="url(#paint3_linear_40_2873)"/>
<path d="M22 17.2273H12V20.4091C12 20.9114 12.4068 21.3182 12.9091 21.3182H21.0909C21.5932 21.3182 22 20.9114 22 20.4091V17.2273Z" fill="url(#paint4_linear_40_2873)"/>
<path d="M21.1486 18.1364H12.8468C12.2505 18.1364 11.8414 17.5354 12.0605 16.9804L13.35 13.7118C13.4873 13.3645 13.8227 13.1364 14.1959 13.1364H19.7995C20.1727 13.1364 20.5082 13.3645 20.645 13.7118L21.9345 16.9804C22.1536 17.5354 21.745 18.1364 21.1486 18.1364Z" fill="url(#paint5_linear_40_2873)"/>
<path d="M19.5 20.8637C20.1276 20.8637 20.6364 20.3549 20.6364 19.7273C20.6364 19.0997 20.1276 18.5909 19.5 18.5909C18.8724 18.5909 18.3636 19.0997 18.3636 19.7273C18.3636 20.3549 18.8724 20.8637 19.5 20.8637Z" fill="url(#paint6_radial_40_2873)"/>
<path d="M19.5 20.4091C19.8765 20.4091 20.1818 20.1038 20.1818 19.7273C20.1818 19.3507 19.8765 19.0455 19.5 19.0455C19.1235 19.0455 18.8182 19.3507 18.8182 19.7273C18.8182 20.1038 19.1235 20.4091 19.5 20.4091Z" fill="url(#paint7_linear_40_2873)"/>
<defs>
<linearGradient id="paint0_linear_40_2873" x1="10.6364" y1="2.55682" x2="10.6364" y2="6.09455" gradientUnits="userSpaceOnUse">
<stop stop-color="#EBA600"/>
<stop offset="1" stop-color="#C28200"/>
</linearGradient>
<linearGradient id="paint1_linear_40_2873" x1="11.0909" y1="4.43364" x2="11.0909" y2="18.1286" gradientUnits="userSpaceOnUse">
<stop stop-color="#FFD869"/>
<stop offset="1" stop-color="#FEC52B"/>
</linearGradient>
<linearGradient id="paint2_linear_40_2873" x1="16.0932" y1="18.1364" x2="16.0932" y2="12.7241" gradientUnits="userSpaceOnUse">
<stop stop-color="#737B80"/>
<stop offset="1"/>
</linearGradient>
<linearGradient id="paint3_linear_40_2873" x1="16.2068" y1="18.1364" x2="16.2068" y2="12.9496" gradientUnits="userSpaceOnUse">
<stop stop-color="#737B80"/>
<stop offset="1"/>
</linearGradient>
<linearGradient id="paint4_linear_40_2873" x1="17" y1="17.2555" x2="17" y2="21.4887" gradientUnits="userSpaceOnUse">
<stop stop-color="#C3CDD9"/>
<stop offset="1" stop-color="#9FA7B0"/>
</linearGradient>
<linearGradient id="paint5_linear_40_2873" x1="16.9977" y1="18.1364" x2="16.9977" y2="13.175" gradientUnits="userSpaceOnUse">
<stop stop-color="#737B80"/>
<stop offset="1" stop-color="#575C61"/>
</linearGradient>
<radialGradient id="paint6_radial_40_2873" cx="0" cy="0" r="1" gradientUnits="userSpaceOnUse" gradientTransform="translate(19.5 19.7273) scale(1.13636)">
<stop/>
<stop offset="1" stop-color="#A6A6A6" stop-opacity="0"/>
</radialGradient>
<linearGradient id="paint7_linear_40_2873" x1="19.5" y1="18.9318" x2="19.5" y2="20.4114" gradientUnits="userSpaceOnUse">
<stop stop-color="#75FF8A"/>
<stop offset="1" stop-color="#1EE446"/>
</linearGradient>
</defs>
</svg>
