<svg width="24" height="24" viewBox="0 0 24 24" fill="none" xmlns="http://www.w3.org/2000/svg">
<path d="M20.6932 5.18182H3.30682C2.585 5.18182 2 5.76682 2 6.48864V17.5114C2 18.2332 2.585 18.8182 3.30682 18.8182H20.6932C21.415 18.8182 22 18.2332 22 17.5114V6.48864C22 5.76682 21.415 5.18182 20.6932 5.18182Z" fill="url(#paint0_linear_40_2912)"/>
<path d="M22 7.45453H2V9.27271H22V7.45453Z" fill="url(#paint1_linear_40_2912)"/>
<path d="M20.1818 12H3.81818C3.56727 12 3.36364 11.7964 3.36364 11.5455V10.6364C3.36364 10.3855 3.56727 10.1818 3.81818 10.1818H20.1818C20.4327 10.1818 20.6364 10.3855 20.6364 10.6364V11.5455C20.6364 11.7964 20.4327 12 20.1818 12Z" fill="#A8E7FF"/>
<path d="M16.7727 17.4545C17.6514 17.4545 18.3636 16.7423 18.3636 15.8636C18.3636 14.985 17.6514 14.2727 16.7727 14.2727C15.8941 14.2727 15.1818 14.985 15.1818 15.8636C15.1818 16.7423 15.8941 17.4545 16.7727 17.4545Z" fill="#CF1928"/>
<path d="M18.83 17.4545C19.7086 17.4545 20.4209 16.7423 20.4209 15.8636C20.4209 14.985 19.7086 14.2727 18.83 14.2727C17.9514 14.2727 17.2391 14.985 17.2391 15.8636C17.2391 16.7423 17.9514 17.4545 18.83 17.4545Z" fill="url(#paint2_linear_40_2912)"/>
<path d="M17.2391 15.8637C17.2391 16.35 17.4577 16.7846 17.8014 17.0764C18.145 16.7846 18.3636 16.35 18.3636 15.8637C18.3636 15.3773 18.145 14.9428 17.8014 14.6509C17.4577 14.9428 17.2391 15.3773 17.2391 15.8637Z" fill="#D97218"/>
<defs>
<linearGradient id="paint0_linear_40_2912" x1="10.3523" y1="6.11864" x2="14.1582" y2="19.7027" gradientUnits="userSpaceOnUse">
<stop stop-color="#32BDEF"/>
<stop offset="1" stop-color="#1EA2E4"/>
</linearGradient>
<linearGradient id="paint1_linear_40_2912" x1="2" y1="8.36362" x2="22" y2="8.36362" gradientUnits="userSpaceOnUse">
<stop stop-color="#45494D"/>
<stop offset="1" stop-color="#6D7479"/>
</linearGradient>
<linearGradient id="paint2_linear_40_2912" x1="17.2391" y1="15.8636" x2="20.4209" y2="15.8636" gradientUnits="userSpaceOnUse">
<stop stop-color="#FEDE00"/>
<stop offset="1" stop-color="#FFD000"/>
</linearGradient>
</defs>
</svg>
