<svg width="24" height="24" viewBox="0 0 24 24" fill="none" xmlns="http://www.w3.org/2000/svg">
<path d="M12.1971 5.5305L10.9895 4.32288C10.7219 4.05526 10.3586 3.90479 9.97952 3.90479H2.95238C2.42619 3.90479 2 4.33098 2 4.85717V19.1429C2 19.6691 2.42619 20.0953 2.95238 20.0953H21.0476C21.5738 20.0953 22 19.6691 22 19.1429V6.76193C22 6.23574 21.5738 5.80955 21.0476 5.80955H12.8705C12.6181 5.80955 12.3757 5.70907 12.1971 5.5305Z" fill="url(#paint0_linear_40_2920)"/>
<path d="M10.8505 7.43528L12.4067 5.87909C12.451 5.83481 12.5114 5.80957 12.5748 5.80957H21.0476C21.5738 5.80957 22 6.23576 22 6.76195V19.1429C22 19.6691 21.5738 20.0953 21.0476 20.0953H2.95238C2.42619 20.0953 2 19.6691 2 19.1429V7.95243C2 7.821 2.10667 7.71433 2.2381 7.71433H10.1771C10.4295 7.71433 10.6719 7.61386 10.8505 7.43528Z" fill="url(#paint1_linear_40_2920)"/>
<path d="M13.4286 10.8096V11.2858C13.4286 11.4172 13.5352 11.5239 13.6667 11.5239H17C17.1314 11.5239 17.2381 11.4172 17.2381 11.2858V10.8096C17.2381 10.6781 17.1314 10.5715 17 10.5715H13.6667C13.5352 10.5715 13.4286 10.6781 13.4286 10.8096Z" fill="url(#paint2_linear_40_2920)"/>
<path d="M13.4286 15.5715V16.0477C13.4286 16.1791 13.5352 16.2858 13.6667 16.2858H17C17.1314 16.2858 17.2381 16.1791 17.2381 16.0477V15.5715C17.2381 15.44 17.1314 15.3334 17 15.3334H13.6667C13.5352 15.3334 13.4286 15.44 13.4286 15.5715Z" fill="url(#paint3_linear_40_2920)"/>
<path d="M13.4286 17.4762V17.9524C13.4286 18.0838 13.5352 18.1905 13.6667 18.1905H17C17.1314 18.1905 17.2381 18.0838 17.2381 17.9524V17.4762C17.2381 17.3448 17.1314 17.2381 17 17.2381H13.6667C13.5352 17.2381 13.4286 17.3448 13.4286 17.4762Z" fill="url(#paint4_linear_40_2920)"/>
<path d="M8.90476 9.14288H8.42857C8.29714 9.14288 8.19048 9.24955 8.19048 9.38098V10.5715H7C6.86857 10.5715 6.7619 10.6781 6.7619 10.8095V11.2857C6.7619 11.4172 6.86857 11.5238 7 11.5238H8.19048V12.7143C8.19048 12.8457 8.29714 12.9524 8.42857 12.9524H8.90476C9.03619 12.9524 9.14286 12.8457 9.14286 12.7143V11.5238H10.3333C10.4648 11.5238 10.5714 11.4172 10.5714 11.2857V10.8095C10.5714 10.6781 10.4648 10.5715 10.3333 10.5715H9.14286V9.38098C9.14286 9.24955 9.03619 9.14288 8.90476 9.14288Z" fill="url(#paint5_linear_40_2920)"/>
<path d="M9.50857 15.2472L8.66667 16.0886L7.82476 15.2467C7.7319 15.1538 7.58095 15.1538 7.48809 15.2467L7.15143 15.5834C7.05857 15.6762 7.05857 15.8272 7.15143 15.92L7.99333 16.7619L7.15143 17.6038C7.05857 17.6967 7.05857 17.8477 7.15143 17.9405L7.48809 18.2772C7.58095 18.37 7.7319 18.37 7.82476 18.2772L8.66667 17.4353L9.50857 18.2772C9.60143 18.37 9.75238 18.37 9.84524 18.2772L10.1819 17.9405C10.2748 17.8477 10.2748 17.6967 10.1819 17.6038L9.34 16.7619L10.1819 15.92C10.2748 15.8272 10.2748 15.6762 10.1819 15.5834L9.84524 15.2467C9.7519 15.1538 9.60143 15.1538 9.50857 15.2472Z" fill="url(#paint6_linear_40_2920)"/>
<defs>
<linearGradient id="paint0_linear_40_2920" x1="12" y1="3.76574" x2="12" y2="7.70336" gradientUnits="userSpaceOnUse">
<stop stop-color="#EBA600"/>
<stop offset="1" stop-color="#C28200"/>
</linearGradient>
<linearGradient id="paint1_linear_40_2920" x1="12" y1="5.74005" x2="12" y2="20.0872" gradientUnits="userSpaceOnUse">
<stop stop-color="#FFD869"/>
<stop offset="1" stop-color="#FEC52B"/>
</linearGradient>
<linearGradient id="paint2_linear_40_2920" x1="13.4584" y1="10.583" x2="13.8522" y2="12.0898" gradientUnits="userSpaceOnUse">
<stop stop-color="#33BEF0"/>
<stop offset="1" stop-color="#0A85D9"/>
</linearGradient>
<linearGradient id="paint3_linear_40_2920" x1="15.3333" y1="15.3314" x2="15.3333" y2="16.2823" gradientUnits="userSpaceOnUse">
<stop stop-color="#2AA4F4"/>
<stop offset="1" stop-color="#007AD9"/>
</linearGradient>
<linearGradient id="paint4_linear_40_2920" x1="15.3333" y1="17.2361" x2="15.3333" y2="18.1871" gradientUnits="userSpaceOnUse">
<stop stop-color="#2AA4F4"/>
<stop offset="1" stop-color="#007AD9"/>
</linearGradient>
<linearGradient id="paint5_linear_40_2920" x1="6.79172" y1="9.18894" x2="10.0081" y2="12.2655" gradientUnits="userSpaceOnUse">
<stop stop-color="#33BEF0"/>
<stop offset="1" stop-color="#0A85D9"/>
</linearGradient>
<linearGradient id="paint6_linear_40_2920" x1="7.10659" y1="15.2154" x2="9.78283" y2="17.7753" gradientUnits="userSpaceOnUse">
<stop stop-color="#33BEF0"/>
<stop offset="1" stop-color="#0A85D9"/>
</linearGradient>
</defs>
</svg>
