<svg width="24" height="24" viewBox="0 0 24 24" fill="none" xmlns="http://www.w3.org/2000/svg">
<path d="M21.1667 11.1589H2.83333C2.375 11.1589 2 10.7839 2 10.3255V7.82552C2 7.36719 2.375 6.99219 2.83333 6.99219H21.1667C21.625 6.99219 22 7.36719 22 7.82552V10.3255C22 10.7839 21.625 11.1589 21.1667 11.1589Z" fill="url(#paint0_linear_40_2966)"/>
<path opacity="0.05" d="M11.5833 10.3255C11.125 10.3255 10.75 9.9505 10.75 9.49217V8.65883C10.75 8.2005 11.125 7.8255 11.5833 7.8255H12.4167C12.875 7.8255 13.25 8.2005 13.25 8.65883V9.49217C13.25 9.9505 12.875 10.3255 12.4167 10.3255H11.5833Z" fill="black"/>
<path opacity="0.07" d="M11.5833 10.1172C11.25 10.1172 10.9583 9.82554 10.9583 9.49221V8.65887C10.9583 8.32554 11.25 8.03387 11.5833 8.03387H12.4167C12.75 8.03387 13.0417 8.32554 13.0417 8.65887V9.49221C13.0417 9.82554 12.75 10.1172 12.4167 10.1172H11.5833Z" fill="black"/>
<path d="M12.4167 9.90885H11.5833C11.3333 9.90885 11.1667 9.74219 11.1667 9.49219V8.65885C11.1667 8.40885 11.3333 8.24219 11.5833 8.24219H12.4167C12.6667 8.24219 12.8333 8.40885 12.8333 8.65885V9.49219C12.8333 9.74219 12.6667 9.90885 12.4167 9.90885Z" fill="white"/>
<path opacity="0.05" d="M15.3333 10.3255C14.875 10.3255 14.5 9.9505 14.5 9.49217V8.65883C14.5 8.2005 14.875 7.8255 15.3333 7.8255H16.1667C16.625 7.8255 17 8.2005 17 8.65883V9.49217C17 9.9505 16.625 10.3255 16.1667 10.3255H15.3333Z" fill="black"/>
<path opacity="0.07" d="M15.3333 10.1172C15 10.1172 14.7083 9.82554 14.7083 9.49221V8.65887C14.7083 8.32554 15 8.03387 15.3333 8.03387H16.1667C16.5 8.03387 16.7917 8.32554 16.7917 8.65887V9.49221C16.7917 9.82554 16.5 10.1172 16.1667 10.1172H15.3333Z" fill="black"/>
<path d="M16.1667 9.90885H15.3333C15.0833 9.90885 14.9167 9.74219 14.9167 9.49219V8.65885C14.9167 8.40885 15.0833 8.24219 15.3333 8.24219H16.1667C16.4167 8.24219 16.5833 8.40885 16.5833 8.65885V9.49219C16.5833 9.74219 16.4167 9.90885 16.1667 9.90885Z" fill="white"/>
<path opacity="0.05" d="M19.0833 10.3255C18.625 10.3255 18.25 9.9505 18.25 9.49217V8.65883C18.25 8.2005 18.625 7.8255 19.0833 7.8255H19.9167C20.375 7.8255 20.75 8.2005 20.75 8.65883V9.49217C20.75 9.9505 20.375 10.3255 19.9167 10.3255H19.0833Z" fill="black"/>
<path opacity="0.07" d="M19.0833 10.1172C18.75 10.1172 18.4583 9.82554 18.4583 9.49221V8.65887C18.4583 8.32554 18.75 8.03387 19.0833 8.03387H19.9167C20.25 8.03387 20.5417 8.32554 20.5417 8.65887V9.49221C20.5417 9.82554 20.25 10.1172 19.9167 10.1172H19.0833Z" fill="black"/>
<path d="M19.9167 9.90885H19.0833C18.8333 9.90885 18.6667 9.74219 18.6667 9.49219V8.65885C18.6667 8.40885 18.8333 8.24219 19.0833 8.24219H19.9167C20.1667 8.24219 20.3333 8.40885 20.3333 8.65885V9.49219C20.3333 9.74219 20.1667 9.90885 19.9167 9.90885Z" fill="white"/>
<path opacity="0.05" d="M4.08333 10.3255C3.625 10.3255 3.25 9.9505 3.25 9.49217V8.65883C3.25 8.2005 3.625 7.8255 4.08333 7.8255H4.91667C5.375 7.8255 5.75 8.2005 5.75 8.65883V9.49217C5.75 9.9505 5.375 10.3255 4.91667 10.3255H4.08333Z" fill="black"/>
<path opacity="0.07" d="M4.08334 10.1172C3.75 10.1172 3.45834 9.82554 3.45834 9.49221V8.65887C3.45834 8.32554 3.75 8.03387 4.08334 8.03387H4.91667C5.25 8.03387 5.54167 8.32554 5.54167 8.65887V9.49221C5.54167 9.82554 5.25 10.1172 4.91667 10.1172H4.08334Z" fill="black"/>
<path d="M4.91666 9.90885H4.08333C3.83333 9.90885 3.66666 9.74219 3.66666 9.49219V8.65885C3.66666 8.40885 3.83333 8.24219 4.08333 8.24219H4.91666C5.16666 8.24219 5.33333 8.40885 5.33333 8.65885V9.49219C5.33333 9.74219 5.16666 9.90885 4.91666 9.90885Z" fill="white"/>
<path opacity="0.05" d="M7.83333 10.3255C7.375 10.3255 7 9.9505 7 9.49217V8.65883C7 8.2005 7.375 7.8255 7.83333 7.8255H8.66667C9.125 7.8255 9.5 8.2005 9.5 8.65883V9.49217C9.5 9.9505 9.125 10.3255 8.66667 10.3255H7.83333Z" fill="black"/>
<path opacity="0.07" d="M7.83334 10.1172C7.5 10.1172 7.20834 9.82554 7.20834 9.49221V8.65887C7.20834 8.32554 7.5 8.03387 7.83334 8.03387H8.66667C9 8.03387 9.29167 8.32554 9.29167 8.65887V9.49221C9.29167 9.82554 9 10.1172 8.66667 10.1172H7.83334Z" fill="black"/>
<path d="M8.66666 9.90885H7.83333C7.58333 9.90885 7.41666 9.74219 7.41666 9.49219V8.65885C7.41666 8.40885 7.58333 8.24219 7.83333 8.24219H8.66666C8.91666 8.24219 9.08333 8.40885 9.08333 8.65885V9.49219C9.08333 9.74219 8.91666 9.90885 8.66666 9.90885Z" fill="white"/>
<path d="M12.4167 9.45054V15.7005C12.4167 15.8672 12.625 15.9922 12.7917 15.8672L14.25 14.6589L15.2083 16.8672C15.25 16.9922 15.375 17.0339 15.5 16.9922L15.875 16.8255L12.5833 9.28387C12.4583 9.28387 12.4167 9.36721 12.4167 9.45054Z" fill="url(#paint1_linear_40_2966)"/>
<path d="M16.3333 16.3672L15.375 14.2006L17.0417 14.0339C17.2083 14.0339 17.2917 13.7839 17.1667 13.6589L12.7917 9.28388C12.7083 9.20055 12.625 9.20055 12.5417 9.24221L15.8333 16.7839L16.2083 16.6172C16.3333 16.6172 16.375 16.4922 16.3333 16.3672Z" fill="url(#paint2_linear_40_2966)"/>
<path d="M16.3333 16.3672L15.375 14.2006L17.0417 14.0339C17.2083 14.0339 17.2917 13.7839 17.1667 13.6589L12.7917 9.28388C12.7083 9.20055 12.625 9.20055 12.5417 9.24221L15.8333 16.7839L16.2083 16.6172C16.3333 16.6172 16.375 16.4922 16.3333 16.3672Z" fill="url(#paint3_linear_40_2966)"/>
<defs>
<linearGradient id="paint0_linear_40_2966" x1="8.943" y1="7.1744" x2="9.08839" y2="11.7106" gradientUnits="userSpaceOnUse">
<stop stop-color="#0D61A9"/>
<stop offset="1" stop-color="#16528C"/>
</linearGradient>
<linearGradient id="paint1_linear_40_2966" x1="13.6802" y1="9.62057" x2="16.6496" y2="16.9317" gradientUnits="userSpaceOnUse">
<stop stop-color="#32BDEF"/>
<stop offset="1" stop-color="#1EA2E4"/>
</linearGradient>
<linearGradient id="paint2_linear_40_2966" x1="13.925" y1="9.29513" x2="16.8196" y2="15.9818" gradientUnits="userSpaceOnUse">
<stop stop-color="#46DFF9"/>
<stop offset="1" stop-color="#07D6F9"/>
</linearGradient>
<linearGradient id="paint3_linear_40_2966" x1="13.5797" y1="8.08726" x2="19.0679" y2="13.0743" gradientUnits="userSpaceOnUse">
<stop stop-color="#FCFCFC"/>
<stop offset="0.95" stop-color="#C3C9CD"/>
</linearGradient>
</defs>
</svg>
