<svg width="24" height="24" viewBox="0 0 24 24" fill="none" xmlns="http://www.w3.org/2000/svg">
<path d="M15.1818 4.27271H4.27273V19.7273C4.27273 20.2295 4.67954 20.6363 5.18182 20.6363H14.2727C14.775 20.6363 15.1818 20.2295 15.1818 19.7273V4.27271Z" fill="#1B9DE2"/>
<path opacity="0.05" d="M15.1818 19.7273V14.2727H10.6364C10.135 14.2727 9.72727 14.6804 9.72727 15.1818V20.6363H11.5455H14.2727C14.775 20.6363 15.1818 20.2295 15.1818 19.7273Z" fill="black"/>
<path opacity="0.07" d="M11.3182 20.4091H14.8686C15.0591 20.2423 15.1818 20.0005 15.1818 19.7273V14.5H10.6364C10.2605 14.5 9.95455 14.8059 9.95455 15.1818V20.6364H11.3182V20.4091Z" fill="black"/>
<path d="M15.1818 4.27273H4.27273V2.90909C4.27273 2.40682 4.67954 2 5.18182 2H14.2727C14.775 2 15.1818 2.40682 15.1818 2.90909V4.27273Z" fill="url(#paint0_linear_40_3045)"/>
<path d="M7.90909 3.47729C8.09736 3.47729 8.25 3.32466 8.25 3.13638C8.25 2.9481 8.09736 2.79547 7.90909 2.79547C7.72081 2.79547 7.56818 2.9481 7.56818 3.13638C7.56818 3.32466 7.72081 3.47729 7.90909 3.47729Z" fill="#0077D2"/>
<path d="M11.3182 2.79547C11.23 2.79547 9.13364 2.79547 9.04546 2.79547C8.85727 2.79547 8.70455 2.9482 8.70455 3.13638C8.70455 3.32456 8.85727 3.47729 9.04546 3.47729C9.13364 3.47729 11.23 3.47729 11.3182 3.47729C11.5064 3.47729 11.6591 3.32456 11.6591 3.13638C11.6591 2.9482 11.5064 2.79547 11.3182 2.79547Z" fill="#0077D2"/>
<path d="M14.7273 6.54547H4.72727L3.36364 7.90911V8.36365C3.36364 8.86593 3.77045 9.27274 4.27273 9.27274H15.1818C15.6841 9.27274 16.0909 8.86593 16.0909 8.36365V7.90911L14.7273 6.54547Z" fill="url(#paint1_linear_40_3045)"/>
<path d="M15.1818 4.27271H4.27273L3.36364 7.90907H16.0909L15.1818 4.27271Z" fill="#0077D2"/>
<path d="M11.0909 22H10.6364C10.3855 22 10.1818 21.7964 10.1818 21.5455V20.6077H11.0909V22Z" fill="#52BF8D"/>
<path d="M19.7273 14.7273H11.0909V20.1818H19.7273V14.7273Z" fill="#33C481"/>
<path d="M11.0909 21.0909H10.6364C10.3855 21.0909 10.1818 20.8873 10.1818 20.6364V19.6332H11.0909V21.0909Z" fill="#59D19A"/>
<path d="M11.0909 20.1818H10.6364C10.3855 20.1818 10.1818 19.9782 10.1818 19.7273V15.1818C10.1818 14.9309 10.3855 14.7273 10.6364 14.7273H11.0909V20.1818Z" fill="#61E3A7"/>
<path d="M19.7273 20.1818H11.0909V21.0909H19.7273V20.1818Z" fill="#21A366"/>
<path d="M19.7273 21.0909H11.0909V22H19.7273V21.0909Z" fill="url(#paint2_linear_40_3045)"/>
<path d="M13.8182 19.2727C14.8224 19.2727 15.6364 18.4587 15.6364 17.4545C15.6364 16.4504 14.8224 15.6364 13.8182 15.6364C12.814 15.6364 12 16.4504 12 17.4545C12 18.4587 12.814 19.2727 13.8182 19.2727Z" fill="#61E3A7"/>
<path d="M16.5455 19.2727C16.7965 19.2727 17 19.0692 17 18.8182C17 18.5672 16.7965 18.3636 16.5455 18.3636C16.2945 18.3636 16.0909 18.5672 16.0909 18.8182C16.0909 19.0692 16.2945 19.2727 16.5455 19.2727Z" fill="#61E3A7"/>
<path d="M18.3636 19.2727C18.6146 19.2727 18.8182 19.0692 18.8182 18.8182C18.8182 18.5672 18.6146 18.3636 18.3636 18.3636C18.1126 18.3636 17.9091 18.5672 17.9091 18.8182C17.9091 19.0692 18.1126 19.2727 18.3636 19.2727Z" fill="#61E3A7"/>
<path d="M20.1818 22H19.7273V20.6077H20.6364V21.5455C20.6364 21.7964 20.4327 22 20.1818 22Z" fill="#52BF8D"/>
<path d="M20.1818 21.0909H19.7273V19.6332H20.6364V20.6364C20.6364 20.8873 20.4327 21.0909 20.1818 21.0909Z" fill="#59D19A"/>
<path d="M20.1818 20.1818H19.7273V14.7273H20.1818C20.4327 14.7273 20.6364 14.9309 20.6364 15.1818V19.7273C20.6364 19.9782 20.4327 20.1818 20.1818 20.1818Z" fill="#61E3A7"/>
<defs>
<linearGradient id="paint0_linear_40_3045" x1="8.05982" y1="2.09939" x2="8.13909" y2="4.57366" gradientUnits="userSpaceOnUse">
<stop stop-color="#0D61A9"/>
<stop offset="1" stop-color="#16528C"/>
</linearGradient>
<linearGradient id="paint1_linear_40_3045" x1="7.78191" y1="6.66473" x2="7.87979" y2="9.63365" gradientUnits="userSpaceOnUse">
<stop stop-color="#0D61A9"/>
<stop offset="1" stop-color="#16528C"/>
</linearGradient>
<linearGradient id="paint2_linear_40_3045" x1="12.3557" y1="21.2241" x2="12.4895" y2="22.4956" gradientUnits="userSpaceOnUse">
<stop stop-color="#21AD64"/>
<stop offset="1" stop-color="#088242"/>
</linearGradient>
</defs>
</svg>
