<svg width="24" height="24" viewBox="0 0 24 24" fill="none" xmlns="http://www.w3.org/2000/svg">
<path d="M10.3333 11.4444H3.11111C2.49722 11.4444 2 10.9472 2 10.3333V3.11111C2 2.49722 2.49722 2 3.11111 2H10.3333C10.9472 2 11.4444 2.49722 11.4444 3.11111V10.3333C11.4444 10.9472 10.9472 11.4444 10.3333 11.4444Z" fill="url(#paint0_linear_40_3112)"/>
<path d="M2 3.11108H8.38889C8.54222 3.11108 8.66667 3.23553 8.66667 3.38886V3.94442C8.66667 4.09775 8.54222 4.2222 8.38889 4.2222H2V3.11108Z" fill="#057093"/>
<path d="M2 5.88892H8.38889C8.54222 5.88892 8.66667 6.01336 8.66667 6.16669V6.72225C8.66667 6.87558 8.54222 7.00003 8.38889 7.00003H2V5.88892Z" fill="#057093"/>
<path d="M12.5556 10.395V3.04944C12.5556 2.47 13.0256 2 13.605 2H20.9506C21.53 2 22 2.47 22 3.04944V10.395C22 10.9744 21.53 11.4444 20.9506 11.4444H13.605C13.0256 11.4444 12.5556 10.9744 12.5556 10.395Z" fill="url(#paint1_linear_40_3112)"/>
<path d="M22 4.2222H15.6111C15.4578 4.2222 15.3333 4.09775 15.3333 3.94442V3.38886C15.3333 3.23553 15.4578 3.11108 15.6111 3.11108H22V4.2222Z" fill="#057093"/>
<path d="M22 7.00003H15.6111C15.4578 7.00003 15.3333 6.87558 15.3333 6.72225V6.16669C15.3333 6.01336 15.4578 5.88892 15.6111 5.88892H22V7.00003Z" fill="#057093"/>
<path d="M11.4444 13.6667V20.8889C11.4444 21.5028 10.9472 22 10.3333 22H3.11111C2.49722 22 2 21.5028 2 20.8889V13.6667C2 13.0528 2.49722 12.5555 3.11111 12.5555H10.3333C10.9472 12.5555 11.4444 13.0528 11.4444 13.6667Z" fill="url(#paint2_linear_40_3112)"/>
<path d="M2 19.7778H8.38889C8.54222 19.7778 8.66667 19.9022 8.66667 20.0555V20.6111C8.66667 20.7644 8.54222 20.8889 8.38889 20.8889H2V19.7778Z" fill="#057093"/>
<path d="M2 17H8.38889C8.54222 17 8.66667 17.1244 8.66667 17.2778V17.8333C8.66667 17.9867 8.54222 18.1111 8.38889 18.1111H2V17Z" fill="#057093"/>
<path d="M13.6667 12.5555H20.8889C21.5028 12.5555 22 13.0528 22 13.6667V20.8889C22 21.5028 21.5028 22 20.8889 22H13.6667C13.0528 22 12.5556 21.5028 12.5556 20.8889V13.6667C12.5556 13.0528 13.0528 12.5555 13.6667 12.5555Z" fill="url(#paint3_linear_40_3112)"/>
<path d="M22 20.8889H15.6111C15.4578 20.8889 15.3333 20.7644 15.3333 20.6111V20.0555C15.3333 19.9022 15.4578 19.7778 15.6111 19.7778H22V20.8889Z" fill="#057093"/>
<path d="M22 18.1111H15.6111C15.4578 18.1111 15.3333 17.9867 15.3333 17.8333V17.2778C15.3333 17.1244 15.4578 17 15.6111 17H22V18.1111Z" fill="#057093"/>
<defs>
<linearGradient id="paint0_linear_40_3112" x1="4.09233" y1="0.593033" x2="10.4943" y2="9.991" gradientUnits="userSpaceOnUse">
<stop stop-color="#FCFCFC"/>
<stop offset="0.95" stop-color="#C3C9CD"/>
</linearGradient>
<linearGradient id="paint1_linear_40_3112" x1="14.6479" y1="0.593033" x2="21.0499" y2="9.991" gradientUnits="userSpaceOnUse">
<stop stop-color="#FCFCFC"/>
<stop offset="0.95" stop-color="#C3C9CD"/>
</linearGradient>
<linearGradient id="paint2_linear_40_3112" x1="4.09233" y1="11.1485" x2="10.4943" y2="20.5465" gradientUnits="userSpaceOnUse">
<stop stop-color="#FCFCFC"/>
<stop offset="0.95" stop-color="#C3C9CD"/>
</linearGradient>
<linearGradient id="paint3_linear_40_3112" x1="14.6479" y1="11.1485" x2="21.0499" y2="20.5465" gradientUnits="userSpaceOnUse">
<stop stop-color="#FCFCFC"/>
<stop offset="0.95" stop-color="#C3C9CD"/>
</linearGradient>
</defs>
</svg>
