<svg width="24" height="24" viewBox="0 0 24 24" fill="none" xmlns="http://www.w3.org/2000/svg">
<path d="M6.44444 21.4444C6.44444 21.7511 6.69333 22 7 22H20.8889C21.5028 22 22 21.5028 22 20.8889V3.11111C22 2.49722 21.5028 2 20.8889 2H7C6.69333 2 6.44444 2.24889 6.44444 2.55556V21.4444Z" fill="url(#paint0_linear_40_3161)"/>
<path d="M9.77778 2H3.11111C2.49722 2 2 2.49722 2 3.11111V20.8889C2 21.5028 2.49722 22 3.11111 22H9.77778V2Z" fill="url(#paint1_linear_40_3161)"/>
<path d="M4.22223 3.11108C3.60834 3.11108 3.11111 3.60831 3.11111 4.2222C3.11111 4.83608 3.60834 5.33331 4.22223 5.33331C4.83611 5.33331 5.33334 4.83608 5.33334 4.2222C5.33334 3.60831 4.83611 3.11108 4.22223 3.11108Z" fill="url(#paint2_linear_40_3161)"/>
<path d="M7.55555 3.11108C6.94166 3.11108 6.44444 3.60831 6.44444 4.2222C6.44444 4.83608 6.94166 5.33331 7.55555 5.33331C8.16944 5.33331 8.66667 4.83608 8.66667 4.2222C8.66667 3.60831 8.16944 3.11108 7.55555 3.11108Z" fill="url(#paint3_linear_40_3161)"/>
<path d="M8.38889 7.55557H3.38889C3.23556 7.55557 3.11111 7.43112 3.11111 7.27779V6.72224C3.11111 6.5689 3.23556 6.44446 3.38889 6.44446H8.38889C8.54223 6.44446 8.66667 6.5689 8.66667 6.72224V7.27779C8.66667 7.43112 8.54223 7.55557 8.38889 7.55557Z" fill="url(#paint4_linear_40_3161)"/>
<defs>
<linearGradient id="paint0_linear_40_3161" x1="9.89067" y1="-0.979459" x2="24.332" y2="15.5091" gradientUnits="userSpaceOnUse">
<stop stop-color="#FCFCFC"/>
<stop offset="0.95" stop-color="#C3C9CD"/>
</linearGradient>
<linearGradient id="paint1_linear_40_3161" x1="12.8139" y1="21.5528" x2="0.898888" y2="4.46056" gradientUnits="userSpaceOnUse">
<stop stop-color="#1951A8"/>
<stop offset="0.175" stop-color="#1955B0"/>
<stop offset="0.505" stop-color="#195AB9"/>
<stop offset="1" stop-color="#195BBC"/>
</linearGradient>
<linearGradient id="paint2_linear_40_3161" x1="3.923" y1="3.20795" x2="4.35435" y2="5.57995" gradientUnits="userSpaceOnUse">
<stop stop-color="#32BDEF"/>
<stop offset="1" stop-color="#1EA2E4"/>
</linearGradient>
<linearGradient id="paint3_linear_40_3161" x1="6.60111" y1="3.26775" x2="8.18389" y2="4.85053" gradientUnits="userSpaceOnUse">
<stop stop-color="#9DFFCE"/>
<stop offset="1" stop-color="#50D18D"/>
</linearGradient>
<linearGradient id="paint4_linear_40_3161" x1="3.11111" y1="7.00001" x2="8.66667" y2="7.00001" gradientUnits="userSpaceOnUse">
<stop stop-color="#7DD8F3"/>
<stop offset="1" stop-color="#45B0D0"/>
</linearGradient>
</defs>
</svg>
