<svg width="24" height="24" viewBox="0 0 24 24" fill="none" xmlns="http://www.w3.org/2000/svg">
<path d="M12 22C17.5225 22 22 17.5225 22 12C22 6.4775 17.5225 2 12 2C6.4775 2 2 6.4775 2 12C2 17.5225 6.4775 22 12 22Z" fill="url(#paint0_linear_40_3186)"/>
<path d="M8 13C9.10457 13 10 12.1046 10 11C10 9.89543 9.10457 9 8 9C6.89543 9 6 9.89543 6 11C6 12.1046 6.89543 13 8 13Z" fill="white"/>
<path d="M16 13C17.1046 13 18 12.1046 18 11C18 9.89543 17.1046 9 16 9C14.8954 9 14 9.89543 14 11C14 12.1046 14.8954 13 16 13Z" fill="white"/>
<path d="M8 12C8.55228 12 9 11.5523 9 11C9 10.4477 8.55228 10 8 10C7.44772 10 7 10.4477 7 11C7 11.5523 7.44772 12 8 12Z" fill="#343434"/>
<path d="M16 12C16.5523 12 17 11.5523 17 11C17 10.4477 16.5523 10 16 10C15.4477 10 15 10.4477 15 11C15 11.5523 15.4477 12 16 12Z" fill="#343434"/>
<path d="M15 17.5H9C8.7235 17.5 8.5 17.276 8.5 17C8.5 16.724 8.7235 16.5 9 16.5H15C15.2765 16.5 15.5 16.724 15.5 17C15.5 17.276 15.2765 17.5 15 17.5Z" fill="#343434"/>
<defs>
<linearGradient id="paint0_linear_40_3186" x1="5.0155" y1="5.0155" x2="19.055" y2="19.055" gradientUnits="userSpaceOnUse">
<stop stop-color="#FEDE00"/>
<stop offset="0.519" stop-color="#FECC00"/>
<stop offset="1" stop-color="#FFB700"/>
</linearGradient>
</defs>
</svg>
