<svg width="24" height="24" viewBox="0 0 24 24" fill="none" xmlns="http://www.w3.org/2000/svg">
<path d="M11.5238 9.61905H2.95238C2.42619 9.61905 2 9.19286 2 8.66667V2.95238C2 2.42619 2.42619 2 2.95238 2H11.5238C12.05 2 12.4762 2.42619 12.4762 2.95238V8.66667C12.4762 9.19286 12.05 9.61905 11.5238 9.61905Z" fill="url(#paint0_radial_40_3194)"/>
<path d="M10.919 9.61906H2.95238C2.42857 9.61906 2 9.19049 2 8.66668V6.74763L4.41429 4.33334C4.75238 3.99525 5.29524 3.99525 5.62857 4.33334L10.919 9.61906Z" fill="url(#paint1_linear_40_3194)"/>
<path d="M12.0143 9.61908C12.3171 9.61908 12.5629 9.37336 12.5629 9.07051V8.79622L9.19476 5.42813C8.85952 5.09289 8.31571 5.09289 7.98047 5.42813L3.78952 9.61908H12.0143Z" fill="#436DCD"/>
<path d="M15.3333 17.2381H8.66667C8.14048 17.2381 7.71429 16.8119 7.71429 16.2857V7.71428C7.71429 7.18809 8.14048 6.7619 8.66667 6.7619H12.9524C13.4286 7.71428 15.3333 9.61904 16.2857 10.0952V16.2857C16.2857 16.8119 15.8595 17.2381 15.3333 17.2381Z" fill="url(#paint2_linear_40_3194)"/>
<path d="M12.9524 6.7619V9.14285C12.9524 9.66904 13.3786 10.0952 13.9048 10.0952H16.2857L12.9524 6.7619Z" fill="url(#paint3_linear_40_3194)"/>
<path d="M14.1429 12.9524H9.38096C9.24953 12.9524 9.14286 12.8457 9.14286 12.7143V12.2381C9.14286 12.1067 9.24953 12 9.38096 12H14.1429C14.2743 12 14.381 12.1067 14.381 12.2381V12.7143C14.381 12.8457 14.2743 12.9524 14.1429 12.9524Z" fill="url(#paint4_linear_40_3194)"/>
<path d="M14.1429 14.8572H9.38096C9.24953 14.8572 9.14286 14.7505 9.14286 14.6191V14.1429C9.14286 14.0115 9.24953 13.9048 9.38096 13.9048H14.1429C14.2743 13.9048 14.381 14.0115 14.381 14.1429V14.6191C14.381 14.7505 14.2743 14.8572 14.1429 14.8572Z" fill="url(#paint5_linear_40_3194)"/>
<path d="M21.0476 22H14.381C13.8548 22 13.4286 21.5738 13.4286 21.0476V12.4762C13.4286 11.95 13.8548 11.5238 14.381 11.5238H18.6667C19.1429 12.4762 21.0476 14.3809 22 14.8571V21.0476C22 21.5738 21.5738 22 21.0476 22Z" fill="#21A366"/>
<path d="M22 20.5714V19.619H13.4286V20.5714H22Z" fill="#33C481"/>
<path d="M22 17.7143V16.7619H13.4286V17.7143H22Z" fill="#33C481"/>
<path d="M13.4286 14.8572V13.9048H20.5714L22 14.8572H13.4286Z" fill="#33C481"/>
<path d="M18.6667 11.5238V13.9048C18.6667 14.4309 19.0929 14.8571 19.619 14.8571H22L18.6667 11.5238Z" fill="#185C37"/>
<path d="M16.2857 11.5238H15.3333V22H16.2857V11.5238Z" fill="url(#paint6_linear_40_3194)"/>
<path d="M16.2857 13.9048H15.3333V14.8572H16.2857V13.9048Z" fill="#139551"/>
<path d="M16.2857 16.7619H15.3333V17.7143H16.2857V16.7619Z" fill="#139551"/>
<path d="M16.2857 19.619H15.3333V20.5714H16.2857V19.619Z" fill="#139551"/>
<path d="M10.3333 4.38096C10.7278 4.38096 11.0476 4.06116 11.0476 3.66668C11.0476 3.27219 10.7278 2.95239 10.3333 2.95239C9.93885 2.95239 9.61905 3.27219 9.61905 3.66668C9.61905 4.06116 9.93885 4.38096 10.3333 4.38096Z" fill="white"/>
<defs>
<radialGradient id="paint0_radial_40_3194" cx="0" cy="0" r="1" gradientUnits="userSpaceOnUse" gradientTransform="translate(13.9441 8.1149) scale(5.59821 6.3941)">
<stop stop-color="#BD8AF5"/>
<stop offset="0.137" stop-color="#B88BF5"/>
<stop offset="0.309" stop-color="#A88FF3"/>
<stop offset="0.499" stop-color="#8F96F2"/>
<stop offset="0.702" stop-color="#6B9EEF"/>
<stop offset="0.913" stop-color="#3EAAEC"/>
<stop offset="1" stop-color="#29AFEA"/>
</radialGradient>
<linearGradient id="paint1_linear_40_3194" x1="6.45952" y1="4.06763" x2="6.45952" y2="9.71573" gradientUnits="userSpaceOnUse">
<stop stop-color="#124787"/>
<stop offset="0.923" stop-color="#173B75"/>
<stop offset="1" stop-color="#173A73"/>
</linearGradient>
<linearGradient id="paint2_linear_40_3194" x1="10.4168" y1="6.92274" x2="16.1483" y2="15.9644" gradientUnits="userSpaceOnUse">
<stop stop-color="#7DD8F3"/>
<stop offset="1" stop-color="#45B0D0"/>
</linearGradient>
<linearGradient id="paint3_linear_40_3194" x1="13.2152" y1="9.83238" x2="14.6471" y2="8.40047" gradientUnits="userSpaceOnUse">
<stop stop-color="#3079D6"/>
<stop offset="1" stop-color="#297CD2"/>
</linearGradient>
<linearGradient id="paint4_linear_40_3194" x1="11.0566" y1="12.0415" x2="11.0912" y2="13.0906" gradientUnits="userSpaceOnUse">
<stop stop-color="#32BDEF"/>
<stop offset="1" stop-color="#1EA2E4"/>
</linearGradient>
<linearGradient id="paint5_linear_40_3194" x1="11.0566" y1="13.9463" x2="11.0912" y2="14.9954" gradientUnits="userSpaceOnUse">
<stop stop-color="#32BDEF"/>
<stop offset="1" stop-color="#1EA2E4"/>
</linearGradient>
<linearGradient id="paint6_linear_40_3194" x1="15.4729" y1="13.0581" x2="16.8087" y2="13.1795" gradientUnits="userSpaceOnUse">
<stop stop-color="#21AD64"/>
<stop offset="1" stop-color="#088242"/>
</linearGradient>
</defs>
</svg>
