<svg width="24" height="24" viewBox="0 0 24 24" fill="none" xmlns="http://www.w3.org/2000/svg">
<path d="M20.5366 4.43903H8.82927V21.0244C8.82927 21.5634 9.26585 22 9.80488 22H19.561C20.1 22 20.5366 21.5634 20.5366 21.0244V4.43903Z" fill="url(#paint0_linear_40_3314)"/>
<path d="M20.5366 4.43902H8.82927V2.97561C8.82927 2.43659 9.26585 2 9.80488 2H19.561C20.1 2 20.5366 2.43659 20.5366 2.97561V4.43902Z" fill="url(#paint1_linear_40_3314)"/>
<path d="M12.7317 3.58535C12.9338 3.58535 13.0976 3.42155 13.0976 3.21949C13.0976 3.01743 12.9338 2.85364 12.7317 2.85364C12.5296 2.85364 12.3659 3.01743 12.3659 3.21949C12.3659 3.42155 12.5296 3.58535 12.7317 3.58535Z" fill="#0C63AD"/>
<path d="M16.3902 2.85364C16.2956 2.85364 14.0459 2.85364 13.9512 2.85364C13.7493 2.85364 13.5854 3.01754 13.5854 3.21949C13.5854 3.42144 13.7493 3.58535 13.9512 3.58535C14.0459 3.58535 16.2956 3.58535 16.3902 3.58535C16.5922 3.58535 16.7561 3.42144 16.7561 3.21949C16.7561 3.01754 16.5922 2.85364 16.3902 2.85364Z" fill="#0C63AD"/>
<path opacity="0.05" d="M16.1463 9.80491V13.2195C16.1463 14.0244 15.4878 14.683 14.6829 14.683H8.82927V8.34149H14.6829C15.4878 8.34149 16.1463 9.00003 16.1463 9.80491Z" fill="black"/>
<path opacity="0.07" d="M15.9024 9.8049V13.2195C15.9024 13.8927 15.3561 14.439 14.6829 14.439H8.82927V8.58539H14.6829C15.3561 8.58539 15.9024 9.13173 15.9024 9.8049Z" fill="black"/>
<path d="M14.6829 14.1951H4.43902C3.90097 14.1951 3.46341 13.7576 3.46341 13.2195V9.80489C3.46341 9.26685 3.90097 8.82928 4.43902 8.82928H14.6829C15.221 8.82928 15.6585 9.26685 15.6585 9.80489V13.2195C15.6585 13.7576 15.221 14.1951 14.6829 14.1951Z" fill="url(#paint2_linear_40_3314)"/>
<path d="M14.6829 9.80487H4.43902V13.2195H14.6829V9.80487Z" fill="url(#paint3_linear_40_3314)"/>
<path d="M6.63415 12.2439C7.03825 12.2439 7.36585 11.9163 7.36585 11.5122C7.36585 11.1081 7.03825 10.7805 6.63415 10.7805C6.23004 10.7805 5.90244 11.1081 5.90244 11.5122C5.90244 11.9163 6.23004 12.2439 6.63415 12.2439Z" fill="#0B5AA4"/>
<path d="M9.56097 12.2439C9.96508 12.2439 10.2927 11.9163 10.2927 11.5122C10.2927 11.1081 9.96508 10.7805 9.56097 10.7805C9.15687 10.7805 8.82927 11.1081 8.82927 11.5122C8.82927 11.9163 9.15687 12.2439 9.56097 12.2439Z" fill="#0B5AA4"/>
<path d="M12.4878 12.2439C12.8919 12.2439 13.2195 11.9163 13.2195 11.5122C13.2195 11.1081 12.8919 10.7805 12.4878 10.7805C12.0837 10.7805 11.7561 11.1081 11.7561 11.5122C11.7561 11.9163 12.0837 12.2439 12.4878 12.2439Z" fill="#0B5AA4"/>
<defs>
<linearGradient id="paint0_linear_40_3314" x1="10.1151" y1="4.26293" x2="22.2366" y2="27.06" gradientUnits="userSpaceOnUse">
<stop stop-color="#32BDEF"/>
<stop offset="1" stop-color="#1EA2E4"/>
</linearGradient>
<linearGradient id="paint1_linear_40_3314" x1="12.5204" y1="2.03744" x2="12.8356" y2="4.95431" gradientUnits="userSpaceOnUse">
<stop stop-color="#7DD8F3"/>
<stop offset="1" stop-color="#45B0D0"/>
</linearGradient>
<linearGradient id="paint2_linear_40_3314" x1="7.89122" y1="8.37172" x2="12.001" y2="16.101" gradientUnits="userSpaceOnUse">
<stop stop-color="#0077D2"/>
<stop offset="1" stop-color="#0B59A2"/>
</linearGradient>
<linearGradient id="paint3_linear_40_3314" x1="8.67756" y1="9.70097" x2="11.9917" y2="16.4956" gradientUnits="userSpaceOnUse">
<stop stop-color="#FCFCFC"/>
<stop offset="0.495" stop-color="#F4F4F4"/>
<stop offset="0.869" stop-color="#E8E8E8"/>
<stop offset="1" stop-color="#E8E8E8"/>
</linearGradient>
</defs>
</svg>
