<svg width="24" height="24" viewBox="0 0 24 24" fill="none" xmlns="http://www.w3.org/2000/svg">
<path d="M2 19V7.5H22V19C22 19.55 21.55 20 21 20H3C2.45 20 2 19.55 2 19Z" fill="url(#paint0_linear_40_3327)"/>
<path d="M22 5V7.5H2V5C2 4.45 2.45 4 3 4H21C21.55 4 22 4.45 22 5Z" fill="url(#paint1_linear_40_3327)"/>
<path d="M8.25 6.5H20.75C20.9 6.5 21 6.4 21 6.25V5.25C21 5.1 20.9 5 20.75 5H8.25C8.1 5 8 5.1 8 5.25V6.25C8 6.4 8.1 6.5 8.25 6.5Z" fill="url(#paint2_linear_40_3327)"/>
<path d="M3.75 6.5C4.16421 6.5 4.5 6.16421 4.5 5.75C4.5 5.33579 4.16421 5 3.75 5C3.33579 5 3 5.33579 3 5.75C3 6.16421 3.33579 6.5 3.75 6.5Z" fill="url(#paint3_linear_40_3327)"/>
<path d="M6.25 6.5C6.66421 6.5 7 6.16421 7 5.75C7 5.33579 6.66421 5 6.25 5C5.83579 5 5.5 5.33579 5.5 5.75C5.5 6.16421 5.83579 6.5 6.25 6.5Z" fill="url(#paint4_linear_40_3327)"/>
<path d="M6.1 9.39996V13H5.35V10.3C5.3 10.35 5.25 10.35 5.2 10.4C5.15 10.45 5.1 10.45 5 10.5C4.95 10.55 4.85 10.55 4.8 10.55C4.75 10.55 4.65 10.6 4.6 10.6V9.94996C4.8 9.89996 5 9.79996 5.15 9.74996C5.3 9.69996 5.5 9.54996 5.65 9.44996H6.1V9.39996Z" fill="url(#paint5_linear_40_3327)"/>
<path d="M8.55 13.05C7.7 13.05 7.3 12.45 7.3 11.3C7.3 10.7 7.4 10.25 7.65 9.89996C7.9 9.59996 8.2 9.39996 8.65 9.39996C9.45 9.39996 9.85 9.99996 9.85 11.2C9.85 11.8 9.75 12.25 9.5 12.55C9.3 12.9 9 13.05 8.55 13.05ZM8.6 10.05C8.25 10.05 8.1 10.45 8.1 11.3C8.1 12.1 8.25 12.5 8.6 12.5C8.9 12.5 9.1 12.1 9.1 11.3C9.1 10.5 8.9 10.05 8.6 10.05Z" fill="url(#paint6_linear_40_3327)"/>
<path d="M12 13.05C11.15 13.05 10.75 12.45 10.75 11.3C10.75 10.7 10.85 10.25 11.1 9.89996C11.35 9.59996 11.65 9.39996 12.1 9.39996C12.9 9.39996 13.3 9.99996 13.3 11.2C13.3 11.8 13.2 12.25 12.95 12.55C12.7 12.9 12.4 13.05 12 13.05ZM12 10.05C11.65 10.05 11.5 10.45 11.5 11.3C11.5 12.1 11.65 12.5 12 12.5C12.3 12.5 12.5 12.1 12.5 11.3C12.5 10.5 12.35 10.05 12 10.05Z" fill="url(#paint7_linear_40_3327)"/>
<path d="M15.6 9.39996V13H14.85V10.3C14.8 10.35 14.75 10.35 14.7 10.4C14.65 10.45 14.6 10.45 14.5 10.5C14.45 10.55 14.35 10.55 14.3 10.55C14.25 10.55 14.15 10.6 14.1 10.6V9.94996C14.3 9.89996 14.5 9.79996 14.65 9.74996C14.8 9.69996 15 9.54996 15.15 9.44996H15.6V9.39996Z" fill="url(#paint8_linear_40_3327)"/>
<path d="M18.7 9.39996V13H17.95V10.3C17.9 10.35 17.85 10.35 17.8 10.4C17.75 10.45 17.7 10.45 17.6 10.5C17.55 10.55 17.45 10.55 17.4 10.55C17.35 10.55 17.25 10.6 17.2 10.6V9.94996C17.4 9.89996 17.6 9.79996 17.75 9.74996C17.9 9.69996 18.1 9.54996 18.25 9.44996H18.7V9.39996Z" fill="url(#paint9_linear_40_3327)"/>
<path d="M5.6 18.05C4.75 18.05 4.35 17.45 4.35 16.3C4.35 15.7 4.45 15.25 4.7 14.9C4.95 14.6 5.25 14.4 5.7 14.4C6.5 14.4 6.9 15 6.9 16.2C6.9 16.8 6.8 17.25 6.55 17.55C6.35 17.9 6 18.05 5.6 18.05ZM5.65 15.05C5.3 15.05 5.15 15.45 5.15 16.3C5.15 17.1 5.3 17.5 5.65 17.5C5.95 17.5 6.15 17.1 6.15 16.3C6.15 15.5 5.95 15.05 5.65 15.05Z" fill="url(#paint10_linear_40_3327)"/>
<path d="M9.35 14.4V18H8.6V15.3C8.55 15.35 8.5 15.35 8.45 15.4C8.4 15.45 8.35 15.45 8.25 15.5C8.2 15.55 8.1 15.55 8.05 15.55C8 15.55 7.9 15.6 7.85 15.6V14.95C8.05 14.9 8.25 14.8 8.4 14.75C8.55 14.7 8.75 14.55 8.9 14.45H9.35V14.4Z" fill="url(#paint11_linear_40_3327)"/>
<path d="M11.8 18.05C10.95 18.05 10.55 17.45 10.55 16.3C10.55 15.7 10.65 15.25 10.9 14.9C11.15 14.6 11.45 14.4 11.9 14.4C12.7 14.4 13.1 15 13.1 16.2C13.1 16.8 13 17.25 12.75 17.55C12.5 17.9 12.2 18.05 11.8 18.05ZM11.8 15.05C11.45 15.05 11.3 15.45 11.3 16.3C11.3 17.1 11.45 17.5 11.8 17.5C12.1 17.5 12.3 17.1 12.3 16.3C12.3 15.5 12.15 15.05 11.8 15.05Z" fill="url(#paint12_linear_40_3327)"/>
<path d="M15 18.05C14.15 18.05 13.75 17.45 13.75 16.3C13.75 15.7 13.85 15.25 14.1 14.9C14.35 14.6 14.65 14.4 15.1 14.4C15.9 14.4 16.3 15 16.3 16.2C16.3 16.8 16.2 17.25 15.95 17.55C15.7 17.9 15.4 18.05 15 18.05ZM15 15.05C14.65 15.05 14.5 15.45 14.5 16.3C14.5 17.1 14.65 17.5 15 17.5C15.3 17.5 15.5 17.1 15.5 16.3C15.5 15.5 15.35 15.05 15 15.05Z" fill="url(#paint13_linear_40_3327)"/>
<path d="M18.7 14.4V18H17.95V15.3C17.9 15.35 17.85 15.35 17.8 15.4C17.75 15.45 17.7 15.45 17.6 15.5C17.55 15.55 17.45 15.55 17.4 15.55C17.35 15.55 17.25 15.6 17.2 15.6V14.95C17.4 14.9 17.6 14.8 17.75 14.75C17.9 14.7 18.1 14.55 18.25 14.45H18.7V14.4Z" fill="url(#paint14_linear_40_3327)"/>
<defs>
<linearGradient id="paint0_linear_40_3327" x1="6.74" y1="5.7965" x2="15.817" y2="18.9265" gradientUnits="userSpaceOnUse">
<stop stop-color="#7DD8F3"/>
<stop offset="1" stop-color="#45B0D0"/>
</linearGradient>
<linearGradient id="paint1_linear_40_3327" x1="2.307" y1="3.8705" x2="21.468" y2="7.7665" gradientUnits="userSpaceOnUse">
<stop stop-color="#0077D2"/>
<stop offset="1" stop-color="#0B59A2"/>
</linearGradient>
<linearGradient id="paint2_linear_40_3327" x1="8" y1="5.75" x2="21" y2="5.75" gradientUnits="userSpaceOnUse">
<stop stop-color="#7DD8F3"/>
<stop offset="1" stop-color="#45B0D0"/>
</linearGradient>
<linearGradient id="paint3_linear_40_3327" x1="3.3755" y1="5.208" x2="4.016" y2="6.1345" gradientUnits="userSpaceOnUse">
<stop stop-color="#75DAFF"/>
<stop offset="1" stop-color="#49BEF1"/>
</linearGradient>
<linearGradient id="paint4_linear_40_3327" x1="5.8755" y1="5.208" x2="6.516" y2="6.1345" gradientUnits="userSpaceOnUse">
<stop stop-color="#75DAFF"/>
<stop offset="1" stop-color="#49BEF1"/>
</linearGradient>
<linearGradient id="paint5_linear_40_3327" x1="5.12072" y1="9.55739" x2="6.39553" y2="13.01" gradientUnits="userSpaceOnUse">
<stop stop-color="#0D61A9"/>
<stop offset="1" stop-color="#16528C"/>
</linearGradient>
<linearGradient id="paint6_linear_40_3327" x1="8.18523" y1="9.55958" x2="9.02067" y2="13.3534" gradientUnits="userSpaceOnUse">
<stop stop-color="#0D61A9"/>
<stop offset="1" stop-color="#16528C"/>
</linearGradient>
<linearGradient id="paint7_linear_40_3327" x1="11.6352" y1="9.55958" x2="12.4707" y2="13.3534" gradientUnits="userSpaceOnUse">
<stop stop-color="#0D61A9"/>
<stop offset="1" stop-color="#16528C"/>
</linearGradient>
<linearGradient id="paint8_linear_40_3327" x1="14.6207" y1="9.55739" x2="15.8955" y2="13.01" gradientUnits="userSpaceOnUse">
<stop stop-color="#0D61A9"/>
<stop offset="1" stop-color="#16528C"/>
</linearGradient>
<linearGradient id="paint9_linear_40_3327" x1="17.7207" y1="9.55739" x2="18.9955" y2="13.01" gradientUnits="userSpaceOnUse">
<stop stop-color="#0D61A9"/>
<stop offset="1" stop-color="#16528C"/>
</linearGradient>
<linearGradient id="paint10_linear_40_3327" x1="5.23523" y1="14.5596" x2="6.07067" y2="18.3534" gradientUnits="userSpaceOnUse">
<stop stop-color="#0D61A9"/>
<stop offset="1" stop-color="#16528C"/>
</linearGradient>
<linearGradient id="paint11_linear_40_3327" x1="8.37073" y1="14.5574" x2="9.64553" y2="18.01" gradientUnits="userSpaceOnUse">
<stop stop-color="#0D61A9"/>
<stop offset="1" stop-color="#16528C"/>
</linearGradient>
<linearGradient id="paint12_linear_40_3327" x1="11.4352" y1="14.5596" x2="12.2707" y2="18.3534" gradientUnits="userSpaceOnUse">
<stop stop-color="#0D61A9"/>
<stop offset="1" stop-color="#16528C"/>
</linearGradient>
<linearGradient id="paint13_linear_40_3327" x1="14.6352" y1="14.5596" x2="15.4707" y2="18.3534" gradientUnits="userSpaceOnUse">
<stop stop-color="#0D61A9"/>
<stop offset="1" stop-color="#16528C"/>
</linearGradient>
<linearGradient id="paint14_linear_40_3327" x1="17.7207" y1="14.5574" x2="18.9955" y2="18.01" gradientUnits="userSpaceOnUse">
<stop stop-color="#0D61A9"/>
<stop offset="1" stop-color="#16528C"/>
</linearGradient>
</defs>
</svg>
