<svg width="24" height="24" viewBox="0 0 24 24" fill="none" xmlns="http://www.w3.org/2000/svg">
<path d="M20.7179 18.4102H3.28205C2.71538 18.4102 2.25641 17.9513 2.25641 17.3846V5.07691C2.25641 4.51024 2.71538 4.05127 3.28205 4.05127H20.7179C21.2846 4.05127 21.7436 4.51024 21.7436 5.07691V17.3846C21.7436 17.9513 21.2846 18.4102 20.7179 18.4102Z" fill="url(#paint0_linear_40_3355)"/>
<path d="M20.7179 5.0769H3.28204V17.3846H20.7179V5.0769Z" fill="url(#paint1_linear_40_3355)"/>
<path d="M14.0513 18.4103H9.94872V20.4616H14.0513V18.4103Z" fill="url(#paint2_linear_40_3355)"/>
<path d="M16.6154 19.9487H7.38462C7.10154 19.9487 6.8718 20.1785 6.8718 20.4616V21.4872C6.8718 21.7703 7.10154 22 7.38462 22H16.6154C16.8985 22 17.1282 21.7703 17.1282 21.4872V20.4616C17.1282 20.1785 16.8985 19.9487 16.6154 19.9487Z" fill="url(#paint3_linear_40_3355)"/>
<path d="M17.641 11.2308H6.35897C6.07589 11.2308 5.84615 11.4605 5.84615 11.7436C5.84615 12.0267 6.07589 12.2564 6.35897 12.2564H17.641C17.9241 12.2564 18.1538 12.0267 18.1538 11.7436C18.1538 11.4605 17.9241 11.2308 17.641 11.2308Z" fill="#121212"/>
<path d="M7.89743 2.73744V11.2308H16.1026V2.73744C16.1026 2.33026 15.7723 2 15.3651 2H8.63487C8.22769 2 7.89743 2.33026 7.89743 2.73744Z" fill="url(#paint4_linear_40_3355)"/>
<path d="M16.1026 11.2308H7.89743V12.2564H16.1026V11.2308Z" fill="url(#paint5_linear_40_3355)"/>
<path d="M9.94872 11.2308V2H8.92308V11.2308H9.94872Z" fill="url(#paint6_linear_40_3355)"/>
<path d="M12 3.28205V11.2308H10.9743V3.28205C10.9743 3.14051 11.0892 3.02563 11.2308 3.02563H11.7436C11.8851 3.02563 12 3.14051 12 3.28205Z" fill="#A8E7FF"/>
<path d="M9.94872 11.2308H8.92308V12.2564H9.94872V11.2308Z" fill="#2D3033"/>
<path d="M12 11.2308H10.9743V12.2564H12V11.2308Z" fill="#76CCED"/>
<defs>
<linearGradient id="paint0_linear_40_3355" x1="4.13487" y1="4.59435" x2="19.242" y2="17.341" gradientUnits="userSpaceOnUse">
<stop stop-color="#A1AAB3"/>
<stop offset="1" stop-color="#8F979E"/>
</linearGradient>
<linearGradient id="paint1_linear_40_3355" x1="11.0231" y1="5.12921" x2="12.9764" y2="17.3292" gradientUnits="userSpaceOnUse">
<stop stop-color="#0D61A9"/>
<stop offset="1" stop-color="#16528C"/>
</linearGradient>
<linearGradient id="paint2_linear_40_3355" x1="12" y1="18.4062" x2="12" y2="20.4657" gradientUnits="userSpaceOnUse">
<stop stop-color="#484B4F"/>
<stop offset="0.23" stop-color="#656D75"/>
<stop offset="0.367" stop-color="#727D86"/>
</linearGradient>
<linearGradient id="paint3_linear_40_3355" x1="12" y1="19.9446" x2="12" y2="22.0041" gradientUnits="userSpaceOnUse">
<stop stop-color="#A1AAB3"/>
<stop offset="1" stop-color="#8F979E"/>
</linearGradient>
<linearGradient id="paint4_linear_40_3355" x1="10.8952" y1="2.40238" x2="12.8939" y2="12.1722" gradientUnits="userSpaceOnUse">
<stop stop-color="#32BDEF"/>
<stop offset="1" stop-color="#1EA2E4"/>
</linearGradient>
<linearGradient id="paint5_linear_40_3355" x1="9.7152" y1="11.078" x2="9.84152" y2="12.5614" gradientUnits="userSpaceOnUse">
<stop stop-color="#FCFCFC"/>
<stop offset="0.95" stop-color="#C3C9CD"/>
</linearGradient>
<linearGradient id="paint6_linear_40_3355" x1="9.4359" y1="11.2308" x2="9.4359" y2="2" gradientUnits="userSpaceOnUse">
<stop stop-color="#45494D"/>
<stop offset="1" stop-color="#6D7479"/>
</linearGradient>
</defs>
</svg>
