<svg width="24" height="24" viewBox="0 0 24 24" fill="none" xmlns="http://www.w3.org/2000/svg">
<path d="M12.2096 6.06095L11.101 4.95236C10.8553 4.70668 10.5218 4.56854 10.1738 4.56854H3.72285C3.2398 4.56854 2.84856 4.95979 2.84856 5.44283V18.5572C2.84856 19.0402 3.2398 19.4315 3.72285 19.4315H20.3343C20.8174 19.4315 21.2086 19.0402 21.2086 18.5572V7.19141C21.2086 6.70837 20.8174 6.31712 20.3343 6.31712H12.8277C12.596 6.31712 12.3735 6.22488 12.2096 6.06095Z" fill="url(#paint0_linear_40_3379)"/>
<path d="M12.0286 11.5628L13.7134 9.87809C13.754 9.83744 13.8095 9.81427 13.8677 9.81427H21.1256C21.6397 9.81427 22.0427 10.2558 21.9964 10.7677L21.2812 18.6363C21.2401 19.0865 20.8624 19.4315 20.4104 19.4315H3.63104C3.18559 19.4315 2.8114 19.0966 2.762 18.6538L2.00137 11.8055C1.98694 11.6761 2.08836 11.5628 2.21863 11.5628H12.0286Z" fill="url(#paint1_linear_40_3379)"/>
<defs>
<linearGradient id="paint0_linear_40_3379" x1="12.0286" y1="4.54887" x2="12.0286" y2="11.6359" gradientUnits="userSpaceOnUse">
<stop stop-color="#EBA600"/>
<stop offset="1" stop-color="#C28200"/>
</linearGradient>
<linearGradient id="paint1_linear_40_3379" x1="11.9997" y1="9.91394" x2="11.9997" y2="16.2932" gradientUnits="userSpaceOnUse">
<stop stop-color="#FFD869"/>
<stop offset="1" stop-color="#FEC52B"/>
</linearGradient>
</defs>
</svg>
