<svg width="24" height="24" viewBox="0 0 24 24" fill="none" xmlns="http://www.w3.org/2000/svg">
<path d="M9.61065 6.315L9.61343 6.31611C9.67121 6.07 9.88121 5.88889 10.144 5.88889H17.6284C17.6379 5.88889 17.6473 5.885 17.6568 5.88556C17.4973 3.23056 15.2701 2 13.3051 2H5.82065C5.55732 2 5.34732 2.18611 5.29009 2.43167L5.28732 2.43056L2.01565 17.4517L2.02287 17.4522C2.01509 17.4878 2.00121 17.5217 2.00121 17.56C2.00121 17.8672 2.24954 18.1106 2.55676 18.1106H7.04065L9.61065 6.315Z" fill="#0D62AB"/>
<path d="M17.6568 5.88556C17.6862 6.37223 17.654 6.90167 17.5295 7.48667C16.8179 10.8172 14.2451 12.5505 11.0656 12.5505C11.0656 12.5505 9.13787 12.5505 8.66953 12.5505C8.38009 12.5505 8.24342 12.7205 8.18064 12.8505L7.21398 17.3222L7.04453 18.1161H7.0412L6.33953 21.3361L6.34675 21.3367C6.33898 21.3722 6.32509 21.4061 6.32509 21.4444C6.32509 21.7517 6.57342 22 6.88064 22H10.9545L10.9618 21.9944C11.224 21.9905 11.4323 21.8033 11.4868 21.5567L11.4968 21.5483L12.5034 16.8728C12.5034 16.8728 12.5734 16.4267 13.0423 16.4267C13.5112 16.4267 15.3634 16.4267 15.3634 16.4267C18.5429 16.4267 21.1418 14.7011 21.854 11.37C22.6551 7.61445 19.9762 5.89945 17.6568 5.88556Z" fill="url(#paint0_linear_40_3478)"/>
<path d="M10.144 5.8889C9.88066 5.8889 9.67066 6.07001 9.61343 6.31613L9.61066 6.31501L8.1801 12.8511C8.24288 12.7211 8.37954 12.5511 8.66899 12.5511C9.13788 12.5511 11.0218 12.5511 11.0218 12.5511C14.2012 12.5511 16.8173 10.8178 17.529 7.48724C17.654 6.90224 17.6857 6.37279 17.6562 5.88612C17.6473 5.88501 17.6373 5.8889 17.6284 5.8889H10.144Z" fill="#006FC4"/>
<defs>
<linearGradient id="paint0_linear_40_3478" x1="9.79747" y1="3.48494" x2="20.8285" y2="19.2354" gradientUnits="userSpaceOnUse">
<stop stop-color="#FCFCFC"/>
<stop offset="0.95" stop-color="#C3C9CD"/>
</linearGradient>
</defs>
</svg>
