<svg width="24" height="24" viewBox="0 0 24 24" fill="none" xmlns="http://www.w3.org/2000/svg">
<path d="M5.56328 11.0132L4.6994 11.8771C4.44364 12.1328 4.26196 12.4531 4.17337 12.804L3.07425 17.1699L4.23193 19.7721L6.82607 20.9253L11.194 19.8257C11.5449 19.7371 11.8652 19.5554 12.1215 19.2996L12.9908 18.4257L5.56328 11.0132Z" fill="url(#paint0_linear_40_3490)"/>
<path d="M3.07524 17.1705L2.01566 21.3728C1.92307 21.7401 2.2559 22.073 2.62328 21.9804L6.82405 20.9213L3.07524 17.1705Z" fill="url(#paint1_linear_40_3490)"/>
<path d="M14.5724 2.00403L4.88759 11.6889C5.82054 12.0528 6.48421 12.9547 6.48421 14.0163C6.48421 14.0163 6.48421 14.1284 6.48421 14.2665C6.48421 14.4046 6.59633 14.5168 6.73447 14.5168C6.87261 14.5168 6.98472 14.5168 6.98472 14.5168C8.36663 14.5168 9.48727 15.6374 9.48727 17.0193C9.48727 17.0193 9.48727 17.1314 9.48727 17.2696C9.48727 17.4077 9.59938 17.5198 9.73752 17.5198C9.87566 17.5198 9.98778 17.5198 9.98778 17.5198C11.0469 17.5198 11.9468 18.18 12.3126 19.1089L22 9.41657L14.5724 2.00403Z" fill="#EDBE00"/>
<path d="M6.55729 14.4437L16.7867 4.21428L14.5724 2.00403L4.88759 11.6889C5.82054 12.0528 6.48421 12.9547 6.48421 14.0163C6.48421 14.0163 6.48421 14.1284 6.48421 14.2665C6.48421 14.3356 6.51224 14.3981 6.55729 14.4437Z" fill="url(#paint2_linear_40_3490)"/>
<path d="M9.56033 17.4468C9.60588 17.4918 9.66844 17.5199 9.73751 17.5199C9.87565 17.5199 9.98777 17.5199 9.98777 17.5199C11.0468 17.5199 11.9468 18.18 12.3126 19.109L22 9.41661L19.7932 7.21387L9.56033 17.4468Z" fill="url(#paint3_linear_40_3490)"/>
<defs>
<linearGradient id="paint0_linear_40_3490" x1="0.635768" y1="11.1233" x2="13.4868" y2="23.9739" gradientUnits="userSpaceOnUse">
<stop stop-color="#F9F9F9"/>
<stop offset="1" stop-color="#C2C8CC"/>
</linearGradient>
<linearGradient id="paint1_linear_40_3490" x1="1.67381" y1="18.5724" x2="5.42363" y2="22.3222" gradientUnits="userSpaceOnUse">
<stop stop-color="#787878"/>
<stop offset="1" stop-color="#666666"/>
</linearGradient>
<linearGradient id="paint2_linear_40_3490" x1="12.0999" y1="9.75642" x2="9.20799" y2="6.86448" gradientUnits="userSpaceOnUse">
<stop stop-color="#FEDE00"/>
<stop offset="1" stop-color="#FFD000"/>
</linearGradient>
<linearGradient id="paint3_linear_40_3490" x1="16.8853" y1="14.5363" x2="6.91664" y2="4.56817" gradientUnits="userSpaceOnUse">
<stop stop-color="#EBA601"/>
<stop offset="1" stop-color="#C18310"/>
</linearGradient>
</defs>
</svg>
