<svg width="24" height="24" viewBox="0 0 24 24" fill="none" xmlns="http://www.w3.org/2000/svg">
<path d="M16.4444 4.77777H7.55555C6.94191 4.77777 6.44444 5.27524 6.44444 5.88888V18.1111C6.44444 18.7248 6.94191 19.2222 7.55555 19.2222H16.4444C17.0581 19.2222 17.5556 18.7248 17.5556 18.1111V5.88888C17.5556 5.27524 17.0581 4.77777 16.4444 4.77777Z" fill="url(#paint0_linear_40_3614)"/>
<path d="M6.44444 3.38889C6.44444 3.46256 6.41518 3.53321 6.36309 3.58531C6.31099 3.6374 6.24033 3.66667 6.16667 3.66667H3.66667V6.16667C3.66667 6.24033 3.6374 6.31099 3.58531 6.36309C3.53321 6.41518 3.46256 6.44444 3.38889 6.44444H2.27778C2.20411 6.44444 2.13346 6.41518 2.08136 6.36309C2.02927 6.31099 2 6.24033 2 6.16667V2.27778C2 2.20411 2.02927 2.13346 2.08136 2.08136C2.13346 2.02927 2.20411 2 2.27778 2H6.16667C6.24033 2 6.31099 2.02927 6.36309 2.08136C6.41518 2.13346 6.44444 2.20411 6.44444 2.27778V3.38889ZM17.5556 3.38889C17.5556 3.46256 17.5848 3.53321 17.6369 3.58531C17.689 3.6374 17.7597 3.66667 17.8333 3.66667H20.3333V6.16667C20.3333 6.24033 20.3626 6.31099 20.4147 6.36309C20.4668 6.41518 20.5374 6.44444 20.6111 6.44444H21.7222C21.7959 6.44444 21.8666 6.41518 21.9187 6.36309C21.9708 6.31099 22 6.24033 22 6.16667V2.27778C22 2.20411 21.9708 2.13346 21.9187 2.08136C21.8666 2.02927 21.7959 2 21.7222 2H17.8333C17.7597 2 17.689 2.02927 17.6369 2.08136C17.5848 2.13346 17.5556 2.20411 17.5556 2.27778V3.38889ZM6.44444 20.6111C6.44444 20.5374 6.41518 20.4668 6.36309 20.4147C6.31099 20.3626 6.24033 20.3333 6.16667 20.3333H3.66667V17.8333C3.66667 17.7597 3.6374 17.689 3.58531 17.6369C3.53321 17.5848 3.46256 17.5556 3.38889 17.5556H2.27778C2.20411 17.5556 2.13346 17.5848 2.08136 17.6369C2.02927 17.689 2 17.7597 2 17.8333V21.7222C2 21.7959 2.02927 21.8666 2.08136 21.9187C2.13346 21.9708 2.20411 22 2.27778 22H6.16667C6.24033 22 6.31099 21.9708 6.36309 21.9187C6.41518 21.8666 6.44444 21.7959 6.44444 21.7222V20.6111ZM17.5556 21.7222C17.5556 21.7959 17.5848 21.8666 17.6369 21.9187C17.689 21.9708 17.7597 22 17.8333 22H21.7222C21.7959 22 21.8666 21.9708 21.9187 21.9187C21.9708 21.8666 22 21.7959 22 21.7222V17.8333C22 17.7597 21.9708 17.689 21.9187 17.6369C21.8666 17.5848 21.7959 17.5556 21.7222 17.5556H20.6111C20.5374 17.5556 20.4668 17.5848 20.4147 17.6369C20.3626 17.689 20.3333 17.7597 20.3333 17.8333V20.3333H17.8333C17.7597 20.3333 17.689 20.3626 17.6369 20.4147C17.5848 20.4668 17.5556 20.5374 17.5556 20.6111V21.7222Z" fill="url(#paint1_linear_40_3614)"/>
<path d="M19.7778 13.6667H4.22222C3.9154 13.6667 3.66666 13.9155 3.66666 14.2222C3.66666 14.529 3.9154 14.7778 4.22222 14.7778H19.7778C20.0846 14.7778 20.3333 14.529 20.3333 14.2222C20.3333 13.9155 20.0846 13.6667 19.7778 13.6667Z" fill="url(#paint2_linear_40_3614)"/>
<path d="M15.6111 9.22223H8.38C8.22659 9.22223 8.10222 9.3466 8.10222 9.50001V10.0556C8.10222 10.209 8.22659 10.3333 8.38 10.3333H15.6111C15.7646 10.3333 15.8889 10.209 15.8889 10.0556V9.50001C15.8889 9.3466 15.7646 9.22223 15.6111 9.22223Z" fill="#057093"/>
<path d="M15.6111 7H8.38C8.22659 7 8.10222 7.12437 8.10222 7.27778V7.83333C8.10222 7.98674 8.22659 8.11111 8.38 8.11111H15.6111C15.7646 8.11111 15.8889 7.98674 15.8889 7.83333V7.27778C15.8889 7.12437 15.7646 7 15.6111 7Z" fill="#057093"/>
<path d="M15.6111 15.8889H8.38C8.22659 15.8889 8.10222 16.0132 8.10222 16.1667V16.7222C8.10222 16.8757 8.22659 17 8.38 17H15.6111C15.7646 17 15.8889 16.8757 15.8889 16.7222V16.1667C15.8889 16.0132 15.7646 15.8889 15.6111 15.8889Z" fill="#057093"/>
<path d="M15.6111 11.4445H8.38C8.22659 11.4445 8.10222 11.5688 8.10222 11.7222V12.2778C8.10222 12.4312 8.22659 12.5556 8.38 12.5556H15.6111C15.7646 12.5556 15.8889 12.4312 15.8889 12.2778V11.7222C15.8889 11.5688 15.7646 11.4445 15.6111 11.4445Z" fill="#057093"/>
<defs>
<linearGradient id="paint0_linear_40_3614" x1="9.94766" y1="4.99954" x2="18.0482" y2="17.0138" gradientUnits="userSpaceOnUse">
<stop stop-color="#7DD8F3"/>
<stop offset="1" stop-color="#45B0D0"/>
</linearGradient>
<linearGradient id="paint1_linear_40_3614" x1="0.43" y1="0.43" x2="23.8394" y2="23.8394" gradientUnits="userSpaceOnUse">
<stop stop-color="#C3CDD9"/>
<stop offset="1" stop-color="#9FA7B0"/>
</linearGradient>
<linearGradient id="paint2_linear_40_3614" x1="3.66666" y1="14.2222" x2="20.3333" y2="14.2222" gradientUnits="userSpaceOnUse">
<stop stop-color="#3079D6"/>
<stop offset="1" stop-color="#297CD2"/>
</linearGradient>
</defs>
</svg>
