<svg width="24" height="24" viewBox="0 0 24 24" fill="none" xmlns="http://www.w3.org/2000/svg">
<path d="M10.4691 2.80048C10.4691 2.80048 9.72773 3.92457 9.72773 5.2582C9.72773 5.45229 9.83091 5.62593 9.98682 5.69548C10.8755 6.09093 12 6.09093 12 6.09093V2.91366L10.4691 2.80048Z" fill="#B55017"/>
<path d="M13.5695 2.85999C13.5695 2.85999 14.2723 3.90271 14.2723 5.25771C14.2723 5.4518 14.1691 5.62544 14.0132 5.69499C13.1245 6.09089 12 6.09089 12 6.09089V2.91362L13.5695 2.85999Z" fill="#B55017"/>
<path d="M12 6.09089C11 6.09089 10.1818 5.27271 10.1818 4.27271C10.1818 3.27271 11 2.45453 12 2.45453C13 2.45453 13.8182 3.27271 13.8182 4.27271C13.8182 5.27271 13 6.09089 12 6.09089Z" fill="url(#paint0_linear_40_3623)"/>
<path d="M10.1818 4.27273C10.6414 4.19091 11.1491 3.97364 11.5455 3.13636C11.9759 3.90091 13.0855 4.21818 13.8182 4.27273C13.8182 3.70455 13.8691 2 12 2C10.1482 2 10.1818 3.70455 10.1818 4.27273Z" fill="#B55017"/>
<path d="M14.2727 15.1818H12.4545V21.0909C12.4545 21.5932 12.8614 22 13.3636 22C13.8659 22 14.2727 21.5932 14.2727 21.0909V15.1818Z" fill="url(#paint1_linear_40_3623)"/>
<path d="M11.5455 15.1818H9.72727V21.0909C9.72727 21.5932 10.1341 22 10.6364 22C11.1386 22 11.5455 21.5932 11.5455 21.0909V15.1818Z" fill="url(#paint2_linear_40_3623)"/>
<path d="M16.0909 10.1818L14.7273 9.72729C14.7273 9.72729 14.7273 13.9187 14.7273 14.0455C14.7273 14.4218 15.0327 14.7273 15.4091 14.7273C15.7855 14.7273 16.0909 14.4218 16.0909 14.0455C16.0909 13.9187 16.0909 15.7632 16.0909 10.1818Z" fill="url(#paint3_linear_40_3623)"/>
<path d="M9.27273 9.72729L7.90909 10.1818C7.90909 10.1818 7.90909 13.9187 7.90909 14.0455C7.90909 14.4218 8.21455 14.7273 8.59091 14.7273C8.96727 14.7273 9.27273 14.4218 9.27273 14.0455C9.27273 13.9187 9.27273 15.3087 9.27273 9.72729Z" fill="url(#paint4_linear_40_3623)"/>
<path d="M16.0909 10.03C16.0909 8.35636 14.5827 7 12.9091 7H12.4545H11.5455H11.0909C9.41727 7 7.90909 8.35682 7.90909 10.0305V10.1818H9.27273C8.81818 11.5455 8.44409 14.7273 8.44409 16.9309C8.44091 17.1645 8.615 17.4545 8.89364 17.4545H15.1068C15.3855 17.4545 15.5591 17.1936 15.5559 16.9309C15.5559 14.7273 15.1818 11.5455 14.7273 10.1818H16.0909V10.03Z" fill="url(#paint5_linear_40_3623)"/>
<path d="M12 11.2564C12 11.2564 12.4073 10.7877 12.9091 10.7877C13.4109 10.7877 13.8182 11.2132 13.8182 11.7245C13.8182 12.0418 13.515 12.3491 13.515 12.3491L12.1532 13.7527C12.0686 13.84 11.9314 13.84 11.8464 13.7527L10.4845 12.3491C10.4845 12.3491 10.1814 12.0418 10.1814 11.7245C10.1814 11.2132 10.5882 10.7877 11.0905 10.7877C11.5927 10.7877 12 11.2564 12 11.2564Z" fill="#FFADC8"/>
<defs>
<linearGradient id="paint0_linear_40_3623" x1="11.3868" y1="2.58362" x2="12.6127" y2="5.96135" gradientUnits="userSpaceOnUse">
<stop stop-color="#FFCF54"/>
<stop offset="0.261" stop-color="#FDCB4D"/>
<stop offset="0.639" stop-color="#F7C13A"/>
<stop offset="1" stop-color="#F0B421"/>
</linearGradient>
<linearGradient id="paint1_linear_40_3623" x1="13.0764" y1="17.5009" x2="14.8" y2="21.8382" gradientUnits="userSpaceOnUse">
<stop stop-color="#FFCF54"/>
<stop offset="0.261" stop-color="#FDCB4D"/>
<stop offset="0.639" stop-color="#F7C13A"/>
<stop offset="1" stop-color="#F0B421"/>
</linearGradient>
<linearGradient id="paint2_linear_40_3623" x1="10.3491" y1="17.5009" x2="12.0727" y2="21.8382" gradientUnits="userSpaceOnUse">
<stop stop-color="#FFCF54"/>
<stop offset="0.261" stop-color="#FDCB4D"/>
<stop offset="0.639" stop-color="#F7C13A"/>
<stop offset="1" stop-color="#F0B421"/>
</linearGradient>
<linearGradient id="paint3_linear_40_3623" x1="14.6882" y1="10.5855" x2="16.5127" y2="14.6391" gradientUnits="userSpaceOnUse">
<stop stop-color="#FFCF54"/>
<stop offset="0.261" stop-color="#FDCB4D"/>
<stop offset="0.639" stop-color="#F7C13A"/>
<stop offset="1" stop-color="#F0B421"/>
</linearGradient>
<linearGradient id="paint4_linear_40_3623" x1="8.09864" y1="10.8659" x2="9.76864" y2="14.5768" gradientUnits="userSpaceOnUse">
<stop stop-color="#FFCF54"/>
<stop offset="0.261" stop-color="#FDCB4D"/>
<stop offset="0.639" stop-color="#F7C13A"/>
<stop offset="1" stop-color="#F0B421"/>
</linearGradient>
<linearGradient id="paint5_linear_40_3623" x1="11.5823" y1="6.30682" x2="12.5882" y2="16.7618" gradientUnits="userSpaceOnUse">
<stop stop-color="#0D61A9"/>
<stop offset="1" stop-color="#16528C"/>
</linearGradient>
</defs>
</svg>
