<svg width="24" height="24" viewBox="0 0 24 24" fill="none" xmlns="http://www.w3.org/2000/svg">
<path d="M19.2917 14.1125H2.625V17.8042H19.2917V14.1125Z" fill="#E3A600"/>
<path d="M19.2917 17.4167H2.625V19.5C2.625 19.9604 2.99792 20.3334 3.45833 20.3334H18.4583C18.9187 20.3334 19.2917 19.9604 19.2917 19.5V17.4167Z" fill="#C48C00"/>
<path d="M5.54167 7.41667V8.66667H7.20834V7.41667C7.20834 5.34542 8.88709 3.66667 10.9583 3.66667C13.0296 3.66667 14.7083 5.34542 14.7083 7.41667V8.66667H16.375V7.41667C16.375 4.425 13.95 2 10.9583 2C7.96667 2 5.54167 4.425 5.54167 7.41667Z" fill="url(#paint0_linear_40_3675)"/>
<path d="M19.2917 12H2.625V9.50002C2.625 9.0396 2.99792 8.66669 3.45833 8.66669H18.4583C18.9187 8.66669 19.2917 9.0396 19.2917 9.50002V12Z" fill="#FAD500"/>
<path d="M19.2917 11.5833H2.625V14.5H19.2917V11.5833Z" fill="#EDBE00"/>
<path d="M12.2083 14.0833C12.2083 13.3929 11.6487 12.8333 10.9583 12.8333C10.2679 12.8333 9.70833 13.3929 9.70833 14.0833C9.70833 14.6266 10.0571 15.0846 10.5417 15.2566V16.5833C10.5417 16.8133 10.7283 17 10.9583 17C11.1883 17 11.375 16.8133 11.375 16.5833V15.2566C11.8596 15.0846 12.2083 14.6266 12.2083 14.0833Z" fill="url(#paint1_linear_40_3675)"/>
<path opacity="0.05" d="M19.2917 14.6416V19.5C19.2917 19.9583 18.9167 20.3333 18.4583 20.3333H12.4625C12.0333 19.7208 11.7917 19.0083 11.7917 18.25C11.7917 15.9541 14.0333 14.0833 16.7917 14.0833C17.7 14.0833 18.5542 14.2875 19.2917 14.6416Z" fill="black"/>
<path opacity="0.07" d="M19.2917 14.8709V19.5C19.2917 19.9584 18.9167 20.3334 18.4583 20.3334H12.7208C12.2625 19.7292 12 19.0125 12 18.25C12 16.0667 14.15 14.2917 16.7917 14.2917C17.7083 14.2917 18.5625 14.5042 19.2917 14.8709Z" fill="black"/>
<path d="M16.7917 22C19.323 22 21.375 20.3211 21.375 18.25C21.375 16.1789 19.323 14.5 16.7917 14.5C14.2603 14.5 12.2083 16.1789 12.2083 18.25C12.2083 20.3211 14.2603 22 16.7917 22Z" fill="url(#paint2_radial_40_3675)"/>
<path d="M16.7917 20.75C18.6326 20.75 20.125 19.3509 20.125 17.625C20.125 15.8991 18.6326 14.5 16.7917 14.5C14.9507 14.5 13.4583 15.8991 13.4583 17.625C13.4583 19.3509 14.9507 20.75 16.7917 20.75Z" fill="url(#paint3_linear_40_3675)"/>
<path d="M16.7917 19.0834C17.5971 19.0834 18.25 18.4304 18.25 17.625C18.25 16.8196 17.5971 16.1667 16.7917 16.1667C15.9862 16.1667 15.3333 16.8196 15.3333 17.625C15.3333 18.4304 15.9862 19.0834 16.7917 19.0834Z" fill="url(#paint4_radial_40_3675)"/>
<path d="M15.75 17.4167C16.0952 17.4167 16.375 17.1369 16.375 16.7917C16.375 16.4465 16.0952 16.1667 15.75 16.1667C15.4048 16.1667 15.125 16.4465 15.125 16.7917C15.125 17.1369 15.4048 17.4167 15.75 17.4167Z" fill="white"/>
<defs>
<linearGradient id="paint0_linear_40_3675" x1="10.9583" y1="8.51958" x2="10.9583" y2="1.87667" gradientUnits="userSpaceOnUse">
<stop stop-color="#92A3B0"/>
<stop offset="0.015" stop-color="#A3B5C4"/>
<stop offset="0.032" stop-color="#AEC2D1"/>
<stop offset="0.046" stop-color="#B2C6D6"/>
</linearGradient>
<linearGradient id="paint1_linear_40_3675" x1="10.9583" y1="16.7387" x2="10.9583" y2="13.3146" gradientUnits="userSpaceOnUse">
<stop stop-color="#4B4B4B"/>
<stop offset="1" stop-color="#3B3B3B"/>
</linearGradient>
<radialGradient id="paint2_radial_40_3675" cx="0" cy="0" r="1" gradientUnits="userSpaceOnUse" gradientTransform="translate(16.8225 17.0742) scale(4.86378 4.97427)">
<stop offset="0.55" stop-color="#E4E4E6"/>
<stop offset="0.73" stop-color="#E1E2E4"/>
<stop offset="0.854" stop-color="#D8DADC"/>
<stop offset="0.961" stop-color="#C9CDCF"/>
<stop offset="1" stop-color="#C1C6C9"/>
</radialGradient>
<linearGradient id="paint3_linear_40_3675" x1="14.7354" y1="15.5683" x2="18.9062" y2="19.7396" gradientUnits="userSpaceOnUse">
<stop stop-color="#32BDEF"/>
<stop offset="1" stop-color="#1EA2E4"/>
</linearGradient>
<radialGradient id="paint4_radial_40_3675" cx="0" cy="0" r="1" gradientUnits="userSpaceOnUse" gradientTransform="translate(15.9326 15.4894) scale(3.78538)">
<stop stop-color="#4B4B4B"/>
<stop offset="0.531" stop-color="#393939"/>
<stop offset="1" stop-color="#252525"/>
</radialGradient>
</defs>
</svg>
