<svg width="24" height="24" viewBox="0 0 24 24" fill="none" xmlns="http://www.w3.org/2000/svg">
<path d="M8.25 19.1658C8.94036 19.1658 9.5 18.6061 9.5 17.9158C9.5 17.2254 8.94036 16.6658 8.25 16.6658C7.55964 16.6658 7 17.2254 7 17.9158C7 18.6061 7.55964 19.1658 8.25 19.1658Z" fill="#5C5F61"/>
<path opacity="0.15" d="M8.25 18.3324C8.48012 18.3324 8.66667 18.1458 8.66667 17.9158C8.66667 17.6857 8.48012 17.4991 8.25 17.4991C8.01988 17.4991 7.83333 17.6857 7.83333 17.9158C7.83333 18.1458 8.01988 18.3324 8.25 18.3324Z" fill="black"/>
<path d="M15.49 4.24494C15.1708 3.92578 14.6554 3.91869 14.3275 4.22911L9.91667 8.40828V10.3383H19.9167V8.67161L15.49 4.24494Z" fill="url(#paint0_linear_40_3738)"/>
<path d="M9.91667 8.40829V9.50494H16.5833V7.83829L13.6329 4.88788L9.91667 8.40829Z" fill="url(#paint1_linear_40_3738)"/>
<path d="M11.3233 3.41163C11.0042 3.09246 10.4887 3.08538 10.1608 3.3958L5.75 7.57496V9.50494H15.75V7.8383L11.3233 3.41163Z" fill="url(#paint2_linear_40_3738)"/>
<path d="M11.3233 3.41163C11.0042 3.09246 10.4887 3.08538 10.1608 3.3958L5.75 7.57496V9.50494H15.75V7.8383L11.3233 3.41163Z" fill="url(#paint3_linear_40_3738)"/>
<path d="M5.94416 11.1978C5.75041 11.1978 5.57708 11.062 5.53625 10.8653L4.38 5.24783C4.30041 4.862 3.9575 4.58242 3.56375 4.58242H2.83333C2.60333 4.58242 2.41666 4.39575 2.41666 4.16575C2.41666 3.93575 2.60333 3.74908 2.83333 3.74908H3.56375C4.35083 3.74908 5.0375 4.30867 5.19625 5.0795L6.3525 10.697C6.39875 10.9224 6.25375 11.1428 6.02833 11.1891C6.00041 11.1953 5.97208 11.1978 5.94416 11.1978Z" fill="url(#paint4_linear_40_3738)"/>
<path d="M3.66667 4.16579C3.66667 4.62579 3.29333 4.99913 2.83333 4.99913C2.37333 4.99913 2 4.62579 2 4.16579C2 3.70579 2.37333 3.33246 2.83333 3.33246C3.29333 3.33246 3.66667 3.70579 3.66667 4.16579Z" fill="url(#paint5_linear_40_3738)"/>
<path d="M20.2963 7.04746L4.5 5.83246L4.82208 7.52412L20.4754 8.72829L20.675 7.53162C20.7154 7.29037 20.54 7.06621 20.2963 7.04746Z" fill="url(#paint6_linear_40_3738)"/>
<path d="M19.0833 17.0824H7.41667C6.4975 17.0824 5.75 16.3349 5.75 15.4158C5.75 14.4966 6.4975 13.7491 7.41667 13.7491H17.8333C18.0633 13.7491 18.25 13.9358 18.25 14.1658C18.25 14.3958 18.0633 14.5824 17.8333 14.5824H7.41667C6.95708 14.5824 6.58333 14.9562 6.58333 15.4158C6.58333 15.8753 6.95708 16.2491 7.41667 16.2491H19.0833C19.3133 16.2491 19.5 16.4358 19.5 16.6658C19.5 16.8958 19.3133 17.0824 19.0833 17.0824Z" fill="url(#paint7_linear_40_3738)"/>
<path d="M6.03751 13.9049C6.11251 14.2982 6.45626 14.5824 6.85626 14.5824H18.7942C19.2017 14.5824 19.5492 14.2878 19.6163 13.8862L20.4758 8.72828L4.8221 7.52411L6.03751 13.9049Z" fill="url(#paint8_linear_40_3738)"/>
<path d="M17.4167 19.1658C18.107 19.1658 18.6667 18.6061 18.6667 17.9158C18.6667 17.2254 18.107 16.6658 17.4167 16.6658C16.7263 16.6658 16.1667 17.2254 16.1667 17.9158C16.1667 18.6061 16.7263 19.1658 17.4167 19.1658Z" fill="#5C5F61"/>
<path opacity="0.15" d="M17.4167 18.3324C17.6467 18.3324 17.8333 18.1458 17.8333 17.9158C17.8333 17.6857 17.6467 17.4991 17.4167 17.4991C17.1866 17.4991 17 17.6857 17 17.9158C17 18.1458 17.1866 18.3324 17.4167 18.3324Z" fill="black"/>
<path opacity="0.05" d="M19.0833 16.2491H13.2713C13.2588 16.3866 13.25 16.5249 13.25 16.6658C13.25 16.8066 13.2588 16.9449 13.2713 17.0824H19.0833C19.3133 17.0824 19.5 16.8958 19.5 16.6658C19.5 16.4358 19.3133 16.2491 19.0833 16.2491Z" fill="black"/>
<path opacity="0.05" d="M17.8333 12.0825C16.0567 12.0825 14.5163 13.1008 13.7558 14.5825H18.7942C19.2017 14.5825 19.5492 14.2879 19.6163 13.8862L19.8388 12.5508C19.2321 12.2537 18.5533 12.0825 17.8333 12.0825Z" fill="black"/>
<path opacity="0.07" d="M17.8333 12.2908C16.1746 12.2908 14.7288 13.2187 13.9871 14.5824H18.7942C19.2017 14.5824 19.5492 14.2879 19.6163 13.8862L19.8033 12.7645C19.2104 12.4641 18.5425 12.2908 17.8333 12.2908Z" fill="black"/>
<path opacity="0.07" d="M19.0833 16.2491H13.4796C13.4667 16.3862 13.4583 16.5249 13.4583 16.6658C13.4583 16.8066 13.4662 16.9453 13.4796 17.0824H19.0833C19.3133 17.0824 19.5 16.8958 19.5 16.6658C19.5 16.4358 19.3133 16.2491 19.0833 16.2491Z" fill="black"/>
<path d="M17.8333 20.8324C20.1345 20.8324 22 18.9669 22 16.6658C22 14.3646 20.1345 12.4991 17.8333 12.4991C15.5322 12.4991 13.6667 14.3646 13.6667 16.6658C13.6667 18.9669 15.5322 20.8324 17.8333 20.8324Z" fill="url(#paint9_linear_40_3738)"/>
<path d="M17.8333 20.4158C19.9044 20.4158 21.5833 18.7369 21.5833 16.6658C21.5833 14.5947 19.9044 12.9158 17.8333 12.9158C15.7622 12.9158 14.0833 14.5947 14.0833 16.6658C14.0833 18.7369 15.7622 20.4158 17.8333 20.4158Z" fill="url(#paint10_radial_40_3738)"/>
<path d="M17.8333 19.9991C19.6742 19.9991 21.1667 18.5067 21.1667 16.6658C21.1667 14.8249 19.6742 13.3325 17.8333 13.3325C15.9924 13.3325 14.5 14.8249 14.5 16.6658C14.5 18.5067 15.9924 19.9991 17.8333 19.9991Z" fill="url(#paint11_radial_40_3738)"/>
<path d="M19.0496 19.027C18.9729 19.0666 18.8788 19.0362 18.8392 18.9595L17.6946 16.737C17.655 16.6603 17.6854 16.5662 17.7621 16.5266C17.8387 16.487 17.9329 16.5174 17.9725 16.5941L19.1171 18.8166C19.1563 18.8932 19.1262 18.9878 19.0496 19.027Z" fill="#D83B01"/>
<path d="M17.8333 16.822C17.7933 16.822 17.7533 16.8066 17.7229 16.7762C17.6621 16.7154 17.6621 16.6162 17.7229 16.5554L19.4908 14.7874C19.5517 14.7266 19.6508 14.7266 19.7117 14.7874C19.7725 14.8483 19.7725 14.9474 19.7117 15.0083L17.9437 16.7762C17.9133 16.8066 17.8733 16.822 17.8333 16.822Z" fill="#45494D"/>
<path d="M17.8333 16.9262C17.7954 16.9262 17.7571 16.9179 17.7208 16.9004L16.0983 16.122C15.9687 16.06 15.9142 15.9045 15.9762 15.7745C16.0383 15.645 16.1942 15.59 16.3237 15.6525L17.9462 16.4308C18.0758 16.4929 18.1304 16.6483 18.0683 16.7783C18.0233 16.8716 17.93 16.9262 17.8333 16.9262Z" fill="#45494D"/>
<path d="M17.8333 17.0824C18.0634 17.0824 18.25 16.8958 18.25 16.6658C18.25 16.4357 18.0634 16.2491 17.8333 16.2491C17.6033 16.2491 17.4167 16.4357 17.4167 16.6658C17.4167 16.8958 17.6033 17.0824 17.8333 17.0824Z" fill="#1E2021"/>
<defs>
<linearGradient id="paint0_linear_40_3738" x1="9.91667" y1="7.16953" x2="19.9167" y2="7.16953" gradientUnits="userSpaceOnUse">
<stop stop-color="#EBA600"/>
<stop offset="1" stop-color="#C28200"/>
</linearGradient>
<linearGradient id="paint1_linear_40_3738" x1="15.4667" y1="6.73913" x2="13.6117" y2="8.59454" gradientUnits="userSpaceOnUse">
<stop stop-opacity="0"/>
<stop offset="1"/>
</linearGradient>
<linearGradient id="paint2_linear_40_3738" x1="5.75" y1="6.33621" x2="15.75" y2="6.33621" gradientUnits="userSpaceOnUse">
<stop stop-color="#FFCF54"/>
<stop offset="0.261" stop-color="#FDCB4D"/>
<stop offset="0.639" stop-color="#F7C13A"/>
<stop offset="1" stop-color="#F0B421"/>
</linearGradient>
<linearGradient id="paint3_linear_40_3738" x1="5.75" y1="6.33621" x2="15.75" y2="6.33621" gradientUnits="userSpaceOnUse">
<stop stop-color="#FFCF54"/>
<stop offset="0.261" stop-color="#FDCB4D"/>
<stop offset="0.639" stop-color="#F7C13A"/>
<stop offset="1" stop-color="#F0B421"/>
</linearGradient>
<linearGradient id="paint4_linear_40_3738" x1="4.38875" y1="11.1978" x2="4.38875" y2="3.74908" gradientUnits="userSpaceOnUse">
<stop stop-color="#92A3B0"/>
<stop offset="0.015" stop-color="#A3B5C4"/>
<stop offset="0.032" stop-color="#AEC2D1"/>
<stop offset="0.046" stop-color="#B2C6D6"/>
</linearGradient>
<linearGradient id="paint5_linear_40_3738" x1="2.315" y1="3.64746" x2="3.41" y2="4.74246" gradientUnits="userSpaceOnUse">
<stop stop-color="#199AE0"/>
<stop offset="1" stop-color="#0782D8"/>
</linearGradient>
<linearGradient id="paint6_linear_40_3738" x1="4.5" y1="7.28038" x2="20.6808" y2="7.28038" gradientUnits="userSpaceOnUse">
<stop stop-color="#42A3F2"/>
<stop offset="1" stop-color="#42A4EB"/>
</linearGradient>
<linearGradient id="paint7_linear_40_3738" x1="12.625" y1="17.0824" x2="12.625" y2="13.7491" gradientUnits="userSpaceOnUse">
<stop stop-color="#92A3B0"/>
<stop offset="0.015" stop-color="#A3B5C4"/>
<stop offset="0.032" stop-color="#AEC2D1"/>
<stop offset="0.046" stop-color="#B2C6D6"/>
</linearGradient>
<linearGradient id="paint8_linear_40_3738" x1="4.8221" y1="11.0533" x2="20.4758" y2="11.0533" gradientUnits="userSpaceOnUse">
<stop stop-color="#3079D6"/>
<stop offset="1" stop-color="#297CD2"/>
</linearGradient>
<linearGradient id="paint9_linear_40_3738" x1="14.8871" y1="13.7195" x2="20.7796" y2="19.612" gradientUnits="userSpaceOnUse">
<stop stop-color="#889097"/>
<stop offset="1" stop-color="#64717C"/>
</linearGradient>
<radialGradient id="paint10_radial_40_3738" cx="0" cy="0" r="1" gradientUnits="userSpaceOnUse" gradientTransform="translate(17.8333 16.6658) scale(3.75)">
<stop/>
<stop offset="1" stop-opacity="0"/>
</radialGradient>
<radialGradient id="paint11_radial_40_3738" cx="0" cy="0" r="1" gradientUnits="userSpaceOnUse" gradientTransform="translate(17.8117 13.41) scale(7.42833)">
<stop stop-color="#FAFAFB"/>
<stop offset="1" stop-color="#C8CDD1"/>
</radialGradient>
</defs>
</svg>
