<svg width="24" height="24" viewBox="0 0 24 24" fill="none" xmlns="http://www.w3.org/2000/svg">
<path d="M12.1971 5.5305L10.9895 4.32288C10.7219 4.05526 10.3586 3.90479 9.97952 3.90479H2.95238C2.42619 3.90479 2 4.33098 2 4.85717V19.1429C2 19.6691 2.42619 20.0953 2.95238 20.0953H21.0476C21.5738 20.0953 22 19.6691 22 19.1429V6.76193C22 6.23574 21.5738 5.80955 21.0476 5.80955H12.8705C12.6181 5.80955 12.3757 5.70907 12.1971 5.5305Z" fill="url(#paint0_linear_40_3818)"/>
<path d="M10.8505 7.43528L12.4067 5.87909C12.451 5.83481 12.5114 5.80957 12.5748 5.80957H21.0476C21.5738 5.80957 22 6.23576 22 6.76195V19.1429C22 19.6691 21.5738 20.0953 21.0476 20.0953H2.95238C2.42619 20.0953 2 19.6691 2 19.1429V7.95243C2 7.821 2.10667 7.71433 2.2381 7.71433H10.1771C10.4295 7.71433 10.6719 7.61386 10.8505 7.43528Z" fill="url(#paint1_linear_40_3818)"/>
<path d="M6.31095 15.8524L9.63619 12.5271C9.72714 12.4362 9.87476 12.4362 9.96571 12.5271L10.9538 13.5152C11.0448 13.6062 11.0448 13.7538 10.9538 13.8448L7.62857 17.17C7.53762 17.2609 7.39 17.2609 7.29905 17.17L6.31095 16.1819C6.22 16.0909 6.22 15.9433 6.31095 15.8524Z" fill="url(#paint2_linear_40_3818)"/>
<path d="M7.65381 10.1634L10.979 13.4886C11.07 13.5796 11.07 13.7272 10.979 13.8181L9.99095 14.8062C9.9 14.8972 9.75238 14.8972 9.66143 14.8062L6.33619 11.481C6.24524 11.39 6.24524 11.2424 6.33619 11.1515L7.32428 10.1634C7.41571 10.0724 7.56286 10.0724 7.65381 10.1634Z" fill="url(#paint3_linear_40_3818)"/>
<path d="M12.7143 15.8096H17.9524C18.0838 15.8096 18.1905 15.9162 18.1905 16.0477V17C18.1905 17.1315 18.0838 17.2381 17.9524 17.2381H12.7143C12.5829 17.2381 12.4762 17.1315 12.4762 17V16.0477C12.4762 15.9162 12.5829 15.8096 12.7143 15.8096Z" fill="url(#paint4_linear_40_3818)"/>
<defs>
<linearGradient id="paint0_linear_40_3818" x1="12" y1="3.76574" x2="12" y2="7.70336" gradientUnits="userSpaceOnUse">
<stop stop-color="#EBA600"/>
<stop offset="1" stop-color="#C28200"/>
</linearGradient>
<linearGradient id="paint1_linear_40_3818" x1="12" y1="5.74005" x2="12" y2="20.0872" gradientUnits="userSpaceOnUse">
<stop stop-color="#FFD869"/>
<stop offset="1" stop-color="#FEC52B"/>
</linearGradient>
<linearGradient id="paint2_linear_40_3818" x1="6.86524" y1="16.6152" x2="9.84" y2="13.6405" gradientUnits="userSpaceOnUse">
<stop stop-color="#1552B3"/>
<stop offset="0.275" stop-color="#144FAE"/>
<stop offset="0.623" stop-color="#12479E"/>
<stop offset="0.86" stop-color="#103F8F"/>
</linearGradient>
<linearGradient id="paint3_linear_40_3818" x1="6.92476" y1="10.7515" x2="10.4848" y2="14.3115" gradientUnits="userSpaceOnUse">
<stop stop-color="#1F60C2"/>
<stop offset="1" stop-color="#195BBC"/>
</linearGradient>
<linearGradient id="paint4_linear_40_3818" x1="12.4762" y1="16.5239" x2="18.1905" y2="16.5239" gradientUnits="userSpaceOnUse">
<stop stop-color="#1F60C2"/>
<stop offset="1" stop-color="#195BBC"/>
</linearGradient>
</defs>
</svg>
