<svg width="24" height="24" viewBox="0 0 24 24" fill="none" xmlns="http://www.w3.org/2000/svg">
<path d="M20.3333 22H5.88889C5.275 22 4.77778 21.5028 4.77778 20.8889V3.11111C4.77778 2.49722 5.275 2 5.88889 2H20.3333C20.9472 2 21.4444 2.49722 21.4444 3.11111V20.8889C21.4444 21.5028 20.9472 22 20.3333 22Z" fill="url(#paint0_linear_40_3848)"/>
<path d="M19.2222 20.8889V19.2222H2.55556V20.8889C2.55556 21.5028 3.05278 22 3.66667 22H20.3333C19.7194 22 19.2222 21.5028 19.2222 20.8889Z" fill="url(#paint1_linear_40_3848)"/>
<path d="M18.3889 9.22221H11.1667C11.0133 9.22221 10.8889 9.09776 10.8889 8.94443V7.83332C10.8889 7.67999 11.0133 7.55554 11.1667 7.55554H18.3889C18.5422 7.55554 18.6667 7.67999 18.6667 7.83332V8.94443C18.6667 9.09776 18.5422 9.22221 18.3889 9.22221Z" fill="#057093"/>
<path d="M18.3889 12.5556H11.1667C11.0133 12.5556 10.8889 12.4311 10.8889 12.2778V11.1667C10.8889 11.0134 11.0133 10.8889 11.1667 10.8889H18.3889C18.5422 10.8889 18.6667 11.0134 18.6667 11.1667V12.2778C18.6667 12.4311 18.5422 12.5556 18.3889 12.5556Z" fill="#057093"/>
<path d="M18.3889 15.8889H11.1667C11.0133 15.8889 10.8889 15.7645 10.8889 15.6111V14.5C10.8889 14.3467 11.0133 14.2222 11.1667 14.2222H18.3889C18.5422 14.2222 18.6667 14.3467 18.6667 14.5V15.6111C18.6667 15.7645 18.5422 15.8889 18.3889 15.8889Z" fill="#057093"/>
<path d="M8.94445 9.22221H7.83334C7.68 9.22221 7.55556 9.09776 7.55556 8.94443V7.83332C7.55556 7.67999 7.68 7.55554 7.83334 7.55554H8.94445C9.09778 7.55554 9.22222 7.67999 9.22222 7.83332V8.94443C9.22222 9.09776 9.09778 9.22221 8.94445 9.22221Z" fill="#057093"/>
<path d="M8.94445 12.5556H7.83334C7.68 12.5556 7.55556 12.4311 7.55556 12.2778V11.1667C7.55556 11.0134 7.68 10.8889 7.83334 10.8889H8.94445C9.09778 10.8889 9.22222 11.0134 9.22222 11.1667V12.2778C9.22222 12.4311 9.09778 12.5556 8.94445 12.5556Z" fill="#057093"/>
<path d="M8.94445 15.8889H7.83334C7.68 15.8889 7.55556 15.7645 7.55556 15.6111V14.5C7.55556 14.3467 7.68 14.2222 7.83334 14.2222H8.94445C9.09778 14.2222 9.22222 14.3467 9.22222 14.5V15.6111C9.22222 15.7645 9.09778 15.8889 8.94445 15.8889Z" fill="#057093"/>
<defs>
<linearGradient id="paint0_linear_40_3848" x1="7.52889" y1="2.79444" x2="19.4367" y2="22.4317" gradientUnits="userSpaceOnUse">
<stop stop-color="#7DD8F3"/>
<stop offset="1" stop-color="#45B0D0"/>
</linearGradient>
<linearGradient id="paint1_linear_40_3848" x1="11.4444" y1="19.38" x2="11.4444" y2="22.0056" gradientUnits="userSpaceOnUse">
<stop stop-color="#0176D0"/>
<stop offset="1" stop-color="#16538C"/>
</linearGradient>
</defs>
</svg>
