<svg width="24" height="24" viewBox="0 0 24 24" fill="none" xmlns="http://www.w3.org/2000/svg">
<path d="M6.76175 16.7621V12.971C6.76175 12.7439 6.68032 12.5238 6.5327 12.351L4.74265 10.2624C4.45454 9.92662 3.90453 10.1304 3.90453 10.5724V16.7621H6.76175Z" fill="#0368BA"/>
<path d="M17.2382 7.23798V11.029C17.2382 11.2562 17.3197 11.4762 17.4673 11.6491L19.2574 13.7377C19.5455 14.0734 20.0955 13.8696 20.0955 13.4277V7.23798H17.2382Z" fill="#0368BA"/>
<path d="M15.8096 14.7668V16.7621H3.90453L6.20364 19.0612C6.56079 19.4183 7.04557 19.6193 7.55035 19.6193H15.8096V21.6146C15.8096 21.9575 16.2239 22.1289 16.4663 21.8865L19.6574 18.6955C19.9364 18.4164 19.9364 17.964 19.6574 17.6854L16.4663 14.4944C16.2239 14.252 15.8096 14.4239 15.8096 14.7668Z" fill="#0884DB"/>
<path d="M8.19037 9.23325V7.23796H20.0955L17.7964 4.93884C17.4387 4.58121 16.9544 4.38073 16.4492 4.38073H8.19037V2.38543C8.19037 2.04257 7.77607 1.87113 7.53368 2.11352L4.34263 5.30409C4.06358 5.58315 4.06358 6.03554 4.34263 6.31412L7.53368 9.50516C7.77607 9.74803 8.19037 9.57612 8.19037 9.23325Z" fill="#0884DB"/>
</svg>
