<svg width="24" height="24" viewBox="0 0 24 24" fill="none" xmlns="http://www.w3.org/2000/svg">
<path d="M17.122 7.36585V19.561C17.122 20.1 16.6854 20.5366 16.1463 20.5366H3.46341C2.92439 20.5366 2.4878 20.1 2.4878 19.561V2.97561C2.4878 2.43659 2.92439 2 3.46341 2H11.7561L17.122 7.36585Z" fill="url(#paint0_linear_40_4042)"/>
<path d="M11.7561 2V6.39024C11.7561 6.92927 12.1927 7.36585 12.7317 7.36585H17.122L11.7561 2Z" fill="url(#paint1_linear_40_4042)"/>
<path d="M13.9512 9.80489H5.65854C5.5239 9.80489 5.41463 9.69563 5.41463 9.56099V9.07319C5.41463 8.93855 5.5239 8.82928 5.65854 8.82928H13.9512C14.0859 8.82928 14.1951 8.93855 14.1951 9.07319V9.56099C14.1951 9.69563 14.0859 9.80489 13.9512 9.80489Z" fill="#057093"/>
<path d="M12.9756 11.7561H5.65854C5.5239 11.7561 5.41463 11.6469 5.41463 11.5122V11.0244C5.41463 10.8898 5.5239 10.7805 5.65854 10.7805H12.9756C13.1102 10.7805 13.2195 10.8898 13.2195 11.0244V11.5122C13.2195 11.6469 13.1102 11.7561 12.9756 11.7561Z" fill="#057093"/>
<path d="M13.9512 13.7073H5.65854C5.5239 13.7073 5.41463 13.598 5.41463 13.4634V12.9756C5.41463 12.841 5.5239 12.7317 5.65854 12.7317H13.9512C14.0859 12.7317 14.1951 12.841 14.1951 12.9756V13.4634C14.1951 13.598 14.0859 13.7073 13.9512 13.7073Z" fill="#057093"/>
<path d="M12.9756 15.6585H5.65854C5.5239 15.6585 5.41463 15.5493 5.41463 15.4146V14.9268C5.41463 14.7922 5.5239 14.6829 5.65854 14.6829H12.9756C13.1102 14.6829 13.2195 14.7922 13.2195 14.9268V15.4146C13.2195 15.5493 13.1102 15.6585 12.9756 15.6585Z" fill="#057093"/>
<path d="M14.1951 22H12.7317C12.4624 22 12.2439 21.7814 12.2439 21.5122V18.5853C12.2439 18.3161 12.4624 18.0975 12.7317 18.0975H14.1951C14.4644 18.0975 14.6829 18.3161 14.6829 18.5853V21.5122C14.6829 21.7814 14.4644 22 14.1951 22Z" fill="url(#paint2_linear_40_4042)"/>
<path d="M17.6098 22H16.1463C15.8771 22 15.6585 21.7814 15.6585 21.5122V15.6585C15.6585 15.3893 15.8771 15.1707 16.1463 15.1707H17.6098C17.879 15.1707 18.0976 15.3893 18.0976 15.6585V21.5122C18.0976 21.7814 17.879 22 17.6098 22Z" fill="url(#paint3_linear_40_4042)"/>
<path d="M21.0244 22H19.561C19.2917 22 19.0732 21.7815 19.0732 21.5122V17.122C19.0732 16.8527 19.2917 16.6342 19.561 16.6342H21.0244C21.2937 16.6342 21.5122 16.8527 21.5122 17.122V21.5122C21.5122 21.7815 21.2937 22 21.0244 22Z" fill="url(#paint4_linear_40_4042)"/>
<defs>
<linearGradient id="paint0_linear_40_4042" x1="7.83439" y1="2.80803" x2="12.3055" y2="22.2184" gradientUnits="userSpaceOnUse">
<stop stop-color="#32BDEF"/>
<stop offset="1" stop-color="#1EA2E4"/>
</linearGradient>
<linearGradient id="paint1_linear_40_4042" x1="12.0141" y1="7.10781" x2="14.4878" y2="4.63415" gradientUnits="userSpaceOnUse">
<stop stop-color="#3079D6"/>
<stop offset="1" stop-color="#297CD2"/>
</linearGradient>
<linearGradient id="paint2_linear_40_4042" x1="12.2439" y1="20.0488" x2="14.6829" y2="20.0488" gradientUnits="userSpaceOnUse">
<stop stop-color="#3079D6"/>
<stop offset="1" stop-color="#297CD2"/>
</linearGradient>
<linearGradient id="paint3_linear_40_4042" x1="15.6585" y1="18.5853" x2="18.0976" y2="18.5853" gradientUnits="userSpaceOnUse">
<stop stop-color="#3079D6"/>
<stop offset="1" stop-color="#297CD2"/>
</linearGradient>
<linearGradient id="paint4_linear_40_4042" x1="19.0732" y1="19.3171" x2="21.5122" y2="19.3171" gradientUnits="userSpaceOnUse">
<stop stop-color="#3079D6"/>
<stop offset="1" stop-color="#297CD2"/>
</linearGradient>
</defs>
</svg>
