<svg width="24" height="24" viewBox="0 0 24 24" fill="none" xmlns="http://www.w3.org/2000/svg">
<path d="M2.52632 20.9474V6.21051H21.4737V20.9474C21.4737 21.5263 21 22 20.4211 22H3.57895C3.00001 22 2.52632 21.5263 2.52632 20.9474Z" fill="url(#paint0_linear_40_4064)"/>
<path d="M21.4737 4.10524V7.26314H2.52632V4.10524C2.52632 3.5263 3.00001 3.05261 3.57895 3.05261H20.4211C21 3.05261 21.4737 3.5263 21.4737 4.10524Z" fill="url(#paint1_linear_40_4064)"/>
<path opacity="0.05" d="M18.0526 6.47366C17.1805 6.47366 16.4737 5.76682 16.4737 4.89472V3.05261H19.6316V4.89472C19.6316 5.76682 18.9247 6.47366 18.0526 6.47366Z" fill="black"/>
<path opacity="0.07" d="M18.0526 6.07893C17.3984 6.07893 16.8684 5.54893 16.8684 4.89472V3.05261H19.2368V4.89472C19.2368 5.54893 18.7068 6.07893 18.0526 6.07893Z" fill="black"/>
<path opacity="0.05" d="M5.94737 6.47366C5.07527 6.47366 4.36842 5.76682 4.36842 4.89472V3.05261H7.52632V4.89472C7.52632 5.76682 6.81948 6.47366 5.94737 6.47366Z" fill="black"/>
<path opacity="0.07" d="M5.94738 6.07893C5.29317 6.07893 4.76317 5.54893 4.76317 4.89472V3.05261H7.13159V4.89472C7.13159 5.54893 6.60159 6.07893 5.94738 6.07893Z" fill="black"/>
<path d="M5.94737 5.68421C5.51158 5.68421 5.1579 5.33053 5.1579 4.89474V2.78947C5.1579 2.35368 5.51158 2 5.94737 2C6.38316 2 6.73685 2.35368 6.73685 2.78947V4.89474C6.73685 5.33053 6.38316 5.68421 5.94737 5.68421Z" fill="#3CCBF4"/>
<path d="M15.1579 13.8421V15.421C15.1579 15.5663 15.04 15.6842 14.8947 15.6842H13.3158C13.1705 15.6842 13.0526 15.5663 13.0526 15.421V13.8421C13.0526 13.6968 13.1705 13.5789 13.3158 13.5789H14.8947C15.04 13.5789 15.1579 13.6968 15.1579 13.8421Z" fill="url(#paint2_linear_40_4064)"/>
<path d="M10.9474 13.8421V15.421C10.9474 15.5663 10.8295 15.6842 10.6842 15.6842H9.10528C8.96001 15.6842 8.84212 15.5663 8.84212 15.421V13.8421C8.84212 13.6968 8.96001 13.5789 9.10528 13.5789H10.6842C10.8295 13.5789 10.9474 13.6968 10.9474 13.8421Z" fill="url(#paint3_linear_40_4064)"/>
<path d="M6.73686 10.1579V11.7368C6.73686 11.8821 6.61896 12 6.4737 12H4.89475C4.74949 12 4.63159 11.8821 4.63159 11.7368V10.1579C4.63159 10.0126 4.74949 9.89471 4.89475 9.89471H6.4737C6.61896 9.89471 6.73686 10.0126 6.73686 10.1579Z" fill="white"/>
<path d="M19.3684 17.5263V19.1053C19.3684 19.2506 19.2505 19.3684 19.1053 19.3684H17.5263C17.3811 19.3684 17.2632 19.2506 17.2632 19.1053V17.5263C17.2632 17.3811 17.3811 17.2632 17.5263 17.2632H19.1053C19.2505 17.2632 19.3684 17.3811 19.3684 17.5263Z" fill="white"/>
<path d="M15.1579 17.5263V19.1053C15.1579 19.2506 15.04 19.3684 14.8947 19.3684H13.3158C13.1705 19.3684 13.0526 19.2506 13.0526 19.1053V17.5263C13.0526 17.3811 13.1705 17.2632 13.3158 17.2632H14.8947C15.04 17.2632 15.1579 17.3811 15.1579 17.5263Z" fill="url(#paint4_linear_40_4064)"/>
<path d="M10.9474 17.5263V19.1053C10.9474 19.2506 10.8295 19.3684 10.6842 19.3684H9.10528C8.96001 19.3684 8.84212 19.2506 8.84212 19.1053V17.5263C8.84212 17.3811 8.96001 17.2632 9.10528 17.2632H10.6842C10.8295 17.2632 10.9474 17.3811 10.9474 17.5263Z" fill="url(#paint5_linear_40_4064)"/>
<path d="M6.73686 13.8421V15.421C6.73686 15.5663 6.61896 15.6842 6.4737 15.6842H4.89475C4.74949 15.6842 4.63159 15.5663 4.63159 15.421V13.8421C4.63159 13.6968 4.74949 13.5789 4.89475 13.5789H6.4737C6.61896 13.5789 6.73686 13.6968 6.73686 13.8421Z" fill="url(#paint6_linear_40_4064)"/>
<path d="M6.73686 17.5263V19.1053C6.73686 19.2506 6.61896 19.3684 6.4737 19.3684H4.89475C4.74949 19.3684 4.63159 19.2506 4.63159 19.1053V17.5263C4.63159 17.3811 4.74949 17.2632 4.89475 17.2632H6.4737C6.61896 17.2632 6.73686 17.3811 6.73686 17.5263Z" fill="url(#paint7_linear_40_4064)"/>
<path d="M18.0526 5.68421C17.6169 5.68421 17.2632 5.33053 17.2632 4.89474V2.78947C17.2632 2.35368 17.6169 2 18.0526 2C18.4884 2 18.8421 2.35368 18.8421 2.78947V4.89474C18.8421 5.33053 18.4884 5.68421 18.0526 5.68421Z" fill="#3CCBF4"/>
<path d="M18.8421 14.6316H17.7895V11.4737H9.10528C8.96001 11.4737 8.84212 11.3558 8.84212 11.2106V10.6842C8.84212 10.539 8.96001 10.4211 9.10528 10.4211H17.7895C18.3711 10.4211 18.8421 10.8921 18.8421 11.4737V14.6316Z" fill="white"/>
<path d="M18.1295 15.4979L17.1858 14.5542C17.0205 14.389 17.1379 14.1053 17.3721 14.1053H19.2595C19.4937 14.1053 19.6116 14.389 19.4458 14.5548L18.5021 15.4984C18.3989 15.6011 18.2326 15.6011 18.1295 15.4979Z" fill="white"/>
<defs>
<linearGradient id="paint0_linear_40_4064" x1="2.74422" y1="7.08525" x2="21.3547" y2="20.6779" gradientUnits="userSpaceOnUse">
<stop stop-color="#28AFEA"/>
<stop offset="1" stop-color="#047ED6"/>
</linearGradient>
<linearGradient id="paint1_linear_40_4064" x1="2.74737" y1="3.37261" x2="21.0516" y2="7.09472" gradientUnits="userSpaceOnUse">
<stop stop-color="#0077D2"/>
<stop offset="1" stop-color="#0B59A2"/>
</linearGradient>
<linearGradient id="paint2_linear_40_4064" x1="13.8218" y1="13.6707" x2="14.2304" y2="15.9179" gradientUnits="userSpaceOnUse">
<stop stop-color="#32BDEF"/>
<stop offset="1" stop-color="#1EA2E4"/>
</linearGradient>
<linearGradient id="paint3_linear_40_4064" x1="9.61128" y1="13.6707" x2="10.0199" y2="15.9179" gradientUnits="userSpaceOnUse">
<stop stop-color="#32BDEF"/>
<stop offset="1" stop-color="#1EA2E4"/>
</linearGradient>
<linearGradient id="paint4_linear_40_4064" x1="13.8218" y1="17.355" x2="14.2304" y2="19.6021" gradientUnits="userSpaceOnUse">
<stop stop-color="#32BDEF"/>
<stop offset="1" stop-color="#1EA2E4"/>
</linearGradient>
<linearGradient id="paint5_linear_40_4064" x1="9.61128" y1="17.355" x2="10.0199" y2="19.6021" gradientUnits="userSpaceOnUse">
<stop stop-color="#32BDEF"/>
<stop offset="1" stop-color="#1EA2E4"/>
</linearGradient>
<linearGradient id="paint6_linear_40_4064" x1="5.40075" y1="13.6707" x2="5.80939" y2="15.9179" gradientUnits="userSpaceOnUse">
<stop stop-color="#32BDEF"/>
<stop offset="1" stop-color="#1EA2E4"/>
</linearGradient>
<linearGradient id="paint7_linear_40_4064" x1="5.40075" y1="17.355" x2="5.80939" y2="19.6021" gradientUnits="userSpaceOnUse">
<stop stop-color="#32BDEF"/>
<stop offset="1" stop-color="#1EA2E4"/>
</linearGradient>
</defs>
</svg>
