<svg width="24" height="24" viewBox="0 0 24 24" fill="none" xmlns="http://www.w3.org/2000/svg">
<path d="M21.2464 11.7803C20.9777 11.7803 19.5684 11.7803 19.2998 11.7803C19.0311 11.7803 18.8131 11.9984 18.8131 12.267C18.8131 16.0298 15.7628 19.0801 12 19.0801C8.23722 19.0801 5.1869 16.0298 5.1869 12.267H2.267C2.267 17.6425 6.62446 22 12 22C17.3755 22 21.733 17.6425 21.733 12.267C21.733 11.9984 21.515 11.7803 21.2464 11.7803Z" fill="url(#paint0_radial_40_4084)"/>
<path d="M16.8081 2.2342L14.2386 7.28903C14.0658 7.6292 14.3904 8.0083 14.753 7.89005L18.3941 6.70311C18.7133 6.59897 18.8876 6.25588 18.7834 5.93663L17.597 2.29552C17.4787 1.93296 16.9809 1.89403 16.8081 2.2342Z" fill="url(#paint1_linear_40_4084)"/>
<path d="M5.1869 12.267C5.1869 8.50422 8.23722 5.4539 12 5.4539C13.0954 5.4539 14.1271 5.71863 15.0445 6.17852L16.3492 3.5691C15.0391 2.91261 13.5651 2.534 12 2.534C6.62446 2.534 2.267 6.89146 2.267 12.267C2.267 17.6425 6.62446 22 12 22C9.65386 21.636 5.1869 19.5132 5.1869 12.267Z" fill="url(#paint2_linear_40_4084)"/>
<defs>
<radialGradient id="paint0_radial_40_4084" cx="0" cy="0" r="1" gradientUnits="userSpaceOnUse" gradientTransform="translate(14.0843 12.814) scale(10.6012)">
<stop offset="0.266" stop-color="#0071D4"/>
<stop offset="0.535" stop-color="#006FD2"/>
<stop offset="0.673" stop-color="#0068CA"/>
<stop offset="0.782" stop-color="#005DBD"/>
<stop offset="0.876" stop-color="#004DAA"/>
<stop offset="0.959" stop-color="#003891"/>
<stop offset="1" stop-color="#002B82"/>
</radialGradient>
<linearGradient id="paint1_linear_40_4084" x1="13.7281" y1="0.862334" x2="23.7434" y2="19.6913" gradientUnits="userSpaceOnUse">
<stop stop-color="#32BDEF"/>
<stop offset="1" stop-color="#1EA2E4"/>
</linearGradient>
<linearGradient id="paint2_linear_40_4084" x1="6.8308" y1="4.4767" x2="16.2694" y2="22.2209" gradientUnits="userSpaceOnUse">
<stop stop-color="#32BDEF"/>
<stop offset="1" stop-color="#1EA2E4"/>
</linearGradient>
</defs>
</svg>
