<svg width="24" height="24" viewBox="0 0 24 24" fill="none" xmlns="http://www.w3.org/2000/svg">
<path d="M20.8889 22H5.33333C3.5 22 2 20.5 2 18.6667V3.11111C2 2.5 2.5 2 3.11111 2H20.8889C21.5 2 22 2.5 22 3.11111V20.8889C22 21.5 21.5 22 20.8889 22Z" fill="url(#paint0_linear_40_4089)"/>
<path d="M12 22H3.11111C2.5 22 2 21.5 2 20.8889V12C2 11.3889 2.5 10.8889 3.11111 10.8889H12C12.6111 10.8889 13.1111 11.3889 13.1111 12V20.8889C13.1111 21.5 12.6111 22 12 22Z" fill="url(#paint1_linear_40_4089)"/>
<path d="M11.2144 11.3094L17.4439 5.07996L18.92 6.55607L12.6906 12.7855L11.2144 11.3094Z" fill="url(#paint2_linear_40_4089)"/>
<path d="M19.7778 8.55167V4.77778C19.7778 4.47112 19.5289 4.22223 19.2222 4.22223H15.4483C15.2011 4.22223 15.0767 4.52167 15.2517 4.69667L19.3033 8.74834C19.4783 8.92278 19.7778 8.79889 19.7778 8.55167Z" fill="url(#paint3_linear_40_4089)"/>
<defs>
<linearGradient id="paint0_linear_40_4089" x1="8.30571" y1="2.30706" x2="18.1954" y2="21.3752" gradientUnits="userSpaceOnUse">
<stop stop-color="#7DD8F3"/>
<stop offset="1" stop-color="#45B0D0"/>
</linearGradient>
<linearGradient id="paint1_linear_40_4089" x1="7.55556" y1="10.8656" x2="7.55556" y2="21.9599" gradientUnits="userSpaceOnUse">
<stop stop-color="#2AA4F4"/>
<stop offset="1" stop-color="#007AD9"/>
</linearGradient>
<linearGradient id="paint2_linear_40_4089" x1="15.0672" y1="5.0638" x2="15.0672" y2="12.7577" gradientUnits="userSpaceOnUse">
<stop stop-color="#2AA4F4"/>
<stop offset="1" stop-color="#007AD9"/>
</linearGradient>
<linearGradient id="paint3_linear_40_4089" x1="17.4738" y1="4.21256" x2="17.4738" y2="8.81326" gradientUnits="userSpaceOnUse">
<stop stop-color="#2AA4F4"/>
<stop offset="1" stop-color="#007AD9"/>
</linearGradient>
</defs>
</svg>
