<svg width="24" height="24" viewBox="0 0 24 24" fill="none" xmlns="http://www.w3.org/2000/svg">
<path d="M2 20.8889C2 21.5028 2.49722 22 3.11111 22H16.4444C17.0583 22 17.5556 21.5028 17.5556 20.8889V3.11111C17.5556 2.49722 17.0583 2 16.4444 2H3.11111C2.49722 2 2 2.49722 2 3.11111V20.8889Z" fill="url(#paint0_linear_40_4154)"/>
<path d="M14.2222 22H20.8889C21.5028 22 22 21.5028 22 20.8889V3.11111C22 2.49722 21.5028 2 20.8889 2H14.2222V22Z" fill="url(#paint1_linear_40_4154)"/>
<path d="M16.4444 3.11108C15.8306 3.11108 15.3333 3.60831 15.3333 4.2222C15.3333 4.83608 15.8306 5.33331 16.4444 5.33331C17.0583 5.33331 17.5556 4.83608 17.5556 4.2222C17.5556 3.60831 17.0583 3.11108 16.4444 3.11108Z" fill="url(#paint2_linear_40_4154)"/>
<path d="M19.7778 3.11108C19.1639 3.11108 18.6667 3.60831 18.6667 4.2222C18.6667 4.83608 19.1639 5.33331 19.7778 5.33331C20.3917 5.33331 20.8889 4.83608 20.8889 4.2222C20.8889 3.60831 20.3917 3.11108 19.7778 3.11108Z" fill="url(#paint3_linear_40_4154)"/>
<path d="M20.6111 7.55557H15.6111C15.4578 7.55557 15.3333 7.43112 15.3333 7.27779V6.72224C15.3333 6.5689 15.4578 6.44446 15.6111 6.44446H20.6111C20.7644 6.44446 20.8889 6.5689 20.8889 6.72224V7.27779C20.8889 7.43112 20.7644 7.55557 20.6111 7.55557Z" fill="url(#paint4_linear_40_4154)"/>
<defs>
<linearGradient id="paint0_linear_40_4154" x1="5.4462" y1="-0.979459" x2="19.8876" y2="15.5091" gradientUnits="userSpaceOnUse">
<stop stop-color="#FCFCFC"/>
<stop offset="0.95" stop-color="#C3C9CD"/>
</linearGradient>
<linearGradient id="paint1_linear_40_4154" x1="22" y1="12" x2="14.2222" y2="12" gradientUnits="userSpaceOnUse">
<stop stop-color="#1951A8"/>
<stop offset="0.175" stop-color="#1955B0"/>
<stop offset="0.505" stop-color="#195AB9"/>
<stop offset="1" stop-color="#195BBC"/>
</linearGradient>
<linearGradient id="paint2_linear_40_4154" x1="15.4989" y1="3.27664" x2="17.0856" y2="4.86331" gradientUnits="userSpaceOnUse">
<stop stop-color="#FFC430"/>
<stop offset="0.41" stop-color="#FEC130"/>
<stop offset="0.72" stop-color="#FCB730"/>
<stop offset="0.998" stop-color="#F7A72F"/>
<stop offset="1" stop-color="#F7A72F"/>
</linearGradient>
<linearGradient id="paint3_linear_40_4154" x1="18.8233" y1="3.26775" x2="20.4061" y2="4.85053" gradientUnits="userSpaceOnUse">
<stop stop-color="#9DFFCE"/>
<stop offset="1" stop-color="#50D18D"/>
</linearGradient>
<linearGradient id="paint4_linear_40_4154" x1="15.3333" y1="7.00001" x2="20.8889" y2="7.00001" gradientUnits="userSpaceOnUse">
<stop stop-color="#7DD8F3"/>
<stop offset="1" stop-color="#45B0D0"/>
</linearGradient>
</defs>
</svg>
