<svg width="24" height="24" viewBox="0 0 24 24" fill="none" xmlns="http://www.w3.org/2000/svg">
<path d="M18.6667 2H5.33333C3.49222 2 2 3.49222 2 5.33333V18.6667C2 20.5078 3.49222 22 5.33333 22H18.6667C20.5078 22 22 20.5078 22 18.6667V5.33333C22 3.49222 20.5078 2 18.6667 2Z" fill="url(#paint0_linear_40_4185)"/>
<path opacity="0.05" d="M6.72223 19.7778C8.10294 19.7778 9.22223 18.6584 9.22223 17.2778C9.22223 15.8971 8.10294 14.7778 6.72223 14.7778C5.34152 14.7778 4.22223 15.8971 4.22223 17.2778C4.22223 18.6584 5.34152 19.7778 6.72223 19.7778Z" fill="black"/>
<path opacity="0.07" d="M6.72222 19.5C7.94952 19.5 8.94444 18.5051 8.94444 17.2778C8.94444 16.0504 7.94952 15.0555 6.72222 15.0555C5.49492 15.0555 4.5 16.0504 4.5 17.2778C4.5 18.5051 5.49492 19.5 6.72222 19.5Z" fill="black"/>
<path d="M8.66666 17.2778C8.66666 16.2222 7.77777 15.3333 6.72222 15.3333C5.66666 15.3333 4.77777 16.2222 4.77777 17.2778C4.77777 18.3333 5.66666 19.2222 6.72222 19.2222C7.77777 19.2222 8.66666 18.3333 8.66666 17.2778Z" fill="white"/>
<path opacity="0.05" d="M12 19.7778C11.3872 19.7778 10.8889 19.2794 10.8889 18.6667C10.8889 15.6033 8.39667 13.1111 5.33334 13.1111C4.72056 13.1111 4.22223 12.6128 4.22223 12V10.8889C4.22223 10.2761 4.72056 9.77777 5.33334 9.77777C10.2345 9.77777 14.2222 13.7655 14.2222 18.6667C14.2222 19.2794 13.7239 19.7778 13.1111 19.7778H12Z" fill="black"/>
<path opacity="0.07" d="M12 19.5C11.5406 19.5 11.1667 19.1261 11.1667 18.6667C11.1667 15.45 8.55 12.8333 5.33333 12.8333C4.87389 12.8333 4.5 12.4594 4.5 12V10.8889C4.5 10.4294 4.87389 10.0555 5.33333 10.0555C10.0817 10.0555 13.9444 13.9183 13.9444 18.6667C13.9444 19.1261 13.5706 19.5 13.1111 19.5H12Z" fill="black"/>
<path d="M13.1111 19.2222H12C11.6933 19.2222 11.4444 18.9733 11.4444 18.6666C11.4444 15.2916 8.70833 12.5555 5.33333 12.5555C5.02666 12.5555 4.77777 12.3066 4.77777 12V10.8889C4.77777 10.5822 5.02666 10.3333 5.33333 10.3333C9.93555 10.3333 13.6667 14.0644 13.6667 18.6666C13.6667 18.9733 13.4178 19.2222 13.1111 19.2222Z" fill="white"/>
<path opacity="0.05" d="M17.5556 19.7778C16.9428 19.7778 16.4445 19.2795 16.4445 18.6667C16.4445 12.54 11.46 7.55556 5.33334 7.55556C4.72056 7.55556 4.22223 7.05723 4.22223 6.44445V5.33334C4.22223 4.72056 4.72056 4.22223 5.33334 4.22223C13.2983 4.22223 19.7778 10.7022 19.7778 18.6667C19.7778 19.2795 19.2795 19.7778 18.6667 19.7778H17.5556Z" fill="black"/>
<path opacity="0.07" d="M17.5556 19.5C17.0961 19.5 16.7222 19.1261 16.7222 18.6667C16.7222 12.3867 11.6133 7.27778 5.33333 7.27778C4.87389 7.27778 4.5 6.90389 4.5 6.44444V5.33333C4.5 4.87389 4.87389 4.5 5.33333 4.5C13.145 4.5 19.5 10.855 19.5 18.6667C19.5 19.1261 19.1261 19.5 18.6667 19.5H17.5556Z" fill="black"/>
<path d="M18.6667 19.2222H17.5555C17.2489 19.2222 17 18.9733 17 18.6667C17 12.2233 11.7767 6.99999 5.33333 6.99999C5.02666 6.99999 4.77777 6.7511 4.77777 6.44444V5.33333C4.77777 5.02666 5.02666 4.77777 5.33333 4.77777C13.0039 4.77777 19.2222 10.9961 19.2222 18.6667C19.2222 18.9733 18.9733 19.2222 18.6667 19.2222Z" fill="white"/>
<defs>
<linearGradient id="paint0_linear_40_4185" x1="12" y1="1.95804" x2="12" y2="21.9278" gradientUnits="userSpaceOnUse">
<stop stop-color="#2AA4F4"/>
<stop offset="1" stop-color="#007AD9"/>
</linearGradient>
</defs>
</svg>
