<svg width="24" height="24" viewBox="0 0 24 24" fill="none" xmlns="http://www.w3.org/2000/svg">
<path d="M18.1362 2.90908V19.2725C18.1362 19.7748 17.7294 20.1816 17.2271 20.1816H14.9544V2H17.2271C17.7294 2 18.1362 2.40681 18.1362 2.90908Z" fill="#1783BD"/>
<path d="M17.2271 2.90908V19.2725C17.2271 19.7748 16.8203 20.1816 16.318 20.1816H13.5908V2H16.318C16.8203 2 17.2271 2.40681 17.2271 2.90908Z" fill="url(#paint0_linear_40_4296)"/>
<path d="M2.68181 2.90908V19.2725C2.68181 19.7748 3.08862 20.1816 3.59089 20.1816H4.49997V2H3.59089C3.08862 2 2.68181 2.40681 2.68181 2.90908Z" fill="url(#paint1_linear_40_4296)"/>
<path d="M15.4089 2H4.49997V20.1816H15.4089C15.9112 20.1816 16.318 19.7748 16.318 19.2725V2.90908C16.318 2.40681 15.9112 2 15.4089 2Z" fill="url(#paint2_linear_40_4296)"/>
<path opacity="0.15" d="M10.409 10.6363C11.6642 10.6363 12.6817 9.61875 12.6817 8.36358C12.6817 7.10841 11.6642 6.09088 10.409 6.09088C9.15383 6.09088 8.13629 7.10841 8.13629 8.36358C8.13629 9.61875 9.15383 10.6363 10.409 10.6363Z" fill="url(#paint3_radial_40_4296)"/>
<path opacity="0.05" d="M7.22722 14.2726V15.2335C7.22722 15.7067 7.61131 16.0908 8.08448 16.0908H12.7331C13.2067 16.0908 13.5908 15.7067 13.5908 15.2335V14.2726C13.5908 11.9999 12.1663 10.6363 10.409 10.6363C8.65175 10.6363 7.22722 11.9999 7.22722 14.2726Z" fill="black"/>
<path opacity="0.07" d="M7.45448 14.1026V15.2076C7.45448 15.5699 7.74812 15.8635 8.11039 15.8635H12.7076C13.0699 15.8635 13.3635 15.5699 13.3635 15.2076V14.0453C13.3635 12.1417 12.0181 10.8408 10.3672 10.864C8.7422 10.8867 7.45448 12.2195 7.45448 14.1026Z" fill="black"/>
<path d="M10.409 10.1817C11.4132 10.1817 12.2272 9.36774 12.2272 8.36357C12.2272 7.35943 11.4132 6.54541 10.409 6.54541C9.40483 6.54541 8.59084 7.35943 8.59084 8.36357C8.59084 9.36774 9.40483 10.1817 10.409 10.1817Z" fill="url(#paint4_linear_40_4296)"/>
<path d="M13.1362 13.8181C13.1362 12.284 11.8694 11.0458 10.3249 11.0922C8.83264 11.1367 7.68175 12.439 7.68175 13.9326V15.1817C7.68175 15.4326 7.88538 15.6362 8.13629 15.6362H12.6817C12.9326 15.6362 13.1362 15.4326 13.1362 15.1817V13.8181Z" fill="url(#paint5_linear_40_4296)"/>
<path d="M19.9507 19.8289L19.1471 20.6325L20.4812 21.9666C20.5257 22.0111 20.5975 22.0111 20.6421 21.9666L21.2848 21.3238C21.3293 21.2793 21.3293 21.2075 21.2848 21.1629L19.9507 19.8289Z" fill="url(#paint6_linear_40_4296)"/>
<path d="M16.318 12.4544C13.8117 12.4544 11.7726 14.4935 11.7726 16.9998C11.7726 18.238 12.2717 19.3611 13.0776 20.1816H14.9544H15.4089H17.2271C17.7294 20.1816 18.1362 19.7748 18.1362 19.2725V12.8367C17.5789 12.5921 16.9644 12.4544 16.318 12.4544Z" fill="url(#paint7_radial_40_4296)"/>
<path d="M18.9543 18.8329L18.1512 19.6361L19.1471 20.6325L19.9507 19.8288L18.9543 18.8329Z" fill="url(#paint8_radial_40_4296)"/>
<path d="M16.318 20.6362C18.3263 20.6362 19.9543 19.0081 19.9543 16.9998C19.9543 14.9916 18.3263 13.3635 16.318 13.3635C14.3098 13.3635 12.6817 14.9916 12.6817 16.9998C12.6817 19.0081 14.3098 20.6362 16.318 20.6362Z" fill="url(#paint9_linear_40_4296)"/>
<defs>
<linearGradient id="paint0_linear_40_4296" x1="15.3962" y1="11.0908" x2="16.8244" y2="11.0908" gradientUnits="userSpaceOnUse">
<stop offset="0.441" stop-color="#999998"/>
<stop offset="0.653" stop-color="#C1C1C0"/>
<stop offset="0.88" stop-color="#E5E5E5"/>
<stop offset="1" stop-color="#F3F3F3"/>
</linearGradient>
<linearGradient id="paint1_linear_40_4296" x1="1.15364" y1="4.07816" x2="6.63222" y2="19.0021" gradientUnits="userSpaceOnUse">
<stop stop-color="#0176D0"/>
<stop offset="1" stop-color="#16538C"/>
</linearGradient>
<linearGradient id="paint2_linear_40_4296" x1="7.12721" y1="2.52454" x2="13.6885" y2="20.3975" gradientUnits="userSpaceOnUse">
<stop stop-color="#33BEF0"/>
<stop offset="1" stop-color="#22A5E2"/>
</linearGradient>
<radialGradient id="paint3_radial_40_4296" cx="0" cy="0" r="1" gradientUnits="userSpaceOnUse" gradientTransform="translate(10.409 8.36358) scale(2.2727)">
<stop offset="0.486"/>
<stop offset="1" stop-opacity="0"/>
</radialGradient>
<linearGradient id="paint4_linear_40_4296" x1="9.85318" y1="6.70443" x2="10.4487" y2="10.5756" gradientUnits="userSpaceOnUse">
<stop stop-color="#0D61A9"/>
<stop offset="1" stop-color="#16528C"/>
</linearGradient>
<linearGradient id="paint5_linear_40_4296" x1="9.57527" y1="11.2897" x2="10.2001" y2="16.1631" gradientUnits="userSpaceOnUse">
<stop stop-color="#0D61A9"/>
<stop offset="1" stop-color="#16528C"/>
</linearGradient>
<linearGradient id="paint6_linear_40_4296" x1="19.8316" y1="19.8622" x2="20.9052" y2="21.9321" gradientUnits="userSpaceOnUse">
<stop stop-color="#7DD8F3"/>
<stop offset="1" stop-color="#45B0D0"/>
</linearGradient>
<radialGradient id="paint7_radial_40_4296" cx="0" cy="0" r="1" gradientUnits="userSpaceOnUse" gradientTransform="translate(16.3035 16.8984) scale(4.33859)">
<stop/>
<stop offset="1" stop-opacity="0"/>
</radialGradient>
<radialGradient id="paint8_radial_40_4296" cx="0" cy="0" r="1" gradientUnits="userSpaceOnUse" gradientTransform="translate(16.3235 17.0216) scale(4.4554)">
<stop offset="0.693" stop-color="#006185"/>
<stop offset="0.921" stop-color="#35C1F1"/>
</radialGradient>
<linearGradient id="paint9_linear_40_4296" x1="14.2929" y1="12.2801" x2="19.2227" y2="19.517" gradientUnits="userSpaceOnUse">
<stop stop-color="#FCFCFC"/>
<stop offset="0.95" stop-color="#C3C9CD"/>
</linearGradient>
</defs>
</svg>
