<svg width="24" height="24" viewBox="0 0 24 24" fill="none" xmlns="http://www.w3.org/2000/svg">
<path d="M4.21759 9.07575L17.5236 3.78723V13.5109C17.5236 13.9196 17.1926 14.2501 16.7844 14.2501H4.21759V9.07575Z" fill="url(#paint0_linear_40_4423)"/>
<path d="M2 3.77081V13.5329C2 13.9411 2.33102 14.2721 2.7392 14.2721H16.7844C16.9657 14.2721 17.13 14.204 17.2588 14.0954L2 3.77081Z" fill="url(#paint1_linear_40_4423)"/>
<path d="M2.7392 2.42297H16.7844C17.1926 2.42297 17.5236 2.75354 17.5236 3.16217V3.78768L10.5941 8.50868C10.0919 8.85113 9.43124 8.85113 8.92946 8.50868L2 3.78722V3.16171C2 2.75354 2.33102 2.42297 2.7392 2.42297Z" fill="url(#paint2_linear_40_4423)"/>
<path opacity="0.05" d="M17.5236 6.51025H5.47866C4.81799 6.51025 4.28288 7.04536 4.28288 7.70603V14.2721H4.73946L17.5236 6.96683V6.51025Z" fill="black"/>
<path opacity="0.07" d="M17.5236 6.76044H5.47866C4.94492 6.76044 4.51117 7.19419 4.51117 7.72792V14.272H5.19603L17.5236 6.96681V6.76044Z" fill="black"/>
<path d="M6.95705 13.6415L20.2631 8.35303V18.0767C20.2631 18.4854 19.932 18.8159 19.5239 18.8159H6.95705V13.6415Z" fill="url(#paint3_linear_40_4423)"/>
<path d="M4.73946 8.35303V18.0767C4.73946 18.4854 5.07047 18.8159 5.47865 18.8159H19.5239C19.7051 18.8159 19.8695 18.7479 19.9982 18.6392L4.73946 8.35303Z" fill="url(#paint4_linear_40_4423)"/>
<path opacity="0.05" d="M4.73946 8.09729H20.2631V8.73421L13.8614 13.7977C13.061 14.4305 11.9415 14.4305 11.1411 13.7977L4.73946 8.73421V8.09729Z" fill="black"/>
<path opacity="0.07" d="M4.73946 7.91241H20.2631V8.54523L13.5975 13.4498C12.9464 13.9374 12.0561 13.9374 11.405 13.4498L4.73946 8.54569V7.91241Z" fill="black"/>
<path d="M5.47865 6.98877H19.5239C19.9325 6.98877 20.2631 7.31979 20.2631 7.72797V8.35348L13.3336 13.0745C12.8314 13.4169 12.1707 13.4169 11.6689 13.0745L4.73946 8.35302V7.72751C4.73946 7.31933 5.07047 6.98877 5.47865 6.98877Z" fill="url(#paint5_linear_40_4423)"/>
<path opacity="0.05" d="M19.0851 14.0588C18.9285 13.9018 18.7221 13.8155 18.5034 13.8155C18.0468 13.8155 17.6756 14.1862 17.6756 14.6414V16.2504H14.4796C13.892 16.2504 13.4144 16.728 13.4144 17.3156V18.5333C13.4144 18.6319 13.4322 18.7255 13.4573 18.8159H19.5239C19.932 18.8159 20.2631 18.4849 20.2631 18.0767V15.2364L19.0851 14.0588Z" fill="black"/>
<path opacity="0.07" d="M18.9235 14.22C18.8102 14.1063 18.6614 14.0438 18.5039 14.0438C18.1733 14.0438 17.9044 14.3118 17.9044 14.6414V16.4787H14.4801C14.0185 16.4787 13.6432 16.854 13.6432 17.3156V18.5333C13.6432 18.6328 13.6637 18.7273 13.6957 18.8159H19.5243C19.9325 18.8159 20.2635 18.4849 20.2635 18.0767V15.5596L18.9235 14.22Z" fill="black"/>
<path d="M18.1322 14.6415V16.707H14.4796C14.1436 16.707 13.871 16.9796 13.871 17.3156V18.5333C13.871 18.8694 14.1436 19.1419 14.4796 19.1419H18.1322V21.2075C18.1322 21.5362 18.5299 21.7006 18.7618 21.4682L21.7839 18.4461C22.072 18.158 22.072 17.6905 21.7839 17.4028L18.7618 14.3808C18.5299 14.1484 18.1322 14.3127 18.1322 14.6415Z" fill="url(#paint6_linear_40_4423)"/>
<defs>
<linearGradient id="paint0_linear_40_4423" x1="5.50022" y1="4.18295" x2="16.3665" y2="12.7743" gradientUnits="userSpaceOnUse">
<stop stop-color="#A1AAB3"/>
<stop offset="1" stop-color="#8F979E"/>
</linearGradient>
<linearGradient id="paint1_linear_40_4423" x1="3.47087" y1="4.16799" x2="14.6215" y2="14.2412" gradientUnits="userSpaceOnUse">
<stop stop-color="#A1AAB3" stop-opacity="0.88"/>
<stop offset="1" stop-color="#8F979E"/>
</linearGradient>
<linearGradient id="paint2_linear_40_4423" x1="5.43913" y1="1.47811" x2="7.82597" y2="10.0539" gradientUnits="userSpaceOnUse">
<stop stop-color="#FCFCFC"/>
<stop offset="0.95" stop-color="#C3C9CD"/>
</linearGradient>
<linearGradient id="paint3_linear_40_4423" x1="11.5831" y1="10.551" x2="20.4818" y2="23.8698" gradientUnits="userSpaceOnUse">
<stop stop-color="#28AFEA"/>
<stop offset="1" stop-color="#0B88DA"/>
</linearGradient>
<linearGradient id="paint4_linear_40_4423" x1="4.15093" y1="13.0539" x2="17.0588" y2="21.0942" gradientUnits="userSpaceOnUse">
<stop stop-color="#28AFEA"/>
<stop offset="1" stop-color="#0B88DA"/>
</linearGradient>
<linearGradient id="paint5_linear_40_4423" x1="9.63387" y1="7.08614" x2="11.1901" y2="14.4301" gradientUnits="userSpaceOnUse">
<stop stop-color="#7DD8F3"/>
<stop offset="1" stop-color="#45B0D0"/>
</linearGradient>
<linearGradient id="paint6_linear_40_4423" x1="15.0615" y1="15.3418" x2="20.1976" y2="21.0571" gradientUnits="userSpaceOnUse">
<stop stop-color="#21AD64"/>
<stop offset="1" stop-color="#088242"/>
</linearGradient>
</defs>
</svg>
