<svg width="24" height="24" viewBox="0 0 24 24" fill="none" xmlns="http://www.w3.org/2000/svg">
<path d="M18 2H6C5.4475 2 5 2.4475 5 3V21C5 21.5525 5.4475 22 6 22H18C18.5525 22 19 21.5525 19 21V3C19 2.4475 18.5525 2 18 2Z" fill="url(#paint0_linear_40_4459)"/>
<path d="M12 21C13.5188 21 14.75 19.7688 14.75 18.25C14.75 16.7312 13.5188 15.5 12 15.5C10.4812 15.5 9.25 16.7312 9.25 18.25C9.25 19.7688 10.4812 21 12 21Z" fill="url(#paint1_radial_40_4459)"/>
<path d="M16.75 7H7.25C7.112 7 7 6.888 7 6.75V4.25C7 4.112 7.112 4 7.25 4H16.75C16.888 4 17 4.112 17 4.25V6.75C17 6.888 16.888 7 16.75 7Z" fill="url(#paint2_linear_40_4459)"/>
<path d="M15.5 6C15.7761 6 16 5.77614 16 5.5C16 5.22386 15.7761 5 15.5 5C15.2239 5 15 5.22386 15 5.5C15 5.77614 15.2239 6 15.5 6Z" fill="#DBE0E2"/>
<path d="M16.75 11H7.25C7.112 11 7 10.888 7 10.75V8.25C7 8.112 7.112 8 7.25 8H16.75C16.888 8 17 8.112 17 8.25V10.75C17 10.888 16.888 11 16.75 11Z" fill="url(#paint3_linear_40_4459)"/>
<path d="M15.5 10C15.7761 10 16 9.77614 16 9.5C16 9.22386 15.7761 9 15.5 9C15.2239 9 15 9.22386 15 9.5C15 9.77614 15.2239 10 15.5 10Z" fill="#DBE0E2"/>
<path d="M16.75 15H7.25C7.112 15 7 14.888 7 14.75V12.25C7 12.112 7.112 12 7.25 12H16.75C16.888 12 17 12.112 17 12.25V14.75C17 14.888 16.888 15 16.75 15Z" fill="url(#paint4_linear_40_4459)"/>
<path d="M15.5 14C15.7761 14 16 13.7761 16 13.5C16 13.2239 15.7761 13 15.5 13C15.2239 13 15 13.2239 15 13.5C15 13.7761 15.2239 14 15.5 14Z" fill="#DBE0E2"/>
<path d="M12 20.5C13.2426 20.5 14.25 19.4926 14.25 18.25C14.25 17.0074 13.2426 16 12 16C10.7574 16 9.75 17.0074 9.75 18.25C9.75 19.4926 10.7574 20.5 12 20.5Z" fill="url(#paint5_linear_40_4459)"/>
<path d="M12.125 17.5H11.875C11.806 17.5 11.75 17.444 11.75 17.375V16.625C11.75 16.556 11.806 16.5 11.875 16.5H12.125C12.194 16.5 12.25 16.556 12.25 16.625V17.375C12.25 17.444 12.194 17.5 12.125 17.5Z" fill="white"/>
<path d="M12.75 16.95V17.595C12.91 17.77 13 18 13 18.25C13 18.8 12.55 19.25 12 19.25C11.45 19.25 11 18.8 11 18.25C11 18 11.09 17.77 11.25 17.595V16.95C10.805 17.21 10.5 17.695 10.5 18.25C10.5 19.075 11.175 19.75 12 19.75C12.825 19.75 13.5 19.075 13.5 18.25C13.5 17.695 13.195 17.21 12.75 16.95Z" fill="white"/>
<defs>
<linearGradient id="paint0_linear_40_4459" x1="5.7175" y1="0.184" x2="17.7235" y2="22.7645" gradientUnits="userSpaceOnUse">
<stop stop-color="#A1AAB3"/>
<stop offset="1" stop-color="#8F979E"/>
</linearGradient>
<radialGradient id="paint1_radial_40_4459" cx="0" cy="0" r="1" gradientUnits="userSpaceOnUse" gradientTransform="translate(12 18.25) scale(2.75)">
<stop offset="0.688" stop-opacity="0.2"/>
<stop offset="1" stop-opacity="0"/>
</radialGradient>
<linearGradient id="paint2_linear_40_4459" x1="2.4675" y1="5.5" x2="17.149" y2="5.5" gradientUnits="userSpaceOnUse">
<stop offset="0.004" stop-color="#6D7882"/>
<stop offset="1" stop-color="#5A6269"/>
</linearGradient>
<linearGradient id="paint3_linear_40_4459" x1="2.4675" y1="9.5" x2="17.149" y2="9.5" gradientUnits="userSpaceOnUse">
<stop offset="0.004" stop-color="#6D7882"/>
<stop offset="1" stop-color="#5A6269"/>
</linearGradient>
<linearGradient id="paint4_linear_40_4459" x1="2.4675" y1="13.5" x2="17.149" y2="13.5" gradientUnits="userSpaceOnUse">
<stop offset="0.004" stop-color="#6D7882"/>
<stop offset="1" stop-color="#5A6269"/>
</linearGradient>
<linearGradient id="paint5_linear_40_4459" x1="12" y1="15.9906" x2="12" y2="20.4838" gradientUnits="userSpaceOnUse">
<stop stop-color="#2AA4F4"/>
<stop offset="1" stop-color="#007AD9"/>
</linearGradient>
</defs>
</svg>
