<svg width="24" height="24" viewBox="0 0 24 24" fill="none" xmlns="http://www.w3.org/2000/svg">
<path d="M20.9474 3.05263V20.9474C20.9474 21.5289 20.4763 22 19.8947 22H6.21053C5.62895 22 5.15789 21.5289 5.15789 20.9474V3.05263C5.15789 2.47105 5.62895 2 6.21053 2H19.8947C20.4763 2 20.9474 2.47105 20.9474 3.05263Z" fill="url(#paint0_linear_40_4497)"/>
<path d="M9.36842 7.26316C9.94977 7.26316 10.4211 6.79188 10.4211 6.21053C10.4211 5.62918 9.94977 5.1579 9.36842 5.1579C8.78707 5.1579 8.31579 5.62918 8.31579 6.21053C8.31579 6.79188 8.78707 7.26316 9.36842 7.26316Z" fill="#057093"/>
<path d="M9.36842 7.78949C8.49632 7.78949 7.78947 8.49633 7.78947 9.36844V10.1053C7.78947 10.2795 7.93105 10.4211 8.10526 10.4211H10.6316C10.8058 10.4211 10.9474 10.2795 10.9474 10.1053V9.36844C10.9474 8.49633 10.2405 7.78949 9.36842 7.78949Z" fill="#057093"/>
<path d="M17.7895 14.1053H11.4737C11.1832 14.1053 10.9474 14.3411 10.9474 14.6316C10.9474 14.9221 11.1832 15.1579 11.4737 15.1579H17.7895C18.08 15.1579 18.3158 14.9221 18.3158 14.6316C18.3158 14.3411 18.08 14.1053 17.7895 14.1053Z" fill="#057093"/>
<path d="M17.7895 12H9.36842C9.0779 12 8.84211 12.2358 8.84211 12.5263C8.84211 12.8168 9.0779 13.0526 9.36842 13.0526H17.7895C18.08 13.0526 18.3158 12.8168 18.3158 12.5263C18.3158 12.2358 18.08 12 17.7895 12Z" fill="#057093"/>
<path d="M17.7895 18.3158H9.36842C9.0779 18.3158 8.84211 18.5516 8.84211 18.8421C8.84211 19.1326 9.0779 19.3684 9.36842 19.3684H17.7895C18.08 19.3684 18.3158 19.1326 18.3158 18.8421C18.3158 18.5516 18.08 18.3158 17.7895 18.3158Z" fill="#057093"/>
<path d="M17.7895 16.2105H11.4737C11.1832 16.2105 10.9474 16.4463 10.9474 16.7368C10.9474 17.0274 11.1832 17.2631 11.4737 17.2631H17.7895C18.08 17.2631 18.3158 17.0274 18.3158 16.7368C18.3158 16.4463 18.08 16.2105 17.7895 16.2105Z" fill="#057093"/>
<path d="M17.7895 7.78949H13.5789C13.2884 7.78949 13.0526 8.02528 13.0526 8.31581C13.0526 8.60633 13.2884 8.84212 13.5789 8.84212H17.7895C18.08 8.84212 18.3158 8.60633 18.3158 8.31581C18.3158 8.02528 18.08 7.78949 17.7895 7.78949Z" fill="#057093"/>
<path d="M17.7895 5.6842H13.5789C13.2884 5.6842 13.0526 5.91999 13.0526 6.21052C13.0526 6.50105 13.2884 6.73684 13.5789 6.73684H17.7895C18.08 6.73684 18.3158 6.50105 18.3158 6.21052C18.3158 5.91999 18.08 5.6842 17.7895 5.6842Z" fill="#057093"/>
<path d="M6.73684 12.8458V14.6315H3.57895C3.28842 14.6315 3.05263 14.8673 3.05263 15.1579V16.2105C3.05263 16.501 3.28842 16.7368 3.57895 16.7368H6.73684V18.5226C6.73684 18.8068 7.08053 18.9489 7.28105 18.7479L9.89368 16.1352C10.1426 15.8863 10.1426 15.4821 9.89368 15.2331L7.28105 12.6205C7.08053 12.4194 6.73684 12.5616 6.73684 12.8458Z" fill="url(#paint1_linear_40_4497)"/>
<defs>
<linearGradient id="paint0_linear_40_4497" x1="10.1361" y1="2.30706" x2="21.2403" y2="19.2096" gradientUnits="userSpaceOnUse">
<stop stop-color="#7DD8F3"/>
<stop offset="1" stop-color="#45B0D0"/>
</linearGradient>
<linearGradient id="paint1_linear_40_4497" x1="4.08185" y1="13.4512" x2="8.52236" y2="18.3924" gradientUnits="userSpaceOnUse">
<stop stop-color="#21AD64"/>
<stop offset="1" stop-color="#088242"/>
</linearGradient>
</defs>
</svg>
