<svg width="24" height="24" viewBox="0 0 24 24" fill="none" xmlns="http://www.w3.org/2000/svg">
<path d="M12.5405 20.3784V16.0541H11.4595V20.3784H2.8108C2.51243 20.3784 2.27026 20.6206 2.27026 20.9189C2.27026 21.2173 2.51243 21.4595 2.8108 21.4595H21.1892C21.4876 21.4595 21.7297 21.2173 21.7297 20.9189C21.7297 20.6206 21.4876 20.3784 21.1892 20.3784H12.5405Z" fill="#E9EBED"/>
<path d="M14.7027 19.8378H13.0811V18.7567C13.0811 18.4583 12.8389 18.2162 12.5405 18.2162H11.4594C11.1611 18.2162 10.9189 18.4583 10.9189 18.7567V19.8378H9.29728C8.99891 19.8378 8.75674 20.08 8.75674 20.3783V21.4594C8.75674 21.7578 8.99891 22 9.29728 22H14.7027C15.0011 22 15.2432 21.7578 15.2432 21.4594V20.3783C15.2432 20.08 15.0011 19.8378 14.7027 19.8378Z" fill="#21A366"/>
<path d="M12 3.62162V6.86486H3.35135L2.81081 6.32216V2.85946C2.81081 2.38378 3.2 2 3.68648 2H9.28108C9.62162 2 9.94594 2.13514 10.1892 2.37297L11.0811 3.24865C11.3243 3.48649 11.6486 3.62162 11.9892 3.62162H12Z" fill="url(#paint0_linear_40_4539)"/>
<path d="M10.5076 5.09672L11.9362 3.68483C11.9773 3.64428 12.0324 3.62158 12.0897 3.62158H20.1081C20.7054 3.62158 21.1892 4.10537 21.1892 4.70266V15.5135C21.1892 16.1108 20.7054 16.5946 20.1081 16.5946H3.89189C3.29459 16.5946 2.81081 16.1108 2.81081 15.5135V5.89185C2.81081 5.59347 3.05297 5.35131 3.35135 5.35131H9.88756C10.1195 5.35131 10.3422 5.25996 10.5076 5.09672Z" fill="url(#paint1_linear_40_4539)"/>
<defs>
<linearGradient id="paint0_linear_40_4539" x1="7.4054" y1="6.90649" x2="7.4054" y2="5.72324" gradientUnits="userSpaceOnUse">
<stop stop-color="#EBA600"/>
<stop offset="1" stop-color="#C28200"/>
</linearGradient>
<linearGradient id="paint1_linear_40_4539" x1="12" y1="3.55834" x2="12" y2="16.5875" gradientUnits="userSpaceOnUse">
<stop stop-color="#FFD869"/>
<stop offset="1" stop-color="#FEC52B"/>
</linearGradient>
</defs>
</svg>
