<svg width="24" height="24" viewBox="0 0 24 24" fill="none" xmlns="http://www.w3.org/2000/svg">
<path d="M20.4559 19.3526L18.0364 21.7721V14.7562C18.0364 14.4796 18.2609 14.2551 18.5375 14.2551H20.5421C20.8187 14.2551 21.0432 14.4796 21.0432 14.7562V17.9349C21.0432 18.4666 20.8322 18.9763 20.4559 19.3526Z" fill="url(#paint0_linear_40_4509)"/>
<path d="M18.0364 18.7653V21.7721H4.00455C2.89754 21.7721 2 20.8746 2 19.7676V3.23008C2 2.95445 2.22551 2.72894 2.50114 2.72894H4.50568C4.78131 2.72894 5.00682 2.95445 5.00682 3.23008V18.2642C5.00682 18.5408 5.23133 18.7653 5.50796 18.7653H18.0364Z" fill="url(#paint1_linear_40_4509)"/>
<path d="M11.5216 9.24371V15.7585C11.5216 16.3123 11.0731 16.7608 10.5193 16.7608H8.51478C7.96102 16.7608 7.51251 16.3123 7.51251 15.7585V9.24371H11.5216Z" fill="url(#paint2_linear_40_4509)"/>
<path d="M21.8666 6.91695L17.3107 2.36111C17.1804 2.23082 16.985 2.19223 16.8141 2.26239C16.6437 2.33305 16.533 2.49892 16.533 2.68334V5.23463H13.1824C12.119 5.23463 11.0991 5.65709 10.3474 6.40879L7.51251 9.24373H16.533V11.795C16.533 11.9794 16.6437 12.1453 16.8141 12.2159C16.8707 12.239 16.9299 12.2505 16.9885 12.2505C17.1068 12.2505 17.2235 12.2044 17.3107 12.1172L21.8666 7.56141C22.0445 7.38351 22.0445 7.09485 21.8666 6.91695Z" fill="#33C481"/>
<defs>
<linearGradient id="paint0_linear_40_4509" x1="19.5398" y1="22.1049" x2="19.5398" y2="7.27623" gradientUnits="userSpaceOnUse">
<stop stop-color="#0362B0"/>
<stop offset="0.112" stop-color="#036ABD"/>
<stop offset="0.258" stop-color="#036FC5"/>
<stop offset="0.5" stop-color="#0370C8"/>
<stop offset="0.742" stop-color="#036FC5"/>
<stop offset="0.888" stop-color="#036ABD"/>
<stop offset="1" stop-color="#0362B0"/>
</linearGradient>
<linearGradient id="paint1_linear_40_4509" x1="2" y1="12.2505" x2="18.0364" y2="12.2505" gradientUnits="userSpaceOnUse">
<stop stop-color="#32BDEF"/>
<stop offset="1" stop-color="#1EA2E4"/>
</linearGradient>
<linearGradient id="paint2_linear_40_4509" x1="9.51705" y1="16.7608" x2="9.51705" y2="9.26977" gradientUnits="userSpaceOnUse">
<stop offset="0.273" stop-color="#107C42"/>
<stop offset="0.611" stop-color="#117A41"/>
<stop offset="0.795" stop-color="#13723E"/>
<stop offset="0.94" stop-color="#16643A"/>
<stop offset="1" stop-color="#185C37"/>
</linearGradient>
</defs>
</svg>
