<svg width="24" height="24" viewBox="0 0 24 24" fill="none" xmlns="http://www.w3.org/2000/svg">
<path d="M6.22269 12.3911C6.01526 12.3911 5.82969 12.2457 5.78597 12.0352L4.54807 6.02097C4.46287 5.60789 4.09573 5.30856 3.67418 5.30856H2.89218C2.64594 5.30856 2.44609 5.10871 2.44609 4.86247C2.44609 4.61623 2.64594 4.41638 2.89218 4.41638H3.67418C4.51684 4.41638 5.252 5.01548 5.42196 5.84075L6.65986 11.8549C6.70938 12.0963 6.55414 12.3323 6.31281 12.3818C6.28292 12.3885 6.25258 12.3911 6.22269 12.3911Z" fill="url(#paint0_linear_40_4565)"/>
<path d="M18.5054 20.9218C19.2444 20.9218 19.8436 20.3226 19.8436 19.5835C19.8436 18.8444 19.2444 18.2452 18.5054 18.2452C17.7663 18.2452 17.1671 18.8444 17.1671 19.5835C17.1671 20.3226 17.7663 20.9218 18.5054 20.9218Z" fill="#5C5F61"/>
<path opacity="0.15" d="M18.5054 20.0296C18.7517 20.0296 18.9514 19.8299 18.9514 19.5835C18.9514 19.3372 18.7517 19.1375 18.5054 19.1375C18.259 19.1375 18.0593 19.3372 18.0593 19.5835C18.0593 19.8299 18.259 20.0296 18.5054 20.0296Z" fill="black"/>
<path d="M8.69136 20.9218C9.43047 20.9218 10.0296 20.3226 10.0296 19.5835C10.0296 18.8444 9.43047 18.2452 8.69136 18.2452C7.95225 18.2452 7.35309 18.8444 7.35309 19.5835C7.35309 20.3226 7.95225 20.9218 8.69136 20.9218Z" fill="#5C5F61"/>
<path d="M20.2897 18.6913H7.79918C6.8151 18.6913 6.01482 17.891 6.01482 16.9069C6.01482 15.9228 6.8151 15.1226 7.79918 15.1226H18.9514C19.1977 15.1226 19.3975 15.3224 19.3975 15.5686C19.3975 15.8149 19.1977 16.0147 18.9514 16.0147H7.79918C7.30714 16.0147 6.907 16.4149 6.907 16.9069C6.907 17.399 7.30714 17.7991 7.79918 17.7991H20.2897C20.536 17.7991 20.7358 17.999 20.7358 18.2452C20.7358 18.4914 20.536 18.6913 20.2897 18.6913Z" fill="url(#paint1_linear_40_4565)"/>
<path d="M3.78436 4.86252C3.78436 5.355 3.38467 5.7547 2.89218 5.7547C2.3997 5.7547 2 5.355 2 4.86252C2 4.37003 2.3997 3.97034 2.89218 3.97034C3.38467 3.97034 3.78436 4.37003 3.78436 4.86252Z" fill="url(#paint2_linear_40_4565)"/>
<path d="M6.32263 15.2894C6.40293 15.7105 6.77095 16.0148 7.1992 16.0148H19.9801C20.4164 16.0148 20.7885 15.6994 20.8603 15.2693L21.7806 9.74721L5.02139 8.45801L6.32263 15.2894Z" fill="url(#paint3_linear_40_4565)"/>
<path d="M21.5883 7.94765L4.67654 6.64685L5.02137 8.45798L21.7801 9.74718L21.9938 8.46601C22.0371 8.20772 21.8493 7.96773 21.5883 7.94765Z" fill="url(#paint4_linear_40_4565)"/>
<path opacity="0.05" d="M8.81716 6.96533C8.64363 7.39179 8.6588 7.88026 8.88675 8.28576L9.1379 8.73364L9.14415 9.24753C9.15039 9.7757 9.43634 10.2718 9.89135 10.5421L10.333 10.804L10.5948 11.246C10.8647 11.7006 11.3608 11.987 11.8889 11.9928L12.4028 11.999L12.8507 12.2502C13.0791 12.3787 13.3374 12.446 13.5984 12.446C13.8593 12.446 14.1176 12.3787 14.3451 12.2506L14.793 11.9995L15.3069 11.9932C15.8351 11.987 16.3311 11.701 16.6014 11.246L16.8633 10.8044L17.3054 10.5425C17.7599 10.2727 18.0463 9.77661 18.0521 9.24843L18.0584 8.73453L18.3095 8.28665C18.4103 8.10732 18.4599 7.90971 18.4822 7.70941L8.81716 6.96533Z" fill="black"/>
<path opacity="0.07" d="M9.04824 6.98315C8.86936 7.36144 8.87471 7.80931 9.08125 8.17689L9.36006 8.67473L9.36719 9.24528C9.37254 9.69628 9.617 10.1196 10.0051 10.3507L10.4958 10.6415L10.7871 11.1327C11.0177 11.5208 11.4411 11.7652 11.8921 11.7706L12.4626 11.7777L12.9605 12.0565C13.1549 12.1654 13.3753 12.2229 13.5984 12.2229C13.8214 12.2229 14.0418 12.1654 14.2363 12.0561L14.7341 11.7773L15.3047 11.7701C15.7557 11.7648 16.179 11.5203 16.4101 11.1322L16.7009 10.6415L17.1921 10.3502C17.5802 10.1196 17.8246 9.69628 17.83 9.24528L17.8371 8.67473L18.1159 8.17689C18.2007 8.02611 18.2426 7.86017 18.2622 7.69199L9.04824 6.98315Z" fill="black"/>
<path d="M14.127 3.21642L14.6743 3.52333L15.302 3.53092C15.6785 3.53538 16.0255 3.73567 16.2178 4.05954L16.5381 4.5993L17.0779 4.9196C17.4017 5.11186 17.602 5.45892 17.6065 5.83542L17.6141 6.46307L17.921 7.01043C18.1052 7.33875 18.1052 7.73934 17.921 8.06766L17.6141 8.61501L17.6065 9.24266C17.602 9.61916 17.4017 9.96622 17.0779 10.1585L16.5381 10.4788L16.2178 11.0186C16.0255 11.3424 15.6785 11.5427 15.302 11.5472L14.6743 11.5548L14.127 11.8617C13.7986 12.0459 13.3981 12.0459 13.0697 11.8617L12.5224 11.5548L11.8947 11.5472C11.5182 11.5427 11.1712 11.3424 10.9789 11.0186L10.6586 10.4788L10.1188 10.1585C9.79498 9.96622 9.59469 9.61916 9.59023 9.24266L9.58264 8.61501L9.27573 8.06766C9.0915 7.73934 9.0915 7.33875 9.27573 7.01043L9.58264 6.46307L9.59023 5.83542C9.59469 5.45892 9.79498 5.11186 10.1188 4.9196L10.6586 4.5993L10.9789 4.05954C11.1712 3.73567 11.5182 3.53538 11.8947 3.53092L12.5224 3.52333L13.0697 3.21642C13.3981 3.03219 13.7986 3.03219 14.127 3.21642Z" fill="url(#paint5_linear_40_4565)"/>
<path opacity="0.05" d="M14.9902 7.06267C14.9264 7.06267 14.8648 7.06579 14.8037 7.07204L15.6655 5.74938C15.7722 5.58477 15.7806 5.37511 15.687 5.20247C15.5933 5.02983 15.4135 4.92277 15.2172 4.92277H14.7734C14.536 4.92277 14.3175 5.04188 14.1876 5.24083L13.7126 5.97287C13.56 5.28634 13.0345 4.86255 12.2882 4.86255C11.3608 4.86255 10.7371 5.51473 10.7371 6.48587C10.7371 7.62653 11.6525 8.07619 12.3895 8.00704L11.5303 9.32836C11.4237 9.49297 11.4152 9.70219 11.5089 9.87482C11.6026 10.0475 11.7828 10.1545 11.9791 10.1545H12.4167C12.654 10.1545 12.8726 10.0359 13.0019 9.83735L13.4842 9.09684C13.6412 9.77222 14.1854 10.2156 14.9143 10.2156C15.8239 10.2156 16.4591 9.55052 16.4591 8.59856C16.4591 7.65106 15.8962 7.06267 14.9902 7.06267ZM14.963 8.04139L14.9638 8.48213C14.9634 8.48213 14.9634 8.48213 14.963 8.48213V8.04139Z" fill="black"/>
<path opacity="0.07" d="M14.9902 7.28569C14.7185 7.28569 14.4772 7.35171 14.2769 7.47171L15.4777 5.62802C15.5406 5.53211 15.5451 5.40988 15.4902 5.30906C15.4358 5.20869 15.331 5.14624 15.2168 5.14624H14.7729C14.6114 5.14624 14.4624 5.22698 14.3741 5.36259L13.5109 6.69061C13.5252 6.59916 13.5332 6.50369 13.5332 6.40422C13.5332 5.59099 13.0559 5.08557 12.2877 5.08557C11.4808 5.08557 10.9597 5.63516 10.9597 6.48585C10.9597 7.38829 11.5883 7.79245 12.2115 7.79245C12.4773 7.79245 12.7138 7.7291 12.9105 7.61401L11.7172 9.45012C11.6547 9.54603 11.6503 9.66826 11.7047 9.76863C11.7596 9.86945 11.8644 9.9319 11.9786 9.9319H12.4162C12.5777 9.9319 12.7267 9.85116 12.815 9.71599L13.688 8.37549C13.6706 8.47408 13.6617 8.57802 13.6617 8.68597C13.6617 9.58841 14.2902 9.99257 14.9134 9.99257C15.7039 9.99257 16.2352 9.43228 16.2352 8.59854C16.2361 7.77639 15.7704 7.28569 14.9902 7.28569ZM12.4555 6.43143C12.4555 6.81373 12.3261 6.81373 12.2485 6.81373C12.1749 6.81373 12.0513 6.81373 12.0513 6.45596C12.0513 6.06474 12.1883 6.06474 12.2699 6.06474C12.3346 6.06429 12.4555 6.06429 12.4555 6.43143ZM15.1574 8.6311C15.1574 9.0134 15.0281 9.0134 14.9509 9.0134C14.8697 9.0134 14.747 9.0134 14.747 8.65564C14.747 8.26441 14.8822 8.26441 14.9625 8.26441C15.1383 8.26441 15.1574 8.52092 15.1574 8.6311Z" fill="black"/>
<path d="M12.2124 7.56938C11.8198 7.56938 11.1837 7.35303 11.1837 6.48583C11.1837 5.7355 11.6302 5.30859 12.2882 5.30859C12.9261 5.30859 13.3111 5.71364 13.3111 6.40419C13.3111 7.09474 12.9047 7.56938 12.2124 7.56938ZM15.2913 5.50666L12.629 9.59419C12.5826 9.66556 12.5028 9.70883 12.4176 9.70883H11.9799C11.9095 9.70883 11.8671 9.63077 11.9054 9.57188L14.5619 5.48435C14.6083 5.41298 14.6882 5.36971 14.7734 5.36971H15.2168C15.2873 5.36926 15.3296 5.44733 15.2913 5.50666ZM12.2699 5.84123C11.9755 5.84123 11.8283 6.04598 11.8283 6.45549C11.8283 6.8427 11.9683 7.0363 12.2489 7.0363C12.5353 7.0363 12.6785 6.83467 12.6785 6.43096C12.6781 6.03795 12.542 5.84123 12.2699 5.84123ZM14.9143 9.7695C14.3701 9.7695 13.8856 9.41754 13.8856 8.68595C13.8856 7.9548 14.3304 7.50871 14.9902 7.50871C15.6499 7.50871 16.013 7.9102 16.013 8.59807C16.013 9.28594 15.6076 9.7695 14.9143 9.7695ZM14.963 8.04135C14.6703 8.04135 14.5244 8.2461 14.5244 8.65561C14.5244 9.04282 14.6667 9.23642 14.9509 9.23642C15.2373 9.23642 15.3805 9.03479 15.3805 8.63108C15.3805 8.32952 15.2654 8.04135 14.963 8.04135Z" fill="white"/>
<defs>
<linearGradient id="paint0_linear_40_4565" x1="4.55744" y1="12.3911" x2="4.55744" y2="4.41638" gradientUnits="userSpaceOnUse">
<stop stop-color="#92A3B0"/>
<stop offset="0.015" stop-color="#A3B5C4"/>
<stop offset="0.032" stop-color="#AEC2D1"/>
<stop offset="0.046" stop-color="#B2C6D6"/>
</linearGradient>
<linearGradient id="paint1_linear_40_4565" x1="13.3753" y1="18.6913" x2="13.3753" y2="15.1226" gradientUnits="userSpaceOnUse">
<stop stop-color="#92A3B0"/>
<stop offset="0.015" stop-color="#A3B5C4"/>
<stop offset="0.032" stop-color="#AEC2D1"/>
<stop offset="0.046" stop-color="#B2C6D6"/>
</linearGradient>
<linearGradient id="paint2_linear_40_4565" x1="2.33724" y1="4.30758" x2="3.50957" y2="5.47991" gradientUnits="userSpaceOnUse">
<stop stop-color="#199AE0"/>
<stop offset="1" stop-color="#0782D8"/>
</linearGradient>
<linearGradient id="paint3_linear_40_4565" x1="5.02139" y1="12.2364" x2="21.7806" y2="12.2364" gradientUnits="userSpaceOnUse">
<stop stop-color="#3079D6"/>
<stop offset="1" stop-color="#297CD2"/>
</linearGradient>
<linearGradient id="paint4_linear_40_4565" x1="4.67654" y1="8.19702" x2="22" y2="8.19702" gradientUnits="userSpaceOnUse">
<stop stop-color="#42A3F2"/>
<stop offset="1" stop-color="#42A4EB"/>
</linearGradient>
<linearGradient id="paint5_linear_40_4565" x1="12.6486" y1="2.96706" x2="14.5548" y2="12.144" gradientUnits="userSpaceOnUse">
<stop stop-color="#F44F5A"/>
<stop offset="0.443" stop-color="#EE3D4A"/>
<stop offset="1" stop-color="#E52030"/>
</linearGradient>
</defs>
</svg>
