<svg width="24" height="24" viewBox="0 0 24 24" fill="none" xmlns="http://www.w3.org/2000/svg">
<path d="M17.4194 2H3.11111C2.49722 2 2 2.49722 2 3.11111V20.8889C2 21.5028 2.49722 22 3.11111 22H18.6667V3.24722C18.6667 2.55833 18.1083 2 17.4194 2Z" fill="url(#paint0_linear_40_4617)"/>
<path d="M12.5556 2H20.8889C21.5028 2 22 2.49722 22 3.11111V20.8889C22 21.5028 21.5028 22 20.8889 22H12.5556V2Z" fill="url(#paint1_linear_40_4617)"/>
<path d="M4.59278 4.77774H3.85167C3.74944 4.77774 3.66667 4.69496 3.66667 4.59274V3.85163C3.66667 3.7494 3.74944 3.66663 3.85167 3.66663H4.59222C4.695 3.66663 4.77778 3.7494 4.77778 3.85163V4.59218C4.77778 4.69496 4.695 4.77774 4.59278 4.77774Z" fill="url(#paint2_linear_40_4617)"/>
<path d="M10.6483 4.77774H6.12944C5.99667 4.77774 5.88889 4.66996 5.88889 4.53718V3.90718C5.88889 3.7744 5.99667 3.66663 6.12944 3.66663H10.6483C10.7811 3.66663 10.8889 3.7744 10.8889 3.90718V4.53718C10.8889 4.66996 10.7811 4.77774 10.6483 4.77774Z" fill="url(#paint3_linear_40_4617)"/>
<path d="M4.59278 7.00003H3.85167C3.74944 7.00003 3.66667 6.91725 3.66667 6.81503V6.07447C3.66667 5.97169 3.74944 5.88892 3.85167 5.88892H4.59222C4.695 5.88892 4.77778 5.97169 4.77778 6.07392V6.81447C4.77778 6.91725 4.695 7.00003 4.59278 7.00003Z" fill="url(#paint4_linear_40_4617)"/>
<path d="M10.6483 7.00003H6.12944C5.99667 7.00003 5.88889 6.89225 5.88889 6.75947V6.12947C5.88889 5.99669 5.99667 5.88892 6.12944 5.88892H10.6483C10.7811 5.88892 10.8889 5.99669 10.8889 6.12947V6.75947C10.8889 6.89225 10.7811 7.00003 10.6483 7.00003Z" fill="url(#paint5_linear_40_4617)"/>
<path d="M4.59278 9.2222H3.85167C3.74944 9.2222 3.66667 9.13942 3.66667 9.0372V8.29664C3.66667 8.19386 3.74944 8.11108 3.85167 8.11108H4.59222C4.695 8.11108 4.77778 8.19386 4.77778 8.29608V9.03664C4.77778 9.13942 4.695 9.2222 4.59278 9.2222Z" fill="url(#paint6_linear_40_4617)"/>
<path d="M10.6483 9.2222H6.12944C5.99667 9.2222 5.88889 9.11442 5.88889 8.98164V8.35164C5.88889 8.21886 5.99667 8.11108 6.12944 8.11108H10.6483C10.7811 8.11108 10.8889 8.21886 10.8889 8.35164V8.98164C10.8889 9.11442 10.7811 9.2222 10.6483 9.2222Z" fill="url(#paint7_linear_40_4617)"/>
<path d="M4.59278 11.4445H3.85167C3.74944 11.4445 3.66667 11.3617 3.66667 11.2595V10.5189C3.66667 10.4162 3.74944 10.3334 3.85167 10.3334H4.59222C4.695 10.3334 4.77778 10.4162 4.77778 10.5184V11.2589C4.77778 11.3617 4.695 11.4445 4.59278 11.4445Z" fill="url(#paint8_linear_40_4617)"/>
<path d="M10.6483 11.4445H6.12944C5.99667 11.4445 5.88889 11.3367 5.88889 11.2039V10.5739C5.88889 10.4412 5.99667 10.3334 6.12944 10.3334H10.6483C10.7811 10.3334 10.8889 10.4412 10.8889 10.5739V11.2039C10.8889 11.3367 10.7811 11.4445 10.6483 11.4445Z" fill="url(#paint9_linear_40_4617)"/>
<path opacity="0.05" d="M14.4594 10.509C14.6722 10.509 14.8733 10.4295 15.0267 10.2862L17.2844 8.16452C17.4556 8.00341 17.55 7.78729 17.55 7.55563C17.55 7.32396 17.4561 7.10785 17.2856 6.94729L15.0267 4.82507C14.8733 4.68118 14.6722 4.60229 14.4594 4.60229C14.0517 4.60229 13.7144 4.88507 13.6583 5.27396L13.65 5.37229L13.6494 9.74007L13.6572 9.82843C13.7144 10.2279 14.0511 10.509 14.4594 10.509Z" fill="black"/>
<path opacity="0.07" d="M14.4594 10.2311C14.6011 10.2311 14.7356 10.1784 14.8367 10.0834L17.0944 7.96167C17.2094 7.85389 17.2722 7.70945 17.2722 7.55556C17.2722 7.40167 17.2094 7.25723 17.095 7.14945L14.8367 5.02778C14.7356 4.93278 14.6017 4.88 14.4594 4.88C14.1911 4.88 13.9694 5.06223 13.9333 5.31334L13.9272 5.39278V9.74L13.9333 9.79947C13.9694 10.0489 14.1906 10.2311 14.4594 10.2311Z" fill="black"/>
<path d="M14.2078 5.3534C14.2356 5.16062 14.5 5.09229 14.6461 5.23007L16.9039 7.35173C16.9639 7.40784 16.9939 7.48173 16.9939 7.55562C16.9939 7.62951 16.9639 7.7034 16.9039 7.75951L14.6461 9.88116C14.5 10.0189 14.2356 9.9506 14.2078 9.75784C14.2061 9.74507 14.205 9.73173 14.205 9.7184V5.39229C14.205 5.37896 14.2061 5.36618 14.2078 5.3534Z" fill="#7DD8F3"/>
<defs>
<linearGradient id="paint0_linear_40_4617" x1="5.69235" y1="-0.979459" x2="19.9698" y2="16.4863" gradientUnits="userSpaceOnUse">
<stop stop-color="#FCFCFC"/>
<stop offset="0.95" stop-color="#C3C9CD"/>
</linearGradient>
<linearGradient id="paint1_linear_40_4617" x1="12.5556" y1="12" x2="22" y2="12" gradientUnits="userSpaceOnUse">
<stop stop-color="#1951A8"/>
<stop offset="0.175" stop-color="#1955B0"/>
<stop offset="0.505" stop-color="#195AB9"/>
<stop offset="1" stop-color="#195BBC"/>
</linearGradient>
<linearGradient id="paint2_linear_40_4617" x1="3.93743" y1="3.69576" x2="4.06064" y2="4.84873" gradientUnits="userSpaceOnUse">
<stop stop-color="#C3CDD9"/>
<stop offset="1" stop-color="#9FA7B0"/>
</linearGradient>
<linearGradient id="paint3_linear_40_4617" x1="7.10733" y1="3.69576" x2="7.135" y2="4.86124" gradientUnits="userSpaceOnUse">
<stop stop-color="#C3CDD9"/>
<stop offset="1" stop-color="#9FA7B0"/>
</linearGradient>
<linearGradient id="paint4_linear_40_4617" x1="3.93743" y1="5.91805" x2="4.06064" y2="7.07102" gradientUnits="userSpaceOnUse">
<stop stop-color="#C3CDD9"/>
<stop offset="1" stop-color="#9FA7B0"/>
</linearGradient>
<linearGradient id="paint5_linear_40_4617" x1="7.10733" y1="5.91805" x2="7.135" y2="7.08353" gradientUnits="userSpaceOnUse">
<stop stop-color="#C3CDD9"/>
<stop offset="1" stop-color="#9FA7B0"/>
</linearGradient>
<linearGradient id="paint6_linear_40_4617" x1="3.93743" y1="8.14022" x2="4.06064" y2="9.29319" gradientUnits="userSpaceOnUse">
<stop stop-color="#C3CDD9"/>
<stop offset="1" stop-color="#9FA7B0"/>
</linearGradient>
<linearGradient id="paint7_linear_40_4617" x1="7.10733" y1="8.14022" x2="7.135" y2="9.3057" gradientUnits="userSpaceOnUse">
<stop stop-color="#C3CDD9"/>
<stop offset="1" stop-color="#9FA7B0"/>
</linearGradient>
<linearGradient id="paint8_linear_40_4617" x1="3.93743" y1="10.3625" x2="4.06064" y2="11.5155" gradientUnits="userSpaceOnUse">
<stop stop-color="#C3CDD9"/>
<stop offset="1" stop-color="#9FA7B0"/>
</linearGradient>
<linearGradient id="paint9_linear_40_4617" x1="7.10733" y1="10.3625" x2="7.135" y2="11.528" gradientUnits="userSpaceOnUse">
<stop stop-color="#C3CDD9"/>
<stop offset="1" stop-color="#9FA7B0"/>
</linearGradient>
</defs>
</svg>
