<svg width="24" height="24" viewBox="0 0 24 24" fill="none" xmlns="http://www.w3.org/2000/svg">
<path d="M2.95238 9.61902H21.0476V19.1428H2.95238V9.61902Z" fill="url(#paint0_linear_40_4680)"/>
<path d="M2.95238 19.1428H21.0476V19.619C21.0476 20.1452 20.6214 20.5714 20.0952 20.5714H3.90476C3.37857 20.5714 2.95238 20.1452 2.95238 19.619V19.1428Z" fill="url(#paint1_linear_40_4680)"/>
<path d="M11.5238 12.9524H12.4762V19.1429H11.5238V12.9524Z" fill="url(#paint2_linear_40_4680)"/>
<path d="M20.0952 3.42859H3.90476C3.38095 3.42859 2.95238 3.85716 2.95238 4.38097V5.33335H21.0476V4.38097C21.0476 3.85716 20.619 3.42859 20.0952 3.42859Z" fill="#0078D4"/>
<path d="M20.5714 8.19055H3.42857L2 9.61912V10.0953C2 10.6215 2.42619 11.0477 2.95238 11.0477H21.0476C21.5738 11.0477 22 10.6215 22 10.0953V9.61912L20.5714 8.19055Z" fill="#0078D4"/>
<path d="M21.0476 5.33337H2.95238L2 9.61909H22L21.0476 5.33337Z" fill="url(#paint3_linear_40_4680)"/>
<path d="M12.4762 19.1428H11.5238V20.5714H12.4762V19.1428Z" fill="url(#paint4_linear_40_4680)"/>
<path d="M12.4762 12.9524H17.2381C17.501 12.9524 17.7143 13.1657 17.7143 13.4286V19.1429H12.4762V12.9524Z" fill="url(#paint5_linear_40_4680)"/>
<path d="M17.7143 19.1428H12.4762V20.5714H17.7143V19.1428Z" fill="#0078D4"/>
<path d="M6.7619 12.9524H11.5238V19.1429H6.28571V13.4286C6.28571 13.1657 6.49905 12.9524 6.7619 12.9524Z" fill="url(#paint6_linear_40_4680)"/>
<path d="M11.5238 19.1428H6.28571V20.5714H11.5238V19.1428Z" fill="#0078D4"/>
<path d="M13.9048 17.7143C14.1677 17.7143 14.381 17.5011 14.381 17.2382C14.381 16.9752 14.1677 16.762 13.9048 16.762C13.6418 16.762 13.4286 16.9752 13.4286 17.2382C13.4286 17.5011 13.6418 17.7143 13.9048 17.7143Z" fill="#0078D4"/>
<path d="M10.0952 17.7143C10.3582 17.7143 10.5714 17.5011 10.5714 17.2382C10.5714 16.9752 10.3582 16.762 10.0952 16.762C9.83225 16.762 9.61905 16.9752 9.61905 17.2382C9.61905 17.5011 9.83225 17.7143 10.0952 17.7143Z" fill="#0078D4"/>
<defs>
<linearGradient id="paint0_linear_40_4680" x1="8.65755" y1="9.76524" x2="11.5849" y2="20.4888" gradientUnits="userSpaceOnUse">
<stop stop-color="#7DD8F3"/>
<stop offset="1" stop-color="#45B0D0"/>
</linearGradient>
<linearGradient id="paint1_linear_40_4680" x1="9.56347" y1="19.2051" x2="9.58608" y2="20.7801" gradientUnits="userSpaceOnUse">
<stop stop-color="#32BDEF"/>
<stop offset="1" stop-color="#1EA2E4"/>
</linearGradient>
<linearGradient id="paint2_linear_40_4680" x1="11.5238" y1="16.0476" x2="12.4762" y2="16.0476" gradientUnits="userSpaceOnUse">
<stop stop-color="#3079D6"/>
<stop offset="1" stop-color="#297CD2"/>
</linearGradient>
<linearGradient id="paint3_linear_40_4680" x1="6.43083" y1="4.69492" x2="7.32322" y2="10.8083" gradientUnits="userSpaceOnUse">
<stop stop-color="#FCFCFC"/>
<stop offset="0.95" stop-color="#C3C9CD"/>
</linearGradient>
<linearGradient id="paint4_linear_40_4680" x1="11.5238" y1="19.8571" x2="12.4762" y2="19.8571" gradientUnits="userSpaceOnUse">
<stop stop-color="#1D59B3"/>
<stop offset="1" stop-color="#195BBC"/>
</linearGradient>
<linearGradient id="paint5_linear_40_4680" x1="13.6367" y1="12.0302" x2="18.042" y2="17.5022" gradientUnits="userSpaceOnUse">
<stop stop-color="#FCFCFC"/>
<stop offset="0.95" stop-color="#C3C9CD"/>
</linearGradient>
<linearGradient id="paint6_linear_40_4680" x1="7.44617" y1="12.0302" x2="11.8515" y2="17.5022" gradientUnits="userSpaceOnUse">
<stop stop-color="#FCFCFC"/>
<stop offset="0.95" stop-color="#C3C9CD"/>
</linearGradient>
</defs>
</svg>
