<svg width="24" height="24" viewBox="0 0 24 24" fill="none" xmlns="http://www.w3.org/2000/svg">
<path d="M21 2.25H3C2.4475 2.25 2 2.6975 2 3.25V16.25C2 16.8025 2.4475 17.25 3 17.25H7V21.249C7 21.6945 7.5385 21.9175 7.8535 21.6025L12.206 17.25H21C21.5525 17.25 22 16.8025 22 16.25V3.25C22 2.6975 21.5525 2.25 21 2.25Z" fill="url(#paint0_linear_40_4727)"/>
<path opacity="0.3" d="M12 11.75C12.8284 11.75 13.5 11.0784 13.5 10.25C13.5 9.4216 12.8284 8.75 12 8.75C11.1716 8.75 10.5 9.4216 10.5 10.25C10.5 11.0784 11.1716 11.75 12 11.75Z" fill="url(#paint1_radial_40_4727)"/>
<path d="M12 11.25C12.5523 11.25 13 10.8023 13 10.25C13 9.6977 12.5523 9.25 12 9.25C11.4477 9.25 11 9.6977 11 10.25C11 10.8023 11.4477 11.25 12 11.25Z" fill="white"/>
<path opacity="0.3" d="M8 11.75C8.82843 11.75 9.5 11.0784 9.5 10.25C9.5 9.4216 8.82843 8.75 8 8.75C7.17157 8.75 6.5 9.4216 6.5 10.25C6.5 11.0784 7.17157 11.75 8 11.75Z" fill="url(#paint2_radial_40_4727)"/>
<path d="M8 11.25C8.55228 11.25 9 10.8023 9 10.25C9 9.6977 8.55228 9.25 8 9.25C7.44772 9.25 7 9.6977 7 10.25C7 10.8023 7.44772 11.25 8 11.25Z" fill="white"/>
<path opacity="0.3" d="M16 11.75C16.8284 11.75 17.5 11.0784 17.5 10.25C17.5 9.4216 16.8284 8.75 16 8.75C15.1716 8.75 14.5 9.4216 14.5 10.25C14.5 11.0784 15.1716 11.75 16 11.75Z" fill="url(#paint3_radial_40_4727)"/>
<path d="M16 11.25C16.5523 11.25 17 10.8023 17 10.25C17 9.6977 16.5523 9.25 16 9.25C15.4477 9.25 15 9.6977 15 10.25C15 10.8023 15.4477 11.25 16 11.25Z" fill="white"/>
<defs>
<linearGradient id="paint0_linear_40_4727" x1="6.343" y1="0.546" x2="17.79" y2="19.1705" gradientUnits="userSpaceOnUse">
<stop stop-color="#33BEF0"/>
<stop offset="1" stop-color="#0A85D9"/>
</linearGradient>
<radialGradient id="paint1_radial_40_4727" cx="0" cy="0" r="1" gradientUnits="userSpaceOnUse" gradientTransform="translate(12 10.25) scale(1.5)">
<stop/>
<stop offset="1" stop-opacity="0"/>
</radialGradient>
<radialGradient id="paint2_radial_40_4727" cx="0" cy="0" r="1" gradientUnits="userSpaceOnUse" gradientTransform="translate(8 10.25) scale(1.5)">
<stop/>
<stop offset="1" stop-opacity="0"/>
</radialGradient>
<radialGradient id="paint3_radial_40_4727" cx="0" cy="0" r="1" gradientUnits="userSpaceOnUse" gradientTransform="translate(16 10.25) scale(1.5)">
<stop/>
<stop offset="1" stop-opacity="0"/>
</radialGradient>
</defs>
</svg>
