<svg width="24" height="24" viewBox="0 0 24 24" fill="none" xmlns="http://www.w3.org/2000/svg">
<path d="M13.6667 4.7085C12.7463 4.7085 12 5.45475 12 6.37516V16.7918C11.2317 16.7918 10.6254 17.4852 10.7721 18.2793C10.8625 18.7706 11.2621 19.1735 11.7525 19.2677C12.4013 19.3922 12.9758 19.0143 13.1733 18.4581H21.1667C21.6271 18.4581 22 18.0852 22 17.6247V5.54183C22 5.08141 21.6271 4.7085 21.1667 4.7085H13.6667Z" fill="url(#paint0_linear_40_4848)"/>
<path d="M10.3333 18.4585H2.83333C2.37292 18.4585 2 18.0856 2 17.6252V5.54183C2 5.08141 2.37292 4.7085 2.83333 4.7085H10.3333C11.2537 4.7085 12 5.45475 12 6.37516V18.4585C12 18.4585 11.2537 18.4585 10.3333 18.4585Z" fill="url(#paint1_linear_40_4848)"/>
<path d="M8.25 8.8752C8.48012 8.8752 8.66667 8.68865 8.66667 8.45854C8.66667 8.22842 8.48012 8.04187 8.25 8.04187C8.01988 8.04187 7.83333 8.22842 7.83333 8.45854C7.83333 8.68865 8.01988 8.8752 8.25 8.8752Z" fill="url(#paint2_linear_40_4848)"/>
<path d="M6.58333 8.04187C6.50583 8.04187 4.16083 8.04187 4.08333 8.04187C3.85333 8.04187 3.66666 8.22854 3.66666 8.45854C3.66666 8.68854 3.85333 8.8752 4.08333 8.8752C4.16083 8.8752 6.50583 8.8752 6.58333 8.8752C6.81333 8.8752 7 8.68854 7 8.45854C7 8.22854 6.81333 8.04187 6.58333 8.04187Z" fill="url(#paint3_linear_40_4848)"/>
<path d="M16.5833 8.04187C16.5058 8.04187 14.1608 8.04187 14.0833 8.04187C13.8533 8.04187 13.6667 8.22854 13.6667 8.45854C13.6667 8.68854 13.8533 8.8752 14.0833 8.8752C14.1608 8.8752 16.5058 8.8752 16.5833 8.8752C16.8133 8.8752 17 8.68854 17 8.45854C17 8.22854 16.8133 8.04187 16.5833 8.04187Z" fill="url(#paint4_linear_40_4848)"/>
<path d="M6.58333 9.7085C6.50583 9.7085 4.16083 9.7085 4.08333 9.7085C3.85333 9.7085 3.66666 9.89516 3.66666 10.1252C3.66666 10.3552 3.85333 10.5418 4.08333 10.5418C4.16083 10.5418 6.50583 10.5418 6.58333 10.5418C6.81333 10.5418 7 10.3552 7 10.1252C7 9.89516 6.81333 9.7085 6.58333 9.7085Z" fill="url(#paint5_linear_40_4848)"/>
<path d="M6.58333 11.3751C6.50583 11.3751 4.16083 11.3751 4.08333 11.3751C3.85333 11.3751 3.66666 11.5618 3.66666 11.7918C3.66666 12.0218 3.85333 12.2085 4.08333 12.2085C4.16083 12.2085 6.50583 12.2085 6.58333 12.2085C6.81333 12.2085 7 12.0218 7 11.7918C7 11.5618 6.81333 11.3751 6.58333 11.3751Z" fill="url(#paint6_linear_40_4848)"/>
<path d="M6.58333 14.7085C6.50583 14.7085 4.16083 14.7085 4.08333 14.7085C3.85333 14.7085 3.66666 14.8952 3.66666 15.1252C3.66666 15.3552 3.85333 15.5418 4.08333 15.5418C4.16083 15.5418 6.50583 15.5418 6.58333 15.5418C6.81333 15.5418 7 15.3552 7 15.1252C7 14.8952 6.81333 14.7085 6.58333 14.7085Z" fill="url(#paint7_linear_40_4848)"/>
<path d="M6.58333 13.0419C6.50583 13.0419 4.16083 13.0419 4.08333 13.0419C3.85333 13.0419 3.66666 13.2285 3.66666 13.4585C3.66666 13.6885 3.85333 13.8752 4.08333 13.8752C4.16083 13.8752 6.50583 13.8752 6.58333 13.8752C6.81333 13.8752 7 13.6885 7 13.4585C7 13.2285 6.81333 13.0419 6.58333 13.0419Z" fill="url(#paint8_linear_40_4848)"/>
<path d="M9.91667 8.8752C10.1468 8.8752 10.3333 8.68865 10.3333 8.45854C10.3333 8.22842 10.1468 8.04187 9.91667 8.04187C9.68655 8.04187 9.5 8.22842 9.5 8.45854C9.5 8.68865 9.68655 8.8752 9.91667 8.8752Z" fill="url(#paint9_linear_40_4848)"/>
<path d="M18.25 8.8752C18.4801 8.8752 18.6667 8.68865 18.6667 8.45854C18.6667 8.22842 18.4801 8.04187 18.25 8.04187C18.0199 8.04187 17.8333 8.22842 17.8333 8.45854C17.8333 8.68865 18.0199 8.8752 18.25 8.8752Z" fill="url(#paint10_linear_40_4848)"/>
<path d="M19.9167 8.8752C20.1467 8.8752 20.3333 8.68865 20.3333 8.45854C20.3333 8.22842 20.1467 8.04187 19.9167 8.04187C19.6866 8.04187 19.5 8.22842 19.5 8.45854C19.5 8.68865 19.6866 8.8752 19.9167 8.8752Z" fill="url(#paint11_linear_40_4848)"/>
<path d="M16.5833 9.7085C16.5058 9.7085 14.1608 9.7085 14.0833 9.7085C13.8533 9.7085 13.6667 9.89516 13.6667 10.1252C13.6667 10.3552 13.8533 10.5418 14.0833 10.5418C14.1608 10.5418 16.5058 10.5418 16.5833 10.5418C16.8133 10.5418 17 10.3552 17 10.1252C17 9.89516 16.8133 9.7085 16.5833 9.7085Z" fill="url(#paint12_linear_40_4848)"/>
<path d="M18.25 10.5418C18.4801 10.5418 18.6667 10.3552 18.6667 10.1252C18.6667 9.89505 18.4801 9.7085 18.25 9.7085C18.0199 9.7085 17.8333 9.89505 17.8333 10.1252C17.8333 10.3552 18.0199 10.5418 18.25 10.5418Z" fill="url(#paint13_linear_40_4848)"/>
<path d="M19.9167 10.5418C20.1467 10.5418 20.3333 10.3552 20.3333 10.1252C20.3333 9.89505 20.1467 9.7085 19.9167 9.7085C19.6866 9.7085 19.5 9.89505 19.5 10.1252C19.5 10.3552 19.6866 10.5418 19.9167 10.5418Z" fill="url(#paint14_linear_40_4848)"/>
<path d="M16.5833 11.3751C16.5058 11.3751 14.1608 11.3751 14.0833 11.3751C13.8533 11.3751 13.6667 11.5618 13.6667 11.7918C13.6667 12.0218 13.8533 12.2085 14.0833 12.2085C14.1608 12.2085 16.5058 12.2085 16.5833 12.2085C16.8133 12.2085 17 12.0218 17 11.7918C17 11.5618 16.8133 11.3751 16.5833 11.3751Z" fill="url(#paint15_linear_40_4848)"/>
<path d="M19.9167 12.2085C20.1467 12.2085 20.3333 12.0219 20.3333 11.7918C20.3333 11.5617 20.1467 11.3751 19.9167 11.3751C19.6866 11.3751 19.5 11.5617 19.5 11.7918C19.5 12.0219 19.6866 12.2085 19.9167 12.2085Z" fill="url(#paint16_linear_40_4848)"/>
<path d="M8.25 10.5418C8.48012 10.5418 8.66667 10.3552 8.66667 10.1252C8.66667 9.89505 8.48012 9.7085 8.25 9.7085C8.01988 9.7085 7.83333 9.89505 7.83333 10.1252C7.83333 10.3552 8.01988 10.5418 8.25 10.5418Z" fill="url(#paint17_linear_40_4848)"/>
<path d="M9.91667 10.5418C10.1468 10.5418 10.3333 10.3552 10.3333 10.1252C10.3333 9.89505 10.1468 9.7085 9.91667 9.7085C9.68655 9.7085 9.5 9.89505 9.5 10.1252C9.5 10.3552 9.68655 10.5418 9.91667 10.5418Z" fill="url(#paint18_linear_40_4848)"/>
<path d="M9.91667 12.2085C10.1468 12.2085 10.3333 12.0219 10.3333 11.7918C10.3333 11.5617 10.1468 11.3751 9.91667 11.3751C9.68655 11.3751 9.5 11.5617 9.5 11.7918C9.5 12.0219 9.68655 12.2085 9.91667 12.2085Z" fill="url(#paint19_linear_40_4848)"/>
<path d="M9.91667 15.5418C10.1468 15.5418 10.3333 15.3552 10.3333 15.1252C10.3333 14.8951 10.1468 14.7085 9.91667 14.7085C9.68655 14.7085 9.5 14.8951 9.5 15.1252C9.5 15.3552 9.68655 15.5418 9.91667 15.5418Z" fill="url(#paint20_linear_40_4848)"/>
<path d="M8.25 13.8752C8.48012 13.8752 8.66667 13.6886 8.66667 13.4585C8.66667 13.2285 8.48012 13.0419 8.25 13.0419C8.01988 13.0419 7.83333 13.2285 7.83333 13.4585C7.83333 13.6886 8.01988 13.8752 8.25 13.8752Z" fill="url(#paint21_linear_40_4848)"/>
<path d="M9.91667 13.8752C10.1468 13.8752 10.3333 13.6886 10.3333 13.4585C10.3333 13.2285 10.1468 13.0419 9.91667 13.0419C9.68655 13.0419 9.5 13.2285 9.5 13.4585C9.5 13.6886 9.68655 13.8752 9.91667 13.8752Z" fill="url(#paint22_linear_40_4848)"/>
<defs>
<linearGradient id="paint0_linear_40_4848" x1="14.297" y1="4.93239" x2="22.4665" y2="17.0836" gradientUnits="userSpaceOnUse">
<stop stop-color="#7DD8F3"/>
<stop offset="1" stop-color="#45B0D0"/>
</linearGradient>
<linearGradient id="paint1_linear_40_4848" x1="5.15286" y1="4.9196" x2="13.0171" y2="15.9471" gradientUnits="userSpaceOnUse">
<stop stop-color="#7DD8F3"/>
<stop offset="1" stop-color="#45B0D0"/>
</linearGradient>
<linearGradient id="paint2_linear_40_4848" x1="8.12262" y1="8.07831" x2="8.25911" y2="8.96548" gradientUnits="userSpaceOnUse">
<stop stop-color="#0D61A9"/>
<stop offset="1" stop-color="#16528C"/>
</linearGradient>
<linearGradient id="paint3_linear_40_4848" x1="4.82383" y1="8.07831" x2="4.85871" y2="8.98514" gradientUnits="userSpaceOnUse">
<stop stop-color="#0D61A9"/>
<stop offset="1" stop-color="#16528C"/>
</linearGradient>
<linearGradient id="paint4_linear_40_4848" x1="14.8238" y1="8.07831" x2="14.8588" y2="8.98514" gradientUnits="userSpaceOnUse">
<stop stop-color="#0D61A9"/>
<stop offset="1" stop-color="#16528C"/>
</linearGradient>
<linearGradient id="paint5_linear_40_4848" x1="4.82383" y1="9.74494" x2="4.85871" y2="10.6517" gradientUnits="userSpaceOnUse">
<stop stop-color="#0D61A9"/>
<stop offset="1" stop-color="#16528C"/>
</linearGradient>
<linearGradient id="paint6_linear_40_4848" x1="4.82383" y1="11.4115" x2="4.85871" y2="12.3184" gradientUnits="userSpaceOnUse">
<stop stop-color="#0D61A9"/>
<stop offset="1" stop-color="#16528C"/>
</linearGradient>
<linearGradient id="paint7_linear_40_4848" x1="4.82383" y1="14.7449" x2="4.85871" y2="15.6517" gradientUnits="userSpaceOnUse">
<stop stop-color="#0D61A9"/>
<stop offset="1" stop-color="#16528C"/>
</linearGradient>
<linearGradient id="paint8_linear_40_4848" x1="4.82383" y1="13.0783" x2="4.85871" y2="13.9851" gradientUnits="userSpaceOnUse">
<stop stop-color="#0D61A9"/>
<stop offset="1" stop-color="#16528C"/>
</linearGradient>
<linearGradient id="paint9_linear_40_4848" x1="9.78929" y1="8.07831" x2="9.92577" y2="8.96548" gradientUnits="userSpaceOnUse">
<stop stop-color="#0D61A9"/>
<stop offset="1" stop-color="#16528C"/>
</linearGradient>
<linearGradient id="paint10_linear_40_4848" x1="18.1226" y1="8.07831" x2="18.2591" y2="8.96548" gradientUnits="userSpaceOnUse">
<stop stop-color="#0D61A9"/>
<stop offset="1" stop-color="#16528C"/>
</linearGradient>
<linearGradient id="paint11_linear_40_4848" x1="19.7892" y1="8.07831" x2="19.9257" y2="8.96548" gradientUnits="userSpaceOnUse">
<stop stop-color="#0D61A9"/>
<stop offset="1" stop-color="#16528C"/>
</linearGradient>
<linearGradient id="paint12_linear_40_4848" x1="14.8238" y1="9.74494" x2="14.8588" y2="10.6517" gradientUnits="userSpaceOnUse">
<stop stop-color="#0D61A9"/>
<stop offset="1" stop-color="#16528C"/>
</linearGradient>
<linearGradient id="paint13_linear_40_4848" x1="18.1226" y1="9.74494" x2="18.2591" y2="10.6321" gradientUnits="userSpaceOnUse">
<stop stop-color="#0D61A9"/>
<stop offset="1" stop-color="#16528C"/>
</linearGradient>
<linearGradient id="paint14_linear_40_4848" x1="19.7893" y1="9.74494" x2="19.9258" y2="10.6321" gradientUnits="userSpaceOnUse">
<stop stop-color="#0D61A9"/>
<stop offset="1" stop-color="#16528C"/>
</linearGradient>
<linearGradient id="paint15_linear_40_4848" x1="14.8238" y1="11.4115" x2="14.8588" y2="12.3184" gradientUnits="userSpaceOnUse">
<stop stop-color="#0D61A9"/>
<stop offset="1" stop-color="#16528C"/>
</linearGradient>
<linearGradient id="paint16_linear_40_4848" x1="19.7892" y1="11.4115" x2="19.9257" y2="12.2987" gradientUnits="userSpaceOnUse">
<stop stop-color="#0D61A9"/>
<stop offset="1" stop-color="#16528C"/>
</linearGradient>
<linearGradient id="paint17_linear_40_4848" x1="8.12262" y1="9.74494" x2="8.25911" y2="10.6321" gradientUnits="userSpaceOnUse">
<stop stop-color="#0D61A9"/>
<stop offset="1" stop-color="#16528C"/>
</linearGradient>
<linearGradient id="paint18_linear_40_4848" x1="9.78929" y1="9.74494" x2="9.92578" y2="10.6321" gradientUnits="userSpaceOnUse">
<stop stop-color="#0D61A9"/>
<stop offset="1" stop-color="#16528C"/>
</linearGradient>
<linearGradient id="paint19_linear_40_4848" x1="9.78929" y1="11.4115" x2="9.92577" y2="12.2987" gradientUnits="userSpaceOnUse">
<stop stop-color="#0D61A9"/>
<stop offset="1" stop-color="#16528C"/>
</linearGradient>
<linearGradient id="paint20_linear_40_4848" x1="9.78929" y1="14.7449" x2="9.92577" y2="15.6321" gradientUnits="userSpaceOnUse">
<stop stop-color="#0D61A9"/>
<stop offset="1" stop-color="#16528C"/>
</linearGradient>
<linearGradient id="paint21_linear_40_4848" x1="8.12262" y1="13.0783" x2="8.25911" y2="13.9655" gradientUnits="userSpaceOnUse">
<stop stop-color="#0D61A9"/>
<stop offset="1" stop-color="#16528C"/>
</linearGradient>
<linearGradient id="paint22_linear_40_4848" x1="9.78929" y1="13.0783" x2="9.92577" y2="13.9655" gradientUnits="userSpaceOnUse">
<stop stop-color="#0D61A9"/>
<stop offset="1" stop-color="#16528C"/>
</linearGradient>
</defs>
</svg>
