<svg width="24" height="24" viewBox="0 0 24 24" fill="none" xmlns="http://www.w3.org/2000/svg">
<path d="M14.25 3.25H9.75C9.336 3.25 9 3.586 9 4V4.75H15V4C15 3.586 14.664 3.25 14.25 3.25Z" fill="url(#paint0_linear_40_6041)"/>
<path d="M21 20.75H3C2.45 20.75 2 20.3 2 19.75V6.75C2 5.65 2.9 4.75 4 4.75H20C21.1 4.75 22 5.65 22 6.75V19.75C22 20.3 21.55 20.75 21 20.75Z" fill="url(#paint1_radial_40_6041)"/>
<path d="M21.1485 12.8775L12 14.25L2.8515 12.8775C2.362 12.8045 2 12.384 2 11.889V6.75C2 5.65 2.9 4.75 4 4.75H20C21.1 4.75 22 5.65 22 6.75V11.889C22 12.384 21.638 12.8045 21.1485 12.8775Z" fill="url(#paint2_linear_40_6041)"/>
<path d="M12.75 10.75H11.25C11.112 10.75 11 10.862 11 11V12.5C11 12.638 11.112 12.75 11.25 12.75H12.75C12.888 12.75 13 12.638 13 12.5V11C13 10.862 12.888 10.75 12.75 10.75Z" fill="#F6ECA5"/>
<defs>
<linearGradient id="paint0_linear_40_6041" x1="12" y1="4.7395" x2="12" y2="3.404" gradientUnits="userSpaceOnUse">
<stop stop-color="#B33F20"/>
<stop offset="0.129" stop-color="#C74724"/>
<stop offset="0.295" stop-color="#D94F29"/>
<stop offset="0.469" stop-color="#E4532B"/>
<stop offset="0.659" stop-color="#E8552C"/>
</linearGradient>
<radialGradient id="paint1_radial_40_6041" cx="0" cy="0" r="1" gradientUnits="userSpaceOnUse" gradientTransform="translate(11.916 3.24598) scale(22.87 18.3966)">
<stop stop-color="#40150B"/>
<stop offset="0.156" stop-color="#622110"/>
<stop offset="0.417" stop-color="#953218"/>
<stop offset="0.645" stop-color="#BA3F1E"/>
<stop offset="0.828" stop-color="#D14722"/>
<stop offset="0.944" stop-color="#D94A23"/>
</radialGradient>
<linearGradient id="paint2_linear_40_6041" x1="12" y1="4.764" x2="12" y2="13.7135" gradientUnits="userSpaceOnUse">
<stop stop-color="#FC7D5B"/>
<stop offset="0.06" stop-color="#F8734F"/>
<stop offset="0.18" stop-color="#F3653D"/>
<stop offset="0.326" stop-color="#F05B31"/>
<stop offset="0.523" stop-color="#EE552A"/>
<stop offset="1" stop-color="#ED5328"/>
</linearGradient>
</defs>
</svg>
