<svg width="24" height="24" viewBox="0 0 24 24" fill="none" xmlns="http://www.w3.org/2000/svg">
<path d="M12 2L12.6459 2.67C13.0686 3.10864 13.7314 3.21364 14.2691 2.92727L15.0905 2.48955L15.4977 3.32636C15.7641 3.87409 16.3623 4.17909 16.9623 4.07227L17.8786 3.91L18.0073 4.83182C18.0914 5.43545 18.5659 5.90955 19.1695 5.99409L20.0914 6.12273L19.9291 7.03909C19.8227 7.63909 20.1273 8.23682 20.675 8.50364L21.5118 8.91091L21.0741 9.73227C20.7873 10.27 20.8923 10.9327 21.3314 11.3555L22 12L21.33 12.6459C20.8914 13.0686 20.7864 13.7314 21.0727 14.2691L21.5105 15.0905L20.6736 15.4977C20.1259 15.7641 19.8209 16.3623 19.9277 16.9623L20.09 17.8786L19.1682 18.0073C18.5645 18.0914 18.0905 18.5659 18.0059 19.1695L17.8773 20.0914L16.9609 19.9291C16.3609 19.8227 15.7632 20.1273 15.4964 20.675L15.0891 21.5118L14.2677 21.0741C13.73 20.7873 13.0673 20.8923 12.6445 21.3314L12 22L11.3541 21.33C10.9314 20.8914 10.2686 20.7864 9.73091 21.0727L8.90955 21.5105L8.50227 20.6736C8.23591 20.1259 7.63773 19.8209 7.03773 19.9277L6.12136 20.09L5.99273 19.1682C5.90864 18.5645 5.43409 18.0905 4.83045 18.0059L3.90864 17.8773L4.07091 16.9609C4.17727 16.3609 3.87273 15.7632 3.325 15.4964L2.48818 15.0891L2.92591 14.2677C3.21273 13.73 3.10773 13.0673 2.66864 12.6445L2 12L2.67 11.3541C3.10864 10.9314 3.21364 10.2686 2.92727 9.73091L2.48955 8.90955L3.32636 8.50227C3.87409 8.23591 4.17909 7.63773 4.07227 7.03773L3.91 6.12136L4.83182 5.99273C5.43545 5.90864 5.90955 5.43409 5.99409 4.83045L6.12273 3.90864L7.03909 4.07091C7.63909 4.17727 8.23682 3.87273 8.50364 3.325L8.91091 2.48818L9.73227 2.92591C10.27 3.21273 10.9327 3.10773 11.3555 2.66864L12 2Z" fill="url(#paint0_radial_40_4897)"/>
<path d="M12 4.27271C7.73227 4.27271 4.27273 7.73225 4.27273 12C4.27273 16.2677 7.73227 19.7273 12 19.7273C16.2677 19.7273 19.7273 16.2677 19.7273 12C19.7273 7.73225 16.2677 4.27271 12 4.27271Z" fill="url(#paint1_linear_40_4897)"/>
<defs>
<radialGradient id="paint0_radial_40_4897" cx="0" cy="0" r="1" gradientUnits="userSpaceOnUse" gradientTransform="translate(12 12) scale(10)">
<stop offset="0.724" stop-color="#FFED54"/>
<stop offset="0.779" stop-color="#FFE649"/>
<stop offset="0.877" stop-color="#FFD22D"/>
<stop offset="1" stop-color="#FFB300"/>
</radialGradient>
<linearGradient id="paint1_linear_40_4897" x1="4.76909" y1="4.76907" x2="17.4527" y2="17.4527" gradientUnits="userSpaceOnUse">
<stop stop-color="#FED100"/>
<stop offset="1" stop-color="#E36001"/>
</linearGradient>
</defs>
</svg>
