<svg width="24" height="24" viewBox="0 0 24 24" fill="none" xmlns="http://www.w3.org/2000/svg">
<path d="M20.3333 2C19.4128 2 18.6667 2.74611 18.6667 3.66667C18.6667 4.58722 19.4128 5.33333 20.3333 5.33333C21.2539 5.33333 22 4.58722 22 3.66667C22 2.74611 21.2539 2 20.3333 2Z" fill="url(#paint0_linear_40_4972)"/>
<path d="M20.3333 7.55554C19.4128 7.55554 18.6667 8.30165 18.6667 9.22221C18.6667 10.1428 19.4128 10.8889 20.3333 10.8889C21.2539 10.8889 22 10.1428 22 9.22221C22 8.30165 21.2539 7.55554 20.3333 7.55554Z" fill="url(#paint1_linear_40_4972)"/>
<path d="M20.3333 13.1111C19.4128 13.1111 18.6667 13.8572 18.6667 14.7778C18.6667 15.6983 19.4128 16.4444 20.3333 16.4444C21.2539 16.4444 22 15.6983 22 14.7778C22 13.8572 21.2539 13.1111 20.3333 13.1111Z" fill="url(#paint2_linear_40_4972)"/>
<path d="M20.3333 18.6666C19.4128 18.6666 18.6667 19.4127 18.6667 20.3333C18.6667 21.2538 19.4128 22 20.3333 22C21.2539 22 22 21.2538 22 20.3333C22 19.4127 21.2539 18.6666 20.3333 18.6666Z" fill="url(#paint3_linear_40_4972)"/>
<path d="M15.8889 8.11108H2.55556C2.24889 8.11108 2 8.35997 2 8.66664V9.77775C2 10.0844 2.24889 10.3333 2.55556 10.3333H15.8889C16.1956 10.3333 16.4444 10.0844 16.4444 9.77775V8.66664C16.4444 8.35997 16.1956 8.11108 15.8889 8.11108Z" fill="url(#paint4_linear_40_4972)"/>
<path d="M15.8889 13.6666H2.55556C2.24889 13.6666 2 13.9155 2 14.2222V15.3333C2 15.64 2.24889 15.8888 2.55556 15.8888H15.8889C16.1956 15.8888 16.4444 15.64 16.4444 15.3333V14.2222C16.4444 13.9155 16.1956 13.6666 15.8889 13.6666Z" fill="url(#paint5_linear_40_4972)"/>
<path d="M15.8889 19.2222H2.55556C2.24889 19.2222 2 19.4711 2 19.7777V20.8888C2 21.1955 2.24889 21.4444 2.55556 21.4444H15.8889C16.1956 21.4444 16.4444 21.1955 16.4444 20.8888V19.7777C16.4444 19.4711 16.1956 19.2222 15.8889 19.2222Z" fill="url(#paint6_linear_40_4972)"/>
<path d="M15.8889 2.55554H2.55556C2.24889 2.55554 2 2.80443 2 3.1111V4.22221C2 4.52888 2.24889 4.77776 2.55556 4.77776H15.8889C16.1956 4.77776 16.4444 4.52888 16.4444 4.22221V3.1111C16.4444 2.80443 16.1956 2.55554 15.8889 2.55554Z" fill="url(#paint7_linear_40_4972)"/>
<defs>
<linearGradient id="paint0_linear_40_4972" x1="20.6228" y1="2.025" x2="20.0439" y2="5.30833" gradientUnits="userSpaceOnUse">
<stop stop-color="#889097"/>
<stop offset="0.679" stop-color="#5F6B74"/>
<stop offset="1" stop-color="#4C5963"/>
</linearGradient>
<linearGradient id="paint1_linear_40_4972" x1="20.6228" y1="7.58054" x2="20.0439" y2="10.8639" gradientUnits="userSpaceOnUse">
<stop stop-color="#889097"/>
<stop offset="0.679" stop-color="#5F6B74"/>
<stop offset="1" stop-color="#4C5963"/>
</linearGradient>
<linearGradient id="paint2_linear_40_4972" x1="20.6228" y1="13.1361" x2="20.0439" y2="16.4194" gradientUnits="userSpaceOnUse">
<stop stop-color="#889097"/>
<stop offset="0.679" stop-color="#5F6B74"/>
<stop offset="1" stop-color="#4C5963"/>
</linearGradient>
<linearGradient id="paint3_linear_40_4972" x1="20.6228" y1="18.6916" x2="20.0439" y2="21.975" gradientUnits="userSpaceOnUse">
<stop stop-color="#889097"/>
<stop offset="0.679" stop-color="#5F6B74"/>
<stop offset="1" stop-color="#4C5963"/>
</linearGradient>
<linearGradient id="paint4_linear_40_4972" x1="9.22222" y1="8.11108" x2="9.22222" y2="10.3333" gradientUnits="userSpaceOnUse">
<stop stop-color="#C3CDD9"/>
<stop offset="1" stop-color="#9FA7B0"/>
</linearGradient>
<linearGradient id="paint5_linear_40_4972" x1="9.22222" y1="13.6666" x2="9.22222" y2="15.8888" gradientUnits="userSpaceOnUse">
<stop stop-color="#C3CDD9"/>
<stop offset="1" stop-color="#9FA7B0"/>
</linearGradient>
<linearGradient id="paint6_linear_40_4972" x1="9.22222" y1="19.2222" x2="9.22222" y2="21.4444" gradientUnits="userSpaceOnUse">
<stop stop-color="#C3CDD9"/>
<stop offset="1" stop-color="#9FA7B0"/>
</linearGradient>
<linearGradient id="paint7_linear_40_4972" x1="9.22222" y1="2.55554" x2="9.22222" y2="4.77776" gradientUnits="userSpaceOnUse">
<stop stop-color="#C3CDD9"/>
<stop offset="1" stop-color="#9FA7B0"/>
</linearGradient>
</defs>
</svg>
