<svg width="24" height="24" viewBox="0 0 24 24" fill="none" xmlns="http://www.w3.org/2000/svg">
<path d="M6.09091 11.0909H15.1818C15.4327 11.0909 15.6364 11.2946 15.6364 11.5455V12.4546C15.6364 12.7055 15.4327 12.9091 15.1818 12.9091H6.09091C5.84 12.9091 5.63636 12.7055 5.63636 12.4546V11.5455C5.63636 11.2946 5.84 11.0909 6.09091 11.0909Z" fill="url(#paint0_linear_40_5062)"/>
<path d="M6.09091 14.7273H17.9091C18.16 14.7273 18.3636 14.9309 18.3636 15.1818V16.0909C18.3636 16.3418 18.16 16.5455 17.9091 16.5455H6.09091C5.84 16.5455 5.63636 16.3418 5.63636 16.0909V15.1818C5.63636 14.9309 5.84 14.7273 6.09091 14.7273Z" fill="url(#paint1_linear_40_5062)"/>
<path d="M6.09091 7.45459H17.9091C18.16 7.45459 18.3636 7.65823 18.3636 7.90914V8.81823C18.3636 9.06914 18.16 9.27277 17.9091 9.27277H6.09091C5.84 9.27277 5.63636 9.06914 5.63636 8.81823V7.90914C5.63636 7.65823 5.84 7.45459 6.09091 7.45459Z" fill="url(#paint2_linear_40_5062)"/>
<path d="M17.4545 4.27278V5.18187C17.4545 5.43278 17.6582 5.63642 17.9091 5.63642H20.1818V3.81824H17.9091C17.6582 3.81824 17.4545 4.02187 17.4545 4.27278Z" fill="url(#paint3_linear_40_5062)"/>
<path d="M22 6.31824V15.1819V17.6819C22 18.591 21.3182 19.2728 20.1818 20.1819V15.1819V3.81824C21.3182 4.72733 22 5.40915 22 6.31824Z" fill="url(#paint4_linear_40_5062)"/>
<path d="M17.4545 19.7273V18.8182C17.4545 18.5673 17.6582 18.3636 17.9091 18.3636H20.1818V20.1818H17.9091C17.6582 20.1818 17.4545 19.9782 17.4545 19.7273Z" fill="url(#paint5_linear_40_5062)"/>
<path d="M6.54546 4.27278V5.18187C6.54546 5.43278 6.34182 5.63642 6.09091 5.63642H3.81818V3.81824H6.09091C6.34182 3.81824 6.54546 4.02187 6.54546 4.27278Z" fill="url(#paint6_linear_40_5062)"/>
<path d="M2 6.31824V15.1819V17.6819C2 18.591 2.68182 19.2728 3.81818 20.1819V15.1819V3.81824C2.68182 4.72733 2 5.40915 2 6.31824Z" fill="url(#paint7_linear_40_5062)"/>
<path d="M6.54546 19.7273V18.8182C6.54546 18.5673 6.34182 18.3636 6.09091 18.3636H3.81818V20.1818H6.09091C6.34182 20.1818 6.54546 19.9782 6.54546 19.7273Z" fill="url(#paint8_linear_40_5062)"/>
<defs>
<linearGradient id="paint0_linear_40_5062" x1="8.07324" y1="11.1386" x2="8.1103" y2="13.0461" gradientUnits="userSpaceOnUse">
<stop stop-color="#ECECEC"/>
<stop offset="1" stop-color="#EDEDED"/>
</linearGradient>
<linearGradient id="paint1_linear_40_5062" x1="8.73784" y1="14.775" x2="8.76697" y2="16.6828" gradientUnits="userSpaceOnUse">
<stop stop-color="#ECECEC"/>
<stop offset="1" stop-color="#EDEDED"/>
</linearGradient>
<linearGradient id="paint2_linear_40_5062" x1="8.73784" y1="7.50227" x2="8.76697" y2="9.41005" gradientUnits="userSpaceOnUse">
<stop stop-color="#ECECEC"/>
<stop offset="1" stop-color="#EDEDED"/>
</linearGradient>
<linearGradient id="paint3_linear_40_5062" x1="18.8182" y1="3.81442" x2="18.8182" y2="5.62986" gradientUnits="userSpaceOnUse">
<stop stop-color="#2AA4F4"/>
<stop offset="1" stop-color="#007AD9"/>
</linearGradient>
<linearGradient id="paint4_linear_40_5062" x1="20.7551" y1="4.06946" x2="24.8103" y2="4.93822" gradientUnits="userSpaceOnUse">
<stop stop-color="#7DD8F3"/>
<stop offset="1" stop-color="#45B0D0"/>
</linearGradient>
<linearGradient id="paint5_linear_40_5062" x1="18.4013" y1="18.4432" x2="18.6025" y2="20.404" gradientUnits="userSpaceOnUse">
<stop stop-color="#0D61A9"/>
<stop offset="1" stop-color="#16528C"/>
</linearGradient>
<linearGradient id="paint6_linear_40_5062" x1="5.18182" y1="3.81442" x2="5.18182" y2="5.62986" gradientUnits="userSpaceOnUse">
<stop stop-color="#2AA4F4"/>
<stop offset="1" stop-color="#007AD9"/>
</linearGradient>
<linearGradient id="paint7_linear_40_5062" x1="2.57325" y1="4.06946" x2="6.62846" y2="4.93822" gradientUnits="userSpaceOnUse">
<stop stop-color="#7DD8F3"/>
<stop offset="1" stop-color="#45B0D0"/>
</linearGradient>
<linearGradient id="paint8_linear_40_5062" x1="4.76496" y1="18.4432" x2="4.96607" y2="20.404" gradientUnits="userSpaceOnUse">
<stop stop-color="#0D61A9"/>
<stop offset="1" stop-color="#16528C"/>
</linearGradient>
</defs>
</svg>
