<svg width="24" height="24" viewBox="0 0 24 24" fill="none" xmlns="http://www.w3.org/2000/svg">
<path d="M21.693 10.2211L14.8498 3.64518C14.4522 3.26307 13.8193 3.27555 13.4372 3.67316L6.95068 10.4244L14.7099 18.9035L21.7214 11.6332C22.1036 11.2356 22.0911 10.6033 21.693 10.2211Z" fill="url(#paint0_linear_40_5114)"/>
<path d="M11.4072 20.6063L3.98964 13.4794L6.92671 10.423L15.2109 18.3825L13.2654 20.4075L11.4072 20.6063Z" fill="url(#paint1_linear_40_5114)"/>
<path opacity="0.05" d="M13.8448 19.8041L17.9902 7.52293C18.0816 7.2522 18.0906 6.96798 18.0256 6.69675L16.8318 5.5499L12.9072 4.22522L6.95068 10.4245L7.11102 10.5998L6.92671 10.4225L3.98964 13.479L11.4072 20.6063L13.2654 20.4075L13.8448 19.8041Z" fill="black"/>
<path opacity="0.07" d="M17.69 6.48889C17.5421 6.19019 17.2864 5.96691 16.9707 5.86002L12.7164 4.42395L6.95068 10.4245L7.11102 10.5998L6.92671 10.4225L3.98964 13.4789L11.4072 20.6063L13.2654 20.4075L13.4377 20.2282C13.4387 20.2257 13.4397 20.2237 13.4407 20.2212L17.7539 7.44294C17.8603 7.12675 17.8378 6.78809 17.69 6.48889Z" fill="black"/>
<path d="M16.8903 6.09681L7.89824 3.06183C7.37527 2.88551 6.80883 3.16623 6.63201 3.68871L3.43719 13.1538L14.3223 16.8281L17.5171 7.36254C17.694 6.84006 17.4132 6.27313 16.8903 6.09681Z" fill="url(#paint2_linear_40_5114)"/>
<path d="M11.9382 20.7682L2.00213 17.4145C2.00063 17.414 1.99963 17.412 2.00013 17.4105L3.4367 13.1543L14.3218 16.8286L13.2035 20.1413C13.0276 20.6638 12.4607 20.9445 11.9382 20.7682Z" fill="url(#paint3_linear_40_5114)"/>
<path opacity="0.05" d="M12.5096 5.00696H6.18745L3.43719 13.1538L4.68945 18.3212L11.9382 20.7682C12.4612 20.9446 13.0276 20.6638 13.2044 20.1414L14.0081 17.7597V6.50546C14.0081 5.67929 13.3358 5.00696 12.5096 5.00696Z" fill="black"/>
<path opacity="0.07" d="M12.5096 5.25671H6.10303L3.43719 13.1538L4.25288 18.1738L11.9382 20.7677C12.4612 20.9441 13.0276 20.6633 13.2044 20.1409L13.7584 18.4995V6.50547C13.7584 5.81715 13.198 5.25671 12.5096 5.25671Z" fill="black"/>
<path d="M12.5096 5.50647H3.01911C2.46717 5.50647 2.02011 5.95352 2.02011 6.50547V16.4955H13.5086V6.50547C13.5086 5.95352 13.0611 5.50647 12.5096 5.50647Z" fill="url(#paint4_linear_40_5114)"/>
<path d="M12.5096 20.991H3.01911C2.46717 20.991 2.02011 20.5439 2.02011 19.992V16.4955H13.5086V19.992C13.5086 20.5439 13.0611 20.991 12.5096 20.991Z" fill="url(#paint5_linear_40_5114)"/>
<path d="M12.0001 20.1987C12.3903 20.1987 12.7064 19.8824 12.7064 19.4924C12.7064 19.1023 12.3903 18.7861 12.0001 18.7861C11.61 18.7861 11.2939 19.1023 11.2939 19.4924C11.2939 19.8824 11.61 20.1987 12.0001 20.1987Z" fill="#505D66"/>
<defs>
<linearGradient id="paint0_linear_40_5114" x1="10.2848" y1="1.052" x2="20.9355" y2="16.1964" gradientUnits="userSpaceOnUse">
<stop stop-color="#FCFCFC"/>
<stop offset="0.95" stop-color="#C3C9CD"/>
</linearGradient>
<linearGradient id="paint1_linear_40_5114" x1="16.4677" y1="14.5127" x2="13.6436" y2="14.9117" gradientUnits="userSpaceOnUse">
<stop stop-color="#889097"/>
<stop offset="1" stop-color="#4C5963"/>
</linearGradient>
<linearGradient id="paint2_linear_40_5114" x1="3.43719" y1="9.91862" x2="17.5701" y2="9.91862" gradientUnits="userSpaceOnUse">
<stop stop-color="#FFD869"/>
<stop offset="0.765625" stop-color="#F2C032"/>
<stop offset="1" stop-color="#FFD869"/>
</linearGradient>
<linearGradient id="paint3_linear_40_5114" x1="14.4058" y1="15.5444" x2="9.16098" y2="16.7083" gradientUnits="userSpaceOnUse">
<stop stop-color="#889097"/>
<stop offset="0.679" stop-color="#5F6B74"/>
<stop offset="1" stop-color="#4C5963"/>
</linearGradient>
<linearGradient id="paint4_linear_40_5114" x1="2.11002" y1="5.63934" x2="11.3973" y2="14.9266" gradientUnits="userSpaceOnUse">
<stop stop-color="#33BEF0"/>
<stop offset="1" stop-color="#0A85D9"/>
</linearGradient>
<linearGradient id="paint5_linear_40_5114" x1="0.57805" y1="10.998" x2="9.35629" y2="20.0954" gradientUnits="userSpaceOnUse">
<stop stop-color="#F9F9F9"/>
<stop offset="0.966" stop-color="#C4C9CD"/>
<stop offset="1" stop-color="#C2C8CC"/>
</linearGradient>
</defs>
</svg>
