<svg width="24" height="24" viewBox="0 0 24 24" fill="none" xmlns="http://www.w3.org/2000/svg">
<path fill-rule="evenodd" clip-rule="evenodd" d="M20.8911 21.9828L3.12833 22C2.51778 22.0006 2.01778 21.5017 2.01722 20.8911L2 3.12833C1.99944 2.51778 2.49833 2.01778 3.10889 2.01722L20.8717 2C21.4822 1.99944 21.9822 2.49833 21.9828 3.10889L22 20.8717C22.0006 21.4822 21.5017 21.9822 20.8911 21.9828Z" fill="url(#paint0_linear_40_5170)"/>
<path fill-rule="evenodd" clip-rule="evenodd" d="M14.8933 10.115C15.7689 10.7406 16.8417 11.1083 18 11.1083V8.87998C17.7806 8.87998 17.5622 8.85721 17.3478 8.81165V10.5656C16.1894 10.5656 15.1172 10.1972 14.2411 9.57221V14.1189C14.2411 16.3933 12.3961 18.2372 10.1206 18.2372C9.27167 18.2372 8.48222 17.9806 7.82667 17.5406C8.575 18.305 9.61833 18.7794 10.7728 18.7794C13.0483 18.7794 14.8933 16.9356 14.8933 14.6611V10.115ZM15.6983 7.86721C15.2511 7.37887 14.9572 6.74721 14.8933 6.04887V5.76221H14.275C14.4306 6.64943 14.9617 7.40776 15.6983 7.86721ZM9.26611 15.7956C9.01611 15.4678 8.88111 15.0672 8.88167 14.655C8.88167 13.6144 9.72556 12.7711 10.7667 12.7711C10.9606 12.7711 11.1533 12.8006 11.3383 12.8594V10.5817C11.1222 10.5522 10.9044 10.5394 10.6861 10.5439V12.3167C10.5011 12.2578 10.3083 12.2283 10.1139 12.2283C9.07278 12.2283 8.22889 13.0717 8.22889 14.1122C8.22945 14.8483 8.65111 15.4856 9.26611 15.7956Z" fill="#EC407A"/>
<path fill-rule="evenodd" clip-rule="evenodd" d="M14.2411 9.57221C15.1167 10.1978 16.1894 10.5656 17.3478 10.5656V8.81165C16.7011 8.67387 16.1289 8.3361 15.6983 7.86665C14.9617 7.40721 14.4311 6.64943 14.2756 5.76221H12.6517V14.6611C12.6478 15.6983 11.8056 16.5383 10.7667 16.5383C10.1544 16.5383 9.61055 16.2467 9.26611 15.795C8.65111 15.485 8.22944 14.8478 8.22944 14.1122C8.22944 13.0717 9.07333 12.2283 10.1144 12.2283C10.3139 12.2283 10.5061 12.2594 10.6867 12.3167V10.5444C8.45111 10.5906 6.65333 12.4161 6.65333 14.6617C6.65333 15.7828 7.10111 16.7989 7.82778 17.5411C8.48333 17.9811 9.27278 18.2378 10.1217 18.2378C12.3972 18.2378 14.2422 16.3939 14.2422 14.1194L14.2411 9.57221Z" fill="white"/>
<path fill-rule="evenodd" clip-rule="evenodd" d="M17.3478 8.81214V8.33769C16.7644 8.3388 16.1933 8.17547 15.6983 7.86658C16.1361 8.34603 16.7128 8.67658 17.3478 8.81214ZM14.275 5.76214C14.26 5.67714 14.2489 5.59214 14.2411 5.50603V5.21936H11.9989V14.1188C11.9956 15.156 11.1528 15.996 10.1139 15.996C9.80889 15.996 9.52111 15.9238 9.26611 15.7949C9.61056 16.2466 10.1544 16.5382 10.7667 16.5382C11.8056 16.5382 12.6478 15.6982 12.6517 14.661V5.76214H14.275ZM10.6861 10.5443V10.0393C10.4989 10.0138 10.31 10.001 10.1206 10.001C7.84444 10.001 6 11.8449 6 14.1193C6 15.5455 6.725 16.8021 7.82667 17.541C7.1 16.7988 6.65222 15.7827 6.65222 14.6616C6.65222 12.416 8.45056 10.5904 10.6861 10.5443Z" fill="#81D4FA"/>
<defs>
<linearGradient id="paint0_linear_40_5170" x1="11.9872" y1="2.08833" x2="11.9872" y2="22.0256" gradientUnits="userSpaceOnUse">
<stop stop-color="#4C4C4C"/>
<stop offset="1" stop-color="#343434"/>
</linearGradient>
</defs>
</svg>
