<svg width="24" height="24" viewBox="0 0 24 24" fill="none" xmlns="http://www.w3.org/2000/svg">
<path d="M21.5122 7.85383H10.2925C10.0242 7.85383 9.80473 7.63432 9.80473 7.36602V6.3904C9.80473 6.1221 10.0242 5.90259 10.2925 5.90259H21.5122C21.7805 5.90259 22 6.1221 22 6.3904V7.36602C22 7.63432 21.7805 7.85383 21.5122 7.85383Z" fill="url(#paint0_linear_40_5308)"/>
<path d="M3.83441 8.70403L2.12512 6.99475C1.95829 6.82791 1.95829 6.55718 2.12512 6.39035L2.72952 5.78595C2.89635 5.61912 3.16709 5.61912 3.33392 5.78595L4.13686 6.58889L6.64957 4.07617C6.8164 3.90934 7.08714 3.90934 7.25397 4.07617L7.85836 4.68057C8.0252 4.8474 8.0252 5.11814 7.85836 5.28497L4.43881 8.70403C4.27198 8.87135 4.00124 8.87135 3.83441 8.70403Z" fill="#42A4EB"/>
<path d="M21.5122 13.7075H10.2925C10.0242 13.7075 9.80473 13.488 9.80473 13.2197V12.244C9.80473 11.9757 10.0242 11.7562 10.2925 11.7562H21.5122C21.7805 11.7562 22 11.9757 22 12.244V13.2197C22 13.488 21.7805 13.7075 21.5122 13.7075Z" fill="url(#paint1_linear_40_5308)"/>
<path d="M3.83441 14.5578L2.12512 12.8485C1.95829 12.6817 1.95829 12.4109 2.12512 12.2441L2.72952 11.6397C2.89635 11.4729 3.16709 11.4729 3.33392 11.6397L4.13686 12.4426L6.64957 9.92993C6.8164 9.7631 7.08714 9.7631 7.25397 9.92993L7.85836 10.5343C8.0252 10.7012 8.0252 10.9719 7.85836 11.1387L4.43881 14.5578C4.27198 14.7251 4.00124 14.7251 3.83441 14.5578Z" fill="#42A4EB"/>
<path d="M21.5122 19.5612H10.2925C10.0242 19.5612 9.80473 19.3417 9.80473 19.0734V18.0978C9.80473 17.8295 10.0242 17.61 10.2925 17.61H21.5122C21.7805 17.61 22 17.8295 22 18.0978V19.0734C22 19.3417 21.7805 19.5612 21.5122 19.5612Z" fill="url(#paint2_linear_40_5308)"/>
<path d="M4.92662 17.1222C4.11832 17.1222 3.46319 17.7773 3.46319 18.5856C3.46319 19.3939 4.11832 20.0491 4.92662 20.0491C5.73492 20.0491 6.39005 19.3939 6.39005 18.5856C6.39005 17.7773 5.73492 17.1222 4.92662 17.1222Z" fill="url(#paint3_linear_40_5308)"/>
<defs>
<linearGradient id="paint0_linear_40_5308" x1="12.354" y1="3.32987" x2="19.1404" y2="10.1163" gradientUnits="userSpaceOnUse">
<stop stop-color="#1D59B3"/>
<stop offset="1" stop-color="#195BBC"/>
</linearGradient>
<linearGradient id="paint1_linear_40_5308" x1="12.354" y1="9.18351" x2="19.1404" y2="15.9699" gradientUnits="userSpaceOnUse">
<stop stop-color="#1D59B3"/>
<stop offset="1" stop-color="#195BBC"/>
</linearGradient>
<linearGradient id="paint2_linear_40_5308" x1="12.354" y1="15.0373" x2="19.1404" y2="21.8237" gradientUnits="userSpaceOnUse">
<stop stop-color="#1D59B3"/>
<stop offset="1" stop-color="#195BBC"/>
</linearGradient>
<linearGradient id="paint3_linear_40_5308" x1="3.46319" y1="18.5856" x2="6.39005" y2="18.5856" gradientUnits="userSpaceOnUse">
<stop stop-color="#1D59B3"/>
<stop offset="1" stop-color="#195BBC"/>
</linearGradient>
</defs>
</svg>
