<svg width="24" height="24" viewBox="0 0 24 24" fill="none" xmlns="http://www.w3.org/2000/svg">
<path d="M7.47263 12.2501L2.13616 17.5866C2.08052 17.6428 2.04014 17.7124 2.01884 17.7885C1.99754 17.8648 1.99603 17.9451 2.01443 18.0221C2.03285 18.099 2.07058 18.1701 2.12406 18.2284C2.17754 18.2867 2.245 18.3304 2.32009 18.3555L3.60235 18.7866C5.06982 19.2833 6.64682 19.3602 8.15566 19.0088C9.66451 18.6574 11.0453 17.8916 12.1423 16.7977L12.4286 16.5114C12.6318 16.3077 12.7846 16.0595 12.8748 15.7864C12.965 15.5133 12.9902 15.2229 12.9483 14.9383L12.4792 11.7286C12.4602 11.5982 12.4138 11.4733 12.343 11.3621C12.2722 11.2509 12.1788 11.1559 12.0687 11.0834C11.9586 11.0109 11.8345 10.9624 11.7045 10.9413C11.5743 10.9202 11.4412 10.9268 11.3139 10.9607L8.29505 11.7747C7.98402 11.8584 7.70043 12.0224 7.47263 12.2501Z" fill="url(#paint0_linear_40_5374)"/>
<path d="M12.2518 7.47096L17.5883 2.13449C17.6445 2.07885 17.7141 2.03847 17.7903 2.01718C17.8665 1.99588 17.9469 1.99436 18.0239 2.01277C18.1008 2.03118 18.1718 2.06891 18.2301 2.12239C18.2884 2.17587 18.3321 2.24334 18.3571 2.31842L18.7884 3.60068C19.285 5.06816 19.3619 6.64516 19.0105 8.15401C18.659 9.66285 17.8932 11.0436 16.7994 12.1406L16.513 12.4269C16.3095 12.6301 16.0612 12.7829 15.7881 12.8732C15.515 12.9634 15.2246 12.9885 14.94 12.9466L11.7303 12.4775C11.5999 12.4585 11.475 12.4121 11.3638 12.3413C11.2526 12.2706 11.1576 12.1771 11.0851 12.067C11.0126 11.957 10.9642 11.8329 10.943 11.7028C10.9219 11.5726 10.9285 11.4396 10.9624 11.3122L11.7763 8.2934C11.8601 7.98236 12.0241 7.69876 12.2518 7.47096Z" fill="url(#paint1_linear_40_5374)"/>
<path d="M15.9349 16.2605L18.3142 19.7599C18.4205 19.9154 18.4952 20.0904 18.5338 20.2747C18.5724 20.4591 18.5742 20.6492 18.5393 20.8343C18.5043 21.0194 18.4331 21.1957 18.3298 21.3532C18.2266 21.5107 18.0932 21.6464 17.9375 21.7522C17.7817 21.8581 17.6066 21.9323 17.4221 21.9704C17.2377 22.0085 17.0475 22.0098 16.8625 21.9743C16.6775 21.9387 16.5014 21.8671 16.3442 21.7634C16.1869 21.6597 16.0518 21.526 15.9463 21.3699C15.8275 21.1937 15.7486 20.9936 15.7154 20.7837L15.0686 16.6018C15.0521 16.4947 15.0724 16.3852 15.1264 16.2913C15.1803 16.1973 15.2646 16.1245 15.3654 16.0849C15.4661 16.0451 15.5775 16.0409 15.6809 16.0729C15.7844 16.1048 15.874 16.171 15.9349 16.2606V16.2605Z" fill="url(#paint2_linear_40_5374)"/>
<path d="M16.6035 15.067L20.7854 15.7137C20.9712 15.7425 21.1496 15.8075 21.3102 15.9051C21.4709 16.0028 21.6107 16.1311 21.7218 16.2829C21.8329 16.4345 21.913 16.6066 21.9576 16.7893C22.0021 16.972 22.0103 17.1616 21.9815 17.3474C21.9527 17.5332 21.8877 17.7115 21.7901 17.8722C21.6924 18.0328 21.5641 18.1727 21.4123 18.2838C21.2607 18.3948 21.0886 18.4749 20.9059 18.5195C20.7232 18.564 20.5336 18.5722 20.3478 18.5434C20.1379 18.5102 19.9379 18.4314 19.7616 18.3125L16.2622 15.9333C16.1726 15.8724 16.1064 15.7828 16.0745 15.6793C16.0425 15.5758 16.0468 15.4645 16.0865 15.3637C16.1262 15.263 16.199 15.1787 16.293 15.1247C16.3869 15.0708 16.4964 15.0505 16.6034 15.067H16.6035Z" fill="url(#paint3_linear_40_5374)"/>
<path d="M16.2964 15.6364L19.9809 18.004C20.139 18.1054 20.2756 18.2369 20.3828 18.3911C20.4901 18.5453 20.5659 18.7191 20.6059 18.9026C20.6461 19.0862 20.6495 19.2757 20.6162 19.4606C20.5829 19.6455 20.5135 19.822 20.412 19.98C20.3104 20.138 20.1787 20.2745 20.0244 20.3816C19.8701 20.4886 19.6962 20.5642 19.5126 20.6041C19.329 20.6439 19.1394 20.6472 18.9546 20.6137C18.7697 20.5802 18.5934 20.5105 18.4355 20.4088C18.2636 20.2974 18.1172 20.151 18.0057 19.9792L15.6382 16.2948C15.5793 16.2033 15.5536 16.0944 15.5653 15.9862C15.5769 15.8781 15.6251 15.7772 15.702 15.7003C15.7789 15.6234 15.8799 15.5752 15.988 15.5635C16.0962 15.5519 16.205 15.5776 16.2964 15.6364Z" fill="url(#paint4_linear_40_5374)"/>
<path d="M5.28681 5.60006L6.65655 8.05156L8.05316 6.65494L5.6021 5.28476C5.55802 5.26104 5.50748 5.25216 5.45795 5.25943C5.40843 5.2667 5.36256 5.28974 5.32717 5.32513C5.29178 5.36053 5.26874 5.40639 5.26147 5.45592C5.25421 5.50545 5.26309 5.55599 5.28681 5.60006Z" fill="url(#paint5_linear_40_5374)"/>
<path d="M16.7946 16.7928C18.0672 15.5202 17.135 12.5756 14.7696 10.1592C12.5957 7.93857 8.5187 8.51694 8.5187 8.51694C8.5187 8.51694 7.94032 12.5939 10.161 14.7678C12.5774 17.1332 15.522 18.0654 16.7946 16.7928Z" fill="url(#paint6_linear_40_5374)"/>
<path d="M8.51869 10.8447C9.80423 10.8447 10.8464 9.80257 10.8464 8.51702C10.8464 7.23148 9.80423 6.18933 8.51869 6.18933C7.23314 6.18933 6.19099 7.23148 6.19099 8.51702C6.19099 9.80257 7.23314 10.8447 8.51869 10.8447Z" fill="url(#paint7_linear_40_5374)"/>
<defs>
<linearGradient id="paint0_linear_40_5374" x1="4.43116" y1="9.69328" x2="9.35291" y2="19.2434" gradientUnits="userSpaceOnUse">
<stop stop-color="#FCFCFC"/>
<stop offset="0.95" stop-color="#C3C9CD"/>
</linearGradient>
<linearGradient id="paint1_linear_40_5374" x1="12.769" y1="0.366313" x2="20.7133" y2="9.18917" gradientUnits="userSpaceOnUse">
<stop stop-color="#FCFCFC"/>
<stop offset="0.95" stop-color="#C3C9CD"/>
</linearGradient>
<linearGradient id="paint2_linear_40_5374" x1="15.8387" y1="15.1655" x2="20.1258" y2="18.8697" gradientUnits="userSpaceOnUse">
<stop stop-color="#FCFCFC"/>
<stop offset="0.95" stop-color="#C3C9CD"/>
</linearGradient>
<linearGradient id="paint3_linear_40_5374" x1="17.3703" y1="14.5402" x2="19.131" y2="18.9316" gradientUnits="userSpaceOnUse">
<stop stop-color="#FCFCFC"/>
<stop offset="0.95" stop-color="#C3C9CD"/>
</linearGradient>
<linearGradient id="paint4_linear_40_5374" x1="3.33213" y1="3.32993" x2="25.3479" y2="25.3452" gradientUnits="userSpaceOnUse">
<stop stop-color="#32BDEF"/>
<stop offset="1" stop-color="#1EA2E4"/>
</linearGradient>
<linearGradient id="paint5_linear_40_5374" x1="3.33214" y1="3.33054" x2="25.3474" y2="25.3458" gradientUnits="userSpaceOnUse">
<stop stop-color="#F44F5A"/>
<stop offset="0.443" stop-color="#EE3D4A"/>
<stop offset="1" stop-color="#E52030"/>
</linearGradient>
<linearGradient id="paint6_linear_40_5374" x1="3.33214" y1="3.33038" x2="25.3474" y2="25.3457" gradientUnits="userSpaceOnUse">
<stop stop-color="#32BDEF"/>
<stop offset="1" stop-color="#1EA2E4"/>
</linearGradient>
<linearGradient id="paint7_linear_40_5374" x1="3.33212" y1="3.33046" x2="25.3474" y2="25.3458" gradientUnits="userSpaceOnUse">
<stop stop-color="#32BDEF"/>
<stop offset="1" stop-color="#1EA2E4"/>
</linearGradient>
</defs>
</svg>
