<svg width="24" height="24" viewBox="0 0 24 24" fill="none" xmlns="http://www.w3.org/2000/svg">
<path d="M17.8537 4.43896H6.14634V21.0243C6.14634 21.5634 6.58292 21.9999 7.12195 21.9999H16.878C17.4171 21.9999 17.8537 21.5634 17.8537 21.0243V4.43896Z" fill="url(#paint0_linear_40_5384)"/>
<path d="M17.8537 4.43902H6.14634V2.97561C6.14634 2.43659 6.58292 2 7.12195 2H16.878C17.4171 2 17.8537 2.43659 17.8537 2.97561V4.43902Z" fill="url(#paint1_linear_40_5384)"/>
<path d="M10.0488 3.58535C10.2508 3.58535 10.4146 3.42155 10.4146 3.21949C10.4146 3.01743 10.2508 2.85364 10.0488 2.85364C9.84672 2.85364 9.68292 3.01743 9.68292 3.21949C9.68292 3.42155 9.84672 3.58535 10.0488 3.58535Z" fill="#0C63AD"/>
<path d="M13.7073 2.85364C13.6127 2.85364 11.3629 2.85364 11.2683 2.85364C11.0663 2.85364 10.9024 3.01754 10.9024 3.21949C10.9024 3.42144 11.0663 3.58535 11.2683 3.58535C11.3629 3.58535 13.6127 3.58535 13.7073 3.58535C13.9093 3.58535 14.0732 3.42144 14.0732 3.21949C14.0732 3.01754 13.9093 2.85364 13.7073 2.85364Z" fill="#0C63AD"/>
<path d="M12 16.6341C14.1552 16.6341 15.9024 14.8869 15.9024 12.7317C15.9024 10.5764 14.1552 8.82922 12 8.82922C9.84474 8.82922 8.09756 10.5764 8.09756 12.7317C8.09756 14.8869 9.84474 16.6341 12 16.6341Z" fill="#0078D4"/>
<path d="M12 15.6586C13.6165 15.6586 14.9268 14.3482 14.9268 12.7318C14.9268 11.1153 13.6165 9.80493 12 9.80493C10.3835 9.80493 9.07317 11.1153 9.07317 12.7318C9.07317 14.3482 10.3835 15.6586 12 15.6586Z" fill="#1B9DE2"/>
<path d="M12 14.683C13.0777 14.683 13.9512 13.8094 13.9512 12.7317C13.9512 11.6541 13.0777 10.7805 12 10.7805C10.9223 10.7805 10.0488 11.6541 10.0488 12.7317C10.0488 13.8094 10.9223 14.683 12 14.683Z" fill="url(#paint2_linear_40_5384)"/>
<path d="M12 13.7073C12.5388 13.7073 12.9756 13.2705 12.9756 12.7317C12.9756 12.1929 12.5388 11.7561 12 11.7561C11.4612 11.7561 11.0244 12.1929 11.0244 12.7317C11.0244 13.2705 11.4612 13.7073 12 13.7073Z" fill="url(#paint3_linear_40_5384)"/>
<defs>
<linearGradient id="paint0_linear_40_5384" x1="10.2105" y1="5.20692" x2="14.4037" y2="23.3772" gradientUnits="userSpaceOnUse">
<stop stop-color="#0D61A9"/>
<stop offset="1" stop-color="#16528C"/>
</linearGradient>
<linearGradient id="paint1_linear_40_5384" x1="9.83749" y1="2.03744" x2="10.1527" y2="4.95431" gradientUnits="userSpaceOnUse">
<stop stop-color="#7DD8F3"/>
<stop offset="1" stop-color="#45B0D0"/>
</linearGradient>
<linearGradient id="paint2_linear_40_5384" x1="11.4745" y1="10.9507" x2="12.232" y2="15.1161" gradientUnits="userSpaceOnUse">
<stop stop-color="#32BDEF"/>
<stop offset="1" stop-color="#1EA2E4"/>
</linearGradient>
<linearGradient id="paint3_linear_40_5384" x1="11.6396" y1="11.7861" x2="12.6044" y2="13.6463" gradientUnits="userSpaceOnUse">
<stop stop-color="#7DD8F3"/>
<stop offset="1" stop-color="#45B0D0"/>
</linearGradient>
</defs>
</svg>
