<svg width="24" height="24" viewBox="0 0 24 24" fill="none" xmlns="http://www.w3.org/2000/svg">
<path d="M8.19048 3.42859H7.2381V18.6667C7.2381 19.4557 7.87762 20.0953 8.66667 20.0953H12.9524V19.1429H8.66667C8.40381 19.1429 8.19048 18.9295 8.19048 18.6667V12.4762H12.9524V11.5238H8.19048V3.42859Z" fill="#64717C"/>
<path d="M11.0476 2H4.38095C4.1181 2 3.90476 2.21333 3.90476 2.47619V6.28571C3.90476 6.54857 4.1181 6.7619 4.38095 6.7619H11.0476C11.3105 6.7619 11.5238 6.54857 11.5238 6.28571V2.47619C11.5238 2.21333 11.3105 2 11.0476 2Z" fill="url(#paint0_linear_40_5441)"/>
<path d="M19.619 9.61902H12.9524C12.6895 9.61902 12.4762 9.83235 12.4762 10.0952V13.9047C12.4762 14.1676 12.6895 14.3809 12.9524 14.3809H19.619C19.8819 14.3809 20.0952 14.1676 20.0952 13.9047V10.0952C20.0952 9.83235 19.8819 9.61902 19.619 9.61902Z" fill="url(#paint1_linear_40_5441)"/>
<path d="M19.619 17.238H12.9524C12.6895 17.238 12.4762 17.4514 12.4762 17.7142V21.5238C12.4762 21.7866 12.6895 21.9999 12.9524 21.9999H19.619C19.8819 21.9999 20.0952 21.7866 20.0952 21.5238V17.7142C20.0952 17.4514 19.8819 17.238 19.619 17.238Z" fill="url(#paint2_linear_40_5441)"/>
<defs>
<linearGradient id="paint0_linear_40_5441" x1="7.71429" y1="6.74238" x2="7.71429" y2="2.2381" gradientUnits="userSpaceOnUse">
<stop stop-color="#42A3F2"/>
<stop offset="1" stop-color="#42A4EB"/>
</linearGradient>
<linearGradient id="paint1_linear_40_5441" x1="16.2857" y1="14.3614" x2="16.2857" y2="9.85711" gradientUnits="userSpaceOnUse">
<stop stop-color="#3079D6"/>
<stop offset="1" stop-color="#297CD2"/>
</linearGradient>
<linearGradient id="paint2_linear_40_5441" x1="16.2857" y1="21.9804" x2="16.2857" y2="17.4761" gradientUnits="userSpaceOnUse">
<stop stop-color="#3079D6"/>
<stop offset="1" stop-color="#297CD2"/>
</linearGradient>
</defs>
</svg>
