<svg width="24" height="24" viewBox="0 0 24 24" fill="none" xmlns="http://www.w3.org/2000/svg">
<path d="M22 5.85011C21.2651 6.17561 20.4748 6.39261 19.641 6.49542C20.4886 5.99225 21.141 5.18963 21.4471 4.24109C20.6539 4.70588 19.775 5.04749 18.8402 5.22753C18.0935 4.43629 17.0284 3.94543 15.8487 3.94543C13.5825 3.94543 11.7451 5.76624 11.7451 8.01158C11.7451 8.3295 11.7825 8.63889 11.8522 8.93928C8.44272 8.76823 5.41846 7.14737 3.39534 4.6874C3.03999 5.28865 2.84005 5.99225 2.84005 6.73516C2.84005 8.14661 3.56259 9.38938 4.66465 10.1214C3.99185 10.101 3.35886 9.91388 2.80451 9.61349C2.80451 9.62581 2.80451 9.64381 2.80451 9.66134C2.80451 11.6338 4.21927 13.2764 6.09457 13.6503C5.75201 13.7441 5.38956 13.7962 5.0162 13.7962C4.75135 13.7962 4.49313 13.7663 4.24296 13.7213C4.76509 15.3332 6.27983 16.5115 8.07458 16.5466C6.67024 17.6354 4.90154 18.2873 2.97839 18.2873C2.64626 18.2873 2.32124 18.2684 2 18.2295C3.81797 19.3804 5.97517 20.0546 8.2911 20.0546C15.8373 20.0546 19.966 13.8578 19.966 8.48159C19.966 8.30533 19.9603 8.13003 19.9522 7.95662C20.7577 7.38758 21.4518 6.67025 22 5.85011Z" fill="url(#paint0_linear_40_5477)"/>
<defs>
<linearGradient id="paint0_linear_40_5477" x1="5.05506" y1="4.56706" x2="19.4855" y2="18.9976" gradientUnits="userSpaceOnUse">
<stop stop-color="#2AA4F4"/>
<stop offset="1" stop-color="#007AD9"/>
</linearGradient>
</defs>
</svg>
