<svg width="24" height="24" viewBox="0 0 24 24" fill="none" xmlns="http://www.w3.org/2000/svg">
<path d="M12 2C6.477 2 2 6.477 2 12C2 17.523 6.477 22 12 22C17.523 22 22 17.523 22 12C22 6.477 17.523 2 12 2Z" fill="url(#paint0_linear_40_5480)"/>
<path opacity="0.05" d="M10 17.5001C8.38 17.5001 6.8245 17.1031 5.7325 16.4111L5.564 16.3046L5.86 15.4691L6.058 15.4921C6.1325 15.5011 6.191 15.5026 6.2505 15.5026L6.4975 15.5001C6.996 15.5001 7.7235 15.4201 8.4205 15.2116C7.7225 14.9736 6.8375 14.5111 6.5605 13.6541L6.3485 13.0001H6.862C6.3125 12.4986 6 11.8011 6 11.0286V10.2186L6.3045 10.3591C6.107 9.97659 6.0025 9.59059 6.0025 9.22809C6.0025 8.70359 6.1415 8.19059 6.4055 7.74509L6.77 7.13109L7.223 7.68209C8.2215 8.89759 9.845 10.2301 11.5 10.4636V10.0001C11.5 8.31809 12.734 7.00009 14.3085 7.00009C15.081 7.00009 15.75 7.22109 16.2525 7.64059C16.772 7.51009 17.4065 7.26909 17.747 7.06859L18.879 6.40259L18.4755 7.65259C18.4565 7.71259 18.4325 7.77259 18.4035 7.83359L19.373 7.40409L18.294 9.02059C18.0695 9.36209 17.8565 9.68659 17.4965 9.99009C17.499 10.1196 17.5 10.2556 17.5 10.3151C17.5 13.7981 14.8715 17.5001 10 17.5001Z" fill="black"/>
<path opacity="0.07" d="M10 17.2501C8.4265 17.2501 6.9195 16.8671 5.866 16.1996L6.0285 15.7401C6.1145 15.7501 6.1815 15.7526 6.2495 15.7526L6.5 15.7501C7.3065 15.7501 8.3995 15.5656 9.2375 15.1686C8.2245 14.9801 7.0845 14.4611 6.7985 13.5766L6.6925 13.2501H7.0365C7.2745 13.2501 7.464 13.2376 7.619 13.2176C6.7675 12.7901 6.2505 11.9906 6.2505 11.0286V10.6096L6.619 10.7801C6.7265 10.8381 6.8695 10.9046 7.0255 10.9691C6.5855 10.4641 6.253 9.84154 6.253 9.22854C6.253 8.74904 6.3805 8.28004 6.621 7.87304L6.803 7.56604L7.0295 7.84154C8.134 9.18604 9.9315 10.6186 11.7495 10.7416V10C11.7495 8.45804 12.8735 7.25004 14.308 7.25004C15.0725 7.25004 15.7175 7.47904 16.1835 7.91404C16.7455 7.78804 17.476 7.51804 17.873 7.28454L18.439 6.95154L18.2375 7.57654C18.142 7.87354 17.9105 8.17254 17.639 8.43954C17.726 8.40554 17.813 8.36954 17.899 8.33154L18.6875 7.98204L18.0865 8.88254C17.845 9.25054 17.6335 9.57254 17.245 9.87304C17.248 10.0246 17.25 10.2366 17.25 10.3146C17.25 13.6771 14.709 17.2501 10 17.2501Z" fill="black"/>
<path d="M18 7.5C17.5245 7.7795 16.6645 8.078 16.1035 8.186C15.6555 7.711 15.0165 7.5 14.3085 7.5C12.9485 7.5 12 8.6525 12 10V11C10 11 8.05 9.4765 6.8365 8C6.623 8.3605 6.503 8.7825 6.503 9.2285C6.503 10.138 7.3385 11.061 8 11.5C7.5965 11.4875 6.8325 11.1795 6.5 11V11.0285C6.5 12.212 7.3305 13.0155 8.456 13.2395C8.2505 13.296 8 13.5 7.036 13.5C7.349 14.4675 8.9225 14.979 10 15C9.157 15.6535 7.654 16 6.5 16C6.3005 16 6.1925 16.011 6 15.9885C7.089 16.6785 8.61 17 10 17C14.5285 17 17 13.541 17 10.315C17 10.209 16.9965 9.854 16.991 9.75C17.475 9.409 17.671 9.052 18 8.56C17.559 8.7555 17.0005 8.939 16.5 9C17.009 8.698 17.8165 8.069 18 7.5Z" fill="white"/>
<defs>
<linearGradient id="paint0_linear_40_5480" x1="4.2275" y1="3.9415" x2="20.44" y2="20.75" gradientUnits="userSpaceOnUse">
<stop stop-color="#2AA4F4"/>
<stop offset="1" stop-color="#007AD9"/>
</linearGradient>
</defs>
</svg>
