<svg width="24" height="24" viewBox="0 0 24 24" fill="none" xmlns="http://www.w3.org/2000/svg">
<path d="M16.2105 16.2105H3.05263V3.05261H16.2105V16.2105ZM4.10526 15.1579H15.1579V4.10524H4.10526V15.1579Z" fill="#64717C"/>
<path d="M20.9474 21.4737H7.78947V15.6842H8.84211V20.4211H19.8947V9.36843H15.6842V8.3158H20.9474V21.4737Z" fill="#64717C"/>
<path d="M3.57895 5.15789C4.45098 5.15789 5.15789 4.45098 5.15789 3.57895C5.15789 2.70692 4.45098 2 3.57895 2C2.70692 2 2 2.70692 2 3.57895C2 4.45098 2.70692 5.15789 3.57895 5.15789Z" fill="url(#paint0_linear_40_5523)"/>
<path d="M15.6842 5.15789C16.5562 5.15789 17.2631 4.45098 17.2631 3.57895C17.2631 2.70692 16.5562 2 15.6842 2C14.8122 2 14.1053 2.70692 14.1053 3.57895C14.1053 4.45098 14.8122 5.15789 15.6842 5.15789Z" fill="url(#paint1_linear_40_5523)"/>
<path d="M3.57895 17.2631C4.45098 17.2631 5.15789 16.5562 5.15789 15.6842C5.15789 14.8122 4.45098 14.1052 3.57895 14.1052C2.70692 14.1052 2 14.8122 2 15.6842C2 16.5562 2.70692 17.2631 3.57895 17.2631Z" fill="url(#paint2_linear_40_5523)"/>
<path d="M15.6842 17.2631C16.5562 17.2631 17.2631 16.5562 17.2631 15.6842C17.2631 14.8122 16.5562 14.1052 15.6842 14.1052C14.8122 14.1052 14.1053 14.8122 14.1053 15.6842C14.1053 16.5562 14.8122 17.2631 15.6842 17.2631Z" fill="url(#paint3_linear_40_5523)"/>
<path d="M8.31579 22.0001C9.18783 22.0001 9.89474 21.2931 9.89474 20.4211C9.89474 19.5491 9.18783 18.8422 8.31579 18.8422C7.44376 18.8422 6.73685 19.5491 6.73685 20.4211C6.73685 21.2931 7.44376 22.0001 8.31579 22.0001Z" fill="url(#paint4_linear_40_5523)"/>
<path d="M20.421 22.0001C21.293 22.0001 22 21.2931 22 20.4211C22 19.5491 21.293 18.8422 20.421 18.8422C19.549 18.8422 18.8421 19.5491 18.8421 20.4211C18.8421 21.2931 19.549 22.0001 20.421 22.0001Z" fill="url(#paint5_linear_40_5523)"/>
<path d="M20.421 9.89471C21.293 9.89471 22 9.1878 22 8.31576C22 7.44373 21.293 6.73682 20.421 6.73682C19.549 6.73682 18.8421 7.44373 18.8421 8.31576C18.8421 9.1878 19.549 9.89471 20.421 9.89471Z" fill="url(#paint6_linear_40_5523)"/>
<defs>
<linearGradient id="paint0_linear_40_5523" x1="2.53211" y1="2.53211" x2="4.74368" y2="4.74368" gradientUnits="userSpaceOnUse">
<stop stop-color="#33BEF0"/>
<stop offset="1" stop-color="#0A85D9"/>
</linearGradient>
<linearGradient id="paint1_linear_40_5523" x1="14.6374" y1="2.53211" x2="16.8484" y2="4.74368" gradientUnits="userSpaceOnUse">
<stop stop-color="#33BEF0"/>
<stop offset="1" stop-color="#0A85D9"/>
</linearGradient>
<linearGradient id="paint2_linear_40_5523" x1="2.53211" y1="14.6373" x2="4.74368" y2="16.8484" gradientUnits="userSpaceOnUse">
<stop stop-color="#33BEF0"/>
<stop offset="1" stop-color="#0A85D9"/>
</linearGradient>
<linearGradient id="paint3_linear_40_5523" x1="14.6374" y1="14.6373" x2="16.8484" y2="16.8484" gradientUnits="userSpaceOnUse">
<stop stop-color="#33BEF0"/>
<stop offset="1" stop-color="#0A85D9"/>
</linearGradient>
<linearGradient id="paint4_linear_40_5523" x1="7.26895" y1="19.3743" x2="9.48" y2="21.5853" gradientUnits="userSpaceOnUse">
<stop stop-color="#33BEF0"/>
<stop offset="1" stop-color="#0A85D9"/>
</linearGradient>
<linearGradient id="paint5_linear_40_5523" x1="19.3742" y1="19.3743" x2="21.5853" y2="21.5853" gradientUnits="userSpaceOnUse">
<stop stop-color="#33BEF0"/>
<stop offset="1" stop-color="#0A85D9"/>
</linearGradient>
<linearGradient id="paint6_linear_40_5523" x1="19.3742" y1="7.26892" x2="21.5853" y2="9.47997" gradientUnits="userSpaceOnUse">
<stop stop-color="#33BEF0"/>
<stop offset="1" stop-color="#0A85D9"/>
</linearGradient>
</defs>
</svg>
