<svg width="24" height="24" viewBox="0 0 24 24" fill="none" xmlns="http://www.w3.org/2000/svg">
<path d="M12 14.0489C15.3077 14.0489 17.9892 11.3674 17.9892 8.05972C17.9892 4.75199 15.3077 2.07056 12 2.07056C8.6923 2.07056 6.01086 4.75199 6.01086 8.05972C6.01086 11.3674 8.6923 14.0489 12 14.0489Z" fill="url(#paint0_radial_40_5599)"/>
<path d="M12 12.4728C14.7855 12.4728 17.0435 10.2147 17.0435 7.42925C17.0435 4.6438 14.7855 2.38574 12 2.38574C9.21456 2.38574 6.9565 4.6438 6.9565 7.42925C6.9565 10.2147 9.21456 12.4728 12 12.4728Z" fill="url(#paint1_linear_40_5599)"/>
<path d="M2 21.9293H22C21.3784 16.9552 17.1431 13.1031 12 13.1031C6.85689 13.1031 2.62161 16.9552 2 21.9293Z" fill="url(#paint2_radial_40_5599)"/>
<path d="M3.27412 21.9293H20.7259C20.1125 17.6537 16.4452 14.364 12 14.364C7.55479 14.364 3.88753 17.6537 3.27412 21.9293Z" fill="url(#paint3_linear_40_5599)"/>
<defs>
<radialGradient id="paint0_radial_40_5599" cx="0" cy="0" r="1" gradientUnits="userSpaceOnUse" gradientTransform="translate(12 8.05972) scale(5.98916)">
<stop/>
<stop offset="1" stop-opacity="0"/>
</radialGradient>
<linearGradient id="paint1_linear_40_5599" x1="7.03544" y1="2.5077" x2="15.5519" y2="10.6539" gradientUnits="userSpaceOnUse">
<stop stop-color="#33BEF0"/>
<stop offset="1" stop-color="#0A85D9"/>
</linearGradient>
<radialGradient id="paint2_radial_40_5599" cx="0" cy="0" r="1" gradientUnits="userSpaceOnUse" gradientTransform="translate(12 23.2935) scale(10.2125)">
<stop/>
<stop offset="1" stop-opacity="0"/>
</radialGradient>
<linearGradient id="paint3_linear_40_5599" x1="3.4107" y1="14.4555" x2="8.21849" y2="25.064" gradientUnits="userSpaceOnUse">
<stop stop-color="#33BEF0"/>
<stop offset="1" stop-color="#0A85D9"/>
</linearGradient>
</defs>
</svg>
