<svg width="24" height="24" viewBox="0 0 24 24" fill="none" xmlns="http://www.w3.org/2000/svg">
<path d="M21.0476 4.14282H12V19.3809H21.0476C21.5738 19.3809 22 18.9547 22 18.4285V5.0952C22 4.56901 21.5738 4.14282 21.0476 4.14282Z" fill="#0078D4"/>
<path d="M12 4.14282H2.95238C2.42619 4.14282 2 4.56901 2 5.0952V18.4285C2 18.9547 2.42619 19.3809 2.95238 19.3809H12V4.14282Z" fill="#1B9DE2"/>
<path d="M10.5714 18.4286C10.5714 19.2176 11.211 19.8571 12 19.8571V17C11.211 17 10.5714 17.6395 10.5714 18.4286Z" fill="#1B9DE2"/>
<path d="M13.4286 18.4286C13.4286 17.6395 12.789 17 12 17V19.8571C12.789 19.8571 13.4286 19.2176 13.4286 18.4286Z" fill="#0078D4"/>
<path d="M12 4.14282H3.42857C3.16571 4.14282 2.95238 4.35616 2.95238 4.61901V17.9523C2.95238 18.2152 3.16571 18.4285 3.42857 18.4285H12V4.14282Z" fill="white"/>
<path d="M20.5714 4.14282H12V18.4285H20.5714C20.8343 18.4285 21.0476 18.2152 21.0476 17.9523V4.61901C21.0476 4.35616 20.8343 4.14282 20.5714 4.14282Z" fill="#F0F0F0"/>
<path d="M10.3333 6.99999H4.61905C4.48762 6.99999 4.38095 6.89332 4.38095 6.76189V6.2857C4.38095 6.15427 4.48762 6.04761 4.61905 6.04761H10.3333C10.4648 6.04761 10.5714 6.15427 10.5714 6.2857V6.76189C10.5714 6.89332 10.4648 6.99999 10.3333 6.99999Z" fill="url(#paint0_linear_40_5621)"/>
<path d="M10.3333 8.90477H4.61905C4.48762 8.90477 4.38095 8.79811 4.38095 8.66668V8.19049C4.38095 8.05906 4.48762 7.95239 4.61905 7.95239H10.3333C10.4648 7.95239 10.5714 8.05906 10.5714 8.19049V8.66668C10.5714 8.79811 10.4648 8.90477 10.3333 8.90477Z" fill="url(#paint1_linear_40_5621)"/>
<path d="M10.3333 10.8094H4.61905C4.48762 10.8094 4.38095 10.7028 4.38095 10.5713V10.0952C4.38095 9.96372 4.48762 9.85706 4.61905 9.85706H10.3333C10.4648 9.85706 10.5714 9.96372 10.5714 10.0952V10.5713C10.5714 10.7028 10.4648 10.8094 10.3333 10.8094Z" fill="url(#paint2_linear_40_5621)"/>
<path d="M10.3333 12.7142H4.61905C4.48762 12.7142 4.38095 12.6076 4.38095 12.4761V11.9999C4.38095 11.8685 4.48762 11.7618 4.61905 11.7618H10.3333C10.4648 11.7618 10.5714 11.8685 10.5714 11.9999V12.4761C10.5714 12.6076 10.4648 12.7142 10.3333 12.7142Z" fill="url(#paint3_linear_40_5621)"/>
<path d="M10.3333 14.619H4.61905C4.48762 14.619 4.38095 14.5123 4.38095 14.3809V13.9047C4.38095 13.7733 4.48762 13.6666 4.61905 13.6666H10.3333C10.4648 13.6666 10.5714 13.7733 10.5714 13.9047V14.3809C10.5714 14.5123 10.4648 14.619 10.3333 14.619Z" fill="url(#paint4_linear_40_5621)"/>
<path d="M9.38095 16.5238H4.61905C4.48762 16.5238 4.38095 16.4171 4.38095 16.2857V15.8095C4.38095 15.6781 4.48762 15.5714 4.61905 15.5714H9.38095C9.51238 15.5714 9.61905 15.6781 9.61905 15.8095V16.2857C9.61905 16.4171 9.51238 16.5238 9.38095 16.5238Z" fill="url(#paint5_linear_40_5621)"/>
<path d="M16.2857 8.30094C17.0952 8.30094 17.5476 7.79237 17.5476 7.1638C17.5476 6.53523 17.07 6.04761 16.2857 6.04761C15.5014 6.04761 15.0238 6.53523 15.0238 7.1638C15.0238 7.79237 15.4762 8.30094 16.2857 8.30094Z" fill="#0D62AB"/>
<path d="M17.2381 9.38086H15.3333V16.5237H17.2381V9.38086Z" fill="#0D62AB"/>
<defs>
<linearGradient id="paint0_linear_40_5621" x1="6.64265" y1="6.08912" x2="6.672" y2="7.13849" gradientUnits="userSpaceOnUse">
<stop stop-color="#32BDEF"/>
<stop offset="1" stop-color="#1EA2E4"/>
</linearGradient>
<linearGradient id="paint1_linear_40_5621" x1="6.64265" y1="7.99391" x2="6.672" y2="9.04328" gradientUnits="userSpaceOnUse">
<stop stop-color="#32BDEF"/>
<stop offset="1" stop-color="#1EA2E4"/>
</linearGradient>
<linearGradient id="paint2_linear_40_5621" x1="6.64265" y1="9.89858" x2="6.672" y2="10.9479" gradientUnits="userSpaceOnUse">
<stop stop-color="#32BDEF"/>
<stop offset="1" stop-color="#1EA2E4"/>
</linearGradient>
<linearGradient id="paint3_linear_40_5621" x1="6.64265" y1="11.8034" x2="6.672" y2="12.8527" gradientUnits="userSpaceOnUse">
<stop stop-color="#32BDEF"/>
<stop offset="1" stop-color="#1EA2E4"/>
</linearGradient>
<linearGradient id="paint4_linear_40_5621" x1="6.64265" y1="13.7081" x2="6.672" y2="14.7575" gradientUnits="userSpaceOnUse">
<stop stop-color="#32BDEF"/>
<stop offset="1" stop-color="#1EA2E4"/>
</linearGradient>
<linearGradient id="paint5_linear_40_5621" x1="6.29469" y1="15.6129" x2="6.32937" y2="16.662" gradientUnits="userSpaceOnUse">
<stop stop-color="#32BDEF"/>
<stop offset="1" stop-color="#1EA2E4"/>
</linearGradient>
</defs>
</svg>
