<svg width="24" height="24" viewBox="0 0 24 24" fill="none" xmlns="http://www.w3.org/2000/svg">
<path d="M12.1971 5.5305L10.9895 4.32288C10.7219 4.05526 10.3586 3.90479 9.97952 3.90479H2.95238C2.42619 3.90479 2 4.33098 2 4.85717V19.1429C2 19.6691 2.42619 20.0953 2.95238 20.0953H21.0476C21.5738 20.0953 22 19.6691 22 19.1429V6.76193C22 6.23574 21.5738 5.80955 21.0476 5.80955H12.8705C12.6181 5.80955 12.3757 5.70907 12.1971 5.5305Z" fill="url(#paint0_linear_40_5690)"/>
<path d="M10.8505 7.43528L12.4067 5.87909C12.451 5.83481 12.5114 5.80957 12.5748 5.80957H21.0476C21.5738 5.80957 22 6.23576 22 6.76195V19.1429C22 19.6691 21.5738 20.0953 21.0476 20.0953H2.95238C2.42619 20.0953 2 19.6691 2 19.1429V7.95243C2 7.821 2.10667 7.71433 2.2381 7.71433H10.1771C10.4295 7.71433 10.6719 7.61386 10.8505 7.43528Z" fill="url(#paint1_linear_40_5690)"/>
<path d="M8.66667 11.0476H12.9524C13.7381 11.0476 14.381 11.6905 14.381 12.4762V15.3333C14.381 16.119 13.7381 16.7619 12.9524 16.7619H8.66667C7.88095 16.7619 7.2381 16.119 7.2381 15.3333V12.4762C7.2381 11.6905 7.88095 11.0476 8.66667 11.0476Z" fill="#4CAF50"/>
<path d="M16.7619 16.5239L14.381 15.0953V12.7143L16.7619 11.2858V16.5239Z" fill="#388E3C"/>
<defs>
<linearGradient id="paint0_linear_40_5690" x1="12" y1="3.76574" x2="12" y2="7.70336" gradientUnits="userSpaceOnUse">
<stop stop-color="#EBA600"/>
<stop offset="1" stop-color="#C28200"/>
</linearGradient>
<linearGradient id="paint1_linear_40_5690" x1="12" y1="5.74005" x2="12" y2="20.0872" gradientUnits="userSpaceOnUse">
<stop stop-color="#FFD869"/>
<stop offset="1" stop-color="#FEC52B"/>
</linearGradient>
</defs>
</svg>
