<svg width="24" height="24" viewBox="0 0 24 24" fill="none" xmlns="http://www.w3.org/2000/svg">
<path d="M20.6932 5.18176H3.30682C2.585 5.18176 2 5.76676 2 6.48858V17.5113C2 18.2331 2.585 18.8181 3.30682 18.8181H20.6932C21.415 18.8181 22 18.2331 22 17.5113V6.48858C22 5.76676 21.415 5.18176 20.6932 5.18176Z" fill="url(#paint0_linear_40_5722)"/>
<path opacity="0.05" d="M12.7877 15.1818C12.1623 15.1754 11.4936 15.0495 11.0823 14.8599L10.7832 14.7222L10.7023 15.0995H8.40772L9.2459 11.1808L7.60409 15.0995H5.50772L4.33045 10.5481C4.30272 10.4395 4.28954 10.4099 4.28363 10.4027C4.2809 10.3999 4.26818 10.3918 4.22954 10.3704C3.96863 10.2286 3.49909 10.074 3.00318 9.96584L2.56181 9.86993L2.76363 8.91402H5.45454C5.9909 8.91402 6.42318 9.27766 6.52954 9.81812L6.81409 11.3299L7.77045 8.91402H12.025L11.8518 9.72721C12.3314 9.1613 13.145 8.81812 14.1414 8.81812C14.6286 8.81812 15.0836 8.9013 15.5736 9.07993L15.9454 9.21584L15.5041 11.2749L14.9882 11.0381C14.6154 10.8663 14.2814 10.8304 14.0673 10.8304C13.9923 10.8304 13.9323 10.8354 13.8918 10.8404C13.8623 10.844 13.8359 10.849 13.8132 10.8545C13.9168 10.9181 14.0545 10.9913 14.1373 11.0345C14.6254 11.2904 15.3182 11.6536 15.5454 12.3931L16.7236 9.58039C16.8959 9.16993 17.2791 8.91448 17.7236 8.91448H19.2582L20.55 15.0995H18.3591L18.1941 14.3118H17.1314L16.8464 15.0995H14.4118L14.5582 14.7499C14.09 15.0268 13.4868 15.1818 12.79 15.1818H12.7877ZM11.7118 12.8795C12.0318 13.0295 12.3332 13.1708 12.8677 13.1708L12.915 13.1704C13.0568 13.1681 13.185 13.1354 13.2504 13.1036C13.1973 13.0608 13.0809 12.9831 12.8304 12.8613C12.0968 12.5045 11.6391 12.0622 11.4627 11.5422L11.2254 12.6531L11.7118 12.8795Z" fill="black"/>
<path opacity="0.07" d="M12.7877 14.9545C12.1941 14.9486 11.5623 14.8309 11.1773 14.6536L11.0123 14.5777L11.3573 12.9645L11.6159 13.0855C11.9418 13.2382 12.2827 13.3982 12.8677 13.3982L12.9173 13.3977C13.1541 13.3941 13.5082 13.3132 13.5109 13.1059C13.5118 13.0205 13.4418 12.9059 12.9305 12.6568C12.6 12.4959 11.5955 12.0059 11.6086 11.0136C11.6173 9.85544 12.6591 9.0459 14.1414 9.0459C14.6018 9.0459 15.0323 9.12499 15.4959 9.29408L15.6818 9.36181L15.3414 10.9505L15.0836 10.8318C14.6732 10.6427 14.3045 10.6032 14.0677 10.6032C13.98 10.6032 13.9095 10.6091 13.8627 10.615C13.5859 10.6509 13.4827 10.7673 13.4809 10.8364C13.4786 10.9445 13.7864 11.1064 14.0336 11.2364C14.6095 11.5382 15.3977 11.9523 15.3936 12.9232C15.3882 14.1382 14.3423 14.9545 12.79 14.9545H12.7877ZM18.5436 14.8723L18.3786 14.0845H16.9718L16.6868 14.8723H14.7532L16.9332 9.66817C17.0695 9.34317 17.3727 9.14181 17.7236 9.14181H19.0736L20.2705 14.8723H18.5436ZM18.0577 12.5482L17.865 11.6241L17.5295 12.5482H18.0577ZM8.68909 14.8723L9.915 9.14181H11.7441L10.5186 14.8723H8.68909ZM5.68365 14.8723L4.55092 10.4914C4.49455 10.2705 4.46728 10.2405 4.33819 10.1704C4.06001 10.0191 3.56728 9.8559 3.05183 9.74408L2.83138 9.69635L2.94864 9.14181H5.45547C5.88001 9.14181 6.22274 9.43135 6.30774 9.86272L6.73728 12.145L7.92547 9.14181H9.855L7.45318 14.8723H5.68365Z" fill="black"/>
<path d="M11.8355 11.0163C11.8259 11.7763 12.5127 12.2 13.03 12.4523C13.5614 12.7109 13.74 12.8768 13.7382 13.1082C13.7341 13.4623 13.3141 13.6186 12.9209 13.6245C12.235 13.635 11.8364 13.4395 11.5195 13.2913L11.2727 14.4473C11.5909 14.5936 12.1795 14.7218 12.7905 14.7273C14.2236 14.7273 15.1618 14.0195 15.1668 12.9227C15.1723 11.5304 13.2409 11.4532 13.2541 10.8309C13.2586 10.6423 13.4386 10.4409 13.8332 10.3895C14.0286 10.3636 14.5677 10.3441 15.1786 10.6254L15.4186 9.50725C15.09 9.38725 14.6673 9.27271 14.1414 9.27271C12.7923 9.27271 11.8432 9.98998 11.8355 11.0163ZM17.7236 9.36907C17.4618 9.36907 17.2414 9.5218 17.1427 9.75589L15.0955 14.645H16.5277L16.8127 13.8573H18.5632L18.7286 14.645H19.9909L18.8891 9.36907H17.7236ZM17.9241 10.7945L18.3373 12.7759H17.205L17.9241 10.7945ZM10.0991 9.36907L8.97001 14.645H10.335L11.4636 9.36907H10.0991ZM8.07955 9.36907L6.65864 12.96L6.0841 9.9068C6.01682 9.56589 5.75046 9.36907 5.45455 9.36907H3.13182L3.10001 9.52225C3.57682 9.62589 4.11864 9.79271 4.44682 9.97134C4.64773 10.0804 4.70501 10.1759 4.77091 10.435L5.85955 14.6454H7.30228L9.51364 9.36952L8.07955 9.36907Z" fill="white"/>
<defs>
<linearGradient id="paint0_linear_40_5722" x1="10.3523" y1="6.11858" x2="14.1582" y2="19.7027" gradientUnits="userSpaceOnUse">
<stop stop-color="#00B3EE"/>
<stop offset="1" stop-color="#0082D8"/>
</linearGradient>
</defs>
</svg>
