<svg width="24" height="24" viewBox="0 0 24 24" fill="none" xmlns="http://www.w3.org/2000/svg">
<path d="M2 19V7.5H22V19C22 19.55 21.55 20 21 20H3C2.45 20 2 19.55 2 19Z" fill="url(#paint0_linear_40_5728)"/>
<path d="M22 5V7.5H2V5C2 4.45 2.45 4 3 4H21C21.55 4 22 4.45 22 5Z" fill="url(#paint1_linear_40_5728)"/>
<path d="M8.25 6.5H20.75C20.888 6.5 21 6.388 21 6.25V5.25C21 5.112 20.888 5 20.75 5H8.25C8.112 5 8 5.112 8 5.25V6.25C8 6.388 8.112 6.5 8.25 6.5Z" fill="url(#paint2_linear_40_5728)"/>
<path d="M3.75 6.5C4.16421 6.5 4.5 6.16421 4.5 5.75C4.5 5.33579 4.16421 5 3.75 5C3.33579 5 3 5.33579 3 5.75C3 6.16421 3.33579 6.5 3.75 6.5Z" fill="url(#paint3_linear_40_5728)"/>
<path d="M6.25 6.5C6.66421 6.5 7 6.16421 7 5.75C7 5.33579 6.66421 5 6.25 5C5.83579 5 5.5 5.33579 5.5 5.75C5.5 6.16421 5.83579 6.5 6.25 6.5Z" fill="url(#paint4_linear_40_5728)"/>
<path d="M20 18.5H16C15.724 18.5 15.5 18.276 15.5 18V9.5C15.5 9.224 15.724 9 16 9H20C20.276 9 20.5 9.224 20.5 9.5V18C20.5 18.276 20.276 18.5 20 18.5Z" fill="url(#paint5_linear_40_5728)"/>
<path d="M13.5 13H4C3.724 13 3.5 12.776 3.5 12.5V9.5C3.5 9.224 3.724 9 4 9H13.5C13.776 9 14 9.224 14 9.5V12.5C14 12.776 13.776 13 13.5 13Z" fill="url(#paint6_linear_40_5728)"/>
<path d="M13.5 18.5H4C3.724 18.5 3.5 18.276 3.5 18V15C3.5 14.724 3.724 14.5 4 14.5H13.5C13.776 14.5 14 14.724 14 15V18C14 18.276 13.776 18.5 13.5 18.5Z" fill="url(#paint7_linear_40_5728)"/>
<defs>
<linearGradient id="paint0_linear_40_5728" x1="6.74" y1="5.7965" x2="15.817" y2="18.9265" gradientUnits="userSpaceOnUse">
<stop stop-color="#7DD8F3"/>
<stop offset="1" stop-color="#45B0D0"/>
</linearGradient>
<linearGradient id="paint1_linear_40_5728" x1="2.307" y1="3.8705" x2="21.468" y2="7.7665" gradientUnits="userSpaceOnUse">
<stop stop-color="#0077D2"/>
<stop offset="1" stop-color="#0B59A2"/>
</linearGradient>
<linearGradient id="paint2_linear_40_5728" x1="8" y1="5.75" x2="21" y2="5.75" gradientUnits="userSpaceOnUse">
<stop stop-color="#7DD8F3"/>
<stop offset="1" stop-color="#45B0D0"/>
</linearGradient>
<linearGradient id="paint3_linear_40_5728" x1="3.3755" y1="5.208" x2="4.016" y2="6.1345" gradientUnits="userSpaceOnUse">
<stop stop-color="#75DAFF"/>
<stop offset="1" stop-color="#49BEF1"/>
</linearGradient>
<linearGradient id="paint4_linear_40_5728" x1="5.8755" y1="5.208" x2="6.516" y2="6.1345" gradientUnits="userSpaceOnUse">
<stop stop-color="#75DAFF"/>
<stop offset="1" stop-color="#49BEF1"/>
</linearGradient>
<linearGradient id="paint5_linear_40_5728" x1="17.2357" y1="9.41544" x2="20.0238" y2="18.9536" gradientUnits="userSpaceOnUse">
<stop stop-color="#2F87BD"/>
<stop offset="1" stop-color="#3280BF"/>
</linearGradient>
<linearGradient id="paint6_linear_40_5728" x1="7.14507" y1="9.17492" x2="7.39968" y2="13.5192" gradientUnits="userSpaceOnUse">
<stop stop-color="#2F87BD"/>
<stop offset="1" stop-color="#3280BF"/>
</linearGradient>
<linearGradient id="paint7_linear_40_5728" x1="7.14507" y1="14.6749" x2="7.39968" y2="19.0192" gradientUnits="userSpaceOnUse">
<stop stop-color="#2F87BD"/>
<stop offset="1" stop-color="#3280BF"/>
</linearGradient>
</defs>
</svg>
