<svg width="24" height="24" viewBox="0 0 24 24" fill="none" xmlns="http://www.w3.org/2000/svg">
<path d="M15.691 18H8.309C8.1195 18 7.9465 18.107 7.862 18.2765L6.362 21.2765C6.1955 21.609 6.4375 22 6.809 22H17.191C17.5625 22 17.8045 21.609 17.638 21.2765L16.138 18.2765C16.0535 18.107 15.8805 18 15.691 18Z" fill="#455A64"/>
<path d="M12 20C16.9706 20 21 15.9706 21 11C21 6.02944 16.9706 2 12 2C7.02944 2 3 6.02944 3 11C3 15.9706 7.02944 20 12 20Z" fill="url(#paint0_linear_40_5758)"/>
<path d="M12 18.25C15.866 18.25 19 15.116 19 11.25C19 7.38401 15.866 4.25 12 4.25C8.13401 4.25 5 7.38401 5 11.25C5 15.116 8.13401 18.25 12 18.25Z" fill="url(#paint1_radial_40_5758)"/>
<path d="M12 16.5C15.0376 16.5 17.5 14.0376 17.5 11C17.5 7.96243 15.0376 5.5 12 5.5C8.96243 5.5 6.5 7.96243 6.5 11C6.5 14.0376 8.96243 16.5 12 16.5Z" fill="white"/>
<path d="M12 15C14.2091 15 16 13.2091 16 11C16 8.79086 14.2091 7 12 7C9.79086 7 8 8.79086 8 11C8 13.2091 9.79086 15 12 15Z" fill="url(#paint2_radial_40_5758)"/>
<defs>
<linearGradient id="paint0_linear_40_5758" x1="12" y1="2.8675" x2="12" y2="20.8675" gradientUnits="userSpaceOnUse">
<stop stop-color="#889097"/>
<stop offset="1" stop-color="#64717C"/>
</linearGradient>
<radialGradient id="paint1_radial_40_5758" cx="0" cy="0" r="1" gradientUnits="userSpaceOnUse" gradientTransform="translate(12 11.25) scale(7)">
<stop/>
<stop offset="1" stop-opacity="0"/>
</radialGradient>
<radialGradient id="paint2_radial_40_5758" cx="0" cy="0" r="1" gradientUnits="userSpaceOnUse" gradientTransform="translate(9.25 8.277) scale(8.259)">
<stop stop-color="#BD8AF5"/>
<stop offset="0.137" stop-color="#B88BF5"/>
<stop offset="0.309" stop-color="#A88FF3"/>
<stop offset="0.499" stop-color="#8F96F2"/>
<stop offset="0.702" stop-color="#6B9EEF"/>
<stop offset="0.913" stop-color="#3EAAEC"/>
<stop offset="1" stop-color="#29AFEA"/>
</radialGradient>
</defs>
</svg>
