<svg width="24" height="24" viewBox="0 0 24 24" fill="none" xmlns="http://www.w3.org/2000/svg">
<path d="M12.1971 5.5305L10.9895 4.32288C10.7219 4.05526 10.3586 3.90479 9.97952 3.90479H2.95238C2.42619 3.90479 2 4.33098 2 4.85717V19.1429C2 19.6691 2.42619 20.0953 2.95238 20.0953H21.0476C21.5738 20.0953 22 19.6691 22 19.1429V6.76193C22 6.23574 21.5738 5.80955 21.0476 5.80955H12.8705C12.6181 5.80955 12.3757 5.70907 12.1971 5.5305Z" fill="url(#paint0_linear_40_5765)"/>
<path d="M10.8505 7.43528L12.4067 5.87909C12.451 5.83481 12.5114 5.80957 12.5748 5.80957H21.0476C21.5738 5.80957 22 6.23576 22 6.76195V19.1429C22 19.6691 21.5738 20.0953 21.0476 20.0953H2.95238C2.42619 20.0953 2 19.6691 2 19.1429V7.95243C2 7.821 2.10667 7.71433 2.2381 7.71433H10.1771C10.4295 7.71433 10.6719 7.61386 10.8505 7.43528Z" fill="url(#paint1_linear_40_5765)"/>
<path d="M9.08952 12.1205L8.20762 15.4548H7.37524L6.82191 13.3157C6.79286 13.2043 6.77429 13.0795 6.76905 12.9414H6.75952C6.74571 13.0933 6.72524 13.2181 6.69905 13.3157L6.1319 15.4548H5.26381L4.38762 12.1205H5.2081L5.67762 14.341C5.6981 14.4352 5.71286 14.5629 5.72238 14.7224H5.73619C5.7419 14.6029 5.76524 14.4729 5.80333 14.3319L6.4081 12.1205H7.21238L7.75905 14.3595C7.77857 14.4419 7.79714 14.561 7.8119 14.7176H7.82143C7.8281 14.5952 7.84381 14.471 7.87095 14.3457L8.33143 12.1205H9.08952Z" fill="url(#paint2_linear_40_5765)"/>
<path d="M14.3509 12.1205L13.469 15.4548H12.6367L12.0833 13.3157C12.0543 13.2043 12.0357 13.0795 12.0305 12.9414H12.021C12.0071 13.0933 11.9867 13.2181 11.9605 13.3157L11.3933 15.4548H10.5257L9.64952 12.1205H10.47L10.9395 14.341C10.96 14.4352 10.9748 14.5629 10.9843 14.7224H10.9981C11.0038 14.6029 11.0271 14.4729 11.0652 14.3319L11.67 12.1205H12.4743L13.0209 14.3595C13.0405 14.4419 13.059 14.561 13.0738 14.7176H13.0833C13.09 14.5952 13.1057 14.471 13.1329 14.3457L13.5933 12.1205H14.3509Z" fill="url(#paint3_linear_40_5765)"/>
<path d="M19.6119 12.1205L18.73 15.4548H17.8976L17.3443 13.3157C17.3152 13.2043 17.2967 13.0795 17.2914 12.9414H17.2819C17.2681 13.0933 17.2476 13.2181 17.2214 13.3157L16.6543 15.4548H15.7867L14.9105 12.1205H15.731L16.2005 14.341C16.221 14.4352 16.2357 14.5629 16.2452 14.7224H16.259C16.2648 14.6029 16.2881 14.4729 16.3262 14.3319L16.931 12.1205H17.7352L18.2819 14.3595C18.3014 14.4419 18.32 14.561 18.3348 14.7176H18.3443C18.351 14.5952 18.3667 14.471 18.3938 14.3457L18.8543 12.1205H19.6119Z" fill="url(#paint4_linear_40_5765)"/>
<defs>
<linearGradient id="paint0_linear_40_5765" x1="12" y1="3.76574" x2="12" y2="7.70336" gradientUnits="userSpaceOnUse">
<stop stop-color="#EBA600"/>
<stop offset="1" stop-color="#C28200"/>
</linearGradient>
<linearGradient id="paint1_linear_40_5765" x1="12" y1="5.74005" x2="12" y2="20.0872" gradientUnits="userSpaceOnUse">
<stop stop-color="#FFD869"/>
<stop offset="1" stop-color="#FEC52B"/>
</linearGradient>
<linearGradient id="paint2_linear_40_5765" x1="4.3881" y1="13.7876" x2="9.08952" y2="13.7876" gradientUnits="userSpaceOnUse">
<stop stop-color="#2F87BD"/>
<stop offset="1" stop-color="#3280BF"/>
</linearGradient>
<linearGradient id="paint3_linear_40_5765" x1="9.64952" y1="13.7876" x2="14.3505" y2="13.7876" gradientUnits="userSpaceOnUse">
<stop stop-color="#2F87BD"/>
<stop offset="1" stop-color="#3280BF"/>
</linearGradient>
<linearGradient id="paint4_linear_40_5765" x1="14.9105" y1="13.7876" x2="19.6119" y2="13.7876" gradientUnits="userSpaceOnUse">
<stop stop-color="#2F87BD"/>
<stop offset="1" stop-color="#3280BF"/>
</linearGradient>
</defs>
</svg>
