<svg width="24" height="24" viewBox="0 0 24 24" fill="none" xmlns="http://www.w3.org/2000/svg">
<path d="M2 16.5454V6.09082H20.1818V16.5454C20.1818 17.0454 19.7727 17.4545 19.2727 17.4545H2.90909C2.40909 17.4545 2 17.0454 2 16.5454Z" fill="url(#paint0_linear_40_5826)"/>
<path d="M20.1818 3.81815V6.09088H2V3.81815C2 3.31815 2.40909 2.90906 2.90909 2.90906H19.2727C19.7727 2.90906 20.1818 3.31815 20.1818 3.81815Z" fill="url(#paint1_linear_40_5826)"/>
<path d="M3.59091 5.18175C3.96746 5.18175 4.27272 4.87649 4.27272 4.49993C4.27272 4.12338 3.96746 3.81812 3.59091 3.81812C3.21435 3.81812 2.90909 4.12338 2.90909 4.49993C2.90909 4.87649 3.21435 5.18175 3.59091 5.18175Z" fill="url(#paint2_linear_40_5826)"/>
<path d="M5.86364 5.18175C6.2402 5.18175 6.54546 4.87649 6.54546 4.49993C6.54546 4.12338 6.2402 3.81812 5.86364 3.81812C5.48709 3.81812 5.18182 4.12338 5.18182 4.49993C5.18182 4.87649 5.48709 5.18175 5.86364 5.18175Z" fill="url(#paint3_linear_40_5826)"/>
<path d="M8.13636 5.18175C8.51292 5.18175 8.81818 4.87649 8.81818 4.49993C8.81818 4.12338 8.51292 3.81812 8.13636 3.81812C7.75981 3.81812 7.45454 4.12338 7.45454 4.49993C7.45454 4.87649 7.75981 5.18175 8.13636 5.18175Z" fill="url(#paint4_linear_40_5826)"/>
<path opacity="0.05" d="M20.1818 15.325C20.0246 15.2777 19.8664 15.2373 19.71 15.2155C19.0705 14.0864 17.8418 13.3636 16.5455 13.3636C14.8809 13.3636 13.4255 14.5096 13.0223 16.1123C12.2364 16.2123 11.52 16.6586 11.0809 17.3305L10.9991 17.4546H19.2727C19.7727 17.4546 20.1818 17.0455 20.1818 16.5455V15.325Z" fill="black"/>
<path opacity="0.07" d="M19.2727 17.4545C19.7727 17.4545 20.1818 17.0454 20.1818 16.5454V15.5572C19.985 15.4935 19.7795 15.4481 19.5664 15.4267C18.9818 14.3072 17.8104 13.5908 16.5454 13.5908C14.9264 13.5908 13.525 14.7522 13.2073 16.3231C12.3968 16.3731 11.6909 16.8122 11.2709 17.4545H19.2727Z" fill="black"/>
<path d="M19.4205 15.6436C18.9109 14.5658 17.8168 13.8181 16.5455 13.8181C14.9418 13.8181 13.6186 15.0058 13.3991 16.549C13.3873 16.5486 13.3759 16.5454 13.3636 16.5454C12.1086 16.5454 11.0909 17.5631 11.0909 18.8181C11.0909 20.0731 12.1086 21.0908 13.3636 21.0908C14.2086 21.0908 18.4345 21.0908 19.2727 21.0908C20.7791 21.0908 22 19.8699 22 18.3636C22 16.9072 20.8577 15.7208 19.4205 15.6436Z" fill="url(#paint5_linear_40_5826)"/>
<defs>
<linearGradient id="paint0_linear_40_5826" x1="7.73246" y1="6.26528" x2="11.7655" y2="18.7065" gradientUnits="userSpaceOnUse">
<stop stop-color="#7DD8F3"/>
<stop offset="1" stop-color="#45B0D0"/>
</linearGradient>
<linearGradient id="paint1_linear_40_5826" x1="2.27909" y1="2.79133" x2="19.6982" y2="6.33315" gradientUnits="userSpaceOnUse">
<stop stop-color="#0077D2"/>
<stop offset="1" stop-color="#0B59A2"/>
</linearGradient>
<linearGradient id="paint2_linear_40_5826" x1="3.25045" y1="4.00721" x2="3.83272" y2="4.84948" gradientUnits="userSpaceOnUse">
<stop stop-color="#75DAFF"/>
<stop offset="1" stop-color="#49BEF1"/>
</linearGradient>
<linearGradient id="paint3_linear_40_5826" x1="5.52319" y1="4.00721" x2="6.10546" y2="4.84948" gradientUnits="userSpaceOnUse">
<stop stop-color="#75DAFF"/>
<stop offset="1" stop-color="#49BEF1"/>
</linearGradient>
<linearGradient id="paint4_linear_40_5826" x1="7.79591" y1="4.00721" x2="8.37818" y2="4.84948" gradientUnits="userSpaceOnUse">
<stop stop-color="#75DAFF"/>
<stop offset="1" stop-color="#49BEF1"/>
</linearGradient>
<linearGradient id="paint5_linear_40_5826" x1="14.9459" y1="14.1686" x2="17.5282" y2="21.244" gradientUnits="userSpaceOnUse">
<stop stop-color="#2AA4F4"/>
<stop offset="1" stop-color="#007AD9"/>
</linearGradient>
</defs>
</svg>
