<svg width="24" height="24" viewBox="0 0 24 24" fill="none" xmlns="http://www.w3.org/2000/svg">
<path d="M2 16.5456V6.09106H20.1818V16.5456C20.1818 17.0456 19.7727 17.4547 19.2727 17.4547H2.90909C2.40909 17.4547 2 17.0456 2 16.5456Z" fill="url(#paint0_linear_40_5836)"/>
<path d="M20.1818 3.81839V6.09112H2V3.81839C2 3.31839 2.40909 2.9093 2.90909 2.9093H19.2727C19.7727 2.9093 20.1818 3.31839 20.1818 3.81839Z" fill="url(#paint1_linear_40_5836)"/>
<path d="M3.59091 5.182C3.96746 5.182 4.27272 4.87673 4.27272 4.50018C4.27272 4.12362 3.96746 3.81836 3.59091 3.81836C3.21435 3.81836 2.90909 4.12362 2.90909 4.50018C2.90909 4.87673 3.21435 5.182 3.59091 5.182Z" fill="url(#paint2_linear_40_5836)"/>
<path d="M5.86363 5.182C6.24019 5.182 6.54545 4.87673 6.54545 4.50018C6.54545 4.12362 6.24019 3.81836 5.86363 3.81836C5.48708 3.81836 5.18182 4.12362 5.18182 4.50018C5.18182 4.87673 5.48708 5.182 5.86363 5.182Z" fill="url(#paint3_linear_40_5836)"/>
<path d="M8.13636 5.182C8.51292 5.182 8.81818 4.87673 8.81818 4.50018C8.81818 4.12362 8.51292 3.81836 8.13636 3.81836C7.75981 3.81836 7.45454 4.12362 7.45454 4.50018C7.45454 4.87673 7.75981 5.182 8.13636 5.182Z" fill="url(#paint4_linear_40_5836)"/>
<path opacity="0.05" d="M19.9545 13.8184C19.0791 13.8184 18.3427 14.3152 17.9091 14.6934C17.4755 14.3152 16.7391 13.8184 15.8636 13.8184C15.1936 13.8184 14.5645 14.0888 14.0909 14.5793C13.6218 15.0647 13.3636 15.7047 13.3641 16.3806C13.3641 16.7797 13.5159 17.1556 13.6891 17.4547H19.2727C19.7727 17.4547 20.1818 17.0456 20.1818 16.5456V13.8293C20.1068 13.822 20.0314 13.8184 19.9545 13.8184Z" fill="black"/>
<path opacity="0.07" d="M19.9545 14.0457C19.0214 14.0457 18.2418 14.6816 17.9091 15.0011C17.5764 14.682 16.7968 14.0457 15.8636 14.0457C15.2564 14.0457 14.6845 14.2911 14.2541 14.737C13.8268 15.1797 13.5909 15.7634 13.5914 16.3802C13.5914 16.7811 13.7727 17.1666 13.9564 17.4543H19.2727C19.7727 17.4543 20.1818 17.0452 20.1818 16.5452V14.057C20.1073 14.0497 20.0314 14.0457 19.9545 14.0457Z" fill="black"/>
<path d="M17.9091 15.327C17.9091 15.327 18.825 14.2729 19.9546 14.2729C21.0841 14.2729 22 15.2298 22 16.3807C22 17.0943 21.3182 17.7857 21.3182 17.7857L18.2541 20.9434C18.0636 21.1398 17.7546 21.1398 17.5641 20.9434L14.5005 17.7857C14.5005 17.7857 13.8186 17.0939 13.8186 16.3807C13.8182 15.2298 14.7341 14.2729 15.8636 14.2729C16.9932 14.2729 17.9091 15.327 17.9091 15.327Z" fill="url(#paint5_linear_40_5836)"/>
<defs>
<linearGradient id="paint0_linear_40_5836" x1="7.73246" y1="6.26553" x2="11.7655" y2="18.7068" gradientUnits="userSpaceOnUse">
<stop stop-color="#7DD8F3"/>
<stop offset="1" stop-color="#45B0D0"/>
</linearGradient>
<linearGradient id="paint1_linear_40_5836" x1="2.27909" y1="2.79157" x2="19.6982" y2="6.33339" gradientUnits="userSpaceOnUse">
<stop stop-color="#0077D2"/>
<stop offset="1" stop-color="#0B59A2"/>
</linearGradient>
<linearGradient id="paint2_linear_40_5836" x1="3.25045" y1="4.00745" x2="3.83272" y2="4.84972" gradientUnits="userSpaceOnUse">
<stop stop-color="#75DAFF"/>
<stop offset="1" stop-color="#49BEF1"/>
</linearGradient>
<linearGradient id="paint3_linear_40_5836" x1="5.52318" y1="4.00745" x2="6.10545" y2="4.84972" gradientUnits="userSpaceOnUse">
<stop stop-color="#75DAFF"/>
<stop offset="1" stop-color="#49BEF1"/>
</linearGradient>
<linearGradient id="paint4_linear_40_5836" x1="7.79591" y1="4.00745" x2="8.37818" y2="4.84972" gradientUnits="userSpaceOnUse">
<stop stop-color="#75DAFF"/>
<stop offset="1" stop-color="#49BEF1"/>
</linearGradient>
<linearGradient id="paint5_linear_40_5836" x1="16.3191" y1="13.837" x2="20.1673" y2="19.7639" gradientUnits="userSpaceOnUse">
<stop stop-color="#F44F5A"/>
<stop offset="0.443" stop-color="#EE3D4A"/>
<stop offset="1" stop-color="#E52030"/>
</linearGradient>
</defs>
</svg>
