<svg width="24" height="24" viewBox="0 0 24 24" fill="none" xmlns="http://www.w3.org/2000/svg">
<path d="M22 19.7778C22 21.005 21.005 22 19.7778 22H4.22222C2.995 22 2 21.005 2 19.7778V4.22222C2 2.995 2.995 2 4.22222 2H19.7778C21.005 2 22 2.995 22 4.22222V19.7778Z" fill="url(#paint0_linear_40_5927)"/>
<path opacity="0.05" d="M12.6111 19.2222L11.7828 17.7638L10.9417 19.2222H8.17778L10.3661 16.065L8.32222 12.8333H11.0578L11.8606 14.345L12.7067 12.8333H14.2128V11.5505L14.4339 11.3833C14.6056 11.2544 14.7828 11.14 14.9611 11.0427C15.1394 10.945 15.3294 10.8611 15.5261 10.7944C15.7194 10.7277 15.9272 10.6766 16.1428 10.6438C16.3528 10.6122 16.5767 10.5961 16.8089 10.5961C17.1972 10.5961 17.5606 10.6494 17.8861 10.7544C18.2311 10.8661 18.5317 11.0344 18.78 11.2538C19.035 11.4788 19.2339 11.7622 19.3706 12.0944C19.5022 12.4161 19.5694 12.7822 19.5694 13.1822C19.5694 13.5366 19.5239 13.8633 19.4339 14.1533C19.3444 14.4411 19.2161 14.7127 19.0528 14.9611C18.8956 15.2011 18.7028 15.4311 18.4817 15.6438C18.2794 15.8383 18.0544 16.0388 17.8061 16.2438C17.5989 16.4111 17.3972 16.5711 17.1972 16.7266C17.0394 16.8488 16.895 16.9677 16.765 17.085H19.6828V19.2222H12.6111ZM14.0583 17.2705C14.0583 17.2694 14.0589 17.2687 14.0589 17.2676C14.1383 17.0221 14.2444 16.7877 14.3767 16.5705C14.5072 16.3566 14.6594 16.156 14.8289 15.9726C14.9894 15.7988 15.1606 15.6316 15.3428 15.4705C15.5183 15.3144 15.6983 15.1633 15.8806 15.0183C16.0533 14.8822 16.2206 14.7455 16.385 14.6077C16.5306 14.485 16.6639 14.3633 16.7844 14.2444C16.8889 14.1416 16.9783 14.0355 17.0506 13.9288C17.1144 13.8338 17.1656 13.7322 17.2011 13.6272C17.2333 13.5322 17.2494 13.4244 17.2494 13.3072C17.2494 13.1855 17.2333 13.0844 17.2006 13.0055C17.1717 12.9355 17.1361 12.8827 17.0889 12.8398C17.0378 12.7938 16.9761 12.7588 16.9 12.7333C16.8111 12.7027 16.7078 12.6877 16.5933 12.6877C16.3722 12.6877 16.1383 12.7427 15.8983 12.8505C15.6472 12.9638 15.3978 13.14 15.1567 13.375L14.7633 13.7588L13.25 16.0572L14.0583 17.2705Z" fill="black"/>
<path opacity="0.07" d="M16.15 17.3633C16.1572 17.3516 16.1639 17.3411 16.1717 17.3294C16.2567 17.2022 16.3722 17.0711 16.5139 16.94C16.6656 16.7988 16.8378 16.655 17.0289 16.5077C17.2272 16.3538 17.4278 16.195 17.6311 16.0305C17.8739 15.8305 18.0933 15.6344 18.2911 15.4444C18.4972 15.2461 18.6761 15.0322 18.8228 14.8088C18.9717 14.5827 19.0889 14.3344 19.1706 14.0711C19.2522 13.8066 19.2939 13.5077 19.2939 13.1822C19.2939 12.8183 19.2339 12.4877 19.1156 12.2C18.995 11.9072 18.8206 11.6583 18.5972 11.4616C18.3778 11.2672 18.1106 11.1183 17.8022 11.0183C17.5039 10.9222 17.17 10.8733 16.81 10.8733C16.59 10.8733 16.38 10.8883 16.1856 10.9177C15.9861 10.9483 15.7944 10.995 15.6172 11.0561C15.4383 11.1172 15.2622 11.1944 15.0956 11.2861C14.9278 11.3772 14.7617 11.4844 14.6022 11.6044L14.4917 11.6877V13.1111H12.8706L11.855 14.925L10.8906 13.1111H8.82668L10.6994 16.0722L8.70834 18.9444H10.7806L11.7844 17.2044L12.7722 18.9444H19.4061V17.3633H16.15ZM15.5272 15.6783C15.3522 15.8333 15.1878 15.9944 15.0333 16.1611C14.8756 16.3322 14.7344 16.5188 14.6139 16.715C14.4933 16.9127 14.3956 17.1272 14.3239 17.3522C14.2578 17.5577 14.2256 17.7805 14.2189 18.0122L12.9172 16.0572L14.5478 13.58L14.9628 13.175C15.2272 12.9172 15.5039 12.7227 15.7844 12.5961C16.06 12.4716 16.3322 12.4088 16.5933 12.4088C16.7378 12.4088 16.8706 12.4288 16.9889 12.4688C17.1011 12.5066 17.195 12.5605 17.275 12.6327C17.3533 12.7033 17.4128 12.7905 17.4578 12.8988C17.5039 13.0111 17.5272 13.1477 17.5272 13.3055C17.5272 13.4527 17.5061 13.5905 17.4644 13.7144C17.4211 13.8422 17.3594 13.9666 17.2811 14.0827C17.1994 14.2038 17.0983 14.3244 16.9806 14.4405C16.855 14.5644 16.7161 14.6911 16.5644 14.8194C16.3983 14.9588 16.2289 15.0972 16.0544 15.235C15.8756 15.3777 15.6994 15.5255 15.5272 15.6783Z" fill="black"/>
<path d="M14.3411 13.3889H13.0328L11.8522 15.4972H11.8372C11.7717 15.3628 11.705 15.2322 11.6361 15.1056L10.7239 13.3889H9.33167L11.0333 16.0795L9.23889 18.6667H10.62L11.5628 17.0328C11.6933 16.81 11.7656 16.6822 11.7794 16.6517H11.8C11.8794 16.8056 11.9478 16.9334 12.0061 17.0328L12.9344 18.6667H14.3206L12.5839 16.0589L14.3411 13.3889Z" fill="white"/>
<path d="M19.1289 18.6666V17.6411H15.7939V17.6148C15.7939 17.4671 15.8433 17.3205 15.9411 17.1743C16.0394 17.0282 16.1672 16.8827 16.325 16.7361C16.4828 16.5899 16.6606 16.4411 16.8583 16.2877C17.0561 16.1344 17.2544 15.9772 17.4539 15.8155C17.6906 15.6199 17.9056 15.4294 18.0978 15.2438C18.29 15.0583 18.4544 14.8622 18.59 14.6561C18.7256 14.4499 18.8306 14.2277 18.9044 13.9888C18.9783 13.7499 19.015 13.4811 19.015 13.1822C19.015 12.8522 18.9622 12.5605 18.8578 12.3061C18.7533 12.0516 18.6044 11.8394 18.4117 11.6694C18.2194 11.4988 17.9872 11.3705 17.7161 11.2827C17.445 11.1955 17.1422 11.1516 16.8089 11.1516C16.6028 11.1516 16.4083 11.1649 16.2261 11.1927C16.0444 11.2205 15.8706 11.2622 15.7056 11.3194C15.5406 11.3761 15.3806 11.4466 15.2267 11.5305C15.0717 11.6149 14.9189 11.7132 14.7678 11.8271V12.9761C15.0567 12.6944 15.3572 12.4827 15.6694 12.3422C15.9822 12.2011 16.29 12.1305 16.5922 12.1305C16.7672 12.1305 16.9289 12.1555 17.0767 12.2055C17.2244 12.2555 17.3522 12.3294 17.4606 12.4266C17.5683 12.5249 17.6528 12.6466 17.7128 12.7927C17.7728 12.9388 17.8033 13.1094 17.8033 13.3055C17.8033 13.4838 17.7772 13.6499 17.7256 13.8033C17.6739 13.9566 17.6017 14.1011 17.5089 14.2388C17.4161 14.3761 17.3044 14.5088 17.1733 14.6383C17.0433 14.7666 16.8989 14.8988 16.7406 15.0322C16.5722 15.1733 16.4011 15.3133 16.225 15.4527C16.0506 15.5916 15.8783 15.7361 15.7094 15.8855C15.5411 16.0349 15.3833 16.1894 15.235 16.3494C15.0872 16.5088 14.9589 16.6794 14.8489 16.8594C14.7389 17.0399 14.6517 17.2327 14.5861 17.4366C14.5206 17.6411 14.4878 17.8605 14.4878 18.0944V18.6666H19.1289Z" fill="white"/>
<defs>
<linearGradient id="paint0_linear_40_5927" x1="2.45833" y1="1.74278" x2="21.705" y2="22.4333" gradientUnits="userSpaceOnUse">
<stop stop-color="#33BEF0"/>
<stop offset="1" stop-color="#0A85D9"/>
</linearGradient>
</defs>
</svg>
