<svg width="24" height="24" viewBox="0 0 24 24" fill="none" xmlns="http://www.w3.org/2000/svg">
<path d="M17.9919 16.2239L16.2239 17.9919L20.1589 21.9269C20.2564 22.0244 20.4149 22.0244 20.5124 21.9269L21.9264 20.5129C22.0239 20.4154 22.0239 20.2569 21.9264 20.1594L17.9919 16.2239Z" fill="url(#paint0_linear_40_5953)"/>
<path d="M15.8009 14.0323L14.0329 15.8003L16.2244 17.9913L17.9919 16.2238L15.8009 14.0323Z" fill="url(#paint1_radial_40_5953)"/>
<path d="M10.0004 17.9999C14.4187 17.9999 18.0004 14.4182 18.0004 9.99988C18.0004 5.5816 14.4187 1.99988 10.0004 1.99988C5.58215 1.99988 2.00043 5.5816 2.00043 9.99988C2.00043 14.4182 5.58215 17.9999 10.0004 17.9999Z" fill="url(#paint2_linear_40_5953)"/>
<path d="M9.50043 5.49988H10.5004C10.7764 5.49988 11.0004 5.72388 11.0004 5.99988V13.9999C11.0004 14.2759 10.7764 14.4999 10.5004 14.4999H9.50043C9.22443 14.4999 9.00043 14.2759 9.00043 13.9999V5.99988C9.00043 5.72388 9.22443 5.49988 9.50043 5.49988Z" fill="url(#paint3_linear_40_5953)"/>
<path d="M14.5004 9.49988V10.4999C14.5004 10.7759 14.2764 10.9999 14.0004 10.9999H6.00043C5.72443 10.9999 5.50043 10.7759 5.50043 10.4999V9.49988C5.50043 9.22388 5.72443 8.99988 6.00043 8.99988H14.0004C14.2764 8.99988 14.5004 9.22388 14.5004 9.49988Z" fill="url(#paint4_linear_40_5953)"/>
<defs>
<linearGradient id="paint0_linear_40_5953" x1="19.1117" y1="16.2118" x2="19.1117" y2="21.9792" gradientUnits="userSpaceOnUse">
<stop stop-color="#2AA4F4"/>
<stop offset="1" stop-color="#007AD9"/>
</linearGradient>
<radialGradient id="paint1_radial_40_5953" cx="0" cy="0" r="1" gradientUnits="userSpaceOnUse" gradientTransform="translate(10.0124 10.0478) scale(9.802)">
<stop offset="0.693" stop-color="#006185"/>
<stop offset="0.921" stop-color="#35C1F1"/>
</radialGradient>
<linearGradient id="paint2_linear_40_5953" x1="5.54511" y1="-0.383689" x2="16.3908" y2="15.5377" gradientUnits="userSpaceOnUse">
<stop stop-color="#FCFCFC"/>
<stop offset="0.95" stop-color="#C3C9CD"/>
</linearGradient>
<linearGradient id="paint3_linear_40_5953" x1="9.00043" y1="9.99988" x2="11.0004" y2="9.99988" gradientUnits="userSpaceOnUse">
<stop stop-color="#3079D6"/>
<stop offset="1" stop-color="#297CD2"/>
</linearGradient>
<linearGradient id="paint4_linear_40_5953" x1="5.50043" y1="9.99988" x2="14.5004" y2="9.99988" gradientUnits="userSpaceOnUse">
<stop stop-color="#3079D6"/>
<stop offset="1" stop-color="#297CD2"/>
</linearGradient>
</defs>
</svg>
