<svg width="24" height="24" viewBox="0 0 24 24" fill="none" xmlns="http://www.w3.org/2000/svg">
<g id="add-basket">
<path id="Vector" d="M21.805 10.13L21.6 11.5L21.57 11.7L20.395 19.565C20.31 20.105 19.85 20.5 19.305 20.5H4.69501C4.15001 20.5 3.69001 20.105 3.60501 19.565L2.44001 11.7L2.41001 11.5L2.205 10.13C2.155 9.795 2.41 9.5 2.75 9.5H21.26C21.6 9.5 21.855 9.795 21.805 10.13Z" fill="url(#paint0_linear_206_10148)"/>
<path id="Vector_2" d="M12.7 2.8C12.3 2.4 11.7 2.4 11.3 2.8L4.8 9.3C4.4 9.7 4.4 10.3 4.8 10.7C5 10.9 5.25 11 5.5 11C5.75 11 6 10.9 6.2 10.7L12.7 4.2C13.1 3.8 13.1 3.2 12.7 2.8Z" fill="url(#paint1_linear_206_10148)"/>
<path id="Vector_3" d="M19.45 9.55L12.7 2.8C12.3 2.4 11.7 2.4 11.3 2.8C10.9 3.2 10.9 3.8 11.3 4.2L18.05 10.95C18.25 11.15 18.5 11.25 18.75 11.25C19 11.25 19.25 11.15 19.45 10.95C19.85 10.55 19.85 9.95 19.45 9.55Z" fill="url(#paint2_linear_206_10148)"/>
<path id="Vector_4" opacity="0.05" d="M18.05 10.95C18.25 11.15 18.5 11.25 18.75 11.25C19 11.25 19.25 11.15 19.45 10.95C19.85 10.55 19.85 9.95 19.45 9.55L18.9 9H16.1L18.05 10.95Z" fill="#0E0500"/>
<path id="Vector_5" opacity="0.05" d="M5.5 11C5.75 11 6 10.9 6.2 10.7L7.9 9H5.1L4.8 9.3C4.4 9.7 4.4 10.3 4.8 10.7C5 10.9 5.25 11 5.5 11Z" fill="#0E0500"/>
<path id="Vector_6" opacity="0.07" d="M5.5 11C5.75 11 6 10.9 6.2 10.7L7.65 9.25H4.85L4.8 9.3C4.4 9.7 4.4 10.3 4.8 10.7C5 10.9 5.25 11 5.5 11Z" fill="black"/>
<path id="Vector_7" opacity="0.07" d="M18.05 10.95C18.25 11.15 18.5 11.25 18.75 11.25C19 11.25 19.25 11.15 19.45 10.95C19.85 10.55 19.85 9.95 19.45 9.55L19.15 9.25H16.35L18.05 10.95Z" fill="black"/>
<path id="Vector_8" d="M21.805 10.13C21.855 9.795 21.6 9.5 21.26 9.5H2.75C2.41 9.5 2.155 9.795 2.205 10.13L2.41001 11.5H21.6L21.805 10.13Z" fill="url(#paint3_linear_206_10148)"/>
<path id="Vector_9" d="M10.25 19.5C9.836 19.5 9.5 19.164 9.5 18.75V13.25C9.5 12.836 9.836 12.5 10.25 12.5C10.664 12.5 11 12.836 11 13.25V18.75C11 19.164 10.664 19.5 10.25 19.5Z" fill="#0D62AB"/>
<path id="Vector_10" d="M6.75 19.5C6.336 19.5 6 19.164 6 18.75V13.25C6 12.836 6.336 12.5 6.75 12.5C7.164 12.5 7.5 12.836 7.5 13.25V18.75C7.5 19.164 7.164 19.5 6.75 19.5Z" fill="#0D62AB"/>
<path id="Vector_11" d="M13.75 19.5C13.336 19.5 13 19.164 13 18.75V13.25C13 12.836 13.336 12.5 13.75 12.5C14.164 12.5 14.5 12.836 14.5 13.25V18.75C14.5 19.164 14.164 19.5 13.75 19.5Z" fill="#0D62AB"/>
<path id="Vector_12" d="M17.25 19.5C16.836 19.5 16.5 19.164 16.5 18.75V13.25C16.5 12.836 16.836 12.5 17.25 12.5C17.664 12.5 18 12.836 18 13.25V18.75C18 19.164 17.664 19.5 17.25 19.5Z" fill="#0D62AB"/>
<path id="Vector_13" d="M19 13C15.6915 13 13 15.6915 13 19C13 19.5185 13.073 20.0195 13.1975 20.5H19.305C19.85 20.5 20.31 20.105 20.395 19.565L21.3065 13.4625C20.596 13.1655 19.817 13 19 13Z" fill="url(#paint4_radial_206_10148)"/>
<path id="Vector_14" d="M19 24C21.7614 24 24 21.7614 24 19C24 16.2386 21.7614 14 19 14C16.2386 14 14 16.2386 14 19C14 21.7614 16.2386 24 19 24Z" fill="url(#paint5_linear_206_10148)"/>
<path id="Vector_15" d="M19.25 21.5H18.75C18.612 21.5 18.5 21.388 18.5 21.25V16.75C18.5 16.612 18.612 16.5 18.75 16.5H19.25C19.388 16.5 19.5 16.612 19.5 16.75V21.25C19.5 21.388 19.388 21.5 19.25 21.5Z" fill="white"/>
<path id="Vector_16" d="M16.5 19.25V18.75C16.5 18.612 16.612 18.5 16.75 18.5H21.25C21.388 18.5 21.5 18.612 21.5 18.75V19.25C21.5 19.388 21.388 19.5 21.25 19.5H16.75C16.612 19.5 16.5 19.388 16.5 19.25Z" fill="white"/>
</g>
<defs>
<linearGradient id="paint0_linear_206_10148" x1="12.005" y1="10.934" x2="12.005" y2="24.9415" gradientUnits="userSpaceOnUse">
<stop stop-color="#199BE2"/>
<stop offset="1" stop-color="#0078D4"/>
</linearGradient>
<linearGradient id="paint1_linear_206_10148" x1="11.786" y1="3.8985" x2="4.6765" y2="10.5765" gradientUnits="userSpaceOnUse">
<stop stop-color="#575C61"/>
<stop offset="0.155" stop-color="#737B80"/>
<stop offset="0.507" stop-color="#70787D"/>
<stop offset="0.75" stop-color="#686F74"/>
<stop offset="0.961" stop-color="#5A6065"/>
<stop offset="1" stop-color="#575C61"/>
</linearGradient>
<linearGradient id="paint2_linear_206_10148" x1="11" y1="6.875" x2="19.75" y2="6.875" gradientUnits="userSpaceOnUse">
<stop stop-color="#737B80"/>
<stop offset="1" stop-color="#575C61"/>
</linearGradient>
<linearGradient id="paint3_linear_206_10148" x1="9.36418" y1="9.58718" x2="9.40506" y2="11.7918" gradientUnits="userSpaceOnUse">
<stop stop-color="#32BDEF"/>
<stop offset="1" stop-color="#1EA2E4"/>
</linearGradient>
<radialGradient id="paint4_radial_206_10148" cx="0" cy="0" r="1" gradientUnits="userSpaceOnUse" gradientTransform="translate(18.5365 18.6435) scale(5.377)">
<stop/>
<stop offset="1" stop-opacity="0"/>
</radialGradient>
<linearGradient id="paint5_linear_206_10148" x1="14" y1="19" x2="24" y2="19" gradientUnits="userSpaceOnUse">
<stop stop-color="#21AD64"/>
<stop offset="1" stop-color="#088242"/>
</linearGradient>
</defs>
</svg>
