<svg width="24" height="24" viewBox="0 0 24 24" fill="none" xmlns="http://www.w3.org/2000/svg">
<g id="auto-deskew">
<path id="Vector" d="M18.2549 19.48C18.1899 19.4809 18.1253 19.4689 18.0649 19.4448C18.0042 19.4177 17.9484 19.3806 17.8999 19.335C17.8078 19.2396 17.7559 19.1125 17.7549 18.98C17.7549 18.8474 17.8076 18.7202 17.9013 18.6264C17.9951 18.5327 18.1223 18.48 18.2549 18.48C18.3875 18.48 18.5147 18.5327 18.6085 18.6264C18.7022 18.7202 18.7549 18.8474 18.7549 18.98C18.7555 19.0458 18.743 19.1111 18.7181 19.1721C18.6932 19.233 18.6564 19.2884 18.6099 19.335C18.5633 19.3815 18.5079 19.4183 18.447 19.4432C18.386 19.4681 18.3207 19.4806 18.2549 19.48L18.2549 19.48Z" fill="#057093"/>
<path id="Vector_2" d="M6.83496 21.2349C6.822 21.1705 6.82196 21.1042 6.83486 21.0398C6.84775 20.9754 6.87332 20.9142 6.91008 20.8597C6.94683 20.8053 6.99403 20.7587 7.04895 20.7227C7.10386 20.6867 7.16539 20.6619 7.22996 20.6499C7.29434 20.6369 7.36066 20.6369 7.42507 20.6498C7.48947 20.6626 7.55067 20.6882 7.6051 20.725C7.65953 20.7617 7.70612 20.8089 7.74214 20.8639C7.77816 20.9188 7.80289 20.9803 7.81492 21.0449C7.84003 21.1748 7.81254 21.3094 7.73847 21.4191C7.66441 21.5288 7.54983 21.6046 7.41992 21.6299C7.38857 21.6357 7.35682 21.6391 7.32495 21.6401C7.20881 21.6404 7.09623 21.6 7.00674 21.526C6.91724 21.452 6.85647 21.349 6.83496 21.2349ZM8.65503 20.875C8.64253 20.8107 8.64283 20.7445 8.65591 20.6803C8.66899 20.6161 8.69458 20.5551 8.73124 20.5007C8.7679 20.4464 8.8149 20.3999 8.86956 20.3637C8.92422 20.3275 8.98547 20.3025 9.0498 20.29C9.11423 20.2767 9.18068 20.2763 9.24524 20.2891C9.3098 20.3018 9.37116 20.3273 9.4257 20.3641C9.48024 20.4009 9.52686 20.4483 9.56281 20.5034C9.59875 20.5585 9.6233 20.6203 9.63501 20.685C9.64795 20.7491 9.64811 20.815 9.6355 20.8791C9.62288 20.9432 9.59772 21.0042 9.56147 21.0586C9.52522 21.1129 9.47859 21.1596 9.42426 21.1959C9.36993 21.2321 9.30896 21.2573 9.24487 21.27C9.21219 21.2778 9.17859 21.2811 9.14502 21.2798C9.02915 21.2793 8.91702 21.2387 8.82769 21.1649C8.73836 21.0911 8.67734 20.9887 8.65503 20.875ZM10.4749 20.5151C10.4507 20.3852 10.4786 20.2511 10.5525 20.1416C10.6264 20.032 10.7404 19.9559 10.8699 19.9297C10.9345 19.9167 11.0012 19.9166 11.0659 19.9295C11.1306 19.9423 11.1922 19.9678 11.247 20.0045C11.3018 20.0413 11.3489 20.0884 11.3854 20.1434C11.4219 20.1983 11.4473 20.2599 11.4599 20.3247C11.4841 20.4545 11.4562 20.5887 11.3823 20.6981C11.3084 20.8076 11.1944 20.8836 11.0649 20.9096C11.034 20.9179 11.002 20.9213 10.97 20.9199C10.8535 20.9196 10.7407 20.8791 10.6505 20.8054C10.5604 20.7317 10.4983 20.6292 10.4749 20.5151ZM12.2998 20.1548C12.2869 20.0904 12.2868 20.0241 12.2998 19.9597C12.3127 19.8953 12.3382 19.8341 12.375 19.7797C12.4117 19.7253 12.4589 19.6787 12.5138 19.6427C12.5687 19.6066 12.6302 19.5819 12.6948 19.5698C12.7592 19.5569 12.8255 19.5569 12.8899 19.5698C12.9543 19.5827 13.0155 19.6083 13.0699 19.645C13.1244 19.6818 13.171 19.729 13.207 19.7839C13.2431 19.8388 13.2679 19.9003 13.28 19.9648C13.293 20.0292 13.293 20.0955 13.2801 20.1599C13.2672 20.2243 13.2417 20.2855 13.2049 20.34C13.1682 20.3944 13.1209 20.441 13.066 20.477C13.0111 20.513 12.9496 20.5377 12.885 20.5498C12.8536 20.5559 12.8218 20.5593 12.7898 20.56C12.6737 20.5602 12.5611 20.5198 12.4717 20.4458C12.3822 20.3718 12.3214 20.2689 12.2998 20.1548ZM14.1199 19.7998C14.095 19.6693 14.1225 19.5342 14.1964 19.4239C14.2703 19.3135 14.3847 19.2366 14.5149 19.2099C14.5796 19.1969 14.6462 19.1968 14.7109 19.2097C14.7757 19.2225 14.8372 19.248 14.8921 19.2847C14.9469 19.3214 14.9939 19.3686 15.0305 19.4236C15.067 19.4785 15.0923 19.5402 15.105 19.6049C15.1298 19.7348 15.1022 19.8693 15.0282 19.9789C14.9542 20.0886 14.8397 20.1644 14.71 20.1899C14.6769 20.1956 14.6434 20.1988 14.6099 20.1997C14.4947 20.1993 14.3832 20.1593 14.294 20.0865C14.2048 20.0137 14.1433 19.9125 14.1199 19.7998V19.7998ZM15.9448 19.4399C15.9315 19.3755 15.931 19.3092 15.9434 19.2446C15.9558 19.1801 15.9809 19.1186 16.0171 19.0638C16.0534 19.009 16.1001 18.9619 16.1547 18.9252C16.2092 18.8885 16.2705 18.863 16.335 18.8501C16.3997 18.8367 16.4664 18.8363 16.5313 18.8489C16.5961 18.8616 16.6578 18.8871 16.7127 18.9239C16.7676 18.9606 16.8147 19.008 16.8511 19.0631C16.8875 19.1183 16.9126 19.1801 16.9248 19.2451C16.95 19.375 16.9225 19.5096 16.8485 19.6193C16.7745 19.729 16.6599 19.8048 16.53 19.83C16.4986 19.8357 16.4668 19.839 16.4348 19.8398C16.3195 19.8402 16.2076 19.8005 16.1182 19.7276C16.0289 19.6547 15.9676 19.553 15.9448 19.4399V19.4399Z" fill="#057093"/>
<path id="Vector_3" d="M5.5 22C5.4346 21.9992 5.36998 21.9856 5.30981 21.9599C5.25018 21.9357 5.19586 21.9 5.1499 21.8549C5.10268 21.8077 5.06526 21.7516 5.03979 21.6899C5.01355 21.63 5 21.5653 5 21.4999C5 21.4346 5.01355 21.3699 5.03979 21.31C5.06394 21.2476 5.10153 21.1912 5.1499 21.145C5.19586 21.0999 5.25018 21.0642 5.30981 21.04C5.40105 21.0002 5.50237 20.9896 5.59985 21.0097C5.63277 21.0153 5.66474 21.0255 5.69483 21.04C5.72565 21.0498 5.7545 21.065 5.78003 21.0849C5.80709 21.1022 5.83223 21.1223 5.855 21.145C5.90172 21.1925 5.939 21.2485 5.96487 21.31C5.98906 21.3704 6.001 21.4349 6 21.5C6.00064 21.5658 5.98814 21.6311 5.96324 21.6921C5.93834 21.753 5.90154 21.8084 5.85498 21.8549C5.80842 21.9015 5.75305 21.9383 5.6921 21.9632C5.63114 21.9881 5.56584 22.0006 5.5 22Z" fill="#057093"/>
<path id="Vector_4" d="M4.605 19.5401C4.57974 19.4095 4.60706 19.2742 4.68104 19.1636C4.75501 19.0531 4.86964 18.9762 5 18.9497C5.12991 18.925 5.26434 18.9526 5.37394 19.0266C5.48354 19.1006 5.5594 19.215 5.58496 19.3447C5.59828 19.4088 5.59871 19.4749 5.58625 19.5391C5.57378 19.6033 5.54867 19.6645 5.51236 19.7189C5.47605 19.7733 5.42928 19.82 5.37477 19.8562C5.32026 19.8924 5.25909 19.9174 5.19483 19.9297C5.16222 19.9379 5.12858 19.9414 5.09497 19.9399C4.97962 19.9404 4.86771 19.9007 4.77834 19.8278C4.68898 19.7549 4.62771 19.6532 4.605 19.5401ZM4.19995 17.48C4.18661 17.416 4.18615 17.3499 4.19858 17.2857C4.21102 17.2214 4.23611 17.1603 4.2724 17.1059C4.30869 17.0514 4.35544 17.0048 4.40994 16.9686C4.46444 16.9324 4.5256 16.9074 4.58985 16.895C4.6542 16.8816 4.72055 16.8811 4.7851 16.8935C4.84965 16.9059 4.91112 16.9309 4.96596 16.9671C5.0208 17.0033 5.06794 17.05 5.10467 17.1045C5.14139 17.159 5.16697 17.2202 5.17993 17.2847C5.20515 17.4153 5.1778 17.5505 5.10384 17.6611C5.02987 17.7716 4.91527 17.8485 4.78493 17.875C4.75357 17.8807 4.72182 17.8839 4.68996 17.8848C4.5739 17.8851 4.46138 17.8448 4.37189 17.7709C4.2824 17.6969 4.22158 17.5941 4.19995 17.48ZM3.7898 15.4249C3.76498 15.2944 3.79249 15.1593 3.8664 15.049C3.94031 14.9386 4.05468 14.8617 4.1848 14.835C4.2495 14.822 4.31613 14.8219 4.38087 14.8347C4.44561 14.8475 4.50718 14.873 4.56202 14.9097C4.61687 14.9465 4.66391 14.9936 4.70044 15.0486C4.73697 15.1036 4.76227 15.1652 4.77488 15.23C4.79899 15.3598 4.77108 15.4939 4.69718 15.6034C4.62328 15.7128 4.50932 15.7888 4.37988 15.815C4.34688 15.8206 4.31351 15.8239 4.28003 15.8247C4.16505 15.8236 4.05387 15.7834 3.96477 15.7108C3.87567 15.6381 3.81397 15.5372 3.7898 15.4248V15.4249ZM3.385 13.3648C3.35975 13.2342 3.38709 13.099 3.46107 12.9885C3.53505 12.8781 3.64968 12.8013 3.78 12.7749C3.90991 12.7502 4.04432 12.7778 4.15391 12.8518C4.2635 12.9258 4.33937 13.0402 4.36496 13.1699C4.37798 13.2346 4.37807 13.3012 4.36524 13.3659C4.35241 13.4307 4.3269 13.4922 4.29019 13.547C4.25348 13.6019 4.20628 13.6489 4.15132 13.6854C4.09637 13.7219 4.03473 13.7472 3.96996 13.7598C3.93852 13.7642 3.90675 13.766 3.87499 13.7651C3.75977 13.7648 3.64816 13.7248 3.55894 13.6519C3.46971 13.579 3.40829 13.4776 3.385 13.3648ZM2.98 11.3047C2.96668 11.2403 2.96639 11.1739 2.97913 11.1093C2.99188 11.0448 3.0174 10.9835 3.05421 10.929C3.09102 10.8745 3.13837 10.8279 3.19346 10.7919C3.24855 10.756 3.31028 10.7315 3.375 10.7198C3.43904 10.7068 3.505 10.7067 3.5691 10.7193C3.6332 10.7319 3.69417 10.7571 3.74852 10.7933C3.80288 10.8296 3.84953 10.8762 3.88582 10.9305C3.9221 10.9848 3.9473 11.0458 3.95996 11.1099C3.97281 11.1746 3.97279 11.2411 3.95988 11.3058C3.94698 11.3705 3.92146 11.4319 3.88477 11.4867C3.84808 11.5415 3.80095 11.5885 3.74608 11.6251C3.6912 11.6616 3.62966 11.687 3.56496 11.6997C3.53365 11.7058 3.50188 11.7092 3.46999 11.71C3.35385 11.7103 3.24128 11.6699 3.15178 11.5959C3.06229 11.5219 3.00151 11.4188 2.98 11.3047ZM2.56985 9.24514C2.54579 9.11526 2.5737 8.98112 2.64758 8.87161C2.72146 8.76211 2.8354 8.68601 2.96485 8.6597C3.02954 8.64672 3.09617 8.64665 3.16089 8.6595C3.22561 8.67235 3.28715 8.69786 3.34198 8.73456C3.39682 8.77127 3.44386 8.81844 3.4804 8.87338C3.51695 8.92832 3.54227 8.98994 3.55493 9.0547C3.57973 9.18466 3.55212 9.31916 3.47811 9.42884C3.40411 9.53852 3.28973 9.61448 3.15993 9.64014C3.12892 9.64797 3.09693 9.65126 3.06496 9.64991C2.9485 9.64957 2.8357 9.60914 2.74554 9.53543C2.65537 9.46172 2.59332 9.35921 2.56983 9.24514H2.56985ZM2.16482 7.18997C2.13954 7.05943 2.16687 6.92419 2.24086 6.81371C2.31484 6.70323 2.42949 6.62646 2.55982 6.60013C2.69028 6.57585 2.82506 6.60359 2.93534 6.67741C3.04561 6.75122 3.12263 6.86526 3.1499 6.99513C3.1741 7.12555 3.14632 7.26027 3.07251 7.37048C2.9987 7.4807 2.88472 7.55768 2.7549 7.58497C2.7219 7.59064 2.68853 7.59391 2.65505 7.59474C2.53941 7.59334 2.42773 7.55243 2.33855 7.4788C2.24937 7.40517 2.18806 7.30325 2.1648 7.18997H2.16482Z" fill="#057093"/>
<path id="Vector_5" d="M2.24999 5.53467C2.18439 5.53645 2.11927 5.52291 2.05981 5.49512C1.99939 5.46958 1.94369 5.43409 1.89501 5.39012C1.82509 5.32006 1.77771 5.2307 1.75896 5.13351C1.74021 5.03632 1.75094 4.93575 1.78979 4.84471C1.81411 4.78355 1.84981 4.72755 1.89499 4.67969C1.99177 4.59067 2.11847 4.54126 2.24997 4.54126C2.38147 4.54126 2.50817 4.59067 2.60495 4.67969C2.65 4.72763 2.68562 4.78362 2.70995 4.84473C2.74248 4.9204 2.7556 5.003 2.74811 5.08502C2.74063 5.16705 2.71277 5.24591 2.66709 5.31444C2.6214 5.38298 2.55932 5.43902 2.48648 5.47748C2.41364 5.51593 2.33236 5.5356 2.24999 5.53467Z" fill="#057093"/>
<path id="Vector_6" d="M3.57983 4.77003C3.55571 4.6402 3.5836 4.50608 3.65751 4.39664C3.73141 4.28719 3.84539 4.2112 3.97483 4.18507C4.03925 4.17169 4.1057 4.17136 4.17024 4.18408C4.23479 4.1968 4.29614 4.22232 4.35067 4.25914C4.40519 4.29596 4.45179 4.34332 4.4877 4.39844C4.52362 4.45357 4.54814 4.51532 4.55979 4.58007C4.57279 4.6441 4.573 4.71006 4.56041 4.77416C4.54783 4.83827 4.5227 4.89926 4.48647 4.95362C4.45023 5.00798 4.40361 5.05464 4.34928 5.09092C4.29496 5.1272 4.23399 5.15239 4.1699 5.16503C4.13718 5.17312 4.10347 5.17641 4.06981 5.1748C3.95417 5.17352 3.84246 5.13265 3.7533 5.05899C3.66414 4.98534 3.60292 4.88335 3.57983 4.77003ZM5.40503 4.40968C5.39207 4.34566 5.39189 4.27971 5.40449 4.21562C5.41709 4.15153 5.44222 4.09055 5.47845 4.0362C5.51467 3.98185 5.56128 3.93519 5.61559 3.89889C5.6699 3.8626 5.73084 3.83739 5.79492 3.82472C5.85964 3.81143 5.92635 3.81113 5.99119 3.82384C6.05603 3.83656 6.11769 3.86203 6.17259 3.89878C6.2275 3.93554 6.27455 3.98283 6.31101 4.03793C6.34748 4.09302 6.37263 4.15482 6.38501 4.21972C6.41019 4.34967 6.38273 4.4843 6.30865 4.594C6.23458 4.7037 6.11996 4.77949 5.99001 4.80468C5.95869 4.81073 5.92693 4.81416 5.89504 4.81493C5.7789 4.81522 5.66632 4.77486 5.57683 4.70084C5.48733 4.62683 5.42655 4.52383 5.40503 4.4097V4.40968ZM7.22485 4.04982C7.19974 3.91988 7.22723 3.78528 7.3013 3.67559C7.37536 3.56591 7.48994 3.49011 7.61985 3.46486C7.68427 3.45153 7.7507 3.45123 7.81523 3.46397C7.87976 3.47671 7.94109 3.50224 7.9956 3.53905C8.05011 3.57586 8.09671 3.62321 8.13264 3.6783C8.16857 3.7334 8.19311 3.79513 8.20481 3.85986C8.21783 3.92425 8.21791 3.99058 8.20504 4.055C8.19217 4.11942 8.16661 4.18063 8.12984 4.23508C8.09308 4.28952 8.04585 4.3361 7.99091 4.37211C7.93596 4.40812 7.8744 4.43284 7.80981 4.44482C7.77847 4.45066 7.74672 4.45408 7.71485 4.45507C7.59873 4.45528 7.48619 4.41489 7.39671 4.34089C7.30724 4.26689 7.24644 4.16393 7.22485 4.04984V4.04982ZM9.04492 3.68995C9.02075 3.56011 9.04863 3.42598 9.12254 3.31652C9.19645 3.20707 9.31045 3.13109 9.43992 3.10499C9.50462 3.09198 9.57126 3.09189 9.63599 3.10472C9.70073 3.11756 9.76229 3.14307 9.81714 3.17978C9.87198 3.21649 9.91902 3.26369 9.95556 3.31865C9.9921 3.37361 10.0174 3.43525 10.03 3.50003C10.0541 3.62986 10.0262 3.76394 9.95226 3.87337C9.87837 3.98279 9.76444 4.0588 9.63503 4.08499C9.60194 4.09065 9.56849 4.09392 9.53493 4.09476C9.41928 4.09349 9.30756 4.05262 9.21839 3.97896C9.12922 3.9053 9.068 3.8033 9.04492 3.68997V3.68995ZM10.8699 3.33009C10.8569 3.26571 10.8569 3.19939 10.8698 3.13499C10.8826 3.07058 10.9082 3.00939 10.945 2.95496C10.9817 2.90053 11.0289 2.85395 11.0839 2.81792C11.1388 2.7819 11.2003 2.75716 11.2649 2.74513C11.3293 2.7321 11.3956 2.73202 11.46 2.74489C11.5244 2.75776 11.5857 2.78332 11.6401 2.82008C11.6946 2.85685 11.7411 2.90408 11.7771 2.95902C11.8131 3.01397 11.8379 3.07553 11.8498 3.14013C11.8628 3.20451 11.8628 3.27083 11.8499 3.33522C11.837 3.39962 11.8114 3.46081 11.7747 3.51523C11.7379 3.56966 11.6907 3.61624 11.6358 3.65227C11.5809 3.6883 11.5194 3.71305 11.4548 3.72509C11.4235 3.73076 11.3917 3.73402 11.3599 3.73486C11.2438 3.73512 11.1313 3.69481 11.0418 3.6209C10.9524 3.54699 10.8915 3.44413 10.8699 3.33011V3.33009ZM12.6899 2.96974C12.6658 2.83991 12.6937 2.7058 12.7676 2.59636C12.8415 2.48693 12.9555 2.41093 13.0849 2.38478C13.1496 2.3718 13.2162 2.37174 13.2809 2.38459C13.3456 2.39744 13.4072 2.42295 13.462 2.45966C13.5168 2.49637 13.5638 2.54354 13.6003 2.59848C13.6368 2.65342 13.6622 2.71503 13.6748 2.77978C13.699 2.90959 13.6711 3.04369 13.5972 3.15314C13.5234 3.26259 13.4094 3.33859 13.28 3.36474C13.247 3.3708 13.2135 3.37423 13.1799 3.37499C13.064 3.37448 12.9518 3.33383 12.8625 3.25995C12.7732 3.18607 12.7122 3.08352 12.6899 2.96976V2.96974Z" fill="#057093"/>
<path id="Vector_7" d="M15.0049 3.01514C14.923 3.01422 14.8426 2.99343 14.7705 2.95456C14.6984 2.91569 14.6369 2.8599 14.5911 2.79199C14.5454 2.72407 14.5168 2.64607 14.5079 2.56468C14.4989 2.48329 14.5099 2.40094 14.5398 2.32471C14.5678 2.26599 14.605 2.21209 14.6499 2.16505C14.7204 2.09597 14.8093 2.04879 14.906 2.0292C15.0027 2.00962 15.103 2.01847 15.1948 2.0547C15.2566 2.0802 15.3127 2.1177 15.3599 2.16505C15.4507 2.25925 15.5025 2.38432 15.5049 2.51514C15.5038 2.64769 15.4519 2.77478 15.3599 2.87014C15.2652 2.96334 15.1377 3.01544 15.0049 3.01514Z" fill="#057093"/>
<path id="Vector_8" d="M17.3599 17.02C17.3336 16.89 17.36 16.7549 17.4331 16.6443C17.5062 16.5337 17.6201 16.4565 17.75 16.4297C17.8805 16.4048 18.0155 16.4323 18.1259 16.5062C18.2363 16.5802 18.3131 16.6945 18.3399 16.8247C18.3651 16.9553 18.3378 17.0906 18.2638 17.2011C18.1898 17.3117 18.0752 17.3885 17.9449 17.415C17.9135 17.4207 17.8817 17.4239 17.8499 17.4248C17.7338 17.425 17.6213 17.3847 17.5319 17.3108C17.4424 17.2368 17.3816 17.134 17.3599 17.02ZM16.95 14.9599C16.9251 14.83 16.9527 14.6955 17.0267 14.5859C17.1007 14.4763 17.2152 14.4004 17.345 14.375C17.4749 14.3486 17.61 14.3749 17.7205 14.4481C17.8311 14.5212 17.9082 14.6352 17.9348 14.7651C17.9597 14.8956 17.9322 15.0306 17.8583 15.141C17.7843 15.2514 17.6699 15.3283 17.5398 15.3549C17.5068 15.3606 17.4734 15.3639 17.4399 15.3647C17.3243 15.3634 17.2126 15.3226 17.1234 15.2489C17.0343 15.1753 16.973 15.0733 16.95 14.9599V14.9599ZM16.5449 12.9047C16.5197 12.7742 16.5471 12.639 16.6211 12.5285C16.695 12.4181 16.8096 12.3413 16.9399 12.3149C17.0043 12.3021 17.0706 12.3022 17.1349 12.3151C17.1993 12.3281 17.2604 12.3537 17.3148 12.3904C17.3692 12.4271 17.4158 12.4743 17.4518 12.5291C17.4879 12.584 17.5127 12.6454 17.5249 12.7099C17.5382 12.774 17.5387 12.84 17.5263 12.9043C17.5138 12.9685 17.4887 13.0296 17.4524 13.084C17.4162 13.1385 17.3694 13.1852 17.3149 13.2214C17.2604 13.2576 17.1993 13.2826 17.135 13.2949C17.1022 13.3027 17.0686 13.306 17.0349 13.3047C16.9195 13.3052 16.8076 13.2656 16.7182 13.1926C16.6288 13.1197 16.5675 13.0179 16.5449 12.9048V12.9047ZM16.1399 10.8447C16.1266 10.7803 16.1264 10.7139 16.1391 10.6494C16.1519 10.5848 16.1774 10.5235 16.2142 10.469C16.251 10.4145 16.2984 10.3679 16.3534 10.332C16.4085 10.2961 16.4702 10.2715 16.5349 10.2597C16.5989 10.2468 16.6649 10.2466 16.729 10.2593C16.7931 10.2719 16.8541 10.297 16.9084 10.3333C16.9628 10.3695 17.0094 10.4162 17.0457 10.4705C17.082 10.5248 17.1072 10.5858 17.1199 10.6499C17.1329 10.7145 17.133 10.7812 17.1202 10.8459C17.1074 10.9106 17.0819 10.9722 17.0452 11.027C17.0084 11.0818 16.9612 11.1289 16.9063 11.1654C16.8513 11.2019 16.7896 11.2271 16.7249 11.2397C16.6935 11.2458 16.6618 11.2492 16.6299 11.25C16.5138 11.2502 16.4012 11.2098 16.3117 11.1358C16.2222 11.0618 16.1614 10.9588 16.1399 10.8447V10.8447ZM15.73 8.78465C15.706 8.65482 15.7339 8.52075 15.8078 8.41133C15.8817 8.30191 15.9956 8.2259 16.125 8.19969C16.2555 8.1745 16.3907 8.20186 16.5012 8.27583C16.6117 8.34981 16.6884 8.4644 16.7149 8.59469C16.7397 8.7246 16.7121 8.85907 16.6381 8.96869C16.5641 9.07831 16.4496 9.15416 16.3199 9.17965C16.2869 9.18572 16.2535 9.18915 16.22 9.1899C16.1043 9.18861 15.9925 9.14768 15.9033 9.07393C15.8142 9.00017 15.753 8.89807 15.73 8.78465ZM15.325 6.72998C15.3007 6.59955 15.3284 6.4648 15.4023 6.35457C15.4761 6.24433 15.5901 6.16737 15.72 6.14014C15.8503 6.11586 15.985 6.14354 16.0952 6.21727C16.2055 6.29099 16.2825 6.40491 16.3098 6.53467C16.3346 6.66464 16.307 6.79913 16.233 6.90882C16.159 7.0185 16.0446 7.09445 15.9148 7.12012C15.8821 7.12797 15.8485 7.13126 15.8149 7.12989C15.6998 7.12953 15.5883 7.0896 15.4991 7.01679C15.4099 6.94398 15.3484 6.84272 15.325 6.72998ZM14.9199 4.66992C14.9066 4.60551 14.9063 4.53908 14.919 4.47455C14.9318 4.41002 14.9573 4.34869 14.9941 4.29417C15.0309 4.23966 15.0783 4.19307 15.1334 4.15714C15.1885 4.12121 15.2502 4.09666 15.3149 4.08496C15.379 4.07198 15.4449 4.07178 15.5091 4.08438C15.5732 4.09698 15.6342 4.12214 15.6885 4.15839C15.7429 4.19465 15.7896 4.2413 15.8258 4.29565C15.8621 4.35 15.8873 4.41099 15.8999 4.4751C15.9132 4.53981 15.9136 4.60652 15.9009 4.67136C15.8882 4.7362 15.8627 4.79786 15.8259 4.85275C15.7892 4.90765 15.7418 4.95468 15.6867 4.99111C15.6316 5.02754 15.5698 5.05264 15.5049 5.06494C15.4735 5.07061 15.4418 5.07387 15.4099 5.07471C15.2938 5.075 15.1813 5.03469 15.0918 4.96076C15.0024 4.88684 14.9415 4.78394 14.9199 4.6699V4.66992Z" fill="#057093"/>
<path id="Vector_9" d="M22.5 5.895V21.105C22.5036 21.3383 22.4145 21.5634 22.2524 21.7312C22.0903 21.8989 21.8683 21.9956 21.635 22H10.365C10.1317 21.9956 9.90973 21.8989 9.7476 21.7312C9.58547 21.5634 9.49644 21.3383 9.5 21.105V5.895C9.49644 5.66173 9.58547 5.43656 9.7476 5.2688C9.90973 5.10105 10.1317 5.00439 10.365 5H21.635C21.8683 5.00439 22.0903 5.10105 22.2524 5.2688C22.4145 5.43656 22.5036 5.66173 22.5 5.895Z" fill="url(#paint0_linear_206_10432)"/>
<g id="Group">
<path id="Vector_10" d="M20.25 9H11.75C11.6837 8.99998 11.6201 8.97363 11.5732 8.92675C11.5264 8.87987 11.5 8.8163 11.5 8.75V8.25C11.5 8.1837 11.5264 8.12013 11.5732 8.07325C11.6201 8.02637 11.6837 8.00002 11.75 8H20.25C20.3163 8.00002 20.3799 8.02637 20.4268 8.07325C20.4736 8.12013 20.5 8.1837 20.5 8.25V8.75C20.5 8.8163 20.4736 8.87987 20.4268 8.92675C20.3799 8.97363 20.3163 8.99998 20.25 9Z" fill="url(#paint1_linear_206_10432)"/>
<path id="Vector_11" d="M19.25 11H11.75C11.6837 11 11.6201 10.9736 11.5732 10.9268C11.5264 10.8799 11.5 10.8163 11.5 10.75V10.25C11.5 10.1837 11.5264 10.1201 11.5732 10.0732C11.6201 10.0264 11.6837 10 11.75 10H19.25C19.3163 10 19.3799 10.0264 19.4268 10.0732C19.4736 10.1201 19.5 10.1837 19.5 10.25V10.75C19.5 10.8163 19.4736 10.8799 19.4268 10.9268C19.3799 10.9736 19.3163 11 19.25 11Z" fill="url(#paint2_linear_206_10432)"/>
<path id="Vector_12" d="M20.25 13H11.75C11.6837 13 11.6201 12.9736 11.5732 12.9268C11.5264 12.8799 11.5 12.8163 11.5 12.75V12.25C11.5 12.1837 11.5264 12.1201 11.5732 12.0732C11.6201 12.0264 11.6837 12 11.75 12H20.25C20.3163 12 20.3799 12.0264 20.4268 12.0732C20.4736 12.1201 20.5 12.1837 20.5 12.25V12.75C20.5 12.8163 20.4736 12.8799 20.4268 12.9268C20.3799 12.9736 20.3163 13 20.25 13Z" fill="url(#paint3_linear_206_10432)"/>
<path id="Vector_13" d="M20.25 17H11.75C11.6837 17 11.6201 16.9736 11.5732 16.9268C11.5264 16.8799 11.5 16.8163 11.5 16.75V16.25C11.5 16.1837 11.5264 16.1201 11.5732 16.0732C11.6201 16.0264 11.6837 16 11.75 16H20.25C20.3163 16 20.3799 16.0264 20.4268 16.0732C20.4736 16.1201 20.5 16.1837 20.5 16.25V16.75C20.5 16.8163 20.4736 16.8799 20.4268 16.9268C20.3799 16.9736 20.3163 17 20.25 17Z" fill="url(#paint4_linear_206_10432)"/>
<path id="Vector_14" d="M19.25 15H11.75C11.6837 15 11.6201 14.9736 11.5732 14.9268C11.5264 14.8799 11.5 14.8163 11.5 14.75V14.25C11.5 14.1837 11.5264 14.1201 11.5732 14.0732C11.6201 14.0264 11.6837 14 11.75 14H19.25C19.3163 14 19.3799 14.0264 19.4268 14.0732C19.4736 14.1201 19.5 14.1837 19.5 14.25V14.75C19.5 14.8163 19.4736 14.8799 19.4268 14.9268C19.3799 14.9736 19.3163 15 19.25 15Z" fill="url(#paint5_linear_206_10432)"/>
<path id="Vector_15" d="M19.25 19H11.75C11.6837 19 11.6201 18.9736 11.5732 18.9268C11.5264 18.8799 11.5 18.8163 11.5 18.75V18.25C11.5 18.1837 11.5264 18.1201 11.5732 18.0732C11.6201 18.0264 11.6837 18 11.75 18H19.25C19.3163 18 19.3799 18.0264 19.4268 18.0732C19.4736 18.1201 19.5 18.1837 19.5 18.25V18.75C19.5 18.8163 19.4736 18.8799 19.4268 18.9268C19.3799 18.9736 19.3163 19 19.25 19Z" fill="url(#paint6_linear_206_10432)"/>
</g>
<path id="Vector_16" d="M10.5 11.1924V15.8075C10.5018 15.8474 10.5153 15.8858 10.5389 15.918C10.5625 15.9502 10.5951 15.9746 10.6326 15.9883C10.6701 16.002 10.7108 16.0042 10.7496 15.9947C10.7883 15.9853 10.8234 15.9645 10.8504 15.9351L12.9176 13.7076C12.9705 13.6514 13 13.5771 13 13.4999C13 13.4227 12.9705 13.3485 12.9176 13.2923L10.8504 11.0648C10.8234 11.0354 10.7883 11.0146 10.7496 11.0052C10.7108 10.9957 10.6701 10.9979 10.6326 11.0116C10.5951 11.0252 10.5625 11.0497 10.5389 11.0819C10.5153 11.114 10.5018 11.1525 10.5 11.1924Z" fill="url(#paint7_linear_206_10432)"/>
<path id="Vector_17" d="M11.5 12.5V14.5H7C6.86739 14.5 6.74021 14.4473 6.64645 14.3536C6.55268 14.2598 6.5 14.1326 6.5 14V13C6.5 12.8674 6.55268 12.7402 6.64645 12.6464C6.74021 12.5527 6.86739 12.5 7 12.5H11.5Z" fill="url(#paint8_linear_206_10432)"/>
<g id="Group_2">
<path id="Vector_18" opacity="0.05" d="M13.285 12.95L11.215 10.725C11.12 10.6222 10.9963 10.5502 10.86 10.5184C10.7236 10.4865 10.5809 10.4962 10.4501 10.5463C10.3194 10.5963 10.2066 10.6844 10.1264 10.7991C10.0461 10.9139 10.0021 11.05 10 11.19V12H9.5V12.5H10.5V11.19C10.5013 11.1383 10.5232 11.0892 10.5607 11.0536C10.5982 11.018 10.6483 10.9987 10.7 11C10.7282 10.9995 10.7562 11.005 10.782 11.0162C10.8079 11.0275 10.8311 11.0441 10.85 11.065L12.92 13.29C12.9708 13.3482 12.9987 13.4228 12.9987 13.5C12.9987 13.5772 12.9708 13.6518 12.92 13.71L10.85 15.935C10.8311 15.9559 10.8079 15.9726 10.782 15.9838C10.7562 15.995 10.7282 16.0005 10.7 16C10.6483 16.0013 10.5982 15.982 10.5607 15.9464C10.5232 15.9108 10.5013 15.8617 10.5 15.81V14.5H9.5V15H10V15.81C10.0021 15.95 10.0461 16.0861 10.1264 16.2009C10.2066 16.3156 10.3194 16.4037 10.4501 16.4537C10.5809 16.5038 10.7236 16.5135 10.86 16.4816C10.9963 16.4498 11.12 16.3778 11.215 16.275L13.285 14.05C13.4247 13.901 13.5025 13.7043 13.5025 13.5C13.5025 13.2957 13.4247 13.0991 13.285 12.95Z" fill="black"/>
<path id="Vector_19" opacity="0.07" d="M13.1 13.12L11.035 10.895C10.9738 10.829 10.8944 10.7828 10.8069 10.7621C10.7194 10.7415 10.6277 10.7473 10.5435 10.779C10.4593 10.8106 10.3864 10.8666 10.3341 10.9398C10.2819 11.013 10.2526 11.1001 10.25 11.19V12.25H9.5V12.5H10.5V11.19C10.5013 11.1383 10.5232 11.0892 10.5607 11.0536C10.5982 11.018 10.6483 10.9987 10.7 11C10.7282 10.9995 10.7562 11.005 10.782 11.0162C10.8079 11.0274 10.8311 11.0441 10.85 11.065L12.92 13.29C12.9708 13.3482 12.9987 13.4228 12.9987 13.5C12.9987 13.5772 12.9708 13.6518 12.92 13.71L10.85 15.935C10.8311 15.9559 10.8079 15.9725 10.782 15.9838C10.7562 15.995 10.7282 16.0005 10.7 16C10.6483 16.0013 10.5982 15.982 10.5607 15.9464C10.5232 15.9108 10.5013 15.8617 10.5 15.81V14.5H9.5V14.75H10.25V15.81C10.2526 15.8999 10.2819 15.987 10.3341 16.0602C10.3864 16.1334 10.4593 16.1894 10.5435 16.2211C10.6277 16.2527 10.7194 16.2586 10.8069 16.2379C10.8944 16.2172 10.9738 16.171 11.035 16.105L13.1 13.88C13.1964 13.7769 13.25 13.6411 13.25 13.5C13.25 13.3589 13.1964 13.2231 13.1 13.12Z" fill="black"/>
</g>
</g>
<defs>
<linearGradient id="paint0_linear_206_10432" x1="13.5987" y1="5.261" x2="23.1533" y2="19.3487" gradientUnits="userSpaceOnUse">
<stop stop-color="#7DD8F3"/>
<stop offset="1" stop-color="#45B0D0"/>
</linearGradient>
<linearGradient id="paint1_linear_206_10432" x1="13.4939" y1="7.85103" x2="13.6035" y2="9.29958" gradientUnits="userSpaceOnUse">
<stop stop-color="#FCFCFC"/>
<stop offset="0.95" stop-color="#C3C9CD"/>
</linearGradient>
<linearGradient id="paint2_linear_206_10432" x1="13.2723" y1="9.85103" x2="13.3955" y2="11.2974" gradientUnits="userSpaceOnUse">
<stop stop-color="#FCFCFC"/>
<stop offset="0.95" stop-color="#C3C9CD"/>
</linearGradient>
<linearGradient id="paint3_linear_206_10432" x1="13.4939" y1="11.851" x2="13.6035" y2="13.2996" gradientUnits="userSpaceOnUse">
<stop stop-color="#FCFCFC"/>
<stop offset="0.95" stop-color="#C3C9CD"/>
</linearGradient>
<linearGradient id="paint4_linear_206_10432" x1="13.4939" y1="15.851" x2="13.6035" y2="17.2996" gradientUnits="userSpaceOnUse">
<stop stop-color="#FCFCFC"/>
<stop offset="0.95" stop-color="#C3C9CD"/>
</linearGradient>
<linearGradient id="paint5_linear_206_10432" x1="13.2723" y1="13.851" x2="13.3955" y2="15.2974" gradientUnits="userSpaceOnUse">
<stop stop-color="#FCFCFC"/>
<stop offset="0.95" stop-color="#C3C9CD"/>
</linearGradient>
<linearGradient id="paint6_linear_206_10432" x1="13.2723" y1="17.851" x2="13.3955" y2="19.2974" gradientUnits="userSpaceOnUse">
<stop stop-color="#FCFCFC"/>
<stop offset="0.95" stop-color="#C3C9CD"/>
</linearGradient>
<linearGradient id="paint7_linear_206_10432" x1="10.766" y1="10.1465" x2="12.2575" y2="16.97" gradientUnits="userSpaceOnUse">
<stop stop-color="#057093"/>
<stop offset="1" stop-color="#057093"/>
</linearGradient>
<linearGradient id="paint8_linear_206_10432" x1="8.4275" y1="10.6575" x2="9.919" y2="17.481" gradientUnits="userSpaceOnUse">
<stop stop-color="#057093"/>
<stop offset="1" stop-color="#057093"/>
</linearGradient>
</defs>
</svg>
