<svg width="24" height="24" viewBox="0 0 24 24" fill="none" xmlns="http://www.w3.org/2000/svg">
<g id="bank">
<path id="Vector" d="M20.5 21H3.5C2.9485 21 2.5 20.5515 2.5 20V6.31996C2.5 5.93196 2.7275 5.57596 3.0795 5.41246L11.093 1.70746C11.6685 1.43996 12.33 1.43996 12.9065 1.70746L20.9195 5.41246C21.2725 5.57546 21.5 5.93146 21.5 6.31996V20C21.5 20.5515 21.0515 21 20.5 21Z" fill="url(#paint0_linear_206_10470)"/>
<path id="Vector_2" opacity="0.05" d="M10.862 9.3245C10.862 8.881 11.245 8.656 12 8.656C13.04 8.656 13.9 8.9865 14.3205 9.1835C14.581 9.306 15.5 9.477 15.5 8.4425V7.395C15.5 6.628 15.037 6.365 14.838 6.2875C14.3545 6.0995 13.75 5.981 13 5.9275V5.25C13 4.8365 12.6635 4.5 12.25 4.5H11.75C11.3365 4.5 11 4.8365 11 5.25V5.9865C9.392 6.2805 7.826 7.327 7.826 9.499C7.826 13.846 13.138 13.4715 13.138 14.4535C13.138 14.631 13.138 15.103 12 15.103C10.678 15.103 9.5175 14.562 9.1935 14.3965C8.938 14.265 8 14.17 8 15.131V16.3225C8 16.7505 8.256 17.1355 8.6525 17.304C9.323 17.589 10.188 17.816 11 17.9255V18.75C11 19.1635 11.3365 19.5 11.75 19.5H12.25C12.6635 19.5 13 19.1635 13 18.75V17.921C15.332 17.533 16.174 15.7905 16.174 14.3465C16.174 10.101 10.862 10.775 10.862 9.3245Z" fill="black"/>
<path id="Vector_3" opacity="0.07" d="M10.612 9.3245C10.612 8.548 11.4275 8.406 12 8.406C12.9885 8.406 13.8715 8.697 14.4265 8.9575C14.6655 9.0695 15.25 9.0795 15.25 8.4425V7.395C15.25 6.836 14.9525 6.6 14.7475 6.5205C14.269 6.3345 13.627 6.208 12.75 6.165V5.25C12.75 4.974 12.526 4.75 12.25 4.75H11.75C11.474 4.75 11.25 4.974 11.25 5.25V6.2035C9.667 6.4265 8.076 7.3895 8.076 9.4985C8.076 13.537 13.388 12.98 13.388 14.453C13.388 14.8505 13.191 15.3525 12 15.3525C10.714 15.3525 9.5595 14.864 9.08 14.6185C8.8455 14.498 8.25 14.53 8.25 15.1305V16.3225C8.25 16.651 8.447 16.945 8.7505 17.074C9.4625 17.3765 10.4 17.611 11.25 17.701V18.75C11.25 19.026 11.474 19.25 11.75 19.25H12.25C12.526 19.25 12.75 19.026 12.75 18.75V17.7C15.0815 17.4085 15.924 15.757 15.924 14.346C15.924 10.4245 10.612 11.1125 10.612 9.3245Z" fill="black"/>
<path id="Vector_4" d="M15.674 14.346C15.674 10.748 10.362 11.4505 10.362 9.3245C10.362 8.2145 11.6095 8.156 12 8.156C12.9375 8.156 13.8425 8.4075 14.5325 8.731C14.75 8.8335 15 8.6825 15 8.4425V7.395C15 7.044 14.868 6.8355 14.657 6.7535C14.184 6.5695 13.5045 6.4355 12.5 6.402V5.25C12.5 5.112 12.388 5 12.25 5H11.75C11.612 5 11.5 5.112 11.5 5.25V6.421C9.942 6.5735 8.326 7.4525 8.326 9.499C8.326 13.229 13.638 12.4895 13.638 14.4535C13.638 15.071 13.2435 15.603 12 15.603C10.75 15.603 9.6015 15.167 8.966 14.8415C8.752 14.732 8.5 14.8905 8.5 15.1305V16.3225C8.5 16.551 8.6375 16.7545 8.848 16.8435C9.601 17.1635 10.6115 17.4055 11.5 17.4765V18.75C11.5 18.888 11.612 19 11.75 19H12.25C12.388 19 12.5 18.888 12.5 18.75V17.4795C14.8315 17.2845 15.674 15.724 15.674 14.346Z" fill="white"/>
</g>
<defs>
<linearGradient id="paint0_linear_206_10470" x1="9.383" y1="0.947961" x2="13.7805" y2="21.469" gradientUnits="userSpaceOnUse">
<stop stop-color="#21AD64"/>
<stop offset="1" stop-color="#088242"/>
</linearGradient>
</defs>
</svg>
