<svg width="24" height="24" viewBox="0 0 24 24" fill="none" xmlns="http://www.w3.org/2000/svg">
<g id="body-cells">
<path id="Vector" d="M10.0525 2.4845H6.0955C5.6955 2.4845 5.3255 2.697 5.1235 3.0425L3.155 6.4175C2.9505 6.768 2.9505 7.201 3.155 7.551L5.1235 10.926C5.325 11.2715 5.695 11.484 6.0955 11.484H10.0525C10.4525 11.484 10.8225 11.2715 11.0245 10.926L12.993 7.551C13.1975 7.2005 13.1975 6.7675 12.993 6.4175L11.0245 3.0425C10.823 2.697 10.453 2.4845 10.0525 2.4845Z" fill="url(#paint0_linear_206_10568)"/>
<path id="Vector_2" d="M18.7325 7.5H15.014C14.6065 7.5 14.231 7.72 14.0325 8.0755L12.1435 11.4505C11.9525 11.792 11.9525 12.208 12.1435 12.5495L14.0325 15.9245C14.2315 16.28 14.607 16.5 15.014 16.5H18.7325C19.14 16.5 19.5155 16.28 19.714 15.9245L21.603 12.5495C21.794 12.208 21.794 11.792 21.603 11.4505L19.714 8.0755C19.5155 7.72 19.14 7.5 18.7325 7.5Z" fill="url(#paint1_linear_206_10568)"/>
<path id="Vector_3" d="M10.088 12.5H6.114C5.7145 12.5 5.3445 12.712 5.143 13.057L3.1685 16.432C2.963 16.783 2.963 17.217 3.1685 17.568L5.143 20.943C5.345 21.288 5.7145 21.5 6.114 21.5H10.088C10.4875 21.5 10.8575 21.288 11.059 20.943L13.0335 17.568C13.239 17.217 13.239 16.783 13.0335 16.432L11.059 13.057C10.8575 12.712 10.488 12.5 10.088 12.5Z" fill="url(#paint2_linear_206_10568)"/>
<path id="Vector_4" d="M9.511 8.67201C10.2878 8.67201 10.9175 8.0423 10.9175 7.26551C10.9175 6.48872 10.2878 5.85901 9.511 5.85901C8.73421 5.85901 8.1045 6.48872 8.1045 7.26551C8.1045 8.0423 8.73421 8.67201 9.511 8.67201Z" fill="url(#paint3_linear_206_10568)"/>
<path id="Vector_5" opacity="0.05" d="M9.511 5.8595C10.2875 5.8595 10.9175 6.489 10.9175 7.266C10.9175 8.043 10.288 8.6725 9.511 8.6725C8.734 8.6725 8.1045 8.043 8.1045 7.266C8.1045 6.489 8.7345 5.8595 9.511 5.8595ZM9.511 5.297C8.4255 5.297 7.542 6.18 7.542 7.266C7.542 8.352 8.425 9.235 9.511 9.235C10.597 9.235 11.48 8.352 11.48 7.266C11.48 6.18 10.597 5.297 9.511 5.297Z" fill="black"/>
<path id="Vector_6" opacity="0.07" d="M9.511 5.8595C10.2875 5.8595 10.9175 6.489 10.9175 7.266C10.9175 8.043 10.288 8.6725 9.511 8.6725C8.734 8.6725 8.1045 8.043 8.1045 7.266C8.1045 6.489 8.7345 5.8595 9.511 5.8595ZM9.511 5.578C8.5805 5.578 7.8235 6.335 7.8235 7.2655C7.8235 8.196 8.5805 8.953 9.511 8.953C10.4415 8.953 11.1985 8.196 11.1985 7.2655C11.1985 6.335 10.4415 5.578 9.511 5.578Z" fill="black"/>
<path id="Vector_7" d="M15.775 12.564C16.5518 12.564 17.1815 11.9343 17.1815 11.1575C17.1815 10.3807 16.5518 9.75098 15.775 9.75098C14.9982 9.75098 14.3685 10.3807 14.3685 11.1575C14.3685 11.9343 14.9982 12.564 15.775 12.564Z" fill="url(#paint4_linear_206_10568)"/>
<path id="Vector_8" opacity="0.05" d="M15.775 9.75098C16.5515 9.75098 17.1815 10.3805 17.1815 11.1575C17.1815 11.9345 16.552 12.564 15.775 12.564C14.998 12.564 14.3685 11.9345 14.3685 11.1575C14.3685 10.3805 14.9985 9.75098 15.775 9.75098ZM15.775 9.18848C14.6895 9.18848 13.806 10.0715 13.806 11.1575C13.806 12.2435 14.689 13.1265 15.775 13.1265C16.861 13.1265 17.744 12.2435 17.744 11.1575C17.744 10.0715 16.8605 9.18848 15.775 9.18848Z" fill="black"/>
<path id="Vector_9" opacity="0.07" d="M15.775 9.75097C16.5515 9.75097 17.1815 10.3805 17.1815 11.1575C17.1815 11.9345 16.552 12.564 15.775 12.564C14.998 12.564 14.3685 11.9345 14.3685 11.1575C14.3685 10.3805 14.9985 9.75097 15.775 9.75097ZM15.775 9.46997C14.8445 9.46997 14.0875 10.227 14.0875 11.1575C14.0875 12.088 14.8445 12.845 15.775 12.845C16.7055 12.845 17.4625 12.088 17.4625 11.1575C17.4625 10.227 16.7055 9.46997 15.775 9.46997Z" fill="black"/>
<path id="Vector_10" d="M5.2925 8.1095C5.91382 8.1095 6.4175 7.60582 6.4175 6.9845C6.4175 6.36318 5.91382 5.8595 5.2925 5.8595C4.67118 5.8595 4.1675 6.36318 4.1675 6.9845C4.1675 7.60582 4.67118 8.1095 5.2925 8.1095Z" fill="#F8C23B"/>
<path id="Vector_11" d="M6.98 10.3595C7.29066 10.3595 7.5425 10.1077 7.5425 9.797C7.5425 9.48634 7.29066 9.2345 6.98 9.2345C6.66934 9.2345 6.4175 9.48634 6.4175 9.797C6.4175 10.1077 6.66934 10.3595 6.98 10.3595Z" fill="#F8C23B"/>
<path id="Vector_12" d="M8.105 4.7345C8.41566 4.7345 8.6675 4.48266 8.6675 4.172C8.6675 3.86134 8.41566 3.6095 8.105 3.6095C7.79434 3.6095 7.5425 3.86134 7.5425 4.172C7.5425 4.48266 7.79434 4.7345 8.105 4.7345Z" fill="#F8C23B"/>
<path id="Vector_13" d="M19.15 13.689C19.6161 13.689 19.994 13.3111 19.994 12.845C19.994 12.3788 19.6161 12.001 19.15 12.001C18.6839 12.001 18.306 12.3788 18.306 12.845C18.306 13.3111 18.6839 13.689 19.15 13.689Z" fill="#F8C23B"/>
<path id="Vector_14" d="M18.869 10.3135C19.1797 10.3135 19.4315 10.0616 19.4315 9.75098C19.4315 9.44032 19.1797 9.18848 18.869 9.18848C18.5583 9.18848 18.3065 9.44032 18.3065 9.75098C18.3065 10.0616 18.5583 10.3135 18.869 10.3135Z" fill="#F8C23B"/>
<path id="Vector_15" d="M16.3375 15.3765C16.8036 15.3765 17.1815 14.9986 17.1815 14.5325C17.1815 14.0663 16.8036 13.6885 16.3375 13.6885C15.8714 13.6885 15.4935 14.0663 15.4935 14.5325C15.4935 14.9986 15.8714 15.3765 16.3375 15.3765Z" fill="#F8C23B"/>
<g id="Group">
<path id="Vector_16" d="M8.399 17.0005C9.17579 17.0005 9.8055 16.3708 9.8055 15.594C9.8055 14.8172 9.17579 14.1875 8.399 14.1875C7.62221 14.1875 6.9925 14.8172 6.9925 15.594C6.9925 16.3708 7.62221 17.0005 8.399 17.0005Z" fill="url(#paint5_linear_206_10568)"/>
<path id="Vector_17" opacity="0.05" d="M8.4 14.1875C8.689 14.1875 8.9805 14.276 9.2315 14.4605C9.8575 14.92 9.992 15.8005 9.5325 16.4265C9.257 16.8015 8.83 17 8.398 17C8.109 17 7.8175 16.9115 7.5665 16.727C6.9405 16.2675 6.806 15.387 7.2655 14.761C7.541 14.3865 7.968 14.1875 8.4 14.1875ZM8.4005 13.625C7.7755 13.625 7.182 13.9255 6.8125 14.4285C6.17 15.3035 6.359 16.538 7.234 17.1805C7.5745 17.4305 7.977 17.5625 8.398 17.5625C9.023 17.5625 9.6165 17.262 9.986 16.759C10.6285 15.884 10.4395 14.6495 9.5645 14.007C9.224 13.757 8.8215 13.625 8.4005 13.625Z" fill="black"/>
<path id="Vector_18" opacity="0.07" d="M8.4 14.1875C8.689 14.1875 8.9805 14.276 9.2315 14.4605C9.8575 14.92 9.992 15.8005 9.5325 16.4265C9.257 16.8015 8.83 17 8.398 17C8.109 17 7.8175 16.9115 7.5665 16.727C6.9405 16.2675 6.806 15.387 7.2655 14.761C7.541 14.3865 7.968 14.1875 8.4 14.1875ZM8.4005 13.9065C7.865 13.9065 7.356 14.164 7.039 14.595C6.488 15.345 6.65 16.403 7.4 16.954C7.6915 17.168 8.0365 17.2815 8.398 17.2815C8.9335 17.2815 9.4425 17.024 9.759 16.593C10.31 15.843 10.148 14.785 9.398 14.234C9.106 14.0195 8.761 13.9065 8.4005 13.9065Z" fill="black"/>
</g>
<path id="Vector_19" d="M6.9925 20.375C7.61382 20.375 8.1175 19.8713 8.1175 19.25C8.1175 18.6287 7.61382 18.125 6.9925 18.125C6.37118 18.125 5.8675 18.6287 5.8675 19.25C5.8675 19.8713 6.37118 20.375 6.9925 20.375Z" fill="#F8C23B"/>
<path id="Vector_20" d="M10.368 19.25C10.6787 19.25 10.9305 18.9982 10.9305 18.6875C10.9305 18.3768 10.6787 18.125 10.368 18.125C10.0573 18.125 9.8055 18.3768 9.8055 18.6875C9.8055 18.9982 10.0573 19.25 10.368 19.25Z" fill="#F8C23B"/>
<path id="Vector_21" d="M5.305 17C5.61566 17 5.8675 16.7482 5.8675 16.4375C5.8675 16.1268 5.61566 15.875 5.305 15.875C4.99434 15.875 4.7425 16.1268 4.7425 16.4375C4.7425 16.7482 4.99434 17 5.305 17Z" fill="#F8C23B"/>
</g>
<defs>
<linearGradient id="paint0_linear_206_10568" x1="3.0025" y1="6.9845" x2="13.146" y2="6.9845" gradientUnits="userSpaceOnUse">
<stop stop-color="#FA67A6"/>
<stop offset="0.245" stop-color="#FA6CA8"/>
<stop offset="0.541" stop-color="#FA7BAE"/>
<stop offset="0.861" stop-color="#FA93B8"/>
<stop offset="1" stop-color="#FAA0BD"/>
</linearGradient>
<linearGradient id="paint1_linear_206_10568" x1="12.0006" y1="11.9995" x2="21.7466" y2="11.9995" gradientUnits="userSpaceOnUse">
<stop stop-color="#FAA0BD"/>
<stop offset="0.139" stop-color="#FA93B8"/>
<stop offset="0.459" stop-color="#FA7BAE"/>
<stop offset="0.755" stop-color="#FA6CA8"/>
<stop offset="1" stop-color="#FA67A6"/>
</linearGradient>
<linearGradient id="paint2_linear_206_10568" x1="4.62409" y1="20.4765" x2="11.5771" y2="13.5235" gradientUnits="userSpaceOnUse">
<stop stop-color="#FA67A6"/>
<stop offset="0.245" stop-color="#FA6CA8"/>
<stop offset="0.541" stop-color="#FA7BAE"/>
<stop offset="0.861" stop-color="#FA93B8"/>
<stop offset="1" stop-color="#FAA0BD"/>
</linearGradient>
<linearGradient id="paint3_linear_206_10568" x1="8.105" y1="7.26551" x2="10.9175" y2="7.26551" gradientUnits="userSpaceOnUse">
<stop stop-color="#424EBD"/>
<stop offset="1" stop-color="#6673CF"/>
</linearGradient>
<linearGradient id="paint4_linear_206_10568" x1="14.369" y1="11.1575" x2="17.1815" y2="11.1575" gradientUnits="userSpaceOnUse">
<stop stop-color="#424EBD"/>
<stop offset="1" stop-color="#6673CF"/>
</linearGradient>
<linearGradient id="paint5_linear_206_10568" x1="6.9925" y1="15.594" x2="9.8055" y2="15.594" gradientUnits="userSpaceOnUse">
<stop stop-color="#424EBD"/>
<stop offset="1" stop-color="#6673CF"/>
</linearGradient>
</defs>
</svg>
