<svg width="24" height="24" viewBox="0 0 24 24" fill="none" xmlns="http://www.w3.org/2000/svg">
<g id="brochure">
<path id="Vector" d="M1.5 5V19C1.5 19.5525 1.9475 20 2.5 20H21.5C22.0525 20 22.5 19.5525 22.5 19V5C22.5 4.4475 22.0525 4 21.5 4H2.5C1.9475 4 1.5 4.4475 1.5 5Z" fill="url(#paint0_linear_206_10624)"/>
<path id="Vector_2" d="M14 10H15V11H14V10ZM14 12H15V13H14V12ZM14 14H15V15H14V14ZM14 16H15V17H14V16ZM14 18H15V19H14V18Z" fill="#1976D2"/>
<path id="Vector_3" d="M17 12H20C20.276 12 20.5 12.224 20.5 12.5C20.5 12.776 20.276 13 20 13H17C16.724 13 16.5 12.776 16.5 12.5C16.5 12.224 16.724 12 17 12ZM17 14H20C20.276 14 20.5 14.224 20.5 14.5C20.5 14.776 20.276 15 20 15H17C16.724 15 16.5 14.776 16.5 14.5C16.5 14.224 16.724 14 17 14ZM15 6H20C20.276 6 20.5 6.224 20.5 6.5C20.5 6.776 20.276 7 20 7H15C14.724 7 14.5 6.776 14.5 6.5C14.5 6.224 14.724 6 15 6ZM15 8H20C20.276 8 20.5 8.224 20.5 8.5C20.5 8.776 20.276 9 20 9H15C14.724 9 14.5 8.776 14.5 8.5C14.5 8.224 14.724 8 15 8ZM17 16H20C20.276 16 20.5 16.224 20.5 16.5C20.5 16.776 20.276 17 20 17H17C16.724 17 16.5 16.776 16.5 16.5C16.5 16.224 16.724 16 17 16ZM6 12H10C10.276 12 10.5 12.224 10.5 12.5C10.5 12.776 10.276 13 10 13H6C5.724 13 5.5 12.776 5.5 12.5C5.5 12.224 5.724 12 6 12ZM6 14H10C10.276 14 10.5 14.224 10.5 14.5C10.5 14.776 10.276 15 10 15H6C5.724 15 5.5 14.776 5.5 14.5C5.5 14.224 5.724 14 6 14ZM4 6H10C10.276 6 10.5 6.224 10.5 6.5C10.5 6.776 10.276 7 10 7H4C3.724 7 3.5 6.776 3.5 6.5C3.5 6.224 3.724 6 4 6ZM4 8H10C10.276 8 10.5 8.224 10.5 8.5C10.5 8.776 10.276 9 10 9H4C3.724 9 3.5 8.776 3.5 8.5C3.5 8.224 3.724 8 4 8ZM4 12C4.276 12 4.5 12.224 4.5 12.5C4.5 12.776 4.276 13 4 13C3.724 13 3.5 12.776 3.5 12.5C3.5 12.224 3.724 12 4 12ZM4 14C4.276 14 4.5 14.224 4.5 14.5C4.5 14.776 4.276 15 4 15C3.724 15 3.5 14.776 3.5 14.5C3.5 14.224 3.724 14 4 14Z" fill="url(#paint1_linear_206_10624)"/>
<path id="Vector_4" d="M7 3H17C17.5525 3 18 3.4475 18 4V20C18 20.5525 17.5525 21 17 21H7C6.4475 21 6 20.5525 6 20V4C6 3.4475 6.4475 3 7 3Z" fill="url(#paint2_linear_206_10624)"/>
<path id="Vector_5" d="M11 11.5H15C15.276 11.5 15.5 11.724 15.5 12C15.5 12.276 15.276 12.5 15 12.5H11C10.724 12.5 10.5 12.276 10.5 12C10.5 11.724 10.724 11.5 11 11.5ZM9 5.5H15C15.276 5.5 15.5 5.724 15.5 6C15.5 6.276 15.276 6.5 15 6.5H9C8.724 6.5 8.5 6.276 8.5 6C8.5 5.724 8.724 5.5 9 5.5ZM9 7.5H15C15.276 7.5 15.5 7.724 15.5 8C15.5 8.276 15.276 8.5 15 8.5H9C8.724 8.5 8.5 8.276 8.5 8C8.5 7.724 8.724 7.5 9 7.5ZM11 13.5H15C15.276 13.5 15.5 13.724 15.5 14C15.5 14.276 15.276 14.5 15 14.5H11C10.724 14.5 10.5 14.276 10.5 14C10.5 13.724 10.724 13.5 11 13.5ZM11 15.5H15C15.276 15.5 15.5 15.724 15.5 16C15.5 16.276 15.276 16.5 15 16.5H11C10.724 16.5 10.5 16.276 10.5 16C10.5 15.724 10.724 15.5 11 15.5ZM11 17.5H15C15.276 17.5 15.5 17.724 15.5 18C15.5 18.276 15.276 18.5 15 18.5H11C10.724 18.5 10.5 18.276 10.5 18C10.5 17.724 10.724 17.5 11 17.5ZM9 11.5C9.276 11.5 9.5 11.724 9.5 12C9.5 12.276 9.276 12.5 9 12.5C8.724 12.5 8.5 12.276 8.5 12C8.5 11.724 8.724 11.5 9 11.5ZM9 13.5C9.276 13.5 9.5 13.724 9.5 14C9.5 14.276 9.276 14.5 9 14.5C8.724 14.5 8.5 14.276 8.5 14C8.5 13.724 8.724 13.5 9 13.5ZM9 15.5C9.276 15.5 9.5 15.724 9.5 16C9.5 16.276 9.276 16.5 9 16.5C8.724 16.5 8.5 16.276 8.5 16C8.5 15.724 8.724 15.5 9 15.5ZM9 17.5C9.276 17.5 9.5 17.724 9.5 18C9.5 18.276 9.276 18.5 9 18.5C8.724 18.5 8.5 18.276 8.5 18C8.5 17.724 8.724 17.5 9 17.5Z" fill="url(#paint3_linear_206_10624)"/>
</g>
<defs>
<linearGradient id="paint0_linear_206_10624" x1="9.17235" y1="4.69745" x2="11.5708" y2="22.0083" gradientUnits="userSpaceOnUse">
<stop stop-color="#32BDEF"/>
<stop offset="1" stop-color="#1EA2E4"/>
</linearGradient>
<linearGradient id="paint1_linear_206_10624" x1="7.26621" y1="4.3613" x2="13.1808" y2="17.7796" gradientUnits="userSpaceOnUse">
<stop stop-color="#FCFCFC"/>
<stop offset="0.95" stop-color="#C3C9CD"/>
</linearGradient>
<linearGradient id="paint2_linear_206_10624" x1="9.78343" y1="3.27635" x2="20.338" y2="16.8429" gradientUnits="userSpaceOnUse">
<stop stop-color="#7DD8F3"/>
<stop offset="1" stop-color="#45B0D0"/>
</linearGradient>
<linearGradient id="paint3_linear_206_10624" x1="10.0508" y1="3.56335" x2="19.2644" y2="10.8462" gradientUnits="userSpaceOnUse">
<stop stop-color="#FCFCFC"/>
<stop offset="0.95" stop-color="#C3C9CD"/>
</linearGradient>
</defs>
</svg>
