<svg width="24" height="24" viewBox="0 0 24 24" fill="none" xmlns="http://www.w3.org/2000/svg">
<g id="card-payment">
<path id="Vector" d="M0 9L4.452 5.4385C4.807 5.1545 5.2475 5 5.7015 5H14.309V14.5725L10.0565 17.842C8.6585 18.917 6.944 19.5 5.1805 19.5H0V9Z" fill="url(#paint0_linear_206_10713)"/>
<path id="Vector_2" d="M23 14.5H9C8.4475 14.5 8 14.0525 8 13.5V4.5C8 3.9475 8.4475 3.5 9 3.5H23C23.5525 3.5 24 3.9475 24 4.5V13.5C24 14.0525 23.5525 14.5 23 14.5Z" fill="url(#paint1_linear_206_10713)"/>
<path id="Vector_3" d="M4.5 14L14.2315 9.65295L16.276 13.0665L13.546 15.157L7.5 15.5L4.5 14Z" fill="url(#paint2_linear_206_10713)"/>
<path id="Vector_4" d="M24 5H8V7H24V5Z" fill="url(#paint3_linear_206_10713)"/>
<path id="Vector_5" d="M15 13.5C16.1046 13.5 17 12.6046 17 11.5C17 10.3954 16.1046 9.5 15 9.5C13.8954 9.5 13 10.3954 13 11.5C13 12.6046 13.8954 13.5 15 13.5Z" fill="url(#paint4_linear_206_10713)"/>
<path id="Vector_6" d="M15 12.75C15.6904 12.75 16.25 12.1904 16.25 11.5C16.25 10.8096 15.6904 10.25 15 10.25C14.3096 10.25 13.75 10.8096 13.75 11.5C13.75 12.1904 14.3096 12.75 15 12.75Z" fill="#FFDE87"/>
<path id="Vector_7" d="M6 13L8 12.5V5H6V13Z" fill="url(#paint5_linear_206_10713)"/>
</g>
<defs>
<linearGradient id="paint0_linear_206_10713" x1="3.8005" y1="5.304" x2="10.8735" y2="19.9505" gradientUnits="userSpaceOnUse">
<stop stop-color="#FFCF54"/>
<stop offset="0.261" stop-color="#FDCB4D"/>
<stop offset="0.639" stop-color="#F7C13A"/>
<stop offset="1" stop-color="#F0B421"/>
</linearGradient>
<linearGradient id="paint1_linear_206_10713" x1="14.672" y1="4.259" x2="17.7395" y2="15.209" gradientUnits="userSpaceOnUse">
<stop stop-color="#32BDEF"/>
<stop offset="1" stop-color="#1EA2E4"/>
</linearGradient>
<linearGradient id="paint2_linear_206_10713" x1="4.277" y1="0.878954" x2="13.6995" y2="20.39" gradientUnits="userSpaceOnUse">
<stop stop-color="#FFCF54"/>
<stop offset="0.261" stop-color="#FDCB4D"/>
<stop offset="0.639" stop-color="#F7C13A"/>
<stop offset="1" stop-color="#F0B421"/>
</linearGradient>
<linearGradient id="paint3_linear_206_10713" x1="8" y1="6" x2="24" y2="6" gradientUnits="userSpaceOnUse">
<stop stop-color="#323538"/>
<stop offset="1" stop-color="#6D7479"/>
</linearGradient>
<linearGradient id="paint4_linear_206_10713" x1="9.9645" y1="1.073" x2="17.541" y2="16.762" gradientUnits="userSpaceOnUse">
<stop stop-color="#FFCF54"/>
<stop offset="0.261" stop-color="#FDCB4D"/>
<stop offset="0.639" stop-color="#F7C13A"/>
<stop offset="1" stop-color="#F0B421"/>
</linearGradient>
<linearGradient id="paint5_linear_206_10713" x1="6.387" y1="8.932" x2="8.02" y2="8.645" gradientUnits="userSpaceOnUse">
<stop stop-color="#F0B421" stop-opacity="0"/>
<stop offset="0.512" stop-color="#E9AB12" stop-opacity="0.512"/>
<stop offset="1" stop-color="#E09F00"/>
</linearGradient>
</defs>
</svg>
