<svg width="24" height="24" viewBox="0 0 24 24" fill="none" xmlns="http://www.w3.org/2000/svg">
<g id="chart">
<path id="Vector" d="M12 2C6.477 2 2 6.477 2 12C2 17.523 6.477 22 12 22C14.688 22 17.123 20.934 18.92 19.2085L12 12V2Z" fill="url(#paint0_linear_206_5462)"/>
<path id="Vector_2" d="M22 12C22 6.477 17.523 2 12 2V12H22Z" fill="#0078D4"/>
<path id="Vector_3" d="M22 12H12L18.92 19.2085C20.815 17.3885 22 14.835 22 12Z" fill="url(#paint1_linear_206_5462)"/>
<path id="Vector_4" d="M16.827 1.761L13 11L22.308 7.3655C21.352 4.918 19.446 2.846 16.827 1.761Z" fill="url(#paint2_linear_206_5462)"/>
</g>
<defs>
<linearGradient id="paint0_linear_206_5462" x1="7.33463" y1="2.30706" x2="18.1168" y2="19.8944" gradientUnits="userSpaceOnUse">
<stop stop-color="#7DD8F3"/>
<stop offset="1" stop-color="#45B0D0"/>
</linearGradient>
<linearGradient id="paint1_linear_206_5462" x1="14.2154" y1="10.9261" x2="18.3704" y2="19.3875" gradientUnits="userSpaceOnUse">
<stop stop-color="#FCFCFC"/>
<stop offset="0.95" stop-color="#C3C9CD"/>
</linearGradient>
<linearGradient id="paint2_linear_206_5462" x1="13" y1="6.3805" x2="22.308" y2="6.3805" gradientUnits="userSpaceOnUse">
<stop stop-color="#FFD869"/>
<stop offset="0.765625" stop-color="#F2C032"/>
<stop offset="1" stop-color="#FFD869"/>
</linearGradient>
</defs>
</svg>
