<svg width="24" height="24" viewBox="0 0 24 24" fill="none" xmlns="http://www.w3.org/2000/svg">
<g id="chef-hat">
<path id="Vector" d="M21 8.25C21 5.9 19.1 4 16.75 4C16.2 4 15.7 4.1 15.2 4.3C14.45 3.2 13.2 2.5 11.75 2.5C10.4 2.5 9.15 3.15 8.4 4.15C8 4.05 7.65 4 7.25 4C4.9 4 3 5.9 3 8.25C3 10.15 4.25 11.8 6 12.3V21.5H18V12.3C19.75 11.8 21 10.15 21 8.25Z" fill="url(#paint0_linear_206_5541)"/>
<path id="Vector_2" d="M9 19.5C8.7 19.5 8.5 19.25 8.5 19V14.5C8.5 14.25 8.7 14 9 14C9.25 14 9.5 14.2 9.5 14.5V19C9.5 19.25 9.3 19.5 9 19.5ZM12.5 19V14.5C12.5 14.25 12.3 14 12 14C11.75 14 11.5 14.2 11.5 14.5V19C11.5 19.25 11.7 19.5 12 19.5C12.3 19.5 12.5 19.25 12.5 19ZM15.5 19V14.5C15.5 14.25 15.3 14 15 14C14.75 14 14.5 14.2 14.5 14.5V19C14.5 19.25 14.7 19.5 15 19.5C15.3 19.5 15.5 19.25 15.5 19Z" fill="url(#paint1_linear_206_5541)"/>
<path id="Vector_3" d="M6 18.5H18V21.5H6V18.5Z" fill="url(#paint2_linear_206_5541)"/>
<path id="Vector_4" opacity="0.05" d="M18 18H6V18.5H18V18Z" fill="#231F20"/>
<path id="Vector_5" opacity="0.07" d="M18 18.25H6V18.5H18V18.25Z" fill="#231F20"/>
</g>
<defs>
<linearGradient id="paint0_linear_206_5541" x1="12" y1="2.5" x2="12" y2="21.734" gradientUnits="userSpaceOnUse">
<stop stop-color="#A8E2F7"/>
<stop offset="1" stop-color="#47C1FF"/>
</linearGradient>
<linearGradient id="paint1_linear_206_5541" x1="12" y1="14" x2="12" y2="19.5" gradientUnits="userSpaceOnUse">
<stop offset="0.002" stop-color="#427FDB"/>
<stop offset="0.397" stop-color="#2668CB"/>
<stop offset="0.763" stop-color="#1358BF"/>
<stop offset="1" stop-color="#0C52BB"/>
</linearGradient>
<linearGradient id="paint2_linear_206_5541" x1="12" y1="16.409" x2="12" y2="21.688" gradientUnits="userSpaceOnUse">
<stop stop-color="#32BDEF"/>
<stop offset="1" stop-color="#1EA2E4"/>
</linearGradient>
</defs>
</svg>
