<svg width="24" height="24" viewBox="0 0 24 24" fill="none" xmlns="http://www.w3.org/2000/svg">
<g id="circled-menu">
<path id="Vector" d="M5.5 8C4.125 8 3 6.875 3 5.5C3 4.125 4.125 3 5.5 3C6.875 3 8 4.125 8 5.5C8 6.875 6.875 8 5.5 8Z" fill="url(#paint0_linear_206_5560)"/>
<path id="Vector_2" d="M12 8C10.625 8 9.5 6.875 9.5 5.5C9.5 4.125 10.625 3 12 3C13.375 3 14.5 4.125 14.5 5.5C14.5 6.875 13.375 8 12 8Z" fill="url(#paint1_linear_206_5560)"/>
<path id="Vector_3" d="M18.5 8C17.125 8 16 6.875 16 5.5C16 4.125 17.125 3 18.5 3C19.875 3 21 4.125 21 5.5C21 6.875 19.875 8 18.5 8Z" fill="url(#paint2_linear_206_5560)"/>
<path id="Vector_4" d="M5.5 14.5C4.125 14.5 3 13.375 3 12C3 10.625 4.125 9.5 5.5 9.5C6.875 9.5 8 10.625 8 12C8 13.375 6.875 14.5 5.5 14.5Z" fill="url(#paint3_linear_206_5560)"/>
<path id="Vector_5" d="M12 14.5C10.625 14.5 9.5 13.375 9.5 12C9.5 10.625 10.625 9.5 12 9.5C13.375 9.5 14.5 10.625 14.5 12C14.5 13.375 13.375 14.5 12 14.5Z" fill="url(#paint4_linear_206_5560)"/>
<path id="Vector_6" d="M18.5 14.5C17.125 14.5 16 13.375 16 12C16 10.625 17.125 9.5 18.5 9.5C19.875 9.5 21 10.625 21 12C21 13.375 19.875 14.5 18.5 14.5Z" fill="url(#paint5_linear_206_5560)"/>
<path id="Vector_7" d="M5.5 21C4.125 21 3 19.875 3 18.5C3 17.125 4.125 16 5.5 16C6.875 16 8 17.125 8 18.5C8 19.875 6.875 21 5.5 21Z" fill="url(#paint6_linear_206_5560)"/>
<path id="Vector_8" d="M12 21C10.625 21 9.5 19.875 9.5 18.5C9.5 17.125 10.625 16 12 16C13.375 16 14.5 17.125 14.5 18.5C14.5 19.875 13.375 21 12 21Z" fill="url(#paint7_linear_206_5560)"/>
<path id="Vector_9" d="M18.5 21C17.125 21 16 19.875 16 18.5C16 17.125 17.125 16 18.5 16C19.875 16 21 17.125 21 18.5C21 19.875 19.875 21 18.5 21Z" fill="url(#paint8_linear_206_5560)"/>
</g>
<defs>
<linearGradient id="paint0_linear_206_5560" x1="5.5" y1="2.8615" x2="5.5" y2="7.744" gradientUnits="userSpaceOnUse">
<stop stop-color="#32BDEF"/>
<stop offset="1" stop-color="#1EA2E4"/>
</linearGradient>
<linearGradient id="paint1_linear_206_5560" x1="12" y1="2.8615" x2="12" y2="7.744" gradientUnits="userSpaceOnUse">
<stop stop-color="#32BDEF"/>
<stop offset="1" stop-color="#1EA2E4"/>
</linearGradient>
<linearGradient id="paint2_linear_206_5560" x1="18.5" y1="2.8615" x2="18.5" y2="7.744" gradientUnits="userSpaceOnUse">
<stop stop-color="#32BDEF"/>
<stop offset="1" stop-color="#1EA2E4"/>
</linearGradient>
<linearGradient id="paint3_linear_206_5560" x1="5.5" y1="9.3725" x2="5.5" y2="14.054" gradientUnits="userSpaceOnUse">
<stop stop-color="#32BDEF"/>
<stop offset="1" stop-color="#1EA2E4"/>
</linearGradient>
<linearGradient id="paint4_linear_206_5560" x1="12" y1="9.3725" x2="12" y2="14.054" gradientUnits="userSpaceOnUse">
<stop stop-color="#32BDEF"/>
<stop offset="1" stop-color="#1EA2E4"/>
</linearGradient>
<linearGradient id="paint5_linear_206_5560" x1="18.5" y1="9.3725" x2="18.5" y2="14.054" gradientUnits="userSpaceOnUse">
<stop stop-color="#32BDEF"/>
<stop offset="1" stop-color="#1EA2E4"/>
</linearGradient>
<linearGradient id="paint6_linear_206_5560" x1="5.5" y1="16.181" x2="5.5" y2="20.6925" gradientUnits="userSpaceOnUse">
<stop stop-color="#32BDEF"/>
<stop offset="1" stop-color="#1EA2E4"/>
</linearGradient>
<linearGradient id="paint7_linear_206_5560" x1="12" y1="16.181" x2="12" y2="20.6925" gradientUnits="userSpaceOnUse">
<stop stop-color="#32BDEF"/>
<stop offset="1" stop-color="#1EA2E4"/>
</linearGradient>
<linearGradient id="paint8_linear_206_5560" x1="18.5" y1="16.181" x2="18.5" y2="20.6925" gradientUnits="userSpaceOnUse">
<stop stop-color="#32BDEF"/>
<stop offset="1" stop-color="#1EA2E4"/>
</linearGradient>
</defs>
</svg>
