<svg width="24" height="24" viewBox="0 0 24 24" fill="none" xmlns="http://www.w3.org/2000/svg">
<g id="close">
<path id="Vector" d="M21.21 6.2005C21.597 5.8135 21.597 5.1865 21.21 4.7995L19.2005 2.79C18.8135 2.403 18.1865 2.403 17.7995 2.79L12 8.5895L6.20051 2.79C5.81351 2.403 5.18651 2.403 4.79951 2.79L2.79001 4.7995C2.40301 5.1865 2.40301 5.8135 2.79001 6.2005L8.58951 12L2.79001 17.7995C2.40301 18.1865 2.40301 18.8135 2.79001 19.2005L4.79951 21.21C5.18651 21.597 5.81351 21.597 6.20051 21.21L21.21 6.2005Z" fill="url(#paint0_linear_206_5594)"/>
<path id="Vector_2" d="M12 15.4105L17.7995 21.21C18.1865 21.597 18.8135 21.597 19.2005 21.21L21.21 19.2005C21.597 18.8135 21.597 18.1865 21.21 17.7995L15.4105 12L12 15.4105Z" fill="url(#paint1_linear_206_5594)"/>
</g>
<defs>
<linearGradient id="paint0_linear_206_5594" x1="3.76701" y1="3.767" x2="13.7785" y2="13.7785" gradientUnits="userSpaceOnUse">
<stop stop-color="#F44F5A"/>
<stop offset="0.443" stop-color="#EE3D4A"/>
<stop offset="1" stop-color="#E52030"/>
</linearGradient>
<linearGradient id="paint1_linear_206_5594" x1="13.6865" y1="13.6865" x2="20.2535" y2="20.2535" gradientUnits="userSpaceOnUse">
<stop stop-color="#A8142E"/>
<stop offset="0.179" stop-color="#BA1632"/>
<stop offset="0.243" stop-color="#C21734"/>
</linearGradient>
</defs>
</svg>
