<svg width="24" height="24" viewBox="0 0 24 24" fill="none" xmlns="http://www.w3.org/2000/svg">
<g id="code-file">
<path id="Vector" d="M19.5 8V20.5C19.5 21.0525 19.0525 21.5 18.5 21.5H5.5C4.9475 21.5 4.5 21.0525 4.5 20.5V3.5C4.5 2.9475 4.9475 2.5 5.5 2.5H14L19.5 8Z" fill="url(#paint0_linear_206_5658)"/>
<path id="Vector_2" d="M14 2.5V7C14 7.5525 14.4475 8 15 8H19.5L14 2.5Z" fill="url(#paint1_linear_206_5658)"/>
<path id="Vector_3" d="M7.0605 14.646L9.0415 16.627C9.122 16.7075 9.253 16.7075 9.3335 16.627L9.752 16.2085C9.8325 16.128 9.8325 15.997 9.752 15.9165L7.771 13.9355C7.6905 13.855 7.5595 13.855 7.479 13.9355L7.0605 14.354C6.98 14.4345 6.98 14.5655 7.0605 14.646Z" fill="#0078D4"/>
<path id="Vector_4" d="M7.771 15.0645L9.752 13.0835C9.8325 13.003 9.8325 12.872 9.752 12.7915L9.3335 12.373C9.253 12.2925 9.122 12.2925 9.0415 12.373L7.0605 14.354C6.98 14.4345 6.98 14.5655 7.0605 14.646L7.479 15.0645C7.5595 15.145 7.6905 15.145 7.771 15.0645Z" fill="#0078D4"/>
<path id="Vector_5" d="M16.9395 14.646L14.9585 16.627C14.878 16.7075 14.747 16.7075 14.6665 16.627L14.248 16.2085C14.1675 16.128 14.1675 15.997 14.248 15.9165L16.229 13.9355C16.3095 13.855 16.4405 13.855 16.521 13.9355L16.9395 14.354C17.02 14.4345 17.02 14.5655 16.9395 14.646Z" fill="#0078D4"/>
<path id="Vector_6" d="M16.229 15.0645L14.248 13.0835C14.1675 13.003 14.1675 12.872 14.248 12.7915L14.6665 12.373C14.747 12.2925 14.878 12.2925 14.9585 12.373L16.9395 14.354C17.02 14.4345 17.02 14.5655 16.9395 14.646L16.521 15.0645C16.4405 15.145 16.3095 15.145 16.229 15.0645Z" fill="#0078D4"/>
<path id="Vector_7" d="M13.302 10.021H12.55C12.4515 10.021 12.3665 10.09 12.346 10.1865L10.545 18.791C10.5245 18.888 10.599 18.9795 10.698 18.9795H11.45C11.5485 18.9795 11.6335 18.9105 11.654 18.814L13.455 10.2095C13.4755 10.112 13.401 10.021 13.302 10.021Z" fill="#0078D4"/>
</g>
<defs>
<linearGradient id="paint0_linear_206_5658" x1="9.22929" y1="2.79171" x2="19.7783" y2="18.8491" gradientUnits="userSpaceOnUse">
<stop stop-color="#7DD8F3"/>
<stop offset="1" stop-color="#45B0D0"/>
</linearGradient>
<linearGradient id="paint1_linear_206_5658" x1="14.2645" y1="7.736" x2="16.8" y2="5.2" gradientUnits="userSpaceOnUse">
<stop stop-color="#3079D6"/>
<stop offset="1" stop-color="#297CD2"/>
</linearGradient>
</defs>
</svg>
