<svg width="24" height="24" viewBox="0 0 24 24" fill="none" xmlns="http://www.w3.org/2000/svg">
<g id="code">
<path id="Vector" d="M21.5 4C22.0525 4 22.5 4.4475 22.5 5V7.5H1.5V5C1.5 4.4475 1.9475 4 2.5 4H21.5Z" fill="#CCCCCC"/>
<path id="Vector_2" d="M22.5 6.5H1.5V19C1.5 19.5525 1.9475 20 2.5 20H21.5C22.0525 20 22.5 19.5525 22.5 19V6.5Z" fill="url(#paint0_linear_206_5644)"/>
<path id="Vector_3" d="M21 6C21.2761 6 21.5 5.77614 21.5 5.5C21.5 5.22386 21.2761 5 21 5C20.7239 5 20.5 5.22386 20.5 5.5C20.5 5.77614 20.7239 6 21 6Z" fill="#999999"/>
<path id="Vector_4" d="M19.5 6C19.7761 6 20 5.77614 20 5.5C20 5.22386 19.7761 5 19.5 5C19.2239 5 19 5.22386 19 5.5C19 5.77614 19.2239 6 19.5 6Z" fill="#999999"/>
<path id="Vector_5" opacity="0.05" d="M18.3775 13.021L17.2165 10.892C17.085 10.6505 16.832 10.5 16.5565 10.5H15.8515C15.613 10.5 15.398 10.6225 15.2765 10.827C15.1545 11.032 15.15 11.279 15.2645 11.489L16.361 13.5L15.264 15.5105C15.1495 15.7205 15.1545 15.9675 15.276 16.172C15.398 16.377 15.6125 16.4995 15.851 16.4995H16.556C16.8315 16.4995 17.0845 16.349 17.216 16.1075L18.3775 13.9785C18.5415 13.679 18.5415 13.321 18.3775 13.021Z" fill="black"/>
<path id="Vector_6" opacity="0.07" d="M18.1585 13.141L16.997 11.0115C16.909 10.85 16.74 10.75 16.5565 10.75H15.8515C15.702 10.75 15.5675 10.8265 15.4915 10.955C15.415 11.0835 15.4125 11.238 15.484 11.3695L16.646 13.5L15.484 15.6305C15.4125 15.762 15.415 15.9165 15.4915 16.045C15.5675 16.1735 15.702 16.25 15.8515 16.25H16.5565C16.74 16.25 16.909 16.15 16.997 15.9885L18.1585 13.859C18.281 13.6345 18.281 13.3655 18.1585 13.141Z" fill="black"/>
<path id="Vector_7" opacity="0.05" d="M5.6225 13.021L6.7835 10.892C6.915 10.6505 7.168 10.5 7.4435 10.5H8.1485C8.387 10.5 8.602 10.6225 8.7235 10.827C8.8455 11.032 8.85 11.279 8.7355 11.489L7.639 13.5L8.736 15.5105C8.8505 15.7205 8.8455 15.9675 8.724 16.172C8.602 16.3775 8.387 16.5 8.1485 16.5H7.4435C7.168 16.5 6.915 16.3495 6.7835 16.108L5.622 13.979C5.4585 13.679 5.4585 13.321 5.6225 13.021Z" fill="black"/>
<path id="Vector_8" opacity="0.07" d="M5.8415 13.141L7.003 11.0115C7.091 10.85 7.26 10.75 7.4435 10.75H8.1485C8.298 10.75 8.4325 10.8265 8.5085 10.955C8.585 11.0835 8.5875 11.238 8.516 11.3695L7.354 13.5L8.516 15.6305C8.5875 15.762 8.585 15.9165 8.5085 16.045C8.4325 16.1735 8.298 16.25 8.1485 16.25H7.4435C7.26 16.25 7.091 16.15 7.003 15.9885L5.8415 13.859C5.719 13.6345 5.719 13.3655 5.8415 13.141Z" fill="black"/>
<path id="Vector_9" d="M16.9305 13.5L15.703 15.75C15.6415 15.8625 15.723 16 15.8515 16H16.5565C16.6485 16 16.7335 15.9495 16.7775 15.869L17.939 13.7395C18.0205 13.5905 18.0205 13.41 17.939 13.2605L16.7775 11.131C16.7335 11.0505 16.6485 11 16.5565 11H15.8515C15.7235 11 15.642 11.137 15.703 11.25L16.9305 13.5Z" fill="white"/>
<path id="Vector_10" d="M7.0695 13.5L8.297 15.75C8.3585 15.8625 8.277 16 8.1485 16H7.4435C7.3515 16 7.2665 15.9495 7.2225 15.869L6.061 13.7395C5.9795 13.5905 5.9795 13.41 6.061 13.2605L7.2225 11.131C7.2665 11.0505 7.3515 11 7.4435 11H8.1485C8.2765 11 8.358 11.137 8.297 11.25L7.0695 13.5Z" fill="white"/>
<path id="Vector_11" opacity="0.05" d="M14.372 8.795C14.241 8.61 14.028 8.5 13.802 8.5H13.2635C12.9505 8.5 12.6705 8.698 12.567 8.9925L9.54 17.5705C9.465 17.7835 9.4985 18.0205 9.629 18.206C9.7595 18.39 9.972 18.5 10.198 18.5H10.7365C11.0495 18.5 11.33 18.302 11.433 18.007L14.4605 9.43C14.535 9.217 14.502 8.9795 14.372 8.795Z" fill="black"/>
<path id="Vector_12" opacity="0.07" d="M14.1675 8.939C14.084 8.821 13.947 8.75 13.802 8.75H13.2635C13.0565 8.75 12.8715 8.881 12.803 9.0755L9.7755 17.653C9.7275 17.7895 9.7485 17.942 9.8325 18.0605C9.916 18.1785 10.053 18.2495 10.198 18.2495H10.7365C10.944 18.2495 11.129 18.118 11.197 17.9235L14.2245 9.3465C14.2725 9.21 14.251 9.0575 14.1675 8.939Z" fill="black"/>
<path id="Vector_13" d="M13.802 9H13.2635C13.1625 9 13.0725 9.0635 13.039 9.159L10.0115 17.7365C9.966 17.865 10.0615 18 10.198 18H10.7365C10.8375 18 10.9275 17.9365 10.961 17.841L13.9885 9.2635C14.034 9.135 13.9385 9 13.802 9Z" fill="white"/>
</g>
<defs>
<linearGradient id="paint0_linear_206_5644" x1="9.945" y1="5.938" x2="14.117" y2="19.9175" gradientUnits="userSpaceOnUse">
<stop stop-color="#6E6E6E"/>
<stop offset="0.999" stop-color="#4D4D4D"/>
</linearGradient>
</defs>
</svg>
