<svg width="24" height="24" viewBox="0 0 24 24" fill="none" xmlns="http://www.w3.org/2000/svg">
<g id="contact-us">
<path id="Vector" d="M19 15.5H5V21.5H19V15.5Z" fill="url(#paint0_linear_206_5789)"/>
<path id="Vector_2" d="M7 4.5H17V3.5C17 2.948 16.552 2.5 16 2.5H8C7.448 2.5 7 2.948 7 3.5V4.5Z" fill="url(#paint1_linear_206_5789)"/>
<path id="Vector_3" d="M5 5.5V15.5H19V5.5H5Z" fill="url(#paint2_linear_206_5789)"/>
<path id="Vector_4" d="M17 17.5H15V19.5H17V17.5Z" fill="#005094"/>
<path id="Vector_5" d="M14 17.5H10.5V21.5H14V17.5Z" fill="#005094"/>
<path id="Vector_6" d="M17 11.5H15V13.5H17V11.5Z" fill="#0D62AB"/>
<path id="Vector_7" d="M13 11.5H11V13.5H13V11.5Z" fill="#0D62AB"/>
<path id="Vector_8" d="M9 7.5H7V9.5H9V7.5Z" fill="#0D62AB"/>
<path id="Vector_9" d="M9 11.5H7V13.5H9V11.5Z" fill="#0D62AB"/>
<path id="Vector_10" d="M9 17.5H7V19.5H9V17.5Z" fill="#005094"/>
<path id="Vector_11" d="M13 7.5H11V9.5H13V7.5Z" fill="#0D62AB"/>
<path id="Vector_12" d="M17 7.5H15V9.5H17V7.5Z" fill="#0D62AB"/>
<path id="Vector_13" d="M19 5.5H5C4.7235 5.5 4.5 5.276 4.5 5C4.5 4.724 4.7235 4.5 5 4.5H19C19.2765 4.5 19.5 4.724 19.5 5C19.5 5.276 19.2765 5.5 19 5.5Z" fill="url(#paint3_linear_206_5789)"/>
<path id="Vector_14" d="M22 22V15C22 14.4475 21.5525 14 21 14H16C15.4475 14 15 14.4475 15 15V22C15 22.5525 15.4475 23 16 23H21C21.5525 23 22 22.5525 22 22Z" fill="url(#paint4_linear_206_5789)"/>
<path id="Vector_15" opacity="0.05" d="M18.5 18C17.397 18 16.5 18.897 16.5 20V20.5C16.5 21.0515 16.9485 21.5 17.5 21.5H19.5C20.0515 21.5 20.5 21.0515 20.5 20.5V20C20.5 18.897 19.603 18 18.5 18Z" fill="black"/>
<path id="Vector_16" opacity="0.07" d="M18.5 18.25C17.535 18.25 16.75 19.035 16.75 20V20.5C16.75 20.9135 17.0865 21.25 17.5 21.25H19.5C19.9135 21.25 20.25 20.9135 20.25 20.5V20C20.25 19.035 19.465 18.25 18.5 18.25Z" fill="black"/>
<path id="Vector_17" d="M18.5 18.5C19.3284 18.5 20 17.8284 20 17C20 16.1716 19.3284 15.5 18.5 15.5C17.6716 15.5 17 16.1716 17 17C17 17.8284 17.6716 18.5 18.5 18.5Z" fill="url(#paint5_radial_206_5789)"/>
<path id="Vector_18" d="M18.5 18.5C17.6715 18.5 17 19.1715 17 20V20.5C17 20.776 17.224 21 17.5 21H19.5C19.776 21 20 20.776 20 20.5V20C20 19.1715 19.3285 18.5 18.5 18.5Z" fill="white"/>
<path id="Vector_19" d="M18.5 18C19.0523 18 19.5 17.5523 19.5 17C19.5 16.4477 19.0523 16 18.5 16C17.9477 16 17.5 16.4477 17.5 17C17.5 17.5523 17.9477 18 18.5 18Z" fill="white"/>
</g>
<defs>
<linearGradient id="paint0_linear_206_5789" x1="8.10158" y1="14.6062" x2="10.4531" y2="22.6607" gradientUnits="userSpaceOnUse">
<stop stop-color="#FCFCFC"/>
<stop offset="0.95" stop-color="#C3C9CD"/>
</linearGradient>
<linearGradient id="paint1_linear_206_5789" x1="9.21542" y1="2.20205" x2="9.60515" y2="5.06265" gradientUnits="userSpaceOnUse">
<stop stop-color="#FCFCFC"/>
<stop offset="0.95" stop-color="#C3C9CD"/>
</linearGradient>
<linearGradient id="paint2_linear_206_5789" x1="8.10158" y1="4.01027" x2="13.8333" y2="15.7898" gradientUnits="userSpaceOnUse">
<stop stop-color="#FCFCFC"/>
<stop offset="0.95" stop-color="#C3C9CD"/>
</linearGradient>
<linearGradient id="paint3_linear_206_5789" x1="9.70725" y1="4.54373" x2="9.71843" y2="5.63342" gradientUnits="userSpaceOnUse">
<stop stop-color="#0D61A9"/>
<stop offset="1" stop-color="#16528C"/>
</linearGradient>
<linearGradient id="paint4_linear_206_5789" x1="17.207" y1="14.1382" x2="22.2331" y2="21.6754" gradientUnits="userSpaceOnUse">
<stop stop-color="#7DD8F3"/>
<stop offset="1" stop-color="#45B0D0"/>
</linearGradient>
<radialGradient id="paint5_radial_206_5789" cx="0" cy="0" r="1" gradientUnits="userSpaceOnUse" gradientTransform="translate(18.4992 16.9994) scale(1.49994)">
<stop/>
<stop offset="1" stop-opacity="0"/>
</radialGradient>
</defs>
</svg>
