<svg width="24" height="24" viewBox="0 0 24 24" fill="none" xmlns="http://www.w3.org/2000/svg">
<g id="copy">
<path id="Vector" d="M18 8.5V21C18 21.5525 17.5525 22 17 22H5C4.4475 22 4 21.5525 4 21V5C4 4.4475 4.4475 4 5 4H13.5L18 8.5Z" fill="url(#paint0_linear_206_5831)"/>
<path id="Vector_2" opacity="0.05" d="M5 4H18V21H6.8405C5.824 21 5 20.176 5 19.1595V4Z" fill="black"/>
<path id="Vector_3" opacity="0.07" d="M5.5 4H15.4705C16.8675 4 18 5.1325 18 6.5295V20.5H6.9195C6.1355 20.5 5.5 19.8645 5.5 19.0805V4Z" fill="black"/>
<path id="Vector_4" d="M20 7V19C20 19.5525 19.5525 20 19 20H7C6.4475 20 6 19.5525 6 19V3C6 2.4475 6.4475 2 7 2H15L20 7Z" fill="url(#paint1_linear_206_5831)"/>
<path id="Vector_5" d="M15 2V6C15 6.5525 15.4475 7 16 7H20L15 2Z" fill="url(#paint2_linear_206_5831)"/>
</g>
<defs>
<linearGradient id="paint0_linear_206_5831" x1="7.10158" y1="1.31849" x2="20.0988" y2="16.1582" gradientUnits="userSpaceOnUse">
<stop stop-color="#FCFCFC"/>
<stop offset="0.95" stop-color="#C3C9CD"/>
</linearGradient>
<linearGradient id="paint1_linear_206_5831" x1="10.414" y1="2.27635" x2="20.4663" y2="17.3509" gradientUnits="userSpaceOnUse">
<stop stop-color="#7DD8F3"/>
<stop offset="1" stop-color="#45B0D0"/>
</linearGradient>
<linearGradient id="paint2_linear_206_5831" x1="15.267" y1="6.733" x2="17.545" y2="4.455" gradientUnits="userSpaceOnUse">
<stop stop-color="#3079D6"/>
<stop offset="1" stop-color="#297CD2"/>
</linearGradient>
</defs>
</svg>
