<svg width="24" height="24" viewBox="0 0 24 24" fill="none" xmlns="http://www.w3.org/2000/svg">
<g id="copy-to-folder">
<path id="Vector" d="M12.207 5.207L10.939 3.939C10.658 3.658 10.2765 3.5 9.8785 3.5H3C2.4475 3.5 2 3.9475 2 4.5V7.75L3 18.5C3 19.0525 3.4475 19.5 4 19.5H20C20.5525 19.5 21 19.0525 21 18.5V7C21 6.4475 20.5525 6 20 6L12.914 5.5C12.649 5.5 12.3945 5.3945 12.207 5.207Z" fill="url(#paint0_linear_206_5837)"/>
<path id="Vector_2" d="M10.793 7.207L12.427 5.573C12.4735 5.5265 12.537 5.5 12.6035 5.5H21C21.5525 5.5 22 5.9475 22 6.5V19.5C22 20.0525 21.5525 20.5 21 20.5H3C2.4475 20.5 2 20.0525 2 19.5V7.75C2 7.612 2.112 7.5 2.25 7.5H10.086C10.351 7.5 10.6055 7.3945 10.793 7.207Z" fill="url(#paint1_linear_206_5837)"/>
<path id="Vector_3" opacity="0.05" d="M22.5 13.795V20.5H14.5V15.5C14.5 14.675 15.175 14 16 14C16 13.175 16.675 12.5 17.5 12.5H21.205L22.5 13.795Z" fill="black"/>
<path id="Vector_4" opacity="0.07" d="M22.5 14.145V20.5H14.75V15.5C14.75 14.81 15.31 14.25 16 14.25H16.25V14C16.25 13.31 16.81 12.75 17.5 12.75H21.105L22.5 14.145Z" fill="black"/>
<path id="Vector_5" d="M21.5 24H16C15.4475 24 15 23.5525 15 23V15.5C15 14.9475 15.4475 14.5 16 14.5H19.5C20 15.5 21.5 17 22.5 17.5V23C22.5 23.5525 22.0525 24 21.5 24Z" fill="url(#paint2_linear_206_5837)"/>
<path id="Vector_6" d="M23 22.5H17.5C16.9475 22.5 16.5 22.0525 16.5 21.5V14C16.5 13.4475 16.9475 13 17.5 13H21C21.5 14 23 15.5 24 16V21.5C24 22.0525 23.5525 22.5 23 22.5Z" fill="url(#paint3_linear_206_5837)"/>
<path id="Vector_7" d="M21 13V15C21 15.5525 21.4475 16 22 16H24L21 13Z" fill="url(#paint4_linear_206_5837)"/>
</g>
<defs>
<linearGradient id="paint0_linear_206_5837" x1="11.5" y1="3.3625" x2="11.5" y2="7.254" gradientUnits="userSpaceOnUse">
<stop stop-color="#EBA600"/>
<stop offset="1" stop-color="#C28200"/>
</linearGradient>
<linearGradient id="paint1_linear_206_5837" x1="12" y1="5.427" x2="12" y2="20.4915" gradientUnits="userSpaceOnUse">
<stop stop-color="#FFD869"/>
<stop offset="1" stop-color="#FEC52B"/>
</linearGradient>
<linearGradient id="paint2_linear_206_5837" x1="16.6616" y1="13.0848" x2="23.507" y2="21.0181" gradientUnits="userSpaceOnUse">
<stop stop-color="#FCFCFC"/>
<stop offset="0.95" stop-color="#C3C9CD"/>
</linearGradient>
<linearGradient id="paint3_linear_206_5837" x1="18.8646" y1="13.1459" x2="24.1392" y2="21.1745" gradientUnits="userSpaceOnUse">
<stop stop-color="#7DD8F3"/>
<stop offset="1" stop-color="#45B0D0"/>
</linearGradient>
<linearGradient id="paint4_linear_206_5837" x1="21.2785" y1="15.721" x2="22.5245" y2="14.4755" gradientUnits="userSpaceOnUse">
<stop stop-color="#3079D6"/>
<stop offset="1" stop-color="#297CD2"/>
</linearGradient>
</defs>
</svg>
