<svg width="24" height="24" viewBox="0 0 24 24" fill="none" xmlns="http://www.w3.org/2000/svg">
<g id="create-icon">
<path id="Vector" d="M19.9885 13C19.9835 13 19.979 13 19.974 13C19.698 12.992 19.4805 12.7615 19.4885 12.486C19.4905 12.405 19.492 12.324 19.492 12.2425C19.492 8.111 16.131 4.75 12 4.75C7.869 4.75 4.508 8.111 4.508 12.242C4.508 12.3235 4.5095 12.4045 4.5115 12.4855C4.5195 12.7615 4.302 12.9915 4.026 13C3.7605 12.9885 3.52 12.7905 3.512 12.514C3.5095 12.424 3.508 12.3335 3.508 12.242C3.508 7.5595 7.3175 3.75 12 3.75C16.6825 3.75 20.492 7.5595 20.492 12.242C20.492 12.3335 20.4905 12.423 20.488 12.514C20.48 12.785 20.258 13 19.9885 13Z" fill="#ABB4BE"/>
<path id="Vector_2" d="M21.25 5H2.25C1.974 5 1.75 4.7765 1.75 4.5C1.75 4.2235 1.974 4 2.25 4H21.25C21.526 4 21.75 4.2235 21.75 4.5C21.75 4.7765 21.526 5 21.25 5Z" fill="#ABB4BE"/>
<path id="Vector_3" d="M13.5 7H10.5C9.95 7 9.5 6.55 9.5 6V3C9.5 2.45 9.95 2 10.5 2H13.5C14.05 2 14.5 2.45 14.5 3V6C14.5 6.55 14.05 7 13.5 7Z" fill="url(#paint0_linear_206_5868)"/>
<path id="Vector_4" d="M21.5 17.5H18.5C17.95 17.5 17.5 17.05 17.5 16.5V13.5C17.5 12.95 17.95 12.5 18.5 12.5H21.5C22.05 12.5 22.5 12.95 22.5 13.5V16.5C22.5 17.05 22.05 17.5 21.5 17.5Z" fill="url(#paint1_linear_206_5868)"/>
<path id="Vector_5" d="M5.5 17.5H2.5C1.95 17.5 1.5 17.05 1.5 16.5V13.5C1.5 12.95 1.95 12.5 2.5 12.5H5.5C6.05 12.5 6.5 12.95 6.5 13.5V16.5C6.5 17.05 6.05 17.5 5.5 17.5Z" fill="url(#paint2_linear_206_5868)"/>
<path id="Vector_6" d="M22 6C22.8284 6 23.5 5.32843 23.5 4.5C23.5 3.67157 22.8284 3 22 3C21.1716 3 20.5 3.67157 20.5 4.5C20.5 5.32843 21.1716 6 22 6Z" fill="url(#paint3_linear_206_5868)"/>
<path id="Vector_7" d="M2 6C2.82843 6 3.5 5.32843 3.5 4.5C3.5 3.67157 2.82843 3 2 3C1.17157 3 0.5 3.67157 0.5 4.5C0.5 5.32843 1.17157 6 2 6Z" fill="url(#paint4_linear_206_5868)"/>
<path id="Vector_8" d="M13.5 19.25H10.5C10.5 17.231 8.7125 15.8055 8.696 15.7935C8.503 15.647 8.4415 15.383 8.551 15.167L11.554 9.273C11.64 9.1055 11.812 9 12 9C12.188 9 12.3605 9.1055 12.4455 9.2735L15.4455 15.1675C15.556 15.384 15.4945 15.6485 15.2995 15.7945C15.2845 15.8055 13.5 17.231 13.5 19.25Z" fill="url(#paint5_linear_206_5868)"/>
<path id="Vector_9" d="M12.5 14.6385V9.5C12.5 9.224 12.276 9 12 9C11.724 9 11.5 9.224 11.5 9.5V14.6385C11.2025 14.8115 11 15.1305 11 15.5C11 16.0525 11.4475 16.5 12 16.5C12.5525 16.5 13 16.0525 13 15.5C13 15.131 12.7975 14.812 12.5 14.6385Z" fill="url(#paint6_linear_206_5868)"/>
<path id="Vector_10" opacity="0.05" d="M10.4175 18.5C10.4695 18.739 10.5 18.9895 10.5 19.25H13.5C13.5 18.9895 13.5305 18.739 13.5825 18.5H10.4175Z" fill="black"/>
<path id="Vector_11" opacity="0.05" d="M10.459 18.75C10.483 18.9125 10.5 19.078 10.5 19.25H13.5C13.5 19.078 13.517 18.9125 13.541 18.75H10.459Z" fill="black"/>
<path id="Vector_12" d="M13.5765 19H10.4235C10.179 19 9.9705 19.1765 9.9305 19.418L9.5 22H14.5L14.0695 19.418C14.0295 19.1765 13.821 19 13.5765 19Z" fill="url(#paint7_linear_206_5868)"/>
</g>
<defs>
<linearGradient id="paint0_linear_206_5868" x1="11.2925" y1="1.8605" x2="12.624" y2="6.8295" gradientUnits="userSpaceOnUse">
<stop stop-color="#2AA4F4"/>
<stop offset="1" stop-color="#007AD9"/>
</linearGradient>
<linearGradient id="paint1_linear_206_5868" x1="19.293" y1="12.3605" x2="20.624" y2="17.3295" gradientUnits="userSpaceOnUse">
<stop stop-color="#2AA4F4"/>
<stop offset="1" stop-color="#007AD9"/>
</linearGradient>
<linearGradient id="paint2_linear_206_5868" x1="3.2925" y1="12.3605" x2="4.624" y2="17.3295" gradientUnits="userSpaceOnUse">
<stop stop-color="#2AA4F4"/>
<stop offset="1" stop-color="#007AD9"/>
</linearGradient>
<linearGradient id="paint3_linear_206_5868" x1="21.0055" y1="3.5055" x2="23.106" y2="5.606" gradientUnits="userSpaceOnUse">
<stop stop-color="#33BEF0"/>
<stop offset="1" stop-color="#0A85D9"/>
</linearGradient>
<linearGradient id="paint4_linear_206_5868" x1="1.0055" y1="3.5055" x2="3.106" y2="5.606" gradientUnits="userSpaceOnUse">
<stop stop-color="#33BEF0"/>
<stop offset="1" stop-color="#0A85D9"/>
</linearGradient>
<linearGradient id="paint5_linear_206_5868" x1="-2.243" y1="14.125" x2="15.8345" y2="14.125" gradientUnits="userSpaceOnUse">
<stop stop-color="#E36001"/>
<stop offset="1" stop-color="#FED100"/>
</linearGradient>
<linearGradient id="paint6_linear_206_5868" x1="12" y1="16.5" x2="12" y2="0.7765" gradientUnits="userSpaceOnUse">
<stop stop-color="#C18310"/>
<stop offset="1" stop-color="#EBA601"/>
</linearGradient>
<linearGradient id="paint7_linear_206_5868" x1="10.179" y1="19.0375" x2="13.821" y2="22.679" gradientUnits="userSpaceOnUse">
<stop stop-color="#F44F5A"/>
<stop offset="0.443" stop-color="#EE3D4A"/>
<stop offset="1" stop-color="#E52030"/>
</linearGradient>
</defs>
</svg>
