<svg width="24" height="24" viewBox="0 0 24 24" fill="none" xmlns="http://www.w3.org/2000/svg">
<g id="create" clip-path="url(#clip0_206_5845)">
<path id="Vector" d="M20 3H4C3.4475 3 3 3.4475 3 4V20C3 20.5525 3.4475 21 4 21H20C20.5525 21 21 20.5525 21 20V4C21 3.4475 20.5525 3 20 3Z" fill="url(#paint0_linear_206_5845)"/>
<path id="Vector_2" opacity="0.05" d="M21 4C21 3.4475 20.5525 3 20 3H18.055L9.406 11.651C9.338 11.719 9.2895 11.8045 9.266 11.898L8.421 15.2515C8.371 15.449 8.5505 15.6285 8.748 15.5785L12.102 14.7345C12.1955 14.711 12.281 14.6625 12.3495 14.594L21 5.942V4Z" fill="black"/>
<path id="Vector_3" opacity="0.07" d="M21 4C21 3.4475 20.5525 3 20 3H18.4085L9.613 11.7975C9.557 11.8535 9.517 11.9235 9.498 12.0005L8.746 14.9855C8.705 15.148 8.8525 15.295 9.0145 15.254L11.9995 14.5025C12.0765 14.483 12.1465 14.4435 12.2025 14.3875L21 5.5885V4Z" fill="black"/>
<path id="Vector_4" d="M23.8355 1.6055L22.3945 0.164499C22.1755 -0.0550009 21.8185 -0.0550009 21.599 0.164499L20.921 0.843499L23.157 3.0795L23.836 2.4015C24.055 2.1815 24.055 1.8255 23.8355 1.6055Z" fill="#C94F60"/>
<path id="Vector_5" d="M9.752 12.012L9 15L11.9885 14.2475L12.302 11.655L9.752 12.012Z" fill="#F0F0F0"/>
<path id="Vector_6" d="M21.2495 4.986L11.989 14.247L9.753 12.011L19.0135 2.75L21.2495 4.986Z" fill="url(#paint1_linear_206_5845)"/>
<path id="Vector_7" d="M19.0115 2.7505L20.9185 0.842501L23.156 3.0785L21.249 4.9865L19.0115 2.7505Z" fill="url(#paint2_linear_206_5845)"/>
<path id="Vector_8" d="M9.381 13.489L9 15L10.5105 14.619L9.381 13.489Z" fill="#575757"/>
</g>
<defs>
<linearGradient id="paint0_linear_206_5845" x1="3" y1="12" x2="21" y2="12" gradientUnits="userSpaceOnUse">
<stop stop-color="#33BEF0"/>
<stop offset="1" stop-color="#0A85D9"/>
</linearGradient>
<linearGradient id="paint1_linear_206_5845" x1="9.753" y1="8.4985" x2="21.2495" y2="8.4985" gradientUnits="userSpaceOnUse">
<stop stop-color="#FFD869"/>
<stop offset="0.765625" stop-color="#F2C032"/>
<stop offset="1" stop-color="#FFD869"/>
</linearGradient>
<linearGradient id="paint2_linear_206_5845" x1="21.084" y1="0.984001" x2="21.084" y2="5.1005" gradientUnits="userSpaceOnUse">
<stop stop-color="#DEDEDE"/>
<stop offset="1" stop-color="#D6D6D6"/>
</linearGradient>
<clipPath id="clip0_206_5845">
<rect width="24" height="24" fill="white"/>
</clipPath>
</defs>
</svg>
