<svg width="24" height="24" viewBox="0 0 24 24" fill="none" xmlns="http://www.w3.org/2000/svg">
<g id="date-to">
<path id="Vector" d="M3 20V6H21V20C21 20.55 20.55 21 20 21H4C3.45 21 3 20.55 3 20Z" fill="url(#paint0_linear_206_5994)"/>
<path id="Vector_2" opacity="0.05" d="M12.823 13.2455L11.5 11.873L9.7905 10.1C9.5775 9.8785 9.256 9.8105 8.9695 9.924C8.6845 10.039 8.5 10.3125 8.5 10.62V11.5H3.5H4.75C4.3365 11.5 4 11.8365 4 12.25V15.25C4 15.6635 4.3365 16 4.75 16H3.5H8.5V16.8805C8.5 17.188 8.6845 17.4615 8.97 17.5765C9.0605 17.6125 9.155 17.631 9.251 17.631C9.452 17.631 9.649 17.547 9.7905 17.4005L11.5 15.6275L12.823 14.255C13.095 13.9715 13.095 13.529 12.823 13.2455Z" fill="black"/>
<path id="Vector_3" opacity="0.07" d="M12.643 13.419L9.6105 10.2735C9.468 10.1255 9.2515 10.081 9.063 10.1565C8.8725 10.233 8.75 10.415 8.75 10.62V11.75H3.5H4.75C4.474 11.75 4.25 11.974 4.25 12.25V15.25C4.25 15.526 4.474 15.75 4.75 15.75H3.5H8.75V16.8805C8.75 17.0855 8.8725 17.2675 9.063 17.3445C9.124 17.369 9.1875 17.381 9.251 17.381C9.384 17.381 9.5135 17.3275 9.6105 17.227L12.643 14.0815C12.822 13.8955 12.822 13.605 12.643 13.419Z" fill="black"/>
<path id="Vector_4" d="M9 10.62V12H4.75C4.612 12 4.5 12.112 4.5 12.25V15.25C4.5 15.388 4.612 15.5 4.75 15.5H9V16.8805C9 17.1055 9.274 17.216 9.43 17.054L12.463 13.9085C12.548 13.8205 12.548 13.681 12.463 13.5925L9.43 10.447C9.274 10.2845 9 10.395 9 10.62Z" fill="url(#paint1_linear_206_5994)"/>
<path id="Vector_5" d="M21 4V7H3V4C3 3.45 3.45 3 4 3H20C20.55 3 21 3.45 21 4Z" fill="url(#paint2_linear_206_5994)"/>
<path id="Vector_6" opacity="0.05" d="M17.75 6.25C16.9215 6.25 16.25 5.5785 16.25 4.75V3H19.25V4.75C19.25 5.5785 18.5785 6.25 17.75 6.25Z" fill="black"/>
<path id="Vector_7" opacity="0.07" d="M17.75 5.875C17.1285 5.875 16.625 5.3715 16.625 4.75V3H18.875V4.75C18.875 5.3715 18.3715 5.875 17.75 5.875Z" fill="black"/>
<path id="Vector_8" opacity="0.05" d="M6.25 6.25C5.4215 6.25 4.75 5.5785 4.75 4.75V3H7.75V4.75C7.75 5.5785 7.0785 6.25 6.25 6.25Z" fill="black"/>
<path id="Vector_9" opacity="0.07" d="M6.25 5.875C5.6285 5.875 5.125 5.3715 5.125 4.75V3H7.375V4.75C7.375 5.3715 6.8715 5.875 6.25 5.875Z" fill="black"/>
<path id="Vector_10" d="M6.25 5.5C5.836 5.5 5.5 5.164 5.5 4.75V2.75C5.5 2.336 5.836 2 6.25 2C6.664 2 7 2.336 7 2.75V4.75C7 5.164 6.664 5.5 6.25 5.5Z" fill="#3CCBF4"/>
<path id="Vector_11" d="M17.75 5.5C17.336 5.5 17 5.164 17 4.75V2.75C17 2.336 17.336 2 17.75 2C18.164 2 18.5 2.336 18.5 2.75V4.75C18.5 5.164 18.164 5.5 17.75 5.5Z" fill="#3CCBF4"/>
</g>
<defs>
<linearGradient id="paint0_linear_206_5994" x1="4.414" y1="5.6235" x2="19.8985" y2="21.101" gradientUnits="userSpaceOnUse">
<stop stop-color="#28AFEA"/>
<stop offset="1" stop-color="#047ED6"/>
</linearGradient>
<linearGradient id="paint1_linear_206_5994" x1="7.03072" y1="10.4734" x2="10.0319" y2="17.3427" gradientUnits="userSpaceOnUse">
<stop stop-color="#7DD8F3"/>
<stop offset="1" stop-color="#45B0D0"/>
</linearGradient>
<linearGradient id="paint2_linear_206_5994" x1="3.21" y1="3.304" x2="20.599" y2="6.84" gradientUnits="userSpaceOnUse">
<stop stop-color="#0077D2"/>
<stop offset="1" stop-color="#0B59A2"/>
</linearGradient>
</defs>
</svg>
