<svg width="24" height="24" viewBox="0 0 24 24" fill="none" xmlns="http://www.w3.org/2000/svg">
<g id="design">
<path id="Vector" d="M21.207 17.707L6.293 2.793C5.9025 2.4025 5.2695 2.4025 4.879 2.793L2.793 4.8785C2.4025 5.269 2.4025 5.902 2.793 6.2925L17.707 21.2065C18.0975 21.597 18.7305 21.597 19.121 21.2065L21.207 19.1205C21.5975 18.731 21.5975 18.0975 21.207 17.707Z" fill="#0370C8"/>
<path id="Vector_2" d="M21.2915 4.5335L19.466 2.7085C19.1885 2.4305 18.7365 2.4305 18.4585 2.7085L17.5995 3.5685L20.4315 6.4005L21.2915 5.5415C21.5695 5.263 21.5695 4.8125 21.2915 4.5335Z" fill="#C94F60"/>
<path id="Vector_3" d="M3.4525 17.715L2.5 21.5L6.2855 20.547L6.6825 17.2635L3.4525 17.715Z" fill="#F0F0F0"/>
<path id="Vector_4" d="M18.016 8.816L6.286 20.5465L3.4535 17.714L15.1835 5.9835L18.016 8.816Z" fill="#EDBE00"/>
<path id="Vector_5" d="M15.1815 5.984L17.5975 3.567L20.4315 6.399L18.0155 8.816L15.1815 5.984Z" fill="url(#paint0_linear_206_6045)"/>
<path id="Vector_6" d="M2.9825 19.586L2.5 21.5L4.4135 21.0175L2.9825 19.586Z" fill="#787878"/>
<path id="Vector_7" d="M18.6464 15.1465L17.6465 16.1464L18.3536 16.8535L19.3535 15.8536L18.6464 15.1465Z" fill="#0E8DF2"/>
<path id="Vector_8" d="M20.1467 16.6462L18.6466 18.1464L19.3537 18.8534L20.8538 17.3533L20.1467 16.6462Z" fill="#0E8DF2"/>
<path id="Vector_9" d="M15.6464 12.1465L14.6465 13.1464L15.3536 13.8535L16.3535 12.8536L15.6464 12.1465Z" fill="#0E8DF2"/>
<path id="Vector_10" d="M17.1467 13.6462L15.6466 15.1464L16.3537 15.8534L17.8538 14.3533L17.1467 13.6462Z" fill="#0E8DF2"/>
<path id="Vector_11" d="M9.64667 6.1462L8.14657 7.64635L8.85369 8.35345L10.3538 6.85329L9.64667 6.1462Z" fill="#0E8DF2"/>
<path id="Vector_12" d="M11.1464 7.64652L10.1465 8.64639L10.8536 9.35348L11.8535 8.35361L11.1464 7.64652Z" fill="#0E8DF2"/>
<path id="Vector_13" d="M6.64667 3.1462L5.14657 4.64635L5.85369 5.35345L7.35379 3.85329L6.64667 3.1462Z" fill="#0E8DF2"/>
<path id="Vector_14" d="M8.14636 4.64652L7.14653 5.64639L7.85365 6.35348L8.85348 5.35361L8.14636 4.64652Z" fill="#0E8DF2"/>
</g>
<defs>
<linearGradient id="paint0_linear_206_6045" x1="17.806" y1="3.747" x2="17.806" y2="8.9605" gradientUnits="userSpaceOnUse">
<stop stop-color="#DEDEDE"/>
<stop offset="1" stop-color="#D6D6D6"/>
</linearGradient>
</defs>
</svg>
