<svg width="24" height="24" viewBox="0 0 24 24" fill="none" xmlns="http://www.w3.org/2000/svg">
<g id="download-from-the-cloud">
<path id="Vector" d="M24 13C24 16.315 21.315 19 18 19C17.1 19 5.67 19 4.75 19C2.125 19 0 16.875 0 14.25C0 11.98 1.59 10.08 3.725 9.61C4.575 6.105 7.73 3.5 11.5 3.5C14.255 3.5 16.68 4.89 18.12 7.005C21.38 7.065 24 9.725 24 13Z" fill="url(#paint0_linear_206_6176)"/>
<path id="Vector_2" opacity="0.05" d="M13.5 12.5V9C13.5 8.4475 13.0525 8 12.5 8H11.5C10.9475 8 10.5 8.4475 10.5 9V12.5H9.176C8.508 12.5 8.173 13.308 8.6455 13.7805L11.293 16.428C11.6835 16.8185 12.3165 16.8185 12.707 16.428L15.3545 13.7805C15.827 13.308 15.4925 12.5 14.824 12.5H13.5Z" fill="black"/>
<path id="Vector_3" opacity="0.07" d="M13.25 12.75V9C13.25 8.586 12.914 8.25 12.5 8.25H11.5C11.086 8.25 10.75 8.586 10.75 9V12.75H9.2395C8.7705 12.75 8.5355 13.317 8.867 13.649L11.4315 16.214C11.745 16.5275 12.2535 16.5275 12.567 16.214L15.1315 13.649C15.463 13.3175 15.2285 12.75 14.759 12.75H13.25Z" fill="black"/>
<path id="Vector_4" d="M14.6965 13H13V9C13 8.724 12.776 8.5 12.5 8.5H11.5C11.224 8.5 11 8.724 11 9V13H9.3035C9.0335 13 8.8985 13.3265 9.0895 13.517L11.5715 15.999C11.808 16.2355 12.192 16.2355 12.4285 15.999L14.9105 13.517C15.1015 13.3265 14.9665 13 14.6965 13Z" fill="white"/>
</g>
<defs>
<linearGradient id="paint0_linear_206_6176" x1="7.121" y1="4.179" x2="15.086" y2="19.3475" gradientUnits="userSpaceOnUse">
<stop stop-color="#2AA4F4"/>
<stop offset="1" stop-color="#007AD9"/>
</linearGradient>
</defs>
</svg>
