<svg width="24" height="24" viewBox="0 0 24 24" fill="none" xmlns="http://www.w3.org/2000/svg">
<g id="e-magazine">
<path id="Vector" d="M5.5 2H18.5C18.7652 2 19.0196 2.10536 19.2071 2.29289C19.3946 2.48043 19.5 2.73478 19.5 3V20H4.5V3C4.5 2.73478 4.60536 2.48043 4.79289 2.29289C4.98043 2.10536 5.23478 2 5.5 2Z" fill="url(#paint0_linear_206_6315)"/>
<path id="Vector_2" d="M19.5 19H4.5V21C4.49996 21.1313 4.52581 21.2614 4.57605 21.3827C4.62629 21.5041 4.69995 21.6143 4.79281 21.7072C4.88568 21.8001 4.99593 21.8737 5.11727 21.924C5.23862 21.9742 5.36867 22 5.5 22H18.5C18.6313 22 18.7614 21.9742 18.8827 21.924C19.0041 21.8737 19.1143 21.8001 19.2072 21.7072C19.3001 21.6143 19.3737 21.5041 19.424 21.3827C19.4742 21.2614 19.5 21.1313 19.5 21V19Z" fill="url(#paint1_linear_206_6315)"/>
<path id="Vector_3" d="M17.25 14H6.75C6.6837 14 6.62013 13.9736 6.57325 13.9268C6.52637 13.8799 6.50002 13.8163 6.5 13.75V13.25C6.50002 13.1837 6.52637 13.1201 6.57325 13.0732C6.62013 13.0264 6.6837 13 6.75 13H17.25C17.3163 13 17.3799 13.0264 17.4268 13.0732C17.4736 13.1201 17.5 13.1837 17.5 13.25V13.75C17.5 13.8163 17.4736 13.8799 17.4268 13.9268C17.3799 13.9736 17.3163 14 17.25 14Z" fill="#0D86AD"/>
<path id="Vector_4" d="M11.25 16.5H6.75C6.6837 16.5 6.62013 16.4736 6.57325 16.4268C6.52637 16.3799 6.50002 16.3163 6.5 16.25V15.75C6.50002 15.6837 6.52637 15.6201 6.57325 15.5732C6.62013 15.5264 6.6837 15.5 6.75 15.5H11.25C11.3163 15.5 11.3799 15.5264 11.4268 15.5732C11.4736 15.6201 11.5 15.6837 11.5 15.75V16.25C11.5 16.3163 11.4736 16.3799 11.4268 16.4268C11.3799 16.4736 11.3163 16.5 11.25 16.5Z" fill="#0D86AD"/>
<path id="Vector_5" d="M17.25 16.5H12.75C12.6837 16.5 12.6201 16.4736 12.5732 16.4268C12.5264 16.3799 12.5 16.3163 12.5 16.25V15.75C12.5 15.6837 12.5264 15.6201 12.5732 15.5732C12.6201 15.5264 12.6837 15.5 12.75 15.5H17.25C17.3163 15.5 17.3799 15.5264 17.4268 15.5732C17.4736 15.6201 17.5 15.6837 17.5 15.75V16.25C17.5 16.3163 17.4736 16.3799 17.4268 16.4268C17.3799 16.4736 17.3163 16.5 17.25 16.5Z" fill="#0D86AD"/>
<path id="Vector_6" d="M17 4.5H7C6.86739 4.5 6.74021 4.55268 6.64645 4.64645C6.55268 4.74021 6.5 4.86739 6.5 5V11C6.5 11.1326 6.55268 11.2598 6.64645 11.3536C6.74021 11.4473 6.86739 11.5 7 11.5H17C17.1326 11.5 17.2598 11.4473 17.3536 11.3536C17.4473 11.2598 17.5 11.1326 17.5 11V5C17.5 4.86739 17.4473 4.74021 17.3536 4.64645C17.2598 4.55268 17.1326 4.5 17 4.5Z" fill="url(#paint2_radial_206_6315)"/>
<path id="Vector_7" d="M17.205 11.455C17.1409 11.4852 17.0708 11.5006 17 11.5H10.835V9.625L12.755 7.805C12.8662 7.70119 13.0134 7.64472 13.1655 7.64751C13.3176 7.65031 13.4627 7.71217 13.57 7.82L17.205 11.455Z" fill="#436DCD"/>
<path id="Vector_8" d="M14 6.5C14.2761 6.5 14.5 6.27614 14.5 6C14.5 5.72386 14.2761 5.5 14 5.5C13.7239 5.5 13.5 5.72386 13.5 6C13.5 6.27614 13.7239 6.5 14 6.5Z" fill="white"/>
<path id="Vector_9" d="M15.75 11.5L11.235 7.0405C11.1275 6.933 10.9823 6.87172 10.8303 6.86973C10.6783 6.86773 10.5315 6.92516 10.4212 7.0298L6.5 10.75V11C6.5 11.1326 6.55268 11.2598 6.64645 11.3536C6.74021 11.4473 6.86739 11.5 7 11.5H15.75Z" fill="url(#paint3_linear_206_6315)"/>
<path id="Vector_10" opacity="0.05" d="M12 20C12.0989 20 12.1956 20.0293 12.2778 20.0843C12.36 20.1392 12.4241 20.2173 12.4619 20.3087C12.4998 20.4 12.5097 20.5006 12.4904 20.5975C12.4711 20.6945 12.4235 20.7836 12.3536 20.8536C12.2836 20.9235 12.1945 20.9711 12.0975 20.9904C12.0006 21.0097 11.9 20.9998 11.8087 20.9619C11.7173 20.9241 11.6392 20.86 11.5843 20.7778C11.5293 20.6956 11.5 20.5989 11.5 20.5C11.5 20.3674 11.5527 20.2402 11.6464 20.1464C11.7402 20.0527 11.8674 20 12 20ZM12 19.5C11.8022 19.5 11.6089 19.5586 11.4444 19.6685C11.28 19.7784 11.1518 19.9346 11.0761 20.1173C11.0004 20.3 10.9806 20.5011 11.0192 20.6951C11.0578 20.8891 11.153 21.0673 11.2929 21.2071C11.4327 21.347 11.6109 21.4422 11.8049 21.4808C11.9989 21.5194 12.2 21.4996 12.3827 21.4239C12.5654 21.3482 12.7216 21.22 12.8315 21.0556C12.9414 20.8911 13 20.6978 13 20.5C12.9997 20.2349 12.8942 19.9807 12.7068 19.7932C12.5193 19.6058 12.2651 19.5003 12 19.5Z" fill="black"/>
<path id="Vector_11" opacity="0.07" d="M12 20C12.0989 20 12.1956 20.0293 12.2778 20.0843C12.36 20.1392 12.4241 20.2173 12.4619 20.3087C12.4998 20.4 12.5097 20.5006 12.4904 20.5975C12.4711 20.6945 12.4235 20.7836 12.3536 20.8536C12.2836 20.9235 12.1945 20.9711 12.0975 20.9904C12.0006 21.0097 11.9 20.9998 11.8087 20.9619C11.7173 20.9241 11.6392 20.86 11.5843 20.7778C11.5293 20.6956 11.5 20.5989 11.5 20.5C11.5 20.3674 11.5527 20.2402 11.6464 20.1464C11.7402 20.0527 11.8674 20 12 20ZM12 19.75C11.8517 19.75 11.7067 19.794 11.5833 19.8764C11.46 19.9588 11.3639 20.0759 11.3071 20.213C11.2503 20.35 11.2355 20.5008 11.2644 20.6463C11.2934 20.7918 11.3648 20.9254 11.4697 21.0303C11.5746 21.1352 11.7082 21.2066 11.8537 21.2356C11.9992 21.2645 12.15 21.2497 12.287 21.1929C12.4241 21.1361 12.5412 21.04 12.6236 20.9167C12.706 20.7933 12.75 20.6483 12.75 20.5C12.7498 20.3012 12.6707 20.1105 12.5301 19.9699C12.3895 19.8293 12.1988 19.7502 12 19.75Z" fill="black"/>
<path id="Vector_12" d="M12 21C12.2761 21 12.5 20.7761 12.5 20.5C12.5 20.2239 12.2761 20 12 20C11.7239 20 11.5 20.2239 11.5 20.5C11.5 20.7761 11.7239 21 12 21Z" fill="url(#paint4_linear_206_6315)"/>
</g>
<defs>
<linearGradient id="paint0_linear_206_6315" x1="8.1185" y1="0.7475" x2="17.6085" y2="26.8205" gradientUnits="userSpaceOnUse">
<stop stop-color="#7DD8F3"/>
<stop offset="1" stop-color="#45B0D0"/>
</linearGradient>
<linearGradient id="paint1_linear_206_6315" x1="9.283" y1="12.624" x2="15.528" y2="29.7825" gradientUnits="userSpaceOnUse">
<stop stop-color="#0176D0"/>
<stop offset="1" stop-color="#16538C"/>
</linearGradient>
<radialGradient id="paint2_radial_206_6315" cx="0" cy="0" r="1" gradientUnits="userSpaceOnUse" gradientTransform="translate(19.7725 11.8935) scale(6.959)">
<stop stop-color="#BA84F5"/>
<stop offset="0.129" stop-color="#B584F3"/>
<stop offset="0.291" stop-color="#A585EE"/>
<stop offset="0.47" stop-color="#8C87E6"/>
<stop offset="0.662" stop-color="#6889DB"/>
<stop offset="0.862" stop-color="#3B8BCD"/>
<stop offset="1" stop-color="#178DC2"/>
</radialGradient>
<linearGradient id="paint3_linear_206_6315" x1="11.125" y1="6.859" x2="11.125" y2="11.5805" gradientUnits="userSpaceOnUse">
<stop stop-color="#124787"/>
<stop offset="0.923" stop-color="#173B75"/>
<stop offset="1" stop-color="#173A73"/>
</linearGradient>
<linearGradient id="paint4_linear_206_6315" x1="11.971" y1="20.471" x2="12.7005" y2="21.2005" gradientUnits="userSpaceOnUse">
<stop stop-color="#DFE9F2"/>
<stop offset="0.391" stop-color="#D6E0E9"/>
<stop offset="1" stop-color="#BFC8D1"/>
</linearGradient>
</defs>
</svg>
