<svg width="24" height="24" viewBox="0 0 24 24" fill="none" xmlns="http://www.w3.org/2000/svg">
<g id="embassy">
<path id="Vector" d="M4 7H20C20.1326 7 20.2598 7.05268 20.3536 7.14645C20.4473 7.24021 20.5 7.36739 20.5 7.5V10.5H3.5V7.5C3.5 7.36739 3.55268 7.24021 3.64645 7.14645C3.74021 7.05268 3.86739 7 4 7Z" fill="url(#paint0_linear_206_6328)"/>
<path id="Vector_2" d="M2.5 10H21.5C21.7652 10 22.0196 10.1054 22.2071 10.2929C22.3946 10.4804 22.5 10.7348 22.5 11V21.5H1.5V11C1.5 10.7348 1.60536 10.4804 1.79289 10.2929C1.98043 10.1054 2.23478 10 2.5 10Z" fill="url(#paint1_linear_206_6328)"/>
<path id="Vector_3" d="M5.5 8H4.5V9H5.5V8Z" fill="#0370C8"/>
<path id="Vector_4" d="M7.5 8H6.5V9H7.5V8Z" fill="#0370C8"/>
<path id="Vector_5" d="M9.5 8H8.5V9H9.5V8Z" fill="#0370C8"/>
<path id="Vector_6" d="M11.5 8H10.5V9H11.5V8Z" fill="#0370C8"/>
<path id="Vector_7" d="M13.5 8H12.5V9H13.5V8Z" fill="#0370C8"/>
<path id="Vector_8" d="M11 11.5H10C9.72386 11.5 9.5 11.7239 9.5 12V14.5C9.5 14.7761 9.72386 15 10 15H11C11.2761 15 11.5 14.7761 11.5 14.5V12C11.5 11.7239 11.2761 11.5 11 11.5Z" fill="#0370C8"/>
<path id="Vector_9" d="M8 11.5H7C6.72386 11.5 6.5 11.7239 6.5 12V14.5C6.5 14.7761 6.72386 15 7 15H8C8.27614 15 8.5 14.7761 8.5 14.5V12C8.5 11.7239 8.27614 11.5 8 11.5Z" fill="#0370C8"/>
<path id="Vector_10" d="M5 11.5H4C3.72386 11.5 3.5 11.7239 3.5 12V14.5C3.5 14.7761 3.72386 15 4 15H5C5.27614 15 5.5 14.7761 5.5 14.5V12C5.5 11.7239 5.27614 11.5 5 11.5Z" fill="#0370C8"/>
<path id="Vector_11" d="M8 16H7C6.72386 16 6.5 16.2239 6.5 16.5V19C6.5 19.2761 6.72386 19.5 7 19.5H8C8.27614 19.5 8.5 19.2761 8.5 19V16.5C8.5 16.2239 8.27614 16 8 16Z" fill="#0370C8"/>
<path id="Vector_12" d="M5 16H4C3.72386 16 3.5 16.2239 3.5 16.5V19C3.5 19.2761 3.72386 19.5 4 19.5H5C5.27614 19.5 5.5 19.2761 5.5 19V16.5C5.5 16.2239 5.27614 16 5 16Z" fill="#0370C8"/>
<path id="Vector_13" d="M20 16H19C18.7239 16 18.5 16.2239 18.5 16.5V19C18.5 19.2761 18.7239 19.5 19 19.5H20C20.2761 19.5 20.5 19.2761 20.5 19V16.5C20.5 16.2239 20.2761 16 20 16Z" fill="#0370C8"/>
<path id="Vector_14" d="M17 16H16C15.7239 16 15.5 16.2239 15.5 16.5V19C15.5 19.2761 15.7239 19.5 16 19.5H17C17.2761 19.5 17.5 19.2761 17.5 19V16.5C17.5 16.2239 17.2761 16 17 16Z" fill="#0370C8"/>
<path id="Vector_15" d="M14 11.5H13C12.7239 11.5 12.5 11.7239 12.5 12V14.5C12.5 14.7761 12.7239 15 13 15H14C14.2761 15 14.5 14.7761 14.5 14.5V12C14.5 11.7239 14.2761 11.5 14 11.5Z" fill="#0370C8"/>
<path id="Vector_16" d="M17 11.5H16C15.7239 11.5 15.5 11.7239 15.5 12V14.5C15.5 14.7761 15.7239 15 16 15H17C17.2761 15 17.5 14.7761 17.5 14.5V12C17.5 11.7239 17.2761 11.5 17 11.5Z" fill="#0370C8"/>
<path id="Vector_17" d="M20 11.5H19C18.7239 11.5 18.5 11.7239 18.5 12V14.5C18.5 14.7761 18.7239 15 19 15H20C20.2761 15 20.5 14.7761 20.5 14.5V12C20.5 11.7239 20.2761 11.5 20 11.5Z" fill="#0370C8"/>
<path id="Vector_18" d="M12 16C12.663 16 13.2989 16.2634 13.7678 16.7322C14.2366 17.2011 14.5 17.837 14.5 18.5V21.5H9.5V18.5C9.5 17.837 9.76339 17.2011 10.2322 16.7322C10.7011 16.2634 11.337 16 12 16Z" fill="#0370C8"/>
<path id="Vector_19" d="M15.5 8H14.5V9H15.5V8Z" fill="#0370C8"/>
<path id="Vector_20" d="M17.5 8H16.5V9H17.5V8Z" fill="#0370C8"/>
<path id="Vector_21" d="M19.5 8H18.5V9H19.5V8Z" fill="#0370C8"/>
<path id="Vector_22" d="M15.2452 6.4942C13.618 6.45511 13.8806 6.03808 12.2487 5.99993C12.1829 5.99899 12.12 5.97237 12.0736 5.92573C12.0271 5.8791 12.0007 5.81616 12 5.75033V4.25037C12 4.21713 12.0067 4.18423 12.0196 4.15359C12.0325 4.12295 12.0513 4.09517 12.075 4.07188C12.0987 4.04859 12.1268 4.03024 12.1577 4.01792C12.1886 4.00559 12.2216 3.99952 12.2548 4.00007C13.882 4.03917 13.6194 4.4562 15.2513 4.49435C15.3171 4.49528 15.38 4.52191 15.4264 4.56854C15.4729 4.61517 15.4993 4.67812 15.5 4.74394V6.2439C15.5 6.27714 15.4933 6.31004 15.4804 6.34068C15.4675 6.37133 15.4487 6.3991 15.425 6.4224C15.4013 6.44569 15.3732 6.46403 15.3423 6.47636C15.3114 6.48869 15.2784 6.49475 15.2452 6.4942Z" fill="url(#paint2_linear_206_6328)"/>
<path id="Vector_23" opacity="0.05" d="M20.5 9.5H3.5V10H20.5V9.5Z" fill="black"/>
<path id="Vector_24" opacity="0.07" d="M20.5 9.75H3.5V10H20.5V9.75Z" fill="black"/>
</g>
<defs>
<linearGradient id="paint0_linear_206_6328" x1="8.749" y1="0.0234997" x2="13.4065" y2="12.8195" gradientUnits="userSpaceOnUse">
<stop stop-color="#32BDEF"/>
<stop offset="1" stop-color="#1EA2E4"/>
</linearGradient>
<linearGradient id="paint1_linear_206_6328" x1="8.643" y1="6.9385" x2="16.694" y2="29.0585" gradientUnits="userSpaceOnUse">
<stop stop-color="#32BDEF"/>
<stop offset="1" stop-color="#1EA2E4"/>
</linearGradient>
<linearGradient id="paint2_linear_206_6328" x1="12.5126" y1="4.36531" x2="14.1796" y2="6.70462" gradientUnits="userSpaceOnUse">
<stop stop-color="#21AD64"/>
<stop offset="1" stop-color="#088242"/>
</linearGradient>
</defs>
</svg>
