<svg width="24" height="24" viewBox="0 0 24 24" fill="none" xmlns="http://www.w3.org/2000/svg">
<g id="event-accepted-tentatively">
<path id="Vector" d="M3 20V6H21V20C21 20.55 20.55 21 20 21H4C3.45 21 3 20.55 3 20Z" fill="url(#paint0_linear_206_6410)"/>
<path id="Vector_2" d="M11.8235 9.3015L10.763 11.6795L8.17401 11.953C8.00751 11.9705 7.94051 12.177 8.06451 12.2895L9.99851 14.0325L9.45851 16.58C9.42401 16.744 9.59951 16.8715 9.74451 16.7875L12 15.486L14.2555 16.787C14.4005 16.8705 14.576 16.743 14.5415 16.5795L14.0015 14.032L15.9355 12.289C16.06 12.177 15.993 11.9705 15.826 11.9525L13.237 11.679L12.1765 9.301C12.1085 9.1485 11.8915 9.1485 11.8235 9.3015Z" fill="white"/>
<path id="Vector_3" d="M21 4V7H3V4C3 3.45 3.45 3 4 3H20C20.55 3 21 3.45 21 4Z" fill="url(#paint1_linear_206_6410)"/>
<path id="Vector_4" opacity="0.05" d="M17.75 6.25C16.9215 6.25 16.25 5.5785 16.25 4.75V3H19.25V4.75C19.25 5.5785 18.5785 6.25 17.75 6.25Z" fill="black"/>
<path id="Vector_5" opacity="0.07" d="M17.75 5.875C17.1285 5.875 16.625 5.3715 16.625 4.75V3H18.875V4.75C18.875 5.3715 18.3715 5.875 17.75 5.875Z" fill="black"/>
<path id="Vector_6" opacity="0.05" d="M6.25 6.25C5.4215 6.25 4.75 5.5785 4.75 4.75V3H7.75V4.75C7.75 5.5785 7.0785 6.25 6.25 6.25Z" fill="black"/>
<path id="Vector_7" opacity="0.07" d="M6.25 5.875C5.6285 5.875 5.125 5.3715 5.125 4.75V3H7.375V4.75C7.375 5.3715 6.8715 5.875 6.25 5.875Z" fill="black"/>
<path id="Vector_8" d="M6.25 5.5C5.836 5.5 5.5 5.164 5.5 4.75V2.75C5.5 2.336 5.836 2 6.25 2C6.664 2 7 2.336 7 2.75V4.75C7 5.164 6.664 5.5 6.25 5.5Z" fill="#3CCBF4"/>
<path id="Vector_9" d="M17.75 5.5C17.336 5.5 17 5.164 17 4.75V2.75C17 2.336 17.336 2 17.75 2C18.164 2 18.5 2.336 18.5 2.75V4.75C18.5 5.164 18.164 5.5 17.75 5.5Z" fill="#3CCBF4"/>
<path id="Vector_10" opacity="0.2" d="M20.111 21C20.6015 20.9985 20.9985 20.6015 21 20.111V13.393C20.3495 13.145 19.6485 13 18.911 13C15.6465 13 13 15.6465 13 18.911C13 19.6485 13.145 20.3495 13.393 21H20.111Z" fill="url(#paint2_radial_206_6410)"/>
<path id="Vector_11" d="M19 24C21.7614 24 24 21.7614 24 19C24 16.2386 21.7614 14 19 14C16.2386 14 14 16.2386 14 19C14 21.7614 16.2386 24 19 24Z" fill="url(#paint3_linear_206_6410)"/>
<path id="Vector_12" d="M19 23C21.2091 23 23 21.2091 23 19C23 16.7909 21.2091 15 19 15C16.7909 15 15 16.7909 15 19C15 21.2091 16.7909 23 19 23Z" fill="url(#paint4_radial_206_6410)"/>
<path id="Vector_13" d="M20.45 21.85C20.35 21.9 20.25 21.85 20.2 21.75L18.85 19.1C18.8 19 18.85 18.9 18.95 18.85C19.05 18.8 19.15 18.85 19.2 18.95L20.55 21.6C20.6 21.65 20.55 21.8 20.45 21.85Z" fill="#D83B01"/>
<path id="Vector_14" d="M19 19.2C18.95 19.2 18.9 19.2 18.85 19.15C18.8 19.1 18.8 18.95 18.85 18.9L20.95 16.8C21 16.75 21.15 16.75 21.2 16.8C21.25 16.85 21.25 17 21.2 17.05L19.1 19.15C19.1 19.15 19.05 19.2 19 19.2Z" fill="#45494D"/>
<path id="Vector_15" d="M19 19.3C18.95 19.3 18.9 19.3 18.85 19.25L16.9 18.3C16.75 18.25 16.7 18.05 16.75 17.9C16.8 17.75 17 17.7 17.15 17.75L19.1 18.7C19.25 18.75 19.3 18.95 19.25 19.1C19.25 19.25 19.1 19.3 19 19.3Z" fill="#45494D"/>
<path id="Vector_16" d="M19 19.5C19.2761 19.5 19.5 19.2761 19.5 19C19.5 18.7239 19.2761 18.5 19 18.5C18.7239 18.5 18.5 18.7239 18.5 19C18.5 19.2761 18.7239 19.5 19 19.5Z" fill="#1E2021"/>
</g>
<defs>
<linearGradient id="paint0_linear_206_6410" x1="3.207" y1="6.831" x2="17.6575" y2="17.3855" gradientUnits="userSpaceOnUse">
<stop stop-color="#28AFEA"/>
<stop offset="1" stop-color="#047ED6"/>
</linearGradient>
<linearGradient id="paint1_linear_206_6410" x1="3.21" y1="3.304" x2="20.599" y2="6.84" gradientUnits="userSpaceOnUse">
<stop stop-color="#0077D2"/>
<stop offset="1" stop-color="#0B59A2"/>
</linearGradient>
<radialGradient id="paint2_radial_206_6410" cx="0" cy="0" r="1" gradientUnits="userSpaceOnUse" gradientTransform="translate(18.796 18.844) scale(5.617)">
<stop offset="0.847"/>
<stop offset="1" stop-opacity="0"/>
</radialGradient>
<linearGradient id="paint3_linear_206_6410" x1="15.4645" y1="15.4645" x2="22.5355" y2="22.5355" gradientUnits="userSpaceOnUse">
<stop stop-color="#889097"/>
<stop offset="1" stop-color="#64717C"/>
</linearGradient>
<radialGradient id="paint4_radial_206_6410" cx="0" cy="0" r="1" gradientUnits="userSpaceOnUse" gradientTransform="translate(18.974 15.093) scale(8.914)">
<stop stop-color="#FAFAFB"/>
<stop offset="1" stop-color="#C8CDD1"/>
</radialGradient>
</defs>
</svg>
