<svg width="24" height="24" viewBox="0 0 24 24" fill="none" xmlns="http://www.w3.org/2000/svg">
<g id="event-accepted">
<path id="Vector" d="M3 20V6H21V20C21 20.55 20.55 21 20 21H4C3.45 21 3 20.55 3 20Z" fill="url(#paint0_linear_206_6397)"/>
<path id="Vector_2" d="M11.8235 9.3015L10.763 11.6795L8.174 11.953C8.0075 11.9705 7.9405 12.177 8.0645 12.2895L9.9985 14.0325L9.4585 16.58C9.424 16.744 9.5995 16.8715 9.7445 16.7875L12 15.486L14.2555 16.787C14.4005 16.8705 14.576 16.743 14.5415 16.5795L14.0015 14.032L15.9355 12.289C16.06 12.177 15.993 11.9705 15.826 11.9525L13.237 11.679L12.1765 9.301C12.1085 9.1485 11.8915 9.1485 11.8235 9.3015Z" fill="white"/>
<path id="Vector_3" d="M21 4V7H3V4C3 3.45 3.45 3 4 3H20C20.55 3 21 3.45 21 4Z" fill="url(#paint1_linear_206_6397)"/>
<path id="Vector_4" opacity="0.05" d="M17.75 6.25C16.9215 6.25 16.25 5.5785 16.25 4.75V3H19.25V4.75C19.25 5.5785 18.5785 6.25 17.75 6.25Z" fill="black"/>
<path id="Vector_5" opacity="0.07" d="M17.75 5.875C17.1285 5.875 16.625 5.3715 16.625 4.75V3H18.875V4.75C18.875 5.3715 18.3715 5.875 17.75 5.875Z" fill="black"/>
<path id="Vector_6" opacity="0.05" d="M6.25 6.25C5.4215 6.25 4.75 5.5785 4.75 4.75V3H7.75V4.75C7.75 5.5785 7.0785 6.25 6.25 6.25Z" fill="black"/>
<path id="Vector_7" opacity="0.07" d="M6.25 5.875C5.6285 5.875 5.125 5.3715 5.125 4.75V3H7.375V4.75C7.375 5.3715 6.8715 5.875 6.25 5.875Z" fill="black"/>
<path id="Vector_8" d="M6.25 5.5C5.836 5.5 5.5 5.164 5.5 4.75V2.75C5.5 2.336 5.836 2 6.25 2C6.664 2 7 2.336 7 2.75V4.75C7 5.164 6.664 5.5 6.25 5.5Z" fill="#3CCBF4"/>
<path id="Vector_9" d="M17.75 5.5C17.336 5.5 17 5.164 17 4.75V2.75C17 2.336 17.336 2 17.75 2C18.164 2 18.5 2.336 18.5 2.75V4.75C18.5 5.164 18.164 5.5 17.75 5.5Z" fill="#3CCBF4"/>
<path id="Vector_10" d="M19 13C15.6865 13 13 15.6865 13 19C13 19.7025 13.127 20.3735 13.3485 21H20C20.55 21 21 20.55 21 20V13.3485C20.3735 13.127 19.7025 13 19 13Z" fill="url(#paint2_radial_206_6397)"/>
<path id="Vector_11" d="M24 19C24 21.761 21.761 24 19 24C16.239 24 14 21.761 14 19C14 16.239 16.239 14 19 14C21.761 14 24 16.239 24 19Z" fill="url(#paint3_linear_206_6397)"/>
<path id="Vector_12" d="M18.323 21.177L16.323 19.177C16.2255 19.0795 16.2255 18.921 16.323 18.8235L16.6765 18.47C16.774 18.3725 16.9325 18.3725 17.03 18.47L18.5 19.9395L21.2195 17.22C21.317 17.1225 21.4755 17.1225 21.573 17.22L21.9265 17.5735C22.024 17.671 22.024 17.8295 21.9265 17.927L18.6765 21.177C18.579 21.2745 18.421 21.2745 18.323 21.177Z" fill="white"/>
</g>
<defs>
<linearGradient id="paint0_linear_206_6397" x1="3.207" y1="6.831" x2="17.6575" y2="17.3855" gradientUnits="userSpaceOnUse">
<stop stop-color="#28AFEA"/>
<stop offset="1" stop-color="#047ED6"/>
</linearGradient>
<linearGradient id="paint1_linear_206_6397" x1="3.21" y1="3.304" x2="20.599" y2="6.84" gradientUnits="userSpaceOnUse">
<stop stop-color="#0077D2"/>
<stop offset="1" stop-color="#0B59A2"/>
</linearGradient>
<radialGradient id="paint2_radial_206_6397" cx="0" cy="0" r="1" gradientUnits="userSpaceOnUse" gradientTransform="translate(19.0105 19.021) scale(5.8785)">
<stop/>
<stop offset="1" stop-opacity="0"/>
</radialGradient>
<linearGradient id="paint3_linear_206_6397" x1="15.4645" y1="15.4645" x2="22.5355" y2="22.535" gradientUnits="userSpaceOnUse">
<stop stop-color="#21AD64"/>
<stop offset="1" stop-color="#088242"/>
</linearGradient>
</defs>
</svg>
