<svg width="24" height="24" viewBox="0 0 24 24" fill="none" xmlns="http://www.w3.org/2000/svg">
<g id="favorite-window" clip-path="url(#clip0_206_6488)">
<path id="Vector" d="M2 19V7.5H22V19C22 19.55 21.55 20 21 20H3C2.45 20 2 19.55 2 19Z" fill="url(#paint0_linear_206_6488)"/>
<path id="Vector_2" d="M22 5V7.5H2V5C2 4.45 2.45 4 3 4H21C21.55 4 22 4.45 22 5Z" fill="url(#paint1_linear_206_6488)"/>
<path id="Vector_3" d="M3.75 6.5C4.16421 6.5 4.5 6.16421 4.5 5.75C4.5 5.33579 4.16421 5 3.75 5C3.33579 5 3 5.33579 3 5.75C3 6.16421 3.33579 6.5 3.75 6.5Z" fill="url(#paint2_linear_206_6488)"/>
<path id="Vector_4" d="M6.25 6.5C6.66421 6.5 7 6.16421 7 5.75C7 5.33579 6.66421 5 6.25 5C5.83579 5 5.5 5.33579 5.5 5.75C5.5 6.16421 5.83579 6.5 6.25 6.5Z" fill="url(#paint3_linear_206_6488)"/>
<path id="Vector_5" d="M8.75 6.5C9.16421 6.5 9.5 6.16421 9.5 5.75C9.5 5.33579 9.16421 5 8.75 5C8.33579 5 8 5.33579 8 5.75C8 6.16421 8.33579 6.5 8.75 6.5Z" fill="url(#paint4_linear_206_6488)"/>
<path id="Vector_6" opacity="0.05" d="M22 19V17.2325L20.8855 17.115L19.678 14.405C19.557 14.134 19.297 13.9655 19 13.9655C18.702 13.9655 18.443 14.134 18.323 14.405L17.116 17.1145L14.1655 17.426C13.869 17.457 13.629 17.652 13.5375 17.936C13.446 18.2185 13.5265 18.5175 13.7465 18.715L15.172 20H21C21.55 20 22 19.55 22 19Z" fill="black"/>
<path id="Vector_7" opacity="0.07" d="M22 19V17.4835L20.716 17.348L19.4495 14.506C19.3695 14.3265 19.197 14.215 19 14.215C18.803 14.215 18.631 14.3265 18.5515 14.506L17.2855 17.3475L14.1915 17.674C13.9955 17.6945 13.836 17.824 13.7755 18.012C13.715 18.1995 13.768 18.3975 13.914 18.5285L15.5455 20H21C21.55 20 22 19.55 22 19Z" fill="black"/>
<path id="Vector_8" d="M19.221 14.6085L20.5465 17.5815L23.7835 17.9235C23.992 17.9455 24.0755 18.2035 23.92 18.344L21.502 20.523L22.1775 23.7075C22.221 23.9125 22.0015 24.072 21.82 23.9675L19 22.3405L16.1805 23.967C15.999 24.0715 15.7795 23.912 15.823 23.707L16.4985 20.5225L14.0805 18.3435C13.925 18.2035 14.009 17.945 14.217 17.923L17.454 17.581L18.7795 14.608C18.864 14.4175 19.1355 14.4175 19.221 14.6085Z" fill="url(#paint5_linear_206_6488)"/>
</g>
<defs>
<linearGradient id="paint0_linear_206_6488" x1="8.30571" y1="7.69191" x2="12.742" y2="21.3773" gradientUnits="userSpaceOnUse">
<stop stop-color="#7DD8F3"/>
<stop offset="1" stop-color="#45B0D0"/>
</linearGradient>
<linearGradient id="paint1_linear_206_6488" x1="2.307" y1="3.8705" x2="21.468" y2="7.7665" gradientUnits="userSpaceOnUse">
<stop stop-color="#0077D2"/>
<stop offset="1" stop-color="#0B59A2"/>
</linearGradient>
<linearGradient id="paint2_linear_206_6488" x1="3.3755" y1="5.208" x2="4.016" y2="6.1345" gradientUnits="userSpaceOnUse">
<stop stop-color="#75DAFF"/>
<stop offset="1" stop-color="#49BEF1"/>
</linearGradient>
<linearGradient id="paint3_linear_206_6488" x1="5.8755" y1="5.208" x2="6.516" y2="6.1345" gradientUnits="userSpaceOnUse">
<stop stop-color="#75DAFF"/>
<stop offset="1" stop-color="#49BEF1"/>
</linearGradient>
<linearGradient id="paint4_linear_206_6488" x1="8.3755" y1="5.208" x2="9.016" y2="6.1345" gradientUnits="userSpaceOnUse">
<stop stop-color="#75DAFF"/>
<stop offset="1" stop-color="#49BEF1"/>
</linearGradient>
<linearGradient id="paint5_linear_206_6488" x1="15.3735" y1="14.893" x2="22.4095" y2="24.3065" gradientUnits="userSpaceOnUse">
<stop stop-color="#FFDA1C"/>
<stop offset="1" stop-color="#FEB705"/>
</linearGradient>
<clipPath id="clip0_206_6488">
<rect width="24" height="24" fill="white"/>
</clipPath>
</defs>
</svg>
