<svg width="24" height="24" viewBox="0 0 24 24" fill="none" xmlns="http://www.w3.org/2000/svg">
<g id="file-path">
<path id="Vector" d="M0.5 7.6V16.4C0.5 17.0075 1.0145 17.5 1.65 17.5H22.35C22.9855 17.5 23.5 17.0075 23.5 16.4V7.6C23.5 6.9925 22.9855 6.5 22.35 6.5H1.65C1.0145 6.5 0.5 6.9925 0.5 7.6Z" fill="url(#paint0_linear_206_6501)"/>
<path id="Vector_2" d="M13.25 15C13.6642 15 14 14.6642 14 14.25C14 13.8358 13.6642 13.5 13.25 13.5C12.8358 13.5 12.5 13.8358 12.5 14.25C12.5 14.6642 12.8358 15 13.25 15Z" fill="url(#paint1_linear_206_6501)"/>
<path id="Vector_3" d="M10.75 15C11.1642 15 11.5 14.6642 11.5 14.25C11.5 13.8358 11.1642 13.5 10.75 13.5C10.3358 13.5 10 13.8358 10 14.25C10 14.6642 10.3358 15 10.75 15Z" fill="url(#paint2_linear_206_6501)"/>
<path id="Vector_4" d="M6.75 9H5.5L2.5 15H3.75L6.75 9Z" fill="url(#paint3_linear_206_6501)"/>
<path id="Vector_5" d="M10.25 9H9L6 15H7.25L10.25 9Z" fill="url(#paint4_linear_206_6501)"/>
</g>
<defs>
<linearGradient id="paint0_linear_206_6501" x1="7.75157" y1="6.66888" x2="10.8615" y2="19.2061" gradientUnits="userSpaceOnUse">
<stop stop-color="#7DD8F3"/>
<stop offset="1" stop-color="#45B0D0"/>
</linearGradient>
<linearGradient id="paint1_linear_206_6501" x1="13.0207" y1="13.5656" x2="13.2664" y2="15.1625" gradientUnits="userSpaceOnUse">
<stop stop-color="#0D61A9"/>
<stop offset="1" stop-color="#16528C"/>
</linearGradient>
<linearGradient id="paint2_linear_206_6501" x1="10.5207" y1="13.5656" x2="10.7664" y2="15.1625" gradientUnits="userSpaceOnUse">
<stop stop-color="#0D61A9"/>
<stop offset="1" stop-color="#16528C"/>
</linearGradient>
<linearGradient id="paint3_linear_206_6501" x1="3.97539" y1="9.26238" x2="5.3316" y2="15.5066" gradientUnits="userSpaceOnUse">
<stop stop-color="#0D61A9"/>
<stop offset="1" stop-color="#16528C"/>
</linearGradient>
<linearGradient id="paint4_linear_206_6501" x1="7.47539" y1="9.26238" x2="8.8316" y2="15.5066" gradientUnits="userSpaceOnUse">
<stop stop-color="#0D61A9"/>
<stop offset="1" stop-color="#16528C"/>
</linearGradient>
</defs>
</svg>
