<svg width="24" height="24" viewBox="0 0 24 24" fill="none" xmlns="http://www.w3.org/2000/svg">
<g id="file-submodule">
<path id="Vector" d="M12.207 5.207L10.939 3.939C10.658 3.658 10.2765 3.5 9.8785 3.5H2.5C1.9475 3.5 1.5 3.9475 1.5 4.5V19.5C1.5 20.0525 1.9475 20.5 2.5 20.5H21.5C22.0525 20.5 22.5 20.0525 22.5 19.5V6.5C22.5 5.9475 22.0525 5.5 21.5 5.5H12.914C12.649 5.5 12.3945 5.3945 12.207 5.207Z" fill="url(#paint0_linear_206_6507)"/>
<path id="Vector_2" d="M10.793 7.207L12.427 5.573C12.4735 5.5265 12.537 5.5 12.6035 5.5H21.5C22.0525 5.5 22.5 5.9475 22.5 6.5V19.5C22.5 20.0525 22.0525 20.5 21.5 20.5H2.5C1.9475 20.5 1.5 20.0525 1.5 19.5V7.75C1.5 7.612 1.612 7.5 1.75 7.5H10.086C10.351 7.5 10.6055 7.3945 10.793 7.207Z" fill="url(#paint1_linear_206_6507)"/>
<path id="Vector_3" d="M6.25 14.5H11.586C11.851 14.5 12.1055 14.3945 12.2925 14.2075L13.927 12.573C13.9735 12.5265 14.037 12.5 14.1035 12.5H14.414C14.149 12.5 13.8945 12.3945 13.707 12.207L12.439 10.939C12.158 10.658 11.7765 10.5 11.379 10.5H7C6.4475 10.5 6 10.9475 6 11.5V14.75C6 14.612 6.112 14.5 6.25 14.5Z" fill="url(#paint2_linear_206_6507)"/>
<path id="Vector_4" d="M14.1035 12.5C14.037 12.5 13.9735 12.5265 13.927 12.573L12.293 14.207C12.1055 14.3945 11.851 14.5 11.586 14.5H6.25C6.112 14.5 6 14.612 6 14.75V20.5H21.5C22.0525 20.5 22.5 20.0525 22.5 19.5V12.5H14.1035Z" fill="url(#paint3_linear_206_6507)"/>
</g>
<defs>
<linearGradient id="paint0_linear_206_6507" x1="12" y1="3.354" x2="12" y2="7.4885" gradientUnits="userSpaceOnUse">
<stop stop-color="#EBA600"/>
<stop offset="1" stop-color="#C28200"/>
</linearGradient>
<linearGradient id="paint1_linear_206_6507" x1="12" y1="5.427" x2="12" y2="20.4915" gradientUnits="userSpaceOnUse">
<stop stop-color="#FFD869"/>
<stop offset="1" stop-color="#D99800"/>
</linearGradient>
<linearGradient id="paint2_linear_206_6507" x1="10.207" y1="14.2135" x2="10.207" y2="10.833" gradientUnits="userSpaceOnUse">
<stop stop-color="#C28200"/>
<stop offset="1" stop-color="#EBA600"/>
</linearGradient>
<linearGradient id="paint3_linear_206_6507" x1="14.25" y1="20.539" x2="14.25" y2="13.137" gradientUnits="userSpaceOnUse">
<stop stop-color="#FEC52B"/>
<stop offset="1" stop-color="#FFD869"/>
</linearGradient>
</defs>
</svg>
