<svg width="24" height="24" viewBox="0 0 24 24" fill="none" xmlns="http://www.w3.org/2000/svg">
<g id="filter">
<path id="Vector" d="M21 5H3C2.4475 5 2 4.5525 2 4C2 3.4475 2.4475 3 3 3H21C21.5525 3 22 3.4475 22 4C22 4.5525 21.5525 5 21 5Z" fill="url(#paint0_linear_206_6512)"/>
<path id="Vector_2" d="M14 13.5H10L3.5 5H20.5L14 13.5Z" fill="url(#paint1_linear_206_6512)"/>
<path id="Vector_3" d="M14 13.5H10V21.4995C10 21.871 10.391 22.113 10.7235 21.9465L13.447 20.5845C13.786 20.4155 14 20.069 14 19.6905V13.5Z" fill="url(#paint2_linear_206_6512)"/>
</g>
<defs>
<linearGradient id="paint0_linear_206_6512" x1="2" y1="4" x2="22" y2="4" gradientUnits="userSpaceOnUse">
<stop stop-color="#42A3F2"/>
<stop offset="1" stop-color="#42A4EB"/>
</linearGradient>
<linearGradient id="paint1_linear_206_6512" x1="3.7965" y1="9.25" x2="20.9105" y2="9.25" gradientUnits="userSpaceOnUse">
<stop stop-color="#3079D6"/>
<stop offset="1" stop-color="#297CD2"/>
</linearGradient>
<linearGradient id="paint2_linear_206_6512" x1="10" y1="17.75" x2="14" y2="17.75" gradientUnits="userSpaceOnUse">
<stop stop-color="#1D59B3"/>
<stop offset="1" stop-color="#195BBC"/>
</linearGradient>
</defs>
</svg>
