<svg width="24" height="24" viewBox="0 0 24 24" fill="none" xmlns="http://www.w3.org/2000/svg">
<g id="flow">
<path id="Vector" d="M5.513 19.0005C5.237 19.0005 5.013 18.777 5.013 18.501C5.013 18.2245 5.2365 18.001 5.5125 18.0005L18.5 17.988C18.6335 17.988 18.759 17.936 18.8535 17.841C18.948 17.747 18.9995 17.621 18.9995 17.4875L18.988 6.5C18.988 6.2245 18.7635 6.0005 18.488 6.0005H18.4875L5.5 6.013C5.5 6.013 5.5 6.013 5.4995 6.013C5.2235 6.013 4.9995 5.7895 4.9995 5.5135C4.9995 5.237 5.223 5.0135 5.499 5.013L18.4865 5.0005C18.487 5.0005 18.4875 5.0005 18.488 5.0005C19.3145 5.0005 19.9875 5.6725 19.988 6.499L19.9995 17.4865C19.9995 17.8875 19.844 18.264 19.5615 18.5475C19.2785 18.831 18.902 18.9875 18.501 18.988L5.513 19.0005Z" fill="#64717C"/>
<path id="Vector_2" d="M7.002 7.9845L4.0155 8C3.466 8.0005 3.016 7.5515 3.0155 7.002L3 4.0155C2.9995 3.466 3.4485 3.016 3.998 3.0155L6.9845 3C7.534 2.9995 7.984 3.4485 7.9845 3.998L8 6.9845C8.0005 7.534 7.5515 7.984 7.002 7.9845Z" fill="url(#paint0_linear_206_6539)"/>
<path id="Vector_3" d="M15.002 7.9845L12.0155 8C11.466 8.0005 11.016 7.5515 11.0155 7.002L11 4.0155C10.9995 3.466 11.4485 3.016 11.998 3.0155L14.9845 3C15.534 2.9995 15.984 3.4485 15.9845 3.998L16 6.9845C16.0005 7.534 15.5515 7.984 15.002 7.9845Z" fill="url(#paint1_linear_206_6539)"/>
<path id="Vector_4" d="M21.002 14.4845L18.0155 14.5C17.466 14.5005 17.016 14.0515 17.0155 13.502L17 10.5155C16.9995 9.966 17.4485 9.516 17.998 9.5155L20.9845 9.5C21.534 9.4995 21.984 9.9485 21.9845 10.498L22 13.4845C22.0005 14.034 21.5515 14.484 21.002 14.4845Z" fill="url(#paint2_linear_206_6539)"/>
<path id="Vector_5" d="M15.002 20.9845L12.0155 21C11.466 21.0005 11.016 20.5515 11.0155 20.002L11 17.0155C10.9995 16.466 11.4485 16.016 11.998 16.0155L14.9845 16C15.534 15.9995 15.984 16.4485 15.9845 16.998L16 19.9845C16.0005 20.534 15.5515 20.984 15.002 20.9845Z" fill="url(#paint3_linear_206_6539)"/>
<path id="Vector_6" d="M7.002 20.9845L4.0155 21C3.466 21.0005 3.016 20.5515 3.0155 20.002L3 17.0155C2.9995 16.466 3.4485 16.016 3.998 16.0155L6.9845 16C7.534 15.9995 7.984 16.4485 7.9845 16.998L8 19.9845C8.0005 20.534 7.5515 20.984 7.002 20.9845Z" fill="url(#paint4_linear_206_6539)"/>
</g>
<defs>
<linearGradient id="paint0_linear_206_6539" x1="4.747" y1="3.0525" x2="6.2115" y2="7.813" gradientUnits="userSpaceOnUse">
<stop stop-color="#2AA4F4"/>
<stop offset="1" stop-color="#007AD9"/>
</linearGradient>
<linearGradient id="paint1_linear_206_6539" x1="12.747" y1="3.0525" x2="14.2115" y2="7.813" gradientUnits="userSpaceOnUse">
<stop stop-color="#2AA4F4"/>
<stop offset="1" stop-color="#007AD9"/>
</linearGradient>
<linearGradient id="paint2_linear_206_6539" x1="18.747" y1="9.5525" x2="20.2115" y2="14.3125" gradientUnits="userSpaceOnUse">
<stop stop-color="#2AA4F4"/>
<stop offset="1" stop-color="#007AD9"/>
</linearGradient>
<linearGradient id="paint3_linear_206_6539" x1="12.747" y1="16.0525" x2="14.2115" y2="20.813" gradientUnits="userSpaceOnUse">
<stop stop-color="#2AA4F4"/>
<stop offset="1" stop-color="#007AD9"/>
</linearGradient>
<linearGradient id="paint4_linear_206_6539" x1="4.747" y1="16.0525" x2="6.2115" y2="20.813" gradientUnits="userSpaceOnUse">
<stop stop-color="#2AA4F4"/>
<stop offset="1" stop-color="#007AD9"/>
</linearGradient>
</defs>
</svg>
