<svg width="24" height="24" viewBox="0 0 24 24" fill="none" xmlns="http://www.w3.org/2000/svg">
<g id="fonts-folder">
<path id="Vector" d="M22.25 20.5H1.75C1.0595 20.5 0.5 19.9405 0.5 19.25V3.75C0.5 3.0595 1.0595 2.5 1.75 2.5H7.5485C8.308 2.5 9.026 2.845 9.5005 3.4385L10.75 5H22.25C22.9405 5 23.5 5.5595 23.5 6.25V19.25C23.5 19.9405 22.9405 20.5 22.25 20.5Z" fill="url(#paint0_linear_206_6595)"/>
<path id="Vector_2" d="M0.5 18.9375V19.25C0.5 19.9405 1.0595 20.5 1.75 20.5H22.25C22.9405 20.5 23.5 19.9405 23.5 19.25V18.9375H0.5Z" fill="url(#paint1_linear_206_6595)"/>
<path id="Vector_3" d="M22.25 5.5H10.75L10.1315 5.912C9.557 6.2955 8.8815 6.5 8.1905 6.5H1.75C1.0595 6.5 0.5 7.0595 0.5 7.75V18.75C0.5 19.4405 1.0595 20 1.75 20H22.25C22.9405 20 23.5 19.4405 23.5 18.75V6.75C23.5 6.0595 22.9405 5.5 22.25 5.5Z" fill="url(#paint2_linear_206_6595)"/>
<path id="Vector_4" d="M22.25 20H1.75C1.0595 20 0.5 19.4405 0.5 18.75V8.25C0.5 7.5595 1.0595 7 1.75 7H8.378C9.069 7 9.7445 6.7955 10.3195 6.412L10.9375 6H22.25C22.9405 6 23.5 6.5595 23.5 7.25V18.75C23.5 19.4405 22.9405 20 22.25 20Z" fill="url(#paint3_radial_206_6595)"/>
<path id="Vector_5" d="M16.125 17.5H15.7565L12.3495 8.73899C12.237 8.45099 11.7625 8.45099 11.6505 8.73899L8.2435 17.5H7.875C7.668 17.5 7.5 17.668 7.5 17.875C7.5 18.082 7.668 18.25 7.875 18.25H9.375C9.582 18.25 9.75 18.082 9.75 17.875C9.75 17.668 9.582 17.5 9.375 17.5H9.0485L9.972 15.125H14.028L14.9515 17.5H14.625C14.418 17.5 14.25 17.668 14.25 17.875C14.25 18.082 14.418 18.25 14.625 18.25H16.125C16.332 18.25 16.5 18.082 16.5 17.875C16.5 17.668 16.332 17.5 16.125 17.5ZM10.2635 14.375L12 9.90949L13.7365 14.375H10.2635Z" fill="url(#paint4_linear_206_6595)"/>
</g>
<defs>
<linearGradient id="paint0_linear_206_6595" x1="-3.509" y1="4.654" x2="19.6935" y2="16.7665" gradientUnits="userSpaceOnUse">
<stop stop-color="#FAC017"/>
<stop offset="0.909" stop-color="#E1AB2D"/>
</linearGradient>
<linearGradient id="paint1_linear_206_6595" x1="8.4325" y1="19.6435" x2="22.4825" y2="19.896" gradientUnits="userSpaceOnUse">
<stop stop-color="#E3A917"/>
<stop offset="0.464" stop-color="#D79C1E"/>
</linearGradient>
<linearGradient id="paint2_linear_206_6595" x1="-2.4395" y1="6.382" x2="17.984" y2="15.389" gradientUnits="userSpaceOnUse">
<stop offset="0.34" stop-color="#FFEFB2"/>
<stop offset="0.485" stop-color="#FFEDAD"/>
<stop offset="0.652" stop-color="#FFE99F"/>
<stop offset="0.828" stop-color="#FEE289"/>
<stop offset="1" stop-color="#FED86B"/>
</linearGradient>
<radialGradient id="paint3_radial_206_6595" cx="0" cy="0" r="1" gradientUnits="userSpaceOnUse" gradientTransform="translate(18.918 24.6585) scale(26.9375)">
<stop offset="0.199" stop-color="#FEC832"/>
<stop offset="0.601" stop-color="#FCD667"/>
<stop offset="0.68" stop-color="#FDDA75"/>
<stop offset="0.886" stop-color="#FEE496"/>
<stop offset="1" stop-color="#FFE8A2"/>
</radialGradient>
<linearGradient id="paint4_linear_206_6595" x1="8.323" y1="10.5795" x2="13.62" y2="19.754" gradientUnits="userSpaceOnUse">
<stop stop-color="#C78902"/>
<stop offset="0.914" stop-color="#986700"/>
</linearGradient>
</defs>
</svg>
