<svg width="24" height="24" viewBox="0 0 24 24" fill="none" xmlns="http://www.w3.org/2000/svg">
<g id="forward">
<path id="Vector" d="M19.21 12.7005L9.7005 22.21C9.3135 22.597 8.6865 22.597 8.2995 22.21L6.29 20.2005C5.903 19.8135 5.903 19.1865 6.29 18.7995L15.7995 9.29001C16.1865 8.90301 16.8135 8.90301 17.2005 9.29001L19.21 11.2995C19.5965 11.6865 19.5965 12.3135 19.21 12.7005Z" fill="url(#paint0_linear_206_6619)"/>
<path id="Vector_2" d="M15.7995 14.71L6.29 5.20051C5.903 4.81351 5.903 4.18651 6.29 3.79951L8.2995 1.79001C8.6865 1.40301 9.3135 1.40301 9.7005 1.79001L19.21 11.2995C19.597 11.6865 19.597 12.3135 19.21 12.7005L17.2005 14.71C16.8135 15.0965 16.1865 15.0965 15.7995 14.71Z" fill="url(#paint1_linear_206_6619)"/>
</g>
<defs>
<linearGradient id="paint0_linear_206_6619" x1="6.773" y1="21.727" x2="15.314" y2="13.186" gradientUnits="userSpaceOnUse">
<stop offset="0.365" stop-color="#199AE0"/>
<stop offset="0.699" stop-color="#1898DE"/>
<stop offset="0.819" stop-color="#1691D8"/>
<stop offset="0.905" stop-color="#1186CC"/>
<stop offset="0.974" stop-color="#0A75BC"/>
<stop offset="1" stop-color="#076CB3"/>
</linearGradient>
<linearGradient id="paint1_linear_206_6619" x1="18.1405" y1="13.6405" x2="7.1425" y2="2.64251" gradientUnits="userSpaceOnUse">
<stop stop-color="#32BDEF"/>
<stop offset="1" stop-color="#1EA2E4"/>
</linearGradient>
</defs>
</svg>
