<svg width="24" height="24" viewBox="0 0 24 24" fill="none" xmlns="http://www.w3.org/2000/svg">
<g id="group-folder">
<path id="Vector" d="M12.207 5.207L10.939 3.939C10.658 3.658 10.2765 3.5 9.8785 3.5H3C2.4475 3.5 2 3.9475 2 4.5V7.75L3 18.5C3 19.0525 3.4475 19.5 4 19.5H20C20.5525 19.5 21 19.0525 21 18.5V7C21 6.4475 20.5525 6 20 6L12.914 5.5C12.649 5.5 12.3945 5.3945 12.207 5.207Z" fill="url(#paint0_linear_206_6723)"/>
<path id="Vector_2" d="M10.793 7.207L12.427 5.573C12.4735 5.5265 12.537 5.5 12.6035 5.5H21C21.5525 5.5 22 5.9475 22 6.5V19.5C22 20.0525 21.5525 20.5 21 20.5H3C2.4475 20.5 2 20.0525 2 19.5V7.75C2 7.612 2.112 7.5 2.25 7.5H10.086C10.351 7.5 10.6055 7.3945 10.793 7.207Z" fill="url(#paint1_linear_206_6723)"/>
<path id="Vector_3" opacity="0.05" d="M21 15.5C19.895 15.5 19 16.395 19 17.5C19 18.595 19.88 19.485 20.975 19.5H21C21.365 19.5 21.705 19.4 22 19.23V15.77C21.705 15.6 21.365 15.5 21 15.5ZM21 19.5H20.975C20.46 19.5 19.945 19.615 19.48 19.835C18.72 18.985 17.645 18.5 16.5 18.5C15.025 18.5 13.73 19.305 13.04 20.5H21C21.5 20.5 21.92 20.13 21.99 19.645C21.675 19.555 21.345 19.5 21 19.5ZM16.5 13.5C15.12 13.5 14 14.62 14 16C14 17.38 15.12 18.5 16.5 18.5C17.88 18.5 19 17.38 19 16C19 14.62 17.88 13.5 16.5 13.5Z" fill="black"/>
<path id="Vector_4" opacity="0.07" d="M21 15.75C20.035 15.75 19.25 16.535 19.25 17.5C19.25 18.465 20.035 19.25 21 19.25C21.37 19.25 21.72 19.135 22 18.93V16.07C21.72 15.865 21.37 15.75 21 15.75ZM20.975 19.75C20.43 19.75 19.895 19.885 19.42 20.15C18.71 19.27 17.635 18.75 16.5 18.75C15.165 18.75 13.995 19.445 13.335 20.5H21C21.415 20.5 21.77 20.245 21.92 19.885C21.62 19.8 21.305 19.75 20.975 19.75ZM16.5 13.75C15.26 13.75 14.25 14.76 14.25 16C14.25 17.24 15.26 18.25 16.5 18.25C17.74 18.25 18.75 17.24 18.75 16C18.75 14.76 17.74 13.75 16.5 13.75Z" fill="black"/>
<path id="Vector_5" d="M16.5 18C17.6046 18 18.5 17.1046 18.5 16C18.5 14.8954 17.6046 14 16.5 14C15.3954 14 14.5 14.8954 14.5 16C14.5 17.1046 15.3954 18 16.5 18Z" fill="url(#paint2_linear_206_6723)"/>
<path id="Vector_6" d="M20.975 20C19.339 20 18 21.317 18 22.927V23.561C18 23.805 18.1985 24 18.4465 24H23.554C23.8015 24 24 23.805 24 23.561V22.927C23.9505 21.2685 22.6115 20 20.975 20Z" fill="#0078D4"/>
<path id="Vector_7" d="M16.5 19C14.567 19 13 20.567 13 22.5V23.5C13 23.776 13.224 24 13.5 24H19.5C19.776 24 20 23.776 20 23.5V22.5C20 20.567 18.433 19 16.5 19Z" fill="url(#paint3_linear_206_6723)"/>
<path id="Vector_8" d="M21 19C21.8284 19 22.5 18.3284 22.5 17.5C22.5 16.6716 21.8284 16 21 16C20.1716 16 19.5 16.6716 19.5 17.5C19.5 18.3284 20.1716 19 21 19Z" fill="#0078D4"/>
</g>
<defs>
<linearGradient id="paint0_linear_206_6723" x1="11.5" y1="3.3625" x2="11.5" y2="7.254" gradientUnits="userSpaceOnUse">
<stop stop-color="#EBA600"/>
<stop offset="1" stop-color="#C28200"/>
</linearGradient>
<linearGradient id="paint1_linear_206_6723" x1="12" y1="5.427" x2="12" y2="20.4915" gradientUnits="userSpaceOnUse">
<stop stop-color="#FFD869"/>
<stop offset="1" stop-color="#FEC52B"/>
</linearGradient>
<linearGradient id="paint2_linear_206_6723" x1="14.5" y1="16" x2="18.5" y2="16" gradientUnits="userSpaceOnUse">
<stop stop-color="#32BDEF"/>
<stop offset="1" stop-color="#1EA2E4"/>
</linearGradient>
<linearGradient id="paint3_linear_206_6723" x1="13" y1="21.5" x2="20" y2="21.5" gradientUnits="userSpaceOnUse">
<stop stop-color="#32BDEF"/>
<stop offset="1" stop-color="#1EA2E4"/>
</linearGradient>
</defs>
</svg>
