<svg width="24" height="24" viewBox="0 0 24 24" fill="none" xmlns="http://www.w3.org/2000/svg">
<g id="hide-sidepanel">
<path id="Vector" d="M16.8775 3H4C3.4475 3 3 3.4475 3 4V20C3 20.5525 3.4475 21 4 21H18V4.1225C18 3.5025 17.4975 3 16.8775 3Z" fill="url(#paint0_linear_206_6824)"/>
<path id="Vector_2" d="M12.5 3H20C20.5525 3 21 3.4475 21 4V20C21 20.5525 20.5525 21 20 21H12.5V3Z" fill="url(#paint1_linear_206_6824)"/>
<path id="Vector_3" d="M5.3335 5.5H4.6665C4.5745 5.5 4.5 5.4255 4.5 5.3335V4.6665C4.5 4.5745 4.5745 4.5 4.6665 4.5H5.333C5.4255 4.5 5.5 4.5745 5.5 4.6665V5.333C5.5 5.4255 5.4255 5.5 5.3335 5.5Z" fill="#057093"/>
<path id="Vector_4" d="M10.7835 5.5H6.7165C6.597 5.5 6.5 5.403 6.5 5.2835V4.7165C6.5 4.597 6.597 4.5 6.7165 4.5H10.7835C10.903 4.5 11 4.597 11 4.7165V5.2835C11 5.403 10.903 5.5 10.7835 5.5Z" fill="#057093"/>
<path id="Vector_5" d="M5.3335 7.5H4.6665C4.5745 7.5 4.5 7.4255 4.5 7.3335V6.667C4.5 6.5745 4.5745 6.5 4.6665 6.5H5.333C5.4255 6.5 5.5 6.5745 5.5 6.6665V7.333C5.5 7.4255 5.4255 7.5 5.3335 7.5Z" fill="#057093"/>
<path id="Vector_6" d="M10.7835 7.5H6.7165C6.597 7.5 6.5 7.403 6.5 7.2835V6.7165C6.5 6.597 6.597 6.5 6.7165 6.5H10.7835C10.903 6.5 11 6.597 11 6.7165V7.2835C11 7.403 10.903 7.5 10.7835 7.5Z" fill="#057093"/>
<path id="Vector_7" d="M5.3335 9.5H4.6665C4.5745 9.5 4.5 9.4255 4.5 9.3335V8.667C4.5 8.5745 4.5745 8.5 4.6665 8.5H5.333C5.4255 8.5 5.5 8.5745 5.5 8.6665V9.333C5.5 9.4255 5.4255 9.5 5.3335 9.5Z" fill="#057093"/>
<path id="Vector_8" d="M10.7835 9.5H6.7165C6.597 9.5 6.5 9.403 6.5 9.2835V8.7165C6.5 8.597 6.597 8.5 6.7165 8.5H10.7835C10.903 8.5 11 8.597 11 8.7165V9.2835C11 9.403 10.903 9.5 10.7835 9.5Z" fill="#057093"/>
<path id="Vector_9" d="M5.3335 11.5H4.6665C4.5745 11.5 4.5 11.4255 4.5 11.3335V10.667C4.5 10.5745 4.5745 10.5 4.6665 10.5H5.333C5.4255 10.5 5.5 10.5745 5.5 10.6665V11.333C5.5 11.4255 5.4255 11.5 5.3335 11.5Z" fill="#057093"/>
<path id="Vector_10" d="M10.7835 11.5H6.7165C6.597 11.5 6.5 11.403 6.5 11.2835V10.7165C6.5 10.597 6.597 10.5 6.7165 10.5H10.7835C10.903 10.5 11 10.597 11 10.7165V11.2835C11 11.403 10.903 11.5 10.7835 11.5Z" fill="#057093"/>
<path id="Vector_11" opacity="0.05" d="M16.25 10.658C16.0585 10.658 15.8775 10.5865 15.7395 10.4575L13.7075 8.548C13.5535 8.403 13.4685 8.2085 13.4685 8C13.4685 7.7915 13.553 7.597 13.7065 7.4525L15.7395 5.5425C15.8775 5.413 16.0585 5.342 16.25 5.342C16.617 5.342 16.9205 5.5965 16.971 5.9465L16.9785 6.035L16.979 9.96599L16.972 10.0455C16.9205 10.405 16.6175 10.658 16.25 10.658Z" fill="black"/>
<path id="Vector_12" opacity="0.07" d="M16.25 10.408C16.1225 10.408 16.0015 10.3605 15.9105 10.275L13.8785 8.3655C13.775 8.2685 13.7185 8.1385 13.7185 8C13.7185 7.8615 13.775 7.7315 13.878 7.6345L15.9105 5.725C16.0015 5.6395 16.122 5.592 16.25 5.592C16.4915 5.592 16.691 5.756 16.7235 5.982L16.729 6.0535V9.96599L16.7235 10.0195C16.691 10.244 16.492 10.408 16.25 10.408Z" fill="black"/>
<path id="Vector_13" d="M16.4765 6.01799C16.4515 5.84449 16.2135 5.78299 16.082 5.90699L14.05 7.81649C13.996 7.86699 13.969 7.93349 13.969 7.99999C13.969 8.06649 13.996 8.13299 14.05 8.18349L16.082 10.093C16.2135 10.217 16.4515 10.1555 16.4765 9.98199C16.478 9.97049 16.479 9.95849 16.479 9.94649V6.05299C16.479 6.04099 16.4785 6.02949 16.4765 6.01799Z" fill="url(#paint2_linear_206_6824)"/>
</g>
<defs>
<linearGradient id="paint0_linear_206_6824" x1="6.32312" y1="0.318487" x2="19.1728" y2="16.0377" gradientUnits="userSpaceOnUse">
<stop stop-color="#FCFCFC"/>
<stop offset="0.95" stop-color="#C3C9CD"/>
</linearGradient>
<linearGradient id="paint1_linear_206_6824" x1="12.5" y1="12" x2="21" y2="12" gradientUnits="userSpaceOnUse">
<stop stop-color="#1951A8"/>
<stop offset="0.175" stop-color="#1955B0"/>
<stop offset="0.505" stop-color="#195AB9"/>
<stop offset="1" stop-color="#195BBC"/>
</linearGradient>
<linearGradient id="paint2_linear_206_6824" x1="14.7604" y1="5.90804" x2="17.3546" y2="8.81657" gradientUnits="userSpaceOnUse">
<stop stop-color="#7DD8F3"/>
<stop offset="1" stop-color="#45B0D0"/>
</linearGradient>
</defs>
</svg>
