<svg width="24" height="24" viewBox="0 0 24 24" fill="none" xmlns="http://www.w3.org/2000/svg">
<g id="insert-column">
<path id="Vector" d="M1 7.4375V19.5625C1 20.0805 1.469 20.5 2.0475 20.5H21.9525C22.531 20.5 23 20.0805 23 19.5625V7.4375C23 6.9195 22.531 6.5 21.9525 6.5H2.0475C1.469 6.5 1 6.9195 1 7.4375Z" fill="url(#paint0_linear_206_6985)"/>
<path id="Vector_2" d="M17.5 6.5H12V20.5H17.5V6.5Z" fill="url(#paint1_linear_206_6985)"/>
<path id="Vector_3" d="M7 6.5H6V20.5H7V6.5Z" fill="url(#paint2_linear_206_6985)"/>
<path id="Vector_4" d="M17.6465 2.004H11.8535C11.539 2.004 11.382 2.384 11.604 2.606L14.3135 5.3155C14.5545 5.5565 14.9455 5.5565 15.1865 5.3155L17.896 2.606C18.118 2.384 17.961 2.004 17.6465 2.004Z" fill="url(#paint3_linear_206_6985)"/>
</g>
<defs>
<linearGradient id="paint0_linear_206_6985" x1="7.93629" y1="6.71494" x2="12.9776" y2="21.9893" gradientUnits="userSpaceOnUse">
<stop stop-color="#7DD8F3"/>
<stop offset="1" stop-color="#45B0D0"/>
</linearGradient>
<linearGradient id="paint1_linear_206_6985" x1="14.75" y1="6.47063" x2="14.75" y2="20.4495" gradientUnits="userSpaceOnUse">
<stop stop-color="#2AA4F4"/>
<stop offset="1" stop-color="#007AD9"/>
</linearGradient>
<linearGradient id="paint2_linear_206_6985" x1="6.36535" y1="7.11027" x2="11.6187" y2="9.17372" gradientUnits="userSpaceOnUse">
<stop stop-color="#32BDEF"/>
<stop offset="1" stop-color="#1EA2E4"/>
</linearGradient>
<linearGradient id="paint3_linear_206_6985" x1="11.5" y1="3.75012" x2="18" y2="3.75012" gradientUnits="userSpaceOnUse">
<stop stop-color="#FFD869"/>
<stop offset="0.765625" stop-color="#F2C032"/>
<stop offset="1" stop-color="#FFD869"/>
</linearGradient>
</defs>
</svg>
