<svg width="24" height="24" viewBox="0 0 24 24" fill="none" xmlns="http://www.w3.org/2000/svg">
<g id="leaf">
<path id="Vector" d="M4.9375 21.5011C4.73974 21.5011 4.54643 21.4424 4.38201 21.3326C4.21759 21.2227 4.08944 21.0665 4.01377 20.8838C3.93809 20.7011 3.91829 20.5001 3.95686 20.3061C3.99543 20.1121 4.09065 19.934 4.23047 19.7941L9.66797 14.3566C9.76082 14.2638 9.87105 14.1901 9.99236 14.1399C10.1137 14.0896 10.2437 14.0638 10.375 14.0638C10.5063 14.0638 10.6363 14.0896 10.7576 14.1399C10.879 14.1901 10.9892 14.2638 11.082 14.3566C11.1749 14.4495 11.2485 14.5597 11.2988 14.681C11.349 14.8023 11.3749 14.9323 11.3749 15.0636C11.3749 15.195 11.349 15.325 11.2988 15.4463C11.2485 15.5676 11.1749 15.6778 11.082 15.7707L5.64453 21.2082C5.55179 21.3012 5.44159 21.3749 5.32025 21.4252C5.19892 21.4755 5.06884 21.5013 4.9375 21.5011Z" fill="#21A366"/>
<path id="Vector_2" d="M20.9454 3.05581L6.72774 17.2734C5.30131 15.8465 4.5 13.9114 4.5 11.8938C4.5 9.87614 5.30131 7.9411 6.72774 6.51415C10.9546 2.28729 20.9454 3.05581 20.9454 3.05581Z" fill="#33C481"/>
<path id="Vector_3" d="M17.487 17.2734C16.0601 18.6998 14.125 19.5011 12.1074 19.5011C10.0897 19.5011 8.15468 18.6998 6.72773 17.2734L20.9454 3.05579C20.9454 3.05579 21.7139 13.0465 17.487 17.2734Z" fill="#21A366"/>
</g>
</svg>
