<svg width="24" height="24" viewBox="0 0 24 24" fill="none" xmlns="http://www.w3.org/2000/svg">
<g id="letterbox">
<path id="Vector" d="M7 4.5H17C19.7615 4.5 22 6.7385 22 9.5V20C22 20.5525 21.5525 21 21 21H7V4.5Z" fill="url(#paint0_linear_206_7140)"/>
<path id="Vector_2" d="M7 4.5C4.2385 4.5 2 6.7385 2 9.5V20C2 20.5525 2.4475 21 3 21H11C11.5525 21 12 20.5525 12 20V9.5C12 6.7385 9.7615 4.5 7 4.5Z" fill="url(#paint1_linear_206_7140)"/>
<path id="Vector_3" d="M8.5 10.5H5C4.724 10.5 4.5 10.276 4.5 10C4.5 9.724 4.724 9.5 5 9.5H8.5C8.776 9.5 9 9.724 9 10C9 10.276 8.776 10.5 8.5 10.5Z" fill="url(#paint2_linear_206_7140)"/>
<path id="Vector_4" d="M15 1.5H14V9H15V1.5Z" fill="#CF1928"/>
<path id="Vector_5" d="M16.5 3H14V1.5C14 1.224 14.224 1 14.5 1H16.5C16.776 1 17 1.224 17 1.5V2.5C17 2.776 16.776 3 16.5 3Z" fill="#CF1928"/>
<path id="Vector_6" d="M15 10C15.5523 10 16 9.55228 16 9C16 8.44772 15.5523 8 15 8C14.4477 8 14 8.44772 14 9C14 9.55228 14.4477 10 15 10Z" fill="#D9414F"/>
</g>
<defs>
<linearGradient id="paint0_linear_206_7140" x1="14.5" y1="4.46539" x2="14.5" y2="20.9404" gradientUnits="userSpaceOnUse">
<stop stop-color="#2AA4F4"/>
<stop offset="1" stop-color="#007AD9"/>
</linearGradient>
<linearGradient id="paint1_linear_206_7140" x1="3.6025" y1="5.485" x2="10.0915" y2="22.4725" gradientUnits="userSpaceOnUse">
<stop stop-color="#32BDEF"/>
<stop offset="1" stop-color="#1EA2E4"/>
</linearGradient>
<linearGradient id="paint2_linear_206_7140" x1="6.75" y1="9.4979" x2="6.75" y2="10.4964" gradientUnits="userSpaceOnUse">
<stop stop-color="#2AA4F4"/>
<stop offset="1" stop-color="#007AD9"/>
</linearGradient>
</defs>
</svg>
