<svg width="24" height="24" viewBox="0 0 24 24" fill="none" xmlns="http://www.w3.org/2000/svg">
<g id="link">
<path id="Vector" d="M3.891 20.109C5.746 21.964 8.7535 21.964 10.6085 20.109C11.475 19.2425 13.242 17.4755 14.1085 16.609C15.9635 14.754 15.9635 11.7465 14.1085 9.89149C12.2535 8.03649 9.246 8.03649 7.391 9.89149C6.5245 10.758 4.7575 12.525 3.891 13.3915C2.0365 15.246 2.0365 18.254 3.891 20.109ZM5.659 15.159C6.169 14.649 8.7775 12.0405 9.159 11.659C10.0375 10.7805 11.4625 10.7805 12.341 11.659C13.2195 12.5375 13.2195 13.9625 12.341 14.841C11.9595 15.2225 9.351 17.831 8.841 18.341C7.9625 19.2195 6.5375 19.2195 5.659 18.341C4.7805 17.4625 4.7805 16.0375 5.659 15.159Z" fill="#0078D4"/>
<path id="Vector_2" opacity="0.05" d="M11.8045 11.2545C11.8045 11.2545 11.5 10.5 12.1895 9.68901L12.874 9.00401C11.2915 8.21251 9.363 8.36151 7.911 9.44801C7.5 11 8.0985 12.7195 8.0985 12.7195C8.6185 12.1995 9.0345 11.7835 9.159 11.659C9.879 10.9395 10.9255 10.8065 11.8045 11.2545Z" fill="black"/>
<path id="Vector_3" opacity="0.07" d="M11.4135 11.0965C11.3725 10.7645 11.3245 10.0845 11.9245 9.42399C11.9595 9.38899 12.3845 8.95399 12.496 8.84249C11.175 8.28799 9.65149 8.39449 8.39999 9.12749C7.97549 10.4165 8.24149 11.8885 8.39999 12.4185C8.77149 12.047 9.06199 11.7565 9.15949 11.659C9.77399 11.044 10.627 10.857 11.4135 11.0965Z" fill="black"/>
<path id="Vector_4" d="M20.109 3.89101C18.254 2.03601 15.2465 2.03601 13.3915 3.89101C12.525 4.75751 10.758 6.52451 9.89149 7.39101C8.03649 9.24601 8.03649 12.2535 9.89149 14.1085C11.7465 15.9635 14.754 15.9635 16.609 14.1085C17.4755 13.242 19.2425 11.475 20.109 10.6085C21.9635 8.75401 21.9635 5.74601 20.109 3.89101ZM18.341 8.84101C17.831 9.35101 15.2225 11.9595 14.841 12.341C13.9625 13.2195 12.5375 13.2195 11.659 12.341C10.7805 11.4625 10.7805 10.0375 11.659 9.15901C12.0405 8.77751 14.649 6.16901 15.159 5.65901C16.0375 4.78051 17.4625 4.78051 18.341 5.65901C19.2195 6.53751 19.2195 7.96251 18.341 8.84101Z" fill="#1B9DE2"/>
<path id="Vector_5" opacity="0.05" d="M12.193 12.738C12.193 12.738 12.5 13.5 11.8105 14.311L11.126 14.996C12.7085 15.7875 14.637 15.6385 16.089 14.552C16.5 13 15.9015 11.2805 15.9015 11.2805C15.3815 11.8005 14.9655 12.2165 14.841 12.341C14.121 13.0605 13.045 13.1975 12.193 12.738Z" fill="black"/>
<path id="Vector_6" opacity="0.07" d="M12.594 12.903C12.635 13.235 12.6755 13.9155 12.0755 14.576C12.0405 14.611 11.6155 15.036 11.504 15.1475C12.825 15.702 14.363 15.596 15.602 14.8335C16.0265 13.5445 15.759 12.111 15.6 11.5815C15.2285 11.953 14.938 12.2435 14.8405 12.341C14.226 12.956 13.3365 13.1355 12.594 12.903Z" fill="black"/>
<path id="Vector_7" d="M12.341 11.659C13.2195 12.5375 13.2195 13.9625 12.341 14.841C11.9595 15.2225 9.351 17.831 8.841 18.341L10.609 20.109C11.4755 19.2425 13.2425 17.4755 14.109 16.609C15.964 14.754 15.964 11.7465 14.109 9.89151L12.341 11.659Z" fill="#0078D4"/>
</g>
</svg>
