<svg width="24" height="24" viewBox="0 0 24 24" fill="none" xmlns="http://www.w3.org/2000/svg">
<g id="list-view">
<path id="Vector" d="M14 21.5H5.5C4.9475 21.5 4.5 21.0525 4.5 20.5V3.5C4.5 2.9475 4.9475 2.5 5.5 2.5H18.5C19.0525 2.5 19.5 2.9475 19.5 3.5V16L14 21.5Z" fill="url(#paint0_linear_206_7253)"/>
<path id="Vector_2" d="M19.5 16H15C14.4475 16 14 16.4475 14 17V21.5L19.5 16Z" fill="url(#paint1_linear_206_7253)"/>
<path id="Vector_3" d="M16.5 5.5H11.5C11.224 5.5 11 5.724 11 6C11 6.276 11.224 6.5 11.5 6.5H16.5C16.776 6.5 17 6.276 17 6C17 5.724 16.776 5.5 16.5 5.5Z" fill="#057093"/>
<path id="Vector_4" d="M7 6.5H9.5C9.776 6.5 10 6.276 10 6C10 5.724 9.776 5.5 9.5 5.5H7C6.724 5.5 6.5 5.724 6.5 6C6.5 6.276 6.724 6.5 7 6.5Z" fill="#057093"/>
<path id="Vector_5" d="M7 8.5H9.5C9.776 8.5 10 8.276 10 8C10 7.724 9.776 7.5 9.5 7.5H7C6.724 7.5 6.5 7.724 6.5 8C6.5 8.276 6.724 8.5 7 8.5Z" fill="#057093"/>
<path id="Vector_6" d="M7 10.5H9.5C9.776 10.5 10 10.276 10 10C10 9.724 9.776 9.5 9.5 9.5H7C6.724 9.5 6.5 9.724 6.5 10C6.5 10.276 6.724 10.5 7 10.5Z" fill="#057093"/>
<path id="Vector_7" d="M7 12.5H9.5C9.776 12.5 10 12.276 10 12C10 11.724 9.776 11.5 9.5 11.5H7C6.724 11.5 6.5 11.724 6.5 12C6.5 12.276 6.724 12.5 7 12.5Z" fill="#057093"/>
<path id="Vector_8" d="M7 14.5H9.5C9.776 14.5 10 14.276 10 14C10 13.724 9.776 13.5 9.5 13.5H7C6.724 13.5 6.5 13.724 6.5 14C6.5 14.276 6.724 14.5 7 14.5Z" fill="#057093"/>
<path id="Vector_9" d="M11.5 14.5H16C16.276 14.5 16.5 14.276 16.5 14C16.5 13.724 16.276 13.5 16 13.5H11.5C11.224 13.5 11 13.724 11 14C11 14.276 11.224 14.5 11.5 14.5Z" fill="#057093"/>
<path id="Vector_10" d="M11.5 10.5H17C17.276 10.5 17.5 10.276 17.5 10C17.5 9.724 17.276 9.5 17 9.5H11.5C11.224 9.5 11 9.724 11 10C11 10.276 11.224 10.5 11.5 10.5Z" fill="#057093"/>
<path id="Vector_11" d="M11.5 8.5H15C15.276 8.5 15.5 8.276 15.5 8C15.5 7.724 15.276 7.5 15 7.5H11.5C11.224 7.5 11 7.724 11 8C11 8.276 11.224 8.5 11.5 8.5Z" fill="#057093"/>
<path id="Vector_12" d="M11.5 12.5H15C15.276 12.5 15.5 12.276 15.5 12C15.5 11.724 15.276 11.5 15 11.5H11.5C11.224 11.5 11 11.724 11 12C11 12.276 11.224 12.5 11.5 12.5Z" fill="#057093"/>
</g>
<defs>
<linearGradient id="paint0_linear_206_7253" x1="9.22929" y1="2.79171" x2="19.7783" y2="18.8491" gradientUnits="userSpaceOnUse">
<stop stop-color="#7DD8F3"/>
<stop offset="1" stop-color="#45B0D0"/>
</linearGradient>
<linearGradient id="paint1_linear_206_7253" x1="14.2645" y1="16.264" x2="16.8" y2="18.8" gradientUnits="userSpaceOnUse">
<stop stop-color="#3079D6"/>
<stop offset="1" stop-color="#297CD2"/>
</linearGradient>
</defs>
</svg>
