<svg width="24" height="24" viewBox="0 0 24 24" fill="none" xmlns="http://www.w3.org/2000/svg">
<g id="low-risk">
<path id="Vector" d="M11.6065 2.184L1.241 18.3755C0.525997 19.492 1.328 20.9575 2.654 20.9575H21.358C22.684 20.9575 23.486 19.491 22.7705 18.3745L12.394 2.184C12.21 1.8965 11.7905 1.897 11.6065 2.184Z" fill="url(#paint0_linear_206_7286)"/>
<path id="Vector_2" d="M12.6905 2.65151L12.421 2.23051C12.2375 1.94351 11.763 1.94351 11.579 2.23051L11.3095 2.65151C11.1605 2.88401 11.2285 3.19301 11.461 3.34201C11.6305 3.45051 11.8405 3.44451 12 3.34251C12.081 3.39451 12.175 3.42101 12.27 3.42101C12.3625 3.42101 12.4555 3.39551 12.539 3.34201C12.7715 3.19301 12.8395 2.88401 12.6905 2.65151Z" fill="url(#paint1_linear_206_7286)"/>
<path id="Vector_3" d="M6.9515 10.883C7.1165 10.883 7.2775 10.8015 7.373 10.6525L7.904 9.8235C8.053 9.591 7.985 9.2815 7.7525 9.133C7.519 8.983 7.2105 9.052 7.062 9.2845L6.531 10.1135C6.382 10.346 6.45 10.6555 6.6825 10.804C6.766 10.8575 6.8595 10.883 6.9515 10.883Z" fill="url(#paint2_linear_206_7286)"/>
<path id="Vector_4" d="M6.15949 11.6205C5.92649 11.47 5.61749 11.5395 5.46899 11.772L4.93799 12.601C4.78899 12.8335 4.85699 13.143 5.08949 13.2915C5.17299 13.345 5.26649 13.3705 5.35849 13.3705C5.52349 13.3705 5.68449 13.289 5.77999 13.14L6.31099 12.311C6.45999 12.0785 6.39199 11.769 6.15949 11.6205Z" fill="url(#paint3_linear_206_7286)"/>
<path id="Vector_5" d="M5.09951 19.9595H4.11501C3.83851 19.9595 3.61501 20.183 3.61501 20.4595C3.61501 20.736 3.83851 20.9595 4.11501 20.9595H5.09951C5.37601 20.9595 5.59951 20.736 5.59951 20.4595C5.59951 20.183 5.37601 19.9595 5.09951 19.9595Z" fill="url(#paint4_linear_206_7286)"/>
<path id="Vector_6" d="M8.053 19.9595H7.0685C6.792 19.9595 6.5685 20.183 6.5685 20.4595C6.5685 20.736 6.792 20.9595 7.0685 20.9595H8.053C8.3295 20.9595 8.553 20.736 8.553 20.4595C8.553 20.183 8.3295 19.9595 8.053 19.9595Z" fill="url(#paint5_linear_206_7286)"/>
<path id="Vector_7" d="M2.97449 16.595C2.74199 16.4455 2.43249 16.513 2.28399 16.7465L1.75249 17.5755C1.60349 17.808 1.67099 18.117 1.90399 18.266C1.98749 18.3195 2.08099 18.345 2.17299 18.345C2.33749 18.345 2.49899 18.264 2.59449 18.1145L3.12599 17.2855C3.27499 17.053 3.20749 16.744 2.97449 16.595Z" fill="url(#paint6_linear_206_7286)"/>
<path id="Vector_8" d="M13.4505 5.69199C13.5455 5.84099 13.707 5.92249 13.872 5.92249C13.9645 5.92249 14.0575 5.89699 14.141 5.84349C14.3735 5.69499 14.4415 5.38549 14.2925 5.15299L13.7615 4.32399C13.613 4.09199 13.304 4.02249 13.071 4.17249C12.8385 4.32099 12.7705 4.63049 12.9195 4.86299L13.4505 5.69199Z" fill="url(#paint7_linear_206_7286)"/>
<path id="Vector_9" d="M2.376 19.895C2.204 19.8145 2.072 19.661 2.013 19.474C1.93 19.211 1.65 19.065 1.3855 19.1475C1.1225 19.2305 0.975997 19.5115 1.059 19.775C1.2015 20.227 1.5265 20.6005 1.95 20.8005C2.019 20.8325 2.091 20.848 2.1625 20.848C2.3505 20.848 2.53 20.742 2.6155 20.561C2.733 20.3105 2.626 20.0125 2.376 19.895Z" fill="url(#paint8_linear_206_7286)"/>
<path id="Vector_10" d="M4.1875 15.6275L4.7185 14.7985C4.8675 14.566 4.7995 14.2565 4.567 14.108C4.334 13.9575 4.025 14.027 3.8765 14.2595L3.3455 15.0885C3.1965 15.321 3.2645 15.6305 3.497 15.779C3.5805 15.8325 3.674 15.858 3.766 15.858C3.931 15.858 4.0925 15.7765 4.1875 15.6275Z" fill="url(#paint9_linear_206_7286)"/>
<path id="Vector_11" d="M9.345 6.64549C9.1115 6.49499 8.803 6.56449 8.6545 6.79699L8.1235 7.62599C7.9745 7.85849 8.0425 8.16799 8.275 8.31649C8.35849 8.36999 8.452 8.39549 8.544 8.39549C8.709 8.39549 8.87 8.31399 8.9655 8.16499L9.4965 7.33599C9.6455 7.10349 9.5775 6.79399 9.345 6.64549Z" fill="url(#paint10_linear_206_7286)"/>
<path id="Vector_12" d="M9.868 5.829C9.9515 5.8825 10.045 5.908 10.137 5.908C10.302 5.908 10.463 5.8265 10.5585 5.6775L11.0895 4.8485C11.2385 4.616 11.1705 4.3065 10.938 4.158C10.705 4.0075 10.396 4.077 10.2475 4.3095L9.71651 5.1385C9.56801 5.371 9.6355 5.6805 9.868 5.829Z" fill="url(#paint11_linear_206_7286)"/>
<path id="Vector_13" d="M19.8675 19.9595H18.883C18.6065 19.9595 18.383 20.183 18.383 20.4595C18.383 20.736 18.6065 20.9595 18.883 20.9595H19.8675C20.144 20.9595 20.3675 20.736 20.3675 20.4595C20.3675 20.183 20.144 19.9595 19.8675 19.9595Z" fill="url(#paint12_linear_206_7286)"/>
<path id="Vector_14" d="M20.1325 14.2735C19.984 14.0415 19.675 13.972 19.442 14.122C19.2095 14.2705 19.1415 14.58 19.2905 14.8125L19.8215 15.6415C19.9165 15.7905 20.078 15.872 20.243 15.872C20.3355 15.872 20.4285 15.8465 20.512 15.793C20.7445 15.6445 20.8125 15.335 20.6635 15.1025L20.1325 14.2735Z" fill="url(#paint13_linear_206_7286)"/>
<path id="Vector_15" d="M11.007 19.9595H10.0225C9.74601 19.9595 9.52251 20.183 9.52251 20.4595C9.52251 20.736 9.74601 20.9595 10.0225 20.9595H11.007C11.2835 20.9595 11.507 20.736 11.507 20.4595C11.507 20.183 11.283 19.9595 11.007 19.9595Z" fill="url(#paint14_linear_206_7286)"/>
<path id="Vector_16" d="M18.9195 13.3055C19.152 13.1565 19.22 12.8475 19.071 12.615L18.5395 11.7855C18.3905 11.5525 18.081 11.484 17.849 11.634C17.6165 11.783 17.5485 12.092 17.6975 12.3245L18.229 13.154C18.324 13.303 18.486 13.3845 18.6505 13.3845C18.7425 13.385 18.836 13.3595 18.9195 13.3055Z" fill="url(#paint15_linear_206_7286)"/>
<path id="Vector_17" d="M21.8355 18.3595C21.928 18.3595 22.021 18.334 22.1045 18.2805C22.337 18.132 22.405 17.8225 22.256 17.59L21.725 16.761C21.5765 16.5285 21.268 16.46 21.0345 16.6095C20.802 16.758 20.734 17.0675 20.883 17.3L21.414 18.129C21.5095 18.278 21.6705 18.3595 21.8355 18.3595Z" fill="url(#paint16_linear_206_7286)"/>
<path id="Vector_18" d="M22.6165 19.1655C22.3555 19.0795 22.0715 19.2205 21.984 19.4825C21.922 19.669 21.7875 19.821 21.615 19.899C21.3635 20.0135 21.252 20.309 21.366 20.561C21.45 20.7455 21.6315 20.8545 21.822 20.8545C21.891 20.8545 21.961 20.8405 22.028 20.81C22.454 20.617 22.7835 20.248 22.9335 19.798C23.0205 19.5355 22.879 19.253 22.6165 19.1655Z" fill="url(#paint17_linear_206_7286)"/>
<path id="Vector_19" d="M15.734 8.33049C15.9665 8.18199 16.0345 7.87249 15.8855 7.63999L15.3545 6.81099C15.206 6.57899 14.8965 6.50949 14.664 6.65949C14.4315 6.80799 14.3635 7.11749 14.5125 7.34999L15.0435 8.17899C15.1385 8.32799 15.3 8.40949 15.465 8.40949C15.557 8.40949 15.6505 8.38449 15.734 8.33049Z" fill="url(#paint18_linear_206_7286)"/>
<path id="Vector_20" d="M13.9605 19.9595H12.976C12.6995 19.9595 12.476 20.183 12.476 20.4595C12.476 20.736 12.6995 20.9595 12.976 20.9595H13.9605C14.237 20.9595 14.4605 20.736 14.4605 20.4595C14.4605 20.183 14.237 19.9595 13.9605 19.9595Z" fill="url(#paint19_linear_206_7286)"/>
<path id="Vector_21" d="M16.914 19.9595H15.9295C15.653 19.9595 15.4295 20.183 15.4295 20.4595C15.4295 20.736 15.653 20.9595 15.9295 20.9595H16.914C17.1905 20.9595 17.414 20.736 17.414 20.4595C17.414 20.183 17.1905 19.9595 16.914 19.9595Z" fill="url(#paint20_linear_206_7286)"/>
<path id="Vector_22" d="M16.947 9.29851C16.798 9.06501 16.4885 8.99751 16.2565 9.14701C16.0235 9.29601 15.956 9.605 16.105 9.8375L16.6365 10.6665C16.7315 10.816 16.8935 10.897 17.058 10.897C17.1505 10.897 17.2435 10.8715 17.327 10.818C17.56 10.669 17.6275 10.36 17.4785 10.1275L16.947 9.29851Z" fill="url(#paint21_linear_206_7286)"/>
<path id="Vector_23" d="M12.007 18.5C11.641 18.5 11.339 18.389 11.101 18.167C10.863 17.945 10.744 17.6765 10.744 17.3605C10.744 17.031 10.864 16.761 11.1045 16.5505C11.3445 16.34 11.6455 16.235 12.007 16.235C12.373 16.235 12.673 16.3415 12.906 16.554C13.1395 16.767 13.256 17.0355 13.256 17.3605C13.256 17.69 13.1405 17.962 12.9095 18.177C12.6785 18.392 12.3775 18.5 12.007 18.5ZM13.118 8.8605L12.8775 14.948C12.87 15.134 12.717 15.281 12.531 15.281H11.4415C11.255 15.281 11.102 15.1335 11.095 14.947L10.8675 8.86C10.86 8.6635 11.0175 8.5 11.214 8.5H12.772C12.9685 8.5 13.126 8.6635 13.118 8.8605Z" fill="url(#paint22_radial_206_7286)"/>
</g>
<defs>
<linearGradient id="paint0_linear_206_7286" x1="0.973465" y1="11.463" x2="23.0383" y2="11.463" gradientUnits="userSpaceOnUse">
<stop stop-color="#FFD869"/>
<stop offset="0.765625" stop-color="#F2C032"/>
<stop offset="1" stop-color="#FFD869"/>
</linearGradient>
<linearGradient id="paint1_linear_206_7286" x1="7.2995" y1="-4.49249" x2="24.108" y2="22.018" gradientUnits="userSpaceOnUse">
<stop stop-color="#FED100"/>
<stop offset="1" stop-color="#E36001"/>
</linearGradient>
<linearGradient id="paint2_linear_206_7286" x1="0.701497" y1="-0.309499" x2="17.51" y2="26.2015" gradientUnits="userSpaceOnUse">
<stop stop-color="#FED100"/>
<stop offset="1" stop-color="#E36001"/>
</linearGradient>
<linearGradient id="paint3_linear_206_7286" x1="-1.56001" y1="1.1245" x2="15.2485" y2="27.635" gradientUnits="userSpaceOnUse">
<stop stop-color="#FED100"/>
<stop offset="1" stop-color="#E36001"/>
</linearGradient>
<linearGradient id="paint4_linear_206_7286" x1="-5.90499" y1="3.8795" x2="10.9035" y2="30.39" gradientUnits="userSpaceOnUse">
<stop stop-color="#FED100"/>
<stop offset="1" stop-color="#E36001"/>
</linearGradient>
<linearGradient id="paint5_linear_206_7286" x1="-3.798" y1="2.5435" x2="13.0105" y2="29.054" gradientUnits="userSpaceOnUse">
<stop stop-color="#FED100"/>
<stop offset="1" stop-color="#E36001"/>
</linearGradient>
<linearGradient id="paint6_linear_206_7286" x1="-6.0815" y1="3.99101" x2="10.727" y2="30.502" gradientUnits="userSpaceOnUse">
<stop stop-color="#FED100"/>
<stop offset="1" stop-color="#E36001"/>
</linearGradient>
<linearGradient id="paint7_linear_206_7286" x1="7.5015" y1="-4.62051" x2="24.31" y2="21.89" gradientUnits="userSpaceOnUse">
<stop stop-color="#FED100"/>
<stop offset="1" stop-color="#E36001"/>
</linearGradient>
<linearGradient id="paint8_linear_206_7286" x1="-7.675" y1="5.00149" x2="9.1335" y2="31.512" gradientUnits="userSpaceOnUse">
<stop stop-color="#FED100"/>
<stop offset="1" stop-color="#E36001"/>
</linearGradient>
<linearGradient id="paint9_linear_206_7286" x1="-3.8205" y1="2.55798" x2="12.988" y2="29.0685" gradientUnits="userSpaceOnUse">
<stop stop-color="#FED100"/>
<stop offset="1" stop-color="#E36001"/>
</linearGradient>
<linearGradient id="paint10_linear_206_7286" x1="2.96199" y1="-1.74251" x2="19.7705" y2="24.768" gradientUnits="userSpaceOnUse">
<stop stop-color="#FED100"/>
<stop offset="1" stop-color="#E36001"/>
</linearGradient>
<linearGradient id="paint11_linear_206_7286" x1="5.22301" y1="-3.176" x2="22.0315" y2="23.3345" gradientUnits="userSpaceOnUse">
<stop stop-color="#FED100"/>
<stop offset="1" stop-color="#E36001"/>
</linearGradient>
<linearGradient id="paint12_linear_206_7286" x1="4.62899" y1="-2.7995" x2="21.437" y2="23.7115" gradientUnits="userSpaceOnUse">
<stop stop-color="#FED100"/>
<stop offset="1" stop-color="#E36001"/>
</linearGradient>
<linearGradient id="paint13_linear_206_7286" x1="7.54601" y1="-4.64898" x2="24.3545" y2="21.862" gradientUnits="userSpaceOnUse">
<stop stop-color="#FED100"/>
<stop offset="1" stop-color="#E36001"/>
</linearGradient>
<linearGradient id="paint14_linear_206_7286" x1="-1.69149" y1="1.208" x2="15.117" y2="27.7185" gradientUnits="userSpaceOnUse">
<stop stop-color="#FED100"/>
<stop offset="1" stop-color="#E36001"/>
</linearGradient>
<linearGradient id="paint15_linear_206_7286" x1="7.53501" y1="-4.64199" x2="24.3435" y2="21.8685" gradientUnits="userSpaceOnUse">
<stop stop-color="#FED100"/>
<stop offset="1" stop-color="#E36001"/>
</linearGradient>
<linearGradient id="paint16_linear_206_7286" x1="7.55699" y1="-4.65601" x2="24.3655" y2="21.8545" gradientUnits="userSpaceOnUse">
<stop stop-color="#FED100"/>
<stop offset="1" stop-color="#E36001"/>
</linearGradient>
<linearGradient id="paint17_linear_206_7286" x1="6.80999" y1="-4.18199" x2="23.6185" y2="22.3285" gradientUnits="userSpaceOnUse">
<stop stop-color="#FED100"/>
<stop offset="1" stop-color="#E36001"/>
</linearGradient>
<linearGradient id="paint18_linear_206_7286" x1="7.5125" y1="-4.62801" x2="24.321" y2="21.883" gradientUnits="userSpaceOnUse">
<stop stop-color="#FED100"/>
<stop offset="1" stop-color="#E36001"/>
</linearGradient>
<linearGradient id="paint19_linear_206_7286" x1="0.415499" y1="-0.127997" x2="17.224" y2="26.383" gradientUnits="userSpaceOnUse">
<stop stop-color="#FED100"/>
<stop offset="1" stop-color="#E36001"/>
</linearGradient>
<linearGradient id="paint20_linear_206_7286" x1="2.522" y1="-1.4635" x2="19.3305" y2="25.047" gradientUnits="userSpaceOnUse">
<stop stop-color="#FED100"/>
<stop offset="1" stop-color="#E36001"/>
</linearGradient>
<linearGradient id="paint21_linear_206_7286" x1="7.5235" y1="-4.635" x2="24.332" y2="21.876" gradientUnits="userSpaceOnUse">
<stop stop-color="#FED100"/>
<stop offset="1" stop-color="#E36001"/>
</linearGradient>
<radialGradient id="paint22_radial_206_7286" cx="0" cy="0" r="1" gradientUnits="userSpaceOnUse" gradientTransform="translate(9.0945 8.3905) scale(11.1815 11.1815)">
<stop stop-color="#4B4B4B"/>
<stop offset="0.531" stop-color="#393939"/>
<stop offset="1" stop-color="#252525"/>
</radialGradient>
</defs>
</svg>
