<svg width="24" height="24" viewBox="0 0 24 24" fill="none" xmlns="http://www.w3.org/2000/svg">
<g id="mail">
<path id="Vector" d="M21.5 14.726H2.5V8.27701C2.5 7.93401 2.676 7.61451 2.966 7.43151L11.199 2.23151C11.6885 1.92251 12.3115 1.92251 12.801 2.23151L21.034 7.43151C21.324 7.61501 21.5 7.93401 21.5 8.27701V14.726Z" fill="url(#paint0_linear_206_7310)"/>
<path id="Vector_2" d="M19.5 16.5H4.5V8C4.5 7.724 4.724 7.5 5 7.5H19C19.276 7.5 19.5 7.724 19.5 8V16.5Z" fill="url(#paint1_linear_206_7310)"/>
<path id="Vector_3" d="M21.5 8.5V19.128C21.5 19.6095 21.103 20 20.613 20H4.78L7.1815 16.8365L21.5 8.5Z" fill="url(#paint2_linear_206_7310)"/>
<path id="Vector_4" d="M2.5 8.5V19.128C2.5 19.6095 2.897 20 3.387 20H20.6135C20.8935 20 21.14 19.87 21.3025 19.671L2.5 8.5Z" fill="url(#paint3_linear_206_7310)"/>
</g>
<defs>
<linearGradient id="paint0_linear_206_7310" x1="9.4605" y1="2.85751" x2="12.5715" y2="13.3575" gradientUnits="userSpaceOnUse">
<stop stop-color="#0078D3"/>
<stop offset="1" stop-color="#0858A1"/>
</linearGradient>
<linearGradient id="paint1_linear_206_7310" x1="12" y1="7.697" x2="12" y2="14.242" gradientUnits="userSpaceOnUse">
<stop stop-color="white"/>
<stop offset="0.24" stop-color="#F8F8F7"/>
<stop offset="1" stop-color="#E3E3E1"/>
</linearGradient>
<linearGradient id="paint2_linear_206_7310" x1="12.943" y1="13.968" x2="18.9985" y2="22.6345" gradientUnits="userSpaceOnUse">
<stop stop-color="#3CCBF4"/>
<stop offset="1" stop-color="#1FA0E5"/>
</linearGradient>
<linearGradient id="paint3_linear_206_7310" x1="1.537" y1="13.618" x2="19.981" y2="22.5625" gradientUnits="userSpaceOnUse">
<stop stop-color="#28AFEA"/>
<stop offset="1" stop-color="#0B88DA"/>
</linearGradient>
</defs>
</svg>
