<svg width="24" height="24" viewBox="0 0 24 24" fill="none" xmlns="http://www.w3.org/2000/svg">
<g id="mail-network">
<path id="Vector" d="M12.5 16.45H11.5V18H12.5V16.45Z" fill="url(#paint0_linear_206_7325)"/>
<path id="Vector_2" d="M14.5 19.5H13V18.5C13 18.2 12.8 18 12.5 18H11.5C11.2 18 11 18.2 11 18.5V19.5H9.5C9.2 19.5 9 19.7 9 20V21C9 21.3 9.2 21.5 9.5 21.5H14.5C14.8 21.5 15 21.3 15 21V20C15 19.7 14.8 19.5 14.5 19.5Z" fill="#21A366"/>
<path id="Vector_3" d="M5.55 10.35L21 4.10001V15.6C21 16.1 20.6 16.45 20.15 16.45H5.55V10.35Z" fill="url(#paint1_linear_206_7325)"/>
<path id="Vector_4" opacity="0.05" d="M12.5 16H11.5V16.95H12.5V16Z" fill="black"/>
<path id="Vector_5" opacity="0.07" d="M12.5 16H11.5V16.7H12.5V16Z" fill="black"/>
<path id="Vector_6" d="M3 3.60001V15.6C3 16.1 3.4 16.45 3.85 16.45H20.15C20.35 16.45 20.55 16.35 20.7 16.25L3 3.60001Z" fill="url(#paint2_linear_206_7325)"/>
<path id="Vector_7" opacity="0.05" d="M3 3.79999H21V4.54999L13.6 10.3C12.65 11 11.35 11 10.45 10.3L3 4.54999V3.79999Z" fill="black"/>
<path id="Vector_8" opacity="0.07" d="M3 3.60001H21V4.35001L13.25 9.95001C12.5 10.5 11.5 10.5 10.75 9.95001L3 4.30001V3.60001Z" fill="black"/>
<path id="Vector_9" d="M3.85 2.5H20.15C20.6 2.5 21 2.9 21 3.4V4.15L12.95 9.55C12.35 9.95 11.6 9.95 11 9.55L3 4.1V3.4C3 2.9 3.4 2.5 3.85 2.5Z" fill="url(#paint3_linear_206_7325)"/>
<path id="Vector_10" d="M20.5 20H15V21H20.5C20.8 21 21 20.8 21 20.5C21 20.2 20.8 20 20.5 20Z" fill="url(#paint4_linear_206_7325)"/>
<path id="Vector_11" d="M3.5 20H9V21H3.5C3.2 21 3 20.8 3 20.5C3 20.2 3.2 20 3.5 20Z" fill="url(#paint5_linear_206_7325)"/>
</g>
<defs>
<linearGradient id="paint0_linear_206_7325" x1="12.0055" y1="18.1385" x2="12.0055" y2="16.317" gradientUnits="userSpaceOnUse">
<stop stop-color="#484B4F"/>
<stop offset="0.23" stop-color="#656D75"/>
<stop offset="0.367" stop-color="#727D86"/>
</linearGradient>
<linearGradient id="paint1_linear_206_7325" x1="10.936" y1="6.76751" x2="21.3285" y2="22.322" gradientUnits="userSpaceOnUse">
<stop stop-color="#28AFEA"/>
<stop offset="1" stop-color="#0B88DA"/>
</linearGradient>
<linearGradient id="paint2_linear_206_7325" x1="2.1885" y1="9.33701" x2="17.4275" y2="18.8295" gradientUnits="userSpaceOnUse">
<stop stop-color="#28AFEA"/>
<stop offset="1" stop-color="#0B88DA"/>
</linearGradient>
<linearGradient id="paint3_linear_206_7325" x1="8.67514" y1="2.61284" x2="10.4776" y2="11.1237" gradientUnits="userSpaceOnUse">
<stop stop-color="#7DD8F3"/>
<stop offset="1" stop-color="#45B0D0"/>
</linearGradient>
<linearGradient id="paint4_linear_206_7325" x1="15" y1="20.5" x2="21" y2="20.5" gradientUnits="userSpaceOnUse">
<stop stop-color="#484B4F"/>
<stop offset="0.23" stop-color="#656D75"/>
<stop offset="0.367" stop-color="#727D86"/>
</linearGradient>
<linearGradient id="paint5_linear_206_7325" x1="9" y1="20.5" x2="3" y2="20.5" gradientUnits="userSpaceOnUse">
<stop stop-color="#484B4F"/>
<stop offset="0.23" stop-color="#656D75"/>
<stop offset="0.367" stop-color="#727D86"/>
</linearGradient>
</defs>
</svg>
