<svg width="24" height="24" viewBox="0 0 24 24" fill="none" xmlns="http://www.w3.org/2000/svg">
<g id="map-marker">
<path id="Vector" d="M20 21.5H11V3.5H20C20.5525 3.5 21 3.9475 21 4.5V20.5C21 21.0525 20.5525 21.5 20 21.5Z" fill="url(#paint0_linear_206_7352)"/>
<path id="Vector_2" d="M7.2235 1.61199C7.153 1.57649 7.0765 1.55899 7 1.55899V19.559C7.0765 19.559 7.153 19.5765 7.2235 19.612L11 21.5V3.49999L7.2235 1.61199Z" fill="url(#paint1_linear_206_7352)"/>
<path id="Vector_3" d="M6.7765 1.612L3.553 3.2235C3.214 3.393 3 3.7395 3 4.118V20.691C3 21.0625 3.391 21.3045 3.7235 21.138L6.7765 19.6115C6.847 19.5765 6.9235 19.5585 7 19.5585V1.5585C6.9235 1.559 6.847 1.5765 6.7765 1.612Z" fill="url(#paint2_linear_206_7352)"/>
<path id="Vector_4" opacity="0.05" d="M21 4.5C21 3.9475 20.5525 3.5 20 3.5H12C11.679 4.27 11.5 5.114 11.5 6C11.5 7.761 12.2035 9.356 13.341 10.527C13.3475 10.5335 17.4895 14.6795 17.4895 14.6795C17.7715 14.9615 18.229 14.9615 18.511 14.6795C18.511 14.6795 19.845 13.3445 21.0005 12.188V4.5H21Z" fill="black"/>
<path id="Vector_5" opacity="0.07" d="M21 4.5C21 3.9475 20.5525 3.5 20 3.5H12.2755C11.94 4.266 11.75 5.11 11.75 6C11.75 7.6935 12.432 9.2215 13.52 10.3525C13.526 10.359 17.509 14.345 17.509 14.345C17.78 14.616 18.22 14.616 18.491 14.345C18.491 14.345 19.867 12.968 21 11.834V4.5Z" fill="black"/>
<path id="Vector_6" d="M22.3005 10.1785C23.351 9.098 24 7.6255 24 6C24 2.6865 21.3135 0 18 0C14.6865 0 12 2.6865 12 6C12 7.6255 12.649 9.098 13.6995 10.1785C13.7055 10.1845 17.529 14.0115 17.529 14.0115C17.7895 14.272 18.2115 14.272 18.472 14.0115C18.4715 14.0115 22.295 10.1845 22.3005 10.1785Z" fill="url(#paint3_linear_206_7352)"/>
<path id="Vector_7" d="M18 8.80001C19.5464 8.80001 20.8 7.54641 20.8 6.00001C20.8 4.45361 19.5464 3.20001 18 3.20001C16.4536 3.20001 15.2 4.45361 15.2 6.00001C15.2 7.54641 16.4536 8.80001 18 8.80001Z" fill="url(#paint4_radial_206_7352)"/>
<path id="Vector_8" d="M18 8.40001C19.3255 8.40001 20.4 7.32549 20.4 6.00001C20.4 4.67452 19.3255 3.60001 18 3.60001C16.6745 3.60001 15.6 4.67452 15.6 6.00001C15.6 7.32549 16.6745 8.40001 18 8.40001Z" fill="#F9F9F9"/>
</g>
<defs>
<linearGradient id="paint0_linear_206_7352" x1="13.2154" y1="0.818487" x2="26.0591" y2="11.2931" gradientUnits="userSpaceOnUse">
<stop stop-color="#FCFCFC"/>
<stop offset="0.95" stop-color="#C3C9CD"/>
</linearGradient>
<linearGradient id="paint1_linear_206_7352" x1="8.4614" y1="2.42824" x2="19.4032" y2="14.4977" gradientUnits="userSpaceOnUse">
<stop stop-color="#32BDEF"/>
<stop offset="1" stop-color="#1EA2E4"/>
</linearGradient>
<linearGradient id="paint2_linear_206_7352" x1="4.3886" y1="2.41707" x2="14.6781" y2="16.0434" gradientUnits="userSpaceOnUse">
<stop stop-color="#0D61A9"/>
<stop offset="1" stop-color="#16528C"/>
</linearGradient>
<linearGradient id="paint3_linear_206_7352" x1="13.758" y1="1.757" x2="22.242" y2="10.241" gradientUnits="userSpaceOnUse">
<stop stop-color="#D43A02"/>
<stop offset="1" stop-color="#B9360C"/>
</linearGradient>
<radialGradient id="paint4_radial_206_7352" cx="0" cy="0" r="1" gradientUnits="userSpaceOnUse" gradientTransform="translate(17.9995 5.99973) scale(2.7999)">
<stop offset="0.177"/>
<stop offset="1" stop-opacity="0"/>
</radialGradient>
</defs>
</svg>
