<svg width="24" height="24" viewBox="0 0 24 24" fill="none" xmlns="http://www.w3.org/2000/svg">
<g id="mastercard-credit-card">
<path id="Vector" d="M21.5625 4.5H2.4375C1.6435 4.5 1 5.1435 1 5.9375V18.0625C1 18.8565 1.6435 19.5 2.4375 19.5H21.5625C22.3565 19.5 23 18.8565 23 18.0625V5.9375C23 5.1435 22.3565 4.5 21.5625 4.5Z" fill="url(#paint0_linear_206_7378)"/>
<path id="Vector_2" d="M23 7H1V9H23V7Z" fill="url(#paint1_linear_206_7378)"/>
<path id="Vector_3" d="M21 12H3C2.724 12 2.5 11.776 2.5 11.5V10.5C2.5 10.224 2.724 10 3 10H21C21.276 10 21.5 10.224 21.5 10.5V11.5C21.5 11.776 21.276 12 21 12Z" fill="#A8E7FF"/>
<path id="Vector_4" d="M17.25 18C18.2165 18 19 17.2165 19 16.25C19 15.2835 18.2165 14.5 17.25 14.5C16.2835 14.5 15.5 15.2835 15.5 16.25C15.5 17.2165 16.2835 18 17.25 18Z" fill="#CF1928"/>
<path id="Vector_5" d="M19.513 18C20.4795 18 21.263 17.2165 21.263 16.25C21.263 15.2835 20.4795 14.5 19.513 14.5C18.5465 14.5 17.763 15.2835 17.763 16.25C17.763 17.2165 18.5465 18 19.513 18Z" fill="url(#paint2_linear_206_7378)"/>
<path id="Vector_6" d="M17.763 16.25C17.763 16.785 18.0035 17.263 18.3815 17.584C18.7595 17.263 19 16.785 19 16.25C19 15.715 18.7595 15.237 18.3815 14.916C18.0035 15.237 17.763 15.715 17.763 16.25Z" fill="#D97218"/>
</g>
<defs>
<linearGradient id="paint0_linear_206_7378" x1="10.1875" y1="5.5305" x2="14.374" y2="20.473" gradientUnits="userSpaceOnUse">
<stop stop-color="#32BDEF"/>
<stop offset="1" stop-color="#1EA2E4"/>
</linearGradient>
<linearGradient id="paint1_linear_206_7378" x1="1" y1="8" x2="23" y2="8" gradientUnits="userSpaceOnUse">
<stop stop-color="#45494D"/>
<stop offset="1" stop-color="#6D7479"/>
</linearGradient>
<linearGradient id="paint2_linear_206_7378" x1="17.763" y1="16.25" x2="21.263" y2="16.25" gradientUnits="userSpaceOnUse">
<stop stop-color="#FEDE00"/>
<stop offset="1" stop-color="#FFD000"/>
</linearGradient>
</defs>
</svg>
