<svg width="24" height="24" viewBox="0 0 24 24" fill="none" xmlns="http://www.w3.org/2000/svg">
<g id="multicast">
<path id="Vector" d="M19 20H13.5C12.673 20 12 19.327 12 18.5V5.5C12 4.673 12.673 4 13.5 4H19C19.2765 4 19.5 4.224 19.5 4.5C19.5 4.776 19.2765 5 19 5H13.5C13.224 5 13 5.2245 13 5.5V18.5C13 18.7755 13.224 19 13.5 19H19C19.2765 19 19.5 19.224 19.5 19.5C19.5 19.776 19.2765 20 19 20Z" fill="#64717C"/>
<path id="Vector_2" d="M12.5 11.5H6.5V12.5H12.5V11.5Z" fill="#64717C"/>
<path id="Vector_3" d="M8 15.5H3C2.4475 15.5 2 15.0525 2 14.5V9.5C2 8.9475 2.4475 8.5 3 8.5H8C8.5525 8.5 9 8.9475 9 9.5V14.5C9 15.0525 8.5525 15.5 8 15.5Z" fill="url(#paint0_linear_206_7553)"/>
<path id="Vector_4" d="M21 7H17C16.724 7 16.5 6.776 16.5 6.5V2.5C16.5 2.224 16.724 2 17 2H21C21.276 2 21.5 2.224 21.5 2.5V6.5C21.5 6.776 21.276 7 21 7Z" fill="url(#paint1_linear_206_7553)"/>
<path id="Vector_5" d="M21 14.5H17C16.724 14.5 16.5 14.276 16.5 14V10C16.5 9.724 16.724 9.5 17 9.5H21C21.276 9.5 21.5 9.724 21.5 10V14C21.5 14.276 21.276 14.5 21 14.5Z" fill="#DBE0E2"/>
<path id="Vector_6" d="M21 22H17C16.724 22 16.5 21.776 16.5 21.5V17.5C16.5 17.224 16.724 17 17 17H21C21.276 17 21.5 17.224 21.5 17.5V21.5C21.5 21.776 21.276 22 21 22Z" fill="url(#paint2_linear_206_7553)"/>
</g>
<defs>
<linearGradient id="paint0_linear_206_7553" x1="5.5" y1="15.471" x2="5.5" y2="8.85" gradientUnits="userSpaceOnUse">
<stop stop-color="#3079D6"/>
<stop offset="1" stop-color="#297CD2"/>
</linearGradient>
<linearGradient id="paint1_linear_206_7553" x1="16.5" y1="4.5" x2="21.5" y2="4.5" gradientUnits="userSpaceOnUse">
<stop stop-color="#42A3F2"/>
<stop offset="1" stop-color="#42A4EB"/>
</linearGradient>
<linearGradient id="paint2_linear_206_7553" x1="16.5" y1="19.5" x2="21.5" y2="19.5" gradientUnits="userSpaceOnUse">
<stop stop-color="#42A3F2"/>
<stop offset="1" stop-color="#42A4EB"/>
</linearGradient>
</defs>
</svg>
