<svg width="24" height="24" viewBox="0 0 24 24" fill="none" xmlns="http://www.w3.org/2000/svg">
<g id="name-tag">
<path id="Vector" d="M19.5 3.5V20.5C19.5 21.0525 19.0525 21.5 18.5 21.5H5.5C4.9475 21.5 4.5 21.0525 4.5 20.5V3.5C4.5 2.9475 4.9475 2.5 5.5 2.5H18.5C19.0525 2.5 19.5 2.9475 19.5 3.5Z" fill="url(#paint0_linear_206_7597)"/>
<path id="Vector_2" opacity="0.05" d="M12 13C9.791 13 8 14.791 8 17V19C8 19.5525 8.4475 20 9 20H15C15.5525 20 16 19.5525 16 19V17C16 14.791 14.209 13 12 13Z" fill="black"/>
<path id="Vector_3" opacity="0.07" d="M12 13.25C9.929 13.25 8.25 14.929 8.25 17V18.9C8.25 19.3695 8.6305 19.75 9.1 19.75H14.9C15.3695 19.75 15.75 19.3695 15.75 18.9V17C15.75 14.929 14.071 13.25 12 13.25Z" fill="black"/>
<path id="Vector_4" d="M12 13C13.3807 13 14.5 11.8807 14.5 10.5C14.5 9.11929 13.3807 8 12 8C10.6193 8 9.5 9.11929 9.5 10.5C9.5 11.8807 10.6193 13 12 13Z" fill="url(#paint1_radial_206_7597)"/>
<path id="Vector_5" d="M13.5 1.5H10.5C10.224 1.5 10 1.724 10 2V5C10 5.276 10.224 5.5 10.5 5.5H13.5C13.776 5.5 14 5.276 14 5V2C14 1.724 13.776 1.5 13.5 1.5ZM12 4.5C11.724 4.5 11.5 4.276 11.5 4C11.5 3.724 11.724 3.5 12 3.5C12.276 3.5 12.5 3.724 12.5 4C12.5 4.276 12.276 4.5 12 4.5Z" fill="url(#paint2_linear_206_7597)"/>
<path id="Vector_6" d="M10 10.5C10 9.3955 10.8955 8.5 12 8.5C13.1045 8.5 14 9.3955 14 10.5C14 11.6045 13.1045 12.5 12 12.5C10.8955 12.5 10 11.6045 10 10.5ZM12 13.5C10.067 13.5 8.5 15.067 8.5 17V18.8C8.5 19.1865 8.8135 19.5 9.2 19.5H14.8C15.1865 19.5 15.5 19.1865 15.5 18.8V17C15.5 15.067 13.933 13.5 12 13.5Z" fill="url(#paint3_linear_206_7597)"/>
</g>
<defs>
<linearGradient id="paint0_linear_206_7597" x1="9.9755" y1="2.3265" x2="13.8995" y2="21.075" gradientUnits="userSpaceOnUse">
<stop stop-color="#0370C8"/>
<stop offset="0.484" stop-color="#036FC5"/>
<stop offset="0.775" stop-color="#036ABD"/>
<stop offset="1" stop-color="#0362B0"/>
</linearGradient>
<radialGradient id="paint1_radial_206_7597" cx="0" cy="0" r="1" gradientUnits="userSpaceOnUse" gradientTransform="translate(12 10.5) scale(2.5)">
<stop/>
<stop offset="1" stop-opacity="0"/>
</radialGradient>
<linearGradient id="paint2_linear_206_7597" x1="11.6445" y1="1.517" x2="12.4215" y2="5.852" gradientUnits="userSpaceOnUse">
<stop stop-color="#75DAFF"/>
<stop offset="1" stop-color="#1EA2E4"/>
</linearGradient>
<linearGradient id="paint3_linear_206_7597" x1="10.4415" y1="8.7715" x2="12.3275" y2="19.673" gradientUnits="userSpaceOnUse">
<stop stop-color="#75DAFF"/>
<stop offset="1" stop-color="#1EA2E4"/>
</linearGradient>
</defs>
</svg>
