<svg width="24" height="24" viewBox="0 0 24 24" fill="none" xmlns="http://www.w3.org/2000/svg">
<g id="name">
<path id="Vector" d="M20 21H4C3.45 21 3 20.55 3 20V4C3 3.45 3.45 3 4 3H20C20.55 3 21 3.45 21 4V20C21 20.55 20.55 21 20 21Z" fill="url(#paint0_linear_206_7591)"/>
<path id="Vector_2" d="M12 14.75C14.6234 14.75 16.75 12.6234 16.75 10C16.75 7.37665 14.6234 5.25 12 5.25C9.37665 5.25 7.25 7.37665 7.25 10C7.25 12.6234 9.37665 14.75 12 14.75Z" fill="url(#paint1_radial_206_7591)"/>
<path id="Vector_3" d="M12 13.5C14.2091 13.5 16 11.7091 16 9.5C16 7.29086 14.2091 5.5 12 5.5C9.79086 5.5 8 7.29086 8 9.5C8 11.7091 9.79086 13.5 12 13.5Z" fill="url(#paint2_linear_206_7591)"/>
<path id="Vector_4" d="M4.069 21H19.931C19.438 17.055 16.079 14 12 14C7.921 14 4.562 17.055 4.069 21Z" fill="url(#paint3_radial_206_7591)"/>
<path id="Vector_5" d="M5.0795 21H18.9205C18.434 17.609 15.5255 15 12 15C8.4745 15 5.566 17.609 5.0795 21Z" fill="url(#paint4_linear_206_7591)"/>
</g>
<defs>
<linearGradient id="paint0_linear_206_7591" x1="9.9515" y1="3.204" x2="14.1045" y2="21.038" gradientUnits="userSpaceOnUse">
<stop stop-color="#0370C8"/>
<stop offset="0.484" stop-color="#036FC5"/>
<stop offset="0.775" stop-color="#036ABD"/>
<stop offset="1" stop-color="#0362B0"/>
</linearGradient>
<radialGradient id="paint1_radial_206_7591" cx="0" cy="0" r="1" gradientUnits="userSpaceOnUse" gradientTransform="translate(12 10) scale(4.75)">
<stop/>
<stop offset="1" stop-opacity="0"/>
</radialGradient>
<linearGradient id="paint2_linear_206_7591" x1="9.2865" y1="6.7865" x2="14.8675" y2="12.3675" gradientUnits="userSpaceOnUse">
<stop stop-color="#75DAFF"/>
<stop offset="1" stop-color="#1EA2E4"/>
</linearGradient>
<radialGradient id="paint3_radial_206_7591" cx="0" cy="0" r="1" gradientUnits="userSpaceOnUse" gradientTransform="translate(12 22.082) scale(8.0995)">
<stop/>
<stop offset="1" stop-opacity="0"/>
</radialGradient>
<linearGradient id="paint4_linear_206_7591" x1="8.207" y1="16.2205" x2="16.008" y2="24.0215" gradientUnits="userSpaceOnUse">
<stop stop-color="#75DAFF"/>
<stop offset="1" stop-color="#1EA2E4"/>
</linearGradient>
</defs>
</svg>
