<svg width="24" height="24" viewBox="0 0 24 24" fill="none" xmlns="http://www.w3.org/2000/svg">
<g id="navigation-toolbar-left">
<path id="Vector" d="M7 20.5C7 20.776 7.224 21 7.5 21H20C20.5525 21 21 20.5525 21 20V4C21 3.4475 20.5525 3 20 3H7.5C7.224 3 7 3.224 7 3.5V20.5Z" fill="url(#paint0_linear_206_7614)"/>
<path id="Vector_2" d="M10 3H4C3.4475 3 3 3.4475 3 4V20C3 20.5525 3.4475 21 4 21H10V3Z" fill="url(#paint1_linear_206_7614)"/>
<path id="Vector_3" d="M5 4C4.4475 4 4 4.4475 4 5C4 5.5525 4.4475 6 5 6C5.5525 6 6 5.5525 6 5C6 4.4475 5.5525 4 5 4Z" fill="url(#paint2_linear_206_7614)"/>
<path id="Vector_4" d="M8 4C7.4475 4 7 4.4475 7 5C7 5.5525 7.4475 6 8 6C8.5525 6 9 5.5525 9 5C9 4.4475 8.5525 4 8 4Z" fill="url(#paint3_linear_206_7614)"/>
<path id="Vector_5" d="M8.75 8H4.25C4.112 8 4 7.888 4 7.75V7.25C4 7.112 4.112 7 4.25 7H8.75C8.888 7 9 7.112 9 7.25V7.75C9 7.888 8.888 8 8.75 8Z" fill="url(#paint4_linear_206_7614)"/>
</g>
<defs>
<linearGradient id="paint0_linear_206_7614" x1="10.1016" y1="0.318487" x2="23.0988" y2="15.1582" gradientUnits="userSpaceOnUse">
<stop stop-color="#FCFCFC"/>
<stop offset="0.95" stop-color="#C3C9CD"/>
</linearGradient>
<linearGradient id="paint1_linear_206_7614" x1="12.7325" y1="20.5975" x2="2.009" y2="5.2145" gradientUnits="userSpaceOnUse">
<stop stop-color="#1951A8"/>
<stop offset="0.175" stop-color="#1955B0"/>
<stop offset="0.505" stop-color="#195AB9"/>
<stop offset="1" stop-color="#195BBC"/>
</linearGradient>
<linearGradient id="paint2_linear_206_7614" x1="4.7307" y1="4.08718" x2="5.11891" y2="6.22198" gradientUnits="userSpaceOnUse">
<stop stop-color="#32BDEF"/>
<stop offset="1" stop-color="#1EA2E4"/>
</linearGradient>
<linearGradient id="paint3_linear_206_7614" x1="7.141" y1="4.141" x2="8.5655" y2="5.5655" gradientUnits="userSpaceOnUse">
<stop stop-color="#9DFFCE"/>
<stop offset="1" stop-color="#50D18D"/>
</linearGradient>
<linearGradient id="paint4_linear_206_7614" x1="4" y1="7.5" x2="9" y2="7.5" gradientUnits="userSpaceOnUse">
<stop stop-color="#7DD8F3"/>
<stop offset="1" stop-color="#45B0D0"/>
</linearGradient>
</defs>
</svg>
