<svg width="24" height="24" viewBox="0 0 24 24" fill="none" xmlns="http://www.w3.org/2000/svg">
<g id="network">
<path id="Vector" d="M17.85 20H6.15C4.95 20 4 19.05 4 17.85V6.15C4 4.95 4.95 4 6.15 4H17.8C19 4 19.95 4.95 19.95 6.15V17.8C20 19.05 19.05 20 17.85 20ZM6.15 5C5.5 5 5 5.5 5 6.15V17.8C5 18.45 5.5 18.95 6.15 18.95H17.8C18.45 18.95 18.95 18.45 18.95 17.8V6.15C18.95 5.5 18.45 5 17.8 5H6.15Z" fill="url(#paint0_linear_206_7626)"/>
<path id="Vector_2" d="M7.5 13.5C7.5 14.05 7.05 14.5 6.5 14.5H2.5C1.95 14.5 1.5 14.05 1.5 13.5V10.5C1.5 9.95 1.95 9.5 2.5 9.5H6.5C7.05 9.5 7.5 9.95 7.5 10.5V13.5Z" fill="url(#paint1_linear_206_7626)"/>
<path id="Vector_3" d="M15 6C15 6.55 14.55 7 14 7H10C9.45 7 9 6.55 9 6V3C9 2.45 9.45 2 10 2H14C14.55 2 15 2.45 15 3V6Z" fill="url(#paint2_linear_206_7626)"/>
<path id="Vector_4" d="M15 21C15 21.55 14.55 22 14 22H10C9.45 22 9 21.55 9 21V18C9 17.45 9.45 17 10 17H14C14.55 17 15 17.45 15 18V21Z" fill="url(#paint3_linear_206_7626)"/>
<path id="Vector_5" d="M22.5 13.5C22.5 14.05 22.05 14.5 21.5 14.5H17.5C16.95 14.5 16.5 14.05 16.5 13.5V10.5C16.5 9.95 16.95 9.5 17.5 9.5H21.5C22.05 9.5 22.5 9.95 22.5 10.5V13.5Z" fill="url(#paint4_linear_206_7626)"/>
<path id="Vector_6" d="M6.5 10.5H2.5V13.5H6.5V10.5Z" fill="url(#paint5_linear_206_7626)"/>
<path id="Vector_7" d="M14 3H10V6H14V3Z" fill="url(#paint6_linear_206_7626)"/>
<path id="Vector_8" d="M14 18H10V21H14V18Z" fill="url(#paint7_linear_206_7626)"/>
<path id="Vector_9" d="M21.5 10.5H17.5V13.5H21.5V10.5Z" fill="url(#paint8_linear_206_7626)"/>
</g>
<defs>
<linearGradient id="paint0_linear_206_7626" x1="7.052" y1="2.741" x2="16.8815" y2="21.2275" gradientUnits="userSpaceOnUse">
<stop stop-color="#C8D3DE"/>
<stop offset="1" stop-color="#C8D3DE"/>
</linearGradient>
<linearGradient id="paint1_linear_206_7626" x1="2.968" y1="9.119" x2="6.0315" y2="14.881" gradientUnits="userSpaceOnUse">
<stop stop-color="#2AA4F4"/>
<stop offset="1" stop-color="#007AD9"/>
</linearGradient>
<linearGradient id="paint2_linear_206_7626" x1="10.468" y1="1.619" x2="13.532" y2="7.3805" gradientUnits="userSpaceOnUse">
<stop stop-color="#2AA4F4"/>
<stop offset="1" stop-color="#007AD9"/>
</linearGradient>
<linearGradient id="paint3_linear_206_7626" x1="10.468" y1="16.619" x2="13.532" y2="22.381" gradientUnits="userSpaceOnUse">
<stop stop-color="#2AA4F4"/>
<stop offset="1" stop-color="#007AD9"/>
</linearGradient>
<linearGradient id="paint4_linear_206_7626" x1="17.9685" y1="9.119" x2="21.0315" y2="14.881" gradientUnits="userSpaceOnUse">
<stop stop-color="#2AA4F4"/>
<stop offset="1" stop-color="#007AD9"/>
</linearGradient>
<linearGradient id="paint5_linear_206_7626" x1="3.76114" y1="10.5461" x2="4.98747" y2="13.6987" gradientUnits="userSpaceOnUse">
<stop stop-color="#7DD8F3"/>
<stop offset="1" stop-color="#45B0D0"/>
</linearGradient>
<linearGradient id="paint6_linear_206_7626" x1="11.2611" y1="3.04606" x2="12.4875" y2="6.19866" gradientUnits="userSpaceOnUse">
<stop stop-color="#7DD8F3"/>
<stop offset="1" stop-color="#45B0D0"/>
</linearGradient>
<linearGradient id="paint7_linear_206_7626" x1="11.2611" y1="18.0461" x2="12.4875" y2="21.1987" gradientUnits="userSpaceOnUse">
<stop stop-color="#7DD8F3"/>
<stop offset="1" stop-color="#45B0D0"/>
</linearGradient>
<linearGradient id="paint8_linear_206_7626" x1="18.7611" y1="10.5461" x2="19.9875" y2="13.6987" gradientUnits="userSpaceOnUse">
<stop stop-color="#7DD8F3"/>
<stop offset="1" stop-color="#45B0D0"/>
</linearGradient>
</defs>
</svg>
