<svg width="24" height="24" viewBox="0 0 24 24" fill="none" xmlns="http://www.w3.org/2000/svg">
<g id="night">
<path id="Vector" d="M8 3.5C4.9625 3.5 2.5 5.9625 2.5 9C2.5 12.0375 4.9625 14.5 8 14.5C11.0375 14.5 13.5 12.0375 13.5 9C13.5 5.9625 11.0375 3.5 8 3.5Z" fill="url(#paint0_radial_206_7695)"/>
<path id="Vector_2" d="M7.5 5C6.9475 5 6.5 5.4475 6.5 6C6.5 6.5525 6.9475 7 7.5 7C8.0525 7 8.5 6.5525 8.5 6C8.5 5.4475 8.0525 5 7.5 5Z" fill="url(#paint1_radial_206_7695)"/>
<path id="Vector_3" d="M5 8.5C4.724 8.5 4.5 8.724 4.5 9C4.5 9.276 4.724 9.5 5 9.5C5.276 9.5 5.5 9.276 5.5 9C5.5 8.724 5.276 8.5 5 8.5Z" fill="url(#paint2_radial_206_7695)"/>
<path id="Vector_4" d="M17.5 10.5C17.3345 10.5 17.1715 10.509 17.01 10.5245C15.8705 8.995 14.054 8 12 8C9.1435 8 6.74 9.9185 5.994 12.5355C4.0245 12.7845 2.5 14.4625 2.5 16.5C2.5 18.709 4.291 20.5 6.5 20.5C7.409 20.5 16.5535 20.5 17.5 20.5C20.2615 20.5 22.5 18.2615 22.5 15.5C22.5 12.7385 20.2615 10.5 17.5 10.5Z" fill="url(#paint3_linear_206_7695)"/>
</g>
<defs>
<radialGradient id="paint0_radial_206_7695" cx="0" cy="0" r="1" gradientUnits="userSpaceOnUse" gradientTransform="translate(9.953 12.438) scale(9.5045)">
<stop offset="0.313" stop-color="#FCFCFC"/>
<stop offset="0.465" stop-color="#EFF0F1"/>
<stop offset="0.741" stop-color="#CED1D3"/>
<stop offset="1" stop-color="#AAAFB3"/>
</radialGradient>
<radialGradient id="paint1_radial_206_7695" cx="0" cy="0" r="1" gradientUnits="userSpaceOnUse" gradientTransform="translate(7.855 6.625) scale(1.728)">
<stop offset="0.313" stop-color="#9DA2A6" stop-opacity="0"/>
<stop offset="1" stop-color="#9DA2A6"/>
</radialGradient>
<radialGradient id="paint2_radial_206_7695" cx="0" cy="0" r="1" gradientUnits="userSpaceOnUse" gradientTransform="translate(5.1775 9.3125) scale(0.864)">
<stop offset="0.313" stop-color="#9DA2A6" stop-opacity="0"/>
<stop offset="1" stop-color="#9DA2A6"/>
</radialGradient>
<linearGradient id="paint3_linear_206_7695" x1="11.1565" y1="8.0395" x2="13.309" y2="20.724" gradientUnits="userSpaceOnUse">
<stop stop-color="#BAC0FF"/>
<stop offset="0.398" stop-color="#8A91E7"/>
<stop offset="0.796" stop-color="#6069D1"/>
<stop offset="1" stop-color="#5059C9"/>
</linearGradient>
</defs>
</svg>
