<svg width="24" height="24" viewBox="0 0 24 24" fill="none" xmlns="http://www.w3.org/2000/svg">
<g id="office-phone">
<path id="Vector" d="M21 19.5C21 20.052 20.552 20.5 20 20.5H8.5C7.948 20.5 7.5 20.052 7.5 19.5V5.5C7.5 4.948 7.948 4.5 8.5 4.5H20C20.552 4.5 21 4.948 21 5.5V19.5Z" fill="url(#paint0_linear_206_7743)"/>
<path id="Vector_2" d="M11.25 10.5H12.75C12.888 10.5 13 10.612 13 10.75V12.25C13 12.388 12.888 12.5 12.75 12.5H11.25C11.112 12.5 11 12.388 11 12.25V10.75C11 10.612 11.112 10.5 11.25 10.5ZM14.25 10.5H15.75C15.888 10.5 16 10.612 16 10.75V12.25C16 12.388 15.888 12.5 15.75 12.5H14.25C14.112 12.5 14 12.388 14 12.25V10.75C14 10.612 14.112 10.5 14.25 10.5ZM17.25 10.5H18.75C18.888 10.5 19 10.612 19 10.75V12.25C19 12.388 18.888 12.5 18.75 12.5H17.25C17.112 12.5 17 12.388 17 12.25V10.75C17 10.612 17.112 10.5 17.25 10.5ZM11.25 13.5H12.75C12.888 13.5 13 13.612 13 13.75V15.25C13 15.388 12.888 15.5 12.75 15.5H11.25C11.112 15.5 11 15.388 11 15.25V13.75C11 13.612 11.112 13.5 11.25 13.5ZM14.25 13.5H15.75C15.888 13.5 16 13.612 16 13.75V15.25C16 15.388 15.888 15.5 15.75 15.5H14.25C14.112 15.5 14 15.388 14 15.25V13.75C14 13.612 14.112 13.5 14.25 13.5ZM17.25 13.5H18.75C18.888 13.5 19 13.612 19 13.75V15.25C19 15.388 18.888 15.5 18.75 15.5H17.25C17.112 15.5 17 15.388 17 15.25V13.75C17 13.612 17.112 13.5 17.25 13.5ZM11.25 16.5H12.75C12.888 16.5 13 16.612 13 16.75V18.25C13 18.388 12.888 18.5 12.75 18.5H11.25C11.112 18.5 11 18.388 11 18.25V16.75C11 16.612 11.112 16.5 11.25 16.5ZM14.25 16.5H15.75C15.888 16.5 16 16.612 16 16.75V18.25C16 18.388 15.888 18.5 15.75 18.5H14.25C14.112 18.5 14 18.388 14 18.25V16.75C14 16.612 14.112 16.5 14.25 16.5ZM17.25 16.5H18.75C18.888 16.5 19 16.612 19 16.75V18.25C19 18.388 18.888 18.5 18.75 18.5H17.25C17.112 18.5 17 18.388 17 18.25V16.75C17 16.612 17.112 16.5 17.25 16.5Z" fill="#CAD2D9"/>
<path id="Vector_3" d="M6 3C3 3 3 4 3 4.5C3 5 3 20 3 20.5C3 21 2.9655 22 6 22C9.0345 22 9 21 9 20.5C9 20 9 5 9 4.5C9 4 9 3 6 3Z" fill="url(#paint1_linear_206_7743)"/>
<path id="Vector_4" d="M18.5 8.5H11.5C11.224 8.5 11 8.276 11 8V7C11 6.724 11.224 6.5 11.5 6.5H18.5C18.776 6.5 19 6.724 19 7V8C19 8.276 18.776 8.5 18.5 8.5Z" fill="url(#paint2_linear_206_7743)"/>
</g>
<defs>
<linearGradient id="paint0_linear_206_7743" x1="13.2195" y1="4.256" x2="15.215" y2="20.221" gradientUnits="userSpaceOnUse">
<stop stop-color="#0D61A9"/>
<stop offset="1" stop-color="#16528C"/>
</linearGradient>
<linearGradient id="paint1_linear_206_7743" x1="4.647" y1="3.0395" x2="7.3415" y2="21.8985" gradientUnits="userSpaceOnUse">
<stop stop-color="#199AE0"/>
<stop offset="1" stop-color="#0782D8"/>
</linearGradient>
<linearGradient id="paint2_linear_206_7743" x1="11.972" y1="6.0975" x2="18.681" y2="9.205" gradientUnits="userSpaceOnUse">
<stop stop-color="#4FE5FF"/>
<stop offset="1" stop-color="#2EB7ED"/>
</linearGradient>
</defs>
</svg>
