<svg width="24" height="24" viewBox="0 0 24 24" fill="none" xmlns="http://www.w3.org/2000/svg">
<g id="outline">
<path id="Vector" d="M2 19V6.5H22V19C22 19.55 21.55 20 21 20H3C2.45 20 2 19.55 2 19Z" fill="url(#paint0_linear_206_7860)"/>
<path id="Vector_2" d="M12.25 10H6.75C6.6 10 6.5 9.9 6.5 9.75V9.25C6.5 9.1 6.6 9 6.75 9H12.25C12.4 9 12.5 9.1 12.5 9.25V9.75C12.5 9.9 12.4 10 12.25 10Z" fill="#0F94BF"/>
<path id="Vector_3" d="M14.75 12.5H9.75C9.6 12.5 9.5 12.4 9.5 12.25V11.75C9.5 11.6 9.6 11.5 9.75 11.5H14.75C14.9 11.5 15 11.6 15 11.75V12.25C15 12.4 14.9 12.5 14.75 12.5Z" fill="#0F94BF"/>
<path id="Vector_4" d="M18.25 15H12.25C12.1 15 12 14.9 12 14.75V14.25C12 14.1 12.1 14 12.25 14H18.25C18.4 14 18.5 14.1 18.5 14.25V14.75C18.5 14.9 18.4 15 18.25 15Z" fill="#0F94BF"/>
<path id="Vector_5" d="M12.75 17.5H6.75C6.6 17.5 6.5 17.4 6.5 17.25V16.75C6.5 16.6 6.6 16.5 6.75 16.5H12.75C12.9 16.5 13 16.6 13 16.75V17.25C13 17.4 12.9 17.5 12.75 17.5Z" fill="#0F94BF"/>
<path id="Vector_6" d="M22 5V6.5H2V5C2 4.45 2.45 4 3 4H21C21.55 4 22 4.45 22 5Z" fill="url(#paint1_linear_206_7860)"/>
</g>
<defs>
<linearGradient id="paint0_linear_206_7860" x1="6.5345" y1="4.9995" x2="15.963" y2="18.6375" gradientUnits="userSpaceOnUse">
<stop stop-color="#7DD8F3"/>
<stop offset="1" stop-color="#45B0D0"/>
</linearGradient>
<linearGradient id="paint1_linear_206_7860" x1="2.404" y1="3.39" x2="21.375" y2="7.2475" gradientUnits="userSpaceOnUse">
<stop stop-color="#0077D2"/>
<stop offset="1" stop-color="#0B59A2"/>
</linearGradient>
</defs>
</svg>
