<svg width="24" height="24" viewBox="0 0 24 24" fill="none" xmlns="http://www.w3.org/2000/svg">
<g id="paycheque">
<path id="Vector" d="M22 3.5H21.5C21.5 3.776 21.276 4 21 4C20.724 4 20.5 3.776 20.5 3.5H19.5C19.5 3.776 19.276 4 19 4C18.724 4 18.5 3.776 18.5 3.5H17.5C17.5 3.776 17.276 4 17 4C16.724 4 16.5 3.776 16.5 3.5H15.5C15.5 3.776 15.276 4 15 4C14.724 4 14.5 3.776 14.5 3.5H13.5C13.5 3.776 13.276 4 13 4C12.724 4 12.5 3.776 12.5 3.5H11.5C11.5 3.776 11.276 4 11 4C10.724 4 10.5 3.776 10.5 3.5H9.5C9.5 3.776 9.276 4 9 4C8.724 4 8.5 3.776 8.5 3.5H7.5C7.5 3.776 7.276 4 7 4C6.724 4 6.5 3.776 6.5 3.5H5.5C5.5 3.776 5.276 4 5 4C4.724 4 4.5 3.776 4.5 3.5H3.5C3.5 3.776 3.276 4 3 4C2.724 4 2.5 3.776 2.5 3.5H2C1.724 3.5 1.5 3.724 1.5 4V19.5C1.5 20.0525 1.9475 20.5 2.5 20.5H21.5C22.0525 20.5 22.5 20.0525 22.5 19.5V4C22.5 3.724 22.276 3.5 22 3.5Z" fill="url(#paint0_linear_206_7898)"/>
<path id="Vector_2" d="M11.75 8.5H4.25C4.112 8.5 4 8.388 4 8.25V7.75C4 7.612 4.112 7.5 4.25 7.5H11.75C11.888 7.5 12 7.612 12 7.75V8.25C12 8.388 11.888 8.5 11.75 8.5Z" fill="url(#paint1_linear_206_7898)"/>
<path id="Vector_3" d="M10.25 10.5H4.25C4.112 10.5 4 10.388 4 10.25V9.75C4 9.612 4.112 9.5 4.25 9.5H10.25C10.388 9.5 10.5 9.612 10.5 9.75V10.25C10.5 10.388 10.388 10.5 10.25 10.5Z" fill="url(#paint2_linear_206_7898)"/>
<path id="Vector_4" d="M20.3865 14.3435C20.3865 11.5165 16.2125 12.0685 16.2125 10.398C16.2125 9.52599 17.1925 9.47999 17.4995 9.47999C18.236 9.47999 18.9475 9.67749 19.4895 9.93199C19.6605 10.012 19.8565 9.89349 19.8565 9.70499V8.88249C19.8565 8.60649 19.7525 8.44299 19.587 8.37849C19.215 8.23399 18.6815 8.12849 17.892 8.10249V7.19699C17.892 7.08849 17.804 7.00049 17.6955 7.00049H17.3025C17.194 7.00049 17.106 7.08849 17.106 7.19699V8.11699C15.882 8.23649 14.612 8.92749 14.612 10.5355C14.612 13.466 18.7855 12.885 18.7855 14.4285C18.7855 14.9135 18.4755 15.332 17.4985 15.332C16.5165 15.332 15.614 14.989 15.1145 14.7335C14.9465 14.6475 14.7485 14.772 14.7485 14.961V15.8975C14.7485 16.077 14.8565 16.237 15.022 16.307C15.614 16.5585 16.4075 16.7485 17.1055 16.8045V17.805C17.1055 17.9135 17.1935 18.0015 17.302 18.0015H17.695C17.8035 18.0015 17.8915 17.9135 17.8915 17.805V16.805C19.7245 16.6525 20.3865 15.426 20.3865 14.3435Z" fill="#0078D4"/>
<path id="Vector_5" d="M7 18C6.764 18 6.557 17.8895 6.4315 17.6975C6.347 17.5675 6.304 17.406 6.304 17.2175C6.304 16.89 6.4785 16.319 6.756 15.748C6.6795 15.2445 6.535 14.706 6.3055 14.3165C6.1585 14.066 6.0415 14 6 14C5.4785 14 5.0885 15.096 4.9905 15.596C4.9375 15.867 4.678 16.043 4.4035 15.9905C4.1325 15.9375 3.9555 15.6745 4.009 15.4035C4.0575 15.158 4.5225 13 6 13C6.751 13 7.2285 13.738 7.506 14.587C7.817 14.2365 8.16 14 8.5 14C9.4965 14 9.824 15.156 10.0635 16.0005C10.072 16.0295 10.0805 16.06 10.0895 16.091C10.111 16.0485 10.1315 16.0075 10.15 15.97C10.469 15.3275 10.8305 14.6 11.5 14.6C11.7765 14.6 12 14.824 12 15.1C12 15.362 11.7985 15.5775 11.5415 15.5985C11.4015 15.6985 11.171 16.162 11.0455 16.415C10.7565 16.9975 10.5065 17.5 10 17.5C9.449 17.5 9.288 16.9315 9.1015 16.2735C9.003 15.925 8.7405 15 8.5 15C8.338 15.0625 8.045 15.4735 7.7885 15.934C7.814 16.164 7.8255 16.3755 7.8255 16.553C7.8255 16.889 7.791 17.1685 7.722 17.384C7.545 17.94 7.158 18 7 18Z" fill="url(#paint3_linear_206_7898)"/>
</g>
<defs>
<linearGradient id="paint0_linear_206_7898" x1="8.121" y1="3.761" x2="15.4625" y2="21.2465" gradientUnits="userSpaceOnUse">
<stop stop-color="#7DD8F3"/>
<stop offset="1" stop-color="#45B0D0"/>
</linearGradient>
<linearGradient id="paint1_linear_206_7898" x1="5.77233" y1="7.35103" x2="5.89549" y2="8.79739" gradientUnits="userSpaceOnUse">
<stop stop-color="#FCFCFC"/>
<stop offset="0.95" stop-color="#C3C9CD"/>
</linearGradient>
<linearGradient id="paint2_linear_206_7898" x1="5.44002" y1="9.35103" x2="5.59104" y2="10.792" gradientUnits="userSpaceOnUse">
<stop stop-color="#FCFCFC"/>
<stop offset="0.95" stop-color="#C3C9CD"/>
</linearGradient>
<linearGradient id="paint3_linear_206_7898" x1="5.77191" y1="12.2551" x2="8.3972" y2="18.4217" gradientUnits="userSpaceOnUse">
<stop stop-color="#FCFCFC"/>
<stop offset="0.95" stop-color="#C3C9CD"/>
</linearGradient>
</defs>
</svg>
