<svg width="24" height="24" viewBox="0 0 24 24" fill="none" xmlns="http://www.w3.org/2000/svg">
<g id="phone">
<path id="Vector" d="M3.96 3.43653C3.96 3.43653 3.801 5.30303 4.529 6.76553C5.257 8.22803 7.2615 11.236 8.0515 10.7315C7.6795 10.2385 7.929 9.68353 8.209 9.41303C8.3905 9.23753 9.2425 8.43253 9.8185 7.88853C10.1385 7.58653 10.214 7.10703 10.0025 6.72103L7.964 3.00203C7.743 2.59853 7.2685 2.40703 6.8295 2.54353L3.96 3.43653Z" fill="#1A9BA1"/>
<path id="Vector_2" d="M20.5635 20.04C20.5635 20.04 18.697 20.199 17.2345 19.471C15.772 18.743 12.764 16.7385 13.2685 15.9485C13.7615 16.3205 14.3165 16.071 14.587 15.791C14.7625 15.6095 15.5675 14.7575 16.1115 14.1815C16.4135 13.8615 16.893 13.786 17.279 13.9975L20.998 16.036C21.4015 16.257 21.593 16.7315 21.4565 17.1705L20.5635 20.04Z" fill="#1A9BA1"/>
<path id="Vector_3" d="M10.493 13.507C13.451 16.465 16.8945 18.633 20.564 20.0395L20.029 20.9635C19.767 21.416 19.2125 21.62 18.7265 21.427C15.1805 20.0175 11.856 17.8825 8.9865 15.0135C6.117 12.1445 3.982 8.81952 2.5725 5.27352C2.3795 4.78802 2.5835 4.23352 3.036 3.97152L3.96 3.43652C5.367 7.10552 7.535 10.5495 10.493 13.507Z" fill="#37C6D0"/>
</g>
</svg>
