<svg width="24" height="24" viewBox="0 0 24 24" fill="none" xmlns="http://www.w3.org/2000/svg">
<g id="play">
<path id="Vector" d="M6.7245 2.71948L5 3.57948V12H19.5L19.9945 11.146L6.7245 2.71948Z" fill="#0883D9"/>
<path id="Vector_2" d="M20.5 12H18.5C18.5 11.4475 18.9475 11 19.5 11C20.0525 11 20.5 11.4475 20.5 12Z" fill="#0883D9"/>
<path id="Vector_3" d="M6.0795 4.659C6.67569 4.659 7.159 4.17569 7.159 3.5795C7.159 2.98331 6.67569 2.5 6.0795 2.5C5.48331 2.5 5 2.98331 5 3.5795C5 4.17569 5.48331 4.659 6.0795 4.659Z" fill="#0883D9"/>
<path id="Vector_4" d="M6.7245 21.2805L5 20.4205V12H19.5L19.9945 12.854L6.7245 21.2805Z" fill="#0370C8"/>
<path id="Vector_5" d="M20.5 12H18.5C18.5 12.5525 18.9475 13 19.5 13C20.0525 13 20.5 12.5525 20.5 12Z" fill="#0370C8"/>
<path id="Vector_6" d="M6.0795 21.5C6.67569 21.5 7.159 21.0167 7.159 20.4205C7.159 19.8243 6.67569 19.341 6.0795 19.341C5.48331 19.341 5 19.8243 5 20.4205C5 21.0167 5.48331 21.5 6.0795 21.5Z" fill="#0370C8"/>
</g>
</svg>
