<svg width="24" height="24" viewBox="0 0 24 24" fill="none" xmlns="http://www.w3.org/2000/svg">
<g id="plus-math">
<path id="Vector" d="M20.5 10H14V3.5C14 2.9475 13.5525 2.5 13 2.5H11C10.4475 2.5 10 2.9475 10 3.5V10H3.5C2.9475 10 2.5 10.4475 2.5 11V13C2.5 13.5525 2.9475 14 3.5 14H20.5C21.0525 14 21.5 13.5525 21.5 13V11C21.5 10.4475 21.0525 10 20.5 10Z" fill="url(#paint0_linear_206_8009)"/>
<path id="Vector_2" d="M14 14H10V20.5C10 21.0525 10.4475 21.5 11 21.5H13C13.5525 21.5 14 21.0525 14 20.5V14Z" fill="url(#paint1_linear_206_8009)"/>
</g>
<defs>
<linearGradient id="paint0_linear_206_8009" x1="12" y1="2.47588" x2="12" y2="13.9585" gradientUnits="userSpaceOnUse">
<stop stop-color="#2AA4F4"/>
<stop offset="1" stop-color="#007AD9"/>
</linearGradient>
<linearGradient id="paint1_linear_206_8009" x1="12" y1="13.9843" x2="12" y2="21.4729" gradientUnits="userSpaceOnUse">
<stop stop-color="#2AA4F4"/>
<stop offset="1" stop-color="#007AD9"/>
</linearGradient>
</defs>
</svg>
