<svg width="24" height="24" viewBox="0 0 24 24" fill="none" xmlns="http://www.w3.org/2000/svg">
<g id="procurement">
<path id="Vector" d="M7.5 22C8.32843 22 9 21.3284 9 20.5C9 19.6716 8.32843 19 7.5 19C6.67157 19 6 19.6716 6 20.5C6 21.3284 6.67157 22 7.5 22Z" fill="#5C5F61"/>
<path id="Vector_2" opacity="0.15" d="M7.5 21C7.77614 21 8 20.7761 8 20.5C8 20.2239 7.77614 20 7.5 20C7.22386 20 7 20.2239 7 20.5C7 20.7761 7.22386 21 7.5 21Z" fill="black"/>
<path id="Vector_3" d="M16.188 4.09503C15.805 3.71203 15.1865 3.70353 14.793 4.07603L9.5 9.09103V11.407H21.5V9.40703L16.188 4.09503Z" fill="url(#paint0_linear_206_8139)"/>
<path id="Vector_4" d="M9.5 9.09102V10.407H17.5V8.40702L13.9595 4.86652L9.5 9.09102Z" fill="url(#paint1_linear_206_8139)"/>
<path id="Vector_5" d="M11.188 3.09503C10.805 2.71203 10.1865 2.70353 9.793 3.07603L4.5 8.09103V10.407H16.5V8.40703L11.188 3.09503Z" fill="url(#paint2_linear_206_8139)"/>
<path id="Vector_6" d="M11.188 3.09503C10.805 2.71203 10.1865 2.70353 9.793 3.07603L4.5 8.09103V10.407H16.5V8.40703L11.188 3.09503Z" fill="url(#paint3_linear_206_8139)"/>
<path id="Vector_7" d="M4.733 12.4385C4.5005 12.4385 4.2925 12.2755 4.2435 12.0395L2.856 5.2985C2.7605 4.8355 2.349 4.5 1.8765 4.5H1C0.724 4.5 0.5 4.276 0.5 4C0.5 3.724 0.724 3.5 1 3.5H1.8765C2.821 3.5 3.645 4.1715 3.8355 5.0965L5.223 11.8375C5.2785 12.108 5.1045 12.3725 4.834 12.428C4.8005 12.4355 4.7665 12.4385 4.733 12.4385Z" fill="url(#paint4_linear_206_8139)"/>
<path id="Vector_8" d="M2 4C2 4.552 1.552 5 1 5C0.448 5 0 4.552 0 4C0 3.448 0.448 3 1 3C1.552 3 2 3.448 2 4Z" fill="url(#paint5_linear_206_8139)"/>
<path id="Vector_9" d="M21.9555 7.458L3 6L3.3865 8.03L22.1705 9.475L22.41 8.039C22.4585 7.7495 22.248 7.4805 21.9555 7.458Z" fill="url(#paint6_linear_206_8139)"/>
<path id="Vector_10" d="M20.5 19.5H6.5C5.397 19.5 4.5 18.603 4.5 17.5C4.5 16.397 5.397 15.5 6.5 15.5H19C19.276 15.5 19.5 15.724 19.5 16C19.5 16.276 19.276 16.5 19 16.5H6.5C5.9485 16.5 5.5 16.9485 5.5 17.5C5.5 18.0515 5.9485 18.5 6.5 18.5H20.5C20.776 18.5 21 18.724 21 19C21 19.276 20.776 19.5 20.5 19.5Z" fill="url(#paint7_linear_206_8139)"/>
<path id="Vector_11" d="M4.84501 15.687C4.93501 16.159 5.34751 16.5 5.82751 16.5H20.153C20.642 16.5 21.059 16.1465 21.1395 15.6645L22.171 9.47503L3.38651 8.03003L4.84501 15.687Z" fill="url(#paint8_linear_206_8139)"/>
<path id="Vector_12" d="M18.5 22C19.3284 22 20 21.3284 20 20.5C20 19.6716 19.3284 19 18.5 19C17.6716 19 17 19.6716 17 20.5C17 21.3284 17.6716 22 18.5 22Z" fill="#5C5F61"/>
<path id="Vector_13" opacity="0.15" d="M18.5 21C18.7761 21 19 20.7761 19 20.5C19 20.2239 18.7761 20 18.5 20C18.2239 20 18 20.2239 18 20.5C18 20.7761 18.2239 21 18.5 21Z" fill="black"/>
<path id="Vector_14" opacity="0.05" d="M20.5 18.5H13.5255C13.5105 18.665 13.5 18.831 13.5 19C13.5 19.169 13.5105 19.335 13.5255 19.5H20.5C20.776 19.5 21 19.276 21 19C21 18.724 20.776 18.5 20.5 18.5Z" fill="black"/>
<path id="Vector_15" opacity="0.05" d="M19 13.5C16.868 13.5 15.0195 14.722 14.107 16.5H20.153C20.642 16.5 21.059 16.1465 21.1395 15.6645L21.4065 14.062C20.6785 13.7055 19.864 13.5 19 13.5Z" fill="black"/>
<path id="Vector_16" opacity="0.07" d="M19 13.75C17.0095 13.75 15.2745 14.8635 14.3845 16.5H20.153C20.642 16.5 21.059 16.1465 21.1395 15.6645L21.364 14.3185C20.6525 13.958 19.851 13.75 19 13.75Z" fill="black"/>
<path id="Vector_17" opacity="0.07" d="M20.5 18.5H13.7755C13.76 18.6645 13.75 18.831 13.75 19C13.75 19.169 13.7595 19.3355 13.7755 19.5H20.5C20.776 19.5 21 19.276 21 19C21 18.724 20.776 18.5 20.5 18.5Z" fill="black"/>
<path id="Vector_18" d="M19 24C21.7614 24 24 21.7614 24 19C24 16.2386 21.7614 14 19 14C16.2386 14 14 16.2386 14 19C14 21.7614 16.2386 24 19 24Z" fill="url(#paint9_linear_206_8139)"/>
<path id="Vector_19" d="M19 23.5C21.4853 23.5 23.5 21.4853 23.5 19C23.5 16.5147 21.4853 14.5 19 14.5C16.5147 14.5 14.5 16.5147 14.5 19C14.5 21.4853 16.5147 23.5 19 23.5Z" fill="url(#paint10_radial_206_8139)"/>
<path id="Vector_20" d="M19 23C21.2091 23 23 21.2091 23 19C23 16.7909 21.2091 15 19 15C16.7909 15 15 16.7909 15 19C15 21.2091 16.7909 23 19 23Z" fill="url(#paint11_radial_206_8139)"/>
<path id="Vector_21" d="M20.4595 21.8335C20.3675 21.881 20.2545 21.8445 20.207 21.7525L18.8335 19.0855C18.786 18.9935 18.8225 18.8805 18.9145 18.833C19.0065 18.7855 19.1195 18.822 19.167 18.914L20.5405 21.581C20.5875 21.673 20.5515 21.7865 20.4595 21.8335Z" fill="#D83B01"/>
<path id="Vector_22" d="M19 19.1875C18.952 19.1875 18.904 19.169 18.8675 19.1325C18.7945 19.0595 18.7945 18.9405 18.8675 18.8675L20.989 16.746C21.062 16.673 21.181 16.673 21.254 16.746C21.327 16.819 21.327 16.938 21.254 17.011L19.1325 19.1325C19.096 19.169 19.048 19.1875 19 19.1875Z" fill="#45494D"/>
<path id="Vector_23" d="M19 19.3125C18.9545 19.3125 18.9085 19.3025 18.865 19.2815L16.918 18.3475C16.7625 18.273 16.697 18.0865 16.7715 17.9305C16.846 17.775 17.033 17.709 17.1885 17.784L19.1355 18.718C19.291 18.7925 19.3565 18.979 19.282 19.135C19.228 19.247 19.116 19.3125 19 19.3125Z" fill="#45494D"/>
<path id="Vector_24" d="M19 19.5C19.2761 19.5 19.5 19.2761 19.5 19C19.5 18.7239 19.2761 18.5 19 18.5C18.7239 18.5 18.5 18.7239 18.5 19C18.5 19.2761 18.7239 19.5 19 19.5Z" fill="#1E2021"/>
</g>
<defs>
<linearGradient id="paint0_linear_206_8139" x1="9.5" y1="7.60453" x2="21.5" y2="7.60453" gradientUnits="userSpaceOnUse">
<stop stop-color="#EBA600"/>
<stop offset="1" stop-color="#C28200"/>
</linearGradient>
<linearGradient id="paint1_linear_206_8139" x1="16.16" y1="7.08802" x2="13.934" y2="9.31452" gradientUnits="userSpaceOnUse">
<stop stop-opacity="0"/>
<stop offset="1"/>
</linearGradient>
<linearGradient id="paint2_linear_206_8139" x1="4.5" y1="6.60453" x2="16.5" y2="6.60453" gradientUnits="userSpaceOnUse">
<stop stop-color="#FFCF54"/>
<stop offset="0.261" stop-color="#FDCB4D"/>
<stop offset="0.639" stop-color="#F7C13A"/>
<stop offset="1" stop-color="#F0B421"/>
</linearGradient>
<linearGradient id="paint3_linear_206_8139" x1="4.5" y1="6.60453" x2="16.5" y2="6.60453" gradientUnits="userSpaceOnUse">
<stop stop-color="#FFCF54"/>
<stop offset="0.261" stop-color="#FDCB4D"/>
<stop offset="0.639" stop-color="#F7C13A"/>
<stop offset="1" stop-color="#F0B421"/>
</linearGradient>
<linearGradient id="paint4_linear_206_8139" x1="2.8665" y1="12.4385" x2="2.8665" y2="3.5" gradientUnits="userSpaceOnUse">
<stop stop-color="#92A3B0"/>
<stop offset="0.015" stop-color="#A3B5C4"/>
<stop offset="0.032" stop-color="#AEC2D1"/>
<stop offset="0.046" stop-color="#B2C6D6"/>
</linearGradient>
<linearGradient id="paint5_linear_206_8139" x1="0.378" y1="3.378" x2="1.692" y2="4.692" gradientUnits="userSpaceOnUse">
<stop stop-color="#199AE0"/>
<stop offset="1" stop-color="#0782D8"/>
</linearGradient>
<linearGradient id="paint6_linear_206_8139" x1="3" y1="7.7375" x2="22.417" y2="7.7375" gradientUnits="userSpaceOnUse">
<stop stop-color="#42A3F2"/>
<stop offset="1" stop-color="#42A4EB"/>
</linearGradient>
<linearGradient id="paint7_linear_206_8139" x1="12.75" y1="19.5" x2="12.75" y2="15.5" gradientUnits="userSpaceOnUse">
<stop stop-color="#92A3B0"/>
<stop offset="0.015" stop-color="#A3B5C4"/>
<stop offset="0.032" stop-color="#AEC2D1"/>
<stop offset="0.046" stop-color="#B2C6D6"/>
</linearGradient>
<linearGradient id="paint8_linear_206_8139" x1="3.38651" y1="12.265" x2="22.171" y2="12.265" gradientUnits="userSpaceOnUse">
<stop stop-color="#3079D6"/>
<stop offset="1" stop-color="#297CD2"/>
</linearGradient>
<linearGradient id="paint9_linear_206_8139" x1="15.4645" y1="15.4645" x2="22.5355" y2="22.5355" gradientUnits="userSpaceOnUse">
<stop stop-color="#889097"/>
<stop offset="1" stop-color="#64717C"/>
</linearGradient>
<radialGradient id="paint10_radial_206_8139" cx="0" cy="0" r="1" gradientUnits="userSpaceOnUse" gradientTransform="translate(19 19) scale(4.5)">
<stop/>
<stop offset="1" stop-opacity="0"/>
</radialGradient>
<radialGradient id="paint11_radial_206_8139" cx="0" cy="0" r="1" gradientUnits="userSpaceOnUse" gradientTransform="translate(18.974 15.093) scale(8.914)">
<stop stop-color="#FAFAFB"/>
<stop offset="1" stop-color="#C8CDD1"/>
</radialGradient>
</defs>
</svg>
