<svg width="24" height="24" viewBox="0 0 24 24" fill="none" xmlns="http://www.w3.org/2000/svg">
<g id="project">
<path id="Vector" d="M2 5H21C21.5525 5 22 5.4475 22 6V19C22 19.5525 21.5525 20 21 20H5.5C3.567 20 2 18.433 2 16.5V5Z" fill="url(#paint0_linear_206_8221)"/>
<path id="Vector_2" d="M5.5 13H6.5C7.0525 13 7.5 12.5525 7.5 12V3C7.5 2.4475 7.0525 2 6.5 2H5.5C3.567 2 2 3.567 2 5.5V16.5C2 14.567 3.567 13 5.5 13Z" fill="url(#paint1_linear_206_8221)"/>
<path id="Vector_3" d="M9.25 15.5H18.75C18.888 15.5 19 15.612 19 15.75V16.25C19 16.388 18.888 16.5 18.75 16.5H9.25C9.112 16.5 9 16.388 9 16.25V15.75C9 15.612 9.112 15.5 9.25 15.5Z" fill="url(#paint2_linear_206_8221)"/>
<path id="Vector_4" d="M9.6765 13.6765L9.323 13.323C9.2255 13.2255 9.2255 13.067 9.323 12.9695L12.573 9.7195C12.6705 9.622 12.829 9.622 12.9265 9.7195L14.7495 11.5425L17.396 8.896L18.103 9.603L14.9265 12.7795C14.829 12.877 14.6705 12.877 14.573 12.7795L12.75 10.957L10.0305 13.6765C9.9325 13.7745 9.7745 13.7745 9.6765 13.6765Z" fill="url(#paint3_linear_206_8221)"/>
<path id="Vector_5" d="M16.427 8.427L18.5735 10.5735C18.7305 10.7305 19 10.619 19 10.3965V8.25C19 8.112 18.888 8 18.75 8H16.6035C16.381 8 16.2695 8.2695 16.427 8.427Z" fill="url(#paint4_linear_206_8221)"/>
</g>
<defs>
<linearGradient id="paint0_linear_206_8221" x1="21.931" y1="12.5" x2="1.7035" y2="12.5" gradientUnits="userSpaceOnUse">
<stop stop-color="#0068B8"/>
<stop offset="1" stop-color="#004D94"/>
</linearGradient>
<linearGradient id="paint1_linear_206_8221" x1="2.0795" y1="9.25" x2="7.634" y2="9.25" gradientUnits="userSpaceOnUse">
<stop stop-color="#28AFEA"/>
<stop offset="1" stop-color="#0B88DA"/>
</linearGradient>
<linearGradient id="paint2_linear_206_8221" x1="12.6535" y1="15.5436" x2="12.6735" y2="16.6459" gradientUnits="userSpaceOnUse">
<stop stop-color="#32BDEF"/>
<stop offset="1" stop-color="#1EA2E4"/>
</linearGradient>
<linearGradient id="paint3_linear_206_8221" x1="12.4844" y1="9.10759" x2="13.0128" y2="14.4074" gradientUnits="userSpaceOnUse">
<stop stop-color="#32BDEF"/>
<stop offset="1" stop-color="#1EA2E4"/>
</linearGradient>
<linearGradient id="paint4_linear_206_8221" x1="17.3202" y1="8.11538" x2="17.834" y2="10.9407" gradientUnits="userSpaceOnUse">
<stop stop-color="#32BDEF"/>
<stop offset="1" stop-color="#1EA2E4"/>
</linearGradient>
</defs>
</svg>
