<svg width="24" height="24" viewBox="0 0 24 24" fill="none" xmlns="http://www.w3.org/2000/svg">
<g id="protective-glasses">
<path id="Vector" d="M8.75 2.5H7.25C7.011 2.5 6.787 2.6135 6.6455 2.806L1.8955 9.2715C1.7295 9.498 1.7035 9.798 1.8285 10.049C1.9535 10.3005 2.208 10.461 2.4885 10.4655L4.7385 10.5C4.7425 10.5 4.746 10.5 4.75 10.5C4.981 10.5 5.1995 10.3935 5.342 10.2105L8.6165 6H8.75C10.227 6 11 5.1195 11 4.25C11 3.3805 10.227 2.5 8.75 2.5Z" fill="url(#paint0_linear_206_8234)"/>
<path id="Vector_2" d="M22.1045 9.271L17.3545 2.8055C17.213 2.6135 16.989 2.5 16.75 2.5H15.25C14.623 2.5 14.0785 2.66 13.675 2.9625C13.246 3.284 13 3.7535 13 4.25C13 5.1195 13.773 6 15.25 6H15.3835L18.658 10.2105C18.8005 10.3935 19.019 10.5 19.25 10.5C19.254 10.5 19.258 10.5 19.2615 10.5L21.5115 10.4655C21.7925 10.461 22.047 10.3005 22.1715 10.049C22.2965 9.7975 22.2705 9.4975 22.1045 9.271Z" fill="url(#paint1_linear_206_8234)"/>
<path id="Vector_3" d="M22.0625 9.21902C21.92 9.05802 21.7155 8.96552 21.5 8.96552H2.5C2.285 8.96552 2.0805 9.05802 1.9375 9.21902C1.795 9.38052 1.729 9.59502 1.7555 9.80852L2.7875 18.09C2.9585 19.464 4.132 20.5 5.5165 20.5H9.132C9.7985 20.5 10.3985 20.1295 10.697 19.5325L11.2135 18.5H12.7865L13.303 19.533C13.6015 20.1295 14.201 20.5 14.868 20.5H18.4835C19.868 20.5 21.041 19.464 21.2125 18.09L22.244 9.80801C22.271 9.59451 22.2045 9.38002 22.0625 9.21902Z" fill="url(#paint2_linear_206_8234)"/>
</g>
<defs>
<linearGradient id="paint0_linear_206_8234" x1="6.375" y1="10.5" x2="6.375" y2="2.5" gradientUnits="userSpaceOnUse">
<stop stop-color="#006185"/>
<stop offset="0.25" stop-color="#35C1F1"/>
</linearGradient>
<linearGradient id="paint1_linear_206_8234" x1="17.625" y1="10.5" x2="17.625" y2="2.5" gradientUnits="userSpaceOnUse">
<stop stop-color="#006185"/>
<stop offset="0.25" stop-color="#35C1F1"/>
</linearGradient>
<linearGradient id="paint2_linear_206_8234" x1="12" y1="8.96552" x2="12" y2="20.5" gradientUnits="userSpaceOnUse">
<stop stop-color="#A3FFFF"/>
<stop offset="0.223" stop-color="#9DFBFF"/>
<stop offset="0.53" stop-color="#8BF1FF"/>
<stop offset="0.885" stop-color="#6EE0FF"/>
<stop offset="1" stop-color="#63DAFF"/>
</linearGradient>
</defs>
</svg>
