<svg width="24" height="24" viewBox="0 0 24 24" fill="none" xmlns="http://www.w3.org/2000/svg">
<g id="push-notifications">
<path id="Vector" d="M14.5 20H2.5V21.5C2.5 22.0525 2.9475 22.5 3.5 22.5H13.5C14.0525 22.5 14.5 22.0525 14.5 21.5V20Z" fill="url(#paint0_linear_206_8249)"/>
<path id="Vector_2" d="M14.5 16.5H2.5V20H14.5V16.5Z" fill="#0078D4"/>
<path id="Vector_3" d="M14.5 11.5H2.5V16.5H14.5V11.5Z" fill="#1B9DE2"/>
<path id="Vector_4" d="M14.5 4.5H2.5V11.5H14.5V4.5Z" fill="url(#paint1_linear_206_8249)"/>
<path id="Vector_5" d="M14.5 4.5H2.5V3C2.5 2.4475 2.9475 2 3.5 2H13.5C14.0525 2 14.5 2.4475 14.5 3V4.5Z" fill="url(#paint2_linear_206_8249)"/>
<path id="Vector_6" d="M6.5 3.625C6.70711 3.625 6.875 3.45711 6.875 3.25C6.875 3.04289 6.70711 2.875 6.5 2.875C6.29289 2.875 6.125 3.04289 6.125 3.25C6.125 3.45711 6.29289 3.625 6.5 3.625Z" fill="#0C63AD"/>
<path id="Vector_7" d="M10.25 2.875C10.153 2.875 7.847 2.875 7.75 2.875C7.543 2.875 7.375 3.043 7.375 3.25C7.375 3.457 7.543 3.625 7.75 3.625C7.847 3.625 10.153 3.625 10.25 3.625C10.457 3.625 10.625 3.457 10.625 3.25C10.625 3.043 10.457 2.875 10.25 2.875Z" fill="#0C63AD"/>
<path id="Vector_8" opacity="0.07" d="M14.5 5.75H9.633C9.146 5.75 8.75 6.146 8.75 6.633V14.8675C8.75 15.3545 9.146 15.7505 9.633 15.7505H11.75V18.034C11.75 18.3465 12.005 18.601 12.3185 18.601C12.468 18.601 12.6095 18.542 12.7165 18.4345L14.5 16.6505V5.75Z" fill="black"/>
<path id="Vector_9" opacity="0.05" d="M14.5 5.5H9.633C9.0085 5.5 8.5 6.008 8.5 6.633V14.8675C8.5 15.492 9.0085 16 9.633 16H11.5V18.0335C11.5 18.484 11.867 18.8505 12.3185 18.8505C12.5345 18.8505 12.739 18.7655 12.8935 18.611L14.5 17.004V5.5Z" fill="black"/>
<path id="Vector_10" d="M20.8675 6H9.6325C9.2835 6 9 6.2835 9 6.6325V14.867C9 15.2165 9.2835 15.5 9.6325 15.5H12V18.0335C12 18.3155 12.3405 18.4565 12.54 18.257L15.297 15.5H20.867C21.2165 15.5 21.5 15.2165 21.5 14.8675V6.6325C21.5 6.2835 21.2165 6 20.8675 6Z" fill="url(#paint3_linear_206_8249)"/>
<path id="Vector_11" d="M15.25 9.4845C15.043 9.4845 14.875 9.3165 14.875 9.1095V7.7655C14.875 7.5585 15.043 7.3905 15.25 7.3905C15.457 7.3905 15.625 7.5585 15.625 7.7655V9.1095C15.625 9.3165 15.457 9.4845 15.25 9.4845Z" fill="#FFD600"/>
<path id="Vector_12" d="M18 10.6405C18 8.90899 16.264 7.56699 14.3725 8.13049C13.238 8.46849 12.5 9.56649 12.5 10.75V12.5H18C18 12.5 18 10.709 18 10.6405Z" fill="#F5BE00"/>
<path id="Vector_13" d="M16.0105 13.2395C16.0105 13.6595 15.67 14 15.25 14C14.83 14 14.4895 13.6595 14.4895 13.2395H16.0105Z" fill="url(#paint4_linear_206_8249)"/>
<path id="Vector_14" d="M18.5175 12.9045L18 12.5H12.5L11.9825 12.9045C11.9035 12.9655 11.8485 13.0575 11.8485 13.167C11.8485 13.351 11.9945 13.5005 12.1745 13.5005H18.326C18.506 13.5005 18.652 13.351 18.652 13.167C18.6515 13.0575 18.597 12.9655 18.5175 12.9045Z" fill="url(#paint5_linear_206_8249)"/>
</g>
<defs>
<linearGradient id="paint0_linear_206_8249" x1="6.6658" y1="20.1093" x2="6.75303" y2="22.831" gradientUnits="userSpaceOnUse">
<stop stop-color="#0D61A9"/>
<stop offset="1" stop-color="#16528C"/>
</linearGradient>
<linearGradient id="paint1_linear_206_8249" x1="6.8842" y1="4.80514" x2="7.6939" y2="12.4381" gradientUnits="userSpaceOnUse">
<stop stop-color="#32BDEF"/>
<stop offset="1" stop-color="#1EA2E4"/>
</linearGradient>
<linearGradient id="paint2_linear_206_8249" x1="6.28343" y1="2.03838" x2="6.60648" y2="5.02817" gradientUnits="userSpaceOnUse">
<stop stop-color="#7DD8F3"/>
<stop offset="1" stop-color="#45B0D0"/>
</linearGradient>
<linearGradient id="paint3_linear_206_8249" x1="10.0455" y1="5.8625" x2="20.471" y2="15.82" gradientUnits="userSpaceOnUse">
<stop stop-color="#F44F5A"/>
<stop offset="0.443" stop-color="#EE3D4A"/>
<stop offset="1" stop-color="#E52030"/>
</linearGradient>
<linearGradient id="paint4_linear_206_8249" x1="15.25" y1="13.9845" x2="15.25" y2="13.2125" gradientUnits="userSpaceOnUse">
<stop offset="0.486" stop-color="#FBC300"/>
<stop offset="1" stop-color="#DBAA00"/>
</linearGradient>
<linearGradient id="paint5_linear_206_8249" x1="15.25" y1="12.4985" x2="15.25" y2="13.501" gradientUnits="userSpaceOnUse">
<stop stop-color="#FEDE00"/>
<stop offset="1" stop-color="#FFD000"/>
</linearGradient>
</defs>
</svg>
