<svg width="24" height="24" viewBox="0 0 24 24" fill="none" xmlns="http://www.w3.org/2000/svg">
<g id="receipt-terminal">
<path id="Vector" d="M21 20.5V8C21 7.4475 20.5525 7 20 7H4C3.4475 7 3 7.4475 3 8V20.5C3 21.0525 3.4475 21.5 4 21.5H20C20.5525 21.5 21 21.0525 21 20.5Z" fill="url(#paint0_linear_206_8331)"/>
<path id="Vector_2" d="M6 9.5H18C18.5525 9.5 19 9.9475 19 10.5C19 11.0525 18.5525 11.5 18 11.5H6C5.4475 11.5 5 11.0525 5 10.5C5 9.9475 5.4475 9.5 6 9.5Z" fill="url(#paint1_linear_206_8331)"/>
<path id="Vector_3" d="M17.5 11V3C17.5 2.724 17.276 2.5 17 2.5H16.5C16.5 2.776 16.276 3 16 3C15.724 3 15.5 2.776 15.5 2.5H14.5C14.5 2.776 14.276 3 14 3C13.724 3 13.5 2.776 13.5 2.5H12.5C12.5 2.776 12.276 3 12 3C11.724 3 11.5 2.776 11.5 2.5H10.5C10.5 2.776 10.276 3 10 3C9.724 3 9.5 2.776 9.5 2.5H8.5C8.5 2.776 8.276 3 8 3C7.724 3 7.5 2.776 7.5 2.5H7C6.724 2.5 6.5 2.724 6.5 3V11H17.5Z" fill="url(#paint2_linear_206_8331)"/>
<path id="Vector_4" d="M6.5 13H17.5C18.0525 13 18.5 13.4475 18.5 14V15C18.5 15.5525 18.0525 16 17.5 16H6.5C5.9475 16 5.5 15.5525 5.5 15V14C5.5 13.4475 5.9475 13 6.5 13Z" fill="url(#paint3_linear_206_8331)"/>
<path id="Vector_5" d="M18 20H16.5C16.224 20 16 19.776 16 19.5V18C16 17.724 16.224 17.5 16.5 17.5H18C18.276 17.5 18.5 17.724 18.5 18V19.5C18.5 19.776 18.276 20 18 20Z" fill="url(#paint4_linear_206_8331)"/>
<path id="Vector_6" d="M7.5 20H6C5.724 20 5.5 19.776 5.5 19.5V18C5.5 17.724 5.724 17.5 6 17.5H7.5C7.776 17.5 8 17.724 8 18V19.5C8 19.776 7.776 20 7.5 20ZM11 20H9.5C9.224 20 9 19.776 9 19.5V18C9 17.724 9.224 17.5 9.5 17.5H11C11.276 17.5 11.5 17.724 11.5 18V19.5C11.5 19.776 11.276 20 11 20ZM14.5 20H13C12.724 20 12.5 19.776 12.5 19.5V18C12.5 17.724 12.724 17.5 13 17.5H14.5C14.776 17.5 15 17.724 15 18V19.5C15 19.776 14.776 20 14.5 20Z" fill="#CAD2D9"/>
<path id="Vector_7" d="M17.5 10.5H6.5V11.5H17.5V10.5Z" fill="url(#paint5_linear_206_8331)"/>
<path id="Vector_8" opacity="0.05" d="M11.9185 9.554C11.601 9.554 11.3415 9.298 11.336 8.9815C11.1325 8.937 10.936 8.876 10.767 8.804C10.5125 8.6955 10.348 8.4475 10.348 8.172V7.7795C10.348 7.445 10.6195 7.173 10.954 7.173H10.9845C10.617 6.934 10.2905 6.5585 10.2905 5.926C10.2905 5.2535 10.686 4.7255 11.3355 4.5095C11.345 4.197 11.6025 3.9455 11.9175 3.9455H12.082C12.3775 3.9455 12.622 4.1665 12.6595 4.452C12.808 4.477 12.939 4.5115 13.0555 4.557C13.1575 4.597 13.487 4.7635 13.487 5.234V5.5785C13.487 5.912 13.215 6.184 12.881 6.184H12.817C13.259 6.4105 13.709 6.787 13.709 7.5215C13.709 8.048 13.431 8.714 12.665 8.9615V8.971C12.665 9.292 12.404 9.5535 12.0825 9.5535H11.9185V9.554Z" fill="black"/>
<path id="Vector_9" opacity="0.07" d="M11.9185 9.304C11.7355 9.304 11.586 9.155 11.586 8.9715V8.774C11.333 8.734 11.0755 8.6635 10.865 8.574C10.703 8.505 10.598 8.347 10.598 8.172V7.7795C10.598 7.583 10.7575 7.423 10.954 7.423H11.014L11.115 7.462C11.2175 7.5145 11.583 7.6855 12 7.6855C12.2895 7.6855 12.2895 7.5955 12.2895 7.557C12.2895 7.459 12.0095 7.3555 11.785 7.2725C11.2895 7.089 10.5405 6.812 10.5405 5.9265C10.5405 5.305 10.9435 4.842 11.585 4.7V4.528C11.585 4.345 11.734 4.1955 11.9175 4.1955H12.082C12.265 4.1955 12.4145 4.3445 12.4145 4.528V4.6725C12.6335 4.6935 12.8155 4.732 12.965 4.7905C13.0475 4.823 13.237 4.9305 13.237 5.2345V5.579C13.237 5.775 13.077 5.9345 12.881 5.9345H12.8245L12.726 5.8995C12.595 5.838 12.324 5.7345 11.9995 5.7345C11.8075 5.7345 11.71 5.78 11.71 5.8695C11.71 5.9935 11.9255 6.086 12.254 6.2135C12.7625 6.411 13.4585 6.6815 13.4585 7.522C13.4585 8.017 13.18 8.6115 12.4145 8.77V8.972C12.4145 9.155 12.2655 9.3045 12.082 9.3045H11.9185V9.304Z" fill="black"/>
<path id="Vector_10" d="M13.209 7.5225C13.209 6.338 11.4605 6.5695 11.4605 5.8695C11.4605 5.504 11.8715 5.4845 11.9995 5.4845C12.308 5.4845 12.606 5.5675 12.833 5.674C12.905 5.708 12.987 5.658 12.987 5.579V5.2345C12.987 5.119 12.9435 5.0505 12.874 5.023C12.7185 4.9625 12.495 4.918 12.164 4.907V4.528C12.164 4.4825 12.127 4.4455 12.0815 4.4455H11.917C11.8715 4.4455 11.8345 4.4825 11.8345 4.528V4.9135C11.3215 4.9635 10.79 5.253 10.79 5.9265C10.79 7.1545 12.5385 6.9105 12.5385 7.5575C12.5385 7.761 12.4085 7.936 11.9995 7.936C11.588 7.936 11.21 7.7925 11.001 7.685C10.9305 7.649 10.8475 7.701 10.8475 7.78V8.1725C10.8475 8.2475 10.893 8.3145 10.9625 8.3445C11.2105 8.45 11.543 8.5295 11.8355 8.553V8.972C11.8355 9.0175 11.8725 9.0545 11.918 9.0545H12.0825C12.128 9.0545 12.165 9.0175 12.165 8.972V8.5535C12.932 8.4895 13.209 7.976 13.209 7.5225Z" fill="white"/>
</g>
<defs>
<linearGradient id="paint0_linear_206_8331" x1="12" y1="6.734" x2="12" y2="21.5545" gradientUnits="userSpaceOnUse">
<stop stop-color="#899198"/>
<stop offset="1" stop-color="#787E85"/>
</linearGradient>
<linearGradient id="paint1_linear_206_8331" x1="12" y1="11.5105" x2="12" y2="9.5745" gradientUnits="userSpaceOnUse">
<stop stop-color="#0D61A9"/>
<stop offset="1" stop-color="#16528C"/>
</linearGradient>
<linearGradient id="paint2_linear_206_8331" x1="9.96814" y1="2.6305" x2="13.5193" y2="11.4912" gradientUnits="userSpaceOnUse">
<stop stop-color="#7DD8F3"/>
<stop offset="1" stop-color="#45B0D0"/>
</linearGradient>
<linearGradient id="paint3_linear_206_8331" x1="5.8065" y1="12.876" x2="17.9765" y2="16.0675" gradientUnits="userSpaceOnUse">
<stop stop-color="#4FE5FF"/>
<stop offset="1" stop-color="#2EB7ED"/>
</linearGradient>
<linearGradient id="paint4_linear_206_8331" x1="16.3661" y1="17.8661" x2="18.1339" y2="19.6339" gradientUnits="userSpaceOnUse">
<stop stop-color="#21AD64"/>
<stop offset="1" stop-color="#088242"/>
</linearGradient>
<linearGradient id="paint5_linear_206_8331" x1="10.5189" y1="10.5436" x2="10.5371" y2="11.646" gradientUnits="userSpaceOnUse">
<stop stop-color="#32BDEF"/>
<stop offset="1" stop-color="#1EA2E4"/>
</linearGradient>
</defs>
</svg>
