<svg width="24" height="24" viewBox="0 0 24 24" fill="none" xmlns="http://www.w3.org/2000/svg">
<g id="repeat">
<path id="Vector" d="M6.5 17V13.0195C6.5 12.781 6.4145 12.55 6.2595 12.3685L4.38 10.1755C4.0775 9.82299 3.5 10.037 3.5 10.501V17H6.5Z" fill="#0368BA"/>
<path id="Vector_2" d="M17.5 7V10.9805C17.5 11.219 17.5855 11.45 17.7405 11.6315L19.62 13.8245C19.9225 14.177 20.5 13.963 20.5 13.499V7H17.5Z" fill="#0368BA"/>
<path id="Vector_3" d="M16 14.905V17H3.5L5.914 19.414C6.289 19.789 6.798 20 7.328 20H16V22.095C16 22.455 16.435 22.635 16.6895 22.3805L20.04 19.03C20.333 18.737 20.333 18.262 20.04 17.9695L16.6895 14.619C16.435 14.3645 16 14.545 16 14.905Z" fill="#0884DB"/>
<path id="Vector_4" d="M8 9.095V7H20.5L18.086 4.586C17.7105 4.2105 17.202 4 16.6715 4H8V1.905C8 1.545 7.565 1.365 7.3105 1.6195L3.96 4.9695C3.667 5.2625 3.667 5.7375 3.96 6.03L7.3105 9.3805C7.565 9.6355 8 9.455 8 9.095Z" fill="#0884DB"/>
</g>
</svg>
