<svg width="24" height="24" viewBox="0 0 24 24" fill="none" xmlns="http://www.w3.org/2000/svg">
<g id="resume-template">
<path id="Vector" d="M19.5 3.5V20.5C19.5 21.0525 19.0525 21.5 18.5 21.5H5.5C4.9475 21.5 4.5 21.0525 4.5 20.5V3.5C4.5 2.9475 4.9475 2.5 5.5 2.5H18.5C19.0525 2.5 19.5 2.9475 19.5 3.5Z" fill="url(#paint0_linear_206_8498)"/>
<path id="Vector_2" d="M16.5 19H7.5C7.224 19 7 18.776 7 18.5V12.5C7 12.224 7.224 12 7.5 12H16.5C16.776 12 17 12.224 17 12.5V18.5C17 18.776 16.776 19 16.5 19Z" fill="url(#paint1_linear_206_8498)"/>
<path id="Vector_3" d="M11 5.5H7.5C7.224 5.5 7 5.724 7 6V10C7 10.276 7.224 10.5 7.5 10.5H11C11.276 10.5 11.5 10.276 11.5 10V6C11.5 5.724 11.276 5.5 11 5.5Z" fill="url(#paint2_linear_206_8498)"/>
<path id="Vector_4" d="M16.5 5.5H13C12.724 5.5 12.5 5.724 12.5 6V10C12.5 10.276 12.724 10.5 13 10.5H16.5C16.776 10.5 17 10.276 17 10V6C17 5.724 16.776 5.5 16.5 5.5Z" fill="url(#paint3_linear_206_8498)"/>
</g>
<defs>
<linearGradient id="paint0_linear_206_8498" x1="9.22929" y1="2.79171" x2="19.7783" y2="18.8491" gradientUnits="userSpaceOnUse">
<stop stop-color="#7DD8F3"/>
<stop offset="1" stop-color="#45B0D0"/>
</linearGradient>
<linearGradient id="paint1_linear_206_8498" x1="10.6535" y1="12.3051" x2="11.6204" y2="19.9009" gradientUnits="userSpaceOnUse">
<stop stop-color="#32BDEF"/>
<stop offset="1" stop-color="#1EA2E4"/>
</linearGradient>
<linearGradient id="paint2_linear_206_8498" x1="8.64408" y1="5.71795" x2="9.71441" y2="11.0152" gradientUnits="userSpaceOnUse">
<stop stop-color="#32BDEF"/>
<stop offset="1" stop-color="#1EA2E4"/>
</linearGradient>
<linearGradient id="paint3_linear_206_8498" x1="14.1441" y1="5.71795" x2="15.2144" y2="11.0152" gradientUnits="userSpaceOnUse">
<stop stop-color="#32BDEF"/>
<stop offset="1" stop-color="#1EA2E4"/>
</linearGradient>
</defs>
</svg>
