<svg width="24" height="24" viewBox="0 0 24 24" fill="none" xmlns="http://www.w3.org/2000/svg">
<g id="right-navigation-toolbar">
<path id="Vector" d="M3 20C3 20.5525 3.4475 21 4 21H16C16.5525 21 17 20.5525 17 20V4C17 3.4475 16.5525 3 16 3H4C3.4475 3 3 3.4475 3 4V20Z" fill="url(#paint0_linear_206_8523)"/>
<path id="Vector_2" d="M14 21H20C20.5525 21 21 20.5525 21 20V4C21 3.4475 20.5525 3 20 3H14V21Z" fill="url(#paint1_linear_206_8523)"/>
<path id="Vector_3" d="M16 4C15.4475 4 15 4.4475 15 5C15 5.5525 15.4475 6 16 6C16.5525 6 17 5.5525 17 5C17 4.4475 16.5525 4 16 4Z" fill="url(#paint2_linear_206_8523)"/>
<path id="Vector_4" d="M19 4C18.4475 4 18 4.4475 18 5C18 5.5525 18.4475 6 19 6C19.5525 6 20 5.5525 20 5C20 4.4475 19.5525 4 19 4Z" fill="url(#paint3_linear_206_8523)"/>
<path id="Vector_5" d="M19.75 8H15.25C15.112 8 15 7.888 15 7.75V7.25C15 7.112 15.112 7 15.25 7H19.75C19.888 7 20 7.112 20 7.25V7.75C20 7.888 19.888 8 19.75 8Z" fill="url(#paint4_linear_206_8523)"/>
</g>
<defs>
<linearGradient id="paint0_linear_206_8523" x1="6.10158" y1="0.318487" x2="19.0988" y2="15.1582" gradientUnits="userSpaceOnUse">
<stop stop-color="#FCFCFC"/>
<stop offset="0.95" stop-color="#C3C9CD"/>
</linearGradient>
<linearGradient id="paint1_linear_206_8523" x1="21" y1="12" x2="14" y2="12" gradientUnits="userSpaceOnUse">
<stop stop-color="#1951A8"/>
<stop offset="0.175" stop-color="#1955B0"/>
<stop offset="0.505" stop-color="#195AB9"/>
<stop offset="1" stop-color="#195BBC"/>
</linearGradient>
<linearGradient id="paint2_linear_206_8523" x1="15.149" y1="4.149" x2="16.577" y2="5.577" gradientUnits="userSpaceOnUse">
<stop stop-color="#FFC430"/>
<stop offset="0.41" stop-color="#FEC130"/>
<stop offset="0.72" stop-color="#FCB730"/>
<stop offset="0.998" stop-color="#F7A72F"/>
<stop offset="1" stop-color="#F7A72F"/>
</linearGradient>
<linearGradient id="paint3_linear_206_8523" x1="18.141" y1="4.141" x2="19.5655" y2="5.5655" gradientUnits="userSpaceOnUse">
<stop stop-color="#9DFFCE"/>
<stop offset="1" stop-color="#50D18D"/>
</linearGradient>
<linearGradient id="paint4_linear_206_8523" x1="15" y1="7.5" x2="20" y2="7.5" gradientUnits="userSpaceOnUse">
<stop stop-color="#7DD8F3"/>
<stop offset="1" stop-color="#45B0D0"/>
</linearGradient>
</defs>
</svg>
