<svg width="24" height="24" viewBox="0 0 24 24" fill="none" xmlns="http://www.w3.org/2000/svg">
<g id="rubik&#39;s-cube">
<path id="Vector" d="M4 21C3.45 21 3 20.55 3 20V16C3 15.45 3.45 15 4 15H8C8.55 15 9 15.45 9 16V20C9 20.55 8.55 21 8 21H4Z" fill="url(#paint0_linear_206_8561)"/>
<path id="Vector_2" d="M10 21C9.45 21 9 20.55 9 20V16C9 15.45 9.45 15 10 15H14C14.55 15 15 15.45 15 16V20C15 20.55 14.55 21 14 21H10Z" fill="url(#paint1_linear_206_8561)"/>
<path id="Vector_3" d="M16 21C15.45 21 15 20.55 15 20V16C15 15.45 15.45 15 16 15H20C20.55 15 21 15.45 21 16V20C21 20.55 20.55 21 20 21H16Z" fill="url(#paint2_linear_206_8561)"/>
<path id="Vector_4" d="M4 15C3.45 15 3 14.55 3 14V10C3 9.45 3.45 9 4 9H8C8.55 9 9 9.45 9 10V14C9 14.55 8.55 15 8 15H4Z" fill="url(#paint3_linear_206_8561)"/>
<path id="Vector_5" d="M10 15C9.45 15 9 14.55 9 14V10C9 9.45 9.45 9 10 9H14C14.55 9 15 9.45 15 10V14C15 14.55 14.55 15 14 15H10Z" fill="url(#paint4_linear_206_8561)"/>
<path id="Vector_6" d="M16 15C15.45 15 15 14.55 15 14V10C15 9.45 15.45 9 16 9H20C20.55 9 21 9.45 21 10V14C21 14.55 20.55 15 20 15H16Z" fill="url(#paint5_linear_206_8561)"/>
<path id="Vector_7" d="M4 9C3.45 9 3 8.55 3 8V4C3 3.45 3.45 3 4 3H8C8.55 3 9 3.45 9 4V8C9 8.55 8.55 9 8 9H4Z" fill="url(#paint6_linear_206_8561)"/>
<path id="Vector_8" d="M10 9C9.45 9 9 8.55 9 8V4C9 3.45 9.45 3 10 3H14C14.55 3 15 3.45 15 4V8C15 8.55 14.55 9 14 9H10Z" fill="url(#paint7_linear_206_8561)"/>
<path id="Vector_9" d="M16 9C15.45 9 15 8.55 15 8V4C15 3.45 15.45 3 16 3H20C20.55 3 21 3.45 21 4V8C21 8.55 20.55 9 20 9H16Z" fill="url(#paint8_linear_206_8561)"/>
<path id="Vector_10" d="M21.5 4C21.5 3.15 20.85 2.5 20 2.5H16C15.608 2.5 15.263 2.6425 15 2.875C14.737 2.6425 14.392 2.5 14 2.5H10C9.608 2.5 9.263 2.6425 9 2.875C8.737 2.6425 8.392 2.5 8 2.5H4C3.15 2.5 2.5 3.15 2.5 4V8C2.5 8.392 2.6425 8.737 2.875 9C2.6425 9.263 2.5 9.608 2.5 10V14C2.5 14.392 2.6425 14.737 2.875 15C2.6425 15.263 2.5 15.608 2.5 16V20C2.5 20.85 3.15 21.5 4 21.5H8C8.392 21.5 8.737 21.3575 9 21.125C9.263 21.357 9.608 21.5 10 21.5H14C14.392 21.5 14.737 21.3575 15 21.125C15.263 21.357 15.608 21.5 16 21.5H20C20.85 21.5 21.5 20.85 21.5 20V16C21.5 15.608 21.3575 15.263 21.125 15C21.357 14.737 21.5 14.392 21.5 14V10C21.5 9.608 21.3575 9.263 21.125 9C21.357 8.737 21.5 8.392 21.5 8V4ZM16 3.5H20C20.3 3.5 20.5 3.7 20.5 4V8C20.5 8.3 20.3 8.5 20 8.5H16C15.7 8.5 15.5 8.3 15.5 8V4C15.5 3.7 15.7 3.5 16 3.5ZM20.5 10V14C20.5 14.3 20.3 14.5 20 14.5H16C15.7 14.5 15.5 14.3 15.5 14V10C15.5 9.7 15.7 9.5 16 9.5H20C20.3 9.5 20.5 9.7 20.5 10ZM3.5 14V10C3.5 9.7 3.7 9.5 4 9.5H8C8.3 9.5 8.5 9.7 8.5 10V14C8.5 14.3 8.3 14.5 8 14.5H4C3.7 14.5 3.5 14.3 3.5 14ZM9.5 14V10C9.5 9.7 9.7 9.5 10 9.5H14C14.3 9.5 14.5 9.7 14.5 10V14C14.5 14.3 14.3 14.5 14 14.5H10C9.7 14.5 9.5 14.3 9.5 14ZM10 3.5H14C14.3 3.5 14.5 3.7 14.5 4V8C14.5 8.3 14.3 8.5 14 8.5H10C9.7 8.5 9.5 8.3 9.5 8V4C9.5 3.7 9.7 3.5 10 3.5ZM3.5 4C3.5 3.7 3.7 3.5 4 3.5H8C8.3 3.5 8.5 3.7 8.5 4V8C8.5 8.3 8.3 8.5 8 8.5H4C3.7 8.5 3.5 8.3 3.5 8V4ZM8 20.5H4C3.7 20.5 3.5 20.3 3.5 20V16C3.5 15.7 3.7 15.5 4 15.5H8C8.3 15.5 8.5 15.7 8.5 16V20C8.5 20.3 8.3 20.5 8 20.5ZM14 20.5H10C9.7 20.5 9.5 20.3 9.5 20V16C9.5 15.7 9.7 15.5 10 15.5H14C14.3 15.5 14.5 15.7 14.5 16V20C14.5 20.3 14.3 20.5 14 20.5ZM20.5 20C20.5 20.3 20.3 20.5 20 20.5H16C15.7 20.5 15.5 20.3 15.5 20V16C15.5 15.7 15.7 15.5 16 15.5H20C20.3 15.5 20.5 15.7 20.5 16V20Z" fill="url(#paint9_linear_206_8561)"/>
</g>
<defs>
<linearGradient id="paint0_linear_206_8561" x1="5.299" y1="14.7015" x2="6.701" y2="21.2985" gradientUnits="userSpaceOnUse">
<stop stop-color="#FFDA1C"/>
<stop offset="1" stop-color="#FEB705"/>
</linearGradient>
<linearGradient id="paint1_linear_206_8561" x1="11.299" y1="14.7015" x2="12.701" y2="21.2985" gradientUnits="userSpaceOnUse">
<stop stop-color="#2AA4F4"/>
<stop offset="1" stop-color="#007AD9"/>
</linearGradient>
<linearGradient id="paint2_linear_206_8561" x1="17.299" y1="14.7015" x2="18.701" y2="21.2985" gradientUnits="userSpaceOnUse">
<stop stop-color="#21AD64"/>
<stop offset="1" stop-color="#088242"/>
</linearGradient>
<linearGradient id="paint3_linear_206_8561" x1="5.299" y1="8.7015" x2="6.701" y2="15.2985" gradientUnits="userSpaceOnUse">
<stop stop-color="#21AD64"/>
<stop offset="1" stop-color="#088242"/>
</linearGradient>
<linearGradient id="paint4_linear_206_8561" x1="11.299" y1="8.7015" x2="12.701" y2="15.2985" gradientUnits="userSpaceOnUse">
<stop stop-color="#F45560"/>
<stop offset="1" stop-color="#CF1928"/>
</linearGradient>
<linearGradient id="paint5_linear_206_8561" x1="17.299" y1="8.7015" x2="18.701" y2="15.2985" gradientUnits="userSpaceOnUse">
<stop stop-color="#F9F9F9"/>
<stop offset="0.168" stop-color="#F1F2F3"/>
<stop offset="0.376" stop-color="#E5E7E9"/>
<stop offset="0.607" stop-color="#DDE0E2"/>
<stop offset="1" stop-color="#C2C8CC"/>
</linearGradient>
<linearGradient id="paint6_linear_206_8561" x1="5.299" y1="2.7015" x2="6.701" y2="9.2985" gradientUnits="userSpaceOnUse">
<stop stop-color="#2AA4F4"/>
<stop offset="1" stop-color="#007AD9"/>
</linearGradient>
<linearGradient id="paint7_linear_206_8561" x1="11.299" y1="2.7015" x2="12.701" y2="9.2985" gradientUnits="userSpaceOnUse">
<stop stop-color="#F9F9F9"/>
<stop offset="0.168" stop-color="#F1F2F3"/>
<stop offset="0.376" stop-color="#E5E7E9"/>
<stop offset="0.607" stop-color="#DDE0E2"/>
<stop offset="1" stop-color="#C2C8CC"/>
</linearGradient>
<linearGradient id="paint8_linear_206_8561" x1="17.299" y1="2.7015" x2="18.701" y2="9.2985" gradientUnits="userSpaceOnUse">
<stop stop-color="#FFDA1C"/>
<stop offset="1" stop-color="#FEB705"/>
</linearGradient>
<linearGradient id="paint9_linear_206_8561" x1="2.5" y1="12" x2="21.5" y2="12" gradientUnits="userSpaceOnUse">
<stop stop-color="#41474A"/>
<stop offset="1" stop-color="#323538"/>
</linearGradient>
</defs>
</svg>
