<svg width="24" height="24" viewBox="0 0 24 24" fill="none" xmlns="http://www.w3.org/2000/svg">
<g id="save">
<path id="Vector" d="M18.1 3H4C3.45 3 3 3.45 3 4V20C3 20.55 3.45 21 4 21H20C20.55 21 21 20.55 21 20V5.9C21 5.65 20.9 5.4 20.7 5.2L18.8 3.3C18.6 3.1 18.35 3 18.1 3Z" fill="url(#paint0_linear_206_8579)"/>
<path id="Vector_2" opacity="0.05" d="M18 3H7V8C7 8.85 7.65 9.5 8.5 9.5H16.5C17.35 9.5 18 8.85 18 8V3Z" fill="black"/>
<path id="Vector_3" d="M16.5 9.5H6.5C5.95 9.5 5.5 9.05 5.5 8.5V3H17.5V8.5C17.5 9.05 17.05 9.5 16.5 9.5Z" fill="#1FA4E6"/>
<path id="Vector_4" opacity="0.07" d="M16.5 9.25H8.5C7.8 9.25 7.25 8.7 7.25 8V3H17.75V8C17.75 8.7 17.2 9.25 16.5 9.25Z" fill="black"/>
<path id="Vector_5" d="M7.5 3V8C7.5 8.55 7.95 9 8.5 9H16.5C17.05 9 17.5 8.55 17.5 8V3H7.5Z" fill="url(#paint1_radial_206_8579)"/>
<path id="Vector_6" d="M15.5 4H13.5V8H15.5V4Z" fill="#177CAD"/>
<path id="Vector_7" d="M20 19H19V20H20V19Z" fill="url(#paint2_linear_206_8579)"/>
<path id="Vector_8" d="M5 19H4V20H5V19Z" fill="url(#paint3_linear_206_8579)"/>
<path id="Vector_9" d="M17 21H7C6.45 21 6 20.55 6 20V14C6 13.45 6.45 13 7 13H17C17.55 13 18 13.45 18 14V20C18 20.55 17.55 21 17 21Z" fill="url(#paint4_linear_206_8579)"/>
</g>
<defs>
<linearGradient id="paint0_linear_206_8579" x1="2.8575" y1="3.815" x2="20.4285" y2="21.3855" gradientUnits="userSpaceOnUse">
<stop stop-color="#32BDEF"/>
<stop offset="1" stop-color="#1EA2E4"/>
</linearGradient>
<radialGradient id="paint1_radial_206_8579" cx="0" cy="0" r="1" gradientUnits="userSpaceOnUse" gradientTransform="translate(8.7865 1.304) scale(11.935)">
<stop stop-color="#FAFAFB"/>
<stop offset="0.523" stop-color="#E2E4E7"/>
<stop offset="1" stop-color="#C8CDD1"/>
</radialGradient>
<linearGradient id="paint2_linear_206_8579" x1="19.0015" y1="19.0015" x2="20.0135" y2="20.0135" gradientUnits="userSpaceOnUse">
<stop stop-color="#0D61A9"/>
<stop offset="1" stop-color="#16528C"/>
</linearGradient>
<linearGradient id="paint3_linear_206_8579" x1="4.0015" y1="19.0015" x2="5.0135" y2="20.0135" gradientUnits="userSpaceOnUse">
<stop stop-color="#0D61A9"/>
<stop offset="1" stop-color="#16528C"/>
</linearGradient>
<linearGradient id="paint4_linear_206_8579" x1="6.915" y1="11.915" x2="17.4825" y2="22.4825" gradientUnits="userSpaceOnUse">
<stop stop-color="white"/>
<stop offset="0.242" stop-color="#F2F2F2"/>
<stop offset="1" stop-color="#CCCCCC"/>
</linearGradient>
</defs>
</svg>
