<svg width="24" height="24" viewBox="0 0 24 24" fill="none" xmlns="http://www.w3.org/2000/svg">
<g id="search-in-browser" clip-path="url(#clip0_206_8665)">
<path id="Vector" d="M2 19V7.5H22V19C22 19.55 21.55 20 21 20H3C2.45 20 2 19.55 2 19Z" fill="url(#paint0_linear_206_8665)"/>
<path id="Vector_2" d="M22 5V7.5H2V5C2 4.45 2.45 4 3 4H21C21.55 4 22 4.45 22 5Z" fill="url(#paint1_linear_206_8665)"/>
<path id="Vector_3" d="M8.25 6.5H20.75C20.888 6.5 21 6.388 21 6.25V5.25C21 5.112 20.888 5 20.75 5H8.25C8.112 5 8 5.112 8 5.25V6.25C8 6.388 8.112 6.5 8.25 6.5Z" fill="url(#paint2_linear_206_8665)"/>
<path id="Vector_4" d="M3.75 6.5C4.16421 6.5 4.5 6.16421 4.5 5.75C4.5 5.33579 4.16421 5 3.75 5C3.33579 5 3 5.33579 3 5.75C3 6.16421 3.33579 6.5 3.75 6.5Z" fill="url(#paint3_linear_206_8665)"/>
<path id="Vector_5" d="M6.25 6.5C6.66421 6.5 7 6.16421 7 5.75C7 5.33579 6.66421 5 6.25 5C5.83579 5 5.5 5.33579 5.5 5.75C5.5 6.16421 5.83579 6.5 6.25 6.5Z" fill="url(#paint4_linear_206_8665)"/>
<path id="Vector_6" d="M22.496 21.612L21.612 22.496L23.0795 23.9635C23.1285 24.0125 23.2075 24.0125 23.2565 23.9635L23.9635 23.2565C24.0125 23.2075 24.0125 23.1285 23.9635 23.0795L22.496 21.612Z" fill="url(#paint5_linear_206_8665)"/>
<path id="Vector_7" d="M21.4 20.5165L20.5165 21.4L21.612 22.496L22.496 21.612L21.4 20.5165Z" fill="url(#paint6_radial_206_8665)"/>
<path id="Vector_8" d="M18.5 13.5C15.743 13.5 13.5 15.743 13.5 18.5C13.5 19.0225 13.5815 19.526 13.7305 20H21C21.55 20 22 19.55 22 19V14.9355C21.0975 14.049 19.862 13.5 18.5 13.5Z" fill="url(#paint7_radial_206_8665)"/>
<path id="Vector_9" d="M18.5 22.5C20.7091 22.5 22.5 20.7091 22.5 18.5C22.5 16.2909 20.7091 14.5 18.5 14.5C16.2909 14.5 14.5 16.2909 14.5 18.5C14.5 20.7091 16.2909 22.5 18.5 22.5Z" fill="url(#paint8_linear_206_8665)"/>
</g>
<defs>
<linearGradient id="paint0_linear_206_8665" x1="8.30571" y1="7.69191" x2="12.742" y2="21.3773" gradientUnits="userSpaceOnUse">
<stop stop-color="#7DD8F3"/>
<stop offset="1" stop-color="#45B0D0"/>
</linearGradient>
<linearGradient id="paint1_linear_206_8665" x1="2.307" y1="3.8705" x2="21.468" y2="7.7665" gradientUnits="userSpaceOnUse">
<stop stop-color="#0077D2"/>
<stop offset="1" stop-color="#0B59A2"/>
</linearGradient>
<linearGradient id="paint2_linear_206_8665" x1="8" y1="5.75" x2="21" y2="5.75" gradientUnits="userSpaceOnUse">
<stop stop-color="#7DD8F3"/>
<stop offset="1" stop-color="#45B0D0"/>
</linearGradient>
<linearGradient id="paint3_linear_206_8665" x1="3.47293" y1="5.02303" x2="4.21466" y2="6.45314" gradientUnits="userSpaceOnUse">
<stop stop-color="#7DD8F3"/>
<stop offset="1" stop-color="#45B0D0"/>
</linearGradient>
<linearGradient id="paint4_linear_206_8665" x1="5.97293" y1="5.02303" x2="6.71466" y2="6.45314" gradientUnits="userSpaceOnUse">
<stop stop-color="#7DD8F3"/>
<stop offset="1" stop-color="#45B0D0"/>
</linearGradient>
<linearGradient id="paint5_linear_206_8665" x1="22.365" y1="21.6487" x2="23.5459" y2="23.9256" gradientUnits="userSpaceOnUse">
<stop stop-color="#7DD8F3"/>
<stop offset="1" stop-color="#45B0D0"/>
</linearGradient>
<radialGradient id="paint6_radial_206_8665" cx="0" cy="0" r="1" gradientUnits="userSpaceOnUse" gradientTransform="translate(18.506 18.524) scale(4.901)">
<stop offset="0.693" stop-color="#006185"/>
<stop offset="0.921" stop-color="#35C1F1"/>
</radialGradient>
<radialGradient id="paint7_radial_206_8665" cx="0" cy="0" r="1" gradientUnits="userSpaceOnUse" gradientTransform="translate(18.468 18.4575) scale(4.8275)">
<stop/>
<stop offset="1" stop-opacity="0"/>
</radialGradient>
<linearGradient id="paint8_linear_206_8665" x1="16.2723" y1="13.3082" x2="21.6952" y2="21.2689" gradientUnits="userSpaceOnUse">
<stop stop-color="#FCFCFC"/>
<stop offset="0.95" stop-color="#C3C9CD"/>
</linearGradient>
<clipPath id="clip0_206_8665">
<rect width="24" height="24" fill="white"/>
</clipPath>
</defs>
</svg>
