<svg width="24" height="24" viewBox="0 0 24 24" fill="none" xmlns="http://www.w3.org/2000/svg">
<g id="security-portal">
<path id="Vector" d="M2 19V7.5H22V19C22 19.55 21.55 20 21 20H3C2.45 20 2 19.55 2 19Z" fill="url(#paint0_linear_206_8703)"/>
<path id="Vector_2" d="M22 5V7.5H2V5C2 4.45 2.45 4 3 4H21C21.55 4 22 4.45 22 5Z" fill="url(#paint1_linear_206_8703)"/>
<path id="Vector_3" d="M3.75 6.5C4.16421 6.5 4.5 6.16421 4.5 5.75C4.5 5.33579 4.16421 5 3.75 5C3.33579 5 3 5.33579 3 5.75C3 6.16421 3.33579 6.5 3.75 6.5Z" fill="url(#paint2_linear_206_8703)"/>
<path id="Vector_4" opacity="0.05" d="M21.1615 14.197C20.6585 13.854 20.139 13.5 19.25 13.5C18.361 13.5 17.8415 13.854 17.3385 14.197C16.7595 14.592 16.1605 15 14.75 15C14.3365 15 14 15.3365 14 15.75V18C14 18.368 14.0465 18.7445 14.1375 19.119C14.2115 19.422 14.3155 19.716 14.4425 20H21C21.55 20 22 19.55 22 19V14.688C21.6725 14.545 21.415 14.3695 21.1615 14.197Z" fill="black"/>
<path id="Vector_5" opacity="0.07" d="M21.021 14.4035C20.528 14.0675 20.062 13.75 19.25 13.75C18.438 13.75 17.972 14.0675 17.479 14.4035C16.897 14.8005 16.237 15.25 14.75 15.25C14.474 15.25 14.25 15.474 14.25 15.75V18C14.25 18.3485 14.294 18.705 14.3805 19.0595C14.46 19.385 14.5745 19.699 14.715 20H21C21.55 20 22 19.55 22 19V14.9575C21.6 14.798 21.3015 14.5945 21.021 14.4035Z" fill="black"/>
<path id="Vector_6" d="M6.25 6.5C6.66421 6.5 7 6.16421 7 5.75C7 5.33579 6.66421 5 6.25 5C5.83579 5 5.5 5.33579 5.5 5.75C5.5 6.16421 5.83579 6.5 6.25 6.5Z" fill="url(#paint3_linear_206_8703)"/>
<path id="Vector_7" d="M19.25 24C19.112 24 19 23.888 19 23.75C19 23.612 19.112 23.5 19.25 23.5V24Z" fill="url(#paint4_linear_206_8703)"/>
<path id="Vector_8" d="M19.5 23.75C19.5 23.888 19.388 24 19.25 24V23.5C19.388 23.5 19.5 23.612 19.5 23.75Z" fill="#185C37"/>
<path id="Vector_9" d="M23.75 16C23.8881 16 24 15.8881 24 15.75C24 15.6119 23.8881 15.5 23.75 15.5C23.6119 15.5 23.5 15.6119 23.5 15.75C23.5 15.8881 23.6119 16 23.75 16Z" fill="#21A366"/>
<path id="Vector_10" d="M14.75 16C14.8881 16 15 15.8881 15 15.75C15 15.6119 14.8881 15.5 14.75 15.5C14.6119 15.5 14.5 15.6119 14.5 15.75C14.5 15.8881 14.6119 16 14.75 16Z" fill="#33C481"/>
<path id="Vector_11" d="M19.25 23.75L19.357 23.9765C19.357 23.9765 23.143 22.0015 23.877 19H19.25V23.75Z" fill="#185C37"/>
<path id="Vector_12" d="M24 15.75L23.75 15.5C20.9695 15.5 20.9305 14 19.25 14V19H23.877C23.9555 18.678 24 18.3445 24 18C24 17.214 24 15.75 24 15.75Z" fill="#21A366"/>
<path id="Vector_13" d="M19.25 23.75L19.143 23.9765C19.143 23.9765 15.357 22.0015 14.623 19H19.25V23.75Z" fill="url(#paint5_linear_206_8703)"/>
<path id="Vector_14" d="M14.5 15.75L14.75 15.5C17.5305 15.5 17.5695 14 19.25 14V19H14.6235C14.5445 18.678 14.5 18.3445 14.5 18C14.5 17.214 14.5 15.75 14.5 15.75Z" fill="#33C481"/>
</g>
<defs>
<linearGradient id="paint0_linear_206_8703" x1="6.43083" y1="5.63784" x2="12.9943" y2="21.054" gradientUnits="userSpaceOnUse">
<stop stop-color="#FCFCFC"/>
<stop offset="0.95" stop-color="#C3C9CD"/>
</linearGradient>
<linearGradient id="paint1_linear_206_8703" x1="2.307" y1="3.8705" x2="21.468" y2="7.7665" gradientUnits="userSpaceOnUse">
<stop stop-color="#0077D2"/>
<stop offset="1" stop-color="#0B59A2"/>
</linearGradient>
<linearGradient id="paint2_linear_206_8703" x1="3.47293" y1="5.02303" x2="4.21466" y2="6.45314" gradientUnits="userSpaceOnUse">
<stop stop-color="#7DD8F3"/>
<stop offset="1" stop-color="#45B0D0"/>
</linearGradient>
<linearGradient id="paint3_linear_206_8703" x1="5.97293" y1="5.02303" x2="6.71466" y2="6.45314" gradientUnits="userSpaceOnUse">
<stop stop-color="#7DD8F3"/>
<stop offset="1" stop-color="#45B0D0"/>
</linearGradient>
<linearGradient id="paint4_linear_206_8703" x1="19.0366" y1="23.5732" x2="19.3195" y2="23.7146" gradientUnits="userSpaceOnUse">
<stop stop-color="#21AD64"/>
<stop offset="1" stop-color="#088242"/>
</linearGradient>
<linearGradient id="paint5_linear_206_8703" x1="15.3006" y1="19.7288" x2="18.8102" y2="22.9919" gradientUnits="userSpaceOnUse">
<stop stop-color="#21AD64"/>
<stop offset="1" stop-color="#088242"/>
</linearGradient>
</defs>
</svg>
