<svg width="24" height="24" viewBox="0 0 24 24" fill="none" xmlns="http://www.w3.org/2000/svg">
<g id="select-all">
<path id="Vector" d="M19 4H20V5C20 5.276 20.224 5.5 20.5 5.5C20.776 5.5 21 5.276 21 5V4C21 3.45 20.55 3 20 3H19C18.724 3 18.5 3.224 18.5 3.5C18.5 3.776 18.724 4 19 4Z" fill="#64717C"/>
<path id="Vector_2" d="M4 5V4H5C5.276 4 5.5 3.776 5.5 3.5C5.5 3.224 5.276 3 5 3H4C3.45 3 3 3.45 3 4V5C3 5.276 3.224 5.5 3.5 5.5C3.776 5.5 4 5.276 4 5Z" fill="#64717C"/>
<path id="Vector_3" d="M20 19V20H19C18.724 20 18.5 20.224 18.5 20.5C18.5 20.776 18.724 21 19 21H20C20.55 21 21 20.55 21 20V19C21 18.724 20.776 18.5 20.5 18.5C20.224 18.5 20 18.724 20 19Z" fill="#64717C"/>
<path id="Vector_4" d="M5 20H4V19C4 18.724 3.776 18.5 3.5 18.5C3.224 18.5 3 18.724 3 19V20C3 20.55 3.45 21 4 21H5C5.276 21 5.5 20.776 5.5 20.5C5.5 20.224 5.276 20 5 20Z" fill="#64717C"/>
<path id="Vector_5" d="M7 4C7.27614 4 7.5 3.77614 7.5 3.5C7.5 3.22386 7.27614 3 7 3C6.72386 3 6.5 3.22386 6.5 3.5C6.5 3.77614 6.72386 4 7 4Z" fill="#64717C"/>
<path id="Vector_6" d="M9 4C9.27614 4 9.5 3.77614 9.5 3.5C9.5 3.22386 9.27614 3 9 3C8.72386 3 8.5 3.22386 8.5 3.5C8.5 3.77614 8.72386 4 9 4Z" fill="#64717C"/>
<path id="Vector_7" d="M11 4C11.2761 4 11.5 3.77614 11.5 3.5C11.5 3.22386 11.2761 3 11 3C10.7239 3 10.5 3.22386 10.5 3.5C10.5 3.77614 10.7239 4 11 4Z" fill="#64717C"/>
<path id="Vector_8" d="M15 4C15.2761 4 15.5 3.77614 15.5 3.5C15.5 3.22386 15.2761 3 15 3C14.7239 3 14.5 3.22386 14.5 3.5C14.5 3.77614 14.7239 4 15 4Z" fill="#64717C"/>
<path id="Vector_9" d="M17 4C17.2761 4 17.5 3.77614 17.5 3.5C17.5 3.22386 17.2761 3 17 3C16.7239 3 16.5 3.22386 16.5 3.5C16.5 3.77614 16.7239 4 17 4Z" fill="#64717C"/>
<path id="Vector_10" d="M13 4C13.2761 4 13.5 3.77614 13.5 3.5C13.5 3.22386 13.2761 3 13 3C12.7239 3 12.5 3.22386 12.5 3.5C12.5 3.77614 12.7239 4 13 4Z" fill="#64717C"/>
<path id="Vector_11" d="M7 21C7.27614 21 7.5 20.7761 7.5 20.5C7.5 20.2239 7.27614 20 7 20C6.72386 20 6.5 20.2239 6.5 20.5C6.5 20.7761 6.72386 21 7 21Z" fill="#64717C"/>
<path id="Vector_12" d="M9 21C9.27614 21 9.5 20.7761 9.5 20.5C9.5 20.2239 9.27614 20 9 20C8.72386 20 8.5 20.2239 8.5 20.5C8.5 20.7761 8.72386 21 9 21Z" fill="#64717C"/>
<path id="Vector_13" d="M11 21C11.2761 21 11.5 20.7761 11.5 20.5C11.5 20.2239 11.2761 20 11 20C10.7239 20 10.5 20.2239 10.5 20.5C10.5 20.7761 10.7239 21 11 21Z" fill="#64717C"/>
<path id="Vector_14" d="M15 21C15.2761 21 15.5 20.7761 15.5 20.5C15.5 20.2239 15.2761 20 15 20C14.7239 20 14.5 20.2239 14.5 20.5C14.5 20.7761 14.7239 21 15 21Z" fill="#64717C"/>
<path id="Vector_15" d="M17 21C17.2761 21 17.5 20.7761 17.5 20.5C17.5 20.2239 17.2761 20 17 20C16.7239 20 16.5 20.2239 16.5 20.5C16.5 20.7761 16.7239 21 17 21Z" fill="#64717C"/>
<path id="Vector_16" d="M13 21C13.2761 21 13.5 20.7761 13.5 20.5C13.5 20.2239 13.2761 20 13 20C12.7239 20 12.5 20.2239 12.5 20.5C12.5 20.7761 12.7239 21 13 21Z" fill="#64717C"/>
<path id="Vector_17" d="M20.5 7.5C20.7761 7.5 21 7.27614 21 7C21 6.72386 20.7761 6.5 20.5 6.5C20.2239 6.5 20 6.72386 20 7C20 7.27614 20.2239 7.5 20.5 7.5Z" fill="#64717C"/>
<path id="Vector_18" d="M20.5 9.5C20.7761 9.5 21 9.27614 21 9C21 8.72386 20.7761 8.5 20.5 8.5C20.2239 8.5 20 8.72386 20 9C20 9.27614 20.2239 9.5 20.5 9.5Z" fill="#64717C"/>
<path id="Vector_19" d="M20.5 11.5C20.7761 11.5 21 11.2761 21 11C21 10.7239 20.7761 10.5 20.5 10.5C20.2239 10.5 20 10.7239 20 11C20 11.2761 20.2239 11.5 20.5 11.5Z" fill="#64717C"/>
<path id="Vector_20" d="M20.5 15.5C20.7761 15.5 21 15.2761 21 15C21 14.7239 20.7761 14.5 20.5 14.5C20.2239 14.5 20 14.7239 20 15C20 15.2761 20.2239 15.5 20.5 15.5Z" fill="#64717C"/>
<path id="Vector_21" d="M20.5 17.5C20.7761 17.5 21 17.2761 21 17C21 16.7239 20.7761 16.5 20.5 16.5C20.2239 16.5 20 16.7239 20 17C20 17.2761 20.2239 17.5 20.5 17.5Z" fill="#64717C"/>
<path id="Vector_22" d="M20.5 13.5C20.7761 13.5 21 13.2761 21 13C21 12.7239 20.7761 12.5 20.5 12.5C20.2239 12.5 20 12.7239 20 13C20 13.2761 20.2239 13.5 20.5 13.5Z" fill="#64717C"/>
<path id="Vector_23" d="M3.5 7.5C3.77614 7.5 4 7.27614 4 7C4 6.72386 3.77614 6.5 3.5 6.5C3.22386 6.5 3 6.72386 3 7C3 7.27614 3.22386 7.5 3.5 7.5Z" fill="#64717C"/>
<path id="Vector_24" d="M3.5 9.5C3.77614 9.5 4 9.27614 4 9C4 8.72386 3.77614 8.5 3.5 8.5C3.22386 8.5 3 8.72386 3 9C3 9.27614 3.22386 9.5 3.5 9.5Z" fill="#64717C"/>
<path id="Vector_25" d="M3.5 11.5C3.77614 11.5 4 11.2761 4 11C4 10.7239 3.77614 10.5 3.5 10.5C3.22386 10.5 3 10.7239 3 11C3 11.2761 3.22386 11.5 3.5 11.5Z" fill="#64717C"/>
<path id="Vector_26" d="M3.5 15.5C3.77614 15.5 4 15.2761 4 15C4 14.7239 3.77614 14.5 3.5 14.5C3.22386 14.5 3 14.7239 3 15C3 15.2761 3.22386 15.5 3.5 15.5Z" fill="#64717C"/>
<path id="Vector_27" d="M3.5 17.5C3.77614 17.5 4 17.2761 4 17C4 16.7239 3.77614 16.5 3.5 16.5C3.22386 16.5 3 16.7239 3 17C3 17.2761 3.22386 17.5 3.5 17.5Z" fill="#64717C"/>
<path id="Vector_28" d="M3.5 13.5C3.77614 13.5 4 13.2761 4 13C4 12.7239 3.77614 12.5 3.5 12.5C3.22386 12.5 3 12.7239 3 13C3 13.2761 3.22386 13.5 3.5 13.5Z" fill="#64717C"/>
<path id="Vector_29" d="M18.25 14H5.75C5.6125 14 5.5 13.8875 5.5 13.75V13.25C5.5 13.1125 5.6125 13 5.75 13H18.25C18.3875 13 18.5 13.1125 18.5 13.25V13.75C18.5 13.8875 18.3875 14 18.25 14Z" fill="url(#paint0_linear_206_8718)"/>
<path id="Vector_30" d="M16.25 11H5.75C5.6125 11 5.5 10.8875 5.5 10.75V10.25C5.5 10.1125 5.6125 10 5.75 10H16.25C16.3875 10 16.5 10.1125 16.5 10.25V10.75C16.5 10.8875 16.3875 11 16.25 11Z" fill="url(#paint1_linear_206_8718)"/>
<path id="Vector_31" d="M18.25 8H5.75C5.6125 8 5.5 7.8875 5.5 7.75V7.25C5.5 7.1125 5.6125 7 5.75 7H18.25C18.3875 7 18.5 7.1125 18.5 7.25V7.75C18.5 7.8875 18.3875 8 18.25 8Z" fill="url(#paint2_linear_206_8718)"/>
<path id="Vector_32" d="M16.25 17H5.75C5.6125 17 5.5 16.8875 5.5 16.75V16.25C5.5 16.1125 5.6125 16 5.75 16H16.25C16.3875 16 16.5 16.1125 16.5 16.25V16.75C16.5 16.8875 16.3875 17 16.25 17Z" fill="url(#paint3_linear_206_8718)"/>
</g>
<defs>
<linearGradient id="paint0_linear_206_8718" x1="12" y1="12.9979" x2="12" y2="13.9964" gradientUnits="userSpaceOnUse">
<stop stop-color="#2AA4F4"/>
<stop offset="1" stop-color="#007AD9"/>
</linearGradient>
<linearGradient id="paint1_linear_206_8718" x1="11" y1="9.9979" x2="11" y2="10.9964" gradientUnits="userSpaceOnUse">
<stop stop-color="#2AA4F4"/>
<stop offset="1" stop-color="#007AD9"/>
</linearGradient>
<linearGradient id="paint2_linear_206_8718" x1="12" y1="6.9979" x2="12" y2="7.99639" gradientUnits="userSpaceOnUse">
<stop stop-color="#2AA4F4"/>
<stop offset="1" stop-color="#007AD9"/>
</linearGradient>
<linearGradient id="paint3_linear_206_8718" x1="11" y1="15.9979" x2="11" y2="16.9964" gradientUnits="userSpaceOnUse">
<stop stop-color="#2AA4F4"/>
<stop offset="1" stop-color="#007AD9"/>
</linearGradient>
</defs>
</svg>
