<svg width="24" height="24" viewBox="0 0 24 24" fill="none" xmlns="http://www.w3.org/2000/svg">
<g id="send-email">
<path id="Vector" d="M4.4285 10.3095L19 4.51801V15.1665C19 15.614 18.6375 15.976 18.1905 15.976H4.4285V10.3095Z" fill="url(#paint0_linear_206_8769)"/>
<path id="Vector_2" d="M2 4.5V15.1905C2 15.6375 2.3625 16 2.8095 16H18.1905C18.389 16 18.569 15.9255 18.71 15.8065L2 4.5Z" fill="url(#paint1_linear_206_8769)"/>
<path id="Vector_3" d="M2.8095 3.02399H18.1905C18.6375 3.02399 19 3.38599 19 3.83349V4.51849L11.4115 9.68849C10.8615 10.0635 10.138 10.0635 9.5885 9.68849L2 4.51799V3.83299C2 3.38599 2.3625 3.02399 2.8095 3.02399Z" fill="url(#paint2_linear_206_8769)"/>
<path id="Vector_4" opacity="0.05" d="M19 7.5H5.8095C5.086 7.5 4.5 8.086 4.5 8.8095V16H5L19 8V7.5Z" fill="black"/>
<path id="Vector_5" opacity="0.07" d="M19 7.77399H5.8095C5.225 7.77399 4.75 8.24899 4.75 8.83349V16H5.5L19 7.99999V7.77399Z" fill="black"/>
<path id="Vector_6" d="M7.4285 15.3095L22 9.51801V20.1665C22 20.614 21.6375 20.976 21.1905 20.976H7.4285V15.3095Z" fill="url(#paint3_linear_206_8769)"/>
<path id="Vector_7" d="M5 9.51801V20.1665C5 20.614 5.3625 20.976 5.8095 20.976H21.1905C21.389 20.976 21.569 20.9015 21.71 20.7825L5 9.51801Z" fill="url(#paint4_linear_206_8769)"/>
<path id="Vector_8" opacity="0.05" d="M5 9.23798H22V9.93548L14.9895 15.4805C14.113 16.1735 12.887 16.1735 12.0105 15.4805L5 9.93548V9.23798Z" fill="black"/>
<path id="Vector_9" opacity="0.07" d="M5 9.03552H22V9.72852L14.7005 15.0995C13.9875 15.6335 13.0125 15.6335 12.2995 15.0995L5 9.72902V9.03552Z" fill="black"/>
<path id="Vector_10" d="M5.8095 8.02399H21.1905C21.638 8.02399 22 8.38649 22 8.83349V9.51849L14.4115 14.6885C13.8615 15.0635 13.138 15.0635 12.5885 14.6885L5 9.51799V8.83299C5 8.38599 5.3625 8.02399 5.8095 8.02399Z" fill="url(#paint5_linear_206_8769)"/>
<path id="Vector_11" opacity="0.05" d="M20.71 15.7665C20.5385 15.5945 20.3125 15.5 20.073 15.5C19.573 15.5 19.1665 15.906 19.1665 16.4045V18.1665H15.6665C15.023 18.1665 14.5 18.6895 14.5 19.333V20.6665C14.5 20.7745 14.5195 20.877 14.547 20.976H21.1905C21.6375 20.976 22 20.6135 22 20.1665V17.056L20.71 15.7665Z" fill="black"/>
<path id="Vector_12" opacity="0.07" d="M20.533 15.943C20.409 15.8185 20.246 15.75 20.0735 15.75C19.7115 15.75 19.417 16.0435 19.417 16.4045V18.4165H15.667C15.1615 18.4165 14.7505 18.8275 14.7505 19.333V20.6665C14.7505 20.7755 14.773 20.879 14.808 20.976H21.191C21.638 20.976 22.0005 20.6135 22.0005 20.1665V17.41L20.533 15.943Z" fill="black"/>
<path id="Vector_13" d="M19.6665 16.4045V18.6665H15.6665C15.2985 18.6665 15 18.965 15 19.333V20.6665C15 21.0345 15.2985 21.333 15.6665 21.333H19.6665V23.595C19.6665 23.955 20.102 24.135 20.356 23.8805L23.6655 20.571C23.981 20.2555 23.981 19.7435 23.6655 19.4285L20.356 16.119C20.102 15.8645 19.6665 16.0445 19.6665 16.4045Z" fill="url(#paint6_linear_206_8769)"/>
</g>
<defs>
<linearGradient id="paint0_linear_206_8769" x1="5.83312" y1="4.95136" x2="17.7328" y2="14.3598" gradientUnits="userSpaceOnUse">
<stop stop-color="#A1AAB3"/>
<stop offset="1" stop-color="#8F979E"/>
</linearGradient>
<linearGradient id="paint1_linear_206_8769" x1="3.61076" y1="4.93495" x2="15.8219" y2="15.9662" gradientUnits="userSpaceOnUse">
<stop stop-color="#A1AAB3" stop-opacity="0.88"/>
<stop offset="1" stop-color="#8F979E"/>
</linearGradient>
<linearGradient id="paint2_linear_206_8769" x1="5.76621" y1="1.98926" x2="8.38006" y2="11.3807" gradientUnits="userSpaceOnUse">
<stop stop-color="#FCFCFC"/>
<stop offset="0.95" stop-color="#C3C9CD"/>
</linearGradient>
<linearGradient id="paint3_linear_206_8769" x1="12.4945" y1="11.925" x2="22.2395" y2="26.5105" gradientUnits="userSpaceOnUse">
<stop stop-color="#28AFEA"/>
<stop offset="1" stop-color="#0B88DA"/>
</linearGradient>
<linearGradient id="paint4_linear_206_8769" x1="4.3555" y1="14.666" x2="18.491" y2="23.471" gradientUnits="userSpaceOnUse">
<stop stop-color="#28AFEA"/>
<stop offset="1" stop-color="#0B88DA"/>
</linearGradient>
<linearGradient id="paint5_linear_206_8769" x1="10.3599" y1="8.13062" x2="12.0641" y2="16.173" gradientUnits="userSpaceOnUse">
<stop stop-color="#7DD8F3"/>
<stop offset="1" stop-color="#45B0D0"/>
</linearGradient>
<linearGradient id="paint6_linear_206_8769" x1="16.3037" y1="17.1714" x2="21.9283" y2="23.4303" gradientUnits="userSpaceOnUse">
<stop stop-color="#21AD64"/>
<stop offset="1" stop-color="#088242"/>
</linearGradient>
</defs>
</svg>
