<svg width="24" height="24" viewBox="0 0 24 24" fill="none" xmlns="http://www.w3.org/2000/svg">
<g id="set-as-resume">
<path id="Vector" d="M19.5 3.5V20.5C19.5 21.0525 19.0525 21.5 18.5 21.5H5.5C4.9475 21.5 4.5 21.0525 4.5 20.5V3.5C4.5 2.9475 4.9475 2.5 5.5 2.5H18.5C19.0525 2.5 19.5 2.9475 19.5 3.5Z" fill="url(#paint0_linear_206_8837)"/>
<path id="Vector_2" d="M8.5 7.5C9.05228 7.5 9.5 7.05228 9.5 6.5C9.5 5.94772 9.05228 5.5 8.5 5.5C7.94772 5.5 7.5 5.94772 7.5 6.5C7.5 7.05228 7.94772 7.5 8.5 7.5Z" fill="#057093"/>
<path id="Vector_3" d="M8.5 8C7.6715 8 7 8.6715 7 9.5V10.2C7 10.3655 7.1345 10.5 7.3 10.5H9.7C9.8655 10.5 10 10.3655 10 10.2V9.5C10 8.6715 9.3285 8 8.5 8Z" fill="#057093"/>
<path id="Vector_4" d="M16.5 14H10.5C10.224 14 10 14.224 10 14.5C10 14.776 10.224 15 10.5 15H16.5C16.776 15 17 14.776 17 14.5C17 14.224 16.776 14 16.5 14Z" fill="#057093"/>
<path id="Vector_5" d="M16.5 12H8.5C8.224 12 8 12.224 8 12.5C8 12.776 8.224 13 8.5 13H16.5C16.776 13 17 12.776 17 12.5C17 12.224 16.776 12 16.5 12Z" fill="#057093"/>
<path id="Vector_6" d="M16.5 18H8.5C8.224 18 8 18.224 8 18.5C8 18.776 8.224 19 8.5 19H16.5C16.776 19 17 18.776 17 18.5C17 18.224 16.776 18 16.5 18Z" fill="#057093"/>
<path id="Vector_7" d="M16.5 16H10.5C10.224 16 10 16.224 10 16.5C10 16.776 10.224 17 10.5 17H16.5C16.776 17 17 16.776 17 16.5C17 16.224 16.776 16 16.5 16Z" fill="#057093"/>
<path id="Vector_8" d="M16.5 8H12.5C12.224 8 12 8.224 12 8.5C12 8.776 12.224 9 12.5 9H16.5C16.776 9 17 8.776 17 8.5C17 8.224 16.776 8 16.5 8Z" fill="#057093"/>
<path id="Vector_9" d="M16.5 6H12.5C12.224 6 12 6.224 12 6.5C12 6.776 12.224 7 12.5 7H16.5C16.776 7 17 6.776 17 6.5C17 6.224 16.776 6 16.5 6Z" fill="#057093"/>
<path id="Vector_10" d="M6 12.8035V14.5H3C2.724 14.5 2.5 14.724 2.5 15V16C2.5 16.276 2.724 16.5 3 16.5H6V18.1965C6 18.4665 6.3265 18.6015 6.517 18.4105L8.999 15.9285C9.2355 15.692 9.2355 15.308 8.999 15.0715L6.517 12.5895C6.3265 12.3985 6 12.5335 6 12.8035Z" fill="url(#paint1_linear_206_8837)"/>
</g>
<defs>
<linearGradient id="paint0_linear_206_8837" x1="9.22929" y1="2.79171" x2="19.7783" y2="18.8491" gradientUnits="userSpaceOnUse">
<stop stop-color="#7DD8F3"/>
<stop offset="1" stop-color="#45B0D0"/>
</linearGradient>
<linearGradient id="paint1_linear_206_8837" x1="3.47776" y1="13.3787" x2="7.69624" y2="18.0728" gradientUnits="userSpaceOnUse">
<stop stop-color="#21AD64"/>
<stop offset="1" stop-color="#088242"/>
</linearGradient>
</defs>
</svg>
