<svg width="24" height="24" viewBox="0 0 24 24" fill="none" xmlns="http://www.w3.org/2000/svg">
<g id="share-2">
<path id="Vector" d="M12 22C16.9706 22 21 17.9706 21 13C21 8.02944 16.9706 4 12 4C7.02944 4 3 8.02944 3 13C3 17.9706 7.02944 22 12 22Z" stroke="#64717C" stroke-width="2" stroke-miterlimit="10"/>
<path id="Vector_2" d="M12 7.5C13.6569 7.5 15 6.15685 15 4.5C15 2.84315 13.6569 1.5 12 1.5C10.3431 1.5 9 2.84315 9 4.5C9 6.15685 10.3431 7.5 12 7.5Z" fill="url(#paint0_linear_206_8857)"/>
<path id="Vector_3" d="M20 20C21.6569 20 23 18.6569 23 17C23 15.3431 21.6569 14 20 14C18.3431 14 17 15.3431 17 17C17 18.6569 18.3431 20 20 20Z" fill="url(#paint1_linear_206_8857)"/>
<path id="Vector_4" d="M4 20C5.65685 20 7 18.6569 7 17C7 15.3431 5.65685 14 4 14C2.34315 14 1 15.3431 1 17C1 18.6569 2.34315 20 4 20Z" fill="url(#paint2_linear_206_8857)"/>
</g>
<defs>
<linearGradient id="paint0_linear_206_8857" x1="10.011" y1="2.511" x2="14.2125" y2="6.7125" gradientUnits="userSpaceOnUse">
<stop stop-color="#33BEF0"/>
<stop offset="1" stop-color="#0A85D9"/>
</linearGradient>
<linearGradient id="paint1_linear_206_8857" x1="18.011" y1="15.011" x2="22.2125" y2="19.2125" gradientUnits="userSpaceOnUse">
<stop stop-color="#33BEF0"/>
<stop offset="1" stop-color="#0A85D9"/>
</linearGradient>
<linearGradient id="paint2_linear_206_8857" x1="2.011" y1="15.011" x2="6.2125" y2="19.2125" gradientUnits="userSpaceOnUse">
<stop stop-color="#33BEF0"/>
<stop offset="1" stop-color="#0A85D9"/>
</linearGradient>
</defs>
</svg>
