<svg width="24" height="24" viewBox="0 0 24 24" fill="none" xmlns="http://www.w3.org/2000/svg">
<g id="silent">
<path id="Vector" d="M12 22C17.5225 22 22 17.5225 22 12C22 6.4775 17.5225 2 12 2C6.4775 2 2 6.4775 2 12C2 17.5225 6.4775 22 12 22Z" fill="url(#paint0_linear_206_8979)"/>
<path id="Vector_2" d="M8 13C9.10457 13 10 12.1046 10 11C10 9.89543 9.10457 9 8 9C6.89543 9 6 9.89543 6 11C6 12.1046 6.89543 13 8 13Z" fill="white"/>
<path id="Vector_3" d="M16 13C17.1046 13 18 12.1046 18 11C18 9.89543 17.1046 9 16 9C14.8954 9 14 9.89543 14 11C14 12.1046 14.8954 13 16 13Z" fill="white"/>
<path id="Vector_4" d="M8 12C8.55228 12 9 11.5523 9 11C9 10.4477 8.55228 10 8 10C7.44772 10 7 10.4477 7 11C7 11.5523 7.44772 12 8 12Z" fill="#343434"/>
<path id="Vector_5" d="M16 12C16.5523 12 17 11.5523 17 11C17 10.4477 16.5523 10 16 10C15.4477 10 15 10.4477 15 11C15 11.5523 15.4477 12 16 12Z" fill="#343434"/>
<path id="Vector_6" d="M15.5255 15.9285L15.235 15.3235C15.111 15.0655 14.8015 14.957 14.5435 15.081L8.717 17.88C8.459 18.004 8.3505 18.3135 8.4745 18.5715L8.765 19.1765C8.889 19.4345 9.1985 19.543 9.4565 19.419L15.283 16.62C15.5405 16.496 15.6495 16.1865 15.5255 15.9285Z" fill="url(#paint1_linear_206_8979)"/>
<path id="Vector_7" opacity="0.05" d="M9.4505 17.5275L11.422 18.4745L14.5495 16.9725L12.578 16.0255L9.4505 17.5275Z" fill="black"/>
<path id="Vector_8" opacity="0.07" d="M11.711 18.336L14.2605 17.111L12.289 16.164L9.7395 17.389L11.711 18.336Z" fill="black"/>
<path id="Vector_9" d="M8.4745 15.9285L8.765 15.3235C8.889 15.0655 9.1985 14.957 9.4565 15.081L15.283 17.88C15.541 18.004 15.6495 18.3135 15.5255 18.5715L15.235 19.1765C15.111 19.4345 14.8015 19.543 14.5435 19.419L8.717 16.62C8.4595 16.496 8.3505 16.1865 8.4745 15.9285Z" fill="url(#paint2_linear_206_8979)"/>
</g>
<defs>
<linearGradient id="paint0_linear_206_8979" x1="5.0155" y1="5.0155" x2="19.055" y2="19.055" gradientUnits="userSpaceOnUse">
<stop stop-color="#FEDE00"/>
<stop offset="0.519" stop-color="#FECC00"/>
<stop offset="1" stop-color="#FFB700"/>
</linearGradient>
<linearGradient id="paint1_linear_206_8979" x1="2.303" y1="23.579" x2="16.516" y2="14.3025" gradientUnits="userSpaceOnUse">
<stop stop-color="#BBC1C4"/>
<stop offset="0.201" stop-color="#BBC1C4"/>
<stop offset="0.384" stop-color="#C1C7C9"/>
<stop offset="0.631" stop-color="#D3D6D8"/>
<stop offset="1" stop-color="#F0F0F0"/>
</linearGradient>
<linearGradient id="paint2_linear_206_8979" x1="10.615" y1="16.465" x2="21.37" y2="22.5605" gradientUnits="userSpaceOnUse">
<stop stop-color="#F0F0F0"/>
<stop offset="1" stop-color="#BBC1C4"/>
</linearGradient>
</defs>
</svg>
