<svg width="24" height="24" viewBox="0 0 24 24" fill="none" xmlns="http://www.w3.org/2000/svg">
<g id="skull">
<path id="Vector" d="M12.5 2.5H11.5C6.8 2.5 2.5 5.5 2.5 10.5C2.5 14 4 15 4 15C4.15 15.15 4.3 15.3 4.5 15.45V16.5C4.5 18.5 7.5 19 7.5 19V21C7.5 21.5525 7.9475 22 8.5 22H15.5C16.0525 22 16.5 21.5525 16.5 21V19C16.5 19 19.5 18.5 19.5 16.5V15.45C19.7 15.3 19.85 15.15 20 15C20 15 21.5 13.5 21.5 10.5C21.5 5.5 17.2 2.5 12.5 2.5Z" fill="url(#paint0_linear_206_8989)"/>
<path id="Vector_2" opacity="0.05" d="M14.955 11.222C14.635 11.222 14.313 11.273 13.998 11.374C13.477 11.5155 13.037 11.8735 12.737 12.4065C12.349 13.095 12.2465 14.0075 12.4695 14.7875C12.925 16.1555 13.9995 16.9665 15.3465 16.9665C15.723 16.9665 16.112 16.9025 16.504 16.776C16.983 16.605 18.45 15.8455 17.5235 13.1385C17.2125 11.9805 16.2025 11.222 14.955 11.222Z" fill="black"/>
<path id="Vector_3" opacity="0.05" d="M12.0365 15.4785L11.962 15.4955L11.8875 15.5125C10.8825 15.745 9.75 17.9265 9.75 18.95C9.75 19.6455 10.2545 20.15 10.95 20.15C11.3645 20.15 11.756 19.9355 12.0485 19.561C12.3385 19.948 12.68 20.15 13.05 20.15C13.7455 20.15 14.25 19.6455 14.25 18.95C14.25 17.8235 13.0695 15.8755 12.1795 15.5335L12.108 15.506L12.0365 15.4785Z" fill="black"/>
<path id="Vector_4" opacity="0.05" d="M8.955 11.1815C7.767 11.1815 6.7965 11.937 6.4225 13.153C5.97 14.475 6.1635 15.3375 6.406 15.827C6.633 16.285 7.0105 16.6305 7.4425 16.7745C7.85 16.8895 8.2365 16.9465 8.603 16.9465C9.9995 16.9465 11.075 16.142 11.4795 14.794C11.7135 14.1615 11.664 13.332 11.3445 12.644C11.0625 12.037 10.593 11.588 10.0215 11.3805C9.6655 11.2485 9.3065 11.1815 8.955 11.1815Z" fill="black"/>
<path id="Vector_5" opacity="0.07" d="M8.955 11.4315C7.881 11.4315 7.002 12.1195 6.661 13.2265C6.2345 14.473 6.408 15.269 6.6295 15.716C6.827 16.115 7.152 16.414 7.521 16.537C7.899 16.6435 8.2595 16.696 8.6025 16.696C9.883 16.696 10.8685 15.958 11.2395 14.7215C11.4545 14.1395 11.4095 13.378 11.1175 12.7485C10.864 12.202 10.444 11.7995 9.9355 11.6145C9.607 11.4935 9.2765 11.4315 8.955 11.4315ZM14.955 11.472C14.661 11.472 14.3645 11.519 14.074 11.612C13.612 11.738 13.221 12.056 12.9545 12.529C12.598 13.1615 12.5045 14.0005 12.7095 14.719C13.1275 15.9735 14.112 16.7165 15.346 16.7165C15.696 16.7165 16.06 16.6565 16.4265 16.538C16.849 16.387 18.1385 15.7095 17.2865 13.219C17.003 12.164 16.086 11.472 14.955 11.472ZM12.0185 15.739L11.944 15.756C11.1235 15.9455 10 17.956 10 18.95C10 19.5095 10.3905 19.9 10.95 19.9C11.4455 19.9 11.8295 19.53 12.0475 19.0935C12.269 19.504 12.6055 19.9 13.05 19.9C13.6095 19.9 14 19.5095 14 18.95C14 17.943 12.8755 16.069 12.0895 15.7665L12.0185 15.739Z" fill="black"/>
<path id="Vector_6" d="M13.75 18.95C13.75 19.4 13.45 19.65 13.05 19.65C12.5 19.65 12.1 18.7 12 18.3C12 18.8 11.6 19.65 10.95 19.65C10.55 19.65 10.25 19.4 10.25 18.95C10.25 18 11.35 16.15 12 16C12.65 16.25 13.75 18 13.75 18.95ZM14.15 11.85C13.05 12.15 12.65 13.6 12.95 14.65C13.45 16.15 14.8 16.8 16.35 16.3C17.05 16.05 17.7 15.2 17.05 13.3C16.7 12 15.4 11.45 14.15 11.85ZM9.85 11.85C8.5 11.35 7.3 12 6.9 13.3C6.25 15.2 7 16.1 7.6 16.3C9.2 16.75 10.55 16.15 11 14.65C11.35 13.7 10.95 12.25 9.85 11.85Z" fill="url(#paint1_linear_206_8989)"/>
</g>
<defs>
<linearGradient id="paint0_linear_206_8989" x1="12" y1="2.5" x2="12" y2="22" gradientUnits="userSpaceOnUse">
<stop stop-color="#FFCF7B"/>
<stop offset="0.196" stop-color="#FECD76"/>
<stop offset="0.439" stop-color="#FAC666"/>
<stop offset="0.709" stop-color="#F3BC4D"/>
<stop offset="0.995" stop-color="#EAAD2A"/>
<stop offset="1" stop-color="#EAAD29"/>
</linearGradient>
<linearGradient id="paint1_linear_206_8989" x1="11.9835" y1="11.6815" x2="11.9835" y2="19.65" gradientUnits="userSpaceOnUse">
<stop stop-color="#5E5E5E"/>
<stop offset="1" stop-color="#545454"/>
</linearGradient>
</defs>
</svg>
