<svg width="24" height="24" viewBox="0 0 24 24" fill="none" xmlns="http://www.w3.org/2000/svg">
<g id="small-business">
<path id="Vector" d="M2.5 9.5H21.5V19.5H2.5V9.5Z" fill="url(#paint0_linear_206_9001)"/>
<path id="Vector_2" d="M2.5 19.5H21.5V20C21.5 20.5525 21.0525 21 20.5 21H3.5C2.9475 21 2.5 20.5525 2.5 20V19.5Z" fill="url(#paint1_linear_206_9001)"/>
<path id="Vector_3" d="M11.5 13H12.5V19.5H11.5V13Z" fill="url(#paint2_linear_206_9001)"/>
<path id="Vector_4" d="M20.5 3H3.5C2.95 3 2.5 3.45 2.5 4V5H21.5V4C21.5 3.45 21.05 3 20.5 3Z" fill="#0078D4"/>
<path id="Vector_5" d="M21 8H3L1.5 9.5V10C1.5 10.5525 1.9475 11 2.5 11H21.5C22.0525 11 22.5 10.5525 22.5 10V9.5L21 8Z" fill="#0078D4"/>
<path id="Vector_6" d="M21.5 5H2.5L1.5 9.5H22.5L21.5 5Z" fill="url(#paint3_linear_206_9001)"/>
<path id="Vector_7" d="M12.5 19.5H11.5V21H12.5V19.5Z" fill="url(#paint4_linear_206_9001)"/>
<path id="Vector_8" d="M12.5 13H17.5C17.776 13 18 13.224 18 13.5V19.5H12.5V13Z" fill="url(#paint5_linear_206_9001)"/>
<path id="Vector_9" d="M18 19.5H12.5V21H18V19.5Z" fill="#0078D4"/>
<path id="Vector_10" d="M6.5 13H11.5V19.5H6V13.5C6 13.224 6.224 13 6.5 13Z" fill="url(#paint6_linear_206_9001)"/>
<path id="Vector_11" d="M11.5 19.5H6V21H11.5V19.5Z" fill="#0078D4"/>
<path id="Vector_12" d="M14 18C14.2761 18 14.5 17.7761 14.5 17.5C14.5 17.2239 14.2761 17 14 17C13.7239 17 13.5 17.2239 13.5 17.5C13.5 17.7761 13.7239 18 14 18Z" fill="#0078D4"/>
<path id="Vector_13" d="M10 18C10.2761 18 10.5 17.7761 10.5 17.5C10.5 17.2239 10.2761 17 10 17C9.72386 17 9.5 17.2239 9.5 17.5C9.5 17.7761 9.72386 18 10 18Z" fill="#0078D4"/>
</g>
<defs>
<linearGradient id="paint0_linear_206_9001" x1="8.49043" y1="9.65353" x2="11.5641" y2="20.9133" gradientUnits="userSpaceOnUse">
<stop stop-color="#7DD8F3"/>
<stop offset="1" stop-color="#45B0D0"/>
</linearGradient>
<linearGradient id="paint1_linear_206_9001" x1="9.44165" y1="19.5654" x2="9.46539" y2="21.2191" gradientUnits="userSpaceOnUse">
<stop stop-color="#32BDEF"/>
<stop offset="1" stop-color="#1EA2E4"/>
</linearGradient>
<linearGradient id="paint2_linear_206_9001" x1="11.5" y1="16.25" x2="12.5" y2="16.25" gradientUnits="userSpaceOnUse">
<stop stop-color="#3079D6"/>
<stop offset="1" stop-color="#297CD2"/>
</linearGradient>
<linearGradient id="paint3_linear_206_9001" x1="6.15237" y1="4.32962" x2="7.08938" y2="10.7487" gradientUnits="userSpaceOnUse">
<stop stop-color="#FCFCFC"/>
<stop offset="0.95" stop-color="#C3C9CD"/>
</linearGradient>
<linearGradient id="paint4_linear_206_9001" x1="11.5" y1="20.25" x2="12.5" y2="20.25" gradientUnits="userSpaceOnUse">
<stop stop-color="#1D59B3"/>
<stop offset="1" stop-color="#195BBC"/>
</linearGradient>
<linearGradient id="paint5_linear_206_9001" x1="13.7185" y1="12.0317" x2="18.3441" y2="17.7773" gradientUnits="userSpaceOnUse">
<stop stop-color="#FCFCFC"/>
<stop offset="0.95" stop-color="#C3C9CD"/>
</linearGradient>
<linearGradient id="paint6_linear_206_9001" x1="7.21848" y1="12.0317" x2="11.8441" y2="17.7773" gradientUnits="userSpaceOnUse">
<stop stop-color="#FCFCFC"/>
<stop offset="0.95" stop-color="#C3C9CD"/>
</linearGradient>
</defs>
</svg>
