<svg width="24" height="24" viewBox="0 0 24 24" fill="none" xmlns="http://www.w3.org/2000/svg">
<g id="smiling">
<path id="Vector" d="M12 22C17.5225 22 22 17.5225 22 12C22 6.4775 17.5225 2 12 2C6.4775 2 2 6.4775 2 12C2 17.5225 6.4775 22 12 22Z" fill="url(#paint0_linear_206_9037)"/>
<path id="Vector_2" d="M12 19.5C9.791 19.5 8 17.709 8 15.5C8 15.224 8.224 15 8.5 15H15.5C15.776 15 16 15.224 16 15.5C16 17.709 14.209 19.5 12 19.5Z" fill="#343434"/>
<path id="Vector_3" d="M14.7685 16H9.2315C9.1035 16 9 15.8965 9 15.7685V15H15V15.7685C15 15.8965 14.8965 16 14.7685 16Z" fill="white"/>
<path id="Vector_4" d="M9.604 18.6975C10.2725 19.199 11.1 19.5 12 19.5C12.9 19.5 13.7275 19.199 14.396 18.6975C13.8485 17.971 12.98 17.5 12 17.5C11.02 17.5 10.1515 17.971 9.604 18.6975Z" fill="url(#paint1_linear_206_9037)"/>
<path id="Vector_5" d="M9.983 11.5C9.8105 11.5 9.6425 11.4105 9.55 11.2505C9.2815 10.7875 8.7835 10.5 8.25 10.5C7.7165 10.5 7.2185 10.7875 6.95 11.25C6.8115 11.489 6.5045 11.57 6.267 11.432C6.0275 11.2935 5.946 10.9875 6.085 10.7485C6.5315 9.9785 7.361 9.5 8.25 9.5C9.139 9.5 9.969 9.979 10.415 10.749C10.5535 10.988 10.472 11.294 10.233 11.4325C10.1545 11.478 10.068 11.5 9.983 11.5Z" fill="#343434"/>
<path id="Vector_6" d="M17.483 11.5C17.3105 11.5 17.1425 11.4105 17.05 11.2505C16.7815 10.7875 16.2835 10.5 15.75 10.5C15.2165 10.5 14.7185 10.7875 14.45 11.25C14.3115 11.489 14.0045 11.57 13.767 11.432C13.5275 11.2935 13.446 10.9875 13.585 10.7485C14.0315 9.9785 14.861 9.5 15.75 9.5C16.639 9.5 17.469 9.979 17.915 10.749C18.0535 10.988 17.972 11.294 17.733 11.4325C17.6545 11.478 17.568 11.5 17.483 11.5Z" fill="#343434"/>
</g>
<defs>
<linearGradient id="paint0_linear_206_9037" x1="5.0155" y1="5.0155" x2="19.055" y2="19.055" gradientUnits="userSpaceOnUse">
<stop stop-color="#FEDE00"/>
<stop offset="0.519" stop-color="#FECC00"/>
<stop offset="1" stop-color="#FFB700"/>
</linearGradient>
<linearGradient id="paint1_linear_206_9037" x1="12" y1="20.602" x2="12" y2="18.004" gradientUnits="userSpaceOnUse">
<stop stop-color="#F05964"/>
<stop offset="1" stop-color="#D4414C"/>
</linearGradient>
</defs>
</svg>
