<svg width="24" height="24" viewBox="0 0 24 24" fill="none" xmlns="http://www.w3.org/2000/svg">
<g id="stripe">
<path id="Vector" d="M21.5625 4.5H2.4375C1.6435 4.5 1 5.1435 1 5.9375V18.0625C1 18.8565 1.6435 19.5 2.4375 19.5H21.5625C22.3565 19.5 23 18.8565 23 18.0625V5.9375C23 5.1435 22.3565 4.5 21.5625 4.5Z" fill="url(#paint0_linear_206_9142)"/>
<path id="Vector_2" opacity="0.05" d="M20.947 12.5015C20.974 12.3825 20.977 12.0885 20.977 11.9675C20.977 11.246 20.812 10.66 20.4815 10.219C20.117 9.74849 19.5725 9.49999 18.9065 9.49999C18.145 9.49999 17.537 9.82099 17.155 10.3795C17.0965 10.258 17.029 10.1475 16.952 10.049C16.64 9.64299 16.184 9.42849 15.634 9.42849C15.4205 9.42849 15.216 9.46749 15.021 9.54499L15.0135 9.50399H13.407C13.4935 9.34199 13.5425 9.15649 13.5425 8.95999C13.5425 8.32049 13.0265 7.79999 12.3925 7.79999C11.752 7.79999 11.231 8.32049 11.231 8.95999C11.231 9.13699 11.2715 9.30499 11.343 9.45499C11.16 9.43949 10.9925 9.45999 10.8365 9.50499H9.5845V9.50349H8.694V8.29049L6.6935 8.62349L6.5395 9.56849L6.164 9.62999L6.152 9.70499C5.858 9.59599 5.4595 9.49999 4.97 9.49999C4.4345 9.49999 3.9755 9.64799 3.649 9.92149C3.2645 10.231 3.062 10.6745 3.062 11.2035C3.062 11.5375 3.138 11.805 3.265 12.022L2.9735 13.9375L3.2755 14.107C3.6005 14.288 4.2185 14.5 4.894 14.5C5.459 14.5 5.9325 14.3555 6.2475 14.0945C6.383 13.992 6.53 13.845 6.6475 13.64C6.7375 13.8335 6.8625 13.997 7.0225 14.129C7.323 14.3685 7.726 14.4845 8.255 14.4845C8.499 14.4845 8.685 14.458 8.826 14.4285V14.5H11.067V11.6305C11.111 11.621 11.176 11.616 11.2635 11.6155V14.5H13V16.091L15.238 15.7155L15.2455 14.484C15.2685 14.4845 15.292 14.485 15.3145 14.485C15.731 14.485 16.3275 14.3765 16.801 13.8595C16.8975 13.754 16.9835 13.6365 17.058 13.507C17.1485 13.6595 17.256 13.795 17.381 13.9135C17.784 14.3025 18.343 14.5 19.0425 14.5C19.657 14.5 20.237 14.3505 20.633 14.0905L20.903 13.913L20.741 12.8925H20.859L20.947 12.5015ZM8.826 11.4255V12.4145L8.7565 12.4355C8.742 12.44 8.719 12.4455 8.693 12.4505V11.4255H8.826ZM6.4735 11.6605C6.472 11.659 6.471 11.6575 6.4695 11.656L6.4735 11.6315V11.6605Z" fill="black"/>
<path id="Vector_3" opacity="0.07" d="M20.2835 10.3715C19.9685 9.965 19.492 9.75 18.9065 9.75C18.032 9.75 17.3865 10.2345 17.109 11.0415C17.04 10.6975 16.9215 10.4165 16.7545 10.2015C16.488 9.8545 16.111 9.678 15.634 9.678C15.3455 9.678 15.0815 9.7585 14.835 9.922L14.8045 9.7535H13.25H12.8265C13.104 9.5985 13.292 9.301 13.292 8.9595C13.292 8.4575 12.888 8.0495 12.392 8.0495C11.8895 8.0495 11.4805 8.4575 11.4805 8.9595C11.4805 9.301 11.671 9.5985 11.952 9.7535H11.597L11.5215 9.7365C11.4095 9.7115 11.317 9.7 11.231 9.7C11.0085 9.7 10.8065 9.759 10.641 9.867L10.6225 9.7545H9.288V9.753H8.443V8.5855L6.9105 8.8405L6.756 9.7855L6.381 9.8475L6.3465 10.062L6.3 10.039C6.0765 9.931 5.607 9.75 4.97 9.75C4.494 9.75 4.0905 9.8775 3.806 10.1155C3.483 10.376 3.312 10.752 3.312 11.2035C3.312 12.07 3.912 12.4055 4.5605 12.6395C4.885 12.756 4.9565 12.8185 4.98 12.8185C4.9835 12.8185 5.0435 12.8455 4.8245 12.8455C4.5585 12.8455 4.092 12.7025 3.785 12.527L3.4685 12.346L3.247 13.804L3.398 13.8885C3.696 14.055 4.2665 14.25 4.894 14.25C5.4005 14.25 5.819 14.1255 6.0965 13.896C6.442 13.6335 6.617 13.246 6.617 12.745C6.618 11.861 6.0095 11.5235 5.351 11.29C5.189 11.229 5.09 11.1845 5.031 11.1565C5.294 11.157 5.629 11.2485 5.927 11.401L6.232 11.557L6.2945 11.1775H6.7235V12.738C6.7235 13.2815 6.875 13.6825 7.178 13.933C7.436 14.138 7.7785 14.234 8.255 14.234C8.616 14.234 8.8385 14.1705 8.972 14.1325L9.076 14.103V14.25H10.817V11.4755C10.8915 11.4135 11.0105 11.365 11.248 11.365C11.3 11.3645 11.356 11.3645 11.4325 11.3755L11.5135 11.3865V14.25H13.25V15.7955L14.9895 15.504L14.9975 14.208C15.106 14.2255 15.213 14.235 15.315 14.235C15.6815 14.235 16.205 14.141 16.617 13.6905C16.817 13.4715 16.9645 13.192 17.058 12.853C17.154 13.2165 17.32 13.511 17.5545 13.734C17.9095 14.0765 18.4105 14.25 19.043 14.25C19.61 14.25 20.14 14.1155 20.4965 13.8815L20.6315 13.7925L20.449 12.642H20.66L20.7035 12.4465C20.727 12.3425 20.727 11.982 20.727 11.967C20.7265 11.3015 20.5785 10.765 20.2835 10.3715ZM9.076 12.5985L8.83 12.674C8.7785 12.6895 8.6315 12.7205 8.5455 12.7205C8.4865 12.7205 8.4685 12.709 8.4685 12.709C8.4685 12.7085 8.443 12.678 8.443 12.558V11.175H8.84V10.948L9.076 10.9675V12.5985ZM15.4405 11.888C15.442 12.2965 15.371 12.5245 15.31 12.6455C15.2245 12.788 15.11 12.8175 14.999 12.8005V11.233C15.1255 11.13 15.2155 11.1285 15.22 11.1285C15.3825 11.1285 15.4405 11.5205 15.4405 11.888ZM19.177 12.834C19.0085 12.834 18.891 12.8035 18.8155 12.739C18.787 12.715 18.7625 12.683 18.7425 12.6425H20.0415C19.783 12.7695 19.4925 12.834 19.177 12.834ZM18.7025 11.3885C18.7385 11.185 18.8 11.082 18.8865 11.082C18.9825 11.082 19.031 11.2365 19.0555 11.3885H18.7025Z" fill="black"/>
<path id="Vector_4" d="M18.4235 11.6385C18.458 11.088 18.6005 10.832 18.8865 10.832C19.1605 10.832 19.3105 11.0955 19.3295 11.6385H18.4235ZM20.4765 11.9675C20.4765 11.3525 20.3415 10.866 20.086 10.525C19.816 10.1765 19.413 9.99999 18.9065 9.99999C17.8625 9.99999 17.2085 10.773 17.2085 12.011C17.2085 12.703 17.381 13.2245 17.7275 13.5535C18.036 13.851 18.479 14 19.0425 14C19.566 14 20.051 13.8745 20.3585 13.6725L20.2245 12.8285C19.921 12.994 19.5695 13.084 19.177 13.084C18.942 13.084 18.774 13.0325 18.655 12.93C18.524 12.8205 18.451 12.644 18.425 12.392H20.459C20.472 12.3345 20.4765 12.053 20.4765 11.9675ZM15.5285 12.7665C15.418 12.955 15.263 13.0565 15.0835 13.0565C14.963 13.0565 14.8475 13.03 14.749 12.983V11.124C14.963 10.9035 15.156 10.8785 15.22 10.8785C15.5355 10.8785 15.6905 11.219 15.6905 11.887C15.692 12.267 15.6345 12.563 15.5285 12.7665ZM16.5565 10.3545C16.3375 10.069 16.027 9.92799 15.634 9.92799C15.278 9.92799 14.9625 10.079 14.667 10.396L14.596 10.004H13.5V15.5L14.7405 15.292L14.749 13.8925C14.9425 13.953 15.1385 13.985 15.3145 13.985C15.628 13.985 16.0795 13.9065 16.432 13.522C16.7655 13.157 16.93 12.591 16.93 11.8415C16.93 11.179 16.8075 10.6765 16.5565 10.3545ZM11.7635 10.004H13V14H11.7635V10.004ZM12.392 9.61649C12.751 9.61649 13.042 9.31949 13.042 8.95999C13.042 8.59349 12.75 8.29999 12.392 8.29999C12.023 8.29999 11.7305 8.59349 11.7305 8.95999C11.7305 9.31999 12.023 9.61649 12.392 9.61649ZM11.2315 9.94999C10.879 9.94999 10.592 10.136 10.486 10.4655L10.411 10.005H9.326V14H10.567V11.375C10.723 11.184 10.9415 11.115 11.248 11.115C11.3115 11.115 11.376 11.115 11.467 11.128V9.98099C11.3755 9.96049 11.3 9.94999 11.2315 9.94999ZM8.84 10.9275L8.994 10.0035H8.1935V8.88099L7.129 9.05799L6.9745 10.0035L6.6 10.065L6.4615 10.928H6.9735V12.739C6.9735 13.2095 7.0925 13.5385 7.3335 13.738C7.544 13.9055 7.839 13.9845 8.255 13.9845C8.582 13.9845 8.7765 13.9285 8.9035 13.8925V12.913C8.837 12.9335 8.6635 12.9705 8.5455 12.9705C8.3055 12.9705 8.193 12.8455 8.193 12.558V10.9255H8.84V10.9275ZM5.2655 11.525C4.912 11.3925 4.7065 11.2885 4.7065 11.1235C4.7065 10.986 4.821 10.9065 5.0295 10.9065C5.398 10.9065 5.784 11.047 6.041 11.1785L6.191 10.264C5.982 10.163 5.5565 9.99999 4.97 9.99999C4.55 9.99999 4.2025 10.11 3.963 10.3105C3.697 10.525 3.562 10.832 3.562 11.2035C3.562 11.877 3.974 12.1625 4.645 12.4045C5.0735 12.5585 5.222 12.668 5.222 12.8385C5.222 12.9995 5.085 13.0955 4.8245 13.0955C4.5125 13.0955 4.004 12.9405 3.661 12.744L3.52 13.6705C3.808 13.8315 4.338 14 4.894 14C5.3375 14 5.705 13.895 5.945 13.697C6.229 13.481 6.367 13.1585 6.367 12.7445C6.368 12.053 5.9455 11.7655 5.2655 11.525Z" fill="white"/>
</g>
<defs>
<linearGradient id="paint0_linear_206_9142" x1="10.1875" y1="5.5305" x2="14.374" y2="20.473" gradientUnits="userSpaceOnUse">
<stop stop-color="#00B3EE"/>
<stop offset="1" stop-color="#0082D8"/>
</linearGradient>
</defs>
</svg>
