<svg width="24" height="24" viewBox="0 0 24 24" fill="none" xmlns="http://www.w3.org/2000/svg">
<g id="table">
<path id="Vector" d="M20.001 19.9855L4.01449 20.001L3.99899 4.01452L19.985 3.99902L20.001 19.9855Z" fill="url(#paint0_linear_206_9257)"/>
<path id="Vector_2" d="M20.9845 3.998C20.984 3.449 20.5345 3 19.9855 3C19.985 3 19.985 3 19.9845 3L3.998 3.0155C3.4485 3.016 2.9995 3.466 3 4.0155L3.0155 20.002C3.016 20.551 3.4655 21 4.0145 21C4.015 21 4.015 21 4.0155 21L20.002 20.9845C20.5515 20.984 21.0005 20.534 21 19.9845L20.9845 3.998ZM10 14V10H14V14H10ZM14 15.5V19.5H10V15.5H14ZM8.5 14H4.5V10H8.5V14ZM15.5 10H19.5V14H15.5V10ZM19.5 8.5H15.5V4.5H19.5V8.5ZM14 4.5V8.5H10V4.5H14ZM8.5 4.5V8.5H4.5V4.5H8.5ZM4.5 15.5H8.5V19.5H4.5V15.5ZM15.5 19.5V15.5H19.5V19.5H15.5Z" fill="url(#paint1_linear_206_9257)"/>
</g>
<defs>
<linearGradient id="paint0_linear_206_9257" x1="10.393" y1="2.88702" x2="13.607" y2="21.113" gradientUnits="userSpaceOnUse">
<stop stop-color="#FAFAFB"/>
<stop offset="0.293" stop-color="#F6F7F8"/>
<stop offset="0.566" stop-color="#EBECEE"/>
<stop offset="0.832" stop-color="#D8DCDF"/>
<stop offset="1" stop-color="#C8CDD1"/>
</linearGradient>
<linearGradient id="paint1_linear_206_9257" x1="10.2195" y1="1.903" x2="13.7805" y2="22.097" gradientUnits="userSpaceOnUse">
<stop stop-color="#33BEF0"/>
<stop offset="1" stop-color="#22A5E2"/>
</linearGradient>
</defs>
</svg>
