<svg width="24" height="24" viewBox="0 0 24 24" fill="none" xmlns="http://www.w3.org/2000/svg">
<g id="themes">
<path id="Vector" d="M21.7025 10.2195L14.8525 3.63698C14.4545 3.25448 13.821 3.26698 13.4385 3.66498L6.9455 10.423L14.7125 18.9105L21.731 11.633C22.1135 11.235 22.101 10.602 21.7025 10.2195Z" fill="url(#paint0_linear_206_9348)"/>
<path id="Vector_2" d="M11.4065 20.615L3.9815 13.481L6.9215 10.4215L15.214 18.389L13.2665 20.416L11.4065 20.615Z" fill="url(#paint1_linear_206_9348)"/>
<path id="Vector_3" opacity="0.05" d="M13.8465 19.812L17.996 7.51853C18.0875 7.24753 18.0965 6.96303 18.0315 6.69153L16.8365 5.54353L12.908 4.21753L6.9455 10.423L7.106 10.5985L6.9215 10.421L3.9815 13.4805L11.4065 20.615L13.2665 20.416L13.8465 19.812Z" fill="black"/>
<path id="Vector_4" opacity="0.07" d="M17.6955 6.4835C17.5475 6.1845 17.2915 5.961 16.9755 5.854L12.717 4.4165L6.9455 10.423L7.106 10.5985L6.9215 10.421L3.9815 13.4805L11.4065 20.615L13.2665 20.416L13.439 20.2365C13.44 20.234 13.441 20.232 13.442 20.2295L17.7595 7.4385C17.866 7.122 17.8435 6.783 17.6955 6.4835Z" fill="black"/>
<path id="Vector_5" d="M16.895 6.09098L7.894 3.05298C7.3705 2.87648 6.8035 3.15748 6.6265 3.68048L3.4285 13.155L14.3245 16.833L17.5225 7.35798C17.6995 6.83498 17.4185 6.26748 16.895 6.09098Z" fill="url(#paint2_linear_206_9348)"/>
<path id="Vector_6" d="M11.938 20.777L1.992 17.42C1.9905 17.4195 1.9895 17.4175 1.99 17.416L3.428 13.1555L14.324 16.8335L13.2045 20.1495C13.0285 20.6725 12.461 20.9535 11.938 20.777Z" fill="url(#paint3_linear_206_9348)"/>
<path id="Vector_7" opacity="0.05" d="M12.51 5H6.1815L3.4285 13.155L4.682 18.3275L11.938 20.777C12.4615 20.9535 13.0285 20.6725 13.2055 20.1495L14.01 17.7655V6.5C14.01 5.673 13.337 5 12.51 5Z" fill="black"/>
<path id="Vector_8" opacity="0.07" d="M12.51 5.25H6.097L3.4285 13.155L4.245 18.18L11.938 20.7765C12.4615 20.953 13.0285 20.672 13.2055 20.149L13.76 18.506V6.5C13.76 5.811 13.199 5.25 12.51 5.25Z" fill="black"/>
<path id="Vector_9" d="M12.51 5.5H3.01C2.4575 5.5 2.01 5.9475 2.01 6.5V16.5H13.51V6.5C13.51 5.9475 13.062 5.5 12.51 5.5Z" fill="url(#paint4_linear_206_9348)"/>
<path id="Vector_10" d="M12.51 21H3.01C2.4575 21 2.01 20.5525 2.01 20V16.5H13.51V20C13.51 20.5525 13.062 21 12.51 21Z" fill="url(#paint5_linear_206_9348)"/>
<path id="Vector_11" d="M12 20.207C12.3905 20.207 12.707 19.8904 12.707 19.5C12.707 19.1095 12.3905 18.793 12 18.793C11.6095 18.793 11.293 19.1095 11.293 19.5C11.293 19.8904 11.6095 20.207 12 20.207Z" fill="#505D66"/>
</g>
<defs>
<linearGradient id="paint0_linear_206_9348" x1="10.2829" y1="1.04121" x2="20.9443" y2="16.2007" gradientUnits="userSpaceOnUse">
<stop stop-color="#FCFCFC"/>
<stop offset="0.95" stop-color="#C3C9CD"/>
</linearGradient>
<linearGradient id="paint1_linear_206_9348" x1="16.472" y1="14.5153" x2="13.6451" y2="14.9147" gradientUnits="userSpaceOnUse">
<stop stop-color="#889097"/>
<stop offset="1" stop-color="#4C5963"/>
</linearGradient>
<linearGradient id="paint2_linear_206_9348" x1="3.4285" y1="9.91661" x2="17.5755" y2="9.91661" gradientUnits="userSpaceOnUse">
<stop stop-color="#FFD869"/>
<stop offset="0.765625" stop-color="#F2C032"/>
<stop offset="1" stop-color="#FFD869"/>
</linearGradient>
<linearGradient id="paint3_linear_206_9348" x1="14.408" y1="15.548" x2="9.158" y2="16.713" gradientUnits="userSpaceOnUse">
<stop stop-color="#889097"/>
<stop offset="0.679" stop-color="#5F6B74"/>
<stop offset="1" stop-color="#4C5963"/>
</linearGradient>
<linearGradient id="paint4_linear_206_9348" x1="2.1" y1="5.633" x2="11.3965" y2="14.9295" gradientUnits="userSpaceOnUse">
<stop stop-color="#33BEF0"/>
<stop offset="1" stop-color="#0A85D9"/>
</linearGradient>
<linearGradient id="paint5_linear_206_9348" x1="0.5665" y1="10.997" x2="9.3535" y2="20.1035" gradientUnits="userSpaceOnUse">
<stop stop-color="#F9F9F9"/>
<stop offset="0.966" stop-color="#C4C9CD"/>
<stop offset="1" stop-color="#C2C8CC"/>
</linearGradient>
</defs>
</svg>
