<svg width="24" height="24" viewBox="0 0 24 24" fill="none" xmlns="http://www.w3.org/2000/svg">
<g id="timer">
<path id="Vector" d="M12 22C17.5228 22 22 17.5228 22 12C22 6.47715 17.5228 2 12 2C6.47715 2 2 6.47715 2 12C2 17.5228 6.47715 22 12 22Z" fill="url(#paint0_linear_206_9456)"/>
<path id="Vector_2" opacity="0.15" d="M12 21.25C17.1086 21.25 21.25 17.1086 21.25 12C21.25 6.89137 17.1086 2.75 12 2.75C6.89137 2.75 2.75 6.89137 2.75 12C2.75 17.1086 6.89137 21.25 12 21.25Z" fill="url(#paint1_radial_206_9456)"/>
<path id="Vector_3" d="M12 20.5C16.6944 20.5 20.5 16.6944 20.5 12C20.5 7.30558 16.6944 3.5 12 3.5C7.30558 3.5 3.5 7.30558 3.5 12C3.5 16.6944 7.30558 20.5 12 20.5Z" fill="url(#paint2_radial_206_9456)"/>
<path id="Vector_4" d="M12 12V3.5C9.653 3.5 7.528 4.4515 5.9895 5.9895L12 12Z" fill="#6EEBFF"/>
<path id="Vector_5" d="M11.016 3.5615L12 5.5L12.984 3.5615C12.6605 3.524 12.3335 3.5 12 3.5C11.6665 3.5 11.3395 3.524 11.016 3.5615Z" fill="url(#paint3_linear_206_9456)"/>
<g id="Group">
<path id="Vector_6" d="M12.7065 12.708C12.3155 13.098 11.6825 13.0975 11.2925 12.7065C10.9025 12.3155 6.5065 6.49402 6.5065 6.49402C6.5065 6.49402 12.3185 10.903 12.7085 11.294C13.0985 11.685 13.097 12.318 12.7065 12.708Z" fill="url(#paint4_linear_206_9456)"/>
</g>
</g>
<defs>
<linearGradient id="paint0_linear_206_9456" x1="4.929" y1="4.929" x2="19.071" y2="19.071" gradientUnits="userSpaceOnUse">
<stop stop-color="#889097"/>
<stop offset="1" stop-color="#64717C"/>
</linearGradient>
<radialGradient id="paint1_radial_206_9456" cx="0" cy="0" r="1" gradientUnits="userSpaceOnUse" gradientTransform="translate(12 12) scale(9.25)">
<stop/>
<stop offset="0.978" stop-opacity="0.022"/>
<stop offset="1" stop-opacity="0"/>
</radialGradient>
<radialGradient id="paint2_radial_206_9456" cx="0" cy="0" r="1" gradientUnits="userSpaceOnUse" gradientTransform="translate(11.945 3.697) scale(18.9415)">
<stop stop-color="#FAFAFB"/>
<stop offset="1" stop-color="#C8CDD1"/>
</radialGradient>
<linearGradient id="paint3_linear_206_9456" x1="11.016" y1="4.5" x2="12.984" y2="4.5" gradientUnits="userSpaceOnUse">
<stop stop-color="#1D59B3"/>
<stop offset="1" stop-color="#195BBC"/>
</linearGradient>
<linearGradient id="paint4_linear_206_9456" x1="9.75623" y1="6.49759" x2="9.74885" y2="12.9973" gradientUnits="userSpaceOnUse">
<stop stop-color="#889097"/>
<stop offset="1" stop-color="#444D54"/>
</linearGradient>
</defs>
</svg>
