<svg width="24" height="24" viewBox="0 0 24 24" fill="none" xmlns="http://www.w3.org/2000/svg">
<g id="trolley">
<path id="Vector" d="M21 10.5H7V4.5C7 4.224 7.224 4 7.5 4H20.5C20.776 4 21 4.224 21 4.5V10.5Z" fill="#E3A600"/>
<path id="Vector_2" d="M20.5 17H7.5C7.225 17 7 16.775 7 16.5V10.5H21V16.5C21 16.775 20.775 17 20.5 17Z" fill="#C48C00"/>
<path id="Vector_3" d="M20 21.5C20.8284 21.5 21.5 20.8284 21.5 20C21.5 19.1716 20.8284 18.5 20 18.5C19.1716 18.5 18.5 19.1716 18.5 20C18.5 20.8284 19.1716 21.5 20 21.5Z" fill="#5C5F61"/>
<path id="Vector_4" opacity="0.15" d="M20 20.5C20.2761 20.5 20.5 20.2761 20.5 20C20.5 19.7239 20.2761 19.5 20 19.5C19.7239 19.5 19.5 19.7239 19.5 20C19.5 20.2761 19.7239 20.5 20 20.5Z" fill="black"/>
<path id="Vector_5" d="M8.5 21.5C9.32843 21.5 10 20.8284 10 20C10 19.1716 9.32843 18.5 8.5 18.5C7.67157 18.5 7 19.1716 7 20C7 20.8284 7.67157 21.5 8.5 21.5Z" fill="#5C5F61"/>
<path id="Vector_6" opacity="0.15" d="M8.5 20.5C8.77614 20.5 9 20.2761 9 20C9 19.7239 8.77614 19.5 8.5 19.5C8.22386 19.5 8 19.7239 8 20C8 20.2761 8.22386 20.5 8.5 20.5Z" fill="black"/>
<path id="Vector_7" d="M8 19H5.3915C4.6295 19 3.9885 18.429 3.9015 17.672L2.605 6.4425C2.576 6.1905 2.363 6 2.1085 6H1.5C1.224 6 1 5.7765 1 5.5C1 5.2235 1.224 5 1.5 5H2.1085C2.8705 5 3.5115 5.571 3.5985 6.328L4.895 17.5575C4.924 17.8095 5.137 18 5.3915 18H8C8.276 18 8.5 18.2235 8.5 18.5C8.5 18.7765 8.276 19 8 19Z" fill="url(#paint0_linear_206_9653)"/>
<path id="Vector_8" d="M6 17H22C22.276 17 22.5 17.224 22.5 17.5V18.5C22.5 18.776 22.276 19 22 19H6C5.724 19 5.5 18.776 5.5 18.5V17.5C5.5 17.224 5.724 17 6 17Z" fill="url(#paint1_linear_206_9653)"/>
</g>
<defs>
<linearGradient id="paint0_linear_206_9653" x1="4.75" y1="19" x2="4.75" y2="5" gradientUnits="userSpaceOnUse">
<stop stop-color="#92A3B0"/>
<stop offset="0.015" stop-color="#A3B5C4"/>
<stop offset="0.032" stop-color="#AEC2D1"/>
<stop offset="0.046" stop-color="#B2C6D6"/>
</linearGradient>
<linearGradient id="paint1_linear_206_9653" x1="5.5" y1="18" x2="22.5" y2="18" gradientUnits="userSpaceOnUse">
<stop stop-color="#3079D6"/>
<stop offset="1" stop-color="#297CD2"/>
</linearGradient>
</defs>
</svg>
