<svg width="24" height="24" viewBox="0 0 24 24" fill="none" xmlns="http://www.w3.org/2000/svg">
<g id="twitter-circled">
<path id="Vector" d="M12 2C6.477 2 2 6.477 2 12C2 17.523 6.477 22 12 22C17.523 22 22 17.523 22 12C22 6.477 17.523 2 12 2Z" fill="url(#paint0_linear_206_9682)"/>
<path id="Vector_2" opacity="0.05" d="M10 17.5C8.38 17.5 6.8245 17.103 5.7325 16.411L5.564 16.3045L5.86 15.469L6.058 15.492C6.1325 15.501 6.191 15.5025 6.2505 15.5025L6.4975 15.5C6.996 15.5 7.7235 15.42 8.4205 15.2115C7.7225 14.9735 6.8375 14.511 6.5605 13.654L6.3485 13H6.862C6.3125 12.4985 6 11.801 6 11.0285V10.2185L6.3045 10.359C6.107 9.97653 6.0025 9.59053 6.0025 9.22803C6.0025 8.70353 6.1415 8.19053 6.4055 7.74503L6.77 7.13103L7.223 7.68203C8.2215 8.89753 9.845 10.23 11.5 10.4635V10C11.5 8.31803 12.734 7.00003 14.3085 7.00003C15.081 7.00003 15.75 7.22103 16.2525 7.64053C16.772 7.51003 17.4065 7.26903 17.747 7.06853L18.879 6.40253L18.4755 7.65253C18.4565 7.71253 18.4325 7.77253 18.4035 7.83353L19.373 7.40403L18.294 9.02053C18.0695 9.36203 17.8565 9.68653 17.4965 9.99003C17.499 10.1195 17.5 10.2555 17.5 10.315C17.5 13.798 14.8715 17.5 10 17.5Z" fill="black"/>
<path id="Vector_3" opacity="0.07" d="M10 17.25C8.4265 17.25 6.9195 16.867 5.866 16.1995L6.0285 15.74C6.1145 15.75 6.1815 15.7525 6.2495 15.7525L6.5 15.75C7.3065 15.75 8.3995 15.5655 9.2375 15.1685C8.2245 14.98 7.0845 14.461 6.7985 13.5765L6.6925 13.25H7.0365C7.2745 13.25 7.464 13.2375 7.619 13.2175C6.7675 12.79 6.2505 11.9905 6.2505 11.0285V10.6095L6.619 10.78C6.7265 10.838 6.8695 10.9045 7.0255 10.969C6.5855 10.464 6.253 9.84148 6.253 9.22848C6.253 8.74898 6.3805 8.27998 6.621 7.87298L6.803 7.56598L7.0295 7.84148C8.134 9.18598 9.9315 10.6185 11.7495 10.7415V9.99998C11.7495 8.45798 12.8735 7.24998 14.308 7.24998C15.0725 7.24998 15.7175 7.47898 16.1835 7.91398C16.7455 7.78798 17.476 7.51798 17.873 7.28448L18.439 6.95148L18.2375 7.57648C18.142 7.87348 17.9105 8.17248 17.639 8.43948C17.726 8.40548 17.813 8.36948 17.899 8.33148L18.6875 7.98198L18.0865 8.88248C17.845 9.25048 17.6335 9.57248 17.245 9.87298C17.248 10.0245 17.25 10.2365 17.25 10.3145C17.25 13.677 14.709 17.25 10 17.25Z" fill="black"/>
<path id="Vector_4" d="M18 7.5C17.5245 7.7795 16.6645 8.078 16.1035 8.186C15.6555 7.711 15.0165 7.5 14.3085 7.5C12.9485 7.5 12 8.6525 12 10V11C10 11 8.05 9.4765 6.8365 8C6.623 8.3605 6.503 8.7825 6.503 9.2285C6.503 10.138 7.3385 11.061 8 11.5C7.5965 11.4875 6.8325 11.1795 6.5 11V11.0285C6.5 12.212 7.3305 13.0155 8.456 13.2395C8.2505 13.296 8 13.5 7.036 13.5C7.349 14.4675 8.9225 14.979 10 15C9.157 15.6535 7.654 16 6.5 16C6.3005 16 6.1925 16.011 6 15.9885C7.089 16.6785 8.61 17 10 17C14.5285 17 17 13.541 17 10.315C17 10.209 16.9965 9.854 16.991 9.75C17.475 9.409 17.671 9.052 18 8.56C17.559 8.7555 17.0005 8.939 16.5 9C17.009 8.698 17.8165 8.069 18 7.5Z" fill="white"/>
</g>
<defs>
<linearGradient id="paint0_linear_206_9682" x1="4.2275" y1="3.9415" x2="20.44" y2="20.75" gradientUnits="userSpaceOnUse">
<stop stop-color="#2AA4F4"/>
<stop offset="1" stop-color="#007AD9"/>
</linearGradient>
</defs>
</svg>
