<svg width="24" height="24" viewBox="0 0 24 24" fill="none" xmlns="http://www.w3.org/2000/svg">
<g id="underline">
<path id="Vector" d="M20.5 20.5H3.5C3.2235 20.5 3 20.7235 3 21V22C3 22.276 3.2235 22.5 3.5 22.5H20.5C20.776 22.5 21 22.276 21 22V21C21 20.7235 20.776 20.5 20.5 20.5Z" fill="url(#paint0_linear_206_9712)"/>
<path id="Vector_2" d="M18.9645 1.5H16C15.724 1.5 15.5 1.724 15.5 2V11.136C15.5 14.045 14.344 15.5 12.0325 15.5C9.677 15.5 8.5 13.994 8.5 10.9805V2C8.5 1.724 8.276 1.5 8 1.5H5.0355C4.74 1.5 4.5 1.74 4.5 2.0355V11.019C4.5 16.3395 6.9615 19 11.886 19C16.962 19 19.5 16.2765 19.5 10.829V2.0355C19.5 1.74 19.26 1.5 18.9645 1.5Z" fill="url(#paint1_linear_206_9712)"/>
</g>
<defs>
<linearGradient id="paint0_linear_206_9712" x1="10.105" y1="17.3725" x2="17.2405" y2="32.9135" gradientUnits="userSpaceOnUse">
<stop stop-color="#FED100"/>
<stop offset="1" stop-color="#E36001"/>
</linearGradient>
<linearGradient id="paint1_linear_206_9712" x1="12" y1="1.46329" x2="12" y2="18.9368" gradientUnits="userSpaceOnUse">
<stop stop-color="#2AA4F4"/>
<stop offset="1" stop-color="#007AD9"/>
</linearGradient>
</defs>
</svg>
