<svg width="24" height="24" viewBox="0 0 24 24" fill="none" xmlns="http://www.w3.org/2000/svg">
<g id="user-folder">
<path id="Vector" d="M22.25 20.5H1.75C1.0595 20.5 0.5 19.9405 0.5 19.25V3.75C0.5 3.0595 1.0595 2.5 1.75 2.5H7.5485C8.308 2.5 9.026 2.845 9.5005 3.4385L10.75 5H22.25C22.9405 5 23.5 5.5595 23.5 6.25V19.25C23.5 19.9405 22.9405 20.5 22.25 20.5Z" fill="url(#paint0_linear_206_9781)"/>
<path id="Vector_2" d="M0.5 18.9375V19.25C0.5 19.9405 1.0595 20.5 1.75 20.5H22.25C22.9405 20.5 23.5 19.9405 23.5 19.25V18.9375H0.5Z" fill="url(#paint1_linear_206_9781)"/>
<path id="Vector_3" d="M22.25 5.5H10.75L10.1315 5.912C9.557 6.2955 8.8815 6.5 8.1905 6.5H1.75C1.0595 6.5 0.5 7.0595 0.5 7.75V18.75C0.5 19.4405 1.0595 20 1.75 20H22.25C22.9405 20 23.5 19.4405 23.5 18.75V6.75C23.5 6.0595 22.9405 5.5 22.25 5.5Z" fill="url(#paint2_linear_206_9781)"/>
<path id="Vector_4" d="M22.25 20H1.75C1.0595 20 0.5 19.4405 0.5 18.75V8.25C0.5 7.5595 1.0595 7 1.75 7H8.378C9.069 7 9.7445 6.7955 10.3195 6.412L10.9375 6H22.25C22.9405 6 23.5 6.5595 23.5 7.25V18.75C23.5 19.4405 22.9405 20 22.25 20Z" fill="url(#paint3_radial_206_9781)"/>
<path id="Vector_5" d="M12 8C9.2385 8 7 10.2385 7 13C7 15.7615 9.2385 18 12 18C14.7615 18 17 15.7615 17 13C17 10.2385 14.7615 8 12 8ZM12 9.25C13.0355 9.25 13.875 10.0895 13.875 11.125C13.875 12.1605 13.0355 13 12 13C10.9645 13 10.125 12.1605 10.125 11.125C10.125 10.0895 10.9645 9.25 12 9.25ZM12 16.7495C9.5 16.7495 8.75 15.246 8.75 14.625C8.75 14.0035 9.2535 13.5 9.875 13.5C10.4965 13.5 13.5035 13.5 14.125 13.5C14.7465 13.5 15.25 14.0035 15.25 14.625C15.25 15.2465 14.5 16.7495 12 16.7495Z" fill="url(#paint4_linear_206_9781)"/>
</g>
<defs>
<linearGradient id="paint0_linear_206_9781" x1="-3.509" y1="4.654" x2="19.6935" y2="16.7665" gradientUnits="userSpaceOnUse">
<stop stop-color="#FAC017"/>
<stop offset="0.909" stop-color="#E1AB2D"/>
</linearGradient>
<linearGradient id="paint1_linear_206_9781" x1="8.4325" y1="19.6435" x2="22.4825" y2="19.896" gradientUnits="userSpaceOnUse">
<stop stop-color="#E3A917"/>
<stop offset="0.464" stop-color="#D79C1E"/>
</linearGradient>
<linearGradient id="paint2_linear_206_9781" x1="-2.4395" y1="6.382" x2="17.984" y2="15.389" gradientUnits="userSpaceOnUse">
<stop offset="0.34" stop-color="#FFEFB2"/>
<stop offset="0.485" stop-color="#FFEDAD"/>
<stop offset="0.652" stop-color="#FFE99F"/>
<stop offset="0.828" stop-color="#FEE289"/>
<stop offset="1" stop-color="#FED86B"/>
</linearGradient>
<radialGradient id="paint3_radial_206_9781" cx="0" cy="0" r="1" gradientUnits="userSpaceOnUse" gradientTransform="translate(18.918 24.6585) scale(26.9375)">
<stop offset="0.199" stop-color="#FEC832"/>
<stop offset="0.601" stop-color="#FCD667"/>
<stop offset="0.68" stop-color="#FDDA75"/>
<stop offset="0.886" stop-color="#FEE496"/>
<stop offset="1" stop-color="#FFE8A2"/>
</radialGradient>
<linearGradient id="paint4_linear_206_9781" x1="9.4995" y1="8.669" x2="14.5005" y2="17.331" gradientUnits="userSpaceOnUse">
<stop stop-color="#C78902"/>
<stop offset="1" stop-color="#986700"/>
</linearGradient>
</defs>
</svg>
