<svg width="24" height="24" viewBox="0 0 24 24" fill="none" xmlns="http://www.w3.org/2000/svg">
<g id="view-all">
<path id="Vector" d="M10 11H4C3.45 11 3 10.55 3 10V5H11V10C11 10.55 10.55 11 10 11Z" fill="url(#paint0_linear_206_9864)"/>
<path id="Vector_2" d="M11 5H3V4C3 3.4475 3.4475 3 4 3H10C10.5525 3 11 3.4475 11 4V5Z" fill="url(#paint1_linear_206_9864)"/>
<path id="Vector_3" d="M20 11H14C13.45 11 13 10.55 13 10V5H21V10C21 10.55 20.55 11 20 11Z" fill="url(#paint2_linear_206_9864)"/>
<path id="Vector_4" d="M21 5H13V4C13 3.4475 13.4475 3 14 3H20C20.5525 3 21 3.4475 21 4V5Z" fill="url(#paint3_linear_206_9864)"/>
<path id="Vector_5" d="M10 21H4C3.45 21 3 20.55 3 20V15H11V20C11 20.55 10.55 21 10 21Z" fill="url(#paint4_linear_206_9864)"/>
<path id="Vector_6" d="M11 15H3V14C3 13.4475 3.4475 13 4 13H10C10.5525 13 11 13.4475 11 14V15Z" fill="url(#paint5_linear_206_9864)"/>
<path id="Vector_7" d="M20 21H14C13.45 21 13 20.55 13 20V15H21V20C21 20.55 20.55 21 20 21Z" fill="url(#paint6_linear_206_9864)"/>
<path id="Vector_8" d="M21 15H13V14C13 13.4475 13.4475 13 14 13H20C20.5525 13 21 13.4475 21 14V15Z" fill="url(#paint7_linear_206_9864)"/>
</g>
<defs>
<linearGradient id="paint0_linear_206_9864" x1="3.6045" y1="4.3105" x2="9.543" y2="10.249" gradientUnits="userSpaceOnUse">
<stop stop-color="#7DD8F3"/>
<stop offset="1" stop-color="#45B0D0"/>
</linearGradient>
<linearGradient id="paint1_linear_206_9864" x1="3" y1="4" x2="11" y2="4" gradientUnits="userSpaceOnUse">
<stop stop-color="#0077D2"/>
<stop offset="1" stop-color="#0B59A2"/>
</linearGradient>
<linearGradient id="paint2_linear_206_9864" x1="13.6045" y1="4.3105" x2="19.543" y2="10.249" gradientUnits="userSpaceOnUse">
<stop stop-color="#7DD8F3"/>
<stop offset="1" stop-color="#45B0D0"/>
</linearGradient>
<linearGradient id="paint3_linear_206_9864" x1="13" y1="4" x2="21" y2="4" gradientUnits="userSpaceOnUse">
<stop stop-color="#0077D2"/>
<stop offset="1" stop-color="#0B59A2"/>
</linearGradient>
<linearGradient id="paint4_linear_206_9864" x1="3.6045" y1="14.3105" x2="9.543" y2="20.249" gradientUnits="userSpaceOnUse">
<stop stop-color="#7DD8F3"/>
<stop offset="1" stop-color="#45B0D0"/>
</linearGradient>
<linearGradient id="paint5_linear_206_9864" x1="3" y1="14" x2="11" y2="14" gradientUnits="userSpaceOnUse">
<stop stop-color="#0077D2"/>
<stop offset="1" stop-color="#0B59A2"/>
</linearGradient>
<linearGradient id="paint6_linear_206_9864" x1="13.6045" y1="14.3105" x2="19.543" y2="20.249" gradientUnits="userSpaceOnUse">
<stop stop-color="#7DD8F3"/>
<stop offset="1" stop-color="#45B0D0"/>
</linearGradient>
<linearGradient id="paint7_linear_206_9864" x1="13" y1="14" x2="21" y2="14" gradientUnits="userSpaceOnUse">
<stop stop-color="#0077D2"/>
<stop offset="1" stop-color="#0B59A2"/>
</linearGradient>
</defs>
</svg>
