<svg width="24" height="24" viewBox="0 0 24 24" fill="none" xmlns="http://www.w3.org/2000/svg">
<g id="website">
<path id="Vector" d="M2 12C2 6.4775 6.4775 2 12 2C17.5225 2 22 6.4775 22 12C22 17.5225 17.5225 22 12 22C6.4775 22 2 17.5225 2 12Z" fill="url(#paint0_radial_206_9924)"/>
<path id="Vector_2" d="M20.5 12C20.5 10.3805 20.1635 8.8545 19.5805 7.5H20.9215C20.7475 7.1555 20.559 6.82 20.3475 6.5H19.0915C17.569 3.792 14.9605 2 12 2C9.0395 2 6.431 3.792 4.9085 6.5H3.6525C3.441 6.82 3.2525 7.1555 3.0785 7.5H4.4195C3.8365 8.8545 3.5 10.3805 3.5 12C3.5 13.6195 3.8365 15.1455 4.4195 16.5H3.0785C3.2525 16.8445 3.441 17.18 3.6525 17.5H4.9085C6.431 20.208 9.0395 22 12 22C14.9605 22 17.569 20.208 19.0915 17.5H20.3475C20.559 17.18 20.7475 16.8445 20.9215 16.5H19.5805C20.1635 15.1455 20.5 13.6195 20.5 12ZM19.5 12C19.5 13.64 19.1265 15.1745 18.4855 16.5H15.589C15.8605 15.0835 16 13.5265 16 12C16 10.4735 15.8605 8.9165 15.589 7.5H18.4855C19.1265 8.8255 19.5 10.36 19.5 12ZM12 21C11.155 21 10.2545 19.6815 9.663 17.5H14.3375C13.7455 19.6815 12.845 21 12 21ZM9.424 16.5C9.1605 15.2065 9 13.6855 9 12C9 10.3145 9.1605 8.7935 9.424 7.5H14.576C14.8395 8.7935 15 10.3145 15 12C15 13.6855 14.8395 15.2065 14.576 16.5H9.424ZM12 3C12.845 3 13.7455 4.3185 14.337 6.5H9.6625C10.2545 4.3185 11.155 3 12 3ZM17.9235 6.5H15.368C15.055 5.2505 14.6285 4.158 14.092 3.3635C15.6315 3.9015 16.9645 5.016 17.9235 6.5ZM9.908 3.3635C9.3715 4.1585 8.945 5.2505 8.632 6.5H6.0765C7.0355 5.016 8.3685 3.9015 9.908 3.3635ZM4.5 12C4.5 10.36 4.8735 8.8255 5.5145 7.5H8.411C8.1395 8.9165 8 10.4735 8 12C8 13.5265 8.1395 15.0835 8.411 16.5H5.5145C4.8735 15.1745 4.5 13.64 4.5 12ZM6.0765 17.5H8.632C8.945 18.7495 9.3715 19.842 9.908 20.6365C8.3685 20.0985 7.0355 18.984 6.0765 17.5ZM14.092 20.6365C14.6285 19.8415 15.055 18.7495 15.368 17.5H17.9235C16.9645 18.984 15.6315 20.0985 14.092 20.6365Z" fill="url(#paint1_radial_206_9924)"/>
<path id="Vector_3" opacity="0.05" d="M21.167 9.5H19.847C19.672 9.5 19.521 9.6225 19.485 9.7935L19.2495 10.9145L18.959 9.778C18.9175 9.6145 18.77 9.5 18.601 9.5H17.399C17.23 9.5 17.0825 9.6145 17.0405 9.7785L16.75 10.915L16.5145 9.794C16.479 9.6225 16.328 9.5 16.153 9.5H13.847C13.672 9.5 13.521 9.6225 13.485 9.7935L13.2495 10.9145L12.959 9.778C12.9175 9.6145 12.77 9.5 12.601 9.5H11.399C11.23 9.5 11.0825 9.6145 11.0405 9.7785L10.75 10.915L10.5145 9.794C10.479 9.6225 10.328 9.5 10.153 9.5H7.847C7.672 9.5 7.521 9.6225 7.485 9.7935L7.2495 10.9145L6.959 9.778C6.9175 9.6145 6.77 9.5 6.601 9.5H5.399C5.23 9.5 5.0825 9.6145 5.0405 9.7785L4.7505 10.915L4.515 9.7935C4.479 9.6225 4.328 9.5 4.153 9.5H2.833C2.5925 9.5 2.416 9.726 2.4745 9.9595L3.5395 14.22C3.5805 14.3845 3.7285 14.5 3.898 14.5H5.325C5.4925 14.5 5.6385 14.3895 5.6815 14.228C5.7775 13.8705 5.9405 13.2615 5.9995 13.038C6.0585 13.2615 6.2215 13.8705 6.3175 14.228C6.3615 14.3895 6.5075 14.5 6.675 14.5H8.102C8.2715 14.5 8.4195 14.3845 8.4605 14.22L9 12.0625L9.5395 14.22C9.5805 14.3845 9.7285 14.5 9.898 14.5H11.325C11.4925 14.5 11.6385 14.3895 11.6815 14.228C11.7775 13.8705 11.9405 13.2615 11.9995 13.038C12.0585 13.2615 12.2215 13.8705 12.3175 14.228C12.3615 14.3895 12.5075 14.5 12.675 14.5H14.102C14.2715 14.5 14.4195 14.3845 14.4605 14.22L15 12.0625L15.5395 14.22C15.5805 14.3845 15.7285 14.5 15.898 14.5H17.325C17.4925 14.5 17.6385 14.3895 17.6815 14.228C17.7775 13.8705 17.9405 13.2615 17.9995 13.038C18.0585 13.2615 18.2215 13.8705 18.3175 14.228C18.3615 14.3895 18.5075 14.5 18.675 14.5H20.102C20.2715 14.5 20.4195 14.3845 20.4605 14.22L21.5255 9.9595C21.584 9.726 21.4075 9.5 21.167 9.5Z" fill="black"/>
<path id="Vector_4" opacity="0.07" d="M20.9765 9.75H19.968C19.841 9.75 19.731 9.839 19.705 9.9635L19.2735 12.018L18.746 9.952C18.7155 9.833 18.6085 9.75 18.4855 9.75H17.5145C17.392 9.75 17.2845 9.833 17.254 9.952L16.7265 12.018L16.2945 9.9635C16.2685 9.839 16.1585 9.75 16.0315 9.75H13.967C13.84 9.75 13.73 9.839 13.704 9.9635L13.2725 12.018L12.745 9.952C12.7145 9.833 12.6075 9.75 12.4845 9.75H11.5135C11.391 9.75 11.2835 9.833 11.253 9.952L10.7255 12.018L10.2935 9.9635C10.2675 9.839 10.1575 9.75 10.0305 9.75H7.966C7.839 9.75 7.729 9.839 7.703 9.9635L7.2715 12.018L6.744 9.952C6.7135 9.833 6.6065 9.75 6.4835 9.75H5.5125C5.39 9.75 5.2825 9.833 5.252 9.952L4.7245 12.018L4.295 9.9635C4.269 9.839 4.1595 9.75 4.0325 9.75H3.0235C2.849 9.75 2.7205 9.914 2.763 10.084L3.7535 14.0465C3.7835 14.166 3.891 14.25 4.014 14.25H5.2105C5.332 14.25 5.438 14.1695 5.4695 14.052C5.5905 13.6 5.962 12.2105 5.999 12.019C6.0365 12.2105 6.4075 13.6005 6.5285 14.052C6.56 14.1695 6.666 14.25 6.7875 14.25H7.984C8.1075 14.25 8.2145 14.166 8.2445 14.0465L9 11.0315L9.754 14.0465C9.784 14.166 9.8915 14.25 10.0145 14.25H11.211C11.3325 14.25 11.4385 14.1695 11.47 14.052C11.591 13.6 11.9625 12.2105 11.9995 12.019C12.037 12.2105 12.408 13.6005 12.529 14.052C12.5605 14.1695 12.6665 14.25 12.788 14.25H13.9845C14.108 14.25 14.215 14.166 14.245 14.0465L15 11.0315L15.754 14.0465C15.784 14.166 15.8915 14.25 16.0145 14.25H17.211C17.3325 14.25 17.4385 14.1695 17.47 14.052C17.591 13.6 17.9625 12.2105 17.9995 12.019C18.037 12.2105 18.408 13.6005 18.529 14.052C18.5605 14.1695 18.6665 14.25 18.788 14.25H19.9845C20.108 14.25 20.215 14.166 20.245 14.0465L21.2355 10.084C21.2795 9.914 21.151 9.75 20.9765 9.75Z" fill="black"/>
<path id="Vector_5" d="M13.9525 10L13.2965 13.1215L12.5 10H11.5L10.7035 13.1215L10.0475 10H9L10 14H11.2255C11.2255 14 11.982 11.182 12 11C12.018 11.182 12.7745 14 12.7745 14H14L15 10H13.9525Z" fill="white"/>
<path id="Vector_6" d="M7.9525 10L7.2965 13.1215L6.5 10H5.5L4.7035 13.1215L4.0475 10H3L4 14H5.2255C5.2255 14 5.982 11.182 6 11C6.018 11.182 6.7745 14 6.7745 14H8L9 10H7.9525Z" fill="white"/>
<path id="Vector_7" d="M19.9525 10L19.2965 13.1215L18.5 10H17.5L16.7035 13.1215L16.0475 10H15L16 14H17.2255C17.2255 14 17.982 11.182 18 11C18.018 11.182 18.7745 14 18.7745 14H20L21 10H19.9525Z" fill="white"/>
</g>
<defs>
<radialGradient id="paint0_radial_206_9924" cx="0" cy="0" r="1" gradientUnits="userSpaceOnUse" gradientTransform="translate(5.166 4.5905) scale(20.0205)">
<stop stop-color="#6FCEFC"/>
<stop offset="1" stop-color="#167CF7"/>
</radialGradient>
<radialGradient id="paint1_radial_206_9924" cx="0" cy="0" r="1" gradientUnits="userSpaceOnUse" gradientTransform="translate(5.6325 4.24) scale(20.0775 20.0775)">
<stop offset="0.001" stop-color="#54C0F5"/>
<stop offset="0.998" stop-color="#0B69DB"/>
</radialGradient>
</defs>
</svg>
