<svg width="24" height="24" viewBox="0 0 24 24" fill="none" xmlns="http://www.w3.org/2000/svg">
<g id="window-settings">
<path id="Vector" d="M2 19V7.5H22V19C22 19.55 21.55 20 21 20H3C2.45 20 2 19.55 2 19Z" fill="url(#paint0_linear_206_10031)"/>
<path id="Vector_2" d="M22 5V7.5H2V5C2 4.45 2.45 4 3 4H21C21.55 4 22 4.45 22 5Z" fill="url(#paint1_linear_206_10031)"/>
<path id="Vector_3" d="M3.75 6.5C4.16421 6.5 4.5 6.16421 4.5 5.75C4.5 5.33579 4.16421 5 3.75 5C3.33579 5 3 5.33579 3 5.75C3 6.16421 3.33579 6.5 3.75 6.5Z" fill="url(#paint2_linear_206_10031)"/>
<path id="Vector_4" d="M6.25 6.5C6.66421 6.5 7 6.16421 7 5.75C7 5.33579 6.66421 5 6.25 5C5.83579 5 5.5 5.33579 5.5 5.75C5.5 6.16421 5.83579 6.5 6.25 6.5Z" fill="url(#paint3_linear_206_10031)"/>
<path id="Vector_5" d="M8.75 6.5C9.16421 6.5 9.5 6.16421 9.5 5.75C9.5 5.33579 9.16421 5 8.75 5C8.33579 5 8 5.33579 8 5.75C8 6.16421 8.33579 6.5 8.75 6.5Z" fill="url(#paint4_linear_206_10031)"/>
<path id="Vector_6" opacity="0.05" d="M22 19V14.776C21.4275 14.3015 20.7675 13.937 20.0605 13.728L19.6305 13.601L19.4575 14.015C19.2955 14.403 18.9195 14.6535 18.4995 14.6535C18.0795 14.6535 17.7035 14.403 17.5415 14.0145L17.368 13.6005L16.938 13.728C16.1135 13.9725 15.3455 14.417 14.717 15.014L14.3925 15.3225L14.6635 15.6785C14.9175 16.013 14.946 16.4635 14.736 16.827C14.5515 17.147 14.206 17.346 13.835 17.346C13.792 17.346 13.7485 17.3435 13.705 17.3375L13.26 17.2815L13.156 17.718C13.052 18.1505 13 18.5815 13 19C13 19.328 13.0415 19.6635 13.105 20H21C21.55 20 22 19.55 22 19Z" fill="black"/>
<path id="Vector_7" opacity="0.07" d="M22 19.0001V16.8326C21.8465 16.4921 21.847 16.1121 22 15.7771V15.1021C21.4195 14.5806 20.7305 14.1866 19.9895 13.9676L19.7745 13.9041L19.688 14.1111C19.487 14.5926 19.0205 14.9036 18.4995 14.9036C17.9785 14.9036 17.512 14.5926 17.311 14.1111L17.2245 13.9041L17.0095 13.9676C16.223 14.2006 15.4895 14.6251 14.8895 15.1951L14.727 15.3496L14.8625 15.5276C15.1775 15.9426 15.213 16.5016 14.9525 16.9521C14.7235 17.3491 14.2955 17.5961 13.835 17.5961C13.7815 17.5961 13.7275 17.5926 13.6735 17.5856L13.451 17.5576L13.399 17.7761C13.3 18.1901 13.25 18.6021 13.25 19.0001C13.25 19.3276 13.292 19.6631 13.3585 20.0001H21C21.55 20.0001 22 19.5501 22 19.0001Z" fill="black"/>
<path id="Vector_8" d="M23.3575 17.834C22.7615 17.91 22.15 17.6305 21.8305 17.077C21.5115 16.524 21.5745 15.855 21.938 15.3765C21.3735 14.8405 20.6855 14.434 19.919 14.2075C19.687 14.763 19.139 15.1535 18.4995 15.1535C17.86 15.1535 17.312 14.7625 17.08 14.2075C16.3135 14.4345 15.626 14.84 15.061 15.3765C15.4245 15.855 15.488 16.524 15.1685 17.077C14.8495 17.63 14.238 17.9095 13.6415 17.834C13.5525 18.2085 13.5 18.5975 13.5 19C13.5 19.4025 13.5525 19.7915 13.6425 20.166C14.2385 20.09 14.85 20.37 15.1695 20.923C15.4885 21.476 15.4255 22.145 15.062 22.6235C15.6265 23.1595 16.3145 23.566 17.081 23.7925C17.313 23.237 17.861 22.8465 18.5005 22.8465C19.14 22.8465 19.688 23.2375 19.92 23.7925C20.6865 23.5655 21.374 23.16 21.939 22.6235C21.5755 22.145 21.5115 21.476 21.8315 20.923C22.1505 20.37 22.762 20.0905 23.3585 20.166C23.4475 19.7915 23.5 19.4025 23.5 19C23.5 18.5975 23.4475 18.2085 23.3575 17.834Z" fill="url(#paint5_linear_206_10031)"/>
<path id="Vector_9" d="M18.5 21.5C19.8807 21.5 21 20.3807 21 19C21 17.6193 19.8807 16.5 18.5 16.5C17.1193 16.5 16 17.6193 16 19C16 20.3807 17.1193 21.5 18.5 21.5Z" fill="url(#paint6_linear_206_10031)"/>
<path id="Vector_10" d="M18.5 20.5C19.3284 20.5 20 19.8284 20 19C20 18.1716 19.3284 17.5 18.5 17.5C17.6716 17.5 17 18.1716 17 19C17 19.8284 17.6716 20.5 18.5 20.5Z" fill="url(#paint7_linear_206_10031)"/>
</g>
<defs>
<linearGradient id="paint0_linear_206_10031" x1="8.30571" y1="7.69191" x2="12.742" y2="21.3773" gradientUnits="userSpaceOnUse">
<stop stop-color="#7DD8F3"/>
<stop offset="1" stop-color="#45B0D0"/>
</linearGradient>
<linearGradient id="paint1_linear_206_10031" x1="2.307" y1="3.8705" x2="21.468" y2="7.7665" gradientUnits="userSpaceOnUse">
<stop stop-color="#0077D2"/>
<stop offset="1" stop-color="#0B59A2"/>
</linearGradient>
<linearGradient id="paint2_linear_206_10031" x1="3.3755" y1="5.208" x2="4.016" y2="6.1345" gradientUnits="userSpaceOnUse">
<stop stop-color="#75DAFF"/>
<stop offset="1" stop-color="#49BEF1"/>
</linearGradient>
<linearGradient id="paint3_linear_206_10031" x1="5.8755" y1="5.208" x2="6.516" y2="6.1345" gradientUnits="userSpaceOnUse">
<stop stop-color="#75DAFF"/>
<stop offset="1" stop-color="#49BEF1"/>
</linearGradient>
<linearGradient id="paint4_linear_206_10031" x1="8.3755" y1="5.208" x2="9.016" y2="6.1345" gradientUnits="userSpaceOnUse">
<stop stop-color="#75DAFF"/>
<stop offset="1" stop-color="#49BEF1"/>
</linearGradient>
<linearGradient id="paint5_linear_206_10031" x1="15.0945" y1="15.5945" x2="22.213" y2="22.713" gradientUnits="userSpaceOnUse">
<stop stop-color="#889097"/>
<stop offset="0.331" stop-color="#848C94"/>
<stop offset="0.669" stop-color="#78828B"/>
<stop offset="1" stop-color="#64717C"/>
</linearGradient>
<linearGradient id="paint6_linear_206_10031" x1="20.242" y1="20.742" x2="16.735" y2="17.235" gradientUnits="userSpaceOnUse">
<stop stop-color="white"/>
<stop offset="0.242" stop-color="#F2F2F2"/>
<stop offset="1" stop-color="#CCCCCC"/>
</linearGradient>
<linearGradient id="paint7_linear_206_10031" x1="17.0965" y1="17.5965" x2="19.5585" y2="20.0585" gradientUnits="userSpaceOnUse">
<stop stop-color="#0D61A9"/>
<stop offset="0.363" stop-color="#0E5FA4"/>
<stop offset="0.78" stop-color="#135796"/>
<stop offset="1" stop-color="#16528C"/>
</linearGradient>
</defs>
</svg>
