<svg xmlns="http://www.w3.org/2000/svg"  viewBox="0 0 48 48" width="20px" height="20px" baseProfile="basic"><linearGradient id="yYuykwHb-8pWegCO7wpN3a" x1="4.808" x2="42.75" y1="-455.219" y2="-447.505" gradientTransform="translate(0 462)" gradientUnits="userSpaceOnUse"><stop offset="0" stop-color="#889097"/><stop offset=".331" stop-color="#848c94"/><stop offset=".669" stop-color="#78828b"/><stop offset="1" stop-color="#64717c"/></linearGradient><path fill="url(#yYuykwHb-8pWegCO7wpN3a)" d="M44,10v3l-20,1L4,13v-3c0-1.1,0.9-2,2-2h36C43.1,8,44,8.9,44,10z"/><linearGradient id="yYuykwHb-8pWegCO7wpN3b" x1="16.598" x2="33.999" y1="-450.546" y2="-425.376" gradientTransform="translate(0 462)" gradientUnits="userSpaceOnUse"><stop offset="0" stop-color="#fcfcfc"/><stop offset=".495" stop-color="#f4f4f4"/><stop offset=".946" stop-color="#e8e8e8"/><stop offset="1" stop-color="#e8e8e8"/></linearGradient><path fill="url(#yYuykwHb-8pWegCO7wpN3b)" d="M10,40L7,26l3-13h34v25c0,1.1-0.9,2-2,2H10z"/><path fill="#ccc" d="M36.5,31h-5c-0.276,0-0.5-0.224-0.5-0.5v-1c0-0.276,0.224-0.5,0.5-0.5h5c0.276,0,0.5,0.224,0.5,0.5v1	C37,30.776,36.776,31,36.5,31z"/><path fill="#ccc" d="M40.5,19h-9c-0.276,0-0.5-0.224-0.5-0.5v-1c0-0.276,0.224-0.5,0.5-0.5h9c0.276,0,0.5,0.224,0.5,0.5v1	C41,18.776,40.776,19,40.5,19z"/><path fill="#ccc" d="M40.5,23h-9c-0.276,0-0.5-0.224-0.5-0.5v-1c0-0.276,0.224-0.5,0.5-0.5h9c0.276,0,0.5,0.224,0.5,0.5v1	C41,22.776,40.776,23,40.5,23z"/><path fill="#ccc" d="M40.5,27h-9c-0.276,0-0.5-0.224-0.5-0.5v-1c0-0.276,0.224-0.5,0.5-0.5h9c0.276,0,0.5,0.224,0.5,0.5v1	C41,26.776,40.776,27,40.5,27z"/><path fill="#d9d9d9" d="M6,40h4V13H4v25C4,39.105,4.895,40,6,40z"/><linearGradient id="yYuykwHb-8pWegCO7wpN3c" x1="14.252" x2="24.933" y1="17.462" y2="32.913" gradientUnits="userSpaceOnUse"><stop offset="0" stop-color="#28afea"/><stop offset="1" stop-color="#047ed6"/></linearGradient><path fill="url(#yYuykwHb-8pWegCO7wpN3c)" d="M27,37H14c-0.552,0-1-0.448-1-1V17c0-0.552,0.448-1,1-1h13c0.552,0,1,0.448,1,1v19	C28,36.552,27.552,37,27,37z"/></svg>