<svg width="199" height="201" viewBox="0 0 199 201" fill="none" xmlns="http://www.w3.org/2000/svg">
<g filter="url(#filter0_d_137_5051)">
<path d="M172.887 10H26.1129C18.3186 10 12 16.3186 12 24.1129V170.887C12 178.681 18.3186 185 26.1129 185H172.887C180.681 185 187 178.681 187 170.887V24.1129C187 16.3186 180.681 10 172.887 10Z" fill="white"/>
<path d="M172.887 10H26.1129C18.3186 10 12 16.3186 12 24.1129V170.887C12 178.681 18.3186 185 26.1129 185H172.887C180.681 185 187 178.681 187 170.887V24.1129C187 16.3186 180.681 10 172.887 10Z" stroke="#F2F2F2" stroke-width="15" stroke-linecap="round"/>
<path d="M26.1129 10.5H172.887C180.405 10.5 186.5 16.5948 186.5 24.1129V170.887C186.5 178.405 180.405 184.5 172.887 184.5H26.1129C18.5948 184.5 12.5 178.405 12.5 170.887V24.1129C12.5 16.5947 18.5947 10.5 26.1129 10.5Z" fill="url(#paint0_linear_137_5051)" fill-opacity="0.2" stroke="white"/>
</g>
<path d="M147.312 60.47H51.6875C47.7175 60.47 44.5 63.6875 44.5 67.6575V128.282C44.5 132.252 47.7175 135.47 51.6875 135.47H147.312C151.282 135.47 154.5 132.252 154.5 128.282V67.6575C154.5 63.6875 151.282 60.47 147.312 60.47Z" fill="url(#paint1_linear_137_5051)"/>
<path opacity="0.05" d="M148.098 105.73C148.095 105.727 148.095 105.727 148.098 105.73L141.883 85.0825C141.418 83.5375 140.023 82.5 138.41 82.5H131.055C129.465 82.5 128.035 83.565 127.583 85.09L124.433 95.685C124.525 94.7175 124.53 93.8425 124.53 93.205C124.53 90.0025 124.53 82.5 114.268 82.5H104.123C102.125 82.5 100.498 84.125 100.498 86.1225V86.6425C100.375 86.42 100.22 86.21 100.028 86.03C97.3276 83.475 93.7826 82.065 90.0401 82.065C87.1226 82.065 84.3076 82.9225 81.9051 84.5425C80.0626 85.7825 78.5551 87.415 77.4751 89.32H76.6751C75.7026 89.32 74.8176 89.885 74.4076 90.765L72.7501 94.325C72.7026 94.425 72.6826 94.5325 72.6501 94.6375C72.3951 94.27 72.1251 93.9325 71.8251 93.6475C72.0726 93.4875 72.2976 93.295 72.5026 93.075C73.1901 92.3275 73.5376 91.3225 73.4526 90.31C73.0426 85.365 71.1151 82.5 62.4776 82.5C57.2076 82.5 50.6476 82.5 50.5826 91.585C50.5626 94.1 51.5976 96.405 53.2901 98.08C52.6576 98.25 52.0751 98.595 51.6176 99.075C50.9301 99.795 50.5626 100.785 50.6126 101.788C50.9551 108.635 55.1776 109.975 62.3526 109.975L63.0876 109.985C63.4051 109.992 63.7551 110 64.1301 110C66.3326 110 69.3476 109.742 71.5576 107.58C72.7101 106.45 73.4451 104.93 73.8226 103.1C74.1851 103.297 74.5951 103.405 75.0201 103.405H77.5826C80.1251 107.69 84.8476 110.377 90.0426 110.377C92.9401 110.377 95.7326 109.533 98.1226 107.933C98.8101 107.473 99.2251 106.707 99.2326 105.88L99.2776 101.41C99.2876 100.347 98.6251 99.395 97.6276 99.035C97.0251 98.8175 96.3826 98.845 95.8201 99.0775L96.1751 98.3025C96.3251 97.975 96.4001 97.6275 96.4026 97.28C96.6701 97.0525 96.8901 96.7675 97.0451 96.435L98.7026 92.875C98.7926 92.6825 98.8551 92.4825 98.8926 92.2775C98.9501 92.19 99.0051 92.0975 99.0526 92.0025L100.5 89.06V106.35C100.5 108.35 102.125 109.975 104.125 109.975H107.925C109.923 109.975 111.548 108.35 111.548 106.35V103.855H115.79C119.713 103.855 121.865 102.295 123.058 100.315L121.43 105.79C121.138 106.77 121.328 107.842 121.94 108.662C122.553 109.482 123.528 109.973 124.55 109.973H128.795C130.42 109.973 131.858 108.878 132.288 107.315L132.628 106.09H136.938L137.315 107.37C137.765 108.902 139.195 109.975 140.793 109.975H144.943C145.98 109.975 146.968 109.48 147.588 108.647C148.203 107.815 148.395 106.722 148.098 105.73ZM111.545 93.7375V92.4175H112.865C113.043 92.4175 113.188 92.42 113.308 92.4275C113.323 92.62 113.333 92.885 113.333 93.2475C113.333 93.4375 113.33 93.6 113.325 93.7325C113.185 93.735 113.018 93.7375 112.815 93.7375H111.545Z" fill="black"/>
<path opacity="0.07" d="M67.6525 93.4625H69.84C70.5 93.4625 71.135 93.185 71.5825 92.6975C72.035 92.2075 72.26 91.5475 72.2075 90.8825C71.8325 86.365 70.28 84.2175 62.4775 84.2175C57.0325 84.2175 51.89 84.2175 51.8325 92.0625C51.805 95.61 54.2175 98.675 57.57 99.67C57.5675 99.67 57.565 99.67 57.5625 99.67H54.2325C53.58 99.67 52.9725 99.93 52.5225 100.405C52.07 100.88 51.8275 101.53 51.86 102.195C52.125 107.493 54.675 109.195 62.3525 109.195L63.115 109.208C63.4375 109.213 63.7875 109.22 64.1525 109.22C66.2025 109.22 68.8075 108.99 70.68 107.158C72.135 105.735 72.87 103.578 72.87 100.753C72.8725 95.7 70.63 94.055 67.6525 93.4625ZM60.1875 92.7175C60.1875 92.715 60.1175 92.6 60.1175 92.1625C60.1175 91.305 60.1175 91.215 62.42 91.215C63.8225 91.215 64.08 91.4125 64.14 91.5425C64.31 92.2725 64.7675 92.8575 65.3675 93.185C65.125 93.1675 64.88 93.1525 64.635 93.1425L63.5275 93.09C62.015 93.0275 60.45 92.955 60.1875 92.7175ZM64.6125 100.533C64.62 100.55 64.655 100.66 64.6675 101.295C64.6875 101.57 64.685 101.728 64.6025 101.818C64.545 101.88 64.1775 102.2 62.8075 102.2L62.1 102.205C60.0125 102.243 59.98 102.125 59.8925 101.638C59.7475 100.858 59.245 100.225 58.575 99.9025C58.8225 99.945 59.0725 99.9725 59.3275 99.9925L60.225 100.055C62.42 100.213 64.3175 100.345 64.6125 100.533Z" fill="black"/>
<path opacity="0.07" d="M114.268 84.22H104.123C102.815 84.22 101.748 85.285 101.748 86.5925V106.82C101.748 108.13 102.813 109.195 104.123 109.195H107.923C109.23 109.195 110.295 108.13 110.295 106.82V103.075H115.788C122.39 103.075 123.28 98.325 123.28 93.675C123.28 88.765 122.188 84.22 114.268 84.22ZM114.585 93.7175C114.585 94.9575 114.47 95.255 114.435 95.31C114.333 95.3775 113.97 95.46 112.818 95.46H110.295V91.64H112.865C114.585 91.6375 114.585 91.6375 114.585 93.7175Z" fill="black"/>
<path opacity="0.07" d="M146.9 106.56L140.685 85.9125C140.38 84.9 139.467 84.22 138.412 84.22H131.057C130.015 84.22 129.08 84.9175 128.782 85.9175L122.63 106.617C122.45 107.22 122.567 107.882 122.942 108.387C123.325 108.902 123.91 109.195 124.55 109.195H128.795C129.86 109.195 130.8 108.477 131.082 107.452L131.675 105.312H137.872L138.515 107.49C138.81 108.495 139.747 109.197 140.792 109.197H144.942C145.595 109.197 146.192 108.897 146.585 108.372C146.977 107.847 147.087 107.187 146.9 106.56ZM135.95 98.435H133.665L134.79 94.475L135.95 98.435Z" fill="black"/>
<path opacity="0.07" d="M90.0425 83.785C87.375 83.785 84.8025 84.5675 82.605 86.0475C80.725 87.315 79.2225 89.03 78.23 91.04H76.675C76.19 91.04 75.7475 91.32 75.5425 91.7625L73.885 95.3225C73.705 95.71 73.735 96.1625 73.965 96.52C74.195 96.8825 74.59 97.0975 75.0175 97.0975H75.605C75.5825 97.135 75.5625 97.17 75.5475 97.21L73.88 100.852C73.7025 101.24 73.735 101.69 73.965 102.05C74.195 102.407 74.59 102.622 75.0175 102.622H78.315C80.535 106.885 85.0475 109.595 90.04 109.595C92.69 109.595 95.2425 108.822 97.4275 107.362C97.77 107.132 97.98 106.747 97.9825 106.335L98.0275 101.865C98.0325 101.335 97.7025 100.857 97.2025 100.675C96.7075 100.502 96.145 100.65 95.8075 101.062C95.7875 101.087 93.7 103.605 90.4425 103.605C89.1175 103.605 87.875 103.257 86.8125 102.617H92.23C92.7175 102.617 93.1625 102.332 93.3675 101.887L95.0375 98.245C95.21 97.87 95.185 97.4325 94.9725 97.08C95.38 97.015 95.7325 96.7525 95.91 96.3725L97.5675 92.8125C97.65 92.635 97.69 92.445 97.685 92.2525C97.785 92.155 97.8675 92.04 97.93 91.9125L99.4325 88.8575C99.675 88.3675 99.5675 87.775 99.17 87.3975C96.705 85.0725 93.4625 83.785 90.0425 83.785ZM86.2175 91.0425C88.635 89.165 92.3 89.1675 94.705 91.0425H86.2175Z" fill="black"/>
<path d="M58.8676 91.69C58.8676 89.7075 59.8726 89.495 62.4201 89.495C64.4176 89.495 65.1351 89.8475 65.3551 90.7875C65.4826 91.3275 65.9101 91.7425 66.4626 91.7425H69.8376C70.4951 91.7425 71.0126 91.1725 70.9576 90.5175C70.6801 87.14 70.1726 85 62.4776 85C56.3126 85 53.1276 85.405 53.0826 91.605C53.0576 95.13 55.9001 98.0225 59.4176 98.275C65.1926 98.69 65.9101 98.63 65.9101 100.578C65.9101 101.023 66.4101 102.983 62.8101 102.983C60.4401 102.983 58.9976 103.2 58.6626 101.395C58.5626 100.86 58.1076 100.452 57.5626 100.452H54.2326C53.5801 100.452 53.0751 101.013 53.1101 101.665C53.3251 106.025 54.9776 107.475 62.3526 107.475C65.3451 107.475 71.6226 108.317 71.6226 100.28C71.6226 94.915 69.0151 94.135 64.5751 93.92C60.1601 93.705 58.8676 93.86 58.8676 91.69Z" fill="white"/>
<path d="M114.267 85H104.123C103.503 85 103 85.5025 103 86.1225V106.35C103 106.97 103.503 107.473 104.123 107.473H107.922C108.542 107.473 109.045 106.97 109.045 106.35V101.355C109.045 101.355 115.212 101.355 115.787 101.355C120.672 101.355 122.03 98.6325 122.03 93.205C122.03 88.415 121.087 85 114.267 85ZM112.817 96.2375H109.045V89.9175H112.865C115.275 89.9175 115.833 90.4525 115.833 93.245C115.835 95.945 115.377 96.2375 112.817 96.2375Z" fill="white"/>
<path d="M145.703 106.448L139.488 85.8C139.345 85.325 138.908 85 138.413 85H131.058C130.56 85 130.123 85.3275 129.98 85.8025L123.825 106.502C123.68 106.987 124.045 107.473 124.55 107.473H128.795C129.3 107.473 129.743 107.135 129.878 106.648L130.725 103.587H138.808L139.715 106.665C139.855 107.143 140.295 107.473 140.793 107.473H144.943C145.473 107.475 145.855 106.96 145.703 106.448ZM132.013 99.2125L134.775 89.495L137.62 99.2125H132.013Z" fill="white"/>
<path d="M90.0425 84.565C87.6225 84.565 85.2925 85.275 83.305 86.615C81.385 87.91 79.91 89.7125 79.0325 91.82H76.675L75.0175 95.38H78.1825C78.1625 95.68 78.145 95.9625 78.145 96.22C78.145 96.56 78.165 96.91 78.1975 97.26H76.685L75.0175 100.905H79.1025C80.9875 105.19 85.275 107.875 90.0425 107.875C92.4425 107.875 94.755 107.177 96.735 105.855L96.78 101.385C96.78 101.385 94.335 104.387 90.4475 104.387C87.75 104.387 85.25 103.13 83.71 100.903H92.235L93.905 97.2575H82.325C82.2725 96.88 82.24 96.4975 82.24 96.12C82.24 95.875 82.255 95.625 82.2775 95.3775H94.78L96.4375 91.8175H83.4525C84.94 89.37 87.5975 87.8525 90.4475 87.8525C92.9225 87.8525 95.24 88.9625 96.81 90.895L98.31 87.84C96.0775 85.73 93.1425 84.565 90.0425 84.565Z" fill="url(#paint2_linear_137_5051)"/>
<defs>
<filter id="filter0_d_137_5051" x="0.5" y="2.5" width="198" height="198" filterUnits="userSpaceOnUse" color-interpolation-filters="sRGB">
<feFlood flood-opacity="0" result="BackgroundImageFix"/>
<feColorMatrix in="SourceAlpha" type="matrix" values="0 0 0 0 0 0 0 0 0 0 0 0 0 0 0 0 0 0 127 0" result="hardAlpha"/>
<feOffset dy="4"/>
<feGaussianBlur stdDeviation="2"/>
<feComposite in2="hardAlpha" operator="out"/>
<feColorMatrix type="matrix" values="0 0 0 0 0 0 0 0 0 0 0 0 0 0 0 0 0 0 0.25 0"/>
<feBlend mode="normal" in2="BackgroundImageFix" result="effect1_dropShadow_137_5051"/>
<feBlend mode="normal" in="SourceGraphic" in2="effect1_dropShadow_137_5051" result="shape"/>
</filter>
<linearGradient id="paint0_linear_137_5051" x1="99.5" y1="18.4677" x2="99.5" y2="176.532" gradientUnits="userSpaceOnUse">
<stop stop-color="white"/>
<stop offset="0.472222" stop-color="#0D5176" stop-opacity="0.527778"/>
<stop offset="0.940972" stop-color="#12A6F7" stop-opacity="0.465278"/>
</linearGradient>
<linearGradient id="paint1_linear_137_5051" x1="90.4375" y1="65.6225" x2="111.37" y2="140.337" gradientUnits="userSpaceOnUse">
<stop stop-color="#1D59B3"/>
<stop offset="1" stop-color="#195BBC"/>
</linearGradient>
<linearGradient id="paint2_linear_137_5051" x1="75.0175" y1="96.2225" x2="98.31" y2="96.2225" gradientUnits="userSpaceOnUse">
<stop stop-color="#FEDE00"/>
<stop offset="1" stop-color="#FFD000"/>
</linearGradient>
</defs>
</svg>
