<svg width="195" height="195" viewBox="0 0 195 195" fill="none" xmlns="http://www.w3.org/2000/svg">
<g filter="url(#filter0_d_137_5045)">
<path d="M170.887 10H24.1129C16.3186 10 10 16.3186 10 24.1129V170.887C10 178.681 16.3186 185 24.1129 185H170.887C178.681 185 185 178.681 185 170.887V24.1129C185 16.3186 178.681 10 170.887 10Z" fill="url(#paint0_linear_137_5045)" fill-opacity="0.2"/>
<path d="M24.1129 10.5H170.887C178.405 10.5 184.5 16.5948 184.5 24.1129V170.887C184.5 178.405 178.405 184.5 170.887 184.5H24.1129C16.5948 184.5 10.5 178.405 10.5 170.887V24.1129C10.5 16.5947 16.5947 10.5 24.1129 10.5Z" stroke="#F7F7F7" stroke-opacity="0.27"/>
</g>
<path d="M145.312 60.47H49.6875C45.7175 60.47 42.5 63.6875 42.5 67.6575V128.282C42.5 132.252 45.7175 135.47 49.6875 135.47H145.312C149.282 135.47 152.5 132.252 152.5 128.282V67.6575C152.5 63.6875 149.282 60.47 145.312 60.47Z" fill="url(#paint1_linear_137_5045)"/>
<path opacity="0.05" d="M146.098 105.73C146.095 105.727 146.095 105.727 146.098 105.73L139.883 85.0825C139.418 83.5375 138.023 82.5 136.41 82.5H129.055C127.465 82.5 126.035 83.565 125.583 85.09L122.433 95.685C122.525 94.7175 122.53 93.8425 122.53 93.205C122.53 90.0025 122.53 82.5 112.268 82.5H102.123C100.125 82.5 98.4976 84.125 98.4976 86.1225V86.6425C98.3751 86.42 98.2201 86.21 98.0276 86.03C95.3276 83.475 91.7826 82.065 88.0401 82.065C85.1226 82.065 82.3076 82.9225 79.9051 84.5425C78.0626 85.7825 76.5551 87.415 75.4751 89.32H74.6751C73.7026 89.32 72.8176 89.885 72.4076 90.765L70.7501 94.325C70.7026 94.425 70.6826 94.5325 70.6501 94.6375C70.3951 94.27 70.1251 93.9325 69.8251 93.6475C70.0726 93.4875 70.2976 93.295 70.5026 93.075C71.1901 92.3275 71.5376 91.3225 71.4526 90.31C71.0426 85.365 69.1151 82.5 60.4776 82.5C55.2076 82.5 48.6476 82.5 48.5826 91.585C48.5626 94.1 49.5976 96.405 51.2901 98.08C50.6576 98.25 50.0751 98.595 49.6176 99.075C48.9301 99.795 48.5626 100.785 48.6126 101.788C48.9551 108.635 53.1776 109.975 60.3526 109.975L61.0876 109.985C61.4051 109.992 61.7551 110 62.1301 110C64.3326 110 67.3476 109.742 69.5576 107.58C70.7101 106.45 71.4451 104.93 71.8226 103.1C72.1851 103.297 72.5951 103.405 73.0201 103.405H75.5826C78.1251 107.69 82.8476 110.377 88.0426 110.377C90.9401 110.377 93.7326 109.533 96.1226 107.933C96.8101 107.473 97.2251 106.707 97.2326 105.88L97.2776 101.41C97.2876 100.347 96.6251 99.395 95.6276 99.035C95.0251 98.8175 94.3826 98.845 93.8201 99.0775L94.1751 98.3025C94.3251 97.975 94.4001 97.6275 94.4026 97.28C94.6701 97.0525 94.8901 96.7675 95.0451 96.435L96.7026 92.875C96.7926 92.6825 96.8551 92.4825 96.8926 92.2775C96.9501 92.19 97.0051 92.0975 97.0526 92.0025L98.5001 89.06V106.35C98.5001 108.35 100.125 109.975 102.125 109.975H105.925C107.923 109.975 109.548 108.35 109.548 106.35V103.855H113.79C117.713 103.855 119.865 102.295 121.058 100.315L119.43 105.79C119.138 106.77 119.328 107.842 119.94 108.662C120.553 109.482 121.528 109.973 122.55 109.973H126.795C128.42 109.973 129.858 108.878 130.288 107.315L130.628 106.09H134.938L135.315 107.37C135.765 108.902 137.195 109.975 138.793 109.975H142.943C143.98 109.975 144.968 109.48 145.588 108.647C146.203 107.815 146.395 106.722 146.098 105.73ZM109.545 93.7375V92.4175H110.865C111.043 92.4175 111.188 92.42 111.308 92.4275C111.323 92.62 111.333 92.885 111.333 93.2475C111.333 93.4375 111.33 93.6 111.325 93.7325C111.185 93.735 111.018 93.7375 110.815 93.7375H109.545Z" fill="black"/>
<path opacity="0.07" d="M65.6525 93.4625H67.84C68.5 93.4625 69.135 93.185 69.5825 92.6975C70.035 92.2075 70.26 91.5475 70.2075 90.8825C69.8325 86.365 68.28 84.2175 60.4775 84.2175C55.0325 84.2175 49.89 84.2175 49.8325 92.0625C49.805 95.61 52.2175 98.675 55.57 99.67C55.5675 99.67 55.565 99.67 55.5625 99.67H52.2325C51.58 99.67 50.9725 99.93 50.5225 100.405C50.07 100.88 49.8275 101.53 49.86 102.195C50.125 107.493 52.675 109.195 60.3525 109.195L61.115 109.208C61.4375 109.213 61.7875 109.22 62.1525 109.22C64.2025 109.22 66.8075 108.99 68.68 107.158C70.135 105.735 70.87 103.578 70.87 100.753C70.8725 95.7 68.63 94.055 65.6525 93.4625ZM58.1875 92.7175C58.1875 92.715 58.1175 92.6 58.1175 92.1625C58.1175 91.305 58.1175 91.215 60.42 91.215C61.8225 91.215 62.08 91.4125 62.14 91.5425C62.31 92.2725 62.7675 92.8575 63.3675 93.185C63.125 93.1675 62.88 93.1525 62.635 93.1425L61.5275 93.09C60.015 93.0275 58.45 92.955 58.1875 92.7175ZM62.6125 100.533C62.62 100.55 62.655 100.66 62.6675 101.295C62.6875 101.57 62.685 101.728 62.6025 101.818C62.545 101.88 62.1775 102.2 60.8075 102.2L60.1 102.205C58.0125 102.243 57.98 102.125 57.8925 101.638C57.7475 100.858 57.245 100.225 56.575 99.9025C56.8225 99.945 57.0725 99.9725 57.3275 99.9925L58.225 100.055C60.42 100.213 62.3175 100.345 62.6125 100.533Z" fill="black"/>
<path opacity="0.07" d="M112.268 84.22H102.123C100.815 84.22 99.7476 85.285 99.7476 86.5925V106.82C99.7476 108.13 100.813 109.195 102.123 109.195H105.923C107.23 109.195 108.295 108.13 108.295 106.82V103.075H113.788C120.39 103.075 121.28 98.325 121.28 93.675C121.28 88.765 120.188 84.22 112.268 84.22ZM112.585 93.7175C112.585 94.9575 112.47 95.255 112.435 95.31C112.333 95.3775 111.97 95.46 110.818 95.46H108.295V91.64H110.865C112.585 91.6375 112.585 91.6375 112.585 93.7175Z" fill="black"/>
<path opacity="0.07" d="M144.9 106.56L138.685 85.9125C138.38 84.9 137.467 84.22 136.412 84.22H129.057C128.015 84.22 127.08 84.9175 126.782 85.9175L120.63 106.617C120.45 107.22 120.567 107.882 120.942 108.387C121.325 108.902 121.91 109.195 122.55 109.195H126.795C127.86 109.195 128.8 108.477 129.082 107.452L129.675 105.312H135.872L136.515 107.49C136.81 108.495 137.747 109.197 138.792 109.197H142.942C143.595 109.197 144.192 108.897 144.585 108.372C144.977 107.847 145.087 107.187 144.9 106.56ZM133.95 98.435H131.665L132.79 94.475L133.95 98.435Z" fill="black"/>
<path opacity="0.07" d="M88.0425 83.785C85.375 83.785 82.8025 84.5675 80.605 86.0475C78.725 87.315 77.2225 89.03 76.23 91.04H74.675C74.19 91.04 73.7475 91.32 73.5425 91.7625L71.885 95.3225C71.705 95.71 71.735 96.1625 71.965 96.52C72.195 96.8825 72.59 97.0975 73.0175 97.0975H73.605C73.5825 97.135 73.5625 97.17 73.5475 97.21L71.88 100.852C71.7025 101.24 71.735 101.69 71.965 102.05C72.195 102.407 72.59 102.622 73.0175 102.622H76.315C78.535 106.885 83.0475 109.595 88.04 109.595C90.69 109.595 93.2425 108.822 95.4275 107.362C95.77 107.132 95.98 106.747 95.9825 106.335L96.0275 101.865C96.0325 101.335 95.7025 100.857 95.2025 100.675C94.7075 100.502 94.145 100.65 93.8075 101.062C93.7875 101.087 91.7 103.605 88.4425 103.605C87.1175 103.605 85.875 103.257 84.8125 102.617H90.23C90.7175 102.617 91.1625 102.332 91.3675 101.887L93.0375 98.245C93.21 97.87 93.185 97.4325 92.9725 97.08C93.38 97.015 93.7325 96.7525 93.91 96.3725L95.5675 92.8125C95.65 92.635 95.69 92.445 95.685 92.2525C95.785 92.155 95.8675 92.04 95.93 91.9125L97.4325 88.8575C97.675 88.3675 97.5675 87.775 97.17 87.3975C94.705 85.0725 91.4625 83.785 88.0425 83.785ZM84.2175 91.0425C86.635 89.165 90.3 89.1675 92.705 91.0425H84.2175Z" fill="black"/>
<path d="M56.8676 91.69C56.8676 89.7075 57.8726 89.495 60.4201 89.495C62.4176 89.495 63.1351 89.8475 63.3551 90.7875C63.4826 91.3275 63.9101 91.7425 64.4626 91.7425H67.8376C68.4951 91.7425 69.0126 91.1725 68.9576 90.5175C68.6801 87.14 68.1726 85 60.4776 85C54.3126 85 51.1276 85.405 51.0826 91.605C51.0576 95.13 53.9001 98.0225 57.4176 98.275C63.1926 98.69 63.9101 98.63 63.9101 100.578C63.9101 101.023 64.4101 102.983 60.8101 102.983C58.4401 102.983 56.9976 103.2 56.6626 101.395C56.5626 100.86 56.1076 100.452 55.5626 100.452H52.2326C51.5801 100.452 51.0751 101.013 51.1101 101.665C51.3251 106.025 52.9776 107.475 60.3526 107.475C63.3451 107.475 69.6226 108.317 69.6226 100.28C69.6226 94.915 67.0151 94.135 62.5751 93.92C58.1601 93.705 56.8676 93.86 56.8676 91.69Z" fill="white"/>
<path d="M112.267 85H102.123C101.503 85 101 85.5025 101 86.1225V106.35C101 106.97 101.503 107.473 102.123 107.473H105.922C106.542 107.473 107.045 106.97 107.045 106.35V101.355C107.045 101.355 113.212 101.355 113.787 101.355C118.672 101.355 120.03 98.6325 120.03 93.205C120.03 88.415 119.087 85 112.267 85ZM110.817 96.2375H107.045V89.9175H110.865C113.275 89.9175 113.833 90.4525 113.833 93.245C113.835 95.945 113.377 96.2375 110.817 96.2375Z" fill="white"/>
<path d="M143.703 106.448L137.488 85.8C137.345 85.325 136.908 85 136.413 85H129.058C128.56 85 128.123 85.3275 127.98 85.8025L121.825 106.502C121.68 106.987 122.045 107.473 122.55 107.473H126.795C127.3 107.473 127.743 107.135 127.878 106.648L128.725 103.587H136.808L137.715 106.665C137.855 107.143 138.295 107.473 138.793 107.473H142.943C143.473 107.475 143.855 106.96 143.703 106.448ZM130.013 99.2125L132.775 89.495L135.62 99.2125H130.013Z" fill="white"/>
<path d="M88.0425 84.565C85.6225 84.565 83.2925 85.275 81.305 86.615C79.385 87.91 77.91 89.7125 77.0325 91.82H74.675L73.0175 95.38H76.1825C76.1625 95.68 76.145 95.9625 76.145 96.22C76.145 96.56 76.165 96.91 76.1975 97.26H74.685L73.0175 100.905H77.1025C78.9875 105.19 83.275 107.875 88.0425 107.875C90.4425 107.875 92.755 107.177 94.735 105.855L94.78 101.385C94.78 101.385 92.335 104.387 88.4475 104.387C85.75 104.387 83.25 103.13 81.71 100.903H90.235L91.905 97.2575H80.325C80.2725 96.88 80.24 96.4975 80.24 96.12C80.24 95.875 80.255 95.625 80.2775 95.3775H92.78L94.4375 91.8175H81.4525C82.94 89.37 85.5975 87.8525 88.4475 87.8525C90.9225 87.8525 93.24 88.9625 94.81 90.895L96.31 87.84C94.0775 85.73 91.1425 84.565 88.0425 84.565Z" fill="url(#paint2_linear_137_5045)"/>
<defs>
<filter id="filter0_d_137_5045" x="6" y="10" width="183" height="183" filterUnits="userSpaceOnUse" color-interpolation-filters="sRGB">
<feFlood flood-opacity="0" result="BackgroundImageFix"/>
<feColorMatrix in="SourceAlpha" type="matrix" values="0 0 0 0 0 0 0 0 0 0 0 0 0 0 0 0 0 0 127 0" result="hardAlpha"/>
<feOffset dy="4"/>
<feGaussianBlur stdDeviation="2"/>
<feComposite in2="hardAlpha" operator="out"/>
<feColorMatrix type="matrix" values="0 0 0 0 0 0 0 0 0 0 0 0 0 0 0 0 0 0 0.25 0"/>
<feBlend mode="normal" in2="BackgroundImageFix" result="effect1_dropShadow_137_5045"/>
<feBlend mode="normal" in="SourceGraphic" in2="effect1_dropShadow_137_5045" result="shape"/>
</filter>
<linearGradient id="paint0_linear_137_5045" x1="97.5" y1="18.4677" x2="97.5" y2="176.532" gradientUnits="userSpaceOnUse">
<stop stop-color="white"/>
<stop offset="0.472222" stop-color="#0D5176" stop-opacity="0.527778"/>
<stop offset="0.940972" stop-color="#12A6F7" stop-opacity="0.465278"/>
</linearGradient>
<linearGradient id="paint1_linear_137_5045" x1="88.4375" y1="65.6225" x2="109.37" y2="140.337" gradientUnits="userSpaceOnUse">
<stop stop-color="#1D59B3"/>
<stop offset="1" stop-color="#195BBC"/>
</linearGradient>
<linearGradient id="paint2_linear_137_5045" x1="73.0175" y1="96.2225" x2="96.31" y2="96.2225" gradientUnits="userSpaceOnUse">
<stop stop-color="#FEDE00"/>
<stop offset="1" stop-color="#FFD000"/>
</linearGradient>
</defs>
</svg>
