<svg width="70" height="62" viewBox="0 0 70 62" fill="none" xmlns="http://www.w3.org/2000/svg">
<path d="M49.1364 38.0663H43.4105C43.3945 34.7853 42.0799 31.6441 39.7543 29.3297C37.4286 27.0153 34.281 25.716 31 25.716C27.719 25.716 24.5714 27.0153 22.2458 29.3297C19.9201 31.6441 18.6055 34.7853 18.5896 38.0663H12.8637C12.8626 36.3436 13.1128 34.63 13.6064 32.9795C14.7234 29.2341 17.0197 25.9492 20.1536 23.6136C23.2874 21.278 27.0915 20.0164 31 20.0164C34.9085 20.0164 38.7126 21.278 41.8465 23.6136C44.9803 25.9492 47.2766 29.2341 48.3936 32.9795C48.8872 34.63 49.1374 36.3436 49.1364 38.0663V38.0663Z" fill="#50E6FF"/>
<path d="M50 34.698V40.7434C49.9987 41.2011 49.8162 41.6397 49.4926 41.9633C49.169 42.2869 48.7304 42.4694 48.2727 42.4707H45.25V32.9707H48.2727C48.3132 32.969 48.3538 32.9719 48.3936 32.9793C48.8291 33.0096 49.2369 33.2037 49.5349 33.5226C49.833 33.8415 49.9992 34.2615 50 34.698V34.698Z" fill="#42A4ED"/>
<path d="M16.75 32.9707V42.4707H13.7273C13.2696 42.4694 12.831 42.2869 12.5074 41.9633C12.1838 41.6397 12.0013 41.2011 12 40.7434V34.698C12.0008 34.2615 12.167 33.8415 12.4651 33.5226C12.7631 33.2037 13.1709 33.0096 13.6064 32.9793C13.6462 32.9719 13.6868 32.969 13.7273 32.9707H16.75Z" fill="#42A4ED"/>
<path d="M47.4091 38.0662V38.1527C47.4111 39.6115 47.2165 41.064 46.8304 42.4709H45.25V38.0662H43.4104C43.3945 34.7852 42.0799 31.6441 39.7542 29.3297C37.4285 27.0153 34.281 25.716 31 25.716C27.7189 25.716 24.5714 27.0153 22.2457 29.3297C19.9201 31.6441 18.6055 34.7852 18.5895 38.0662H16.75V42.4709H15.1695C14.7835 41.064 14.5888 39.6115 14.5909 38.1527V38.0662C14.5966 36.3333 14.8825 34.6126 15.4373 32.9709C16.5237 29.7022 18.6117 26.8586 21.4051 24.8434C24.1985 22.8282 27.5555 21.7437 31 21.7437C34.4444 21.7437 37.8015 22.8282 40.5949 24.8434C43.3883 26.8586 45.4763 29.7022 46.5627 32.9709C47.1175 34.6126 47.4033 36.3333 47.4091 38.0662V38.0662Z" fill="url(#paint0_radial_300_5987)"/>
<path d="M31 22.6072C26.8771 22.6072 22.9231 24.245 20.0078 27.1604C17.0925 30.0757 15.4546 34.0297 15.4546 38.1526H46.5455C46.5454 34.0297 44.9076 30.0757 41.9923 27.1604C39.077 24.245 35.1229 22.6072 31 22.6072V22.6072Z" fill="url(#paint1_linear_300_5987)"/>
<path d="M37.1319 47.5663H24.8682C23.7454 47.5664 22.6336 47.3452 21.5962 46.9156C20.5589 46.4859 19.6163 45.8561 18.8223 45.0622C18.0284 44.2682 17.3986 43.3257 16.969 42.2883C16.5393 41.251 16.3182 40.1391 16.3182 39.0163V39.0163C16.3182 37.8935 16.5393 36.7817 16.969 35.7443C17.3986 34.7069 18.0284 33.7644 18.8223 32.9704C19.6163 32.1765 20.5589 31.5467 21.5962 31.117C22.6336 30.6874 23.7454 30.4663 24.8682 30.4663H37.1319C38.2547 30.4663 39.3665 30.6874 40.4039 31.117C41.4412 31.5467 42.3838 32.1765 43.1777 32.9704C43.9717 33.7644 44.6015 34.7069 45.0311 35.7443C45.4608 36.7817 45.6819 37.8935 45.6819 39.0163C45.6819 40.1391 45.4608 41.251 45.0311 42.2883C44.6015 43.3257 43.9717 44.2682 43.1777 45.0622C42.3838 45.8561 41.4412 46.4859 40.4039 46.9156C39.3665 47.3452 38.2547 47.5664 37.1319 47.5663V47.5663Z" fill="white" fill-opacity="0.8"/>
<path d="M37.0887 48.5163H24.9114C22.4042 48.5136 20.0004 47.5163 18.2275 45.7434C16.4546 43.9705 15.4574 41.5668 15.4546 39.0595V38.9732C15.4574 36.4659 16.4546 34.0622 18.2275 32.2893C20.0004 30.5164 22.4042 29.5191 24.9114 29.5164H37.0887C39.5959 29.5191 41.9997 30.5164 43.7726 32.2893C45.5455 34.0622 46.5427 36.4659 46.5455 38.9732V39.0604C46.5425 41.5675 45.5452 43.9711 43.7723 45.7438C41.9994 47.5165 39.5958 48.5136 37.0887 48.5163ZM24.9114 31.2436C22.8621 31.246 20.8974 32.0611 19.4484 33.5101C17.9993 34.9592 17.1842 36.9239 17.1819 38.9732V39.0604C17.1844 41.1095 17.9996 43.074 19.4486 44.5229C20.8977 45.9718 22.8623 46.7868 24.9114 46.7891H37.0887C39.138 46.7869 41.1028 45.9718 42.5519 44.5227C44.001 43.0736 44.816 41.1089 44.8182 39.0595V38.9732C44.8159 36.9239 44.0008 34.9592 42.5517 33.5101C41.1026 32.0611 39.138 31.246 37.0887 31.2436H24.9114Z" fill="url(#paint2_linear_300_5987)"/>
<path d="M28.4083 39.8799C28.2119 39.8796 28.0215 39.8124 27.8683 39.6895C27.7152 39.5666 27.6085 39.3952 27.5657 39.2035C27.4216 38.6303 27.0818 38.1253 26.6051 37.7758C26.1284 37.4262 25.5447 37.2541 24.9546 37.289C24.3645 37.2541 23.7807 37.4262 23.304 37.7758C22.8273 38.1253 22.4876 38.6303 22.3434 39.2035C22.2932 39.4266 22.1566 39.6207 21.9635 39.7433C21.7704 39.8658 21.5366 39.9068 21.3134 39.8572C21.0901 39.8077 20.8956 39.6716 20.7725 39.4789C20.6494 39.2861 20.6077 39.0524 20.6567 38.829C20.8848 37.8715 21.4378 37.0226 22.2214 36.4269C23.005 35.8311 23.9709 35.5254 24.9546 35.5617C25.9383 35.5254 26.9042 35.8311 27.6878 36.4269C28.4714 37.0226 29.0244 37.8715 29.2525 38.829C29.3019 39.0527 29.2606 39.2868 29.1376 39.4801C29.0146 39.6733 28.8199 39.8098 28.5964 39.8597C28.5346 39.873 28.4715 39.8798 28.4083 39.8799V39.8799Z" fill="#42A4EB"/>
<path d="M40.4992 39.8799C40.3028 39.8796 40.1124 39.8124 39.9592 39.6895C39.8061 39.5666 39.6994 39.3952 39.6566 39.2035C39.5125 38.6303 39.1727 38.1253 38.696 37.7758C38.2193 37.4262 37.6355 37.2541 37.0455 37.289C36.4554 37.2541 35.8716 37.4262 35.3949 37.7758C34.9182 38.1253 34.5785 38.6303 34.4343 39.2035C34.3841 39.4266 34.2475 39.6207 34.0544 39.7433C33.8613 39.8658 33.6275 39.9068 33.4042 39.8572C33.181 39.8077 32.9865 39.6716 32.8634 39.4789C32.7403 39.2861 32.6986 39.0524 32.7475 38.829C32.9757 37.8715 33.5286 37.0226 34.3123 36.4269C35.0959 35.8311 36.0618 35.5254 37.0455 35.5617C38.0292 35.5254 38.995 35.8311 39.7787 36.4269C40.5623 37.0226 41.1153 37.8715 41.3434 38.829C41.3928 39.0527 41.3515 39.2868 41.2285 39.4801C41.1055 39.6733 40.9108 39.8098 40.6873 39.8597C40.6254 39.873 40.5624 39.8798 40.4992 39.8799V39.8799Z" fill="#42A4EB"/>
<path d="M31 18.8889C19 18.8889 16.035 27.3889 16.035 27.3889H16.379C17.699 27.3889 18.933 26.8562 19.88 25.9892C22.76 23.3514 26.68 21.7222 31 21.7222C35.32 21.7222 39.24 23.3514 42.12 25.9892C43.067 26.8562 44.302 27.3889 45.621 27.3889H45.965C45.965 27.3889 43 18.8889 31 18.8889Z" fill="url(#paint3_linear_300_5987)"/>
<path d="M15 40.6111V34C15 25.6681 22.178 18.8889 31 18.8889C39.822 18.8889 47 25.6681 47 34V40.6111H49C49 37.0893 49 35.1494 49 34C49 24.6113 40.941 17 31 17C21.059 17 13 24.6113 13 34C13 35.1494 13 37.0893 13 40.6111H15Z" fill="#727D86"/>
<path d="M11.5211 33.0164L10.4457 34.032C10.1605 34.3014 10 34.667 10 35.0477V40.3223C10 40.703 10.1605 41.0686 10.4457 41.338L11.5211 42.3544V33.0164Z" fill="#5C6369"/>
<path d="M11.5211 42.3544H15.3239C16.1643 42.3544 16.8451 41.7115 16.8451 40.9177V34.453C16.8451 33.6592 16.1643 33.0164 15.3239 33.0164H11.5211V42.3544Z" fill="#727D86"/>
<path d="M11.5211 33.0164H13.0422V42.3544H11.5211V33.0164Z" fill="url(#paint4_linear_300_5987)"/>
<path d="M51.1312 33.0164L52.1677 33.9953C52.4426 34.2549 52.5973 34.6073 52.5973 34.9742V40.0578C52.5973 40.4247 52.4426 40.7771 52.1677 41.0367L51.1312 42.0164V33.0164Z" fill="#5C6369"/>
<path d="M51.1312 42.0164H47.4661C46.6561 42.0164 46 41.3967 46 40.6317V34.401C46 33.636 46.6561 33.0164 47.4661 33.0164H51.1312V42.0164Z" fill="#727D86"/>
<path d="M51.1312 33.0164H49.6652V42.0164H51.1312V33.0164Z" fill="url(#paint5_linear_300_5987)"/>
<path d="M46.2857 50.2703H32.7143V48.5613H46.2857C46.7851 48.5613 47.1905 48.1785 47.1905 47.7068V40.0164H49V47.7068C49 49.1202 47.7822 50.2703 46.2857 50.2703Z" fill="#727D86"/>
<path d="M35.4286 49.4158C35.4286 50.8317 34.2135 51.9793 32.7143 51.9793C31.2151 51.9793 30 50.8317 30 49.4158C30 47.9999 31.2151 46.8523 32.7143 46.8523C34.2135 46.8523 35.4286 47.9999 35.4286 49.4158Z" fill="url(#paint6_linear_300_5987)"/>
<path d="M58.0705 10H38.109C37.4963 10 37 10.4963 37 11.109V25.5256C37 26.1383 37.4963 26.6346 38.109 26.6346H42.5449V31.0694C42.5449 31.5634 43.142 31.8107 43.4914 31.4614L48.3182 26.6346H58.0705C58.6832 26.6346 59.1795 26.1383 59.1795 25.5256V11.109C59.1795 10.4963 58.6832 10 58.0705 10Z" fill="url(#paint7_linear_300_5987)"/>
<path d="M46.652 20.4028C46.6032 20.2758 46.4984 19.8982 46.4984 19.525C46.4984 17.4002 48.6858 17.3187 48.6858 15.7428C48.6858 14.7509 47.7055 14.6893 47.5297 14.6893C46.4163 14.6893 45.5469 15.3259 45.1815 15.6475V13.4456C45.5574 13.221 46.4163 12.7725 47.7859 12.7725C50.9575 12.7725 50.9975 14.9527 50.9975 15.4207C50.9975 17.9375 48.4003 18.1238 48.4003 19.7368C48.4003 20.0734 48.5222 20.3196 48.576 20.4028H46.652ZM47.7193 23.8622C47.1155 23.8622 46.4773 23.4857 46.4773 22.7538C46.4773 22.0219 47.1405 21.6587 47.7193 21.6587C48.2982 21.6587 48.9414 21.983 48.9414 22.7538C48.9414 23.5245 48.3232 23.8622 47.7193 23.8622Z" fill="white"/>
<defs>
<radialGradient id="paint0_radial_300_5987" cx="0" cy="0" r="1" gradientUnits="userSpaceOnUse" gradientTransform="translate(30.873 38.1061) scale(16.3244 16.4746)">
<stop offset="0.934" stop-opacity="0.2"/>
<stop offset="1" stop-opacity="0"/>
</radialGradient>
<linearGradient id="paint1_linear_300_5987" x1="24.7637" y1="19.6415" x2="33.4951" y2="43.6307" gradientUnits="userSpaceOnUse">
<stop stop-color="#FFD869"/>
<stop offset="1" stop-color="#FEC52B"/>
</linearGradient>
<linearGradient id="paint2_linear_300_5987" x1="15.4546" y1="39.0164" x2="46.5455" y2="39.0164" gradientUnits="userSpaceOnUse">
<stop stop-color="#FFD869"/>
<stop offset="0.765625" stop-color="#F2C032"/>
<stop offset="1" stop-color="#FFD869"/>
</linearGradient>
<linearGradient id="paint3_linear_300_5987" x1="16.035" y1="23.1389" x2="45.965" y2="23.1389" gradientUnits="userSpaceOnUse">
<stop stop-color="#3079D6"/>
<stop offset="1" stop-color="#297CD2"/>
</linearGradient>
<linearGradient id="paint4_linear_300_5987" x1="15.1338" y1="34.9917" x2="9.75526" y2="40.6866" gradientUnits="userSpaceOnUse">
<stop stop-color="#33BEF0"/>
<stop offset="1" stop-color="#0A85D9"/>
</linearGradient>
<linearGradient id="paint5_linear_300_5987" x1="47.6493" y1="34.9202" x2="52.8332" y2="40.409" gradientUnits="userSpaceOnUse">
<stop stop-color="#33BEF0"/>
<stop offset="1" stop-color="#0A85D9"/>
</linearGradient>
<linearGradient id="paint6_linear_300_5987" x1="30.7953" y1="47.6034" x2="34.4141" y2="51.4351" gradientUnits="userSpaceOnUse">
<stop stop-color="#33BEF0"/>
<stop offset="1" stop-color="#0A85D9"/>
</linearGradient>
<linearGradient id="paint7_linear_300_5987" x1="41.8163" y1="8.11031" x2="54.5107" y2="28.7644" gradientUnits="userSpaceOnUse">
<stop stop-color="#33BEF0"/>
<stop offset="1" stop-color="#0A85D9"/>
</linearGradient>
</defs>
</svg>
