<svg width="20" height="20" viewBox="0 0 20 20" fill="none" xmlns="http://www.w3.org/2000/svg">
<g clip-path="url(#clip0_3_4247)">
<path d="M13.75 3.75C12.5146 3.75 7.48542 3.75 6.25 3.75C2.79833 3.75 0 6.54833 0 10C0 13.4517 2.79833 16.25 6.25 16.25C7.48542 16.25 12.5146 16.25 13.75 16.25C17.2017 16.25 20 13.4517 20 10C20 6.54833 17.2017 3.75 13.75 3.75Z" fill="#0078D4"/>
<path d="M13.75 15.8333C16.9717 15.8333 19.5833 13.2216 19.5833 9.99996C19.5833 6.7783 16.9717 4.16663 13.75 4.16663C10.5283 4.16663 7.91667 6.7783 7.91667 9.99996C7.91667 13.2216 10.5283 15.8333 13.75 15.8333Z" fill="url(#paint0_radial_3_4247)"/>
<path d="M13.75 15C16.5114 15 18.75 12.7614 18.75 10C18.75 7.23858 16.5114 5 13.75 5C10.9886 5 8.75 7.23858 8.75 10C8.75 12.7614 10.9886 15 13.75 15Z" fill="#F9F9F9"/>
</g>
<defs>
<radialGradient id="paint0_radial_3_4247" cx="0" cy="0" r="1" gradientUnits="userSpaceOnUse" gradientTransform="translate(13.75 9.99996) scale(5.83333)">
<stop/>
<stop offset="1" stop-opacity="0"/>
</radialGradient>
<clipPath id="clip0_3_4247">
<rect width="20" height="20" fill="white"/>
</clipPath>
</defs>
</svg>
