<svg xmlns="http://www.w3.org/2000/svg"  viewBox="0 0 48 48" width="20px" height="20px"><path fill="#50e6ff" d="M4,38V15h40v23c0,1.1-0.9,2-2,2H6C4.9,40,4,39.1,4,38z"/><linearGradient id="CIHjCzWy~3tbeKAsZYxRia" x1="4.614" x2="42.936" y1="-579.741" y2="-587.533" gradientTransform="matrix(1 0 0 -1 0 -572)" gradientUnits="userSpaceOnUse"><stop offset="0" stop-color="#0077d2"/><stop offset="1" stop-color="#0b59a2"/></linearGradient><path fill="url(#CIHjCzWy~3tbeKAsZYxRia)" d="M44,10v5H4v-5c0-1.1,0.9-2,2-2h36C43.1,8,44,8.9,44,10z"/><linearGradient id="CIHjCzWy~3tbeKAsZYxRib" x1="16" x2="42" y1="-583.5" y2="-583.5" gradientTransform="matrix(1 0 0 -1 0 -572)" gradientUnits="userSpaceOnUse"><stop offset="0" stop-color="#7dd8f3"/><stop offset="1" stop-color="#45b0d0"/></linearGradient><path fill="url(#CIHjCzWy~3tbeKAsZYxRib)" d="M16.5,13h25c0.276,0,0.5-0.224,0.5-0.5v-2c0-0.276-0.224-0.5-0.5-0.5h-25 c-0.276,0-0.5,0.224-0.5,0.5v2C16,12.776,16.224,13,16.5,13z"/><linearGradient id="CIHjCzWy~3tbeKAsZYxRic" x1="6.751" x2="8.032" y1="-582.416" y2="-584.269" gradientTransform="matrix(1 0 0 -1 0 -572)" gradientUnits="userSpaceOnUse"><stop offset="0" stop-color="#75daff"/><stop offset="1" stop-color="#49bef1"/></linearGradient><circle cx="7.5" cy="11.5" r="1.5" fill="url(#CIHjCzWy~3tbeKAsZYxRic)"/><linearGradient id="CIHjCzWy~3tbeKAsZYxRid" x1="11.751" x2="13.032" y1="-582.416" y2="-584.269" gradientTransform="matrix(1 0 0 -1 0 -572)" gradientUnits="userSpaceOnUse"><stop offset="0" stop-color="#75daff"/><stop offset="1" stop-color="#49bef1"/></linearGradient><circle cx="12.5" cy="11.5" r="1.5" fill="url(#CIHjCzWy~3tbeKAsZYxRid)"/><g><path d="M31,8v18c0,0.197,0.059,0.391,0.168,0.555l2,3 C33.354,29.833,33.666,30,34,30s0.646-0.167,0.832-0.445l2-3C36.941,26.391,37,26.197,37,26V8H31z" opacity=".05"/><path d="M31.5,8v18c0,0.099,0.029,0.195,0.084,0.277l2,3 c0.186,0.279,0.646,0.279,0.832,0l2-3C36.471,26.195,36.5,26.099,36.5,26V8H31.5z" opacity=".07"/><path fill="#c94f60" d="M35,4h-2c-0.552,0-1,0.448-1,1v2h4V5C36,4.448,35.552,4,35,4z"/><polygon fill="#f0f0f0" points="36,26 34,29 32,26 33.96,23.3"/><path fill="#edbe00" d="M36,8v18h-4V8H36z"/><linearGradient id="CIHjCzWy~3tbeKAsZYxRie" x1="37.037" x2="37.037" y1="250.385" y2="245.467" gradientTransform="scale(1 -1) rotate(45 344.033 116.625)" gradientUnits="userSpaceOnUse"><stop offset="0" stop-color="#dedede"/><stop offset="1" stop-color="#d6d6d6"/></linearGradient><path fill="url(#CIHjCzWy~3tbeKAsZYxRie)" d="M32,9V6h4v3H32z"/><polygon fill="#787878" points="33,27.5 35,27.5 34,29"/></g></svg>