<svg width="20" height="20" viewBox="0 0 20 20" fill="none" xmlns="http://www.w3.org/2000/svg">
<g clip-path="url(#clip0_8_5022)">
<path d="M18.6932 4H1.30682C0.585 4 0 4.5148 0 5.15V14.85C0 15.4852 0.585 16 1.30682 16H18.6932C19.415 16 20 15.4852 20 14.85V5.15C20 4.5148 19.415 4 18.6932 4Z" fill="url(#paint0_linear_8_5022)"/>
<path d="M15.0888 6.25V13.75H13.4771V8.07125C13.3883 8.14958 13.2838 8.22375 13.1625 8.29375C13.0413 8.36375 12.9125 8.42667 12.7763 8.48292C12.6396 8.53917 12.4983 8.58708 12.3517 8.62625C12.205 8.66542 12.06 8.69375 11.9167 8.71083V7.35C12.3363 7.22708 12.7317 7.07042 13.1038 6.87917C13.4754 6.68833 13.8113 6.47833 14.1117 6.25H15.0888Z" fill="#1D59B3"/>
<path d="M4 14C4.55228 14 5 13.5523 5 13C5 12.4477 4.55228 12 4 12C3.44772 12 3 12.4477 3 13C3 13.5523 3.44772 14 4 14Z" fill="#1D59B3"/>
<path d="M8 14C7.37607 13.9975 6.83919 13.8378 6.38938 13.521C5.94198 13.2041 5.59737 12.7452 5.35553 12.1443C5.11612 11.5433 4.99762 10.8204 5.00004 9.97548C5.00004 9.13311 5.11974 8.41521 5.35916 7.82178C5.601 7.22835 5.94561 6.77699 6.39301 6.4677C6.84282 6.1559 7.37848 6 8 6C8.62152 6 9.15597 6.1559 9.60337 6.4677C10.0532 6.77951 10.399 7.23212 10.6408 7.82555C10.8827 8.41647 11.0024 9.13311 11 9.97548C11 10.8229 10.879 11.5471 10.6372 12.148C10.3978 12.749 10.0544 13.2079 9.60699 13.5247C9.1596 13.8416 8.62393 14 8 14ZM8 12.6459C8.42563 12.6459 8.76541 12.4234 9.01934 11.9783C9.27326 11.5332 9.39902 10.8656 9.3966 9.97548C9.3966 9.3896 9.33856 8.90178 9.22248 8.51202C9.10881 8.12227 8.94678 7.82933 8.73639 7.63319C8.52841 7.43706 8.28295 7.33899 8 7.33899C7.57679 7.33899 7.23822 7.55901 6.98429 7.99906C6.73037 8.4391 6.60219 9.09791 6.59978 9.97548C6.59978 10.5689 6.65661 11.0643 6.77027 11.4616C6.88635 11.8564 7.04959 12.1531 7.25998 12.3517C7.47038 12.5478 7.71705 12.6459 8 12.6459Z" fill="#1D59B3"/>
</g>
<defs>
<linearGradient id="paint0_linear_8_5022" x1="8.19545" y1="4.3324" x2="11.0767" y2="16.0179" gradientUnits="userSpaceOnUse">
<stop stop-color="#75DAFF"/>
<stop offset="1" stop-color="#1EA2E4"/>
</linearGradient>
<clipPath id="clip0_8_5022">
<rect width="20" height="12" fill="white" transform="translate(0 4)"/>
</clipPath>
</defs>
</svg>
