<svg width="20" height="17" viewBox="0 0 20 17" fill="none" xmlns="http://www.w3.org/2000/svg">
<path d="M18.6932 0H1.30682C0.585 0 0 0.718865 0 1.60586V15.1509C0 16.0379 0.585 16.7568 1.30682 16.7568H18.6932C19.415 16.7568 20 16.0379 20 15.1509V1.60586C20 0.718865 19.415 0 18.6932 0Z" fill="url(#paint0_linear_16_5193)"/>
<path d="M17.5676 10.8108H4.05405C3.9054 10.8108 3.78378 10.6892 3.78378 10.5405V10C3.78378 9.85136 3.9054 9.72974 4.05405 9.72974H17.5676C17.7162 9.72974 17.8378 9.85136 17.8378 10V10.5405C17.8378 10.6892 17.7162 10.8108 17.5676 10.8108Z" fill="#007AD9"/>
<path d="M15.4054 7.56759H4.05405C3.9054 7.56759 3.78378 7.44597 3.78378 7.29732V6.75678C3.78378 6.60813 3.9054 6.48651 4.05405 6.48651H15.4054C15.5541 6.48651 15.6757 6.60813 15.6757 6.75678V7.29732C15.6757 7.44597 15.5541 7.56759 15.4054 7.56759Z" fill="#007AD9"/>
<path d="M17.5676 4.32431H4.05405C3.9054 4.32431 3.78378 4.20268 3.78378 4.05404V3.5135C3.78378 3.36485 3.9054 3.24323 4.05405 3.24323H17.5676C17.7162 3.24323 17.8378 3.36485 17.8378 3.5135V4.05404C17.8378 4.20268 17.7162 4.32431 17.5676 4.32431Z" fill="#007AD9"/>
<path d="M15.4054 14.054H4.05405C3.9054 14.054 3.78378 13.9324 3.78378 13.7838V13.2432C3.78378 13.0946 3.9054 12.973 4.05405 12.973H15.4054C15.5541 12.973 15.6757 13.0946 15.6757 13.2432V13.7838C15.6757 13.9324 15.5541 14.054 15.4054 14.054Z" fill="#007AD9"/>
<defs>
<linearGradient id="paint0_linear_16_5193" x1="8.19545" y1="0.464162" x2="13.5236" y2="15.9393" gradientUnits="userSpaceOnUse">
<stop stop-color="#75DAFF"/>
<stop offset="1" stop-color="#1EA2E4"/>
</linearGradient>
</defs>
</svg>
