<svg width="18" height="14" viewBox="0 0 18 14" fill="none" xmlns="http://www.w3.org/2000/svg">
<path d="M0 4.66964V13.3304C0 13.7004 0.383727 14 0.857045 14H17.143C17.6163 14 18 13.7004 18 13.3304V4.66964C18 4.29964 17.6163 4 17.143 4H0.857045C0.383727 4 0 4.29964 0 4.66964Z" fill="#50E6FF"/>
<path d="M14 4H9V5H14V4Z" fill="#0D62AB"/>
<path d="M8 4H3V5H8V4Z" fill="#0D62AB"/>
<path d="M9 4H8V14H9V4Z" fill="#35C1F1"/>
<path d="M4 4H3V14H4V4Z" fill="#35C1F1"/>
<path d="M14 4H13V14H14V4Z" fill="#35C1F1"/>
<path d="M13.7054 0.670044H8.87792C8.61583 0.670044 8.485 0.986711 8.67 1.17171L10.9279 3.42963C11.1288 3.63046 11.4546 3.63046 11.6554 3.42963L13.9133 1.17171C14.0983 0.986711 13.9675 0.670044 13.7054 0.670044Z" fill="url(#paint0_linear_5_4941)"/>
<path d="M18 4.75C18 4.33579 17.6642 4 17.25 4H14V5H18V4.75Z" fill="#0D62AB"/>
<path d="M0 4.75C0 4.33579 0.335786 4 0.75 4H3V5H0V4.75Z" fill="#0D62AB"/>
<defs>
<linearGradient id="paint0_linear_5_4941" x1="10.4154" y1="-0.612039" x2="12.5533" y2="3.23296" gradientUnits="userSpaceOnUse">
<stop stop-color="#008EFD"/>
<stop offset="1" stop-color="#5EB8FF"/>
</linearGradient>
</defs>
</svg>
