<svg width="20" height="17" viewBox="0 0 20 17" fill="none" xmlns="http://www.w3.org/2000/svg">
<path d="M16.5 2.16797H1.5C1.03906 2.16797 0.667969 1.79297 0.667969 1.33203C0.667969 0.871094 1.03906 0.5 1.5 0.5H16.5C16.9609 0.5 17.332 0.871094 17.332 1.33203C17.332 1.79297 16.9609 2.16797 16.5 2.16797Z" fill="url(#paint0_linear_16_5159)"/>
<path d="M10.668 9.25H7.33203L1.91797 2.16797H16.082L10.668 9.25Z" fill="url(#paint1_linear_16_5159)"/>
<path d="M10.668 9.25H7.33203V15.918C7.33203 16.2266 7.66016 16.4258 7.9375 16.2891L10.207 15.1523C10.4883 15.0117 10.668 14.7227 10.668 14.4102V9.25Z" fill="url(#paint2_linear_16_5159)"/>
<path d="M20 13C20 15.208 18.208 17 16 17C13.792 17 12 15.208 12 13C12 10.792 13.792 9 16 9C18.208 9 20 10.792 20 13Z" fill="url(#paint3_linear_16_5159)"/>
<path d="M16.2 15H15.8C15.688 15 15.6 14.912 15.6 14.8V11.2C15.6 11.088 15.688 11 15.8 11H16.2C16.312 11 16.4 11.088 16.4 11.2V14.8C16.4 14.912 16.312 15 16.2 15Z" fill="white"/>
<path d="M14 13.2V12.8C14 12.688 14.088 12.6 14.2 12.6H17.8C17.912 12.6 18 12.688 18 12.8V13.2C18 13.312 17.912 13.4 17.8 13.4H14.2C14.088 13.4 14 13.312 14 13.2Z" fill="white"/>
<defs>
<linearGradient id="paint0_linear_16_5159" x1="0.666664" y1="1.33333" x2="17.3333" y2="1.33333" gradientUnits="userSpaceOnUse">
<stop stop-color="#42A3F2"/>
<stop offset="1" stop-color="#42A4EB"/>
</linearGradient>
<linearGradient id="paint1_linear_16_5159" x1="2.16374" y1="5.70832" x2="16.4254" y2="5.70832" gradientUnits="userSpaceOnUse">
<stop stop-color="#3079D6"/>
<stop offset="1" stop-color="#297CD2"/>
</linearGradient>
<linearGradient id="paint2_linear_16_5159" x1="7.33332" y1="12.7916" x2="10.6666" y2="12.7916" gradientUnits="userSpaceOnUse">
<stop stop-color="#1D59B3"/>
<stop offset="1" stop-color="#195BBC"/>
</linearGradient>
<linearGradient id="paint3_linear_16_5159" x1="13.1716" y1="10.1716" x2="18.8284" y2="15.8284" gradientUnits="userSpaceOnUse">
<stop stop-color="#21AD64"/>
<stop offset="1" stop-color="#088242"/>
</linearGradient>
</defs>
</svg>
