<svg width="20" height="20" viewBox="0 0 20 20" fill="none" xmlns="http://www.w3.org/2000/svg">
<path d="M16.25 6.66665V17.0833C16.25 17.5437 15.8771 17.9166 15.4167 17.9166H4.58333C4.12292 17.9166 3.75 17.5437 3.75 17.0833V2.91665C3.75 2.45623 4.12292 2.08331 4.58333 2.08331H11.6667L16.25 6.66665Z" fill="#50E6FF"/>
<path d="M11.6667 2.08331V5.83331C11.6667 6.29373 12.0396 6.66665 12.5 6.66665H16.25L11.6667 2.08331Z" fill="url(#paint0_linear_3_640)"/>
<path d="M5.88375 12.205L7.53458 13.8559C7.60166 13.9229 7.71083 13.9229 7.77791 13.8559L8.12666 13.5071C8.19375 13.44 8.19375 13.3309 8.12666 13.2638L6.47583 11.6129C6.40875 11.5459 6.29958 11.5459 6.2325 11.6129L5.88375 11.9617C5.81666 12.0288 5.81666 12.1379 5.88375 12.205Z" fill="#0078D4"/>
<path d="M6.47583 12.5537L8.12666 10.9029C8.19375 10.8358 8.19375 10.7266 8.12666 10.6596L7.77791 10.3108C7.71083 10.2437 7.60166 10.2437 7.53458 10.3108L5.88375 11.9616C5.81666 12.0287 5.81666 12.1379 5.88375 12.205L6.2325 12.5537C6.29958 12.6208 6.40875 12.6208 6.47583 12.5537Z" fill="#0078D4"/>
<path d="M14.1163 12.205L12.4654 13.8559C12.3983 13.9229 12.2892 13.9229 12.2221 13.8559L11.8733 13.5071C11.8063 13.44 11.8063 13.3309 11.8733 13.2638L13.5242 11.6129C13.5913 11.5459 13.7004 11.5459 13.7675 11.6129L14.1163 11.9617C14.1833 12.0288 14.1833 12.1379 14.1163 12.205Z" fill="#0078D4"/>
<path d="M13.5242 12.5537L11.8733 10.9029C11.8063 10.8358 11.8063 10.7266 11.8733 10.6596L12.2221 10.3108C12.2892 10.2437 12.3983 10.2437 12.4654 10.3108L14.1163 11.9616C14.1833 12.0287 14.1833 12.1379 14.1163 12.205L13.7675 12.5537C13.7004 12.6208 13.5913 12.6208 13.5242 12.5537Z" fill="#0078D4"/>
<path d="M11.085 8.35083H10.4583C10.3762 8.35083 10.3054 8.40833 10.2883 8.48875L8.7875 15.6592C8.77041 15.74 8.8325 15.8162 8.915 15.8162H9.54166C9.62375 15.8162 9.69458 15.7587 9.71166 15.6783L11.2125 8.50791C11.2296 8.42666 11.1675 8.35083 11.085 8.35083Z" fill="#0078D4"/>
<defs>
<linearGradient id="paint0_linear_3_640" x1="11.8871" y1="6.44665" x2="14" y2="4.33331" gradientUnits="userSpaceOnUse">
<stop stop-color="#3079D6"/>
<stop offset="1" stop-color="#297CD2"/>
</linearGradient>
</defs>
</svg>
