<svg width="20" height="20" viewBox="0 0 20 20" fill="none" xmlns="http://www.w3.org/2000/svg">
<path d="M1.66666 15.8333V6.25H18.3333V15.8333C18.3333 16.2917 17.9583 16.6667 17.5 16.6667H2.5C2.04166 16.6667 1.66666 16.2917 1.66666 15.8333Z" fill="url(#paint0_linear_11_5106)"/>
<path d="M18.3333 4.16671V6.25004H1.66666V4.16671C1.66666 3.70837 2.04166 3.33337 2.5 3.33337H17.5C17.9583 3.33337 18.3333 3.70837 18.3333 4.16671Z" fill="url(#paint1_linear_11_5106)"/>
<path d="M6.875 5.41663H17.2917C17.4067 5.41663 17.5 5.32329 17.5 5.20829V4.37496C17.5 4.25996 17.4067 4.16663 17.2917 4.16663H6.875C6.76 4.16663 6.66666 4.25996 6.66666 4.37496V5.20829C6.66666 5.32329 6.76 5.41663 6.875 5.41663Z" fill="url(#paint2_linear_11_5106)"/>
<path d="M3.125 5.41663C3.47018 5.41663 3.75 5.1368 3.75 4.79163C3.75 4.44645 3.47018 4.16663 3.125 4.16663C2.77982 4.16663 2.5 4.44645 2.5 4.79163C2.5 5.1368 2.77982 5.41663 3.125 5.41663Z" fill="url(#paint3_linear_11_5106)"/>
<path d="M5.20834 5.41663C5.55351 5.41663 5.83334 5.1368 5.83334 4.79163C5.83334 4.44645 5.55351 4.16663 5.20834 4.16663C4.86316 4.16663 4.58334 4.44645 4.58334 4.79163C4.58334 5.1368 4.86316 5.41663 5.20834 5.41663Z" fill="url(#paint4_linear_11_5106)"/>
<path d="M5.39917 12.0213C5.39917 10.6013 3.30292 10.8788 3.30292 10.0396C3.30292 9.60171 3.79542 9.57837 3.94917 9.57837C4.31917 9.57837 4.67625 9.67796 4.94875 9.80546C5.03458 9.84629 5.13333 9.78671 5.13333 9.69171V9.27879C5.13333 9.14046 5.08125 9.05837 4.99792 9.02546C4.81125 8.95296 4.54333 8.89962 4.14667 8.88671V8.43212C4.14708 8.37754 4.10292 8.33337 4.04833 8.33337H3.85083C3.79625 8.33337 3.75208 8.37754 3.75208 8.43212V8.89421C3.13708 8.95421 2.5 9.30129 2.5 10.1084C2.5 11.5805 4.59625 11.288 4.59625 12.0634C4.59625 12.3071 4.44042 12.5171 3.95 12.5171C3.45667 12.5171 3.00333 12.345 2.75292 12.2163C2.66833 12.1734 2.56917 12.2355 2.56917 12.3305V12.8009C2.56917 12.8909 2.62375 12.9713 2.70667 13.0067C3.00375 13.133 3.4025 13.2284 3.75292 13.2563V13.7584C3.75292 13.813 3.79708 13.8571 3.85167 13.8571H4.04875C4.10333 13.8571 4.1475 13.813 4.1475 13.7584V13.2567C5.06708 13.1809 5.39917 12.565 5.39917 12.0213Z" fill="#184F85"/>
<path opacity="0.05" d="M7.09167 10.8333C6.6275 10.8333 6.25 10.4558 6.25 9.99208V9.59125C6.25 9.1275 6.6275 8.75 7.09167 8.75H17.075C17.5387 8.75 17.9167 9.1275 17.9167 9.59125V9.99208C17.9167 10.4558 17.5392 10.8333 17.075 10.8333H7.09167Z" fill="black"/>
<path opacity="0.07" d="M7.09167 10.625C6.7425 10.625 6.45834 10.3409 6.45834 9.99212V9.59129C6.45834 9.24254 6.7425 8.95837 7.09167 8.95837H17.075C17.4242 8.95837 17.7083 9.24254 17.7083 9.59129V9.99212C17.7083 10.3409 17.4242 10.625 17.075 10.625H7.09167Z" fill="black"/>
<path d="M17.0754 10.4166H7.09125C6.85666 10.4166 6.66666 10.2266 6.66666 9.99204V9.59121C6.66666 9.35663 6.85666 9.16663 7.09125 9.16663H17.0754C17.31 9.16663 17.5 9.35663 17.5 9.59121V9.99204C17.5 10.2266 17.31 10.4166 17.0754 10.4166Z" fill="white"/>
<path opacity="0.05" d="M7.09167 13.3333C6.6275 13.3333 6.25 12.9558 6.25 12.4921V12.0912C6.25 11.6275 6.6275 11.25 7.09167 11.25H17.075C17.5387 11.25 17.9167 11.6275 17.9167 12.0912V12.4921C17.9167 12.9558 17.5392 13.3333 17.075 13.3333H7.09167Z" fill="black"/>
<path opacity="0.07" d="M7.09167 13.125C6.7425 13.125 6.45834 12.8409 6.45834 12.4921V12.0913C6.45834 11.7425 6.7425 11.4584 7.09167 11.4584H17.075C17.4242 11.4584 17.7083 11.7425 17.7083 12.0913V12.4921C17.7083 12.8409 17.4242 13.125 17.075 13.125H7.09167Z" fill="black"/>
<path d="M17.0754 12.9166H7.09125C6.85666 12.9166 6.66666 12.7266 6.66666 12.492V12.0912C6.66666 11.8566 6.85666 11.6666 7.09125 11.6666H17.0754C17.31 11.6666 17.5 11.8566 17.5 12.0912V12.492C17.5 12.7266 17.31 12.9166 17.0754 12.9166Z" fill="white"/>
<defs>
<linearGradient id="paint0_linear_11_5106" x1="5.61666" y1="4.83042" x2="13.1808" y2="15.7721" gradientUnits="userSpaceOnUse">
<stop stop-color="#7DD8F3"/>
<stop offset="1" stop-color="#45B0D0"/>
</linearGradient>
<linearGradient id="paint1_linear_11_5106" x1="1.9225" y1="3.22546" x2="17.89" y2="6.47212" gradientUnits="userSpaceOnUse">
<stop stop-color="#0077D2"/>
<stop offset="1" stop-color="#0B59A2"/>
</linearGradient>
<linearGradient id="paint2_linear_11_5106" x1="6.66666" y1="4.79163" x2="17.5" y2="4.79163" gradientUnits="userSpaceOnUse">
<stop stop-color="#7DD8F3"/>
<stop offset="1" stop-color="#45B0D0"/>
</linearGradient>
<linearGradient id="paint3_linear_11_5106" x1="2.81292" y1="4.33996" x2="3.34667" y2="5.11204" gradientUnits="userSpaceOnUse">
<stop stop-color="#75DAFF"/>
<stop offset="1" stop-color="#49BEF1"/>
</linearGradient>
<linearGradient id="paint4_linear_11_5106" x1="4.89625" y1="4.33996" x2="5.43" y2="5.11204" gradientUnits="userSpaceOnUse">
<stop stop-color="#75DAFF"/>
<stop offset="1" stop-color="#49BEF1"/>
</linearGradient>
</defs>
</svg>
