<svg xmlns="http://www.w3.org/2000/svg"  viewBox="0 0 48 48" width="20px" height="20px"><path fill="#50e6ff" d="M40,42H8c-1.105,0-2-0.895-2-2V8c0-1.105,0.895-2,2-2h32c1.105,0,2,0.895,2,2v32	C42,41.105,41.105,42,40,42z"/><path fill="#35c1f1" d="M13,18h-2c-0.552,0-1-0.448-1-1v-2c0-0.552,0.448-1,1-1h2c0.552,0,1,0.448,1,1v2	C14,17.552,13.552,18,13,18z"/><path fill="#057093" d="M37,18H18c-0.552,0-1-0.448-1-1v-2c0-0.552,0.448-1,1-1h19c0.552,0,1,0.448,1,1v2	C38,17.552,37.552,18,37,18z"/><path fill="#35c1f1" d="M13,26h-2c-0.552,0-1-0.448-1-1v-2c0-0.552,0.448-1,1-1h2c0.552,0,1,0.448,1,1v2	C14,25.552,13.552,26,13,26z"/><path fill="#057093" d="M37,26H18c-0.552,0-1-0.448-1-1v-2c0-0.552,0.448-1,1-1h19c0.552,0,1,0.448,1,1v2	C38,25.552,37.552,26,37,26z"/><path fill="#35c1f1" d="M13,34h-2c-0.552,0-1-0.448-1-1v-2c0-0.552,0.448-1,1-1h2c0.552,0,1,0.448,1,1v2	C14,33.552,13.552,34,13,34z"/><path fill="#057093" d="M37,34H18c-0.552,0-1-0.448-1-1v-2c0-0.552,0.448-1,1-1h19c0.552,0,1,0.448,1,1v2	C38,33.552,37.552,34,37,34z"/></svg>