<svg width="21" height="7" viewBox="0 0 21 7" fill="none" xmlns="http://www.w3.org/2000/svg">
<path d="M10.3384 1.00054L11.1255 2.76077L13.0432 2.96113C13.172 2.97544 13.2149 3.13286 13.129 3.20441L11.6979 4.49239L12.0986 6.38142C12.1273 6.49591 11.9985 6.59609 11.884 6.53884L10.2096 5.5657L8.53524 6.52453C8.42075 6.58177 8.29195 6.49591 8.32057 6.36711L8.72128 4.47808L7.29019 3.1901C7.20433 3.11855 7.26157 2.97544 7.37606 2.96113L9.29371 2.76077L10.0808 1.00054C10.1237 0.886051 10.2955 0.886051 10.3384 1.00054Z" fill="url(#paint0_linear_16_5194)"/>
<path d="M3.46919 1.00054L4.25628 2.76077L6.17394 2.96113C6.30274 2.97544 6.34567 3.13286 6.25981 3.20441L4.82872 4.49239L5.22942 6.38142C5.25805 6.49591 5.12925 6.59609 5.01476 6.53884L3.34039 5.5657L1.66602 6.52453C1.55153 6.58177 1.42273 6.49591 1.45136 6.36711L1.85206 4.47808L0.420974 3.1901C0.335108 3.11855 0.392352 2.97544 0.506839 2.96113L2.42449 2.76077L3.21159 1.00054C3.25452 0.886051 3.42625 0.886051 3.46919 1.00054Z" fill="url(#paint1_linear_16_5194)"/>
<path d="M17.5529 0.998491L18.3369 2.75701L20.2514 2.95922C20.3746 2.97225 20.4241 3.12494 20.3321 3.2078L18.902 4.4965L19.3014 6.37995C19.3272 6.50116 19.1973 6.59547 19.0899 6.53365L17.4223 5.57153L15.7546 6.5335C15.6473 6.59533 15.5175 6.50102 15.5431 6.37981L15.9425 4.49635L14.5125 3.20766C14.4204 3.1248 14.4701 2.9721 14.5932 2.95908L16.5077 2.75687L17.2916 0.998348C17.342 0.885292 17.5026 0.885292 17.5529 0.998491Z" fill="url(#paint2_linear_16_5194)"/>
<path d="M20.2514 2.95917L18.3369 2.75696L17.5529 0.998438C17.5278 0.941767 17.4749 0.913574 17.4223 0.913574V5.57147L19.0899 6.53359C19.1973 6.59542 19.3272 6.50111 19.3014 6.3799L18.902 4.49644L20.3321 3.20775C20.4241 3.12489 20.3746 2.97219 20.2514 2.95917Z" fill="url(#paint3_radial_16_5194)"/>
<defs>
<linearGradient id="paint0_linear_16_5194" x1="8.06427" y1="1.16654" x2="12.2263" y2="6.73433" gradientUnits="userSpaceOnUse">
<stop stop-color="#FFD869"/>
<stop offset="1" stop-color="#FEC52B"/>
</linearGradient>
<linearGradient id="paint1_linear_16_5194" x1="1.19505" y1="1.16654" x2="5.35708" y2="6.73433" gradientUnits="userSpaceOnUse">
<stop stop-color="#FFD869"/>
<stop offset="1" stop-color="#FEC52B"/>
</linearGradient>
<linearGradient id="paint2_linear_16_5194" x1="15.2769" y1="1.1665" x2="19.439" y2="6.73429" gradientUnits="userSpaceOnUse">
<stop stop-color="#FFDA1C"/>
<stop offset="1" stop-color="#FEB705"/>
</linearGradient>
<radialGradient id="paint3_radial_16_5194" cx="0" cy="0" r="1" gradientUnits="userSpaceOnUse" gradientTransform="translate(16.9035 3.20961) scale(3.30652)">
<stop stop-color="#FAFAFB"/>
<stop offset="0.293" stop-color="#F6F7F8"/>
<stop offset="0.566" stop-color="#EBECEE"/>
<stop offset="0.832" stop-color="#D8DCDF"/>
<stop offset="1" stop-color="#C8CDD1"/>
</radialGradient>
</defs>
</svg>
