<svg width="18" height="12" viewBox="0 0 18 12" fill="none" xmlns="http://www.w3.org/2000/svg">
<path d="M0 9.33333V1H16V9.33333C16 9.7 15.64 10 15.2 10H0.8C0.36 10 0 9.7 0 9.33333Z" fill="url(#paint0_linear_8_5078)"/>
<path d="M14.0417 3.74996H4.45833C4.34333 3.74996 4.25 3.65663 4.25 3.54163V3.12496C4.25 3.00996 4.34333 2.91663 4.45833 2.91663H14.0417C14.1567 2.91663 14.25 3.00996 14.25 3.12496V3.54163C14.25 3.65663 14.1567 3.74996 14.0417 3.74996Z" fill="#0F94BF"/>
<path d="M14.0417 5.41671H4.45833C4.34333 5.41671 4.25 5.32337 4.25 5.20837V4.79171C4.25 4.67671 4.34333 4.58337 4.45833 4.58337H14.0417C14.1567 4.58337 14.25 4.67671 14.25 4.79171V5.20837C14.25 5.32337 14.1567 5.41671 14.0417 5.41671Z" fill="#0F94BF"/>
<path d="M14.0417 7.08333H4.45833C4.34333 7.08333 4.25 6.99 4.25 6.875V6.45833C4.25 6.34333 4.34333 6.25 4.45833 6.25H14.0417C14.1567 6.25 14.25 6.34333 14.25 6.45833V6.875C14.25 6.99 14.1567 7.08333 14.0417 7.08333Z" fill="#0F94BF"/>
<path d="M12.5833 8.74996H4.45833C4.34333 8.74996 4.25 8.65663 4.25 8.54163V8.12496C4.25 8.00996 4.34333 7.91663 4.45833 7.91663H12.5833V8.74996Z" fill="#0F94BF"/>
<path d="M16 0.8V2H0V0.8C0 0.36 0.36 0 0.8 0H15.2C15.64 0 16 0.36 16 0.8Z" fill="url(#paint1_linear_8_5078)"/>
<path d="M1.95833 3.74996H2.375C2.49 3.74996 2.58333 3.65663 2.58333 3.54163V3.12496C2.58333 3.00996 2.49 2.91663 2.375 2.91663H1.95833C1.84333 2.91663 1.75 3.00996 1.75 3.12496V3.54163C1.75 3.65663 1.84333 3.74996 1.95833 3.74996Z" fill="#0F94BF"/>
<path d="M1.95833 5.41671H2.375C2.49 5.41671 2.58333 5.32337 2.58333 5.20837V4.79171C2.58333 4.67671 2.49 4.58337 2.375 4.58337H1.95833C1.84333 4.58337 1.75 4.67671 1.75 4.79171V5.20837C1.75 5.32337 1.84333 5.41671 1.95833 5.41671Z" fill="#0F94BF"/>
<path d="M1.95833 7.08333H2.375C2.49 7.08333 2.58333 6.99 2.58333 6.875V6.45833C2.58333 6.34333 2.49 6.25 2.375 6.25H1.95833C1.84333 6.25 1.75 6.34333 1.75 6.45833V6.875C1.75 6.99 1.84333 7.08333 1.95833 7.08333Z" fill="#0F94BF"/>
<path d="M1.95833 8.74996H2.375C2.49 8.74996 2.58333 8.65663 2.58333 8.54163V8.12496C2.58333 8.00996 2.49 7.91663 2.375 7.91663H1.95833C1.84333 7.91663 1.75 8.00996 1.75 8.12496V8.54163C1.75 8.65663 1.84333 8.74996 1.95833 8.74996Z" fill="#0F94BF"/>
<path d="M17.4167 8.5C17.4167 10.1107 16.1107 11.4167 14.5 11.4167C12.8893 11.4167 11.5833 10.1107 11.5833 8.5C11.5833 6.88927 12.8893 5.58333 14.5 5.58333C16.1107 5.58333 17.4167 6.88927 17.4167 8.5Z" fill="url(#paint2_linear_8_5078)"/>
<path d="M14.502 9.95833C14.3953 9.95833 14.3072 9.92596 14.2378 9.86121C14.1684 9.79646 14.1337 9.71815 14.1337 9.62598C14.1337 9.52988 14.1687 9.45113 14.2388 9.38973C14.3088 9.32833 14.3966 9.29771 14.502 9.29771C14.6088 9.29771 14.6963 9.32877 14.7642 9.39075C14.8324 9.45287 14.8663 9.53119 14.8663 9.62598C14.8663 9.72208 14.8326 9.80142 14.7653 9.86413C14.6979 9.92683 14.6101 9.95833 14.502 9.95833ZM14.8261 7.14681L14.7559 8.92233C14.7538 8.97658 14.7091 9.01946 14.6549 9.01946H14.3371C14.2827 9.01946 14.2381 8.97644 14.236 8.92204L14.1697 7.14667C14.1675 7.08935 14.2134 7.04167 14.2708 7.04167H14.7252C14.7825 7.04167 14.8284 7.08935 14.8261 7.14681Z" fill="url(#paint3_radial_8_5078)"/>
<defs>
<linearGradient id="paint0_linear_8_5078" x1="3.94879" y1="-1.26936" x2="11.8372" y2="10.4808" gradientUnits="userSpaceOnUse">
<stop stop-color="#7DD8F3"/>
<stop offset="1" stop-color="#45B0D0"/>
</linearGradient>
<linearGradient id="paint1_linear_8_5078" x1="0.351817" y1="-2.78567" x2="17.5296" y2="-2.1196" gradientUnits="userSpaceOnUse">
<stop stop-color="#0077D2"/>
<stop offset="1" stop-color="#0B59A2"/>
</linearGradient>
<linearGradient id="paint2_linear_8_5078" x1="2.55067" y1="1.67197" x2="9.95328" y2="12.965" gradientUnits="userSpaceOnUse">
<stop stop-color="#FFDA1C"/>
<stop offset="1" stop-color="#FEB705"/>
</linearGradient>
<radialGradient id="paint3_radial_8_5078" cx="0" cy="0" r="1" gradientUnits="userSpaceOnUse" gradientTransform="translate(13.6526 7.00969) scale(3.26127 3.26127)">
<stop stop-color="#4B4B4B"/>
<stop offset="0.531" stop-color="#393939"/>
<stop offset="1" stop-color="#252525"/>
</radialGradient>
</defs>
</svg>
