<svg width="20" height="20" viewBox="0 0 20 20" fill="none" xmlns="http://www.w3.org/2000/svg">
<path d="M9.95877 7.26604L10.7459 9.02628L12.6635 9.22663C12.7923 9.24094 12.8353 9.39836 12.7494 9.46991L11.3183 10.7579L11.719 12.6469C11.7476 12.7614 11.6188 12.8616 11.5043 12.8043L9.82998 11.8312L8.1556 12.79C8.04112 12.8473 7.91232 12.7614 7.94094 12.6326L8.34165 10.7436L6.91056 9.4556C6.82469 9.38405 6.88194 9.24094 6.99642 9.22663L8.91408 9.02628L9.70118 7.26604C9.74411 7.15155 9.91584 7.15155 9.95877 7.26604Z" fill="url(#paint0_linear_16_5208)"/>
<path d="M3.08956 7.26604L3.87665 9.02628L5.79431 9.22663C5.92311 9.24094 5.96604 9.39836 5.88018 9.46991L4.44909 10.7579L4.84979 12.6469C4.87841 12.7614 4.74962 12.8616 4.63513 12.8043L2.96076 11.8312L1.28639 12.79C1.1719 12.8473 1.0431 12.7614 1.07172 12.6326L1.47243 10.7436L0.0413425 9.4556C-0.0445227 9.38405 0.0127208 9.24094 0.127208 9.22663L2.04486 9.02628L2.83196 7.26604C2.87489 7.15155 3.04662 7.15155 3.08956 7.26604Z" fill="url(#paint1_linear_16_5208)"/>
<path d="M17.1733 7.26399L17.9573 9.02251L19.8718 9.22473C19.995 9.23775 20.0445 9.39045 19.9525 9.47331L18.5224 10.762L18.9218 12.6455C18.9476 12.7667 18.8176 12.861 18.7103 12.7991L17.0426 11.837L15.375 12.799C15.2677 12.8608 15.1379 12.7665 15.1635 12.6453L15.5629 10.7619L14.1328 9.47316C14.0408 9.3903 14.0905 9.23761 14.2135 9.22458L16.128 9.02237L16.912 7.26385C16.9624 7.1508 17.1229 7.1508 17.1733 7.26399Z" fill="url(#paint2_linear_16_5208)"/>
<path d="M19.8718 9.22467L17.9573 9.02246L17.1733 7.26394C17.1481 7.20727 17.0953 7.17908 17.0426 7.17908V11.837L18.7103 12.7991C18.8176 12.8609 18.9476 12.7666 18.9218 12.6454L18.5224 10.7619L19.9525 9.47325C20.0445 9.39039 19.995 9.23769 19.8718 9.22467Z" fill="url(#paint3_radial_16_5208)"/>
<defs>
<linearGradient id="paint0_linear_16_5208" x1="7.68463" y1="7.43205" x2="11.8467" y2="12.9998" gradientUnits="userSpaceOnUse">
<stop stop-color="#FFD869"/>
<stop offset="1" stop-color="#FEC52B"/>
</linearGradient>
<linearGradient id="paint1_linear_16_5208" x1="0.815417" y1="7.43205" x2="4.97744" y2="12.9998" gradientUnits="userSpaceOnUse">
<stop stop-color="#FFD869"/>
<stop offset="1" stop-color="#FEC52B"/>
</linearGradient>
<linearGradient id="paint2_linear_16_5208" x1="14.8973" y1="7.432" x2="19.0593" y2="12.9998" gradientUnits="userSpaceOnUse">
<stop stop-color="#FFDA1C"/>
<stop offset="1" stop-color="#FEB705"/>
</linearGradient>
<radialGradient id="paint3_radial_16_5208" cx="0" cy="0" r="1" gradientUnits="userSpaceOnUse" gradientTransform="translate(16.5239 9.47511) scale(3.30652)">
<stop stop-color="#FAFAFB"/>
<stop offset="0.293" stop-color="#F6F7F8"/>
<stop offset="0.566" stop-color="#EBECEE"/>
<stop offset="0.832" stop-color="#D8DCDF"/>
<stop offset="1" stop-color="#C8CDD1"/>
</radialGradient>
</defs>
</svg>
