<svg width="20" height="20" viewBox="0 0 20 20" fill="none" xmlns="http://www.w3.org/2000/svg">
<path d="M0 6V14C0 14.5525 0.4475 15 1 15H19C19.5525 15 20 14.5525 20 14V6C20 5.4475 19.5525 5 19 5H1C0.4475 5 0 5.4475 0 6Z" fill="#50E6FF"/>
<path opacity="0.05" d="M14.2 13.5C13.2625 13.5 12.5 12.7375 12.5 11.8V8.2C12.5 7.2625 13.2625 6.5 14.2 6.5H17.8C18.7375 6.5 19.5 7.2625 19.5 8.2V11.8C19.5 12.7375 18.7375 13.5 17.8 13.5H14.2Z" fill="black"/>
<path opacity="0.07" d="M14.2 13.2499C13.4 13.2499 12.75 12.5994 12.75 11.7999V8.19988C12.75 7.40038 13.4005 6.74988 14.2 6.74988H17.8C18.6 6.74988 19.25 7.40038 19.25 8.19988V11.7999C19.25 12.5994 18.5995 13.2499 17.8 13.2499H14.2Z" fill="black"/>
<path d="M14.2 13H17.8C18.4625 13 19 12.4625 19 11.8V8.2C19 7.5375 18.4625 7 17.8 7H14.2C13.5375 7 13 7.5375 13 8.2V11.8C13 12.4625 13.5375 13 14.2 13Z" fill="url(#paint0_linear_17_5209)"/>
<path opacity="0.05" d="M16 11.5C15.773 11.5 15.561 11.406 15.4035 11.236L14.236 9.9785C13.9955 9.7185 13.9325 9.3375 14.0765 9.0075C14.2135 8.6945 14.503 8.5 14.8325 8.5H17.1675C17.497 8.5 17.7865 8.6945 17.924 9.007C18.068 9.338 18.005 9.7185 17.7645 9.978L16.5965 11.2365C16.4385 11.4065 16.227 11.5 16 11.5Z" fill="black"/>
<path opacity="0.07" d="M16 11.2499C15.8435 11.2499 15.697 11.1849 15.587 11.0659L14.419 9.80789C14.2455 9.62089 14.201 9.34589 14.305 9.10689C14.4015 8.88639 14.6035 8.74939 14.8325 8.74939H17.1675C17.3965 8.74939 17.598 8.88639 17.695 9.10689C17.799 9.34589 17.7545 9.62089 17.581 9.80739L16.413 11.0659C16.303 11.1849 16.1565 11.2499 16 11.2499Z" fill="black"/>
<path d="M17.1613 8.99264L14.8258 9.00721C14.5273 9.00907 14.3833 9.41647 14.5998 9.64663L15.7751 10.8973C15.9045 11.035 16.1075 11.0338 16.2351 10.8945L17.3947 9.6292C17.6088 9.39636 17.4598 8.99078 17.1613 8.99264Z" fill="url(#paint1_linear_17_5209)"/>
<defs>
<linearGradient id="paint0_linear_17_5209" x1="13.166" y1="7.166" x2="19.063" y2="13.0625" gradientUnits="userSpaceOnUse">
<stop stop-color="#0077D2"/>
<stop offset="1" stop-color="#0B59A2"/>
</linearGradient>
<linearGradient id="paint1_linear_17_5209" x1="14.5" y1="10.0093" x2="17.5" y2="9.99055" gradientUnits="userSpaceOnUse">
<stop stop-color="#7DD8F3"/>
<stop offset="1" stop-color="#45B0D0"/>
</linearGradient>
</defs>
</svg>
