<?xml version="1.0" encoding="UTF-8"?>
<svg xmlns="http://www.w3.org/2000/svg" xmlns:xlink="http://www.w3.org/1999/xlink" viewBox="0 0 48 48" width="48px" height="48px">
<g id="surface181428318">
<path style=" stroke:none;fill-rule:nonzero;fill:rgb(20.392157%,59.607846%,85.882354%);fill-opacity:1;" d="M 39 4 L 9 4 C 8.449219 4 8 4.449219 8 5 L 8 14 C 8 14.550781 8.449219 15 9 15 L 10.324219 15 C 10.730469 15 11.101562 14.75 11.25 14.371094 L 13 10 L 20 10 L 20 39 L 15.628906 40.75 C 15.25 40.898438 15 41.269531 15 41.675781 L 15 43 C 15 43.550781 15.449219 44 16 44 L 32 44 C 32.550781 44 33 43.550781 33 43 L 33 41.675781 C 33 41.269531 32.75 40.898438 32.371094 40.75 L 28 39 L 28 10 L 35 10 L 36.746094 14.371094 C 36.898438 14.75 37.269531 15 37.675781 15 L 39 15 C 39.550781 15 40 14.550781 40 14 L 40 5 C 40 4.449219 39.550781 4 39 4 Z M 39 4 "/>
</g>
</svg>
