<svg width="191" height="191" viewBox="0 0 191 191" fill="none" xmlns="http://www.w3.org/2000/svg">
<path d="M168.887 8H22.1129C14.3186 8 8 14.3186 8 22.1129V168.887C8 176.681 14.3186 183 22.1129 183H168.887C176.681 183 183 176.681 183 168.887V22.1129C183 14.3186 176.681 8 168.887 8Z" fill="white"/>
<path d="M168.887 8H22.1129C14.3186 8 8 14.3186 8 22.1129V168.887C8 176.681 14.3186 183 22.1129 183H168.887C176.681 183 183 176.681 183 168.887V22.1129C183 14.3186 176.681 8 168.887 8Z" fill="url(#paint0_linear_12_95)" fill-opacity="0.2"/>
<path d="M168.887 8H22.1129C14.3186 8 8 14.3186 8 22.1129V168.887C8 176.681 14.3186 183 22.1129 183H168.887C176.681 183 183 176.681 183 168.887V22.1129C183 14.3186 176.681 8 168.887 8Z" stroke="#D5EAF6" stroke-width="15" stroke-linecap="round"/>
<mask id="path-4-outside-1_12_95" maskUnits="userSpaceOnUse" x="40" y="54" width="112" height="84" fill="black">
<rect fill="white" x="40" y="54" width="112" height="84"/>
<path d="M151 85.3133V60.5C151 57.4612 148.539 55 145.5 55H46.5C43.4612 55 41 57.4612 41 60.5V85.3133C44.322 87.8213 46.5 91.7675 46.5 96.25C46.5 100.732 44.322 104.679 41 107.187V132C41 135.039 43.4612 137.5 46.5 137.5H145.5C148.539 137.5 151 135.039 151 132V107.187C147.678 104.676 145.5 100.732 145.5 96.25C145.5 91.7675 147.678 87.8213 151 85.3133ZM126.25 132C124.732 132 123.5 130.768 123.5 129.25C123.5 127.732 124.732 126.5 126.25 126.5C127.768 126.5 129 127.732 129 129.25C129 130.768 127.768 132 126.25 132ZM126.25 121C124.732 121 123.5 119.768 123.5 118.25C123.5 116.732 124.732 115.5 126.25 115.5C127.768 115.5 129 116.732 129 118.25C129 119.768 127.768 121 126.25 121ZM126.25 110C124.732 110 123.5 108.768 123.5 107.25C123.5 105.732 124.732 104.5 126.25 104.5C127.768 104.5 129 105.732 129 107.25C129 108.768 127.768 110 126.25 110ZM126.25 99C124.732 99 123.5 97.768 123.5 96.25C123.5 94.732 124.732 93.5 126.25 93.5C127.768 93.5 129 94.732 129 96.25C129 97.768 127.768 99 126.25 99ZM126.25 88C124.732 88 123.5 86.768 123.5 85.25C123.5 83.732 124.732 82.5 126.25 82.5C127.768 82.5 129 83.732 129 85.25C129 86.768 127.768 88 126.25 88ZM126.25 77C124.732 77 123.5 75.768 123.5 74.25C123.5 72.732 124.732 71.5 126.25 71.5C127.768 71.5 129 72.732 129 74.25C129 75.768 127.768 77 126.25 77ZM126.25 66C124.732 66 123.5 64.768 123.5 63.25C123.5 61.732 124.732 60.5 126.25 60.5C127.768 60.5 129 61.732 129 63.25C129 64.768 127.768 66 126.25 66Z"/>
<path d="M89.1148 123.648V71.5H92.4556V123.648H89.1148ZM97.9759 88.713C97.813 87.0698 97.1136 85.7932 95.8778 84.8833C94.642 83.9735 92.9648 83.5185 90.8463 83.5185C89.4068 83.5185 88.1914 83.7222 87.2 84.1296C86.2086 84.5235 85.4481 85.0735 84.9185 85.7796C84.4025 86.4858 84.1444 87.287 84.1444 88.1833C84.1173 88.9302 84.2735 89.5821 84.613 90.1389C84.9661 90.6957 85.4481 91.1778 86.0593 91.5852C86.6704 91.979 87.3765 92.3253 88.1778 92.6241C88.979 92.9093 89.8346 93.1537 90.7444 93.3574L94.4926 94.2537C96.3123 94.6611 97.9827 95.2043 99.5037 95.8833C101.025 96.5623 102.342 97.3975 103.456 98.3889C104.569 99.3802 105.431 100.548 106.043 101.893C106.667 103.237 106.986 104.778 107 106.517C106.986 109.07 106.335 111.283 105.044 113.157C103.768 115.018 101.921 116.464 99.5037 117.496C97.1 118.515 94.2006 119.024 90.8056 119.024C87.4377 119.024 84.5043 118.508 82.0056 117.476C79.5204 116.444 77.5784 114.916 76.1796 112.893C74.7944 110.856 74.0679 108.336 74 105.335H82.5352C82.6302 106.734 83.0309 107.902 83.737 108.839C84.4568 109.762 85.4142 110.462 86.6093 110.937C87.8179 111.399 89.1827 111.63 90.7037 111.63C92.1975 111.63 93.4944 111.412 94.5944 110.978C95.708 110.543 96.5704 109.939 97.1815 109.165C97.7926 108.391 98.0982 107.501 98.0982 106.496C98.0982 105.559 97.8198 104.772 97.263 104.133C96.7198 103.495 95.9185 102.952 94.8593 102.504C93.8136 102.056 92.5302 101.648 91.0093 101.281L86.4667 100.141C82.9494 99.2852 80.1722 97.9475 78.1352 96.1278C76.0981 94.308 75.0864 91.8568 75.1 88.7741C75.0864 86.2481 75.7586 84.0414 77.1167 82.1537C78.4883 80.2661 80.3691 78.7926 82.7593 77.7333C85.1494 76.6741 87.8654 76.1444 90.9074 76.1444C94.0037 76.1444 96.7062 76.6741 99.0148 77.7333C101.337 78.7926 103.143 80.2661 104.433 82.1537C105.723 84.0414 106.389 86.2278 106.43 88.713H97.9759Z"/>
</mask>
<path d="M151 85.3133V60.5C151 57.4612 148.539 55 145.5 55H46.5C43.4612 55 41 57.4612 41 60.5V85.3133C44.322 87.8213 46.5 91.7675 46.5 96.25C46.5 100.732 44.322 104.679 41 107.187V132C41 135.039 43.4612 137.5 46.5 137.5H145.5C148.539 137.5 151 135.039 151 132V107.187C147.678 104.676 145.5 100.732 145.5 96.25C145.5 91.7675 147.678 87.8213 151 85.3133ZM126.25 132C124.732 132 123.5 130.768 123.5 129.25C123.5 127.732 124.732 126.5 126.25 126.5C127.768 126.5 129 127.732 129 129.25C129 130.768 127.768 132 126.25 132ZM126.25 121C124.732 121 123.5 119.768 123.5 118.25C123.5 116.732 124.732 115.5 126.25 115.5C127.768 115.5 129 116.732 129 118.25C129 119.768 127.768 121 126.25 121ZM126.25 110C124.732 110 123.5 108.768 123.5 107.25C123.5 105.732 124.732 104.5 126.25 104.5C127.768 104.5 129 105.732 129 107.25C129 108.768 127.768 110 126.25 110ZM126.25 99C124.732 99 123.5 97.768 123.5 96.25C123.5 94.732 124.732 93.5 126.25 93.5C127.768 93.5 129 94.732 129 96.25C129 97.768 127.768 99 126.25 99ZM126.25 88C124.732 88 123.5 86.768 123.5 85.25C123.5 83.732 124.732 82.5 126.25 82.5C127.768 82.5 129 83.732 129 85.25C129 86.768 127.768 88 126.25 88ZM126.25 77C124.732 77 123.5 75.768 123.5 74.25C123.5 72.732 124.732 71.5 126.25 71.5C127.768 71.5 129 72.732 129 74.25C129 75.768 127.768 77 126.25 77ZM126.25 66C124.732 66 123.5 64.768 123.5 63.25C123.5 61.732 124.732 60.5 126.25 60.5C127.768 60.5 129 61.732 129 63.25C129 64.768 127.768 66 126.25 66Z" fill="url(#paint1_linear_12_95)"/>
<path d="M89.1148 123.648V71.5H92.4556V123.648H89.1148ZM97.9759 88.713C97.813 87.0698 97.1136 85.7932 95.8778 84.8833C94.642 83.9735 92.9648 83.5185 90.8463 83.5185C89.4068 83.5185 88.1914 83.7222 87.2 84.1296C86.2086 84.5235 85.4481 85.0735 84.9185 85.7796C84.4025 86.4858 84.1444 87.287 84.1444 88.1833C84.1173 88.9302 84.2735 89.5821 84.613 90.1389C84.9661 90.6957 85.4481 91.1778 86.0593 91.5852C86.6704 91.979 87.3765 92.3253 88.1778 92.6241C88.979 92.9093 89.8346 93.1537 90.7444 93.3574L94.4926 94.2537C96.3123 94.6611 97.9827 95.2043 99.5037 95.8833C101.025 96.5623 102.342 97.3975 103.456 98.3889C104.569 99.3802 105.431 100.548 106.043 101.893C106.667 103.237 106.986 104.778 107 106.517C106.986 109.07 106.335 111.283 105.044 113.157C103.768 115.018 101.921 116.464 99.5037 117.496C97.1 118.515 94.2006 119.024 90.8056 119.024C87.4377 119.024 84.5043 118.508 82.0056 117.476C79.5204 116.444 77.5784 114.916 76.1796 112.893C74.7944 110.856 74.0679 108.336 74 105.335H82.5352C82.6302 106.734 83.0309 107.902 83.737 108.839C84.4568 109.762 85.4142 110.462 86.6093 110.937C87.8179 111.399 89.1827 111.63 90.7037 111.63C92.1975 111.63 93.4944 111.412 94.5944 110.978C95.708 110.543 96.5704 109.939 97.1815 109.165C97.7926 108.391 98.0982 107.501 98.0982 106.496C98.0982 105.559 97.8198 104.772 97.263 104.133C96.7198 103.495 95.9185 102.952 94.8593 102.504C93.8136 102.056 92.5302 101.648 91.0093 101.281L86.4667 100.141C82.9494 99.2852 80.1722 97.9475 78.1352 96.1278C76.0981 94.308 75.0864 91.8568 75.1 88.7741C75.0864 86.2481 75.7586 84.0414 77.1167 82.1537C78.4883 80.2661 80.3691 78.7926 82.7593 77.7333C85.1494 76.6741 87.8654 76.1444 90.9074 76.1444C94.0037 76.1444 96.7062 76.6741 99.0148 77.7333C101.337 78.7926 103.143 80.2661 104.433 82.1537C105.723 84.0414 106.389 86.2278 106.43 88.713H97.9759Z" fill="#20C997"/>
<path d="M151 85.3133L151.301 85.7123L151.5 85.5623V85.3133H151ZM41 85.3133H40.5V85.5623L40.6987 85.7123L41 85.3133ZM41 107.187L40.6987 106.788L40.5 106.938V107.187H41ZM151 107.187H151.5V106.938L151.301 106.788L151 107.187ZM89.1148 123.648H88.6148C88.6148 123.924 88.8387 124.148 89.1148 124.148V123.648ZM89.1148 71.5V71C88.8387 71 88.6148 71.2239 88.6148 71.5H89.1148ZM92.4556 71.5H92.9556C92.9556 71.2239 92.7317 71 92.4556 71V71.5ZM92.4556 123.648V124.148C92.7317 124.148 92.9556 123.924 92.9556 123.648H92.4556ZM97.9759 88.713L97.4784 88.7623C97.5037 89.0181 97.7189 89.213 97.9759 89.213V88.713ZM87.2 84.1296L87.3846 84.5943L87.3901 84.5921L87.2 84.1296ZM84.9185 85.7796L84.5185 85.4796L84.5148 85.4846L84.9185 85.7796ZM84.1444 88.1833L84.6441 88.2015C84.6443 88.1955 84.6444 88.1894 84.6444 88.1833H84.1444ZM84.613 90.1389L84.186 90.3992L84.1907 90.4067L84.613 90.1389ZM86.0593 91.5852L85.7819 92.0013L85.7884 92.0055L86.0593 91.5852ZM88.1778 92.6241L88.0031 93.0926L88.0101 93.0951L88.1778 92.6241ZM90.7444 93.3574L90.8607 92.8711L90.8537 92.8695L90.7444 93.3574ZM94.4926 94.2537L94.3763 94.74L94.3834 94.7416L94.4926 94.2537ZM99.5037 95.8833L99.2999 96.3399L99.2999 96.3399L99.5037 95.8833ZM103.456 98.3889L103.788 98.0154L103.788 98.0154L103.456 98.3889ZM106.043 101.893L105.587 102.1L105.589 102.103L106.043 101.893ZM107 106.517L107.5 106.519L107.5 106.513L107 106.517ZM105.044 113.157L104.633 112.874L104.632 112.875L105.044 113.157ZM99.5037 117.496L99.6988 117.957L99.7 117.956L99.5037 117.496ZM82.0056 117.476L81.8138 117.938L81.8147 117.938L82.0056 117.476ZM76.1796 112.893L75.7662 113.174L75.7683 113.177L76.1796 112.893ZM74 105.335V104.835C73.8654 104.835 73.7365 104.889 73.6425 104.986C73.5484 105.082 73.4971 105.212 73.5001 105.346L74 105.335ZM82.5352 105.335L83.034 105.301C83.0162 105.039 82.7982 104.835 82.5352 104.835V105.335ZM83.737 108.839L83.3377 109.14L83.3427 109.146L83.737 108.839ZM86.6093 110.937L86.4245 111.402L86.4308 111.404L86.6093 110.937ZM94.5944 110.978L94.4127 110.512L94.4107 110.513L94.5944 110.978ZM97.1815 109.165L97.5739 109.475L97.5739 109.475L97.1815 109.165ZM97.263 104.133L96.8822 104.457L96.8862 104.462L97.263 104.133ZM94.8593 102.504L94.6623 102.963L94.6644 102.964L94.8593 102.504ZM91.0093 101.281L90.8875 101.766L90.8921 101.768L91.0093 101.281ZM86.4667 100.141L86.5884 99.6558L86.5848 99.6549L86.4667 100.141ZM78.1352 96.1278L77.8021 96.5007L77.8021 96.5007L78.1352 96.1278ZM75.1 88.7741L75.6 88.7763L75.6 88.7714L75.1 88.7741ZM77.1167 82.1537L76.7122 81.8598L76.7108 81.8617L77.1167 82.1537ZM99.0148 77.7333L98.8063 78.1878L98.8073 78.1882L99.0148 77.7333ZM104.433 82.1537L104.021 82.4358L104.021 82.4358L104.433 82.1537ZM106.43 88.713V89.213C106.564 89.213 106.692 89.1592 106.786 89.0636C106.88 88.9681 106.932 88.8388 106.93 88.7048L106.43 88.713ZM151.5 85.3133V60.5H150.5V85.3133H151.5ZM151.5 60.5C151.5 57.1851 148.815 54.5 145.5 54.5V55.5C148.263 55.5 150.5 57.7374 150.5 60.5H151.5ZM145.5 54.5H46.5V55.5H145.5V54.5ZM46.5 54.5C43.1851 54.5 40.5 57.1851 40.5 60.5H41.5C41.5 57.7374 43.7374 55.5 46.5 55.5V54.5ZM40.5 60.5V85.3133H41.5V60.5H40.5ZM40.6987 85.7123C43.9041 88.1323 46 91.9348 46 96.25H47C47 91.6002 44.7399 87.5102 41.3013 84.9142L40.6987 85.7123ZM46 96.25C46 100.565 43.9041 104.368 40.6987 106.788L41.3013 107.586C44.7399 104.99 47 100.9 47 96.25H46ZM40.5 107.187V132H41.5V107.187H40.5ZM40.5 132C40.5 135.315 43.1851 138 46.5 138V137C43.7374 137 41.5 134.763 41.5 132H40.5ZM46.5 138H145.5V137H46.5V138ZM145.5 138C148.815 138 151.5 135.315 151.5 132H150.5C150.5 134.763 148.263 137 145.5 137V138ZM151.5 132V107.187H150.5V132H151.5ZM151.301 106.788C148.096 104.365 146 100.565 146 96.25H145C145 100.9 147.26 104.987 150.699 107.586L151.301 106.788ZM146 96.25C146 91.9348 148.096 88.1323 151.301 85.7123L150.699 84.9142C147.26 87.5102 145 91.6002 145 96.25H146ZM126.25 131.5C125.008 131.5 124 130.492 124 129.25H123C123 131.044 124.456 132.5 126.25 132.5V131.5ZM124 129.25C124 128.008 125.008 127 126.25 127V126C124.456 126 123 127.456 123 129.25H124ZM126.25 127C127.492 127 128.5 128.008 128.5 129.25H129.5C129.5 127.456 128.044 126 126.25 126V127ZM128.5 129.25C128.5 130.492 127.492 131.5 126.25 131.5V132.5C128.044 132.5 129.5 131.044 129.5 129.25H128.5ZM126.25 120.5C125.008 120.5 124 119.492 124 118.25H123C123 120.044 124.456 121.5 126.25 121.5V120.5ZM124 118.25C124 117.008 125.008 116 126.25 116V115C124.456 115 123 116.456 123 118.25H124ZM126.25 116C127.492 116 128.5 117.008 128.5 118.25H129.5C129.5 116.456 128.044 115 126.25 115V116ZM128.5 118.25C128.5 119.492 127.492 120.5 126.25 120.5V121.5C128.044 121.5 129.5 120.044 129.5 118.25H128.5ZM126.25 109.5C125.008 109.5 124 108.492 124 107.25H123C123 109.044 124.456 110.5 126.25 110.5V109.5ZM124 107.25C124 106.008 125.008 105 126.25 105V104C124.456 104 123 105.456 123 107.25H124ZM126.25 105C127.492 105 128.5 106.008 128.5 107.25H129.5C129.5 105.456 128.044 104 126.25 104V105ZM128.5 107.25C128.5 108.492 127.492 109.5 126.25 109.5V110.5C128.044 110.5 129.5 109.044 129.5 107.25H128.5ZM126.25 98.5C125.008 98.5 124 97.4919 124 96.25H123C123 98.0441 124.456 99.5 126.25 99.5V98.5ZM124 96.25C124 95.0081 125.008 94 126.25 94V93C124.456 93 123 94.4559 123 96.25H124ZM126.25 94C127.492 94 128.5 95.0081 128.5 96.25H129.5C129.5 94.4559 128.044 93 126.25 93V94ZM128.5 96.25C128.5 97.4919 127.492 98.5 126.25 98.5V99.5C128.044 99.5 129.5 98.0441 129.5 96.25H128.5ZM126.25 87.5C125.008 87.5 124 86.4919 124 85.25H123C123 87.0441 124.456 88.5 126.25 88.5V87.5ZM124 85.25C124 84.0081 125.008 83 126.25 83V82C124.456 82 123 83.4559 123 85.25H124ZM126.25 83C127.492 83 128.5 84.0081 128.5 85.25H129.5C129.5 83.4559 128.044 82 126.25 82V83ZM128.5 85.25C128.5 86.4919 127.492 87.5 126.25 87.5V88.5C128.044 88.5 129.5 87.0441 129.5 85.25H128.5ZM126.25 76.5C125.008 76.5 124 75.4919 124 74.25H123C123 76.0441 124.456 77.5 126.25 77.5V76.5ZM124 74.25C124 73.0081 125.008 72 126.25 72V71C124.456 71 123 72.4559 123 74.25H124ZM126.25 72C127.492 72 128.5 73.0081 128.5 74.25H129.5C129.5 72.4559 128.044 71 126.25 71V72ZM128.5 74.25C128.5 75.4919 127.492 76.5 126.25 76.5V77.5C128.044 77.5 129.5 76.0441 129.5 74.25H128.5ZM126.25 65.5C125.008 65.5 124 64.4919 124 63.25H123C123 65.0441 124.456 66.5 126.25 66.5V65.5ZM124 63.25C124 62.0081 125.008 61 126.25 61V60C124.456 60 123 61.4559 123 63.25H124ZM126.25 61C127.492 61 128.5 62.0081 128.5 63.25H129.5C129.5 61.4559 128.044 60 126.25 60V61ZM128.5 63.25C128.5 64.4919 127.492 65.5 126.25 65.5V66.5C128.044 66.5 129.5 65.0441 129.5 63.25H128.5ZM89.6148 123.648V71.5H88.6148V123.648H89.6148ZM89.1148 72H92.4556V71H89.1148V72ZM91.9556 71.5V123.648H92.9556V71.5H91.9556ZM92.4556 123.148H89.1148V124.148H92.4556V123.148ZM98.4735 88.6636C98.2977 86.8915 97.5335 85.4815 96.1742 84.4807L95.5813 85.286C96.6937 86.105 97.3282 87.248 97.4784 88.7623L98.4735 88.6636ZM96.1742 84.4807C94.8253 83.4875 93.0318 83.0185 90.8463 83.0185V84.0185C92.8979 84.0185 94.4587 84.4594 95.5813 85.286L96.1742 84.4807ZM90.8463 83.0185C89.3627 83.0185 88.0784 83.2281 87.0099 83.6672L87.3901 84.5921C88.3043 84.2164 89.4509 84.0185 90.8463 84.0185V83.0185ZM87.0154 83.665C85.9564 84.0857 85.1139 84.6857 84.5185 85.4796L85.3185 86.0796C85.7824 85.4612 86.4609 84.9612 87.3846 84.5943L87.0154 83.665ZM84.5148 85.4846C83.9346 86.2787 83.6444 87.1838 83.6444 88.1833H84.6444C84.6444 87.3903 84.8704 86.6929 85.3222 86.0746L84.5148 85.4846ZM83.6448 88.1652C83.6146 88.9953 83.7884 89.747 84.1861 90.3992L85.0399 89.8786C84.7585 89.4172 84.62 88.8652 84.6441 88.2015L83.6448 88.1652ZM84.1907 90.4067C84.5853 91.0288 85.1193 91.5595 85.7819 92.0012L86.3366 91.1692C85.777 90.7961 85.3468 90.3625 85.0352 89.8711L84.1907 90.4067ZM85.7884 92.0055C86.4345 92.4218 87.1739 92.7834 88.0031 93.0926L88.3525 92.1556C87.5792 91.8672 86.9063 91.5362 86.3301 91.1649L85.7884 92.0055ZM88.0101 93.0951C88.8322 93.3877 89.7074 93.6376 90.6352 93.8453L90.8537 92.8695C89.9617 92.6698 89.1258 92.4308 88.3454 92.153L88.0101 93.0951ZM90.6282 93.8437L94.3763 94.74L94.6089 93.7674L90.8607 92.8711L90.6282 93.8437ZM94.3834 94.7416C96.1744 95.1426 97.8127 95.676 99.2999 96.3399L99.7075 95.4268C98.1528 94.7327 96.4503 94.1796 94.6018 93.7658L94.3834 94.7416ZM99.2999 96.3399C100.779 97.0004 102.052 97.8089 103.123 98.7623L103.788 98.0154C102.632 96.9862 101.27 96.1243 99.7075 95.4268L99.2999 96.3399ZM103.123 98.7623C104.185 99.7078 105.005 100.819 105.587 102.099L106.498 101.686C105.858 100.277 104.953 99.0527 103.788 98.0154L103.123 98.7623ZM105.589 102.103C106.179 103.373 106.487 104.842 106.5 106.521L107.5 106.513C107.486 104.715 107.156 103.101 106.496 101.682L105.589 102.103ZM106.5 106.514C106.487 108.979 105.859 111.092 104.633 112.874L105.456 113.441C106.81 111.474 107.486 109.16 107.5 106.519L106.5 106.514ZM104.632 112.875C103.418 114.645 101.652 116.035 99.3074 117.036L99.7 117.956C102.19 116.893 104.118 115.391 105.457 113.44L104.632 112.875ZM99.3086 117.036C96.9822 118.022 94.1528 118.524 90.8056 118.524V119.524C94.2484 119.524 97.2178 119.008 99.6988 117.957L99.3086 117.036ZM90.8056 118.524C87.4876 118.524 84.6218 118.016 82.1964 117.014L81.8147 117.938C84.3869 119 87.3877 119.524 90.8056 119.524V118.524ZM82.1973 117.014C79.7922 116.015 77.93 114.545 76.5909 112.608L75.7683 113.177C77.2268 115.287 79.2486 116.872 81.8138 117.938L82.1973 117.014ZM76.5931 112.611C75.2729 110.67 74.5661 108.25 74.4999 105.324L73.5001 105.346C73.5697 108.423 74.3159 111.041 75.7662 113.174L76.5931 112.611ZM74 105.835H82.5352V104.835H74V105.835ZM82.0363 105.369C82.1367 106.846 82.5626 108.111 83.3377 109.14L84.1363 108.538C83.4991 107.692 83.1238 106.622 83.034 105.301L82.0363 105.369ZM83.3427 109.146C84.1224 110.147 85.1552 110.897 86.4245 111.402L86.794 110.472C85.6732 110.027 84.7912 109.378 84.1314 108.532L83.3427 109.146ZM86.4308 111.404C87.7055 111.891 89.1322 112.13 90.7037 112.13V111.13C89.2332 111.13 87.9303 110.906 86.7877 110.47L86.4308 111.404ZM90.7037 112.13C92.2445 112.13 93.6065 111.906 94.7782 111.443L94.4107 110.513C93.3824 110.919 92.1505 111.13 90.7037 111.13V112.13ZM94.7762 111.444C95.9551 110.984 96.8971 110.332 97.5739 109.475L96.789 108.855C96.2436 109.546 95.461 110.103 94.4127 110.512L94.7762 111.444ZM97.5739 109.475C98.2561 108.611 98.5982 107.611 98.5982 106.496H97.5982C97.5982 107.391 97.3291 108.171 96.789 108.855L97.5739 109.475ZM98.5982 106.496C98.5982 105.452 98.2846 104.544 97.6397 103.805L96.8862 104.462C97.3549 104.999 97.5982 105.666 97.5982 106.496H98.5982ZM97.6437 103.809C97.0348 103.094 96.1598 102.511 95.0541 102.043L94.6644 102.964C95.6772 103.393 96.4047 103.896 96.8822 104.457L97.6437 103.809ZM95.0562 102.044C93.9772 101.582 92.6654 101.166 91.1264 100.795L90.8921 101.768C92.3951 102.13 93.65 102.529 94.6623 102.963L95.0562 102.044ZM91.131 100.797L86.5884 99.6558L86.3449 100.626L90.8875 101.766L91.131 100.797ZM86.5848 99.6549C83.1224 98.8127 80.4274 97.505 78.4683 95.7549L77.8021 96.5007C79.9171 98.39 82.7764 99.7577 86.3485 100.627L86.5848 99.6549ZM78.4683 95.7549C76.5524 94.0434 75.587 91.7363 75.6 88.7763L74.6 88.7719C74.5859 91.9773 75.6439 94.5727 77.8021 96.5007L78.4683 95.7549ZM75.6 88.7714C75.5869 86.3415 76.2316 84.2401 77.5225 82.4457L76.7108 81.8617C75.2856 83.8427 74.5859 86.1548 74.6 88.7768L75.6 88.7714ZM77.5212 82.4476C78.835 80.6395 80.6423 79.2184 82.9618 78.1905L82.5567 77.2762C80.096 78.3668 78.1416 79.8926 76.7122 81.8598L77.5212 82.4476ZM82.9618 78.1905C85.2786 77.1637 87.9239 76.6444 90.9074 76.6444V75.6444C87.807 75.6444 85.0202 76.1844 82.5567 77.2762L82.9618 78.1905ZM90.9074 76.6444C93.9472 76.6444 96.5758 77.1644 98.8063 78.1878L99.2233 77.2789C96.8366 76.1838 94.0602 75.6444 90.9074 75.6444V76.6444ZM98.8073 78.1882C101.057 79.2142 102.788 80.6319 104.021 82.4358L104.846 81.8716C103.499 79.9002 101.618 78.371 99.2223 77.2784L98.8073 78.1882ZM104.021 82.4358C105.251 84.2356 105.89 86.325 105.93 88.7212L106.93 88.7048C106.887 86.1306 106.196 83.8471 104.846 81.8716L104.021 82.4358ZM106.43 88.213H97.9759V89.213H106.43V88.213Z" fill="#F2F2F2" mask="url(#path-4-outside-1_12_95)"/>
<defs>
<linearGradient id="paint0_linear_12_95" x1="95.5" y1="16.4677" x2="95.5" y2="174.532" gradientUnits="userSpaceOnUse">
<stop stop-color="white"/>
<stop offset="0.472222" stop-color="#0D5176" stop-opacity="0.527778"/>
<stop offset="0.940972" stop-color="#12A6F7" stop-opacity="0.465278"/>
<stop offset="1" stop-opacity="0"/>
</linearGradient>
<linearGradient id="paint1_linear_12_95" x1="64.8865" y1="45.628" x2="127.845" y2="148.063" gradientUnits="userSpaceOnUse">
<stop stop-color="#FFD869"/>
<stop offset="1" stop-color="#FEC52B"/>
</linearGradient>
</defs>
</svg>
