<svg width="24" height="24" viewBox="0 0 24 24" fill="none" xmlns="http://www.w3.org/2000/svg">
<g id="bot">
<path id="Vector" d="M12.5 4H11.5V7H12.5V4Z" fill="url(#paint0_linear_206_10593)"/>
<path id="Vector_2" d="M3 13.5H4V18.5H3C2.6717 18.5 2.34661 18.4353 2.04329 18.3097C1.73998 18.1841 1.46438 17.9999 1.23223 17.7678C0.763392 17.2989 0.5 16.663 0.5 16C0.5 15.337 0.763392 14.7011 1.23223 14.2322C1.70107 13.7634 2.33696 13.5 3 13.5Z" fill="url(#paint1_linear_206_10593)"/>
<path id="Vector_3" d="M20 13.5H21C21.663 13.5 22.2989 13.7634 22.7678 14.2322C23.2366 14.7011 23.5 15.337 23.5 16C23.5 16.663 23.2366 17.2989 22.7678 17.7678C22.2989 18.2366 21.663 18.5 21 18.5H20V13.5Z" fill="url(#paint2_linear_206_10593)"/>
<path id="Vector_4" d="M12 6.5C14.3869 6.5 16.6761 7.44821 18.364 9.13604C20.0518 10.8239 21 13.1131 21 15.5V19.5C21 19.7652 20.8946 20.0196 20.7071 20.2071C20.5196 20.3946 20.2652 20.5 20 20.5H4C3.73478 20.5 3.48043 20.3946 3.29289 20.2071C3.10536 20.0196 3 19.7652 3 19.5V15.5C3 13.1131 3.94821 10.8239 5.63604 9.13604C7.32387 7.44821 9.61305 6.5 12 6.5Z" fill="url(#paint3_linear_206_10593)"/>
<path id="Vector_5" d="M8 18.5C9.65685 18.5 11 17.1569 11 15.5C11 13.8431 9.65685 12.5 8 12.5C6.34315 12.5 5 13.8431 5 15.5C5 17.1569 6.34315 18.5 8 18.5Z" fill="url(#paint4_linear_206_10593)"/>
<path id="Vector_6" d="M16 18.5C17.6569 18.5 19 17.1569 19 15.5C19 13.8431 17.6569 12.5 16 12.5C14.3431 12.5 13 13.8431 13 15.5C13 17.1569 14.3431 18.5 16 18.5Z" fill="url(#paint5_linear_206_10593)"/>
<path id="Vector_7" d="M16 17.5C17.1046 17.5 18 16.6046 18 15.5C18 14.3954 17.1046 13.5 16 13.5C14.8954 13.5 14 14.3954 14 15.5C14 16.6046 14.8954 17.5 16 17.5Z" fill="url(#paint6_linear_206_10593)"/>
<path id="Vector_8" d="M16 16.5C16.5523 16.5 17 16.0523 17 15.5C17 14.9477 16.5523 14.5 16 14.5C15.4477 14.5 15 14.9477 15 15.5C15 16.0523 15.4477 16.5 16 16.5Z" fill="url(#paint7_linear_206_10593)"/>
<path id="Vector_9" d="M8 17.5C9.10457 17.5 10 16.6046 10 15.5C10 14.3954 9.10457 13.5 8 13.5C6.89543 13.5 6 14.3954 6 15.5C6 16.6046 6.89543 17.5 8 17.5Z" fill="url(#paint8_linear_206_10593)"/>
<path id="Vector_10" d="M8 16.5C8.55228 16.5 9 16.0523 9 15.5C9 14.9477 8.55228 14.5 8 14.5C7.44772 14.5 7 14.9477 7 15.5C7 16.0523 7.44772 16.5 8 16.5Z" fill="url(#paint9_linear_206_10593)"/>
<path id="Vector_11" d="M12 5C12.5523 5 13 4.55228 13 4C13 3.44772 12.5523 3 12 3C11.4477 3 11 3.44772 11 4C11 4.55228 11.4477 5 12 5Z" fill="url(#paint10_linear_206_10593)"/>
</g>
<defs>
<linearGradient id="paint0_linear_206_10593" x1="12" y1="4.5545" x2="12" y2="6.784" gradientUnits="userSpaceOnUse">
<stop stop-color="#0077D2"/>
<stop offset="1" stop-color="#0B59A2"/>
</linearGradient>
<linearGradient id="paint1_linear_206_10593" x1="2.25" y1="13.3585" x2="2.25" y2="20.893" gradientUnits="userSpaceOnUse">
<stop stop-color="#0077D2"/>
<stop offset="1" stop-color="#0B59A2"/>
</linearGradient>
<linearGradient id="paint2_linear_206_10593" x1="21.75" y1="13.3585" x2="21.75" y2="20.893" gradientUnits="userSpaceOnUse">
<stop stop-color="#0077D2"/>
<stop offset="1" stop-color="#0B59A2"/>
</linearGradient>
<linearGradient id="paint3_linear_206_10593" x1="12" y1="6.47063" x2="12" y2="20.4495" gradientUnits="userSpaceOnUse">
<stop stop-color="#2AA4F4"/>
<stop offset="1" stop-color="#007AD9"/>
</linearGradient>
<linearGradient id="paint4_linear_206_10593" x1="8" y1="12.527" x2="8" y2="21.7475" gradientUnits="userSpaceOnUse">
<stop stop-color="#0077D2"/>
<stop offset="1" stop-color="#0B59A2"/>
</linearGradient>
<linearGradient id="paint5_linear_206_10593" x1="16" y1="12.527" x2="16" y2="21.7475" gradientUnits="userSpaceOnUse">
<stop stop-color="#0077D2"/>
<stop offset="1" stop-color="#0B59A2"/>
</linearGradient>
<linearGradient id="paint6_linear_206_10593" x1="14.8862" y1="12.9041" x2="17.5976" y2="16.8844" gradientUnits="userSpaceOnUse">
<stop stop-color="#FCFCFC"/>
<stop offset="0.95" stop-color="#C3C9CD"/>
</linearGradient>
<linearGradient id="paint7_linear_206_10593" x1="16" y1="12.527" x2="16" y2="21.7475" gradientUnits="userSpaceOnUse">
<stop stop-color="#0077D2"/>
<stop offset="1" stop-color="#0B59A2"/>
</linearGradient>
<linearGradient id="paint8_linear_206_10593" x1="6.88617" y1="12.9041" x2="9.59761" y2="16.8844" gradientUnits="userSpaceOnUse">
<stop stop-color="#FCFCFC"/>
<stop offset="0.95" stop-color="#C3C9CD"/>
</linearGradient>
<linearGradient id="paint9_linear_206_10593" x1="8" y1="12.527" x2="8" y2="21.7475" gradientUnits="userSpaceOnUse">
<stop stop-color="#0077D2"/>
<stop offset="1" stop-color="#0B59A2"/>
</linearGradient>
<linearGradient id="paint10_linear_206_10593" x1="12" y1="2.9958" x2="12" y2="4.99278" gradientUnits="userSpaceOnUse">
<stop stop-color="#2AA4F4"/>
<stop offset="1" stop-color="#007AD9"/>
</linearGradient>
</defs>
</svg>
