<svg width="24" height="24" viewBox="0 0 24 24" fill="none" xmlns="http://www.w3.org/2000/svg">
<g id="credit-card-cash-withdrawal">
<path id="Vector" d="M21.5625 4.5H2.4375C1.6435 4.5 1 5.1435 1 5.9375V18.0625C1 18.8565 1.6435 19.5 2.4375 19.5H21.5625C22.3565 19.5 23 18.8565 23 18.0625V5.9375C23 5.1435 22.3565 4.5 21.5625 4.5Z" fill="url(#paint0_linear_206_5902)"/>
<path id="Vector_2" d="M5.5 12C5.5 12.276 5.276 12.5 5 12.5H3C2.724 12.5 2.5 12.276 2.5 12C2.5 11.724 2.724 11.5 3 11.5H5C5.276 11.5 5.5 11.724 5.5 12Z" fill="url(#paint1_linear_206_5902)"/>
<path id="Vector_3" d="M9.5 12C9.5 12.276 9.276 12.5 9 12.5H7C6.724 12.5 6.5 12.276 6.5 12C6.5 11.724 6.724 11.5 7 11.5H9C9.276 11.5 9.5 11.724 9.5 12Z" fill="url(#paint2_linear_206_5902)"/>
<path id="Vector_4" d="M13.5 12C13.5 12.276 13.276 12.5 13 12.5H11C10.724 12.5 10.5 12.276 10.5 12C10.5 11.724 10.724 11.5 11 11.5H13C13.276 11.5 13.5 11.724 13.5 12Z" fill="url(#paint3_linear_206_5902)"/>
<path id="Vector_5" d="M17.5 12C17.5 12.276 17.276 12.5 17 12.5H15C14.724 12.5 14.5 12.276 14.5 12C14.5 11.724 14.724 11.5 15 11.5H17C17.276 11.5 17.5 11.724 17.5 12Z" fill="url(#paint4_linear_206_5902)"/>
<path id="Vector_6" d="M21.5 12C21.5 12.276 21.276 12.5 21 12.5H19C18.724 12.5 18.5 12.276 18.5 12C18.5 11.724 18.724 11.5 19 11.5H21C21.276 11.5 21.5 11.724 21.5 12Z" fill="url(#paint5_linear_206_5902)"/>
<path id="Vector_7" d="M18.0065 10H20.9935C21.273 10 21.5 9.773 21.5 9.4935V7.0065C21.5 6.727 21.273 6.5 20.9935 6.5H18.0065C17.727 6.5 17.5 6.727 17.5 7.0065V9.4935C17.5 9.773 17.727 10 18.0065 10Z" fill="#BBD2DE"/>
<path id="Vector_8" d="M6.75 15.5H2.75C2.612 15.5 2.5 15.388 2.5 15.25V14.75C2.5 14.612 2.612 14.5 2.75 14.5H6.75C6.888 14.5 7 14.612 7 14.75V15.25C7 15.388 6.888 15.5 6.75 15.5Z" fill="#0078D4"/>
<path id="Vector_9" d="M12.25 15.5H8.25C8.112 15.5 8 15.388 8 15.25V14.75C8 14.612 8.112 14.5 8.25 14.5H12.25C12.388 14.5 12.5 14.612 12.5 14.75V15.25C12.5 15.388 12.388 15.5 12.25 15.5Z" fill="#0078D4"/>
<path id="Vector_10" d="M9.75 17.5H2.75C2.612 17.5 2.5 17.388 2.5 17.25V16.75C2.5 16.612 2.612 16.5 2.75 16.5H9.75C9.888 16.5 10 16.612 10 16.75V17.25C10 17.388 9.888 17.5 9.75 17.5Z" fill="#0078D4"/>
<path id="Vector_11" opacity="0.05" d="M13 15.5C12.4485 15.5 12 15.9485 12 16.5V19.5H21.5625C22.3565 19.5 23 18.8565 23 18.0625V15.5H13Z" fill="black"/>
<path id="Vector_12" opacity="0.07" d="M13 15.75C12.5865 15.75 12.25 16.0865 12.25 16.5V19.5H21.5625C22.3565 19.5 23 18.8565 23 18.0625V15.75H13Z" fill="black"/>
<path id="Vector_13" d="M13.5 24H13C12.724 24 12.5 23.776 12.5 23.5V22.4685H13.5V24Z" fill="#52BF8D"/>
<path id="Vector_14" d="M23 16H13.5V22H23V16Z" fill="#33C481"/>
<path id="Vector_15" d="M13.5 23H13C12.724 23 12.5 22.776 12.5 22.5V21.3965H13.5V23Z" fill="#59D19A"/>
<path id="Vector_16" d="M13.5 22H13C12.724 22 12.5 21.776 12.5 21.5V16.5C12.5 16.224 12.724 16 13 16H13.5V22Z" fill="#61E3A7"/>
<path id="Vector_17" d="M23 22H13.5V23H23V22Z" fill="#21A366"/>
<path id="Vector_18" d="M23 23H13.5V24H23V23Z" fill="url(#paint6_linear_206_5902)"/>
<path id="Vector_19" d="M16.5 21C17.6046 21 18.5 20.1046 18.5 19C18.5 17.8954 17.6046 17 16.5 17C15.3954 17 14.5 17.8954 14.5 19C14.5 20.1046 15.3954 21 16.5 21Z" fill="#61E3A7"/>
<path id="Vector_20" d="M19.5 21C19.7761 21 20 20.7761 20 20.5C20 20.2239 19.7761 20 19.5 20C19.2239 20 19 20.2239 19 20.5C19 20.7761 19.2239 21 19.5 21Z" fill="#61E3A7"/>
<path id="Vector_21" d="M21.5 21C21.7761 21 22 20.7761 22 20.5C22 20.2239 21.7761 20 21.5 20C21.2239 20 21 20.2239 21 20.5C21 20.7761 21.2239 21 21.5 21Z" fill="#61E3A7"/>
<path id="Vector_22" d="M23.5 24H23V22.4685H24V23.5C24 23.776 23.776 24 23.5 24Z" fill="#52BF8D"/>
<path id="Vector_23" d="M23.5 23H23V21.3965H24V22.5C24 22.776 23.776 23 23.5 23Z" fill="#59D19A"/>
<path id="Vector_24" d="M23.5 22H23V16H23.5C23.776 16 24 16.224 24 16.5V21.5C24 21.776 23.776 22 23.5 22Z" fill="#61E3A7"/>
</g>
<defs>
<linearGradient id="paint0_linear_206_5902" x1="10.1875" y1="5.5305" x2="14.374" y2="20.473" gradientUnits="userSpaceOnUse">
<stop stop-color="#32BDEF"/>
<stop offset="1" stop-color="#1EA2E4"/>
</linearGradient>
<linearGradient id="paint1_linear_206_5902" x1="2.657" y1="12.5545" x2="4.9705" y2="11.5995" gradientUnits="userSpaceOnUse">
<stop stop-color="#5BC8EF"/>
<stop offset="1" stop-color="#42BEFC"/>
</linearGradient>
<linearGradient id="paint2_linear_206_5902" x1="6.657" y1="12.5545" x2="8.9705" y2="11.5995" gradientUnits="userSpaceOnUse">
<stop stop-color="#5BC8EF"/>
<stop offset="1" stop-color="#42BEFC"/>
</linearGradient>
<linearGradient id="paint3_linear_206_5902" x1="10.657" y1="12.5545" x2="12.9705" y2="11.5995" gradientUnits="userSpaceOnUse">
<stop stop-color="#5BC8EF"/>
<stop offset="1" stop-color="#42BEFC"/>
</linearGradient>
<linearGradient id="paint4_linear_206_5902" x1="14.657" y1="12.5545" x2="16.9705" y2="11.5995" gradientUnits="userSpaceOnUse">
<stop stop-color="#5BC8EF"/>
<stop offset="1" stop-color="#42BEFC"/>
</linearGradient>
<linearGradient id="paint5_linear_206_5902" x1="18.657" y1="12.5545" x2="20.9705" y2="11.5995" gradientUnits="userSpaceOnUse">
<stop stop-color="#5BC8EF"/>
<stop offset="1" stop-color="#42BEFC"/>
</linearGradient>
<linearGradient id="paint6_linear_206_5902" x1="14.8913" y1="23.1465" x2="15.0385" y2="24.5452" gradientUnits="userSpaceOnUse">
<stop stop-color="#21AD64"/>
<stop offset="1" stop-color="#088242"/>
</linearGradient>
</defs>
</svg>
