<svg width="24" height="24" viewBox="0 0 24 24" fill="none" xmlns="http://www.w3.org/2000/svg">
<g id="debugger">
<path id="Vector" d="M2 15.5H6.5C6.776 15.5 7 15.276 7 15C7 14.724 6.776 14.5 6.5 14.5H2C1.724 14.5 1.5 14.724 1.5 15C1.5 15.276 1.724 15.5 2 15.5Z" fill="url(#paint0_linear_206_6969)"/>
<path id="Vector_2" d="M2.289 9.95299L6.3675 11.855C6.618 11.9715 6.9155 11.8635 7.032 11.613C7.1485 11.3625 7.0405 11.065 6.79 10.9485L2.7115 9.04649C2.461 8.92999 2.1635 9.03799 2.047 9.28849C1.9305 9.53849 2.0385 9.83599 2.289 9.95299Z" fill="url(#paint1_linear_206_6969)"/>
<path id="Vector_3" d="M3.713 20.0895L7.399 17.5085C7.625 17.35 7.937 17.405 8.0955 17.6315C8.254 17.858 8.199 18.1695 7.9725 18.328L4.2865 20.909C4.0605 21.0675 3.7485 21.0125 3.59 20.786C3.432 20.56 3.487 20.248 3.713 20.0895Z" fill="url(#paint2_linear_206_6969)"/>
<path id="Vector_4" d="M22.5 15C22.5 14.724 22.276 14.5 22 14.5H17.5C17.224 14.5 17 14.724 17 15C17 15.276 17.224 15.5 17.5 15.5H22C22.276 15.5 22.5 15.276 22.5 15Z" fill="url(#paint3_linear_206_6969)"/>
<path id="Vector_5" d="M21.953 9.28849C21.8365 9.03799 21.539 8.92999 21.2885 9.04649L17.21 10.9485C16.9595 11.065 16.8515 11.3625 16.968 11.613C17.0845 11.8635 17.382 11.9715 17.6325 11.855L21.711 9.95299C21.9615 9.83599 22.0695 9.53849 21.953 9.28849Z" fill="url(#paint4_linear_206_6969)"/>
<path id="Vector_6" d="M20.41 20.786C20.2515 21.0125 19.9395 21.0675 19.7135 20.909L16.0275 18.328C15.801 18.1695 15.746 17.858 15.9045 17.6315C16.063 17.405 16.375 17.35 16.601 17.5085L20.287 20.0895C20.513 20.248 20.568 20.56 20.41 20.786Z" fill="url(#paint5_linear_206_6969)"/>
<path id="Vector_7" d="M9.043 6.24999L6.6465 3.85349C6.4515 3.65849 6.4515 3.34149 6.6465 3.14649C6.8415 2.95149 7.1585 2.95149 7.3535 3.14649L9.75 5.54299L9.043 6.24999Z" fill="url(#paint6_linear_206_6969)"/>
<path id="Vector_8" d="M14.957 6.24999L17.3535 3.85349C17.5485 3.65849 17.5485 3.34149 17.3535 3.14649C17.1585 2.95149 16.8415 2.95149 16.6465 3.14649L14.25 5.54299L14.957 6.24999Z" fill="url(#paint7_linear_206_6969)"/>
<path id="Vector_9" d="M12 11.375C14.2091 11.375 16 9.83598 16 7.9375C16 6.03902 14.2091 4.5 12 4.5C9.79086 4.5 8 6.03902 8 7.9375C8 9.83598 9.79086 11.375 12 11.375Z" fill="url(#paint8_linear_206_6969)"/>
<path id="Vector_10" d="M19.5 12.125C19.5 19.18 14.18 21.71 12.5 22.33C12.185 22.45 12 22.5 12 22.5C12 22.5 11.815 22.45 11.5 22.33C9.82 21.71 4.5 19.18 4.5 12.125C4.5 8.02 7.59 7.075 11.5 7.005C11.665 7 11.83 7 12 7C12.17 7 12.335 7 12.5 7.005C16.41 7.0745 19.5 8.0195 19.5 12.125Z" fill="url(#paint9_linear_206_6969)"/>
<path id="Vector_11" d="M12.5 7.005V22.33C12.185 22.45 12 22.5 12 22.5C12 22.5 11.815 22.45 11.5 22.33V7.005C11.665 7 11.83 7 12 7C12.17 7 12.335 7 12.5 7.005Z" fill="url(#paint10_linear_206_6969)"/>
</g>
<defs>
<linearGradient id="paint0_linear_206_6969" x1="1.4865" y1="15" x2="4.795" y2="15" gradientUnits="userSpaceOnUse">
<stop stop-color="#6D7479"/>
<stop offset="0.425" stop-color="#565C60"/>
<stop offset="1" stop-color="#323538"/>
</linearGradient>
<linearGradient id="paint1_linear_206_6969" x1="2.036" y1="9.39449" x2="4.6675" y2="10.505" gradientUnits="userSpaceOnUse">
<stop stop-color="#6D7479"/>
<stop offset="0.425" stop-color="#565C60"/>
<stop offset="1" stop-color="#323538"/>
</linearGradient>
<linearGradient id="paint2_linear_206_6969" x1="3.499" y1="20.559" x2="5.72" y2="19.2795" gradientUnits="userSpaceOnUse">
<stop stop-color="#6D7479"/>
<stop offset="0.425" stop-color="#565C60"/>
<stop offset="1" stop-color="#323538"/>
</linearGradient>
<linearGradient id="paint3_linear_206_6969" x1="22.5135" y1="15" x2="19.205" y2="15" gradientUnits="userSpaceOnUse">
<stop stop-color="#6D7479"/>
<stop offset="0.425" stop-color="#565C60"/>
<stop offset="1" stop-color="#323538"/>
</linearGradient>
<linearGradient id="paint4_linear_206_6969" x1="21.964" y1="9.39449" x2="19.3325" y2="10.505" gradientUnits="userSpaceOnUse">
<stop stop-color="#6D7479"/>
<stop offset="0.425" stop-color="#565C60"/>
<stop offset="1" stop-color="#323538"/>
</linearGradient>
<linearGradient id="paint5_linear_206_6969" x1="20.5005" y1="20.559" x2="18.2795" y2="19.2795" gradientUnits="userSpaceOnUse">
<stop stop-color="#6D7479"/>
<stop offset="0.425" stop-color="#565C60"/>
<stop offset="1" stop-color="#323538"/>
</linearGradient>
<linearGradient id="paint6_linear_206_6969" x1="7.0285" y1="2.85549" x2="8.608" y2="5.35949" gradientUnits="userSpaceOnUse">
<stop stop-color="#6D7479"/>
<stop offset="0.425" stop-color="#565C60"/>
<stop offset="1" stop-color="#323538"/>
</linearGradient>
<linearGradient id="paint7_linear_206_6969" x1="17.165" y1="3.06249" x2="15.308" y2="5.29249" gradientUnits="userSpaceOnUse">
<stop stop-color="#6D7479"/>
<stop offset="0.425" stop-color="#565C60"/>
<stop offset="1" stop-color="#323538"/>
</linearGradient>
<linearGradient id="paint8_linear_206_6969" x1="12" y1="8.2455" x2="12" y2="2.412" gradientUnits="userSpaceOnUse">
<stop offset="0.002" stop-color="#454545"/>
<stop offset="0.013" stop-color="#464646"/>
<stop offset="0.562" stop-color="#626262"/>
<stop offset="1" stop-color="#6D6D6D"/>
</linearGradient>
<linearGradient id="paint9_linear_206_6969" x1="12" y1="6.3575" x2="12" y2="27.1375" gradientUnits="userSpaceOnUse">
<stop stop-color="#199AE0"/>
<stop offset="1" stop-color="#0782D8"/>
</linearGradient>
<linearGradient id="paint10_linear_206_6969" x1="12" y1="5.028" x2="12" y2="22.3645" gradientUnits="userSpaceOnUse">
<stop stop-color="#0D61A9"/>
<stop offset="1" stop-color="#16528C"/>
</linearGradient>
</defs>
</svg>
