<svg width="24" height="24" viewBox="0 0 24 24" fill="none" xmlns="http://www.w3.org/2000/svg">
<g id="delete-folder">
<path id="Vector" d="M12.207 5.207L10.939 3.939C10.658 3.658 10.2765 3.5 9.8785 3.5H2.5C1.9475 3.5 1.5 3.9475 1.5 4.5V19.5C1.5 20.0525 1.9475 20.5 2.5 20.5H21.5C22.0525 20.5 22.5 20.0525 22.5 19.5V6.5C22.5 5.9475 22.0525 5.5 21.5 5.5H12.914C12.649 5.5 12.3945 5.3945 12.207 5.207Z" fill="url(#paint0_linear_206_6023)"/>
<path id="Vector_2" d="M10.793 7.207L12.427 5.573C12.4735 5.5265 12.537 5.5 12.6035 5.5H21.5C22.0525 5.5 22.5 5.9475 22.5 6.5V19.5C22.5 20.0525 22.0525 20.5 21.5 20.5H2.5C1.9475 20.5 1.5 20.0525 1.5 19.5V7.75C1.5 7.612 1.612 7.5 1.75 7.5H10.086C10.351 7.5 10.6055 7.3945 10.793 7.207Z" fill="url(#paint1_linear_206_6023)"/>
<path id="Vector_3" d="M24 19C24 21.761 21.761 24 19 24C16.239 24 14 21.761 14 19C14 16.239 16.239 14 19 14C21.761 14 24 16.239 24 19Z" fill="url(#paint2_linear_206_6023)"/>
<path id="Vector_4" d="M20.768 16.8785L21.1215 17.232C21.219 17.3295 21.219 17.488 21.1215 17.5855L17.586 21.121C17.4885 21.2185 17.33 21.2185 17.2325 21.121L16.879 20.7675C16.7815 20.67 16.7815 20.5115 16.879 20.414L20.4145 16.8785C20.512 16.781 20.67 16.781 20.768 16.8785Z" fill="white"/>
<path id="Vector_5" d="M21.1215 20.768L20.768 21.1215C20.6705 21.219 20.512 21.219 20.4145 21.1215L16.879 17.586C16.7815 17.4885 16.7815 17.33 16.879 17.2325L17.2325 16.879C17.33 16.7815 17.4885 16.7815 17.586 16.879L21.1215 20.4145C21.219 20.512 21.219 20.67 21.1215 20.768Z" fill="white"/>
</g>
<defs>
<linearGradient id="paint0_linear_206_6023" x1="12" y1="3.354" x2="12" y2="7.4885" gradientUnits="userSpaceOnUse">
<stop stop-color="#EBA600"/>
<stop offset="1" stop-color="#C28200"/>
</linearGradient>
<linearGradient id="paint1_linear_206_6023" x1="12" y1="5.427" x2="12" y2="20.4915" gradientUnits="userSpaceOnUse">
<stop stop-color="#FFD869"/>
<stop offset="1" stop-color="#FEC52B"/>
</linearGradient>
<linearGradient id="paint2_linear_206_6023" x1="15.4645" y1="15.4645" x2="22.5355" y2="22.535" gradientUnits="userSpaceOnUse">
<stop stop-color="#F44F5A"/>
<stop offset="0.443" stop-color="#EE3D4A"/>
<stop offset="1" stop-color="#E52030"/>
</linearGradient>
</defs>
</svg>
