<svg width="24" height="24" viewBox="0 0 24 24" fill="none" xmlns="http://www.w3.org/2000/svg">
<g id="flower-bouquet">
<path id="Vector" d="M18 8.49886H6L9.28438 21.7611C9.34156 21.9735 9.46715 22.1611 9.64171 22.2949C9.81628 22.4286 10.0301 22.5011 10.25 22.5011H13.7172C13.9372 22.5011 14.151 22.4286 14.3255 22.2949C14.5001 22.1611 14.6257 21.9735 14.6829 21.7611L18 8.49886Z" fill="url(#paint0_linear_206_6546)"/>
<path id="Vector_2" d="M15 8.49886H9L10.8532 21.6532C10.8895 21.8893 11.0091 22.1046 11.1904 22.2601C11.3717 22.4156 11.6027 22.5011 11.8415 22.5011H12.1257C12.3646 22.5011 12.5955 22.4156 12.7768 22.2601C12.9581 22.1046 13.0778 21.8893 13.1141 21.6532L15 8.49886Z" fill="url(#paint1_linear_206_6546)"/>
<path id="Vector_3" d="M7.002 5.99886C6.58339 5.99787 6.18154 6.1632 5.88483 6.4585C5.58813 6.75379 5.42088 7.15485 5.41988 7.57346C5.41988 8.44309 7.002 10.4977 7.002 10.4977C7.002 10.4977 8.58411 8.44309 8.58411 7.57346C8.58311 7.15485 8.41587 6.75379 8.11916 6.4585C7.82246 6.1632 7.4206 5.99787 7.002 5.99886Z" fill="url(#paint2_linear_206_6546)"/>
<path id="Vector_4" d="M10.9168 8.24828C10.7058 7.8862 10.3601 7.62236 9.95512 7.51438C9.55018 7.40639 9.11896 7.46305 8.75567 7.67198C7.99897 8.10679 7.00201 10.4977 7.00201 10.4977C7.00201 10.4977 9.58085 10.834 10.3376 10.3992C10.5173 10.2964 10.6749 10.1592 10.8014 9.99526C10.9278 9.83137 11.0207 9.64409 11.0745 9.4442C11.1283 9.2443 11.1421 9.03574 11.1151 8.8305C11.088 8.62526 11.0206 8.42739 10.9168 8.24828Z" fill="url(#paint3_linear_206_6546)"/>
<path id="Vector_5" d="M10.9168 12.7471C11.0207 12.568 11.088 12.3702 11.1151 12.1649C11.1422 11.9597 11.1284 11.7512 11.0746 11.5513C11.0208 11.3514 10.928 11.1641 10.8015 11.0002C10.6751 10.8363 10.5175 10.699 10.3378 10.5962C9.58085 10.1614 7.00201 10.4977 7.00201 10.4977C7.00201 10.4977 7.99874 12.8886 8.75544 13.3234C9.11878 13.5324 9.55002 13.589 9.95499 13.481C10.36 13.3731 10.7058 13.1092 10.9168 12.7471Z" fill="url(#paint4_linear_206_6546)"/>
<path id="Vector_6" d="M7.002 14.9966C7.4206 14.9976 7.82246 14.8322 8.11916 14.5369C8.41587 14.2416 8.58311 13.8406 8.58411 13.422C8.58411 12.5523 7.002 10.4977 7.002 10.4977C7.002 10.4977 5.41988 12.5523 5.41988 13.422C5.42088 13.8406 5.58813 14.2416 5.88483 14.5369C6.18154 14.8322 6.58339 14.9976 7.002 14.9966Z" fill="url(#paint5_linear_206_6546)"/>
<path id="Vector_7" d="M3.08718 12.7471C3.29821 13.1092 3.64396 13.3731 4.0489 13.481C4.45383 13.589 4.88505 13.5324 5.24835 13.3234C6.00527 12.8886 7.00201 10.4977 7.00201 10.4977C7.00201 10.4977 4.42316 10.1614 3.66646 10.5962C3.48674 10.699 3.32912 10.8363 3.20265 11.0002C3.07617 11.164 2.98335 11.3513 2.92952 11.5512C2.87568 11.7511 2.8619 11.9597 2.88895 12.1649C2.91601 12.3702 2.98338 12.568 3.08718 12.7471Z" fill="url(#paint6_linear_206_6546)"/>
<path id="Vector_8" d="M5.24858 7.67201C5.06948 7.56747 4.87151 7.49929 4.66602 7.47139C4.46053 7.44348 4.25156 7.45639 4.05107 7.50938C3.85057 7.56237 3.66251 7.65439 3.49764 7.78019C3.33277 7.90598 3.19434 8.06306 3.09028 8.24244C2.98622 8.42181 2.91857 8.61996 2.89121 8.82552C2.86385 9.03109 2.87732 9.24003 2.93085 9.44038C2.98437 9.64073 3.0769 9.82855 3.20313 9.99308C3.32936 10.1576 3.48681 10.2956 3.66646 10.3992C4.42316 10.834 7.00201 10.4977 7.00201 10.4977C7.00201 10.4977 5.69405 8.79693 5.45922 7.83551C5.39569 7.7729 5.32499 7.71802 5.24858 7.67201Z" fill="url(#paint7_linear_206_6546)"/>
<path id="Vector_9" d="M7.002 9.49886C6.80465 9.4998 6.612 9.55918 6.44836 9.66951C6.28473 9.77983 6.15744 9.93616 6.08257 10.1188C6.0077 10.3014 5.9886 10.502 6.02767 10.6955C6.06675 10.8889 6.16226 11.0665 6.30214 11.2057C6.44202 11.3449 6.62001 11.4396 6.81364 11.4777C7.00727 11.5159 7.20786 11.4958 7.3901 11.4201C7.57234 11.3443 7.72806 11.2163 7.83761 11.0521C7.94715 10.888 8.00562 10.6951 8.00562 10.4977C8.00495 10.2322 7.89885 9.97777 7.71064 9.79046C7.52243 9.60315 7.26753 9.49826 7.002 9.49886Z" fill="url(#paint8_linear_206_6546)"/>
<g id="Group">
<path id="Vector_10" d="M16.9979 5.99886C16.5793 5.99787 16.1775 6.1632 15.8808 6.4585C15.5841 6.75379 15.4168 7.15485 15.4158 7.57346C15.4158 8.44309 16.9979 10.4977 16.9979 10.4977C16.9979 10.4977 18.58 8.44309 18.58 7.57346C18.579 7.15485 18.4118 6.75379 18.1151 6.4585C17.8184 6.1632 17.4165 5.99787 16.9979 5.99886Z" fill="url(#paint9_linear_206_6546)"/>
<path id="Vector_11" d="M20.9128 8.24828C20.7017 7.8862 20.356 7.62236 19.951 7.51438C19.5461 7.40639 19.1149 7.46305 18.7516 7.67198C17.9949 8.10679 16.9979 10.4977 16.9979 10.4977C16.9979 10.4977 19.5768 10.834 20.3335 10.3992C20.5132 10.2964 20.6708 10.1592 20.7973 9.99526C20.9238 9.83137 21.0166 9.64409 21.0704 9.4442C21.1243 9.2443 21.138 9.03574 21.111 8.8305C21.0839 8.62526 21.0166 8.42739 20.9128 8.24828Z" fill="url(#paint10_linear_206_6546)"/>
<path id="Vector_12" d="M20.9128 12.7471C21.0166 12.568 21.084 12.3702 21.111 12.1649C21.1381 11.9597 21.1244 11.7512 21.0705 11.5513C21.0167 11.3514 20.9239 11.1641 20.7975 11.0002C20.671 10.8363 20.5134 10.699 20.3337 10.5962C19.5768 10.1614 16.9979 10.4977 16.9979 10.4977C16.9979 10.4977 17.9947 12.8886 18.7514 13.3234C19.1147 13.5324 19.5459 13.589 19.9509 13.481C20.3559 13.3731 20.7017 13.1092 20.9128 12.7471Z" fill="url(#paint11_linear_206_6546)"/>
<path id="Vector_13" d="M16.9979 14.9966C17.4165 14.9976 17.8184 14.8322 18.1151 14.5369C18.4118 14.2416 18.579 13.8406 18.58 13.422C18.58 12.5523 16.9979 10.4977 16.9979 10.4977C16.9979 10.4977 15.4158 12.5523 15.4158 13.422C15.4168 13.8406 15.5841 14.2416 15.8808 14.5369C16.1775 14.8322 16.5793 14.9976 16.9979 14.9966Z" fill="url(#paint12_linear_206_6546)"/>
<path id="Vector_14" d="M13.0831 12.7471C13.2941 13.1092 13.6399 13.3731 14.0448 13.481C14.4498 13.589 14.881 13.5324 15.2443 13.3234C16.0012 12.8886 16.9979 10.4977 16.9979 10.4977C16.9979 10.4977 14.4191 10.1614 13.6624 10.5962C13.4827 10.699 13.325 10.8363 13.1986 11.0002C13.0721 11.164 12.9793 11.3513 12.9254 11.5512C12.8716 11.7511 12.8578 11.9597 12.8849 12.1649C12.9119 12.3702 12.9793 12.568 13.0831 12.7471Z" fill="url(#paint13_linear_206_6546)"/>
<path id="Vector_15" d="M15.2445 7.672C15.0654 7.56754 14.8675 7.49943 14.662 7.47158C14.4566 7.44373 14.2476 7.45668 14.0472 7.50969C13.8467 7.5627 13.6587 7.65473 13.4939 7.7805C13.3291 7.90628 13.1907 8.06334 13.0866 8.24268C12.9826 8.42202 12.915 8.62012 12.8876 8.82564C12.8602 9.03116 12.8737 9.24006 12.9271 9.44038C12.9806 9.6407 13.0731 9.8285 13.1993 9.99303C13.3254 10.1576 13.4828 10.2956 13.6624 10.3992C14.4191 10.834 16.9979 10.4977 16.9979 10.4977C16.9979 10.4977 15.69 8.79692 15.4551 7.8355C15.3916 7.77289 15.3209 7.71801 15.2445 7.672Z" fill="url(#paint14_linear_206_6546)"/>
<path id="Vector_16" d="M16.9979 9.49886C16.8006 9.4998 16.6079 9.55918 16.4443 9.6695C16.2807 9.77983 16.1534 9.93616 16.0785 10.1188C16.0036 10.3014 15.9845 10.502 16.0236 10.6955C16.0627 10.8889 16.1582 11.0665 16.2981 11.2057C16.438 11.3449 16.6159 11.4396 16.8096 11.4777C17.0032 11.5159 17.2038 11.4958 17.386 11.4201C17.5683 11.3443 17.724 11.2163 17.8335 11.0522C17.9431 10.888 18.0016 10.6951 18.0016 10.4977C18.0009 10.2322 17.8948 9.97778 17.7066 9.79046C17.5184 9.60315 17.2635 9.49826 16.9979 9.49886Z" fill="url(#paint15_linear_206_6546)"/>
</g>
<g id="Group_2">
<path id="Vector_17" d="M12 1.50116C11.5816 1.50033 11.18 1.66575 10.8835 1.96105C10.587 2.25634 10.42 2.65731 10.4191 3.07576C10.4191 3.94539 12 6 12 6C12 6 13.5809 3.94537 13.5809 3.07574C13.5801 2.6573 13.4131 2.25633 13.1166 1.96104C12.8201 1.66575 12.4185 1.50033 12 1.50116Z" fill="url(#paint16_linear_206_6546)"/>
<path id="Vector_18" d="M15.9118 3.75059C15.7012 3.38858 15.3557 3.12472 14.951 3.01673C14.5464 2.90873 14.1154 2.96538 13.7523 3.17428C12.9962 3.6091 12 6 12 6C12 6 14.5769 6.33628 15.333 5.90147C15.5126 5.79862 15.6701 5.66128 15.7965 5.49737C15.9229 5.33346 16.0156 5.14619 16.0694 4.94632C16.1232 4.74646 16.137 4.53793 16.1099 4.33273C16.0829 4.12753 16.0156 3.92969 15.9118 3.75059Z" fill="url(#paint17_linear_206_6546)"/>
<path id="Vector_19" d="M15.9118 8.24944C16.0156 8.07035 16.0829 7.87253 16.11 7.66733C16.1371 7.46213 16.1233 7.25361 16.0696 7.05374C16.0158 6.85388 15.9231 6.6666 15.7967 6.50268C15.6703 6.33875 15.5128 6.20141 15.3332 6.09854C14.5769 5.66373 12 6.00004 12 6.00004C12 6.00004 12.996 8.39095 13.7521 8.82577C14.1152 9.03467 14.5462 9.09132 14.9509 8.98332C15.3556 8.87532 15.7011 8.61146 15.9118 8.24944Z" fill="url(#paint18_linear_206_6546)"/>
<path id="Vector_20" d="M12 10.4989C12.4185 10.4997 12.8201 10.3343 13.1166 10.039C13.4131 9.74368 13.5801 9.34271 13.5809 8.92427C13.5809 8.05464 12 6.00002 12 6.00002C12 6.00002 10.4191 8.05464 10.4191 8.92427C10.42 9.34271 10.587 9.74368 10.8835 10.039C11.18 10.3343 11.5816 10.4997 12 10.4989Z" fill="url(#paint19_linear_206_6546)"/>
<path id="Vector_21" d="M8.08823 8.24944C8.2989 8.61145 8.64435 8.8753 9.04903 8.9833C9.45372 9.09129 9.8847 9.03465 10.2477 8.82574C11.0041 8.39093 12 6 12 6C12 6 9.42318 5.66371 8.66704 6.0985C8.48742 6.20136 8.3299 6.3387 8.20352 6.50261C8.07714 6.66653 7.9844 6.85381 7.93061 7.05368C7.87683 7.25355 7.86307 7.46208 7.89011 7.66729C7.91716 7.87249 7.98449 8.07033 8.08823 8.24944Z" fill="url(#paint20_linear_206_6546)"/>
<path id="Vector_22" d="M10.248 3.17428C10.0689 3.07038 9.87109 3.00278 9.66588 2.97533C9.46067 2.94789 9.25207 2.96115 9.05199 3.01434C8.8519 3.06754 8.66426 3.15963 8.49977 3.28537C8.33529 3.4111 8.19719 3.56801 8.09336 3.74712C7.98953 3.92624 7.92201 4.12406 7.89465 4.32928C7.86728 4.5345 7.88062 4.7431 7.9339 4.94316C7.98718 5.14322 8.07935 5.33083 8.20514 5.49526C8.33094 5.6597 8.4879 5.79774 8.66706 5.90149C9.42318 6.3363 12.0001 6.00002 12.0001 6.00002C12.0001 6.00002 10.6931 4.29923 10.4585 3.33782C10.395 3.27521 10.3243 3.22031 10.248 3.17428Z" fill="url(#paint21_linear_206_6546)"/>
<path id="Vector_23" d="M12 5.00116C11.8027 5.00195 11.6099 5.0612 11.4462 5.17144C11.2825 5.28167 11.1551 5.43795 11.0801 5.62053C11.0051 5.80312 10.9859 6.00383 11.0249 6.19733C11.0638 6.39082 11.1593 6.56843 11.2991 6.70772C11.439 6.84701 11.617 6.94175 11.8106 6.97996C12.0043 7.01818 12.2049 6.99816 12.3872 6.92244C12.5695 6.84672 12.7253 6.71869 12.8348 6.55452C12.9444 6.39034 13.0029 6.19738 13.0029 6C13.0023 5.73457 12.8964 5.48023 12.7083 5.29292C12.5202 5.10561 12.2655 5.00066 12 5.00116Z" fill="url(#paint22_linear_206_6546)"/>
</g>
<g id="Group_3">
<path id="Vector_24" opacity="0.05" d="M15.415 13.4211C15.4196 13.3317 15.433 13.243 15.455 13.1561C15.3926 13.2202 15.322 13.2757 15.245 13.3211C15.066 13.426 14.8682 13.4944 14.6627 13.5226C14.4572 13.5508 14.2482 13.5382 14.0476 13.4855C13.847 13.4327 13.6588 13.3409 13.4938 13.2153C13.3288 13.0897 13.1901 12.9328 13.0859 12.7535C12.9816 12.5743 12.9137 12.3762 12.8862 12.1706C12.8586 11.9651 12.8718 11.7561 12.9252 11.5557C12.9785 11.3552 13.0709 11.1673 13.197 11.0027C13.3231 10.838 13.4804 10.6999 13.66 10.5961C13.7414 10.5543 13.8269 10.5208 13.915 10.4961C13.8264 10.4753 13.7407 10.4434 13.66 10.4011C13.4722 10.2902 13.3089 10.1422 13.18 9.96614C13.0328 10.1342 12.8513 10.2689 12.6478 10.3612C12.4443 10.4534 12.2234 10.5012 12 10.5012C11.7766 10.5012 11.5557 10.4534 11.3522 10.3612C11.1487 10.2689 10.9672 10.1342 10.82 9.96614C10.6911 10.1422 10.5278 10.2902 10.34 10.4011C10.2593 10.4434 10.1736 10.4753 10.085 10.4961C10.1731 10.5208 10.2586 10.5543 10.34 10.5961C10.5195 10.6999 10.6769 10.838 10.803 11.0027C10.9291 11.1673 11.0215 11.3552 11.0748 11.5557C11.1281 11.7561 11.1414 11.9651 11.1138 12.1706C11.0863 12.3762 11.0184 12.5743 10.9141 12.7535C10.8098 12.9328 10.6712 13.0897 10.5062 13.2153C10.3411 13.3409 10.1529 13.4327 9.95236 13.4855C9.75179 13.5382 9.54277 13.5508 9.3373 13.5226C9.13184 13.4944 8.93395 13.426 8.75499 13.3211C8.678 13.2757 8.60739 13.2202 8.54503 13.1561C8.56698 13.243 8.58035 13.3317 8.58495 13.4211C8.58494 13.7383 8.48893 14.0479 8.30954 14.3094C8.13015 14.5709 7.8758 14.772 7.57995 14.8861L7.64001 15.1312L7.70495 15.3762C8.01926 15.2624 8.30176 15.0751 8.52881 14.8297C8.75586 14.5844 8.92086 14.2883 9.01 13.9662C9.18471 14.0118 9.36446 14.0354 9.54504 14.0362C9.91046 14.0353 10.2693 13.9388 10.5859 13.7564C10.9025 13.5739 11.1659 13.3119 11.35 12.9962C11.4872 12.7614 11.5764 12.5017 11.6124 12.2322C11.6485 11.9627 11.6306 11.6887 11.56 11.4262C11.5081 11.2366 11.4307 11.0549 11.3299 10.8862C11.7635 11.0395 12.2365 11.0395 12.67 10.8862C12.5692 11.0549 12.4918 11.2366 12.44 11.4262C12.3693 11.6887 12.3515 11.9627 12.3875 12.2322C12.4236 12.5017 12.5128 12.7614 12.65 12.9962C12.834 13.3119 13.0974 13.5739 13.414 13.7564C13.7307 13.9388 14.0895 14.0353 14.4549 14.0362C14.6355 14.0354 14.8152 14.0118 14.9899 13.9662C15.0773 14.2865 15.2406 14.581 15.4661 14.8247C15.6915 15.0684 15.9724 15.2542 16.285 15.3662L16.3449 15.1262L16.405 14.8812C16.1129 14.7646 15.8625 14.5632 15.6861 14.303C15.5096 14.0427 15.4152 13.7356 15.415 13.4211Z" fill="black"/>
<path id="Vector_25" opacity="0.07" d="M15.415 13.4211C15.4196 13.3317 15.433 13.243 15.455 13.1561C15.3926 13.2202 15.322 13.2757 15.245 13.3211C15.066 13.426 14.8682 13.4944 14.6627 13.5226C14.4572 13.5508 14.2482 13.5382 14.0476 13.4855C13.847 13.4327 13.6588 13.3409 13.4938 13.2153C13.3288 13.0897 13.1901 12.9328 13.0859 12.7535C12.9816 12.5743 12.9137 12.3762 12.8862 12.1706C12.8586 11.9651 12.8718 11.7561 12.9252 11.5557C12.9785 11.3552 13.0709 11.1673 13.197 11.0027C13.3231 10.838 13.4804 10.6999 13.66 10.5961C13.7414 10.5543 13.8269 10.5208 13.915 10.4961C13.8264 10.4753 13.7407 10.4434 13.66 10.4011C13.4722 10.2902 13.3089 10.1422 13.18 9.96614C13.0328 10.1342 12.8513 10.2689 12.6478 10.3612C12.4443 10.4534 12.2234 10.5012 12 10.5012C11.7766 10.5012 11.5557 10.4534 11.3522 10.3612C11.1487 10.2689 10.9672 10.1342 10.82 9.96614C10.6911 10.1422 10.5278 10.2902 10.34 10.4011C10.2593 10.4434 10.1736 10.4753 10.085 10.4961C10.1731 10.5208 10.2586 10.5543 10.34 10.5961C10.5195 10.6999 10.6769 10.838 10.803 11.0027C10.9291 11.1673 11.0215 11.3552 11.0748 11.5557C11.1281 11.7561 11.1414 11.9651 11.1138 12.1706C11.0863 12.3762 11.0184 12.5743 10.9141 12.7535C10.8098 12.9328 10.6712 13.0897 10.5062 13.2153C10.3411 13.3409 10.1529 13.4327 9.95236 13.4855C9.75179 13.5382 9.54277 13.5508 9.3373 13.5226C9.13184 13.4944 8.93395 13.426 8.75499 13.3211C8.678 13.2757 8.60739 13.2202 8.54503 13.1561C8.56698 13.243 8.58035 13.3317 8.58495 13.4211C8.58494 13.7383 8.48893 14.0479 8.30954 14.3094C8.13015 14.5709 7.8758 14.772 7.57995 14.8861L7.64001 15.1312C7.9556 15.0153 8.23293 14.8143 8.44122 14.5504C8.64951 14.2865 8.78062 13.97 8.82001 13.6362C9.04952 13.7332 9.29587 13.7842 9.54505 13.7862C9.86688 13.7858 10.183 13.7011 10.4619 13.5405C10.7409 13.38 10.9729 13.1492 11.135 12.8712C11.3564 12.4835 11.4288 12.0284 11.3386 11.5911C11.2484 11.1539 11.0018 10.7646 10.645 10.4962C10.7136 10.4439 10.7788 10.3871 10.84 10.3262C11.1642 10.6006 11.5752 10.7512 12 10.7512C12.4248 10.7512 12.8358 10.6006 13.16 10.3262C13.2212 10.3871 13.2863 10.4439 13.355 10.4962C12.9982 10.7646 12.7516 11.1539 12.6614 11.5911C12.5712 12.0284 12.6436 12.4835 12.865 12.8712C13.027 13.1492 13.2591 13.38 13.538 13.5405C13.817 13.7011 14.1331 13.7858 14.4549 13.7862C14.7041 13.7842 14.9505 13.7332 15.18 13.6361C15.2205 13.9669 15.3503 14.2804 15.5556 14.5429C15.7609 14.8054 16.0338 15.0071 16.345 15.1261L16.4051 14.8811C16.113 14.7646 15.8626 14.5632 15.6861 14.303C15.5096 14.0427 15.4152 13.7356 15.415 13.4211Z" fill="black"/>
</g>
</g>
<defs>
<linearGradient id="paint0_linear_206_6546" x1="7.7574" y1="10.5495" x2="17.5417" y2="18.9347" gradientUnits="userSpaceOnUse">
<stop stop-color="#21AD64"/>
<stop offset="1" stop-color="#088242"/>
</linearGradient>
<linearGradient id="paint1_linear_206_6546" x1="9.6635" y1="6.139" x2="15.6185" y2="22.5005" gradientUnits="userSpaceOnUse">
<stop stop-color="#21AD64"/>
<stop offset="1" stop-color="#088242"/>
</linearGradient>
<linearGradient id="paint2_linear_206_6546" x1="5.4935" y1="8.2485" x2="8.5335" y2="8.2485" gradientUnits="userSpaceOnUse">
<stop stop-color="#F44F5A"/>
<stop offset="0.443" stop-color="#EE3D4A"/>
<stop offset="1" stop-color="#E52030"/>
</linearGradient>
<linearGradient id="paint3_linear_206_6546" x1="8.291" y1="7.77949" x2="9.5145" y2="10.6675" gradientUnits="userSpaceOnUse">
<stop stop-color="#F44F5A"/>
<stop offset="0.443" stop-color="#EE3D4A"/>
<stop offset="1" stop-color="#E52030"/>
</linearGradient>
<linearGradient id="paint4_linear_206_6546" x1="9.747" y1="10.244" x2="8.14" y2="13.0565" gradientUnits="userSpaceOnUse">
<stop stop-color="#F44F5A"/>
<stop offset="0.443" stop-color="#EE3D4A"/>
<stop offset="1" stop-color="#E52030"/>
</linearGradient>
<linearGradient id="paint5_linear_206_6546" x1="8.643" y1="12.7475" x2="5.377" y2="12.7475" gradientUnits="userSpaceOnUse">
<stop stop-color="#F44F5A"/>
<stop offset="0.443" stop-color="#EE3D4A"/>
<stop offset="1" stop-color="#E52030"/>
</linearGradient>
<linearGradient id="paint6_linear_206_6546" x1="5.8525" y1="12.991" x2="4.226" y2="10.2355" gradientUnits="userSpaceOnUse">
<stop stop-color="#F44F5A"/>
<stop offset="0.443" stop-color="#EE3D4A"/>
<stop offset="1" stop-color="#E52030"/>
</linearGradient>
<linearGradient id="paint7_linear_206_6546" x1="4.236" y1="10.788" x2="5.767" y2="8.10901" gradientUnits="userSpaceOnUse">
<stop stop-color="#F44F5A"/>
<stop offset="0.443" stop-color="#EE3D4A"/>
<stop offset="1" stop-color="#E52030"/>
</linearGradient>
<linearGradient id="paint8_linear_206_6546" x1="6.065" y1="9.561" x2="7.7085" y2="11.2045" gradientUnits="userSpaceOnUse">
<stop stop-color="#FED100"/>
<stop offset="1" stop-color="#E36001"/>
</linearGradient>
<linearGradient id="paint9_linear_206_6546" x1="15.4895" y1="8.2485" x2="18.5295" y2="8.2485" gradientUnits="userSpaceOnUse">
<stop stop-color="#F44F5A"/>
<stop offset="0.443" stop-color="#EE3D4A"/>
<stop offset="1" stop-color="#E52030"/>
</linearGradient>
<linearGradient id="paint10_linear_206_6546" x1="18.2865" y1="7.77949" x2="19.5105" y2="10.6675" gradientUnits="userSpaceOnUse">
<stop stop-color="#F44F5A"/>
<stop offset="0.443" stop-color="#EE3D4A"/>
<stop offset="1" stop-color="#E52030"/>
</linearGradient>
<linearGradient id="paint11_linear_206_6546" x1="19.743" y1="10.244" x2="18.136" y2="13.0565" gradientUnits="userSpaceOnUse">
<stop stop-color="#F44F5A"/>
<stop offset="0.443" stop-color="#EE3D4A"/>
<stop offset="1" stop-color="#E52030"/>
</linearGradient>
<linearGradient id="paint12_linear_206_6546" x1="18.639" y1="12.7475" x2="15.373" y2="12.7475" gradientUnits="userSpaceOnUse">
<stop stop-color="#F44F5A"/>
<stop offset="0.443" stop-color="#EE3D4A"/>
<stop offset="1" stop-color="#E52030"/>
</linearGradient>
<linearGradient id="paint13_linear_206_6546" x1="15.8485" y1="12.991" x2="14.222" y2="10.2355" gradientUnits="userSpaceOnUse">
<stop stop-color="#F44F5A"/>
<stop offset="0.443" stop-color="#EE3D4A"/>
<stop offset="1" stop-color="#E52030"/>
</linearGradient>
<linearGradient id="paint14_linear_206_6546" x1="14.232" y1="10.788" x2="15.763" y2="8.109" gradientUnits="userSpaceOnUse">
<stop stop-color="#F44F5A"/>
<stop offset="0.443" stop-color="#EE3D4A"/>
<stop offset="1" stop-color="#E52030"/>
</linearGradient>
<linearGradient id="paint15_linear_206_6546" x1="16.061" y1="9.561" x2="17.7045" y2="11.2045" gradientUnits="userSpaceOnUse">
<stop stop-color="#FED100"/>
<stop offset="1" stop-color="#E36001"/>
</linearGradient>
<linearGradient id="paint16_linear_206_6546" x1="10.493" y1="3.751" x2="13.5305" y2="3.751" gradientUnits="userSpaceOnUse">
<stop stop-color="#2AA4F4"/>
<stop offset="1" stop-color="#007AD9"/>
</linearGradient>
<linearGradient id="paint17_linear_206_6546" x1="13.2875" y1="3.282" x2="14.511" y2="6.1695" gradientUnits="userSpaceOnUse">
<stop stop-color="#2AA4F4"/>
<stop offset="1" stop-color="#007AD9"/>
</linearGradient>
<linearGradient id="paint18_linear_206_6546" x1="14.7435" y1="5.747" x2="13.1365" y2="8.559" gradientUnits="userSpaceOnUse">
<stop stop-color="#2AA4F4"/>
<stop offset="1" stop-color="#007AD9"/>
</linearGradient>
<linearGradient id="paint19_linear_206_6546" x1="13.6395" y1="8.2495" x2="10.376" y2="8.2495" gradientUnits="userSpaceOnUse">
<stop stop-color="#2AA4F4"/>
<stop offset="1" stop-color="#007AD9"/>
</linearGradient>
<linearGradient id="paint20_linear_206_6546" x1="10.852" y1="8.4935" x2="9.2255" y2="5.7385" gradientUnits="userSpaceOnUse">
<stop stop-color="#2AA4F4"/>
<stop offset="1" stop-color="#007AD9"/>
</linearGradient>
<linearGradient id="paint21_linear_206_6546" x1="9.236" y1="6.28999" x2="10.7665" y2="3.61149" gradientUnits="userSpaceOnUse">
<stop stop-color="#2AA4F4"/>
<stop offset="1" stop-color="#007AD9"/>
</linearGradient>
<linearGradient id="paint22_linear_206_6546" x1="11.0635" y1="5.0635" x2="12.706" y2="6.7065" gradientUnits="userSpaceOnUse">
<stop stop-color="#FED100"/>
<stop offset="1" stop-color="#E36001"/>
</linearGradient>
</defs>
</svg>
