<svg width="24" height="24" viewBox="0 0 24 24" fill="none" xmlns="http://www.w3.org/2000/svg">
<g id="increase-profits">
<path id="Vector" d="M4.5 10.5C4.3535 10.5 4.208 10.436 4.1095 10.3125C3.937 10.097 3.972 9.782 4.1875 9.61L9.1875 5.61C9.3285 5.497 9.5185 5.47 9.6855 5.536L14.415 7.428L19.1875 3.61C19.4025 3.4375 19.718 3.4725 19.89 3.688C20.0625 3.9035 20.0275 4.2185 19.812 4.3905L14.812 8.3905C14.671 8.503 14.481 8.5305 14.314 8.4645L9.5845 6.5725L4.812 10.3905C4.72 10.464 4.61 10.5 4.5 10.5Z" fill="url(#paint0_linear_206_6905)"/>
<path id="Vector_2" d="M4.5 20.5C4.77614 20.5 5 20.2761 5 20C5 19.7239 4.77614 19.5 4.5 19.5C4.22386 19.5 4 19.7239 4 20C4 20.2761 4.22386 20.5 4.5 20.5Z" fill="#64717C"/>
<path id="Vector_3" d="M4.5 18.5C4.77614 18.5 5 18.2761 5 18C5 17.7239 4.77614 17.5 4.5 17.5C4.22386 17.5 4 17.7239 4 18C4 18.2761 4.22386 18.5 4.5 18.5Z" fill="#64717C"/>
<path id="Vector_4" d="M4.5 16.5C4.77614 16.5 5 16.2761 5 16C5 15.7239 4.77614 15.5 4.5 15.5C4.22386 15.5 4 15.7239 4 16C4 16.2761 4.22386 16.5 4.5 16.5Z" fill="#64717C"/>
<path id="Vector_5" d="M4.5 14.5C4.77614 14.5 5 14.2761 5 14C5 13.7239 4.77614 13.5 4.5 13.5C4.22386 13.5 4 13.7239 4 14C4 14.2761 4.22386 14.5 4.5 14.5Z" fill="#64717C"/>
<path id="Vector_6" d="M9.5 20.5C9.77614 20.5 10 20.2761 10 20C10 19.7239 9.77614 19.5 9.5 19.5C9.22386 19.5 9 19.7239 9 20C9 20.2761 9.22386 20.5 9.5 20.5Z" fill="#64717C"/>
<path id="Vector_7" d="M9.5 18.5C9.77614 18.5 10 18.2761 10 18C10 17.7239 9.77614 17.5 9.5 17.5C9.22386 17.5 9 17.7239 9 18C9 18.2761 9.22386 18.5 9.5 18.5Z" fill="#64717C"/>
<path id="Vector_8" d="M9.5 16.5C9.77614 16.5 10 16.2761 10 16C10 15.7239 9.77614 15.5 9.5 15.5C9.22386 15.5 9 15.7239 9 16C9 16.2761 9.22386 16.5 9.5 16.5Z" fill="#64717C"/>
<path id="Vector_9" d="M9.5 12.5C9.77614 12.5 10 12.2761 10 12C10 11.7239 9.77614 11.5 9.5 11.5C9.22386 11.5 9 11.7239 9 12C9 12.2761 9.22386 12.5 9.5 12.5Z" fill="#64717C"/>
<path id="Vector_10" d="M4.5 12.5C4.77614 12.5 5 12.2761 5 12C5 11.7239 4.77614 11.5 4.5 11.5C4.22386 11.5 4 11.7239 4 12C4 12.2761 4.22386 12.5 4.5 12.5Z" fill="#64717C"/>
<path id="Vector_11" d="M9.5 14.5C9.77614 14.5 10 14.2761 10 14C10 13.7239 9.77614 13.5 9.5 13.5C9.22386 13.5 9 13.7239 9 14C9 14.2761 9.22386 14.5 9.5 14.5Z" fill="#64717C"/>
<path id="Vector_12" d="M9.5 10.5C9.77614 10.5 10 10.2761 10 10C10 9.72386 9.77614 9.5 9.5 9.5C9.22386 9.5 9 9.72386 9 10C9 10.2761 9.22386 10.5 9.5 10.5Z" fill="#64717C"/>
<path id="Vector_13" d="M4.5 10.5C4.77614 10.5 5 10.2761 5 10C5 9.72386 4.77614 9.5 4.5 9.5C4.22386 9.5 4 9.72386 4 10C4 10.2761 4.22386 10.5 4.5 10.5Z" fill="#64717C"/>
<path id="Vector_14" d="M9.5 8.5C9.77614 8.5 10 8.27614 10 8C10 7.72386 9.77614 7.5 9.5 7.5C9.22386 7.5 9 7.72386 9 8C9 8.27614 9.22386 8.5 9.5 8.5Z" fill="#64717C"/>
<path id="Vector_15" d="M14.5 20.5C14.7761 20.5 15 20.2761 15 20C15 19.7239 14.7761 19.5 14.5 19.5C14.2239 19.5 14 19.7239 14 20C14 20.2761 14.2239 20.5 14.5 20.5Z" fill="#64717C"/>
<path id="Vector_16" d="M14.5 18.5C14.7761 18.5 15 18.2761 15 18C15 17.7239 14.7761 17.5 14.5 17.5C14.2239 17.5 14 17.7239 14 18C14 18.2761 14.2239 18.5 14.5 18.5Z" fill="#64717C"/>
<path id="Vector_17" d="M14.5 16.5C14.7761 16.5 15 16.2761 15 16C15 15.7239 14.7761 15.5 14.5 15.5C14.2239 15.5 14 15.7239 14 16C14 16.2761 14.2239 16.5 14.5 16.5Z" fill="#64717C"/>
<path id="Vector_18" d="M14.5 12.5C14.7761 12.5 15 12.2761 15 12C15 11.7239 14.7761 11.5 14.5 11.5C14.2239 11.5 14 11.7239 14 12C14 12.2761 14.2239 12.5 14.5 12.5Z" fill="#64717C"/>
<path id="Vector_19" d="M14.5 14.5C14.7761 14.5 15 14.2761 15 14C15 13.7239 14.7761 13.5 14.5 13.5C14.2239 13.5 14 13.7239 14 14C14 14.2761 14.2239 14.5 14.5 14.5Z" fill="#64717C"/>
<path id="Vector_20" d="M19.5 20.5C19.7761 20.5 20 20.2761 20 20C20 19.7239 19.7761 19.5 19.5 19.5C19.2239 19.5 19 19.7239 19 20C19 20.2761 19.2239 20.5 19.5 20.5Z" fill="#64717C"/>
<path id="Vector_21" d="M19.5 18.5C19.7761 18.5 20 18.2761 20 18C20 17.7239 19.7761 17.5 19.5 17.5C19.2239 17.5 19 17.7239 19 18C19 18.2761 19.2239 18.5 19.5 18.5Z" fill="#64717C"/>
<path id="Vector_22" d="M19.5 16.5C19.7761 16.5 20 16.2761 20 16C20 15.7239 19.7761 15.5 19.5 15.5C19.2239 15.5 19 15.7239 19 16C19 16.2761 19.2239 16.5 19.5 16.5Z" fill="#64717C"/>
<path id="Vector_23" d="M19.5 12.5C19.7761 12.5 20 12.2761 20 12C20 11.7239 19.7761 11.5 19.5 11.5C19.2239 11.5 19 11.7239 19 12C19 12.2761 19.2239 12.5 19.5 12.5Z" fill="#64717C"/>
<path id="Vector_24" d="M19.5 14.5C19.7761 14.5 20 14.2761 20 14C20 13.7239 19.7761 13.5 19.5 13.5C19.2239 13.5 19 13.7239 19 14C19 14.2761 19.2239 14.5 19.5 14.5Z" fill="#64717C"/>
<path id="Vector_25" d="M19.5 10.5C19.7761 10.5 20 10.2761 20 10C20 9.72386 19.7761 9.5 19.5 9.5C19.2239 9.5 19 9.72386 19 10C19 10.2761 19.2239 10.5 19.5 10.5Z" fill="#64717C"/>
<path id="Vector_26" d="M14.5 10.5C14.7761 10.5 15 10.2761 15 10C15 9.72386 14.7761 9.5 14.5 9.5C14.2239 9.5 14 9.72386 14 10C14 10.2761 14.2239 10.5 14.5 10.5Z" fill="#64717C"/>
<path id="Vector_27" d="M19.5 8.5C19.7761 8.5 20 8.27614 20 8C20 7.72386 19.7761 7.5 19.5 7.5C19.2239 7.5 19 7.72386 19 8C19 8.27614 19.2239 8.5 19.5 8.5Z" fill="#64717C"/>
<path id="Vector_28" d="M14.5 8.5C14.7761 8.5 15 8.27614 15 8C15 7.72386 14.7761 7.5 14.5 7.5C14.2239 7.5 14 7.72386 14 8C14 8.27614 14.2239 8.5 14.5 8.5Z" fill="#64717C"/>
<path id="Vector_29" d="M19.5 6.5C19.7761 6.5 20 6.27614 20 6C20 5.72386 19.7761 5.5 19.5 5.5C19.2239 5.5 19 5.72386 19 6C19 6.27614 19.2239 6.5 19.5 6.5Z" fill="#64717C"/>
<path id="Vector_30" d="M21 20H3C2.724 20 2.5 20.224 2.5 20.5C2.5 20.776 2.724 21 3 21H21C21.276 21 21.5 20.776 21.5 20.5C21.5 20.224 21.276 20 21 20Z" fill="#ABB4BE"/>
<path id="Vector_31" d="M4.5 11C5.05228 11 5.5 10.5523 5.5 10C5.5 9.44772 5.05228 9 4.5 9C3.94772 9 3.5 9.44772 3.5 10C3.5 10.5523 3.94772 11 4.5 11Z" fill="#33C481"/>
<path id="Vector_32" d="M9.5 7C10.0523 7 10.5 6.55228 10.5 6C10.5 5.44772 10.0523 5 9.5 5C8.94772 5 8.5 5.44772 8.5 6C8.5 6.55228 8.94772 7 9.5 7Z" fill="#33C481"/>
<path id="Vector_33" d="M14.5 9C15.0523 9 15.5 8.55228 15.5 8C15.5 7.44772 15.0523 7 14.5 7C13.9477 7 13.5 7.44772 13.5 8C13.5 8.55228 13.9477 9 14.5 9Z" fill="#33C481"/>
<path id="Vector_34" d="M19.5 5C20.0523 5 20.5 4.55228 20.5 4C20.5 3.44772 20.0523 3 19.5 3C18.9477 3 18.5 3.44772 18.5 4C18.5 4.55228 18.9477 5 19.5 5Z" fill="#33C481"/>
</g>
<defs>
<linearGradient id="paint0_linear_206_6905" x1="6.34307" y1="4.52552" x2="9.97795" y2="12.8341" gradientUnits="userSpaceOnUse">
<stop stop-color="#21AD64"/>
<stop offset="1" stop-color="#088242"/>
</linearGradient>
</defs>
</svg>
