<svg width="24" height="24" viewBox="0 0 24 24" fill="none" xmlns="http://www.w3.org/2000/svg">
<g id="linux-server">
<path id="Vector" d="M20.5 17.5H3.5C2.9475 17.5 2.5 17.0525 2.5 16.5V4.5C2.5 3.9475 2.9475 3.5 3.5 3.5H20.5C21.0525 3.5 21.5 3.9475 21.5 4.5V16.5C21.5 17.0525 21.0525 17.5 20.5 17.5Z" fill="url(#paint0_linear_206_7238)"/>
<path id="Vector_2" d="M20.5 4.5H3.5V16.5H20.5V4.5Z" fill="url(#paint1_radial_206_7238)"/>
<path id="Vector_3" d="M14 17.5H10V19.5H14V17.5Z" fill="url(#paint2_linear_206_7238)"/>
<path id="Vector_4" d="M16.5 19H7.5C7.224 19 7 19.224 7 19.5V20.5C7 20.776 7.224 21 7.5 21H16.5C16.776 21 17 20.776 17 20.5V19.5C17 19.224 16.776 19 16.5 19Z" fill="url(#paint3_linear_206_7238)"/>
<path id="Vector_5" opacity="0.05" d="M13.5 7C12.818 7 12.321 7.3405 12 7.6695C11.679 7.3405 11.182 7 10.5 7C9.397 7 8.5 7.897 8.5 9V12.5C8.5 13.327 9.173 14 10 14H14C14.827 14 15.5 13.327 15.5 12.5V9C15.5 7.897 14.603 7 13.5 7Z" fill="black"/>
<path id="Vector_6" opacity="0.07" d="M13.5 7.25C12.7585 7.25 12.2625 7.711 12 8.0465C11.7375 7.711 11.2415 7.25 10.5 7.25C9.535 7.25 8.75 8.035 8.75 9V12.5C8.75 13.1895 9.311 13.75 10 13.75H14C14.689 13.75 15.25 13.1895 15.25 12.5V9C15.25 8.035 14.465 7.25 13.5 7.25Z" fill="black"/>
<path id="Vector_7" d="M13.5 7.5C12.5 7.5 12 8.5 12 8.5C12 8.5 11.5 7.5 10.5 7.5C9.6715 7.5 9 8.1715 9 9V12.5C9 13.0525 9.4475 13.5 10 13.5H14C14.5525 13.5 15 13.0525 15 12.5V9C15 8.1715 14.3285 7.5 13.5 7.5ZM10.5 10.5C10.224 10.5 10 10.276 10 10C10 9.724 10.224 9.5 10.5 9.5C10.776 9.5 11 9.724 11 10C11 10.276 10.776 10.5 10.5 10.5ZM13.0055 11.6875L12.3295 12.3635C12.1475 12.5455 11.8525 12.5455 11.6705 12.3635L10.9945 11.6875C10.925 11.618 10.974 11.5 11.072 11.5H12.928C13.026 11.5 13.075 11.618 13.0055 11.6875ZM13.5 10.5C13.224 10.5 13 10.276 13 10C13 9.724 13.224 9.5 13.5 9.5C13.776 9.5 14 9.724 14 10C14 10.276 13.776 10.5 13.5 10.5Z" fill="white"/>
</g>
<defs>
<linearGradient id="paint0_linear_206_7238" x1="4.3315" y1="4.0295" x2="19.061" y2="16.4575" gradientUnits="userSpaceOnUse">
<stop stop-color="#A1AAB3"/>
<stop offset="1" stop-color="#8F979E"/>
</linearGradient>
<radialGradient id="paint1_radial_206_7238" cx="0" cy="0" r="1" gradientUnits="userSpaceOnUse" gradientTransform="translate(23.5414 29.4673) scale(34.9077 30.9965)">
<stop offset="0.323" stop-color="#23D9D6"/>
<stop offset="0.427" stop-color="#23D4D7"/>
<stop offset="0.542" stop-color="#21C7DC"/>
<stop offset="0.664" stop-color="#1FB0E2"/>
<stop offset="0.789" stop-color="#1C91EC"/>
<stop offset="0.917" stop-color="#1969F8"/>
<stop offset="0.944" stop-color="#1860FB"/>
</radialGradient>
<linearGradient id="paint2_linear_206_7238" x1="12" y1="17.496" x2="12" y2="19.504" gradientUnits="userSpaceOnUse">
<stop stop-color="#484B4F"/>
<stop offset="0.23" stop-color="#656D75"/>
<stop offset="0.367" stop-color="#727D86"/>
</linearGradient>
<linearGradient id="paint3_linear_206_7238" x1="12" y1="18.996" x2="12" y2="21.004" gradientUnits="userSpaceOnUse">
<stop stop-color="#A1AAB3"/>
<stop offset="1" stop-color="#8F979E"/>
</linearGradient>
</defs>
</svg>
