<svg width="24" height="24" viewBox="0 0 24 24" fill="none" xmlns="http://www.w3.org/2000/svg">
<g id="receipt-dollar">
<path id="Vector" d="M18.5 2.5C18.5 2.776 18.276 3 18 3C17.724 3 17.5 2.776 17.5 2.5H16.5C16.5 2.776 16.276 3 16 3C15.724 3 15.5 2.776 15.5 2.5H14.5C14.5 2.776 14.276 3 14 3C13.724 3 13.5 2.776 13.5 2.5H12.5C12.5 2.776 12.276 3 12 3C11.724 3 11.5 2.776 11.5 2.5H10.5C10.5 2.776 10.276 3 10 3C9.724 3 9.5 2.776 9.5 2.5H8.5C8.5 2.776 8.276 3 8 3C7.724 3 7.5 2.776 7.5 2.5H6.5C6.5 2.776 6.276 3 6 3C5.724 3 5.5 2.776 5.5 2.5H5C4.724 2.5 4.5 2.724 4.5 3V20.5C4.5 21.0525 4.9475 21.5 5.5 21.5H18.5C19.0525 21.5 19.5 21.0525 19.5 20.5V3C19.5 2.724 19.276 2.5 19 2.5H18.5Z" fill="url(#paint0_linear_206_8313)"/>
<path id="Vector_2" d="M17.25 6.5H6.75C6.612 6.5 6.5 6.388 6.5 6.25V5.25C6.5 5.112 6.612 5 6.75 5H17.25C17.388 5 17.5 5.112 17.5 5.25V6.25C17.5 6.388 17.388 6.5 17.25 6.5Z" fill="#057093"/>
<path id="Vector_3" d="M17.25 10H16.25C16.112 10 16 9.888 16 9.75V9.25C16 9.112 16.112 9 16.25 9H17.25C17.388 9 17.5 9.112 17.5 9.25V9.75C17.5 9.888 17.388 10 17.25 10Z" fill="#057093"/>
<path id="Vector_4" d="M13.25 10H6.75C6.612 10 6.5 9.888 6.5 9.75V9.25C6.5 9.112 6.612 9 6.75 9H13.25C13.388 9 13.5 9.112 13.5 9.25V9.75C13.5 9.888 13.388 10 13.25 10Z" fill="#057093"/>
<path id="Vector_5" d="M17.25 12H16.25C16.112 12 16 11.888 16 11.75V11.25C16 11.112 16.112 11 16.25 11H17.25C17.388 11 17.5 11.112 17.5 11.25V11.75C17.5 11.888 17.388 12 17.25 12Z" fill="#057093"/>
<path id="Vector_6" d="M11.75 12H6.75C6.612 12 6.5 11.888 6.5 11.75V11.25C6.5 11.112 6.612 11 6.75 11H11.75C11.888 11 12 11.112 12 11.25V11.75C12 11.888 11.888 12 11.75 12Z" fill="#057093"/>
<path id="Vector_7" d="M17.25 14H16.25C16.112 14 16 13.888 16 13.75V13.25C16 13.112 16.112 13 16.25 13H17.25C17.388 13 17.5 13.112 17.5 13.25V13.75C17.5 13.888 17.388 14 17.25 14Z" fill="#057093"/>
<path id="Vector_8" d="M13.25 14H6.75C6.612 14 6.5 13.888 6.5 13.75V13.25C6.5 13.112 6.612 13 6.75 13H13.25C13.388 13 13.5 13.112 13.5 13.25V13.75C13.5 13.888 13.388 14 13.25 14Z" fill="#057093"/>
<path id="Vector_9" d="M17.25 16H16.25C16.112 16 16 15.888 16 15.75V15.25C16 15.112 16.112 15 16.25 15H17.25C17.388 15 17.5 15.112 17.5 15.25V15.75C17.5 15.888 17.388 16 17.25 16Z" fill="#057093"/>
<path id="Vector_10" d="M11.75 16H6.75C6.612 16 6.5 15.888 6.5 15.75V15.25C6.5 15.112 6.612 15 6.75 15H11.75C11.888 15 12 15.112 12 15.25V15.75C12 15.888 11.888 16 11.75 16Z" fill="#057093"/>
<path id="Vector_11" d="M17.25 19H15.25C15.112 19 15 18.888 15 18.75V18.25C15 18.112 15.112 18 15.25 18H17.25C17.388 18 17.5 18.112 17.5 18.25V18.75C17.5 18.888 17.388 19 17.25 19Z" fill="#057093"/>
<path id="Vector_12" d="M13.25 19H8.75C8.612 19 8.5 18.888 8.5 18.75V18.25C8.5 18.112 8.612 18 8.75 18H13.25C13.388 18 13.5 18.112 13.5 18.25V18.75C13.5 18.888 13.388 19 13.25 19Z" fill="#057093"/>
<path id="Vector_13" d="M19 13C15.6915 13 13 15.6915 13 19C13 19.893 13.2015 20.738 13.5525 21.5H18.5C19.0525 21.5 19.5 21.0525 19.5 20.5V13.0255C19.3345 13.0115 19.169 13 19 13Z" fill="url(#paint1_radial_206_8313)"/>
<path id="Vector_14" d="M19 24C21.7614 24 24 21.7614 24 19C24 16.2386 21.7614 14 19 14C16.2386 14 14 16.2386 14 19C14 21.7614 16.2386 24 19 24Z" fill="url(#paint2_linear_206_8313)"/>
<path id="Vector_15" opacity="0.05" d="M18.875 23.001C18.5305 23.001 18.25 22.7205 18.25 22.376V22.178C17.888 22.1135 17.5255 22.0095 17.2285 21.8835C16.937 21.7585 16.7495 21.4755 16.7495 21.162V20.5665C16.7495 20.2015 17.046 19.904 17.4105 19.904C17.5135 19.904 17.617 19.929 17.7095 19.976C17.86 20.053 18.3945 20.3025 19 20.3025C19.261 20.3025 19.322 20.246 19.3225 20.245C19.2735 20.1455 18.8395 19.9845 18.631 19.9075C17.8475 19.6175 16.6625 19.179 16.6625 17.75C16.6625 16.767 17.2515 16.048 18.2495 15.7925V15.625C18.2495 15.2805 18.53 15 18.8745 15H19.1245C19.469 15 19.7495 15.2805 19.7495 15.625V15.736C20.046 15.77 20.296 15.828 20.5095 15.911C20.625 15.9565 21 16.1465 21 16.698V17.2215C21 17.586 20.703 17.8825 20.338 17.8825C20.2395 17.8825 20.1435 17.861 20.0535 17.8185C19.8625 17.729 19.471 17.5785 19 17.5785C18.8815 17.5785 18.681 17.5965 18.681 17.6625C18.681 17.7825 19.169 17.972 19.431 18.0735C20.191 18.369 21.3375 18.8145 21.3375 20.1735C21.3375 20.9305 20.917 21.8775 19.7505 22.1645V22.3755C19.7505 22.72 19.47 23.0005 19.1255 23.0005L18.875 23.001Z" fill="black"/>
<path id="Vector_16" opacity="0.05" d="M18.875 22.751C18.6685 22.751 18.5 22.583 18.5 22.376V21.964C18.093 21.9095 17.6675 21.798 17.326 21.653C17.1275 21.568 16.9995 21.375 16.9995 21.162V20.5665C16.9995 20.339 17.184 20.154 17.4105 20.154C17.4745 20.154 17.539 20.1695 17.596 20.1985C17.7585 20.282 18.3375 20.5525 19 20.5525C19.569 20.5525 19.569 20.3165 19.569 20.2275C19.569 20.0045 19.2475 19.8695 18.718 19.673C17.9565 19.391 16.913 19.0045 16.913 17.7495C16.913 16.6635 17.6955 16.1405 18.5 15.993V15.625C18.5 15.418 18.6685 15.25 18.875 15.25H19.125C19.3315 15.25 19.5 15.418 19.5 15.625V15.964C19.875 15.9905 20.177 16.05 20.419 16.144C20.519 16.1835 20.7505 16.315 20.7505 16.698V17.2215C20.7505 17.448 20.5655 17.6325 20.3385 17.6325C20.2765 17.6325 20.217 17.619 20.1605 17.592C19.9505 17.4935 19.5205 17.3285 19.0005 17.3285C18.623 17.3285 18.4315 17.441 18.4315 17.6625C18.4315 17.934 18.7755 18.087 19.341 18.307C20.078 18.5935 21.0875 18.9855 21.0875 20.174C21.0875 20.896 20.6665 21.7675 19.5005 21.9615V22.3765C19.5005 22.5835 19.332 22.7515 19.1255 22.7515H18.875V22.751Z" fill="black"/>
<path id="Vector_17" d="M20.837 20.1735C20.837 18.374 18.1805 18.7255 18.1805 17.6625C18.1805 17.1075 18.8045 17.078 18.9995 17.078C19.4685 17.078 19.921 17.204 20.266 17.3655C20.375 17.417 20.5 17.3415 20.5 17.2215V16.698C20.5 16.5225 20.434 16.4185 20.3285 16.377C20.092 16.285 19.7525 16.2175 19.25 16.201V15.625C19.25 15.556 19.194 15.5 19.125 15.5H18.875C18.806 15.5 18.75 15.556 18.75 15.625V16.2105C17.9705 16.2865 17.163 16.7265 17.163 17.7495C17.163 19.615 19.8195 19.2445 19.8195 20.227C19.8195 20.536 19.622 20.802 19.0005 20.802C18.3755 20.802 17.801 20.584 17.4835 20.421C17.3765 20.3665 17.2505 20.4455 17.2505 20.5655V21.1615C17.2505 21.2755 17.3195 21.3775 17.425 21.4225C17.8015 21.5825 18.3065 21.7035 18.751 21.739V22.3755C18.751 22.4445 18.807 22.5005 18.876 22.5005H19.126C19.195 22.5005 19.251 22.4445 19.251 22.3755V21.74C20.416 21.643 20.837 20.8625 20.837 20.1735Z" fill="white"/>
</g>
<defs>
<linearGradient id="paint0_linear_206_8313" x1="9.22929" y1="2.79171" x2="19.7783" y2="18.8491" gradientUnits="userSpaceOnUse">
<stop stop-color="#7DD8F3"/>
<stop offset="1" stop-color="#45B0D0"/>
</linearGradient>
<radialGradient id="paint1_radial_206_8313" cx="0" cy="0" r="1" gradientUnits="userSpaceOnUse" gradientTransform="translate(18.8455 18.952) scale(5.9885)">
<stop/>
<stop offset="0.979" stop-opacity="0"/>
</radialGradient>
<linearGradient id="paint2_linear_206_8313" x1="14" y1="19" x2="24" y2="19" gradientUnits="userSpaceOnUse">
<stop stop-color="#21AD64"/>
<stop offset="1" stop-color="#088242"/>
</linearGradient>
</defs>
</svg>
