<svg width="24" height="24" viewBox="0 0 24 24" fill="none" xmlns="http://www.w3.org/2000/svg">
<g id="search-chat">
<path id="Vector" d="M21 4H3C2.45 4 2 4.45 2 5V18C2 18.55 2.45 19 3 19H7V23C7 23.45 7.55 23.65 7.85 23.35L12.2 19H21C21.55 19 22 18.55 22 18V5C22 4.45 21.55 4 21 4Z" fill="url(#paint0_linear_206_8644)"/>
<path id="Vector_2" d="M22 21.1L21.1 22L23.05 23.95C23.1 24 23.2 24 23.25 23.95L23.95 23.25C24 23.2 24 23.1 23.95 23.05L22 21.1Z" fill="url(#paint1_linear_206_8644)"/>
<path id="Vector_3" d="M20.9 20L20 20.9L21.1 22L22 21.1L20.9 20Z" fill="url(#paint2_radial_206_8644)"/>
<path id="Vector_4" opacity="0.05" d="M22 18V15.95C21.25 14.5 19.75 13.5 18 13.5C15.5 13.5 13.5 15.5 13.5 18C13.5 18.35 13.55 18.7 13.6 19H21C21.55 19 22 18.55 22 18Z" fill="black"/>
<path id="Vector_5" opacity="0.07" d="M22 18V16.6C21.4 14.95 19.85 13.75 18 13.75C15.65 13.75 13.75 15.65 13.75 18C13.75 18.35 13.8 18.7 13.85 19H21C21.55 19 22 18.55 22 18Z" fill="black"/>
<path id="Vector_6" d="M18 22C20.2091 22 22 20.2091 22 18C22 15.7909 20.2091 14 18 14C15.7909 14 14 15.7909 14 18C14 20.2091 15.7909 22 18 22Z" fill="url(#paint3_linear_206_8644)"/>
</g>
<defs>
<linearGradient id="paint0_linear_206_8644" x1="6.343" y1="2.296" x2="17.79" y2="20.9205" gradientUnits="userSpaceOnUse">
<stop stop-color="#33BEF0"/>
<stop offset="1" stop-color="#0A85D9"/>
</linearGradient>
<linearGradient id="paint1_linear_206_8644" x1="22.0104" y1="21.1443" x2="23.4382" y2="23.8973" gradientUnits="userSpaceOnUse">
<stop stop-color="#7DD8F3"/>
<stop offset="1" stop-color="#45B0D0"/>
</linearGradient>
<radialGradient id="paint2_radial_206_8644" cx="0" cy="0" r="1" gradientUnits="userSpaceOnUse" gradientTransform="translate(18.006 18.024) scale(4.901)">
<stop offset="0.693" stop-color="#006185"/>
<stop offset="0.921" stop-color="#35C1F1"/>
</radialGradient>
<linearGradient id="paint3_linear_206_8644" x1="15.7723" y1="12.8082" x2="21.1952" y2="20.7689" gradientUnits="userSpaceOnUse">
<stop stop-color="#FCFCFC"/>
<stop offset="0.95" stop-color="#C3C9CD"/>
</linearGradient>
</defs>
</svg>
