<svg width="24" height="24" viewBox="0 0 24 24" fill="none" xmlns="http://www.w3.org/2000/svg">
<g id="share">
<path id="Vector" d="M20.914 19.086L18.5 21.5V14.5C18.5 14.224 18.724 14 19 14H21C21.276 14 21.5 14.224 21.5 14.5V17.6715C21.5 18.202 21.2895 18.7105 20.914 19.086Z" fill="url(#paint0_linear_206_8852)"/>
<path id="Vector_2" d="M18.5 18.5V21.5H4.5C3.3955 21.5 2.5 20.6045 2.5 19.5V3C2.5 2.725 2.725 2.5 3 2.5H5C5.275 2.5 5.5 2.725 5.5 3V18C5.5 18.276 5.724 18.5 6 18.5H18.5Z" fill="url(#paint1_linear_206_8852)"/>
<path id="Vector_3" d="M12 9V15.5C12 16.0525 11.5525 16.5 11 16.5H9C8.4475 16.5 8 16.0525 8 15.5V9H12Z" fill="url(#paint2_linear_206_8852)"/>
<path id="Vector_4" d="M22.3215 6.67853L17.776 2.13303C17.646 2.00303 17.451 1.96453 17.2805 2.03453C17.1105 2.10503 17 2.27053 17 2.45453V5.00003H13.657C12.596 5.00003 11.5785 5.42153 10.8285 6.17153L8 9.00003H17V11.5455C17 11.7295 17.1105 11.895 17.2805 11.9655C17.337 11.9885 17.396 12 17.4545 12C17.5725 12 17.689 11.954 17.776 11.867L22.3215 7.32153C22.499 7.14403 22.499 6.85603 22.3215 6.67853Z" fill="#33C481"/>
</g>
<defs>
<linearGradient id="paint0_linear_206_8852" x1="20" y1="21.832" x2="20" y2="7.037" gradientUnits="userSpaceOnUse">
<stop stop-color="#0362B0"/>
<stop offset="0.112" stop-color="#036ABD"/>
<stop offset="0.258" stop-color="#036FC5"/>
<stop offset="0.5" stop-color="#0370C8"/>
<stop offset="0.742" stop-color="#036FC5"/>
<stop offset="0.888" stop-color="#036ABD"/>
<stop offset="1" stop-color="#0362B0"/>
</linearGradient>
<linearGradient id="paint1_linear_206_8852" x1="2.5" y1="12" x2="18.5" y2="12" gradientUnits="userSpaceOnUse">
<stop stop-color="#32BDEF"/>
<stop offset="1" stop-color="#1EA2E4"/>
</linearGradient>
<linearGradient id="paint2_linear_206_8852" x1="10" y1="16.5" x2="10" y2="9.026" gradientUnits="userSpaceOnUse">
<stop offset="0.273" stop-color="#107C42"/>
<stop offset="0.611" stop-color="#117A41"/>
<stop offset="0.795" stop-color="#13723E"/>
<stop offset="0.94" stop-color="#16643A"/>
<stop offset="1" stop-color="#185C37"/>
</linearGradient>
</defs>
</svg>
