<svg width="24" height="24" viewBox="0 0 24 24" fill="none" xmlns="http://www.w3.org/2000/svg">
<g id="shopping-bag">
<path id="Vector" d="M20 21.5H4C3.724 21.5 3.5 21.276 3.5 21V19.5H20.5V21C20.5 21.276 20.276 21.5 20 21.5Z" fill="#1B9DE2"/>
<path id="Vector_2" d="M20.5 19.5H3.5V3.5C3.5 2.9475 3.9475 2.5 4.5 2.5H19.5C20.0525 2.5 20.5 2.9475 20.5 3.5V19.5Z" fill="#0078D4"/>
<path id="Vector_3" d="M15.5 6.5C16.0523 6.5 16.5 6.05228 16.5 5.5C16.5 4.94772 16.0523 4.5 15.5 4.5C14.9477 4.5 14.5 4.94772 14.5 5.5C14.5 6.05228 14.9477 6.5 15.5 6.5Z" fill="url(#paint0_linear_206_8879)"/>
<path id="Vector_4" d="M8.5 6.5C9.05228 6.5 9.5 6.05228 9.5 5.5C9.5 4.94772 9.05228 4.5 8.5 4.5C7.94772 4.5 7.5 4.94772 7.5 5.5C7.5 6.05228 7.94772 6.5 8.5 6.5Z" fill="url(#paint1_linear_206_8879)"/>
<path id="Vector_5" opacity="0.05" d="M12 12C9.519 12 7.5 9.981 7.5 7.5V5.5C7.5 4.948 7.948 4.5 8.5 4.5C9.052 4.5 9.5 4.948 9.5 5.5V7.5C9.5 8.8785 10.6215 10 12 10C13.3785 10 14.5 8.8785 14.5 7.5V5.5C14.5 4.948 14.948 4.5 15.5 4.5C16.052 4.5 16.5 4.948 16.5 5.5V7.5C16.5 9.981 14.481 12 12 12Z" fill="black"/>
<path id="Vector_6" opacity="0.1" d="M12 11.5C9.6565 11.5 7.75 9.5935 7.75 7.25V5.5C7.75 5.086 8.086 4.75 8.5 4.75C8.914 4.75 9.25 5.086 9.25 5.5V7.25C9.25 8.7665 10.4835 10 12 10C13.5165 10 14.75 8.7665 14.75 7.25V5.5C14.75 5.086 15.086 4.75 15.5 4.75C15.914 4.75 16.25 5.086 16.25 5.5V7.25C16.25 9.5935 14.3435 11.5 12 11.5Z" fill="black"/>
<path id="Vector_7" d="M8.5 5.5V7C8.5 8.933 10.067 10.5 12 10.5C13.933 10.5 15.5 8.933 15.5 7V5.5" stroke="white" stroke-miterlimit="10" stroke-linecap="round" stroke-linejoin="round"/>
</g>
<defs>
<linearGradient id="paint0_linear_206_8879" x1="15.1943" y1="4.58746" x2="15.5219" y2="6.71667" gradientUnits="userSpaceOnUse">
<stop stop-color="#0D61A9"/>
<stop offset="1" stop-color="#16528C"/>
</linearGradient>
<linearGradient id="paint1_linear_206_8879" x1="8.1943" y1="4.58746" x2="8.52187" y2="6.71667" gradientUnits="userSpaceOnUse">
<stop stop-color="#0D61A9"/>
<stop offset="1" stop-color="#16528C"/>
</linearGradient>
</defs>
</svg>
