<svg width="24" height="24" viewBox="0 0 24 24" fill="none" xmlns="http://www.w3.org/2000/svg">
<g id="show-sidepanel">
<path id="Vector" d="M16.8775 3H4C3.4475 3 3 3.4475 3 4V20C3 20.5525 3.4475 21 4 21H18V4.1225C18 3.5025 17.4975 3 16.8775 3Z" fill="url(#paint0_linear_206_8945)"/>
<path id="Vector_2" d="M12.5 3H20C20.5525 3 21 3.4475 21 4V20C21 20.5525 20.5525 21 20 21H12.5V3Z" fill="url(#paint1_linear_206_8945)"/>
<path id="Vector_3" d="M5.3335 5.5H4.6665C4.5745 5.5 4.5 5.4255 4.5 5.3335V4.6665C4.5 4.5745 4.5745 4.5 4.6665 4.5H5.333C5.4255 4.5 5.5 4.5745 5.5 4.6665V5.333C5.5 5.4255 5.4255 5.5 5.3335 5.5Z" fill="#057093"/>
<path id="Vector_4" d="M10.7835 5.5H6.7165C6.597 5.5 6.5 5.403 6.5 5.2835V4.7165C6.5 4.597 6.597 4.5 6.7165 4.5H10.7835C10.903 4.5 11 4.597 11 4.7165V5.2835C11 5.403 10.903 5.5 10.7835 5.5Z" fill="#057093"/>
<path id="Vector_5" d="M5.3335 7.5H4.6665C4.5745 7.5 4.5 7.4255 4.5 7.3335V6.667C4.5 6.5745 4.5745 6.5 4.6665 6.5H5.333C5.4255 6.5 5.5 6.5745 5.5 6.6665V7.333C5.5 7.4255 5.4255 7.5 5.3335 7.5Z" fill="#057093"/>
<path id="Vector_6" d="M10.7835 7.5H6.7165C6.597 7.5 6.5 7.403 6.5 7.2835V6.7165C6.5 6.597 6.597 6.5 6.7165 6.5H10.7835C10.903 6.5 11 6.597 11 6.7165V7.2835C11 7.403 10.903 7.5 10.7835 7.5Z" fill="#057093"/>
<path id="Vector_7" d="M5.3335 9.5H4.6665C4.5745 9.5 4.5 9.4255 4.5 9.3335V8.667C4.5 8.5745 4.5745 8.5 4.6665 8.5H5.333C5.4255 8.5 5.5 8.5745 5.5 8.6665V9.333C5.5 9.4255 5.4255 9.5 5.3335 9.5Z" fill="#057093"/>
<path id="Vector_8" d="M10.7835 9.5H6.7165C6.597 9.5 6.5 9.403 6.5 9.2835V8.7165C6.5 8.597 6.597 8.5 6.7165 8.5H10.7835C10.903 8.5 11 8.597 11 8.7165V9.2835C11 9.403 10.903 9.5 10.7835 9.5Z" fill="#057093"/>
<path id="Vector_9" d="M5.3335 11.5H4.6665C4.5745 11.5 4.5 11.4255 4.5 11.3335V10.667C4.5 10.5745 4.5745 10.5 4.6665 10.5H5.333C5.4255 10.5 5.5 10.5745 5.5 10.6665V11.333C5.5 11.4255 5.4255 11.5 5.3335 11.5Z" fill="#057093"/>
<path id="Vector_10" d="M10.7835 11.5H6.7165C6.597 11.5 6.5 11.403 6.5 11.2835V10.7165C6.5 10.597 6.597 10.5 6.7165 10.5H10.7835C10.903 10.5 11 10.597 11 10.7165V11.2835C11 11.403 10.903 11.5 10.7835 11.5Z" fill="#057093"/>
<path id="Vector_11" opacity="0.05" d="M14.2135 10.658C14.405 10.658 14.586 10.5865 14.724 10.4575L16.756 8.54798C16.91 8.40298 16.995 8.20848 16.995 7.99998C16.995 7.79148 16.9105 7.59698 16.757 7.45248L14.724 5.54248C14.586 5.41298 14.405 5.34198 14.2135 5.34198C13.8465 5.34198 13.543 5.59648 13.4925 5.94648L13.485 6.03498L13.4845 9.96598L13.4915 10.0455C13.543 10.405 13.846 10.658 14.2135 10.658Z" fill="black"/>
<path id="Vector_12" opacity="0.07" d="M14.2135 10.408C14.341 10.408 14.462 10.3605 14.553 10.275L16.585 8.36548C16.6885 8.26848 16.745 8.13848 16.745 7.99998C16.745 7.86148 16.6885 7.73148 16.5855 7.63448L14.553 5.72498C14.462 5.63948 14.3415 5.59198 14.2135 5.59198C13.972 5.59198 13.7725 5.75598 13.74 5.98198L13.7345 6.05348V9.96598L13.74 10.0195C13.7725 10.244 13.9715 10.408 14.2135 10.408Z" fill="black"/>
<path id="Vector_13" d="M13.987 6.01802C14.012 5.84452 14.25 5.78302 14.3815 5.90702L16.4135 7.81652C16.4675 7.86702 16.4945 7.93352 16.4945 8.00002C16.4945 8.06652 16.4675 8.13302 16.4135 8.18352L14.3815 10.093C14.25 10.217 14.012 10.1555 13.987 9.98202C13.9855 9.97052 13.9845 9.95852 13.9845 9.94652V6.05302C13.9845 6.04102 13.9855 6.02952 13.987 6.01802Z" fill="#7DD8F3"/>
</g>
<defs>
<linearGradient id="paint0_linear_206_8945" x1="6.32312" y1="0.318487" x2="19.1728" y2="16.0377" gradientUnits="userSpaceOnUse">
<stop stop-color="#FCFCFC"/>
<stop offset="0.95" stop-color="#C3C9CD"/>
</linearGradient>
<linearGradient id="paint1_linear_206_8945" x1="12.5" y1="12" x2="21" y2="12" gradientUnits="userSpaceOnUse">
<stop stop-color="#1951A8"/>
<stop offset="0.175" stop-color="#1955B0"/>
<stop offset="0.505" stop-color="#195AB9"/>
<stop offset="1" stop-color="#195BBC"/>
</linearGradient>
</defs>
</svg>
