<svg width="24" height="24" viewBox="0 0 24 24" fill="none" xmlns="http://www.w3.org/2000/svg">
<g id="squared-menu">
<path id="Vector" d="M7.375 8H3.625C3.2815 8 3 7.719 3 7.375V3.625C3 3.2815 3.2815 3 3.625 3H7.375C7.719 3 8 3.2815 8 3.625V7.375C8 7.719 7.719 8 7.375 8Z" fill="url(#paint0_linear_206_9081)"/>
<path id="Vector_2" d="M13.875 8H10.125C9.7815 8 9.5 7.719 9.5 7.375V3.625C9.5 3.2815 9.7815 3 10.125 3H13.875C14.219 3 14.5 3.2815 14.5 3.625V7.375C14.5 7.719 14.219 8 13.875 8Z" fill="url(#paint1_linear_206_9081)"/>
<path id="Vector_3" d="M20.375 8H16.625C16.2815 8 16 7.719 16 7.375V3.625C16 3.2815 16.2815 3 16.625 3H20.375C20.719 3 21 3.2815 21 3.625V7.375C21 7.719 20.719 8 20.375 8Z" fill="url(#paint2_linear_206_9081)"/>
<path id="Vector_4" d="M7.375 14.5H3.625C3.2815 14.5 3 14.219 3 13.875V10.125C3 9.7815 3.2815 9.5 3.625 9.5H7.375C7.719 9.5 8 9.7815 8 10.125V13.875C8 14.219 7.719 14.5 7.375 14.5Z" fill="url(#paint3_linear_206_9081)"/>
<path id="Vector_5" d="M13.875 14.5H10.125C9.7815 14.5 9.5 14.219 9.5 13.875V10.125C9.5 9.781 9.7815 9.5 10.125 9.5H13.875C14.219 9.5 14.5 9.7815 14.5 10.125V13.875C14.5 14.219 14.219 14.5 13.875 14.5Z" fill="url(#paint4_linear_206_9081)"/>
<path id="Vector_6" d="M20.375 14.5H16.625C16.2815 14.5 16 14.219 16 13.875V10.125C16 9.781 16.2815 9.5 16.625 9.5H20.375C20.719 9.5 21 9.7815 21 10.125V13.875C21 14.219 20.719 14.5 20.375 14.5Z" fill="url(#paint5_linear_206_9081)"/>
<path id="Vector_7" d="M7.375 21H3.625C3.2815 21 3 20.719 3 20.375V16.625C3 16.2815 3.2815 16 3.625 16H7.375C7.719 16 8 16.2815 8 16.625V20.375C8 20.719 7.719 21 7.375 21Z" fill="url(#paint6_linear_206_9081)"/>
<path id="Vector_8" d="M13.875 21H10.125C9.7815 21 9.5 20.719 9.5 20.375V16.625C9.5 16.281 9.7815 16 10.125 16H13.875C14.219 16 14.5 16.2815 14.5 16.625V20.375C14.5 20.719 14.219 21 13.875 21Z" fill="url(#paint7_linear_206_9081)"/>
<path id="Vector_9" d="M20.375 21H16.625C16.2815 21 16 20.719 16 20.375V16.625C16 16.281 16.2815 16 16.625 16H20.375C20.719 16 21 16.2815 21 16.625V20.375C21 20.719 20.719 21 20.375 21Z" fill="url(#paint8_linear_206_9081)"/>
</g>
<defs>
<linearGradient id="paint0_linear_206_9081" x1="5.5" y1="2.8615" x2="5.5" y2="7.744" gradientUnits="userSpaceOnUse">
<stop stop-color="#32BDEF"/>
<stop offset="1" stop-color="#1EA2E4"/>
</linearGradient>
<linearGradient id="paint1_linear_206_9081" x1="12" y1="2.8615" x2="12" y2="7.744" gradientUnits="userSpaceOnUse">
<stop stop-color="#32BDEF"/>
<stop offset="1" stop-color="#1EA2E4"/>
</linearGradient>
<linearGradient id="paint2_linear_206_9081" x1="18.5" y1="2.8615" x2="18.5" y2="7.744" gradientUnits="userSpaceOnUse">
<stop stop-color="#32BDEF"/>
<stop offset="1" stop-color="#1EA2E4"/>
</linearGradient>
<linearGradient id="paint3_linear_206_9081" x1="5.5" y1="9.3725" x2="5.5" y2="14.054" gradientUnits="userSpaceOnUse">
<stop stop-color="#32BDEF"/>
<stop offset="1" stop-color="#1EA2E4"/>
</linearGradient>
<linearGradient id="paint4_linear_206_9081" x1="12" y1="9.3725" x2="12" y2="14.054" gradientUnits="userSpaceOnUse">
<stop stop-color="#32BDEF"/>
<stop offset="1" stop-color="#1EA2E4"/>
</linearGradient>
<linearGradient id="paint5_linear_206_9081" x1="18.5" y1="9.3725" x2="18.5" y2="14.054" gradientUnits="userSpaceOnUse">
<stop stop-color="#32BDEF"/>
<stop offset="1" stop-color="#1EA2E4"/>
</linearGradient>
<linearGradient id="paint6_linear_206_9081" x1="5.5" y1="16.181" x2="5.5" y2="20.6925" gradientUnits="userSpaceOnUse">
<stop stop-color="#32BDEF"/>
<stop offset="1" stop-color="#1EA2E4"/>
</linearGradient>
<linearGradient id="paint7_linear_206_9081" x1="12" y1="16.181" x2="12" y2="20.6925" gradientUnits="userSpaceOnUse">
<stop stop-color="#32BDEF"/>
<stop offset="1" stop-color="#1EA2E4"/>
</linearGradient>
<linearGradient id="paint8_linear_206_9081" x1="18.5" y1="16.181" x2="18.5" y2="20.6925" gradientUnits="userSpaceOnUse">
<stop stop-color="#32BDEF"/>
<stop offset="1" stop-color="#1EA2E4"/>
</linearGradient>
</defs>
</svg>
