<svg width="24" height="24" viewBox="0 0 24 24" fill="none" xmlns="http://www.w3.org/2000/svg">
<g id="static-view-level2">
<path id="Vector" d="M17.5 15.169V4.94849H2V15.169C2 15.6185 2.349 15.9865 2.775 15.9865H16.725C17.151 15.9865 17.5 15.6185 17.5 15.169Z" fill="url(#paint0_linear_206_9114)"/>
<path id="Vector_2" opacity="0.05" d="M7.275 7.5C6.572 7.5 6 8.0735 6 8.7795V15.9865H16.725C17.151 15.9865 17.5 15.6185 17.5 15.169V7.5H7.275Z" fill="black"/>
<path id="Vector_3" opacity="0.07" d="M7.275 7.75C6.71 7.75 6.25 8.212 6.25 8.7795V15.9865H16.725C17.151 15.9865 17.5 15.6185 17.5 15.169V7.75H7.275Z" fill="black"/>
<path id="Vector_4" d="M2 3.7795V5.0945H17.5V3.7795C17.5 3.3505 17.151 3 16.725 3H2.775C2.3485 3 2 3.3505 2 3.7795Z" fill="url(#paint1_linear_206_9114)"/>
<path id="Vector_5" d="M22 20.169V9.94849H6.5V20.169C6.5 20.6185 6.849 20.9865 7.275 20.9865H21.225C21.651 20.9865 22 20.6185 22 20.169Z" fill="url(#paint2_linear_206_9114)"/>
<path id="Vector_6" d="M6.5 8.7795V10.0945H22V8.7795C22 8.3505 21.651 8 21.225 8H7.275C6.8485 8 6.5 8.3505 6.5 8.7795Z" fill="url(#paint3_linear_206_9114)"/>
</g>
<defs>
<linearGradient id="paint0_linear_206_9114" x1="2" y1="10.4675" x2="17.5" y2="10.4675" gradientUnits="userSpaceOnUse">
<stop stop-color="#199AE0"/>
<stop offset="1" stop-color="#0782D8"/>
</linearGradient>
<linearGradient id="paint1_linear_206_9114" x1="1.096" y1="4.0475" x2="17.3825" y2="4.0475" gradientUnits="userSpaceOnUse">
<stop stop-color="#004C87"/>
<stop offset="1" stop-color="#003A70"/>
</linearGradient>
<linearGradient id="paint2_linear_206_9114" x1="11.3869" y1="10.118" x2="15.7273" y2="21.8695" gradientUnits="userSpaceOnUse">
<stop stop-color="#7DD8F3"/>
<stop offset="1" stop-color="#45B0D0"/>
</linearGradient>
<linearGradient id="paint3_linear_206_9114" x1="10.064" y1="9.0475" x2="27.8085" y2="9.0475" gradientUnits="userSpaceOnUse">
<stop stop-color="#2AA4F4"/>
<stop offset="1" stop-color="#007AD9"/>
</linearGradient>
</defs>
</svg>
