<svg width="24" height="24" viewBox="0 0 24 24" fill="none" xmlns="http://www.w3.org/2000/svg">
<g id="thirsty">
<path id="Vector" d="M15 21V19.699L16.301 19.949C17.75 20.25 19.1 19.199 19.1995 17.75L19.5 14.5L20.949 13.9005C21.449 13.6995 21.65 13.0995 21.3495 12.5995L19.5 9.5C19.199 5.699 17.051 2 11.5 2C5.801 2 3 6.199 3 10.5C3 12.3495 3.6505 13.949 4.6505 15.301C5.551 16.551 6 18.051 6 19.551V21C6 21.5525 6.4475 22 7 22H14C14.5525 22 15 21.5525 15 21Z" fill="#FFB74D"/>
<path id="Vector_2" opacity="0.05" d="M14.4475 5H8.0525C7.7705 5 7.5005 5.12 7.311 5.329C7.1215 5.538 7.0295 5.819 7.0575 6.0995L7.913 14.1525C7.9895 14.9195 8.631 15.5 9.405 15.5H13.095C13.869 15.5 14.5105 14.9195 14.5875 14.1495L15.442 6.103C15.4705 5.8195 15.378 5.5385 15.1885 5.3295C14.999 5.1205 14.7295 5 14.4475 5Z" fill="black"/>
<path id="Vector_3" opacity="0.07" d="M14.4475 5.25H8.0525C7.841 5.25 7.6385 5.34 7.4965 5.4965C7.3545 5.6535 7.2855 5.864 7.3065 6.0745L8.1615 14.126C8.2255 14.766 8.76 15.25 9.405 15.25H13.095C13.74 15.25 14.2745 14.766 14.339 14.1245L15.194 6.0765C15.215 5.8645 15.146 5.654 15.004 5.497C14.8615 5.34 14.659 5.25 14.4475 5.25Z" fill="black"/>
<path id="Vector_4" d="M14.738 8.0005L14.945 6.05C14.9745 5.7555 14.7435 5.5 14.4475 5.5H8.0525C7.7565 5.5 7.5255 5.7555 7.555 6.05L7.762 8.0005L11.5 8.5L14.738 8.0005Z" fill="url(#paint0_linear_206_9374)"/>
<path id="Vector_5" d="M14.735 8L14.0885 14.0975C14.0385 14.6095 13.608 15 13.0935 15H9.407C8.8925 15 8.462 14.6095 8.412 14.0975L7.765 8H14.735Z" fill="url(#paint1_linear_206_9374)"/>
<path id="Vector_6" d="M10.5 10.5C10.7761 10.5 11 10.2761 11 10C11 9.72386 10.7761 9.5 10.5 9.5C10.2239 9.5 10 9.72386 10 10C10 10.2761 10.2239 10.5 10.5 10.5Z" fill="url(#paint2_linear_206_9374)"/>
<path id="Vector_7" d="M10.5 13.5C10.7761 13.5 11 13.2761 11 13C11 12.7239 10.7761 12.5 10.5 12.5C10.2239 12.5 10 12.7239 10 13C10 13.2761 10.2239 13.5 10.5 13.5Z" fill="url(#paint3_linear_206_9374)"/>
<path id="Vector_8" d="M12.25 12.5C12.6642 12.5 13 12.1642 13 11.75C13 11.3358 12.6642 11 12.25 11C11.8358 11 11.5 11.3358 11.5 11.75C11.5 12.1642 11.8358 12.5 12.25 12.5Z" fill="url(#paint4_linear_206_9374)"/>
</g>
<defs>
<linearGradient id="paint0_linear_206_9374" x1="10.813" y1="4.796" x2="11.795" y2="8.734" gradientUnits="userSpaceOnUse">
<stop stop-color="#32BDEF"/>
<stop offset="1" stop-color="#1EA2E4"/>
</linearGradient>
<linearGradient id="paint1_linear_206_9374" x1="11.25" y1="17.1" x2="11.25" y2="9.3095" gradientUnits="userSpaceOnUse">
<stop stop-color="#2AA4F4"/>
<stop offset="1" stop-color="#007AD9"/>
</linearGradient>
<linearGradient id="paint2_linear_206_9374" x1="10.5" y1="11.424" x2="10.5" y2="7.93" gradientUnits="userSpaceOnUse">
<stop stop-color="#55AEEC"/>
<stop offset="1" stop-color="#BBDEFB"/>
</linearGradient>
<linearGradient id="paint3_linear_206_9374" x1="10.5" y1="14.462" x2="10.5" y2="11.2495" gradientUnits="userSpaceOnUse">
<stop stop-color="#55AEEC"/>
<stop offset="1" stop-color="#BBDEFB"/>
</linearGradient>
<linearGradient id="paint4_linear_206_9374" x1="12.25" y1="13.576" x2="12.25" y2="9.2985" gradientUnits="userSpaceOnUse">
<stop stop-color="#55AEEC"/>
<stop offset="1" stop-color="#BBDEFB"/>
</linearGradient>
</defs>
</svg>
