<svg width="195" height="195" viewBox="0 0 195 195" fill="none" xmlns="http://www.w3.org/2000/svg">
<path d="M79.1668 118.125H74.5835V104.375H83.7502V113.542C83.7502 116.074 81.6991 118.125 79.1668 118.125Z" fill="#D9414F"/>
<path d="M79.1665 106.667H65.4165V134.167C65.4165 137.964 68.4942 141.042 72.2915 141.042H76.8748C78.1398 141.042 79.1665 140.015 79.1665 138.75V106.667Z" fill="#0078D4"/>
<path d="M138.75 83.75C142.547 83.75 145.625 86.8277 145.625 90.625C145.625 94.4223 142.547 97.5 138.75 97.5V83.75Z" fill="#0078D4"/>
<path d="M131.875 49.375C131.875 49.375 122.708 74.5833 79.1665 74.5833V106.667C122.708 106.667 131.875 131.875 131.875 131.875V49.375Z" fill="#35C1F1"/>
<path d="M134.167 49.375H131.875V131.875H134.167C136.699 131.875 138.75 129.824 138.75 127.292V53.9583C138.75 51.426 136.699 49.375 134.167 49.375Z" fill="#50E6FF"/>
<path d="M65.4167 74.5835C56.5571 74.5835 49.375 81.7656 49.375 90.6252C49.375 99.4847 56.5571 106.667 65.4167 106.667H79.1667V74.5835H65.4167Z" fill="#1B9DE2"/>
</svg>
