<svg width="195" height="195" viewBox="0 0 195 195" fill="none" xmlns="http://www.w3.org/2000/svg">
<g filter="url(#filter0_d_317_6090)">
<path d="M170.887 10H24.1129C16.3186 10 10 16.3186 10 24.1129V170.887C10 178.681 16.3186 185 24.1129 185H170.887C178.681 185 185 178.681 185 170.887V24.1129C185 16.3186 178.681 10 170.887 10Z" fill="url(#paint0_linear_317_6090)" fill-opacity="0.2"/>
<path d="M24.1129 10.5H170.887C178.405 10.5 184.5 16.5948 184.5 24.1129V170.887C184.5 178.405 178.405 184.5 170.887 184.5H24.1129C16.5948 184.5 10.5 178.405 10.5 170.887V24.1129C10.5 16.5947 16.5947 10.5 24.1129 10.5Z" stroke="#F7F7F7" stroke-opacity="0.27"/>
</g>
<path d="M79.1668 118.125H74.5835V104.375H83.7502V113.542C83.7502 116.074 81.6991 118.125 79.1668 118.125Z" fill="#D9414F"/>
<path d="M79.1665 106.667H65.4165V134.167C65.4165 137.964 68.4942 141.042 72.2915 141.042H76.8748C78.1398 141.042 79.1665 140.015 79.1665 138.75V106.667Z" fill="#0078D4"/>
<path d="M138.75 83.75C142.547 83.75 145.625 86.8277 145.625 90.625C145.625 94.4223 142.547 97.5 138.75 97.5V83.75Z" fill="#0078D4"/>
<path d="M131.875 49.375C131.875 49.375 122.708 74.5833 79.1665 74.5833V106.667C122.708 106.667 131.875 131.875 131.875 131.875V49.375Z" fill="#35C1F1"/>
<path d="M134.167 49.375H131.875V131.875H134.167C136.699 131.875 138.75 129.824 138.75 127.292V53.9583C138.75 51.426 136.699 49.375 134.167 49.375Z" fill="#50E6FF"/>
<path d="M65.4167 74.5835C56.5571 74.5835 49.375 81.7656 49.375 90.6252C49.375 99.4847 56.5571 106.667 65.4167 106.667H79.1667V74.5835H65.4167Z" fill="#1B9DE2"/>
<defs>
<filter id="filter0_d_317_6090" x="6" y="10" width="183" height="183" filterUnits="userSpaceOnUse" color-interpolation-filters="sRGB">
<feFlood flood-opacity="0" result="BackgroundImageFix"/>
<feColorMatrix in="SourceAlpha" type="matrix" values="0 0 0 0 0 0 0 0 0 0 0 0 0 0 0 0 0 0 127 0" result="hardAlpha"/>
<feOffset dy="4"/>
<feGaussianBlur stdDeviation="2"/>
<feComposite in2="hardAlpha" operator="out"/>
<feColorMatrix type="matrix" values="0 0 0 0 0 0 0 0 0 0 0 0 0 0 0 0 0 0 0.25 0"/>
<feBlend mode="normal" in2="BackgroundImageFix" result="effect1_dropShadow_317_6090"/>
<feBlend mode="normal" in="SourceGraphic" in2="effect1_dropShadow_317_6090" result="shape"/>
</filter>
<linearGradient id="paint0_linear_317_6090" x1="97.5" y1="18.4677" x2="97.5" y2="176.532" gradientUnits="userSpaceOnUse">
<stop stop-color="white"/>
<stop offset="0.472222" stop-color="#0D5176" stop-opacity="0.527778"/>
<stop offset="0.940972" stop-color="#12A6F7" stop-opacity="0.465278"/>
</linearGradient>
</defs>
</svg>
