<svg width="120" height="133" viewBox="0 0 120 133" fill="none" xmlns="http://www.w3.org/2000/svg">
<g id="spreadsheet">
<g id="Group 13">
<g id="Group 9">
<g id="Group 6">
<g id="Group 3">
<path id="Vector" d="M101.053 126.316H6.31579C2.82632 126.316 0 123.489 0 120V6.31579C0 2.82632 2.82632 0 6.31579 0H101.053C104.542 0 107.368 2.82632 107.368 6.31579V120C107.368 123.489 104.542 126.316 101.053 126.316Z" fill="#7D8E94" fill-opacity="0.5"/>
<path id="Vector_2" opacity="0.05" d="M70.0169 6.31579C71.6905 6.31579 73.2979 6.98211 74.4821 8.16632L99.2021 32.8863C100.386 34.0705 101.053 35.6779 101.053 37.3516V116.842C101.053 118.585 99.6379 120 97.8947 120H9.47369C7.73053 120 6.31579 118.585 6.31579 116.842V9.47369C6.31579 7.73053 7.73053 6.31579 9.47369 6.31579H70.0169ZM70.0169 3.1579H9.47369C5.99053 3.1579 3.1579 5.99053 3.1579 9.47369V116.842C3.1579 120.325 5.99053 123.158 9.47369 123.158H97.8947C101.378 123.158 104.211 120.325 104.211 116.842V37.3516C104.211 34.8221 103.225 32.4411 101.435 30.6537L76.7147 5.93369C74.9242 4.14316 72.5463 3.1579 70.0169 3.1579Z" fill="black"/>
<path id="Vector_3" opacity="0.07" d="M70.0169 6.31576C71.6905 6.31576 73.2979 6.98208 74.4821 8.16629L99.2021 32.8863C100.386 34.0705 101.053 35.6779 101.053 37.3516V116.842C101.053 118.585 99.6379 120 97.8947 120H9.47369C7.73053 120 6.31579 118.585 6.31579 116.842V9.47366C6.31579 7.7305 7.73053 6.31576 9.47369 6.31576H70.0169ZM70.0169 4.73682H9.47369C6.86211 4.73682 4.73685 6.86208 4.73685 9.47366V116.842C4.73685 119.454 6.86211 121.579 9.47369 121.579H97.8947C100.506 121.579 102.632 119.454 102.632 116.842V37.3516C102.632 35.2421 101.811 33.2589 100.32 31.7684L75.6 7.04839C74.1063 5.55787 72.1232 4.73682 70.0169 4.73682Z" fill="black"/>
<path id="Vector_4" d="M9.47369 6.3158C7.73053 6.3158 6.3158 7.73053 6.3158 9.47369V116.842C6.3158 118.585 7.73053 120 9.47369 120H97.8947C99.6379 120 101.053 118.585 101.053 116.842V37.3516C101.053 35.6779 100.386 34.0705 99.2021 32.8863L74.4821 8.16632C73.2979 6.98211 71.6905 6.3158 70.0168 6.3158H9.47369Z" fill="url(#paint0_linear_138_5642)"/>
<g id="Group">
<path id="Vector_5" d="M33.1579 94.7368H17.3684C16.4968 94.7368 15.7895 94.0295 15.7895 93.1579V90C15.7895 89.1284 16.4968 88.4211 17.3684 88.4211H33.1579C34.0295 88.4211 34.7368 89.1284 34.7368 90V93.1579C34.7368 94.0295 34.0295 94.7368 33.1579 94.7368Z" fill="#7D8E94" fill-opacity="0.5"/>
<path id="Vector_6" d="M58.4211 94.7368H42.6316C41.76 94.7368 41.0526 94.0295 41.0526 93.1579V90C41.0526 89.1284 41.76 88.4211 42.6316 88.4211H58.4211C59.2926 88.4211 60 89.1284 60 90V93.1579C60 94.0295 59.2926 94.7368 58.4211 94.7368Z" fill="#7D8E94" fill-opacity="0.5"/>
<path id="Vector_7" d="M83.6842 94.7368H67.8947C67.0232 94.7368 66.3158 94.0295 66.3158 93.1579V90C66.3158 89.1284 67.0232 88.4211 67.8947 88.4211H83.6842C84.5558 88.4211 85.2632 89.1284 85.2632 90V93.1579C85.2632 94.0295 84.5558 94.7368 83.6842 94.7368Z" fill="#7D8E94" fill-opacity="0.5"/>
<path id="Vector_8" d="M33.1579 85.2631H17.3684C16.4968 85.2631 15.7895 84.5558 15.7895 83.6842V80.5263C15.7895 79.6547 16.4968 78.9474 17.3684 78.9474H33.1579C34.0295 78.9474 34.7368 79.6547 34.7368 80.5263V83.6842C34.7368 84.5558 34.0295 85.2631 33.1579 85.2631Z" fill="#7D8E94" fill-opacity="0.5"/>
<path id="Vector_9" d="M58.4211 85.2631H42.6316C41.76 85.2631 41.0526 84.5558 41.0526 83.6842V80.5263C41.0526 79.6547 41.76 78.9474 42.6316 78.9474H58.4211C59.2926 78.9474 60 79.6547 60 80.5263V83.6842C60 84.5558 59.2926 85.2631 58.4211 85.2631Z" fill="#7D8E94" fill-opacity="0.5"/>
<path id="Vector_10" d="M83.6842 85.2631H67.8947C67.0232 85.2631 66.3158 84.5558 66.3158 83.6842V80.5263C66.3158 79.6547 67.0232 78.9474 67.8947 78.9474H83.6842C84.5558 78.9474 85.2632 79.6547 85.2632 80.5263V83.6842C85.2632 84.5558 84.5558 85.2631 83.6842 85.2631Z" fill="#7D8E94" fill-opacity="0.5"/>
<path id="Vector_11" d="M33.1579 75.7895H17.3684C16.4968 75.7895 15.7895 75.0821 15.7895 74.2105V71.0526C15.7895 70.1811 16.4968 69.4737 17.3684 69.4737H33.1579C34.0295 69.4737 34.7368 70.1811 34.7368 71.0526V74.2105C34.7368 75.0821 34.0295 75.7895 33.1579 75.7895Z" fill="#7D8E94" fill-opacity="0.5"/>
<path id="Vector_12" d="M58.4211 75.7895H42.6316C41.76 75.7895 41.0526 75.0821 41.0526 74.2105V71.0526C41.0526 70.1811 41.76 69.4737 42.6316 69.4737H58.4211C59.2926 69.4737 60 70.1811 60 71.0526V74.2105C60 75.0821 59.2926 75.7895 58.4211 75.7895Z" fill="#7D8E94" fill-opacity="0.5"/>
<path id="Vector_13" d="M83.6842 75.7895H67.8947C67.0232 75.7895 66.3158 75.0821 66.3158 74.2105V71.0526C66.3158 70.1811 67.0232 69.4737 67.8947 69.4737H83.6842C84.5558 69.4737 85.2632 70.1811 85.2632 71.0526V74.2105C85.2632 75.0821 84.5558 75.7895 83.6842 75.7895Z" fill="#7D8E94" fill-opacity="0.5"/>
<path id="Vector_14" d="M33.1579 66.3158H17.3684C16.4968 66.3158 15.7895 65.6084 15.7895 64.7368V61.5789C15.7895 60.7074 16.4968 60 17.3684 60H33.1579C34.0295 60 34.7368 60.7074 34.7368 61.5789V64.7368C34.7368 65.6084 34.0295 66.3158 33.1579 66.3158Z" fill="#C7E7FF"/>
<path id="Vector_15" d="M58.4211 66.3158H42.6316C41.76 66.3158 41.0526 65.6084 41.0526 64.7368V61.5789C41.0526 60.7074 41.76 60 42.6316 60H58.4211C59.2926 60 60 60.7074 60 61.5789V64.7368C60 65.6084 59.2926 66.3158 58.4211 66.3158Z" fill="#C7E7FF"/>
<path id="Vector_16" d="M83.6842 66.3158H67.8947C67.0232 66.3158 66.3158 65.6084 66.3158 64.7368V61.5789C66.3158 60.7074 67.0232 60 67.8947 60H83.6842C84.5558 60 85.2632 60.7074 85.2632 61.5789V64.7368C85.2632 65.6084 84.5558 66.3158 83.6842 66.3158Z" fill="#C7E7FF"/>
<path id="Vector_17" d="M33.1579 104.211H17.3684C16.4968 104.211 15.7895 103.503 15.7895 102.632V99.4737C15.7895 98.6021 16.4968 97.8947 17.3684 97.8947H33.1579C34.0295 97.8947 34.7368 98.6021 34.7368 99.4737V102.632C34.7368 103.503 34.0295 104.211 33.1579 104.211Z" fill="#7D8E94" fill-opacity="0.5"/>
<path id="Vector_18" d="M58.4211 104.211H42.6316C41.76 104.211 41.0526 103.503 41.0526 102.632V99.4737C41.0526 98.6021 41.76 97.8947 42.6316 97.8947H58.4211C59.2926 97.8947 60 98.6021 60 99.4737V102.632C60 103.503 59.2926 104.211 58.4211 104.211Z" fill="#7D8E94" fill-opacity="0.5"/>
<path id="Vector_19" d="M83.6842 104.211H67.8947C67.0232 104.211 66.3158 103.503 66.3158 102.632V99.4737C66.3158 98.6021 67.0232 97.8947 67.8947 97.8947H83.6842C84.5558 97.8947 85.2632 98.6021 85.2632 99.4737V102.632C85.2632 103.503 84.5558 104.211 83.6842 104.211Z" fill="#7D8E94" fill-opacity="0.5"/>
</g>
</g>
</g>
<g id="Group 8">
<path id="Vector_20" opacity="0.05" d="M107.368 63.1579H72.6316C69.1421 63.1579 66.3158 65.9842 66.3158 69.4737V126.316C66.3158 129.805 69.1421 132.632 72.6316 132.632H107.368V63.1579Z" fill="black"/>
<path id="Vector_21" opacity="0.07" d="M107.368 66.3158H74.2105C71.5958 66.3158 69.4737 68.4379 69.4737 71.0526V127.895C69.4737 130.509 71.5958 132.632 74.2105 132.632H107.368V66.3158Z" fill="black"/>
<path id="Vector_22" d="M116.842 69.4737H75.7895C74.0463 69.4737 72.6316 70.8884 72.6316 72.6316V129.474C72.6316 131.217 74.0463 132.632 75.7895 132.632H116.842C118.585 132.632 120 131.217 120 129.474V72.6316C120 70.8884 118.585 69.4737 116.842 69.4737Z" fill="url(#paint1_linear_138_5642)"/>
<path id="Vector_23" d="M112.105 85.2631H80.5263C79.6547 85.2631 78.9474 84.5558 78.9474 83.6842V77.3684C78.9474 76.4968 79.6547 75.7895 80.5263 75.7895H112.105C112.977 75.7895 113.684 76.4968 113.684 77.3684V83.6842C113.684 84.5558 112.977 85.2631 112.105 85.2631Z" fill="url(#paint2_linear_138_5642)"/>
<path id="Vector_24" d="M99.4737 101.053H93.1579C92.2863 101.053 91.5789 100.345 91.5789 99.4737V93.1579C91.5789 92.2863 92.2863 91.5789 93.1579 91.5789H99.4737C100.345 91.5789 101.053 92.2863 101.053 93.1579V99.4737C101.053 100.345 100.345 101.053 99.4737 101.053Z" fill="#CAD2D9"/>
<path id="Vector_25" d="M86.8421 101.053H80.5263C79.6547 101.053 78.9474 100.345 78.9474 99.4737V93.1579C78.9474 92.2863 79.6547 91.5789 80.5263 91.5789H86.8421C87.7137 91.5789 88.421 92.2863 88.421 93.1579V99.4737C88.421 100.345 87.7137 101.053 86.8421 101.053Z" fill="#CAD2D9"/>
<path id="Vector_26" d="M99.4737 113.684H93.1579C92.2863 113.684 91.5789 112.977 91.5789 112.105V105.789C91.5789 104.918 92.2863 104.211 93.1579 104.211H99.4737C100.345 104.211 101.053 104.918 101.053 105.789V112.105C101.053 112.977 100.345 113.684 99.4737 113.684Z" fill="#CAD2D9"/>
<path id="Vector_27" d="M86.8421 113.684H80.5263C79.6547 113.684 78.9474 112.977 78.9474 112.105V105.789C78.9474 104.918 79.6547 104.211 80.5263 104.211H86.8421C87.7137 104.211 88.421 104.918 88.421 105.789V112.105C88.421 112.977 87.7137 113.684 86.8421 113.684Z" fill="#CAD2D9"/>
<path id="Vector_28" d="M99.4737 126.316H93.1579C92.2863 126.316 91.5789 125.608 91.5789 124.737V118.421C91.5789 117.549 92.2863 116.842 93.1579 116.842H99.4737C100.345 116.842 101.053 117.549 101.053 118.421V124.737C101.053 125.608 100.345 126.316 99.4737 126.316Z" fill="#CAD2D9"/>
<path id="Vector_29" d="M86.8421 126.316H80.5263C79.6547 126.316 78.9474 125.608 78.9474 124.737V118.421C78.9474 117.549 79.6547 116.842 80.5263 116.842H86.8421C87.7137 116.842 88.421 117.549 88.421 118.421V124.737C88.421 125.608 87.7137 126.316 86.8421 126.316Z" fill="#CAD2D9"/>
<path id="Vector_30" d="M112.105 101.053H105.789C104.918 101.053 104.211 100.345 104.211 99.4737V93.1579C104.211 92.2863 104.918 91.5789 105.789 91.5789H112.105C112.977 91.5789 113.684 92.2863 113.684 93.1579V99.4737C113.684 100.345 112.977 101.053 112.105 101.053Z" fill="#CAD2D9"/>
<path id="Vector_31" d="M112.105 126.316H105.789C104.918 126.316 104.211 125.608 104.211 124.737V105.789C104.211 104.918 104.918 104.211 105.789 104.211H112.105C112.977 104.211 113.684 104.918 113.684 105.789V124.737C113.684 125.608 112.977 126.316 112.105 126.316Z" fill="url(#paint3_linear_138_5642)"/>
</g>
</g>
</g>
<path id="Vector_32" opacity="0.05" d="M37.3333 29.5H31.5V23.6667C31.5 22.7458 30.7542 22 29.8333 22H28.1667C27.2458 22 26.5 22.7458 26.5 23.6667V29.5H20.6667C19.7458 29.5 19 30.2458 19 31.1667V32.8333C19 33.7542 19.7458 34.5 20.6667 34.5H26.5V40.3333C26.5 41.2542 27.2458 42 28.1667 42H29.8333C30.7542 42 31.5 41.2542 31.5 40.3333V34.5H37.3333C38.2542 34.5 39 33.7542 39 32.8333V31.1667C39 30.2458 38.2542 29.5 37.3333 29.5Z" fill="black"/>
<path id="Vector_33" opacity="0.07" d="M37.3333 29.9167H31.0833V23.6667C31.0833 22.9767 30.5233 22.4167 29.8333 22.4167H28.1667C27.4767 22.4167 26.9167 22.9767 26.9167 23.6667V29.9167H20.6667C19.9767 29.9167 19.4167 30.4767 19.4167 31.1667V32.8334C19.4167 33.5234 19.9767 34.0834 20.6667 34.0834H26.9167V40.3334C26.9167 41.0234 27.4767 41.5834 28.1667 41.5834H29.8333C30.5233 41.5834 31.0833 41.0234 31.0833 40.3334V34.0834H37.3333C38.0233 34.0834 38.5833 33.5234 38.5833 32.8334V31.1667C38.5833 30.4767 38.0233 29.9167 37.3333 29.9167Z" fill="black"/>
<g id="Group 14">
<path id="Vector_34" d="M46.3333 35.6667C46.3333 44.8708 38.8708 52.3333 29.6667 52.3333C20.4625 52.3333 13 44.8708 13 35.6667C13 26.4625 20.4625 19 29.6667 19C38.8708 19 46.3333 26.4625 46.3333 35.6667Z" fill="url(#paint4_linear_138_5642)"/>
<path id="Vector_35" d="M28.8333 26.5H30.5C30.96 26.5 31.3333 26.8733 31.3333 27.3333V44C31.3333 44.46 30.96 44.8333 30.5 44.8333H28.8333C28.3733 44.8333 28 44.46 28 44V27.3333C28 26.8733 28.3733 26.5 28.8333 26.5Z" fill="white"/>
<path id="Vector_36" d="M38.8333 34.8333V36.5C38.8333 36.96 38.46 37.3333 38 37.3333H21.3333C20.8733 37.3333 20.5 36.96 20.5 36.5V34.8333C20.5 34.3733 20.8733 34 21.3333 34H38C38.46 34 38.8333 34.3733 38.8333 34.8333Z" fill="white"/>
</g>
</g>
<defs>
<linearGradient id="paint0_linear_138_5642" x1="53.6842" y1="45.2621" x2="53.6842" y2="180.009" gradientUnits="userSpaceOnUse">
<stop stop-color="#F9F9F9"/>
<stop offset="0.26" stop-color="#F0F1F2"/>
<stop offset="0.678" stop-color="#D9DCDF"/>
<stop offset="1" stop-color="#C2C8CC"/>
</linearGradient>
<linearGradient id="paint1_linear_138_5642" x1="74.4979" y1="70.86" x2="116.615" y2="129.145" gradientUnits="userSpaceOnUse">
<stop stop-color="#899198"/>
<stop offset="1" stop-color="#787E85"/>
</linearGradient>
<linearGradient id="paint2_linear_138_5642" x1="82.8884" y1="74.3052" x2="112.639" y2="88.0863" gradientUnits="userSpaceOnUse">
<stop stop-color="#4FE5FF" stop-opacity="0.52"/>
<stop offset="1" stop-color="#2EB7ED" stop-opacity="0.52"/>
</linearGradient>
<linearGradient id="paint3_linear_138_5642" x1="108.947" y1="105.079" x2="108.947" y2="125.751" gradientUnits="userSpaceOnUse">
<stop stop-color="#11498A"/>
<stop offset="1" stop-color="#0F417A"/>
</linearGradient>
<linearGradient id="paint4_linear_138_5642" x1="17.8817" y1="23.8817" x2="41.4517" y2="47.4517" gradientUnits="userSpaceOnUse">
<stop stop-color="#21AD64"/>
<stop offset="1" stop-color="#088242"/>
</linearGradient>
</defs>
</svg>
