<svg width="62" height="62" viewBox="0 0 62 62" fill="none" xmlns="http://www.w3.org/2000/svg">
<path d="M15.5 0C13.3687 0 11.625 1.74375 11.625 3.875V58.125C11.625 60.2562 13.3687 62 15.5 62H54.25C56.3812 62 58.125 60.2562 58.125 58.125V15.5L42.625 0H15.5Z" fill="url(#paint0_linear_89_645)"/>
<path d="M46.5 15.5H58.125L42.625 0V11.625C42.625 13.7563 44.3687 15.5 46.5 15.5Z" fill="#B0B7BD"/>
<path d="M58.125 27.125L46.5 15.5H58.125V27.125Z" fill="url(#paint1_linear_89_645)"/>
<path d="M50.375 50.375C50.375 51.4406 49.5031 52.3125 48.4375 52.3125H5.8125C4.74687 52.3125 3.875 51.4406 3.875 50.375V31C3.875 29.9344 4.74687 29.0625 5.8125 29.0625H48.4375C49.5031 29.0625 50.375 29.9344 50.375 31V50.375Z" fill="url(#paint2_linear_89_645)"/>
<path d="M19.8862 46.5001C19.3902 46.2191 19.0802 45.6631 19.3902 45.0121L23.8349 36.3224C24.2534 35.5009 25.3694 35.4699 25.7569 36.3224L30.124 45.0121C30.7595 46.2191 28.884 47.1801 28.3279 45.9731L27.644 44.6091H21.9284L21.2619 45.9731C21.0158 46.5001 20.4423 46.6105 19.8862 46.5001ZM26.5454 42.565L24.7959 38.7384L22.8913 42.565H26.5454Z" fill="white"/>
<path d="M31.9741 36.71C31.9741 35.439 34.0201 35.3925 34.0201 36.71V45.5528C34.0201 46.8393 31.9741 46.8703 31.9741 45.5528V36.71Z" fill="white"/>
<path d="M48.4375 52.3125H11.625V54.25H48.4375C49.5031 54.25 50.375 53.3781 50.375 52.3125V50.375C50.375 51.4406 49.5031 52.3125 48.4375 52.3125Z" fill="#CAD1D8"/>
<defs>
<linearGradient id="paint0_linear_89_645" x1="22.9565" y1="1.62578" x2="32.0434" y2="65.4016" gradientUnits="userSpaceOnUse">
<stop stop-color="#F2F2F2"/>
<stop offset="1" stop-color="#D5D5D5"/>
</linearGradient>
<linearGradient id="paint1_linear_89_645" x1="49.3329" y1="15.8048" x2="50.6219" y2="27.8678" gradientUnits="userSpaceOnUse">
<stop stop-color="#ECECEC"/>
<stop offset="1" stop-color="#EDEDED"/>
</linearGradient>
<linearGradient id="paint2_linear_89_645" x1="10.2746" y1="30.1007" x2="22.443" y2="61.0964" gradientUnits="userSpaceOnUse">
<stop stop-color="#FFD869"/>
<stop offset="1" stop-color="#FEC52B"/>
</linearGradient>
</defs>
</svg>
