<svg width="62" height="62" viewBox="0 0 62 62" fill="none" xmlns="http://www.w3.org/2000/svg">
<path d="M15.5 0C13.3687 0 11.625 1.74375 11.625 3.875V58.125C11.625 60.2562 13.3687 62 15.5 62H54.25C56.3812 62 58.125 60.2562 58.125 58.125V15.5L42.625 0H15.5Z" fill="url(#paint0_linear_89_695)"/>
<path d="M46.5 15.5H58.125L42.625 0V11.625C42.625 13.7563 44.3687 15.5 46.5 15.5Z" fill="#B0B7BD"/>
<path d="M58.125 27.125L46.5 15.5H58.125V27.125Z" fill="url(#paint1_linear_89_695)"/>
<path d="M50.375 50.375C50.375 51.4406 49.5031 52.3125 48.4375 52.3125H5.8125C4.74687 52.3125 3.875 51.4406 3.875 50.375V31C3.875 29.9344 4.74687 29.0625 5.8125 29.0625H48.4375C49.5031 29.0625 50.375 29.9344 50.375 31V50.375Z" fill="url(#paint2_linear_89_695)"/>
<path d="M48.4375 52.3125H11.625V54.25H48.4375C49.5031 54.25 50.375 53.3781 50.375 52.3125V50.375C50.375 51.4406 49.5031 52.3125 48.4375 52.3125Z" fill="#CAD1D8"/>
<path d="M22.4722 44.2652L22.7202 44.5577C23.7412 45.4877 22.4102 47.0067 21.3717 46.0302L20.8466 45.6137C20.0406 46.1697 19.097 46.4352 17.8415 46.4352C15.1155 46.4352 12 44.5577 12 40.7467C12 36.9356 15.098 35 17.8415 35C20.7207 35 23.5417 36.9356 23.5417 40.7467C23.5417 42.2192 23.1677 43.3061 22.4722 44.2652ZM21.5402 40.7467C21.5402 38.2841 19.6047 37.0305 17.8396 37.0305C15.935 37.0305 14.0595 38.2822 14.0595 40.7467C14.0595 42.6241 15.6541 44.4047 17.8396 44.4047C18.3957 44.4047 18.9382 44.2652 19.4807 44.1257L17.7156 42.4982C16.8941 41.5062 18.1961 40.0957 19.2327 41.0102L20.9842 42.7597C21.3697 42.2192 21.5402 41.5527 21.5402 40.7467Z" fill="white"/>
<path d="M28 35.9708C28 34.6998 30.046 34.6533 30.046 35.9708V44.8135C30.046 46.1 28 46.131 28 44.8135V35.9708Z" fill="white"/>
<path d="M37.0286 37.015V39.4776H40.9772C41.5352 39.4776 42.0932 40.0356 42.0932 40.5781C42.0932 41.0896 41.5352 41.5062 40.9772 41.5062H37.0286V44.7592C37.0286 45.3017 36.6411 45.7202 36.0986 45.7202C35.4166 45.7202 35 45.3017 35 44.7592V35.961C35 35.403 35.4185 35 36.0986 35H41.5371C42.2191 35 42.6221 35.403 42.6221 35.961C42.6221 36.457 42.2191 37.0131 41.5371 37.0131H37.0286V37.015Z" fill="white"/>
<defs>
<linearGradient id="paint0_linear_89_695" x1="22.9565" y1="1.62578" x2="32.0434" y2="65.4016" gradientUnits="userSpaceOnUse">
<stop stop-color="#F2F2F2"/>
<stop offset="1" stop-color="#D5D5D5"/>
</linearGradient>
<linearGradient id="paint1_linear_89_695" x1="49.3329" y1="15.8048" x2="50.6219" y2="27.8678" gradientUnits="userSpaceOnUse">
<stop stop-color="#ECECEC"/>
<stop offset="1" stop-color="#EDEDED"/>
</linearGradient>
<linearGradient id="paint2_linear_89_695" x1="11.3522" y1="32.8011" x2="24.3276" y2="58.7518" gradientUnits="userSpaceOnUse">
<stop stop-color="#49BEF1"/>
<stop offset="1" stop-color="#199BE2"/>
</linearGradient>
</defs>
</svg>
