<svg width="62" height="62" viewBox="0 0 62 62" fill="none" xmlns="http://www.w3.org/2000/svg">
<path d="M15.5 0C13.3687 0 11.625 1.74375 11.625 3.875V58.125C11.625 60.2562 13.3687 62 15.5 62H54.25C56.3812 62 58.125 60.2562 58.125 58.125V15.5L42.625 0H15.5Z" fill="url(#paint0_linear_90_716)"/>
<path d="M46.5 15.5H58.125L42.625 0V11.625C42.625 13.7563 44.3687 15.5 46.5 15.5Z" fill="#B0B7BD"/>
<path d="M58.125 27.125L46.5 15.5H58.125V27.125Z" fill="url(#paint1_linear_90_716)"/>
<path d="M50.375 50.375C50.375 51.4406 49.5031 52.3125 48.4375 52.3125H5.8125C4.74687 52.3125 3.875 51.4406 3.875 50.375V31C3.875 29.9344 4.74687 29.0625 5.8125 29.0625H48.4375C49.5031 29.0625 50.375 29.9344 50.375 31V50.375Z" fill="url(#paint2_linear_90_716)"/>
<path d="M48.4375 52.3125H11.625V54.25H48.4375C49.5031 54.25 50.375 53.3781 50.375 52.3125V50.375C50.375 51.4406 49.5031 52.3125 48.4375 52.3125Z" fill="#CAD1D8"/>
<path d="M12.1809 37.8172C12.5374 34.8102 17.075 34.2697 19.2121 35.9127C20.2661 36.7632 19.152 38.1117 18.2201 37.4297C17.075 36.7031 14.471 36.3622 14.1455 37.9703C13.727 40.5123 20.4676 39.0572 20.3572 43.1783C20.2487 47.1133 14.5485 47.2044 12.4095 45.4393C11.898 45.0208 11.9135 44.3408 12.1945 43.9203C12.5955 43.5193 13.045 43.3798 13.572 43.8138C14.843 44.6798 18.1116 45.3308 18.3441 43.1298C18.1445 40.8397 11.7004 42.2173 12.1809 37.8172Z" fill="white"/>
<path d="M28.4246 45.3577L31.6004 36.3577C31.8472 35.6583 31.3284 34.925 30.5867 34.925H30.4934C30.0257 34.925 29.6117 35.2274 29.4694 35.6729L27.0048 43.3889C27.0046 43.3895 27.0041 43.3898 27.0035 43.3898C27.0033 43.3898 27.0031 43.3898 27.0029 43.3897C27.0026 43.3896 27.0023 43.3893 27.0022 43.3889L24.5309 35.6721C24.3884 35.227 23.9745 34.925 23.5071 34.925H23.4141C22.6722 34.925 22.1533 35.6588 22.4006 36.3583L25.5821 45.3583C25.7339 45.7878 26.1401 46.075 26.5956 46.075H27.4109C27.8667 46.075 28.273 45.7875 28.4246 45.3577Z" fill="white" stroke="white" stroke-width="0.15" stroke-linejoin="round"/>
<path d="M40.83 37.7438L40.83 37.7438L40.831 37.7454C40.8875 37.8313 40.9399 37.9214 40.9883 38.0158C41.1705 38.3712 41.52 38.654 41.9448 38.654C42.2402 38.654 42.5051 38.5195 42.6686 38.3123C42.8336 38.1032 42.8948 37.8194 42.7779 37.5359C42.707 37.3641 42.6254 37.1986 42.5329 37.0393C42.2765 36.5944 41.9523 36.2099 41.5604 35.8866C41.1716 35.5631 40.7279 35.3138 40.2301 35.1383C39.7343 34.9624 39.2002 34.875 38.6287 34.875C37.9429 34.875 37.3078 35.0054 36.7251 35.2676C36.1461 35.5261 35.642 35.9014 35.2132 36.3921L35.2132 36.3921C34.7871 36.8801 34.4581 37.4719 34.2248 38.165C33.9909 38.8597 33.875 39.6403 33.875 40.5052C33.875 41.6488 34.0744 42.644 34.4778 43.487L34.4779 43.4871C34.8808 44.3253 35.4443 44.9766 36.1692 45.4364L36.1694 45.4365C36.8984 45.8967 37.7432 46.125 38.6994 46.125C39.5523 46.125 40.3139 45.9414 40.9808 45.5709C41.6511 45.2004 42.1759 44.6746 42.5539 43.9959C42.9362 43.3118 43.125 42.5093 43.125 41.5927V41.3745C43.125 40.7532 42.6213 40.2495 42 40.2495H39.6032C39.166 40.2495 38.8116 40.6039 38.8116 41.0411V41.4481C38.8116 41.6605 38.9838 41.8327 39.1962 41.8327H41.3608C41.337 42.3191 41.2264 42.7431 41.0321 43.1076L41.032 43.1079C40.8142 43.5192 40.5064 43.8362 40.1069 44.0612L40.1065 44.0615C39.7111 44.2861 39.2434 44.4007 38.6994 44.4007C38.1162 44.4007 37.6002 44.2517 37.1475 43.9557C36.6959 43.6605 36.3367 43.2256 36.0723 42.6441C35.8091 42.0651 35.6746 41.3502 35.6746 40.4948C35.6746 39.6428 35.8074 38.9313 36.0673 38.3558C36.3319 37.7739 36.688 37.339 37.133 37.0438C37.5795 36.7477 38.0803 36.5993 38.6388 36.5993C38.9706 36.5993 39.2719 36.6448 39.5437 36.7342L39.5441 36.7344C39.8198 36.824 40.0637 36.9547 40.2767 37.1259L40.2767 37.1259L40.2776 37.1267C40.4915 37.2953 40.6756 37.5007 40.83 37.7438Z" fill="white" stroke="white" stroke-width="0.25"/>
<defs>
<linearGradient id="paint0_linear_90_716" x1="22.9565" y1="1.62578" x2="32.0434" y2="65.4016" gradientUnits="userSpaceOnUse">
<stop stop-color="#F2F2F2"/>
<stop offset="1" stop-color="#D5D5D5"/>
</linearGradient>
<linearGradient id="paint1_linear_90_716" x1="49.3329" y1="15.8048" x2="50.6219" y2="27.8678" gradientUnits="userSpaceOnUse">
<stop stop-color="#ECECEC"/>
<stop offset="1" stop-color="#EDEDED"/>
</linearGradient>
<linearGradient id="paint2_linear_90_716" x1="10.6849" y1="32.4675" x2="23.837" y2="58.7716" gradientUnits="userSpaceOnUse">
<stop stop-color="#20ACA9"/>
<stop offset="1" stop-color="#19A9A6"/>
</linearGradient>
</defs>
</svg>
