<svg width="20" height="19" viewBox="0 0 20 19" fill="none" xmlns="http://www.w3.org/2000/svg">
<path d="M0 2.10547H13.6842V11.5792H1.05263C0.471053 11.5792 0 11.1081 0 10.5265V2.10547Z" fill="url(#paint0_linear_201_5435)"/>
<path d="M13.6842 2.10526V1.05263C13.6842 0.471053 13.2132 0 12.6316 0H1.05263C0.471053 0 0 0.471053 0 1.05263V2.10526H13.6842Z" fill="url(#paint1_linear_201_5435)"/>
<path d="M5.26336 8.94759H2.63178C2.34126 8.94759 2.10547 8.7118 2.10547 8.42127V5.26338C2.10547 4.97285 2.34126 4.73706 2.63178 4.73706H5.26336C5.55389 4.73706 5.78968 4.97285 5.78968 5.26338V8.42127C5.78968 8.7118 5.55389 8.94759 5.26336 8.94759Z" fill="url(#paint2_linear_201_5435)"/>
<path d="M11.0524 8.94759H8.42085C8.13032 8.94759 7.89453 8.7118 7.89453 8.42127V5.26338C7.89453 4.97285 8.13032 4.73706 8.42085 4.73706H11.0524C11.343 4.73706 11.5787 4.97285 11.5787 5.26338V8.42127C11.5787 8.7118 11.343 8.94759 11.0524 8.94759Z" fill="url(#paint3_linear_201_5435)"/>
<path opacity="0.05" d="M13.6843 11.5789V6.84204H7.3685C6.49797 6.84204 5.78955 7.55046 5.78955 8.42099V11.5789H13.6843Z" fill="black"/>
<path opacity="0.07" d="M13.6843 11.5789V7.10522H7.36852C6.64326 7.10522 6.05273 7.69575 6.05273 8.42101V11.5789H13.6843Z" fill="black"/>
<path d="M6.31592 9.47363H20.0001V17.8947C20.0001 18.4763 19.5291 18.9473 18.9475 18.9473H7.36855C6.78697 18.9473 6.31592 18.4763 6.31592 17.8947V9.47363Z" fill="url(#paint4_linear_201_5435)"/>
<path d="M20.0001 9.47367V8.42104C20.0001 7.83946 19.5291 7.36841 18.9475 7.36841H7.36855C6.78697 7.36841 6.31592 7.83946 6.31592 8.42104V9.47367H20.0001Z" fill="url(#paint5_linear_201_5435)"/>
<path d="M11.5793 16.3158H8.9477C8.65718 16.3158 8.42139 16.08 8.42139 15.7894V12.6315C8.42139 12.341 8.65718 12.1052 8.9477 12.1052H11.5793C11.8698 12.1052 12.1056 12.341 12.1056 12.6315V15.7894C12.1056 16.08 11.8698 16.3158 11.5793 16.3158Z" fill="#088242"/>
<path d="M17.3683 16.3158H14.7368C14.4462 16.3158 14.2104 16.08 14.2104 15.7894V12.6315C14.2104 12.341 14.4462 12.1052 14.7368 12.1052H17.3683C17.6589 12.1052 17.8947 12.341 17.8947 12.6315V15.7894C17.8947 16.08 17.6589 16.3158 17.3683 16.3158Z" fill="#088242"/>
<defs>
<linearGradient id="paint0_linear_201_5435" x1="1.47" y1="1.16178" x2="9.77158" y2="9.46336" gradientUnits="userSpaceOnUse">
<stop stop-color="#7DD8F3"/>
<stop offset="1" stop-color="#45B0D0"/>
</linearGradient>
<linearGradient id="paint1_linear_201_5435" x1="0" y1="1.05263" x2="13.6842" y2="1.05263" gradientUnits="userSpaceOnUse">
<stop stop-color="#0077D2"/>
<stop offset="1" stop-color="#0B59A2"/>
</linearGradient>
<linearGradient id="paint2_linear_201_5435" x1="3.94757" y1="4.73706" x2="3.94757" y2="9.70443" gradientUnits="userSpaceOnUse">
<stop stop-color="#199AE0"/>
<stop offset="1" stop-color="#0782D8"/>
</linearGradient>
<linearGradient id="paint3_linear_201_5435" x1="9.73664" y1="4.73706" x2="9.73664" y2="9.70443" gradientUnits="userSpaceOnUse">
<stop stop-color="#199AE0"/>
<stop offset="1" stop-color="#0782D8"/>
</linearGradient>
<linearGradient id="paint4_linear_201_5435" x1="6.31592" y1="14.2105" x2="20.0001" y2="14.2105" gradientUnits="userSpaceOnUse">
<stop stop-color="#9DFFCE"/>
<stop offset="1" stop-color="#50D18D"/>
</linearGradient>
<linearGradient id="paint5_linear_201_5435" x1="6.31592" y1="8.42104" x2="20.0001" y2="8.42104" gradientUnits="userSpaceOnUse">
<stop stop-color="#21AD64"/>
<stop offset="1" stop-color="#088242"/>
</linearGradient>
</defs>
</svg>
