<svg width="191" height="191" viewBox="0 0 191 191" fill="none" xmlns="http://www.w3.org/2000/svg">
<path d="M168.887 8H22.1129C14.3186 8 8 14.3186 8 22.1129V168.887C8 176.681 14.3186 183 22.1129 183H168.887C176.681 183 183 176.681 183 168.887V22.1129C183 14.3186 176.681 8 168.887 8Z" fill="white"/>
<path d="M168.887 8H22.1129C14.3186 8 8 14.3186 8 22.1129V168.887C8 176.681 14.3186 183 22.1129 183H168.887C176.681 183 183 176.681 183 168.887V22.1129C183 14.3186 176.681 8 168.887 8Z" fill="url(#paint0_linear_12_65)" fill-opacity="0.2"/>
<path d="M168.887 8H22.1129C14.3186 8 8 14.3186 8 22.1129V168.887C8 176.681 14.3186 183 22.1129 183H168.887C176.681 183 183 176.681 183 168.887V22.1129C183 14.3186 176.681 8 168.887 8Z" stroke="#D5EAF6" stroke-width="15" stroke-linecap="round"/>
<path d="M124.875 78.4375H111.812V136.188H124.875V78.4375Z" fill="#C28200"/>
<path d="M118 132.75L52.1855 135.492L52.1827 135.526L131.811 149.423C132.18 146.648 133.634 144.132 135.854 142.427C138.074 140.721 140.879 139.965 143.656 140.324L147.094 120.628L118 132.75Z" fill="#C28200"/>
<path d="M140 53H52C52 55.9174 50.8411 58.7153 48.7782 60.7782C46.7153 62.8411 43.9174 64 41 64V124.5C43.9174 124.5 46.7153 125.659 48.7782 127.722C50.8411 129.785 52 132.583 52 135.5H140C140 132.583 141.159 129.785 143.222 127.722C145.285 125.659 148.083 124.5 151 124.5V64C148.083 64 145.285 62.8411 143.222 60.7782C141.159 58.7153 140 55.9174 140 53ZM118 130C117.456 130 116.924 129.839 116.472 129.537C116.02 129.234 115.667 128.805 115.459 128.302C115.251 127.8 115.197 127.247 115.303 126.713C115.409 126.18 115.671 125.69 116.055 125.305C116.44 124.921 116.93 124.659 117.463 124.553C117.997 124.447 118.55 124.501 119.052 124.709C119.555 124.917 119.984 125.27 120.287 125.722C120.589 126.174 120.75 126.706 120.75 127.25C120.75 127.979 120.46 128.679 119.944 129.194C119.429 129.71 118.729 130 118 130ZM118 119C117.456 119 116.924 118.839 116.472 118.537C116.02 118.234 115.667 117.805 115.459 117.302C115.251 116.8 115.197 116.247 115.303 115.713C115.409 115.18 115.671 114.69 116.055 114.305C116.44 113.921 116.93 113.659 117.463 113.553C117.997 113.447 118.55 113.501 119.052 113.709C119.555 113.917 119.984 114.27 120.287 114.722C120.589 115.174 120.75 115.706 120.75 116.25C120.75 116.979 120.46 117.679 119.944 118.194C119.429 118.71 118.729 119 118 119ZM118 108C117.456 108 116.924 107.839 116.472 107.537C116.02 107.234 115.667 106.805 115.459 106.302C115.251 105.8 115.197 105.247 115.303 104.713C115.409 104.18 115.671 103.69 116.055 103.305C116.44 102.921 116.93 102.659 117.463 102.553C117.997 102.447 118.55 102.501 119.052 102.709C119.555 102.917 119.984 103.27 120.287 103.722C120.589 104.174 120.75 104.706 120.75 105.25C120.75 105.979 120.46 106.679 119.944 107.194C119.429 107.71 118.729 108 118 108ZM118 97C117.456 97 116.924 96.8387 116.472 96.5365C116.02 96.2344 115.667 95.8049 115.459 95.3024C115.251 94.7999 115.197 94.2469 115.303 93.7135C115.409 93.1801 115.671 92.69 116.055 92.3055C116.44 91.9209 116.93 91.6589 117.463 91.5528C117.997 91.4467 118.55 91.5012 119.052 91.7093C119.555 91.9175 119.984 92.2699 120.287 92.7222C120.589 93.1744 120.75 93.7061 120.75 94.25C120.75 94.9793 120.46 95.6786 119.944 96.1943C119.429 96.7099 118.729 96.9997 118 97ZM118 86C117.456 86 116.924 85.8387 116.472 85.5365C116.02 85.2344 115.667 84.8049 115.459 84.3024C115.251 83.7999 115.197 83.2469 115.303 82.7135C115.409 82.1801 115.671 81.69 116.055 81.3055C116.44 80.9209 116.93 80.6589 117.463 80.5528C117.997 80.4467 118.55 80.5012 119.052 80.7093C119.555 80.9175 119.984 81.2699 120.287 81.7222C120.589 82.1744 120.75 82.7061 120.75 83.25C120.75 83.9793 120.46 84.6786 119.944 85.1943C119.429 85.7099 118.729 85.9997 118 86ZM118 75C117.456 75 116.924 74.8387 116.472 74.5365C116.02 74.2344 115.667 73.8049 115.459 73.3024C115.251 72.7999 115.197 72.2469 115.303 71.7135C115.409 71.1801 115.671 70.6901 116.055 70.3055C116.44 69.9209 116.93 69.6589 117.463 69.5528C117.997 69.4467 118.55 69.5012 119.052 69.7093C119.555 69.9175 119.984 70.2699 120.287 70.7222C120.589 71.1744 120.75 71.7061 120.75 72.25C120.75 72.9793 120.46 73.6786 119.944 74.1943C119.429 74.7099 118.729 74.9997 118 75ZM118 64C117.456 64 116.924 63.8387 116.472 63.5365C116.02 63.2344 115.667 62.8049 115.459 62.3024C115.251 61.7999 115.197 61.2469 115.303 60.7135C115.409 60.1801 115.671 59.6901 116.055 59.3055C116.44 58.9209 116.93 58.6589 117.463 58.5528C117.997 58.4467 118.55 58.5012 119.052 58.7093C119.555 58.9175 119.984 59.2699 120.287 59.7222C120.589 60.1744 120.75 60.7061 120.75 61.25C120.75 61.9793 120.46 62.6786 119.944 63.1943C119.429 63.7099 118.729 63.9997 118 64Z" fill="url(#paint1_linear_12_65)"/>
<path d="M76.75 50.25V53H74V50.25C74 48.7913 73.4205 47.3924 72.3891 46.3609C71.3576 45.3295 69.9587 44.75 68.5 44.75C67.0413 44.75 65.6424 45.3295 64.6109 46.3609C63.5795 47.3924 63 48.7913 63 50.25V66.75C63 67.4793 63.2897 68.1788 63.8055 68.6945C64.3212 69.2103 65.0207 69.5 65.75 69.5C66.4793 69.5 67.1788 69.2103 67.6945 68.6945C68.2103 68.1788 68.5 67.4793 68.5 66.75V57.125C68.5 56.7603 68.6449 56.4106 68.9027 56.1527C69.1606 55.8949 69.5103 55.75 69.875 55.75C70.2397 55.75 70.5894 55.8949 70.8473 56.1527C71.1051 56.4106 71.25 56.7603 71.25 57.125V66.75C71.25 68.2087 70.6705 69.6076 69.6391 70.6391C68.6076 71.6705 67.2087 72.25 65.75 72.25C64.2913 72.25 62.8924 71.6705 61.8609 70.6391C60.8295 69.6076 60.25 68.2087 60.25 66.75V50.25C60.25 48.062 61.1192 45.9635 62.6664 44.4164C64.2135 42.8692 66.312 42 68.5 42C70.688 42 72.7865 42.8692 74.3336 44.4164C75.8808 45.9635 76.75 48.062 76.75 50.25Z" fill="url(#paint2_linear_12_65)"/>
<path d="M48 93C48 92.4477 48.0704 92 48.1571 92H58.8429C58.9296 92 59 92.4477 59 93C59 93.5523 58.9296 94 58.8429 94H48.1571C48.0704 94 48 93.5523 48 93Z" fill="#C28200"/>
<path d="M102 93C102 92.4477 102.051 92 102.114 92H109.886C109.949 92 110 92.4477 110 93C110 93.5523 109.949 94 109.886 94H102.114C102.051 94 102 93.5523 102 93Z" fill="#C28200"/>
<path d="M48 99C48 98.4477 48.0704 98 48.1571 98H58.8429C58.9296 98 59 98.4477 59 99C59 99.5523 58.9296 100 58.8429 100H48.1571C48.0704 100 48 99.5523 48 99Z" fill="#C28200"/>
<path d="M102 99C102 98.4477 102.051 98 102.114 98H109.886C109.949 98 110 98.4477 110 99C110 99.5523 109.949 100 109.886 100H102.114C102.051 100 102 99.5523 102 99Z" fill="#C28200"/>
<path d="M101 95.5C101 106.821 91.8211 116 80.5 116C69.1789 116 60 106.821 60 95.5C60 84.1789 69.1789 75 80.5 75C91.8211 75 101 84.1789 101 95.5Z" fill="url(#paint3_radial_12_65)"/>
<path d="M97.925 95.5C97.925 92.9734 97.516 90.5615 96.8016 88.325H99.6829C99.4205 87.6229 99.1232 86.9382 98.788 86.275H96.039C93.1639 79.5971 87.2865 75 80.5 75C73.7135 75 67.8361 79.5971 64.96 86.275H62.2109C61.8758 86.9382 61.5795 87.6229 61.3161 88.325H64.1974C63.484 90.5615 63.075 92.9734 63.075 95.5C63.075 98.0266 63.484 100.438 64.1984 102.675H61.3171C61.5795 103.377 61.8768 104.062 62.2119 104.725H64.961C67.8371 111.403 73.7135 116 80.5 116C87.2865 116 93.1649 111.403 96.041 104.725H98.7901C99.1253 104.062 99.4215 103.377 99.6849 102.675H96.8036C97.516 100.438 97.925 98.0266 97.925 95.5ZM95.875 95.5C95.875 98.043 95.4435 100.468 94.6645 102.675H88.1977C88.5288 100.352 88.7 97.9087 88.7 95.5C88.7 93.0912 88.5298 90.6476 88.1977 88.325H94.6645C95.4435 90.5318 95.875 92.957 95.875 95.5ZM80.5 113.95C78.5156 113.95 76.3785 110.419 75.2192 104.725H85.7808C84.6215 110.419 82.4844 113.95 80.5 113.95ZM74.8625 102.675C74.5396 100.509 74.35 98.1025 74.35 95.5C74.35 92.8975 74.5396 90.4908 74.8625 88.325H86.1375C86.4604 90.4908 86.65 92.8975 86.65 95.5C86.65 98.1025 86.4604 100.509 86.1375 102.675H74.8625ZM80.5 77.05C82.4844 77.05 84.6215 80.5811 85.7808 86.275H75.2192C76.3785 80.5811 78.5156 77.05 80.5 77.05ZM93.7943 86.275H87.8574C87.2025 82.8617 86.1734 79.8462 84.7886 77.7952C88.62 79.1338 91.8304 82.2139 93.7943 86.275ZM76.2114 77.7952C74.8276 79.8472 73.7975 82.8617 73.1426 86.275H67.2057C69.1696 82.2139 72.3799 79.1338 76.2114 77.7952ZM65.125 95.5C65.125 92.957 65.5565 90.5318 66.3355 88.325H72.8022C72.4701 90.6476 72.3 93.0912 72.3 95.5C72.3 97.9087 72.4701 100.352 72.8022 102.675H66.3355C65.5565 100.468 65.125 98.043 65.125 95.5ZM67.2057 104.725H73.1426C73.7975 108.138 74.8266 111.154 76.2114 113.205C72.3799 111.866 69.1696 108.786 67.2057 104.725ZM84.7886 113.205C86.1723 111.153 87.2025 108.138 87.8574 104.725H93.7943C91.8304 108.786 88.62 111.866 84.7886 113.205Z" fill="url(#paint4_radial_12_65)"/>
<path d="M92.0456 101.96L83.9532 93.8672C83.536 93.451 82.918 93.3311 82.385 93.5668C81.8622 93.7913 81.525 94.3038 81.525 94.8727V106.453C81.525 107.79 82.9528 108.338 83.8712 107.551L85.4938 106.199L86.7105 108.997C86.9442 109.53 87.7426 110.044 88.5821 109.732L89.9607 109.132C90.6854 108.825 91.0759 108.072 90.6998 107.261L89.519 104.543L91.161 104.395C92.4689 104.395 92.9537 102.86 92.0456 101.96Z" fill="white"/>
<path d="M91.6827 102.321L83.5904 94.229C83.3177 93.9574 82.9241 93.8907 82.5869 94.0373C82.2589 94.1798 82.0375 94.5006 82.0375 94.8717V106.452C82.0375 107.293 82.9518 107.661 83.5432 107.156L85.6906 105.366L87.1789 108.791C87.3388 109.158 87.8554 109.46 88.3761 109.262L89.7557 108.662C90.219 108.464 90.4599 107.971 90.2283 107.465L88.7635 104.096L91.1139 103.886C91.941 103.869 92.2588 102.893 91.6827 102.321Z" fill="white"/>
<path d="M91.3199 102.684L83.2275 94.5918C83.1004 94.4647 82.9282 94.4484 82.7888 94.5088C82.6545 94.5673 82.55 94.6985 82.55 94.8727V106.452C82.55 106.796 82.9508 106.983 83.2152 106.764L85.8884 104.534L87.6494 108.586C87.7365 108.787 87.9712 108.879 88.1721 108.792L89.5528 108.192C89.7537 108.104 89.846 107.87 89.7588 107.669L88.0112 103.648L91.0698 103.374C91.4121 103.343 91.5638 102.927 91.3199 102.684Z" fill="white"/>
<defs>
<linearGradient id="paint0_linear_12_65" x1="95.5" y1="16.4677" x2="95.5" y2="174.532" gradientUnits="userSpaceOnUse">
<stop stop-color="white"/>
<stop offset="0.472222" stop-color="#0D5176" stop-opacity="0.527778"/>
<stop offset="0.940972" stop-color="#12A6F7" stop-opacity="0.465278"/>
<stop offset="1" stop-opacity="0"/>
</linearGradient>
<linearGradient id="paint1_linear_12_65" x1="65.2412" y1="31.6193" x2="155.659" y2="142.741" gradientUnits="userSpaceOnUse">
<stop stop-color="#FFD869"/>
<stop offset="1" stop-color="#FEC52B"/>
</linearGradient>
<linearGradient id="paint2_linear_12_65" x1="60.25" y1="57.125" x2="76.75" y2="57.125" gradientUnits="userSpaceOnUse">
<stop stop-color="#3079D6"/>
<stop offset="1" stop-color="#297CD2"/>
</linearGradient>
<radialGradient id="paint3_radial_12_65" cx="0" cy="0" r="1" gradientUnits="userSpaceOnUse" gradientTransform="translate(66.2135 80.5739) scale(41.9389)">
<stop stop-color="#6FCEFC"/>
<stop offset="1" stop-color="#167CF7"/>
</radialGradient>
<radialGradient id="paint4_radial_12_65" cx="0" cy="0" r="1" gradientUnits="userSpaceOnUse" gradientTransform="translate(65.9277 79.1513) scale(44.8171 41.941)">
<stop offset="0.001" stop-color="#54C0F5"/>
<stop offset="0.998" stop-color="#0B69DB"/>
</radialGradient>
</defs>
</svg>
