<svg width="150" height="163" viewBox="0 0 150 163" fill="none" xmlns="http://www.w3.org/2000/svg">
<rect x="0.5" y="0.5" width="149" height="161.632" rx="9.5" fill="#FDFDFD" fill-opacity="0.8"/>
<path d="M116.053 141.316H21.3158C17.8263 141.316 15 138.489 15 135V21.3158C15 17.8263 17.8263 15 21.3158 15H116.053C119.542 15 122.368 17.8263 122.368 21.3158V135C122.368 138.489 119.542 141.316 116.053 141.316Z" fill="#0078D4"/>
<path opacity="0.05" d="M85.0169 21.3158C86.6905 21.3158 88.2979 21.9821 89.4821 23.1663L114.202 47.8863C115.386 49.0705 116.053 50.6779 116.053 52.3516V131.842C116.053 133.585 114.638 135 112.895 135H24.4737C22.7305 135 21.3158 133.585 21.3158 131.842V24.4737C21.3158 22.7305 22.7305 21.3158 24.4737 21.3158H85.0169ZM85.0169 18.1579H24.4737C20.9905 18.1579 18.1579 20.9905 18.1579 24.4737V131.842C18.1579 135.325 20.9905 138.158 24.4737 138.158H112.895C116.378 138.158 119.211 135.325 119.211 131.842V52.3516C119.211 49.8221 118.225 47.4411 116.435 45.6537L91.7147 20.9337C89.9242 19.1432 87.5463 18.1579 85.0169 18.1579Z" fill="black"/>
<path opacity="0.07" d="M85.0168 21.3158C86.6905 21.3158 88.2979 21.9821 89.4821 23.1663L114.202 47.8863C115.386 49.0705 116.053 50.6779 116.053 52.3516V131.842C116.053 133.585 114.638 135 112.895 135H24.4737C22.7305 135 21.3158 133.585 21.3158 131.842V24.4737C21.3158 22.7305 22.7305 21.3158 24.4737 21.3158H85.0168ZM85.0168 19.7368H24.4737C21.8621 19.7368 19.7368 21.8621 19.7368 24.4737V131.842C19.7368 134.454 21.8621 136.579 24.4737 136.579H112.895C115.506 136.579 117.632 134.454 117.632 131.842V52.3516C117.632 50.2421 116.811 48.2589 115.32 46.7684L90.6 22.0484C89.1063 20.5579 87.1231 19.7368 85.0168 19.7368Z" fill="black"/>
<path d="M24.4737 21.3158C22.7305 21.3158 21.3158 22.7305 21.3158 24.4737V131.842C21.3158 133.585 22.7305 135 24.4737 135H112.895C114.638 135 116.053 133.585 116.053 131.842V52.3516C116.053 50.6779 115.386 49.0705 114.202 47.8863L89.4821 23.1663C88.2979 21.9821 86.6905 21.3158 85.0168 21.3158H24.4737Z" fill="url(#paint0_linear_287_5953)"/>
<path d="M48.1579 109.737H32.3684C31.4969 109.737 30.7895 109.029 30.7895 108.158V105C30.7895 104.128 31.4969 103.421 32.3684 103.421H48.1579C49.0295 103.421 49.7369 104.128 49.7369 105V108.158C49.7369 109.029 49.0295 109.737 48.1579 109.737Z" fill="#0078D4"/>
<path d="M73.4211 109.737H57.6316C56.76 109.737 56.0527 109.029 56.0527 108.158V105C56.0527 104.128 56.76 103.421 57.6316 103.421H73.4211C74.2927 103.421 75 104.128 75 105V108.158C75 109.029 74.2927 109.737 73.4211 109.737Z" fill="#0078D4"/>
<path d="M98.6842 109.737H82.8947C82.0232 109.737 81.3158 109.029 81.3158 108.158V105C81.3158 104.128 82.0232 103.421 82.8947 103.421H98.6842C99.5558 103.421 100.263 104.128 100.263 105V108.158C100.263 109.029 99.5558 109.737 98.6842 109.737Z" fill="#0078D4"/>
<path d="M48.1579 100.263H32.3684C31.4969 100.263 30.7895 99.5558 30.7895 98.6842V95.5263C30.7895 94.6547 31.4969 93.9474 32.3684 93.9474H48.1579C49.0295 93.9474 49.7369 94.6547 49.7369 95.5263V98.6842C49.7369 99.5558 49.0295 100.263 48.1579 100.263Z" fill="#0078D4"/>
<path d="M73.4211 100.263H57.6316C56.76 100.263 56.0527 99.5558 56.0527 98.6842V95.5263C56.0527 94.6547 56.76 93.9474 57.6316 93.9474H73.4211C74.2927 93.9474 75 94.6547 75 95.5263V98.6842C75 99.5558 74.2927 100.263 73.4211 100.263Z" fill="#0078D4"/>
<path d="M98.6842 100.263H82.8947C82.0232 100.263 81.3158 99.5558 81.3158 98.6842V95.5263C81.3158 94.6547 82.0232 93.9474 82.8947 93.9474H98.6842C99.5558 93.9474 100.263 94.6547 100.263 95.5263V98.6842C100.263 99.5558 99.5558 100.263 98.6842 100.263Z" fill="#0078D4"/>
<path d="M48.1579 90.7895H32.3684C31.4969 90.7895 30.7895 90.0821 30.7895 89.2105V86.0526C30.7895 85.1811 31.4969 84.4737 32.3684 84.4737H48.1579C49.0295 84.4737 49.7369 85.1811 49.7369 86.0526V89.2105C49.7369 90.0821 49.0295 90.7895 48.1579 90.7895Z" fill="#0078D4"/>
<path d="M73.4211 90.7895H57.6316C56.76 90.7895 56.0527 90.0821 56.0527 89.2105V86.0526C56.0527 85.1811 56.76 84.4737 57.6316 84.4737H73.4211C74.2927 84.4737 75 85.1811 75 86.0526V89.2105C75 90.0821 74.2927 90.7895 73.4211 90.7895Z" fill="#0078D4"/>
<path d="M98.6842 90.7895H82.8947C82.0232 90.7895 81.3158 90.0821 81.3158 89.2105V86.0526C81.3158 85.1811 82.0232 84.4737 82.8947 84.4737H98.6842C99.5558 84.4737 100.263 85.1811 100.263 86.0526V89.2105C100.263 90.0821 99.5558 90.7895 98.6842 90.7895Z" fill="#0078D4"/>
<path d="M48.1579 81.3158H32.3684C31.4969 81.3158 30.7895 80.6084 30.7895 79.7368V76.5789C30.7895 75.7074 31.4969 75 32.3684 75H48.1579C49.0295 75 49.7369 75.7074 49.7369 76.5789V79.7368C49.7369 80.6084 49.0295 81.3158 48.1579 81.3158Z" fill="#C7E7FF"/>
<path d="M73.4211 81.3158H57.6316C56.76 81.3158 56.0527 80.6084 56.0527 79.7368V76.5789C56.0527 75.7074 56.76 75 57.6316 75H73.4211C74.2927 75 75 75.7074 75 76.5789V79.7368C75 80.6084 74.2927 81.3158 73.4211 81.3158Z" fill="#C7E7FF"/>
<path d="M98.6842 81.3158H82.8947C82.0232 81.3158 81.3158 80.6084 81.3158 79.7368V76.5789C81.3158 75.7074 82.0232 75 82.8947 75H98.6842C99.5558 75 100.263 75.7074 100.263 76.5789V79.7368C100.263 80.6084 99.5558 81.3158 98.6842 81.3158Z" fill="#C7E7FF"/>
<path d="M48.1579 119.211H32.3684C31.4969 119.211 30.7895 118.503 30.7895 117.632V114.474C30.7895 113.602 31.4969 112.895 32.3684 112.895H48.1579C49.0295 112.895 49.7369 113.602 49.7369 114.474V117.632C49.7369 118.503 49.0295 119.211 48.1579 119.211Z" fill="#0078D4"/>
<path d="M73.4211 119.211H57.6316C56.76 119.211 56.0527 118.503 56.0527 117.632V114.474C56.0527 113.602 56.76 112.895 57.6316 112.895H73.4211C74.2927 112.895 75 113.602 75 114.474V117.632C75 118.503 74.2927 119.211 73.4211 119.211Z" fill="#0078D4"/>
<path d="M98.6842 119.211H82.8947C82.0232 119.211 81.3158 118.503 81.3158 117.632V114.474C81.3158 113.602 82.0232 112.895 82.8947 112.895H98.6842C99.5558 112.895 100.263 113.602 100.263 114.474V117.632C100.263 118.503 99.5558 119.211 98.6842 119.211Z" fill="#0078D4"/>
<path d="M48.1579 52.8297C48.1579 44.9516 36.7426 46.4901 36.7426 41.8356C36.7426 39.4049 39.4231 39.2776 40.2624 39.2776C42.278 39.2776 44.2215 39.8279 45.7047 40.5375C46.1726 40.7613 46.7095 40.4302 46.7095 39.9045V37.6116C46.7095 36.8422 46.4251 36.3871 45.9723 36.2077C44.9553 35.8046 43.4965 35.5119 41.3365 35.4383V32.9156C41.3365 32.6136 41.0956 32.3684 40.7995 32.3684H39.7254C39.4291 32.3684 39.1884 32.6136 39.1884 32.9156V35.4797C35.8401 35.8138 32.3684 37.7389 32.3684 42.2188C32.3684 50.3847 43.7838 48.7662 43.7838 53.0671C43.7838 54.4185 42.9369 55.5836 40.2639 55.5836C37.5774 55.5836 35.1106 54.6287 33.7448 53.9158C33.283 53.6737 32.7414 54.0203 32.7414 54.5462V57.1561C32.7414 57.6571 33.0378 58.1018 33.4891 58.298C35.1075 58.9986 37.2781 59.5286 39.1869 59.6836V62.4712C39.1869 62.7736 39.4276 63.0186 39.7239 63.0186H40.7978C41.0944 63.0186 41.3347 62.7736 41.3347 62.4712V59.6894C46.3467 59.2633 48.1579 55.846 48.1579 52.8297Z" fill="#0085FF"/>
<path opacity="0.05" d="M122.368 78.1579H87.6316C84.1421 78.1579 81.3158 80.9842 81.3158 84.4737V141.316C81.3158 144.805 84.1421 147.632 87.6316 147.632H122.368V78.1579Z" fill="black"/>
<path opacity="0.07" d="M122.368 81.3158H89.2105C86.5958 81.3158 84.4737 83.4379 84.4737 86.0526V142.895C84.4737 145.509 86.5958 147.632 89.2105 147.632H122.368V81.3158Z" fill="black"/>
<path d="M131.842 84.4737H90.7895C89.0463 84.4737 87.6316 85.8884 87.6316 87.6316V144.474C87.6316 146.217 89.0463 147.632 90.7895 147.632H131.842C133.585 147.632 135 146.217 135 144.474V87.6316C135 85.8884 133.585 84.4737 131.842 84.4737Z" fill="url(#paint1_linear_287_5953)"/>
<path d="M127.105 100.263H95.5263C94.6548 100.263 93.9474 99.5558 93.9474 98.6842V92.3684C93.9474 91.4968 94.6548 90.7895 95.5263 90.7895H127.105C127.977 90.7895 128.684 91.4968 128.684 92.3684V98.6842C128.684 99.5558 127.977 100.263 127.105 100.263Z" fill="url(#paint2_linear_287_5953)"/>
<path d="M114.474 116.053H108.158C107.286 116.053 106.579 115.345 106.579 114.474V108.158C106.579 107.286 107.286 106.579 108.158 106.579H114.474C115.345 106.579 116.053 107.286 116.053 108.158V114.474C116.053 115.345 115.345 116.053 114.474 116.053Z" fill="#CAD2D9"/>
<path d="M101.842 116.053H95.5263C94.6548 116.053 93.9474 115.345 93.9474 114.474V108.158C93.9474 107.286 94.6548 106.579 95.5263 106.579H101.842C102.714 106.579 103.421 107.286 103.421 108.158V114.474C103.421 115.345 102.714 116.053 101.842 116.053Z" fill="#CAD2D9"/>
<path d="M114.474 128.684H108.158C107.286 128.684 106.579 127.977 106.579 127.105V120.789C106.579 119.918 107.286 119.211 108.158 119.211H114.474C115.345 119.211 116.053 119.918 116.053 120.789V127.105C116.053 127.977 115.345 128.684 114.474 128.684Z" fill="#CAD2D9"/>
<path d="M101.842 128.684H95.5263C94.6548 128.684 93.9474 127.977 93.9474 127.105V120.789C93.9474 119.918 94.6548 119.211 95.5263 119.211H101.842C102.714 119.211 103.421 119.918 103.421 120.789V127.105C103.421 127.977 102.714 128.684 101.842 128.684Z" fill="#CAD2D9"/>
<path d="M114.474 141.316H108.158C107.286 141.316 106.579 140.608 106.579 139.737V133.421C106.579 132.549 107.286 131.842 108.158 131.842H114.474C115.345 131.842 116.053 132.549 116.053 133.421V139.737C116.053 140.608 115.345 141.316 114.474 141.316Z" fill="#CAD2D9"/>
<path d="M101.842 141.316H95.5263C94.6548 141.316 93.9474 140.608 93.9474 139.737V133.421C93.9474 132.549 94.6548 131.842 95.5263 131.842H101.842C102.714 131.842 103.421 132.549 103.421 133.421V139.737C103.421 140.608 102.714 141.316 101.842 141.316Z" fill="#CAD2D9"/>
<path d="M127.105 116.053H120.789C119.918 116.053 119.211 115.345 119.211 114.474V108.158C119.211 107.286 119.918 106.579 120.789 106.579H127.105C127.977 106.579 128.684 107.286 128.684 108.158V114.474C128.684 115.345 127.977 116.053 127.105 116.053Z" fill="#CAD2D9"/>
<path d="M127.105 141.316H120.789C119.918 141.316 119.211 140.608 119.211 139.737V120.789C119.211 119.918 119.918 119.211 120.789 119.211H127.105C127.977 119.211 128.684 119.918 128.684 120.789V139.737C128.684 140.608 127.977 141.316 127.105 141.316Z" fill="url(#paint3_linear_287_5953)"/>
<rect x="54.6794" y="49.7368" width="1.57895" height="14.1223" rx="0.789474" transform="rotate(20.4862 54.6794 49.7368)" fill="#D9D9D9"/>
<path d="M72.6521 62.0317C72.514 62.0317 72.4021 61.9198 72.4021 61.7817V55C72.4021 54.8619 72.514 54.75 72.6521 54.75H75.3277C75.8687 54.75 76.3462 54.8467 76.7511 55.0514C77.1563 55.2529 77.4711 55.5433 77.6869 55.9218C77.6871 55.9221 77.6872 55.9224 77.6874 55.9227L77.4702 56.0464C77.6622 56.3775 77.7583 56.7672 77.7583 57.2153C77.7583 57.6657 77.6611 58.0531 77.4669 58.3776L72.6521 62.0317ZM72.6521 62.0317H74.0859C74.224 62.0317 74.3359 61.9198 74.3359 61.7817V59.6277M72.6521 62.0317L74.3359 59.6277M74.3359 59.6277H74.9827L76.1967 61.8996C76.2401 61.9809 76.3249 62.0317 76.4172 62.0317H78C78.0883 62.0317 78.17 61.9852 78.215 61.9093C78.26 61.8334 78.2617 61.7394 78.2194 61.6619L76.9048 59.2548L74.3359 59.6277ZM58 54.75C57.8619 54.75 57.75 54.8619 57.75 55V61.7817C57.75 61.9198 57.8619 62.0317 58 62.0317H59.3908C59.5289 62.0317 59.6408 61.9198 59.6408 61.7817V58.5109L60.9699 61.8413C61.0078 61.9363 61.0998 61.9986 61.2021 61.9986H62.1492C62.2514 61.9986 62.3433 61.9364 62.3812 61.8416L63.7105 58.5235V61.7817C63.7105 61.9198 63.8224 62.0317 63.9605 62.0317H65.3513C65.4894 62.0317 65.6013 61.9198 65.6013 61.7817V55C65.6013 54.8619 65.4894 54.75 65.3513 54.75H63.583C63.4816 54.75 63.3902 54.8113 63.3517 54.9052L61.6756 58.9943L59.9996 54.9052C59.9611 54.8113 59.8697 54.75 59.7683 54.75H58ZM66.2826 61.7817C66.2826 61.9198 66.3946 62.0317 66.5326 62.0317H67.9665C68.1045 62.0317 68.2165 61.9198 68.2165 61.7817V59.6277H68.8632L70.0772 61.8996C70.1207 61.9809 70.2054 62.0317 70.2977 62.0317H71.8805C71.9688 62.0317 72.0505 61.9852 72.0956 61.9093C72.1406 61.8334 72.1423 61.7394 72.1 61.6619L70.7854 59.2548C71.1117 59.0696 71.3725 58.8203 71.5615 58.5067L71.5619 58.506C71.7835 58.1359 71.8888 57.7022 71.8888 57.2153C71.8888 56.731 71.7848 56.2969 71.5674 55.9217C71.3516 55.5433 71.0368 55.2529 70.6316 55.0514C70.2268 54.8467 69.7492 54.75 69.2082 54.75H66.5326C66.3946 54.75 66.2826 54.8619 66.2826 55V61.7817ZM68.94 57.9753H68.2165V56.4222H68.9334C69.1868 56.4222 69.3773 56.46 69.516 56.5226L69.516 56.5227L69.5194 56.5241C69.6594 56.5849 69.7508 56.6678 69.8091 56.7698L69.8091 56.7698L69.8104 56.7721C69.8734 56.8796 69.9119 57.0233 69.9119 57.2153C69.9119 57.405 69.8735 57.544 69.8121 57.6459L69.8107 57.6482C69.7533 57.7457 69.6639 57.8248 69.5264 57.8818C69.3852 57.9403 69.193 57.9753 68.94 57.9753ZM75.0595 57.9753H74.3359V56.4222H75.0529C75.3063 56.4222 75.4968 56.46 75.6355 56.5226L75.6355 56.5227L75.6388 56.5241C75.7789 56.5849 75.8703 56.6678 75.9285 56.7698L75.9299 56.7721C75.9929 56.8796 76.0314 57.0233 76.0314 57.2153C76.0314 57.405 75.993 57.544 75.9315 57.6459L75.9301 57.6482C75.8728 57.7457 75.7833 57.8248 75.6459 57.8818C75.5047 57.9403 75.3125 57.9753 75.0595 57.9753Z" fill="#0084E9" stroke="white" stroke-width="0.5" stroke-linejoin="round"/>
<rect x="0.5" y="0.5" width="149" height="161.632" rx="9.5" stroke="rgba(0,0,0,0)" stroke-linejoin="round"/>
<defs>
<linearGradient id="paint0_linear_287_5953" x1="68.6842" y1="60.2621" x2="68.6842" y2="195.009" gradientUnits="userSpaceOnUse">
<stop stop-color="#F9F9F9"/>
<stop offset="0.26" stop-color="#F0F1F2"/>
<stop offset="0.678" stop-color="#D9DCDF"/>
<stop offset="1" stop-color="#C2C8CC"/>
</linearGradient>
<linearGradient id="paint1_linear_287_5953" x1="89.4979" y1="85.86" x2="131.615" y2="144.145" gradientUnits="userSpaceOnUse">
<stop stop-color="#899198"/>
<stop offset="1" stop-color="#787E85"/>
</linearGradient>
<linearGradient id="paint2_linear_287_5953" x1="97.8884" y1="89.3052" x2="127.639" y2="103.086" gradientUnits="userSpaceOnUse">
<stop stop-color="#0078D4"/>
<stop offset="1" stop-color="#0078D4"/>
</linearGradient>
<linearGradient id="paint3_linear_287_5953" x1="123.947" y1="120.079" x2="123.947" y2="140.751" gradientUnits="userSpaceOnUse">
<stop stop-color="#11498A"/>
<stop offset="1" stop-color="#0F417A"/>
</linearGradient>
</defs>
</svg>
