<svg width="150" height="163" viewBox="0 0 150 163" fill="none" xmlns="http://www.w3.org/2000/svg">
<rect x="0.5" y="0.5" width="149" height="161.632" rx="9.5" fill="#FDFDFD" fill-opacity="0.8"/>
<path d="M116.053 141.316H21.3158C17.8263 141.316 15 138.489 15 135V21.3158C15 17.8263 17.8263 15 21.3158 15H116.053C119.542 15 122.368 17.8263 122.368 21.3158V135C122.368 138.489 119.542 141.316 116.053 141.316Z" fill="#0D62AB"/>
<path opacity="0.05" d="M85.0168 21.3158C86.6905 21.3158 88.2978 21.9821 89.482 23.1663L114.202 47.8863C115.386 49.0705 116.053 50.6779 116.053 52.3516V131.842C116.053 133.585 114.638 135 112.895 135H24.4736C22.7305 135 21.3157 133.585 21.3157 131.842V24.4737C21.3157 22.7305 22.7305 21.3158 24.4736 21.3158H85.0168ZM85.0168 18.1579H24.4736C20.9905 18.1579 18.1578 20.9905 18.1578 24.4737V131.842C18.1578 135.325 20.9905 138.158 24.4736 138.158H112.895C116.378 138.158 119.21 135.325 119.21 131.842V52.3516C119.21 49.8221 118.225 47.4411 116.435 45.6537L91.7147 20.9337C89.9242 19.1432 87.5463 18.1579 85.0168 18.1579Z" fill="black"/>
<path opacity="0.07" d="M85.0168 21.3158C86.6905 21.3158 88.2979 21.9821 89.4821 23.1663L114.202 47.8863C115.386 49.0705 116.053 50.6779 116.053 52.3516V131.842C116.053 133.585 114.638 135 112.895 135H24.4737C22.7305 135 21.3158 133.585 21.3158 131.842V24.4737C21.3158 22.7305 22.7305 21.3158 24.4737 21.3158H85.0168ZM85.0168 19.7368H24.4737C21.8621 19.7368 19.7368 21.8621 19.7368 24.4737V131.842C19.7368 134.454 21.8621 136.579 24.4737 136.579H112.895C115.506 136.579 117.632 134.454 117.632 131.842V52.3516C117.632 50.2421 116.811 48.259 115.32 46.7684L90.6 22.0484C89.1063 20.5579 87.1231 19.7368 85.0168 19.7368Z" fill="black"/>
<path d="M24.4737 21.3158C22.7305 21.3158 21.3158 22.7305 21.3158 24.4737V131.842C21.3158 133.585 22.7305 135 24.4737 135H112.895C114.638 135 116.053 133.585 116.053 131.842V52.3516C116.053 50.6779 115.386 49.0705 114.202 47.8863L89.4821 23.1663C88.2979 21.9821 86.6905 21.3158 85.0168 21.3158H24.4737Z" fill="url(#paint0_linear_287_5951)"/>
<path d="M48.1579 109.737H32.3684C31.4968 109.737 30.7894 109.029 30.7894 108.158V105C30.7894 104.128 31.4968 103.421 32.3684 103.421H48.1579C49.0294 103.421 49.7368 104.128 49.7368 105V108.158C49.7368 109.029 49.0294 109.737 48.1579 109.737Z" fill="#0D62AB"/>
<path d="M73.421 109.737H57.6316C56.76 109.737 56.0526 109.029 56.0526 108.158V105C56.0526 104.128 56.76 103.421 57.6316 103.421H73.421C74.2926 103.421 75 104.128 75 105V108.158C75 109.029 74.2926 109.737 73.421 109.737Z" fill="#0D62AB"/>
<path d="M98.6842 109.737H82.8947C82.0232 109.737 81.3158 109.029 81.3158 108.158V105C81.3158 104.128 82.0232 103.421 82.8947 103.421H98.6842C99.5558 103.421 100.263 104.128 100.263 105V108.158C100.263 109.029 99.5558 109.737 98.6842 109.737Z" fill="#0D62AB"/>
<path d="M48.1579 100.263H32.3684C31.4968 100.263 30.7894 99.5558 30.7894 98.6842V95.5263C30.7894 94.6547 31.4968 93.9474 32.3684 93.9474H48.1579C49.0294 93.9474 49.7368 94.6547 49.7368 95.5263V98.6842C49.7368 99.5558 49.0294 100.263 48.1579 100.263Z" fill="#0D62AB"/>
<path d="M73.421 100.263H57.6316C56.76 100.263 56.0526 99.5558 56.0526 98.6842V95.5263C56.0526 94.6547 56.76 93.9474 57.6316 93.9474H73.421C74.2926 93.9474 75 94.6547 75 95.5263V98.6842C75 99.5558 74.2926 100.263 73.421 100.263Z" fill="#0D62AB"/>
<path d="M98.6842 100.263H82.8947C82.0232 100.263 81.3158 99.5558 81.3158 98.6842V95.5263C81.3158 94.6547 82.0232 93.9474 82.8947 93.9474H98.6842C99.5558 93.9474 100.263 94.6547 100.263 95.5263V98.6842C100.263 99.5558 99.5558 100.263 98.6842 100.263Z" fill="#0D62AB"/>
<path d="M48.1579 90.7895H32.3684C31.4968 90.7895 30.7894 90.0821 30.7894 89.2105V86.0526C30.7894 85.181 31.4968 84.4737 32.3684 84.4737H48.1579C49.0294 84.4737 49.7368 85.181 49.7368 86.0526V89.2105C49.7368 90.0821 49.0294 90.7895 48.1579 90.7895Z" fill="#0D62AB"/>
<path d="M73.421 90.7895H57.6316C56.76 90.7895 56.0526 90.0821 56.0526 89.2105V86.0526C56.0526 85.181 56.76 84.4737 57.6316 84.4737H73.421C74.2926 84.4737 75 85.181 75 86.0526V89.2105C75 90.0821 74.2926 90.7895 73.421 90.7895Z" fill="#0D62AB"/>
<path d="M98.6842 90.7895H82.8947C82.0232 90.7895 81.3158 90.0821 81.3158 89.2105V86.0526C81.3158 85.181 82.0232 84.4737 82.8947 84.4737H98.6842C99.5558 84.4737 100.263 85.181 100.263 86.0526V89.2105C100.263 90.0821 99.5558 90.7895 98.6842 90.7895Z" fill="#0D62AB"/>
<path d="M48.1579 81.3158H32.3684C31.4968 81.3158 30.7894 80.6084 30.7894 79.7368V76.5789C30.7894 75.7074 31.4968 75 32.3684 75H48.1579C49.0294 75 49.7368 75.7074 49.7368 76.5789V79.7368C49.7368 80.6084 49.0294 81.3158 48.1579 81.3158Z" fill="#C7E7FF"/>
<path d="M73.421 81.3158H57.6316C56.76 81.3158 56.0526 80.6084 56.0526 79.7368V76.5789C56.0526 75.7074 56.76 75 57.6316 75H73.421C74.2926 75 75 75.7074 75 76.5789V79.7368C75 80.6084 74.2926 81.3158 73.421 81.3158Z" fill="#C7E7FF"/>
<path d="M98.6842 81.3158H82.8947C82.0232 81.3158 81.3158 80.6084 81.3158 79.7368V76.5789C81.3158 75.7074 82.0232 75 82.8947 75H98.6842C99.5558 75 100.263 75.7074 100.263 76.5789V79.7368C100.263 80.6084 99.5558 81.3158 98.6842 81.3158Z" fill="#C7E7FF"/>
<path d="M48.1579 119.211H32.3684C31.4968 119.211 30.7894 118.503 30.7894 117.632V114.474C30.7894 113.602 31.4968 112.895 32.3684 112.895H48.1579C49.0294 112.895 49.7368 113.602 49.7368 114.474V117.632C49.7368 118.503 49.0294 119.211 48.1579 119.211Z" fill="#0D62AB"/>
<path d="M73.421 119.211H57.6316C56.76 119.211 56.0526 118.503 56.0526 117.632V114.474C56.0526 113.602 56.76 112.895 57.6316 112.895H73.421C74.2926 112.895 75 113.602 75 114.474V117.632C75 118.503 74.2926 119.211 73.421 119.211Z" fill="#0D62AB"/>
<path d="M98.6842 119.211H82.8947C82.0232 119.211 81.3158 118.503 81.3158 117.632V114.474C81.3158 113.602 82.0232 112.895 82.8947 112.895H98.6842C99.5558 112.895 100.263 113.602 100.263 114.474V117.632C100.263 118.503 99.5558 119.211 98.6842 119.211Z" fill="#0D62AB"/>
<path opacity="0.05" d="M122.368 78.1579H87.6316C84.1421 78.1579 81.3158 80.9842 81.3158 84.4737V141.316C81.3158 144.805 84.1421 147.632 87.6316 147.632H122.368V78.1579Z" fill="black"/>
<path opacity="0.07" d="M122.368 81.3158H89.2105C86.5957 81.3158 84.4736 83.4379 84.4736 86.0526V142.895C84.4736 145.509 86.5957 147.632 89.2105 147.632H122.368V81.3158Z" fill="black"/>
<path d="M131.842 84.4737H90.7895C89.0463 84.4737 87.6316 85.8884 87.6316 87.6316V144.474C87.6316 146.217 89.0463 147.632 90.7895 147.632H131.842C133.585 147.632 135 146.217 135 144.474V87.6316C135 85.8884 133.585 84.4737 131.842 84.4737Z" fill="url(#paint1_linear_287_5951)"/>
<path d="M127.105 100.263H95.5263C94.6548 100.263 93.9474 99.5558 93.9474 98.6842V92.3684C93.9474 91.4968 94.6548 90.7895 95.5263 90.7895H127.105C127.977 90.7895 128.684 91.4968 128.684 92.3684V98.6842C128.684 99.5558 127.977 100.263 127.105 100.263Z" fill="url(#paint2_linear_287_5951)"/>
<path d="M114.474 116.053H108.158C107.286 116.053 106.579 115.345 106.579 114.474V108.158C106.579 107.286 107.286 106.579 108.158 106.579H114.474C115.345 106.579 116.053 107.286 116.053 108.158V114.474C116.053 115.345 115.345 116.053 114.474 116.053Z" fill="#CAD2D9"/>
<path d="M101.842 116.053H95.5263C94.6548 116.053 93.9474 115.345 93.9474 114.474V108.158C93.9474 107.286 94.6548 106.579 95.5263 106.579H101.842C102.714 106.579 103.421 107.286 103.421 108.158V114.474C103.421 115.345 102.714 116.053 101.842 116.053Z" fill="#CAD2D9"/>
<path d="M114.474 128.684H108.158C107.286 128.684 106.579 127.977 106.579 127.105V120.789C106.579 119.918 107.286 119.211 108.158 119.211H114.474C115.345 119.211 116.053 119.918 116.053 120.789V127.105C116.053 127.977 115.345 128.684 114.474 128.684Z" fill="#CAD2D9"/>
<path d="M101.842 128.684H95.5263C94.6548 128.684 93.9474 127.977 93.9474 127.105V120.789C93.9474 119.918 94.6548 119.211 95.5263 119.211H101.842C102.714 119.211 103.421 119.918 103.421 120.789V127.105C103.421 127.977 102.714 128.684 101.842 128.684Z" fill="#CAD2D9"/>
<path d="M114.474 141.316H108.158C107.286 141.316 106.579 140.608 106.579 139.737V133.421C106.579 132.549 107.286 131.842 108.158 131.842H114.474C115.345 131.842 116.053 132.549 116.053 133.421V139.737C116.053 140.608 115.345 141.316 114.474 141.316Z" fill="#CAD2D9"/>
<path d="M101.842 141.316H95.5263C94.6548 141.316 93.9474 140.608 93.9474 139.737V133.421C93.9474 132.549 94.6548 131.842 95.5263 131.842H101.842C102.714 131.842 103.421 132.549 103.421 133.421V139.737C103.421 140.608 102.714 141.316 101.842 141.316Z" fill="#CAD2D9"/>
<path d="M127.105 116.053H120.79C119.918 116.053 119.211 115.345 119.211 114.474V108.158C119.211 107.286 119.918 106.579 120.79 106.579H127.105C127.977 106.579 128.684 107.286 128.684 108.158V114.474C128.684 115.345 127.977 116.053 127.105 116.053Z" fill="#CAD2D9"/>
<path d="M127.105 141.316H120.79C119.918 141.316 119.211 140.608 119.211 139.737V120.789C119.211 119.918 119.918 119.211 120.79 119.211H127.105C127.977 119.211 128.684 119.918 128.684 120.789V139.737C128.684 140.608 127.977 141.316 127.105 141.316Z" fill="url(#paint3_linear_287_5951)"/>
<path d="M36.026 63.001C35.474 63.001 35.026 62.554 35.026 62.002C35.026 61.449 35.473 61.002 36.025 61.001L62 60.976C62.267 60.976 62.518 60.872 62.707 60.682C62.896 60.494 62.999 60.242 62.999 59.975L62.976 38C62.976 37.449 62.527 37.001 61.976 37.001H61.975L36 37.026C36 37.026 36 37.026 35.999 37.026C35.447 37.026 34.999 36.579 34.999 36.027C34.999 35.474 35.446 35.027 35.998 35.026L61.973 35.001C61.974 35.001 61.975 35.001 61.976 35.001C63.629 35.001 64.975 36.345 64.976 37.998L64.999 59.973C64.999 60.775 64.688 61.528 64.123 62.095C63.557 62.662 62.804 62.975 62.002 62.976L36.026 63.001Z" fill="#64717C"/>
<path d="M39.004 40.969L33.031 41C31.932 41.001 31.032 40.103 31.031 39.004L31 33.031C30.999 31.932 31.897 31.032 32.996 31.031L38.969 31C40.068 30.999 40.968 31.897 40.969 32.996L41 38.969C41.001 40.068 40.103 40.968 39.004 40.969Z" fill="url(#paint4_linear_287_5951)"/>
<path d="M55.004 40.969L49.031 41C47.932 41.001 47.032 40.103 47.031 39.004L47 33.031C46.999 31.932 47.897 31.032 48.996 31.031L54.969 31C56.068 30.999 56.968 31.897 56.969 32.996L57 38.969C57.001 40.068 56.103 40.968 55.004 40.969Z" fill="url(#paint5_linear_287_5951)"/>
<path d="M67.004 53.969L61.031 54C59.932 54.001 59.032 53.103 59.031 52.004L59 46.031C58.999 44.932 59.897 44.032 60.996 44.031L66.969 44C68.068 43.999 68.968 44.897 68.969 45.996L69 51.969C69.001 53.068 68.103 53.968 67.004 53.969Z" fill="url(#paint6_linear_287_5951)"/>
<path d="M55.004 66.969L49.031 67C47.932 67.001 47.032 66.103 47.031 65.004L47 59.031C46.999 57.932 47.897 57.032 48.996 57.031L54.969 57C56.068 56.999 56.968 57.897 56.969 58.996L57 64.969C57.001 66.068 56.103 66.968 55.004 66.969Z" fill="url(#paint7_linear_287_5951)"/>
<path d="M39.004 66.969L33.031 67C31.932 67.001 31.032 66.103 31.031 65.004L31 59.031C30.999 57.932 31.897 57.032 32.996 57.031L38.969 57C40.068 56.999 40.968 57.897 40.969 58.996L41 64.969C41.001 66.068 40.103 66.968 39.004 66.969Z" fill="url(#paint8_linear_287_5951)"/>
<path d="M38 63.1835C38 61.1877 35.1081 61.5775 35.1081 60.3984C35.1081 59.7826 35.7872 59.7503 35.9998 59.7503C36.5104 59.7503 37.0028 59.8897 37.3785 60.0695C37.4971 60.1262 37.6331 60.0423 37.6331 59.9091V59.3283C37.6331 59.1334 37.561 59.0181 37.4463 58.9726C37.1887 58.8705 36.8191 58.7964 36.2719 58.7777V58.1386C36.2719 58.0621 36.2109 58 36.1359 58H35.8638C35.7887 58 35.7277 58.0621 35.7277 58.1386V58.7882C34.8795 58.8728 34 59.3605 34 60.4954C34 62.5641 36.8919 62.1541 36.8919 63.2437C36.8919 63.586 36.6774 63.8812 36.0002 63.8812C35.3196 63.8812 34.6947 63.6393 34.3487 63.4587C34.2317 63.3974 34.0945 63.4851 34.0945 63.6184V64.2796C34.0945 64.4065 34.1696 64.5191 34.2839 64.5688C34.6939 64.7463 35.2438 64.8806 35.7274 64.9199V65.626C35.7274 65.7026 35.7883 65.7647 35.8634 65.7647H36.1354C36.2106 65.7647 36.2715 65.7026 36.2715 65.626V64.9213C37.5412 64.8134 38 63.9476 38 63.1835Z" fill="#FCFCFC"/>
<rect x="0.5" y="0.5" width="149" height="161.632" rx="9.5" stroke="rgba(0,0,0,0)" stroke-linejoin="round"/>
<defs>
<linearGradient id="paint0_linear_287_5951" x1="68.6842" y1="60.2621" x2="68.6842" y2="195.009" gradientUnits="userSpaceOnUse">
<stop stop-color="#F9F9F9"/>
<stop offset="0.26" stop-color="#F0F1F2"/>
<stop offset="0.678" stop-color="#D9DCDF"/>
<stop offset="1" stop-color="#C2C8CC"/>
</linearGradient>
<linearGradient id="paint1_linear_287_5951" x1="89.4979" y1="85.86" x2="131.615" y2="144.145" gradientUnits="userSpaceOnUse">
<stop stop-color="#899198"/>
<stop offset="1" stop-color="#787E85"/>
</linearGradient>
<linearGradient id="paint2_linear_287_5951" x1="97.8884" y1="89.3053" x2="127.639" y2="103.086" gradientUnits="userSpaceOnUse">
<stop stop-color="#0077D2"/>
<stop offset="1" stop-color="#0A85D9"/>
</linearGradient>
<linearGradient id="paint3_linear_287_5951" x1="123.947" y1="120.079" x2="123.947" y2="140.751" gradientUnits="userSpaceOnUse">
<stop stop-color="#11498A"/>
<stop offset="1" stop-color="#0F417A"/>
</linearGradient>
<linearGradient id="paint4_linear_287_5951" x1="34.494" y1="31.105" x2="37.423" y2="40.626" gradientUnits="userSpaceOnUse">
<stop stop-color="#2AA4F4"/>
<stop offset="1" stop-color="#007AD9"/>
</linearGradient>
<linearGradient id="paint5_linear_287_5951" x1="50.494" y1="31.105" x2="53.423" y2="40.626" gradientUnits="userSpaceOnUse">
<stop stop-color="#2AA4F4"/>
<stop offset="1" stop-color="#007AD9"/>
</linearGradient>
<linearGradient id="paint6_linear_287_5951" x1="62.494" y1="44.105" x2="65.423" y2="53.625" gradientUnits="userSpaceOnUse">
<stop stop-color="#2AA4F4"/>
<stop offset="1" stop-color="#007AD9"/>
</linearGradient>
<linearGradient id="paint7_linear_287_5951" x1="50.494" y1="57.105" x2="53.423" y2="66.626" gradientUnits="userSpaceOnUse">
<stop stop-color="#2AA4F4"/>
<stop offset="1" stop-color="#007AD9"/>
</linearGradient>
<linearGradient id="paint8_linear_287_5951" x1="34.494" y1="57.105" x2="37.423" y2="66.626" gradientUnits="userSpaceOnUse">
<stop stop-color="#2AA4F4"/>
<stop offset="1" stop-color="#007AD9"/>
</linearGradient>
</defs>
</svg>
