<svg width="150" height="163" viewBox="0 0 150 163" fill="none" xmlns="http://www.w3.org/2000/svg">
<rect x="0.5" y="0.5" width="149" height="161.632" rx="9.5" fill="#FDFDFD" fill-opacity="0.8"/>
<path d="M116.053 141.316H21.3158C17.8263 141.316 15 138.489 15 135V21.3158C15 17.8263 17.8263 15 21.3158 15H116.053C119.542 15 122.368 17.8263 122.368 21.3158V135C122.368 138.489 119.542 141.316 116.053 141.316Z" fill="#0F94BF"/>
<path opacity="0.05" d="M85.0169 21.3158C86.6905 21.3158 88.2979 21.9821 89.4821 23.1663L114.202 47.8863C115.386 49.0705 116.053 50.6779 116.053 52.3516V131.842C116.053 133.585 114.638 135 112.895 135H24.4737C22.7305 135 21.3158 133.585 21.3158 131.842V24.4737C21.3158 22.7305 22.7305 21.3158 24.4737 21.3158H85.0169ZM85.0169 18.1579H24.4737C20.9905 18.1579 18.1579 20.9905 18.1579 24.4737V131.842C18.1579 135.325 20.9905 138.158 24.4737 138.158H112.895C116.378 138.158 119.211 135.325 119.211 131.842V52.3516C119.211 49.8221 118.225 47.4411 116.435 45.6537L91.7147 20.9337C89.9242 19.1432 87.5463 18.1579 85.0169 18.1579Z" fill="black"/>
<path opacity="0.07" d="M85.0168 21.3158C86.6905 21.3158 88.2979 21.9821 89.4821 23.1663L114.202 47.8863C115.386 49.0705 116.053 50.6779 116.053 52.3516V131.842C116.053 133.585 114.638 135 112.895 135H24.4737C22.7305 135 21.3158 133.585 21.3158 131.842V24.4737C21.3158 22.7305 22.7305 21.3158 24.4737 21.3158H85.0168ZM85.0168 19.7368H24.4737C21.8621 19.7368 19.7368 21.8621 19.7368 24.4737V131.842C19.7368 134.454 21.8621 136.579 24.4737 136.579H112.895C115.506 136.579 117.632 134.454 117.632 131.842V52.3516C117.632 50.2421 116.811 48.259 115.32 46.7684L90.6 22.0484C89.1063 20.5579 87.1231 19.7368 85.0168 19.7368Z" fill="black"/>
<path d="M24.4737 21.3158C22.7305 21.3158 21.3158 22.7305 21.3158 24.4737V131.842C21.3158 133.585 22.7305 135 24.4737 135H112.895C114.638 135 116.053 133.585 116.053 131.842V52.3516C116.053 50.6779 115.386 49.0705 114.202 47.8863L89.4821 23.1663C88.2979 21.9821 86.6905 21.3158 85.0168 21.3158H24.4737Z" fill="url(#paint0_linear_287_5954)"/>
<path d="M48.1579 109.737H32.3684C31.4969 109.737 30.7895 109.029 30.7895 108.158V105C30.7895 104.128 31.4969 103.421 32.3684 103.421H48.1579C49.0295 103.421 49.7369 104.128 49.7369 105V108.158C49.7369 109.029 49.0295 109.737 48.1579 109.737Z" fill="#0F94BF"/>
<path d="M73.4211 109.737H57.6316C56.76 109.737 56.0527 109.029 56.0527 108.158V105C56.0527 104.128 56.76 103.421 57.6316 103.421H73.4211C74.2927 103.421 75 104.128 75 105V108.158C75 109.029 74.2927 109.737 73.4211 109.737Z" fill="#0F94BF"/>
<path d="M98.6842 109.737H82.8947C82.0232 109.737 81.3158 109.029 81.3158 108.158V105C81.3158 104.128 82.0232 103.421 82.8947 103.421H98.6842C99.5558 103.421 100.263 104.128 100.263 105V108.158C100.263 109.029 99.5558 109.737 98.6842 109.737Z" fill="#0F94BF"/>
<path d="M48.1579 100.263H32.3684C31.4969 100.263 30.7895 99.5558 30.7895 98.6842V95.5263C30.7895 94.6547 31.4969 93.9474 32.3684 93.9474H48.1579C49.0295 93.9474 49.7369 94.6547 49.7369 95.5263V98.6842C49.7369 99.5558 49.0295 100.263 48.1579 100.263Z" fill="#0F94BF"/>
<path d="M73.4211 100.263H57.6316C56.76 100.263 56.0527 99.5558 56.0527 98.6842V95.5263C56.0527 94.6547 56.76 93.9474 57.6316 93.9474H73.4211C74.2927 93.9474 75 94.6547 75 95.5263V98.6842C75 99.5558 74.2927 100.263 73.4211 100.263Z" fill="#0F94BF"/>
<path d="M98.6842 100.263H82.8947C82.0232 100.263 81.3158 99.5558 81.3158 98.6842V95.5263C81.3158 94.6547 82.0232 93.9474 82.8947 93.9474H98.6842C99.5558 93.9474 100.263 94.6547 100.263 95.5263V98.6842C100.263 99.5558 99.5558 100.263 98.6842 100.263Z" fill="#0F94BF"/>
<path d="M48.1579 90.7895H32.3684C31.4969 90.7895 30.7895 90.0821 30.7895 89.2105V86.0526C30.7895 85.181 31.4969 84.4737 32.3684 84.4737H48.1579C49.0295 84.4737 49.7369 85.181 49.7369 86.0526V89.2105C49.7369 90.0821 49.0295 90.7895 48.1579 90.7895Z" fill="#0F94BF"/>
<path d="M73.4211 90.7895H57.6316C56.76 90.7895 56.0527 90.0821 56.0527 89.2105V86.0526C56.0527 85.181 56.76 84.4737 57.6316 84.4737H73.4211C74.2927 84.4737 75 85.181 75 86.0526V89.2105C75 90.0821 74.2927 90.7895 73.4211 90.7895Z" fill="#0F94BF"/>
<path d="M98.6842 90.7895H82.8947C82.0232 90.7895 81.3158 90.0821 81.3158 89.2105V86.0526C81.3158 85.181 82.0232 84.4737 82.8947 84.4737H98.6842C99.5558 84.4737 100.263 85.181 100.263 86.0526V89.2105C100.263 90.0821 99.5558 90.7895 98.6842 90.7895Z" fill="#0F94BF"/>
<path d="M48.1579 81.3158H32.3684C31.4969 81.3158 30.7895 80.6084 30.7895 79.7368V76.5789C30.7895 75.7074 31.4969 75 32.3684 75H48.1579C49.0295 75 49.7369 75.7074 49.7369 76.5789V79.7368C49.7369 80.6084 49.0295 81.3158 48.1579 81.3158Z" fill="#C7E7FF"/>
<path d="M73.4211 81.3158H57.6316C56.76 81.3158 56.0527 80.6084 56.0527 79.7368V76.5789C56.0527 75.7074 56.76 75 57.6316 75H73.4211C74.2927 75 75 75.7074 75 76.5789V79.7368C75 80.6084 74.2927 81.3158 73.4211 81.3158Z" fill="#C7E7FF"/>
<path d="M98.6842 81.3158H82.8947C82.0232 81.3158 81.3158 80.6084 81.3158 79.7368V76.5789C81.3158 75.7074 82.0232 75 82.8947 75H98.6842C99.5558 75 100.263 75.7074 100.263 76.5789V79.7368C100.263 80.6084 99.5558 81.3158 98.6842 81.3158Z" fill="#C7E7FF"/>
<path d="M48.1579 119.211H32.3684C31.4969 119.211 30.7895 118.503 30.7895 117.632V114.474C30.7895 113.602 31.4969 112.895 32.3684 112.895H48.1579C49.0295 112.895 49.7369 113.602 49.7369 114.474V117.632C49.7369 118.503 49.0295 119.211 48.1579 119.211Z" fill="#0F94BF"/>
<path d="M73.4211 119.211H57.6316C56.76 119.211 56.0527 118.503 56.0527 117.632V114.474C56.0527 113.602 56.76 112.895 57.6316 112.895H73.4211C74.2927 112.895 75 113.602 75 114.474V117.632C75 118.503 74.2927 119.211 73.4211 119.211Z" fill="#0F94BF"/>
<path d="M98.6842 119.211H82.8947C82.0232 119.211 81.3158 118.503 81.3158 117.632V114.474C81.3158 113.602 82.0232 112.895 82.8947 112.895H98.6842C99.5558 112.895 100.263 113.602 100.263 114.474V117.632C100.263 118.503 99.5558 119.211 98.6842 119.211Z" fill="#0F94BF"/>
<path opacity="0.05" d="M122.368 78.1579H87.6316C84.1421 78.1579 81.3158 80.9842 81.3158 84.4737V141.316C81.3158 144.805 84.1421 147.632 87.6316 147.632H122.368V78.1579Z" fill="black"/>
<path opacity="0.07" d="M122.368 81.3158H89.2105C86.5958 81.3158 84.4737 83.4379 84.4737 86.0526V142.895C84.4737 145.509 86.5958 147.632 89.2105 147.632H122.368V81.3158Z" fill="black"/>
<path d="M131.842 84.4737H90.7895C89.0463 84.4737 87.6316 85.8884 87.6316 87.6316V144.474C87.6316 146.217 89.0463 147.632 90.7895 147.632H131.842C133.585 147.632 135 146.217 135 144.474V87.6316C135 85.8884 133.585 84.4737 131.842 84.4737Z" fill="url(#paint1_linear_287_5954)"/>
<path d="M127.105 100.263H95.5263C94.6548 100.263 93.9474 99.5558 93.9474 98.6842V92.3684C93.9474 91.4968 94.6548 90.7895 95.5263 90.7895H127.105C127.977 90.7895 128.684 91.4968 128.684 92.3684V98.6842C128.684 99.5558 127.977 100.263 127.105 100.263Z" fill="url(#paint2_linear_287_5954)"/>
<path d="M114.474 116.053H108.158C107.286 116.053 106.579 115.345 106.579 114.474V108.158C106.579 107.286 107.286 106.579 108.158 106.579H114.474C115.345 106.579 116.053 107.286 116.053 108.158V114.474C116.053 115.345 115.345 116.053 114.474 116.053Z" fill="#CAD2D9"/>
<path d="M101.842 116.053H95.5263C94.6548 116.053 93.9474 115.345 93.9474 114.474V108.158C93.9474 107.286 94.6548 106.579 95.5263 106.579H101.842C102.714 106.579 103.421 107.286 103.421 108.158V114.474C103.421 115.345 102.714 116.053 101.842 116.053Z" fill="#CAD2D9"/>
<path d="M114.474 128.684H108.158C107.286 128.684 106.579 127.977 106.579 127.105V120.789C106.579 119.918 107.286 119.211 108.158 119.211H114.474C115.345 119.211 116.053 119.918 116.053 120.789V127.105C116.053 127.977 115.345 128.684 114.474 128.684Z" fill="#CAD2D9"/>
<path d="M101.842 128.684H95.5263C94.6548 128.684 93.9474 127.977 93.9474 127.105V120.789C93.9474 119.918 94.6548 119.211 95.5263 119.211H101.842C102.714 119.211 103.421 119.918 103.421 120.789V127.105C103.421 127.977 102.714 128.684 101.842 128.684Z" fill="#CAD2D9"/>
<path d="M114.474 141.316H108.158C107.286 141.316 106.579 140.608 106.579 139.737V133.421C106.579 132.549 107.286 131.842 108.158 131.842H114.474C115.345 131.842 116.053 132.549 116.053 133.421V139.737C116.053 140.608 115.345 141.316 114.474 141.316Z" fill="#CAD2D9"/>
<path d="M101.842 141.316H95.5263C94.6548 141.316 93.9474 140.608 93.9474 139.737V133.421C93.9474 132.549 94.6548 131.842 95.5263 131.842H101.842C102.714 131.842 103.421 132.549 103.421 133.421V139.737C103.421 140.608 102.714 141.316 101.842 141.316Z" fill="#CAD2D9"/>
<path d="M127.105 116.053H120.789C119.918 116.053 119.211 115.345 119.211 114.474V108.158C119.211 107.286 119.918 106.579 120.789 106.579H127.105C127.977 106.579 128.684 107.286 128.684 108.158V114.474C128.684 115.345 127.977 116.053 127.105 116.053Z" fill="#CAD2D9"/>
<path d="M127.105 141.316H120.789C119.918 141.316 119.211 140.608 119.211 139.737V120.789C119.211 119.918 119.918 119.211 120.789 119.211H127.105C127.977 119.211 128.684 119.918 128.684 120.789V139.737C128.684 140.608 127.977 141.316 127.105 141.316Z" fill="url(#paint3_linear_287_5954)"/>
<path d="M67.442 32H32.558C31.151 32 30 33.2229 30 34.7179V63.282C30 64.777 31.151 66 32.558 66H67.442C68.849 66 70 64.777 70 63.282V34.7179C70 33.2229 68.849 32 67.442 32Z" fill="url(#paint4_linear_287_5954)"/>
<path d="M56.53 64H66.471C67.316 64 68.001 63.315 68.001 62.47V52.53C68.001 51.685 67.316 51 66.471 51H56.53C55.685 51 55 51.685 55 52.53V62.471C55 63.315 55.685 64 56.53 64Z" fill="url(#paint5_linear_287_5954)"/>
<path d="M49.5 50H34.5C34.224 50 34 49.776 34 49.5V48.5C34 48.224 34.224 48 34.5 48H49.5C49.776 48 50 48.224 50 48.5V49.5C50 49.776 49.776 50 49.5 50Z" fill="#0D86AD"/>
<path d="M49.5 54H34.5C34.224 54 34 53.776 34 53.5V52.5C34 52.224 34.224 52 34.5 52H49.5C49.776 52 50 52.224 50 52.5V53.5C50 53.776 49.776 54 49.5 54Z" fill="#0D86AD"/>
<path d="M49.5 58H34.5C34.224 58 34 57.776 34 57.5V56.5C34 56.224 34.224 56 34.5 56H49.5C49.776 56 50 56.224 50 56.5V57.5C50 57.776 49.776 58 49.5 58Z" fill="#0D86AD"/>
<path d="M46.5 62H34.5C34.224 62 34 61.776 34 61.5V60.5C34 60.224 34.224 60 34.5 60H46.5C46.776 60 47 60.224 47 60.5V61.5C47 61.776 46.776 62 46.5 62Z" fill="#0D86AD"/>
<path d="M66 53.5V62H63V53.5C63 53.224 63.224 53 63.5 53H65.5C65.776 53 66 53.224 66 53.5Z" fill="#35C1F1"/>
<path d="M63 55V62H60V55.5C60 55.224 60.224 55 60.5 55H63Z" fill="#199BE2"/>
<path d="M60 57V62H57V57.5C57 57.224 57.224 57 57.5 57H60Z" fill="#0078D4"/>
<path d="M56.53 49H66.471C67.316 49 68.001 48.315 68.001 47.47V37.53C68.001 36.685 67.316 36 66.471 36H56.53C55.685 36 55 36.685 55 37.53V47.471C55 48.315 55.685 49 56.53 49Z" fill="url(#paint6_linear_287_5954)"/>
<path d="M57 42.5C57 44.985 59.015 47 61.5 47C63.985 47 66 44.985 66 42.5H61.5H57Z" fill="#D35230"/>
<path d="M61.5 38V42.5H66C66 40.015 63.985 38 61.5 38Z" fill="#FF8F6B"/>
<path d="M61.5 38C59.015 38 57 40.015 57 42.5H61.5V38Z" fill="#ED6C47"/>
<path d="M38.5113 42.1751H37.5159C37.4977 42.0463 37.4606 41.9319 37.4045 41.8319C37.3485 41.7304 37.2765 41.644 37.1886 41.5728C37.1007 41.5016 36.9992 41.4471 36.8841 41.4092C36.7704 41.3713 36.647 41.3524 36.5136 41.3524C36.2727 41.3524 36.0629 41.4122 35.8841 41.5319C35.7053 41.6501 35.5667 41.8228 35.4682 42.0501C35.3697 42.2759 35.3204 42.5501 35.3204 42.8728C35.3204 43.2046 35.3697 43.4834 35.4682 43.7092C35.5682 43.9349 35.7076 44.1054 35.8863 44.2206C36.0651 44.3357 36.272 44.3933 36.5068 44.3933C36.6386 44.3933 36.7606 44.3759 36.8727 44.341C36.9863 44.3062 37.0871 44.2554 37.175 44.1887C37.2629 44.1206 37.3356 44.038 37.3932 43.941C37.4523 43.844 37.4932 43.7334 37.5159 43.6092L38.5113 43.6137C38.4856 43.8274 38.4212 44.0334 38.3182 44.2319C38.2167 44.4289 38.0795 44.6054 37.9068 44.7615C37.7356 44.916 37.531 45.0387 37.2932 45.1296C37.0568 45.219 36.7894 45.2637 36.4909 45.2637C36.0757 45.2637 35.7045 45.1698 35.3773 44.9819C35.0515 44.794 34.7939 44.5221 34.6045 44.166C34.4167 43.8099 34.3227 43.3789 34.3227 42.8728C34.3227 42.3653 34.4182 41.9334 34.6091 41.5774C34.8 41.2213 35.0591 40.9501 35.3863 40.7637C35.7136 40.5759 36.0818 40.4819 36.4909 40.4819C36.7606 40.4819 37.0106 40.5198 37.2409 40.5956C37.4727 40.6713 37.678 40.7819 37.8568 40.9274C38.0356 41.0713 38.181 41.2478 38.2932 41.4569C38.4068 41.666 38.4795 41.9054 38.5113 42.1751Z" fill="white"/>
<path d="M39.2171 45.2001V40.5456H41.0535C41.405 40.5456 41.705 40.6085 41.9535 40.7342C42.2035 40.8585 42.3936 41.035 42.5239 41.2638C42.6557 41.491 42.7216 41.7585 42.7216 42.066C42.7216 42.3751 42.655 42.641 42.5216 42.8638C42.3883 43.085 42.1951 43.2547 41.9421 43.3729C41.6906 43.491 41.386 43.5501 41.0285 43.5501H39.7989V42.7592H40.8694C41.0572 42.7592 41.2133 42.7335 41.3376 42.682C41.4618 42.6304 41.5542 42.5532 41.6148 42.4501C41.6769 42.3471 41.708 42.2191 41.708 42.066C41.708 41.9115 41.6769 41.7812 41.6148 41.6751C41.5542 41.5691 41.461 41.4888 41.3353 41.4342C41.211 41.3782 41.0542 41.3501 40.8648 41.3501H40.2012V45.2001H39.2171ZM41.7307 43.082L42.8876 45.2001H41.8012L40.6694 43.082H41.7307Z" fill="white"/>
<path d="M43.417 40.5456H44.6306L45.9125 43.6729H45.967L47.2488 40.5456H48.4625V45.2001H47.5079V42.1706H47.4693L46.2647 45.1774H45.6147L44.4102 42.1592H44.3715V45.2001H43.417V40.5456Z" fill="white"/>
<rect x="0.5" y="0.5" width="149" height="161.632" rx="9.5" stroke="rgba(0,0,0,0)" stroke-linejoin="round"/>
<defs>
<linearGradient id="paint0_linear_287_5954" x1="68.6842" y1="60.2621" x2="68.6842" y2="195.009" gradientUnits="userSpaceOnUse">
<stop stop-color="#F9F9F9"/>
<stop offset="0.26" stop-color="#F0F1F2"/>
<stop offset="0.678" stop-color="#D9DCDF"/>
<stop offset="1" stop-color="#C2C8CC"/>
</linearGradient>
<linearGradient id="paint1_linear_287_5954" x1="89.4979" y1="85.86" x2="131.615" y2="144.145" gradientUnits="userSpaceOnUse">
<stop stop-color="#899198"/>
<stop offset="1" stop-color="#787E85"/>
</linearGradient>
<linearGradient id="paint2_linear_287_5954" x1="97.8884" y1="89.3053" x2="127.639" y2="103.086" gradientUnits="userSpaceOnUse">
<stop stop-color="#4FE5FF" stop-opacity="0.52"/>
<stop offset="1" stop-color="#2EB7ED" stop-opacity="0.52"/>
</linearGradient>
<linearGradient id="paint3_linear_287_5954" x1="123.947" y1="120.079" x2="123.947" y2="140.751" gradientUnits="userSpaceOnUse">
<stop stop-color="#11498A"/>
<stop offset="1" stop-color="#0F417A"/>
</linearGradient>
<linearGradient id="paint4_linear_287_5954" x1="20.719" y1="31.6844" x2="88.7247" y2="67.308" gradientUnits="userSpaceOnUse">
<stop stop-color="#33D7F0"/>
<stop offset="0.187" stop-color="#2FD1ED"/>
<stop offset="0.445" stop-color="#24BFE3"/>
<stop offset="0.744" stop-color="#13A2D4"/>
<stop offset="1" stop-color="#0083C4"/>
</linearGradient>
<linearGradient id="paint5_linear_287_5954" x1="47.5371" y1="37.1288" x2="54.5053" y2="83.6347" gradientUnits="userSpaceOnUse">
<stop stop-color="#FCFCFC"/>
<stop offset="1" stop-color="#C3C9CD"/>
</linearGradient>
<linearGradient id="paint6_linear_287_5954" x1="47.5371" y1="37.1288" x2="54.5053" y2="83.6347" gradientUnits="userSpaceOnUse">
<stop stop-color="#FCFCFC"/>
<stop offset="1" stop-color="#C3C9CD"/>
</linearGradient>
</defs>
</svg>
