<svg width="199" height="201" viewBox="0 0 199 201" fill="none" xmlns="http://www.w3.org/2000/svg">
<g filter="url(#filter0_d_165_5251)">
<path d="M172.887 10H26.1129C18.3186 10 12 16.3186 12 24.1129V170.887C12 178.681 18.3186 185 26.1129 185H172.887C180.681 185 187 178.681 187 170.887V24.1129C187 16.3186 180.681 10 172.887 10Z" fill="#727D86"/>
<path d="M172.887 10H26.1129C18.3186 10 12 16.3186 12 24.1129V170.887C12 178.681 18.3186 185 26.1129 185H172.887C180.681 185 187 178.681 187 170.887V24.1129C187 16.3186 180.681 10 172.887 10Z" stroke="#484B4F" stroke-width="15" stroke-linecap="round"/>
<path d="M172.887 10H26.1129C18.3186 10 12 16.3186 12 24.1129V170.887C12 178.681 18.3186 185 26.1129 185H172.887C180.681 185 187 178.681 187 170.887V24.1129C187 16.3186 180.681 10 172.887 10Z" fill="url(#paint0_linear_165_5251)" fill-opacity="0.2"/>
<path d="M26.1129 10.5H172.887C180.405 10.5 186.5 16.5948 186.5 24.1129V170.887C186.5 178.405 180.405 184.5 172.887 184.5H26.1129C18.5948 184.5 12.5 178.405 12.5 170.887V24.1129C12.5 16.5947 18.5947 10.5 26.1129 10.5Z" stroke="#F7F7F7" stroke-opacity="0.27"/>
</g>
<path d="M77.2777 82.7322H143.944C147.014 82.7322 149.5 85.2183 149.5 88.2877V127.177C149.5 130.246 147.014 132.732 143.944 132.732H141.167V149.627C141.167 151.163 139.156 151.738 138.344 150.435L127.278 132.732H77.2777C74.2083 132.732 71.7222 130.246 71.7222 127.177V88.2877C71.7222 85.2183 74.2083 82.7322 77.2777 82.7322Z" fill="url(#paint1_linear_165_5251)"/>
<path opacity="0.05" d="M124.5 96.6211H71.7222V82.7322H130.055V91.0655C130.055 94.135 127.569 96.6211 124.5 96.6211Z" fill="black"/>
<path opacity="0.07" d="M123.111 95.2322H71.7222V82.7322H128.667V89.6766C128.667 92.7461 126.181 95.2322 123.111 95.2322Z" fill="black"/>
<path d="M121.722 43.8433H55.0556C51.9861 43.8433 49.5 46.3294 49.5 49.3988V88.2877C49.5 91.3571 51.9861 93.8433 55.0556 93.8433H57.8333V111.224C57.8333 112.618 59.6611 113.143 60.4 111.96L71.7222 93.8433H121.722C124.792 93.8433 127.278 91.3571 127.278 88.2877V49.3988C127.278 46.3294 124.792 43.8433 121.722 43.8433Z" fill="url(#paint2_linear_165_5251)"/>
<path opacity="0.05" d="M67.5558 68.8433H109.222C111.522 68.8433 113.389 66.9766 113.389 64.6766V61.8988C113.389 59.5988 111.522 57.7322 109.222 57.7322H67.5558C65.2558 57.7322 63.3892 59.5988 63.3892 61.8988V64.6766C63.3892 66.9766 65.2558 68.8433 67.5558 68.8433Z" fill="black"/>
<path opacity="0.07" d="M67.5556 67.4544H109.222C110.756 67.4544 112 66.21 112 64.6766V61.8989C112 60.3655 110.756 59.1211 109.222 59.1211H67.5556C66.0223 59.1211 64.7778 60.3655 64.7778 61.8989V64.6766C64.7778 66.21 66.0223 67.4544 67.5556 67.4544Z" fill="black"/>
<path d="M110.611 61.8989V64.6767C110.611 65.4433 109.989 66.0656 109.222 66.0656H67.5554C66.7887 66.0656 66.1665 65.4433 66.1665 64.6767V61.8989C66.1665 61.1322 66.7887 60.51 67.5554 60.51H109.222C109.989 60.51 110.611 61.1322 110.611 61.8989Z" fill="white"/>
<path opacity="0.05" d="M67.5558 79.9544H103.667C105.967 79.9544 107.834 78.0877 107.834 75.7877V73.0099C107.834 70.7099 105.967 68.8433 103.667 68.8433H67.5558C65.2558 68.8433 63.3892 70.7099 63.3892 73.0099V75.7877C63.3892 78.0877 65.2558 79.9544 67.5558 79.9544Z" fill="black"/>
<path opacity="0.07" d="M67.5556 78.5655H103.667C105.2 78.5655 106.445 77.3211 106.445 75.7877V73.01C106.445 71.4766 105.2 70.2322 103.667 70.2322H67.5556C66.0223 70.2322 64.7778 71.4766 64.7778 73.01V75.7877C64.7778 77.3211 66.0223 78.5655 67.5556 78.5655Z" fill="black"/>
<path d="M105.055 73.01V75.7878C105.055 76.5544 104.433 77.1766 103.667 77.1766H67.5554C66.7887 77.1766 66.1665 76.5544 66.1665 75.7878V73.01C66.1665 72.2433 66.7887 71.6211 67.5554 71.6211H103.667C104.433 71.6211 105.055 72.2433 105.055 73.01Z" fill="white"/>
<defs>
<filter id="filter0_d_165_5251" x="0.5" y="2.5" width="198" height="198" filterUnits="userSpaceOnUse" color-interpolation-filters="sRGB">
<feFlood flood-opacity="0" result="BackgroundImageFix"/>
<feColorMatrix in="SourceAlpha" type="matrix" values="0 0 0 0 0 0 0 0 0 0 0 0 0 0 0 0 0 0 127 0" result="hardAlpha"/>
<feOffset dy="4"/>
<feGaussianBlur stdDeviation="2"/>
<feComposite in2="hardAlpha" operator="out"/>
<feColorMatrix type="matrix" values="0 0 0 0 0 0 0 0 0 0 0 0 0 0 0 0 0 0 0.25 0"/>
<feBlend mode="normal" in2="BackgroundImageFix" result="effect1_dropShadow_165_5251"/>
<feBlend mode="normal" in="SourceGraphic" in2="effect1_dropShadow_165_5251" result="shape"/>
</filter>
<linearGradient id="paint0_linear_165_5251" x1="99.5" y1="18.4677" x2="99.5" y2="176.532" gradientUnits="userSpaceOnUse">
<stop stop-color="white"/>
<stop offset="0.472222" stop-color="#0D5176" stop-opacity="0.527778"/>
<stop offset="0.940972" stop-color="#12A6F7" stop-opacity="0.465278"/>
</linearGradient>
<linearGradient id="paint1_linear_165_5251" x1="102.814" y1="82.4183" x2="123.683" y2="150.171" gradientUnits="userSpaceOnUse">
<stop stop-color="#0176D0"/>
<stop offset="1" stop-color="#16538C"/>
</linearGradient>
<linearGradient id="paint2_linear_165_5251" x1="66.6583" y1="37.5905" x2="106.925" y2="103.107" gradientUnits="userSpaceOnUse">
<stop stop-color="#33BEF0"/>
<stop offset="1" stop-color="#22A5E2"/>
</linearGradient>
</defs>
</svg>
