<svg width="195" height="195" viewBox="0 0 195 195" fill="none" xmlns="http://www.w3.org/2000/svg">
<path d="M75.2777 82.7322H141.944C145.014 82.7322 147.5 85.2183 147.5 88.2877V127.177C147.5 130.246 145.014 132.732 141.944 132.732H139.167V149.627C139.167 151.163 137.156 151.738 136.344 150.435L125.278 132.732H75.2777C72.2083 132.732 69.7222 130.246 69.7222 127.177V88.2877C69.7222 85.2183 72.2083 82.7322 75.2777 82.7322Z" fill="url(#paint0_linear_165_5249)"/>
<path opacity="0.05" d="M122.5 96.6211H69.7222V82.7322H128.055V91.0655C128.055 94.135 125.569 96.6211 122.5 96.6211Z" fill="black"/>
<path opacity="0.07" d="M121.111 95.2322H69.7222V82.7322H126.667V89.6766C126.667 92.7461 124.181 95.2322 121.111 95.2322Z" fill="black"/>
<path d="M119.722 43.8433H53.0556C49.9861 43.8433 47.5 46.3294 47.5 49.3988V88.2877C47.5 91.3571 49.9861 93.8433 53.0556 93.8433H55.8333V111.224C55.8333 112.618 57.6611 113.143 58.4 111.96L69.7222 93.8433H119.722C122.792 93.8433 125.278 91.3571 125.278 88.2877V49.3988C125.278 46.3294 122.792 43.8433 119.722 43.8433Z" fill="url(#paint1_linear_165_5249)"/>
<path opacity="0.05" d="M65.5558 68.8433H107.222C109.522 68.8433 111.389 66.9766 111.389 64.6766V61.8988C111.389 59.5988 109.522 57.7322 107.222 57.7322H65.5558C63.2558 57.7322 61.3892 59.5988 61.3892 61.8988V64.6766C61.3892 66.9766 63.2558 68.8433 65.5558 68.8433Z" fill="black"/>
<path opacity="0.07" d="M65.5556 67.4544H107.222C108.756 67.4544 110 66.21 110 64.6766V61.8989C110 60.3655 108.756 59.1211 107.222 59.1211H65.5556C64.0223 59.1211 62.7778 60.3655 62.7778 61.8989V64.6766C62.7778 66.21 64.0223 67.4544 65.5556 67.4544Z" fill="black"/>
<path d="M108.611 61.8989V64.6767C108.611 65.4433 107.989 66.0656 107.222 66.0656H65.5554C64.7887 66.0656 64.1665 65.4433 64.1665 64.6767V61.8989C64.1665 61.1322 64.7887 60.51 65.5554 60.51H107.222C107.989 60.51 108.611 61.1322 108.611 61.8989Z" fill="white"/>
<path opacity="0.05" d="M65.5558 79.9544H101.667C103.967 79.9544 105.834 78.0877 105.834 75.7877V73.0099C105.834 70.7099 103.967 68.8433 101.667 68.8433H65.5558C63.2558 68.8433 61.3892 70.7099 61.3892 73.0099V75.7877C61.3892 78.0877 63.2558 79.9544 65.5558 79.9544Z" fill="black"/>
<path opacity="0.07" d="M65.5556 78.5655H101.667C103.2 78.5655 104.445 77.3211 104.445 75.7877V73.01C104.445 71.4766 103.2 70.2322 101.667 70.2322H65.5556C64.0223 70.2322 62.7778 71.4766 62.7778 73.01V75.7877C62.7778 77.3211 64.0223 78.5655 65.5556 78.5655Z" fill="black"/>
<path d="M103.055 73.01V75.7878C103.055 76.5544 102.433 77.1766 101.667 77.1766H65.5554C64.7887 77.1766 64.1665 76.5544 64.1665 75.7878V73.01C64.1665 72.2433 64.7887 71.6211 65.5554 71.6211H101.667C102.433 71.6211 103.055 72.2433 103.055 73.01Z" fill="white"/>
<defs>
<linearGradient id="paint0_linear_165_5249" x1="100.814" y1="82.4183" x2="121.683" y2="150.171" gradientUnits="userSpaceOnUse">
<stop stop-color="#0176D0"/>
<stop offset="1" stop-color="#16538C"/>
</linearGradient>
<linearGradient id="paint1_linear_165_5249" x1="64.6583" y1="37.5905" x2="104.925" y2="103.107" gradientUnits="userSpaceOnUse">
<stop stop-color="#33BEF0"/>
<stop offset="1" stop-color="#22A5E2"/>
</linearGradient>
</defs>
</svg>
