<svg width="70" height="70" viewBox="0 0 70 70" fill="none" xmlns="http://www.w3.org/2000/svg">
<path d="M31.8182 63.6364C49.3909 63.6364 63.6364 49.3909 63.6364 31.8182C63.6364 14.2455 49.3909 0 31.8182 0C14.2455 0 0 14.2455 0 31.8182C0 49.3909 14.2455 63.6364 31.8182 63.6364Z" fill="url(#paint0_linear_289_6073)"/>
<path d="M31.8182 58.8636C46.7549 58.8636 58.8636 46.755 58.8636 31.8182C58.8636 16.8814 46.7549 4.77274 31.8182 4.77274C16.8814 4.77274 4.77271 16.8814 4.77271 31.8182C4.77271 46.755 16.8814 58.8636 31.8182 58.8636Z" fill="#F5BE00"/>
<path d="M40.1704 37.1509C40.1704 28.972 28.0954 30.5693 28.0954 25.7377C28.0954 23.2161 30.932 23.0825 31.8182 23.0825C33.95 23.0825 36.007 23.6536 37.5757 24.3902C38.0704 24.6225 38.6384 24.2789 38.6384 23.7332V21.3532C38.6384 20.5545 38.3377 20.082 37.8588 19.8943C36.7834 19.4775 35.2402 19.1705 32.9557 19.0957V16.477C32.9557 16.1636 32.7011 15.9091 32.3877 15.9091H31.2518C30.9384 15.9091 30.6838 16.1636 30.6838 16.477V19.1386C27.1393 19.4823 23.4659 21.482 23.4659 26.1323C23.4659 34.6102 35.5409 32.9286 35.5409 37.3943C35.5409 38.7975 34.6436 40.0066 31.8182 40.0066C28.9768 40.0066 26.3661 39.0139 24.9216 38.2757C24.4347 38.0275 23.862 38.387 23.862 38.9343V41.6436C23.862 42.1639 24.1738 42.6252 24.6543 42.8273C26.3661 43.5543 28.6634 44.1048 30.6822 44.2655V47.1609C30.6822 47.4743 30.9368 47.7289 31.2502 47.7289H32.3861C32.6995 47.7289 32.9541 47.4743 32.9541 47.1609V44.2734C38.2534 43.8311 40.1704 40.2818 40.1704 37.1509Z" fill="#FEE119"/>
<path d="M63.1352 37.2845C60.4402 35.8289 57.3618 35 54.0909 35C43.5639 35 35 43.5639 35 54.0909C35 57.3618 35.8289 60.4402 37.2845 63.1352C50.4684 60.8475 60.8475 50.4684 63.1352 37.2845Z" fill="url(#paint1_radial_289_6073)"/>
<path d="M70 54.0909C70 62.8759 62.8759 70 54.0909 70C45.3059 70 38.1818 62.8759 38.1818 54.0909C38.1818 45.3059 45.3059 38.1818 54.0909 38.1818C62.8759 38.1818 70 45.3059 70 54.0909Z" fill="url(#paint2_linear_289_6073)"/>
<path d="M54.8864 62.0454H53.2955C52.8564 62.0454 52.5 61.6891 52.5 61.25V46.9318C52.5 46.4927 52.8564 46.1364 53.2955 46.1364H54.8864C55.3255 46.1364 55.6818 46.4927 55.6818 46.9318V61.25C55.6818 61.6891 55.3255 62.0454 54.8864 62.0454Z" fill="white"/>
<path d="M46.1364 54.8864V53.2955C46.1364 52.8564 46.4927 52.5 46.9318 52.5H61.25C61.6891 52.5 62.0454 52.8564 62.0454 53.2955V54.8864C62.0454 55.3255 61.6891 55.6818 61.25 55.6818H46.9318C46.4927 55.6818 46.1364 55.3255 46.1364 54.8864Z" fill="white"/>
<defs>
<linearGradient id="paint0_linear_289_6073" x1="9.97977" y1="9.97818" x2="54.2691" y2="54.2707" gradientUnits="userSpaceOnUse">
<stop stop-color="#FEDE00"/>
<stop offset="1" stop-color="#FFD000"/>
</linearGradient>
<radialGradient id="paint1_radial_289_6073" cx="0" cy="0" r="1" gradientUnits="userSpaceOnUse" gradientTransform="translate(53.332 53.8395) scale(18.0345)">
<stop/>
<stop offset="0.979" stop-opacity="0"/>
</radialGradient>
<linearGradient id="paint2_linear_289_6073" x1="42.8416" y1="42.8416" x2="65.3402" y2="65.3402" gradientUnits="userSpaceOnUse">
<stop stop-color="#21AD64"/>
<stop offset="1" stop-color="#088242"/>
</linearGradient>
</defs>
</svg>
