<svg width="100" height="100" viewBox="0 0 100 100" fill="none" xmlns="http://www.w3.org/2000/svg">
<path d="M68.8462 31.1538V76.0256C68.8462 78.009 67.2397 79.6154 65.2564 79.6154H18.5897C16.6064 79.6154 15 78.009 15 76.0256V15C15 13.0167 16.6064 11.4102 18.5897 11.4102H49.1026L68.8462 31.1538Z" fill="url(#paint0_linear_289_6093)"/>
<path d="M49.1025 11.4102V27.5641C49.1025 29.5474 50.7089 31.1538 52.6923 31.1538H68.8461L49.1025 11.4102Z" fill="url(#paint1_linear_289_6093)"/>
<path d="M23.9762 63.4615C23.3606 63.4615 22.7593 63.1438 22.4272 62.5713C21.9283 61.7169 22.2154 60.6185 23.068 60.1159C23.1129 60.089 24.8306 59.0605 26.9377 57.14C25.0639 54.3274 23.9744 50.359 23.9744 45.6905C23.9744 37.1326 27.2967 31.1538 32.0513 31.1538C36.6875 31.1538 38.3334 36.6444 38.3334 41.3451C38.3334 48.1944 35.1888 53.5341 31.9383 57.2226C32.7603 57.77 33.6954 58.0769 34.7436 58.0769C37.3067 58.0769 39.6616 57.3231 41.6234 56.1277C40.5698 54.2197 40.1283 51.8451 40.1283 49.6428C40.1283 45.6923 41.9429 40.1282 45.9759 40.1282C47.4549 40.1282 50.8975 40.8354 50.8975 47.3885C50.8975 50.42 49.4993 53.6149 47.1193 56.2102C47.3544 56.2569 47.6057 56.282 47.8749 56.282C49.8116 56.282 50.7844 55.2392 52.3388 53.3959C53.9488 51.4826 55.9554 49.1026 59.8718 49.1026C60.8644 49.1026 61.6667 49.9067 61.6667 50.8974C61.6667 51.8882 60.8644 52.6923 59.8718 52.6923C57.7342 52.6923 56.659 53.8392 55.0831 55.7095C53.5198 57.5636 51.5742 59.8718 47.8731 59.8718C46.3547 59.8718 45.0983 59.4841 44.0698 58.8254C41.4744 60.5646 38.2795 61.6667 34.7436 61.6667C32.737 61.6667 30.9224 61.0097 29.3806 59.8126C27.0293 61.9431 25.0836 63.099 24.879 63.2174C24.5954 63.3826 24.2831 63.4615 23.9762 63.4615ZM32.0513 34.7436C29.8849 34.7436 27.5642 39.1428 27.5642 45.6905C27.5642 48.889 28.2301 52.1072 29.5313 54.462C32.2272 51.2833 34.7436 46.8446 34.7436 41.3451C34.7436 38.7928 34.0131 34.7436 32.0513 34.7436ZM45.9759 43.7179C45.127 43.7179 43.718 46.5879 43.718 49.6428C43.718 50.4685 43.8024 52.2902 44.4575 53.8141C46.247 51.8882 47.3077 49.5602 47.3077 47.3885C47.3077 46.2864 47.1785 43.7179 45.9759 43.7179Z" fill="url(#paint2_linear_289_6093)"/>
<path opacity="0.3" d="M67.0513 49.1026C55.1567 49.1026 45.5128 58.7464 45.5128 70.641C45.5128 73.8485 46.2326 76.88 47.4908 79.6154H65.2564C67.2397 79.6154 68.8461 78.009 68.8461 76.0256V49.1923C68.252 49.1439 67.6579 49.1026 67.0513 49.1026Z" fill="url(#paint3_radial_289_6093)"/>
<path d="M67.0513 52.6923L71.2315 55.0382L76.0256 55.0974L78.4738 59.2184L82.5948 61.6667L82.6541 66.4608L85 70.641L82.6541 74.8213L82.5948 79.6154L78.4738 82.0636L76.0256 86.1846L71.2315 86.2438L67.0513 88.5897L62.871 86.2438L58.0769 86.1846L55.6287 82.0636L51.5077 79.6154L51.4484 74.8213L49.1025 70.641L51.4484 66.4608L51.5077 61.6667L55.6287 59.2184L58.0769 55.0974L62.871 55.0382L67.0513 52.6923Z" fill="#FDB700"/>
<path d="M67.0513 83.2051C73.9902 83.2051 79.6154 77.58 79.6154 70.641C79.6154 63.7021 73.9902 58.0769 67.0513 58.0769C60.1123 58.0769 54.4872 63.7021 54.4872 70.641C54.4872 77.58 60.1123 83.2051 67.0513 83.2051Z" fill="url(#paint4_linear_289_6093)"/>
<defs>
<linearGradient id="paint0_linear_289_6093" x1="31.9769" y1="12.4574" x2="69.8453" y2="70.0992" gradientUnits="userSpaceOnUse">
<stop stop-color="#7DD8F3"/>
<stop offset="1" stop-color="#45B0D0"/>
</linearGradient>
<linearGradient id="paint1_linear_289_6093" x1="50.052" y1="30.2061" x2="59.1538" y2="21.1026" gradientUnits="userSpaceOnUse">
<stop stop-color="#3079D6"/>
<stop offset="1" stop-color="#297CD2"/>
</linearGradient>
<linearGradient id="paint2_linear_289_6093" x1="30.9296" y1="26.3409" x2="50.9458" y2="62.2514" gradientUnits="userSpaceOnUse">
<stop stop-color="#FCFCFC"/>
<stop offset="0.95" stop-color="#C3C9CD"/>
</linearGradient>
<radialGradient id="paint3_radial_289_6093" cx="0" cy="0" r="1" gradientUnits="userSpaceOnUse" gradientTransform="translate(67.0333 70.729) scale(21.5528 21.5528)">
<stop offset="0.348"/>
<stop offset="0.936" stop-opacity="0.098"/>
<stop offset="1" stop-opacity="0"/>
</radialGradient>
<linearGradient id="paint4_linear_289_6093" x1="54.4872" y1="70.641" x2="79.6154" y2="70.641" gradientUnits="userSpaceOnUse">
<stop stop-color="#FEDE00"/>
<stop offset="1" stop-color="#FFD000"/>
</linearGradient>
</defs>
</svg>
