<svg width="100" height="100" viewBox="0 0 100 100" fill="none" xmlns="http://www.w3.org/2000/svg">
<path d="M21 34C21 31.2386 23.2386 29 26 29H74C76.7614 29 79 31.2386 79 34V79C79 81.7614 76.7614 84 74 84H26C23.2386 84 21 81.7614 21 79V34Z" fill="#F3F3F3"/>
<path d="M92.6361 26.6115H50.8838V55.8381H92.6361V26.6115Z" fill="url(#paint0_linear_295_6584)"/>
<path d="M70.7162 55.8379H72.8038V62.1008H70.7162V55.8379Z" fill="#64717C"/>
<path d="M92.6361 27.6552H50.8838C50.3076 27.6552 49.84 27.1876 49.84 26.6114V24.5238C49.84 23.9476 50.3076 23.48 50.8838 23.48H92.6361C93.2123 23.48 93.6799 23.9476 93.6799 24.5238V26.6114C93.6799 27.1876 93.2123 27.6552 92.6361 27.6552Z" fill="url(#paint1_linear_295_6584)"/>
<path d="M92.6361 54.7942H50.8838V56.8818H92.6361V54.7942Z" fill="url(#paint2_linear_295_6584)"/>
<path d="M69.6724 62.1009C69.6724 63.2533 70.6077 64.1885 71.76 64.1885C72.9124 64.1885 73.8477 63.2533 73.8477 62.1009C73.8477 60.9485 72.9124 60.0133 71.76 60.0133C70.6077 60.0133 69.6724 60.9485 69.6724 62.1009Z" fill="#ABB4BE"/>
<path d="M62.3658 33.9181C58.3304 33.9181 55.0591 37.1894 55.0591 41.2247C55.0591 45.2601 58.3304 48.5314 62.3658 48.5314C66.4012 48.5314 69.6724 45.2601 69.6724 41.2247H62.3658V33.9181Z" fill="white"/>
<path d="M64.4533 31.8306V39.1372H71.7599C71.7599 35.1019 68.4886 31.8306 64.4533 31.8306Z" fill="white"/>
<path d="M87.9388 34.9618H76.457C76.1689 34.9618 75.9351 34.7279 75.9351 34.4399V33.396C75.9351 33.108 76.1689 32.8741 76.457 32.8741H87.9388C88.2269 32.8741 88.4607 33.108 88.4607 33.396V34.4399C88.4607 34.7279 88.2269 34.9618 87.9388 34.9618Z" fill="white"/>
<path d="M85.8512 37.0494H76.457C76.1689 37.0494 75.9351 37.2832 75.9351 37.5713V38.6151C75.9351 38.9032 76.1689 39.137 76.457 39.137H85.8512C86.1393 39.137 86.3731 38.9032 86.3731 38.6151V37.5713C86.3731 37.2832 86.1393 37.0494 85.8512 37.0494Z" fill="white"/>
<path d="M87.9388 41.2246H76.457C76.1689 41.2246 75.9351 41.4585 75.9351 41.7465V42.7904C75.9351 43.0784 76.1689 43.3123 76.457 43.3123H87.9388C88.2269 43.3123 88.4607 43.0784 88.4607 42.7904V41.7465C88.4607 41.4585 88.2269 41.2246 87.9388 41.2246Z" fill="white"/>
<path d="M85.8512 45.3998H76.457C76.1689 45.3998 75.9351 45.6337 75.9351 45.9217V46.9656C75.9351 47.2536 76.1689 47.4875 76.457 47.4875H85.8512C86.1393 47.4875 86.3731 47.2536 86.3731 46.9656V45.9217C86.3731 45.6337 86.1393 45.3998 85.8512 45.3998Z" fill="white"/>
<path d="M92.6362 56.8818C93.2127 56.8818 93.68 56.4145 93.68 55.838C93.68 55.2615 93.2127 54.7942 92.6362 54.7942C92.0597 54.7942 91.5924 55.2615 91.5924 55.838C91.5924 56.4145 92.0597 56.8818 92.6362 56.8818Z" fill="url(#paint3_linear_295_6584)"/>
<path d="M50.8838 56.8818C51.4603 56.8818 51.9276 56.4145 51.9276 55.838C51.9276 55.2615 51.4603 54.7942 50.8838 54.7942C50.3073 54.7942 49.84 55.2615 49.84 55.838C49.84 56.4145 50.3073 56.8818 50.8838 56.8818Z" fill="url(#paint4_linear_295_6584)"/>
<path opacity="0.05" d="M85.4463 56.5924C84.7204 54.979 83.3746 53.7274 81.6577 53.0764C79.9408 52.4188 78.058 52.4429 76.3733 53.1356L65.777 57.4122L53.5606 46.7875C53.4615 46.702 53.3647 46.6275 53.2679 46.5661C51.5648 45.1085 49.3801 44.304 47.1148 44.304H42.5149C48.8432 44.2843 54.0077 39.3698 54.0284 33.344C54.0284 27.3007 48.8593 22.384 42.5057 22.384C39.9015 22.384 37.5232 23.2411 35.592 24.633V42.0572C37.5232 43.4469 39.9015 44.304 42.5057 44.304H37.8966C37.0969 44.304 36.3341 44.4311 35.592 44.6153V83.76H56.333V67.0219L59.7345 69.9811C61.7118 71.6996 64.6847 72.1797 67.116 71.1735L81.8167 65.2288C83.5105 64.5384 84.8264 63.2582 85.5109 61.6252C86.1953 59.9965 86.1723 58.2101 85.4463 56.5924Z" fill="black"/>
<path d="M55.2631 41.9442H47.6676C47.6464 37.5917 45.9023 33.4248 42.8172 30.3546C39.7321 27.2845 35.5567 25.5609 31.2043 25.5609C26.8518 25.5609 22.6764 27.2845 19.5913 30.3546C16.5061 33.4248 14.7623 37.5917 14.7411 41.9442H7.14541C7.14404 39.6589 7.47596 37.3857 8.13066 35.1963C9.61253 30.2278 12.6586 25.8703 16.8158 22.7719C20.9731 19.6736 26.0194 18 31.2043 18C36.3891 18 41.4354 19.6736 45.5928 22.7719C49.7498 25.8703 52.7959 30.2278 54.278 35.1963C54.9324 37.3857 55.2647 39.6589 55.2631 41.9442Z" fill="#3079D6"/>
<path d="M56.4089 37.4762V45.4958C56.4069 46.1029 56.165 46.6847 55.7356 47.114C55.3063 47.5434 54.7246 47.7853 54.1173 47.7871H50.1076V35.1849H54.1173C54.1711 35.1825 54.2249 35.1864 54.278 35.1963C54.8554 35.2365 55.3963 35.494 55.7918 35.917C56.1874 36.34 56.4077 36.8972 56.4089 37.4762Z" fill="#42A4ED"/>
<path d="M12.3011 35.1849V47.7871H8.29131C7.68417 47.7853 7.10241 47.5434 6.67309 47.114C6.24377 46.6847 6.00179 46.1029 6 45.4958V37.4762C6.00111 36.8972 6.22155 36.34 6.61693 35.917C7.01232 35.494 7.55301 35.2365 8.13066 35.1963C8.18349 35.1864 8.23758 35.1825 8.29131 35.1849H12.3011Z" fill="#42A4ED"/>
<path d="M52.9719 41.9442V42.0588C52.9747 43.9941 52.7166 45.9209 52.2044 47.7871H50.1076L50.108 41.9442H47.6676C47.6464 37.5917 45.9023 33.4248 42.8172 30.3546C39.7321 27.2845 35.5567 25.5609 31.2043 25.5609C26.8518 25.5609 22.6764 27.2845 19.5913 30.3546C16.5061 33.4248 14.7623 37.5917 14.7411 41.9442H12.3011L12.3011 47.7871H10.2046C9.69245 45.9209 9.43427 43.9941 9.43698 42.0588V41.9442C9.44464 39.6453 9.82376 37.3628 10.5597 35.1849C12.0009 30.8488 14.7707 27.0766 18.4763 24.4033C22.182 21.73 26.6353 20.2913 31.2045 20.2913C35.7738 20.2913 40.227 21.73 43.9329 24.4033C47.6381 27.0766 50.4081 30.8488 51.8493 35.1849C52.5854 37.3628 52.9644 39.6453 52.9719 41.9442Z" fill="url(#paint5_radial_295_6584)"/>
<path d="M31.2043 21.437C25.735 21.437 20.4898 23.6097 16.6224 27.477C12.7551 31.3444 10.5824 36.5896 10.5824 42.0589H51.8261C51.8261 36.5896 49.6536 31.3444 45.7861 27.477C41.9187 23.6097 36.6735 21.437 31.2043 21.437Z" fill="url(#paint6_linear_295_6584)"/>
<path d="M39.3382 54.5464H23.0698C21.5803 54.5468 20.1055 54.2534 18.7293 53.6834C17.3532 53.1135 16.1028 52.278 15.0496 51.2245C13.9964 50.1714 13.1609 48.9211 12.591 47.545C12.021 46.1689 11.7277 44.694 11.7278 43.2045C11.7277 41.715 12.021 40.2401 12.591 38.864C13.1609 37.4879 13.9964 36.2375 15.0496 35.1843C16.1028 34.1311 17.3532 33.2956 18.7293 32.7257C20.1055 32.1557 21.5803 31.8624 23.0698 31.8625H39.3382C40.8276 31.8624 42.3026 32.1557 43.6787 32.7257C45.0547 33.2956 46.305 34.1311 47.3585 35.1843C48.4115 36.2375 49.247 37.4879 49.817 38.864C50.3869 40.2401 50.6803 41.715 50.6803 43.2045C50.6803 44.694 50.3869 46.1689 49.817 47.545C49.247 48.9211 48.4115 50.1714 47.3585 51.2245C46.305 52.278 45.0547 53.1135 43.6787 53.6834C42.3026 54.2534 40.8276 54.5468 39.3382 54.5464Z" fill="#F3F3F3"/>
<path d="M39.2812 55.8069H23.1274C19.8013 55.803 16.6127 54.48 14.2608 52.1283C11.909 49.7767 10.5861 46.5878 10.5824 43.2618V43.1472C10.5861 39.8212 11.909 36.6325 14.2608 34.2807C16.6127 31.9288 19.8013 30.6059 23.1274 30.6022H39.2812C42.6072 30.6059 45.7959 31.9288 48.1476 34.2807C50.4997 36.6325 51.8226 39.8212 51.8261 43.1472V43.2629C51.8222 46.5887 50.4993 49.777 48.1472 52.1287C45.7955 54.4804 42.607 55.803 39.2812 55.8069ZM23.1274 32.8935C20.4089 32.8967 17.8026 33.9779 15.8804 35.9002C13.9581 37.8224 12.8768 40.4287 12.8737 43.1472V43.2629C12.877 45.9812 13.9584 48.5872 15.8807 50.5092C17.8029 52.4312 20.409 53.5126 23.1274 53.5153H39.2812C41.9997 53.5126 44.6061 52.4312 46.5285 50.5088C48.4508 48.5867 49.5318 45.9803 49.5349 43.2618V43.1472C49.5318 40.4287 48.4504 37.8224 46.5281 35.9002C44.6057 33.9779 41.9996 32.8967 39.2812 32.8935H23.1274Z" fill="url(#paint7_linear_295_6584)"/>
<path d="M27.7658 44.3502C27.5053 44.3497 27.2527 44.2606 27.0496 44.0976C26.8465 43.9345 26.7048 43.7071 26.6481 43.4529C26.4569 42.6924 26.0062 42.0226 25.3739 41.5589C24.7415 41.0952 23.9671 40.8669 23.1843 40.9132C22.4016 40.8668 21.6272 41.0952 20.9948 41.5589C20.3624 42.0226 19.9117 42.6924 19.7205 43.4529C19.6539 43.7489 19.4726 44.0063 19.2165 44.1689C18.9603 44.3315 18.6502 44.3858 18.354 44.3201C18.0578 44.2543 17.7999 44.0738 17.6366 43.8182C17.4732 43.5624 17.418 43.2525 17.4829 42.9561C17.7855 41.6858 18.5191 40.5597 19.5586 39.7695C20.5981 38.9792 21.8794 38.5737 23.1843 38.6219C24.4892 38.5737 25.7705 38.9792 26.8101 39.7695C27.8496 40.5597 28.5831 41.6858 28.8858 42.9561C28.9513 43.2528 28.8965 43.5634 28.7333 43.8197C28.5701 44.0761 28.3119 44.2571 28.0153 44.3233C27.9334 44.341 27.8497 44.35 27.7658 44.3502Z" fill="#3079D6"/>
<path d="M43.8052 44.3502C43.5448 44.3497 43.2922 44.2606 43.0891 44.0976C42.8859 43.9345 42.7443 43.7071 42.6876 43.4529C42.4964 42.6924 42.0457 42.0226 41.4133 41.5589C40.781 41.0952 40.0066 40.8669 39.2238 40.9132C38.441 40.8668 37.6666 41.0952 37.0343 41.5589C36.4019 42.0226 35.9512 42.6924 35.76 43.4529C35.6934 43.7489 35.5121 44.0063 35.256 44.1689C34.9998 44.3315 34.6897 44.3858 34.3935 44.3201C34.0973 44.2543 33.8393 44.0738 33.676 43.8182C33.5127 43.5624 33.4575 43.2525 33.5224 42.9561C33.825 41.6858 34.5585 40.5597 35.5981 39.7695C36.6376 38.9792 37.9189 38.5737 39.2238 38.6219C40.5287 38.5737 41.81 38.9792 42.8495 39.7695C43.8893 40.5597 44.6226 41.6858 44.9251 42.9561C44.9907 43.2528 44.9361 43.5634 44.7727 43.8197C44.6097 44.0761 44.3516 44.2571 44.0546 44.3233C43.9729 44.341 43.8893 44.35 43.8052 44.3502Z" fill="#3079D6"/>
<path d="M9.11371 83.3862V66.3533C9.12501 60.2872 17.5504 55.3701 27.9444 55.3635H35.4772C45.8712 55.3717 42.9959 60.2872 43.0072 66.3533V83.3862H9.11371Z" fill="url(#paint8_linear_295_6584)"/>
<path d="M74.1467 63.6054C73.2015 61.934 70.6425 61.1559 68.4277 61.8746L57.127 65.506L44.5587 56.8058C44.4934 56.7613 44.4194 56.73 44.3518 56.6888C43.1845 55.8728 41.6383 55.3635 39.9265 55.3635H31.2152C27.6066 55.3635 24.6817 57.5773 24.6817 60.3087V83.3862H46.46V67.0572L53.3201 71.8062C54.139 72.3733 55.1909 72.67 56.2602 72.67C56.8417 72.67 57.4231 72.5826 57.9763 72.4029L71.8599 67.9325C74.0704 67.2171 75.094 65.2802 74.1467 63.6054Z" fill="white"/>
<path d="M30.2322 67.4517L24.9525 55.3635H35.5118L30.2322 67.4517Z" fill="url(#paint9_linear_295_6584)"/>
<path d="M32.7413 58.4774H26.9887C26.0948 58.4774 25.4538 59.3385 25.7106 60.195L27.8638 65.1478V65.8149H31.8661V65.1478L34.0194 60.195C34.2762 59.3385 33.6352 58.4774 32.7413 58.4774Z" fill="url(#paint10_linear_295_6584)"/>
<path d="M31.8661 65.1479H27.8638L24.7033 81.8195C24.5959 82.5459 24.8948 83.273 25.4824 83.7139L28.6643 86.1C29.376 86.6336 30.3539 86.6336 31.0656 86.1L34.2481 83.7133C34.8358 83.2723 35.1346 82.5453 35.0273 81.8188L31.8661 65.1479Z" fill="url(#paint11_linear_295_6584)"/>
<path d="M25.5726 77.2343L25.1597 79.4116L32.6674 84.8987L34.2476 83.7134C34.2783 83.69 34.305 83.6633 34.3343 83.6387L25.5726 77.2343Z" fill="url(#paint12_linear_295_6584)"/>
<path d="M27.509 67.021L27.0961 69.1976L33.5245 73.8963L32.9795 71.0193L27.509 67.021Z" fill="url(#paint13_linear_295_6584)"/>
<path d="M26.1103 74.3981L34.828 80.7691L34.2823 77.8914L26.5232 72.2208L26.1103 74.3981Z" fill="url(#paint14_linear_295_6584)"/>
<path opacity="0.07" d="M31.9295 65.4815L31.8661 65.1479H27.8638L27.8004 65.4815H31.9295Z" fill="#231F20"/>
<path opacity="0.05" d="M31.9931 65.815L31.8663 65.1479H27.864L27.7373 65.815H31.9931Z" fill="#231F20"/>
<defs>
<linearGradient id="paint0_linear_295_6584" x1="65.3781" y1="27.8896" x2="68.7689" y2="59.3756" gradientUnits="userSpaceOnUse">
<stop stop-color="#0D61A9"/>
<stop offset="1" stop-color="#16528C"/>
</linearGradient>
<linearGradient id="paint1_linear_295_6584" x1="65.8569" y1="23.662" x2="65.9366" y2="28.2646" gradientUnits="userSpaceOnUse">
<stop stop-color="#32BDEF"/>
<stop offset="1" stop-color="#1EA2E4"/>
</linearGradient>
<linearGradient id="paint2_linear_295_6584" x1="66.138" y1="54.8852" x2="66.1589" y2="57.187" gradientUnits="userSpaceOnUse">
<stop stop-color="#32BDEF"/>
<stop offset="1" stop-color="#1EA2E4"/>
</linearGradient>
<linearGradient id="paint3_linear_295_6584" x1="92.3551" y1="54.8852" x2="92.7603" y2="57.1135" gradientUnits="userSpaceOnUse">
<stop stop-color="#32BDEF"/>
<stop offset="1" stop-color="#1EA2E4"/>
</linearGradient>
<linearGradient id="paint4_linear_295_6584" x1="50.6027" y1="54.8852" x2="51.0079" y2="57.1135" gradientUnits="userSpaceOnUse">
<stop stop-color="#32BDEF"/>
<stop offset="1" stop-color="#1EA2E4"/>
</linearGradient>
<radialGradient id="paint5_radial_295_6584" cx="0" cy="0" r="1" gradientUnits="userSpaceOnUse" gradientTransform="translate(31.0096 47.8455) scale(25.0745 30.05)">
<stop offset="0.934" stop-opacity="0.2"/>
<stop offset="1" stop-opacity="0"/>
</radialGradient>
<linearGradient id="paint6_linear_295_6584" x1="21.0933" y1="10.7873" x2="48.8823" y2="61.6867" gradientUnits="userSpaceOnUse">
<stop stop-color="#FFD869"/>
<stop offset="1" stop-color="#FEC52B"/>
</linearGradient>
<linearGradient id="paint7_linear_295_6584" x1="23.4331" y1="10.6982" x2="50.8195" y2="72.0113" gradientUnits="userSpaceOnUse">
<stop stop-color="#EBC500"/>
<stop offset="1" stop-color="#FFD869"/>
</linearGradient>
<linearGradient id="paint8_linear_295_6584" x1="26.2384" y1="64.8879" x2="26.2384" y2="83.7258" gradientUnits="userSpaceOnUse">
<stop stop-color="white"/>
<stop offset="1" stop-color="#FAFAFA"/>
</linearGradient>
<linearGradient id="paint9_linear_295_6584" x1="30.2322" y1="59.0423" x2="30.2322" y2="99.1592" gradientUnits="userSpaceOnUse">
<stop stop-color="#DFE9F2"/>
<stop offset="0.391" stop-color="#D6E0E9"/>
<stop offset="1" stop-color="#BFC8D1"/>
</linearGradient>
<linearGradient id="paint10_linear_295_6584" x1="29.865" y1="58.4774" x2="29.865" y2="66.1698" gradientUnits="userSpaceOnUse">
<stop offset="0.002" stop-color="#427FDB"/>
<stop offset="0.397" stop-color="#2668CB"/>
<stop offset="0.763" stop-color="#1358BF"/>
<stop offset="1" stop-color="#0C52BB"/>
</linearGradient>
<linearGradient id="paint11_linear_295_6584" x1="29.865" y1="86.5002" x2="29.865" y2="43.6843" gradientUnits="userSpaceOnUse">
<stop stop-color="#32BDEF"/>
<stop offset="1" stop-color="#1EA2E4"/>
</linearGradient>
<linearGradient id="paint12_linear_295_6584" x1="29.7477" y1="77.2343" x2="29.7477" y2="84.7613" gradientUnits="userSpaceOnUse">
<stop offset="0.002" stop-color="#427FDB"/>
<stop offset="0.397" stop-color="#2668CB"/>
<stop offset="0.763" stop-color="#1358BF"/>
<stop offset="1" stop-color="#0C52BB"/>
</linearGradient>
<linearGradient id="paint13_linear_295_6584" x1="30.3106" y1="67.021" x2="30.3106" y2="73.6134" gradientUnits="userSpaceOnUse">
<stop offset="0.002" stop-color="#427FDB"/>
<stop offset="0.397" stop-color="#2668CB"/>
<stop offset="0.763" stop-color="#1358BF"/>
<stop offset="1" stop-color="#0C52BB"/>
</linearGradient>
<linearGradient id="paint14_linear_295_6584" x1="30.4688" y1="72.2208" x2="30.4688" y2="80.8111" gradientUnits="userSpaceOnUse">
<stop offset="0.002" stop-color="#427FDB"/>
<stop offset="0.397" stop-color="#2668CB"/>
<stop offset="0.763" stop-color="#1358BF"/>
<stop offset="1" stop-color="#0C52BB"/>
</linearGradient>
</defs>
</svg>
