<svg width="106" height="116" viewBox="0 0 106 116" fill="none" xmlns="http://www.w3.org/2000/svg">
<path d="M106 98.6729H0V50.9729L53 40.3729L106 50.9729V98.6729Z" fill="url(#paint0_linear_293_6576)"/>
<path d="M97.1117 37.7226H8.88829C7.82901 37.7226 6.79404 38.04 5.91688 38.6338C5.03972 39.2277 4.36064 40.0707 3.96724 41.0542L0 50.9726H106L102.033 41.0542C101.639 40.0707 100.96 39.2277 100.083 38.6338C99.2059 38.04 98.171 37.7226 97.1117 37.7226V37.7226Z" fill="url(#paint1_radial_293_6576)"/>
<path d="M71.5501 35.0726L53.0001 17.8476L34.4501 35.0726V98.6726H71.5501V35.0726Z" fill="url(#paint2_linear_293_6576)"/>
<path d="M71.4217 33.7613L53 16.4916L34.5784 33.7613C34.4515 33.8803 34.3023 33.9732 34.1394 34.0345C33.9766 34.0959 33.8033 34.1246 33.6293 34.1189C33.4554 34.1133 33.2843 34.0735 33.1257 34.0017C32.9672 33.9299 32.8244 33.8276 32.7054 33.7006L30.8943 31.768C30.654 31.5116 30.5255 31.1703 30.5368 30.8191C30.5482 30.4679 30.6986 30.1357 30.9549 29.8953L51.1877 10.9266C51.6788 10.4662 52.3269 10.2099 53.0001 10.2099C53.6734 10.2099 54.3214 10.4662 54.8126 10.9266L75.0453 29.8953C75.3017 30.1357 75.4521 30.4679 75.4634 30.8191C75.4748 31.1703 75.3462 31.5116 75.1059 31.768L73.2949 33.7006C73.1759 33.8277 73.033 33.93 72.8745 34.0018C72.7159 34.0735 72.5448 34.1134 72.3708 34.119C72.1969 34.1247 72.0235 34.096 71.8607 34.0346C71.6978 33.9732 71.5486 33.8803 71.4217 33.7613V33.7613Z" fill="#35C1F1"/>
<path d="M70.1995 13.842C61.5756 13.6348 62.9671 11.4245 54.318 11.2223C53.9692 11.2174 53.6361 11.0763 53.3898 10.8291C53.1436 10.582 53.0037 10.2484 53 9.89949V1.9497C53.0002 1.77353 53.0355 1.59917 53.1038 1.43676C53.172 1.27435 53.2719 1.12714 53.3976 1.00369C53.5233 0.880237 53.6722 0.783014 53.8358 0.717677C53.9994 0.65234 54.1744 0.620193 54.3505 0.623106C62.9744 0.83031 61.5829 3.04059 70.232 3.24276C70.5808 3.24773 70.9139 3.38885 71.1602 3.636C71.4064 3.88315 71.5463 4.21675 71.55 4.56562V12.5154C71.5498 12.6916 71.5145 12.8659 71.4462 13.0283C71.378 13.1908 71.2781 13.338 71.1524 13.4614C71.0268 13.5849 70.8778 13.6821 70.7142 13.7474C70.5506 13.8128 70.3756 13.8449 70.1995 13.842V13.842Z" fill="url(#paint3_linear_293_6576)"/>
<path d="M100.7 58.9227H92.7499V72.1727H100.7V58.9227Z" fill="#C28200"/>
<path d="M84.8 58.9227H76.85V72.1727H84.8V58.9227Z" fill="#C28200"/>
<path d="M100.7 77.4726H92.7499V90.7226H100.7V77.4726Z" fill="#C28200"/>
<path d="M84.8 77.4726H76.85V90.7226H84.8V77.4726Z" fill="#C28200"/>
<path d="M52.9997 74.8226C55.1082 74.8226 57.1303 75.6602 58.6212 77.1511C60.1122 78.6421 60.9497 80.6642 60.9497 82.7726V98.6726H45.0497V82.7726C45.0497 80.6642 45.8873 78.6421 47.3782 77.1511C48.8692 75.6602 50.8913 74.8226 52.9997 74.8226Z" fill="url(#paint4_linear_293_6576)"/>
<path d="M29.1501 58.9227H21.2001V72.1727H29.1501V58.9227Z" fill="#C28200"/>
<path d="M13.2499 58.9227H5.29987V72.1727H13.2499V58.9227Z" fill="#C28200"/>
<path d="M29.1501 77.4726H21.2001V90.7226H29.1501V77.4726Z" fill="#C28200"/>
<path d="M13.2499 77.4726H5.29987V90.7226H13.2499V77.4726Z" fill="#C28200"/>
<path opacity="0.05" d="M53 31.6432C55.0965 31.6432 57.1459 32.2649 58.8891 33.4296C60.6322 34.5944 61.9908 36.2499 62.7931 38.1868C63.5954 40.1237 63.8053 42.255 63.3963 44.3112C62.9873 46.3674 61.9778 48.2561 60.4953 49.7386C59.0129 51.221 57.1242 52.2305 55.068 52.6396C53.0118 53.0486 50.8805 52.8386 48.9436 52.0363C47.0067 51.2341 45.3512 49.8754 44.1864 48.1323C43.0217 46.3891 42.4 44.3397 42.4 42.2432C42.4 39.4319 43.5168 36.7358 45.5047 34.7479C47.4926 32.76 50.1887 31.6432 53 31.6432M53 28.9932C50.3794 28.9932 47.8177 29.7703 45.6387 31.2263C43.4598 32.6822 41.7615 34.7515 40.7586 37.1727C39.7557 39.5938 39.4933 42.2579 40.0046 44.8282C40.5159 47.3984 41.7778 49.7593 43.6308 51.6124C45.4839 53.4654 47.8448 54.7274 50.4151 55.2386C52.9853 55.7499 55.6494 55.4875 58.0706 54.4846C60.4917 53.4818 62.5611 51.7835 64.017 49.6045C65.4729 47.4256 66.25 44.8638 66.25 42.2432C66.246 38.7303 64.8488 35.3624 62.3648 32.8784C59.8808 30.3944 56.5129 28.9972 53 28.9932V28.9932Z" fill="black"/>
<path opacity="0.07" d="M53 31.6433C55.0965 31.6433 57.1459 32.265 58.8891 33.4297C60.6322 34.5945 61.9909 36.25 62.7931 38.1869C63.5954 40.1238 63.8053 42.2551 63.3963 44.3113C62.9873 46.3675 61.9778 48.2562 60.4953 49.7386C59.0129 51.2211 57.1242 52.2306 55.068 52.6396C53.0118 53.0486 50.8805 52.8387 48.9436 52.0364C47.0067 51.2341 45.3512 49.8755 44.1864 48.1323C43.0217 46.3892 42.4 44.3398 42.4 42.2433C42.4 39.432 43.5168 36.7359 45.5047 34.748C47.4926 32.7601 50.1887 31.6433 53 31.6433M53 30.3183C50.6415 30.3183 48.3359 31.0177 46.3748 32.328C44.4138 33.6384 42.8853 35.5008 41.9828 37.6798C41.0802 39.8588 40.844 42.2565 41.3042 44.5698C41.7643 46.883 42.9 49.0078 44.5678 50.6755C46.2355 52.3433 48.3603 53.479 50.6736 53.9392C52.9868 54.3993 55.3845 54.1631 57.5635 53.2606C59.7425 52.358 61.605 50.8295 62.9153 48.8685C64.2256 46.9074 64.925 44.6018 64.925 42.2433C64.9214 39.0817 63.6639 36.0506 61.4283 33.815C59.1927 31.5794 56.1616 30.3219 53 30.3183V30.3183Z" fill="black"/>
<path d="M53 51.7523C58.8542 51.7523 63.6 47.2857 63.6 41.7758C63.6 36.266 58.8542 31.7994 53 31.7994C47.1458 31.7994 42.4 36.266 42.4 41.7758C42.4 47.2857 47.1458 51.7523 53 51.7523Z" fill="url(#paint5_radial_293_6576)"/>
<path d="M55.3694 43.0229H53.1247C53.0264 43.023 52.9291 43.0046 52.8383 42.9688C52.7475 42.933 52.665 42.8805 52.5955 42.8143C52.526 42.7481 52.4709 42.6695 52.4333 42.5831C52.3957 42.4966 52.3764 42.4039 52.3765 42.3103V38.7473C52.3765 38.5583 52.4553 38.377 52.5956 38.2434C52.7359 38.1097 52.9263 38.0347 53.1247 38.0347C53.3231 38.0347 53.5135 38.1097 53.6538 38.2434C53.7941 38.377 53.8729 38.5583 53.8729 38.7473V41.5977H55.3694C55.5679 41.5977 55.7582 41.6728 55.8985 41.8064C56.0388 41.94 56.1176 42.1213 56.1176 42.3103C56.1176 42.4993 56.0388 42.6805 55.8985 42.8142C55.7582 42.9478 55.5679 43.0229 55.3694 43.0229Z" fill="#5C2415"/>
<path opacity="0.05" d="M71.4176 33.768L53.0001 16.49L34.5826 33.768C34.5296 33.7944 34.5031 33.8475 34.4501 33.8475V36.683C35.1735 36.5422 35.8434 36.2027 36.3846 35.7025L53.0001 20.1205L69.6156 35.7025C70.1569 36.2027 70.8267 36.5422 71.5501 36.683V33.8475C71.4971 33.8475 71.4706 33.7945 71.4176 33.768Z" fill="black"/>
<path opacity="0.07" d="M71.4176 33.768L53.0001 16.49L34.5826 33.768C34.5296 33.7944 34.5031 33.8475 34.4501 33.8475V35.305C34.8384 35.2012 35.194 35.0006 35.4836 34.722L53.0001 18.3185L70.5166 34.722C70.8063 35.0006 71.1619 35.2012 71.5501 35.305V33.8475C71.4971 33.8475 71.4706 33.7945 71.4176 33.768Z" fill="black"/>
<path d="M75.7691 99.7405H31.9709V88.792C31.9709 76.6979 41.7759 66.8929 53.87 66.8929C65.9641 66.8929 75.7691 76.6979 75.7691 88.792V99.7405Z" fill="url(#paint6_linear_293_6576)"/>
<path d="M53.87 64.6757C60.673 64.6757 66.1879 59.1608 66.1879 52.3578C66.1879 45.5549 60.673 40.04 53.87 40.04C47.0671 40.04 41.5522 45.5549 41.5522 52.3578C41.5522 59.1608 47.0671 64.6757 53.87 64.6757Z" fill="url(#paint7_linear_293_6576)"/>
<path d="M23.0754 91.3643H84.6646L81.1314 112.569C80.8009 114.549 79.0866 116 77.0809 116H30.6591C28.6513 116 26.9391 114.549 26.6085 112.569L23.0754 91.3643Z" fill="url(#paint8_linear_293_6576)"/>
<path d="M84.6646 93.4173H23.0754C21.9422 93.4173 21.0225 92.4976 21.0225 91.3643V89.3113C21.0225 88.1781 21.9422 87.2584 23.0754 87.2584H84.6646C85.7979 87.2584 86.7176 88.1781 86.7176 89.3113V91.3643C86.7176 92.4976 85.7979 93.4173 84.6646 93.4173Z" fill="url(#paint9_linear_293_6576)"/>
<defs>
<linearGradient id="paint0_linear_293_6576" x1="53" y1="50.6284" x2="53" y2="153.809" gradientUnits="userSpaceOnUse">
<stop stop-color="#EBA600"/>
<stop offset="1" stop-color="#C28200"/>
</linearGradient>
<radialGradient id="paint1_radial_293_6576" cx="0" cy="0" r="1" gradientUnits="userSpaceOnUse" gradientTransform="translate(53 44.3476) scale(48.3731)">
<stop stop-color="#007AD9"/>
<stop offset="1" stop-color="#2AA4F4"/>
</radialGradient>
<linearGradient id="paint2_linear_293_6576" x1="27.2315" y1="-3.92216" x2="67.5513" y2="106.853" gradientUnits="userSpaceOnUse">
<stop stop-color="#FFCF54"/>
<stop offset="0.261" stop-color="#FDCB4D"/>
<stop offset="0.639" stop-color="#F7C13A"/>
<stop offset="1" stop-color="#F0B421"/>
</linearGradient>
<linearGradient id="paint3_linear_293_6576" x1="62.275" y1="-3.56957" x2="62.275" y2="17.0554" gradientUnits="userSpaceOnUse">
<stop stop-color="#F44F5A"/>
<stop offset="0.443" stop-color="#EE3D4A"/>
<stop offset="1" stop-color="#E52030"/>
</linearGradient>
<linearGradient id="paint4_linear_293_6576" x1="52.9997" y1="74.4781" x2="52.9997" y2="108.207" gradientUnits="userSpaceOnUse">
<stop stop-color="#D43A02"/>
<stop offset="1" stop-color="#B9360C"/>
</linearGradient>
<radialGradient id="paint5_radial_293_6576" cx="0" cy="0" r="1" gradientUnits="userSpaceOnUse" gradientTransform="translate(53 41.7758) scale(15.8788 14.9448)">
<stop stop-color="#F9F9F9"/>
<stop offset="0.26" stop-color="#F0F1F2"/>
<stop offset="0.678" stop-color="#D9DCDF"/>
<stop offset="1" stop-color="#C2C8CC"/>
</radialGradient>
<linearGradient id="paint6_linear_293_6576" x1="47.3949" y1="67.5375" x2="53.4984" y2="91.4218" gradientUnits="userSpaceOnUse">
<stop stop-color="#1D59B3"/>
<stop offset="1" stop-color="#195BBC"/>
</linearGradient>
<linearGradient id="paint7_linear_293_6576" x1="51.3654" y1="40.6251" x2="56.4075" y2="64.2425" gradientUnits="userSpaceOnUse">
<stop stop-color="#1D59B3"/>
<stop offset="1" stop-color="#195BBC"/>
</linearGradient>
<linearGradient id="paint8_linear_293_6576" x1="23.0754" y1="103.682" x2="84.6646" y2="103.682" gradientUnits="userSpaceOnUse">
<stop stop-color="#199AE0"/>
<stop offset="1" stop-color="#0782D8"/>
</linearGradient>
<linearGradient id="paint9_linear_293_6576" x1="35.5767" y1="86.3408" x2="36.1474" y2="95.277" gradientUnits="userSpaceOnUse">
<stop stop-color="#FCFCFC"/>
<stop offset="0.95" stop-color="#C3C9CD"/>
</linearGradient>
</defs>
</svg>
