<svg width="100" height="100" viewBox="0 0 100 100" fill="none" xmlns="http://www.w3.org/2000/svg">
<rect width="100" height="100" rx="5" fill="white"/>
<rect x="18" y="31" width="65" height="53" rx="5" fill="#F3F3F3"/>
<path d="M79 19.6V84.2C79 86.2995 77.2995 88 75.2 88H25.8C23.7005 88 22 86.2995 22 84.2V19.6C22 17.5005 23.7005 15.8 25.8 15.8H75.2C77.2995 15.8 79 17.5005 79 19.6Z" fill="url(#paint0_linear_289_6019)"/>
<path opacity="0.05" d="M50.5 55.7C42.1058 55.7 35.3 62.5058 35.3 70.9V78.5C35.3 80.5995 37.0005 82.3 39.1 82.3H61.9C63.9995 82.3 65.7 80.5995 65.7 78.5V70.9C65.7 62.5058 58.8942 55.7 50.5 55.7Z" fill="black"/>
<path opacity="0.07" d="M50.5 56.65C42.6302 56.65 36.25 63.0302 36.25 70.9V78.12C36.25 79.9041 37.6959 81.35 39.48 81.35H61.52C63.3041 81.35 64.75 79.9041 64.75 78.12V70.9C64.75 63.0302 58.3698 56.65 50.5 56.65Z" fill="black"/>
<path d="M50.5 55.7C55.7467 55.7 60 51.4467 60 46.2C60 40.9533 55.7467 36.7 50.5 36.7C45.2533 36.7 41 40.9533 41 46.2C41 51.4467 45.2533 55.7 50.5 55.7Z" fill="url(#paint1_radial_289_6019)"/>
<path d="M56.2 12H44.8C43.7512 12 42.9 12.8512 42.9 13.9V25.3C42.9 26.3488 43.7512 27.2 44.8 27.2H56.2C57.2488 27.2 58.1 26.3488 58.1 25.3V13.9C58.1 12.8512 57.2488 12 56.2 12ZM50.5 23.4C49.4512 23.4 48.6 22.5488 48.6 21.5C48.6 20.4512 49.4512 19.6 50.5 19.6C51.5488 19.6 52.4 20.4512 52.4 21.5C52.4 22.5488 51.5488 23.4 50.5 23.4Z" fill="url(#paint2_linear_289_6019)"/>
<path d="M42.9 46.2C42.9 42.0029 46.3029 38.6 50.5 38.6C54.6971 38.6 58.1 42.0029 58.1 46.2C58.1 50.3971 54.6971 53.8 50.5 53.8C46.3029 53.8 42.9 50.3971 42.9 46.2ZM50.5 57.6C43.1546 57.6 37.2 63.5546 37.2 70.9V77.74C37.2 79.2087 38.3913 80.4 39.86 80.4H61.14C62.6087 80.4 63.8 79.2087 63.8 77.74V70.9C63.8 63.5546 57.8454 57.6 50.5 57.6Z" fill="url(#paint3_linear_289_6019)"/>
<defs>
<linearGradient id="paint0_linear_289_6019" x1="42.8069" y1="15.1407" x2="57.7181" y2="86.385" gradientUnits="userSpaceOnUse">
<stop stop-color="#0370C8"/>
<stop offset="0.484" stop-color="#036FC5"/>
<stop offset="0.775" stop-color="#036ABD"/>
<stop offset="1" stop-color="#0362B0"/>
</linearGradient>
<radialGradient id="paint1_radial_289_6019" cx="0" cy="0" r="1" gradientUnits="userSpaceOnUse" gradientTransform="translate(50.5 46.2) scale(9.5)">
<stop/>
<stop offset="1" stop-opacity="0"/>
</radialGradient>
<linearGradient id="paint2_linear_289_6019" x1="49.1491" y1="12.0646" x2="52.1017" y2="28.5376" gradientUnits="userSpaceOnUse">
<stop stop-color="#75DAFF"/>
<stop offset="1" stop-color="#1EA2E4"/>
</linearGradient>
<linearGradient id="paint3_linear_289_6019" x1="44.5777" y1="39.6317" x2="51.7445" y2="81.0574" gradientUnits="userSpaceOnUse">
<stop stop-color="#75DAFF"/>
<stop offset="1" stop-color="#1EA2E4"/>
</linearGradient>
</defs>
</svg>
