<svg width="60" height="80" viewBox="0 0 60 80" fill="none" xmlns="http://www.w3.org/2000/svg">
<path d="M4.16665 36.6667H4.99998V33.3334H4.16665C3.70665 33.3334 3.33331 33.8312 3.33331 34.4445V35.5556C3.33331 36.1689 3.70665 36.6667 4.16665 36.6667Z" fill="#0669BC"/>
<path d="M57.5 33.3334H56.6666V36.6667H57.5C57.96 36.6667 58.3333 36.1689 58.3333 35.5556V34.4445C58.3333 33.8312 57.96 33.3334 57.5 33.3334Z" fill="#0669BC"/>
<path d="M30 53.3334C13.4306 53.3334 0 62.5602 0 72.6196V74.7627C0 76.8346 1.67812 78.5127 3.75 78.5127H56.25C58.3219 78.5127 60 76.8346 60 74.7627V72.6196C60 62.5602 46.5694 53.3334 30 53.3334Z" fill="url(#paint0_linear_290_6300)"/>
<path d="M30 74.2037C30 74.2037 41.25 65.7625 41.25 56.7625C41.25 56.1943 41.25 55.5306 41.25 54.8275C37.7737 53.8787 33.9825 53.335 30 53.335C26.0175 53.335 22.2262 53.8787 18.75 54.8275C18.75 55.5306 18.75 56.1943 18.75 56.7625C18.75 65.7625 30 74.2037 30 74.2037Z" fill="#75DAFF"/>
<path d="M36.6667 52.1023C36.6667 54.3944 34 56.9354 30 56.9354C26 56.9354 23.3334 54.3944 23.3334 52.1023V43.6021H36.6667V52.1023Z" fill="#D6A121"/>
<path d="M41.2204 50.3386H20.6075C18.7203 50.3387 16.8515 49.9671 15.1079 49.2449C13.3643 48.5227 11.78 47.4641 10.4455 46.1297C9.11104 44.7952 8.05248 43.2109 7.33031 41.4673C6.60813 39.7237 6.23648 37.8549 6.23657 35.9676V35.9676C6.23648 34.0804 6.60813 32.2116 7.33031 30.468C8.05248 28.7244 9.11104 27.1401 10.4455 25.8056C11.78 24.4711 13.3643 23.4126 15.1079 22.6904C16.8515 21.9682 18.7203 21.5966 20.6075 21.5967H41.2204C43.1077 21.5966 44.9765 21.9682 46.7201 22.6904C48.4637 23.4126 50.048 24.4711 51.3825 25.8056C52.717 27.1401 53.7755 28.7244 54.4977 30.468C55.2199 32.2116 55.5915 34.0804 55.5914 35.9676C55.5915 37.8549 55.2199 39.7237 54.4977 41.4673C53.7755 43.2109 52.717 44.7952 51.3825 46.1297C50.048 47.4641 48.4637 48.5227 46.7201 49.2449C44.9765 49.9671 43.1077 50.3387 41.2204 50.3386V50.3386Z" fill="url(#paint1_radial_290_6300)" fill-opacity="0.5"/>
<path d="M41.2204 50.3386H20.6075C18.7203 50.3387 16.8515 49.9671 15.1079 49.2449C13.3643 48.5227 11.78 47.4641 10.4455 46.1297C9.11104 44.7952 8.05248 43.2109 7.33031 41.4673C6.60813 39.7237 6.23648 37.8549 6.23657 35.9676V35.9676C6.23648 34.0804 6.60813 32.2116 7.33031 30.468C8.05248 28.7244 9.11104 27.1401 10.4455 25.8056C11.78 24.4711 13.3643 23.4126 15.1079 22.6904C16.8515 21.9682 18.7203 21.5966 20.6075 21.5967H41.2204C43.1077 21.5966 44.9765 21.9682 46.7201 22.6904C48.4637 23.4126 50.048 24.4711 51.3825 25.8056C52.717 27.1401 53.7755 28.7244 54.4977 30.468C55.2199 32.2116 55.5915 34.0804 55.5914 35.9676C55.5915 37.8549 55.2199 39.7237 54.4977 41.4673C53.7755 43.2109 52.717 44.7952 51.3825 46.1297C50.048 47.4641 48.4637 48.5227 46.7201 49.2449C44.9765 49.9671 43.1077 50.3387 41.2204 50.3386V50.3386Z" fill="black" fill-opacity="0.2"/>
<path d="M41.2204 50.3386H20.6075C18.7203 50.3387 16.8515 49.9671 15.1079 49.2449C13.3643 48.5227 11.78 47.4641 10.4455 46.1297C9.11104 44.7952 8.05248 43.2109 7.33031 41.4673C6.60813 39.7237 6.23648 37.8549 6.23657 35.9676V35.9676C6.23648 34.0804 6.60813 32.2116 7.33031 30.468C8.05248 28.7244 9.11104 27.1401 10.4455 25.8056C11.78 24.4711 13.3643 23.4126 15.1079 22.6904C16.8515 21.9682 18.7203 21.5966 20.6075 21.5967H41.2204C43.1077 21.5966 44.9765 21.9682 46.7201 22.6904C48.4637 23.4126 50.048 24.4711 51.3825 25.8056C52.717 27.1401 53.7755 28.7244 54.4977 30.468C55.2199 32.2116 55.5915 34.0804 55.5914 35.9676C55.5915 37.8549 55.2199 39.7237 54.4977 41.4673C53.7755 43.2109 52.717 44.7952 51.3825 46.1297C50.048 47.4641 48.4637 48.5227 46.7201 49.2449C44.9765 49.9671 43.1077 50.3387 41.2204 50.3386V50.3386Z" fill="#F3F3F3"/>
<path d="M41.1479 51.9355H20.6801C16.4659 51.9308 12.4256 50.2546 9.44574 47.2747C6.46584 44.2948 4.78966 40.2545 4.78497 36.0403V35.8952C4.78966 31.6809 6.46584 27.6407 9.44574 24.6608C12.4256 21.6809 16.4659 20.0047 20.6801 20H41.1479C45.3621 20.0047 49.4024 21.6809 52.3823 24.6608C55.3622 27.6407 57.0383 31.6809 57.043 35.8952V36.0418C57.038 40.2558 55.3617 44.2957 52.3819 47.2753C49.402 50.2549 45.3619 51.9309 41.1479 51.9355ZM20.6801 22.9032C17.2357 22.9071 13.9334 24.2772 11.4978 26.7128C9.06217 29.1484 7.69212 32.4507 7.6882 35.8952V36.0418C7.69243 39.486 9.06262 42.788 11.4982 45.2233C13.9338 47.6586 17.2359 49.0284 20.6801 49.0323H41.1479C44.5924 49.0286 47.8948 47.6586 50.3305 45.223C52.7662 42.7873 54.1361 39.4849 54.1398 36.0403V35.8952C54.1359 32.4507 52.7658 29.1484 50.3302 26.7128C47.8946 24.2772 44.5923 22.9071 41.1479 22.9032H20.6801Z" fill="url(#paint2_linear_290_6300)"/>
<path d="M26.5577 37.4192C26.2276 37.4187 25.9076 37.3058 25.6502 37.0992C25.3928 36.8925 25.2134 36.6044 25.1415 36.2823C24.8992 35.3187 24.3282 34.47 23.527 33.8825C22.7257 33.295 21.7445 33.0057 20.7527 33.0644C19.7609 33.0057 18.7797 33.295 17.9784 33.8825C17.1772 34.47 16.6061 35.3187 16.3638 36.2823C16.2794 36.6573 16.0498 36.9835 15.7252 37.1895C15.4007 37.3955 15.0077 37.4644 14.6325 37.3811C14.2572 37.2977 13.9303 37.069 13.7234 36.7451C13.5165 36.4211 13.4464 36.0284 13.5287 35.6529C13.9121 34.0434 14.8415 32.6165 16.1587 31.6152C17.4758 30.6139 19.0993 30.1001 20.7527 30.1611C22.4061 30.1001 24.0296 30.6139 25.3467 31.6152C26.6639 32.6165 27.5933 34.0434 27.9767 35.6529C28.0598 36.0288 27.9903 36.4223 27.7836 36.7471C27.5768 37.0719 27.2496 37.3014 26.8739 37.3852C26.77 37.4076 26.664 37.419 26.5577 37.4192V37.4192Z" fill="#2E7BBE"/>
<path d="M46.8802 37.4192C46.5501 37.4187 46.23 37.3058 45.9726 37.0992C45.7153 36.8925 45.5359 36.6044 45.464 36.2823C45.2217 35.3187 44.6507 34.47 43.8494 33.8825C43.0482 33.295 42.067 33.0057 41.0752 33.0644C40.0833 33.0057 39.1021 33.295 38.3009 33.8825C37.4996 34.47 36.9286 35.3187 36.6863 36.2823C36.6019 36.6573 36.3722 36.9835 36.0477 37.1895C35.7231 37.3955 35.3302 37.4644 34.9549 37.3811C34.5797 37.2977 34.2527 37.069 34.0458 36.7451C33.8389 36.4211 33.7689 36.0284 33.8511 35.6529C34.2346 34.0434 35.164 32.6165 36.4811 31.6152C37.7983 30.6139 39.4217 30.1001 41.0752 30.1611C42.7286 30.1001 44.352 30.6139 45.6692 31.6152C46.9863 32.6165 47.9157 34.0434 48.2992 35.6529C48.3823 36.0288 48.3128 36.4223 48.106 36.7471C47.8993 37.0719 47.5721 37.3014 47.1963 37.3852C47.0924 37.4076 46.9864 37.419 46.8802 37.4192V37.4192Z" fill="#2E7BBE"/>
<path d="M55.4545 26.8333C55.4545 26.8333 43.2576 26.8333 31.0606 26.8333C18.8636 26.8333 6.66666 26.8333 6.66666 26.8333C6.66666 17.0758 9.10605 4.87879 9.10605 4.87879C9.10605 4.87879 14.2922 0 31.0606 0C47.8314 0 53.0151 4.87879 53.0151 4.87879C53.0151 4.87879 55.4545 17.0758 55.4545 26.8333Z" fill="url(#paint3_linear_290_6300)"/>
<path d="M28.6212 7.3183H33.4999V21.9547H28.6212V7.3183Z" fill="#E52030"/>
<path d="M23.7422 12.1971H38.3786V17.0759H23.7422V12.1971Z" fill="#E52030"/>
<path d="M50.3922 66.6667V71.6667C50.3922 75.1647 46.2225 78 41.0784 78C35.9343 78 31.7647 75.1647 31.7647 71.6667V66.6667C36.6382 66.6667 40.5882 63.9807 40.5882 60.6667V54.6667C40.5882 53.93 39.7108 53.3334 38.6275 53.3334H37.6471V60.6667C37.6471 62.876 35.0137 64.6667 31.7647 64.6667H28.8235C25.5745 64.6667 22.9412 62.876 22.9412 60.6667V53.3334H21.9608C20.8775 53.3334 20 53.93 20 54.6667V60.6667C20 63.9807 23.95 66.6667 28.8235 66.6667V71.6667C28.8235 76.2694 34.3098 80 41.0784 80C47.8471 80 53.3333 76.2694 53.3333 71.6667V66.6667H50.3922Z" fill="url(#paint4_linear_290_6300)"/>
<path d="M52.5 71.6667C55.7216 71.6667 58.3333 69.055 58.3333 65.8333C58.3333 62.6117 55.7216 60 52.5 60C49.2783 60 46.6666 62.6117 46.6666 65.8333C46.6666 69.055 49.2783 71.6667 52.5 71.6667Z" fill="#0B5CA8"/>
<path d="M52.5 68.4848C53.9644 68.4848 55.1515 67.2977 55.1515 65.8333C55.1515 64.3689 53.9644 63.1818 52.5 63.1818C51.0356 63.1818 49.8485 64.3689 49.8485 65.8333C49.8485 67.2977 51.0356 68.4848 52.5 68.4848Z" fill="#45D7F9"/>
<defs>
<linearGradient id="paint0_linear_290_6300" x1="21.9394" y1="36.9946" x2="30.285" y2="74.5509" gradientUnits="userSpaceOnUse">
<stop stop-color="#75DAFF"/>
<stop offset="1" stop-color="#1EA2E4"/>
</linearGradient>
<radialGradient id="paint1_radial_290_6300" cx="0" cy="0" r="1" gradientUnits="userSpaceOnUse" gradientTransform="translate(29.4624 18.5483) rotate(87.3856) scale(31.8234 54.6463)">
<stop stop-opacity="0.6"/>
<stop offset="1" stop-color="#707D88" stop-opacity="0"/>
</radialGradient>
<linearGradient id="paint2_linear_290_6300" x1="22.8576" y1="13.8321" x2="42.823" y2="68.69" gradientUnits="userSpaceOnUse">
<stop stop-color="#EAC878"/>
<stop offset="0.24037" stop-color="#FFC745"/>
<stop offset="1" stop-color="#E6BE6D"/>
</linearGradient>
<linearGradient id="paint3_linear_290_6300" x1="25.8623" y1="-1.60024" x2="47.5411" y2="93.4849" gradientUnits="userSpaceOnUse">
<stop stop-color="#75DAFF"/>
<stop offset="1" stop-color="#1EA2E4"/>
</linearGradient>
<linearGradient id="paint4_linear_290_6300" x1="33.8461" y1="52.538" x2="37.1988" y2="81.801" gradientUnits="userSpaceOnUse">
<stop stop-color="#26ABE7"/>
<stop offset="1" stop-color="#086DBF"/>
</linearGradient>
</defs>
</svg>
