<svg width="304" height="328" viewBox="0 0 304 328" fill="none" xmlns="http://www.w3.org/2000/svg">
<circle cx="153.655" cy="161.059" r="147.033" stroke="#FCFCFC" stroke-opacity="0.3" stroke-width="5"/>
<path opacity="0.5" d="M151.163 46.729C164.066 46.729 174.527 36.2683 174.527 23.3645C174.527 10.4606 164.066 0 151.163 0C138.259 0 127.798 10.4606 127.798 23.3645C127.798 36.2683 138.259 46.729 151.163 46.729Z" fill="#DADADA"/>
<path opacity="0.5" d="M26 258.926C39.8071 258.926 51 247.734 51 233.926C51 220.119 39.8071 208.926 26 208.926C12.1929 208.926 1 220.119 1 233.926C1 247.734 12.1929 258.926 26 258.926Z" fill="white" fill-opacity="0.5"/>
<path opacity="0.5" d="M25 117.926C38.8071 117.926 50 106.734 50 92.9264C50 79.1193 38.8071 67.9264 25 67.9264C11.1929 67.9264 0 79.1193 0 92.9264C0 106.734 11.1929 117.926 25 117.926Z" fill="white"/>
<path opacity="0.5" d="M275.773 116.822C288.677 116.822 299.138 106.362 299.138 93.4579C299.138 80.5541 288.677 70.0934 275.773 70.0934C262.869 70.0934 252.409 80.5541 252.409 93.4579C252.409 106.362 262.869 116.822 275.773 116.822Z" fill="#DADADA"/>
<path opacity="0.5" d="M275.773 257.009C288.677 257.009 299.138 246.549 299.138 233.645C299.138 220.741 288.677 210.28 275.773 210.28C262.869 210.28 252.409 220.741 252.409 233.645C252.409 246.549 262.869 257.009 275.773 257.009Z" fill="#DADADA"/>
<path opacity="0.5" d="M151.163 327.103C164.066 327.103 174.527 316.642 174.527 303.738C174.527 290.834 164.066 280.374 151.163 280.374C138.259 280.374 127.798 290.834 127.798 303.738C127.798 316.642 138.259 327.103 151.163 327.103Z" fill="#DADADA"/>
<path d="M236.832 163.551C236.832 210.864 198.476 249.221 151.163 249.221C103.849 249.221 65.4928 210.864 65.4928 163.551C65.4928 116.238 103.849 77.8816 151.163 77.8816C198.476 77.8816 236.832 116.238 236.832 163.551Z" fill="url(#paint0_radial_291_6499)"/>
<path d="M151.163 249.221C175.983 249.221 198.273 238.598 213.92 221.729C203.32 197.578 179.231 180.685 151.163 180.685C123.094 180.685 99.0052 197.578 88.4055 221.729C104.052 238.598 126.342 249.221 151.163 249.221Z" fill="url(#paint1_radial_291_6499)"/>
<path d="M151.163 179.128C172.669 179.128 190.103 161.693 190.103 140.187C190.103 118.68 172.669 101.246 151.163 101.246C129.656 101.246 112.222 118.68 112.222 140.187C112.222 161.693 129.656 179.128 151.163 179.128Z" fill="url(#paint2_radial_291_6499)"/>
<path d="M151.163 171.34C168.368 171.34 182.315 157.392 182.315 140.187C182.315 122.982 168.368 109.034 151.163 109.034C133.958 109.034 120.01 122.982 120.01 140.187C120.01 157.392 133.958 171.34 151.163 171.34Z" fill="url(#paint3_linear_291_6499)"/>
<path d="M151.163 249.221C172.642 249.221 192.23 241.254 207.268 228.193C198.74 205.459 176.871 189.252 151.163 189.252C125.454 189.252 103.585 205.459 95.0566 228.193C110.096 241.254 129.683 249.221 151.163 249.221Z" fill="url(#paint4_linear_291_6499)"/>
<path d="M25.3059 113.707C37.0054 113.707 46.4897 104.223 46.4897 92.5234C46.4897 80.8239 37.0054 71.3396 25.3059 71.3396C13.6064 71.3396 4.12207 80.8239 4.12207 92.5234C4.12207 104.223 13.6064 113.707 25.3059 113.707Z" fill="url(#paint5_radial_291_6499)"/>
<path d="M25.3059 113.707C37.0054 113.707 46.4897 104.223 46.4897 92.5234C46.4897 80.8239 37.0054 71.3396 25.3059 71.3396C13.6064 71.3396 4.12207 80.8239 4.12207 92.5234C4.12207 104.223 13.6064 113.707 25.3059 113.707Z" fill="#21AD64"/>
<path d="M276.184 255.294C287.883 255.294 297.368 245.81 297.368 234.11C297.368 222.411 287.883 212.926 276.184 212.926C264.484 212.926 255 222.411 255 234.11C255 245.81 264.484 255.294 276.184 255.294Z" fill="url(#paint6_radial_291_6499)"/>
<path d="M276.184 255.294C287.883 255.294 297.368 245.81 297.368 234.11C297.368 222.411 287.883 212.926 276.184 212.926C264.484 212.926 255 222.411 255 234.11C255 245.81 264.484 255.294 276.184 255.294Z" fill="#21AD64"/>
<path d="M151.184 325.294C162.883 325.294 172.368 315.81 172.368 304.11C172.368 292.411 162.883 282.926 151.184 282.926C139.484 282.926 130 292.411 130 304.11C130 315.81 139.484 325.294 151.184 325.294Z" fill="url(#paint7_radial_291_6499)"/>
<path d="M151.184 325.294C162.883 325.294 172.368 315.81 172.368 304.11C172.368 292.411 162.883 282.926 151.184 282.926C139.484 282.926 130 292.411 130 304.11C130 315.81 139.484 325.294 151.184 325.294Z" fill="#21AD64"/>
<path d="M26.1838 255.294C37.8833 255.294 47.3676 245.81 47.3676 234.11C47.3676 222.411 37.8833 212.926 26.1838 212.926C14.4843 212.926 5 222.411 5 234.11C5 245.81 14.4843 255.294 26.1838 255.294Z" fill="url(#paint8_radial_291_6499)"/>
<path d="M26.1838 255.294C37.8833 255.294 47.3676 245.81 47.3676 234.11C47.3676 222.411 37.8833 212.926 26.1838 212.926C14.4843 212.926 5 222.411 5 234.11C5 245.81 14.4843 255.294 26.1838 255.294Z" fill="#21AD64"/>
<defs>
<radialGradient id="paint0_radial_291_6499" cx="0" cy="0" r="1" gradientUnits="userSpaceOnUse" gradientTransform="translate(96.2327 96.6978) scale(172.679)">
<stop stop-color="#0370C8"/>
<stop offset="0.484" stop-color="#036FC5"/>
<stop offset="0.775" stop-color="#036ABD"/>
<stop offset="1" stop-color="#0362B0"/>
</radialGradient>
<radialGradient id="paint1_radial_291_6499" cx="0" cy="0" r="1" gradientUnits="userSpaceOnUse" gradientTransform="translate(151.163 249.681) scale(69.1355 69.1355)">
<stop/>
<stop offset="1" stop-opacity="0"/>
</radialGradient>
<radialGradient id="paint2_radial_291_6499" cx="0" cy="0" r="1" gradientUnits="userSpaceOnUse" gradientTransform="translate(151.156 140.174) scale(38.9393)">
<stop/>
<stop offset="1" stop-opacity="0"/>
</radialGradient>
<linearGradient id="paint3_linear_291_6499" x1="130.026" y1="119.05" x2="173.491" y2="162.516" gradientUnits="userSpaceOnUse">
<stop stop-color="#75DAFF"/>
<stop offset="1" stop-color="#1EA2E4"/>
</linearGradient>
<linearGradient id="paint4_linear_291_6499" x1="121.209" y1="194.431" x2="180.664" y2="253.894" gradientUnits="userSpaceOnUse">
<stop stop-color="#75DAFF"/>
<stop offset="1" stop-color="#1EA2E4"/>
</linearGradient>
<radialGradient id="paint5_radial_291_6499" cx="0" cy="0" r="1" gradientUnits="userSpaceOnUse" gradientTransform="translate(13.5613 76.5558) scale(41.6822)">
<stop stop-color="#FAFAFB"/>
<stop offset="0.293" stop-color="#F6F7F8"/>
<stop offset="0.566" stop-color="#EBECEE"/>
<stop offset="0.832" stop-color="#D8DCDF"/>
<stop offset="1" stop-color="#C8CDD1"/>
</radialGradient>
<radialGradient id="paint6_radial_291_6499" cx="0" cy="0" r="1" gradientUnits="userSpaceOnUse" gradientTransform="translate(264.439 218.143) scale(41.6822)">
<stop stop-color="#FAFAFB"/>
<stop offset="0.293" stop-color="#F6F7F8"/>
<stop offset="0.566" stop-color="#EBECEE"/>
<stop offset="0.832" stop-color="#D8DCDF"/>
<stop offset="1" stop-color="#C8CDD1"/>
</radialGradient>
<radialGradient id="paint7_radial_291_6499" cx="0" cy="0" r="1" gradientUnits="userSpaceOnUse" gradientTransform="translate(139.439 288.143) scale(41.6822)">
<stop stop-color="#FAFAFB"/>
<stop offset="0.293" stop-color="#F6F7F8"/>
<stop offset="0.566" stop-color="#EBECEE"/>
<stop offset="0.832" stop-color="#D8DCDF"/>
<stop offset="1" stop-color="#C8CDD1"/>
</radialGradient>
<radialGradient id="paint8_radial_291_6499" cx="0" cy="0" r="1" gradientUnits="userSpaceOnUse" gradientTransform="translate(14.4393 218.143) scale(41.6822)">
<stop stop-color="#FAFAFB"/>
<stop offset="0.293" stop-color="#F6F7F8"/>
<stop offset="0.566" stop-color="#EBECEE"/>
<stop offset="0.832" stop-color="#D8DCDF"/>
<stop offset="1" stop-color="#C8CDD1"/>
</radialGradient>
</defs>
</svg>
