<svg width="60" height="82" viewBox="0 0 60 82" fill="none" xmlns="http://www.w3.org/2000/svg">
<path d="M59.801 34.3361V44.3501C59.7984 45.1083 59.4357 45.8347 58.7924 46.3708C58.1491 46.9069 57.2773 47.2091 56.3675 47.2113H50.3588V31.475H56.3675C56.448 31.4721 56.5286 31.4769 56.6078 31.4893C57.4734 31.5395 58.2841 31.861 58.8766 32.3892C59.469 32.9175 59.7994 33.6131 59.801 34.3361V34.3361Z" fill="#42A4ED"/>
<path d="M9.44226 31.475V47.2113H3.43355C2.52374 47.2091 1.65196 46.9069 1.00862 46.3708C0.365284 45.8347 0.00267664 45.1083 0 44.3501V34.3361C0.00165693 33.6131 0.331984 32.9175 0.924473 32.3892C1.51696 31.861 2.32761 31.5395 3.1932 31.4893C3.2724 31.4769 3.35304 31.4721 3.43355 31.475H9.44226Z" fill="#42A4ED"/>
<path d="M34.6217 55.2374C34.6217 57.4016 32.1037 59.8009 28.3268 59.8009C24.5499 59.8009 22.032 57.4016 22.032 55.2374V47.2112H34.6217V55.2374Z" fill="#D6A121"/>
<path d="M38.9214 53.5721H19.4582C17.6762 53.5722 15.9116 53.2212 14.2653 52.5393C12.6189 51.8574 11.123 50.8579 9.86294 49.5979C8.60288 48.3378 7.60336 46.8419 6.92147 45.1955C6.23957 43.5492 5.88864 41.7846 5.88873 40.0026V40.0026C5.88864 38.2206 6.23957 36.4561 6.92147 34.8097C7.60336 33.1633 8.60288 31.6674 9.86294 30.4074C11.123 29.1473 12.6189 28.1478 14.2653 27.4659C15.9116 26.784 17.6762 26.4331 19.4582 26.4332H38.9214C40.7034 26.4331 42.468 26.784 44.1143 27.4659C45.7607 28.1478 47.2566 29.1473 48.5167 30.4074C49.7767 31.6674 50.7763 33.1633 51.4582 34.8097C52.14 36.4561 52.491 38.2206 52.4909 40.0026C52.491 41.7846 52.14 43.5492 51.4582 45.1955C50.7763 46.8419 49.7767 48.3378 48.5167 49.5979C47.2566 50.8579 45.7607 51.8574 44.1143 52.5393C42.468 53.2212 40.7034 53.5722 38.9214 53.5721V53.5721Z" fill="url(#paint0_radial_290_6271)" fill-opacity="0.5"/>
<path d="M38.9214 53.5721H19.4582C17.6762 53.5722 15.9116 53.2212 14.2653 52.5393C12.6189 51.8574 11.123 50.8579 9.86294 49.5979C8.60288 48.3378 7.60336 46.8419 6.92147 45.1955C6.23957 43.5492 5.88864 41.7846 5.88873 40.0026V40.0026C5.88864 38.2206 6.23957 36.4561 6.92147 34.8097C7.60336 33.1633 8.60288 31.6674 9.86294 30.4074C11.123 29.1473 12.6189 28.1478 14.2653 27.4659C15.9116 26.784 17.6762 26.4331 19.4582 26.4332H38.9214C40.7034 26.4331 42.468 26.784 44.1143 27.4659C45.7607 28.1478 47.2566 29.1473 48.5167 30.4074C49.7767 31.6674 50.7763 33.1633 51.4582 34.8097C52.14 36.4561 52.491 38.2206 52.4909 40.0026C52.491 41.7846 52.14 43.5492 51.4582 45.1955C50.7763 46.8419 49.7767 48.3378 48.5167 49.5979C47.2566 50.8579 45.7607 51.8574 44.1143 52.5393C42.468 53.2212 40.7034 53.5722 38.9214 53.5721V53.5721Z" fill="black" fill-opacity="0.2"/>
<path d="M38.9214 53.5721H19.4582C17.6762 53.5722 15.9116 53.2212 14.2653 52.5393C12.6189 51.8574 11.123 50.8579 9.86294 49.5979C8.60288 48.3378 7.60336 46.8419 6.92147 45.1955C6.23957 43.5492 5.88864 41.7846 5.88873 40.0026V40.0026C5.88864 38.2206 6.23957 36.4561 6.92147 34.8097C7.60336 33.1633 8.60288 31.6674 9.86294 30.4074C11.123 29.1473 12.6189 28.1478 14.2653 27.4659C15.9116 26.784 17.6762 26.4331 19.4582 26.4332H38.9214C40.7034 26.4331 42.468 26.784 44.1143 27.4659C45.7607 28.1478 47.2566 29.1473 48.5167 30.4074C49.7767 31.6674 50.7763 33.1633 51.4582 34.8097C52.14 36.4561 52.491 38.2206 52.4909 40.0026C52.491 41.7846 52.14 43.5492 51.4582 45.1955C50.7763 46.8419 49.7767 48.3378 48.5167 49.5979C47.2566 50.8579 45.7607 51.8574 44.1143 52.5393C42.468 53.2212 40.7034 53.5722 38.9214 53.5721V53.5721Z" fill="white"/>
<path d="M38.8529 55.0799H19.5267C15.5475 55.0754 11.7326 53.4928 8.91889 50.6791C6.10518 47.8653 4.5225 44.0504 4.51807 40.0712V39.9342C4.5225 35.955 6.10518 32.1401 8.91889 29.3264C11.7326 26.5127 15.5475 24.93 19.5267 24.9255H38.8529C42.8321 24.93 46.647 26.5127 49.4607 29.3264C52.2744 32.1401 53.8571 35.955 53.8615 39.9342V40.0726C53.8568 44.0516 52.274 47.8662 49.4603 50.6796C46.6466 53.4931 42.8319 55.0755 38.8529 55.0799ZM19.5267 27.6668C16.2743 27.6705 13.1562 28.9642 10.8565 31.2639C8.55671 33.5637 7.26307 36.6818 7.25937 39.9342V40.0726C7.26336 43.3248 8.55713 46.4425 10.8569 48.742C13.1566 51.0415 16.2746 52.3349 19.5267 52.3386H38.8529C42.1053 52.3351 45.2236 51.0415 47.5234 48.7417C49.8232 46.4419 51.1168 43.3237 51.1202 40.0712V39.9342C51.1165 36.6818 49.8229 33.5637 47.5231 31.2639C45.2233 28.9642 42.1053 27.6705 38.8529 27.6668H19.5267Z" fill="url(#paint1_linear_290_6271)"/>
<path d="M25.0765 41.3732C24.7649 41.3727 24.4627 41.2662 24.2196 41.0711C23.9766 40.8759 23.8072 40.6039 23.7394 40.2997C23.5106 39.3899 22.9714 38.5885 22.2148 38.0338C21.4583 37.4791 20.5318 37.2059 19.5953 37.2613C18.6588 37.2059 17.7323 37.4791 16.9758 38.0338C16.2192 38.5885 15.68 39.3899 15.4512 40.2997C15.3715 40.6538 15.1547 40.9619 14.8482 41.1564C14.5418 41.3509 14.1707 41.4159 13.8164 41.3372C13.4621 41.2586 13.1534 41.0426 12.958 40.7367C12.7627 40.4309 12.6965 40.06 12.7742 39.7054C13.1362 38.1857 14.0138 36.8385 15.2575 35.893C16.5012 34.9476 18.0341 34.4623 19.5953 34.52C21.1565 34.4623 22.6894 34.9476 23.9331 35.893C25.1768 36.8385 26.0543 38.1857 26.4164 39.7054C26.4949 40.0604 26.4293 40.432 26.234 40.7386C26.0388 41.0453 25.7299 41.262 25.3751 41.3411C25.277 41.3623 25.1769 41.3731 25.0765 41.3732V41.3732Z" fill="#2E7BBE"/>
<path d="M44.2656 41.3732C43.9539 41.3727 43.6517 41.2662 43.4087 41.0711C43.1656 40.8759 42.9962 40.6039 42.9284 40.2997C42.6996 39.3899 42.1604 38.5885 41.4038 38.0338C40.6473 37.4791 39.7208 37.2059 38.7843 37.2613C37.8478 37.2059 36.9214 37.4791 36.1648 38.0338C35.4082 38.5885 34.869 39.3899 34.6402 40.2997C34.5606 40.6538 34.3437 40.9619 34.0373 41.1564C33.7308 41.3509 33.3597 41.4159 33.0054 41.3372C32.6511 41.2586 32.3424 41.0426 32.147 40.7367C31.9517 40.4309 31.8856 40.06 31.9632 39.7054C32.3253 38.1857 33.2029 36.8385 34.4465 35.893C35.6902 34.9476 37.2231 34.4623 38.7843 34.52C40.3455 34.4623 41.8784 34.9476 43.1221 35.893C44.3658 36.8385 45.2434 38.1857 45.6055 39.7054C45.6839 40.0604 45.6183 40.432 45.4231 40.7386C45.2278 41.0453 44.9189 41.262 44.5641 41.3411C44.466 41.3623 44.3659 41.3731 44.2656 41.3732V41.3732Z" fill="#2E7BBE"/>
<path d="M57.1009 28.1008V30.3489C57.1024 30.4969 57.0743 30.6437 57.0183 30.7807C56.9624 30.9178 56.8796 31.0423 56.7749 31.1469C56.6703 31.2516 56.5458 31.3343 56.4088 31.3903C56.2717 31.4463 56.1249 31.4744 55.9769 31.4729H4.27166C4.196 31.4778 4.12006 31.4702 4.04686 31.4504C3.79355 31.3974 3.56609 31.2592 3.40243 31.0587C3.23878 30.8582 3.14884 30.6077 3.14764 30.3489V28.1008C3.14617 27.9528 3.17424 27.806 3.23021 27.6689C3.28617 27.5319 3.36891 27.4074 3.47358 27.3027C3.57825 27.1981 3.70275 27.1153 3.83979 27.0594C3.97682 27.0034 4.12365 26.9753 4.27166 26.9768H55.9769C56.1249 26.9753 56.2717 27.0034 56.4088 27.0594C56.5458 27.1153 56.6703 27.1981 56.775 27.3027C56.8796 27.4074 56.9624 27.5319 57.0183 27.6689C57.0743 27.806 57.1024 27.9528 57.1009 28.1008V28.1008Z" fill="#FF832B"/>
<path d="M52.6046 24.7287V22.4806C52.6047 19.8236 52.0815 17.1926 51.0648 14.7378C50.0481 12.283 48.5578 10.0525 46.679 8.17376C44.8002 6.29496 42.5697 4.80466 40.1149 3.78794C37.6601 2.77122 35.0291 2.248 32.3721 2.24817H27.876C25.219 2.248 22.5879 2.77122 20.1331 3.78794C17.6784 4.80466 15.4479 6.29496 13.5691 8.17376C11.6903 10.0525 10.2 12.283 9.18327 14.7378C8.16655 17.1926 7.64333 19.8236 7.6435 22.4806V24.7287C7.64329 25.3249 7.40637 25.8965 6.98482 26.3181C6.56328 26.7396 5.9916 26.9765 5.39545 26.9768H54.8526C54.2565 26.9765 53.6848 26.7396 53.2632 26.3181C52.8417 25.8965 52.6048 25.3249 52.6046 24.7287V24.7287Z" fill="#FC6900"/>
<path d="M27.8759 0H32.372C32.9682 0.0002145 33.5399 0.237132 33.9614 0.658677C34.3829 1.08022 34.6199 1.6519 34.6201 2.24805V26.9766H25.6279V2.24805C25.6281 1.6519 25.865 1.08022 26.2865 0.658677C26.7081 0.237132 27.2798 0.0002145 27.8759 0V0Z" fill="#FC720F"/>
<path d="M30 56.6535C13.4306 56.6535 1.41888e-07 65.8804 1.41888e-07 75.9397V78.0829C-0.00013535 78.5754 0.096769 79.0631 0.285176 79.5181C0.473583 79.9731 0.749802 80.3866 1.09805 80.7348C1.44629 81.0831 1.85974 81.3593 2.31478 81.5477C2.76981 81.7361 3.2575 81.833 3.75 81.8329H56.25C56.7425 81.833 57.2302 81.7361 57.6852 81.5477C58.1403 81.3593 58.5537 81.0831 58.902 80.7348C59.2502 80.3866 59.5264 79.9731 59.7148 79.5181C59.9032 79.0631 60.0001 78.5754 60 78.0829V75.9397C60 65.8804 46.5694 56.6535 30 56.6535Z" fill="url(#paint2_linear_290_6271)"/>
<path d="M43.1251 58.7216V74.3328H16.8751V58.7216C14.2456 59.5671 11.7275 60.726 9.37506 62.1734V81.8328H50.6251V62.1734C48.2726 60.726 45.7545 59.5671 43.1251 58.7216V58.7216Z" fill="url(#paint3_linear_290_6271)"/>
<path d="M16.8751 68.7081H9.37506V74.3331H16.8751V68.7081Z" fill="url(#paint4_linear_290_6271)"/>
<path d="M50.6247 68.7081H43.1247V74.3331H50.6247V68.7081Z" fill="url(#paint5_linear_290_6271)"/>
<defs>
<radialGradient id="paint0_radial_290_6271" cx="0" cy="0" r="1" gradientUnits="userSpaceOnUse" gradientTransform="translate(27.8192 23.5548) rotate(87.3856) scale(30.0485 51.5985)">
<stop stop-opacity="0.6"/>
<stop offset="1" stop-color="#707D88" stop-opacity="0"/>
</radialGradient>
<linearGradient id="paint1_linear_290_6271" x1="21.5827" y1="19.1016" x2="40.4346" y2="70.8999" gradientUnits="userSpaceOnUse">
<stop stop-color="#EAC878"/>
<stop offset="0.24037" stop-color="#FFC745"/>
<stop offset="1" stop-color="#E6BE6D"/>
</linearGradient>
<linearGradient id="paint2_linear_290_6271" x1="23.9363" y1="55.5979" x2="31.9688" y2="83.2316" gradientUnits="userSpaceOnUse">
<stop stop-color="#0370C8"/>
<stop offset="0.484" stop-color="#036FC5"/>
<stop offset="0.775" stop-color="#036ABD"/>
<stop offset="1" stop-color="#0362B0"/>
</linearGradient>
<linearGradient id="paint3_linear_290_6271" x1="27.2832" y1="56.2747" x2="31.6219" y2="81.3884" gradientUnits="userSpaceOnUse">
<stop stop-color="#FEDE00"/>
<stop offset="1" stop-color="#FFD000"/>
</linearGradient>
<linearGradient id="paint4_linear_290_6271" x1="12.2869" y1="68.68" x2="13.8769" y2="74.0688" gradientUnits="userSpaceOnUse">
<stop stop-color="#4B4B4B"/>
<stop offset="1" stop-color="#3B3B3B"/>
</linearGradient>
<linearGradient id="paint5_linear_290_6271" x1="46.0366" y1="68.68" x2="47.6266" y2="74.0688" gradientUnits="userSpaceOnUse">
<stop stop-color="#4B4B4B"/>
<stop offset="1" stop-color="#3B3B3B"/>
</linearGradient>
</defs>
</svg>
