<svg width="100" height="100" viewBox="0 0 100 100" fill="none" xmlns="http://www.w3.org/2000/svg">
<rect width="100" height="100" rx="10" fill="white"/>
<path d="M51.8541 19.7073C50.9117 19.7073 50.1468 20.4722 50.1468 21.4147C50.1468 22.3571 50.9117 23.122 51.8541 23.122C52.7966 23.122 53.5614 22.3571 53.5614 21.4147C53.5614 20.4722 52.7966 19.7073 51.8541 19.7073ZM45.0248 18C44.5894 18 44.2035 18.1759 43.903 18.4422C43.4916 18.1639 42.9964 18 42.4637 18C41.8047 18 41.2106 18.2561 40.7564 18.6642C40.3023 18.2561 39.7081 18 39.0491 18C38.39 18 37.7959 18.2561 37.3417 18.6642C36.8876 18.2561 36.2934 18 35.6344 18C34.8473 18 34.1524 18.362 33.6829 18.9203C33.0734 18.3534 32.2641 18 31.366 18C30.0872 18 28.986 18.712 28.4004 19.7534C28.2519 19.7329 28.105 19.7073 27.9514 19.7073C26.5667 19.7073 25.3784 20.5354 24.844 21.722C23.6574 22.2564 22.8293 23.443 22.8293 24.8294C22.8293 26.716 24.3574 28.244 26.244 28.244C26.7374 28.244 27.2053 28.1348 27.6287 27.9452C27.9821 28.1296 28.3782 28.244 28.805 28.244C29.9882 28.244 30.9734 27.4382 31.267 26.3489C31.5624 26.4684 31.8817 26.5367 32.2197 26.5367C32.8787 26.5367 33.4729 26.2806 33.927 25.8725C34.3812 26.2806 34.9754 26.5367 35.6344 26.5367C36.8176 26.5367 37.8027 25.7308 38.0964 24.6415C38.3917 24.7611 38.711 24.8294 39.0491 24.8294C40.2323 24.8294 41.2174 24.0235 41.511 22.9342C41.8064 23.0537 42.1257 23.122 42.4637 23.122C43.5889 23.122 44.533 22.393 44.8779 21.3857C44.9291 21.3891 44.9718 21.4147 45.0248 21.4147C45.9672 21.4147 46.7321 20.6498 46.7321 19.7073C46.7321 18.7649 45.9672 18 45.0248 18Z" fill="url(#paint0_linear_294_6578)"/>
<path d="M19.4147 47.0248H56.9761V81.1716H19.4147C17.5281 81.1716 16 79.6435 16 77.7569V50.4395C16 48.5528 17.5281 47.0248 19.4147 47.0248Z" fill="url(#paint1_linear_294_6578)"/>
<path d="M29.3651 26.5367H24.8304C23.958 26.5367 23.2255 27.1957 23.1333 28.0648L21.1221 47.0247H33.0734L31.0622 28.0648C30.97 27.1957 30.2376 26.5367 29.3651 26.5367Z" fill="url(#paint2_linear_294_6578)"/>
<path d="M56.9761 81.1715H80.8789C82.757 81.1715 84.2936 79.6349 84.2936 77.7569V38.4881L70.7612 27.2111C69.6992 26.325 68.1558 26.325 67.0921 27.2111L53.5615 38.4881V77.7569C53.5615 79.6435 55.0895 81.1715 56.9761 81.1715Z" fill="url(#paint3_linear_294_6578)"/>
<path d="M84.2935 40.1852C83.9077 40.1852 83.5201 40.0555 83.2008 39.7891L69.6685 28.5138C69.2382 28.1553 68.615 28.157 68.1865 28.5138L54.6541 39.7891C53.9285 40.3935 52.8529 40.2945 52.2502 39.5706C51.6458 38.8467 51.7448 37.7693 52.4687 37.1666L66.0011 25.8914C67.6965 24.476 70.1585 24.476 71.8556 25.8914L85.3862 37.1666C86.1101 37.771 86.2075 38.8467 85.6048 39.5706C85.2667 39.9752 84.7818 40.1852 84.2935 40.1852Z" fill="#A60F0F"/>
<path d="M74.0495 48.7321H77.4641V43.6101H74.0495V48.7321ZM74.0495 57.2688H77.4641V52.1468H74.0495V57.2688ZM74.0495 65.8055H77.4641V60.6835H74.0495V65.8055ZM74.0495 74.3422H77.4641V69.2202H74.0495V74.3422ZM67.2201 48.7321H70.6348V43.6101H67.2201V48.7321ZM67.2201 57.2688H70.6348V52.1468H67.2201V57.2688ZM67.2201 65.8055H70.6348V60.6835H67.2201V65.8055ZM67.2201 74.3422H70.6348V69.2202H67.2201V74.3422ZM60.3907 48.7321H63.8054V43.6101H60.3907V48.7321ZM60.3907 57.2688H63.8054V52.1468H60.3907V57.2688ZM60.3907 65.8055H63.8054V60.6835H60.3907V65.8055ZM60.3907 74.3422H63.8054V69.2202H60.3907V74.3422Z" fill="#FF8800"/>
<path d="M24.5367 52.1468H21.1221V62.3908H24.5367V52.1468ZM31.3661 52.1468H27.9514V62.3908H31.3661V52.1468ZM38.1955 52.1468H34.7808V62.3908H38.1955V52.1468ZM45.0248 52.1468H41.6101V62.3908H45.0248V52.1468Z" fill="#FF8800"/>
<path d="M24.5367 65.8055H21.1221V76.0496H24.5367V65.8055ZM31.3661 65.8055H27.9514V76.0496H31.3661V65.8055ZM38.1955 65.8055H34.7808V76.0496H38.1955V65.8055ZM45.0248 65.8055H41.6101V76.0496H45.0248V65.8055Z" fill="#FF8800"/>
<path d="M22.9334 29.9514L22.5715 33.366H31.6238L31.2618 29.9514H22.9334Z" fill="#A8A8A8"/>
<path d="M32.5305 41.9027L32.1685 38.488H22.0269L21.665 41.9027H32.5305Z" fill="#A8A8A8"/>
<defs>
<linearGradient id="paint0_linear_294_6578" x1="38.1954" y1="17.9829" x2="38.1954" y2="28.227" gradientUnits="userSpaceOnUse">
<stop stop-color="white"/>
<stop offset="1" stop-color="#BBC1C4"/>
</linearGradient>
<linearGradient id="paint1_linear_294_6578" x1="15.9283" y1="64.0982" x2="57.1708" y2="64.0982" gradientUnits="userSpaceOnUse">
<stop stop-color="#C93702"/>
<stop offset="0.325" stop-color="#C63602"/>
<stop offset="0.528" stop-color="#BE3402"/>
<stop offset="0.698" stop-color="#AF2F03"/>
<stop offset="0.849" stop-color="#9B2903"/>
<stop offset="0.98" stop-color="#822204"/>
</linearGradient>
<linearGradient id="paint2_linear_294_6578" x1="27.0978" y1="26.8013" x2="27.0978" y2="50.4275" gradientUnits="userSpaceOnUse">
<stop stop-color="#C93702"/>
<stop offset="0.325" stop-color="#C63602"/>
<stop offset="0.528" stop-color="#BE3402"/>
<stop offset="0.698" stop-color="#AF2F03"/>
<stop offset="0.849" stop-color="#9B2903"/>
<stop offset="0.98" stop-color="#822204"/>
</linearGradient>
<linearGradient id="paint3_linear_294_6578" x1="68.9275" y1="26.0177" x2="68.9275" y2="81.1306" gradientUnits="userSpaceOnUse">
<stop stop-color="#C93702"/>
<stop offset="0.499" stop-color="#BA3302"/>
<stop offset="1" stop-color="#A62D03"/>
</linearGradient>
</defs>
</svg>
