<svg width="150" height="150" viewBox="0 0 150 150" fill="none" xmlns="http://www.w3.org/2000/svg">
<path d="M76.4641 18.7378C74.8485 18.7378 73.5372 20.049 73.5372 21.6646C73.5372 23.2803 74.8485 24.5915 76.4641 24.5915C78.0797 24.5915 79.3909 23.2803 79.3909 21.6646C79.3909 20.049 78.0797 18.7378 76.4641 18.7378ZM64.7566 15.8109C64.0103 15.8109 63.3488 16.1124 62.8337 16.569C62.1283 16.0919 61.2795 15.8109 60.3663 15.8109C59.2366 15.8109 58.218 16.2499 57.4395 16.9495C56.6609 16.2499 55.6424 15.8109 54.5126 15.8109C53.3828 15.8109 52.3643 16.2499 51.5857 16.9495C50.8072 16.2499 49.7886 15.8109 48.6589 15.8109C47.3096 15.8109 46.1184 16.4314 45.3135 17.3885C44.2686 16.4168 42.8812 15.8109 41.3417 15.8109C39.1495 15.8109 37.2617 17.0314 36.2578 18.8168C36.0031 18.7817 35.7514 18.7378 35.488 18.7378C33.1143 18.7378 31.0772 20.1573 30.1611 22.1915C28.1269 23.1076 26.7074 25.1418 26.7074 27.5184C26.7074 30.7526 29.3269 33.3721 32.5611 33.3721C33.407 33.3721 34.2089 33.1848 34.9348 32.8599C35.5407 33.176 36.2197 33.3721 36.9514 33.3721C38.9797 33.3721 40.6685 31.9906 41.172 30.1233C41.6783 30.3282 42.2256 30.4452 42.8051 30.4452C43.9349 30.4452 44.9535 30.0062 45.732 29.3067C46.5106 30.0062 47.5291 30.4452 48.6589 30.4452C50.6872 30.4452 52.376 29.0638 52.8794 27.1964C53.3858 27.4013 53.9331 27.5184 54.5126 27.5184C56.5409 27.5184 58.2297 26.1369 58.7331 24.2695C59.2395 24.4744 59.7868 24.5915 60.3663 24.5915C62.2951 24.5915 63.9137 23.3417 64.5049 21.6149C64.5927 21.6207 64.6659 21.6646 64.7566 21.6646C66.3723 21.6646 67.6835 20.3534 67.6835 18.7378C67.6835 17.1221 66.3723 15.8109 64.7566 15.8109Z" fill="url(#paint0_linear_294_6577)"/>
<path d="M20.8537 65.5676H85.2447V124.105H20.8537C17.6195 124.105 15 121.485 15 118.251V71.4213C15 68.1871 17.6195 65.5676 20.8537 65.5676Z" fill="url(#paint1_linear_294_6577)"/>
<path d="M37.9116 30.4451H30.1378C28.6422 30.4451 27.3866 31.5749 27.2285 33.0647L23.7807 65.5675H44.2687L40.8209 33.0647C40.6628 31.5749 39.4072 30.4451 37.9116 30.4451Z" fill="url(#paint2_linear_294_6577)"/>
<path d="M85.2447 124.105H126.221C129.44 124.105 132.075 121.471 132.075 118.251V50.9333L108.876 31.6014C107.056 30.0823 104.41 30.0823 102.586 31.6014L79.391 50.9333V118.251C79.391 121.485 82.0105 124.105 85.2447 124.105Z" fill="url(#paint3_linear_294_6577)"/>
<path d="M132.075 53.8427C131.413 53.8427 130.749 53.6203 130.201 53.1637L107.003 33.8347C106.266 33.22 105.197 33.223 104.463 33.8347L81.2642 53.1637C80.0203 54.1998 78.1764 54.03 77.1432 52.789C76.1071 51.548 76.2769 49.7012 77.5179 48.668L100.716 29.339C103.623 26.9126 107.843 26.9126 110.752 29.339L133.948 48.668C135.189 49.7041 135.356 51.548 134.322 52.789C133.743 53.4827 132.912 53.8427 132.075 53.8427Z" fill="#A60F0F"/>
<path d="M114.513 68.4945H120.367V59.7139H114.513V68.4945ZM114.513 83.1288H120.367V74.3482H114.513V83.1288ZM114.513 97.7632H120.367V88.9826H114.513V97.7632ZM114.513 112.397H120.367V103.617H114.513V112.397ZM102.806 68.4945H108.66V59.7139H102.806V68.4945ZM102.806 83.1288H108.66V74.3482H102.806V83.1288ZM102.806 97.7632H108.66V88.9826H102.806V97.7632ZM102.806 112.397H108.66V103.617H102.806V112.397ZM91.0984 68.4945H96.9521V59.7139H91.0984V68.4945ZM91.0984 83.1288H96.9521V74.3482H91.0984V83.1288ZM91.0984 97.7632H96.9521V88.9826H91.0984V97.7632ZM91.0984 112.397H96.9521V103.617H91.0984V112.397Z" fill="#FF8800"/>
<path d="M29.6344 74.3483H23.7807V91.9095H29.6344V74.3483ZM41.3419 74.3483H35.4881V91.9095H41.3419V74.3483ZM53.0493 74.3483H47.1956V91.9095H53.0493V74.3483ZM64.7568 74.3483H58.903V91.9095H64.7568V74.3483Z" fill="#FF8800"/>
<path d="M29.6344 97.7631H23.7807V115.324H29.6344V97.7631ZM41.3419 97.7631H35.4881V115.324H41.3419V97.7631ZM53.0493 97.7631H47.1956V115.324H53.0493V97.7631ZM64.7568 97.7631H58.903V115.324H64.7568V97.7631Z" fill="#FF8800"/>
<path d="M26.8859 36.299L26.2654 42.1527H41.7836L41.1631 36.299H26.8859Z" fill="#A8A8A8"/>
<path d="M43.3379 56.787L42.7174 50.9333H25.3319L24.7114 56.787H43.3379Z" fill="#A8A8A8"/>
<path d="M100.79 119.741H49.4178V106.899C49.4178 92.7134 60.9185 81.2127 75.1042 81.2127C89.2898 81.2127 100.79 92.7134 100.79 106.899V119.741Z" fill="url(#paint4_linear_294_6577)"/>
<path d="M75.1042 73.9886C83.0837 73.9886 89.5523 67.52 89.5523 59.5405C89.5523 51.561 83.0837 45.0924 75.1042 45.0924C67.1247 45.0924 60.6561 51.561 60.6561 59.5405C60.6561 67.52 67.1247 73.9886 75.1042 73.9886Z" fill="url(#paint5_linear_294_6577)"/>
<path d="M38.9839 105.293H111.224L107.08 130.165C106.693 132.487 104.682 134.189 102.329 134.189H47.8791C45.524 134.189 43.5157 132.487 43.1281 130.165L38.9839 105.293Z" fill="url(#paint6_linear_294_6577)"/>
<path d="M111.224 107.701H38.9839C37.6547 107.701 36.5759 106.622 36.5759 105.293V102.885C36.5759 101.556 37.6547 100.477 38.9839 100.477H111.224C112.554 100.477 113.632 101.556 113.632 102.885V105.293C113.632 106.622 112.554 107.701 111.224 107.701Z" fill="url(#paint7_linear_294_6577)"/>
<defs>
<linearGradient id="paint0_linear_294_6577" x1="53.0492" y1="15.7816" x2="53.0492" y2="33.3428" gradientUnits="userSpaceOnUse">
<stop stop-color="white"/>
<stop offset="1" stop-color="#BBC1C4"/>
</linearGradient>
<linearGradient id="paint1_linear_294_6577" x1="14.8771" y1="94.8362" x2="85.5784" y2="94.8362" gradientUnits="userSpaceOnUse">
<stop stop-color="#C93702"/>
<stop offset="0.325" stop-color="#C63602"/>
<stop offset="0.528" stop-color="#BE3402"/>
<stop offset="0.698" stop-color="#AF2F03"/>
<stop offset="0.849" stop-color="#9B2903"/>
<stop offset="0.98" stop-color="#822204"/>
</linearGradient>
<linearGradient id="paint2_linear_294_6577" x1="34.0247" y1="30.8988" x2="34.0247" y2="71.4007" gradientUnits="userSpaceOnUse">
<stop stop-color="#C93702"/>
<stop offset="0.325" stop-color="#C63602"/>
<stop offset="0.528" stop-color="#BE3402"/>
<stop offset="0.698" stop-color="#AF2F03"/>
<stop offset="0.849" stop-color="#9B2903"/>
<stop offset="0.98" stop-color="#822204"/>
</linearGradient>
<linearGradient id="paint3_linear_294_6577" x1="105.733" y1="29.5555" x2="105.733" y2="124.035" gradientUnits="userSpaceOnUse">
<stop stop-color="#C93702"/>
<stop offset="0.499" stop-color="#BA3302"/>
<stop offset="1" stop-color="#A62D03"/>
</linearGradient>
<linearGradient id="paint4_linear_294_6577" x1="60.799" y1="75.473" x2="83.5397" y2="119.985" gradientUnits="userSpaceOnUse">
<stop stop-color="#FCFCFC"/>
<stop offset="0.95" stop-color="#C3C9CD"/>
</linearGradient>
<linearGradient id="paint5_linear_294_6577" x1="67.0578" y1="40.7877" x2="86.6454" y2="69.5418" gradientUnits="userSpaceOnUse">
<stop stop-color="#FCFCFC"/>
<stop offset="0.95" stop-color="#C3C9CD"/>
</linearGradient>
<linearGradient id="paint6_linear_294_6577" x1="57.7234" y1="103.638" x2="70.9161" y2="138.451" gradientUnits="userSpaceOnUse">
<stop stop-color="#FCFCFC"/>
<stop offset="0.495" stop-color="#F4F4F4"/>
<stop offset="0.946" stop-color="#E8E8E8"/>
<stop offset="1" stop-color="#E8E8E8"/>
</linearGradient>
<linearGradient id="paint7_linear_294_6577" x1="63.3261" y1="100.793" x2="63.4396" y2="108.664" gradientUnits="userSpaceOnUse">
<stop stop-color="#0D61A9"/>
<stop offset="1" stop-color="#16528C"/>
</linearGradient>
</defs>
</svg>
