<svg width="300" height="300" viewBox="0 0 300 300" fill="none" xmlns="http://www.w3.org/2000/svg">
<g clip-path="url(#clip0_101_118)">
<path d="M53.25 44.25H300V286.261C300 293.849 293.658 300 285.834 300H56.1582C54.552 300 53.25 298.737 53.25 297.179V44.25Z" fill="white" stroke="white" stroke-width="0.25"/>
<path d="M64.5 300H10.0371C8.71865 300.001 7.41297 299.749 6.19468 299.257C4.97639 298.767 3.86946 298.046 2.93722 297.138C2.00498 296.229 1.26565 295.151 0.761677 293.964C0.257651 292.777 -0.00115232 291.504 3.85673e-06 290.221V44.25H54.4718V290.221C54.4708 291.504 54.7291 292.776 55.2327 293.962C55.7363 295.148 56.4745 296.227 57.4057 297.135C58.3375 298.043 59.4433 298.763 60.6604 299.255C61.8776 299.747 63.1823 300 64.5 300Z" fill="white"/>
<path d="M64.5 300H10.0371C8.71865 300.001 7.41297 299.749 6.19468 299.257C4.97639 298.767 3.86946 298.046 2.93722 297.138C2.00498 296.229 1.26565 295.151 0.761677 293.964C0.257651 292.777 -0.00115232 291.504 3.85673e-06 290.221V44.25H54.4718V290.221C54.4708 291.504 54.7291 292.776 55.2327 293.962C55.7363 295.148 56.4745 296.227 57.4057 297.135C58.3375 298.043 59.4433 298.763 60.6604 299.255C61.8776 299.747 63.1823 300 64.5 300Z" fill="#E6EEF5"/>
<path d="M199.925 112.436H220.601C224.408 112.436 227.492 115.571 227.492 119.44V210.484H199.925V112.436Z" fill="url(#paint0_linear_101_118)"/>
<path d="M199.925 196.477H213.709V182.47H199.925V196.477ZM199.925 140.449H213.709V126.443H199.925V140.449ZM199.925 168.463H213.709V154.456H199.925V168.463Z" fill="url(#paint1_linear_101_118)"/>
<path d="M199.924 168.464H103.439V210.484H199.924V168.464Z" fill="#0078D4"/>
<path d="M117.224 91.4264H186.142V84.4229C186.142 80.5567 183.055 77.4194 179.25 77.4194H124.116C120.312 77.4194 117.224 80.5567 117.224 84.4229V91.4264Z" fill="#199BE2"/>
<path d="M103.439 98.4292V168.463H199.924V98.4292H103.439Z" fill="#199BE2"/>
<path d="M131.008 182.47H117.224V196.477H131.008V182.47Z" fill="#005094"/>
<path d="M186.141 182.47H172.358V196.477H186.141V182.47Z" fill="#005094"/>
<path d="M162.02 182.47H141.344V210.484H162.02V182.47Z" fill="#005094"/>
<path d="M131.008 140.449H117.224V154.456H131.008V140.449Z" fill="#0D62AB"/>
<path d="M158.574 140.449H144.791V154.456H158.574V140.449Z" fill="#0D62AB"/>
<path d="M186.141 140.449H172.358V154.456H186.141V140.449Z" fill="#0D62AB"/>
<path d="M131.008 112.436H117.224V126.443H131.008V112.436Z" fill="#0D62AB"/>
<path d="M158.574 112.436H144.791V126.443H158.574V112.436Z" fill="#0D62AB"/>
<path d="M186.141 112.436H172.358V126.443H186.141V112.436Z" fill="#0D62AB"/>
<path d="M199.925 98.4293H103.44C101.534 98.4293 99.9938 96.864 99.9938 94.9283C99.9938 92.9918 101.534 91.4265 103.44 91.4265H199.925C201.83 91.4265 203.371 92.9918 203.371 94.9283C203.371 96.864 201.83 98.4293 199.925 98.4293Z" fill="#35C1F1"/>
<path d="M192.788 170.404V229.372C192.788 231.255 191.182 232.784 189.193 232.784H141.736C139.748 232.784 138.142 231.255 138.142 229.372V170.404C138.142 168.521 139.748 166.992 141.736 166.992H189.193C191.182 166.992 192.788 168.521 192.788 170.404Z" fill="url(#paint2_linear_101_118)"/>
<path d="M192.788 170.404V229.372C192.788 231.255 191.182 232.784 189.193 232.784H141.736C139.748 232.784 138.142 231.255 138.142 229.372V170.404C138.142 168.521 139.748 166.992 141.736 166.992H189.193C191.182 166.992 192.788 168.521 192.788 170.404Z" fill="white" fill-opacity="0.2"/>
<path d="M192.788 170.404V229.372C192.788 231.255 191.182 232.784 189.193 232.784H141.736C139.748 232.784 138.142 231.255 138.142 229.372V170.404C138.142 168.521 139.748 166.992 141.736 166.992H189.193C191.182 166.992 192.788 168.521 192.788 170.404Z" stroke="url(#paint3_linear_101_118)" stroke-width="0.15"/>
<path d="M192.788 170.404V229.372C192.788 231.255 191.182 232.784 189.193 232.784H141.736C139.748 232.784 138.142 231.255 138.142 229.372V170.404C138.142 168.521 139.748 166.992 141.736 166.992H189.193C191.182 166.992 192.788 168.521 192.788 170.404Z" stroke="black" stroke-opacity="0.2" stroke-width="0.15"/>
<path d="M157.397 180.722C157.397 182.604 155.791 184.135 153.803 184.135C151.816 184.135 150.209 182.604 150.209 180.722C150.209 178.84 151.816 177.31 153.803 177.31C155.791 177.31 157.397 178.84 157.397 180.722Z" fill="#3586CB" stroke="url(#paint4_linear_101_118)" stroke-width="0.15"/>
<path d="M147.795 191.469C147.795 188.08 150.472 185.335 153.771 185.335C157.071 185.335 159.748 188.08 159.748 191.469V194.358C159.748 195.011 159.231 195.54 158.597 195.54H148.946C148.312 195.54 147.795 195.011 147.795 194.358V191.469Z" fill="#3586CB" stroke="url(#paint5_linear_101_118)" stroke-width="0.15"/>
<path d="M149.037 206.881H176.417C177.396 206.881 178.186 207.636 178.186 208.56C178.186 209.483 177.396 210.238 176.417 210.238H149.037C148.058 210.238 147.269 209.483 147.269 208.56C147.269 207.636 148.058 206.881 149.037 206.881Z" fill="#3586CB" stroke="url(#paint6_linear_101_118)" stroke-width="0.15"/>
<path d="M149.037 199.944H181.892C182.872 199.944 183.662 200.698 183.662 201.622C183.662 202.546 182.872 203.3 181.892 203.3H149.037C148.058 203.3 147.269 202.546 147.269 201.622C147.269 200.698 148.058 199.944 149.037 199.944Z" fill="#3586CB" stroke="url(#paint7_linear_101_118)" stroke-width="0.15"/>
<path d="M149.037 220.756H176.417C177.396 220.756 178.186 221.511 178.186 222.434C178.186 223.358 177.396 224.113 176.417 224.113H149.037C148.058 224.113 147.269 223.358 147.269 222.434C147.269 221.511 148.058 220.756 149.037 220.756Z" fill="#3586CB" stroke="url(#paint8_linear_101_118)" stroke-width="0.15"/>
<path d="M149.037 213.819H176.417C177.396 213.819 178.186 214.573 178.186 215.497C178.186 216.421 177.396 217.175 176.417 217.175H149.037C148.058 217.175 147.269 216.421 147.269 215.497C147.269 214.573 148.058 213.819 149.037 213.819Z" fill="#3586CB" stroke="url(#paint9_linear_101_118)" stroke-width="0.15"/>
<path d="M167.291 186.07H181.894C182.873 186.07 183.663 186.824 183.663 187.747C183.663 188.671 182.873 189.426 181.894 189.426H167.291C166.312 189.426 165.523 188.671 165.523 187.747C165.523 186.824 166.312 186.07 167.291 186.07Z" fill="#3586CB" stroke="url(#paint10_linear_101_118)" stroke-width="0.15"/>
<path d="M167.291 179.132H181.894C182.873 179.132 183.663 179.887 183.663 180.81C183.663 181.734 182.873 182.488 181.894 182.488H167.291C166.312 182.488 165.523 181.734 165.523 180.81C165.523 179.887 166.312 179.132 167.291 179.132Z" fill="#3586CB" stroke="url(#paint11_linear_101_118)" stroke-width="0.15"/>
<path d="M259.45 210.588V210.589V210.594V210.599V210.605V210.61V210.616V210.622V210.628V210.635V210.641V210.648V210.655V210.662V210.669V210.677V210.684V210.692V210.701V210.709V210.717V210.726V210.735V210.744V210.753V210.762V210.772V210.782V210.792V210.802V210.812V210.823V210.833V210.844V210.855V210.866V210.878V210.89V210.901V210.913V210.925V210.937V210.95V210.962V210.975V210.988V211.001V211.014V211.028V211.041V211.055V211.068V211.082V211.097V211.111V211.125V211.14V211.155V211.17V211.185V211.2V211.216V211.232V211.247V211.263V211.279V211.295V211.311V211.328V211.344V211.361V211.378V211.395V211.412V211.43V211.447V211.465V211.482V211.5V211.518V211.537V211.555V211.574V211.592V211.61V211.629V211.649V211.667V211.687V211.706V211.725V211.745V211.765V211.784V211.805V211.825V211.845V211.865V211.886V211.907V211.927V211.948V211.969V211.99V212.011V212.032V212.054V212.075V212.097V212.118V212.141V212.162V212.184V212.207V212.229V212.251V212.273V212.297V212.319V212.342V212.365V212.387V212.411V212.434V212.457V212.48V212.504V212.528V212.552V212.576V212.599V212.623V212.647V212.672V212.696V212.72V212.744V212.769V212.794V212.818V212.843V212.868V212.893V212.918V212.943V212.968V212.993V213.019V213.044V213.07V213.095V213.121V213.146V213.173V213.198V213.224V213.25V213.276V213.302V213.329V213.355V213.381V213.407V213.434V213.461V213.488V213.514V213.541V213.568V213.595V213.621V213.648V213.676V213.703V213.73V213.757V213.785V213.812V213.839V213.866V213.894V213.921V213.949V213.977V214.004V214.032V214.06V214.088V214.115V214.143V214.172V214.199V214.227V214.256V214.283V214.312V214.34V214.368V214.397V214.424V214.453V214.481V214.51V214.538V214.567V214.595V214.624V214.652V214.681V214.709V214.738V214.766V214.795V214.824V214.853V214.881V214.91V214.939V214.967V214.997V215.025V215.054V215.083V215.112V215.141V215.17V215.198V215.228V215.256V215.285V215.315V215.343V215.372V215.401V215.43V215.459V215.488V215.517V215.546V215.575V215.604V215.633V215.662V215.691V215.72V215.749V215.778V215.807V215.836V215.865V215.894V215.923V215.952V215.981V216.01V216.038V216.068V216.096V216.125V216.154V216.183V216.212V216.24V216.269V216.298V216.326V216.356V216.384V216.413V216.441V216.47V216.498V216.527V216.556V216.584V216.612V216.641V216.669V216.698V216.726V216.755V216.782V216.811V216.839V216.867V216.896V216.923V216.951V216.98V217.007V217.035V217.063V217.091V217.119V217.147V217.174V217.202V217.229V217.257V217.285V217.312V217.34V217.367V217.394V217.421V217.448V217.475V217.502V217.529V217.556V217.583V217.61V217.637V217.664V217.691V217.717V217.744V217.77V217.796V217.823V217.849V217.875V217.901V217.928V217.953V217.979V218.005V218.031V218.057V218.082V218.108V218.133V218.159V218.183V218.209V218.234V218.259V218.284V218.309V218.334V218.358V218.383V218.408V218.432V218.456V218.481V218.505V218.529V218.553V218.577V218.601V218.624V218.648V218.672V218.695V218.718V218.741V218.765V218.788V218.811V218.834V218.856V218.879V218.902V218.924V218.946V218.969V218.99V219.013V219.035V219.056V219.078V219.1V219.121V219.143V219.164V219.185V219.206V219.227V219.247V219.268V219.288V219.309V219.329V219.349V219.369V219.389V219.409V219.428V219.448V219.467V219.487V219.506V219.525V219.544V219.563V219.581V219.599V219.618V219.636V219.654V219.672V219.69V219.707V219.725V219.743V219.76V219.777V219.794V219.811V219.827V219.844V219.86V219.876V219.893V219.908V219.924V219.94V219.956V219.971V219.986V220.001V220.016V220.031V220.045V220.059V220.073V220.088V220.102V220.115V220.129V220.142V220.156V220.169V220.181V220.194V220.207V220.22V220.232V220.244V220.256V220.268V220.28V220.291V220.302V220.313V220.324V220.334V220.345V220.355V220.366V220.376V220.385V220.395V220.405V220.414V220.423V220.432V220.441V220.449V220.457V220.466V220.474V220.481V220.49V220.496V220.504V220.511V220.518V220.524V220.531V220.537V220.543V220.549V220.555V220.56V220.565V220.571V220.575V220.58V220.585V220.589V220.593V220.597V220.601V220.604V220.607V220.61V220.613V220.615V220.618C259.45 221.367 259.002 222.09 258.172 222.755C257.341 223.42 256.137 224.021 254.644 224.527C251.657 225.538 247.528 226.165 242.965 226.165C238.402 226.165 234.273 225.538 231.286 224.527C229.793 224.021 228.589 223.42 227.758 222.755C226.928 222.09 226.48 221.367 226.48 220.618V220.615V220.613V220.61V220.607V220.604V220.601V220.597V220.593V220.589V220.585V220.58V220.575V220.571V220.565V220.56V220.555V220.549V220.543V220.537V220.531V220.524V220.518V220.511V220.504V220.496V220.49V220.481V220.474V220.466V220.457V220.449V220.441V220.432V220.423V220.414V220.405V220.395V220.385V220.376V220.366V220.355V220.345V220.334V220.324V220.313V220.302V220.291V220.28V220.268V220.256V220.244V220.232V220.22V220.207V220.194V220.181V220.169V220.156V220.142V220.129V220.115V220.102V220.088V220.073V220.059V220.045V220.031V220.016V220.001V219.986V219.971V219.956V219.94V219.924V219.908V219.893V219.876V219.86V219.844V219.827V219.811V219.794V219.777V219.76V219.743V219.725V219.707V219.69V219.672V219.654V219.636V219.618V219.599V219.581V219.563V219.544V219.525V219.506V219.487V219.467V219.448V219.428V219.409V219.389V219.369V219.349V219.329V219.309V219.288V219.268V219.247V219.227V219.206V219.185V219.164V219.143V219.121V219.1V219.078V219.056V219.035V219.013V218.99V218.969V218.946V218.924V218.902V218.879V218.856V218.834V218.811V218.788V218.765V218.741V218.718V218.695V218.672V218.648V218.624V218.601V218.577V218.553V218.529V218.505V218.481V218.456V218.432V218.408V218.383V218.358V218.334V218.309V218.284V218.259V218.234V218.209V218.183V218.159V218.133V218.108V218.082V218.057V218.031V218.005V217.979V217.953V217.928V217.901V217.875V217.849V217.823V217.796V217.77V217.744V217.717V217.691V217.664V217.637V217.61V217.583V217.556V217.529V217.502V217.475V217.448V217.421V217.394V217.367V217.34V217.312V217.285V217.257V217.229V217.202V217.174V217.147V217.119V217.091V217.063V217.035V217.007V216.98V216.951V216.923V216.896V216.867V216.839V216.811V216.782V216.755V216.726V216.698V216.669V216.641V216.612V216.584V216.556V216.527V216.498V216.47V216.441V216.413V216.384V216.356V216.326V216.298V216.269V216.24V216.212V216.183V216.154V216.125V216.096V216.068V216.038V216.01V215.981V215.952V215.923V215.894V215.865V215.836V215.807V215.778V215.749V215.72V215.691V215.662V215.633V215.604V215.575V215.546V215.517V215.488V215.459V215.43V215.401V215.372V215.343V215.315V215.285V215.256V215.228V215.198V215.17V215.141V215.112V215.083V215.054V215.025V214.997V214.967V214.939V214.91V214.881V214.853V214.824V214.795V214.766V214.738V214.709V214.681V214.652V214.624V214.595V214.567V214.538V214.51V214.481V214.453V214.424V214.397V214.368V214.34V214.312V214.283V214.256V214.227V214.199V214.172V214.143V214.115V214.088V214.06V214.032V214.004V213.977V213.949V213.921V213.894V213.866V213.839V213.812V213.785V213.757V213.73V213.703V213.676V213.648V213.621V213.595V213.568V213.541V213.514V213.488V213.461V213.434V213.407V213.381V213.355V213.329V213.302V213.276V213.25V213.224V213.198V213.173V213.146V213.121V213.095V213.07V213.044V213.019V212.993V212.968V212.943V212.918V212.893V212.868V212.843V212.818V212.794V212.769V212.744V212.72V212.696V212.672V212.647V212.623V212.599V212.576V212.552V212.528V212.504V212.48V212.457V212.434V212.411V212.387V212.365V212.342V212.319V212.297V212.273V212.251V212.229V212.207V212.184V212.162V212.141V212.118V212.097V212.075V212.054V212.032V212.011V211.99V211.969V211.948V211.927V211.907V211.886V211.865V211.845V211.825V211.805V211.784V211.765V211.745V211.725V211.706V211.687V211.667V211.649V211.629V211.61V211.592V211.574V211.555V211.537V211.518V211.5V211.482V211.465V211.447V211.43V211.412V211.395V211.378V211.361V211.344V211.328V211.311V211.295V211.279V211.263V211.247V211.232V211.216V211.2V211.185V211.17V211.155V211.14V211.125V211.111V211.097V211.082V211.068V211.055V211.041V211.028V211.014V211.001V210.988V210.975V210.962V210.95V210.937V210.925V210.913V210.901V210.89V210.878V210.866V210.855V210.844V210.833V210.823V210.812V210.802V210.792V210.782V210.772V210.762V210.753V210.744V210.735V210.726V210.717V210.709V210.701V210.692V210.684V210.677V210.669V210.662V210.655V210.648V210.641V210.635V210.628V210.622V210.616V210.61V210.605V210.599V210.594V210.589V210.588H259.45Z" fill="url(#paint12_linear_101_118)" stroke="url(#paint13_linear_101_118)" stroke-width="0.15"/>
<path d="M259.45 199.382V199.384V199.389V199.395V199.4V199.406V199.413V199.419V199.426V199.432V199.44V199.447V199.455V199.462V199.471V199.479V199.487V199.495V199.504V199.513V199.523V199.532V199.542V199.552V199.562V199.572V199.582V199.594V199.604V199.615V199.627V199.638V199.65V199.662V199.674V199.686V199.699V199.711V199.724V199.737V199.75V199.764V199.777V199.792V199.805V199.819V199.834V199.849V199.863V199.878V199.893V199.909V199.924V199.939V199.955V199.972V199.987V200.004V200.02V200.037V200.054V200.071V200.088V200.105V200.123V200.14V200.158V200.176V200.195V200.213V200.232V200.251V200.269V200.288V200.308V200.326V200.346V200.366V200.386V200.406V200.425V200.446V200.467V200.487V200.507V200.528V200.549V200.57V200.592V200.613V200.635V200.656V200.678V200.701V200.722V200.745V200.767V200.79V200.812V200.835V200.858V200.881V200.905V200.928V200.951V200.974V200.998V201.022V201.046V201.07V201.094V201.119V201.143V201.168V201.193V201.217V201.243V201.268V201.293V201.318V201.343V201.369V201.394V201.421V201.446V201.472V201.499V201.525V201.551V201.577V201.604V201.631V201.657V201.684V201.711V201.738V201.765V201.793V201.82V201.847V201.874V201.902V201.93V201.958V201.985V202.013V202.042V202.069V202.098V202.126V202.155V202.183V202.212V202.24V202.269V202.298V202.327V202.356V202.385V202.414V202.444V202.473V202.502V202.531V202.561V202.591V202.621V202.65V202.68V202.71V202.74V202.77V202.8V202.83V202.86V202.891V202.921V202.951V202.981V203.012V203.043V203.073V203.104V203.134V203.165V203.196V203.227V203.258V203.289V203.32V203.351V203.382V203.413V203.445V203.476V203.507V203.539V203.57V203.602V203.633V203.665V203.696V203.728V203.759V203.791V203.822V203.854V203.886V203.917V203.95V203.981V204.013V204.045V204.077V204.109V204.141V204.173V204.205V204.237V204.269V204.301V204.334V204.365V204.397V204.43V204.462V204.494V204.526V204.559V204.591V204.623V204.655V204.688V204.72V204.752V204.784V204.817V204.849V204.881V204.913V204.946V204.978V205.01V205.042V205.075V205.107V205.139V205.171V205.204V205.236V205.268V205.3V205.333V205.365V205.397V205.429V205.461V205.493V205.525V205.558V205.59V205.622V205.654V205.686V205.718V205.75V205.782V205.813V205.846V205.878V205.909V205.941V205.973V206.005V206.036V206.068V206.1V206.131V206.163V206.194V206.226V206.257V206.289V206.32V206.352V206.383V206.414V206.446V206.477V206.508V206.539V206.57V206.601V206.632V206.663V206.694V206.725V206.755V206.786V206.817V206.848V206.878V206.908V206.938V206.969V206.999V207.029V207.06V207.09V207.12V207.15V207.18V207.209V207.239V207.269V207.298V207.328V207.358V207.387V207.416V207.445V207.475V207.504V207.532V207.562V207.591V207.619V207.648V207.676V207.705V207.733V207.762V207.79V207.818V207.847V207.874V207.902V207.93V207.958V207.985V208.013V208.041V208.068V208.095V208.123V208.15V208.177V208.203V208.23V208.257V208.283V208.309V208.336V208.362V208.388V208.414V208.44V208.466V208.492V208.517V208.543V208.568V208.593V208.618V208.643V208.668V208.693V208.717V208.742V208.766V208.791V208.815V208.839V208.863V208.886V208.91V208.933V208.957V208.98V209.003V209.026V209.049V209.072V209.095V209.117V209.139V209.161V209.183V209.206V209.227V209.248V209.27V209.291V209.313V209.334V209.355V209.375V209.396V209.416V209.437V209.457V209.476V209.497V209.516V209.536V209.555V209.575V209.593V209.612V209.631V209.65V209.668V209.686V209.704V209.722V209.74V209.758V209.775V209.792V209.809V209.826V209.843V209.86V209.876V209.892V209.908V209.924V209.94V209.955V209.971V209.986V210.001V210.016V210.03V210.044V210.058V210.073V210.087V210.1V210.114V210.127V210.14V210.153V210.166V210.178V210.19V210.203V210.214V210.226V210.238V210.25V210.261V210.271V210.282V210.293V210.303V210.313V210.323V210.333V210.343V210.352V210.361V210.37V210.379V210.387V210.395V210.403V210.411V210.418V210.426V210.433V210.44V210.447V210.454V210.46V210.466V210.472V210.477V210.483V210.488V210.493V210.497V210.502V210.506V210.51V210.514V210.517V210.521V210.524V210.527V210.529V210.532C259.45 211.282 259.002 212.004 258.172 212.669C257.341 213.334 256.137 213.935 254.644 214.441C251.657 215.452 247.528 216.079 242.965 216.079C238.402 216.079 234.273 215.452 231.286 214.441C229.793 213.935 228.589 213.334 227.758 212.669C226.928 212.004 226.48 211.282 226.48 210.532V210.529V210.527V210.524V210.521V210.517V210.514V210.51V210.506V210.502V210.497V210.493V210.488V210.483V210.477V210.472V210.466V210.46V210.454V210.447V210.44V210.433V210.426V210.418V210.411V210.403V210.395V210.387V210.379V210.37V210.361V210.352V210.343V210.333V210.323V210.313V210.303V210.293V210.282V210.271V210.261V210.25V210.238V210.226V210.214V210.203V210.19V210.178V210.166V210.153V210.14V210.127V210.114V210.1V210.087V210.073V210.058V210.044V210.03V210.016V210.001V209.986V209.971V209.955V209.94V209.924V209.908V209.892V209.876V209.86V209.843V209.826V209.809V209.792V209.775V209.758V209.74V209.722V209.704V209.686V209.668V209.65V209.631V209.612V209.593V209.575V209.555V209.536V209.516V209.497V209.476V209.457V209.437V209.416V209.396V209.375V209.355V209.334V209.313V209.291V209.27V209.248V209.227V209.206V209.183V209.161V209.139V209.117V209.095V209.072V209.049V209.026V209.003V208.98V208.957V208.933V208.91V208.886V208.863V208.839V208.815V208.791V208.766V208.742V208.717V208.693V208.668V208.643V208.618V208.593V208.568V208.543V208.517V208.492V208.466V208.44V208.414V208.388V208.362V208.336V208.309V208.283V208.257V208.23V208.203V208.177V208.15V208.123V208.095V208.068V208.041V208.013V207.985V207.958V207.93V207.902V207.874V207.847V207.818V207.79V207.762V207.733V207.705V207.676V207.648V207.619V207.591V207.562V207.532V207.504V207.475V207.445V207.416V207.387V207.358V207.328V207.298V207.269V207.239V207.209V207.18V207.15V207.12V207.09V207.06V207.029V206.999V206.969V206.938V206.908V206.878V206.848V206.817V206.786V206.755V206.725V206.694V206.663V206.632V206.601V206.57V206.539V206.508V206.477V206.446V206.414V206.383V206.352V206.32V206.289V206.257V206.226V206.194V206.163V206.131V206.1V206.068V206.036V206.005V205.973V205.941V205.909V205.878V205.846V205.813V205.782V205.75V205.718V205.686V205.654V205.622V205.59V205.558V205.525V205.493V205.461V205.429V205.397V205.365V205.333V205.3V205.268V205.236V205.204V205.171V205.139V205.107V205.075V205.042V205.01V204.978V204.946V204.913V204.881V204.849V204.817V204.784V204.752V204.72V204.688V204.655V204.623V204.591V204.559V204.526V204.494V204.462V204.43V204.397V204.365V204.334V204.301V204.269V204.237V204.205V204.173V204.141V204.109V204.077V204.045V204.013V203.981V203.95V203.917V203.886V203.854V203.822V203.791V203.759V203.728V203.696V203.665V203.633V203.602V203.57V203.539V203.507V203.476V203.445V203.413V203.382V203.351V203.32V203.289V203.258V203.227V203.196V203.165V203.134V203.104V203.073V203.043V203.012V202.981V202.951V202.921V202.891V202.86V202.83V202.8V202.77V202.74V202.71V202.68V202.65V202.621V202.591V202.561V202.531V202.502V202.473V202.444V202.414V202.385V202.356V202.327V202.298V202.269V202.24V202.212V202.183V202.155V202.126V202.098V202.069V202.042V202.013V201.985V201.958V201.93V201.902V201.874V201.847V201.82V201.793V201.765V201.738V201.711V201.684V201.657V201.631V201.604V201.577V201.551V201.525V201.499V201.472V201.446V201.421V201.394V201.369V201.343V201.318V201.293V201.268V201.243V201.217V201.193V201.168V201.143V201.119V201.094V201.07V201.046V201.022V200.998V200.974V200.951V200.928V200.905V200.881V200.858V200.835V200.812V200.79V200.767V200.745V200.722V200.701V200.678V200.656V200.635V200.613V200.592V200.57V200.549V200.528V200.507V200.487V200.467V200.446V200.425V200.406V200.386V200.366V200.346V200.326V200.308V200.288V200.269V200.251V200.232V200.213V200.195V200.176V200.158V200.14V200.123V200.105V200.088V200.071V200.054V200.037V200.02V200.004V199.987V199.972V199.955V199.939V199.924V199.909V199.893V199.878V199.863V199.849V199.834V199.819V199.805V199.792V199.777V199.764V199.75V199.737V199.724V199.711V199.699V199.686V199.674V199.662V199.65V199.638V199.627V199.615V199.604V199.594V199.582V199.572V199.562V199.552V199.542V199.532V199.523V199.513V199.504V199.495V199.487V199.479V199.471V199.462V199.455V199.447V199.44V199.432V199.426V199.419V199.413V199.406V199.4V199.395V199.389V199.384V199.382H259.45Z" fill="url(#paint14_linear_101_118)" stroke="url(#paint15_linear_101_118)" stroke-width="0.15"/>
<path d="M259.45 188.736V188.74V188.745V188.75V188.756V188.762V188.768V188.775V188.781V188.788V188.795V188.802V188.809V188.817V188.824V188.833V188.841V188.849V188.857V188.866V188.875V188.884V188.894V188.904V188.914V188.923V188.933V188.944V188.954V188.965V188.976V188.987V188.998V189.01V189.022V189.033V189.045V189.058V189.07V189.082V189.095V189.108V189.121V189.134V189.148V189.161V189.175V189.189V189.203V189.217V189.232V189.247V189.262V189.277V189.292V189.307V189.322V189.338V189.354V189.37V189.386V189.403V189.419V189.436V189.452V189.469V189.487V189.504V189.521V189.539V189.556V189.574V189.592V189.61V189.629V189.647V189.666V189.685V189.703V189.723V189.742V189.761V189.781V189.8V189.82V189.84V189.86V189.88V189.901V189.921V189.942V189.962V189.983V190.004V190.025V190.047V190.068V190.09V190.111V190.133V190.155V190.177V190.199V190.221V190.243V190.266V190.288V190.312V190.334V190.357V190.381V190.404V190.427V190.45V190.474V190.498V190.522V190.545V190.57V190.594V190.618V190.642V190.666V190.691V190.716V190.741V190.765V190.79V190.815V190.84V190.866V190.891V190.916V190.942V190.967V190.993V191.019V191.045V191.071V191.097V191.123V191.149V191.176V191.203V191.229V191.256V191.282V191.309V191.336V191.363V191.39V191.417V191.444V191.471V191.499V191.526V191.554V191.581V191.609V191.637V191.665V191.692V191.72V191.749V191.776V191.805V191.833V191.861V191.89V191.918V191.946V191.975V192.004V192.032V192.061V192.089V192.118V192.147V192.176V192.205V192.234V192.263V192.292V192.322V192.351V192.38V192.409V192.439V192.469V192.498V192.527V192.557V192.586V192.616V192.646V192.676V192.706V192.736V192.765V192.795V192.825V192.855V192.885V192.915V192.945V192.976V193.006V193.036V193.066V193.096V193.126V193.156V193.187V193.217V193.247V193.278V193.308V193.339V193.369V193.399V193.43V193.46V193.491V193.522V193.552V193.582V193.613V193.644V193.674V193.705V193.735V193.766V193.797V193.827V193.858V193.888V193.919V193.95V193.981V194.011V194.041V194.072V194.103V194.134V194.164V194.195V194.225V194.256V194.287V194.317V194.348V194.378V194.409V194.44V194.47V194.5V194.531V194.562V194.592V194.623V194.653V194.683V194.714V194.744V194.775V194.805V194.835V194.866V194.896V194.926V194.956V194.986V195.016V195.046V195.077V195.107V195.137V195.167V195.197V195.227V195.256V195.286V195.316V195.346V195.376V195.406V195.435V195.465V195.494V195.524V195.553V195.583V195.612V195.642V195.671V195.7V195.73V195.758V195.787V195.817V195.846V195.874V195.904V195.932V195.961V195.99V196.018V196.047V196.075V196.104V196.132V196.161V196.189V196.217V196.245V196.273V196.301V196.329V196.357V196.385V196.412V196.44V196.468V196.495V196.522V196.55V196.577V196.604V196.631V196.658V196.685V196.712V196.739V196.766V196.792V196.819V196.846V196.872V196.898V196.924V196.95V196.976V197.002V197.028V197.053V197.079V197.104V197.13V197.155V197.181V197.206V197.231V197.256V197.281V197.305V197.33V197.354V197.379V197.403V197.428V197.452V197.476V197.5V197.523V197.547V197.57V197.593V197.617V197.64V197.663V197.686V197.709V197.732V197.755V197.777V197.8V197.821V197.844V197.866V197.887V197.909V197.931V197.953V197.974V197.995V198.016V198.037V198.058V198.079V198.099V198.119V198.139V198.16V198.18V198.2V198.22V198.239V198.259V198.278V198.297V198.316V198.335V198.354V198.373V198.391V198.409V198.427V198.445V198.463V198.481V198.499V198.516V198.533V198.55V198.567V198.583V198.6V198.616V198.633V198.649V198.665V198.681V198.697V198.712V198.727V198.742V198.757V198.772V198.787V198.801V198.815V198.829V198.844V198.857V198.871V198.884V198.898V198.91V198.923V198.936V198.949V198.961V198.973V198.985V198.997V199.009V199.02V199.031V199.042V199.053V199.064V199.075V199.084V199.095V199.105V199.114V199.124V199.133V199.142V199.151V199.16V199.168V199.177V199.185V199.193V199.201V199.208V199.216V199.222V199.23V199.236V199.243V199.249V199.255V199.261V199.267V199.272V199.277V199.282V199.287V199.291V199.296V199.3V199.304V199.308V199.312V199.315V199.318V199.321V199.323V199.325C259.45 200.075 259.002 200.797 258.172 201.463C257.341 202.128 256.137 202.729 254.644 203.234C251.657 204.246 247.528 204.872 242.965 204.872C238.402 204.872 234.273 204.246 231.286 203.234C229.793 202.729 228.589 202.128 227.758 201.463C226.928 200.797 226.48 200.075 226.48 199.325V199.323V199.321V199.318V199.315V199.312V199.308V199.304V199.3V199.296V199.291V199.287V199.282V199.277V199.272V199.267V199.261V199.255V199.249V199.243V199.236V199.23V199.222V199.216V199.208V199.201V199.193V199.185V199.177V199.168V199.16V199.151V199.142V199.133V199.124V199.114V199.105V199.095V199.084V199.075V199.064V199.053V199.042V199.031V199.02V199.009V198.997V198.985V198.973V198.961V198.949V198.936V198.923V198.91V198.898V198.884V198.871V198.857V198.844V198.829V198.815V198.801V198.787V198.772V198.757V198.742V198.727V198.712V198.697V198.681V198.665V198.649V198.633V198.616V198.6V198.583V198.567V198.55V198.533V198.516V198.499V198.481V198.463V198.445V198.427V198.409V198.391V198.373V198.354V198.335V198.316V198.297V198.278V198.259V198.239V198.22V198.2V198.18V198.16V198.139V198.119V198.099V198.079V198.058V198.037V198.016V197.995V197.974V197.953V197.931V197.909V197.887V197.866V197.844V197.821V197.8V197.777V197.755V197.732V197.709V197.686V197.663V197.64V197.617V197.593V197.57V197.547V197.523V197.5V197.476V197.452V197.428V197.403V197.379V197.354V197.33V197.305V197.281V197.256V197.231V197.206V197.181V197.155V197.13V197.104V197.079V197.053V197.028V197.002V196.976V196.95V196.924V196.898V196.872V196.846V196.819V196.792V196.766V196.739V196.712V196.685V196.658V196.631V196.604V196.577V196.55V196.522V196.495V196.468V196.44V196.412V196.385V196.357V196.329V196.301V196.273V196.245V196.217V196.189V196.161V196.132V196.104V196.075V196.047V196.018V195.99V195.961V195.932V195.904V195.874V195.846V195.817V195.787V195.758V195.73V195.7V195.671V195.642V195.612V195.583V195.553V195.524V195.494V195.465V195.435V195.406V195.376V195.346V195.316V195.286V195.256V195.227V195.197V195.167V195.137V195.107V195.077V195.046V195.016V194.986V194.956V194.926V194.896V194.866V194.835V194.805V194.775V194.744V194.714V194.683V194.653V194.623V194.592V194.562V194.531V194.5V194.47V194.44V194.409V194.378V194.348V194.317V194.287V194.256V194.225V194.195V194.164V194.134V194.103V194.072V194.041V194.011V193.981V193.95V193.919V193.888V193.858V193.827V193.797V193.766V193.735V193.705V193.674V193.644V193.613V193.582V193.552V193.522V193.491V193.46V193.43V193.399V193.369V193.339V193.308V193.278V193.247V193.217V193.187V193.156V193.126V193.096V193.066V193.036V193.006V192.976V192.945V192.915V192.885V192.855V192.825V192.795V192.765V192.736V192.706V192.676V192.646V192.616V192.586V192.557V192.527V192.498V192.469V192.439V192.409V192.38V192.351V192.322V192.292V192.263V192.234V192.205V192.176V192.147V192.118V192.089V192.061V192.032V192.004V191.975V191.946V191.918V191.89V191.861V191.833V191.805V191.776V191.749V191.72V191.692V191.665V191.637V191.609V191.581V191.554V191.526V191.499V191.471V191.444V191.417V191.39V191.363V191.336V191.309V191.282V191.256V191.229V191.203V191.176V191.149V191.123V191.097V191.071V191.045V191.019V190.993V190.967V190.942V190.916V190.891V190.866V190.84V190.815V190.79V190.765V190.741V190.716V190.691V190.666V190.642V190.618V190.594V190.57V190.545V190.522V190.498V190.474V190.45V190.427V190.404V190.381V190.357V190.334V190.312V190.288V190.266V190.243V190.221V190.199V190.177V190.155V190.133V190.111V190.09V190.068V190.047V190.025V190.004V189.983V189.962V189.942V189.921V189.901V189.88V189.86V189.84V189.82V189.8V189.781V189.761V189.742V189.723V189.703V189.685V189.666V189.647V189.629V189.61V189.592V189.574V189.556V189.539V189.521V189.504V189.487V189.469V189.452V189.436V189.419V189.403V189.386V189.37V189.354V189.338V189.322V189.307V189.292V189.277V189.262V189.247V189.232V189.217V189.203V189.189V189.175V189.161V189.148V189.134V189.121V189.108V189.095V189.082V189.07V189.058V189.045V189.033V189.022V189.01V188.998V188.987V188.976V188.965V188.954V188.944V188.933V188.923V188.914V188.904V188.894V188.884V188.875V188.866V188.857V188.849V188.841V188.833V188.824V188.817V188.809V188.802V188.795V188.788V188.781V188.775V188.768V188.762V188.756V188.75V188.745V188.74V188.736H259.45Z" fill="url(#paint16_linear_101_118)" stroke="url(#paint17_linear_101_118)" stroke-width="0.15"/>
<path d="M259.45 188.68C259.45 189.349 259.005 189.997 258.174 190.597C257.344 191.195 256.139 191.737 254.645 192.192C251.659 193.103 247.529 193.666 242.965 193.666C238.401 193.666 234.271 193.103 231.285 192.192C229.791 191.737 228.586 191.195 227.756 190.597C226.925 189.997 226.48 189.349 226.48 188.68C226.48 188.01 226.925 187.362 227.756 186.763C228.586 186.164 229.791 185.623 231.285 185.167C234.271 184.257 238.401 183.693 242.965 183.693C247.529 183.693 251.659 184.257 254.645 185.167C256.139 185.623 257.344 186.164 258.174 186.763C259.005 187.362 259.45 188.01 259.45 188.68Z" fill="url(#paint18_linear_101_118)" stroke="url(#paint19_linear_101_118)" stroke-width="0.15"/>
<path d="M234.281 192.154H197.614C197.614 192.154 197.614 202.904 197.614 203.332C197.614 206.762 205.823 209.542 215.948 209.542C226.073 209.542 234.281 206.762 234.281 203.332C234.281 202.904 234.281 192.154 234.281 192.154Z" fill="url(#paint20_linear_101_118)" fill-opacity="0.1"/>
<path d="M234.224 192.21V192.211V192.217V192.222V192.228V192.234V192.24V192.247V192.253V192.26V192.267V192.274V192.282V192.289V192.298V192.306V192.314V192.322V192.331V192.34V192.349V192.359V192.368V192.378V192.388V192.398V192.409V192.42V192.43V192.442V192.453V192.464V192.475V192.487V192.499V192.511V192.524V192.537V192.55V192.562V192.576V192.589V192.602V192.616V192.63V192.644V192.658V192.673V192.688V192.703V192.718V192.733V192.748V192.763V192.779V192.795V192.811V192.827V192.844V192.86V192.877V192.894V192.911V192.928V192.946V192.964V192.982V192.999V193.018V193.036V193.054V193.072V193.091V193.11V193.129V193.148V193.168V193.187V193.207V193.227V193.246V193.267V193.287V193.308V193.328V193.349V193.369V193.39V193.412V193.433V193.455V193.476V193.498V193.519V193.542V193.564V193.586V193.609V193.631V193.654V193.677V193.699V193.723V193.746V193.769V193.792V193.816V193.84V193.864V193.888V193.912V193.936V193.96V193.985V194.009V194.034V194.059V194.084V194.109V194.134V194.159V194.185V194.21V194.236V194.262V194.287V194.314V194.339V194.365V194.392V194.418V194.445V194.471V194.498V194.524V194.551V194.578V194.605V194.632V194.66V194.687V194.715V194.743V194.77V194.797V194.826V194.854V194.881V194.91V194.938V194.966V194.995V195.022V195.051V195.08V195.109V195.137V195.166V195.195V195.224V195.253V195.282V195.311V195.34V195.37V195.4V195.429V195.459V195.488V195.518V195.548V195.577V195.607V195.637V195.667V195.697V195.728V195.758V195.788V195.819V195.849V195.88V195.91V195.94V195.971V196.002V196.033V196.063V196.094V196.125V196.156V196.187V196.218V196.249V196.28V196.312V196.342V196.374V196.405V196.436V196.468V196.499V196.531V196.562V196.594V196.625V196.657V196.688V196.72V196.752V196.783V196.815V196.846V196.879V196.91V196.942V196.974V197.006V197.038V197.07V197.101V197.134V197.165V197.197V197.23V197.261V197.293V197.326V197.358V197.389V197.422V197.454V197.486V197.518V197.55V197.582V197.614V197.647V197.679V197.711V197.743V197.775V197.807V197.839V197.872V197.904V197.936V197.968V198V198.032V198.064V198.097V198.128V198.16V198.193V198.224V198.256V198.289V198.321V198.352V198.385V198.416V198.448V198.48V198.512V198.544V198.576V198.607V198.64V198.671V198.703V198.735V198.766V198.798V198.829V198.861V198.892V198.924V198.955V198.987V199.018V199.05V199.081V199.112V199.144V199.175V199.206V199.237V199.268V199.3V199.33V199.361V199.392V199.423V199.454V199.485V199.516V199.546V199.576V199.607V199.638V199.668V199.699V199.729V199.759V199.789V199.819V199.849V199.879V199.909V199.939V199.969V199.999V200.029V200.058V200.087V200.117V200.146V200.176V200.205V200.234V200.263V200.292V200.321V200.35V200.379V200.407V200.436V200.464V200.493V200.521V200.55V200.578V200.606V200.634V200.662V200.69V200.718V200.746V200.773V200.8V200.828V200.855V200.882V200.909V200.936V200.963V200.99V201.017V201.043V201.07V201.097V201.123V201.149V201.175V201.201V201.227V201.253V201.278V201.304V201.329V201.355V201.379V201.405V201.43V201.454V201.479V201.504V201.529V201.553V201.577V201.601V201.625V201.649V201.673V201.697V201.72V201.743V201.766V201.79V201.813V201.835V201.859V201.881V201.904V201.926V201.948V201.97V201.992V202.014V202.036V202.057V202.078V202.099V202.12V202.141V202.162V202.183V202.204V202.224V202.244V202.264V202.284V202.303V202.323V202.342V202.362V202.381V202.399V202.419V202.437V202.456V202.474V202.492V202.51V202.528V202.546V202.563V202.58V202.597V202.615V202.631V202.648V202.664V202.681V202.697V202.713V202.729V202.744V202.759V202.775V202.79V202.805V202.819V202.834V202.849V202.863V202.876V202.891V202.904V202.918V202.931V202.944V202.957V202.969V202.982V202.994V203.006V203.018V203.029V203.041V203.053V203.064V203.074V203.085V203.095V203.106V203.116V203.126V203.136V203.145V203.155V203.164V203.173V203.181V203.189V203.197V203.206V203.213V203.221V203.228V203.236V203.242V203.249V203.256V203.262V203.268V203.274V203.279V203.285V203.29V203.295V203.299V203.304V203.308V203.312V203.316V203.32V203.323V203.326V203.329V203.332C234.224 204.165 233.726 204.967 232.805 205.705C231.884 206.443 230.549 207.109 228.893 207.67C225.582 208.791 221.006 209.485 215.948 209.485C210.889 209.485 206.312 208.791 203.002 207.67C201.346 207.109 200.01 206.443 199.09 205.705C198.168 204.967 197.67 204.165 197.67 203.332V203.329V203.326V203.323V203.32V203.316V203.312V203.308V203.304V203.299V203.295V203.29V203.285V203.279V203.274V203.268V203.262V203.256V203.249V203.242V203.236V203.228V203.221V203.213V203.206V203.197V203.189V203.181V203.173V203.164V203.155V203.145V203.136V203.126V203.116V203.106V203.095V203.085V203.074V203.064V203.053V203.041V203.029V203.018V203.006V202.994V202.982V202.969V202.957V202.944V202.931V202.918V202.904V202.891V202.876V202.863V202.849V202.834V202.819V202.805V202.79V202.775V202.759V202.744V202.729V202.713V202.697V202.681V202.664V202.648V202.631V202.615V202.597V202.58V202.563V202.546V202.528V202.51V202.492V202.474V202.456V202.437V202.419V202.399V202.381V202.362V202.342V202.323V202.303V202.284V202.264V202.244V202.224V202.204V202.183V202.162V202.141V202.12V202.099V202.078V202.057V202.036V202.014V201.992V201.97V201.948V201.926V201.904V201.881V201.859V201.835V201.813V201.79V201.766V201.743V201.72V201.697V201.673V201.649V201.625V201.601V201.577V201.553V201.529V201.504V201.479V201.454V201.43V201.405V201.379V201.355V201.329V201.304V201.278V201.253V201.227V201.201V201.175V201.149V201.123V201.097V201.07V201.043V201.017V200.99V200.963V200.936V200.909V200.882V200.855V200.828V200.8V200.773V200.746V200.718V200.69V200.662V200.634V200.606V200.578V200.55V200.521V200.493V200.464V200.436V200.407V200.379V200.35V200.321V200.292V200.263V200.234V200.205V200.176V200.146V200.117V200.087V200.058V200.029V199.999V199.969V199.939V199.909V199.879V199.849V199.819V199.789V199.759V199.729V199.699V199.668V199.638V199.607V199.576V199.546V199.516V199.485V199.454V199.423V199.392V199.361V199.33V199.3V199.268V199.237V199.206V199.175V199.144V199.112V199.081V199.05V199.018V198.987V198.955V198.924V198.892V198.861V198.829V198.798V198.766V198.735V198.703V198.671V198.64V198.607V198.576V198.544V198.512V198.48V198.448V198.416V198.385V198.352V198.321V198.289V198.256V198.224V198.193V198.16V198.128V198.097V198.064V198.032V198V197.968V197.936V197.904V197.872V197.839V197.807V197.775V197.743V197.711V197.679V197.647V197.614V197.582V197.55V197.518V197.486V197.454V197.422V197.389V197.358V197.326V197.293V197.261V197.23V197.197V197.165V197.134V197.101V197.07V197.038V197.006V196.974V196.942V196.91V196.879V196.846V196.815V196.783V196.752V196.72V196.688V196.657V196.625V196.594V196.562V196.531V196.499V196.468V196.436V196.405V196.374V196.342V196.312V196.28V196.249V196.218V196.187V196.156V196.125V196.094V196.063V196.033V196.002V195.971V195.94V195.91V195.88V195.849V195.819V195.788V195.758V195.728V195.697V195.667V195.637V195.607V195.577V195.548V195.518V195.488V195.459V195.429V195.4V195.37V195.34V195.311V195.282V195.253V195.224V195.195V195.166V195.137V195.109V195.08V195.051V195.022V194.995V194.966V194.938V194.91V194.881V194.854V194.826V194.797V194.77V194.743V194.715V194.687V194.66V194.632V194.605V194.578V194.551V194.524V194.498V194.471V194.445V194.418V194.392V194.365V194.339V194.314V194.287V194.262V194.236V194.21V194.185V194.159V194.134V194.109V194.084V194.059V194.034V194.009V193.985V193.96V193.936V193.912V193.888V193.864V193.84V193.816V193.792V193.769V193.746V193.723V193.699V193.677V193.654V193.631V193.609V193.586V193.564V193.542V193.519V193.498V193.476V193.455V193.433V193.412V193.39V193.369V193.349V193.328V193.308V193.287V193.267V193.246V193.227V193.207V193.187V193.168V193.148V193.129V193.11V193.091V193.072V193.054V193.036V193.018V192.999V192.982V192.964V192.946V192.928V192.911V192.894V192.877V192.86V192.844V192.827V192.811V192.795V192.779V192.763V192.748V192.733V192.718V192.703V192.688V192.673V192.658V192.644V192.63V192.616V192.602V192.589V192.576V192.562V192.55V192.537V192.524V192.511V192.499V192.487V192.475V192.464V192.453V192.442V192.43V192.42V192.409V192.398V192.388V192.378V192.368V192.359V192.349V192.34V192.331V192.322V192.314V192.306V192.298V192.289V192.282V192.274V192.267V192.26V192.253V192.247V192.24V192.234V192.228V192.222V192.217V192.211V192.21H234.224Z" stroke="url(#paint21_linear_101_118)" stroke-opacity="0.1" stroke-width="0.15"/>
<path d="M234.281 179.733H197.614C197.614 179.733 197.614 191.726 197.614 192.154C197.614 195.584 205.823 198.364 215.948 198.364C226.073 198.364 234.281 195.584 234.281 192.154C234.281 191.726 234.281 179.733 234.281 179.733Z" fill="url(#paint22_linear_101_118)" fill-opacity="0.1"/>
<path d="M234.224 179.789V179.792V179.798V179.804V179.81V179.816V179.823V179.83V179.837V179.844V179.852V179.86V179.868V179.876V179.885V179.894V179.903V179.912V179.922V179.932V179.942V179.952V179.963V179.973V179.984V179.996V180.007V180.018V180.03V180.042V180.055V180.067V180.08V180.092V180.106V180.119V180.133V180.147V180.161V180.175V180.19V180.204V180.219V180.234V180.25V180.265V180.281V180.296V180.313V180.329V180.346V180.362V180.38V180.396V180.414V180.431V180.449V180.467V180.485V180.503V180.522V180.541V180.56V180.578V180.598V180.617V180.637V180.656V180.677V180.697V180.717V180.737V180.758V180.779V180.8V180.821V180.843V180.865V180.887V180.908V180.93V180.953V180.975V180.998V181.02V181.043V181.067V181.09V181.113V181.136V181.16V181.184V181.208V181.232V181.257V181.282V181.306V181.331V181.356V181.381V181.406V181.432V181.457V181.483V181.509V181.535V181.561V181.587V181.614V181.64V181.667V181.694V181.721V181.748V181.775V181.803V181.83V181.858V181.886V181.913V181.942V181.97V181.998V182.027V182.055V182.084V182.113V182.141V182.171V182.2V182.229V182.258V182.288V182.318V182.348V182.377V182.407V182.437V182.468V182.498V182.528V182.558V182.589V182.62V182.651V182.681V182.712V182.744V182.775V182.806V182.837V182.869V182.9V182.932V182.964V182.996V183.028V183.06V183.092V183.124V183.157V183.189V183.221V183.254V183.287V183.32V183.352V183.385V183.418V183.451V183.484V183.518V183.551V183.584V183.617V183.65V183.684V183.718V183.752V183.785V183.819V183.853V183.887V183.921V183.955V183.989V184.023V184.058V184.091V184.126V184.16V184.195V184.229V184.264V184.298V184.333V184.368V184.403V184.437V184.472V184.507V184.542V184.577V184.612V184.647V184.682V184.718V184.753V184.787V184.823V184.858V184.893V184.929V184.964V185V185.035V185.07V185.106V185.141V185.177V185.213V185.248V185.284V185.319V185.355V185.39V185.426V185.462V185.498V185.533V185.569V185.605V185.64V185.676V185.711V185.747V185.783V185.819V185.855V185.891V185.927V185.962V185.998V186.034V186.069V186.105V186.141V186.176V186.212V186.248V186.284V186.32V186.356V186.391V186.427V186.462V186.498V186.533V186.569V186.605V186.641V186.676V186.712V186.747V186.782V186.818V186.854V186.889V186.924V186.96V186.995V187.031V187.066V187.101V187.136V187.172V187.206V187.241V187.277V187.312V187.346V187.382V187.416V187.451V187.486V187.521V187.556V187.59V187.625V187.659V187.694V187.728V187.763V187.797V187.832V187.865V187.9V187.934V187.968V188.002V188.036V188.07V188.104V188.138V188.171V188.205V188.238V188.272V188.306V188.339V188.372V188.405V188.438V188.471V188.504V188.537V188.57V188.603V188.636V188.668V188.7V188.733V188.765V188.798V188.83V188.861V188.894V188.926V188.957V188.989V189.02V189.052V189.083V189.115V189.146V189.177V189.209V189.239V189.27V189.301V189.332V189.362V189.392V189.422V189.453V189.483V189.513V189.543V189.572V189.602V189.632V189.661V189.691V189.719V189.749V189.778V189.806V189.836V189.864V189.893V189.92V189.949V189.977V190.005V190.033V190.061V190.088V190.115V190.142V190.17V190.197V190.224V190.25V190.277V190.304V190.33V190.356V190.382V190.408V190.434V190.46V190.485V190.511V190.535V190.561V190.586V190.61V190.634V190.659V190.683V190.707V190.731V190.755V190.779V190.802V190.826V190.849V190.871V190.895V190.917V190.94V190.962V190.984V191.006V191.028V191.05V191.071V191.093V191.114V191.135V191.155V191.176V191.196V191.216V191.237V191.256V191.276V191.295V191.315V191.334V191.353V191.372V191.39V191.408V191.426V191.444V191.462V191.48V191.498V191.514V191.531V191.548V191.565V191.581V191.597V191.613V191.629V191.645V191.66V191.675V191.69V191.705V191.72V191.734V191.748V191.762V191.775V191.789V191.802V191.815V191.828V191.84V191.853V191.865V191.877V191.888V191.9V191.912V191.922V191.933V191.944V191.954V191.964V191.974V191.984V191.993V192.002V192.011V192.02V192.028V192.036V192.044V192.052V192.059V192.067V192.074V192.08V192.087V192.093V192.099V192.105V192.11V192.116V192.12V192.125V192.13V192.134V192.138V192.142V192.145V192.148V192.151V192.154C234.224 192.987 233.726 193.79 232.805 194.528C231.884 195.265 230.549 195.931 228.893 196.492C225.582 197.613 221.006 198.308 215.948 198.308C210.889 198.308 206.312 197.613 203.002 196.492C201.346 195.931 200.01 195.265 199.09 194.528C198.168 193.79 197.67 192.987 197.67 192.154V192.151V192.148V192.145V192.142V192.138V192.134V192.13V192.125V192.12V192.116V192.11V192.105V192.099V192.093V192.087V192.08V192.074V192.067V192.059V192.052V192.044V192.036V192.028V192.02V192.011V192.002V191.993V191.984V191.974V191.964V191.954V191.944V191.933V191.922V191.912V191.9V191.888V191.877V191.865V191.853V191.84V191.828V191.815V191.802V191.789V191.775V191.762V191.748V191.734V191.72V191.705V191.69V191.675V191.66V191.645V191.629V191.613V191.597V191.581V191.565V191.548V191.531V191.514V191.498V191.48V191.462V191.444V191.426V191.408V191.39V191.372V191.353V191.334V191.315V191.295V191.276V191.256V191.237V191.216V191.196V191.176V191.155V191.135V191.114V191.093V191.071V191.05V191.028V191.006V190.984V190.962V190.94V190.917V190.895V190.871V190.849V190.826V190.802V190.779V190.755V190.731V190.707V190.683V190.659V190.634V190.61V190.586V190.561V190.535V190.511V190.485V190.46V190.434V190.408V190.382V190.356V190.33V190.304V190.277V190.25V190.224V190.197V190.17V190.142V190.115V190.088V190.061V190.033V190.005V189.977V189.949V189.92V189.893V189.864V189.836V189.806V189.778V189.749V189.719V189.691V189.661V189.632V189.602V189.572V189.543V189.513V189.483V189.453V189.422V189.392V189.362V189.332V189.301V189.27V189.239V189.209V189.177V189.146V189.115V189.083V189.052V189.02V188.989V188.957V188.926V188.894V188.861V188.83V188.798V188.765V188.733V188.7V188.668V188.636V188.603V188.57V188.537V188.504V188.471V188.438V188.405V188.372V188.339V188.306V188.272V188.238V188.205V188.171V188.138V188.104V188.07V188.036V188.002V187.968V187.934V187.9V187.865V187.832V187.797V187.763V187.728V187.694V187.659V187.625V187.59V187.556V187.521V187.486V187.451V187.416V187.382V187.346V187.312V187.277V187.241V187.206V187.172V187.136V187.101V187.066V187.031V186.995V186.96V186.924V186.889V186.854V186.818V186.782V186.747V186.712V186.676V186.641V186.605V186.569V186.533V186.498V186.462V186.427V186.391V186.356V186.32V186.284V186.248V186.212V186.176V186.141V186.105V186.069V186.034V185.998V185.962V185.927V185.891V185.855V185.819V185.783V185.747V185.711V185.676V185.64V185.605V185.569V185.533V185.498V185.462V185.426V185.39V185.355V185.319V185.284V185.248V185.213V185.177V185.141V185.106V185.07V185.035V185V184.964V184.929V184.893V184.858V184.823V184.787V184.753V184.718V184.682V184.647V184.612V184.577V184.542V184.507V184.472V184.437V184.403V184.368V184.333V184.298V184.264V184.229V184.195V184.16V184.126V184.091V184.058V184.023V183.989V183.955V183.921V183.887V183.853V183.819V183.785V183.752V183.718V183.684V183.65V183.617V183.584V183.551V183.518V183.484V183.451V183.418V183.385V183.352V183.32V183.287V183.254V183.221V183.189V183.157V183.124V183.092V183.06V183.028V182.996V182.964V182.932V182.9V182.869V182.837V182.806V182.775V182.744V182.712V182.681V182.651V182.62V182.589V182.558V182.528V182.498V182.468V182.437V182.407V182.377V182.348V182.318V182.288V182.258V182.229V182.2V182.171V182.141V182.113V182.084V182.055V182.027V181.998V181.97V181.942V181.913V181.886V181.858V181.83V181.803V181.775V181.748V181.721V181.694V181.667V181.64V181.614V181.587V181.561V181.535V181.509V181.483V181.457V181.432V181.406V181.381V181.356V181.331V181.306V181.282V181.257V181.232V181.208V181.184V181.16V181.136V181.113V181.09V181.067V181.043V181.02V180.998V180.975V180.953V180.93V180.908V180.887V180.865V180.843V180.821V180.8V180.779V180.758V180.737V180.717V180.697V180.677V180.656V180.637V180.617V180.598V180.578V180.56V180.541V180.522V180.503V180.485V180.467V180.449V180.431V180.414V180.396V180.38V180.362V180.346V180.329V180.313V180.296V180.281V180.265V180.25V180.234V180.219V180.204V180.19V180.175V180.161V180.147V180.133V180.119V180.106V180.092V180.08V180.067V180.055V180.042V180.03V180.018V180.007V179.996V179.984V179.973V179.963V179.952V179.942V179.932V179.922V179.912V179.903V179.894V179.885V179.876V179.868V179.86V179.852V179.844V179.837V179.83V179.823V179.816V179.81V179.804V179.798V179.792V179.789H234.224Z" stroke="url(#paint23_linear_101_118)" stroke-opacity="0.1" stroke-width="0.15"/>
<path d="M234.281 167.934H197.614C197.614 167.934 197.614 179.306 197.614 179.733C197.614 183.163 205.823 185.944 215.948 185.944C226.073 185.944 234.281 183.163 234.281 179.733C234.281 179.306 234.281 167.934 234.281 167.934Z" fill="url(#paint24_linear_101_118)" fill-opacity="0.2"/>
<path d="M234.224 167.99V167.995V168.001V168.007V168.013V168.019V168.025V168.032V168.04V168.046V168.054V168.061V168.07V168.078V168.086V168.095V168.103V168.112V168.122V168.131V168.141V168.151V168.161V168.172V168.182V168.193V168.204V168.215V168.227V168.238V168.25V168.262V168.274V168.287V168.3V168.313V168.326V168.339V168.352V168.367V168.38V168.394V168.409V168.424V168.438V168.453V168.468V168.484V168.499V168.514V168.53V168.547V168.562V168.579V168.596V168.613V168.63V168.646V168.664V168.682V168.7V168.718V168.736V168.754V168.772V168.79V168.809V168.829V168.847V168.867V168.886V168.906V168.925V168.946V168.966V168.986V169.006V169.027V169.048V169.069V169.09V169.111V169.133V169.154V169.176V169.198V169.22V169.243V169.265V169.288V169.31V169.333V169.356V169.379V169.402V169.426V169.449V169.473V169.497V169.521V169.545V169.569V169.594V169.618V169.642V169.667V169.693V169.717V169.743V169.768V169.793V169.819V169.845V169.87V169.897V169.923V169.949V169.975V170.002V170.029V170.055V170.082V170.109V170.136V170.163V170.191V170.218V170.245V170.273V170.301V170.329V170.357V170.385V170.413V170.441V170.47V170.498V170.527V170.556V170.584V170.614V170.642V170.671V170.701V170.73V170.759V170.789V170.818V170.848V170.878V170.908V170.938V170.968V170.998V171.028V171.058V171.089V171.12V171.15V171.181V171.211V171.242V171.273V171.304V171.335V171.367V171.397V171.429V171.46V171.492V171.523V171.555V171.586V171.618V171.649V171.682V171.713V171.745V171.778V171.809V171.841V171.874V171.906V171.938V171.97V172.003V172.036V172.068V172.101V172.133V172.166V172.198V172.231V172.264V172.297V172.33V172.363V172.396V172.429V172.462V172.495V172.528V172.562V172.595V172.628V172.662V172.695V172.729V172.762V172.795V172.829V172.862V172.896V172.93V172.963V172.996V173.03V173.064V173.098V173.131V173.165V173.199V173.233V173.266V173.3V173.335V173.368V173.402V173.436V173.47V173.503V173.538V173.572V173.605V173.639V173.674V173.707V173.741V173.775V173.809V173.843V173.877V173.911V173.945V173.979V174.013V174.046V174.081V174.115V174.148V174.182V174.217V174.25V174.284V174.318V174.352V174.385V174.419V174.453V174.487V174.521V174.555V174.588V174.622V174.655V174.689V174.723V174.757V174.79V174.823V174.857V174.891V174.924V174.958V174.991V175.024V175.057V175.091V175.124V175.157V175.19V175.224V175.257V175.29V175.323V175.356V175.389V175.422V175.454V175.487V175.52V175.552V175.585V175.618V175.65V175.683V175.715V175.747V175.78V175.812V175.844V175.876V175.909V175.94V175.972V176.004V176.036V176.068V176.099V176.131V176.163V176.194V176.225V176.257V176.288V176.319V176.35V176.381V176.413V176.443V176.474V176.505V176.536V176.566V176.596V176.626V176.657V176.687V176.717V176.747V176.777V176.807V176.837V176.866V176.896V176.926V176.955V176.984V177.013V177.043V177.072V177.1V177.13V177.158V177.187V177.215V177.244V177.272V177.3V177.328V177.356V177.384V177.412V177.439V177.467V177.494V177.522V177.549V177.576V177.603V177.63V177.656V177.683V177.709V177.736V177.762V177.788V177.814V177.84V177.865V177.891V177.916V177.942V177.967V177.992V178.017V178.042V178.066V178.091V178.115V178.139V178.164V178.187V178.211V178.235V178.258V178.282V178.305V178.328V178.351V178.374V178.396V178.419V178.441V178.464V178.486V178.507V178.529V178.551V178.572V178.594V178.615V178.636V178.656V178.677V178.697V178.717V178.738V178.758V178.777V178.797V178.816V178.836V178.855V178.873V178.892V178.911V178.93V178.948V178.966V178.984V179.001V179.019V179.036V179.053V179.07V179.087V179.104V179.12V179.136V179.152V179.168V179.184V179.199V179.215V179.23V179.244V179.259V179.273V179.287V179.302V179.316V179.329V179.343V179.356V179.369V179.382V179.395V179.407V179.419V179.431V179.443V179.455V179.467V179.477V179.488V179.499V179.51V179.52V179.53V179.54V179.55V179.56V179.569V179.578V179.587V179.595V179.603V179.611V179.619V179.627V179.635V179.641V179.648V179.655V179.662V179.668V179.674V179.68V179.686V179.691V179.695V179.701V179.705V179.71V179.713V179.718V179.721V179.725V179.728V179.731V179.733C234.224 180.567 233.726 181.369 232.805 182.107C231.884 182.844 230.549 183.511 228.893 184.072C225.582 185.193 221.006 185.887 215.948 185.887C210.889 185.887 206.312 185.193 203.002 184.072C201.346 183.511 200.01 182.844 199.09 182.107C198.168 181.369 197.67 180.567 197.67 179.733V179.731V179.728V179.725V179.721V179.718V179.713V179.71V179.705V179.701V179.695V179.691V179.686V179.68V179.674V179.668V179.662V179.655V179.648V179.641V179.635V179.627V179.619V179.611V179.603V179.595V179.587V179.578V179.569V179.56V179.55V179.54V179.53V179.52V179.51V179.499V179.488V179.477V179.467V179.455V179.443V179.431V179.419V179.407V179.395V179.382V179.369V179.356V179.343V179.329V179.316V179.302V179.287V179.273V179.259V179.244V179.23V179.215V179.199V179.184V179.168V179.152V179.136V179.12V179.104V179.087V179.07V179.053V179.036V179.019V179.001V178.984V178.966V178.948V178.93V178.911V178.892V178.873V178.855V178.836V178.816V178.797V178.777V178.758V178.738V178.717V178.697V178.677V178.656V178.636V178.615V178.594V178.572V178.551V178.529V178.507V178.486V178.464V178.441V178.419V178.396V178.374V178.351V178.328V178.305V178.282V178.258V178.235V178.211V178.187V178.164V178.139V178.115V178.091V178.066V178.042V178.017V177.992V177.967V177.942V177.916V177.891V177.865V177.84V177.814V177.788V177.762V177.736V177.709V177.683V177.656V177.63V177.603V177.576V177.549V177.522V177.494V177.467V177.439V177.412V177.384V177.356V177.328V177.3V177.272V177.244V177.215V177.187V177.158V177.13V177.1V177.072V177.043V177.013V176.984V176.955V176.926V176.896V176.866V176.837V176.807V176.777V176.747V176.717V176.687V176.657V176.626V176.596V176.566V176.536V176.505V176.474V176.443V176.413V176.381V176.35V176.319V176.288V176.257V176.225V176.194V176.163V176.131V176.099V176.068V176.036V176.004V175.972V175.94V175.909V175.876V175.844V175.812V175.78V175.747V175.715V175.683V175.65V175.618V175.585V175.552V175.52V175.487V175.454V175.422V175.389V175.356V175.323V175.29V175.257V175.224V175.19V175.157V175.124V175.091V175.057V175.024V174.991V174.958V174.924V174.891V174.857V174.823V174.79V174.757V174.723V174.689V174.655V174.622V174.588V174.555V174.521V174.487V174.453V174.419V174.385V174.352V174.318V174.284V174.25V174.217V174.182V174.148V174.115V174.081V174.046V174.013V173.979V173.945V173.911V173.877V173.843V173.809V173.775V173.741V173.707V173.674V173.639V173.605V173.572V173.538V173.503V173.47V173.436V173.402V173.368V173.335V173.3V173.266V173.233V173.199V173.165V173.131V173.098V173.064V173.03V172.996V172.963V172.93V172.896V172.862V172.829V172.795V172.762V172.729V172.695V172.662V172.628V172.595V172.562V172.528V172.495V172.462V172.429V172.396V172.363V172.33V172.297V172.264V172.231V172.198V172.166V172.133V172.101V172.068V172.036V172.003V171.97V171.938V171.906V171.874V171.841V171.809V171.778V171.745V171.713V171.682V171.649V171.618V171.586V171.555V171.523V171.492V171.46V171.429V171.397V171.367V171.335V171.304V171.273V171.242V171.211V171.181V171.15V171.12V171.089V171.058V171.028V170.998V170.968V170.938V170.908V170.878V170.848V170.818V170.789V170.759V170.73V170.701V170.671V170.642V170.614V170.584V170.556V170.527V170.498V170.47V170.441V170.413V170.385V170.357V170.329V170.301V170.273V170.245V170.218V170.191V170.163V170.136V170.109V170.082V170.055V170.029V170.002V169.975V169.949V169.923V169.897V169.87V169.845V169.819V169.793V169.768V169.743V169.717V169.693V169.667V169.642V169.618V169.594V169.569V169.545V169.521V169.497V169.473V169.449V169.426V169.402V169.379V169.356V169.333V169.31V169.288V169.265V169.243V169.22V169.198V169.176V169.154V169.133V169.111V169.09V169.069V169.048V169.027V169.006V168.986V168.966V168.946V168.925V168.906V168.886V168.867V168.847V168.829V168.809V168.79V168.772V168.754V168.736V168.718V168.7V168.682V168.664V168.646V168.63V168.613V168.596V168.579V168.562V168.547V168.53V168.514V168.499V168.484V168.468V168.453V168.438V168.424V168.409V168.394V168.38V168.367V168.352V168.339V168.326V168.313V168.3V168.287V168.274V168.262V168.25V168.238V168.227V168.215V168.204V168.193V168.182V168.172V168.161V168.151V168.141V168.131V168.122V168.112V168.103V168.095V168.086V168.078V168.07V168.061V168.054V168.046V168.04V168.032V168.025V168.019V168.013V168.007V168.001V167.995V167.99H234.224Z" stroke="url(#paint25_linear_101_118)" stroke-opacity="0.1" stroke-width="0.15"/>
<path d="M215.948 173.523C226.073 173.523 234.281 171.021 234.281 167.934C234.281 164.847 226.073 162.345 215.948 162.345C205.822 162.345 197.614 164.847 197.614 167.934C197.614 171.021 205.822 173.523 215.948 173.523Z" fill="url(#paint26_linear_101_118)" fill-opacity="0.5"/>
<path d="M234.224 167.934C234.224 168.679 233.729 169.399 232.807 170.064C231.887 170.728 230.551 171.328 228.895 171.832C225.584 172.842 221.006 173.467 215.948 173.467C210.889 173.467 206.311 172.842 203 171.832C201.344 171.328 200.008 170.728 199.088 170.064C198.165 169.399 197.67 168.679 197.67 167.934C197.67 167.189 198.165 166.468 199.088 165.804C200.008 165.14 201.344 164.54 203 164.035C206.311 163.026 210.889 162.401 215.948 162.401C221.006 162.401 225.584 163.026 228.895 164.035C230.551 164.54 231.887 165.14 232.807 165.804C233.729 166.468 234.224 167.189 234.224 167.934Z" stroke="url(#paint27_linear_101_118)" stroke-opacity="0.1" stroke-width="0.15"/>
<path d="M231.081 209.331C226.31 198.875 216.066 191.621 204.162 191.621C189.146 191.621 176.757 203.144 174.702 218.115C174.591 218.11 174.484 218.08 174.37 218.08C162.619 218.08 153.09 227.953 153.09 240.128C153.09 252.304 162.619 262.177 174.37 262.177C182.281 262.177 221.85 262.177 229.698 262.177C243.802 262.177 255.234 250.333 255.234 235.718C255.234 221.59 244.538 210.08 231.081 209.331Z" fill="url(#paint28_linear_101_118)"/>
<path d="M38.756 117.188H18.5584C16.013 117.188 13.9497 119.327 13.9497 121.966V142.91C13.9497 145.549 16.013 147.688 18.5584 147.688H38.756C41.3013 147.688 43.3646 145.549 43.3646 142.91V121.966C43.3646 119.327 41.3013 117.188 38.756 117.188Z" fill="#FED86E" fill-opacity="0.76"/>
<path d="M38.756 158.62H18.5584C16.013 158.62 13.9497 160.759 13.9497 163.398V184.342C13.9497 186.981 16.013 189.12 18.5584 189.12H38.756C41.3013 189.12 43.3646 186.981 43.3646 184.342V163.398C43.3646 160.759 41.3013 158.62 38.756 158.62Z" fill="#FED86E" fill-opacity="0.76"/>
<path d="M38.756 200.051H18.5584C16.013 200.051 13.9497 202.191 13.9497 204.83V225.773C13.9497 228.413 16.013 230.552 18.5584 230.552H38.756C41.3013 230.552 43.3646 228.413 43.3646 225.773V204.83C43.3646 202.191 41.3013 200.051 38.756 200.051Z" fill="#FED86E" fill-opacity="0.76"/>
<path d="M39.2075 72.5806H19.0099C16.4646 72.5806 14.4012 74.7197 14.4012 77.3596V98.3026C14.4012 100.942 16.4646 103.082 19.0099 103.082H39.2075C41.7528 103.082 43.8162 100.942 43.8162 98.3026V77.3596C43.8162 74.7197 41.7528 72.5806 39.2075 72.5806Z" fill="#3586CB"/>
<path d="M0 15C0 6.71573 6.71573 0 15 0H282C291.941 0 300 8.05887 300 18V44.25H0V15Z" fill="#297CD2"/>
<path d="M0 15C0 6.71573 6.71573 0 15 0H282C291.941 0 300 8.05887 300 18V44.25H0V15Z" fill="black" fill-opacity="0.2"/>
</g>
<defs>
<linearGradient id="paint0_linear_101_118" x1="227.183" y1="161.46" x2="199.832" y2="161.46" gradientUnits="userSpaceOnUse">
<stop stop-color="#0D61A9"/>
<stop offset="0.482" stop-color="#0D60A7"/>
<stop offset="0.711" stop-color="#0F5C9F"/>
<stop offset="0.886" stop-color="#125592"/>
<stop offset="1" stop-color="#154E85"/>
</linearGradient>
<linearGradient id="paint1_linear_101_118" x1="213.123" y1="161.46" x2="199.791" y2="161.46" gradientUnits="userSpaceOnUse">
<stop offset="0.365" stop-color="#32BDEF"/>
<stop offset="0.49" stop-color="#2FB7E9"/>
<stop offset="0.66" stop-color="#26A5D7"/>
<stop offset="0.854" stop-color="#1789BB"/>
<stop offset="1" stop-color="#096FA1"/>
</linearGradient>
<linearGradient id="paint2_linear_101_118" x1="165.465" y1="166.936" x2="165.465" y2="232.84" gradientUnits="userSpaceOnUse">
<stop stop-color="white"/>
<stop offset="0.614583" stop-color="#EAF1F7" stop-opacity="0.833333"/>
<stop offset="0.994792" stop-color="white" stop-opacity="0"/>
</linearGradient>
<linearGradient id="paint3_linear_101_118" x1="165.465" y1="166.936" x2="165.465" y2="232.84" gradientUnits="userSpaceOnUse">
<stop stop-color="#3586CB"/>
<stop offset="0.614583" stop-color="#EAF1F7" stop-opacity="0.833333"/>
<stop offset="0.994792" stop-color="white" stop-opacity="0"/>
</linearGradient>
<linearGradient id="paint4_linear_101_118" x1="153.803" y1="177.254" x2="153.803" y2="184.191" gradientUnits="userSpaceOnUse">
<stop stop-color="#3586CB"/>
<stop offset="0.614583" stop-color="#EAF1F7" stop-opacity="0.833333"/>
<stop offset="0.994792" stop-color="white" stop-opacity="0"/>
</linearGradient>
<linearGradient id="paint5_linear_101_118" x1="153.771" y1="185.278" x2="153.771" y2="195.596" gradientUnits="userSpaceOnUse">
<stop stop-color="#3586CB"/>
<stop offset="0.614583" stop-color="#EAF1F7" stop-opacity="0.833333"/>
<stop offset="0.994792" stop-color="white" stop-opacity="0"/>
</linearGradient>
<linearGradient id="paint6_linear_101_118" x1="162.727" y1="206.825" x2="162.727" y2="210.294" gradientUnits="userSpaceOnUse">
<stop stop-color="#3586CB"/>
<stop offset="0.614583" stop-color="#EAF1F7" stop-opacity="0.833333"/>
<stop offset="0.994792" stop-color="white" stop-opacity="0"/>
</linearGradient>
<linearGradient id="paint7_linear_101_118" x1="165.465" y1="199.888" x2="165.465" y2="203.356" gradientUnits="userSpaceOnUse">
<stop stop-color="#3586CB"/>
<stop offset="0.614583" stop-color="#EAF1F7" stop-opacity="0.833333"/>
<stop offset="0.994792" stop-color="white" stop-opacity="0"/>
</linearGradient>
<linearGradient id="paint8_linear_101_118" x1="162.727" y1="220.7" x2="162.727" y2="224.169" gradientUnits="userSpaceOnUse">
<stop stop-color="#3586CB"/>
<stop offset="0.614583" stop-color="#EAF1F7" stop-opacity="0.833333"/>
<stop offset="0.994792" stop-color="white" stop-opacity="0"/>
</linearGradient>
<linearGradient id="paint9_linear_101_118" x1="162.727" y1="213.763" x2="162.727" y2="217.231" gradientUnits="userSpaceOnUse">
<stop stop-color="#3586CB"/>
<stop offset="0.614583" stop-color="#EAF1F7" stop-opacity="0.833333"/>
<stop offset="0.994792" stop-color="white" stop-opacity="0"/>
</linearGradient>
<linearGradient id="paint10_linear_101_118" x1="174.592" y1="186.013" x2="174.592" y2="189.482" gradientUnits="userSpaceOnUse">
<stop stop-color="#3586CB"/>
<stop offset="0.614583" stop-color="#EAF1F7" stop-opacity="0.833333"/>
<stop offset="0.994792" stop-color="white" stop-opacity="0"/>
</linearGradient>
<linearGradient id="paint11_linear_101_118" x1="174.592" y1="179.076" x2="174.592" y2="182.545" gradientUnits="userSpaceOnUse">
<stop stop-color="#3586CB"/>
<stop offset="0.614583" stop-color="#EAF1F7" stop-opacity="0.833333"/>
<stop offset="0.994792" stop-color="white" stop-opacity="0"/>
</linearGradient>
<linearGradient id="paint12_linear_101_118" x1="226.423" y1="218.376" x2="259.507" y2="218.376" gradientUnits="userSpaceOnUse">
<stop stop-color="#11408A"/>
<stop offset="1" stop-color="#103F8F"/>
</linearGradient>
<linearGradient id="paint13_linear_101_118" x1="242.965" y1="210.532" x2="242.965" y2="226.221" gradientUnits="userSpaceOnUse">
<stop stop-color="#3586CB"/>
<stop offset="0.614583" stop-color="#EAF1F7" stop-opacity="0.833333"/>
<stop offset="0.994792" stop-color="white" stop-opacity="0"/>
</linearGradient>
<linearGradient id="paint14_linear_101_118" x1="226.423" y1="207.73" x2="259.507" y2="207.73" gradientUnits="userSpaceOnUse">
<stop stop-color="#1D59B3"/>
<stop offset="1" stop-color="#195BBC"/>
</linearGradient>
<linearGradient id="paint15_linear_101_118" x1="242.965" y1="199.326" x2="242.965" y2="216.135" gradientUnits="userSpaceOnUse">
<stop stop-color="#3586CB"/>
<stop offset="0.614583" stop-color="#EAF1F7" stop-opacity="0.833333"/>
<stop offset="0.994792" stop-color="white" stop-opacity="0"/>
</linearGradient>
<linearGradient id="paint16_linear_101_118" x1="226.423" y1="196.804" x2="259.507" y2="196.804" gradientUnits="userSpaceOnUse">
<stop stop-color="#3079D6"/>
<stop offset="1" stop-color="#297CD2"/>
</linearGradient>
<linearGradient id="paint17_linear_101_118" x1="242.965" y1="188.68" x2="242.965" y2="204.928" gradientUnits="userSpaceOnUse">
<stop stop-color="#3586CB"/>
<stop offset="0.614583" stop-color="#EAF1F7" stop-opacity="0.833333"/>
<stop offset="0.994792" stop-color="white" stop-opacity="0"/>
</linearGradient>
<linearGradient id="paint18_linear_101_118" x1="226.423" y1="188.68" x2="259.507" y2="188.68" gradientUnits="userSpaceOnUse">
<stop stop-color="#42A3F2"/>
<stop offset="1" stop-color="#42A4EB"/>
</linearGradient>
<linearGradient id="paint19_linear_101_118" x1="242.965" y1="183.637" x2="242.965" y2="193.723" gradientUnits="userSpaceOnUse">
<stop stop-color="#3586CB"/>
<stop offset="0.614583" stop-color="#EAF1F7" stop-opacity="0.833333"/>
<stop offset="0.994792" stop-color="white" stop-opacity="0"/>
</linearGradient>
<linearGradient id="paint20_linear_101_118" x1="197.614" y1="200.848" x2="234.281" y2="200.848" gradientUnits="userSpaceOnUse">
<stop stop-color="#11408A" stop-opacity="0.47"/>
<stop offset="0.5" stop-color="#103F8F" stop-opacity="0.08"/>
</linearGradient>
<linearGradient id="paint21_linear_101_118" x1="215.948" y1="192.154" x2="215.948" y2="209.542" gradientUnits="userSpaceOnUse">
<stop stop-color="#E6EEF5"/>
<stop offset="0.614583" stop-color="#EAF1F7" stop-opacity="0.833333"/>
<stop offset="0.994792" stop-color="white" stop-opacity="0"/>
</linearGradient>
<linearGradient id="paint22_linear_101_118" x1="197.614" y1="189.049" x2="234.281" y2="189.049" gradientUnits="userSpaceOnUse">
<stop stop-color="#1D59B3"/>
<stop offset="1" stop-color="#195BBC"/>
</linearGradient>
<linearGradient id="paint23_linear_101_118" x1="215.948" y1="179.733" x2="215.948" y2="198.364" gradientUnits="userSpaceOnUse">
<stop stop-color="#E6EEF5"/>
<stop offset="0.614583" stop-color="#EAF1F7" stop-opacity="0.833333"/>
<stop offset="0.994792" stop-color="white" stop-opacity="0"/>
</linearGradient>
<linearGradient id="paint24_linear_101_118" x1="197.614" y1="176.938" x2="234.281" y2="176.938" gradientUnits="userSpaceOnUse">
<stop stop-color="#3079D6"/>
<stop offset="1" stop-color="#297CD2"/>
</linearGradient>
<linearGradient id="paint25_linear_101_118" x1="215.948" y1="167.934" x2="215.948" y2="185.944" gradientUnits="userSpaceOnUse">
<stop stop-color="#E6EEF5"/>
<stop offset="0.614583" stop-color="#EAF1F7" stop-opacity="0.833333"/>
<stop offset="0.994792" stop-color="white" stop-opacity="0"/>
</linearGradient>
<linearGradient id="paint26_linear_101_118" x1="197.614" y1="167.934" x2="234.281" y2="167.934" gradientUnits="userSpaceOnUse">
<stop stop-color="#42A3F2"/>
<stop offset="1" stop-color="#42A4EB"/>
</linearGradient>
<linearGradient id="paint27_linear_101_118" x1="215.948" y1="162.345" x2="215.948" y2="173.523" gradientUnits="userSpaceOnUse">
<stop stop-color="#E6EEF5"/>
<stop offset="0.614583" stop-color="#EAF1F7" stop-opacity="0.833333"/>
<stop offset="0.994792" stop-color="white" stop-opacity="0"/>
</linearGradient>
<linearGradient id="paint28_linear_101_118" x1="189.185" y1="195.021" x2="214.919" y2="263.074" gradientUnits="userSpaceOnUse">
<stop stop-color="#2AA4F4"/>
<stop offset="1" stop-color="#007AD9"/>
</linearGradient>
<clipPath id="clip0_101_118">
<rect width="300" height="300" fill="white"/>
</clipPath>
</defs>
</svg>
