<svg width="110" height="110" viewBox="0 0 110 110" fill="none" xmlns="http://www.w3.org/2000/svg">
<circle cx="55" cy="55" r="40" fill="url(#paint0_linear_289_6050)"/>
<circle cx="54.9999" cy="55" r="33.6" fill="url(#paint1_linear_289_6050)"/>
<path d="M55.8835 36.3743L61.1852 48.2669L74.1328 49.6344C74.966 49.7225 75.3009 50.7551 74.6786 51.3155L65.0072 60.0307L67.7083 72.7682C67.8826 73.588 67.0038 74.2258 66.2779 73.8077L54.9999 67.301L43.7219 73.8067C42.996 74.2248 42.1182 73.587 42.2914 72.7673L44.9926 60.0298L35.3212 51.3145C34.6989 50.7542 35.0347 49.7215 35.867 49.6334L48.8145 48.2659L54.1163 36.3733C54.4569 35.6087 55.5428 35.6087 55.8835 36.3743Z" fill="url(#paint2_linear_289_6050)"/>
<defs>
<linearGradient id="paint0_linear_289_6050" x1="55" y1="15" x2="55" y2="95" gradientUnits="userSpaceOnUse">
<stop stop-color="white"/>
<stop offset="1" stop-color="white"/>
</linearGradient>
<linearGradient id="paint1_linear_289_6050" x1="44.7284" y1="24.3387" x2="55.7347" y2="95.8799" gradientUnits="userSpaceOnUse">
<stop stop-color="#0D61A9"/>
<stop offset="1" stop-color="#16528C"/>
</linearGradient>
<linearGradient id="paint2_linear_289_6050" x1="40.4913" y1="37.5105" x2="68.6384" y2="75.1646" gradientUnits="userSpaceOnUse">
<stop stop-color="#FFDA1C"/>
<stop offset="1" stop-color="#FEB705"/>
</linearGradient>
</defs>
</svg>
