<svg width="100" height="100" viewBox="0 0 100 100" fill="none" xmlns="http://www.w3.org/2000/svg">
<path d="M47.8948 14.2105H85.7895C86.9516 14.2105 87.8948 15.1537 87.8948 16.3158V42.4169C87.8948 43.459 86.5137 43.8274 85.9937 42.9263L81.579 35.2632H47.8948C46.7326 35.2632 45.7895 34.32 45.7895 33.1579V16.3158C45.7895 15.1537 46.7326 14.2105 47.8948 14.2105Z" fill="url(#paint0_linear_289_6064)"/>
<path d="M73.1579 62.6316C78.9714 62.6316 83.6842 57.9188 83.6842 52.1053C83.6842 46.2917 78.9714 41.5789 73.1579 41.5789C67.3444 41.5789 62.6316 46.2917 62.6316 52.1053C62.6316 57.9188 67.3444 62.6316 73.1579 62.6316Z" fill="url(#paint1_linear_289_6064)"/>
<path d="M26.8421 62.6316C32.6556 62.6316 37.3684 57.9188 37.3684 52.1053C37.3684 46.2917 32.6556 41.5789 26.8421 41.5789C21.0286 41.5789 16.3158 46.2917 16.3158 52.1053C16.3158 57.9188 21.0286 62.6316 26.8421 62.6316Z" fill="#2E7BBE"/>
<path d="M73.1579 66.8421C63.8568 66.8421 56.3158 74.3832 56.3158 83.6842V87.7326C56.3158 88.9853 57.3305 90 58.5832 90H87.7326C88.9853 90 90 88.9853 90 87.7326V83.6842C90 74.3832 82.459 66.8421 73.1579 66.8421Z" fill="url(#paint2_linear_289_6064)"/>
<path d="M26.8421 66.8421C17.5411 66.8421 10 74.3832 10 83.6842V87.7326C10 88.9853 11.0147 90 12.2674 90H41.4168C42.6695 90 43.6842 88.9853 43.6842 87.7326V83.6842C43.6842 74.3832 36.1432 66.8421 26.8421 66.8421Z" fill="#2E7BBE"/>
<path opacity="0.05" d="M52.1053 33.1579H45.7895V14.2105H56.3158V28.9474C56.3158 31.2737 54.4316 33.1579 52.1053 33.1579Z" fill="black"/>
<path opacity="0.07" d="M52.1053 32.1053H45.7895V14.2105H55.2632V28.9474C55.2632 30.6905 53.8484 32.1053 52.1053 32.1053Z" fill="black"/>
<path d="M52.1053 10H14.2105C13.0484 10 12.1053 10.9432 12.1053 12.1053V38.2063C12.1053 39.2484 13.4863 39.6168 14.0063 38.7158L18.4211 31.0526H52.1053C53.2674 31.0526 54.2106 30.1095 54.2106 28.9474V12.1053C54.2106 10.9432 53.2674 10 52.1053 10Z" fill="url(#paint3_linear_289_6064)"/>
<defs>
<linearGradient id="paint0_linear_289_6064" x1="45.7895" y1="28.8236" x2="87.8948" y2="28.8236" gradientUnits="userSpaceOnUse">
<stop stop-color="#FFD869"/>
<stop offset="0.765625" stop-color="#F2C032"/>
<stop offset="1" stop-color="#FFD869"/>
</linearGradient>
<linearGradient id="paint1_linear_289_6064" x1="68.0928" y1="40.3735" x2="82.5745" y2="55.6594" gradientUnits="userSpaceOnUse">
<stop stop-color="#FCFCFC"/>
<stop offset="0.495" stop-color="#F4F4F4"/>
<stop offset="0.946" stop-color="#E8E8E8"/>
<stop offset="1" stop-color="#E8E8E8"/>
</linearGradient>
<linearGradient id="paint2_linear_289_6064" x1="65.0537" y1="65.5161" x2="79.6451" y2="87.9186" gradientUnits="userSpaceOnUse">
<stop stop-color="#FCFCFC"/>
<stop offset="0.495" stop-color="#F4F4F4"/>
<stop offset="0.946" stop-color="#E8E8E8"/>
<stop offset="1" stop-color="#E8E8E8"/>
</linearGradient>
<linearGradient id="paint3_linear_289_6064" x1="33.1579" y1="9.9387" x2="33.1579" y2="39.1206" gradientUnits="userSpaceOnUse">
<stop stop-color="#2AA4F4"/>
<stop offset="1" stop-color="#007AD9"/>
</linearGradient>
</defs>
</svg>
