<svg width="400" height="400" viewBox="0 0 400 400" fill="none" xmlns="http://www.w3.org/2000/svg">
<g clip-path="url(#clip0_3_193)">
<path d="M86 400H13.3828C11.6249 400.001 9.88396 399.665 8.25957 399.01C6.63519 398.356 5.15928 397.395 3.91629 396.184C2.6733 394.972 1.68753 393.534 1.01557 391.952C0.343535 390.37 -0.00153642 388.673 5.14231e-06 386.961V59H72.629V386.961C72.6277 388.673 72.9722 390.368 73.6436 391.95C74.315 393.531 75.2994 394.97 76.541 396.18C77.7833 397.39 79.2578 398.351 80.8806 399.007C82.5035 399.663 84.2431 400 86 400Z" fill="white"/>
<path d="M86 400H13.3828C11.6249 400.001 9.88396 399.665 8.25957 399.01C6.63519 398.356 5.15928 397.395 3.91629 396.184C2.6733 394.972 1.68753 393.534 1.01557 391.952C0.343535 390.37 -0.00153642 388.673 5.14231e-06 386.961V59H72.629V386.961C72.6277 388.673 72.9722 390.368 73.6436 391.95C74.315 393.531 75.2994 394.97 76.541 396.18C77.7833 397.39 79.2578 398.351 80.8806 399.007C82.5035 399.663 84.2431 400 86 400Z" fill="#E6EEF5"/>
<path d="M51.6747 156.25H24.7445C21.3507 156.25 18.5996 159.103 18.5996 162.622V190.546C18.5996 194.065 21.3507 196.918 24.7445 196.918H51.6747C55.0684 196.918 57.8195 194.065 57.8195 190.546V162.622C57.8195 159.103 55.0684 156.25 51.6747 156.25Z" fill="#FED86E" fill-opacity="0.76"/>
<path d="M51.6747 211.493H24.7445C21.3507 211.493 18.5996 214.345 18.5996 217.864V245.789C18.5996 249.308 21.3507 252.16 24.7445 252.16H51.6747C55.0684 252.16 57.8195 249.308 57.8195 245.789V217.864C57.8195 214.345 55.0684 211.493 51.6747 211.493Z" fill="#FED86E" fill-opacity="0.76"/>
<path d="M51.6747 266.735H24.7445C21.3507 266.735 18.5996 269.588 18.5996 273.106V301.031C18.5996 304.55 21.3507 307.402 24.7445 307.402H51.6747C55.0684 307.402 57.8195 304.55 57.8195 301.031V273.106C57.8195 269.588 55.0684 266.735 51.6747 266.735Z" fill="#FED86E" fill-opacity="0.76"/>
<path d="M52.2767 96.7739H25.3466C21.9528 96.7739 19.2017 99.6261 19.2017 103.146V131.07C19.2017 134.589 21.9528 137.442 25.3466 137.442H52.2767C55.6705 137.442 58.4216 134.589 58.4216 131.07V103.146C58.4216 99.6261 55.6705 96.7739 52.2767 96.7739Z" fill="#3586CB"/>
<path d="M0 15C0 6.71573 6.71573 0 15 0H382C391.941 0 400 8.05887 400 18V59H0V15Z" fill="#297CD2"/>
<path d="M0 15C0 6.71573 6.71573 0 15 0H382C391.941 0 400 8.05887 400 18V59H0V15Z" fill="black" fill-opacity="0.2"/>
<path d="M71 59H400V381.682C400 391.798 391.543 400 381.113 400H74.8776C72.736 400 71 398.316 71 396.239V59Z" fill="white" stroke="white" stroke-width="0.25"/>
<path d="M284.284 127.965V298.813C284.284 304.312 279.452 308.778 273.473 308.778H131.811C125.831 308.778 121 304.312 121 298.813V127.965C121 122.466 125.831 118 131.811 118H273.473C279.452 118 284.284 122.466 284.284 127.965Z" fill="white" fill-opacity="0.833333"/>
<path d="M284.284 127.965V298.813C284.284 304.312 279.452 308.778 273.473 308.778H131.811C125.831 308.778 121 304.312 121 298.813V127.965C121 122.466 125.831 118 131.811 118H273.473C279.452 118 284.284 122.466 284.284 127.965Z" fill="#E6EEF5"/>
<path d="M284.284 127.965V298.813C284.284 304.312 279.452 308.778 273.473 308.778H131.811C125.831 308.778 121 304.312 121 298.813V127.965C121 122.466 125.831 118 131.811 118H273.473C279.452 118 284.284 122.466 284.284 127.965Z" stroke="url(#paint0_linear_3_193)" stroke-width="0.15"/>
<path d="M284.284 127.965V298.813C284.284 304.312 279.452 308.778 273.473 308.778H131.811C125.831 308.778 121 304.312 121 298.813V127.965C121 122.466 125.831 118 131.811 118H273.473C279.452 118 284.284 122.466 284.284 127.965Z" stroke="#696969" stroke-opacity="0.8" stroke-width="0.15"/>
<path d="M178.641 157.859C178.641 163.356 173.808 167.824 167.83 167.824C161.852 167.824 157.018 163.356 157.018 157.859C157.018 152.362 161.852 147.894 167.83 147.894C173.808 147.894 178.641 152.362 178.641 157.859Z" fill="#3586CB" stroke="url(#paint1_linear_3_193)" stroke-width="0.15"/>
<path d="M149.816 188.997C149.816 179.138 157.838 171.146 167.738 171.146C177.637 171.146 185.661 179.138 185.661 188.997V197.367C185.661 199.299 184.084 200.869 182.144 200.869H153.332C151.392 200.869 149.816 199.299 149.816 197.367V188.997Z" fill="#3586CB" stroke="url(#paint2_linear_3_193)" stroke-width="0.15"/>
<path d="M153.606 233.574H235.333C238.3 233.574 240.696 235.794 240.696 238.513C240.696 241.234 238.3 243.454 235.333 243.454H153.606C150.639 243.454 148.242 241.234 148.242 238.513C148.242 235.794 150.639 233.574 153.606 233.574Z" fill="#3586CB" stroke="url(#paint3_linear_3_193)" stroke-width="0.15"/>
<path d="M153.606 213.475H251.678C254.646 213.475 257.042 215.694 257.042 218.414C257.042 221.135 254.646 223.354 251.678 223.354H153.606C150.639 223.354 148.242 221.135 148.242 218.414C148.242 215.694 150.639 213.475 153.606 213.475Z" fill="#3586CB" stroke="url(#paint4_linear_3_193)" stroke-width="0.15"/>
<path d="M153.606 273.774H235.333C238.3 273.774 240.696 275.994 240.696 278.715C240.696 281.434 238.3 283.654 235.333 283.654H153.606C150.639 283.654 148.242 281.434 148.242 278.715C148.242 275.994 150.639 273.774 153.606 273.774Z" fill="#3586CB" stroke="url(#paint5_linear_3_193)" stroke-width="0.15"/>
<path d="M153.606 253.675H235.333C238.3 253.675 240.696 255.893 240.696 258.614C240.696 261.334 238.3 263.553 235.333 263.553H153.606C150.639 263.553 148.242 261.334 148.242 258.614C148.242 255.893 150.639 253.675 153.606 253.675Z" fill="#3586CB" stroke="url(#paint6_linear_3_193)" stroke-width="0.15"/>
<path d="M208.091 173.275H251.678C254.646 173.275 257.041 175.494 257.041 178.214C257.041 180.935 254.646 183.153 251.678 183.153H208.091C205.123 183.153 202.727 180.935 202.727 178.214C202.727 175.494 205.123 173.275 208.091 173.275Z" fill="#3586CB" stroke="url(#paint7_linear_3_193)" stroke-width="0.15"/>
<path d="M208.091 153.175H251.678C254.646 153.175 257.041 155.394 257.041 158.115C257.041 160.834 254.646 163.054 251.678 163.054H208.091C205.123 163.054 202.727 160.834 202.727 158.115C202.727 155.394 205.123 153.175 208.091 153.175Z" fill="#3586CB" stroke="url(#paint8_linear_3_193)" stroke-width="0.15"/>
<path d="M350 281.107V281.112V281.119V281.126V281.134V281.141V281.149V281.158V281.166V281.175V281.183V281.192V281.202V281.211V281.221V281.232V281.242V281.252V281.264V281.274V281.285V281.297V281.309V281.32V281.333V281.345V281.358V281.371V281.384V281.398V281.41V281.424V281.439V281.452V281.467V281.482V281.497V281.512V281.526V281.542V281.558V281.574V281.59V281.606V281.623V281.639V281.656V281.673V281.69V281.708V281.726V281.744V281.762V281.78V281.798V281.818V281.836V281.855V281.875V281.894V281.913V281.934V281.953V281.974V281.994V282.015V282.035V282.057V282.077V282.099V282.12V282.142V282.164V282.185V282.208V282.23V282.252V282.275V282.298V282.321V282.343V282.367V282.391V282.414V282.438V282.462V282.487V282.511V282.535V282.56V282.585V282.61V282.635V282.66V282.685V282.711V282.736V282.762V282.788V282.814V282.841V282.867V282.894V282.92V282.948V282.974V283.001V283.028V283.056V283.083V283.111V283.139V283.167V283.194V283.223V283.251V283.28V283.308V283.337V283.366V283.395V283.424V283.453V283.482V283.512V283.541V283.571V283.601V283.631V283.661V283.692V283.721V283.752V283.783V283.813V283.844V283.875V283.906V283.936V283.967V283.999V284.03V284.061V284.093V284.125V284.156V284.188V284.22V284.253V284.284V284.316V284.348V284.381V284.413V284.446V284.479V284.512V284.544V284.577V284.61V284.643V284.676V284.71V284.743V284.776V284.81V284.843V284.877V284.91V284.944V284.978V285.013V285.046V285.08V285.114V285.148V285.182V285.217V285.252V285.286V285.32V285.355V285.389V285.423V285.459V285.494V285.528V285.563V285.599V285.633V285.668V285.703V285.739V285.774V285.809V285.844V285.88V285.915V285.95V285.985V286.021V286.056V286.092V286.128V286.163V286.198V286.235V286.27V286.306V286.342V286.378V286.413V286.45V286.485V286.521V286.557V286.593V286.628V286.665V286.701V286.736V286.773V286.809V286.846V286.881V286.917V286.954V286.99V287.025V287.062V287.098V287.135V287.17V287.206V287.243V287.279V287.316V287.351V287.387V287.424V287.46V287.496V287.532V287.568V287.605V287.641V287.677V287.713V287.749V287.785V287.821V287.857V287.894V287.93V287.965V288.002V288.038V288.073V288.11V288.145V288.181V288.217V288.253V288.288V288.325V288.36V288.396V288.432V288.467V288.503V288.539V288.574V288.609V288.646V288.681V288.716V288.751V288.787V288.822V288.857V288.893V288.928V288.963V288.997V289.032V289.068V289.103V289.137V289.172V289.207V289.242V289.276V289.311V289.345V289.379V289.414V289.449V289.483V289.517V289.551V289.585V289.62V289.653V289.687V289.721V289.754V289.788V289.822V289.855V289.888V289.922V289.955V289.988V290.021V290.054V290.087V290.12V290.153V290.185V290.218V290.251V290.283V290.316V290.348V290.38V290.411V290.443V290.475V290.507V290.539V290.571V290.603V290.633V290.665V290.696V290.727V290.757V290.789V290.82V290.851V290.88V290.911V290.942V290.971V291.002V291.032V291.061V291.091V291.12V291.15V291.179V291.209V291.238V291.267V291.296V291.325V291.354V291.382V291.41V291.439V291.466V291.495V291.522V291.55V291.578V291.605V291.632V291.66V291.687V291.713V291.74V291.767V291.794V291.82V291.846V291.872V291.897V291.924V291.95V291.975V292V292.025V292.05V292.075V292.1V292.124V292.149V292.173V292.197V292.221V292.244V292.268V292.291V292.315V292.338V292.361V292.383V292.406V292.428V292.45V292.472V292.495V292.516V292.537V292.559V292.58V292.601V292.622V292.643V292.663V292.683V292.703V292.723V292.743V292.762V292.781V292.801V292.819V292.838V292.857V292.875V292.893V292.911V292.929V292.946V292.964V292.982V292.999V293.015V293.032V293.048V293.064V293.08V293.096V293.111V293.126V293.142V293.157V293.172V293.185V293.2V293.214V293.228V293.241V293.255V293.268V293.281V293.294V293.306V293.319V293.331V293.342V293.354V293.365V293.377V293.388V293.398V293.408V293.419V293.429V293.438V293.448V293.457V293.466V293.476V293.484V293.491V293.499V293.507V293.515V293.522V293.53V293.537V293.543V293.55V293.555V293.561V293.567V293.572V293.577V293.583V293.586V293.59V293.595V293.598V293.602V293.605V293.609C350 294.534 349.39 295.431 348.248 296.261C347.108 297.09 345.451 297.84 343.399 298.472C339.292 299.733 333.613 300.515 327.338 300.515C321.064 300.515 315.386 299.733 311.28 298.472C309.226 297.84 307.57 297.09 306.43 296.261C305.288 295.431 304.678 294.534 304.678 293.609V293.605V293.602V293.598V293.595V293.59V293.586V293.583V293.577V293.572V293.567V293.561V293.555V293.55V293.543V293.537V293.53V293.522V293.515V293.507V293.499V293.491V293.484V293.476V293.466V293.457V293.448V293.438V293.429V293.419V293.408V293.398V293.388V293.377V293.365V293.354V293.342V293.331V293.319V293.306V293.294V293.281V293.268V293.255V293.241V293.228V293.214V293.2V293.185V293.172V293.157V293.142V293.126V293.111V293.096V293.08V293.064V293.048V293.032V293.015V292.999V292.982V292.964V292.946V292.929V292.911V292.893V292.875V292.857V292.838V292.819V292.801V292.781V292.762V292.743V292.723V292.703V292.683V292.663V292.643V292.622V292.601V292.58V292.559V292.537V292.516V292.495V292.472V292.45V292.428V292.406V292.383V292.361V292.338V292.315V292.291V292.268V292.244V292.221V292.197V292.173V292.149V292.124V292.1V292.075V292.05V292.025V292V291.975V291.95V291.924V291.897V291.872V291.846V291.82V291.794V291.767V291.74V291.713V291.687V291.66V291.632V291.605V291.578V291.55V291.522V291.495V291.466V291.439V291.41V291.382V291.354V291.325V291.296V291.267V291.238V291.209V291.179V291.15V291.12V291.091V291.061V291.032V291.002V290.971V290.942V290.911V290.88V290.851V290.82V290.789V290.757V290.727V290.696V290.665V290.633V290.603V290.571V290.539V290.507V290.475V290.443V290.411V290.38V290.348V290.316V290.283V290.251V290.218V290.185V290.153V290.12V290.087V290.054V290.021V289.988V289.955V289.922V289.888V289.855V289.822V289.788V289.754V289.721V289.687V289.653V289.62V289.585V289.551V289.517V289.483V289.449V289.414V289.379V289.345V289.311V289.276V289.242V289.207V289.172V289.137V289.103V289.068V289.032V288.997V288.963V288.928V288.893V288.857V288.822V288.787V288.751V288.716V288.681V288.646V288.609V288.574V288.539V288.503V288.467V288.432V288.396V288.36V288.325V288.288V288.253V288.217V288.181V288.145V288.11V288.073V288.038V288.002V287.965V287.93V287.894V287.857V287.821V287.785V287.749V287.713V287.677V287.641V287.605V287.568V287.532V287.496V287.46V287.424V287.387V287.351V287.316V287.279V287.243V287.206V287.17V287.135V287.098V287.062V287.025V286.99V286.954V286.917V286.881V286.846V286.809V286.773V286.736V286.701V286.665V286.628V286.593V286.557V286.521V286.485V286.45V286.413V286.378V286.342V286.306V286.27V286.235V286.198V286.163V286.128V286.092V286.056V286.021V285.985V285.95V285.915V285.88V285.844V285.809V285.774V285.739V285.703V285.668V285.633V285.599V285.563V285.528V285.494V285.459V285.423V285.389V285.355V285.32V285.286V285.252V285.217V285.182V285.148V285.114V285.08V285.046V285.013V284.978V284.944V284.91V284.877V284.843V284.81V284.776V284.743V284.71V284.676V284.643V284.61V284.577V284.544V284.512V284.479V284.446V284.413V284.381V284.348V284.316V284.284V284.253V284.22V284.188V284.156V284.125V284.093V284.061V284.03V283.999V283.967V283.936V283.906V283.875V283.844V283.813V283.783V283.752V283.721V283.692V283.661V283.631V283.601V283.571V283.541V283.512V283.482V283.453V283.424V283.395V283.366V283.337V283.308V283.28V283.251V283.223V283.194V283.167V283.139V283.111V283.083V283.056V283.028V283.001V282.974V282.948V282.92V282.894V282.867V282.841V282.814V282.788V282.762V282.736V282.711V282.685V282.66V282.635V282.61V282.585V282.56V282.535V282.511V282.487V282.462V282.438V282.414V282.391V282.367V282.343V282.321V282.298V282.275V282.252V282.23V282.208V282.185V282.164V282.142V282.12V282.099V282.077V282.057V282.035V282.015V281.994V281.974V281.953V281.934V281.913V281.894V281.875V281.855V281.836V281.818V281.798V281.78V281.762V281.744V281.726V281.708V281.69V281.673V281.656V281.639V281.623V281.606V281.59V281.574V281.558V281.542V281.526V281.512V281.497V281.482V281.467V281.452V281.439V281.424V281.41V281.398V281.384V281.371V281.358V281.345V281.333V281.32V281.309V281.297V281.285V281.274V281.264V281.252V281.242V281.232V281.221V281.211V281.202V281.192V281.183V281.175V281.166V281.158V281.149V281.141V281.134V281.126V281.119V281.112V281.107H350Z" fill="url(#paint9_linear_3_193)" stroke="url(#paint10_linear_3_193)" stroke-width="0.15"/>
<path d="M350 267.121V267.122V267.129V267.137V267.145V267.153V267.161V267.17V267.178V267.187V267.197V267.206V267.217V267.227V267.237V267.249V267.259V267.27V267.282V267.294V267.305V267.318V267.33V267.344V267.357V267.37V267.384V267.398V267.411V267.426V267.441V267.456V267.47V267.486V267.501V267.517V267.533V267.55V267.566V267.583V267.6V267.617V267.634V267.652V267.671V267.689V267.707V267.725V267.745V267.763V267.782V267.802V267.822V267.841V267.862V267.882V267.903V267.923V267.945V267.966V267.987V268.01V268.031V268.053V268.076V268.098V268.121V268.144V268.167V268.19V268.213V268.237V268.261V268.285V268.31V268.334V268.359V268.384V268.409V268.434V268.459V268.485V268.51V268.537V268.563V268.59V268.616V268.642V268.67V268.697V268.724V268.752V268.779V268.807V268.835V268.863V268.892V268.92V268.948V268.977V269.006V269.035V269.064V269.094V269.124V269.153V269.183V269.214V269.244V269.274V269.305V269.335V269.366V269.397V269.429V269.459V269.491V269.523V269.555V269.587V269.619V269.65V269.682V269.715V269.747V269.78V269.813V269.846V269.879V269.912V269.946V269.979V270.012V270.046V270.081V270.115V270.149V270.183V270.217V270.251V270.286V270.321V270.356V270.39V270.425V270.461V270.496V270.531V270.566V270.603V270.638V270.673V270.71V270.745V270.781V270.818V270.854V270.891V270.927V270.963V271V271.037V271.074V271.11V271.148V271.185V271.222V271.259V271.297V271.334V271.372V271.409V271.447V271.485V271.522V271.561V271.598V271.637V271.675V271.713V271.751V271.79V271.828V271.867V271.904V271.943V271.982V272.02V272.059V272.099V272.138V272.176V272.215V272.255V272.294V272.333V272.372V272.412V272.451V272.49V272.529V272.569V272.609V272.649V272.687V272.727V272.767V272.807V272.847V272.886V272.926V272.966V273.006V273.046V273.085V273.125V273.165V273.205V273.246V273.286V273.326V273.365V273.406V273.446V273.486V273.526V273.567V273.607V273.648V273.687V273.727V273.768V273.808V273.848V273.889V273.929V273.97V274.009V274.049V274.09V274.13V274.171V274.211V274.251V274.291V274.331V274.372V274.412V274.452V274.493V274.533V274.573V274.614V274.653V274.693V274.733V274.774V274.814V274.854V274.893V274.933V274.973V275.014V275.054V275.094V275.133V275.173V275.213V275.253V275.293V275.331V275.371V275.411V275.451V275.491V275.529V275.569V275.609V275.648V275.688V275.726V275.766V275.805V275.843V275.883V275.922V275.961V275.999V276.038V276.077V276.115V276.154V276.193V276.231V276.27V276.309V276.346V276.385V276.423V276.461V276.499V276.538V276.575V276.613V276.65V276.688V276.725V276.763V276.8V276.838V276.875V276.912V276.949V276.986V277.023V277.06V277.096V277.133V277.169V277.205V277.242V277.278V277.315V277.351V277.386V277.423V277.458V277.493V277.529V277.565V277.6V277.636V277.67V277.705V277.74V277.774V277.81V277.844V277.878V277.912V277.946V277.98V278.014V278.049V278.082V278.116V278.149V278.182V278.215V278.248V278.281V278.314V278.347V278.378V278.41V278.443V278.475V278.507V278.539V278.571V278.602V278.633V278.664V278.696V278.727V278.757V278.788V278.818V278.848V278.878V278.909V278.938V278.968V278.997V279.027V279.055V279.085V279.113V279.142V279.172V279.199V279.227V279.256V279.283V279.311V279.339V279.366V279.393V279.42V279.447V279.473V279.499V279.527V279.552V279.578V279.604V279.629V279.654V279.68V279.704V279.729V279.754V279.778V279.802V279.827V279.85V279.874V279.897V279.92V279.943V279.966V279.988V280.011V280.033V280.054V280.077V280.098V280.119V280.141V280.161V280.182V280.202V280.223V280.243V280.263V280.282V280.301V280.321V280.34V280.358V280.376V280.395V280.413V280.431V280.448V280.465V280.482V280.499V280.516V280.532V280.548V280.564V280.58V280.596V280.611V280.626V280.64V280.655V280.669V280.683V280.696V280.71V280.723V280.736V280.749V280.761V280.774V280.785V280.796V280.808V280.819V280.83V280.841V280.851V280.861V280.87V280.881V280.89V280.899V280.907V280.916V280.924V280.932V280.939V280.946V280.953V280.96V280.967V280.973V280.978V280.984V280.99V280.994V280.999V281.003V281.008V281.011V281.015V281.018V281.022C350 281.947 349.39 282.844 348.248 283.675C347.108 284.503 345.451 285.253 343.399 285.885C339.292 287.148 333.613 287.929 327.338 287.929C321.064 287.929 315.386 287.148 311.28 285.885C309.226 285.253 307.57 284.503 306.43 283.675C305.288 282.844 304.678 281.947 304.678 281.022V281.018V281.015V281.011V281.008V281.003V280.999V280.994V280.99V280.984V280.978V280.973V280.967V280.96V280.953V280.946V280.939V280.932V280.924V280.916V280.907V280.899V280.89V280.881V280.87V280.861V280.851V280.841V280.83V280.819V280.808V280.796V280.785V280.774V280.761V280.749V280.736V280.723V280.71V280.696V280.683V280.669V280.655V280.64V280.626V280.611V280.596V280.58V280.564V280.548V280.532V280.516V280.499V280.482V280.465V280.448V280.431V280.413V280.395V280.376V280.358V280.34V280.321V280.301V280.282V280.263V280.243V280.223V280.202V280.182V280.161V280.141V280.119V280.098V280.077V280.054V280.033V280.011V279.988V279.966V279.943V279.92V279.897V279.874V279.85V279.827V279.802V279.778V279.754V279.729V279.704V279.68V279.654V279.629V279.604V279.578V279.552V279.527V279.499V279.473V279.447V279.42V279.393V279.366V279.339V279.311V279.283V279.256V279.227V279.199V279.172V279.142V279.113V279.085V279.055V279.027V278.997V278.968V278.938V278.909V278.878V278.848V278.818V278.788V278.757V278.727V278.696V278.664V278.633V278.602V278.571V278.539V278.507V278.475V278.443V278.41V278.378V278.347V278.314V278.281V278.248V278.215V278.182V278.149V278.116V278.082V278.049V278.014V277.98V277.946V277.912V277.878V277.844V277.81V277.774V277.74V277.705V277.67V277.636V277.6V277.565V277.529V277.493V277.458V277.423V277.386V277.351V277.315V277.278V277.242V277.205V277.169V277.133V277.096V277.06V277.023V276.986V276.949V276.912V276.875V276.838V276.8V276.763V276.725V276.688V276.65V276.613V276.575V276.538V276.499V276.461V276.423V276.385V276.346V276.309V276.27V276.231V276.193V276.154V276.115V276.077V276.038V275.999V275.961V275.922V275.883V275.843V275.805V275.766V275.726V275.688V275.648V275.609V275.569V275.529V275.491V275.451V275.411V275.371V275.331V275.293V275.253V275.213V275.173V275.133V275.094V275.054V275.014V274.973V274.933V274.893V274.854V274.814V274.774V274.733V274.693V274.653V274.614V274.573V274.533V274.493V274.452V274.412V274.372V274.331V274.291V274.251V274.211V274.171V274.13V274.09V274.049V274.009V273.97V273.929V273.889V273.848V273.808V273.768V273.727V273.687V273.648V273.607V273.567V273.526V273.486V273.446V273.406V273.365V273.326V273.286V273.246V273.205V273.165V273.125V273.085V273.046V273.006V272.966V272.926V272.886V272.847V272.807V272.767V272.727V272.687V272.649V272.609V272.569V272.529V272.49V272.451V272.412V272.372V272.333V272.294V272.255V272.215V272.176V272.138V272.099V272.059V272.02V271.982V271.943V271.904V271.867V271.828V271.79V271.751V271.713V271.675V271.637V271.598V271.561V271.522V271.485V271.447V271.409V271.372V271.334V271.297V271.259V271.222V271.185V271.148V271.11V271.074V271.037V271V270.963V270.927V270.891V270.854V270.818V270.781V270.745V270.71V270.673V270.638V270.603V270.566V270.531V270.496V270.461V270.425V270.39V270.356V270.321V270.286V270.251V270.217V270.183V270.149V270.115V270.081V270.046V270.012V269.979V269.946V269.912V269.879V269.846V269.813V269.78V269.747V269.715V269.682V269.65V269.619V269.587V269.555V269.523V269.491V269.459V269.429V269.397V269.366V269.335V269.305V269.274V269.244V269.214V269.183V269.153V269.124V269.094V269.064V269.035V269.006V268.977V268.948V268.92V268.892V268.863V268.835V268.807V268.779V268.752V268.724V268.697V268.67V268.642V268.616V268.59V268.563V268.537V268.51V268.485V268.459V268.434V268.409V268.384V268.359V268.334V268.31V268.285V268.261V268.237V268.213V268.19V268.167V268.144V268.121V268.098V268.076V268.053V268.031V268.01V267.987V267.966V267.945V267.923V267.903V267.882V267.862V267.841V267.822V267.802V267.782V267.763V267.745V267.725V267.707V267.689V267.671V267.652V267.634V267.617V267.6V267.583V267.566V267.55V267.533V267.517V267.501V267.486V267.47V267.456V267.441V267.426V267.411V267.398V267.384V267.37V267.357V267.344V267.33V267.318V267.305V267.294V267.282V267.27V267.259V267.249V267.237V267.227V267.217V267.206V267.197V267.187V267.178V267.17V267.161V267.153V267.145V267.137V267.129V267.122V267.121H350Z" fill="url(#paint11_linear_3_193)" stroke="url(#paint12_linear_3_193)" stroke-width="0.15"/>
<path d="M350 253.835V253.838V253.845V253.853V253.86V253.868V253.877V253.885V253.894V253.902V253.911V253.921V253.93V253.941V253.951V253.961V253.972V253.983V253.994V254.005V254.017V254.029V254.042V254.053V254.067V254.079V254.092V254.106V254.119V254.133V254.148V254.161V254.176V254.191V254.206V254.222V254.236V254.252V254.268V254.284V254.3V254.317V254.334V254.351V254.368V254.385V254.404V254.421V254.439V254.457V254.476V254.495V254.514V254.533V254.553V254.572V254.591V254.612V254.631V254.652V254.672V254.694V254.714V254.736V254.756V254.778V254.8V254.822V254.844V254.867V254.888V254.911V254.934V254.958V254.98V255.004V255.027V255.051V255.075V255.1V255.124V255.149V255.173V255.198V255.223V255.248V255.273V255.299V255.324V255.35V255.376V255.403V255.429V255.456V255.482V255.51V255.536V255.563V255.59V255.618V255.646V255.673V255.702V255.729V255.758V255.786V255.814V255.843V255.873V255.901V255.931V255.96V255.989V256.018V256.048V256.078V256.108V256.138V256.168V256.199V256.229V256.259V256.29V256.322V256.353V256.383V256.415V256.446V256.478V256.51V256.542V256.573V256.605V256.637V256.669V256.702V256.734V256.767V256.8V256.832V256.865V256.898V256.931V256.965V256.998V257.031V257.065V257.098V257.132V257.166V257.2V257.234V257.269V257.303V257.337V257.371V257.405V257.44V257.475V257.51V257.544V257.579V257.614V257.65V257.685V257.72V257.756V257.791V257.826V257.863V257.898V257.933V257.969V258.005V258.041V258.078V258.113V258.149V258.186V258.222V258.258V258.295V258.331V258.368V258.404V258.442V258.478V258.514V258.552V258.588V258.626V258.662V258.7V258.736V258.774V258.811V258.849V258.885V258.923V258.961V258.998V259.036V259.073V259.111V259.148V259.186V259.223V259.261V259.3V259.337V259.375V259.412V259.451V259.488V259.526V259.565V259.602V259.64V259.678V259.716V259.755V259.792V259.831V259.868V259.907V259.945V259.983V260.021V260.06V260.097V260.136V260.173V260.212V260.251V260.288V260.327V260.365V260.403V260.442V260.479V260.518V260.556V260.594V260.633V260.671V260.709V260.747V260.786V260.823V260.862V260.9V260.938V260.977V261.014V261.053V261.09V261.128V261.167V261.204V261.243V261.28V261.318V261.357V261.394V261.432V261.469V261.508V261.546V261.583V261.621V261.658V261.696V261.733V261.771V261.808V261.846V261.884V261.921V261.957V261.995V262.033V262.069V262.107V262.144V262.18V262.218V262.254V262.292V262.328V262.365V262.401V262.439V262.475V262.512V262.548V262.584V262.621V262.657V262.692V262.729V262.765V262.801V262.837V262.872V262.909V262.944V262.979V263.016V263.051V263.086V263.121V263.157V263.192V263.226V263.261V263.297V263.331V263.366V263.4V263.434V263.47V263.504V263.538V263.572V263.606V263.64V263.673V263.707V263.742V263.775V263.808V263.842V263.875V263.908V263.941V263.974V264.007V264.038V264.071V264.103V264.136V264.168V264.2V264.232V264.264V264.296V264.327V264.359V264.39V264.422V264.453V264.483V264.515V264.546V264.576V264.606V264.637V264.667V264.697V264.727V264.756V264.786V264.816V264.845V264.875V264.903V264.933V264.961V264.99V265.018V265.047V265.075V265.103V265.131V265.159V265.187V265.214V265.241V265.268V265.296V265.322V265.349V265.375V265.402V265.428V265.454V265.48V265.505V265.53V265.556V265.581V265.606V265.631V265.655V265.68V265.704V265.728V265.752V265.776V265.8V265.823V265.846V265.869V265.892V265.915V265.937V265.959V265.982V266.003V266.025V266.047V266.068V266.089V266.11V266.131V266.151V266.172V266.191V266.212V266.231V266.25V266.27V266.289V266.308V266.327V266.345V266.363V266.381V266.399V266.416V266.435V266.452V266.469V266.485V266.502V266.518V266.534V266.55V266.566V266.581V266.596V266.611V266.626V266.641V266.654V266.669V266.683V266.696V266.709V266.723V266.735V266.748V266.76V266.773V266.784V266.795V266.807V266.818V266.83V266.84V266.85V266.86V266.87V266.88V266.89V266.899V266.907V266.916V266.924V266.933V266.94V266.948V266.956V266.963V266.969V266.975V266.982V266.988V266.993V266.999V267.005V267.009V267.014V267.018V267.022V267.026V267.03V267.033V267.035C350 267.96 349.39 268.858 348.248 269.689C347.108 270.518 345.451 271.268 343.399 271.9C339.292 273.161 333.613 273.943 327.338 273.943C321.064 273.943 315.386 273.161 311.28 271.9C309.226 271.268 307.57 270.518 306.43 269.689C305.288 268.858 304.678 267.96 304.678 267.035V267.033V267.03V267.026V267.022V267.018V267.014V267.009V267.005V266.999V266.993V266.988V266.982V266.975V266.969V266.963V266.956V266.948V266.94V266.933V266.924V266.916V266.907V266.899V266.89V266.88V266.87V266.86V266.85V266.84V266.83V266.818V266.807V266.795V266.784V266.773V266.76V266.748V266.735V266.723V266.709V266.696V266.683V266.669V266.654V266.641V266.626V266.611V266.596V266.581V266.566V266.55V266.534V266.518V266.502V266.485V266.469V266.452V266.435V266.416V266.399V266.381V266.363V266.345V266.327V266.308V266.289V266.27V266.25V266.231V266.212V266.191V266.172V266.151V266.131V266.11V266.089V266.068V266.047V266.025V266.003V265.982V265.959V265.937V265.915V265.892V265.869V265.846V265.823V265.8V265.776V265.752V265.728V265.704V265.68V265.655V265.631V265.606V265.581V265.556V265.53V265.505V265.48V265.454V265.428V265.402V265.375V265.349V265.322V265.296V265.268V265.241V265.214V265.187V265.159V265.131V265.103V265.075V265.047V265.018V264.99V264.961V264.933V264.903V264.875V264.845V264.816V264.786V264.756V264.727V264.697V264.667V264.637V264.606V264.576V264.546V264.515V264.483V264.453V264.422V264.39V264.359V264.327V264.296V264.264V264.232V264.2V264.168V264.136V264.103V264.071V264.038V264.007V263.974V263.941V263.908V263.875V263.842V263.808V263.775V263.742V263.707V263.673V263.64V263.606V263.572V263.538V263.504V263.47V263.434V263.4V263.366V263.331V263.297V263.261V263.226V263.192V263.157V263.121V263.086V263.051V263.016V262.979V262.944V262.909V262.872V262.837V262.801V262.765V262.729V262.692V262.657V262.621V262.584V262.548V262.512V262.475V262.439V262.401V262.365V262.328V262.292V262.254V262.218V262.18V262.144V262.107V262.069V262.033V261.995V261.957V261.921V261.884V261.846V261.808V261.771V261.733V261.696V261.658V261.621V261.583V261.546V261.508V261.469V261.432V261.394V261.357V261.318V261.28V261.243V261.204V261.167V261.128V261.09V261.053V261.014V260.977V260.938V260.9V260.862V260.823V260.786V260.747V260.709V260.671V260.633V260.594V260.556V260.518V260.479V260.442V260.403V260.365V260.327V260.288V260.251V260.212V260.173V260.136V260.097V260.06V260.021V259.983V259.945V259.907V259.868V259.831V259.792V259.755V259.716V259.678V259.64V259.602V259.565V259.526V259.488V259.451V259.412V259.375V259.337V259.3V259.261V259.223V259.186V259.148V259.111V259.073V259.036V258.998V258.961V258.923V258.885V258.849V258.811V258.774V258.736V258.7V258.662V258.626V258.588V258.552V258.514V258.478V258.442V258.404V258.368V258.331V258.295V258.258V258.222V258.186V258.149V258.113V258.078V258.041V258.005V257.969V257.933V257.898V257.863V257.826V257.791V257.756V257.72V257.685V257.65V257.614V257.579V257.544V257.51V257.475V257.44V257.405V257.371V257.337V257.303V257.269V257.234V257.2V257.166V257.132V257.098V257.065V257.031V256.998V256.965V256.931V256.898V256.865V256.832V256.8V256.767V256.734V256.702V256.669V256.637V256.605V256.573V256.542V256.51V256.478V256.446V256.415V256.383V256.353V256.322V256.29V256.259V256.229V256.199V256.168V256.138V256.108V256.078V256.048V256.018V255.989V255.96V255.931V255.901V255.873V255.843V255.814V255.786V255.758V255.729V255.702V255.673V255.646V255.618V255.59V255.563V255.536V255.51V255.482V255.456V255.429V255.403V255.376V255.35V255.324V255.299V255.273V255.248V255.223V255.198V255.173V255.149V255.124V255.1V255.075V255.051V255.027V255.004V254.98V254.958V254.934V254.911V254.888V254.867V254.844V254.822V254.8V254.778V254.756V254.736V254.714V254.694V254.672V254.652V254.631V254.612V254.591V254.572V254.553V254.533V254.514V254.495V254.476V254.457V254.439V254.421V254.404V254.385V254.368V254.351V254.334V254.317V254.3V254.284V254.268V254.252V254.236V254.222V254.206V254.191V254.176V254.161V254.148V254.133V254.119V254.106V254.092V254.079V254.067V254.053V254.042V254.029V254.017V254.005V253.994V253.983V253.972V253.961V253.951V253.941V253.93V253.921V253.911V253.902V253.894V253.885V253.877V253.868V253.86V253.853V253.845V253.838V253.835H350Z" fill="url(#paint13_linear_3_193)" stroke="url(#paint14_linear_3_193)" stroke-width="0.15"/>
<path d="M350 253.75C350 254.574 349.396 255.379 348.251 256.128C347.111 256.874 345.454 257.549 343.401 258.118C339.293 259.255 333.615 259.958 327.338 259.958C321.064 259.958 315.385 259.255 311.277 258.118C309.224 257.549 307.567 256.874 306.427 256.128C305.282 255.379 304.678 254.574 304.678 253.75C304.678 252.925 305.282 252.121 306.427 251.372C307.567 250.626 309.224 249.951 311.277 249.382C315.385 248.245 321.064 247.542 327.338 247.542C333.615 247.542 339.293 248.245 343.401 249.382C345.454 249.951 347.111 250.626 348.251 251.372C349.396 252.121 350 252.925 350 253.75Z" fill="url(#paint15_linear_3_193)" stroke="url(#paint16_linear_3_193)" stroke-width="0.15"/>
<path d="M315.4 258.085H264.978C264.978 258.085 264.978 271.503 264.978 272.035C264.978 276.317 276.265 279.786 290.188 279.786C304.111 279.786 315.4 276.317 315.4 272.035C315.4 271.503 315.4 258.085 315.4 258.085Z" fill="url(#paint17_linear_3_193)" fill-opacity="0.1"/>
<path d="M315.314 258.17V258.171V258.178V258.186V258.192V258.2V258.21V258.217V258.227V258.236V258.245V258.255V258.264V258.274V258.285V258.296V258.306V258.318V258.329V258.341V258.353V258.365V258.378V258.39V258.404V258.417V258.43V258.444V258.459V258.472V258.487V258.502V258.517V258.532V258.547V258.563V258.579V258.595V258.611V258.628V258.645V258.662V258.679V258.698V258.715V258.733V258.751V258.77V258.789V258.808V258.827V258.847V258.866V258.885V258.906V258.926V258.947V258.967V258.988V259.009V259.031V259.053V259.074V259.096V259.117V259.14V259.163V259.186V259.208V259.232V259.255V259.279V259.303V259.327V259.351V259.375V259.4V259.425V259.45V259.475V259.5V259.525V259.551V259.577V259.603V259.629V259.656V259.682V259.709V259.735V259.763V259.79V259.817V259.846V259.873V259.901V259.929V259.957V259.986V260.014V260.044V260.072V260.102V260.13V260.16V260.189V260.219V260.25V260.279V260.31V260.339V260.37V260.401V260.432V260.463V260.494V260.525V260.557V260.589V260.619V260.651V260.684V260.716V260.748V260.781V260.813V260.846V260.879V260.912V260.945V260.978V261.011V261.044V261.078V261.111V261.145V261.179V261.213V261.247V261.282V261.316V261.35V261.385V261.419V261.455V261.49V261.525V261.559V261.594V261.631V261.666V261.701V261.737V261.773V261.808V261.845V261.881V261.916V261.953V261.989V262.026V262.062V262.1V262.136V262.172V262.21V262.246V262.284V262.322V262.358V262.395V262.433V262.471V262.508V262.546V262.583V262.621V262.659V262.697V262.735V262.773V262.811V262.849V262.888V262.926V262.964V263.003V263.042V263.08V263.119V263.158V263.196V263.235V263.274V263.313V263.352V263.391V263.43V263.47V263.508V263.548V263.587V263.627V263.665V263.705V263.745V263.784V263.823V263.863V263.902V263.942V263.982V264.021V264.061V264.101V264.141V264.181V264.22V264.26V264.3V264.34V264.38V264.42V264.459V264.499V264.54V264.58V264.62V264.66V264.699V264.74V264.78V264.82V264.86V264.9V264.941V264.981V265.02V265.06V265.101V265.141V265.181V265.221V265.262V265.301V265.341V265.381V265.422V265.462V265.502V265.541V265.581V265.621V265.662V265.702V265.742V265.782V265.821V265.861V265.901V265.941V265.981V266.02V266.06V266.1V266.14V266.18V266.218V266.258V266.298V266.338V266.378V266.416V266.456V266.495V266.535V266.575V266.613V266.652V266.692V266.73V266.77V266.809V266.848V266.886V266.925V266.965V267.004V267.042V267.08V267.118V267.157V267.196V267.235V267.272V267.311V267.349V267.387V267.425V267.463V267.501V267.538V267.577V267.615V267.652V267.69V267.727V267.764V267.801V267.839V267.876V267.913V267.95V267.987V268.023V268.059V268.097V268.133V268.17V268.206V268.241V268.278V268.314V268.35V268.386V268.421V268.458V268.493V268.528V268.563V268.599V268.634V268.669V268.703V268.739V268.773V268.808V268.842V268.876V268.911V268.945V268.979V269.013V269.046V269.08V269.113V269.146V269.18V269.213V269.246V269.278V269.311V269.344V269.376V269.409V269.441V269.473V269.504V269.536V269.568V269.599V269.631V269.661V269.693V269.724V269.755V269.785V269.815V269.846V269.875V269.906V269.936V269.965V269.995V270.024V270.053V270.082V270.111V270.14V270.169V270.197V270.225V270.253V270.28V270.309V270.336V270.363V270.391V270.418V270.444V270.472V270.498V270.524V270.55V270.576V270.601V270.627V270.652V270.677V270.703V270.728V270.753V270.776V270.8V270.825V270.848V270.872V270.896V270.919V270.943V270.965V270.988V271.01V271.032V271.054V271.076V271.097V271.119V271.141V271.161V271.183V271.203V271.224V271.243V271.263V271.283V271.302V271.321V271.341V271.359V271.378V271.397V271.415V271.433V271.45V271.467V271.485V271.501V271.518V271.535V271.551V271.567V271.583V271.599V271.614V271.629V271.643V271.658V271.673V271.687V271.7V271.714V271.728V271.741V271.754V271.766V271.779V271.791V271.803V271.814V271.826V271.837V271.847V271.857V271.868V271.878V271.888V271.897V271.906V271.915V271.925V271.932V271.94V271.948V271.956V271.963V271.97V271.977V271.984V271.989V271.995V272.001V272.006V272.011V272.016V272.02V272.025V272.028V272.033V272.035C315.314 273.066 314.635 274.062 313.367 274.984C312.102 275.903 310.267 276.735 307.99 277.435C303.438 278.833 297.144 279.7 290.188 279.7C283.233 279.7 276.939 278.833 272.387 277.435C270.111 276.735 268.274 275.903 267.009 274.984C265.742 274.062 265.063 273.066 265.063 272.035V272.033V272.028V272.025V272.02V272.016V272.011V272.006V272.001V271.995V271.989V271.984V271.977V271.97V271.963V271.956V271.948V271.94V271.932V271.925V271.915V271.906V271.897V271.888V271.878V271.868V271.857V271.847V271.837V271.826V271.814V271.803V271.791V271.779V271.766V271.754V271.741V271.728V271.714V271.7V271.687V271.673V271.658V271.643V271.629V271.614V271.599V271.583V271.567V271.551V271.535V271.518V271.501V271.485V271.467V271.45V271.433V271.415V271.397V271.378V271.359V271.341V271.321V271.302V271.283V271.263V271.243V271.224V271.203V271.183V271.161V271.141V271.119V271.097V271.076V271.054V271.032V271.01V270.988V270.965V270.943V270.919V270.896V270.872V270.848V270.825V270.8V270.776V270.753V270.728V270.703V270.677V270.652V270.627V270.601V270.576V270.55V270.524V270.498V270.472V270.444V270.418V270.391V270.363V270.336V270.309V270.28V270.253V270.225V270.197V270.169V270.14V270.111V270.082V270.053V270.024V269.995V269.965V269.936V269.906V269.875V269.846V269.815V269.785V269.755V269.724V269.693V269.661V269.631V269.599V269.568V269.536V269.504V269.473V269.441V269.409V269.376V269.344V269.311V269.278V269.246V269.213V269.18V269.146V269.113V269.08V269.046V269.013V268.979V268.945V268.911V268.876V268.842V268.808V268.773V268.739V268.703V268.669V268.634V268.599V268.563V268.528V268.493V268.458V268.421V268.386V268.35V268.314V268.278V268.241V268.206V268.17V268.133V268.097V268.059V268.023V267.987V267.95V267.913V267.876V267.839V267.801V267.764V267.727V267.69V267.652V267.615V267.577V267.538V267.501V267.463V267.425V267.387V267.349V267.311V267.272V267.235V267.196V267.157V267.118V267.08V267.042V267.004V266.965V266.925V266.886V266.848V266.809V266.77V266.73V266.692V266.652V266.613V266.575V266.535V266.495V266.456V266.416V266.378V266.338V266.298V266.258V266.218V266.18V266.14V266.1V266.06V266.02V265.981V265.941V265.901V265.861V265.821V265.782V265.742V265.702V265.662V265.621V265.581V265.541V265.502V265.462V265.422V265.381V265.341V265.301V265.262V265.221V265.181V265.141V265.101V265.06V265.02V264.981V264.941V264.9V264.86V264.82V264.78V264.74V264.699V264.66V264.62V264.58V264.54V264.499V264.459V264.42V264.38V264.34V264.3V264.26V264.22V264.181V264.141V264.101V264.061V264.021V263.982V263.942V263.902V263.863V263.823V263.784V263.745V263.705V263.665V263.627V263.587V263.548V263.508V263.47V263.43V263.391V263.352V263.313V263.274V263.235V263.196V263.158V263.119V263.08V263.042V263.003V262.964V262.926V262.888V262.849V262.811V262.773V262.735V262.697V262.659V262.621V262.583V262.546V262.508V262.471V262.433V262.395V262.358V262.322V262.284V262.246V262.21V262.172V262.136V262.1V262.062V262.026V261.989V261.953V261.916V261.881V261.845V261.808V261.773V261.737V261.701V261.666V261.631V261.594V261.559V261.525V261.49V261.455V261.419V261.385V261.35V261.316V261.282V261.247V261.213V261.179V261.145V261.111V261.078V261.044V261.011V260.978V260.945V260.912V260.879V260.846V260.813V260.781V260.748V260.716V260.684V260.651V260.619V260.589V260.557V260.525V260.494V260.463V260.432V260.401V260.37V260.339V260.31V260.279V260.25V260.219V260.189V260.16V260.13V260.102V260.072V260.044V260.014V259.986V259.957V259.929V259.901V259.873V259.846V259.817V259.79V259.763V259.735V259.709V259.682V259.656V259.629V259.603V259.577V259.551V259.525V259.5V259.475V259.45V259.425V259.4V259.375V259.351V259.327V259.303V259.279V259.255V259.232V259.208V259.186V259.163V259.14V259.117V259.096V259.074V259.053V259.031V259.009V258.988V258.967V258.947V258.926V258.906V258.885V258.866V258.847V258.827V258.808V258.789V258.77V258.751V258.733V258.715V258.698V258.679V258.662V258.645V258.628V258.611V258.595V258.579V258.563V258.547V258.532V258.517V258.502V258.487V258.472V258.459V258.444V258.43V258.417V258.404V258.39V258.378V258.365V258.353V258.341V258.329V258.318V258.306V258.296V258.285V258.274V258.264V258.255V258.245V258.236V258.227V258.217V258.21V258.2V258.192V258.186V258.178V258.171V258.17H315.314Z" stroke="url(#paint18_linear_3_193)" stroke-opacity="0.1" stroke-width="0.15"/>
<path d="M315.4 242.585H264.978C264.978 242.585 264.978 257.552 264.978 258.085C264.978 262.366 276.265 265.835 290.188 265.835C304.111 265.835 315.4 262.366 315.4 258.085C315.4 257.552 315.4 242.585 315.4 242.585Z" fill="url(#paint19_linear_3_193)" fill-opacity="0.1"/>
<path d="M315.314 242.67V242.672V242.68V242.688V242.697V242.705V242.714V242.723V242.732V242.742V242.753V242.763V242.774V242.784V242.796V242.807V242.82V242.832V242.845V242.857V242.87V242.883V242.897V242.911V242.926V242.94V242.955V242.97V242.985V243.001V243.017V243.033V243.05V243.066V243.083V243.101V243.118V243.136V243.154V243.172V243.191V243.21V243.228V243.248V243.268V243.287V243.308V243.328V243.349V243.369V243.391V243.411V243.433V243.456V243.477V243.5V243.523V243.546V243.568V243.592V243.615V243.639V243.663V243.688V243.712V243.737V243.762V243.787V243.812V243.838V243.863V243.889V243.915V243.943V243.969V243.996V244.024V244.051V244.078V244.105V244.134V244.162V244.191V244.219V244.248V244.277V244.307V244.335V244.365V244.396V244.425V244.456V244.485V244.516V244.547V244.579V244.61V244.641V244.672V244.704V244.736V244.768V244.801V244.833V244.866V244.899V244.932V244.964V244.997V245.032V245.065V245.099V245.133V245.167V245.201V245.236V245.271V245.306V245.34V245.375V245.411V245.447V245.482V245.517V245.554V245.59V245.627V245.662V245.7V245.736V245.772V245.81V245.846V245.884V245.921V245.959V245.996V246.034V246.072V246.11V246.148V246.186V246.225V246.264V246.303V246.341V246.38V246.42V246.458V246.498V246.537V246.577V246.617V246.656V246.696V246.736V246.776V246.816V246.857V246.896V246.937V246.978V247.019V247.059V247.1V247.142V247.183V247.224V247.265V247.307V247.348V247.39V247.431V247.473V247.515V247.558V247.6V247.642V247.684V247.726V247.768V247.81V247.853V247.895V247.939V247.981V248.024V248.066V248.109V248.153V248.196V248.239V248.282V248.326V248.369V248.412V248.455V248.498V248.542V248.586V248.629V248.673V248.717V248.76V248.805V248.848V248.892V248.937V248.98V249.024V249.069V249.113V249.156V249.201V249.245V249.289V249.334V249.378V249.422V249.467V249.511V249.556V249.6V249.644V249.689V249.733V249.779V249.823V249.867V249.912V249.956V250V250.046V250.09V250.135V250.179V250.225V250.269V250.313V250.358V250.402V250.448V250.492V250.536V250.581V250.626V250.671V250.715V250.759V250.804V250.849V250.894V250.938V250.982V251.027V251.071V251.115V251.16V251.204V251.249V251.293V251.337V251.382V251.426V251.47V251.515V251.559V251.604V251.647V251.691V251.736V251.779V251.823V251.868V251.911V251.955V251.998V252.042V252.086V252.129V252.172V252.217V252.26V252.303V252.347V252.39V252.433V252.476V252.519V252.563V252.605V252.648V252.691V252.733V252.777V252.819V252.861V252.904V252.946V252.988V253.03V253.072V253.115V253.157V253.199V253.241V253.282V253.324V253.365V253.407V253.448V253.489V253.531V253.572V253.613V253.654V253.694V253.735V253.776V253.815V253.856V253.896V253.936V253.977V254.017V254.057V254.096V254.135V254.175V254.215V254.253V254.292V254.332V254.371V254.409V254.448V254.487V254.524V254.563V254.601V254.639V254.677V254.714V254.752V254.789V254.827V254.863V254.901V254.937V254.975V255.011V255.048V255.084V255.119V255.156V255.192V255.227V255.263V255.298V255.333V255.369V255.404V255.438V255.473V255.507V255.541V255.576V255.61V255.643V255.677V255.71V255.743V255.776V255.809V255.842V255.875V255.907V255.939V255.97V256.002V256.034V256.066V256.097V256.127V256.158V256.189V256.22V256.25V256.28V256.311V256.34V256.37V256.398V256.428V256.456V256.485V256.513V256.542V256.57V256.597V256.626V256.653V256.68V256.708V256.734V256.76V256.787V256.814V256.839V256.865V256.89V256.915V256.94V256.965V256.99V257.014V257.038V257.062V257.085V257.109V257.132V257.155V257.178V257.2V257.222V257.244V257.266V257.287V257.308V257.329V257.351V257.371V257.39V257.411V257.43V257.45V257.469V257.488V257.506V257.525V257.543V257.561V257.578V257.596V257.613V257.629V257.646V257.662V257.678V257.694V257.71V257.725V257.74V257.754V257.768V257.783V257.797V257.81V257.823V257.836V257.849V257.86V257.873V257.884V257.896V257.907V257.918V257.929V257.939V257.949V257.958V257.967V257.976V257.985V257.993V258.001V258.009V258.017V258.024V258.031V258.038V258.043V258.049V258.055V258.061V258.065V258.07V258.074V258.078V258.082V258.084C315.314 259.115 314.635 260.112 313.367 261.034C312.102 261.953 310.267 262.785 307.99 263.484C303.438 264.884 297.144 265.75 290.188 265.75C283.233 265.75 276.939 264.884 272.387 263.484C270.111 262.785 268.274 261.953 267.009 261.034C265.742 260.112 265.063 259.115 265.063 258.084V258.082V258.078V258.074V258.07V258.065V258.061V258.055V258.049V258.043V258.038V258.031V258.024V258.017V258.009V258.001V257.993V257.985V257.976V257.967V257.958V257.949V257.939V257.929V257.918V257.907V257.896V257.884V257.873V257.86V257.849V257.836V257.823V257.81V257.797V257.783V257.768V257.754V257.74V257.725V257.71V257.694V257.678V257.662V257.646V257.629V257.613V257.596V257.578V257.561V257.543V257.525V257.506V257.488V257.469V257.45V257.43V257.411V257.39V257.371V257.351V257.329V257.308V257.287V257.266V257.244V257.222V257.2V257.178V257.155V257.132V257.109V257.085V257.062V257.038V257.014V256.99V256.965V256.94V256.915V256.89V256.865V256.839V256.814V256.787V256.76V256.734V256.708V256.68V256.653V256.626V256.597V256.57V256.542V256.513V256.485V256.456V256.428V256.398V256.37V256.34V256.311V256.28V256.25V256.22V256.189V256.158V256.127V256.097V256.066V256.034V256.002V255.97V255.939V255.907V255.875V255.842V255.809V255.776V255.743V255.71V255.677V255.643V255.61V255.576V255.541V255.507V255.473V255.438V255.404V255.369V255.333V255.298V255.263V255.227V255.192V255.156V255.119V255.084V255.048V255.011V254.975V254.937V254.901V254.863V254.827V254.789V254.752V254.714V254.677V254.639V254.601V254.563V254.524V254.487V254.448V254.409V254.371V254.332V254.292V254.253V254.215V254.175V254.135V254.096V254.057V254.017V253.977V253.936V253.896V253.856V253.815V253.776V253.735V253.694V253.654V253.613V253.572V253.531V253.489V253.448V253.407V253.365V253.324V253.282V253.241V253.199V253.157V253.115V253.072V253.03V252.988V252.946V252.904V252.861V252.819V252.777V252.733V252.691V252.648V252.605V252.563V252.519V252.476V252.433V252.39V252.347V252.303V252.26V252.217V252.172V252.129V252.086V252.042V251.998V251.955V251.911V251.868V251.823V251.779V251.736V251.691V251.647V251.604V251.559V251.515V251.47V251.426V251.382V251.337V251.293V251.249V251.204V251.16V251.115V251.071V251.027V250.982V250.938V250.894V250.849V250.804V250.759V250.715V250.671V250.626V250.581V250.536V250.492V250.448V250.402V250.358V250.313V250.269V250.225V250.179V250.135V250.09V250.046V250V249.956V249.912V249.867V249.823V249.779V249.733V249.689V249.644V249.6V249.556V249.511V249.467V249.422V249.378V249.334V249.289V249.245V249.201V249.156V249.113V249.069V249.024V248.98V248.937V248.892V248.848V248.805V248.76V248.717V248.673V248.629V248.586V248.542V248.498V248.455V248.412V248.369V248.326V248.282V248.239V248.196V248.153V248.109V248.066V248.024V247.981V247.939V247.895V247.853V247.81V247.768V247.726V247.684V247.642V247.6V247.558V247.515V247.473V247.431V247.39V247.348V247.307V247.265V247.224V247.183V247.142V247.1V247.059V247.019V246.978V246.937V246.896V246.857V246.816V246.776V246.736V246.696V246.656V246.617V246.577V246.537V246.498V246.458V246.42V246.38V246.341V246.303V246.264V246.225V246.186V246.148V246.11V246.072V246.034V245.996V245.959V245.921V245.884V245.846V245.81V245.772V245.736V245.7V245.662V245.627V245.59V245.554V245.517V245.482V245.447V245.411V245.375V245.34V245.306V245.271V245.236V245.201V245.167V245.133V245.099V245.065V245.032V244.997V244.964V244.932V244.899V244.866V244.833V244.801V244.768V244.736V244.704V244.672V244.641V244.61V244.579V244.547V244.516V244.485V244.456V244.425V244.396V244.365V244.335V244.307V244.277V244.248V244.219V244.191V244.162V244.134V244.105V244.078V244.051V244.024V243.996V243.969V243.943V243.915V243.889V243.863V243.838V243.812V243.787V243.762V243.737V243.712V243.688V243.663V243.639V243.615V243.592V243.568V243.546V243.523V243.5V243.477V243.456V243.433V243.411V243.391V243.369V243.349V243.328V243.308V243.287V243.268V243.248V243.228V243.21V243.191V243.172V243.154V243.136V243.118V243.101V243.083V243.066V243.05V243.033V243.017V243.001V242.985V242.97V242.955V242.94V242.926V242.911V242.897V242.883V242.87V242.857V242.845V242.832V242.82V242.807V242.796V242.784V242.774V242.763V242.753V242.742V242.732V242.723V242.714V242.705V242.697V242.688V242.68V242.672V242.67H315.314Z" stroke="url(#paint20_linear_3_193)" stroke-opacity="0.1" stroke-width="0.15"/>
<path d="M315.4 227.859H264.978C264.978 227.859 264.978 242.052 264.978 242.584C264.978 246.866 276.265 250.335 290.188 250.335C304.111 250.335 315.4 246.866 315.4 242.584C315.4 242.052 315.4 227.859 315.4 227.859Z" fill="url(#paint21_linear_3_193)" fill-opacity="0.2"/>
<path d="M315.314 227.944V227.95V227.957V227.965V227.974V227.982V227.991V228V228.009V228.018V228.028V228.039V228.049V228.06V228.07V228.082V228.093V228.106V228.118V228.13V228.143V228.156V228.169V228.182V228.197V228.21V228.224V228.239V228.254V228.268V228.284V228.3V228.316V228.332V228.348V228.365V228.382V228.399V228.416V228.433V228.452V228.47V228.488V228.506V228.526V228.545V228.564V228.584V228.603V228.623V228.644V228.664V228.685V228.706V228.727V228.749V228.77V228.792V228.815V228.836V228.859V228.882V228.904V228.928V228.951V228.975V228.999V229.023V229.048V229.072V229.097V229.122V229.147V229.172V229.198V229.223V229.249V229.275V229.301V229.329V229.355V229.382V229.41V229.437V229.464V229.491V229.52V229.548V229.576V229.605V229.634V229.662V229.692V229.72V229.75V229.779V229.809V229.84V229.869V229.9V229.93V229.96V229.991V230.023V230.054V230.084V230.116V230.148V230.18V230.212V230.244V230.275V230.308V230.341V230.373V230.406V230.439V230.473V230.506V230.539V230.574V230.608V230.641V230.675V230.709V230.744V230.778V230.812V230.848V230.883V230.918V230.952V230.988V231.024V231.059V231.095V231.131V231.166V231.203V231.239V231.276V231.312V231.348V231.385V231.422V231.459V231.496V231.534V231.57V231.608V231.645V231.683V231.72V231.759V231.797V231.834V231.873V231.912V231.949V231.988V232.027V232.065V232.104V232.143V232.181V232.221V232.26V232.298V232.338V232.378V232.417V232.457V232.496V232.536V232.576V232.616V232.656V232.696V232.735V232.776V232.816V232.856V232.897V232.937V232.978V233.019V233.06V233.099V233.14V233.181V233.222V233.263V233.304V233.345V233.386V233.428V233.469V233.51V233.552V233.593V233.634V233.676V233.717V233.759V233.801V233.842V233.885V233.927V233.968V234.01V234.052V234.094V234.136V234.177V234.219V234.261V234.303V234.345V234.387V234.43V234.472V234.514V234.557V234.599V234.641V234.683V234.725V234.767V234.81V234.853V234.895V234.937V234.979V235.021V235.064V235.107V235.149V235.191V235.234V235.276V235.318V235.36V235.403V235.446V235.488V235.53V235.573V235.615V235.657V235.699V235.741V235.784V235.827V235.869V235.911V235.953V235.995V236.037V236.079V236.121V236.164V236.206V236.248V236.29V236.332V236.374V236.415V236.457V236.499V236.541V236.582V236.624V236.666V236.707V236.75V236.79V236.833V236.874V236.916V236.957V236.998V237.04V237.081V237.122V237.163V237.203V237.244V237.285V237.326V237.367V237.408V237.448V237.489V237.53V237.57V237.611V237.651V237.69V237.731V237.771V237.811V237.851V237.891V237.931V237.97V238.01V238.05V238.089V238.129V238.167V238.207V238.246V238.284V238.324V238.363V238.402V238.44V238.479V238.517V238.555V238.594V238.631V238.67V238.708V238.745V238.783V238.82V238.858V238.895V238.933V238.971V239.007V239.044V239.081V239.117V239.154V239.19V239.226V239.263V239.299V239.335V239.371V239.406V239.442V239.478V239.513V239.548V239.583V239.618V239.653V239.687V239.721V239.756V239.791V239.824V239.858V239.892V239.926V239.959V239.992V240.025V240.058V240.091V240.124V240.157V240.189V240.221V240.254V240.286V240.318V240.348V240.38V240.411V240.443V240.474V240.504V240.535V240.566V240.595V240.626V240.656V240.685V240.715V240.744V240.773V240.802V240.831V240.859V240.888V240.916V240.945V240.972V241V241.028V241.055V241.082V241.108V241.136V241.162V241.188V241.214V241.24V241.267V241.292V241.317V241.342V241.367V241.392V241.416V241.441V241.465V241.488V241.512V241.535V241.559V241.582V241.605V241.626V241.649V241.67V241.693V241.715V241.735V241.757V241.777V241.799V241.82V241.839V241.859V241.879V241.899V241.917V241.937V241.956V241.974V241.992V242.011V242.029V242.046V242.063V242.08V242.097V242.114V242.13V242.146V242.162V242.178V242.193V242.208V242.222V242.237V242.252V242.266V242.279V242.293V242.305V242.319V242.332V242.344V242.355V242.368V242.379V242.391V242.401V242.412V242.423V242.433V242.442V242.452V242.461V242.47V242.478V242.487V242.495V242.503V242.51V242.518V242.525V242.532V242.537V242.544V242.55V242.555V242.56V242.565V242.569V242.574V242.577V242.581V242.584C315.314 243.614 314.635 244.612 313.367 245.532C312.102 246.453 310.267 247.283 307.99 247.983C303.438 249.382 297.144 250.249 290.188 250.249C283.233 250.249 276.939 249.382 272.387 247.983C270.111 247.283 268.274 246.453 267.009 245.532C265.742 244.612 265.063 243.614 265.063 242.584V242.581V242.577V242.574V242.569V242.565V242.56V242.555V242.55V242.544V242.537V242.532V242.525V242.518V242.51V242.503V242.495V242.487V242.478V242.47V242.461V242.452V242.442V242.433V242.423V242.412V242.401V242.391V242.379V242.368V242.355V242.344V242.332V242.319V242.305V242.293V242.279V242.266V242.252V242.237V242.222V242.208V242.193V242.178V242.162V242.146V242.13V242.114V242.097V242.08V242.063V242.046V242.029V242.011V241.992V241.974V241.956V241.937V241.917V241.899V241.879V241.859V241.839V241.82V241.799V241.777V241.757V241.735V241.715V241.693V241.67V241.649V241.626V241.605V241.582V241.559V241.535V241.512V241.488V241.465V241.441V241.416V241.392V241.367V241.342V241.317V241.292V241.267V241.24V241.214V241.188V241.162V241.136V241.108V241.082V241.055V241.028V241V240.972V240.945V240.916V240.888V240.859V240.831V240.802V240.773V240.744V240.715V240.685V240.656V240.626V240.595V240.566V240.535V240.504V240.474V240.443V240.411V240.38V240.348V240.318V240.286V240.254V240.221V240.189V240.157V240.124V240.091V240.058V240.025V239.992V239.959V239.926V239.892V239.858V239.824V239.791V239.756V239.721V239.687V239.653V239.618V239.583V239.548V239.513V239.478V239.442V239.406V239.371V239.335V239.299V239.263V239.226V239.19V239.154V239.117V239.081V239.044V239.007V238.971V238.933V238.895V238.858V238.82V238.783V238.745V238.708V238.67V238.631V238.594V238.555V238.517V238.479V238.44V238.402V238.363V238.324V238.284V238.246V238.207V238.167V238.129V238.089V238.05V238.01V237.97V237.931V237.891V237.851V237.811V237.771V237.731V237.69V237.651V237.611V237.57V237.53V237.489V237.448V237.408V237.367V237.326V237.285V237.244V237.203V237.163V237.122V237.081V237.04V236.998V236.957V236.916V236.874V236.833V236.79V236.75V236.707V236.666V236.624V236.582V236.541V236.499V236.457V236.415V236.374V236.332V236.29V236.248V236.206V236.164V236.121V236.079V236.037V235.995V235.953V235.911V235.869V235.827V235.784V235.741V235.699V235.657V235.615V235.573V235.53V235.488V235.446V235.403V235.36V235.318V235.276V235.234V235.191V235.149V235.107V235.064V235.021V234.979V234.937V234.895V234.853V234.81V234.767V234.725V234.683V234.641V234.599V234.557V234.514V234.472V234.43V234.387V234.345V234.303V234.261V234.219V234.177V234.136V234.094V234.052V234.01V233.968V233.927V233.885V233.842V233.801V233.759V233.717V233.676V233.634V233.593V233.552V233.51V233.469V233.428V233.386V233.345V233.304V233.263V233.222V233.181V233.14V233.099V233.06V233.019V232.978V232.937V232.897V232.856V232.816V232.776V232.735V232.696V232.656V232.616V232.576V232.536V232.496V232.457V232.417V232.378V232.338V232.298V232.26V232.221V232.181V232.143V232.104V232.065V232.027V231.988V231.949V231.912V231.873V231.834V231.797V231.759V231.72V231.683V231.645V231.608V231.57V231.534V231.496V231.459V231.422V231.385V231.348V231.312V231.276V231.239V231.203V231.166V231.131V231.095V231.059V231.024V230.988V230.952V230.918V230.883V230.848V230.812V230.778V230.744V230.709V230.675V230.641V230.608V230.574V230.539V230.506V230.473V230.439V230.406V230.373V230.341V230.308V230.275V230.244V230.212V230.18V230.148V230.116V230.084V230.054V230.023V229.991V229.96V229.93V229.9V229.869V229.84V229.809V229.779V229.75V229.72V229.692V229.662V229.634V229.605V229.576V229.548V229.52V229.491V229.464V229.437V229.41V229.382V229.355V229.329V229.301V229.275V229.249V229.223V229.198V229.172V229.147V229.122V229.097V229.072V229.048V229.023V228.999V228.975V228.951V228.928V228.904V228.882V228.859V228.836V228.815V228.792V228.77V228.749V228.727V228.706V228.685V228.664V228.644V228.623V228.603V228.584V228.564V228.545V228.526V228.506V228.488V228.47V228.452V228.433V228.416V228.399V228.382V228.365V228.348V228.332V228.316V228.3V228.284V228.268V228.254V228.239V228.224V228.21V228.197V228.182V228.169V228.156V228.143V228.13V228.118V228.106V228.093V228.082V228.07V228.06V228.049V228.039V228.028V228.018V228.009V228V227.991V227.982V227.974V227.965V227.957V227.95V227.944H315.314Z" stroke="url(#paint22_linear_3_193)" stroke-opacity="0.1" stroke-width="0.15"/>
<path d="M290.188 234.834C304.111 234.834 315.4 231.711 315.4 227.859C315.4 224.006 304.111 220.883 290.188 220.883C276.265 220.883 264.978 224.006 264.978 227.859C264.978 231.711 276.265 234.834 290.188 234.834Z" fill="url(#paint23_linear_3_193)" fill-opacity="0.5"/>
<path d="M315.314 227.859C315.314 228.777 314.641 229.672 313.371 230.502C312.106 231.33 310.269 232.079 307.993 232.709C303.439 233.969 297.145 234.748 290.188 234.748C283.232 234.748 276.937 233.969 272.384 232.709C270.107 232.079 268.271 231.33 267.006 230.502C265.737 229.672 265.063 228.777 265.063 227.859C265.063 226.941 265.737 226.045 267.006 225.215C268.271 224.387 270.107 223.639 272.384 223.008C276.937 221.749 283.232 220.968 290.188 220.968C297.145 220.968 303.439 221.749 307.993 223.008C310.269 223.639 312.106 224.387 313.371 225.215C314.641 226.045 315.314 226.941 315.314 227.859Z" stroke="url(#paint24_linear_3_193)" stroke-opacity="0.1" stroke-width="0.15"/>
<path d="M310.996 279.522C304.436 266.473 290.349 257.421 273.979 257.421C253.332 257.421 236.294 271.801 233.468 290.486C233.316 290.48 233.17 290.441 233.012 290.441C216.853 290.441 203.749 302.764 203.749 317.958C203.749 333.153 216.853 345.474 233.012 345.474C243.891 345.474 298.302 345.474 309.094 345.474C328.489 345.474 344.209 330.693 344.209 312.454C344.209 294.822 329.502 280.458 310.996 279.522Z" fill="url(#paint25_linear_3_193)"/>
</g>
<defs>
<linearGradient id="paint0_linear_3_193" x1="202.642" y1="117.915" x2="202.642" y2="308.863" gradientUnits="userSpaceOnUse">
<stop stop-color="#E6EEF5"/>
<stop offset="0.614583" stop-color="#EAF1F7" stop-opacity="0.833333"/>
<stop offset="0.994792" stop-color="white" stop-opacity="0"/>
</linearGradient>
<linearGradient id="paint1_linear_3_193" x1="167.83" y1="147.809" x2="167.83" y2="167.909" gradientUnits="userSpaceOnUse">
<stop stop-color="#E6EEF5"/>
<stop offset="0.614583" stop-color="#EAF1F7" stop-opacity="0.833333"/>
<stop offset="0.994792" stop-color="white" stop-opacity="0"/>
</linearGradient>
<linearGradient id="paint2_linear_3_193" x1="167.738" y1="171.06" x2="167.738" y2="200.955" gradientUnits="userSpaceOnUse">
<stop stop-color="#E6EEF5"/>
<stop offset="0.614583" stop-color="#EAF1F7" stop-opacity="0.833333"/>
<stop offset="0.994792" stop-color="white" stop-opacity="0"/>
</linearGradient>
<linearGradient id="paint3_linear_3_193" x1="194.469" y1="233.489" x2="194.469" y2="243.539" gradientUnits="userSpaceOnUse">
<stop stop-color="#E6EEF5"/>
<stop offset="0.614583" stop-color="#EAF1F7" stop-opacity="0.833333"/>
<stop offset="0.994792" stop-color="white" stop-opacity="0"/>
</linearGradient>
<linearGradient id="paint4_linear_3_193" x1="202.642" y1="213.39" x2="202.642" y2="223.439" gradientUnits="userSpaceOnUse">
<stop stop-color="#E6EEF5"/>
<stop offset="0.614583" stop-color="#EAF1F7" stop-opacity="0.833333"/>
<stop offset="0.994792" stop-color="white" stop-opacity="0"/>
</linearGradient>
<linearGradient id="paint5_linear_3_193" x1="194.469" y1="273.689" x2="194.469" y2="283.739" gradientUnits="userSpaceOnUse">
<stop stop-color="#E6EEF5"/>
<stop offset="0.614583" stop-color="#EAF1F7" stop-opacity="0.833333"/>
<stop offset="0.994792" stop-color="white" stop-opacity="0"/>
</linearGradient>
<linearGradient id="paint6_linear_3_193" x1="194.469" y1="253.589" x2="194.469" y2="263.638" gradientUnits="userSpaceOnUse">
<stop stop-color="#E6EEF5"/>
<stop offset="0.614583" stop-color="#EAF1F7" stop-opacity="0.833333"/>
<stop offset="0.994792" stop-color="white" stop-opacity="0"/>
</linearGradient>
<linearGradient id="paint7_linear_3_193" x1="229.884" y1="173.19" x2="229.884" y2="183.239" gradientUnits="userSpaceOnUse">
<stop stop-color="#E6EEF5"/>
<stop offset="0.614583" stop-color="#EAF1F7" stop-opacity="0.833333"/>
<stop offset="0.994792" stop-color="white" stop-opacity="0"/>
</linearGradient>
<linearGradient id="paint8_linear_3_193" x1="229.884" y1="153.089" x2="229.884" y2="163.139" gradientUnits="userSpaceOnUse">
<stop stop-color="#E6EEF5"/>
<stop offset="0.614583" stop-color="#EAF1F7" stop-opacity="0.833333"/>
<stop offset="0.994792" stop-color="white" stop-opacity="0"/>
</linearGradient>
<linearGradient id="paint9_linear_3_193" x1="304.593" y1="290.811" x2="350.085" y2="290.811" gradientUnits="userSpaceOnUse">
<stop stop-color="#11408A"/>
<stop offset="1" stop-color="#103F8F"/>
</linearGradient>
<linearGradient id="paint10_linear_3_193" x1="327.338" y1="281.021" x2="327.338" y2="300.6" gradientUnits="userSpaceOnUse">
<stop stop-color="#E6EEF5"/>
<stop offset="0.614583" stop-color="#EAF1F7" stop-opacity="0.833333"/>
<stop offset="0.994792" stop-color="white" stop-opacity="0"/>
</linearGradient>
<linearGradient id="paint11_linear_3_193" x1="304.593" y1="277.525" x2="350.085" y2="277.525" gradientUnits="userSpaceOnUse">
<stop stop-color="#1D59B3"/>
<stop offset="1" stop-color="#195BBC"/>
</linearGradient>
<linearGradient id="paint12_linear_3_193" x1="327.338" y1="267.036" x2="327.338" y2="288.015" gradientUnits="userSpaceOnUse">
<stop stop-color="#E6EEF5"/>
<stop offset="0.614583" stop-color="#EAF1F7" stop-opacity="0.833333"/>
<stop offset="0.994792" stop-color="white" stop-opacity="0"/>
</linearGradient>
<linearGradient id="paint13_linear_3_193" x1="304.593" y1="263.889" x2="350.085" y2="263.889" gradientUnits="userSpaceOnUse">
<stop stop-color="#3079D6"/>
<stop offset="1" stop-color="#297CD2"/>
</linearGradient>
<linearGradient id="paint14_linear_3_193" x1="327.338" y1="253.749" x2="327.338" y2="274.028" gradientUnits="userSpaceOnUse">
<stop stop-color="#E6EEF5"/>
<stop offset="0.614583" stop-color="#EAF1F7" stop-opacity="0.833333"/>
<stop offset="0.994792" stop-color="white" stop-opacity="0"/>
</linearGradient>
<linearGradient id="paint15_linear_3_193" x1="304.593" y1="253.75" x2="350.085" y2="253.75" gradientUnits="userSpaceOnUse">
<stop stop-color="#42A3F2"/>
<stop offset="1" stop-color="#42A4EB"/>
</linearGradient>
<linearGradient id="paint16_linear_3_193" x1="327.338" y1="247.457" x2="327.338" y2="260.043" gradientUnits="userSpaceOnUse">
<stop stop-color="#E6EEF5"/>
<stop offset="0.614583" stop-color="#EAF1F7" stop-opacity="0.833333"/>
<stop offset="0.994792" stop-color="white" stop-opacity="0"/>
</linearGradient>
<linearGradient id="paint17_linear_3_193" x1="264.978" y1="268.936" x2="315.4" y2="268.936" gradientUnits="userSpaceOnUse">
<stop stop-color="#11408A" stop-opacity="0.47"/>
<stop offset="0.5" stop-color="#103F8F" stop-opacity="0.08"/>
</linearGradient>
<linearGradient id="paint18_linear_3_193" x1="290.188" y1="258.084" x2="290.188" y2="279.786" gradientUnits="userSpaceOnUse">
<stop stop-color="#E6EEF5"/>
<stop offset="0.614583" stop-color="#EAF1F7" stop-opacity="0.833333"/>
<stop offset="0.994792" stop-color="white" stop-opacity="0"/>
</linearGradient>
<linearGradient id="paint19_linear_3_193" x1="264.978" y1="254.211" x2="315.4" y2="254.211" gradientUnits="userSpaceOnUse">
<stop stop-color="#1D59B3"/>
<stop offset="1" stop-color="#195BBC"/>
</linearGradient>
<linearGradient id="paint20_linear_3_193" x1="290.188" y1="242.584" x2="290.188" y2="265.835" gradientUnits="userSpaceOnUse">
<stop stop-color="#E6EEF5"/>
<stop offset="0.614583" stop-color="#EAF1F7" stop-opacity="0.833333"/>
<stop offset="0.994792" stop-color="white" stop-opacity="0"/>
</linearGradient>
<linearGradient id="paint21_linear_3_193" x1="264.978" y1="239.097" x2="315.4" y2="239.097" gradientUnits="userSpaceOnUse">
<stop stop-color="#3079D6"/>
<stop offset="1" stop-color="#297CD2"/>
</linearGradient>
<linearGradient id="paint22_linear_3_193" x1="290.188" y1="227.859" x2="290.188" y2="250.335" gradientUnits="userSpaceOnUse">
<stop stop-color="#E6EEF5"/>
<stop offset="0.614583" stop-color="#EAF1F7" stop-opacity="0.833333"/>
<stop offset="0.994792" stop-color="white" stop-opacity="0"/>
</linearGradient>
<linearGradient id="paint23_linear_3_193" x1="264.978" y1="227.859" x2="315.4" y2="227.859" gradientUnits="userSpaceOnUse">
<stop stop-color="#42A3F2"/>
<stop offset="1" stop-color="#42A4EB"/>
</linearGradient>
<linearGradient id="paint24_linear_3_193" x1="290.188" y1="220.883" x2="290.188" y2="234.833" gradientUnits="userSpaceOnUse">
<stop stop-color="#E6EEF5"/>
<stop offset="0.614583" stop-color="#EAF1F7" stop-opacity="0.833333"/>
<stop offset="0.994792" stop-color="white" stop-opacity="0"/>
</linearGradient>
<linearGradient id="paint25_linear_3_193" x1="253.384" y1="261.664" x2="283.189" y2="348.511" gradientUnits="userSpaceOnUse">
<stop stop-color="#2AA4F4"/>
<stop offset="1" stop-color="#007AD9"/>
</linearGradient>
<clipPath id="clip0_3_193">
<rect width="400" height="400" fill="white"/>
</clipPath>
</defs>
</svg>
