<svg width="301" height="301" viewBox="0 0 301 301" fill="none" xmlns="http://www.w3.org/2000/svg">
<path d="M53.25 44.25H300V286.261C300 293.849 293.658 300 285.834 300H56.1582C54.552 300 53.25 298.737 53.25 297.179V44.25Z" fill="white" stroke="white" stroke-width="0.25"/>
<path d="M64.5 300H10.0371C8.71865 300.001 7.41297 299.749 6.19468 299.257C4.97639 298.767 3.86946 298.046 2.93722 297.138C2.00498 296.229 1.26565 295.151 0.761677 293.964C0.257651 292.777 -0.00115232 291.504 3.85673e-06 290.221V44.25H54.4718V290.221C54.4708 291.504 54.7291 292.776 55.2327 293.962C55.7363 295.148 56.4745 296.227 57.4057 297.135C58.3375 298.043 59.4433 298.763 60.6604 299.255C61.8776 299.747 63.1823 300 64.5 300Z" fill="white"/>
<path d="M64.5 300H10.0371C8.71865 300.001 7.41297 299.749 6.19468 299.257C4.97639 298.767 3.86946 298.046 2.93722 297.138C2.00498 296.229 1.26565 295.151 0.761677 293.964C0.257651 292.777 -0.00115232 291.504 3.85673e-06 290.221V44.25H54.4718V290.221C54.4708 291.504 54.7291 292.776 55.2327 293.962C55.7363 295.148 56.4745 296.227 57.4057 297.135C58.3375 298.043 59.4433 298.763 60.6604 299.255C61.8776 299.747 63.1823 300 64.5 300Z" fill="#E6EEF5"/>
<path d="M39.2076 72.5806H19.01C16.4646 72.5806 14.4013 74.7197 14.4013 77.3596V98.3026C14.4013 100.942 16.4646 103.082 19.01 103.082H39.2076C41.7529 103.082 43.8162 100.942 43.8162 98.3026V77.3596C43.8162 74.7197 41.7529 72.5806 39.2076 72.5806Z" fill="#3586CB"/>
<path d="M0 15C0 6.71573 6.71573 0 15 0H282C291.941 0 300 8.05887 300 18V44.25H0V15Z" fill="#297CD2"/>
<path d="M0 15C0 6.71573 6.71573 0 15 0H282C291.941 0 300 8.05887 300 18V44.25H0V15Z" fill="black" fill-opacity="0.2"/>
<path d="M39.0563 125.25H18.8587C16.3133 125.25 14.25 127.39 14.25 130.029V150.972C14.25 153.611 16.3133 155.751 18.8587 155.751H39.0563C41.6016 155.751 43.6649 153.611 43.6649 150.972V130.029C43.6649 127.39 41.6016 125.25 39.0563 125.25Z" fill="#FED86E" fill-opacity="0.76"/>
<path d="M39.0563 166.682H18.8587C16.3133 166.682 14.25 168.821 14.25 171.461V192.404C14.25 195.044 16.3133 197.183 18.8587 197.183H39.0563C41.6016 197.183 43.6649 195.044 43.6649 192.404V171.461C43.6649 168.821 41.6016 166.682 39.0563 166.682Z" fill="#FED86E" fill-opacity="0.76"/>
<path d="M39.0563 208.114H18.8587C16.3133 208.114 14.25 210.254 14.25 212.892V233.836C14.25 236.475 16.3133 238.614 18.8587 238.614H39.0563C41.6016 238.614 43.6649 236.475 43.6649 233.836V212.892C43.6649 210.254 41.6016 208.114 39.0563 208.114Z" fill="#FED86E" fill-opacity="0.76"/>
<path d="M205.882 103.319V215.936C205.882 219.561 202.697 222.505 198.755 222.505H105.376C101.434 222.505 98.25 219.561 98.25 215.936V103.319C98.25 99.6938 101.434 96.75 105.376 96.75H198.755C202.697 96.75 205.882 99.6938 205.882 103.319Z" fill="url(#paint0_linear_101_117)"/>
<path d="M205.882 103.319V215.936C205.882 219.561 202.697 222.505 198.755 222.505H105.376C101.434 222.505 98.25 219.561 98.25 215.936V103.319C98.25 99.6938 101.434 96.75 105.376 96.75H198.755C202.697 96.75 205.882 99.6938 205.882 103.319Z" fill="#EAF1F7"/>
<path d="M205.882 103.319V215.936C205.882 219.561 202.697 222.505 198.755 222.505H105.376C101.434 222.505 98.25 219.561 98.25 215.936V103.319C98.25 99.6938 101.434 96.75 105.376 96.75H198.755C202.697 96.75 205.882 99.6938 205.882 103.319Z" stroke="url(#paint1_linear_101_117)" stroke-width="0.15"/>
<path d="M136.245 123.024C136.245 126.647 133.059 129.593 129.118 129.593C125.178 129.593 121.992 126.647 121.992 123.024C121.992 119.401 125.178 116.456 129.118 116.456C133.059 116.456 136.245 119.401 136.245 123.024Z" fill="#3586CB" stroke="url(#paint2_linear_101_117)" stroke-width="0.15"/>
<path d="M117.245 143.548C117.245 137.05 122.533 131.782 129.059 131.782C135.584 131.782 140.873 137.05 140.873 143.548V149.066C140.873 150.34 139.833 151.375 138.554 151.375H119.562C118.283 151.375 117.245 150.34 117.245 149.066V143.548Z" fill="#3586CB" stroke="url(#paint3_linear_101_117)" stroke-width="0.15"/>
<path d="M119.743 172.933H173.615C175.571 172.933 177.15 174.396 177.15 176.188C177.15 177.982 175.571 179.445 173.615 179.445H119.743C117.787 179.445 116.207 177.982 116.207 176.188C116.207 174.396 117.787 172.933 119.743 172.933Z" fill="#3586CB" stroke="url(#paint4_linear_101_117)" stroke-width="0.15"/>
<path d="M119.743 159.684H184.389C186.345 159.684 187.925 161.146 187.925 162.94C187.925 164.733 186.345 166.195 184.389 166.195H119.743C117.787 166.195 116.207 164.733 116.207 162.94C116.207 161.146 117.787 159.684 119.743 159.684Z" fill="#3586CB" stroke="url(#paint5_linear_101_117)" stroke-width="0.15"/>
<path d="M119.743 199.431H173.615C175.571 199.431 177.15 200.894 177.15 202.687C177.15 204.48 175.571 205.943 173.615 205.943H119.743C117.787 205.943 116.207 204.48 116.207 202.687C116.207 200.894 117.787 199.431 119.743 199.431Z" fill="#3586CB" stroke="url(#paint6_linear_101_117)" stroke-width="0.15"/>
<path d="M119.743 186.182H173.615C175.571 186.182 177.15 187.645 177.15 189.438C177.15 191.231 175.571 192.694 173.615 192.694H119.743C117.787 192.694 116.207 191.231 116.207 189.438C116.207 187.645 117.787 186.182 119.743 186.182Z" fill="#3586CB" stroke="url(#paint7_linear_101_117)" stroke-width="0.15"/>
<path d="M155.657 133.186H184.389C186.345 133.186 187.924 134.648 187.924 136.442C187.924 138.235 186.345 139.697 184.389 139.697H155.657C153.701 139.697 152.122 138.235 152.122 136.442C152.122 134.648 153.701 133.186 155.657 133.186Z" fill="#3586CB" stroke="url(#paint8_linear_101_117)" stroke-width="0.15"/>
<path d="M155.657 119.936H184.389C186.345 119.936 187.924 121.4 187.924 123.193C187.924 124.985 186.345 126.449 184.389 126.449H155.657C153.701 126.449 152.122 124.985 152.122 123.193C152.122 121.4 153.701 119.936 155.657 119.936Z" fill="#3586CB" stroke="url(#paint9_linear_101_117)" stroke-width="0.15"/>
<path d="M249.199 204.265V204.268V204.273V204.277V204.283V204.287V204.292V204.298V204.304V204.31V204.315V204.321V204.328V204.334V204.34V204.347V204.354V204.361V204.368V204.375V204.382V204.39V204.398V204.406V204.414V204.422V204.43V204.439V204.448V204.457V204.465V204.474V204.484V204.493V204.502V204.512V204.522V204.532V204.541V204.552V204.562V204.573V204.583V204.594V204.605V204.616V204.627V204.638V204.649V204.661V204.673V204.685V204.697V204.709V204.721V204.733V204.745V204.758V204.771V204.784V204.796V204.81V204.823V204.836V204.85V204.863V204.877V204.891V204.904V204.919V204.933V204.947V204.961V204.976V204.991V205.005V205.02V205.035V205.05V205.065V205.08V205.096V205.111V205.126V205.142V205.158V205.174V205.19V205.206V205.222V205.239V205.255V205.272V205.288V205.305V205.322V205.339V205.356V205.373V205.39V205.408V205.425V205.443V205.46V205.478V205.495V205.513V205.531V205.549V205.567V205.586V205.604V205.623V205.641V205.66V205.678V205.697V205.716V205.735V205.754V205.773V205.792V205.811V205.831V205.85V205.87V205.889V205.909V205.929V205.948V205.969V205.988V206.008V206.029V206.049V206.069V206.089V206.11V206.13V206.15V206.171V206.191V206.212V206.233V206.254V206.275V206.296V206.317V206.338V206.359V206.38V206.401V206.423V206.444V206.466V206.488V206.509V206.53V206.552V206.574V206.596V206.617V206.64V206.662V206.683V206.706V206.728V206.75V206.772V206.794V206.817V206.839V206.861V206.884V206.906V206.929V206.951V206.974V206.997V207.019V207.042V207.065V207.088V207.11V207.133V207.157V207.179V207.202V207.226V207.248V207.271V207.295V207.318V207.341V207.364V207.388V207.411V207.434V207.457V207.481V207.504V207.527V207.551V207.574V207.598V207.621V207.645V207.668V207.692V207.715V207.739V207.763V207.787V207.81V207.834V207.857V207.881V207.904V207.928V207.952V207.976V208V208.024V208.048V208.071V208.095V208.119V208.143V208.166V208.19V208.214V208.238V208.261V208.285V208.309V208.333V208.357V208.381V208.405V208.429V208.453V208.477V208.5V208.524V208.548V208.572V208.596V208.619V208.643V208.667V208.69V208.714V208.738V208.762V208.786V208.81V208.834V208.857V208.881V208.904V208.928V208.951V208.975V208.999V209.023V209.046V209.07V209.093V209.116V209.14V209.164V209.187V209.21V209.234V209.257V209.281V209.304V209.327V209.35V209.374V209.397V209.42V209.443V209.466V209.489V209.512V209.536V209.558V209.581V209.604V209.627V209.65V209.673V209.695V209.718V209.74V209.764V209.786V209.809V209.831V209.854V209.876V209.898V209.92V209.943V209.965V209.987V210.01V210.031V210.053V210.076V210.097V210.119V210.141V210.163V210.184V210.206V210.228V210.249V210.271V210.292V210.313V210.335V210.356V210.377V210.398V210.419V210.44V210.461V210.482V210.503V210.524V210.544V210.565V210.586V210.606V210.626V210.647V210.667V210.688V210.707V210.727V210.748V210.767V210.787V210.807V210.826V210.846V210.865V210.885V210.904V210.924V210.943V210.962V210.981V211V211.019V211.038V211.057V211.075V211.093V211.112V211.13V211.149V211.167V211.185V211.203V211.221V211.239V211.256V211.274V211.291V211.309V211.327V211.344V211.361V211.378V211.395V211.412V211.429V211.445V211.462V211.478V211.495V211.511V211.527V211.543V211.559V211.575V211.591V211.606V211.622V211.637V211.653V211.668V211.683V211.698V211.713V211.727V211.742V211.756V211.771V211.786V211.799V211.813V211.828V211.841V211.855V211.869V211.882V211.895V211.909V211.922V211.935V211.948V211.96V211.973V211.985V211.998V212.01V212.022V212.034V212.046V212.058V212.069V212.08V212.092V212.104V212.114V212.125V212.136V212.146V212.157V212.167V212.178V212.188V212.198V212.208V212.218V212.227V212.236V212.245V212.254V212.263V212.272V212.281V212.29V212.298V212.306V212.314V212.323V212.33V212.338V212.345V212.353V212.36V212.367V212.374V212.38V212.387V212.393V212.4V212.406V212.412V212.418V212.423V212.428V212.434V212.439V212.444V212.449V212.454V212.458V212.462V212.467V212.47V212.474V212.478V212.482V212.485V212.488V212.491V212.494V212.497V212.499V212.501V212.503V212.506C249.199 213.115 248.797 213.707 248.044 214.254C247.293 214.801 246.201 215.295 244.848 215.711C242.141 216.543 238.398 217.058 234.262 217.058C230.125 217.058 226.383 216.543 223.676 215.711C222.322 215.295 221.231 214.801 220.48 214.254C219.727 213.707 219.325 213.115 219.325 212.506V212.503V212.501V212.499V212.497V212.494V212.491V212.488V212.485V212.482V212.478V212.474V212.47V212.467V212.462V212.458V212.454V212.449V212.444V212.439V212.434V212.428V212.423V212.418V212.412V212.406V212.4V212.393V212.387V212.38V212.374V212.367V212.36V212.353V212.345V212.338V212.33V212.323V212.314V212.306V212.298V212.29V212.281V212.272V212.263V212.254V212.245V212.236V212.227V212.218V212.208V212.198V212.188V212.178V212.167V212.157V212.146V212.136V212.125V212.114V212.104V212.092V212.08V212.069V212.058V212.046V212.034V212.022V212.01V211.998V211.985V211.973V211.96V211.948V211.935V211.922V211.909V211.895V211.882V211.869V211.855V211.841V211.828V211.813V211.799V211.786V211.771V211.756V211.742V211.727V211.713V211.698V211.683V211.668V211.653V211.637V211.622V211.606V211.591V211.575V211.559V211.543V211.527V211.511V211.495V211.478V211.462V211.445V211.429V211.412V211.395V211.378V211.361V211.344V211.327V211.309V211.291V211.274V211.256V211.239V211.221V211.203V211.185V211.167V211.149V211.13V211.112V211.093V211.075V211.057V211.038V211.019V211V210.981V210.962V210.943V210.924V210.904V210.885V210.865V210.846V210.826V210.807V210.787V210.767V210.748V210.727V210.707V210.688V210.667V210.647V210.626V210.606V210.586V210.565V210.544V210.524V210.503V210.482V210.461V210.44V210.419V210.398V210.377V210.356V210.335V210.313V210.292V210.271V210.249V210.228V210.206V210.184V210.163V210.141V210.119V210.097V210.076V210.053V210.031V210.01V209.987V209.965V209.943V209.92V209.898V209.876V209.854V209.831V209.809V209.786V209.764V209.74V209.718V209.695V209.673V209.65V209.627V209.604V209.581V209.558V209.536V209.512V209.489V209.466V209.443V209.42V209.397V209.374V209.35V209.327V209.304V209.281V209.257V209.234V209.21V209.187V209.164V209.14V209.116V209.093V209.07V209.046V209.023V208.999V208.975V208.951V208.928V208.904V208.881V208.857V208.834V208.81V208.786V208.762V208.738V208.714V208.69V208.667V208.643V208.619V208.596V208.572V208.548V208.524V208.5V208.477V208.453V208.429V208.405V208.381V208.357V208.333V208.309V208.285V208.261V208.238V208.214V208.19V208.166V208.143V208.119V208.095V208.071V208.048V208.024V208V207.976V207.952V207.928V207.904V207.881V207.857V207.834V207.81V207.787V207.763V207.739V207.715V207.692V207.668V207.645V207.621V207.598V207.574V207.551V207.527V207.504V207.481V207.457V207.434V207.411V207.388V207.364V207.341V207.318V207.295V207.271V207.248V207.226V207.202V207.179V207.157V207.133V207.11V207.088V207.065V207.042V207.019V206.997V206.974V206.951V206.929V206.906V206.884V206.861V206.839V206.817V206.794V206.772V206.75V206.728V206.706V206.683V206.662V206.64V206.617V206.596V206.574V206.552V206.53V206.509V206.488V206.466V206.444V206.423V206.401V206.38V206.359V206.338V206.317V206.296V206.275V206.254V206.233V206.212V206.191V206.171V206.15V206.13V206.11V206.089V206.069V206.049V206.029V206.008V205.988V205.969V205.948V205.929V205.909V205.889V205.87V205.85V205.831V205.811V205.792V205.773V205.754V205.735V205.716V205.697V205.678V205.66V205.641V205.623V205.604V205.586V205.567V205.549V205.531V205.513V205.495V205.478V205.46V205.443V205.425V205.408V205.39V205.373V205.356V205.339V205.322V205.305V205.288V205.272V205.255V205.239V205.222V205.206V205.19V205.174V205.158V205.142V205.126V205.111V205.096V205.08V205.065V205.05V205.035V205.02V205.005V204.991V204.976V204.961V204.947V204.933V204.919V204.904V204.891V204.877V204.863V204.85V204.836V204.823V204.81V204.796V204.784V204.771V204.758V204.745V204.733V204.721V204.709V204.697V204.685V204.673V204.661V204.649V204.638V204.627V204.616V204.605V204.594V204.583V204.573V204.562V204.552V204.541V204.532V204.522V204.512V204.502V204.493V204.484V204.474V204.465V204.457V204.448V204.439V204.43V204.422V204.414V204.406V204.398V204.39V204.382V204.375V204.368V204.361V204.354V204.347V204.34V204.334V204.328V204.321V204.315V204.31V204.304V204.298V204.292V204.287V204.283V204.277V204.273V204.268V204.265H249.199Z" fill="url(#paint10_linear_101_117)" stroke="url(#paint11_linear_101_117)" stroke-width="0.15"/>
<path d="M249.199 195.046V195.047V195.051V195.056V195.062V195.067V195.072V195.078V195.083V195.089V195.096V195.102V195.109V195.116V195.122V195.13V195.137V195.144V195.152V195.16V195.167V195.176V195.184V195.193V195.201V195.21V195.219V195.228V195.237V195.247V195.257V195.266V195.276V195.287V195.296V195.307V195.317V195.329V195.339V195.35V195.362V195.373V195.384V195.396V195.408V195.42V195.432V195.444V195.457V195.469V195.482V195.494V195.508V195.521V195.534V195.548V195.561V195.575V195.589V195.603V195.617V195.632V195.646V195.66V195.675V195.69V195.705V195.72V195.735V195.75V195.766V195.782V195.797V195.813V195.83V195.845V195.862V195.878V195.895V195.911V195.928V195.945V195.962V195.979V195.996V196.014V196.031V196.049V196.067V196.085V196.103V196.121V196.139V196.157V196.175V196.194V196.213V196.232V196.25V196.269V196.289V196.307V196.327V196.346V196.366V196.385V196.405V196.425V196.445V196.465V196.485V196.505V196.526V196.546V196.567V196.587V196.608V196.629V196.65V196.671V196.692V196.713V196.734V196.756V196.777V196.799V196.82V196.842V196.864V196.886V196.908V196.93V196.952V196.974V196.997V197.019V197.042V197.064V197.087V197.109V197.132V197.155V197.178V197.201V197.224V197.247V197.27V197.294V197.317V197.341V197.364V197.387V197.411V197.435V197.459V197.483V197.507V197.531V197.555V197.579V197.603V197.627V197.651V197.675V197.7V197.725V197.749V197.774V197.798V197.823V197.848V197.873V197.897V197.922V197.947V197.972V197.997V198.023V198.047V198.073V198.098V198.123V198.149V198.174V198.199V198.224V198.25V198.275V198.301V198.327V198.353V198.378V198.404V198.43V198.455V198.482V198.507V198.533V198.559V198.585V198.611V198.637V198.663V198.689V198.715V198.741V198.767V198.794V198.82V198.846V198.872V198.899V198.925V198.951V198.977V199.004V199.03V199.056V199.083V199.109V199.136V199.162V199.189V199.215V199.241V199.268V199.295V199.321V199.348V199.374V199.4V199.427V199.454V199.48V199.507V199.533V199.56V199.586V199.613V199.64V199.666V199.693V199.719V199.745V199.772V199.799V199.826V199.852V199.878V199.905V199.931V199.958V199.985V200.011V200.037V200.063V200.09V200.117V200.143V200.169V200.195V200.222V200.249V200.275V200.301V200.327V200.354V200.38V200.406V200.432V200.458V200.484V200.51V200.537V200.563V200.588V200.615V200.641V200.666V200.693V200.718V200.744V200.77V200.795V200.822V200.847V200.873V200.898V200.924V200.949V200.975V201V201.026V201.051V201.077V201.102V201.127V201.152V201.177V201.203V201.227V201.253V201.278V201.302V201.327V201.352V201.377V201.401V201.426V201.451V201.476V201.5V201.524V201.548V201.573V201.597V201.621V201.645V201.669V201.693V201.717V201.741V201.765V201.789V201.812V201.836V201.86V201.883V201.906V201.93V201.953V201.977V201.999V202.022V202.046V202.068V202.091V202.114V202.136V202.159V202.181V202.204V202.226V202.249V202.271V202.293V202.315V202.337V202.358V202.38V202.402V202.424V202.445V202.466V202.487V202.509V202.53V202.551V202.572V202.593V202.613V202.634V202.655V202.676V202.696V202.716V202.736V202.756V202.776V202.796V202.816V202.835V202.855V202.874V202.894V202.913V202.932V202.951V202.97V202.989V203.007V203.026V203.045V203.063V203.081V203.099V203.117V203.135V203.153V203.171V203.188V203.205V203.223V203.24V203.257V203.274V203.291V203.307V203.324V203.34V203.357V203.373V203.389V203.405V203.421V203.436V203.452V203.468V203.483V203.498V203.513V203.528V203.543V203.557V203.571V203.586V203.6V203.614V203.628V203.642V203.655V203.669V203.682V203.696V203.708V203.721V203.734V203.747V203.759V203.771V203.783V203.795V203.807V203.819V203.831V203.842V203.853V203.864V203.876V203.886V203.897V203.907V203.918V203.928V203.938V203.948V203.957V203.967V203.976V203.985V203.994V204.003V204.012V204.02V204.029V204.037V204.045V204.053V204.06V204.068V204.075V204.083V204.089V204.096V204.103V204.109V204.116V204.122V204.128V204.133V204.139V204.144V204.149V204.154V204.159V204.164V204.168V204.173V204.176V204.18V204.184V204.188V204.191V204.194V204.197V204.2V204.202V204.204V204.206V204.209C249.199 204.818 248.797 205.41 248.044 205.958C247.293 206.504 246.201 206.998 244.848 207.414C242.141 208.247 238.398 208.762 234.262 208.762C230.125 208.762 226.383 208.247 223.676 207.414C222.322 206.998 221.231 206.504 220.48 205.958C219.727 205.41 219.325 204.818 219.325 204.209V204.206V204.204V204.202V204.2V204.197V204.194V204.191V204.188V204.184V204.18V204.176V204.173V204.168V204.164V204.159V204.154V204.149V204.144V204.139V204.133V204.128V204.122V204.116V204.109V204.103V204.096V204.089V204.083V204.075V204.068V204.06V204.053V204.045V204.037V204.029V204.02V204.012V204.003V203.994V203.985V203.976V203.967V203.957V203.948V203.938V203.928V203.918V203.907V203.897V203.886V203.876V203.864V203.853V203.842V203.831V203.819V203.807V203.795V203.783V203.771V203.759V203.747V203.734V203.721V203.708V203.696V203.682V203.669V203.655V203.642V203.628V203.614V203.6V203.586V203.571V203.557V203.543V203.528V203.513V203.498V203.483V203.468V203.452V203.436V203.421V203.405V203.389V203.373V203.357V203.34V203.324V203.307V203.291V203.274V203.257V203.24V203.223V203.205V203.188V203.171V203.153V203.135V203.117V203.099V203.081V203.063V203.045V203.026V203.007V202.989V202.97V202.951V202.932V202.913V202.894V202.874V202.855V202.835V202.816V202.796V202.776V202.756V202.736V202.716V202.696V202.676V202.655V202.634V202.613V202.593V202.572V202.551V202.53V202.509V202.487V202.466V202.445V202.424V202.402V202.38V202.358V202.337V202.315V202.293V202.271V202.249V202.226V202.204V202.181V202.159V202.136V202.114V202.091V202.068V202.046V202.022V201.999V201.977V201.953V201.93V201.906V201.883V201.86V201.836V201.812V201.789V201.765V201.741V201.717V201.693V201.669V201.645V201.621V201.597V201.573V201.548V201.524V201.5V201.476V201.451V201.426V201.401V201.377V201.352V201.327V201.302V201.278V201.253V201.227V201.203V201.177V201.152V201.127V201.102V201.077V201.051V201.026V201V200.975V200.949V200.924V200.898V200.873V200.847V200.822V200.795V200.77V200.744V200.718V200.693V200.666V200.641V200.615V200.588V200.563V200.537V200.51V200.484V200.458V200.432V200.406V200.38V200.354V200.327V200.301V200.275V200.249V200.222V200.195V200.169V200.143V200.117V200.09V200.063V200.037V200.011V199.985V199.958V199.931V199.905V199.878V199.852V199.826V199.799V199.772V199.745V199.719V199.693V199.666V199.64V199.613V199.586V199.56V199.533V199.507V199.48V199.454V199.427V199.4V199.374V199.348V199.321V199.295V199.268V199.241V199.215V199.189V199.162V199.136V199.109V199.083V199.056V199.03V199.004V198.977V198.951V198.925V198.899V198.872V198.846V198.82V198.794V198.767V198.741V198.715V198.689V198.663V198.637V198.611V198.585V198.559V198.533V198.507V198.482V198.455V198.43V198.404V198.378V198.353V198.327V198.301V198.275V198.25V198.224V198.199V198.174V198.149V198.123V198.098V198.073V198.047V198.023V197.997V197.972V197.947V197.922V197.897V197.873V197.848V197.823V197.798V197.774V197.749V197.725V197.7V197.675V197.651V197.627V197.603V197.579V197.555V197.531V197.507V197.483V197.459V197.435V197.411V197.387V197.364V197.341V197.317V197.294V197.27V197.247V197.224V197.201V197.178V197.155V197.132V197.109V197.087V197.064V197.042V197.019V196.997V196.974V196.952V196.93V196.908V196.886V196.864V196.842V196.82V196.799V196.777V196.756V196.734V196.713V196.692V196.671V196.65V196.629V196.608V196.587V196.567V196.546V196.526V196.505V196.485V196.465V196.445V196.425V196.405V196.385V196.366V196.346V196.327V196.307V196.289V196.269V196.25V196.232V196.213V196.194V196.175V196.157V196.139V196.121V196.103V196.085V196.067V196.049V196.031V196.014V195.996V195.979V195.962V195.945V195.928V195.911V195.895V195.878V195.862V195.845V195.83V195.813V195.797V195.782V195.766V195.75V195.735V195.72V195.705V195.69V195.675V195.66V195.646V195.632V195.617V195.603V195.589V195.575V195.561V195.548V195.534V195.521V195.508V195.494V195.482V195.469V195.457V195.444V195.432V195.42V195.408V195.396V195.384V195.373V195.362V195.35V195.339V195.329V195.317V195.307V195.296V195.287V195.276V195.266V195.257V195.247V195.237V195.228V195.219V195.21V195.201V195.193V195.184V195.176V195.167V195.16V195.152V195.144V195.137V195.13V195.122V195.116V195.109V195.102V195.096V195.089V195.083V195.078V195.072V195.067V195.062V195.056V195.051V195.047V195.046H249.199Z" fill="url(#paint12_linear_101_117)" stroke="url(#paint13_linear_101_117)" stroke-width="0.15"/>
<path d="M249.199 186.288V186.29V186.295V186.3V186.304V186.31V186.316V186.321V186.327V186.332V186.338V186.345V186.351V186.358V186.364V186.371V186.379V186.385V186.393V186.4V186.408V186.416V186.424V186.432V186.441V186.449V186.457V186.466V186.475V186.484V186.494V186.503V186.513V186.523V186.532V186.543V186.553V186.563V186.574V186.584V186.595V186.606V186.617V186.628V186.64V186.651V186.663V186.674V186.686V186.698V186.711V186.723V186.736V186.748V186.761V186.774V186.787V186.8V186.813V186.826V186.84V186.854V186.868V186.882V186.895V186.91V186.924V186.939V186.953V186.968V186.982V186.997V187.012V187.028V187.043V187.059V187.074V187.09V187.105V187.122V187.138V187.154V187.17V187.186V187.203V187.219V187.236V187.253V187.27V187.287V187.304V187.321V187.339V187.357V187.374V187.392V187.409V187.427V187.445V187.463V187.482V187.5V187.519V187.537V187.555V187.574V187.593V187.612V187.631V187.65V187.669V187.689V187.708V187.727V187.747V187.767V187.786V187.806V187.826V187.846V187.866V187.886V187.906V187.927V187.948V187.968V187.989V188.009V188.03V188.051V188.072V188.093V188.114V188.135V188.156V188.178V188.199V188.221V188.242V188.263V188.285V188.307V188.329V188.351V188.373V188.395V188.417V188.439V188.461V188.484V188.506V188.529V188.551V188.574V188.596V188.619V188.641V188.665V188.687V188.71V188.733V188.756V188.779V188.803V188.826V188.849V188.872V188.896V188.919V188.943V188.966V188.989V189.013V189.037V189.061V189.085V189.108V189.132V189.156V189.18V189.204V189.228V189.252V189.276V189.3V189.325V189.349V189.373V189.397V189.421V189.446V189.47V189.495V189.519V189.544V189.568V189.593V189.617V189.642V189.667V189.691V189.716V189.741V189.766V189.79V189.815V189.84V189.865V189.89V189.915V189.94V189.964V189.99V190.015V190.039V190.065V190.09V190.114V190.14V190.165V190.19V190.215V190.24V190.265V190.291V190.315V190.341V190.366V190.391V190.416V190.441V190.466V190.492V190.517V190.542V190.567V190.592V190.618V190.643V190.668V190.693V190.718V190.744V190.769V190.794V190.819V190.844V190.87V190.894V190.92V190.945V190.97V190.996V191.02V191.046V191.071V191.095V191.121V191.146V191.171V191.196V191.221V191.246V191.271V191.296V191.32V191.346V191.371V191.395V191.42V191.445V191.47V191.494V191.519V191.544V191.569V191.593V191.618V191.642V191.667V191.692V191.716V191.74V191.765V191.789V191.814V191.838V191.863V191.887V191.911V191.935V191.959V191.983V192.007V192.031V192.055V192.079V192.103V192.127V192.151V192.175V192.198V192.222V192.245V192.269V192.292V192.316V192.34V192.363V192.386V192.409V192.433V192.456V192.478V192.502V192.525V192.547V192.571V192.593V192.616V192.639V192.661V192.684V192.706V192.729V192.751V192.773V192.796V192.818V192.84V192.862V192.884V192.906V192.928V192.949V192.971V192.993V193.014V193.036V193.057V193.078V193.099V193.12V193.141V193.162V193.183V193.204V193.225V193.246V193.267V193.287V193.307V193.328V193.348V193.368V193.388V193.408V193.428V193.448V193.468V193.487V193.507V193.526V193.546V193.565V193.584V193.603V193.622V193.641V193.66V193.678V193.697V193.716V193.734V193.753V193.771V193.789V193.807V193.825V193.843V193.86V193.878V193.895V193.912V193.93V193.947V193.964V193.981V193.997V194.014V194.031V194.047V194.064V194.08V194.096V194.112V194.128V194.143V194.159V194.175V194.19V194.206V194.221V194.236V194.251V194.266V194.28V194.295V194.309V194.323V194.338V194.352V194.365V194.38V194.393V194.407V194.42V194.433V194.446V194.459V194.472V194.485V194.497V194.51V194.522V194.534V194.546V194.558V194.57V194.581V194.593V194.605V194.616V194.626V194.638V194.648V194.659V194.669V194.68V194.69V194.7V194.71V194.719V194.729V194.738V194.748V194.757V194.766V194.774V194.783V194.791V194.8V194.808V194.816V194.824V194.831V194.839V194.846V194.854V194.86V194.867V194.874V194.881V194.887V194.893V194.899V194.905V194.911V194.916V194.922V194.926V194.932V194.937V194.941V194.946V194.95V194.954V194.958V194.962V194.965V194.969V194.972V194.975V194.978V194.98V194.983V194.986V194.988V194.989C249.199 195.599 248.797 196.191 248.044 196.738C247.293 197.285 246.201 197.779 244.848 198.196C242.141 199.027 238.398 199.543 234.262 199.543C230.125 199.543 226.383 199.027 223.676 198.196C222.322 197.779 221.231 197.285 220.48 196.738C219.727 196.191 219.325 195.599 219.325 194.989V194.988V194.986V194.983V194.98V194.978V194.975V194.972V194.969V194.965V194.962V194.958V194.954V194.95V194.946V194.941V194.937V194.932V194.926V194.922V194.916V194.911V194.905V194.899V194.893V194.887V194.881V194.874V194.867V194.86V194.854V194.846V194.839V194.831V194.824V194.816V194.808V194.8V194.791V194.783V194.774V194.766V194.757V194.748V194.738V194.729V194.719V194.71V194.7V194.69V194.68V194.669V194.659V194.648V194.638V194.626V194.616V194.605V194.593V194.581V194.57V194.558V194.546V194.534V194.522V194.51V194.497V194.485V194.472V194.459V194.446V194.433V194.42V194.407V194.393V194.38V194.365V194.352V194.338V194.323V194.309V194.295V194.28V194.266V194.251V194.236V194.221V194.206V194.19V194.175V194.159V194.143V194.128V194.112V194.096V194.08V194.064V194.047V194.031V194.014V193.997V193.981V193.964V193.947V193.93V193.912V193.895V193.878V193.86V193.843V193.825V193.807V193.789V193.771V193.753V193.734V193.716V193.697V193.678V193.66V193.641V193.622V193.603V193.584V193.565V193.546V193.526V193.507V193.487V193.468V193.448V193.428V193.408V193.388V193.368V193.348V193.328V193.307V193.287V193.267V193.246V193.225V193.204V193.183V193.162V193.141V193.12V193.099V193.078V193.057V193.036V193.014V192.993V192.971V192.949V192.928V192.906V192.884V192.862V192.84V192.818V192.796V192.773V192.751V192.729V192.706V192.684V192.661V192.639V192.616V192.593V192.571V192.547V192.525V192.502V192.478V192.456V192.433V192.409V192.386V192.363V192.34V192.316V192.292V192.269V192.245V192.222V192.198V192.175V192.151V192.127V192.103V192.079V192.055V192.031V192.007V191.983V191.959V191.935V191.911V191.887V191.863V191.838V191.814V191.789V191.765V191.74V191.716V191.692V191.667V191.642V191.618V191.593V191.569V191.544V191.519V191.494V191.47V191.445V191.42V191.395V191.371V191.346V191.32V191.296V191.271V191.246V191.221V191.196V191.171V191.146V191.121V191.095V191.071V191.046V191.02V190.996V190.97V190.945V190.92V190.894V190.87V190.844V190.819V190.794V190.769V190.744V190.718V190.693V190.668V190.643V190.618V190.592V190.567V190.542V190.517V190.492V190.466V190.441V190.416V190.391V190.366V190.341V190.315V190.291V190.265V190.24V190.215V190.19V190.165V190.14V190.114V190.09V190.065V190.039V190.015V189.99V189.964V189.94V189.915V189.89V189.865V189.84V189.815V189.79V189.766V189.741V189.716V189.691V189.667V189.642V189.617V189.593V189.568V189.544V189.519V189.495V189.47V189.446V189.421V189.397V189.373V189.349V189.325V189.3V189.276V189.252V189.228V189.204V189.18V189.156V189.132V189.108V189.085V189.061V189.037V189.013V188.989V188.966V188.943V188.919V188.896V188.872V188.849V188.826V188.803V188.779V188.756V188.733V188.71V188.687V188.665V188.641V188.619V188.596V188.574V188.551V188.529V188.506V188.484V188.461V188.439V188.417V188.395V188.373V188.351V188.329V188.307V188.285V188.263V188.242V188.221V188.199V188.178V188.156V188.135V188.114V188.093V188.072V188.051V188.03V188.009V187.989V187.968V187.948V187.927V187.906V187.886V187.866V187.846V187.826V187.806V187.786V187.767V187.747V187.727V187.708V187.689V187.669V187.65V187.631V187.612V187.593V187.574V187.555V187.537V187.519V187.5V187.482V187.463V187.445V187.427V187.409V187.392V187.374V187.357V187.339V187.321V187.304V187.287V187.27V187.253V187.236V187.219V187.203V187.186V187.17V187.154V187.138V187.122V187.105V187.09V187.074V187.059V187.043V187.028V187.012V186.997V186.982V186.968V186.953V186.939V186.924V186.91V186.895V186.882V186.868V186.854V186.84V186.826V186.813V186.8V186.787V186.774V186.761V186.748V186.736V186.723V186.711V186.698V186.686V186.674V186.663V186.651V186.64V186.628V186.617V186.606V186.595V186.584V186.574V186.563V186.553V186.543V186.532V186.523V186.513V186.503V186.494V186.484V186.475V186.466V186.457V186.449V186.441V186.432V186.424V186.416V186.408V186.4V186.393V186.385V186.379V186.371V186.364V186.358V186.351V186.345V186.338V186.332V186.327V186.321V186.316V186.31V186.304V186.3V186.295V186.29V186.288H249.199Z" fill="url(#paint14_linear_101_117)" stroke="url(#paint15_linear_101_117)" stroke-width="0.15"/>
<path d="M249.199 186.232C249.199 186.775 248.801 187.306 248.047 187.799C247.295 188.291 246.203 188.736 244.849 189.111C242.142 189.86 238.399 190.324 234.262 190.324C230.125 190.324 226.382 189.86 223.675 189.111C222.321 188.736 221.229 188.291 220.477 187.799C219.723 187.306 219.325 186.775 219.325 186.232C219.325 185.688 219.723 185.158 220.477 184.664C221.229 184.172 222.321 183.727 223.675 183.352C226.382 182.603 230.125 182.14 234.262 182.14C238.399 182.14 242.142 182.603 244.849 183.352C246.203 183.727 247.295 184.172 248.047 184.664C248.801 185.158 249.199 185.688 249.199 186.232Z" fill="url(#paint16_linear_101_117)" stroke="url(#paint17_linear_101_117)" stroke-width="0.15"/>
<path d="M226.392 189.089H193.156C193.156 189.089 193.156 197.934 193.156 198.285C193.156 201.107 200.596 203.394 209.773 203.394C218.951 203.394 226.392 201.107 226.392 198.285C226.392 197.934 226.392 189.089 226.392 189.089Z" fill="url(#paint18_linear_101_117)" fill-opacity="0.1"/>
<path d="M226.336 189.146V189.146V189.151V189.156V189.161V189.166V189.172V189.177V189.183V189.189V189.195V189.202V189.208V189.215V189.221V189.229V189.236V189.243V189.251V189.259V189.266V189.275V189.283V189.291V189.3V189.308V189.317V189.326V189.336V189.345V189.355V189.365V189.374V189.384V189.395V189.405V189.416V189.426V189.437V189.448V189.459V189.47V189.482V189.494V189.505V189.517V189.529V189.542V189.554V189.566V189.579V189.592V189.605V189.617V189.631V189.644V189.658V189.671V189.685V189.699V189.713V189.728V189.742V189.756V189.77V189.785V189.8V189.815V189.83V189.846V189.861V189.877V189.893V189.908V189.924V189.94V189.956V189.973V189.989V190.006V190.022V190.039V190.056V190.073V190.091V190.108V190.125V190.142V190.16V190.178V190.196V190.214V190.232V190.25V190.268V190.287V190.305V190.324V190.343V190.361V190.381V190.4V190.419V190.438V190.457V190.477V190.496V190.517V190.536V190.556V190.576V190.596V190.616V190.637V190.658V190.678V190.698V190.719V190.74V190.76V190.781V190.803V190.824V190.845V190.867V190.888V190.91V190.931V190.953V190.975V190.997V191.018V191.04V191.063V191.084V191.107V191.129V191.152V191.174V191.197V191.219V191.242V191.265V191.288V191.311V191.334V191.357V191.38V191.403V191.427V191.45V191.474V191.497V191.521V191.544V191.568V191.592V191.615V191.639V191.663V191.687V191.711V191.736V191.76V191.784V191.809V191.833V191.858V191.882V191.906V191.931V191.956V191.981V192.005V192.03V192.055V192.08V192.105V192.13V192.155V192.18V192.205V192.23V192.256V192.281V192.306V192.332V192.357V192.383V192.408V192.434V192.459V192.485V192.51V192.536V192.562V192.587V192.613V192.639V192.665V192.691V192.716V192.743V192.768V192.794V192.821V192.846V192.872V192.899V192.924V192.95V192.977V193.003V193.029V193.055V193.082V193.108V193.134V193.16V193.187V193.213V193.239V193.265V193.292V193.318V193.345V193.371V193.397V193.424V193.45V193.477V193.503V193.529V193.556V193.582V193.609V193.635V193.661V193.688V193.715V193.741V193.767V193.793V193.82V193.847V193.873V193.899V193.926V193.952V193.979V194.005V194.031V194.057V194.084V194.111V194.137V194.163V194.189V194.216V194.242V194.268V194.294V194.321V194.347V194.373V194.399V194.426V194.451V194.477V194.504V194.53V194.556V194.582V194.608V194.633V194.66V194.686V194.711V194.737V194.763V194.789V194.815V194.84V194.866V194.891V194.917V194.943V194.969V194.994V195.019V195.044V195.07V195.095V195.121V195.146V195.171V195.197V195.221V195.246V195.272V195.296V195.321V195.347V195.371V195.396V195.421V195.446V195.47V195.494V195.519V195.544V195.568V195.593V195.617V195.64V195.665V195.689V195.713V195.737V195.761V195.785V195.809V195.833V195.856V195.88V195.903V195.927V195.95V195.973V195.997V196.02V196.043V196.067V196.089V196.112V196.135V196.158V196.181V196.203V196.226V196.248V196.271V196.293V196.315V196.337V196.359V196.381V196.403V196.425V196.447V196.468V196.49V196.511V196.532V196.554V196.575V196.596V196.617V196.638V196.659V196.679V196.7V196.721V196.742V196.762V196.782V196.802V196.822V196.842V196.862V196.882V196.901V196.921V196.94V196.96V196.979V196.998V197.017V197.036V197.055V197.074V197.092V197.111V197.129V197.147V197.165V197.183V197.201V197.219V197.237V197.255V197.272V197.289V197.306V197.324V197.34V197.357V197.374V197.39V197.407V197.423V197.44V197.456V197.471V197.488V197.503V197.519V197.534V197.549V197.565V197.58V197.595V197.609V197.624V197.639V197.653V197.667V197.681V197.696V197.709V197.723V197.737V197.75V197.763V197.777V197.789V197.802V197.815V197.828V197.84V197.852V197.864V197.876V197.888V197.9V197.911V197.923V197.933V197.945V197.956V197.966V197.977V197.987V197.998V198.008V198.017V198.027V198.037V198.047V198.056V198.065V198.074V198.083V198.092V198.1V198.108V198.116V198.125V198.132V198.139V198.147V198.155V198.161V198.168V198.175V198.181V198.188V198.194V198.2V198.206V198.212V198.218V198.223V198.228V198.233V198.238V198.242V198.247V198.251V198.255V198.259V198.263V198.266V198.269V198.272V198.275V198.278V198.281V198.284V198.285C226.336 198.964 225.888 199.622 225.052 200.229C224.218 200.835 223.009 201.383 221.508 201.845C218.507 202.766 214.358 203.338 209.773 203.338C205.189 203.338 201.04 202.766 198.04 201.845C196.539 201.383 195.328 200.835 194.494 200.229C193.659 199.622 193.212 198.964 193.212 198.285V198.284V198.281V198.278V198.275V198.272V198.269V198.266V198.263V198.259V198.255V198.251V198.247V198.242V198.238V198.233V198.228V198.223V198.218V198.212V198.206V198.2V198.194V198.188V198.181V198.175V198.168V198.161V198.155V198.147V198.139V198.132V198.125V198.116V198.108V198.1V198.092V198.083V198.074V198.065V198.056V198.047V198.037V198.027V198.017V198.008V197.998V197.987V197.977V197.966V197.956V197.945V197.933V197.923V197.911V197.9V197.888V197.876V197.864V197.852V197.84V197.828V197.815V197.802V197.789V197.777V197.763V197.75V197.737V197.723V197.709V197.696V197.681V197.667V197.653V197.639V197.624V197.609V197.595V197.58V197.565V197.549V197.534V197.519V197.503V197.488V197.471V197.456V197.44V197.423V197.407V197.39V197.374V197.357V197.34V197.324V197.306V197.289V197.272V197.255V197.237V197.219V197.201V197.183V197.165V197.147V197.129V197.111V197.092V197.074V197.055V197.036V197.017V196.998V196.979V196.96V196.94V196.921V196.901V196.882V196.862V196.842V196.822V196.802V196.782V196.762V196.742V196.721V196.7V196.679V196.659V196.638V196.617V196.596V196.575V196.554V196.532V196.511V196.49V196.468V196.447V196.425V196.403V196.381V196.359V196.337V196.315V196.293V196.271V196.248V196.226V196.203V196.181V196.158V196.135V196.112V196.089V196.067V196.043V196.02V195.997V195.973V195.95V195.927V195.903V195.88V195.856V195.833V195.809V195.785V195.761V195.737V195.713V195.689V195.665V195.64V195.617V195.593V195.568V195.544V195.519V195.494V195.47V195.446V195.421V195.396V195.371V195.347V195.321V195.296V195.272V195.246V195.221V195.197V195.171V195.146V195.121V195.095V195.07V195.044V195.019V194.994V194.969V194.943V194.917V194.891V194.866V194.84V194.815V194.789V194.763V194.737V194.711V194.686V194.66V194.633V194.608V194.582V194.556V194.53V194.504V194.477V194.451V194.426V194.399V194.373V194.347V194.321V194.294V194.268V194.242V194.216V194.189V194.163V194.137V194.111V194.084V194.057V194.031V194.005V193.979V193.952V193.926V193.899V193.873V193.847V193.82V193.793V193.767V193.741V193.715V193.688V193.661V193.635V193.609V193.582V193.556V193.529V193.503V193.477V193.45V193.424V193.397V193.371V193.345V193.318V193.292V193.265V193.239V193.213V193.187V193.16V193.134V193.108V193.082V193.055V193.029V193.003V192.977V192.95V192.924V192.899V192.872V192.846V192.821V192.794V192.768V192.743V192.716V192.691V192.665V192.639V192.613V192.587V192.562V192.536V192.51V192.485V192.459V192.434V192.408V192.383V192.357V192.332V192.306V192.281V192.256V192.23V192.205V192.18V192.155V192.13V192.105V192.08V192.055V192.03V192.005V191.981V191.956V191.931V191.906V191.882V191.858V191.833V191.809V191.784V191.76V191.736V191.711V191.687V191.663V191.639V191.615V191.592V191.568V191.544V191.521V191.497V191.474V191.45V191.427V191.403V191.38V191.357V191.334V191.311V191.288V191.265V191.242V191.219V191.197V191.174V191.152V191.129V191.107V191.084V191.063V191.04V191.018V190.997V190.975V190.953V190.931V190.91V190.888V190.867V190.845V190.824V190.803V190.781V190.76V190.74V190.719V190.698V190.678V190.658V190.637V190.616V190.596V190.576V190.556V190.536V190.517V190.496V190.477V190.457V190.438V190.419V190.4V190.381V190.361V190.343V190.324V190.305V190.287V190.268V190.25V190.232V190.214V190.196V190.178V190.16V190.142V190.125V190.108V190.091V190.073V190.056V190.039V190.022V190.006V189.989V189.973V189.956V189.94V189.924V189.908V189.893V189.877V189.861V189.846V189.83V189.815V189.8V189.785V189.77V189.756V189.742V189.728V189.713V189.699V189.685V189.671V189.658V189.644V189.631V189.617V189.605V189.592V189.579V189.566V189.554V189.542V189.529V189.517V189.505V189.494V189.482V189.47V189.459V189.448V189.437V189.426V189.416V189.405V189.395V189.384V189.374V189.365V189.355V189.345V189.336V189.326V189.317V189.308V189.3V189.291V189.283V189.275V189.266V189.259V189.251V189.243V189.236V189.229V189.221V189.215V189.208V189.202V189.195V189.189V189.183V189.177V189.172V189.166V189.161V189.156V189.151V189.146V189.146H226.336Z" stroke="url(#paint19_linear_101_117)" stroke-opacity="0.1" stroke-width="0.15"/>
<path d="M226.392 178.872H193.156C193.156 178.872 193.156 188.738 193.156 189.089C193.156 191.911 200.596 194.198 209.773 194.198C218.951 194.198 226.392 191.911 226.392 189.089C226.392 188.738 226.392 178.872 226.392 178.872Z" fill="url(#paint20_linear_101_117)" fill-opacity="0.1"/>
<path d="M226.336 178.928V178.93V178.935V178.94V178.946V178.951V178.957V178.963V178.969V178.976V178.983V178.99V178.997V179.004V179.011V179.019V179.027V179.035V179.044V179.052V179.06V179.069V179.078V179.087V179.097V179.107V179.116V179.126V179.136V179.146V179.157V179.167V179.179V179.189V179.2V179.212V179.224V179.236V179.248V179.26V179.272V179.284V179.296V179.309V179.323V179.335V179.349V179.362V179.376V179.389V179.404V179.417V179.431V179.446V179.461V179.476V179.491V179.506V179.521V179.536V179.551V179.567V179.583V179.599V179.615V179.632V179.648V179.665V179.681V179.698V179.715V179.732V179.749V179.767V179.785V179.803V179.821V179.839V179.857V179.875V179.893V179.912V179.931V179.95V179.968V179.988V180.007V180.026V180.046V180.066V180.085V180.106V180.125V180.145V180.166V180.187V180.207V180.228V180.248V180.269V180.29V180.311V180.333V180.354V180.376V180.397V180.419V180.441V180.463V180.485V180.507V180.529V180.552V180.574V180.597V180.62V180.643V180.666V180.688V180.712V180.735V180.759V180.782V180.805V180.829V180.853V180.877V180.901V180.925V180.949V180.973V180.998V181.022V181.047V181.072V181.096V181.121V181.146V181.171V181.196V181.221V181.246V181.272V181.297V181.323V181.348V181.374V181.4V181.426V181.452V181.477V181.504V181.53V181.556V181.582V181.609V181.635V181.661V181.688V181.714V181.741V181.768V181.795V181.822V181.849V181.876V181.903V181.93V181.957V181.985V182.012V182.04V182.067V182.095V182.122V182.15V182.178V182.206V182.233V182.261V182.289V182.317V182.345V182.373V182.401V182.429V182.458V182.485V182.514V182.542V182.571V182.599V182.628V182.656V182.685V182.713V182.742V182.77V182.799V182.828V182.857V182.885V182.914V182.943V182.972V183.001V183.03V183.059V183.088V183.117V183.146V183.175V183.204V183.233V183.262V183.292V183.321V183.35V183.379V183.409V183.438V183.467V183.496V183.526V183.555V183.584V183.614V183.643V183.673V183.702V183.731V183.76V183.79V183.82V183.849V183.878V183.908V183.937V183.967V183.996V184.025V184.055V184.084V184.114V184.143V184.173V184.202V184.231V184.261V184.29V184.32V184.349V184.378V184.408V184.437V184.466V184.495V184.525V184.554V184.583V184.612V184.642V184.671V184.7V184.729V184.759V184.788V184.817V184.846V184.875V184.904V184.933V184.962V184.991V185.02V185.049V185.077V185.106V185.135V185.164V185.192V185.221V185.25V185.278V185.307V185.335V185.364V185.392V185.421V185.449V185.477V185.506V185.534V185.562V185.59V185.618V185.646V185.674V185.702V185.73V185.758V185.785V185.813V185.841V185.869V185.896V185.923V185.951V185.978V186.006V186.033V186.06V186.088V186.115V186.142V186.169V186.195V186.222V186.249V186.275V186.302V186.328V186.355V186.382V186.408V186.434V186.46V186.486V186.512V186.538V186.564V186.589V186.616V186.641V186.667V186.692V186.718V186.742V186.768V186.793V186.818V186.843V186.868V186.892V186.917V186.942V186.966V186.991V187.015V187.039V187.063V187.087V187.111V187.135V187.159V187.183V187.206V187.229V187.252V187.276V187.299V187.322V187.345V187.368V187.39V187.413V187.435V187.458V187.48V187.502V187.524V187.546V187.567V187.589V187.611V187.633V187.654V187.675V187.696V187.717V187.738V187.759V187.779V187.799V187.819V187.84V187.86V187.88V187.9V187.92V187.939V187.959V187.978V187.997V188.016V188.035V188.053V188.072V188.091V188.109V188.128V188.146V188.164V188.182V188.199V188.216V188.234V188.251V188.268V188.285V188.302V188.318V188.335V188.351V188.368V188.383V188.399V188.415V188.431V188.446V188.461V188.476V188.491V188.506V188.521V188.535V188.55V188.563V188.578V188.591V188.605V188.619V188.632V188.645V188.658V188.671V188.683V188.696V188.708V188.72V188.732V188.744V188.755V188.767V188.779V188.789V188.8V188.811V188.821V188.832V188.842V188.852V188.862V188.872V188.881V188.89V188.899V188.908V188.917V188.926V188.934V188.941V188.95V188.957V188.965V188.972V188.98V188.986V188.993V189V189.006V189.012V189.018V189.024V189.029V189.034V189.04V189.045V189.049V189.054V189.058V189.062V189.066V189.07V189.073V189.076V189.079V189.082V189.085V189.088V189.089C226.336 189.769 225.888 190.426 225.052 191.033C224.218 191.639 223.009 192.187 221.508 192.649C218.507 193.571 214.358 194.142 209.773 194.142C205.189 194.142 201.04 193.571 198.04 192.649C196.539 192.187 195.328 191.639 194.494 191.033C193.659 190.426 193.212 189.769 193.212 189.089V189.088V189.085V189.082V189.079V189.076V189.073V189.07V189.066V189.062V189.058V189.054V189.049V189.045V189.04V189.034V189.029V189.024V189.018V189.012V189.006V189V188.993V188.986V188.98V188.972V188.965V188.957V188.95V188.941V188.934V188.926V188.917V188.908V188.899V188.89V188.881V188.872V188.862V188.852V188.842V188.832V188.821V188.811V188.8V188.789V188.779V188.767V188.755V188.744V188.732V188.72V188.708V188.696V188.683V188.671V188.658V188.645V188.632V188.619V188.605V188.591V188.578V188.563V188.55V188.535V188.521V188.506V188.491V188.476V188.461V188.446V188.431V188.415V188.399V188.383V188.368V188.351V188.335V188.318V188.302V188.285V188.268V188.251V188.234V188.216V188.199V188.182V188.164V188.146V188.128V188.109V188.091V188.072V188.053V188.035V188.016V187.997V187.978V187.959V187.939V187.92V187.9V187.88V187.86V187.84V187.819V187.799V187.779V187.759V187.738V187.717V187.696V187.675V187.654V187.633V187.611V187.589V187.567V187.546V187.524V187.502V187.48V187.458V187.435V187.413V187.39V187.368V187.345V187.322V187.299V187.276V187.252V187.229V187.206V187.183V187.159V187.135V187.111V187.087V187.063V187.039V187.015V186.991V186.966V186.942V186.917V186.892V186.868V186.843V186.818V186.793V186.768V186.742V186.718V186.692V186.667V186.641V186.616V186.589V186.564V186.538V186.512V186.486V186.46V186.434V186.408V186.382V186.355V186.328V186.302V186.275V186.249V186.222V186.195V186.169V186.142V186.115V186.088V186.06V186.033V186.006V185.978V185.951V185.923V185.896V185.869V185.841V185.813V185.785V185.758V185.73V185.702V185.674V185.646V185.618V185.59V185.562V185.534V185.506V185.477V185.449V185.421V185.392V185.364V185.335V185.307V185.278V185.25V185.221V185.192V185.164V185.135V185.106V185.077V185.049V185.02V184.991V184.962V184.933V184.904V184.875V184.846V184.817V184.788V184.759V184.729V184.7V184.671V184.642V184.612V184.583V184.554V184.525V184.495V184.466V184.437V184.408V184.378V184.349V184.32V184.29V184.261V184.231V184.202V184.173V184.143V184.114V184.084V184.055V184.025V183.996V183.967V183.937V183.908V183.878V183.849V183.82V183.79V183.76V183.731V183.702V183.673V183.643V183.614V183.584V183.555V183.526V183.496V183.467V183.438V183.409V183.379V183.35V183.321V183.292V183.262V183.233V183.204V183.175V183.146V183.117V183.088V183.059V183.03V183.001V182.972V182.943V182.914V182.885V182.857V182.828V182.799V182.77V182.742V182.713V182.685V182.656V182.628V182.599V182.571V182.542V182.514V182.485V182.458V182.429V182.401V182.373V182.345V182.317V182.289V182.261V182.233V182.206V182.178V182.15V182.122V182.095V182.067V182.04V182.012V181.985V181.957V181.93V181.903V181.876V181.849V181.822V181.795V181.768V181.741V181.714V181.688V181.661V181.635V181.609V181.582V181.556V181.53V181.504V181.477V181.452V181.426V181.4V181.374V181.348V181.323V181.297V181.272V181.246V181.221V181.196V181.171V181.146V181.121V181.096V181.072V181.047V181.022V180.998V180.973V180.949V180.925V180.901V180.877V180.853V180.829V180.805V180.782V180.759V180.735V180.712V180.688V180.666V180.643V180.62V180.597V180.574V180.552V180.529V180.507V180.485V180.463V180.441V180.419V180.397V180.376V180.354V180.333V180.311V180.29V180.269V180.248V180.228V180.207V180.187V180.166V180.145V180.125V180.106V180.085V180.066V180.046V180.026V180.007V179.988V179.968V179.95V179.931V179.912V179.893V179.875V179.857V179.839V179.821V179.803V179.785V179.767V179.749V179.732V179.715V179.698V179.681V179.665V179.648V179.632V179.615V179.599V179.583V179.567V179.551V179.536V179.521V179.506V179.491V179.476V179.461V179.446V179.431V179.417V179.404V179.389V179.376V179.362V179.349V179.335V179.323V179.309V179.296V179.284V179.272V179.26V179.248V179.236V179.224V179.212V179.2V179.189V179.179V179.167V179.157V179.146V179.136V179.126V179.116V179.107V179.097V179.087V179.078V179.069V179.06V179.052V179.044V179.035V179.027V179.019V179.011V179.004V178.997V178.99V178.983V178.976V178.969V178.963V178.957V178.951V178.946V178.94V178.935V178.93V178.928H226.336Z" stroke="url(#paint21_linear_101_117)" stroke-opacity="0.1" stroke-width="0.15"/>
<path d="M226.392 169.166H193.156C193.156 169.166 193.156 178.521 193.156 178.872C193.156 181.694 200.596 183.981 209.773 183.981C218.951 183.981 226.392 181.694 226.392 178.872C226.392 178.521 226.392 169.166 226.392 169.166Z" fill="url(#paint22_linear_101_117)" fill-opacity="0.2"/>
<path d="M226.336 169.222V169.225V169.23V169.235V169.241V169.246V169.252V169.258V169.264V169.27V169.277V169.284V169.291V169.298V169.305V169.312V169.32V169.328V169.336V169.344V169.353V169.361V169.37V169.378V169.388V169.397V169.406V169.416V169.426V169.435V169.446V169.456V169.467V169.477V169.488V169.499V169.51V169.522V169.533V169.544V169.556V169.568V169.58V169.592V169.605V169.618V169.63V169.643V169.656V169.669V169.683V169.696V169.71V169.724V169.738V169.752V169.766V169.78V169.795V169.81V169.825V169.84V169.855V169.87V169.885V169.901V169.917V169.933V169.949V169.965V169.981V169.998V170.014V170.031V170.048V170.065V170.082V170.099V170.116V170.134V170.152V170.17V170.188V170.206V170.224V170.242V170.26V170.279V170.297V170.317V170.335V170.354V170.374V170.392V170.412V170.431V170.451V170.471V170.491V170.511V170.53V170.551V170.571V170.592V170.612V170.632V170.653V170.674V170.695V170.716V170.737V170.758V170.78V170.802V170.823V170.845V170.866V170.889V170.911V170.932V170.955V170.977V170.999V171.022V171.044V171.067V171.09V171.112V171.136V171.159V171.182V171.205V171.228V171.252V171.275V171.298V171.322V171.346V171.37V171.394V171.418V171.442V171.466V171.49V171.514V171.538V171.563V171.588V171.612V171.637V171.661V171.686V171.711V171.736V171.761V171.786V171.811V171.837V171.862V171.887V171.913V171.938V171.964V171.989V172.015V172.041V172.066V172.092V172.118V172.144V172.17V172.196V172.222V172.249V172.275V172.301V172.327V172.354V172.38V172.407V172.433V172.459V172.486V172.513V172.54V172.567V172.594V172.62V172.647V172.674V172.701V172.728V172.755V172.782V172.809V172.837V172.864V172.891V172.918V172.945V172.972V173V173.027V173.055V173.083V173.11V173.137V173.165V173.192V173.22V173.248V173.275V173.303V173.33V173.358V173.386V173.413V173.441V173.469V173.497V173.524V173.552V173.581V173.608V173.636V173.664V173.692V173.719V173.747V173.776V173.803V173.831V173.859V173.887V173.915V173.943V173.971V173.998V174.027V174.055V174.082V174.11V174.139V174.166V174.194V174.222V174.25V174.278V174.306V174.334V174.361V174.389V174.418V174.445V174.473V174.501V174.529V174.556V174.584V174.612V174.64V174.667V174.695V174.723V174.751V174.778V174.805V174.833V174.861V174.889V174.916V174.943V174.971V174.998V175.026V175.053V175.081V175.108V175.135V175.162V175.189V175.217V175.244V175.271V175.298V175.325V175.352V175.379V175.406V175.433V175.46V175.486V175.513V175.54V175.567V175.594V175.62V175.646V175.673V175.699V175.726V175.752V175.778V175.804V175.831V175.857V175.883V175.909V175.935V175.96V175.987V176.012V176.038V176.064V176.089V176.115V176.14V176.166V176.191V176.216V176.242V176.266V176.292V176.317V176.341V176.366V176.391V176.416V176.44V176.465V176.49V176.514V176.539V176.563V176.587V176.611V176.635V176.659V176.683V176.707V176.73V176.754V176.777V176.8V176.824V176.848V176.871V176.893V176.917V176.94V176.962V176.985V177.007V177.031V177.052V177.075V177.097V177.12V177.142V177.163V177.185V177.207V177.229V177.25V177.272V177.293V177.314V177.336V177.357V177.378V177.398V177.419V177.439V177.46V177.481V177.501V177.521V177.541V177.561V177.581V177.601V177.62V177.64V177.659V177.678V177.697V177.716V177.735V177.754V177.772V177.791V177.809V177.828V177.846V177.864V177.882V177.899V177.917V177.934V177.952V177.969V177.986V178.003V178.02V178.036V178.053V178.069V178.086V178.102V178.118V178.134V178.15V178.165V178.18V178.196V178.211V178.226V178.24V178.255V178.27V178.285V178.299V178.312V178.327V178.34V178.354V178.368V178.381V178.394V178.407V178.42V178.432V178.445V178.458V178.47V178.482V178.494V178.506V178.517V178.528V178.54V178.551V178.562V178.573V178.583V178.594V178.604V178.614V178.624V178.633V178.643V178.653V178.662V178.671V178.68V178.688V178.697V178.705V178.714V178.721V178.729V178.737V178.744V178.751V178.759V178.765V178.772V178.778V178.785V178.791V178.797V178.802V178.808V178.813V178.819V178.823V178.828V178.833V178.837V178.841V178.846V178.849V178.852V178.856V178.859V178.862V178.865V178.867V178.87V178.872C226.336 179.551 225.888 180.208 225.052 180.815C224.218 181.422 223.009 181.969 221.508 182.431C218.507 183.353 214.358 183.925 209.773 183.925C205.189 183.925 201.04 183.353 198.04 182.431C196.539 181.969 195.328 181.422 194.494 180.815C193.659 180.208 193.212 179.551 193.212 178.872V178.87V178.867V178.865V178.862V178.859V178.856V178.852V178.849V178.846V178.841V178.837V178.833V178.828V178.823V178.819V178.813V178.808V178.802V178.797V178.791V178.785V178.778V178.772V178.765V178.759V178.751V178.744V178.737V178.729V178.721V178.714V178.705V178.697V178.688V178.68V178.671V178.662V178.653V178.643V178.633V178.624V178.614V178.604V178.594V178.583V178.573V178.562V178.551V178.54V178.528V178.517V178.506V178.494V178.482V178.47V178.458V178.445V178.432V178.42V178.407V178.394V178.381V178.368V178.354V178.34V178.327V178.312V178.299V178.285V178.27V178.255V178.24V178.226V178.211V178.196V178.18V178.165V178.15V178.134V178.118V178.102V178.086V178.069V178.053V178.036V178.02V178.003V177.986V177.969V177.952V177.934V177.917V177.899V177.882V177.864V177.846V177.828V177.809V177.791V177.772V177.754V177.735V177.716V177.697V177.678V177.659V177.64V177.62V177.601V177.581V177.561V177.541V177.521V177.501V177.481V177.46V177.439V177.419V177.398V177.378V177.357V177.336V177.314V177.293V177.272V177.25V177.229V177.207V177.185V177.163V177.142V177.12V177.097V177.075V177.052V177.031V177.007V176.985V176.962V176.94V176.917V176.893V176.871V176.848V176.824V176.8V176.777V176.754V176.73V176.707V176.683V176.659V176.635V176.611V176.587V176.563V176.539V176.514V176.49V176.465V176.44V176.416V176.391V176.366V176.341V176.317V176.292V176.266V176.242V176.216V176.191V176.166V176.14V176.115V176.089V176.064V176.038V176.012V175.987V175.96V175.935V175.909V175.883V175.857V175.831V175.804V175.778V175.752V175.726V175.699V175.673V175.646V175.62V175.594V175.567V175.54V175.513V175.486V175.46V175.433V175.406V175.379V175.352V175.325V175.298V175.271V175.244V175.217V175.189V175.162V175.135V175.108V175.081V175.053V175.026V174.998V174.971V174.943V174.916V174.889V174.861V174.833V174.805V174.778V174.751V174.723V174.695V174.667V174.64V174.612V174.584V174.556V174.529V174.501V174.473V174.445V174.418V174.389V174.361V174.334V174.306V174.278V174.25V174.222V174.194V174.166V174.139V174.11V174.082V174.055V174.027V173.998V173.971V173.943V173.915V173.887V173.859V173.831V173.803V173.776V173.747V173.719V173.692V173.664V173.636V173.608V173.581V173.552V173.524V173.497V173.469V173.441V173.413V173.386V173.358V173.33V173.303V173.275V173.248V173.22V173.192V173.165V173.137V173.11V173.083V173.055V173.027V173V172.972V172.945V172.918V172.891V172.864V172.837V172.809V172.782V172.755V172.728V172.701V172.674V172.647V172.62V172.594V172.567V172.54V172.513V172.486V172.459V172.433V172.407V172.38V172.354V172.327V172.301V172.275V172.249V172.222V172.196V172.17V172.144V172.118V172.092V172.066V172.041V172.015V171.989V171.964V171.938V171.913V171.887V171.862V171.837V171.811V171.786V171.761V171.736V171.711V171.686V171.661V171.637V171.612V171.588V171.563V171.538V171.514V171.49V171.466V171.442V171.418V171.394V171.37V171.346V171.322V171.298V171.275V171.252V171.228V171.205V171.182V171.159V171.136V171.112V171.09V171.067V171.044V171.022V170.999V170.977V170.955V170.932V170.911V170.889V170.866V170.845V170.823V170.802V170.78V170.758V170.737V170.716V170.695V170.674V170.653V170.632V170.612V170.592V170.571V170.551V170.53V170.511V170.491V170.471V170.451V170.431V170.412V170.392V170.374V170.354V170.335V170.317V170.297V170.279V170.26V170.242V170.224V170.206V170.188V170.17V170.152V170.134V170.116V170.099V170.082V170.065V170.048V170.031V170.014V169.998V169.981V169.965V169.949V169.933V169.917V169.901V169.885V169.87V169.855V169.84V169.825V169.81V169.795V169.78V169.766V169.752V169.738V169.724V169.71V169.696V169.683V169.669V169.656V169.643V169.63V169.618V169.605V169.592V169.58V169.568V169.556V169.544V169.533V169.522V169.51V169.499V169.488V169.477V169.467V169.456V169.446V169.435V169.426V169.416V169.406V169.397V169.388V169.378V169.37V169.361V169.353V169.344V169.336V169.328V169.32V169.312V169.305V169.298V169.291V169.284V169.277V169.27V169.264V169.258V169.252V169.246V169.241V169.235V169.23V169.225V169.222H226.336Z" stroke="url(#paint23_linear_101_117)" stroke-opacity="0.1" stroke-width="0.15"/>
<path d="M209.773 173.763C218.951 173.763 226.392 171.705 226.392 169.165C226.392 166.626 218.951 164.567 209.773 164.567C200.596 164.567 193.156 166.626 193.156 169.165C193.156 171.705 200.596 173.763 209.773 173.763Z" fill="url(#paint24_linear_101_117)" fill-opacity="0.5"/>
<path d="M226.336 169.166C226.336 169.771 225.892 170.361 225.055 170.908C224.221 171.454 223.01 171.947 221.509 172.363C218.508 173.193 214.359 173.707 209.773 173.707C205.188 173.707 201.039 173.193 198.037 172.363C196.537 171.947 195.326 171.454 194.492 170.908C193.656 170.361 193.212 169.771 193.212 169.166C193.212 168.56 193.656 167.97 194.492 167.423C195.326 166.877 196.537 166.384 198.037 165.968C201.039 165.138 205.188 164.624 209.773 164.624C214.359 164.624 218.508 165.138 221.509 165.968C223.01 166.384 224.221 166.877 225.055 167.423C225.892 167.97 226.336 168.56 226.336 169.166Z" stroke="url(#paint25_linear_101_117)" stroke-opacity="0.1" stroke-width="0.15"/>
<path d="M223.489 203.22C219.165 194.619 209.879 188.652 199.089 188.652C185.479 188.652 174.248 198.13 172.385 210.447C172.285 210.443 172.189 210.418 172.084 210.418C161.433 210.418 152.795 218.54 152.795 228.556C152.795 238.572 161.433 246.694 172.084 246.694C179.256 246.694 215.122 246.694 222.235 246.694C235.02 246.694 245.382 236.95 245.382 224.928C245.382 213.305 235.687 203.837 223.489 203.22Z" fill="url(#paint26_linear_101_117)"/>
<defs>
<linearGradient id="paint0_linear_101_117" x1="152.065" y1="96.6938" x2="152.065" y2="222.561" gradientUnits="userSpaceOnUse">
<stop stop-color="#E6EEF5"/>
<stop offset="0.614583" stop-color="#EAF1F7" stop-opacity="0.833333"/>
<stop offset="0.994792" stop-color="white" stop-opacity="0"/>
</linearGradient>
<linearGradient id="paint1_linear_101_117" x1="152.065" y1="96.6938" x2="152.065" y2="222.561" gradientUnits="userSpaceOnUse">
<stop stop-color="#E6EEF5"/>
<stop offset="0.614583" stop-color="#EAF1F7" stop-opacity="0.833333"/>
<stop offset="0.994792" stop-color="white" stop-opacity="0"/>
</linearGradient>
<linearGradient id="paint2_linear_101_117" x1="129.118" y1="116.399" x2="129.118" y2="129.649" gradientUnits="userSpaceOnUse">
<stop stop-color="#E6EEF5"/>
<stop offset="0.614583" stop-color="#EAF1F7" stop-opacity="0.833333"/>
<stop offset="0.994792" stop-color="white" stop-opacity="0"/>
</linearGradient>
<linearGradient id="paint3_linear_101_117" x1="129.059" y1="131.725" x2="129.059" y2="151.431" gradientUnits="userSpaceOnUse">
<stop stop-color="#E6EEF5"/>
<stop offset="0.614583" stop-color="#EAF1F7" stop-opacity="0.833333"/>
<stop offset="0.994792" stop-color="white" stop-opacity="0"/>
</linearGradient>
<linearGradient id="paint4_linear_101_117" x1="146.678" y1="172.876" x2="146.678" y2="179.501" gradientUnits="userSpaceOnUse">
<stop stop-color="#E6EEF5"/>
<stop offset="0.614583" stop-color="#EAF1F7" stop-opacity="0.833333"/>
<stop offset="0.994792" stop-color="white" stop-opacity="0"/>
</linearGradient>
<linearGradient id="paint5_linear_101_117" x1="152.066" y1="159.628" x2="152.066" y2="166.252" gradientUnits="userSpaceOnUse">
<stop stop-color="#E6EEF5"/>
<stop offset="0.614583" stop-color="#EAF1F7" stop-opacity="0.833333"/>
<stop offset="0.994792" stop-color="white" stop-opacity="0"/>
</linearGradient>
<linearGradient id="paint6_linear_101_117" x1="146.678" y1="199.375" x2="146.678" y2="205.999" gradientUnits="userSpaceOnUse">
<stop stop-color="#E6EEF5"/>
<stop offset="0.614583" stop-color="#EAF1F7" stop-opacity="0.833333"/>
<stop offset="0.994792" stop-color="white" stop-opacity="0"/>
</linearGradient>
<linearGradient id="paint7_linear_101_117" x1="146.678" y1="186.126" x2="146.678" y2="192.75" gradientUnits="userSpaceOnUse">
<stop stop-color="#E6EEF5"/>
<stop offset="0.614583" stop-color="#EAF1F7" stop-opacity="0.833333"/>
<stop offset="0.994792" stop-color="white" stop-opacity="0"/>
</linearGradient>
<linearGradient id="paint8_linear_101_117" x1="170.023" y1="133.13" x2="170.023" y2="139.754" gradientUnits="userSpaceOnUse">
<stop stop-color="#E6EEF5"/>
<stop offset="0.614583" stop-color="#EAF1F7" stop-opacity="0.833333"/>
<stop offset="0.994792" stop-color="white" stop-opacity="0"/>
</linearGradient>
<linearGradient id="paint9_linear_101_117" x1="170.023" y1="119.88" x2="170.023" y2="126.505" gradientUnits="userSpaceOnUse">
<stop stop-color="#E6EEF5"/>
<stop offset="0.614583" stop-color="#EAF1F7" stop-opacity="0.833333"/>
<stop offset="0.994792" stop-color="white" stop-opacity="0"/>
</linearGradient>
<linearGradient id="paint10_linear_101_117" x1="219.268" y1="210.661" x2="249.256" y2="210.661" gradientUnits="userSpaceOnUse">
<stop stop-color="#11408A"/>
<stop offset="1" stop-color="#103F8F"/>
</linearGradient>
<linearGradient id="paint11_linear_101_117" x1="234.262" y1="204.208" x2="234.262" y2="217.114" gradientUnits="userSpaceOnUse">
<stop stop-color="#E6EEF5"/>
<stop offset="0.614583" stop-color="#EAF1F7" stop-opacity="0.833333"/>
<stop offset="0.994792" stop-color="white" stop-opacity="0"/>
</linearGradient>
<linearGradient id="paint12_linear_101_117" x1="219.268" y1="201.904" x2="249.256" y2="201.904" gradientUnits="userSpaceOnUse">
<stop stop-color="#1D59B3"/>
<stop offset="1" stop-color="#195BBC"/>
</linearGradient>
<linearGradient id="paint13_linear_101_117" x1="234.262" y1="194.99" x2="234.262" y2="208.818" gradientUnits="userSpaceOnUse">
<stop stop-color="#E6EEF5"/>
<stop offset="0.614583" stop-color="#EAF1F7" stop-opacity="0.833333"/>
<stop offset="0.994792" stop-color="white" stop-opacity="0"/>
</linearGradient>
<linearGradient id="paint14_linear_101_117" x1="219.268" y1="192.916" x2="249.256" y2="192.916" gradientUnits="userSpaceOnUse">
<stop stop-color="#3079D6"/>
<stop offset="1" stop-color="#297CD2"/>
</linearGradient>
<linearGradient id="paint15_linear_101_117" x1="234.262" y1="186.232" x2="234.262" y2="199.599" gradientUnits="userSpaceOnUse">
<stop stop-color="#E6EEF5"/>
<stop offset="0.614583" stop-color="#EAF1F7" stop-opacity="0.833333"/>
<stop offset="0.994792" stop-color="white" stop-opacity="0"/>
</linearGradient>
<linearGradient id="paint16_linear_101_117" x1="219.268" y1="186.232" x2="249.256" y2="186.232" gradientUnits="userSpaceOnUse">
<stop stop-color="#42A3F2"/>
<stop offset="1" stop-color="#42A4EB"/>
</linearGradient>
<linearGradient id="paint17_linear_101_117" x1="234.262" y1="182.083" x2="234.262" y2="190.38" gradientUnits="userSpaceOnUse">
<stop stop-color="#E6EEF5"/>
<stop offset="0.614583" stop-color="#EAF1F7" stop-opacity="0.833333"/>
<stop offset="0.994792" stop-color="white" stop-opacity="0"/>
</linearGradient>
<linearGradient id="paint18_linear_101_117" x1="193.156" y1="196.242" x2="226.392" y2="196.242" gradientUnits="userSpaceOnUse">
<stop stop-color="#11408A" stop-opacity="0.47"/>
<stop offset="0.5" stop-color="#103F8F" stop-opacity="0.08"/>
</linearGradient>
<linearGradient id="paint19_linear_101_117" x1="209.773" y1="189.089" x2="209.773" y2="203.394" gradientUnits="userSpaceOnUse">
<stop stop-color="#E6EEF5"/>
<stop offset="0.614583" stop-color="#EAF1F7" stop-opacity="0.833333"/>
<stop offset="0.994792" stop-color="white" stop-opacity="0"/>
</linearGradient>
<linearGradient id="paint20_linear_101_117" x1="193.156" y1="186.535" x2="226.392" y2="186.535" gradientUnits="userSpaceOnUse">
<stop stop-color="#1D59B3"/>
<stop offset="1" stop-color="#195BBC"/>
</linearGradient>
<linearGradient id="paint21_linear_101_117" x1="209.773" y1="178.872" x2="209.773" y2="194.198" gradientUnits="userSpaceOnUse">
<stop stop-color="#E6EEF5"/>
<stop offset="0.614583" stop-color="#EAF1F7" stop-opacity="0.833333"/>
<stop offset="0.994792" stop-color="white" stop-opacity="0"/>
</linearGradient>
<linearGradient id="paint22_linear_101_117" x1="193.156" y1="176.573" x2="226.392" y2="176.573" gradientUnits="userSpaceOnUse">
<stop stop-color="#3079D6"/>
<stop offset="1" stop-color="#297CD2"/>
</linearGradient>
<linearGradient id="paint23_linear_101_117" x1="209.773" y1="169.165" x2="209.773" y2="183.981" gradientUnits="userSpaceOnUse">
<stop stop-color="#E6EEF5"/>
<stop offset="0.614583" stop-color="#EAF1F7" stop-opacity="0.833333"/>
<stop offset="0.994792" stop-color="white" stop-opacity="0"/>
</linearGradient>
<linearGradient id="paint24_linear_101_117" x1="193.156" y1="169.165" x2="226.392" y2="169.165" gradientUnits="userSpaceOnUse">
<stop stop-color="#42A3F2"/>
<stop offset="1" stop-color="#42A4EB"/>
</linearGradient>
<linearGradient id="paint25_linear_101_117" x1="209.773" y1="164.567" x2="209.773" y2="173.763" gradientUnits="userSpaceOnUse">
<stop stop-color="#E6EEF5"/>
<stop offset="0.614583" stop-color="#EAF1F7" stop-opacity="0.833333"/>
<stop offset="0.994792" stop-color="white" stop-opacity="0"/>
</linearGradient>
<linearGradient id="paint26_linear_101_117" x1="185.513" y1="191.449" x2="205.159" y2="248.695" gradientUnits="userSpaceOnUse">
<stop stop-color="#2AA4F4"/>
<stop offset="1" stop-color="#007AD9"/>
</linearGradient>
</defs>
</svg>
