<svg width="150" height="150" viewBox="0 0 150 150" fill="none" xmlns="http://www.w3.org/2000/svg">
<rect width="150" height="150" rx="5" fill="white"/>
<path d="M99.1966 27.784V105.519C99.1966 108.021 96.998 110.053 94.2775 110.053H29.822C27.101 110.053 24.9028 108.021 24.9028 105.519V27.784C24.9028 25.282 27.101 23.25 29.822 23.25H94.2775C96.998 23.25 99.1966 25.282 99.1966 27.784Z" fill="white" fill-opacity="0.833333"/>
<path d="M99.1966 27.784V105.519C99.1966 108.021 96.998 110.053 94.2775 110.053H29.822C27.101 110.053 24.9028 108.021 24.9028 105.519V27.784C24.9028 25.282 27.101 23.25 29.822 23.25H94.2775C96.998 23.25 99.1966 25.282 99.1966 27.784Z" fill="#E6EEF5"/>
<path d="M99.1966 27.784V105.519C99.1966 108.021 96.998 110.053 94.2775 110.053H29.822C27.101 110.053 24.9028 108.021 24.9028 105.519V27.784C24.9028 25.282 27.101 23.25 29.822 23.25H94.2775C96.998 23.25 99.1966 25.282 99.1966 27.784Z" stroke="url(#paint0_linear_105_129)" stroke-width="0.15"/>
<path d="M99.1966 27.784V105.519C99.1966 108.021 96.998 110.053 94.2775 110.053H29.822C27.101 110.053 24.9028 108.021 24.9028 105.519V27.784C24.9028 25.282 27.101 23.25 29.822 23.25H94.2775C96.998 23.25 99.1966 25.282 99.1966 27.784Z" stroke="#696969" stroke-opacity="0.8" stroke-width="0.15"/>
<path d="M51.1293 41.3858C51.1293 43.8868 48.9301 45.9197 46.2101 45.9197C43.4902 45.9197 41.291 43.8868 41.291 41.3858C41.291 38.8848 43.4902 36.8518 46.2101 36.8518C48.9301 36.8518 51.1293 38.8848 51.1293 41.3858Z" fill="#3586CB" stroke="url(#paint1_linear_105_129)" stroke-width="0.15"/>
<path d="M38.014 55.553C38.014 51.0672 41.6642 47.4309 46.1687 47.4309C50.6726 47.4309 54.3234 51.0672 54.3234 55.553V59.3617C54.3234 60.2407 53.6059 60.9552 52.7232 60.9552H39.6137C38.731 60.9552 38.014 60.2407 38.014 59.3617V55.553Z" fill="#3586CB" stroke="url(#paint2_linear_105_129)" stroke-width="0.15"/>
<path d="M39.7384 75.8359H76.9239C78.274 75.8359 79.3643 76.846 79.3643 78.0833C79.3643 79.3211 78.274 80.3311 76.9239 80.3311H39.7384C38.3882 80.3311 37.298 79.3211 37.298 78.0833C37.298 76.846 38.3882 75.8359 39.7384 75.8359Z" fill="#3586CB" stroke="url(#paint3_linear_105_129)" stroke-width="0.15"/>
<path d="M39.7384 66.6909H84.3611C85.7112 66.6909 86.8015 67.7004 86.8015 68.9382C86.8015 70.176 85.7112 71.1855 84.3611 71.1855H39.7384C38.3882 71.1855 37.298 70.176 37.298 68.9382C37.298 67.7004 38.3882 66.6909 39.7384 66.6909Z" fill="#3586CB" stroke="url(#paint4_linear_105_129)" stroke-width="0.15"/>
<path d="M39.7384 94.127H76.9239C78.274 94.127 79.3643 95.137 79.3643 96.3748C79.3643 97.6121 78.274 98.6221 76.9239 98.6221H39.7384C38.3882 98.6221 37.298 97.6121 37.298 96.3748C37.298 95.137 38.3882 94.127 39.7384 94.127Z" fill="#3586CB" stroke="url(#paint5_linear_105_129)" stroke-width="0.15"/>
<path d="M39.7384 84.9817H76.9239C78.274 84.9817 79.3643 85.9912 79.3643 87.229C79.3643 88.4668 78.274 89.4763 76.9239 89.4763H39.7384C38.3882 89.4763 37.298 88.4668 37.298 87.229C37.298 85.9912 38.3882 84.9817 39.7384 84.9817Z" fill="#3586CB" stroke="url(#paint6_linear_105_129)" stroke-width="0.15"/>
<path d="M64.5288 48.4001H84.3611C85.7113 48.4001 86.801 49.4096 86.801 50.6475C86.801 51.8853 85.7113 52.8948 84.3611 52.8948H64.5288C63.1786 52.8948 62.0884 51.8853 62.0884 50.6475C62.0884 49.4096 63.1786 48.4001 64.5288 48.4001Z" fill="#3586CB" stroke="url(#paint7_linear_105_129)" stroke-width="0.15"/>
<path d="M64.5288 39.2544H84.3611C85.7113 39.2544 86.801 40.2644 86.801 41.5022C86.801 42.7395 85.7113 43.7495 84.3611 43.7495H64.5288C63.1786 43.7495 62.0884 42.7395 62.0884 41.5022C62.0884 40.2644 63.1786 39.2544 64.5288 39.2544Z" fill="#3586CB" stroke="url(#paint8_linear_105_129)" stroke-width="0.15"/>
<path d="M129.097 97.4629V97.4655V97.4686V97.4717V97.4753V97.4784V97.482V97.4862V97.4898V97.494V97.4976V97.5017V97.5064V97.5105V97.5152V97.5198V97.5245V97.5292V97.5343V97.539V97.5442V97.5493V97.555V97.5602V97.5659V97.5716V97.5773V97.583V97.5892V97.5954V97.6011V97.6073V97.6141V97.6203V97.627V97.6337V97.6405V97.6472V97.6539V97.6612V97.6684V97.6757V97.6829V97.6902V97.6979V97.7052V97.7129V97.7207V97.7285V97.7367V97.7445V97.7528V97.7611V97.7694V97.7776V97.7864V97.7947V97.8035V97.8123V97.8211V97.8299V97.8392V97.848V97.8574V97.8667V97.876V97.8853V97.8952V97.9045V97.9143V97.9242V97.934V97.9438V97.9537V97.964V97.9739V97.9842V97.9946V98.0049V98.0153V98.0256V98.0365V98.0474V98.0577V98.0686V98.0795V98.0908V98.1017V98.1126V98.124V98.1354V98.1468V98.1581V98.1695V98.1809V98.1928V98.2042V98.2161V98.228V98.2399V98.2519V98.2638V98.2762V98.2881V98.3005V98.3124V98.3248V98.3373V98.3497V98.3621V98.3751V98.3875V98.4004V98.4129V98.4258V98.4387V98.4517V98.4646V98.4776V98.491V98.504V98.5174V98.5304V98.5438V98.5573V98.5707V98.5842V98.5977V98.6117V98.6251V98.6391V98.6526V98.6665V98.6805V98.6945V98.7085V98.7224V98.7364V98.7504V98.7644V98.7789V98.7928V98.8073V98.8218V98.8363V98.8503V98.8648V98.8793V98.8943V98.9088V98.9233V98.9378V98.9528V98.9673V98.9823V98.9973V99.0123V99.0268V99.0419V99.0569V99.0719V99.0869V99.1024V99.1174V99.1325V99.148V99.163V99.1785V99.1935V99.2091V99.2246V99.2401V99.2552V99.2707V99.2862V99.3017V99.3173V99.3333V99.3489V99.3644V99.3799V99.396V99.4115V99.427V99.4431V99.4591V99.4746V99.4907V99.5067V99.5223V99.5383V99.5544V99.5704V99.5865V99.6025V99.6186V99.6346V99.6507V99.6667V99.6828V99.6988V99.7149V99.7314V99.7475V99.7635V99.7796V99.7961V99.8122V99.8287V99.8448V99.8614V99.8774V99.894V99.91V99.9266V99.9426V99.9592V99.9753V99.9918V100.008V100.024V100.041V100.058V100.074V100.09V100.107V100.123V100.14V100.156V100.172V100.189V100.206V100.222V100.238V100.255V100.271V100.288V100.304V100.321V100.337V100.354V100.37V100.386V100.403V100.419V100.436V100.453V100.469V100.485V100.502V100.518V100.534V100.551V100.567V100.584V100.6V100.617V100.633V100.649V100.665V100.682V100.698V100.715V100.731V100.747V100.763V100.78V100.796V100.812V100.828V100.844V100.861V100.877V100.893V100.909V100.925V100.941V100.957V100.973V100.989V101.005V101.022V101.038V101.053V101.069V101.085V101.101V101.117V101.133V101.148V101.164V101.18V101.196V101.212V101.227V101.243V101.259V101.274V101.29V101.305V101.321V101.336V101.351V101.367V101.382V101.397V101.413V101.428V101.443V101.458V101.474V101.489V101.504V101.519V101.534V101.549V101.564V101.579V101.594V101.609V101.624V101.638V101.653V101.668V101.682V101.697V101.711V101.726V101.74V101.755V101.769V101.784V101.798V101.812V101.826V101.84V101.854V101.868V101.882V101.896V101.91V101.924V101.938V101.951V101.965V101.979V101.992V102.006V102.019V102.033V102.046V102.059V102.072V102.086V102.099V102.112V102.125V102.138V102.151V102.164V102.176V102.189V102.202V102.215V102.227V102.24V102.252V102.265V102.277V102.289V102.301V102.313V102.326V102.337V102.349V102.361V102.373V102.385V102.397V102.408V102.419V102.431V102.442V102.453V102.465V102.476V102.487V102.498V102.509V102.52V102.531V102.541V102.552V102.563V102.573V102.583V102.594V102.604V102.614V102.624V102.634V102.644V102.654V102.664V102.673V102.683V102.693V102.702V102.712V102.721V102.73V102.739V102.749V102.757V102.766V102.775V102.784V102.792V102.801V102.809V102.817V102.826V102.834V102.842V102.85V102.858V102.866V102.874V102.881V102.889V102.896V102.903V102.911V102.918V102.925V102.932V102.939V102.946V102.953V102.959V102.965V102.972V102.978V102.984V102.99V102.997V103.002V103.008V103.014V103.019V103.025V103.03V103.035V103.041V103.046V103.051V103.056V103.06V103.065V103.07V103.074V103.078V103.082V103.087V103.091V103.094V103.098V103.102V103.105V103.109V103.112V103.116V103.119V103.121V103.124V103.127V103.13V103.132V103.135V103.137V103.139V103.141V103.143V103.145V103.147V103.148V103.15V103.151C129.097 103.572 128.82 103.981 128.3 104.358C127.781 104.735 127.027 105.077 126.093 105.364C124.225 105.938 121.641 106.294 118.786 106.294C115.931 106.294 113.348 105.938 111.479 105.364C110.545 105.077 109.792 104.735 109.273 104.358C108.753 103.981 108.476 103.572 108.476 103.151V103.15V103.148V103.147V103.145V103.143V103.141V103.139V103.137V103.135V103.132V103.13V103.127V103.124V103.121V103.119V103.116V103.112V103.109V103.105V103.102V103.098V103.094V103.091V103.087V103.082V103.078V103.074V103.07V103.065V103.06V103.056V103.051V103.046V103.041V103.035V103.03V103.025V103.019V103.014V103.008V103.002V102.997V102.99V102.984V102.978V102.972V102.965V102.959V102.953V102.946V102.939V102.932V102.925V102.918V102.911V102.903V102.896V102.889V102.881V102.874V102.866V102.858V102.85V102.842V102.834V102.826V102.817V102.809V102.801V102.792V102.784V102.775V102.766V102.757V102.749V102.739V102.73V102.721V102.712V102.702V102.693V102.683V102.673V102.664V102.654V102.644V102.634V102.624V102.614V102.604V102.594V102.583V102.573V102.563V102.552V102.541V102.531V102.52V102.509V102.498V102.487V102.476V102.465V102.453V102.442V102.431V102.419V102.408V102.397V102.385V102.373V102.361V102.349V102.337V102.326V102.313V102.301V102.289V102.277V102.265V102.252V102.24V102.227V102.215V102.202V102.189V102.176V102.164V102.151V102.138V102.125V102.112V102.099V102.086V102.072V102.059V102.046V102.033V102.019V102.006V101.992V101.979V101.965V101.951V101.938V101.924V101.91V101.896V101.882V101.868V101.854V101.84V101.826V101.812V101.798V101.784V101.769V101.755V101.74V101.726V101.711V101.697V101.682V101.668V101.653V101.638V101.624V101.609V101.594V101.579V101.564V101.549V101.534V101.519V101.504V101.489V101.474V101.458V101.443V101.428V101.413V101.397V101.382V101.367V101.351V101.336V101.321V101.305V101.29V101.274V101.259V101.243V101.227V101.212V101.196V101.18V101.164V101.148V101.133V101.117V101.101V101.085V101.069V101.053V101.038V101.022V101.005V100.989V100.973V100.957V100.941V100.925V100.909V100.893V100.877V100.861V100.844V100.828V100.812V100.796V100.78V100.763V100.747V100.731V100.715V100.698V100.682V100.665V100.649V100.633V100.617V100.6V100.584V100.567V100.551V100.534V100.518V100.502V100.485V100.469V100.453V100.436V100.419V100.403V100.386V100.37V100.354V100.337V100.321V100.304V100.288V100.271V100.255V100.238V100.222V100.206V100.189V100.172V100.156V100.14V100.123V100.107V100.09V100.074V100.058V100.041V100.024V100.008V99.9918V99.9753V99.9592V99.9426V99.9266V99.91V99.894V99.8774V99.8614V99.8448V99.8287V99.8122V99.7961V99.7796V99.7635V99.7475V99.7314V99.7149V99.6988V99.6828V99.6667V99.6507V99.6346V99.6186V99.6025V99.5865V99.5704V99.5544V99.5383V99.5223V99.5067V99.4907V99.4746V99.4591V99.4431V99.427V99.4115V99.396V99.3799V99.3644V99.3489V99.3333V99.3173V99.3017V99.2862V99.2707V99.2552V99.2401V99.2246V99.2091V99.1935V99.1785V99.163V99.148V99.1325V99.1174V99.1024V99.0869V99.0719V99.0569V99.0419V99.0268V99.0123V98.9973V98.9823V98.9673V98.9528V98.9378V98.9233V98.9088V98.8943V98.8793V98.8648V98.8503V98.8363V98.8218V98.8073V98.7928V98.7789V98.7644V98.7504V98.7364V98.7224V98.7085V98.6945V98.6805V98.6665V98.6526V98.6391V98.6251V98.6117V98.5977V98.5842V98.5707V98.5573V98.5438V98.5304V98.5174V98.504V98.491V98.4776V98.4646V98.4517V98.4387V98.4258V98.4129V98.4004V98.3875V98.3751V98.3621V98.3497V98.3373V98.3248V98.3124V98.3005V98.2881V98.2762V98.2638V98.2519V98.2399V98.228V98.2161V98.2042V98.1928V98.1809V98.1695V98.1581V98.1468V98.1354V98.124V98.1126V98.1017V98.0908V98.0795V98.0686V98.0577V98.0474V98.0365V98.0256V98.0153V98.0049V97.9946V97.9842V97.9739V97.964V97.9537V97.9438V97.934V97.9242V97.9143V97.9045V97.8952V97.8853V97.876V97.8667V97.8574V97.848V97.8392V97.8299V97.8211V97.8123V97.8035V97.7947V97.7864V97.7776V97.7694V97.7611V97.7528V97.7445V97.7367V97.7285V97.7207V97.7129V97.7052V97.6979V97.6902V97.6829V97.6757V97.6684V97.6612V97.6539V97.6472V97.6405V97.6337V97.627V97.6203V97.6141V97.6073V97.6011V97.5954V97.5892V97.583V97.5773V97.5716V97.5659V97.5602V97.555V97.5493V97.5442V97.539V97.5343V97.5292V97.5245V97.5198V97.5152V97.5105V97.5064V97.5017V97.4976V97.494V97.4898V97.4862V97.482V97.4784V97.4753V97.4717V97.4686V97.4655V97.4629H129.097Z" fill="url(#paint9_linear_105_129)" stroke="url(#paint10_linear_105_129)" stroke-width="0.15"/>
<path d="M129.097 91.0996V91.1001V91.1032V91.1069V91.1105V91.1141V91.1177V91.1219V91.1255V91.1296V91.1343V91.1384V91.1431V91.1478V91.1524V91.1576V91.1623V91.1674V91.1726V91.1783V91.1835V91.1892V91.1949V91.2011V91.2068V91.213V91.2192V91.2254V91.2316V91.2384V91.2451V91.2518V91.2585V91.2658V91.2725V91.2798V91.287V91.2948V91.302V91.3098V91.3176V91.3253V91.3331V91.3414V91.3497V91.358V91.3662V91.3745V91.3833V91.3916V91.4004V91.4092V91.4185V91.4273V91.4366V91.446V91.4553V91.4646V91.4744V91.4843V91.4936V91.5039V91.5138V91.5236V91.534V91.5443V91.5547V91.565V91.5754V91.5857V91.5966V91.6075V91.6183V91.6292V91.6406V91.6515V91.6629V91.6743V91.6856V91.697V91.7084V91.7203V91.7317V91.7436V91.7555V91.768V91.7799V91.7918V91.8042V91.8166V91.8291V91.8415V91.8539V91.8668V91.8793V91.8922V91.9051V91.9181V91.931V91.944V91.9574V91.9704V91.9838V91.9973V92.0108V92.0242V92.0377V92.0517V92.0656V92.0791V92.0931V92.1071V92.121V92.135V92.1495V92.1635V92.178V92.1925V92.207V92.2215V92.236V92.2505V92.2649V92.28V92.2945V92.3095V92.3245V92.3395V92.3545V92.3695V92.385V92.4001V92.4151V92.4306V92.4461V92.4617V92.4772V92.4927V92.5083V92.5238V92.5398V92.5554V92.5714V92.587V92.603V92.6191V92.6351V92.6511V92.6672V92.6838V92.6998V92.7159V92.7324V92.7485V92.765V92.7816V92.7982V92.8147V92.8313V92.8479V92.8644V92.8815V92.8981V92.9147V92.9317V92.9488V92.9654V92.9825V92.9996V93.0166V93.0337V93.0508V93.0679V93.085V93.1021V93.1197V93.1368V93.1544V93.1714V93.189V93.2061V93.2237V93.2413V93.2589V93.276V93.2936V93.3112V93.3288V93.3464V93.3645V93.3821V93.3997V93.4173V93.4355V93.4531V93.4712V93.4888V93.5069V93.5245V93.5426V93.5602V93.5783V93.5965V93.6146V93.6322V93.6503V93.6684V93.6865V93.7047V93.7228V93.7409V93.759V93.7771V93.7952V93.8134V93.8315V93.8496V93.8677V93.8864V93.9045V93.9226V93.9407V93.9594V93.9775V93.9956V94.0137V94.0324V94.0505V94.0691V94.0872V94.1053V94.124V94.1421V94.1602V94.1789V94.197V94.2156V94.2337V94.2519V94.2705V94.2886V94.3073V94.3254V94.3435V94.3621V94.3802V94.3989V94.417V94.4351V94.4538V94.4719V94.49V94.5086V94.5268V94.5449V94.563V94.5816V94.5997V94.6179V94.636V94.6541V94.6722V94.6909V94.709V94.7271V94.7452V94.7633V94.7815V94.7996V94.8177V94.8353V94.8534V94.8715V94.8897V94.9078V94.9254V94.9435V94.9616V94.9792V94.9973V95.0149V95.0331V95.0507V95.0683V95.0864V95.104V95.1216V95.1392V95.1568V95.1744V95.192V95.2096V95.2272V95.2448V95.2624V95.28V95.2971V95.3147V95.3318V95.3494V95.3664V95.384V95.4011V95.4182V95.4353V95.4524V95.4695V95.4866V95.5036V95.5207V95.5378V95.5544V95.5715V95.588V95.6051V95.6217V95.6383V95.6548V95.6714V95.6879V95.7045V95.7211V95.7376V95.7542V95.7702V95.7868V95.8029V95.8189V95.835V95.8515V95.8676V95.8836V95.8992V95.9152V95.9313V95.9468V95.9628V95.9784V95.9939V96.0094V96.025V96.0405V96.056V96.0715V96.0866V96.1021V96.1171V96.1321V96.1471V96.1622V96.1772V96.1922V96.2072V96.2217V96.2362V96.2512V96.2657V96.2802V96.2947V96.3092V96.3232V96.3376V96.3516V96.3661V96.3801V96.3941V96.4081V96.4215V96.4355V96.4489V96.4629V96.4764V96.4899V96.5033V96.5168V96.5297V96.5432V96.5561V96.5691V96.5825V96.5949V96.6079V96.6208V96.6333V96.6462V96.6586V96.671V96.6835V96.6954V96.7078V96.7197V96.7316V96.744V96.7554V96.7673V96.7792V96.7906V96.802V96.8139V96.8248V96.8362V96.8476V96.8585V96.8693V96.8807V96.8911V96.9019V96.9128V96.9232V96.9335V96.9439V96.9542V96.9646V96.9744V96.9842V96.9946V97.0039V97.0138V97.0236V97.0329V97.0422V97.0515V97.0609V97.0702V97.079V97.0878V97.0966V97.1054V97.1142V97.1225V97.1308V97.139V97.1473V97.1556V97.1634V97.1711V97.1789V97.1867V97.1944V97.2017V97.2089V97.2162V97.2234V97.2307V97.2374V97.2441V97.2509V97.2576V97.2638V97.27V97.2762V97.2824V97.2887V97.2943V97.3V97.3057V97.3114V97.3166V97.3218V97.327V97.3321V97.3373V97.342V97.3466V97.3513V97.3554V97.3601V97.3642V97.3684V97.372V97.3761V97.3798V97.3834V97.3865V97.3901V97.3932V97.3963V97.3994V97.402V97.4046V97.4072V97.4098V97.4119V97.4139V97.416V97.4181V97.4196V97.4212V97.4227V97.4243C129.097 97.8452 128.82 98.2536 128.3 98.6316C127.781 99.0084 127.027 99.3496 126.093 99.6369C124.225 100.212 121.641 100.567 118.786 100.567C115.931 100.567 113.348 100.212 111.479 99.6369C110.545 99.3496 109.792 99.0084 109.273 98.6316C108.753 98.2536 108.476 97.8452 108.476 97.4243V97.4227V97.4212V97.4196V97.4181V97.416V97.4139V97.4119V97.4098V97.4072V97.4046V97.402V97.3994V97.3963V97.3932V97.3901V97.3865V97.3834V97.3798V97.3761V97.372V97.3684V97.3642V97.3601V97.3554V97.3513V97.3466V97.342V97.3373V97.3321V97.327V97.3218V97.3166V97.3114V97.3057V97.3V97.2943V97.2887V97.2824V97.2762V97.27V97.2638V97.2576V97.2509V97.2441V97.2374V97.2307V97.2234V97.2162V97.2089V97.2017V97.1944V97.1867V97.1789V97.1711V97.1634V97.1556V97.1473V97.139V97.1308V97.1225V97.1142V97.1054V97.0966V97.0878V97.079V97.0702V97.0609V97.0515V97.0422V97.0329V97.0236V97.0138V97.0039V96.9946V96.9842V96.9744V96.9646V96.9542V96.9439V96.9335V96.9232V96.9128V96.9019V96.8911V96.8807V96.8693V96.8585V96.8476V96.8362V96.8248V96.8139V96.802V96.7906V96.7792V96.7673V96.7554V96.744V96.7316V96.7197V96.7078V96.6954V96.6835V96.671V96.6586V96.6462V96.6333V96.6208V96.6079V96.5949V96.5825V96.5691V96.5561V96.5432V96.5297V96.5168V96.5033V96.4899V96.4764V96.4629V96.4489V96.4355V96.4215V96.4081V96.3941V96.3801V96.3661V96.3516V96.3376V96.3232V96.3092V96.2947V96.2802V96.2657V96.2512V96.2362V96.2217V96.2072V96.1922V96.1772V96.1622V96.1471V96.1321V96.1171V96.1021V96.0866V96.0715V96.056V96.0405V96.025V96.0094V95.9939V95.9784V95.9628V95.9468V95.9313V95.9152V95.8992V95.8836V95.8676V95.8515V95.835V95.8189V95.8029V95.7868V95.7702V95.7542V95.7376V95.7211V95.7045V95.6879V95.6714V95.6548V95.6383V95.6217V95.6051V95.588V95.5715V95.5544V95.5378V95.5207V95.5036V95.4866V95.4695V95.4524V95.4353V95.4182V95.4011V95.384V95.3664V95.3494V95.3318V95.3147V95.2971V95.28V95.2624V95.2448V95.2272V95.2096V95.192V95.1744V95.1568V95.1392V95.1216V95.104V95.0864V95.0683V95.0507V95.0331V95.0149V94.9973V94.9792V94.9616V94.9435V94.9254V94.9078V94.8897V94.8715V94.8534V94.8353V94.8177V94.7996V94.7815V94.7633V94.7452V94.7271V94.709V94.6909V94.6722V94.6541V94.636V94.6179V94.5997V94.5816V94.563V94.5449V94.5268V94.5086V94.49V94.4719V94.4538V94.4351V94.417V94.3989V94.3802V94.3621V94.3435V94.3254V94.3073V94.2886V94.2705V94.2519V94.2337V94.2156V94.197V94.1789V94.1602V94.1421V94.124V94.1053V94.0872V94.0691V94.0505V94.0324V94.0137V93.9956V93.9775V93.9594V93.9407V93.9226V93.9045V93.8864V93.8677V93.8496V93.8315V93.8134V93.7952V93.7771V93.759V93.7409V93.7228V93.7047V93.6865V93.6684V93.6503V93.6322V93.6146V93.5965V93.5783V93.5602V93.5426V93.5245V93.5069V93.4888V93.4712V93.4531V93.4355V93.4173V93.3997V93.3821V93.3645V93.3464V93.3288V93.3112V93.2936V93.276V93.2589V93.2413V93.2237V93.2061V93.189V93.1714V93.1544V93.1368V93.1197V93.1021V93.085V93.0679V93.0508V93.0337V93.0166V92.9996V92.9825V92.9654V92.9488V92.9317V92.9147V92.8981V92.8815V92.8644V92.8479V92.8313V92.8147V92.7982V92.7816V92.765V92.7485V92.7324V92.7159V92.6998V92.6838V92.6672V92.6511V92.6351V92.6191V92.603V92.587V92.5714V92.5554V92.5398V92.5238V92.5083V92.4927V92.4772V92.4617V92.4461V92.4306V92.4151V92.4001V92.385V92.3695V92.3545V92.3395V92.3245V92.3095V92.2945V92.28V92.2649V92.2505V92.236V92.2215V92.207V92.1925V92.178V92.1635V92.1495V92.135V92.121V92.1071V92.0931V92.0791V92.0656V92.0517V92.0377V92.0242V92.0108V91.9973V91.9838V91.9704V91.9574V91.944V91.931V91.9181V91.9051V91.8922V91.8793V91.8668V91.8539V91.8415V91.8291V91.8166V91.8042V91.7918V91.7799V91.768V91.7555V91.7436V91.7317V91.7203V91.7084V91.697V91.6856V91.6743V91.6629V91.6515V91.6406V91.6292V91.6183V91.6075V91.5966V91.5857V91.5754V91.565V91.5547V91.5443V91.534V91.5236V91.5138V91.5039V91.4936V91.4843V91.4744V91.4646V91.4553V91.446V91.4366V91.4273V91.4185V91.4092V91.4004V91.3916V91.3833V91.3745V91.3662V91.358V91.3497V91.3414V91.3331V91.3253V91.3176V91.3098V91.302V91.2948V91.287V91.2798V91.2725V91.2658V91.2585V91.2518V91.2451V91.2384V91.2316V91.2254V91.2192V91.213V91.2068V91.2011V91.1949V91.1892V91.1835V91.1783V91.1726V91.1674V91.1623V91.1576V91.1524V91.1478V91.1431V91.1384V91.1343V91.1296V91.1255V91.1219V91.1177V91.1141V91.1105V91.1069V91.1032V91.1001V91.0996H129.097Z" fill="url(#paint11_linear_105_129)" stroke="url(#paint12_linear_105_129)" stroke-width="0.15"/>
<path d="M129.097 85.0542V85.0558V85.0589V85.0625V85.0656V85.0692V85.0734V85.077V85.0811V85.0847V85.0889V85.0935V85.0977V85.1023V85.107V85.1117V85.1168V85.1215V85.1267V85.1319V85.137V85.1427V85.1484V85.1536V85.1598V85.1655V85.1712V85.1774V85.1836V85.1898V85.1966V85.2028V85.2095V85.2162V85.223V85.2302V85.2369V85.2442V85.2514V85.2587V85.2659V85.2737V85.2815V85.2892V85.297V85.3048V85.313V85.3208V85.3291V85.3374V85.3462V85.3545V85.3633V85.3721V85.3809V85.3897V85.3985V85.4078V85.4166V85.4259V85.4352V85.4451V85.4544V85.4642V85.4735V85.4834V85.4932V85.5036V85.5134V85.5237V85.5336V85.5439V85.5543V85.5652V85.5755V85.5864V85.5967V85.6076V85.6185V85.6299V85.6407V85.6521V85.663V85.6744V85.6858V85.6972V85.7086V85.7205V85.7319V85.7438V85.7557V85.7676V85.7795V85.7919V85.8038V85.8162V85.8281V85.8406V85.853V85.8654V85.8784V85.8908V85.9037V85.9162V85.9291V85.942V85.955V85.9679V85.9814V85.9943V86.0078V86.0213V86.0342V86.0477V86.0611V86.0751V86.0886V86.102V86.116V86.13V86.1434V86.1574V86.1714V86.1859V86.1999V86.2138V86.2283V86.2423V86.2568V86.2713V86.2858V86.3003V86.3148V86.3293V86.3438V86.3588V86.3733V86.3883V86.4033V86.4178V86.4328V86.4478V86.4628V86.4784V86.4934V86.5084V86.5239V86.5389V86.5545V86.57V86.5855V86.6011V86.6166V86.6321V86.6477V86.6632V86.6787V86.6948V86.7103V86.7263V86.7419V86.7579V86.774V86.79V86.8061V86.8221V86.8382V86.8542V86.8703V86.8868V86.9029V86.9189V86.9355V86.9515V86.9681V86.9847V87.0007V87.0173V87.0339V87.0504V87.067V87.0836V87.1001V87.1167V87.1333V87.1503V87.1669V87.1835V87.2006V87.2171V87.2342V87.2508V87.2679V87.2844V87.3015V87.3186V87.3357V87.3522V87.3693V87.3864V87.4035V87.4206V87.4377V87.4547V87.4718V87.4889V87.506V87.5231V87.5407V87.5578V87.5749V87.5919V87.6095V87.6266V87.6437V87.6613V87.6784V87.6955V87.7131V87.7302V87.7478V87.7649V87.7825V87.7995V87.8171V87.8342V87.8518V87.8689V87.8865V87.9036V87.9212V87.9383V87.9559V87.9735V87.9906V88.0082V88.0252V88.0428V88.0605V88.0775V88.0951V88.1122V88.1298V88.1474V88.1645V88.1821V88.1992V88.2168V88.2339V88.2515V88.2691V88.2862V88.3038V88.3208V88.3384V88.3555V88.3726V88.3902V88.4073V88.4249V88.442V88.4591V88.4767V88.4938V88.5108V88.5279V88.5455V88.5626V88.5797V88.5968V88.6139V88.6309V88.648V88.6651V88.6822V88.6993V88.7164V88.7335V88.75V88.7671V88.7842V88.8008V88.8178V88.8349V88.8515V88.8686V88.8851V88.9022V88.9188V88.9354V88.9519V88.969V88.9856V89.0021V89.0187V89.0353V89.0518V89.0684V89.0845V89.101V89.1176V89.1336V89.1502V89.1662V89.1828V89.1989V89.2149V89.2315V89.2475V89.2636V89.2796V89.2957V89.3117V89.3272V89.3433V89.3593V89.3749V89.3909V89.4065V89.422V89.438V89.4536V89.4691V89.4846V89.5002V89.5157V89.5307V89.5462V89.5618V89.5768V89.5918V89.6073V89.6223V89.6373V89.6524V89.6674V89.6824V89.6969V89.7119V89.7264V89.7414V89.7559V89.7704V89.7849V89.7994V89.8139V89.8284V89.8429V89.8569V89.8713V89.8853V89.8993V89.9138V89.9278V89.9412V89.9552V89.9692V89.9827V89.9966V90.0101V90.0235V90.037V90.0505V90.0639V90.0774V90.0903V90.1038V90.1167V90.1297V90.1426V90.1556V90.1685V90.1814V90.1939V90.2068V90.2192V90.2317V90.2441V90.2565V90.2689V90.2808V90.2933V90.3052V90.3171V90.329V90.3409V90.3528V90.3642V90.3756V90.3875V90.3989V90.4103V90.4217V90.4325V90.4439V90.4548V90.4657V90.4765V90.4874V90.4983V90.5086V90.5195V90.5299V90.5402V90.5506V90.5609V90.5708V90.5811V90.5909V90.6008V90.6106V90.6204V90.6298V90.6396V90.6489V90.6582V90.6676V90.6764V90.6857V90.6945V90.7033V90.7121V90.7209V90.7297V90.738V90.7463V90.7545V90.7628V90.7711V90.7789V90.7871V90.7949V90.8027V90.8099V90.8177V90.8249V90.8322V90.8394V90.8467V90.8539V90.8607V90.8674V90.8741V90.8808V90.8871V90.8938V90.9V90.9062V90.9119V90.9181V90.9238V90.9295V90.9352V90.9409V90.9461V90.9513V90.9564V90.9616V90.9668V90.9715V90.9761V90.9808V90.9854V90.9896V90.9942V90.9984V91.002V91.0061V91.0098V91.0139V91.017V91.0206V91.0242V91.0274V91.0305V91.033V91.0362V91.0388V91.0413V91.0439V91.0465V91.0486V91.0506V91.0527V91.0543V91.0564V91.0579V91.0594V91.0605C129.097 91.4814 128.82 91.8898 128.3 92.2678C127.781 92.6452 127.027 92.9863 126.093 93.2736C124.225 93.8478 121.641 94.2034 118.786 94.2034C115.931 94.2034 113.348 93.8478 111.479 93.2736C110.545 92.9863 109.792 92.6452 109.273 92.2678C108.753 91.8898 108.476 91.4814 108.476 91.0605V91.0594V91.0579V91.0564V91.0543V91.0527V91.0506V91.0486V91.0465V91.0439V91.0413V91.0388V91.0362V91.033V91.0305V91.0274V91.0242V91.0206V91.017V91.0139V91.0098V91.0061V91.002V90.9984V90.9942V90.9896V90.9854V90.9808V90.9761V90.9715V90.9668V90.9616V90.9564V90.9513V90.9461V90.9409V90.9352V90.9295V90.9238V90.9181V90.9119V90.9062V90.9V90.8938V90.8871V90.8808V90.8741V90.8674V90.8607V90.8539V90.8467V90.8394V90.8322V90.8249V90.8177V90.8099V90.8027V90.7949V90.7871V90.7789V90.7711V90.7628V90.7545V90.7463V90.738V90.7297V90.7209V90.7121V90.7033V90.6945V90.6857V90.6764V90.6676V90.6582V90.6489V90.6396V90.6298V90.6204V90.6106V90.6008V90.5909V90.5811V90.5708V90.5609V90.5506V90.5402V90.5299V90.5195V90.5086V90.4983V90.4874V90.4765V90.4657V90.4548V90.4439V90.4325V90.4217V90.4103V90.3989V90.3875V90.3756V90.3642V90.3528V90.3409V90.329V90.3171V90.3052V90.2933V90.2808V90.2689V90.2565V90.2441V90.2317V90.2192V90.2068V90.1939V90.1814V90.1685V90.1556V90.1426V90.1297V90.1167V90.1038V90.0903V90.0774V90.0639V90.0505V90.037V90.0235V90.0101V89.9966V89.9827V89.9692V89.9552V89.9412V89.9278V89.9138V89.8993V89.8853V89.8713V89.8569V89.8429V89.8284V89.8139V89.7994V89.7849V89.7704V89.7559V89.7414V89.7264V89.7119V89.6969V89.6824V89.6674V89.6524V89.6373V89.6223V89.6073V89.5918V89.5768V89.5618V89.5462V89.5307V89.5157V89.5002V89.4846V89.4691V89.4536V89.438V89.422V89.4065V89.3909V89.3749V89.3593V89.3433V89.3272V89.3117V89.2957V89.2796V89.2636V89.2475V89.2315V89.2149V89.1989V89.1828V89.1662V89.1502V89.1336V89.1176V89.101V89.0845V89.0684V89.0518V89.0353V89.0187V89.0021V88.9856V88.969V88.9519V88.9354V88.9188V88.9022V88.8851V88.8686V88.8515V88.8349V88.8178V88.8008V88.7842V88.7671V88.75V88.7335V88.7164V88.6993V88.6822V88.6651V88.648V88.6309V88.6139V88.5968V88.5797V88.5626V88.5455V88.5279V88.5108V88.4938V88.4767V88.4591V88.442V88.4249V88.4073V88.3902V88.3726V88.3555V88.3384V88.3208V88.3038V88.2862V88.2691V88.2515V88.2339V88.2168V88.1992V88.1821V88.1645V88.1474V88.1298V88.1122V88.0951V88.0775V88.0605V88.0428V88.0252V88.0082V87.9906V87.9735V87.9559V87.9383V87.9212V87.9036V87.8865V87.8689V87.8518V87.8342V87.8171V87.7995V87.7825V87.7649V87.7478V87.7302V87.7131V87.6955V87.6784V87.6613V87.6437V87.6266V87.6095V87.5919V87.5749V87.5578V87.5407V87.5231V87.506V87.4889V87.4718V87.4547V87.4377V87.4206V87.4035V87.3864V87.3693V87.3522V87.3357V87.3186V87.3015V87.2844V87.2679V87.2508V87.2342V87.2171V87.2006V87.1835V87.1669V87.1503V87.1333V87.1167V87.1001V87.0836V87.067V87.0504V87.0339V87.0173V87.0007V86.9847V86.9681V86.9515V86.9355V86.9189V86.9029V86.8868V86.8703V86.8542V86.8382V86.8221V86.8061V86.79V86.774V86.7579V86.7419V86.7263V86.7103V86.6948V86.6787V86.6632V86.6477V86.6321V86.6166V86.6011V86.5855V86.57V86.5545V86.5389V86.5239V86.5084V86.4934V86.4784V86.4628V86.4478V86.4328V86.4178V86.4033V86.3883V86.3733V86.3588V86.3438V86.3293V86.3148V86.3003V86.2858V86.2713V86.2568V86.2423V86.2283V86.2138V86.1999V86.1859V86.1714V86.1574V86.1434V86.13V86.116V86.102V86.0886V86.0751V86.0611V86.0477V86.0342V86.0213V86.0078V85.9943V85.9814V85.9679V85.955V85.942V85.9291V85.9162V85.9037V85.8908V85.8784V85.8654V85.853V85.8406V85.8281V85.8162V85.8038V85.7919V85.7795V85.7676V85.7557V85.7438V85.7319V85.7205V85.7086V85.6972V85.6858V85.6744V85.663V85.6521V85.6407V85.6299V85.6185V85.6076V85.5967V85.5864V85.5755V85.5652V85.5543V85.5439V85.5336V85.5237V85.5134V85.5036V85.4932V85.4834V85.4735V85.4642V85.4544V85.4451V85.4352V85.4259V85.4166V85.4078V85.3985V85.3897V85.3809V85.3721V85.3633V85.3545V85.3462V85.3374V85.3291V85.3208V85.313V85.3048V85.297V85.2892V85.2815V85.2737V85.2659V85.2587V85.2514V85.2442V85.2369V85.2302V85.223V85.2162V85.2095V85.2028V85.1966V85.1898V85.1836V85.1774V85.1712V85.1655V85.1598V85.1536V85.1484V85.1427V85.137V85.1319V85.1267V85.1215V85.1168V85.1117V85.107V85.1023V85.0977V85.0935V85.0889V85.0847V85.0811V85.077V85.0734V85.0692V85.0656V85.0625V85.0589V85.0558V85.0542H129.097Z" fill="url(#paint13_linear_105_129)" stroke="url(#paint14_linear_105_129)" stroke-width="0.15"/>
<path d="M129.097 85.016C129.097 85.3908 128.822 85.7573 128.301 86.0979C127.783 86.4375 127.029 86.7445 126.094 87.0034C124.226 87.5206 121.642 87.8405 118.786 87.8405C115.931 87.8405 113.347 87.5206 111.478 87.0034C110.544 86.7445 109.79 86.4375 109.271 86.0979C108.751 85.7573 108.476 85.3908 108.476 85.016C108.476 84.6406 108.751 84.2746 109.271 83.934C109.79 83.5944 110.544 83.2874 111.478 83.0285C113.347 82.5113 115.931 82.1914 118.786 82.1914C121.642 82.1914 124.226 82.5113 126.094 83.0285C127.029 83.2874 127.783 83.5944 128.301 83.934C128.822 84.2746 129.097 84.6406 129.097 85.016Z" fill="url(#paint15_linear_105_129)" stroke="url(#paint16_linear_105_129)" stroke-width="0.15"/>
<path d="M113.354 86.9883H90.4124C90.4124 86.9883 90.4124 93.0934 90.4124 93.3357C90.4124 95.2838 95.5479 96.8623 101.883 96.8623C108.218 96.8623 113.354 95.2838 113.354 93.3357C113.354 93.0934 113.354 86.9883 113.354 86.9883Z" fill="url(#paint17_linear_105_129)" fill-opacity="0.1"/>
<path d="M113.315 87.0269V87.0274V87.0305V87.0341V87.0372V87.0408V87.045V87.0486V87.0527V87.0569V87.061V87.0657V87.0698V87.0745V87.0791V87.0843V87.089V87.0942V87.0993V87.105V87.1102V87.1159V87.1216V87.1273V87.1335V87.1392V87.1454V87.1516V87.1583V87.1646V87.1713V87.178V87.1848V87.1915V87.1987V87.206V87.2132V87.2205V87.2277V87.2355V87.2433V87.251V87.2588V87.2671V87.2748V87.2831V87.2914V87.3002V87.3085V87.3173V87.3261V87.3349V87.3437V87.3525V87.3618V87.3711V87.3804V87.3898V87.3991V87.4089V87.4188V87.4286V87.4384V87.4483V87.4581V87.4684V87.4788V87.4892V87.4995V87.5104V87.5207V87.5316V87.5425V87.5533V87.5642V87.5751V87.5865V87.5979V87.6093V87.6207V87.632V87.6434V87.6553V87.6672V87.6792V87.6911V87.703V87.7149V87.7273V87.7392V87.7516V87.7641V87.7765V87.7894V87.8018V87.8148V87.8272V87.8402V87.8531V87.866V87.8795V87.8924V87.9059V87.9188V87.9323V87.9458V87.9592V87.9732V87.9867V88.0006V88.0141V88.0281V88.0421V88.056V88.0705V88.0845V88.0985V88.113V88.1275V88.1415V88.1559V88.171V88.1855V88.2V88.215V88.2295V88.2445V88.2595V88.2745V88.2895V88.3045V88.3195V88.3346V88.3501V88.3651V88.3806V88.3962V88.4117V88.4272V88.4427V88.4583V88.4738V88.4899V88.5054V88.5214V88.5375V88.5535V88.5691V88.5851V88.6017V88.6177V88.6338V88.6498V88.6664V88.6824V88.699V88.7156V88.7316V88.7482V88.7648V88.7813V88.7979V88.815V88.8315V88.8481V88.8652V88.8818V88.8988V88.9159V88.9325V88.9496V88.9667V88.9837V89.0008V89.0179V89.035V89.0521V89.0697V89.0868V89.1038V89.1214V89.1385V89.1561V89.1737V89.1908V89.2084V89.226V89.2436V89.2612V89.2788V89.2964V89.314V89.3316V89.3492V89.3668V89.385V89.4026V89.4202V89.4383V89.4559V89.474V89.4916V89.5097V89.5273V89.5454V89.5636V89.5812V89.5993V89.6174V89.635V89.6531V89.6712V89.6894V89.7075V89.7256V89.7437V89.7618V89.78V89.7981V89.8162V89.8343V89.8524V89.8705V89.8887V89.9068V89.9254V89.9435V89.9617V89.9798V89.9979V90.0165V90.0347V90.0528V90.0709V90.089V90.1077V90.1258V90.1439V90.162V90.1807V90.1988V90.2169V90.235V90.2536V90.2718V90.2899V90.308V90.3266V90.3448V90.3629V90.381V90.3991V90.4172V90.4359V90.454V90.4721V90.4902V90.5084V90.5265V90.5446V90.5627V90.5808V90.599V90.6171V90.6352V90.6533V90.6714V90.689V90.7071V90.7253V90.7434V90.7615V90.7791V90.7972V90.8148V90.8329V90.8511V90.8687V90.8863V90.9044V90.922V90.9401V90.9577V90.9753V90.9929V91.0105V91.0286V91.0462V91.0638V91.0809V91.0985V91.1161V91.1337V91.1513V91.1684V91.186V91.2036V91.2207V91.2378V91.2554V91.2725V91.2895V91.3071V91.3242V91.3413V91.3584V91.3755V91.392V91.4091V91.4262V91.4433V91.4599V91.477V91.4935V91.5101V91.5267V91.5437V91.5603V91.5769V91.5934V91.6095V91.6261V91.6426V91.6587V91.6752V91.6913V91.7079V91.7239V91.7399V91.756V91.772V91.7881V91.8041V91.8197V91.8357V91.8513V91.8673V91.8828V91.8984V91.9139V91.9294V91.945V91.9605V91.9755V91.991V92.006V92.021V92.0366V92.0516V92.0666V92.0811V92.0961V92.1111V92.1256V92.1406V92.1551V92.1696V92.1841V92.1986V92.2131V92.2271V92.2416V92.2556V92.2701V92.284V92.298V92.312V92.3255V92.3394V92.3529V92.3669V92.3803V92.3938V92.4072V92.4207V92.4337V92.4471V92.4601V92.4735V92.4865V92.4994V92.5118V92.5248V92.5372V92.5501V92.5626V92.575V92.5874V92.5998V92.6117V92.6242V92.6361V92.648V92.6599V92.6718V92.6832V92.6951V92.7065V92.7179V92.7293V92.7406V92.752V92.7629V92.7738V92.7852V92.7955V92.8064V92.8173V92.8276V92.8385V92.8489V92.8592V92.869V92.8794V92.8892V92.8991V92.9089V92.9187V92.9286V92.9379V92.9477V92.957V92.9664V92.9752V92.9845V92.9933V93.0021V93.0109V93.0197V93.028V93.0368V93.0451V93.0533V93.0616V93.0694V93.0771V93.0854V93.0927V93.1005V93.1082V93.1155V93.1227V93.13V93.1372V93.1439V93.1507V93.1574V93.1641V93.1709V93.1771V93.1833V93.1895V93.1957V93.2019V93.2076V93.2133V93.219V93.2247V93.2299V93.235V93.2402V93.2454V93.2501V93.2547V93.2594V93.264V93.2687V93.2728V93.277V93.2811V93.2853V93.2889V93.2925V93.2961V93.2998V93.3029V93.306V93.3091V93.3122V93.3148V93.3174V93.3199V93.3225V93.3246V93.3267V93.3287V93.3308V93.3324V93.3344V93.3355C113.315 93.8045 113.006 94.258 112.429 94.6773C111.854 95.0956 111.019 95.4741 109.983 95.7925C107.912 96.4287 105.048 96.8232 101.883 96.8232C98.7183 96.8232 95.8544 96.4287 93.7836 95.7925C92.7477 95.4741 91.9122 95.0956 91.3365 94.6773C90.7598 94.258 90.4512 93.8045 90.4512 93.3355V93.3344V93.3324V93.3308V93.3287V93.3267V93.3246V93.3225V93.3199V93.3174V93.3148V93.3122V93.3091V93.306V93.3029V93.2998V93.2961V93.2925V93.2889V93.2853V93.2811V93.277V93.2728V93.2687V93.264V93.2594V93.2547V93.2501V93.2454V93.2402V93.235V93.2299V93.2247V93.219V93.2133V93.2076V93.2019V93.1957V93.1895V93.1833V93.1771V93.1709V93.1641V93.1574V93.1507V93.1439V93.1372V93.13V93.1227V93.1155V93.1082V93.1005V93.0927V93.0854V93.0771V93.0694V93.0616V93.0533V93.0451V93.0368V93.028V93.0197V93.0109V93.0021V92.9933V92.9845V92.9752V92.9664V92.957V92.9477V92.9379V92.9286V92.9187V92.9089V92.8991V92.8892V92.8794V92.869V92.8592V92.8489V92.8385V92.8276V92.8173V92.8064V92.7955V92.7852V92.7738V92.7629V92.752V92.7406V92.7293V92.7179V92.7065V92.6951V92.6832V92.6718V92.6599V92.648V92.6361V92.6242V92.6117V92.5998V92.5874V92.575V92.5626V92.5501V92.5372V92.5248V92.5118V92.4994V92.4865V92.4735V92.4601V92.4471V92.4337V92.4207V92.4072V92.3938V92.3803V92.3669V92.3529V92.3394V92.3255V92.312V92.298V92.284V92.2701V92.2556V92.2416V92.2271V92.2131V92.1986V92.1841V92.1696V92.1551V92.1406V92.1256V92.1111V92.0961V92.0811V92.0666V92.0516V92.0366V92.021V92.006V91.991V91.9755V91.9605V91.945V91.9294V91.9139V91.8984V91.8828V91.8673V91.8513V91.8357V91.8197V91.8041V91.7881V91.772V91.756V91.7399V91.7239V91.7079V91.6913V91.6752V91.6587V91.6426V91.6261V91.6095V91.5934V91.5769V91.5603V91.5437V91.5267V91.5101V91.4935V91.477V91.4599V91.4433V91.4262V91.4091V91.392V91.3755V91.3584V91.3413V91.3242V91.3071V91.2895V91.2725V91.2554V91.2378V91.2207V91.2036V91.186V91.1684V91.1513V91.1337V91.1161V91.0985V91.0809V91.0638V91.0462V91.0286V91.0105V90.9929V90.9753V90.9577V90.9401V90.922V90.9044V90.8863V90.8687V90.8511V90.8329V90.8148V90.7972V90.7791V90.7615V90.7434V90.7253V90.7071V90.689V90.6714V90.6533V90.6352V90.6171V90.599V90.5808V90.5627V90.5446V90.5265V90.5084V90.4902V90.4721V90.454V90.4359V90.4172V90.3991V90.381V90.3629V90.3448V90.3266V90.308V90.2899V90.2718V90.2536V90.235V90.2169V90.1988V90.1807V90.162V90.1439V90.1258V90.1077V90.089V90.0709V90.0528V90.0347V90.0165V89.9979V89.9798V89.9617V89.9435V89.9254V89.9068V89.8887V89.8705V89.8524V89.8343V89.8162V89.7981V89.78V89.7618V89.7437V89.7256V89.7075V89.6894V89.6712V89.6531V89.635V89.6174V89.5993V89.5812V89.5636V89.5454V89.5273V89.5097V89.4916V89.474V89.4559V89.4383V89.4202V89.4026V89.385V89.3668V89.3492V89.3316V89.314V89.2964V89.2788V89.2612V89.2436V89.226V89.2084V89.1908V89.1737V89.1561V89.1385V89.1214V89.1038V89.0868V89.0697V89.0521V89.035V89.0179V89.0008V88.9837V88.9667V88.9496V88.9325V88.9159V88.8988V88.8818V88.8652V88.8481V88.8315V88.815V88.7979V88.7813V88.7648V88.7482V88.7316V88.7156V88.699V88.6824V88.6664V88.6498V88.6338V88.6177V88.6017V88.5851V88.5691V88.5535V88.5375V88.5214V88.5054V88.4899V88.4738V88.4583V88.4427V88.4272V88.4117V88.3962V88.3806V88.3651V88.3501V88.3346V88.3195V88.3045V88.2895V88.2745V88.2595V88.2445V88.2295V88.215V88.2V88.1855V88.171V88.1559V88.1415V88.1275V88.113V88.0985V88.0845V88.0705V88.056V88.0421V88.0281V88.0141V88.0006V87.9867V87.9732V87.9592V87.9458V87.9323V87.9188V87.9059V87.8924V87.8795V87.866V87.8531V87.8402V87.8272V87.8148V87.8018V87.7894V87.7765V87.7641V87.7516V87.7392V87.7273V87.7149V87.703V87.6911V87.6792V87.6672V87.6553V87.6434V87.632V87.6207V87.6093V87.5979V87.5865V87.5751V87.5642V87.5533V87.5425V87.5316V87.5207V87.5104V87.4995V87.4892V87.4788V87.4684V87.4581V87.4483V87.4384V87.4286V87.4188V87.4089V87.3991V87.3898V87.3804V87.3711V87.3618V87.3525V87.3437V87.3349V87.3261V87.3173V87.3085V87.3002V87.2914V87.2831V87.2748V87.2671V87.2588V87.251V87.2433V87.2355V87.2277V87.2205V87.2132V87.206V87.1987V87.1915V87.1848V87.178V87.1713V87.1646V87.1583V87.1516V87.1454V87.1392V87.1335V87.1273V87.1216V87.1159V87.1102V87.105V87.0993V87.0942V87.089V87.0843V87.0791V87.0745V87.0698V87.0657V87.061V87.0569V87.0527V87.0486V87.045V87.0408V87.0372V87.0341V87.0305V87.0274V87.0269H113.315Z" stroke="url(#paint18_linear_105_129)" stroke-opacity="0.1" stroke-width="0.15"/>
<path d="M113.354 79.9355H90.4124C90.4124 79.9355 90.4124 86.7458 90.4124 86.9881C90.4124 88.9362 95.5479 90.5146 101.883 90.5146C108.218 90.5146 113.354 88.9362 113.354 86.9881C113.354 86.7458 113.354 79.9355 113.354 79.9355Z" fill="url(#paint19_linear_105_129)" fill-opacity="0.1"/>
<path d="M113.315 79.9744V79.9754V79.979V79.9827V79.9868V79.9904V79.9946V79.9987V80.0028V80.0075V80.0122V80.0168V80.022V80.0267V80.0318V80.037V80.0427V80.0484V80.0541V80.0598V80.0655V80.0717V80.0779V80.0841V80.0908V80.0976V80.1043V80.111V80.1178V80.125V80.1323V80.1395V80.1473V80.1545V80.1623V80.1706V80.1783V80.1866V80.1949V80.2032V80.2115V80.2203V80.2286V80.2374V80.2467V80.2555V80.2648V80.2741V80.2834V80.2928V80.3026V80.3119V80.3217V80.3321V80.3419V80.3523V80.3626V80.373V80.3833V80.3942V80.4046V80.4154V80.4263V80.4377V80.4486V80.46V80.4714V80.4827V80.4941V80.506V80.5174V80.5293V80.5412V80.5537V80.5656V80.578V80.5904V80.6028V80.6153V80.6277V80.6406V80.6536V80.6665V80.6795V80.6924V80.7059V80.7193V80.7323V80.7457V80.7597V80.7732V80.7871V80.8006V80.8146V80.8286V80.8431V80.857V80.8715V80.8855V80.9V80.9145V80.929V80.944V80.9585V80.9735V80.9885V81.0035V81.0186V81.0336V81.0491V81.0641V81.0796V81.0952V81.1107V81.1262V81.1423V81.1578V81.1739V81.1894V81.2054V81.2215V81.2381V81.2541V81.2702V81.2867V81.3033V81.3199V81.3359V81.353V81.3696V81.3861V81.4032V81.4198V81.4369V81.4539V81.471V81.4881V81.5052V81.5223V81.5399V81.557V81.5746V81.5922V81.6098V81.6274V81.645V81.6626V81.6807V81.6983V81.7164V81.734V81.7521V81.7703V81.7884V81.8065V81.8246V81.8427V81.8608V81.8795V81.8976V81.9162V81.9349V81.9535V81.9716V81.9903V82.0094V82.0281V82.0467V82.0653V82.0845V82.1031V82.1223V82.1409V82.1601V82.1792V82.1984V82.2175V82.2367V82.2558V82.275V82.2942V82.3133V82.333V82.3521V82.3718V82.391V82.4106V82.4298V82.4495V82.4691V82.4888V82.5085V82.5282V82.5478V82.5675V82.5872V82.6068V82.6265V82.6462V82.6664V82.6861V82.7057V82.7259V82.7456V82.7658V82.7855V82.8056V82.8258V82.8455V82.8657V82.8859V82.9061V82.9257V82.9459V82.9661V82.9863V83.0065V83.0267V83.0469V83.0671V83.0873V83.1075V83.1276V83.1478V83.168V83.1882V83.2089V83.2291V83.2493V83.2695V83.2897V83.3099V83.3306V83.3508V83.371V83.3912V83.4119V83.432V83.4522V83.4724V83.4926V83.5133V83.5335V83.5537V83.5739V83.5946V83.6148V83.635V83.6552V83.6754V83.6961V83.7163V83.7364V83.7566V83.7768V83.797V83.8172V83.8374V83.8576V83.8778V83.898V83.9182V83.9384V83.9585V83.9787V83.9989V84.0191V84.0393V84.059V84.0792V84.0994V84.119V84.1392V84.1594V84.1791V84.1993V84.2189V84.2386V84.2588V84.2785V84.2982V84.3183V84.338V84.3577V84.3774V84.397V84.4167V84.4364V84.456V84.4757V84.4949V84.5145V84.5342V84.5534V84.5731V84.5922V84.6114V84.631V84.6502V84.6693V84.6885V84.7076V84.7268V84.746V84.7651V84.7843V84.8029V84.8221V84.8407V84.8599V84.8785V84.8971V84.9163V84.9349V84.9536V84.9722V84.9903V85.0089V85.0276V85.0457V85.0643V85.0825V85.1006V85.1192V85.1373V85.1555V85.1736V85.1912V85.2093V85.2274V85.245V85.2626V85.2807V85.2983V85.3159V85.3335V85.3511V85.3682V85.3858V85.4029V85.4205V85.4376V85.4547V85.4718V85.4889V85.5059V85.5225V85.5396V85.5561V85.5732V85.5898V85.6064V85.6229V85.639V85.6555V85.6721V85.6882V85.7042V85.7203V85.7363V85.7524V85.7684V85.7839V85.8V85.8155V85.831V85.8466V85.8621V85.8771V85.8927V85.9077V85.9227V85.9377V85.9527V85.9677V85.9827V85.9972V86.0117V86.0262V86.0407V86.0552V86.0697V86.0837V86.0977V86.1116V86.1256V86.1396V86.1536V86.167V86.181V86.1945V86.2079V86.2209V86.2343V86.2473V86.2602V86.2732V86.2861V86.299V86.3115V86.3244V86.3368V86.3493V86.3617V86.3736V86.3855V86.3979V86.4098V86.4212V86.4331V86.4445V86.4559V86.4673V86.4787V86.4901V86.5009V86.5118V86.5227V86.5336V86.5444V86.5548V86.5651V86.5755V86.5858V86.5957V86.6055V86.6159V86.6252V86.635V86.6443V86.6542V86.6635V86.6723V86.6816V86.6904V86.6992V86.708V86.7168V86.7251V86.7334V86.7417V86.7499V86.7577V86.766V86.7738V86.781V86.7888V86.796V86.8033V86.8105V86.8178V86.8245V86.8312V86.838V86.8442V86.8509V86.8571V86.8633V86.869V86.8752V86.8809V86.8861V86.8918V86.897V86.9022V86.9073V86.9125V86.9172V86.9218V86.9265V86.9306V86.9348V86.9389V86.943V86.9467V86.9503V86.9539V86.9575V86.9607V86.9638V86.9669V86.9695V86.972V86.9746V86.9772V86.9793V86.9814V86.9834V86.985V86.9871V86.9881C113.315 87.4571 113.006 87.9106 112.429 88.33C111.854 88.7482 111.019 89.1267 109.983 89.4451C107.912 90.0818 105.048 90.4758 101.883 90.4758C98.7183 90.4758 95.8544 90.0818 93.7836 89.4451C92.7477 89.1267 91.9122 88.7482 91.3365 88.33C90.7598 87.9106 90.4512 87.4571 90.4512 86.9881V86.9871V86.985V86.9834V86.9814V86.9793V86.9772V86.9746V86.972V86.9695V86.9669V86.9638V86.9607V86.9575V86.9539V86.9503V86.9467V86.943V86.9389V86.9348V86.9306V86.9265V86.9218V86.9172V86.9125V86.9073V86.9022V86.897V86.8918V86.8861V86.8809V86.8752V86.869V86.8633V86.8571V86.8509V86.8442V86.838V86.8312V86.8245V86.8178V86.8105V86.8033V86.796V86.7888V86.781V86.7738V86.766V86.7577V86.7499V86.7417V86.7334V86.7251V86.7168V86.708V86.6992V86.6904V86.6816V86.6723V86.6635V86.6542V86.6443V86.635V86.6252V86.6159V86.6055V86.5957V86.5858V86.5755V86.5651V86.5548V86.5444V86.5336V86.5227V86.5118V86.5009V86.4901V86.4787V86.4673V86.4559V86.4445V86.4331V86.4212V86.4098V86.3979V86.3855V86.3736V86.3617V86.3493V86.3368V86.3244V86.3115V86.299V86.2861V86.2732V86.2602V86.2473V86.2343V86.2209V86.2079V86.1945V86.181V86.167V86.1536V86.1396V86.1256V86.1116V86.0977V86.0837V86.0697V86.0552V86.0407V86.0262V86.0117V85.9972V85.9827V85.9677V85.9527V85.9377V85.9227V85.9077V85.8927V85.8771V85.8621V85.8466V85.831V85.8155V85.8V85.7839V85.7684V85.7524V85.7363V85.7203V85.7042V85.6882V85.6721V85.6555V85.639V85.6229V85.6064V85.5898V85.5732V85.5561V85.5396V85.5225V85.5059V85.4889V85.4718V85.4547V85.4376V85.4205V85.4029V85.3858V85.3682V85.3511V85.3335V85.3159V85.2983V85.2807V85.2626V85.245V85.2274V85.2093V85.1912V85.1736V85.1555V85.1373V85.1192V85.1006V85.0825V85.0643V85.0457V85.0276V85.0089V84.9903V84.9722V84.9536V84.9349V84.9163V84.8971V84.8785V84.8599V84.8407V84.8221V84.8029V84.7843V84.7651V84.746V84.7268V84.7076V84.6885V84.6693V84.6502V84.631V84.6114V84.5922V84.5731V84.5534V84.5342V84.5145V84.4949V84.4757V84.456V84.4364V84.4167V84.397V84.3774V84.3577V84.338V84.3183V84.2982V84.2785V84.2588V84.2386V84.2189V84.1993V84.1791V84.1594V84.1392V84.119V84.0994V84.0792V84.059V84.0393V84.0191V83.9989V83.9787V83.9585V83.9384V83.9182V83.898V83.8778V83.8576V83.8374V83.8172V83.797V83.7768V83.7566V83.7364V83.7163V83.6961V83.6754V83.6552V83.635V83.6148V83.5946V83.5739V83.5537V83.5335V83.5133V83.4926V83.4724V83.4522V83.432V83.4119V83.3912V83.371V83.3508V83.3306V83.3099V83.2897V83.2695V83.2493V83.2291V83.2089V83.1882V83.168V83.1478V83.1276V83.1075V83.0873V83.0671V83.0469V83.0267V83.0065V82.9863V82.9661V82.9459V82.9257V82.9061V82.8859V82.8657V82.8455V82.8258V82.8056V82.7855V82.7658V82.7456V82.7259V82.7057V82.6861V82.6664V82.6462V82.6265V82.6068V82.5872V82.5675V82.5478V82.5282V82.5085V82.4888V82.4691V82.4495V82.4298V82.4106V82.391V82.3718V82.3521V82.333V82.3133V82.2942V82.275V82.2558V82.2367V82.2175V82.1984V82.1792V82.1601V82.1409V82.1223V82.1031V82.0845V82.0653V82.0467V82.0281V82.0094V81.9903V81.9716V81.9535V81.9349V81.9162V81.8976V81.8795V81.8608V81.8427V81.8246V81.8065V81.7884V81.7703V81.7521V81.734V81.7164V81.6983V81.6807V81.6626V81.645V81.6274V81.6098V81.5922V81.5746V81.557V81.5399V81.5223V81.5052V81.4881V81.471V81.4539V81.4369V81.4198V81.4032V81.3861V81.3696V81.353V81.3359V81.3199V81.3033V81.2867V81.2702V81.2541V81.2381V81.2215V81.2054V81.1894V81.1739V81.1578V81.1423V81.1262V81.1107V81.0952V81.0796V81.0641V81.0491V81.0336V81.0186V81.0035V80.9885V80.9735V80.9585V80.944V80.929V80.9145V80.9V80.8855V80.8715V80.857V80.8431V80.8286V80.8146V80.8006V80.7871V80.7732V80.7597V80.7457V80.7323V80.7193V80.7059V80.6924V80.6795V80.6665V80.6536V80.6406V80.6277V80.6153V80.6028V80.5904V80.578V80.5656V80.5537V80.5412V80.5293V80.5174V80.506V80.4941V80.4827V80.4714V80.46V80.4486V80.4377V80.4263V80.4154V80.4046V80.3942V80.3833V80.373V80.3626V80.3523V80.3419V80.3321V80.3217V80.3119V80.3026V80.2928V80.2834V80.2741V80.2648V80.2555V80.2467V80.2374V80.2286V80.2203V80.2115V80.2032V80.1949V80.1866V80.1783V80.1706V80.1623V80.1545V80.1473V80.1395V80.1323V80.125V80.1178V80.111V80.1043V80.0976V80.0908V80.0841V80.0779V80.0717V80.0655V80.0598V80.0541V80.0484V80.0427V80.037V80.0318V80.0267V80.022V80.0168V80.0122V80.0075V80.0028V79.9987V79.9946V79.9904V79.9868V79.9827V79.979V79.9754V79.9744H113.315Z" stroke="url(#paint20_linear_105_129)" stroke-opacity="0.1" stroke-width="0.15"/>
<path d="M113.354 73.2354H90.4124C90.4124 73.2354 90.4124 79.6931 90.4124 79.9354C90.4124 81.8834 95.5479 83.4619 101.883 83.4619C108.218 83.4619 113.354 81.8834 113.354 79.9354C113.354 79.6931 113.354 73.2354 113.354 73.2354Z" fill="url(#paint21_linear_105_129)" fill-opacity="0.2"/>
<path d="M113.315 73.2742V73.2768V73.2799V73.2835V73.2876V73.2913V73.2954V73.2995V73.3037V73.3078V73.3125V73.3171V73.3218V73.327V73.3316V73.3368V73.342V73.3477V73.3534V73.3586V73.3648V73.3705V73.3767V73.3824V73.3891V73.3953V73.4015V73.4083V73.415V73.4217V73.429V73.4362V73.4435V73.4507V73.458V73.4657V73.4735V73.4813V73.489V73.4968V73.5051V73.5133V73.5216V73.5299V73.5387V73.5475V73.5563V73.5651V73.5739V73.5832V73.5926V73.6019V73.6112V73.621V73.6303V73.6402V73.65V73.6599V73.6702V73.68V73.6904V73.7008V73.7111V73.722V73.7323V73.7432V73.7541V73.7649V73.7763V73.7872V73.7986V73.81V73.8214V73.8328V73.8447V73.8561V73.868V73.8799V73.8918V73.9042V73.9161V73.9285V73.941V73.9534V73.9658V73.9782V73.9912V74.0041V74.0165V74.03V74.0429V74.0559V74.0694V74.0823V74.0958V74.1092V74.1227V74.1366V74.1501V74.1641V74.1776V74.1915V74.2055V74.22V74.234V74.248V74.2625V74.277V74.2914V74.3059V74.3204V74.3349V74.3499V74.365V74.3795V74.3945V74.4095V74.425V74.44V74.455V74.4706V74.4861V74.5011V74.5166V74.5322V74.5482V74.5638V74.5793V74.5953V74.6114V74.6274V74.643V74.659V74.6756V74.6916V74.7077V74.7242V74.7403V74.7568V74.7734V74.79V74.8065V74.8231V74.8397V74.8568V74.8733V74.8904V74.9075V74.9241V74.9411V74.9582V74.9753V74.9924V75.01V75.0271V75.0442V75.0618V75.0794V75.0965V75.1141V75.1317V75.1493V75.1669V75.1845V75.2021V75.2202V75.2378V75.2554V75.2735V75.2916V75.3092V75.3273V75.3455V75.3636V75.3817V75.3998V75.4179V75.4361V75.4542V75.4728V75.4909V75.5091V75.5277V75.5458V75.5645V75.5831V75.6017V75.6198V75.6385V75.6571V75.6758V75.6944V75.713V75.7317V75.7503V75.7695V75.7881V75.8067V75.8259V75.8445V75.8632V75.8823V75.901V75.9201V75.9393V75.9579V75.9771V75.9962V76.0148V76.034V76.0532V76.0723V76.0915V76.1101V76.1293V76.1484V76.1676V76.1867V76.2059V76.225V76.2442V76.2633V76.283V76.3022V76.3213V76.3405V76.3596V76.3788V76.3979V76.4176V76.4368V76.4559V76.4751V76.4942V76.5139V76.5331V76.5522V76.5714V76.591V76.6102V76.6293V76.6485V76.6682V76.6873V76.7065V76.7256V76.7453V76.7645V76.7836V76.8028V76.8219V76.8411V76.8608V76.8799V76.8991V76.9182V76.9374V76.9565V76.9757V76.9948V77.014V77.0331V77.0523V77.0715V77.0906V77.1098V77.1284V77.1476V77.1667V77.1859V77.2045V77.2237V77.2428V77.2615V77.2806V77.2992V77.3184V77.337V77.3562V77.3748V77.3935V77.4126V77.4313V77.4499V77.4685V77.4872V77.5058V77.5244V77.5431V77.5617V77.5804V77.5985V77.6171V77.6357V77.6539V77.6725V77.6906V77.7087V77.7274V77.7455V77.7636V77.7817V77.7999V77.818V77.8361V77.8542V77.8723V77.8899V77.9081V77.9257V77.9438V77.9614V77.979V77.9971V78.0147V78.0323V78.0499V78.0675V78.0846V78.1022V78.1198V78.1369V78.1545V78.1716V78.1886V78.2057V78.2228V78.2399V78.257V78.2741V78.2912V78.3077V78.3248V78.3414V78.3579V78.3745V78.3911V78.4076V78.4242V78.4408V78.4568V78.4734V78.4894V78.5055V78.522V78.5381V78.5541V78.5697V78.5857V78.6018V78.6173V78.6328V78.6484V78.6644V78.6794V78.695V78.7105V78.726V78.741V78.756V78.7711V78.7861V78.8011V78.8161V78.8311V78.8456V78.8601V78.8751V78.8896V78.9041V78.9181V78.9326V78.9465V78.961V78.975V78.989V79.003V79.017V79.0304V79.0444V79.0579V79.0713V79.0848V79.0982V79.1112V79.1246V79.1376V79.1505V79.1635V79.1764V79.1894V79.2018V79.2147V79.2271V79.2396V79.252V79.2639V79.2763V79.2882V79.3001V79.312V79.3239V79.3359V79.3472V79.3586V79.37V79.3814V79.3928V79.4037V79.4151V79.4259V79.4368V79.4477V79.458V79.4689V79.4793V79.4896V79.4994V79.5098V79.5196V79.53V79.5398V79.5491V79.559V79.5683V79.5781V79.5875V79.5963V79.6056V79.6144V79.6237V79.632V79.6408V79.6496V79.6579V79.6661V79.6744V79.6827V79.6905V79.6982V79.706V79.7138V79.7215V79.7288V79.736V79.7433V79.7505V79.7573V79.764V79.7707V79.7775V79.7842V79.7904V79.7966V79.8028V79.8085V79.8147V79.8204V79.8261V79.8313V79.837V79.8422V79.8473V79.852V79.8572V79.8618V79.8665V79.8706V79.8753V79.8794V79.8836V79.8872V79.8913V79.895V79.8986V79.9017V79.9053V79.9084V79.9115V79.9141V79.9172V79.9198V79.9219V79.9245V79.9265V79.9286V79.9307V79.9322V79.9338V79.9353C113.315 80.4039 113.006 80.8579 112.429 81.2767C111.854 81.6955 111.019 82.0734 109.983 82.3918C107.912 83.0286 105.048 83.4231 101.883 83.4231C98.7183 83.4231 95.8544 83.0286 93.7836 82.3918C92.7477 82.0734 91.9122 81.6955 91.3365 81.2767C90.7598 80.8579 90.4512 80.4039 90.4512 79.9353V79.9338V79.9322V79.9307V79.9286V79.9265V79.9245V79.9219V79.9198V79.9172V79.9141V79.9115V79.9084V79.9053V79.9017V79.8986V79.895V79.8913V79.8872V79.8836V79.8794V79.8753V79.8706V79.8665V79.8618V79.8572V79.852V79.8473V79.8422V79.837V79.8313V79.8261V79.8204V79.8147V79.8085V79.8028V79.7966V79.7904V79.7842V79.7775V79.7707V79.764V79.7573V79.7505V79.7433V79.736V79.7288V79.7215V79.7138V79.706V79.6982V79.6905V79.6827V79.6744V79.6661V79.6579V79.6496V79.6408V79.632V79.6237V79.6144V79.6056V79.5963V79.5875V79.5781V79.5683V79.559V79.5491V79.5398V79.53V79.5196V79.5098V79.4994V79.4896V79.4793V79.4689V79.458V79.4477V79.4368V79.4259V79.4151V79.4037V79.3928V79.3814V79.37V79.3586V79.3472V79.3359V79.3239V79.312V79.3001V79.2882V79.2763V79.2639V79.252V79.2396V79.2271V79.2147V79.2018V79.1894V79.1764V79.1635V79.1505V79.1376V79.1246V79.1112V79.0982V79.0848V79.0713V79.0579V79.0444V79.0304V79.017V79.003V78.989V78.975V78.961V78.9465V78.9326V78.9181V78.9041V78.8896V78.8751V78.8601V78.8456V78.8311V78.8161V78.8011V78.7861V78.7711V78.756V78.741V78.726V78.7105V78.695V78.6794V78.6644V78.6484V78.6328V78.6173V78.6018V78.5857V78.5697V78.5541V78.5381V78.522V78.5055V78.4894V78.4734V78.4568V78.4408V78.4242V78.4076V78.3911V78.3745V78.3579V78.3414V78.3248V78.3077V78.2912V78.2741V78.257V78.2399V78.2228V78.2057V78.1886V78.1716V78.1545V78.1369V78.1198V78.1022V78.0846V78.0675V78.0499V78.0323V78.0147V77.9971V77.979V77.9614V77.9438V77.9257V77.9081V77.8899V77.8723V77.8542V77.8361V77.818V77.7999V77.7817V77.7636V77.7455V77.7274V77.7087V77.6906V77.6725V77.6539V77.6357V77.6171V77.5985V77.5804V77.5617V77.5431V77.5244V77.5058V77.4872V77.4685V77.4499V77.4313V77.4126V77.3935V77.3748V77.3562V77.337V77.3184V77.2992V77.2806V77.2615V77.2428V77.2237V77.2045V77.1859V77.1667V77.1476V77.1284V77.1098V77.0906V77.0715V77.0523V77.0331V77.014V76.9948V76.9757V76.9565V76.9374V76.9182V76.8991V76.8799V76.8608V76.8411V76.8219V76.8028V76.7836V76.7645V76.7453V76.7256V76.7065V76.6873V76.6682V76.6485V76.6293V76.6102V76.591V76.5714V76.5522V76.5331V76.5139V76.4942V76.4751V76.4559V76.4368V76.4176V76.3979V76.3788V76.3596V76.3405V76.3213V76.3022V76.283V76.2633V76.2442V76.225V76.2059V76.1867V76.1676V76.1484V76.1293V76.1101V76.0915V76.0723V76.0532V76.034V76.0148V75.9962V75.9771V75.9579V75.9393V75.9201V75.901V75.8823V75.8632V75.8445V75.8259V75.8067V75.7881V75.7695V75.7503V75.7317V75.713V75.6944V75.6758V75.6571V75.6385V75.6198V75.6017V75.5831V75.5645V75.5458V75.5277V75.5091V75.4909V75.4728V75.4542V75.4361V75.4179V75.3998V75.3817V75.3636V75.3455V75.3273V75.3092V75.2916V75.2735V75.2554V75.2378V75.2202V75.2021V75.1845V75.1669V75.1493V75.1317V75.1141V75.0965V75.0794V75.0618V75.0442V75.0271V75.01V74.9924V74.9753V74.9582V74.9411V74.9241V74.9075V74.8904V74.8733V74.8568V74.8397V74.8231V74.8065V74.79V74.7734V74.7568V74.7403V74.7242V74.7077V74.6916V74.6756V74.659V74.643V74.6274V74.6114V74.5953V74.5793V74.5638V74.5482V74.5322V74.5166V74.5011V74.4861V74.4706V74.455V74.44V74.425V74.4095V74.3945V74.3795V74.365V74.3499V74.3349V74.3204V74.3059V74.2914V74.277V74.2625V74.248V74.234V74.22V74.2055V74.1915V74.1776V74.1641V74.1501V74.1366V74.1227V74.1092V74.0958V74.0823V74.0694V74.0559V74.0429V74.03V74.0165V74.0041V73.9912V73.9782V73.9658V73.9534V73.941V73.9285V73.9161V73.9042V73.8918V73.8799V73.868V73.8561V73.8447V73.8328V73.8214V73.81V73.7986V73.7872V73.7763V73.7649V73.7541V73.7432V73.7323V73.722V73.7111V73.7008V73.6904V73.68V73.6702V73.6599V73.65V73.6402V73.6303V73.621V73.6112V73.6019V73.5926V73.5832V73.5739V73.5651V73.5563V73.5475V73.5387V73.5299V73.5216V73.5133V73.5051V73.4968V73.489V73.4813V73.4735V73.4657V73.458V73.4507V73.4435V73.4362V73.429V73.4217V73.415V73.4083V73.4015V73.3953V73.3891V73.3824V73.3767V73.3705V73.3648V73.3586V73.3534V73.3477V73.342V73.3368V73.3316V73.327V73.3218V73.3171V73.3125V73.3078V73.3037V73.2995V73.2954V73.2913V73.2876V73.2835V73.2799V73.2768V73.2742H113.315Z" stroke="url(#paint22_linear_105_129)" stroke-opacity="0.1" stroke-width="0.15"/>
<path d="M101.883 76.409C108.218 76.409 113.354 74.9884 113.354 73.2355C113.354 71.4826 108.218 70.0615 101.883 70.0615C95.5479 70.0615 90.4124 71.4826 90.4124 73.2355C90.4124 74.9884 95.5479 76.409 101.883 76.409Z" fill="url(#paint23_linear_105_129)" fill-opacity="0.5"/>
<path d="M113.315 73.2355C113.315 73.6533 113.009 74.0607 112.431 74.4381C111.855 74.815 111.02 75.1556 109.984 75.4424C107.912 76.0155 105.048 76.3701 101.883 76.3701C98.7178 76.3701 95.8539 76.0155 93.7821 75.4424C92.7462 75.1556 91.9106 74.815 91.3349 74.4381C90.7577 74.0607 90.4512 73.6533 90.4512 73.2355C90.4512 72.8177 90.7577 72.4103 91.3349 72.0324C91.9106 71.656 92.7462 71.3154 93.7821 71.0286C95.8539 70.4555 98.7178 70.1003 101.883 70.1003C105.048 70.1003 107.912 70.4555 109.984 71.0286C111.02 71.3154 111.855 71.656 112.431 72.0324C113.009 72.4103 113.315 72.8177 113.315 73.2355Z" stroke="url(#paint24_linear_105_129)" stroke-opacity="0.1" stroke-width="0.15"/>
<path d="M111.351 96.7417C108.366 90.8048 101.956 86.686 94.5079 86.686C85.1133 86.686 77.3614 93.2286 76.0754 101.73C76.006 101.728 75.9398 101.71 75.8678 101.71C68.5155 101.71 62.5532 107.317 62.5532 114.23C62.5532 121.144 68.5155 126.75 75.8678 126.75C80.818 126.75 105.575 126.75 110.485 126.75C119.31 126.75 126.462 120.025 126.462 111.726C126.462 103.703 119.77 97.1678 111.351 96.7417Z" fill="url(#paint25_linear_105_129)"/>
<defs>
<linearGradient id="paint0_linear_105_129" x1="62.0495" y1="23.2112" x2="62.0495" y2="110.092" gradientUnits="userSpaceOnUse">
<stop stop-color="#E6EEF5"/>
<stop offset="0.614583" stop-color="#EAF1F7" stop-opacity="0.833333"/>
<stop offset="0.994792" stop-color="white" stop-opacity="0"/>
</linearGradient>
<linearGradient id="paint1_linear_105_129" x1="46.2101" y1="36.813" x2="46.2101" y2="45.9586" gradientUnits="userSpaceOnUse">
<stop stop-color="#E6EEF5"/>
<stop offset="0.614583" stop-color="#EAF1F7" stop-opacity="0.833333"/>
<stop offset="0.994792" stop-color="white" stop-opacity="0"/>
</linearGradient>
<linearGradient id="paint2_linear_105_129" x1="46.1687" y1="47.3921" x2="46.1687" y2="60.994" gradientUnits="userSpaceOnUse">
<stop stop-color="#E6EEF5"/>
<stop offset="0.614583" stop-color="#EAF1F7" stop-opacity="0.833333"/>
<stop offset="0.994792" stop-color="white" stop-opacity="0"/>
</linearGradient>
<linearGradient id="paint3_linear_105_129" x1="58.3309" y1="75.7971" x2="58.3309" y2="80.3699" gradientUnits="userSpaceOnUse">
<stop stop-color="#E6EEF5"/>
<stop offset="0.614583" stop-color="#EAF1F7" stop-opacity="0.833333"/>
<stop offset="0.994792" stop-color="white" stop-opacity="0"/>
</linearGradient>
<linearGradient id="paint4_linear_105_129" x1="62.0495" y1="66.6521" x2="62.0495" y2="71.2244" gradientUnits="userSpaceOnUse">
<stop stop-color="#E6EEF5"/>
<stop offset="0.614583" stop-color="#EAF1F7" stop-opacity="0.833333"/>
<stop offset="0.994792" stop-color="white" stop-opacity="0"/>
</linearGradient>
<linearGradient id="paint5_linear_105_129" x1="58.3309" y1="94.0881" x2="58.3309" y2="98.6609" gradientUnits="userSpaceOnUse">
<stop stop-color="#E6EEF5"/>
<stop offset="0.614583" stop-color="#EAF1F7" stop-opacity="0.833333"/>
<stop offset="0.994792" stop-color="white" stop-opacity="0"/>
</linearGradient>
<linearGradient id="paint6_linear_105_129" x1="58.3309" y1="84.9429" x2="58.3309" y2="89.5151" gradientUnits="userSpaceOnUse">
<stop stop-color="#E6EEF5"/>
<stop offset="0.614583" stop-color="#EAF1F7" stop-opacity="0.833333"/>
<stop offset="0.994792" stop-color="white" stop-opacity="0"/>
</linearGradient>
<linearGradient id="paint7_linear_105_129" x1="74.4447" y1="48.3613" x2="74.4447" y2="52.9336" gradientUnits="userSpaceOnUse">
<stop stop-color="#E6EEF5"/>
<stop offset="0.614583" stop-color="#EAF1F7" stop-opacity="0.833333"/>
<stop offset="0.994792" stop-color="white" stop-opacity="0"/>
</linearGradient>
<linearGradient id="paint8_linear_105_129" x1="74.4447" y1="39.2156" x2="74.4447" y2="43.7884" gradientUnits="userSpaceOnUse">
<stop stop-color="#E6EEF5"/>
<stop offset="0.614583" stop-color="#EAF1F7" stop-opacity="0.833333"/>
<stop offset="0.994792" stop-color="white" stop-opacity="0"/>
</linearGradient>
<linearGradient id="paint9_linear_105_129" x1="108.437" y1="101.878" x2="129.136" y2="101.878" gradientUnits="userSpaceOnUse">
<stop stop-color="#11408A"/>
<stop offset="1" stop-color="#103F8F"/>
</linearGradient>
<linearGradient id="paint10_linear_105_129" x1="118.786" y1="97.4241" x2="118.786" y2="106.333" gradientUnits="userSpaceOnUse">
<stop stop-color="#E6EEF5"/>
<stop offset="0.614583" stop-color="#EAF1F7" stop-opacity="0.833333"/>
<stop offset="0.994792" stop-color="white" stop-opacity="0"/>
</linearGradient>
<linearGradient id="paint11_linear_105_129" x1="108.437" y1="95.8334" x2="129.136" y2="95.8334" gradientUnits="userSpaceOnUse">
<stop stop-color="#1D59B3"/>
<stop offset="1" stop-color="#195BBC"/>
</linearGradient>
<linearGradient id="paint12_linear_105_129" x1="118.786" y1="91.0608" x2="118.786" y2="100.606" gradientUnits="userSpaceOnUse">
<stop stop-color="#E6EEF5"/>
<stop offset="0.614583" stop-color="#EAF1F7" stop-opacity="0.833333"/>
<stop offset="0.994792" stop-color="white" stop-opacity="0"/>
</linearGradient>
<linearGradient id="paint13_linear_105_129" x1="108.437" y1="89.6291" x2="129.136" y2="89.6291" gradientUnits="userSpaceOnUse">
<stop stop-color="#3079D6"/>
<stop offset="1" stop-color="#297CD2"/>
</linearGradient>
<linearGradient id="paint14_linear_105_129" x1="118.786" y1="85.0154" x2="118.786" y2="94.2422" gradientUnits="userSpaceOnUse">
<stop stop-color="#E6EEF5"/>
<stop offset="0.614583" stop-color="#EAF1F7" stop-opacity="0.833333"/>
<stop offset="0.994792" stop-color="white" stop-opacity="0"/>
</linearGradient>
<linearGradient id="paint15_linear_105_129" x1="108.437" y1="85.0159" x2="129.136" y2="85.0159" gradientUnits="userSpaceOnUse">
<stop stop-color="#42A3F2"/>
<stop offset="1" stop-color="#42A4EB"/>
</linearGradient>
<linearGradient id="paint16_linear_105_129" x1="118.786" y1="82.1526" x2="118.786" y2="87.8793" gradientUnits="userSpaceOnUse">
<stop stop-color="#E6EEF5"/>
<stop offset="0.614583" stop-color="#EAF1F7" stop-opacity="0.833333"/>
<stop offset="0.994792" stop-color="white" stop-opacity="0"/>
</linearGradient>
<linearGradient id="paint17_linear_105_129" x1="90.4124" y1="91.9255" x2="113.354" y2="91.9255" gradientUnits="userSpaceOnUse">
<stop stop-color="#11408A" stop-opacity="0.47"/>
<stop offset="0.5" stop-color="#103F8F" stop-opacity="0.08"/>
</linearGradient>
<linearGradient id="paint18_linear_105_129" x1="101.883" y1="86.988" x2="101.883" y2="96.862" gradientUnits="userSpaceOnUse">
<stop stop-color="#E6EEF5"/>
<stop offset="0.614583" stop-color="#EAF1F7" stop-opacity="0.833333"/>
<stop offset="0.994792" stop-color="white" stop-opacity="0"/>
</linearGradient>
<linearGradient id="paint19_linear_105_129" x1="90.4124" y1="85.2253" x2="113.354" y2="85.2253" gradientUnits="userSpaceOnUse">
<stop stop-color="#1D59B3"/>
<stop offset="1" stop-color="#195BBC"/>
</linearGradient>
<linearGradient id="paint20_linear_105_129" x1="101.883" y1="79.9355" x2="101.883" y2="90.5146" gradientUnits="userSpaceOnUse">
<stop stop-color="#E6EEF5"/>
<stop offset="0.614583" stop-color="#EAF1F7" stop-opacity="0.833333"/>
<stop offset="0.994792" stop-color="white" stop-opacity="0"/>
</linearGradient>
<linearGradient id="paint21_linear_105_129" x1="90.4124" y1="78.3486" x2="113.354" y2="78.3486" gradientUnits="userSpaceOnUse">
<stop stop-color="#3079D6"/>
<stop offset="1" stop-color="#297CD2"/>
</linearGradient>
<linearGradient id="paint22_linear_105_129" x1="101.883" y1="73.2353" x2="101.883" y2="83.4619" gradientUnits="userSpaceOnUse">
<stop stop-color="#E6EEF5"/>
<stop offset="0.614583" stop-color="#EAF1F7" stop-opacity="0.833333"/>
<stop offset="0.994792" stop-color="white" stop-opacity="0"/>
</linearGradient>
<linearGradient id="paint23_linear_105_129" x1="90.4124" y1="73.2355" x2="113.354" y2="73.2355" gradientUnits="userSpaceOnUse">
<stop stop-color="#42A3F2"/>
<stop offset="1" stop-color="#42A4EB"/>
</linearGradient>
<linearGradient id="paint24_linear_105_129" x1="101.883" y1="70.0615" x2="101.883" y2="76.409" gradientUnits="userSpaceOnUse">
<stop stop-color="#E6EEF5"/>
<stop offset="0.614583" stop-color="#EAF1F7" stop-opacity="0.833333"/>
<stop offset="0.994792" stop-color="white" stop-opacity="0"/>
</linearGradient>
<linearGradient id="paint25_linear_105_129" x1="85.1371" y1="88.6165" x2="98.6981" y2="128.132" gradientUnits="userSpaceOnUse">
<stop stop-color="#2AA4F4"/>
<stop offset="1" stop-color="#007AD9"/>
</linearGradient>
</defs>
</svg>
