<svg width="79" height="80" viewBox="0 0 79 80" fill="none" xmlns="http://www.w3.org/2000/svg">
<path d="M69.011 29.9948H59.4961C59.4695 24.5425 57.2848 19.3226 53.4201 15.4766C49.5553 11.6306 44.3248 9.47154 38.8725 9.47154C33.4202 9.47154 28.1897 11.6306 24.325 15.4766C20.4602 19.3226 18.2757 24.5425 18.2492 29.9948H8.73407C8.73236 27.1321 9.14815 24.2845 9.96829 21.5418C11.8246 15.3177 15.6404 9.85909 20.8482 5.9778C26.056 2.09655 32.3775 0 38.8725 0C45.3675 0 51.6891 2.09655 56.897 5.9778C62.1045 9.85909 65.9204 15.3177 67.7769 21.5418C68.5967 24.2845 69.0129 27.1321 69.011 29.9948Z" fill="#3079D6"/>
<path d="M70.4463 24.3978V34.4439C70.4438 35.2045 70.1407 35.9333 69.6029 36.4711C69.0651 37.0089 68.3364 37.312 67.5756 37.3143H62.5527V21.5274H67.5756C67.643 21.5245 67.7105 21.5293 67.7769 21.5418C68.5002 21.5921 69.1778 21.9147 69.6733 22.4446C70.1688 22.9745 70.4448 23.6724 70.4463 24.3978Z" fill="#42A4ED"/>
<path d="M15.1927 21.5274V37.3143H10.1695C9.40898 37.312 8.68021 37.0089 8.1424 36.4711C7.60459 35.9333 7.30146 35.2045 7.29922 34.4439V24.3978C7.30061 23.6724 7.57675 22.9745 8.07205 22.4446C8.56735 21.9147 9.24468 21.5921 9.96829 21.5418C10.0345 21.5293 10.1022 21.5245 10.1695 21.5274H15.1927Z" fill="#42A4ED"/>
<path d="M66.1408 29.9948V30.1384C66.1442 32.5627 65.8209 34.9764 65.1793 37.3143H62.5527L62.5532 29.9948H59.4961C59.4695 24.5425 57.2848 19.3226 53.4201 15.4766C49.5553 11.6306 44.3248 9.47154 38.8725 9.47154C33.4202 9.47154 28.1897 11.6306 24.325 15.4766C20.4602 19.3226 18.2757 24.5425 18.2492 29.9948H15.1926L15.1927 37.3143H12.5663C11.9247 34.9764 11.6013 32.5627 11.6047 30.1384V29.9948C11.6143 27.115 12.0892 24.2557 13.0112 21.5274C14.8166 16.0957 18.2863 11.3703 22.9283 8.02145C27.5704 4.67262 33.149 2.87036 38.8728 2.87036C44.5967 2.87036 50.1753 4.67262 54.8176 8.02145C59.4592 11.3703 62.9291 16.0957 64.7345 21.5274C65.6566 24.2557 66.1314 27.115 66.1408 29.9948Z" fill="url(#paint0_radial_290_6371)"/>
<path d="M38.8725 4.30549C32.0212 4.30554 25.4505 7.02725 20.6059 11.8718C15.7613 16.7165 13.0396 23.2872 13.0396 30.1384H64.7055C64.7055 23.2872 61.9839 16.7165 57.1391 11.8718C52.2945 7.02725 45.7238 4.30554 38.8725 4.30549Z" fill="url(#paint1_linear_290_6371)"/>
<path d="M49.0619 45.7816H28.6825C26.8167 45.782 24.9691 45.4145 23.2452 44.7005C21.5213 43.9865 19.955 42.9399 18.6357 41.6202C17.3163 40.301 16.2697 38.7348 15.5557 37.0109C14.8418 35.2871 14.4743 33.4395 14.4744 31.5736C14.4743 29.7077 14.8418 27.8601 15.5557 26.1363C16.2697 24.4124 17.3163 22.8461 18.6357 21.5267C19.955 20.2074 21.5213 19.1608 23.2452 18.4468C24.9691 17.7328 26.8167 17.3654 28.6825 17.3655H49.0619C50.9277 17.3654 52.7753 17.7328 54.4992 18.4468C56.2229 19.1608 57.7891 20.2074 59.1088 21.5267C60.428 22.8461 61.4746 24.4124 62.1886 26.1363C62.9026 27.8601 63.2701 29.7077 63.2701 31.5736C63.2701 33.4395 62.9026 35.2871 62.1886 37.0109C61.4746 38.7348 60.428 40.301 59.1088 41.6202C57.7891 42.9399 56.2229 43.9865 54.4992 44.7005C52.7753 45.4145 50.9277 45.782 49.0619 45.7816Z" fill="#F3F3F3"/>
<path d="M48.9904 47.3606H28.7546C24.5881 47.3556 20.5937 45.6984 17.6475 42.7525C14.7014 39.8065 13.0442 35.8118 13.0396 31.6454V31.5018C13.0442 27.3354 14.7014 23.3409 17.6475 20.3947C20.5937 17.4486 24.5881 15.7914 28.7546 15.7868H48.9904C53.1569 15.7914 57.1514 17.4486 60.0974 20.3947C63.0438 23.3409 64.701 27.3354 64.7055 31.5018V31.6468C64.7005 35.813 63.0433 39.807 60.0969 42.753C57.1509 45.6989 53.1567 47.3556 48.9904 47.3606ZM28.7546 18.6571C25.3492 18.661 22.0843 20.0155 19.6763 22.4235C17.2683 24.8315 15.9138 28.0964 15.9099 31.5018V31.6468C15.9141 35.052 17.2687 38.3165 19.6767 40.7242C22.0847 43.1318 25.3494 44.4865 28.7546 44.4899H48.9904C52.3959 44.4865 55.661 43.1318 58.0691 40.7237C60.4772 38.3159 61.8314 35.0509 61.8353 31.6454V31.5018C61.8314 28.0964 60.4767 24.8315 58.0686 22.4235C55.6605 20.0155 52.3958 18.661 48.9904 18.6571H28.7546Z" fill="url(#paint2_linear_290_6371)"/>
<path d="M34.5652 33.0088C34.2389 33.0082 33.9224 32.8966 33.668 32.6924C33.4135 32.4881 33.2361 32.2032 33.1651 31.8848C32.9255 30.9321 32.361 30.093 31.5688 29.5122C30.7766 28.9313 29.8065 28.6453 28.826 28.7033C27.8454 28.6452 26.8753 28.9313 26.0832 29.5122C25.2909 30.093 24.7264 30.9321 24.4868 31.8848C24.4034 32.2555 24.1763 32.5781 23.8555 32.7817C23.5346 32.9853 23.1461 33.0534 22.7751 32.9711C22.404 32.8887 22.0809 32.6626 21.8763 32.3423C21.6717 32.022 21.6025 31.6337 21.6838 31.2625C22.0629 29.6712 22.9818 28.2605 24.284 27.2706C25.5862 26.2806 27.1913 25.7726 28.826 25.833C30.4606 25.7726 32.0657 26.2806 33.3679 27.2706C34.6701 28.2605 35.589 29.6712 35.9682 31.2625C36.0503 31.6341 35.9816 32.0232 35.7772 32.3443C35.5728 32.6654 35.2493 32.8922 34.8778 32.9751C34.7751 32.9973 34.6703 33.0086 34.5652 33.0088Z" fill="#3079D6"/>
<path d="M54.6577 33.0088C54.3315 33.0082 54.0151 32.8966 53.7607 32.6924C53.5061 32.4881 53.3287 32.2032 53.2577 31.8848C53.0182 30.9321 52.4536 30.093 51.6614 29.5122C50.8693 28.9313 49.8992 28.6453 48.9186 28.7033C47.938 28.6452 46.9679 28.9313 46.1758 29.5122C45.3836 30.093 44.819 30.9321 44.5794 31.8848C44.496 32.2555 44.269 32.5781 43.9481 32.7817C43.6272 32.9853 43.2387 33.0534 42.8677 32.9711C42.4967 32.8887 42.1735 32.6626 41.9689 32.3423C41.7643 32.022 41.6951 31.6337 41.7764 31.2625C42.1555 29.6712 43.0744 28.2605 44.3766 27.2706C45.6788 26.2806 47.2839 25.7726 48.9186 25.833C50.5533 25.7726 52.1583 26.2806 53.4605 27.2706C54.763 28.2605 55.6817 29.6712 56.0605 31.2625C56.1427 31.6341 56.0743 32.0232 55.8696 32.3443C55.6654 32.6654 55.3421 32.8922 54.9701 32.9751C54.8678 32.9973 54.763 33.0086 54.6577 33.0088Z" fill="#3079D6"/>
<path d="M39.0962 34.7308H7.05595C5.43037 34.7308 4.11551 35.9386 4.11551 37.4325V75.2426C4.11551 76.7344 5.43037 77.9423 7.05595 77.9423H39.0962V34.7308Z" fill="white"/>
<path d="M39.0961 34.7308H71.1364C72.762 34.7308 74.0768 35.9386 74.0768 37.4325V75.2426C74.0768 76.7344 72.762 77.9423 71.1364 77.9423H39.0961V34.7308Z" fill="url(#paint3_linear_290_6371)"/>
<path d="M34.9806 75.8848C34.9806 78.1585 36.8222 80.0002 39.096 80.0002V71.7694C36.8222 71.7694 34.9806 73.611 34.9806 75.8848Z" fill="#D3DDE4"/>
<path d="M43.2115 75.8848C43.2115 73.611 41.3698 71.7694 39.0961 71.7694V80.0002C41.3698 80.0002 43.2115 78.1585 43.2115 75.8848Z" fill="url(#paint4_linear_290_6371)"/>
<path d="M5.14422 61.4809H2.05769C0.921845 61.4809 0 60.559 0 59.4232V53.2501C0 52.1143 0.921845 51.1924 2.05769 51.1924H5.14422C7.98589 51.1924 10.2884 53.495 10.2884 56.3367C10.2884 59.1783 7.98589 61.4809 5.14422 61.4809Z" fill="url(#paint5_linear_290_6371)"/>
<path d="M76.1345 61.4809H73.0479C70.2063 61.4809 67.9037 59.1783 67.9037 56.3367C67.9037 53.495 70.2063 51.1924 73.0479 51.1924H76.1345C77.2703 51.1924 78.1922 52.1143 78.1922 53.2501V59.4232C78.1922 60.559 77.2703 61.4809 76.1345 61.4809Z" fill="url(#paint6_linear_290_6371)"/>
<path d="M56.6225 65.7306V50.9689C65.3211 50.9689 66.3293 59.9135 66.4277 64.7253C66.4385 65.2779 65.9957 65.7306 65.4431 65.7306H56.6225Z" fill="url(#paint7_linear_290_6371)"/>
<path d="M47.73 65.7306C47.1775 65.7306 46.7346 65.2779 46.7454 64.7253C46.8438 59.9135 47.8521 50.9689 56.5506 50.9689V65.7306H47.73Z" fill="url(#paint8_linear_290_6371)"/>
<path d="M56.5866 55.3974C59.0324 55.3974 61.0151 53.4147 61.0151 50.9689C61.0151 48.5231 59.0324 46.5404 56.5866 46.5404C54.1408 46.5404 52.1581 48.5231 52.1581 50.9689C52.1581 53.4147 54.1408 55.3974 56.5866 55.3974Z" fill="url(#paint9_radial_290_6371)"/>
<path d="M59.0468 49.0007C58.853 49.0007 58.6734 49.0587 58.5208 49.1557C58.3604 48.2301 57.5579 47.5245 56.5866 47.5245C55.6152 47.5245 54.8127 48.2301 54.6523 49.1557C54.4997 49.0587 54.3201 49.0007 54.1263 49.0007C53.5826 49.0007 53.1422 49.4411 53.1422 49.9848C53.1422 50.5285 53.5826 50.9689 54.1263 50.9689C54.4594 50.9689 54.7527 50.8026 54.9308 50.5492C55.2802 51.0964 55.8893 51.461 56.5866 51.461C57.2838 51.461 57.893 51.0964 58.2423 50.5492C58.4205 50.8026 58.7137 50.9689 59.0468 50.9689C59.5906 50.9689 60.031 50.5285 60.031 49.9848C60.031 49.4411 59.5906 49.0007 59.0468 49.0007Z" fill="url(#paint10_linear_290_6371)"/>
<path d="M56.5866 48.5086C56.0428 48.5086 55.6024 48.949 55.6024 49.4927C55.6024 50.0365 56.0428 50.4769 56.5866 50.4769C57.1303 50.4769 57.5707 50.0365 57.5707 49.4927C57.5707 48.949 57.1303 48.5086 56.5866 48.5086Z" fill="url(#paint11_linear_290_6371)"/>
<path d="M61.9987 57.8577H61.5071V60.81H62.163C62.6428 60.81 63.0527 60.5793 63.1334 60.2639L63.4547 59.0067C63.6077 58.4063 62.9129 57.8577 61.9987 57.8577Z" fill="url(#paint12_linear_290_6371)"/>
<path d="M51.1744 57.8577H51.666V60.81H51.0101C50.5303 60.81 50.1204 60.5793 50.0398 60.2639L49.7184 59.0067C49.5654 58.4063 50.2602 57.8577 51.1744 57.8577Z" fill="url(#paint13_linear_290_6371)"/>
<path d="M56.5866 50.9266C59.5 50.9266 62.4912 52.1075 62.4912 58.4059C62.4912 58.9102 62.4912 60.3145 62.4912 60.8528C62.4912 63.1015 58.8751 66.2227 56.5866 66.2227C54.298 66.2227 50.6819 63.1015 50.6819 60.8533C50.6819 60.315 50.6819 58.9102 50.6819 58.4063C50.6819 52.1075 53.6731 50.9266 56.5866 50.9266Z" fill="url(#paint14_radial_290_6371)"/>
<path d="M56.5866 49.4927C50.6819 49.4927 49.2057 52.9371 49.2057 54.9054C49.2057 56.8736 50.6819 59.3339 50.6819 59.3339C50.6819 54.4133 53.1422 56.8736 53.1422 52.4451C55.6024 58.8418 62.4912 54.9054 62.4912 59.3339C62.4912 59.3339 63.9674 56.7968 63.9674 54.9054C63.9674 52.9371 62.4912 49.4927 56.5866 49.4927Z" fill="url(#paint15_radial_290_6371)"/>
<path d="M25.0949 64.2542C21.4319 64.2542 18.4522 61.2745 18.4522 57.6114C18.4522 53.9484 21.4319 50.9687 25.0949 50.9687C28.758 50.9687 31.7377 53.9484 31.7377 57.6114C31.7377 61.2745 28.758 64.2542 25.0949 64.2542ZM25.0949 53.0446C22.5765 53.0446 20.528 55.0934 20.528 57.6114C20.528 60.1295 22.5765 62.1783 25.0949 62.1783C27.6134 62.1783 29.6618 60.1295 29.6618 57.6114C29.6618 55.0934 27.6134 53.0446 25.0949 53.0446Z" fill="#EDBE00"/>
<path opacity="0.05" d="M21.4995 54.7924C21.5451 54.7385 21.5867 54.6845 21.6365 54.6305C21.7237 54.5267 21.8191 54.4271 21.9188 54.3316C21.9686 54.2818 22.0226 54.232 22.0724 54.1904C21.5825 53.6715 20.9763 53.2605 20.3204 52.9989C20.2664 53.0487 20.2166 53.1027 20.1668 53.1608C20.1211 53.2148 20.0713 53.2688 20.0256 53.3269C19.9758 53.3809 19.9301 53.439 19.8844 53.4971C19.8388 53.5552 19.7931 53.6134 19.7474 53.6715C19.7931 53.6839 19.8388 53.7005 19.8844 53.7171C20.4781 53.9372 21.0303 54.2984 21.4704 54.7592C21.4787 54.7717 21.4912 54.78 21.4995 54.7924Z" fill="black"/>
<path opacity="0.07" d="M20.1668 53.161C20.1212 53.215 20.0713 53.269 20.0257 53.3271C19.9759 53.3811 19.9302 53.4392 19.8845 53.4973C19.9094 53.5056 19.9302 53.5139 19.9551 53.5222C20.582 53.7506 21.1591 54.1325 21.6241 54.6183C21.6282 54.6224 21.6324 54.6266 21.6365 54.6307C21.7237 54.5269 21.8192 54.4273 21.9189 54.3318C21.429 53.817 20.827 53.4143 20.1668 53.161Z" fill="black"/>
<path d="M23.7913 53.6715C23.7497 53.6133 23.7082 53.5552 23.6584 53.4971C23.6169 53.439 23.5671 53.385 23.5214 53.3269C23.4716 53.2687 23.4218 53.2106 23.3761 53.1566C23.3263 53.1027 23.2723 53.0487 23.2225 52.9947C22.9069 52.6667 22.5541 52.372 22.1721 52.1146C22.1057 52.0689 22.0392 52.0274 21.9728 51.9859C21.9064 51.9443 21.84 51.9028 21.7735 51.8655C21.7029 51.8239 21.6324 51.7866 21.5576 51.7451C21.4912 51.7077 21.4206 51.6703 21.3459 51.6371C20.474 51.2095 19.4901 50.9687 18.4521 50.9687C14.7903 50.9687 11.8094 53.9496 11.8094 57.6114C11.8094 61.2733 14.7903 64.2542 18.4521 64.2542C19.4901 64.2542 20.474 64.0134 21.3459 63.5858C21.4206 63.5526 21.4912 63.5152 21.5576 63.4778C21.6324 63.4363 21.7029 63.399 21.7735 63.3574C21.6905 63.3076 21.6075 63.2619 21.5286 63.208C21.4497 63.1582 21.3708 63.1083 21.2919 63.0544L21.2836 63.0461C21.1425 62.9506 21.0055 62.8468 20.8726 62.7347C20.7481 62.635 20.6318 62.5271 20.5156 62.4191C20.4616 62.3693 20.4118 62.3195 20.3661 62.2697C20.3121 62.2199 20.2623 62.1659 20.2125 62.1119C20.1502 62.0413 20.0879 61.9708 20.0257 61.896L19.8139 61.9708C19.7433 61.9915 19.6728 62.0123 19.6022 62.0289C19.2327 62.1285 18.8507 62.1783 18.4521 62.1783C15.9321 62.1783 13.8852 60.1315 13.8852 57.6114C13.8852 55.0914 15.9321 53.0446 18.4521 53.0446C18.8507 53.0446 19.2327 53.0944 19.6022 53.194C19.6728 53.2106 19.7433 53.2314 19.8139 53.2521L20.0257 53.3269C20.0921 53.3518 20.1585 53.3767 20.2249 53.4058C20.2914 53.4348 20.3578 53.4639 20.4242 53.4971C20.8062 53.6798 21.1591 53.9123 21.4746 54.1946C21.5286 54.2361 21.5784 54.2859 21.6282 54.3316C21.678 54.3814 21.7279 54.4271 21.7735 54.4769C21.8233 54.5267 21.869 54.5807 21.9147 54.6347C21.9604 54.6886 22.006 54.7426 22.0475 54.7966C22.6578 55.5771 23.019 56.5486 23.019 57.6114C23.019 58.6743 22.6578 59.6458 22.0475 60.4263C22.006 60.4803 21.9604 60.5343 21.9147 60.5882C21.869 60.6422 21.8233 60.6962 21.7735 60.746C21.8026 60.7751 21.8358 60.8083 21.8649 60.8415C21.8898 60.8664 21.9188 60.8913 21.9437 60.9162C21.9479 60.9245 21.9562 60.9287 21.9604 60.9328C21.9811 60.9536 22.0019 60.9702 22.0226 60.991C22.197 61.1487 22.3838 61.294 22.579 61.4186C22.6495 61.4684 22.7243 61.5141 22.8032 61.5597C23.0315 61.6926 23.2723 61.8047 23.5214 61.896C23.5671 61.8379 23.6169 61.7839 23.6584 61.7258C23.7082 61.6677 23.7497 61.6096 23.7913 61.5514C24.6092 60.4471 25.0949 59.0853 25.0949 57.6114C25.0949 56.1376 24.6092 54.7758 23.7913 53.6715Z" fill="#E3A600"/>
<path opacity="0.05" d="M21.9147 60.5886C21.869 60.6425 21.8234 60.6965 21.7736 60.7463C21.8026 60.7754 21.8358 60.8086 21.8649 60.8418C21.8898 60.8667 21.9189 60.8916 21.9438 60.9165C21.9479 60.9248 21.9562 60.929 21.9604 60.9331C21.9811 60.9539 22.0019 60.9705 22.0227 60.9913C22.197 61.149 22.3839 61.2943 22.579 61.4189C22.6496 61.4687 22.7243 61.5144 22.8032 61.5601C23.0315 61.6929 23.2723 61.8092 23.5214 61.8963C23.5671 61.8382 23.6169 61.7842 23.6584 61.7261C23.7083 61.668 23.7498 61.6099 23.7913 61.5518C23.1187 61.3317 22.5209 60.9373 22.0476 60.4266C22.0061 60.4806 21.9604 60.5346 21.9147 60.5886Z" fill="black"/>
<path opacity="0.07" d="M21.9147 60.5883C21.8691 60.6422 21.8234 60.6962 21.7736 60.746C21.8027 60.7751 21.8359 60.8083 21.8649 60.8415C21.8898 60.8664 21.9189 60.8913 21.9438 60.9162C21.948 60.9245 21.9563 60.9287 21.9604 60.9328C21.9812 60.9536 22.0019 60.9702 22.0227 60.991C22.1971 61.1487 22.3839 61.294 22.579 61.4186C22.6496 61.4684 22.7243 61.5141 22.8032 61.5598C23.0316 61.6926 23.2724 61.8089 23.5215 61.8961C23.5671 61.8379 23.617 61.784 23.6585 61.7258C22.9859 61.4933 22.388 61.0989 21.9147 60.5883Z" fill="black"/>
<defs>
<radialGradient id="paint0_radial_290_6371" cx="0" cy="0" r="1" gradientUnits="userSpaceOnUse" gradientTransform="translate(38.6286 37.3874) scale(31.4107 37.6436)">
<stop offset="0.934" stop-opacity="0.2"/>
<stop offset="1" stop-opacity="0"/>
</radialGradient>
<linearGradient id="paint1_linear_290_6371" x1="26.2065" y1="-9.03531" x2="61.0177" y2="54.7262" gradientUnits="userSpaceOnUse">
<stop stop-color="#FFD869"/>
<stop offset="1" stop-color="#FEC52B"/>
</linearGradient>
<linearGradient id="paint2_linear_290_6371" x1="29.1376" y1="-9.14699" x2="63.4444" y2="67.6598" gradientUnits="userSpaceOnUse">
<stop stop-color="#EBC500"/>
<stop offset="1" stop-color="#FFD869"/>
</linearGradient>
<linearGradient id="paint3_linear_290_6371" x1="56.5865" y1="80.9815" x2="56.5865" y2="28.4507" gradientUnits="userSpaceOnUse">
<stop stop-color="#1A72C3"/>
<stop offset="0.108" stop-color="#1A72C3"/>
<stop offset="0.38" stop-color="#1A72C3"/>
<stop offset="0.84375" stop-color="#1B6CCC"/>
</linearGradient>
<linearGradient id="paint4_linear_290_6371" x1="41.1538" y1="81.2718" x2="41.1538" y2="23.7367" gradientUnits="userSpaceOnUse">
<stop stop-color="#42A4ED"/>
<stop offset="0.108" stop-color="#1A72C3"/>
<stop offset="0.38" stop-color="#42A4ED"/>
<stop offset="1" stop-color="#42A4ED"/>
</linearGradient>
<linearGradient id="paint5_linear_290_6371" x1="5.14422" y1="65.3535" x2="5.14422" y2="39.1694" gradientUnits="userSpaceOnUse">
<stop offset="0.002" stop-color="#454545"/>
<stop offset="0.013" stop-color="#464646"/>
<stop offset="0.875" stop-color="#626262"/>
<stop offset="1" stop-color="#6D6D6D"/>
</linearGradient>
<linearGradient id="paint6_linear_290_6371" x1="73.0479" y1="65.3535" x2="73.0479" y2="39.1694" gradientUnits="userSpaceOnUse">
<stop offset="0.002" stop-color="#454545"/>
<stop offset="0.013" stop-color="#464646"/>
<stop offset="0.875" stop-color="#626262"/>
<stop offset="1" stop-color="#6D6D6D"/>
</linearGradient>
<linearGradient id="paint7_linear_290_6371" x1="46.7452" y1="56.3815" x2="66.4275" y2="56.3815" gradientUnits="userSpaceOnUse">
<stop stop-color="#A3FFFF"/>
<stop offset="0.223" stop-color="#9DFBFF"/>
<stop offset="0.53" stop-color="#8BF1FF"/>
<stop offset="0.885" stop-color="#6EE0FF"/>
<stop offset="1" stop-color="#63DAFF"/>
</linearGradient>
<linearGradient id="paint8_linear_290_6371" x1="66.4279" y1="56.3815" x2="46.7456" y2="56.3815" gradientUnits="userSpaceOnUse">
<stop stop-color="#A3FFFF"/>
<stop offset="0.223" stop-color="#9DFBFF"/>
<stop offset="0.53" stop-color="#8BF1FF"/>
<stop offset="0.885" stop-color="#6EE0FF"/>
<stop offset="1" stop-color="#63DAFF"/>
</linearGradient>
<radialGradient id="paint9_radial_290_6371" cx="0" cy="0" r="1" gradientUnits="userSpaceOnUse" gradientTransform="translate(51.2001 46.898) scale(24.4371 24.4366)">
<stop stop-color="#C26715"/>
<stop offset="0.508" stop-color="#B85515"/>
<stop offset="1" stop-color="#AD3F16"/>
</radialGradient>
<linearGradient id="paint10_linear_290_6371" x1="56.5866" y1="46.7717" x2="56.5866" y2="66.3112" gradientUnits="userSpaceOnUse">
<stop stop-color="#A3FFFF"/>
<stop offset="0.223" stop-color="#9DFBFF"/>
<stop offset="0.53" stop-color="#8BF1FF"/>
<stop offset="0.885" stop-color="#6EE0FF"/>
<stop offset="1" stop-color="#63DAFF"/>
</linearGradient>
<linearGradient id="paint11_linear_290_6371" x1="46.7452" y1="56.3815" x2="66.4279" y2="56.3815" gradientUnits="userSpaceOnUse">
<stop stop-color="#33BEF0"/>
<stop offset="1" stop-color="#0A85D9"/>
</linearGradient>
<linearGradient id="paint12_linear_290_6371" x1="51.6695" y1="56.3815" x2="64.1006" y2="56.3815" gradientUnits="userSpaceOnUse">
<stop stop-color="#C48F0C"/>
<stop offset="0.251" stop-color="#D19B16"/>
<stop offset="0.619" stop-color="#DCA51F"/>
<stop offset="1" stop-color="#E0A922"/>
</linearGradient>
<linearGradient id="paint13_linear_290_6371" x1="61.5086" y1="56.3815" x2="49.0725" y2="56.3815" gradientUnits="userSpaceOnUse">
<stop stop-color="#C48F0C"/>
<stop offset="0.251" stop-color="#D19B16"/>
<stop offset="0.619" stop-color="#DCA51F"/>
<stop offset="1" stop-color="#E0A922"/>
</linearGradient>
<radialGradient id="paint14_radial_290_6371" cx="0" cy="0" r="1" gradientUnits="userSpaceOnUse" gradientTransform="translate(56.5782 56.3812) rotate(180) scale(11.3868 8.79101)">
<stop stop-color="#FFCF54"/>
<stop offset="0.261" stop-color="#FDCB4D"/>
<stop offset="0.639" stop-color="#F7C13A"/>
<stop offset="1" stop-color="#F0B421"/>
</radialGradient>
<radialGradient id="paint15_radial_290_6371" cx="0" cy="0" r="1" gradientUnits="userSpaceOnUse" gradientTransform="translate(52.5468 49.6714) scale(14.8581)">
<stop stop-color="#C26715"/>
<stop offset="0.508" stop-color="#B85515"/>
<stop offset="1" stop-color="#AD3F16"/>
</radialGradient>
</defs>
</svg>
