<svg width="100" height="105" viewBox="0 0 100 105" fill="none" xmlns="http://www.w3.org/2000/svg">
<path d="M12.4983 58.432C13.7941 55.8424 12.99 53.2529 12.5671 51.6633C12.3254 50.757 12.7358 49.7966 13.5608 49.3529C23.215 44.1487 23.4462 32.5924 22.94 27.4924C22.8108 26.1966 23.8796 25.1258 25.1775 25.2216C29.9358 25.5737 40.5858 23.7341 48.3441 13.4341C49.1733 12.332 50.8233 12.332 51.6546 13.4341C59.5546 23.9216 70.1983 25.7216 74.8775 25.3695C76.1108 25.2779 77.1462 26.2654 77.1025 27.5008C76.9171 32.5799 77.9046 44.5133 86.4941 49.3633C87.29 49.8133 87.6691 50.7591 87.4316 51.6424C87.0025 53.2299 86.1983 55.8299 87.4983 58.432" fill="#FFC107"/>
<path d="M12.4983 58.432C13.7941 55.8424 12.99 53.2529 12.5671 51.6633C12.3254 50.757 12.7358 49.7966 13.5608 49.3529C23.215 44.1487 23.4462 32.5924 22.94 27.4924C22.8108 26.1966 23.8796 25.1258 25.1775 25.2216C29.9358 25.5737 40.5858 23.7341 48.3441 13.4341C49.1733 12.332 50.8233 12.332 51.6546 13.4341C59.5546 23.9216 70.1983 25.7216 74.8775 25.3695C76.1108 25.2779 77.1462 26.2654 77.1025 27.5008C76.9171 32.5799 77.9046 44.5133 86.4941 49.3633C87.29 49.8133 87.6691 50.7591 87.4316 51.6424C87.0025 53.2299 86.1983 55.8299 87.4983 58.432" fill="#FFC107"/>
<path d="M12.4983 58.432C13.7941 55.8424 12.99 53.2529 12.5671 51.6633C12.3254 50.757 12.7358 49.7966 13.5608 49.3529C23.215 44.1487 23.4462 32.5924 22.94 27.4924C22.8108 26.1966 23.8796 25.1258 25.1775 25.2216C29.9358 25.5737 40.5858 23.7341 48.3441 13.4341C49.1733 12.332 50.8233 12.332 51.6546 13.4341C59.5546 23.9216 70.1983 25.7216 74.8775 25.3695C76.1108 25.2779 77.1462 26.2654 77.1025 27.5008C76.9171 32.5799 77.9046 44.5133 86.4941 49.3633C87.29 49.8133 87.6691 50.7591 87.4316 51.6424C87.0025 53.2299 86.1983 55.8299 87.4983 58.432" fill="url(#paint0_linear_289_6043)"/>
<path d="M64.5816 54.2654H36.0087C36.0087 54.2654 39.09 36.305 39.5816 34.6216C40.6233 31.0508 44.9379 29.2654 50.2962 29.2654C55.6546 29.2654 59.8941 30.9737 61.0108 34.6216C61.84 37.332 64.5816 54.2654 64.5816 54.2654Z" fill="url(#paint1_linear_289_6043)"/>
<path d="M83.3316 54.2654H16.665C14.365 54.2654 12.4983 56.132 12.4983 58.432V87.5987C12.4983 89.8987 14.365 91.7654 16.665 91.7654H83.3316C85.6316 91.7654 87.4983 89.8987 87.4983 87.5987V58.432C87.4983 56.132 85.6316 54.2654 83.3316 54.2654Z" fill="url(#paint2_linear_289_6043)"/>
<path d="M49.2795 62.5987L43.7733 83.432H38.5712L35.1129 70.0654C34.9295 69.3674 34.817 68.5883 34.7795 67.7258H34.7212C34.6337 68.6758 34.5087 69.4549 34.3441 70.0654L30.8004 83.432H25.3816L19.9045 62.5987H25.0337L27.9691 76.4737C28.0941 77.0654 28.1879 77.8591 28.2441 78.857H28.3316C28.3712 78.1112 28.5108 77.2987 28.7525 76.4154L32.5295 62.5987H37.5566L40.9712 76.5883C41.0962 77.1008 41.2087 77.8466 41.3045 78.8258H41.3629C41.4025 78.0612 41.5025 77.2862 41.667 76.5008L44.5441 62.5987H49.2795Z" fill="white"/>
<path d="M56.6171 83.432H51.9254V62.5987H56.6171V83.432Z" fill="white"/>
<path d="M80.0921 83.432H75.3566L66.7712 70.3424C66.2671 69.5779 65.9191 69.0008 65.7254 68.6133H65.6671C65.7441 69.3487 65.7837 70.4737 65.7837 71.9841V83.432H61.3525V62.5987H66.4087L74.6754 75.282C75.0525 75.8529 75.4025 76.4195 75.7212 76.982H75.7796C75.7025 76.4987 75.6629 75.5445 75.6629 74.1195V62.5987H80.0921V83.432Z" fill="white"/>
<defs>
<linearGradient id="paint0_linear_289_6043" x1="42.9837" y1="14.8049" x2="50.9879" y2="60.3112" gradientUnits="userSpaceOnUse">
<stop stop-color="#FFDA1C"/>
<stop offset="1" stop-color="#FEB705"/>
</linearGradient>
<linearGradient id="paint1_linear_289_6043" x1="46.7858" y1="29.8216" x2="51.9483" y2="65.7716" gradientUnits="userSpaceOnUse">
<stop stop-color="#FF5C5C"/>
<stop offset="0.682" stop-color="#CF1928"/>
</linearGradient>
<linearGradient id="paint2_linear_289_6043" x1="48.1212" y1="53.9237" x2="51.492" y2="88.1925" gradientUnits="userSpaceOnUse">
<stop stop-color="#2AA4F4"/>
<stop offset="1" stop-color="#007AD9"/>
</linearGradient>
</defs>
</svg>
