<svg width="150" height="150" viewBox="0 0 150 150" fill="none" xmlns="http://www.w3.org/2000/svg">
<g id="you">
<path id="Vector" d="M75 28.125C80.1777 28.125 84.375 23.9277 84.375 18.75C84.375 13.5723 80.1777 9.375 75 9.375C69.8223 9.375 65.625 13.5723 65.625 18.75C65.625 23.9277 69.8223 28.125 75 28.125Z" fill="#21A366"/>
<path id="Vector_2" d="M25 56.25C30.1777 56.25 34.375 52.0527 34.375 46.875C34.375 41.6973 30.1777 37.5 25 37.5C19.8223 37.5 15.625 41.6973 15.625 46.875C15.625 52.0527 19.8223 56.25 25 56.25Z" fill="#21A366"/>
<path id="Vector_3" d="M25 112.5C30.1777 112.5 34.375 108.303 34.375 103.125C34.375 97.9473 30.1777 93.75 25 93.75C19.8223 93.75 15.625 97.9473 15.625 103.125C15.625 108.303 19.8223 112.5 25 112.5Z" fill="#21A366"/>
<path id="Vector_4" d="M125 56.25C130.178 56.25 134.375 52.0527 134.375 46.875C134.375 41.6973 130.178 37.5 125 37.5C119.822 37.5 115.625 41.6973 115.625 46.875C115.625 52.0527 119.822 56.25 125 56.25Z" fill="#21A366"/>
<path id="Vector_5" d="M125 112.5C130.178 112.5 134.375 108.303 134.375 103.125C134.375 97.9473 130.178 93.75 125 93.75C119.822 93.75 115.625 97.9473 115.625 103.125C115.625 108.303 119.822 112.5 125 112.5Z" fill="#21A366"/>
<path id="Vector_6" d="M75 140.625C80.1777 140.625 84.375 136.428 84.375 131.25C84.375 126.072 80.1777 121.875 75 121.875C69.8223 121.875 65.625 126.072 65.625 131.25C65.625 136.428 69.8223 140.625 75 140.625Z" fill="#21A366"/>
<path id="Vector_7" d="M109.375 75C109.375 93.9844 93.9844 109.375 75 109.375C56.0156 109.375 40.625 93.9844 40.625 75C40.625 56.0156 56.0156 40.625 75 40.625C93.9844 40.625 109.375 56.0156 109.375 75Z" fill="url(#paint0_radial_206_7751)"/>
<path id="Vector_8" d="M75 109.375C84.9594 109.375 93.9031 105.112 100.181 98.3437C95.9281 88.6531 86.2625 81.875 75 81.875C63.7375 81.875 54.0719 88.6531 49.8188 98.3437C56.0969 105.112 65.0406 109.375 75 109.375Z" fill="url(#paint1_radial_206_7751)"/>
<path id="Vector_9" d="M75 81.25C83.6294 81.25 90.625 74.2544 90.625 65.625C90.625 56.9956 83.6294 50 75 50C66.3706 50 59.375 56.9956 59.375 65.625C59.375 74.2544 66.3706 81.25 75 81.25Z" fill="url(#paint2_radial_206_7751)"/>
<path id="Vector_10" d="M75 78.125C81.9036 78.125 87.5 72.5286 87.5 65.625C87.5 58.7214 81.9036 53.125 75 53.125C68.0964 53.125 62.5 58.7214 62.5 65.625C62.5 72.5286 68.0964 78.125 75 78.125Z" fill="url(#paint3_linear_206_7751)"/>
<path id="Vector_11" d="M75 109.375C83.6187 109.375 91.4781 106.178 97.5125 100.938C94.0906 91.8156 85.3156 85.3125 75 85.3125C64.6844 85.3125 55.9094 91.8156 52.4875 100.938C58.5219 106.178 66.3812 109.375 75 109.375Z" fill="url(#paint4_linear_206_7751)"/>
</g>
<defs>
<radialGradient id="paint0_radial_206_7751" cx="0" cy="0" r="1" gradientUnits="userSpaceOnUse" gradientTransform="translate(52.9594 48.175) scale(69.2875)">
<stop stop-color="#0370C8"/>
<stop offset="0.484" stop-color="#036FC5"/>
<stop offset="0.775" stop-color="#036ABD"/>
<stop offset="1" stop-color="#0362B0"/>
</radialGradient>
<radialGradient id="paint1_radial_206_7751" cx="0" cy="0" r="1" gradientUnits="userSpaceOnUse" gradientTransform="translate(75 109.559) scale(27.7406 27.7406)">
<stop/>
<stop offset="1" stop-opacity="0"/>
</radialGradient>
<radialGradient id="paint2_radial_206_7751" cx="0" cy="0" r="1" gradientUnits="userSpaceOnUse" gradientTransform="translate(74.9973 65.6197) scale(15.6244)">
<stop/>
<stop offset="1" stop-opacity="0"/>
</radialGradient>
<linearGradient id="paint3_linear_206_7751" x1="66.5188" y1="57.1438" x2="83.9594" y2="74.5844" gradientUnits="userSpaceOnUse">
<stop stop-color="#75DAFF"/>
<stop offset="1" stop-color="#1EA2E4"/>
</linearGradient>
<linearGradient id="paint4_linear_206_7751" x1="62.9812" y1="87.3906" x2="86.8375" y2="111.25" gradientUnits="userSpaceOnUse">
<stop stop-color="#75DAFF"/>
<stop offset="1" stop-color="#1EA2E4"/>
</linearGradient>
</defs>
</svg>
