<svg width="24" height="24" viewBox="0 0 24 24" fill="none" xmlns="http://www.w3.org/2000/svg">
<g clip-path="url(#clip0_6_3351)">
<rect width="24" height="24" rx="2" fill="#F2F2F2"/>
<path d="M5.08329 11.1666C6.69412 11.1666 7.99995 9.8608 7.99995 8.24998C7.99995 6.63915 6.69412 5.33331 5.08329 5.33331C3.47246 5.33331 2.16663 6.63915 2.16663 8.24998C2.16663 9.8608 3.47246 11.1666 5.08329 11.1666Z" fill="url(#paint0_linear_6_3351)"/>
<path d="M5.08337 12.3334C2.18362 12.3334 -0.166626 14.6836 -0.166626 17.5834V22.8334C-0.166626 23.4779 0.355457 24 1.00004 24H9.1667C9.81128 24 10.3334 23.4779 10.3334 22.8334V17.5834C10.3334 14.6836 7.98312 12.3334 5.08337 12.3334Z" fill="url(#paint1_linear_6_3351)"/>
<path d="M19.0834 11.1666C20.6942 11.1666 22 9.8608 22 8.24998C22 6.63915 20.6942 5.33331 19.0834 5.33331C17.4725 5.33331 16.1667 6.63915 16.1667 8.24998C16.1667 9.8608 17.4725 11.1666 19.0834 11.1666Z" fill="url(#paint2_linear_6_3351)"/>
<path d="M19.0834 12.3334C16.1836 12.3334 13.8334 14.6836 13.8334 17.5834V22.8334C13.8334 23.4779 14.3555 24 15 24H23.1667C23.8113 24 24.3334 23.4779 24.3334 22.8334V17.5834C24.3334 14.6836 21.9831 12.3334 19.0834 12.3334Z" fill="url(#paint3_linear_6_3351)"/>
<path d="M12.0834 8.83333C13.6942 8.83333 15.0001 7.52749 15.0001 5.91666C15.0001 4.30584 13.6942 3 12.0834 3C10.4726 3 9.16675 4.30584 9.16675 5.91666C9.16675 7.52749 10.4726 8.83333 12.0834 8.83333Z" fill="url(#paint4_linear_6_3351)"/>
<path opacity="0.05" d="M18.5 22.8333V15.2499C18.5 14.2577 18.2673 13.3209 17.863 12.4814C15.553 13.0327 13.8334 15.1047 13.8334 17.5833V22.8333C13.8334 23.4779 14.3555 23.9999 15 23.9999H18.1757C18.3764 23.6552 18.5 23.2603 18.5 22.8333Z" fill="black"/>
<path opacity="0.067" d="M18.111 22.8334V15.25C18.111 14.3044 17.8864 13.4125 17.4967 12.6151C15.3786 13.2679 13.8334 15.2424 13.8334 17.5834V22.8334C13.8334 23.4779 14.3555 24 15 24H17.506C17.8549 23.7702 18.111 23.3327 18.111 22.8334Z" fill="black"/>
<path opacity="0.09" d="M17.7225 22.8334V15.25C17.7225 14.3505 17.506 13.5036 17.131 12.7487C15.2042 13.503 13.8334 15.3801 13.8334 17.5834V22.8334C13.8334 23.478 14.3555 24 15 24H16.8364C17.3328 23.8851 17.7225 23.405 17.7225 22.8334Z" fill="black"/>
<path opacity="0.05" d="M5.66675 22.8333V15.2499C5.66675 14.2577 5.8995 13.3209 6.30375 12.4814C8.61375 13.0327 10.3334 15.1047 10.3334 17.5833V22.8333C10.3334 23.4779 9.81133 23.9999 9.16674 23.9999H5.99108C5.79041 23.6552 5.66675 23.2603 5.66675 22.8333Z" fill="black"/>
<path opacity="0.067" d="M6.05579 22.8334V15.25C6.05579 14.3044 6.28037 13.4125 6.67004 12.6151C8.78812 13.2679 10.3334 15.2424 10.3334 17.5834V22.8334C10.3334 23.4779 9.81128 24 9.1667 24H6.6607C6.31187 23.7702 6.05579 23.3327 6.05579 22.8334Z" fill="black"/>
<path opacity="0.09" d="M6.44434 22.8334V15.25C6.44434 14.3505 6.66075 13.5036 7.03584 12.7487C8.96258 13.503 10.3334 15.3801 10.3334 17.5834V22.8334C10.3334 23.478 9.81133 24 9.16675 24H7.33042C6.834 23.8851 6.44434 23.405 6.44434 22.8334Z" fill="black"/>
<path d="M12.0834 10C9.18362 10 6.83337 12.3502 6.83337 15.25V22.8333C6.83337 23.4779 7.35546 24 8.00004 24H16.1667C16.8113 24 17.3334 23.4779 17.3334 22.8333V15.25C17.3334 12.3502 14.9831 10 12.0834 10Z" fill="url(#paint5_linear_6_3351)"/>
</g>
<defs>
<linearGradient id="paint0_linear_6_3351" x1="3.10462" y1="6.27131" x2="7.17395" y2="10.3406" gradientUnits="userSpaceOnUse">
<stop stop-color="#199AE0"/>
<stop offset="1" stop-color="#0782D8"/>
</linearGradient>
<linearGradient id="paint1_linear_6_3351" x1="0.668123" y1="14.9479" x2="9.74886" y2="24.028" gradientUnits="userSpaceOnUse">
<stop stop-color="#199AE0"/>
<stop offset="1" stop-color="#0782D8"/>
</linearGradient>
<linearGradient id="paint2_linear_6_3351" x1="17.1047" y1="6.27131" x2="21.174" y2="10.3406" gradientUnits="userSpaceOnUse">
<stop stop-color="#0D61A9"/>
<stop offset="1" stop-color="#16528C"/>
</linearGradient>
<linearGradient id="paint3_linear_6_3351" x1="14.6681" y1="14.9479" x2="23.7489" y2="24.028" gradientUnits="userSpaceOnUse">
<stop stop-color="#0D61A9"/>
<stop offset="1" stop-color="#16528C"/>
</linearGradient>
<linearGradient id="paint4_linear_6_3351" x1="10.5492" y1="2.20503" x2="15.0542" y2="6.2778" gradientUnits="userSpaceOnUse">
<stop stop-color="#69CEEC"/>
<stop offset="1" stop-color="#2FA8CC"/>
</linearGradient>
<linearGradient id="paint5_linear_6_3351" x1="9.32187" y1="8.09208" x2="19.4171" y2="14.9372" gradientUnits="userSpaceOnUse">
<stop stop-color="#69CEEC"/>
<stop offset="1" stop-color="#2FA8CC"/>
</linearGradient>
<clipPath id="clip0_6_3351">
<rect width="24" height="24" rx="2" fill="white"/>
</clipPath>
</defs>
</svg>
