<svg width="195" height="195" viewBox="0 0 195 195" fill="none" xmlns="http://www.w3.org/2000/svg">
<g filter="url(#filter0_i_163_5086)">
<path d="M153.805 57.5V147.667C153.805 151.027 151.075 153.75 147.706 153.75H65.7807C62.9112 153.75 60.585 151.43 60.585 148.568V57.5H153.805Z" fill="url(#paint0_linear_163_5086)" fill-opacity="0.1"/>
<path d="M153.805 57.9549H60.2212V148.493C60.2212 151.396 62.6018 153.75 65.538 153.75H147.583C151.019 153.75 153.805 150.996 153.805 147.598V57.9549Z" fill="url(#paint1_linear_163_5086)" fill-opacity="0.1"/>
<path d="M153.805 57.9549H60.2212V148.493C60.2212 151.396 62.6018 153.75 65.538 153.75H147.583C151.019 153.75 153.805 150.996 153.805 147.598V57.9549Z" fill="url(#paint2_linear_163_5086)" fill-opacity="0.1"/>
<path d="M153.805 57.9549H60.2212V148.493C60.2212 151.396 62.6018 153.75 65.538 153.75H147.583C151.019 153.75 153.805 150.996 153.805 147.598V57.9549Z" fill="url(#paint3_linear_163_5086)" fill-opacity="0.1"/>
</g>
<path d="M65.4492 153.5H44.9688C44.4731 153.5 43.9819 153.405 43.5238 153.22C43.0658 153.036 42.6499 152.766 42.2988 152.425C41.9477 152.083 41.6705 151.679 41.4806 151.233C41.2908 150.788 41.1943 150.31 41.1943 149.827V57.5H61.6792V149.827C61.6777 150.31 61.7757 150.787 61.964 151.233C62.1539 151.678 62.4312 152.083 62.7822 152.423C63.1318 152.764 63.5477 153.036 64.0057 153.219C64.4638 153.405 64.9535 153.5 65.4492 153.5Z" fill="#F2F2F2"/>
<path d="M43.5959 153.047C44.0311 153.223 44.4981 153.314 44.9688 153.314H63.7525C63.3424 153.125 62.9688 152.868 62.6482 152.556C62.6483 152.557 62.6481 152.556 62.6482 152.556L62.7822 152.423C62.4312 152.083 62.1539 151.678 61.964 151.233L43.5959 153.047ZM43.5959 153.047C43.1611 152.873 42.7664 152.617 42.433 152.292C42.0996 151.968 41.8365 151.585 41.6563 151.162L41.4806 151.233M43.5959 153.047L41.4806 151.233ZM41.4806 151.233L41.6563 151.162C41.4762 150.739 41.3847 150.286 41.3847 149.827V57.6864M41.4806 151.233L41.3847 57.6864ZM41.3847 57.6864H61.4889V149.827L61.6792 149.827L41.3847 57.6864Z" fill="#F2F2F2"/>
<path d="M54.8772 67.4717H47.6888C46.7827 67.4717 46.0486 68.2583 46.0486 69.2285V76.9277C46.0486 77.8979 46.7827 78.6843 47.6888 78.6843H54.8772C55.7834 78.6843 56.519 77.8979 56.519 76.9277V69.2285C56.519 68.2583 55.7834 67.4717 54.8772 67.4717Z" fill="#151515" fill-opacity="0.18"/>
<path d="M55.1118 85.0553H47.9235C47.0173 85.0553 46.2832 85.8417 46.2832 86.8122V94.5114C46.2832 95.4813 47.0173 96.2682 47.9235 96.2682H55.1118C56.018 96.2682 56.7537 95.4813 56.7537 94.5114V86.8122C56.7537 85.8417 56.018 85.0553 55.1118 85.0553Z" fill="#FFD600" fill-opacity="0.18"/>
<path d="M55.1118 100.29H47.9235C47.0173 100.29 46.2832 101.077 46.2832 102.047V109.746C46.2832 110.716 47.0173 111.503 47.9235 111.503H55.1118C56.018 111.503 56.7537 110.716 56.7537 109.746V102.047C56.7537 101.077 56.018 100.29 55.1118 100.29Z" fill="#FFD600" fill-opacity="0.18"/>
<path d="M55.1118 115.524H47.9235C47.0173 115.524 46.2832 116.311 46.2832 117.281V124.98C46.2832 125.95 47.0173 126.737 47.9235 126.737H55.1118C56.018 126.737 56.7537 125.95 56.7537 124.98V117.281C56.7537 116.311 56.018 115.524 55.1118 115.524Z" fill="#FFD600" fill-opacity="0.18"/>
<path d="M44.4359 41.25H150.675C151.47 41.25 152.265 41.8228 152.864 42.9091C153.464 43.992 153.805 45.4694 153.805 47.017V57.1792H41.3054V47.017C41.3054 45.4694 41.6469 43.992 42.2457 42.909C42.8459 41.8228 43.641 41.25 44.4359 41.25Z" fill="#3586CB" stroke="#3586CB" stroke-width="0.183594"/>
<path d="M44.717 41.2778H150.418C151.263 41.2778 152.081 41.8945 152.689 43.0066C153.295 44.1177 153.636 45.6267 153.636 47.2019V57.561H41.4985V47.2019C41.4985 45.6267 41.8396 44.1177 42.4451 43.0066C43.0521 41.8945 43.8701 41.2778 44.717 41.2778Z" stroke="white" stroke-opacity="0.4" stroke-width="0.0458984"/>
<path d="M44.717 41.2778H150.418C151.263 41.2778 152.081 41.8945 152.689 43.0066C153.295 44.1177 153.636 45.6267 153.636 47.2019V57.561H41.4985V47.2019C41.4985 45.6267 41.8396 44.1177 42.4451 43.0066C43.0521 41.8945 43.8701 41.2778 44.717 41.2778Z" stroke="black" stroke-opacity="0.2" stroke-width="0.0458984"/>
<path d="M65.1992 41.25C64.2133 41.2515 63.2677 41.8633 62.572 42.9513C61.8745 44.0395 61.4836 45.5147 61.4836 47.0527V57.1792H41.3054V47.0527C41.3054 45.5136 41.6979 44.0379 42.3952 42.9497C43.0926 41.8614 44.0383 41.25 45.024 41.25H65.1992Z" fill="#366FCA"/>
<path d="M141.062 145.5C141.269 145.498 141.436 145.33 141.435 145.123C141.435 144.915 141.266 144.748 141.059 144.748C140.852 144.75 140.686 144.918 140.686 145.125C140.686 145.333 140.856 145.5 141.062 145.5Z" fill="#036FC5"/>
<path d="M141.055 143.249C140.57 143.251 140.104 143.44 139.756 143.779C139.686 143.848 139.643 143.943 139.642 144.043C139.64 144.142 139.679 144.238 139.747 144.309C139.818 144.381 139.913 144.421 140.013 144.423C140.113 144.424 140.206 144.385 140.279 144.316C140.491 144.121 140.77 144.011 141.058 144.011C141.346 144.01 141.625 144.118 141.838 144.312C141.911 144.379 142.007 144.417 142.107 144.414C142.206 144.413 142.3 144.371 142.37 144.3C142.438 144.228 142.476 144.132 142.474 144.032C142.471 143.933 142.429 143.838 142.359 143.769C142.007 143.433 141.539 143.247 141.055 143.249ZM141.048 141.373C140.596 141.375 140.148 141.469 139.732 141.646C139.316 141.826 138.94 142.087 138.626 142.414C138.592 142.45 138.566 142.493 138.549 142.539C138.531 142.585 138.523 142.636 138.523 142.685C138.524 142.735 138.538 142.785 138.556 142.83C138.577 142.874 138.606 142.916 138.643 142.951C138.717 143.019 138.813 143.056 138.915 143.053C138.964 143.051 139.014 143.04 139.06 143.019C139.104 142.998 139.146 142.969 139.179 142.933C139.423 142.678 139.715 142.475 140.039 142.336C140.365 142.195 140.713 142.123 141.066 142.123C141.418 142.121 141.767 142.191 142.093 142.327C142.417 142.465 142.713 142.666 142.96 142.92C142.993 142.955 143.035 142.983 143.081 143.002C143.126 143.02 143.176 143.03 143.226 143.03C143.298 143.03 143.37 143.008 143.431 142.967C143.491 142.927 143.539 142.869 143.568 142.801C143.596 142.734 143.604 142.66 143.591 142.587C143.576 142.515 143.543 142.45 143.494 142.396C143.176 142.069 142.795 141.811 142.374 141.636C141.955 141.459 141.504 141.37 141.048 141.373Z" fill="#036FC5"/>
<path d="M144.689 140.959C143.708 140.019 142.399 139.495 141.04 139.5C139.68 139.504 138.377 140.038 137.401 140.986C137.338 141.056 137.305 141.147 137.305 141.242C137.308 141.337 137.347 141.427 137.412 141.495C137.476 141.563 137.566 141.604 137.66 141.609C137.755 141.615 137.848 141.584 137.92 141.523C138.757 140.709 139.876 140.251 141.043 140.246C142.21 140.243 143.333 140.693 144.174 141.501C144.244 141.568 144.336 141.604 144.433 141.604C144.484 141.604 144.534 141.594 144.58 141.574C144.627 141.553 144.669 141.524 144.703 141.487C144.771 141.415 144.808 141.319 144.805 141.221C144.803 141.121 144.762 141.026 144.689 140.959Z" fill="#036FC5"/>
<g filter="url(#filter1_d_163_5086)">
<path d="M118.967 74.1321H86.3326C84.83 74.1321 83.613 75.3491 83.613 76.8517V125.803C83.613 127.306 84.83 128.523 86.3326 128.523H118.967C120.47 128.523 121.687 127.306 121.687 125.803V76.8517C121.687 75.3491 120.47 74.1321 118.967 74.1321Z" fill="#2AA4F4"/>
<path d="M102.502 123.084C104.755 123.084 106.581 121.257 106.581 119.004C106.581 116.752 104.755 114.925 102.502 114.925C100.249 114.925 98.4224 116.752 98.4224 119.004C98.4224 121.257 100.249 123.084 102.502 123.084Z" fill="url(#paint4_radial_163_5086)"/>
<path d="M102.502 121.724C104.003 121.724 105.221 120.506 105.221 119.004C105.221 117.502 104.003 116.285 102.502 116.285C101 116.285 99.782 117.502 99.782 119.004C99.782 120.506 101 121.724 102.502 121.724Z" fill="white"/>
<path d="M115.419 87.7298H89.5837C89.2084 87.7298 88.9038 87.4252 88.9038 87.0499V80.2511C88.9038 79.8758 89.2084 79.5712 89.5837 79.5712H115.419C115.795 79.5712 116.099 79.8758 116.099 80.2511V87.0499C116.099 87.4252 115.795 87.7298 115.419 87.7298Z" fill="url(#paint5_linear_163_5086)"/>
<path d="M112.02 85.0103C112.771 85.0103 113.38 84.4015 113.38 83.6505C113.38 82.8996 112.771 82.2908 112.02 82.2908C111.269 82.2908 110.66 82.8996 110.66 83.6505C110.66 84.4015 111.269 85.0103 112.02 85.0103Z" fill="#50E6FF"/>
<path d="M115.419 98.6079H89.5837C89.2084 98.6079 88.9038 98.3034 88.9038 97.9281V91.1292C88.9038 90.7539 89.2084 90.4493 89.5837 90.4493H115.419C115.795 90.4493 116.099 90.7539 116.099 91.1292V97.9281C116.099 98.3034 115.795 98.6079 115.419 98.6079Z" fill="url(#paint6_linear_163_5086)"/>
<path d="M112.02 95.8884C112.771 95.8884 113.38 95.2796 113.38 94.5286C113.38 93.7776 112.771 93.1688 112.02 93.1688C111.269 93.1688 110.66 93.7776 110.66 94.5286C110.66 95.2796 111.269 95.8884 112.02 95.8884Z" fill="#50E6FF"/>
<path d="M115.419 109.486H89.5837C89.2084 109.486 88.9038 109.181 88.9038 108.806V102.007C88.9038 101.632 89.2084 101.327 89.5837 101.327H115.419C115.795 101.327 116.099 101.632 116.099 102.007V108.806C116.099 109.181 115.795 109.486 115.419 109.486Z" fill="url(#paint7_linear_163_5086)"/>
<path d="M112.02 106.767C112.771 106.767 113.38 106.158 113.38 105.407C113.38 104.656 112.771 104.047 112.02 104.047C111.269 104.047 110.66 104.656 110.66 105.407C110.66 106.158 111.269 106.767 112.02 106.767Z" fill="#50E6FF"/>
<path opacity="0.07" d="M112.848 110.588V128.523H113.528L121.686 128.727V107.664C118.26 107.854 112.848 108.48 112.848 110.588Z" fill="black"/>
<path opacity="0.05" d="M112.168 110.588V128.523H121.687V106.971C117.634 107.161 112.168 107.922 112.168 110.588Z" fill="black"/>
<path d="M133.613 121.67H111.857C111.857 121.67 111.857 128.653 111.857 129.148C111.857 130.65 116.727 131.868 122.735 131.868C128.743 131.868 133.613 130.65 133.613 129.148C133.613 128.653 133.613 121.67 133.613 121.67Z" fill="url(#paint8_linear_163_5086)"/>
<path d="M133.613 114.871H111.857C111.857 114.871 111.857 121.854 111.857 122.349C111.857 123.851 116.727 125.069 122.735 125.069C128.743 125.069 133.613 123.851 133.613 122.349C133.613 121.854 133.613 114.871 133.613 114.871Z" fill="url(#paint9_linear_163_5086)"/>
<path d="M133.613 108.072H111.857C111.857 108.072 111.857 114.705 111.857 115.211C111.857 116.525 116.727 117.59 122.735 117.59C128.743 117.59 133.613 116.525 133.613 115.211C133.613 114.705 133.613 108.072 133.613 108.072Z" fill="url(#paint10_linear_163_5086)"/>
<path d="M122.735 110.112C128.743 110.112 133.613 109.198 133.613 108.072C133.613 106.945 128.743 106.032 122.735 106.032C116.727 106.032 111.857 106.945 111.857 108.072C111.857 109.198 116.727 110.112 122.735 110.112Z" fill="url(#paint11_linear_163_5086)"/>
</g>
<defs>
<filter id="filter0_i_163_5086" x="60.2212" y="57.5" width="93.5842" height="100.25" filterUnits="userSpaceOnUse" color-interpolation-filters="sRGB">
<feFlood flood-opacity="0" result="BackgroundImageFix"/>
<feBlend mode="normal" in="SourceGraphic" in2="BackgroundImageFix" result="shape"/>
<feColorMatrix in="SourceAlpha" type="matrix" values="0 0 0 0 0 0 0 0 0 0 0 0 0 0 0 0 0 0 127 0" result="hardAlpha"/>
<feOffset dy="4"/>
<feGaussianBlur stdDeviation="2"/>
<feComposite in2="hardAlpha" operator="arithmetic" k2="-1" k3="1"/>
<feColorMatrix type="matrix" values="0 0 0 0 0.630555 0 0 0 0 0.622674 0 0 0 0 0.622674 0 0 0 0.01 0"/>
<feBlend mode="normal" in2="shape" result="effect1_innerShadow_163_5086"/>
</filter>
<filter id="filter1_d_163_5086" x="79.613" y="72.1321" width="58" height="65.7357" filterUnits="userSpaceOnUse" color-interpolation-filters="sRGB">
<feFlood flood-opacity="0" result="BackgroundImageFix"/>
<feColorMatrix in="SourceAlpha" type="matrix" values="0 0 0 0 0 0 0 0 0 0 0 0 0 0 0 0 0 0 127 0" result="hardAlpha"/>
<feOffset dy="2"/>
<feGaussianBlur stdDeviation="2"/>
<feComposite in2="hardAlpha" operator="out"/>
<feColorMatrix type="matrix" values="0 0 0 0 0 0 0 0 0 0 0 0 0 0 0 0 0 0 0.25 0"/>
<feBlend mode="normal" in2="BackgroundImageFix" result="effect1_dropShadow_163_5086"/>
<feBlend mode="normal" in="SourceGraphic" in2="effect1_dropShadow_163_5086" result="shape"/>
</filter>
<linearGradient id="paint0_linear_163_5086" x1="153.805" y1="57.5" x2="52.1958" y2="174.64" gradientUnits="userSpaceOnUse">
<stop stop-color="#A5B8C9"/>
<stop offset="1" stop-color="#A0ADB8" stop-opacity="0.57"/>
</linearGradient>
<linearGradient id="paint1_linear_163_5086" x1="153.805" y1="57.5" x2="52.1957" y2="174.64" gradientUnits="userSpaceOnUse">
<stop stop-color="white"/>
<stop offset="1" stop-color="#5FB0F6" stop-opacity="0.57"/>
</linearGradient>
<linearGradient id="paint2_linear_163_5086" x1="153.805" y1="57.5" x2="52.1957" y2="174.64" gradientUnits="userSpaceOnUse">
<stop stop-color="white"/>
<stop offset="1" stop-color="#5FB0F6" stop-opacity="0.57"/>
</linearGradient>
<linearGradient id="paint3_linear_163_5086" x1="153.805" y1="57.5" x2="52.1957" y2="174.64" gradientUnits="userSpaceOnUse">
<stop stop-color="white"/>
<stop offset="1" stop-color="#5FB0F6" stop-opacity="0.57"/>
</linearGradient>
<radialGradient id="paint4_radial_163_5086" cx="0" cy="0" r="1" gradientUnits="userSpaceOnUse" gradientTransform="translate(102.502 119.004) scale(4.0793)">
<stop offset="0.582" stop-opacity="0.2"/>
<stop offset="1" stop-opacity="0"/>
</radialGradient>
<linearGradient id="paint5_linear_163_5086" x1="88.9038" y1="83.6505" x2="116.099" y2="83.6505" gradientUnits="userSpaceOnUse">
<stop stop-color="#1D59B3"/>
<stop offset="1" stop-color="#195BBC"/>
</linearGradient>
<linearGradient id="paint6_linear_163_5086" x1="88.9038" y1="94.5286" x2="116.099" y2="94.5286" gradientUnits="userSpaceOnUse">
<stop stop-color="#1D59B3"/>
<stop offset="1" stop-color="#195BBC"/>
</linearGradient>
<linearGradient id="paint7_linear_163_5086" x1="88.9038" y1="105.407" x2="116.099" y2="105.407" gradientUnits="userSpaceOnUse">
<stop stop-color="#1D59B3"/>
<stop offset="1" stop-color="#195BBC"/>
</linearGradient>
<linearGradient id="paint8_linear_163_5086" x1="111.857" y1="126.769" x2="133.613" y2="126.769" gradientUnits="userSpaceOnUse">
<stop stop-color="#11408A"/>
<stop offset="1" stop-color="#103F8F"/>
</linearGradient>
<linearGradient id="paint9_linear_163_5086" x1="111.857" y1="119.97" x2="133.613" y2="119.97" gradientUnits="userSpaceOnUse">
<stop stop-color="#1D59B3"/>
<stop offset="1" stop-color="#195BBC"/>
</linearGradient>
<linearGradient id="paint10_linear_163_5086" x1="111.857" y1="112.831" x2="133.613" y2="112.831" gradientUnits="userSpaceOnUse">
<stop stop-color="#3079D6"/>
<stop offset="1" stop-color="#297CD2"/>
</linearGradient>
<linearGradient id="paint11_linear_163_5086" x1="111.857" y1="108.072" x2="133.613" y2="108.072" gradientUnits="userSpaceOnUse">
<stop stop-color="#42A3F2"/>
<stop offset="1" stop-color="#42A4EB"/>
</linearGradient>
</defs>
</svg>
