<svg width="199" height="201" viewBox="0 0 199 201" fill="none" xmlns="http://www.w3.org/2000/svg">
<g filter="url(#filter0_d_163_5088)">
<path d="M172.887 10H26.1129C18.3186 10 12 16.3186 12 24.1129V170.887C12 178.681 18.3186 185 26.1129 185H172.887C180.681 185 187 178.681 187 170.887V24.1129C187 16.3186 180.681 10 172.887 10Z" fill="#727D86"/>
<path d="M172.887 10H26.1129C18.3186 10 12 16.3186 12 24.1129V170.887C12 178.681 18.3186 185 26.1129 185H172.887C180.681 185 187 178.681 187 170.887V24.1129C187 16.3186 180.681 10 172.887 10Z" stroke="#484B4F" stroke-width="15" stroke-linecap="round"/>
<path d="M172.887 10H26.1129C18.3186 10 12 16.3186 12 24.1129V170.887C12 178.681 18.3186 185 26.1129 185H172.887C180.681 185 187 178.681 187 170.887V24.1129C187 16.3186 180.681 10 172.887 10Z" fill="url(#paint0_linear_163_5088)" fill-opacity="0.2"/>
<path d="M26.1129 10.5H172.887C180.405 10.5 186.5 16.5948 186.5 24.1129V170.887C186.5 178.405 180.405 184.5 172.887 184.5H26.1129C18.5948 184.5 12.5 178.405 12.5 170.887V24.1129C12.5 16.5947 18.5947 10.5 26.1129 10.5Z" stroke="#F7F7F7" stroke-opacity="0.27"/>
</g>
<g filter="url(#filter1_i_163_5088)">
<path d="M155.805 57.5V147.667C155.805 151.027 153.075 153.75 149.706 153.75H67.7807C64.9112 153.75 62.585 151.43 62.585 148.568V57.5H155.805Z" fill="url(#paint1_linear_163_5088)" fill-opacity="0.1"/>
<path d="M155.805 57.9549H62.2212V148.493C62.2212 151.396 64.6018 153.75 67.538 153.75H149.583C153.019 153.75 155.805 150.996 155.805 147.598V57.9549Z" fill="url(#paint2_linear_163_5088)" fill-opacity="0.1"/>
<path d="M155.805 57.9549H62.2212V148.493C62.2212 151.396 64.6018 153.75 67.538 153.75H149.583C153.019 153.75 155.805 150.996 155.805 147.598V57.9549Z" fill="url(#paint3_linear_163_5088)" fill-opacity="0.1"/>
<path d="M155.805 57.9549H62.2212V148.493C62.2212 151.396 64.6018 153.75 67.538 153.75H149.583C153.019 153.75 155.805 150.996 155.805 147.598V57.9549Z" fill="url(#paint4_linear_163_5088)" fill-opacity="0.1"/>
</g>
<path d="M67.4492 153.5H46.9688C46.4731 153.5 45.9819 153.405 45.5238 153.22C45.0658 153.036 44.6499 152.766 44.2988 152.425C43.9477 152.083 43.6705 151.679 43.4806 151.233C43.2908 150.788 43.1943 150.31 43.1943 149.827V57.5H63.6792V149.827C63.6777 150.31 63.7757 150.787 63.964 151.233C64.1539 151.678 64.4312 152.083 64.7822 152.423C65.1318 152.764 65.5477 153.036 66.0057 153.219C66.4638 153.405 66.9535 153.5 67.4492 153.5Z" fill="#F2F2F2"/>
<path d="M45.5959 153.047C46.0311 153.223 46.4981 153.314 46.9688 153.314H65.7525C65.3424 153.125 64.9688 152.868 64.6482 152.556C64.6483 152.557 64.6481 152.556 64.6482 152.556L64.7822 152.423C64.4312 152.083 64.1539 151.678 63.964 151.233L45.5959 153.047ZM45.5959 153.047C45.1611 152.873 44.7664 152.617 44.433 152.292C44.0996 151.968 43.8365 151.585 43.6563 151.162L43.4806 151.233M45.5959 153.047L43.4806 151.233ZM43.4806 151.233L43.6563 151.162C43.4762 150.739 43.3847 150.286 43.3847 149.827V57.6864M43.4806 151.233L43.3847 57.6864ZM43.3847 57.6864H63.4889V149.827L63.6792 149.827L43.3847 57.6864Z" fill="#F2F2F2"/>
<path d="M56.8772 67.4717H49.6888C48.7827 67.4717 48.0486 68.2583 48.0486 69.2285V76.9277C48.0486 77.8979 48.7827 78.6843 49.6888 78.6843H56.8772C57.7834 78.6843 58.519 77.8979 58.519 76.9277V69.2285C58.519 68.2583 57.7834 67.4717 56.8772 67.4717Z" fill="#151515" fill-opacity="0.18"/>
<path d="M57.1118 85.0553H49.9235C49.0173 85.0553 48.2832 85.8417 48.2832 86.8122V94.5114C48.2832 95.4813 49.0173 96.2682 49.9235 96.2682H57.1118C58.018 96.2682 58.7537 95.4813 58.7537 94.5114V86.8122C58.7537 85.8417 58.018 85.0553 57.1118 85.0553Z" fill="#FFD600" fill-opacity="0.18"/>
<path d="M57.1118 100.29H49.9235C49.0173 100.29 48.2832 101.077 48.2832 102.047V109.746C48.2832 110.716 49.0173 111.503 49.9235 111.503H57.1118C58.018 111.503 58.7537 110.716 58.7537 109.746V102.047C58.7537 101.077 58.018 100.29 57.1118 100.29Z" fill="#FFD600" fill-opacity="0.18"/>
<path d="M57.1118 115.524H49.9235C49.0173 115.524 48.2832 116.311 48.2832 117.281V124.98C48.2832 125.95 49.0173 126.737 49.9235 126.737H57.1118C58.018 126.737 58.7537 125.95 58.7537 124.98V117.281C58.7537 116.311 58.018 115.524 57.1118 115.524Z" fill="#FFD600" fill-opacity="0.18"/>
<path d="M46.4359 41.25H152.675C153.47 41.25 154.265 41.8228 154.864 42.9091C155.464 43.992 155.805 45.4694 155.805 47.017V57.1792H43.3054V47.017C43.3054 45.4694 43.6469 43.992 44.2457 42.909C44.8459 41.8228 45.641 41.25 46.4359 41.25Z" fill="#3586CB" stroke="#3586CB" stroke-width="0.183594"/>
<path d="M46.717 41.2778H152.418C153.263 41.2778 154.081 41.8945 154.689 43.0066C155.295 44.1177 155.636 45.6267 155.636 47.2019V57.561H43.4985V47.2019C43.4985 45.6267 43.8396 44.1177 44.4451 43.0066C45.0521 41.8945 45.8701 41.2778 46.717 41.2778Z" stroke="white" stroke-opacity="0.4" stroke-width="0.0458984"/>
<path d="M46.717 41.2778H152.418C153.263 41.2778 154.081 41.8945 154.689 43.0066C155.295 44.1177 155.636 45.6267 155.636 47.2019V57.561H43.4985V47.2019C43.4985 45.6267 43.8396 44.1177 44.4451 43.0066C45.0521 41.8945 45.8701 41.2778 46.717 41.2778Z" stroke="black" stroke-opacity="0.2" stroke-width="0.0458984"/>
<path d="M67.1992 41.25C66.2133 41.2515 65.2677 41.8633 64.572 42.9513C63.8745 44.0395 63.4836 45.5147 63.4836 47.0527V57.1792H43.3054V47.0527C43.3054 45.5136 43.6979 44.0379 44.3952 42.9497C45.0926 41.8614 46.0383 41.25 47.024 41.25H67.1992Z" fill="#366FCA"/>
<path d="M143.062 145.5C143.269 145.498 143.436 145.33 143.435 145.123C143.435 144.915 143.266 144.748 143.059 144.748C142.852 144.75 142.686 144.918 142.686 145.125C142.686 145.333 142.856 145.5 143.062 145.5Z" fill="#036FC5"/>
<path d="M143.055 143.249C142.57 143.251 142.104 143.44 141.756 143.779C141.686 143.848 141.643 143.943 141.642 144.043C141.64 144.142 141.679 144.238 141.747 144.309C141.818 144.381 141.913 144.421 142.013 144.423C142.113 144.424 142.206 144.385 142.279 144.316C142.491 144.121 142.77 144.011 143.058 144.011C143.346 144.01 143.625 144.118 143.838 144.312C143.911 144.379 144.007 144.417 144.107 144.414C144.206 144.413 144.3 144.371 144.37 144.3C144.438 144.228 144.476 144.132 144.474 144.032C144.471 143.933 144.429 143.838 144.359 143.769C144.007 143.433 143.539 143.247 143.055 143.249ZM143.048 141.373C142.596 141.375 142.148 141.469 141.732 141.646C141.316 141.826 140.94 142.087 140.626 142.414C140.592 142.45 140.566 142.493 140.549 142.539C140.531 142.585 140.523 142.636 140.523 142.685C140.524 142.735 140.538 142.785 140.556 142.83C140.577 142.874 140.606 142.916 140.643 142.951C140.717 143.019 140.813 143.056 140.915 143.053C140.964 143.051 141.014 143.04 141.06 143.019C141.104 142.998 141.146 142.969 141.179 142.933C141.423 142.678 141.715 142.475 142.039 142.336C142.365 142.195 142.713 142.123 143.066 142.123C143.418 142.121 143.767 142.191 144.093 142.327C144.417 142.465 144.713 142.666 144.96 142.92C144.993 142.955 145.035 142.983 145.081 143.002C145.126 143.02 145.176 143.03 145.226 143.03C145.298 143.03 145.37 143.008 145.431 142.967C145.491 142.927 145.539 142.869 145.568 142.801C145.596 142.734 145.604 142.66 145.591 142.587C145.576 142.515 145.543 142.45 145.494 142.396C145.176 142.069 144.795 141.811 144.374 141.636C143.955 141.459 143.504 141.37 143.048 141.373Z" fill="#036FC5"/>
<path d="M146.689 140.959C145.708 140.019 144.399 139.495 143.04 139.5C141.68 139.504 140.377 140.038 139.401 140.986C139.338 141.056 139.305 141.147 139.305 141.242C139.308 141.337 139.347 141.427 139.412 141.495C139.476 141.563 139.566 141.604 139.66 141.609C139.755 141.615 139.848 141.584 139.92 141.523C140.757 140.709 141.876 140.251 143.043 140.246C144.21 140.243 145.333 140.693 146.174 141.501C146.244 141.568 146.336 141.604 146.433 141.604C146.484 141.604 146.534 141.594 146.58 141.574C146.627 141.553 146.669 141.524 146.703 141.487C146.771 141.415 146.808 141.319 146.805 141.221C146.803 141.121 146.762 141.026 146.689 140.959Z" fill="#036FC5"/>
<g filter="url(#filter2_d_163_5088)">
<path d="M120.967 74.1321H88.3326C86.83 74.1321 85.613 75.3491 85.613 76.8517V125.803C85.613 127.306 86.83 128.523 88.3326 128.523H120.967C122.47 128.523 123.687 127.306 123.687 125.803V76.8517C123.687 75.3491 122.47 74.1321 120.967 74.1321Z" fill="#2AA4F4"/>
<path d="M104.502 123.084C106.755 123.084 108.581 121.257 108.581 119.004C108.581 116.752 106.755 114.925 104.502 114.925C102.249 114.925 100.422 116.752 100.422 119.004C100.422 121.257 102.249 123.084 104.502 123.084Z" fill="url(#paint5_radial_163_5088)"/>
<path d="M104.502 121.724C106.003 121.724 107.221 120.506 107.221 119.004C107.221 117.502 106.003 116.285 104.502 116.285C103 116.285 101.782 117.502 101.782 119.004C101.782 120.506 103 121.724 104.502 121.724Z" fill="white"/>
<path d="M117.419 87.7298H91.5837C91.2084 87.7298 90.9038 87.4252 90.9038 87.0499V80.2511C90.9038 79.8758 91.2084 79.5712 91.5837 79.5712H117.419C117.795 79.5712 118.099 79.8758 118.099 80.2511V87.0499C118.099 87.4252 117.795 87.7298 117.419 87.7298Z" fill="url(#paint6_linear_163_5088)"/>
<path d="M114.02 85.0103C114.771 85.0103 115.38 84.4015 115.38 83.6505C115.38 82.8996 114.771 82.2908 114.02 82.2908C113.269 82.2908 112.66 82.8996 112.66 83.6505C112.66 84.4015 113.269 85.0103 114.02 85.0103Z" fill="#50E6FF"/>
<path d="M117.419 98.6079H91.5837C91.2084 98.6079 90.9038 98.3034 90.9038 97.9281V91.1292C90.9038 90.7539 91.2084 90.4493 91.5837 90.4493H117.419C117.795 90.4493 118.099 90.7539 118.099 91.1292V97.9281C118.099 98.3034 117.795 98.6079 117.419 98.6079Z" fill="url(#paint7_linear_163_5088)"/>
<path d="M114.02 95.8884C114.771 95.8884 115.38 95.2796 115.38 94.5286C115.38 93.7776 114.771 93.1688 114.02 93.1688C113.269 93.1688 112.66 93.7776 112.66 94.5286C112.66 95.2796 113.269 95.8884 114.02 95.8884Z" fill="#50E6FF"/>
<path d="M117.419 109.486H91.5837C91.2084 109.486 90.9038 109.181 90.9038 108.806V102.007C90.9038 101.632 91.2084 101.327 91.5837 101.327H117.419C117.795 101.327 118.099 101.632 118.099 102.007V108.806C118.099 109.181 117.795 109.486 117.419 109.486Z" fill="url(#paint8_linear_163_5088)"/>
<path d="M114.02 106.767C114.771 106.767 115.38 106.158 115.38 105.407C115.38 104.656 114.771 104.047 114.02 104.047C113.269 104.047 112.66 104.656 112.66 105.407C112.66 106.158 113.269 106.767 114.02 106.767Z" fill="#50E6FF"/>
<path opacity="0.07" d="M114.848 110.588V128.523H115.528L123.686 128.727V107.664C120.26 107.854 114.848 108.48 114.848 110.588Z" fill="black"/>
<path opacity="0.05" d="M114.168 110.588V128.523H123.687V106.971C119.634 107.161 114.168 107.922 114.168 110.588Z" fill="black"/>
<path d="M135.613 121.67H113.857C113.857 121.67 113.857 128.653 113.857 129.148C113.857 130.65 118.727 131.868 124.735 131.868C130.743 131.868 135.613 130.65 135.613 129.148C135.613 128.653 135.613 121.67 135.613 121.67Z" fill="url(#paint9_linear_163_5088)"/>
<path d="M135.613 114.871H113.857C113.857 114.871 113.857 121.854 113.857 122.349C113.857 123.851 118.727 125.069 124.735 125.069C130.743 125.069 135.613 123.851 135.613 122.349C135.613 121.854 135.613 114.871 135.613 114.871Z" fill="url(#paint10_linear_163_5088)"/>
<path d="M135.613 108.072H113.857C113.857 108.072 113.857 114.705 113.857 115.211C113.857 116.525 118.727 117.59 124.735 117.59C130.743 117.59 135.613 116.525 135.613 115.211C135.613 114.705 135.613 108.072 135.613 108.072Z" fill="url(#paint11_linear_163_5088)"/>
<path d="M124.735 110.112C130.743 110.112 135.613 109.198 135.613 108.072C135.613 106.945 130.743 106.032 124.735 106.032C118.727 106.032 113.857 106.945 113.857 108.072C113.857 109.198 118.727 110.112 124.735 110.112Z" fill="url(#paint12_linear_163_5088)"/>
</g>
<defs>
<filter id="filter0_d_163_5088" x="0.5" y="2.5" width="198" height="198" filterUnits="userSpaceOnUse" color-interpolation-filters="sRGB">
<feFlood flood-opacity="0" result="BackgroundImageFix"/>
<feColorMatrix in="SourceAlpha" type="matrix" values="0 0 0 0 0 0 0 0 0 0 0 0 0 0 0 0 0 0 127 0" result="hardAlpha"/>
<feOffset dy="4"/>
<feGaussianBlur stdDeviation="2"/>
<feComposite in2="hardAlpha" operator="out"/>
<feColorMatrix type="matrix" values="0 0 0 0 0 0 0 0 0 0 0 0 0 0 0 0 0 0 0.25 0"/>
<feBlend mode="normal" in2="BackgroundImageFix" result="effect1_dropShadow_163_5088"/>
<feBlend mode="normal" in="SourceGraphic" in2="effect1_dropShadow_163_5088" result="shape"/>
</filter>
<filter id="filter1_i_163_5088" x="62.2212" y="57.5" width="93.5842" height="100.25" filterUnits="userSpaceOnUse" color-interpolation-filters="sRGB">
<feFlood flood-opacity="0" result="BackgroundImageFix"/>
<feBlend mode="normal" in="SourceGraphic" in2="BackgroundImageFix" result="shape"/>
<feColorMatrix in="SourceAlpha" type="matrix" values="0 0 0 0 0 0 0 0 0 0 0 0 0 0 0 0 0 0 127 0" result="hardAlpha"/>
<feOffset dy="4"/>
<feGaussianBlur stdDeviation="2"/>
<feComposite in2="hardAlpha" operator="arithmetic" k2="-1" k3="1"/>
<feColorMatrix type="matrix" values="0 0 0 0 0.630555 0 0 0 0 0.622674 0 0 0 0 0.622674 0 0 0 0.01 0"/>
<feBlend mode="normal" in2="shape" result="effect1_innerShadow_163_5088"/>
</filter>
<filter id="filter2_d_163_5088" x="81.613" y="72.1321" width="58" height="65.7357" filterUnits="userSpaceOnUse" color-interpolation-filters="sRGB">
<feFlood flood-opacity="0" result="BackgroundImageFix"/>
<feColorMatrix in="SourceAlpha" type="matrix" values="0 0 0 0 0 0 0 0 0 0 0 0 0 0 0 0 0 0 127 0" result="hardAlpha"/>
<feOffset dy="2"/>
<feGaussianBlur stdDeviation="2"/>
<feComposite in2="hardAlpha" operator="out"/>
<feColorMatrix type="matrix" values="0 0 0 0 0 0 0 0 0 0 0 0 0 0 0 0 0 0 0.25 0"/>
<feBlend mode="normal" in2="BackgroundImageFix" result="effect1_dropShadow_163_5088"/>
<feBlend mode="normal" in="SourceGraphic" in2="effect1_dropShadow_163_5088" result="shape"/>
</filter>
<linearGradient id="paint0_linear_163_5088" x1="99.5" y1="18.4677" x2="99.5" y2="176.532" gradientUnits="userSpaceOnUse">
<stop stop-color="white"/>
<stop offset="0.472222" stop-color="#0D5176" stop-opacity="0.527778"/>
<stop offset="0.940972" stop-color="#12A6F7" stop-opacity="0.465278"/>
</linearGradient>
<linearGradient id="paint1_linear_163_5088" x1="155.805" y1="57.5" x2="54.1958" y2="174.64" gradientUnits="userSpaceOnUse">
<stop stop-color="#A5B8C9"/>
<stop offset="1" stop-color="#A0ADB8" stop-opacity="0.57"/>
</linearGradient>
<linearGradient id="paint2_linear_163_5088" x1="155.805" y1="57.5" x2="54.1957" y2="174.64" gradientUnits="userSpaceOnUse">
<stop stop-color="white"/>
<stop offset="1" stop-color="#5FB0F6" stop-opacity="0.57"/>
</linearGradient>
<linearGradient id="paint3_linear_163_5088" x1="155.805" y1="57.5" x2="54.1957" y2="174.64" gradientUnits="userSpaceOnUse">
<stop stop-color="white"/>
<stop offset="1" stop-color="#5FB0F6" stop-opacity="0.57"/>
</linearGradient>
<linearGradient id="paint4_linear_163_5088" x1="155.805" y1="57.5" x2="54.1957" y2="174.64" gradientUnits="userSpaceOnUse">
<stop stop-color="white"/>
<stop offset="1" stop-color="#5FB0F6" stop-opacity="0.57"/>
</linearGradient>
<radialGradient id="paint5_radial_163_5088" cx="0" cy="0" r="1" gradientUnits="userSpaceOnUse" gradientTransform="translate(104.502 119.004) scale(4.0793)">
<stop offset="0.582" stop-opacity="0.2"/>
<stop offset="1" stop-opacity="0"/>
</radialGradient>
<linearGradient id="paint6_linear_163_5088" x1="90.9038" y1="83.6505" x2="118.099" y2="83.6505" gradientUnits="userSpaceOnUse">
<stop stop-color="#1D59B3"/>
<stop offset="1" stop-color="#195BBC"/>
</linearGradient>
<linearGradient id="paint7_linear_163_5088" x1="90.9038" y1="94.5286" x2="118.099" y2="94.5286" gradientUnits="userSpaceOnUse">
<stop stop-color="#1D59B3"/>
<stop offset="1" stop-color="#195BBC"/>
</linearGradient>
<linearGradient id="paint8_linear_163_5088" x1="90.9038" y1="105.407" x2="118.099" y2="105.407" gradientUnits="userSpaceOnUse">
<stop stop-color="#1D59B3"/>
<stop offset="1" stop-color="#195BBC"/>
</linearGradient>
<linearGradient id="paint9_linear_163_5088" x1="113.857" y1="126.769" x2="135.613" y2="126.769" gradientUnits="userSpaceOnUse">
<stop stop-color="#11408A"/>
<stop offset="1" stop-color="#103F8F"/>
</linearGradient>
<linearGradient id="paint10_linear_163_5088" x1="113.857" y1="119.97" x2="135.613" y2="119.97" gradientUnits="userSpaceOnUse">
<stop stop-color="#1D59B3"/>
<stop offset="1" stop-color="#195BBC"/>
</linearGradient>
<linearGradient id="paint11_linear_163_5088" x1="113.857" y1="112.831" x2="135.613" y2="112.831" gradientUnits="userSpaceOnUse">
<stop stop-color="#3079D6"/>
<stop offset="1" stop-color="#297CD2"/>
</linearGradient>
<linearGradient id="paint12_linear_163_5088" x1="113.857" y1="108.072" x2="135.613" y2="108.072" gradientUnits="userSpaceOnUse">
<stop stop-color="#42A3F2"/>
<stop offset="1" stop-color="#42A4EB"/>
</linearGradient>
</defs>
</svg>
