<svg width="24" height="24" viewBox="0 0 24 24" fill="none" xmlns="http://www.w3.org/2000/svg">
<g id="1">
<path id="Vector" d="M21.5625 4.5H2.4375C1.6435 4.5 1 5.1435 1 5.9375V18.0625C1 18.8565 1.6435 19.5 2.4375 19.5H21.5625C22.3565 19.5 23 18.8565 23 18.0625V5.9375C23 5.1435 22.3565 4.5 21.5625 4.5Z" fill="url(#paint0_linear_206_10105)"/>
<path id="Vector_2" d="M13.3065 7.5V16.5H11.3725V9.6855C11.266 9.7795 11.1405 9.8685 10.995 9.9525C10.8495 10.0365 10.695 10.112 10.5315 10.1795C10.3675 10.247 10.198 10.3045 10.022 10.3515C9.846 10.3985 9.672 10.4325 9.5 10.453V8.82C10.0035 8.6725 10.478 8.4845 10.9245 8.255C11.3705 8.026 11.7735 7.774 12.134 7.5H13.3065Z" fill="#1D59B3"/>
</g>
<defs>
<linearGradient id="paint0_linear_206_10105" x1="10.015" y1="4.9155" x2="14.0405" y2="19.2825" gradientUnits="userSpaceOnUse">
<stop stop-color="#75DAFF"/>
<stop offset="1" stop-color="#1EA2E4"/>
</linearGradient>
</defs>
</svg>
