<svg width="24" height="24" viewBox="0 0 24 24" fill="none" xmlns="http://www.w3.org/2000/svg">
<g id="accounting">
<path id="Vector" d="M19 2H13C13 2.5525 12.5525 3 12 3C11.4475 3 11 2.5525 11 2H5C4.4475 2 4 2.4475 4 3V21C4 21.5525 4.4475 22 5 22H19C19.5525 22 20 21.5525 20 21V3C20 2.4475 19.5525 2 19 2Z" fill="url(#paint0_linear_206_10116)"/>
<path id="Vector_2" d="M18.5 21H5.5C5.224 21 5 20.776 5 20.5V16H19V20.5C19 20.776 18.776 21 18.5 21Z" fill="url(#paint1_linear_206_10116)"/>
<path id="Vector_3" d="M18.5 20H5.5C5.224 20 5 19.776 5 19.5V3.5C5 3.224 5.224 3 5.5 3H18.5C18.776 3 19 3.224 19 3.5V19.5C19 19.776 18.776 20 18.5 20Z" fill="#F3F3F3"/>
<path id="Vector_4" d="M15.5 4V2H13.408C13.2015 1.4185 12.652 1 12 1C11.348 1 10.7985 1.4185 10.592 2H8.5V4C8.5 4.276 8.724 4.5 9 4.5H15C15.276 4.5 15.5 4.276 15.5 4ZM12 2C12.276 2 12.5 2.224 12.5 2.5C12.5 2.776 12.276 3 12 3C11.724 3 11.5 2.776 11.5 2.5C11.5 2.224 11.724 2 12 2Z" fill="url(#paint2_linear_206_10116)"/>
<path id="Vector_5" d="M13 6.25V10.5H11.5V6.25C11.5 6.112 11.612 6 11.75 6H12.75C12.888 6 13 6.112 13 6.25Z" fill="url(#paint3_linear_206_10116)"/>
<path id="Vector_6" d="M11.5 7V10.5H10V7.25C10 7.112 10.112 7 10.25 7H11.5Z" fill="url(#paint4_linear_206_10116)"/>
<path id="Vector_7" d="M10 8V10.5H8.5V8.25C8.5 8.112 8.612 8 8.75 8H10Z" fill="#0078D4"/>
<path id="Vector_8" d="M8.5 9V10.5H7V9.25C7 9.112 7.112 9 7.25 9H8.5Z" fill="#0D62AB"/>
<path id="Vector_9" d="M7.5 15.5C7.5 16.8805 8.6195 18 10 18C11.3805 18 12.5 16.8805 12.5 15.5H10H7.5Z" fill="#D35230"/>
<path id="Vector_10" d="M10 13V15.5H12.5C12.5 14.1195 11.3805 13 10 13Z" fill="#FF8F6B"/>
<path id="Vector_11" d="M10 13C8.6195 13 7.5 14.1195 7.5 15.5H10V13Z" fill="#ED6C47"/>
<path id="Vector_12" opacity="0.05" d="M20 11H14.5C13.9475 11 13.5 11.4475 13.5 12V21C13.5 21.5525 13.9475 22 14.5 22H20V11Z" fill="black"/>
<path id="Vector_13" opacity="0.07" d="M20 11.5H14.75C14.336 11.5 14 11.836 14 12.25V21.25C14 21.664 14.336 22 14.75 22H20V11.5Z" fill="black"/>
<path id="Vector_14" d="M21.5 12H15C14.724 12 14.5 12.224 14.5 12.5V21.5C14.5 21.776 14.724 22 15 22H21.5C21.776 22 22 21.776 22 21.5V12.5C22 12.224 21.776 12 21.5 12Z" fill="url(#paint5_linear_206_10116)"/>
<path id="Vector_15" d="M20.75 14.5H15.75C15.612 14.5 15.5 14.388 15.5 14.25V13.25C15.5 13.112 15.612 13 15.75 13H20.75C20.888 13 21 13.112 21 13.25V14.25C21 14.388 20.888 14.5 20.75 14.5Z" fill="url(#paint6_linear_206_10116)"/>
<path id="Vector_16" d="M18.75 17H17.75C17.612 17 17.5 16.888 17.5 16.75V15.75C17.5 15.612 17.612 15.5 17.75 15.5H18.75C18.888 15.5 19 15.612 19 15.75V16.75C19 16.888 18.888 17 18.75 17Z" fill="#CAD2D9"/>
<path id="Vector_17" d="M16.75 17H15.75C15.612 17 15.5 16.888 15.5 16.75V15.75C15.5 15.612 15.612 15.5 15.75 15.5H16.75C16.888 15.5 17 15.612 17 15.75V16.75C17 16.888 16.888 17 16.75 17Z" fill="#CAD2D9"/>
<path id="Vector_18" d="M18.75 19H17.75C17.612 19 17.5 18.888 17.5 18.75V17.75C17.5 17.612 17.612 17.5 17.75 17.5H18.75C18.888 17.5 19 17.612 19 17.75V18.75C19 18.888 18.888 19 18.75 19Z" fill="#CAD2D9"/>
<path id="Vector_19" d="M16.75 19H15.75C15.612 19 15.5 18.888 15.5 18.75V17.75C15.5 17.612 15.612 17.5 15.75 17.5H16.75C16.888 17.5 17 17.612 17 17.75V18.75C17 18.888 16.888 19 16.75 19Z" fill="#CAD2D9"/>
<path id="Vector_20" d="M18.75 21H17.75C17.612 21 17.5 20.888 17.5 20.75V19.75C17.5 19.612 17.612 19.5 17.75 19.5H18.75C18.888 19.5 19 19.612 19 19.75V20.75C19 20.888 18.888 21 18.75 21Z" fill="#CAD2D9"/>
<path id="Vector_21" d="M16.75 21H15.75C15.612 21 15.5 20.888 15.5 20.75V19.75C15.5 19.612 15.612 19.5 15.75 19.5H16.75C16.888 19.5 17 19.612 17 19.75V20.75C17 20.888 16.888 21 16.75 21Z" fill="#CAD2D9"/>
<path id="Vector_22" d="M20.75 17H19.75C19.612 17 19.5 16.888 19.5 16.75V15.75C19.5 15.612 19.612 15.5 19.75 15.5H20.75C20.888 15.5 21 15.612 21 15.75V16.75C21 16.888 20.888 17 20.75 17Z" fill="#CAD2D9"/>
<path id="Vector_23" d="M20.75 21H19.75C19.612 21 19.5 20.888 19.5 20.75V17.75C19.5 17.612 19.612 17.5 19.75 17.5H20.75C20.888 17.5 21 17.612 21 17.75V20.75C21 20.888 20.888 21 20.75 21Z" fill="url(#paint7_linear_206_10116)"/>
<path id="Vector_24" d="M16.75 8.5H14.25C14.112 8.5 14 8.388 14 8.25V7.75C14 7.612 14.112 7.5 14.25 7.5H16.75C16.888 7.5 17 7.612 17 7.75V8.25C17 8.388 16.888 8.5 16.75 8.5Z" fill="#E0E0E0"/>
<path id="Vector_25" d="M16.75 10.5H14.25C14.112 10.5 14 10.388 14 10.25V9.75C14 9.612 14.112 9.5 14.25 9.5H16.75C16.888 9.5 17 9.612 17 9.75V10.25C17 10.388 16.888 10.5 16.75 10.5Z" fill="#E0E0E0"/>
</g>
<defs>
<linearGradient id="paint0_linear_206_10116" x1="8.43" y1="0.7665" x2="14.788" y2="20.773" gradientUnits="userSpaceOnUse">
<stop stop-color="#C77740"/>
<stop offset="1" stop-color="#B0622B"/>
</linearGradient>
<linearGradient id="paint1_linear_206_10116" x1="12" y1="18.483" x2="12" y2="20.4465" gradientUnits="userSpaceOnUse">
<stop offset="0.442" stop-color="#878786"/>
<stop offset="0.594" stop-color="#9F9F9E"/>
<stop offset="0.859" stop-color="#C3C3C3"/>
<stop offset="1" stop-color="#D1D1D1"/>
</linearGradient>
<linearGradient id="paint2_linear_206_10116" x1="12.465" y1="4.964" x2="11.523" y2="1.0455" gradientUnits="userSpaceOnUse">
<stop stop-color="#C3CDD9"/>
<stop offset="1" stop-color="#9FA7B0"/>
</linearGradient>
<linearGradient id="paint3_linear_206_10116" x1="12.048" y1="6.19616" x2="14.1342" y2="10.0202" gradientUnits="userSpaceOnUse">
<stop stop-color="#32BDEF"/>
<stop offset="1" stop-color="#1EA2E4"/>
</linearGradient>
<linearGradient id="paint4_linear_206_10116" x1="10.3323" y1="6.47859" x2="12.6306" y2="7.92451" gradientUnits="userSpaceOnUse">
<stop stop-color="#FCFCFC"/>
<stop offset="0.95" stop-color="#C3C9CD"/>
</linearGradient>
<linearGradient id="paint5_linear_206_10116" x1="14.7955" y1="12.2195" x2="21.464" y2="21.448" gradientUnits="userSpaceOnUse">
<stop stop-color="#899198"/>
<stop offset="1" stop-color="#787E85"/>
</linearGradient>
<linearGradient id="paint6_linear_206_10116" x1="16.124" y1="12.765" x2="20.8345" y2="14.947" gradientUnits="userSpaceOnUse">
<stop stop-color="#4FE5FF"/>
<stop offset="1" stop-color="#2EB7ED"/>
</linearGradient>
<linearGradient id="paint7_linear_206_10116" x1="20.25" y1="17.6375" x2="20.25" y2="20.9105" gradientUnits="userSpaceOnUse">
<stop stop-color="#11498A"/>
<stop offset="1" stop-color="#0F417A"/>
</linearGradient>
</defs>
</svg>
