<svg width="24" height="24" viewBox="0 0 24 24" fill="none" xmlns="http://www.w3.org/2000/svg">
<g id="add-tab">
<path id="Vector" d="M22 5V9H9.5V4H21C21.55 4 22 4.45 22 5Z" fill="url(#paint0_linear_206_10233)"/>
<path id="Vector_2" d="M19.0805 7.5C18.7215 7.5 18.3905 7.3075 18.2125 6.996L16.7885 4.5035C16.61 4.1925 16.2785 4 15.9195 4H10V7.5H19.0805Z" fill="url(#paint1_linear_206_10233)"/>
<path id="Vector_3" d="M12.212 6.996L10.788 4.5035C10.61 4.1925 10.2785 4 9.9195 4H3C2.4475 4 2 4.4475 2 5V19C2 19.55 2.45 20 3 20H21C21.55 20 22 19.55 22 19V8.5C22 7.9475 21.5525 7.5 21 7.5H13.0805C12.7215 7.5 12.39 7.3075 12.212 6.996Z" fill="url(#paint2_linear_206_10233)"/>
<path id="Vector_4" d="M19 13C15.6915 13 13 15.6915 13 19C13 19.3405 13.029 19.6745 13.084 20H21C21.55 20 22 19.55 22 19V13.8055C21.117 13.2935 20.092 13 19 13Z" fill="url(#paint3_radial_206_10233)"/>
<path id="Vector_5" d="M19 24C21.7614 24 24 21.7614 24 19C24 16.2386 21.7614 14 19 14C16.2386 14 14 16.2386 14 19C14 21.7614 16.2386 24 19 24Z" fill="url(#paint4_linear_206_10233)"/>
<path id="Vector_6" d="M19.25 21.5H18.75C18.612 21.5 18.5 21.388 18.5 21.25V16.75C18.5 16.612 18.612 16.5 18.75 16.5H19.25C19.388 16.5 19.5 16.612 19.5 16.75V21.25C19.5 21.388 19.388 21.5 19.25 21.5Z" fill="white"/>
<path id="Vector_7" d="M16.5 19.25V18.75C16.5 18.612 16.612 18.5 16.75 18.5H21.25C21.388 18.5 21.5 18.612 21.5 18.75V19.25C21.5 19.388 21.388 19.5 21.25 19.5H16.75C16.612 19.5 16.5 19.388 16.5 19.25Z" fill="white"/>
</g>
<defs>
<linearGradient id="paint0_linear_206_10233" x1="21.1065" y1="8.787" x2="8.0595" y2="3.608" gradientUnits="userSpaceOnUse">
<stop stop-color="#3079D6"/>
<stop offset="1" stop-color="#297CD2"/>
</linearGradient>
<linearGradient id="paint1_linear_206_10233" x1="13.3176" y1="4.15257" x2="13.5868" y2="7.99314" gradientUnits="userSpaceOnUse">
<stop stop-color="#32BDEF"/>
<stop offset="1" stop-color="#1EA2E4"/>
</linearGradient>
<linearGradient id="paint2_linear_206_10233" x1="6.43083" y1="1.61643" x2="16.225" y2="19.5885" gradientUnits="userSpaceOnUse">
<stop stop-color="#FCFCFC"/>
<stop offset="0.95" stop-color="#C3C9CD"/>
</linearGradient>
<radialGradient id="paint3_radial_206_10233" cx="0" cy="0" r="1" gradientUnits="userSpaceOnUse" gradientTransform="translate(18.8405 18.8615) scale(5.713)">
<stop/>
<stop offset="0.979" stop-opacity="0"/>
</radialGradient>
<linearGradient id="paint4_linear_206_10233" x1="14" y1="19" x2="24" y2="19" gradientUnits="userSpaceOnUse">
<stop stop-color="#21AD64"/>
<stop offset="1" stop-color="#088242"/>
</linearGradient>
</defs>
</svg>
