<svg width="24" height="24" viewBox="0 0 24 24" fill="none" xmlns="http://www.w3.org/2000/svg">
<g id="add-receipt">
<path id="Vector" d="M18.5 2.5C18.5 2.776 18.276 3 18 3C17.724 3 17.5 2.776 17.5 2.5H16.5C16.5 2.776 16.276 3 16 3C15.724 3 15.5 2.776 15.5 2.5H14.5C14.5 2.776 14.276 3 14 3C13.724 3 13.5 2.776 13.5 2.5H12.5C12.5 2.776 12.276 3 12 3C11.724 3 11.5 2.776 11.5 2.5H10.5C10.5 2.776 10.276 3 10 3C9.724 3 9.5 2.776 9.5 2.5H8.5C8.5 2.776 8.276 3 8 3C7.724 3 7.5 2.776 7.5 2.5H6.5C6.5 2.776 6.276 3 6 3C5.724 3 5.5 2.776 5.5 2.5H5C4.724 2.5 4.5 2.724 4.5 3V20.5C4.5 21.0525 4.9475 21.5 5.5 21.5H18.5C19.0525 21.5 19.5 21.0525 19.5 20.5V3C19.5 2.724 19.276 2.5 19 2.5H18.5Z" fill="url(#paint0_linear_206_10186)"/>
<path id="Vector_2" d="M17.25 6.5H6.75C6.612 6.5 6.5 6.388 6.5 6.25V5.25C6.5 5.112 6.612 5 6.75 5H17.25C17.388 5 17.5 5.112 17.5 5.25V6.25C17.5 6.388 17.388 6.5 17.25 6.5Z" fill="#057093"/>
<path id="Vector_3" d="M17.25 10H16.25C16.112 10 16 9.888 16 9.75V9.25C16 9.112 16.112 9 16.25 9H17.25C17.388 9 17.5 9.112 17.5 9.25V9.75C17.5 9.888 17.388 10 17.25 10Z" fill="#057093"/>
<path id="Vector_4" d="M13.25 10H6.75C6.612 10 6.5 9.888 6.5 9.75V9.25C6.5 9.112 6.612 9 6.75 9H13.25C13.388 9 13.5 9.112 13.5 9.25V9.75C13.5 9.888 13.388 10 13.25 10Z" fill="#057093"/>
<path id="Vector_5" d="M17.25 12H16.25C16.112 12 16 11.888 16 11.75V11.25C16 11.112 16.112 11 16.25 11H17.25C17.388 11 17.5 11.112 17.5 11.25V11.75C17.5 11.888 17.388 12 17.25 12Z" fill="#057093"/>
<path id="Vector_6" d="M11.75 12H6.75C6.612 12 6.5 11.888 6.5 11.75V11.25C6.5 11.112 6.612 11 6.75 11H11.75C11.888 11 12 11.112 12 11.25V11.75C12 11.888 11.888 12 11.75 12Z" fill="#057093"/>
<path id="Vector_7" d="M17.25 14H16.25C16.112 14 16 13.888 16 13.75V13.25C16 13.112 16.112 13 16.25 13H17.25C17.388 13 17.5 13.112 17.5 13.25V13.75C17.5 13.888 17.388 14 17.25 14Z" fill="#057093"/>
<path id="Vector_8" d="M13.25 14H6.75C6.612 14 6.5 13.888 6.5 13.75V13.25C6.5 13.112 6.612 13 6.75 13H13.25C13.388 13 13.5 13.112 13.5 13.25V13.75C13.5 13.888 13.388 14 13.25 14Z" fill="#057093"/>
<path id="Vector_9" d="M17.25 16H16.25C16.112 16 16 15.888 16 15.75V15.25C16 15.112 16.112 15 16.25 15H17.25C17.388 15 17.5 15.112 17.5 15.25V15.75C17.5 15.888 17.388 16 17.25 16Z" fill="#057093"/>
<path id="Vector_10" d="M11.75 16H6.75C6.612 16 6.5 15.888 6.5 15.75V15.25C6.5 15.112 6.612 15 6.75 15H11.75C11.888 15 12 15.112 12 15.25V15.75C12 15.888 11.888 16 11.75 16Z" fill="#057093"/>
<path id="Vector_11" d="M17.25 19H15.25C15.112 19 15 18.888 15 18.75V18.25C15 18.112 15.112 18 15.25 18H17.25C17.388 18 17.5 18.112 17.5 18.25V18.75C17.5 18.888 17.388 19 17.25 19Z" fill="#057093"/>
<path id="Vector_12" d="M13.25 19H8.75C8.612 19 8.5 18.888 8.5 18.75V18.25C8.5 18.112 8.612 18 8.75 18H13.25C13.388 18 13.5 18.112 13.5 18.25V18.75C13.5 18.888 13.388 19 13.25 19Z" fill="#057093"/>
<path id="Vector_13" d="M19 13C15.6915 13 13 15.6915 13 19C13 19.893 13.2015 20.738 13.5525 21.5H18.5C19.0525 21.5 19.5 21.0525 19.5 20.5V13.0255C19.3345 13.0115 19.169 13 19 13Z" fill="url(#paint1_radial_206_10186)"/>
<path id="Vector_14" d="M19 24C21.7614 24 24 21.7614 24 19C24 16.2386 21.7614 14 19 14C16.2386 14 14 16.2386 14 19C14 21.7614 16.2386 24 19 24Z" fill="url(#paint2_linear_206_10186)"/>
<path id="Vector_15" d="M19.25 21.5H18.75C18.612 21.5 18.5 21.388 18.5 21.25V16.75C18.5 16.612 18.612 16.5 18.75 16.5H19.25C19.388 16.5 19.5 16.612 19.5 16.75V21.25C19.5 21.388 19.388 21.5 19.25 21.5Z" fill="white"/>
<path id="Vector_16" d="M16.5 19.25V18.75C16.5 18.612 16.612 18.5 16.75 18.5H21.25C21.388 18.5 21.5 18.612 21.5 18.75V19.25C21.5 19.388 21.388 19.5 21.25 19.5H16.75C16.612 19.5 16.5 19.388 16.5 19.25Z" fill="white"/>
</g>
<defs>
<linearGradient id="paint0_linear_206_10186" x1="9.22929" y1="2.79171" x2="19.7783" y2="18.8491" gradientUnits="userSpaceOnUse">
<stop stop-color="#7DD8F3"/>
<stop offset="1" stop-color="#45B0D0"/>
</linearGradient>
<radialGradient id="paint1_radial_206_10186" cx="0" cy="0" r="1" gradientUnits="userSpaceOnUse" gradientTransform="translate(18.8455 18.952) scale(5.9885)">
<stop/>
<stop offset="0.979" stop-opacity="0"/>
</radialGradient>
<linearGradient id="paint2_linear_206_10186" x1="14" y1="19" x2="24" y2="19" gradientUnits="userSpaceOnUse">
<stop stop-color="#21AD64"/>
<stop offset="1" stop-color="#088242"/>
</linearGradient>
</defs>
</svg>
