<svg width="24" height="24" viewBox="0 0 24 24" fill="none" xmlns="http://www.w3.org/2000/svg">
<g id="add-image">
<path id="Vector" d="M20 3H4C3.4475 3 3 3.4475 3 4V19C3 19.5525 3.4475 20 4 20H20C20.5525 20 21 19.5525 21 19V4C21 3.4475 20.5525 3 20 3Z" fill="url(#paint0_linear_206_10177)"/>
<path id="Vector_2" d="M16.0325 11.5325C15.458 10.958 14.53 10.9455 13.94 11.504L9 16.184V21H20C20.5525 21 21 20.5525 21 20V16.5L16.0325 11.5325Z" fill="url(#paint1_linear_206_10177)"/>
<path id="Vector_3" d="M15.25 9C16.2165 9 17 8.2165 17 7.25C17 6.2835 16.2165 5.5 15.25 5.5C14.2835 5.5 13.5 6.2835 13.5 7.25C13.5 8.2165 14.2835 9 15.25 9Z" fill="#FFF8DE"/>
<path id="Vector_4" d="M4 21H20C20.4055 21 20.7535 20.7575 20.91 20.41L10.0325 9.53253C9.458 8.95803 8.53 8.94553 7.94 9.50403L3 14.184V20C3 20.5525 3.4475 21 4 21Z" fill="url(#paint2_linear_206_10177)"/>
<path id="Vector_5" opacity="0.3" d="M21 21V13.3485C20.3735 13.127 19.7025 13 19 13C15.6865 13 13 15.6865 13 19C13 19.7025 13.127 20.3735 13.3485 21H21Z" fill="url(#paint3_radial_206_10177)"/>
<path id="Vector_6" d="M19 24C21.7614 24 24 21.7614 24 19C24 16.2386 21.7614 14 19 14C16.2386 14 14 16.2386 14 19C14 21.7614 16.2386 24 19 24Z" fill="url(#paint4_linear_206_10177)"/>
<path id="Vector_7" d="M19.25 21.5H18.75C18.612 21.5 18.5 21.388 18.5 21.25V16.75C18.5 16.612 18.612 16.5 18.75 16.5H19.25C19.388 16.5 19.5 16.612 19.5 16.75V21.25C19.5 21.388 19.388 21.5 19.25 21.5Z" fill="white"/>
<path id="Vector_8" d="M16.5 19.25V18.75C16.5 18.612 16.612 18.5 16.75 18.5H21.25C21.388 18.5 21.5 18.612 21.5 18.75V19.25C21.5 19.388 21.388 19.5 21.25 19.5H16.75C16.612 19.5 16.5 19.388 16.5 19.25Z" fill="white"/>
</g>
<defs>
<linearGradient id="paint0_linear_206_10177" x1="8.67514" y1="3.261" x2="16.8005" y2="19.8488" gradientUnits="userSpaceOnUse">
<stop stop-color="#7DD8F3"/>
<stop offset="1" stop-color="#45B0D0"/>
</linearGradient>
<linearGradient id="paint1_linear_206_10177" x1="9" y1="16.0465" x2="21" y2="16.0465" gradientUnits="userSpaceOnUse">
<stop stop-color="#3CCBF4"/>
<stop offset="1" stop-color="#1FA0E5"/>
</linearGradient>
<linearGradient id="paint2_linear_206_10177" x1="11.955" y1="9.09303" x2="11.955" y2="21" gradientUnits="userSpaceOnUse">
<stop stop-color="#28AFEA"/>
<stop offset="1" stop-color="#0B88DA"/>
</linearGradient>
<radialGradient id="paint3_radial_206_10177" cx="0" cy="0" r="1" gradientUnits="userSpaceOnUse" gradientTransform="translate(18.999 19.016) scale(6.093)">
<stop offset="0.348"/>
<stop offset="0.936" stop-opacity="0.098"/>
<stop offset="1" stop-opacity="0"/>
</radialGradient>
<linearGradient id="paint4_linear_206_10177" x1="14" y1="19" x2="24" y2="19" gradientUnits="userSpaceOnUse">
<stop stop-color="#21AD64"/>
<stop offset="1" stop-color="#088242"/>
</linearGradient>
</defs>
</svg>
