<svg width="24" height="24" viewBox="0 0 24 24" fill="none" xmlns="http://www.w3.org/2000/svg">
<g id="add-file">
<path id="Vector" d="M19.5 8V20.5C19.5 21.0525 19.0525 21.5 18.5 21.5H5.5C4.9475 21.5 4.5 21.0525 4.5 20.5V3.5C4.5 2.9475 4.9475 2.5 5.5 2.5H14L19.5 8Z" fill="url(#paint0_linear_206_10165)"/>
<path id="Vector_2" d="M14 2.5V7C14 7.5525 14.4475 8 15 8H19.5L14 2.5Z" fill="url(#paint1_linear_206_10165)"/>
<path id="Vector_3" d="M19 24C21.7614 24 24 21.7614 24 19C24 16.2386 21.7614 14 19 14C16.2386 14 14 16.2386 14 19C14 21.7614 16.2386 24 19 24Z" fill="url(#paint2_linear_206_10165)"/>
<path id="Vector_4" d="M19.25 21.5H18.75C18.612 21.5 18.5 21.388 18.5 21.25V16.75C18.5 16.612 18.612 16.5 18.75 16.5H19.25C19.388 16.5 19.5 16.612 19.5 16.75V21.25C19.5 21.388 19.388 21.5 19.25 21.5Z" fill="white"/>
<path id="Vector_5" d="M16.5 19.25V18.75C16.5 18.612 16.612 18.5 16.75 18.5H21.25C21.388 18.5 21.5 18.612 21.5 18.75V19.25C21.5 19.388 21.388 19.5 21.25 19.5H16.75C16.612 19.5 16.5 19.388 16.5 19.25Z" fill="white"/>
</g>
<defs>
<linearGradient id="paint0_linear_206_10165" x1="9.22929" y1="2.79171" x2="19.7783" y2="18.8491" gradientUnits="userSpaceOnUse">
<stop stop-color="#7DD8F3"/>
<stop offset="1" stop-color="#45B0D0"/>
</linearGradient>
<linearGradient id="paint1_linear_206_10165" x1="14.2645" y1="7.736" x2="16.8" y2="5.2" gradientUnits="userSpaceOnUse">
<stop stop-color="#3079D6"/>
<stop offset="1" stop-color="#297CD2"/>
</linearGradient>
<linearGradient id="paint2_linear_206_10165" x1="14" y1="19" x2="24" y2="19" gradientUnits="userSpaceOnUse">
<stop stop-color="#21AD64"/>
<stop offset="1" stop-color="#088242"/>
</linearGradient>
</defs>
</svg>
