<svg width="20" height="25" viewBox="0 0 20 25" fill="none" xmlns="http://www.w3.org/2000/svg">
<path d="M8.01909 9.16468C10.5498 9.16468 12.6014 7.1131 12.6014 4.58234C12.6014 2.05158 10.5498 0 8.01909 0C5.48834 0 3.43675 2.05158 3.43675 4.58234C3.43675 7.1131 5.48834 9.16468 8.01909 9.16468Z" fill="url(#paint0_linear_146_5375)"/>
<path d="M8.01909 10.8831C3.59026 10.8831 0 14.4733 0 18.9022V20.6205C0 21.2535 0.512649 21.7661 1.14558 21.7661H14.8926C15.5255 21.7661 16.0382 21.2535 16.0382 20.6205V18.9022C16.0382 14.4733 12.4479 10.8831 8.01909 10.8831Z" fill="url(#paint1_linear_146_5375)"/>
<path d="M20 18.043C20 21.3381 17.3285 24.0096 14.0334 24.0096C10.7384 24.0096 8.06683 21.3381 8.06683 18.043C8.06683 14.748 10.7384 12.0764 14.0334 12.0764C17.3285 12.0764 20 14.748 20 18.043Z" fill="url(#paint2_linear_146_5375)"/>
<path opacity="0.05" d="M17.0167 17.148H14.9284V15.0597C14.9284 14.73 14.6614 14.463 14.3317 14.463H13.7351C13.4054 14.463 13.1384 14.73 13.1384 15.0597V17.148H11.0501C10.7205 17.148 10.4535 17.415 10.4535 17.7446V18.3413C10.4535 18.6709 10.7205 18.938 11.0501 18.938H13.1384V21.0263C13.1384 21.3559 13.4054 21.6229 13.7351 21.6229H14.3317C14.6614 21.6229 14.9284 21.3559 14.9284 21.0263V18.938H17.0167C17.3464 18.938 17.6134 18.6709 17.6134 18.3413V17.7446C17.6134 17.415 17.3464 17.148 17.0167 17.148Z" fill="black"/>
<path opacity="0.07" d="M17.0167 17.297H14.7792V15.0596C14.7792 14.8125 14.5788 14.6121 14.3317 14.6121H13.7351C13.4881 14.6121 13.2876 14.8125 13.2876 15.0596V17.297H11.0501C10.8031 17.297 10.6026 17.4975 10.6026 17.7445V18.3412C10.6026 18.5882 10.8031 18.7887 11.0501 18.7887H13.2876V21.0261C13.2876 21.2732 13.4881 21.4736 13.7351 21.4736H14.3317C14.5788 21.4736 14.7792 21.2732 14.7792 21.0261V18.7887H17.0167C17.2637 18.7887 17.4642 18.5882 17.4642 18.3412V17.7445C17.4642 17.4975 17.2637 17.297 17.0167 17.297Z" fill="black"/>
<path d="M13.7351 14.7614H14.3317C14.4964 14.7614 14.6301 14.895 14.6301 15.0597V21.0263C14.6301 21.1909 14.4964 21.3246 14.3317 21.3246H13.7351C13.5704 21.3246 13.4368 21.1909 13.4368 21.0263V15.0597C13.4368 14.895 13.5704 14.7614 13.7351 14.7614Z" fill="white"/>
<path d="M17.315 17.7446V18.3413C17.315 18.506 17.1814 18.6396 17.0167 18.6396H11.0501C10.8854 18.6396 10.7518 18.506 10.7518 18.3413V17.7446C10.7518 17.5799 10.8854 17.4463 11.0501 17.4463H17.0167C17.1814 17.4463 17.315 17.5799 17.315 17.7446Z" fill="white"/>
<defs>
<linearGradient id="paint0_linear_146_5375" x1="4.91055" y1="1.47379" x2="11.3041" y2="7.8673" gradientUnits="userSpaceOnUse">
<stop stop-color="#32BDEF"/>
<stop offset="1" stop-color="#1EA2E4"/>
</linearGradient>
<linearGradient id="paint1_linear_146_5375" x1="2.63084" y1="12.9497" x2="13.3266" y2="23.6454" gradientUnits="userSpaceOnUse">
<stop stop-color="#32BDEF"/>
<stop offset="1" stop-color="#1EA2E4"/>
</linearGradient>
<linearGradient id="paint2_linear_146_5375" x1="9.81444" y1="13.824" x2="18.2524" y2="22.262" gradientUnits="userSpaceOnUse">
<stop stop-color="#21AD64"/>
<stop offset="1" stop-color="#088242"/>
</linearGradient>
</defs>
</svg>
