<svg width="24" height="24" viewBox="0 0 24 24" fill="none" xmlns="http://www.w3.org/2000/svg">
<g id="administrator-male">
<path id="Vector" d="M12 15.2855C7.5815 15.2855 4 17.746 4 20.4285V21C4 21.5525 4.4475 22 5 22H19C19.5525 22 20 21.5525 20 21V20.4285C20 17.746 16.4185 15.2855 12 15.2855Z" fill="url(#paint0_linear_206_10261)"/>
<path id="Vector_2" d="M14.5 15.0395C14.5 18.9955 12 21 12 21C12 21 9.5 18.9955 9.5 15.0395C9.5 13.721 9.5 13 9.5 13H14.5C14.5 13 14.5 13.721 14.5 15.0395Z" fill="white"/>
<path id="Vector_3" d="M14.5 15.0395C14.5 18.9955 12 21 12 21C12 21 9.5 18.9955 9.5 15.0395C9.5 13.721 9.5 13 9.5 13H14.5C14.5 13 14.5 13.721 14.5 15.0395Z" fill="white"/>
<path id="Vector_4" d="M14.5 15C14.5 15.9485 12 17 12 17C12 17 9.5 15.9485 9.5 15C9.5 13.6815 9.5 11.4825 9.5 11.4825H14.5C14.5 11.4825 14.5 13.6815 14.5 15Z" fill="#D6A121"/>
<path id="Vector_5" d="M11 17.5L11.5 18L11.1095 20.0235C11.5935 20.6695 12 21 12 21C12 21 12.4065 20.6695 12.8905 20.0235L12.5 18L13 17.5L12 17L11 17.5Z" fill="#D32F2F"/>
<path id="Vector_6" d="M16.458 9H16.1945V11H16.546C16.8035 11 17.023 10.844 17.0665 10.63L17.2385 9.7785C17.321 9.3715 16.9485 9 16.458 9Z" fill="url(#paint1_linear_206_10261)"/>
<path id="Vector_7" d="M7.542 9H7.8055V11H7.454C7.1965 11 6.977 10.844 6.9335 10.63L6.7615 9.7785C6.679 9.3715 7.0515 9 7.542 9Z" fill="url(#paint2_linear_206_10261)"/>
<path id="Vector_8" d="M12 3.19995C9.7795 3.19995 7.5 3.53745 7.5 8.33745C7.5 8.72145 7.5 11.276 7.5 11.6865C7.5 13.4 10.2 15.5 12 15.5C13.8 15.5 16.5 13.4 16.5 11.6865C16.5 11.276 16.5 8.72195 16.5 8.33745C16.5 3.53745 14.2205 3.19995 12 3.19995Z" fill="url(#paint3_radial_206_10261)"/>
<path id="Vector_9" d="M12 2.77246C9.823 2.77246 9.5 3.59046 9.5 3.59046C8.615 3.72096 7 5.01746 7 6.49946C7 7.32646 7.1325 7.93746 7.5 9.99946C7.7725 6.72696 8.6245 5.49946 9.5 5.49946C10.1335 5.49946 10.6365 5.99946 12 5.99946C13.1515 5.99946 13.4375 5.49946 14.5 5.49946C16 5.49946 16.5 9.48346 16.5 9.99946C16.8005 8.49446 17 7.22196 17 6.49946C17 4.78496 15.1045 2.77246 12 2.77246Z" fill="url(#paint4_radial_206_10261)"/>
<path id="Vector_10" d="M12.1095 2.5C10.0275 2.5 9.5015 3.591 9.5015 3.591C9.4805 4.1705 9.7625 4.682 9.7625 4.682C9.7625 4.682 10.1425 5.5 12.3125 5.5C13.6225 5.5 15.5 4.6825 15.5 2.5C15.5 2.5 15.0785 2.5 12.1095 2.5Z" fill="url(#paint5_radial_206_10261)"/>
</g>
<defs>
<linearGradient id="paint0_linear_206_10261" x1="7.393" y1="15.5935" x2="16.538" y2="24.7385" gradientUnits="userSpaceOnUse">
<stop stop-color="#0D61A9"/>
<stop offset="1" stop-color="#16528C"/>
</linearGradient>
<linearGradient id="paint1_linear_206_10261" x1="16.4585" y1="10" x2="17.1255" y2="10" gradientUnits="userSpaceOnUse">
<stop stop-color="#C48F0C"/>
<stop offset="0.251" stop-color="#D19B16"/>
<stop offset="0.619" stop-color="#DCA51F"/>
<stop offset="1" stop-color="#E0A922"/>
</linearGradient>
<linearGradient id="paint2_linear_206_10261" x1="7.5415" y1="10" x2="6.8745" y2="10" gradientUnits="userSpaceOnUse">
<stop stop-color="#C48F0C"/>
<stop offset="0.251" stop-color="#D19B16"/>
<stop offset="0.619" stop-color="#DCA51F"/>
<stop offset="1" stop-color="#E0A922"/>
</linearGradient>
<radialGradient id="paint3_radial_206_10261" cx="0" cy="0" r="1" gradientUnits="userSpaceOnUse" gradientTransform="translate(11.9993 9.34949) scale(5.38834)">
<stop stop-color="#FFCF54"/>
<stop offset="0.261" stop-color="#FDCB4D"/>
<stop offset="0.639" stop-color="#F7C13A"/>
<stop offset="1" stop-color="#F0B421"/>
</radialGradient>
<radialGradient id="paint4_radial_206_10261" cx="0" cy="0" r="1" gradientUnits="userSpaceOnUse" gradientTransform="translate(7.72263 3.3317) scale(12.7457)">
<stop stop-color="#C26715"/>
<stop offset="0.508" stop-color="#B85515"/>
<stop offset="1" stop-color="#AD3F16"/>
</radialGradient>
<radialGradient id="paint5_radial_206_10261" cx="0" cy="0" r="1" gradientUnits="userSpaceOnUse" gradientTransform="translate(11.2822 4.18513) scale(14.0789 14.7218)">
<stop stop-color="#C26715"/>
<stop offset="0.508" stop-color="#B85515"/>
<stop offset="1" stop-color="#AD3F16"/>
</radialGradient>
</defs>
</svg>
