<svg width="24" height="24" viewBox="0 0 24 24" fill="none" xmlns="http://www.w3.org/2000/svg">
<g id="administrative-tools">
<path id="Vector" d="M11.4165 17.3085C14.5921 17.3085 17.1665 14.7341 17.1665 11.5585C17.1665 8.38283 14.5921 5.80847 11.4165 5.80847C8.24087 5.80847 5.6665 8.38283 5.6665 11.5585C5.6665 14.7341 8.24087 17.3085 11.4165 17.3085Z" fill="url(#paint0_linear_206_10253)"/>
<path id="Vector_2" d="M11.4165 15.0585C13.3495 15.0585 14.9165 13.4915 14.9165 11.5585C14.9165 9.62548 13.3495 8.05847 11.4165 8.05847C9.48351 8.05847 7.9165 9.62548 7.9165 11.5585C7.9165 13.4915 9.48351 15.0585 11.4165 15.0585Z" fill="url(#paint1_linear_206_10253)"/>
<path id="Vector_3" d="M21.12 9.18004C19.9255 9.16554 18.769 8.54304 18.1285 7.43354C17.512 6.36554 17.5245 5.10904 18.0475 4.08704C16.985 3.14354 15.7265 2.41754 14.3325 1.99304C13.7055 2.93604 12.634 3.55854 11.417 3.55854C10.2 3.55854 9.1285 2.93654 8.5015 1.99304C7.1075 2.41754 5.849 3.14354 4.7865 4.08704C5.3095 5.10904 5.322 6.36554 4.7055 7.43354C4.065 8.54304 2.9085 9.16554 1.714 9.18004C1.5275 9.94354 1.4175 10.7375 1.4175 11.5585C1.4175 12.2005 1.484 12.826 1.5995 13.4345C2.834 13.409 4.045 14.0385 4.706 15.1835C5.39 16.3685 5.2995 17.7855 4.596 18.856C5.637 19.8295 6.8825 20.584 8.266 21.0435C8.831 19.87 10.028 19.058 11.4175 19.058C12.807 19.058 14.004 19.87 14.569 21.0435C15.9525 20.584 17.198 19.8295 18.239 18.856C17.5355 17.7855 17.445 16.3685 18.129 15.1835C18.79 14.0385 20.0005 13.409 21.2355 13.4345C21.351 12.826 21.4175 12.2005 21.4175 11.5585C21.4165 10.7375 21.3065 9.94354 21.12 9.18004ZM11.4165 16.8085C8.517 16.8085 6.1665 14.458 6.1665 11.5585C6.1665 8.65904 8.517 6.30854 11.4165 6.30854C14.316 6.30854 16.6665 8.65904 16.6665 11.5585C16.6665 14.458 14.316 16.8085 11.4165 16.8085Z" fill="url(#paint2_linear_206_10253)"/>
<path id="Vector_4" d="M11 20.75V13.75H22V20.75C22 21.3 21.55 21.75 21 21.75H12C11.45 21.75 11 21.3 11 20.75Z" fill="url(#paint3_linear_206_10253)"/>
<path id="Vector_5" d="M22 12.75V13.75H11V12.75C11 12.2 11.45 11.75 12 11.75H21C21.55 11.75 22 12.2 22 12.75Z" fill="url(#paint4_linear_206_10253)"/>
<path id="Vector_6" d="M13.573 20.427L12.573 19.427C12.4755 19.3295 12.4755 19.171 12.573 19.0735L12.9265 18.72C13.024 18.6225 13.1825 18.6225 13.28 18.72L13.7495 19.1895L15.219 17.72C15.3165 17.6225 15.475 17.6225 15.5725 17.72L15.926 18.0735C16.0235 18.171 16.0235 18.3295 15.926 18.427L13.926 20.427C13.829 20.5245 13.671 20.5245 13.573 20.427Z" fill="#195BBC"/>
<path id="Vector_7" d="M13.573 17.427L12.573 16.427C12.4755 16.3295 12.4755 16.171 12.573 16.0735L12.9265 15.72C13.024 15.6225 13.1825 15.6225 13.28 15.72L13.7495 16.1895L15.219 14.72C15.3165 14.6225 15.475 14.6225 15.5725 14.72L15.926 15.0735C16.0235 15.171 16.0235 15.3295 15.926 15.427L13.926 17.427C13.829 17.5245 13.671 17.5245 13.573 17.427Z" fill="#195BBC"/>
</g>
<defs>
<linearGradient id="paint0_linear_206_10253" x1="15.4225" y1="15.5645" x2="7.357" y2="7.49897" gradientUnits="userSpaceOnUse">
<stop stop-color="white"/>
<stop offset="0.242" stop-color="#F2F2F2"/>
<stop offset="1" stop-color="#CCCCCC"/>
</linearGradient>
<linearGradient id="paint1_linear_206_10253" x1="8.1415" y1="8.28347" x2="13.8865" y2="14.0285" gradientUnits="userSpaceOnUse">
<stop stop-color="#0D61A9"/>
<stop offset="0.363" stop-color="#0E5FA4"/>
<stop offset="0.78" stop-color="#135796"/>
<stop offset="1" stop-color="#16528C"/>
</linearGradient>
<linearGradient id="paint2_linear_206_10253" x1="2.08" y1="2.23054" x2="18.4575" y2="18.6085" gradientUnits="userSpaceOnUse">
<stop stop-color="#889097"/>
<stop offset="0.331" stop-color="#848C94"/>
<stop offset="0.669" stop-color="#78828B"/>
<stop offset="1" stop-color="#64717C"/>
</linearGradient>
<linearGradient id="paint3_linear_206_10253" x1="13.4425" y1="12.982" x2="18.7545" y2="20.6665" gradientUnits="userSpaceOnUse">
<stop stop-color="#7DD8F3"/>
<stop offset="1" stop-color="#45B0D0"/>
</linearGradient>
<linearGradient id="paint4_linear_206_10253" x1="11.2325" y1="11.7705" x2="21.7085" y2="13.9005" gradientUnits="userSpaceOnUse">
<stop stop-color="#0077D2"/>
<stop offset="1" stop-color="#0B59A2"/>
</linearGradient>
</defs>
</svg>
