<svg width="24" height="24" viewBox="0 0 24 24" fill="none" xmlns="http://www.w3.org/2000/svg">
<g id="amazon-shopping-app">
<path id="Vector" d="M21 17C21 19.209 19.209 21 17 21H7C4.791 21 3 19.209 3 17V7C3 4.791 4.791 3 7 3H17C19.209 3 21 4.791 21 7V17Z" fill="url(#paint0_linear_206_10304)"/>
<path id="Vector_2" opacity="0.05" d="M19.8825 10.9965C19.638 10.586 18.9515 10.5 18.4185 10.5C17.7305 10.5 17.0645 10.6955 16.581 11.0435C16.3385 11.227 16.2365 11.51 16.322 11.764C16.3525 11.8545 16.409 11.928 16.4765 11.991C15.8185 12.189 15.1355 12.337 14.4615 12.4765C13.8105 12.612 13.0415 12.678 12.1115 12.678C11.775 12.678 11.4425 12.6695 11.119 12.657C9.9625 12.6135 9.0005 12.467 8.009 12.185C7.7945 12.119 7.58 12.0565 7.366 11.9935C6.4995 11.74 5.681 11.5 4.906 11.08C4.653 10.941 4.316 11.0095 4.137 11.2315C4.0335 11.3585 3.986 11.519 4.003 11.682C4.02 11.8445 4.099 11.991 4.2265 12.0945C5.1875 12.8725 6.239 13.2945 7.352 13.741L7.455 13.7825C8.635 14.2395 9.8755 14.4805 11.142 14.5C11.4255 14.504 11.7095 14.5085 11.9935 14.5085C12.8535 14.5085 13.8675 14.474 14.866 14.219C15.8705 13.959 16.995 13.664 18.0145 13.0325C17.976 13.141 17.937 13.251 17.891 13.3745C17.8085 13.5815 17.8255 13.795 17.9375 13.96C18.0425 14.115 18.22 14.207 18.4125 14.207C18.562 14.207 18.7115 14.154 18.87 14.033C19.7725 13.258 20.2265 11.578 19.8825 10.9965Z" fill="black"/>
<path id="Vector_3" opacity="0.07" d="M19.6675 11.1245C19.4735 10.799 18.802 10.75 18.4185 10.75C17.7815 10.75 17.1685 10.928 16.732 11.2425C16.574 11.362 16.5075 11.5315 16.559 11.6845C16.596 11.795 16.7175 11.9075 16.945 11.911L17.014 11.902C17.185 11.8805 17.409 11.853 17.6385 11.834C16.658 12.2755 15.571 12.5025 14.512 12.7205C13.844 12.8595 13.0585 12.9275 12.111 12.9275C11.7715 12.9275 11.4355 12.919 11.1095 12.9065C9.9325 12.862 8.952 12.7125 7.9355 12.4235C7.722 12.358 7.5085 12.2955 7.2955 12.233C6.416 11.9755 5.5855 11.732 4.7855 11.299C4.636 11.217 4.4365 11.2575 4.33 11.389C4.269 11.464 4.2405 11.559 4.251 11.6555C4.261 11.752 4.308 11.8385 4.3835 11.9C5.315 12.6545 6.35 13.0695 7.445 13.509L7.545 13.549C8.698 13.995 9.909 14.231 11.1455 14.2495C11.4275 14.2535 11.7105 14.258 11.993 14.258C12.8375 14.258 13.832 14.2245 14.803 13.9765C15.8905 13.695 17.1235 13.376 18.1845 12.624C18.3715 12.4925 18.4375 12.2455 18.3415 12.0365C18.2955 11.9375 18.22 11.863 18.13 11.814C18.4615 11.82 18.5515 11.873 18.5545 11.8645C18.591 11.97 18.5465 12.329 18.1225 13.4665C18.0525 13.643 18.1055 13.763 18.1435 13.8195C18.203 13.907 18.3005 13.957 18.4115 13.957C18.506 13.957 18.6035 13.921 18.7055 13.8435C19.6035 13.073 19.926 11.431 19.6675 11.1245Z" fill="black"/>
<path id="Vector_4" opacity="0.05" d="M8.491 3V7C8.491 7.5515 8.9395 8 9.491 8H12.2085L15.509 4.7075V3H8.491Z" fill="black"/>
<path id="Vector_5" opacity="0.07" d="M8.741 3V7C8.741 7.4135 9.0775 7.75 9.491 7.75H12.105L15.259 4.604V3H8.741Z" fill="black"/>
<path id="Vector_6" d="M17.01 13.7485L16.7575 13.4505V11H19.61V13.7485H17.01Z" fill="#343434"/>
<path id="Vector_7" d="M4.6735 11.5235C5.6885 12.0725 6.773 12.3295 7.8625 12.6635C8.9605 12.976 9.976 13.1145 11.1 13.157C12.2215 13.1995 13.4565 13.1965 14.563 12.966C15.665 12.7385 16.7765 12.51 17.7985 12.039L17.816 12.031C17.9295 11.979 18.063 12.0285 18.115 12.1415C18.161 12.2415 18.1275 12.358 18.0405 12.4195C17.0415 13.128 15.9125 13.431 14.7405 13.7345C13.5705 14.034 12.354 14.018 11.15 14C9.9345 13.9815 8.7525 13.7485 7.636 13.3165C6.523 12.8695 5.4715 12.459 4.5415 11.7065C4.493 11.667 4.4855 11.596 4.525 11.5475C4.5595 11.5045 4.62 11.494 4.666 11.519L4.6735 11.5235Z" fill="url(#paint1_linear_206_10304)"/>
<path id="Vector_8" d="M12.002 7.5H9.4915C9.2155 7.5 8.9915 7.276 8.9915 7V3H15.009V4.5L12.002 7.5Z" fill="url(#paint2_linear_206_10304)"/>
<path id="Vector_9" d="M12.009 7.5V5.5C12.009 4.9475 12.4565 4.5 13.009 4.5H15.009L12.009 7.5Z" fill="url(#paint3_linear_206_10304)"/>
</g>
<defs>
<linearGradient id="paint0_linear_206_10304" x1="5.9315" y1="2.4185" x2="17.3175" y2="20.396" gradientUnits="userSpaceOnUse">
<stop stop-color="#E2BF85"/>
<stop offset="1" stop-color="#CAA36F"/>
</linearGradient>
<linearGradient id="paint1_linear_206_10304" x1="5.7835" y1="5.36595" x2="11.2835" y2="11.866" gradientUnits="userSpaceOnUse">
<stop stop-color="#4C4C4C"/>
<stop offset="1" stop-color="#343434"/>
</linearGradient>
<linearGradient id="paint2_linear_206_10304" x1="9.571" y1="2.3805" x2="14.8835" y2="8.318" gradientUnits="userSpaceOnUse">
<stop stop-color="#00B3EE"/>
<stop offset="1" stop-color="#0082D8"/>
</linearGradient>
<linearGradient id="paint3_linear_206_10304" x1="12.742" y1="5.188" x2="14.867" y2="7.438" gradientUnits="userSpaceOnUse">
<stop stop-color="#00B3EE"/>
<stop offset="1" stop-color="#0082D8"/>
</linearGradient>
</defs>
</svg>
