<svg width="24" height="24" viewBox="0 0 24 24" fill="none" xmlns="http://www.w3.org/2000/svg">
<g id="analytics">
<path id="Vector" d="M18.336 10.9526V20.8376H14.336V10.9526C14.336 10.6781 14.56 10.4561 14.836 10.4561H17.836C18.112 10.4561 18.336 10.6786 18.336 10.9526Z" fill="url(#paint0_linear_206_10314)"/>
<path id="Vector_2" d="M14.336 3.99845V20.8375H10.336V3.99845C10.336 3.72445 10.56 3.50195 10.836 3.50195H13.836C14.112 3.50195 14.336 3.72445 14.336 3.99845Z" fill="url(#paint1_linear_206_10314)"/>
<path id="Vector_3" d="M10.336 7.4755V20.8375H6.336V7.4755C6.336 7.201 6.56 6.979 6.836 6.979H9.836C10.112 6.979 10.336 7.2015 10.336 7.4755Z" fill="#0078D4"/>
<path id="Vector_4" d="M21.125 21.5H3.125C2.849 21.5 2.625 21.2775 2.625 21.0035V3.1215C2.625 2.8475 2.849 2.625 3.125 2.625C3.401 2.625 3.625 2.8475 3.625 3.1215V20.5065H21.125C21.401 20.5065 21.625 20.729 21.625 21.003C21.625 21.277 21.401 21.5 21.125 21.5Z" fill="#ABB4BE"/>
</g>
<defs>
<linearGradient id="paint0_linear_206_10314" x1="15.7974" y1="10.9086" x2="20.2161" y2="20.2708" gradientUnits="userSpaceOnUse">
<stop stop-color="#32BDEF"/>
<stop offset="1" stop-color="#1EA2E4"/>
</linearGradient>
<linearGradient id="paint1_linear_206_10314" x1="11.2222" y1="0.919432" x2="18.8962" y2="3.51879" gradientUnits="userSpaceOnUse">
<stop stop-color="#FCFCFC"/>
<stop offset="0.95" stop-color="#C3C9CD"/>
</linearGradient>
</defs>
</svg>
