<svg width="24" height="24" viewBox="0 0 24 24" fill="none" xmlns="http://www.w3.org/2000/svg">
<g id="analyze">
<path id="Vector" d="M19.5 8V20.5C19.4992 20.765 19.3936 21.0189 19.2062 21.2062C19.0189 21.3936 18.765 21.4992 18.5 21.5H5.5C5.23502 21.4992 4.98112 21.3936 4.79375 21.2062C4.60639 21.0189 4.50078 20.765 4.5 20.5V3.5C4.49996 3.36867 4.52581 3.23862 4.57605 3.11727C4.62629 2.99593 4.69995 2.88568 4.79281 2.79281C4.88568 2.69995 4.99593 2.62629 5.11727 2.57605C5.23862 2.52581 5.36867 2.49996 5.5 2.5H14L19.5 8Z" fill="url(#paint0_linear_206_10319)"/>
<path id="Vector_2" d="M14 2.5V7C14 7.13133 14.0258 7.26138 14.076 7.38273C14.1263 7.50407 14.1999 7.61432 14.2928 7.70719C14.3857 7.80005 14.4959 7.87371 14.6173 7.92395C14.7386 7.9742 14.8687 8.00004 15 8H19.5L14 2.5Z" fill="url(#paint1_linear_206_10319)"/>
<path id="Vector_3" d="M20.5688 18.1812L19.6812 19.0688L22.5755 21.9631C22.5872 21.9748 22.601 21.984 22.6163 21.9904C22.6315 21.9967 22.6479 22 22.6644 22C22.6809 22 22.6972 21.9967 22.7125 21.9904C22.7277 21.984 22.7416 21.9748 22.7532 21.9631L23.4631 21.2532C23.4748 21.2415 23.4841 21.2277 23.4904 21.2124C23.4967 21.1972 23.5 21.1808 23.5 21.1643C23.5 21.1478 23.4967 21.1315 23.4904 21.1162C23.4841 21.101 23.4748 21.0871 23.4631 21.0755L20.5688 18.1812Z" fill="url(#paint2_linear_206_10319)"/>
<path id="Vector_4" d="M6.75 10.5H16.5V11.5H6.75C6.6837 11.5 6.62011 11.4737 6.57322 11.4268C6.52634 11.3799 6.5 11.3163 6.5 11.25V10.75C6.5 10.6837 6.52634 10.6201 6.57322 10.5732C6.62011 10.5263 6.6837 10.5 6.75 10.5Z" fill="#057093"/>
<path id="Vector_5" d="M17.25 13H6.75C6.61193 13 6.5 13.1119 6.5 13.25V13.75C6.5 13.8881 6.61193 14 6.75 14H17.25C17.3881 14 17.5 13.8881 17.5 13.75V13.25C17.5 13.1119 17.3881 13 17.25 13Z" fill="#057093"/>
<path id="Vector_6" d="M17.25 15.5H6.75C6.61193 15.5 6.5 15.6119 6.5 15.75V16.25C6.5 16.3881 6.61193 16.5 6.75 16.5H17.25C17.3881 16.5 17.5 16.3881 17.5 16.25V15.75C17.5 15.6119 17.3881 15.5 17.25 15.5Z" fill="#057093"/>
<path id="Vector_7" d="M19.887 17.5L19 18.387L20.1 19.4875L20.9875 18.6L19.887 17.5Z" fill="url(#paint3_radial_206_10319)"/>
<path id="Vector_8" d="M16.4998 10.5005C17.3016 10.5007 18.0888 10.7152 18.78 11.1217C19.4712 11.5282 20.0411 12.1121 20.4309 12.8128C20.8207 13.5136 21.0162 14.3057 20.9971 15.1074C20.978 15.909 20.7451 16.691 20.3224 17.3724C19.8996 18.0537 19.3025 18.6098 18.5928 18.983C17.8831 19.3562 17.0865 19.5329 16.2856 19.4949C15.4846 19.457 14.7083 19.2057 14.0371 18.767C13.3658 18.3284 12.824 17.7183 12.4677 17C12.3875 16.8386 12.7156 16.5874 12.6549 16.4158C12.5974 16.2531 12.1502 16.1706 12.1115 16C11.9628 15.3416 11.9628 14.6584 12.1116 14C12.1503 13.8294 12.6056 13.7333 12.663 13.5706C12.7243 13.3974 12.389 13.1582 12.4702 12.9954C12.8432 12.2459 13.418 11.6152 14.1299 11.1745C14.8417 10.7337 15.6625 10.5003 16.4998 10.5005Z" fill="url(#paint4_linear_206_10319)"/>
<path id="Vector_9" d="M11.75 8H6.742C6.60393 8 6.492 8.11193 6.492 8.25V8.75C6.492 8.88807 6.60393 9 6.742 9H11.75C11.8881 9 12 8.88807 12 8.75V8.25C12 8.11193 11.8881 8 11.75 8Z" fill="#057093"/>
<path id="Vector_10" d="M11.75 5.5H6.742C6.60393 5.5 6.492 5.61193 6.492 5.75V6.25C6.492 6.38807 6.60393 6.5 6.742 6.5H11.75C11.8881 6.5 12 6.38807 12 6.25V5.75C12 5.61193 11.8881 5.5 11.75 5.5Z" fill="#057093"/>
<path id="Vector_11" opacity="0.05" d="M16.5 10C15.1739 10 13.9021 10.5268 12.9645 11.4645C12.0268 12.4021 11.5 13.6739 11.5 15C11.5 16.3261 12.0268 17.5979 12.9645 18.5355C13.9021 19.4732 15.1739 20 16.5 20C17.4359 20.0026 18.3533 19.7391 19.145 19.24L19.5 19.595V18.885L19.205 18.59C18.5242 19.1035 17.7115 19.413 16.8616 19.4823C16.0117 19.5516 15.1596 19.3779 14.4046 18.9815C13.6496 18.585 13.0229 17.9822 12.5974 17.2432C12.1719 16.5042 11.9652 15.6595 12.0015 14.8075C12.0377 13.9556 12.3153 13.1314 12.802 12.4312C13.2886 11.731 13.9643 11.1835 14.7502 10.8526C15.5361 10.5217 16.3998 10.4209 17.2408 10.5621C18.0817 10.7033 18.8653 11.0806 19.5 11.65V11.005C18.6363 10.352 17.5828 9.99905 16.5 10Z" fill="black"/>
<path id="Vector_12" opacity="0.07" d="M16.5 10.5C17.6078 10.499 18.6767 10.9087 19.5 11.65V11.32C18.8171 10.7615 17.9923 10.4042 17.1178 10.288C16.2433 10.1718 15.3538 10.3013 14.5488 10.662C13.7438 11.0228 13.0551 11.6005 12.5598 12.3305C12.0645 13.0605 11.7822 13.9139 11.7445 14.7953C11.7068 15.6766 11.9152 16.5511 12.3464 17.3207C12.7775 18.0903 13.4144 18.7247 14.1857 19.1528C14.957 19.581 15.8322 19.786 16.7134 19.7448C17.5946 19.7037 18.4469 19.4181 19.175 18.92L19.5 19.245V18.885L19.205 18.59C18.6354 19.0192 17.9719 19.3069 17.2692 19.4292C16.5666 19.5515 15.8449 19.5049 15.1638 19.2934C14.4826 19.0818 13.8616 18.7113 13.3519 18.2124C12.8421 17.7136 12.4583 17.1006 12.2322 16.4242C12.006 15.7478 11.9439 15.0273 12.0511 14.3221C12.1582 13.617 12.4315 12.9475 12.8484 12.3688C13.2653 11.7901 13.8139 11.3188 14.4488 10.9939C15.0837 10.6689 15.7868 10.4997 16.5 10.5Z" fill="black"/>
<path id="Vector_13" d="M18 13.25V14.25C18 14.3163 17.9737 14.3799 17.9268 14.4268C17.8799 14.4737 17.8163 14.5 17.75 14.5H12.03C12.0847 13.9775 12.2338 13.4693 12.47 13H17.75C17.8163 13 17.8799 13.0263 17.9268 13.0732C17.9737 13.1201 18 13.1837 18 13.25Z" fill="url(#paint5_linear_206_10319)"/>
<path id="Vector_14" d="M18 16.25V17.25C18 17.3163 17.9737 17.3799 17.9268 17.4268C17.8799 17.4737 17.8163 17.5 17.75 17.5H12.76C12.4541 17.0436 12.2339 16.5353 12.11 16H17.75C17.8163 16 17.8799 16.0263 17.9268 16.0732C17.9737 16.1201 18 16.1837 18 16.25Z" fill="url(#paint6_linear_206_10319)"/>
</g>
<defs>
<linearGradient id="paint0_linear_206_10319" x1="9.22929" y1="2.79171" x2="19.7783" y2="18.8491" gradientUnits="userSpaceOnUse">
<stop stop-color="#7DD8F3"/>
<stop offset="1" stop-color="#45B0D0"/>
</linearGradient>
<linearGradient id="paint1_linear_206_10319" x1="14.2645" y1="7.736" x2="16.8" y2="5.2" gradientUnits="userSpaceOnUse">
<stop stop-color="#3079D6"/>
<stop offset="1" stop-color="#297CD2"/>
</linearGradient>
<linearGradient id="paint2_linear_206_10319" x1="20.5272" y1="17.6123" x2="23.1158" y2="21.4123" gradientUnits="userSpaceOnUse">
<stop stop-color="#FCFCFC"/>
<stop offset="0.95" stop-color="#C3C9CD"/>
</linearGradient>
<radialGradient id="paint3_radial_206_10319" cx="0" cy="0" r="1" gradientUnits="userSpaceOnUse" gradientTransform="translate(16.761 15.377) scale(4.921)">
<stop offset="0.693" stop-color="#006185"/>
<stop offset="0.921" stop-color="#35C1F1"/>
</radialGradient>
<linearGradient id="paint4_linear_206_10319" x1="13.0355" y1="11.536" x2="22.823" y2="21.3235" gradientUnits="userSpaceOnUse">
<stop stop-color="#A3FFFF"/>
<stop offset="0.223" stop-color="#9DFBFF"/>
<stop offset="0.53" stop-color="#8BF1FF"/>
<stop offset="0.885" stop-color="#6EE0FF"/>
<stop offset="1" stop-color="#63DAFF"/>
</linearGradient>
<linearGradient id="paint5_linear_206_10319" x1="10.136" y1="13.75" x2="17.5745" y2="13.75" gradientUnits="userSpaceOnUse">
<stop stop-color="#3B8FBF"/>
<stop offset="1" stop-color="#057093"/>
</linearGradient>
<linearGradient id="paint6_linear_206_10319" x1="10.136" y1="16.75" x2="17.5745" y2="16.75" gradientUnits="userSpaceOnUse">
<stop stop-color="#3B8FBF"/>
<stop offset="1" stop-color="#057093"/>
</linearGradient>
</defs>
</svg>
