<svg width="24" height="24" viewBox="0 0 24 24" fill="none" xmlns="http://www.w3.org/2000/svg">
<g id="angry">
<path id="Vector" d="M12 22C17.5225 22 22 17.5225 22 12C22 6.4775 17.5225 2 12 2C6.4775 2 2 6.4775 2 12C2 17.5225 6.4775 22 12 22Z" fill="url(#paint0_linear_206_10334)"/>
<path id="Vector_2" d="M15.5 17.826C15.3825 17.826 15.265 17.785 15.17 17.701C14.29 16.9265 13.1645 16.5 12 16.5C10.8355 16.5 9.71 16.9265 8.8305 17.701C8.623 17.8835 8.307 17.8635 8.125 17.656C7.9425 17.449 7.9625 17.133 8.17 16.9505C9.232 16.015 10.5925 15.5 12 15.5C13.4075 15.5 14.768 16.015 15.8305 16.9505C16.038 17.133 16.058 17.449 15.8755 17.656C15.7765 17.7685 15.6385 17.826 15.5 17.826Z" fill="#343434"/>
<path id="Vector_3" d="M6.7245 9.83752C6.6225 9.96852 6.53 10.109 6.4615 10.2685C6.0235 11.2825 6.491 12.4595 7.505 12.8975C8.519 13.3355 9.696 12.868 10.134 11.854C10.203 11.6945 10.242 11.531 10.2675 11.367L6.7245 9.83752Z" fill="white"/>
<path id="Vector_4" d="M7.705 10.261C7.5675 10.3625 7.452 10.497 7.3795 10.665C7.1605 11.172 7.394 11.7605 7.901 11.9795C8.408 12.1985 8.9965 11.965 9.2155 11.458C9.288 11.29 9.3065 11.1135 9.2865 10.944L7.705 10.261Z" fill="#343434"/>
<path id="Vector_5" d="M6.6595 9.80945L10.3315 11.3949" stroke="#801017" stroke-miterlimit="10" stroke-linecap="round" stroke-linejoin="round"/>
<path id="Vector_6" d="M17.404 9.83752C17.506 9.96852 17.5985 10.109 17.667 10.2685C18.105 11.2825 17.6375 12.4595 16.6235 12.8975C15.6095 13.3355 14.4325 12.868 13.9945 11.854C13.9255 11.6945 13.8865 11.531 13.861 11.367L17.404 9.83752Z" fill="white"/>
<path id="Vector_7" d="M16.4235 10.261C16.561 10.3625 16.6765 10.497 16.749 10.665C16.968 11.172 16.7345 11.7605 16.2275 11.9795C15.7205 12.1985 15.132 11.965 14.913 11.458C14.8405 11.29 14.822 11.1135 14.842 10.944L16.4235 10.261Z" fill="#343434"/>
<path id="Vector_8" d="M17.469 9.80945L13.797 11.3949" stroke="#801017" stroke-miterlimit="10" stroke-linecap="round" stroke-linejoin="round"/>
</g>
<defs>
<linearGradient id="paint0_linear_206_10334" x1="5.0155" y1="5.0155" x2="19.055" y2="19.055" gradientUnits="userSpaceOnUse">
<stop stop-color="#F44F5A"/>
<stop offset="0.443" stop-color="#EE3D4A"/>
<stop offset="1" stop-color="#E52030"/>
</linearGradient>
</defs>
</svg>
