<svg width="24" height="24" viewBox="0 0 24 24" fill="none" xmlns="http://www.w3.org/2000/svg">
<g id="app-store">
<path id="Vector" d="M16.95 3H7.05C4.813 3 3 4.813 3 7.05V16.95C3 19.1865 4.813 21 7.05 21H16.95C19.187 21 21 19.1865 21 16.95V7.05C21 4.813 19.187 3 16.95 3Z" fill="url(#paint0_linear_206_10363)"/>
<path id="Vector_2" opacity="0.05" d="M6.14999 15.4885C5.46099 15.4885 4.89999 14.9315 4.89999 14.2465C4.89999 13.5615 5.46099 13.0045 6.14999 13.0045H8.04899L10.4835 8.85003L9.77199 7.63553C9.60299 7.34653 9.55649 7.01003 9.64099 6.68703C9.72549 6.36403 9.93099 6.09303 10.219 5.92503C10.411 5.81303 10.629 5.75403 10.85 5.75403C11.2925 5.75403 11.706 5.99103 11.929 6.37253L11.9325 6.37853L11.9355 6.37303C12.158 5.99153 12.5715 5.75453 13.0145 5.75453C13.236 5.75453 13.454 5.81403 13.646 5.92603C14.241 6.27503 14.441 7.04253 14.092 7.63703L10.9465 13.005H12.6105L12.757 13.1525C12.868 13.264 12.9695 13.3905 13.0685 13.5395L13.167 13.7045C13.4115 14.16 13.466 14.6635 13.3265 15.1315L13.221 15.4885H6.14999Z" fill="black"/>
<path id="Vector_3" opacity="0.07" d="M6.14999 15.2385C5.59849 15.2385 5.14999 14.7935 5.14999 14.2465C5.14999 13.6995 5.59849 13.2545 6.14999 13.2545H8.19199L10.773 8.85004L9.98699 7.50904C9.85199 7.27854 9.81449 7.00904 9.88249 6.75004C9.94999 6.49154 10.114 6.27504 10.3445 6.14054C10.498 6.05104 10.6725 6.00354 10.8495 6.00354C11.2035 6.00354 11.5345 6.19304 11.713 6.49804L11.932 6.87254L12.151 6.49854C12.329 6.19354 12.66 6.00404 13.014 6.00404C13.191 6.00404 13.3655 6.05154 13.519 6.14104C13.995 6.42054 14.1545 7.03454 13.8755 7.51004L10.51 13.2545H12.506L12.579 13.328C12.678 13.4275 12.7695 13.5415 12.859 13.677L12.9515 13.832C13.1605 14.2225 13.207 14.655 13.0865 15.06L13.0335 15.2385H6.14999Z" fill="black"/>
<path id="Vector_4" d="M12.651 13.815C12.577 13.703 12.495 13.598 12.402 13.5045H10.074L13.6605 7.38351C13.87 7.02601 13.75 6.56651 13.393 6.35701C13.035 6.14751 12.5755 6.26751 12.367 6.62501L11.932 7.36701L11.497 6.62451C11.288 6.26701 10.8285 6.14751 10.471 6.35651C10.1135 6.56551 9.99349 7.02501 10.203 7.38251L11.063 8.85001L8.33549 13.5045H6.14999C5.73549 13.5045 5.39999 13.837 5.39999 14.2465C5.39999 14.656 5.73549 14.9885 6.14999 14.9885H12.847C12.944 14.662 12.9175 14.2975 12.7365 13.9595L12.651 13.815Z" fill="white"/>
<path id="Vector_5" opacity="0.05" d="M7.25001 18.0895C7.02851 18.0895 6.81051 18.03 6.61851 17.9175C6.33051 17.7485 6.12551 17.4775 6.04101 17.1545C5.95701 16.8315 6.00351 16.4945 6.17251 16.2065L6.52901 15.5975L6.74901 15.5535C6.92951 15.518 7.09801 15.5 7.26401 15.5L7.32301 15.5005C7.86351 15.5165 8.35301 15.7475 8.70601 16.1505L8.94401 16.4215L8.32951 17.4715C8.10551 17.853 7.69251 18.0895 7.25001 18.0895Z" fill="black"/>
<path id="Vector_6" opacity="0.07" d="M7.25 17.8395C7.073 17.8395 6.898 17.792 6.745 17.702C6.515 17.567 6.3505 17.35 6.283 17.0915C6.2155 16.833 6.2525 16.5635 6.388 16.333L6.688 15.821L6.798 15.799C6.9625 15.766 7.115 15.75 7.264 15.75L7.32 15.7505C7.7865 15.7645 8.2115 15.965 8.518 16.315L8.637 16.4505L8.1135 17.345C7.935 17.65 7.604 17.8395 7.25 17.8395Z" fill="black"/>
<path id="Vector_7" d="M7.313 16.0009C7.1545 15.9964 6.999 16.0139 6.847 16.0444L6.6035 16.4599C6.394 16.8174 6.514 17.2769 6.8715 17.4864C6.9905 17.5564 7.1215 17.5894 7.25 17.5894C7.5075 17.5894 7.7585 17.4564 7.8975 17.2189L8.33 16.4804C8.0865 16.2024 7.735 16.0134 7.315 16.0009H7.313Z" fill="white"/>
<path id="Vector_8" opacity="0.05" d="M16.6145 18.0895C16.172 18.0895 15.7585 17.8525 15.5355 17.4715L12.522 12.329L12.5135 12.303C12.305 11.6585 12.346 10.994 12.6205 10.4065L13.455 8.97754L15.815 13.005H17.85C18.539 13.005 19.1 13.562 19.1 14.247C19.1 14.932 18.539 15.489 17.85 15.489H17.2705L17.6915 16.2075C17.8605 16.4955 17.907 16.832 17.823 17.1555C17.739 17.479 17.5335 17.7495 17.2455 17.9185C17.0545 18.03 16.8365 18.0895 16.6145 18.0895Z" fill="black"/>
<path id="Vector_9" opacity="0.07" d="M16.6145 17.8395C16.2605 17.8395 15.9295 17.6505 15.751 17.3455L12.751 12.2265L12.7425 12.2005C12.562 11.6415 12.5985 11.042 12.8465 10.5125L13.4545 9.47205L15.671 13.2545H17.85C18.4015 13.2545 18.85 13.6995 18.85 14.2465C18.85 14.7935 18.4015 15.2385 17.85 15.2385H16.8345L17.476 16.3335C17.6115 16.564 17.6485 16.8335 17.581 17.092C17.5135 17.3505 17.3495 17.5675 17.119 17.7025C16.9665 17.792 16.792 17.8395 16.6145 17.8395Z" fill="black"/>
<path id="Vector_10" d="M17.85 13.5046H15.5285L13.455 9.96655L13.0735 10.6181C12.8515 11.0931 12.8215 11.6301 12.981 12.1236L15.967 17.2191C16.1065 17.4571 16.357 17.5896 16.6145 17.5896C16.743 17.5896 16.874 17.5566 16.993 17.4866C17.3505 17.2771 17.47 16.8176 17.2605 16.4601L16.398 14.9886H17.85C18.2645 14.9886 18.6 14.6561 18.6 14.2466C18.6 13.8371 18.2645 13.5046 17.85 13.5046Z" fill="white"/>
</g>
<defs>
<linearGradient id="paint0_linear_206_10363" x1="12" y1="2.3085" x2="12" y2="20.048" gradientUnits="userSpaceOnUse">
<stop stop-color="#33BEF0"/>
<stop offset="1" stop-color="#0A85D9"/>
</linearGradient>
</defs>
</svg>
