<svg width="24" height="24" viewBox="0 0 24 24" fill="none" xmlns="http://www.w3.org/2000/svg">
<g id="application">
<path id="Vector" d="M22 5V6.5L12 7L2 6.5V5C2 4.45 2.45 4 3 4H21C21.55 4 22 4.45 22 5Z" fill="url(#paint0_linear_206_10343)"/>
<path id="Vector_2" d="M5 20L3.5 13L5 6.5H22V19C22 19.55 21.55 20 21 20H5Z" fill="url(#paint1_linear_206_10343)"/>
<path id="Vector_3" d="M18.25 15.5H15.75C15.612 15.5 15.5 15.388 15.5 15.25V14.75C15.5 14.612 15.612 14.5 15.75 14.5H18.25C18.388 14.5 18.5 14.612 18.5 14.75V15.25C18.5 15.388 18.388 15.5 18.25 15.5Z" fill="#CCCCCC"/>
<path id="Vector_4" d="M20.25 9.5H15.75C15.612 9.5 15.5 9.388 15.5 9.25V8.75C15.5 8.612 15.612 8.5 15.75 8.5H20.25C20.388 8.5 20.5 8.612 20.5 8.75V9.25C20.5 9.388 20.388 9.5 20.25 9.5Z" fill="#CCCCCC"/>
<path id="Vector_5" d="M20.25 11.5H15.75C15.612 11.5 15.5 11.388 15.5 11.25V10.75C15.5 10.612 15.612 10.5 15.75 10.5H20.25C20.388 10.5 20.5 10.612 20.5 10.75V11.25C20.5 11.388 20.388 11.5 20.25 11.5Z" fill="#CCCCCC"/>
<path id="Vector_6" d="M20.25 13.5H15.75C15.612 13.5 15.5 13.388 15.5 13.25V12.75C15.5 12.612 15.612 12.5 15.75 12.5H20.25C20.388 12.5 20.5 12.612 20.5 12.75V13.25C20.5 13.388 20.388 13.5 20.25 13.5Z" fill="#CCCCCC"/>
<path id="Vector_7" d="M3 20H5V6.5H2V19C2 19.5525 2.4475 20 3 20Z" fill="#D9D9D9"/>
<path id="Vector_8" d="M13.5 18.5H7C6.724 18.5 6.5 18.276 6.5 18V8.5C6.5 8.224 6.724 8 7 8H13.5C13.776 8 14 8.224 14 8.5V18C14 18.276 13.776 18.5 13.5 18.5Z" fill="url(#paint2_linear_206_10343)"/>
</g>
<defs>
<linearGradient id="paint0_linear_206_10343" x1="2.404" y1="3.3905" x2="21.375" y2="7.2475" gradientUnits="userSpaceOnUse">
<stop stop-color="#889097"/>
<stop offset="0.331" stop-color="#848C94"/>
<stop offset="0.669" stop-color="#78828B"/>
<stop offset="1" stop-color="#64717C"/>
</linearGradient>
<linearGradient id="paint1_linear_206_10343" x1="8.299" y1="5.727" x2="16.9995" y2="18.312" gradientUnits="userSpaceOnUse">
<stop stop-color="#FCFCFC"/>
<stop offset="0.495" stop-color="#F4F4F4"/>
<stop offset="0.946" stop-color="#E8E8E8"/>
<stop offset="1" stop-color="#E8E8E8"/>
</linearGradient>
<linearGradient id="paint2_linear_206_10343" x1="7.126" y1="8.731" x2="12.4665" y2="16.4565" gradientUnits="userSpaceOnUse">
<stop stop-color="#28AFEA"/>
<stop offset="1" stop-color="#047ED6"/>
</linearGradient>
</defs>
</svg>
