<svg width="24" height="24" viewBox="0 0 24 24" fill="none" xmlns="http://www.w3.org/2000/svg">
<g id="approved-unlock">
<path id="Vector" d="M22 18.5H2V21C2 21.5525 2.4475 22 3 22H21C21.5525 22 22 21.5525 22 21V18.5Z" fill="#C48C00"/>
<path id="Vector_2" d="M22 11.5H2V9C2 8.4475 2.4475 8 3 8H21C21.5525 8 22 8.4475 22 9V11.5Z" fill="#FAD500"/>
<path id="Vector_3" d="M22 11.5H2V15H22V11.5Z" fill="#EDBE00"/>
<path id="Vector_4" d="M22 15H2V18.5H22V15Z" fill="#E3A600"/>
<path id="Vector_5" d="M13.5 14.5C13.5 13.6715 12.8285 13 12 13C11.1715 13 10.5 13.6715 10.5 14.5C10.5 15.152 10.9185 15.7015 11.5 15.908V17.5C11.5 17.776 11.724 18 12 18C12.276 18 12.5 17.776 12.5 17.5V15.908C13.0815 15.7015 13.5 15.152 13.5 14.5Z" fill="url(#paint0_linear_206_10352)"/>
<path id="Vector_6" d="M16.236 5H18.3145C17.637 2.135 15.0725 0 12 0C8.41 0 5.5 2.91 5.5 6.5V8H7.5V6.5C7.5 4.0145 9.5145 2 12 2C13.958 2 15.618 3.2535 16.236 5Z" fill="url(#paint1_linear_206_10352)"/>
<path id="Vector_7" opacity="0.05" d="M22 14.39V21C22 21.55 21.55 22 21 22H14.39C13.825 21.135 13.5 20.11 13.5 19C13.5 15.965 15.965 13.5 19 13.5C20.11 13.5 21.135 13.825 22 14.39Z" fill="black"/>
<path id="Vector_8" opacity="0.07" d="M22 14.695V21C22 21.55 21.55 22 21 22H14.695C14.1 21.15 13.75 20.115 13.75 19C13.75 16.105 16.105 13.75 19 13.75C20.115 13.75 21.15 14.1 22 14.695Z" fill="black"/>
<path id="Vector_9" d="M24 19C24 21.761 21.761 24 19 24C16.239 24 14 21.761 14 19C14 16.239 16.239 14 19 14C21.761 14 24 16.239 24 19Z" fill="url(#paint2_linear_206_10352)"/>
<path id="Vector_10" d="M18.323 21.177L16.323 19.177C16.2255 19.0795 16.2255 18.921 16.323 18.8235L16.6765 18.47C16.774 18.3725 16.9325 18.3725 17.03 18.47L18.5 19.9395L21.2195 17.22C21.317 17.1225 21.4755 17.1225 21.573 17.22L21.9265 17.5735C22.024 17.671 22.024 17.8295 21.9265 17.927L18.6765 21.177C18.579 21.2745 18.421 21.2745 18.323 21.177Z" fill="white"/>
</g>
<defs>
<linearGradient id="paint0_linear_206_10352" x1="12" y1="17.6865" x2="12" y2="13.5775" gradientUnits="userSpaceOnUse">
<stop stop-color="#4B4B4B"/>
<stop offset="1" stop-color="#3B3B3B"/>
</linearGradient>
<linearGradient id="paint1_linear_206_10352" x1="11.907" y1="7.8235" x2="11.907" y2="-0.148" gradientUnits="userSpaceOnUse">
<stop stop-color="#92A3B0"/>
<stop offset="0.015" stop-color="#A3B5C4"/>
<stop offset="0.032" stop-color="#AEC2D1"/>
<stop offset="0.046" stop-color="#B2C6D6"/>
</linearGradient>
<linearGradient id="paint2_linear_206_10352" x1="15.4645" y1="15.4645" x2="22.5355" y2="22.5355" gradientUnits="userSpaceOnUse">
<stop stop-color="#21AD64"/>
<stop offset="1" stop-color="#088242"/>
</linearGradient>
</defs>
</svg>
