<svg width="24" height="24" viewBox="0 0 24 24" fill="none" xmlns="http://www.w3.org/2000/svg">
<g id="archive">
<path id="Vector" d="M19.5 20.5C19.5 21.0525 19.0525 21.5 18.5 21.5H5.5C4.9475 21.5 4.5 21.0525 4.5 20.5V3.5C4.5 2.9475 4.9475 2.5 5.5 2.5H18.5C19.0525 2.5 19.5 2.9475 19.5 3.5V20.5Z" fill="url(#paint0_linear_206_10374)"/>
<path id="Vector_2" d="M13.077 10.409C13.034 10.172 12.827 10 12.5855 10H11.4145C11.173 10 10.966 10.171 10.923 10.4085C10.7855 11.164 10.5115 12.805 10.5005 13.932C10.493 14.686 11.024 15.372 11.7695 15.483C12.7 15.6215 13.5 14.904 13.5 14C13.5 12.8725 13.2175 11.1805 13.077 10.409ZM12 14.5C11.724 14.5 11.5 14.276 11.5 14C11.5 13.724 11.724 13.5 12 13.5C12.276 13.5 12.5 13.724 12.5 14C12.5 14.276 12.276 14.5 12 14.5Z" fill="url(#paint1_linear_206_10374)"/>
<path id="Vector_3" d="M11.7285 8.49999H11.272C11.1215 8.49999 11 8.37849 11 8.22849V7.77199C11 7.62199 11.1215 7.50049 11.2715 7.50049H11.728C11.878 7.50049 11.9995 7.62199 11.9995 7.77199V8.22849C12 8.37849 11.8785 8.49999 11.7285 8.49999Z" fill="#E97C01"/>
<path id="Vector_4" d="M12.7285 9.49999H12.272C12.1215 9.49999 12 9.37849 12 9.22849V8.77199C12 8.62199 12.1215 8.50049 12.2715 8.50049H12.728C12.878 8.50049 12.9995 8.62199 12.9995 8.77199V9.22849C13 9.37849 12.8785 9.49999 12.7285 9.49999Z" fill="#E97C01"/>
<path id="Vector_5" d="M11.7285 6.49999H11.272C11.1215 6.49999 11 6.37849 11 6.22849V5.77199C11 5.62199 11.1215 5.50049 11.2715 5.50049H11.728C11.878 5.50049 11.9995 5.62199 11.9995 5.77199V6.22849C12 6.37849 11.8785 6.49999 11.7285 6.49999Z" fill="#E97C01"/>
<path id="Vector_6" d="M12.7285 7.49999H12.272C12.1215 7.49999 12 7.37849 12 7.22849V6.77199C12 6.62199 12.1215 6.50049 12.2715 6.50049H12.728C12.878 6.50049 12.9995 6.62199 12.9995 6.77199V7.22849C13 7.37849 12.8785 7.49999 12.7285 7.49999Z" fill="#E97C01"/>
<path id="Vector_7" d="M11.7285 4.5H11.272C11.1215 4.5 11 4.3785 11 4.2285V3.7715C11 3.6215 11.1215 3.5 11.2715 3.5H11.728C11.8785 3.5 12 3.6215 12 3.7715V4.228C12 4.3785 11.8785 4.5 11.7285 4.5Z" fill="#E97C01"/>
<path id="Vector_8" d="M12.7285 5.5H12.272C12.1215 5.5 12 5.3785 12 5.2285V4.7715C12 4.6215 12.1215 4.5 12.2715 4.5H12.728C12.8785 4.5 13 4.6215 13 4.7715V5.228C13 5.3785 12.8785 5.5 12.7285 5.5Z" fill="#E97C01"/>
<path id="Vector_9" d="M12.7285 3.5H12.272C12.1215 3.5 12 3.3785 12 3.2285V2.7715C12 2.6215 12.1215 2.5 12.2715 2.5H12.728C12.8785 2.5 13 2.6215 13 2.7715V3.228C13 3.3785 12.8785 3.5 12.7285 3.5Z" fill="#E97C01"/>
</g>
<defs>
<linearGradient id="paint0_linear_206_10374" x1="4.5" y1="12" x2="19.5" y2="12" gradientUnits="userSpaceOnUse">
<stop stop-color="#FEDE00"/>
<stop offset="1" stop-color="#FFD000"/>
</linearGradient>
<linearGradient id="paint1_linear_206_10374" x1="10.5005" y1="12.75" x2="13.5" y2="12.75" gradientUnits="userSpaceOnUse">
<stop stop-color="#4B4B4B"/>
<stop offset="1" stop-color="#3B3B3B"/>
</linearGradient>
</defs>
</svg>
