<svg width="24" height="24" viewBox="0 0 24 24" fill="none" xmlns="http://www.w3.org/2000/svg">
<g id="archive-folder">
<path id="Vector" d="M12.207 5.207L10.939 3.939C10.658 3.658 10.2765 3.5 9.8785 3.5H2.5C1.9475 3.5 1.5 3.9475 1.5 4.5V19.5C1.5 20.0525 1.9475 20.5 2.5 20.5H21.5C22.0525 20.5 22.5 20.0525 22.5 19.5V6.5C22.5 5.9475 22.0525 5.5 21.5 5.5H12.914C12.649 5.5 12.3945 5.3945 12.207 5.207Z" fill="url(#paint0_linear_206_10384)"/>
<path id="Vector_2" d="M10.793 7.207L12.427 5.573C12.4735 5.5265 12.537 5.5 12.6035 5.5H21.5C22.0525 5.5 22.5 5.9475 22.5 6.5V19.5C22.5 20.0525 22.0525 20.5 21.5 20.5H2.5C1.9475 20.5 1.5 20.0525 1.5 19.5V7.75C1.5 7.612 1.612 7.5 1.75 7.5H10.086C10.351 7.5 10.6055 7.3945 10.793 7.207Z" fill="url(#paint1_linear_206_10384)"/>
<path id="Vector_3" d="M18 5.75V6.25C18 6.388 17.888 6.5 17.75 6.5H17C16.724 6.5 16.5 6.276 16.5 6C16.5 5.724 16.724 5.5 17 5.5H17.75C17.888 5.5 18 5.612 18 5.75ZM17 7C17 6.724 16.776 6.5 16.5 6.5H15.75C15.612 6.5 15.5 6.612 15.5 6.75V7.25C15.5 7.388 15.612 7.5 15.75 7.5H16.5C16.776 7.5 17 7.276 17 7ZM16.5 8C16.5 8.276 16.724 8.5 17 8.5H17.75C17.888 8.5 18 8.388 18 8.25V7.75C18 7.612 17.888 7.5 17.75 7.5H17C16.724 7.5 16.5 7.724 16.5 8ZM17 9C17 8.724 16.776 8.5 16.5 8.5H15.75C15.612 8.5 15.5 8.612 15.5 8.75V9.25C15.5 9.388 15.612 9.5 15.75 9.5H16.5C16.776 9.5 17 9.276 17 9ZM16.5 10C16.5 10.276 16.724 10.5 17 10.5H17.75C17.888 10.5 18 10.388 18 10.25V9.75C18 9.612 17.888 9.5 17.75 9.5H17C16.724 9.5 16.5 9.724 16.5 10ZM16.5 12C16.5 12.276 16.724 12.5 17 12.5H17.75C17.888 12.5 18 12.388 18 12.25V11.75C18 11.612 17.888 11.5 17.75 11.5H17C16.724 11.5 16.5 11.724 16.5 12ZM17 11C17 10.724 16.776 10.5 16.5 10.5H15.75C15.612 10.5 15.5 10.612 15.5 10.75V11.25C15.5 11.388 15.612 11.5 15.75 11.5H16.5C16.776 11.5 17 11.276 17 11Z" fill="#C28200"/>
<path id="Vector_4" d="M18.064 13.424C18.0275 13.179 17.8175 13 17.5695 13H15.93C15.6825 13 15.4725 13.179 15.436 13.424C15.3015 14.325 15 16.3805 15 16.75C15 17.7165 15.7835 18.5 16.75 18.5C17.7165 18.5 18.5 17.7165 18.5 16.75C18.5 16.3805 18.1985 14.325 18.064 13.424ZM16.75 17.5C16.336 17.5 16 17.164 16 16.75C16 16.336 16.336 16 16.75 16C17.164 16 17.5 16.336 17.5 16.75C17.5 17.164 17.164 17.5 16.75 17.5Z" fill="url(#paint2_linear_206_10384)"/>
</g>
<defs>
<linearGradient id="paint0_linear_206_10384" x1="12" y1="3.354" x2="12" y2="7.4885" gradientUnits="userSpaceOnUse">
<stop stop-color="#EBA600"/>
<stop offset="1" stop-color="#C28200"/>
</linearGradient>
<linearGradient id="paint1_linear_206_10384" x1="12" y1="5.427" x2="12" y2="20.4915" gradientUnits="userSpaceOnUse">
<stop stop-color="#FFD869"/>
<stop offset="1" stop-color="#FEC52B"/>
</linearGradient>
<linearGradient id="paint2_linear_206_10384" x1="16.75" y1="12.972" x2="16.75" y2="18.7905" gradientUnits="userSpaceOnUse">
<stop stop-color="#4B4B4B"/>
<stop offset="1" stop-color="#3B3B3B"/>
</linearGradient>
</defs>
</svg>
