<svg width="24" height="24" viewBox="0 0 24 24" fill="none" xmlns="http://www.w3.org/2000/svg">
<g id="ask-question">
<path id="Vector" d="M21 4H3C2.4475 4 2 4.4475 2 5V18C2 18.5525 2.4475 19 3 19H7V22.999C7 23.4445 7.5385 23.6675 7.8535 23.3525L12.206 19H21C21.5525 19 22 18.5525 22 18V5C22 4.4475 21.5525 4 21 4Z" fill="url(#paint0_linear_206_10392)"/>
<path id="Vector_2" opacity="0.05" d="M11.726 6C10.802 6 9.6525 6.4675 9.1425 6.6975C8.9795 6.771 8.8775 6.932 8.8775 7.1105V9.386C8.8775 9.673 9.213 9.8265 9.4295 9.6385C9.908 9.223 10.6545 8.728 11.495 8.728C11.7425 8.728 12.0375 8.806 12.0375 9.1775C12.0375 10.158 10.065 10.5075 10.065 12.588C10.065 12.862 10.1945 13.341 10.282 13.6325C10.326 13.779 10.46 13.88 10.6135 13.8795L12.7655 13.874C13.013 13.8735 13.1845 13.61 13.0645 13.3935C12.928 13.1475 12.876 12.8845 12.876 12.7865C12.876 12.3905 13.07 12.119 13.5815 11.6855C14.232 11.134 15.123 10.379 15.123 8.887C15.1225 7.0795 13.853 6 11.726 6Z" fill="black"/>
<path id="Vector_3" opacity="0.07" d="M9.323 6.866C9.7715 6.6445 10.7135 6.25 11.726 6.25C14.2195 6.25 14.8725 7.773 14.8725 8.888C14.8725 10.255 14.076 10.939 13.433 11.484C13.009 11.8435 12.721 12.1125 12.613 12.4695C12.5735 12.6 12.583 12.827 12.6675 13.0415C12.7695 13.2995 13.04 13.628 12.403 13.628L10.7615 13.6305C10.5955 13.6305 10.4995 13.537 10.473 13.4455C10.4215 13.269 10.3575 13.004 10.334 12.7555C10.323 12.638 10.319 12.5275 10.3245 12.4315C10.435 10.5845 12.2875 10.338 12.2875 9.178C12.2875 8.832 12.081 8.693 11.883 8.616C11.5855 8.4995 11.241 8.521 11.049 8.5665C10.5825 8.6775 10.1625 8.866 9.8375 9.08C9.612 9.2285 9.344 9.2155 9.263 9.1305C9.206 9.172 9.127 8.876 9.127 8.8055V7.242C9.127 7.212 9.135 7.1195 9.1435 7.092C9.173 6.9975 9.23 6.912 9.323 6.866Z" fill="black"/>
<path id="Vector_4" opacity="0.05" d="M11.666 14.0129C10.881 14.0129 10.046 14.5344 10.046 15.5004C10.046 16.4744 10.881 16.9999 11.666 16.9999C12.6095 16.9999 13.268 16.3834 13.268 15.5004C13.268 14.5239 12.462 14.0129 11.666 14.0129Z" fill="black"/>
<path id="Vector_5" opacity="0.07" d="M11.666 16.7499C11.001 16.7499 10.296 16.3174 10.296 15.5004C10.296 14.6874 11.0125 14.2629 11.666 14.2629C12.325 14.2629 13.018 14.6644 13.018 15.5004C13.018 16.2894 12.41 16.7499 11.666 16.7499Z" fill="black"/>
<path id="Vector_6" d="M10.7035 13.3805C10.6595 13.266 10.565 12.9255 10.565 12.589C10.565 10.673 12.5375 10.5995 12.5375 9.1785C12.5375 8.284 11.6535 8.2285 11.495 8.2285C10.491 8.2285 9.707 8.8025 9.3775 9.0925V7.107C9.7165 6.9045 10.491 6.5 11.726 6.5C14.586 6.5 14.622 8.466 14.622 8.888C14.622 11.1575 12.28 11.3255 12.28 12.78C12.28 13.0835 12.39 13.3055 12.4385 13.3805H10.7035ZM11.666 16.5C11.1215 16.5 10.546 16.1605 10.546 15.5005C10.546 14.8405 11.144 14.513 11.666 14.513C12.188 14.513 12.768 14.8055 12.768 15.5005C12.768 16.1955 12.2105 16.5 11.666 16.5Z" fill="white"/>
</g>
<defs>
<linearGradient id="paint0_linear_206_10392" x1="6.343" y1="2.296" x2="17.79" y2="20.9205" gradientUnits="userSpaceOnUse">
<stop stop-color="#33BEF0"/>
<stop offset="1" stop-color="#0A85D9"/>
</linearGradient>
</defs>
</svg>
