<svg width="24" height="24" viewBox="0 0 24 24" fill="none" xmlns="http://www.w3.org/2000/svg">
<g id="at-sign">
<path id="Vector" d="M13.8075 14.5285H13.754C13.2375 16.071 12.226 16.842 10.7195 16.842C9.7585 16.842 8.9835 16.4815 8.396 15.761C7.8075 15.04 7.5135 14.0695 7.5135 12.8505C7.5135 11.236 7.917 9.89503 8.724 8.82603C9.5305 7.75703 10.594 7.22303 11.914 7.22303C12.4165 7.22303 12.8645 7.36103 13.259 7.63703C13.6535 7.91353 13.908 8.24503 14.023 8.63203H14.055C14.074 8.45603 14.1175 8.11653 14.186 7.61403C14.203 7.49003 14.309 7.39453 14.434 7.39453H15.729C15.876 7.39453 15.9905 7.52453 15.9775 7.67103C15.657 11.276 15.4965 13.1135 15.4965 13.1835C15.4965 14.604 15.8655 15.314 16.6045 15.314C17.279 15.314 17.8385 14.918 18.283 14.125C18.728 13.3325 18.95 12.3045 18.95 11.0425C18.95 9.17753 18.3495 7.65503 17.148 6.47453C15.9465 5.29503 14.281 4.70453 12.15 4.70453C10.1055 4.70453 8.4125 5.41853 7.0715 6.84553C5.73 8.27303 5.0595 10.0595 5.0595 12.2045C5.0595 14.3205 5.705 16.0275 6.9965 17.326C8.2875 18.6245 10.0275 19.274 12.2155 19.274C13.777 19.274 15.135 19.0315 16.2895 18.548C16.456 18.4785 16.6375 18.594 16.6375 18.7745V19.877C16.6375 19.9805 16.5765 20.075 16.4805 20.113C15.252 20.601 13.737 20.845 11.9355 20.845C9.2955 20.845 7.1685 20.056 5.5545 18.478C3.94 16.9 3.1335 14.834 3.1335 12.28C3.1335 9.65453 3.987 7.47753 5.694 5.74853C7.4015 4.01953 9.582 3.15503 12.2365 3.15503C14.7255 3.15503 16.786 3.87953 18.418 5.32853C20.05 6.77753 20.866 8.66803 20.866 10.999C20.866 12.7065 20.423 14.1075 19.537 15.201C18.6515 16.295 17.5695 16.8415 16.293 16.8415C14.643 16.842 13.8145 16.071 13.8075 14.5285ZM12.0965 8.75053C11.3075 8.75053 10.6705 9.13753 10.187 9.91253C9.7025 10.687 9.4605 11.652 9.4605 12.807C9.4605 13.5815 9.6235 14.193 9.95 14.6415C10.276 15.0895 10.712 15.314 11.257 15.314C12.046 15.314 12.67 14.9075 13.1295 14.093C13.5885 13.279 13.818 12.201 13.818 10.8595C13.8185 9.45353 13.244 8.75053 12.0965 8.75053Z" fill="url(#paint0_linear_206_10405)"/>
</g>
<defs>
<linearGradient id="paint0_linear_206_10405" x1="3.149" y1="3.05603" x2="17.267" y2="17.174" gradientUnits="userSpaceOnUse">
<stop stop-color="#33BEF0"/>
<stop offset="1" stop-color="#0A85D9"/>
</linearGradient>
</defs>
</svg>
