<svg width="24" height="24" viewBox="0 0 24 24" fill="none" xmlns="http://www.w3.org/2000/svg">
<g id="attach">
<path id="Vector" d="M8.553 21.4971C7.0015 21.4971 5.4495 20.9061 4.269 19.7236C1.918 17.3686 2.0495 13.3901 4.4025 11.0371L11.4655 3.97406C12.2975 3.14206 13.3885 2.58256 14.563 2.50956C15.9125 2.42556 17.1955 2.91256 18.141 3.85906C19.0875 4.80506 19.5745 6.08806 19.4905 7.43706C19.4175 8.61106 18.8575 9.70256 18.026 10.5346L11.09 17.4706C10.531 18.0296 9.8055 18.4181 9.0185 18.4871C8.0485 18.5721 7.1225 18.2331 6.445 17.5551C5.767 16.8776 5.428 15.9516 5.513 14.9816C5.582 14.1946 5.9705 13.4686 6.5295 12.9101L11.364 8.07606C11.4615 7.97856 11.62 7.97856 11.7175 8.07606L12.4245 8.78306C12.522 8.88056 12.522 9.03906 12.4245 9.13656L7.5505 14.0106C7.292 14.2691 7.094 14.5931 7.0295 14.9531C6.9255 15.5311 7.105 16.0941 7.506 16.4951C8.1575 17.1466 9.2925 17.1476 9.9455 16.4951L17.081 9.35956C17.6735 8.76556 18 7.97756 18 7.13906C18 6.30056 17.6735 5.51206 17.0805 4.91956C16.4875 4.32706 15.699 4.00006 14.861 4.00006C14.023 4.00006 13.2345 4.32656 12.6415 4.91956L5.3335 12.2271C3.5585 14.0026 3.5585 16.8911 5.3335 18.6666C7.1095 20.4416 9.998 20.4411 11.773 18.6666L18.861 11.5786C18.9585 11.4811 19.117 11.4811 19.2145 11.5786L19.9215 12.2856C20.019 12.3831 20.019 12.5416 19.9215 12.6391L12.8335 19.7271C11.654 20.9071 10.1035 21.4971 8.553 21.4971Z" fill="url(#paint0_linear_206_10407)"/>
</g>
<defs>
<linearGradient id="paint0_linear_206_10407" x1="6.43055" y1="-0.329767" x2="19.6778" y2="17.5071" gradientUnits="userSpaceOnUse">
<stop stop-color="#FCFCFC"/>
<stop offset="0.95" stop-color="#C3C9CD"/>
</linearGradient>
</defs>
</svg>
