<svg width="24" height="24" viewBox="0 0 24 24" fill="none" xmlns="http://www.w3.org/2000/svg">
<g id="attendance">
<path id="Vector" d="M19.5 8V20.5C19.5 21.0525 19.0525 21.5 18.5 21.5H5.5C4.9475 21.5 4.5 21.0525 4.5 20.5V3.5C4.5 2.9475 4.9475 2.5 5.5 2.5H14L19.5 8Z" fill="url(#paint0_linear_206_10409)"/>
<path id="Vector_2" d="M14 2.5V7C14 7.5525 14.4475 8 15 8H19.5L14 2.5Z" fill="url(#paint1_linear_206_10409)"/>
<path id="Vector_3" d="M13.25 11.5H6.75C6.612 11.5 6.5 11.388 6.5 11.25V10.75C6.5 10.612 6.612 10.5 6.75 10.5H13.25C13.388 10.5 13.5 10.612 13.5 10.75V11.25C13.5 11.388 13.388 11.5 13.25 11.5Z" fill="#057093"/>
<path id="Vector_4" d="M13.25 15.5H6.75C6.612 15.5 6.5 15.388 6.5 15.25V14.75C6.5 14.612 6.612 14.5 6.75 14.5H13.25C13.388 14.5 13.5 14.612 13.5 14.75V15.25C13.5 15.388 13.388 15.5 13.25 15.5Z" fill="#057093"/>
<path id="Vector_5" d="M13.25 19.5H6.75C6.612 19.5 6.5 19.388 6.5 19.25V18.75C6.5 18.612 6.612 18.5 6.75 18.5H13.25C13.388 18.5 13.5 18.612 13.5 18.75V19.25C13.5 19.388 13.388 19.5 13.25 19.5Z" fill="#057093"/>
<path id="Vector_6" d="M15.8 12.05L14.8 11.05C14.7 10.95 14.7 10.8 14.8 10.7L15.15 10.35C15.25 10.25 15.4 10.25 15.5 10.35L15.95 10.8L17.4 9.35002C17.5 9.25002 17.65 9.25002 17.75 9.35002L18.1 9.70002C18.2 9.80002 18.2 9.95002 18.1 10.05L16.1 12.05C16.1 12.15 15.9 12.15 15.8 12.05Z" fill="url(#paint2_linear_206_10409)"/>
<path id="Vector_7" d="M15.8 20.05L14.8 19.05C14.7 18.95 14.7 18.8 14.8 18.7L15.15 18.35C15.25 18.25 15.4 18.25 15.5 18.35L15.95 18.8L17.4 17.35C17.5 17.25 17.65 17.25 17.75 17.35L18.1 17.7C18.2 17.8 18.2 17.95 18.1 18.05L16.1 20.05C16.1 20.15 15.9 20.15 15.8 20.05Z" fill="url(#paint3_linear_206_10409)"/>
<path id="Vector_8" d="M16.95 14.65L17.65 13.95C17.75 13.85 17.75 13.7 17.65 13.6L17.3 13.25C17.2 13.15 17.05 13.15 16.95 13.25L16.25 13.95L15.55 13.25C15.45 13.15 15.3 13.15 15.2 13.25L14.85 13.6C14.75 13.7 14.75 13.85 14.85 13.95L15.55 14.65L14.85 15.35C14.75 15.45 14.75 15.6 14.85 15.7L15.2 16.05C15.3 16.15 15.45 16.15 15.55 16.05L16.25 15.35L16.95 16.05C17.05 16.15 17.2 16.15 17.3 16.05L17.65 15.7C17.75 15.6 17.75 15.45 17.65 15.35L16.95 14.65Z" fill="url(#paint4_linear_206_10409)"/>
</g>
<defs>
<linearGradient id="paint0_linear_206_10409" x1="9.22929" y1="2.79171" x2="19.7783" y2="18.8491" gradientUnits="userSpaceOnUse">
<stop stop-color="#7DD8F3"/>
<stop offset="1" stop-color="#45B0D0"/>
</linearGradient>
<linearGradient id="paint1_linear_206_10409" x1="14.2645" y1="7.7355" x2="16.8" y2="5.2" gradientUnits="userSpaceOnUse">
<stop stop-color="#3079D6"/>
<stop offset="1" stop-color="#297CD2"/>
</linearGradient>
<linearGradient id="paint2_linear_206_10409" x1="15.6199" y1="9.11184" x2="17.5257" y2="11.547" gradientUnits="userSpaceOnUse">
<stop stop-color="#FCFCFC"/>
<stop offset="0.495" stop-color="#F4F4F4"/>
<stop offset="0.946" stop-color="#E8E8E8"/>
<stop offset="1" stop-color="#E8E8E8"/>
</linearGradient>
<linearGradient id="paint3_linear_206_10409" x1="15.6199" y1="17.1118" x2="17.5257" y2="19.547" gradientUnits="userSpaceOnUse">
<stop stop-color="#FCFCFC"/>
<stop offset="0.495" stop-color="#F4F4F4"/>
<stop offset="0.946" stop-color="#E8E8E8"/>
<stop offset="1" stop-color="#E8E8E8"/>
</linearGradient>
<linearGradient id="paint4_linear_206_10409" x1="15.5402" y1="13.0061" x2="17.5695" y2="15.1481" gradientUnits="userSpaceOnUse">
<stop stop-color="#FCFCFC"/>
<stop offset="0.495" stop-color="#F4F4F4"/>
<stop offset="0.946" stop-color="#E8E8E8"/>
<stop offset="1" stop-color="#E8E8E8"/>
</linearGradient>
</defs>
</svg>
