<svg width="24" height="24" viewBox="0 0 24 24" fill="none" xmlns="http://www.w3.org/2000/svg">
<g id="audio">
<path id="Vector" d="M18.884 12C18.884 14.744 17.6155 17.1905 15.6345 18.789L17.217 20.3715C17.3795 20.534 17.645 20.545 17.814 20.389C20.077 18.3035 21.5 15.32 21.5 12C21.5 8.68005 20.077 5.69655 17.814 3.61105C17.645 3.45505 17.3795 3.46605 17.217 3.62855L15.6345 5.21105C17.6155 6.80955 18.884 9.25605 18.884 12Z" fill="#0078D4"/>
<path id="Vector_2" d="M16.0935 12.0001C16.0935 13.9741 15.125 15.7181 13.641 16.7961L15.634 18.7891C17.615 17.1906 18.8835 14.7441 18.8835 12.0001C18.8835 9.25606 17.615 6.80956 15.634 5.21106L13.641 7.20406C15.125 8.28206 16.0935 10.0261 16.0935 12.0001Z" fill="url(#paint0_linear_206_10418)"/>
<path id="Vector_3" d="M16.0935 12C16.0935 10.026 15.125 8.28198 13.641 7.20398L11.623 9.22198C12.621 9.74748 13.3025 10.7935 13.3025 12C13.3025 13.2065 12.621 14.2525 11.623 14.778L13.641 16.796C15.125 15.718 16.0935 13.974 16.0935 12Z" fill="url(#paint1_linear_206_10418)"/>
<path id="Vector_4" d="M8.845 12L11.623 14.778C12.621 14.2525 13.3025 13.2065 13.3025 12C13.3025 10.7935 12.621 9.74755 11.623 9.22205L8.845 12Z" fill="url(#paint2_linear_206_10418)"/>
<path id="Vector_5" d="M6 16H4C3.4475 16 3 15.5525 3 15V9C3 8.4475 3.4475 8 4 8H6V16Z" fill="#5C6369"/>
<path id="Vector_6" d="M10.5 21L6 16V8L10.5 3V21Z" fill="#727D86"/>
<path id="Vector_7" d="M11 2.5C10.724 2.5 10.5 2.724 10.5 3V21C10.5 21.276 10.724 21.5 11 21.5C11.276 21.5 11.5 21.276 11.5 21V3C11.5 2.724 11.276 2.5 11 2.5Z" fill="url(#paint3_linear_206_10418)"/>
</g>
<defs>
<linearGradient id="paint0_linear_206_10418" x1="14.8024" y1="3.1883" x2="23.2881" y2="7.9979" gradientUnits="userSpaceOnUse">
<stop stop-color="#FCFCFC"/>
<stop offset="0.95" stop-color="#C3C9CD"/>
</linearGradient>
<linearGradient id="paint1_linear_206_10418" x1="13.2563" y1="7.6221" x2="16.838" y2="16.8017" gradientUnits="userSpaceOnUse">
<stop stop-color="#32BDEF"/>
<stop offset="1" stop-color="#1EA2E4"/>
</linearGradient>
<linearGradient id="paint2_linear_206_10418" x1="10.2504" y1="9.30735" x2="13.3152" y2="14.0481" gradientUnits="userSpaceOnUse">
<stop stop-color="#7DD8F3"/>
<stop offset="1" stop-color="#45B0D0"/>
</linearGradient>
<linearGradient id="paint3_linear_206_10418" x1="6.2015" y1="5.934" x2="14.4635" y2="16.3785" gradientUnits="userSpaceOnUse">
<stop stop-color="#A1AAB3"/>
<stop offset="1" stop-color="#8F979E"/>
</linearGradient>
</defs>
</svg>
