<svg width="24" height="24" viewBox="0 0 24 24" fill="none" xmlns="http://www.w3.org/2000/svg">
<g id="backend-development">
<path id="Vector" d="M21.7035 9.62145C20.509 9.60695 19.3525 8.98445 18.712 7.87495C18.0955 6.80695 18.108 5.55045 18.631 4.52845C17.5685 3.58495 16.31 2.85895 14.916 2.43445C14.2885 3.37795 13.2175 3.99995 12 3.99995C10.7825 3.99995 9.7115 3.37795 9.0845 2.43445C7.6905 2.85895 6.432 3.58495 5.3695 4.52845C5.8925 5.55045 5.905 6.80695 5.2885 7.87495C4.648 8.98445 3.4915 9.60695 2.297 9.62145C2.11 10.3849 2 11.1789 2 11.9999C2 12.6419 2.0665 13.2674 2.182 13.8759C3.4165 13.8504 4.6275 14.4799 5.2885 15.6249C5.9725 16.8099 5.882 18.2269 5.1785 19.2974C6.2195 20.2709 7.465 21.0254 8.8485 21.4849C9.4135 20.3119 10.6105 19.4999 12 19.4999C13.3895 19.4999 14.5865 20.3119 15.1515 21.4854C16.535 21.0259 17.7805 20.2714 18.8215 19.2979C18.118 18.2274 18.0275 16.8104 18.7115 15.6254C19.3725 14.4804 20.583 13.8509 21.818 13.8764C21.9335 13.2674 22 12.6419 22 11.9999C22 11.1789 21.89 10.3849 21.7035 9.62145Z" fill="url(#paint0_linear_206_10457)"/>
<g id="Group" opacity="0.05">
<path id="Vector_2" d="M9.1115 9.507V10.5745L6.124 11.853V11.88L9.1115 13.082V14.15L4.922 12.239V11.5125L9.1115 9.507ZM9.6115 8.7135L8.8955 9.056L4.706 11.061L4.422 11.197V11.512V12.2385V12.56L4.7145 12.6935L8.904 14.6045L9.6115 14.927V14.15V13.0825V12.7445L9.298 12.6185L7.3955 11.853L9.308 11.0345L9.6115 10.9045V10.5745V9.507V8.7135Z" fill="black"/>
<path id="Vector_3" d="M14.1395 8L11.004 15.5H9.739L12.861 8H14.1395ZM14.8905 7.5H14.1395H12.861H12.5275L12.3995 7.808L9.2775 15.308L8.9895 16H9.739H11.004H11.337L11.4655 15.693L14.601 8.193L14.8905 7.5Z" fill="black"/>
<path id="Vector_4" d="M14.8885 9.46252L19.078 11.454V12.1805L14.8885 14.0915V13.0285L17.885 11.831V11.813L14.8885 10.53V9.46252ZM14.3885 8.67102V9.46252V10.53V10.86L14.6915 10.99L16.599 11.8065L14.703 12.5645L14.3885 12.69V13.0285V14.0915V14.869L15.096 14.5465L19.2855 12.6355L19.578 12.502V12.1805V11.454V11.138L19.2925 11.0025L15.103 9.01102L14.3885 8.67102Z" fill="black"/>
</g>
<g id="Group_2" opacity="0.07">
<path id="Vector_5" d="M9.1115 9.50697V10.5745L6.124 11.853V11.88L9.1115 13.082V14.15L4.922 12.239V11.5125L9.1115 9.50697ZM9.3615 9.11047L9.0035 9.28197L4.814 11.287L4.672 11.355V11.5125V12.239V12.4L4.8185 12.4665L9.008 14.3775L9.3615 14.539V14.15V13.0825V12.9135L9.205 12.8505L6.744 11.86L9.21 10.8045L9.3615 10.7395V10.5745V9.50697V9.11047Z" fill="black"/>
<path id="Vector_6" d="M14.1395 8L11.004 15.5H9.739L12.861 8H14.1395ZM14.515 7.75H14.1395H12.861H12.6945L12.6305 7.904L9.5085 15.404L9.3645 15.75H9.7395H11.0045H11.171L11.235 15.5965L14.3705 8.0965L14.515 7.75Z" fill="black"/>
<path id="Vector_7" d="M14.8885 9.46253L19.078 11.454V12.1805L14.8885 14.0915V13.0285L17.885 11.831V11.813L14.8885 10.53V9.46253ZM14.6385 9.06653V9.46203V10.5295V10.6945L14.79 10.7595L17.253 11.814L14.796 12.796L14.639 12.859V13.0285V14.0915V14.4805L14.9925 14.319L19.182 12.408L19.3285 12.3415V12.1805V11.454V11.296L19.186 11.228L14.9965 9.23653L14.6385 9.06653Z" fill="black"/>
</g>
<path id="Vector_8" d="M9.1115 14.1499L4.922 12.2389V11.5124L9.1115 9.50745V10.5749L6.124 11.8534V11.8804L9.1115 13.0824V14.1499Z" fill="url(#paint1_linear_206_10457)"/>
<path id="Vector_9" d="M14.1395 8L11.004 15.5H9.739L12.861 8H14.1395Z" fill="url(#paint2_linear_206_10457)"/>
<path id="Vector_10" d="M19.078 12.1805L14.8885 14.0915V13.0285L17.885 11.831V11.813L14.8885 10.53V9.46252L19.078 11.454V12.1805Z" fill="url(#paint3_linear_206_10457)"/>
</g>
<defs>
<linearGradient id="paint0_linear_206_10457" x1="2.6635" y1="2.67195" x2="19.0415" y2="19.0494" gradientUnits="userSpaceOnUse">
<stop stop-color="#889097"/>
<stop offset="0.331" stop-color="#848C94"/>
<stop offset="0.669" stop-color="#78828B"/>
<stop offset="1" stop-color="#64717C"/>
</linearGradient>
<linearGradient id="paint1_linear_206_10457" x1="7.017" y1="8.82595" x2="7.017" y2="26.1954" gradientUnits="userSpaceOnUse">
<stop stop-color="white"/>
<stop offset="0.242" stop-color="#F2F2F2"/>
<stop offset="1" stop-color="#CCCCCC"/>
</linearGradient>
<linearGradient id="paint2_linear_206_10457" x1="11.9395" y1="8.826" x2="11.9395" y2="26.1955" gradientUnits="userSpaceOnUse">
<stop stop-color="white"/>
<stop offset="0.242" stop-color="#F2F2F2"/>
<stop offset="1" stop-color="#CCCCCC"/>
</linearGradient>
<linearGradient id="paint3_linear_206_10457" x1="16.983" y1="8.82602" x2="16.983" y2="26.1955" gradientUnits="userSpaceOnUse">
<stop stop-color="white"/>
<stop offset="0.242" stop-color="#F2F2F2"/>
<stop offset="1" stop-color="#CCCCCC"/>
</linearGradient>
</defs>
</svg>
