<svg width="24" height="24" viewBox="0 0 24 24" fill="none" xmlns="http://www.w3.org/2000/svg">
<g id="back">
<path id="Vector" d="M4.79 12.7005L14.2995 22.21C14.6865 22.597 15.3135 22.597 15.7005 22.21L17.71 20.2005C18.097 19.8135 18.097 19.1865 17.71 18.7995L8.2005 9.29001C7.8135 8.90301 7.1865 8.90301 6.7995 9.29001L4.79 11.2995C4.4035 11.6865 4.4035 12.3135 4.79 12.7005Z" fill="url(#paint0_linear_206_10454)"/>
<path id="Vector_2" d="M8.2005 14.71L17.71 5.20051C18.097 4.81351 18.097 4.18651 17.71 3.79951L15.7005 1.79001C15.3135 1.40301 14.6865 1.40301 14.2995 1.79001L4.79 11.2995C4.403 11.6865 4.403 12.3135 4.79 12.7005L6.7995 14.71C7.1865 15.0965 7.8135 15.0965 8.2005 14.71Z" fill="url(#paint1_linear_206_10454)"/>
</g>
<defs>
<linearGradient id="paint0_linear_206_10454" x1="17.227" y1="21.727" x2="8.686" y2="13.186" gradientUnits="userSpaceOnUse">
<stop offset="0.365" stop-color="#199AE0"/>
<stop offset="0.699" stop-color="#1898DE"/>
<stop offset="0.819" stop-color="#1691D8"/>
<stop offset="0.905" stop-color="#1186CC"/>
<stop offset="0.974" stop-color="#0A75BC"/>
<stop offset="1" stop-color="#076CB3"/>
</linearGradient>
<linearGradient id="paint1_linear_206_10454" x1="5.8595" y1="13.6405" x2="16.8575" y2="2.64251" gradientUnits="userSpaceOnUse">
<stop stop-color="#32BDEF"/>
<stop offset="1" stop-color="#1EA2E4"/>
</linearGradient>
</defs>
</svg>
