<svg width="24" height="24" viewBox="0 0 24 24" fill="none" xmlns="http://www.w3.org/2000/svg">
<g id="barcode">
<path id="Vector" d="M6.25 3H7.75C7.888 3 8 3.112 8 3.25V20.75C8 20.888 7.888 21 7.75 21H6.25C6.112 21 6 20.888 6 20.75V3.25C6 3.112 6.112 3 6.25 3ZM9.25 21H9.75C9.888 21 10 20.888 10 20.75V3.25C10 3.112 9.888 3 9.75 3H9.25C9.112 3 9 3.112 9 3.25V20.75C9 20.888 9.112 21 9.25 21ZM3.25 21H4.75C4.888 21 5 20.888 5 20.75V3.25C5 3.112 4.888 3 4.75 3H3.25C3.112 3 3 3.112 3 3.25V20.75C3 20.888 3.112 21 3.25 21ZM11.25 21H14.75C14.888 21 15 20.888 15 20.75V3.25C15 3.112 14.888 3 14.75 3H11.25C11.112 3 11 3.112 11 3.25V20.75C11 20.888 11.112 21 11.25 21ZM19 3.25V20.75C19 20.888 19.112 21 19.25 21H20.75C20.888 21 21 20.888 21 20.75V3.25C21 3.112 20.888 3 20.75 3H19.25C19.112 3 19 3.112 19 3.25ZM16.25 21H17.75C17.888 21 18 20.888 18 20.75V3.25C18 3.112 17.888 3 17.75 3H16.25C16.112 3 16 3.112 16 3.25V20.75C16 20.888 16.112 21 16.25 21Z" fill="url(#paint0_linear_206_10495)"/>
</g>
<defs>
<linearGradient id="paint0_linear_206_10495" x1="9.044" y1="2.422" x2="14.5845" y2="20.373" gradientUnits="userSpaceOnUse">
<stop stop-color="#33BEF0"/>
<stop offset="1" stop-color="#0A85D9"/>
</linearGradient>
</defs>
</svg>
