<svg width="24" height="24" viewBox="0 0 24 24" fill="none" xmlns="http://www.w3.org/2000/svg">
<g id="best-seller">
<path id="Vector" d="M18.533 21.5H15.8665L14.4065 23.32C14.1865 23.5945 13.7535 23.5355 13.6145 23.213L10.7215 16.5H16.9565L18.9565 20.8385C19.099 21.1475 18.8735 21.5 18.533 21.5Z" fill="url(#paint0_linear_206_10497)"/>
<path id="Vector_2" d="M13.8285 16.5L10.8875 23.219C10.747 23.54 10.3155 23.5975 10.0965 23.324L8.6335 21.5H5.967C5.6265 21.5 5.401 21.1475 5.5435 20.8385L7.5435 16.5H13.8285Z" fill="url(#paint1_linear_206_10497)"/>
<path id="Vector_3" d="M12.991 2.259L14.0495 2.8525L15.263 2.8675C15.9685 2.876 16.619 3.2515 16.979 3.8585L17.5985 4.9015L18.6415 5.521C19.248 5.8815 19.6235 6.5315 19.6325 7.237L19.6475 8.4505L20.241 9.509C20.586 10.1245 20.586 10.875 20.241 11.4905L19.6475 12.549L19.6325 13.7625C19.624 14.468 19.2485 15.1185 18.6415 15.4785L17.5985 16.098L16.979 17.141C16.6185 17.7475 15.9685 18.123 15.263 18.132L14.0495 18.147L12.991 18.7405C12.3755 19.0855 11.625 19.0855 11.0095 18.7405L9.951 18.147L8.7375 18.132C8.032 18.1235 7.3815 17.748 7.0215 17.141L6.402 16.098L5.359 15.4785C4.7525 15.118 4.377 14.468 4.368 13.7625L4.353 12.549L3.7595 11.4905C3.4145 10.875 3.4145 10.1245 3.7595 9.509L4.353 8.4505L4.368 7.237C4.3765 6.5315 4.752 5.881 5.359 5.521L6.402 4.9015L7.0215 3.8585C7.382 3.252 8.032 2.8765 8.7375 2.8675L9.951 2.8525L11.0095 2.259C11.6245 1.9135 12.3755 1.9135 12.991 2.259Z" fill="#FDB700"/>
<path id="Vector_4" d="M12 17C15.5899 17 18.5 14.0899 18.5 10.5C18.5 6.91015 15.5899 4 12 4C8.41015 4 5.5 6.91015 5.5 10.5C5.5 14.0899 8.41015 17 12 17Z" fill="url(#paint2_linear_206_10497)"/>
<path id="Vector_5" opacity="0.05" d="M9.6845 13.9449V11.9354H10.884V9.44645L9.652 9.71245V7.64995L13.156 6.94495V11.9354H14.348V13.9449H9.6845Z" fill="black"/>
<path id="Vector_6" opacity="0.07" d="M9.9345 13.695V12.1855H11.134V9.1365L9.902 9.403V7.8545L12.906 7.25V12.1855H14.098V13.695H9.9345Z" fill="black"/>
<path id="Vector_7" d="M13.8485 13.4451H10.185V12.4356H11.384V8.82755L10.152 9.09355V8.05905L12.6565 7.55505V12.4356H13.8485V13.4451Z" fill="white"/>
</g>
<defs>
<linearGradient id="paint0_linear_206_10497" x1="14.8607" y1="16.4853" x2="14.8607" y2="23.4694" gradientUnits="userSpaceOnUse">
<stop stop-color="#2AA4F4"/>
<stop offset="1" stop-color="#007AD9"/>
</linearGradient>
<linearGradient id="paint1_linear_206_10497" x1="9.66429" y1="16.4853" x2="9.66429" y2="23.4733" gradientUnits="userSpaceOnUse">
<stop stop-color="#2AA4F4"/>
<stop offset="1" stop-color="#007AD9"/>
</linearGradient>
<linearGradient id="paint2_linear_206_10497" x1="5.5" y1="10.5" x2="18.5" y2="10.5" gradientUnits="userSpaceOnUse">
<stop stop-color="#FEDE00"/>
<stop offset="1" stop-color="#FFD000"/>
</linearGradient>
</defs>
</svg>
