<svg width="24" height="24" viewBox="0 0 24 24" fill="none" xmlns="http://www.w3.org/2000/svg">
<g id="big-parcel">
<path id="Vector" d="M21 8.5H7.5V3H20.5C20.776 3 21 3.224 21 3.5V8.5Z" fill="url(#paint0_linear_206_10505)"/>
<path id="Vector_2" d="M16 8.5H3.5C3.224 8.5 3 8.276 3 8V3.5C3 3.224 3.224 3 3.5 3H16C16.276 3 16.5 3.224 16.5 3.5V8C16.5 8.276 16.276 8.5 16 8.5Z" fill="url(#paint1_linear_206_10505)"/>
<path id="Vector_3" opacity="0.05" d="M21 7H3V8C3 8.276 3.224 8.5 3.5 8.5H7.5H16H21V7Z" fill="black"/>
<path id="Vector_4" opacity="0.07" d="M21 7.25H3V8C3 8.276 3.224 8.5 3.5 8.5H7.5H16H21V7.25Z" fill="black"/>
<path id="Vector_5" d="M21 21H15.5V7.5H21.5C21.776 7.5 22 7.724 22 8V20C22 20.5525 21.5525 21 21 21Z" fill="url(#paint2_linear_206_10505)"/>
<path id="Vector_6" d="M15.5 21H3C2.4475 21 2 20.5525 2 20V8C2 7.724 2.224 7.5 2.5 7.5H16.5V20C16.5 20.5525 16.0525 21 15.5 21Z" fill="url(#paint3_linear_206_10505)"/>
<path id="Vector_7" d="M16.5 7.5H2.309C2.1195 7.5 1.9465 7.607 1.862 7.7765L0.680998 10.1385C0.597998 10.3045 0.718498 10.5 0.904498 10.5H14.691C14.8805 10.5 15.0535 10.393 15.138 10.2235L16.5 7.5Z" fill="url(#paint4_linear_206_10505)"/>
<path id="Vector_8" d="M16.5 7.5H21.691C21.8805 7.5 22.0535 7.607 22.138 7.7765L23.319 10.1385C23.402 10.3045 23.2815 10.5 23.0955 10.5H18.309C18.1195 10.5 17.9465 10.393 17.862 10.2235L16.5 7.5Z" fill="url(#paint5_linear_206_10505)"/>
</g>
<defs>
<linearGradient id="paint0_linear_206_10505" x1="12.2615" y1="3.9135" x2="19.836" y2="11.4665" gradientUnits="userSpaceOnUse">
<stop stop-color="#C26715"/>
<stop offset="0.508" stop-color="#B85515"/>
<stop offset="1" stop-color="#AD3F16"/>
</linearGradient>
<linearGradient id="paint1_linear_206_10505" x1="3.646" y1="0.99" x2="13.9865" y2="9.0535" gradientUnits="userSpaceOnUse">
<stop stop-color="#EBA84B"/>
<stop offset="1" stop-color="#D97218"/>
</linearGradient>
<linearGradient id="paint2_linear_206_10505" x1="13.767" y1="9.268" x2="23.225" y2="19.0065" gradientUnits="userSpaceOnUse">
<stop stop-color="#EBA600"/>
<stop offset="1" stop-color="#C28200"/>
</linearGradient>
<linearGradient id="paint3_linear_206_10505" x1="2.709" y1="7.2175" x2="15.845" y2="20.7435" gradientUnits="userSpaceOnUse">
<stop stop-color="#FFD869"/>
<stop offset="1" stop-color="#FEC52B"/>
</linearGradient>
<linearGradient id="paint4_linear_206_10505" x1="8.577" y1="10.37" x2="8.577" y2="-5.4855" gradientUnits="userSpaceOnUse">
<stop stop-color="#EBA600"/>
<stop offset="1" stop-color="#C28200"/>
</linearGradient>
<linearGradient id="paint5_linear_206_10505" x1="19.923" y1="10.3645" x2="19.923" y2="8.286" gradientUnits="userSpaceOnUse">
<stop stop-color="#FFD869"/>
<stop offset="1" stop-color="#FEC52B"/>
</linearGradient>
</defs>
</svg>
