<svg width="24" height="24" viewBox="0 0 24 24" fill="none" xmlns="http://www.w3.org/2000/svg">
<g id="bmi">
<path id="Vector" d="M20 21H4C3.4475 21 3 20.5525 3 20V4C3 3.4475 3.4475 3 4 3H20C20.5525 3 21 3.4475 21 4V20C21 20.5525 20.5525 21 20 21Z" fill="url(#paint0_linear_206_10551)"/>
<path id="Vector_2" d="M18.985 6.36497C18.79 7.36997 18.07 8.94997 17.745 9.83997C17.6 10.235 17.225 10.5 16.81 10.5H7.19C6.775 10.5 6.4 10.235 6.255 9.83997C5.93 8.94997 5.21 7.36997 5.015 6.36497C4.91 5.83497 5.23 5.31997 5.75 5.18997C6.26 5.05997 6.805 4.94997 7.37 4.85997C7.7 4.79997 8.035 4.75497 8.38 4.71497C9.38 4.58997 10.44 4.51997 11.5 4.50497C11.835 4.49997 12.165 4.49997 12.5 4.50497C13.56 4.51997 14.62 4.58997 15.62 4.71497C15.965 4.75497 16.3 4.79997 16.63 4.85997C17.195 4.94997 17.74 5.05997 18.25 5.18997C18.77 5.31997 19.09 5.83497 18.985 6.36497Z" fill="url(#paint1_linear_206_10551)"/>
<path id="Vector_3" opacity="0.05" d="M6.5 14C5.95 14 5.5 14.45 5.5 15V17C5.5 17.55 5.95 18 6.5 18H20.75C20.835 18 20.92 17.99 21 17.965V17.43C20.925 17.475 20.84 17.5 20.75 17.5H6.5C6.225 17.5 6 17.275 6 17V15C6 14.725 6.225 14.5 6.5 14.5H21V14H6.5Z" fill="black"/>
<path id="Vector_4" opacity="0.07" d="M6.5 14.5H21V14.25H6.5C6.085 14.25 5.75 14.585 5.75 15V17C5.75 17.415 6.085 17.75 6.5 17.75H20.75C20.835 17.75 20.92 17.735 21 17.71V17.43C20.925 17.475 20.84 17.5 20.75 17.5H6.5C6.225 17.5 6 17.275 6 17V15C6 14.725 6.225 14.5 6.5 14.5Z" fill="black"/>
<path id="Vector_5" d="M21.5 15.25L21.2245 17.158C21.1565 17.3625 20.965 17.5 20.75 17.5H6.5C6.225 17.5 6 17.275 6 17V15C6 14.725 6.225 14.5 6.5 14.5H21C21.3415 14.5 21.608 14.926 21.5 15.25Z" fill="url(#paint2_linear_206_10551)"/>
<path id="Vector_6" d="M8 14.5V17.5H6.5C6.225 17.5 6 17.275 6 17V15C6 14.725 6.225 14.5 6.5 14.5H8Z" fill="#CCCCCC"/>
<path id="Vector_7" d="M9.5 16.5C9.224 16.5 9 16.276 9 16V14.5H10V16C10 16.276 9.776 16.5 9.5 16.5Z" fill="url(#paint3_linear_206_10551)"/>
<path id="Vector_8" d="M11.5 15.5C11.224 15.5 11 15.276 11 15V14.5H12V15C12 15.276 11.776 15.5 11.5 15.5Z" fill="url(#paint4_linear_206_10551)"/>
<path id="Vector_9" d="M13.5 16.5C13.224 16.5 13 16.276 13 16V14.5H14V16C14 16.276 13.776 16.5 13.5 16.5Z" fill="url(#paint5_linear_206_10551)"/>
<path id="Vector_10" d="M15.5 15.5C15.224 15.5 15 15.276 15 15V14.5H16V15C16 15.276 15.776 15.5 15.5 15.5Z" fill="url(#paint6_linear_206_10551)"/>
<path id="Vector_11" d="M17.5 16.5C17.224 16.5 17 16.276 17 16V14.5H18V16C18 16.276 17.776 16.5 17.5 16.5Z" fill="url(#paint7_linear_206_10551)"/>
<path id="Vector_12" d="M19.5 15.5C19.224 15.5 19 15.276 19 15V14.5H20V15C20 15.276 19.776 15.5 19.5 15.5Z" fill="url(#paint8_linear_206_10551)"/>
<path id="Vector_13" d="M12.5 4.50497V5.99997C12.5 6.27497 12.275 6.49997 12 6.49997C11.725 6.49997 11.5 6.27497 11.5 5.99997V4.50497C11.835 4.49997 12.165 4.49997 12.5 4.50497Z" fill="url(#paint9_linear_206_10551)"/>
<path id="Vector_14" d="M8.67 6.96997C8.41 7.06497 8.125 6.92997 8.03 6.66997L7.37 4.85997C7.7 4.79997 8.035 4.75497 8.38 4.71497L8.97 6.32997C9.065 6.58997 8.93 6.87497 8.67 6.96997Z" fill="url(#paint10_linear_206_10551)"/>
<path id="Vector_15" d="M16.63 4.85997L15.97 6.66997C15.875 6.92997 15.59 7.06497 15.33 6.96997C15.07 6.87497 14.935 6.58997 15.03 6.32997L15.62 4.71497C15.965 4.75497 16.3 4.79997 16.63 4.85997Z" fill="url(#paint11_linear_206_10551)"/>
<path id="Vector_16" d="M11.5 7.833L11 10.5H13L12.419 7.833C12.246 7.389 11.673 7.389 11.5 7.833Z" fill="url(#paint12_linear_206_10551)"/>
</g>
<defs>
<linearGradient id="paint0_linear_206_10551" x1="12" y1="1.2355" x2="12" y2="25.435" gradientUnits="userSpaceOnUse">
<stop stop-color="#2AA4F4"/>
<stop offset="1" stop-color="#007AD9"/>
</linearGradient>
<linearGradient id="paint1_linear_206_10551" x1="12" y1="3.57347" x2="12" y2="12.794" gradientUnits="userSpaceOnUse">
<stop stop-color="#F9F9F9"/>
<stop offset="0.26" stop-color="#F0F1F2"/>
<stop offset="0.678" stop-color="#D9DCDF"/>
<stop offset="1" stop-color="#C2C8CC"/>
</linearGradient>
<linearGradient id="paint2_linear_206_10551" x1="6" y1="16" x2="21.5245" y2="16" gradientUnits="userSpaceOnUse">
<stop stop-color="#FEDE00"/>
<stop offset="1" stop-color="#FFD000"/>
</linearGradient>
<linearGradient id="paint3_linear_206_10551" x1="9.09639" y1="14.5756" x2="10.3066" y2="14.9518" gradientUnits="userSpaceOnUse">
<stop stop-color="#A1AAB3"/>
<stop offset="1" stop-color="#8F979E"/>
</linearGradient>
<linearGradient id="paint4_linear_206_10551" x1="11.0964" y1="14.5378" x2="12.0536" y2="15.1329" gradientUnits="userSpaceOnUse">
<stop stop-color="#A1AAB3"/>
<stop offset="1" stop-color="#8F979E"/>
</linearGradient>
<linearGradient id="paint5_linear_206_10551" x1="13.0964" y1="14.5756" x2="14.3066" y2="14.9518" gradientUnits="userSpaceOnUse">
<stop stop-color="#A1AAB3"/>
<stop offset="1" stop-color="#8F979E"/>
</linearGradient>
<linearGradient id="paint6_linear_206_10551" x1="15.0964" y1="14.5378" x2="16.0536" y2="15.1329" gradientUnits="userSpaceOnUse">
<stop stop-color="#A1AAB3"/>
<stop offset="1" stop-color="#8F979E"/>
</linearGradient>
<linearGradient id="paint7_linear_206_10551" x1="17.0964" y1="14.5756" x2="18.3066" y2="14.9518" gradientUnits="userSpaceOnUse">
<stop stop-color="#A1AAB3"/>
<stop offset="1" stop-color="#8F979E"/>
</linearGradient>
<linearGradient id="paint8_linear_206_10551" x1="19.0964" y1="14.5378" x2="20.0536" y2="15.1329" gradientUnits="userSpaceOnUse">
<stop stop-color="#A1AAB3"/>
<stop offset="1" stop-color="#8F979E"/>
</linearGradient>
<linearGradient id="paint9_linear_206_10551" x1="11.5964" y1="4.57682" x2="12.8065" y2="4.95321" gradientUnits="userSpaceOnUse">
<stop stop-color="#A1AAB3"/>
<stop offset="1" stop-color="#8F979E"/>
</linearGradient>
<linearGradient id="paint10_linear_206_10551" x1="7.52716" y1="4.8014" x2="9.33528" y2="5.60335" gradientUnits="userSpaceOnUse">
<stop stop-color="#A1AAB3"/>
<stop offset="1" stop-color="#8F979E"/>
</linearGradient>
<linearGradient id="paint11_linear_206_10551" x1="15.1567" y1="4.8014" x2="16.9648" y2="5.60335" gradientUnits="userSpaceOnUse">
<stop stop-color="#A1AAB3"/>
<stop offset="1" stop-color="#8F979E"/>
</linearGradient>
<linearGradient id="paint12_linear_206_10551" x1="11.1928" y1="7.61346" x2="13.4579" y2="8.55231" gradientUnits="userSpaceOnUse">
<stop stop-color="#A1AAB3"/>
<stop offset="1" stop-color="#8F979E"/>
</linearGradient>
</defs>
</svg>
