<svg width="24" height="24" viewBox="0 0 24 24" fill="none" xmlns="http://www.w3.org/2000/svg">
<g id="bold">
<path id="Vector" d="M5 21.5V2.5C5 2.224 5.224 2 5.5 2H12.2705C14.499 2 16.212 2.409 17.41 3.2275C18.6075 4.0455 19.2065 5.1985 19.2065 6.6865C19.2065 7.765 18.842 8.709 18.1135 9.5175C17.3845 10.327 16.4535 10.889 15.3205 11.2055V11.2615C16.7415 11.438 17.8765 11.9635 18.726 12.838C19.5755 13.711 20 14.7755 20 16.0305C20 17.862 19.3455 19.315 18.0365 20.389C16.727 21.463 14.9395 22 12.6745 22H5.5C5.224 22 5 21.776 5 21.5ZM9.499 5.3195V10.0615H11.4765C12.405 10.0615 13.136 9.8365 13.6705 9.385C14.205 8.9335 14.4715 8.3135 14.4715 7.523C14.4715 6.054 13.376 5.3195 11.1845 5.3195H9.499ZM9.499 13.4085V18.6805H11.936C12.976 18.6805 13.7905 18.439 14.3805 17.9555C14.97 17.472 15.2645 16.812 15.2645 15.975C15.2645 15.1755 14.974 14.548 14.394 14.092C13.814 13.637 13.0035 13.409 11.9635 13.409H9.499V13.4085Z" fill="url(#paint0_linear_206_10591)"/>
</g>
<defs>
<linearGradient id="paint0_linear_206_10591" x1="12.5" y1="1.95805" x2="12.5" y2="21.9278" gradientUnits="userSpaceOnUse">
<stop stop-color="#2AA4F4"/>
<stop offset="1" stop-color="#007AD9"/>
</linearGradient>
</defs>
</svg>
