<svg width="24" height="24" viewBox="0 0 24 24" fill="none" xmlns="http://www.w3.org/2000/svg">
<g id="box-important">
<path id="Vector" d="M22 12C22 17.5225 17.5225 22 12 22C6.4775 22 2 17.5225 2 12C2 6.4775 6.4775 2 12 2C17.5225 2 22 6.4775 22 12Z" fill="url(#paint0_linear_206_10611)"/>
<path id="Vector_2" d="M12.007 17C11.641 17 11.339 16.889 11.101 16.667C10.863 16.445 10.744 16.1765 10.744 15.8605C10.744 15.531 10.864 15.261 11.1045 15.0505C11.3445 14.84 11.6455 14.735 12.007 14.735C12.373 14.735 12.673 14.8415 12.906 15.054C13.1395 15.267 13.256 15.5355 13.256 15.8605C13.256 16.19 13.1405 16.462 12.9095 16.677C12.6785 16.892 12.3775 17 12.007 17ZM13.118 7.3605L12.8775 13.448C12.87 13.634 12.717 13.781 12.531 13.781H11.4415C11.255 13.781 11.102 13.6335 11.095 13.447L10.8675 7.36C10.86 7.1635 11.0175 7 11.214 7H12.772C12.9685 7 13.126 7.1635 13.118 7.3605Z" fill="url(#paint1_radial_206_10611)"/>
</g>
<defs>
<linearGradient id="paint0_linear_206_10611" x1="4.929" y1="4.929" x2="19.071" y2="19.071" gradientUnits="userSpaceOnUse">
<stop stop-color="#FFDA1C"/>
<stop offset="1" stop-color="#FEB705"/>
</linearGradient>
<radialGradient id="paint1_radial_206_10611" cx="0" cy="0" r="1" gradientUnits="userSpaceOnUse" gradientTransform="translate(9.0945 6.8905) scale(11.1815 11.1815)">
<stop stop-color="#4B4B4B"/>
<stop offset="0.531" stop-color="#393939"/>
<stop offset="1" stop-color="#252525"/>
</radialGradient>
</defs>
</svg>
