<svg width="24" height="24" viewBox="0 0 24 24" fill="none" xmlns="http://www.w3.org/2000/svg">
<g id="browse-podcasts">
<path id="Vector" d="M12 19.5C16.9706 19.5 21 15.4706 21 10.5C21 5.52944 16.9706 1.5 12 1.5C7.02944 1.5 3 5.52944 3 10.5C3 15.4706 7.02944 19.5 12 19.5Z" fill="url(#paint0_linear_206_10642)"/>
<path id="Vector_2" d="M12 16.5C15.3137 16.5 18 13.8137 18 10.5C18 7.18629 15.3137 4.5 12 4.5C8.68629 4.5 6 7.18629 6 10.5C6 13.8137 8.68629 16.5 12 16.5Z" fill="url(#paint1_linear_206_10642)"/>
<path id="Vector_3" d="M12 12.5C13.1046 12.5 14 11.6046 14 10.5C14 9.39543 13.1046 8.5 12 8.5C10.8954 8.5 10 9.39543 10 10.5C10 11.6046 10.8954 12.5 12 12.5Z" fill="url(#paint2_linear_206_10642)"/>
<path id="Vector_4" d="M12 22.5C11.146 22.5 10.4285 21.858 10.3345 21.009L9.776 15.9845C9.629 14.659 10.6665 13.5 12 13.5C13.3335 13.5 14.371 14.659 14.224 15.9845L13.6655 21.009C13.5715 21.858 12.854 22.5 12 22.5Z" fill="url(#paint3_linear_206_10642)"/>
</g>
<defs>
<linearGradient id="paint0_linear_206_10642" x1="8.67514" y1="1.77635" x2="17.5759" y2="18.9377" gradientUnits="userSpaceOnUse">
<stop stop-color="#7DD8F3"/>
<stop offset="1" stop-color="#45B0D0"/>
</linearGradient>
<linearGradient id="paint1_linear_206_10642" x1="8.6585" y1="2.71232" x2="16.7928" y2="14.6533" gradientUnits="userSpaceOnUse">
<stop stop-color="#FCFCFC"/>
<stop offset="0.95" stop-color="#C3C9CD"/>
</linearGradient>
<linearGradient id="paint2_linear_206_10642" x1="12" y1="8.5115" x2="12" y2="26.1025" gradientUnits="userSpaceOnUse">
<stop stop-color="#0D61A9"/>
<stop offset="1" stop-color="#16528C"/>
</linearGradient>
<linearGradient id="paint3_linear_206_10642" x1="12" y1="8.5115" x2="12" y2="26.1025" gradientUnits="userSpaceOnUse">
<stop stop-color="#0D61A9"/>
<stop offset="1" stop-color="#16528C"/>
</linearGradient>
</defs>
</svg>
