<svg width="24" height="24" viewBox="0 0 24 24" fill="none" xmlns="http://www.w3.org/2000/svg">
<g id="browse-folder">
<path id="Vector" d="M12.207 5.207L10.939 3.939C10.658 3.658 10.2765 3.5 9.8785 3.5H2.5C1.9475 3.5 1.5 3.9475 1.5 4.5V19.5C1.5 20.0525 1.9475 20.5 2.5 20.5H21.5C22.0525 20.5 22.5 20.0525 22.5 19.5V6.5C22.5 5.9475 22.0525 5.5 21.5 5.5H12.914C12.649 5.5 12.3945 5.3945 12.207 5.207Z" fill="url(#paint0_linear_206_10630)"/>
<path id="Vector_2" d="M10.793 7.207L12.427 5.573C12.4735 5.5265 12.537 5.5 12.6035 5.5H21.5C22.0525 5.5 22.5 5.9475 22.5 6.5V19.5C22.5 20.0525 22.0525 20.5 21.5 20.5H2.5C1.9475 20.5 1.5 20.0525 1.5 19.5V7.75C1.5 7.612 1.612 7.5 1.75 7.5H10.086C10.351 7.5 10.6055 7.3945 10.793 7.207Z" fill="url(#paint1_linear_206_10630)"/>
<path id="Vector_3" d="M14.292 15.908L13.408 16.792L15.5795 18.9635C15.6285 19.0125 15.7075 19.0125 15.7565 18.9635L16.4635 18.2565C16.5125 18.2075 16.5125 18.1285 16.4635 18.0795L14.292 15.908Z" fill="url(#paint2_linear_206_10630)"/>
<path id="Vector_4" d="M12.9 14.5165L12.0165 15.4L13.408 16.792L14.292 15.908L12.9 14.5165Z" fill="url(#paint3_radial_206_10630)"/>
<path id="Vector_5" d="M10.75 17C12.8211 17 14.5 15.3211 14.5 13.25C14.5 11.1789 12.8211 9.5 10.75 9.5C8.67893 9.5 7 11.1789 7 13.25C7 15.3211 8.67893 17 10.75 17Z" fill="url(#paint4_linear_206_10630)"/>
</g>
<defs>
<linearGradient id="paint0_linear_206_10630" x1="12" y1="3.354" x2="12" y2="7.4885" gradientUnits="userSpaceOnUse">
<stop stop-color="#EBA600"/>
<stop offset="1" stop-color="#C28200"/>
</linearGradient>
<linearGradient id="paint1_linear_206_10630" x1="12" y1="5.427" x2="12" y2="20.4915" gradientUnits="userSpaceOnUse">
<stop stop-color="#FFD869"/>
<stop offset="1" stop-color="#FEC52B"/>
</linearGradient>
<linearGradient id="paint2_linear_206_10630" x1="14.9541" y1="15.9015" x2="14.9541" y2="18.989" gradientUnits="userSpaceOnUse">
<stop stop-color="#2AA4F4"/>
<stop offset="1" stop-color="#007AD9"/>
</linearGradient>
<radialGradient id="paint3_radial_206_10630" cx="0" cy="0" r="1" gradientUnits="userSpaceOnUse" gradientTransform="translate(9.7055 12.226) scale(5.634)">
<stop offset="0.693" stop-color="#006185"/>
<stop offset="0.921" stop-color="#35C1F1"/>
</radialGradient>
<linearGradient id="paint4_linear_206_10630" x1="8.151" y1="10.651" x2="13.4075" y2="15.9075" gradientUnits="userSpaceOnUse">
<stop stop-color="#80DAFA"/>
<stop offset="1" stop-color="#0A85D9"/>
</linearGradient>
</defs>
</svg>
