<svg width="24" height="24" viewBox="0 0 24 24" fill="none" xmlns="http://www.w3.org/2000/svg">
<g id="bullet-list">
<path id="Vector" d="M2 19V6H22V19C22 19.55 21.55 20 21 20H3C2.45 20 2 19.55 2 19Z" fill="url(#paint0_linear_206_10647)"/>
<path id="Vector_2" d="M19.25 12.5H7.75C7.612 12.5 7.5 12.388 7.5 12.25V11.75C7.5 11.612 7.612 11.5 7.75 11.5H19.25C19.388 11.5 19.5 11.612 19.5 11.75V12.25C19.5 12.388 19.388 12.5 19.25 12.5Z" fill="#0D86AD"/>
<path id="Vector_3" d="M19.25 15H7.75C7.612 15 7.5 14.888 7.5 14.75V14.25C7.5 14.112 7.612 14 7.75 14H19.25C19.388 14 19.5 14.112 19.5 14.25V14.75C19.5 14.888 19.388 15 19.25 15Z" fill="#0D86AD"/>
<path id="Vector_4" d="M19.25 17.5H7.75C7.612 17.5 7.5 17.388 7.5 17.25V16.75C7.5 16.612 7.612 16.5 7.75 16.5H19.25C19.388 16.5 19.5 16.612 19.5 16.75V17.25C19.5 17.388 19.388 17.5 19.25 17.5Z" fill="#0D86AD"/>
<path id="Vector_5" d="M22 5V6.5H2V5C2 4.45 2.45 4 3 4H21C21.55 4 22 4.45 22 5Z" fill="url(#paint1_linear_206_10647)"/>
<path id="Vector_6" d="M4.75 12.5H5.25C5.388 12.5 5.5 12.388 5.5 12.25V11.75C5.5 11.612 5.388 11.5 5.25 11.5H4.75C4.612 11.5 4.5 11.612 4.5 11.75V12.25C4.5 12.388 4.612 12.5 4.75 12.5Z" fill="#0D86AD"/>
<path id="Vector_7" d="M4.75 15H5.25C5.388 15 5.5 14.888 5.5 14.75V14.25C5.5 14.112 5.388 14 5.25 14H4.75C4.612 14 4.5 14.112 4.5 14.25V14.75C4.5 14.888 4.612 15 4.75 15Z" fill="#0D86AD"/>
<path id="Vector_8" d="M4.75 17.5H5.25C5.388 17.5 5.5 17.388 5.5 17.25V16.75C5.5 16.612 5.388 16.5 5.25 16.5H4.75C4.612 16.5 4.5 16.612 4.5 16.75V17.25C4.5 17.388 4.612 17.5 4.75 17.5Z" fill="#0D86AD"/>
<path id="Vector_9" d="M19.25 10H4.75C4.612 10 4.5 9.888 4.5 9.75V8.75C4.5 8.612 4.612 8.5 4.75 8.5H19.25C19.388 8.5 19.5 8.612 19.5 8.75V9.75C19.5 9.888 19.388 10 19.25 10Z" fill="#0D86AD"/>
</g>
<defs>
<linearGradient id="paint0_linear_206_10647" x1="6.432" y1="4.6005" x2="16.036" y2="18.493" gradientUnits="userSpaceOnUse">
<stop stop-color="#7DD8F3"/>
<stop offset="1" stop-color="#45B0D0"/>
</linearGradient>
<linearGradient id="paint1_linear_206_10647" x1="2.404" y1="3.39" x2="21.375" y2="7.2475" gradientUnits="userSpaceOnUse">
<stop stop-color="#0077D2"/>
<stop offset="1" stop-color="#0B59A2"/>
</linearGradient>
</defs>
</svg>
