<svg width="24" height="24" viewBox="0 0 24 24" fill="none" xmlns="http://www.w3.org/2000/svg">
<g id="businesswoman">
<path id="Vector" d="M12 4.5C6.852 4.5 5.575 12.8125 5.575 12.8125C5.575 14.2925 6.2625 15.589 7.7015 15.9325C8.9345 16.227 10.486 16.5 12 16.5C13.514 16.5 15.0655 16.227 16.298 15.933C17.7375 15.5895 18.4245 14.2925 18.4245 12.813C18.425 12.8125 17.148 4.5 12 4.5Z" fill="url(#paint0_radial_206_10657)"/>
<path id="Vector_2" d="M12 15.2855C7.5815 15.2855 4 17.746 4 20.4285V21C4 21.5525 4.4475 22 5 22H19C19.5525 22 20 21.5525 20 21V20.4285C20 17.746 16.4185 15.2855 12 15.2855Z" fill="url(#paint1_linear_206_10657)"/>
<path id="Vector_3" d="M14.25 18C14.9404 18 15.5 17.4404 15.5 16.75C15.5 16.0596 14.9404 15.5 14.25 15.5C13.5596 15.5 13 16.0596 13 16.75C13 17.4404 13.5596 18 14.25 18Z" fill="#9AAAB8"/>
<path id="Vector_4" d="M15.5 19C15.5 21.143 12 22 12 22C12 22 12 19.54 12 19C12 18.1715 13.1715 17.5 14 17.5C14.8285 17.5 15.5 18.1715 15.5 19Z" fill="#9AAAB8"/>
<path id="Vector_5" d="M9.75 18C10.4404 18 11 17.4404 11 16.75C11 16.0596 10.4404 15.5 9.75 15.5C9.05964 15.5 8.5 16.0596 8.5 16.75C8.5 17.4404 9.05964 18 9.75 18Z" fill="#9AAAB8"/>
<path id="Vector_6" d="M8.5 19C8.5 21.143 12 22 12 22C12 22 12 19.54 12 19C12 18.1715 10.8285 17.5 10 17.5C9.1715 17.5 8.5 18.1715 8.5 19Z" fill="#9AAAB8"/>
<path id="Vector_7" d="M14.5 15.0395C14.5 18.9955 12 21 12 21C12 21 9.5 18.9955 9.5 15.0395C9.5 13.721 9.5 13 9.5 13H14.5C14.5 13 14.5 13.721 14.5 15.0395Z" fill="white"/>
<path id="Vector_8" d="M14.5 15.0395C14.5 18.9955 12 21 12 21C12 21 9.5 18.9955 9.5 15.0395C9.5 13.721 9.5 13 9.5 13H14.5C14.5 13 14.5 13.721 14.5 15.0395Z" fill="white"/>
<path id="Vector_9" d="M14.5 15.5C14.5 16.4485 12 18.5 12 18.5C12 18.5 9.5 16.4485 9.5 15.5C9.5 14.1815 9.5 11.9825 9.5 11.9825H14.5C14.5 11.9825 14.5 14.1815 14.5 15.5Z" fill="#D6A121"/>
<path id="Vector_10" d="M12 4.03552C13.974 4.03552 16 4.38202 16 8.89652C16 9.25802 16 11.7645 16 12.1505C16 13.763 13.5505 16 12 16C10.4495 16 8 13.763 8 12.151C8 11.765 8 9.25852 8 8.89702C8 4.50002 10.026 4.03552 12 4.03552Z" fill="url(#paint2_radial_206_10657)"/>
<path id="Vector_11" d="M12 2.5C9.406 2.5 9 4 9 4C7.9455 4.1555 5.5 4.5 5.5 12.739C5.5 14.6395 6.4515 15.3375 6.8 15.5405C5.5 8.3585 10.288 9.518 9.5 5C11.523 10.9065 17.6465 5.027 17.4355 15.367C18.0385 14.9085 18.5 13.9885 18.5 12.739C18.5 5.836 15.6995 2.5 12 2.5Z" fill="url(#paint3_radial_206_10657)"/>
</g>
<defs>
<radialGradient id="paint0_radial_206_10657" cx="0" cy="0" r="1" gradientUnits="userSpaceOnUse" gradientTransform="translate(11.877 10.7025) scale(6.855)">
<stop offset="0.376" stop-color="#261103"/>
<stop offset="0.68" stop-color="#431D06"/>
<stop offset="1" stop-color="#662C09"/>
</radialGradient>
<linearGradient id="paint1_linear_206_10657" x1="10.383" y1="15.004" x2="12.525" y2="22.373" gradientUnits="userSpaceOnUse">
<stop stop-color="#8795A1"/>
<stop offset="1" stop-color="#6D7882"/>
</linearGradient>
<radialGradient id="paint2_radial_206_10657" cx="0" cy="0" r="1" gradientUnits="userSpaceOnUse" gradientTransform="translate(11.9993 10.0178) rotate(180) scale(4.89735 5.182)">
<stop stop-color="#FFCF54"/>
<stop offset="0.261" stop-color="#FDCB4D"/>
<stop offset="0.639" stop-color="#F7C13A"/>
<stop offset="1" stop-color="#F0B421"/>
</radialGradient>
<radialGradient id="paint3_radial_206_10657" cx="0" cy="0" r="1" gradientUnits="userSpaceOnUse" gradientTransform="translate(8.442 2.737) scale(16.171)">
<stop stop-color="#C26715"/>
<stop offset="0.508" stop-color="#B85515"/>
<stop offset="1" stop-color="#AD3F16"/>
</radialGradient>
</defs>
</svg>
