<svg width="24" height="24" viewBox="0 0 24 24" fill="none" xmlns="http://www.w3.org/2000/svg">
<g id="calendar-1">
<path id="Vector" d="M3 20V6H21V20C21 20.55 20.55 21 20 21H4C3.45 21 3 20.55 3 20Z" fill="url(#paint0_linear_206_10681)"/>
<path id="Vector_2" opacity="0.05" d="M13.2725 9.05103H12.205C12.096 9.05103 11.9885 9.08753 11.9025 9.15303C11.599 9.38403 11.2535 9.60003 10.8755 9.79403C10.499 9.98753 10.092 10.1485 9.6665 10.2735C9.455 10.3355 9.307 10.533 9.307 10.753V12.24C9.307 12.383 9.3685 12.5195 9.4755 12.6145C9.5875 12.713 9.7345 12.755 9.8655 12.7365C10.042 12.7155 10.2255 12.6805 10.4105 12.631C10.591 12.583 10.7685 12.523 10.9365 12.4535C10.9615 12.443 10.987 12.4325 11.012 12.422V17.7475C11.012 18.0235 11.2365 18.2475 11.512 18.2475H13.273C13.5485 18.2475 13.773 18.0235 13.773 17.7475V9.55103C13.7725 9.27553 13.5485 9.05103 13.2725 9.05103Z" fill="black"/>
<path id="Vector_3" opacity="0.07" d="M13.2725 9.30103H12.205C12.1505 9.30103 12.097 9.31903 12.0535 9.35253C11.7375 9.59253 11.3795 9.81603 10.9895 10.0165C10.6 10.2165 10.178 10.384 9.7365 10.5135C9.63 10.545 9.557 10.6425 9.557 10.753V12.24C9.557 12.3115 9.5875 12.3795 9.641 12.427C9.694 12.474 9.764 12.4995 9.8365 12.488C10.004 12.4685 10.176 12.435 10.3465 12.3895C10.5155 12.3445 10.6825 12.2885 10.8415 12.2225C10.9895 12.1615 11.131 12.093 11.2625 12.019V17.7475C11.2625 17.8855 11.3745 17.9975 11.5125 17.9975H13.2735C13.4115 17.9975 13.5235 17.8855 13.5235 17.7475V9.55103C13.5225 9.41303 13.411 9.30103 13.2725 9.30103Z" fill="black"/>
<path id="Vector_4" d="M21 4V7H3V4C3 3.45 3.45 3 4 3H20C20.55 3 21 3.45 21 4Z" fill="url(#paint1_linear_206_10681)"/>
<path id="Vector_5" opacity="0.05" d="M17.75 6.25C16.9215 6.25 16.25 5.5785 16.25 4.75V3H19.25V4.75C19.25 5.5785 18.5785 6.25 17.75 6.25Z" fill="black"/>
<path id="Vector_6" opacity="0.07" d="M17.75 5.875C17.1285 5.875 16.625 5.3715 16.625 4.75V3H18.875V4.75C18.875 5.3715 18.3715 5.875 17.75 5.875Z" fill="black"/>
<path id="Vector_7" opacity="0.05" d="M6.25 6.25C5.4215 6.25 4.75 5.5785 4.75 4.75V3H7.75V4.75C7.75 5.5785 7.0785 6.25 6.25 6.25Z" fill="black"/>
<path id="Vector_8" opacity="0.07" d="M6.25 5.875C5.6285 5.875 5.125 5.3715 5.125 4.75V3H7.375V4.75C7.375 5.3715 6.8715 5.875 6.25 5.875Z" fill="black"/>
<path id="Vector_9" d="M6.25 5.5C5.836 5.5 5.5 5.164 5.5 4.75V2.75C5.5 2.336 5.836 2 6.25 2C6.664 2 7 2.336 7 2.75V4.75C7 5.164 6.664 5.5 6.25 5.5Z" fill="#3CCBF4"/>
<path id="Vector_10" d="M17.75 5.5C17.336 5.5 17 5.164 17 4.75V2.75C17 2.336 17.336 2 17.75 2C18.164 2 18.5 2.336 18.5 2.75V4.75C18.5 5.164 18.164 5.5 17.75 5.5Z" fill="#3CCBF4"/>
<path id="Vector_11" d="M13.273 9.55103V17.7475H11.512V11.5415C11.415 11.6275 11.3005 11.7085 11.168 11.7845C11.0355 11.861 10.895 11.93 10.746 11.9915C10.597 12.053 10.4425 12.1055 10.282 12.148C10.1215 12.191 9.963 12.2215 9.8065 12.2405V10.7535C10.265 10.619 10.6975 10.448 11.1035 10.239C11.51 10.0305 11.877 9.80103 12.205 9.55153H13.273V9.55103Z" fill="white"/>
</g>
<defs>
<linearGradient id="paint0_linear_206_10681" x1="3.207" y1="6.831" x2="20.887" y2="19.744" gradientUnits="userSpaceOnUse">
<stop stop-color="#28AFEA"/>
<stop offset="1" stop-color="#047ED6"/>
</linearGradient>
<linearGradient id="paint1_linear_206_10681" x1="3.21" y1="3.304" x2="20.599" y2="6.84" gradientUnits="userSpaceOnUse">
<stop stop-color="#0077D2"/>
<stop offset="1" stop-color="#0B59A2"/>
</linearGradient>
</defs>
</svg>
