<svg width="24" height="24" viewBox="0 0 24 24" fill="none" xmlns="http://www.w3.org/2000/svg">
<g id="call">
<path id="Vector" d="M20.5635 3.96001C20.5635 3.96001 18.697 3.80101 17.2345 4.52901C15.772 5.25701 12.764 7.26151 13.2685 8.05151C13.7615 7.67951 14.3165 7.92901 14.587 8.20901C14.7625 8.39051 15.5675 9.24251 16.1115 9.81851C16.4135 10.1385 16.893 10.214 17.279 10.0025L20.998 7.96401C21.4015 7.74301 21.593 7.26851 21.4565 6.82951L20.5635 3.96001Z" fill="url(#paint0_linear_206_10709)"/>
<path id="Vector_2" d="M3.96 20.5635C3.96 20.5635 3.801 18.697 4.529 17.2345C5.257 15.772 7.2615 12.764 8.0515 13.2685C7.6795 13.7615 7.929 14.3165 8.209 14.587C8.3905 14.7625 9.2425 15.5675 9.8185 16.1115C10.1385 16.4135 10.214 16.893 10.0025 17.279L7.964 20.998C7.743 21.4015 7.2685 21.593 6.8295 21.4565L3.96 20.5635Z" fill="url(#paint1_linear_206_10709)"/>
<path id="Vector_3" d="M10.493 10.493C7.535 13.4505 5.367 16.8945 3.96 20.5635L3.036 20.0285C2.5835 19.7665 2.3795 19.212 2.5725 18.726C3.982 15.18 6.117 11.8555 8.986 8.98604C11.855 6.11654 15.1805 3.98204 18.7265 2.57254C19.2125 2.37954 19.767 2.58354 20.029 3.03604L20.564 3.96004C16.8945 5.36704 13.4505 7.53504 10.493 10.493Z" fill="url(#paint2_linear_206_10709)"/>
</g>
<defs>
<linearGradient id="paint0_linear_206_10709" x1="17.3562" y1="3.93236" x2="17.3562" y2="10.0993" gradientUnits="userSpaceOnUse">
<stop stop-color="#2AA4F4"/>
<stop offset="1" stop-color="#007AD9"/>
</linearGradient>
<linearGradient id="paint1_linear_206_10709" x1="7.03346" y1="13.1948" x2="7.03346" y2="21.4703" gradientUnits="userSpaceOnUse">
<stop stop-color="#2AA4F4"/>
<stop offset="1" stop-color="#007AD9"/>
</linearGradient>
<linearGradient id="paint2_linear_206_10709" x1="11.5319" y1="2.46199" x2="11.5319" y2="20.4983" gradientUnits="userSpaceOnUse">
<stop stop-color="#2AA4F4"/>
<stop offset="1" stop-color="#007AD9"/>
</linearGradient>
</defs>
</svg>
