<svg width="24" height="24" viewBox="0 0 24 24" fill="none" xmlns="http://www.w3.org/2000/svg">
<g id="car-service">
<path id="Vector" d="M5.5 18C5.5 17.7225 5.2775 17.5 5 17.5H3C2.7225 17.5 2.5 17.7225 2.5 18V21C2.5 21.2775 2.7225 21.5 3 21.5H5C5.2775 21.5 5.5 21.2775 5.5 21V18ZM21.5 18C21.5 17.7225 21.2775 17.5 21 17.5H19C18.7225 17.5 18.5 17.7225 18.5 18V21C18.5 21.2775 18.7225 21.5 19 21.5H21C21.2775 21.5 21.5 21.2775 21.5 21V18Z" fill="#455A64"/>
<path id="Vector_2" d="M22 12H2C1.7225 12 1.5 12.2225 1.5 12.5V13.5C1.5 13.7775 1.7225 14 2 14H22C22.2775 14 22.5 13.7775 22.5 13.5V12.5C22.5 12.2225 22.2775 12 22 12Z" fill="#2196F3"/>
<path id="Vector_3" d="M20.5 13.5L19.5 13.002C19.332 13.002 4.666 13 4.5 13L3.5 13.5C2.9475 13.5 2.5 14.4475 2.5 15V19C2.5 19.2775 2.7225 19.5 3 19.5H21C21.2775 19.5 21.5 19.2775 21.5 19V15C21.5 14.4475 21.0525 13.5 20.5 13.5Z" fill="#2196F3"/>
<path id="Vector_4" d="M19.8925 13.502C19.8225 13.0565 19.701 12.3595 19.5 11.25C19 8.5 18.045 6.5 16.25 6.5H7.75C5.955 6.5 4.9685 8.75 4.5 11.25C4.297 12.338 4.176 13.047 4.1035 13.502H19.8925Z" fill="#2196F3"/>
<path id="Vector_5" d="M20.5 17.5C20.5 17.7775 20.2775 18 20 18H4C3.7225 18 3.5 17.7775 3.5 17.5V16C3.5 15.7225 3.7225 15.5 4 15.5H20C20.2775 15.5 20.5 15.7225 20.5 16V17.5Z" fill="#263238"/>
<path id="Vector_6" d="M5.5 16.75C5.5 17.164 5.164 17.5 4.75 17.5C4.336 17.5 4 17.164 4 16.75C4 16.336 4.336 16 4.75 16C5.164 16 5.5 16.336 5.5 16.75ZM20 16.75C20 17.164 19.664 17.5 19.25 17.5C18.836 17.5 18.5 17.164 18.5 16.75C18.5 16.336 18.836 16 19.25 16C19.664 16 20 16.336 20 16.75Z" fill="#FFEB3B"/>
<path id="Vector_7" d="M16.25 6.5H7.75C6.1525 6.5 5.197 8.283 4.675 10.437C5.4035 10.786 6.198 10.988 6.992 11C8.0685 10.9895 8.99 10.616 9.6575 9.919C10.151 9.402 10.4095 8.87 10.5815 8.5H18.415C18.5105 8.5 18.601 8.4835 18.694 8.474C18.136 7.2555 17.352 6.5 16.25 6.5Z" fill="#90CAF9"/>
<path id="Vector_8" d="M18.5155 11.4275C18.074 9 17.4275 7.5 16.25 7.5H7.74999C6.65599 7.5 5.90799 9.17 5.48249 11.4335C5.35949 12.09 5.26749 12.5995 5.19949 13H18.795C18.7265 12.6035 18.6365 12.094 18.5155 11.4275Z" fill="#E3F2FD"/>
<path id="Vector_9" d="M18.5 4.5C18.5 4.5 11.696 4.5035 10.263 4.501C10.0745 4.5005 9.906 4.396 9.8205 4.2285C9.635 3.867 9.4475 3.3085 8.9345 2.772C8.4975 2.315 7.867 2.0085 6.9825 2C5.8055 2.0175 4.5705 2.5675 3.717 3.4605C3.235 3.965 3 4.5 3 4.5H7C7 4.5 7.5035 4.9825 7.5035 6C7.5035 7.0175 7 7.5 7 7.5H3C3 7.5 3.235 8.035 3.717 8.5395C4.5705 9.4325 5.8055 9.983 6.9825 10C7.8665 9.9915 8.4975 9.685 8.934 9.228C9.446 8.692 9.634 8.134 9.8195 7.7725C9.9055 7.6045 10.077 7.5 10.266 7.5H18.415C19.227 7.5 19.9555 6.892 19.9975 6.0805C20.043 5.2155 19.355 4.5 18.5 4.5Z" fill="#607D8B"/>
</g>
</svg>
