<svg width="24" height="24" viewBox="0 0 24 24" fill="none" xmlns="http://www.w3.org/2000/svg">
<g id="car-rental">
<path id="Vector" d="M6.5 21V17.5H3V21C3.00005 21.1326 3.05274 21.2597 3.1465 21.3535C3.24026 21.4473 3.36741 21.5 3.5 21.5H6C6.13259 21.5 6.25974 21.4473 6.3535 21.3535C6.44726 21.2597 6.49995 21.1326 6.5 21Z" fill="#565B5E"/>
<path id="Vector_2" d="M21 21V17.5H17.5V21C17.5 21.1326 17.5527 21.2597 17.6465 21.3535C17.7403 21.4473 17.8674 21.5 18 21.5H20.5C20.6326 21.5 20.7597 21.4473 20.8535 21.3535C20.9473 21.2597 21 21.1326 21 21Z" fill="#565B5E"/>
<path id="Vector_3" d="M19.5 12L18.201 7.23689C18.1432 7.02524 18.0175 6.83845 17.8432 6.70529C17.6689 6.57214 17.4556 6.5 17.2362 6.5H6.76379C6.54442 6.5 6.33114 6.57214 6.1568 6.70529C5.98246 6.83845 5.85675 7.02524 5.79903 7.23689L4.5 12L3.3 13.6C3.10527 13.8596 3 14.1754 3 14.5V18.5C3 18.7652 3.10536 19.0196 3.29289 19.2071C3.48043 19.3946 3.73478 19.5 4 19.5H20C20.2652 19.5 20.5196 19.3946 20.7071 19.2071C20.8946 19.0196 21 18.7652 21 18.5V14.5C21 14.1754 20.8947 13.8596 20.7 13.6L19.5 12Z" fill="url(#paint0_linear_206_10721)"/>
<path id="Vector_4" d="M5.25 17C5.94036 17 6.5 16.4404 6.5 15.75C6.5 15.0596 5.94036 14.5 5.25 14.5C4.55964 14.5 4 15.0596 4 15.75C4 16.4404 4.55964 17 5.25 17Z" fill="white"/>
<path id="Vector_5" d="M18.75 17C19.4404 17 20 16.4404 20 15.75C20 15.0596 19.4404 14.5 18.75 14.5C18.0596 14.5 17.5 15.0596 17.5 15.75C17.5 16.4404 18.0596 17 18.75 17Z" fill="white"/>
<path id="Vector_6" d="M7.5 15.5L8.2485 16.9972C8.34306 17.1574 8.47944 17.2888 8.64301 17.3774C8.80658 17.466 8.99117 17.5084 9.177 17.5H14.823C15.0088 17.5084 15.1934 17.466 15.357 17.3774C15.5206 17.2888 15.6569 17.1574 15.7515 16.9972L16.5 15.5H7.5Z" fill="url(#paint1_linear_206_10721)"/>
<path id="Vector_7" d="M21.5 12.5H19.5V11.5C19.5 11.3687 19.5258 11.2386 19.576 11.1173C19.6263 10.9959 19.6999 10.8857 19.7928 10.7928C19.8857 10.6999 19.9959 10.6263 20.1173 10.576C20.2386 10.5258 20.3687 10.5 20.5 10.5H22C22.1326 10.5 22.2597 10.5527 22.3535 10.6465C22.4473 10.7403 22.5 10.8674 22.5 11V11.5C22.5 11.6313 22.4742 11.7614 22.424 11.8827C22.3737 12.0041 22.3001 12.1143 22.2072 12.2072C22.1143 12.3001 22.0041 12.3737 21.8827 12.424C21.7614 12.4742 21.6313 12.5 21.5 12.5Z" fill="url(#paint2_linear_206_10721)"/>
<path id="Vector_8" d="M2.5 12.5H4.5V11.5C4.50004 11.3687 4.4742 11.2386 4.42395 11.1173C4.37371 10.9959 4.30005 10.8857 4.20719 10.7928C4.11432 10.6999 4.00407 10.6263 3.88273 10.576C3.76138 10.5258 3.63133 10.5 3.5 10.5H2C1.86741 10.5 1.74026 10.5527 1.6465 10.6465C1.55274 10.7403 1.50005 10.8674 1.5 11V11.5C1.49996 11.6313 1.5258 11.7614 1.57605 11.8827C1.62629 12.0041 1.69995 12.1143 1.79281 12.2072C1.88568 12.3001 1.99593 12.3737 2.11727 12.424C2.23862 12.4742 2.36867 12.5 2.5 12.5Z" fill="url(#paint3_linear_206_10721)"/>
<path id="Vector_9" d="M18.375 12.5L17.2835 8.2575C17.2296 8.04104 17.1049 7.84884 16.9291 7.71155C16.7533 7.57426 16.5366 7.49979 16.3135 7.5H7.6865C7.46344 7.49979 7.24673 7.57426 7.07093 7.71155C6.89513 7.84884 6.77035 8.04104 6.7165 8.2575L5.625 12.5H18.375Z" fill="url(#paint4_linear_206_10721)"/>
<path id="Vector_10" d="M17 4.195V4.805C16.9999 4.86731 16.9874 4.92897 16.9634 4.98646C16.9394 5.04395 16.9042 5.09613 16.86 5.14L16.64 5.36C16.5962 5.40423 16.544 5.43937 16.4865 5.46339C16.429 5.48742 16.3673 5.49986 16.305 5.5H10.5V3.5H12.5C12.5 3.63261 12.5527 3.75979 12.6464 3.85355C12.7402 3.94732 12.8674 4 13 4C13.1326 4 13.2598 3.94732 13.3536 3.85355C13.4473 3.75979 13.5 3.63261 13.5 3.5H14.5C14.5 3.63261 14.5527 3.75979 14.6464 3.85355C14.7402 3.94732 14.8674 4 15 4C15.1326 4 15.2598 3.94732 15.3536 3.85355C15.4473 3.75979 15.5 3.63261 15.5 3.5H16.305C16.3673 3.50014 16.429 3.51258 16.4865 3.5366C16.5439 3.56063 16.5961 3.59577 16.64 3.64L16.86 3.86C16.9042 3.90387 16.9394 3.95605 16.9634 4.01354C16.9874 4.07102 16.9999 4.13269 17 4.195Z" fill="url(#paint5_linear_206_10721)"/>
<path id="Vector_11" d="M7 4.5C7 4.99445 7.14662 5.4778 7.42133 5.88893C7.69603 6.30005 8.08648 6.62048 8.54329 6.8097C9.00011 6.99892 9.50277 7.04843 9.98773 6.95196C10.4727 6.8555 10.9181 6.6174 11.2678 6.26777C11.6174 5.91814 11.8555 5.47268 11.952 4.98773C12.0484 4.50277 11.9989 4.00011 11.8097 3.54329C11.6205 3.08648 11.3 2.69603 10.8889 2.42133C10.4778 2.14662 9.99445 2 9.5 2C8.83697 2.00003 8.2011 2.26343 7.73227 2.73227C7.26343 3.2011 7.00003 3.83697 7 4.5ZM9 4.5C9 4.59889 8.97068 4.69556 8.91574 4.77779C8.86079 4.86001 8.7827 4.9241 8.69134 4.96194C8.59998 4.99978 8.49944 5.00969 8.40245 4.99039C8.30546 4.9711 8.21637 4.92348 8.14645 4.85355C8.07652 4.78363 8.0289 4.69454 8.00961 4.59755C7.99031 4.50055 8.00022 4.40002 8.03806 4.30866C8.0759 4.2173 8.13999 4.13921 8.22221 4.08427C8.30444 4.02932 8.40111 4 8.5 4C8.56566 4 8.63068 4.01293 8.69135 4.03805C8.75201 4.06318 8.80713 4.10001 8.85356 4.14644C8.89999 4.19287 8.93682 4.24799 8.96195 4.30865C8.98707 4.36932 9 4.43434 9 4.5Z" fill="url(#paint6_linear_206_10721)"/>
<path id="Vector_12" opacity="0.05" d="M11 6.5C10.5673 6.82456 10.0409 7 9.5 7C8.95908 7 8.43274 6.82456 8 6.5H7.27C7.55017 6.81451 7.8937 7.0662 8.27803 7.23855C8.66236 7.41089 9.0788 7.49999 9.5 7.49999C9.92121 7.49999 10.3376 7.41089 10.722 7.23855C11.1063 7.0662 11.4498 6.81451 11.73 6.5H11Z" fill="black"/>
<path id="Vector_13" opacity="0.07" d="M11 6.5C10.5673 6.82456 10.0409 7 9.50001 7C8.95908 7 8.43275 6.82456 8.00001 6.5H7.61501C8.12445 6.98163 8.79893 7.24999 9.50001 7.24999C10.2011 7.24999 10.8756 6.98163 11.385 6.5H11Z" fill="black"/>
</g>
<defs>
<linearGradient id="paint0_linear_206_10721" x1="7.3205" y1="3.599" x2="13.738" y2="21.231" gradientUnits="userSpaceOnUse">
<stop stop-color="#42A3F2"/>
<stop offset="1" stop-color="#42A4EB"/>
</linearGradient>
<linearGradient id="paint1_linear_206_10721" x1="7.5" y1="16.5" x2="16.5" y2="16.5" gradientUnits="userSpaceOnUse">
<stop stop-color="#3079D6"/>
<stop offset="1" stop-color="#297CD2"/>
</linearGradient>
<linearGradient id="paint2_linear_206_10721" x1="16.6455" y1="-0.258" x2="23.578" y2="18.789" gradientUnits="userSpaceOnUse">
<stop stop-color="#42A3F2"/>
<stop offset="1" stop-color="#42A4EB"/>
</linearGradient>
<linearGradient id="paint3_linear_206_10721" x1="0.496" y1="4.6205" x2="7.645" y2="24.2625" gradientUnits="userSpaceOnUse">
<stop stop-color="#42A3F2"/>
<stop offset="1" stop-color="#42A4EB"/>
</linearGradient>
<linearGradient id="paint4_linear_206_10721" x1="12" y1="14.684" x2="12" y2="4.669" gradientUnits="userSpaceOnUse">
<stop stop-color="#3079D6"/>
<stop offset="1" stop-color="#297CD2"/>
</linearGradient>
<linearGradient id="paint5_linear_206_10721" x1="15.448" y1="6.523" x2="11.585" y2="2.496" gradientUnits="userSpaceOnUse">
<stop stop-color="#E5A505"/>
<stop offset="0.01" stop-color="#E9A804"/>
<stop offset="0.06" stop-color="#F4B102"/>
<stop offset="0.129" stop-color="#FBB600"/>
<stop offset="0.323" stop-color="#FDB700"/>
</linearGradient>
<linearGradient id="paint6_linear_206_10721" x1="11.616" y1="5.9555" x2="7.4885" y2="3.1165" gradientUnits="userSpaceOnUse">
<stop stop-color="#FEDE00"/>
<stop offset="1" stop-color="#FFD000"/>
</linearGradient>
</defs>
</svg>
