<svg width="24" height="24" viewBox="0 0 24 24" fill="none" xmlns="http://www.w3.org/2000/svg">
<g id="cash-and-credit-card">
<path id="Vector" d="M21.5625 4.5H2.4375C1.6435 4.5 1 5.1435 1 5.9375V18.0625C1 18.8565 1.6435 19.5 2.4375 19.5H21.5625C22.3565 19.5 23 18.8565 23 18.0625V5.9375C23 5.1435 22.3565 4.5 21.5625 4.5Z" fill="url(#paint0_linear_206_5436)"/>
<path id="Vector_2" d="M23 7H1V9H23V7Z" fill="url(#paint1_linear_206_5436)"/>
<path id="Vector_3" d="M21 12H3C2.724 12 2.5 11.776 2.5 11.5V10.5C2.5 10.224 2.724 10 3 10H21C21.276 10 21.5 10.224 21.5 10.5V11.5C21.5 11.776 21.276 12 21 12Z" fill="#A8E7FF"/>
<path id="Vector_4" d="M19 13C15.6915 13 13 15.6915 13 19C13 19.169 13.0115 19.3345 13.0255 19.5H21.5625C22.3565 19.5 23 18.8565 23 18.0625V14.5405C21.937 13.586 20.5375 13 19 13Z" fill="url(#paint2_radial_206_5436)"/>
<path id="Vector_5" d="M19 24C21.7614 24 24 21.7614 24 19C24 16.2386 21.7614 14 19 14C16.2386 14 14 16.2386 14 19C14 21.7614 16.2386 24 19 24Z" fill="url(#paint3_linear_206_5436)"/>
<path id="Vector_6" d="M19 23C21.2091 23 23 21.2091 23 19C23 16.7909 21.2091 15 19 15C16.7909 15 15 16.7909 15 19C15 21.2091 16.7909 23 19 23Z" fill="#F5BE00"/>
<path id="Vector_7" d="M17.8835 20.8425V20.0975C18.154 20.263 18.442 20.346 18.7475 20.346C18.9775 20.346 19.1575 20.2915 19.287 20.182C19.4165 20.0725 19.4815 19.924 19.4815 19.736C19.4815 19.344 19.2045 19.148 18.6505 19.148C18.47 19.148 18.252 19.1645 17.996 19.1975V16.986H20.188V17.6985H18.7415V18.4905C18.8575 18.4795 18.967 18.474 19.07 18.474C19.4765 18.474 19.795 18.581 20.025 18.794C20.255 19.0075 20.37 19.295 20.37 19.6555C20.37 20.0545 20.233 20.381 19.9585 20.634C19.6845 20.8875 19.3125 21.0135 18.843 21.0135C18.463 21.014 18.143 20.957 17.8835 20.8425Z" fill="#FEE119"/>
</g>
<defs>
<linearGradient id="paint0_linear_206_5436" x1="10.1875" y1="5.5305" x2="14.374" y2="20.473" gradientUnits="userSpaceOnUse">
<stop stop-color="#32BDEF"/>
<stop offset="1" stop-color="#1EA2E4"/>
</linearGradient>
<linearGradient id="paint1_linear_206_5436" x1="1" y1="8" x2="23" y2="8" gradientUnits="userSpaceOnUse">
<stop stop-color="#45494D"/>
<stop offset="1" stop-color="#6D7479"/>
</linearGradient>
<radialGradient id="paint2_radial_206_5436" cx="0" cy="0" r="1" gradientUnits="userSpaceOnUse" gradientTransform="translate(18.766 19.016) scale(5.9045)">
<stop/>
<stop offset="0.979" stop-opacity="0"/>
</radialGradient>
<linearGradient id="paint3_linear_206_5436" x1="15.568" y1="15.568" x2="22.528" y2="22.528" gradientUnits="userSpaceOnUse">
<stop stop-color="#FEDE00"/>
<stop offset="1" stop-color="#FFD000"/>
</linearGradient>
</defs>
</svg>
