<svg width="24" height="24" viewBox="0 0 24 24" fill="none" xmlns="http://www.w3.org/2000/svg">
<g id="chain">
<path id="Vector" d="M11.735 14.385C11.7046 14.3023 11.6678 14.222 11.625 14.145C11.5931 14.0612 11.5529 13.9808 11.505 13.905C11.3388 13.612 11.1336 13.3429 10.895 13.105C10.6584 12.865 10.3891 12.6596 10.095 12.495C10.0194 12.4484 9.94088 12.4067 9.86 12.37C9.78 12.33 9.70003 12.295 9.62 12.26C8.92308 11.9795 8.15908 11.91 7.423 12.0603C6.68691 12.2105 6.01124 12.5738 5.48 13.105L3.105 15.48C2.39044 16.1988 1.99002 17.1716 1.99152 18.1852C1.99302 19.1987 2.39632 20.1703 3.113 20.887C3.82969 21.6037 4.8013 22.007 5.81485 22.0085C6.8284 22.01 7.80119 21.6096 8.52 20.895L10.895 18.52C11.4246 17.9888 11.7866 17.3137 11.9359 16.5786C12.0853 15.8435 12.0154 15.0807 11.735 14.385ZM9.48 17.105L7.105 19.48C6.76221 19.8228 6.29728 20.0154 5.8125 20.0154C5.32772 20.0154 4.86279 19.8228 4.52 19.48C4.17721 19.1372 3.98463 18.6723 3.98463 18.1875C3.98463 17.7027 4.17721 17.2378 4.52 16.895L6.895 14.52C7.16094 14.2535 7.50363 14.0769 7.875 14.015C7.97882 13.9951 8.08429 13.985 8.19 13.985C8.20682 13.9841 8.22367 13.9858 8.24 13.99C8.34931 13.9892 8.45835 14.001 8.565 14.025C8.91175 14.0972 9.2298 14.2693 9.48 14.52C9.73425 14.7675 9.90694 15.0867 9.975 15.435C9.99898 15.5417 10.0107 15.6507 10.01 15.76C10.0193 15.8839 10.0109 16.0085 9.985 16.13C9.92511 16.5006 9.74813 16.8423 9.48 17.105ZM10.895 13.105C10.6584 12.865 10.3891 12.6596 10.095 12.495L8.565 14.025C8.91175 14.0973 9.2298 14.2693 9.48 14.52C9.73425 14.7676 9.90694 15.0868 9.975 15.435L11.505 13.9051C11.3388 13.612 11.1336 13.3429 10.895 13.105Z" fill="#0078D4"/>
<path id="Vector_2" d="M20.895 3.105C20.1769 2.38706 19.203 1.98374 18.1875 1.98374C17.172 1.98374 16.1981 2.38706 15.48 3.105L13.105 5.48C12.5754 6.01119 12.2134 6.68625 12.0641 7.42136C11.9147 8.15647 11.9846 8.91925 12.265 9.615C12.2954 9.69773 12.3322 9.77797 12.375 9.855C12.4069 9.9388 12.4471 10.0192 12.495 10.095C12.6612 10.388 12.8664 10.6571 13.105 10.895C13.3416 11.135 13.6109 11.3404 13.905 11.505C13.9806 11.5515 14.0591 11.5933 14.14 11.63C14.22 11.67 14.3 11.7049 14.38 11.74C15.0772 12.0189 15.8408 12.0875 16.5765 11.9374C17.3123 11.7872 17.9879 11.4248 18.52 10.895L20.895 8.52C21.6107 7.80067 22.0125 6.82723 22.0125 5.8125C22.0125 4.79777 21.6107 3.82432 20.895 3.105ZM19.48 7.105L17.105 9.48C16.8404 9.7483 16.4971 9.92521 16.125 9.985C16.0052 10.0109 15.8822 10.0193 15.76 10.01C15.6507 10.0107 15.5416 9.99897 15.435 9.97496C15.0884 9.90239 14.7704 9.73038 14.52 9.47997C14.2696 9.22955 14.0976 8.91159 14.025 8.56496C14.001 8.45831 13.9893 8.34928 13.99 8.23996C13.9807 8.11607 13.9891 7.99148 14.015 7.86996C14.0749 7.49938 14.2519 7.15771 14.52 6.895L16.895 4.52C17.2378 4.17721 17.7027 3.98463 18.1875 3.98463C18.4275 3.98463 18.6652 4.03191 18.887 4.12377C19.1088 4.21563 19.3103 4.35027 19.48 4.52C19.6497 4.68973 19.7844 4.89124 19.8762 5.113C19.9681 5.33477 20.0154 5.57246 20.0154 5.8125C20.0154 6.05254 19.9681 6.29023 19.8762 6.51199C19.7844 6.73376 19.6497 6.93527 19.48 7.105Z" fill="#0078D4"/>
<path id="Vector_3" d="M9 16C8.80224 16 8.60893 15.9413 8.44451 15.8314C8.28009 15.7215 8.15194 15.5654 8.07627 15.3827C8.00059 15.2 7.98079 14.9989 8.01936 14.8049C8.05793 14.611 8.15315 14.4328 8.29297 14.293L14.293 8.29297C14.4805 8.10545 14.7348 8.00011 15 8.00011C15.2652 8.00011 15.5195 8.10545 15.707 8.29297C15.8945 8.48048 15.9999 8.73481 15.9999 9C15.9999 9.26519 15.8945 9.51951 15.707 9.70703L9.70703 15.707C9.61429 15.8 9.50409 15.8738 9.38275 15.9241C9.26142 15.9744 9.13134 16.0002 9 16Z" fill="#1B9DE2"/>
<path id="Vector_4" opacity="0.05" d="M9.86 12.37C9.78 12.33 9.70002 12.295 9.62 12.26L7.94 13.94C7.91691 13.9637 7.89521 13.9888 7.875 14.015C7.97882 13.9951 8.08429 13.985 8.19 13.985C8.20682 13.9842 8.22367 13.9858 8.24 13.99C8.34931 13.9892 8.45835 14.001 8.565 14.025L10.095 12.495C10.0194 12.4484 9.94088 12.4067 9.86 12.37ZM11.625 14.145C11.5931 14.0612 11.5529 13.9808 11.505 13.905L9.975 15.435C9.99898 15.5417 10.0107 15.6507 10.01 15.76C10.0193 15.8839 10.0109 16.0085 9.985 16.13C10.0112 16.108 10.0363 16.0846 10.06 16.06L11.735 14.385C11.7046 14.3023 11.6678 14.222 11.625 14.145ZM15.76 10.01C15.6507 10.0107 15.5416 9.99898 15.435 9.97497L13.905 11.505C13.9806 11.5515 14.0591 11.5933 14.14 11.63C14.22 11.67 14.3 11.705 14.38 11.74L16.06 10.06C16.0831 10.0363 16.1048 10.0112 16.125 9.985C16.0052 10.0109 15.8822 10.0193 15.76 10.01ZM13.99 8.24C13.9807 8.11611 13.9891 7.99152 14.015 7.87C13.9888 7.89198 13.9637 7.91534 13.94 7.94L12.265 9.615C12.2954 9.69773 12.3322 9.77797 12.375 9.855C12.4069 9.93881 12.4471 10.0192 12.495 10.095L14.025 8.565C14.001 8.45835 13.9893 8.34931 13.99 8.24Z" fill="black"/>
<path id="Vector_5" opacity="0.07" d="M9.86 12.37L8.24 13.99C8.34931 13.9893 8.45835 14.001 8.565 14.025L10.095 12.495C10.0194 12.4484 9.94088 12.4067 9.86 12.37ZM11.505 13.905L9.975 15.435C9.99898 15.5416 10.0107 15.6507 10.01 15.76L11.625 14.145C11.5931 14.0612 11.5529 13.9808 11.505 13.905V13.905ZM15.435 9.975L13.905 11.505C13.9806 11.5515 14.0591 11.5933 14.14 11.63L15.76 10.01C15.6507 10.0107 15.5416 9.999 15.435 9.975ZM13.99 8.24L12.375 9.855C12.4069 9.9388 12.4471 10.0192 12.495 10.095L14.025 8.565C14.001 8.45835 13.9893 8.34931 13.99 8.24Z" fill="black"/>
</g>
</svg>
