<svg width="24" height="24" viewBox="0 0 24 24" fill="none" xmlns="http://www.w3.org/2000/svg">
<g id="change-theme">
<path id="Vector" d="M2.5 5H15.5V14H3.5C2.9475 14 2.5 13.5525 2.5 13V5Z" fill="url(#paint0_linear_206_5450)"/>
<path id="Vector_2" d="M15.5 5V4C15.5 3.4475 15.0525 3 14.5 3H3.5C2.9475 3 2.5 3.4475 2.5 4V5H15.5Z" fill="url(#paint1_linear_206_5450)"/>
<path id="Vector_3" d="M7.5 11.5H5C4.724 11.5 4.5 11.276 4.5 11V8C4.5 7.724 4.724 7.5 5 7.5H7.5C7.776 7.5 8 7.724 8 8V11C8 11.276 7.776 11.5 7.5 11.5Z" fill="url(#paint2_linear_206_5450)"/>
<path id="Vector_4" d="M13 11.5H10.5C10.224 11.5 10 11.276 10 11V8C10 7.724 10.224 7.5 10.5 7.5H13C13.276 7.5 13.5 7.724 13.5 8V11C13.5 11.276 13.276 11.5 13 11.5Z" fill="url(#paint3_linear_206_5450)"/>
<path id="Vector_5" opacity="0.05" d="M15.5 14V9.5H9.5C8.673 9.5 8 10.173 8 11V14H15.5Z" fill="black"/>
<path id="Vector_6" opacity="0.07" d="M15.5 14V9.75H9.5C8.811 9.75 8.25 10.311 8.25 11V14H15.5Z" fill="black"/>
<path id="Vector_7" d="M8.5 12H21.5V20C21.5 20.5525 21.0525 21 20.5 21H9.5C8.9475 21 8.5 20.5525 8.5 20V12Z" fill="url(#paint4_linear_206_5450)"/>
<path id="Vector_8" d="M21.5 12V11C21.5 10.4475 21.0525 10 20.5 10H9.5C8.9475 10 8.5 10.4475 8.5 11V12H21.5Z" fill="url(#paint5_linear_206_5450)"/>
<g id="Group">
<path id="Vector_9" d="M13.5 18.5H11C10.724 18.5 10.5 18.276 10.5 18V15C10.5 14.724 10.724 14.5 11 14.5H13.5C13.776 14.5 14 14.724 14 15V18C14 18.276 13.776 18.5 13.5 18.5Z" fill="url(#paint6_linear_206_5450)"/>
<path id="Vector_10" d="M19 18.5H16.5C16.224 18.5 16 18.276 16 18V15C16 14.724 16.224 14.5 16.5 14.5H19C19.276 14.5 19.5 14.724 19.5 15V18C19.5 18.276 19.276 18.5 19 18.5Z" fill="url(#paint7_linear_206_5450)"/>
</g>
</g>
<defs>
<linearGradient id="paint0_linear_206_5450" x1="3.8965" y1="4.1035" x2="11.783" y2="11.99" gradientUnits="userSpaceOnUse">
<stop stop-color="#7DD8F3"/>
<stop offset="1" stop-color="#45B0D0"/>
</linearGradient>
<linearGradient id="paint1_linear_206_5450" x1="2.5" y1="4" x2="15.5" y2="4" gradientUnits="userSpaceOnUse">
<stop stop-color="#0077D2"/>
<stop offset="1" stop-color="#0B59A2"/>
</linearGradient>
<linearGradient id="paint2_linear_206_5450" x1="6.25" y1="7.5" x2="6.25" y2="12.219" gradientUnits="userSpaceOnUse">
<stop stop-color="#199AE0"/>
<stop offset="1" stop-color="#0782D8"/>
</linearGradient>
<linearGradient id="paint3_linear_206_5450" x1="11.75" y1="7.5" x2="11.75" y2="12.219" gradientUnits="userSpaceOnUse">
<stop stop-color="#199AE0"/>
<stop offset="1" stop-color="#0782D8"/>
</linearGradient>
<linearGradient id="paint4_linear_206_5450" x1="8.5" y1="16.5" x2="21.5" y2="16.5" gradientUnits="userSpaceOnUse">
<stop stop-color="#9DFFCE"/>
<stop offset="1" stop-color="#50D18D"/>
</linearGradient>
<linearGradient id="paint5_linear_206_5450" x1="8.5" y1="11" x2="21.5" y2="11" gradientUnits="userSpaceOnUse">
<stop stop-color="#21AD64"/>
<stop offset="1" stop-color="#088242"/>
</linearGradient>
<linearGradient id="paint6_linear_206_5450" x1="10.5" y1="16.5" x2="14" y2="16.5" gradientUnits="userSpaceOnUse">
<stop offset="0.824" stop-color="#135D36"/>
<stop offset="0.931" stop-color="#125933"/>
<stop offset="1" stop-color="#11522F"/>
</linearGradient>
<linearGradient id="paint7_linear_206_5450" x1="16" y1="16.5" x2="19.5" y2="16.5" gradientUnits="userSpaceOnUse">
<stop offset="0.824" stop-color="#135D36"/>
<stop offset="0.931" stop-color="#125933"/>
<stop offset="1" stop-color="#11522F"/>
</linearGradient>
</defs>
</svg>
