<svg width="24" height="24" viewBox="0 0 24 24" fill="none" xmlns="http://www.w3.org/2000/svg">
<g id="chatbot">
<path id="Vector" d="M17 20.5H13.0115C12.735 20.5 12.5115 20.276 12.5115 20C12.5115 19.724 12.735 19.5 13.0115 19.5H17C18.6545 19.5 20 18.1545 20 16.5V15.5C20 15.224 20.2235 15 20.5 15C20.7765 15 21 15.224 21 15.5V16.5C21 18.7055 19.2055 20.5 17 20.5Z" fill="url(#paint0_linear_206_5467)"/>
<path id="Vector_2" d="M20.75 10.5H19.5V15.5H20.75C22.269 15.5 23.5 14.3805 23.5 13C23.5 11.6195 22.269 10.5 20.75 10.5Z" fill="url(#paint1_linear_206_5467)"/>
<path id="Vector_3" d="M3.25 10.5H4.5V15.5H3.25C1.731 15.5 0.5 14.3805 0.5 13C0.5 11.6195 1.731 10.5 3.25 10.5Z" fill="url(#paint2_linear_206_5467)"/>
<path id="Vector_4" d="M12 8C11.7235 8 11.5 7.776 11.5 7.5V4C11.5 3.724 11.7235 3.5 12 3.5C12.2765 3.5 12.5 3.724 12.5 4V7.5C12.5 7.776 12.2765 8 12 8Z" fill="url(#paint3_linear_206_5467)"/>
<path id="Vector_5" d="M17 19.5H7C5.343 19.5 4 18.157 4 16.5V9.5C4 7.843 5.343 6.5 7 6.5H17C18.657 6.5 20 7.843 20 9.5V16.5C20 18.157 18.657 19.5 17 19.5Z" fill="url(#paint4_linear_206_5467)"/>
<path id="Vector_6" d="M6 14.9335V11.067C6 10.2015 6.7015 9.5 7.5665 9.5H16.433C17.2985 9.5 18 10.2015 18 11.0665V14.933C18 15.7985 17.2985 16.5 16.4335 16.5H7.5665C6.7015 16.5 6 15.7985 6 14.9335Z" fill="url(#paint5_linear_206_5467)"/>
<path id="Vector_7" d="M12 2.5C12.5525 2.5 13 2.9475 13 3.5C13 4.0525 12.5525 4.5 12 4.5C11.4475 4.5 11 4.0525 11 3.5C11 2.9475 11.4475 2.5 12 2.5Z" fill="url(#paint6_linear_206_5467)"/>
<path id="Vector_8" opacity="0.05" d="M9 15.5C8.173 15.5 7.5 14.827 7.5 14V12C7.5 11.173 8.173 10.5 9 10.5C9.827 10.5 10.5 11.173 10.5 12V14C10.5 14.827 9.827 15.5 9 15.5Z" fill="black"/>
<path id="Vector_9" opacity="0.07" d="M9 15.25C8.3105 15.25 7.75 14.689 7.75 14V12C7.75 11.311 8.3105 10.75 9 10.75C9.6895 10.75 10.25 11.311 10.25 12V14C10.25 14.689 9.6895 15.25 9 15.25Z" fill="black"/>
<path id="Vector_10" d="M9 11C9.5525 11 10 11.4475 10 12V14C10 14.5525 9.5525 15 9 15C8.4475 15 8 14.5525 8 14V12C8 11.4475 8.4475 11 9 11Z" fill="url(#paint7_linear_206_5467)"/>
<path id="Vector_11" opacity="0.05" d="M15 15.5C14.173 15.5 13.5 14.827 13.5 14V12C13.5 11.173 14.173 10.5 15 10.5C15.827 10.5 16.5 11.173 16.5 12V14C16.5 14.827 15.827 15.5 15 15.5Z" fill="black"/>
<path id="Vector_12" opacity="0.07" d="M15 15.25C14.3105 15.25 13.75 14.689 13.75 14V12C13.75 11.311 14.3105 10.75 15 10.75C15.6895 10.75 16.25 11.311 16.25 12V14C16.25 14.689 15.6895 15.25 15 15.25Z" fill="black"/>
<path id="Vector_13" d="M15 11C15.5525 11 16 11.4475 16 12V14C16 14.5525 15.5525 15 15 15C14.4475 15 14 14.5525 14 14V12C14 11.4475 14.4475 11 15 11Z" fill="url(#paint8_linear_206_5467)"/>
<path id="Vector_14" opacity="0.05" d="M14 19.5H10C10 18.95 10.45 18.5 11 18.5H13C13.55 18.5 14 18.95 14 19.5Z" fill="black"/>
<path id="Vector_15" opacity="0.07" d="M13.75 19.5H10.25C10.25 19.085 10.585 18.75 11 18.75H13C13.415 18.75 13.75 19.085 13.75 19.5Z" fill="black"/>
<path id="Vector_16" d="M13 21H11C10.724 21 10.5 20.776 10.5 20.5V19.5C10.5 19.224 10.724 19 11 19H13C13.276 19 13.5 19.224 13.5 19.5V20.5C13.5 20.776 13.276 21 13 21Z" fill="url(#paint9_linear_206_5467)"/>
</g>
<defs>
<linearGradient id="paint0_linear_206_5467" x1="16.7555" y1="18.4385" x2="16.7555" y2="15.858" gradientUnits="userSpaceOnUse">
<stop stop-color="#0077D2"/>
<stop offset="1" stop-color="#0B59A2"/>
</linearGradient>
<linearGradient id="paint1_linear_206_5467" x1="21.5" y1="10.8465" x2="21.5" y2="20.9705" gradientUnits="userSpaceOnUse">
<stop stop-color="#0077D2"/>
<stop offset="1" stop-color="#0B59A2"/>
</linearGradient>
<linearGradient id="paint2_linear_206_5467" x1="2.5" y1="10.8465" x2="2.5" y2="20.9705" gradientUnits="userSpaceOnUse">
<stop stop-color="#0077D2"/>
<stop offset="1" stop-color="#0B59A2"/>
</linearGradient>
<linearGradient id="paint3_linear_206_5467" x1="12.0675" y1="3.891" x2="11.8995" y2="8.519" gradientUnits="userSpaceOnUse">
<stop stop-color="#0077D2"/>
<stop offset="1" stop-color="#0B59A2"/>
</linearGradient>
<linearGradient id="paint4_linear_206_5467" x1="7.54467" y1="4.56335" x2="15.5689" y2="19.0611" gradientUnits="userSpaceOnUse">
<stop stop-color="#FCFCFC"/>
<stop offset="0.95" stop-color="#C3C9CD"/>
</linearGradient>
<linearGradient id="paint5_linear_206_5467" x1="12" y1="9.901" x2="12" y2="19.9845" gradientUnits="userSpaceOnUse">
<stop stop-color="#0077D2"/>
<stop offset="1" stop-color="#0B59A2"/>
</linearGradient>
<linearGradient id="paint6_linear_206_5467" x1="12" y1="2.5385" x2="12" y2="4.4265" gradientUnits="userSpaceOnUse">
<stop stop-color="#0077D2"/>
<stop offset="1" stop-color="#0B59A2"/>
</linearGradient>
<linearGradient id="paint7_linear_206_5467" x1="8.63057" y1="11.0614" x2="11.0487" y2="13.3926" gradientUnits="userSpaceOnUse">
<stop stop-color="#7DD8F3"/>
<stop offset="1" stop-color="#45B0D0"/>
</linearGradient>
<linearGradient id="paint8_linear_206_5467" x1="14.6306" y1="11.0614" x2="17.0487" y2="13.3926" gradientUnits="userSpaceOnUse">
<stop stop-color="#7DD8F3"/>
<stop offset="1" stop-color="#45B0D0"/>
</linearGradient>
<linearGradient id="paint9_linear_206_5467" x1="12" y1="19.1105" x2="12" y2="21.196" gradientUnits="userSpaceOnUse">
<stop stop-color="#4C4C4C"/>
<stop offset="1" stop-color="#343434"/>
</linearGradient>
</defs>
</svg>
