<svg width="24" height="24" viewBox="0 0 24 24" fill="none" xmlns="http://www.w3.org/2000/svg">
<g id="chat-message">
<path id="Vector" d="M12 2C17.523 2 22 6.477 22 12C22 13.8185 21.507 15.5185 20.659 16.9875L22.941 22.1795C23.194 22.755 22.5855 23.3295 22.0255 23.0445L17.1485 20.561C15.643 21.4685 13.8855 22 12 22C6.477 22 2 17.523 2 12C2 6.477 6.477 2 12 2Z" fill="url(#paint0_linear_206_5484)"/>
<path id="Vector_2" opacity="0.05" d="M6.7615 10.5C6.342 10.5 6 10.1635 6 9.75V9.25C6 8.8365 6.342 8.5 6.7615 8.5H17.238C17.658 8.5 18 8.8365 18 9.25V9.75C18 10.1635 17.658 10.5 17.2385 10.5H6.7615Z" fill="black"/>
<path id="Vector_3" opacity="0.07" d="M6.7615 10.25C6.4795 10.25 6.25 10.0255 6.25 9.75V9.25C6.25 8.9745 6.4795 8.75 6.7615 8.75H17.238C17.52 8.75 17.7495 8.9745 17.7495 9.25V9.75C17.7495 10.0255 17.52 10.25 17.238 10.25H6.7615Z" fill="black"/>
<path id="Vector_4" d="M17.5 9.25V9.75C17.5 9.888 17.3825 10 17.238 10H6.762C6.6175 10 6.5 9.888 6.5 9.75V9.25C6.5 9.112 6.6175 9 6.762 9H17.238C17.3825 9 17.5 9.112 17.5 9.25Z" fill="white"/>
<path id="Vector_5" opacity="0.05" d="M6.7615 15.5C6.342 15.5 6 15.1635 6 14.75V14.25C6 13.8365 6.342 13.5 6.7615 13.5H17.238C17.658 13.5 18 13.8365 18 14.25V14.75C18 15.1635 17.658 15.5 17.2385 15.5H6.7615Z" fill="black"/>
<path id="Vector_6" opacity="0.07" d="M6.7615 15.25C6.4795 15.25 6.25 15.0255 6.25 14.75V14.25C6.25 13.9745 6.4795 13.75 6.7615 13.75H17.238C17.52 13.75 17.7495 13.9745 17.7495 14.25V14.75C17.7495 15.0255 17.52 15.25 17.238 15.25H6.7615Z" fill="black"/>
<path id="Vector_7" d="M17.5 14.25V14.75C17.5 14.888 17.3825 15 17.238 15H6.762C6.6175 15 6.5 14.888 6.5 14.75V14.25C6.5 14.112 6.6175 14 6.762 14H17.238C17.3825 14 17.5 14.112 17.5 14.25Z" fill="white"/>
<path id="Vector_8" opacity="0.05" d="M6.763 13C6.3425 13 6 12.6635 6 12.25V11.75C6 11.3365 6.3425 11 6.763 11H16.2365C16.6575 11 17 11.3365 17 11.75V12.25C17 12.6635 16.6575 13 16.237 13H6.763Z" fill="black"/>
<path id="Vector_9" opacity="0.07" d="M6.763 12.75C6.48 12.75 6.25 12.5255 6.25 12.25V11.75C6.25 11.4745 6.48 11.25 6.763 11.25H16.2365C16.5195 11.25 16.7495 11.4745 16.7495 11.75V12.25C16.7495 12.5255 16.5195 12.75 16.2365 12.75H6.763Z" fill="black"/>
<path id="Vector_10" d="M16.5 11.75V12.25C16.5 12.388 16.382 12.5 16.237 12.5H6.763C6.618 12.5 6.5 12.388 6.5 12.25V11.75C6.5 11.612 6.618 11.5 6.763 11.5H16.2365C16.382 11.5 16.5 11.612 16.5 11.75Z" fill="white"/>
</g>
<defs>
<linearGradient id="paint0_linear_206_5484" x1="6.899" y1="3.397" x2="19.0255" y2="23.849" gradientUnits="userSpaceOnUse">
<stop stop-color="#33BEF0"/>
<stop offset="1" stop-color="#0A85D9"/>
</linearGradient>
</defs>
</svg>
