<svg width="24" height="24" viewBox="0 0 24 24" fill="none" xmlns="http://www.w3.org/2000/svg">
<g id="chat-room">
<path id="Vector" d="M22.05 3H4.95C4.425 3 4 3.4175 4 3.9335V16.067C4 16.5825 4.425 17 4.95 17H22.05C22.575 17 23 16.5825 23 16.0665V3.9335C23 3.4175 22.575 3 22.05 3Z" fill="url(#paint0_linear_206_5495)"/>
<path id="Vector_2" opacity="0.05" d="M22 17V5.474C22 4.661 21.3385 4 20.5255 4H4V17H22Z" fill="black"/>
<path id="Vector_3" opacity="0.07" d="M21.75 17V5.474C21.75 4.799 21.2005 4.25 20.5255 4.25H4V17H21.75Z" fill="black"/>
<path id="Vector_4" d="M20.5255 4.5H2.9745C2.436 4.5 2 4.936 2 5.4745V18.026C2 18.564 2.436 19 2.9745 19H7V22.8565C7 23.2905 7.5245 23.508 7.8315 23.201L12.0325 19H20.5255C21.064 19 21.5 18.564 21.5 18.0255V5.4745C21.5 4.936 21.064 4.5 20.5255 4.5Z" fill="url(#paint1_linear_206_5495)"/>
</g>
<defs>
<linearGradient id="paint0_linear_206_5495" x1="8.1785" y1="1.3415" x2="18.947" y2="18.862" gradientUnits="userSpaceOnUse">
<stop stop-color="#0176D0"/>
<stop offset="1" stop-color="#16538C"/>
</linearGradient>
<linearGradient id="paint1_linear_206_5495" x1="6.261" y1="2.8195" x2="17.368" y2="20.8905" gradientUnits="userSpaceOnUse">
<stop stop-color="#33BEF0"/>
<stop offset="1" stop-color="#0A85D9"/>
</linearGradient>
</defs>
</svg>
