<svg width="24" height="24" viewBox="0 0 24 24" fill="none" xmlns="http://www.w3.org/2000/svg">
<g id="checked-checkbox">
<path id="Vector" d="M20 3H4C3.4475 3 3 3.4475 3 4V20C3 20.5525 3.4475 21 4 21H20C20.5525 21 21 20.5525 21 20V4C21 3.4475 20.5525 3 20 3Z" fill="url(#paint0_linear_206_5500)"/>
<path id="Vector_2" opacity="0.018" d="M18.5 19.4545H5.5C4.973 19.4545 4.5455 19.027 4.5455 18.5V5.5C4.5455 4.973 4.973 4.5455 5.5 4.5455H18.5C19.027 4.5455 19.4545 4.973 19.4545 5.5V18.5C19.4545 19.027 19.027 19.4545 18.5 19.4545Z" fill="black"/>
<path id="Vector_3" opacity="0.036" d="M18.5 19.409H5.5C4.998 19.409 4.591 19.002 4.591 18.5V5.5C4.591 4.998 4.998 4.591 5.5 4.591H18.5C19.002 4.591 19.409 4.998 19.409 5.5V18.5C19.409 19.002 19.002 19.409 18.5 19.409Z" fill="black"/>
<path id="Vector_4" opacity="0.054" d="M18.5 19.3635H5.50001C5.02301 19.3635 4.63651 18.977 4.63651 18.5V5.5C4.63651 5.023 5.02301 4.6365 5.50001 4.6365H18.5C18.977 4.6365 19.3635 5.023 19.3635 5.5V18.5C19.3635 18.977 18.977 19.3635 18.5 19.3635Z" fill="black"/>
<path id="Vector_5" opacity="0.073" d="M18.5 19.318H5.50001C5.04801 19.318 4.68201 18.9515 4.68201 18.5V5.5C4.68201 5.048 5.04851 4.682 5.50001 4.682H18.5C18.952 4.682 19.318 5.0485 19.318 5.5V18.5C19.318 18.952 18.952 19.318 18.5 19.318Z" fill="black"/>
<path id="Vector_6" opacity="0.091" d="M18.5 19.2725H5.49999C5.07299 19.2725 4.72749 18.9265 4.72749 18.5V5.5C4.72749 5.073 5.07349 4.7275 5.49999 4.7275H18.5C18.927 4.7275 19.2725 5.0735 19.2725 5.5V18.5C19.2725 18.927 18.927 19.2725 18.5 19.2725Z" fill="black"/>
<path id="Vector_7" opacity="0.109" d="M18.5 19.2275H5.50001C5.09851 19.2275 4.77251 18.902 4.77251 18.5V5.5C4.77251 5.0985 5.09801 4.7725 5.50001 4.7725H18.5C18.9015 4.7725 19.2275 5.098 19.2275 5.5V18.5C19.2275 18.9015 18.9015 19.2275 18.5 19.2275Z" fill="black"/>
<path id="Vector_8" opacity="0.127" d="M18.5 19.182H5.49999C5.12349 19.182 4.81799 18.8765 4.81799 18.5V5.5C4.81799 5.1235 5.12349 4.818 5.49999 4.818H18.5C18.8765 4.818 19.182 5.1235 19.182 5.5V18.5C19.182 18.8765 18.8765 19.182 18.5 19.182Z" fill="black"/>
<path id="Vector_9" opacity="0.145" d="M18.5 19.1365H5.49999C5.14849 19.1365 4.86349 18.8515 4.86349 18.5V5.5C4.86349 5.1485 5.14849 4.8635 5.49999 4.8635H18.5C18.8515 4.8635 19.1365 5.1485 19.1365 5.5V18.5C19.1365 18.8515 18.8515 19.1365 18.5 19.1365Z" fill="black"/>
<path id="Vector_10" opacity="0.164" d="M18.5 19.091H5.5C5.1735 19.091 4.909 18.8265 4.909 18.5V5.5C4.909 5.1735 5.1735 4.909 5.5 4.909H18.5C18.8265 4.909 19.091 5.1735 19.091 5.5V18.5C19.091 18.8265 18.8265 19.091 18.5 19.091Z" fill="black"/>
<path id="Vector_11" opacity="0.182" d="M18.5 19.0455H5.5C5.199 19.0455 4.9545 18.8015 4.9545 18.5V5.5C4.9545 5.199 5.1985 4.9545 5.5 4.9545H18.5C18.801 4.9545 19.0455 5.1985 19.0455 5.5V18.5C19.0455 18.801 18.801 19.0455 18.5 19.0455Z" fill="black"/>
<path id="Vector_12" opacity="0.2" d="M18.5 19H5.5C5.224 19 5 18.776 5 18.5V5.5C5 5.224 5.224 5 5.5 5H18.5C18.776 5 19 5.224 19 5.5V18.5C19 18.776 18.776 19 18.5 19Z" fill="black"/>
<path id="Vector_13" d="M18.5 19H5.5C5.224 19 5 18.776 5 18.5V5.5C5 5.224 5.224 5 5.5 5H18.5C18.776 5 19 5.224 19 5.5V18.5C19 18.776 18.776 19 18.5 19Z" fill="url(#paint1_radial_206_5500)"/>
<path id="Vector_14" d="M10.6465 16.3535L6.6465 12.3535C6.451 12.158 6.451 11.8415 6.6465 11.6465L7.3535 10.9395C7.549 10.744 7.8655 10.744 8.0605 10.9395L11 13.879L16.4395 8.4395C16.635 8.244 16.9515 8.244 17.1465 8.4395L17.8535 9.1465C18.049 9.342 18.049 9.6585 17.8535 9.8535L11.3535 16.3535C11.1585 16.549 10.8415 16.549 10.6465 16.3535Z" fill="#16528C"/>
</g>
<defs>
<linearGradient id="paint0_linear_206_5500" x1="3.5505" y1="3.5505" x2="21.266" y2="21.266" gradientUnits="userSpaceOnUse">
<stop stop-color="#33BEF0"/>
<stop offset="1" stop-color="#22A5E2"/>
</linearGradient>
<radialGradient id="paint1_radial_206_5500" cx="0" cy="0" r="1" gradientUnits="userSpaceOnUse" gradientTransform="translate(8.11919 6.72353) scale(13.773)">
<stop stop-color="#FAFAFB"/>
<stop offset="0.293" stop-color="#F6F7F8"/>
<stop offset="0.566" stop-color="#EBECEE"/>
<stop offset="0.832" stop-color="#D8DCDF"/>
<stop offset="1" stop-color="#C8CDD1"/>
</radialGradient>
</defs>
</svg>
