<svg width="24" height="24" viewBox="0 0 24 24" fill="none" xmlns="http://www.w3.org/2000/svg">
<g id="checklist">
<path id="Vector" d="M21.5 7H9C8.725 7 8.5 6.775 8.5 6.5V5.5C8.5 5.225 8.725 5 9 5H21.5C21.775 5 22 5.225 22 5.5V6.5C22 6.775 21.775 7 21.5 7Z" fill="url(#paint0_linear_206_5519)"/>
<path id="Vector_2" d="M5 8H2C1.725 8 1.5 7.775 1.5 7.5V4.5C1.5 4.225 1.725 4 2 4H5C5.275 4 5.5 4.225 5.5 4.5V7.5C5.5 7.775 5.275 8 5 8Z" fill="#42A4EB"/>
<path id="Vector_3" d="M4.5 5H2.5V7H4.5V5Z" fill="url(#paint1_linear_206_5519)"/>
<path id="Vector_4" d="M21.5 13H9C8.725 13 8.5 12.775 8.5 12.5V11.5C8.5 11.225 8.725 11 9 11H21.5C21.775 11 22 11.225 22 11.5V12.5C22 12.775 21.775 13 21.5 13Z" fill="url(#paint2_linear_206_5519)"/>
<path id="Vector_5" d="M5 14H2C1.725 14 1.5 13.775 1.5 13.5V10.5C1.5 10.225 1.725 10 2 10H5C5.275 10 5.5 10.225 5.5 10.5V13.5C5.5 13.775 5.275 14 5 14Z" fill="#42A4EB"/>
<path id="Vector_6" d="M4.5 11H2.5V13H4.5V11Z" fill="url(#paint3_linear_206_5519)"/>
<path id="Vector_7" d="M21.5 19H9C8.725 19 8.5 18.775 8.5 18.5V17.5C8.5 17.225 8.725 17 9 17H21.5C21.775 17 22 17.225 22 17.5V18.5C22 18.775 21.775 19 21.5 19Z" fill="url(#paint4_linear_206_5519)"/>
<path id="Vector_8" d="M5 20H2C1.725 20 1.5 19.775 1.5 19.5V16.5C1.5 16.225 1.725 16 2 16H5C5.275 16 5.5 16.225 5.5 16.5V19.5C5.5 19.775 5.275 20 5 20Z" fill="#42A4EB"/>
</g>
<defs>
<linearGradient id="paint0_linear_206_5519" x1="11.3515" y1="2.1015" x2="18.8075" y2="9.5575" gradientUnits="userSpaceOnUse">
<stop stop-color="#1D59B3"/>
<stop offset="1" stop-color="#195BBC"/>
</linearGradient>
<linearGradient id="paint1_linear_206_5519" x1="2.4545" y1="4.9545" x2="4.4545" y2="6.9545" gradientUnits="userSpaceOnUse">
<stop stop-color="#1D59B3"/>
<stop offset="1" stop-color="#195BBC"/>
</linearGradient>
<linearGradient id="paint2_linear_206_5519" x1="11.3515" y1="8.1015" x2="18.8075" y2="15.5575" gradientUnits="userSpaceOnUse">
<stop stop-color="#1D59B3"/>
<stop offset="1" stop-color="#195BBC"/>
</linearGradient>
<linearGradient id="paint3_linear_206_5519" x1="2.4545" y1="10.9545" x2="4.4545" y2="12.9545" gradientUnits="userSpaceOnUse">
<stop stop-color="#1D59B3"/>
<stop offset="1" stop-color="#195BBC"/>
</linearGradient>
<linearGradient id="paint4_linear_206_5519" x1="11.3515" y1="14.1015" x2="18.8075" y2="21.5575" gradientUnits="userSpaceOnUse">
<stop stop-color="#1D59B3"/>
<stop offset="1" stop-color="#195BBC"/>
</linearGradient>
</defs>
</svg>
