<svg width="24" height="24" viewBox="0 0 24 24" fill="none" xmlns="http://www.w3.org/2000/svg">
<g id="checkout">
<path id="Vector" d="M4.733 12.4385C4.5005 12.4385 4.2925 12.2755 4.2435 12.0395L2.856 5.2985C2.7605 4.8355 2.349 4.5 1.8765 4.5H1C0.724 4.5 0.5 4.276 0.5 4C0.5 3.724 0.724 3.5 1 3.5H1.8765C2.821 3.5 3.645 4.1715 3.8355 5.0965L5.223 11.8375C5.2785 12.108 5.1045 12.3725 4.834 12.428C4.8005 12.4355 4.7665 12.4385 4.733 12.4385Z" fill="url(#paint0_linear_206_5528)"/>
<path id="Vector_2" d="M18.5 22C19.3284 22 20 21.3284 20 20.5C20 19.6716 19.3284 19 18.5 19C17.6716 19 17 19.6716 17 20.5C17 21.3284 17.6716 22 18.5 22Z" fill="#5C5F61"/>
<path id="Vector_3" opacity="0.15" d="M18.5 21C18.7761 21 19 20.7761 19 20.5C19 20.2239 18.7761 20 18.5 20C18.2239 20 18 20.2239 18 20.5C18 20.7761 18.2239 21 18.5 21Z" fill="black"/>
<path id="Vector_4" d="M7.5 22C8.32843 22 9 21.3284 9 20.5C9 19.6716 8.32843 19 7.5 19C6.67157 19 6 19.6716 6 20.5C6 21.3284 6.67157 22 7.5 22Z" fill="#5C5F61"/>
<path id="Vector_5" opacity="0.15" d="M7.5 21C7.77614 21 8 20.7761 8 20.5C8 20.2239 7.77614 20 7.5 20C7.22386 20 7 20.2239 7 20.5C7 20.7761 7.22386 21 7.5 21Z" fill="black"/>
<path id="Vector_6" d="M20.5 19.5H6.5C5.397 19.5 4.5 18.603 4.5 17.5C4.5 16.397 5.397 15.5 6.5 15.5H19C19.276 15.5 19.5 15.724 19.5 16C19.5 16.276 19.276 16.5 19 16.5H6.5C5.9485 16.5 5.5 16.9485 5.5 17.5C5.5 18.0515 5.9485 18.5 6.5 18.5H20.5C20.776 18.5 21 18.724 21 19C21 19.276 20.776 19.5 20.5 19.5Z" fill="url(#paint1_linear_206_5528)"/>
<path id="Vector_7" d="M2 4C2 4.552 1.552 5 1 5C0.448 5 0 4.552 0 4C0 3.448 0.448 3 1 3C1.552 3 2 3.448 2 4Z" fill="url(#paint2_linear_206_5528)"/>
<path id="Vector_8" d="M4.845 15.687C4.935 16.159 5.3475 16.5 5.8275 16.5H20.153C20.642 16.5 21.059 16.1465 21.1395 15.6645L22.171 9.475L3.3865 8.03L4.845 15.687Z" fill="url(#paint3_linear_206_5528)"/>
<path id="Vector_9" d="M21.9555 7.458L3 6L3.3865 8.03L22.1705 9.475L22.41 8.039C22.4585 7.7495 22.248 7.4805 21.9555 7.458Z" fill="url(#paint4_linear_206_5528)"/>
<path id="Vector_10" opacity="0.05" d="M14.2695 14.5215C13.845 14.5215 13.5 14.177 13.5 13.7535V13.5H9.806C9.3615 13.5 9 13.138 9 12.694V11.8065C9 11.362 9.3615 11 9.806 11H13.5V10.7465C13.5 10.323 13.845 9.9785 14.2695 9.9785C14.4755 9.9785 14.6685 10.06 14.814 10.208L16.2955 11.7115C16.5875 12.0085 16.588 12.4915 16.2965 12.7885L14.8135 14.292C14.6685 14.44 14.4755 14.5215 14.2695 14.5215Z" fill="black"/>
<path id="Vector_11" opacity="0.07" d="M14.2695 14.2715C13.983 14.2715 13.75 14.039 13.75 13.7535V13.25H9.806C9.4995 13.25 9.25 13.0005 9.25 12.694V11.8065C9.25 11.5 9.4995 11.2505 9.806 11.2505H13.75V10.747C13.75 10.4615 13.983 10.229 14.2695 10.229C14.4075 10.229 14.5375 10.2835 14.636 10.384L16.118 11.8875C16.315 12.0875 16.315 12.414 16.1185 12.614L14.636 14.1175C14.5375 14.217 14.4075 14.2715 14.2695 14.2715Z" fill="black"/>
<path id="Vector_12" d="M15.94 12.062L14.458 10.5585C14.29 10.388 14 10.507 14 10.7465V11.5H9.806C9.637 11.5 9.5 11.637 9.5 11.806V12.6935C9.5 12.863 9.637 13 9.806 13H14V13.7535C14 13.993 14.29 14.112 14.458 13.9415L15.94 12.438C16.0425 12.3335 16.0425 12.1665 15.94 12.062Z" fill="white"/>
</g>
<defs>
<linearGradient id="paint0_linear_206_5528" x1="2.8665" y1="12.4385" x2="2.8665" y2="3.5" gradientUnits="userSpaceOnUse">
<stop stop-color="#92A3B0"/>
<stop offset="0.015" stop-color="#A3B5C4"/>
<stop offset="0.032" stop-color="#AEC2D1"/>
<stop offset="0.046" stop-color="#B2C6D6"/>
</linearGradient>
<linearGradient id="paint1_linear_206_5528" x1="12.75" y1="19.5" x2="12.75" y2="15.5" gradientUnits="userSpaceOnUse">
<stop stop-color="#92A3B0"/>
<stop offset="0.015" stop-color="#A3B5C4"/>
<stop offset="0.032" stop-color="#AEC2D1"/>
<stop offset="0.046" stop-color="#B2C6D6"/>
</linearGradient>
<linearGradient id="paint2_linear_206_5528" x1="0.378" y1="3.378" x2="1.692" y2="4.692" gradientUnits="userSpaceOnUse">
<stop stop-color="#199AE0"/>
<stop offset="1" stop-color="#0782D8"/>
</linearGradient>
<linearGradient id="paint3_linear_206_5528" x1="3.3865" y1="12.265" x2="22.171" y2="12.265" gradientUnits="userSpaceOnUse">
<stop stop-color="#3079D6"/>
<stop offset="1" stop-color="#297CD2"/>
</linearGradient>
<linearGradient id="paint4_linear_206_5528" x1="3" y1="7.7375" x2="22.417" y2="7.7375" gradientUnits="userSpaceOnUse">
<stop stop-color="#42A3F2"/>
<stop offset="1" stop-color="#42A4EB"/>
</linearGradient>
</defs>
</svg>
