<svg width="24" height="24" viewBox="0 0 24 24" fill="none" xmlns="http://www.w3.org/2000/svg">
<g id="check-file">
<path id="Vector" d="M19.5 8V20.5C19.5 21.0525 19.0525 21.5 18.5 21.5H5.5C4.9475 21.5 4.5 21.0525 4.5 20.5V3.5C4.5 2.9475 4.9475 2.5 5.5 2.5H14L15.5 6.5L19.5 8Z" fill="url(#paint0_linear_206_5515)"/>
<path id="Vector_2" d="M14 2.5V7C14 7.5525 14.4475 8 15 8H19.5L14 2.5Z" fill="url(#paint1_linear_206_5515)"/>
<path id="Vector_3" d="M10.745 17.8855L7.61451 14.755C7.46151 14.602 7.46151 14.3545 7.61451 14.2015L8.16801 13.648C8.32101 13.495 8.56851 13.495 8.72151 13.648L11.022 15.9485L15.279 11.6915C15.432 11.5385 15.6795 11.5385 15.8325 11.6915L16.386 12.245C16.539 12.398 16.539 12.6455 16.386 12.7985L11.2985 17.8855C11.1455 18.038 10.898 18.038 10.745 17.8855Z" fill="#057093"/>
</g>
<defs>
<linearGradient id="paint0_linear_206_5515" x1="9.22929" y1="2.79171" x2="19.7783" y2="18.8491" gradientUnits="userSpaceOnUse">
<stop stop-color="#7DD8F3"/>
<stop offset="1" stop-color="#45B0D0"/>
</linearGradient>
<linearGradient id="paint1_linear_206_5515" x1="14.2645" y1="7.7355" x2="16.8" y2="5.2" gradientUnits="userSpaceOnUse">
<stop stop-color="#3079D6"/>
<stop offset="1" stop-color="#297CD2"/>
</linearGradient>
</defs>
</svg>
