<svg width="24" height="24" viewBox="0 0 24 24" fill="none" xmlns="http://www.w3.org/2000/svg">
<g id="chrome-web-store">
<path id="Vector" d="M21.195 5.535V18.5C21.195 19.33 20.525 20 19.695 20H4.19C3.36 20 2.69 19.33 2.69 18.5V5.535H21.195Z" fill="#C0C9CC"/>
<path id="Vector_2" d="M21.195 5.535V13H2.69V5.535H7.5V4.5L9 3V5.535H14.5V3L16 4.5V5.535H21.195Z" fill="url(#paint0_linear_206_5547)"/>
<path id="Vector_3" d="M14.5 3H9V4.5H14.5V3Z" fill="url(#paint1_linear_206_5547)"/>
<path id="Vector_4" d="M8.015 18.83L8.71 20H8.29C8.145 19.635 8.045 19.24 8.015 18.83Z" fill="white"/>
<path id="Vector_5" d="M8.73 20C8.69 19.93 8.66 19.855 8.635 19.78C8.635 19.77 8.63 19.755 8.62 19.74C8.585 19.64 8.55 19.535 8.525 19.43C8.505 19.365 8.49 19.305 8.48 19.24C8.475 19.235 8.475 19.225 8.475 19.22C8.45 19.105 8.43 18.99 8.42 18.87C8.405 18.75 8.4 18.625 8.4 18.5C8.4 16.51 10.01 14.9 12 14.9V14.5C12.625 14.5 13.22 14.645 13.745 14.9C15.08 15.545 16 16.915 16 18.5C16 19.03 15.895 19.535 15.71 20H8.735" fill="white"/>
<path id="Vector_6" d="M8.71 20H4.145C4.05 19.515 4 19.015 4 18.5C4 16.92 4.46 15.445 5.255 14.205H5.265L8.015 18.83L8.71 20Z" fill="url(#paint2_linear_206_5547)"/>
<path id="Vector_7" d="M20 18.5C20 19.01 19.95 19.515 19.86 20H15.265C15.48 19.545 15.6 19.035 15.6 18.5C15.6 16.51 13.99 14.9 12 14.9V10.5C14.145 10.5 16.09 11.345 17.525 12.725C17.66 12.85 17.785 12.98 17.905 13.11C18.15 13.38 18.375 13.665 18.58 13.96C18.685 14.11 18.78 14.265 18.875 14.42C18.97 14.575 19.06 14.735 19.14 14.9C19.685 15.985 20 17.205 20 18.5Z" fill="url(#paint3_linear_206_5547)"/>
<path id="Vector_8" d="M14.8 18.5C14.8 19.05 14.64 19.565 14.36 20H9.64C9.36 19.565 9.2 19.05 9.2 18.5C9.2 16.955 10.455 15.7 12 15.7C13.545 15.7 14.8 16.955 14.8 18.5Z" fill="url(#paint4_linear_206_5547)"/>
<path id="Vector_9" d="M8.73 20C8.69 19.93 8.66 19.855 8.635 19.78C8.665 19.855 8.7 19.93 8.735 20" fill="url(#paint5_linear_206_5547)"/>
<path id="Vector_10" d="M19.135 14.9H12C10.01 14.9 8.4 16.51 8.4 18.5C8.4 18.625 8.405 18.75 8.42 18.87C8.43 18.99 8.45 19.105 8.475 19.22C8.475 19.225 8.475 19.235 8.48 19.24C8.49 19.305 8.505 19.365 8.525 19.43C8.55 19.535 8.58 19.64 8.62 19.74C8.63 19.755 8.635 19.77 8.635 19.78C8.66 19.855 8.69 19.93 8.73 20H8.71L8.015 18.83L5.265 14.205H5.255C5.335 14.08 5.42 13.955 5.505 13.83C5.61 13.685 5.72 13.545 5.835 13.405C5.935 13.285 6.035 13.17 6.14 13.055C6.225 12.965 6.305 12.88 6.39 12.8C6.45 12.74 6.515 12.68 6.575 12.625C6.795 12.42 7.025 12.23 7.265 12.055C7.38 11.965 7.5 11.885 7.62 11.805C8.065 11.51 8.545 11.265 9.045 11.065C9.16 11.02 9.275 10.975 9.395 10.935C9.435 10.92 9.48 10.905 9.525 10.89C9.665 10.845 9.805 10.805 9.95 10.765C10.11 10.72 10.275 10.685 10.445 10.65C10.615 10.62 10.78 10.59 10.955 10.57C11.09 10.55 11.225 10.535 11.36 10.525C11.425 10.52 11.49 10.515 11.555 10.515C11.705 10.505 11.85 10.5 12 10.5C14.145 10.5 16.09 11.345 17.525 12.725C17.66 12.85 17.785 12.98 17.905 13.11C18.15 13.38 18.375 13.665 18.58 13.96C18.685 14.11 18.78 14.265 18.875 14.42C18.965 14.575 19.055 14.735 19.135 14.9Z" fill="url(#paint6_linear_206_5547)"/>
</g>
<defs>
<linearGradient id="paint0_linear_206_5547" x1="11.9425" y1="1.4765" x2="11.9425" y2="14.5975" gradientUnits="userSpaceOnUse">
<stop stop-color="#BAC1C6"/>
<stop offset="0.703" stop-color="#9CA5AD"/>
</linearGradient>
<linearGradient id="paint1_linear_206_5547" x1="11.75" y1="1.2385" x2="11.75" y2="5.6255" gradientUnits="userSpaceOnUse">
<stop offset="0.117" stop-color="#889097"/>
<stop offset="0.465" stop-color="#64717C"/>
</linearGradient>
<linearGradient id="paint2_linear_206_5547" x1="3.9095" y1="16.6795" x2="9.0285" y2="19.4015" gradientUnits="userSpaceOnUse">
<stop stop-color="#4CAF50"/>
<stop offset="0.489" stop-color="#4AAF50"/>
<stop offset="0.665" stop-color="#43AD50"/>
<stop offset="0.79" stop-color="#38AA50"/>
<stop offset="0.892" stop-color="#27A550"/>
<stop offset="0.978" stop-color="#11A050"/>
<stop offset="1" stop-color="#0A9E50"/>
</linearGradient>
<linearGradient id="paint3_linear_206_5547" x1="16" y1="20" x2="16" y2="13.1605" gradientUnits="userSpaceOnUse">
<stop stop-color="#FFD747"/>
<stop offset="0.482" stop-color="#FFD645"/>
<stop offset="0.655" stop-color="#FED43E"/>
<stop offset="0.779" stop-color="#FCCF33"/>
<stop offset="0.879" stop-color="#FAC922"/>
<stop offset="0.964" stop-color="#F7C10C"/>
<stop offset="1" stop-color="#F5BC00"/>
</linearGradient>
<linearGradient id="paint4_linear_206_5547" x1="10.0455" y1="16.496" x2="13.9545" y2="20.4055" gradientUnits="userSpaceOnUse">
<stop stop-color="#2AA4F4"/>
<stop offset="1" stop-color="#007AD9"/>
</linearGradient>
<linearGradient id="paint5_linear_206_5547" x1="8.6985" y1="19.8815" x2="8.668" y2="19.9005" gradientUnits="userSpaceOnUse">
<stop stop-color="#F7572F"/>
<stop offset="0.523" stop-color="#F7552D"/>
<stop offset="0.712" stop-color="#F75026"/>
<stop offset="0.846" stop-color="#F7461B"/>
<stop offset="0.954" stop-color="#F7390A"/>
<stop offset="1" stop-color="#F73100"/>
</linearGradient>
<linearGradient id="paint6_linear_206_5547" x1="16.852" y1="11.18" x2="7.0325" y2="17.3155" gradientUnits="userSpaceOnUse">
<stop stop-color="#F7572F"/>
<stop offset="0.523" stop-color="#F7552D"/>
<stop offset="0.712" stop-color="#F75026"/>
<stop offset="0.846" stop-color="#F7461B"/>
<stop offset="0.954" stop-color="#F7390A"/>
<stop offset="1" stop-color="#F73100"/>
</linearGradient>
</defs>
</svg>
