<svg width="24" height="24" viewBox="0 0 24 24" fill="none" xmlns="http://www.w3.org/2000/svg">
<g id="climate-change">
<path id="Vector" d="M22 7.5V22H18V7.5C18 7.224 18.224 7 18.5 7H21.5C21.776 7 22 7.224 22 7.5Z" fill="url(#paint0_linear_206_5585)"/>
<path id="Vector_2" d="M18 10V22H14V10.5C14 10.224 14.224 10 14.5 10H18Z" fill="url(#paint1_linear_206_5585)"/>
<path id="Vector_3" d="M14 13V22H10V13.5C10 13.224 10.224 13 10.5 13H14Z" fill="url(#paint2_linear_206_5585)"/>
<path id="Vector_4" d="M10 16V22H6V16.5C6 16.224 6.224 16 6.5 16H10Z" fill="url(#paint3_linear_206_5585)"/>
<path id="Vector_5" d="M6 19V22H2V19.5C2 19.224 2.224 19 2.5 19H6Z" fill="url(#paint4_linear_206_5585)"/>
<path id="Vector_6" d="M6.5 8.9045V2C6.5 1.724 6.276 1.5 6 1.5H4C3.724 1.5 3.5 1.724 3.5 2V8.9045C2.604 9.4235 2 10.39 2 11.5C2 13.157 3.343 14.5 5 14.5C6.657 14.5 8 13.157 8 11.5C8 10.39 7.396 9.4235 6.5 8.9045Z" fill="url(#paint5_linear_206_5585)"/>
<path id="Vector_7" d="M5.5 9.5705V5H4.5V9.5705C3.639 9.7935 3 10.569 3 11.5C3 12.6045 3.8955 13.5 5 13.5C6.1045 13.5 7 12.6045 7 11.5C7 10.569 6.361 9.7935 5.5 9.5705Z" fill="url(#paint6_linear_206_5585)"/>
<path id="Vector_8" d="M5.5 2.5H4.5V5H5.5V2.5Z" fill="#1B9DE2"/>
</g>
<defs>
<linearGradient id="paint0_linear_206_5585" x1="18" y1="14.5" x2="22" y2="14.5" gradientUnits="userSpaceOnUse">
<stop stop-color="#50E6FF"/>
<stop offset="1" stop-color="#35C1F1"/>
</linearGradient>
<linearGradient id="paint1_linear_206_5585" x1="14" y1="16" x2="18" y2="16" gradientUnits="userSpaceOnUse">
<stop stop-color="#32BDEF"/>
<stop offset="1" stop-color="#1EA2E4"/>
</linearGradient>
<linearGradient id="paint2_linear_206_5585" x1="10" y1="17.5" x2="14" y2="17.5" gradientUnits="userSpaceOnUse">
<stop stop-color="#199BE2"/>
<stop offset="1" stop-color="#0078D4"/>
</linearGradient>
<linearGradient id="paint3_linear_206_5585" x1="6" y1="19" x2="10" y2="19" gradientUnits="userSpaceOnUse">
<stop stop-color="#0078D4"/>
<stop offset="1" stop-color="#0D62AB"/>
</linearGradient>
<linearGradient id="paint4_linear_206_5585" x1="2" y1="20.5" x2="6" y2="20.5" gradientUnits="userSpaceOnUse">
<stop stop-color="#0078D4"/>
<stop offset="1" stop-color="#0D578E"/>
</linearGradient>
<linearGradient id="paint5_linear_206_5585" x1="2" y1="8" x2="8" y2="8" gradientUnits="userSpaceOnUse">
<stop stop-color="#50E6FF"/>
<stop offset="1" stop-color="#35C1F1"/>
</linearGradient>
<linearGradient id="paint6_linear_206_5585" x1="3" y1="9.25" x2="7" y2="9.25" gradientUnits="userSpaceOnUse">
<stop stop-color="#D12845"/>
<stop offset="1" stop-color="#AF2031"/>
</linearGradient>
</defs>
</svg>
