<svg width="24" height="24" viewBox="0 0 24 24" fill="none" xmlns="http://www.w3.org/2000/svg">
<g id="cloud-development">
<path id="Vector" d="M18.5 19C18.434 19 18.367 18.9875 18.303 18.9595L16.0155 17.979C15.0945 17.5845 14.5 16.6825 14.5 15.681V12.5C14.5 12.2235 14.7235 12 15 12C15.2765 12 15.5 12.2235 15.5 12.5V15.681C15.5 16.2815 15.857 16.823 16.409 17.06L18.6965 18.0405C18.9505 18.1495 19.068 18.4435 18.959 18.697C18.8785 18.8865 18.694 19 18.5 19Z" fill="url(#paint0_linear_206_5620)"/>
<path id="Vector_2" d="M18.5 20C19.3284 20 20 19.3284 20 18.5C20 17.6716 19.3284 17 18.5 17C17.6716 17 17 17.6716 17 18.5C17 19.3284 17.6716 20 18.5 20Z" fill="url(#paint1_linear_206_5620)"/>
<path id="Vector_3" d="M5.5 19C5.306 19 5.1215 18.8865 5.0405 18.697C4.9315 18.4435 5.0495 18.1495 5.303 18.0405L7.5905 17.06C8.143 16.823 8.5 16.2815 8.5 15.681V12.5C8.5 12.2235 8.7235 12 9 12C9.2765 12 9.5 12.2235 9.5 12.5V15.681C9.5 16.6825 8.9055 17.5845 7.9845 17.979L5.697 18.9595C5.633 18.9875 5.566 19 5.5 19Z" fill="url(#paint2_linear_206_5620)"/>
<path id="Vector_4" d="M12 20.5C11.7235 20.5 11.5 20.2765 11.5 20V12C11.5 11.7235 11.7235 11.5 12 11.5C12.2765 11.5 12.5 11.7235 12.5 12V20C12.5 20.2765 12.2765 20.5 12 20.5Z" fill="url(#paint3_linear_206_5620)"/>
<path id="Vector_5" d="M17.0915 4.517C15.996 2.711 14.017 1.5 11.75 1.5C8.7065 1.5 6.174 3.6765 5.617 6.5575C3.848 6.859 2.5 8.395 2.5 10.25C2.5 12.321 4.179 14 6.25 14C6.2535 14 6.257 13.9995 6.2605 13.9995V14H16.75C19.3735 14 21.5 11.8735 21.5 9.25C21.5 6.742 19.555 4.693 17.0915 4.517Z" fill="url(#paint4_linear_206_5620)"/>
<path id="Vector_6" d="M12 22C12.8284 22 13.5 21.3284 13.5 20.5C13.5 19.6716 12.8284 19 12 19C11.1716 19 10.5 19.6716 10.5 20.5C10.5 21.3284 11.1716 22 12 22Z" fill="url(#paint5_linear_206_5620)"/>
<path id="Vector_7" d="M5.5 20C6.32843 20 7 19.3284 7 18.5C7 17.6716 6.32843 17 5.5 17C4.67157 17 4 17.6716 4 18.5C4 19.3284 4.67157 20 5.5 20Z" fill="url(#paint6_linear_206_5620)"/>
</g>
<defs>
<linearGradient id="paint0_linear_206_5620" x1="16.75" y1="13.3055" x2="16.75" y2="16.865" gradientUnits="userSpaceOnUse">
<stop offset="0.168" stop-color="#C9CDCF"/>
<stop offset="0.423" stop-color="#DCDEE0"/>
<stop offset="0.477" stop-color="#E1E2E4"/>
<stop offset="0.859" stop-color="#E4E4E6"/>
</linearGradient>
<linearGradient id="paint1_linear_206_5620" x1="17.833" y1="17.246" x2="19.1995" y2="19.816" gradientUnits="userSpaceOnUse">
<stop stop-color="#33BEF0"/>
<stop offset="1" stop-color="#0A85D9"/>
</linearGradient>
<linearGradient id="paint2_linear_206_5620" x1="7.25" y1="13.3055" x2="7.25" y2="16.865" gradientUnits="userSpaceOnUse">
<stop offset="0.194" stop-color="#C9CDCF"/>
<stop offset="0.503" stop-color="#E1E2E4"/>
<stop offset="0.859" stop-color="#E4E4E6"/>
</linearGradient>
<linearGradient id="paint3_linear_206_5620" x1="12" y1="13.3055" x2="12" y2="16.865" gradientUnits="userSpaceOnUse">
<stop offset="0.149" stop-color="#C9CDCF"/>
<stop offset="0.318" stop-color="#D2D5D7"/>
<stop offset="0.494" stop-color="#E1E2E4"/>
<stop offset="0.859" stop-color="#E4E4E6"/>
</linearGradient>
<linearGradient id="paint4_linear_206_5620" x1="8.416" y1="2.8855" x2="15.0985" y2="15.4535" gradientUnits="userSpaceOnUse">
<stop stop-color="#2AA4F4"/>
<stop offset="1" stop-color="#007AD9"/>
</linearGradient>
<linearGradient id="paint5_linear_206_5620" x1="11.333" y1="19.246" x2="12.6995" y2="21.816" gradientUnits="userSpaceOnUse">
<stop stop-color="#33BEF0"/>
<stop offset="1" stop-color="#0A85D9"/>
</linearGradient>
<linearGradient id="paint6_linear_206_5620" x1="4.833" y1="17.246" x2="6.1995" y2="19.816" gradientUnits="userSpaceOnUse">
<stop stop-color="#33BEF0"/>
<stop offset="1" stop-color="#0A85D9"/>
</linearGradient>
</defs>
</svg>
