<svg width="24" height="24" viewBox="0 0 24 24" fill="none" xmlns="http://www.w3.org/2000/svg">
<g id="cloud-mail" clip-path="url(#clip0_206_5632)">
<path id="Vector" d="M24 13C24 16.3 21.3 19 18 19C17.1 19 5.65 19 4.75 19C2.15 19 0 16.9 0 14.25C0 12 1.6 10.1 3.7 9.6C4.55 6.1 7.75 3.5 11.5 3.5C14.25 3.5 16.7 4.9 18.1 7C21.4 7.05 24 9.75 24 13Z" fill="url(#paint0_linear_206_5632)"/>
<path id="Vector_2" opacity="0.05" d="M18.1 7C16.8 5.05 14.65 3.75 12.15 3.55C12.1 3.65 12 3.75 12 3.85C11.95 4.15 12 4.4 12.2 4.6L14.4 6.8V8.8C14.4 9.25 14.75 9.6 15.2 9.6H17.15L19.35 11.8C19.5 11.95 19.7 12.05 19.95 12.05C20.3 12.05 20.6 11.85 20.75 11.5L21.8 8.4C20.8 7.55 19.5 7.05 18.1 7Z" fill="black"/>
<path id="Vector_3" opacity="0.07" d="M18.1 7C16.85 5.15 14.8 3.85 12.5 3.55C12.4 3.65 12.3 3.75 12.25 3.9C12.2 4.1 12.25 4.3 12.4 4.45L14.65 6.7V8.8C14.65 9.1 14.9 9.35 15.2 9.35H17.3L19.55 11.6C19.65 11.7 19.8 11.75 19.95 11.75C20.2 11.75 20.4 11.6 20.5 11.35L21.6 8.2C20.6 7.45 19.4 7.05 18.1 7Z" fill="black"/>
<path id="Vector_4" d="M23.6 -2.57976e-07L12.7 3.75C12.45 3.85 12.4 4.1 12.6 4.3L19.75 11.45C19.9 11.6 20.2 11.55 20.3 11.35L24 0.4C24.05 0.15 23.85 -0.0500003 23.6 -2.57976e-07Z" fill="#CCCCCC"/>
<path id="Vector_5" d="M16.15 7.85L19.7 11.4C19.85 11.55 20.15 11.5 20.25 11.3L24 0.399998C24.05 0.299998 24 0.149998 23.9 0.0999985L16.15 7.85Z" fill="#999999"/>
<path id="Vector_6" d="M22.5 1.5L14.9 6.6V8.8C14.9 8.95 15.05 9.1 15.2 9.1H17.4L22.5 1.5Z" fill="#64717C"/>
</g>
<defs>
<linearGradient id="paint0_linear_206_5632" x1="7.121" y1="4.179" x2="15.086" y2="19.3475" gradientUnits="userSpaceOnUse">
<stop stop-color="#2AA4F4"/>
<stop offset="1" stop-color="#007AD9"/>
</linearGradient>
<clipPath id="clip0_206_5632">
<rect width="24" height="24" fill="white"/>
</clipPath>
</defs>
</svg>
