<svg width="24" height="24" viewBox="0 0 24 24" fill="none" xmlns="http://www.w3.org/2000/svg">
<g id="cloud-sync">
<path id="Vector" d="M24 13C24 16.315 21.315 19 18 19C17.1 19 5.67 19 4.75 19C2.125 19 0 16.875 0 14.25C0 11.98 1.59 10.08 3.725 9.61C4.575 6.105 7.73 3.5 11.5 3.5C14.255 3.5 16.68 4.89 18.12 7.005C21.38 7.065 24 9.725 24 13Z" fill="url(#paint0_linear_206_5639)"/>
<path id="Vector_2" opacity="0.05" d="M10.5 14.1035V15.75C10.5 16.1635 10.1635 16.5 9.75 16.5H8.1035C7.7995 16.5 7.5275 16.3185 7.4105 16.037C7.2945 15.756 7.358 15.435 7.573 15.2195L7.7185 15.074C7.2475 14.2965 7 13.415 7 12.5C7 9.8525 9.0695 7.66 11.7105 7.5085C11.916 7.4965 12.1155 7.5715 12.263 7.7115C12.4135 7.854 12.5 8.0535 12.5 8.2605V8.7615C12.5 9.152 12.1905 9.48 11.7955 9.5075C10.2275 9.614 9 10.928 9 12.5C9 12.8685 9.072 13.235 9.211 13.582L9.22 13.573C9.435 13.358 9.756 13.2935 10.0375 13.4105C10.319 13.5275 10.5 13.7995 10.5 14.1035ZM16.28 9.927L16.427 9.78C16.6425 9.5645 16.706 9.244 16.5895 8.9625C16.4725 8.6815 16.2005 8.5 15.8965 8.5H14.25C13.8365 8.5 13.5 8.8365 13.5 9.25V10.8965C13.5 11.2005 13.6815 11.4725 13.963 11.5895C14.244 11.7055 14.5655 11.6415 14.7805 11.427L14.7935 11.414C14.9295 11.759 15 12.1265 15 12.5C15 14.072 13.7725 15.386 12.2045 15.4925C11.8095 15.5205 11.5 15.848 11.5 16.239V16.74C11.5 16.9465 11.5865 17.146 11.737 17.289C11.875 17.42 12.06 17.4935 12.249 17.4935C12.2625 17.4935 12.276 17.493 12.2895 17.492C14.9305 17.34 17 15.1475 17 12.5C17 11.5865 16.7525 10.705 16.28 9.927Z" fill="black"/>
<path id="Vector_3" opacity="0.07" d="M10.25 14.1035V15.75C10.25 16.026 10.026 16.25 9.75 16.25H8.1035C7.901 16.25 7.719 16.129 7.6415 15.9415C7.564 15.754 7.6065 15.54 7.75 15.3965L8.037 15.1095C7.5215 14.3315 7.25 13.434 7.25 12.5C7.25 9.985 9.216 7.902 11.725 7.758C11.858 7.7495 11.993 7.8 12.091 7.8935C12.192 7.9885 12.2495 8.1225 12.2495 8.2605V8.7615C12.2495 9.0255 12.047 9.239 11.778 9.258C10.08 9.373 8.75 10.7975 8.75 12.5C8.75 13.0225 8.883 13.539 9.1355 14.0105L9.396 13.75C9.539 13.607 9.7525 13.5635 9.941 13.6415C10.129 13.719 10.25 13.901 10.25 14.1035ZM15.9615 9.892L16.25 9.6035C16.3935 9.46 16.436 9.246 16.3585 9.0585C16.281 8.871 16.099 8.75 15.8965 8.75H14.25C13.974 8.75 13.75 8.974 13.75 9.25V10.8965C13.75 11.099 13.871 11.281 14.0585 11.3585C14.2465 11.436 14.4605 11.393 14.6035 11.25L14.8695 10.984C15.119 11.4515 15.25 11.9695 15.25 12.5C15.25 14.2025 13.92 15.627 12.2215 15.742C11.9525 15.761 11.75 15.9745 11.75 16.2385V16.7395C11.75 16.8775 11.8075 17.0115 11.9085 17.1065C12.0005 17.194 12.123 17.2425 12.2485 17.2425C12.2575 17.2425 12.266 17.242 12.275 17.2415C14.784 17.098 16.75 15.015 16.75 12.5C16.75 11.5675 16.478 10.6705 15.9615 9.892Z" fill="black"/>
<path id="Vector_4" d="M12 8.761C12 8.8945 11.894 8.999 11.7605 9.008C9.942 9.1315 8.5 10.651 8.5 12.5C8.5 13.209 8.722 13.8625 9.086 14.414L9.5735 13.9265C9.7305 13.7695 10 13.881 10 14.1035V15.75C10 15.888 9.888 16 9.75 16H8.1035C7.881 16 7.769 15.7305 7.9265 15.573L8.3615 15.138C7.8215 14.3965 7.5 13.486 7.5 12.5C7.5 10.106 9.3785 8.143 11.739 8.0075C11.881 7.9995 12 8.1185 12 8.2605V8.761ZM15.637 9.863L16.0735 9.4265C16.2305 9.2695 16.119 9 15.8965 9H14.25C14.112 9 14 9.112 14 9.25V10.8965C14 11.119 14.2695 11.231 14.427 11.0735L14.92 10.5805C15.2845 11.132 15.5 11.7905 15.5 12.5C15.5 14.349 14.058 15.8685 12.2395 15.992C12.106 16.001 12 16.1055 12 16.239V16.7395C12 16.8815 12.119 17.0005 12.261 16.9925C14.6215 16.857 16.5 14.894 16.5 12.5C16.5 11.514 16.1775 10.6045 15.637 9.863Z" fill="white"/>
</g>
<defs>
<linearGradient id="paint0_linear_206_5639" x1="7.121" y1="4.179" x2="15.086" y2="19.3475" gradientUnits="userSpaceOnUse">
<stop stop-color="#2AA4F4"/>
<stop offset="1" stop-color="#007AD9"/>
</linearGradient>
</defs>
</svg>
