<svg width="24" height="24" viewBox="0 0 24 24" fill="none" xmlns="http://www.w3.org/2000/svg">
<g id="cloud-connection">
<path id="Vector" d="M12.841 19H9C7.6215 19 6.5 17.8785 6.5 16.5V13.5C6.5 13.224 6.7235 13 7 13C7.2765 13 7.5 13.224 7.5 13.5V16.5C7.5 17.327 8.173 18 9 18H12.841C13.1175 18 13.341 18.2235 13.341 18.5C13.341 18.7765 13.117 19 12.841 19Z" fill="url(#paint0_linear_206_5605)"/>
<path id="Vector_2" d="M18.5 19.9865V20.014C18.5 20.2825 18.2825 20.5 18.0135 20.5H15.977V19.5H18.0135C18.2825 19.5 18.5 19.7175 18.5 19.9865Z" fill="url(#paint1_linear_206_5605)"/>
<path id="Vector_3" d="M18.5 16.9865V17.014C18.5 17.2825 18.2825 17.5 18.0135 17.5H15.977V16.5H18.0135C18.2825 16.5 18.5 16.7175 18.5 16.9865Z" fill="url(#paint2_linear_206_5605)"/>
<path id="Vector_4" d="M11 19.5V17.5C11 17.01 11.286 16.5085 11.7395 16.2895C12.1325 16.099 12.5665 16 13.006 16H15.3465V21H13.006C12.566 21 12.1325 20.901 11.739 20.7105C11.286 20.4915 11 19.99 11 19.5Z" fill="#A1AAB3"/>
<path id="Vector_5" d="M15.0315 21V16C15.0315 15.724 15.2555 15.5 15.5315 15.5H16.108C16.384 15.5 16.608 15.724 16.608 16V21C16.608 21.276 16.384 21.5 16.108 21.5H15.5315C15.255 21.5 15.0315 21.276 15.0315 21Z" fill="#8795A1"/>
<path id="Vector_6" d="M17.0915 4.517C15.996 2.711 14.017 1.5 11.75 1.5C8.7065 1.5 6.174 3.6765 5.617 6.5575C3.848 6.859 2.5 8.395 2.5 10.25C2.5 12.321 4.179 14 6.25 14C6.2535 14 6.257 13.9995 6.2605 13.9995V14H16.75C19.3735 14 21.5 11.8735 21.5 9.25C21.5 6.742 19.555 4.693 17.0915 4.517Z" fill="url(#paint3_linear_206_5605)"/>
</g>
<defs>
<linearGradient id="paint0_linear_206_5605" x1="11.4095" y1="16" x2="9.239" y2="16" gradientUnits="userSpaceOnUse">
<stop offset="0.168" stop-color="#C9CDCF"/>
<stop offset="0.269" stop-color="#D2D5D7"/>
<stop offset="0.482" stop-color="#E1E2E4"/>
<stop offset="0.859" stop-color="#E4E4E6"/>
</linearGradient>
<linearGradient id="paint1_linear_206_5605" x1="18.413" y1="20" x2="16.336" y2="20" gradientUnits="userSpaceOnUse">
<stop stop-color="#FEDE00"/>
<stop offset="0.787" stop-color="#FFD400"/>
<stop offset="1" stop-color="#FFD000"/>
</linearGradient>
<linearGradient id="paint2_linear_206_5605" x1="18.473" y1="17" x2="16.57" y2="17" gradientUnits="userSpaceOnUse">
<stop stop-color="#FEDE00"/>
<stop offset="0.567" stop-color="#FED900"/>
<stop offset="1" stop-color="#FFD000"/>
</linearGradient>
<linearGradient id="paint3_linear_206_5605" x1="8.416" y1="2.8855" x2="15.0985" y2="15.4535" gradientUnits="userSpaceOnUse">
<stop stop-color="#2AA4F4"/>
<stop offset="1" stop-color="#007AD9"/>
</linearGradient>
</defs>
</svg>
