<svg width="24" height="24" viewBox="0 0 24 24" fill="none" xmlns="http://www.w3.org/2000/svg">
<g id="cloud-database" clip-path="url(#clip0_206_5612)">
<path id="Vector" d="M24 12.5C24 9.225 21.38 6.565 18.12 6.505C16.68 4.39 14.255 3 11.5 3C7.73 3 4.575 5.605 3.725 9.11C1.59 9.58 0 11.48 0 13.75C0 16.375 2.125 18.5 4.75 18.5H5.012C5.855 20.272 7.657 21.5 9.75 21.5C11.394 21.5 12.8605 20.743 13.823 19.56C14.37 20.138 15.142 20.5 16 20.5C17.331 20.5 18.4575 19.6325 18.85 18.433C21.761 18.0195 24 15.5255 24 12.5Z" fill="url(#paint0_linear_206_5612)"/>
<path id="Vector_2" opacity="0.05" d="M23.31 15.285C23.27 15.365 23.23 15.44 23.185 15.51C22.285 17.065 20.7 18.17 18.85 18.435C18.535 19.4 17.74 20.15 16.75 20.405C16.665 20.425 16.585 20.445 16.5 20.46V16.25C16.5 15.12 19.295 15 20.5 15C21.19 15 22.405 15.04 23.31 15.285Z" fill="black"/>
<path id="Vector_3" opacity="0.07" d="M23.185 15.51C22.285 17.065 20.7 18.17 18.85 18.435C18.535 19.4 17.74 20.15 16.75 20.405V16.25C16.75 15.28 20.115 15.25 20.5 15.25C20.74 15.25 22.165 15.26 23.185 15.51Z" fill="black"/>
<path id="Vector_4" d="M24 20.5315H17C17 20.5315 17 22.9065 17 23.0755C17 23.5865 18.567 24.0005 20.5 24.0005C22.433 24.0005 24 23.5865 24 23.0755C24 22.9065 24 20.5315 24 20.5315Z" fill="url(#paint1_linear_206_5612)"/>
<path id="Vector_5" d="M24 18.344H17C17 18.344 17 20.8475 17 21.025C17 21.5635 18.567 22 20.5 22C22.433 22 24 21.5635 24 21.025C24 20.8475 24 18.344 24 18.344Z" fill="url(#paint2_linear_206_5612)"/>
<path id="Vector_6" d="M24 16.25H17C17 16.25 17 18.4865 17 18.664C17 19.1255 18.567 19.5 20.5 19.5C22.433 19.5 24 19.1255 24 18.664C24 18.4865 24 16.25 24 16.25Z" fill="url(#paint3_linear_206_5612)"/>
<path id="Vector_7" d="M20.5 17C22.433 17 24 16.6642 24 16.25C24 15.8358 22.433 15.5 20.5 15.5C18.567 15.5 17 15.8358 17 16.25C17 16.6642 18.567 17 20.5 17Z" fill="url(#paint4_linear_206_5612)"/>
</g>
<defs>
<linearGradient id="paint0_linear_206_5612" x1="5.317" y1="0.244" x2="16.4105" y2="21.3705" gradientUnits="userSpaceOnUse">
<stop stop-color="#FCFCFC"/>
<stop offset="0.95" stop-color="#C3C9CD"/>
</linearGradient>
<linearGradient id="paint1_linear_206_5612" x1="17" y1="22.266" x2="24" y2="22.266" gradientUnits="userSpaceOnUse">
<stop stop-color="#11408A"/>
<stop offset="1" stop-color="#103F8F"/>
</linearGradient>
<linearGradient id="paint2_linear_206_5612" x1="17" y1="20.172" x2="24" y2="20.172" gradientUnits="userSpaceOnUse">
<stop stop-color="#1D59B3"/>
<stop offset="1" stop-color="#195BBC"/>
</linearGradient>
<linearGradient id="paint3_linear_206_5612" x1="17" y1="17.875" x2="24" y2="17.875" gradientUnits="userSpaceOnUse">
<stop stop-color="#3079D6"/>
<stop offset="1" stop-color="#297CD2"/>
</linearGradient>
<linearGradient id="paint4_linear_206_5612" x1="17" y1="16.25" x2="24" y2="16.25" gradientUnits="userSpaceOnUse">
<stop stop-color="#42A3F2"/>
<stop offset="1" stop-color="#42A4EB"/>
</linearGradient>
<clipPath id="clip0_206_5612">
<rect width="24" height="24" fill="white"/>
</clipPath>
</defs>
</svg>
