<svg width="24" height="24" viewBox="0 0 24 24" fill="none" xmlns="http://www.w3.org/2000/svg">
<g id="cloud-backup-restore">
<path id="Vector" d="M24 13C24 16.315 21.315 19 18 19C17.1 19 5.67 19 4.75 19C2.125 19 0 16.875 0 14.25C0 11.98 1.59 10.08 3.725 9.61C4.575 6.105 7.73 3.5 11.5 3.5C14.255 3.5 16.68 4.89 18.12 7.005C21.38 7.065 24 9.725 24 13Z" fill="url(#paint0_linear_206_5597)"/>
<path id="Vector_2" opacity="0.05" d="M12.0895 14.463C11.9725 14.1815 11.7005 14 11.3965 14H11V8.75C11 8.3365 10.6635 8 10.25 8H9.75C9.3365 8 9 8.3365 9 8.75V14H8.6035C8.2995 14 8.0275 14.1815 7.9105 14.463C7.794 14.744 7.858 15.0645 8.073 15.2805L9.4695 16.677C9.6155 16.8235 9.8075 16.896 10 16.896C10.1925 16.896 10.384 16.823 10.5305 16.677L11.927 15.2805C12.142 15.0645 12.206 14.7435 12.0895 14.463Z" fill="black"/>
<path id="Vector_3" opacity="0.07" d="M11.8585 14.5585C11.7805 14.371 11.5995 14.25 11.3965 14.25H10.75V8.75C10.75 8.474 10.5255 8.25 10.25 8.25H9.75001C9.47451 8.25 9.25001 8.474 9.25001 8.75V14.25H8.60351C8.40051 14.25 8.21951 14.371 8.14151 14.5585C8.06401 14.7455 8.10651 14.96 8.25001 15.1035L9.64651 16.5C9.74401 16.5975 9.87201 16.646 10 16.646C10.128 16.646 10.256 16.5975 10.3535 16.5L11.75 15.1035C11.8935 14.96 11.936 14.7455 11.8585 14.5585Z" fill="black"/>
<path id="Vector_4" d="M11.3965 14.5H10.5V8.75C10.5 8.612 10.388 8.5 10.25 8.5H9.75C9.612 8.5 9.5 8.612 9.5 8.75V14.5H8.6035C8.381 14.5 8.269 14.7695 8.4265 14.927L9.823 16.3235C9.9205 16.421 10.079 16.421 10.1765 16.3235L11.573 14.927C11.7305 14.7695 11.619 14.5 11.3965 14.5Z" fill="white"/>
<path id="Vector_5" opacity="0.05" d="M11.9105 10.037C12.0275 10.3185 12.2995 10.5 12.6035 10.5H13V15.75C13 16.1635 13.3365 16.5 13.75 16.5H14.25C14.6635 16.5 15 16.1635 15 15.75V10.5H15.3965C15.7005 10.5 15.9725 10.3185 16.0895 10.037C16.206 9.756 16.142 9.4355 15.927 9.2195L14.5305 7.823C14.3845 7.6765 14.1925 7.604 14 7.604C13.8075 7.604 13.616 7.677 13.4695 7.823L12.073 9.2195C11.858 9.4355 11.794 9.7565 11.9105 10.037Z" fill="black"/>
<path id="Vector_6" opacity="0.07" d="M12.1415 9.9415C12.2195 10.129 12.4005 10.25 12.6035 10.25H13.25V15.75C13.25 16.026 13.4745 16.25 13.75 16.25H14.25C14.5255 16.25 14.75 16.026 14.75 15.75V10.25H15.3965C15.5995 10.25 15.7805 10.129 15.8585 9.9415C15.936 9.7545 15.8935 9.54 15.75 9.3965L14.3535 8C14.256 7.9025 14.128 7.854 14 7.854C13.872 7.854 13.744 7.9025 13.6465 8L12.25 9.3965C12.1065 9.54 12.064 9.7545 12.1415 9.9415Z" fill="black"/>
<path id="Vector_7" d="M12.6035 10H13.5V15.75C13.5 15.888 13.612 16 13.75 16H14.25C14.388 16 14.5 15.888 14.5 15.75V10H15.3965C15.619 10 15.731 9.7305 15.5735 9.573L14.177 8.1765C14.0795 8.079 13.921 8.079 13.8235 8.1765L12.427 9.573C12.2695 9.7305 12.381 10 12.6035 10Z" fill="white"/>
</g>
<defs>
<linearGradient id="paint0_linear_206_5597" x1="7.121" y1="4.179" x2="15.086" y2="19.3475" gradientUnits="userSpaceOnUse">
<stop stop-color="#2AA4F4"/>
<stop offset="1" stop-color="#007AD9"/>
</linearGradient>
</defs>
</svg>
