<svg width="24" height="24" viewBox="0 0 24 24" fill="none" xmlns="http://www.w3.org/2000/svg">
<g id="collapse">
<path id="Vector" d="M14 14.707L16.1465 16.8535L14.427 18.573C14.2695 18.7305 14 18.619 14 18.3965V14.707Z" fill="url(#paint0_linear_206_5675)"/>
<path id="Vector_2" d="M20.8525 20.1485L20.1485 20.855C19.9535 21.051 19.6365 21.051 19.441 20.8555L14.145 15.56C14.055 15.465 14 15.34 14 15.205V14.5C14 14.225 14.225 14 14.5 14H18.395C18.62 14 18.73 14.27 18.575 14.425L17.205 15.795L20.852 19.442C21.047 19.637 21.0475 19.953 20.8525 20.1485Z" fill="url(#paint1_linear_206_5675)"/>
<path id="Vector_3" d="M14.707 10L16.8535 7.8535L18.573 9.573C18.7305 9.7305 18.619 10 18.3965 10H14.707Z" fill="url(#paint2_linear_206_5675)"/>
<path id="Vector_4" d="M20.8565 3.8565C21.052 4.052 21.0515 4.3685 20.8565 4.564L15.56 9.855C15.465 9.945 15.34 10 15.205 10H14.5C14.225 10 14 9.775 14 9.5V5.605C14 5.38 14.27 5.27 14.425 5.425L15.795 6.795L19.4415 3.1485C19.637 2.953 19.9535 2.953 20.1485 3.1485L20.8565 3.8565Z" fill="url(#paint3_linear_206_5675)"/>
<path id="Vector_5" d="M10 14.707L7.8535 16.8535L9.573 18.573C9.7305 18.7305 10 18.619 10 18.3965V14.707Z" fill="url(#paint4_linear_206_5675)"/>
<path id="Vector_6" d="M10 14.5V15.205C10 15.34 9.945 15.465 9.855 15.56L4.5635 20.856C4.3685 21.0515 4.0515 21.0515 3.856 20.856L3.1485 20.1485C2.953 19.953 2.953 19.6365 3.1485 19.4415L6.795 15.795L5.425 14.425C5.27 14.27 5.38 14 5.605 14H9.5C9.775 14 10 14.225 10 14.5Z" fill="url(#paint5_linear_206_5675)"/>
<path id="Vector_7" d="M9.293 10L7.1465 7.8535L5.427 9.573C5.2695 9.7305 5.381 10 5.6035 10H9.293Z" fill="url(#paint6_linear_206_5675)"/>
<path id="Vector_8" d="M10 5.605V9.5C10 9.775 9.775 10 9.5 10H8.795C8.66 10 8.535 9.945 8.44 9.855L3.148 4.563C2.953 4.368 2.9525 4.052 3.1475 3.8565L3.8515 3.15C4.0465 2.954 4.3635 2.954 4.559 3.1495L8.205 6.7955L9.575 5.4255C9.73 5.27 10 5.38 10 5.605Z" fill="url(#paint7_linear_206_5675)"/>
</g>
<defs>
<linearGradient id="paint0_linear_206_5675" x1="13.2285" y1="17.6254" x2="14.7873" y2="16.0666" gradientUnits="userSpaceOnUse">
<stop offset="0.365" stop-color="#199AE0"/>
<stop offset="0.699" stop-color="#1898DE"/>
<stop offset="0.819" stop-color="#1691D8"/>
<stop offset="0.905" stop-color="#1186CC"/>
<stop offset="0.974" stop-color="#0A75BC"/>
<stop offset="1" stop-color="#076CB3"/>
</linearGradient>
<linearGradient id="paint1_linear_206_5675" x1="15.4705" y1="31.095" x2="20.4765" y2="-3.3195" gradientUnits="userSpaceOnUse">
<stop stop-color="#32BDEF"/>
<stop offset="1" stop-color="#1EA2E4"/>
</linearGradient>
<linearGradient id="paint2_linear_206_5675" x1="17.6345" y1="10.7841" x2="16.0764" y2="9.22602" gradientUnits="userSpaceOnUse">
<stop offset="0.365" stop-color="#199AE0"/>
<stop offset="0.699" stop-color="#1898DE"/>
<stop offset="0.819" stop-color="#1691D8"/>
<stop offset="0.905" stop-color="#1186CC"/>
<stop offset="0.974" stop-color="#0A75BC"/>
<stop offset="1" stop-color="#076CB3"/>
</linearGradient>
<linearGradient id="paint3_linear_206_5675" x1="14.9695" y1="22.32" x2="20.6905" y2="-17.008" gradientUnits="userSpaceOnUse">
<stop stop-color="#32BDEF"/>
<stop offset="1" stop-color="#1EA2E4"/>
</linearGradient>
<linearGradient id="paint4_linear_206_5675" x1="10.7808" y1="17.6378" x2="9.22273" y2="16.0797" gradientUnits="userSpaceOnUse">
<stop offset="0.365" stop-color="#199AE0"/>
<stop offset="0.699" stop-color="#1898DE"/>
<stop offset="0.819" stop-color="#1691D8"/>
<stop offset="0.905" stop-color="#1186CC"/>
<stop offset="0.974" stop-color="#0A75BC"/>
<stop offset="1" stop-color="#076CB3"/>
</linearGradient>
<linearGradient id="paint5_linear_206_5675" x1="4.2085" y1="33.2605" x2="9.932" y2="-6.088" gradientUnits="userSpaceOnUse">
<stop stop-color="#32BDEF"/>
<stop offset="1" stop-color="#1EA2E4"/>
</linearGradient>
<linearGradient id="paint6_linear_206_5675" x1="6.37486" y1="10.7718" x2="7.93368" y2="9.21294" gradientUnits="userSpaceOnUse">
<stop offset="0.365" stop-color="#199AE0"/>
<stop offset="0.699" stop-color="#1898DE"/>
<stop offset="0.819" stop-color="#1691D8"/>
<stop offset="0.905" stop-color="#1186CC"/>
<stop offset="0.974" stop-color="#0A75BC"/>
<stop offset="1" stop-color="#076CB3"/>
</linearGradient>
<linearGradient id="paint7_linear_206_5675" x1="4.6775" y1="19.388" x2="9.3405" y2="-12.6675" gradientUnits="userSpaceOnUse">
<stop stop-color="#32BDEF"/>
<stop offset="1" stop-color="#1EA2E4"/>
</linearGradient>
</defs>
</svg>
