<svg width="24" height="24" viewBox="0 0 24 24" fill="none" xmlns="http://www.w3.org/2000/svg">
<g id="collaboration">
<path id="Vector" d="M11.5 3.5H20.5C20.776 3.5 21 3.724 21 4V10.199C21 10.4465 20.672 10.534 20.5485 10.32L19.5 8.5H11.5C11.224 8.5 11 8.276 11 8V4C11 3.724 11.224 3.5 11.5 3.5Z" fill="url(#paint0_linear_206_5666)"/>
<path id="Vector_2" d="M17.5 15C18.8807 15 20 13.8807 20 12.5C20 11.1193 18.8807 10 17.5 10C16.1193 10 15 11.1193 15 12.5C15 13.8807 16.1193 15 17.5 15Z" fill="url(#paint1_linear_206_5666)"/>
<path id="Vector_3" d="M6.5 15C7.88071 15 9 13.8807 9 12.5C9 11.1193 7.88071 10 6.5 10C5.11929 10 4 11.1193 4 12.5C4 13.8807 5.11929 15 6.5 15Z" fill="url(#paint2_linear_206_5666)"/>
<path id="Vector_4" d="M17.5 16C15.291 16 13.5 17.791 13.5 20V20.9615C13.5 21.259 13.741 21.5 14.0385 21.5H20.9615C21.259 21.5 21.5 21.259 21.5 20.9615V20C21.5 17.791 19.709 16 17.5 16Z" fill="url(#paint3_linear_206_5666)"/>
<path id="Vector_5" d="M6.5 16C4.291 16 2.5 17.791 2.5 20V20.9615C2.5 21.259 2.741 21.5 3.0385 21.5H9.9615C10.259 21.5 10.5 21.259 10.5 20.9615V20C10.5 17.791 8.709 16 6.5 16Z" fill="url(#paint4_linear_206_5666)"/>
<path id="Vector_6" opacity="0.05" d="M12.5 8H11V3.5H13.5V7C13.5 7.5525 13.0525 8 12.5 8Z" fill="black"/>
<path id="Vector_7" opacity="0.07" d="M12.5 7.75H11V3.5H13.25V7C13.25 7.414 12.914 7.75 12.5 7.75Z" fill="black"/>
<path id="Vector_8" d="M12.5 2.5H3.5C3.224 2.5 3 2.724 3 3V9.199C3 9.4465 3.328 9.534 3.4515 9.32L4.5 7.5H12.5C12.776 7.5 13 7.276 13 7V3C13 2.724 12.776 2.5 12.5 2.5Z" fill="url(#paint5_linear_206_5666)"/>
</g>
<defs>
<linearGradient id="paint0_linear_206_5666" x1="14.503" y1="3.9115" x2="19.533" y2="10.929" gradientUnits="userSpaceOnUse">
<stop stop-color="#037478"/>
<stop offset="1" stop-color="#006063"/>
</linearGradient>
<linearGradient id="paint1_linear_206_5666" x1="15.8135" y1="10.8135" x2="19.534" y2="14.5335" gradientUnits="userSpaceOnUse">
<stop stop-color="#32BDEF"/>
<stop offset="1" stop-color="#1EA2E4"/>
</linearGradient>
<linearGradient id="paint2_linear_206_5666" x1="4.8135" y1="10.8135" x2="8.5335" y2="14.5335" gradientUnits="userSpaceOnUse">
<stop stop-color="#32BDEF"/>
<stop offset="1" stop-color="#1EA2E4"/>
</linearGradient>
<linearGradient id="paint3_linear_206_5666" x1="15.279" y1="15.729" x2="18.383" y2="21.7855" gradientUnits="userSpaceOnUse">
<stop stop-color="#32BDEF"/>
<stop offset="1" stop-color="#1EA2E4"/>
</linearGradient>
<linearGradient id="paint4_linear_206_5666" x1="4.333" y1="15.9565" x2="7.7395" y2="22.3915" gradientUnits="userSpaceOnUse">
<stop stop-color="#32BDEF"/>
<stop offset="1" stop-color="#1EA2E4"/>
</linearGradient>
<linearGradient id="paint5_linear_206_5666" x1="6.3785" y1="3.0685" x2="10.1045" y2="9.9615" gradientUnits="userSpaceOnUse">
<stop stop-color="#20AFB5"/>
<stop offset="1" stop-color="#16979D"/>
</linearGradient>
</defs>
</svg>
