<svg width="24" height="24" viewBox="0 0 24 24" fill="none" xmlns="http://www.w3.org/2000/svg">
<g id="color-palette">
<path id="Vector" d="M21 16.5H4C3.4475 16.5 3 16.9475 3 17.5V20.5C3 21.052 3.4475 21.5 4 21.5H9H21C21.5525 21.5 22 21.052 22 20.5V17.5C22 16.9475 21.5525 16.5 21 16.5Z" fill="#D7DFE2"/>
<path id="Vector_2" d="M12 16.5V21.5H6.714L8 16.5H12Z" fill="#184686"/>
<path id="Vector_3" d="M18 21.5V16.5H21C21.5525 16.5 22 16.9475 22 17.5V20.5C22 21.0525 21.5525 21.5 21 21.5H18Z" fill="#3CCBF4"/>
<path id="Vector_4" d="M17 16.5V21.5H13V16.5H17Z" fill="#0A68B6"/>
<path id="Vector_5" opacity="0.05" d="M6.6065 16.5V21.48L15.056 16.5H6.6065Z" fill="black"/>
<path id="Vector_6" opacity="0.05" d="M6.6065 16.5V21.5H7.065L15.548 16.5H6.6065Z" fill="black"/>
<path id="Vector_7" d="M20.68 11.7345L19.1565 9.15C18.876 8.674 18.263 8.516 17.787 8.796L3.142 17.428C3.09 17.4585 3.044 17.4945 3 17.532V19.1565L4.3115 21.3815C4.337 21.425 4.3675 21.4625 4.398 21.5H6.0805L20.3265 13.104C20.802 12.8235 20.9605 12.2105 20.68 11.7345Z" fill="#D7DFE2"/>
<path id="Vector_8" d="M14.3415 10.8275L16.8805 15.135L13.4345 17.166L10.8955 12.8585L14.3415 10.8275Z" fill="#23B368"/>
<path id="Vector_9" opacity="0.05" d="M11.2245 12.6645L6.2195 21.418L8.487 20.0815L13.8535 11.115L11.2245 12.6645Z" fill="black"/>
<path id="Vector_10" d="M17.7415 14.627L15.2025 10.3195L17.787 8.796C18.263 8.5155 18.876 8.674 19.1565 9.1495L20.68 11.734C20.9605 12.21 20.802 12.823 20.3265 13.1035L17.7415 14.627Z" fill="#30DC80"/>
<path id="Vector_11" opacity="0.05" d="M11.2245 12.6645L6.2195 21.418L8.0365 20.347L13.4035 11.38L11.2245 12.6645Z" fill="black"/>
<path id="Vector_12" d="M10.034 13.366L12.573 17.6735L7.265 20.8005L6.5885 15.397L10.034 13.366Z" fill="#0A8645"/>
<path id="Vector_13" d="M15.472 5.489L12.8975 3.949C12.4235 3.6655 11.8095 3.82 11.526 4.294L3 18.55V20.1475C3.045 20.1865 3.0925 20.224 3.145 20.2555L5.226 21.5H7.0545C7.066 21.483 7.0805 21.4685 7.0915 21.4505L15.817 6.8605C16.1005 6.3865 15.946 5.7725 15.472 5.489Z" fill="#D7DFE2"/>
<path id="Vector_14" d="M9.4725 7.727L13.7635 10.2935L11.7105 13.7265L7.4195 11.16L9.4725 7.727Z" fill="#F8BE00"/>
<path id="Vector_15" d="M6.9065 12.0185L11.1975 14.585L7.935 20.035L4.8535 15.4515L6.9065 12.0185Z" fill="#FF8F3B"/>
<path id="Vector_16" opacity="0.05" d="M6.8935 21.5H7.0545H8.11C8.35 21.234 8.5 20.8855 8.5 20.5V9.3535L6.8935 12.0395V21.5Z" fill="black"/>
<path id="Vector_17" opacity="0.05" d="M6.8935 21.5H7.0545H7.7425C8.049 21.272 8.25 20.9105 8.25 20.5V9.7715L6.8935 12.0395V21.5Z" fill="black"/>
<path id="Vector_18" d="M14.277 9.435L9.986 6.8685L11.526 4.294C11.8095 3.82 12.4235 3.6655 12.8975 3.949L15.472 5.489C15.946 5.7725 16.1005 6.3865 15.817 6.8605L14.277 9.435Z" fill="#FEDE00"/>
<path id="Vector_19" d="M7 21.5H4C3.4475 21.5 3 21.0525 3 20.5V3.5C3 2.9475 3.4475 2.5 4 2.5H7C7.5525 2.5 8 2.9475 8 3.5V20.5C8 21.0525 7.5525 21.5 7 21.5Z" fill="url(#paint0_linear_206_5694)"/>
<path id="Vector_20" d="M8 6.5H3V3.5C3 2.9475 3.4475 2.5 4 2.5H7C7.5525 2.5 8 2.9475 8 3.5V6.5Z" fill="#FF8DB6"/>
<path id="Vector_21" d="M3 7.5H8V11.5H3V7.5Z" fill="#F95568"/>
<path id="Vector_22" d="M3 12.5H8V16.5H3V12.5Z" fill="#CE0D24"/>
<path id="Vector_23" d="M5.5 18.5C5.224 18.5 5 18.724 5 19C5 19.276 5.224 19.5 5.5 19.5C5.776 19.5 6 19.276 6 19C6 18.724 5.776 18.5 5.5 18.5Z" fill="#455A64"/>
</g>
<defs>
<linearGradient id="paint0_linear_206_5694" x1="5.5" y1="12" x2="5.5" y2="22.936" gradientUnits="userSpaceOnUse">
<stop stop-color="#C8CDD1"/>
<stop offset="1" stop-color="#B3B3B3"/>
</linearGradient>
</defs>
</svg>
