<svg width="24" height="24" viewBox="0 0 24 24" fill="none" xmlns="http://www.w3.org/2000/svg">
<g id="combi-ticket">
<path id="Vector" d="M17.25 9.125H14.875V19.625H17.25V9.125Z" fill="#C28200"/>
<path id="Vector_2" d="M16 19L4.03372 19.4986L4.03322 19.5046L18.5111 22.0315C18.5782 21.5269 18.8425 21.0695 19.2461 20.7594C19.6498 20.4493 20.1599 20.3119 20.6647 20.3771L21.2897 16.796L16 19Z" fill="#C28200"/>
<path id="Vector_3" d="M20 4.5H4C4 5.03043 3.78929 5.53914 3.41421 5.91421C3.03914 6.28929 2.53043 6.5 2 6.5V17.5C2.53043 17.5 3.03914 17.7107 3.41421 18.0858C3.78929 18.4609 4 18.9696 4 19.5H20C20 18.9696 20.2107 18.4609 20.5858 18.0858C20.9609 17.7107 21.4696 17.5 22 17.5V6.5C21.4696 6.5 20.9609 6.28929 20.5858 5.91421C20.2107 5.53914 20 5.03043 20 4.5ZM16 18.5C15.9011 18.5 15.8044 18.4707 15.7222 18.4157C15.64 18.3608 15.5759 18.2827 15.5381 18.1913C15.5002 18.1 15.4903 17.9994 15.5096 17.9025C15.5289 17.8055 15.5765 17.7164 15.6464 17.6464C15.7164 17.5765 15.8055 17.5289 15.9025 17.5096C15.9994 17.4903 16.1 17.5002 16.1913 17.5381C16.2827 17.5759 16.3608 17.64 16.4157 17.7222C16.4707 17.8044 16.5 17.9011 16.5 18C16.5 18.1326 16.4473 18.2597 16.3535 18.3535C16.2597 18.4473 16.1326 18.5 16 18.5ZM16 16.5C15.9011 16.5 15.8044 16.4707 15.7222 16.4157C15.64 16.3608 15.5759 16.2827 15.5381 16.1913C15.5002 16.1 15.4903 15.9994 15.5096 15.9025C15.5289 15.8055 15.5765 15.7164 15.6464 15.6464C15.7164 15.5765 15.8055 15.5289 15.9025 15.5096C15.9994 15.4903 16.1 15.5002 16.1913 15.5381C16.2827 15.5759 16.3608 15.64 16.4157 15.7222C16.4707 15.8044 16.5 15.9011 16.5 16C16.5 16.1326 16.4473 16.2597 16.3535 16.3535C16.2597 16.4473 16.1326 16.5 16 16.5ZM16 14.5C15.9011 14.5 15.8044 14.4707 15.7222 14.4157C15.64 14.3608 15.5759 14.2827 15.5381 14.1913C15.5002 14.1 15.4903 13.9994 15.5096 13.9025C15.5289 13.8055 15.5765 13.7164 15.6464 13.6464C15.7164 13.5765 15.8055 13.5289 15.9025 13.5096C15.9994 13.4903 16.1 13.5002 16.1913 13.5381C16.2827 13.5759 16.3608 13.64 16.4157 13.7222C16.4707 13.8044 16.5 13.9011 16.5 14C16.5 14.1326 16.4473 14.2597 16.3535 14.3535C16.2597 14.4473 16.1326 14.5 16 14.5ZM16 12.5C15.9011 12.5 15.8044 12.4707 15.7222 12.4157C15.64 12.3608 15.5759 12.2827 15.5381 12.1913C15.5002 12.1 15.4903 11.9994 15.5096 11.9025C15.5289 11.8055 15.5765 11.7164 15.6464 11.6464C15.7164 11.5765 15.8055 11.5289 15.9025 11.5096C15.9994 11.4903 16.1 11.5002 16.1913 11.5381C16.2827 11.5759 16.3608 11.64 16.4157 11.7222C16.4707 11.8044 16.5 11.9011 16.5 12C16.5 12.1326 16.4473 12.2597 16.3535 12.3535C16.2597 12.4473 16.1326 12.5 16 12.5ZM16 10.5C15.9011 10.5 15.8044 10.4707 15.7222 10.4157C15.64 10.3608 15.5759 10.2827 15.5381 10.1913C15.5002 10.1 15.4903 9.99944 15.5096 9.90245C15.5289 9.80546 15.5765 9.71637 15.6464 9.64645C15.7164 9.57652 15.8055 9.5289 15.9025 9.50961C15.9994 9.49031 16.1 9.50022 16.1913 9.53806C16.2827 9.5759 16.3608 9.63999 16.4157 9.72221C16.4707 9.80444 16.5 9.90111 16.5 10C16.5 10.1326 16.4473 10.2597 16.3535 10.3535C16.2597 10.4473 16.1326 10.5 16 10.5ZM16 8.5C15.9011 8.5 15.8044 8.47068 15.7222 8.41574C15.64 8.36079 15.5759 8.2827 15.5381 8.19134C15.5002 8.09998 15.4903 7.99945 15.5096 7.90245C15.5289 7.80546 15.5765 7.71637 15.6464 7.64645C15.7164 7.57652 15.8055 7.5289 15.9025 7.50961C15.9994 7.49031 16.1 7.50022 16.1913 7.53806C16.2827 7.5759 16.3608 7.63999 16.4157 7.72221C16.4707 7.80444 16.5 7.90111 16.5 8C16.5 8.13259 16.4473 8.25974 16.3535 8.3535C16.2597 8.44726 16.1326 8.49995 16 8.5ZM16 6.5C15.9011 6.5 15.8044 6.47068 15.7222 6.41573C15.64 6.36079 15.5759 6.2827 15.5381 6.19134C15.5002 6.09998 15.4903 5.99945 15.5096 5.90245C15.5289 5.80546 15.5765 5.71637 15.6464 5.64645C15.7164 5.57652 15.8055 5.5289 15.9025 5.50961C15.9994 5.49031 16.1 5.50022 16.1913 5.53806C16.2827 5.5759 16.3608 5.63999 16.4157 5.72221C16.4707 5.80444 16.5 5.90111 16.5 6C16.5 6.13259 16.4473 6.25974 16.3535 6.3535C16.2597 6.44726 16.1326 6.49995 16 6.5Z" fill="url(#paint0_linear_206_5718)"/>
<path id="Vector_4" d="M13.5 10H11C10.7239 10 10.5 10.2239 10.5 10.5C10.5 10.7761 10.7239 11 11 11H13.5C13.7761 11 14 10.7761 14 10.5C14 10.2239 13.7761 10 13.5 10Z" fill="#C2620E"/>
<path id="Vector_5" d="M9 10H4C3.72386 10 3.5 10.2239 3.5 10.5C3.5 10.7761 3.72386 11 4 11H9C9.27614 11 9.5 10.7761 9.5 10.5C9.5 10.2239 9.27614 10 9 10Z" fill="#C2620E"/>
<path id="Vector_6" d="M13.5 13H4C3.72386 13 3.5 13.2239 3.5 13.5C3.5 13.7761 3.72386 14 4 14H13.5C13.7761 14 14 13.7761 14 13.5C14 13.2239 13.7761 13 13.5 13Z" fill="#C2620E"/>
<path id="Vector_7" d="M8.5 4V4.5H8V4C8 3.73478 7.89464 3.48043 7.70711 3.29289C7.51957 3.10536 7.26522 3 7 3C6.73478 3 6.48043 3.10536 6.29289 3.29289C6.10536 3.48043 6 3.73478 6 4V7C6 7.13261 6.05268 7.25979 6.14645 7.35355C6.24021 7.44732 6.36739 7.5 6.5 7.5C6.63261 7.5 6.75979 7.44732 6.85355 7.35355C6.94732 7.25979 7 7.13261 7 7V5.25C7 5.1837 7.02634 5.12011 7.07322 5.07322C7.12011 5.02634 7.1837 5 7.25 5C7.3163 5 7.37989 5.02634 7.42678 5.07322C7.47366 5.12011 7.5 5.1837 7.5 5.25V7C7.5 7.26522 7.39464 7.51957 7.20711 7.70711C7.01957 7.89464 6.76522 8 6.5 8C6.23478 8 5.98043 7.89464 5.79289 7.70711C5.60536 7.51957 5.5 7.26522 5.5 7V4C5.5 3.60218 5.65804 3.22064 5.93934 2.93934C6.22064 2.65804 6.60218 2.5 7 2.5C7.39782 2.5 7.77936 2.65804 8.06066 2.93934C8.34196 3.22064 8.5 3.60218 8.5 4Z" fill="url(#paint1_linear_206_5718)"/>
</g>
<defs>
<linearGradient id="paint0_linear_206_5718" x1="6.4075" y1="3.0505" x2="17.9975" y2="21.5975" gradientUnits="userSpaceOnUse">
<stop stop-color="#FFD869"/>
<stop offset="1" stop-color="#FEC52B"/>
</linearGradient>
<linearGradient id="paint1_linear_206_5718" x1="5.5" y1="5.25" x2="8.5" y2="5.25" gradientUnits="userSpaceOnUse">
<stop stop-color="#3079D6"/>
<stop offset="1" stop-color="#297CD2"/>
</linearGradient>
</defs>
</svg>
