<svg width="24" height="24" viewBox="0 0 24 24" fill="none" xmlns="http://www.w3.org/2000/svg">
<g id="communication">
<path id="Vector" d="M22.4545 21.8645L20.626 17.7045C21.1835 16.6775 21.5 15.5005 21.5 14.25C21.5 10.246 18.254 7 14.25 7C10.246 7 7 10.246 7 14.25C7 18.254 10.246 21.5 14.25 21.5C15.5565 21.5 16.779 21.1495 17.8375 20.545L21.745 22.5345C22.179 22.7555 22.6505 22.31 22.4545 21.8645Z" fill="url(#paint0_linear_206_5726)"/>
<path id="Vector_2" d="M10.75 14.5H18.75C18.888 14.5 19 14.388 19 14.25V13.75C19 13.612 18.888 13.5 18.75 13.5H10.75C10.612 13.5 10.5 13.612 10.5 13.75V14.25C10.5 14.388 10.612 14.5 10.75 14.5Z" fill="url(#paint1_linear_206_5726)"/>
<path id="Vector_3" d="M10.75 16.5H17.25C17.388 16.5 17.5 16.388 17.5 16.25V15.75C17.5 15.612 17.388 15.5 17.25 15.5H10.75C10.612 15.5 10.5 15.612 10.5 15.75V16.25C10.5 16.388 10.612 16.5 10.75 16.5Z" fill="url(#paint2_linear_206_5726)"/>
<path id="Vector_4" opacity="0.15" d="M7 14.25C7 14.9415 7.103 15.6075 7.2835 16.241C7.927 16.404 8.5965 16.5 9.29 16.5C13.819 16.5 17.491 12.8065 17.491 8.25C17.491 8.0845 17.476 7.923 17.4665 7.76C16.496 7.278 15.407 7 14.25 7C10.246 7 7 10.246 7 14.25Z" fill="url(#paint3_radial_206_5726)"/>
<path id="Vector_5" d="M9.25 1.5C5.522 1.5 2.5 4.522 2.5 8.25C2.5 9.2795 2.737 10.251 3.1495 11.124C3.143 11.139 3.135 11.151 3.1295 11.168L1.546 14.771C1.35 15.217 1.8215 15.6625 2.2555 15.4415L5.44 13.82C6.5245 14.5635 7.8355 15 9.25 15C12.978 15 16 11.978 16 8.25C16 4.522 12.978 1.5 9.25 1.5Z" fill="url(#paint4_linear_206_5726)"/>
<path id="Vector_6" d="M5.25 7.5H13.25C13.388 7.5 13.5 7.388 13.5 7.25V6.75C13.5 6.612 13.388 6.5 13.25 6.5H5.25C5.112 6.5 5 6.612 5 6.75V7.25C5 7.388 5.112 7.5 5.25 7.5Z" fill="url(#paint5_linear_206_5726)"/>
<path id="Vector_7" d="M5.25 9.5H11.75C11.888 9.5 12 9.388 12 9.25V8.75C12 8.612 11.888 8.5 11.75 8.5H5.25C5.112 8.5 5 8.612 5 8.75V9.25C5 9.388 5.112 9.5 5.25 9.5Z" fill="url(#paint6_linear_206_5726)"/>
</g>
<defs>
<linearGradient id="paint0_linear_206_5726" x1="10.552" y1="8.013" x2="19.5235" y2="23.144" gradientUnits="userSpaceOnUse">
<stop stop-color="#0176D0"/>
<stop offset="1" stop-color="#16538C"/>
</linearGradient>
<linearGradient id="paint1_linear_206_5726" x1="13.8395" y1="12.072" x2="15.7455" y2="16.1085" gradientUnits="userSpaceOnUse">
<stop stop-color="#199AE0"/>
<stop offset="1" stop-color="#0782D8"/>
</linearGradient>
<linearGradient id="paint2_linear_206_5726" x1="13.223" y1="14.3545" x2="14.8495" y2="17.7995" gradientUnits="userSpaceOnUse">
<stop stop-color="#199AE0"/>
<stop offset="1" stop-color="#0782D8"/>
</linearGradient>
<radialGradient id="paint3_radial_206_5726" cx="0" cy="0" r="1" gradientUnits="userSpaceOnUse" gradientTransform="translate(9.345 8.3705) scale(8.0565 8.0565)">
<stop offset="0.627"/>
<stop offset="1" stop-opacity="0"/>
</radialGradient>
<linearGradient id="paint4_linear_206_5726" x1="4.9985" y1="2.967" x2="10.89" y2="15.447" gradientUnits="userSpaceOnUse">
<stop stop-color="#33BEF0"/>
<stop offset="1" stop-color="#22A5E2"/>
</linearGradient>
<linearGradient id="paint5_linear_206_5726" x1="8.3395" y1="5.072" x2="10.2455" y2="9.1085" gradientUnits="userSpaceOnUse">
<stop stop-color="#199AE0"/>
<stop offset="1" stop-color="#0782D8"/>
</linearGradient>
<linearGradient id="paint6_linear_206_5726" x1="7.723" y1="7.3545" x2="9.3495" y2="10.7995" gradientUnits="userSpaceOnUse">
<stop stop-color="#199AE0"/>
<stop offset="1" stop-color="#0782D8"/>
</linearGradient>
</defs>
</svg>
