<svg width="24" height="24" viewBox="0 0 24 24" fill="none" xmlns="http://www.w3.org/2000/svg">
<g id="compare">
<path id="Vector" d="M22.5 11.5V20.5C22.5 21.0525 22.0525 21.5 21.5 21.5H12.5C11.9475 21.5 11.5 21.0525 11.5 20.5V8.5C11.5 7.9475 11.9475 7.5 12.5 7.5H18.5L22.5 11.5Z" fill="url(#paint0_linear_206_5750)"/>
<path id="Vector_2" d="M18.5 7.5V10.5C18.5 11.0525 18.9475 11.5 19.5 11.5H22.5L18.5 7.5Z" fill="url(#paint1_linear_206_5750)"/>
<path id="Vector_3" opacity="0.05" d="M11.5 17C12.325 17 13 16.325 13 15.5V7.5H12.5C11.9475 7.5 11.5 7.9475 11.5 8.5V17Z" fill="black"/>
<path id="Vector_4" opacity="0.05" d="M12.5 7.5H12.75V15.5C12.75 16.1905 12.1905 16.75 11.5 16.75V8.5C11.5 7.9475 11.9475 7.5 12.5 7.5Z" fill="black"/>
<path id="Vector_5" d="M12.5 6.5V15.5C12.5 16.0525 12.0525 16.5 11.5 16.5H2.5C1.9475 16.5 1.5 16.0525 1.5 15.5V3.5C1.5 2.9475 1.9475 2.5 2.5 2.5H8.5L12.5 6.5Z" fill="url(#paint2_linear_206_5750)"/>
<path id="Vector_6" d="M8.5 2.5V5.5C8.5 6.0525 8.9475 6.5 9.5 6.5H12.5L8.5 2.5Z" fill="url(#paint3_linear_206_5750)"/>
<path id="Vector_7" d="M7.5 11.489V12.772C7.5 12.975 7.7455 13.0765 7.8885 12.9325L9.763 11.048C9.9265 10.883 9.9265 10.617 9.763 10.4525L7.8885 8.568C7.7455 8.4235 7.5 8.525 7.5 8.728V10.363" fill="url(#paint4_linear_206_5750)"/>
<path id="Vector_8" d="M8 10H4.25C4.112 10 4 10.112 4 10.25V11.25C4 11.388 4.112 11.5 4.25 11.5H8" fill="url(#paint5_linear_206_5750)"/>
<path id="Vector_9" d="M15.5 16.5H19.75C19.888 16.5 20 16.388 20 16.25V15.25C20 15.112 19.888 15 19.75 15H15.5" fill="url(#paint6_linear_206_5750)"/>
<path id="Vector_10" d="M16.5 15.363V13.728C16.5 13.525 16.2545 13.4235 16.1115 13.5675L14.237 15.452C14.0735 15.6165 14.0735 15.8825 14.237 16.0475L16.1115 17.932C16.2545 18.0765 16.5 17.975 16.5 17.772V16.489" fill="url(#paint7_linear_206_5750)"/>
</g>
<defs>
<linearGradient id="paint0_linear_206_5750" x1="13.937" y1="5.41438" x2="24.0319" y2="17.058" gradientUnits="userSpaceOnUse">
<stop stop-color="#FCFCFC"/>
<stop offset="0.95" stop-color="#C3C9CD"/>
</linearGradient>
<linearGradient id="paint1_linear_206_5750" x1="18.0235" y1="11.977" x2="22.364" y2="7.6355" gradientUnits="userSpaceOnUse">
<stop stop-color="#0077D2"/>
<stop offset="1" stop-color="#0B59A2"/>
</linearGradient>
<linearGradient id="paint2_linear_206_5750" x1="4.96814" y1="2.71494" x2="12.7558" y2="14.5126" gradientUnits="userSpaceOnUse">
<stop stop-color="#7DD8F3"/>
<stop offset="1" stop-color="#45B0D0"/>
</linearGradient>
<linearGradient id="paint3_linear_206_5750" x1="8.773" y1="6.227" x2="10.535" y2="4.465" gradientUnits="userSpaceOnUse">
<stop stop-color="#3079D6"/>
<stop offset="1" stop-color="#297CD2"/>
</linearGradient>
<linearGradient id="paint4_linear_206_5750" x1="8.02852" y1="7.82973" x2="11.206" y2="10.3026" gradientUnits="userSpaceOnUse">
<stop stop-color="#FCFCFC"/>
<stop offset="0.95" stop-color="#C3C9CD"/>
</linearGradient>
<linearGradient id="paint5_linear_206_5750" x1="5.03762" y1="9.91411" x2="5.68956" y2="11.7492" gradientUnits="userSpaceOnUse">
<stop stop-color="#FCFCFC"/>
<stop offset="0.495" stop-color="#F4F4F4"/>
<stop offset="0.946" stop-color="#E8E8E8"/>
<stop offset="1" stop-color="#E8E8E8"/>
</linearGradient>
<linearGradient id="paint6_linear_206_5750" x1="15.9338" y1="15.0567" x2="17.2672" y2="17.5438" gradientUnits="userSpaceOnUse">
<stop stop-color="#A1AAB3"/>
<stop offset="1" stop-color="#8F979E"/>
</linearGradient>
<linearGradient id="paint7_linear_206_5750" x1="14.3443" y1="13.6701" x2="17.2001" y2="14.6114" gradientUnits="userSpaceOnUse">
<stop stop-color="#A1AAB3"/>
<stop offset="1" stop-color="#8F979E"/>
</linearGradient>
</defs>
</svg>
