<svg width="24" height="24" viewBox="0 0 24 24" fill="none" xmlns="http://www.w3.org/2000/svg">
<g id="conference">
<path id="Vector" d="M18.5 8.5C16.291 8.5 14.5 10.291 14.5 12.5V20C14.5 20.5525 14.9475 21 15.5 21H21.5C22.0525 21 22.5 20.5525 22.5 20V12.5C22.5 10.291 20.709 8.5 18.5 8.5Z" fill="url(#paint0_linear_206_5766)"/>
<path id="Vector_2" d="M12 7C9.791 7 8 8.791 8 11V20C8 20.5525 8.4475 21 9 21H15C15.5525 21 16 20.5525 16 20V11C16 8.791 14.209 7 12 7Z" fill="url(#paint1_linear_206_5766)"/>
<path id="Vector_3" d="M5.5 8.5C3.291 8.5 1.5 10.291 1.5 12.5V20C1.5 20.5525 1.9475 21 2.5 21H8.5C9.0525 21 9.5 20.5525 9.5 20V12.5C9.5 10.291 7.709 8.5 5.5 8.5Z" fill="url(#paint2_linear_206_5766)"/>
<path id="Vector_4" d="M18.5 7.5C19.6046 7.5 20.5 6.60457 20.5 5.5C20.5 4.39543 19.6046 3.5 18.5 3.5C17.3954 3.5 16.5 4.39543 16.5 5.5C16.5 6.60457 17.3954 7.5 18.5 7.5Z" fill="url(#paint3_linear_206_5766)"/>
<path id="Vector_5" d="M5.5 7.5C6.60457 7.5 7.5 6.60457 7.5 5.5C7.5 4.39543 6.60457 3.5 5.5 3.5C4.39543 3.5 3.5 4.39543 3.5 5.5C3.5 6.60457 4.39543 7.5 5.5 7.5Z" fill="url(#paint4_linear_206_5766)"/>
<path id="Vector_6" d="M12 6C13.1046 6 14 5.10457 14 4C14 2.89543 13.1046 2 12 2C10.8954 2 10 2.89543 10 4C10 5.10457 10.8954 6 12 6Z" fill="url(#paint5_linear_206_5766)"/>
<path id="Vector_7" d="M12 14C13.1046 14 14 13.1046 14 12C14 10.8954 13.1046 10 12 10C10.8954 10 10 10.8954 10 12C10 13.1046 10.8954 14 12 14Z" fill="url(#paint6_linear_206_5766)"/>
<path id="Vector_8" d="M11.7335 15.0085C9.6075 15.1465 8 17.0065 8 19.137V20.5C8 20.776 8.224 21 8.5 21H15.5C15.776 21 16 20.776 16 20.5V19C16 16.7025 14.0635 14.858 11.7335 15.0085Z" fill="url(#paint7_linear_206_5766)"/>
</g>
<defs>
<linearGradient id="paint0_linear_206_5766" x1="16.0695" y1="5.6035" x2="19.304" y2="19.541" gradientUnits="userSpaceOnUse">
<stop stop-color="#0D61A9"/>
<stop offset="1" stop-color="#16528C"/>
</linearGradient>
<linearGradient id="paint1_linear_206_5766" x1="10.1205" y1="7.2285" x2="13.329" y2="21.0525" gradientUnits="userSpaceOnUse">
<stop stop-color="#0D61A9"/>
<stop offset="1" stop-color="#16528C"/>
</linearGradient>
<linearGradient id="paint2_linear_206_5766" x1="3.7875" y1="8.698" x2="7.022" y2="22.6355" gradientUnits="userSpaceOnUse">
<stop stop-color="#0D61A9"/>
<stop offset="1" stop-color="#16528C"/>
</linearGradient>
<linearGradient id="paint3_linear_206_5766" x1="17.143" y1="4.143" x2="19.9335" y2="6.9335" gradientUnits="userSpaceOnUse">
<stop stop-color="#0D61A9"/>
<stop offset="1" stop-color="#16528C"/>
</linearGradient>
<linearGradient id="paint4_linear_206_5766" x1="4.143" y1="4.143" x2="6.9335" y2="6.9335" gradientUnits="userSpaceOnUse">
<stop stop-color="#0D61A9"/>
<stop offset="1" stop-color="#16528C"/>
</linearGradient>
<linearGradient id="paint5_linear_206_5766" x1="10.643" y1="2.643" x2="13.4335" y2="5.4335" gradientUnits="userSpaceOnUse">
<stop stop-color="#0D61A9"/>
<stop offset="1" stop-color="#16528C"/>
</linearGradient>
<linearGradient id="paint6_linear_206_5766" x1="10.643" y1="10.643" x2="13.4335" y2="13.4335" gradientUnits="userSpaceOnUse">
<stop stop-color="#32BDEF"/>
<stop offset="1" stop-color="#1EA2E4"/>
</linearGradient>
<linearGradient id="paint7_linear_206_5766" x1="10.307" y1="15.3005" x2="12.7255" y2="21.1595" gradientUnits="userSpaceOnUse">
<stop stop-color="#32BDEF"/>
<stop offset="1" stop-color="#1EA2E4"/>
</linearGradient>
</defs>
</svg>
