<svg width="24" height="24" viewBox="0 0 24 24" fill="none" xmlns="http://www.w3.org/2000/svg">
<g id="connect">
<path id="Vector" d="M19.263 6.146L17.737 4.854L12.5365 11H5.5V13H12.536L17.737 19.146L19.263 17.854L14.31 12L19.263 6.146Z" fill="#64717C"/>
<path id="Vector_2" d="M5 15C6.65685 15 8 13.6569 8 12C8 10.3431 6.65685 9 5 9C3.34315 9 2 10.3431 2 12C2 13.6569 3.34315 15 5 15Z" fill="url(#paint0_linear_206_5775)"/>
<path id="Vector_3" d="M18.5 8.5C20.1569 8.5 21.5 7.15685 21.5 5.5C21.5 3.84315 20.1569 2.5 18.5 2.5C16.8431 2.5 15.5 3.84315 15.5 5.5C15.5 7.15685 16.8431 8.5 18.5 8.5Z" fill="url(#paint1_linear_206_5775)"/>
<path id="Vector_4" d="M18.5 21.5C20.1569 21.5 21.5 20.1569 21.5 18.5C21.5 16.8431 20.1569 15.5 18.5 15.5C16.8431 15.5 15.5 16.8431 15.5 18.5C15.5 20.1569 16.8431 21.5 18.5 21.5Z" fill="url(#paint2_linear_206_5775)"/>
</g>
<defs>
<linearGradient id="paint0_linear_206_5775" x1="2.2455" y1="9.488" x2="7.565" y2="14.339" gradientUnits="userSpaceOnUse">
<stop stop-color="#33BEF0"/>
<stop offset="1" stop-color="#0A85D9"/>
</linearGradient>
<linearGradient id="paint1_linear_206_5775" x1="15.9915" y1="3.091" x2="20.2895" y2="7.2185" gradientUnits="userSpaceOnUse">
<stop stop-color="#33BEF0"/>
<stop offset="1" stop-color="#0A85D9"/>
</linearGradient>
<linearGradient id="paint2_linear_206_5775" x1="16.227" y1="16.13" x2="21.2055" y2="21.321" gradientUnits="userSpaceOnUse">
<stop stop-color="#33BEF0"/>
<stop offset="1" stop-color="#0A85D9"/>
</linearGradient>
</defs>
</svg>
