<svg width="24" height="24" viewBox="0 0 24 24" fill="none" xmlns="http://www.w3.org/2000/svg">
<g id="contract">
<path id="Vector" d="M18 3H5C4.4475 3 4 3.4475 4 4V20C4 20.5525 4.4475 21 5 21H18C18.5525 21 19 20.5525 19 20V4C19 3.4475 18.5525 3 18 3Z" fill="url(#paint0_linear_206_5809)"/>
<path id="Vector_2" d="M17 4V5.5C17 5.776 16.776 6 16.5 6H3C2.724 6 2.5 5.776 2.5 5.5V4C2.5 3.4475 2.9475 3 3.5 3H18C17.4475 3 17 3.4475 17 4Z" fill="url(#paint1_linear_206_5809)"/>
<path id="Vector_3" d="M16.25 11.5H6.75C6.612 11.5 6.5 11.612 6.5 11.75V12.75C6.5 12.888 6.612 13 6.75 13H16.25C16.388 13 16.5 12.888 16.5 12.75V11.75C16.5 11.612 16.388 11.5 16.25 11.5Z" fill="#66D7FF"/>
<path id="Vector_4" d="M16.25 8.5H6.75C6.612 8.5 6.5 8.612 6.5 8.75V9.75C6.5 9.888 6.612 10 6.75 10H16.25C16.388 10 16.5 9.888 16.5 9.75V8.75C16.5 8.612 16.388 8.5 16.25 8.5Z" fill="#66D7FF"/>
<path id="Vector_5" d="M15.1115 22.4575L14 21.7165L12.8885 22.4575C12.7225 22.5685 12.5 22.4495 12.5 22.2495V17.7165H15.5V22.2495C15.5 22.4495 15.2775 22.5685 15.1115 22.4575Z" fill="url(#paint2_linear_206_5809)"/>
<path id="Vector_6" d="M16.366 16.763L16.191 16.658C16.1165 16.613 16.066 16.5395 16.0435 16.456C16.043 16.4545 16.0425 16.453 16.042 16.4515C16.0185 16.367 16.0255 16.277 16.0685 16.2005L16.1675 16.022C16.269 15.8395 16.139 15.615 15.9305 15.6115L15.7245 15.608C15.637 15.6065 15.5565 15.5675 15.495 15.506C15.4945 15.505 15.494 15.5045 15.493 15.504C15.431 15.4425 15.3925 15.3615 15.391 15.2745L15.3875 15.0685C15.384 14.86 15.1595 14.7305 14.977 14.8315L14.8 14.9315C14.723 14.974 14.6335 14.981 14.549 14.958C14.5475 14.9575 14.546 14.957 14.544 14.9565C14.46 14.9335 14.3865 14.8835 14.342 14.809L14.237 14.634C14.1295 14.455 13.8705 14.455 13.763 14.634L13.6585 14.808C13.6135 14.883 13.539 14.934 13.455 14.957C13.454 14.9575 13.4535 14.9575 13.4525 14.958C13.367 14.9815 13.2765 14.9745 13.1995 14.9315L13.022 14.833C12.8395 14.7315 12.615 14.8615 12.6115 15.07L12.6075 15.2755C12.606 15.3625 12.567 15.4435 12.5055 15.505C12.5045 15.5055 12.504 15.5065 12.5035 15.507C12.442 15.569 12.361 15.6075 12.274 15.609L12.068 15.6125C11.8595 15.616 11.73 15.8405 11.831 16.023L11.93 16.2015C11.9725 16.2785 11.9795 16.368 11.9565 16.4525C11.956 16.454 11.9555 16.456 11.955 16.457C11.932 16.541 11.8815 16.6145 11.8075 16.659L11.6325 16.764C11.4535 16.8715 11.4535 17.1305 11.6325 17.238L11.8075 17.343C11.882 17.388 11.9325 17.4615 11.955 17.545C11.9555 17.5465 11.956 17.548 11.9565 17.5495C11.98 17.634 11.973 17.724 11.93 17.8005L11.831 17.979C11.7295 18.1615 11.8595 18.386 12.068 18.3895L12.274 18.393C12.3615 18.3945 12.442 18.4335 12.5035 18.495C12.504 18.4955 12.5045 18.496 12.5055 18.497C12.5675 18.5585 12.606 18.6395 12.6075 18.7265L12.611 18.9325C12.6145 19.141 12.839 19.2705 13.0215 19.1695L13.2 19.0705C13.277 19.028 13.3665 19.021 13.451 19.044C13.4525 19.0445 13.4545 19.0445 13.456 19.045C13.54 19.068 13.6135 19.118 13.658 19.1925L13.763 19.3675C13.8705 19.5465 14.1295 19.5465 14.237 19.3675L14.342 19.1925C14.387 19.118 14.4605 19.0675 14.544 19.045C14.5455 19.0445 14.5475 19.0445 14.549 19.044C14.6335 19.0205 14.7235 19.0275 14.8 19.0705L14.9785 19.1695C15.161 19.271 15.3855 19.141 15.389 18.9325L15.3925 18.7265C15.394 18.639 15.433 18.5585 15.4945 18.497C15.4955 18.4965 15.496 18.496 15.4965 18.495C15.558 18.433 15.639 18.3945 15.726 18.393L15.932 18.3895C16.1405 18.386 16.27 18.1615 16.169 17.979L16.07 17.8005C16.0275 17.7235 16.0205 17.634 16.0435 17.5495C16.044 17.548 16.044 17.5465 16.0445 17.545C16.0675 17.461 16.1175 17.3875 16.192 17.343L16.367 17.238C16.545 17.1295 16.545 16.8705 16.366 16.763Z" fill="url(#paint3_linear_206_5809)"/>
</g>
<defs>
<linearGradient id="paint0_linear_206_5809" x1="11.5" y1="20.7" x2="11.5" y2="4.191" gradientUnits="userSpaceOnUse">
<stop stop-color="#199AE0"/>
<stop offset="1" stop-color="#0782D8"/>
</linearGradient>
<linearGradient id="paint1_linear_206_5809" x1="10.25" y1="3.0725" x2="10.25" y2="5.8595" gradientUnits="userSpaceOnUse">
<stop stop-color="#66D7FF"/>
<stop offset="1" stop-color="#42BCF1"/>
</linearGradient>
<linearGradient id="paint2_linear_206_5809" x1="14" y1="17.7165" x2="14" y2="22.5235" gradientUnits="userSpaceOnUse">
<stop stop-color="#8C20E5"/>
<stop offset="0.427" stop-color="#9E32EB"/>
<stop offset="1" stop-color="#BD4FF4"/>
</linearGradient>
<linearGradient id="paint3_linear_206_5809" x1="12.729" y1="14.791" x2="15.261" y2="19.1915" gradientUnits="userSpaceOnUse">
<stop stop-color="#FFDA1C"/>
<stop offset="1" stop-color="#FEB705"/>
</linearGradient>
</defs>
</svg>
