<svg width="24" height="24" viewBox="0 0 24 24" fill="none" xmlns="http://www.w3.org/2000/svg">
<g id="creativity" clip-path="url(#clip0_206_5881)">
<path id="Vector" d="M12 4.875C12 3.5635 13.0635 2.5 14.375 2.5C15.5815 2.5 16.567 3.403 16.719 4.568C18.5845 4.907 20 6.5365 20 8.5C20 8.6395 19.9925 8.777 19.979 8.913C20.9155 9.8215 21.5 11.0915 21.5 12.5C21.5 13.9105 20.9135 15.1825 19.974 16.0915C19.99 16.2255 20 16.3615 20 16.5C20 18.3325 18.5905 19.834 16.797 19.985C16.4145 20.8755 15.5305 21.5 14.5 21.5C13.1195 21.5 12 20.3805 12 19C12 18.8085 12 5.219 12 4.875Z" fill="url(#paint0_linear_206_5881)"/>
<path id="Vector_2" d="M12 4.875C12 3.5635 10.9365 2.5 9.625 2.5C8.4185 2.5 7.433 3.403 7.281 4.568C5.4155 4.907 4 6.5365 4 8.5C4 8.6395 4.0075 8.777 4.021 8.913C3.0845 9.8215 2.5 11.0915 2.5 12.5C2.5 13.9105 3.0865 15.1825 4.026 16.0915C4.01 16.2255 4 16.3615 4 16.5C4 18.3325 5.4095 19.834 7.203 19.985C7.5855 20.8755 8.4695 21.5 9.5 21.5C10.8805 21.5 12 20.3805 12 19C12 18.8085 12 5.219 12 4.875Z" fill="url(#paint1_linear_206_5881)"/>
<path id="Vector_3" d="M12 16.5C12 17.2975 11.4825 17.7945 10.896 17.9485C10.6675 18.0085 10.5 18.2 10.5 18.436C10.5 18.7695 10.8185 19.0025 11.1415 18.92C12.223 18.6435 13 17.6795 13 16.5H12Z" fill="url(#paint2_linear_206_5881)"/>
<path id="Vector_4" d="M8.56151 9.5H8.56251C8.79801 9.5 8.99051 9.331 9.04701 9.1025C9.18701 8.5355 9.62401 8.177 10.107 8.051C10.3335 7.9915 10.5 7.801 10.5 7.567V7.438C10.5 7.2025 10.331 7.01 10.1025 6.9535C9.53551 6.8135 9.17701 6.3765 9.05101 5.8935C8.99151 5.6665 8.80101 5.5 8.56701 5.5H8.56151C8.23401 5.5 7.99701 5.811 8.07801 6.1285C8.22051 6.689 8.55101 7.1665 8.99751 7.5C8.55051 7.833 8.22051 8.3105 8.07801 8.8715C7.99701 9.189 8.23401 9.5 8.56151 9.5Z" fill="url(#paint3_linear_206_5881)"/>
<path id="Vector_5" d="M9.456 12C9.2095 12 9.0085 12.1835 8.9635 12.426C8.824 13.18 8.31 13.474 7.8435 13.495C7.314 13.2425 6.7155 13.0805 6.0505 13.023C5.7565 12.998 5.5 13.2265 5.5 13.5215C5.5 13.775 5.69 13.9975 5.943 14.016C7.326 14.118 8.304 14.713 8.859 15.7895C8.9725 16.009 9.24 16.1 9.4705 16.0115C9.7515 15.9035 9.8735 15.571 9.732 15.305C9.5055 14.8795 9.2205 14.5105 8.8855 14.198C9.4005 13.897 9.818 13.3645 9.9535 12.571C10.0045 12.2715 9.7595 12 9.456 12Z" fill="url(#paint4_linear_206_5881)"/>
<path id="Vector_6" d="M16.6565 9.495C16.1905 9.474 15.6765 9.18 15.5365 8.426C15.492 8.1835 15.291 8 15.044 8C14.7405 8 14.495 8.2715 14.546 8.5705C14.6815 9.3635 15.099 9.896 15.6135 10.198C15.279 10.5105 14.994 10.8795 14.7675 11.3055C14.626 11.571 14.748 11.9035 15.029 12.012C15.2595 12.101 15.527 12.01 15.6405 11.79C16.196 10.7135 17.174 10.118 18.557 10.016C18.81 9.997 19 9.775 19 9.5215C19 9.2265 18.7435 8.998 18.4495 9.0235C17.7845 9.0805 17.186 9.2425 16.6565 9.495Z" fill="url(#paint5_linear_206_5881)"/>
<path id="Vector_7" d="M12 11.5H11C11 12.6795 11.777 13.6435 12.8585 13.92C13.1815 14.003 13.5 13.7695 13.5 13.436C13.5 13.2 13.3325 13.0085 13.104 12.9485C12.5175 12.7945 12 12.2975 12 11.5Z" fill="url(#paint6_linear_206_5881)"/>
<path id="Vector_8" d="M15.9355 15C15.7 15 15.5085 15.167 15.449 15.395C15.3225 15.877 14.9645 16.313 14.398 16.453C14.169 16.5095 14 16.702 14 16.938V17.067C14 17.3015 14.1665 17.492 14.393 17.551C14.876 17.677 15.3125 18.035 15.453 18.602C15.5095 18.831 15.7025 19 15.938 19C16.266 19 16.503 18.6885 16.422 18.371C16.2795 17.8105 15.949 17.333 15.5025 17C15.9485 16.6675 16.278 16.191 16.4215 15.632C16.503 15.313 16.2645 15 15.9355 15Z" fill="url(#paint7_linear_206_5881)"/>
<path id="Vector_9" d="M21.8535 2.1465C21.658 1.951 21.3415 1.951 21.1465 2.1465C21.049 2.244 20.244 3.049 20.1465 3.1465C19.951 3.342 19.951 3.6585 20.1465 3.8535C20.342 4.049 20.6585 4.049 20.8535 3.8535C20.951 3.756 21.756 2.951 21.8535 2.8535C22.049 2.6585 22.049 2.3415 21.8535 2.1465Z" fill="#FFD000"/>
<path id="Vector_10" d="M18.462 0.385C18.207 0.2795 17.9145 0.4005 17.8085 0.6555C17.7555 0.783 17.32 1.8345 17.2675 1.962C17.162 2.217 17.283 2.5095 17.538 2.6155C17.793 2.721 18.0855 2.6 18.1915 2.345C18.2445 2.2175 18.68 1.166 18.7325 1.0385C18.838 0.783 18.717 0.4905 18.462 0.385Z" fill="#FFD000"/>
<path id="Vector_11" d="M23.408 5.538C23.3025 5.283 23.01 5.1615 22.7545 5.2675C22.627 5.3205 21.5755 5.756 21.448 5.8085C21.193 5.914 21.0715 6.2065 21.1775 6.462C21.283 6.717 21.5755 6.8385 21.831 6.7325C21.9585 6.6795 23.01 6.244 23.1375 6.1915C23.3925 6.0855 23.514 5.793 23.408 5.538Z" fill="#FFD000"/>
<path id="Vector_12" d="M2.1465 2.1465C1.951 2.342 1.951 2.6585 2.1465 2.8535C2.244 2.951 3.049 3.756 3.1465 3.8535C3.342 4.049 3.6585 4.049 3.8535 3.8535C4.049 3.658 4.049 3.3415 3.8535 3.1465C3.756 3.049 2.951 2.244 2.8535 2.1465C2.6585 1.951 2.3415 1.951 2.1465 2.1465Z" fill="#FFD000"/>
<path id="Vector_13" d="M0.384994 5.538C0.279494 5.793 0.400494 6.0855 0.655494 6.1915C0.782994 6.2445 1.83449 6.68 1.96199 6.7325C2.21699 6.838 2.50949 6.717 2.61549 6.462C2.72099 6.207 2.59999 5.9145 2.34499 5.8085C2.21749 5.7555 1.16599 5.32 1.03849 5.2675C0.782994 5.162 0.490494 5.283 0.384994 5.538Z" fill="#FFD000"/>
<path id="Vector_14" d="M5.538 0.592C5.283 0.6975 5.1615 0.99 5.2675 1.2455C5.3205 1.373 5.756 2.4245 5.8085 2.552C5.914 2.807 6.2065 2.9285 6.462 2.8225C6.717 2.717 6.8385 2.4245 6.7325 2.169C6.6795 2.0415 6.244 0.99 6.1915 0.8625C6.0855 0.6075 5.793 0.486 5.538 0.592Z" fill="#FFD000"/>
<path id="Vector_15" d="M2.1465 21.8535C2.342 22.049 2.6585 22.049 2.8535 21.8535C2.951 21.756 3.756 20.951 3.8535 20.8535C4.049 20.658 4.049 20.3415 3.8535 20.1465C3.658 19.951 3.3415 19.951 3.1465 20.1465C3.049 20.244 2.244 21.049 2.1465 21.1465C1.951 21.3415 1.951 21.6585 2.1465 21.8535Z" fill="#FFD000"/>
<path id="Vector_16" d="M5.538 23.615C5.793 23.7205 6.0855 23.5995 6.1915 23.3445C6.2445 23.217 6.68 22.1655 6.7325 22.038C6.838 21.783 6.717 21.4905 6.462 21.3845C6.207 21.279 5.9145 21.4 5.8085 21.655C5.7555 21.7825 5.32 22.834 5.2675 22.9615C5.162 23.217 5.283 23.5095 5.538 23.615Z" fill="#FFD000"/>
<path id="Vector_17" d="M0.592006 18.462C0.697506 18.717 0.990006 18.8385 1.24551 18.7325C1.37301 18.6795 2.42451 18.244 2.55201 18.1915C2.80701 18.086 2.92851 17.7935 2.82251 17.538C2.71701 17.283 2.42451 17.1615 2.16901 17.2675C2.04151 17.3205 0.990006 17.756 0.862506 17.8085C0.607506 17.9145 0.486006 18.207 0.592006 18.462Z" fill="#FFD000"/>
<path id="Vector_18" d="M21.8535 21.8535C22.049 21.658 22.049 21.3415 21.8535 21.1465C21.756 21.049 20.951 20.244 20.8535 20.1465C20.658 19.951 20.3415 19.951 20.1465 20.1465C19.951 20.342 19.951 20.6585 20.1465 20.8535C20.244 20.951 21.049 21.756 21.1465 21.8535C21.3415 22.049 21.6585 22.049 21.8535 21.8535Z" fill="#FFD000"/>
<path id="Vector_19" d="M23.615 18.462C23.7205 18.207 23.5995 17.9145 23.3445 17.8085C23.217 17.7555 22.1655 17.32 22.038 17.2675C21.783 17.162 21.4905 17.283 21.3845 17.538C21.279 17.793 21.4 18.0855 21.655 18.1915C21.7825 18.2445 22.834 18.68 22.9615 18.7325C23.217 18.838 23.5095 18.717 23.615 18.462Z" fill="#FFD000"/>
<path id="Vector_20" d="M18.462 23.408C18.717 23.3025 18.8385 23.01 18.7325 22.7545C18.6795 22.627 18.244 21.5755 18.1915 21.448C18.086 21.193 17.7935 21.0715 17.538 21.1775C17.283 21.283 17.1615 21.5755 17.2675 21.831C17.3205 21.9585 17.756 23.01 17.8085 23.1375C17.9145 23.3925 18.207 23.514 18.462 23.408Z" fill="#FFD000"/>
</g>
<defs>
<linearGradient id="paint0_linear_206_5881" x1="11.5505" y1="1.6405" x2="18.573" y2="20.3925" gradientUnits="userSpaceOnUse">
<stop stop-color="#FF6181"/>
<stop offset="1" stop-color="#C41F40"/>
</linearGradient>
<linearGradient id="paint1_linear_206_5881" x1="5.525" y1="3.378" x2="11.6575" y2="22.967" gradientUnits="userSpaceOnUse">
<stop stop-color="#FFA1A6"/>
<stop offset="1" stop-color="#F24472"/>
</linearGradient>
<linearGradient id="paint2_linear_206_5881" x1="6.2015" y1="3.6185" x2="13.8965" y2="22.8935" gradientUnits="userSpaceOnUse">
<stop stop-color="#FF6181"/>
<stop offset="1" stop-color="#C41F40"/>
</linearGradient>
<linearGradient id="paint3_linear_206_5881" x1="7.40301" y1="3.5155" x2="14.532" y2="21.3735" gradientUnits="userSpaceOnUse">
<stop stop-color="#FF6181"/>
<stop offset="1" stop-color="#C41F40"/>
</linearGradient>
<linearGradient id="paint4_linear_206_5881" x1="4.4795" y1="4.8675" x2="11.8555" y2="23.3435" gradientUnits="userSpaceOnUse">
<stop stop-color="#FF6181"/>
<stop offset="1" stop-color="#C41F40"/>
</linearGradient>
<linearGradient id="paint5_linear_206_5881" x1="12.4475" y1="0.958" x2="20.3825" y2="18.1985" gradientUnits="userSpaceOnUse">
<stop stop-color="#FFA1A6"/>
<stop offset="1" stop-color="#F24472"/>
</linearGradient>
<linearGradient id="paint6_linear_206_5881" x1="7.7315" y1="2.8805" x2="15.8365" y2="20.49" gradientUnits="userSpaceOnUse">
<stop stop-color="#FFA1A6"/>
<stop offset="1" stop-color="#F24472"/>
</linearGradient>
<linearGradient id="paint7_linear_206_5881" x1="9.1035" y1="2.9965" x2="17.091" y2="20.3515" gradientUnits="userSpaceOnUse">
<stop stop-color="#FFA1A6"/>
<stop offset="1" stop-color="#F24472"/>
</linearGradient>
<clipPath id="clip0_206_5881">
<rect width="24" height="24" fill="white"/>
</clipPath>
</defs>
</svg>
