<svg width="24" height="24" viewBox="0 0 24 24" fill="none" xmlns="http://www.w3.org/2000/svg">
<g id="crown">
<path id="Vector" d="M22.5 17H1.5C1.224 17 1 17.224 1 17.5V19.5C1 19.776 1.224 20 1.5 20H22.5C22.776 20 23 19.776 23 19.5V17.5C23 17.224 22.776 17 22.5 17Z" fill="#E3A600"/>
<path id="Vector_2" d="M4.5 12.9285H11.5L7.0895 7.195C6.842 6.8735 6.3345 6.965 6.2155 7.353L4.5 12.9285Z" fill="#C48C00"/>
<path id="Vector_3" d="M6.5 7C7.05228 7 7.5 6.55228 7.5 6C7.5 5.44772 7.05228 5 6.5 5C5.94772 5 5.5 5.44772 5.5 6C5.5 6.55228 5.94772 7 6.5 7Z" fill="#E3A600"/>
<path id="Vector_4" d="M19.5 12.9285H12.5L16.9105 7.195C17.158 6.8735 17.6655 6.965 17.7845 7.353L19.5 12.9285Z" fill="#C48C00"/>
<path id="Vector_5" d="M1.5 17H22.5L22.938 8.244C22.9655 7.6975 22.385 7.331 21.9035 7.5905L16.5 10.5L12.909 4.515C12.497 3.8285 11.5025 3.8285 11.091 4.515L7.5 10.5L2.0965 7.5905C1.615 7.331 1.0345 7.6975 1.062 8.244L1.5 17Z" fill="#EDBE00"/>
<path id="Vector_6" d="M20.5 15C21.0523 15 21.5 14.3284 21.5 13.5C21.5 12.6716 21.0523 12 20.5 12C19.9477 12 19.5 12.6716 19.5 13.5C19.5 14.3284 19.9477 15 20.5 15Z" fill="url(#paint0_radial_206_5927)"/>
<path id="Vector_7" d="M12 4C12.5523 4 13 3.55228 13 3C13 2.44772 12.5523 2 12 2C11.4477 2 11 2.44772 11 3C11 3.55228 11.4477 4 12 4Z" fill="#FAD500"/>
<path id="Vector_8" d="M22.5 7.5C23.0523 7.5 23.5 7.05228 23.5 6.5C23.5 5.94772 23.0523 5.5 22.5 5.5C21.9477 5.5 21.5 5.94772 21.5 6.5C21.5 7.05228 21.9477 7.5 22.5 7.5Z" fill="#FAD500"/>
<path id="Vector_9" d="M17.5 7C18.0523 7 18.5 6.55228 18.5 6C18.5 5.44772 18.0523 5 17.5 5C16.9477 5 16.5 5.44772 16.5 6C16.5 6.55228 16.9477 7 17.5 7Z" fill="#E3A600"/>
<path id="Vector_10" d="M1.5 7.5C2.05228 7.5 2.5 7.05228 2.5 6.5C2.5 5.94772 2.05228 5.5 1.5 5.5C0.947715 5.5 0.5 5.94772 0.5 6.5C0.5 7.05228 0.947715 7.5 1.5 7.5Z" fill="#FAD500"/>
<path id="Vector_11" d="M12 15.5C13.1046 15.5 14 14.6046 14 13.5C14 12.3954 13.1046 11.5 12 11.5C10.8954 11.5 10 12.3954 10 13.5C10 14.6046 10.8954 15.5 12 15.5Z" fill="url(#paint1_radial_206_5927)"/>
<path id="Vector_12" d="M12 15C12.8284 15 13.5 14.3284 13.5 13.5C13.5 12.6716 12.8284 12 12 12C11.1716 12 10.5 12.6716 10.5 13.5C10.5 14.3284 11.1716 15 12 15Z" fill="#FFE44A"/>
<path id="Vector_13" d="M20.75 14.5C21.1642 14.5 21.5 14.0523 21.5 13.5C21.5 12.9477 21.1642 12.5 20.75 12.5C20.3358 12.5 20 12.9477 20 13.5C20 14.0523 20.3358 14.5 20.75 14.5Z" fill="#FFE44A"/>
<path id="Vector_14" d="M3.5 15C4.05228 15 4.5 14.3284 4.5 13.5C4.5 12.6716 4.05228 12 3.5 12C2.94772 12 2.5 12.6716 2.5 13.5C2.5 14.3284 2.94772 15 3.5 15Z" fill="url(#paint2_radial_206_5927)"/>
<path id="Vector_15" d="M3.25 14.5C3.66421 14.5 4 14.0523 4 13.5C4 12.9477 3.66421 12.5 3.25 12.5C2.83579 12.5 2.5 12.9477 2.5 13.5C2.5 14.0523 2.83579 14.5 3.25 14.5Z" fill="#FFE44A"/>
</g>
<defs>
<radialGradient id="paint0_radial_206_5927" cx="0" cy="0" r="1" gradientUnits="userSpaceOnUse" gradientTransform="translate(20.5 13.4999) scale(1 1.5)">
<stop stop-color="#AD8A00"/>
<stop offset="1" stop-color="#EDBE00"/>
</radialGradient>
<radialGradient id="paint1_radial_206_5927" cx="0" cy="0" r="1" gradientUnits="userSpaceOnUse" gradientTransform="translate(12 13.5) scale(2)">
<stop stop-color="#AD8A00"/>
<stop offset="1" stop-color="#EDBE00"/>
</radialGradient>
<radialGradient id="paint2_radial_206_5927" cx="0" cy="0" r="1" gradientUnits="userSpaceOnUse" gradientTransform="translate(3.5 13.4999) rotate(180) scale(1 1.5)">
<stop stop-color="#AD8A00"/>
<stop offset="1" stop-color="#EDBE00"/>
</radialGradient>
</defs>
</svg>
