<svg width="24" height="24" viewBox="0 0 24 24" fill="none" xmlns="http://www.w3.org/2000/svg">
<g id="customer-insight">
<path id="Vector" d="M19.5442 7.06674L3.9557 16.0667L4.4557 16.9328L20.0442 7.93276L19.5442 7.06674Z" fill="#64717C"/>
<path id="Vector_2" d="M3.95577 7.93301L19.5442 16.933L20.0442 16.067L4.45577 7.06699L3.95577 7.93301Z" fill="#64717C"/>
<path id="Vector_3" d="M12.5 21L12.5 3H11.5L11.5 21H12.5Z" fill="#64717C"/>
<path id="Vector_4" d="M12 4.5C12.8284 4.5 13.5 3.82843 13.5 3C13.5 2.17157 12.8284 1.5 12 1.5C11.1716 1.5 10.5 2.17157 10.5 3C10.5 3.82843 11.1716 4.5 12 4.5Z" fill="url(#paint0_linear_206_5946)"/>
<path id="Vector_5" d="M4 9C4.82843 9 5.5 8.32843 5.5 7.5C5.5 6.67157 4.82843 6 4 6C3.17157 6 2.5 6.67157 2.5 7.5C2.5 8.32843 3.17157 9 4 9Z" fill="url(#paint1_linear_206_5946)"/>
<path id="Vector_6" d="M4 18C4.82843 18 5.5 17.3284 5.5 16.5C5.5 15.6716 4.82843 15 4 15C3.17157 15 2.5 15.6716 2.5 16.5C2.5 17.3284 3.17157 18 4 18Z" fill="url(#paint2_linear_206_5946)"/>
<path id="Vector_7" d="M20 9C20.8284 9 21.5 8.32843 21.5 7.5C21.5 6.67157 20.8284 6 20 6C19.1716 6 18.5 6.67157 18.5 7.5C18.5 8.32843 19.1716 9 20 9Z" fill="url(#paint3_linear_206_5946)"/>
<path id="Vector_8" d="M20 18C20.8284 18 21.5 17.3284 21.5 16.5C21.5 15.6716 20.8284 15 20 15C19.1716 15 18.5 15.6716 18.5 16.5C18.5 17.3284 19.1716 18 20 18Z" fill="url(#paint4_linear_206_5946)"/>
<path id="Vector_9" d="M12 22.5C12.8284 22.5 13.5 21.8284 13.5 21C13.5 20.1716 12.8284 19.5 12 19.5C11.1716 19.5 10.5 20.1716 10.5 21C10.5 21.8284 11.1716 22.5 12 22.5Z" fill="url(#paint5_linear_206_5946)"/>
<path id="Vector_10" d="M17.5 12C17.5 15.0375 15.0375 17.5 12 17.5C8.9625 17.5 6.5 15.0375 6.5 12C6.5 8.9625 8.9625 6.5 12 6.5C15.0375 6.5 17.5 8.9625 17.5 12Z" fill="url(#paint6_radial_206_5946)"/>
<path id="Vector_11" d="M12 17.5C13.5935 17.5 15.0245 16.818 16.029 15.735C15.3485 14.1845 13.802 13.1 12 13.1C10.198 13.1 8.6515 14.1845 7.971 15.735C8.9755 16.818 10.4065 17.5 12 17.5Z" fill="url(#paint7_radial_206_5946)"/>
<path id="Vector_12" d="M12 13C13.3807 13 14.5 11.8807 14.5 10.5C14.5 9.11929 13.3807 8 12 8C10.6193 8 9.5 9.11929 9.5 10.5C9.5 11.8807 10.6193 13 12 13Z" fill="url(#paint8_radial_206_5946)"/>
<path id="Vector_13" d="M12 12.5C13.1046 12.5 14 11.6046 14 10.5C14 9.39543 13.1046 8.5 12 8.5C10.8954 8.5 10 9.39543 10 10.5C10 11.6046 10.8954 12.5 12 12.5Z" fill="url(#paint9_linear_206_5946)"/>
<path id="Vector_14" d="M12 17.5C13.379 17.5 14.6365 16.9885 15.602 16.15C15.0545 14.6905 13.6505 13.65 12 13.65C10.3495 13.65 8.9455 14.6905 8.398 16.15C9.3635 16.9885 10.621 17.5 12 17.5Z" fill="url(#paint10_linear_206_5946)"/>
</g>
<defs>
<linearGradient id="paint0_linear_206_5946" x1="11.0055" y1="2.0055" x2="13.106" y2="4.1065" gradientUnits="userSpaceOnUse">
<stop stop-color="#33BEF0"/>
<stop offset="1" stop-color="#0A85D9"/>
</linearGradient>
<linearGradient id="paint1_linear_206_5946" x1="3.0055" y1="6.5055" x2="5.1065" y2="8.606" gradientUnits="userSpaceOnUse">
<stop stop-color="#33BEF0"/>
<stop offset="1" stop-color="#0A85D9"/>
</linearGradient>
<linearGradient id="paint2_linear_206_5946" x1="3.0055" y1="15.5055" x2="5.1065" y2="17.606" gradientUnits="userSpaceOnUse">
<stop stop-color="#33BEF0"/>
<stop offset="1" stop-color="#0A85D9"/>
</linearGradient>
<linearGradient id="paint3_linear_206_5946" x1="19.0055" y1="6.5055" x2="21.106" y2="8.606" gradientUnits="userSpaceOnUse">
<stop stop-color="#33BEF0"/>
<stop offset="1" stop-color="#0A85D9"/>
</linearGradient>
<linearGradient id="paint4_linear_206_5946" x1="19.0055" y1="15.5055" x2="21.106" y2="17.606" gradientUnits="userSpaceOnUse">
<stop stop-color="#33BEF0"/>
<stop offset="1" stop-color="#0A85D9"/>
</linearGradient>
<linearGradient id="paint5_linear_206_5946" x1="11.0055" y1="20.0055" x2="13.106" y2="22.106" gradientUnits="userSpaceOnUse">
<stop stop-color="#33BEF0"/>
<stop offset="1" stop-color="#0A85D9"/>
</linearGradient>
<radialGradient id="paint6_radial_206_5946" cx="0" cy="0" r="1" gradientUnits="userSpaceOnUse" gradientTransform="translate(8.4735 7.708) scale(11.086)">
<stop stop-color="#0370C8"/>
<stop offset="0.484" stop-color="#036FC5"/>
<stop offset="0.775" stop-color="#036ABD"/>
<stop offset="1" stop-color="#0362B0"/>
</radialGradient>
<radialGradient id="paint7_radial_206_5946" cx="0" cy="0" r="1" gradientUnits="userSpaceOnUse" gradientTransform="translate(12 17.5295) scale(4.4385)">
<stop/>
<stop offset="1" stop-opacity="0"/>
</radialGradient>
<radialGradient id="paint8_radial_206_5946" cx="0" cy="0" r="1" gradientUnits="userSpaceOnUse" gradientTransform="translate(11.9998 10.4996) scale(2.4999)">
<stop/>
<stop offset="1" stop-opacity="0"/>
</radialGradient>
<linearGradient id="paint9_linear_206_5946" x1="10.643" y1="9.143" x2="13.4335" y2="11.9335" gradientUnits="userSpaceOnUse">
<stop stop-color="#75DAFF"/>
<stop offset="1" stop-color="#1EA2E4"/>
</linearGradient>
<linearGradient id="paint10_linear_206_5946" x1="10.077" y1="13.9825" x2="13.894" y2="17.8" gradientUnits="userSpaceOnUse">
<stop stop-color="#75DAFF"/>
<stop offset="1" stop-color="#1EA2E4"/>
</linearGradient>
</defs>
</svg>
