<svg width="24" height="24" viewBox="0 0 24 24" fill="none" xmlns="http://www.w3.org/2000/svg">
<g id="customer-support">
<path id="Vector" d="M15.5 19.7L16.8 19.95C18.25 20.25 19.6 19.2 19.7 17.75L20 14.5L21.45 13.9C21.95 13.7 22.15 13.1 21.85 12.6L20 9.5C19.7 5.7 17.55 2 12 2C6.5 2 3.5 5.7 3.5 10C3.5 11.85 4.15 13.95 5.15 15.3C6.05 16.55 6.5 18.05 6.5 19.55V20.95C6.5 21.5025 6.9475 21.95 7.5 21.95H14.5C15.0525 21.95 15.5 21.5025 15.5 20.95V19.7Z" fill="url(#paint0_radial_206_5961)"/>
<path id="Vector_2" d="M12 1.5H11C10.724 1.5 10.5 1.724 10.5 2V11H12.5V2C12.5 1.724 12.276 1.5 12 1.5Z" fill="url(#paint1_linear_206_5961)"/>
<path id="Vector_3" d="M20 17.5H15.045C13.901 17.5 12.873 16.8645 12.3615 15.8415L11.0525 13.224L11.947 12.7765L13.256 15.3945C13.597 16.0765 14.2825 16.5 15.045 16.5H20V17.5Z" fill="url(#paint2_linear_206_5961)"/>
<path id="Vector_4" d="M11.5 15C13.1569 15 14.5 13.6569 14.5 12C14.5 10.3431 13.1569 9 11.5 9C9.84315 9 8.5 10.3431 8.5 12C8.5 13.6569 9.84315 15 11.5 15Z" fill="#0B5CA8"/>
<path id="Vector_5" d="M11.5 13.5C12.3284 13.5 13 12.8284 13 12C13 11.1716 12.3284 10.5 11.5 10.5C10.6716 10.5 10 11.1716 10 12C10 12.8284 10.6716 13.5 11.5 13.5Z" fill="#45D7F9"/>
<path id="Vector_6" d="M20 18C20.5523 18 21 17.5523 21 17C21 16.4477 20.5523 16 20 16C19.4477 16 19 16.4477 19 17C19 17.5523 19.4477 18 20 18Z" fill="url(#paint3_linear_206_5961)"/>
</g>
<defs>
<radialGradient id="paint0_radial_206_5961" cx="0" cy="0" r="1" gradientUnits="userSpaceOnUse" gradientTransform="translate(7.4805 1.495) scale(28.133)">
<stop stop-color="#FFCF54"/>
<stop offset="0.261" stop-color="#FDCB4D"/>
<stop offset="0.639" stop-color="#F7C13A"/>
<stop offset="1" stop-color="#F0B421"/>
</radialGradient>
<linearGradient id="paint1_linear_206_5961" x1="10.7015" y1="1.74" x2="12.3365" y2="11.444" gradientUnits="userSpaceOnUse">
<stop stop-color="#26ABE7"/>
<stop offset="1" stop-color="#086DBF"/>
</linearGradient>
<linearGradient id="paint2_linear_206_5961" x1="15.086" y1="12.2475" x2="16.082" y2="18.16" gradientUnits="userSpaceOnUse">
<stop stop-color="#26ABE7"/>
<stop offset="1" stop-color="#086DBF"/>
</linearGradient>
<linearGradient id="paint3_linear_206_5961" x1="19.524" y1="16.1485" x2="20.467" y2="17.8355" gradientUnits="userSpaceOnUse">
<stop stop-color="#3079D6"/>
<stop offset="1" stop-color="#297CD2"/>
</linearGradient>
</defs>
</svg>
