<svg width="24" height="24" viewBox="0 0 24 24" fill="none" xmlns="http://www.w3.org/2000/svg">
<g id="dashboard-layout">
<path id="Vector" d="M10 14H4C3.4475 14 3 13.5525 3 13V4C3 3.4475 3.4475 3 4 3H10C10.5525 3 11 3.4475 11 4V13C11 13.5525 10.5525 14 10 14Z" fill="#0078D4"/>
<path id="Vector_2" d="M20 8H14C13.4475 8 13 7.5525 13 7V4C13 3.4475 13.4475 3 14 3H20C20.5525 3 21 3.4475 21 4V7C21 7.5525 20.5525 8 20 8Z" fill="url(#paint0_linear_206_5968)"/>
<path id="Vector_3" d="M10 21H4C3.4475 21 3 20.5525 3 20V17C3 16.4475 3.4475 16 4 16H10C10.5525 16 11 16.4475 11 17V20C11 20.5525 10.5525 21 10 21Z" fill="url(#paint1_linear_206_5968)"/>
<path id="Vector_4" d="M20 21H14C13.4475 21 13 20.5525 13 20V11C13 10.4475 13.4475 10 14 10H20C20.5525 10 21 10.4475 21 11V20C21 20.5525 20.5525 21 20 21Z" fill="#0078D4"/>
</g>
<defs>
<linearGradient id="paint0_linear_206_5968" x1="15.9228" y1="3.21795" x2="16.5414" y2="8.66113" gradientUnits="userSpaceOnUse">
<stop stop-color="#32BDEF"/>
<stop offset="1" stop-color="#1EA2E4"/>
</linearGradient>
<linearGradient id="paint1_linear_206_5968" x1="5.9228" y1="16.218" x2="6.54145" y2="21.6611" gradientUnits="userSpaceOnUse">
<stop stop-color="#32BDEF"/>
<stop offset="1" stop-color="#1EA2E4"/>
</linearGradient>
</defs>
</svg>
