<svg width="24" height="24" viewBox="0 0 24 24" fill="none" xmlns="http://www.w3.org/2000/svg">
<g id="database">
<path id="Vector" d="M20 14H4C4 14 4 19.1355 4 19.5C4 20.6045 7.5815 21.5 12 21.5C16.4185 21.5 20 20.6045 20 19.5C20 19.1355 20 14 20 14Z" fill="url(#paint0_linear_206_5973)"/>
<path id="Vector_2" d="M20 9H4C4 9 4 14.1355 4 14.5C4 15.6045 7.5815 16.5 12 16.5C16.4185 16.5 20 15.6045 20 14.5C20 14.1355 20 9 20 9Z" fill="url(#paint1_linear_206_5973)"/>
<path id="Vector_3" d="M20 4H4C4 4 4 8.878 4 9.25C4 10.2165 7.5815 11 12 11C16.4185 11 20 10.2165 20 9.25C20 8.878 20 4 20 4Z" fill="url(#paint2_linear_206_5973)"/>
<path id="Vector_4" d="M12 5.5C16.4183 5.5 20 4.82843 20 4C20 3.17157 16.4183 2.5 12 2.5C7.58172 2.5 4 3.17157 4 4C4 4.82843 7.58172 5.5 12 5.5Z" fill="url(#paint3_linear_206_5973)"/>
</g>
<defs>
<linearGradient id="paint0_linear_206_5973" x1="4" y1="17.75" x2="20" y2="17.75" gradientUnits="userSpaceOnUse">
<stop stop-color="#11408A"/>
<stop offset="1" stop-color="#103F8F"/>
</linearGradient>
<linearGradient id="paint1_linear_206_5973" x1="4" y1="12.75" x2="20" y2="12.75" gradientUnits="userSpaceOnUse">
<stop stop-color="#1D59B3"/>
<stop offset="1" stop-color="#195BBC"/>
</linearGradient>
<linearGradient id="paint2_linear_206_5973" x1="4" y1="7.5" x2="20" y2="7.5" gradientUnits="userSpaceOnUse">
<stop stop-color="#3079D6"/>
<stop offset="1" stop-color="#297CD2"/>
</linearGradient>
<linearGradient id="paint3_linear_206_5973" x1="4" y1="4" x2="20" y2="4" gradientUnits="userSpaceOnUse">
<stop stop-color="#42A3F2"/>
<stop offset="1" stop-color="#42A4EB"/>
</linearGradient>
</defs>
</svg>
