<svg width="24" height="24" viewBox="0 0 24 24" fill="none" xmlns="http://www.w3.org/2000/svg">
<g id="database-server" clip-path="url(#clip0_206_5978)">
<path id="Vector" d="M18.0545 2H6.0545C5.502 2 5.0545 2.4475 5.0545 3V21C5.0545 21.5525 5.502 22 6.0545 22H18.0545C18.607 22 19.0545 21.5525 19.0545 21V3C19.0545 2.4475 18.607 2 18.0545 2Z" fill="url(#paint0_linear_206_5978)"/>
<path id="Vector_2" d="M12 20C12.8284 20 13.5 19.3284 13.5 18.5C13.5 17.6716 12.8284 17 12 17C11.1716 17 10.5 17.6716 10.5 18.5C10.5 19.3284 11.1716 20 12 20Z" fill="url(#paint1_radial_206_5978)"/>
<path id="Vector_3" d="M12 19.5C12.5523 19.5 13 19.0523 13 18.5C13 17.9477 12.5523 17.5 12 17.5C11.4477 17.5 11 17.9477 11 18.5C11 19.0523 11.4477 19.5 12 19.5Z" fill="white"/>
<path id="Vector_4" d="M16.75 7H7.25C7.112 7 7 6.888 7 6.75V4.25C7 4.112 7.112 4 7.25 4H16.75C16.888 4 17 4.112 17 4.25V6.75C17 6.888 16.888 7 16.75 7Z" fill="url(#paint2_linear_206_5978)"/>
<path id="Vector_5" d="M15.5 6C15.7761 6 16 5.77614 16 5.5C16 5.22386 15.7761 5 15.5 5C15.2239 5 15 5.22386 15 5.5C15 5.77614 15.2239 6 15.5 6Z" fill="url(#paint3_linear_206_5978)"/>
<path id="Vector_6" d="M16.75 11H7.25C7.112 11 7 10.888 7 10.75V8.25C7 8.112 7.112 8 7.25 8H16.75C16.888 8 17 8.112 17 8.25V10.75C17 10.888 16.888 11 16.75 11Z" fill="url(#paint4_linear_206_5978)"/>
<path id="Vector_7" d="M15.5 10C15.7761 10 16 9.77614 16 9.5C16 9.22386 15.7761 9 15.5 9C15.2239 9 15 9.22386 15 9.5C15 9.77614 15.2239 10 15.5 10Z" fill="url(#paint5_linear_206_5978)"/>
<path id="Vector_8" d="M16.75 15H7.25C7.112 15 7 14.888 7 14.75V12.25C7 12.112 7.112 12 7.25 12H16.75C16.888 12 17 12.112 17 12.25V14.75C17 14.888 16.888 15 16.75 15Z" fill="url(#paint6_linear_206_5978)"/>
<path id="Vector_9" d="M15.5 14C15.7761 14 16 13.7761 16 13.5C16 13.2239 15.7761 13 15.5 13C15.2239 13 15 13.2239 15 13.5C15 13.7761 15.2239 14 15.5 14Z" fill="url(#paint7_linear_206_5978)"/>
<path id="Vector_10" opacity="0.07" d="M15.8045 15.405V22H16.0545L19.0545 22.075V14.33C17.7945 14.4 15.8045 14.63 15.8045 15.405Z" fill="black"/>
<path id="Vector_11" opacity="0.05" d="M15.5545 15.405V22H19.0545V14.075C17.5645 14.145 15.5545 14.425 15.5545 15.405Z" fill="black"/>
<path id="Vector_12" d="M24 20.063H16.0545C16.0545 20.063 16.0545 22.759 16.0545 22.9505C16.0545 23.5305 17.833 24.0005 20.0275 24.0005C22.222 24.0005 24 23.5305 24 22.9505C24 22.7585 24 20.063 24 20.063Z" fill="url(#paint8_linear_206_5978)"/>
<path id="Vector_13" d="M24 17.58H16.0545C16.0545 17.58 16.0545 20.4215 16.0545 20.623C16.0545 21.234 17.833 21.7295 20.0275 21.7295C22.222 21.7295 24 21.2345 24 20.623C24 20.4215 24 17.58 24 17.58Z" fill="url(#paint9_linear_206_5978)"/>
<path id="Vector_14" d="M24 15.403H16.0545C16.0545 15.403 16.0545 17.7415 16.0545 17.943C16.0545 18.467 17.833 18.892 20.0275 18.892C22.222 18.892 24 18.467 24 17.943C24 17.7415 24 15.403 24 15.403Z" fill="url(#paint10_linear_206_5978)"/>
<path id="Vector_15" d="M20.027 16.2545C22.2212 16.2545 24 15.8733 24 15.403C24 14.9327 22.2212 14.5515 20.027 14.5515C17.8328 14.5515 16.054 14.9327 16.054 15.403C16.054 15.8733 17.8328 16.2545 20.027 16.2545Z" fill="url(#paint11_linear_206_5978)"/>
</g>
<defs>
<linearGradient id="paint0_linear_206_5978" x1="5.313" y1="2.671" x2="18.3275" y2="20.6805" gradientUnits="userSpaceOnUse">
<stop stop-color="#2AA4F4"/>
<stop offset="1" stop-color="#007AD9"/>
</linearGradient>
<radialGradient id="paint1_radial_206_5978" cx="0" cy="0" r="1" gradientUnits="userSpaceOnUse" gradientTransform="translate(12 18.5) scale(1.5)">
<stop offset="0.582" stop-opacity="0.2"/>
<stop offset="1" stop-opacity="0"/>
</radialGradient>
<linearGradient id="paint2_linear_206_5978" x1="7" y1="5.5" x2="17" y2="5.5" gradientUnits="userSpaceOnUse">
<stop stop-color="#1D59B3"/>
<stop offset="1" stop-color="#195BBC"/>
</linearGradient>
<linearGradient id="paint3_linear_206_5978" x1="15.3153" y1="5.01535" x2="15.8098" y2="5.96876" gradientUnits="userSpaceOnUse">
<stop stop-color="#7DD8F3"/>
<stop offset="1" stop-color="#45B0D0"/>
</linearGradient>
<linearGradient id="paint4_linear_206_5978" x1="7" y1="9.5" x2="17" y2="9.5" gradientUnits="userSpaceOnUse">
<stop stop-color="#1D59B3"/>
<stop offset="1" stop-color="#195BBC"/>
</linearGradient>
<linearGradient id="paint5_linear_206_5978" x1="15.3153" y1="9.01535" x2="15.8098" y2="9.96876" gradientUnits="userSpaceOnUse">
<stop stop-color="#7DD8F3"/>
<stop offset="1" stop-color="#45B0D0"/>
</linearGradient>
<linearGradient id="paint6_linear_206_5978" x1="7" y1="13.5" x2="17" y2="13.5" gradientUnits="userSpaceOnUse">
<stop stop-color="#1D59B3"/>
<stop offset="1" stop-color="#195BBC"/>
</linearGradient>
<linearGradient id="paint7_linear_206_5978" x1="15.3153" y1="13.0154" x2="15.8098" y2="13.9688" gradientUnits="userSpaceOnUse">
<stop stop-color="#7DD8F3"/>
<stop offset="1" stop-color="#45B0D0"/>
</linearGradient>
<linearGradient id="paint8_linear_206_5978" x1="18.8128" y1="20.2352" x2="19.138" y2="24.5015" gradientUnits="userSpaceOnUse">
<stop stop-color="#0D61A9"/>
<stop offset="1" stop-color="#16528C"/>
</linearGradient>
<linearGradient id="paint9_linear_206_5978" x1="18.9574" y1="17.7609" x2="19.3881" y2="22.2956" gradientUnits="userSpaceOnUse">
<stop stop-color="#32BDEF"/>
<stop offset="1" stop-color="#1EA2E4"/>
</linearGradient>
<linearGradient id="paint10_linear_206_5978" x1="20.0273" y1="15.3957" x2="20.0273" y2="18.8794" gradientUnits="userSpaceOnUse">
<stop stop-color="#2AA4F4"/>
<stop offset="1" stop-color="#007AD9"/>
</linearGradient>
<linearGradient id="paint11_linear_206_5978" x1="17.8144" y1="14.2978" x2="18.169" y2="16.727" gradientUnits="userSpaceOnUse">
<stop stop-color="#FCFCFC"/>
<stop offset="0.95" stop-color="#C3C9CD"/>
</linearGradient>
<clipPath id="clip0_206_5978">
<rect width="24" height="24" fill="white"/>
</clipPath>
</defs>
</svg>
