<svg width="24" height="24" viewBox="0 0 24 24" fill="none" xmlns="http://www.w3.org/2000/svg">
<g id="decision">
<path id="Vector" d="M19.4995 11.5H19V16H19.6665C20.154 16 20.5705 15.6485 20.6525 15.168L20.979 13.252C21.1345 12.336 20.4285 11.5 19.4995 11.5Z" fill="url(#paint0_linear_206_6006)"/>
<path id="Vector_2" d="M4.5005 11.5H5V16H4.3335C3.846 16 3.4295 15.6485 3.3475 15.168L3.021 13.252C2.8655 12.336 3.5715 11.5 4.5005 11.5Z" fill="url(#paint1_linear_206_6006)"/>
<path id="Vector_3" d="M12 2C8.299 2 4.5 3.5 4.5 10.5C4.5 11.1405 4.5 14.96 4.5 15.644C4.5 18.5 9 22 12 22C15 22 19.5 18.5 19.5 15.644C19.5 14.96 19.5 11.1405 19.5 10.5C19.5 3.5 15.701 2 12 2Z" fill="url(#paint2_radial_206_6006)"/>
<path id="Vector_4" opacity="0.05" d="M13.8375 16.706C13.8375 17.6675 13.1185 18.3395 12.088 18.3395C11.23 18.3395 10.318 17.767 10.318 16.706C10.318 15.654 11.23 15.086 12.088 15.086C12.9575 15.086 13.8375 15.6425 13.8375 16.706Z" fill="black"/>
<path id="Vector_5" opacity="0.05" d="M12.156 6C10.871 6 9.837 6.442 9.331 6.708C9.1205 6.8185 8.993 7.038 8.993 7.2755V9.8315C8.993 10.0795 9.2865 10.2065 9.469 10.038C9.971 9.574 10.836 8.9595 11.8945 8.9595C12.149 8.9595 12.576 9.0345 12.576 9.5365C12.576 10.031 12.2785 10.315 11.7535 10.774C11.1235 11.3245 10.3395 12.01 10.3395 13.404C10.3395 13.837 10.421 14.1925 10.501 14.4365C10.5735 14.657 10.784 14.8015 11.0165 14.8015C11.0165 14.8015 12.734 14.7985 12.98 14.7985C13.559 14.7985 13.5065 14.3735 13.4295 14.163C13.38 14.027 13.284 13.817 13.284 13.621C13.284 13.1425 13.6205 12.834 14.2155 12.3295C14.9835 11.6785 15.9395 10.868 15.9395 9.207C15.9405 7.199 14.526 6 12.156 6Z" fill="black"/>
<path id="Vector_6" opacity="0.07" d="M12.088 15.336C12.8185 15.336 13.5875 15.78 13.5875 16.706C13.5875 17.581 12.912 18.0895 12.088 18.0895C11.3505 18.0895 10.568 17.6105 10.568 16.706C10.568 15.806 11.363 15.336 12.088 15.336Z" fill="black"/>
<path id="Vector_7" opacity="0.07" d="M9.49349 6.9015C9.96849 6.6475 10.899 6.25 12.1565 6.25C14.9625 6.25 15.6905 7.964 15.6905 9.208C15.6905 10.731 14.828 11.4835 14.0885 12.111C13.5965 12.528 13.275 12.8435 13.134 13.26C12.9785 13.7195 13.2065 14.066 13.212 14.083C13.276 14.268 13.2215 14.551 12.804 14.551C12.456 14.5515 11.2455 14.552 11.2455 14.552C11.1295 14.552 10.7855 14.48 10.749 14.3695C10.688 14.195 10.5975 13.8465 10.591 13.4675C10.59 13.4255 10.5905 13.383 10.591 13.341C10.618 11.9915 11.455 11.389 12.09 10.8075C12.5355 10.403 12.826 10.071 12.826 9.5365C12.826 9.0685 12.52 8.9035 12.2815 8.8235C11.981 8.7225 11.6555 8.74 11.4705 8.774C10.8 8.8985 10.2275 9.1955 9.82599 9.4915C9.63449 9.6325 9.40299 9.63 9.33449 9.559C9.29649 9.5885 9.24249 9.3895 9.24249 9.341V7.407C9.24249 7.3665 9.25299 7.242 9.26399 7.205C9.30149 7.08 9.37349 6.9655 9.49349 6.9015Z" fill="black"/>
<path id="Vector_8" d="M10.997 14.3025C10.947 14.173 10.84 13.7865 10.84 13.405C10.84 11.2325 13.0765 11.149 13.0765 9.5375C13.0765 8.523 12.074 8.4605 11.8945 8.4605C10.756 8.4605 9.867 9.1115 9.493 9.4405V7.189C9.877 6.959 10.756 6.5 12.1565 6.5C15.3995 6.5 15.4405 8.729 15.4405 9.208C15.4405 11.781 12.785 11.972 12.785 13.6215C12.785 13.9655 12.9095 14.2175 12.9645 14.302H10.997V14.3025ZM12.088 17.8395C11.4705 17.8395 10.818 17.4545 10.818 16.706C10.818 15.958 11.496 15.586 12.088 15.586C12.68 15.586 13.3375 15.918 13.3375 16.706C13.3375 17.494 12.7055 17.8395 12.088 17.8395Z" fill="white"/>
</g>
<defs>
<linearGradient id="paint0_linear_206_6006" x1="21.1155" y1="13.75" x2="19.3185" y2="13.75" gradientUnits="userSpaceOnUse">
<stop stop-color="#0F5695"/>
<stop offset="0.963" stop-color="#134575"/>
</linearGradient>
<linearGradient id="paint1_linear_206_6006" x1="2.976" y1="13.75" x2="4.5325" y2="13.75" gradientUnits="userSpaceOnUse">
<stop stop-color="#0F5695"/>
<stop offset="1" stop-color="#134575"/>
</linearGradient>
<radialGradient id="paint2_radial_206_6006" cx="0" cy="0" r="1" gradientUnits="userSpaceOnUse" gradientTransform="translate(12.3435 11.64) scale(9.8725)">
<stop stop-color="#0370C8"/>
<stop offset="0.484" stop-color="#036FC5"/>
<stop offset="0.775" stop-color="#036ABD"/>
<stop offset="1" stop-color="#0362B0"/>
</radialGradient>
</defs>
</svg>
