<svg width="24" height="24" viewBox="0 0 24 24" fill="none" xmlns="http://www.w3.org/2000/svg">
<g id="desktop">
<path id="Vector" d="M4 3H20C20.5525 3 21 3.4475 21 4V20C21 20.5525 20.5525 21 20 21H4C3.4475 21 3 20.5525 3 20V4C3 3.4475 3.4475 3 4 3Z" fill="url(#paint0_radial_206_6060)"/>
<path id="Vector_2" d="M21 20V18H3V20C3 20.5525 3.4475 21 4 21H20C20.5525 21 21 20.5525 21 20Z" fill="url(#paint1_linear_206_6060)"/>
<path id="Vector_3" opacity="0.05" d="M4.25 20.5C3.8365 20.5 3.5 20.1635 3.5 19.75V19.25C3.5 18.8365 3.8365 18.5 4.25 18.5H4.75C5.1635 18.5 5.5 18.8365 5.5 19.25V19.75C5.5 20.1635 5.1635 20.5 4.75 20.5H4.25Z" fill="black"/>
<path id="Vector_4" opacity="0.07" d="M4.25 20.25C3.9745 20.25 3.75 20.0255 3.75 19.75V19.25C3.75 18.9745 3.9745 18.75 4.25 18.75H4.75C5.0255 18.75 5.25 18.9745 5.25 19.25V19.75C5.25 20.0255 5.0255 20.25 4.75 20.25H4.25Z" fill="black"/>
<path id="Vector_5" d="M4.75 20H4.25C4.112 20 4 19.888 4 19.75V19.25C4 19.112 4.112 19 4.25 19H4.75C4.888 19 5 19.112 5 19.25V19.75C5 19.888 4.888 20 4.75 20Z" fill="white"/>
<path id="Vector_6" opacity="0.05" d="M5.25 7.5C4.8365 7.5 4.5 7.1635 4.5 6.75V5.25C4.5 4.8365 4.8365 4.5 5.25 4.5H6.75C7.1635 4.5 7.5 4.8365 7.5 5.25V6.75C7.5 7.1635 7.1635 7.5 6.75 7.5H5.25Z" fill="black"/>
<path id="Vector_7" opacity="0.07" d="M5.25 7.25C4.9745 7.25 4.75 7.0255 4.75 6.75V5.25C4.75 4.9745 4.9745 4.75 5.25 4.75H6.75C7.0255 4.75 7.25 4.9745 7.25 5.25V6.75C7.25 7.0255 7.0255 7.25 6.75 7.25H5.25Z" fill="black"/>
<path id="Vector_8" d="M6.75 7H5.25C5.112 7 5 6.888 5 6.75V5.25C5 5.112 5.112 5 5.25 5H6.75C6.888 5 7 5.112 7 5.25V6.75C7 6.888 6.888 7 6.75 7Z" fill="white"/>
<path id="Vector_9" opacity="0.05" d="M5.25 11.5C4.8365 11.5 4.5 11.1635 4.5 10.75V9.25C4.5 8.8365 4.8365 8.5 5.25 8.5H6.75C7.1635 8.5 7.5 8.8365 7.5 9.25V10.75C7.5 11.1635 7.1635 11.5 6.75 11.5H5.25Z" fill="black"/>
<path id="Vector_10" opacity="0.07" d="M5.25 11.25C4.9745 11.25 4.75 11.0255 4.75 10.75V9.25C4.75 8.9745 4.9745 8.75 5.25 8.75H6.75C7.0255 8.75 7.25 8.9745 7.25 9.25V10.75C7.25 11.0255 7.0255 11.25 6.75 11.25H5.25Z" fill="black"/>
<path id="Vector_11" d="M6.75 11H5.25C5.112 11 5 10.888 5 10.75V9.25C5 9.112 5.112 9 5.25 9H6.75C6.888 9 7 9.112 7 9.25V10.75C7 10.888 6.888 11 6.75 11Z" fill="white"/>
</g>
<defs>
<radialGradient id="paint0_radial_206_6060" cx="0" cy="0" r="1" gradientUnits="userSpaceOnUse" gradientTransform="translate(24.2175 40.4521) scale(36.9603 46.4947)">
<stop offset="0.323" stop-color="#23D9D6"/>
<stop offset="0.427" stop-color="#23D4D7"/>
<stop offset="0.542" stop-color="#21C7DC"/>
<stop offset="0.664" stop-color="#1FB0E2"/>
<stop offset="0.789" stop-color="#1C91EC"/>
<stop offset="0.917" stop-color="#1969F8"/>
<stop offset="0.944" stop-color="#1860FB"/>
</radialGradient>
<linearGradient id="paint1_linear_206_6060" x1="9.2487" y1="18.1312" x2="9.33248" y2="21.3984" gradientUnits="userSpaceOnUse">
<stop stop-color="#0D61A9"/>
<stop offset="1" stop-color="#16528C"/>
</linearGradient>
</defs>
</svg>
