<svg width="24" height="24" viewBox="0 0 24 24" fill="none" xmlns="http://www.w3.org/2000/svg">
<g id="details-side-pane">
<path id="Vector" d="M2 19V6.5L12 5.5L22 6.5L15 20H3C2.45 20 2 19.55 2 19Z" fill="url(#paint0_linear_206_6072)"/>
<path id="Vector_2" d="M15 20H21C21.5525 20 22 19.5525 22 19V6.5H15V20Z" fill="url(#paint1_linear_206_6072)"/>
<path id="Vector_3" d="M9 6.5H8V20H9V6.5Z" fill="#0A85D9"/>
<path id="Vector_4" d="M22 5V6.5H2V5C2 4.45 2.45 4 3 4H21C21.55 4 22 4.45 22 5ZM20.5 9.75V9.25C20.5 9.112 20.388 9 20.25 9H16.75C16.612 9 16.5 9.112 16.5 9.25V9.75C16.5 9.888 16.612 10 16.75 10H20.25C20.388 10 20.5 9.888 20.5 9.75ZM20.5 13.25V12.75C20.5 12.612 20.388 12.5 20.25 12.5H16.75C16.612 12.5 16.5 12.612 16.5 12.75V13.25C16.5 13.388 16.612 13.5 16.75 13.5H20.25C20.388 13.5 20.5 13.388 20.5 13.25ZM20.5 16.75V16.25C20.5 16.112 20.388 16 20.25 16H16.75C16.612 16 16.5 16.112 16.5 16.25V16.75C16.5 16.888 16.612 17 16.75 17H20.25C20.388 17 20.5 16.888 20.5 16.75Z" fill="url(#paint2_linear_206_6072)"/>
</g>
<defs>
<linearGradient id="paint0_linear_206_6072" x1="6.43083" y1="3.33989" x2="14.8179" y2="20.322" gradientUnits="userSpaceOnUse">
<stop stop-color="#FCFCFC"/>
<stop offset="0.95" stop-color="#C3C9CD"/>
</linearGradient>
<linearGradient id="paint1_linear_206_6072" x1="18.5" y1="6.47168" x2="18.5" y2="19.9513" gradientUnits="userSpaceOnUse">
<stop stop-color="#2AA4F4"/>
<stop offset="1" stop-color="#007AD9"/>
</linearGradient>
<linearGradient id="paint2_linear_206_6072" x1="1.6735" y1="6.995" x2="21.195" y2="10.964" gradientUnits="userSpaceOnUse">
<stop stop-color="#0077D2"/>
<stop offset="1" stop-color="#0B59A2"/>
</linearGradient>
</defs>
</svg>
