<svg width="24" height="24" viewBox="0 0 24 24" fill="none" xmlns="http://www.w3.org/2000/svg">
<g id="detective">
<path id="Vector" d="M17.9915 16.224L16.2235 17.992L20.1585 21.927C20.256 22.0245 20.4145 22.0245 20.512 21.927L21.926 20.513C22.0235 20.4155 22.0235 20.257 21.926 20.1595L17.9915 16.224Z" fill="url(#paint0_linear_206_6077)"/>
<path id="Vector_2" d="M15.8005 14.0325L14.0325 15.8005L16.224 17.9915L17.9915 16.224L15.8005 14.0325Z" fill="url(#paint1_radial_206_6077)"/>
<path id="Vector_3" d="M10 18C14.4183 18 18 14.4183 18 10C18 5.58172 14.4183 2 10 2C5.58172 2 2 5.58172 2 10C2 14.4183 5.58172 18 10 18Z" fill="url(#paint2_linear_206_6077)"/>
<path id="Vector_4" d="M10 14.5C12.4853 14.5 14.5 12.4853 14.5 10C14.5 7.51472 12.4853 5.5 10 5.5C7.51472 5.5 5.5 7.51472 5.5 10C5.5 12.4853 7.51472 14.5 10 14.5Z" fill="url(#paint3_linear_206_6077)"/>
<path id="Vector_5" d="M10 12C11.1046 12 12 11.1046 12 10C12 8.89543 11.1046 8 10 8C8.89543 8 8 8.89543 8 10C8 11.1046 8.89543 12 10 12Z" fill="url(#paint4_radial_206_6077)"/>
<path id="Vector_6" d="M8.75 9.5C9.16421 9.5 9.5 9.16421 9.5 8.75C9.5 8.33579 9.16421 8 8.75 8C8.33579 8 8 8.33579 8 8.75C8 9.16421 8.33579 9.5 8.75 9.5Z" fill="white"/>
</g>
<defs>
<linearGradient id="paint0_linear_206_6077" x1="17.503" y1="15.3635" x2="21.4186" y2="21.1109" gradientUnits="userSpaceOnUse">
<stop stop-color="#FCFCFC"/>
<stop offset="0.95" stop-color="#C3C9CD"/>
</linearGradient>
<radialGradient id="paint1_radial_206_6077" cx="0" cy="0" r="1" gradientUnits="userSpaceOnUse" gradientTransform="translate(10.012 10.048) scale(9.802)">
<stop offset="0.693" stop-color="#006185"/>
<stop offset="0.921" stop-color="#35C1F1"/>
</radialGradient>
<linearGradient id="paint2_linear_206_6077" x1="5.54467" y1="-0.383567" x2="16.3904" y2="15.5378" gradientUnits="userSpaceOnUse">
<stop stop-color="#FCFCFC"/>
<stop offset="0.95" stop-color="#C3C9CD"/>
</linearGradient>
<linearGradient id="paint3_linear_206_6077" x1="7.1355" y1="7.1355" x2="12.9455" y2="12.9455" gradientUnits="userSpaceOnUse">
<stop stop-color="#32BDEF"/>
<stop offset="1" stop-color="#32BDEF"/>
</linearGradient>
<radialGradient id="paint4_radial_206_6077" cx="0" cy="0" r="1" gradientUnits="userSpaceOnUse" gradientTransform="translate(8.8215 7.074) scale(5.191)">
<stop stop-color="#4B4B4B"/>
<stop offset="0.531" stop-color="#393939"/>
<stop offset="1" stop-color="#252525"/>
</radialGradient>
</defs>
</svg>
