<svg width="24" height="24" viewBox="0 0 24 24" fill="none" xmlns="http://www.w3.org/2000/svg">
<g id="diabetes">
<path id="Vector" d="M8.3625 4.18C8.366 4.1805 8.3685 4.182 8.372 4.1825L8.3725 4.1815L8.3625 4.18Z" fill="url(#paint0_linear_206_6084)"/>
<path id="Vector_2" d="M13.549 17.869L14.5 11.5H21.1785C21.8325 11.5 22.428 11.0295 22.4935 10.379C22.5685 9.6305 21.983 9 21.25 9C21.1315 9 3.516 9 3.516 9C2.866 9.7305 2.5 10.6735 2.5 11.657V17C2.5 18.657 3.843 20 5.5 20H11.0765C12.3145 20 13.366 19.094 13.549 17.869Z" fill="url(#paint1_linear_206_6084)"/>
<path id="Vector_3" d="M21.25 11C21.6642 11 22 10.6642 22 10.25C22 9.83579 21.6642 9.5 21.25 9.5C20.8358 9.5 20.5 9.83579 20.5 10.25C20.5 10.6642 20.8358 11 21.25 11Z" fill="#FFF0C9"/>
<path id="Vector_4" d="M12 4.0115C12 3.1515 11.466 2.7625 10.754 2.7625L3.689 8.8055C3.627 8.8675 3.571 8.9345 3.513 9H10.866C8.926 7.8635 10.6625 7.0305 10.461 6.165C10.461 6.165 12 5.805 12 4.0115Z" fill="url(#paint2_linear_206_6084)"/>
<path id="Vector_5" d="M22.5 18C22.5 17.378 21.6555 15.8595 21.2335 15.14C21.129 14.9615 20.8705 14.9615 20.766 15.14C20.3445 15.8595 19.5 17.378 19.5 18C19.5 18.829 20.1715 19.5 21 19.5C21.8285 19.5 22.5 18.829 22.5 18Z" fill="url(#paint3_linear_206_6084)"/>
</g>
<defs>
<linearGradient id="paint0_linear_206_6084" x1="8.36848" y1="4.18241" x2="8.36832" y2="4.1834" gradientUnits="userSpaceOnUse">
<stop stop-color="#FFC430"/>
<stop offset="0.57" stop-color="#F8BD29"/>
<stop offset="1" stop-color="#F0B421"/>
</linearGradient>
<linearGradient id="paint1_linear_206_6084" x1="13.1985" y1="9.698" x2="-0.279" y2="22.676" gradientUnits="userSpaceOnUse">
<stop stop-color="#FFC430"/>
<stop offset="0.41" stop-color="#FEC130"/>
<stop offset="0.72" stop-color="#FCB730"/>
<stop offset="0.998" stop-color="#F7A72F"/>
<stop offset="1" stop-color="#F7A72F"/>
</linearGradient>
<linearGradient id="paint2_linear_206_6084" x1="7.2465" y1="5.6945" x2="11.4115" y2="9.918" gradientUnits="userSpaceOnUse">
<stop offset="0.282" stop-color="#FFC430"/>
<stop offset="0.401" stop-color="#F8BD2D"/>
<stop offset="0.574" stop-color="#E5AA23"/>
<stop offset="0.78" stop-color="#C58A14"/>
<stop offset="1" stop-color="#9C6000"/>
</linearGradient>
<linearGradient id="paint3_linear_206_6084" x1="19.773" y1="15.288" x2="21.703" y2="19.53" gradientUnits="userSpaceOnUse">
<stop stop-color="#F44F5A"/>
<stop offset="0.443" stop-color="#EE3D4A"/>
<stop offset="1" stop-color="#E52030"/>
</linearGradient>
</defs>
</svg>
