<svg width="24" height="24" viewBox="0 0 24 24" fill="none" xmlns="http://www.w3.org/2000/svg">
<g id="diploma">
<path id="Vector" d="M21 3.5H3C2.4475 3.5 2 3.9475 2 4.5V19.5C2 20.0525 2.4475 20.5 3 20.5H21C21.5525 20.5 22 20.0525 22 19.5V4.5C22 3.9475 21.5525 3.5 21 3.5Z" fill="url(#paint0_linear_206_6090)"/>
<path id="Vector_2" d="M18.5 4.5H5.5C5.5 5.8805 4.3805 7 3 7V17C4.3805 17 5.5 18.1195 5.5 19.5H18.5C18.5 18.1195 19.6195 17 21 17V7C19.6195 7 18.5 5.8805 18.5 4.5ZM16 11.5H8C7.724 11.5 7.5 11.276 7.5 11C7.5 10.724 7.724 10.5 8 10.5H16C16.276 10.5 16.5 10.724 16.5 11C16.5 11.276 16.276 11.5 16 11.5ZM16.5 9.5H7.5C6.9475 9.5 6.5 9.0525 6.5 8.5C6.5 7.9475 6.9475 7.5 7.5 7.5H16.5C17.0525 7.5 17.5 7.9475 17.5 8.5C17.5 9.0525 17.0525 9.5 16.5 9.5Z" fill="url(#paint1_linear_206_6090)"/>
<path id="Vector_3" d="M13.1115 21.958L12 21.2165L10.8885 21.9575C10.7225 22.069 10.5 21.9495 10.5 21.75V17.217H13.5V21.75C13.5 21.9495 13.2775 22.069 13.1115 21.958Z" fill="url(#paint2_linear_206_6090)"/>
<path id="Vector_4" d="M14.3665 16.2635L14.1915 16.1585C14.117 16.1135 14.0665 16.04 14.044 15.9565C14.0435 15.955 14.043 15.9535 14.0425 15.952C14.019 15.8675 14.026 15.7775 14.069 15.701L14.168 15.5225C14.2695 15.34 14.1395 15.1155 13.931 15.112L13.725 15.1085C13.6375 15.107 13.557 15.068 13.4955 15.0065C13.495 15.0055 13.4945 15.005 13.4935 15.0045C13.4315 14.943 13.393 14.862 13.3915 14.775L13.388 14.569C13.3845 14.3605 13.16 14.231 12.9775 14.332L12.8005 14.432C12.7235 14.4745 12.634 14.4815 12.5495 14.4585C12.548 14.458 12.5465 14.4575 12.5445 14.457C12.4605 14.434 12.387 14.384 12.3425 14.3095L12.2375 14.1345C12.13 13.9555 11.871 13.9555 11.7635 14.1345L11.659 14.3085C11.614 14.3835 11.5395 14.4345 11.4555 14.4575C11.4545 14.458 11.454 14.458 11.453 14.4585C11.3675 14.482 11.277 14.475 11.2 14.432L11.0225 14.3335C10.84 14.232 10.6155 14.362 10.612 14.5705L10.608 14.776C10.6065 14.863 10.5675 14.944 10.506 15.0055C10.505 15.006 10.5045 15.007 10.504 15.0075C10.4425 15.0695 10.3615 15.108 10.2745 15.1095L10.0685 15.113C9.86 15.1165 9.7305 15.341 9.8315 15.5235L9.9305 15.702C9.973 15.779 9.98 15.8685 9.957 15.953C9.9565 15.9545 9.956 15.9565 9.9555 15.9575C9.9325 16.0415 9.882 16.115 9.808 16.1595L9.633 16.2645C9.454 16.372 9.454 16.631 9.633 16.7385L9.808 16.8435C9.8825 16.8885 9.933 16.962 9.9555 17.0455C9.956 17.047 9.9565 17.0485 9.957 17.05C9.9805 17.1345 9.9735 17.2245 9.9305 17.301L9.8315 17.4795C9.73 17.662 9.86 17.8865 10.0685 17.89L10.2745 17.8935C10.362 17.895 10.4425 17.934 10.504 17.9955C10.5045 17.996 10.505 17.9965 10.506 17.9975C10.568 18.059 10.6065 18.14 10.608 18.227L10.6115 18.433C10.615 18.6415 10.8395 18.771 11.022 18.67L11.2005 18.571C11.2775 18.5285 11.367 18.5215 11.4515 18.5445C11.453 18.545 11.455 18.545 11.4565 18.5455C11.5405 18.5685 11.614 18.6185 11.6585 18.693L11.7635 18.868C11.871 19.047 12.13 19.047 12.2375 18.868L12.3425 18.693C12.3875 18.6185 12.461 18.568 12.5445 18.5455C12.546 18.545 12.548 18.545 12.5495 18.5445C12.634 18.521 12.724 18.528 12.8005 18.571L12.979 18.67C13.1615 18.7715 13.386 18.6415 13.3895 18.433L13.393 18.227C13.3945 18.1395 13.4335 18.059 13.495 17.9975C13.496 17.997 13.4965 17.9965 13.497 17.9955C13.5585 17.9335 13.6395 17.895 13.7265 17.8935L13.9325 17.89C14.141 17.8865 14.2705 17.662 14.1695 17.4795L14.0705 17.301C14.028 17.224 14.021 17.1345 14.044 17.05C14.0445 17.0485 14.0445 17.047 14.045 17.0455C14.068 16.9615 14.118 16.888 14.1925 16.8435L14.3675 16.7385C14.5455 16.6295 14.5455 16.371 14.3665 16.2635Z" fill="url(#paint3_linear_206_6090)"/>
</g>
<defs>
<linearGradient id="paint0_linear_206_6090" x1="2" y1="12" x2="22" y2="12" gradientUnits="userSpaceOnUse">
<stop stop-color="#32BDEF"/>
<stop offset="1" stop-color="#1EA2E4"/>
</linearGradient>
<linearGradient id="paint1_linear_206_6090" x1="7.6693" y1="3.64111" x2="17.7205" y2="16.3724" gradientUnits="userSpaceOnUse">
<stop stop-color="#FCFCFC"/>
<stop offset="0.495" stop-color="#F4F4F4"/>
<stop offset="0.946" stop-color="#E8E8E8"/>
<stop offset="1" stop-color="#E8E8E8"/>
</linearGradient>
<linearGradient id="paint2_linear_206_6090" x1="10.9394" y1="17.9175" x2="13.9843" y2="19.8272" gradientUnits="userSpaceOnUse">
<stop stop-color="#21AD64"/>
<stop offset="1" stop-color="#088242"/>
</linearGradient>
<linearGradient id="paint3_linear_206_6090" x1="10.729" y1="14.2915" x2="13.261" y2="18.692" gradientUnits="userSpaceOnUse">
<stop stop-color="#FFDA1C"/>
<stop offset="1" stop-color="#FEB705"/>
</linearGradient>
</defs>
</svg>
