<svg width="24" height="24" viewBox="0 0 24 24" fill="none" xmlns="http://www.w3.org/2000/svg">
<g id="disk-cleanup">
<g id="&#208;&#161;&#208;&#187;&#208;&#190;&#208;&#185; 2">
<path id="Vector" d="M5.382 3H18.6175C18.8611 3.00005 19.0963 3.08904 19.279 3.25024C19.4616 3.41144 19.5792 3.63378 19.6095 3.8755L21 16H3L4.39 3.8755C4.42033 3.63378 4.53786 3.41144 4.72051 3.25024C4.90316 3.08904 5.13838 3.00005 5.382 3Z" fill="url(#paint0_linear_206_6095)"/>
<path id="Vector_2" d="M20 15H4C3.73478 15 3.48043 15.1054 3.29289 15.2929C3.10536 15.4804 3 15.7348 3 16V20C3 20.2652 3.10536 20.5196 3.29289 20.7071C3.48043 20.8946 3.73478 21 4 21H20C20.2652 21 20.5196 20.8946 20.7071 20.7071C20.8946 20.5196 21 20.2652 21 20V16C21 15.7348 20.8946 15.4804 20.7071 15.2929C20.5196 15.1054 20.2652 15 20 15Z" fill="url(#paint1_linear_206_6095)"/>
<path id="Vector_3" d="M6 9H18V11C18 11.1326 17.9473 11.2598 17.8536 11.3536C17.7598 11.4473 17.6326 11.5 17.5 11.5H6.5C6.36739 11.5 6.24021 11.4473 6.14645 11.3536C6.05268 11.2598 6 11.1326 6 11V9Z" fill="url(#paint2_linear_206_6095)"/>
<path id="Vector_4" d="M4.412 6.5C4.27418 6.49895 4.13656 6.4891 4 6.4705V6.1405H2.914C2.32282 5.95317 1.68818 5.95317 1.097 6.1405L0 6.255V7.2655H0.0025C0.016 7.95 0.904 8.5 2 8.5C2.4027 8.50434 2.80166 8.42234 3.17 8.2595C3.56049 8.08459 3.98415 7.99607 4.412 8H6V6.5H4.412Z" fill="url(#paint3_linear_206_6095)"/>
<path id="Vector_5" d="M5 7.5H19V8.5C19 8.63261 18.9473 8.75979 18.8536 8.85355C18.7598 8.94732 18.6326 9 18.5 9H5.5C5.36739 9 5.24021 8.94732 5.14645 8.85355C5.05268 8.75979 5 8.63261 5 8.5V7.5Z" fill="url(#paint4_linear_206_6095)"/>
<path id="Vector_6" d="M18.995 7.4295L18.5615 4.9295C18.5445 4.81031 18.4851 4.70125 18.3942 4.62234C18.3032 4.54344 18.1869 4.5 18.0665 4.5H5.9335C5.81311 4.5 5.69676 4.54344 5.60582 4.62234C5.51489 4.70125 5.45548 4.81031 5.4385 4.9295L5.357 5.5H4.412C3.98415 5.50393 3.56049 5.41541 3.17 5.2405C2.80166 5.07767 2.4027 4.99566 2 5C0.8955 5 0 5.5595 0 6.25C0 6.9405 0.8955 7.5 2 7.5C2.40264 7.50419 2.80153 7.42237 3.17 7.26C3.56038 7.08469 3.98409 6.99599 4.412 7H5.0695L5.0085 7.4295C4.99841 7.50036 5.00365 7.57256 5.02386 7.64122C5.04408 7.70988 5.0788 7.77341 5.12568 7.82749C5.17256 7.88158 5.23051 7.92497 5.2956 7.95473C5.3607 7.98449 5.43142 7.99993 5.503 8H18.5C18.5716 8 18.6424 7.98461 18.7076 7.95488C18.7727 7.92515 18.8307 7.88177 18.8777 7.82768C18.9246 7.77359 18.9594 7.71004 18.9796 7.64134C18.9998 7.57265 19.0051 7.5004 18.995 7.4295Z" fill="url(#paint5_linear_206_6095)"/>
<path id="Vector_7" opacity="0.05" d="M17.5 17C17.6978 17 17.8911 17.0586 18.0556 17.1685C18.22 17.2784 18.3482 17.4346 18.4239 17.6173C18.4996 17.8 18.5194 18.0011 18.4808 18.1951C18.4422 18.3891 18.347 18.5673 18.2071 18.7071C18.0673 18.847 17.8891 18.9422 17.6951 18.9808C17.5011 19.0194 17.3 18.9996 17.1173 18.9239C16.9346 18.8482 16.7784 18.72 16.6685 18.5556C16.5586 18.3911 16.5 18.1978 16.5 18C16.5 17.7348 16.6054 17.4804 16.7929 17.2929C16.9804 17.1054 17.2348 17 17.5 17ZM17.5 16.5C17.2033 16.5 16.9133 16.588 16.6666 16.7528C16.42 16.9176 16.2277 17.1519 16.1142 17.426C16.0007 17.7001 15.9709 18.0017 16.0288 18.2926C16.0867 18.5836 16.2296 18.8509 16.4393 19.0607C16.6491 19.2704 16.9164 19.4133 17.2074 19.4712C17.4983 19.5291 17.7999 19.4993 18.074 19.3858C18.3481 19.2723 18.5824 19.08 18.7472 18.8334C18.912 18.5867 19 18.2967 19 18C19 17.6022 18.842 17.2206 18.5607 16.9393C18.2794 16.658 17.8978 16.5 17.5 16.5Z" fill="black"/>
<path id="Vector_8" opacity="0.07" d="M17.5 17C17.6978 17 17.8911 17.0586 18.0556 17.1685C18.22 17.2784 18.3482 17.4346 18.4239 17.6173C18.4996 17.8 18.5194 18.0011 18.4808 18.1951C18.4422 18.3891 18.347 18.5673 18.2071 18.7071C18.0673 18.847 17.8891 18.9422 17.6951 18.9808C17.5011 19.0194 17.3 18.9996 17.1173 18.9239C16.9346 18.8482 16.7784 18.72 16.6685 18.5556C16.5586 18.3911 16.5 18.1978 16.5 18C16.5 17.7348 16.6054 17.4804 16.7929 17.2929C16.9804 17.1054 17.2348 17 17.5 17ZM17.5 16.75C17.2528 16.75 17.0111 16.8233 16.8055 16.9607C16.6 17.098 16.4398 17.2932 16.3452 17.5216C16.2505 17.7501 16.2258 18.0014 16.274 18.2439C16.3223 18.4863 16.4413 18.7091 16.6161 18.8839C16.7909 19.0587 17.0137 19.1777 17.2561 19.226C17.4986 19.2742 17.7499 19.2495 17.9784 19.1549C18.2068 19.0602 18.402 18.9 18.5393 18.6945C18.6767 18.4889 18.75 18.2472 18.75 18C18.75 17.6685 18.6183 17.3505 18.3839 17.1161C18.1495 16.8817 17.8315 16.75 17.5 16.75Z" fill="black"/>
<path id="Vector_9" d="M17.5 19C18.0523 19 18.5 18.5523 18.5 18C18.5 17.4477 18.0523 17 17.5 17C16.9477 17 16.5 17.4477 16.5 18C16.5 18.5523 16.9477 19 17.5 19Z" fill="url(#paint6_linear_206_6095)"/>
</g>
</g>
<defs>
<linearGradient id="paint0_linear_206_6095" x1="12" y1="3.6235" x2="12" y2="15.4595" gradientUnits="userSpaceOnUse">
<stop stop-color="#DAE0E8"/>
<stop offset="0.359" stop-color="#D7DDE6"/>
<stop offset="0.621" stop-color="#CED5DF"/>
<stop offset="0.85" stop-color="#BEC7D2"/>
<stop offset="1" stop-color="#AFBAC7"/>
</linearGradient>
<linearGradient id="paint1_linear_206_6095" x1="12" y1="15.0415" x2="12" y2="24.196" gradientUnits="userSpaceOnUse">
<stop stop-color="#636363"/>
<stop offset="1" stop-color="#444444"/>
</linearGradient>
<linearGradient id="paint2_linear_206_6095" x1="12" y1="11.7775" x2="12" y2="8.613" gradientUnits="userSpaceOnUse">
<stop stop-color="#947947"/>
<stop offset="0.12" stop-color="#9F824B"/>
<stop offset="0.698" stop-color="#D0AC5D"/>
<stop offset="0.984" stop-color="#E3BC64"/>
</linearGradient>
<linearGradient id="paint3_linear_206_6095" x1="3" y1="9.909" x2="3" y2="1.824" gradientUnits="userSpaceOnUse">
<stop stop-color="#947947"/>
<stop offset="0.097" stop-color="#9F824B"/>
<stop offset="0.561" stop-color="#D0AC5D"/>
<stop offset="0.791" stop-color="#E3BC64"/>
</linearGradient>
<linearGradient id="paint4_linear_206_6095" x1="-1.38001e-08" y1="9.5965" x2="0.5" y2="7.081" gradientUnits="userSpaceOnUse">
<stop stop-color="#947947"/>
<stop offset="0.12" stop-color="#9F824B"/>
<stop offset="0.698" stop-color="#D0AC5D"/>
<stop offset="0.984" stop-color="#E3BC64"/>
</linearGradient>
<linearGradient id="paint5_linear_206_6095" x1="9.5" y1="7.976" x2="9.5" y2="4.354" gradientUnits="userSpaceOnUse">
<stop stop-color="#E3BC64"/>
<stop offset="1" stop-color="#E3BC64"/>
</linearGradient>
<linearGradient id="paint6_linear_206_6095" x1="17.5" y1="16.8335" x2="17.5" y2="19.0035" gradientUnits="userSpaceOnUse">
<stop stop-color="#75FF8A"/>
<stop offset="1" stop-color="#1EE446"/>
</linearGradient>
</defs>
</svg>
