<svg width="24" height="24" viewBox="0 0 24 24" fill="none" xmlns="http://www.w3.org/2000/svg">
<g id="divider">
<path id="Vector" d="M0.9645 12.5H4V14.932C4 15.1545 3.7305 15.2665 3.573 15.109L0.9645 12.5Z" fill="url(#paint0_linear_206_6106)"/>
<path id="Vector_2" d="M2.5 13V11H7.5C7.776 11 8 11.224 8 11.5V12.5C8 12.776 7.776 13 7.5 13H2.5Z" fill="url(#paint1_linear_206_6106)"/>
<path id="Vector_3" d="M1.318 12.8535L0.818 12.3535C0.6225 12.158 0.6225 11.8415 0.818 11.6465L3.573 8.8915C3.7305 8.734 4 8.8455 4 9.068V13H1.6715C1.539 13 1.412 12.9475 1.318 12.8535Z" fill="url(#paint2_linear_206_6106)"/>
<path id="Vector_4" d="M14.5 22.5H13.5C13.225 22.5 13 22.275 13 22V2C13 1.725 13.225 1.5 13.5 1.5H14.5C14.775 1.5 15 1.725 15 2V22C15 22.275 14.775 22.5 14.5 22.5Z" fill="#727D86"/>
<path id="Vector_5" d="M23.0355 12.5H20V14.932C20 15.1545 20.2695 15.2665 20.427 15.109L23.0355 12.5Z" fill="url(#paint3_linear_206_6106)"/>
<path id="Vector_6" d="M21.5 13V11H16.5C16.224 11 16 11.224 16 11.5V12.5C16 12.776 16.224 13 16.5 13H21.5Z" fill="url(#paint4_linear_206_6106)"/>
<path id="Vector_7" d="M22.682 12.8535L23.182 12.3535C23.3775 12.158 23.3775 11.8415 23.182 11.6465L20.427 8.8915C20.2695 8.734 20 8.8455 20 9.068V13H22.3285C22.461 13 22.588 12.9475 22.682 12.8535Z" fill="url(#paint5_linear_206_6106)"/>
<path id="Vector_8" d="M9.5 22.5H10.5C10.775 22.5 11 22.275 11 22V2C11 1.725 10.775 1.5 10.5 1.5H9.5C9.225 1.5 9 1.725 9 2V22C9 22.275 9.225 22.5 9.5 22.5Z" fill="#727D86"/>
</g>
<defs>
<linearGradient id="paint0_linear_206_6106" x1="2.4825" y1="15.107" x2="2.4825" y2="12.902" gradientUnits="userSpaceOnUse">
<stop offset="0.365" stop-color="#199AE0"/>
<stop offset="0.699" stop-color="#1898DE"/>
<stop offset="0.819" stop-color="#1691D8"/>
<stop offset="0.905" stop-color="#1186CC"/>
<stop offset="0.974" stop-color="#0A75BC"/>
<stop offset="1" stop-color="#076CB3"/>
</linearGradient>
<linearGradient id="paint1_linear_206_6106" x1="4.2885" y1="5.6215" x2="6.1255" y2="18.2515" gradientUnits="userSpaceOnUse">
<stop stop-color="#32BDEF"/>
<stop offset="1" stop-color="#1EA2E4"/>
</linearGradient>
<linearGradient id="paint2_linear_206_6106" x1="1.1725" y1="2.543" x2="4.2765" y2="23.888" gradientUnits="userSpaceOnUse">
<stop stop-color="#32BDEF"/>
<stop offset="1" stop-color="#1EA2E4"/>
</linearGradient>
<linearGradient id="paint3_linear_206_6106" x1="21.5175" y1="15.107" x2="21.5175" y2="12.902" gradientUnits="userSpaceOnUse">
<stop offset="0.365" stop-color="#199AE0"/>
<stop offset="0.699" stop-color="#1898DE"/>
<stop offset="0.819" stop-color="#1691D8"/>
<stop offset="0.905" stop-color="#1186CC"/>
<stop offset="0.974" stop-color="#0A75BC"/>
<stop offset="1" stop-color="#076CB3"/>
</linearGradient>
<linearGradient id="paint4_linear_206_6106" x1="19.7115" y1="5.6215" x2="17.8745" y2="18.2515" gradientUnits="userSpaceOnUse">
<stop stop-color="#32BDEF"/>
<stop offset="1" stop-color="#1EA2E4"/>
</linearGradient>
<linearGradient id="paint5_linear_206_6106" x1="22.828" y1="2.543" x2="19.723" y2="23.888" gradientUnits="userSpaceOnUse">
<stop stop-color="#32BDEF"/>
<stop offset="1" stop-color="#1EA2E4"/>
</linearGradient>
</defs>
</svg>
