<svg width="24" height="24" viewBox="0 0 24 24" fill="none" xmlns="http://www.w3.org/2000/svg">
<g id="docker-container" clip-path="url(#clip0_206_6115)">
<path id="Vector" d="M22.05 19.5H1.95C0.85 19.5 0 18.65 0 17.6V6.4C0 5.35 0.85 4.5 1.95 4.5H22.1C23.15 4.5 24.05 5.35 24.05 6.4V17.6C24 18.65 23.15 19.5 22.05 19.5Z" fill="url(#paint0_linear_206_6115)"/>
<path id="Vector_2" d="M11.2 16.5C10.95 16.4 9.75 16.2 9.5 14.5C8.3 15.05 7.2 14.9 6.7 14.8C7.35 15.75 8.5 16.55 10.65 16.55C10.85 16.5 11 16.5 11.2 16.5Z" fill="#0F94BF"/>
<path id="Vector_3" d="M9.4 14.5C8.7 14.75 7.5 14.8 6.75 14.8C6.9 15 7.05 15.2 7.25 15.35C7.85 15.35 8.7 15.3 9.65 15.05C9.8 15 9.85 14.8 9.8 14.65C9.7 14.5 9.55 14.45 9.4 14.5ZM10.65 13.6C10.35 13.6 10.05 13.85 10.05 14.2C10.05 14.5 10.3 14.8 10.65 14.8C11 14.8 11.25 14.55 11.25 14.2C11.25 13.85 11 13.6 10.65 13.6Z" fill="#0F94BF"/>
<path id="Vector_4" d="M10.65 13.9C10.5 13.9 10.35 14.05 10.35 14.2C10.35 14.35 10.5 14.5 10.65 14.5C10.8 14.5 10.95 14.35 10.95 14.2C10.95 14 10.8 13.9 10.65 13.9ZM11.2 16.5C10.95 16.4 9.75 16.2 9.5 14.5C8.3 15.05 7.2 14.9 6.7 14.8C7.35 15.75 8.5 16.55 10.65 16.55C10.85 16.5 11 16.5 11.2 16.5Z" fill="#0F94BF"/>
<path id="Vector_5" d="M9.4 14.5C8.7 14.75 7.5 14.8 6.75 14.8C6.9 15 7.05 15.2 7.25 15.35C7.85 15.35 8.7 15.3 9.65 15.05C9.8 15 9.85 14.8 9.8 14.65C9.7 14.5 9.55 14.45 9.4 14.5ZM10.65 13.6C10.35 13.6 10.05 13.85 10.05 14.2C10.05 14.5 10.3 14.8 10.65 14.8C11 14.8 11.25 14.55 11.25 14.2C11.25 13.85 11 13.6 10.65 13.6Z" fill="#0F94BF"/>
<path id="Vector_6" d="M10.65 13.9C10.5 13.9 10.35 14.05 10.35 14.2C10.35 14.35 10.5 14.5 10.65 14.5C10.8 14.5 10.95 14.35 10.95 14.2C10.95 14 10.8 13.9 10.65 13.9Z" fill="#0F94BF"/>
<path id="Vector_7" d="M6.15 13.5C6.5 14.8 7.5 16.5 10.7 16.5C13.75 16.5 15.35 14.85 16.15 13.5H6.15Z" fill="#0F94BF"/>
<path id="Vector_8" d="M18 10.5C17.55 10.5 17.2 10.65 17 10.8C17 10.25 16.9 9.65 16.2 9C15.65 9.5 15.5 9.95 15.5 10.4C15.5 10.85 15.75 11.3 16 11.55C16 11.55 15.65 12 14.5 12V10.5H13V7.5H11.5V9H8.5V10.5H7V12C6.4 12 6 12 6 12C6 12 5.95 12.4 6.05 12.95C6.35 12.9 6.55 12.75 6.75 12.5C7 12.8 7.25 13 7.75 13C8.25 13 8.5 12.8 8.75 12.5C9 12.8 9.25 13 9.75 13C10.25 13 10.5 12.8 10.75 12.5C11 12.8 11.25 13 11.75 13C12.25 13 12.5 12.8 12.75 12.5C13 12.8 13.25 13 13.75 13C14.25 13 14.5 12.8 14.75 12.5C15 12.8 15.25 13 15.75 13C16.05 13 16.3 12.9 16.45 12.8C16.6 12.45 16.7 12.15 16.75 12C16.85 12 16.95 12 17.1 12C17.7 12 18.7 11.95 19 10.7C18.65 10.55 18.3 10.5 18 10.5Z" fill="#0F94BF"/>
<path id="Vector_9" d="M16.75 13.5H18V12.95C17.9 12.95 17.85 13 17.75 13C17.25 13 17 12.8 16.75 12.5C16.65 12.6 16.55 12.7 16.45 12.8C16.35 13 16.25 13.25 16.1 13.5H16.75Z" fill="#0F94BF"/>
</g>
<defs>
<linearGradient id="paint0_linear_206_6115" x1="0.649" y1="4.2875" x2="21.755" y2="18.628" gradientUnits="userSpaceOnUse">
<stop stop-color="#7DD8F3"/>
<stop offset="1" stop-color="#45B0D0"/>
</linearGradient>
<clipPath id="clip0_206_6115">
<rect width="24" height="24" fill="white"/>
</clipPath>
</defs>
</svg>
