<svg width="24" height="24" viewBox="0 0 24 24" fill="none" xmlns="http://www.w3.org/2000/svg">
<g id="doctors-folder">
<path id="Vector" d="M12.207 5.207L10.939 3.939C10.658 3.658 10.2765 3.5 9.8785 3.5H2.5C1.9475 3.5 1.5 3.9475 1.5 4.5V19.5C1.5 20.0525 1.9475 20.5 2.5 20.5H21.5C22.0525 20.5 22.5 20.0525 22.5 19.5V6.5C22.5 5.9475 22.0525 5.5 21.5 5.5H12.914C12.649 5.5 12.3945 5.3945 12.207 5.207Z" fill="url(#paint0_linear_206_6125)"/>
<path id="Vector_2" d="M10.793 7.207L12.427 5.573C12.4735 5.5265 12.537 5.5 12.6035 5.5H21.5C22.0525 5.5 22.5 5.9475 22.5 6.5V19.5C22.5 20.0525 22.0525 20.5 21.5 20.5H2.5C1.9475 20.5 1.5 20.0525 1.5 19.5V7.75C1.5 7.612 1.612 7.5 1.75 7.5H10.086C10.351 7.5 10.6055 7.3945 10.793 7.207Z" fill="url(#paint1_linear_206_6125)"/>
<path id="Vector_3" d="M12 19C14.7614 19 17 16.7614 17 14C17 11.2386 14.7614 9 12 9C9.23858 9 7 11.2386 7 14C7 16.7614 9.23858 19 12 19Z" fill="url(#paint2_linear_206_6125)"/>
<path id="Vector_4" d="M15 13.25H12.75V11C12.75 10.862 12.638 10.75 12.5 10.75H11.5C11.362 10.75 11.25 10.862 11.25 11V13.25H9C8.862 13.25 8.75 13.362 8.75 13.5V14.5C8.75 14.638 8.862 14.75 9 14.75H11.25V17C11.25 17.138 11.362 17.25 11.5 17.25H12.5C12.638 17.25 12.75 17.138 12.75 17V14.75H15C15.138 14.75 15.25 14.638 15.25 14.5V13.5C15.25 13.362 15.138 13.25 15 13.25Z" fill="white"/>
</g>
<defs>
<linearGradient id="paint0_linear_206_6125" x1="12" y1="3.354" x2="12" y2="7.4885" gradientUnits="userSpaceOnUse">
<stop stop-color="#EBA600"/>
<stop offset="1" stop-color="#C28200"/>
</linearGradient>
<linearGradient id="paint1_linear_206_6125" x1="12" y1="5.427" x2="12" y2="20.4915" gradientUnits="userSpaceOnUse">
<stop stop-color="#FFD869"/>
<stop offset="1" stop-color="#FEC52B"/>
</linearGradient>
<linearGradient id="paint2_linear_206_6125" x1="11.159" y1="9.0705" x2="12.8025" y2="18.7025" gradientUnits="userSpaceOnUse">
<stop stop-color="#F44F5A"/>
<stop offset="0.443" stop-color="#EE3D4A"/>
<stop offset="1" stop-color="#E52030"/>
</linearGradient>
</defs>
</svg>
