<svg width="24" height="24" viewBox="0 0 24 24" fill="none" xmlns="http://www.w3.org/2000/svg">
<g id="door-sensor-checked">
<path id="Vector" d="M17 3V22H8V2H16C16.55 2 17 2.445 17 3Z" fill="url(#paint0_linear_206_6159)"/>
<path id="Vector_2" d="M16 3V22H8L7.5 3H16Z" fill="url(#paint1_radial_206_6159)"/>
<path id="Vector_3" d="M4 21.124V2.876C4 2.6235 4.1855 2.4105 4.434 2.377L10.934 1.5045C11.2335 1.4645 11.5 1.699 11.5 2.0035V21.9965C11.5 22.301 11.2335 22.5355 10.934 22.4955L4.434 21.623C4.1855 21.5895 4 21.3765 4 21.124Z" fill="url(#paint2_linear_206_6159)"/>
<path id="Vector_4" d="M10.25 12C10.25 12.55 9.8 13 9.25 13C8.7 13 8.25 12.55 8.25 12C8.25 11.45 8.7 11 9.25 11C9.8 11 10.25 11.45 10.25 12Z" fill="url(#paint3_radial_206_6159)"/>
<path id="Vector_5" d="M10 11.75C10 12.1625 9.6625 12.5 9.25 12.5C8.8375 12.5 8.5 12.1625 8.5 11.75C8.5 11.3375 8.8375 11 9.25 11C9.6625 11 10 11.3375 10 11.75Z" fill="url(#paint4_linear_206_6159)"/>
<path id="Vector_6" d="M20.5 7.5C20.5 7.776 20.276 8 20 8H18.5C18.224 8 18 7.776 18 7.5V4C18 3.724 18.224 3.5 18.5 3.5H20C20.276 3.5 20.5 3.724 20.5 4V7.5Z" fill="url(#paint5_linear_206_6159)"/>
<path id="Vector_7" d="M19.25 4C18.836 4 18.5 4.336 18.5 4.75C18.5 5.164 18.836 5.5 19.25 5.5C19.664 5.5 20 5.164 20 4.75C20 4.336 19.664 4 19.25 4Z" fill="url(#paint6_linear_206_6159)"/>
<path id="Vector_8" opacity="0.05" d="M17 13.875V22H14.39C13.825 21.135 13.5 20.11 13.5 19C13.5 16.67 14.95 14.675 17 13.875Z" fill="black"/>
<path id="Vector_9" opacity="0.07" d="M17 14.15V22H14.695C14.1 21.15 13.75 20.115 13.75 19C13.75 16.815 15.095 14.935 17 14.15Z" fill="black"/>
<path id="Vector_10" d="M24 19C24 21.761 21.761 24 19 24C16.239 24 14 21.761 14 19C14 16.239 16.239 14 19 14C21.761 14 24 16.239 24 19Z" fill="url(#paint7_linear_206_6159)"/>
<path id="Vector_11" d="M18.323 21.177L16.323 19.177C16.2255 19.0795 16.2255 18.921 16.323 18.8235L16.6765 18.47C16.774 18.3725 16.9325 18.3725 17.03 18.47L18.5 19.9395L21.2195 17.22C21.317 17.1225 21.4755 17.1225 21.573 17.22L21.9265 17.5735C22.024 17.671 22.024 17.8295 21.9265 17.927L18.6765 21.177C18.579 21.2745 18.421 21.2745 18.323 21.177Z" fill="white"/>
</g>
<defs>
<linearGradient id="paint0_linear_206_6159" x1="6.6895" y1="1.4465" x2="17.4155" y2="21.6195" gradientUnits="userSpaceOnUse">
<stop stop-color="#0D61A9"/>
<stop offset="1" stop-color="#16528C"/>
</linearGradient>
<radialGradient id="paint1_radial_206_6159" cx="0" cy="0" r="1" gradientUnits="userSpaceOnUse" gradientTransform="translate(8.858 22.647) scale(20.284)">
<stop stop-color="#4B4B4B"/>
<stop offset="0.531" stop-color="#393939"/>
<stop offset="1" stop-color="#252525"/>
</radialGradient>
<linearGradient id="paint2_linear_206_6159" x1="2.9915" y1="2.6145" x2="13.204" y2="21.821" gradientUnits="userSpaceOnUse">
<stop stop-color="#2AA4F4"/>
<stop offset="1" stop-color="#007AD9"/>
</linearGradient>
<radialGradient id="paint3_radial_206_6159" cx="0" cy="0" r="1" gradientUnits="userSpaceOnUse" gradientTransform="translate(9.25 12)">
<stop/>
<stop offset="1" stop-opacity="0"/>
</radialGradient>
<linearGradient id="paint4_linear_206_6159" x1="9.0275" y1="11.1585" x2="9.7295" y2="13.0265" gradientUnits="userSpaceOnUse">
<stop stop-color="#0077D2"/>
<stop offset="1" stop-color="#0B59A2"/>
</linearGradient>
<linearGradient id="paint5_linear_206_6159" x1="17.783" y1="2.9905" x2="21.7065" y2="10.3705" gradientUnits="userSpaceOnUse">
<stop stop-color="#4C4C4C"/>
<stop offset="1" stop-color="#343434"/>
</linearGradient>
<linearGradient id="paint6_linear_206_6159" x1="18.9075" y1="4.106" x2="20.1195" y2="6.385" gradientUnits="userSpaceOnUse">
<stop offset="0.037" stop-color="#21CC72"/>
<stop offset="0.666" stop-color="#0F9750"/>
<stop offset="1" stop-color="#088242"/>
</linearGradient>
<linearGradient id="paint7_linear_206_6159" x1="15.4645" y1="15.4645" x2="22.5355" y2="22.5355" gradientUnits="userSpaceOnUse">
<stop stop-color="#21AD64"/>
<stop offset="1" stop-color="#088242"/>
</linearGradient>
</defs>
</svg>
