<svg width="24" height="24" viewBox="0 0 24 24" fill="none" xmlns="http://www.w3.org/2000/svg">
<g id="door-lock">
<path id="Vector" d="M21.4735 9.1365L13.7285 4.5215C13.276 4.18 12.702 4 12.067 4H4.218C2.694 4 1.5 5.143 1.5 6.6015V17.1365C1.5 18.6615 2.77 20 4.218 20H19.782C21.306 20 22.5 18.857 22.5 17.3985V11.2105C22.5 10.4025 22.126 9.6465 21.4735 9.1365Z" fill="url(#paint0_linear_206_6153)"/>
<path id="Vector_2" d="M5.7355 13H13.5V15.5H10.5C10.5045 14.9125 10.22 14.507 10 14.5C9.777 14.493 9.4575 14.8905 9.441 15.5H8C7.996 14.9065 7.713 14.5035 7.5 14.5C7.2855 14.4965 6.986 14.896 6.9705 15.5H5.735L4.5 14.478V13.5L5.7355 13Z" fill="#CCD8DC"/>
<path id="Vector_3" d="M19.3335 11.929C19.233 11.5255 18.917 11.2015 18.4995 11.085C18.091 10.9715 16.678 10.9715 16.2695 11.085C15.852 11.201 14.069 12.3295 13.296 13.031C12.8875 13.402 12.9155 15.1055 13.296 15.4685C13.9345 16.078 15.852 17.2985 16.2695 17.4145C16.678 17.528 18.091 17.528 18.4995 17.4145C18.917 17.2985 19.233 16.974 19.3335 16.5705C19.4675 16.0335 19.5 15.194 19.5 14.25C19.5 13.306 19.4675 12.467 19.3335 11.929ZM18.178 15.8415C18.1385 16.038 17.972 16.1785 17.774 16.1865C17.5865 16.194 17.387 16.1995 17.342 16.1985C17.08 16.1945 16.8855 15.9575 16.927 15.696C16.9945 15.2695 17.011 14.7765 17.011 14.2505C17.011 13.7245 16.9945 13.232 16.927 12.8055C16.8855 12.544 17.0805 12.307 17.3425 12.303C17.3955 12.302 17.5915 12.3075 17.774 12.3145C17.972 12.322 18.1385 12.463 18.178 12.659C18.265 13.096 18.341 13.6505 18.341 14.2505C18.341 14.8505 18.265 15.4045 18.178 15.8415Z" fill="#2A2D30"/>
<path id="Vector_4" d="M11.5885 5.5H4.581C3.708 5.5 3 6.1715 3 7V8.5C3 8.776 3.236 9 3.527 9H16.472C17.019 9 17.204 8.307 16.723 8.06L12.3405 5.6805C12.11 5.562 11.8515 5.5 11.5885 5.5Z" fill="url(#paint1_linear_206_6153)"/>
<path id="Vector_5" opacity="0.07" d="M17.384 11C17.8395 11 18.2945 11.0285 18.499 11.085C18.9165 11.2015 19.2325 11.5255 19.333 11.929C19.4675 12.467 19.5 13.3065 19.5 14.25C19.5 15.1935 19.4675 16.033 19.3335 16.5705C19.233 16.974 18.917 17.2985 18.4995 17.4145C18.295 17.4715 17.8395 17.5 17.384 17.5C16.9285 17.5 16.4735 17.4715 16.269 17.415C15.858 17.301 13.9985 16.119 13.33 15.5H10.5C10.5045 14.9125 10.22 14.507 10 14.5C9.998 14.5 9.996 14.5 9.994 14.5C9.7715 14.5 9.4575 14.896 9.441 15.5H8C7.996 14.9065 7.713 14.5035 7.5 14.5C7.499 14.5 7.498 14.5 7.4975 14.5C7.2835 14.5 6.986 14.8985 6.971 15.5H5.735L4.5 14.478V13.5L5.7355 13H13.3315C14.121 12.297 15.8575 11.1995 16.269 11.085C16.4735 11.0285 16.929 11 17.384 11ZM17.3555 16.1985C17.419 16.1985 17.6015 16.1935 17.774 16.1865C17.972 16.1785 18.1385 16.038 18.178 15.8415C18.265 15.4045 18.341 14.8505 18.341 14.2505C18.341 13.6505 18.265 13.096 18.178 12.659C18.1385 12.463 17.972 12.322 17.774 12.3145C17.606 12.308 17.4265 12.303 17.3575 12.303C17.3515 12.303 17.3465 12.303 17.342 12.303C17.08 12.307 16.885 12.544 16.9265 12.8055C16.994 13.232 17.0105 13.7245 17.0105 14.2505C17.0105 14.7765 16.994 15.2695 16.9265 15.696C16.885 15.9575 17.0795 16.1945 17.3415 16.1985C17.345 16.1985 17.35 16.1985 17.3555 16.1985ZM17.384 10.5C17.1205 10.5 16.471 10.51 16.135 10.6035C15.6375 10.742 13.9955 11.7905 13.146 12.5H5.7355H5.638L5.548 12.5365L4.3125 13.0365L4 13.163V13.5V14.478V14.713L4.181 14.863L5.416 15.885L5.555 16H5.735H6.9705H7.458L7.4705 15.5125C7.472 15.4455 7.4785 15.3845 7.4875 15.33C7.495 15.3825 7.4995 15.44 7.5 15.503L7.5035 16H8H9.441H9.9275L9.941 15.5135C9.944 15.411 9.958 15.323 9.977 15.25C9.9915 15.3195 10.0005 15.4015 10 15.496L9.996 16H10.5H13.142C13.9245 16.6605 15.6485 17.7615 16.1355 17.8965C16.471 17.99 17.1205 18 17.384 18C17.6475 18 18.297 17.99 18.633 17.8965C19.2195 17.7335 19.6735 17.272 19.8185 16.692C19.9455 16.181 20 15.451 20 14.25C20 13.0495 19.9455 12.319 19.8185 11.808C19.674 11.2285 19.22 10.767 18.6335 10.603C18.297 10.51 17.648 10.5 17.384 10.5ZM17.432 15.6975C17.5015 15.2115 17.5105 14.672 17.5105 14.2505C17.5105 13.829 17.501 13.29 17.4315 12.804C17.5035 12.8055 17.6005 12.8085 17.698 12.812C17.7925 13.3035 17.8405 13.7875 17.8405 14.2505C17.8405 14.7135 17.7925 15.197 17.6975 15.689C17.599 15.6925 17.5015 15.6955 17.432 15.6975Z" fill="black"/>
</g>
<defs>
<linearGradient id="paint0_linear_206_6153" x1="12" y1="4.5605" x2="12" y2="20.2375" gradientUnits="userSpaceOnUse">
<stop stop-color="#00B4F0"/>
<stop offset="1" stop-color="#0082DB"/>
</linearGradient>
<linearGradient id="paint1_linear_206_6153" x1="3" y1="7.25" x2="17" y2="7.25" gradientUnits="userSpaceOnUse">
<stop stop-color="#007AD9"/>
<stop offset="1" stop-color="#007DD5"/>
</linearGradient>
</defs>
</svg>
