<svg width="24" height="24" viewBox="0 0 24 24" fill="none" xmlns="http://www.w3.org/2000/svg">
<g id="download">
<path id="Vector" d="M15.595 11H13.5V3C13.5 2.724 13.276 2.5 13 2.5H11C10.724 2.5 10.5 2.724 10.5 3V11H8.405C8.045 11 7.865 11.435 8.1195 11.6895L11.47 15.04C11.763 15.333 12.238 15.333 12.5305 15.04L15.881 11.6895C16.1355 11.435 15.955 11 15.595 11Z" fill="url(#paint0_linear_206_6171)"/>
<path id="Vector_2" d="M19.5 16.5V21.5L21.914 19.086C22.289 18.711 22.5 18.202 22.5 17.672V16.5C22.5 16.224 22.276 16 22 16H20C19.724 16 19.5 16.224 19.5 16.5Z" fill="url(#paint1_linear_206_6171)"/>
<path id="Vector_3" d="M19.5 18.5H4.5V21.5H19.5V18.5Z" fill="url(#paint2_linear_206_6171)"/>
<path id="Vector_4" d="M4.5 16.5V21.5L2.086 19.086C1.7105 18.7105 1.5 18.202 1.5 17.6715V16.5C1.5 16.224 1.724 16 2 16H4C4.276 16 4.5 16.224 4.5 16.5Z" fill="url(#paint3_linear_206_6171)"/>
</g>
<defs>
<linearGradient id="paint0_linear_206_6171" x1="8.667" y1="2.3525" x2="14.746" y2="16.4765" gradientUnits="userSpaceOnUse">
<stop stop-color="#32BDEF"/>
<stop offset="1" stop-color="#1EA2E4"/>
</linearGradient>
<linearGradient id="paint1_linear_206_6171" x1="19.8805" y1="15.785" x2="21.8025" y2="21.231" gradientUnits="userSpaceOnUse">
<stop stop-color="#32BDEF"/>
<stop offset="1" stop-color="#1EA2E4"/>
</linearGradient>
<linearGradient id="paint2_linear_206_6171" x1="4.5" y1="20" x2="19.5" y2="20" gradientUnits="userSpaceOnUse">
<stop stop-color="#0362B0"/>
<stop offset="0.112" stop-color="#036ABD"/>
<stop offset="0.258" stop-color="#036FC5"/>
<stop offset="0.5" stop-color="#0370C8"/>
<stop offset="0.742" stop-color="#036FC5"/>
<stop offset="0.888" stop-color="#036ABD"/>
<stop offset="1" stop-color="#0362B0"/>
</linearGradient>
<linearGradient id="paint3_linear_206_6171" x1="4.1195" y1="15.785" x2="2.1975" y2="21.231" gradientUnits="userSpaceOnUse">
<stop stop-color="#32BDEF"/>
<stop offset="1" stop-color="#1EA2E4"/>
</linearGradient>
</defs>
</svg>
