<svg width="24" height="24" viewBox="0 0 24 24" fill="none" xmlns="http://www.w3.org/2000/svg">
<g id="downloads">
<path id="Vector" d="M20 21H4C3.4475 21 3 20.5525 3 20V4C3 3.4475 3.4475 3 4 3H20C20.5525 3 21 3.4475 21 4V20C21 20.5525 20.5525 21 20 21Z" fill="url(#paint0_linear_206_6181)"/>
<path id="Vector_2" d="M12 5.4835C13.3335 5.4835 14.4145 4.40249 14.4145 3.069C14.4145 1.73551 13.3335 0.654503 12 0.654503C10.6665 0.654503 9.5855 1.73551 9.5855 3.069C9.5855 4.40249 10.6665 5.4835 12 5.4835Z" fill="white"/>
<path id="Vector_3" opacity="0.05" d="M12.0005 19.26C11.6665 19.26 11.3525 19.13 11.1165 18.894L7.766 15.5435C7.5065 15.284 7.4295 14.8975 7.57 14.5585C7.71 14.219 8.038 14 8.405 14H10V8.5C10 7.9485 10.4485 7.5 11 7.5H13C13.5515 7.5 14 7.9485 14 8.5V14H15.595C15.962 14 16.29 14.219 16.4305 14.558C16.571 14.897 16.494 15.2835 16.2345 15.543L12.884 18.8935C12.6485 19.1295 12.3345 19.26 12.0005 19.26Z" fill="black"/>
<path id="Vector_4" opacity="0.07" d="M12.0005 19.01C11.733 19.01 11.482 18.906 11.293 18.717L7.9425 15.3665C7.755 15.179 7.699 14.899 7.8005 14.654C7.902 14.409 8.1395 14.2505 8.4045 14.2505H10.2495V8.5C10.2495 8.0865 10.586 7.75 10.9995 7.75H12.9995C13.413 7.75 13.7495 8.0865 13.7495 8.5V14.25H15.5945C15.86 14.25 16.0975 14.4085 16.199 14.654C16.3005 14.899 16.245 15.179 16.0575 15.3665L12.707 18.717C12.519 18.906 12.2675 19.01 12.0005 19.01Z" fill="black"/>
<path id="Vector_5" d="M15.595 14.5H13.5V8.5C13.5 8.224 13.276 8 13 8H11C10.724 8 10.5 8.224 10.5 8.5V14.5H8.405C8.045 14.5 7.865 14.935 8.1195 15.1895L11.47 18.54C11.763 18.833 12.238 18.833 12.5305 18.54L15.881 15.1895C16.1355 14.935 15.955 14.5 15.595 14.5Z" fill="white"/>
</g>
<defs>
<linearGradient id="paint0_linear_206_6181" x1="3.351" y1="3.351" x2="19.5425" y2="19.5425" gradientUnits="userSpaceOnUse">
<stop stop-color="#21AD64"/>
<stop offset="1" stop-color="#088242"/>
</linearGradient>
</defs>
</svg>
