<svg width="24" height="24" viewBox="0 0 24 24" fill="none" xmlns="http://www.w3.org/2000/svg">
<g id="drag-and-drop">
<path id="Vector" d="M15 15H3C2.1715 15 1.5 14.3285 1.5 13.5V4.5C1.5 3.6715 2.1715 3 3 3H15C15.8285 3 16.5 3.6715 16.5 4.5V13.5C16.5 14.3285 15.8285 15 15 15Z" fill="url(#paint0_linear_206_6187)"/>
<path id="Vector_2" d="M21.05 21H9.45C8.649 21 8 20.3565 8 19.5625V10.9375C8 10.1435 8.649 9.5 9.45 9.5H21.05C21.851 9.5 22.5 10.1435 22.5 10.9375V19.5625C22.5 20.3565 21.851 21 21.05 21Z" fill="url(#paint1_linear_206_6187)"/>
<path id="Vector_3" d="M11 3.25V3.75C11 3.888 11.112 4 11.25 4H12.75C12.888 4 13 3.888 13 3.75V3.25C13 3.112 12.888 3 12.75 3H11.25C11.112 3 11 3.112 11 3.25Z" fill="url(#paint2_linear_206_6187)"/>
<path id="Vector_4" d="M8.25 4H9.75C9.888 4 10 3.888 10 3.75V3.25C10 3.112 9.888 3 9.75 3H8.25C8.112 3 8 3.112 8 3.25V3.75C8 3.888 8.112 4 8.25 4Z" fill="url(#paint3_linear_206_6187)"/>
<path id="Vector_5" d="M5.25 4H6.75C6.888 4 7 3.888 7 3.75V3.25C7 3.112 6.888 3 6.75 3H5.25C5.112 3 5 3.112 5 3.25V3.75C5 3.888 5.112 4 5.25 4Z" fill="url(#paint4_linear_206_6187)"/>
<path id="Vector_6" d="M1.75 8.5H2.25C2.388 8.5 2.5 8.388 2.5 8.25V6.75C2.5 6.612 2.388 6.5 2.25 6.5H1.75C1.612 6.5 1.5 6.612 1.5 6.75V8.25C1.5 8.388 1.612 8.5 1.75 8.5Z" fill="url(#paint5_linear_206_6187)"/>
<path id="Vector_7" d="M14.25 4H15.5V5.25C15.5 5.388 15.612 5.5 15.75 5.5H16.25C16.388 5.5 16.5 5.388 16.5 5.25V4C16.5 3.4475 16.0525 3 15.5 3H14.25C14.112 3 14 3.112 14 3.25V3.75C14 3.888 14.112 4 14.25 4Z" fill="url(#paint6_linear_206_6187)"/>
<path id="Vector_8" d="M2.5 11.25V9.75C2.5 9.612 2.388 9.5 2.25 9.5H1.75C1.612 9.5 1.5 9.612 1.5 9.75V11.25C1.5 11.388 1.612 11.5 1.75 11.5H2.25C2.388 11.5 2.5 11.388 2.5 11.25Z" fill="url(#paint7_linear_206_6187)"/>
<path id="Vector_9" d="M2.5 5.25V4H3.75C3.888 4 4 3.888 4 3.75V3.25C4 3.112 3.888 3 3.75 3H2.5C1.9475 3 1.5 3.4475 1.5 4V5.25C1.5 5.388 1.612 5.5 1.75 5.5H2.25C2.388 5.5 2.5 5.388 2.5 5.25Z" fill="url(#paint8_linear_206_6187)"/>
<path id="Vector_10" d="M15.5 6.75V8.25C15.5 8.388 15.612 8.5 15.75 8.5H16.25C16.388 8.5 16.5 8.388 16.5 8.25V6.75C16.5 6.612 16.388 6.5 16.25 6.5H15.75C15.612 6.5 15.5 6.612 15.5 6.75Z" fill="url(#paint9_linear_206_6187)"/>
<path id="Vector_11" d="M5 14.25V14.75C5 14.888 5.112 15 5.25 15H6.75C6.888 15 7 14.888 7 14.75V14.25C7 14.112 6.888 14 6.75 14H5.25C5.112 14 5 14.112 5 14.25Z" fill="url(#paint10_linear_206_6187)"/>
<path id="Vector_12" d="M2.25 12.5H1.75C1.612 12.5 1.5 12.612 1.5 12.75V14C1.5 14.5525 1.9475 15 2.5 15H3.75C3.888 15 4 14.888 4 14.75V14.25C4 14.112 3.888 14 3.75 14H2.5V12.75C2.5 12.612 2.388 12.5 2.25 12.5Z" fill="url(#paint11_linear_206_6187)"/>
<path id="Vector_13" opacity="0.05" d="M16.1655 19.5C15.888 19.5 15.638 19.336 15.5285 19.0815L14.936 17.7185L14.145 18.378C14.018 18.483 13.8605 18.54 13.699 18.54C13.3135 18.54 13 18.227 13 17.842V12.194C13 11.9165 13.1645 11.6665 13.4195 11.5575C13.5045 11.5195 13.598 11.5 13.6955 11.5C13.8795 11.5 14.053 11.5725 14.1845 11.7035L18.132 15.651C18.326 15.844 18.3885 16.124 18.2945 16.3825C18.2015 16.6405 17.9735 16.8155 17.7 16.839L16.8995 16.911L17.476 18.237C17.549 18.408 17.552 18.596 17.4845 18.7685C17.417 18.9405 17.286 19.076 17.1155 19.1505L16.4425 19.443C16.356 19.4805 16.262 19.5 16.1655 19.5Z" fill="black"/>
<path id="Vector_14" opacity="0.07" d="M16.1655 19.25C15.9885 19.25 15.828 19.145 15.758 18.9825L15.0325 17.313L13.985 18.1865C13.9035 18.254 13.8025 18.2905 13.6995 18.2905C13.452 18.2905 13.2505 18.0895 13.2505 17.8425V12.194C13.2505 12.017 13.3555 11.857 13.5185 11.7875C13.5735 11.763 13.6335 11.7505 13.6955 11.7505C13.8125 11.7505 13.9235 11.797 14.0075 11.881L17.955 15.8285C18.0795 15.9525 18.1195 16.132 18.0595 16.2975C18 16.463 17.8535 16.5755 17.678 16.5905L16.5315 16.6935L17.2465 18.337C17.2935 18.446 17.2955 18.5665 17.252 18.677C17.2085 18.7875 17.1245 18.874 17.0155 18.921L16.3425 19.2135C16.286 19.238 16.2265 19.25 16.1655 19.25Z" fill="black"/>
<path id="Vector_15" d="M17.778 16.0045L13.8305 12.057C13.7685 11.995 13.6845 11.987 13.6165 12.0165C13.551 12.045 13.5 12.109 13.5 12.194V17.8425C13.5 18.01 13.6955 18.1015 13.8245 17.9945L15.1285 16.907L15.9875 18.8835C16.03 18.9815 16.1445 19.0265 16.2425 18.984L16.916 18.691C17.014 18.6485 17.059 18.534 17.0165 18.436L16.164 16.4745L17.656 16.341C17.823 16.326 17.897 16.123 17.778 16.0045Z" fill="white"/>
</g>
<defs>
<linearGradient id="paint0_linear_206_6187" x1="5.4785" y1="4.2855" x2="12.764" y2="14.039" gradientUnits="userSpaceOnUse">
<stop stop-color="#0D61A9"/>
<stop offset="1" stop-color="#16528C"/>
</linearGradient>
<linearGradient id="paint1_linear_206_6187" x1="12.5716" y1="9.67656" x2="17.4667" y2="21.5766" gradientUnits="userSpaceOnUse">
<stop stop-color="#7DD8F3"/>
<stop offset="1" stop-color="#45B0D0"/>
</linearGradient>
<linearGradient id="paint2_linear_206_6187" x1="11.4431" y1="2.85103" x2="11.8877" y2="4.15643" gradientUnits="userSpaceOnUse">
<stop stop-color="#FCFCFC"/>
<stop offset="0.95" stop-color="#C3C9CD"/>
</linearGradient>
<linearGradient id="paint3_linear_206_6187" x1="8.44308" y1="2.85103" x2="8.88771" y2="4.15643" gradientUnits="userSpaceOnUse">
<stop stop-color="#FCFCFC"/>
<stop offset="0.95" stop-color="#C3C9CD"/>
</linearGradient>
<linearGradient id="paint4_linear_206_6187" x1="5.44308" y1="2.85103" x2="5.88771" y2="4.15643" gradientUnits="userSpaceOnUse">
<stop stop-color="#FCFCFC"/>
<stop offset="0.95" stop-color="#C3C9CD"/>
</linearGradient>
<linearGradient id="paint5_linear_206_6187" x1="1.72154" y1="6.20205" x2="3.11139" y2="7.22219" gradientUnits="userSpaceOnUse">
<stop stop-color="#FCFCFC"/>
<stop offset="0.95" stop-color="#C3C9CD"/>
</linearGradient>
<linearGradient id="paint6_linear_206_6187" x1="14.5539" y1="2.62757" x2="16.2485" y2="5.11528" gradientUnits="userSpaceOnUse">
<stop stop-color="#FCFCFC"/>
<stop offset="0.95" stop-color="#C3C9CD"/>
</linearGradient>
<linearGradient id="paint7_linear_206_6187" x1="1.72154" y1="9.20205" x2="3.11139" y2="10.2222" gradientUnits="userSpaceOnUse">
<stop stop-color="#FCFCFC"/>
<stop offset="0.95" stop-color="#C3C9CD"/>
</linearGradient>
<linearGradient id="paint8_linear_206_6187" x1="2.05385" y1="2.62757" x2="3.7485" y2="5.11528" gradientUnits="userSpaceOnUse">
<stop stop-color="#FCFCFC"/>
<stop offset="0.95" stop-color="#C3C9CD"/>
</linearGradient>
<linearGradient id="paint9_linear_206_6187" x1="15.7215" y1="6.20205" x2="17.1114" y2="7.22219" gradientUnits="userSpaceOnUse">
<stop stop-color="#FCFCFC"/>
<stop offset="0.95" stop-color="#C3C9CD"/>
</linearGradient>
<linearGradient id="paint10_linear_206_6187" x1="5.44308" y1="13.851" x2="5.88771" y2="15.1564" gradientUnits="userSpaceOnUse">
<stop stop-color="#FCFCFC"/>
<stop offset="0.95" stop-color="#C3C9CD"/>
</linearGradient>
<linearGradient id="paint11_linear_206_6187" x1="2.05385" y1="12.1276" x2="3.7485" y2="14.6153" gradientUnits="userSpaceOnUse">
<stop stop-color="#FCFCFC"/>
<stop offset="0.95" stop-color="#C3C9CD"/>
</linearGradient>
</defs>
</svg>
