<svg width="24" height="24" viewBox="0 0 24 24" fill="none" xmlns="http://www.w3.org/2000/svg">
<g id="dropdown-field">
<path id="Vector" d="M2 8V16C2 16.5525 2.4475 17 3 17H21C21.5525 17 22 16.5525 22 16V8C22 7.4475 21.5525 7 21 7H3C2.4475 7 2 7.4475 2 8Z" fill="url(#paint0_linear_206_6203)"/>
<path id="Vector_2" opacity="0.05" d="M16.2 15.5C15.2625 15.5 14.5 14.7375 14.5 13.8V10.2C14.5 9.2625 15.2625 8.5 16.2 8.5H19.8C20.7375 8.5 21.5 9.2625 21.5 10.2V13.8C21.5 14.7375 20.7375 15.5 19.8 15.5H16.2Z" fill="black"/>
<path id="Vector_3" opacity="0.07" d="M16.2 15.25C15.4 15.25 14.75 14.5995 14.75 13.8V10.2C14.75 9.4005 15.4005 8.75 16.2 8.75H19.8C20.6 8.75 21.25 9.4005 21.25 10.2V13.8C21.25 14.5995 20.5995 15.25 19.8 15.25H16.2Z" fill="black"/>
<path id="Vector_4" d="M16.2 15H19.8C20.4625 15 21 14.4625 21 13.8V10.2C21 9.5375 20.4625 9 19.8 9H16.2C15.5375 9 15 9.5375 15 10.2V13.8C15 14.4625 15.5375 15 16.2 15Z" fill="url(#paint1_linear_206_6203)"/>
<path id="Vector_5" opacity="0.05" d="M18 13.5C17.773 13.5 17.561 13.406 17.4035 13.236L16.236 11.9785C15.9955 11.7185 15.9325 11.3375 16.0765 11.0075C16.2135 10.6945 16.503 10.5 16.8325 10.5H19.1675C19.497 10.5 19.7865 10.6945 19.924 11.007C20.068 11.338 20.005 11.7185 19.7645 11.978L18.5965 13.2365C18.4385 13.4065 18.227 13.5 18 13.5Z" fill="black"/>
<path id="Vector_6" opacity="0.07" d="M18 13.25C17.8435 13.25 17.697 13.185 17.587 13.066L16.419 11.808C16.2455 11.621 16.201 11.346 16.305 11.107C16.4015 10.8865 16.6035 10.7495 16.8325 10.7495H19.1675C19.3965 10.7495 19.598 10.8865 19.695 11.107C19.799 11.346 19.7545 11.621 19.581 11.8075L18.413 13.066C18.303 13.185 18.1565 13.25 18 13.25Z" fill="black"/>
<path id="Vector_7" d="M19.1675 11H16.832C16.5335 11 16.387 11.4065 16.602 11.638L17.7695 12.896C17.898 13.0345 18.101 13.0345 18.2295 12.896L19.397 11.638C19.6125 11.4065 19.466 11 19.1675 11Z" fill="url(#paint2_linear_206_6203)"/>
</g>
<defs>
<linearGradient id="paint0_linear_206_6203" x1="8.30571" y1="7.15353" x2="11.2455" y2="18.4899" gradientUnits="userSpaceOnUse">
<stop stop-color="#7DD8F3"/>
<stop offset="1" stop-color="#45B0D0"/>
</linearGradient>
<linearGradient id="paint1_linear_206_6203" x1="15.166" y1="9.166" x2="21.063" y2="15.0625" gradientUnits="userSpaceOnUse">
<stop stop-color="#0077D2"/>
<stop offset="1" stop-color="#0B59A2"/>
</linearGradient>
<linearGradient id="paint2_linear_206_6203" x1="16.5" y1="12" x2="19.5" y2="12" gradientUnits="userSpaceOnUse">
<stop stop-color="#7DD8F3"/>
<stop offset="1" stop-color="#45B0D0"/>
</linearGradient>
</defs>
</svg>
