<svg width="24" height="24" viewBox="0 0 24 24" fill="none" xmlns="http://www.w3.org/2000/svg">
<g id="ebay" clip-path="url(#clip0_206_6211)">
<path id="Vector" d="M20.25 3C19.4216 3 18.75 2.32838 18.75 1.5C18.75 0.671625 19.4216 0 20.25 0C21.0784 0 21.75 0.671625 21.75 1.5C21.75 2.32838 21.0784 3 20.25 3Z" fill="url(#paint0_radial_206_6211)"/>
<path id="Vector_2" d="M19.875 14.625L20.25 15C20.25 15.7238 19.1512 16.5 19.875 16.5H21C21.4125 16.5 21.7875 16.6687 22.0613 16.9387C22.3155 17.1964 22.4797 17.544 22.4981 17.928C22.5394 18.7916 21.78 19.5 20.9156 19.5H19.3125C19.0537 19.5 18.8175 19.605 18.6488 19.7738C18.48 19.9425 18.375 20.1787 18.375 20.4375C18.375 20.6963 18.48 20.9325 18.6488 21.1012C18.8175 21.27 19.0537 21.375 19.3125 21.375C19.6725 21.375 20.0025 21.5212 20.2388 21.7612C20.4679 21.9866 20.6115 22.2975 20.6243 22.6384C20.652 23.3869 19.9879 24 19.239 24H2.8125C2.4525 24 2.1225 23.8538 1.88625 23.6138C1.65713 23.3884 1.5135 23.0775 1.50075 22.7366C1.473 21.9881 2.13713 21.375 2.886 21.375H7.125C7.33125 21.375 7.51875 21.2925 7.65375 21.1537C7.80713 21.0045 7.89188 20.7908 7.87238 20.5586C7.83863 20.1638 7.47938 19.875 7.083 19.875H4.96875C4.5525 19.875 4.1775 19.7063 3.9075 19.4363C3.57375 19.098 3.39488 18.6052 3.49763 18.078C3.63675 17.3659 4.29975 16.875 5.02538 16.875H5.0625C5.32125 16.875 5.5575 16.77 5.72625 16.6012C5.88263 16.4449 5.98425 16.2308 5.99813 15.9945C6.03113 15.4485 5.54963 15 5.0025 15H3C2.17125 15 1.5 14.3287 1.5 13.5C1.5 13.5 0.296251 10.875 1.125 10.875L2.625 10.125H3.9375C4.45538 10.125 4.875 9.70537 4.875 9.1875C4.875 8.66963 4.45538 8.25 3.9375 8.25H3C2.37863 8.25 1.875 7.74638 1.875 7.125C1.875 6.50362 2.37863 6 3 6H7.875C8.2875 6 8.6625 5.83125 8.93625 5.56125C9.1905 5.30363 9.35475 4.956 9.37313 4.572C9.41438 3.70838 8.655 3 7.79063 3H4.875C4.4625 3 4.0875 2.83125 3.81375 2.56125C3.5595 2.30362 3.39488 1.956 3.37688 1.572C3.33563 0.708375 4.095 0 4.95938 0H16.5C16.9125 0 17.2875 0.16875 17.5613 0.43875C17.8155 0.696375 17.9797 1.044 17.9981 1.428C18.0394 2.29163 17.28 3 16.4156 3H15.75C15.4388 3 15.1575 3.1275 14.955 3.33C14.7349 3.55013 14.6032 3.86363 14.628 4.20712C14.6711 4.80675 15.2126 5.25 15.8134 5.25H16.6875C17.0475 5.25 17.3775 5.39625 17.6138 5.63625C17.8429 5.86162 17.9865 6.1725 17.9993 6.51337C18.027 7.26187 17.3629 7.875 16.614 7.875H16.125C15.8137 7.875 15.5325 8.0025 15.33 8.205C15.1099 8.42513 14.9782 8.73862 15.003 9.08212C15.0461 9.68175 15.5876 10.125 16.1884 10.125H22.125C22.6425 10.125 23.1112 10.335 23.4525 10.6725C23.775 10.9987 23.9812 11.4412 23.9989 11.9318C24.0371 12.9998 23.1034 13.875 22.0346 13.875H21.1875C20.4637 13.875 19.875 13.9012 19.875 14.625Z" fill="url(#paint1_radial_206_6211)"/>
<path id="Vector_3" d="M3.13612 9.20062C1.446 9.20062 0.0374985 9.91762 0.0374985 12.081C0.0374985 13.7947 0.984373 14.874 3.17962 14.874C4.77562 14.874 5.44912 14.2245 5.73075 13.728C5.87175 13.4794 5.6865 13.1719 5.40112 13.1719H4.50937C4.3935 13.1719 4.275 13.212 4.20112 13.3016C3.59625 14.031 1.83037 13.8769 1.64475 12.5861C1.62825 12.4702 1.71262 12.3637 1.82962 12.3637C2.51737 12.3637 4.7865 12.3637 5.68687 12.3637C5.89387 12.3637 6.06 12.1957 6.06 11.9887V11.7319C6.06 10.7362 5.42775 9.20062 3.13612 9.20062ZM4.06725 11.1825H2.06962C1.90687 11.1825 1.82325 10.9909 1.92937 10.8671C2.47537 10.2292 3.74775 10.2056 4.22887 10.8979C4.31175 11.0175 4.21275 11.1825 4.06725 11.1825Z" fill="url(#paint2_linear_206_6211)"/>
<path id="Vector_4" d="M6.43425 7.1625C6.22725 7.1625 6.05925 7.3305 6.05925 7.5375V13.8442C6.05925 14.0085 6.054 14.202 6.04838 14.3681C6.045 14.4697 6.08288 14.5687 6.15338 14.6419C6.22425 14.715 6.32138 14.7562 6.42338 14.7562H7.25813C7.4565 14.7562 7.62075 14.6017 7.63238 14.4037C7.63275 14.3996 7.63275 14.3959 7.63313 14.3917C7.96763 14.649 8.5515 14.9471 9.46313 14.9471C11.1525 14.9471 12.3 13.7745 12.3 12.0941C12.3 10.5311 11.2459 9.27375 9.46613 9.27375C8.54138 9.27375 7.97025 9.55087 7.64513 9.79762V7.5375C7.64513 7.3305 7.47713 7.1625 7.27013 7.1625H6.43425ZM9.1575 10.4752C11.2193 10.4805 11.0996 13.7456 9.16613 13.7456C7.15763 13.7456 7.14975 10.4809 9.1575 10.4752Z" fill="url(#paint3_linear_206_6211)"/>
<path id="Vector_5" d="M15.2674 9.25725C13.5945 9.25725 12.9517 9.85987 12.7076 10.3354C12.5816 10.581 12.771 10.872 13.0466 10.872H13.8949C14.0182 10.872 14.1259 10.8037 14.1979 10.7036C14.3137 10.5431 14.5792 10.3466 15.1777 10.3466C16.152 10.3466 16.3144 10.8652 16.3264 10.8956C16.3706 11.0092 16.3781 11.1304 16.3777 11.2519C16.3777 11.3554 16.2937 11.4394 16.1902 11.4394L15.1796 11.4397C13.2097 11.4397 12.1684 12.0161 12.1684 13.1854C12.1684 14.3362 13.1306 14.9625 14.4307 14.9625C15.4402 14.9625 16.0597 14.6449 16.4062 14.3711C16.4066 14.3797 16.407 14.3884 16.4074 14.397C16.4156 14.598 16.5806 14.7566 16.782 14.7566H17.5245C17.628 14.7566 17.7266 14.7139 17.7975 14.6389C17.8684 14.5635 17.9055 14.4626 17.8991 14.3591C17.8912 14.2305 17.8852 14.0914 17.8852 13.9766V11.346C17.886 9.62025 16.4947 9.25725 15.2674 9.25725ZM16.0751 12.6034C16.1974 12.6052 16.2836 12.7226 16.254 12.8415C15.9495 14.0625 13.8097 14.0419 13.8097 13.1974C13.8097 12.5962 15.2411 12.5906 16.0751 12.6034Z" fill="url(#paint4_linear_206_6211)"/>
<path id="Vector_6" d="M17.4982 10.0271C17.3651 9.77738 17.5462 9.47588 17.8294 9.47588H18.7894C18.9315 9.47588 19.0612 9.55613 19.125 9.68325L20.5035 12.4455C20.5725 12.5839 20.7701 12.5839 20.8391 12.4455L22.2142 9.684C22.2776 9.5565 22.4077 9.47625 22.5499 9.47625H23.388C23.6681 9.47625 23.8492 9.77213 23.7221 10.0215L20.391 16.5596C20.3269 16.6853 20.1979 16.7644 20.0569 16.7644H19.1295C18.8471 16.7644 18.666 16.464 18.7976 16.2143L19.7449 14.4188C19.7737 14.3636 19.7738 14.298 19.7445 14.2433L17.4982 10.0271Z" fill="url(#paint5_linear_206_6211)"/>
</g>
<defs>
<radialGradient id="paint0_radial_206_6211" cx="0" cy="0" r="1" gradientUnits="userSpaceOnUse" gradientTransform="translate(12.9844 11.9531) scale(8.70225)">
<stop stop-color="#F4E9C3"/>
<stop offset="0.219" stop-color="#F8EECD"/>
<stop offset="0.644" stop-color="#FDF4DC"/>
<stop offset="1" stop-color="#FFF6E1"/>
</radialGradient>
<radialGradient id="paint1_radial_206_6211" cx="0" cy="0" r="1" gradientUnits="userSpaceOnUse" gradientTransform="translate(12.417 12) scale(11.7934 10.614)">
<stop stop-color="#F4E9C3"/>
<stop offset="0.219" stop-color="#F8EECD"/>
<stop offset="0.644" stop-color="#FDF4DC"/>
<stop offset="1" stop-color="#FFF6E1"/>
</radialGradient>
<linearGradient id="paint2_linear_206_6211" x1="3.04875" y1="14.874" x2="3.04875" y2="9.20062" gradientUnits="userSpaceOnUse">
<stop stop-color="#FF634D"/>
<stop offset="0.204" stop-color="#FE6464"/>
<stop offset="0.521" stop-color="#FC6581"/>
<stop offset="0.794" stop-color="#FA6694"/>
<stop offset="0.989" stop-color="#FA669A"/>
<stop offset="1" stop-color="#FA669A"/>
</linearGradient>
<linearGradient id="paint3_linear_206_6211" x1="9.174" y1="16.5611" x2="9.174" y2="7.84987" gradientUnits="userSpaceOnUse">
<stop stop-color="#155CDE"/>
<stop offset="0.278" stop-color="#1F7FE5"/>
<stop offset="0.569" stop-color="#279CEB"/>
<stop offset="0.82" stop-color="#2CAFEF"/>
<stop offset="1" stop-color="#2EB5F0"/>
</linearGradient>
<linearGradient id="paint4_linear_206_6211" x1="15.0349" y1="18.6304" x2="15.0349" y2="7.53937" gradientUnits="userSpaceOnUse">
<stop stop-color="#FEAA53"/>
<stop offset="0.612" stop-color="#FFCD49"/>
<stop offset="1" stop-color="#FFDE44"/>
</linearGradient>
<linearGradient id="paint5_linear_206_6211" x1="20.6085" y1="8.08163" x2="20.6085" y2="22.5225" gradientUnits="userSpaceOnUse">
<stop stop-color="#42D778"/>
<stop offset="0.996" stop-color="#34B171"/>
<stop offset="1" stop-color="#34B171"/>
</linearGradient>
<clipPath id="clip0_206_6211">
<rect width="24" height="24" fill="white"/>
</clipPath>
</defs>
</svg>
