<svg width="24" height="24" viewBox="0 0 24 24" fill="none" xmlns="http://www.w3.org/2000/svg">
<g id="ecg">
<path id="Vector" d="M2.9525 4.5H21.0475C21.5735 4.5 22 4.934 22 5.4695V19.53C22 20.066 21.5735 20.5 21.0475 20.5H2.9525C2.4265 20.5 2 20.066 2 19.5305V5.4695C2 4.934 2.4265 4.5 2.9525 4.5Z" fill="url(#paint0_linear_206_6218)"/>
<path id="Vector_2" d="M20 6.5C20 6.224 19.776 6 19.5 6H4.5C4.224 6 4 6.224 4 6.5V18.5C4 18.776 4.224 19 4.5 19H19.5C19.776 19 20 18.776 20 18.5C20 18.5 20 6.535 20 6.5ZM10 11H14V14H10V11ZM9 14H5V11H9V14ZM14 10H10V7H14V10ZM15 7H19V10H15V7ZM15 11H19V14H15V11ZM9 7V10H5V7H9ZM5 18V15H9V18H5ZM10 15H14V18H10V15ZM15 18V15H19V18H15Z" fill="#8AF2FF"/>
<path id="Vector_3" d="M22 17H20.205L18.605 6.9215C18.5665 6.6785 18.357 6.5 18.111 6.5C17.865 6.5 17.6555 6.6785 17.617 6.9215L16.0175 17H15.187L14.1565 11.901C14.1095 11.668 13.905 11.5 13.6665 11.5C13.428 11.5 13.2235 11.668 13.1765 11.901L12.1465 17H11.3125L9.7155 7.418C9.6755 7.177 9.4665 7 9.222 7C8.9775 7 8.769 7.177 8.729 7.418L7.132 17H6.3105L5.2705 10.9155C5.2295 10.676 5.0215 10.5 4.778 10.5C4.5345 10.5 4.326 10.676 4.285 10.9155L3.245 17H2V18H3.6665C3.91 18 4.1185 17.824 4.1595 17.5845L4.7775 13.9675L5.3955 17.5845C5.437 17.824 5.6455 18 5.889 18H7.5555C7.8 18 8.0085 17.823 8.0485 17.582L9.222 10.5415L10.3955 17.582C10.436 17.823 10.6445 18 10.889 18H12.5555C12.7935 18 12.9985 17.832 13.0455 17.599L13.6665 14.525L14.2875 17.599C14.335 17.832 14.54 18 14.778 18H16.4445C16.6905 18 16.9 17.8215 16.9385 17.5785L18.1115 10.1895L19.2845 17.5785C19.3225 17.8215 19.532 18 19.778 18H22V17Z" fill="#0D62AB"/>
</g>
<defs>
<linearGradient id="paint0_linear_206_6218" x1="8.30571" y1="4.74565" x2="15.1581" y2="21.2605" gradientUnits="userSpaceOnUse">
<stop stop-color="#7DD8F3"/>
<stop offset="1" stop-color="#45B0D0"/>
</linearGradient>
</defs>
</svg>
