<svg width="24" height="24" viewBox="0 0 24 24" fill="none" xmlns="http://www.w3.org/2000/svg">
<path d="M21.5 5.5H11.914C11.649 5.5 11.3945 5.3945 11.207 5.207L9.939 3.939C9.658 3.658 9.2765 3.5 8.8785 3.5H2.5C1.9475 3.5 1.5 3.9475 1.5 4.5V19.5C1.5 20.0525 1.9475 20.5 2.5 20.5H6.5C6.5 19.9475 6.9475 19.5 7.5 19.5C8.0525 19.5 8.5 19.9475 8.5 20.5H15.5C15.5 19.9475 15.9475 19.5 16.5 19.5C17.0525 19.5 17.5 19.9475 17.5 20.5H21.5C22.0525 20.5 22.5 20.0525 22.5 19.5V6.5C22.5 5.9475 22.0525 5.5 21.5 5.5Z" fill="url(#paint0_linear_222_5436)"/>
<path d="M5.5 9.5C5.5 8.6715 6.1715 8 7 8C7.8285 8 8.5 8.6715 8.5 9.5C8.5 10.3285 7.8285 11 7 11C6.1715 11 5.5 10.3285 5.5 9.5ZM7 12C5.6195 12 4.5 13.1195 4.5 14.5V16.5C4.5 16.776 4.724 17 5 17H9C9.276 17 9.5 16.776 9.5 16.5V14.5C9.5 13.1195 8.3805 12 7 12Z" fill="#057093"/>
<path d="M19 14.5H13C12.724 14.5 12.5 14.724 12.5 15C12.5 15.276 12.724 15.5 13 15.5H19C19.276 15.5 19.5 15.276 19.5 15C19.5 14.724 19.276 14.5 19 14.5Z" fill="#057093"/>
<path d="M19 12.5H13C12.724 12.5 12.5 12.724 12.5 13C12.5 13.276 12.724 13.5 13 13.5H19C19.276 13.5 19.5 13.276 19.5 13C19.5 12.724 19.276 12.5 19 12.5Z" fill="#057093"/>
<path d="M19 10.5H13C12.724 10.5 12.5 10.724 12.5 11C12.5 11.276 12.724 11.5 13 11.5H19C19.276 11.5 19.5 11.276 19.5 11C19.5 10.724 19.276 10.5 19 10.5Z" fill="#057093"/>
<path d="M19 14L20.1645 14.6535L21.5 14.67L22.182 15.818L23.33 16.5L23.3465 17.8355L24 19L23.3465 20.1645L23.33 21.5L22.182 22.182L21.5 23.33L20.1645 23.3465L19 24L17.8355 23.3465L16.5 23.33L15.818 22.182L14.67 21.5L14.6535 20.1645L14 19L14.6535 17.8355L14.67 16.5L15.818 15.818L16.5 14.67L17.8355 14.6535L19 14Z" fill="#FDB700"/>
<path d="M19 22.5C20.933 22.5 22.5 20.933 22.5 19C22.5 17.067 20.933 15.5 19 15.5C17.067 15.5 15.5 17.067 15.5 19C15.5 20.933 17.067 22.5 19 22.5Z" fill="url(#paint1_linear_222_5436)"/>
<defs>
<linearGradient id="paint0_linear_222_5436" x1="8.121" y1="3.761" x2="15.4625" y2="21.2465" gradientUnits="userSpaceOnUse">
<stop stop-color="#7DD8F3"/>
<stop offset="1" stop-color="#45B0D0"/>
</linearGradient>
<linearGradient id="paint1_linear_222_5436" x1="15.5" y1="19" x2="22.5" y2="19" gradientUnits="userSpaceOnUse">
<stop stop-color="#FEDE00"/>
<stop offset="1" stop-color="#FFD000"/>
</linearGradient>
</defs>
</svg>
