<svg width="24" height="24" viewBox="0 0 24 24" fill="none" xmlns="http://www.w3.org/2000/svg">
<g id="enlarge">
<path id="Vector" d="M21 3.707L18.8535 5.8535L20.573 7.573C20.7305 7.7305 21 7.619 21 7.3965V3.707Z" fill="url(#paint0_linear_206_6353)"/>
<path id="Vector_2" d="M3.707 20.998L5.8535 18.8515L7.573 20.571C7.7305 20.7285 7.619 20.998 7.396 20.998H3.707Z" fill="url(#paint1_linear_206_6353)"/>
<path id="Vector_3" d="M20.5 3H16.605C16.38 3 16.27 3.27 16.425 3.425L17.795 4.795L4.795 17.793L3.425 16.423C3.27 16.268 3 16.378 3 16.603V20.498C3 20.773 3.225 20.998 3.5 20.998H4.205C4.34 20.998 4.465 20.943 4.56 20.853L20.855 4.56C20.945 4.465 21 4.34 21 4.205V3.5C21 3.225 20.775 3 20.5 3Z" fill="url(#paint2_linear_206_6353)"/>
</g>
<defs>
<linearGradient id="paint0_linear_206_6353" x1="21.7818" y1="6.63589" x2="20.2237" y2="5.07778" gradientUnits="userSpaceOnUse">
<stop offset="0.365" stop-color="#199AE0"/>
<stop offset="0.699" stop-color="#1898DE"/>
<stop offset="0.819" stop-color="#1691D8"/>
<stop offset="0.905" stop-color="#1186CC"/>
<stop offset="0.974" stop-color="#0A75BC"/>
<stop offset="1" stop-color="#076CB3"/>
</linearGradient>
<linearGradient id="paint1_linear_206_6353" x1="6.63555" y1="21.78" x2="5.07744" y2="20.2219" gradientUnits="userSpaceOnUse">
<stop offset="0.365" stop-color="#199AE0"/>
<stop offset="0.699" stop-color="#1898DE"/>
<stop offset="0.819" stop-color="#1691D8"/>
<stop offset="0.905" stop-color="#1186CC"/>
<stop offset="0.974" stop-color="#0A75BC"/>
<stop offset="1" stop-color="#076CB3"/>
</linearGradient>
<linearGradient id="paint2_linear_206_6353" x1="5.722" y1="53.571" x2="20.7845" y2="-49.9795" gradientUnits="userSpaceOnUse">
<stop stop-color="#32BDEF"/>
<stop offset="1" stop-color="#1EA2E4"/>
</linearGradient>
</defs>
</svg>
