<svg width="24" height="24" viewBox="0 0 24 24" fill="none" xmlns="http://www.w3.org/2000/svg">
<g id="esc">
<path id="Vector" d="M3 16.5V19C3 19.8285 3.669 20.5 4.495 20.5H19.505C20.3305 20.5 21 19.8285 21 19V16.5H3Z" fill="url(#paint0_linear_206_6376)"/>
<path id="Vector_2" d="M21 16.5C20.9375 17.3285 20.2695 18 19.4455 18H4.4925C3.668 18 3 17.3285 3 16.5V5C3 4.1715 3.668 3.5 4.4925 3.5H19.445C20.269 3.5 20.937 4.1715 20.9995 5L21 16.5Z" fill="url(#paint1_linear_206_6376)"/>
<path id="Vector_3" d="M10.2635 13.412H7.324V8.5105H10.1505V9.4095H8.428V10.5H10.031V11.3955H8.428V12.5165H10.2635V13.412Z" fill="url(#paint2_linear_206_6376)"/>
<path id="Vector_4" d="M10.715 13.3195V12.4445C10.8925 12.5515 11.07 12.6315 11.2465 12.684C11.4235 12.7365 11.5905 12.7625 11.7475 12.7625C11.939 12.7625 12.09 12.7365 12.2005 12.684C12.311 12.6315 12.366 12.552 12.366 12.4445C12.366 12.376 12.341 12.3195 12.291 12.2735C12.241 12.2275 12.1765 12.188 12.098 12.154C12.019 12.12 11.933 12.089 11.8395 12.0615C11.746 12.034 11.656 12.0035 11.5695 11.969C11.4305 11.9165 11.308 11.86 11.2025 11.8C11.096 11.7395 11.007 11.6695 10.936 11.59C10.8635 11.51 10.809 11.418 10.772 11.313C10.734 11.2085 10.7155 11.084 10.7155 10.9405C10.7155 10.7445 10.7585 10.576 10.8435 10.4345C10.9295 10.293 11.043 10.1775 11.1855 10.0875C11.328 9.9975 11.491 9.9315 11.675 9.8895C11.858 9.8475 12.049 9.8265 12.2475 9.8265C12.4025 9.8265 12.5595 9.8385 12.719 9.8625C12.8785 9.8865 13.036 9.921 13.1905 9.9665V10.8005C13.054 10.7205 12.9075 10.661 12.751 10.621C12.595 10.581 12.442 10.561 12.2915 10.561C12.2205 10.561 12.1545 10.5675 12.092 10.58C12.029 10.5925 11.974 10.611 11.926 10.6345C11.878 10.658 11.8405 10.689 11.813 10.727C11.7855 10.765 11.772 10.8075 11.772 10.855C11.772 10.9185 11.7925 10.9735 11.8335 11.019C11.8745 11.0645 11.928 11.104 11.994 11.137C12.06 11.17 12.1335 11.1995 12.2145 11.226C12.295 11.252 12.3755 11.279 12.455 11.3065C12.5985 11.3565 12.7285 11.411 12.8445 11.4705C12.9605 11.53 13.0605 11.599 13.144 11.679C13.227 11.759 13.2905 11.852 13.3355 11.9595C13.3795 12.0665 13.402 12.194 13.402 12.3425C13.402 12.55 13.357 12.727 13.267 12.874C13.1765 13.021 13.057 13.1405 12.9075 13.233C12.7585 13.3255 12.586 13.3925 12.392 13.435C12.1965 13.477 11.9945 13.498 11.785 13.498C11.3995 13.4975 11.043 13.438 10.715 13.3195Z" fill="url(#paint3_linear_206_6376)"/>
<path id="Vector_5" d="M16.676 13.2855C16.4325 13.4265 16.0805 13.4975 15.62 13.4975C15.0825 13.4975 14.647 13.3345 14.3145 13.0085C13.982 12.6825 13.8155 12.262 13.8155 11.7475C13.8155 11.153 13.9935 10.684 14.3505 10.341C14.707 9.998 15.1835 9.8265 15.7805 9.8265C16.193 9.8265 16.4915 9.881 16.676 9.9905V10.9065C16.4505 10.738 16.1985 10.6535 15.9205 10.6535C15.6105 10.6535 15.365 10.744 15.184 10.925C15.0025 11.106 14.912 11.356 14.912 11.675C14.912 11.985 14.9985 12.228 15.172 12.4045C15.3455 12.581 15.583 12.6695 15.8865 12.6695C16.1555 12.6695 16.4185 12.5855 16.676 12.4165V13.2855Z" fill="url(#paint4_linear_206_6376)"/>
</g>
<defs>
<linearGradient id="paint0_linear_206_6376" x1="12" y1="29.588" x2="12" y2="13.0355" gradientUnits="userSpaceOnUse">
<stop stop-color="#899198"/>
<stop offset="1" stop-color="#787E85"/>
</linearGradient>
<linearGradient id="paint1_linear_206_6376" x1="6.98775" y1="1.33989" x2="15.8969" y2="17.5753" gradientUnits="userSpaceOnUse">
<stop stop-color="#FCFCFC"/>
<stop offset="0.95" stop-color="#C3C9CD"/>
</linearGradient>
<linearGradient id="paint2_linear_206_6376" x1="7.60735" y1="8.69588" x2="11.0323" y2="9.97288" gradientUnits="userSpaceOnUse">
<stop stop-color="#A1AAB3"/>
<stop offset="1" stop-color="#8F979E"/>
</linearGradient>
<linearGradient id="paint3_linear_206_6376" x1="10.974" y1="9.96536" x2="13.9284" y2="11.3096" gradientUnits="userSpaceOnUse">
<stop stop-color="#A1AAB3"/>
<stop offset="1" stop-color="#8F979E"/>
</linearGradient>
<linearGradient id="paint4_linear_206_6376" x1="14.0912" y1="9.96534" x2="17.1659" y2="11.4549" gradientUnits="userSpaceOnUse">
<stop stop-color="#A1AAB3"/>
<stop offset="1" stop-color="#8F979E"/>
</linearGradient>
</defs>
</svg>
