<svg width="24" height="24" viewBox="0 0 24 24" fill="none" xmlns="http://www.w3.org/2000/svg">
<g id="estimates">
<path id="Vector" d="M19.5 8V20.5C19.5 21.0525 19.0525 21.5 18.5 21.5H5.5C4.9475 21.5 4.5 21.0525 4.5 20.5V3.5C4.5 2.9475 4.9475 2.5 5.5 2.5H14L19.5 8Z" fill="url(#paint0_linear_206_6382)"/>
<path id="Vector_2" d="M14 2.5V7C14 7.5525 14.4475 8 15 8H19.5L14 2.5Z" fill="url(#paint1_linear_206_6382)"/>
<path id="Vector_3" opacity="0.05" d="M19.5 10.5H14C13.4475 10.5 13 10.9475 13 11.5V20.5C13 21.0525 13.4475 21.5 14 21.5H19.5V10.5Z" fill="black"/>
<path id="Vector_4" opacity="0.07" d="M19.5 11H14.25C13.836 11 13.5 11.336 13.5 11.75V20.75C13.5 21.164 13.836 21.5 14.25 21.5H19.5V11Z" fill="black"/>
<path id="Vector_5" d="M21 11.5H14.5C14.224 11.5 14 11.724 14 12V21C14 21.276 14.224 21.5 14.5 21.5H21C21.276 21.5 21.5 21.276 21.5 21V12C21.5 11.724 21.276 11.5 21 11.5Z" fill="url(#paint2_linear_206_6382)"/>
<path id="Vector_6" d="M20.25 14H15.25C15.112 14 15 13.888 15 13.75V12.75C15 12.612 15.112 12.5 15.25 12.5H20.25C20.388 12.5 20.5 12.612 20.5 12.75V13.75C20.5 13.888 20.388 14 20.25 14Z" fill="url(#paint3_linear_206_6382)"/>
<path id="Vector_7" d="M18.25 16.5H17.25C17.112 16.5 17 16.388 17 16.25V15.25C17 15.112 17.112 15 17.25 15H18.25C18.388 15 18.5 15.112 18.5 15.25V16.25C18.5 16.388 18.388 16.5 18.25 16.5Z" fill="#CAD2D9"/>
<path id="Vector_8" d="M16.25 16.5H15.25C15.112 16.5 15 16.388 15 16.25V15.25C15 15.112 15.112 15 15.25 15H16.25C16.388 15 16.5 15.112 16.5 15.25V16.25C16.5 16.388 16.388 16.5 16.25 16.5Z" fill="#CAD2D9"/>
<path id="Vector_9" d="M18.25 18.5H17.25C17.112 18.5 17 18.388 17 18.25V17.25C17 17.112 17.112 17 17.25 17H18.25C18.388 17 18.5 17.112 18.5 17.25V18.25C18.5 18.388 18.388 18.5 18.25 18.5Z" fill="#CAD2D9"/>
<path id="Vector_10" d="M16.25 18.5H15.25C15.112 18.5 15 18.388 15 18.25V17.25C15 17.112 15.112 17 15.25 17H16.25C16.388 17 16.5 17.112 16.5 17.25V18.25C16.5 18.388 16.388 18.5 16.25 18.5Z" fill="#CAD2D9"/>
<path id="Vector_11" d="M18.25 20.5H17.25C17.112 20.5 17 20.388 17 20.25V19.25C17 19.112 17.112 19 17.25 19H18.25C18.388 19 18.5 19.112 18.5 19.25V20.25C18.5 20.388 18.388 20.5 18.25 20.5Z" fill="#CAD2D9"/>
<path id="Vector_12" d="M16.25 20.5H15.25C15.112 20.5 15 20.388 15 20.25V19.25C15 19.112 15.112 19 15.25 19H16.25C16.388 19 16.5 19.112 16.5 19.25V20.25C16.5 20.388 16.388 20.5 16.25 20.5Z" fill="#CAD2D9"/>
<path id="Vector_13" d="M20.25 16.5H19.25C19.112 16.5 19 16.388 19 16.25V15.25C19 15.112 19.112 15 19.25 15H20.25C20.388 15 20.5 15.112 20.5 15.25V16.25C20.5 16.388 20.388 16.5 20.25 16.5Z" fill="#CAD2D9"/>
<path id="Vector_14" d="M20.25 20.5H19.25C19.112 20.5 19 20.388 19 20.25V17.25C19 17.112 19.112 17 19.25 17H20.25C20.388 17 20.5 17.112 20.5 17.25V20.25C20.5 20.388 20.388 20.5 20.25 20.5Z" fill="url(#paint4_linear_206_6382)"/>
</g>
<defs>
<linearGradient id="paint0_linear_206_6382" x1="9.22929" y1="2.79171" x2="19.7783" y2="18.8491" gradientUnits="userSpaceOnUse">
<stop stop-color="#7DD8F3"/>
<stop offset="1" stop-color="#45B0D0"/>
</linearGradient>
<linearGradient id="paint1_linear_206_6382" x1="14.2645" y1="7.7355" x2="16.8" y2="5.2" gradientUnits="userSpaceOnUse">
<stop stop-color="#3079D6"/>
<stop offset="1" stop-color="#297CD2"/>
</linearGradient>
<linearGradient id="paint2_linear_206_6382" x1="14.2955" y1="11.7195" x2="20.964" y2="20.948" gradientUnits="userSpaceOnUse">
<stop stop-color="#899198"/>
<stop offset="1" stop-color="#787E85"/>
</linearGradient>
<linearGradient id="paint3_linear_206_6382" x1="15.624" y1="12.265" x2="20.3345" y2="14.447" gradientUnits="userSpaceOnUse">
<stop stop-color="#4FE5FF"/>
<stop offset="1" stop-color="#2EB7ED"/>
</linearGradient>
<linearGradient id="paint4_linear_206_6382" x1="19.75" y1="17.1375" x2="19.75" y2="20.4105" gradientUnits="userSpaceOnUse">
<stop stop-color="#11498A"/>
<stop offset="1" stop-color="#0F417A"/>
</linearGradient>
</defs>
</svg>
