<svg width="24" height="24" viewBox="0 0 24 24" fill="none" xmlns="http://www.w3.org/2000/svg">
<g id="exchange">
<path id="Vector" d="M7.75 21H3.75C3.612 21 3.5 20.888 3.5 20.75V19.75C3.5 19.612 3.612 19.5 3.75 19.5H7.75C7.888 19.5 8 19.612 8 19.75V20.75C8 20.888 7.888 21 7.75 21Z" fill="url(#paint0_linear_206_6427)"/>
<path id="Vector_2" d="M19.75 21H15.75C15.612 21 15.5 20.888 15.5 20.75V19.75C15.5 19.612 15.612 19.5 15.75 19.5H19.75C19.888 19.5 20 19.612 20 19.75V20.75C20 20.888 19.888 21 19.75 21Z" fill="url(#paint1_linear_206_6427)"/>
<path id="Vector_3" d="M19.5 22.272C19.5 22.475 19.7455 22.5765 19.8885 22.4325L21.763 20.548C21.9265 20.383 21.9265 20.117 21.763 19.9525L19.8885 18.068C19.7455 17.9235 19.5 18.025 19.5 18.228V22.272Z" fill="url(#paint2_linear_206_6427)"/>
<path id="Vector_4" d="M4.3855 18.228C4.3855 18.025 4.14 17.9235 3.997 18.0675L2.1225 19.952C1.959 20.117 1.959 20.383 2.1225 20.5475L3.997 22.432C4.14 22.5765 4.3855 22.475 4.3855 22.272V18.228Z" fill="url(#paint3_linear_206_6427)"/>
<path id="Vector_5" d="M6.5 8.5C7.88071 8.5 9 7.38071 9 6C9 4.61929 7.88071 3.5 6.5 3.5C5.11929 3.5 4 4.61929 4 6C4 7.38071 5.11929 8.5 6.5 8.5Z" fill="url(#paint4_linear_206_6427)"/>
<path id="Vector_6" d="M6.5 9.5C4.0145 9.5 2 11.5145 2 14V15.5C2 16.0525 2.4475 16.5 3 16.5H10C10.5525 16.5 11 16.0525 11 15.5V14C11 11.5145 8.9855 9.5 6.5 9.5Z" fill="url(#paint5_linear_206_6427)"/>
<path id="Vector_7" d="M17.5 8.5C18.8807 8.5 20 7.38071 20 6C20 4.61929 18.8807 3.5 17.5 3.5C16.1193 3.5 15 4.61929 15 6C15 7.38071 16.1193 8.5 17.5 8.5Z" fill="url(#paint6_linear_206_6427)"/>
<path id="Vector_8" d="M17.5 9.5C15.0145 9.5 13 11.5145 13 14V15.5C13 16.0525 13.4475 16.5 14 16.5H21C21.5525 16.5 22 16.0525 22 15.5V14C22 11.5145 19.9855 9.5 17.5 9.5Z" fill="url(#paint7_linear_206_6427)"/>
<path id="Vector_9" d="M10.75 21H9.75C9.612 21 9.5 20.888 9.5 20.75V19.75C9.5 19.612 9.612 19.5 9.75 19.5H10.75C10.888 19.5 11 19.612 11 19.75V20.75C11 20.888 10.888 21 10.75 21Z" fill="url(#paint8_linear_206_6427)"/>
<path id="Vector_10" d="M13.75 21H12.75C12.612 21 12.5 20.888 12.5 20.75V19.75C12.5 19.612 12.612 19.5 12.75 19.5H13.75C13.888 19.5 14 19.612 14 19.75V20.75C14 20.888 13.888 21 13.75 21Z" fill="url(#paint9_linear_206_6427)"/>
</g>
<defs>
<linearGradient id="paint0_linear_206_6427" x1="5.14408" y1="19.5654" x2="5.24397" y2="21.2134" gradientUnits="userSpaceOnUse">
<stop stop-color="#32BDEF"/>
<stop offset="1" stop-color="#1EA2E4"/>
</linearGradient>
<linearGradient id="paint1_linear_206_6427" x1="17.1441" y1="19.5654" x2="17.244" y2="21.2134" gradientUnits="userSpaceOnUse">
<stop stop-color="#32BDEF"/>
<stop offset="1" stop-color="#1EA2E4"/>
</linearGradient>
<linearGradient id="paint2_linear_206_6427" x1="20.3716" y1="18.1963" x2="21.8945" y2="22.636" gradientUnits="userSpaceOnUse">
<stop stop-color="#32BDEF"/>
<stop offset="1" stop-color="#1EA2E4"/>
</linearGradient>
<linearGradient id="paint3_linear_206_6427" x1="2.87147" y1="18.1961" x2="4.39436" y2="22.6358" gradientUnits="userSpaceOnUse">
<stop stop-color="#32BDEF"/>
<stop offset="1" stop-color="#1EA2E4"/>
</linearGradient>
<linearGradient id="paint4_linear_206_6427" x1="4.804" y1="4.304" x2="8.292" y2="7.792" gradientUnits="userSpaceOnUse">
<stop stop-color="#0D61A9"/>
<stop offset="1" stop-color="#16528C"/>
</linearGradient>
<linearGradient id="paint5_linear_206_6427" x1="3.435" y1="10.9605" x2="9.7385" y2="17.2635" gradientUnits="userSpaceOnUse">
<stop stop-color="#0D61A9"/>
<stop offset="1" stop-color="#16528C"/>
</linearGradient>
<linearGradient id="paint6_linear_206_6427" x1="15.804" y1="4.304" x2="19.292" y2="7.792" gradientUnits="userSpaceOnUse">
<stop stop-color="#32BDEF"/>
<stop offset="1" stop-color="#1EA2E4"/>
</linearGradient>
<linearGradient id="paint7_linear_206_6427" x1="14.435" y1="10.9605" x2="20.7385" y2="17.2635" gradientUnits="userSpaceOnUse">
<stop stop-color="#32BDEF"/>
<stop offset="1" stop-color="#1EA2E4"/>
</linearGradient>
<linearGradient id="paint8_linear_206_6427" x1="9.5" y1="20.25" x2="11" y2="20.25" gradientUnits="userSpaceOnUse">
<stop stop-color="#33BEF0"/>
<stop offset="1" stop-color="#32C3EF"/>
</linearGradient>
<linearGradient id="paint9_linear_206_6427" x1="12.5" y1="20.25" x2="14" y2="20.25" gradientUnits="userSpaceOnUse">
<stop stop-color="#33BEF0"/>
<stop offset="1" stop-color="#32C3EF"/>
</linearGradient>
</defs>
</svg>
