<svg width="24" height="24" viewBox="0 0 24 24" fill="none" xmlns="http://www.w3.org/2000/svg">
<g id="exclamation-mark">
<path id="Vector" d="M12.006 22C11.359 22 10.826 21.804 10.406 21.412C9.986 21.02 9.7755 20.5455 9.7755 19.988C9.7755 19.406 9.988 18.9295 10.4115 18.5575C10.8365 18.186 11.368 18 12.006 18C12.653 18 13.1815 18.1875 13.5945 18.564C14.0055 18.9395 14.212 19.4145 14.212 19.988C14.212 20.57 14.0075 21.051 13.6 21.4305C13.192 21.81 12.6605 22 12.006 22Z" fill="url(#paint0_linear_206_6438)"/>
<path id="Vector_2" d="M14.3315 2.5195L13.818 15.5195C13.8075 15.788 13.587 16 13.3185 16H10.653C10.384 16 10.1635 15.7875 10.1535 15.5185L9.66701 2.5185C9.65651 2.2355 9.88351 2 10.167 2H13.8325C14.116 2 14.343 2.236 14.3315 2.5195Z" fill="url(#paint1_linear_206_6438)"/>
</g>
<defs>
<linearGradient id="paint0_linear_206_6438" x1="9.327" y1="1.874" x2="12.226" y2="21.559" gradientUnits="userSpaceOnUse">
<stop stop-color="#33BEF0"/>
<stop offset="1" stop-color="#0A85D9"/>
</linearGradient>
<linearGradient id="paint1_linear_206_6438" x1="11.0715" y1="1.972" x2="14.3075" y2="21.388" gradientUnits="userSpaceOnUse">
<stop stop-color="#33BEF0"/>
<stop offset="1" stop-color="#0A85D9"/>
</linearGradient>
</defs>
</svg>
