<svg width="24" height="24" viewBox="0 0 24 24" fill="none" xmlns="http://www.w3.org/2000/svg">
<g id="faq">
<path id="Vector" d="M8 10H20C20.5525 10 21 10.4475 21 11V18C21 18.5525 20.5525 19 20 19H19.5V22.041C19.5 22.3175 19.138 22.421 18.992 22.1865L17 19H8C7.4475 19 7 18.5525 7 18V11C7 10.4475 7.4475 10 8 10Z" fill="url(#paint0_linear_206_6449)"/>
<path id="Vector_2" d="M15.7935 16.5H15.173C15.065 16.5 14.9695 16.43 14.9365 16.327L14.707 15.61H13.2845L13.0575 16.3265C13.025 16.43 12.929 16.5 12.821 16.5H12.208C12.12 16.5 12.0585 16.4125 12.0885 16.3295L13.4225 12.6645C13.4585 12.5655 13.5525 12.5 13.6575 12.5H14.3745C14.4805 12.5 14.5745 12.5665 14.61 12.6665L15.913 16.3305C15.9425 16.413 15.8815 16.5 15.7935 16.5ZM14.5005 14.9185C14.5005 14.9185 14.017 13.3535 14.004 13.214H13.9815C13.972 13.331 13.4765 14.9185 13.4765 14.9185H14.5005Z" fill="white"/>
<path id="Vector_3" opacity="0.05" d="M16.5 12.5H7V10H17.5V11.5C17.5 12.0525 17.0525 12.5 16.5 12.5Z" fill="black"/>
<path id="Vector_4" opacity="0.07" d="M16.25 12.25H7V10H17.25V11.25C17.25 11.8025 16.8025 12.25 16.25 12.25Z" fill="black"/>
<path id="Vector_5" d="M16 3H4C3.4475 3 3 3.4475 3 4V11C3 11.5525 3.4475 12 4 12H4.5V15.1285C4.5 15.3795 4.829 15.474 4.962 15.261L7 12H16C16.5525 12 17 11.5525 17 11V4C17 3.4475 16.5525 3 16 3Z" fill="url(#paint1_linear_206_6449)"/>
<path id="Vector_6" d="M10.774 9.06C11.3455 9.712 11.9995 9.633 12.2615 9.565C12.316 9.551 12.368 9.5925 12.368 9.6485V10.2365C12.368 10.2915 12.3315 10.339 12.2775 10.3505C12.167 10.375 11.9735 10.407 11.706 10.407C10.738 10.407 10.119 9.4565 9.8485 9.203C8.8905 9.203 7.944 8.443 7.944 7.0935C7.944 5.539 8.9815 4.867 10.0565 4.867C11.627 4.867 12.0605 6.117 12.0605 7.0085C12.0605 8.395 11.206 8.922 10.774 9.06ZM10.024 5.682C9.449 5.682 8.94 6.125 8.94 7.0445C8.94 7.9935 9.4495 8.395 10.0005 8.395C10.5795 8.395 11.064 7.9965 11.064 7.062C11.064 6.101 10.5995 5.682 10.024 5.682Z" fill="white"/>
</g>
<defs>
<linearGradient id="paint0_linear_206_6449" x1="12.5965" y1="9.9435" x2="16.353" y2="22.139" gradientUnits="userSpaceOnUse">
<stop stop-color="#0176D0"/>
<stop offset="1" stop-color="#16538C"/>
</linearGradient>
<linearGradient id="paint1_linear_206_6449" x1="6.0885" y1="1.8745" x2="13.3365" y2="13.6675" gradientUnits="userSpaceOnUse">
<stop stop-color="#33BEF0"/>
<stop offset="1" stop-color="#22A5E2"/>
</linearGradient>
</defs>
</svg>
