<svg width="24" height="24" viewBox="0 0 24 24" fill="none" xmlns="http://www.w3.org/2000/svg">
<g id="fast-cart">
<path id="Vector" d="M6.733 12.4385C6.5005 12.4385 6.2925 12.2755 6.2435 12.0395L4.856 5.2985C4.7605 4.8355 4.349 4.5 3.8765 4.5H3C2.724 4.5 2.5 4.276 2.5 4C2.5 3.724 2.724 3.5 3 3.5H3.8765C4.821 3.5 5.645 4.1715 5.8355 5.0965L7.223 11.8375C7.2785 12.108 7.1045 12.3725 6.834 12.428C6.8005 12.4355 6.7665 12.4385 6.733 12.4385Z" fill="url(#paint0_linear_206_6456)"/>
<path id="Vector_2" d="M18.5 22C19.3284 22 20 21.3284 20 20.5C20 19.6716 19.3284 19 18.5 19C17.6716 19 17 19.6716 17 20.5C17 21.3284 17.6716 22 18.5 22Z" fill="#5C5F61"/>
<path id="Vector_3" opacity="0.15" d="M18.5 21C18.7761 21 19 20.7761 19 20.5C19 20.2239 18.7761 20 18.5 20C18.2239 20 18 20.2239 18 20.5C18 20.7761 18.2239 21 18.5 21Z" fill="black"/>
<path id="Vector_4" d="M9.5 22C10.3284 22 11 21.3284 11 20.5C11 19.6716 10.3284 19 9.5 19C8.67157 19 8 19.6716 8 20.5C8 21.3284 8.67157 22 9.5 22Z" fill="#5C5F61"/>
<path id="Vector_5" opacity="0.15" d="M9.5 21C9.77614 21 10 20.7761 10 20.5C10 20.2239 9.77614 20 9.5 20C9.22386 20 9 20.2239 9 20.5C9 20.7761 9.22386 21 9.5 21Z" fill="black"/>
<path id="Vector_6" d="M20.5 19.5H8.5C7.397 19.5 6.5 18.603 6.5 17.5C6.5 16.397 7.397 15.5 8.5 15.5H19C19.276 15.5 19.5 15.724 19.5 16C19.5 16.276 19.276 16.5 19 16.5H8.5C7.9485 16.5 7.5 16.9485 7.5 17.5C7.5 18.0515 7.9485 18.5 8.5 18.5H20.5C20.776 18.5 21 18.724 21 19C21 19.276 20.776 19.5 20.5 19.5Z" fill="url(#paint1_linear_206_6456)"/>
<path id="Vector_7" d="M4 4C4 4.552 3.552 5 3 5C2.448 5 2 4.552 2 4C2 3.448 2.448 3 3 3C3.552 3 4 3.448 4 4Z" fill="url(#paint2_linear_206_6456)"/>
<path id="Vector_8" d="M6.845 15.687C6.935 16.159 7.3475 16.5 7.8275 16.5H20.153C20.642 16.5 21.059 16.1465 21.1395 15.6645L22.171 9.475L5.3865 8.03L6.845 15.687Z" fill="url(#paint3_linear_206_6456)"/>
<path id="Vector_9" d="M21.9555 7.458L5 6L5.3865 8.03L22.1705 9.475L22.41 8.039C22.4585 7.7495 22.248 7.4805 21.9555 7.458Z" fill="url(#paint4_linear_206_6456)"/>
<path id="Vector_10" d="M5 12C4.907 12 1.593 12 1.5 12C1.224 12 1 12.224 1 12.5C1 12.776 1.224 13 1.5 13C1.593 13 4.907 13 5 13C5.276 13 5.5 12.776 5.5 12.5C5.5 12.224 5.276 12 5 12Z" fill="#0D62AB"/>
<path id="Vector_11" d="M4.5 9.5C4.407 9.5 0.593 9.5 0.5 9.5C0.224 9.5 0 9.724 0 10C0 10.276 0.224 10.5 0.5 10.5C0.593 10.5 4.407 10.5 4.5 10.5C4.776 10.5 5 10.276 5 10C5 9.724 4.776 9.5 4.5 9.5Z" fill="#0D62AB"/>
<path id="Vector_12" d="M5.5 14.5C5.407 14.5 2.593 14.5 2.5 14.5C2.224 14.5 2 14.724 2 15C2 15.276 2.224 15.5 2.5 15.5C2.593 15.5 5.407 15.5 5.5 15.5C5.776 15.5 6 15.276 6 15C6 14.724 5.776 14.5 5.5 14.5Z" fill="#0D62AB"/>
</g>
<defs>
<linearGradient id="paint0_linear_206_6456" x1="4.8665" y1="12.4385" x2="4.8665" y2="3.5" gradientUnits="userSpaceOnUse">
<stop stop-color="#92A3B0"/>
<stop offset="0.015" stop-color="#A3B5C4"/>
<stop offset="0.032" stop-color="#AEC2D1"/>
<stop offset="0.046" stop-color="#B2C6D6"/>
</linearGradient>
<linearGradient id="paint1_linear_206_6456" x1="13.75" y1="19.5" x2="13.75" y2="15.5" gradientUnits="userSpaceOnUse">
<stop stop-color="#92A3B0"/>
<stop offset="0.015" stop-color="#A3B5C4"/>
<stop offset="0.032" stop-color="#AEC2D1"/>
<stop offset="0.046" stop-color="#B2C6D6"/>
</linearGradient>
<linearGradient id="paint2_linear_206_6456" x1="2.378" y1="3.378" x2="3.692" y2="4.692" gradientUnits="userSpaceOnUse">
<stop stop-color="#199AE0"/>
<stop offset="1" stop-color="#0782D8"/>
</linearGradient>
<linearGradient id="paint3_linear_206_6456" x1="5.3865" y1="12.265" x2="22.171" y2="12.265" gradientUnits="userSpaceOnUse">
<stop stop-color="#3079D6"/>
<stop offset="1" stop-color="#297CD2"/>
</linearGradient>
<linearGradient id="paint4_linear_206_6456" x1="5" y1="7.7375" x2="22.417" y2="7.7375" gradientUnits="userSpaceOnUse">
<stop stop-color="#42A3F2"/>
<stop offset="1" stop-color="#42A4EB"/>
</linearGradient>
</defs>
</svg>
