<svg width="24" height="24" viewBox="0 0 24 24" fill="none" xmlns="http://www.w3.org/2000/svg">
<g id="favorite-folder">
<path id="Vector" d="M22.25 20.5H1.75C1.0595 20.5 0.5 19.9405 0.5 19.25V3.75C0.5 3.0595 1.0595 2.5 1.75 2.5H7.5485C8.308 2.5 9.026 2.845 9.5005 3.4385L10.75 5H22.25C22.9405 5 23.5 5.5595 23.5 6.25V19.25C23.5 19.9405 22.9405 20.5 22.25 20.5Z" fill="url(#paint0_linear_206_6482)"/>
<path id="Vector_2" d="M0.5 18.9375V19.25C0.5 19.9405 1.0595 20.5 1.75 20.5H22.25C22.9405 20.5 23.5 19.9405 23.5 19.25V18.9375H0.5Z" fill="url(#paint1_linear_206_6482)"/>
<path id="Vector_3" d="M22.25 5.5H10.75L10.1315 5.912C9.557 6.2955 8.8815 6.5 8.1905 6.5H1.75C1.0595 6.5 0.5 7.0595 0.5 7.75V18.75C0.5 19.4405 1.0595 20 1.75 20H22.25C22.9405 20 23.5 19.4405 23.5 18.75V6.75C23.5 6.0595 22.9405 5.5 22.25 5.5Z" fill="url(#paint2_linear_206_6482)"/>
<path id="Vector_4" d="M22.25 20H1.75C1.0595 20 0.5 19.4405 0.5 18.75V8.25C0.5 7.5595 1.0595 7 1.75 7H8.378C9.069 7 9.7445 6.7955 10.3195 6.412L10.9375 6H22.25C22.9405 6 23.5 6.5595 23.5 7.25V18.75C23.5 19.4405 22.9405 20 22.25 20Z" fill="url(#paint3_radial_206_6482)"/>
<path id="Vector_5" d="M16.988 11.6105C16.9585 11.52 16.8805 11.454 16.786 11.4405L13.6335 10.984L12.224 8.139C12.1395 7.969 11.86 7.969 11.776 8.139L10.3665 10.984L7.214 11.4405C7.12 11.454 7.0415 11.52 7.012 11.6105C6.9825 11.701 7.0075 11.8005 7.0755 11.867L9.356 14.081L8.818 17.207C8.802 17.301 8.84 17.3955 8.917 17.4515C8.994 17.5075 9.0965 17.515 9.18 17.471L12 15.995L14.8195 17.4715C14.856 17.4905 14.896 17.5 14.9355 17.5C14.9875 17.5 15.039 17.484 15.0825 17.452C15.1595 17.396 15.1975 17.301 15.1815 17.2075L14.6435 14.0815L16.924 11.8675C16.9925 11.801 17.017 11.701 16.988 11.6105Z" fill="url(#paint4_linear_206_6482)"/>
</g>
<defs>
<linearGradient id="paint0_linear_206_6482" x1="-3.509" y1="4.654" x2="19.6935" y2="16.7665" gradientUnits="userSpaceOnUse">
<stop stop-color="#FAC017"/>
<stop offset="0.909" stop-color="#E1AB2D"/>
</linearGradient>
<linearGradient id="paint1_linear_206_6482" x1="8.4325" y1="19.6435" x2="22.4825" y2="19.896" gradientUnits="userSpaceOnUse">
<stop stop-color="#E3A917"/>
<stop offset="0.464" stop-color="#D79C1E"/>
</linearGradient>
<linearGradient id="paint2_linear_206_6482" x1="-2.4395" y1="6.382" x2="17.984" y2="15.389" gradientUnits="userSpaceOnUse">
<stop offset="0.34" stop-color="#FFEFB2"/>
<stop offset="0.485" stop-color="#FFEDAD"/>
<stop offset="0.652" stop-color="#FFE99F"/>
<stop offset="0.828" stop-color="#FEE289"/>
<stop offset="1" stop-color="#FED86B"/>
</linearGradient>
<radialGradient id="paint3_radial_206_6482" cx="0" cy="0" r="1" gradientUnits="userSpaceOnUse" gradientTransform="translate(18.918 24.6585) scale(26.9375)">
<stop offset="0.199" stop-color="#FEC832"/>
<stop offset="0.601" stop-color="#FCD667"/>
<stop offset="0.68" stop-color="#FDDA75"/>
<stop offset="0.886" stop-color="#FEE496"/>
<stop offset="1" stop-color="#FFE8A2"/>
</radialGradient>
<linearGradient id="paint4_linear_206_6482" x1="9.8655" y1="9.2005" x2="14.7435" y2="17.6495" gradientUnits="userSpaceOnUse">
<stop stop-color="#C78902"/>
<stop offset="1" stop-color="#986700"/>
</linearGradient>
</defs>
</svg>
