<svg width="24" height="24" viewBox="0 0 24 24" fill="none" xmlns="http://www.w3.org/2000/svg">
<g id="favorite-cart">
<path id="Vector" d="M4.733 12.4385C4.5005 12.4385 4.2925 12.2755 4.2435 12.0395L2.856 5.2985C2.7605 4.8355 2.349 4.5 1.8765 4.5H1C0.724 4.5 0.5 4.276 0.5 4C0.5 3.724 0.724 3.5 1 3.5H1.8765C2.821 3.5 3.645 4.1715 3.8355 5.0965L5.223 11.8375C5.2785 12.108 5.1045 12.3725 4.834 12.428C4.8005 12.4355 4.7665 12.4385 4.733 12.4385Z" fill="url(#paint0_linear_206_6469)"/>
<path id="Vector_2" d="M18.5 22C19.3284 22 20 21.3284 20 20.5C20 19.6716 19.3284 19 18.5 19C17.6716 19 17 19.6716 17 20.5C17 21.3284 17.6716 22 18.5 22Z" fill="#5C5F61"/>
<path id="Vector_3" opacity="0.15" d="M18.5 21C18.7761 21 19 20.7761 19 20.5C19 20.2239 18.7761 20 18.5 20C18.2239 20 18 20.2239 18 20.5C18 20.7761 18.2239 21 18.5 21Z" fill="black"/>
<path id="Vector_4" d="M7.5 22C8.32843 22 9 21.3284 9 20.5C9 19.6716 8.32843 19 7.5 19C6.67157 19 6 19.6716 6 20.5C6 21.3284 6.67157 22 7.5 22Z" fill="#5C5F61"/>
<path id="Vector_5" opacity="0.15" d="M7.5 21C7.77614 21 8 20.7761 8 20.5C8 20.2239 7.77614 20 7.5 20C7.22386 20 7 20.2239 7 20.5C7 20.7761 7.22386 21 7.5 21Z" fill="black"/>
<path id="Vector_6" d="M20.5 19.5H6.5C5.397 19.5 4.5 18.603 4.5 17.5C4.5 16.397 5.397 15.5 6.5 15.5H19C19.276 15.5 19.5 15.724 19.5 16C19.5 16.276 19.276 16.5 19 16.5H6.5C5.9485 16.5 5.5 16.9485 5.5 17.5C5.5 18.0515 5.9485 18.5 6.5 18.5H20.5C20.776 18.5 21 18.724 21 19C21 19.276 20.776 19.5 20.5 19.5Z" fill="url(#paint1_linear_206_6469)"/>
<path id="Vector_7" d="M2 4C2 4.552 1.552 5 1 5C0.448 5 0 4.552 0 4C0 3.448 0.448 3 1 3C1.552 3 2 3.448 2 4Z" fill="url(#paint2_linear_206_6469)"/>
<path id="Vector_8" d="M4.845 15.687C4.935 16.159 5.3475 16.5 5.8275 16.5H20.153C20.642 16.5 21.059 16.1465 21.1395 15.6645L22.171 9.475L3.3865 8.03L4.845 15.687Z" fill="url(#paint3_linear_206_6469)"/>
<path id="Vector_9" d="M21.9555 7.458L3 6L3.3865 8.03L22.1705 9.475L22.41 8.039C22.4585 7.7495 22.248 7.4805 21.9555 7.458Z" fill="url(#paint4_linear_206_6469)"/>
<path id="Vector_10" opacity="0.05" d="M13 15.5C12.768 15.5 12.551 15.4075 12.388 15.24L10.1415 12.9245C10.076 12.858 9.5 12.2485 9.5 11.546C9.5 10.418 10.397 9.5 11.5 9.5C12.1295 9.5 12.6655 9.8245 13 10.092C13.3345 9.8245 13.8705 9.5 14.5 9.5C15.603 9.5 16.5 10.418 16.5 11.546C16.5 12.2495 15.9225 12.8595 15.8565 12.927L13.6115 15.241C13.449 15.4075 13.232 15.5 13 15.5Z" fill="black"/>
<path id="Vector_11" opacity="0.07" d="M13 15.25C12.8365 15.25 12.6825 15.1845 12.5675 15.066L10.321 12.7505C10.299 12.728 9.75 12.164 9.75 11.546C9.75 10.556 10.535 9.75 11.5 9.75C12.1625 9.75 12.7215 10.1665 13 10.42C13.2785 10.1665 13.8375 9.75 14.5 9.75C15.465 9.75 16.25 10.5555 16.25 11.546C16.25 12.1645 15.701 12.728 15.6775 12.752L13.432 15.0665C13.3175 15.1845 13.1635 15.25 13 15.25Z" fill="black"/>
<path id="Vector_12" d="M13 10.773C13 10.773 13.6715 10 14.5 10C15.3285 10 16 10.7015 16 11.546C16 12.0695 15.5 12.5765 15.5 12.5765L13.253 14.8925C13.1135 15.0365 12.8865 15.0365 12.747 14.8925L10.5 12.576C10.5 12.576 10 12.0685 10 11.5455C10 10.7015 10.6715 10 11.5 10C12.3285 10 13 10.773 13 10.773Z" fill="url(#paint5_linear_206_6469)"/>
</g>
<defs>
<linearGradient id="paint0_linear_206_6469" x1="2.8665" y1="12.4385" x2="2.8665" y2="3.5" gradientUnits="userSpaceOnUse">
<stop stop-color="#92A3B0"/>
<stop offset="0.015" stop-color="#A3B5C4"/>
<stop offset="0.032" stop-color="#AEC2D1"/>
<stop offset="0.046" stop-color="#B2C6D6"/>
</linearGradient>
<linearGradient id="paint1_linear_206_6469" x1="12.75" y1="19.5" x2="12.75" y2="15.5" gradientUnits="userSpaceOnUse">
<stop stop-color="#92A3B0"/>
<stop offset="0.015" stop-color="#A3B5C4"/>
<stop offset="0.032" stop-color="#AEC2D1"/>
<stop offset="0.046" stop-color="#B2C6D6"/>
</linearGradient>
<linearGradient id="paint2_linear_206_6469" x1="0.378" y1="3.378" x2="1.692" y2="4.692" gradientUnits="userSpaceOnUse">
<stop stop-color="#199AE0"/>
<stop offset="1" stop-color="#0782D8"/>
</linearGradient>
<linearGradient id="paint3_linear_206_6469" x1="3.3865" y1="12.265" x2="22.171" y2="12.265" gradientUnits="userSpaceOnUse">
<stop stop-color="#3079D6"/>
<stop offset="1" stop-color="#297CD2"/>
</linearGradient>
<linearGradient id="paint4_linear_206_6469" x1="3" y1="7.7375" x2="22.417" y2="7.7375" gradientUnits="userSpaceOnUse">
<stop stop-color="#42A3F2"/>
<stop offset="1" stop-color="#42A4EB"/>
</linearGradient>
<linearGradient id="paint5_linear_206_6469" x1="11.834" y1="9.6805" x2="14.656" y2="14.0265" gradientUnits="userSpaceOnUse">
<stop stop-color="#F44F5A"/>
<stop offset="0.443" stop-color="#EE3D4A"/>
<stop offset="1" stop-color="#E52030"/>
</linearGradient>
</defs>
</svg>
