<svg width="24" height="24" viewBox="0 0 24 24" fill="none" xmlns="http://www.w3.org/2000/svg">
<g id="find-clinic">
<path id="Vector" d="M18.451 17.268C21.917 13.705 21.8385 8.00751 18.2755 4.54151C14.7125 1.07551 9.015 1.15401 5.549 4.71651C2.1505 8.21001 2.1505 13.7745 5.549 17.268C5.558 17.2775 5.564 17.288 5.573 17.2975L5.6025 17.327C5.626 17.351 5.6495 17.3745 5.6735 17.398L11.293 23.0175C11.6835 23.408 12.3165 23.408 12.707 23.0175L18.3265 17.398C18.3505 17.3745 18.374 17.351 18.3975 17.327L18.427 17.2975C18.4365 17.288 18.4425 17.277 18.451 17.268Z" fill="url(#paint0_linear_206_6516)"/>
<path id="Vector_2" opacity="0.05" d="M11.5 16.5C10.9485 16.5 10.5 16.0515 10.5 15.5V12.5H7.5C6.9485 12.5 6.5 12.0515 6.5 11.5V10.5C6.5 9.9485 6.9485 9.5 7.5 9.5H10.5V6.5C10.5 5.9485 10.9485 5.5 11.5 5.5H12.5C13.0515 5.5 13.5 5.9485 13.5 6.5V9.5H16.5C17.0515 9.5 17.5 9.9485 17.5 10.5V11.5C17.5 12.0515 17.0515 12.5 16.5 12.5H13.5V15.5C13.5 16.0515 13.0515 16.5 12.5 16.5H11.5Z" fill="black"/>
<path id="Vector_3" opacity="0.07" d="M11.5 16.25C11.0865 16.25 10.75 15.9135 10.75 15.5V12.25H7.5C7.0865 12.25 6.75 11.9135 6.75 11.5V10.5C6.75 10.0865 7.0865 9.75 7.5 9.75H10.75V6.5C10.75 6.0865 11.0865 5.75 11.5 5.75H12.5C12.9135 5.75 13.25 6.0865 13.25 6.5V9.75H16.5C16.9135 9.75 17.25 10.0865 17.25 10.5V11.5C17.25 11.9135 16.9135 12.25 16.5 12.25H13.25V15.5C13.25 15.9135 12.9135 16.25 12.5 16.25H11.5Z" fill="black"/>
<path id="Vector_4" d="M16.5 10H13V6.5C13 6.224 12.776 6 12.5 6H11.5C11.224 6 11 6.224 11 6.5V10H7.5C7.224 10 7 10.224 7 10.5V11.5C7 11.776 7.224 12 7.5 12H11V15.5C11 15.776 11.224 16 11.5 16H12.5C12.776 16 13 15.776 13 15.5V12H16.5C16.776 12 17 11.776 17 11.5V10.5C17 10.224 16.776 10 16.5 10Z" fill="white"/>
</g>
<defs>
<linearGradient id="paint0_linear_206_6516" x1="5.635" y1="4.62951" x2="18.365" y2="17.36" gradientUnits="userSpaceOnUse">
<stop stop-color="#D43A02"/>
<stop offset="1" stop-color="#B9360C"/>
</linearGradient>
</defs>
</svg>
