<svg width="24" height="24" viewBox="0 0 24 24" fill="none" xmlns="http://www.w3.org/2000/svg">
<g id="fit-columns">
<path id="Vector" d="M2 12V20.0625C2 20.5805 2.469 21 3.0475 21H20.9525C21.531 21 22 20.5805 22 20.0625V12L12 11L2 12Z" fill="url(#paint0_linear_206_6521)"/>
<path id="Vector_2" d="M7.5 8.5H6.5V21H7.5V8.5Z" fill="url(#paint1_linear_206_6521)"/>
<path id="Vector_3" d="M12.5 8.5H11.5V21H12.5V8.5Z" fill="url(#paint2_linear_206_6521)"/>
<path id="Vector_4" d="M17.5 8.5H16.5V21H17.5V8.5Z" fill="url(#paint3_linear_206_6521)"/>
<path id="Vector_5" d="M2 12V9.5C2 8.9475 2.4475 8.5 3 8.5H21C21.5525 8.5 22 8.9475 22 9.5V12H2Z" fill="url(#paint4_linear_206_6521)"/>
<path id="Vector_6" d="M7.5 8.5H6.5V12H7.5V8.5Z" fill="#0077D1"/>
<path id="Vector_7" d="M12.5 8.5H11.5V12H12.5V8.5Z" fill="#0077D1"/>
<path id="Vector_8" d="M17.5 8.5H16.5V12H17.5V8.5Z" fill="#0077D1"/>
<path id="Vector_9" d="M21.75 7.5H21.25C21.112 7.5 21 7.388 21 7.25V2.25C21 2.112 21.112 2 21.25 2H21.75C21.888 2 22 2.112 22 2.25V7.25C22 7.388 21.888 7.5 21.75 7.5Z" fill="#0A85D9"/>
<path id="Vector_10" d="M2.75 7.5H2.25C2.112 7.5 2 7.388 2 7.25V2.25C2 2.112 2.112 2 2.25 2H2.75C2.888 2 3 2.112 3 2.25V7.25C3 7.388 2.888 7.5 2.75 7.5Z" fill="#0A85D9"/>
<path id="Vector_11" d="M19.8385 4.393L18.01 2.6005C17.82 2.4145 17.5 2.549 17.5 2.815V4H6.5V2.815C6.5 2.549 6.18 2.4145 5.99 2.6005L4.1615 4.393C3.9615 4.589 3.9615 4.911 4.1615 5.107L5.99 6.8995C6.18 7.0855 6.5 6.951 6.5 6.685V5.5H17.5V6.685C17.5 6.951 17.82 7.0855 18.01 6.8995L19.8385 5.107C20.0385 4.911 20.0385 4.589 19.8385 4.393Z" fill="url(#paint5_linear_206_6521)"/>
</g>
<defs>
<linearGradient id="paint0_linear_206_6521" x1="8.30571" y1="11.1535" x2="11.2455" y2="22.4899" gradientUnits="userSpaceOnUse">
<stop stop-color="#7DD8F3"/>
<stop offset="1" stop-color="#45B0D0"/>
</linearGradient>
<linearGradient id="paint1_linear_206_6521" x1="6.86535" y1="9.04489" x2="11.9459" y2="11.2799" gradientUnits="userSpaceOnUse">
<stop stop-color="#32BDEF"/>
<stop offset="1" stop-color="#1EA2E4"/>
</linearGradient>
<linearGradient id="paint2_linear_206_6521" x1="11.8654" y1="9.04489" x2="16.9459" y2="11.2799" gradientUnits="userSpaceOnUse">
<stop stop-color="#32BDEF"/>
<stop offset="1" stop-color="#1EA2E4"/>
</linearGradient>
<linearGradient id="paint3_linear_206_6521" x1="16.8654" y1="9.04489" x2="21.9459" y2="11.2799" gradientUnits="userSpaceOnUse">
<stop stop-color="#32BDEF"/>
<stop offset="1" stop-color="#1EA2E4"/>
</linearGradient>
<linearGradient id="paint4_linear_206_6521" x1="6.43083" y1="7.97859" x2="7.03017" y2="13.0061" gradientUnits="userSpaceOnUse">
<stop stop-color="#FCFCFC"/>
<stop offset="0.95" stop-color="#C3C9CD"/>
</linearGradient>
<linearGradient id="paint5_linear_206_6521" x1="4.0115" y1="4.75" x2="19.9885" y2="4.75" gradientUnits="userSpaceOnUse">
<stop stop-color="#FFD869"/>
<stop offset="0.765625" stop-color="#F2C032"/>
<stop offset="1" stop-color="#FFD869"/>
</linearGradient>
</defs>
</svg>
