<svg width="24" height="24" viewBox="0 0 24 24" fill="none" xmlns="http://www.w3.org/2000/svg">
<g id="flipboard">
<path id="Vector" d="M12 2C11.724 2 11.5 2.224 11.5 2.5V3.5H12.5V2.5C12.5 2.224 12.276 2 12 2Z" fill="url(#paint0_linear_206_6533)"/>
<path id="Vector_2" d="M14.9995 22C14.7675 22 14.559 21.8375 14.51 21.601L12 9.468L9.4895 21.6015C9.4335 21.872 9.167 22.044 8.8985 21.99C8.628 21.934 8.454 21.669 8.51 21.399L11.51 6.899C11.5585 6.6665 11.7625 6.5 12 6.5C12.2375 6.5 12.4415 6.6665 12.4895 6.899L15.4895 21.399C15.545 21.669 15.3715 21.9335 15.101 21.99C15.0675 21.9965 15.033 22 14.9995 22Z" fill="url(#paint1_linear_206_6533)"/>
<path id="Vector_3" d="M18.5 3H5.5C5.224 3 5 3.224 5 3.5V18C5 18.276 5.224 18.5 5.5 18.5H18.5C18.776 18.5 19 18.276 19 18V3.5C19 3.224 18.776 3 18.5 3Z" fill="#0078D4"/>
<path id="Vector_4" d="M4.99 3.5C4.8855 10.574 2.6255 14.7675 1.7985 16.0635C1.6775 16.2535 1.814 16.5 2.0395 16.5H15.2745C15.4255 16.5 15.566 16.4325 15.662 16.316C16.337 15.497 18.8955 11.8435 18.9955 3.5H4.99Z" fill="url(#paint2_linear_206_6533)"/>
<path id="Vector_5" d="M19 3H5C4.724 3 4.5 3.224 4.5 3.5C4.5 3.776 4.724 4 5 4H19C19.276 4 19.5 3.776 19.5 3.5C19.5 3.224 19.276 3 19 3Z" fill="url(#paint3_linear_206_6533)"/>
</g>
<defs>
<linearGradient id="paint0_linear_206_6533" x1="11.8471" y1="2.0656" x2="12.2053" y2="3.61764" gradientUnits="userSpaceOnUse">
<stop stop-color="#0D61A9"/>
<stop offset="1" stop-color="#16528C"/>
</linearGradient>
<linearGradient id="paint1_linear_206_6533" x1="8.5" y1="14.25" x2="15.5" y2="14.25" gradientUnits="userSpaceOnUse">
<stop stop-color="#0F5695"/>
<stop offset="0.963" stop-color="#134575"/>
</linearGradient>
<linearGradient id="paint2_linear_206_6533" x1="10.3745" y1="15.974" x2="10.3745" y2="3.4115" gradientUnits="userSpaceOnUse">
<stop stop-color="#33BEF0"/>
<stop offset="1" stop-color="#0A85D9"/>
</linearGradient>
<linearGradient id="paint3_linear_206_6533" x1="9.22929" y1="3.01535" x2="9.27107" y2="4.22379" gradientUnits="userSpaceOnUse">
<stop stop-color="#7DD8F3"/>
<stop offset="1" stop-color="#45B0D0"/>
</linearGradient>
</defs>
</svg>
