<svg width="24" height="24" viewBox="0 0 24 24" fill="none" xmlns="http://www.w3.org/2000/svg">
<g id="folded-booklet">
<path id="Vector" d="M8 3H19.5C20.0525 3 20.5 3.4475 20.5 4V16C20.5 16.5525 20.0525 17 19.5 17H7.5V3.5C7.5 3.224 7.724 3 8 3Z" fill="url(#paint0_linear_206_6575)"/>
<path id="Vector_2" d="M7.5 3.6095C7.5 3.839 7.656 4.039 7.8785 4.0945L15.121 5.905C15.344 5.961 15.5 6.161 15.5 6.3905V7.5L7.5 8V3.6095Z" fill="url(#paint1_linear_206_6575)"/>
<path id="Vector_3" d="M3 7H15C15.276 7 15.5 6.776 15.5 6.5V20.5C15.5 20.776 15.276 21 15 21H3C2.724 21 2.5 20.776 2.5 20.5V7.5C2.5 7.224 2.724 7 3 7Z" fill="url(#paint2_linear_206_6575)"/>
<path id="Vector_4" d="M13 9H5C4.724 9 4.5 9.224 4.5 9.5V14.5C4.5 15.3285 5.1715 16 6 16H12.274C12.951 16 13.5 15.451 13.5 14.774V9.5C13.5 9.224 13.276 9 13 9Z" fill="#45B0D0"/>
<path id="Vector_5" d="M13.5 14.744L10.81 12.054C10.521 11.765 10.0545 11.759 9.758 12.04L7.5 14.1785V16H13C13.276 16 13.5 15.776 13.5 15.5V14.744Z" fill="#436DCD"/>
<path id="Vector_6" d="M12.5 16L7.8605 11.3605C7.508 11.008 6.939 11.0005 6.577 11.343L4.5 13.311V15.5C4.5 15.776 4.724 16 5 16H12.5Z" fill="url(#paint3_linear_206_6575)"/>
<path id="Vector_7" d="M11.75 11.5C12.1642 11.5 12.5 11.1642 12.5 10.75C12.5 10.3358 12.1642 10 11.75 10C11.3358 10 11 10.3358 11 10.75C11 11.1642 11.3358 11.5 11.75 11.5Z" fill="white"/>
<path id="Vector_8" d="M13.25 18.5H4.75C4.612 18.5 4.5 18.388 4.5 18.25V17.75C4.5 17.612 4.612 17.5 4.75 17.5H13.25C13.388 17.5 13.5 17.612 13.5 17.75V18.25C13.5 18.388 13.388 18.5 13.25 18.5Z" fill="url(#paint4_linear_206_6575)"/>
</g>
<defs>
<linearGradient id="paint0_linear_206_6575" x1="12.2496" y1="3.61027" x2="15.1612" y2="18.4778" gradientUnits="userSpaceOnUse">
<stop stop-color="#32BDEF"/>
<stop offset="1" stop-color="#1EA2E4"/>
</linearGradient>
<linearGradient id="paint1_linear_206_6575" x1="9.27233" y1="2.95543" x2="11.3704" y2="8.56735" gradientUnits="userSpaceOnUse">
<stop stop-color="#FCFCFC"/>
<stop offset="0.95" stop-color="#C3C9CD"/>
</linearGradient>
<linearGradient id="paint2_linear_206_6575" x1="6.59871" y1="6.72262" x2="14.2027" y2="19.867" gradientUnits="userSpaceOnUse">
<stop stop-color="#7DD8F3"/>
<stop offset="1" stop-color="#45B0D0"/>
</linearGradient>
<linearGradient id="paint3_linear_206_6575" x1="8.5" y1="11.08" x2="8.5" y2="16.0855" gradientUnits="userSpaceOnUse">
<stop stop-color="#124787"/>
<stop offset="0.923" stop-color="#173B75"/>
<stop offset="1" stop-color="#173A73"/>
</linearGradient>
<linearGradient id="paint4_linear_206_6575" x1="6.49387" y1="17.351" x2="6.60352" y2="18.7996" gradientUnits="userSpaceOnUse">
<stop stop-color="#FCFCFC"/>
<stop offset="0.95" stop-color="#C3C9CD"/>
</linearGradient>
</defs>
</svg>
