<svg width="24" height="24" viewBox="0 0 24 24" fill="none" xmlns="http://www.w3.org/2000/svg">
<g id="folder-tree">
<path id="Vector" d="M14.5 12V11H6.5V6.5H5.5V19.5C5.5 19.776 5.724 20 6 20H14.5V19H6.5V12H14.5Z" fill="url(#paint0_linear_206_6587)"/>
<path id="Vector_2" d="M9.25 3.5H6L5.6465 3.1465C5.5525 3.0525 5.4255 3 5.293 3H3C2.724 3 2.5 3.224 2.5 3.5V7.75C2.5 8.1625 2.8375 8.5 3.25 8.5H9.25C9.6625 8.5 10 8.1625 10 7.75V4.25C10 3.8375 9.6625 3.5 9.25 3.5Z" fill="url(#paint1_linear_206_6587)"/>
<path id="Vector_3" d="M9.25 3.5L6 3.489L5.5995 3.865C5.5065 3.9515 5.3845 4 5.257 4H3C2.724 4 2.5 4.224 2.5 4.5V7.75C2.5 8.1625 2.8375 8.5 3.25 8.5H9.25C9.6625 8.5 10 8.1625 10 7.75V4.25C10 3.85 9.65 3.5 9.25 3.5Z" fill="url(#paint2_linear_206_6587)"/>
<path id="Vector_4" d="M21.25 9H18L17.6465 8.6465C17.5525 8.5525 17.4255 8.5 17.293 8.5H15C14.724 8.5 14.5 8.724 14.5 9V13.25C14.5 13.6625 14.8375 14 15.25 14H21.25C21.6625 14 22 13.6625 22 13.25V9.75C22 9.3375 21.6625 9 21.25 9Z" fill="url(#paint3_linear_206_6587)"/>
<path id="Vector_5" d="M21.25 9L18 8.989L17.5995 9.365C17.5065 9.4515 17.3845 9.5 17.257 9.5H15C14.724 9.5 14.5 9.724 14.5 10V13.25C14.5 13.6625 14.8375 14 15.25 14H21.25C21.6625 14 22 13.6625 22 13.25V9.75C22 9.35 21.65 9 21.25 9Z" fill="url(#paint4_linear_206_6587)"/>
<path id="Vector_6" d="M21.25 17H18L17.6465 16.6465C17.5525 16.5525 17.4255 16.5 17.293 16.5H15C14.724 16.5 14.5 16.724 14.5 17V21.25C14.5 21.6625 14.8375 22 15.25 22H21.25C21.6625 22 22 21.6625 22 21.25V17.75C22 17.3375 21.6625 17 21.25 17Z" fill="url(#paint5_linear_206_6587)"/>
<path id="Vector_7" d="M21.25 17L18 16.989L17.5995 17.365C17.5065 17.4515 17.3845 17.5 17.257 17.5H15C14.724 17.5 14.5 17.724 14.5 18V21.25C14.5 21.6625 14.8375 22 15.25 22H21.25C21.6625 22 22 21.6625 22 21.25V17.75C22 17.35 21.65 17 21.25 17Z" fill="url(#paint6_linear_206_6587)"/>
</g>
<defs>
<linearGradient id="paint0_linear_206_6587" x1="1.792" y1="13.25" x2="14.6435" y2="13.25" gradientUnits="userSpaceOnUse">
<stop stop-color="#A1AAB3"/>
<stop offset="1" stop-color="#8F979E"/>
</linearGradient>
<linearGradient id="paint1_linear_206_6587" x1="2.5" y1="5.75" x2="10" y2="5.75" gradientUnits="userSpaceOnUse">
<stop stop-color="#EBA600"/>
<stop offset="1" stop-color="#C28200"/>
</linearGradient>
<linearGradient id="paint2_linear_206_6587" x1="5.7525" y1="3.407" x2="6.6795" y2="8.2445" gradientUnits="userSpaceOnUse">
<stop stop-color="#FFD869"/>
<stop offset="1" stop-color="#FEC52B"/>
</linearGradient>
<linearGradient id="paint3_linear_206_6587" x1="14.5" y1="11.25" x2="22" y2="11.25" gradientUnits="userSpaceOnUse">
<stop stop-color="#EBA600"/>
<stop offset="1" stop-color="#C28200"/>
</linearGradient>
<linearGradient id="paint4_linear_206_6587" x1="17.7525" y1="8.907" x2="18.6795" y2="13.7445" gradientUnits="userSpaceOnUse">
<stop stop-color="#FFD869"/>
<stop offset="1" stop-color="#FEC52B"/>
</linearGradient>
<linearGradient id="paint5_linear_206_6587" x1="14.5" y1="19.25" x2="22" y2="19.25" gradientUnits="userSpaceOnUse">
<stop stop-color="#EBA600"/>
<stop offset="1" stop-color="#C28200"/>
</linearGradient>
<linearGradient id="paint6_linear_206_6587" x1="17.7525" y1="16.907" x2="18.6795" y2="21.7445" gradientUnits="userSpaceOnUse">
<stop stop-color="#FFD869"/>
<stop offset="1" stop-color="#FEC52B"/>
</linearGradient>
</defs>
</svg>
