<svg width="24" height="24" viewBox="0 0 24 24" fill="none" xmlns="http://www.w3.org/2000/svg">
<g id="font-style-formatting">
<path id="Vector" d="M13.421 14.6605L8.957 2.3295C8.8855 2.132 8.6975 2 8.487 2H5.3795C5.1705 2 4.9835 2.13 4.9105 2.326L0.0309982 15.495C-0.0600018 15.74 0.121498 16 0.382498 16H2.958C3.175 16 3.3675 15.86 3.434 15.6535L4.29 12.9985H9.4315L10.2965 15.655C10.3635 15.861 10.5555 16 10.772 16H12.4815C13.174 16 13.657 15.312 13.421 14.6605ZM5 10.5L6.8395 4.8705L8.6705 10.5H5Z" fill="url(#paint0_linear_206_6601)"/>
<path id="Vector_2" d="M23.935 18.499L18.723 3.8325C18.652 3.633 18.4635 3.5 18.252 3.5H14.8185C14.6085 3.5 14.4205 3.6315 14.3485 3.829L9.0135 18.496C8.9245 18.741 9.1055 19 9.366 19H12.2445C12.4625 19 12.6555 18.8585 12.721 18.6505L13.7145 15.5H19.196L20.2 18.652C20.266 18.8595 20.459 19 20.676 19H23.5815C23.8405 19 24.0215 18.7435 23.935 18.499ZM14.483 12.7575L16.433 6.678L18.374 12.7575H14.483Z" fill="url(#paint1_linear_206_6601)"/>
<path id="Vector_3" d="M23.5 20.5H9.5C9.224 20.5 9 20.724 9 21V22C9 22.2765 9.224 22.5 9.5 22.5H23.5C23.776 22.5 24 22.2765 24 22V21C24 20.724 23.776 20.5 23.5 20.5Z" fill="url(#paint2_linear_206_6601)"/>
</g>
<defs>
<linearGradient id="paint0_linear_206_6601" x1="4.93007" y1="2.61027" x2="7.7464" y2="17.5159" gradientUnits="userSpaceOnUse">
<stop stop-color="#32BDEF"/>
<stop offset="1" stop-color="#1EA2E4"/>
</linearGradient>
<linearGradient id="paint1_linear_206_6601" x1="16.4737" y1="3.46749" x2="16.4737" y2="18.944" gradientUnits="userSpaceOnUse">
<stop stop-color="#2AA4F4"/>
<stop offset="1" stop-color="#007AD9"/>
</linearGradient>
<linearGradient id="paint2_linear_206_6601" x1="14.8685" y1="17.9465" x2="21.012" y2="31.3265" gradientUnits="userSpaceOnUse">
<stop stop-color="#FED100"/>
<stop offset="1" stop-color="#E36001"/>
</linearGradient>
</defs>
</svg>
