<svg width="24" height="24" viewBox="0 0 24 24" fill="none" xmlns="http://www.w3.org/2000/svg">
<g id="formula-fx">
<path id="Vector" d="M12.6815 4.9865C12.495 4.882 12.2875 4.7905 12.0605 4.7125C11.8325 4.634 11.5885 4.595 11.3275 4.595C10.902 4.595 10.542 4.7315 10.2475 5.0035C9.9525 5.276 9.7455 5.6545 9.6265 6.1395L9.2685 7.673H11.2605L10.6895 10.0795H8.742L7.2425 16.6045C7.048 17.485 6.8095 18.2295 6.526 18.8375C6.242 19.445 5.916 19.9375 5.5465 20.315C5.177 20.6915 4.761 20.962 4.2985 21.126C3.8355 21.29 3.3285 21.372 2.7765 21.372C2.478 21.372 2.1555 21.3425 1.8085 21.2825C1.4615 21.2225 1.172 21.148 0.941 21.0585L1.3105 18.697C1.4745 18.7865 1.633 18.8575 1.786 18.9095C1.9385 18.9615 2.101 18.988 2.273 18.988C2.467 18.988 2.648 18.9565 2.816 18.8935C2.984 18.8295 3.1405 18.714 3.286 18.5465C3.4315 18.3785 3.5675 18.1455 3.6945 17.847C3.821 17.5485 3.9365 17.1605 4.0415 16.683L5.53 10.0795H4.0415L4.6125 7.673H6.0565L6.448 6.0165C6.7235 4.748 7.2555 3.778 8.043 3.1065C8.83 2.435 9.817 2.099 11.0035 2.099C11.399 2.099 11.7925 2.138 12.1845 2.2165C12.5765 2.295 12.91 2.394 13.186 2.513L12.6815 4.9865ZM18.9775 12.73L21.2395 17.829H18.829C18.1885 17.829 17.6185 17.422 17.4105 16.816L16.8455 15.1705C16.792 15.0185 16.7425 14.855 16.6965 14.6795C16.65 14.504 16.6075 14.334 16.568 14.1685H16.518C16.419 14.334 16.3195 14.5025 16.2205 14.6745C16.1215 14.8465 16.0185 14.9985 15.9125 15.131L13.899 17.8295H10.2085L14.732 12.691L12.5595 7.6715H14.947C15.604 7.6715 16.184 8.099 16.3795 8.726L16.885 10.35C16.9505 10.522 17.007 10.709 17.0535 10.9105C17.1 11.112 17.133 11.279 17.1525 11.4115H17.192C17.2715 11.266 17.377 11.096 17.5095 10.9005C17.642 10.7055 17.761 10.535 17.8665 10.3895L19.8505 7.6715H23.4115L18.9775 12.73Z" fill="url(#paint0_linear_206_6617)"/>
</g>
<defs>
<linearGradient id="paint0_linear_206_6617" x1="12.1763" y1="2.05857" x2="12.1763" y2="21.3024" gradientUnits="userSpaceOnUse">
<stop stop-color="#2AA4F4"/>
<stop offset="1" stop-color="#007AD9"/>
</linearGradient>
</defs>
</svg>
