<svg width="24" height="24" viewBox="0 0 24 24" fill="none" xmlns="http://www.w3.org/2000/svg">
<g id="form">
<path id="Vector" d="M21 4H3C2.45 4 2 4.45 2 5V19C2 19.55 2.45 20 3 20H21C21.55 20 22 19.55 22 19V5C22 4.45 21.55 4 21 4Z" fill="url(#paint0_linear_206_6605)"/>
<path id="Vector_2" d="M10.25 8.5H19.75C19.888 8.5 20 8.388 20 8.25V6.75C20 6.612 19.888 6.5 19.75 6.5H10.25C10.112 6.5 10 6.612 10 6.75V8.25C10 8.388 10.112 8.5 10.25 8.5Z" fill="url(#paint1_linear_206_6605)"/>
<path id="Vector_3" d="M8.5 8H4.5C4.224 8 4 7.776 4 7.5C4 7.224 4.224 7 4.5 7H8.5C8.776 7 9 7.224 9 7.5C9 7.776 8.776 8 8.5 8Z" fill="url(#paint2_linear_206_6605)"/>
<path id="Vector_4" d="M10.25 11.5H19.75C19.888 11.5 20 11.388 20 11.25V9.75C20 9.612 19.888 9.5 19.75 9.5H10.25C10.112 9.5 10 9.612 10 9.75V11.25C10 11.388 10.112 11.5 10.25 11.5Z" fill="url(#paint3_linear_206_6605)"/>
<path id="Vector_5" d="M8.5 11H4.5C4.224 11 4 10.776 4 10.5C4 10.224 4.224 10 4.5 10H8.5C8.776 10 9 10.224 9 10.5C9 10.776 8.776 11 8.5 11Z" fill="url(#paint4_linear_206_6605)"/>
<path id="Vector_6" d="M10.25 18H11.75C11.888 18 12 17.888 12 17.75V16.25C12 16.112 11.888 16 11.75 16H10.25C10.112 16 10 16.112 10 16.25V17.75C10 17.888 10.112 18 10.25 18Z" fill="url(#paint5_linear_206_6605)"/>
<path id="Vector_7" d="M19.5 14.5H13.5C13.224 14.5 13 14.276 13 14C13 13.724 13.224 13.5 13.5 13.5H19.5C19.776 13.5 20 13.724 20 14C20 14.276 19.776 14.5 19.5 14.5Z" fill="url(#paint6_linear_206_6605)"/>
<path id="Vector_8" d="M19.5 17.5H13.5C13.224 17.5 13 17.276 13 17C13 16.724 13.224 16.5 13.5 16.5H19.5C19.776 16.5 20 16.724 20 17C20 17.276 19.776 17.5 19.5 17.5Z" fill="url(#paint7_linear_206_6605)"/>
<path id="Vector_9" d="M11.5 16.5H10.5V17.5H11.5V16.5Z" fill="url(#paint8_linear_206_6605)"/>
<path id="Vector_10" d="M10.25 15H11.75C11.888 15 12 14.888 12 14.75V13.25C12 13.112 11.888 13 11.75 13H10.25C10.112 13 10 13.112 10 13.25V14.75C10 14.888 10.112 15 10.25 15Z" fill="url(#paint9_linear_206_6605)"/>
<path id="Vector_11" d="M11.5 13.5H10.5V14.5H11.5V13.5Z" fill="url(#paint10_linear_206_6605)"/>
</g>
<defs>
<linearGradient id="paint0_linear_206_6605" x1="9.0505" y1="3.8885" x2="14.9255" y2="20.0455" gradientUnits="userSpaceOnUse">
<stop stop-color="#0077D2"/>
<stop offset="1" stop-color="#0B59A2"/>
</linearGradient>
<linearGradient id="paint1_linear_206_6605" x1="15" y1="8.482" x2="15" y2="6.457" gradientUnits="userSpaceOnUse">
<stop stop-color="#7DD8F3"/>
<stop offset="0.377" stop-color="#7BD6F1"/>
<stop offset="0.596" stop-color="#72D0EC"/>
<stop offset="0.775" stop-color="#64C6E4"/>
<stop offset="0.931" stop-color="#50B8D7"/>
<stop offset="1" stop-color="#45B0D0"/>
</linearGradient>
<linearGradient id="paint2_linear_206_6605" x1="4" y1="7.5" x2="9" y2="7.5" gradientUnits="userSpaceOnUse">
<stop stop-color="#11408A"/>
<stop offset="1" stop-color="#103F8F"/>
</linearGradient>
<linearGradient id="paint3_linear_206_6605" x1="15" y1="11.509" x2="15" y2="9.4665" gradientUnits="userSpaceOnUse">
<stop stop-color="#7DD8F3"/>
<stop offset="0.377" stop-color="#7BD6F1"/>
<stop offset="0.596" stop-color="#72D0EC"/>
<stop offset="0.775" stop-color="#64C6E4"/>
<stop offset="0.931" stop-color="#50B8D7"/>
<stop offset="1" stop-color="#45B0D0"/>
</linearGradient>
<linearGradient id="paint4_linear_206_6605" x1="4" y1="10.5" x2="9" y2="10.5" gradientUnits="userSpaceOnUse">
<stop stop-color="#11408A"/>
<stop offset="1" stop-color="#103F8F"/>
</linearGradient>
<linearGradient id="paint5_linear_206_6605" x1="11" y1="18.009" x2="11" y2="15.9665" gradientUnits="userSpaceOnUse">
<stop stop-color="#7DD8F3"/>
<stop offset="0.377" stop-color="#7BD6F1"/>
<stop offset="0.596" stop-color="#72D0EC"/>
<stop offset="0.775" stop-color="#64C6E4"/>
<stop offset="0.931" stop-color="#50B8D7"/>
<stop offset="1" stop-color="#45B0D0"/>
</linearGradient>
<linearGradient id="paint6_linear_206_6605" x1="13" y1="14" x2="20" y2="14" gradientUnits="userSpaceOnUse">
<stop stop-color="#11408A"/>
<stop offset="1" stop-color="#103F8F"/>
</linearGradient>
<linearGradient id="paint7_linear_206_6605" x1="13" y1="17" x2="20" y2="17" gradientUnits="userSpaceOnUse">
<stop stop-color="#11408A"/>
<stop offset="1" stop-color="#103F8F"/>
</linearGradient>
<linearGradient id="paint8_linear_206_6605" x1="11" y1="17.5045" x2="11" y2="16.4835" gradientUnits="userSpaceOnUse">
<stop stop-color="#11408A"/>
<stop offset="1" stop-color="#103F8F"/>
</linearGradient>
<linearGradient id="paint9_linear_206_6605" x1="11" y1="15.009" x2="11" y2="12.9665" gradientUnits="userSpaceOnUse">
<stop stop-color="#7DD8F3"/>
<stop offset="0.377" stop-color="#7BD6F1"/>
<stop offset="0.596" stop-color="#72D0EC"/>
<stop offset="0.775" stop-color="#64C6E4"/>
<stop offset="0.931" stop-color="#50B8D7"/>
<stop offset="1" stop-color="#45B0D0"/>
</linearGradient>
<linearGradient id="paint10_linear_206_6605" x1="11" y1="14.5045" x2="11" y2="13.4835" gradientUnits="userSpaceOnUse">
<stop stop-color="#11408A"/>
<stop offset="1" stop-color="#103F8F"/>
</linearGradient>
</defs>
</svg>
