<svg width="24" height="24" viewBox="0 0 24 24" fill="none" xmlns="http://www.w3.org/2000/svg">
<g id="Frame 1">
<g id="networking-manager">
<path id="Vector" d="M11.8399 8.13246L11.1616 8.86725L17.6615 14.8675L18.3398 14.1327L11.8399 8.13246Z" fill="#64717C"/>
<path id="Vector_2" d="M12.1617 8.13336L5.66078 14.1325L6.33895 14.8674L12.8399 8.86827L12.1617 8.13336Z" fill="#64717C"/>
<path id="Vector_3" d="M5.5 10V4H18.5V10C18.5 10.55 18.05 11 17.5 11H6.5C5.95 11 5.5 10.55 5.5 10Z" fill="url(#paint0_linear_207_5440)"/>
<path id="Vector_4" d="M18.5 3V4H5.5V3C5.5 2.45 5.95 2 6.5 2H17.5C18.05 2 18.5 2.45 18.5 3Z" fill="url(#paint1_linear_207_5440)"/>
<path id="Vector_5" d="M7.75 6.5H7.25C7.112 6.5 7 6.388 7 6.25V5.75C7 5.612 7.112 5.5 7.25 5.5H7.75C7.888 5.5 8 5.612 8 5.75V6.25C8 6.388 7.888 6.5 7.75 6.5Z" fill="url(#paint2_linear_207_5440)"/>
<path id="Vector_6" d="M16.75 6.5H9.25C9.112 6.5 9 6.388 9 6.25V5.75C9 5.612 9.112 5.5 9.25 5.5H16.75C16.888 5.5 17 5.612 17 5.75V6.25C17 6.388 16.888 6.5 16.75 6.5Z" fill="#195BBC"/>
<path id="Vector_7" d="M7.75 9H7.25C7.112 9 7 8.888 7 8.75V8.25C7 8.112 7.112 8 7.25 8H7.75C7.888 8 8 8.112 8 8.25V8.75C8 8.888 7.888 9 7.75 9Z" fill="url(#paint3_linear_207_5440)"/>
<path id="Vector_8" d="M16.75 9H9.25C9.112 9 9 8.888 9 8.75V8.25C9 8.112 9.112 8 9.25 8H16.75C16.888 8 17 8.112 17 8.25V8.75C17 8.888 16.888 9 16.75 9Z" fill="#195BBC"/>
<path id="Vector_9" d="M19.75 20H18.5V18.5H16.5V20H15.25C15.112 20 15 20.112 15 20.25V20.75C15 20.888 15.112 21 15.25 21H19.75C19.888 21 20 20.888 20 20.75V20.25C20 20.112 19.888 20 19.75 20Z" fill="url(#paint4_linear_207_5440)"/>
<path id="Vector_10" d="M21 20H14C13.724 20 13.5 19.776 13.5 19.5V14.5C13.5 14.224 13.724 14 14 14H21C21.276 14 21.5 14.224 21.5 14.5V19.5C21.5 19.776 21.276 20 21 20Z" fill="url(#paint5_linear_207_5440)"/>
<path id="Vector_11" d="M8.75 20H7.5V18.5H5.5V20H4.25C4.112 20 4 20.112 4 20.25V20.75C4 20.888 4.112 21 4.25 21H8.75C8.888 21 9 20.888 9 20.75V20.25C9 20.112 8.888 20 8.75 20Z" fill="url(#paint6_linear_207_5440)"/>
<path id="Vector_12" d="M10 20H3C2.724 20 2.5 19.776 2.5 19.5V14.5C2.5 14.224 2.724 14 3 14H10C10.276 14 10.5 14.224 10.5 14.5V19.5C10.5 19.776 10.276 20 10 20Z" fill="url(#paint7_linear_207_5440)"/>
</g>
</g>
<defs>
<linearGradient id="paint0_linear_207_5440" x1="9.6135" y1="2.635" x2="13.818" y2="10.5435" gradientUnits="userSpaceOnUse">
<stop stop-color="#7DD8F3"/>
<stop offset="1" stop-color="#45B0D0"/>
</linearGradient>
<linearGradient id="paint1_linear_207_5440" x1="5.24" y1="1.954" x2="19.2615" y2="4.2815" gradientUnits="userSpaceOnUse">
<stop stop-color="#0077D2"/>
<stop offset="1" stop-color="#0B59A2"/>
</linearGradient>
<linearGradient id="paint2_linear_207_5440" x1="7.0535" y1="6.446" x2="7.907" y2="5.5925" gradientUnits="userSpaceOnUse">
<stop offset="0.003" stop-color="#42A3F2"/>
<stop offset="1" stop-color="#42A4EB"/>
</linearGradient>
<linearGradient id="paint3_linear_207_5440" x1="7.0535" y1="8.9465" x2="7.907" y2="8.093" gradientUnits="userSpaceOnUse">
<stop offset="0.003" stop-color="#42A3F2"/>
<stop offset="1" stop-color="#42A4EB"/>
</linearGradient>
<linearGradient id="paint4_linear_207_5440" x1="17.5" y1="18.4945" x2="17.5" y2="21.005" gradientUnits="userSpaceOnUse">
<stop stop-color="#484B4F"/>
<stop offset="0.374" stop-color="#656D75"/>
<stop offset="0.597" stop-color="#727D86"/>
<stop offset="0.604" stop-color="#86949E"/>
</linearGradient>
<linearGradient id="paint5_linear_207_5440" x1="16.0223" y1="14.0921" x2="18.4749" y2="20.3973" gradientUnits="userSpaceOnUse">
<stop stop-color="#7DD8F3"/>
<stop offset="1" stop-color="#45B0D0"/>
</linearGradient>
<linearGradient id="paint6_linear_207_5440" x1="6.5" y1="18.4945" x2="6.5" y2="21.005" gradientUnits="userSpaceOnUse">
<stop stop-color="#484B4F"/>
<stop offset="0.374" stop-color="#656D75"/>
<stop offset="0.597" stop-color="#727D86"/>
<stop offset="0.604" stop-color="#86949E"/>
</linearGradient>
<linearGradient id="paint7_linear_207_5440" x1="5.02229" y1="14.0921" x2="7.47495" y2="20.3973" gradientUnits="userSpaceOnUse">
<stop stop-color="#7DD8F3"/>
<stop offset="1" stop-color="#45B0D0"/>
</linearGradient>
</defs>
</svg>
