<svg width="24" height="24" viewBox="0 0 24 24" fill="none" xmlns="http://www.w3.org/2000/svg">
<g id="gas-station">
<path id="Vector" d="M20.75 19C19.785 19 19 18.215 19 17.25V13.5H17C16.7235 13.5 16.5 13.2765 16.5 13C16.5 12.7235 16.7235 12.5 17 12.5H19C19.5515 12.5 20 12.9485 20 13.5V17.25C20 17.6635 20.3365 18 20.75 18C21.1635 18 21.5 17.6635 21.5 17.25V9.6845L20.184 8.1465L17.816 7.209C17.559 7.1075 17.4335 6.817 17.535 6.56C17.6365 6.3025 17.928 6.178 18.184 6.279L20.6675 7.262C20.743 7.292 20.8105 7.34 20.8635 7.4015L22.38 9.1745C22.4575 9.2655 22.5 9.381 22.5 9.5V17.25C22.5 18.215 21.715 19 20.75 19Z" fill="url(#paint0_linear_206_6636)"/>
<path id="Vector_2" d="M17.5 21.5H5.5V4.5C5.5 3.4 6.4 2.5 7.5 2.5H15.5C16.6 2.5 17.5 3.4 17.5 4.5V21.5Z" fill="#FAD500"/>
<path id="Vector_3" d="M15.5 4H7.5C7.2 4 7 4.2 7 4.5V9.5C7 9.8 7.2 10 7.5 10H15.5C15.8 10 16 9.8 16 9.5V4.5C16 4.2 15.8 4 15.5 4Z" fill="#B2EBF2"/>
<path id="Vector_4" d="M15.5 4H7.5C7.2 4 7 4.2 7 4.5V9.5C7 9.8 7.2 10 7.5 10H15.5C15.8 10 16 9.8 16 9.5V4.5C16 4.2 15.8 4 15.5 4Z" fill="#1B9DE2"/>
<path id="Vector_5" d="M11.386 9.09199L13.8325 5.75849C13.9255 5.63149 14.104 5.60399 14.231 5.69749C14.347 5.78299 14.38 5.93949 14.313 6.06299L12.345 9.69999C12.1955 9.97649 11.85 10.079 11.574 9.92949C11.2975 9.77999 11.195 9.43449 11.3445 9.15849C11.3565 9.13549 11.372 9.11149 11.386 9.09199Z" fill="url(#paint1_linear_206_6636)"/>
<path id="Vector_6" d="M12.5 10H10.5C10.5 9.45 10.95 9 11.5 9C12.05 9 12.5 9.45 12.5 10Z" fill="url(#paint2_linear_206_6636)"/>
<path id="Vector_7" d="M17.5 19.5H5.5C4.9475 19.5 4.5 19.9475 4.5 20.5V21.5H18.5V20.5C18.5 19.9475 18.0525 19.5 17.5 19.5Z" fill="#EDBE00"/>
<path id="Vector_8" d="M20.793 7H20V10C20 10.276 20.224 10.5 20.5 10.5H22.5V8.914C22.5 8.649 22.3945 8.3945 22.207 8.207L21.1465 7.1465C21.0525 7.0525 20.9255 7 20.793 7Z" fill="#42A5F5"/>
</g>
<defs>
<linearGradient id="paint0_linear_206_6636" x1="16.5" y1="12.622" x2="22.5" y2="12.622" gradientUnits="userSpaceOnUse">
<stop stop-color="#92A3B0"/>
<stop offset="0.015" stop-color="#A3B5C4"/>
<stop offset="0.032" stop-color="#AEC2D1"/>
<stop offset="0.046" stop-color="#B2C6D6"/>
</linearGradient>
<linearGradient id="paint1_linear_206_6636" x1="12.3421" y1="5.8325" x2="13.3308" y2="10.3641" gradientUnits="userSpaceOnUse">
<stop stop-color="#0D61A9"/>
<stop offset="1" stop-color="#16528C"/>
</linearGradient>
<linearGradient id="paint2_linear_206_6636" x1="11.1306" y1="9.01535" x2="11.4246" y2="10.149" gradientUnits="userSpaceOnUse">
<stop stop-color="#7DD8F3"/>
<stop offset="1" stop-color="#45B0D0"/>
</linearGradient>
</defs>
</svg>
