<svg width="24" height="24" viewBox="0 0 24 24" fill="none" xmlns="http://www.w3.org/2000/svg">
<g id="general-ledger">
<path id="Vector" d="M21 3.5H12V20.5H21C21.5525 20.5 22 20.0525 22 19.5V4.5C22 3.9475 21.5525 3.5 21 3.5Z" fill="#0078D4"/>
<path id="Vector_2" d="M12 3.5H3C2.4475 3.5 2 3.9475 2 4.5V19.5C2 20.0525 2.4475 20.5 3 20.5H12V3.5Z" fill="#1B9DE2"/>
<path id="Vector_3" d="M10.5 19.5C10.5 20.3285 11.1715 21 12 21V18C11.1715 18 10.5 18.6715 10.5 19.5Z" fill="#1B9DE2"/>
<path id="Vector_4" d="M13.5 19.5C13.5 18.6715 12.8285 18 12 18V21C12.8285 21 13.5 20.3285 13.5 19.5Z" fill="#0078D4"/>
<path id="Vector_5" d="M12 3.5H3.5C3.224 3.5 3 3.724 3 4V19C3 19.276 3.224 19.5 3.5 19.5H12V3.5Z" fill="white"/>
<path id="Vector_6" d="M20.5 3.5H12V19.5H20.5C20.776 19.5 21 19.276 21 19V4C21 3.724 20.776 3.5 20.5 3.5Z" fill="#F0F0F0"/>
<path id="Vector_7" d="M10.25 9.5H4.75C4.612 9.5 4.5 9.388 4.5 9.25V8.75C4.5 8.612 4.612 8.5 4.75 8.5H10.25C10.388 8.5 10.5 8.612 10.5 8.75V9.25C10.5 9.388 10.388 9.5 10.25 9.5Z" fill="url(#paint0_linear_206_6645)"/>
<path id="Vector_8" d="M10.25 11.5H4.75C4.612 11.5 4.5 11.388 4.5 11.25V10.75C4.5 10.612 4.612 10.5 4.75 10.5H10.25C10.388 10.5 10.5 10.612 10.5 10.75V11.25C10.5 11.388 10.388 11.5 10.25 11.5Z" fill="url(#paint1_linear_206_6645)"/>
<path id="Vector_9" d="M10.25 13.5H4.75C4.612 13.5 4.5 13.388 4.5 13.25V12.75C4.5 12.612 4.612 12.5 4.75 12.5H10.25C10.388 12.5 10.5 12.612 10.5 12.75V13.25C10.5 13.388 10.388 13.5 10.25 13.5Z" fill="url(#paint2_linear_206_6645)"/>
<path id="Vector_10" d="M9.25 15.5H4.75C4.612 15.5 4.5 15.388 4.5 15.25V14.75C4.5 14.612 4.612 14.5 4.75 14.5H9.25C9.388 14.5 9.5 14.612 9.5 14.75V15.25C9.5 15.388 9.388 15.5 9.25 15.5Z" fill="url(#paint3_linear_206_6645)"/>
<path id="Vector_11" d="M18.993 13.592C18.993 11.1505 15.3885 11.627 15.3885 10.1845C15.3885 9.4315 16.235 9.3915 16.5 9.3915C17.1365 9.3915 17.7505 9.562 18.2185 9.7815C18.366 9.8505 18.5355 9.7485 18.5355 9.5855V8.875C18.5355 8.6365 18.446 8.4955 18.303 8.44C17.982 8.315 17.521 8.224 16.8395 8.2015V7.4195C16.8395 7.326 16.7635 7.25 16.67 7.25H16.3305C16.237 7.25 16.161 7.326 16.161 7.4195V8.214C15.1035 8.3175 14.0075 8.914 14.0075 10.3025C14.0075 12.8335 17.612 12.3315 17.612 13.6645C17.612 14.0835 17.3445 14.4445 16.5005 14.4445C15.6525 14.4445 14.873 14.1485 14.4415 13.9275C14.2965 13.853 14.1255 13.961 14.1255 14.124V14.933C14.1255 15.088 14.219 15.226 14.3615 15.2865C14.8725 15.5035 15.558 15.668 16.161 15.716V16.58C16.161 16.6735 16.237 16.7495 16.3305 16.7495H16.67C16.7635 16.7495 16.8395 16.6735 16.8395 16.58V15.7175C18.421 15.586 18.993 14.527 18.993 13.592Z" fill="#0D62AB"/>
</g>
<defs>
<linearGradient id="paint0_linear_206_6645" x1="6.6921" y1="8.54359" x2="6.72549" y2="9.64528" gradientUnits="userSpaceOnUse">
<stop stop-color="#32BDEF"/>
<stop offset="1" stop-color="#1EA2E4"/>
</linearGradient>
<linearGradient id="paint1_linear_206_6645" x1="6.6921" y1="10.5436" x2="6.72549" y2="11.6453" gradientUnits="userSpaceOnUse">
<stop stop-color="#32BDEF"/>
<stop offset="1" stop-color="#1EA2E4"/>
</linearGradient>
<linearGradient id="paint2_linear_206_6645" x1="6.6921" y1="12.5436" x2="6.72549" y2="13.6453" gradientUnits="userSpaceOnUse">
<stop stop-color="#32BDEF"/>
<stop offset="1" stop-color="#1EA2E4"/>
</linearGradient>
<linearGradient id="paint3_linear_206_6645" x1="6.32675" y1="14.5436" x2="6.3668" y2="15.6448" gradientUnits="userSpaceOnUse">
<stop stop-color="#32BDEF"/>
<stop offset="1" stop-color="#1EA2E4"/>
</linearGradient>
</defs>
</svg>
