<svg width="24" height="24" viewBox="0 0 24 24" fill="none" xmlns="http://www.w3.org/2000/svg">
<g id="geography">
<path id="Vector" d="M22 12C22 17.5225 17.5225 22 12 22C6.4775 22 2 17.5225 2 12C2 6.4775 6.4775 2 12 2C17.5225 2 22 6.4775 22 12Z" fill="url(#paint0_radial_206_6657)"/>
<path id="Vector_2" d="M20.5 12C20.5 10.7675 20.3005 9.591 19.952 8.5H21.3575C21.2295 8.1575 21.0845 7.8235 20.921 7.5H19.58C18.1775 4.2425 15.3105 2 12 2C8.6895 2 5.8225 4.2425 4.4195 7.5H3.0785C2.915 7.8235 2.7705 8.1575 2.642 8.5H4.0475C3.6995 9.591 3.5 10.7675 3.5 12C3.5 13.2325 3.6995 14.409 4.048 15.5H2.6425C2.7705 15.8425 2.9155 16.1765 3.079 16.5H4.42C5.823 19.7575 8.69 22 12.0005 22C15.311 22 18.178 19.7575 19.581 16.5H20.922C21.0855 16.1765 21.23 15.8425 21.3585 15.5H19.953C20.3005 14.409 20.5 13.2325 20.5 12ZM19.5 12C19.5 13.2405 19.2895 14.4235 18.9095 15.5H15.755C15.9165 14.367 16 13.175 16 12C16 10.825 15.917 9.633 15.755 8.5H18.9095C19.2895 9.5765 19.5 10.7595 19.5 12ZM12 21C11.032 21 9.9895 19.2775 9.424 16.5H14.576C14.0105 19.2775 12.968 21 12 21ZM9.25 15.5C9.0925 14.4435 9 13.2695 9 12C9 10.7305 9.0925 9.5565 9.25 8.5H14.75C14.9075 9.5565 15 10.7305 15 12C15 13.2695 14.9075 14.4435 14.75 15.5H9.25ZM12 3C12.968 3 14.0105 4.7225 14.576 7.5H9.424C9.9895 4.7225 11.032 3 12 3ZM18.485 7.5H15.589C15.2695 5.835 14.7675 4.364 14.092 3.3635C15.961 4.0165 17.527 5.519 18.485 7.5ZM9.908 3.3635C9.233 4.3645 8.7305 5.835 8.411 7.5H5.515C6.473 5.519 8.039 4.0165 9.908 3.3635ZM4.5 12C4.5 10.7595 4.7105 9.5765 5.0905 8.5H8.245C8.083 9.633 8 10.825 8 12C8 13.175 8.083 14.367 8.245 15.5H5.0905C4.7105 14.4235 4.5 13.2405 4.5 12ZM5.515 16.5H8.411C8.7305 18.165 9.2325 19.636 9.908 20.6365C8.039 19.9835 6.473 18.481 5.515 16.5ZM14.092 20.6365C14.767 19.6355 15.2695 18.165 15.589 16.5H18.485C17.527 18.481 15.961 19.9835 14.092 20.6365Z" fill="url(#paint1_radial_206_6657)"/>
</g>
<defs>
<radialGradient id="paint0_radial_206_6657" cx="0" cy="0" r="1" gradientUnits="userSpaceOnUse" gradientTransform="translate(5.031 4.719) scale(20.458)">
<stop stop-color="#6FCEFC"/>
<stop offset="1" stop-color="#167CF7"/>
</radialGradient>
<radialGradient id="paint1_radial_206_6657" cx="0" cy="0" r="1" gradientUnits="userSpaceOnUse" gradientTransform="translate(5.348 4.025) scale(20.459 20.459)">
<stop offset="0.001" stop-color="#54C0F5"/>
<stop offset="0.998" stop-color="#0B69DB"/>
</radialGradient>
</defs>
</svg>
