<svg width="24" height="24" viewBox="0 0 24 24" fill="none" xmlns="http://www.w3.org/2000/svg">
<g id="get-help">
<path id="Vector" d="M9.24999 1.5C5.52199 1.5 2.49999 4.522 2.49999 8.25C2.49999 9.2795 2.73699 10.251 3.14949 11.124C3.14299 11.139 3.13499 11.151 3.12949 11.168L1.54599 14.771C1.34999 15.217 1.82149 15.6625 2.25549 15.4415L5.43999 13.82C6.52449 14.5635 7.83549 15 9.24999 15C12.978 15 16 11.978 16 8.25C16 4.522 12.978 1.5 9.24999 1.5Z" fill="url(#paint0_linear_206_6660)"/>
<path id="Vector_2" d="M22.4545 21.8645L20.626 17.7045C21.1835 16.6775 21.5 15.5005 21.5 14.25C21.5 10.246 18.254 7 14.25 7C10.246 7 7 10.246 7 14.25C7 18.254 10.246 21.5 14.25 21.5C15.5565 21.5 16.779 21.1495 17.8375 20.545L21.745 22.5345C22.179 22.7555 22.6505 22.31 22.4545 21.8645Z" fill="url(#paint1_linear_206_6660)"/>
<path id="Vector_3" d="M13.583 15.8745C13.55 15.7885 13.479 15.5335 13.479 15.281C13.479 13.844 14.9585 13.789 14.9585 12.723C14.9585 12.052 14.2955 12.0105 14.177 12.0105C13.424 12.0105 12.836 12.441 12.589 12.6585V11.169C12.843 11.0175 13.424 10.714 14.3505 10.714C16.4955 10.714 16.5225 12.1885 16.5225 12.505C16.5225 14.207 14.766 14.3335 14.766 15.424C14.766 15.6515 14.8485 15.818 14.8845 15.874H13.583V15.8745ZM14.305 18.214C13.8965 18.214 13.465 17.959 13.465 17.4645C13.465 16.9695 13.9135 16.724 14.305 16.724C14.6965 16.724 15.1315 16.9435 15.1315 17.4645C15.1315 17.9855 14.7135 18.214 14.305 18.214Z" fill="white"/>
</g>
<defs>
<linearGradient id="paint0_linear_206_6660" x1="4.99849" y1="2.967" x2="10.89" y2="15.447" gradientUnits="userSpaceOnUse">
<stop stop-color="#33BEF0"/>
<stop offset="1" stop-color="#22A5E2"/>
</linearGradient>
<linearGradient id="paint1_linear_206_6660" x1="10.552" y1="8.013" x2="19.5235" y2="23.144" gradientUnits="userSpaceOnUse">
<stop stop-color="#0176D0"/>
<stop offset="1" stop-color="#16538C"/>
</linearGradient>
</defs>
</svg>
