<svg width="24" height="24" viewBox="0 0 24 24" fill="none" xmlns="http://www.w3.org/2000/svg">
<g id="gmail">
<path id="Vector" d="M22.5 8.10001L20 9.47501L17.5 11.85V20H21C21.8285 20 22.5 19.3285 22.5 18.5V8.10001Z" fill="#4CAF50"/>
<path id="Vector_2" d="M1.5 8.10001L3.307 8.95501L6.5 11.85V20H3C2.1715 20 1.5 19.3285 1.5 18.5V8.10001Z" fill="#1E88E5"/>
<path id="Vector_3" d="M17.5 5.60001L12 9.72501L6.5 5.60001L6 8.50001L6.5 11.85L12 15.975L17.5 11.85L18 8.50001L17.5 5.60001Z" fill="#E53935"/>
<path id="Vector_4" d="M1.5 6.149V8.1L6.5 11.85V5.6L4.938 4.4295C4.566 4.1505 4.114 4 3.649 4C2.462 4 1.5 4.962 1.5 6.149Z" fill="#C62828"/>
<path id="Vector_5" d="M22.5 6.149V8.1L17.5 11.85V5.6L19.062 4.4295C19.434 4.1505 19.886 4 20.351 4C21.538 4 22.5 4.962 22.5 6.149Z" fill="#FBC02D"/>
</g>
</svg>
