<svg width="24" height="24" viewBox="0 0 24 24" fill="none" xmlns="http://www.w3.org/2000/svg">
<g id="google-drive">
<path id="Vector" d="M22.5 15C22.5 15.175 22.45 15.35 22.36 15.505L15.755 15L22.36 14.495C22.45 14.65 22.5 14.825 22.5 15Z" fill="#EBA400"/>
<path id="Vector_2" d="M22.5 15C22.5 15.175 22.45 15.35 22.36 15.505L19.545 20.505C19.37 20.81 19.04 21 18.685 21H5.77C5.595 21 5.425 20.955 5.275 20.865L5.725 15H22.5Z" fill="url(#paint0_linear_206_6695)"/>
<path id="Vector_3" d="M14.117 5.83499L5.275 20.865H5.27C5.12 20.78 4.995 20.655 4.905 20.5L2.15 15.565C1.97 15.255 1.97 14.87 2.15 14.56L8.465 3.49999C8.555 3.34499 8.68 3.21999 8.83 3.13499H8.835L14.117 5.83499Z" fill="url(#paint1_linear_206_6695)"/>
<path id="Vector_4" d="M22.5 15H15.7555L8.835 3.135C8.985 3.045 9.155 3 9.33 3H15.185C15.54 3 15.87 3.19 16.045 3.495L22.36 14.495C22.45 14.65 22.5 14.825 22.5 15Z" fill="url(#paint2_linear_206_6695)"/>
</g>
<defs>
<linearGradient id="paint0_linear_206_6695" x1="19.92" y1="20.748" x2="8.418" y2="15.385" gradientUnits="userSpaceOnUse">
<stop stop-color="#2A96F4"/>
<stop offset="0.535" stop-color="#2895F3"/>
<stop offset="0.728" stop-color="#2190EE"/>
<stop offset="0.865" stop-color="#1687E7"/>
<stop offset="0.976" stop-color="#057BDC"/>
<stop offset="1" stop-color="#0077D9"/>
</linearGradient>
<linearGradient id="paint1_linear_206_6695" x1="1.761" y1="15.055" x2="12.328" y2="8.95449" gradientUnits="userSpaceOnUse">
<stop stop-color="#4CAF50"/>
<stop offset="0.486" stop-color="#4AAE50"/>
<stop offset="0.661" stop-color="#43A94E"/>
<stop offset="0.786" stop-color="#38A14C"/>
<stop offset="0.887" stop-color="#279648"/>
<stop offset="0.972" stop-color="#118844"/>
<stop offset="1" stop-color="#088242"/>
</linearGradient>
<linearGradient id="paint2_linear_206_6695" x1="15.6675" y1="3" x2="15.6675" y2="15" gradientUnits="userSpaceOnUse">
<stop stop-color="#FFD747"/>
<stop offset="0.482" stop-color="#FED645"/>
<stop offset="0.655" stop-color="#FDD13E"/>
<stop offset="0.779" stop-color="#F9C833"/>
<stop offset="0.879" stop-color="#F4BC22"/>
<stop offset="0.964" stop-color="#EEAD0C"/>
<stop offset="1" stop-color="#EBA400"/>
</linearGradient>
</defs>
</svg>
