<svg width="24" height="24" viewBox="0 0 24 24" fill="none" xmlns="http://www.w3.org/2000/svg">
<g id="graph-report-script">
<path id="Vector" d="M19.5 8V20.5C19.5 21.0525 19.0525 21.5 18.5 21.5H5.5C4.9475 21.5 4.5 21.0525 4.5 20.5V3.5C4.5 2.9475 4.9475 2.5 5.5 2.5H14L19.5 8Z" fill="url(#paint0_linear_206_6706)"/>
<path id="Vector_2" d="M14 2.5V7C14 7.5525 14.4475 8 15 8H19.5L14 2.5Z" fill="url(#paint1_linear_206_6706)"/>
<path id="Vector_3" d="M13.5 15.707L10.5 12.707L7.8535 15.3535L7.1465 14.6465L10.5 11.293L13.5 14.293L16.1465 11.6465L16.8535 12.3535L13.5 15.707Z" fill="#0D62AB"/>
<path id="Vector_4" d="M16.5 13C17.0523 13 17.5 12.5523 17.5 12C17.5 11.4477 17.0523 11 16.5 11C15.9477 11 15.5 11.4477 15.5 12C15.5 12.5523 15.9477 13 16.5 13Z" fill="url(#paint2_linear_206_6706)"/>
<path id="Vector_5" d="M13.5 16C14.0523 16 14.5 15.5523 14.5 15C14.5 14.4477 14.0523 14 13.5 14C12.9477 14 12.5 14.4477 12.5 15C12.5 15.5523 12.9477 16 13.5 16Z" fill="url(#paint3_linear_206_6706)"/>
<path id="Vector_6" d="M10.5 13C11.0523 13 11.5 12.5523 11.5 12C11.5 11.4477 11.0523 11 10.5 11C9.94772 11 9.5 11.4477 9.5 12C9.5 12.5523 9.94772 13 10.5 13Z" fill="url(#paint4_linear_206_6706)"/>
<path id="Vector_7" d="M7.5 16C8.05228 16 8.5 15.5523 8.5 15C8.5 14.4477 8.05228 14 7.5 14C6.94772 14 6.5 14.4477 6.5 15C6.5 15.5523 6.94772 16 7.5 16Z" fill="url(#paint5_linear_206_6706)"/>
<path id="Vector_8" opacity="0.05" d="M16 21.5H19.5V14.5H17.5C16.6715 14.5 16 15.1715 16 16V21.5Z" fill="black"/>
<path id="Vector_9" opacity="0.07" d="M16.5 21.5H19.5V15H17.5C16.9475 15 16.5 15.4475 16.5 16V21.5Z" fill="black"/>
<path id="Vector_10" d="M23 24H17.5C17.224 24 17 23.776 17 23.5V16C17 15.724 17.224 15.5 17.5 15.5H23.5C23.776 15.5 24 15.724 24 16V23C24 23.5525 23.5525 24 23 24Z" fill="url(#paint6_linear_206_6706)"/>
<path id="Vector_11" d="M22 23C22 22.724 21.776 22.5 21.5 22.5H16.5C16.224 22.5 16 22.724 16 23C16 23.5525 16.4475 24 17 24H23C22.4475 24 22 23.5525 22 23Z" fill="url(#paint7_linear_206_6706)"/>
</g>
<defs>
<linearGradient id="paint0_linear_206_6706" x1="9.22929" y1="2.79171" x2="19.7783" y2="18.8491" gradientUnits="userSpaceOnUse">
<stop stop-color="#7DD8F3"/>
<stop offset="1" stop-color="#45B0D0"/>
</linearGradient>
<linearGradient id="paint1_linear_206_6706" x1="14.2645" y1="7.7355" x2="16.8" y2="5.2" gradientUnits="userSpaceOnUse">
<stop stop-color="#3079D6"/>
<stop offset="1" stop-color="#297CD2"/>
</linearGradient>
<linearGradient id="paint2_linear_206_6706" x1="16.0188" y1="10.8855" x2="17.3946" y2="12.3376" gradientUnits="userSpaceOnUse">
<stop stop-color="#FCFCFC"/>
<stop offset="0.495" stop-color="#F4F4F4"/>
<stop offset="0.946" stop-color="#E8E8E8"/>
<stop offset="1" stop-color="#E8E8E8"/>
</linearGradient>
<linearGradient id="paint3_linear_206_6706" x1="13.0188" y1="13.8855" x2="14.3946" y2="15.3376" gradientUnits="userSpaceOnUse">
<stop stop-color="#FCFCFC"/>
<stop offset="0.495" stop-color="#F4F4F4"/>
<stop offset="0.946" stop-color="#E8E8E8"/>
<stop offset="1" stop-color="#E8E8E8"/>
</linearGradient>
<linearGradient id="paint4_linear_206_6706" x1="10.0188" y1="10.8855" x2="11.3946" y2="12.3376" gradientUnits="userSpaceOnUse">
<stop stop-color="#FCFCFC"/>
<stop offset="0.495" stop-color="#F4F4F4"/>
<stop offset="0.946" stop-color="#E8E8E8"/>
<stop offset="1" stop-color="#E8E8E8"/>
</linearGradient>
<linearGradient id="paint5_linear_206_6706" x1="7.01881" y1="13.8855" x2="8.39458" y2="15.3376" gradientUnits="userSpaceOnUse">
<stop stop-color="#FCFCFC"/>
<stop offset="0.495" stop-color="#F4F4F4"/>
<stop offset="0.946" stop-color="#E8E8E8"/>
<stop offset="1" stop-color="#E8E8E8"/>
</linearGradient>
<linearGradient id="paint6_linear_206_6706" x1="17.36" y1="15.558" x2="23.374" y2="23.5865" gradientUnits="userSpaceOnUse">
<stop stop-color="#A8E1F3"/>
<stop offset="0.754" stop-color="#5EBCD9"/>
<stop offset="1" stop-color="#45B0D0"/>
</linearGradient>
<linearGradient id="paint7_linear_206_6706" x1="19.5" y1="22.5855" x2="19.5" y2="24.003" gradientUnits="userSpaceOnUse">
<stop stop-color="#0176D0"/>
<stop offset="1" stop-color="#16538C"/>
</linearGradient>
</defs>
</svg>
