<svg width="24" height="24" viewBox="0 0 24 24" fill="none" xmlns="http://www.w3.org/2000/svg">
<g id="group-of-companies">
<path id="Vector" d="M3.5 3.5V14C3.5 14.276 3.724 14.5 4 14.5H13C13.276 14.5 13.5 14.276 13.5 14V3.5C13.5 2.9475 13.0525 2.5 12.5 2.5H4.5C3.9475 2.5 3.5 2.9475 3.5 3.5Z" fill="#0D62AB"/>
<path id="Vector_2" d="M6 8H5V9H6V8Z" fill="url(#paint0_linear_206_6743)"/>
<path id="Vector_3" d="M6 6H5V7H6V6Z" fill="url(#paint1_linear_206_6743)"/>
<path id="Vector_4" d="M6 10H5V11H6V10Z" fill="url(#paint2_linear_206_6743)"/>
<path id="Vector_5" d="M6 12H5V13H6V12Z" fill="url(#paint3_linear_206_6743)"/>
<path id="Vector_6" d="M13.5 4.5H3.5C3.2235 4.5 3 4.276 3 4C3 3.724 3.2235 3.5 3.5 3.5H13.5C13.7765 3.5 14 3.724 14 4C14 4.276 13.7765 4.5 13.5 4.5Z" fill="#0078D4"/>
<path id="Vector_7" d="M7 7V17.5C7 17.776 7.224 18 7.5 18H16.5C16.776 18 17 17.776 17 17.5V7C17 6.4475 16.5525 6 16 6H8C7.4475 6 7 6.4475 7 7Z" fill="url(#paint4_linear_206_6743)"/>
<path id="Vector_8" d="M9.5 11.5H8.5V12.5H9.5V11.5Z" fill="#0078D4"/>
<path id="Vector_9" d="M9.5 9.5H8.5V10.5H9.5V9.5Z" fill="#0078D4"/>
<path id="Vector_10" d="M9.5 13.5H8.5V14.5H9.5V13.5Z" fill="#0078D4"/>
<path id="Vector_11" d="M9.5 15.5H8.5V16.5H9.5V15.5Z" fill="#0078D4"/>
<path id="Vector_12" d="M17 8H7C6.7235 8 6.5 7.776 6.5 7.5C6.5 7.224 6.7235 7 7 7H17C17.2765 7 17.5 7.224 17.5 7.5C17.5 7.776 17.2765 8 17 8Z" fill="url(#paint5_linear_206_6743)"/>
<path id="Vector_13" d="M10.5 10.5V21C10.5 21.276 10.724 21.5 11 21.5H20C20.276 21.5 20.5 21.276 20.5 21V10.5C20.5 9.9475 20.0525 9.5 19.5 9.5H11.5C10.9475 9.5 10.5 9.9475 10.5 10.5Z" fill="url(#paint6_linear_206_6743)"/>
<g id="Group">
<path id="Vector_14" d="M17 15H16V16H17V15Z" fill="url(#paint7_linear_206_6743)"/>
<path id="Vector_15" d="M15 15H14V16H15V15Z" fill="url(#paint8_linear_206_6743)"/>
<path id="Vector_16" d="M13 15H12V16H13V15Z" fill="url(#paint9_linear_206_6743)"/>
<path id="Vector_17" d="M17 13H16V14H17V13Z" fill="url(#paint10_linear_206_6743)"/>
<path id="Vector_18" d="M15 13H14V14H15V13Z" fill="url(#paint11_linear_206_6743)"/>
<path id="Vector_19" d="M19 15H18V16H19V15Z" fill="url(#paint12_linear_206_6743)"/>
<path id="Vector_20" d="M19 13H18V14H19V13Z" fill="url(#paint13_linear_206_6743)"/>
<path id="Vector_21" d="M13 13H12V14H13V13Z" fill="url(#paint14_linear_206_6743)"/>
<path id="Vector_22" d="M17 17H16V18H17V17Z" fill="url(#paint15_linear_206_6743)"/>
<path id="Vector_23" d="M15 17H14V18H15V17Z" fill="url(#paint16_linear_206_6743)"/>
<path id="Vector_24" d="M13 17H12V18H13V17Z" fill="url(#paint17_linear_206_6743)"/>
<path id="Vector_25" d="M19 17H18V18H19V17Z" fill="url(#paint18_linear_206_6743)"/>
<path id="Vector_26" d="M17 19H16V20H17V19Z" fill="url(#paint19_linear_206_6743)"/>
<path id="Vector_27" d="M15 19H14V20H15V19Z" fill="url(#paint20_linear_206_6743)"/>
<path id="Vector_28" d="M19 19H18V20H19V19Z" fill="url(#paint21_linear_206_6743)"/>
<path id="Vector_29" d="M13 19H12V20H13V19Z" fill="url(#paint22_linear_206_6743)"/>
</g>
<path id="Vector_30" d="M20.5 11.5H10.5C10.2235 11.5 10 11.276 10 11C10 10.724 10.2235 10.5 10.5 10.5H20.5C20.7765 10.5 21 10.724 21 11C21 11.276 20.7765 11.5 20.5 11.5Z" fill="url(#paint23_linear_206_6743)"/>
</g>
<defs>
<linearGradient id="paint0_linear_206_6743" x1="5.22154" y1="7.85103" x2="5.8994" y2="8.84611" gradientUnits="userSpaceOnUse">
<stop stop-color="#FCFCFC"/>
<stop offset="0.95" stop-color="#C3C9CD"/>
</linearGradient>
<linearGradient id="paint1_linear_206_6743" x1="5.22154" y1="5.85103" x2="5.8994" y2="6.84611" gradientUnits="userSpaceOnUse">
<stop stop-color="#FCFCFC"/>
<stop offset="0.95" stop-color="#C3C9CD"/>
</linearGradient>
<linearGradient id="paint2_linear_206_6743" x1="5.22154" y1="9.85103" x2="5.8994" y2="10.8461" gradientUnits="userSpaceOnUse">
<stop stop-color="#FCFCFC"/>
<stop offset="0.95" stop-color="#C3C9CD"/>
</linearGradient>
<linearGradient id="paint3_linear_206_6743" x1="5.22154" y1="11.851" x2="5.8994" y2="12.8461" gradientUnits="userSpaceOnUse">
<stop stop-color="#FCFCFC"/>
<stop offset="0.95" stop-color="#C3C9CD"/>
</linearGradient>
<linearGradient id="paint4_linear_206_6743" x1="9.21542" y1="4.21232" x2="17.7819" y2="14.6918" gradientUnits="userSpaceOnUse">
<stop stop-color="#FCFCFC"/>
<stop offset="0.95" stop-color="#C3C9CD"/>
</linearGradient>
<linearGradient id="paint5_linear_206_6743" x1="8.93696" y1="6.85103" x2="9.02683" y2="8.30231" gradientUnits="userSpaceOnUse">
<stop stop-color="#FCFCFC"/>
<stop offset="0.95" stop-color="#C3C9CD"/>
</linearGradient>
<linearGradient id="paint6_linear_206_6743" x1="12.7154" y1="7.71232" x2="21.2819" y2="18.1918" gradientUnits="userSpaceOnUse">
<stop stop-color="#FCFCFC"/>
<stop offset="0.95" stop-color="#C3C9CD"/>
</linearGradient>
<linearGradient id="paint7_linear_206_6743" x1="16.2215" y1="14.851" x2="16.8994" y2="15.8461" gradientUnits="userSpaceOnUse">
<stop stop-color="#FCFCFC"/>
<stop offset="0.95" stop-color="#C3C9CD"/>
</linearGradient>
<linearGradient id="paint8_linear_206_6743" x1="14.2215" y1="14.851" x2="14.8994" y2="15.8461" gradientUnits="userSpaceOnUse">
<stop stop-color="#FCFCFC"/>
<stop offset="0.95" stop-color="#C3C9CD"/>
</linearGradient>
<linearGradient id="paint9_linear_206_6743" x1="12.2215" y1="14.851" x2="12.8994" y2="15.8461" gradientUnits="userSpaceOnUse">
<stop stop-color="#FCFCFC"/>
<stop offset="0.95" stop-color="#C3C9CD"/>
</linearGradient>
<linearGradient id="paint10_linear_206_6743" x1="16.2215" y1="12.851" x2="16.8994" y2="13.8461" gradientUnits="userSpaceOnUse">
<stop stop-color="#FCFCFC"/>
<stop offset="0.95" stop-color="#C3C9CD"/>
</linearGradient>
<linearGradient id="paint11_linear_206_6743" x1="14.2215" y1="12.851" x2="14.8994" y2="13.8461" gradientUnits="userSpaceOnUse">
<stop stop-color="#FCFCFC"/>
<stop offset="0.95" stop-color="#C3C9CD"/>
</linearGradient>
<linearGradient id="paint12_linear_206_6743" x1="18.2215" y1="14.851" x2="18.8994" y2="15.8461" gradientUnits="userSpaceOnUse">
<stop stop-color="#FCFCFC"/>
<stop offset="0.95" stop-color="#C3C9CD"/>
</linearGradient>
<linearGradient id="paint13_linear_206_6743" x1="18.2215" y1="12.851" x2="18.8994" y2="13.8461" gradientUnits="userSpaceOnUse">
<stop stop-color="#FCFCFC"/>
<stop offset="0.95" stop-color="#C3C9CD"/>
</linearGradient>
<linearGradient id="paint14_linear_206_6743" x1="12.2215" y1="12.851" x2="12.8994" y2="13.8461" gradientUnits="userSpaceOnUse">
<stop stop-color="#FCFCFC"/>
<stop offset="0.95" stop-color="#C3C9CD"/>
</linearGradient>
<linearGradient id="paint15_linear_206_6743" x1="16.2215" y1="16.851" x2="16.8994" y2="17.8461" gradientUnits="userSpaceOnUse">
<stop stop-color="#FCFCFC"/>
<stop offset="0.95" stop-color="#C3C9CD"/>
</linearGradient>
<linearGradient id="paint16_linear_206_6743" x1="14.2215" y1="16.851" x2="14.8994" y2="17.8461" gradientUnits="userSpaceOnUse">
<stop stop-color="#FCFCFC"/>
<stop offset="0.95" stop-color="#C3C9CD"/>
</linearGradient>
<linearGradient id="paint17_linear_206_6743" x1="12.2215" y1="16.851" x2="12.8994" y2="17.8461" gradientUnits="userSpaceOnUse">
<stop stop-color="#FCFCFC"/>
<stop offset="0.95" stop-color="#C3C9CD"/>
</linearGradient>
<linearGradient id="paint18_linear_206_6743" x1="18.2215" y1="16.851" x2="18.8994" y2="17.8461" gradientUnits="userSpaceOnUse">
<stop stop-color="#FCFCFC"/>
<stop offset="0.95" stop-color="#C3C9CD"/>
</linearGradient>
<linearGradient id="paint19_linear_206_6743" x1="16.2215" y1="18.851" x2="16.8994" y2="19.8461" gradientUnits="userSpaceOnUse">
<stop stop-color="#FCFCFC"/>
<stop offset="0.95" stop-color="#C3C9CD"/>
</linearGradient>
<linearGradient id="paint20_linear_206_6743" x1="14.2215" y1="18.851" x2="14.8994" y2="19.8461" gradientUnits="userSpaceOnUse">
<stop stop-color="#FCFCFC"/>
<stop offset="0.95" stop-color="#C3C9CD"/>
</linearGradient>
<linearGradient id="paint21_linear_206_6743" x1="18.2215" y1="18.851" x2="18.8994" y2="19.8461" gradientUnits="userSpaceOnUse">
<stop stop-color="#FCFCFC"/>
<stop offset="0.95" stop-color="#C3C9CD"/>
</linearGradient>
<linearGradient id="paint22_linear_206_6743" x1="12.2215" y1="18.851" x2="12.8994" y2="19.8461" gradientUnits="userSpaceOnUse">
<stop stop-color="#FCFCFC"/>
<stop offset="0.95" stop-color="#C3C9CD"/>
</linearGradient>
<linearGradient id="paint23_linear_206_6743" x1="12.8535" y1="10.4427" x2="12.9712" y2="11.8104" gradientUnits="userSpaceOnUse">
<stop stop-color="#FCFCFC"/>
<stop offset="0.495" stop-color="#F4F4F4"/>
<stop offset="0.946" stop-color="#E8E8E8"/>
<stop offset="1" stop-color="#E8E8E8"/>
</linearGradient>
</defs>
</svg>
