<svg width="24" height="24" viewBox="0 0 24 24" fill="none" xmlns="http://www.w3.org/2000/svg">
<g id="group-objects">
<path id="Vector" d="M20.002 20.9845L4.0155 21C3.466 21.0005 3.016 20.5515 3.0155 20.002L3 4.0155C2.9995 3.466 3.4485 3.016 3.998 3.0155L19.9845 3C20.534 2.9995 20.984 3.4485 20.9845 3.998L21 19.9845C21.0005 20.534 20.5515 20.984 20.002 20.9845Z" fill="url(#paint0_linear_206_6732)"/>
<path id="Vector_2" d="M19.4855 4.5L19.5 19.4855L4.5145 19.5L4.5 4.5145L19.4855 4.5Z" fill="url(#paint1_linear_206_6732)"/>
<path id="Vector_3" d="M2.5 18.5H5C5.276 18.5 5.5 18.724 5.5 19V21.5C5.5 21.776 5.276 22 5 22H2.5C2.224 22 2 21.776 2 21.5V19C2 18.724 2.224 18.5 2.5 18.5Z" fill="url(#paint2_linear_206_6732)"/>
<path id="Vector_4" d="M19.0835 18.5H21.417C21.739 18.5 22 18.761 22 19.0835V21.417C22 21.739 21.739 22 21.4165 22H19.083C18.761 22 18.5 21.739 18.5 21.4165V19.083C18.5 18.761 18.761 18.5 19.0835 18.5Z" fill="url(#paint3_linear_206_6732)"/>
<path id="Vector_5" d="M2.5 2H5C5.276 2 5.5 2.224 5.5 2.5V5C5.5 5.276 5.276 5.5 5 5.5H2.5C2.224 5.5 2 5.276 2 5V2.5C2 2.224 2.224 2 2.5 2Z" fill="url(#paint4_linear_206_6732)"/>
<path id="Vector_6" d="M19 2H21.5C21.776 2 22 2.224 22 2.5V5C22 5.276 21.776 5.5 21.5 5.5H19C18.724 5.5 18.5 5.276 18.5 5V2.5C18.5 2.224 18.724 2 19 2Z" fill="url(#paint5_linear_206_6732)"/>
<path id="Vector_7" d="M16 17H12C11.4475 17 11 16.5525 11 16V12C11 11.4475 11.4475 11 12 11H16C16.5525 11 17 11.4475 17 12V16C17 16.5525 16.5525 17 16 17Z" fill="url(#paint6_linear_206_6732)"/>
<path id="Vector_8" opacity="0.05" d="M12 13.5H11V12C11 11.4475 11.4475 11 12 11H13.5V12C13.5 12.8285 12.8285 13.5 12 13.5Z" fill="black"/>
<path id="Vector_9" opacity="0.05" d="M12 13.25H11V12C11 11.4475 11.4475 11 12 11H13.25V12C13.25 12.6905 12.6905 13.25 12 13.25Z" fill="black"/>
<path id="Vector_10" d="M12 13H8C7.4475 13 7 12.5525 7 12V8C7 7.4475 7.4475 7 8 7H12C12.5525 7 13 7.4475 13 8V12C13 12.5525 12.5525 13 12 13Z" fill="url(#paint7_linear_206_6732)"/>
</g>
<defs>
<linearGradient id="paint0_linear_206_6732" x1="10.2195" y1="1.903" x2="13.7805" y2="22.097" gradientUnits="userSpaceOnUse">
<stop stop-color="#33BEF0"/>
<stop offset="1" stop-color="#22A5E2"/>
</linearGradient>
<linearGradient id="paint1_linear_206_6732" x1="10.494" y1="3.4575" x2="13.506" y2="20.5425" gradientUnits="userSpaceOnUse">
<stop stop-color="#FAFAFB"/>
<stop offset="0.293" stop-color="#F6F7F8"/>
<stop offset="0.566" stop-color="#EBECEE"/>
<stop offset="0.832" stop-color="#D8DCDF"/>
<stop offset="1" stop-color="#C8CDD1"/>
</linearGradient>
<linearGradient id="paint2_linear_206_6732" x1="3.4115" y1="18.3315" x2="4.0885" y2="22.1685" gradientUnits="userSpaceOnUse">
<stop stop-color="#3079D6"/>
<stop offset="1" stop-color="#297CD2"/>
</linearGradient>
<linearGradient id="paint3_linear_206_6732" x1="19.914" y1="18.3445" x2="20.586" y2="22.1555" gradientUnits="userSpaceOnUse">
<stop stop-color="#3079D6"/>
<stop offset="1" stop-color="#297CD2"/>
</linearGradient>
<linearGradient id="paint4_linear_206_6732" x1="3.4115" y1="1.8315" x2="4.0885" y2="5.6685" gradientUnits="userSpaceOnUse">
<stop stop-color="#3079D6"/>
<stop offset="1" stop-color="#297CD2"/>
</linearGradient>
<linearGradient id="paint5_linear_206_6732" x1="19.9115" y1="1.8315" x2="20.5885" y2="5.6685" gradientUnits="userSpaceOnUse">
<stop stop-color="#3079D6"/>
<stop offset="1" stop-color="#297CD2"/>
</linearGradient>
<linearGradient id="paint6_linear_206_6732" x1="13.0829" y1="11.2624" x2="14.0656" y2="17.65" gradientUnits="userSpaceOnUse">
<stop stop-color="#0D61A9"/>
<stop offset="1" stop-color="#16528C"/>
</linearGradient>
<linearGradient id="paint7_linear_206_6732" x1="8.89171" y1="7.09212" x2="11.8586" y2="12.8126" gradientUnits="userSpaceOnUse">
<stop stop-color="#7DD8F3"/>
<stop offset="1" stop-color="#45B0D0"/>
</linearGradient>
</defs>
</svg>
