<svg width="24" height="24" viewBox="0 0 24 24" fill="none" xmlns="http://www.w3.org/2000/svg">
<g id="group">
<path id="Vector" d="M15.5 10C17.1569 10 18.5 8.65685 18.5 7C18.5 5.34315 17.1569 4 15.5 4C13.8431 4 12.5 5.34315 12.5 7C12.5 8.65685 13.8431 10 15.5 10Z" fill="url(#paint0_linear_206_6718)"/>
<path id="Vector_2" d="M15.5 11C12.7385 11 10.5 13.1825 10.5 15.875V20.9165C10.5 21.515 10.997 22 11.611 22H19.389C20.003 22 20.5 21.515 20.5 20.9165V15.875C20.5 13.1825 18.2615 11 15.5 11Z" fill="url(#paint1_linear_206_6718)"/>
<path id="Vector_3" d="M8.5 8C10.1569 8 11.5 6.65685 11.5 5C11.5 3.34315 10.1569 2 8.5 2C6.84315 2 5.5 3.34315 5.5 5C5.5 6.65685 6.84315 8 8.5 8Z" fill="url(#paint2_linear_206_6718)"/>
<path id="Vector_4" d="M8.5 9C5.7385 9 3.5 11.1825 3.5 13.875V20.9165C3.5 21.515 3.997 22 4.611 22H12.389C13.003 22 13.5 21.515 13.5 20.9165V13.875C13.5 11.1825 11.2615 9 8.5 9Z" fill="url(#paint3_linear_206_6718)"/>
</g>
<defs>
<linearGradient id="paint0_linear_206_6718" x1="13.465" y1="4.9645" x2="17.6505" y2="9.1505" gradientUnits="userSpaceOnUse">
<stop stop-color="#32BDEF"/>
<stop offset="1" stop-color="#1EA2E4"/>
</linearGradient>
<linearGradient id="paint1_linear_206_6718" x1="14.1535" y1="11.4795" x2="16.4865" y2="23.1425" gradientUnits="userSpaceOnUse">
<stop stop-color="#32BDEF"/>
<stop offset="1" stop-color="#1EA2E4"/>
</linearGradient>
<linearGradient id="paint2_linear_206_6718" x1="6.465" y1="2.9645" x2="10.6505" y2="7.1505" gradientUnits="userSpaceOnUse">
<stop stop-color="#0D61A9"/>
<stop offset="1" stop-color="#16528C"/>
</linearGradient>
<linearGradient id="paint3_linear_206_6718" x1="6.9715" y1="9.5685" x2="9.696" y2="23.191" gradientUnits="userSpaceOnUse">
<stop stop-color="#0D61A9"/>
<stop offset="1" stop-color="#16528C"/>
</linearGradient>
</defs>
</svg>
