<svg width="24" height="24" viewBox="0 0 24 24" fill="none" xmlns="http://www.w3.org/2000/svg">
<g id="hand-drag">
<path id="Vector" d="M19.8595 5.51499L17.6895 7.68499C17.55 7.82449 17.312 7.72599 17.312 7.52899V6.18799H12.312C12.1395 6.18799 11.9995 6.04799 11.9995 5.87549V4.62549C11.9995 4.45299 12.1395 4.31299 12.312 4.31299H17.312V2.97149C17.312 2.77449 17.55 2.67599 17.6895 2.81549L19.8595 4.98549C20.006 5.13149 20.006 5.36899 19.8595 5.51499Z" fill="url(#paint0_linear_206_6775)"/>
<path id="Vector_2" d="M12.5 5.25C12.5 7.0445 11.0445 8.5 9.25 8.5C7.4555 8.5 6 7.0445 6 5.25C6 3.4555 7.4555 2 9.25 2C11.0445 2 12.5 3.4555 12.5 5.25Z" fill="url(#paint1_linear_206_6775)"/>
<path id="Vector_3" d="M3.18 16.1375C3.1805 16.134 3.182 16.1315 3.1825 16.128L3.1815 16.1275L3.18 16.1375Z" fill="url(#paint2_linear_206_6775)"/>
<path id="Vector_4" d="M16.869 10.951L10.5 10V4.8215C10.5 4.1675 10.0295 3.572 9.379 3.5065C8.6305 3.4315 8 4.017 8 4.75C8 4.8685 8 20.984 8 20.984C8.7305 21.634 9.6735 22 10.657 22H16C17.657 22 19 20.657 19 19V13.4235C19 12.1855 18.094 11.134 16.869 10.951Z" fill="url(#paint3_linear_206_6775)"/>
<path id="Vector_5" d="M10.5 10V13L11.805 10.195L10.5 10Z" fill="url(#paint4_linear_206_6775)"/>
<path id="Vector_6" d="M9.25 5.5C9.66421 5.5 10 5.16421 10 4.75C10 4.33579 9.66421 4 9.25 4C8.83579 4 8.5 4.33579 8.5 4.75C8.5 5.16421 8.83579 5.5 9.25 5.5Z" fill="#FFF0C9"/>
<path id="Vector_7" d="M3.0115 12.5C2.1515 12.5 1.7625 13.034 1.7625 13.746L7.805 20.8105C7.867 20.8725 7.9345 20.9285 7.9995 20.9865V13.634C6.863 15.574 6.03 13.8375 5.1645 14.039C5.165 14.039 4.805 12.5 3.0115 12.5Z" fill="url(#paint5_linear_206_6775)"/>
</g>
<defs>
<linearGradient id="paint0_linear_206_6775" x1="12" y1="5.24999" x2="19.9695" y2="5.24999" gradientUnits="userSpaceOnUse">
<stop stop-color="#0D61A9"/>
<stop offset="1" stop-color="#16528C"/>
</linearGradient>
<linearGradient id="paint1_linear_206_6775" x1="7.788" y1="2.405" x2="10.807" y2="8.2805" gradientUnits="userSpaceOnUse">
<stop stop-color="#75DAFF"/>
<stop offset="1" stop-color="#1EA2E4"/>
</linearGradient>
<linearGradient id="paint2_linear_206_6775" x1="3.19194" y1="16.1356" x2="3.19292" y2="16.1357" gradientUnits="userSpaceOnUse">
<stop stop-color="#FFC430"/>
<stop offset="0.57" stop-color="#F8BD29"/>
<stop offset="1" stop-color="#F0B421"/>
</linearGradient>
<linearGradient id="paint3_linear_206_6775" x1="8.9955" y1="12.022" x2="21.282" y2="24.781" gradientUnits="userSpaceOnUse">
<stop stop-color="#FFC430"/>
<stop offset="0.41" stop-color="#FEC130"/>
<stop offset="0.72" stop-color="#FCB730"/>
<stop offset="0.998" stop-color="#F7A72F"/>
<stop offset="1" stop-color="#F7A72F"/>
</linearGradient>
<linearGradient id="paint4_linear_206_6775" x1="10.956" y1="11.4905" x2="10.0815" y2="11.0145" gradientUnits="userSpaceOnUse">
<stop offset="0.282" stop-color="#FFC430"/>
<stop offset="0.401" stop-color="#F8BD2D"/>
<stop offset="0.574" stop-color="#E5AA23"/>
<stop offset="0.78" stop-color="#C58A14"/>
<stop offset="1" stop-color="#9C6000"/>
</linearGradient>
<linearGradient id="paint5_linear_206_6775" x1="4.6945" y1="17.253" x2="8.918" y2="13.088" gradientUnits="userSpaceOnUse">
<stop offset="0.282" stop-color="#FFC430"/>
<stop offset="0.401" stop-color="#F8BD2D"/>
<stop offset="0.574" stop-color="#E5AA23"/>
<stop offset="0.78" stop-color="#C58A14"/>
<stop offset="1" stop-color="#9C6000"/>
</linearGradient>
</defs>
</svg>
