<svg width="24" height="24" viewBox="0 0 24 24" fill="none" xmlns="http://www.w3.org/2000/svg">
<g id="hashtag">
<path id="Vector" d="M20 15H18.6875L20 4.5C20 3.9475 19.5525 3.5 19 3.5H17C16.4475 3.5 16 3.9475 16 4.5L14.6875 15H4C3.4475 15 3 15.4475 3 16V18C3 18.552 3.4475 19 4 19H14.1875L14 20.5C14 21.052 14.4475 21.5 15 21.5H17C17.5525 21.5 18 21.052 18 20.5L18.1875 19H20C20.5525 19 21 18.552 21 18V16C21 15.4475 20.5525 15 20 15Z" fill="url(#paint0_linear_206_6783)"/>
<path id="Vector_2" d="M21 6H10.8125L11 4.5C11 3.9475 10.5525 3.5 10 3.5H8C7.4475 3.5 7 3.9475 7 4.5L6.8125 6H5C4.4475 6 4 6.4475 4 7V9C4 9.552 4.4475 10 5 10H6.3125L5 20.5C5 21.052 5.4475 21.5 6 21.5H8C8.5525 21.5 9 21.052 9 20.5L10.3125 10H21C21.5525 10 22 9.552 22 9V7C22 6.4475 21.5525 6 21 6Z" fill="url(#paint1_linear_206_6783)"/>
</g>
<defs>
<linearGradient id="paint0_linear_206_6783" x1="12" y1="3.46224" x2="12" y2="21.435" gradientUnits="userSpaceOnUse">
<stop stop-color="#2AA4F4"/>
<stop offset="1" stop-color="#007AD9"/>
</linearGradient>
<linearGradient id="paint1_linear_206_6783" x1="13" y1="3.46224" x2="13" y2="21.435" gradientUnits="userSpaceOnUse">
<stop stop-color="#2AA4F4"/>
<stop offset="1" stop-color="#007AD9"/>
</linearGradient>
</defs>
</svg>
