<svg width="24" height="24" viewBox="0 0 24 24" fill="none" xmlns="http://www.w3.org/2000/svg">
<g id="header-2">
<path id="Vector" d="M11.5 19H9.4995C9.2235 19 9 18.776 9 18.5V13H3L2.9995 18.5C2.9995 18.776 2.7755 19 2.4995 19H0.5C0.224 19 0 18.776 0 18.5V5.5C0 5.224 0.224 5 0.5 5H2.4995C2.7755 5 2.9995 5.224 2.9995 5.5L3 10.5H9V5.5C9 5.224 9.2235 5 9.4995 5H11.5C11.776 5 12 5.224 12 5.5V18.5C12 18.776 11.776 19 11.5 19Z" fill="url(#paint0_linear_206_6786)"/>
<path id="Vector_2" d="M18 16.5H23.5C23.776 16.5 24 16.724 24 17V18.5C24 18.776 23.776 19 23.5 19H15C14.724 19 14.5 18.776 14.5 18.5V17.9445C14.5 17.228 14.6225 16.5845 14.8675 16.0145C15.1125 15.4445 15.4205 14.933 15.792 14.48C16.163 14.027 16.5685 13.6265 17.0095 13.278C17.4495 12.9295 17.869 12.615 18.2665 12.335C18.6845 12.0415 19.05 11.7615 19.3645 11.4945C19.6795 11.2275 19.9445 10.962 20.1595 10.698C20.3745 10.434 20.5355 10.167 20.6415 9.8965C20.7475 9.626 20.8 9.338 20.8 9.0315C20.8 8.432 20.628 7.9795 20.2835 7.673C19.939 7.3665 19.4125 7.2135 18.7035 7.2135C17.6185 7.2135 16.429 7.642 15.3935 8.405C15.23 8.525 15 8.404 15 8.2015V6.2845C15 6.108 15.09 5.941 15.2425 5.8525C16.442 5.1545 17.922 4.75 19.379 4.75C20.101 4.75 20.749 4.843 21.322 5.0285C21.895 5.2145 22.38 5.48 22.778 5.825C23.1755 6.1705 23.478 6.589 23.687 7.0805C23.895 7.573 24 8.122 24 8.728C24 9.373 23.8985 9.9465 23.6965 10.448C23.4945 10.95 23.2265 11.406 22.892 11.8165C22.557 12.227 22.1715 12.6035 21.734 12.9455C21.297 13.2875 20.843 13.6185 20.3725 13.9375C20.0545 14.159 19.748 14.379 19.4535 14.5975C19.1585 14.816 18.8985 15.031 18.6735 15.2425C18.448 15.4545 18.269 15.661 18.137 15.863C18.004 16.0645 18 16.3175 18 16.5Z" fill="url(#paint1_linear_206_6786)"/>
</g>
<defs>
<linearGradient id="paint0_linear_206_6786" x1="6" y1="4.97063" x2="6" y2="18.9495" gradientUnits="userSpaceOnUse">
<stop stop-color="#2AA4F4"/>
<stop offset="1" stop-color="#007AD9"/>
</linearGradient>
<linearGradient id="paint1_linear_206_6786" x1="19.25" y1="4.72011" x2="19.25" y2="18.9486" gradientUnits="userSpaceOnUse">
<stop stop-color="#2AA4F4"/>
<stop offset="1" stop-color="#007AD9"/>
</linearGradient>
</defs>
</svg>
