<svg width="24" height="24" viewBox="0 0 24 24" fill="none" xmlns="http://www.w3.org/2000/svg">
<g id="heart-with-pulse">
<path id="Vector" d="M12 6.125C12 6.125 14.3505 3.5 17.25 3.5C20.1495 3.5 22.5 5.8825 22.5 8.75C22.5 13.6845 14.767 19.319 12.5735 20.8175C12.226 21.055 11.774 21.055 11.4265 20.8175C9.233 19.319 1.5 13.6845 1.5 8.75C1.5 5.8825 3.8505 3.5 6.75 3.5C9.6495 3.5 12 6.125 12 6.125Z" fill="url(#paint0_linear_206_6800)"/>
<path id="Vector_2" d="M13.335 14.118C13.3905 14.299 13.5445 14.433 13.7315 14.4635C13.916 14.4925 14.107 14.416 14.218 14.263L15.1305 13H17.25C17.5265 13 17.75 12.776 17.75 12.5C17.75 12.224 17.5265 12 17.25 12H14.875C14.7145 12 14.564 12.077 14.4695 12.2075L13.994 12.8655L13.1025 9.982C13.0395 9.777 12.8525 9.6355 12.638 9.63C12.4255 9.6215 12.23 9.7555 12.1555 9.957L10.5595 14.2865L9.62 7.7415C9.5875 7.5135 9.403 7.338 9.1745 7.315C8.9415 7.2905 8.7305 7.4285 8.6535 7.645L7.0465 12.1675L5.726 10.2195C5.627 10.074 5.458 9.989 5.285 10.0005C5.1095 10.01 4.9525 10.1105 4.8705 10.265L3.949 12H2.4515C2.634 12.3355 2.8375 12.669 3.0595 13H4.25C4.435 13 4.605 12.898 4.6915 12.7345L5.365 11.4675L6.7735 13.5465C6.879 13.7025 7.059 13.787 7.251 13.762C7.438 13.7385 7.5955 13.611 7.6585 13.4335L8.918 9.8885L9.8505 16.3835C9.883 16.61 10.0655 16.7855 10.293 16.81C10.311 16.8115 10.3285 16.8125 10.346 16.8125C10.553 16.8125 10.7415 16.6835 10.815 16.4855L12.5835 11.688L13.335 14.118Z" fill="#FFEBEE"/>
<path id="Vector_3" d="M17.5 11.5C16.9475 11.5 16.5 11.9475 16.5 12.5C16.5 13.0525 16.9475 13.5 17.5 13.5C18.0525 13.5 18.5 13.0525 18.5 12.5C18.5 11.9475 18.0525 11.5 17.5 11.5Z" fill="#FFEBEE"/>
</g>
<defs>
<linearGradient id="paint0_linear_206_6800" x1="7.7975" y1="2.4335" x2="17.6665" y2="17.632" gradientUnits="userSpaceOnUse">
<stop stop-color="#F44F5A"/>
<stop offset="0.443" stop-color="#EE3D4A"/>
<stop offset="1" stop-color="#E52030"/>
</linearGradient>
</defs>
</svg>
