<svg width="24" height="24" viewBox="0 0 24 24" fill="none" xmlns="http://www.w3.org/2000/svg">
<g id="heat-map">
<path id="Vector" d="M8 5.5C8 6.052 7.552 6.5 7 6.5C6.448 6.5 6 6.052 6 5.5C6 4.948 6.448 4.5 7 4.5C7.552 4.5 8 4.948 8 5.5Z" fill="url(#paint0_linear_206_6804)"/>
<path id="Vector_2" d="M13.5 5.5C13.5 6.6045 12.6045 7.5 11.5 7.5C10.3955 7.5 9.5 6.6045 9.5 5.5C9.5 4.3955 10.3955 3.5 11.5 3.5C12.6045 3.5 13.5 4.3955 13.5 5.5Z" fill="url(#paint1_linear_206_6804)"/>
<path id="Vector_3" d="M21 16.5C21 17.6045 20.1045 18.5 19 18.5C17.8955 18.5 17 17.6045 17 16.5C17 15.3955 17.8955 14.5 19 14.5C20.1045 14.5 21 15.3955 21 16.5Z" fill="url(#paint2_linear_206_6804)"/>
<path id="Vector_4" d="M17.5 11C17.5 11.8285 16.8285 12.5 16 12.5C15.1715 12.5 14.5 11.8285 14.5 11C14.5 10.1715 15.1715 9.5 16 9.5C16.8285 9.5 17.5 10.1715 17.5 11Z" fill="url(#paint3_linear_206_6804)"/>
<path id="Vector_5" d="M12.5 16.5C12.5 17.3285 11.8285 18 11 18C10.1715 18 9.5 17.3285 9.5 16.5C9.5 15.6715 10.1715 15 11 15C11.8285 15 12.5 15.6715 12.5 16.5Z" fill="url(#paint4_linear_206_6804)"/>
<path id="Vector_6" d="M8 11C8 11.552 7.552 12 7 12C6.448 12 6 11.552 6 11C6 10.448 6.448 10 7 10C7.552 10 8 10.448 8 11Z" fill="url(#paint5_linear_206_6804)"/>
<path id="Vector_7" d="M8 16.5C8 17.052 7.552 17.5 7 17.5C6.448 17.5 6 17.052 6 16.5C6 15.948 6.448 15.5 7 15.5C7.552 15.5 8 15.948 8 16.5Z" fill="url(#paint6_linear_206_6804)"/>
<path id="Vector_8" d="M16 16.5C16 17.052 15.552 17.5 15 17.5C14.448 17.5 14 17.052 14 16.5C14 15.948 14.448 15.5 15 15.5C15.552 15.5 16 15.948 16 16.5Z" fill="url(#paint7_linear_206_6804)"/>
<path id="Vector_9" d="M20.5 11C20.5 11.552 20.052 12 19.5 12C18.948 12 18.5 11.552 18.5 11C18.5 10.448 18.948 10 19.5 10C20.052 10 20.5 10.448 20.5 11Z" fill="url(#paint8_linear_206_6804)"/>
<path id="Vector_10" d="M20.5 5.5C20.5 6.052 20.052 6.5 19.5 6.5C18.948 6.5 18.5 6.052 18.5 5.5C18.5 4.948 18.948 4.5 19.5 4.5C20.052 4.5 20.5 4.948 20.5 5.5Z" fill="url(#paint9_linear_206_6804)"/>
<path id="Vector_11" d="M17 5.5C17 6.052 16.552 6.5 16 6.5C15.448 6.5 15 6.052 15 5.5C15 4.948 15.448 4.5 16 4.5C16.552 4.5 17 4.948 17 5.5Z" fill="url(#paint10_linear_206_6804)"/>
<path id="Vector_12" d="M21.5 21H3.5C3.224 21 3 20.776 3 20.5V2.5C3 2.224 3.224 2 3.5 2C3.776 2 4 2.224 4 2.5V20H21.5C21.776 20 22 20.224 22 20.5C22 20.776 21.776 21 21.5 21Z" fill="#ABB4BE"/>
</g>
<defs>
<linearGradient id="paint0_linear_206_6804" x1="6.55" y1="4.6245" x2="7.479" y2="6.4325" gradientUnits="userSpaceOnUse">
<stop stop-color="#33BEF0"/>
<stop offset="1" stop-color="#0A85D9"/>
</linearGradient>
<linearGradient id="paint1_linear_206_6804" x1="10.6005" y1="3.7495" x2="12.4585" y2="7.3645" gradientUnits="userSpaceOnUse">
<stop stop-color="#33BEF0"/>
<stop offset="1" stop-color="#0A85D9"/>
</linearGradient>
<linearGradient id="paint2_linear_206_6804" x1="18.1" y1="14.7495" x2="19.9585" y2="18.3645" gradientUnits="userSpaceOnUse">
<stop stop-color="#33BEF0"/>
<stop offset="1" stop-color="#0A85D9"/>
</linearGradient>
<linearGradient id="paint3_linear_206_6804" x1="15.325" y1="9.687" x2="16.719" y2="12.3985" gradientUnits="userSpaceOnUse">
<stop stop-color="#33BEF0"/>
<stop offset="1" stop-color="#0A85D9"/>
</linearGradient>
<linearGradient id="paint4_linear_206_6804" x1="10.325" y1="15.187" x2="11.719" y2="17.8985" gradientUnits="userSpaceOnUse">
<stop stop-color="#33BEF0"/>
<stop offset="1" stop-color="#0A85D9"/>
</linearGradient>
<linearGradient id="paint5_linear_206_6804" x1="6.55" y1="10.1245" x2="7.479" y2="11.9325" gradientUnits="userSpaceOnUse">
<stop stop-color="#33BEF0"/>
<stop offset="1" stop-color="#0A85D9"/>
</linearGradient>
<linearGradient id="paint6_linear_206_6804" x1="6.55" y1="15.6245" x2="7.479" y2="17.4325" gradientUnits="userSpaceOnUse">
<stop stop-color="#33BEF0"/>
<stop offset="1" stop-color="#0A85D9"/>
</linearGradient>
<linearGradient id="paint7_linear_206_6804" x1="14.55" y1="15.6245" x2="15.479" y2="17.4325" gradientUnits="userSpaceOnUse">
<stop stop-color="#33BEF0"/>
<stop offset="1" stop-color="#0A85D9"/>
</linearGradient>
<linearGradient id="paint8_linear_206_6804" x1="19.05" y1="10.1245" x2="19.979" y2="11.9325" gradientUnits="userSpaceOnUse">
<stop stop-color="#33BEF0"/>
<stop offset="1" stop-color="#0A85D9"/>
</linearGradient>
<linearGradient id="paint9_linear_206_6804" x1="19.05" y1="4.6245" x2="19.979" y2="6.4325" gradientUnits="userSpaceOnUse">
<stop stop-color="#33BEF0"/>
<stop offset="1" stop-color="#0A85D9"/>
</linearGradient>
<linearGradient id="paint10_linear_206_6804" x1="15.55" y1="4.6245" x2="16.479" y2="6.4325" gradientUnits="userSpaceOnUse">
<stop stop-color="#33BEF0"/>
<stop offset="1" stop-color="#0A85D9"/>
</linearGradient>
</defs>
</svg>
