<svg width="24" height="24" viewBox="0 0 24 24" fill="none" xmlns="http://www.w3.org/2000/svg">
<g id="high-priority-message">
<path id="Vector" d="M21 4H3C2.45 4 2 4.45 2 5V18C2 18.55 2.45 19 3 19H7V23C7 23.45 7.55 23.65 7.85 23.35L12.2 19H21C21.55 19 22 18.55 22 18V5C22 4.45 21.55 4 21 4Z" fill="url(#paint0_linear_206_6838)"/>
<path id="Vector_2" opacity="0.05" d="M19.2 12.7C19.1 12.5 18.8 12.15 18.25 12.15C17.75 12.15 17.4 12.5 17.35 12.65L13.35 19H21C21.55 19 22 18.55 22 18V17.15L19.2 12.7Z" fill="black"/>
<path id="Vector_3" opacity="0.07" d="M18.95 12.8C18.85 12.65 18.65 12.35 18.25 12.35C17.85 12.35 17.6 12.6 17.55 12.75L13.65 19H21C21.55 19 22 18.55 22 18V17.65L18.95 12.8Z" fill="black"/>
<path id="Vector_4" d="M23.9 21.15L18.75 12.9C18.75 12.9 18.6 12.6 18.25 12.6C17.9 12.6 17.75 12.9 17.75 12.9L12.6 21.15C12.6 21.15 12.5 21.3 12.5 21.45C12.5 21.75 12.75 22 13.05 22H23.45C23.75 22 24 21.75 24 21.45C24 21.25 23.9 21.15 23.9 21.15Z" fill="url(#paint1_linear_206_6838)"/>
<path id="Vector_5" d="M18.25 21C18.05 21 17.85 20.95 17.7 20.8C17.55 20.65 17.5 20.45 17.5 20.25C17.5 20.05 17.55 19.85 17.7 19.7C17.85 19.55 18 19.5 18.25 19.5C18.45 19.5 18.65 19.55 18.8 19.7C18.95 19.85 19 20 19 20.25C19 20.45 18.95 20.65 18.8 20.8C18.65 20.95 18.5 21 18.25 21Z" fill="url(#paint2_radial_206_6838)"/>
<path id="Vector_6" d="M19 15.7L18.85 18.85C18.85 18.95 18.75 19 18.6 19H17.85C17.75 19 17.6 18.9 17.6 18.85L17.5 15.7C17.5 15.6 17.6 15.5 17.75 15.5H18.8C18.9 15.5 19 15.6 19 15.7Z" fill="url(#paint3_radial_206_6838)"/>
</g>
<defs>
<linearGradient id="paint0_linear_206_6838" x1="6.343" y1="2.296" x2="17.79" y2="20.9205" gradientUnits="userSpaceOnUse">
<stop stop-color="#33BEF0"/>
<stop offset="1" stop-color="#0A85D9"/>
</linearGradient>
<linearGradient id="paint1_linear_206_6838" x1="-72.8605" y1="-84.2035" x2="21.7835" y2="24.3455" gradientUnits="userSpaceOnUse">
<stop stop-color="#FFDA1C"/>
<stop offset="1" stop-color="#FEB705"/>
</linearGradient>
<radialGradient id="paint2_radial_206_6838" cx="0" cy="0" r="1" gradientUnits="userSpaceOnUse" gradientTransform="translate(16.515 19.4847) scale(2.901 3.2175)">
<stop stop-color="#4B4B4B"/>
<stop offset="0.531" stop-color="#393939"/>
<stop offset="1" stop-color="#252525"/>
</radialGradient>
<radialGradient id="paint3_radial_206_6838" cx="0" cy="0" r="1" gradientUnits="userSpaceOnUse" gradientTransform="translate(16.5024 15.4667) scale(5.34704 4.11967)">
<stop stop-color="#4B4B4B"/>
<stop offset="0.531" stop-color="#393939"/>
<stop offset="1" stop-color="#252525"/>
</radialGradient>
</defs>
</svg>
