<?xml version="1.0" encoding="UTF-8"?>
<svg xmlns="http://www.w3.org/2000/svg" xmlns:xlink="http://www.w3.org/1999/xlink" viewBox="0 0 24 24" width="24px" height="24px">
<defs>
<linearGradient id="linear0" gradientUnits="userSpaceOnUse" x1="23" y1="6.725" x2="23" y2="14.508" gradientTransform="matrix(0.4375,0,0,0.4375,1.5,1.5)">
<stop offset="0" style="stop-color:rgb(92.156863%,65.098041%,0%);stop-opacity:1;"/>
<stop offset="1" style="stop-color:rgb(76.078433%,50.980395%,0%);stop-opacity:1;"/>
</linearGradient>
<linearGradient id="linear1" gradientUnits="userSpaceOnUse" x1="24" y1="10.854" x2="24" y2="40.983002" gradientTransform="matrix(0.4375,0,0,0.4375,1.5,1.5)">
<stop offset="0" style="stop-color:rgb(100%,84.705883%,41.176471%);stop-opacity:1;"/>
<stop offset="1" style="stop-color:rgb(99.607843%,77.254903%,16.862746%);stop-opacity:1;"/>
</linearGradient>
<radialGradient id="radial0" gradientUnits="userSpaceOnUse" cx="38" cy="38.054001" fx="38" fy="38.054001" r="11.802" gradientTransform="matrix(0.4375,0,0,0.4375,1.5,1.5)">
<stop offset="0" style="stop-color:rgb(0%,0%,0%);stop-opacity:1;"/>
<stop offset="1" style="stop-color:rgb(0%,0%,0%);stop-opacity:0;"/>
</radialGradient>
<linearGradient id="linear2" gradientUnits="userSpaceOnUse" x1="31.125" y1="31.382" x2="33.650002" y2="41.153" gradientTransform="matrix(0.4375,0,0,0.4375,1.5,1.5)">
<stop offset="0" style="stop-color:rgb(94.901961%,94.901961%,94.901961%);stop-opacity:1;"/>
<stop offset="0.148" style="stop-color:rgb(93.333334%,94.509804%,93.725491%);stop-opacity:1;"/>
<stop offset="0.282" style="stop-color:rgb(89.411765%,92.54902%,90.980393%);stop-opacity:1;"/>
<stop offset="0.409" style="stop-color:rgb(81.960785%,89.411765%,85.490197%);stop-opacity:1;"/>
<stop offset="0.533" style="stop-color:rgb(58.823532%,74.901962%,87.843138%);stop-opacity:1;"/>
<stop offset="0.654" style="stop-color:rgb(58.823532%,76.47059%,80.000001%);stop-opacity:1;"/>
<stop offset="0.773" style="stop-color:rgb(42.745098%,66.666669%,73.333335%);stop-opacity:1;"/>
<stop offset="0.889" style="stop-color:rgb(24.313726%,45.882353%,65.490198%);stop-opacity:1;"/>
<stop offset="1" style="stop-color:rgb(12.156863%,46.666667%,71.372551%);stop-opacity:1;"/>
</linearGradient>
</defs>
<g id="surface30591694">
<path style=" stroke:none;fill-rule:nonzero;fill:url(#linear0);" d="M 12.179688 6.054688 L 11.070312 4.945312 C 10.824219 4.699219 10.492188 4.5625 10.144531 4.5625 L 4.125 4.5625 C 3.640625 4.5625 3.25 4.953125 3.25 5.4375 L 3.25 8.28125 L 4.125 17.6875 C 4.125 18.171875 4.515625 18.5625 5 18.5625 L 19 18.5625 C 19.484375 18.5625 19.875 18.171875 19.875 17.6875 L 19.875 7.625 C 19.875 7.140625 19.484375 6.75 19 6.75 L 12.800781 6.3125 C 12.566406 6.3125 12.34375 6.21875 12.179688 6.054688 Z M 12.179688 6.054688 "/>
<path style=" stroke:none;fill-rule:nonzero;fill:url(#linear1);" d="M 10.945312 7.804688 L 12.375 6.375 C 12.414062 6.335938 12.46875 6.3125 12.527344 6.3125 L 19.875 6.3125 C 20.359375 6.3125 20.75 6.703125 20.75 7.1875 L 20.75 18.5625 C 20.75 19.046875 20.359375 19.4375 19.875 19.4375 L 4.125 19.4375 C 3.640625 19.4375 3.25 19.046875 3.25 18.5625 L 3.25 8.28125 C 3.25 8.160156 3.347656 8.0625 3.46875 8.0625 L 10.324219 8.0625 C 10.558594 8.0625 10.78125 7.96875 10.945312 7.804688 Z M 10.945312 7.804688 "/>
<path style=" stroke:none;fill-rule:nonzero;fill:url(#radial0);" d="M 20.75 13.574219 L 20.75 18.5625 C 20.75 19.042969 20.355469 19.4375 19.875 19.4375 L 13.042969 19.4375 C 12.933594 19.015625 12.875 18.578125 12.875 18.125 C 12.875 15.222656 15.222656 12.875 18.125 12.875 C 19.082031 12.875 19.980469 13.128906 20.75 13.574219 Z M 20.75 13.574219 "/>
<path style=" stroke:none;fill-rule:nonzero;fill:rgb(12.156863%,46.666667%,71.372551%);fill-opacity:1;" d="M 22.5 18.125 C 22.5 20.539062 20.539062 22.5 18.125 22.5 C 15.710938 22.5 13.75 20.539062 13.75 18.125 C 13.75 15.710938 15.710938 13.75 18.125 13.75 C 20.539062 13.75 22.5 15.710938 22.5 18.125 Z M 22.5 18.125 "/>
<path style=" stroke:none;fill-rule:nonzero;fill:url(#linear2);" d="M 18.125 18.125 L 15.0625 21.25 C 13.335938 19.558594 13.308594 16.789062 15 15.0625 Z M 18.125 18.125 "/>
<path style=" stroke:none;fill-rule:nonzero;fill:rgb(94.901961%,94.901961%,94.901961%);fill-opacity:1;" d="M 21.625 18.125 C 21.625 20.058594 20.058594 21.625 18.125 21.625 C 16.191406 21.625 14.625 20.058594 14.625 18.125 C 14.625 16.191406 16.191406 14.625 18.125 14.625 C 20.058594 14.625 21.625 16.191406 21.625 18.125 Z M 21.625 18.125 "/>
<path style=" stroke:none;fill-rule:nonzero;fill:rgb(84.705883%,23.137255%,0.392157%);fill-opacity:1;" d="M 18.125 20.914062 C 18.035156 20.914062 17.960938 20.839844 17.960938 20.75 L 17.960938 18.125 C 17.960938 18.035156 18.035156 17.960938 18.125 17.960938 C 18.214844 17.960938 18.289062 18.035156 18.289062 18.125 L 18.289062 20.75 C 18.289062 20.839844 18.214844 20.914062 18.125 20.914062 Z M 18.125 20.914062 "/>
<path style=" stroke:none;fill-rule:nonzero;fill:rgb(27.058825%,28.627452%,30.19608%);fill-opacity:1;" d="M 18.125 18.289062 C 18.082031 18.289062 18.039062 18.273438 18.007812 18.242188 C 17.945312 18.175781 17.945312 18.074219 18.007812 18.007812 L 19.867188 16.152344 C 19.929688 16.089844 20.035156 16.089844 20.097656 16.152344 C 20.160156 16.214844 20.160156 16.320312 20.097656 16.382812 L 18.242188 18.242188 C 18.210938 18.273438 18.167969 18.289062 18.125 18.289062 Z M 18.125 18.289062 "/>
<path style=" stroke:none;fill-rule:nonzero;fill:rgb(27.058825%,28.627452%,30.19608%);fill-opacity:1;" d="M 18.125 18.398438 C 18.085938 18.398438 18.046875 18.390625 18.007812 18.371094 L 16.304688 17.554688 C 16.167969 17.488281 16.109375 17.324219 16.175781 17.1875 C 16.242188 17.054688 16.402344 16.996094 16.539062 17.0625 L 18.242188 17.878906 C 18.378906 17.945312 18.4375 18.105469 18.371094 18.242188 C 18.324219 18.339844 18.226562 18.398438 18.125 18.398438 Z M 18.125 18.398438 "/>
<path style=" stroke:none;fill-rule:nonzero;fill:rgb(11.764706%,12.54902%,12.941177%);fill-opacity:1;" d="M 18.5625 18.125 C 18.5625 18.367188 18.367188 18.5625 18.125 18.5625 C 17.882812 18.5625 17.6875 18.367188 17.6875 18.125 C 17.6875 17.882812 17.882812 17.6875 18.125 17.6875 C 18.367188 17.6875 18.5625 17.882812 18.5625 18.125 Z M 18.5625 18.125 "/>
<path style=" stroke:none;fill-rule:nonzero;fill:rgb(12.156863%,46.666667%,71.372551%);fill-opacity:1;" d="M 16.203125 16.207031 L 14.382812 16.347656 C 14.269531 16.355469 14.175781 16.253906 14.199219 16.140625 L 14.527344 14.347656 C 14.550781 14.203125 14.730469 14.152344 14.832031 14.261719 L 16.320312 15.914062 C 16.417969 16.023438 16.347656 16.195312 16.203125 16.207031 Z M 16.203125 16.207031 "/>
</g>
</svg>
