<?xml version="1.0" encoding="UTF-8"?>
<svg xmlns="http://www.w3.org/2000/svg" xmlns:xlink="http://www.w3.org/1999/xlink" viewBox="0 0 24 24" width="24px" height="24px">
<defs>
<linearGradient id="linear0" gradientUnits="userSpaceOnUse" x1="10.251" y1="10.763" x2="15.3" y2="30.306999" gradientTransform="matrix(0.4375,0,0,0.4375,1.5,1.5)">
<stop offset="0" style="stop-color:rgb(94.901961%,94.901961%,94.901961%);stop-opacity:1;"/>
<stop offset="0.148" style="stop-color:rgb(93.333334%,94.509804%,93.725491%);stop-opacity:1;"/>
<stop offset="0.282" style="stop-color:rgb(89.411765%,92.54902%,90.980393%);stop-opacity:1;"/>
<stop offset="0.409" style="stop-color:rgb(74.901962%,80.784315%,85.490197%);stop-opacity:1;"/>
<stop offset="0.533" style="stop-color:rgb(20%,60.392159%,94.117647%);stop-opacity:1;"/>
<stop offset="0.654" style="stop-color:rgb(20%,60.392159%,94.117647%);stop-opacity:1;"/>
<stop offset="0.773" style="stop-color:rgb(20%,60.392159%,94.117647%);stop-opacity:1;"/>
<stop offset="0.889" style="stop-color:rgb(20%,60.392159%,94.117647%);stop-opacity:1;"/>
<stop offset="1" style="stop-color:rgb(20%,60.392159%,94.117647%);stop-opacity:1;"/>
</linearGradient>
</defs>
<g id="surface30661018">
<path style=" stroke:none;fill-rule:nonzero;fill:rgb(20%,60.392159%,94.117647%);fill-opacity:1;" d="M 20.75 12 C 20.75 16.832031 16.832031 20.75 12 20.75 C 7.167969 20.75 3.25 16.832031 3.25 12 C 3.25 7.167969 7.167969 3.25 12 3.25 C 16.832031 3.25 20.75 7.167969 20.75 12 Z M 20.75 12 "/>
<path style=" stroke:none;fill-rule:nonzero;fill:url(#linear0);" d="M 12 12 L 5.875 18.25 C 2.425781 14.867188 2.367188 9.324219 5.75 5.875 Z M 12 12 "/>
<path style=" stroke:none;fill-rule:nonzero;fill:rgb(94.901961%,94.901961%,94.901961%);fill-opacity:1;" d="M 19.4375 12 C 19.4375 16.109375 16.109375 19.4375 12 19.4375 C 7.890625 19.4375 4.5625 16.109375 4.5625 12 C 4.5625 7.890625 7.890625 4.5625 12 4.5625 C 16.109375 4.5625 19.4375 7.890625 19.4375 12 Z M 19.4375 12 "/>
<path style=" stroke:none;fill-rule:nonzero;fill:rgb(100%,80.000001%,18.82353%);fill-opacity:1;" d="M 12 17.578125 C 11.820312 17.578125 11.671875 17.429688 11.671875 17.25 L 11.671875 12 C 11.671875 11.820312 11.820312 11.671875 12 11.671875 C 12.179688 11.671875 12.328125 11.820312 12.328125 12 L 12.328125 17.25 C 12.328125 17.429688 12.179688 17.578125 12 17.578125 Z M 12 17.578125 "/>
<path style=" stroke:none;fill-rule:nonzero;fill:rgb(27.058825%,28.627452%,30.19608%);fill-opacity:1;" d="M 12 12.328125 C 11.914062 12.328125 11.832031 12.296875 11.769531 12.230469 C 11.640625 12.105469 11.640625 11.894531 11.769531 11.769531 L 15.480469 8.054688 C 15.609375 7.925781 15.816406 7.925781 15.945312 8.054688 C 16.074219 8.183594 16.074219 8.390625 15.945312 8.519531 L 12.230469 12.230469 C 12.167969 12.296875 12.085938 12.328125 12 12.328125 Z M 12 12.328125 "/>
<path style=" stroke:none;fill-rule:nonzero;fill:rgb(27.058825%,28.627452%,30.19608%);fill-opacity:1;" d="M 12 12.546875 C 11.921875 12.546875 11.839844 12.53125 11.761719 12.492188 L 8.355469 10.859375 C 8.082031 10.726562 7.96875 10.402344 8.101562 10.128906 C 8.230469 9.855469 8.558594 9.742188 8.828125 9.871094 L 12.234375 11.507812 C 12.507812 11.636719 12.625 11.964844 12.492188 12.238281 C 12.398438 12.433594 12.203125 12.546875 12 12.546875 Z M 12 12.546875 "/>
<path style=" stroke:none;fill-rule:nonzero;fill:rgb(11.764706%,12.54902%,12.941177%);fill-opacity:1;" d="M 12.875 12 C 12.875 12.484375 12.484375 12.875 12 12.875 C 11.515625 12.875 11.125 12.484375 11.125 12 C 11.125 11.515625 11.515625 11.125 12 11.125 C 12.484375 11.125 12.875 11.515625 12.875 12 Z M 12.875 12 "/>
<path style=" stroke:none;fill-rule:nonzero;fill:rgb(20%,60.392159%,94.117647%);fill-opacity:1;" d="M 9.0625 7.171875 L 5.378906 7.648438 C 5.144531 7.679688 4.945312 7.480469 4.976562 7.246094 L 5.453125 3.5625 C 5.492188 3.265625 5.851562 3.144531 6.0625 3.355469 L 9.269531 6.5625 C 9.480469 6.773438 9.359375 7.132812 9.0625 7.171875 Z M 9.0625 7.171875 "/>
</g>
</svg>
