<svg width="24" height="24" viewBox="0 0 24 24" fill="none" xmlns="http://www.w3.org/2000/svg">
<g id="hospital-folder">
<path id="Vector" d="M12.207 5.207L10.939 3.939C10.658 3.658 10.2765 3.5 9.8785 3.5H2.5C1.9475 3.5 1.5 3.9475 1.5 4.5V19.5C1.5 20.0525 1.9475 20.5 2.5 20.5H21.5C22.0525 20.5 22.5 20.0525 22.5 19.5V6.5C22.5 5.9475 22.0525 5.5 21.5 5.5H12.914C12.649 5.5 12.3945 5.3945 12.207 5.207Z" fill="url(#paint0_linear_206_6854)"/>
<path id="Vector_2" d="M10.793 7.207L12.427 5.573C12.4735 5.5265 12.537 5.5 12.6035 5.5H21.5C22.0525 5.5 22.5 5.9475 22.5 6.5V19.5C22.5 20.0525 22.0525 20.5 21.5 20.5H2.5C1.9475 20.5 1.5 20.0525 1.5 19.5V7.75C1.5 7.612 1.612 7.5 1.75 7.5H10.086C10.351 7.5 10.6055 7.3945 10.793 7.207Z" fill="url(#paint1_linear_206_6854)"/>
<path id="Vector_3" d="M12 19C14.7614 19 17 16.7614 17 14C17 11.2386 14.7614 9 12 9C9.23858 9 7 11.2386 7 14C7 16.7614 9.23858 19 12 19Z" fill="url(#paint2_linear_206_6854)"/>
<path id="Vector_4" d="M13.3075 14L14.8875 12.8935C15.0005 12.8145 15.028 12.6585 14.949 12.5455L14.3755 11.7265C14.2965 11.6135 14.1405 11.586 14.0275 11.665L12.75 12.5595V11C12.75 10.862 12.638 10.75 12.5 10.75H11.5C11.362 10.75 11.25 10.862 11.25 11V12.5595L9.9725 11.665C9.8595 11.586 9.7035 11.6135 9.6245 11.7265L9.051 12.5455C8.972 12.6585 8.9995 12.8145 9.1125 12.8935L10.6925 14L9.1125 15.1065C8.9995 15.1855 8.972 15.3415 9.051 15.4545L9.6245 16.2735C9.7035 16.3865 9.8595 16.414 9.9725 16.335L11.25 15.4405V17C11.25 17.138 11.362 17.25 11.5 17.25H12.5C12.638 17.25 12.75 17.138 12.75 17V15.4405L14.0275 16.335C14.1405 16.414 14.2965 16.3865 14.3755 16.2735L14.949 15.4545C15.028 15.3415 15.0005 15.1855 14.8875 15.1065L13.3075 14Z" fill="white"/>
</g>
<defs>
<linearGradient id="paint0_linear_206_6854" x1="12" y1="3.354" x2="12" y2="7.4885" gradientUnits="userSpaceOnUse">
<stop stop-color="#EBA600"/>
<stop offset="1" stop-color="#C28200"/>
</linearGradient>
<linearGradient id="paint1_linear_206_6854" x1="12" y1="5.427" x2="12" y2="20.4915" gradientUnits="userSpaceOnUse">
<stop stop-color="#FFD869"/>
<stop offset="1" stop-color="#FEC52B"/>
</linearGradient>
<linearGradient id="paint2_linear_206_6854" x1="10.974" y1="9.06" x2="12.9625" y2="18.633" gradientUnits="userSpaceOnUse">
<stop stop-color="#33BEF0"/>
<stop offset="1" stop-color="#22A5E2"/>
</linearGradient>
</defs>
</svg>
