<svg width="24" height="24" viewBox="0 0 24 24" fill="none" xmlns="http://www.w3.org/2000/svg">
<g id="identification-documents">
<path id="Vector" d="M3.5 4.5H20.5C21.0525 4.5 21.5 4.9475 21.5 5.5V18.5C21.5 19.0525 21.0525 19.5 20.5 19.5H3.5C2.9475 19.5 2.5 19.0525 2.5 18.5V5.5C2.5 4.9475 2.9475 4.5 3.5 4.5Z" fill="url(#paint0_linear_206_6872)"/>
<path id="Vector_2" opacity="0.05" d="M11 14.5C11 12.843 9.657 11.5 8 11.5C6.343 11.5 5 12.843 5 14.5V16C5 16.5525 5.4475 17 6 17H10C10.5525 17 11 16.5525 11 16V14.5Z" fill="black"/>
<path id="Vector_3" opacity="0.07" d="M8 11.75C6.481 11.75 5.25 12.981 5.25 14.5C5.25 14.557 5.25 16 5.25 16C5.25 16.414 5.586 16.75 6 16.75H10C10.414 16.75 10.75 16.414 10.75 16C10.75 16 10.75 14.5515 10.75 14.5C10.75 12.981 9.519 11.75 8 11.75Z" fill="black"/>
<path id="Vector_4" opacity="0.05" d="M18 10.5C17.817 10.5 13.183 10.5 13 10.5C12.4475 10.5 12 10.9475 12 11.5C12 12.0525 12.4475 12.5 13 12.5C13.183 12.5 17.817 12.5 18 12.5C18.5525 12.5 19 12.0525 19 11.5C19 10.9475 18.5525 10.5 18 10.5Z" fill="black"/>
<path id="Vector_5" opacity="0.07" d="M13 10.75C12.586 10.75 12.25 11.086 12.25 11.5C12.25 11.914 12.586 12.25 13 12.25C13.0915 12.25 17.9085 12.25 18 12.25C18.414 12.25 18.75 11.914 18.75 11.5C18.75 11.086 18.414 10.75 18 10.75C17.9085 10.75 13.0915 10.75 13 10.75Z" fill="black"/>
<path id="Vector_6" opacity="0.05" d="M18 13C17.817 13 13.183 13 13 13C12.4475 13 12 13.4475 12 14C12 14.5525 12.4475 15 13 15C13.183 15 17.817 15 18 15C18.5525 15 19 14.5525 19 14C19 13.4475 18.5525 13 18 13Z" fill="black"/>
<path id="Vector_7" opacity="0.07" d="M13 13.25C12.586 13.25 12.25 13.586 12.25 14C12.25 14.414 12.586 14.75 13 14.75C13.0915 14.75 17.9085 14.75 18 14.75C18.414 14.75 18.75 14.414 18.75 14C18.75 13.586 18.414 13.25 18 13.25C17.9085 13.25 13.0915 13.25 13 13.25Z" fill="black"/>
<path id="Vector_8" d="M8 11.5C9.10457 11.5 10 10.6046 10 9.5C10 8.39543 9.10457 7.5 8 7.5C6.89543 7.5 6 8.39543 6 9.5C6 10.6046 6.89543 11.5 8 11.5Z" fill="url(#paint1_radial_206_6872)"/>
<path id="Vector_9" d="M13.5 2.5H10.5C10.224 2.5 10 2.724 10 3V6C10 6.276 10.224 6.5 10.5 6.5H13.5C13.776 6.5 14 6.276 14 6V3C14 2.724 13.776 2.5 13.5 2.5ZM12 5.5C11.724 5.5 11.5 5.276 11.5 5C11.5 4.724 11.724 4.5 12 4.5C12.276 4.5 12.5 4.724 12.5 5C12.5 5.276 12.276 5.5 12 5.5Z" fill="url(#paint2_linear_206_6872)"/>
<path id="Vector_10" d="M6.5 9.5C6.5 8.6715 7.1715 8 8 8C8.8285 8 9.5 8.6715 9.5 9.5C9.5 10.3285 8.8285 11 8 11C7.1715 11 6.5 10.3285 6.5 9.5ZM8 12C6.6195 12 5.5 13.1195 5.5 14.5V16C5.5 16.276 5.724 16.5 6 16.5H10C10.276 16.5 10.5 16.276 10.5 16V14.5C10.5 13.1195 9.3805 12 8 12Z" fill="url(#paint3_linear_206_6872)"/>
<path id="Vector_11" d="M18 13.5H13C12.724 13.5 12.5 13.724 12.5 14C12.5 14.276 12.724 14.5 13 14.5H18C18.276 14.5 18.5 14.276 18.5 14C18.5 13.724 18.276 13.5 18 13.5Z" fill="url(#paint4_linear_206_6872)"/>
<path id="Vector_12" d="M18 11H13C12.724 11 12.5 11.224 12.5 11.5C12.5 11.776 12.724 12 13 12H18C18.276 12 18.5 11.776 18.5 11.5C18.5 11.224 18.276 11 18 11Z" fill="url(#paint5_linear_206_6872)"/>
</g>
<defs>
<linearGradient id="paint0_linear_206_6872" x1="10.6155" y1="4.222" x2="13.303" y2="19.3195" gradientUnits="userSpaceOnUse">
<stop stop-color="#0370C8"/>
<stop offset="0.484" stop-color="#036FC5"/>
<stop offset="0.775" stop-color="#036ABD"/>
<stop offset="1" stop-color="#0362B0"/>
</linearGradient>
<radialGradient id="paint1_radial_206_6872" cx="0" cy="0" r="1" gradientUnits="userSpaceOnUse" gradientTransform="translate(8 9.5) scale(2)">
<stop/>
<stop offset="0.009" stop-opacity="0.991"/>
<stop offset="1" stop-opacity="0"/>
</radialGradient>
<linearGradient id="paint2_linear_206_6872" x1="11.6445" y1="2.517" x2="12.4215" y2="6.852" gradientUnits="userSpaceOnUse">
<stop stop-color="#75DAFF"/>
<stop offset="1" stop-color="#1EA2E4"/>
</linearGradient>
<linearGradient id="paint3_linear_206_6872" x1="7.07643" y1="8.1305" x2="12.1779" y2="13.9164" gradientUnits="userSpaceOnUse">
<stop stop-color="#7DD8F3"/>
<stop offset="1" stop-color="#45B0D0"/>
</linearGradient>
<linearGradient id="paint4_linear_206_6872" x1="14.3917" y1="13.5154" x2="14.4955" y2="14.7163" gradientUnits="userSpaceOnUse">
<stop stop-color="#7DD8F3"/>
<stop offset="1" stop-color="#45B0D0"/>
</linearGradient>
<linearGradient id="paint5_linear_206_6872" x1="14.3917" y1="11.0154" x2="14.4955" y2="12.2163" gradientUnits="userSpaceOnUse">
<stop stop-color="#7DD8F3"/>
<stop offset="1" stop-color="#45B0D0"/>
</linearGradient>
</defs>
</svg>
