<svg width="24" height="24" viewBox="0 0 24 24" fill="none" xmlns="http://www.w3.org/2000/svg">
<g id="image-file">
<path id="Vector" d="M19.5 8V20.5C19.5 21.0525 19.0525 21.5 18.5 21.5H5.5C4.9475 21.5 4.5 21.0525 4.5 20.5V3.5C4.5 2.9475 4.9475 2.5 5.5 2.5H14L19.5 8Z" fill="url(#paint0_linear_206_6890)"/>
<path id="Vector_2" d="M14 2.5V7C14 7.5525 14.4475 8 15 8H19.5L14 2.5Z" fill="url(#paint1_linear_206_6890)"/>
<path id="Vector_3" d="M17 17L14.271 14.271C13.9345 13.9345 13.392 13.9275 13.0465 14.2545L10.3335 16.825V18H16.5C16.776 18 17 17.776 17 17.5V17Z" fill="url(#paint2_linear_206_6890)"/>
<path id="Vector_4" d="M15.5 13C16.0523 13 16.5 12.5523 16.5 12C16.5 11.4477 16.0523 11 15.5 11C14.9477 11 14.5 11.4477 14.5 12C14.5 12.5523 14.9477 13 15.5 13Z" fill="white"/>
<path id="Vector_5" d="M15.778 18L11.154 13.376C10.6975 12.9195 9.96 12.9095 9.4915 13.3535L7 15.7135V17C7 17.5525 7.4475 18 8 18H15.778Z" fill="url(#paint3_linear_206_6890)"/>
</g>
<defs>
<linearGradient id="paint0_linear_206_6890" x1="9.22929" y1="2.79171" x2="19.7783" y2="18.8491" gradientUnits="userSpaceOnUse">
<stop stop-color="#7DD8F3"/>
<stop offset="1" stop-color="#45B0D0"/>
</linearGradient>
<linearGradient id="paint1_linear_206_6890" x1="14.2645" y1="7.736" x2="16.8" y2="5.2" gradientUnits="userSpaceOnUse">
<stop stop-color="#3079D6"/>
<stop offset="1" stop-color="#297CD2"/>
</linearGradient>
<linearGradient id="paint2_linear_206_6890" x1="11.8104" y1="13.42" x2="13.8392" y2="18.4009" gradientUnits="userSpaceOnUse">
<stop stop-color="#FCFCFC"/>
<stop offset="0.95" stop-color="#C3C9CD"/>
</linearGradient>
<linearGradient id="paint3_linear_206_6890" x1="11.389" y1="13.016" x2="11.389" y2="18.0865" gradientUnits="userSpaceOnUse">
<stop stop-color="#124787"/>
<stop offset="0.923" stop-color="#173B75"/>
<stop offset="1" stop-color="#173A73"/>
</linearGradient>
</defs>
</svg>
