<svg width="24" height="24" viewBox="0 0 24 24" fill="none" xmlns="http://www.w3.org/2000/svg">
<g id="important-mail">
<path id="Vector" d="M4.5 13L22.5 5.84599V19C22.5 19.5525 22.0525 20 21.5 20H4.5V13Z" fill="url(#paint0_linear_206_6896)"/>
<path id="Vector_2" d="M1.5 5.84599V19C1.5 19.5525 1.9475 20 2.5 20H21.5C21.7455 20 21.9675 19.908 22.1415 19.761L1.5 5.84599Z" fill="url(#paint1_linear_206_6896)"/>
<path id="Vector_3" opacity="0.05" d="M1.5 5.5H22.5V6.346L13.84 13.071C12.7575 13.9115 11.2425 13.9115 10.16 13.071L1.5 6.346V5.5Z" fill="black"/>
<path id="Vector_4" opacity="0.07" d="M1.5 5.25H22.5V6.096L13.483 12.652C12.602 13.304 11.398 13.304 10.517 12.652L1.5 6.096V5.25Z" fill="black"/>
<path id="Vector_5" d="M2.5 4H21.5C22.0525 4 22.5 4.4475 22.5 5V5.846L13.126 12.233C12.4465 12.696 11.553 12.696 10.874 12.233L1.5 5.846V5C1.5 4.4475 1.9475 4 2.5 4Z" fill="url(#paint2_linear_206_6896)"/>
<path id="Vector_6" opacity="0.3" d="M21.5 4H12.5845C12.534 4.327 12.5 4.659 12.5 5C12.5 8.59 15.41 11.5 19 11.5C20.29 11.5 21.489 11.1195 22.5 10.4715V5C22.5 4.4475 22.0525 4 21.5 4Z" fill="url(#paint3_radial_206_6896)"/>
<path id="Vector_7" d="M24 5.10001C24 7.85001 21.75 10.1 19 10.1C16.25 10.1 14 7.85001 14 5.10001C14 2.35001 16.25 0.100006 19 0.100006C21.75 0.100006 24 2.30001 24 5.10001Z" fill="url(#paint4_linear_206_6896)"/>
<path id="Vector_8" d="M19.004 8C18.7845 8 18.603 7.9335 18.4605 7.8005C18.3175 7.6675 18.2465 7.506 18.2465 7.3165C18.2465 7.119 18.3185 6.957 18.4625 6.8305C18.6065 6.704 18.787 6.641 19.004 6.641C19.2235 6.641 19.4035 6.705 19.5435 6.8325C19.6835 6.96 19.7535 7.1215 19.7535 7.3165C19.7535 7.514 19.684 7.6775 19.5455 7.8065C19.407 7.9355 19.2265 8 19.004 8ZM19.671 2.2165L19.527 5.869C19.5225 5.9805 19.431 6.069 19.319 6.069H18.665C18.553 6.069 18.461 5.9805 18.457 5.8685L18.32 2.216C18.316 2.098 18.4105 2 18.5285 2H19.463C19.581 2 19.6755 2.098 19.671 2.2165Z" fill="white"/>
</g>
<defs>
<linearGradient id="paint0_linear_206_6896" x1="10.758" y1="8.81899" x2="22.796" y2="26.8365" gradientUnits="userSpaceOnUse">
<stop stop-color="#28AFEA"/>
<stop offset="1" stop-color="#0B88DA"/>
</linearGradient>
<linearGradient id="paint1_linear_206_6896" x1="0.704" y1="12.205" x2="18.1655" y2="23.082" gradientUnits="userSpaceOnUse">
<stop stop-color="#28AFEA"/>
<stop offset="1" stop-color="#0B88DA"/>
</linearGradient>
<linearGradient id="paint2_linear_206_6896" x1="8.121" y1="4.13173" x2="10.2263" y2="14.0666" gradientUnits="userSpaceOnUse">
<stop stop-color="#7DD8F3"/>
<stop offset="1" stop-color="#45B0D0"/>
</linearGradient>
<radialGradient id="paint3_radial_206_6896" cx="0" cy="0" r="1" gradientUnits="userSpaceOnUse" gradientTransform="translate(18.995 5.036) scale(6.4375)">
<stop offset="0.348"/>
<stop offset="0.936" stop-opacity="0.098"/>
<stop offset="1" stop-opacity="0"/>
</radialGradient>
<linearGradient id="paint4_linear_206_6896" x1="15.5945" y1="1.68501" x2="22.5795" y2="8.67001" gradientUnits="userSpaceOnUse">
<stop stop-color="#F44F5A"/>
<stop offset="0.443" stop-color="#EE3D4A"/>
<stop offset="1" stop-color="#E52030"/>
</linearGradient>
</defs>
</svg>
