<svg width="24" height="24" viewBox="0 0 24 24" fill="none" xmlns="http://www.w3.org/2000/svg">
<path d="M4.5 2.5H19.5C20.3285 2.5 21 3.1715 21 4V18.5H3V4C3 3.1715 3.6715 2.5 4.5 2.5Z" fill="#FEC62D"/>
<path d="M4.5 3.5H19.5C19.776 3.5 20 3.724 20 4V18.5H4V4C4 3.724 4.224 3.5 4.5 3.5Z" fill="url(#paint0_linear_252_5454)"/>
<path d="M20.5 15.4999H15.3465C14.8945 15.4999 14.522 15.8119 14.3875 16.2434C14.071 17.2609 13.122 17.9999 12 17.9999C10.878 17.9999 9.929 17.2609 9.6125 16.2434C9.478 15.8119 9.1055 15.4999 8.6535 15.4999H3.5C3.224 15.4999 3 15.7239 3 15.9999V19.9999C3 20.8284 3.6715 21.4999 4.5 21.4999H19.5C20.3285 21.4999 21 20.8284 21 19.9999V15.9999C21 15.7239 20.776 15.4999 20.5 15.4999Z" fill="url(#paint1_linear_252_5454)"/>
<defs>
<linearGradient id="paint0_linear_252_5454" x1="12" y1="3.032" x2="12" y2="20.0535" gradientUnits="userSpaceOnUse">
<stop stop-color="#ECB635"/>
<stop offset="1" stop-color="#BD9139"/>
</linearGradient>
<linearGradient id="paint1_linear_252_5454" x1="12" y1="15.5354" x2="12" y2="21.3464" gradientUnits="userSpaceOnUse">
<stop stop-color="#FFD869"/>
<stop offset="1" stop-color="#FEC52B"/>
</linearGradient>
</defs>
</svg>
