<svg width="24" height="24" viewBox="0 0 24 24" fill="none" xmlns="http://www.w3.org/2000/svg">
<g id="infinity">
<path id="Vector" d="M18 18C15.3685 18 13.543 16.2255 12 14.2675C10.457 16.2255 8.6315 18 6 18C2.916 18 0 15.084 0 12C0 8.916 2.916 6 6 6C8.6315 6 10.457 7.7745 12 9.7325C13.543 7.7745 15.3685 6 18 6C21.084 6 24 8.916 24 12C24 15.084 21.084 18 18 18ZM13.6965 12C15.0275 13.772 16.346 15.2725 18 15.2725C19.732 15.2725 21.2725 13.4425 21.2725 12C21.2725 10.5575 19.732 8.7275 18 8.7275C16.346 8.7275 15.028 10.228 13.6965 12ZM6 8.7275C4.268 8.7275 2.7275 10.5575 2.7275 12C2.7275 13.4425 4.268 15.2725 6 15.2725C7.654 15.2725 8.972 13.772 10.3035 12C8.972 10.228 7.654 8.7275 6 8.7275Z" fill="url(#paint0_radial_206_6946)"/>
<path id="Vector_2" d="M18 15.2725C13.9965 15.2725 12 6 6 6C6 6.889 6 7.8065 6 8.7275C10.0795 8.7275 12 18 18 18C18.04 18 18.0795 17.994 18.1195 17.993C18.0545 17.086 18.024 16.179 18.011 15.2715C18.0075 15.272 18.004 15.2725 18 15.2725Z" fill="#FCD400"/>
</g>
<defs>
<radialGradient id="paint0_radial_206_6946" cx="0" cy="0" r="1" gradientUnits="userSpaceOnUse" gradientTransform="translate(12 12) scale(7.42815)">
<stop stop-color="#F47400"/>
<stop offset="1" stop-color="#FCD400"/>
</radialGradient>
</defs>
</svg>
