<svg width="24" height="24" viewBox="0 0 24 24" fill="none" xmlns="http://www.w3.org/2000/svg">
<g id="insert">
<path id="Vector" d="M14.9215 13.9585L12.3805 16.343C12.171 16.5525 11.8305 16.5525 11.621 16.343L9.079 13.9585C8.9095 13.7895 9.0295 13.5 9.2685 13.5H14.7315C14.9705 13.5 15.0905 13.7895 14.9215 13.9585Z" fill="url(#paint0_linear_206_6981)"/>
<path id="Vector_2" d="M12.4995 3H11.4995C11.2235 3 10.9995 3.224 10.9995 3.5V13.5H9.2695C9.0295 13.5 8.9095 13.79 9.0795 13.96L11.6195 16.345C11.8295 16.55 12.1695 16.55 12.3795 16.345L12.9995 15.765V3.5C12.9995 3.224 12.7755 3 12.4995 3Z" fill="url(#paint1_linear_206_6981)"/>
<path id="Vector_3" d="M18 21H6C4.3455 21 3 19.6545 3 18V11.5C3 11.224 2.776 11 2.5 11C1.948 11 1.5 10.552 1.5 10C1.5 9.448 1.948 9 2.5 9C3.8785 9 5 10.1215 5 11.5V18C5 18.5515 5.4485 19 6 19H18C18.5515 19 19 18.5515 19 18V11.5C19 10.1215 20.1215 9 21.5 9C22.052 9 22.5 9.448 22.5 10C22.5 10.552 22.052 11 21.5 11C21.224 11 21 11.224 21 11.5V18C21 19.6545 19.6545 21 18 21Z" fill="#64717C"/>
</g>
<defs>
<linearGradient id="paint0_linear_206_6981" x1="15.13" y1="15" x2="12.889" y2="15" gradientUnits="userSpaceOnUse">
<stop offset="0.365" stop-color="#199AE0"/>
<stop offset="0.699" stop-color="#1898DE"/>
<stop offset="0.819" stop-color="#1691D8"/>
<stop offset="0.905" stop-color="#1186CC"/>
<stop offset="0.974" stop-color="#0A75BC"/>
<stop offset="1" stop-color="#076CB3"/>
</linearGradient>
<linearGradient id="paint1_linear_206_6981" x1="9.1745" y1="3.6" x2="14.4115" y2="17.989" gradientUnits="userSpaceOnUse">
<stop stop-color="#32BDEF"/>
<stop offset="1" stop-color="#1EA2E4"/>
</linearGradient>
</defs>
</svg>
