<svg width="24" height="24" viewBox="0 0 24 24" fill="none" xmlns="http://www.w3.org/2000/svg">
<g id="insert-white-space">
<path id="Vector" d="M18.0355 12.5H15V14.932C15 15.1545 15.2695 15.2665 15.427 15.109L18.0355 12.5Z" fill="url(#paint0_linear_206_6990)"/>
<path id="Vector_2" d="M18.182 11.6465L15.427 8.89101C15.2695 8.73351 15 8.84551 15 9.06801V11H6.464L5.818 11.646C5.623 11.841 5.623 12.1575 5.818 12.353L6.318 12.853C6.412 12.947 6.54 13 6.673 13H17.3285C17.461 13 17.5885 12.9475 17.682 12.8535L18.182 12.3535C18.377 12.158 18.377 11.8415 18.182 11.6465Z" fill="url(#paint1_linear_206_6990)"/>
<path id="Vector_3" d="M5.9645 12.5H9V14.932C9 15.1545 8.7305 15.2665 8.573 15.109L5.9645 12.5Z" fill="url(#paint2_linear_206_6990)"/>
<path id="Vector_4" d="M5.818 11.6465L8.573 8.89101C8.7305 8.73351 9 8.84551 9 9.06801V11H17.536L18.182 11.646C18.377 11.841 18.377 12.1575 18.182 12.353L17.682 12.853C17.588 12.947 17.46 13 17.327 13H6.6715C6.539 13 6.4115 12.9475 6.318 12.8535L5.818 12.3535C5.623 12.158 5.623 11.8415 5.818 11.6465Z" fill="url(#paint3_linear_206_6990)"/>
<path id="Vector_5" d="M5 3H4.25H4H2C1.724 3 1.5 3.224 1.5 3.5V4.5C1.5 4.776 1.724 5 2 5H3.5V19H2C1.724 19 1.5 19.224 1.5 19.5V20.5C1.5 20.776 1.724 21 2 21H4H4.5H5C5.276 21 5.5 20.776 5.5 20.5V3.5C5.5 3.224 5.276 3 5 3Z" fill="url(#paint4_linear_206_6990)"/>
<path id="Vector_6" d="M19 3H19.75H20H22C22.276 3 22.5 3.224 22.5 3.5V4.5C22.5 4.776 22.276 5 22 5H20.5V19H22C22.276 19 22.5 19.224 22.5 19.5V20.5C22.5 20.776 22.276 21 22 21H20H19.5H19C18.724 21 18.5 20.776 18.5 20.5V3.5C18.5 3.224 18.724 3 19 3Z" fill="url(#paint5_linear_206_6990)"/>
</g>
<defs>
<linearGradient id="paint0_linear_206_6990" x1="16.5175" y1="15.107" x2="16.5175" y2="12.902" gradientUnits="userSpaceOnUse">
<stop offset="0.365" stop-color="#199AE0"/>
<stop offset="0.699" stop-color="#1898DE"/>
<stop offset="0.819" stop-color="#1691D8"/>
<stop offset="0.905" stop-color="#1186CC"/>
<stop offset="0.974" stop-color="#0A75BC"/>
<stop offset="1" stop-color="#076CB3"/>
</linearGradient>
<linearGradient id="paint1_linear_206_6990" x1="10.527" y1="22.1275" x2="14.526" y2="-5.36749" gradientUnits="userSpaceOnUse">
<stop stop-color="#32BDEF"/>
<stop offset="1" stop-color="#1EA2E4"/>
</linearGradient>
<linearGradient id="paint2_linear_206_6990" x1="7.482" y1="15.107" x2="7.482" y2="12.902" gradientUnits="userSpaceOnUse">
<stop offset="0.365" stop-color="#199AE0"/>
<stop offset="0.699" stop-color="#1898DE"/>
<stop offset="0.819" stop-color="#1691D8"/>
<stop offset="0.905" stop-color="#1186CC"/>
<stop offset="0.974" stop-color="#0A75BC"/>
<stop offset="1" stop-color="#076CB3"/>
</linearGradient>
<linearGradient id="paint3_linear_206_6990" x1="13.473" y1="22.1275" x2="9.4735" y2="-5.36749" gradientUnits="userSpaceOnUse">
<stop stop-color="#32BDEF"/>
<stop offset="1" stop-color="#1EA2E4"/>
</linearGradient>
<linearGradient id="paint4_linear_206_6990" x1="1.9145" y1="3.0075" x2="5.0855" y2="20.9925" gradientUnits="userSpaceOnUse">
<stop stop-color="#889097"/>
<stop offset="1" stop-color="#4C5963"/>
</linearGradient>
<linearGradient id="paint5_linear_206_6990" x1="22.0855" y1="3.0075" x2="18.9145" y2="20.9925" gradientUnits="userSpaceOnUse">
<stop stop-color="#889097"/>
<stop offset="1" stop-color="#4C5963"/>
</linearGradient>
</defs>
</svg>
