<svg width="24" height="24" viewBox="0 0 24 24" fill="none" xmlns="http://www.w3.org/2000/svg">
<g id="internet-folder">
<path id="Vector" d="M12.207 5.207L10.939 3.939C10.658 3.658 10.2765 3.5 9.8785 3.5H2.5C1.9475 3.5 1.5 3.9475 1.5 4.5V19.5C1.5 20.0525 1.9475 20.5 2.5 20.5H21.5C22.0525 20.5 22.5 20.0525 22.5 19.5V6.5C22.5 5.9475 22.0525 5.5 21.5 5.5H12.914C12.649 5.5 12.3945 5.3945 12.207 5.207Z" fill="url(#paint0_linear_206_7018)"/>
<path id="Vector_2" d="M10.793 7.207L12.427 5.573C12.4735 5.5265 12.537 5.5 12.6035 5.5H21.5C22.0525 5.5 22.5 5.9475 22.5 6.5V19.5C22.5 20.0525 22.0525 20.5 21.5 20.5H2.5C1.9475 20.5 1.5 20.0525 1.5 19.5V7.75C1.5 7.612 1.612 7.5 1.75 7.5H10.086C10.351 7.5 10.6055 7.3945 10.793 7.207Z" fill="url(#paint1_linear_206_7018)"/>
<path id="Vector_3" d="M17 14C17 16.761 14.761 19 12 19C9.239 19 7 16.761 7 14C7 11.239 9.239 9 12 9C14.761 9 17 11.2385 17 14Z" fill="url(#paint2_linear_206_7018)"/>
<path id="Vector_4" d="M11.9425 16.627C12 16.7975 11.9425 17.026 11.885 17.141C11.829 17.312 11.7715 17.5405 11.657 17.654C11.5435 17.7685 11.4285 17.826 11.315 17.883C11.144 17.9965 11.0295 18.2245 10.8585 18.397C10.8585 18.453 10.63 18.7435 10.573 18.7435C10.552 18.7545 10.5315 18.765 10.511 18.775C10.174 18.67 9.854 18.528 9.5515 18.358C9.5495 18.352 9.5475 18.346 9.545 18.34C9.545 18.2825 9.489 17.94 9.489 17.8835C9.4315 17.712 9.3745 17.4835 9.317 17.3125C9.2035 17.027 8.975 16.7415 8.975 16.3995C8.975 16.1135 9.0315 15.8295 8.8605 15.6C8.6325 15.3145 8.176 15.3145 7.9475 15.1435C7.6045 14.9155 7.263 14.5735 7.092 14.2305C7.051 14.163 7.0235 14.1005 7.001 14.0385C7.0015 14.025 7 14.013 7 14C7 12.661 7.5295 11.4475 8.387 10.55C8.856 10.1705 9.7705 9.996 10.326 10.1635C10.497 10.22 11.1125 10.5875 11.1125 10.759C11.1125 10.8165 11.1125 10.8165 11.055 10.8735C10.999 10.931 10.9415 10.931 10.884 10.931C10.713 10.931 10.174 10.8065 10.1165 10.749C9.7735 10.6345 9.2605 11.3765 9.2035 11.605C9.146 11.777 9.146 12.176 9.4315 12.2335C9.6025 12.2335 10.385 11.5695 10.5 11.512C10.9565 11.456 11.309 11.847 11.424 12.2475C11.595 12.704 10.6305 13.145 10.287 13.26C10.1735 13.3175 10.1165 13.2025 10.0015 13.26C9.717 13.3735 9.5485 13.6285 9.5145 13.97C9.486 14.2585 9.457 14.54 9.401 14.826C9.3435 14.826 9.2265 14.825 9.2265 14.768V14.6545C9.2265 14.4825 9.169 14.254 8.9985 14.197C8.941 14.141 8.8605 14.231 8.803 14.231C8.632 14.231 8.461 14.059 8.2905 14.1735C8.176 14.287 8.062 14.459 8.062 14.63C8.062 14.6875 8.062 14.7445 8.1185 14.801C8.233 14.8585 8.3465 14.745 8.4615 14.801C8.575 14.801 8.575 14.9155 8.575 14.973C8.6895 15.144 8.803 15.3725 8.975 15.4295H10.116C10.287 15.487 10.5725 15.543 10.687 15.658C10.743 15.7715 10.743 15.886 10.8005 16C11.086 16.2855 11.4275 16.2855 11.7705 16.4C11.8855 16.456 11.9425 16.512 11.9425 16.627ZM15.131 10.105C15.1055 10.1125 15.0805 10.1195 15.056 10.13C14.885 10.1875 14.4385 11.011 14.3245 11.182C14.267 11.2395 14.211 11.353 14.267 11.41C14.267 11.4675 14.3245 11.4675 14.3815 11.4675C14.495 11.525 14.5105 11.5485 14.625 11.6045C14.6825 11.6045 14.7385 11.662 14.6825 11.719C14.6825 11.719 14.6825 11.7765 14.625 11.7765C14.3395 12.062 14.054 12.2905 13.769 12.575C13.7115 12.633 13.6735 12.7475 13.6735 12.8035C13.6735 12.861 13.7115 12.861 13.7115 12.918C13.7115 12.975 13.654 12.9755 13.597 13.0315C13.4835 13.089 13.3685 13.146 13.3115 13.2035C13.2555 13.317 13.3115 13.489 13.2555 13.603C13.198 13.8885 13.0265 14.117 12.9125 14.4025C12.798 14.5735 12.6955 14.7445 12.581 14.9165C12.581 15.1445 12.5235 15.316 12.6385 15.4865C12.924 15.8865 13.4955 15.504 13.895 15.6745C14.0085 15.732 14.1065 15.742 14.1805 15.8455C14.3225 16.042 14.3395 16.457 14.397 16.6285C14.453 16.857 14.5105 17.085 14.625 17.313C14.682 17.596 14.7935 17.879 14.8515 18.1045C16.149 17.201 17 15.7005 17 14C17 12.4245 16.2695 11.0215 15.131 10.105ZM13.152 10.339C13.322 10.2295 13.436 10.012 13.493 9.849C13.5485 9.7395 13.7195 9.522 13.663 9.359C13.6185 9.274 13.439 9.223 13.307 9.1785C12.8895 9.066 12.453 9 12 9C11.885 9 11.7725 9.0095 11.6595 9.0175C11.564 9.0505 11.4825 9.1065 11.451 9.196C11.394 9.468 11.621 9.4135 11.8475 9.468C11.8475 9.468 11.9045 9.9035 11.9045 9.9585C11.9615 10.231 11.791 10.394 11.791 10.6655C11.791 10.8295 11.791 11.1015 11.9045 11.2105H11.9615C12.0185 11.2105 12.0745 11.1555 12.188 11.1025C12.358 10.993 12.529 10.83 12.6985 10.7205C12.8685 10.6115 13.038 10.448 13.152 10.339Z" fill="url(#paint3_linear_206_7018)"/>
</g>
<defs>
<linearGradient id="paint0_linear_206_7018" x1="12" y1="3.354" x2="12" y2="7.4885" gradientUnits="userSpaceOnUse">
<stop stop-color="#EBA600"/>
<stop offset="1" stop-color="#C28200"/>
</linearGradient>
<linearGradient id="paint1_linear_206_7018" x1="12" y1="5.427" x2="12" y2="20.4915" gradientUnits="userSpaceOnUse">
<stop stop-color="#FFD869"/>
<stop offset="1" stop-color="#FEC52B"/>
</linearGradient>
<linearGradient id="paint2_linear_206_7018" x1="8.4645" y1="10.4645" x2="15.597" y2="17.5965" gradientUnits="userSpaceOnUse">
<stop stop-color="#00BFFE"/>
<stop offset="1" stop-color="#1D55C4"/>
</linearGradient>
<linearGradient id="paint3_linear_206_7018" x1="8.551" y1="10.42" x2="15.656" y2="17.525" gradientUnits="userSpaceOnUse">
<stop stop-color="#84E1FE"/>
<stop offset="1" stop-color="#167CF7"/>
</linearGradient>
</defs>
</svg>
