<svg width="24" height="24" viewBox="0 0 24 24" fill="none" xmlns="http://www.w3.org/2000/svg">
<g id="ios-application-placeholder">
<path id="Vector" d="M18.5 21H5.5L3 19.5V4.5L5.75 3H18.25L21 4.5V19.5L18.5 21Z" fill="url(#paint0_linear_206_7050)"/>
<path id="Vector_2" d="M20.75 18H19.75C19.612 18 19.5 18.112 19.5 18.25V19.5H21V18.25C21 18.112 20.888 18 20.75 18Z" fill="url(#paint1_linear_206_7050)"/>
<path id="Vector_3" d="M20.75 6H19.75C19.612 6 19.5 5.888 19.5 5.75V4.5H21V5.75C21 5.888 20.888 6 20.75 6Z" fill="url(#paint2_linear_206_7050)"/>
<path id="Vector_4" d="M18 19.75V20.75C18 20.888 18.112 21 18.25 21H18.9375C19.6875 21 20.25 20.4375 21 19.5H18.25C18.112 19.5 18 19.612 18 19.75Z" fill="url(#paint3_linear_206_7050)"/>
<path id="Vector_5" d="M18.25 4.5H21C20.25 3.5625 19.6875 3 18.9375 3H18.25C18.112 3 18 3.112 18 3.25V4.25C18 4.388 18.112 4.5 18.25 4.5Z" fill="url(#paint4_linear_206_7050)"/>
<path id="Vector_6" d="M3 18.25V19.5H4.5V18.25C4.5 18.112 4.388 18 4.25 18H3.25C3.112 18 3 18.112 3 18.25Z" fill="url(#paint5_linear_206_7050)"/>
<path id="Vector_7" d="M3 5.75V4.5H4.5V5.75C4.5 5.888 4.388 6 4.25 6H3.25C3.112 6 3 5.888 3 5.75Z" fill="url(#paint6_linear_206_7050)"/>
<path id="Vector_8" d="M5.75 19.5H3C3.75 20.4375 4.3125 21 5.0625 21H5.75C5.888 21 6 20.888 6 20.75V19.75C6 19.612 5.888 19.5 5.75 19.5Z" fill="url(#paint7_linear_206_7050)"/>
<path id="Vector_9" d="M6 4.25V3.25C6 3.112 5.888 3 5.75 3H5.0625C4.3125 3 3.75 3.5625 3 4.5H5.75C5.888 4.5 6 4.388 6 4.25Z" fill="url(#paint8_linear_206_7050)"/>
<path id="Vector_10" d="M4.25 7.5H3.25C3.112 7.5 3 7.612 3 7.75V9.25C3 9.388 3.112 9.5 3.25 9.5H4.25C4.388 9.5 4.5 9.388 4.5 9.25V7.75C4.5 7.612 4.388 7.5 4.25 7.5Z" fill="url(#paint9_linear_206_7050)"/>
<path id="Vector_11" d="M4.25 11H3.25C3.112 11 3 11.112 3 11.25V12.75C3 12.888 3.112 13 3.25 13H4.25C4.388 13 4.5 12.888 4.5 12.75V11.25C4.5 11.112 4.388 11 4.25 11Z" fill="url(#paint10_linear_206_7050)"/>
<path id="Vector_12" d="M4.25 14.5H3.25C3.112 14.5 3 14.612 3 14.75V16.25C3 16.388 3.112 16.5 3.25 16.5H4.25C4.388 16.5 4.5 16.388 4.5 16.25V14.75C4.5 14.612 4.388 14.5 4.25 14.5Z" fill="url(#paint11_linear_206_7050)"/>
<path id="Vector_13" d="M20.75 7.5H19.75C19.612 7.5 19.5 7.612 19.5 7.75V9.25C19.5 9.388 19.612 9.5 19.75 9.5H20.75C20.888 9.5 21 9.388 21 9.25V7.75C21 7.612 20.888 7.5 20.75 7.5Z" fill="url(#paint12_linear_206_7050)"/>
<path id="Vector_14" d="M20.75 11H19.75C19.612 11 19.5 11.112 19.5 11.25V12.75C19.5 12.888 19.612 13 19.75 13H20.75C20.888 13 21 12.888 21 12.75V11.25C21 11.112 20.888 11 20.75 11Z" fill="url(#paint13_linear_206_7050)"/>
<path id="Vector_15" d="M20.75 14.5H19.75C19.612 14.5 19.5 14.612 19.5 14.75V16.25C19.5 16.388 19.612 16.5 19.75 16.5H20.75C20.888 16.5 21 16.388 21 16.25V14.75C21 14.612 20.888 14.5 20.75 14.5Z" fill="url(#paint14_linear_206_7050)"/>
<path id="Vector_16" d="M16.5 4.25V3.25C16.5 3.112 16.388 3 16.25 3H14.75C14.612 3 14.5 3.112 14.5 3.25V4.25C14.5 4.388 14.612 4.5 14.75 4.5H16.25C16.388 4.5 16.5 4.388 16.5 4.25Z" fill="url(#paint15_linear_206_7050)"/>
<path id="Vector_17" d="M13 4.25V3.25C13 3.112 12.888 3 12.75 3H11.25C11.112 3 11 3.112 11 3.25V4.25C11 4.388 11.112 4.5 11.25 4.5H12.75C12.888 4.5 13 4.388 13 4.25Z" fill="url(#paint16_linear_206_7050)"/>
<path id="Vector_18" d="M9.5 4.25V3.25C9.5 3.112 9.388 3 9.25 3H7.75C7.612 3 7.5 3.112 7.5 3.25V4.25C7.5 4.388 7.612 4.5 7.75 4.5H9.25C9.388 4.5 9.5 4.388 9.5 4.25Z" fill="url(#paint17_linear_206_7050)"/>
<path id="Vector_19" d="M16.5 20.75V19.75C16.5 19.612 16.388 19.5 16.25 19.5H14.75C14.612 19.5 14.5 19.612 14.5 19.75V20.75C14.5 20.888 14.612 21 14.75 21H16.25C16.388 21 16.5 20.888 16.5 20.75Z" fill="url(#paint18_linear_206_7050)"/>
<path id="Vector_20" d="M13 20.75V19.75C13 19.612 12.888 19.5 12.75 19.5H11.25C11.112 19.5 11 19.612 11 19.75V20.75C11 20.888 11.112 21 11.25 21H12.75C12.888 21 13 20.888 13 20.75Z" fill="url(#paint19_linear_206_7050)"/>
<path id="Vector_21" d="M9.5 20.75V19.75C9.5 19.612 9.388 19.5 9.25 19.5H7.75C7.612 19.5 7.5 19.612 7.5 19.75V20.75C7.5 20.888 7.612 21 7.75 21H9.25C9.388 21 9.5 20.888 9.5 20.75Z" fill="url(#paint20_linear_206_7050)"/>
</g>
<defs>
<linearGradient id="paint0_linear_206_7050" x1="8.67514" y1="3.27635" x2="17.5759" y2="20.4377" gradientUnits="userSpaceOnUse">
<stop stop-color="#7DD8F3"/>
<stop offset="1" stop-color="#45B0D0"/>
</linearGradient>
<linearGradient id="paint1_linear_206_7050" x1="20.25" y1="18" x2="20.25" y2="19.5" gradientUnits="userSpaceOnUse">
<stop offset="0.478" stop-color="#199AE0"/>
<stop offset="0.868" stop-color="#1186CC"/>
<stop offset="1" stop-color="#076CB3"/>
</linearGradient>
<linearGradient id="paint2_linear_206_7050" x1="20.25" y1="6" x2="20.25" y2="4.5" gradientUnits="userSpaceOnUse">
<stop offset="0.478" stop-color="#199AE0"/>
<stop offset="0.868" stop-color="#1186CC"/>
<stop offset="1" stop-color="#076CB3"/>
</linearGradient>
<linearGradient id="paint3_linear_206_7050" x1="18.949" y1="17.011" x2="19.605" y2="20.731" gradientUnits="userSpaceOnUse">
<stop stop-color="#32BDEF"/>
<stop offset="0.661" stop-color="#25ABE8"/>
<stop offset="1" stop-color="#1EA2E4"/>
</linearGradient>
<linearGradient id="paint4_linear_206_7050" x1="18.737" y1="0.0595002" x2="19.529" y2="4.55" gradientUnits="userSpaceOnUse">
<stop stop-color="#32BDEF"/>
<stop offset="0.661" stop-color="#25ABE8"/>
<stop offset="1" stop-color="#1EA2E4"/>
</linearGradient>
<linearGradient id="paint5_linear_206_7050" x1="3.7505" y1="18" x2="3.7505" y2="19.5" gradientUnits="userSpaceOnUse">
<stop offset="0.478" stop-color="#199AE0"/>
<stop offset="0.868" stop-color="#1186CC"/>
<stop offset="1" stop-color="#076CB3"/>
</linearGradient>
<linearGradient id="paint6_linear_206_7050" x1="3.75" y1="6" x2="3.75" y2="4.5" gradientUnits="userSpaceOnUse">
<stop offset="0.478" stop-color="#199AE0"/>
<stop offset="0.868" stop-color="#1186CC"/>
<stop offset="1" stop-color="#076CB3"/>
</linearGradient>
<linearGradient id="paint7_linear_206_7050" x1="5.051" y1="17.011" x2="4.395" y2="20.731" gradientUnits="userSpaceOnUse">
<stop stop-color="#32BDEF"/>
<stop offset="0.661" stop-color="#25ABE8"/>
<stop offset="1" stop-color="#1EA2E4"/>
</linearGradient>
<linearGradient id="paint8_linear_206_7050" x1="5.263" y1="0.0595" x2="4.471" y2="4.55" gradientUnits="userSpaceOnUse">
<stop stop-color="#32BDEF"/>
<stop offset="0.661" stop-color="#25ABE8"/>
<stop offset="1" stop-color="#1EA2E4"/>
</linearGradient>
<linearGradient id="paint9_linear_206_7050" x1="3" y1="8.5" x2="4.5" y2="8.5" gradientUnits="userSpaceOnUse">
<stop stop-color="#199AE0"/>
<stop offset="1" stop-color="#199AE0"/>
</linearGradient>
<linearGradient id="paint10_linear_206_7050" x1="3" y1="12" x2="4.5" y2="12" gradientUnits="userSpaceOnUse">
<stop stop-color="#199AE0"/>
<stop offset="1" stop-color="#199AE0"/>
</linearGradient>
<linearGradient id="paint11_linear_206_7050" x1="3" y1="15.5" x2="4.5" y2="15.5" gradientUnits="userSpaceOnUse">
<stop stop-color="#199AE0"/>
<stop offset="1" stop-color="#199AE0"/>
</linearGradient>
<linearGradient id="paint12_linear_206_7050" x1="19.5" y1="8.5" x2="21" y2="8.5" gradientUnits="userSpaceOnUse">
<stop stop-color="#199AE0"/>
<stop offset="1" stop-color="#199AE0"/>
</linearGradient>
<linearGradient id="paint13_linear_206_7050" x1="19.5" y1="12" x2="21" y2="12" gradientUnits="userSpaceOnUse">
<stop stop-color="#199AE0"/>
<stop offset="1" stop-color="#199AE0"/>
</linearGradient>
<linearGradient id="paint14_linear_206_7050" x1="19.5" y1="15.5" x2="21" y2="15.5" gradientUnits="userSpaceOnUse">
<stop stop-color="#199AE0"/>
<stop offset="1" stop-color="#199AE0"/>
</linearGradient>
<linearGradient id="paint15_linear_206_7050" x1="15.5" y1="3" x2="15.5" y2="4.5" gradientUnits="userSpaceOnUse">
<stop stop-color="#199AE0"/>
<stop offset="1" stop-color="#199AE0"/>
</linearGradient>
<linearGradient id="paint16_linear_206_7050" x1="12" y1="3" x2="12" y2="4.5" gradientUnits="userSpaceOnUse">
<stop stop-color="#199AE0"/>
<stop offset="1" stop-color="#199AE0"/>
</linearGradient>
<linearGradient id="paint17_linear_206_7050" x1="8.5" y1="3" x2="8.5" y2="4.5" gradientUnits="userSpaceOnUse">
<stop stop-color="#199AE0"/>
<stop offset="1" stop-color="#199AE0"/>
</linearGradient>
<linearGradient id="paint18_linear_206_7050" x1="15.5" y1="19.5" x2="15.5" y2="21" gradientUnits="userSpaceOnUse">
<stop stop-color="#199AE0"/>
<stop offset="1" stop-color="#199AE0"/>
</linearGradient>
<linearGradient id="paint19_linear_206_7050" x1="12" y1="19.5" x2="12" y2="21" gradientUnits="userSpaceOnUse">
<stop stop-color="#199AE0"/>
<stop offset="1" stop-color="#199AE0"/>
</linearGradient>
<linearGradient id="paint20_linear_206_7050" x1="8.5" y1="19.5" x2="8.5" y2="21" gradientUnits="userSpaceOnUse">
<stop stop-color="#199AE0"/>
<stop offset="1" stop-color="#199AE0"/>
</linearGradient>
</defs>
</svg>
