<svg width="24" height="24" viewBox="0 0 24 24" fill="none" xmlns="http://www.w3.org/2000/svg">
<g id="iphone-spinner">
<path id="Vector" d="M12.5 7H11.5C11.224 7 11 6.776 11 6.5V2.5C11 2.224 11.224 2 11.5 2H12.5C12.776 2 13 2.224 13 2.5V6.5C13 6.776 12.776 7 12.5 7Z" fill="#2D5EAB"/>
<path id="Vector_2" d="M12.5 22H11.5C11.224 22 11 21.776 11 21.5V17.5C11 17.224 11.224 17 11.5 17H12.5C12.776 17 13 17.224 13 17.5V21.5C13 21.776 12.776 22 12.5 22Z" fill="url(#paint0_linear_206_7072)"/>
<path id="Vector_3" d="M17 12.5V11.5C17 11.224 17.224 11 17.5 11H21.5C21.776 11 22 11.224 22 11.5V12.5C22 12.776 21.776 13 21.5 13H17.5C17.224 13 17 12.776 17 12.5Z" fill="#0D62AB"/>
<path id="Vector_4" d="M2 12.5V11.5C2 11.224 2.224 11 2.5 11H6.5C6.776 11 7 11.224 7 11.5V12.5C7 12.776 6.776 13 6.5 13H2.5C2.224 13 2 12.776 2 12.5Z" fill="url(#paint1_linear_206_7072)"/>
<path id="Vector_5" d="M15.889 8.81799L15.182 8.11099C14.9865 7.91549 14.9865 7.59899 15.182 7.40399L18.0105 4.57549C18.206 4.37999 18.5225 4.37999 18.7175 4.57549L19.4245 5.28249C19.62 5.47799 19.62 5.79449 19.4245 5.98949L16.596 8.81799C16.401 9.01349 16.0845 9.01349 15.889 8.81799Z" fill="#2D5EAB"/>
<path id="Vector_6" d="M5.2825 19.4245L4.5755 18.7175C4.38 18.522 4.38 18.2055 4.5755 18.0105L7.404 15.182C7.5995 14.9865 7.916 14.9865 8.111 15.182L8.818 15.889C9.0135 16.0845 9.0135 16.401 8.818 16.596L5.9895 19.4245C5.7945 19.62 5.4775 19.62 5.2825 19.4245Z" fill="url(#paint2_linear_206_7072)"/>
<path id="Vector_7" d="M15.182 15.889L15.889 15.182C16.0845 14.9865 16.401 14.9865 16.596 15.182L19.4245 18.0105C19.62 18.206 19.62 18.5225 19.4245 18.7175L18.7175 19.4245C18.522 19.62 18.2055 19.62 18.0105 19.4245L15.182 16.596C14.9865 16.401 14.9865 16.0845 15.182 15.889Z" fill="#0078D4"/>
<path id="Vector_8" d="M4.5755 5.28249L5.2825 4.57549C5.478 4.37999 5.7945 4.37999 5.9895 4.57549L8.818 7.40399C9.0135 7.59949 9.0135 7.91599 8.818 8.11099L8.111 8.81799C7.9155 9.01349 7.599 9.01349 7.404 8.81799L4.5755 5.98949C4.38 5.79449 4.38 5.47749 4.5755 5.28249Z" fill="#2D5EAB"/>
</g>
<defs>
<linearGradient id="paint0_linear_206_7072" x1="11.4431" y1="16.2551" x2="14.6237" y2="18.1228" gradientUnits="userSpaceOnUse">
<stop stop-color="#FCFCFC"/>
<stop offset="0.95" stop-color="#C3C9CD"/>
</linearGradient>
<linearGradient id="paint1_linear_206_7072" x1="3.57643" y1="11.0307" x2="4.05772" y2="13.3506" gradientUnits="userSpaceOnUse">
<stop stop-color="#7DD8F3"/>
<stop offset="1" stop-color="#45B0D0"/>
</linearGradient>
<linearGradient id="paint2_linear_206_7072" x1="6.08602" y1="15.2331" x2="6.96643" y2="20.0745" gradientUnits="userSpaceOnUse">
<stop stop-color="#32BDEF"/>
<stop offset="1" stop-color="#1EA2E4"/>
</linearGradient>
</defs>
</svg>
