<svg width="24" height="24" viewBox="0 0 24 24" fill="none" xmlns="http://www.w3.org/2000/svg">
<g id="job-seeker" clip-path="url(#clip0_206_7088)">
<path id="Vector" d="M14.25 3H9.75C9.336 3 9 3.336 9 3.75V4.5H15V3.75C15 3.336 14.664 3 14.25 3Z" fill="url(#paint0_linear_206_7088)"/>
<path id="Vector_2" d="M21 20.5H3C2.45 20.5 2 20.05 2 19.5V6.5C2 5.4 2.9 4.5 4 4.5H20C21.1 4.5 22 5.4 22 6.5V19.5C22 20.05 21.55 20.5 21 20.5Z" fill="url(#paint1_radial_206_7088)"/>
<path id="Vector_3" d="M21.1485 12.6275L12 14L2.8515 12.6275C2.362 12.5545 2 12.134 2 11.639V6.5C2 5.4 2.9 4.5 4 4.5H20C21.1 4.5 22 5.4 22 6.5V11.639C22 12.134 21.638 12.5545 21.1485 12.6275Z" fill="url(#paint2_linear_206_7088)"/>
<path id="Vector_4" d="M12.75 10.5H11.25C11.112 10.5 11 10.612 11 10.75V12.25C11 12.388 11.112 12.5 11.25 12.5H12.75C12.888 12.5 13 12.388 13 12.25V10.75C13 10.612 12.888 10.5 12.75 10.5Z" fill="#F6ECA5"/>
<path id="Vector_5" opacity="0.15" d="M18.5 13.5C15.7385 13.5 13.5 15.7385 13.5 18.5C13.5 19.2115 13.651 19.887 13.919 20.5H21C21.55 20.5 22 20.05 22 19.5V14.932C21.098 14.047 19.8635 13.5 18.5 13.5Z" fill="url(#paint3_radial_206_7088)"/>
<path id="Vector_6" d="M22.496 21.612L21.612 22.496L23.0795 23.9635C23.1285 24.0125 23.2075 24.0125 23.2565 23.9635L23.9635 23.2565C24.0125 23.2075 24.0125 23.1285 23.9635 23.0795L22.496 21.612Z" fill="url(#paint4_linear_206_7088)"/>
<path id="Vector_7" d="M21.4 20.5165L20.5165 21.4L21.612 22.496L22.496 21.612L21.4 20.5165Z" fill="url(#paint5_radial_206_7088)"/>
<path id="Vector_8" d="M18.5 22.5C20.7091 22.5 22.5 20.7091 22.5 18.5C22.5 16.2909 20.7091 14.5 18.5 14.5C16.2909 14.5 14.5 16.2909 14.5 18.5C14.5 20.7091 16.2909 22.5 18.5 22.5Z" fill="url(#paint6_linear_206_7088)"/>
</g>
<defs>
<linearGradient id="paint0_linear_206_7088" x1="12" y1="4.4895" x2="12" y2="3.154" gradientUnits="userSpaceOnUse">
<stop stop-color="#B33F20"/>
<stop offset="0.129" stop-color="#C74724"/>
<stop offset="0.295" stop-color="#D94F29"/>
<stop offset="0.469" stop-color="#E4532B"/>
<stop offset="0.659" stop-color="#E8552C"/>
</linearGradient>
<radialGradient id="paint1_radial_206_7088" cx="0" cy="0" r="1" gradientUnits="userSpaceOnUse" gradientTransform="translate(11.916 2.99598) scale(22.87 18.3966)">
<stop stop-color="#40150B"/>
<stop offset="0.156" stop-color="#622110"/>
<stop offset="0.417" stop-color="#953218"/>
<stop offset="0.645" stop-color="#BA3F1E"/>
<stop offset="0.828" stop-color="#D14722"/>
<stop offset="0.944" stop-color="#D94A23"/>
</radialGradient>
<linearGradient id="paint2_linear_206_7088" x1="12" y1="4.514" x2="12" y2="13.4635" gradientUnits="userSpaceOnUse">
<stop stop-color="#FC7D5B"/>
<stop offset="0.06" stop-color="#F8734F"/>
<stop offset="0.18" stop-color="#F3653D"/>
<stop offset="0.326" stop-color="#F05B31"/>
<stop offset="0.523" stop-color="#EE552A"/>
<stop offset="1" stop-color="#ED5328"/>
</linearGradient>
<radialGradient id="paint3_radial_206_7088" cx="0" cy="0" r="1" gradientUnits="userSpaceOnUse" gradientTransform="translate(18.4705 18.458) scale(4.9285)">
<stop offset="0.627"/>
<stop offset="1" stop-opacity="0"/>
</radialGradient>
<linearGradient id="paint4_linear_206_7088" x1="22.1411" y1="21.2562" x2="23.76" y2="23.6327" gradientUnits="userSpaceOnUse">
<stop stop-color="#FCFCFC"/>
<stop offset="0.95" stop-color="#C3C9CD"/>
</linearGradient>
<radialGradient id="paint5_radial_206_7088" cx="0" cy="0" r="1" gradientUnits="userSpaceOnUse" gradientTransform="translate(18.506 18.524) scale(4.901)">
<stop offset="0.693" stop-color="#006185"/>
<stop offset="0.921" stop-color="#35C1F1"/>
</radialGradient>
<linearGradient id="paint6_linear_206_7088" x1="15.7275" y1="15.7275" x2="21.3345" y2="21.3345" gradientUnits="userSpaceOnUse">
<stop stop-color="#A3FFFF"/>
<stop offset="0.223" stop-color="#9DFBFF"/>
<stop offset="0.53" stop-color="#8BF1FF"/>
<stop offset="0.885" stop-color="#6EE0FF"/>
<stop offset="1" stop-color="#63DAFF"/>
</linearGradient>
<clipPath id="clip0_206_7088">
<rect width="24" height="24" fill="white"/>
</clipPath>
</defs>
</svg>
