<svg width="24" height="24" viewBox="0 0 24 24" fill="none" xmlns="http://www.w3.org/2000/svg">
<g id="language-skill">
<path id="Vector" d="M22 12C22 17.5225 17.5225 22 12 22C6.4775 22 2 17.5225 2 12C2 6.4775 6.4775 2 12 2C17.5225 2 22 6.4775 22 12Z" fill="url(#paint0_radial_206_7105)"/>
<path id="Vector_2" d="M20.5 12C20.5 10.7675 20.3005 9.591 19.952 8.5H21.3575C21.2295 8.1575 21.0845 7.8235 20.921 7.5H19.58C18.1775 4.2425 15.3105 2 12 2C8.6895 2 5.8225 4.2425 4.4195 7.5H3.0785C2.915 7.8235 2.7705 8.1575 2.642 8.5H4.0475C3.6995 9.591 3.5 10.7675 3.5 12C3.5 13.2325 3.6995 14.409 4.048 15.5H2.6425C2.7705 15.8425 2.9155 16.1765 3.079 16.5H4.42C5.823 19.7575 8.69 22 12.0005 22C15.311 22 18.178 19.7575 19.581 16.5H20.922C21.0855 16.1765 21.23 15.8425 21.3585 15.5H19.953C20.3005 14.409 20.5 13.2325 20.5 12ZM19.5 12C19.5 13.2405 19.2895 14.4235 18.9095 15.5H15.755C15.9165 14.367 16 13.175 16 12C16 10.825 15.917 9.633 15.755 8.5H18.9095C19.2895 9.5765 19.5 10.7595 19.5 12ZM12 21C11.032 21 9.9895 19.2775 9.424 16.5H14.576C14.0105 19.2775 12.968 21 12 21ZM9.25 15.5C9.0925 14.4435 9 13.2695 9 12C9 10.7305 9.0925 9.5565 9.25 8.5H14.75C14.9075 9.5565 15 10.7305 15 12C15 13.2695 14.9075 14.4435 14.75 15.5H9.25ZM12 3C12.968 3 14.0105 4.7225 14.576 7.5H9.424C9.9895 4.7225 11.032 3 12 3ZM18.485 7.5H15.589C15.2695 5.835 14.7675 4.364 14.092 3.3635C15.961 4.0165 17.527 5.519 18.485 7.5ZM9.908 3.3635C9.233 4.3645 8.7305 5.835 8.411 7.5H5.515C6.473 5.519 8.039 4.0165 9.908 3.3635ZM4.5 12C4.5 10.7595 4.7105 9.5765 5.0905 8.5H8.245C8.083 9.633 8 10.825 8 12C8 13.175 8.083 14.367 8.245 15.5H5.0905C4.7105 14.4235 4.5 13.2405 4.5 12ZM5.515 16.5H8.411C8.7305 18.165 9.2325 19.636 9.908 20.6365C8.039 19.9835 6.473 18.481 5.515 16.5ZM14.092 20.6365C14.767 19.6355 15.2695 18.165 15.589 16.5H18.485C17.527 18.481 15.961 19.9835 14.092 20.6365Z" fill="url(#paint1_radial_206_7105)"/>
<path id="Vector_3" opacity="0.07" d="M15.25 4.00001V9.19901C15.25 9.42451 15.3965 9.61551 15.615 9.67401C15.6585 9.68501 15.7025 9.69101 15.7455 9.69101C15.9175 9.69101 16.078 9.60051 16.168 9.44451L17.1445 7.74951H21.0415C20.144 5.84451 18.671 4.26601 16.837 3.24951H16C15.5865 3.25001 15.25 3.58651 15.25 4.00001Z" fill="black"/>
<path id="Vector_4" opacity="0.07" d="M8.5 7.25H3.199C2.4985 8.5445 2.0875 10.014 2.0215 11.5725C2.152 11.6815 2.3175 11.75 2.5 11.75H7.3555L8.332 13.4445C8.422 13.601 8.5825 13.6915 8.755 13.6915C8.798 13.6915 8.8415 13.6855 8.8855 13.6745C9.104 13.616 9.2505 13.425 9.2505 13.1995V8C9.25 7.5865 8.9135 7.25 8.5 7.25Z" fill="black"/>
<path id="Vector_5" opacity="0.05" d="M15 4V9.199C15 9.5395 15.221 9.8275 15.5505 9.9155C15.6165 9.933 15.6825 9.942 15.7475 9.942C16.0075 9.942 16.249 9.8055 16.385 9.5695L17.289 8H21.162C20.204 5.81 18.483 4.0365 16.3365 3H16C15.4485 3 15 3.4485 15 4Z" fill="black"/>
<path id="Vector_6" opacity="0.05" d="M19 11H13C12.4485 11 12 11.4485 12 12V17.199C12 17.5395 12.221 17.8275 12.5505 17.9155C12.6165 17.933 12.6825 17.942 12.7475 17.942C13.0075 17.942 13.249 17.8055 13.385 17.5695L14.289 16H19C19.5515 16 20 15.5515 20 15V12C20 11.4485 19.5515 11 19 11Z" fill="black"/>
<path id="Vector_7" opacity="0.05" d="M8.5 7H3.349C2.5175 8.435 2.0305 10.0925 2.007 11.8645C2.153 11.9485 2.32 12 2.5 12H7.211L8.1155 13.5695C8.251 13.8055 8.493 13.942 8.753 13.942C8.818 13.942 8.884 13.933 8.95 13.9155C9.279 13.8275 9.5 13.5395 9.5 13.199V8C9.5 7.4485 9.0515 7 8.5 7Z" fill="black"/>
<path id="Vector_8" d="M2.5 7.5H8.5C8.776 7.5 9 7.724 9 8V13.199C9 13.4465 8.672 13.534 8.5485 13.32L7.5 11.5H2.5C2.224 11.5 2 11.276 2 11V8C2 7.724 2.224 7.5 2.5 7.5Z" fill="url(#paint2_linear_206_7105)"/>
<path id="Vector_9" d="M22 3.5H16C15.724 3.5 15.5 3.724 15.5 4V9.199C15.5 9.4465 15.828 9.534 15.9515 9.32L17 7.5H22C22.276 7.5 22.5 7.276 22.5 7V4C22.5 3.724 22.276 3.5 22 3.5Z" fill="url(#paint3_linear_206_7105)"/>
<path id="Vector_10" d="M19 11.5H13C12.724 11.5 12.5 11.724 12.5 12V17.199C12.5 17.4465 12.828 17.534 12.9515 17.32L14 15.5H19C19.276 15.5 19.5 15.276 19.5 15V12C19.5 11.724 19.276 11.5 19 11.5Z" fill="#FF8F6B"/>
<path id="Vector_11" opacity="0.07" d="M19 11.25H13C12.5865 11.25 12.25 11.5865 12.25 12V17.199C12.25 17.4245 12.3965 17.6155 12.615 17.674C12.6585 17.685 12.7025 17.691 12.7455 17.691C12.9175 17.691 13.078 17.6005 13.168 17.4445L14.1445 15.7495H19C19.4135 15.7495 19.75 15.413 19.75 14.9995V11.9995C19.75 11.5865 19.4135 11.25 19 11.25Z" fill="black"/>
</g>
<defs>
<radialGradient id="paint0_radial_206_7105" cx="0" cy="0" r="1" gradientUnits="userSpaceOnUse" gradientTransform="translate(5.031 4.719) scale(20.458)">
<stop stop-color="#6FCEFC"/>
<stop offset="1" stop-color="#167CF7"/>
</radialGradient>
<radialGradient id="paint1_radial_206_7105" cx="0" cy="0" r="1" gradientUnits="userSpaceOnUse" gradientTransform="translate(5.348 4.025) scale(20.459 20.459)">
<stop offset="0.001" stop-color="#54C0F5"/>
<stop offset="0.998" stop-color="#0B69DB"/>
</radialGradient>
<linearGradient id="paint2_linear_206_7105" x1="4.458" y1="8.0465" x2="8.3355" y2="13.456" gradientUnits="userSpaceOnUse">
<stop stop-color="#F44F5A"/>
<stop offset="0.443" stop-color="#EE3D4A"/>
<stop offset="1" stop-color="#E52030"/>
</linearGradient>
<linearGradient id="paint3_linear_206_7105" x1="17.6865" y1="4.138" x2="20.436" y2="9.2245" gradientUnits="userSpaceOnUse">
<stop stop-color="#FFDA1C"/>
<stop offset="1" stop-color="#FEB705"/>
</linearGradient>
</defs>
</svg>
