<svg width="24" height="24" viewBox="0 0 24 24" fill="none" xmlns="http://www.w3.org/2000/svg">
<g id="launch">
<path id="Vector" d="M13.5 21.5C13.5 22.5 12 24 12 24C12 24 10.5 22.5 10.5 21.5C10.5 20.6715 11.1715 20 12 20C12.8285 20 13.5 20.6715 13.5 21.5Z" fill="url(#paint0_linear_206_7117)"/>
<path id="Vector_2" d="M12.5 21.5C12.5 22 12 22.5 12 22.5C12 22.5 11.5 22 11.5 21.5C11.5 21.224 11.724 21 12 21C12.276 21 12.5 21.224 12.5 21.5Z" fill="url(#paint1_linear_206_7117)"/>
<path id="Vector_3" d="M15 5.5H9V17H15V5.5Z" fill="url(#paint2_linear_206_7117)"/>
<path id="Vector_4" d="M12.731 1.3195C12.3345 0.8935 11.665 0.8935 11.269 1.3195C10.381 2.2735 9 3.976 9 5.3325V5.5H15V5.3325C15 3.976 13.619 2.2735 12.731 1.3195Z" fill="url(#paint3_linear_206_7117)"/>
<path id="Vector_5" d="M12 12.5C12.9792 12.5 13.773 11.7062 13.773 10.727C13.773 9.74781 12.9792 8.95401 12 8.95401C11.0208 8.95401 10.227 9.74781 10.227 10.727C10.227 11.7062 11.0208 12.5 12 12.5Z" fill="url(#paint4_linear_206_7117)"/>
<path id="Vector_6" d="M12 11.954C12.6777 11.954 13.227 11.4047 13.227 10.727C13.227 10.0493 12.6777 9.5 12 9.5C11.3223 9.5 10.773 10.0493 10.773 10.727C10.773 11.4047 11.3223 11.954 12 11.954Z" fill="#0078D4"/>
<path id="Vector_7" d="M15 11.5L17.6385 14.5785C17.8715 14.8505 17.9995 15.1965 17.9995 15.5545L18 18.5L15 17V11.5Z" fill="url(#paint5_linear_206_7117)"/>
<path id="Vector_8" d="M9 17L6 18.5L6.0005 15.5545C6.0005 15.1965 6.1285 14.8505 6.3615 14.5785L9 11.5V17Z" fill="url(#paint6_linear_206_7117)"/>
<path id="Vector_9" d="M14 18.5H10C9.4475 18.5 9 18.0525 9 17.5V17H15V17.5C15 18.0525 14.5525 18.5 14 18.5Z" fill="url(#paint7_linear_206_7117)"/>
<path id="Vector_10" d="M12.719 20.5H11.2805C10.8215 20.5 10.4215 20.1875 10.3105 19.7425L10 18.5H14L13.6895 19.7425C13.578 20.1875 13.178 20.5 12.719 20.5Z" fill="url(#paint8_linear_206_7117)"/>
</g>
<defs>
<linearGradient id="paint0_linear_206_7117" x1="11.5945" y1="20.0555" x2="12.7295" y2="24.0415" gradientUnits="userSpaceOnUse">
<stop stop-color="#F44F5A"/>
<stop offset="0.443" stop-color="#EE3D4A"/>
<stop offset="1" stop-color="#E52030"/>
</linearGradient>
<linearGradient id="paint1_linear_206_7117" x1="11.857" y1="21.0205" x2="12.282" y2="22.513" gradientUnits="userSpaceOnUse">
<stop stop-color="#FFCF7B"/>
<stop offset="0.195" stop-color="#FECD76"/>
<stop offset="0.439" stop-color="#FAC666"/>
<stop offset="0.71" stop-color="#F3BC4D"/>
<stop offset="0.997" stop-color="#EAAD29"/>
<stop offset="1" stop-color="#EAAD29"/>
</linearGradient>
<linearGradient id="paint2_linear_206_7117" x1="11.1921" y1="6.0013" x2="15.1332" y2="17.3087" gradientUnits="userSpaceOnUse">
<stop stop-color="#32BDEF"/>
<stop offset="1" stop-color="#1EA2E4"/>
</linearGradient>
<linearGradient id="paint3_linear_206_7117" x1="10.8917" y1="1.06909" x2="12.7312" y2="5.79799" gradientUnits="userSpaceOnUse">
<stop stop-color="#7DD8F3"/>
<stop offset="1" stop-color="#45B0D0"/>
</linearGradient>
<linearGradient id="paint4_linear_206_7117" x1="11.345" y1="9.00845" x2="13.0985" y2="12.3892" gradientUnits="userSpaceOnUse">
<stop stop-color="#7DD8F3"/>
<stop offset="1" stop-color="#45B0D0"/>
</linearGradient>
<linearGradient id="paint5_linear_206_7117" x1="15.6646" y1="10.4572" x2="20.2611" y2="13.349" gradientUnits="userSpaceOnUse">
<stop stop-color="#FCFCFC"/>
<stop offset="0.95" stop-color="#C3C9CD"/>
</linearGradient>
<linearGradient id="paint6_linear_206_7117" x1="6.66462" y1="10.4572" x2="11.2611" y2="13.349" gradientUnits="userSpaceOnUse">
<stop stop-color="#FCFCFC"/>
<stop offset="0.95" stop-color="#C3C9CD"/>
</linearGradient>
<linearGradient id="paint7_linear_206_7117" x1="10.8917" y1="17.023" x2="11.1231" y2="18.8078" gradientUnits="userSpaceOnUse">
<stop stop-color="#7DD8F3"/>
<stop offset="1" stop-color="#45B0D0"/>
</linearGradient>
<linearGradient id="paint8_linear_206_7117" x1="10.8862" y1="18.2021" x2="11.7754" y2="20.8129" gradientUnits="userSpaceOnUse">
<stop stop-color="#FCFCFC"/>
<stop offset="0.95" stop-color="#C3C9CD"/>
</linearGradient>
</defs>
</svg>
