<svg width="24" height="24" viewBox="0 0 24 24" fill="none" xmlns="http://www.w3.org/2000/svg">
<g id="lease">
<path id="Vector" d="M19.75 17C20.4404 17 21 16.4404 21 15.75C21 15.0596 20.4404 14.5 19.75 14.5C19.0596 14.5 18.5 15.0596 18.5 15.75C18.5 16.4404 19.0596 17 19.75 17Z" fill="#C98E00"/>
<path id="Vector_2" d="M13.1055 20.8415L20.34 16.8465L19.27 14.5955L13 17.5L13.1055 20.8415Z" fill="#C98E00"/>
<path id="Vector_3" d="M22.5 16.25C22.5 15.5595 21.9405 15 21.25 15C21.08 15 20.918 15.0345 20.7705 15.096L20.77 15.0955L20.7645 15.098C20.7635 15.0985 20.7625 15.099 20.7615 15.0995L14.5 18L13.75 17.5C14.4405 17.5 15 16.9405 15 16.25C15 15.785 14.743 15.384 14.3665 15.1685L14.3685 15.1605L7.543 11.7275H7.5305C7.2155 11.5845 6.8685 11.5 6.5 11.5C6.141 11.5 5.8015 11.5785 5.4925 11.715H5.4815L1.5 13.5V20L5.545 18.141L13.5005 21.395H13.501C13.6545 21.462 13.8225 21.5 14 21.5C14.2175 21.5 14.419 21.4395 14.5975 21.3415L14.606 21.341L21.8405 17.3465L21.84 17.3455C22.231 17.1345 22.5 16.726 22.5 16.25Z" fill="url(#paint0_linear_206_7132)"/>
<path id="Vector_4" d="M13.75 17C14.1642 17 14.5 16.6642 14.5 16.25C14.5 15.8358 14.1642 15.5 13.75 15.5C13.3358 15.5 13 15.8358 13 16.25C13 16.6642 13.3358 17 13.75 17Z" fill="#FFDE87"/>
<path id="Vector_5" d="M14.5 18L13.7555 17.501C13.128 17.471 12.6345 17.267 8.5 15.7445V17.5L14.2755 19.867C14.2755 19.867 13.8665 18.7255 14.5 18Z" fill="url(#paint1_linear_206_7132)"/>
<path id="Vector_6" d="M16.75 11C16.75 10.7965 16.849 10.617 17 10.503V9.6805C16.851 9.594 16.75 9.4345 16.75 9.25C16.75 9.0655 16.851 8.906 17 8.8195V8H14.5V11.7525C14.5 11.9105 14.563 12.0625 14.6745 12.1745L14.825 12.325C14.937 12.437 15.089 12.5 15.247 12.5H16.2525C16.411 12.5 16.5625 12.437 16.6745 12.325L16.825 12.1745C16.937 12.0625 17 11.911 17 11.7525V11.497C16.849 11.383 16.75 11.2035 16.75 11Z" fill="url(#paint2_linear_206_7132)"/>
<path id="Vector_7" d="M19 4.75C19 2.955 17.545 1.5 15.75 1.5C13.955 1.5 12.5 2.955 12.5 4.75C12.5 4.8345 12.5065 4.917 12.5125 5H12.5V7C12.5 7.552 12.948 8 13.5 8H18C18.552 8 19 7.552 19 7V5H18.9875C18.9935 4.917 19 4.8345 19 4.75ZM15.75 3C16.4405 3 17 3.5595 17 4.25C17 4.9405 16.4405 5.5 15.75 5.5C15.0595 5.5 14.5 4.9405 14.5 4.25C14.5 3.5595 15.0595 3 15.75 3Z" fill="url(#paint3_linear_206_7132)"/>
</g>
<defs>
<linearGradient id="paint0_linear_206_7132" x1="1.5" y1="16.5" x2="22.5" y2="16.5" gradientUnits="userSpaceOnUse">
<stop stop-color="#FFCF54"/>
<stop offset="0.261" stop-color="#FDCB4D"/>
<stop offset="0.639" stop-color="#F7C13A"/>
<stop offset="1" stop-color="#F0B421"/>
</linearGradient>
<linearGradient id="paint1_linear_206_7132" x1="11.1685" y1="18.184" x2="12.061" y2="16.644" gradientUnits="userSpaceOnUse">
<stop stop-color="#F0B421" stop-opacity="0"/>
<stop offset="0.512" stop-color="#E9AB12" stop-opacity="0.512"/>
<stop offset="1" stop-color="#E09F00"/>
</linearGradient>
<linearGradient id="paint2_linear_206_7132" x1="15.75" y1="7.9935" x2="15.75" y2="12.5045" gradientUnits="userSpaceOnUse">
<stop stop-color="#E5A505"/>
<stop offset="0.01" stop-color="#E9A804"/>
<stop offset="0.06" stop-color="#F4B102"/>
<stop offset="0.129" stop-color="#FBB600"/>
<stop offset="0.323" stop-color="#FDB700"/>
</linearGradient>
<linearGradient id="paint3_linear_206_7132" x1="13.489" y1="2.238" x2="17.679" y2="8.3295" gradientUnits="userSpaceOnUse">
<stop stop-color="#FEDE00"/>
<stop offset="1" stop-color="#FFD000"/>
</linearGradient>
</defs>
</svg>
