<svg width="24" height="24" viewBox="0 0 24 24" fill="none" xmlns="http://www.w3.org/2000/svg">
<g id="letter-from-clinic">
<path id="Vector" d="M21.5 14.75H2.5V8.29999C2.5 7.94999 2.7 7.64999 2.95 7.44999L11.2 2.24999C11.7 1.94999 12.3 1.94999 12.8 2.24999L21.05 7.44999C21.35 7.64999 21.5 7.94999 21.5 8.29999V14.75Z" fill="url(#paint0_linear_206_7147)"/>
<path id="Vector_2" d="M19 16H5V7C5 6.7 5.2 6.5 5.5 6.5H18.5C18.8 6.5 19 6.7 19 7V16Z" fill="url(#paint1_linear_206_7147)"/>
<path id="Vector_3" d="M21.5 8.5V19.15C21.5 19.65 21.1 20 20.6 20H4.8L7.2 16.85L21.5 8.5Z" fill="url(#paint2_linear_206_7147)"/>
<path id="Vector_4" d="M2.5 8.5V19.15C2.5 19.65 2.9 20 3.4 20H20.65C20.95 20 21.2 19.85 21.35 19.65L2.5 8.5Z" fill="url(#paint3_linear_206_7147)"/>
<path id="Vector_5" d="M13.75 9.5H12.5V8.25C12.5 8.1 12.4 8 12.25 8H11.75C11.6 8 11.5 8.1 11.5 8.25V9.5H10.25C10.1 9.5 10 9.6 10 9.75V10.25C10 10.4 10.1 10.5 10.25 10.5H11.5V11.75C11.5 11.9 11.6 12 11.75 12H12.25C12.4 12 12.5 11.9 12.5 11.75V10.5H13.75C13.9 10.5 14 10.4 14 10.25V9.75C14 9.6 13.9 9.5 13.75 9.5Z" fill="url(#paint4_linear_206_7147)"/>
</g>
<defs>
<linearGradient id="paint0_linear_206_7147" x1="9.4605" y1="2.85749" x2="12.5715" y2="13.3575" gradientUnits="userSpaceOnUse">
<stop stop-color="#0078D3"/>
<stop offset="1" stop-color="#0858A1"/>
</linearGradient>
<linearGradient id="paint1_linear_206_7147" x1="12" y1="6.708" x2="12" y2="13.6165" gradientUnits="userSpaceOnUse">
<stop stop-color="white"/>
<stop offset="0.24" stop-color="#F8F8F7"/>
<stop offset="1" stop-color="#E3E3E1"/>
</linearGradient>
<linearGradient id="paint2_linear_206_7147" x1="12.943" y1="13.968" x2="18.9985" y2="22.6345" gradientUnits="userSpaceOnUse">
<stop stop-color="#3CCBF4"/>
<stop offset="1" stop-color="#1FA0E5"/>
</linearGradient>
<linearGradient id="paint3_linear_206_7147" x1="1.537" y1="13.618" x2="19.981" y2="22.5625" gradientUnits="userSpaceOnUse">
<stop stop-color="#28AFEA"/>
<stop offset="1" stop-color="#0B88DA"/>
</linearGradient>
<linearGradient id="paint4_linear_206_7147" x1="11.0005" y1="8.267" x2="13.008" y2="11.7475" gradientUnits="userSpaceOnUse">
<stop stop-color="#F44F5A"/>
<stop offset="0.443" stop-color="#EE3D4A"/>
<stop offset="1" stop-color="#E52030"/>
</linearGradient>
</defs>
</svg>
