<svg width="24" height="24" viewBox="0 0 24 24" fill="none" xmlns="http://www.w3.org/2000/svg">
<g id="licence">
<path id="Vector" d="M19.5 3.5V20.5C19.4992 20.765 19.3936 21.0189 19.2062 21.2062C19.0189 21.3936 18.765 21.4992 18.5 21.5H5.5C5.23502 21.4992 4.98112 21.3936 4.79375 21.2062C4.60639 21.0189 4.50078 20.765 4.5 20.5V3.5C4.49996 3.36867 4.52581 3.23862 4.57605 3.11727C4.62629 2.99593 4.69995 2.88568 4.79281 2.79281C4.88568 2.69995 4.99593 2.62629 5.11727 2.57605C5.23862 2.52581 5.36867 2.49996 5.5 2.5H18.5C18.6313 2.49996 18.7614 2.52581 18.8827 2.57605C19.0041 2.62629 19.1143 2.69995 19.2072 2.79281C19.3001 2.88568 19.3737 2.99593 19.424 3.11727C19.4742 3.23862 19.5 3.36867 19.5 3.5Z" fill="url(#paint0_linear_206_7193)"/>
<path id="Vector_2" d="M16.4952 18.625H13.5058L13.5057 22.8503C13.5057 22.8768 13.5128 22.9028 13.5261 22.9256C13.5394 22.9484 13.5585 22.9673 13.5815 22.9804C13.6046 22.9934 13.6306 23.0001 13.657 22.9997C13.6835 22.9994 13.7094 22.9921 13.732 22.9784L15 22.25L16.2688 22.9785C16.2914 22.9921 16.3173 22.9994 16.3438 22.9998C16.3702 23.0001 16.3962 22.9934 16.4193 22.9804C16.4423 22.9674 16.4614 22.9485 16.4747 22.9256C16.488 22.9028 16.4951 22.8768 16.4951 22.8504L16.4952 18.625Z" fill="url(#paint1_radial_206_7193)"/>
<path id="Vector_3" opacity="0.05" d="M18 17.5C18.0009 17.3661 17.9668 17.2342 17.901 17.1176C17.8352 17.0009 17.7401 16.9035 17.625 16.835L17.58 16.81L17.605 16.765C17.6703 16.6477 17.7041 16.5156 17.7032 16.3814C17.7022 16.2472 17.6665 16.1155 17.5995 15.9992C17.5326 15.8829 17.4366 15.7859 17.3211 15.7177C17.2055 15.6495 17.0742 15.6124 16.94 15.61H16.89V15.56C16.8852 15.3569 16.8017 15.1636 16.6571 15.0208C16.5125 14.8781 16.3182 14.7971 16.115 14.795C15.9818 14.7949 15.8509 14.8294 15.735 14.895L15.69 14.92L15.665 14.875C15.5958 14.7605 15.4982 14.6659 15.3817 14.6002C15.2652 14.5345 15.1338 14.5 15 14.5C14.8663 14.5 14.7348 14.5345 14.6183 14.6002C14.5018 14.6659 14.4042 14.7605 14.335 14.875L14.31 14.92L14.265 14.895C14.1507 14.83 14.0215 14.7956 13.89 14.795C13.6863 14.797 13.4913 14.8777 13.3459 15.0204C13.2005 15.163 13.1159 15.3564 13.11 15.56V15.61H13.06C12.9258 15.6124 12.7945 15.6495 12.679 15.7177C12.5634 15.7859 12.4674 15.8829 12.4005 15.9992C12.3335 16.1155 12.2978 16.2472 12.2969 16.3814C12.2959 16.5156 12.3297 16.6477 12.395 16.765L12.42 16.81L12.375 16.835C12.2606 16.9042 12.1659 17.0018 12.1002 17.1183C12.0345 17.2348 12 17.3662 12 17.5C12 17.6337 12.0345 17.7652 12.1002 17.8817C12.1659 17.9982 12.2606 18.0958 12.375 18.165L12.42 18.19L12.395 18.235C12.3318 18.348 12.298 18.475 12.2965 18.6045C12.2951 18.734 12.3261 18.8617 12.3868 18.9761C12.4475 19.0905 12.5358 19.1879 12.6438 19.2593C12.7518 19.3307 12.876 19.3739 13.005 19.385V21.5H13.505V18.995C13.4447 18.9317 13.3623 18.8941 13.275 18.89H13.07C13.0223 18.8892 12.9756 18.8761 12.9344 18.852C12.8932 18.8279 12.8589 18.7936 12.8348 18.7524C12.8107 18.7112 12.7976 18.6645 12.7968 18.6168C12.7959 18.5691 12.8074 18.522 12.83 18.48L12.93 18.3C12.9723 18.2238 12.983 18.134 12.96 18.05L12.955 18.045C12.9458 18.0028 12.9282 17.963 12.9033 17.9278C12.8784 17.8925 12.8467 17.8627 12.81 17.84L12.635 17.735C12.5939 17.711 12.5598 17.6767 12.5361 17.6355C12.5124 17.5943 12.5 17.5475 12.5 17.5C12.5 17.4524 12.5124 17.4057 12.5361 17.3645C12.5598 17.3232 12.5939 17.2889 12.635 17.265L12.81 17.16C12.8467 17.1373 12.8784 17.1074 12.9033 17.0722C12.9282 17.037 12.9458 16.9971 12.955 16.955L12.96 16.95C12.983 16.8659 12.9723 16.7762 12.93 16.7L12.835 16.52C12.8114 16.4785 12.7989 16.4316 12.799 16.3839C12.799 16.3361 12.8115 16.2892 12.8353 16.2478C12.859 16.2064 12.8932 16.1719 12.9343 16.1477C12.9755 16.1235 13.0223 16.1105 13.07 16.11H13.275C13.3618 16.1038 13.4435 16.0665 13.505 16.005C13.5666 15.9435 13.6038 15.8618 13.61 15.775V15.57C13.6096 15.5213 13.6222 15.4734 13.6465 15.4313C13.6708 15.3891 13.706 15.3543 13.7483 15.3303C13.7907 15.3063 13.8386 15.2941 13.8873 15.2949C13.936 15.2958 13.9835 15.3096 14.025 15.335L14.2 15.43C14.2468 15.4577 14.3006 15.4716 14.355 15.47C14.3885 15.4691 14.422 15.4658 14.455 15.46V15.455C14.4972 15.4458 14.537 15.4282 14.5722 15.4033C14.6074 15.3784 14.6373 15.3467 14.66 15.31L14.765 15.135C14.7895 15.0938 14.8243 15.0598 14.8659 15.0361C14.9075 15.0124 14.9546 15 15.0025 15C15.0504 15 15.0975 15.0124 15.1391 15.0361C15.1807 15.0598 15.2155 15.0938 15.24 15.135L15.345 15.31C15.3667 15.3465 15.3956 15.3782 15.43 15.4031C15.4644 15.4281 15.5036 15.4457 15.545 15.455C15.5457 15.455 15.5463 15.4551 15.5469 15.4553C15.5475 15.4556 15.5481 15.456 15.5486 15.4564C15.549 15.4569 15.5494 15.4574 15.5496 15.4581C15.5499 15.4587 15.55 15.4593 15.55 15.46C15.5813 15.4658 15.6131 15.4691 15.645 15.47C15.6994 15.4716 15.7531 15.4577 15.8 15.43L15.98 15.33C16.0218 15.3085 16.0679 15.2965 16.115 15.295C16.1875 15.2964 16.2566 15.3259 16.3078 15.3771C16.3591 15.4284 16.3885 15.4975 16.39 15.57L16.395 15.775C16.3973 15.8617 16.4331 15.9442 16.495 16.005C16.5559 16.0674 16.6379 16.1048 16.725 16.11H16.93C16.9777 16.1108 17.0244 16.1239 17.0656 16.148C17.1068 16.1721 17.1411 16.2064 17.1652 16.2476C17.1893 16.2887 17.2024 16.3354 17.2032 16.3831C17.2041 16.4309 17.1926 16.478 17.17 16.52L17.07 16.7C17.0487 16.7376 17.0354 16.7793 17.0311 16.8223C17.0268 16.8654 17.0315 16.9089 17.045 16.95V16.955C17.0673 17.0384 17.1188 17.1111 17.19 17.16L17.365 17.265C17.4061 17.2889 17.4402 17.3232 17.4639 17.3645C17.4875 17.4057 17.5 17.4524 17.5 17.5C17.5 17.5475 17.4875 17.5943 17.4639 17.6355C17.4402 17.6767 17.4061 17.711 17.365 17.735L17.19 17.84C17.1533 17.8627 17.1216 17.8925 17.0967 17.9278C17.0717 17.963 17.0542 18.0028 17.045 18.045L17.04 18.05C17.017 18.134 17.0277 18.2238 17.07 18.3L17.17 18.48C17.1926 18.522 17.2041 18.5691 17.2032 18.6168C17.2024 18.6645 17.1893 18.7112 17.1652 18.7524C17.1411 18.7936 17.1068 18.8279 17.0656 18.852C17.0244 18.8761 16.9777 18.8892 16.93 18.89H16.725C16.6377 18.8941 16.5553 18.9317 16.495 18.995V21.5H16.995V19.385C17.124 19.3739 17.2482 19.3307 17.3562 19.2593C17.4642 19.1879 17.5525 19.0905 17.6132 18.9761C17.6739 18.8617 17.7049 18.734 17.7035 18.6045C17.702 18.475 17.6682 18.348 17.605 18.235L17.58 18.19L17.625 18.165C17.7401 18.0965 17.8352 17.9991 17.901 17.8824C17.9668 17.7658 18.0009 17.6339 18 17.5Z" fill="black"/>
<path id="Vector_4" opacity="0.07" d="M17.495 17.05L17.32 16.945C17.3032 16.9305 17.291 16.9114 17.285 16.89C17.2787 16.8668 17.2805 16.8421 17.29 16.82L17.385 16.645C17.4305 16.5659 17.4544 16.4762 17.4544 16.385C17.4544 16.2938 17.4305 16.2041 17.385 16.125C17.3389 16.046 17.2734 15.9802 17.1946 15.9338C17.1158 15.8874 17.0264 15.862 16.935 15.86H16.73C16.7085 15.8575 16.6888 15.8467 16.675 15.83C16.6663 15.8225 16.6591 15.8133 16.654 15.803C16.6488 15.7927 16.6458 15.7815 16.645 15.77L16.64 15.565C16.6394 15.4734 16.6148 15.3836 16.5686 15.3045C16.5224 15.2255 16.4563 15.1599 16.3769 15.1143C16.2974 15.0688 16.2074 15.0449 16.1158 15.045C16.0243 15.0451 15.9343 15.0693 15.855 15.115L15.68 15.215C15.6689 15.2195 15.6569 15.2212 15.645 15.22C15.6347 15.2208 15.6244 15.2191 15.615 15.215C15.5917 15.2103 15.5705 15.198 15.555 15.18L15.45 15.005C15.4042 14.9265 15.3384 14.8616 15.2594 14.8168C15.1803 14.772 15.0908 14.749 15 14.75C14.9093 14.7496 14.82 14.7729 14.7411 14.8176C14.6621 14.8623 14.5963 14.9269 14.55 15.005L14.445 15.18C14.4324 15.1967 14.4149 15.2089 14.395 15.215H14.385C14.3756 15.2191 14.3653 15.2208 14.355 15.22C14.3431 15.2208 14.3312 15.2191 14.32 15.215L14.145 15.115C14.0673 15.0705 13.9796 15.0464 13.89 15.045C13.7515 15.0462 13.6189 15.1011 13.5201 15.1981C13.4212 15.295 13.3639 15.4266 13.36 15.565V15.77C13.358 15.7891 13.3491 15.8069 13.335 15.82L13.31 15.84V15.845C13.298 15.853 13.2843 15.8581 13.27 15.86H13.065C12.9741 15.8624 12.8854 15.8881 12.8074 15.9347C12.7293 15.9813 12.6646 16.0472 12.6194 16.1261C12.5742 16.2049 12.5501 16.2941 12.5493 16.3849C12.5485 16.4758 12.5711 16.5654 12.615 16.645L12.715 16.82C12.7214 16.8393 12.7231 16.8599 12.72 16.88L12.715 16.89C12.709 16.9114 12.6968 16.9305 12.68 16.945L12.505 17.05C12.4272 17.0966 12.3629 17.1625 12.3182 17.2414C12.2735 17.3203 12.25 17.4094 12.25 17.5C12.25 17.5907 12.2735 17.6798 12.3182 17.7586C12.3629 17.8375 12.4272 17.9034 12.505 17.95L12.68 18.055C12.6968 18.0695 12.709 18.0886 12.715 18.11C12.7226 18.1327 12.7226 18.1573 12.715 18.18L12.615 18.355C12.5711 18.4346 12.5485 18.5242 12.5493 18.6151C12.55 18.7059 12.5742 18.7951 12.6194 18.874C12.6646 18.9528 12.7293 19.0187 12.8074 19.0653C12.8854 19.1119 12.9741 19.1376 13.065 19.14H13.255V21.5H13.505V18.995C13.4447 18.9318 13.3623 18.8942 13.275 18.89H13.07C13.0223 18.8892 12.9756 18.8761 12.9344 18.852C12.8932 18.8279 12.8589 18.7936 12.8348 18.7524C12.8107 18.7113 12.7976 18.6646 12.7968 18.6168C12.7959 18.5691 12.8074 18.522 12.83 18.48L12.93 18.3C12.9723 18.2238 12.983 18.1341 12.96 18.05L12.955 18.045C12.9458 18.0029 12.9282 17.963 12.9033 17.9278C12.8784 17.8926 12.8467 17.8627 12.81 17.84L12.635 17.735C12.5939 17.7111 12.5598 17.6768 12.5361 17.6355C12.5124 17.5943 12.5 17.5476 12.5 17.5C12.5 17.4524 12.5124 17.4057 12.5361 17.3645C12.5598 17.3233 12.5939 17.2889 12.635 17.265L12.81 17.16C12.8467 17.1373 12.8784 17.1074 12.9033 17.0722C12.9282 17.037 12.9458 16.9971 12.955 16.955L12.96 16.95C12.983 16.866 12.9723 16.7762 12.93 16.7L12.835 16.52C12.8113 16.4785 12.7989 16.4316 12.799 16.3839C12.799 16.3361 12.8115 16.2892 12.8353 16.2478C12.859 16.2064 12.8932 16.1719 12.9343 16.1477C12.9755 16.1236 13.0223 16.1106 13.07 16.11H13.275C13.3618 16.1038 13.4435 16.0666 13.505 16.005C13.5666 15.9435 13.6038 15.8618 13.61 15.775V15.57C13.6096 15.5213 13.6222 15.4735 13.6465 15.4313C13.6708 15.3892 13.706 15.3543 13.7483 15.3303C13.7906 15.3063 13.8386 15.2941 13.8873 15.2949C13.9359 15.2958 13.9835 15.3096 14.025 15.335L14.2 15.43C14.2468 15.4577 14.3006 15.4716 14.355 15.47C14.3885 15.4692 14.422 15.4658 14.455 15.46V15.455C14.4971 15.4458 14.537 15.4282 14.5722 15.4033C14.6074 15.3784 14.6373 15.3467 14.66 15.31L14.765 15.135C14.7895 15.0939 14.8243 15.0598 14.8659 15.0361C14.9075 15.0124 14.9546 15 15.0025 15C15.0504 15 15.0975 15.0124 15.1391 15.0361C15.1807 15.0598 15.2155 15.0939 15.24 15.135L15.345 15.31C15.3667 15.3465 15.3956 15.3782 15.43 15.4032C15.4644 15.4281 15.5035 15.4457 15.545 15.455C15.5457 15.455 15.5463 15.4551 15.5469 15.4554C15.5475 15.4556 15.5481 15.456 15.5486 15.4564C15.549 15.4569 15.5494 15.4575 15.5496 15.4581C15.5499 15.4587 15.55 15.4593 15.55 15.46C15.5813 15.4658 15.6131 15.4692 15.645 15.47C15.6994 15.4716 15.7531 15.4577 15.8 15.43L15.98 15.33C16.0218 15.3085 16.0679 15.2966 16.115 15.295C16.1875 15.2964 16.2566 15.3259 16.3078 15.3771C16.3591 15.4284 16.3885 15.4975 16.39 15.57L16.395 15.775C16.3973 15.8617 16.4331 15.9442 16.495 16.005C16.5559 16.0674 16.6379 16.1048 16.725 16.11H16.93C16.9777 16.1108 17.0244 16.1239 17.0656 16.148C17.1068 16.1721 17.1411 16.2064 17.1652 16.2476C17.1893 16.2888 17.2024 16.3354 17.2032 16.3832C17.2041 16.4309 17.1926 16.478 17.17 16.52L17.07 16.7C17.0486 16.7376 17.0354 16.7793 17.0311 16.8224C17.0268 16.8654 17.0315 16.9089 17.045 16.95V16.955C17.0673 17.0384 17.1188 17.1111 17.19 17.16L17.365 17.265C17.4061 17.2889 17.4402 17.3233 17.4638 17.3645C17.4875 17.4057 17.5 17.4524 17.5 17.5C17.5 17.5476 17.4875 17.5943 17.4638 17.6355C17.4402 17.6768 17.4061 17.7111 17.365 17.735L17.19 17.84C17.1533 17.8627 17.1216 17.8926 17.0966 17.9278C17.0717 17.963 17.0542 18.0029 17.045 18.045L17.04 18.05C17.0169 18.1341 17.0277 18.2238 17.07 18.3L17.17 18.48C17.1926 18.522 17.2041 18.5691 17.2032 18.6168C17.2024 18.6646 17.1893 18.7113 17.1652 18.7524C17.1411 18.7936 17.1068 18.8279 17.0656 18.852C17.0244 18.8761 16.9777 18.8892 16.93 18.89H16.725C16.6377 18.8942 16.5553 18.9318 16.495 18.995V21.5H16.745V19.14H16.935C17.0258 19.1376 17.1146 19.1119 17.1926 19.0653C17.2706 19.0187 17.3354 18.9528 17.3806 18.874C17.4258 18.7951 17.4499 18.7059 17.4507 18.6151C17.4515 18.5242 17.4288 18.4346 17.385 18.355L17.285 18.18C17.2774 18.159 17.2774 18.136 17.285 18.115C17.2896 18.0917 17.3019 18.0705 17.32 18.055L17.495 17.95C17.5734 17.9042 17.6384 17.8384 17.6832 17.7594C17.728 17.6804 17.751 17.5909 17.75 17.5C17.7504 17.4093 17.7271 17.32 17.6824 17.2411C17.6376 17.1621 17.5731 17.0963 17.495 17.05Z" fill="black"/>
<path id="Vector_5" d="M12.5 6H7.5C7.22386 6 7 6.22386 7 6.5C7 6.77614 7.22386 7 7.5 7H12.5C12.7761 7 13 6.77614 13 6.5C13 6.22386 12.7761 6 12.5 6Z" fill="#057093"/>
<path id="Vector_6" d="M14.5 8.5H7.5C7.22386 8.5 7 8.72386 7 9C7 9.27614 7.22386 9.5 7.5 9.5H14.5C14.7761 9.5 15 9.27614 15 9C15 8.72386 14.7761 8.5 14.5 8.5Z" fill="#057093"/>
<path id="Vector_7" d="M16.5 11H7.5C7.22386 11 7 11.2239 7 11.5C7 11.7761 7.22386 12 7.5 12H16.5C16.7761 12 17 11.7761 17 11.5C17 11.2239 16.7761 11 16.5 11Z" fill="#057093"/>
<path id="Vector_8" d="M16.5 6H14.5C14.2239 6 14 6.22386 14 6.5C14 6.77614 14.2239 7 14.5 7H16.5C16.7761 7 17 6.77614 17 6.5C17 6.22386 16.7761 6 16.5 6Z" fill="#057093"/>
<path id="Vector_9" d="M10.5 13.5H7.5C7.22386 13.5 7 13.7239 7 14C7 14.2761 7.22386 14.5 7.5 14.5H10.5C10.7761 14.5 11 14.2761 11 14C11 13.7239 10.7761 13.5 10.5 13.5Z" fill="#057093"/>
<path id="Vector_10" d="M17.367 17.2634L17.1922 17.1584C17.1188 17.1127 17.0659 17.0403 17.0447 16.9564L17.0435 16.9516C17.019 16.8678 17.0284 16.7776 17.0697 16.7006L17.1688 16.5224C17.1919 16.4807 17.2039 16.4337 17.2035 16.3859C17.2031 16.3382 17.1904 16.2914 17.1665 16.2501C17.1427 16.2088 17.1085 16.1743 17.0674 16.1501C17.0263 16.1259 16.9796 16.1128 16.9319 16.112L16.7262 16.1084C16.6393 16.1056 16.557 16.0691 16.4967 16.0066L16.4947 16.0046C16.432 15.9443 16.3954 15.8619 16.3927 15.775L16.3893 15.5692C16.3885 15.5215 16.3753 15.4748 16.3511 15.4337C16.3269 15.3926 16.2925 15.3585 16.2511 15.3346C16.2098 15.3108 16.163 15.298 16.1153 15.2976C16.0676 15.2972 16.0206 15.3092 15.9789 15.3324L15.8007 15.4314C15.7237 15.4727 15.6335 15.4822 15.5496 15.4577L15.5449 15.4564C15.461 15.4353 15.3886 15.3824 15.3429 15.3089L15.2379 15.1341C15.2133 15.0932 15.1786 15.0594 15.1371 15.0359C15.0955 15.0124 15.0487 15 15.0009 15C14.9532 15 14.9063 15.0124 14.8648 15.0359C14.8233 15.0594 14.7886 15.0932 14.764 15.1341L14.6595 15.3082C14.6134 15.3822 14.5405 15.4355 14.456 15.457L14.4533 15.4577C14.3687 15.4825 14.2777 15.473 14.2002 15.4311L14.0226 15.3326C13.9809 15.3095 13.9339 15.2975 13.8862 15.2979C13.8385 15.2983 13.7917 15.311 13.7503 15.3349C13.709 15.3587 13.6746 15.3929 13.6504 15.434C13.6262 15.4751 13.613 15.5218 13.6122 15.5695L13.6085 15.775C13.6056 15.8618 13.5691 15.9441 13.5067 16.0045L13.5047 16.0064C13.4444 16.069 13.3621 16.1055 13.2752 16.1082L13.0695 16.1117C13.0218 16.1125 12.9751 16.1256 12.9339 16.1498C12.8928 16.1741 12.8587 16.2085 12.8348 16.2498C12.811 16.2911 12.7982 16.3379 12.7978 16.3857C12.7974 16.4334 12.8094 16.4804 12.8326 16.5221L12.9317 16.7003C12.973 16.7773 12.9824 16.8675 12.9579 16.9514L12.9564 16.9561C12.9352 17.0399 12.8823 17.1123 12.8088 17.1581L12.6341 17.2631C12.5932 17.2877 12.5593 17.3224 12.5358 17.3639C12.5123 17.4054 12.5 17.4523 12.5 17.5C12.5 17.5477 12.5123 17.5946 12.5358 17.6362C12.5593 17.6777 12.5932 17.7124 12.6341 17.737L12.8088 17.842C12.8823 17.8877 12.9352 17.9601 12.9564 18.044L12.9576 18.0487C12.9821 18.1326 12.9727 18.2227 12.9314 18.2997L12.8323 18.478C12.8091 18.5197 12.7972 18.5667 12.7976 18.6144C12.7979 18.6621 12.8107 18.7089 12.8345 18.7502C12.8584 18.7916 12.8925 18.826 12.9337 18.8502C12.9748 18.8744 13.0215 18.8876 13.0692 18.8884L13.2749 18.8918C13.3618 18.8946 13.4441 18.9311 13.5044 18.9937L13.5064 18.9956C13.5689 19.0559 13.6054 19.1383 13.6082 19.2251L13.6117 19.4308C13.6125 19.4785 13.6256 19.5252 13.6498 19.5663C13.674 19.6074 13.7085 19.6416 13.7498 19.6654C13.7911 19.6893 13.8379 19.702 13.8856 19.7024C13.9333 19.7028 13.9803 19.6909 14.022 19.6677L14.2003 19.5687C14.2773 19.5273 14.3674 19.5179 14.4513 19.5424L14.456 19.5436C14.5399 19.5648 14.6123 19.6177 14.658 19.6912L14.7631 19.8659C14.7876 19.9068 14.8223 19.9407 14.8639 19.9642C14.9054 19.9877 14.9523 20 15 20C15.0477 20 15.0946 19.9877 15.1361 19.9642C15.1776 19.9407 15.2124 19.9068 15.2369 19.8659L15.3419 19.6912C15.3876 19.6177 15.4601 19.5648 15.5439 19.5436L15.5487 19.5424C15.6326 19.5179 15.7227 19.5273 15.7997 19.5687L15.9779 19.6677C16.0196 19.6909 16.0667 19.7029 16.1144 19.7025C16.1621 19.7021 16.2089 19.6893 16.2502 19.6655C16.2915 19.6416 16.326 19.6075 16.3502 19.5664C16.3744 19.5252 16.3875 19.4785 16.3883 19.4308L16.3918 19.2251C16.3946 19.1383 16.4311 19.0559 16.4936 18.9956L16.4956 18.9937C16.5559 18.9311 16.6382 18.8946 16.7251 18.8918L16.9308 18.8883C16.9785 18.8875 17.0252 18.8744 17.0663 18.8502C17.1074 18.826 17.1416 18.7915 17.1654 18.7502C17.1893 18.7089 17.202 18.6621 17.2024 18.6144C17.2028 18.5667 17.1908 18.5197 17.1677 18.478L17.0686 18.2997C17.0273 18.2227 17.0179 18.1326 17.0424 18.0487L17.0436 18.044C17.0648 17.9601 17.1177 17.8877 17.1911 17.842L17.3659 17.7369C17.407 17.7126 17.441 17.678 17.4647 17.6365C17.4883 17.5951 17.5008 17.5482 17.501 17.5005C17.5011 17.4527 17.4888 17.4058 17.4653 17.3642C17.4418 17.3227 17.4079 17.2879 17.367 17.2634Z" fill="url(#paint2_linear_206_7193)"/>
</g>
<defs>
<linearGradient id="paint0_linear_206_7193" x1="9.22929" y1="2.79171" x2="19.7783" y2="18.8491" gradientUnits="userSpaceOnUse">
<stop stop-color="#7DD8F3"/>
<stop offset="1" stop-color="#45B0D0"/>
</linearGradient>
<radialGradient id="paint1_radial_206_7193" cx="0" cy="0" r="1" gradientUnits="userSpaceOnUse" gradientTransform="translate(14.992 16.6135) scale(4.2685)">
<stop offset="0.655" stop-color="#871233"/>
<stop offset="0.718" stop-color="#8E1336"/>
<stop offset="0.812" stop-color="#A3163E"/>
<stop offset="0.9" stop-color="#BC1948"/>
</radialGradient>
<linearGradient id="paint2_linear_206_7193" x1="13.7295" y1="15.2905" x2="16.2615" y2="19.692" gradientUnits="userSpaceOnUse">
<stop stop-color="#FFDA1C"/>
<stop offset="1" stop-color="#FEB705"/>
</linearGradient>
</defs>
</svg>
