<svg width="24" height="24" viewBox="0 0 24 24" fill="none" xmlns="http://www.w3.org/2000/svg">
<g id="light-on">
<path id="Vector" d="M15 19H9C9 19.4275 9 20.2 9 20.2C9 21.857 10.343 23.2 12 23.2C13.657 23.2 15 21.857 15 20.2C15 20.2 15 19.4275 15 19Z" fill="url(#paint0_radial_206_7204)"/>
<path id="Vector_2" d="M18 10.5C18 7.1865 15.3135 4.5 12 4.5C8.6865 4.5 6 7.1865 6 10.5C6 14 9 16.5 9 18.4V19H15V18.4C15 16.5 18 14 18 10.5Z" fill="url(#paint1_linear_206_7204)"/>
<path id="Vector_3" d="M21.5 11.5C22.0523 11.5 22.5 11.0523 22.5 10.5C22.5 9.94772 22.0523 9.5 21.5 9.5C20.9477 9.5 20.5 9.94772 20.5 10.5C20.5 11.0523 20.9477 11.5 21.5 11.5Z" fill="url(#paint2_linear_206_7204)"/>
<path id="Vector_4" d="M2.5 11.5C3.05228 11.5 3.5 11.0523 3.5 10.5C3.5 9.94772 3.05228 9.5 2.5 9.5C1.94772 9.5 1.5 9.94772 1.5 10.5C1.5 11.0523 1.94772 11.5 2.5 11.5Z" fill="url(#paint3_linear_206_7204)"/>
<path id="Vector_5" d="M12 2C12.5523 2 13 1.55228 13 1C13 0.447715 12.5523 0 12 0C11.4477 0 11 0.447715 11 1C11 1.55228 11.4477 2 12 2Z" fill="url(#paint4_linear_206_7204)"/>
<path id="Vector_6" d="M18.7175 18.2175C19.2698 18.2175 19.7175 17.7698 19.7175 17.2175C19.7175 16.6652 19.2698 16.2175 18.7175 16.2175C18.1652 16.2175 17.7175 16.6652 17.7175 17.2175C17.7175 17.7698 18.1652 18.2175 18.7175 18.2175Z" fill="url(#paint5_linear_206_7204)"/>
<path id="Vector_7" d="M5.2825 4.7825C5.83479 4.7825 6.2825 4.33479 6.2825 3.7825C6.2825 3.23022 5.83479 2.7825 5.2825 2.7825C4.73022 2.7825 4.2825 3.23022 4.2825 3.7825C4.2825 4.33479 4.73022 4.7825 5.2825 4.7825Z" fill="url(#paint6_linear_206_7204)"/>
<path id="Vector_8" d="M5.2825 18.2175C5.83479 18.2175 6.2825 17.7698 6.2825 17.2175C6.2825 16.6652 5.83479 16.2175 5.2825 16.2175C4.73022 16.2175 4.2825 16.6652 4.2825 17.2175C4.2825 17.7698 4.73022 18.2175 5.2825 18.2175Z" fill="url(#paint7_linear_206_7204)"/>
<path id="Vector_9" d="M18.7175 4.7825C19.2698 4.7825 19.7175 4.33479 19.7175 3.7825C19.7175 3.23022 19.2698 2.7825 18.7175 2.7825C18.1652 2.7825 17.7175 3.23022 17.7175 3.7825C17.7175 4.33479 18.1652 4.7825 18.7175 4.7825Z" fill="url(#paint8_linear_206_7204)"/>
</g>
<defs>
<radialGradient id="paint0_radial_206_7204" cx="0" cy="0" r="1" gradientUnits="userSpaceOnUse" gradientTransform="translate(10.606 18.6775) scale(6.0395)">
<stop stop-color="#6E757B"/>
<stop offset="1" stop-color="#4A4E52"/>
</radialGradient>
<linearGradient id="paint1_linear_206_7204" x1="10.13" y1="4.685" x2="15.093" y2="20.208" gradientUnits="userSpaceOnUse">
<stop stop-color="#FFDA1C"/>
<stop offset="1" stop-color="#FEB705"/>
</linearGradient>
<linearGradient id="paint2_linear_206_7204" x1="15.8135" y1="-3.5985" x2="24.557" y2="18.08" gradientUnits="userSpaceOnUse">
<stop stop-color="#FFDA1C"/>
<stop offset="1" stop-color="#FEB705"/>
</linearGradient>
<linearGradient id="paint3_linear_206_7204" x1="-0.528" y1="2.9925" x2="8.2155" y2="24.671" gradientUnits="userSpaceOnUse">
<stop stop-color="#FFDA1C"/>
<stop offset="1" stop-color="#FEB705"/>
</linearGradient>
<linearGradient id="paint4_linear_206_7204" x1="10.9385" y1="-1.632" x2="19.682" y2="20.0465" gradientUnits="userSpaceOnUse">
<stop stop-color="#FFDA1C"/>
<stop offset="1" stop-color="#FEB705"/>
</linearGradient>
<linearGradient id="paint5_linear_206_7204" x1="11.09" y1="-1.6935" x2="19.8335" y2="19.985" gradientUnits="userSpaceOnUse">
<stop stop-color="#FFDA1C"/>
<stop offset="1" stop-color="#FEB705"/>
</linearGradient>
<linearGradient id="paint6_linear_206_7204" x1="4.1955" y1="1.0875" x2="12.939" y2="22.766" gradientUnits="userSpaceOnUse">
<stop stop-color="#FFDA1C"/>
<stop offset="1" stop-color="#FEB705"/>
</linearGradient>
<linearGradient id="paint7_linear_206_7204" x1="-0.464999" y1="2.967" x2="8.2785" y2="24.6455" gradientUnits="userSpaceOnUse">
<stop stop-color="#FFDA1C"/>
<stop offset="1" stop-color="#FEB705"/>
</linearGradient>
<linearGradient id="paint8_linear_206_7204" x1="15.7505" y1="-3.573" x2="24.4945" y2="18.1055" gradientUnits="userSpaceOnUse">
<stop stop-color="#FFDA1C"/>
<stop offset="1" stop-color="#FEB705"/>
</linearGradient>
</defs>
</svg>
