<svg width="24" height="24" viewBox="0 0 24 24" fill="none" xmlns="http://www.w3.org/2000/svg">
<g id="link-folder">
<path id="Vector" d="M22.25 20.5H1.75C1.0595 20.5 0.5 19.9405 0.5 19.25V3.75C0.5 3.0595 1.0595 2.5 1.75 2.5H7.5485C8.308 2.5 9.026 2.845 9.5005 3.4385L10.75 5H22.25C22.9405 5 23.5 5.5595 23.5 6.25V19.25C23.5 19.9405 22.9405 20.5 22.25 20.5Z" fill="url(#paint0_linear_206_7227)"/>
<path id="Vector_2" d="M0.5 18.9375V19.25C0.5 19.9405 1.0595 20.5 1.75 20.5H22.25C22.9405 20.5 23.5 19.9405 23.5 19.25V18.9375H0.5Z" fill="url(#paint1_linear_206_7227)"/>
<path id="Vector_3" d="M22.25 5.5H10.75L10.1315 5.912C9.557 6.2955 8.8815 6.5 8.1905 6.5H1.75C1.0595 6.5 0.5 7.0595 0.5 7.75V18.75C0.5 19.4405 1.0595 20 1.75 20H22.25C22.9405 20 23.5 19.4405 23.5 18.75V6.75C23.5 6.0595 22.9405 5.5 22.25 5.5Z" fill="url(#paint2_linear_206_7227)"/>
<path id="Vector_4" d="M22.25 20H1.75C1.0595 20 0.5 19.4405 0.5 18.75V8.25C0.5 7.5595 1.0595 7 1.75 7H8.378C9.069 7 9.7445 6.7955 10.3195 6.412L10.9375 6H22.25C22.9405 6 23.5 6.5595 23.5 7.25V18.75C23.5 19.4405 22.9405 20 22.25 20Z" fill="url(#paint3_radial_206_7227)"/>
<path id="Vector_5" d="M10.5 16.5H9.5C7.57 16.5 6 14.93 6 13C6 11.07 7.57 9.5 9.5 9.5H10.5C10.776 9.5 11 9.724 11 10C11 10.276 10.776 10.5 10.5 10.5H9.5C8.1215 10.5 7 11.6215 7 13C7 14.3785 8.1215 15.5 9.5 15.5H10.5C10.776 15.5 11 15.724 11 16C11 16.276 10.776 16.5 10.5 16.5ZM18 13C18 11.07 16.43 9.5 14.5 9.5H13.5C13.224 9.5 13 9.724 13 10C13 10.276 13.224 10.5 13.5 10.5H14.5C15.8785 10.5 17 11.6215 17 13C17 14.3785 15.8785 15.5 14.5 15.5H13.5C13.224 15.5 13 15.724 13 16C13 16.276 13.224 16.5 13.5 16.5H14.5C16.43 16.5 18 14.93 18 13ZM15 13C15 12.724 14.776 12.5 14.5 12.5H9.5C9.224 12.5 9 12.724 9 13C9 13.276 9.224 13.5 9.5 13.5H14.5C14.776 13.5 15 13.276 15 13Z" fill="url(#paint4_linear_206_7227)"/>
</g>
<defs>
<linearGradient id="paint0_linear_206_7227" x1="-3.509" y1="4.654" x2="19.6935" y2="16.7665" gradientUnits="userSpaceOnUse">
<stop stop-color="#FAC017"/>
<stop offset="0.909" stop-color="#E1AB2D"/>
</linearGradient>
<linearGradient id="paint1_linear_206_7227" x1="8.4325" y1="19.6435" x2="22.4825" y2="19.896" gradientUnits="userSpaceOnUse">
<stop stop-color="#E3A917"/>
<stop offset="0.464" stop-color="#D79C1E"/>
</linearGradient>
<linearGradient id="paint2_linear_206_7227" x1="-2.4395" y1="6.382" x2="17.984" y2="15.389" gradientUnits="userSpaceOnUse">
<stop offset="0.34" stop-color="#FFEFB2"/>
<stop offset="0.485" stop-color="#FFEDAD"/>
<stop offset="0.652" stop-color="#FFE99F"/>
<stop offset="0.828" stop-color="#FEE289"/>
<stop offset="1" stop-color="#FED86B"/>
</linearGradient>
<radialGradient id="paint3_radial_206_7227" cx="0" cy="0" r="1" gradientUnits="userSpaceOnUse" gradientTransform="translate(18.918 24.6585) scale(26.9375)">
<stop offset="0.199" stop-color="#FEC832"/>
<stop offset="0.601" stop-color="#FCD667"/>
<stop offset="0.68" stop-color="#FDDA75"/>
<stop offset="0.886" stop-color="#FEE496"/>
<stop offset="1" stop-color="#FFE8A2"/>
</radialGradient>
<linearGradient id="paint4_linear_206_7227" x1="9.6255" y1="8.887" x2="14.3745" y2="17.113" gradientUnits="userSpaceOnUse">
<stop stop-color="#C78902"/>
<stop offset="1" stop-color="#986700"/>
</linearGradient>
</defs>
</svg>
