<svg width="24" height="24" viewBox="0 0 24 24" fill="none" xmlns="http://www.w3.org/2000/svg">
<g id="linking">
<path id="Vector" d="M20 3H4C3.4475 3 3 3.4475 3 4V20C3 20.5525 3.4475 21 4 21H20C20.5525 21 21 20.5525 21 20V4C21 3.4475 20.5525 3 20 3Z" fill="url(#paint0_linear_206_7233)"/>
<path id="Vector_2" opacity="0.05" d="M10.1865 16.228C9.9195 16.228 9.668 16.124 9.4795 15.9345L8.0655 14.5205C7.8765 14.332 7.7725 14.081 7.7725 13.8135C7.7725 13.5465 7.8765 13.2955 8.0655 13.1065L14.5005 6.6705L13.3725 5.5425C13.1125 5.283 13.0355 4.8965 13.176 4.5575C13.3195 4.2135 13.6395 4 14.0115 4H18.6915C19.413 4 20 4.587 20 5.308V9.9885C20 10.4875 19.5935 10.893 19.0935 10.893C18.854 10.893 18.6285 10.799 18.4575 10.6275L17.3295 9.4995L10.894 15.9345C10.705 16.1235 10.454 16.228 10.1865 16.228Z" fill="black"/>
<path id="Vector_3" opacity="0.07" d="M10.1865 15.978C9.9865 15.978 9.798 15.9 9.656 15.758L8.242 14.344C8.1005 14.2025 8.0225 14.014 8.0225 13.814C8.0225 13.614 8.1005 13.4255 8.242 13.2835L14.854 6.67099L13.5495 5.36649C13.3615 5.17899 13.306 4.89899 13.4075 4.65399C13.511 4.40499 13.7425 4.25049 14.012 4.25049H18.692C19.2755 4.25049 19.75 4.72499 19.75 5.30849V9.98899C19.75 10.35 19.4555 10.6435 19.0935 10.6435C18.921 10.6435 18.758 10.575 18.634 10.451L17.3295 9.14649L10.717 15.758C10.5755 15.8995 10.387 15.978 10.1865 15.978Z" fill="black"/>
<path id="Vector_4" d="M13.726 5.1895L15.2075 6.671L8.419 13.46C8.2235 13.6555 8.2235 13.972 8.419 14.167L9.833 15.581C10.0285 15.7765 10.345 15.7765 10.54 15.581L17.329 8.7925L18.8105 10.274C19.065 10.5285 19.5 10.3485 19.5 9.9885V5.308C19.5 4.8615 19.1385 4.5 18.692 4.5H14.0115C13.6515 4.5 13.4715 4.935 13.726 5.1895Z" fill="#0D62AB"/>
</g>
<defs>
<linearGradient id="paint0_linear_206_7233" x1="8.67514" y1="3.27635" x2="17.5759" y2="20.4377" gradientUnits="userSpaceOnUse">
<stop stop-color="#7DD8F3"/>
<stop offset="1" stop-color="#45B0D0"/>
</linearGradient>
</defs>
</svg>
