<svg width="24" height="24" viewBox="0 0 24 24" fill="none" xmlns="http://www.w3.org/2000/svg">
<g id="list">
<path id="Vector" d="M21.5 7.5H7.5C6.95 7.5 6.5 7.05 6.5 6.5V5.5C6.5 4.95 6.95 4.5 7.5 4.5H21.5C22.05 4.5 22.5 4.95 22.5 5.5V6.5C22.5 7.05 22.05 7.5 21.5 7.5Z" fill="url(#paint0_linear_206_7246)"/>
<path id="Vector_2" d="M3.5 7.5H2.5C1.95 7.5 1.5 7.05 1.5 6.5V5.5C1.5 4.95 1.95 4.5 2.5 4.5H3.5C4.05 4.5 4.5 4.95 4.5 5.5V6.5C4.5 7.05 4.05 7.5 3.5 7.5Z" fill="url(#paint1_linear_206_7246)"/>
<path id="Vector_3" d="M21.5 13.5H7.5C6.95 13.5 6.5 13.05 6.5 12.5V11.5C6.5 10.95 6.95 10.5 7.5 10.5H21.5C22.05 10.5 22.5 10.95 22.5 11.5V12.5C22.5 13.05 22.05 13.5 21.5 13.5Z" fill="url(#paint2_linear_206_7246)"/>
<path id="Vector_4" d="M3.5 13.5H2.5C1.95 13.5 1.5 13.05 1.5 12.5V11.5C1.5 10.95 1.95 10.5 2.5 10.5H3.5C4.05 10.5 4.5 10.95 4.5 11.5V12.5C4.5 13.05 4.05 13.5 3.5 13.5Z" fill="url(#paint3_linear_206_7246)"/>
<path id="Vector_5" d="M21.5 19.5H7.5C6.95 19.5 6.5 19.05 6.5 18.5V17.5C6.5 16.95 6.95 16.5 7.5 16.5H21.5C22.05 16.5 22.5 16.95 22.5 17.5V18.5C22.5 19.05 22.05 19.5 21.5 19.5Z" fill="url(#paint4_linear_206_7246)"/>
<path id="Vector_6" d="M3.5 19.5H2.5C1.95 19.5 1.5 19.05 1.5 18.5V17.5C1.5 16.95 1.95 16.5 2.5 16.5H3.5C4.05 16.5 4.5 16.95 4.5 17.5V18.5C4.5 19.05 4.05 19.5 3.5 19.5Z" fill="url(#paint5_linear_206_7246)"/>
</g>
<defs>
<linearGradient id="paint0_linear_206_7246" x1="9.84" y1="1.34" x2="18.7525" y2="10.2525" gradientUnits="userSpaceOnUse">
<stop stop-color="#1D59B3"/>
<stop offset="1" stop-color="#195BBC"/>
</linearGradient>
<linearGradient id="paint1_linear_206_7246" x1="1.7385" y1="4.7385" x2="4.151" y2="7.151" gradientUnits="userSpaceOnUse">
<stop offset="0.003" stop-color="#42A3F2"/>
<stop offset="1" stop-color="#42A4EB"/>
</linearGradient>
<linearGradient id="paint2_linear_206_7246" x1="9.84" y1="7.34" x2="18.7525" y2="16.2525" gradientUnits="userSpaceOnUse">
<stop stop-color="#1D59B3"/>
<stop offset="1" stop-color="#195BBC"/>
</linearGradient>
<linearGradient id="paint3_linear_206_7246" x1="1.7385" y1="10.7385" x2="4.151" y2="13.151" gradientUnits="userSpaceOnUse">
<stop stop-color="#42A3F2"/>
<stop offset="1" stop-color="#42A4EB"/>
</linearGradient>
<linearGradient id="paint4_linear_206_7246" x1="9.84" y1="13.34" x2="18.7525" y2="22.2525" gradientUnits="userSpaceOnUse">
<stop stop-color="#1D59B3"/>
<stop offset="1" stop-color="#195BBC"/>
</linearGradient>
<linearGradient id="paint5_linear_206_7246" x1="1.7385" y1="16.7385" x2="4.151" y2="19.151" gradientUnits="userSpaceOnUse">
<stop stop-color="#42A3F2"/>
<stop offset="1" stop-color="#42A4EB"/>
</linearGradient>
</defs>
</svg>
