<svg width="24" height="24" viewBox="0 0 24 24" fill="none" xmlns="http://www.w3.org/2000/svg">
<g id="logout">
<path id="Vector" d="M18.5 2H5.5C4.9475 2 4.5 2.4475 4.5 3V21C4.5 21.5525 4.9475 22 5.5 22H18.5C19.0525 22 19.5 21.5525 19.5 21V3C19.5 2.4475 19.0525 2 18.5 2Z" fill="url(#paint0_linear_206_7281)"/>
<path id="Vector_2" opacity="0.05" d="M19.5 8.42951L18.207 7.13651C17.577 6.50651 16.5 6.95301 16.5 7.84401V9.50001H10.5C9.9475 9.50001 9.5 9.94751 9.5 10.5V13.5C9.5 14.0525 9.9475 14.5 10.5 14.5H16.5V16.156C16.5 17.047 17.577 17.493 18.207 16.863L19.5 15.5705V8.42951Z" fill="black"/>
<path id="Vector_3" opacity="0.07" d="M19.5 8.92949L18.1985 7.62799C17.756 7.18549 17 7.49899 17 8.12449V9.99999H10.75C10.336 9.99999 10 10.336 10 10.75V13.25C10 13.664 10.336 14 10.75 14H17V15.8755C17 16.501 17.756 16.814 18.1985 16.372L19.5 15.0705V8.92949Z" fill="black"/>
<path id="Vector_4" d="M17.5 8.40501V10.5H11C10.724 10.5 10.5 10.724 10.5 11V13C10.5 13.276 10.724 13.5 11 13.5H17.5V15.595C17.5 15.955 17.935 16.135 18.1895 15.8805L21.54 12.53C21.833 12.237 21.833 11.762 21.54 11.4695L18.1895 8.11901C17.935 7.86451 17.5 8.04501 17.5 8.40501Z" fill="url(#paint1_linear_206_7281)"/>
</g>
<defs>
<linearGradient id="paint0_linear_206_7281" x1="5.0915" y1="2.4395" x2="18.4285" y2="20.896" gradientUnits="userSpaceOnUse">
<stop stop-color="#2AA4F4"/>
<stop offset="1" stop-color="#007AD9"/>
</linearGradient>
<linearGradient id="paint1_linear_206_7281" x1="14.05" y1="8.12276" x2="17.1902" y2="16.6444" gradientUnits="userSpaceOnUse">
<stop stop-color="#7DD8F3"/>
<stop offset="1" stop-color="#45B0D0"/>
</linearGradient>
</defs>
</svg>
