<svg width="24" height="24" viewBox="0 0 24 24" fill="none" xmlns="http://www.w3.org/2000/svg">
<g id="mail-error">
<path id="Vector" d="M4.5 13L22.5 5.85001V19C22.5 19.55 22.05 20 21.5 20H4.5V13Z" fill="url(#paint0_linear_206_7315)"/>
<path id="Vector_2" d="M1.5 5.85001V19C1.5 19.55 1.95 20 2.5 20H21.5C21.75 20 21.95 19.9 22.15 19.75L1.5 5.85001Z" fill="url(#paint1_linear_206_7315)"/>
<path id="Vector_3" opacity="0.05" d="M1.5 5.5H22.5V6.35L13.85 13.05C12.75 13.9 11.25 13.9 10.15 13.05L1.5 6.35V5.5Z" fill="black"/>
<path id="Vector_4" opacity="0.07" d="M1.5 5.25H22.5V6.1L13.5 12.65C12.6 13.3 11.4 13.3 10.55 12.65L1.5 6.1V5.25Z" fill="black"/>
<path id="Vector_5" d="M2.5 4H21.5C22.05 4 22.5 4.45 22.5 5V5.85L13.15 12.25C12.45 12.7 11.6 12.7 10.9 12.25L1.5 5.85V5C1.5 4.45 1.95 4 2.5 4Z" fill="url(#paint2_linear_206_7315)"/>
<path id="Vector_6" opacity="0.05" d="M19.65 15.05C19.5 14.75 19.2 14.5 18.75 14.5C18.25 14.5 17.95 14.85 17.9 15L14.75 20H21.5C21.9 20 22.25 19.75 22.4 19.4L19.65 15.05Z" fill="black"/>
<path id="Vector_7" opacity="0.07" d="M19.4 15.15C19.35 15 19.1 14.75 18.75 14.75C18.4 14.75 18.15 15 18.1 15.15L15 20H21.5C21.8 20 22.1 19.85 22.25 19.65L19.4 15.15Z" fill="black"/>
<path id="Vector_8" d="M23.9 22.7L19.2 15.25C19.2 15.25 19.05 15 18.75 15C18.45 15 18.3 15.25 18.3 15.25L13.6 22.7C13.6 22.7 13.5 22.8 13.5 23C13.5 23.25 13.7 23.5 14 23.5H23.5C23.8 23.5 24 23.3 24 23C24 22.85 23.9 22.7 23.9 22.7Z" fill="url(#paint3_linear_206_7315)"/>
<path id="Vector_9" d="M18.75 22.5C18.6 22.5 18.45 22.45 18.35 22.35C18.25 22.25 18.2 22.15 18.2 22C18.2 21.85 18.25 21.75 18.35 21.65C18.45 21.55 18.6 21.5 18.75 21.5C18.9 21.5 19.05 21.55 19.15 21.65C19.25 21.75 19.3 21.85 19.3 22C19.3 22.15 19.25 22.25 19.15 22.35C19.05 22.45 18.9 22.5 18.75 22.5ZM19.3 17.7L19.2 20.85C19.2 20.95 19.1 21 19.05 21H18.5C18.4 21 18.35 20.9 18.35 20.85L18.25 17.7C18.25 17.6 18.35 17.5 18.4 17.5H19.2C19.25 17.5 19.3 17.6 19.3 17.7Z" fill="url(#paint4_radial_206_7315)"/>
</g>
<defs>
<linearGradient id="paint0_linear_206_7315" x1="10.758" y1="8.81901" x2="22.796" y2="26.8365" gradientUnits="userSpaceOnUse">
<stop stop-color="#28AFEA"/>
<stop offset="1" stop-color="#0B88DA"/>
</linearGradient>
<linearGradient id="paint1_linear_206_7315" x1="0.704" y1="12.205" x2="18.1655" y2="23.082" gradientUnits="userSpaceOnUse">
<stop stop-color="#28AFEA"/>
<stop offset="1" stop-color="#0B88DA"/>
</linearGradient>
<linearGradient id="paint2_linear_206_7315" x1="8.121" y1="4.13184" x2="10.2297" y2="14.0744" gradientUnits="userSpaceOnUse">
<stop stop-color="#7DD8F3"/>
<stop offset="1" stop-color="#45B0D0"/>
</linearGradient>
<linearGradient id="paint3_linear_206_7315" x1="-64.032" y1="-72.97" x2="21.959" y2="25.6545" gradientUnits="userSpaceOnUse">
<stop stop-color="#FFDA1C"/>
<stop offset="1" stop-color="#FEB705"/>
</linearGradient>
<radialGradient id="paint4_radial_206_7315" cx="0" cy="0" r="1" gradientUnits="userSpaceOnUse" gradientTransform="translate(17.4445 17.446) scale(5.01049 5.17234)">
<stop stop-color="#4B4B4B"/>
<stop offset="0.531" stop-color="#393939"/>
<stop offset="1" stop-color="#252525"/>
</radialGradient>
</defs>
</svg>
