<svg width="49" height="47" viewBox="0 0 49 47" fill="none" xmlns="http://www.w3.org/2000/svg">
<path d="M41.783 47.0011H7.2173C6.02371 47.0011 5.05695 46.0188 5.05695 44.806V21.7572L24.5002 3.09863L43.9434 21.7572V44.806C43.9434 46.0188 42.9766 47.0011 41.783 47.0011Z" fill="url(#paint0_linear_224_5444)"/>
<path d="M7.2173 46.2511C6.44916 46.2511 5.80695 45.6159 5.80695 44.806V22.0769L24.5002 4.13811L43.1934 22.0769V44.806C43.1934 45.6159 42.5512 46.2511 41.783 46.2511H7.2173Z" stroke="black" stroke-opacity="0.19" stroke-width="1.5"/>
<path d="M7.2173 46.2511C6.44916 46.2511 5.80695 45.6159 5.80695 44.806V22.0769L24.5002 4.13811L43.1934 22.0769V44.806C43.1934 45.6159 42.5512 46.2511 41.783 46.2511H7.2173Z" stroke="black" stroke-opacity="0.2" stroke-width="1.5"/>
<path opacity="0.05" d="M24.5002 4.19727C23.9882 4.19727 23.4762 4.38166 23.0678 4.74934L17.2792 10.0297L5.05695 21.7583V27.6741L24.5002 10.1548L43.9434 27.6741V21.7583L31.7212 10.0297L25.9325 4.74934C25.5242 4.38166 25.0122 4.19727 24.5002 4.19727Z" fill="#88B0CE"/>
<path opacity="0.07" d="M24.5002 3.09863C23.9882 3.09863 23.4762 3.28193 23.0678 3.64741L17.2792 8.89815L5.05695 20.5597V26.4416L24.5002 9.02218L43.9434 26.4416V20.5597L31.7212 8.89815L25.9325 3.64741C25.5242 3.28193 25.0122 3.09863 24.5002 3.09863Z" fill="#88B0CE"/>
<path d="M47.0576 20.7516L47.0567 20.7508L26.3508 2.08782L26.3505 2.08763C25.8245 1.61393 25.1625 1.375 24.5 1.375C23.8375 1.375 23.1755 1.61393 22.6495 2.08763L22.6492 2.08782L1.94329 20.7508L1.9424 20.7516C1.23033 21.3959 1.18219 22.5039 1.83359 23.2087L3.60021 25.1234C4.22951 25.8061 5.28344 25.8592 5.97716 25.2398C5.97732 25.2397 5.97748 25.2395 5.97764 25.2394L24.5 8.79339L43.0224 25.2406C43.0226 25.2407 43.0229 25.2409 43.0231 25.2411C43.7151 25.8586 44.7698 25.8077 45.3996 25.1247C45.3996 25.1246 45.3997 25.1245 45.3998 25.1245L47.1667 23.2095L47.1669 23.2093C47.8173 22.5038 47.77 21.3962 47.0576 20.7516Z" fill="url(#paint1_linear_224_5444)"/>
<path d="M47.0576 20.7516L47.0567 20.7508L26.3508 2.08782L26.3505 2.08763C25.8245 1.61393 25.1625 1.375 24.5 1.375C23.8375 1.375 23.1755 1.61393 22.6495 2.08763L22.6492 2.08782L1.94329 20.7508L1.9424 20.7516C1.23033 21.3959 1.18219 22.5039 1.83359 23.2087L3.60021 25.1234C4.22951 25.8061 5.28344 25.8592 5.97716 25.2398C5.97732 25.2397 5.97748 25.2395 5.97764 25.2394L24.5 8.79339L43.0224 25.2406C43.0226 25.2407 43.0229 25.2409 43.0231 25.2411C43.7151 25.8586 44.7698 25.8077 45.3996 25.1247C45.3996 25.1246 45.3997 25.1245 45.3998 25.1245L47.1667 23.2095L47.1669 23.2093C47.8173 22.5038 47.77 21.3962 47.0576 20.7516Z" stroke="url(#paint2_linear_224_5444)" stroke-width="1.25"/>
<path d="M47.0576 20.7516L47.0567 20.7508L26.3508 2.08782L26.3505 2.08763C25.8245 1.61393 25.1625 1.375 24.5 1.375C23.8375 1.375 23.1755 1.61393 22.6495 2.08763L22.6492 2.08782L1.94329 20.7508L1.9424 20.7516C1.23033 21.3959 1.18219 22.5039 1.83359 23.2087L3.60021 25.1234C4.22951 25.8061 5.28344 25.8592 5.97716 25.2398C5.97732 25.2397 5.97748 25.2395 5.97764 25.2394L24.5 8.79339L43.0224 25.2406C43.0226 25.2407 43.0229 25.2409 43.0231 25.2411C43.7151 25.8586 44.7698 25.8077 45.3996 25.1247C45.3996 25.1246 45.3997 25.1245 45.3998 25.1245L47.1667 23.2095L47.1669 23.2093C47.8173 22.5038 47.77 21.3962 47.0576 20.7516Z" stroke="black" stroke-opacity="0.2" stroke-width="1.25"/>
<rect x="16.5171" y="25.1812" width="16.5915" height="2.10732" rx="0.5" fill="url(#paint3_linear_224_5444)"/>
<mask id="path-7-inside-1_224_5444" fill="white">
<rect x="16.5171" y="35.717" width="16.5915" height="2.10732" rx="0.5"/>
</mask>
<rect x="16.5171" y="35.717" width="16.5915" height="2.10732" rx="0.5" fill="url(#paint4_linear_224_5444)" stroke="url(#paint5_linear_224_5444)" stroke-width="2.10732" mask="url(#path-7-inside-1_224_5444)"/>
<mask id="path-8-inside-2_224_5444" fill="white">
<rect x="16.5171" y="30.4491" width="16.5915" height="2.10732" rx="0.5"/>
</mask>
<rect x="16.5171" y="30.4491" width="16.5915" height="2.10732" rx="0.5" fill="url(#paint6_linear_224_5444)" stroke="url(#paint7_linear_224_5444)" stroke-width="2" mask="url(#path-8-inside-2_224_5444)"/>
<defs>
<linearGradient id="paint0_linear_224_5444" x1="13.6719" y1="-3.44165" x2="44.58" y2="36.7468" gradientUnits="userSpaceOnUse">
<stop stop-color="#FCFCFC"/>
<stop offset="0.95" stop-color="#C3C9CD"/>
</linearGradient>
<linearGradient id="paint1_linear_224_5444" x1="11.9694" y1="-1.43347" x2="22.4129" y2="28.4997" gradientUnits="userSpaceOnUse">
<stop stop-color="#FCFCFC"/>
<stop offset="0.95" stop-color="#C3C9CD"/>
</linearGradient>
<linearGradient id="paint2_linear_224_5444" x1="11.9694" y1="-1.43347" x2="22.4129" y2="28.4997" gradientUnits="userSpaceOnUse">
<stop stop-color="#FCFCFC"/>
<stop offset="0.95" stop-color="#C3C9CD"/>
</linearGradient>
<linearGradient id="paint3_linear_224_5444" x1="18.1164" y1="25.2609" x2="18.9986" y2="29.579" gradientUnits="userSpaceOnUse">
<stop stop-color="#A1AAB3"/>
<stop offset="1" stop-color="#8F979E"/>
</linearGradient>
<linearGradient id="paint4_linear_224_5444" x1="18.1164" y1="35.7967" x2="18.9986" y2="40.1149" gradientUnits="userSpaceOnUse">
<stop stop-color="#A1AAB3"/>
<stop offset="1" stop-color="#8F979E"/>
</linearGradient>
<linearGradient id="paint5_linear_224_5444" x1="18.1164" y1="35.7967" x2="18.9986" y2="40.1149" gradientUnits="userSpaceOnUse">
<stop stop-color="#A1AAB3"/>
<stop offset="1" stop-color="#8F979E"/>
</linearGradient>
<linearGradient id="paint6_linear_224_5444" x1="18.1164" y1="30.5288" x2="18.9986" y2="34.847" gradientUnits="userSpaceOnUse">
<stop stop-color="#A1AAB3"/>
<stop offset="1" stop-color="#8F979E"/>
</linearGradient>
<linearGradient id="paint7_linear_224_5444" x1="18.1164" y1="30.5288" x2="18.9986" y2="34.847" gradientUnits="userSpaceOnUse">
<stop stop-color="#A1AAB3"/>
<stop offset="1" stop-color="#8F979E"/>
</linearGradient>
</defs>
</svg>
