<svg width="24" height="24" viewBox="0 0 24 24" fill="none" xmlns="http://www.w3.org/2000/svg">
<g id="map-as-drive">
<path id="Vector" d="M12.207 5.207L10.939 3.939C10.658 3.658 10.2765 3.5 9.8785 3.5H3C2.4475 3.5 2 3.9475 2 4.5V7.75L3 18.5C3 19.0525 3.4475 19.5 4 19.5H20C20.5525 19.5 21 19.0525 21 18.5V7C21 6.4475 20.5525 6 20 6L12.914 5.5C12.649 5.5 12.3945 5.3945 12.207 5.207Z" fill="url(#paint0_linear_206_7343)"/>
<path id="Vector_2" d="M10.793 7.207L12.427 5.573C12.4735 5.5265 12.537 5.5 12.6035 5.5H21C21.5525 5.5 22 5.9475 22 6.5V19.5C22 20.0525 21.5525 20.5 21 20.5H3C2.4475 20.5 2 20.0525 2 19.5V7.75C2 7.612 2.112 7.5 2.25 7.5H10.086C10.351 7.5 10.6055 7.3945 10.793 7.207Z" fill="url(#paint1_linear_206_7343)"/>
<path id="Vector_3" opacity="0.05" d="M22.5 14.82V20.5H12.505L12.51 19.5C12.52 19.315 12.55 19.175 12.6 19.045L14.02 15.45C14.245 14.875 14.795 14.5 15.415 14.5H21.58C21.925 14.5 22.245 14.615 22.5 14.82Z" fill="url(#paint2_linear_206_7343)"/>
<path id="Vector_4" opacity="0.07" d="M22.5 15.16V20.5H12.755L12.76 19.5C12.77 19.355 12.795 19.24 12.835 19.135L14.255 15.54C14.44 15.06 14.9 14.75 15.415 14.75H21.58C21.94 14.75 22.275 14.905 22.5 15.16Z" fill="url(#paint3_linear_206_7343)"/>
<path id="Vector_5" d="M24 19.5H13V23C13 23.5525 13.4475 24 14 24H23C23.5525 24 24 23.5525 24 23V19.5Z" fill="url(#paint4_linear_206_7343)"/>
<path id="Vector_6" d="M23.0635 20.5H13.9315C13.2755 20.5 12.8255 19.839 13.0665 19.2285L14.485 15.633C14.636 15.251 15.005 15 15.4155 15H21.5795C21.99 15 22.359 15.251 22.5095 15.633L23.928 19.2285C24.169 19.839 23.7195 20.5 23.0635 20.5Z" fill="url(#paint5_linear_206_7343)"/>
<path id="Vector_7" d="M21.25 23.5C21.9404 23.5 22.5 22.9404 22.5 22.25C22.5 21.5596 21.9404 21 21.25 21C20.5596 21 20 21.5596 20 22.25C20 22.9404 20.5596 23.5 21.25 23.5Z" fill="url(#paint6_radial_206_7343)"/>
<path id="Vector_8" d="M21.25 23C21.6642 23 22 22.6642 22 22.25C22 21.8358 21.6642 21.5 21.25 21.5C20.8358 21.5 20.5 21.8358 20.5 22.25C20.5 22.6642 20.8358 23 21.25 23Z" fill="url(#paint7_linear_206_7343)"/>
</g>
<defs>
<linearGradient id="paint0_linear_206_7343" x1="11.5" y1="3.3625" x2="11.5" y2="7.254" gradientUnits="userSpaceOnUse">
<stop stop-color="#EBA600"/>
<stop offset="1" stop-color="#C28200"/>
</linearGradient>
<linearGradient id="paint1_linear_206_7343" x1="12" y1="5.427" x2="12" y2="20.4915" gradientUnits="userSpaceOnUse">
<stop stop-color="#FFD869"/>
<stop offset="1" stop-color="#FEC52B"/>
</linearGradient>
<linearGradient id="paint2_linear_206_7343" x1="17.5025" y1="20.5" x2="17.5025" y2="14.5465" gradientUnits="userSpaceOnUse">
<stop stop-color="#737B80"/>
<stop offset="1"/>
</linearGradient>
<linearGradient id="paint3_linear_206_7343" x1="17.6275" y1="20.5" x2="17.6275" y2="14.7945" gradientUnits="userSpaceOnUse">
<stop stop-color="#737B80"/>
<stop offset="1"/>
</linearGradient>
<linearGradient id="paint4_linear_206_7343" x1="18.5" y1="19.531" x2="18.5" y2="24.1875" gradientUnits="userSpaceOnUse">
<stop stop-color="#C3CDD9"/>
<stop offset="1" stop-color="#9FA7B0"/>
</linearGradient>
<linearGradient id="paint5_linear_206_7343" x1="18.4975" y1="20.5" x2="18.4975" y2="15.0425" gradientUnits="userSpaceOnUse">
<stop stop-color="#737B80"/>
<stop offset="1" stop-color="#575C61"/>
</linearGradient>
<radialGradient id="paint6_radial_206_7343" cx="0" cy="0" r="1" gradientUnits="userSpaceOnUse" gradientTransform="translate(21.25 22.25) scale(1.25)">
<stop/>
<stop offset="1" stop-color="#A6A6A6" stop-opacity="0"/>
</radialGradient>
<linearGradient id="paint7_linear_206_7343" x1="21.25" y1="21.375" x2="21.25" y2="23.0025" gradientUnits="userSpaceOnUse">
<stop stop-color="#75FF8A"/>
<stop offset="1" stop-color="#1EE446"/>
</linearGradient>
</defs>
</svg>
