<svg width="24" height="24" viewBox="0 0 24 24" fill="none" xmlns="http://www.w3.org/2000/svg">
<g id="marketing">
<path id="Vector" d="M12 5.5C11.724 5.5 11.5 5.276 11.5 5V3.5C11.5 3.224 11.724 3 12 3C12.276 3 12.5 3.224 12.5 3.5V5C12.5 5.276 12.276 5.5 12 5.5Z" fill="#16538C"/>
<path id="Vector_2" d="M15.25 22C14.941 22 14.652 21.8075 14.543 21.5L12 14.3115L9.457 21.5C9.319 21.8905 8.889 22.0945 8.5 21.957C8.1095 21.819 7.905 21.3905 8.043 21L11.293 11.8125C11.399 11.5125 11.682 11.3125 12 11.3125C12.318 11.3125 12.601 11.5125 12.707 11.8125L15.957 21C16.095 21.3905 15.8905 21.819 15.5 21.957C15.4175 21.9865 15.333 22 15.25 22Z" fill="#16538C"/>
<path id="Vector_3" d="M21 4H3C2.724 4 2.5 4.225 2.5 4.502V17.9975C2.5 18.275 2.724 18.5 3 18.5H21C21.276 18.5 21.5 18.275 21.5 17.998V4.502C21.5 4.225 21.276 4 21 4Z" fill="url(#paint0_linear_206_7361)"/>
<path id="Vector_4" d="M18 16H6C5.724 16 5.5 15.776 5.5 15.5C5.5 15.224 5.724 15 6 15H18C18.276 15 18.5 15.224 18.5 15.5C18.5 15.776 18.276 16 18 16Z" fill="white"/>
<path id="Vector_5" d="M9 10.5H7C6.724 10.5 6.5 10.724 6.5 11V13.5C6.5 13.776 6.724 14 7 14H9C9.276 14 9.5 13.776 9.5 13.5V11C9.5 10.724 9.276 10.5 9 10.5Z" fill="url(#paint1_linear_206_7361)"/>
<path id="Vector_6" d="M17 6.5H15C14.724 6.5 14.5 6.724 14.5 7V13.5C14.5 13.776 14.724 14 15 14H17C17.276 14 17.5 13.776 17.5 13.5V7C17.5 6.724 17.276 6.5 17 6.5Z" fill="url(#paint2_linear_206_7361)"/>
<path id="Vector_7" d="M13 8.5H11C10.724 8.5 10.5 8.724 10.5 9V13.5C10.5 13.776 10.724 14 11 14H13C13.276 14 13.5 13.776 13.5 13.5V9C13.5 8.724 13.276 8.5 13 8.5Z" fill="url(#paint3_linear_206_7361)"/>
</g>
<defs>
<linearGradient id="paint0_linear_206_7361" x1="7.3735" y1="2.549" x2="17.0825" y2="20.809" gradientUnits="userSpaceOnUse">
<stop stop-color="#0077D2"/>
<stop offset="1" stop-color="#0B59A2"/>
</linearGradient>
<linearGradient id="paint1_linear_206_7361" x1="7.16462" y1="9.97859" x2="9.64828" y2="13.1037" gradientUnits="userSpaceOnUse">
<stop stop-color="#FCFCFC"/>
<stop offset="0.95" stop-color="#C3C9CD"/>
</linearGradient>
<linearGradient id="paint2_linear_206_7361" x1="15.4459" y1="6.61515" x2="19.834" y2="9.99941" gradientUnits="userSpaceOnUse">
<stop stop-color="#7DD8F3"/>
<stop offset="1" stop-color="#45B0D0"/>
</linearGradient>
<linearGradient id="paint3_linear_206_7361" x1="11.5961" y1="8.73975" x2="13.4158" y2="14.1979" gradientUnits="userSpaceOnUse">
<stop stop-color="#32BDEF"/>
<stop offset="1" stop-color="#1EA2E4"/>
</linearGradient>
</defs>
</svg>
