<svg width="24" height="24" viewBox="0 0 24 24" fill="none" xmlns="http://www.w3.org/2000/svg">
<g id="massage-table">
<path id="Vector" d="M18.875 17H9.625C9.3485 17 9.125 16.776 9.125 16.5C9.125 16.224 9.3485 16 9.625 16H18.875C19.1515 16 19.375 16.224 19.375 16.5C19.375 16.776 19.1515 17 18.875 17Z" fill="url(#paint0_linear_206_7369)"/>
<path id="Vector_2" d="M7 21.5C6.7235 21.5 6.5 21.276 6.5 21V12.5C6.5 12.224 6.7235 12 7 12C7.2765 12 7.5 12.224 7.5 12.5V21C7.5 21.276 7.2765 21.5 7 21.5Z" fill="url(#paint1_linear_206_7369)"/>
<path id="Vector_3" d="M21.5 21.5C21.2235 21.5 21 21.276 21 21V12.5C21 12.224 21.2235 12 21.5 12C21.7765 12 22 12.224 22 12.5V21C22 21.276 21.7765 21.5 21.5 21.5Z" fill="url(#paint2_linear_206_7369)"/>
<path id="Vector_4" d="M21.5 19.5C21.375 19.5 21.2495 19.4535 21.153 19.3595L14.25 12.695L7.347 19.3595C7.149 19.5515 6.8325 19.546 6.64 19.3475C6.4485 19.149 6.454 18.832 6.6525 18.6405L13.9025 11.6405C14.096 11.4535 14.4035 11.4535 14.597 11.6405L21.847 18.6405C22.0455 18.832 22.051 19.149 21.8595 19.3475C21.7615 19.449 21.631 19.5 21.5 19.5Z" fill="url(#paint3_linear_206_7369)"/>
<path id="Vector_5" d="M4 9.5H2.5C1.6715 9.5 1 10.1715 1 11V12.5C1 12.776 1.224 13 1.5 13H5C5.276 13 5.5 12.776 5.5 12.5V11C5.5 10.1715 4.8285 9.5 4 9.5Z" fill="url(#paint4_linear_206_7369)"/>
<path id="Vector_6" d="M21.5 9.5H7C6.1715 9.5 5.5 10.1715 5.5 11V12.5C5.5 12.776 5.724 13 6 13H22.5C22.776 13 23 12.776 23 12.5V11C23 10.1715 22.3285 9.5 21.5 9.5Z" fill="url(#paint5_linear_206_7369)"/>
<path id="Vector_7" opacity="0.05" d="M16.265 13.25L16.005 13H14.565L14.825 13.25L15.085 13.5H16.525L16.265 13.25ZM12.235 13.25L11.975 13.5H13.415L13.675 13.25L13.935 13H12.495L12.235 13.25ZM21 13V13.5H22V13H21ZM6.5 13V13.5H7.5V13H6.5Z" fill="black"/>
<path id="Vector_8" opacity="0.07" d="M16.005 13H14.565L14.825 13.25H16.265L16.005 13ZM12.235 13.25H13.675L13.935 13H12.495L12.235 13.25ZM21 13V13.25H22V13H21ZM6.5 13V13.25H7.5V13H6.5Z" fill="black"/>
</g>
<defs>
<linearGradient id="paint0_linear_206_7369" x1="14.25" y1="11.125" x2="14.25" y2="21.0365" gradientUnits="userSpaceOnUse">
<stop stop-color="#DFE9F2"/>
<stop offset="0.391" stop-color="#D6E0E9"/>
<stop offset="1" stop-color="#BFC8D1"/>
</linearGradient>
<linearGradient id="paint1_linear_206_7369" x1="7" y1="11.125" x2="7" y2="21.0365" gradientUnits="userSpaceOnUse">
<stop stop-color="#DFE9F2"/>
<stop offset="0.391" stop-color="#D6E0E9"/>
<stop offset="1" stop-color="#BFC8D1"/>
</linearGradient>
<linearGradient id="paint2_linear_206_7369" x1="21.5" y1="11.125" x2="21.5" y2="21.0365" gradientUnits="userSpaceOnUse">
<stop stop-color="#DFE9F2"/>
<stop offset="0.391" stop-color="#D6E0E9"/>
<stop offset="1" stop-color="#BFC8D1"/>
</linearGradient>
<linearGradient id="paint3_linear_206_7369" x1="14.25" y1="11.125" x2="14.25" y2="21.0365" gradientUnits="userSpaceOnUse">
<stop stop-color="#DFE9F2"/>
<stop offset="0.391" stop-color="#D6E0E9"/>
<stop offset="1" stop-color="#BFC8D1"/>
</linearGradient>
<linearGradient id="paint4_linear_206_7369" x1="3.25" y1="7.2285" x2="3.25" y2="15.125" gradientUnits="userSpaceOnUse">
<stop stop-color="#C26715"/>
<stop offset="0.346" stop-color="#BE6015"/>
<stop offset="0.686" stop-color="#B54E16"/>
<stop offset="0.979" stop-color="#AD3F16"/>
</linearGradient>
<linearGradient id="paint5_linear_206_7369" x1="14.25" y1="7.2285" x2="14.25" y2="15.125" gradientUnits="userSpaceOnUse">
<stop stop-color="#C26715"/>
<stop offset="0.346" stop-color="#BE6015"/>
<stop offset="0.686" stop-color="#B54E16"/>
<stop offset="0.979" stop-color="#AD3F16"/>
</linearGradient>
</defs>
</svg>
