<svg width="24" height="24" viewBox="0 0 24 24" fill="none" xmlns="http://www.w3.org/2000/svg">
<g id="math-folder">
<path id="Vector" d="M12.207 5.207L10.939 3.939C10.658 3.658 10.2765 3.5 9.8785 3.5H2.5C1.9475 3.5 1.5 3.9475 1.5 4.5V19.5C1.5 20.0525 1.9475 20.5 2.5 20.5H21.5C22.0525 20.5 22.5 20.0525 22.5 19.5V6.5C22.5 5.9475 22.0525 5.5 21.5 5.5H12.914C12.649 5.5 12.3945 5.3945 12.207 5.207Z" fill="url(#paint0_linear_206_7385)"/>
<path id="Vector_2" d="M10.793 7.207L12.427 5.573C12.4735 5.5265 12.537 5.5 12.6035 5.5H21.5C22.0525 5.5 22.5 5.9475 22.5 6.5V19.5C22.5 20.0525 22.0525 20.5 21.5 20.5H2.5C1.9475 20.5 1.5 20.0525 1.5 19.5V7.75C1.5 7.612 1.612 7.5 1.75 7.5H10.086C10.351 7.5 10.6055 7.3945 10.793 7.207Z" fill="url(#paint1_linear_206_7385)"/>
<path id="Vector_3" d="M13.5 10.75V11.25C13.5 11.388 13.612 11.5 13.75 11.5H17.25C17.388 11.5 17.5 11.388 17.5 11.25V10.75C17.5 10.612 17.388 10.5 17.25 10.5H13.75C13.612 10.5 13.5 10.612 13.5 10.75Z" fill="url(#paint2_linear_206_7385)"/>
<path id="Vector_4" d="M13.5 15.75V16.25C13.5 16.388 13.612 16.5 13.75 16.5H17.25C17.388 16.5 17.5 16.388 17.5 16.25V15.75C17.5 15.612 17.388 15.5 17.25 15.5H13.75C13.612 15.5 13.5 15.612 13.5 15.75Z" fill="url(#paint3_linear_206_7385)"/>
<path id="Vector_5" d="M13.5 17.75V18.25C13.5 18.388 13.612 18.5 13.75 18.5H17.25C17.388 18.5 17.5 18.388 17.5 18.25V17.75C17.5 17.612 17.388 17.5 17.25 17.5H13.75C13.612 17.5 13.5 17.612 13.5 17.75Z" fill="url(#paint4_linear_206_7385)"/>
<path id="Vector_6" d="M8.75 9H8.25C8.112 9 8 9.112 8 9.25V10.5H6.75C6.612 10.5 6.5 10.612 6.5 10.75V11.25C6.5 11.388 6.612 11.5 6.75 11.5H8V12.75C8 12.888 8.112 13 8.25 13H8.75C8.888 13 9 12.888 9 12.75V11.5H10.25C10.388 11.5 10.5 11.388 10.5 11.25V10.75C10.5 10.612 10.388 10.5 10.25 10.5H9V9.25C9 9.112 8.888 9 8.75 9Z" fill="url(#paint5_linear_206_7385)"/>
<path id="Vector_7" d="M9.384 15.4095L8.5 16.293L7.616 15.409C7.5185 15.3115 7.36 15.3115 7.2625 15.409L6.909 15.7625C6.8115 15.86 6.8115 16.0185 6.909 16.116L7.793 17L6.909 17.884C6.8115 17.9815 6.8115 18.14 6.909 18.2375L7.2625 18.591C7.36 18.6885 7.5185 18.6885 7.616 18.591L8.5 17.707L9.384 18.591C9.4815 18.6885 9.64 18.6885 9.7375 18.591L10.091 18.2375C10.1885 18.14 10.1885 17.9815 10.091 17.884L9.207 17L10.091 16.116C10.1885 16.0185 10.1885 15.86 10.091 15.7625L9.7375 15.409C9.6395 15.3115 9.4815 15.3115 9.384 15.4095Z" fill="url(#paint6_linear_206_7385)"/>
</g>
<defs>
<linearGradient id="paint0_linear_206_7385" x1="12" y1="3.354" x2="12" y2="7.4885" gradientUnits="userSpaceOnUse">
<stop stop-color="#EBA600"/>
<stop offset="1" stop-color="#C28200"/>
</linearGradient>
<linearGradient id="paint1_linear_206_7385" x1="12" y1="5.427" x2="12" y2="20.4915" gradientUnits="userSpaceOnUse">
<stop stop-color="#FFD869"/>
<stop offset="1" stop-color="#FEC52B"/>
</linearGradient>
<linearGradient id="paint2_linear_206_7385" x1="15.4505" y1="10.492" x2="15.536" y2="11.372" gradientUnits="userSpaceOnUse">
<stop stop-color="#BD4FF4"/>
<stop offset="0.587" stop-color="#A235EC"/>
<stop offset="1" stop-color="#8C20E5"/>
</linearGradient>
<linearGradient id="paint3_linear_206_7385" x1="15.5" y1="15.4979" x2="15.5" y2="16.4964" gradientUnits="userSpaceOnUse">
<stop stop-color="#2AA4F4"/>
<stop offset="1" stop-color="#007AD9"/>
</linearGradient>
<linearGradient id="paint4_linear_206_7385" x1="15.5" y1="17.4979" x2="15.5" y2="18.4964" gradientUnits="userSpaceOnUse">
<stop stop-color="#2AA4F4"/>
<stop offset="1" stop-color="#007AD9"/>
</linearGradient>
<linearGradient id="paint5_linear_206_7385" x1="7.9905" y1="9.0495" x2="8.942" y2="12.691" gradientUnits="userSpaceOnUse">
<stop stop-color="#BD4FF4"/>
<stop offset="0.587" stop-color="#A235EC"/>
<stop offset="1" stop-color="#8C20E5"/>
</linearGradient>
<linearGradient id="paint6_linear_206_7385" x1="8.2765" y1="15.3075" x2="8.6915" y2="18.451" gradientUnits="userSpaceOnUse">
<stop stop-color="#BD4FF4"/>
<stop offset="0.587" stop-color="#A235EC"/>
<stop offset="1" stop-color="#8C20E5"/>
</linearGradient>
</defs>
</svg>
