<svg width="24" height="24" viewBox="0 0 24 24" fill="none" xmlns="http://www.w3.org/2000/svg">
<g id="meeting-room">
<path id="Vector" d="M12 6.5C13.1046 6.5 14 5.60457 14 4.5C14 3.39543 13.1046 2.5 12 2.5C10.8954 2.5 10 3.39543 10 4.5C10 5.60457 10.8954 6.5 12 6.5Z" fill="url(#paint0_linear_206_7408)"/>
<path id="Vector_2" d="M20.5 7.5C21.6046 7.5 22.5 6.60457 22.5 5.5C22.5 4.39543 21.6046 3.5 20.5 3.5C19.3954 3.5 18.5 4.39543 18.5 5.5C18.5 6.60457 19.3954 7.5 20.5 7.5Z" fill="url(#paint1_linear_206_7408)"/>
<path id="Vector_3" d="M15.5 13.25H8.5V11.5C8.5 9.567 10.067 8 12 8C13.933 8 15.5 9.567 15.5 11.5V13.25Z" fill="url(#paint2_linear_206_7408)"/>
<path id="Vector_4" d="M20.5 9C19.3955 9 18.5 9.8955 18.5 11V14.9905L15.8105 15.519C15.349 15.6075 15 16.0125 15 16.5V20.75C15 21.164 15.336 21.5 15.75 21.5C16.164 21.5 16.4605 21.155 16.5095 20.75C16.528 20.5965 16.905 17.5 16.905 17.5H20.5C21.6045 17.5 22.5 16.6045 22.5 15.5V11C22.5 9.8955 21.6045 9 20.5 9Z" fill="url(#paint3_linear_206_7408)"/>
<path id="Vector_5" d="M3.5 7.5C4.60457 7.5 5.5 6.60457 5.5 5.5C5.5 4.39543 4.60457 3.5 3.5 3.5C2.39543 3.5 1.5 4.39543 1.5 5.5C1.5 6.60457 2.39543 7.5 3.5 7.5Z" fill="url(#paint4_linear_206_7408)"/>
<path id="Vector_6" d="M3.5 9C4.6045 9 5.5 9.8955 5.5 11V14.9905L8.1895 15.519C8.651 15.6075 9 16.0125 9 16.5V20.75C9 21.164 8.664 21.5 8.25 21.5C7.836 21.5 7.5395 21.155 7.4905 20.75C7.472 20.5965 7.095 17.5 7.095 17.5H3.5C2.3955 17.5 1.5 16.6045 1.5 15.5V11C1.5 9.8955 2.3955 9 3.5 9Z" fill="url(#paint5_linear_206_7408)"/>
<path id="Vector_7" d="M16.5 14H7.5C7.224 14 7 13.776 7 13.5V13C7 12.724 7.224 12.5 7.5 12.5H16.5C16.776 12.5 17 12.724 17 13V13.5C17 13.776 16.776 14 16.5 14Z" fill="#33CCFF"/>
</g>
<defs>
<linearGradient id="paint0_linear_206_7408" x1="10.523" y1="3.023" x2="13.388" y2="5.888" gradientUnits="userSpaceOnUse">
<stop stop-color="#0D61A9"/>
<stop offset="1" stop-color="#16528C"/>
</linearGradient>
<linearGradient id="paint1_linear_206_7408" x1="19.5225" y1="3.5675" x2="21.422" y2="7.323" gradientUnits="userSpaceOnUse">
<stop stop-color="#199AE0"/>
<stop offset="1" stop-color="#0782D8"/>
</linearGradient>
<linearGradient id="paint2_linear_206_7408" x1="10.322" y1="8.4315" x2="12.6845" y2="13.43" gradientUnits="userSpaceOnUse">
<stop stop-color="#0D61A9"/>
<stop offset="1" stop-color="#16528C"/>
</linearGradient>
<linearGradient id="paint3_linear_206_7408" x1="14.2345" y1="-1.64" x2="21.372" y2="25.918" gradientUnits="userSpaceOnUse">
<stop stop-color="#199AE0"/>
<stop offset="1" stop-color="#0782D8"/>
</linearGradient>
<linearGradient id="paint4_linear_206_7408" x1="4.4775" y1="3.5675" x2="2.578" y2="7.323" gradientUnits="userSpaceOnUse">
<stop stop-color="#199AE0"/>
<stop offset="1" stop-color="#0782D8"/>
</linearGradient>
<linearGradient id="paint5_linear_206_7408" x1="9.7655" y1="-1.64" x2="2.628" y2="25.918" gradientUnits="userSpaceOnUse">
<stop stop-color="#199AE0"/>
<stop offset="1" stop-color="#0782D8"/>
</linearGradient>
</defs>
</svg>
