<svg width="24" height="24" viewBox="0 0 24 24" fill="none" xmlns="http://www.w3.org/2000/svg">
<g id="menubar">
<path id="Vector" d="M23 11H1C0.45 11 0 10.55 0 10V7C0 6.45 0.45 6 1 6H23C23.55 6 24 6.45 24 7V10C24 10.55 23.55 11 23 11Z" fill="url(#paint0_linear_206_7425)"/>
<path id="Vector_2" opacity="0.05" d="M11.5 10C10.95 10 10.5 9.55 10.5 9V8C10.5 7.45 10.95 7 11.5 7H12.5C13.05 7 13.5 7.45 13.5 8V9C13.5 9.55 13.05 10 12.5 10H11.5Z" fill="black"/>
<path id="Vector_3" opacity="0.07" d="M11.5 9.75C11.1 9.75 10.75 9.4 10.75 9V8C10.75 7.6 11.1 7.25 11.5 7.25H12.5C12.9 7.25 13.25 7.6 13.25 8V9C13.25 9.4 12.9 9.75 12.5 9.75H11.5Z" fill="black"/>
<path id="Vector_4" d="M12.5 9.5H11.5C11.2 9.5 11 9.3 11 9V8C11 7.7 11.2 7.5 11.5 7.5H12.5C12.8 7.5 13 7.7 13 8V9C13 9.3 12.8 9.5 12.5 9.5Z" fill="white"/>
<path id="Vector_5" opacity="0.05" d="M16 10C15.45 10 15 9.55 15 9V8C15 7.45 15.45 7 16 7H17C17.55 7 18 7.45 18 8V9C18 9.55 17.55 10 17 10H16Z" fill="black"/>
<path id="Vector_6" opacity="0.07" d="M16 9.75C15.6 9.75 15.25 9.4 15.25 9V8C15.25 7.6 15.6 7.25 16 7.25H17C17.4 7.25 17.75 7.6 17.75 8V9C17.75 9.4 17.4 9.75 17 9.75H16Z" fill="black"/>
<path id="Vector_7" d="M17 9.5H16C15.7 9.5 15.5 9.3 15.5 9V8C15.5 7.7 15.7 7.5 16 7.5H17C17.3 7.5 17.5 7.7 17.5 8V9C17.5 9.3 17.3 9.5 17 9.5Z" fill="white"/>
<path id="Vector_8" opacity="0.05" d="M20.5 10C19.95 10 19.5 9.55 19.5 9V8C19.5 7.45 19.95 7 20.5 7H21.5C22.05 7 22.5 7.45 22.5 8V9C22.5 9.55 22.05 10 21.5 10H20.5Z" fill="black"/>
<path id="Vector_9" opacity="0.07" d="M20.5 9.75C20.1 9.75 19.75 9.4 19.75 9V8C19.75 7.6 20.1 7.25 20.5 7.25H21.5C21.9 7.25 22.25 7.6 22.25 8V9C22.25 9.4 21.9 9.75 21.5 9.75H20.5Z" fill="black"/>
<path id="Vector_10" d="M21.5 9.5H20.5C20.2 9.5 20 9.3 20 9V8C20 7.7 20.2 7.5 20.5 7.5H21.5C21.8 7.5 22 7.7 22 8V9C22 9.3 21.8 9.5 21.5 9.5Z" fill="white"/>
<g id="Group">
<path id="Vector_11" opacity="0.05" d="M2.5 10C1.95 10 1.5 9.55 1.5 9V8C1.5 7.45 1.95 7 2.5 7H3.5C4.05 7 4.5 7.45 4.5 8V9C4.5 9.55 4.05 10 3.5 10H2.5Z" fill="black"/>
<path id="Vector_12" opacity="0.07" d="M2.5 9.75C2.1 9.75 1.75 9.4 1.75 9V8C1.75 7.6 2.1 7.25 2.5 7.25H3.5C3.9 7.25 4.25 7.6 4.25 8V9C4.25 9.4 3.9 9.75 3.5 9.75H2.5Z" fill="black"/>
<path id="Vector_13" d="M3.5 9.5H2.5C2.2 9.5 2 9.3 2 9V8C2 7.7 2.2 7.5 2.5 7.5H3.5C3.8 7.5 4 7.7 4 8V9C4 9.3 3.8 9.5 3.5 9.5Z" fill="white"/>
</g>
<g id="Group_2">
<path id="Vector_14" opacity="0.05" d="M7 10C6.45 10 6 9.55 6 9V8C6 7.45 6.45 7 7 7H8C8.55 7 9 7.45 9 8V9C9 9.55 8.55 10 8 10H7Z" fill="black"/>
<path id="Vector_15" opacity="0.07" d="M7 9.75C6.6 9.75 6.25 9.4 6.25 9V8C6.25 7.6 6.6 7.25 7 7.25H8C8.4 7.25 8.75 7.6 8.75 8V9C8.75 9.4 8.4 9.75 8 9.75H7Z" fill="black"/>
<path id="Vector_16" d="M8 9.5H7C6.7 9.5 6.5 9.3 6.5 9V8C6.5 7.7 6.7 7.5 7 7.5H8C8.3 7.5 8.5 7.7 8.5 8V9C8.5 9.3 8.3 9.5 8 9.5Z" fill="white"/>
</g>
<path id="Vector_17" d="M12.5 8.95V16.45C12.5 16.65 12.75 16.8 12.95 16.65L14.7 15.2L15.85 17.85C15.9 18 16.05 18.05 16.2 18L16.65 17.8L12.7 8.75C12.55 8.75 12.5 8.85 12.5 8.95Z" fill="url(#paint1_linear_206_7425)"/>
<path id="Vector_18" d="M17.2 17.25L16.05 14.65L18.05 14.45C18.25 14.45 18.35 14.15 18.2 14L12.95 8.74999C12.85 8.64999 12.75 8.64999 12.65 8.69999L16.6 17.75L17.05 17.55C17.2 17.55 17.25 17.4 17.2 17.25Z" fill="url(#paint2_linear_206_7425)"/>
<path id="Vector_19" d="M17.2 17.25L16.05 14.65L18.05 14.45C18.25 14.45 18.35 14.15 18.2 14L12.95 8.74999C12.85 8.64999 12.75 8.64999 12.65 8.69999L16.6 17.75L17.05 17.55C17.2 17.55 17.25 17.4 17.2 17.25Z" fill="url(#paint3_linear_206_7425)"/>
</g>
<defs>
<linearGradient id="paint0_linear_206_7425" x1="8.3316" y1="6.21865" x2="8.50607" y2="11.6621" gradientUnits="userSpaceOnUse">
<stop stop-color="#0D61A9"/>
<stop offset="1" stop-color="#16528C"/>
</linearGradient>
<linearGradient id="paint1_linear_206_7425" x1="14.0162" y1="9.15403" x2="17.5795" y2="17.9274" gradientUnits="userSpaceOnUse">
<stop stop-color="#32BDEF"/>
<stop offset="1" stop-color="#1EA2E4"/>
</linearGradient>
<linearGradient id="paint2_linear_206_7425" x1="14.31" y1="8.76349" x2="17.7835" y2="16.7875" gradientUnits="userSpaceOnUse">
<stop stop-color="#46DFF9"/>
<stop offset="1" stop-color="#07D6F9"/>
</linearGradient>
<linearGradient id="paint3_linear_206_7425" x1="13.8956" y1="7.31405" x2="20.4815" y2="13.2985" gradientUnits="userSpaceOnUse">
<stop stop-color="#FCFCFC"/>
<stop offset="0.95" stop-color="#C3C9CD"/>
</linearGradient>
</defs>
</svg>
