<svg width="24" height="24" viewBox="0 0 24 24" fill="none" xmlns="http://www.w3.org/2000/svg">
<g id="menu">
<path id="Vector" d="M21.5 7.5H2.5C1.95 7.5 1.5 7.05 1.5 6.5V5.5C1.5 4.95 1.95 4.5 2.5 4.5H21.5C22.05 4.5 22.5 4.95 22.5 5.5V6.5C22.5 7.05 22.05 7.5 21.5 7.5Z" fill="url(#paint0_linear_206_7421)"/>
<path id="Vector_2" d="M21.5 13.5H2.5C1.95 13.5 1.5 13.05 1.5 12.5V11.5C1.5 10.95 1.95 10.5 2.5 10.5H21.5C22.05 10.5 22.5 10.95 22.5 11.5V12.5C22.5 13.05 22.05 13.5 21.5 13.5Z" fill="url(#paint1_linear_206_7421)"/>
<path id="Vector_3" d="M21.5 19.5H2.5C1.95 19.5 1.5 19.05 1.5 18.5V17.5C1.5 16.95 1.95 16.5 2.5 16.5H21.5C22.05 16.5 22.5 16.95 22.5 17.5V18.5C22.5 19.05 22.05 19.5 21.5 19.5Z" fill="url(#paint2_linear_206_7421)"/>
</g>
<defs>
<linearGradient id="paint0_linear_206_7421" x1="6.033" y1="0.0329997" x2="17.4455" y2="11.4455" gradientUnits="userSpaceOnUse">
<stop offset="0.237" stop-color="#3BC9F3"/>
<stop offset="0.85" stop-color="#1591D8"/>
</linearGradient>
<linearGradient id="paint1_linear_206_7421" x1="6.033" y1="6.033" x2="17.4455" y2="17.4455" gradientUnits="userSpaceOnUse">
<stop offset="0.237" stop-color="#3BC9F3"/>
<stop offset="0.85" stop-color="#1591D8"/>
</linearGradient>
<linearGradient id="paint2_linear_206_7421" x1="6.033" y1="12.033" x2="17.4455" y2="23.4455" gradientUnits="userSpaceOnUse">
<stop offset="0.237" stop-color="#3BC9F3"/>
<stop offset="0.85" stop-color="#1591D8"/>
</linearGradient>
</defs>
</svg>
