<svg width="24" height="24" viewBox="0 0 24 24" fill="none" xmlns="http://www.w3.org/2000/svg">
<g id="messaging">
<path id="Vector" d="M8 10H20C20.5525 10 21 10.4475 21 11V18C21 18.5525 20.5525 19 20 19H19.5V22.041C19.5 22.3175 19.138 22.421 18.992 22.1865L17 19H8C7.4475 19 7 18.5525 7 18V11C7 10.4475 7.4475 10 8 10Z" fill="url(#paint0_linear_206_7451)"/>
<path id="Vector_2" opacity="0.05" d="M16.5 12.5H7V10H17.5V11.5C17.5 12.0525 17.0525 12.5 16.5 12.5Z" fill="black"/>
<path id="Vector_3" opacity="0.07" d="M16.25 12.25H7V10H17.25V11.25C17.25 11.8025 16.8025 12.25 16.25 12.25Z" fill="black"/>
<path id="Vector_4" d="M16 3H4C3.4475 3 3 3.4475 3 4V11C3 11.5525 3.4475 12 4 12H4.5V15.1285C4.5 15.3795 4.829 15.474 4.962 15.261L7 12H16C16.5525 12 17 11.5525 17 11V4C17 3.4475 16.5525 3 16 3Z" fill="url(#paint1_linear_206_7451)"/>
<path id="Vector_5" opacity="0.05" d="M6.25 7.5H13.75C14.164 7.5 14.5 7.164 14.5 6.75V6.25C14.5 5.836 14.164 5.5 13.75 5.5H6.25C5.836 5.5 5.5 5.836 5.5 6.25V6.75C5.5 7.164 5.836 7.5 6.25 7.5Z" fill="black"/>
<path id="Vector_6" opacity="0.07" d="M6.25 7.25H13.75C14.026 7.25 14.25 7.026 14.25 6.75V6.25C14.25 5.974 14.026 5.75 13.75 5.75H6.25C5.974 5.75 5.75 5.974 5.75 6.25V6.75C5.75 7.026 5.974 7.25 6.25 7.25Z" fill="black"/>
<path id="Vector_7" d="M14 6.25V6.75C14 6.888 13.888 7 13.75 7H6.25C6.112 7 6 6.888 6 6.75V6.25C6 6.112 6.112 6 6.25 6H13.75C13.888 6 14 6.112 14 6.25Z" fill="white"/>
<path id="Vector_8" opacity="0.05" d="M6.25 9.5H12.75C13.164 9.5 13.5 9.164 13.5 8.75V8.25C13.5 7.836 13.164 7.5 12.75 7.5H6.25C5.836 7.5 5.5 7.836 5.5 8.25V8.75C5.5 9.164 5.836 9.5 6.25 9.5Z" fill="black"/>
<path id="Vector_9" opacity="0.07" d="M6.25 9.25H12.75C13.026 9.25 13.25 9.026 13.25 8.75V8.25C13.25 7.974 13.026 7.75 12.75 7.75H6.25C5.974 7.75 5.75 7.974 5.75 8.25V8.75C5.75 9.026 5.974 9.25 6.25 9.25Z" fill="black"/>
<path id="Vector_10" d="M13 8.25V8.75C13 8.888 12.888 9 12.75 9H6.25C6.112 9 6 8.888 6 8.75V8.25C6 8.112 6.112 8 6.25 8H12.75C12.888 8 13 8.112 13 8.25Z" fill="white"/>
</g>
<defs>
<linearGradient id="paint0_linear_206_7451" x1="12.5965" y1="9.9435" x2="16.353" y2="22.139" gradientUnits="userSpaceOnUse">
<stop stop-color="#0176D0"/>
<stop offset="1" stop-color="#16538C"/>
</linearGradient>
<linearGradient id="paint1_linear_206_7451" x1="6.0885" y1="1.8745" x2="13.3365" y2="13.6675" gradientUnits="userSpaceOnUse">
<stop stop-color="#33BEF0"/>
<stop offset="1" stop-color="#22A5E2"/>
</linearGradient>
</defs>
</svg>
