<svg width="24" height="24" viewBox="0 0 24 24" fill="none" xmlns="http://www.w3.org/2000/svg">
<g id="microsoft-outlook-2019">
<path id="Vector" d="M21.6275 11.7735L18.2225 9.79001V15.587H22V12.4215C22 12.1545 21.858 11.908 21.6275 11.7735Z" fill="#103262"/>
<path id="Vector_2" d="M6.5 5H11.5V9.5H6.5V5Z" fill="#0084D7"/>
<path id="Vector_3" d="M11.5 5H16.5V9.5H11.5V5Z" fill="#33AFEC"/>
<path id="Vector_4" d="M16.5 5H21.5V9.5H16.5V5Z" fill="#54DAFF"/>
<path id="Vector_5" d="M11.5 9.5H16.5V14H11.5V9.5Z" fill="#027AD4"/>
<path id="Vector_6" d="M11.5 14H16.5V18.5H11.5V14Z" fill="#0553A4"/>
<path id="Vector_7" d="M16.5 9.5H21.5V14H16.5V9.5Z" fill="#25A2E5"/>
<path id="Vector_8" d="M16.5 14H21.5V18.5H16.5V14Z" fill="#0262B8"/>
<path id="Vector_9" opacity="0.019" d="M6.5 18.5H21.5V12.119L14.495 16.119L6.5 12.119V18.5Z" fill="black"/>
<path id="Vector_10" opacity="0.038" d="M6.5 18.5H21.5V12.238L14.495 16.238L6.5 12.238V18.5Z" fill="black"/>
<path id="Vector_11" opacity="0.057" d="M6.5 18.5H21.5V12.357L14.495 16.357L6.5 12.357V18.5Z" fill="black"/>
<path id="Vector_12" opacity="0.076" d="M6.5 18.5H21.5V12.476L14.495 16.476L6.5 12.476V18.5Z" fill="black"/>
<path id="Vector_13" opacity="0.095" d="M6.5 18.5H21.5V12.595L14.495 16.595L6.5 12.595V18.5Z" fill="black"/>
<path id="Vector_14" opacity="0.114" d="M6.5 18.5H21.5V12.7145L14.495 16.7145L6.5 12.7145V18.5Z" fill="black"/>
<path id="Vector_15" opacity="0.133" d="M6.5 18.5H21.5V12.8335L14.495 16.8335L6.5 12.8335V18.5Z" fill="black"/>
<path id="Vector_16" opacity="0.152" d="M6.5 18.5H21.5V12.9525L14.495 16.9525L6.5 12.9525V18.5Z" fill="black"/>
<path id="Vector_17" opacity="0.171" d="M6.5 18.5H21.5V13.0715L14.495 17.0715L6.5 13.0715V18.5Z" fill="black"/>
<path id="Vector_18" opacity="0.191" d="M6.5 18.5H21.5V13.1905L14.495 17.1905L6.5 13.1905V18.5Z" fill="black"/>
<path id="Vector_19" opacity="0.209" d="M6.5 18.5H21.5V13.3095L14.495 17.3095L6.5 13.3095V18.5Z" fill="black"/>
<path id="Vector_20" opacity="0.229" d="M6.5 18.5H21.5V13.4285L14.495 17.4285L6.5 13.4285V18.5Z" fill="black"/>
<path id="Vector_21" opacity="0.248" d="M6.5 18.5H21.5V13.5475L14.495 17.5475L6.5 13.5475V18.5Z" fill="black"/>
<path id="Vector_22" opacity="0.267" d="M6.5 18.5H21.5V13.6665L14.495 17.6665L6.5 13.6665V18.5Z" fill="black"/>
<path id="Vector_23" opacity="0.286" d="M6.5 18.5H21.5V13.7855L14.495 17.7855L6.5 13.7855V18.5Z" fill="black"/>
<path id="Vector_24" opacity="0.305" d="M6.5 18.5H21.5V13.905L14.495 17.905L6.5 13.905V18.5Z" fill="black"/>
<path id="Vector_25" opacity="0.324" d="M6.5 18.5H21.5V14.024L14.495 18.024L6.5 14.024V18.5Z" fill="black"/>
<path id="Vector_26" opacity="0.343" d="M6.5 18.5H21.5V14.143L14.495 18.143L6.5 14.143V18.5Z" fill="black"/>
<path id="Vector_27" opacity="0.362" d="M6.5 18.5H21.5V14.262L14.495 18.262L6.5 14.262V18.5Z" fill="black"/>
<path id="Vector_28" opacity="0.381" d="M6.5 18.5H21.5V14.381L14.495 18.381L6.5 14.381V18.5Z" fill="black"/>
<path id="Vector_29" opacity="0.4" d="M6.5 18.5H21.5V14.5L14.495 18.5L6.5 14.5V18.5Z" fill="black"/>
<path id="Vector_30" d="M7.72049 21H21.002C21.554 21 22.0015 20.5555 22.002 20.003C22.0035 17.7425 22 12.4215 22 12.4215C22 12.4215 21.9965 12.5325 21.1245 13.0275C20.2525 13.5225 7.37199 20.783 7.37199 20.783C7.37199 20.783 7.48899 21 7.72049 21Z" fill="url(#paint0_linear_206_7462)"/>
<path id="Vector_31" d="M21.5 5H6.5V4C6.5 3.4475 6.9475 3 7.5 3H20.5C21.0525 3 21.5 3.4475 21.5 4V5Z" fill="url(#paint1_linear_206_7462)"/>
<path id="Vector_32" d="M6.5 12.5V20C6.5 20.5525 6.9475 21 7.5 21H15H21.002C21.233 21 21.4435 20.919 21.6125 20.7875L6.5 12.5Z" fill="url(#paint2_linear_206_7462)"/>
<path id="Vector_33" opacity="0.05" d="M10.6595 6.5H6.5V18.5H10.6595C11.676 18.5 12.5 17.676 12.5 16.6595V8.3405C12.5 7.324 11.676 6.5 10.6595 6.5Z" fill="black"/>
<path id="Vector_34" opacity="0.07" d="M10.6065 18H6.5V6.6665H10.6065C11.4685 6.6665 12.167 7.365 12.167 8.227V16.4395C12.1665 17.3015 11.468 18 10.6065 18Z" fill="black"/>
<path id="Vector_35" opacity="0.09" d="M10.553 17.5H6.5V6.8335H10.553C11.26 6.8335 11.833 7.4065 11.833 8.1135V16.22C11.8335 16.927 11.26 17.5 10.553 17.5Z" fill="black"/>
<path id="Vector_36" d="M10.5 17H2.5C1.9475 17 1.5 16.5525 1.5 16V8C1.5 7.4475 1.9475 7 2.5 7H10.5C11.0525 7 11.5 7.4475 11.5 8V16C11.5 16.5525 11.0525 17 10.5 17Z" fill="url(#paint3_linear_206_7462)"/>
<path id="Vector_37" d="M6.50001 9.34549C4.94451 9.34549 4.00751 10.534 4.00751 12C4.00751 13.466 4.94101 14.6545 6.50001 14.6545C8.05951 14.6545 8.99251 13.466 8.99251 12.0005C8.99251 10.534 8.05551 9.34549 6.50001 9.34549ZM6.50001 13.7585C5.61751 13.7585 5.09001 12.9715 5.09001 12.0005C5.09001 11.0295 5.62001 10.2425 6.50001 10.2425C7.38001 10.2425 7.91051 11.03 7.91051 12.0005C7.91051 12.971 7.38201 13.7585 6.50001 13.7585Z" fill="white"/>
</g>
<defs>
<linearGradient id="paint0_linear_206_7462" x1="19.4625" y1="12.2785" x2="16.143" y2="18.012" gradientUnits="userSpaceOnUse">
<stop stop-color="#31ABEC"/>
<stop offset="1" stop-color="#1582D5"/>
</linearGradient>
<linearGradient id="paint1_linear_206_7462" x1="6.8325" y1="3.496" x2="20.6425" y2="4.537" gradientUnits="userSpaceOnUse">
<stop offset="0.042" stop-color="#076DB4"/>
<stop offset="0.85" stop-color="#0461AF"/>
</linearGradient>
<linearGradient id="paint2_linear_206_7462" x1="14.0765" y1="16.609" x2="11.819" y2="20.55" gradientUnits="userSpaceOnUse">
<stop stop-color="#33ACEE"/>
<stop offset="1" stop-color="#1B8EDF"/>
</linearGradient>
<linearGradient id="paint3_linear_206_7462" x1="1.765" y1="7.265" x2="11.205" y2="16.705" gradientUnits="userSpaceOnUse">
<stop stop-color="#1784D8"/>
<stop offset="1" stop-color="#0864C5"/>
</linearGradient>
</defs>
</svg>
