<svg width="24" height="24" viewBox="0 0 24 24" fill="none" xmlns="http://www.w3.org/2000/svg">
<g id="mobile-shop-credit">
<path id="Vector" d="M18 4.5H6V21.5C6 22.0525 6.4475 22.5 7 22.5H17C17.5525 22.5 18 22.0525 18 21.5V4.5Z" fill="#1B9DE2"/>
<path id="Vector_2" opacity="0.05" d="M18 21.5V15.5H13C12.4485 15.5 12 15.9485 12 16.5V22.5H14H17C17.5525 22.5 18 22.0525 18 21.5Z" fill="black"/>
<path id="Vector_3" opacity="0.07" d="M13.75 22.25H17.6555C17.865 22.0665 18 21.8005 18 21.5V15.75H13C12.5865 15.75 12.25 16.0865 12.25 16.5V22.5H13.75V22.25Z" fill="black"/>
<path id="Vector_4" d="M18 4.5H6V3C6 2.4475 6.4475 2 7 2H17C17.5525 2 18 2.4475 18 3V4.5Z" fill="url(#paint0_linear_206_7500)"/>
<path id="Vector_5" d="M10 3.625C10.2071 3.625 10.375 3.45711 10.375 3.25C10.375 3.04289 10.2071 2.875 10 2.875C9.79289 2.875 9.625 3.04289 9.625 3.25C9.625 3.45711 9.79289 3.625 10 3.625Z" fill="#0077D2"/>
<path id="Vector_6" d="M13.75 2.875C13.653 2.875 11.347 2.875 11.25 2.875C11.043 2.875 10.875 3.043 10.875 3.25C10.875 3.457 11.043 3.625 11.25 3.625C11.347 3.625 13.653 3.625 13.75 3.625C13.957 3.625 14.125 3.457 14.125 3.25C14.125 3.043 13.957 2.875 13.75 2.875Z" fill="#0077D2"/>
<path id="Vector_7" d="M17.5 7H6.5L5 8.5V9C5 9.5525 5.4475 10 6 10H18C18.5525 10 19 9.5525 19 9V8.5L17.5 7Z" fill="url(#paint1_linear_206_7500)"/>
<path id="Vector_8" d="M18 4.5H6L5 8.5H19L18 4.5Z" fill="#0077D2"/>
<path id="Vector_9" d="M13.5 24H13C12.724 24 12.5 23.776 12.5 23.5V22.4685H13.5V24Z" fill="#52BF8D"/>
<path id="Vector_10" d="M23 16H13.5V22H23V16Z" fill="#33C481"/>
<path id="Vector_11" d="M13.5 23H13C12.724 23 12.5 22.776 12.5 22.5V21.3965H13.5V23Z" fill="#59D19A"/>
<path id="Vector_12" d="M13.5 22H13C12.724 22 12.5 21.776 12.5 21.5V16.5C12.5 16.224 12.724 16 13 16H13.5V22Z" fill="#61E3A7"/>
<path id="Vector_13" d="M23 22H13.5V23H23V22Z" fill="#21A366"/>
<path id="Vector_14" d="M23 23H13.5V24H23V23Z" fill="url(#paint2_linear_206_7500)"/>
<path id="Vector_15" d="M16.5 21C17.6046 21 18.5 20.1046 18.5 19C18.5 17.8954 17.6046 17 16.5 17C15.3954 17 14.5 17.8954 14.5 19C14.5 20.1046 15.3954 21 16.5 21Z" fill="#61E3A7"/>
<path id="Vector_16" d="M19.5 21C19.7761 21 20 20.7761 20 20.5C20 20.2239 19.7761 20 19.5 20C19.2239 20 19 20.2239 19 20.5C19 20.7761 19.2239 21 19.5 21Z" fill="#61E3A7"/>
<path id="Vector_17" d="M21.5 21C21.7761 21 22 20.7761 22 20.5C22 20.2239 21.7761 20 21.5 20C21.2239 20 21 20.2239 21 20.5C21 20.7761 21.2239 21 21.5 21Z" fill="#61E3A7"/>
<path id="Vector_18" d="M23.5 24H23V22.4685H24V23.5C24 23.776 23.776 24 23.5 24Z" fill="#52BF8D"/>
<path id="Vector_19" d="M23.5 23H23V21.3965H24V22.5C24 22.776 23.776 23 23.5 23Z" fill="#59D19A"/>
<path id="Vector_20" d="M23.5 22H23V16H23.5C23.776 16 24 16.224 24 16.5V21.5C24 21.776 23.776 22 23.5 22Z" fill="#61E3A7"/>
</g>
<defs>
<linearGradient id="paint0_linear_206_7500" x1="10.1658" y1="2.10933" x2="10.253" y2="4.83103" gradientUnits="userSpaceOnUse">
<stop stop-color="#0D61A9"/>
<stop offset="1" stop-color="#16528C"/>
</linearGradient>
<linearGradient id="paint1_linear_206_7500" x1="9.8601" y1="7.13119" x2="9.96777" y2="10.397" gradientUnits="userSpaceOnUse">
<stop stop-color="#0D61A9"/>
<stop offset="1" stop-color="#16528C"/>
</linearGradient>
<linearGradient id="paint2_linear_206_7500" x1="14.8913" y1="23.1465" x2="15.0385" y2="24.5452" gradientUnits="userSpaceOnUse">
<stop stop-color="#21AD64"/>
<stop offset="1" stop-color="#088242"/>
</linearGradient>
</defs>
</svg>
