<svg width="24" height="24" viewBox="0 0 24 24" fill="none" xmlns="http://www.w3.org/2000/svg">
<g id="mockup">
<path id="Vector" d="M20.002 20.9845L4.0155 21C3.466 21.0005 3.016 20.5515 3.0155 20.002L3 4.0155C2.9995 3.466 3.4485 3.016 3.998 3.0155L19.9845 3C20.534 2.9995 20.984 3.4485 20.9845 3.998L21 19.9845C21.0005 20.534 20.5515 20.984 20.002 20.9845Z" fill="url(#paint0_linear_206_7521)"/>
<path id="Vector_2" d="M19.25 18.5H4.75C4.612 18.5 4.5 18.388 4.5 18.25V5.75C4.5 5.612 4.612 5.5 4.75 5.5H19.25C19.388 5.5 19.5 5.612 19.5 5.75V18.25C19.5 18.388 19.388 18.5 19.25 18.5Z" fill="url(#paint1_linear_206_7521)"/>
<path id="Vector_3" d="M18 12H6V17H18V12Z" fill="url(#paint2_linear_206_7521)"/>
<path id="Vector_4" d="M11.5 7H6V11H11.5V7Z" fill="url(#paint3_linear_206_7521)"/>
<path id="Vector_5" d="M18 7H12.5V11H18V7Z" fill="url(#paint4_linear_206_7521)"/>
</g>
<defs>
<linearGradient id="paint0_linear_206_7521" x1="11.988" y1="3.079" x2="11.988" y2="21.0225" gradientUnits="userSpaceOnUse">
<stop stop-color="#0568BA"/>
<stop offset="1" stop-color="#0B59A2"/>
</linearGradient>
<linearGradient id="paint1_linear_206_7521" x1="9.22929" y1="5.69959" x2="15.1108" y2="18.7842" gradientUnits="userSpaceOnUse">
<stop stop-color="#7DD8F3"/>
<stop offset="1" stop-color="#45B0D0"/>
</linearGradient>
<linearGradient id="paint2_linear_206_7521" x1="-145.492" y1="195.13" x2="19.9065" y2="5.4315" gradientUnits="userSpaceOnUse">
<stop stop-color="#42A3F2"/>
<stop offset="1" stop-color="#42A4EB"/>
</linearGradient>
<linearGradient id="paint3_linear_206_7521" x1="-80.8335" y1="111.745" x2="13.2475" y2="3.842" gradientUnits="userSpaceOnUse">
<stop stop-color="#42A3F2"/>
<stop offset="1" stop-color="#42A4EB"/>
</linearGradient>
<linearGradient id="paint4_linear_206_7521" x1="-74.3335" y1="111.745" x2="19.7475" y2="3.842" gradientUnits="userSpaceOnUse">
<stop stop-color="#42A3F2"/>
<stop offset="1" stop-color="#42A4EB"/>
</linearGradient>
</defs>
</svg>
