<svg width="24" height="24" viewBox="0 0 24 24" fill="none" xmlns="http://www.w3.org/2000/svg">
<g id="module">
<path id="Vector" d="M2.6535 6.08051C2.5555 6.28151 2.5 6.50401 2.5 6.73601V16.8545C2.5 17.4115 2.8085 17.9225 3.3015 18.182L11.0685 22.27C11.36 22.4235 11.68 22.5 12 22.5V11L2.6535 6.08051Z" fill="url(#paint0_linear_206_7527)"/>
<path id="Vector_2" d="M12 11V22.5C12.32 22.5 12.64 22.4235 12.9315 22.27L20.6985 18.182C21.1915 17.9225 21.5 17.4115 21.5 16.8545V6.73601C21.5 6.50401 21.4445 6.28151 21.3465 6.08051L12 11Z" fill="url(#paint1_linear_206_7527)"/>
<path id="Vector_3" d="M12 11L21.3465 6.0805C21.2 5.7795 20.956 5.529 20.642 5.3805L12.856 1.6925C12.314 1.436 11.6855 1.436 11.1435 1.6925L3.358 5.3805C3.044 5.5295 2.8 5.78 2.6535 6.0805L12 11Z" fill="url(#paint2_linear_206_7527)"/>
<path id="Vector_4" d="M6.589 8.15302C6.532 8.26902 6.5 8.39802 6.5 8.53252V14.3905C6.5 14.713 6.6785 15.009 6.964 15.159L11.461 17.5255C11.63 17.6145 11.815 17.659 12.0005 17.659V11.001L6.589 8.15302Z" fill="#25A2E5"/>
<path id="Vector_5" d="M12 11.001V17.659C12.185 17.659 12.3705 17.6145 12.5395 17.5255L17.0365 15.159C17.322 15.009 17.5005 14.713 17.5005 14.3905V8.53252C17.5005 8.39802 17.4685 8.26952 17.4115 8.15302L12 11.001Z" fill="#027AD4"/>
<path id="Vector_6" d="M12 11.001L17.411 8.153C17.326 7.979 17.185 7.834 17.003 7.7475L12.4955 5.6125C12.1815 5.464 11.818 5.464 11.504 5.6125L6.9965 7.7475C6.8145 7.8335 6.6735 7.9785 6.5885 8.153L12 11.001Z" fill="#54DAFF"/>
</g>
<defs>
<linearGradient id="paint0_linear_206_7527" x1="2.5" y1="14.2905" x2="12" y2="14.2905" gradientUnits="userSpaceOnUse">
<stop stop-color="#1D59B3"/>
<stop offset="1" stop-color="#195BBC"/>
</linearGradient>
<linearGradient id="paint1_linear_206_7527" x1="12" y1="14.2905" x2="21.5" y2="14.2905" gradientUnits="userSpaceOnUse">
<stop stop-color="#11408A"/>
<stop offset="1" stop-color="#103F8F"/>
</linearGradient>
<linearGradient id="paint2_linear_206_7527" x1="2.6535" y1="6.25" x2="21.3465" y2="6.25" gradientUnits="userSpaceOnUse">
<stop stop-color="#3079D6"/>
<stop offset="1" stop-color="#297CD2"/>
</linearGradient>
</defs>
</svg>
