<svg width="24" height="24" viewBox="0 0 24 24" fill="none" xmlns="http://www.w3.org/2000/svg">
<g id="mortgage">
<path id="Vector" d="M21 20H3V21C3 21.5525 3.4475 22 4 22H20C20.5525 22 21 21.5525 21 21V20Z" fill="url(#paint0_linear_206_7538)"/>
<path id="Vector_2" d="M21 20H3V10.5L12 2L21 10.5V20Z" fill="url(#paint1_linear_206_7538)"/>
<path id="Vector_3" d="M9.5 13H14.5C14.776 13 15 13.224 15 13.5V22H9V13.5C9 13.224 9.224 13 9.5 13Z" fill="#DE490D"/>
<path id="Vector_4" d="M19 13C15.6915 13 13 15.6915 13 19C13 20.0935 13.299 21.1165 13.812 22H20C20.5525 22 21 21.5525 21 21V13.35C20.3735 13.1275 19.702 13 19 13Z" fill="url(#paint2_radial_206_7538)"/>
<path id="Vector_5" opacity="0.05" d="M12 2.5C11.763 2.5 11.526 2.584 11.337 2.7515L8.6575 5.157L3 10.5V13.195L12 5.214L21 13.195V10.5L15.3425 5.157L12.663 2.7515C12.474 2.584 12.237 2.5 12 2.5Z" fill="black"/>
<path id="Vector_6" opacity="0.07" d="M12 2C11.763 2 11.526 2.0835 11.337 2.25L8.6575 4.642L3 9.9545V12.634L12 4.6985L21 12.634V9.9545L15.3425 4.642L12.663 2.25C12.474 2.0835 12.237 2 12 2Z" fill="black"/>
<path id="Vector_7" d="M22.2475 10.2535L12.663 1.7515C12.474 1.584 12.237 1.5 12 1.5C11.763 1.5 11.526 1.584 11.337 1.7515L1.7525 10.2535C1.5425 10.4405 1.528 10.7635 1.7205 10.9685L2.5385 11.841C2.723 12.038 3.0305 12.053 3.2335 11.8745L12 4.214L20.7665 11.875C20.969 12.053 21.277 12.0385 21.4615 11.8415L22.2795 10.969C22.472 10.7635 22.4575 10.4405 22.2475 10.2535Z" fill="url(#paint3_linear_206_7538)"/>
<path id="Vector_8" d="M19 24C21.7614 24 24 21.7614 24 19C24 16.2386 21.7614 14 19 14C16.2386 14 14 16.2386 14 19C14 21.7614 16.2386 24 19 24Z" fill="url(#paint4_linear_206_7538)"/>
<path id="Vector_9" opacity="0.05" d="M18.875 23.001C18.5305 23.001 18.25 22.7205 18.25 22.376V22.178C17.888 22.1135 17.5255 22.0095 17.2285 21.8835C16.937 21.7585 16.7495 21.4755 16.7495 21.162V20.5665C16.7495 20.2015 17.046 19.904 17.4105 19.904C17.5135 19.904 17.617 19.929 17.7095 19.976C17.86 20.053 18.3945 20.3025 19 20.3025C19.261 20.3025 19.322 20.246 19.3225 20.245C19.2735 20.1455 18.8395 19.9845 18.631 19.9075C17.8475 19.6175 16.6625 19.179 16.6625 17.75C16.6625 16.767 17.2515 16.048 18.2495 15.7925V15.625C18.2495 15.2805 18.53 15 18.8745 15H19.1245C19.469 15 19.7495 15.2805 19.7495 15.625V15.736C20.046 15.77 20.296 15.828 20.5095 15.911C20.625 15.9565 21 16.1465 21 16.698V17.2215C21 17.586 20.703 17.8825 20.338 17.8825C20.2395 17.8825 20.1435 17.861 20.0535 17.8185C19.8625 17.729 19.471 17.5785 19 17.5785C18.8815 17.5785 18.681 17.5965 18.681 17.6625C18.681 17.7825 19.169 17.972 19.431 18.0735C20.191 18.369 21.3375 18.8145 21.3375 20.1735C21.3375 20.9305 20.917 21.8775 19.7505 22.1645V22.3755C19.7505 22.72 19.47 23.0005 19.1255 23.0005L18.875 23.001Z" fill="black"/>
<path id="Vector_10" opacity="0.05" d="M18.875 22.751C18.6685 22.751 18.5 22.583 18.5 22.376V21.964C18.093 21.9095 17.6675 21.798 17.326 21.653C17.1275 21.568 16.9995 21.375 16.9995 21.162V20.5665C16.9995 20.339 17.184 20.154 17.4105 20.154C17.4745 20.154 17.539 20.1695 17.596 20.1985C17.7585 20.282 18.3375 20.5525 19 20.5525C19.569 20.5525 19.569 20.3165 19.569 20.2275C19.569 20.0045 19.2475 19.8695 18.718 19.673C17.9565 19.391 16.913 19.0045 16.913 17.7495C16.913 16.6635 17.6955 16.1405 18.5 15.993V15.625C18.5 15.418 18.6685 15.25 18.875 15.25H19.125C19.3315 15.25 19.5 15.418 19.5 15.625V15.964C19.875 15.9905 20.177 16.05 20.419 16.144C20.519 16.1835 20.7505 16.315 20.7505 16.698V17.2215C20.7505 17.448 20.5655 17.6325 20.3385 17.6325C20.2765 17.6325 20.217 17.619 20.1605 17.592C19.9505 17.4935 19.5205 17.3285 19.0005 17.3285C18.623 17.3285 18.4315 17.441 18.4315 17.6625C18.4315 17.934 18.7755 18.087 19.341 18.307C20.078 18.5935 21.0875 18.9855 21.0875 20.174C21.0875 20.896 20.6665 21.7675 19.5005 21.9615V22.3765C19.5005 22.5835 19.332 22.7515 19.1255 22.7515H18.875V22.751Z" fill="black"/>
<path id="Vector_11" d="M20.837 20.1735C20.837 18.374 18.1805 18.7255 18.1805 17.6625C18.1805 17.1075 18.8045 17.078 18.9995 17.078C19.4685 17.078 19.921 17.204 20.266 17.3655C20.375 17.417 20.5 17.3415 20.5 17.2215V16.698C20.5 16.5225 20.434 16.4185 20.3285 16.377C20.092 16.285 19.7525 16.2175 19.25 16.201V15.625C19.25 15.556 19.194 15.5 19.125 15.5H18.875C18.806 15.5 18.75 15.556 18.75 15.625V16.2105C17.9705 16.2865 17.163 16.7265 17.163 17.7495C17.163 19.615 19.8195 19.2445 19.8195 20.227C19.8195 20.536 19.622 20.802 19.0005 20.802C18.3755 20.802 17.801 20.584 17.4835 20.421C17.3765 20.3665 17.2505 20.4455 17.2505 20.5655V21.1615C17.2505 21.2755 17.3195 21.3775 17.425 21.4225C17.8015 21.5825 18.3065 21.7035 18.751 21.739V22.3755C18.751 22.4445 18.807 22.5005 18.876 22.5005H19.126C19.195 22.5005 19.251 22.4445 19.251 22.3755V21.74C20.416 21.643 20.837 20.8625 20.837 20.1735Z" fill="white"/>
</g>
<defs>
<linearGradient id="paint0_linear_206_7538" x1="3" y1="21" x2="21" y2="21" gradientUnits="userSpaceOnUse">
<stop stop-color="#C8D3DE"/>
<stop offset="1" stop-color="#C8D3DE"/>
</linearGradient>
<linearGradient id="paint1_linear_206_7538" x1="7.0475" y1="5.669" x2="15.6925" y2="22.3935" gradientUnits="userSpaceOnUse">
<stop stop-color="#FCFCFC"/>
<stop offset="0.495" stop-color="#F4F4F4"/>
<stop offset="0.946" stop-color="#E8E8E8"/>
<stop offset="1" stop-color="#E8E8E8"/>
</linearGradient>
<radialGradient id="paint2_radial_206_7538" cx="0" cy="0" r="1" gradientUnits="userSpaceOnUse" gradientTransform="translate(18.6595 18.649) scale(5.5475)">
<stop/>
<stop offset="1" stop-opacity="0"/>
</radialGradient>
<linearGradient id="paint3_linear_206_7538" x1="12" y1="1.342" x2="12" y2="12.348" gradientUnits="userSpaceOnUse">
<stop stop-color="#D43A02"/>
<stop offset="1" stop-color="#B9360C"/>
</linearGradient>
<linearGradient id="paint4_linear_206_7538" x1="14" y1="19" x2="24" y2="19" gradientUnits="userSpaceOnUse">
<stop stop-color="#21AD64"/>
<stop offset="1" stop-color="#088242"/>
</linearGradient>
</defs>
</svg>
