<svg width="24" height="24" viewBox="0 0 24 24" fill="none" xmlns="http://www.w3.org/2000/svg">
<g id="multiple-pages-mode">
<path id="Vector" d="M10.5 11.5H4C3.4475 11.5 3 11.0525 3 10.5V4C3 3.4475 3.4475 3 4 3H10.5C11.0525 3 11.5 3.4475 11.5 4V10.5C11.5 11.0525 11.0525 11.5 10.5 11.5Z" fill="url(#paint0_linear_206_7560)"/>
<path id="Vector_2" d="M3 4H8.75C8.888 4 9 4.112 9 4.25V4.75C9 4.888 8.888 5 8.75 5H3V4Z" fill="#057093"/>
<path id="Vector_3" d="M3 6.5H8.75C8.888 6.5 9 6.612 9 6.75V7.25C9 7.388 8.888 7.5 8.75 7.5H3V6.5Z" fill="#057093"/>
<path id="Vector_4" d="M12.5 10.5555V3.9445C12.5 3.423 12.923 3 13.4445 3H20.0555C20.577 3 21 3.423 21 3.9445V10.5555C21 11.077 20.577 11.5 20.0555 11.5H13.4445C12.923 11.5 12.5 11.077 12.5 10.5555Z" fill="url(#paint1_linear_206_7560)"/>
<path id="Vector_5" d="M21 5H15.25C15.112 5 15 4.888 15 4.75V4.25C15 4.112 15.112 4 15.25 4H21V5Z" fill="#057093"/>
<path id="Vector_6" d="M21 7.5H15.25C15.112 7.5 15 7.388 15 7.25V6.75C15 6.612 15.112 6.5 15.25 6.5H21V7.5Z" fill="#057093"/>
<path id="Vector_7" d="M11.5 13.5V20C11.5 20.5525 11.0525 21 10.5 21H4C3.4475 21 3 20.5525 3 20V13.5C3 12.9475 3.4475 12.5 4 12.5H10.5C11.0525 12.5 11.5 12.9475 11.5 13.5Z" fill="url(#paint2_linear_206_7560)"/>
<path id="Vector_8" d="M3 19H8.75C8.888 19 9 19.112 9 19.25V19.75C9 19.888 8.888 20 8.75 20H3V19Z" fill="#057093"/>
<path id="Vector_9" d="M3 16.5H8.75C8.888 16.5 9 16.612 9 16.75V17.25C9 17.388 8.888 17.5 8.75 17.5H3V16.5Z" fill="#057093"/>
<path id="Vector_10" d="M13.5 12.5H20C20.5525 12.5 21 12.9475 21 13.5V20C21 20.5525 20.5525 21 20 21H13.5C12.9475 21 12.5 20.5525 12.5 20V13.5C12.5 12.9475 12.9475 12.5 13.5 12.5Z" fill="url(#paint3_linear_206_7560)"/>
<path id="Vector_11" d="M21 20H15.25C15.112 20 15 19.888 15 19.75V19.25C15 19.112 15.112 19 15.25 19H21V20Z" fill="#057093"/>
<path id="Vector_12" d="M21 17.5H15.25C15.112 17.5 15 17.388 15 17.25V16.75C15 16.612 15.112 16.5 15.25 16.5H21V17.5Z" fill="#057093"/>
</g>
<defs>
<linearGradient id="paint0_linear_206_7560" x1="4.8831" y1="1.73373" x2="10.6449" y2="10.1919" gradientUnits="userSpaceOnUse">
<stop stop-color="#FCFCFC"/>
<stop offset="0.95" stop-color="#C3C9CD"/>
</linearGradient>
<linearGradient id="paint1_linear_206_7560" x1="14.3831" y1="1.73373" x2="20.1449" y2="10.1919" gradientUnits="userSpaceOnUse">
<stop stop-color="#FCFCFC"/>
<stop offset="0.95" stop-color="#C3C9CD"/>
</linearGradient>
<linearGradient id="paint2_linear_206_7560" x1="4.8831" y1="11.2337" x2="10.6449" y2="19.6919" gradientUnits="userSpaceOnUse">
<stop stop-color="#FCFCFC"/>
<stop offset="0.95" stop-color="#C3C9CD"/>
</linearGradient>
<linearGradient id="paint3_linear_206_7560" x1="14.3831" y1="11.2337" x2="20.1449" y2="19.6919" gradientUnits="userSpaceOnUse">
<stop stop-color="#FCFCFC"/>
<stop offset="0.95" stop-color="#C3C9CD"/>
</linearGradient>
</defs>
</svg>
