<svg width="24" height="24" viewBox="0 0 24 24" fill="none" xmlns="http://www.w3.org/2000/svg">
<g id="natural-user-interface-2">
<path id="Vector" d="M13.5 4.25C13.5 6.597 11.597 8.5 9.25 8.5C6.903 8.5 5 6.597 5 4.25C5 1.903 6.903 0 9.25 0C11.597 0 13.5 1.903 13.5 4.25Z" fill="url(#paint0_linear_206_7604)"/>
<path id="Vector_2" d="M12.5 4.25C12.5 6.045 11.045 7.5 9.25 7.5C7.455 7.5 6 6.045 6 4.25C6 2.455 7.455 1 9.25 1C11.045 1 12.5 2.455 12.5 4.25Z" fill="url(#paint1_linear_206_7604)"/>
<path id="Vector_3" d="M11.5 4.25C11.5 5.4925 10.4925 6.5 9.25 6.5C8.0075 6.5 7 5.4925 7 4.25C7 3.0075 8.0075 2 9.25 2C10.4925 2 11.5 3.0075 11.5 4.25Z" fill="url(#paint2_linear_206_7604)"/>
<path id="Vector_4" d="M3.18 15.6375C3.1805 15.634 3.182 15.6315 3.1825 15.628L3.1815 15.6275L3.18 15.6375Z" fill="url(#paint3_linear_206_7604)"/>
<path id="Vector_5" d="M16.869 10.451L10.5 9.50001V4.32151C10.5 3.66751 10.0295 3.07201 9.379 3.00651C8.6305 2.93151 8 3.51701 8 4.25001C8 4.36851 8 20.484 8 20.484C8.7305 21.134 9.6735 21.5 10.657 21.5H16C17.657 21.5 19 20.157 19 18.5V12.9235C19 11.6855 18.094 10.634 16.869 10.451Z" fill="url(#paint4_linear_206_7604)"/>
<path id="Vector_6" d="M10.5 9.5V12.5L11.805 9.695L10.5 9.5Z" fill="url(#paint5_linear_206_7604)"/>
<path id="Vector_7" d="M9.25 5C9.66421 5 10 4.66421 10 4.25C10 3.83579 9.66421 3.5 9.25 3.5C8.83579 3.5 8.5 3.83579 8.5 4.25C8.5 4.66421 8.83579 5 9.25 5Z" fill="#FFF0C9"/>
<g id="Group">
<path id="Vector_8" d="M3.0115 12C2.1515 12 1.7625 12.534 1.7625 13.246L7.805 20.3105C7.867 20.3725 7.9345 20.4285 7.9995 20.4865V13.134C6.863 15.074 6.03 13.3375 5.1645 13.539C5.165 13.539 4.805 12 3.0115 12Z" fill="url(#paint6_linear_206_7604)"/>
</g>
</g>
<defs>
<linearGradient id="paint0_linear_206_7604" x1="7.338" y1="0.53" x2="11.2865" y2="8.2125" gradientUnits="userSpaceOnUse">
<stop stop-color="#0D61A9"/>
<stop offset="1" stop-color="#16528C"/>
</linearGradient>
<linearGradient id="paint1_linear_206_7604" x1="7.788" y1="1.405" x2="10.8075" y2="7.28" gradientUnits="userSpaceOnUse">
<stop stop-color="#199AE0"/>
<stop offset="1" stop-color="#0782D8"/>
</linearGradient>
<linearGradient id="paint2_linear_206_7604" x1="8.238" y1="2.2805" x2="10.328" y2="6.348" gradientUnits="userSpaceOnUse">
<stop stop-color="#75DAFF"/>
<stop offset="1" stop-color="#1EA2E4"/>
</linearGradient>
<linearGradient id="paint3_linear_206_7604" x1="3.17883" y1="15.6324" x2="3.17982" y2="15.6326" gradientUnits="userSpaceOnUse">
<stop stop-color="#FFC430"/>
<stop offset="0.57" stop-color="#F8BD29"/>
<stop offset="1" stop-color="#F0B421"/>
</linearGradient>
<linearGradient id="paint4_linear_206_7604" x1="8.9955" y1="11.522" x2="21.282" y2="24.281" gradientUnits="userSpaceOnUse">
<stop stop-color="#FFC430"/>
<stop offset="0.41" stop-color="#FEC130"/>
<stop offset="0.72" stop-color="#FCB730"/>
<stop offset="0.998" stop-color="#F7A72F"/>
<stop offset="1" stop-color="#F7A72F"/>
</linearGradient>
<linearGradient id="paint5_linear_206_7604" x1="10.956" y1="10.9905" x2="10.0815" y2="10.5145" gradientUnits="userSpaceOnUse">
<stop offset="0.282" stop-color="#FFC430"/>
<stop offset="0.401" stop-color="#F8BD2D"/>
<stop offset="0.574" stop-color="#E5AA23"/>
<stop offset="0.78" stop-color="#C58A14"/>
<stop offset="1" stop-color="#9C6000"/>
</linearGradient>
<linearGradient id="paint6_linear_206_7604" x1="4.695" y1="16.7535" x2="8.9185" y2="12.5885" gradientUnits="userSpaceOnUse">
<stop offset="0.282" stop-color="#FFC430"/>
<stop offset="0.401" stop-color="#F8BD2D"/>
<stop offset="0.574" stop-color="#E5AA23"/>
<stop offset="0.78" stop-color="#C58A14"/>
<stop offset="1" stop-color="#9C6000"/>
</linearGradient>
</defs>
</svg>
