<svg width="24" height="24" viewBox="0 0 24 24" fill="none" xmlns="http://www.w3.org/2000/svg">
<g id="new-ticket">
<path id="Vector" d="M22 10.0115V5.5C22 5.36867 21.9742 5.23862 21.924 5.11727C21.8737 4.99593 21.8001 4.88568 21.7072 4.79281C21.6143 4.69995 21.5041 4.62629 21.3827 4.57605C21.2614 4.52581 21.1313 4.49996 21 4.5H3C2.86867 4.49996 2.73862 4.52581 2.61727 4.57605C2.49593 4.62629 2.38568 4.69995 2.29281 4.79281C2.19995 4.88568 2.12629 4.99593 2.07605 5.11727C2.02581 5.23862 1.99996 5.36867 2 5.5V10.0115C2.31026 10.242 2.56228 10.5418 2.73592 10.8871C2.90956 11.2324 3 11.6135 3 12C3 12.3865 2.90956 12.7676 2.73592 13.1129C2.56228 13.4582 2.31026 13.758 2 13.9885V18.5C1.99996 18.6313 2.02581 18.7614 2.07605 18.8827C2.12629 19.0041 2.19995 19.1143 2.29281 19.2072C2.38568 19.3001 2.49593 19.3737 2.61727 19.424C2.73862 19.4742 2.86867 19.5 3 19.5H21C21.1313 19.5 21.2614 19.4742 21.3827 19.424C21.5041 19.3737 21.6143 19.3001 21.7072 19.2072C21.8001 19.1143 21.8737 19.0041 21.924 18.8827C21.9742 18.7614 22 18.6313 22 18.5V13.9885C21.6897 13.758 21.4377 13.4582 21.2641 13.1129C21.0904 12.7676 21 12.3865 21 12C21 11.6135 21.0904 11.2324 21.2641 10.8871C21.4377 10.5418 21.6897 10.242 22 10.0115ZM17.5 18.5C17.4011 18.5 17.3044 18.4707 17.2222 18.4157C17.14 18.3608 17.0759 18.2827 17.0381 18.1913C17.0002 18.1 16.9903 17.9994 17.0096 17.9025C17.0289 17.8055 17.0765 17.7164 17.1464 17.6464C17.2164 17.5765 17.3055 17.5289 17.4025 17.5096C17.4994 17.4903 17.6 17.5002 17.6913 17.5381C17.7827 17.5759 17.8608 17.64 17.9157 17.7222C17.9707 17.8044 18 17.9011 18 18C18 18.1326 17.9473 18.2597 17.8535 18.3535C17.7597 18.4473 17.6326 18.5 17.5 18.5ZM17.5 16.5C17.4011 16.5 17.3044 16.4707 17.2222 16.4157C17.14 16.3608 17.0759 16.2827 17.0381 16.1913C17.0002 16.1 16.9903 15.9994 17.0096 15.9025C17.0289 15.8055 17.0765 15.7164 17.1464 15.6464C17.2164 15.5765 17.3055 15.5289 17.4025 15.5096C17.4994 15.4903 17.6 15.5002 17.6913 15.5381C17.7827 15.5759 17.8608 15.64 17.9157 15.7222C17.9707 15.8044 18 15.9011 18 16C18 16.1326 17.9473 16.2597 17.8535 16.3535C17.7597 16.4473 17.6326 16.5 17.5 16.5ZM17.5 14.5C17.4011 14.5 17.3044 14.4707 17.2222 14.4157C17.14 14.3608 17.0759 14.2827 17.0381 14.1913C17.0002 14.1 16.9903 13.9994 17.0096 13.9025C17.0289 13.8055 17.0765 13.7164 17.1464 13.6464C17.2164 13.5765 17.3055 13.5289 17.4025 13.5096C17.4994 13.4903 17.6 13.5002 17.6913 13.5381C17.7827 13.5759 17.8608 13.64 17.9157 13.7222C17.9707 13.8044 18 13.9011 18 14C18 14.1326 17.9473 14.2597 17.8535 14.3535C17.7597 14.4473 17.6326 14.5 17.5 14.5ZM17.5 12.5C17.4011 12.5 17.3044 12.4707 17.2222 12.4157C17.14 12.3608 17.0759 12.2827 17.0381 12.1913C17.0002 12.1 16.9903 11.9994 17.0096 11.9025C17.0289 11.8055 17.0765 11.7164 17.1464 11.6464C17.2164 11.5765 17.3055 11.5289 17.4025 11.5096C17.4994 11.4903 17.6 11.5002 17.6913 11.5381C17.7827 11.5759 17.8608 11.64 17.9157 11.7222C17.9707 11.8044 18 11.9011 18 12C18 12.1326 17.9473 12.2597 17.8535 12.3535C17.7597 12.4473 17.6326 12.5 17.5 12.5ZM17.5 10.5C17.4011 10.5 17.3044 10.4707 17.2222 10.4157C17.14 10.3608 17.0759 10.2827 17.0381 10.1913C17.0002 10.1 16.9903 9.99944 17.0096 9.90245C17.0289 9.80546 17.0765 9.71637 17.1464 9.64645C17.2164 9.57652 17.3055 9.5289 17.4025 9.50961C17.4994 9.49031 17.6 9.50022 17.6913 9.53806C17.7827 9.5759 17.8608 9.63999 17.9157 9.72221C17.9707 9.80444 18 9.90111 18 10C18 10.1326 17.9473 10.2597 17.8535 10.3535C17.7597 10.4473 17.6326 10.5 17.5 10.5ZM17.5 8.5C17.4011 8.5 17.3044 8.47068 17.2222 8.41574C17.14 8.36079 17.0759 8.2827 17.0381 8.19134C17.0002 8.09998 16.9903 7.99945 17.0096 7.90245C17.0289 7.80546 17.0765 7.71637 17.1464 7.64645C17.2164 7.57652 17.3055 7.5289 17.4025 7.50961C17.4994 7.49031 17.6 7.50022 17.6913 7.53806C17.7827 7.5759 17.8608 7.63999 17.9157 7.72221C17.9707 7.80444 18 7.90111 18 8C18 8.13259 17.9473 8.25974 17.8535 8.3535C17.7597 8.44726 17.6326 8.49995 17.5 8.5ZM17.5 6.5C17.4011 6.5 17.3044 6.47068 17.2222 6.41573C17.14 6.36079 17.0759 6.2827 17.0381 6.19134C17.0002 6.09998 16.9903 5.99945 17.0096 5.90245C17.0289 5.80546 17.0765 5.71637 17.1464 5.64645C17.2164 5.57652 17.3055 5.5289 17.4025 5.50961C17.4994 5.49031 17.6 5.50022 17.6913 5.53806C17.7827 5.5759 17.8608 5.63999 17.9157 5.72221C17.9707 5.80444 18 5.90111 18 6C18 6.13259 17.9473 6.25974 17.8535 6.3535C17.7597 6.44726 17.6326 6.49995 17.5 6.5Z" fill="url(#paint0_linear_206_7682)"/>
<path id="Vector_2" d="M19 24C21.7614 24 24 21.7614 24 19C24 16.2386 21.7614 14 19 14C16.2386 14 14 16.2386 14 19C14 21.7614 16.2386 24 19 24Z" fill="url(#paint1_linear_206_7682)"/>
<path id="Vector_3" d="M19.25 21.5H18.75C18.6837 21.5 18.6201 21.4736 18.5732 21.4268C18.5264 21.3799 18.5 21.3163 18.5 21.25V16.75C18.5 16.6837 18.5264 16.6201 18.5732 16.5732C18.6201 16.5264 18.6837 16.5 18.75 16.5H19.25C19.3163 16.5 19.3799 16.5264 19.4268 16.5732C19.4736 16.6201 19.5 16.6837 19.5 16.75V21.25C19.5 21.3163 19.4736 21.3799 19.4268 21.4268C19.3799 21.4736 19.3163 21.5 19.25 21.5Z" fill="white"/>
<path id="Vector_4" d="M16.5 19.25V18.75C16.5 18.6837 16.5264 18.6201 16.5732 18.5732C16.6201 18.5264 16.6837 18.5 16.75 18.5H21.25C21.3163 18.5 21.3799 18.5264 21.4268 18.5732C21.4736 18.6201 21.5 18.6837 21.5 18.75V19.25C21.5 19.3163 21.4736 19.3799 21.4268 19.4268C21.3799 19.4736 21.3163 19.5 21.25 19.5H16.75C16.6837 19.5 16.6201 19.4736 16.5732 19.4268C16.5264 19.3799 16.5 19.3163 16.5 19.25Z" fill="white"/>
<path id="Vector_5" opacity="0.05" d="M19 13.5C18.6067 13.5007 18.2146 13.5426 17.83 13.625C17.8984 13.685 17.9486 13.7629 17.975 13.85C17.991 13.8984 17.9994 13.949 18 14C17.9994 14.0335 17.9961 14.067 17.99 14.1C18.3226 14.0336 18.6609 14.0001 19 14C20.0828 13.999 21.1363 14.352 22 15.005V14.39C21.1084 13.8066 20.0655 13.4971 19 13.5ZM17 14C16.9989 13.9558 17.0057 13.9118 17.02 13.87C15.9841 14.27 15.0935 14.974 14.4652 15.8897C13.837 16.8053 13.5005 17.8896 13.5 19C13.5 19.17 13.51 19.335 13.525 19.5H14.025C14.01 19.335 14 19.17 14 19C13.9998 18 14.3 17.0231 14.8617 16.1957C15.4233 15.3684 16.2205 14.7288 17.15 14.36C17.0887 14.2997 17.0454 14.2235 17.025 14.14C17.0066 14.0957 16.9981 14.0479 17 14Z" fill="black"/>
<path id="Vector_6" opacity="0.07" d="M19 13.75C18.6559 13.7503 18.3127 13.7838 17.975 13.85C17.991 13.8984 17.9994 13.949 18 14C17.9994 14.0336 17.9961 14.067 17.99 14.1C18.3226 14.0336 18.6609 14.0001 19 14C20.0828 13.9991 21.1363 14.352 22 15.005V14.695C21.1211 14.0788 20.0734 13.7488 19 13.75ZM13.75 19C13.75 19.17 13.76 19.335 13.77 19.5H14.025C14.01 19.335 14 19.17 14 19C13.9998 18 14.3 17.0231 14.8617 16.1957C15.4233 15.3684 16.2205 14.7289 17.15 14.36C17.0887 14.2997 17.0454 14.2235 17.025 14.14C16.0578 14.5328 15.2297 15.2049 14.6463 16.0706C14.063 16.9362 13.7509 17.9561 13.75 19Z" fill="black"/>
</g>
<defs>
<linearGradient id="paint0_linear_206_7682" x1="6.343" y1="2.796" x2="17.79" y2="21.4205" gradientUnits="userSpaceOnUse">
<stop stop-color="#FFD869"/>
<stop offset="1" stop-color="#FEC52B"/>
</linearGradient>
<linearGradient id="paint1_linear_206_7682" x1="16.652" y1="14.5845" x2="21.348" y2="23.4155" gradientUnits="userSpaceOnUse">
<stop stop-color="#21AD64"/>
<stop offset="1" stop-color="#088242"/>
</linearGradient>
</defs>
</svg>
