<svg width="24" height="24" viewBox="0 0 24 24" fill="none" xmlns="http://www.w3.org/2000/svg">
<g id="new-item">
<path id="Vector" d="M11.5 9.5H2.5C1.9475 9.5 1.5 9.0525 1.5 8.5V2.5C1.5 1.9475 1.9475 1.5 2.5 1.5H11.5C12.0525 1.5 12.5 1.9475 12.5 2.5V8.5C12.5 9.0525 12.0525 9.5 11.5 9.5Z" fill="url(#paint0_radial_206_7664)"/>
<path id="Vector_2" d="M10.865 9.5H2.5C1.95 9.5 1.5 9.05 1.5 8.5V6.485L4.035 3.95C4.39 3.595 4.96 3.595 5.31 3.95L10.865 9.5Z" fill="url(#paint1_linear_206_7664)"/>
<path id="Vector_3" d="M12.015 9.50001C12.333 9.50001 12.591 9.24201 12.591 8.92401V8.63601L9.0545 5.09951C8.7025 4.74751 8.1315 4.74751 7.7795 5.09951L3.379 9.50001H12.015Z" fill="#436DCD"/>
<path id="Vector_4" d="M15.5 17.5H8.5C7.9475 17.5 7.5 17.0525 7.5 16.5V7.5C7.5 6.9475 7.9475 6.5 8.5 6.5H13C13.5 7.5 15.5 9.5 16.5 10V16.5C16.5 17.0525 16.0525 17.5 15.5 17.5Z" fill="url(#paint2_linear_206_7664)"/>
<path id="Vector_5" d="M13 6.5V9C13 9.5525 13.4475 10 14 10H16.5L13 6.5Z" fill="url(#paint3_linear_206_7664)"/>
<path id="Vector_6" d="M14.25 13H9.25C9.112 13 9 12.888 9 12.75V12.25C9 12.112 9.112 12 9.25 12H14.25C14.388 12 14.5 12.112 14.5 12.25V12.75C14.5 12.888 14.388 13 14.25 13Z" fill="url(#paint4_linear_206_7664)"/>
<path id="Vector_7" d="M14.25 15H9.25C9.112 15 9 14.888 9 14.75V14.25C9 14.112 9.112 14 9.25 14H14.25C14.388 14 14.5 14.112 14.5 14.25V14.75C14.5 14.888 14.388 15 14.25 15Z" fill="url(#paint5_linear_206_7664)"/>
<path id="Vector_8" d="M21.5 22.5H14.5C13.9475 22.5 13.5 22.0525 13.5 21.5V12.5C13.5 11.9475 13.9475 11.5 14.5 11.5H19C19.5 12.5 21.5 14.5 22.5 15V21.5C22.5 22.0525 22.0525 22.5 21.5 22.5Z" fill="#21A366"/>
<path id="Vector_9" d="M22.5 21V20H13.5V21H22.5Z" fill="#33C481"/>
<path id="Vector_10" d="M22.5 18V17H13.5V18H22.5Z" fill="#33C481"/>
<path id="Vector_11" d="M13.5 15V14H21L22.5 15H13.5Z" fill="#33C481"/>
<path id="Vector_12" d="M19 11.5V14C19 14.5525 19.4475 15 20 15H22.5L19 11.5Z" fill="#185C37"/>
<path id="Vector_13" d="M16.5 11.5H15.5V22.5H16.5V11.5Z" fill="url(#paint6_linear_206_7664)"/>
<path id="Vector_14" d="M16.5 14H15.5V15H16.5V14Z" fill="#139551"/>
<path id="Vector_15" d="M16.5 17H15.5V18H16.5V17Z" fill="#139551"/>
<path id="Vector_16" d="M16.5 20H15.5V21H16.5V20Z" fill="#139551"/>
<path id="Vector_17" d="M10.25 4C10.6642 4 11 3.66421 11 3.25C11 2.83579 10.6642 2.5 10.25 2.5C9.83579 2.5 9.5 2.83579 9.5 3.25C9.5 3.66421 9.83579 4 10.25 4Z" fill="white"/>
</g>
<defs>
<radialGradient id="paint0_radial_206_7664" cx="0" cy="0" r="1" gradientUnits="userSpaceOnUse" gradientTransform="translate(14.0413 7.92064) scale(5.87812 6.7138)">
<stop stop-color="#BD8AF5"/>
<stop offset="0.137" stop-color="#B88BF5"/>
<stop offset="0.309" stop-color="#A88FF3"/>
<stop offset="0.499" stop-color="#8F96F2"/>
<stop offset="0.702" stop-color="#6B9EEF"/>
<stop offset="0.913" stop-color="#3EAAEC"/>
<stop offset="1" stop-color="#29AFEA"/>
</radialGradient>
<linearGradient id="paint1_linear_206_7664" x1="6.1825" y1="3.671" x2="6.1825" y2="9.6015" gradientUnits="userSpaceOnUse">
<stop stop-color="#124787"/>
<stop offset="0.923" stop-color="#173B75"/>
<stop offset="1" stop-color="#173A73"/>
</linearGradient>
<linearGradient id="paint2_linear_206_7664" x1="10.3376" y1="6.66888" x2="16.3557" y2="16.1626" gradientUnits="userSpaceOnUse">
<stop stop-color="#7DD8F3"/>
<stop offset="1" stop-color="#45B0D0"/>
</linearGradient>
<linearGradient id="paint3_linear_206_7664" x1="13.276" y1="9.724" x2="14.7795" y2="8.2205" gradientUnits="userSpaceOnUse">
<stop stop-color="#3079D6"/>
<stop offset="1" stop-color="#297CD2"/>
</linearGradient>
<linearGradient id="paint4_linear_206_7664" x1="11.0094" y1="12.0436" x2="11.0458" y2="13.1451" gradientUnits="userSpaceOnUse">
<stop stop-color="#32BDEF"/>
<stop offset="1" stop-color="#1EA2E4"/>
</linearGradient>
<linearGradient id="paint5_linear_206_7664" x1="11.0094" y1="14.0436" x2="11.0458" y2="15.1451" gradientUnits="userSpaceOnUse">
<stop stop-color="#32BDEF"/>
<stop offset="1" stop-color="#1EA2E4"/>
</linearGradient>
<linearGradient id="paint6_linear_206_7664" x1="15.6465" y1="13.111" x2="17.0491" y2="13.2385" gradientUnits="userSpaceOnUse">
<stop stop-color="#21AD64"/>
<stop offset="1" stop-color="#088242"/>
</linearGradient>
</defs>
</svg>
