<svg width="24" height="24" viewBox="0 0 24 24" fill="none" xmlns="http://www.w3.org/2000/svg">
<g id="noticeboard">
<path id="Vector" d="M21 3.5H3C2.4475 3.5 2 3.9475 2 4.5V19.5C2 20.0525 2.4475 20.5 3 20.5H21C21.5525 20.5 22 20.0525 22 19.5V4.5C22 3.9475 21.5525 3.5 21 3.5Z" fill="url(#paint0_linear_206_7700)"/>
<path id="Vector_2" opacity="0.05" d="M12.679 13.657L5.989 14.679C5.461 14.7595 4.968 14.397 4.8875 13.869L4.011 8.13499C3.9305 7.60699 4.293 7.11399 4.821 7.03349L11.511 6.01149C12.039 5.93099 12.532 6.29349 12.6125 6.82149L13.4885 12.556C13.5695 13.0835 13.207 13.5765 12.679 13.657Z" fill="black"/>
<path id="Vector_3" opacity="0.07" d="M12.6425 13.418L5.9525 14.44C5.5565 14.5005 5.1865 14.2285 5.126 13.8325L4.25 8.0985C4.1895 7.7025 4.4615 7.3325 4.8575 7.272L11.5475 6.25C11.9435 6.1895 12.3135 6.4615 12.374 6.8575L13.25 12.592C13.3105 12.988 13.0385 13.358 12.6425 13.418Z" fill="black"/>
<path id="Vector_4" d="M12.606 13.1795L5.916 14.2015C5.652 14.242 5.4055 14.0605 5.365 13.7965L4.489 8.06199C4.4485 7.79799 4.63 7.55149 4.894 7.51099L11.584 6.48899C11.848 6.44849 12.0945 6.62999 12.135 6.89399L13.011 12.6285C13.051 12.8925 12.87 13.139 12.606 13.1795Z" fill="url(#paint1_linear_206_7700)"/>
<path id="Vector_5" opacity="0.05" d="M19 18.5H12C11.4475 18.5 11 18.0525 11 17.5V11.5C11 10.9475 11.4475 10.5 12 10.5H19C19.5525 10.5 20 10.9475 20 11.5V17.5C20 18.0525 19.5525 18.5 19 18.5Z" fill="black"/>
<path id="Vector_6" opacity="0.07" d="M19 18.25H12C11.586 18.25 11.25 17.914 11.25 17.5V11.5C11.25 11.086 11.586 10.75 12 10.75H19C19.414 10.75 19.75 11.086 19.75 11.5V17.5C19.75 17.914 19.414 18.25 19 18.25Z" fill="black"/>
<path id="Vector_7" d="M19 18H12C11.724 18 11.5 17.776 11.5 17.5V11.5C11.5 11.224 11.724 11 12 11H19C19.276 11 19.5 11.224 19.5 11.5V17.5C19.5 17.776 19.276 18 19 18Z" fill="url(#paint2_linear_206_7700)"/>
<path id="Vector_8" d="M15.5 12.5C15.7761 12.5 16 12.2761 16 12C16 11.7239 15.7761 11.5 15.5 11.5C15.2239 11.5 15 11.7239 15 12C15 12.2761 15.2239 12.5 15.5 12.5Z" fill="#E2E2E2" fill-opacity="0.59"/>
<path id="Vector_9" d="M8.5 8.5C8.77614 8.5 9 8.27614 9 8C9 7.72386 8.77614 7.5 8.5 7.5C8.22386 7.5 8 7.72386 8 8C8 8.27614 8.22386 8.5 8.5 8.5Z" fill="url(#paint3_linear_206_7700)"/>
</g>
<defs>
<linearGradient id="paint0_linear_206_7700" x1="12" y1="3.46434" x2="12" y2="20.4386" gradientUnits="userSpaceOnUse">
<stop stop-color="#2AA4F4"/>
<stop offset="1" stop-color="#007AD9"/>
</linearGradient>
<linearGradient id="paint1_linear_206_7700" x1="7.17374" y1="6.60192" x2="10.7685" y2="14.2592" gradientUnits="userSpaceOnUse">
<stop stop-color="#7DD8F3"/>
<stop offset="1" stop-color="#45B0D0"/>
</linearGradient>
<linearGradient id="paint2_linear_206_7700" x1="13.2723" y1="9.95719" x2="17.7574" y2="17.4818" gradientUnits="userSpaceOnUse">
<stop stop-color="#FCFCFC"/>
<stop offset="0.95" stop-color="#C3C9CD"/>
</linearGradient>
<linearGradient id="paint3_linear_206_7700" x1="8" y1="8" x2="9" y2="8" gradientUnits="userSpaceOnUse">
<stop stop-color="#1D59B3"/>
<stop offset="1" stop-color="#195BBC"/>
</linearGradient>
</defs>
</svg>
