<svg width="24" height="24" viewBox="0 0 24 24" fill="none" xmlns="http://www.w3.org/2000/svg">
<g id="number-pad">
<path id="Vector" d="M22.7155 7.22799C22.7155 7.22799 21.6135 5.92099 20.2 5.44649C18.7865 4.97249 15.5515 4.32449 15.367 5.15999C15.9255 5.23799 16.1225 5.75749 16.1165 6.11249C16.1125 6.34299 16.0825 7.41249 16.0615 8.13549C16.05 8.53649 16.311 8.89499 16.696 9.00749L20.412 10.092C20.815 10.2095 21.245 10.027 21.44 9.65549L22.7155 7.22799Z" fill="url(#paint0_linear_206_7717)"/>
<path id="Vector_2" d="M1.2845 7.22799C1.2845 7.22799 2.3865 5.92099 3.8 5.44649C5.2135 4.97249 8.4485 4.32449 8.633 5.15999C8.0745 5.23799 7.8775 5.75749 7.8835 6.11249C7.8875 6.34299 7.9175 7.41249 7.9385 8.13549C7.95 8.53649 7.689 8.89499 7.304 9.00749L3.588 10.092C3.185 10.2095 2.755 10.027 2.56 9.65549L1.2845 7.22799Z" fill="url(#paint1_linear_206_7717)"/>
<path id="Vector_3" d="M12 4.9445C8.182 4.9445 4.56 5.768 1.2845 7.228L1.0335 6.2865C0.910496 5.8255 1.137 5.336 1.575 5.147C4.773 3.7675 8.296 3 12 3C15.704 3 19.227 3.7675 22.4255 5.1465C22.8635 5.3355 23.09 5.825 22.967 6.286L22.716 7.2275C19.44 5.7675 15.818 4.9445 12 4.9445Z" fill="url(#paint2_linear_206_7717)"/>
<path id="Vector_4" d="M12 15.5C12.8284 15.5 13.5 14.8284 13.5 14C13.5 13.1716 12.8284 12.5 12 12.5C11.1716 12.5 10.5 13.1716 10.5 14C10.5 14.8284 11.1716 15.5 12 15.5Z" fill="#1B9DE2"/>
<path id="Vector_5" d="M12 20.5C12.8284 20.5 13.5 19.8284 13.5 19C13.5 18.1716 12.8284 17.5 12 17.5C11.1716 17.5 10.5 18.1716 10.5 19C10.5 19.8284 11.1716 20.5 12 20.5Z" fill="#1B9DE2"/>
<path id="Vector_6" d="M17 15.5C17.8284 15.5 18.5 14.8284 18.5 14C18.5 13.1716 17.8284 12.5 17 12.5C16.1716 12.5 15.5 13.1716 15.5 14C15.5 14.8284 16.1716 15.5 17 15.5Z" fill="#1B9DE2"/>
<path id="Vector_7" d="M17 20.5C17.8284 20.5 18.5 19.8284 18.5 19C18.5 18.1716 17.8284 17.5 17 17.5C16.1716 17.5 15.5 18.1716 15.5 19C15.5 19.8284 16.1716 20.5 17 20.5Z" fill="#1B9DE2"/>
<path id="Vector_8" d="M7 15.5C7.82843 15.5 8.5 14.8284 8.5 14C8.5 13.1716 7.82843 12.5 7 12.5C6.17157 12.5 5.5 13.1716 5.5 14C5.5 14.8284 6.17157 15.5 7 15.5Z" fill="#1B9DE2"/>
<path id="Vector_9" d="M7 20.5C7.82843 20.5 8.5 19.8284 8.5 19C8.5 18.1716 7.82843 17.5 7 17.5C6.17157 17.5 5.5 18.1716 5.5 19C5.5 19.8284 6.17157 20.5 7 20.5Z" fill="#1B9DE2"/>
</g>
<defs>
<linearGradient id="paint0_linear_206_7717" x1="17.918" y1="4.99169" x2="18.5679" y2="10.7715" gradientUnits="userSpaceOnUse">
<stop stop-color="#0D61A9"/>
<stop offset="1" stop-color="#16528C"/>
</linearGradient>
<linearGradient id="paint1_linear_206_7717" x1="3.83553" y1="4.99169" x2="4.48539" y2="10.7715" gradientUnits="userSpaceOnUse">
<stop stop-color="#0D61A9"/>
<stop offset="1" stop-color="#16528C"/>
</linearGradient>
<linearGradient id="paint2_linear_206_7717" x1="12.0002" y1="2.99113" x2="12.0002" y2="7.21274" gradientUnits="userSpaceOnUse">
<stop stop-color="#2AA4F4"/>
<stop offset="1" stop-color="#007AD9"/>
</linearGradient>
</defs>
</svg>
