<svg width="24" height="24" viewBox="0 0 24 24" fill="none" xmlns="http://www.w3.org/2000/svg">
<g id="numbered-list">
<path id="Vector" d="M21.5 7.5H7.5C6.95 7.5 6.5 7.05 6.5 6.5V5.5C6.5 4.95 6.95 4.5 7.5 4.5H21.5C22.05 4.5 22.5 4.95 22.5 5.5V6.5C22.5 7.05 22.05 7.5 21.5 7.5Z" fill="#727D86"/>
<path id="Vector_2" d="M21.5 13.5H7.5C6.95 13.5 6.5 13.05 6.5 12.5V11.5C6.5 10.95 6.95 10.5 7.5 10.5H21.5C22.05 10.5 22.5 10.95 22.5 11.5V12.5C22.5 13.05 22.05 13.5 21.5 13.5Z" fill="#727D86"/>
<path id="Vector_3" d="M21.5 19.5H7.5C6.95 19.5 6.5 19.05 6.5 18.5V17.5C6.5 16.95 6.95 16.5 7.5 16.5H21.5C22.05 16.5 22.5 16.95 22.5 17.5V18.5C22.5 19.05 22.05 19.5 21.5 19.5Z" fill="#727D86"/>
<path id="Vector_4" d="M2.3505 8V5.184C2.2245 5.2585 2.094 5.3155 1.959 5.3545C1.824 5.394 1.671 5.4225 1.5 5.4405V4.5675C1.743 4.526 1.9695 4.4595 2.179 4.37C2.3885 4.2795 2.603 4.1565 2.8225 4H3.5V8H2.3505Z" fill="url(#paint0_linear_206_7710)"/>
<path id="Vector_5" d="M1.5 14V13.6845C1.5 13.4615 1.5275 13.2675 1.583 13.103C1.6385 12.9385 1.726 12.784 1.845 12.6395C1.9645 12.495 2.1715 12.3095 2.4675 12.0825C2.678 11.918 2.818 11.7995 2.887 11.7275C2.9565 11.655 3.008 11.5855 3.042 11.5175C3.076 11.45 3.093 11.3765 3.093 11.298C3.093 11.0365 2.9345 10.9055 2.616 10.9055C2.2925 10.9055 1.987 11.0215 1.6985 11.254V10.2965C1.9185 10.187 2.124 10.11 2.315 10.066C2.508 10.022 2.704 10 2.9055 10C3.338 10 3.673 10.1025 3.9095 10.3075C4.146 10.5125 4.2645 10.7995 4.2645 11.169C4.2645 11.4525 4.202 11.693 4.0785 11.8905C3.955 12.088 3.7245 12.294 3.3885 12.508C3.1315 12.6725 2.9605 12.793 2.8765 12.869C2.7925 12.945 2.7495 13.0095 2.7475 13.0625H4.3V14H1.5Z" fill="url(#paint1_linear_206_7710)"/>
<path id="Vector_6" d="M4.3 18.8265C4.3 19.1985 4.154 19.4875 3.8625 19.6925C3.571 19.8975 3.154 20 2.611 20C2.409 20 2.209 19.984 2.0105 19.953C1.8125 19.9215 1.642 19.8795 1.5 19.8275V18.9265C1.63 18.9985 1.779 19.055 1.946 19.0965C2.1135 19.138 2.2825 19.1585 2.454 19.1585C2.6525 19.1585 2.8045 19.1255 2.9105 19.06C3.0165 18.9945 3.0695 18.9005 3.0695 18.778C3.0695 18.654 3.0045 18.557 2.8745 18.4865C2.744 18.4165 2.562 18.3815 2.329 18.3815H1.926V17.5345H2.282C2.517 17.5345 2.691 17.5005 2.8025 17.4335C2.914 17.366 2.9705 17.2785 2.9705 17.1705C2.9705 17.068 2.9285 16.987 2.8435 16.9275C2.759 16.868 2.6295 16.8385 2.4545 16.8385C2.184 16.8385 1.914 16.9105 1.643 17.0545V16.194C1.981 16.0645 2.3375 16 2.7105 16C3.173 16 3.5355 16.087 3.798 16.2615C4.0605 16.436 4.192 16.6775 4.192 16.987C4.192 17.228 4.121 17.43 3.98 17.594C3.839 17.7575 3.641 17.8645 3.387 17.915V17.9285C3.669 17.9645 3.8915 18.064 4.0545 18.2265C4.2185 18.3895 4.3 18.5895 4.3 18.8265Z" fill="url(#paint2_linear_206_7710)"/>
</g>
<defs>
<linearGradient id="paint0_linear_206_7710" x1="2.2307" y1="4.17436" x2="3.64749" y2="8.06987" gradientUnits="userSpaceOnUse">
<stop stop-color="#32BDEF"/>
<stop offset="1" stop-color="#1EA2E4"/>
</linearGradient>
<linearGradient id="paint1_linear_206_7710" x1="2.52298" y1="10.1744" x2="3.59639" y2="14.3063" gradientUnits="userSpaceOnUse">
<stop stop-color="#32BDEF"/>
<stop offset="1" stop-color="#1EA2E4"/>
</linearGradient>
<linearGradient id="paint2_linear_206_7710" x1="2.52298" y1="16.1744" x2="3.59639" y2="20.3063" gradientUnits="userSpaceOnUse">
<stop stop-color="#32BDEF"/>
<stop offset="1" stop-color="#1EA2E4"/>
</linearGradient>
</defs>
</svg>
