<svg width="24" height="24" viewBox="0 0 24 24" fill="none" xmlns="http://www.w3.org/2000/svg">
<g id="numbers-input-form">
<path id="Vector" d="M0.5 7.6V16.4C0.5 17.0075 1.0145 17.5 1.65 17.5H22.35C22.9855 17.5 23.5 17.0075 23.5 16.4V7.6C23.5 6.9925 22.9855 6.5 22.35 6.5H1.65C1.0145 6.5 0.5 6.9925 0.5 7.6Z" fill="url(#paint0_linear_206_7727)"/>
<path id="Vector_2" d="M4.533 10.673V14.968H3.6105V11.716C3.5595 11.761 3.4995 11.8035 3.4305 11.8435C3.3615 11.8835 3.2875 11.9195 3.2095 11.952C3.1315 11.9845 3.05 12.0115 2.966 12.034C2.882 12.0565 2.799 12.0725 2.717 12.0825V11.303C2.957 11.2325 3.184 11.143 3.3965 11.0335C3.609 10.924 3.802 10.804 3.9735 10.673H4.533Z" fill="url(#paint1_linear_206_7727)"/>
<path id="Vector_3" d="M6.75 15C7.16421 15 7.5 14.6642 7.5 14.25C7.5 13.8358 7.16421 13.5 6.75 13.5C6.33579 13.5 6 13.8358 6 14.25C6 14.6642 6.33579 15 6.75 15Z" fill="url(#paint2_linear_206_7727)"/>
<path id="Vector_4" d="M9.25 15C9.66421 15 10 14.6642 10 14.25C10 13.8358 9.66421 13.5 9.25 13.5C8.83579 13.5 8.5 13.8358 8.5 14.25C8.5 14.6642 8.83579 15 9.25 15Z" fill="url(#paint3_linear_206_7727)"/>
</g>
<defs>
<linearGradient id="paint0_linear_206_7727" x1="7.75157" y1="6.66888" x2="10.8615" y2="19.2061" gradientUnits="userSpaceOnUse">
<stop stop-color="#7DD8F3"/>
<stop offset="1" stop-color="#45B0D0"/>
</linearGradient>
<linearGradient id="paint1_linear_206_7727" x1="3.34743" y1="10.8608" x2="4.85142" y2="14.9943" gradientUnits="userSpaceOnUse">
<stop stop-color="#0D61A9"/>
<stop offset="1" stop-color="#16528C"/>
</linearGradient>
<linearGradient id="paint2_linear_206_7727" x1="6.52072" y1="13.5656" x2="6.7664" y2="15.1625" gradientUnits="userSpaceOnUse">
<stop stop-color="#0D61A9"/>
<stop offset="1" stop-color="#16528C"/>
</linearGradient>
<linearGradient id="paint3_linear_206_7727" x1="9.02072" y1="13.5656" x2="9.2664" y2="15.1625" gradientUnits="userSpaceOnUse">
<stop stop-color="#0D61A9"/>
<stop offset="1" stop-color="#16528C"/>
</linearGradient>
</defs>
</svg>
