<svg width="24" height="24" viewBox="0 0 24 24" fill="none" xmlns="http://www.w3.org/2000/svg">
<g id="ok">
<path id="Vector" d="M6.6605 17.5C5.1375 17.5 3.896 17.004 2.937 16.0125C1.978 15.021 1.498 13.7295 1.498 12.137C1.498 10.456 1.985 9.096 2.959 8.0575C3.9335 7.019 5.2245 6.5 6.8315 6.5C8.349 6.5 9.5765 6.9975 10.5135 7.991C11.4505 8.985 11.919 10.295 11.919 11.922C11.919 13.593 11.4335 14.9405 10.462 15.964C9.49 16.988 8.2235 17.5 6.6605 17.5ZM6.7645 8.562C5.924 8.562 5.2565 8.8775 4.762 9.5075C4.2675 10.1385 4.0205 10.973 4.0205 12.0115C4.0205 13.0645 4.2675 13.898 4.762 14.511C5.2565 15.1245 5.904 15.4305 6.7055 15.4305C7.531 15.4305 8.1865 15.1325 8.6715 14.5365C9.156 13.941 9.3975 13.1135 9.3975 12.056C9.3975 10.953 9.1625 10.0955 8.693 9.482C8.2235 8.869 7.5805 8.562 6.7645 8.562Z" fill="url(#paint0_linear_206_7748)"/>
<path id="Vector_2" d="M21.4965 17.314H19.78C19.605 17.314 19.441 17.2265 19.3435 17.081L16.08 12.6325V16.788C16.08 17.0785 15.8445 17.3135 15.5545 17.3135H14.2105C13.92 17.3135 13.685 17.078 13.685 16.788V7.20299C13.685 6.91249 13.9205 6.67749 14.2105 6.67749H15.5545C15.845 6.67749 16.08 6.91299 16.08 7.20299V11.1805L19.1955 6.91299C19.293 6.76599 19.4575 6.67749 19.634 6.67749H21.172C21.602 6.67749 21.8505 7.16599 21.5965 7.51349L18.499 11.751L21.9225 16.48C22.174 16.828 21.926 17.314 21.4965 17.314Z" fill="url(#paint1_linear_206_7748)"/>
</g>
<defs>
<linearGradient id="paint0_linear_206_7748" x1="6.7085" y1="6.47693" x2="6.7085" y2="17.4603" gradientUnits="userSpaceOnUse">
<stop stop-color="#2AA4F4"/>
<stop offset="1" stop-color="#007AD9"/>
</linearGradient>
<linearGradient id="paint1_linear_206_7748" x1="17.8541" y1="6.65518" x2="17.8541" y2="17.2756" gradientUnits="userSpaceOnUse">
<stop stop-color="#2AA4F4"/>
<stop offset="1" stop-color="#007AD9"/>
</linearGradient>
</defs>
</svg>
