<svg width="24" height="24" viewBox="0 0 24 24" fill="none" xmlns="http://www.w3.org/2000/svg">
<g id="one-time-password">
<path id="Vector" d="M18 4.5H6V21.5C6 22.0525 6.4475 22.5 7 22.5H17C17.5525 22.5 18 22.0525 18 21.5V4.5Z" fill="url(#paint0_linear_206_7763)"/>
<path id="Vector_2" d="M18 4.5H6V3C6 2.4475 6.4475 2 7 2H17C17.5525 2 18 2.4475 18 3V4.5Z" fill="url(#paint1_linear_206_7763)"/>
<path id="Vector_3" d="M10 3.625C10.2071 3.625 10.375 3.45711 10.375 3.25C10.375 3.04289 10.2071 2.875 10 2.875C9.79289 2.875 9.625 3.04289 9.625 3.25C9.625 3.45711 9.79289 3.625 10 3.625Z" fill="#0C63AD"/>
<path id="Vector_4" d="M13.75 2.875C13.653 2.875 11.347 2.875 11.25 2.875C11.043 2.875 10.875 3.043 10.875 3.25C10.875 3.457 11.043 3.625 11.25 3.625C11.347 3.625 13.653 3.625 13.75 3.625C13.957 3.625 14.125 3.457 14.125 3.25C14.125 3.043 13.957 2.875 13.75 2.875Z" fill="#0C63AD"/>
<path id="Vector_5" opacity="0.05" d="M13.5 10V13.5C13.5 14.325 12.825 15 12 15H6V8.5H12C12.825 8.5 13.5 9.175 13.5 10Z" fill="black"/>
<path id="Vector_6" opacity="0.07" d="M13.25 10V13.5C13.25 14.19 12.69 14.75 12 14.75H6V8.75H12C12.69 8.75 13.25 9.31 13.25 10Z" fill="black"/>
<path id="Vector_7" d="M12 14.5H1.5C0.9485 14.5 0.5 14.0515 0.5 13.5V10C0.5 9.4485 0.9485 9 1.5 9H12C12.5515 9 13 9.4485 13 10V13.5C13 14.0515 12.5515 14.5 12 14.5Z" fill="url(#paint2_linear_206_7763)"/>
<path id="Vector_8" d="M12 10H1.5V13.5H12V10Z" fill="url(#paint3_linear_206_7763)"/>
<path id="Vector_9" d="M3.75 12.5C4.16421 12.5 4.5 12.1642 4.5 11.75C4.5 11.3358 4.16421 11 3.75 11C3.33579 11 3 11.3358 3 11.75C3 12.1642 3.33579 12.5 3.75 12.5Z" fill="#0B5AA4"/>
<path id="Vector_10" d="M6.75 12.5C7.16421 12.5 7.5 12.1642 7.5 11.75C7.5 11.3358 7.16421 11 6.75 11C6.33579 11 6 11.3358 6 11.75C6 12.1642 6.33579 12.5 6.75 12.5Z" fill="#0B5AA4"/>
<path id="Vector_11" d="M9.75 12.5C10.1642 12.5 10.5 12.1642 10.5 11.75C10.5 11.3358 10.1642 11 9.75 11C9.33579 11 9 11.3358 9 11.75C9 12.1642 9.33579 12.5 9.75 12.5Z" fill="#0B5AA4"/>
</g>
<defs>
<linearGradient id="paint0_linear_206_7763" x1="7.318" y1="4.3195" x2="19.7425" y2="27.6865" gradientUnits="userSpaceOnUse">
<stop stop-color="#32BDEF"/>
<stop offset="1" stop-color="#1EA2E4"/>
</linearGradient>
<linearGradient id="paint1_linear_206_7763" x1="9.78343" y1="2.03838" x2="10.1065" y2="5.02817" gradientUnits="userSpaceOnUse">
<stop stop-color="#7DD8F3"/>
<stop offset="1" stop-color="#45B0D0"/>
</linearGradient>
<linearGradient id="paint2_linear_206_7763" x1="5.0385" y1="8.531" x2="9.251" y2="16.4535" gradientUnits="userSpaceOnUse">
<stop stop-color="#0077D2"/>
<stop offset="1" stop-color="#0B59A2"/>
</linearGradient>
<linearGradient id="paint3_linear_206_7763" x1="5.8445" y1="9.8935" x2="9.2415" y2="16.858" gradientUnits="userSpaceOnUse">
<stop stop-color="#FCFCFC"/>
<stop offset="0.495" stop-color="#F4F4F4"/>
<stop offset="0.869" stop-color="#E8E8E8"/>
<stop offset="1" stop-color="#E8E8E8"/>
</linearGradient>
</defs>
</svg>
