<svg width="24" height="24" viewBox="0 0 24 24" fill="none" xmlns="http://www.w3.org/2000/svg">
<g id="online-payment-with-a-credit-card">
<path id="Vector" d="M20.5 17.5H3.5C2.9475 17.5 2.5 17.0525 2.5 16.5V4.5C2.5 3.9475 2.9475 3.5 3.5 3.5H20.5C21.0525 3.5 21.5 3.9475 21.5 4.5V16.5C21.5 17.0525 21.0525 17.5 20.5 17.5Z" fill="url(#paint0_linear_206_7801)"/>
<path id="Vector_2" d="M20.5 4.5H3.5V16.5H20.5V4.5Z" fill="url(#paint1_linear_206_7801)"/>
<path id="Vector_3" d="M14 17.5H10V19.5H14V17.5Z" fill="url(#paint2_linear_206_7801)"/>
<path id="Vector_4" d="M16.5 19H7.5C7.224 19 7 19.224 7 19.5V20.5C7 20.776 7.224 21 7.5 21H16.5C16.776 21 17 20.776 17 20.5V19.5C17 19.224 16.776 19 16.5 19Z" fill="url(#paint3_linear_206_7801)"/>
<path id="Vector_5" d="M17.5 10.5H6.5C6.224 10.5 6 10.724 6 11C6 11.276 6.224 11.5 6.5 11.5H17.5C17.776 11.5 18 11.276 18 11C18 10.724 17.776 10.5 17.5 10.5Z" fill="#121212"/>
<path id="Vector_6" d="M8 2.219V10.5H16V2.219C16 1.822 15.678 1.5 15.281 1.5H8.719C8.322 1.5 8 1.822 8 2.219Z" fill="url(#paint4_linear_206_7801)"/>
<path id="Vector_7" d="M16 10.5H8V11.5H16V10.5Z" fill="url(#paint5_linear_206_7801)"/>
<path id="Vector_8" d="M10 10.5V1.5H9V10.5H10Z" fill="url(#paint6_linear_206_7801)"/>
<path id="Vector_9" d="M12 2.75V10.5H11V2.75C11 2.612 11.112 2.5 11.25 2.5H11.75C11.888 2.5 12 2.612 12 2.75Z" fill="#A8E7FF"/>
<path id="Vector_10" d="M10 10.5H9V11.5H10V10.5Z" fill="#2D3033"/>
<path id="Vector_11" d="M12 10.5H11V11.5H12V10.5Z" fill="#76CCED"/>
</g>
<defs>
<linearGradient id="paint0_linear_206_7801" x1="4.3315" y1="4.0295" x2="19.061" y2="16.4575" gradientUnits="userSpaceOnUse">
<stop stop-color="#A1AAB3"/>
<stop offset="1" stop-color="#8F979E"/>
</linearGradient>
<linearGradient id="paint1_linear_206_7801" x1="11.0475" y1="4.551" x2="12.952" y2="16.446" gradientUnits="userSpaceOnUse">
<stop stop-color="#0D61A9"/>
<stop offset="1" stop-color="#16528C"/>
</linearGradient>
<linearGradient id="paint2_linear_206_7801" x1="12" y1="17.496" x2="12" y2="19.504" gradientUnits="userSpaceOnUse">
<stop stop-color="#484B4F"/>
<stop offset="0.23" stop-color="#656D75"/>
<stop offset="0.367" stop-color="#727D86"/>
</linearGradient>
<linearGradient id="paint3_linear_206_7801" x1="12" y1="18.996" x2="12" y2="21.004" gradientUnits="userSpaceOnUse">
<stop stop-color="#A1AAB3"/>
<stop offset="1" stop-color="#8F979E"/>
</linearGradient>
<linearGradient id="paint4_linear_206_7801" x1="10.9228" y1="1.89232" x2="12.8716" y2="11.4179" gradientUnits="userSpaceOnUse">
<stop stop-color="#32BDEF"/>
<stop offset="1" stop-color="#1EA2E4"/>
</linearGradient>
<linearGradient id="paint5_linear_206_7801" x1="9.77233" y1="10.351" x2="9.89549" y2="11.7974" gradientUnits="userSpaceOnUse">
<stop stop-color="#FCFCFC"/>
<stop offset="0.95" stop-color="#C3C9CD"/>
</linearGradient>
<linearGradient id="paint6_linear_206_7801" x1="9.5" y1="10.5" x2="9.5" y2="1.5" gradientUnits="userSpaceOnUse">
<stop stop-color="#45494D"/>
<stop offset="1" stop-color="#6D7479"/>
</linearGradient>
</defs>
</svg>
