<svg width="24" height="24" viewBox="0 0 24 24" fill="none" xmlns="http://www.w3.org/2000/svg">
<g id="online-store">
<path id="Vector" d="M21.5 4V6H2.5V4C2.5 3.45 2.95 3 3.5 3H20.5C21.05 3 21.5 3.45 21.5 4Z" fill="url(#paint0_linear_206_7813)"/>
<path id="Vector_2" d="M18 5C18.2761 5 18.5 4.77614 18.5 4.5C18.5 4.22386 18.2761 4 18 4C17.7239 4 17.5 4.22386 17.5 4.5C17.5 4.77614 17.7239 5 18 5Z" fill="url(#paint1_linear_206_7813)"/>
<path id="Vector_3" d="M20 5C20.2761 5 20.5 4.77614 20.5 4.5C20.5 4.22386 20.2761 4 20 4C19.7239 4 19.5 4.22386 19.5 4.5C19.5 4.77614 19.7239 5 20 5Z" fill="url(#paint2_linear_206_7813)"/>
<path id="Vector_4" d="M2.5 9.5H21.5V19.5H2.5V9.5Z" fill="url(#paint3_linear_206_7813)"/>
<path id="Vector_5" d="M2.5 19.5H21.5V20C21.5 20.5525 21.0525 21 20.5 21H3.5C2.9475 21 2.5 20.5525 2.5 20V19.5Z" fill="#0A85D9"/>
<path id="Vector_6" d="M21 9H3L1.5 10.5V11C1.5 11.5525 1.9475 12 2.5 12H21.5C22.0525 12 22.5 11.5525 22.5 11V10.5L21 9Z" fill="url(#paint4_linear_206_7813)"/>
<path id="Vector_7" d="M21.5 6H2.5L1.5 10.5H22.5L21.5 6Z" fill="url(#paint5_linear_206_7813)"/>
<path id="Vector_8" d="M10.5 19.5H5.5V13.5H10.5V19.5Z" fill="url(#paint6_linear_206_7813)"/>
<path id="Vector_9" d="M18.5 18H12.5V13.5H18.5V18Z" fill="url(#paint7_linear_206_7813)"/>
</g>
<defs>
<linearGradient id="paint0_linear_206_7813" x1="6.70929" y1="2.55308" x2="7.17401" y2="6.87364" gradientUnits="userSpaceOnUse">
<stop stop-color="#FCFCFC"/>
<stop offset="0.95" stop-color="#C3C9CD"/>
</linearGradient>
<linearGradient id="paint1_linear_206_7813" x1="18" y1="3.9979" x2="18" y2="4.99639" gradientUnits="userSpaceOnUse">
<stop stop-color="#2AA4F4"/>
<stop offset="1" stop-color="#007AD9"/>
</linearGradient>
<linearGradient id="paint2_linear_206_7813" x1="20" y1="3.9979" x2="20" y2="4.99639" gradientUnits="userSpaceOnUse">
<stop stop-color="#2AA4F4"/>
<stop offset="1" stop-color="#007AD9"/>
</linearGradient>
<linearGradient id="paint3_linear_206_7813" x1="8.49043" y1="9.65353" x2="11.5641" y2="20.9133" gradientUnits="userSpaceOnUse">
<stop stop-color="#7DD8F3"/>
<stop offset="1" stop-color="#45B0D0"/>
</linearGradient>
<linearGradient id="paint4_linear_206_7813" x1="6.15237" y1="8.55308" x2="6.57371" y2="12.8826" gradientUnits="userSpaceOnUse">
<stop stop-color="#FCFCFC"/>
<stop offset="0.95" stop-color="#C3C9CD"/>
</linearGradient>
<linearGradient id="paint5_linear_206_7813" x1="12" y1="5.99056" x2="12" y2="10.4838" gradientUnits="userSpaceOnUse">
<stop stop-color="#2AA4F4"/>
<stop offset="1" stop-color="#007AD9"/>
</linearGradient>
<linearGradient id="paint6_linear_206_7813" x1="8" y1="13.4874" x2="8" y2="19.4783" gradientUnits="userSpaceOnUse">
<stop stop-color="#2AA4F4"/>
<stop offset="1" stop-color="#007AD9"/>
</linearGradient>
<linearGradient id="paint7_linear_206_7813" x1="15.5" y1="13.4906" x2="15.5" y2="17.9838" gradientUnits="userSpaceOnUse">
<stop stop-color="#2AA4F4"/>
<stop offset="1" stop-color="#007AD9"/>
</linearGradient>
</defs>
</svg>
