<svg width="24" height="24" viewBox="0 0 24 24" fill="none" xmlns="http://www.w3.org/2000/svg">
<g id="open-view">
<path id="Vector" d="M2 19V7.5H22V19C22 19.55 21.55 20 21 20H3C2.45 20 2 19.55 2 19Z" fill="url(#paint0_linear_206_7827)"/>
<path id="Vector_2" d="M22 5V7.5H2V5C2 4.45 2.45 4 3 4H21C21.55 4 22 4.45 22 5Z" fill="url(#paint1_linear_206_7827)"/>
<path id="Vector_3" d="M19.25 11H7.75C7.612 11 7.5 10.888 7.5 10.75V10.25C7.5 10.112 7.612 10 7.75 10H19.25C19.388 10 19.5 10.112 19.5 10.25V10.75C19.5 10.888 19.388 11 19.25 11Z" fill="url(#paint2_linear_206_7827)"/>
<path id="Vector_4" d="M19.25 13H7.75C7.612 13 7.5 12.888 7.5 12.75V12.25C7.5 12.112 7.612 12 7.75 12H19.25C19.388 12 19.5 12.112 19.5 12.25V12.75C19.5 12.888 19.388 13 19.25 13Z" fill="url(#paint3_linear_206_7827)"/>
<path id="Vector_5" d="M19.25 15H7.75C7.612 15 7.5 14.888 7.5 14.75V14.25C7.5 14.112 7.612 14 7.75 14H19.25C19.388 14 19.5 14.112 19.5 14.25V14.75C19.5 14.888 19.388 15 19.25 15Z" fill="url(#paint4_linear_206_7827)"/>
<path id="Vector_6" d="M19.5 17H7.75C7.612 17 7.5 16.888 7.5 16.75V16.25C7.5 16.112 7.612 16 7.75 16H19.5V17Z" fill="url(#paint5_linear_206_7827)"/>
<path id="Vector_7" d="M4.75 11H5.25C5.388 11 5.5 10.888 5.5 10.75V10.25C5.5 10.112 5.388 10 5.25 10H4.75C4.612 10 4.5 10.112 4.5 10.25V10.75C4.5 10.888 4.612 11 4.75 11Z" fill="url(#paint6_linear_206_7827)"/>
<path id="Vector_8" d="M4.75 13H5.25C5.388 13 5.5 12.888 5.5 12.75V12.25C5.5 12.112 5.388 12 5.25 12H4.75C4.612 12 4.5 12.112 4.5 12.25V12.75C4.5 12.888 4.612 13 4.75 13Z" fill="url(#paint7_linear_206_7827)"/>
<path id="Vector_9" d="M4.75 15H5.25C5.388 15 5.5 14.888 5.5 14.75V14.25C5.5 14.112 5.388 14 5.25 14H4.75C4.612 14 4.5 14.112 4.5 14.25V14.75C4.5 14.888 4.612 15 4.75 15Z" fill="url(#paint8_linear_206_7827)"/>
<path id="Vector_10" d="M4.75 17H5.25C5.388 17 5.5 16.888 5.5 16.75V16.25C5.5 16.112 5.388 16 5.25 16H4.75C4.612 16 4.5 16.112 4.5 16.25V16.75C4.5 16.888 4.612 17 4.75 17Z" fill="url(#paint9_linear_206_7827)"/>
<path id="Vector_11" opacity="0.05" d="M22 19H21V16.5C21 15.9485 20.5515 15.5 20 15.5H19C18.4485 15.5 18 15.9485 18 16.5V19H16.8035C16.4775 19 16.1865 19.1945 16.0615 19.496C15.9935 19.6605 15.988 19.836 16.03 20H21C21.55 20 22 19.55 22 19Z" fill="black"/>
<path id="Vector_12" opacity="0.07" d="M21.964 19.25H20.75V16.5C20.75 16.0865 20.4135 15.75 20 15.75H19C18.5865 15.75 18.25 16.0865 18.25 16.5V19.25H16.8035C16.579 19.25 16.3785 19.384 16.2925 19.5915C16.237 19.726 16.2425 19.8705 16.293 20H21C21.463 20 21.852 19.6795 21.964 19.25Z" fill="black"/>
<path id="Vector_13" d="M22.1965 19.5H20.5V16.5C20.5 16.224 20.276 16 20 16H19C18.724 16 18.5 16.224 18.5 16.5V19.5H16.8035C16.5335 19.5 16.3985 19.8265 16.5895 20.017L19.0715 22.499C19.308 22.7355 19.692 22.7355 19.9285 22.499L22.4105 20.017C22.6015 19.8265 22.4665 19.5 22.1965 19.5Z" fill="url(#paint10_linear_206_7827)"/>
</g>
<defs>
<linearGradient id="paint0_linear_206_7827" x1="6.74" y1="5.7965" x2="15.817" y2="18.9265" gradientUnits="userSpaceOnUse">
<stop stop-color="#7DD8F3"/>
<stop offset="1" stop-color="#45B0D0"/>
</linearGradient>
<linearGradient id="paint1_linear_206_7827" x1="2.307" y1="3.8705" x2="21.468" y2="7.7665" gradientUnits="userSpaceOnUse">
<stop stop-color="#0077D2"/>
<stop offset="1" stop-color="#0B59A2"/>
</linearGradient>
<linearGradient id="paint2_linear_206_7827" x1="13.5" y1="10" x2="13.5" y2="11" gradientUnits="userSpaceOnUse">
<stop offset="0.0260417" stop-color="#057093" stop-opacity="0.53"/>
<stop offset="0.494792" stop-color="#057093" stop-opacity="0.756203"/>
<stop offset="0.9375" stop-color="#057093" stop-opacity="0.756203"/>
<stop offset="1" stop-color="#057093"/>
</linearGradient>
<linearGradient id="paint3_linear_206_7827" x1="13.5" y1="12" x2="13.5" y2="13" gradientUnits="userSpaceOnUse">
<stop offset="0.0260417" stop-color="#057093" stop-opacity="0.53"/>
<stop offset="0.494792" stop-color="#057093" stop-opacity="0.756203"/>
<stop offset="0.9375" stop-color="#057093" stop-opacity="0.756203"/>
<stop offset="1" stop-color="#057093"/>
</linearGradient>
<linearGradient id="paint4_linear_206_7827" x1="13.5" y1="14" x2="13.5" y2="15" gradientUnits="userSpaceOnUse">
<stop offset="0.0260417" stop-color="#057093" stop-opacity="0.53"/>
<stop offset="0.494792" stop-color="#057093" stop-opacity="0.756203"/>
<stop offset="0.9375" stop-color="#057093" stop-opacity="0.756203"/>
<stop offset="1" stop-color="#057093"/>
</linearGradient>
<linearGradient id="paint5_linear_206_7827" x1="13.5" y1="16" x2="13.5" y2="17" gradientUnits="userSpaceOnUse">
<stop offset="0.0260417" stop-color="#057093" stop-opacity="0.53"/>
<stop offset="0.494792" stop-color="#057093" stop-opacity="0.756203"/>
<stop offset="0.9375" stop-color="#057093" stop-opacity="0.756203"/>
<stop offset="1" stop-color="#057093"/>
</linearGradient>
<linearGradient id="paint6_linear_206_7827" x1="5" y1="10" x2="5" y2="11" gradientUnits="userSpaceOnUse">
<stop offset="0.0260417" stop-color="#057093" stop-opacity="0.53"/>
<stop offset="0.494792" stop-color="#057093" stop-opacity="0.756203"/>
<stop offset="0.9375" stop-color="#057093" stop-opacity="0.756203"/>
<stop offset="1" stop-color="#057093"/>
</linearGradient>
<linearGradient id="paint7_linear_206_7827" x1="5" y1="12" x2="5" y2="13" gradientUnits="userSpaceOnUse">
<stop offset="0.0260417" stop-color="#057093" stop-opacity="0.53"/>
<stop offset="0.494792" stop-color="#057093" stop-opacity="0.756203"/>
<stop offset="0.9375" stop-color="#057093" stop-opacity="0.756203"/>
<stop offset="1" stop-color="#057093"/>
</linearGradient>
<linearGradient id="paint8_linear_206_7827" x1="5" y1="14" x2="5" y2="15" gradientUnits="userSpaceOnUse">
<stop offset="0.0260417" stop-color="#057093" stop-opacity="0.53"/>
<stop offset="0.494792" stop-color="#057093" stop-opacity="0.756203"/>
<stop offset="0.9375" stop-color="#057093" stop-opacity="0.756203"/>
<stop offset="1" stop-color="#057093"/>
</linearGradient>
<linearGradient id="paint9_linear_206_7827" x1="5" y1="16" x2="5" y2="17" gradientUnits="userSpaceOnUse">
<stop offset="0.0260417" stop-color="#057093" stop-opacity="0.53"/>
<stop offset="0.494792" stop-color="#057093" stop-opacity="0.756203"/>
<stop offset="0.9375" stop-color="#057093" stop-opacity="0.756203"/>
<stop offset="1" stop-color="#057093"/>
</linearGradient>
<linearGradient id="paint10_linear_206_7827" x1="16.5" y1="19.3382" x2="22.5" y2="19.3382" gradientUnits="userSpaceOnUse">
<stop stop-color="#FFD869"/>
<stop offset="0.765625" stop-color="#F2C032"/>
<stop offset="1" stop-color="#FFD869"/>
</linearGradient>
</defs>
</svg>
