<svg width="24" height="24" viewBox="0 0 24 24" fill="none" xmlns="http://www.w3.org/2000/svg">
<g id="overview">
<path id="Vector" d="M19.5 20.5C19.5 21.0525 19.0525 21.5 18.5 21.5H5.5C4.9475 21.5 4.5 21.0525 4.5 20.5V3.5C4.5 2.9475 4.9475 2.5 5.5 2.5H18.5C19.0525 2.5 19.5 2.9475 19.5 3.5V20.5Z" fill="url(#paint0_linear_206_7867)"/>
<path id="Vector_2" d="M14.75 12H7.25C7.112 12 7 11.888 7 11.75V11.25C7 11.112 7.112 11 7.25 11H14.75C14.888 11 15 11.112 15 11.25V11.75C15 11.888 14.888 12 14.75 12Z" fill="url(#paint1_linear_206_7867)"/>
<path id="Vector_3" d="M16.75 8H7.25C7.112 8 7 7.888 7 7.75V6.25C7 6.112 7.112 6 7.25 6H16.75C16.888 6 17 6.112 17 6.25V7.75C17 7.888 16.888 8 16.75 8Z" fill="url(#paint2_linear_206_7867)"/>
<path id="Vector_4" d="M16.75 12H16.25C16.112 12 16 11.888 16 11.75V11.25C16 11.112 16.112 11 16.25 11H16.75C16.888 11 17 11.112 17 11.25V11.75C17 11.888 16.888 12 16.75 12Z" fill="url(#paint3_linear_206_7867)"/>
<path id="Vector_5" d="M13.75 14H7.25C7.112 14 7 13.888 7 13.75V13.25C7 13.112 7.112 13 7.25 13H13.75C13.888 13 14 13.112 14 13.25V13.75C14 13.888 13.888 14 13.75 14Z" fill="url(#paint4_linear_206_7867)"/>
<path id="Vector_6" d="M16.75 14H16.25C16.112 14 16 13.888 16 13.75V13.25C16 13.112 16.112 13 16.25 13H16.75C16.888 13 17 13.112 17 13.25V13.75C17 13.888 16.888 14 16.75 14Z" fill="url(#paint5_linear_206_7867)"/>
<path id="Vector_7" d="M14.75 16H7.25C7.112 16 7 15.888 7 15.75V15.25C7 15.112 7.112 15 7.25 15H14.75C14.888 15 15 15.112 15 15.25V15.75C15 15.888 14.888 16 14.75 16Z" fill="url(#paint6_linear_206_7867)"/>
<path id="Vector_8" d="M16.75 16H16.25C16.112 16 16 15.888 16 15.75V15.25C16 15.112 16.112 15 16.25 15H16.75C16.888 15 17 15.112 17 15.25V15.75C17 15.888 16.888 16 16.75 16Z" fill="url(#paint7_linear_206_7867)"/>
<path id="Vector_9" d="M13.75 18H7.25C7.112 18 7 17.888 7 17.75V17.25C7 17.112 7.112 17 7.25 17H13.75C13.888 17 14 17.112 14 17.25V17.75C14 17.888 13.888 18 13.75 18Z" fill="url(#paint8_linear_206_7867)"/>
<path id="Vector_10" d="M16.75 18H16.25C16.112 18 16 17.888 16 17.75V17.25C16 17.112 16.112 17 16.25 17H16.75C16.888 17 17 17.112 17 17.25V17.75C17 17.888 16.888 18 16.75 18Z" fill="url(#paint9_linear_206_7867)"/>
</g>
<defs>
<linearGradient id="paint0_linear_206_7867" x1="9.22929" y1="2.79171" x2="19.7783" y2="18.8491" gradientUnits="userSpaceOnUse">
<stop stop-color="#7DD8F3"/>
<stop offset="1" stop-color="#45B0D0"/>
</linearGradient>
<linearGradient id="paint1_linear_206_7867" x1="11" y1="11" x2="11" y2="12" gradientUnits="userSpaceOnUse">
<stop offset="0.0260417" stop-color="#057093" stop-opacity="0.53"/>
<stop offset="0.494792" stop-color="#057093" stop-opacity="0.756203"/>
<stop offset="0.9375" stop-color="#057093" stop-opacity="0.756203"/>
<stop offset="1" stop-color="#057093"/>
</linearGradient>
<linearGradient id="paint2_linear_206_7867" x1="12" y1="6" x2="12" y2="8" gradientUnits="userSpaceOnUse">
<stop offset="0.0260417" stop-color="#057093" stop-opacity="0.53"/>
<stop offset="0.494792" stop-color="#057093" stop-opacity="0.756203"/>
<stop offset="0.9375" stop-color="#057093" stop-opacity="0.756203"/>
<stop offset="1" stop-color="#057093"/>
</linearGradient>
<linearGradient id="paint3_linear_206_7867" x1="16.5" y1="11" x2="16.5" y2="12" gradientUnits="userSpaceOnUse">
<stop offset="0.0260417" stop-color="#057093" stop-opacity="0.53"/>
<stop offset="0.494792" stop-color="#057093" stop-opacity="0.756203"/>
<stop offset="0.9375" stop-color="#057093" stop-opacity="0.756203"/>
<stop offset="1" stop-color="#057093"/>
</linearGradient>
<linearGradient id="paint4_linear_206_7867" x1="10.5" y1="13" x2="10.5" y2="14" gradientUnits="userSpaceOnUse">
<stop offset="0.0260417" stop-color="#057093" stop-opacity="0.53"/>
<stop offset="0.494792" stop-color="#057093" stop-opacity="0.756203"/>
<stop offset="0.9375" stop-color="#057093" stop-opacity="0.756203"/>
<stop offset="1" stop-color="#057093"/>
</linearGradient>
<linearGradient id="paint5_linear_206_7867" x1="16.5" y1="13" x2="16.5" y2="14" gradientUnits="userSpaceOnUse">
<stop offset="0.0260417" stop-color="#057093" stop-opacity="0.53"/>
<stop offset="0.494792" stop-color="#057093" stop-opacity="0.756203"/>
<stop offset="0.9375" stop-color="#057093" stop-opacity="0.756203"/>
<stop offset="1" stop-color="#057093"/>
</linearGradient>
<linearGradient id="paint6_linear_206_7867" x1="11" y1="15" x2="11" y2="16" gradientUnits="userSpaceOnUse">
<stop offset="0.0260417" stop-color="#057093" stop-opacity="0.53"/>
<stop offset="0.494792" stop-color="#057093" stop-opacity="0.756203"/>
<stop offset="0.9375" stop-color="#057093" stop-opacity="0.756203"/>
<stop offset="1" stop-color="#057093"/>
</linearGradient>
<linearGradient id="paint7_linear_206_7867" x1="16.5" y1="15" x2="16.5" y2="16" gradientUnits="userSpaceOnUse">
<stop offset="0.0260417" stop-color="#057093" stop-opacity="0.53"/>
<stop offset="0.494792" stop-color="#057093" stop-opacity="0.756203"/>
<stop offset="0.9375" stop-color="#057093" stop-opacity="0.756203"/>
<stop offset="1" stop-color="#057093"/>
</linearGradient>
<linearGradient id="paint8_linear_206_7867" x1="10.5" y1="17" x2="10.5" y2="18" gradientUnits="userSpaceOnUse">
<stop offset="0.0260417" stop-color="#057093" stop-opacity="0.53"/>
<stop offset="0.494792" stop-color="#057093" stop-opacity="0.756203"/>
<stop offset="0.9375" stop-color="#057093" stop-opacity="0.756203"/>
<stop offset="1" stop-color="#057093"/>
</linearGradient>
<linearGradient id="paint9_linear_206_7867" x1="16.5" y1="17" x2="16.5" y2="18" gradientUnits="userSpaceOnUse">
<stop offset="0.0260417" stop-color="#057093" stop-opacity="0.53"/>
<stop offset="0.494792" stop-color="#057093" stop-opacity="0.756203"/>
<stop offset="0.9375" stop-color="#057093" stop-opacity="0.756203"/>
<stop offset="1" stop-color="#057093"/>
</linearGradient>
</defs>
</svg>
