<svg width="50" height="50" viewBox="0 0 50 50" fill="none" xmlns="http://www.w3.org/2000/svg">
<path d="M40.625 46.4C40.625 46.8229 41.1365 47.0344 41.4344 46.7344L45.3396 42.8083C45.6802 42.4646 45.6802 41.9104 45.3396 41.5677L41.4344 37.6417C41.1365 37.3406 40.625 37.5521 40.625 37.975V46.4Z" fill="url(#paint0_linear_84_3273)"/>
<path d="M9.13646 37.975C9.13646 37.5521 8.62501 37.3406 8.32709 37.6406L4.42188 41.5667C4.08126 41.9104 4.08126 42.4646 4.42188 42.8073L8.32709 46.7333C8.62501 47.0344 9.13646 46.8229 9.13646 46.4V37.975Z" fill="url(#paint1_linear_84_3273)"/>
<path d="M13.5417 17.7083C16.4182 17.7083 18.75 15.3765 18.75 12.5C18.75 9.62351 16.4182 7.29166 13.5417 7.29166C10.6652 7.29166 8.33334 9.62351 8.33334 12.5C8.33334 15.3765 10.6652 17.7083 13.5417 17.7083Z" fill="url(#paint2_linear_84_3273)"/>
<path d="M13.5417 19.7917C8.36353 19.7917 4.16666 23.9885 4.16666 29.1667V32.2917C4.16666 33.4427 5.09895 34.375 6.24999 34.375H20.8333C21.9844 34.375 22.9167 33.4427 22.9167 32.2917V29.1667C22.9167 23.9885 18.7198 19.7917 13.5417 19.7917Z" fill="url(#paint3_linear_84_3273)"/>
<path d="M36.4583 17.7083C39.3348 17.7083 41.6667 15.3765 41.6667 12.5C41.6667 9.62351 39.3348 7.29166 36.4583 7.29166C33.5819 7.29166 31.25 9.62351 31.25 12.5C31.25 15.3765 33.5819 17.7083 36.4583 17.7083Z" fill="url(#paint4_linear_84_3273)"/>
<path d="M36.4583 19.7917C31.2802 19.7917 27.0833 23.9885 27.0833 29.1667V32.2917C27.0833 33.4427 28.0156 34.375 29.1667 34.375H43.75C44.9011 34.375 45.8333 33.4427 45.8333 32.2917V29.1667C45.8333 23.9885 41.6365 19.7917 36.4583 19.7917Z" fill="url(#paint5_linear_84_3273)"/>
<path d="M16.1458 43.75H7.81249C7.52499 43.75 7.29166 43.5167 7.29166 43.2292V41.1458C7.29166 40.8583 7.52499 40.625 7.81249 40.625H16.1458C16.4333 40.625 16.6667 40.8583 16.6667 41.1458V43.2292C16.6667 43.5167 16.4333 43.75 16.1458 43.75Z" fill="url(#paint6_linear_84_3273)"/>
<path d="M41.1458 43.75H32.8125C32.525 43.75 32.2917 43.5167 32.2917 43.2292V41.1458C32.2917 40.8583 32.525 40.625 32.8125 40.625H41.1458C41.4333 40.625 41.6667 40.8583 41.6667 41.1458V43.2292C41.6667 43.5167 41.4333 43.75 41.1458 43.75Z" fill="url(#paint7_linear_84_3273)"/>
<path d="M22.3958 43.75H20.3125C20.025 43.75 19.7917 43.5167 19.7917 43.2292V41.1458C19.7917 40.8583 20.025 40.625 20.3125 40.625H22.3958C22.6833 40.625 22.9167 40.8583 22.9167 41.1458V43.2292C22.9167 43.5167 22.6833 43.75 22.3958 43.75Z" fill="url(#paint8_linear_84_3273)"/>
<path d="M28.6458 43.75H26.5625C26.275 43.75 26.0417 43.5167 26.0417 43.2292V41.1458C26.0417 40.8583 26.275 40.625 26.5625 40.625H28.6458C28.9333 40.625 29.1667 40.8583 29.1667 41.1458V43.2292C29.1667 43.5167 28.9333 43.75 28.6458 43.75Z" fill="url(#paint9_linear_84_3273)"/>
<defs>
<linearGradient id="paint0_linear_84_3273" x1="40.625" y1="42.1877" x2="45.5951" y2="42.1877" gradientUnits="userSpaceOnUse">
<stop stop-color="#FFD869"/>
<stop offset="0.765625" stop-color="#F2C032"/>
<stop offset="1" stop-color="#FFD869"/>
</linearGradient>
<linearGradient id="paint1_linear_84_3273" x1="4.16641" y1="42.1873" x2="9.13646" y2="42.1873" gradientUnits="userSpaceOnUse">
<stop stop-color="#FFD869"/>
<stop offset="0.765625" stop-color="#F2C032"/>
<stop offset="1" stop-color="#FFD869"/>
</linearGradient>
<linearGradient id="paint2_linear_84_3273" x1="10.0083" y1="8.96666" x2="17.275" y2="16.2333" gradientUnits="userSpaceOnUse">
<stop stop-color="#0D61A9"/>
<stop offset="1" stop-color="#16528C"/>
</linearGradient>
<linearGradient id="paint3_linear_84_3273" x1="7.15624" y1="22.8344" x2="20.2885" y2="35.9656" gradientUnits="userSpaceOnUse">
<stop stop-color="#0D61A9"/>
<stop offset="1" stop-color="#16528C"/>
</linearGradient>
<linearGradient id="paint4_linear_84_3273" x1="32.925" y1="8.96666" x2="40.1917" y2="16.2333" gradientUnits="userSpaceOnUse">
<stop stop-color="#32BDEF"/>
<stop offset="1" stop-color="#1EA2E4"/>
</linearGradient>
<linearGradient id="paint5_linear_84_3273" x1="30.0729" y1="22.8344" x2="43.2052" y2="35.9656" gradientUnits="userSpaceOnUse">
<stop stop-color="#32BDEF"/>
<stop offset="1" stop-color="#1EA2E4"/>
</linearGradient>
<linearGradient id="paint6_linear_84_3273" x1="7.29166" y1="42.1875" x2="16.6667" y2="42.1875" gradientUnits="userSpaceOnUse">
<stop stop-color="#FFD869"/>
<stop offset="0.765625" stop-color="#F2C032"/>
<stop offset="1" stop-color="#FFD869"/>
</linearGradient>
<linearGradient id="paint7_linear_84_3273" x1="32.2917" y1="42.1875" x2="41.6667" y2="42.1875" gradientUnits="userSpaceOnUse">
<stop stop-color="#FFD869"/>
<stop offset="0.765625" stop-color="#F2C032"/>
<stop offset="1" stop-color="#FFD869"/>
</linearGradient>
<linearGradient id="paint8_linear_84_3273" x1="19.7917" y1="42.1875" x2="22.9167" y2="42.1875" gradientUnits="userSpaceOnUse">
<stop stop-color="#FFD869"/>
<stop offset="0.765625" stop-color="#F2C032"/>
<stop offset="1" stop-color="#FFD869"/>
</linearGradient>
<linearGradient id="paint9_linear_84_3273" x1="26.0417" y1="42.1875" x2="29.1667" y2="42.1875" gradientUnits="userSpaceOnUse">
<stop stop-color="#FFD869"/>
<stop offset="0.765625" stop-color="#F2C032"/>
<stop offset="1" stop-color="#FFD869"/>
</linearGradient>
</defs>
</svg>
