<svg width="24" height="24" viewBox="0 0 24 24" fill="none" xmlns="http://www.w3.org/2000/svg">
<g id="paypal">
<path id="Vector" d="M9.35 6.8835L9.3525 6.8845C9.4045 6.663 9.5935 6.5 9.83 6.5H16.566C16.5745 6.5 16.583 6.4965 16.5915 6.497C16.448 4.1075 14.4435 3 12.675 3H5.939C5.702 3 5.513 3.1675 5.4615 3.3885L5.459 3.3875L2.5145 16.9065L2.521 16.907C2.514 16.939 2.5015 16.9695 2.5015 17.004C2.5015 17.2805 2.725 17.4995 3.0015 17.4995H7.037L9.35 6.8835Z" fill="#0D62AB"/>
<path id="Vector_2" d="M16.5915 6.49701C16.618 6.93501 16.589 7.41151 16.477 7.93801C15.8365 10.9355 13.521 12.4955 10.6595 12.4955C10.6595 12.4955 8.9245 12.4955 8.503 12.4955C8.2425 12.4955 8.1195 12.6485 8.063 12.7655L7.193 16.79L7.0405 17.5045H7.0375L6.406 20.4025L6.4125 20.403C6.4055 20.435 6.393 20.4655 6.393 20.5C6.393 20.7765 6.6165 21 6.893 21H10.5595L10.566 20.995C10.802 20.9915 10.9895 20.823 11.0385 20.601L11.0475 20.5935L11.9535 16.3855C11.9535 16.3855 12.0165 15.984 12.4385 15.984C12.8605 15.984 14.5275 15.984 14.5275 15.984C17.389 15.984 19.728 14.431 20.369 11.433C21.09 8.05301 18.679 6.50951 16.5915 6.49701Z" fill="url(#paint0_linear_206_7904)"/>
<path id="Vector_3" d="M9.83 6.49999C9.593 6.49999 9.404 6.66299 9.3525 6.88449L9.35 6.88349L8.0625 12.766C8.119 12.649 8.242 12.496 8.5025 12.496C8.9245 12.496 10.62 12.496 10.62 12.496C13.4815 12.496 15.836 10.936 16.4765 7.93849C16.589 7.41199 16.6175 6.93549 16.591 6.49749C16.583 6.49649 16.574 6.49999 16.566 6.49999H9.83Z" fill="#006FC4"/>
</g>
<defs>
<linearGradient id="paint0_linear_206_7904" x1="9.51814" y1="4.33645" x2="19.4461" y2="18.5119" gradientUnits="userSpaceOnUse">
<stop stop-color="#FCFCFC"/>
<stop offset="0.95" stop-color="#C3C9CD"/>
</linearGradient>
</defs>
</svg>
