<svg width="24" height="24" viewBox="0 0 24 24" fill="none" xmlns="http://www.w3.org/2000/svg">
<g id="person-female">
<path id="Vector" d="M12 4.5C6.852 4.5 5.575 12.8125 5.575 12.8125C5.575 14.2925 6.2625 15.589 7.7015 15.9325C8.9345 16.227 10.486 16.5 12 16.5C13.514 16.5 15.0655 16.227 16.298 15.933C17.7375 15.5895 18.4245 14.2925 18.4245 12.813C18.425 12.8125 17.148 4.5 12 4.5Z" fill="url(#paint0_radial_206_7941)"/>
<path id="Vector_2" d="M12 15.2855C7.5815 15.2855 4 17.746 4 20.4285V21C4 21.5525 4.4475 22 5 22H19C19.5525 22 20 21.5525 20 21V20.4285C20 17.746 16.4185 15.2855 12 15.2855Z" fill="url(#paint1_linear_206_7941)"/>
<path id="Vector_3" d="M14.5 17C14.5 17.9485 13.5 19 12 19C10.5 19 9.5 17.9485 9.5 17C9.5 15.6815 9.5 13.4825 9.5 13.4825H14.5C14.5 13.4825 14.5 15.6815 14.5 17Z" fill="#D6A121"/>
<path id="Vector_4" d="M12 4.03549C13.974 4.03549 16 4.38199 16 8.89649C16 9.25799 16 11.7645 16 12.1505C16 13.763 13.5505 16 12 16C10.4495 16 8 13.763 8 12.151C8 11.765 8 9.25849 8 8.89699C8 4.49999 10.026 4.03549 12 4.03549Z" fill="url(#paint2_radial_206_7941)"/>
<path id="Vector_5" d="M12 2.5C9.406 2.5 9 4 9 4C7.9455 4.1555 5.5 4.5 5.5 12.739C5.5 14.6395 6.4515 15.3375 6.8 15.5405C5.5 8.3585 10.288 9.518 9.5 5C11.523 10.9065 17.6465 5.027 17.4355 15.367C18.0385 14.9085 18.5 13.9885 18.5 12.739C18.5 5.836 15.6995 2.5 12 2.5Z" fill="url(#paint3_radial_206_7941)"/>
</g>
<defs>
<radialGradient id="paint0_radial_206_7941" cx="0" cy="0" r="1" gradientUnits="userSpaceOnUse" gradientTransform="translate(11.877 10.7025) scale(6.855)">
<stop offset="0.376" stop-color="#261103"/>
<stop offset="0.68" stop-color="#431D06"/>
<stop offset="1" stop-color="#662C09"/>
</radialGradient>
<linearGradient id="paint1_linear_206_7941" x1="10.383" y1="15.004" x2="12.525" y2="22.373" gradientUnits="userSpaceOnUse">
<stop stop-color="#33BEF0"/>
<stop offset="1" stop-color="#0A85D9"/>
</linearGradient>
<radialGradient id="paint2_radial_206_7941" cx="0" cy="0" r="1" gradientUnits="userSpaceOnUse" gradientTransform="translate(12.0093 10.0179) rotate(180) scale(4.89735 5.182)">
<stop stop-color="#FFCF54"/>
<stop offset="0.261" stop-color="#FDCB4D"/>
<stop offset="0.639" stop-color="#F7C13A"/>
<stop offset="1" stop-color="#F0B421"/>
</radialGradient>
<radialGradient id="paint3_radial_206_7941" cx="0" cy="0" r="1" gradientUnits="userSpaceOnUse" gradientTransform="translate(8.442 2.737) scale(16.171)">
<stop stop-color="#C26715"/>
<stop offset="0.508" stop-color="#B85515"/>
<stop offset="1" stop-color="#AD3F16"/>
</radialGradient>
</defs>
</svg>
