<svg width="24" height="24" viewBox="0 0 24 24" fill="none" xmlns="http://www.w3.org/2000/svg">
<g id="pin">
<path id="Vector" d="M4.55 20.75L2.9 21.1L3.25 19.45C3.25 19.35 3.3 19.25 3.4 19.2L9.2 13.4L10.6 14.8L4.8 20.6C4.75 20.65 4.65 20.7 4.55 20.75Z" fill="url(#paint0_linear_206_7976)"/>
<path id="Vector_2" d="M14.6 14.35L9.65 9.39999L17.15 3.54999L20.45 6.84999L14.6 14.35Z" fill="#C94F60"/>
<path id="Vector_3" d="M9.18843 13.386L8.44598 14.1285L9.86022 15.5427L10.6027 14.8002L9.18843 13.386Z" fill="url(#paint1_linear_206_7976)"/>
<path id="Vector_4" d="M14.15 18.35L5.65 9.85L6.7 8.8C7.85 7.65 9.75 7.65 10.95 8.8L15.2 13.05C16.35 14.2 16.35 16.1 15.2 17.3L14.15 18.35Z" fill="#BF2336"/>
<path id="Vector_5" d="M18.95 8.35002L15.65 5.05002C15.25 4.65002 15.25 3.95002 15.65 3.55002L16 3.20002C16.4 2.80002 17.1 2.80002 17.5 3.20002L20.8 6.50002C21.2 6.90002 21.2 7.60002 20.8 8.00002L20.45 8.35002C20.05 8.75002 19.35 8.75002 18.95 8.35002Z" fill="#BF2336"/>
</g>
<defs>
<linearGradient id="paint0_linear_206_7976" x1="5.3277" y1="13.5182" x2="9.13526" y2="20.8595" gradientUnits="userSpaceOnUse">
<stop stop-color="#7DD8F3"/>
<stop offset="1" stop-color="#45B0D0"/>
</linearGradient>
<linearGradient id="paint1_linear_206_7976" x1="8.77888" y1="13.9189" x2="10.6536" y2="14.8289" gradientUnits="userSpaceOnUse">
<stop stop-color="#32BDEF"/>
<stop offset="1" stop-color="#1EA2E4"/>
</linearGradient>
</defs>
</svg>
