<svg width="24" height="24" viewBox="0 0 24 24" fill="none" xmlns="http://www.w3.org/2000/svg">
<g id="planner">
<path id="Vector" d="M3 20V6H21V20C21 20.55 20.55 21 20 21H4C3.45 21 3 20.55 3 20Z" fill="url(#paint0_linear_206_7982)"/>
<path id="Vector_2" d="M21 4V7H3V4C3 3.45 3.45 3 4 3H20C20.55 3 21 3.45 21 4Z" fill="url(#paint1_linear_206_7982)"/>
<path id="Vector_3" opacity="0.05" d="M17.75 6.25C16.9215 6.25 16.25 5.5785 16.25 4.75V3H19.25V4.75C19.25 5.5785 18.5785 6.25 17.75 6.25Z" fill="black"/>
<path id="Vector_4" opacity="0.07" d="M17.75 5.875C17.1285 5.875 16.625 5.3715 16.625 4.75V3H18.875V4.75C18.875 5.3715 18.3715 5.875 17.75 5.875Z" fill="black"/>
<path id="Vector_5" d="M17.75 5.5C17.336 5.5 17 5.164 17 4.75V2.75C17 2.336 17.336 2 17.75 2C18.164 2 18.5 2.336 18.5 2.75V4.75C18.5 5.164 18.164 5.5 17.75 5.5Z" fill="#3CCBF4"/>
<path id="Vector_6" opacity="0.05" d="M6.25 6.25C5.4215 6.25 4.75 5.5785 4.75 4.75V3H7.75V4.75C7.75 5.5785 7.0785 6.25 6.25 6.25Z" fill="black"/>
<path id="Vector_7" opacity="0.07" d="M6.25 5.875C5.6285 5.875 5.125 5.3715 5.125 4.75V3H7.375V4.75C7.375 5.3715 6.8715 5.875 6.25 5.875Z" fill="black"/>
<path id="Vector_8" d="M6.25 5.5C5.836 5.5 5.5 5.164 5.5 4.75V2.75C5.5 2.336 5.836 2 6.25 2C6.664 2 7 2.336 7 2.75V4.75C7 5.164 6.664 5.5 6.25 5.5Z" fill="#3CCBF4"/>
<path id="Vector_9" opacity="0.05" d="M13.5 14.5V17.5C13.5 18.0525 13.9475 18.5 14.5 18.5H17.5C18.0525 18.5 18.5 18.0525 18.5 17.5V14.5C18.5 13.9475 18.0525 13.5 17.5 13.5H14.5C13.9475 13.5 13.5 13.9475 13.5 14.5Z" fill="black"/>
<path id="Vector_10" opacity="0.07" d="M17.5 18.25H14.5C14.086 18.25 13.75 17.914 13.75 17.5V14.5C13.75 14.086 14.086 13.75 14.5 13.75H17.5C17.914 13.75 18.25 14.086 18.25 14.5V17.5C18.25 17.914 17.914 18.25 17.5 18.25Z" fill="black"/>
<path id="Vector_11" d="M18 14.5V17.5C18 17.776 17.776 18 17.5 18H14.5C14.224 18 14 17.776 14 17.5V14.5C14 14.224 14.224 14 14.5 14H17.5C17.776 14 18 14.224 18 14.5Z" fill="white"/>
</g>
<defs>
<linearGradient id="paint0_linear_206_7982" x1="3.207" y1="6.831" x2="20.887" y2="19.744" gradientUnits="userSpaceOnUse">
<stop stop-color="#28AFEA"/>
<stop offset="1" stop-color="#047ED6"/>
</linearGradient>
<linearGradient id="paint1_linear_206_7982" x1="3.21" y1="3.304" x2="20.599" y2="6.84" gradientUnits="userSpaceOnUse">
<stop stop-color="#0077D2"/>
<stop offset="1" stop-color="#0B59A2"/>
</linearGradient>
</defs>
</svg>
