<svg width="24" height="24" viewBox="0 0 24 24" fill="none" xmlns="http://www.w3.org/2000/svg">
<g id="popup">
<path id="Vector" d="M19 2H5C3.8955 2 3 2.8955 3 4V18C3 19.1045 3.8955 20 5 20H8.2755L11.2925 23.017C11.683 23.4075 12.316 23.4075 12.7065 23.017L15.7245 20H19C20.1045 20 21 19.1045 21 18V4C21 2.8955 20.1045 2 19 2Z" fill="url(#paint0_linear_206_8012)"/>
<path id="Vector_2" d="M3 4V4.5H21V4C21 2.8955 20.1045 2 19 2H5C3.8955 2 3 2.8955 3 4Z" fill="url(#paint1_linear_206_8012)"/>
<path id="Vector_3" d="M7.25 8H4.75C4.612 8 4.5 7.888 4.5 7.75V7.25C4.5 7.112 4.612 7 4.75 7H7.25C7.388 7 7.5 7.112 7.5 7.25V7.75C7.5 7.888 7.388 8 7.25 8Z" fill="#057093"/>
<path id="Vector_4" d="M19.25 8H9.25C9.112 8 9 7.888 9 7.75V7.25C9 7.112 9.112 7 9.25 7H19.25C19.388 7 19.5 7.112 19.5 7.25V7.75C19.5 7.888 19.388 8 19.25 8Z" fill="#057093"/>
<path id="Vector_5" d="M7.25 10H4.75C4.612 10 4.5 9.888 4.5 9.75V9.25C4.5 9.112 4.612 9 4.75 9H7.25C7.388 9 7.5 9.112 7.5 9.25V9.75C7.5 9.888 7.388 10 7.25 10Z" fill="#057093"/>
<path id="Vector_6" d="M19.25 10H9.25C9.112 10 9 9.888 9 9.75V9.25C9 9.112 9.112 9 9.25 9H19.25C19.388 9 19.5 9.112 19.5 9.25V9.75C19.5 9.888 19.388 10 19.25 10Z" fill="#057093"/>
<path id="Vector_7" d="M7.25 12H4.75C4.612 12 4.5 11.888 4.5 11.75V11.25C4.5 11.112 4.612 11 4.75 11H7.25C7.388 11 7.5 11.112 7.5 11.25V11.75C7.5 11.888 7.388 12 7.25 12Z" fill="#057093"/>
<path id="Vector_8" d="M19.25 12H9.25C9.112 12 9 11.888 9 11.75V11.25C9 11.112 9.112 11 9.25 11H19.25C19.388 11 19.5 11.112 19.5 11.25V11.75C19.5 11.888 19.388 12 19.25 12Z" fill="#057093"/>
<path id="Vector_9" d="M7.25 14H4.75C4.612 14 4.5 13.888 4.5 13.75V13.25C4.5 13.112 4.612 13 4.75 13H7.25C7.388 13 7.5 13.112 7.5 13.25V13.75C7.5 13.888 7.388 14 7.25 14Z" fill="#057093"/>
<path id="Vector_10" d="M19.25 14H9.25C9.112 14 9 13.888 9 13.75V13.25C9 13.112 9.112 13 9.25 13H19.25C19.388 13 19.5 13.112 19.5 13.25V13.75C19.5 13.888 19.388 14 19.25 14Z" fill="#057093"/>
<path id="Vector_11" d="M7.25 16H4.75C4.612 16 4.5 15.888 4.5 15.75V15.25C4.5 15.112 4.612 15 4.75 15H7.25C7.388 15 7.5 15.112 7.5 15.25V15.75C7.5 15.888 7.388 16 7.25 16Z" fill="#057093"/>
<path id="Vector_12" d="M19.25 16H9.25C9.112 16 9 15.888 9 15.75V15.25C9 15.112 9.112 15 9.25 15H19.25C19.388 15 19.5 15.112 19.5 15.25V15.75C19.5 15.888 19.388 16 19.25 16Z" fill="#057093"/>
</g>
<defs>
<linearGradient id="paint0_linear_206_8012" x1="3.83" y1="2.83" x2="21.7365" y2="20.7365" gradientUnits="userSpaceOnUse">
<stop stop-color="#7DD8F3"/>
<stop offset="1" stop-color="#45B0D0"/>
</linearGradient>
<linearGradient id="paint1_linear_206_8012" x1="3" y1="3.25" x2="21" y2="3.25" gradientUnits="userSpaceOnUse">
<stop stop-color="#0077D2"/>
<stop offset="1" stop-color="#0B59A2"/>
</linearGradient>
</defs>
</svg>
