<svg width="24" height="24" viewBox="0 0 24 24" fill="none" xmlns="http://www.w3.org/2000/svg">
<g id="portrait-mode-scanning">
<path id="Vector" d="M16 5.5H8C7.44772 5.5 7 5.94772 7 6.5V17.5C7 18.0523 7.44772 18.5 8 18.5H16C16.5523 18.5 17 18.0523 17 17.5V6.5C17 5.94772 16.5523 5.5 16 5.5Z" fill="url(#paint0_linear_206_8025)"/>
<path id="Vector_2" d="M7 4.25C7 4.3163 6.97366 4.37989 6.92678 4.42678C6.87989 4.47366 6.8163 4.5 6.75 4.5H4.5V6.75C4.5 6.8163 4.47366 6.87989 4.42678 6.92678C4.37989 6.97366 4.3163 7 4.25 7H3.25C3.1837 7 3.12011 6.97366 3.07322 6.92678C3.02634 6.87989 3 6.8163 3 6.75V3.25C3 3.1837 3.02634 3.12011 3.07322 3.07322C3.12011 3.02634 3.1837 3 3.25 3H6.75C6.8163 3 6.87989 3.02634 6.92678 3.07322C6.97366 3.12011 7 3.1837 7 3.25V4.25ZM17 4.25C17 4.3163 17.0263 4.37989 17.0732 4.42678C17.1201 4.47366 17.1837 4.5 17.25 4.5H19.5V6.75C19.5 6.8163 19.5263 6.87989 19.5732 6.92678C19.6201 6.97366 19.6837 7 19.75 7H20.75C20.8163 7 20.8799 6.97366 20.9268 6.92678C20.9737 6.87989 21 6.8163 21 6.75V3.25C21 3.1837 20.9737 3.12011 20.9268 3.07322C20.8799 3.02634 20.8163 3 20.75 3H17.25C17.1837 3 17.1201 3.02634 17.0732 3.07322C17.0263 3.12011 17 3.1837 17 3.25V4.25ZM7 19.75C7 19.6837 6.97366 19.6201 6.92678 19.5732C6.87989 19.5263 6.8163 19.5 6.75 19.5H4.5V17.25C4.5 17.1837 4.47366 17.1201 4.42678 17.0732C4.37989 17.0263 4.3163 17 4.25 17H3.25C3.1837 17 3.12011 17.0263 3.07322 17.0732C3.02634 17.1201 3 17.1837 3 17.25V20.75C3 20.8163 3.02634 20.8799 3.07322 20.9268C3.12011 20.9737 3.1837 21 3.25 21H6.75C6.8163 21 6.87989 20.9737 6.92678 20.9268C6.97366 20.8799 7 20.8163 7 20.75V19.75ZM17 20.75C17 20.8163 17.0263 20.8799 17.0732 20.9268C17.1201 20.9737 17.1837 21 17.25 21H20.75C20.8163 21 20.8799 20.9737 20.9268 20.9268C20.9737 20.8799 21 20.8163 21 20.75V17.25C21 17.1837 20.9737 17.1201 20.9268 17.0732C20.8799 17.0263 20.8163 17 20.75 17H19.75C19.6837 17 19.6201 17.0263 19.5732 17.0732C19.5263 17.1201 19.5 17.1837 19.5 17.25V19.5H17.25C17.1837 19.5 17.1201 19.5263 17.0732 19.5732C17.0263 19.6201 17 19.6837 17 19.75V20.75Z" fill="url(#paint1_linear_206_8025)"/>
<path id="Vector_3" d="M19 13.5H5C4.72386 13.5 4.5 13.7239 4.5 14C4.5 14.2761 4.72386 14.5 5 14.5H19C19.2761 14.5 19.5 14.2761 19.5 14C19.5 13.7239 19.2761 13.5 19 13.5Z" fill="url(#paint2_linear_206_8025)"/>
<path id="Vector_4" d="M15.25 9.5H8.742C8.60393 9.5 8.492 9.61193 8.492 9.75V10.25C8.492 10.3881 8.60393 10.5 8.742 10.5H15.25C15.3881 10.5 15.5 10.3881 15.5 10.25V9.75C15.5 9.61193 15.3881 9.5 15.25 9.5Z" fill="#057093"/>
<path id="Vector_5" d="M15.25 7.5H8.742C8.60393 7.5 8.492 7.61193 8.492 7.75V8.25C8.492 8.38807 8.60393 8.5 8.742 8.5H15.25C15.3881 8.5 15.5 8.38807 15.5 8.25V7.75C15.5 7.61193 15.3881 7.5 15.25 7.5Z" fill="#057093"/>
<path id="Vector_6" d="M15.25 15.5H8.742C8.60393 15.5 8.492 15.6119 8.492 15.75V16.25C8.492 16.3881 8.60393 16.5 8.742 16.5H15.25C15.3881 16.5 15.5 16.3881 15.5 16.25V15.75C15.5 15.6119 15.3881 15.5 15.25 15.5Z" fill="#057093"/>
<path id="Vector_7" d="M15.25 11.5H8.742C8.60393 11.5 8.492 11.6119 8.492 11.75V12.25C8.492 12.3881 8.60393 12.5 8.742 12.5H15.25C15.3881 12.5 15.5 12.3881 15.5 12.25V11.75C15.5 11.6119 15.3881 11.5 15.25 11.5Z" fill="#057093"/>
</g>
<defs>
<linearGradient id="paint0_linear_206_8025" x1="10.1529" y1="5.69959" x2="17.4434" y2="16.5124" gradientUnits="userSpaceOnUse">
<stop stop-color="#7DD8F3"/>
<stop offset="1" stop-color="#45B0D0"/>
</linearGradient>
<linearGradient id="paint1_linear_206_8025" x1="1.587" y1="1.587" x2="22.6555" y2="22.6555" gradientUnits="userSpaceOnUse">
<stop stop-color="#C3CDD9"/>
<stop offset="1" stop-color="#9FA7B0"/>
</linearGradient>
<linearGradient id="paint2_linear_206_8025" x1="4.5" y1="14" x2="19.5" y2="14" gradientUnits="userSpaceOnUse">
<stop stop-color="#3079D6"/>
<stop offset="1" stop-color="#297CD2"/>
</linearGradient>
</defs>
</svg>
