<svg width="24" height="24" viewBox="0 0 24 24" fill="none" xmlns="http://www.w3.org/2000/svg">
<g id="pregnant">
<path id="Vector" d="M10.316 1.88049C10.316 1.88049 9.5005 3.11699 9.5005 4.58399C9.5005 4.79749 9.614 4.98849 9.7855 5.06499C10.763 5.49999 12 5.49999 12 5.49999V2.00499L10.316 1.88049Z" fill="#B55017"/>
<path id="Vector_2" d="M13.7265 1.94598C13.7265 1.94598 14.4995 3.09298 14.4995 4.58348C14.4995 4.79698 14.386 4.98798 14.2145 5.06448C13.237 5.49998 12 5.49998 12 5.49998V2.00498L13.7265 1.94598Z" fill="#B55017"/>
<path id="Vector_3" d="M12 5.5C10.9 5.5 10 4.6 10 3.5C10 2.4 10.9 1.5 12 1.5C13.1 1.5 14 2.4 14 3.5C14 4.6 13.1 5.5 12 5.5Z" fill="url(#paint0_linear_206_8033)"/>
<path id="Vector_4" d="M10 3.5C10.5055 3.41 11.064 3.171 11.5 2.25C11.9735 3.091 13.194 3.44 14 3.5C14 2.875 14.056 1 12 1C9.963 1 10 2.875 10 3.5Z" fill="#B55017"/>
<path id="Vector_5" d="M14.5 15.5H12.5V22C12.5 22.5525 12.9475 23 13.5 23C14.0525 23 14.5 22.5525 14.5 22V15.5Z" fill="url(#paint1_linear_206_8033)"/>
<path id="Vector_6" d="M11.5 15.5H9.5V22C9.5 22.5525 9.9475 23 10.5 23C11.0525 23 11.5 22.5525 11.5 22V15.5Z" fill="url(#paint2_linear_206_8033)"/>
<path id="Vector_7" d="M16.5 10L15 9.5C15 9.5 15 14.1105 15 14.25C15 14.664 15.336 15 15.75 15C16.164 15 16.5 14.664 16.5 14.25C16.5 14.1105 16.5 16.1395 16.5 10Z" fill="url(#paint3_linear_206_8033)"/>
<path id="Vector_8" d="M9 9.5L7.5 10C7.5 10 7.5 14.1105 7.5 14.25C7.5 14.664 7.836 15 8.25 15C8.664 15 9 14.664 9 14.25C9 14.1105 9 15.6395 9 9.5Z" fill="url(#paint4_linear_206_8033)"/>
<path id="Vector_9" d="M16.5 9.833C16.5 7.992 14.841 6.5 13 6.5H12.5H11.5H11C9.159 6.5 7.5 7.9925 7.5 9.8335V10H9C8.5 11.5 8.0885 15 8.0885 17.424C8.085 17.681 8.2765 18 8.583 18H15.4175C15.724 18 15.915 17.713 15.9115 17.424C15.9115 15 15.5 11.5 15 10H16.5V9.833Z" fill="url(#paint5_linear_206_8033)"/>
<path id="Vector_10" d="M12 11.182C12 11.182 12.448 10.6665 13 10.6665C13.552 10.6665 14 11.1345 14 11.697C14 12.046 13.6665 12.384 13.6665 12.384L12.1685 13.928C12.0755 14.024 11.9245 14.024 11.831 13.928L10.333 12.384C10.333 12.384 9.9995 12.046 9.9995 11.697C9.9995 11.1345 10.447 10.6665 10.9995 10.6665C11.552 10.6665 12 11.182 12 11.182Z" fill="#FFADC8"/>
</g>
<defs>
<linearGradient id="paint0_linear_206_8033" x1="11.3255" y1="1.642" x2="12.674" y2="5.3575" gradientUnits="userSpaceOnUse">
<stop stop-color="#FFCF54"/>
<stop offset="0.261" stop-color="#FDCB4D"/>
<stop offset="0.639" stop-color="#F7C13A"/>
<stop offset="1" stop-color="#F0B421"/>
</linearGradient>
<linearGradient id="paint1_linear_206_8033" x1="13.184" y1="18.051" x2="15.08" y2="22.822" gradientUnits="userSpaceOnUse">
<stop stop-color="#FFCF54"/>
<stop offset="0.261" stop-color="#FDCB4D"/>
<stop offset="0.639" stop-color="#F7C13A"/>
<stop offset="1" stop-color="#F0B421"/>
</linearGradient>
<linearGradient id="paint2_linear_206_8033" x1="10.184" y1="18.051" x2="12.08" y2="22.822" gradientUnits="userSpaceOnUse">
<stop stop-color="#FFCF54"/>
<stop offset="0.261" stop-color="#FDCB4D"/>
<stop offset="0.639" stop-color="#F7C13A"/>
<stop offset="1" stop-color="#F0B421"/>
</linearGradient>
<linearGradient id="paint3_linear_206_8033" x1="14.957" y1="10.444" x2="16.964" y2="14.903" gradientUnits="userSpaceOnUse">
<stop stop-color="#FFCF54"/>
<stop offset="0.261" stop-color="#FDCB4D"/>
<stop offset="0.639" stop-color="#F7C13A"/>
<stop offset="1" stop-color="#F0B421"/>
</linearGradient>
<linearGradient id="paint4_linear_206_8033" x1="7.7085" y1="10.7525" x2="9.5455" y2="14.8345" gradientUnits="userSpaceOnUse">
<stop stop-color="#FFCF54"/>
<stop offset="0.261" stop-color="#FDCB4D"/>
<stop offset="0.639" stop-color="#F7C13A"/>
<stop offset="1" stop-color="#F0B421"/>
</linearGradient>
<linearGradient id="paint5_linear_206_8033" x1="11.5405" y1="5.7375" x2="12.647" y2="17.238" gradientUnits="userSpaceOnUse">
<stop stop-color="#0D61A9"/>
<stop offset="1" stop-color="#16528C"/>
</linearGradient>
</defs>
</svg>
