<svg width="24" height="24" viewBox="0 0 24 24" fill="none" xmlns="http://www.w3.org/2000/svg">
<g id="preview-side-pane">
<path id="Vector" d="M2 19V6.5L12 5.5L22 6.5L15 20H3C2.45 20 2 19.55 2 19Z" fill="url(#paint0_linear_206_8066)"/>
<path id="Vector_2" d="M22 5V6.5H2V5C2 4.45 2.45 4 3 4H21C21.55 4 22 4.45 22 5Z" fill="url(#paint1_linear_206_8066)"/>
<path id="Vector_3" d="M15 20H21C21.5525 20 22 19.5525 22 19V6.5H15V20Z" fill="url(#paint2_linear_206_8066)"/>
<path id="Vector_4" d="M9 6.5H8V20H9V6.5Z" fill="url(#paint3_linear_206_8066)"/>
</g>
<defs>
<linearGradient id="paint0_linear_206_8066" x1="8.30571" y1="5.72262" x2="14.0852" y2="21.0926" gradientUnits="userSpaceOnUse">
<stop stop-color="#7DD8F3"/>
<stop offset="1" stop-color="#45B0D0"/>
</linearGradient>
<linearGradient id="paint1_linear_206_8066" x1="2.4035" y1="3.39" x2="21.375" y2="7.2475" gradientUnits="userSpaceOnUse">
<stop stop-color="#0077D2"/>
<stop offset="1" stop-color="#0B59A2"/>
</linearGradient>
<linearGradient id="paint2_linear_206_8066" x1="16.5508" y1="4.48886" x2="26.0294" y2="11.7037" gradientUnits="userSpaceOnUse">
<stop stop-color="#FCFCFC"/>
<stop offset="0.95" stop-color="#C3C9CD"/>
</linearGradient>
<linearGradient id="paint3_linear_206_8066" x1="8.36535" y1="7.08848" x2="13.5662" y2="9.20698" gradientUnits="userSpaceOnUse">
<stop stop-color="#32BDEF"/>
<stop offset="1" stop-color="#1EA2E4"/>
</linearGradient>
</defs>
</svg>
