<svg width="24" height="24" viewBox="0 0 24 24" fill="none" xmlns="http://www.w3.org/2000/svg">
<g id="preview-pane">
<path id="Vector" d="M20 3H4C3.4475 3 3 3.4475 3 4V20C3 20.5525 3.4475 21 4 21H20C20.5525 21 21 20.5525 21 20V4C21 3.4475 20.5525 3 20 3Z" fill="url(#paint0_linear_206_8058)"/>
<path id="Vector_2" opacity="0.05" d="M12 16.75C15.1756 16.75 17.75 14.6234 17.75 12C17.75 9.37665 15.1756 7.25 12 7.25C8.82436 7.25 6.25 9.37665 6.25 12C6.25 14.6234 8.82436 16.75 12 16.75Z" fill="black"/>
<path id="Vector_3" opacity="0.07" d="M12 16.5C15.0376 16.5 17.5 14.4853 17.5 12C17.5 9.51472 15.0376 7.5 12 7.5C8.96243 7.5 6.5 9.51472 6.5 12C6.5 14.4853 8.96243 16.5 12 16.5Z" fill="black"/>
<path id="Vector_4" d="M12 16.25C14.8995 16.25 17.25 14.3472 17.25 12C17.25 9.65279 14.8995 7.75 12 7.75C9.10051 7.75 6.75 9.65279 6.75 12C6.75 14.3472 9.10051 16.25 12 16.25Z" fill="url(#paint1_radial_206_8058)"/>
<path id="Vector_5" d="M12 14.75C13.933 14.75 15.5 13.183 15.5 11.25C15.5 9.317 13.933 7.75 12 7.75C10.067 7.75 8.5 9.317 8.5 11.25C8.5 13.183 10.067 14.75 12 14.75Z" fill="url(#paint2_linear_206_8058)"/>
<path id="Vector_6" d="M12 13.25C13.1046 13.25 14 12.3546 14 11.25C14 10.1454 13.1046 9.25 12 9.25C10.8954 9.25 10 10.1454 10 11.25C10 12.3546 10.8954 13.25 12 13.25Z" fill="url(#paint3_radial_206_8058)"/>
<path id="Vector_7" d="M13 10.25C13.2761 10.25 13.5 10.0261 13.5 9.75C13.5 9.47386 13.2761 9.25 13 9.25C12.7239 9.25 12.5 9.47386 12.5 9.75C12.5 10.0261 12.7239 10.25 13 10.25Z" fill="white"/>
</g>
<defs>
<linearGradient id="paint0_linear_206_8058" x1="3.3135" y1="3.193" x2="21.6965" y2="21.8315" gradientUnits="userSpaceOnUse">
<stop stop-color="#33BEF0"/>
<stop offset="1" stop-color="#0A85D9"/>
</linearGradient>
<radialGradient id="paint1_radial_206_8058" cx="0" cy="0" r="1" gradientUnits="userSpaceOnUse" gradientTransform="translate(12.0351 10.6676) scale(5.5713 5.63762)">
<stop offset="0.55" stop-color="#E4E4E6"/>
<stop offset="0.73" stop-color="#E1E2E4"/>
<stop offset="0.854" stop-color="#D8DADC"/>
<stop offset="0.961" stop-color="#C9CDCF"/>
<stop offset="1" stop-color="#C1C6C9"/>
</radialGradient>
<linearGradient id="paint2_linear_206_8058" x1="9.772" y1="9.022" x2="14.291" y2="13.541" gradientUnits="userSpaceOnUse">
<stop stop-color="#32BDEF"/>
<stop offset="1" stop-color="#1EA2E4"/>
</linearGradient>
<radialGradient id="paint3_radial_206_8058" cx="0" cy="0" r="1" gradientUnits="userSpaceOnUse" gradientTransform="translate(10.8215 8.324) scale(5.191)">
<stop stop-color="#4B4B4B"/>
<stop offset="0.531" stop-color="#393939"/>
<stop offset="1" stop-color="#252525"/>
</radialGradient>
</defs>
</svg>
