<svg width="24" height="24" viewBox="0 0 24 24" fill="none" xmlns="http://www.w3.org/2000/svg">
<g id="private-lock">
<path id="Vector" d="M21.5 14.535H1.5V18.965H21.5V14.535Z" fill="#E3A600"/>
<path id="Vector_2" d="M21.5 18.5H1.5V21C1.5 21.5525 1.9475 22 2.5 22H20.5C21.0525 22 21.5 21.5525 21.5 21V18.5Z" fill="#C48C00"/>
<path id="Vector_3" d="M5 6.5V8H7V6.5C7 4.0145 9.0145 2 11.5 2C13.9855 2 16 4.0145 16 6.5V8H18V6.5C18 2.91 15.09 0 11.5 0C7.91 0 5 2.91 5 6.5Z" fill="url(#paint0_linear_206_8080)"/>
<path id="Vector_4" d="M21.5 12H1.5V9C1.5 8.4475 1.9475 8 2.5 8H20.5C21.0525 8 21.5 8.4475 21.5 9V12Z" fill="#FAD500"/>
<path id="Vector_5" d="M21.5 11.5H1.5V15H21.5V11.5Z" fill="#EDBE00"/>
<path id="Vector_6" d="M13 14.5C13 13.6715 12.3285 13 11.5 13C10.6715 13 10 13.6715 10 14.5C10 15.152 10.4185 15.7015 11 15.908V17.5C11 17.776 11.224 18 11.5 18C11.776 18 12 17.776 12 17.5V15.908C12.5815 15.7015 13 15.152 13 14.5Z" fill="url(#paint1_linear_206_8080)"/>
<path id="Vector_7" opacity="0.05" d="M21.5 15.17V21C21.5 21.55 21.05 22 20.5 22H13.305C12.79 21.265 12.5 20.41 12.5 19.5C12.5 16.745 15.19 14.5 18.5 14.5C19.59 14.5 20.615 14.745 21.5 15.17Z" fill="black"/>
<path id="Vector_8" opacity="0.07" d="M21.5 15.445V21C21.5 21.55 21.05 22 20.5 22H13.615C13.065 21.275 12.75 20.415 12.75 19.5C12.75 16.88 15.33 14.75 18.5 14.75C19.6 14.75 20.625 15.005 21.5 15.445Z" fill="black"/>
<path id="Vector_9" d="M18.5 24C21.5376 24 24 21.9853 24 19.5C24 17.0147 21.5376 15 18.5 15C15.4624 15 13 17.0147 13 19.5C13 21.9853 15.4624 24 18.5 24Z" fill="url(#paint2_radial_206_8080)"/>
<path id="Vector_10" d="M18.5 22.5C20.7091 22.5 22.5 20.8211 22.5 18.75C22.5 16.6789 20.7091 15 18.5 15C16.2909 15 14.5 16.6789 14.5 18.75C14.5 20.8211 16.2909 22.5 18.5 22.5Z" fill="url(#paint3_linear_206_8080)"/>
<path id="Vector_11" d="M18.5 20.5C19.4665 20.5 20.25 19.7165 20.25 18.75C20.25 17.7835 19.4665 17 18.5 17C17.5335 17 16.75 17.7835 16.75 18.75C16.75 19.7165 17.5335 20.5 18.5 20.5Z" fill="url(#paint4_radial_206_8080)"/>
<path id="Vector_12" d="M17.25 18.5C17.6642 18.5 18 18.1642 18 17.75C18 17.3358 17.6642 17 17.25 17C16.8358 17 16.5 17.3358 16.5 17.75C16.5 18.1642 16.8358 18.5 17.25 18.5Z" fill="white"/>
</g>
<defs>
<linearGradient id="paint0_linear_206_8080" x1="11.5" y1="7.8235" x2="11.5" y2="-0.148" gradientUnits="userSpaceOnUse">
<stop stop-color="#92A3B0"/>
<stop offset="0.015" stop-color="#A3B5C4"/>
<stop offset="0.032" stop-color="#AEC2D1"/>
<stop offset="0.046" stop-color="#B2C6D6"/>
</linearGradient>
<linearGradient id="paint1_linear_206_8080" x1="11.5" y1="17.6865" x2="11.5" y2="13.5775" gradientUnits="userSpaceOnUse">
<stop stop-color="#4B4B4B"/>
<stop offset="1" stop-color="#3B3B3B"/>
</linearGradient>
<radialGradient id="paint2_radial_206_8080" cx="0" cy="0" r="1" gradientUnits="userSpaceOnUse" gradientTransform="translate(18.537 18.089) scale(5.83654 5.96913)">
<stop offset="0.55" stop-color="#E4E4E6"/>
<stop offset="0.73" stop-color="#E1E2E4"/>
<stop offset="0.854" stop-color="#D8DADC"/>
<stop offset="0.961" stop-color="#C9CDCF"/>
<stop offset="1" stop-color="#C1C6C9"/>
</radialGradient>
<linearGradient id="paint3_linear_206_8080" x1="16.0325" y1="16.282" x2="21.0375" y2="21.2875" gradientUnits="userSpaceOnUse">
<stop stop-color="#32BDEF"/>
<stop offset="1" stop-color="#1EA2E4"/>
</linearGradient>
<radialGradient id="paint4_radial_206_8080" cx="0" cy="0" r="1" gradientUnits="userSpaceOnUse" gradientTransform="translate(17.4691 16.1872) scale(4.54245)">
<stop stop-color="#4B4B4B"/>
<stop offset="0.531" stop-color="#393939"/>
<stop offset="1" stop-color="#252525"/>
</radialGradient>
</defs>
</svg>
