<svg width="24" height="24" viewBox="0 0 24 24" fill="none" xmlns="http://www.w3.org/2000/svg">
<g id="prize">
<path id="Vector" d="M17 13.8825H7V22.9995C7 23.388 7.424 23.628 7.757 23.428L12 20.8825L16.243 23.428C16.5765 23.628 17 23.388 17 22.9995V13.8825Z" fill="url(#paint0_radial_206_8093)"/>
<path id="Vector_2" d="M20.5175 8.64698L19.8885 8.26898C19.6205 8.10798 19.4395 7.84348 19.3575 7.54198C19.3555 7.53648 19.355 7.53098 19.353 7.52498C19.2695 7.22098 19.2945 6.89698 19.4475 6.62148L19.804 5.97998C20.1685 5.32398 19.7025 4.51548 18.9515 4.50298L18.211 4.48998C17.897 4.48448 17.606 4.34498 17.385 4.12348C17.3825 4.12098 17.3805 4.11898 17.378 4.11648C17.155 3.89498 17.0165 3.60348 17.011 3.28998L16.9985 2.54948C16.986 1.79898 16.1775 1.33248 15.5215 1.69698L14.88 2.05348C14.6035 2.20648 14.2805 2.23148 13.9765 2.14798C13.971 2.14598 13.9655 2.14548 13.9595 2.14348C13.658 2.06148 13.3935 1.88048 13.2325 1.61248L12.8545 0.983479C12.4685 0.339979 11.535 0.339979 11.149 0.983479L10.773 1.60998C10.611 1.87998 10.3435 2.06248 10.0405 2.14548C10.037 2.14648 10.034 2.14748 10.0305 2.14798C9.7235 2.23248 9.398 2.20748 9.1195 2.05248L8.4805 1.69798C7.8245 1.33348 7.016 1.79948 7.0035 2.55048L6.99 3.28998C6.9845 3.60298 6.845 3.89498 6.6235 4.11598C6.621 4.11798 6.618 4.12048 6.6165 4.12298C6.395 4.34548 6.1035 4.48398 5.7905 4.48948L5.05 4.50198C4.2995 4.51448 3.833 5.32198 4.1975 5.97898L4.554 6.62048C4.707 6.89698 4.732 7.21998 4.6485 7.52398C4.646 7.52948 4.645 7.53548 4.643 7.54098C4.561 7.84248 4.3795 8.10698 4.112 8.26798L3.483 8.64598C2.8395 9.03198 2.8395 9.96548 3.483 10.3515L4.112 10.7295C4.38 10.8905 4.561 11.155 4.643 11.4565C4.645 11.462 4.6455 11.4675 4.6475 11.4735C4.731 11.7775 4.706 12.1015 4.553 12.377L4.1965 13.0185C3.832 13.6745 4.298 14.483 5.049 14.4955L5.7895 14.508C6.1035 14.5135 6.3945 14.653 6.6155 14.8745C6.618 14.877 6.62 14.879 6.6225 14.8815C6.845 15.103 6.9835 15.3945 6.989 15.7075L7.0015 16.448C7.014 17.1985 7.8225 17.665 8.4785 17.3005L9.12 16.944C9.3965 16.791 9.7195 16.766 10.0235 16.8495C10.029 16.8515 10.035 16.852 10.0405 16.854C10.342 16.936 10.6065 17.117 10.7675 17.385L11.1455 18.014C11.5315 18.6575 12.465 18.6575 12.851 18.014L13.229 17.385C13.39 17.117 13.6545 16.936 13.956 16.854C13.9615 16.852 13.9675 16.8515 13.973 16.8495C14.277 16.766 14.601 16.791 14.8765 16.944L15.518 17.3005C16.174 17.665 16.9825 17.199 16.995 16.448L17.0075 15.7075C17.013 15.3935 17.1525 15.1025 17.374 14.8815C17.3765 14.879 17.3785 14.877 17.381 14.8745C17.6025 14.652 17.894 14.5135 18.207 14.508L18.9475 14.4955C19.698 14.483 20.1645 13.6745 19.8 13.0185L19.4435 12.377C19.2905 12.1005 19.2655 11.7775 19.349 11.4735C19.351 11.468 19.3515 11.4625 19.3535 11.4565C19.4355 11.155 19.6165 10.8905 19.8845 10.7295L20.5135 10.3515C21.161 9.96598 21.161 9.03348 20.5175 8.64698Z" fill="url(#paint1_linear_206_8093)"/>
<path id="Vector_3" d="M12 14.5C14.7614 14.5 17 12.2614 17 9.5C17 6.73858 14.7614 4.5 12 4.5C9.23858 4.5 7 6.73858 7 9.5C7 12.2614 9.23858 14.5 12 14.5Z" stroke="#FFDF26" stroke-miterlimit="10"/>
</g>
<defs>
<radialGradient id="paint0_radial_206_8093" cx="0" cy="0" r="1" gradientUnits="userSpaceOnUse" gradientTransform="translate(11.9715 9.46051) scale(11.3825)">
<stop offset="0.655" stop-color="#871233"/>
<stop offset="0.718" stop-color="#8E1336"/>
<stop offset="0.812" stop-color="#A3163E"/>
<stop offset="0.9" stop-color="#BC1948"/>
</radialGradient>
<linearGradient id="paint1_linear_206_8093" x1="7.4245" y1="1.54698" x2="16.539" y2="17.389" gradientUnits="userSpaceOnUse">
<stop stop-color="#FFDA1C"/>
<stop offset="1" stop-color="#FEB705"/>
</linearGradient>
</defs>
</svg>
