<svg width="24" height="24" viewBox="0 0 24 24" fill="none" xmlns="http://www.w3.org/2000/svg">
<g id="processor">
<path id="Vector" d="M6.5 4.5V3C6.5 2.724 6.724 2.5 7 2.5C7.276 2.5 7.5 2.724 7.5 3V4.5H6.5Z" fill="#E3A600"/>
<path id="Vector_2" d="M8.5 4.5V3C8.5 2.724 8.724 2.5 9 2.5C9.276 2.5 9.5 2.724 9.5 3V4.5H8.5Z" fill="#E3A600"/>
<path id="Vector_3" d="M10.5 4.5V3C10.5 2.724 10.724 2.5 11 2.5C11.276 2.5 11.5 2.724 11.5 3V4.5H10.5Z" fill="#E3A600"/>
<path id="Vector_4" d="M12.5 4.5V3C12.5 2.724 12.724 2.5 13 2.5C13.276 2.5 13.5 2.724 13.5 3V4.5H12.5Z" fill="#E3A600"/>
<path id="Vector_5" d="M14.5 4.5V3C14.5 2.724 14.724 2.5 15 2.5C15.276 2.5 15.5 2.724 15.5 3V4.5H14.5Z" fill="#E3A600"/>
<path id="Vector_6" d="M16.5 4.5V3C16.5 2.724 16.724 2.5 17 2.5C17.276 2.5 17.5 2.724 17.5 3V4.5H16.5Z" fill="#E3A600"/>
<path id="Vector_7" d="M18.5 19.5H5.5C4.9475 19.5 4.5 19.0525 4.5 18.5V5.5C4.5 4.9475 4.9475 4.5 5.5 4.5H18.5C19.0525 4.5 19.5 4.9475 19.5 5.5V18.5C19.5 19.0525 19.0525 19.5 18.5 19.5Z" fill="url(#paint0_linear_206_8106)"/>
<path id="Vector_8" opacity="0.05" d="M16.18 18H7.8185C6.814 18 6 17.186 6 16.1815V7.82C6 6.815 6.815 6 7.82 6H16.18C17.185 6 18 6.815 18 7.82V16.18C18 17.185 17.185 18 16.18 18Z" fill="black"/>
<path id="Vector_9" opacity="0.07" d="M16.081 17.5H7.919C7.1355 17.5 6.5 16.8645 6.5 16.081V7.919C6.5 7.1355 7.1355 6.5 7.919 6.5H16.081C16.8645 6.5 17.5 7.1355 17.5 7.919V16.081C17.5 16.8645 16.8645 17.5 16.081 17.5Z" fill="black"/>
<path id="Vector_10" d="M16 17H8C7.4475 17 7 16.5525 7 16V8C7 7.4475 7.4475 7 8 7H16C16.5525 7 17 7.4475 17 8V16C17 16.5525 16.5525 17 16 17Z" fill="url(#paint1_linear_206_8106)"/>
<path id="Vector_11" d="M6.5 19.5V21C6.5 21.276 6.724 21.5 7 21.5C7.276 21.5 7.5 21.276 7.5 21V19.5H6.5Z" fill="#E3A600"/>
<path id="Vector_12" d="M8.5 19.5V21C8.5 21.276 8.724 21.5 9 21.5C9.276 21.5 9.5 21.276 9.5 21V19.5H8.5Z" fill="#E3A600"/>
<path id="Vector_13" d="M10.5 19.5V21C10.5 21.276 10.724 21.5 11 21.5C11.276 21.5 11.5 21.276 11.5 21V19.5H10.5Z" fill="#E3A600"/>
<path id="Vector_14" d="M12.5 19.5V21C12.5 21.276 12.724 21.5 13 21.5C13.276 21.5 13.5 21.276 13.5 21V19.5H12.5Z" fill="#E3A600"/>
<path id="Vector_15" d="M14.5 19.5V21C14.5 21.276 14.724 21.5 15 21.5C15.276 21.5 15.5 21.276 15.5 21V19.5H14.5Z" fill="#E3A600"/>
<path id="Vector_16" d="M16.5 19.5V21C16.5 21.276 16.724 21.5 17 21.5C17.276 21.5 17.5 21.276 17.5 21V19.5H16.5Z" fill="#E3A600"/>
<path id="Vector_17" d="M19.5 17.5H21C21.276 17.5 21.5 17.276 21.5 17C21.5 16.724 21.276 16.5 21 16.5H19.5V17.5Z" fill="#E3A600"/>
<path id="Vector_18" d="M19.5 15.5H21C21.276 15.5 21.5 15.276 21.5 15C21.5 14.724 21.276 14.5 21 14.5H19.5V15.5Z" fill="#E3A600"/>
<path id="Vector_19" d="M19.5 13.5H21C21.276 13.5 21.5 13.276 21.5 13C21.5 12.724 21.276 12.5 21 12.5H19.5V13.5Z" fill="#E3A600"/>
<path id="Vector_20" d="M19.5 11.5H21C21.276 11.5 21.5 11.276 21.5 11C21.5 10.724 21.276 10.5 21 10.5H19.5V11.5Z" fill="#E3A600"/>
<path id="Vector_21" d="M19.5 9.5H21C21.276 9.5 21.5 9.276 21.5 9C21.5 8.724 21.276 8.5 21 8.5H19.5V9.5Z" fill="#E3A600"/>
<path id="Vector_22" d="M19.5 7.5H21C21.276 7.5 21.5 7.276 21.5 7C21.5 6.724 21.276 6.5 21 6.5H19.5V7.5Z" fill="#E3A600"/>
<path id="Vector_23" d="M4.5 17.5H3C2.724 17.5 2.5 17.276 2.5 17C2.5 16.724 2.724 16.5 3 16.5H4.5V17.5Z" fill="#E3A600"/>
<path id="Vector_24" d="M4.5 15.5H3C2.724 15.5 2.5 15.276 2.5 15C2.5 14.724 2.724 14.5 3 14.5H4.5V15.5Z" fill="#E3A600"/>
<path id="Vector_25" d="M4.5 13.5H3C2.724 13.5 2.5 13.276 2.5 13C2.5 12.724 2.724 12.5 3 12.5H4.5V13.5Z" fill="#E3A600"/>
<path id="Vector_26" d="M4.5 11.5H3C2.724 11.5 2.5 11.276 2.5 11C2.5 10.724 2.724 10.5 3 10.5H4.5V11.5Z" fill="#E3A600"/>
<path id="Vector_27" d="M4.5 9.5H3C2.724 9.5 2.5 9.276 2.5 9C2.5 8.724 2.724 8.5 3 8.5H4.5V9.5Z" fill="#E3A600"/>
<path id="Vector_28" d="M4.5 7.5H3C2.724 7.5 2.5 7.276 2.5 7C2.5 6.724 2.724 6.5 3 6.5H4.5V7.5Z" fill="#E3A600"/>
<path id="Vector_29" d="M18 6.5C18.2761 6.5 18.5 6.27614 18.5 6C18.5 5.72386 18.2761 5.5 18 5.5C17.7239 5.5 17.5 5.72386 17.5 6C17.5 6.27614 17.7239 6.5 18 6.5Z" fill="url(#paint2_linear_206_8106)"/>
<path id="Vector_30" d="M6 18.5C6.27614 18.5 6.5 18.2761 6.5 18C6.5 17.7239 6.27614 17.5 6 17.5C5.72386 17.5 5.5 17.7239 5.5 18C5.5 18.2761 5.72386 18.5 6 18.5Z" fill="url(#paint3_linear_206_8106)"/>
<path id="Vector_31" d="M18 18.5C18.2761 18.5 18.5 18.2761 18.5 18C18.5 17.7239 18.2761 17.5 18 17.5C17.7239 17.5 17.5 17.7239 17.5 18C17.5 18.2761 17.7239 18.5 18 18.5Z" fill="url(#paint4_linear_206_8106)"/>
<path id="Vector_32" d="M6 6.5C6.27614 6.5 6.5 6.27614 6.5 6C6.5 5.72386 6.27614 5.5 6 5.5C5.72386 5.5 5.5 5.72386 5.5 6C5.5 6.27614 5.72386 6.5 6 6.5Z" fill="url(#paint5_linear_206_8106)"/>
</g>
<defs>
<linearGradient id="paint0_linear_206_8106" x1="12.028" y1="4.1355" x2="11.9785" y2="18.031" gradientUnits="userSpaceOnUse">
<stop stop-color="#899198"/>
<stop offset="1" stop-color="#787E85"/>
</linearGradient>
<linearGradient id="paint1_linear_206_8106" x1="11.951" y1="7.0615" x2="12.083" y2="20.4135" gradientUnits="userSpaceOnUse">
<stop stop-color="#CCCCCC"/>
<stop offset="0.396" stop-color="#BBBBBB"/>
<stop offset="1" stop-color="#999999"/>
</linearGradient>
<linearGradient id="paint2_linear_206_8106" x1="18" y1="5.4945" x2="18" y2="6.2855" gradientUnits="userSpaceOnUse">
<stop stop-color="#4C4C4C"/>
<stop offset="1" stop-color="#343434"/>
</linearGradient>
<linearGradient id="paint3_linear_206_8106" x1="6" y1="17.4945" x2="6" y2="18.2855" gradientUnits="userSpaceOnUse">
<stop stop-color="#4C4C4C"/>
<stop offset="1" stop-color="#343434"/>
</linearGradient>
<linearGradient id="paint4_linear_206_8106" x1="18" y1="17.4945" x2="18" y2="18.2855" gradientUnits="userSpaceOnUse">
<stop stop-color="#4C4C4C"/>
<stop offset="1" stop-color="#343434"/>
</linearGradient>
<linearGradient id="paint5_linear_206_8106" x1="6" y1="5.4945" x2="6" y2="6.2855" gradientUnits="userSpaceOnUse">
<stop stop-color="#4C4C4C"/>
<stop offset="1" stop-color="#343434"/>
</linearGradient>
</defs>
</svg>
