<svg width="24" height="24" viewBox="0 0 24 24" fill="none" xmlns="http://www.w3.org/2000/svg">
<g id="product-documents">
<path id="Vector" d="M18 2.5H6C5.4475 2.5 5 2.9475 5 3.5V6.5H19V3.5C19 2.9475 18.5525 2.5 18 2.5Z" fill="url(#paint0_linear_206_8164)"/>
<path id="Vector_2" d="M18.5 4.5H5.5C4.9475 4.5 4.5 4.9475 4.5 5.5V8H19.5V5.5C19.5 4.9475 19.0525 4.5 18.5 4.5Z" fill="url(#paint1_linear_206_8164)"/>
<path id="Vector_3" d="M19 6.5H5C4.4475 6.5 4 6.9475 4 7.5V20H20V7.5C20 6.9475 19.5525 6.5 19 6.5Z" fill="url(#paint2_linear_206_8164)"/>
<path id="Vector_4" d="M20.5 15.5H15.3465C14.8945 15.5 14.522 15.812 14.3875 16.2435C14.071 17.261 13.122 18 12 18C10.878 18 9.929 17.261 9.6125 16.2435C9.478 15.812 9.1055 15.5 8.6535 15.5H3.5C3.224 15.5 3 15.724 3 16V20C3 20.8285 3.6715 21.5 4.5 21.5H19.5C20.3285 21.5 21 20.8285 21 20V16C21 15.724 20.776 15.5 20.5 15.5Z" fill="url(#paint3_linear_206_8164)"/>
<path id="Vector_5" d="M15.991 11.0655H8.491C8.353 11.0655 8.241 10.9535 8.241 10.8155V10.3155C8.241 10.1775 8.353 10.0655 8.491 10.0655H15.991C16.129 10.0655 16.241 10.1775 16.241 10.3155V10.8155C16.241 10.954 16.1295 11.0655 15.991 11.0655Z" fill="#0D61A9"/>
<path id="Vector_6" d="M14.491 13.0655H8.491C8.353 13.0655 8.241 12.9535 8.241 12.8155V12.3155C8.241 12.1775 8.353 12.0655 8.491 12.0655H14.491C14.629 12.0655 14.741 12.1775 14.741 12.3155V12.8155C14.741 12.954 14.6295 13.0655 14.491 13.0655Z" fill="#0D61A9"/>
</g>
<defs>
<linearGradient id="paint0_linear_206_8164" x1="12" y1="2.5925" x2="12" y2="6.389" gradientUnits="userSpaceOnUse">
<stop stop-color="#0D61A9"/>
<stop offset="1" stop-color="#16528C"/>
</linearGradient>
<linearGradient id="paint1_linear_206_8164" x1="12" y1="4.533" x2="12" y2="8.0675" gradientUnits="userSpaceOnUse">
<stop stop-color="#199AE0"/>
<stop offset="1" stop-color="#0782D8"/>
</linearGradient>
<linearGradient id="paint2_linear_206_8164" x1="10.279" y1="6.634" x2="13.439" y2="19.5895" gradientUnits="userSpaceOnUse">
<stop stop-color="#32BDEF"/>
<stop offset="1" stop-color="#1EA2E4"/>
</linearGradient>
<linearGradient id="paint3_linear_206_8164" x1="12" y1="15.5355" x2="12" y2="21.3465" gradientUnits="userSpaceOnUse">
<stop stop-color="#FFD869"/>
<stop offset="1" stop-color="#FEC52B"/>
</linearGradient>
</defs>
</svg>
