<svg width="24" height="24" viewBox="0 0 24 24" fill="none" xmlns="http://www.w3.org/2000/svg">
<g id="profit-analysis">
<path id="Vector" d="M17.9915 16.224L16.2235 17.992L20.1585 21.927C20.256 22.0245 20.4145 22.0245 20.512 21.927L21.926 20.513C22.0235 20.4155 22.0235 20.257 21.926 20.1595L17.9915 16.224Z" fill="url(#paint0_linear_206_8171)"/>
<path id="Vector_2" d="M15.8005 14.0325L14.0325 15.8005L16.224 17.9915L17.9915 16.224L15.8005 14.0325Z" fill="url(#paint1_radial_206_8171)"/>
<path id="Vector_3" d="M10 18C14.4183 18 18 14.4183 18 10C18 5.58172 14.4183 2 10 2C5.58172 2 2 5.58172 2 10C2 14.4183 5.58172 18 10 18Z" fill="url(#paint2_linear_206_8171)"/>
<path id="Vector_4" d="M13.149 12.011C13.149 8.927 8.5955 9.529 8.5955 7.707C8.5955 6.7555 9.665 6.7055 9.9995 6.7055C10.803 6.7055 11.579 6.921 12.1705 7.1985C12.357 7.286 12.571 7.1565 12.571 6.951V6.0535C12.571 5.7525 12.4575 5.574 12.277 5.5035C11.8715 5.346 11.289 5.231 10.428 5.2025V4.2145C10.4285 4.096 10.3325 4 10.214 4H9.7855C9.667 4 9.571 4.096 9.571 4.2145V5.218C8.2355 5.3485 6.8505 6.1025 6.8505 7.856C6.8505 11.053 11.4035 10.419 11.4035 12.103C11.4035 12.6325 11.0655 13.0885 9.9995 13.0885C8.928 13.0885 7.944 12.7145 7.399 12.4355C7.216 12.3415 7 12.4775 7 12.6835V13.705C7 13.901 7.118 14.075 7.2985 14.152C7.944 14.4265 8.81 14.634 9.5715 14.6945V15.786C9.5715 15.9045 9.6675 16.0005 9.786 16.0005H10.2145C10.333 16.0005 10.429 15.9045 10.429 15.786V14.697C12.4265 14.5295 13.149 13.192 13.149 12.011Z" fill="#0D61A9"/>
</g>
<defs>
<linearGradient id="paint0_linear_206_8171" x1="17.503" y1="15.3635" x2="21.4186" y2="21.1109" gradientUnits="userSpaceOnUse">
<stop stop-color="#FCFCFC"/>
<stop offset="0.95" stop-color="#C3C9CD"/>
</linearGradient>
<radialGradient id="paint1_radial_206_8171" cx="0" cy="0" r="1" gradientUnits="userSpaceOnUse" gradientTransform="translate(10.012 10.048) scale(9.802)">
<stop offset="0.693" stop-color="#006185"/>
<stop offset="0.921" stop-color="#35C1F1"/>
</radialGradient>
<linearGradient id="paint2_linear_206_8171" x1="7.04457" y1="2.24565" x2="14.9564" y2="17.5002" gradientUnits="userSpaceOnUse">
<stop stop-color="#7DD8F3"/>
<stop offset="1" stop-color="#45B0D0"/>
</linearGradient>
</defs>
</svg>
