<svg width="24" height="24" viewBox="0 0 24 24" fill="none" xmlns="http://www.w3.org/2000/svg">
<g id="proforma-invoice">
<path id="Vector" d="M18.614 21H5.386C4.653 21 4.059 20.406 4.059 19.673V4.327C4.059 3.594 4.653 3 5.386 3H18.6145C19.3475 3 19.9415 3.594 19.9415 4.327V19.673C19.941 20.406 19.347 21 18.614 21Z" fill="url(#paint0_linear_206_8176)"/>
<path id="Vector_2" d="M16.75 8H7.25C7.112 8 7 7.888 7 7.75V6.75C7 6.612 7.112 6.5 7.25 6.5H16.75C16.888 6.5 17 6.612 17 6.75V7.75C17 7.888 16.888 8 16.75 8Z" fill="#057093"/>
<path id="Vector_3" d="M16.75 11H15.75C15.612 11 15.5 10.888 15.5 10.75V10.25C15.5 10.112 15.612 10 15.75 10H16.75C16.888 10 17 10.112 17 10.25V10.75C17 10.888 16.888 11 16.75 11Z" fill="#057093"/>
<path id="Vector_4" d="M12.75 11H7.25C7.112 11 7 10.888 7 10.75V10.25C7 10.112 7.112 10 7.25 10H12.75C12.888 10 13 10.112 13 10.25V10.75C13 10.888 12.888 11 12.75 11Z" fill="#057093"/>
<path id="Vector_5" d="M16.75 13H15.75C15.612 13 15.5 12.888 15.5 12.75V12.25C15.5 12.112 15.612 12 15.75 12H16.75C16.888 12 17 12.112 17 12.25V12.75C17 12.888 16.888 13 16.75 13Z" fill="#057093"/>
<path id="Vector_6" d="M11.25 13H7.25C7.112 13 7 12.888 7 12.75V12.25C7 12.112 7.112 12 7.25 12H11.25C11.388 12 11.5 12.112 11.5 12.25V12.75C11.5 12.888 11.388 13 11.25 13Z" fill="#057093"/>
<path id="Vector_7" d="M16.75 15H15.75C15.612 15 15.5 14.888 15.5 14.75V14.25C15.5 14.112 15.612 14 15.75 14H16.75C16.888 14 17 14.112 17 14.25V14.75C17 14.888 16.888 15 16.75 15Z" fill="#057093"/>
<path id="Vector_8" d="M12.75 15H7.25C7.112 15 7 14.888 7 14.75V14.25C7 14.112 7.112 14 7.25 14H12.75C12.888 14 13 14.112 13 14.25V14.75C13 14.888 12.888 15 12.75 15Z" fill="#057093"/>
<path id="Vector_9" d="M16.75 17H15.75C15.612 17 15.5 16.888 15.5 16.75V16.25C15.5 16.112 15.612 16 15.75 16H16.75C16.888 16 17 16.112 17 16.25V16.75C17 16.888 16.888 17 16.75 17Z" fill="#057093"/>
<path id="Vector_10" d="M11.25 17H7.25C7.112 17 7 16.888 7 16.75V16.25C7 16.112 7.112 16 7.25 16H11.25C11.388 16 11.5 16.112 11.5 16.25V16.75C11.5 16.888 11.388 17 11.25 17Z" fill="#057093"/>
<path id="Vector_11" d="M18 4H19V5C19 5.276 19.224 5.5 19.5 5.5C19.776 5.5 20 5.276 20 5V4C20 3.45 19.55 3 19 3H18C17.724 3 17.5 3.224 17.5 3.5C17.5 3.776 17.724 4 18 4Z" fill="#64717C"/>
<path id="Vector_12" d="M5 5V4H6C6.276 4 6.5 3.776 6.5 3.5C6.5 3.224 6.276 3 6 3H5C4.45 3 4 3.45 4 4V5C4 5.276 4.224 5.5 4.5 5.5C4.776 5.5 5 5.276 5 5Z" fill="#64717C"/>
<path id="Vector_13" d="M19 19V20H18C17.724 20 17.5 20.224 17.5 20.5C17.5 20.776 17.724 21 18 21H19C19.55 21 20 20.55 20 20V19C20 18.724 19.776 18.5 19.5 18.5C19.224 18.5 19 18.724 19 19Z" fill="#64717C"/>
<path id="Vector_14" d="M6 20H5V19C5 18.724 4.776 18.5 4.5 18.5C4.224 18.5 4 18.724 4 19V20C4 20.55 4.45 21 5 21H6C6.276 21 6.5 20.776 6.5 20.5C6.5 20.224 6.276 20 6 20Z" fill="#64717C"/>
<path id="Vector_15" d="M8 4C8.27614 4 8.5 3.77614 8.5 3.5C8.5 3.22386 8.27614 3 8 3C7.72386 3 7.5 3.22386 7.5 3.5C7.5 3.77614 7.72386 4 8 4Z" fill="#64717C"/>
<path id="Vector_16" d="M10 4C10.2761 4 10.5 3.77614 10.5 3.5C10.5 3.22386 10.2761 3 10 3C9.72386 3 9.5 3.22386 9.5 3.5C9.5 3.77614 9.72386 4 10 4Z" fill="#64717C"/>
<path id="Vector_17" d="M12 4C12.2761 4 12.5 3.77614 12.5 3.5C12.5 3.22386 12.2761 3 12 3C11.7239 3 11.5 3.22386 11.5 3.5C11.5 3.77614 11.7239 4 12 4Z" fill="#64717C"/>
<path id="Vector_18" d="M16 4C16.2761 4 16.5 3.77614 16.5 3.5C16.5 3.22386 16.2761 3 16 3C15.7239 3 15.5 3.22386 15.5 3.5C15.5 3.77614 15.7239 4 16 4Z" fill="#64717C"/>
<path id="Vector_19" d="M19 4C19.2761 4 19.5 3.77614 19.5 3.5C19.5 3.22386 19.2761 3 19 3C18.7239 3 18.5 3.22386 18.5 3.5C18.5 3.77614 18.7239 4 19 4Z" fill="#64717C"/>
<path id="Vector_20" d="M14 4C14.2761 4 14.5 3.77614 14.5 3.5C14.5 3.22386 14.2761 3 14 3C13.7239 3 13.5 3.22386 13.5 3.5C13.5 3.77614 13.7239 4 14 4Z" fill="#64717C"/>
<path id="Vector_21" d="M8 21C8.27614 21 8.5 20.7761 8.5 20.5C8.5 20.2239 8.27614 20 8 20C7.72386 20 7.5 20.2239 7.5 20.5C7.5 20.7761 7.72386 21 8 21Z" fill="#64717C"/>
<path id="Vector_22" d="M10 21C10.2761 21 10.5 20.7761 10.5 20.5C10.5 20.2239 10.2761 20 10 20C9.72386 20 9.5 20.2239 9.5 20.5C9.5 20.7761 9.72386 21 10 21Z" fill="#64717C"/>
<path id="Vector_23" d="M12 21C12.2761 21 12.5 20.7761 12.5 20.5C12.5 20.2239 12.2761 20 12 20C11.7239 20 11.5 20.2239 11.5 20.5C11.5 20.7761 11.7239 21 12 21Z" fill="#64717C"/>
<path id="Vector_24" d="M16 21C16.2761 21 16.5 20.7761 16.5 20.5C16.5 20.2239 16.2761 20 16 20C15.7239 20 15.5 20.2239 15.5 20.5C15.5 20.7761 15.7239 21 16 21Z" fill="#64717C"/>
<path id="Vector_25" d="M19 21C19.2761 21 19.5 20.7761 19.5 20.5C19.5 20.2239 19.2761 20 19 20C18.7239 20 18.5 20.2239 18.5 20.5C18.5 20.7761 18.7239 21 19 21Z" fill="#64717C"/>
<path id="Vector_26" d="M14 21C14.2761 21 14.5 20.7761 14.5 20.5C14.5 20.2239 14.2761 20 14 20C13.7239 20 13.5 20.2239 13.5 20.5C13.5 20.7761 13.7239 21 14 21Z" fill="#64717C"/>
<path id="Vector_27" d="M19.5 7.5C19.7761 7.5 20 7.27614 20 7C20 6.72386 19.7761 6.5 19.5 6.5C19.2239 6.5 19 6.72386 19 7C19 7.27614 19.2239 7.5 19.5 7.5Z" fill="#64717C"/>
<path id="Vector_28" d="M19.5 9.5C19.7761 9.5 20 9.27614 20 9C20 8.72386 19.7761 8.5 19.5 8.5C19.2239 8.5 19 8.72386 19 9C19 9.27614 19.2239 9.5 19.5 9.5Z" fill="#64717C"/>
<path id="Vector_29" d="M19.5 11.5C19.7761 11.5 20 11.2761 20 11C20 10.7239 19.7761 10.5 19.5 10.5C19.2239 10.5 19 10.7239 19 11C19 11.2761 19.2239 11.5 19.5 11.5Z" fill="#64717C"/>
<path id="Vector_30" d="M19.5 15.5C19.7761 15.5 20 15.2761 20 15C20 14.7239 19.7761 14.5 19.5 14.5C19.2239 14.5 19 14.7239 19 15C19 15.2761 19.2239 15.5 19.5 15.5Z" fill="#64717C"/>
<path id="Vector_31" d="M19.5 17.5C19.7761 17.5 20 17.2761 20 17C20 16.7239 19.7761 16.5 19.5 16.5C19.2239 16.5 19 16.7239 19 17C19 17.2761 19.2239 17.5 19.5 17.5Z" fill="#64717C"/>
<path id="Vector_32" d="M19.5 13.5C19.7761 13.5 20 13.2761 20 13C20 12.7239 19.7761 12.5 19.5 12.5C19.2239 12.5 19 12.7239 19 13C19 13.2761 19.2239 13.5 19.5 13.5Z" fill="#64717C"/>
<path id="Vector_33" d="M4.5 7.5C4.77614 7.5 5 7.27614 5 7C5 6.72386 4.77614 6.5 4.5 6.5C4.22386 6.5 4 6.72386 4 7C4 7.27614 4.22386 7.5 4.5 7.5Z" fill="#64717C"/>
<path id="Vector_34" d="M4.5 9.5C4.77614 9.5 5 9.27614 5 9C5 8.72386 4.77614 8.5 4.5 8.5C4.22386 8.5 4 8.72386 4 9C4 9.27614 4.22386 9.5 4.5 9.5Z" fill="#64717C"/>
<path id="Vector_35" d="M4.5 11.5C4.77614 11.5 5 11.2761 5 11C5 10.7239 4.77614 10.5 4.5 10.5C4.22386 10.5 4 10.7239 4 11C4 11.2761 4.22386 11.5 4.5 11.5Z" fill="#64717C"/>
<path id="Vector_36" d="M4.5 15.5C4.77614 15.5 5 15.2761 5 15C5 14.7239 4.77614 14.5 4.5 14.5C4.22386 14.5 4 14.7239 4 15C4 15.2761 4.22386 15.5 4.5 15.5Z" fill="#64717C"/>
<path id="Vector_37" d="M4.5 17.5C4.77614 17.5 5 17.2761 5 17C5 16.7239 4.77614 16.5 4.5 16.5C4.22386 16.5 4 16.7239 4 17C4 17.2761 4.22386 17.5 4.5 17.5Z" fill="#64717C"/>
<path id="Vector_38" d="M4.5 13.5C4.77614 13.5 5 13.2761 5 13C5 12.7239 4.77614 12.5 4.5 12.5C4.22386 12.5 4 12.7239 4 13C4 13.2761 4.22386 13.5 4.5 13.5Z" fill="#64717C"/>
</g>
<defs>
<linearGradient id="paint0_linear_206_8176" x1="9.06653" y1="3.27635" x2="18.5804" y2="19.4619" gradientUnits="userSpaceOnUse">
<stop stop-color="#7DD8F3"/>
<stop offset="1" stop-color="#45B0D0"/>
</linearGradient>
</defs>
</svg>
