<svg width="24" height="24" viewBox="0 0 24 24" fill="none" xmlns="http://www.w3.org/2000/svg">
<g id="program">
<path id="Vector" d="M12.207 5.207L10.939 3.939C10.658 3.658 10.2765 3.5 9.8785 3.5H2.5C1.9475 3.5 1.5 3.9475 1.5 4.5V19.5C1.5 20.0525 1.9475 20.5 2.5 20.5H21.5C22.0525 20.5 22.5 20.0525 22.5 19.5V6.5C22.5 5.9475 22.0525 5.5 21.5 5.5H12.914C12.649 5.5 12.3945 5.3945 12.207 5.207Z" fill="url(#paint0_linear_206_8215)"/>
<path id="Vector_2" d="M10.793 7.207L12.427 5.573C12.4735 5.5265 12.537 5.5 12.6035 5.5H21.5C22.0525 5.5 22.5 5.9475 22.5 6.5V19.5C22.5 20.0525 22.0525 20.5 21.5 20.5H2.5C1.9475 20.5 1.5 20.0525 1.5 19.5V7.75C1.5 7.612 1.612 7.5 1.75 7.5H10.086C10.351 7.5 10.6055 7.3945 10.793 7.207Z" fill="url(#paint1_linear_206_8215)"/>
<path id="Vector_3" d="M6.0265 16.045L9.518 12.5535C9.6135 12.458 9.7685 12.458 9.864 12.5535L10.9015 13.591C10.997 13.6865 10.997 13.8415 10.9015 13.937L7.41 17.4285C7.3145 17.524 7.1595 17.524 7.064 17.4285L6.0265 16.391C5.931 16.2955 5.931 16.1405 6.0265 16.045Z" fill="url(#paint2_linear_206_8215)"/>
<path id="Vector_4" d="M7.4365 10.0715L10.928 13.563C11.0235 13.6585 11.0235 13.8135 10.928 13.909L9.8905 14.9465C9.795 15.042 9.64 15.042 9.5445 14.9465L6.053 11.455C5.9575 11.3595 5.9575 11.2045 6.053 11.109L7.0905 10.0715C7.1865 9.976 7.341 9.976 7.4365 10.0715Z" fill="url(#paint3_linear_206_8215)"/>
<path id="Vector_5" d="M12.75 16H18.25C18.388 16 18.5 16.112 18.5 16.25V17.25C18.5 17.388 18.388 17.5 18.25 17.5H12.75C12.612 17.5 12.5 17.388 12.5 17.25V16.25C12.5 16.112 12.612 16 12.75 16Z" fill="url(#paint4_linear_206_8215)"/>
</g>
<defs>
<linearGradient id="paint0_linear_206_8215" x1="12" y1="3.354" x2="12" y2="7.4885" gradientUnits="userSpaceOnUse">
<stop stop-color="#EBA600"/>
<stop offset="1" stop-color="#C28200"/>
</linearGradient>
<linearGradient id="paint1_linear_206_8215" x1="12" y1="5.427" x2="12" y2="20.4915" gradientUnits="userSpaceOnUse">
<stop stop-color="#FFD869"/>
<stop offset="1" stop-color="#FEC52B"/>
</linearGradient>
<linearGradient id="paint2_linear_206_8215" x1="6.6085" y1="16.846" x2="9.732" y2="13.7225" gradientUnits="userSpaceOnUse">
<stop stop-color="#1552B3"/>
<stop offset="0.275" stop-color="#144FAE"/>
<stop offset="0.623" stop-color="#12479E"/>
<stop offset="0.86" stop-color="#103F8F"/>
</linearGradient>
<linearGradient id="paint3_linear_206_8215" x1="6.671" y1="10.689" x2="10.409" y2="14.427" gradientUnits="userSpaceOnUse">
<stop stop-color="#1F60C2"/>
<stop offset="1" stop-color="#195BBC"/>
</linearGradient>
<linearGradient id="paint4_linear_206_8215" x1="12.5" y1="16.75" x2="18.5" y2="16.75" gradientUnits="userSpaceOnUse">
<stop stop-color="#1F60C2"/>
<stop offset="1" stop-color="#195BBC"/>
</linearGradient>
</defs>
</svg>
