<svg width="24" height="24" viewBox="0 0 24 24" fill="none" xmlns="http://www.w3.org/2000/svg">
<g id="prototype">
<path id="Vector" d="M2.9935 5.5005L2.9925 4.0085C2.992 3.4585 3.4415 3.008 3.9915 3.0075L19.9915 2.992C20.5415 2.9915 20.992 3.441 20.9925 3.991L20.994 5.499C20.9945 5.7755 20.7705 5.9995 20.494 5.9995H3.494C3.218 6 2.994 5.7765 2.9935 5.5005ZM20.5005 12H13C12.724 12 12.5 12.224 12.5 12.5V15.5C12.5 15.776 12.724 16 13 16H20.5035C20.78 16 21.004 15.776 21.0035 15.4995L21.0005 12.4995C21 12.2235 20.7765 12 20.5005 12ZM12.5 17.5V20.499C12.5 20.7755 12.724 20.9995 13.0005 20.999L20.0085 20.992C20.5585 20.9915 21.008 20.541 21.0075 19.991L21.005 17.499C21.0045 17.223 20.781 16.9995 20.505 16.9995H13C12.724 17 12.5 17.224 12.5 17.5ZM12.5 7.5V10.5C12.5 10.776 12.724 11 13 11H20.4985C20.775 11 20.999 10.776 20.9985 10.4995L20.9955 7.4995C20.995 7.2235 20.7715 7 20.4955 7H13C12.724 7 12.5 7.224 12.5 7.5ZM11 7H3.4955C3.219 7 2.995 7.224 2.9955 7.5005L3.0075 20.0085C3.008 20.5585 3.4585 21.008 4.0085 21.0075L11.0005 21.001C11.2765 21.0005 11.5 20.777 11.5 20.501V7.5C11.5 7.224 11.276 7 11 7Z" fill="url(#paint0_linear_206_8238)"/>
</g>
<defs>
<linearGradient id="paint0_linear_206_8238" x1="12" y1="3.053" x2="12" y2="21.027" gradientUnits="userSpaceOnUse">
<stop stop-color="#33BEF0"/>
<stop offset="1" stop-color="#0A85D9"/>
</linearGradient>
</defs>
</svg>
