<svg width="24" height="24" viewBox="0 0 24 24" fill="none" xmlns="http://www.w3.org/2000/svg">
<g id="purchase-order">
<path id="Vector" d="M18 21H5C4.4475 21 4 20.5525 4 20V4C4 3.4475 4.4475 3 5 3H18C18.5525 3 19 3.4475 19 4V20C19 20.5525 18.5525 21 18 21Z" fill="url(#paint0_linear_206_8240)"/>
<path id="Vector_2" d="M17 20V18.5H2V20C2 20.5525 2.4475 21 3 21H18C17.4475 21 17 20.5525 17 20Z" fill="url(#paint1_linear_206_8240)"/>
<path id="Vector_3" d="M16.25 9.5H9.75C9.612 9.5 9.5 9.388 9.5 9.25V8.25C9.5 8.112 9.612 8 9.75 8H16.25C16.388 8 16.5 8.112 16.5 8.25V9.25C16.5 9.388 16.388 9.5 16.25 9.5Z" fill="#057093"/>
<path id="Vector_4" d="M16.25 12.5H9.75C9.612 12.5 9.5 12.388 9.5 12.25V11.25C9.5 11.112 9.612 11 9.75 11H16.25C16.388 11 16.5 11.112 16.5 11.25V12.25C16.5 12.388 16.388 12.5 16.25 12.5Z" fill="#057093"/>
<path id="Vector_5" d="M16.25 15.5H9.75C9.612 15.5 9.5 15.388 9.5 15.25V14.25C9.5 14.112 9.612 14 9.75 14H16.25C16.388 14 16.5 14.112 16.5 14.25V15.25C16.5 15.388 16.388 15.5 16.25 15.5Z" fill="#057093"/>
<path id="Vector_6" d="M7.75 9.5H6.75C6.612 9.5 6.5 9.388 6.5 9.25V8.25C6.5 8.112 6.612 8 6.75 8H7.75C7.888 8 8 8.112 8 8.25V9.25C8 9.388 7.888 9.5 7.75 9.5Z" fill="#057093"/>
<path id="Vector_7" d="M7.75 12.5H6.75C6.612 12.5 6.5 12.388 6.5 12.25V11.25C6.5 11.112 6.612 11 6.75 11H7.75C7.888 11 8 11.112 8 11.25V12.25C8 12.388 7.888 12.5 7.75 12.5Z" fill="#057093"/>
<path id="Vector_8" d="M7.75 15.5H6.75C6.612 15.5 6.5 15.388 6.5 15.25V14.25C6.5 14.112 6.612 14 6.75 14H7.75C7.888 14 8 14.112 8 14.25V15.25C8 15.388 7.888 15.5 7.75 15.5Z" fill="#057093"/>
</g>
<defs>
<linearGradient id="paint0_linear_206_8240" x1="6.476" y1="3.715" x2="17.193" y2="21.3885" gradientUnits="userSpaceOnUse">
<stop stop-color="#7DD8F3"/>
<stop offset="1" stop-color="#45B0D0"/>
</linearGradient>
<linearGradient id="paint1_linear_206_8240" x1="10" y1="18.642" x2="10" y2="21.005" gradientUnits="userSpaceOnUse">
<stop stop-color="#0176D0"/>
<stop offset="1" stop-color="#16538C"/>
</linearGradient>
</defs>
</svg>
