<svg width="24" height="24" viewBox="0 0 24 24" fill="none" xmlns="http://www.w3.org/2000/svg">
<g id="qr-code">
<path id="Vector" d="M20.5 10.5C21.0525 10.5 21.5 10.0525 21.5 9.5V3.5C21.5 2.9475 21.0525 2.5 20.5 2.5H14.5C13.9475 2.5 13.5 2.9475 13.5 3.5V5H12V7H13.5V9.5C13.5 10.0525 13.9475 10.5 14.5 10.5H17.5V12.5H19.5V10.5H20.5ZM15.5 8.5V4.5H19.5V8.5H15.5Z" fill="url(#paint0_linear_206_8264)"/>
<path id="Vector_2" d="M19.5 17.5H17.5V19.5H19.5V17.5Z" fill="url(#paint1_linear_206_8264)"/>
<path id="Vector_3" d="M21.5 15.5H19.5V17.5H21.5V15.5Z" fill="url(#paint2_linear_206_8264)"/>
<path id="Vector_4" d="M20.5 21.5C21.0525 21.5 21.5 21.0525 21.5 20.5V19.5H19.5V21.5H20.5Z" fill="url(#paint3_linear_206_8264)"/>
<path id="Vector_5" d="M17.5 15.5H15.5V17.5H17.5V15.5Z" fill="url(#paint4_linear_206_8264)"/>
<path id="Vector_6" d="M17.5 19.5H15.5V21.5H17.5V19.5Z" fill="url(#paint5_linear_206_8264)"/>
<path id="Vector_7" d="M7.5 16.5H5.5V18.5H7.5V16.5Z" fill="url(#paint6_linear_206_8264)"/>
<path id="Vector_8" d="M7.5 5.5H5.5V7.5H7.5V5.5Z" fill="url(#paint7_linear_206_8264)"/>
<path id="Vector_9" d="M18.5 5.5H16.5V7.5H18.5V5.5Z" fill="url(#paint8_linear_206_8264)"/>
<path id="Vector_10" d="M21.5 12.5H19.5V14.5H21.5V12.5Z" fill="url(#paint9_linear_206_8264)"/>
<path id="Vector_11" d="M13.5 12.5V10.5H10.5V12.5H8.5V13.5H6.5V12.5H4.5V13.5H3.5C2.9475 13.5 2.5 13.9475 2.5 14.5V20.5C2.5 21.0525 2.9475 21.5 3.5 21.5H9.5C10.0525 21.5 10.5 21.0525 10.5 20.5V18.5H12.5V19.5H14.5V14.5H15.5H17.5V12.5H15.5H13.5ZM8.5 19.5H4.5V15.5H8.5V19.5ZM12.5 16.5H10.5V14.5H11.5H12.5V16.5Z" fill="url(#paint10_linear_206_8264)"/>
<path id="Vector_12" d="M8.5 10.5H9.5C10.0525 10.5 10.5 10.0525 10.5 9.5V9H12V7H10.5V3.5C10.5 2.9475 10.0525 2.5 9.5 2.5H3.5C2.9475 2.5 2.5 2.9475 2.5 3.5V9.5C2.5 10.0525 2.9475 10.5 3.5 10.5H6.5V12.5H8.5V10.5ZM4.5 8.5V4.5H8.5V8.5H4.5Z" fill="url(#paint11_linear_206_8264)"/>
</g>
<defs>
<linearGradient id="paint0_linear_206_8264" x1="15.532" y1="2.747" x2="25.5105" y2="22.2665" gradientUnits="userSpaceOnUse">
<stop stop-color="#2AA4F4"/>
<stop offset="1" stop-color="#007AD9"/>
</linearGradient>
<linearGradient id="paint1_linear_206_8264" x1="17.9745" y1="17.4715" x2="20.353" y2="22.1245" gradientUnits="userSpaceOnUse">
<stop stop-color="#2AA4F4"/>
<stop offset="1" stop-color="#007AD9"/>
</linearGradient>
<linearGradient id="paint2_linear_206_8264" x1="19.9745" y1="15.4715" x2="22.353" y2="20.1245" gradientUnits="userSpaceOnUse">
<stop stop-color="#2AA4F4"/>
<stop offset="1" stop-color="#007AD9"/>
</linearGradient>
<linearGradient id="paint3_linear_206_8264" x1="19.963" y1="19.45" x2="22.0365" y2="23.5055" gradientUnits="userSpaceOnUse">
<stop stop-color="#2AA4F4"/>
<stop offset="1" stop-color="#007AD9"/>
</linearGradient>
<linearGradient id="paint4_linear_206_8264" x1="15.9745" y1="15.4715" x2="18.353" y2="20.1245" gradientUnits="userSpaceOnUse">
<stop stop-color="#2AA4F4"/>
<stop offset="1" stop-color="#007AD9"/>
</linearGradient>
<linearGradient id="paint5_linear_206_8264" x1="15.9745" y1="19.4715" x2="18.353" y2="24.1245" gradientUnits="userSpaceOnUse">
<stop stop-color="#2AA4F4"/>
<stop offset="1" stop-color="#007AD9"/>
</linearGradient>
<linearGradient id="paint6_linear_206_8264" x1="5.9745" y1="16.4715" x2="8.353" y2="21.1245" gradientUnits="userSpaceOnUse">
<stop stop-color="#2AA4F4"/>
<stop offset="1" stop-color="#007AD9"/>
</linearGradient>
<linearGradient id="paint7_linear_206_8264" x1="5.9745" y1="5.4715" x2="8.353" y2="10.1245" gradientUnits="userSpaceOnUse">
<stop stop-color="#2AA4F4"/>
<stop offset="1" stop-color="#007AD9"/>
</linearGradient>
<linearGradient id="paint8_linear_206_8264" x1="16.9745" y1="5.4715" x2="19.353" y2="10.1245" gradientUnits="userSpaceOnUse">
<stop stop-color="#2AA4F4"/>
<stop offset="1" stop-color="#007AD9"/>
</linearGradient>
<linearGradient id="paint9_linear_206_8264" x1="19.9745" y1="12.4715" x2="22.353" y2="17.1245" gradientUnits="userSpaceOnUse">
<stop stop-color="#2AA4F4"/>
<stop offset="1" stop-color="#007AD9"/>
</linearGradient>
<linearGradient id="paint10_linear_206_8264" x1="7.538" y1="11.8045" x2="17.07" y2="30.451" gradientUnits="userSpaceOnUse">
<stop stop-color="#2AA4F4"/>
<stop offset="1" stop-color="#007AD9"/>
</linearGradient>
<linearGradient id="paint11_linear_206_8264" x1="4.5715" y1="2.727" x2="14.5495" y2="22.2465" gradientUnits="userSpaceOnUse">
<stop stop-color="#2AA4F4"/>
<stop offset="1" stop-color="#007AD9"/>
</linearGradient>
</defs>
</svg>
