<svg width="24" height="24" viewBox="0 0 24 24" fill="none" xmlns="http://www.w3.org/2000/svg">
<g id="question-mark">
<path id="Vector" d="M11.332 18.026C10.2885 18.026 9.092 18.6815 9.092 20.001C9.092 21.3205 10.2425 22 11.332 22C12.4215 22 13.536 21.3905 13.536 20.001C13.536 18.611 12.3755 18.026 11.332 18.026Z" fill="url(#paint0_linear_206_8277)"/>
<path id="Vector_2" d="M11.4525 2C9.303 2 7.6415 2.711 6.774 3.193C6.6025 3.2885 6.5 3.466 6.5 3.662C6.5 4.2905 6.5 5.735 6.5 6.633C6.5 6.9335 6.842 7.1085 7.0835 6.9295C7.937 6.2955 9.3235 5.5 11 5.5C11.3165 5.5 13.0755 5.5675 13.0755 7.357C13.0755 10.199 9.1305 10.3465 9.1305 14.1785C9.1305 14.6655 9.2835 15.4 9.368 15.77C9.399 15.905 9.517 16 9.6565 16C10.219 16 11.6595 16 12.4425 16C12.691 16 12.8605 15.752 12.77 15.5205C12.662 15.2435 12.5605 14.891 12.5605 14.561C12.561 11.6515 17.5 11.261 17.5 7C17.5 6.1555 17.172 2 11.4525 2Z" fill="url(#paint1_linear_206_8277)"/>
</g>
<defs>
<linearGradient id="paint0_linear_206_8277" x1="5.345" y1="3.511" x2="12.3535" y2="22.8605" gradientUnits="userSpaceOnUse">
<stop stop-color="#33BEF0"/>
<stop offset="1" stop-color="#0A85D9"/>
</linearGradient>
<linearGradient id="paint1_linear_206_8277" x1="10.11" y1="1.785" x2="17.1185" y2="21.1345" gradientUnits="userSpaceOnUse">
<stop stop-color="#33BEF0"/>
<stop offset="1" stop-color="#0A85D9"/>
</linearGradient>
</defs>
</svg>
