<svg width="24" height="24" viewBox="0 0 24 24" fill="none" xmlns="http://www.w3.org/2000/svg">
<g id="renew">
<path id="Vector" d="M21.5 5.5H20V20.5H21.5C22.0525 20.5 22.5 20.0525 22.5 19.5V6.5C22.5 5.9475 22.0525 5.5 21.5 5.5Z" fill="url(#paint0_linear_206_8395)"/>
<path id="Vector_2" d="M20.5 19.5V4.5C20.5 3.9475 20.0525 3.5 19.5 3.5H2.5C1.9475 3.5 1.5 3.9475 1.5 4.5V19.5C1.5 20.0525 1.9475 20.5 2.5 20.5H21.5C20.9475 20.5 20.5 20.0525 20.5 19.5Z" fill="url(#paint1_linear_206_8395)"/>
<path id="Vector_3" d="M18.5 8.5H3.5C3.224 8.5 3 8.276 3 8V7C3 6.724 3.224 6.5 3.5 6.5H18.5C18.776 6.5 19 6.724 19 7V8C19 8.276 18.776 8.5 18.5 8.5Z" fill="white"/>
<path id="Vector_4" d="M9.5 18H3.5C3.224 18 3 17.776 3 17.5V11C3 10.724 3.224 10.5 3.5 10.5H9.5C9.776 10.5 10 10.724 10 11V17.5C10 17.776 9.776 18 9.5 18Z" fill="white"/>
<path id="Vector_5" d="M19 12H12V11C12 10.724 12.224 10.5 12.5 10.5H18.5C18.776 10.5 19 10.724 19 11V12Z" fill="white"/>
<path id="Vector_6" d="M19 12H12V13.5H19V12Z" fill="url(#paint2_linear_206_8395)"/>
<path id="Vector_7" d="M19 13.5H12V15H19V13.5Z" fill="url(#paint3_linear_206_8395)"/>
<path id="Vector_8" d="M19 15H12V16.5H19V15Z" fill="url(#paint4_linear_206_8395)"/>
<path id="Vector_9" d="M18.5 18H12.5C12.224 18 12 17.776 12 17.5V16.5H19V17.5C19 17.776 18.776 18 18.5 18Z" fill="url(#paint5_linear_206_8395)"/>
<path id="Vector_10" d="M19 13C15.6915 13 13 15.6915 13 19C13 19.5185 13.073 20.0195 13.1975 20.5H21.5C22.0525 20.5 22.5 20.0525 22.5 19.5V14.1365C21.5135 13.4245 20.307 13 19 13Z" fill="url(#paint6_radial_206_8395)"/>
<path id="Vector_11" d="M24 19C24 21.761 21.761 24 19 24C16.239 24 14 21.761 14 19C14 16.239 16.239 14 19 14C21.761 14 24 16.239 24 19Z" fill="url(#paint7_linear_206_8395)"/>
<path id="Vector_12" opacity="0.05" d="M19.005 22.2685C18.1415 22.2685 17.325 21.952 16.7035 21.378C15.4955 20.2595 15.2885 18.387 16.1905 17.0235L16.051 16.884C15.8585 16.6915 15.802 16.405 15.906 16.154C16.0095 15.903 16.252 15.741 16.524 15.741H18.041C18.449 15.741 18.7815 16.0735 18.7815 16.4815V17.9985C18.7815 18.368 18.4805 18.6685 18.1105 18.6685C17.9375 18.6685 17.7735 18.602 17.648 18.4815C17.5865 18.682 17.5695 18.895 17.599 19.104C17.656 19.504 17.877 19.852 18.221 20.083C18.4495 20.237 18.72 20.318 19.003 20.318C19.286 20.318 19.5565 20.237 19.785 20.083C20.133 19.849 20.3565 19.497 20.4135 19.092C20.4705 18.6905 20.355 18.283 20.0965 17.975C19.8665 17.7 19.8815 17.3035 20.132 17.053L20.5605 16.6245C20.6875 16.4975 20.863 16.425 21.0435 16.425C21.237 16.425 21.421 16.5075 21.548 16.652C22.7515 18.0195 22.642 20.1405 21.3035 21.3795C20.6835 21.9525 19.867 22.2685 19.005 22.2685Z" fill="black"/>
<path id="Vector_13" opacity="0.07" d="M19.0045 22.0185C18.2045 22.0185 17.448 21.7255 16.8735 21.1945C15.692 20.1005 15.5515 18.264 16.516 16.9965L16.2275 16.7075C16.107 16.587 16.071 16.4075 16.1365 16.25C16.2015 16.093 16.3535 15.991 16.5235 15.991H18.0405C18.311 15.991 18.531 16.211 18.531 16.4815V17.9985C18.531 18.23 18.342 18.4185 18.11 18.4185C17.999 18.4185 17.894 18.3745 17.8145 18.295L17.567 18.0475C17.375 18.374 17.297 18.76 17.351 19.1395C17.4185 19.6105 17.677 20.0195 18.081 20.291C18.3505 20.472 18.6695 20.5685 19.003 20.5685C19.3365 20.5685 19.6555 20.4725 19.925 20.291C20.332 20.017 20.594 19.604 20.6615 19.1275C20.7285 18.656 20.5925 18.1775 20.289 17.8145C20.1425 17.6395 20.1515 17.388 20.3095 17.23L20.738 16.8015C20.8185 16.721 20.93 16.675 21.044 16.675C21.1655 16.675 21.2815 16.727 21.361 16.817C22.4755 18.084 22.3735 20.048 21.134 21.196C20.5605 21.726 19.804 22.0185 19.0045 22.0185Z" fill="black"/>
<path id="Vector_14" d="M21.175 16.982C21.108 16.9055 20.9875 16.9055 20.9155 16.9775L20.487 17.406C20.419 17.474 20.42 17.58 20.4815 17.6535C21.194 18.505 21.0555 19.832 20.065 20.498C19.431 20.9245 18.576 20.9245 17.942 20.498C16.9525 19.8325 16.8235 18.5125 17.5345 17.6615L17.9915 18.1185C18.0985 18.2255 18.281 18.1495 18.281 17.9985V16.4815C18.281 16.3485 18.173 16.2405 18.04 16.2405H16.523C16.372 16.2405 16.2965 16.423 16.403 16.53L16.852 16.979C15.8215 18.14 15.8775 19.9325 17.042 21.0105C18.133 22.0205 19.872 22.021 20.9635 21.011C22.1265 19.9365 22.1965 18.1435 21.175 16.982Z" fill="white"/>
</g>
<defs>
<linearGradient id="paint0_linear_206_8395" x1="20.509" y1="13" x2="22.588" y2="13" gradientUnits="userSpaceOnUse">
<stop stop-color="#0B59A2"/>
<stop offset="1" stop-color="#0077D2"/>
</linearGradient>
<linearGradient id="paint1_linear_206_8395" x1="11.5" y1="3.46434" x2="11.5" y2="20.4386" gradientUnits="userSpaceOnUse">
<stop stop-color="#2AA4F4"/>
<stop offset="1" stop-color="#007AD9"/>
</linearGradient>
<linearGradient id="paint2_linear_206_8395" x1="13.5508" y1="11.7765" x2="13.8631" y2="13.9162" gradientUnits="userSpaceOnUse">
<stop stop-color="#FCFCFC"/>
<stop offset="0.95" stop-color="#C3C9CD"/>
</linearGradient>
<linearGradient id="paint3_linear_206_8395" x1="13.5508" y1="13.2765" x2="13.8631" y2="15.4162" gradientUnits="userSpaceOnUse">
<stop stop-color="#FCFCFC"/>
<stop offset="0.95" stop-color="#C3C9CD"/>
</linearGradient>
<linearGradient id="paint4_linear_206_8395" x1="13.5508" y1="14.7765" x2="13.8631" y2="16.9162" gradientUnits="userSpaceOnUse">
<stop stop-color="#FCFCFC"/>
<stop offset="0.95" stop-color="#C3C9CD"/>
</linearGradient>
<linearGradient id="paint5_linear_206_8395" x1="13.5508" y1="16.2765" x2="13.8631" y2="18.4162" gradientUnits="userSpaceOnUse">
<stop stop-color="#FCFCFC"/>
<stop offset="0.95" stop-color="#C3C9CD"/>
</linearGradient>
<radialGradient id="paint6_radial_206_8395" cx="0" cy="0" r="1" gradientUnits="userSpaceOnUse" gradientTransform="translate(18.9625 19.0265) scale(5.977)">
<stop/>
<stop offset="1" stop-opacity="0"/>
</radialGradient>
<linearGradient id="paint7_linear_206_8395" x1="13.883" y1="13.883" x2="21.562" y2="21.562" gradientUnits="userSpaceOnUse">
<stop stop-color="#05ACB3"/>
<stop offset="1" stop-color="#038387"/>
</linearGradient>
</defs>
</svg>
