<svg width="24" height="24" viewBox="0 0 24 24" fill="none" xmlns="http://www.w3.org/2000/svg">
<g id="rent">
<path id="Vector" d="M20 21.5H4C3.4475 21.5 3 21.0525 3 20.5V10L12 1.5L21 10V20.5C21 21.0525 20.5525 21.5 20 21.5Z" fill="url(#paint0_linear_206_8410)"/>
<path id="Vector_2" opacity="0.05" d="M12 2C11.763 2 11.526 2.084 11.337 2.2515L8.6575 4.657L3 10V12.695L12 4.714L21 12.695V10L15.3425 4.657L12.663 2.2515C12.474 2.084 12.237 2 12 2Z" fill="black"/>
<path id="Vector_3" opacity="0.07" d="M12 1.5C11.763 1.5 11.526 1.5835 11.337 1.75L8.6575 4.142L3 9.4545V12.134L12 4.1985L21 12.134V9.4545L15.3425 4.142L12.663 1.75C12.474 1.5835 12.237 1.5 12 1.5Z" fill="black"/>
<path id="Vector_4" d="M22.2475 9.7535L12.663 1.2515C12.474 1.084 12.237 1 12 1C11.763 1 11.526 1.084 11.337 1.2515L1.75249 9.7535C1.54249 9.9405 1.52799 10.2635 1.72049 10.4685L2.53849 11.341C2.72299 11.538 3.03049 11.553 3.23349 11.3745L12 3.714L20.7665 11.375C20.969 11.553 21.277 11.5385 21.4615 11.3415L22.2795 10.469C22.472 10.2635 22.4575 9.9405 22.2475 9.7535Z" fill="#21A366"/>
<path id="Vector_5" d="M14.5 15.0965C14.5 12.648 10.8855 13.1265 10.8855 11.68C10.8855 10.925 11.7345 10.885 12 10.885C12.638 10.885 13.254 11.056 13.7235 11.2765C13.8715 11.346 14.0415 11.243 14.0415 11.08V10.3675C14.0415 10.1285 13.9515 9.98698 13.808 9.93098C13.486 9.80598 13.024 9.71448 12.3405 9.69198V8.90798C12.3405 8.81398 12.2645 8.73798 12.1705 8.73798H11.8305C11.7365 8.73798 11.6605 8.81398 11.6605 8.90798V9.70448C10.5995 9.80748 9.5 10.406 9.5 11.798C9.5 14.336 13.1145 13.8325 13.1145 15.169C13.1145 15.589 12.846 15.951 12 15.951C11.1495 15.951 10.368 15.654 9.9355 15.433C9.79 15.3585 9.6185 15.4665 9.6185 15.63V16.441C9.6185 16.5965 9.712 16.735 9.8555 16.7955C10.368 17.013 11.0555 17.178 11.66 17.226V18.0925C11.66 18.1865 11.736 18.2625 11.83 18.2625H12.17C12.264 18.2625 12.34 18.1865 12.34 18.0925V17.228C13.9265 17.096 14.5 16.034 14.5 15.0965Z" fill="white"/>
</g>
<defs>
<linearGradient id="paint0_linear_206_8410" x1="5.6361" y1="4.429" x2="19.7" y2="17.0865" gradientUnits="userSpaceOnUse">
<stop stop-color="#21AD64"/>
<stop offset="1" stop-color="#088242"/>
</linearGradient>
</defs>
</svg>
