<svg width="24" height="24" viewBox="0 0 24 24" fill="none" xmlns="http://www.w3.org/2000/svg">
<g id="request-service">
<path id="Vector" d="M21 4H3C2.4475 4 2 4.4475 2 5V18C2 18.5525 2.4475 19 3 19H7V22.999C7 23.4445 7.5385 23.6675 7.8535 23.3525L12.206 19H21C21.5525 19 22 18.5525 22 18V5C22 4.4475 21.5525 4 21 4Z" fill="url(#paint0_linear_206_8431)"/>
<path id="Vector_2" opacity="0.05" d="M17.914 8.293C17.856 8.0575 17.6745 7.8705 17.4405 7.805C17.2035 7.74 16.949 7.8055 16.7755 7.9795L15.875 8.88C15.6665 9.087 15.3275 9.0865 15.1205 8.8795C15.0195 8.7785 14.964 8.6445 14.964 8.502C14.964 8.3595 15.0195 8.2255 15.121 8.124L16.02 7.2245C16.1935 7.051 16.2605 6.797 16.1945 6.56C16.129 6.3255 15.9425 6.144 15.707 6.0865C15.2915 5.9845 14.8675 5.973 14.4475 6.0525C13.1495 6.2965 12.1495 7.3795 12.016 8.6855C11.978 9.057 12.0115 9.4245 12.105 9.774L11.4215 10.4575L9.629 8.6645L9.581 8.374C9.5385 8.1145 9.39 7.8795 9.1745 7.729L7.7155 6.7105C7.417 6.501 7.0135 6.536 6.7565 6.794L6.294 7.2565C6.0375 7.514 6.002 7.9165 6.21 8.215L7.2305 9.6745C7.381 9.89 7.616 10.038 7.8745 10.0805L8.1655 10.129L9.9575 11.9225L7.44 14.44C6.855 15.025 6.855 15.976 7.44 16.561C7.7225 16.844 8.0995 17 8.5 17C8.9005 17 9.2775 16.844 9.5605 16.5605L14.2255 11.8955C14.477 11.9625 14.737 12 15.002 12C15.106 12 15.2105 11.9945 15.3155 11.984C16.621 11.8495 17.7035 10.8495 17.948 9.552C18.0275 9.1305 18.016 8.7065 17.914 8.293Z" fill="black"/>
<path id="Vector_3" opacity="0.05" d="M14.3035 12.6825C14.108 12.487 13.792 12.487 13.5965 12.6825L12.182 14.0965C12.088 14.1905 12.0355 14.317 12.0355 14.45C12.0355 14.583 12.088 14.71 12.182 14.8035L13.939 16.5605C14.2225 16.844 14.5995 17 15 17C15.4005 17 15.7775 16.844 16.0605 16.5605C16.6455 15.9755 16.6455 15.0245 16.0605 14.4395L14.3035 12.6825Z" fill="black"/>
<path id="Vector_4" opacity="0.07" d="M17.671 8.35249C17.6345 8.20249 17.523 8.08799 17.3735 8.04649C17.2235 8.00449 17.0625 8.04699 16.9525 8.15649L16.0525 9.05649C15.747 9.36249 15.2495 9.36199 14.944 9.05649C14.796 8.90849 14.7145 8.71199 14.7145 8.50249C14.7145 8.29299 14.7965 8.09649 14.9445 7.94849L15.844 7.04799C15.954 6.93849 15.996 6.77749 15.954 6.62799C15.913 6.47999 15.7955 6.36599 15.6475 6.32949C15.2675 6.23599 14.8795 6.22599 14.494 6.29849C13.3045 6.52249 12.3875 7.51499 12.265 8.71099C12.225 9.10099 12.27 9.48599 12.3865 9.84649L11.4215 10.8115L9.3955 8.78549L9.334 8.41549C9.3025 8.22199 9.192 8.04749 9.0315 7.93499L7.572 6.91599C7.373 6.77599 7.1045 6.79999 6.933 6.97149L6.471 7.43349C6.3 7.60499 6.2765 7.87349 6.415 8.07199L7.435 9.53199C7.5475 9.69249 7.7225 9.80249 7.915 9.83399L8.2855 9.89499L10.311 11.9225L7.617 14.6165C7.1295 15.104 7.1295 15.897 7.617 16.384C7.852 16.62 8.166 16.75 8.5 16.75C8.834 16.75 9.148 16.62 9.384 16.384L14.1615 11.6065C14.432 11.6935 14.7125 11.7505 15.0025 11.7505C15.098 11.7505 15.194 11.7455 15.2905 11.7355C16.4865 11.613 17.4785 10.696 17.7025 9.50649C17.775 9.11949 17.7645 8.73149 17.671 8.35249Z" fill="black"/>
<path id="Vector_5" opacity="0.07" d="M13.95 12.6825L12.1825 14.45L14.1165 16.3835C14.352 16.62 14.666 16.75 15 16.75C15.334 16.75 15.648 16.62 15.884 16.384C16.3715 15.8965 16.3715 15.1035 15.884 14.6165L13.95 12.6825Z" fill="black"/>
<path id="Vector_6" d="M11 12.258L8.405 9.66103L7.9555 9.58653C7.8275 9.56553 7.7135 9.49353 7.6395 9.38753L6.62 7.92803C6.551 7.82903 6.5625 7.69503 6.648 7.60953L7.11 7.14753C7.1955 7.06203 7.3295 7.05053 7.4285 7.11953L8.8885 8.13903C8.995 8.21303 9.0665 8.32703 9.088 8.45503L9.1625 8.90453L11.759 11.501L11 12.258Z" fill="white"/>
<path id="Vector_7" d="M16.229 9.23303C15.8255 9.63653 15.1705 9.63653 14.767 9.23303C14.3635 8.82953 14.3635 8.17453 14.767 7.77103C14.8655 7.67253 15.2625 7.27553 15.667 6.87103C15.764 6.77403 15.721 6.60453 15.5875 6.57203C15.2595 6.49153 14.907 6.47453 14.54 6.54353C13.464 6.74653 12.625 7.64703 12.513 8.73603C12.35 10.3245 13.6755 11.6495 15.264 11.4865C16.3535 11.3745 17.2535 10.5355 17.456 9.45953C17.525 9.09253 17.508 8.74003 17.4275 8.41253C17.3945 8.27953 17.2255 8.23603 17.1285 8.33303C16.7245 8.73753 16.3275 9.13453 16.229 9.23303Z" fill="white"/>
<path id="Vector_8" d="M13.043 9.54303C13.043 9.54303 7.9885 14.5975 7.793 14.793C7.4025 15.1835 7.4025 15.8165 7.793 16.207C8.1835 16.5975 8.8165 16.5975 9.207 16.207C9.4025 16.0115 14.457 10.957 14.457 10.957L13.043 9.54303Z" fill="white"/>
<path id="Vector_9" d="M12.536 14.45C12.536 14.45 14.0975 16.0115 14.293 16.207C14.6835 16.5975 15.3165 16.5975 15.707 16.207C16.0975 15.8165 16.0975 15.1835 15.707 14.793C15.5115 14.5975 13.95 13.036 13.95 13.036L12.536 14.45Z" fill="white"/>
</g>
<defs>
<linearGradient id="paint0_linear_206_8431" x1="6.343" y1="2.296" x2="17.79" y2="20.9205" gradientUnits="userSpaceOnUse">
<stop stop-color="#33BEF0"/>
<stop offset="1" stop-color="#0A85D9"/>
</linearGradient>
</defs>
</svg>
