<svg width="24" height="24" viewBox="0 0 24 24" fill="none" xmlns="http://www.w3.org/2000/svg">
<g id="rescheduling-a-task">
<path id="Vector" d="M3 20V6H21V20C21 20.55 20.55 21 20 21H4C3.45 21 3 20.55 3 20Z" fill="url(#paint0_linear_206_8441)"/>
<path id="Vector_2" d="M21 4V7H3V4C3 3.45 3.45 3 4 3H20C20.55 3 21 3.45 21 4Z" fill="url(#paint1_linear_206_8441)"/>
<path id="Vector_3" opacity="0.05" d="M17.75 6.25C16.9215 6.25 16.25 5.5785 16.25 4.75V3H19.25V4.75C19.25 5.5785 18.5785 6.25 17.75 6.25Z" fill="black"/>
<path id="Vector_4" opacity="0.07" d="M17.75 5.875C17.1285 5.875 16.625 5.3715 16.625 4.75V3H18.875V4.75C18.875 5.3715 18.3715 5.875 17.75 5.875Z" fill="black"/>
<path id="Vector_5" opacity="0.05" d="M6.25 6.25C5.4215 6.25 4.75 5.5785 4.75 4.75V3H7.75V4.75C7.75 5.5785 7.0785 6.25 6.25 6.25Z" fill="black"/>
<path id="Vector_6" opacity="0.07" d="M6.25 5.875C5.6285 5.875 5.125 5.3715 5.125 4.75V3H7.375V4.75C7.375 5.3715 6.8715 5.875 6.25 5.875Z" fill="black"/>
<path id="Vector_7" d="M6.25 5.5C5.836 5.5 5.5 5.164 5.5 4.75V2.75C5.5 2.336 5.836 2 6.25 2C6.664 2 7 2.336 7 2.75V4.75C7 5.164 6.664 5.5 6.25 5.5Z" fill="#3CCBF4"/>
<path id="Vector_8" d="M15 13.25V14.75C15 14.888 14.888 15 14.75 15H13.25C13.112 15 13 14.888 13 14.75V13.25C13 13.112 13.112 13 13.25 13H14.75C14.888 13 15 13.112 15 13.25Z" fill="url(#paint2_linear_206_8441)"/>
<path id="Vector_9" d="M11 13.25V14.75C11 14.888 10.888 15 10.75 15H9.25C9.112 15 9 14.888 9 14.75V13.25C9 13.112 9.112 13 9.25 13H10.75C10.888 13 11 13.112 11 13.25Z" fill="url(#paint3_linear_206_8441)"/>
<path id="Vector_10" d="M7 9.75V11.25C7 11.388 6.888 11.5 6.75 11.5H5.25C5.112 11.5 5 11.388 5 11.25V9.75C5 9.612 5.112 9.5 5.25 9.5H6.75C6.888 9.5 7 9.612 7 9.75Z" fill="white"/>
<path id="Vector_11" d="M19 16.75V18.25C19 18.388 18.888 18.5 18.75 18.5H17.25C17.112 18.5 17 18.388 17 18.25V16.75C17 16.612 17.112 16.5 17.25 16.5H18.75C18.888 16.5 19 16.612 19 16.75Z" fill="white"/>
<path id="Vector_12" d="M15 16.75V18.25C15 18.388 14.888 18.5 14.75 18.5H13.25C13.112 18.5 13 18.388 13 18.25V16.75C13 16.612 13.112 16.5 13.25 16.5H14.75C14.888 16.5 15 16.612 15 16.75Z" fill="url(#paint4_linear_206_8441)"/>
<path id="Vector_13" d="M11 16.75V18.25C11 18.388 10.888 18.5 10.75 18.5H9.25C9.112 18.5 9 18.388 9 18.25V16.75C9 16.612 9.112 16.5 9.25 16.5H10.75C10.888 16.5 11 16.612 11 16.75Z" fill="url(#paint5_linear_206_8441)"/>
<path id="Vector_14" d="M7 13.25V14.75C7 14.888 6.888 15 6.75 15H5.25C5.112 15 5 14.888 5 14.75V13.25C5 13.112 5.112 13 5.25 13H6.75C6.888 13 7 13.112 7 13.25Z" fill="url(#paint6_linear_206_8441)"/>
<path id="Vector_15" d="M7 16.75V18.25C7 18.388 6.888 18.5 6.75 18.5H5.25C5.112 18.5 5 18.388 5 18.25V16.75C5 16.612 5.112 16.5 5.25 16.5H6.75C6.888 16.5 7 16.612 7 16.75Z" fill="url(#paint7_linear_206_8441)"/>
<path id="Vector_16" d="M17.75 5.5C17.336 5.5 17 5.164 17 4.75V2.75C17 2.336 17.336 2 17.75 2C18.164 2 18.5 2.336 18.5 2.75V4.75C18.5 5.164 18.164 5.5 17.75 5.5Z" fill="#3CCBF4"/>
<path id="Vector_17" d="M18.5 14H17.5V11H9.25C9.112 11 9 10.888 9 10.75V10.25C9 10.112 9.112 10 9.25 10H17.5C18.0525 10 18.5 10.4475 18.5 11V14Z" fill="white"/>
<path id="Vector_18" d="M17.823 14.823L16.9265 13.9265C16.7695 13.7695 16.881 13.5 17.1035 13.5H18.8965C19.119 13.5 19.231 13.7695 19.0735 13.927L18.177 14.8235C18.079 14.921 17.921 14.921 17.823 14.823Z" fill="white"/>
</g>
<defs>
<linearGradient id="paint0_linear_206_8441" x1="3.207" y1="6.831" x2="20.887" y2="19.744" gradientUnits="userSpaceOnUse">
<stop stop-color="#28AFEA"/>
<stop offset="1" stop-color="#047ED6"/>
</linearGradient>
<linearGradient id="paint1_linear_206_8441" x1="3.21" y1="3.304" x2="20.599" y2="6.84" gradientUnits="userSpaceOnUse">
<stop stop-color="#0077D2"/>
<stop offset="1" stop-color="#0B59A2"/>
</linearGradient>
<linearGradient id="paint2_linear_206_8441" x1="13.7307" y1="13.0872" x2="14.1189" y2="15.222" gradientUnits="userSpaceOnUse">
<stop stop-color="#32BDEF"/>
<stop offset="1" stop-color="#1EA2E4"/>
</linearGradient>
<linearGradient id="paint3_linear_206_8441" x1="9.7307" y1="13.0872" x2="10.1189" y2="15.222" gradientUnits="userSpaceOnUse">
<stop stop-color="#32BDEF"/>
<stop offset="1" stop-color="#1EA2E4"/>
</linearGradient>
<linearGradient id="paint4_linear_206_8441" x1="13.7307" y1="16.5872" x2="14.1189" y2="18.722" gradientUnits="userSpaceOnUse">
<stop stop-color="#32BDEF"/>
<stop offset="1" stop-color="#1EA2E4"/>
</linearGradient>
<linearGradient id="paint5_linear_206_8441" x1="9.7307" y1="16.5872" x2="10.1189" y2="18.722" gradientUnits="userSpaceOnUse">
<stop stop-color="#32BDEF"/>
<stop offset="1" stop-color="#1EA2E4"/>
</linearGradient>
<linearGradient id="paint6_linear_206_8441" x1="5.7307" y1="13.0872" x2="6.11891" y2="15.222" gradientUnits="userSpaceOnUse">
<stop stop-color="#32BDEF"/>
<stop offset="1" stop-color="#1EA2E4"/>
</linearGradient>
<linearGradient id="paint7_linear_206_8441" x1="5.7307" y1="16.5872" x2="6.11891" y2="18.722" gradientUnits="userSpaceOnUse">
<stop stop-color="#32BDEF"/>
<stop offset="1" stop-color="#1EA2E4"/>
</linearGradient>
</defs>
</svg>
