<svg width="24" height="24" viewBox="0 0 24 24" fill="none" xmlns="http://www.w3.org/2000/svg">
<g id="reset">
<path id="Vector" d="M21.5 11.5C21.224 11.5 19.776 11.5 19.5 11.5C19.224 11.5 19 11.724 19 12C19 15.866 15.866 19 12 19C8.134 19 5 15.866 5 12H2C2 17.523 6.477 22 12 22C17.523 22 22 17.523 22 12C22 11.724 21.776 11.5 21.5 11.5Z" fill="url(#paint0_radial_206_8460)"/>
<path id="Vector_2" d="M16.94 1.69198L14.3 6.88548C14.1225 7.23498 14.456 7.62448 14.8285 7.50298L18.5695 6.28348C18.8975 6.17648 19.0765 5.82398 18.9695 5.49598L17.7505 1.75498C17.629 1.38248 17.1175 1.34248 16.94 1.69198Z" fill="url(#paint1_linear_206_8460)"/>
<path id="Vector_3" d="M5 12C5 8.134 8.134 5 12 5C13.1255 5 14.1855 5.272 15.128 5.7445L16.4685 3.0635C15.1225 2.389 13.608 2 12 2C6.477 2 2 6.477 2 12C2 17.523 6.477 22 12 22C9.5895 21.626 5 19.445 5 12Z" fill="url(#paint2_linear_206_8460)"/>
</g>
<defs>
<radialGradient id="paint0_radial_206_8460" cx="0" cy="0" r="1" gradientUnits="userSpaceOnUse" gradientTransform="translate(14.1415 12.562) scale(10.892)">
<stop offset="0.266" stop-color="#0071D4"/>
<stop offset="0.535" stop-color="#006FD2"/>
<stop offset="0.673" stop-color="#0068CA"/>
<stop offset="0.782" stop-color="#005DBD"/>
<stop offset="0.876" stop-color="#004DAA"/>
<stop offset="0.959" stop-color="#003891"/>
<stop offset="1" stop-color="#002B82"/>
</radialGradient>
<linearGradient id="paint1_linear_206_8460" x1="13.7755" y1="0.28248" x2="24.0655" y2="19.628" gradientUnits="userSpaceOnUse">
<stop stop-color="#32BDEF"/>
<stop offset="1" stop-color="#1EA2E4"/>
</linearGradient>
<linearGradient id="paint2_linear_206_8460" x1="6.689" y1="3.996" x2="16.3865" y2="22.227" gradientUnits="userSpaceOnUse">
<stop stop-color="#32BDEF"/>
<stop offset="1" stop-color="#1EA2E4"/>
</linearGradient>
</defs>
</svg>
