<svg width="24" height="24" viewBox="0 0 24 24" fill="none" xmlns="http://www.w3.org/2000/svg">
<g id="resize">
<path id="Vector" d="M19.5 21H5.5C3.85 21 2.5 19.65 2.5 18V4C2.5 3.45 2.95 3 3.5 3H19.5C20.05 3 20.5 3.45 20.5 4V20C20.5 20.55 20.05 21 19.5 21Z" fill="url(#paint0_linear_206_8464)"/>
<path id="Vector_2" d="M11.5 21H3.5C2.95 21 2.5 20.55 2.5 20V12C2.5 11.45 2.95 11 3.5 11H11.5C12.05 11 12.5 11.45 12.5 12V20C12.5 20.55 12.05 21 11.5 21Z" fill="url(#paint1_linear_206_8464)"/>
<path id="Vector_3" d="M10.793 11.3785L16.3995 5.77197L17.728 7.10047L12.1215 12.707L10.793 11.3785Z" fill="url(#paint2_linear_206_8464)"/>
<path id="Vector_4" d="M18.5 8.8965V5.5C18.5 5.224 18.276 5 18 5H14.6035C14.381 5 14.269 5.2695 14.4265 5.427L18.073 9.0735C18.2305 9.2305 18.5 9.119 18.5 8.8965Z" fill="url(#paint3_linear_206_8464)"/>
</g>
<defs>
<linearGradient id="paint0_linear_206_8464" x1="8.17514" y1="3.27635" x2="17.0759" y2="20.4377" gradientUnits="userSpaceOnUse">
<stop stop-color="#7DD8F3"/>
<stop offset="1" stop-color="#45B0D0"/>
</linearGradient>
<linearGradient id="paint1_linear_206_8464" x1="7.5" y1="10.979" x2="7.5" y2="20.9639" gradientUnits="userSpaceOnUse">
<stop stop-color="#2AA4F4"/>
<stop offset="1" stop-color="#007AD9"/>
</linearGradient>
<linearGradient id="paint2_linear_206_8464" x1="14.2605" y1="5.75743" x2="14.2605" y2="12.6819" gradientUnits="userSpaceOnUse">
<stop stop-color="#2AA4F4"/>
<stop offset="1" stop-color="#007AD9"/>
</linearGradient>
<linearGradient id="paint3_linear_206_8464" x1="16.4264" y1="4.9913" x2="16.4264" y2="9.13193" gradientUnits="userSpaceOnUse">
<stop stop-color="#2AA4F4"/>
<stop offset="1" stop-color="#007AD9"/>
</linearGradient>
</defs>
</svg>
