<svg width="24" height="24" viewBox="0 0 24 24" fill="none" xmlns="http://www.w3.org/2000/svg">
<g id="restaurant-menu">
<path id="Vector" d="M12 21C12.8284 21 13.5 20.3284 13.5 19.5C13.5 18.6716 12.8284 18 12 18C11.1716 18 10.5 18.6716 10.5 19.5C10.5 20.3284 11.1716 21 12 21Z" fill="url(#paint0_linear_206_8469)"/>
<path id="Vector_2" d="M21.5 4H12V20H21.5C21.6313 20 21.7614 19.9742 21.8827 19.924C22.0041 19.8737 22.1143 19.8001 22.2072 19.7072C22.3001 19.6143 22.3737 19.5041 22.424 19.3827C22.4742 19.2614 22.5 19.1313 22.5 19V5C22.5 4.86867 22.4742 4.73862 22.424 4.61727C22.3737 4.49593 22.3001 4.38568 22.2072 4.29281C22.1143 4.19995 22.0041 4.12629 21.8827 4.07605C21.7614 4.02581 21.6313 3.99996 21.5 4Z" fill="url(#paint1_linear_206_8469)"/>
<path id="Vector_3" d="M12 4H2.5C2.36867 3.99996 2.23862 4.02581 2.11727 4.07605C1.99593 4.12629 1.88568 4.19995 1.79281 4.29281C1.69995 4.38568 1.62629 4.49593 1.57605 4.61727C1.5258 4.73862 1.49996 4.86867 1.5 5V19C1.49996 19.1313 1.5258 19.2614 1.57605 19.3827C1.62629 19.5041 1.69995 19.6143 1.79281 19.7072C1.88568 19.8001 1.99593 19.8737 2.11727 19.924C2.23862 19.9742 2.36867 20 2.5 20H12V4Z" fill="url(#paint2_linear_206_8469)"/>
<path id="Vector_4" d="M20.75 8.5H15.75C15.6837 8.49998 15.6201 8.47363 15.5732 8.42675C15.5264 8.37987 15.5 8.3163 15.5 8.25V7.75C15.5 7.6837 15.5264 7.62013 15.5732 7.57325C15.6201 7.52637 15.6837 7.50002 15.75 7.5H20.75C20.8163 7.50002 20.8799 7.52637 20.9268 7.57325C20.9736 7.62013 21 7.6837 21 7.75V8.25C21 8.3163 20.9736 8.37987 20.9268 8.42675C20.8799 8.47363 20.8163 8.49998 20.75 8.5Z" fill="url(#paint3_linear_206_8469)"/>
<path id="Vector_5" d="M19.75 10.5H15.75C15.6837 10.5 15.6201 10.4736 15.5732 10.4268C15.5264 10.3799 15.5 10.3163 15.5 10.25V9.75C15.5 9.6837 15.5264 9.62013 15.5732 9.57325C15.6201 9.52637 15.6837 9.50002 15.75 9.5H19.75C19.8163 9.50002 19.8799 9.52637 19.9268 9.57325C19.9736 9.62013 20 9.6837 20 9.75V10.25C20 10.3163 19.9736 10.3799 19.9268 10.4268C19.8799 10.4736 19.8163 10.5 19.75 10.5Z" fill="url(#paint4_linear_206_8469)"/>
<path id="Vector_6" d="M20.75 12.5H15.75C15.6837 12.5 15.6201 12.4736 15.5732 12.4268C15.5264 12.3799 15.5 12.3163 15.5 12.25V11.75C15.5 11.6837 15.5264 11.6201 15.5732 11.5732C15.6201 11.5264 15.6837 11.5 15.75 11.5H20.75C20.8163 11.5 20.8799 11.5264 20.9268 11.5732C20.9736 11.6201 21 11.6837 21 11.75V12.25C21 12.3163 20.9736 12.3799 20.9268 12.4268C20.8799 12.4736 20.8163 12.5 20.75 12.5Z" fill="url(#paint5_linear_206_8469)"/>
<path id="Vector_7" d="M20.75 14.5H15.75C15.6837 14.5 15.6201 14.4736 15.5732 14.4268C15.5264 14.3799 15.5 14.3163 15.5 14.25V13.75C15.5 13.6837 15.5264 13.6201 15.5732 13.5732C15.6201 13.5264 15.6837 13.5 15.75 13.5H20.75C20.8163 13.5 20.8799 13.5264 20.9268 13.5732C20.9736 13.6201 21 13.6837 21 13.75V14.25C21 14.3163 20.9736 14.3799 20.9268 14.4268C20.8799 14.4736 20.8163 14.5 20.75 14.5Z" fill="url(#paint6_linear_206_8469)"/>
<path id="Vector_8" d="M19.75 16.5H15.75C15.6837 16.5 15.6201 16.4736 15.5732 16.4268C15.5264 16.3799 15.5 16.3163 15.5 16.25V15.75C15.5 15.6837 15.5264 15.6201 15.5732 15.5732C15.6201 15.5264 15.6837 15.5 15.75 15.5H19.75C19.8163 15.5 19.8799 15.5264 19.9268 15.5732C19.9736 15.6201 20 15.6837 20 15.75V16.25C20 16.3163 19.9736 16.3799 19.9268 16.4268C19.8799 16.4736 19.8163 16.5 19.75 16.5Z" fill="url(#paint7_linear_206_8469)"/>
<path id="Vector_9" d="M14.25 7.5H13.75C13.6119 7.5 13.5 7.61193 13.5 7.75V8.25C13.5 8.38807 13.6119 8.5 13.75 8.5H14.25C14.3881 8.5 14.5 8.38807 14.5 8.25V7.75C14.5 7.61193 14.3881 7.5 14.25 7.5Z" fill="url(#paint8_linear_206_8469)"/>
<path id="Vector_10" d="M14.25 9.5H13.75C13.6119 9.5 13.5 9.61193 13.5 9.75V10.25C13.5 10.3881 13.6119 10.5 13.75 10.5H14.25C14.3881 10.5 14.5 10.3881 14.5 10.25V9.75C14.5 9.61193 14.3881 9.5 14.25 9.5Z" fill="url(#paint9_linear_206_8469)"/>
<path id="Vector_11" d="M14.25 11.5H13.75C13.6119 11.5 13.5 11.6119 13.5 11.75V12.25C13.5 12.3881 13.6119 12.5 13.75 12.5H14.25C14.3881 12.5 14.5 12.3881 14.5 12.25V11.75C14.5 11.6119 14.3881 11.5 14.25 11.5Z" fill="url(#paint10_linear_206_8469)"/>
<path id="Vector_12" d="M14.25 13.5H13.75C13.6119 13.5 13.5 13.6119 13.5 13.75V14.25C13.5 14.3881 13.6119 14.5 13.75 14.5H14.25C14.3881 14.5 14.5 14.3881 14.5 14.25V13.75C14.5 13.6119 14.3881 13.5 14.25 13.5Z" fill="url(#paint11_linear_206_8469)"/>
<path id="Vector_13" d="M14.25 15.5H13.75C13.6119 15.5 13.5 15.6119 13.5 15.75V16.25C13.5 16.3881 13.6119 16.5 13.75 16.5H14.25C14.3881 16.5 14.5 16.3881 14.5 16.25V15.75C14.5 15.6119 14.3881 15.5 14.25 15.5Z" fill="url(#paint12_linear_206_8469)"/>
<g id="Group">
<path id="Vector_14" d="M9.11756 15C9.07506 15 9.03298 14.9917 8.99373 14.9754C8.95447 14.9591 8.91883 14.9352 8.88885 14.9051L5.65343 11.6696C5.62339 11.6396 5.59957 11.604 5.58331 11.5647C5.56706 11.5255 5.55869 11.4834 5.55869 11.4409C5.55869 11.3985 5.56706 11.3564 5.58331 11.3172C5.59957 11.2779 5.62339 11.2423 5.65343 11.2122C5.68346 11.1822 5.71912 11.1584 5.75836 11.1421C5.7976 11.1259 5.83966 11.1175 5.88213 11.1175C5.92461 11.1175 5.96667 11.1259 6.00591 11.1421C6.04515 11.1584 6.08081 11.1822 6.11084 11.2122L9.34627 14.4477C9.39147 14.4929 9.42225 14.5506 9.43471 14.6133C9.44717 14.676 9.44076 14.7411 9.41629 14.8002C9.39182 14.8593 9.35038 14.9098 9.29722 14.9454C9.24405 14.9809 9.18153 14.9999 9.11756 15Z" fill="#0176D0"/>
<path id="Vector_15" d="M3.91659 9.00104L6.42813 11.5398L5.49425 12.4736L3.77189 10.7513C3.66632 10.6457 3.58257 10.5204 3.52543 10.3825C3.4683 10.2446 3.43889 10.0967 3.43889 9.94745C3.43889 9.79816 3.4683 9.65034 3.52543 9.51242C3.58257 9.3745 3.66632 9.24918 3.77189 9.14363L3.91659 9.00104Z" fill="#0176D0"/>
<path id="Vector_16" d="M4.82577 15C4.76134 15.0001 4.69834 14.981 4.64475 14.9453C4.59115 14.9095 4.54937 14.8586 4.5247 14.7991C4.50002 14.7396 4.49356 14.6741 4.50613 14.6109C4.51869 14.5477 4.54973 14.4897 4.5953 14.4441L8.17908 10.8603C8.24016 10.7993 8.323 10.765 8.40938 10.765C8.49575 10.765 8.57859 10.7993 8.63967 10.8603C8.70075 10.9214 8.73506 11.0043 8.73506 11.0906C8.73506 11.177 8.70075 11.2599 8.63967 11.3209L5.05625 14.9044C4.99513 14.9655 4.91224 14.9999 4.82577 15Z" fill="url(#paint13_linear_206_8469)"/>
<path id="Vector_17" d="M9.92481 11.5855C10.5985 10.9118 10.6947 9.91586 10.1397 9.36094C9.58479 8.80601 8.58882 8.90227 7.91518 9.57593C7.24154 10.2496 7.14531 11.2456 7.70026 11.8005C8.2552 12.3554 9.25117 12.2592 9.92481 11.5855Z" fill="url(#paint14_linear_206_8469)"/>
</g>
</g>
<defs>
<linearGradient id="paint0_linear_206_8469" x1="7.0425" y1="5.879" x2="16.444" y2="31.709" gradientUnits="userSpaceOnUse">
<stop offset="0.002" stop-color="#427FDB"/>
<stop offset="0.397" stop-color="#2668CB"/>
<stop offset="0.763" stop-color="#1358BF"/>
<stop offset="1" stop-color="#0C52BB"/>
</linearGradient>
<linearGradient id="paint1_linear_206_8469" x1="14.1215" y1="3.8155" x2="23.7755" y2="30.3405" gradientUnits="userSpaceOnUse">
<stop offset="0.002" stop-color="#427FDB"/>
<stop offset="0.397" stop-color="#2668CB"/>
<stop offset="0.763" stop-color="#1358BF"/>
<stop offset="1" stop-color="#0C52BB"/>
</linearGradient>
<linearGradient id="paint2_linear_206_8469" x1="5.0565" y1="6.936" x2="12.864" y2="28.387" gradientUnits="userSpaceOnUse">
<stop stop-color="#33BEF0"/>
<stop offset="1" stop-color="#22A5E2"/>
</linearGradient>
<linearGradient id="paint3_linear_206_8469" x1="16.556" y1="3.346" x2="24.7005" y2="25.7225" gradientUnits="userSpaceOnUse">
<stop stop-color="#33BEF0"/>
<stop offset="1" stop-color="#22A5E2"/>
</linearGradient>
<linearGradient id="paint4_linear_206_8469" x1="15.2735" y1="3.1965" x2="23.1695" y2="24.8895" gradientUnits="userSpaceOnUse">
<stop stop-color="#33BEF0"/>
<stop offset="1" stop-color="#22A5E2"/>
</linearGradient>
<linearGradient id="paint5_linear_206_8469" x1="14.7435" y1="2.366" x2="22.888" y2="24.743" gradientUnits="userSpaceOnUse">
<stop stop-color="#33BEF0"/>
<stop offset="1" stop-color="#22A5E2"/>
</linearGradient>
<linearGradient id="paint6_linear_206_8469" x1="13.8375" y1="1.8765" x2="21.982" y2="24.253" gradientUnits="userSpaceOnUse">
<stop stop-color="#33BEF0"/>
<stop offset="1" stop-color="#22A5E2"/>
</linearGradient>
<linearGradient id="paint7_linear_206_8469" x1="12.638" y1="1.9555" x2="20.534" y2="23.6485" gradientUnits="userSpaceOnUse">
<stop stop-color="#33BEF0"/>
<stop offset="1" stop-color="#22A5E2"/>
</linearGradient>
<linearGradient id="paint8_linear_206_8469" x1="12.9895" y1="5.224" x2="19.3005" y2="22.5625" gradientUnits="userSpaceOnUse">
<stop stop-color="#33BEF0"/>
<stop offset="1" stop-color="#22A5E2"/>
</linearGradient>
<linearGradient id="paint9_linear_206_8469" x1="12.2875" y1="5.295" x2="18.598" y2="22.6335" gradientUnits="userSpaceOnUse">
<stop stop-color="#33BEF0"/>
<stop offset="1" stop-color="#22A5E2"/>
</linearGradient>
<linearGradient id="paint10_linear_206_8469" x1="11.5855" y1="5.3655" x2="17.896" y2="22.704" gradientUnits="userSpaceOnUse">
<stop stop-color="#33BEF0"/>
<stop offset="1" stop-color="#22A5E2"/>
</linearGradient>
<linearGradient id="paint11_linear_206_8469" x1="10.883" y1="5.4365" x2="17.194" y2="22.775" gradientUnits="userSpaceOnUse">
<stop stop-color="#33BEF0"/>
<stop offset="1" stop-color="#22A5E2"/>
</linearGradient>
<linearGradient id="paint12_linear_206_8469" x1="10.181" y1="5.5075" x2="16.4915" y2="22.8455" gradientUnits="userSpaceOnUse">
<stop stop-color="#33BEF0"/>
<stop offset="1" stop-color="#22A5E2"/>
</linearGradient>
<linearGradient id="paint13_linear_206_8469" x1="5.83517" y1="10.83" x2="7.92932" y2="14.8678" gradientUnits="userSpaceOnUse">
<stop stop-color="#7DD8F3"/>
<stop offset="1" stop-color="#45B0D0"/>
</linearGradient>
<linearGradient id="paint14_linear_206_8469" x1="7.49543" y1="10.0574" x2="10.4299" y2="11.235" gradientUnits="userSpaceOnUse">
<stop stop-color="#7DD8F3"/>
<stop offset="1" stop-color="#45B0D0"/>
</linearGradient>
</defs>
</svg>
