<svg width="24" height="24" viewBox="0 0 24 24" fill="none" xmlns="http://www.w3.org/2000/svg">
<g id="rocket">
<path id="Vector" d="M5.5605 20.5605C4.9745 21.1465 2.439 21.5605 2.439 21.5605C2.439 21.5605 2.853 19.025 3.439 18.439C4.025 17.853 4.9745 17.853 5.5605 18.439C6.1465 19.025 6.1465 19.975 5.5605 20.5605Z" fill="url(#paint0_linear_206_8529)"/>
<path id="Vector_2" d="M5.0605 20C4.768 20.293 3.5 20.5 3.5 20.5C3.5 20.5 3.707 19.232 4 18.9395C4.293 18.6465 4.768 18.6465 5.0605 18.9395C5.3535 19.232 5.3535 19.707 5.0605 20Z" fill="url(#paint1_linear_206_8529)"/>
<path id="Vector_3" d="M6.033 19.3535L4.6465 17.967C4.4705 17.791 4.451 17.5125 4.6 17.3135L5.84 15.6605L8.34 18.1605L6.687 19.4005C6.4875 19.5495 6.209 19.5295 6.033 19.3535Z" fill="url(#paint2_linear_206_8529)"/>
<path id="Vector_4" d="M20.8735 2.52749C19.7975 2.60399 17.6055 2.89449 16.5 3.99999L16.086 4.41399L19.586 7.91399L20 7.49999C21.1055 6.39449 21.396 4.20249 21.4725 3.12649C21.497 2.78399 21.216 2.50299 20.8735 2.52749Z" fill="url(#paint3_linear_206_8529)"/>
<path id="Vector_5" d="M16.5 3.99964L5.5001 14.9999L8.99999 18.4997L19.9999 7.4994L16.5 3.99964Z" fill="url(#paint4_linear_206_8529)"/>
<path id="Vector_6" d="M5.5 15L5.293 15.207C4.9025 15.5975 4.9025 16.2305 5.293 16.621L7.379 18.707C7.7695 19.0975 8.4025 19.0975 8.793 18.707L9 18.5L5.5 15Z" fill="url(#paint5_linear_206_8529)"/>
<path id="Vector_7" d="M15.25 10.5C16.2165 10.5 17 9.7165 17 8.75C17 7.7835 16.2165 7 15.25 7C14.2835 7 13.5 7.7835 13.5 8.75C13.5 9.7165 14.2835 10.5 15.25 10.5Z" fill="url(#paint6_linear_206_8529)"/>
<path id="Vector_8" d="M15.25 10C15.9404 10 16.5 9.44036 16.5 8.75C16.5 8.05964 15.9404 7.5 15.25 7.5C14.5596 7.5 14 8.05964 14 8.75C14 9.44036 14.5596 10 15.25 10Z" fill="#0078D4"/>
<path id="Vector_9" d="M11.75 14C12.7165 14 13.5 13.2165 13.5 12.25C13.5 11.2835 12.7165 10.5 11.75 10.5C10.7835 10.5 10 11.2835 10 12.25C10 13.2165 10.7835 14 11.75 14Z" fill="url(#paint7_linear_206_8529)"/>
<path id="Vector_10" d="M11.75 13.5C12.4404 13.5 13 12.9404 13 12.25C13 11.5596 12.4404 11 11.75 11C11.0596 11 10.5 11.5596 10.5 12.25C10.5 12.9404 11.0596 13.5 11.75 13.5Z" fill="#0078D4"/>
<path id="Vector_11" d="M12 15.5V18.8785C12 19.2765 11.842 19.658 11.5605 19.939L10 21.5L9 18.5L12 15.5Z" fill="url(#paint8_linear_206_8529)"/>
<path id="Vector_12" d="M8.5 12H5.1215C4.7235 12 4.342 12.158 4.061 12.4395L2.5 14L5.5 15L8.5 12Z" fill="url(#paint9_linear_206_8529)"/>
</g>
<defs>
<linearGradient id="paint0_linear_206_8529" x1="4.73903" y1="18.1296" x2="3.9371" y2="21.9013" gradientUnits="userSpaceOnUse">
<stop stop-color="#F44F5A"/>
<stop offset="0.443" stop-color="#EE3D4A"/>
<stop offset="1" stop-color="#E52030"/>
</linearGradient>
<linearGradient id="paint1_linear_206_8529" x1="3.5215" y1="20.4785" x2="4.9" y2="19.1" gradientUnits="userSpaceOnUse">
<stop stop-color="#FFCF7B"/>
<stop offset="0.195" stop-color="#FECD76"/>
<stop offset="0.439" stop-color="#FAC666"/>
<stop offset="0.71" stop-color="#F3BC4D"/>
<stop offset="0.997" stop-color="#EAAD29"/>
<stop offset="1" stop-color="#EAAD29"/>
</linearGradient>
<linearGradient id="paint2_linear_206_8529" x1="5.35081" y1="15.0885" x2="7.95352" y2="18.9094" gradientUnits="userSpaceOnUse">
<stop stop-color="#FCFCFC"/>
<stop offset="0.95" stop-color="#C3C9CD"/>
</linearGradient>
<linearGradient id="paint3_linear_206_8529" x1="17.7848" y1="2.60872" x2="20.4491" y2="7.74568" gradientUnits="userSpaceOnUse">
<stop stop-color="#7DD8F3"/>
<stop offset="1" stop-color="#45B0D0"/>
</linearGradient>
<linearGradient id="paint4_linear_206_8529" x1="9.67148" y1="11.1335" x2="13.7405" y2="14.7573" gradientUnits="userSpaceOnUse">
<stop stop-color="#32BDEF"/>
<stop offset="1" stop-color="#1EA2E4"/>
</linearGradient>
<linearGradient id="paint5_linear_206_8529" x1="6.26123" y1="15.0614" x2="8.23912" y2="18.8749" gradientUnits="userSpaceOnUse">
<stop stop-color="#7DD8F3"/>
<stop offset="1" stop-color="#45B0D0"/>
</linearGradient>
<linearGradient id="paint6_linear_206_8529" x1="14.6035" y1="7.05374" x2="16.3342" y2="10.3907" gradientUnits="userSpaceOnUse">
<stop stop-color="#7DD8F3"/>
<stop offset="1" stop-color="#45B0D0"/>
</linearGradient>
<linearGradient id="paint7_linear_206_8529" x1="11.1035" y1="10.5537" x2="12.8342" y2="13.8907" gradientUnits="userSpaceOnUse">
<stop stop-color="#7DD8F3"/>
<stop offset="1" stop-color="#45B0D0"/>
</linearGradient>
<linearGradient id="paint8_linear_206_8529" x1="9.66462" y1="14.6062" x2="13.8342" y2="17.6666" gradientUnits="userSpaceOnUse">
<stop stop-color="#FCFCFC"/>
<stop offset="0.95" stop-color="#C3C9CD"/>
</linearGradient>
<linearGradient id="paint9_linear_206_8529" x1="3.82925" y1="11.5531" x2="5.16313" y2="15.4693" gradientUnits="userSpaceOnUse">
<stop stop-color="#FCFCFC"/>
<stop offset="0.95" stop-color="#C3C9CD"/>
</linearGradient>
</defs>
</svg>
