<svg width="24" height="24" viewBox="0 0 24 24" fill="none" xmlns="http://www.w3.org/2000/svg">
<g id="rss">
<path id="Vector" d="M18 3H6C4.343 3 3 4.343 3 6V18C3 19.657 4.343 21 6 21H18C19.657 21 21 19.657 21 18V6C21 4.343 19.657 3 18 3Z" fill="url(#paint0_linear_206_8550)"/>
<path id="Vector_2" opacity="0.05" d="M7.25 19C8.49264 19 9.5 17.9926 9.5 16.75C9.5 15.5074 8.49264 14.5 7.25 14.5C6.00736 14.5 5 15.5074 5 16.75C5 17.9926 6.00736 19 7.25 19Z" fill="black"/>
<path id="Vector_3" opacity="0.07" d="M7.25 18.75C8.35457 18.75 9.25 17.8546 9.25 16.75C9.25 15.6454 8.35457 14.75 7.25 14.75C6.14543 14.75 5.25 15.6454 5.25 16.75C5.25 17.8546 6.14543 18.75 7.25 18.75Z" fill="black"/>
<path id="Vector_4" d="M9 16.75C9 15.8 8.2 15 7.25 15C6.3 15 5.5 15.8 5.5 16.75C5.5 17.7 6.3 18.5 7.25 18.5C8.2 18.5 9 17.7 9 16.75Z" fill="white"/>
<path id="Vector_5" opacity="0.05" d="M12 19C11.4485 19 11 18.5515 11 18C11 15.243 8.757 13 6 13C5.4485 13 5 12.5515 5 12V11C5 10.4485 5.4485 10 6 10C10.411 10 14 13.589 14 18C14 18.5515 13.5515 19 13 19H12Z" fill="black"/>
<path id="Vector_6" opacity="0.07" d="M12 18.75C11.5865 18.75 11.25 18.4135 11.25 18C11.25 15.105 8.895 12.75 6 12.75C5.5865 12.75 5.25 12.4135 5.25 12V11C5.25 10.5865 5.5865 10.25 6 10.25C10.2735 10.25 13.75 13.7265 13.75 18C13.75 18.4135 13.4135 18.75 13 18.75H12Z" fill="black"/>
<path id="Vector_7" d="M13 18.5H12C11.724 18.5 11.5 18.276 11.5 18C11.5 14.9625 9.0375 12.5 6 12.5C5.724 12.5 5.5 12.276 5.5 12V11C5.5 10.724 5.724 10.5 6 10.5C10.142 10.5 13.5 13.858 13.5 18C13.5 18.276 13.276 18.5 13 18.5Z" fill="white"/>
<path id="Vector_8" opacity="0.05" d="M17 19C16.4485 19 16 18.5515 16 18C16 12.486 11.514 8 6 8C5.4485 8 5 7.5515 5 7V6C5 5.4485 5.4485 5 6 5C13.1685 5 19 10.832 19 18C19 18.5515 18.5515 19 18 19H17Z" fill="black"/>
<path id="Vector_9" opacity="0.07" d="M17 18.75C16.5865 18.75 16.25 18.4135 16.25 18C16.25 12.348 11.652 7.75 6 7.75C5.5865 7.75 5.25 7.4135 5.25 7V6C5.25 5.5865 5.5865 5.25 6 5.25C13.0305 5.25 18.75 10.9695 18.75 18C18.75 18.4135 18.4135 18.75 18 18.75H17Z" fill="black"/>
<path id="Vector_10" d="M18 18.5H17C16.724 18.5 16.5 18.276 16.5 18C16.5 12.201 11.799 7.5 6 7.5C5.724 7.5 5.5 7.276 5.5 7V6C5.5 5.724 5.724 5.5 6 5.5C12.9035 5.5 18.5 11.0965 18.5 18C18.5 18.276 18.276 18.5 18 18.5Z" fill="white"/>
</g>
<defs>
<linearGradient id="paint0_linear_206_8550" x1="12" y1="2.96224" x2="12" y2="20.935" gradientUnits="userSpaceOnUse">
<stop stop-color="#2AA4F4"/>
<stop offset="1" stop-color="#007AD9"/>
</linearGradient>
</defs>
</svg>
