<svg width="24" height="24" viewBox="0 0 24 24" fill="none" xmlns="http://www.w3.org/2000/svg">
<g id="sad">
<path id="Vector" d="M12 22C17.5225 22 22 17.5225 22 12C22 6.4775 17.5225 2 12 2C6.4775 2 2 6.4775 2 12C2 17.5225 6.4775 22 12 22Z" fill="url(#paint0_linear_206_8572)"/>
<path id="Vector_2" d="M8 13C9.10457 13 10 12.1046 10 11C10 9.89543 9.10457 9 8 9C6.89543 9 6 9.89543 6 11C6 12.1046 6.89543 13 8 13Z" fill="white"/>
<path id="Vector_3" d="M16 13C17.1046 13 18 12.1046 18 11C18 9.89543 17.1046 9 16 9C14.8954 9 14 9.89543 14 11C14 12.1046 14.8954 13 16 13Z" fill="white"/>
<path id="Vector_4" d="M8 12C8.55228 12 9 11.5523 9 11C9 10.4477 8.55228 10 8 10C7.44772 10 7 10.4477 7 11C7 11.5523 7.44772 12 8 12Z" fill="#343434"/>
<path id="Vector_5" d="M16 12C16.5523 12 17 11.5523 17 11C17 10.4477 16.5523 10 16 10C15.4477 10 15 10.4477 15 11C15 11.5523 15.4477 12 16 12Z" fill="#343434"/>
<path id="Vector_6" d="M15.5 17.826C15.3825 17.826 15.265 17.785 15.17 17.701C14.29 16.9265 13.1645 16.5 12 16.5C10.8355 16.5 9.71 16.9265 8.8305 17.701C8.623 17.8835 8.307 17.8635 8.125 17.656C7.9425 17.449 7.9625 17.133 8.17 16.9505C9.232 16.015 10.5925 15.5 12 15.5C13.4075 15.5 14.768 16.015 15.8305 16.9505C16.038 17.133 16.058 17.449 15.8755 17.656C15.7765 17.7685 15.6385 17.826 15.5 17.826Z" fill="#343434"/>
</g>
<defs>
<linearGradient id="paint0_linear_206_8572" x1="5.0155" y1="5.0155" x2="19.055" y2="19.055" gradientUnits="userSpaceOnUse">
<stop stop-color="#FEDE00"/>
<stop offset="0.519" stop-color="#FECC00"/>
<stop offset="1" stop-color="#FFB700"/>
</linearGradient>
</defs>
</svg>
