<svg width="24" height="24" viewBox="0 0 24 24" fill="none" xmlns="http://www.w3.org/2000/svg">
<g id="schedule">
<path id="Vector" d="M3 20V6H21V20C21 20.55 20.55 21 20 21H4C3.45 21 3 20.55 3 20Z" fill="url(#paint0_linear_206_8605)"/>
<path id="Vector_2" d="M21 4V7H3V4C3 3.45 3.45 3 4 3H20C20.55 3 21 3.45 21 4Z" fill="url(#paint1_linear_206_8605)"/>
<path id="Vector_3" d="M19 9.75V11.25C19 11.388 18.888 11.5 18.75 11.5H17.25C17.112 11.5 17 11.388 17 11.25V9.75C17 9.612 17.112 9.5 17.25 9.5H18.75C18.888 9.5 19 9.612 19 9.75ZM15 9.75V11.25C15 11.388 14.888 11.5 14.75 11.5H13.25C13.112 11.5 13 11.388 13 11.25V9.75C13 9.612 13.112 9.5 13.25 9.5H14.75C14.888 9.5 15 9.612 15 9.75ZM11 9.75V11.25C11 11.388 10.888 11.5 10.75 11.5H9.25C9.112 11.5 9 11.388 9 11.25V9.75C9 9.612 9.112 9.5 9.25 9.5H10.75C10.888 9.5 11 9.612 11 9.75Z" fill="white"/>
<path id="Vector_4" d="M19 13.25V14.75C19 14.888 18.888 15 18.75 15H17.25C17.112 15 17 14.888 17 14.75V13.25C17 13.112 17.112 13 17.25 13H18.75C18.888 13 19 13.112 19 13.25ZM15 13.25V14.75C15 14.888 14.888 15 14.75 15H13.25C13.112 15 13 14.888 13 14.75V13.25C13 13.112 13.112 13 13.25 13H14.75C14.888 13 15 13.112 15 13.25ZM11 13.25V14.75C11 14.888 10.888 15 10.75 15H9.25C9.112 15 9 14.888 9 14.75V13.25C9 13.112 9.112 13 9.25 13H10.75C10.888 13 11 13.112 11 13.25ZM7 13.25V14.75C7 14.888 6.888 15 6.75 15H5.25C5.112 15 5 14.888 5 14.75V13.25C5 13.112 5.112 13 5.25 13H6.75C6.888 13 7 13.112 7 13.25Z" fill="white"/>
<path id="Vector_5" d="M15 16.75V18.25C15 18.388 14.888 18.5 14.75 18.5H13.25C13.112 18.5 13 18.388 13 18.25V16.75C13 16.612 13.112 16.5 13.25 16.5H14.75C14.888 16.5 15 16.612 15 16.75ZM11 16.75V18.25C11 18.388 10.888 18.5 10.75 18.5H9.25C9.112 18.5 9 18.388 9 18.25V16.75C9 16.612 9.112 16.5 9.25 16.5H10.75C10.888 16.5 11 16.612 11 16.75ZM7 16.75V18.25C7 18.388 6.888 18.5 6.75 18.5H5.25C5.112 18.5 5 18.388 5 18.25V16.75C5 16.612 5.112 16.5 5.25 16.5H6.75C6.888 16.5 7 16.612 7 16.75Z" fill="white"/>
<path id="Vector_6" opacity="0.2" d="M3 4V12.3175C3.9105 12.7505 4.925 13 6 13C9.866 13 13 9.866 13 6C13 4.925 12.7505 3.9105 12.3175 3H4C3.45 3 3 3.45 3 4Z" fill="url(#paint2_radial_206_8605)"/>
<path id="Vector_7" d="M6 12C9.31371 12 12 9.31371 12 6C12 2.68629 9.31371 0 6 0C2.68629 0 0 2.68629 0 6C0 9.31371 2.68629 12 6 12Z" fill="url(#paint3_linear_206_8605)"/>
<path id="Vector_8" d="M6 11.5C9.03757 11.5 11.5 9.03757 11.5 6C11.5 2.96243 9.03757 0.5 6 0.5C2.96243 0.5 0.5 2.96243 0.5 6C0.5 9.03757 2.96243 11.5 6 11.5Z" fill="url(#paint4_radial_206_8605)"/>
<path id="Vector_9" d="M6 11C8.76142 11 11 8.76142 11 6C11 3.23858 8.76142 1 6 1C3.23858 1 1 3.23858 1 6C1 8.76142 3.23858 11 6 11Z" fill="url(#paint5_radial_206_8605)"/>
<path id="Vector_10" d="M6 6.25002C5.936 6.25002 5.872 6.22552 5.823 6.17702C5.7255 6.07952 5.7255 5.92102 5.823 5.82352L8.3685 3.27802C8.466 3.18052 8.6245 3.18052 8.722 3.27802C8.8195 3.37552 8.8195 3.53402 8.722 3.63152L6.1765 6.17702C6.128 6.22552 6.064 6.25002 6 6.25002Z" fill="#45494D"/>
<path id="Vector_11" d="M5.9995 6.37498C5.9435 6.37498 5.886 6.36248 5.8325 6.33548L2.8325 4.83548C2.647 4.74248 2.572 4.51748 2.6645 4.33248C2.7575 4.14698 2.9825 4.07198 3.1675 4.16448L6.1675 5.66448C6.353 5.75748 6.428 5.98248 6.3355 6.16748C6.2695 6.29948 6.137 6.37498 5.9995 6.37498Z" fill="#45494D"/>
<path id="Vector_12" d="M6 6.75C6.41421 6.75 6.75 6.41421 6.75 6C6.75 5.58579 6.41421 5.25 6 5.25C5.58579 5.25 5.25 5.58579 5.25 6C5.25 6.41421 5.58579 6.75 6 6.75Z" fill="#1E2021"/>
<path id="Vector_13" opacity="0.05" d="M17.75 6.25C16.9215 6.25 16.25 5.5785 16.25 4.75V3H19.25V4.75C19.25 5.5785 18.5785 6.25 17.75 6.25Z" fill="black"/>
<path id="Vector_14" opacity="0.07" d="M17.75 5.875C17.1285 5.875 16.625 5.3715 16.625 4.75V3H18.875V4.75C18.875 5.3715 18.3715 5.875 17.75 5.875Z" fill="black"/>
<path id="Vector_15" d="M17.75 5.5C17.336 5.5 17 5.164 17 4.75V2.75C17 2.336 17.336 2 17.75 2C18.164 2 18.5 2.336 18.5 2.75V4.75C18.5 5.164 18.164 5.5 17.75 5.5Z" fill="#3CCBF4"/>
</g>
<defs>
<linearGradient id="paint0_linear_206_8605" x1="3.207" y1="6.831" x2="20.887" y2="19.744" gradientUnits="userSpaceOnUse">
<stop stop-color="#28AFEA"/>
<stop offset="1" stop-color="#047ED6"/>
</linearGradient>
<linearGradient id="paint1_linear_206_8605" x1="3.21" y1="3.304" x2="20.599" y2="6.84" gradientUnits="userSpaceOnUse">
<stop stop-color="#0077D2"/>
<stop offset="1" stop-color="#0B59A2"/>
</linearGradient>
<radialGradient id="paint2_radial_206_8605" cx="0" cy="0" r="1" gradientUnits="userSpaceOnUse" gradientTransform="translate(5.9895 5.9345) scale(7.0215)">
<stop offset="0.847"/>
<stop offset="1" stop-opacity="0"/>
</radialGradient>
<linearGradient id="paint3_linear_206_8605" x1="1.7575" y1="1.7575" x2="10.2425" y2="10.2425" gradientUnits="userSpaceOnUse">
<stop stop-color="#889097"/>
<stop offset="1" stop-color="#64717C"/>
</linearGradient>
<radialGradient id="paint4_radial_206_8605" cx="0" cy="0" r="1" gradientUnits="userSpaceOnUse" gradientTransform="translate(6 6) scale(5.5)">
<stop/>
<stop offset="1" stop-opacity="0"/>
</radialGradient>
<radialGradient id="paint5_radial_206_8605" cx="0" cy="0" r="1" gradientUnits="userSpaceOnUse" gradientTransform="translate(5.9675 1.116) scale(11.142)">
<stop stop-color="#FAFAFB"/>
<stop offset="1" stop-color="#C8CDD1"/>
</radialGradient>
</defs>
</svg>
