<svg width="24" height="24" viewBox="0 0 24 24" fill="none" xmlns="http://www.w3.org/2000/svg">
<g id="schedule-mail">
<path id="Vector" d="M4.5 13L22.5 5.84998V19C22.5 19.55 22.05 20 21.5 20H4.5V13Z" fill="url(#paint0_linear_206_8621)"/>
<path id="Vector_2" d="M1.5 5.84998V19C1.5 19.55 1.95 20 2.5 20H21.5C21.75 20 21.95 19.9 22.15 19.75L1.5 5.84998Z" fill="url(#paint1_linear_206_8621)"/>
<path id="Vector_3" opacity="0.05" d="M1.5 5.5H22.5V6.35L13.85 13.05C12.75 13.9 11.25 13.9 10.15 13.05L1.5 6.35V5.5Z" fill="black"/>
<path id="Vector_4" opacity="0.07" d="M1.5 5.25H22.5V6.1L13.5 12.65C12.6 13.3 11.4 13.3 10.55 12.65L1.5 6.1V5.25Z" fill="black"/>
<path id="Vector_5" d="M2.5 4H21.5C22.05 4 22.5 4.45 22.5 5V5.85L13.15 12.25C12.45 12.7 11.6 12.7 10.9 12.25L1.5 5.85V5C1.5 4.45 1.95 4 2.5 4Z" fill="url(#paint2_linear_206_8621)"/>
<path id="Vector_6" d="M19 13C15.7 13 13 15.7 13 19C13 19.35 13.05 19.65 13.1 20H21.5C22.05 20 22.5 19.55 22.5 19V14.15C21.5 13.4 20.3 13 19 13Z" fill="url(#paint3_radial_206_8621)"/>
<path id="Vector_7" d="M19 24C21.7614 24 24 21.7614 24 19C24 16.2386 21.7614 14 19 14C16.2386 14 14 16.2386 14 19C14 21.7614 16.2386 24 19 24Z" fill="url(#paint4_linear_206_8621)"/>
<path id="Vector_8" d="M19 23.5C21.4853 23.5 23.5 21.4853 23.5 19C23.5 16.5147 21.4853 14.5 19 14.5C16.5147 14.5 14.5 16.5147 14.5 19C14.5 21.4853 16.5147 23.5 19 23.5Z" fill="url(#paint5_radial_206_8621)"/>
<path id="Vector_9" d="M19 23C21.2091 23 23 21.2091 23 19C23 16.7909 21.2091 15 19 15C16.7909 15 15 16.7909 15 19C15 21.2091 16.7909 23 19 23Z" fill="url(#paint6_radial_206_8621)"/>
<path id="Vector_10" d="M20.45 21.85C20.35 21.9 20.25 21.85 20.2 21.75L18.85 19.1C18.8 19 18.85 18.9 18.95 18.85C19.05 18.8 19.15 18.85 19.2 18.95L20.55 21.6C20.6 21.65 20.55 21.8 20.45 21.85Z" fill="#D83B01"/>
<path id="Vector_11" d="M19 19.2C18.95 19.2 18.9 19.2 18.85 19.15C18.8 19.1 18.8 18.95 18.85 18.9L20.95 16.8C21 16.75 21.15 16.75 21.2 16.8C21.25 16.85 21.25 17 21.2 17.05L19.1 19.15C19.1 19.15 19.05 19.2 19 19.2Z" fill="#45494D"/>
<path id="Vector_12" d="M19 19.3C18.95 19.3 18.9 19.3 18.85 19.25L16.9 18.3C16.75 18.25 16.7 18.05 16.75 17.9C16.8 17.75 17 17.7 17.15 17.75L19.1 18.7C19.25 18.75 19.3 18.95 19.25 19.1C19.25 19.25 19.1 19.3 19 19.3Z" fill="#45494D"/>
<path id="Vector_13" d="M19 19.5C19.2761 19.5 19.5 19.2761 19.5 19C19.5 18.7239 19.2761 18.5 19 18.5C18.7239 18.5 18.5 18.7239 18.5 19C18.5 19.2761 18.7239 19.5 19 19.5Z" fill="#1E2021"/>
</g>
<defs>
<linearGradient id="paint0_linear_206_8621" x1="10.758" y1="8.81898" x2="22.796" y2="26.8365" gradientUnits="userSpaceOnUse">
<stop stop-color="#28AFEA"/>
<stop offset="1" stop-color="#0B88DA"/>
</linearGradient>
<linearGradient id="paint1_linear_206_8621" x1="0.704" y1="12.205" x2="18.1655" y2="23.082" gradientUnits="userSpaceOnUse">
<stop stop-color="#28AFEA"/>
<stop offset="1" stop-color="#0B88DA"/>
</linearGradient>
<linearGradient id="paint2_linear_206_8621" x1="8.121" y1="4.13184" x2="10.2297" y2="14.0744" gradientUnits="userSpaceOnUse">
<stop stop-color="#7DD8F3"/>
<stop offset="1" stop-color="#45B0D0"/>
</linearGradient>
<radialGradient id="paint3_radial_206_8621" cx="0" cy="0" r="1" gradientUnits="userSpaceOnUse" gradientTransform="translate(18.947 19.0375) scale(5.9295)">
<stop/>
<stop offset="1" stop-opacity="0"/>
</radialGradient>
<linearGradient id="paint4_linear_206_8621" x1="15.4645" y1="15.4645" x2="22.5355" y2="22.5355" gradientUnits="userSpaceOnUse">
<stop stop-color="#889097"/>
<stop offset="1" stop-color="#64717C"/>
</linearGradient>
<radialGradient id="paint5_radial_206_8621" cx="0" cy="0" r="1" gradientUnits="userSpaceOnUse" gradientTransform="translate(19 19) scale(4.5)">
<stop/>
<stop offset="1" stop-opacity="0"/>
</radialGradient>
<radialGradient id="paint6_radial_206_8621" cx="0" cy="0" r="1" gradientUnits="userSpaceOnUse" gradientTransform="translate(18.974 15.093) scale(8.914)">
<stop stop-color="#FAFAFB"/>
<stop offset="1" stop-color="#C8CDD1"/>
</radialGradient>
</defs>
</svg>
