<svg width="24" height="24" viewBox="0 0 24 24" fill="none" xmlns="http://www.w3.org/2000/svg">
<g id="search-contacts" clip-path="url(#clip0_206_8651)">
<path id="Vector" d="M20.5 3V21C20.5 21.5525 20.0525 22 19.5 22H17V2H19.5C20.0525 2 20.5 2.4475 20.5 3Z" fill="#1783BD"/>
<path id="Vector_2" d="M19.5 3V21C19.5 21.5525 19.0525 22 18.5 22H15.5V2H18.5C19.0525 2 19.5 2.4475 19.5 3Z" fill="url(#paint0_linear_206_8651)"/>
<path id="Vector_3" d="M3.5 3V21C3.5 21.5525 3.9475 22 4.5 22H5.5V2H4.5C3.9475 2 3.5 2.4475 3.5 3Z" fill="url(#paint1_linear_206_8651)"/>
<path id="Vector_4" d="M17.5 2H5.5V22H17.5C18.0525 22 18.5 21.5525 18.5 21V3C18.5 2.4475 18.0525 2 17.5 2Z" fill="url(#paint2_linear_206_8651)"/>
<path id="Vector_5" opacity="0.15" d="M12 11.5C13.3807 11.5 14.5 10.3807 14.5 9C14.5 7.61929 13.3807 6.5 12 6.5C10.6193 6.5 9.5 7.61929 9.5 9C9.5 10.3807 10.6193 11.5 12 11.5Z" fill="url(#paint3_radial_206_8651)"/>
<path id="Vector_6" opacity="0.05" d="M8.5 15.5V16.557C8.5 17.0775 8.9225 17.5 9.443 17.5H14.5565C15.0775 17.5 15.5 17.0775 15.5 16.557V15.5C15.5 13 13.933 11.5 12 11.5C10.067 11.5 8.5 13 8.5 15.5Z" fill="black"/>
<path id="Vector_7" opacity="0.07" d="M8.75 15.313V16.5285C8.75 16.927 9.073 17.25 9.4715 17.25H14.5285C14.927 17.25 15.25 16.927 15.25 16.5285V15.25C15.25 13.156 13.77 11.725 11.954 11.7505C10.1665 11.7755 8.75 13.2415 8.75 15.313Z" fill="black"/>
<path id="Vector_8" d="M12 11C13.1046 11 14 10.1046 14 9C14 7.89543 13.1046 7 12 7C10.8954 7 10 7.89543 10 9C10 10.1046 10.8954 11 12 11Z" fill="url(#paint4_linear_206_8651)"/>
<path id="Vector_9" d="M15 15C15 13.3125 13.6065 11.9505 11.9075 12.0015C10.266 12.0505 9 13.483 9 15.126V16.5C9 16.776 9.224 17 9.5 17H14.5C14.776 17 15 16.776 15 16.5V15Z" fill="url(#paint5_linear_206_8651)"/>
<path id="Vector_10" d="M22.496 21.612L21.612 22.496L23.0795 23.9635C23.1285 24.0125 23.2075 24.0125 23.2565 23.9635L23.9635 23.2565C24.0125 23.2075 24.0125 23.1285 23.9635 23.0795L22.496 21.612Z" fill="url(#paint6_linear_206_8651)"/>
<path id="Vector_11" d="M18.5 13.5C15.743 13.5 13.5 15.743 13.5 18.5C13.5 19.862 14.049 21.0975 14.9355 22H17H17.5H19.5C20.0525 22 20.5 21.5525 20.5 21V13.9205C19.887 13.6515 19.211 13.5 18.5 13.5Z" fill="url(#paint7_radial_206_8651)"/>
<path id="Vector_12" d="M21.4 20.5165L20.5165 21.4L21.612 22.496L22.496 21.612L21.4 20.5165Z" fill="url(#paint8_radial_206_8651)"/>
<path id="Vector_13" d="M18.5 22.5C20.7091 22.5 22.5 20.7091 22.5 18.5C22.5 16.2909 20.7091 14.5 18.5 14.5C16.2909 14.5 14.5 16.2909 14.5 18.5C14.5 20.7091 16.2909 22.5 18.5 22.5Z" fill="url(#paint9_linear_206_8651)"/>
</g>
<defs>
<linearGradient id="paint0_linear_206_8651" x1="17.486" y1="12" x2="19.057" y2="12" gradientUnits="userSpaceOnUse">
<stop offset="0.441" stop-color="#999998"/>
<stop offset="0.653" stop-color="#C1C1C0"/>
<stop offset="0.88" stop-color="#E5E5E5"/>
<stop offset="1" stop-color="#F3F3F3"/>
</linearGradient>
<linearGradient id="paint1_linear_206_8651" x1="1.819" y1="4.286" x2="7.8455" y2="20.7025" gradientUnits="userSpaceOnUse">
<stop stop-color="#0176D0"/>
<stop offset="1" stop-color="#16538C"/>
</linearGradient>
<linearGradient id="paint2_linear_206_8651" x1="8.39" y1="2.577" x2="15.6075" y2="22.2375" gradientUnits="userSpaceOnUse">
<stop stop-color="#33BEF0"/>
<stop offset="1" stop-color="#22A5E2"/>
</linearGradient>
<radialGradient id="paint3_radial_206_8651" cx="0" cy="0" r="1" gradientUnits="userSpaceOnUse" gradientTransform="translate(12 9) scale(2.5)">
<stop offset="0.486"/>
<stop offset="1" stop-opacity="0"/>
</radialGradient>
<linearGradient id="paint4_linear_206_8651" x1="11.3886" y1="7.17492" x2="12.0437" y2="11.4333" gradientUnits="userSpaceOnUse">
<stop stop-color="#0D61A9"/>
<stop offset="1" stop-color="#16528C"/>
</linearGradient>
<linearGradient id="paint5_linear_206_8651" x1="11.0829" y1="12.2188" x2="11.7702" y2="17.5795" gradientUnits="userSpaceOnUse">
<stop stop-color="#0D61A9"/>
<stop offset="1" stop-color="#16528C"/>
</linearGradient>
<linearGradient id="paint6_linear_206_8651" x1="22.365" y1="21.6487" x2="23.5459" y2="23.9256" gradientUnits="userSpaceOnUse">
<stop stop-color="#7DD8F3"/>
<stop offset="1" stop-color="#45B0D0"/>
</linearGradient>
<radialGradient id="paint7_radial_206_8651" cx="0" cy="0" r="1" gradientUnits="userSpaceOnUse" gradientTransform="translate(18.484 18.3885) scale(4.7725)">
<stop/>
<stop offset="1" stop-opacity="0"/>
</radialGradient>
<radialGradient id="paint8_radial_206_8651" cx="0" cy="0" r="1" gradientUnits="userSpaceOnUse" gradientTransform="translate(18.506 18.524) scale(4.901)">
<stop offset="0.693" stop-color="#006185"/>
<stop offset="0.921" stop-color="#35C1F1"/>
</radialGradient>
<linearGradient id="paint9_linear_206_8651" x1="16.2723" y1="13.3082" x2="21.6952" y2="21.2689" gradientUnits="userSpaceOnUse">
<stop stop-color="#FCFCFC"/>
<stop offset="0.95" stop-color="#C3C9CD"/>
</linearGradient>
<clipPath id="clip0_206_8651">
<rect width="24" height="24" fill="white"/>
</clipPath>
</defs>
</svg>
