<svg width="24" height="24" viewBox="0 0 24 24" fill="none" xmlns="http://www.w3.org/2000/svg">
<g id="search-property" clip-path="url(#clip0_206_8684)">
<path id="Vector" d="M2 19V6.5H22V18C22 19.1 21.1 20 20 20H3C2.45 20 2 19.55 2 19Z" fill="url(#paint0_linear_206_8684)"/>
<path id="Vector_2" d="M19.25 11H7.75C7.612 11 7.5 10.888 7.5 10.75V10.25C7.5 10.112 7.612 10 7.75 10H19.25C19.388 10 19.5 10.112 19.5 10.25V10.75C19.5 10.888 19.388 11 19.25 11Z" fill="#0F94BF"/>
<path id="Vector_3" d="M19.25 13.5H7.75C7.612 13.5 7.5 13.388 7.5 13.25V12.75C7.5 12.612 7.612 12.5 7.75 12.5H19.25C19.388 12.5 19.5 12.612 19.5 12.75V13.25C19.5 13.388 19.388 13.5 19.25 13.5Z" fill="#0F94BF"/>
<path id="Vector_4" d="M19.25 16H7.75C7.612 16 7.5 15.888 7.5 15.75V15.25C7.5 15.112 7.612 15 7.75 15H19.25C19.388 15 19.5 15.112 19.5 15.25V15.75C19.5 15.888 19.388 16 19.25 16Z" fill="#0F94BF"/>
<path id="Vector_5" d="M22 5V6.5H2V5C2 4.45 2.45 4 3 4H21C21.55 4 22 4.45 22 5Z" fill="url(#paint1_linear_206_8684)"/>
<path id="Vector_6" d="M4.75 11H5.25C5.388 11 5.5 10.888 5.5 10.75V10.25C5.5 10.112 5.388 10 5.25 10H4.75C4.612 10 4.5 10.112 4.5 10.25V10.75C4.5 10.888 4.612 11 4.75 11Z" fill="#0F94BF"/>
<path id="Vector_7" d="M4.75 13.5H5.25C5.388 13.5 5.5 13.388 5.5 13.25V12.75C5.5 12.612 5.388 12.5 5.25 12.5H4.75C4.612 12.5 4.5 12.612 4.5 12.75V13.25C4.5 13.388 4.612 13.5 4.75 13.5Z" fill="#0F94BF"/>
<path id="Vector_8" d="M4.75 16H5.25C5.388 16 5.5 15.888 5.5 15.75V15.25C5.5 15.112 5.388 15 5.25 15H4.75C4.612 15 4.5 15.112 4.5 15.25V15.75C4.5 15.888 4.612 16 4.75 16Z" fill="#0F94BF"/>
<path id="Vector_9" opacity="0.15" d="M22 15.009C21.088 13.7915 19.6385 13 18 13C15.2385 13 13 15.2385 13 18C13 18.7115 13.151 19.387 13.419 20H20C21.1 20 22 19.1 22 18V15.009Z" fill="url(#paint2_radial_206_8684)"/>
<path id="Vector_10" d="M21.996 21.112L21.112 21.996L23.0795 23.9635C23.1285 24.0125 23.2075 24.0125 23.2565 23.9635L23.9635 23.2565C24.0125 23.2075 24.0125 23.1285 23.9635 23.0795L21.996 21.112Z" fill="url(#paint3_linear_206_8684)"/>
<path id="Vector_11" d="M20.9 20.0165L20.0165 20.9L21.112 21.996L21.996 21.112L20.9 20.0165Z" fill="url(#paint4_radial_206_8684)"/>
<path id="Vector_12" d="M18 22C20.2091 22 22 20.2091 22 18C22 15.7909 20.2091 14 18 14C15.7909 14 14 15.7909 14 18C14 20.2091 15.7909 22 18 22Z" fill="url(#paint5_linear_206_8684)"/>
</g>
<defs>
<linearGradient id="paint0_linear_206_8684" x1="6.521" y1="4.9795" x2="15.782" y2="18.3755" gradientUnits="userSpaceOnUse">
<stop stop-color="#7DD8F3"/>
<stop offset="1" stop-color="#45B0D0"/>
</linearGradient>
<linearGradient id="paint1_linear_206_8684" x1="2.404" y1="3.39" x2="21.375" y2="7.2475" gradientUnits="userSpaceOnUse">
<stop stop-color="#0077D2"/>
<stop offset="1" stop-color="#0B59A2"/>
</linearGradient>
<radialGradient id="paint2_radial_206_8684" cx="0" cy="0" r="1" gradientUnits="userSpaceOnUse" gradientTransform="translate(18.009 17.996) scale(4.9705)">
<stop/>
<stop offset="1" stop-opacity="0"/>
</radialGradient>
<linearGradient id="paint3_linear_206_8684" x1="22.0226" y1="21.1563" x2="23.4508" y2="23.91" gradientUnits="userSpaceOnUse">
<stop stop-color="#7DD8F3"/>
<stop offset="1" stop-color="#45B0D0"/>
</linearGradient>
<radialGradient id="paint4_radial_206_8684" cx="0" cy="0" r="1" gradientUnits="userSpaceOnUse" gradientTransform="translate(18.006 18.024) scale(4.901)">
<stop offset="0.693" stop-color="#006185"/>
<stop offset="0.921" stop-color="#35C1F1"/>
</radialGradient>
<linearGradient id="paint5_linear_206_8684" x1="15.7723" y1="12.8082" x2="21.1952" y2="20.7689" gradientUnits="userSpaceOnUse">
<stop stop-color="#FCFCFC"/>
<stop offset="0.95" stop-color="#C3C9CD"/>
</linearGradient>
<clipPath id="clip0_206_8684">
<rect width="24" height="24" fill="white"/>
</clipPath>
</defs>
</svg>
