<svg width="24" height="24" viewBox="0 0 24 24" fill="none" xmlns="http://www.w3.org/2000/svg">
<g id="search-in-mailbox">
<path id="Vector" d="M7 4.5H16C18.75 4.5 21 6.75 21 9.5V20C21 20.55 20.55 21 20 21H7V4.5Z" fill="url(#paint0_linear_206_8675)"/>
<path id="Vector_2" d="M7 4.5C4.25 4.5 2 6.75 2 9.5V20C2 20.55 2.45 21 3 21H11C11.55 21 12 20.55 12 20V9.5C12 6.75 9.75 4.5 7 4.5Z" fill="url(#paint1_linear_206_8675)"/>
<path id="Vector_3" d="M8.5 10.5H5C4.7 10.5 4.5 10.3 4.5 10C4.5 9.7 4.7 9.5 5 9.5H8.5C8.8 9.5 9 9.7 9 10C9 10.3 8.8 10.5 8.5 10.5Z" fill="url(#paint2_linear_206_8675)"/>
<path id="Vector_4" d="M22 21.1L21.1 22L23.05 23.95C23.1 24 23.2 24 23.25 23.95L23.95 23.25C24 23.2 24 23.1 23.95 23.05L22 21.1Z" fill="url(#paint3_linear_206_8675)"/>
<path id="Vector_5" d="M20.9 20L20 20.9L21.1 22L22 21.1L20.9 20Z" fill="url(#paint4_radial_206_8675)"/>
<path id="Vector_6" opacity="0.05" d="M18 13.5C15.5 13.5 13.5 15.5 13.5 18C13.5 19.15 13.95 20.2 14.65 21H20C20.55 21 21 20.55 21 20V14.65C20.2 13.95 19.15 13.5 18 13.5Z" fill="black"/>
<path id="Vector_7" opacity="0.07" d="M18 13.75C15.65 13.75 13.75 15.65 13.75 18C13.75 19.15 14.25 20.25 15 21H20C20.55 21 21 20.55 21 20V15C20.25 14.25 19.15 13.75 18 13.75Z" fill="black"/>
<path id="Vector_8" d="M18 22C20.2091 22 22 20.2091 22 18C22 15.7909 20.2091 14 18 14C15.7909 14 14 15.7909 14 18C14 20.2091 15.7909 22 18 22Z" fill="url(#paint5_linear_206_8675)"/>
</g>
<defs>
<linearGradient id="paint0_linear_206_8675" x1="14" y1="4.46539" x2="14" y2="20.9404" gradientUnits="userSpaceOnUse">
<stop stop-color="#2AA4F4"/>
<stop offset="1" stop-color="#007AD9"/>
</linearGradient>
<linearGradient id="paint1_linear_206_8675" x1="3.6025" y1="5.485" x2="10.0915" y2="22.4725" gradientUnits="userSpaceOnUse">
<stop stop-color="#32BDEF"/>
<stop offset="1" stop-color="#1EA2E4"/>
</linearGradient>
<linearGradient id="paint2_linear_206_8675" x1="6.75" y1="9.4979" x2="6.75" y2="10.4964" gradientUnits="userSpaceOnUse">
<stop stop-color="#2AA4F4"/>
<stop offset="1" stop-color="#007AD9"/>
</linearGradient>
<linearGradient id="paint3_linear_206_8675" x1="22.0104" y1="21.1443" x2="23.4382" y2="23.8973" gradientUnits="userSpaceOnUse">
<stop stop-color="#7DD8F3"/>
<stop offset="1" stop-color="#45B0D0"/>
</linearGradient>
<radialGradient id="paint4_radial_206_8675" cx="0" cy="0" r="1" gradientUnits="userSpaceOnUse" gradientTransform="translate(18.006 18.024) scale(4.901)">
<stop offset="0.693" stop-color="#006185"/>
<stop offset="0.921" stop-color="#35C1F1"/>
</radialGradient>
<linearGradient id="paint5_linear_206_8675" x1="15.7723" y1="12.8082" x2="21.1952" y2="20.7689" gradientUnits="userSpaceOnUse">
<stop stop-color="#FCFCFC"/>
<stop offset="0.95" stop-color="#C3C9CD"/>
</linearGradient>
</defs>
</svg>
