<svg width="24" height="24" viewBox="0 0 24 24" fill="none" xmlns="http://www.w3.org/2000/svg">
<g id="search">
<path id="Vector" d="M17.9915 16.224L16.2235 17.992L20.1585 21.927C20.256 22.0245 20.4145 22.0245 20.512 21.927L21.926 20.513C22.0235 20.4155 22.0235 20.257 21.926 20.1595L17.9915 16.224Z" fill="url(#paint0_linear_206_8635)"/>
<path id="Vector_2" d="M15.8005 14.0325L14.0325 15.8005L16.224 17.9915L17.9915 16.224L15.8005 14.0325Z" fill="url(#paint1_radial_206_8635)"/>
<path id="Vector_3" d="M10 18C14.4183 18 18 14.4183 18 10C18 5.58172 14.4183 2 10 2C5.58172 2 2 5.58172 2 10C2 14.4183 5.58172 18 10 18Z" fill="url(#paint2_linear_206_8635)"/>
</g>
<defs>
<linearGradient id="paint0_linear_206_8635" x1="18.0445" y1="16.3127" x2="20.9008" y2="21.8195" gradientUnits="userSpaceOnUse">
<stop stop-color="#7DD8F3"/>
<stop offset="1" stop-color="#45B0D0"/>
</linearGradient>
<radialGradient id="paint1_radial_206_8635" cx="0" cy="0" r="1" gradientUnits="userSpaceOnUse" gradientTransform="translate(10.012 10.048) scale(9.802)">
<stop offset="0.693" stop-color="#006185"/>
<stop offset="0.921" stop-color="#35C1F1"/>
</radialGradient>
<linearGradient id="paint2_linear_206_8635" x1="5.54467" y1="-0.383567" x2="16.3904" y2="15.5378" gradientUnits="userSpaceOnUse">
<stop stop-color="#FCFCFC"/>
<stop offset="0.95" stop-color="#C3C9CD"/>
</linearGradient>
</defs>
</svg>
