<svg width="24" height="24" viewBox="0 0 24 24" fill="none" xmlns="http://www.w3.org/2000/svg">
<g id="secured-letter">
<path id="Vector" d="M4.5 13L22.5 5.84601V19C22.5 19.5525 22.0525 20 21.5 20H4.5V13Z" fill="url(#paint0_linear_206_8697)"/>
<path id="Vector_2" d="M1.5 5.84601V19C1.5 19.5525 1.9475 20 2.5 20H21.5C21.7455 20 21.9675 19.908 22.1415 19.761L1.5 5.84601Z" fill="url(#paint1_linear_206_8697)"/>
<path id="Vector_3" opacity="0.05" d="M1.5 5.5H22.5V6.346L13.84 13.071C12.7575 13.9115 11.2425 13.9115 10.16 13.071L1.5 6.346V5.5Z" fill="black"/>
<path id="Vector_4" opacity="0.07" d="M1.5 5.25H22.5V6.096L13.483 12.652C12.602 13.304 11.398 13.304 10.517 12.652L1.5 6.096V5.25Z" fill="black"/>
<path id="Vector_5" d="M2.5 4H21.5C22.0525 4 22.5 4.4475 22.5 5V5.846L13.126 12.233C12.4465 12.696 11.553 12.696 10.874 12.233L1.5 5.846V5C1.5 4.4475 1.9475 4 2.5 4Z" fill="url(#paint2_linear_206_8697)"/>
</g>
<defs>
<linearGradient id="paint0_linear_206_8697" x1="10.758" y1="8.81901" x2="22.796" y2="26.8365" gradientUnits="userSpaceOnUse">
<stop stop-color="#28AFEA"/>
<stop offset="1" stop-color="#0B88DA"/>
</linearGradient>
<linearGradient id="paint1_linear_206_8697" x1="0.704" y1="12.205" x2="18.1655" y2="23.082" gradientUnits="userSpaceOnUse">
<stop stop-color="#28AFEA"/>
<stop offset="1" stop-color="#0B88DA"/>
</linearGradient>
<linearGradient id="paint2_linear_206_8697" x1="8.121" y1="4.13173" x2="10.2263" y2="14.0666" gradientUnits="userSpaceOnUse">
<stop stop-color="#7DD8F3"/>
<stop offset="1" stop-color="#45B0D0"/>
</linearGradient>
</defs>
</svg>
