<svg width="24" height="24" viewBox="0 0 24 24" fill="none" xmlns="http://www.w3.org/2000/svg">
<g id="sell-stock">
<path id="Vector" d="M18.5 22C19.3284 22 20 21.3284 20 20.5C20 19.6716 19.3284 19 18.5 19C17.6716 19 17 19.6716 17 20.5C17 21.3284 17.6716 22 18.5 22Z" fill="#5C5F61"/>
<path id="Vector_2" opacity="0.15" d="M18.5 21C18.7761 21 19 20.7761 19 20.5C19 20.2239 18.7761 20 18.5 20C18.2239 20 18 20.2239 18 20.5C18 20.7761 18.2239 21 18.5 21Z" fill="black"/>
<path id="Vector_3" d="M7.5 22C8.32843 22 9 21.3284 9 20.5C9 19.6716 8.32843 19 7.5 19C6.67157 19 6 19.6716 6 20.5C6 21.3284 6.67157 22 7.5 22Z" fill="#5C5F61"/>
<path id="Vector_4" opacity="0.15" d="M7.5 21C7.77614 21 8 20.7761 8 20.5C8 20.2239 7.77614 20 7.5 20C7.22386 20 7 20.2239 7 20.5C7 20.7761 7.22386 21 7.5 21Z" fill="black"/>
<path id="Vector_5" d="M5.5145 14.5H21.985C22.2695 14.5 22.5 14.724 22.5 15V16C22.5 16.276 22.2695 16.5 21.9855 16.5H5.5145C5.2305 16.5 5 16.276 5 16V15C5 14.724 5.2305 14.5 5.5145 14.5Z" fill="url(#paint0_linear_206_8751)"/>
<path id="Vector_6" d="M20.5 19.5H6.347C5.6105 19.5 4.9885 18.973 4.8675 18.2465L2.716 5.3355C2.635 4.8515 2.22 4.5 1.729 4.5H1C0.724 4.5 0.5 4.276 0.5 4C0.5 3.724 0.724 3.5 1 3.5H1.729C2.7105 3.5 3.5405 4.203 3.702 5.171L5.854 18.082C5.8945 18.324 6.102 18.5 6.347 18.5H20.5C20.776 18.5 21 18.724 21 19C21 19.276 20.776 19.5 20.5 19.5Z" fill="url(#paint1_linear_206_8751)"/>
<path id="Vector_7" d="M2 4C2 4.552 1.552 5 1 5C0.448 5 0 4.552 0 4C0 3.448 0.448 3 1 3C1.552 3 2 3.448 2 4Z" fill="url(#paint2_linear_206_8751)"/>
<path id="Vector_8" d="M20.75 14.5H6.75V5C6.75 4.724 6.974 4.5 7.25 4.5H20.25C20.526 4.5 20.75 4.724 20.75 5V14.5Z" fill="#E3A600"/>
</g>
<defs>
<linearGradient id="paint0_linear_206_8751" x1="5" y1="15.5" x2="22.5" y2="15.5" gradientUnits="userSpaceOnUse">
<stop stop-color="#3079D6"/>
<stop offset="1" stop-color="#297CD2"/>
</linearGradient>
<linearGradient id="paint1_linear_206_8751" x1="10.75" y1="19.415" x2="10.75" y2="14.116" gradientUnits="userSpaceOnUse">
<stop stop-color="#92A3B0"/>
<stop offset="0.015" stop-color="#A3B5C4"/>
<stop offset="0.032" stop-color="#AEC2D1"/>
<stop offset="0.046" stop-color="#B2C6D6"/>
</linearGradient>
<linearGradient id="paint2_linear_206_8751" x1="0.378" y1="3.378" x2="1.692" y2="4.692" gradientUnits="userSpaceOnUse">
<stop stop-color="#199AE0"/>
<stop offset="1" stop-color="#0782D8"/>
</linearGradient>
</defs>
</svg>
