<svg width="24" height="24" viewBox="0 0 24 24" fill="none" xmlns="http://www.w3.org/2000/svg">
<g id="send">
<path id="Vector" d="M4.5 13L22.5 5.84601V19C22.5 19.5525 22.0525 20 21.5 20H4.5V13Z" fill="url(#paint0_linear_206_8760)"/>
<path id="Vector_2" d="M1.5 5.84601V19C1.5 19.5525 1.9475 20 2.5 20H21.5C21.7455 20 21.9675 19.908 22.1415 19.761L1.5 5.84601Z" fill="url(#paint1_linear_206_8760)"/>
<path id="Vector_3" opacity="0.05" d="M1.5 5.5H22.5V6.346L13.84 13.071C12.7575 13.9115 11.2425 13.9115 10.16 13.071L1.5 6.346V5.5Z" fill="black"/>
<path id="Vector_4" opacity="0.07" d="M1.5 5.25H22.5V6.096L13.483 12.652C12.602 13.304 11.398 13.304 10.517 12.652L1.5 6.096V5.25Z" fill="black"/>
<path id="Vector_5" d="M2.5 4H21.5C22.0525 4 22.5 4.4475 22.5 5V5.846L13.126 12.233C12.4465 12.696 11.553 12.696 10.874 12.233L1.5 5.846V5C1.5 4.4475 1.9475 4 2.5 4Z" fill="url(#paint2_linear_206_8760)"/>
<path id="Vector_6" opacity="0.05" d="M22.5 17.5565L20.71 15.7665C20.5385 15.5945 20.3125 15.5 20.073 15.5C19.573 15.5 19.1665 15.906 19.1665 16.4045V18.1665H15.6665C15.023 18.1665 14.5 18.6895 14.5 19.333V20H22.5V17.5565Z" fill="black"/>
<path id="Vector_7" opacity="0.07" d="M22.5 17.91L20.533 15.943C20.409 15.8185 20.246 15.75 20.0735 15.75C19.7115 15.75 19.417 16.0435 19.417 16.4045V18.4165H15.667C15.1615 18.4165 14.7505 18.8275 14.7505 19.333V20H22.5V17.91Z" fill="black"/>
<path id="Vector_8" d="M19.6665 16.4045V18.6665H15.6665C15.2985 18.6665 15 18.965 15 19.333V20.6665C15 21.0345 15.2985 21.333 15.6665 21.333H19.6665V23.595C19.6665 23.955 20.102 24.135 20.356 23.8805L23.6655 20.571C23.981 20.2555 23.981 19.7435 23.6655 19.4285L20.356 16.119C20.102 15.8645 19.6665 16.0445 19.6665 16.4045Z" fill="url(#paint3_linear_206_8760)"/>
</g>
<defs>
<linearGradient id="paint0_linear_206_8760" x1="10.758" y1="8.81901" x2="22.796" y2="26.8365" gradientUnits="userSpaceOnUse">
<stop stop-color="#28AFEA"/>
<stop offset="1" stop-color="#0B88DA"/>
</linearGradient>
<linearGradient id="paint1_linear_206_8760" x1="0.704" y1="12.205" x2="18.1655" y2="23.082" gradientUnits="userSpaceOnUse">
<stop stop-color="#28AFEA"/>
<stop offset="1" stop-color="#0B88DA"/>
</linearGradient>
<linearGradient id="paint2_linear_206_8760" x1="8.121" y1="4.13173" x2="10.2263" y2="14.0666" gradientUnits="userSpaceOnUse">
<stop stop-color="#7DD8F3"/>
<stop offset="1" stop-color="#45B0D0"/>
</linearGradient>
<linearGradient id="paint3_linear_206_8760" x1="16.3037" y1="17.1714" x2="21.9283" y2="23.4303" gradientUnits="userSpaceOnUse">
<stop stop-color="#21AD64"/>
<stop offset="1" stop-color="#088242"/>
</linearGradient>
</defs>
</svg>
