<svg width="24" height="24" viewBox="0 0 24 24" fill="none" xmlns="http://www.w3.org/2000/svg">
<g id="send-mail" clip-path="url(#clip0_206_8783)">
<path id="Vector" d="M7 4.5H17C19.75 4.5 22 6.75 22 9.5V20C22 20.55 21.55 21 21 21H7V4.5Z" fill="url(#paint0_linear_206_8783)"/>
<path id="Vector_2" d="M7 4.5C4.25 4.5 2 6.75 2 9.5V20C2 20.55 2.45 21 3 21H11C11.55 21 12 20.55 12 20V9.5C12 6.75 9.75 4.5 7 4.5Z" fill="url(#paint1_linear_206_8783)"/>
<path id="Vector_3" opacity="0.05" d="M17 4.5H12.15C12.2 4.55 12.2 4.6 12.25 4.6L14.45 6.8V8.75C14.45 9.2 14.8 9.55 15.25 9.55H17.2L19.4 11.75C19.55 11.9 19.75 12 20 12C20.35 12 20.65 11.8 20.8 11.45L21.9 8.25C21.3 6.1 19.35 4.5 17 4.5Z" fill="black"/>
<path id="Vector_4" opacity="0.07" d="M17 4.5H12.45L14.65 6.7V8.8C14.65 9.1 14.9 9.35 15.2 9.35H17.3L19.55 11.6C19.65 11.7 19.8 11.75 19.95 11.75C20.2 11.75 20.4 11.6 20.5 11.35L21.7 7.8C21 5.9 19.2 4.5 17 4.5Z" fill="black"/>
<path id="Vector_5" d="M8.5 10.5H5C4.7 10.5 4.5 10.3 4.5 10C4.5 9.7 4.7 9.5 5 9.5H8.5C8.8 9.5 9 9.7 9 10C9 10.3 8.8 10.5 8.5 10.5Z" fill="url(#paint2_linear_206_8783)"/>
<path id="Vector_6" d="M23.6 2.26302e-05L12.7 3.75002C12.45 3.85002 12.4 4.10002 12.6 4.30002L19.75 11.45C19.9 11.6 20.2 11.55 20.3 11.35L24 0.400023C24.05 0.150023 23.85 -0.0499774 23.6 2.26302e-05Z" fill="url(#paint3_linear_206_8783)"/>
<path id="Vector_7" d="M22.5 1.5L14.9 6.6V8.8C14.9 8.95 15.05 9.1 15.2 9.1H17.4L22.5 1.5Z" fill="url(#paint4_linear_206_8783)"/>
</g>
<defs>
<linearGradient id="paint0_linear_206_8783" x1="14.5" y1="4.46539" x2="14.5" y2="20.9404" gradientUnits="userSpaceOnUse">
<stop stop-color="#2AA4F4"/>
<stop offset="1" stop-color="#007AD9"/>
</linearGradient>
<linearGradient id="paint1_linear_206_8783" x1="3.6025" y1="5.485" x2="10.0915" y2="22.4725" gradientUnits="userSpaceOnUse">
<stop stop-color="#32BDEF"/>
<stop offset="1" stop-color="#1EA2E4"/>
</linearGradient>
<linearGradient id="paint2_linear_206_8783" x1="6.75" y1="9.4979" x2="6.75" y2="10.4964" gradientUnits="userSpaceOnUse">
<stop stop-color="#2AA4F4"/>
<stop offset="1" stop-color="#007AD9"/>
</linearGradient>
<linearGradient id="paint3_linear_206_8783" x1="15.4678" y1="-0.668744" x2="23.4099" y2="7.70434" gradientUnits="userSpaceOnUse">
<stop stop-color="#FCFCFC"/>
<stop offset="0.495" stop-color="#F4F4F4"/>
<stop offset="0.946" stop-color="#E8E8E8"/>
<stop offset="1" stop-color="#E8E8E8"/>
</linearGradient>
<linearGradient id="paint4_linear_206_8783" x1="15.6326" y1="1.78744" x2="22.9071" y2="6.31006" gradientUnits="userSpaceOnUse">
<stop stop-color="#A1AAB3"/>
<stop offset="1" stop-color="#8F979E"/>
</linearGradient>
<clipPath id="clip0_206_8783">
<rect width="24" height="24" fill="white"/>
</clipPath>
</defs>
</svg>
