<svg width="24" height="24" viewBox="0 0 24 24" fill="none" xmlns="http://www.w3.org/2000/svg">
<g id="sepa">
<path id="Vector" d="M21.5625 4.59399H2.4375C1.6435 4.59399 1 5.23749 1 6.03149V18.1565C1 18.9505 1.6435 19.594 2.4375 19.594H21.5625C22.3565 19.594 23 18.9505 23 18.1565V6.03149C23 5.23749 22.3565 4.59399 21.5625 4.59399Z" fill="url(#paint0_linear_206_8791)"/>
<path id="Vector_2" opacity="0.05" d="M21.7195 13.646C21.719 13.6455 21.719 13.6455 21.7195 13.646L20.4765 9.51653C20.3835 9.20753 20.1045 9.00002 19.782 9.00002H18.311C17.993 9.00002 17.707 9.21302 17.6165 9.51802L16.9865 11.637C17.005 11.4435 17.006 11.2685 17.006 11.141C17.006 10.5005 17.006 9.00002 14.9535 9.00002H12.9245C12.525 9.00002 12.1995 9.32502 12.1995 9.72452V9.82852C12.175 9.78402 12.144 9.74203 12.1055 9.70603C11.5655 9.19503 10.8565 8.91302 10.108 8.91302C9.5245 8.91302 8.9615 9.08452 8.481 9.40852C8.1125 9.65652 7.811 9.98303 7.595 10.364H7.435C7.2405 10.364 7.0635 10.477 6.9815 10.653L6.65 11.365C6.6405 11.385 6.6365 11.4065 6.63 11.4275C6.579 11.354 6.525 11.2865 6.465 11.2295C6.5145 11.1975 6.5595 11.159 6.6005 11.115C6.738 10.9655 6.8075 10.7645 6.7905 10.562C6.7085 9.57303 6.323 9.00002 4.5955 9.00002C3.5415 9.00002 2.2295 9.00003 2.2165 10.817C2.2125 11.32 2.4195 11.781 2.758 12.116C2.6315 12.15 2.515 12.219 2.4235 12.315C2.286 12.459 2.2125 12.657 2.2225 12.8575C2.291 14.227 3.1355 14.495 4.5705 14.495L4.7175 14.497C4.781 14.4985 4.851 14.5 4.926 14.5C5.3665 14.5 5.9695 14.4485 6.4115 14.016C6.642 13.79 6.789 13.486 6.8645 13.12C6.937 13.1595 7.019 13.181 7.104 13.181H7.6165C8.125 14.038 9.0695 14.5755 10.1085 14.5755C10.688 14.5755 11.2465 14.4065 11.7245 14.0865C11.862 13.9945 11.945 13.8415 11.9465 13.676L11.9555 12.782C11.9575 12.5695 11.825 12.379 11.6255 12.307C11.505 12.2635 11.3765 12.269 11.264 12.3155L11.335 12.1605C11.365 12.095 11.38 12.0255 11.3805 11.956C11.434 11.9105 11.478 11.8535 11.509 11.787L11.8405 11.075C11.8585 11.0365 11.871 10.9965 11.8785 10.9555C11.89 10.938 11.901 10.9195 11.9105 10.9005L12.2 10.312V13.77C12.2 14.17 12.525 14.495 12.925 14.495H13.685C14.0845 14.495 14.4095 14.17 14.4095 13.77V13.271H15.258C16.0425 13.271 16.473 12.959 16.7115 12.563L16.386 13.658C16.3275 13.854 16.3655 14.0685 16.488 14.2325C16.6105 14.3965 16.8055 14.4945 17.01 14.4945H17.859C18.184 14.4945 18.4715 14.2755 18.5575 13.963L18.6255 13.718H19.4875L19.563 13.974C19.653 14.2805 19.939 14.495 20.2585 14.495H21.0885C21.296 14.495 21.4935 14.396 21.6175 14.2295C21.7405 14.063 21.779 13.8445 21.7195 13.646ZM14.409 11.2475V10.9835H14.673C14.7085 10.9835 14.7375 10.984 14.7615 10.9855C14.7645 11.024 14.7665 11.077 14.7665 11.1495C14.7665 11.1875 14.766 11.22 14.765 11.2465C14.737 11.247 14.7035 11.2475 14.663 11.2475H14.409Z" fill="black"/>
<path id="Vector_3" opacity="0.07" d="M5.6305 11.1925H6.068C6.2 11.1925 6.327 11.137 6.4165 11.0395C6.507 10.9415 6.552 10.8095 6.5415 10.6765C6.4665 9.77301 6.156 9.34351 4.5955 9.34351C3.5065 9.34351 2.478 9.34351 2.4665 10.9125C2.461 11.622 2.9435 12.235 3.614 12.434C3.6135 12.434 3.613 12.434 3.6125 12.434H2.9465C2.816 12.434 2.6945 12.486 2.6045 12.581C2.514 12.676 2.4655 12.806 2.472 12.939C2.525 13.9985 3.035 14.339 4.5705 14.339L4.723 14.3415C4.7875 14.3425 4.8575 14.344 4.9305 14.344C5.3405 14.344 5.8615 14.298 6.236 13.9315C6.527 13.647 6.674 13.2155 6.674 12.6505C6.6745 11.64 6.226 11.311 5.6305 11.1925ZM4.1375 11.0435C4.1375 11.043 4.1235 11.02 4.1235 10.9325C4.1235 10.761 4.1235 10.743 4.584 10.743C4.8645 10.743 4.916 10.7825 4.928 10.8085C4.962 10.9545 5.0535 11.0715 5.1735 11.137C5.125 11.1335 5.076 11.1305 5.027 11.1285L4.8055 11.118C4.503 11.1055 4.19 11.091 4.1375 11.0435ZM5.0225 12.6065C5.024 12.61 5.031 12.632 5.0335 12.759C5.0375 12.814 5.037 12.8455 5.0205 12.8635C5.009 12.876 4.9355 12.94 4.6615 12.94L4.52 12.941C4.1025 12.9485 4.096 12.925 4.0785 12.8275C4.0495 12.6715 3.949 12.545 3.815 12.4805C3.8645 12.489 3.9145 12.4945 3.9655 12.4985L4.145 12.511C4.584 12.5425 4.9635 12.569 5.0225 12.6065Z" fill="black"/>
<path id="Vector_4" opacity="0.07" d="M14.9535 9.34399H12.9245C12.663 9.34399 12.4495 9.55699 12.4495 9.81849V13.864C12.4495 14.126 12.6625 14.339 12.9245 14.339H13.6845C13.946 14.339 14.159 14.126 14.159 13.864V13.115H15.2575C16.578 13.115 16.756 12.165 16.756 11.235C16.756 10.253 16.5375 9.34399 14.9535 9.34399ZM15.017 11.2435C15.017 11.4915 14.994 11.551 14.987 11.562C14.9665 11.5755 14.894 11.592 14.6635 11.592H14.159V10.828H14.673C15.017 10.8275 15.017 10.8275 15.017 11.2435Z" fill="black"/>
<path id="Vector_5" opacity="0.07" d="M21.48 13.812L20.237 9.68249C20.176 9.47999 19.9935 9.34399 19.7825 9.34399H18.3115C18.103 9.34399 17.916 9.48349 17.8565 9.68349L16.626 13.8235C16.59 13.944 16.6135 14.0765 16.6885 14.1775C16.765 14.2805 16.882 14.339 17.01 14.339H17.859C18.072 14.339 18.26 14.1955 18.3165 13.9905L18.435 13.5625H19.6745L19.803 13.998C19.862 14.199 20.0495 14.3395 20.2585 14.3395H21.0885C21.219 14.3395 21.3385 14.2795 21.417 14.1745C21.4955 14.0695 21.5175 13.9375 21.48 13.812ZM19.29 12.187H18.833L19.058 11.395L19.29 12.187Z" fill="black"/>
<path id="Vector_6" opacity="0.07" d="M10.1085 9.25702C9.575 9.25702 9.0605 9.41352 8.621 9.70952C8.245 9.96302 7.9445 10.306 7.746 10.708H7.435C7.338 10.708 7.2495 10.764 7.2085 10.8525L6.877 11.5645C6.841 11.642 6.847 11.7325 6.893 11.804C6.939 11.8765 7.018 11.9195 7.1035 11.9195H7.221C7.2165 11.927 7.2125 11.934 7.2095 11.942L6.876 12.6705C6.8405 12.748 6.847 12.838 6.893 12.91C6.939 12.9815 7.018 13.0245 7.1035 13.0245H7.763C8.207 13.877 9.1095 14.419 10.108 14.419C10.638 14.419 11.1485 14.2645 11.5855 13.9725C11.654 13.9265 11.696 13.8495 11.6965 13.767L11.7055 12.873C11.7065 12.767 11.6405 12.6715 11.5405 12.635C11.4415 12.6005 11.329 12.63 11.2615 12.7125C11.2575 12.7175 10.84 13.221 10.1885 13.221C9.9235 13.221 9.675 13.1515 9.4625 13.0235H10.546C10.6435 13.0235 10.7325 12.9665 10.7735 12.8775L11.1075 12.149C11.142 12.074 11.137 11.9865 11.0945 11.916C11.176 11.903 11.2465 11.8505 11.282 11.7745L11.6135 11.0625C11.63 11.027 11.638 10.989 11.637 10.9505C11.657 10.931 11.6735 10.908 11.686 10.8825L11.9865 10.2715C12.035 10.1735 12.0135 10.055 11.934 9.97952C11.441 9.51452 10.7925 9.25702 10.1085 9.25702ZM9.3435 10.7085C9.827 10.333 10.56 10.3335 11.041 10.7085H9.3435Z" fill="black"/>
<path id="Vector_7" d="M3.8735 10.838C3.8735 10.4415 4.0745 10.399 4.584 10.399C4.9835 10.399 5.127 10.4695 5.171 10.6575C5.1965 10.7655 5.282 10.8485 5.3925 10.8485H6.0675C6.199 10.8485 6.3025 10.7345 6.2915 10.6035C6.236 9.928 6.1345 9.5 4.5955 9.5C3.3625 9.5 2.7255 9.581 2.7165 10.821C2.7115 11.526 3.28 12.1045 3.9835 12.155C5.1385 12.238 5.282 12.226 5.282 12.6155C5.282 12.7045 5.382 13.0965 4.662 13.0965C4.188 13.0965 3.8995 13.14 3.8325 12.779C3.8125 12.672 3.7215 12.5905 3.6125 12.5905H2.9465C2.816 12.5905 2.715 12.7025 2.722 12.833C2.765 13.705 3.0955 13.995 4.5705 13.995C5.169 13.995 6.4245 14.1635 6.4245 12.556C6.4245 11.483 5.903 11.327 5.015 11.284C4.132 11.241 3.8735 11.272 3.8735 10.838Z" fill="white"/>
<path id="Vector_8" d="M14.9535 9.5H12.9245C12.8005 9.5 12.7 9.6005 12.7 9.7245V13.77C12.7 13.894 12.8005 13.9945 12.9245 13.9945H13.6845C13.8085 13.9945 13.909 13.894 13.909 13.77V12.771C13.909 12.771 15.1425 12.771 15.2575 12.771C16.2345 12.771 16.506 12.2265 16.506 11.141C16.506 10.183 16.3175 9.5 14.9535 9.5ZM14.6635 11.7475H13.909V10.4835H14.673C15.155 10.4835 15.2665 10.5905 15.2665 11.149C15.267 11.689 15.1755 11.7475 14.6635 11.7475Z" fill="white"/>
<path id="Vector_9" d="M21.2405 13.7895L19.9975 9.66C19.969 9.565 19.8815 9.5 19.7825 9.5H18.3115C18.212 9.5 18.1245 9.5655 18.096 9.6605L16.865 13.8005C16.836 13.8975 16.909 13.9945 17.01 13.9945H17.859C17.96 13.9945 18.0485 13.927 18.0755 13.8295L18.245 13.2175H19.8615L20.043 13.833C20.071 13.9285 20.159 13.9945 20.2585 13.9945H21.0885C21.1945 13.995 21.271 13.892 21.2405 13.7895ZM18.5025 12.3425L19.055 10.399L19.624 12.3425H18.5025Z" fill="white"/>
<path id="Vector_10" d="M10.1085 9.41302C9.6245 9.41302 9.1585 9.55502 8.761 9.82302C8.377 10.082 8.082 10.4425 7.9065 10.864H7.435L7.1035 11.576H7.7365C7.7325 11.636 7.729 11.6925 7.729 11.744C7.729 11.812 7.733 11.882 7.7395 11.952H7.437L7.1035 12.681H7.9205C8.2975 13.538 9.155 14.075 10.1085 14.075C10.5885 14.075 11.051 13.9355 11.447 13.671L11.456 12.777C11.456 12.777 10.967 13.3775 10.1895 13.3775C9.65 13.3775 9.15 13.126 8.842 12.6805H10.547L10.881 11.9515H8.565C8.5545 11.876 8.548 11.7995 8.548 11.724C8.548 11.675 8.551 11.625 8.5555 11.5755H11.056L11.3875 10.8635H8.7905C9.088 10.374 9.6195 10.0705 10.1895 10.0705C10.6845 10.0705 11.148 10.2925 11.462 10.679L11.762 10.068C11.3155 9.64602 10.7285 9.41302 10.1085 9.41302Z" fill="url(#paint1_linear_206_8791)"/>
</g>
<defs>
<linearGradient id="paint0_linear_206_8791" x1="10.1875" y1="5.62449" x2="14.374" y2="20.5675" gradientUnits="userSpaceOnUse">
<stop stop-color="#1D59B3"/>
<stop offset="1" stop-color="#195BBC"/>
</linearGradient>
<linearGradient id="paint1_linear_206_8791" x1="7.1035" y1="11.7445" x2="11.762" y2="11.7445" gradientUnits="userSpaceOnUse">
<stop stop-color="#FEDE00"/>
<stop offset="1" stop-color="#FFD000"/>
</linearGradient>
</defs>
</svg>
