<svg width="24" height="24" viewBox="0 0 24 24" fill="none" xmlns="http://www.w3.org/2000/svg">
<g id="services">
<path id="Vector" d="M14.815 14.984C14.04 15.0825 13.2455 14.7195 12.83 14C12.415 13.281 12.4975 12.4115 12.97 11.7895C12.236 11.0925 11.342 10.5645 10.3455 10.27C10.044 10.992 9.3315 11.5 8.5 11.5C7.6685 11.5 6.956 10.992 6.6545 10.27C5.658 10.565 4.764 11.0925 4.03 11.7895C4.5025 12.4115 4.585 13.281 4.17 14C3.755 14.719 2.9605 15.0825 2.185 14.984C2.0685 15.471 2 15.977 2 16.5C2 17.023 2.0685 17.529 2.185 18.016C2.96 17.9175 3.7545 18.281 4.17 19C4.585 19.719 4.5025 20.5885 4.03 21.2105C4.764 21.9075 5.658 22.4355 6.6545 22.73C6.956 22.008 7.6685 21.5 8.5 21.5C9.3315 21.5 10.044 22.008 10.3455 22.73C11.342 22.435 12.236 21.9075 12.97 21.2105C12.4975 20.5885 12.4145 19.719 12.83 19C13.245 18.281 14.0395 17.9175 14.815 18.016C14.9315 17.529 15 17.023 15 16.5C15 15.977 14.9315 15.471 14.815 14.984Z" fill="url(#paint0_linear_206_8824)"/>
<path id="Vector_2" d="M8.5 20C10.433 20 12 18.433 12 16.5C12 14.567 10.433 13 8.5 13C6.567 13 5 14.567 5 16.5C5 18.433 6.567 20 8.5 20Z" fill="url(#paint1_linear_206_8824)"/>
<path id="Vector_3" d="M8.50001 18.6305C9.67665 18.6305 10.6305 17.6766 10.6305 16.5C10.6305 15.3234 9.67665 14.3695 8.50001 14.3695C7.32336 14.3695 6.36951 15.3234 6.36951 16.5C6.36951 17.6766 7.32336 18.6305 8.50001 18.6305Z" fill="url(#paint2_linear_206_8824)"/>
<path id="Vector_4" d="M14.815 14.984C14.04 15.0825 13.2455 14.7195 12.83 14C12.415 13.281 12.4975 12.4115 12.97 11.7895C12.236 11.0925 11.342 10.5645 10.3455 10.27C10.044 10.992 9.3315 11.5 8.5 11.5C7.6685 11.5 6.956 10.992 6.6545 10.27C5.658 10.565 4.764 11.0925 4.03 11.7895C4.5025 12.4115 4.585 13.281 4.17 14C3.755 14.719 2.9605 15.0825 2.185 14.984C2.0685 15.471 2 15.977 2 16.5C2 17.023 2.0685 17.529 2.185 18.016C2.96 17.9175 3.7545 18.281 4.17 19C4.585 19.719 4.5025 20.5885 4.03 21.2105C4.764 21.9075 5.658 22.4355 6.6545 22.73C6.956 22.008 7.6685 21.5 8.5 21.5C9.3315 21.5 10.044 22.008 10.3455 22.73C11.342 22.435 12.236 21.9075 12.97 21.2105C12.4975 20.5885 12.4145 19.719 12.83 19C13.245 18.281 14.0395 17.9175 14.815 18.016C14.9315 17.529 15 17.023 15 16.5C15 15.977 14.9315 15.471 14.815 14.984Z" fill="url(#paint3_linear_206_8824)"/>
<path id="Vector_5" d="M8.5 20C10.433 20 12 18.433 12 16.5C12 14.567 10.433 13 8.5 13C6.567 13 5 14.567 5 16.5C5 18.433 6.567 20 8.5 20Z" fill="url(#paint4_linear_206_8824)"/>
<path id="Vector_6" d="M8.5 18.5C9.60457 18.5 10.5 17.6046 10.5 16.5C10.5 15.3954 9.60457 14.5 8.5 14.5C7.39543 14.5 6.5 15.3954 6.5 16.5C6.5 17.6046 7.39543 18.5 8.5 18.5Z" fill="url(#paint5_linear_206_8824)"/>
<path id="Vector_7" d="M21.835 4.37451C21.222 4.62501 20.4925 4.50201 19.995 4.00451C19.4975 3.50701 19.3745 2.77751 19.625 2.16501C18.8715 1.75551 18.024 1.52001 17.144 1.49701C17.0555 2.15401 16.584 2.72601 15.9035 2.90851C15.223 3.09101 14.5285 2.83151 14.1235 2.30651C13.3725 2.76601 12.757 3.39451 12.309 4.12551C12.832 4.53101 13.0905 5.22451 12.9085 5.90401C12.7265 6.58351 12.156 7.05501 11.5 7.14451C11.5115 7.56901 11.5665 7.99751 11.681 8.42551C11.7955 8.85351 11.9625 9.25251 12.165 9.62551C12.778 9.37501 13.5075 9.49801 14.005 9.99551C14.5025 10.493 14.6255 11.2225 14.375 11.835C15.1285 12.2445 15.976 12.48 16.856 12.503C16.9445 11.846 17.416 11.274 18.0965 11.0915C18.777 10.909 19.4715 11.1685 19.8765 11.6935C20.6275 11.234 21.243 10.6055 21.691 9.87451C21.168 9.46901 20.9095 8.77551 21.0915 8.09601C21.2735 7.41651 21.844 6.94501 22.5 6.85551C22.4885 6.43101 22.4335 6.00251 22.319 5.57451C22.2045 5.14701 22.0375 4.74801 21.835 4.37451Z" fill="url(#paint6_linear_206_8824)"/>
<path id="Vector_8" d="M17 9.96497C18.6375 9.96497 19.965 8.6375 19.965 6.99997C19.965 5.36245 18.6375 4.03497 17 4.03497C15.3625 4.03497 14.035 5.36245 14.035 6.99997C14.035 8.6375 15.3625 9.96497 17 9.96497Z" fill="url(#paint7_linear_206_8824)"/>
<path id="Vector_9" d="M17 8.80501C17.9969 8.80501 18.805 7.99688 18.805 7.00001C18.805 6.00313 17.9969 5.19501 17 5.19501C16.0031 5.19501 15.195 6.00313 15.195 7.00001C15.195 7.99688 16.0031 8.80501 17 8.80501Z" fill="url(#paint8_linear_206_8824)"/>
<path id="Vector_10" d="M21.835 4.37451C21.222 4.62501 20.4925 4.50201 19.995 4.00451C19.4975 3.50701 19.3745 2.77751 19.625 2.16501C18.8715 1.75551 18.024 1.52001 17.144 1.49701C17.0555 2.15401 16.584 2.72601 15.9035 2.90851C15.223 3.09101 14.5285 2.83151 14.1235 2.30651C13.3725 2.76601 12.757 3.39451 12.309 4.12551C12.832 4.53101 13.0905 5.22451 12.9085 5.90401C12.7265 6.58351 12.156 7.05501 11.5 7.14451C11.5115 7.56901 11.5665 7.99751 11.681 8.42551C11.7955 8.85351 11.9625 9.25251 12.165 9.62551C12.778 9.37501 13.5075 9.49801 14.005 9.99551C14.5025 10.493 14.6255 11.2225 14.375 11.835C15.1285 12.2445 15.976 12.48 16.856 12.503C16.9445 11.846 17.416 11.274 18.0965 11.0915C18.777 10.909 19.4715 11.1685 19.8765 11.6935C20.6275 11.234 21.243 10.6055 21.691 9.87451C21.168 9.46901 20.9095 8.77551 21.0915 8.09601C21.2735 7.41651 21.844 6.94501 22.5 6.85551C22.4885 6.43101 22.4335 6.00251 22.319 5.57451C22.2045 5.14701 22.0375 4.74801 21.835 4.37451Z" fill="url(#paint9_linear_206_8824)"/>
<path id="Vector_11" d="M17 9.96497C18.6375 9.96497 19.965 8.6375 19.965 6.99997C19.965 5.36245 18.6375 4.03497 17 4.03497C15.3625 4.03497 14.035 5.36245 14.035 6.99997C14.035 8.6375 15.3625 9.96497 17 9.96497Z" fill="url(#paint10_linear_206_8824)"/>
<path id="Vector_12" d="M17 8.69448C17.9358 8.69448 18.6945 7.93583 18.6945 6.99998C18.6945 6.06413 17.9358 5.30548 17 5.30548C16.0641 5.30548 15.3055 6.06413 15.3055 6.99998C15.3055 7.93583 16.0641 8.69448 17 8.69448Z" fill="url(#paint11_linear_206_8824)"/>
</g>
<defs>
<linearGradient id="paint0_linear_206_8824" x1="4.073" y1="12.073" x2="13.327" y2="21.327" gradientUnits="userSpaceOnUse">
<stop stop-color="#889097"/>
<stop offset="0.331" stop-color="#848C94"/>
<stop offset="0.669" stop-color="#78828B"/>
<stop offset="1" stop-color="#64717C"/>
</linearGradient>
<linearGradient id="paint1_linear_206_8824" x1="10.9385" y1="18.9385" x2="6.029" y2="14.029" gradientUnits="userSpaceOnUse">
<stop stop-color="white"/>
<stop offset="0.242" stop-color="#F2F2F2"/>
<stop offset="1" stop-color="#CCCCCC"/>
</linearGradient>
<linearGradient id="paint2_linear_206_8824" x1="6.50651" y1="14.5065" x2="10.0035" y2="18.0035" gradientUnits="userSpaceOnUse">
<stop stop-color="#0D61A9"/>
<stop offset="0.363" stop-color="#0E5FA4"/>
<stop offset="0.78" stop-color="#135796"/>
<stop offset="1" stop-color="#16528C"/>
</linearGradient>
<linearGradient id="paint3_linear_206_8824" x1="4.073" y1="12.073" x2="13.327" y2="21.327" gradientUnits="userSpaceOnUse">
<stop stop-color="#889097"/>
<stop offset="0.331" stop-color="#848C94"/>
<stop offset="0.669" stop-color="#78828B"/>
<stop offset="1" stop-color="#64717C"/>
</linearGradient>
<linearGradient id="paint4_linear_206_8824" x1="10.9385" y1="18.9385" x2="6.029" y2="14.029" gradientUnits="userSpaceOnUse">
<stop stop-color="white"/>
<stop offset="0.242" stop-color="#F2F2F2"/>
<stop offset="1" stop-color="#CCCCCC"/>
</linearGradient>
<linearGradient id="paint5_linear_206_8824" x1="6.6285" y1="14.6285" x2="9.9115" y2="17.9115" gradientUnits="userSpaceOnUse">
<stop stop-color="#0D61A9"/>
<stop offset="0.363" stop-color="#0E5FA4"/>
<stop offset="0.78" stop-color="#135796"/>
<stop offset="1" stop-color="#16528C"/>
</linearGradient>
<linearGradient id="paint6_linear_206_8824" x1="12.4068" y1="4.34828" x2="22.0082" y2="9.89229" gradientUnits="userSpaceOnUse">
<stop stop-color="#889097"/>
<stop offset="0.331" stop-color="#848C94"/>
<stop offset="0.669" stop-color="#78828B"/>
<stop offset="1" stop-color="#64717C"/>
</linearGradient>
<linearGradient id="paint7_linear_206_8824" x1="19.5299" y1="8.4609" x2="14.4362" y2="5.51995" gradientUnits="userSpaceOnUse">
<stop stop-color="white"/>
<stop offset="0.242" stop-color="#F2F2F2"/>
<stop offset="1" stop-color="#CCCCCC"/>
</linearGradient>
<linearGradient id="paint8_linear_206_8824" x1="14.9316" y1="5.80602" x2="18.5599" y2="7.90089" gradientUnits="userSpaceOnUse">
<stop stop-color="#0D61A9"/>
<stop offset="0.363" stop-color="#0E5FA4"/>
<stop offset="0.78" stop-color="#135796"/>
<stop offset="1" stop-color="#16528C"/>
</linearGradient>
<linearGradient id="paint9_linear_206_8824" x1="12.4068" y1="4.34828" x2="22.0082" y2="9.89229" gradientUnits="userSpaceOnUse">
<stop stop-color="#889097"/>
<stop offset="0.331" stop-color="#848C94"/>
<stop offset="0.669" stop-color="#78828B"/>
<stop offset="1" stop-color="#64717C"/>
</linearGradient>
<linearGradient id="paint10_linear_206_8824" x1="19.0655" y1="9.06547" x2="14.9065" y2="4.90647" gradientUnits="userSpaceOnUse">
<stop stop-color="white"/>
<stop offset="0.242" stop-color="#F2F2F2"/>
<stop offset="1" stop-color="#CCCCCC"/>
</linearGradient>
<linearGradient id="paint11_linear_206_8824" x1="15.4145" y1="5.41448" x2="18.1955" y2="8.19548" gradientUnits="userSpaceOnUse">
<stop stop-color="#0D61A9"/>
<stop offset="0.363" stop-color="#0E5FA4"/>
<stop offset="0.78" stop-color="#135796"/>
<stop offset="1" stop-color="#16528C"/>
</linearGradient>
</defs>
</svg>
