<svg width="24" height="24" viewBox="0 0 24 24" fill="none" xmlns="http://www.w3.org/2000/svg">
<g id="service">
<path id="Vector" d="M19.75 17C20.4404 17 21 16.4404 21 15.75C21 15.0596 20.4404 14.5 19.75 14.5C19.0596 14.5 18.5 15.0596 18.5 15.75C18.5 16.4404 19.0596 17 19.75 17Z" fill="#C98E00"/>
<path id="Vector_2" d="M13.1055 20.8415L20.34 16.8465L19.27 14.5955L13 17.5L13.1055 20.8415Z" fill="#C98E00"/>
<path id="Vector_3" d="M22.5 16.25C22.5 15.5595 21.9405 15 21.25 15C21.08 15 20.918 15.0345 20.7705 15.096L20.77 15.0955L20.7645 15.098C20.7635 15.0985 20.7625 15.099 20.7615 15.0995L14.5 18L13.75 17.5C14.4405 17.5 15 16.9405 15 16.25C15 15.785 14.743 15.384 14.3665 15.1685L14.3685 15.1605L7.543 11.7275H7.5305C7.2155 11.5845 6.8685 11.5 6.5 11.5C6.141 11.5 5.8015 11.5785 5.4925 11.715H5.4815L1.5 13.5V20L5.545 18.141L13.5005 21.395H13.501C13.6545 21.462 13.8225 21.5 14 21.5C14.2175 21.5 14.419 21.4395 14.5975 21.3415L14.606 21.341L21.8405 17.3465L21.84 17.3455C22.231 17.1345 22.5 16.726 22.5 16.25Z" fill="url(#paint0_linear_206_8814)"/>
<path id="Vector_4" d="M13.75 17C14.1642 17 14.5 16.6642 14.5 16.25C14.5 15.8358 14.1642 15.5 13.75 15.5C13.3358 15.5 13 15.8358 13 16.25C13 16.6642 13.3358 17 13.75 17Z" fill="#FFDE87"/>
<path id="Vector_5" d="M14.5 18L13.7555 17.501C13.128 17.471 12.6345 17.267 8.5 15.7445V17.5L14.2755 19.867C14.2755 19.867 13.8665 18.7255 14.5 18Z" fill="url(#paint1_linear_206_8814)"/>
<path id="Vector_6" d="M15.5 10.434C17.4054 10.434 18.95 8.88938 18.95 6.984C18.95 5.07861 17.4054 3.534 15.5 3.534C13.5946 3.534 12.05 5.07861 12.05 6.984C12.05 8.88938 13.5946 10.434 15.5 10.434Z" fill="url(#paint2_linear_206_8814)"/>
<path id="Vector_7" d="M15.5 9.08397C16.6598 9.08397 17.6 8.14377 17.6 6.98397C17.6 5.82417 16.6598 4.88397 15.5 4.88397C14.3402 4.88397 13.4 5.82417 13.4 6.98397C13.4 8.14377 14.3402 9.08397 15.5 9.08397Z" fill="url(#paint3_linear_206_8814)"/>
<g id="Group">
<path id="Vector_8" d="M21.322 5.55701C20.6055 5.54801 19.9115 5.17501 19.527 4.50901C19.157 3.86801 19.1645 3.11401 19.4785 2.50101C18.841 1.93501 18.086 1.49951 17.2495 1.24451C16.873 1.81051 16.2305 2.18401 15.5 2.18401C14.7695 2.18401 14.127 1.81051 13.7505 1.24501C12.914 1.49951 12.159 1.93501 11.5215 2.50151C11.835 3.11451 11.843 3.86851 11.473 4.50951C11.0885 5.17501 10.3945 5.54851 9.678 5.55751C9.566 6.01501 9.5 6.49151 9.5 6.98401C9.5 7.36901 9.54 7.74451 9.609 8.10951C10.35 8.09401 11.076 8.47201 11.473 9.15901C11.8835 9.87001 11.829 10.72 11.407 11.3625C12.0315 11.9465 12.779 12.3995 13.609 12.675C13.948 11.971 14.666 11.484 15.5 11.484C16.334 11.484 17.052 11.971 17.391 12.675C18.221 12.399 18.9685 11.9465 19.593 11.3625C19.171 10.72 19.1165 9.87001 19.527 9.15901C19.9235 8.47201 20.65 8.09451 21.391 8.10951C21.46 7.74451 21.5 7.36901 21.5 6.98401C21.5 6.49151 21.434 6.01501 21.322 5.55701ZM15.5 10.134C13.7605 10.134 12.35 8.72351 12.35 6.98401C12.35 5.24451 13.7605 3.83401 15.5 3.83401C17.2395 3.83401 18.65 5.24451 18.65 6.98401C18.65 8.72351 17.2395 10.134 15.5 10.134Z" fill="url(#paint4_linear_206_8814)"/>
</g>
</g>
<defs>
<linearGradient id="paint0_linear_206_8814" x1="1.5" y1="16.5" x2="22.5" y2="16.5" gradientUnits="userSpaceOnUse">
<stop stop-color="#FFCF54"/>
<stop offset="0.261" stop-color="#FDCB4D"/>
<stop offset="0.639" stop-color="#F7C13A"/>
<stop offset="1" stop-color="#F0B421"/>
</linearGradient>
<linearGradient id="paint1_linear_206_8814" x1="11.1685" y1="18.184" x2="12.0615" y2="16.644" gradientUnits="userSpaceOnUse">
<stop stop-color="#F0B421" stop-opacity="0"/>
<stop offset="0.512" stop-color="#E9AB12" stop-opacity="0.512"/>
<stop offset="1" stop-color="#E09F00"/>
</linearGradient>
<linearGradient id="paint2_linear_206_8814" x1="17.9035" y1="9.3875" x2="13.064" y2="4.548" gradientUnits="userSpaceOnUse">
<stop stop-color="white"/>
<stop offset="0.242" stop-color="#F2F2F2"/>
<stop offset="1" stop-color="#CCCCCC"/>
</linearGradient>
<linearGradient id="paint3_linear_206_8814" x1="13.535" y1="5.01897" x2="16.982" y2="8.46597" gradientUnits="userSpaceOnUse">
<stop stop-color="#0D61A9"/>
<stop offset="0.363" stop-color="#0E5FA4"/>
<stop offset="0.78" stop-color="#135796"/>
<stop offset="1" stop-color="#16528C"/>
</linearGradient>
<linearGradient id="paint4_linear_206_8814" x1="9.898" y1="1.38701" x2="19.7245" y2="11.214" gradientUnits="userSpaceOnUse">
<stop stop-color="#889097"/>
<stop offset="0.331" stop-color="#848C94"/>
<stop offset="0.669" stop-color="#78828B"/>
<stop offset="1" stop-color="#64717C"/>
</linearGradient>
</defs>
</svg>
