<svg width="24" height="24" viewBox="0 0 24 24" fill="none" xmlns="http://www.w3.org/2000/svg">
<g id="shared-folder">
<path id="Vector" d="M12.5 20V16H11.5V20H3.5C3.224 20 3 20.224 3 20.5C3 20.776 3.224 21 3.5 21H20.5C20.776 21 21 20.776 21 20.5C21 20.224 20.776 20 20.5 20H12.5Z" fill="#E9EBED"/>
<path id="Vector_2" d="M14.5 19.5H13V18.5C13 18.224 12.776 18 12.5 18H11.5C11.224 18 11 18.224 11 18.5V19.5H9.5C9.224 19.5 9 19.724 9 20V21C9 21.276 9.224 21.5 9.5 21.5H14.5C14.776 21.5 15 21.276 15 21V20C15 19.724 14.776 19.5 14.5 19.5Z" fill="#21A366"/>
<path id="Vector_3" d="M12 4.5V7.5H4L3.5 6.998V3.795C3.5 3.355 3.86 3 4.31 3H9.485C9.8 3 10.1 3.125 10.325 3.345L11.15 4.155C11.375 4.375 11.675 4.5 11.99 4.5H12Z" fill="url(#paint0_linear_206_8862)"/>
<path id="Vector_4" d="M10.6195 5.8645L11.941 4.5585C11.979 4.521 12.03 4.5 12.083 4.5H19.5C20.0525 4.5 20.5 4.9475 20.5 5.5V15.5C20.5 16.0525 20.0525 16.5 19.5 16.5H4.5C3.9475 16.5 3.5 16.0525 3.5 15.5V6.6C3.5 6.324 3.724 6.1 4 6.1H10.046C10.2605 6.1 10.4665 6.0155 10.6195 5.8645Z" fill="url(#paint1_linear_206_8862)"/>
</g>
<defs>
<linearGradient id="paint0_linear_206_8862" x1="7.75" y1="7.5385" x2="7.75" y2="6.444" gradientUnits="userSpaceOnUse">
<stop stop-color="#EBA600"/>
<stop offset="1" stop-color="#C28200"/>
</linearGradient>
<linearGradient id="paint1_linear_206_8862" x1="12" y1="4.4415" x2="12" y2="16.4935" gradientUnits="userSpaceOnUse">
<stop stop-color="#FFD869"/>
<stop offset="1" stop-color="#FEC52B"/>
</linearGradient>
</defs>
</svg>
