<svg width="24" height="24" viewBox="0 0 24 24" fill="none" xmlns="http://www.w3.org/2000/svg">
<g id="shopping-cart">
<path id="Vector" d="M1 4H1.8765C2.5885 4 3.202 4.5005 3.3455 5.1975L4.7335 11.9385" stroke="url(#paint0_linear_206_8887)" stroke-miterlimit="10" stroke-linecap="round" stroke-linejoin="round"/>
<path id="Vector_2" d="M18.5 22C19.3284 22 20 21.3284 20 20.5C20 19.6716 19.3284 19 18.5 19C17.6716 19 17 19.6716 17 20.5C17 21.3284 17.6716 22 18.5 22Z" fill="#5C5F61"/>
<path id="Vector_3" opacity="0.15" d="M18.5 21C18.7761 21 19 20.7761 19 20.5C19 20.2239 18.7761 20 18.5 20C18.2239 20 18 20.2239 18 20.5C18 20.7761 18.2239 21 18.5 21Z" fill="black"/>
<path id="Vector_4" d="M7.5 22C8.32843 22 9 21.3284 9 20.5C9 19.6716 8.32843 19 7.5 19C6.67157 19 6 19.6716 6 20.5C6 21.3284 6.67157 22 7.5 22Z" fill="#5C5F61"/>
<path id="Vector_5" opacity="0.15" d="M7.5 21C7.77614 21 8 20.7761 8 20.5C8 20.2239 7.77614 20 7.5 20C7.22386 20 7 20.2239 7 20.5C7 20.7761 7.22386 21 7.5 21Z" fill="black"/>
<path id="Vector_6" d="M20.5 19H6.5C5.6715 19 5 18.3285 5 17.5C5 16.6715 5.6715 16 6.5 16H19" stroke="url(#paint1_linear_206_8887)" stroke-miterlimit="10" stroke-linecap="round" stroke-linejoin="round"/>
<path id="Vector_7" d="M2 4C2 4.552 1.552 5 1 5C0.448 5 0 4.552 0 4C0 3.448 0.448 3 1 3C1.552 3 2 3.448 2 4Z" fill="url(#paint2_linear_206_8887)"/>
<path id="Vector_8" d="M4.845 15.687C4.935 16.159 5.3475 16.5 5.8275 16.5H20.153C20.642 16.5 21.059 16.1465 21.1395 15.6645L22.171 9.47503L3.3865 8.03003L4.845 15.687Z" fill="url(#paint3_linear_206_8887)"/>
<path id="Vector_9" d="M21.9555 7.458L3 6L3.3865 8.03L22.1705 9.475L22.41 8.039C22.4585 7.7495 22.248 7.4805 21.9555 7.458Z" fill="url(#paint4_linear_206_8887)"/>
</g>
<defs>
<linearGradient id="paint0_linear_206_8887" x1="2.867" y1="12.4385" x2="2.867" y2="3.5" gradientUnits="userSpaceOnUse">
<stop stop-color="#92A3B0"/>
<stop offset="0.015" stop-color="#A3B5C4"/>
<stop offset="0.032" stop-color="#AEC2D1"/>
<stop offset="0.046" stop-color="#B2C6D6"/>
</linearGradient>
<linearGradient id="paint1_linear_206_8887" x1="12.75" y1="19.5" x2="12.75" y2="15.5" gradientUnits="userSpaceOnUse">
<stop stop-color="#92A3B0"/>
<stop offset="0.015" stop-color="#A3B5C4"/>
<stop offset="0.032" stop-color="#AEC2D1"/>
<stop offset="0.046" stop-color="#B2C6D6"/>
</linearGradient>
<linearGradient id="paint2_linear_206_8887" x1="0.378" y1="3.378" x2="1.692" y2="4.692" gradientUnits="userSpaceOnUse">
<stop stop-color="#199AE0"/>
<stop offset="1" stop-color="#0782D8"/>
</linearGradient>
<linearGradient id="paint3_linear_206_8887" x1="3.3865" y1="12.265" x2="22.171" y2="12.265" gradientUnits="userSpaceOnUse">
<stop stop-color="#3079D6"/>
<stop offset="1" stop-color="#297CD2"/>
</linearGradient>
<linearGradient id="paint4_linear_206_8887" x1="3" y1="7.7375" x2="22.417" y2="7.7375" gradientUnits="userSpaceOnUse">
<stop stop-color="#42A3F2"/>
<stop offset="1" stop-color="#42A4EB"/>
</linearGradient>
</defs>
</svg>
