<svg width="24" height="24" viewBox="0 0 24 24" fill="none" xmlns="http://www.w3.org/2000/svg">
<g id="shopping-mall">
<path id="Vector" d="M20.5 20.5H3.5V4.5C3.5 3.9475 3.9475 3.5 4.5 3.5H19.5C20.0525 3.5 20.5 3.9475 20.5 4.5V20.5Z" fill="url(#paint0_linear_206_8912)"/>
<path id="Vector_2" d="M20 21.5H4C3.724 21.5 3.5 21.276 3.5 21V20H20.5V21C20.5 21.276 20.276 21.5 20 21.5Z" fill="url(#paint1_linear_206_8912)"/>
<path id="Vector_3" d="M15.5 7.5C16.0523 7.5 16.5 7.05228 16.5 6.5C16.5 5.94772 16.0523 5.5 15.5 5.5C14.9477 5.5 14.5 5.94772 14.5 6.5C14.5 7.05228 14.9477 7.5 15.5 7.5Z" fill="#0078D4"/>
<path id="Vector_4" d="M8.5 7.5C9.05228 7.5 9.5 7.05228 9.5 6.5C9.5 5.94772 9.05228 5.5 8.5 5.5C7.94772 5.5 7.5 5.94772 7.5 6.5C7.5 7.05228 7.94772 7.5 8.5 7.5Z" fill="#0078D4"/>
<path id="Vector_5" d="M12 1C9.7945 1 8 2.7945 8 5V6.5C8 6.776 8.224 7 8.5 7C8.776 7 9 6.776 9 6.5V5C9 3.3455 10.3455 2 12 2C13.6545 2 15 3.3455 15 5V6.5C15 6.776 15.224 7 15.5 7C15.776 7 16 6.776 16 6.5V5C16 2.7945 14.2055 1 12 1Z" fill="#B2C6D6"/>
<path id="Vector_6" d="M11.5 12.5H12.5V20H11.5V12.5Z" fill="url(#paint2_linear_206_8912)"/>
<path id="Vector_7" d="M12.5 20H11.5V21.5H12.5V20Z" fill="url(#paint3_linear_206_8912)"/>
<path id="Vector_8" d="M12.5 12.5H17C17.276 12.5 17.5 12.724 17.5 13V20H12.5V12.5Z" fill="url(#paint4_linear_206_8912)"/>
<path id="Vector_9" d="M17.5 20H12.5V21.5H17.5V20Z" fill="#0078D4"/>
<path id="Vector_10" d="M7 12.5H11.5V20H6.5V13C6.5 12.724 6.724 12.5 7 12.5Z" fill="url(#paint5_linear_206_8912)"/>
<path id="Vector_11" d="M11.5 20H6.5V21.5H11.5V20Z" fill="#0078D4"/>
<path id="Vector_12" d="M14 18C14.2761 18 14.5 17.7761 14.5 17.5C14.5 17.2239 14.2761 17 14 17C13.7239 17 13.5 17.2239 13.5 17.5C13.5 17.7761 13.7239 18 14 18Z" fill="#0078D4"/>
<path id="Vector_13" d="M10 18C10.2761 18 10.5 17.7761 10.5 17.5C10.5 17.2239 10.2761 17 10 17C9.72386 17 9.5 17.2239 9.5 17.5C9.5 17.7761 9.72386 18 10 18Z" fill="#0078D4"/>
</g>
<defs>
<linearGradient id="paint0_linear_206_8912" x1="8.85986" y1="3.761" x2="17.2662" y2="19.969" gradientUnits="userSpaceOnUse">
<stop stop-color="#7DD8F3"/>
<stop offset="1" stop-color="#45B0D0"/>
</linearGradient>
<linearGradient id="paint1_linear_206_8912" x1="9.71095" y1="20.0654" x2="9.73748" y2="21.719" gradientUnits="userSpaceOnUse">
<stop stop-color="#32BDEF"/>
<stop offset="1" stop-color="#1EA2E4"/>
</linearGradient>
<linearGradient id="paint2_linear_206_8912" x1="11.5" y1="16.25" x2="12.5" y2="16.25" gradientUnits="userSpaceOnUse">
<stop stop-color="#3079D6"/>
<stop offset="1" stop-color="#297CD2"/>
</linearGradient>
<linearGradient id="paint3_linear_206_8912" x1="11.5" y1="20.75" x2="12.5" y2="20.75" gradientUnits="userSpaceOnUse">
<stop stop-color="#1D59B3"/>
<stop offset="1" stop-color="#195BBC"/>
</linearGradient>
<linearGradient id="paint4_linear_206_8912" x1="13.6077" y1="11.3827" x2="19.0696" y2="16.728" gradientUnits="userSpaceOnUse">
<stop stop-color="#FCFCFC"/>
<stop offset="0.95" stop-color="#C3C9CD"/>
</linearGradient>
<linearGradient id="paint5_linear_206_8912" x1="7.60771" y1="11.3827" x2="13.0696" y2="16.728" gradientUnits="userSpaceOnUse">
<stop stop-color="#FCFCFC"/>
<stop offset="0.95" stop-color="#C3C9CD"/>
</linearGradient>
</defs>
</svg>
