<svg width="24" height="24" viewBox="0 0 24 24" fill="none" xmlns="http://www.w3.org/2000/svg">
<g id="shopping-cart-promotion">
<path id="Vector" d="M4.733 12.4385C4.5005 12.4385 4.2925 12.2755 4.2435 12.0395L2.856 5.2985C2.7605 4.8355 2.349 4.5 1.8765 4.5H1C0.724 4.5 0.5 4.276 0.5 4C0.5 3.724 0.724 3.5 1 3.5H1.8765C2.821 3.5 3.645 4.1715 3.8355 5.0965L5.223 11.8375C5.2785 12.108 5.1045 12.3725 4.834 12.428C4.8005 12.4355 4.7665 12.4385 4.733 12.4385Z" fill="url(#paint0_linear_206_8897)"/>
<path id="Vector_2" d="M18.5 22C19.3284 22 20 21.3284 20 20.5C20 19.6716 19.3284 19 18.5 19C17.6716 19 17 19.6716 17 20.5C17 21.3284 17.6716 22 18.5 22Z" fill="#5C5F61"/>
<path id="Vector_3" opacity="0.15" d="M18.5 21C18.7761 21 19 20.7761 19 20.5C19 20.2239 18.7761 20 18.5 20C18.2239 20 18 20.2239 18 20.5C18 20.7761 18.2239 21 18.5 21Z" fill="black"/>
<path id="Vector_4" d="M7.5 22C8.32843 22 9 21.3284 9 20.5C9 19.6716 8.32843 19 7.5 19C6.67157 19 6 19.6716 6 20.5C6 21.3284 6.67157 22 7.5 22Z" fill="#5C5F61"/>
<path id="Vector_5" d="M20.5 19.5H6.5C5.397 19.5 4.5 18.603 4.5 17.5C4.5 16.397 5.397 15.5 6.5 15.5H19C19.276 15.5 19.5 15.724 19.5 16C19.5 16.276 19.276 16.5 19 16.5H6.5C5.9485 16.5 5.5 16.9485 5.5 17.5C5.5 18.0515 5.9485 18.5 6.5 18.5H20.5C20.776 18.5 21 18.724 21 19C21 19.276 20.776 19.5 20.5 19.5Z" fill="url(#paint1_linear_206_8897)"/>
<path id="Vector_6" d="M2 4C2 4.552 1.552 5 1 5C0.448 5 0 4.552 0 4C0 3.448 0.448 3 1 3C1.552 3 2 3.448 2 4Z" fill="url(#paint2_linear_206_8897)"/>
<path id="Vector_7" d="M4.84501 15.687C4.93501 16.159 5.34751 16.5 5.82751 16.5H20.153C20.642 16.5 21.059 16.1465 21.1395 15.6645L22.171 9.47503L3.38651 8.03003L4.84501 15.687Z" fill="url(#paint3_linear_206_8897)"/>
<path id="Vector_8" d="M21.9555 7.458L3 6L3.3865 8.03L22.1705 9.475L22.41 8.039C22.4585 7.7495 22.248 7.4805 21.9555 7.458Z" fill="url(#paint4_linear_206_8897)"/>
<path id="Vector_9" opacity="0.05" d="M7.641 6.35699C7.4465 6.83499 7.4635 7.38249 7.719 7.83699L8.0005 8.33899L8.0075 8.91499C8.0145 9.50699 8.335 10.063 8.845 10.366L9.34 10.6595L9.6335 11.155C9.936 11.6645 10.492 11.9855 11.084 11.992L11.66 11.999L12.162 12.2805C12.418 12.4245 12.7075 12.5 13 12.5C13.2925 12.5 13.582 12.4245 13.837 12.281L14.339 11.9995L14.915 11.9925C15.507 11.9855 16.063 11.665 16.366 11.155L16.6595 10.66L17.155 10.3665C17.6645 10.064 17.9855 9.508 17.992 8.916L17.999 8.33999L18.2805 7.83799C18.3935 7.63699 18.449 7.41549 18.474 7.19099L7.641 6.35699Z" fill="black"/>
<path id="Vector_10" opacity="0.07" d="M7.90001 6.37701C7.69951 6.80101 7.7055 7.30301 7.937 7.71501L8.24951 8.27301L8.2575 8.91251C8.2635 9.41801 8.5375 9.89251 8.9725 10.1515L9.52251 10.4775L9.849 11.028C10.1075 11.463 10.582 11.737 11.0875 11.743L11.727 11.751L12.285 12.0635C12.503 12.1855 12.75 12.25 13 12.25C13.25 12.25 13.497 12.1855 13.715 12.063L14.273 11.7505L14.9125 11.7425C15.418 11.7365 15.8925 11.4625 16.1515 11.0275L16.4775 10.4775L17.028 10.151C17.463 9.89251 17.737 9.41801 17.743 8.91251L17.751 8.27301L18.0635 7.71501C18.1585 7.54601 18.2055 7.36001 18.2275 7.17151L7.90001 6.37701Z" fill="black"/>
<path id="Vector_11" d="M13.5925 2.155L14.206 2.499L14.9095 2.5075C15.3315 2.5125 15.7205 2.737 15.936 3.1L16.295 3.705L16.9 4.064C17.263 4.2795 17.4875 4.6685 17.4925 5.0905L17.501 5.794L17.845 6.4075C18.0515 6.7755 18.0515 7.2245 17.845 7.5925L17.501 8.206L17.4925 8.9095C17.4875 9.3315 17.263 9.7205 16.9 9.936L16.295 10.295L15.936 10.9C15.7205 11.263 15.3315 11.4875 14.9095 11.4925L14.206 11.501L13.5925 11.845C13.2245 12.0515 12.7755 12.0515 12.4075 11.845L11.794 11.501L11.0905 11.4925C10.6685 11.4875 10.2795 11.263 10.064 10.9L9.705 10.295L9.1 9.936C8.737 9.7205 8.5125 9.3315 8.5075 8.9095L8.499 8.206L8.155 7.5925C7.9485 7.2245 7.9485 6.7755 8.155 6.4075L8.499 5.794L8.5075 5.0905C8.5125 4.6685 8.737 4.2795 9.1 4.064L9.705 3.705L10.064 3.1C10.2795 2.737 10.6685 2.5125 11.0905 2.5075L11.794 2.499L12.4075 2.155C12.7755 1.9485 13.2245 1.9485 13.5925 2.155Z" fill="url(#paint5_linear_206_8897)"/>
<path id="Vector_12" opacity="0.05" d="M14.56 6.466C14.4885 6.466 14.4195 6.4695 14.351 6.4765L15.317 4.994C15.4365 4.8095 15.446 4.5745 15.341 4.381C15.236 4.1875 15.0345 4.0675 14.8145 4.0675H14.317C14.051 4.0675 13.806 4.201 13.6605 4.424L13.128 5.2445C12.957 4.475 12.368 4 11.5315 4C10.492 4 9.793 4.731 9.793 5.8195C9.793 7.098 10.819 7.602 11.645 7.5245L10.682 9.0055C10.5625 9.19 10.553 9.4245 10.658 9.618C10.763 9.8115 10.965 9.9315 11.185 9.9315H11.6755C11.9415 9.9315 12.1865 9.7985 12.3315 9.576L12.872 8.746C13.048 9.503 13.658 10 14.475 10C15.4945 10 16.2065 9.2545 16.2065 8.1875C16.2065 7.1255 15.5755 6.466 14.56 6.466ZM14.5295 7.563L14.5305 8.057C14.53 8.057 14.53 8.057 14.5295 8.057V7.563Z" fill="black"/>
<path id="Vector_13" opacity="0.07" d="M14.56 6.716C14.2555 6.716 13.985 6.79 13.7605 6.9245L15.1065 4.858C15.177 4.7505 15.182 4.6135 15.1205 4.5005C15.0595 4.388 14.942 4.318 14.814 4.318H14.3165C14.1355 4.318 13.9685 4.4085 13.8695 4.5605L12.902 6.049C12.918 5.9465 12.927 5.8395 12.927 5.728C12.927 4.8165 12.392 4.25 11.531 4.25C10.6265 4.25 10.0425 4.866 10.0425 5.8195C10.0425 6.831 10.747 7.284 11.4455 7.284C11.7435 7.284 12.0085 7.213 12.229 7.084L10.8915 9.142C10.8215 9.2495 10.8165 9.3865 10.8775 9.499C10.939 9.612 11.0565 9.682 11.1845 9.682H11.675C11.856 9.682 12.023 9.5915 12.122 9.44L13.1005 7.9375C13.081 8.048 13.071 8.1645 13.071 8.2855C13.071 9.297 13.7755 9.75 14.474 9.75C15.36 9.75 15.9555 9.122 15.9555 8.1875C15.9565 7.266 15.4345 6.716 14.56 6.716ZM11.719 5.7585C11.719 6.187 11.574 6.187 11.487 6.187C11.4045 6.187 11.266 6.187 11.266 5.786C11.266 5.3475 11.4195 5.3475 11.511 5.3475C11.5835 5.347 11.719 5.347 11.719 5.7585ZM14.7475 8.224C14.7475 8.6525 14.6025 8.6525 14.516 8.6525C14.425 8.6525 14.2875 8.6525 14.2875 8.2515C14.2875 7.813 14.439 7.813 14.529 7.813C14.726 7.813 14.7475 8.1005 14.7475 8.224Z" fill="black"/>
<path id="Vector_14" d="M11.4465 7.034C11.0065 7.034 10.2935 6.7915 10.2935 5.8195C10.2935 4.9785 10.794 4.5 11.5315 4.5C12.2465 4.5 12.678 4.954 12.678 5.728C12.678 6.502 12.2225 7.034 11.4465 7.034ZM14.8975 4.722L11.9135 9.3035C11.8615 9.3835 11.772 9.432 11.6765 9.432H11.186C11.107 9.432 11.0595 9.3445 11.1025 9.2785L14.08 4.697C14.132 4.617 14.2215 4.5685 14.317 4.5685H14.814C14.893 4.568 14.9405 4.6555 14.8975 4.722ZM11.511 5.097C11.181 5.097 11.016 5.3265 11.016 5.7855C11.016 6.2195 11.173 6.4365 11.4875 6.4365C11.8085 6.4365 11.969 6.2105 11.969 5.758C11.9685 5.3175 11.816 5.097 11.511 5.097ZM14.475 9.5C13.865 9.5 13.322 9.1055 13.322 8.2855C13.322 7.466 13.8205 6.966 14.56 6.966C15.2995 6.966 15.7065 7.416 15.7065 8.187C15.7065 8.958 15.252 9.5 14.475 9.5ZM14.5295 7.563C14.2015 7.563 14.038 7.7925 14.038 8.2515C14.038 8.6855 14.1975 8.9025 14.516 8.9025C14.837 8.9025 14.9975 8.6765 14.9975 8.224C14.9975 7.886 14.8685 7.563 14.5295 7.563Z" fill="white"/>
</g>
<defs>
<linearGradient id="paint0_linear_206_8897" x1="2.8665" y1="12.4385" x2="2.8665" y2="3.5" gradientUnits="userSpaceOnUse">
<stop stop-color="#92A3B0"/>
<stop offset="0.015" stop-color="#A3B5C4"/>
<stop offset="0.032" stop-color="#AEC2D1"/>
<stop offset="0.046" stop-color="#B2C6D6"/>
</linearGradient>
<linearGradient id="paint1_linear_206_8897" x1="12.75" y1="19.5" x2="12.75" y2="15.5" gradientUnits="userSpaceOnUse">
<stop stop-color="#92A3B0"/>
<stop offset="0.015" stop-color="#A3B5C4"/>
<stop offset="0.032" stop-color="#AEC2D1"/>
<stop offset="0.046" stop-color="#B2C6D6"/>
</linearGradient>
<linearGradient id="paint2_linear_206_8897" x1="0.378" y1="3.378" x2="1.692" y2="4.692" gradientUnits="userSpaceOnUse">
<stop stop-color="#199AE0"/>
<stop offset="1" stop-color="#0782D8"/>
</linearGradient>
<linearGradient id="paint3_linear_206_8897" x1="3.38651" y1="12.265" x2="22.171" y2="12.265" gradientUnits="userSpaceOnUse">
<stop stop-color="#3079D6"/>
<stop offset="1" stop-color="#297CD2"/>
</linearGradient>
<linearGradient id="paint4_linear_206_8897" x1="3" y1="7.7375" x2="22.417" y2="7.7375" gradientUnits="userSpaceOnUse">
<stop stop-color="#42A3F2"/>
<stop offset="1" stop-color="#42A4EB"/>
</linearGradient>
<linearGradient id="paint5_linear_206_8897" x1="11.9355" y1="1.8755" x2="14.072" y2="12.1615" gradientUnits="userSpaceOnUse">
<stop stop-color="#F44F5A"/>
<stop offset="0.443" stop-color="#EE3D4A"/>
<stop offset="1" stop-color="#E52030"/>
</linearGradient>
</defs>
</svg>
