<svg width="24" height="24" viewBox="0 0 24 24" fill="none" xmlns="http://www.w3.org/2000/svg">
<g id="shortcut">
<path id="Vector" d="M20 3H4C3.4475 3 3 3.4475 3 4V20C3 20.5525 3.4475 21 4 21H20C20.5525 21 21 20.5525 21 20V4C21 3.4475 20.5525 3 20 3Z" fill="url(#paint0_linear_206_8926)"/>
<path id="Vector_2" d="M7.588 14.0295C7.588 11.4705 9.194 9.76503 12.6055 6.35303L15.1645 8.91203C11.753 12.3235 8.441 14.8825 11.853 20C11.853 20 7.588 17.441 7.588 14.0295Z" fill="#057093"/>
<path id="Vector_3" d="M16 6.5V12.0345C16 12.391 15.569 12.5695 15.317 12.3175L9.18301 6.183C8.93101 5.931 9.10951 5.5 9.46551 5.5H15C15.5525 5.5 16 5.9475 16 6.5Z" fill="#057093"/>
</g>
<defs>
<linearGradient id="paint0_linear_206_8926" x1="8.67514" y1="3.27635" x2="17.5759" y2="20.4377" gradientUnits="userSpaceOnUse">
<stop stop-color="#7DD8F3"/>
<stop offset="1" stop-color="#45B0D0"/>
</linearGradient>
</defs>
</svg>
