<svg width="24" height="24" viewBox="0 0 24 24" fill="none" xmlns="http://www.w3.org/2000/svg">
<g id="show-property">
<path id="Vector" d="M2 19V6.5H22V19C22 19.55 21.55 20 21 20H3C2.45 20 2 19.55 2 19Z" fill="url(#paint0_linear_206_8930)"/>
<path id="Vector_2" d="M19.25 11H7.75C7.6 11 7.5 10.9 7.5 10.75V10.25C7.5 10.1 7.6 10 7.75 10H19.25C19.4 10 19.5 10.1 19.5 10.25V10.75C19.5 10.9 19.4 11 19.25 11Z" fill="#0F94BF"/>
<path id="Vector_3" d="M19.25 13.5H7.75C7.6 13.5 7.5 13.4 7.5 13.25V12.75C7.5 12.6 7.6 12.5 7.75 12.5H19.25C19.4 12.5 19.5 12.6 19.5 12.75V13.25C19.5 13.4 19.4 13.5 19.25 13.5Z" fill="#0F94BF"/>
<path id="Vector_4" d="M19.25 16H7.75C7.6 16 7.5 15.9 7.5 15.75V15.25C7.5 15.1 7.6 15 7.75 15H19.25C19.4 15 19.5 15.1 19.5 15.25V15.75C19.5 15.9 19.4 16 19.25 16Z" fill="#0F94BF"/>
<path id="Vector_5" d="M22 5V6.5H2V5C2 4.45 2.45 4 3 4H21C21.55 4 22 4.45 22 5Z" fill="url(#paint1_linear_206_8930)"/>
<path id="Vector_6" d="M4.75 11H5.25C5.4 11 5.5 10.9 5.5 10.75V10.25C5.5 10.1 5.4 10 5.25 10H4.75C4.6 10 4.5 10.1 4.5 10.25V10.75C4.5 10.9 4.6 11 4.75 11Z" fill="#0F94BF"/>
<path id="Vector_7" d="M4.75 13.5H5.25C5.4 13.5 5.5 13.4 5.5 13.25V12.75C5.5 12.6 5.4 12.5 5.25 12.5H4.75C4.6 12.5 4.5 12.6 4.5 12.75V13.25C4.5 13.4 4.6 13.5 4.75 13.5Z" fill="#0F94BF"/>
<path id="Vector_8" d="M4.75 16H5.25C5.4 16 5.5 15.9 5.5 15.75V15.25C5.5 15.1 5.4 15 5.25 15H4.75C4.6 15 4.5 15.1 4.5 15.25V15.75C4.5 15.9 4.6 16 4.75 16Z" fill="#0F94BF"/>
<path id="Vector_9" opacity="0.05" d="M18.75 15C15.6 15 13 17.15 13 19.75C13 19.85 13 19.9 13 20H21C21.55 20 22 19.55 22 19V15.85C21.05 15.3 19.95 15 18.75 15Z" fill="black"/>
<path id="Vector_10" opacity="0.07" d="M18.75 15.25C15.7 15.25 13.25 17.25 13.25 19.75C13.25 19.85 13.25 19.9 13.25 20H21C21.55 20 22 19.55 22 19V16.15C21.1 15.6 19.95 15.25 18.75 15.25Z" fill="black"/>
<path id="Vector_11" d="M18.75 24C21.6495 24 24 22.0972 24 19.75C24 17.4028 21.6495 15.5 18.75 15.5C15.8505 15.5 13.5 17.4028 13.5 19.75C13.5 22.0972 15.8505 24 18.75 24Z" fill="url(#paint2_radial_206_8930)"/>
<path id="Vector_12" d="M18.75 22.5C20.683 22.5 22.25 20.933 22.25 19C22.25 17.067 20.683 15.5 18.75 15.5C16.817 15.5 15.25 17.067 15.25 19C15.25 20.933 16.817 22.5 18.75 22.5Z" fill="url(#paint3_linear_206_8930)"/>
<path id="Vector_13" d="M18.75 21C19.8546 21 20.75 20.1046 20.75 19C20.75 17.8954 19.8546 17 18.75 17C17.6454 17 16.75 17.8954 16.75 19C16.75 20.1046 17.6454 21 18.75 21Z" fill="url(#paint4_radial_206_8930)"/>
<path id="Vector_14" d="M19.75 18C20.0261 18 20.25 17.7761 20.25 17.5C20.25 17.2239 20.0261 17 19.75 17C19.4739 17 19.25 17.2239 19.25 17.5C19.25 17.7761 19.4739 18 19.75 18Z" fill="white"/>
</g>
<defs>
<linearGradient id="paint0_linear_206_8930" x1="6.5345" y1="4.9995" x2="15.963" y2="18.6375" gradientUnits="userSpaceOnUse">
<stop stop-color="#7DD8F3"/>
<stop offset="1" stop-color="#45B0D0"/>
</linearGradient>
<linearGradient id="paint1_linear_206_8930" x1="2.404" y1="3.39" x2="21.375" y2="7.2475" gradientUnits="userSpaceOnUse">
<stop stop-color="#0077D2"/>
<stop offset="1" stop-color="#0B59A2"/>
</linearGradient>
<radialGradient id="paint2_radial_206_8930" cx="0" cy="0" r="1" gradientUnits="userSpaceOnUse" gradientTransform="translate(18.7849 18.4178) scale(5.5713 5.63762)">
<stop offset="0.55" stop-color="#E4E4E6"/>
<stop offset="0.73" stop-color="#E1E2E4"/>
<stop offset="0.854" stop-color="#D8DADC"/>
<stop offset="0.961" stop-color="#C9CDCF"/>
<stop offset="1" stop-color="#C1C6C9"/>
</radialGradient>
<linearGradient id="paint3_linear_206_8930" x1="16.522" y1="16.772" x2="21.041" y2="21.291" gradientUnits="userSpaceOnUse">
<stop stop-color="#32BDEF"/>
<stop offset="1" stop-color="#1EA2E4"/>
</linearGradient>
<radialGradient id="paint4_radial_206_8930" cx="0" cy="0" r="1" gradientUnits="userSpaceOnUse" gradientTransform="translate(17.5715 16.074) scale(5.191)">
<stop stop-color="#4B4B4B"/>
<stop offset="0.531" stop-color="#393939"/>
<stop offset="1" stop-color="#252525"/>
</radialGradient>
</defs>
</svg>
