<svg width="24" height="24" viewBox="0 0 24 24" fill="none" xmlns="http://www.w3.org/2000/svg">
<g id="side-pane">
<path id="Vector" d="M2 6.5L11.5 5.5L22 6.5V19C22 19.55 21.55 20 21 20H9L2 6.5Z" fill="url(#paint0_linear_206_8959)"/>
<path id="Vector_2" d="M22 5V6.5H2V5C2 4.45 2.45 4 3 4H21C21.55 4 22 4.45 22 5Z" fill="url(#paint1_linear_206_8959)"/>
<path id="Vector_3" d="M3 20H9V6.5H2V19C2 19.5525 2.4475 20 3 20Z" fill="url(#paint2_linear_206_8959)"/>
</g>
<defs>
<linearGradient id="paint0_linear_206_8959" x1="6.43083" y1="3.33989" x2="14.8179" y2="20.322" gradientUnits="userSpaceOnUse">
<stop stop-color="#FCFCFC"/>
<stop offset="0.95" stop-color="#C3C9CD"/>
</linearGradient>
<linearGradient id="paint1_linear_206_8959" x1="2.4035" y1="3.39" x2="21.375" y2="7.2475" gradientUnits="userSpaceOnUse">
<stop stop-color="#0077D2"/>
<stop offset="1" stop-color="#0B59A2"/>
</linearGradient>
<linearGradient id="paint2_linear_206_8959" x1="5.5" y1="6.47168" x2="5.5" y2="19.9513" gradientUnits="userSpaceOnUse">
<stop stop-color="#2AA4F4"/>
<stop offset="1" stop-color="#007AD9"/>
</linearGradient>
</defs>
</svg>
