<svg width="24" height="24" viewBox="0 0 24 24" fill="none" xmlns="http://www.w3.org/2000/svg">
<g id="signature">
<path id="Vector" d="M21.5 21H2.5C2.2235 21 2 20.7765 2 20.5C2 20.2235 2.2235 20 2.5 20H21.5C21.7765 20 22 20.2235 22 20.5C22 20.7765 21.7765 21 21.5 21Z" fill="#64717C"/>
<path id="Vector_2" d="M2.5005 17.5C2.356 17.5 2.213 17.438 2.1145 17.318C1.9385 17.1045 1.9695 16.7895 2.1825 16.6145C2.203 16.5975 2.996 15.935 3.9635 14.8315C3.78 14.573 3.6045 14.2925 3.438 13.991C2.537 12.362 2 10.309 2 8.5C2 4.855 3.374 2.5 5.5 2.5C7.6855 2.5 8.5 5.2605 8.5 7C8.5 10.153 6.801 12.9635 5.2595 14.864C5.9 15.56 6.6555 16 7.5 16C8.875 16 9.9775 15.5535 10.8235 14.8355C9.972 13.7615 9.5 12.0905 9.5 10.453C9.5 7.748 10.4815 6 12 6C13.234 6 14 7.3415 14 9.5C14 11.425 13.405 13.362 12.241 14.7845C12.476 14.9235 12.73 15 13 15C15.6 15 15.998 10.5045 16.0015 10.459C16.023 10.1995 16.2395 10 16.5 10C17.4895 10 17.784 11.0765 18.0435 12.027C18.2325 12.7175 18.4465 13.5 18.8135 13.5C19.053 13.5 19.2575 12.68 19.3925 12.1375C19.67 11.0245 20.05 9.5 21.5 9.5C21.7765 9.5 22 9.7235 22 10C22 10.2765 21.7765 10.5 21.5 10.5C20.8775 10.5 20.6455 11.244 20.363 12.3795C20.115 13.3735 19.8345 14.5 18.8135 14.5C17.6825 14.5 17.348 13.275 17.079 12.2905C17.0185 12.0705 16.94 11.7815 16.8505 11.5335C16.5375 13.1115 15.608 16 13 16C12.4545 16 11.9645 15.825 11.5345 15.521C10.5035 16.4325 9.155 17 7.5 17C6.464 17 5.475 16.5215 4.613 15.6225C3.6685 16.6775 2.9015 17.317 2.818 17.386C2.7245 17.463 2.6125 17.5 2.5005 17.5ZM12 7C11.131 7 10.5 8.452 10.5 10.453C10.5 11.8085 10.883 13.2225 11.5275 14.107C12.5255 12.854 13 11.144 13 9.5C13 8.028 12.589 7 12 7ZM5.5 3.5C3.773 3.5 3 6.011 3 8.5C3 10.2235 3.598 12.4565 4.624 14.036C6.022 12.2625 7.5 9.7395 7.5 7C7.5 5.9035 6.9965 3.5 5.5 3.5Z" fill="#0D62AB"/>
</g>
</svg>
