<svg width="24" height="24" viewBox="0 0 24 24" fill="none" xmlns="http://www.w3.org/2000/svg">
<g id="signing-a-document">
<path id="Vector" d="M19.5 8V20.5C19.5 21.0525 19.0525 21.5 18.5 21.5H5.5C4.9475 21.5 4.5 21.0525 4.5 20.5V3.5C4.5 2.9475 4.9475 2.5 5.5 2.5H14L19.5 8Z" fill="url(#paint0_linear_206_8966)"/>
<path id="Vector_2" d="M14 2.5V7C14 7.5525 14.4475 8 15 8H19.5L14 2.5Z" fill="url(#paint1_linear_206_8966)"/>
<path id="Vector_3" d="M16.25 10.5H7.75C7.612 10.5 7.5 10.388 7.5 10.25V9.75C7.5 9.612 7.612 9.5 7.75 9.5H16.25C16.388 9.5 16.5 9.612 16.5 9.75V10.25C16.5 10.388 16.388 10.5 16.25 10.5Z" fill="#057093"/>
<path id="Vector_4" d="M15.25 12.5H7.75C7.612 12.5 7.5 12.388 7.5 12.25V11.75C7.5 11.612 7.612 11.5 7.75 11.5H15.25C15.388 11.5 15.5 11.612 15.5 11.75V12.25C15.5 12.388 15.388 12.5 15.25 12.5Z" fill="#057093"/>
<path id="Vector_5" d="M15.75 14.5H7.75C7.612 14.5 7.5 14.388 7.5 14.25V13.75C7.5 13.612 7.612 13.5 7.75 13.5H15.75C15.888 13.5 16 13.612 16 13.75V14.25C16 14.388 15.888 14.5 15.75 14.5Z" fill="#057093"/>
<path id="Vector_6" d="M7.75 16.5C7.612 16.5 7.5 16.388 7.5 16.25V15.75C7.5 15.612 7.612 15.5 7.75 15.5H13.25C13.388 15.5 13.5 15.612 13.5 15.75V16.25C13.5 16.388 13.388 16.5 13.25 16.5" fill="#057093"/>
<path id="Vector_7" d="M13.7525 20.2525L14.6615 19.3435" stroke="#057093" stroke-width="0.5" stroke-miterlimit="10" stroke-linecap="round" stroke-linejoin="round"/>
<path id="Vector_8" d="M21.3465 12.3465L20.609 11.609C20.464 11.464 20.229 11.464 20.0845 11.609L17.609 14.0845C17.464 14.2295 17.464 14.4645 17.609 14.609L18.3465 15.3465L21.3465 12.3465Z" fill="#B31523"/>
<path id="Vector_9" d="M21 12.046L21.952 11.094C22.077 10.969 22.2795 10.969 22.4045 11.094L22.9065 11.5955C23.0315 11.7205 23.0315 11.923 22.9065 12.048L21.9545 13L21 12.046Z" fill="url(#paint2_linear_206_8966)"/>
<path id="Vector_10" d="M14.111 18.3985L13.814 19.5795C13.7215 19.946 14.054 20.2785 14.421 20.1865L15.602 19.889L15.811 18.1605L14.111 18.3985Z" fill="url(#paint3_linear_206_8966)"/>
<path id="Vector_11" d="M22.3535 13.137L15.581 19.91L14.0905 18.4195L20.863 11.6465C21.0585 11.451 21.375 11.451 21.57 11.6465L22.3535 12.43C22.549 12.625 22.549 12.942 22.3535 13.137Z" fill="url(#paint4_linear_206_8966)"/>
<path id="Vector_12" d="M17.392 15.1155L18.0225 14.4845L19.514 15.975L18.8835 16.606L17.392 15.1155Z" fill="url(#paint5_linear_206_8966)"/>
</g>
<defs>
<linearGradient id="paint0_linear_206_8966" x1="9.22929" y1="2.79171" x2="19.7783" y2="18.8491" gradientUnits="userSpaceOnUse">
<stop stop-color="#7DD8F3"/>
<stop offset="1" stop-color="#45B0D0"/>
</linearGradient>
<linearGradient id="paint1_linear_206_8966" x1="14.2645" y1="7.7355" x2="16.8" y2="5.2" gradientUnits="userSpaceOnUse">
<stop stop-color="#3079D6"/>
<stop offset="1" stop-color="#297CD2"/>
</linearGradient>
<linearGradient id="paint2_linear_206_8966" x1="22" y1="11.0685" x2="22" y2="13.055" gradientUnits="userSpaceOnUse">
<stop stop-color="#FFDA1C"/>
<stop offset="1" stop-color="#FEB705"/>
</linearGradient>
<linearGradient id="paint3_linear_206_8966" x1="13.798" y1="19.181" x2="15.811" y2="19.181" gradientUnits="userSpaceOnUse">
<stop stop-color="#FFDA1C"/>
<stop offset="1" stop-color="#FEB705"/>
</linearGradient>
<linearGradient id="paint4_linear_206_8966" x1="14.09" y1="15.705" x2="22.5" y2="15.705" gradientUnits="userSpaceOnUse">
<stop stop-color="#F44F5A"/>
<stop offset="0.443" stop-color="#EE3D4A"/>
<stop offset="1" stop-color="#E52030"/>
</linearGradient>
<linearGradient id="paint5_linear_206_8966" x1="18.453" y1="14.557" x2="18.453" y2="16.6645" gradientUnits="userSpaceOnUse">
<stop stop-color="#FFDA1C"/>
<stop offset="1" stop-color="#FEB705"/>
</linearGradient>
</defs>
</svg>
