<svg width="24" height="24" viewBox="0 0 24 24" fill="none" xmlns="http://www.w3.org/2000/svg">
<g id="slider">
<path id="Vector" d="M3 11H21C21.276 11 21.5 11.224 21.5 11.5V12.5C21.5 12.776 21.276 13 21 13H3C2.724 13 2.5 12.776 2.5 12.5V11.5C2.5 11.224 2.724 11 3 11Z" fill="#0078D4"/>
<path id="Vector_2" d="M3 4H21C21.276 4 21.5 4.224 21.5 4.5V5.5C21.5 5.776 21.276 6 21 6H3C2.724 6 2.5 5.776 2.5 5.5V4.5C2.5 4.224 2.724 4 3 4Z" fill="#0078D4"/>
<path id="Vector_3" d="M3 18H21C21.276 18 21.5 18.224 21.5 18.5V19.5C21.5 19.776 21.276 20 21 20H3C2.724 20 2.5 19.776 2.5 19.5V18.5C2.5 18.224 2.724 18 3 18Z" fill="#0078D4"/>
<path id="Vector_4" d="M14 5C14 6.1045 13.1045 7 12 7C10.8955 7 10 6.1045 10 5C10 3.8955 10.8955 3 12 3C13.1045 3 14 3.8955 14 5ZM18.5 12C18.5 13.1045 17.6045 14 16.5 14C15.3955 14 14.5 13.1045 14.5 12C14.5 10.8955 15.3955 10 16.5 10C17.6045 10 18.5 10.8955 18.5 12ZM10.5 19C10.5 20.1045 9.6045 21 8.5 21C7.3955 21 6.5 20.1045 6.5 19C6.5 17.8955 7.3955 17 8.5 17C9.6045 17 10.5 17.8955 10.5 19Z" fill="url(#paint0_linear_206_8996)"/>
</g>
<defs>
<linearGradient id="paint0_linear_206_8996" x1="10.8842" y1="3.78464" x2="15.9234" y2="22.2586" gradientUnits="userSpaceOnUse">
<stop stop-color="#32BDEF"/>
<stop offset="1" stop-color="#1EA2E4"/>
</linearGradient>
</defs>
</svg>
