<svg width="24" height="24" viewBox="0 0 24 24" fill="none" xmlns="http://www.w3.org/2000/svg">
<g id="smart-card-reader">
<path id="Vector" d="M19.5 8V21.5C19.5 22.0525 19.0525 22.5 18.5 22.5H5.5C4.9475 22.5 4.5 22.0525 4.5 21.5V8C4.5 7.4475 4.9475 7 5.5 7H18.5C19.0525 7 19.5 7.4475 19.5 8Z" fill="url(#paint0_linear_206_9024)"/>
<path id="Vector_2" d="M18 7H6V10.5H18V7Z" fill="#666666"/>
<path id="Vector_3" d="M17.5385 11H6.4615C6.2065 11 6 10.776 6 10.5C6 10.224 6.2065 10 6.4615 10H17.5385C17.7935 10 18 10.224 18 10.5C18 10.776 17.7935 11 17.5385 11Z" fill="#666666"/>
<path id="Vector_4" d="M17 11H7V2C7 1.4475 7.4475 1 8 1H16C16.5525 1 17 1.4475 17 2V11Z" fill="url(#paint1_linear_206_9024)"/>
<path id="Vector_5" opacity="0.05" d="M10.665 21C10.0225 21 9.5 20.4775 9.5 19.835V17.165C9.5 16.5225 10.0225 16 10.665 16H13.335C13.9775 16 14.5 16.5225 14.5 17.165V19.835C14.5 20.4775 13.9775 21 13.335 21H10.665Z" fill="black"/>
<path id="Vector_6" opacity="0.07" d="M10.665 20.75C10.1605 20.75 9.75 20.3395 9.75 19.835V17.165C9.75 16.6605 10.1605 16.25 10.665 16.25H13.335C13.8395 16.25 14.25 16.6605 14.25 17.165V19.835C14.25 20.3395 13.8395 20.75 13.335 20.75H10.665Z" fill="black"/>
<path id="Vector_7" d="M11 16.5V18.25H10V17.165C10 16.8 10.3 16.5 10.665 16.5H11ZM10 19.835C10 20.2 10.3 20.5 10.665 20.5H11V18.75H10V19.835ZM11.5 16.5V18.25H12.5V16.5H11.5ZM11.5 20.5H12.5V18.75H11.5V20.5ZM13.335 16.5H13V18.25H14V17.165C14 16.8 13.7 16.5 13.335 16.5ZM13 20.5H13.335C13.7 20.5 14 20.2 14 19.835V18.75H13V20.5Z" fill="url(#paint2_linear_206_9024)"/>
<path id="Vector_8" d="M9.5 7.5C10.3284 7.5 11 6.82843 11 6C11 5.17157 10.3284 4.5 9.5 4.5C8.67157 4.5 8 5.17157 8 6C8 6.82843 8.67157 7.5 9.5 7.5Z" fill="url(#paint3_radial_206_9024)"/>
<path id="Vector_9" d="M9.5 7.125C10.1213 7.125 10.625 6.62132 10.625 6C10.625 5.37868 10.1213 4.875 9.5 4.875C8.87868 4.875 8.375 5.37868 8.375 6C8.375 6.62132 8.87868 7.125 9.5 7.125Z" fill="url(#paint4_linear_206_9024)"/>
<path id="Vector_10" opacity="0.05" d="M13.2145 8.26447C11.993 8.26447 11 7.24847 11 5.99997C11 4.75147 11.993 3.73547 13.2145 3.73547H14.614C15.135 3.73547 15.559 4.15747 15.559 4.67647V7.32397C15.559 7.84297 15.135 8.26497 14.614 8.26497H13.2145V8.26447Z" fill="black"/>
<path id="Vector_11" opacity="0.07" d="M13.2145 8.01447C12.1315 8.01447 11.25 7.11047 11.25 5.99997C11.25 4.88947 12.1315 3.98547 13.2145 3.98547H14.614C14.9975 3.98547 15.309 4.29547 15.309 4.67647V7.32397C15.309 7.70497 14.9975 8.01497 14.614 8.01497H13.2145V8.01447Z" fill="black"/>
<path id="Vector_12" d="M11.5 5.99997C11.5 6.97447 12.2675 7.76447 13.214 7.76447H14.614C14.8595 7.76447 15.059 7.56697 15.059 7.32347V4.67647C15.059 4.43297 14.86 4.23547 14.614 4.23547H13.214C12.2675 4.23547 11.5 5.02547 11.5 5.99997Z" fill="url(#paint5_linear_206_9024)"/>
</g>
<defs>
<linearGradient id="paint0_linear_206_9024" x1="7.869" y1="6.981" x2="16.0535" y2="22.373" gradientUnits="userSpaceOnUse">
<stop stop-color="#A1AAB3"/>
<stop offset="1" stop-color="#8F979E"/>
</linearGradient>
<linearGradient id="paint1_linear_206_9024" x1="12" y1="1.335" x2="12" y2="11.1385" gradientUnits="userSpaceOnUse">
<stop stop-color="#0077D2"/>
<stop offset="0.693" stop-color="#0077D2"/>
<stop offset="0.781" stop-color="#0272CA"/>
<stop offset="0.92" stop-color="#0763B2"/>
<stop offset="1" stop-color="#0B59A2"/>
</linearGradient>
<linearGradient id="paint2_linear_206_9024" x1="10.924" y1="16.4765" x2="13.009" y2="20.398" gradientUnits="userSpaceOnUse">
<stop stop-color="#FFDA1C"/>
<stop offset="1" stop-color="#FEB705"/>
</linearGradient>
<radialGradient id="paint3_radial_206_9024" cx="0" cy="0" r="1" gradientUnits="userSpaceOnUse" gradientTransform="translate(9.5 6) scale(1.5)">
<stop/>
<stop offset="0.009" stop-opacity="0.991"/>
<stop offset="0.98" stop-opacity="0"/>
</radialGradient>
<linearGradient id="paint4_linear_206_9024" x1="7.896" y1="6" x2="15.926" y2="6" gradientUnits="userSpaceOnUse">
<stop stop-color="#75DAFF"/>
<stop offset="1" stop-color="#1EA2E4"/>
</linearGradient>
<linearGradient id="paint5_linear_206_9024" x1="7.9125" y1="5.99997" x2="15.8505" y2="5.99997" gradientUnits="userSpaceOnUse">
<stop stop-color="#75DAFF"/>
<stop offset="1" stop-color="#1EA2E4"/>
</linearGradient>
</defs>
</svg>
