<svg width="24" height="24" viewBox="0 0 24 24" fill="none" xmlns="http://www.w3.org/2000/svg">
<g id="sms">
<path id="Vector" d="M21 4H3C2.4475 4 2 4.4475 2 5V18C2 18.5525 2.4475 19 3 19H7V22.999C7 23.4445 7.5385 23.6675 7.8535 23.3525L12.206 19H21C21.5525 19 22 18.5525 22 18V5C22 4.4475 21.5525 4 21 4Z" fill="url(#paint0_linear_206_9044)"/>
<path id="Vector_2" opacity="0.3" d="M12 13.5C12.8284 13.5 13.5 12.8284 13.5 12C13.5 11.1716 12.8284 10.5 12 10.5C11.1716 10.5 10.5 11.1716 10.5 12C10.5 12.8284 11.1716 13.5 12 13.5Z" fill="url(#paint1_radial_206_9044)"/>
<path id="Vector_3" d="M12 13C12.5523 13 13 12.5523 13 12C13 11.4477 12.5523 11 12 11C11.4477 11 11 11.4477 11 12C11 12.5523 11.4477 13 12 13Z" fill="white"/>
<path id="Vector_4" opacity="0.3" d="M8 13.5C8.82843 13.5 9.5 12.8284 9.5 12C9.5 11.1716 8.82843 10.5 8 10.5C7.17157 10.5 6.5 11.1716 6.5 12C6.5 12.8284 7.17157 13.5 8 13.5Z" fill="url(#paint2_radial_206_9044)"/>
<path id="Vector_5" d="M8 13C8.55228 13 9 12.5523 9 12C9 11.4477 8.55228 11 8 11C7.44772 11 7 11.4477 7 12C7 12.5523 7.44772 13 8 13Z" fill="white"/>
<path id="Vector_6" opacity="0.3" d="M16 13.5C16.8284 13.5 17.5 12.8284 17.5 12C17.5 11.1716 16.8284 10.5 16 10.5C15.1716 10.5 14.5 11.1716 14.5 12C14.5 12.8284 15.1716 13.5 16 13.5Z" fill="url(#paint3_radial_206_9044)"/>
<path id="Vector_7" d="M16 13C16.5523 13 17 12.5523 17 12C17 11.4477 16.5523 11 16 11C15.4477 11 15 11.4477 15 12C15 12.5523 15.4477 13 16 13Z" fill="white"/>
</g>
<defs>
<linearGradient id="paint0_linear_206_9044" x1="6.343" y1="2.296" x2="17.79" y2="20.9205" gradientUnits="userSpaceOnUse">
<stop stop-color="#33BEF0"/>
<stop offset="1" stop-color="#0A85D9"/>
</linearGradient>
<radialGradient id="paint1_radial_206_9044" cx="0" cy="0" r="1" gradientUnits="userSpaceOnUse" gradientTransform="translate(12 12) scale(1.5)">
<stop/>
<stop offset="1" stop-opacity="0"/>
</radialGradient>
<radialGradient id="paint2_radial_206_9044" cx="0" cy="0" r="1" gradientUnits="userSpaceOnUse" gradientTransform="translate(8 12) scale(1.5)">
<stop/>
<stop offset="1" stop-opacity="0"/>
</radialGradient>
<radialGradient id="paint3_radial_206_9044" cx="0" cy="0" r="1" gradientUnits="userSpaceOnUse" gradientTransform="translate(16 12) scale(1.5)">
<stop/>
<stop offset="1" stop-opacity="0"/>
</radialGradient>
</defs>
</svg>
