<svg width="24" height="24" viewBox="0 0 24 24" fill="none" xmlns="http://www.w3.org/2000/svg">
<g id="so-so">
<path id="Vector" d="M7.5935 21.5C7.4785 21.5 7.363 21.4605 7.269 21.38C5.2405 19.645 2.547 18.2525 2.5195 18.239C2.274 18.1125 2.177 17.8115 2.3035 17.5655C2.4295 17.3205 2.731 17.223 2.9765 17.349C3.091 17.4075 5.7995 18.8075 7.9185 20.62C8.1285 20.799 8.153 21.115 7.9735 21.325C7.8745 21.4405 7.7345 21.5 7.5935 21.5ZM16.177 7.5005C16.06 7.5005 15.942 7.4595 15.847 7.376C15.8265 7.3585 13.8105 5.58 11.7965 3.31C11.613 3.103 11.632 2.787 11.8385 2.604C12.045 2.4205 12.361 2.4395 12.5445 2.646C14.5155 4.868 16.4875 6.6075 16.507 6.625C16.7145 6.807 16.735 7.123 16.5525 7.3305C16.4535 7.443 16.3155 7.5005 16.177 7.5005ZM17.41 5.0155C17.3005 5.0155 17.19 4.9795 17.098 4.9055C17.059 4.8745 16.132 4.1255 15.28 2.9125C15.1215 2.687 15.176 2.375 15.402 2.216C15.628 2.057 15.94 2.112 16.0985 2.338C16.8645 3.429 17.715 4.1185 17.7235 4.125C17.9385 4.2985 17.973 4.613 17.8 4.828C17.7015 4.9515 17.5565 5.0155 17.41 5.0155Z" fill="url(#paint0_linear_206_9065)"/>
<path id="Vector_2" d="M21.011 6.57201C20.709 5.97401 19.9135 5.94801 19.2695 6.36751C18.0345 7.17201 18.3405 8.44151 18.3405 8.44151C17.2075 9.20051 17.997 11.689 15.561 9.79851C14.8635 9.25701 8.2 3.71401 8.2 3.71401C7.8035 3.38851 7.2185 3.44101 6.8865 3.83301C6.563 4.21601 6.597 4.78601 6.9645 5.12701L10.8565 8.68651C11.118 8.92551 11.139 9.33001 10.9035 9.59501C10.6655 9.86301 10.2545 9.88701 9.9875 9.64801L5.1775 5.35151C4.796 5.00751 4.208 5.03501 3.86 5.41201L3.8505 5.42251C3.495 5.80651 3.5235 6.40751 3.9135 6.75751L8.6035 10.927C8.8135 11.114 8.8455 11.4305 8.6765 11.6555C8.49 11.904 8.133 11.9445 7.8955 11.744L3.5705 8.09451C3.1875 7.76901 2.615 7.80401 2.274 8.17401L2.2495 8.20051C1.8925 8.58701 1.923 9.19101 2.317 9.53901L6.528 13.2355C6.6985 13.385 6.719 13.6435 6.5735 13.818C6.4235 13.9985 6.154 14.02 5.977 13.866L3.679 11.8675C3.2965 11.529 2.714 11.5585 2.3675 11.934L2.339 11.965C1.9905 12.346 2.0115 12.937 2.3895 13.2885C3.9355 14.726 7.708 17.9225 9.316 19.1695C11.613 20.9745 14.528 20.9455 16.2405 19.662C17.2605 18.556 17.978 17.595 19.3795 15.677C20.1395 14.6375 20.226 11.7385 20.4105 9.67151C20.5595 8.01351 21.011 6.57201 21.011 6.57201Z" fill="url(#paint1_linear_206_9065)"/>
</g>
<defs>
<linearGradient id="paint0_linear_206_9065" x1="5.71781" y1="-0.761281" x2="19.6267" y2="15.7442" gradientUnits="userSpaceOnUse">
<stop stop-color="#FCFCFC"/>
<stop offset="0.95" stop-color="#C3C9CD"/>
</linearGradient>
<linearGradient id="paint1_linear_206_9065" x1="9.04" y1="3.42951" x2="15.753" y2="20.135" gradientUnits="userSpaceOnUse">
<stop stop-color="#FFC430"/>
<stop offset="0.41" stop-color="#FEC130"/>
<stop offset="0.72" stop-color="#FCB730"/>
<stop offset="0.998" stop-color="#F7A72F"/>
<stop offset="1" stop-color="#F7A72F"/>
</linearGradient>
</defs>
</svg>
