<svg width="24" height="24" viewBox="0 0 24 24" fill="none" xmlns="http://www.w3.org/2000/svg">
<g id="software-license">
<path id="Vector" d="M12 22C17.5228 22 22 17.5228 22 12C22 6.47715 17.5228 2 12 2C6.47715 2 2 6.47715 2 12C2 17.5228 6.47715 22 12 22Z" fill="url(#paint0_linear_206_9052)"/>
<path id="Vector_2" d="M12 16C14.1539 16 15.9 14.2539 15.9 12.1C15.9 9.9461 14.1539 8.20001 12 8.20001C9.84609 8.20001 8.1 9.9461 8.1 12.1C8.1 14.2539 9.84609 16 12 16Z" fill="url(#paint1_linear_206_9052)"/>
<path id="Vector_3" d="M12 13.65C12.856 13.65 13.55 12.956 13.55 12.1C13.55 11.2439 12.856 10.55 12 10.55C11.144 10.55 10.45 11.2439 10.45 12.1C10.45 12.956 11.144 13.65 12 13.65Z" fill="white"/>
<path id="Vector_4" d="M21.15 23.95L19.5 23.15L17.85 23.95C17.7 24.05 17.5 23.9 17.5 23.75V20.15H21.5V23.75C21.5 23.95 21.3 24.05 21.15 23.95Z" fill="url(#paint2_linear_206_9052)"/>
<path id="Vector_5" opacity="0.07" d="M21.65 14.65C21.4 14.5 21.15 14.35 20.85 14.35H20.5L20.2 14.15C19.95 14.05 19.75 14 19.5 14C19.25 14 19.05 14.05 18.85 14.15L18.5 14.35H18.15C17.7 14.35 17.25 14.6 17 15L16.8 15.3L16.5 15.5C16.1 15.75 15.85 16.15 15.85 16.65V17L15.65 17.35C15.4 17.75 15.4 18.25 15.65 18.65L15.85 18.95V19.3C15.85 19.75 16.1 20.2 16.5 20.45L16.8 20.65L16.85 20.7C19.2 19.45 20.9 17.25 21.65 14.65Z" fill="black"/>
<path id="Vector_6" opacity="0.07" d="M21.55 14.9C21.35 14.7 21.1 14.6 20.85 14.6H20.4L20 14.4C19.85 14.3 19.65 14.25 19.45 14.25C19.25 14.25 19.1 14.3 18.9 14.4L18.5 14.6H18.05C17.65 14.6 17.3 14.8 17.15 15.15L17 15.5L16.65 15.7C16.35 15.9 16.1 16.25 16.1 16.6V17.05L15.9 17.45C15.7 17.8 15.7 18.2 15.9 18.5L16.1 18.9V19.35C16.1 19.75 16.3 20.1 16.65 20.25L17 20.5L17.05 20.6C19.2 19.35 20.85 17.3 21.55 14.9Z" fill="black"/>
<path id="Vector_7" d="M19.9 14.6L20.35 14.85H20.85C21.15 14.85 21.4 15 21.55 15.25L21.8 15.7L22.25 15.95C22.5 16.1 22.65 16.35 22.65 16.65V17.15L22.9 17.6C23.05 17.85 23.05 18.15 22.9 18.4L22.65 18.85V19.35C22.65 19.65 22.5 19.9 22.25 20.05L21.8 20.3L21.55 20.75C21.4 21 21.15 21.15 20.85 21.15H20.35L19.9 21.4C19.65 21.55 19.35 21.55 19.1 21.4L18.65 21.15H18.15C17.85 21.15 17.6 21 17.45 20.75L17.2 20.3L16.75 20.05C16.5 19.9 16.35 19.65 16.35 19.35V18.85L16.1 18.4C15.95 18.15 15.95 17.85 16.1 17.6L16.35 17.15V16.65C16.35 16.35 16.5 16.1 16.75 15.95L17.2 15.7L17.45 15.25C17.6 15 17.85 14.85 18.15 14.85H18.65L19.1 14.6C19.35 14.45 19.65 14.45 19.9 14.6Z" fill="url(#paint3_linear_206_9052)"/>
<path id="Vector_8" d="M19.5 20.7C20.9912 20.7 22.2 19.4912 22.2 18C22.2 16.5088 20.9912 15.3 19.5 15.3C18.0088 15.3 16.8 16.5088 16.8 18C16.8 19.4912 18.0088 20.7 19.5 20.7Z" fill="url(#paint4_linear_206_9052)"/>
</g>
<defs>
<linearGradient id="paint0_linear_206_9052" x1="8.227" y1="1.3315" x2="15.376" y2="21.5445" gradientUnits="userSpaceOnUse">
<stop stop-color="#7DD8F3"/>
<stop offset="1" stop-color="#45B0D0"/>
</linearGradient>
<linearGradient id="paint1_linear_206_9052" x1="8.1165" y1="12.097" x2="15.8835" y2="12.097" gradientUnits="userSpaceOnUse">
<stop stop-color="#3079D6"/>
<stop offset="1" stop-color="#297CD2"/>
</linearGradient>
<linearGradient id="paint2_linear_206_9052" x1="17.5" y1="22.077" x2="21.5" y2="22.077" gradientUnits="userSpaceOnUse">
<stop stop-color="#1D59B3"/>
<stop offset="1" stop-color="#195BBC"/>
</linearGradient>
<linearGradient id="paint3_linear_206_9052" x1="15.9875" y1="18" x2="23.0125" y2="18" gradientUnits="userSpaceOnUse">
<stop stop-color="#FFD869"/>
<stop offset="0.765625" stop-color="#F2C032"/>
<stop offset="1" stop-color="#FFD869"/>
</linearGradient>
<linearGradient id="paint4_linear_206_9052" x1="17.9963" y1="14.4955" x2="21.6568" y2="19.869" gradientUnits="userSpaceOnUse">
<stop stop-color="#FCFCFC"/>
<stop offset="0.95" stop-color="#C3C9CD"/>
</linearGradient>
</defs>
</svg>
