<svg width="24" height="24" viewBox="0 0 24 24" fill="none" xmlns="http://www.w3.org/2000/svg">
<g id="speedometer">
<path id="Vector" d="M10.761 3.06797C5.6825 3.62297 1.6005 7.72547 1.063 12.8065C0.805003 15.2495 1.3505 17.55 2.4645 19.482C2.647 19.798 2.977 20 3.342 20H20.6575C21.0055 20 21.336 19.824 21.5115 19.5235C22.457 17.9 23 16.014 23 14C23 7.51697 17.3905 2.34347 10.761 3.06797Z" fill="url(#paint0_radial_206_9068)"/>
<path id="Vector_2" d="M10.919 4.55849C6.513 5.03249 2.9215 8.53699 2.338 12.9295C2.013 15.377 2.6085 17.667 3.8125 19.527C4.001 19.818 4.3175 20 4.664 20H7.132C7.511 20 7.857 19.786 8.0265 19.447L8.2235 19.0525C8.393 18.714 8.7395 18.5 9.118 18.5H14.882C15.261 18.5 15.607 18.714 15.7765 19.053L15.9735 19.4475C16.143 19.786 16.4895 20 16.868 20H19.3355C19.681 20 19.998 19.819 20.186 19.529C21.1715 18.0075 21.75 16.198 21.75 14.25C21.75 8.50899 16.788 3.92699 10.919 4.55849Z" fill="url(#paint1_linear_206_9068)"/>
<path id="Vector_3" d="M11.6355 13.3685L17.967 10.335C18.0625 10.2895 18.1765 10.3295 18.222 10.425C18.2635 10.5115 18.234 10.613 18.1575 10.6655L12.3645 14.632C12.031 14.8605 11.576 14.775 11.3475 14.4415C11.119 14.108 11.2045 13.653 11.538 13.4245C11.5685 13.4035 11.6035 13.384 11.6355 13.3685Z" fill="#CF2E2E"/>
<path id="Vector_4" d="M12 15C12.5523 15 13 14.5523 13 14C13 13.4477 12.5523 13 12 13C11.4477 13 11 13.4477 11 14C11 14.5523 11.4477 15 12 15Z" fill="#ED5555"/>
<path id="Vector_5" d="M12 7.5C12.2761 7.5 12.5 7.27614 12.5 7C12.5 6.72386 12.2761 6.5 12 6.5C11.7239 6.5 11.5 6.72386 11.5 7C11.5 7.27614 11.7239 7.5 12 7.5Z" fill="#666666"/>
<path id="Vector_6" d="M19 14.5C19.2761 14.5 19.5 14.2761 19.5 14C19.5 13.7239 19.2761 13.5 19 13.5C18.7239 13.5 18.5 13.7239 18.5 14C18.5 14.2761 18.7239 14.5 19 14.5Z" fill="#666666"/>
<path id="Vector_7" d="M5 14.5C5.27614 14.5 5.5 14.2761 5.5 14C5.5 13.7239 5.27614 13.5 5 13.5C4.72386 13.5 4.5 13.7239 4.5 14C4.5 14.2761 4.72386 14.5 5 14.5Z" fill="#666666"/>
<path id="Vector_8" d="M8.5 8.43799C8.77614 8.43799 9 8.21413 9 7.93799C9 7.66185 8.77614 7.43799 8.5 7.43799C8.22386 7.43799 8 7.66185 8 7.93799C8 8.21413 8.22386 8.43799 8.5 8.43799Z" fill="#666666"/>
<path id="Vector_9" d="M5.938 18C6.21415 18 6.438 17.7761 6.438 17.5C6.438 17.2239 6.21415 17 5.938 17C5.66186 17 5.438 17.2239 5.438 17.5C5.438 17.7761 5.66186 18 5.938 18Z" fill="#666666"/>
<path id="Vector_10" d="M5.938 11C6.21415 11 6.438 10.7761 6.438 10.5C6.438 10.2239 6.21415 10 5.938 10C5.66186 10 5.438 10.2239 5.438 10.5C5.438 10.7761 5.66186 11 5.938 11Z" fill="#666666"/>
<path id="Vector_11" d="M18.062 18C18.3381 18 18.562 17.7761 18.562 17.5C18.562 17.2239 18.3381 17 18.062 17C17.7859 17 17.562 17.2239 17.562 17.5C17.562 17.7761 17.7859 18 18.062 18Z" fill="#666666"/>
<path id="Vector_12" d="M15.5 8.43799C15.7761 8.43799 16 8.21413 16 7.93799C16 7.66185 15.7761 7.43799 15.5 7.43799C15.2239 7.43799 15 7.66185 15 7.93799C15 8.21413 15.2239 8.43799 15.5 8.43799Z" fill="#666666"/>
</g>
<defs>
<radialGradient id="paint0_radial_206_9068" cx="0" cy="0" r="1" gradientUnits="userSpaceOnUse" gradientTransform="translate(17.1925 19.285) scale(17.4525)">
<stop stop-color="#9E6FD9"/>
<stop offset="0.173" stop-color="#AA73C7"/>
<stop offset="0.522" stop-color="#CA7F97"/>
<stop offset="1" stop-color="#FC914D"/>
</radialGradient>
<linearGradient id="paint1_linear_206_9068" x1="9.583" y1="4.79949" x2="14.2315" y2="22.962" gradientUnits="userSpaceOnUse">
<stop stop-color="#4B4B4B"/>
<stop offset="0.531" stop-color="#393939"/>
<stop offset="1" stop-color="#252525"/>
</linearGradient>
</defs>
</svg>
