<svg width="24" height="24" viewBox="0 0 24 24" fill="none" xmlns="http://www.w3.org/2000/svg">
<g id="start-menu">
<path id="Vector" d="M16.8775 3H4C3.4475 3 3 3.4475 3 4V18.5H18V4.1225C18 3.5025 17.4975 3 16.8775 3Z" fill="url(#paint0_linear_206_9098)"/>
<path id="Vector_2" d="M12 3H17C17.5525 3 18 3.4475 18 4V18H12V3Z" fill="url(#paint1_linear_206_9098)"/>
<path id="Vector_3" d="M3 18H20C20.5525 18 21 18.4475 21 19V20C21 20.5525 20.5525 21 20 21H4C3.4475 21 3 20.5525 3 20V18Z" fill="url(#paint2_linear_206_9098)"/>
<path id="Vector_4" opacity="0.05" d="M4.75 6C4.3365 6 4 5.6635 4 5.25V4.75C4 4.3365 4.3365 4 4.75 4H10.25C10.6635 4 11 4.3365 11 4.75V5.25C11 5.6635 10.6635 6 10.25 6H4.75Z" fill="black"/>
<path id="Vector_5" opacity="0.07" d="M4.75 5.75C4.4745 5.75 4.25 5.5255 4.25 5.25V4.75C4.25 4.4745 4.4745 4.25 4.75 4.25H10.25C10.5255 4.25 10.75 4.4745 10.75 4.75V5.25C10.75 5.5255 10.5255 5.75 10.25 5.75H4.75Z" fill="black"/>
<path id="Vector_6" d="M4.75 4.5H10.25C10.388 4.5 10.5 4.612 10.5 4.75V5.25C10.5 5.388 10.388 5.5 10.25 5.5H4.75C4.612 5.5 4.5 5.388 4.5 5.25V4.75C4.5 4.612 4.612 4.5 4.75 4.5Z" fill="white"/>
<path id="Vector_7" opacity="0.05" d="M4.75 8.5C4.3365 8.5 4 8.1635 4 7.75V7.25C4 6.8365 4.3365 6.5 4.75 6.5H10.25C10.6635 6.5 11 6.8365 11 7.25V7.75C11 8.1635 10.6635 8.5 10.25 8.5H4.75Z" fill="black"/>
<path id="Vector_8" opacity="0.07" d="M4.75 8.25C4.4745 8.25 4.25 8.0255 4.25 7.75V7.25C4.25 6.9745 4.4745 6.75 4.75 6.75H10.25C10.5255 6.75 10.75 6.9745 10.75 7.25V7.75C10.75 8.0255 10.5255 8.25 10.25 8.25H4.75Z" fill="black"/>
<path id="Vector_9" d="M4.75 7H10.25C10.388 7 10.5 7.112 10.5 7.25V7.75C10.5 7.888 10.388 8 10.25 8H4.75C4.612 8 4.5 7.888 4.5 7.75V7.25C4.5 7.112 4.612 7 4.75 7Z" fill="white"/>
<path id="Vector_10" opacity="0.05" d="M13.25 17C12.8365 17 12.5 16.6635 12.5 16.25V15.75C12.5 15.3365 12.8365 15 13.25 15H16.75C17.1635 15 17.5 15.3365 17.5 15.75V16.25C17.5 16.6635 17.1635 17 16.75 17H13.25Z" fill="black"/>
<path id="Vector_11" opacity="0.07" d="M13.25 16.75C12.9745 16.75 12.75 16.5255 12.75 16.25V15.75C12.75 15.4745 12.9745 15.25 13.25 15.25H16.75C17.0255 15.25 17.25 15.4745 17.25 15.75V16.25C17.25 16.5255 17.0255 16.75 16.75 16.75H13.25Z" fill="black"/>
<path id="Vector_12" d="M13.25 15.5H16.75C16.888 15.5 17 15.612 17 15.75V16.25C17 16.388 16.888 16.5 16.75 16.5H13.25C13.112 16.5 13 16.388 13 16.25V15.75C13 15.612 13.112 15.5 13.25 15.5Z" fill="white"/>
<path id="Vector_13" opacity="0.05" d="M4.75 20.5C4.3365 20.5 4 20.1635 4 19.75V19.25C4 18.8365 4.3365 18.5 4.75 18.5H5.25C5.6635 18.5 6 18.8365 6 19.25V19.75C6 20.1635 5.6635 20.5 5.25 20.5H4.75Z" fill="black"/>
<path id="Vector_14" opacity="0.07" d="M4.75 20.25C4.4745 20.25 4.25 20.0255 4.25 19.75V19.25C4.25 18.9745 4.4745 18.75 4.75 18.75H5.25C5.5255 18.75 5.75 18.9745 5.75 19.25V19.75C5.75 20.0255 5.5255 20.25 5.25 20.25H4.75Z" fill="black"/>
<path id="Vector_15" d="M5.25 20H4.75C4.612 20 4.5 19.888 4.5 19.75V19.25C4.5 19.112 4.612 19 4.75 19H5.25C5.388 19 5.5 19.112 5.5 19.25V19.75C5.5 19.888 5.388 20 5.25 20Z" fill="white"/>
</g>
<defs>
<linearGradient id="paint0_linear_206_9098" x1="3" y1="10.75" x2="18" y2="10.75" gradientUnits="userSpaceOnUse">
<stop stop-color="#42A3F2"/>
<stop offset="1" stop-color="#42A4EB"/>
</linearGradient>
<linearGradient id="paint1_linear_206_9098" x1="12" y1="10.5" x2="18" y2="10.5" gradientUnits="userSpaceOnUse">
<stop stop-color="#1951A8"/>
<stop offset="0.175" stop-color="#1955B0"/>
<stop offset="0.505" stop-color="#195AB9"/>
<stop offset="1" stop-color="#195BBC"/>
</linearGradient>
<linearGradient id="paint2_linear_206_9098" x1="9.2487" y1="18.1312" x2="9.33248" y2="21.3984" gradientUnits="userSpaceOnUse">
<stop stop-color="#0D61A9"/>
<stop offset="1" stop-color="#16528C"/>
</linearGradient>
</defs>
</svg>
