<svg width="24" height="24" viewBox="0 0 24 24" fill="none" xmlns="http://www.w3.org/2000/svg">
<g id="star-half-empty">
<path id="Vector" d="M12.4565 2.59301L15.1955 8.73701L21.8845 9.44351C22.315 9.48901 22.488 10.0225 22.1665 10.312L17.17 14.8145L18.5655 21.395C18.6555 21.8185 18.2015 22.148 17.8265 21.932L12 18.5705L6.1735 21.9315C5.7985 22.1475 5.345 21.818 5.4345 21.3945L6.83 14.814L1.8335 10.3115C1.512 10.022 1.6855 9.48851 2.1155 9.44301L8.8045 8.73651L11.5435 2.59251C11.7195 2.19751 12.2805 2.19751 12.4565 2.59301Z" fill="url(#paint0_linear_206_9095)"/>
<path id="Vector_2" d="M21.8845 9.44351L15.1955 8.73701L12.4565 2.59301C12.3685 2.39501 12.184 2.29651 12 2.29651V18.5705L17.8265 21.932C18.2015 22.148 18.6555 21.8185 18.5655 21.395L17.17 14.8145L22.1665 10.312C22.488 10.0225 22.315 9.48901 21.8845 9.44351Z" fill="url(#paint1_radial_206_9095)"/>
</g>
<defs>
<linearGradient id="paint0_linear_206_9095" x1="4.5045" y1="3.18001" x2="19.046" y2="22.633" gradientUnits="userSpaceOnUse">
<stop stop-color="#FFDA1C"/>
<stop offset="1" stop-color="#FEB705"/>
</linearGradient>
<radialGradient id="paint1_radial_206_9095" cx="0" cy="0" r="1" gradientUnits="userSpaceOnUse" gradientTransform="translate(10.1875 10.3185) scale(11.5525)">
<stop stop-color="#FAFAFB"/>
<stop offset="0.293" stop-color="#F6F7F8"/>
<stop offset="0.566" stop-color="#EBECEE"/>
<stop offset="0.832" stop-color="#D8DCDF"/>
<stop offset="1" stop-color="#C8CDD1"/>
</radialGradient>
</defs>
</svg>
