<svg width="24" height="24" viewBox="0 0 24 24" fill="none" xmlns="http://www.w3.org/2000/svg">
<g id="statistics">
<path id="Vector" d="M12 5.5C11.724 5.5 11.5 5.276 11.5 5V3.5C11.5 3.224 11.724 3 12 3C12.276 3 12.5 3.224 12.5 3.5V5C12.5 5.276 12.276 5.5 12 5.5Z" fill="#16538C"/>
<path id="Vector_2" d="M15.25 22C14.941 22 14.652 21.8075 14.543 21.5L12 14.3115L9.457 21.5C9.319 21.8905 8.889 22.0945 8.5 21.957C8.1095 21.819 7.905 21.3905 8.043 21L11.293 11.8125C11.399 11.5125 11.682 11.3125 12 11.3125C12.318 11.3125 12.601 11.5125 12.707 11.8125L15.957 21C16.095 21.3905 15.8905 21.819 15.5 21.957C15.4175 21.9865 15.333 22 15.25 22Z" fill="#16538C"/>
<path id="Vector_3" d="M21 4.0625H3C2.724 4.0625 2.5 4.2865 2.5 4.5625V18C2.5 18.276 2.724 18.5 3 18.5H21C21.276 18.5 21.5 18.276 21.5 18V4.5625C21.5 4.2865 21.276 4.0625 21 4.0625Z" fill="url(#paint0_linear_206_9121)"/>
<path id="Vector_4" d="M6.5 14.5C6.372 14.5 6.244 14.451 6.1465 14.3535C5.951 14.158 5.951 13.842 6.1465 13.6465L9.8965 9.8965C10.092 9.701 10.408 9.701 10.6035 9.8965L13.25 12.543L16.3965 9.3965C16.592 9.201 16.908 9.201 17.1035 9.3965C17.299 9.592 17.299 9.908 17.1035 10.1035L13.6035 13.6035C13.408 13.799 13.092 13.799 12.8965 13.6035L10.25 10.957L6.8535 14.3535C6.756 14.451 6.628 14.5 6.5 14.5Z" fill="white"/>
<path id="Vector_5" d="M15.5 8.5L18 11V8.5H15.5Z" fill="white"/>
</g>
<defs>
<linearGradient id="paint0_linear_206_9121" x1="9.09585" y1="4.69386" x2="10.9104" y2="20.2157" gradientUnits="userSpaceOnUse">
<stop stop-color="#0D61A9"/>
<stop offset="1" stop-color="#16528C"/>
</linearGradient>
</defs>
</svg>
