<svg width="24" height="24" viewBox="0 0 24 24" fill="none" xmlns="http://www.w3.org/2000/svg">
<g id="stethoscope">
<path id="Vector" d="M11.5 3.5H12V2H11.5C11.224 2 11 2.224 11 2.5V3C11 3.276 11.224 3.5 11.5 3.5Z" fill="#0669BC"/>
<path id="Vector_2" d="M5 2H4.5V3.5H5C5.276 3.5 5.5 3.276 5.5 3V2.5C5.5 2.224 5.276 2 5 2Z" fill="#0669BC"/>
<path id="Vector_3" d="M18.5 12V15.75C18.5 18.3735 16.3735 20.5 13.75 20.5C11.1265 20.5 9 18.3735 9 15.75V12C11.4855 12 13.5 9.9855 13.5 7.5V3C13.5 2.4475 13.0525 2 12.5 2H12V7.5C12 9.157 10.657 10.5 9 10.5H7.5C5.843 10.5 4.5 9.157 4.5 7.5V2H4C3.4475 2 3 2.4475 3 3V7.5C3 9.9855 5.0145 12 7.5 12V15.75C7.5 19.202 10.298 22 13.75 22C17.202 22 20 19.202 20 15.75V12H18.5Z" fill="url(#paint0_linear_206_9127)"/>
<path id="Vector_4" d="M19.25 14.5C20.7688 14.5 22 13.2688 22 11.75C22 10.2312 20.7688 9 19.25 9C17.7312 9 16.5 10.2312 16.5 11.75C16.5 13.2688 17.7312 14.5 19.25 14.5Z" fill="#0B5CA8"/>
<path id="Vector_5" d="M19.25 13C19.9404 13 20.5 12.4404 20.5 11.75C20.5 11.0596 19.9404 10.5 19.25 10.5C18.5596 10.5 18 11.0596 18 11.75C18 12.4404 18.5596 13 19.25 13Z" fill="#45D7F9"/>
</g>
<defs>
<linearGradient id="paint0_linear_206_9127" x1="10.0615" y1="1.4035" x2="13.7045" y2="23.025" gradientUnits="userSpaceOnUse">
<stop stop-color="#26ABE7"/>
<stop offset="1" stop-color="#086DBF"/>
</linearGradient>
</defs>
</svg>
