<svg width="24" height="24" viewBox="0 0 24 24" fill="none" xmlns="http://www.w3.org/2000/svg">
<g id="stocks-growth">
<path id="Vector" d="M22 14V21H18V13.5H21.5C21.776 13.5 22 13.724 22 14Z" fill="#61E3A7"/>
<path id="Vector_2" d="M18 13.5V21H14V13.5H18Z" fill="#33C481"/>
<path id="Vector_3" d="M14 9.5V21H10V9.5C10 9.224 10.224 9 10.5 9H13.5C13.776 9 14 9.224 14 9.5Z" fill="#21A366"/>
<path id="Vector_4" d="M10 12V21H6V12.5C6 12.224 6.224 12 6.5 12H10Z" fill="url(#paint0_linear_206_9133)"/>
<path id="Vector_5" d="M6 15V21H2V15.5C2 15.224 2.224 15 2.5 15H6Z" fill="#185C37"/>
<path id="Vector_6" d="M2.3035 8.98149L8.3135 4.61499L9.418 6.13499L3.408 10.5015C3.1845 10.664 2.8715 10.6145 2.7095 10.391L2.193 9.67999C2.03 9.45699 2.0795 9.14399 2.3035 8.98149Z" fill="#33C481"/>
<path id="Vector_7" d="M9.8995 8.02999L10.431 4.67549C10.474 4.40299 10.288 4.14649 10.0155 4.10349L6.661 3.57199C6.441 3.53699 6.2885 3.78599 6.4195 3.96599L9.4505 8.13799C9.581 8.31749 9.8645 8.24949 9.8995 8.02999Z" fill="#33C481"/>
<path id="Vector_8" d="M18.3325 10.281C18.7795 10.209 19.003 9.9745 19.003 9.5775C19.003 9.256 18.7795 8.9935 18.3325 8.79C18.1395 8.7065 17.9095 8.61 17.648 8.5095C16.9165 8.224 16.417 7.915 16.15 7.582C15.9245 7.3015 15.7945 6.969 15.759 6.5845C15.7085 6.0335 15.8815 5.464 16.2505 5.0685C16.5995 4.6935 17.0655 4.476 17.6485 4.4155V3.7455C17.6475 3.61 17.7525 3.5 17.8815 3.5H18.098C18.227 3.5 18.332 3.61 18.332 3.7455V4.3955C18.9085 4.424 19.3575 4.513 19.6785 4.662C19.761 4.7005 19.809 4.79 19.809 4.885V5.653C19.809 5.8295 19.6355 5.951 19.483 5.876C19.131 5.704 18.7475 5.594 18.332 5.547C18.1195 5.5225 17.864 5.515 17.6315 5.5595C17.236 5.637 16.996 5.8995 16.9955 6.28C16.995 6.618 17.2095 6.8915 17.6475 7.1265C17.8885 7.2575 18.123 7.348 18.332 7.412C19.018 7.647 19.507 7.9675 19.804 8.3005C20.101 8.6335 20.2495 9.036 20.2495 9.5085C20.2495 10.053 20.084 10.492 19.7525 10.8245C19.421 11.1575 18.9475 11.36 18.332 11.432V12.254C18.332 12.3895 18.227 12.4995 18.098 12.4995H17.8815C17.7525 12.4995 17.6475 12.3895 17.6475 12.254V11.4615C17.0645 11.4585 16.519 11.331 16.01 11.079C15.9275 11.038 15.8755 10.9475 15.8755 10.8515V10.097C15.8755 9.914 16.0585 9.786 16.214 9.8685C16.349 9.94 16.5065 10.0085 16.6865 10.074C17.046 10.205 17.3665 10.2805 17.6475 10.3005C17.8875 10.3155 18.1165 10.31 18.3325 10.281Z" fill="url(#paint1_linear_206_9133)"/>
</g>
<defs>
<linearGradient id="paint0_linear_206_9133" x1="6.5858" y1="13.3181" x2="11.3095" y2="15.4175" gradientUnits="userSpaceOnUse">
<stop stop-color="#21AD64"/>
<stop offset="1" stop-color="#088242"/>
</linearGradient>
<linearGradient id="paint1_linear_206_9133" x1="16.4093" y1="4.81798" x2="21.4997" y2="7.36281" gradientUnits="userSpaceOnUse">
<stop stop-color="#21AD64"/>
<stop offset="1" stop-color="#088242"/>
</linearGradient>
</defs>
</svg>
