<svg width="24" height="24" viewBox="0 0 24 24" fill="none" xmlns="http://www.w3.org/2000/svg">
<g id="summary-list">
<path id="Vector" d="M19.5 3.5V20.5C19.5 21.0525 19.0525 21.5 18.5 21.5H5.5C4.9475 21.5 4.5 21.0525 4.5 20.5V3.5C4.5 2.9475 4.9475 2.5 5.5 2.5H18.5C19.0525 2.5 19.5 2.9475 19.5 3.5Z" fill="url(#paint0_linear_206_9171)"/>
<path id="Vector_2" d="M12 12.5H7C6.724 12.5 6.5 12.724 6.5 13C6.5 13.276 6.724 13.5 7 13.5H12C12.276 13.5 12.5 13.276 12.5 13C12.5 12.724 12.276 12.5 12 12.5Z" fill="url(#paint1_linear_206_9171)"/>
<path id="Vector_3" d="M12 10.5H7C6.724 10.5 6.5 10.724 6.5 11C6.5 11.276 6.724 11.5 7 11.5H12C12.276 11.5 12.5 11.276 12.5 11C12.5 10.724 12.276 10.5 12 10.5Z" fill="url(#paint2_linear_206_9171)"/>
<path id="Vector_4" d="M17 11.5C17.2761 11.5 17.5 11.2761 17.5 11C17.5 10.7239 17.2761 10.5 17 10.5C16.7239 10.5 16.5 10.7239 16.5 11C16.5 11.2761 16.7239 11.5 17 11.5Z" fill="url(#paint3_linear_206_9171)"/>
<path id="Vector_5" d="M12 8.5H7C6.724 8.5 6.5 8.724 6.5 9C6.5 9.276 6.724 9.5 7 9.5H12C12.276 9.5 12.5 9.276 12.5 9C12.5 8.724 12.276 8.5 12 8.5Z" fill="url(#paint4_linear_206_9171)"/>
<path id="Vector_6" d="M17 9.5C17.2761 9.5 17.5 9.27614 17.5 9C17.5 8.72386 17.2761 8.5 17 8.5C16.7239 8.5 16.5 8.72386 16.5 9C16.5 9.27614 16.7239 9.5 17 9.5Z" fill="url(#paint5_linear_206_9171)"/>
<path id="Vector_7" d="M12 6.5H7C6.724 6.5 6.5 6.724 6.5 7C6.5 7.276 6.724 7.5 7 7.5H12C12.276 7.5 12.5 7.276 12.5 7C12.5 6.724 12.276 6.5 12 6.5Z" fill="url(#paint6_linear_206_9171)"/>
<path id="Vector_8" d="M17 7.5C17.2761 7.5 17.5 7.27614 17.5 7C17.5 6.72386 17.2761 6.5 17 6.5C16.7239 6.5 16.5 6.72386 16.5 7C16.5 7.27614 16.7239 7.5 17 7.5Z" fill="url(#paint7_linear_206_9171)"/>
<path id="Vector_9" d="M17 13.5C17.2761 13.5 17.5 13.2761 17.5 13C17.5 12.7239 17.2761 12.5 17 12.5C16.7239 12.5 16.5 12.7239 16.5 13C16.5 13.2761 16.7239 13.5 17 13.5Z" fill="url(#paint8_linear_206_9171)"/>
<path id="Vector_10" d="M12 14.5H7C6.724 14.5 6.5 14.724 6.5 15C6.5 15.276 6.724 15.5 7 15.5H12C12.276 15.5 12.5 15.276 12.5 15C12.5 14.724 12.276 14.5 12 14.5Z" fill="url(#paint9_linear_206_9171)"/>
<path id="Vector_11" d="M17 15.5C17.2761 15.5 17.5 15.2761 17.5 15C17.5 14.7239 17.2761 14.5 17 14.5C16.7239 14.5 16.5 14.7239 16.5 15C16.5 15.2761 16.7239 15.5 17 15.5Z" fill="url(#paint10_linear_206_9171)"/>
<path id="Vector_12" d="M12 16.5H7C6.724 16.5 6.5 16.724 6.5 17C6.5 17.276 6.724 17.5 7 17.5H12C12.276 17.5 12.5 17.276 12.5 17C12.5 16.724 12.276 16.5 12 16.5Z" fill="url(#paint11_linear_206_9171)"/>
<path id="Vector_13" d="M17 17.5C17.2761 17.5 17.5 17.2761 17.5 17C17.5 16.7239 17.2761 16.5 17 16.5C16.7239 16.5 16.5 16.7239 16.5 17C16.5 17.2761 16.7239 17.5 17 17.5Z" fill="url(#paint12_linear_206_9171)"/>
<path id="Vector_14" d="M14.5 18C14.224 18 14 17.776 14 17.5V6.5C14 6.224 14.224 6 14.5 6C14.776 6 15 6.224 15 6.5V17.5C15 17.776 14.776 18 14.5 18Z" fill="url(#paint13_linear_206_9171)"/>
</g>
<defs>
<linearGradient id="paint0_linear_206_9171" x1="9.22929" y1="2.79171" x2="19.7783" y2="18.8491" gradientUnits="userSpaceOnUse">
<stop stop-color="#7DD8F3"/>
<stop offset="1" stop-color="#45B0D0"/>
</linearGradient>
<linearGradient id="paint1_linear_206_9171" x1="8.5829" y1="12.5437" x2="8.61083" y2="13.6328" gradientUnits="userSpaceOnUse">
<stop stop-color="#0D61A9"/>
<stop offset="1" stop-color="#16528C"/>
</linearGradient>
<linearGradient id="paint2_linear_206_9171" x1="8.5829" y1="10.5437" x2="8.61083" y2="11.6328" gradientUnits="userSpaceOnUse">
<stop stop-color="#0D61A9"/>
<stop offset="1" stop-color="#16528C"/>
</linearGradient>
<linearGradient id="paint3_linear_206_9171" x1="16.8471" y1="10.5437" x2="17.0109" y2="11.6083" gradientUnits="userSpaceOnUse">
<stop stop-color="#0D61A9"/>
<stop offset="1" stop-color="#16528C"/>
</linearGradient>
<linearGradient id="paint4_linear_206_9171" x1="8.5829" y1="8.54373" x2="8.61083" y2="9.63281" gradientUnits="userSpaceOnUse">
<stop stop-color="#0D61A9"/>
<stop offset="1" stop-color="#16528C"/>
</linearGradient>
<linearGradient id="paint5_linear_206_9171" x1="16.8471" y1="8.54373" x2="17.0109" y2="9.60833" gradientUnits="userSpaceOnUse">
<stop stop-color="#0D61A9"/>
<stop offset="1" stop-color="#16528C"/>
</linearGradient>
<linearGradient id="paint6_linear_206_9171" x1="8.5829" y1="6.54373" x2="8.61083" y2="7.63281" gradientUnits="userSpaceOnUse">
<stop stop-color="#0D61A9"/>
<stop offset="1" stop-color="#16528C"/>
</linearGradient>
<linearGradient id="paint7_linear_206_9171" x1="16.8471" y1="6.54373" x2="17.0109" y2="7.60833" gradientUnits="userSpaceOnUse">
<stop stop-color="#0D61A9"/>
<stop offset="1" stop-color="#16528C"/>
</linearGradient>
<linearGradient id="paint8_linear_206_9171" x1="16.8471" y1="12.5437" x2="17.0109" y2="13.6083" gradientUnits="userSpaceOnUse">
<stop stop-color="#0D61A9"/>
<stop offset="1" stop-color="#16528C"/>
</linearGradient>
<linearGradient id="paint9_linear_206_9171" x1="8.5829" y1="14.5437" x2="8.61083" y2="15.6328" gradientUnits="userSpaceOnUse">
<stop stop-color="#0D61A9"/>
<stop offset="1" stop-color="#16528C"/>
</linearGradient>
<linearGradient id="paint10_linear_206_9171" x1="16.8471" y1="14.5437" x2="17.0109" y2="15.6083" gradientUnits="userSpaceOnUse">
<stop stop-color="#0D61A9"/>
<stop offset="1" stop-color="#16528C"/>
</linearGradient>
<linearGradient id="paint11_linear_206_9171" x1="8.5829" y1="16.5437" x2="8.61083" y2="17.6328" gradientUnits="userSpaceOnUse">
<stop stop-color="#0D61A9"/>
<stop offset="1" stop-color="#16528C"/>
</linearGradient>
<linearGradient id="paint12_linear_206_9171" x1="16.8471" y1="16.5437" x2="17.0109" y2="17.6083" gradientUnits="userSpaceOnUse">
<stop stop-color="#0D61A9"/>
<stop offset="1" stop-color="#16528C"/>
</linearGradient>
<linearGradient id="paint13_linear_206_9171" x1="14.3471" y1="6.52477" x2="19.8239" y2="9.49137" gradientUnits="userSpaceOnUse">
<stop stop-color="#0D61A9"/>
<stop offset="1" stop-color="#16528C"/>
</linearGradient>
</defs>
</svg>
