<svg width="24" height="24" viewBox="0 0 24 24" fill="none" xmlns="http://www.w3.org/2000/svg">
<g id="summer-sales">
<path id="Vector" d="M6.5 1.5L6.823 1.835C7.034 2.054 7.366 2.1065 7.6345 1.964L8.045 1.745L8.249 2.1635C8.3825 2.4375 8.681 2.5895 8.981 2.5365L9.4395 2.4555L9.5035 2.9165C9.5455 3.218 9.7825 3.4555 10.085 3.4975L10.546 3.5615L10.4645 4.02C10.411 4.32 10.5635 4.619 10.8375 4.752L11.256 4.956L11.037 5.3665C10.8935 5.6355 10.946 5.9665 11.1655 6.178L11.5 6.5L11.165 6.823C10.946 7.034 10.8935 7.366 11.0365 7.6345L11.2555 8.045L10.837 8.249C10.563 8.3825 10.411 8.681 10.464 8.981L10.5455 9.4395L10.0845 9.5035C9.783 9.5455 9.546 9.7825 9.503 10.085L9.439 10.546L8.9805 10.4645C8.6805 10.411 8.3815 10.5635 8.2485 10.8375L8.0445 11.256L7.634 11.037C7.365 10.8935 7.034 10.946 6.8225 11.1655L6.5 11.5L6.177 11.165C5.966 10.946 5.634 10.8935 5.3655 11.0365L4.955 11.255L4.751 10.8365C4.6175 10.5625 4.319 10.41 4.019 10.4635L3.561 10.545L3.497 10.084C3.455 9.7825 3.218 9.5455 2.9155 9.5025L2.4545 9.4385L2.5355 8.98C2.589 8.68 2.4365 8.381 2.1625 8.248L1.744 8.044L1.9625 7.6335C2.106 7.3645 2.0535 7.0335 1.834 6.822L1.5 6.5L1.835 6.177C2.054 5.966 2.1065 5.634 1.964 5.3655L1.745 4.955L2.1635 4.751C2.4375 4.6175 2.5895 4.319 2.5365 4.019L2.455 3.561L2.916 3.497C3.2175 3.455 3.455 3.218 3.497 2.916L3.561 2.455L4.0195 2.536C4.3195 2.5895 4.6185 2.437 4.7515 2.163L4.9555 1.7445L5.366 1.963C5.635 2.1065 5.966 2.054 6.1775 1.8345L6.5 1.5Z" fill="url(#paint0_radial_206_9186)"/>
<path id="Vector_2" d="M6.5 3.5C4.843 3.5 3.5 4.843 3.5 6.5C3.5 8.157 4.843 9.5 6.5 9.5C8.157 9.5 9.5 8.157 9.5 6.5C9.5 4.843 8.157 3.5 6.5 3.5Z" fill="url(#paint1_linear_206_9186)"/>
<path id="Vector_3" opacity="0.05" d="M4.75101 10.8365L4.95501 11.255L5.36551 11.0365C5.54451 10.941 5.74951 10.94 5.93051 11.01L11.01 5.93052C10.9405 5.75002 10.9415 5.54552 11.037 5.36652L11.256 4.95602L10.8375 4.75202C10.719 4.69452 10.6295 4.60252 10.563 4.49652L4.49651 10.563C4.60201 10.629 4.69351 10.7185 4.75101 10.8365Z" fill="black"/>
<path id="Vector_4" opacity="0.07" d="M4.751 10.8365L4.955 11.255L5.3655 11.0365C5.3985 11.019 5.4345 11.013 5.469 11.0015L11.0025 5.46799C11.014 5.43399 11.0195 5.39899 11.037 5.36649L11.256 4.95599L10.8375 4.75199C10.824 4.74549 10.815 4.73449 10.8025 4.72699L4.72701 10.8025C4.73401 10.815 4.745 10.8235 4.751 10.8365Z" fill="black"/>
<path id="Vector_5" d="M12.414 3.586L3.6 12.4C2.813 13.187 2.813 14.463 3.6 15.25L9.75 21.4C10.537 22.187 11.813 22.187 12.6 21.4L21.414 12.586C21.789 12.211 22 11.702 22 11.172V5C22 3.9 21.1 3 20 3H13.8285C13.298 3 12.7895 3.2105 12.414 3.586ZM19 7C18.45 7 18 6.55 18 6C18 5.45 18.45 5 19 5C19.55 5 20 5.45 20 6C20 6.55 19.55 7 19 7Z" fill="url(#paint2_linear_206_9186)"/>
<path id="Vector_6" d="M16.5505 12.5355L8.3745 14.2615L7.532 13.419L15.701 11.6855L16.5505 12.5355ZM10.4255 11.4305C10.0735 11.0785 9.901 10.683 9.9095 10.2445C9.918 9.80602 10.1105 9.39802 10.4875 9.02102C10.8995 8.60902 11.341 8.39652 11.8115 8.38402C12.282 8.37152 12.7085 8.55602 13.091 8.93802C13.457 9.30402 13.6335 9.69902 13.6215 10.1235C13.609 10.5485 13.4045 10.9585 13.008 11.355C12.601 11.762 12.1635 11.9715 11.6965 11.983C11.2285 11.9945 10.805 11.8105 10.4255 11.4305ZM10.9985 17.024C10.6465 16.672 10.4735 16.277 10.4825 15.8385C10.4905 15.4 10.6835 14.992 11.0605 14.614C11.4725 14.2025 11.914 13.99 12.3845 13.9775C12.855 13.965 13.2815 14.1495 13.664 14.5315C14.032 14.9 14.211 15.2945 14.199 15.7155C14.1875 16.137 13.984 16.5455 13.5875 16.941C13.1805 17.3485 12.742 17.559 12.272 17.573C11.802 17.587 11.3785 17.4035 10.9985 17.024ZM12.4625 9.52502C12.1265 9.18902 11.7245 9.25452 11.2575 9.72202C10.8155 10.164 10.7545 10.545 11.0745 10.865C11.4015 11.1915 11.795 11.125 12.255 10.665C12.704 10.2155 12.7735 9.83552 12.4625 9.52502ZM13.0255 15.108C12.6915 14.774 12.291 14.8415 11.824 15.308C11.382 15.75 11.3235 16.133 11.6475 16.4575C11.9745 16.7845 12.368 16.718 12.828 16.2575C13.0425 16.0435 13.164 15.8335 13.194 15.629C13.224 15.4245 13.168 15.2505 13.0255 15.108Z" fill="white"/>
</g>
<defs>
<radialGradient id="paint0_radial_206_9186" cx="0" cy="0" r="1" gradientUnits="userSpaceOnUse" gradientTransform="translate(6.5 6.5) scale(5.301)">
<stop stop-color="#FED100"/>
<stop offset="0.306" stop-color="#FDCF00"/>
<stop offset="0.482" stop-color="#FBC600"/>
<stop offset="0.625" stop-color="#F8B800"/>
<stop offset="0.75" stop-color="#F3A500"/>
<stop offset="0.863" stop-color="#ED8B01"/>
<stop offset="0.967" stop-color="#E66C01"/>
<stop offset="1" stop-color="#E36001"/>
</radialGradient>
<linearGradient id="paint1_linear_206_9186" x1="2.035" y1="1.9235" x2="8.6425" y2="8.6965" gradientUnits="userSpaceOnUse">
<stop stop-color="#FED100"/>
<stop offset="1" stop-color="#E36001"/>
</linearGradient>
<linearGradient id="paint2_linear_206_9186" x1="9.061" y1="2.471" x2="18.6185" y2="21.746" gradientUnits="userSpaceOnUse">
<stop stop-color="#32BDEF"/>
<stop offset="1" stop-color="#1EA2E4"/>
</linearGradient>
</defs>
</svg>
