<svg width="24" height="24" viewBox="0 0 24 24" fill="none" xmlns="http://www.w3.org/2000/svg">
<g id="sun">
<path id="Vector" d="M12 1L12.7105 1.737C13.1755 2.2195 13.9045 2.335 14.496 2.02L15.3995 1.5385L15.8475 2.459C16.1405 3.0615 16.7985 3.397 17.4585 3.2795L18.4665 3.101L18.608 4.115C18.7005 4.779 19.2225 5.3005 19.8865 5.3935L20.9005 5.535L20.722 6.543C20.605 7.203 20.94 7.8605 21.5425 8.154L22.463 8.602L21.9815 9.5055C21.666 10.097 21.7815 10.826 22.2645 11.291L23 12L22.263 12.7105C21.7805 13.1755 21.665 13.9045 21.98 14.496L22.4615 15.3995L21.541 15.8475C20.9385 16.1405 20.603 16.7985 20.7205 17.4585L20.899 18.4665L19.885 18.608C19.221 18.7005 18.6995 19.2225 18.6065 19.8865L18.465 20.9005L17.457 20.722C16.797 20.605 16.1395 20.94 15.846 21.5425L15.398 22.463L14.4945 21.9815C13.903 21.666 13.174 21.7815 12.709 22.2645L12 23L11.2895 22.263C10.8245 21.7805 10.0955 21.665 9.504 21.98L8.6005 22.4615L8.1525 21.541C7.8595 20.9385 7.2015 20.603 6.5415 20.7205L5.5335 20.899L5.392 19.885C5.2995 19.221 4.7775 18.6995 4.1135 18.6065L3.0995 18.465L3.278 17.457C3.395 16.797 3.06 16.1395 2.4575 15.846L1.537 15.398L2.0185 14.4945C2.334 13.903 2.2185 13.174 1.7355 12.709L1 12L1.737 11.2895C2.2195 10.8245 2.335 10.0955 2.02 9.504L1.5385 8.6005L2.459 8.1525C3.0615 7.8595 3.397 7.2015 3.2795 6.5415L3.101 5.5335L4.115 5.392C4.779 5.2995 5.3005 4.7775 5.3935 4.1135L5.535 3.0995L6.543 3.278C7.203 3.395 7.8605 3.06 8.154 2.4575L8.602 1.537L9.5055 2.0185C10.097 2.334 10.826 2.2185 11.291 1.7355L12 1Z" fill="url(#paint0_radial_206_9193)"/>
<path id="Vector_2" d="M12 3.5C7.3055 3.5 3.5 7.3055 3.5 12C3.5 16.6945 7.3055 20.5 12 20.5C16.6945 20.5 20.5 16.6945 20.5 12C20.5 7.3055 16.6945 3.5 12 3.5Z" fill="url(#paint1_linear_206_9193)"/>
</g>
<defs>
<radialGradient id="paint0_radial_206_9193" cx="0" cy="0" r="1" gradientUnits="userSpaceOnUse" gradientTransform="translate(12 12) scale(11)">
<stop offset="0.724" stop-color="#FFED54"/>
<stop offset="0.779" stop-color="#FFE649"/>
<stop offset="0.877" stop-color="#FFD22D"/>
<stop offset="1" stop-color="#FFB300"/>
</radialGradient>
<linearGradient id="paint1_linear_206_9193" x1="4.046" y1="4.046" x2="17.998" y2="17.998" gradientUnits="userSpaceOnUse">
<stop stop-color="#FED100"/>
<stop offset="1" stop-color="#E36001"/>
</linearGradient>
</defs>
</svg>
