<svg width="24" height="24" viewBox="0 0 24 24" fill="none" xmlns="http://www.w3.org/2000/svg">
<g id="sweepstakes">
<path id="Vector" d="M20.5 4H3.5C2.9475 4 2.5 4.4475 2.5 5V19C2.5 19.5525 2.9475 20 3.5 20H20.5C21.0525 20 21.5 19.5525 21.5 19V5C21.5 4.4475 21.0525 4 20.5 4Z" fill="url(#paint0_linear_206_9222)"/>
<path id="Vector_2" d="M6.75 11.5H5.25C5.112 11.5 5 11.388 5 11.25V9.75C5 9.612 5.112 9.5 5.25 9.5H6.75C6.888 9.5 7 9.612 7 9.75V11.25C7 11.388 6.888 11.5 6.75 11.5Z" fill="#057093"/>
<path id="Vector_3" d="M9.75 11.5H8.25C8.112 11.5 8 11.388 8 11.25V9.75C8 9.612 8.112 9.5 8.25 9.5H9.75C9.888 9.5 10 9.612 10 9.75V11.25C10 11.388 9.888 11.5 9.75 11.5Z" fill="#057093"/>
<path id="Vector_4" d="M12.75 11.5H11.25C11.112 11.5 11 11.388 11 11.25V9.75C11 9.612 11.112 9.5 11.25 9.5H12.75C12.888 9.5 13 9.612 13 9.75V11.25C13 11.388 12.888 11.5 12.75 11.5Z" fill="#057093"/>
<path id="Vector_5" d="M15.75 11.5H14.25C14.112 11.5 14 11.388 14 11.25V9.75C14 9.612 14.112 9.5 14.25 9.5H15.75C15.888 9.5 16 9.612 16 9.75V11.25C16 11.388 15.888 11.5 15.75 11.5Z" fill="#057093"/>
<path id="Vector_6" d="M18.75 11.5H17.25C17.112 11.5 17 11.388 17 11.25V9.75C17 9.612 17.112 9.5 17.25 9.5H18.75C18.888 9.5 19 9.612 19 9.75V11.25C19 11.388 18.888 11.5 18.75 11.5Z" fill="#057093"/>
<path id="Vector_7" d="M6.75 14.5H5.25C5.112 14.5 5 14.388 5 14.25V12.75C5 12.612 5.112 12.5 5.25 12.5H6.75C6.888 12.5 7 12.612 7 12.75V14.25C7 14.388 6.888 14.5 6.75 14.5Z" fill="#057093"/>
<path id="Vector_8" d="M9.75 14.5H8.25C8.112 14.5 8 14.388 8 14.25V12.75C8 12.612 8.112 12.5 8.25 12.5H9.75C9.888 12.5 10 12.612 10 12.75V14.25C10 14.388 9.888 14.5 9.75 14.5Z" fill="#057093"/>
<path id="Vector_9" d="M12.75 14.5H11.25C11.112 14.5 11 14.388 11 14.25V12.75C11 12.612 11.112 12.5 11.25 12.5H12.75C12.888 12.5 13 12.612 13 12.75V14.25C13 14.388 12.888 14.5 12.75 14.5Z" fill="#057093"/>
<path id="Vector_10" d="M15.75 14.5H14.25C14.112 14.5 14 14.388 14 14.25V12.75C14 12.612 14.112 12.5 14.25 12.5H15.75C15.888 12.5 16 12.612 16 12.75V14.25C16 14.388 15.888 14.5 15.75 14.5Z" fill="#057093"/>
<path id="Vector_11" d="M18.75 14.5H17.25C17.112 14.5 17 14.388 17 14.25V12.75C17 12.612 17.112 12.5 17.25 12.5H18.75C18.888 12.5 19 12.612 19 12.75V14.25C19 14.388 18.888 14.5 18.75 14.5Z" fill="#057093"/>
<path id="Vector_12" d="M18.5 12C14.916 12 12 14.916 12 18.5C12 19.016 12.0605 19.5185 12.175 20H20.5C21.0525 20 21.5 19.5525 21.5 19V12.735C20.602 12.2655 19.5815 12 18.5 12Z" fill="url(#paint1_radial_206_9222)"/>
<path id="Vector_13" d="M18.5 24C21.5376 24 24 21.5376 24 18.5C24 15.4624 21.5376 13 18.5 13C15.4624 13 13 15.4624 13 18.5C13 21.5376 15.4624 24 18.5 24Z" fill="url(#paint2_linear_206_9222)"/>
<path id="Vector_14" d="M18.5 22.9C20.9301 22.9 22.9 20.93 22.9 18.5C22.9 16.0699 20.9301 14.1 18.5 14.1C16.0699 14.1 14.1 16.0699 14.1 18.5C14.1 20.93 16.0699 22.9 18.5 22.9Z" fill="#F5BE00"/>
<path id="Vector_15" d="M17.272 20.527V19.707C17.5695 19.8895 17.8865 19.9805 18.2225 19.9805C18.4755 19.9805 18.6735 19.9205 18.816 19.8C18.9585 19.6795 19.03 19.516 19.03 19.3095C19.03 18.878 18.7255 18.6625 18.116 18.6625C17.9175 18.6625 17.6775 18.6805 17.3965 18.717V16.285H19.8075V17.0685H18.2165V17.94C18.344 17.928 18.4645 17.922 18.578 17.922C19.0255 17.922 19.3755 18.0395 19.6285 18.274C19.8815 18.509 20.008 18.825 20.008 19.2215C20.008 19.6605 19.857 20.0195 19.5555 20.2975C19.254 20.576 18.845 20.715 18.3285 20.715C17.9095 20.715 17.5575 20.6525 17.272 20.527Z" fill="#FEE119"/>
<path id="Vector_16" d="M17.0855 7.5H6.9145C6.6855 7.5 6.5 7.3145 6.5 7.0855V6.4145C6.5 6.1855 6.6855 6 6.9145 6H17.0855C17.3145 6 17.5 6.1855 17.5 6.4145V7.0855C17.5 7.3145 17.3145 7.5 17.0855 7.5Z" fill="#057093"/>
</g>
<defs>
<linearGradient id="paint0_linear_206_9222" x1="8.49043" y1="4.24565" x2="15.5908" y2="20.5025" gradientUnits="userSpaceOnUse">
<stop stop-color="#7DD8F3"/>
<stop offset="1" stop-color="#45B0D0"/>
</linearGradient>
<radialGradient id="paint1_radial_206_9222" cx="0" cy="0" r="1" gradientUnits="userSpaceOnUse" gradientTransform="translate(18.5055 18.7125) scale(6.556)">
<stop/>
<stop offset="1" stop-opacity="0"/>
</radialGradient>
<linearGradient id="paint2_linear_206_9222" x1="14.725" y1="14.725" x2="22.381" y2="22.381" gradientUnits="userSpaceOnUse">
<stop stop-color="#FEDE00"/>
<stop offset="1" stop-color="#FFD000"/>
</linearGradient>
</defs>
</svg>
