<svg width="24" height="24" viewBox="0 0 24 24" fill="none" xmlns="http://www.w3.org/2000/svg">
<g id="synchronize-folder">
<path id="Vector" d="M12.207 5.207L10.939 3.939C10.658 3.658 10.2765 3.5 9.8785 3.5H2.5C1.9475 3.5 1.5 3.9475 1.5 4.5V19.5C1.5 20.0525 1.9475 20.5 2.5 20.5H21.5C22.0525 20.5 22.5 20.0525 22.5 19.5V6.5C22.5 5.9475 22.0525 5.5 21.5 5.5H12.914C12.649 5.5 12.3945 5.3945 12.207 5.207Z" fill="url(#paint0_linear_206_9239)"/>
<path id="Vector_2" d="M10.793 7.207L12.427 5.573C12.4735 5.5265 12.537 5.5 12.6035 5.5H21.5C22.0525 5.5 22.5 5.9475 22.5 6.5V19.5C22.5 20.0525 22.0525 20.5 21.5 20.5H2.5C1.9475 20.5 1.5 20.0525 1.5 19.5V7.75C1.5 7.612 1.612 7.5 1.75 7.5H10.086C10.351 7.5 10.6055 7.3945 10.793 7.207Z" fill="url(#paint1_linear_206_9239)"/>
<path id="Vector_3" d="M12 10.261C12 10.3945 11.894 10.499 11.7605 10.508C9.942 10.6315 8.5 12.151 8.5 14C8.5 14.709 8.722 15.3625 9.086 15.914L9.5735 15.4265C9.7305 15.2695 10 15.381 10 15.6035V17.25C10 17.388 9.888 17.5 9.75 17.5H8.1035C7.881 17.5 7.769 17.2305 7.9265 17.073L8.3615 16.638C7.8215 15.8965 7.5 14.986 7.5 14C7.5 11.606 9.3785 9.64302 11.739 9.50752C11.881 9.49952 12 9.61852 12 9.76052V10.261ZM15.637 11.363L16.0735 10.9265C16.2305 10.7695 16.119 10.5 15.8965 10.5H14.25C14.112 10.5 14 10.612 14 10.75V12.3965C14 12.619 14.2695 12.731 14.427 12.5735L14.92 12.0805C15.2845 12.632 15.5 13.2905 15.5 14C15.5 15.849 14.058 17.3685 12.2395 17.492C12.106 17.501 12 17.6055 12 17.739V18.2395C12 18.3815 12.119 18.5005 12.261 18.4925C14.6215 18.357 16.5 16.394 16.5 14C16.5 13.014 16.1775 12.1045 15.637 11.363Z" fill="url(#paint2_linear_206_9239)"/>
</g>
<defs>
<linearGradient id="paint0_linear_206_9239" x1="12" y1="3.354" x2="12" y2="7.4885" gradientUnits="userSpaceOnUse">
<stop stop-color="#EBA600"/>
<stop offset="1" stop-color="#C28200"/>
</linearGradient>
<linearGradient id="paint1_linear_206_9239" x1="12" y1="5.427" x2="12" y2="20.4915" gradientUnits="userSpaceOnUse">
<stop stop-color="#FFD869"/>
<stop offset="1" stop-color="#FEC52B"/>
</linearGradient>
<linearGradient id="paint2_linear_206_9239" x1="10.8075" y1="9.90202" x2="13.197" y2="18.1145" gradientUnits="userSpaceOnUse">
<stop stop-color="#0370C8"/>
<stop offset="0.484" stop-color="#036FC5"/>
<stop offset="0.775" stop-color="#036ABD"/>
<stop offset="1" stop-color="#0362B0"/>
</linearGradient>
</defs>
</svg>
