<svg width="24" height="24" viewBox="0 0 24 24" fill="none" xmlns="http://www.w3.org/2000/svg">
<g id="sync-settings">
<path id="Vector" d="M20.4965 13.4255L18.182 11.111C18.0295 10.9585 18.138 10.6975 18.3535 10.6975H23.325C23.54 10.6975 23.648 10.958 23.4955 11.1105L21.181 13.425C20.9925 13.6145 20.6855 13.6145 20.4965 13.4255Z" fill="url(#paint0_linear_206_9243)"/>
<path id="Vector_2" d="M3.5035 10.575L5.818 12.8895C5.9705 13.042 5.862 13.303 5.6465 13.303H0.674997C0.459997 13.303 0.351997 13.042 0.503997 12.8895L2.8185 10.575C3.0075 10.3855 3.3145 10.3855 3.5035 10.575Z" fill="url(#paint1_linear_206_9243)"/>
<path id="Vector_3" d="M12.349 21.994C7.0435 22.179 2.515 18.186 2.0405 12.903L4.0325 12.724C4.412 16.9495 8.0345 20.1435 12.279 19.9955C15.068 19.898 17.5835 18.3645 18.9535 15.9585C19.087 15.7235 19.3735 15.6245 19.616 15.744L20.514 16.1865C20.7665 16.311 20.873 16.623 20.736 16.869C19.0345 19.9215 15.8655 21.8715 12.349 21.994Z" fill="url(#paint2_linear_206_9243)"/>
<path id="Vector_4" d="M14.656 21.6425C12.036 21.6955 9.4045 20.7185 7.4035 18.7175C7.216 18.53 7.036 18.3425 6.87 18.141C8.3335 19.3645 10.2355 20.0645 12.279 19.994C15.0685 19.8985 17.586 18.364 18.954 15.9565C19.0885 15.723 19.371 15.624 19.6185 15.7445L20.513 16.1865C20.764 16.31 20.8735 16.625 20.7355 16.869C19.4175 19.234 17.2195 20.939 14.656 21.6425Z" fill="#88B0CE"/>
<path id="Vector_5" d="M11.651 2.00602C16.9565 1.82052 21.4845 5.81402 21.9595 11.097L19.9675 11.276C19.588 7.05052 15.9655 3.85652 11.721 4.00452C8.932 4.10202 6.4165 5.63552 5.0465 8.04152C4.913 8.27652 4.6265 8.37552 4.384 8.25602L3.486 7.81352C3.2335 7.68902 3.127 7.37702 3.264 7.13102C4.9655 4.07852 8.134 2.12902 11.651 2.00602Z" fill="url(#paint3_linear_206_9243)"/>
<path id="Vector_6" d="M9.3435 2.35703C11.9635 2.30403 14.595 3.28103 16.5965 5.28253C16.784 5.47003 16.9635 5.65803 17.1295 5.85953C15.666 4.63603 13.7645 3.93553 11.721 4.00603C8.9315 4.10153 6.414 5.63603 5.046 8.04353C4.9115 8.27703 4.629 8.37603 4.3815 8.25553L3.487 7.81353C3.236 7.69003 3.1265 7.37503 3.2645 7.13103C4.5825 4.76653 6.78 3.06103 9.3435 2.35703Z" fill="#88B0CE"/>
<path id="Vector_7" d="M12 15.02C13.6569 15.02 15 13.6769 15 12.02C15 10.3632 13.6569 9.02002 12 9.02002C10.3431 9.02002 9 10.3632 9 12.02C9 13.6769 10.3431 15.02 12 15.02Z" fill="url(#paint4_linear_206_9243)"/>
<path id="Vector_8" d="M16.8515 10.8305C16.2545 10.8235 15.676 10.512 15.356 9.957C15.0475 9.423 15.054 8.795 15.3155 8.284C14.784 7.812 14.155 7.449 13.458 7.237C13.144 7.709 12.6085 8.02 12 8.02C11.3915 8.02 10.856 7.709 10.542 7.2375C9.845 7.45 9.2155 7.813 8.6845 8.2845C8.946 8.7955 8.9525 9.4235 8.644 9.9575C8.324 10.5125 7.7455 10.8235 7.1485 10.831C7.055 11.2125 7 11.6095 7 12.02C7 12.341 7.033 12.6535 7.091 12.958C7.708 12.945 8.3135 13.26 8.644 13.8325C8.986 14.425 8.941 15.1335 8.589 15.669C9.1095 16.156 9.7325 16.533 10.424 16.763C10.7065 16.1765 11.305 15.7705 12 15.7705C12.695 15.7705 13.2935 16.1765 13.576 16.7635C14.2675 16.534 14.8905 16.1565 15.411 15.6695C15.059 15.1345 15.014 14.426 15.356 13.8335C15.6865 13.261 16.292 12.9465 16.9095 12.959C16.9665 12.6535 17 12.341 17 12.02C17 11.6095 16.945 11.2125 16.8515 10.8305ZM12 14.645C10.5505 14.645 9.375 13.4695 9.375 12.02C9.375 10.5705 10.5505 9.395 12 9.395C13.4495 9.395 14.625 10.5705 14.625 12.02C14.625 13.4695 13.4495 14.645 12 14.645Z" fill="url(#paint5_linear_206_9243)"/>
<path id="Vector_9" d="M12 13.52C12.8284 13.52 13.5 12.8484 13.5 12.02C13.5 11.1916 12.8284 10.52 12 10.52C11.1716 10.52 10.5 11.1916 10.5 12.02C10.5 12.8484 11.1716 13.52 12 13.52Z" fill="url(#paint6_linear_206_9243)"/>
</g>
<defs>
<linearGradient id="paint0_linear_206_9243" x1="19.3195" y1="10.27" x2="20.647" y2="13.9751" gradientUnits="userSpaceOnUse">
<stop stop-color="#FCFCFC"/>
<stop offset="0.95" stop-color="#C3C9CD"/>
</linearGradient>
<linearGradient id="paint1_linear_206_9243" x1="1.64174" y1="10.0053" x2="2.96954" y2="13.7108" gradientUnits="userSpaceOnUse">
<stop stop-color="#FCFCFC"/>
<stop offset="0.95" stop-color="#C3C9CD"/>
</linearGradient>
<linearGradient id="paint2_linear_206_9243" x1="6.19566" y1="11.3421" x2="10.2846" y2="23.4785" gradientUnits="userSpaceOnUse">
<stop stop-color="#FCFCFC"/>
<stop offset="0.95" stop-color="#C3C9CD"/>
</linearGradient>
<linearGradient id="paint3_linear_206_9243" x1="7.35898" y1="0.617913" x2="11.4479" y2="12.7543" gradientUnits="userSpaceOnUse">
<stop stop-color="#FCFCFC"/>
<stop offset="0.95" stop-color="#C3C9CD"/>
</linearGradient>
<linearGradient id="paint4_linear_206_9243" x1="14.09" y1="14.11" x2="9.882" y2="9.90202" gradientUnits="userSpaceOnUse">
<stop stop-color="white"/>
<stop offset="0.242" stop-color="#F2F2F2"/>
<stop offset="1" stop-color="#CCCCCC"/>
</linearGradient>
<linearGradient id="paint5_linear_206_9243" x1="7.3315" y1="7.356" x2="15.5205" y2="15.5445" gradientUnits="userSpaceOnUse">
<stop stop-color="#889097"/>
<stop offset="0.331" stop-color="#848C94"/>
<stop offset="0.669" stop-color="#78828B"/>
<stop offset="1" stop-color="#64717C"/>
</linearGradient>
<linearGradient id="paint6_linear_206_9243" x1="10.5965" y1="10.6165" x2="13.0585" y2="13.0785" gradientUnits="userSpaceOnUse">
<stop stop-color="#0D61A9"/>
<stop offset="0.363" stop-color="#0E5FA4"/>
<stop offset="0.78" stop-color="#135796"/>
<stop offset="1" stop-color="#16528C"/>
</linearGradient>
</defs>
</svg>
