<svg width="24" height="24" viewBox="0 0 24 24" fill="none" xmlns="http://www.w3.org/2000/svg">
<g id="tab">
<path id="Vector" d="M22 5V9H9.5V4H21C21.55 4 22 4.45 22 5Z" fill="url(#paint0_linear_206_9253)"/>
<path id="Vector_2" d="M19.0805 7.5C18.7215 7.5 18.3905 7.3075 18.2125 6.996L16.7885 4.5035C16.61 4.1925 16.2785 4 15.9195 4H10V7.5H19.0805Z" fill="url(#paint1_linear_206_9253)"/>
<path id="Vector_3" d="M12.212 6.996L10.788 4.5035C10.61 4.1925 10.2785 4 9.9195 4H3C2.4475 4 2 4.4475 2 5V19C2 19.55 2.45 20 3 20H21C21.55 20 22 19.55 22 19V8.5C22 7.9475 21.5525 7.5 21 7.5H13.0805C12.7215 7.5 12.39 7.3075 12.212 6.996Z" fill="url(#paint2_linear_206_9253)"/>
</g>
<defs>
<linearGradient id="paint0_linear_206_9253" x1="21.1065" y1="8.787" x2="8.0595" y2="3.608" gradientUnits="userSpaceOnUse">
<stop stop-color="#3079D6"/>
<stop offset="1" stop-color="#297CD2"/>
</linearGradient>
<linearGradient id="paint1_linear_206_9253" x1="13.3176" y1="4.15257" x2="13.5868" y2="7.99314" gradientUnits="userSpaceOnUse">
<stop stop-color="#32BDEF"/>
<stop offset="1" stop-color="#1EA2E4"/>
</linearGradient>
<linearGradient id="paint2_linear_206_9253" x1="8.30571" y1="4.24565" x2="15.1581" y2="20.7605" gradientUnits="userSpaceOnUse">
<stop stop-color="#7DD8F3"/>
<stop offset="1" stop-color="#45B0D0"/>
</linearGradient>
</defs>
</svg>
