<svg width="24" height="24" viewBox="0 0 24 24" fill="none" xmlns="http://www.w3.org/2000/svg">
<g id="table-of-content">
<path id="Vector" d="M19.5 3C18.6715 3 18 3.6715 18 4.5C18 5.3285 18.6715 6 19.5 6C20.3285 6 21 5.3285 21 4.5C21 3.6715 20.3285 3 19.5 3Z" fill="url(#paint0_linear_206_9260)"/>
<path id="Vector_2" d="M19.5 8C18.6715 8 18 8.6715 18 9.5C18 10.3285 18.6715 11 19.5 11C20.3285 11 21 10.3285 21 9.5C21 8.6715 20.3285 8 19.5 8Z" fill="url(#paint1_linear_206_9260)"/>
<path id="Vector_3" d="M19.5 13C18.6715 13 18 13.6715 18 14.5C18 15.3285 18.6715 16 19.5 16C20.3285 16 21 15.3285 21 14.5C21 13.6715 20.3285 13 19.5 13Z" fill="url(#paint2_linear_206_9260)"/>
<path id="Vector_4" d="M19.5 18C18.6715 18 18 18.6715 18 19.5C18 20.3285 18.6715 21 19.5 21C20.3285 21 21 20.3285 21 19.5C21 18.6715 20.3285 18 19.5 18Z" fill="url(#paint3_linear_206_9260)"/>
<path id="Vector_5" d="M15.5 8.5H3.5C3.224 8.5 3 8.724 3 9V10C3 10.276 3.224 10.5 3.5 10.5H15.5C15.776 10.5 16 10.276 16 10V9C16 8.724 15.776 8.5 15.5 8.5Z" fill="url(#paint4_linear_206_9260)"/>
<path id="Vector_6" d="M15.5 13.5H3.5C3.224 13.5 3 13.724 3 14V15C3 15.276 3.224 15.5 3.5 15.5H15.5C15.776 15.5 16 15.276 16 15V14C16 13.724 15.776 13.5 15.5 13.5Z" fill="url(#paint5_linear_206_9260)"/>
<path id="Vector_7" d="M15.5 18.5H3.5C3.224 18.5 3 18.724 3 19V20C3 20.276 3.224 20.5 3.5 20.5H15.5C15.776 20.5 16 20.276 16 20V19C16 18.724 15.776 18.5 15.5 18.5Z" fill="url(#paint6_linear_206_9260)"/>
<path id="Vector_8" d="M15.5 3.5H3.5C3.224 3.5 3 3.724 3 4V5C3 5.276 3.224 5.5 3.5 5.5H15.5C15.776 5.5 16 5.276 16 5V4C16 3.724 15.776 3.5 15.5 3.5Z" fill="url(#paint7_linear_206_9260)"/>
</g>
<defs>
<linearGradient id="paint0_linear_206_9260" x1="19.7605" y1="3.0225" x2="19.2395" y2="5.9775" gradientUnits="userSpaceOnUse">
<stop stop-color="#889097"/>
<stop offset="0.679" stop-color="#5F6B74"/>
<stop offset="1" stop-color="#4C5963"/>
</linearGradient>
<linearGradient id="paint1_linear_206_9260" x1="19.7605" y1="8.0225" x2="19.2395" y2="10.9775" gradientUnits="userSpaceOnUse">
<stop stop-color="#889097"/>
<stop offset="0.679" stop-color="#5F6B74"/>
<stop offset="1" stop-color="#4C5963"/>
</linearGradient>
<linearGradient id="paint2_linear_206_9260" x1="19.7605" y1="13.0225" x2="19.2395" y2="15.9775" gradientUnits="userSpaceOnUse">
<stop stop-color="#889097"/>
<stop offset="0.679" stop-color="#5F6B74"/>
<stop offset="1" stop-color="#4C5963"/>
</linearGradient>
<linearGradient id="paint3_linear_206_9260" x1="19.7605" y1="18.0225" x2="19.2395" y2="20.9775" gradientUnits="userSpaceOnUse">
<stop stop-color="#889097"/>
<stop offset="0.679" stop-color="#5F6B74"/>
<stop offset="1" stop-color="#4C5963"/>
</linearGradient>
<linearGradient id="paint4_linear_206_9260" x1="9.5" y1="8.5" x2="9.5" y2="10.5" gradientUnits="userSpaceOnUse">
<stop stop-color="#C3CDD9"/>
<stop offset="1" stop-color="#9FA7B0"/>
</linearGradient>
<linearGradient id="paint5_linear_206_9260" x1="9.5" y1="13.5" x2="9.5" y2="15.5" gradientUnits="userSpaceOnUse">
<stop stop-color="#C3CDD9"/>
<stop offset="1" stop-color="#9FA7B0"/>
</linearGradient>
<linearGradient id="paint6_linear_206_9260" x1="9.5" y1="18.5" x2="9.5" y2="20.5" gradientUnits="userSpaceOnUse">
<stop stop-color="#C3CDD9"/>
<stop offset="1" stop-color="#9FA7B0"/>
</linearGradient>
<linearGradient id="paint7_linear_206_9260" x1="9.5" y1="3.5" x2="9.5" y2="5.5" gradientUnits="userSpaceOnUse">
<stop stop-color="#C3CDD9"/>
<stop offset="1" stop-color="#9FA7B0"/>
</linearGradient>
</defs>
</svg>
