<svg width="24" height="24" viewBox="0 0 24 24" fill="none" xmlns="http://www.w3.org/2000/svg">
<g id="tags">
<path id="Vector" d="M12.762 4.534L4.7275 12.5685C4.01 13.286 4.01 14.449 4.7275 15.1665L10.3335 20.7725C11.051 21.49 12.214 21.49 12.9315 20.7725L20.9665 12.7375C21.308 12.396 21.5 11.9325 21.5 11.449V5.823C21.5 4.8205 20.6795 4 19.677 4H14.0515C13.5675 4 13.104 4.192 12.762 4.534Z" fill="url(#paint0_linear_206_9269)"/>
<path id="Vector_2" d="M10.9185 3.0245L3.0285 10.915C2.324 11.6195 2.324 12.762 3.0285 13.4665L8.534 18.972C9.2385 19.6765 10.381 19.6765 11.0855 18.972L18.976 11.0815C19.3115 10.7455 19.5 10.29 19.5 9.815V4.2905C19.5 3.3055 18.6945 2.5 17.7095 2.5H12.185C11.71 2.5 11.2545 2.6885 10.9185 3.0245ZM16.8145 6.1755C16.322 6.1755 15.9195 5.7725 15.9195 5.2805C15.9195 4.7885 16.3225 4.3855 16.8145 4.3855C17.3065 4.3855 17.7095 4.7885 17.7095 5.2805C17.7095 5.7725 17.307 6.1755 16.8145 6.1755Z" fill="url(#paint1_linear_206_9269)"/>
</g>
<defs>
<linearGradient id="paint0_linear_206_9269" x1="7.808" y1="22.814" x2="19.2525" y2="-0.267001" gradientUnits="userSpaceOnUse">
<stop stop-color="#0077D2"/>
<stop offset="1" stop-color="#0B59A2"/>
</linearGradient>
<linearGradient id="paint1_linear_206_9269" x1="5.4095" y1="2.6545" x2="17.353" y2="14.598" gradientUnits="userSpaceOnUse">
<stop stop-color="#32BDEF"/>
<stop offset="1" stop-color="#1EA2E4"/>
</linearGradient>
</defs>
</svg>
