<svg width="24" height="24" viewBox="0 0 24 24" fill="none" xmlns="http://www.w3.org/2000/svg">
<g id="task-planning">
<path id="Vector" d="M19 2H13C13 2.5525 12.5525 3 12 3C11.4475 3 11 2.5525 11 2H5C4.4475 2 4 2.4475 4 3V21C4 21.5525 4.4475 22 5 22H19C19.5525 22 20 21.5525 20 21V3C20 2.4475 19.5525 2 19 2Z" fill="url(#paint0_linear_206_9280)"/>
<path id="Vector_2" d="M18.5 21H5.5C5.224 21 5 20.776 5 20.5V16H19V20.5C19 20.776 18.776 21 18.5 21Z" fill="url(#paint1_linear_206_9280)"/>
<path id="Vector_3" d="M18.5 20H5.5C5.224 20 5 19.776 5 19.5V3.5C5 3.224 5.224 3 5.5 3H18.5C18.776 3 19 3.224 19 3.5V19.5C19 19.776 18.776 20 18.5 20Z" fill="#F3F3F3"/>
<path id="Vector_4" d="M16.75 9H7.25C7.112 9 7 8.888 7 8.75V8.25C7 8.112 7.112 8 7.25 8H16.75C16.888 8 17 8.112 17 8.25V8.75C17 8.888 16.888 9 16.75 9Z" fill="#42A4EB"/>
<path id="Vector_5" d="M14.75 11H7.25C7.112 11 7 10.888 7 10.75V10.25C7 10.112 7.112 10 7.25 10H14.75C14.888 10 15 10.112 15 10.25V10.75C15 10.888 14.888 11 14.75 11Z" fill="#42A4EB"/>
<path id="Vector_6" d="M16.75 13H7.25C7.112 13 7 12.888 7 12.75V12.25C7 12.112 7.112 12 7.25 12H16.75C16.888 12 17 12.112 17 12.25V12.75C17 12.888 16.888 13 16.75 13Z" fill="#42A4EB"/>
<path id="Vector_7" d="M16.75 17H7.25C7.112 17 7 16.888 7 16.75V16.25C7 16.112 7.112 16 7.25 16H16.75C16.888 16 17 16.112 17 16.25V16.75C17 16.888 16.888 17 16.75 17Z" fill="#42A4EB"/>
<path id="Vector_8" d="M14.75 15H7.25C7.112 15 7 14.888 7 14.75V14.25C7 14.112 7.112 14 7.25 14H14.75C14.888 14 15 14.112 15 14.25V14.75C15 14.888 14.888 15 14.75 15Z" fill="#42A4EB"/>
<path id="Vector_9" d="M15.5 4V2H13.408C13.2015 1.4185 12.652 1 12 1C11.348 1 10.7985 1.4185 10.592 2H8.5V4C8.5 4.276 8.724 4.5 9 4.5H15C15.276 4.5 15.5 4.276 15.5 4ZM12 2C12.276 2 12.5 2.224 12.5 2.5C12.5 2.776 12.276 3 12 3C11.724 3 11.5 2.776 11.5 2.5C11.5 2.224 11.724 2 12 2Z" fill="url(#paint2_linear_206_9280)"/>
<path id="Vector_10" d="M19 13C15.6865 13 13 15.6865 13 19C13 20.094 13.2975 21.117 13.8095 22H19C19.5525 22 20 21.5525 20 21V13.09C19.674 13.035 19.3415 13 19 13Z" fill="url(#paint3_radial_206_9280)"/>
<path id="Vector_11" d="M19 24C21.7614 24 24 21.7614 24 19C24 16.2386 21.7614 14 19 14C16.2386 14 14 16.2386 14 19C14 21.7614 16.2386 24 19 24Z" fill="url(#paint4_linear_206_9280)"/>
<path id="Vector_12" d="M19 23.5C21.4853 23.5 23.5 21.4853 23.5 19C23.5 16.5147 21.4853 14.5 19 14.5C16.5147 14.5 14.5 16.5147 14.5 19C14.5 21.4853 16.5147 23.5 19 23.5Z" fill="url(#paint5_radial_206_9280)"/>
<path id="Vector_13" d="M19 23C21.2091 23 23 21.2091 23 19C23 16.7909 21.2091 15 19 15C16.7909 15 15 16.7909 15 19C15 21.2091 16.7909 23 19 23Z" fill="url(#paint6_radial_206_9280)"/>
<path id="Vector_14" d="M20.4595 21.8335C20.3675 21.881 20.2545 21.8445 20.207 21.7525L18.8335 19.0855C18.786 18.9935 18.8225 18.8805 18.9145 18.833C19.0065 18.7855 19.1195 18.822 19.167 18.914L20.5405 21.581C20.5875 21.673 20.5515 21.7865 20.4595 21.8335Z" fill="#D83B01"/>
<path id="Vector_15" d="M19 19.1875C18.952 19.1875 18.904 19.169 18.8675 19.1325C18.7945 19.0595 18.7945 18.9405 18.8675 18.8675L20.989 16.746C21.062 16.673 21.181 16.673 21.254 16.746C21.327 16.819 21.327 16.938 21.254 17.011L19.1325 19.1325C19.096 19.169 19.048 19.1875 19 19.1875Z" fill="#45494D"/>
<path id="Vector_16" d="M19 19.3125C18.9545 19.3125 18.9085 19.3025 18.865 19.2815L16.918 18.3475C16.7625 18.273 16.697 18.0865 16.7715 17.9305C16.846 17.775 17.033 17.709 17.1885 17.784L19.1355 18.718C19.291 18.7925 19.3565 18.979 19.282 19.135C19.228 19.247 19.116 19.3125 19 19.3125Z" fill="#45494D"/>
<path id="Vector_17" d="M19 19.5C19.2761 19.5 19.5 19.2761 19.5 19C19.5 18.7239 19.2761 18.5 19 18.5C18.7239 18.5 18.5 18.7239 18.5 19C18.5 19.2761 18.7239 19.5 19 19.5Z" fill="#1E2021"/>
</g>
<defs>
<linearGradient id="paint0_linear_206_9280" x1="8.43" y1="0.7665" x2="14.788" y2="20.773" gradientUnits="userSpaceOnUse">
<stop stop-color="#C77740"/>
<stop offset="1" stop-color="#B0622B"/>
</linearGradient>
<linearGradient id="paint1_linear_206_9280" x1="12" y1="18.483" x2="12" y2="20.4465" gradientUnits="userSpaceOnUse">
<stop offset="0.442" stop-color="#878786"/>
<stop offset="0.594" stop-color="#9F9F9E"/>
<stop offset="0.859" stop-color="#C3C3C3"/>
<stop offset="1" stop-color="#D1D1D1"/>
</linearGradient>
<linearGradient id="paint2_linear_206_9280" x1="12.465" y1="4.964" x2="11.523" y2="1.0455" gradientUnits="userSpaceOnUse">
<stop stop-color="#C3CDD9"/>
<stop offset="1" stop-color="#9FA7B0"/>
</linearGradient>
<radialGradient id="paint3_radial_206_9280" cx="0" cy="0" r="1" gradientUnits="userSpaceOnUse" gradientTransform="translate(19.0345 18.997) scale(5.9955)">
<stop/>
<stop offset="1" stop-opacity="0"/>
</radialGradient>
<linearGradient id="paint4_linear_206_9280" x1="15.4645" y1="15.4645" x2="22.5355" y2="22.5355" gradientUnits="userSpaceOnUse">
<stop stop-color="#889097"/>
<stop offset="1" stop-color="#64717C"/>
</linearGradient>
<radialGradient id="paint5_radial_206_9280" cx="0" cy="0" r="1" gradientUnits="userSpaceOnUse" gradientTransform="translate(19 19) scale(4.5)">
<stop/>
<stop offset="1" stop-opacity="0"/>
</radialGradient>
<radialGradient id="paint6_radial_206_9280" cx="0" cy="0" r="1" gradientUnits="userSpaceOnUse" gradientTransform="translate(18.974 15.093) scale(8.914)">
<stop stop-color="#FAFAFB"/>
<stop offset="1" stop-color="#C8CDD1"/>
</radialGradient>
</defs>
</svg>
