<svg width="50" height="50" viewBox="0 0 50 50" fill="none" xmlns="http://www.w3.org/2000/svg">
<path d="M38.5416 17.7083C33.9396 17.7083 30.2083 21.4396 30.2083 26.0417V41.6667C30.2083 42.8177 31.1406 43.75 32.2916 43.75H44.7916C45.9427 43.75 46.875 42.8177 46.875 41.6667V26.0417C46.875 21.4396 43.1437 17.7083 38.5416 17.7083Z" fill="url(#paint0_linear_84_2657)"/>
<path d="M25 14.5833C20.3979 14.5833 16.6667 18.3146 16.6667 22.9167V41.6667C16.6667 42.8177 17.599 43.75 18.75 43.75H31.25C32.4011 43.75 33.3334 42.8177 33.3334 41.6667V22.9167C33.3334 18.3146 29.6021 14.5833 25 14.5833Z" fill="url(#paint1_linear_84_2657)"/>
<path d="M11.4583 17.7083C6.85625 17.7083 3.125 21.4396 3.125 26.0417V41.6667C3.125 42.8177 4.05729 43.75 5.20833 43.75H17.7083C18.8594 43.75 19.7917 42.8177 19.7917 41.6667V26.0417C19.7917 21.4396 16.0604 17.7083 11.4583 17.7083Z" fill="url(#paint2_linear_84_2657)"/>
<path d="M38.5417 15.625C40.8429 15.625 42.7083 13.7595 42.7083 11.4583C42.7083 9.15714 40.8429 7.29166 38.5417 7.29166C36.2405 7.29166 34.375 9.15714 34.375 11.4583C34.375 13.7595 36.2405 15.625 38.5417 15.625Z" fill="url(#paint3_linear_84_2657)"/>
<path d="M11.4584 15.625C13.7595 15.625 15.625 13.7595 15.625 11.4583C15.625 9.15714 13.7595 7.29166 11.4584 7.29166C9.15717 7.29166 7.29169 9.15714 7.29169 11.4583C7.29169 13.7595 9.15717 15.625 11.4584 15.625Z" fill="url(#paint4_linear_84_2657)"/>
<path d="M25 12.5C27.3012 12.5 29.1666 10.6345 29.1666 8.33333C29.1666 6.03214 27.3012 4.16666 25 4.16666C22.6988 4.16666 20.8333 6.03214 20.8333 8.33333C20.8333 10.6345 22.6988 12.5 25 12.5Z" fill="url(#paint5_linear_84_2657)"/>
<path d="M25 29.1667C27.3012 29.1667 29.1666 27.3012 29.1666 25C29.1666 22.6988 27.3012 20.8333 25 20.8333C22.6988 20.8333 20.8333 22.6988 20.8333 25C20.8333 27.3012 22.6988 29.1667 25 29.1667Z" fill="url(#paint6_linear_84_2657)"/>
<path d="M24.4448 31.2677C20.0156 31.5552 16.6667 35.4302 16.6667 39.8687V42.7083C16.6667 43.2833 17.1334 43.75 17.7084 43.75H32.2917C32.8667 43.75 33.3334 43.2833 33.3334 42.7083V39.5833C33.3334 34.7969 29.299 30.9542 24.4448 31.2677Z" fill="url(#paint7_linear_84_2657)"/>
<defs>
<linearGradient id="paint0_linear_84_2657" x1="33.4781" y1="11.674" x2="40.2166" y2="40.7104" gradientUnits="userSpaceOnUse">
<stop stop-color="#0D61A9"/>
<stop offset="1" stop-color="#16528C"/>
</linearGradient>
<linearGradient id="paint1_linear_84_2657" x1="21.0844" y1="15.0594" x2="27.7688" y2="43.8594" gradientUnits="userSpaceOnUse">
<stop stop-color="#0D61A9"/>
<stop offset="1" stop-color="#16528C"/>
</linearGradient>
<linearGradient id="paint2_linear_84_2657" x1="7.89062" y1="18.1208" x2="14.6292" y2="47.1573" gradientUnits="userSpaceOnUse">
<stop stop-color="#0D61A9"/>
<stop offset="1" stop-color="#16528C"/>
</linearGradient>
<linearGradient id="paint3_linear_84_2657" x1="35.7146" y1="8.63125" x2="41.5281" y2="14.4448" gradientUnits="userSpaceOnUse">
<stop stop-color="#0D61A9"/>
<stop offset="1" stop-color="#16528C"/>
</linearGradient>
<linearGradient id="paint4_linear_84_2657" x1="8.63127" y1="8.63125" x2="14.4448" y2="14.4448" gradientUnits="userSpaceOnUse">
<stop stop-color="#0D61A9"/>
<stop offset="1" stop-color="#16528C"/>
</linearGradient>
<linearGradient id="paint5_linear_84_2657" x1="22.1729" y1="5.50625" x2="27.9864" y2="11.3198" gradientUnits="userSpaceOnUse">
<stop stop-color="#0D61A9"/>
<stop offset="1" stop-color="#16528C"/>
</linearGradient>
<linearGradient id="paint6_linear_84_2657" x1="22.1729" y1="22.1729" x2="27.9864" y2="27.9865" gradientUnits="userSpaceOnUse">
<stop stop-color="#32BDEF"/>
<stop offset="1" stop-color="#1EA2E4"/>
</linearGradient>
<linearGradient id="paint7_linear_84_2657" x1="21.4729" y1="31.876" x2="26.5115" y2="44.0823" gradientUnits="userSpaceOnUse">
<stop stop-color="#32BDEF"/>
<stop offset="1" stop-color="#1EA2E4"/>
</linearGradient>
</defs>
</svg>
