<svg width="24" height="24" viewBox="0 0 24 24" fill="none" xmlns="http://www.w3.org/2000/svg">
<g id="telebot">
<path id="Vector" d="M22.5 13.9499H19.185C19.1758 12.0504 18.4147 10.2318 17.0683 8.89193C15.7218 7.55202 13.8996 6.79981 12 6.79981C10.1005 6.79981 8.2782 7.55202 6.93175 8.89193C5.58531 10.2318 4.82424 12.0504 4.815 13.9499H1.5C1.4994 12.9526 1.64426 11.9605 1.93 11.005C2.57672 8.83657 3.90613 6.93483 5.72047 5.58262C7.53482 4.23042 9.73719 3.5 12 3.5C14.2628 3.5 16.4652 4.23042 18.2795 5.58262C20.0939 6.93483 21.4233 8.83657 22.07 11.005C22.3557 11.9605 22.5006 12.9526 22.5 13.9499Z" fill="url(#paint0_linear_206_7581)"/>
<path id="Vector_2" d="M23 12V15.5C22.9992 15.765 22.8936 16.0189 22.7062 16.2063C22.5189 16.3936 22.265 16.4992 22 16.5H20.25V11H22C22.0234 10.999 22.0469 11.0007 22.07 11.005C22.3221 11.0225 22.5582 11.1349 22.7308 11.3195C22.9033 11.5042 22.9995 11.7473 23 12Z" fill="#42A4ED"/>
<path id="Vector_3" d="M3.75 11V16.5H2C1.73502 16.4992 1.48112 16.3936 1.29375 16.2063C1.10639 16.0189 1.00078 15.765 1 15.5V12C1.00048 11.7473 1.09669 11.5042 1.26925 11.3195C1.44181 11.1349 1.6779 11.0225 1.93 11.005C1.95307 11.0007 1.97655 10.999 2 11H3.75Z" fill="#42A4ED"/>
<path id="Vector_4" d="M21.5 13.95V14C21.5012 14.8446 21.3885 15.6855 21.165 16.5H20.25V13.95H19.185C19.1758 12.0504 18.4147 10.2319 17.0682 8.89194C15.7218 7.55203 13.8995 6.79982 12 6.79982C10.1004 6.79982 8.27819 7.55203 6.93174 8.89194C5.5853 10.2319 4.82423 12.0504 4.81499 13.95H3.74999V16.5H2.83499C2.61149 15.6855 2.49881 14.8446 2.49999 14V13.95C2.50332 12.9467 2.66879 11.9505 2.98999 11C3.61896 9.10763 4.8278 7.46133 6.44505 6.29462C8.06229 5.12792 10.0058 4.50003 12 4.50003C13.9942 4.50003 15.9377 5.12792 17.5549 6.29462C19.1722 7.46133 20.381 9.10763 21.01 11C21.3312 11.9505 21.4967 12.9467 21.5 13.95Z" fill="url(#paint1_radial_206_7581)"/>
<path id="Vector_5" d="M12 5C9.61306 5.00002 7.32389 5.94824 5.63606 7.63606C3.94824 9.32389 3.00002 11.6131 3 14H21C21 11.6131 20.0518 9.32389 18.3639 7.63606C16.6761 5.94824 14.3869 5.00002 12 5Z" fill="url(#paint2_linear_206_7581)"/>
<g id="Vector_6">
<path d="M15.55 19.45H8.45C7.79995 19.45 7.15626 19.322 6.55568 19.0733C5.9551 18.8245 5.40941 18.4599 4.94975 18.0002C4.49009 17.5406 4.12548 16.9949 3.87673 16.3943C3.62798 15.7937 3.49997 15.15 3.5 14.5C3.49997 13.8499 3.62798 13.2062 3.87673 12.6057C4.12548 12.0051 4.49009 11.4594 4.94975 10.9997C5.40941 10.5401 5.9551 10.1755 6.55568 9.92672C7.15626 9.67797 7.79995 9.54996 8.45 9.54999H15.55C16.2001 9.54996 16.8437 9.67797 17.4443 9.92672C18.0449 10.1755 18.5906 10.5401 19.0503 10.9997C19.5099 11.4594 19.8745 12.0051 20.1233 12.6057C20.372 13.2062 20.5 13.8499 20.5 14.5C20.5 15.15 20.372 15.7937 20.1233 16.3943C19.8745 16.9949 19.5099 17.5406 19.0503 18.0002C18.5906 18.4599 18.0449 18.8245 17.4443 19.0733C16.8437 19.322 16.2001 19.45 15.55 19.45Z" fill="url(#paint3_radial_206_7581)" fill-opacity="0.5"/>
<path d="M15.55 19.45H8.45C7.79995 19.45 7.15626 19.322 6.55568 19.0733C5.9551 18.8245 5.40941 18.4599 4.94975 18.0002C4.49009 17.5406 4.12548 16.9949 3.87673 16.3943C3.62798 15.7937 3.49997 15.15 3.5 14.5C3.49997 13.8499 3.62798 13.2062 3.87673 12.6057C4.12548 12.0051 4.49009 11.4594 4.94975 10.9997C5.40941 10.5401 5.9551 10.1755 6.55568 9.92672C7.15626 9.67797 7.79995 9.54996 8.45 9.54999H15.55C16.2001 9.54996 16.8437 9.67797 17.4443 9.92672C18.0449 10.1755 18.5906 10.5401 19.0503 10.9997C19.5099 11.4594 19.8745 12.0051 20.1233 12.6057C20.372 13.2062 20.5 13.8499 20.5 14.5C20.5 15.15 20.372 15.7937 20.1233 16.3943C19.8745 16.9949 19.5099 17.5406 19.0503 18.0002C18.5906 18.4599 18.0449 18.8245 17.4443 19.0733C16.8437 19.322 16.2001 19.45 15.55 19.45Z" fill="black" fill-opacity="0.2"/>
<path d="M15.55 19.45H8.45C7.79995 19.45 7.15626 19.322 6.55568 19.0733C5.9551 18.8245 5.40941 18.4599 4.94975 18.0002C4.49009 17.5406 4.12548 16.9949 3.87673 16.3943C3.62798 15.7937 3.49997 15.15 3.5 14.5C3.49997 13.8499 3.62798 13.2062 3.87673 12.6057C4.12548 12.0051 4.49009 11.4594 4.94975 10.9997C5.40941 10.5401 5.9551 10.1755 6.55568 9.92672C7.15626 9.67797 7.79995 9.54996 8.45 9.54999H15.55C16.2001 9.54996 16.8437 9.67797 17.4443 9.92672C18.0449 10.1755 18.5906 10.5401 19.0503 10.9997C19.5099 11.4594 19.8745 12.0051 20.1233 12.6057C20.372 13.2062 20.5 13.8499 20.5 14.5C20.5 15.15 20.372 15.7937 20.1233 16.3943C19.8745 16.9949 19.5099 17.5406 19.0503 18.0002C18.5906 18.4599 18.0449 18.8245 17.4443 19.0733C16.8437 19.322 16.2001 19.45 15.55 19.45Z" fill="black" fill-opacity="0.75"/>
</g>
<path id="Vector_7" d="M15.525 20H8.475C7.02344 19.9984 5.63179 19.421 4.60538 18.3946C3.57896 17.3682 3.00162 15.9766 3 14.525V14.475C3.00162 13.0234 3.57896 11.6318 4.60538 10.6054C5.63179 9.57896 7.02344 9.00162 8.475 9H15.525C16.9766 9.00162 18.3682 9.57896 19.3946 10.6054C20.421 11.6318 20.9984 13.0234 21 14.475V14.5255C20.9983 15.977 20.4209 17.3685 19.3945 18.3948C18.3681 19.4211 16.9765 19.9984 15.525 20ZM8.475 10C7.28857 10.0013 6.15112 10.4733 5.31219 11.3122C4.47326 12.1511 4.00135 13.2886 4 14.475V14.5255C4.00146 15.7119 4.47341 16.8492 5.31234 17.688C6.15126 18.5268 7.28865 18.9987 8.475 19H15.525C16.7115 18.9987 17.849 18.5269 18.6879 17.6879C19.5269 16.849 19.9987 15.7115 20 14.525V14.475C19.9986 13.2886 19.5267 12.1511 18.6878 11.3122C17.8489 10.4733 16.7114 10.0013 15.525 10H8.475Z" fill="url(#paint4_linear_206_7581)"/>
<path id="Vector_8" d="M10.4995 15C10.3858 14.9998 10.2756 14.9609 10.1869 14.8898C10.0983 14.8186 10.0365 14.7194 10.0117 14.6084C9.92825 14.2765 9.73155 13.9842 9.45557 13.7818C9.17958 13.5795 8.84162 13.4798 8.49999 13.5C8.15837 13.4798 7.8204 13.5795 7.54441 13.7818C7.26843 13.9842 7.07173 14.2765 6.98827 14.6084C6.9592 14.7376 6.8801 14.8499 6.76831 14.9209C6.65652 14.9918 6.52116 15.0156 6.39191 14.9869C6.26265 14.9582 6.15005 14.8794 6.07878 14.7678C6.00751 14.6562 5.98339 14.5209 6.01171 14.3916C6.1438 13.8372 6.46393 13.3458 6.91761 13.0009C7.3713 12.656 7.93049 12.479 8.49999 12.5C9.0695 12.479 9.62869 12.656 10.0824 13.0009C10.5361 13.3458 10.8562 13.8372 10.9883 14.3916C11.0169 14.5211 10.993 14.6566 10.9217 14.7685C10.8505 14.8804 10.7378 14.9594 10.6084 14.9883C10.5726 14.996 10.5361 14.9999 10.4995 15Z" fill="url(#paint5_linear_206_7581)"/>
<path id="Vector_9" d="M17.4995 15C17.3858 14.9998 17.2756 14.9609 17.1869 14.8898C17.0983 14.8186 17.0365 14.7194 17.0117 14.6084C16.9282 14.2765 16.7316 13.9842 16.4556 13.7818C16.1796 13.5795 15.8416 13.4798 15.5 13.5C15.1584 13.4798 14.8204 13.5795 14.5444 13.7818C14.2684 13.9842 14.0717 14.2765 13.9883 14.6084C13.9592 14.7376 13.8801 14.8499 13.7683 14.9209C13.6565 14.9918 13.5212 15.0156 13.3919 14.9869C13.2627 14.9582 13.1501 14.8794 13.0788 14.7678C13.0075 14.6562 12.9834 14.5209 13.0117 14.3916C13.1438 13.8372 13.4639 13.3458 13.9176 13.0009C14.3713 12.656 14.9305 12.479 15.5 12.5C16.0695 12.479 16.6287 12.656 17.0824 13.0009C17.5361 13.3458 17.8562 13.8372 17.9883 14.3916C18.0169 14.5211 17.993 14.6566 17.9217 14.7685C17.8505 14.8804 17.7378 14.9594 17.6084 14.9883C17.5726 14.996 17.5361 14.9999 17.4995 15Z" fill="url(#paint6_linear_206_7581)"/>
</g>
<defs>
<linearGradient id="paint0_linear_206_7581" x1="8.121" y1="3.66044" x2="11.1803" y2="15.514" gradientUnits="userSpaceOnUse">
<stop stop-color="#7DD8F3"/>
<stop offset="1" stop-color="#45B0D0"/>
</linearGradient>
<radialGradient id="paint1_radial_206_7581" cx="0" cy="0" r="1" gradientUnits="userSpaceOnUse" gradientTransform="translate(11.9265 13.9731) scale(9.451 9.53795)">
<stop offset="0.934" stop-opacity="0.2"/>
<stop offset="1" stop-opacity="0"/>
</radialGradient>
<linearGradient id="paint2_linear_206_7581" x1="8.3895" y1="3.283" x2="13.4445" y2="17.1715" gradientUnits="userSpaceOnUse">
<stop stop-color="#FFD869"/>
<stop offset="1" stop-color="#FEC52B"/>
</linearGradient>
<radialGradient id="paint3_radial_206_7581" cx="0" cy="0" r="1" gradientUnits="userSpaceOnUse" gradientTransform="translate(11.5 8.5) rotate(87.3856) scale(10.9614 18.8226)">
<stop stop-opacity="0.6"/>
<stop offset="1" stop-color="#707D88" stop-opacity="0"/>
</radialGradient>
<linearGradient id="paint4_linear_206_7581" x1="9.225" y1="6.8755" x2="16.102" y2="25.771" gradientUnits="userSpaceOnUse">
<stop stop-color="#EAC878"/>
<stop offset="1" stop-color="#E6BE6D"/>
</linearGradient>
<linearGradient id="paint5_linear_206_7581" x1="7.57654" y1="12.5367" x2="8.31244" y2="15.3725" gradientUnits="userSpaceOnUse">
<stop stop-color="#7DD8F3"/>
<stop offset="1" stop-color="#45B0D0"/>
</linearGradient>
<linearGradient id="paint6_linear_206_7581" x1="14.5765" y1="12.5367" x2="15.3124" y2="15.3725" gradientUnits="userSpaceOnUse">
<stop stop-color="#7DD8F3"/>
<stop offset="1" stop-color="#45B0D0"/>
</linearGradient>
</defs>
</svg>
