<svg width="24" height="24" viewBox="0 0 24 24" fill="none" xmlns="http://www.w3.org/2000/svg">
<path d="M2 19V6.5H22V19C22 19.55 21.55 20 21 20H3C2.45 20 2 19.55 2 19Z" fill="url(#paint0_linear_84_3086)"/>
<path d="M19.25 10.5H7.75C7.612 10.5 7.5 10.388 7.5 10.25V9.75C7.5 9.612 7.612 9.5 7.75 9.5H19.25C19.388 9.5 19.5 9.612 19.5 9.75V10.25C19.5 10.388 19.388 10.5 19.25 10.5Z" fill="#0F94BF"/>
<path d="M19.25 12.5H7.75C7.612 12.5 7.5 12.388 7.5 12.25V11.75C7.5 11.612 7.612 11.5 7.75 11.5H19.25C19.388 11.5 19.5 11.612 19.5 11.75V12.25C19.5 12.388 19.388 12.5 19.25 12.5Z" fill="#0F94BF"/>
<path d="M19.25 14.5H7.75C7.612 14.5 7.5 14.388 7.5 14.25V13.75C7.5 13.612 7.612 13.5 7.75 13.5H19.25C19.388 13.5 19.5 13.612 19.5 13.75V14.25C19.5 14.388 19.388 14.5 19.25 14.5Z" fill="#0F94BF"/>
<path d="M17.5 16.5H7.75C7.612 16.5 7.5 16.388 7.5 16.25V15.75C7.5 15.612 7.612 15.5 7.75 15.5H17.5V16.5Z" fill="#0F94BF"/>
<path opacity="0.05" d="M22 8.80099L14.0505 16.752L13.434 19.2C13.3785 19.421 13.579 19.6215 13.8 19.566L16.2485 18.9495L22 13.197V8.80099Z" fill="black"/>
<path opacity="0.07" d="M22 9.15451L14.4705 16.6855L14.197 17.194H14.1965L13.7645 18.911C13.715 19.107 13.8925 19.284 14.0885 19.235L15.8115 18.801L16.3145 18.5295L22 12.8315V9.15451Z" fill="black"/>
<path opacity="0.2" d="M22 9.50751L18.251 13.2575L14.502 17.0075L14.5025 17.008H14.5015L14.095 18.6235C14.052 18.794 14.2065 18.9485 14.377 18.9055L15.9925 18.499V18.4985L18.996 15.4945L22 12.49V9.50751Z" fill="black"/>
<path d="M22 5V6.5H2V5C2 4.45 2.45 4 3 4H21C21.55 4 22 4.45 22 5Z" fill="url(#paint1_linear_84_3086)"/>
<path d="M4.75 10.5H5.25C5.388 10.5 5.5 10.388 5.5 10.25V9.75C5.5 9.612 5.388 9.5 5.25 9.5H4.75C4.612 9.5 4.5 9.612 4.5 9.75V10.25C4.5 10.388 4.612 10.5 4.75 10.5Z" fill="#0F94BF"/>
<path d="M4.75 12.5H5.25C5.388 12.5 5.5 12.388 5.5 12.25V11.75C5.5 11.612 5.388 11.5 5.25 11.5H4.75C4.612 11.5 4.5 11.612 4.5 11.75V12.25C4.5 12.388 4.612 12.5 4.75 12.5Z" fill="#0F94BF"/>
<path d="M4.75 14.5H5.25C5.388 14.5 5.5 14.388 5.5 14.25V13.75C5.5 13.612 5.388 13.5 5.25 13.5H4.75C4.612 13.5 4.5 13.612 4.5 13.75V14.25C4.5 14.388 4.612 14.5 4.75 14.5Z" fill="#0F94BF"/>
<path d="M4.75 16.5H5.25C5.388 16.5 5.5 16.388 5.5 16.25V15.75C5.5 15.612 5.388 15.5 5.25 15.5H4.75C4.612 15.5 4.5 15.612 4.5 15.75V16.25C4.5 16.388 4.612 16.5 4.75 16.5Z" fill="#0F94BF"/>
<path d="M23.8905 10.0705L22.9295 9.11C22.7835 8.9635 22.5455 8.9635 22.399 9.11L21.947 9.5625L23.4375 11.053L23.89 10.601C24.0365 10.454 24.0365 10.217 23.8905 10.0705Z" fill="#C94F60"/>
<path d="M14.5015 17.008L14 19L15.9925 18.4985L16.2015 16.7705L14.5015 17.008Z" fill="#F0F0F0"/>
<path d="M22.1665 12.324L15.9925 18.498L14.502 17.0075L20.676 10.8335L22.1665 12.324Z" fill="#EDBE00"/>
<path d="M20.6745 10.8335L21.946 9.56149L23.4375 11.052L22.166 12.324L20.6745 10.8335Z" fill="url(#paint2_linear_84_3086)"/>
<path d="M14.254 17.9925L14 19L15.007 18.746L14.254 17.9925Z" fill="#787878"/>
<defs>
<linearGradient id="paint0_linear_84_3086" x1="6.5345" y1="4.999" x2="15.963" y2="18.6375" gradientUnits="userSpaceOnUse">
<stop stop-color="#7DD8F3"/>
<stop offset="1" stop-color="#45B0D0"/>
</linearGradient>
<linearGradient id="paint1_linear_84_3086" x1="2.404" y1="3.39" x2="21.375" y2="7.2475" gradientUnits="userSpaceOnUse">
<stop stop-color="#0077D2"/>
<stop offset="1" stop-color="#0B59A2"/>
</linearGradient>
<linearGradient id="paint2_linear_84_3086" x1="22.056" y1="9.65599" x2="22.056" y2="12.4005" gradientUnits="userSpaceOnUse">
<stop stop-color="#DEDEDE"/>
<stop offset="1" stop-color="#D6D6D6"/>
</linearGradient>
</defs>
</svg>
