<svg width="24" height="24" viewBox="0 0 24 24" fill="none" xmlns="http://www.w3.org/2000/svg">
<g id="thin-client">
<path id="Vector" d="M7 12.5C6.852 12.5 6.7055 12.4345 6.6065 12.309C6.436 12.0915 6.4735 11.7775 6.6905 11.607L13.6905 6.10699C13.9075 5.93549 14.2215 5.97399 14.3925 6.19099C14.563 6.40849 14.5255 6.72249 14.3085 6.89299L7.3085 12.393C7.2175 12.4655 7.1085 12.5 7 12.5Z" fill="#64717C"/>
<path id="Vector_2" d="M13.9995 16.5C13.9155 16.5 13.83 16.479 13.752 16.434L6.752 12.434C6.5125 12.297 6.429 11.9915 6.566 11.752C6.703 11.5125 7.009 11.429 7.248 11.566L14.248 15.566C14.4875 15.703 14.571 16.0085 14.434 16.248C14.342 16.4095 14.173 16.5 13.9995 16.5Z" fill="#64717C"/>
<path id="Vector_3" d="M9.5 3H3.5C2.9475 3 2.5 3.4475 2.5 4V20C2.5 20.5525 2.9475 21 3.5 21H9.5C10.0525 21 10.5 20.5525 10.5 20V4C10.5 3.4475 10.0525 3 9.5 3Z" fill="url(#paint0_linear_206_9360)"/>
<path id="Vector_4" d="M6.5 19C7.32843 19 8 18.3284 8 17.5C8 16.6716 7.32843 16 6.5 16C5.67157 16 5 16.6716 5 17.5C5 18.3284 5.67157 19 6.5 19Z" fill="url(#paint1_radial_206_9360)"/>
<path id="Vector_5" d="M6.5 18.5C7.05228 18.5 7.5 18.0523 7.5 17.5C7.5 16.9477 7.05228 16.5 6.5 16.5C5.94772 16.5 5.5 16.9477 5.5 17.5C5.5 18.0523 5.94772 18.5 6.5 18.5Z" fill="white"/>
<path id="Vector_6" d="M9.25 6.5H3.75C3.612 6.5 3.5 6.388 3.5 6.25V4.75C3.5 4.612 3.612 4.5 3.75 4.5H9.25C9.388 4.5 9.5 4.612 9.5 4.75V6.25C9.5 6.388 9.388 6.5 9.25 6.5Z" fill="#727D86"/>
<path id="Vector_7" d="M8.5 6C8.77614 6 9 5.77614 9 5.5C9 5.22386 8.77614 5 8.5 5C8.22386 5 8 5.22386 8 5.5C8 5.77614 8.22386 6 8.5 6Z" fill="url(#paint2_linear_206_9360)"/>
<path id="Vector_8" d="M9.25 9.5H3.75C3.612 9.5 3.5 9.388 3.5 9.25V7.75C3.5 7.612 3.612 7.5 3.75 7.5H9.25C9.388 7.5 9.5 7.612 9.5 7.75V9.25C9.5 9.388 9.388 9.5 9.25 9.5Z" fill="#727D86"/>
<path id="Vector_9" d="M8.5 9C8.77614 9 9 8.77614 9 8.5C9 8.22386 8.77614 8 8.5 8C8.22386 8 8 8.22386 8 8.5C8 8.77614 8.22386 9 8.5 9Z" fill="url(#paint3_linear_206_9360)"/>
<path id="Vector_10" d="M19.75 10H18.5V8.5H16.5V10H15.25C15.112 10 15 10.112 15 10.25V10.75C15 10.888 15.112 11 15.25 11H19.75C19.888 11 20 10.888 20 10.75V10.25C20 10.112 19.888 10 19.75 10Z" fill="url(#paint4_linear_206_9360)"/>
<path id="Vector_11" d="M21 9H14C13.724 9 13.5 8.776 13.5 8.5V3.5C13.5 3.224 13.724 3 14 3H21C21.276 3 21.5 3.224 21.5 3.5V8.5C21.5 8.776 21.276 9 21 9Z" fill="url(#paint5_radial_206_9360)"/>
<path id="Vector_12" d="M19.75 20H18.5V18.5H16.5V20H15.25C15.112 20 15 20.112 15 20.25V20.75C15 20.888 15.112 21 15.25 21H19.75C19.888 21 20 20.888 20 20.75V20.25C20 20.112 19.888 20 19.75 20Z" fill="url(#paint6_linear_206_9360)"/>
<path id="Vector_13" d="M21 19H14C13.724 19 13.5 18.776 13.5 18.5V13.5C13.5 13.224 13.724 13 14 13H21C21.276 13 21.5 13.224 21.5 13.5V18.5C21.5 18.776 21.276 19 21 19Z" fill="url(#paint7_radial_206_9360)"/>
</g>
<defs>
<linearGradient id="paint0_linear_206_9360" x1="4.4495" y1="3.472" x2="8.7435" y2="21.331" gradientUnits="userSpaceOnUse">
<stop stop-color="#C3CDD9"/>
<stop offset="1" stop-color="#9FA7B0"/>
</linearGradient>
<radialGradient id="paint1_radial_206_9360" cx="0" cy="0" r="1" gradientUnits="userSpaceOnUse" gradientTransform="translate(6.5 17.5) scale(1.5)">
<stop offset="0.582" stop-opacity="0.2"/>
<stop offset="1" stop-opacity="0"/>
</radialGradient>
<linearGradient id="paint2_linear_206_9360" x1="8.31529" y1="5.01535" x2="8.80977" y2="5.96876" gradientUnits="userSpaceOnUse">
<stop stop-color="#7DD8F3"/>
<stop offset="1" stop-color="#45B0D0"/>
</linearGradient>
<linearGradient id="paint3_linear_206_9360" x1="8.31529" y1="8.01535" x2="8.80977" y2="8.96876" gradientUnits="userSpaceOnUse">
<stop stop-color="#7DD8F3"/>
<stop offset="1" stop-color="#45B0D0"/>
</linearGradient>
<linearGradient id="paint4_linear_206_9360" x1="17.5" y1="8.4945" x2="17.5" y2="11.005" gradientUnits="userSpaceOnUse">
<stop stop-color="#484B4F"/>
<stop offset="0.374" stop-color="#656D75"/>
<stop offset="0.597" stop-color="#727D86"/>
<stop offset="0.604" stop-color="#86949E"/>
</linearGradient>
<radialGradient id="paint5_radial_206_9360" cx="0" cy="0" r="1" gradientUnits="userSpaceOnUse" gradientTransform="translate(21.6995 10.7405) scale(11.7135 11.7135)">
<stop offset="0.323" stop-color="#23D9D6"/>
<stop offset="0.427" stop-color="#23D4D7"/>
<stop offset="0.542" stop-color="#21C7DC"/>
<stop offset="0.664" stop-color="#1FB0E2"/>
<stop offset="0.789" stop-color="#1C91EC"/>
<stop offset="0.917" stop-color="#1969F8"/>
<stop offset="0.944" stop-color="#1860FB"/>
</radialGradient>
<linearGradient id="paint6_linear_206_9360" x1="17.5" y1="18.4945" x2="17.5" y2="21.005" gradientUnits="userSpaceOnUse">
<stop stop-color="#484B4F"/>
<stop offset="0.374" stop-color="#656D75"/>
<stop offset="0.597" stop-color="#727D86"/>
<stop offset="0.604" stop-color="#86949E"/>
</linearGradient>
<radialGradient id="paint7_radial_206_9360" cx="0" cy="0" r="1" gradientUnits="userSpaceOnUse" gradientTransform="translate(21.6995 20.7405) scale(11.7135 11.7135)">
<stop offset="0.323" stop-color="#23D9D6"/>
<stop offset="0.427" stop-color="#23D4D7"/>
<stop offset="0.542" stop-color="#21C7DC"/>
<stop offset="0.664" stop-color="#1FB0E2"/>
<stop offset="0.789" stop-color="#1C91EC"/>
<stop offset="0.917" stop-color="#1969F8"/>
<stop offset="0.944" stop-color="#1860FB"/>
</radialGradient>
</defs>
</svg>
