<svg width="24" height="24" viewBox="0 0 24 24" fill="none" xmlns="http://www.w3.org/2000/svg">
<g id="thumbs-up">
<path id="Vector" d="M6.5 7H2.5C1.9475 7 1.5 7.4475 1.5 8V20C1.5 20.5525 1.9475 21 2.5 21H6.5V7Z" fill="url(#paint0_linear_206_9383)"/>
<path id="Vector_2" d="M20.999 7H13.5L14 5C14 5 15.5 4 15.5 2C15.5 0.8955 14.6045 0 13.5 0L6.5 7V21H18.8565C19.7995 21 20.6145 20.341 20.812 19.419L22.955 9.419C23.2215 8.174 22.2725 7 20.999 7Z" fill="url(#paint1_linear_206_9383)"/>
</g>
<defs>
<linearGradient id="paint0_linear_206_9383" x1="2.312" y1="6.945" x2="5.6525" y2="20.0425" gradientUnits="userSpaceOnUse">
<stop stop-color="#0077D2"/>
<stop offset="1" stop-color="#0B59A2"/>
</linearGradient>
<linearGradient id="paint1_linear_206_9383" x1="9.022" y1="0.7685" x2="17.4655" y2="21.4575" gradientUnits="userSpaceOnUse">
<stop stop-color="#FFCF54"/>
<stop offset="0.261" stop-color="#FDCB4D"/>
<stop offset="0.639" stop-color="#F7C13A"/>
<stop offset="1" stop-color="#F0B421"/>
</linearGradient>
</defs>
</svg>
