<svg width="24" height="24" viewBox="0 0 24 24" fill="none" xmlns="http://www.w3.org/2000/svg">
<g id="ticket-booth">
<path id="Vector" d="M16.5 3.5H7.5V22H16.5V3.5Z" fill="url(#paint0_linear_206_9386)"/>
<path id="Vector_2" d="M7.5 3.5H5V22H7.5V3.5Z" fill="url(#paint1_linear_206_9386)"/>
<path id="Vector_3" d="M19 3.5H16.5V22H19V3.5Z" fill="url(#paint2_linear_206_9386)"/>
<path id="Vector_4" d="M15.5 5.5H8.5V12.5H15.5V5.5Z" fill="url(#paint3_linear_206_9386)"/>
<path id="Vector_5" d="M7.5 5.5H5V12.5H7.5V5.5Z" fill="#45D5ED"/>
<path id="Vector_6" d="M19 5.5H16.5V12.5H19V5.5Z" fill="#45D5ED"/>
<path id="Vector_7" d="M19 3.5H5C4.44772 3.5 4 3.94772 4 4.5C4 5.05228 4.44772 5.5 5 5.5H19C19.5523 5.5 20 5.05228 20 4.5C20 3.94772 19.5523 3.5 19 3.5Z" fill="url(#paint4_linear_206_9386)"/>
<path id="Vector_8" d="M16.5 3.5625C16 2.75 14.25 2 12 2C9.75 2 8 2.75 7.5 3.5625C7.04773 4.29744 9.51472 5.125 12 5.125C14.4853 5.125 16.9523 4.29744 16.5 3.5625Z" fill="url(#paint5_linear_206_9386)"/>
<path id="Vector_9" d="M12 10C12.3978 10 12.7794 10.158 13.0607 10.4393C13.342 10.7206 13.5 11.1022 13.5 11.5V12.5H10.5V11.5C10.5 11.1022 10.658 10.7206 10.9393 10.4393C11.2206 10.158 11.6022 10 12 10Z" fill="url(#paint6_linear_206_9386)"/>
<path id="Vector_10" opacity="0.05" d="M13.8 15.5C13.853 15.5001 13.9038 15.5213 13.9412 15.5587C13.9787 15.5962 13.9998 15.647 14 15.7V16.5C13.8674 16.5 13.7402 16.5527 13.6464 16.6464C13.5527 16.7402 13.5 16.8674 13.5 17C13.5 17.1326 13.5527 17.2598 13.6464 17.3536C13.7402 17.4473 13.8674 17.5 14 17.5V18.3C13.9999 18.353 13.9787 18.4038 13.9413 18.4413C13.9038 18.4787 13.853 18.4999 13.8 18.5H10.2C10.1737 18.5 10.1477 18.4948 10.1235 18.4848C10.0992 18.4747 10.0771 18.46 10.0586 18.4414C10.04 18.4229 10.0252 18.4008 10.0152 18.3765C10.0052 18.3523 9.99999 18.3263 10 18.3V17.5C10.1326 17.5 10.2598 17.4473 10.3536 17.3536C10.4473 17.2598 10.5 17.1326 10.5 17C10.5 16.8674 10.4473 16.7402 10.3536 16.6464C10.2598 16.5527 10.1326 16.5 10 16.5V15.7C9.99999 15.6737 10.0052 15.6477 10.0152 15.6234C10.0253 15.5991 10.04 15.5771 10.0586 15.5585C10.0771 15.54 10.0992 15.5252 10.1235 15.5152C10.1477 15.5052 10.1737 15.5 10.2 15.5H13.8ZM13.8 15H10.2C10.0144 15.0002 9.83649 15.074 9.70526 15.2052C9.57403 15.3364 9.50021 15.5144 9.5 15.7V18.3C9.50021 18.4856 9.57403 18.6635 9.70526 18.7947C9.83649 18.926 10.0144 18.9998 10.2 19H13.8C13.9856 18.9998 14.1635 18.926 14.2947 18.7947C14.426 18.6635 14.4998 18.4856 14.5 18.3V17V15.7C14.4998 15.5144 14.426 15.3364 14.2947 15.2052C14.1635 15.074 13.9856 15.0002 13.8 15Z" fill="black"/>
<path id="Vector_11" opacity="0.07" d="M13.8 15.5C13.853 15.5001 13.9038 15.5213 13.9412 15.5587C13.9787 15.5962 13.9998 15.647 14 15.7V16.5C13.8674 16.5 13.7402 16.5527 13.6464 16.6464C13.5527 16.7402 13.5 16.8674 13.5 17C13.5 17.1326 13.5527 17.2598 13.6464 17.3536C13.7402 17.4473 13.8674 17.5 14 17.5V18.3C13.9999 18.353 13.9787 18.4038 13.9413 18.4413C13.9038 18.4787 13.853 18.4999 13.8 18.5H10.2C10.1737 18.5 10.1477 18.4948 10.1235 18.4848C10.0992 18.4747 10.0771 18.46 10.0586 18.4414C10.04 18.4229 10.0252 18.4008 10.0152 18.3765C10.0052 18.3523 9.99999 18.3263 10 18.3V17.5C10.1326 17.5 10.2598 17.4473 10.3536 17.3536C10.4473 17.2598 10.5 17.1326 10.5 17C10.5 16.8674 10.4473 16.7402 10.3536 16.6464C10.2598 16.5527 10.1326 16.5 10 16.5V15.7C9.99999 15.6737 10.0052 15.6477 10.0152 15.6234C10.0253 15.5991 10.04 15.5771 10.0586 15.5585C10.0771 15.54 10.0992 15.5252 10.1235 15.5152C10.1477 15.5052 10.1737 15.5 10.2 15.5H13.8ZM13.8 15.25H10.2C10.0807 15.2501 9.96633 15.2976 9.88197 15.3819C9.7976 15.4663 9.75015 15.5807 9.75 15.7V16.75H10C10.0663 16.75 10.1299 16.7763 10.1768 16.8232C10.2237 16.8701 10.25 16.9337 10.25 17C10.25 17.0663 10.2237 17.1299 10.1768 17.1768C10.1299 17.2237 10.0663 17.25 10 17.25H9.75V18.3C9.75014 18.4193 9.7976 18.5337 9.88196 18.618C9.96632 18.7024 10.0807 18.7499 10.2 18.75H13.8C13.9193 18.7499 14.0337 18.7024 14.118 18.618C14.2024 18.5337 14.2499 18.4193 14.25 18.3V17.25H14C13.9337 17.25 13.8701 17.2237 13.8232 17.1768C13.7763 17.1299 13.75 17.0663 13.75 17C13.75 16.9337 13.7763 16.8701 13.8232 16.8232C13.8701 16.7763 13.9337 16.75 14 16.75H14.25V15.7C14.2499 15.5807 14.2024 15.4663 14.118 15.3819C14.0337 15.2976 13.9193 15.2501 13.8 15.25Z" fill="black"/>
<path id="Vector_12" d="M13.5 17C13.5 16.8674 13.5527 16.7402 13.6464 16.6464C13.7402 16.5527 13.8674 16.5 14 16.5V15.7C13.9998 15.647 13.9787 15.5962 13.9412 15.5587C13.9038 15.5213 13.853 15.5001 13.8 15.5H10.2C10.1737 15.5 10.1477 15.5052 10.1235 15.5152C10.0992 15.5252 10.0771 15.54 10.0586 15.5585C10.04 15.5771 10.0253 15.5991 10.0152 15.6234C10.0052 15.6477 9.99999 15.6737 10 15.7V16.5C10.1326 16.5 10.2598 16.5527 10.3536 16.6464C10.4473 16.7402 10.5 16.8674 10.5 17C10.5 17.1326 10.4473 17.2598 10.3536 17.3536C10.2598 17.4473 10.1326 17.5 10 17.5V18.3C9.99999 18.3263 10.0052 18.3523 10.0152 18.3765C10.0252 18.4008 10.04 18.4229 10.0586 18.4414C10.0771 18.46 10.0992 18.4747 10.1235 18.4848C10.1477 18.4948 10.1737 18.5 10.2 18.5H13.8C13.853 18.4999 13.9038 18.4787 13.9413 18.4413C13.9787 18.4038 13.9999 18.353 14 18.3V17.5C13.8674 17.5 13.7402 17.4473 13.6464 17.3536C13.5527 17.2598 13.5 17.1326 13.5 17Z" fill="white"/>
</g>
<defs>
<linearGradient id="paint0_linear_206_9386" x1="7.4945" y1="0.3715" x2="17.92" y2="29.0145" gradientUnits="userSpaceOnUse">
<stop stop-color="#32BDEF"/>
<stop offset="1" stop-color="#1EA2E4"/>
</linearGradient>
<linearGradient id="paint1_linear_206_9386" x1="5" y1="12.75" x2="7.5" y2="12.75" gradientUnits="userSpaceOnUse">
<stop stop-color="#3079D6"/>
<stop offset="1" stop-color="#297CD2"/>
</linearGradient>
<linearGradient id="paint2_linear_206_9386" x1="16.5" y1="1.04711e-07" x2="19" y2="1.04711e-07" gradientUnits="userSpaceOnUse">
<stop stop-color="#3079D6"/>
<stop offset="1" stop-color="#297CD2"/>
</linearGradient>
<linearGradient id="paint3_linear_206_9386" x1="10.707" y1="5.60747" x2="14.1684" y2="12.2813" gradientUnits="userSpaceOnUse">
<stop stop-color="#7DD8F3"/>
<stop offset="1" stop-color="#45B0D0"/>
</linearGradient>
<linearGradient id="paint4_linear_206_9386" x1="9.497" y1="-2.3765" x2="25.722" y2="42.2015" gradientUnits="userSpaceOnUse">
<stop stop-color="#32BDEF"/>
<stop offset="1" stop-color="#1EA2E4"/>
</linearGradient>
<linearGradient id="paint5_linear_206_9386" x1="10.4335" y1="-0.5615" x2="22.862" y2="33.5865" gradientUnits="userSpaceOnUse">
<stop stop-color="#32BDEF"/>
<stop offset="1" stop-color="#1EA2E4"/>
</linearGradient>
<linearGradient id="paint6_linear_206_9386" x1="10.5" y1="11.25" x2="13.5" y2="11.25" gradientUnits="userSpaceOnUse">
<stop stop-color="#3079D6"/>
<stop offset="1" stop-color="#297CD2"/>
</linearGradient>
</defs>
</svg>
