<svg width="24" height="24" viewBox="0 0 24 24" fill="none" xmlns="http://www.w3.org/2000/svg">
<g id="tiktok">
<path id="Vector" fill-rule="evenodd" clip-rule="evenodd" d="M20.002 20.9845L4.0155 21C3.466 21.0005 3.016 20.5515 3.0155 20.002L3 4.0155C2.9995 3.466 3.4485 3.016 3.998 3.0155L19.9845 3C20.534 2.9995 20.984 3.4485 20.9845 3.998L21 19.9845C21.0005 20.534 20.5515 20.984 20.002 20.9845Z" fill="url(#paint0_linear_206_9399)"/>
<path id="Vector_2" fill-rule="evenodd" clip-rule="evenodd" d="M14.604 10.3035C15.392 10.8665 16.3575 11.1975 17.4 11.1975V9.19199C17.2025 9.19199 17.006 9.17149 16.813 9.13049V10.709C15.7705 10.709 14.8055 10.3775 14.017 9.81499V13.907C14.017 15.954 12.3565 17.6135 10.3085 17.6135C9.5445 17.6135 8.834 17.3825 8.244 16.9865C8.9175 17.6745 9.8565 18.1015 10.8955 18.1015C12.9435 18.1015 14.604 16.442 14.604 14.395V10.3035ZM15.3285 8.28049C14.926 7.84099 14.6615 7.27249 14.604 6.64399V6.38599H14.0475C14.1875 7.18449 14.6655 7.86699 15.3285 8.28049ZM9.5395 15.416C9.3145 15.121 9.193 14.7605 9.1935 14.3895C9.1935 13.453 9.953 12.694 10.89 12.694C11.0645 12.694 11.238 12.7205 11.4045 12.7735V10.7235C11.21 10.697 11.014 10.6855 10.8175 10.6895V12.285C10.651 12.232 10.4775 12.2055 10.3025 12.2055C9.3655 12.2055 8.606 12.9645 8.606 13.901C8.6065 14.5635 8.986 15.137 9.5395 15.416Z" fill="#EC407A"/>
<path id="Vector_3" fill-rule="evenodd" clip-rule="evenodd" d="M14.017 9.81499C14.805 10.378 15.7705 10.709 16.813 10.709V9.13049C16.231 9.00649 15.716 8.70249 15.3285 8.27999C14.6655 7.86649 14.188 7.18449 14.048 6.38599H12.5865V14.395C12.583 15.3285 11.825 16.0845 10.89 16.0845C10.339 16.0845 9.8495 15.822 9.5395 15.4155C8.986 15.1365 8.6065 14.563 8.6065 13.901C8.6065 12.9645 9.366 12.2055 10.303 12.2055C10.4825 12.2055 10.6555 12.2335 10.818 12.285V10.69C8.806 10.7315 7.188 12.3745 7.188 14.3955C7.188 15.4045 7.591 16.319 8.245 16.987C8.835 17.383 9.5455 17.614 10.3095 17.614C12.3575 17.614 14.018 15.9545 14.018 13.9075L14.017 9.81499Z" fill="white"/>
<path id="Vector_4" fill-rule="evenodd" clip-rule="evenodd" d="M16.813 9.13102V8.70402C16.288 8.70502 15.774 8.55802 15.3285 8.28002C15.7225 8.71152 16.2415 9.00902 16.813 9.13102ZM14.0475 6.38602C14.034 6.30952 14.024 6.23302 14.017 6.15552V5.89752H11.999V13.907C11.996 14.8405 11.2375 15.5965 10.3025 15.5965C10.028 15.5965 9.769 15.5315 9.5395 15.4155C9.8495 15.822 10.339 16.0845 10.89 16.0845C11.825 16.0845 12.583 15.3285 12.5865 14.395V6.38602H14.0475ZM10.8175 10.69V10.2355C10.649 10.2125 10.479 10.201 10.3085 10.201C8.26 10.201 6.6 11.8605 6.6 13.9075C6.6 15.191 7.2525 16.322 8.244 16.987C7.59 16.319 7.187 15.4045 7.187 14.3955C7.187 12.3745 8.8055 10.7315 10.8175 10.69Z" fill="#81D4FA"/>
</g>
<defs>
<linearGradient id="paint0_linear_206_9399" x1="11.9885" y1="3.0795" x2="11.9885" y2="21.023" gradientUnits="userSpaceOnUse">
<stop stop-color="#4C4C4C"/>
<stop offset="1" stop-color="#343434"/>
</linearGradient>
</defs>
</svg>
