<svg width="24" height="24" viewBox="0 0 24 24" fill="none" xmlns="http://www.w3.org/2000/svg">
<g id="timeline-week">
<path id="Vector" d="M3 20V6H21V20C21 20.55 20.55 21 20 21H4C3.45 21 3 20.55 3 20Z" fill="url(#paint0_linear_206_9444)"/>
<path id="Vector_2" d="M21 4V7H3V4C3 3.45 3.45 3 4 3H20C20.55 3 21 3.45 21 4Z" fill="url(#paint1_linear_206_9444)"/>
<path id="Vector_3" opacity="0.05" d="M17.75 6.25C16.9215 6.25 16.25 5.5785 16.25 4.75V3H19.25V4.75C19.25 5.5785 18.5785 6.25 17.75 6.25Z" fill="black"/>
<path id="Vector_4" opacity="0.07" d="M17.75 5.875C17.1285 5.875 16.625 5.3715 16.625 4.75V3H18.875V4.75C18.875 5.3715 18.3715 5.875 17.75 5.875Z" fill="black"/>
<path id="Vector_5" opacity="0.05" d="M6.25 6.25C5.4215 6.25 4.75 5.5785 4.75 4.75V3H7.75V4.75C7.75 5.5785 7.0785 6.25 6.25 6.25Z" fill="black"/>
<path id="Vector_6" opacity="0.07" d="M6.25 5.875C5.6285 5.875 5.125 5.3715 5.125 4.75V3H7.375V4.75C7.375 5.3715 6.8715 5.875 6.25 5.875Z" fill="black"/>
<path id="Vector_7" d="M6.25 5.5C5.836 5.5 5.5 5.164 5.5 4.75V2.75C5.5 2.336 5.836 2 6.25 2C6.664 2 7 2.336 7 2.75V4.75C7 5.164 6.664 5.5 6.25 5.5Z" fill="#3CCBF4"/>
<path id="Vector_8" d="M11 9.75V11.25C11 11.388 10.888 11.5 10.75 11.5H5.25C5.112 11.5 5 11.388 5 11.25V9.75C5 9.612 5.112 9.5 5.25 9.5H10.75C10.888 9.5 11 9.612 11 9.75Z" fill="#33C481"/>
<path id="Vector_9" d="M15 16.75V18.25C15 18.388 14.888 18.5 14.75 18.5H5.25C5.112 18.5 5 18.388 5 18.25V16.75C5 16.612 5.112 16.5 5.25 16.5H14.75C14.888 16.5 15 16.612 15 16.75Z" fill="url(#paint2_linear_206_9444)"/>
<path id="Vector_10" d="M19 13.25V14.75C19 14.888 18.888 15 18.75 15H9.25C9.112 15 9 14.888 9 14.75V13.25C9 13.112 9.112 13 9.25 13H18.75C18.888 13 19 13.112 19 13.25Z" fill="#21A366"/>
<path id="Vector_11" d="M17.75 5.5C17.336 5.5 17 5.164 17 4.75V2.75C17 2.336 17.336 2 17.75 2C18.164 2 18.5 2.336 18.5 2.75V4.75C18.5 5.164 18.164 5.5 17.75 5.5Z" fill="#3CCBF4"/>
</g>
<defs>
<linearGradient id="paint0_linear_206_9444" x1="12" y1="6.0315" x2="12" y2="21.0315" gradientUnits="userSpaceOnUse">
<stop stop-color="#F0F0F0"/>
<stop offset="1" stop-color="#BBC1C4"/>
</linearGradient>
<linearGradient id="paint1_linear_206_9444" x1="3.21" y1="3.304" x2="20.599" y2="6.84" gradientUnits="userSpaceOnUse">
<stop stop-color="#0077D2"/>
<stop offset="1" stop-color="#0B59A2"/>
</linearGradient>
<linearGradient id="paint2_linear_206_9444" x1="6.4645" y1="16.7929" x2="7.00842" y2="19.5125" gradientUnits="userSpaceOnUse">
<stop stop-color="#21AD64"/>
<stop offset="1" stop-color="#088242"/>
</linearGradient>
</defs>
</svg>
