<svg width="24" height="24" viewBox="0 0 24 24" fill="none" xmlns="http://www.w3.org/2000/svg">
<g id="time-card">
<path id="Vector" d="M20 21.5H4C3.45 21.5 3 21.05 3 20.5V9C3 8.45 3.45 8 4 8H20C20.55 8 21 8.45 21 9V20.5C21 21.05 20.55 21.5 20 21.5Z" fill="url(#paint0_linear_206_9404)"/>
<path id="Vector_2" d="M18.5 9H5.5C5.224 9 5 8.776 5 8.5V8H19V8.5C19 8.776 18.776 9 18.5 9Z" fill="#586067"/>
<path id="Vector_3" d="M18 3.5V9H6V3.5C6 2.9475 6.4475 2.5 7 2.5H17C17.5525 2.5 18 2.9475 18 3.5Z" fill="url(#paint1_linear_206_9404)"/>
<path id="Vector_4" d="M12 20.5C15.0376 20.5 17.5 18.0376 17.5 15C17.5 11.9624 15.0376 9.5 12 9.5C8.96243 9.5 6.5 11.9624 6.5 15C6.5 18.0376 8.96243 20.5 12 20.5Z" fill="url(#paint2_radial_206_9404)"/>
<path id="Vector_5" d="M12 19.889C14.7001 19.889 16.889 17.7001 16.889 15C16.889 12.2999 14.7001 10.111 12 10.111C9.29988 10.111 7.111 12.2999 7.111 15C7.111 17.7001 9.29988 19.889 12 19.889Z" fill="url(#paint3_radial_206_9404)"/>
<path id="Vector_6" d="M13.784 18.4635C13.6715 18.5215 13.5335 18.477 13.4755 18.3645L11.7965 15.105C11.7385 14.9925 11.783 14.8545 11.8955 14.7965C12.008 14.7385 12.146 14.783 12.204 14.8955L13.883 18.155C13.9405 18.2675 13.8965 18.4055 13.784 18.4635Z" fill="#D83B01"/>
<path id="Vector_7" d="M12 15.229C11.941 15.229 11.8825 15.2065 11.838 15.162C11.7485 15.0725 11.7485 14.9275 11.838 14.838L14.4305 12.2455C14.52 12.156 14.665 12.156 14.7545 12.2455C14.844 12.335 14.844 12.48 14.7545 12.5695L12.162 15.162C12.1175 15.207 12.059 15.229 12 15.229Z" fill="#45494D"/>
<path id="Vector_8" d="M11.9995 15.382C11.944 15.382 11.888 15.37 11.8345 15.3445L9.455 14.203C9.265 14.1115 9.1845 13.8835 9.276 13.6935C9.3675 13.5035 9.5955 13.423 9.7855 13.5145L12.165 14.656C12.355 14.7475 12.4355 14.9755 12.344 15.1655C12.2785 15.302 12.142 15.382 11.9995 15.382Z" fill="#45494D"/>
<path id="Vector_9" d="M12 15.611C12.3374 15.611 12.611 15.3374 12.611 15C12.611 14.6625 12.3374 14.389 12 14.389C11.6626 14.389 11.389 14.6625 11.389 15C11.389 15.3374 11.6626 15.611 12 15.611Z" fill="#1E2021"/>
<path id="Vector_10" d="M15 7H11C10.724 7 10.5 7.224 10.5 7.5C10.5 7.776 10.724 8 11 8H15C15.276 8 15.5 7.776 15.5 7.5C15.5 7.224 15.276 7 15 7Z" fill="#057093"/>
<path id="Vector_11" d="M9 8C9.27614 8 9.5 7.77614 9.5 7.5C9.5 7.22386 9.27614 7 9 7C8.72386 7 8.5 7.22386 8.5 7.5C8.5 7.77614 8.72386 8 9 8Z" fill="#057093"/>
<path id="Vector_12" d="M15 5H11C10.724 5 10.5 5.224 10.5 5.5C10.5 5.776 10.724 6 11 6H15C15.276 6 15.5 5.776 15.5 5.5C15.5 5.224 15.276 5 15 5Z" fill="#057093"/>
<path id="Vector_13" d="M9 6C9.27614 6 9.5 5.77614 9.5 5.5C9.5 5.22386 9.27614 5 9 5C8.72386 5 8.5 5.22386 8.5 5.5C8.5 5.77614 8.72386 6 9 6Z" fill="#057093"/>
</g>
<defs>
<linearGradient id="paint0_linear_206_9404" x1="11.5325" y1="8.3845" x2="12.5235" y2="21.8815" gradientUnits="userSpaceOnUse">
<stop stop-color="#889097"/>
<stop offset="1" stop-color="#64717C"/>
</linearGradient>
<linearGradient id="paint1_linear_206_9404" x1="9.78343" y1="2.59979" x2="11.8312" y2="9.88871" gradientUnits="userSpaceOnUse">
<stop stop-color="#7DD8F3"/>
<stop offset="1" stop-color="#45B0D0"/>
</linearGradient>
<radialGradient id="paint2_radial_206_9404" cx="0" cy="0" r="1" gradientUnits="userSpaceOnUse" gradientTransform="translate(12 15) scale(5.5)">
<stop/>
<stop offset="1" stop-opacity="0"/>
</radialGradient>
<radialGradient id="paint3_radial_206_9404" cx="0" cy="0" r="1" gradientUnits="userSpaceOnUse" gradientTransform="translate(11.9685 10.2245) scale(10.8945)">
<stop stop-color="#FAFAFB"/>
<stop offset="1" stop-color="#C8CDD1"/>
</radialGradient>
</defs>
</svg>
