<svg width="24" height="24" viewBox="0 0 24 24" fill="none" xmlns="http://www.w3.org/2000/svg">
<g id="timetable">
<path id="Vector" d="M3 20V6H21V20C20.9985 20.5515 20.5515 20.9985 20 21H4C3.4485 20.9985 3.0015 20.5515 3 20Z" fill="url(#paint0_linear_206_9480)"/>
<path id="Vector_2" d="M21 4V7H3V4C3.0015 3.4485 3.4485 3.0015 4 3H20C20.5515 3.0015 20.9985 3.4485 21 4Z" fill="url(#paint1_linear_206_9480)"/>
<path id="Vector_3" opacity="0.05" d="M17.75 6.25C16.9215 6.25 16.25 5.5785 16.25 4.75V3H19.25V4.75C19.25 5.5785 18.5785 6.25 17.75 6.25Z" fill="black"/>
<path id="Vector_4" opacity="0.07" d="M17.75 5.875C17.129 5.875 16.625 5.3715 16.625 4.7505V4.75V3H18.875V4.75C18.875 5.371 18.3715 5.875 17.75 5.875C17.7505 5.875 17.75 5.875 17.75 5.875Z" fill="black"/>
<path id="Vector_5" opacity="0.05" d="M6.25 6.25C5.4215 6.25 4.75 5.5785 4.75 4.75V3H7.75V4.75C7.75 5.5785 7.0785 6.25 6.25 6.25Z" fill="black"/>
<path id="Vector_6" opacity="0.07" d="M6.25 5.875C5.629 5.875 5.125 5.3715 5.125 4.7505V4.75V3H7.375V4.75C7.375 5.371 6.8715 5.875 6.25 5.875C6.2505 5.875 6.25 5.875 6.25 5.875Z" fill="black"/>
<path id="Vector_7" d="M6.25 5.5C5.836 5.5 5.5 5.164 5.5 4.75V2.75C5.5 2.336 5.836 2 6.25 2C6.664 2 7 2.336 7 2.75V4.75C7 5.164 6.664 5.5 6.25 5.5Z" fill="#3CCBF4"/>
<path id="Vector_8" d="M17.25 9.5H18.75C18.888 9.5 19 9.612 19 9.75V11.25C19 11.388 18.888 11.5 18.75 11.5H17.25C17.112 11.5 17 11.388 17 11.25V9.75C17 9.612 17.112 9.5 17.25 9.5Z" fill="#E52030"/>
<path id="Vector_9" d="M17.25 16.5H18.75C18.888 16.5 19 16.612 19 16.75V18.25C19 18.388 18.888 18.5 18.75 18.5H17.25C17.112 18.5 17 18.388 17 18.25V16.75C17 16.612 17.112 16.5 17.25 16.5Z" fill="white"/>
<path id="Vector_10" d="M13.25 9.5H14.75C14.888 9.5 15 9.612 15 9.75V11.25C15 11.388 14.888 11.5 14.75 11.5H13.25C13.112 11.5 13 11.388 13 11.25V9.75C13 9.612 13.112 9.5 13.25 9.5Z" fill="#E52030"/>
<path id="Vector_11" d="M9.25 9.5H10.75C10.888 9.5 11 9.612 11 9.75V11.25C11 11.388 10.888 11.5 10.75 11.5H9.25C9.112 11.5 9 11.388 9 11.25V9.75C9 9.612 9.112 9.5 9.25 9.5Z" fill="#E52030"/>
<path id="Vector_12" d="M5.25 9.5H6.75C6.888 9.5 7 9.612 7 9.75V11.25C7 11.388 6.888 11.5 6.75 11.5H5.25C5.112 11.5 5 11.388 5 11.25V9.75C5 9.612 5.112 9.5 5.25 9.5Z" fill="#E52030"/>
<path id="Vector_13" d="M13.25 13H14.75C14.888 13 15 13.112 15 13.25V14.75C15 14.888 14.888 15 14.75 15H13.25C13.112 15 13 14.888 13 14.75V13.25C13 13.112 13.112 13 13.25 13Z" fill="white"/>
<path id="Vector_14" d="M13.25 16.5H14.75C14.888 16.5 15 16.612 15 16.75V18.25C15 18.388 14.888 18.5 14.75 18.5H13.25C13.112 18.5 13 18.388 13 18.25V16.75C13 16.612 13.112 16.5 13.25 16.5Z" fill="white"/>
<path id="Vector_15" d="M17.25 13H18.75C18.888 13 19 13.112 19 13.25V14.75C19 14.888 18.888 15 18.75 15H17.25C17.112 15 17 14.888 17 14.75V13.25C17 13.112 17.112 13 17.25 13Z" fill="white"/>
<path id="Vector_16" d="M9.25 13H10.75C10.888 13 11 13.112 11 13.25V14.75C11 14.888 10.888 15 10.75 15H9.25C9.112 15 9 14.888 9 14.75V13.25C9 13.112 9.112 13 9.25 13Z" fill="white"/>
<path id="Vector_17" d="M5.25 13H6.75C6.888 13 7 13.112 7 13.25V14.75C7 14.888 6.888 15 6.75 15H5.25C5.112 15 5 14.888 5 14.75V13.25C5 13.112 5.112 13 5.25 13Z" fill="white"/>
<path id="Vector_18" d="M9.25 16.5H10.75C10.888 16.5 11 16.612 11 16.75V18.25C11 18.388 10.888 18.5 10.75 18.5H9.25C9.112 18.5 9 18.388 9 18.25V16.75C9 16.612 9.112 16.5 9.25 16.5Z" fill="white"/>
<path id="Vector_19" d="M5.25 16.5H6.75C6.888 16.5 7 16.612 7 16.75V18.25C7 18.388 6.888 18.5 6.75 18.5H5.25C5.112 18.5 5 18.388 5 18.25V16.75C5 16.612 5.112 16.5 5.25 16.5Z" fill="white"/>
<path id="Vector_20" d="M17.75 5.5C17.336 5.5 17 5.164 17 4.75V2.75C17 2.336 17.336 2 17.75 2C18.164 2 18.5 2.336 18.5 2.75V4.75C18.5 5.164 18.164 5.5 17.75 5.5Z" fill="#3CCBF4"/>
<path id="Vector_21" opacity="0.2" d="M20.111 21C20.6015 20.9985 20.9985 20.6015 21 20.111V13.393C20.3495 13.145 19.6485 13 18.911 13C15.6465 13 13 15.6465 13 18.911C13 19.6485 13.145 20.3495 13.393 21H20.111Z" fill="url(#paint2_radial_206_9480)"/>
<path id="Vector_22" d="M19 24C21.7614 24 24 21.7614 24 19C24 16.2386 21.7614 14 19 14C16.2386 14 14 16.2386 14 19C14 21.7614 16.2386 24 19 24Z" fill="url(#paint3_linear_206_9480)"/>
<path id="Vector_23" d="M19 23C21.2091 23 23 21.2091 23 19C23 16.7909 21.2091 15 19 15C16.7909 15 15 16.7909 15 19C15 21.2091 16.7909 23 19 23Z" fill="url(#paint4_radial_206_9480)"/>
<path id="Vector_24" d="M20.45 21.85C20.35 21.9 20.25 21.85 20.2 21.75L18.85 19.1C18.8 19 18.85 18.9 18.95 18.85C19.05 18.8 19.15 18.85 19.2 18.95L20.55 21.6C20.6 21.65 20.55 21.8 20.45 21.85Z" fill="#D83B01"/>
<path id="Vector_25" d="M19 19.2C18.95 19.2 18.9 19.2 18.85 19.15C18.8 19.1 18.8 18.95 18.85 18.9L20.95 16.8C21 16.75 21.15 16.75 21.2 16.8C21.25 16.85 21.25 17 21.2 17.05L19.1 19.15C19.1 19.15 19.05 19.2 19 19.2Z" fill="#45494D"/>
<path id="Vector_26" d="M19 19.3C18.95 19.3 18.9 19.3 18.85 19.25L16.9 18.3C16.75 18.25 16.7 18.05 16.75 17.9C16.8 17.75 17 17.7 17.15 17.75L19.1 18.7C19.25 18.75 19.3 18.95 19.25 19.1C19.25 19.25 19.1 19.3 19 19.3Z" fill="#45494D"/>
<path id="Vector_27" d="M19 19.5C19.2761 19.5 19.5 19.2761 19.5 19C19.5 18.7239 19.2761 18.5 19 18.5C18.7239 18.5 18.5 18.7239 18.5 19C18.5 19.2761 18.7239 19.5 19 19.5Z" fill="#1E2021"/>
</g>
<defs>
<linearGradient id="paint0_linear_206_9480" x1="3.207" y1="6.831" x2="20.887" y2="19.744" gradientUnits="userSpaceOnUse">
<stop stop-color="#A8E2F7"/>
<stop offset="1" stop-color="#47C1FF"/>
</linearGradient>
<linearGradient id="paint1_linear_206_9480" x1="3.21" y1="3.304" x2="20.599" y2="6.84" gradientUnits="userSpaceOnUse">
<stop stop-color="#0077D2"/>
<stop offset="1" stop-color="#0B59A2"/>
</linearGradient>
<radialGradient id="paint2_radial_206_9480" cx="0" cy="0" r="1" gradientUnits="userSpaceOnUse" gradientTransform="translate(18.796 18.844) scale(5.617)">
<stop offset="0.847"/>
<stop offset="1" stop-opacity="0"/>
</radialGradient>
<linearGradient id="paint3_linear_206_9480" x1="15.4645" y1="15.4645" x2="22.5355" y2="22.5355" gradientUnits="userSpaceOnUse">
<stop stop-color="#889097"/>
<stop offset="1" stop-color="#64717C"/>
</linearGradient>
<radialGradient id="paint4_radial_206_9480" cx="0" cy="0" r="1" gradientUnits="userSpaceOnUse" gradientTransform="translate(18.974 15.093) scale(8.914)">
<stop stop-color="#FAFAFB"/>
<stop offset="1" stop-color="#C8CDD1"/>
</radialGradient>
</defs>
</svg>
