<svg width="24" height="24" viewBox="0 0 24 24" fill="none" xmlns="http://www.w3.org/2000/svg">
<g id="timeline">
<path id="Vector" d="M5 2.5H4V21.5H5V2.5Z" fill="#64717C"/>
<path id="Vector_2" d="M4.5 3C4.77614 3 5 2.77614 5 2.5C5 2.22386 4.77614 2 4.5 2C4.22386 2 4 2.22386 4 2.5C4 2.77614 4.22386 3 4.5 3Z" fill="#64717C"/>
<path id="Vector_3" d="M4.5 22C4.77614 22 5 21.7761 5 21.5C5 21.2239 4.77614 21 4.5 21C4.22386 21 4 21.2239 4 21.5C4 21.7761 4.22386 22 4.5 22Z" fill="#64717C"/>
<path id="Vector_4" d="M4.5 6.5C5.32843 6.5 6 5.82843 6 5C6 4.17157 5.32843 3.5 4.5 3.5C3.67157 3.5 3 4.17157 3 5C3 5.82843 3.67157 6.5 4.5 6.5Z" fill="#ABB4BE"/>
<path id="Vector_5" d="M4.5 13.5C5.32843 13.5 6 12.8284 6 12C6 11.1716 5.32843 10.5 4.5 10.5C3.67157 10.5 3 11.1716 3 12C3 12.8284 3.67157 13.5 4.5 13.5Z" fill="#ABB4BE"/>
<path id="Vector_6" d="M4.5 20.5C5.32843 20.5 6 19.8284 6 19C6 18.1716 5.32843 17.5 4.5 17.5C3.67157 17.5 3 18.1716 3 19C3 19.8284 3.67157 20.5 4.5 20.5Z" fill="#ABB4BE"/>
<path id="Vector_7" d="M18 2.5H10C9.867 2.5 9.74 2.5525 9.6465 2.6465L7.6465 4.6465C7.451 4.842 7.451 5.158 7.6465 5.3535L9.6465 7.3535C9.74 7.4475 9.867 7.5 10 7.5H18C18.2765 7.5 18.5 7.276 18.5 7V3C18.5 2.724 18.2765 2.5 18 2.5Z" fill="url(#paint0_linear_206_9434)"/>
<path id="Vector_8" d="M17.5 16.5H10C9.867 16.5 9.74 16.5525 9.6465 16.6465L7.6465 18.6465C7.451 18.842 7.451 19.158 7.6465 19.3535L9.6465 21.3535C9.74 21.4475 9.867 21.5 10 21.5H17.5C17.7765 21.5 18 21.276 18 21V17C18 16.724 17.7765 16.5 17.5 16.5Z" fill="url(#paint1_linear_206_9434)"/>
<path id="Vector_9" d="M21.5 9.5H10C9.867 9.5 9.74 9.5525 9.6465 9.6465L7.6465 11.6465C7.451 11.842 7.451 12.158 7.6465 12.3535L9.6465 14.3535C9.74 14.4475 9.867 14.5 10 14.5H21.5C21.7765 14.5 22 14.276 22 14V10C22 9.724 21.7765 9.5 21.5 9.5Z" fill="#0078D4"/>
</g>
<defs>
<linearGradient id="paint0_linear_206_9434" x1="10.9681" y1="2.57676" x2="12.3191" y2="8.30764" gradientUnits="userSpaceOnUse">
<stop stop-color="#7DD8F3"/>
<stop offset="1" stop-color="#45B0D0"/>
</linearGradient>
<linearGradient id="paint1_linear_206_9434" x1="9.82609" y1="15.7551" x2="11.964" y2="22.3459" gradientUnits="userSpaceOnUse">
<stop stop-color="#FCFCFC"/>
<stop offset="0.95" stop-color="#C3C9CD"/>
</linearGradient>
</defs>
</svg>
