<svg width="24" height="24" viewBox="0 0 24 24" fill="none" xmlns="http://www.w3.org/2000/svg">
<g id="to-do">
<path id="Vector" d="M21.5 7H10C9.725 7 9.5 6.775 9.5 6.5V5.5C9.5 5.225 9.725 5 10 5H21.5C21.775 5 22 5.225 22 5.5V6.5C22 6.775 21.775 7 21.5 7Z" fill="url(#paint0_linear_206_9520)"/>
<path id="Vector_2" d="M3.3805 7.87151L1.6285 6.11951C1.4575 5.94851 1.4575 5.67101 1.6285 5.50001L2.248 4.88051C2.419 4.70951 2.6965 4.70951 2.8675 4.88051L3.6905 5.70351L6.266 3.12801C6.437 2.95701 6.7145 2.95701 6.8855 3.12801L7.505 3.74751C7.676 3.91851 7.676 4.19601 7.505 4.36701L4 7.87151C3.829 8.04301 3.5515 8.04301 3.3805 7.87151Z" fill="#42A4EB"/>
<path id="Vector_3" d="M21.5 13H10C9.725 13 9.5 12.775 9.5 12.5V11.5C9.5 11.225 9.725 11 10 11H21.5C21.775 11 22 11.225 22 11.5V12.5C22 12.775 21.775 13 21.5 13Z" fill="url(#paint1_linear_206_9520)"/>
<path id="Vector_4" d="M3.3805 13.8715L1.6285 12.1195C1.4575 11.9485 1.4575 11.671 1.6285 11.5L2.248 10.8805C2.419 10.7095 2.6965 10.7095 2.8675 10.8805L3.6905 11.7035L6.266 9.12801C6.437 8.95701 6.7145 8.95701 6.8855 9.12801L7.505 9.74751C7.676 9.91851 7.676 10.196 7.505 10.367L4 13.8715C3.829 14.043 3.5515 14.043 3.3805 13.8715Z" fill="#42A4EB"/>
<path id="Vector_5" d="M21.5 19H10C9.725 19 9.5 18.775 9.5 18.5V17.5C9.5 17.225 9.725 17 10 17H21.5C21.775 17 22 17.225 22 17.5V18.5C22 18.775 21.775 19 21.5 19Z" fill="url(#paint2_linear_206_9520)"/>
<path id="Vector_6" d="M3.3805 19.8715L1.6285 18.1195C1.4575 17.9485 1.4575 17.671 1.6285 17.5L2.248 16.8805C2.419 16.7095 2.6965 16.7095 2.8675 16.8805L3.6905 17.7035L6.266 15.128C6.437 14.957 6.7145 14.957 6.8855 15.128L7.505 15.7475C7.676 15.9185 7.676 16.196 7.505 16.367L4 19.8715C3.829 20.043 3.5515 20.043 3.3805 19.8715Z" fill="#42A4EB"/>
</g>
<defs>
<linearGradient id="paint0_linear_206_9520" x1="12.113" y1="2.363" x2="19.069" y2="9.319" gradientUnits="userSpaceOnUse">
<stop stop-color="#1D59B3"/>
<stop offset="1" stop-color="#195BBC"/>
</linearGradient>
<linearGradient id="paint1_linear_206_9520" x1="12.113" y1="8.363" x2="19.069" y2="15.319" gradientUnits="userSpaceOnUse">
<stop stop-color="#1D59B3"/>
<stop offset="1" stop-color="#195BBC"/>
</linearGradient>
<linearGradient id="paint2_linear_206_9520" x1="12.113" y1="14.363" x2="19.069" y2="21.319" gradientUnits="userSpaceOnUse">
<stop stop-color="#1D59B3"/>
<stop offset="1" stop-color="#195BBC"/>
</linearGradient>
</defs>
</svg>
