<svg width="24" height="24" viewBox="0 0 24 24" fill="none" xmlns="http://www.w3.org/2000/svg">
<g id="today">
<path id="Vector" d="M3 20V6H21V20C21 20.55 20.55 21 20 21H4C3.45 21 3 20.55 3 20Z" fill="url(#paint0_linear_206_9508)"/>
<path id="Vector_2" opacity="0.05" d="M16.086 9.08603L11 14.172L8.414 11.586C8.0235 11.1955 7.3905 11.1955 7 11.586L6.293 12.293C5.9025 12.6835 5.9025 13.3165 6.293 13.707L10.293 17.707C10.6835 18.0975 11.3165 18.0975 11.707 17.707L18.207 11.207C18.5975 10.8165 18.5975 10.1835 18.207 9.79303L17.5 9.08603C17.1095 8.69553 16.4765 8.69553 16.086 9.08603Z" fill="black"/>
<path id="Vector_3" opacity="0.07" d="M10.4695 17.5305L6.4695 13.5305C6.1765 13.2375 6.1765 12.7625 6.4695 12.47L7.1765 11.763C7.4695 11.47 7.9445 11.47 8.237 11.763L11 14.5255L16.2625 9.26302C16.5555 8.97002 17.0305 8.97002 17.323 9.26302L18.03 9.97002C18.323 10.263 18.323 10.738 18.03 11.0305L11.53 17.5305C11.2375 17.823 10.7625 17.823 10.4695 17.5305Z" fill="black"/>
<path id="Vector_4" d="M10.6465 17.3535L6.6465 13.3535C6.451 13.158 6.451 12.8415 6.6465 12.6465L7.3535 11.9395C7.549 11.744 7.8655 11.744 8.0605 11.9395L11 14.879L16.4395 9.43947C16.635 9.24397 16.9515 9.24397 17.1465 9.43947L17.8535 10.1465C18.049 10.342 18.049 10.6585 17.8535 10.8535L11.3535 17.3535C11.1585 17.549 10.8415 17.549 10.6465 17.3535Z" fill="white"/>
<path id="Vector_5" d="M21 4V7H3V4C3 3.45 3.45 3 4 3H20C20.55 3 21 3.45 21 4Z" fill="url(#paint1_linear_206_9508)"/>
<path id="Vector_6" opacity="0.05" d="M17.75 6.25C16.9215 6.25 16.25 5.5785 16.25 4.75V3H19.25V4.75C19.25 5.5785 18.5785 6.25 17.75 6.25Z" fill="black"/>
<path id="Vector_7" opacity="0.07" d="M17.75 5.875C17.1285 5.875 16.625 5.3715 16.625 4.75V3H18.875V4.75C18.875 5.3715 18.3715 5.875 17.75 5.875Z" fill="black"/>
<path id="Vector_8" d="M17.75 5.5C17.336 5.5 17 5.164 17 4.75V2.75C17 2.336 17.336 2 17.75 2C18.164 2 18.5 2.336 18.5 2.75V4.75C18.5 5.164 18.164 5.5 17.75 5.5Z" fill="#3CCBF4"/>
<path id="Vector_9" opacity="0.05" d="M6.25 6.25C5.4215 6.25 4.75 5.5785 4.75 4.75V3H7.75V4.75C7.75 5.5785 7.0785 6.25 6.25 6.25Z" fill="black"/>
<path id="Vector_10" opacity="0.07" d="M6.25 5.875C5.6285 5.875 5.125 5.3715 5.125 4.75V3H7.375V4.75C7.375 5.3715 6.8715 5.875 6.25 5.875Z" fill="black"/>
<path id="Vector_11" d="M6.25 5.5C5.836 5.5 5.5 5.164 5.5 4.75V2.75C5.5 2.336 5.836 2 6.25 2C6.664 2 7 2.336 7 2.75V4.75C7 5.164 6.664 5.5 6.25 5.5Z" fill="#3CCBF4"/>
</g>
<defs>
<linearGradient id="paint0_linear_206_9508" x1="3.207" y1="6.831" x2="20.887" y2="19.744" gradientUnits="userSpaceOnUse">
<stop stop-color="#28AFEA"/>
<stop offset="1" stop-color="#047ED6"/>
</linearGradient>
<linearGradient id="paint1_linear_206_9508" x1="3.21" y1="3.304" x2="20.599" y2="6.84" gradientUnits="userSpaceOnUse">
<stop stop-color="#0077D2"/>
<stop offset="1" stop-color="#0B59A2"/>
</linearGradient>
</defs>
</svg>
