<svg width="24" height="24" viewBox="0 0 24 24" fill="none" xmlns="http://www.w3.org/2000/svg">
<g id="toolbox">
<path id="Vector" d="M2 8.5H22V19C22 19.5525 21.5525 20 21 20H3C2.4475 20 2 19.5525 2 19V8.5Z" fill="url(#paint0_linear_206_9538)"/>
<path id="Vector_2" d="M22 8.5V6.914C22 6.649 21.8945 6.3945 21.707 6.207L20.793 5.293C20.6055 5.1055 20.351 5 20.086 5H3.914C3.649 5 3.3945 5.1055 3.207 5.293L2.293 6.207C2.1055 6.3945 2 6.649 2 6.914V8.5H22Z" fill="#EB6773"/>
<path id="Vector_3" d="M15.25 3.5H8.75C8.336 3.5 8 3.836 8 4.25V5H16V4.25C16 3.836 15.664 3.5 15.25 3.5Z" fill="url(#paint1_linear_206_9538)"/>
<path id="Vector_4" opacity="0.018" d="M18.5 10.9545H17.5C16.973 10.9545 16.5455 10.527 16.5455 9.99997V7.99997C16.5455 7.47297 16.973 7.04547 17.5 7.04547H18.5C19.027 7.04547 19.4545 7.47297 19.4545 7.99997V9.99997C19.4545 10.527 19.027 10.9545 18.5 10.9545Z" fill="black"/>
<path id="Vector_5" opacity="0.036" d="M18.5 10.909H17.5C16.998 10.909 16.591 10.502 16.591 10V8C16.591 7.498 16.998 7.091 17.5 7.091H18.5C19.002 7.091 19.409 7.498 19.409 8V10C19.409 10.502 19.002 10.909 18.5 10.909Z" fill="black"/>
<path id="Vector_6" opacity="0.054" d="M18.5 10.8635H17.5C17.023 10.8635 16.6365 10.477 16.6365 9.99997V7.99997C16.6365 7.52297 17.023 7.13647 17.5 7.13647H18.5C18.977 7.13647 19.3635 7.52297 19.3635 7.99997V9.99997C19.3635 10.477 18.977 10.8635 18.5 10.8635Z" fill="black"/>
<path id="Vector_7" opacity="0.073" d="M18.5 10.818H17.5C17.048 10.818 16.682 10.4515 16.682 10V8.00001C16.682 7.54801 17.0485 7.18201 17.5 7.18201H18.5C18.952 7.18201 19.318 7.54851 19.318 8.00001V10C19.318 10.452 18.952 10.818 18.5 10.818Z" fill="black"/>
<path id="Vector_8" opacity="0.091" d="M18.5 10.7725H17.5C17.073 10.7725 16.7275 10.4265 16.7275 9.99998V7.99998C16.7275 7.57298 17.0735 7.22748 17.5 7.22748H18.5C18.927 7.22748 19.2725 7.57348 19.2725 7.99998V9.99998C19.2725 10.427 18.927 10.7725 18.5 10.7725Z" fill="black"/>
<path id="Vector_9" opacity="0.109" d="M18.5 10.7275H17.5C17.0985 10.7275 16.7725 10.402 16.7725 10V8.00002C16.7725 7.59852 17.098 7.27252 17.5 7.27252H18.5C18.9015 7.27252 19.2275 7.59802 19.2275 8.00002V10C19.2275 10.4015 18.9015 10.7275 18.5 10.7275Z" fill="black"/>
<path id="Vector_10" opacity="0.127" d="M18.5 10.682H17.5C17.1235 10.682 16.818 10.3765 16.818 9.99999V7.99999C16.818 7.62349 17.1235 7.31799 17.5 7.31799H18.5C18.8765 7.31799 19.182 7.62349 19.182 7.99999V9.99999C19.182 10.3765 18.8765 10.682 18.5 10.682Z" fill="black"/>
<path id="Vector_11" opacity="0.145" d="M18.5 10.6365H17.5C17.1485 10.6365 16.8635 10.3515 16.8635 10V8.00003C16.8635 7.64853 17.1485 7.36353 17.5 7.36353H18.5C18.8515 7.36353 19.1365 7.64853 19.1365 8.00003V10C19.1365 10.3515 18.8515 10.6365 18.5 10.6365Z" fill="black"/>
<path id="Vector_12" opacity="0.164" d="M18.5 10.591H17.5C17.1735 10.591 16.909 10.3265 16.909 10V8C16.909 7.6735 17.1735 7.409 17.5 7.409H18.5C18.8265 7.409 19.091 7.6735 19.091 8V10C19.091 10.3265 18.8265 10.591 18.5 10.591Z" fill="black"/>
<path id="Vector_13" opacity="0.182" d="M18.5 10.5455H17.5C17.199 10.5455 16.9545 10.3015 16.9545 10V8.00003C16.9545 7.69903 17.1985 7.45453 17.5 7.45453H18.5C18.801 7.45453 19.0455 7.69853 19.0455 8.00003V10C19.0455 10.301 18.801 10.5455 18.5 10.5455Z" fill="black"/>
<path id="Vector_14" opacity="0.2" d="M18.5 10.5H17.5C17.224 10.5 17 10.276 17 10V8C17 7.724 17.224 7.5 17.5 7.5H18.5C18.776 7.5 19 7.724 19 8V10C19 10.276 18.776 10.5 18.5 10.5Z" fill="black"/>
<g id="Group">
<path id="Vector_15" opacity="0.018" d="M6.5 10.9545H5.5C4.973 10.9545 4.5455 10.527 4.5455 9.99997V7.99997C4.5455 7.47297 4.973 7.04547 5.5 7.04547H6.5C7.027 7.04547 7.4545 7.47297 7.4545 7.99997V9.99997C7.4545 10.527 7.027 10.9545 6.5 10.9545Z" fill="black"/>
<path id="Vector_16" opacity="0.036" d="M6.5 10.9089H5.5C4.998 10.9089 4.591 10.5019 4.591 9.99994V7.99994C4.591 7.49794 4.998 7.09094 5.5 7.09094H6.5C7.002 7.09094 7.409 7.49794 7.409 7.99994V9.99994C7.409 10.5019 7.002 10.9089 6.5 10.9089Z" fill="black"/>
<path id="Vector_17" opacity="0.054" d="M6.50001 10.8635H5.50001C5.02301 10.8635 4.63651 10.477 4.63651 9.99997V7.99997C4.63651 7.52297 5.02301 7.13647 5.50001 7.13647H6.50001C6.97701 7.13647 7.36351 7.52297 7.36351 7.99997V9.99997C7.36351 10.477 6.97701 10.8635 6.50001 10.8635Z" fill="black"/>
<path id="Vector_18" opacity="0.073" d="M6.50001 10.8179H5.50001C5.04801 10.8179 4.68201 10.4514 4.68201 9.99995V7.99995C4.68201 7.54795 5.04851 7.18195 5.50001 7.18195H6.50001C6.95201 7.18195 7.31801 7.54845 7.31801 7.99995V9.99995C7.31801 10.4519 6.95201 10.8179 6.50001 10.8179Z" fill="black"/>
<path id="Vector_19" opacity="0.091" d="M6.50001 10.7725H5.50001C5.07301 10.7725 4.72751 10.4265 4.72751 9.99998V7.99998C4.72751 7.57298 5.07351 7.22748 5.50001 7.22748H6.50001C6.92701 7.22748 7.27251 7.57348 7.27251 7.99998V9.99998C7.27251 10.427 6.92701 10.7725 6.50001 10.7725Z" fill="black"/>
<path id="Vector_20" opacity="0.109" d="M6.50001 10.7275H5.50001C5.09851 10.7275 4.77251 10.402 4.77251 9.99996V7.99996C4.77251 7.59846 5.09801 7.27246 5.50001 7.27246H6.50001C6.90151 7.27246 7.22751 7.59796 7.22751 7.99996V9.99996C7.22751 10.4015 6.90151 10.7275 6.50001 10.7275Z" fill="black"/>
<path id="Vector_21" opacity="0.127" d="M6.50001 10.682H5.50001C5.12351 10.682 4.81801 10.3765 4.81801 9.99999V7.99999C4.81801 7.62349 5.12351 7.31799 5.50001 7.31799H6.50001C6.87651 7.31799 7.18201 7.62349 7.18201 7.99999V9.99999C7.18201 10.3765 6.87651 10.682 6.50001 10.682Z" fill="black"/>
<path id="Vector_22" opacity="0.145" d="M6.49999 10.6365H5.49999C5.14849 10.6365 4.86349 10.3515 4.86349 9.99996V7.99996C4.86349 7.64846 5.14849 7.36346 5.49999 7.36346H6.49999C6.85149 7.36346 7.13649 7.64846 7.13649 7.99996V9.99996C7.13649 10.3515 6.85149 10.6365 6.49999 10.6365Z" fill="black"/>
<path id="Vector_23" opacity="0.164" d="M6.5 10.591H5.5C5.1735 10.591 4.909 10.3265 4.909 10V8C4.909 7.6735 5.1735 7.409 5.5 7.409H6.5C6.8265 7.409 7.091 7.6735 7.091 8V10C7.091 10.3265 6.8265 10.591 6.5 10.591Z" fill="black"/>
<path id="Vector_24" opacity="0.182" d="M6.5 10.5455H5.5C5.199 10.5455 4.9545 10.3015 4.9545 9.99997V7.99997C4.9545 7.69897 5.1985 7.45447 5.5 7.45447H6.5C6.801 7.45447 7.0455 7.69847 7.0455 7.99997V9.99997C7.0455 10.301 6.801 10.5455 6.5 10.5455Z" fill="black"/>
<path id="Vector_25" opacity="0.2" d="M6.5 10.5H5.5C5.224 10.5 5 10.276 5 10V8C5 7.724 5.224 7.5 5.5 7.5H6.5C6.776 7.5 7 7.724 7 8V10C7 10.276 6.776 10.5 6.5 10.5Z" fill="black"/>
</g>
<path id="Vector_26" d="M17.5 7.5H18.5C18.776 7.5 19 7.724 19 8V10C19 10.276 18.776 10.5 18.5 10.5H17.5C17.224 10.5 17 10.276 17 10V8C17 7.724 17.224 7.5 17.5 7.5Z" fill="white"/>
<path id="Vector_27" d="M5.5 7.5H6.5C6.776 7.5 7 7.724 7 8V10C7 10.276 6.776 10.5 6.5 10.5H5.5C5.224 10.5 5 10.276 5 10V8C5 7.724 5.224 7.5 5.5 7.5Z" fill="white"/>
</g>
<defs>
<linearGradient id="paint0_linear_206_9538" x1="12" y1="8.5265" x2="12" y2="20.083" gradientUnits="userSpaceOnUse">
<stop offset="0.88" stop-color="#C71926"/>
<stop offset="0.883" stop-color="#B51623"/>
<stop offset="0.886" stop-color="#9C131F"/>
</linearGradient>
<linearGradient id="paint1_linear_206_9538" x1="8" y1="4.25" x2="16" y2="4.25" gradientUnits="userSpaceOnUse">
<stop stop-color="#5E5E5E"/>
<stop offset="1" stop-color="#545454"/>
</linearGradient>
</defs>
</svg>
