<svg width="24" height="24" viewBox="0 0 24 24" fill="none" xmlns="http://www.w3.org/2000/svg">
<g id="top-menu">
<path id="Vector" d="M20 21.5H4C3.4475 21.5 3 21.0525 3 20.5V8.51152C3 8.19052 3.154 7.88902 3.4145 7.70102L11.4145 1.92302C11.764 1.67052 12.236 1.67052 12.5855 1.92302L20.5855 7.70102C20.846 7.88852 21 8.19002 21 8.51152V20.5C21 21.0525 20.5525 21.5 20 21.5Z" fill="url(#paint0_linear_206_9576)"/>
<path id="Vector_2" opacity="0.05" d="M6.47 11.5C5.935 11.5 5.5 11.056 5.5 10.51V9.49C5.5 8.944 5.935 8.5 6.47 8.5H17.53C18.065 8.5 18.5 8.944 18.5 9.49V10.51C18.5 11.056 18.065 11.5 17.53 11.5H6.47Z" fill="black"/>
<path id="Vector_3" opacity="0.07" d="M6.47 11.25C6.073 11.25 5.75 10.918 5.75 10.51V9.49C5.75 9.082 6.073 8.75 6.47 8.75H17.53C17.927 8.75 18.25 9.082 18.25 9.49V10.51C18.25 10.918 17.927 11.25 17.53 11.25H6.47Z" fill="black"/>
<path id="Vector_4" d="M17.5295 11H6.4705C6.2115 11 6 10.7795 6 10.51V9.49C6 9.2205 6.2115 9 6.4705 9H17.5295C17.7885 9 18 9.2205 18 9.49V10.51C18 10.7795 17.7885 11 17.5295 11Z" fill="white"/>
<path id="Vector_5" opacity="0.05" d="M6.47 15.5C5.935 15.5 5.5 15.056 5.5 14.51V13.49C5.5 12.944 5.935 12.5 6.47 12.5H17.53C18.065 12.5 18.5 12.944 18.5 13.49V14.51C18.5 15.056 18.065 15.5 17.53 15.5H6.47Z" fill="black"/>
<path id="Vector_6" opacity="0.07" d="M6.47 15.25C6.073 15.25 5.75 14.918 5.75 14.51V13.49C5.75 13.082 6.073 12.75 6.47 12.75H17.53C17.927 12.75 18.25 13.082 18.25 13.49V14.51C18.25 14.918 17.927 15.25 17.53 15.25H6.47Z" fill="black"/>
<path id="Vector_7" d="M17.5295 15H6.4705C6.2115 15 6 14.7795 6 14.51V13.49C6 13.2205 6.2115 13 6.4705 13H17.5295C17.7885 13 18 13.2205 18 13.49V14.51C18 14.7795 17.7885 15 17.5295 15Z" fill="white"/>
<path id="Vector_8" opacity="0.05" d="M6.47 19.5C5.935 19.5 5.5 19.056 5.5 18.51V17.49C5.5 16.944 5.935 16.5 6.47 16.5H17.53C18.065 16.5 18.5 16.944 18.5 17.49V18.51C18.5 19.056 18.065 19.5 17.53 19.5H6.47Z" fill="black"/>
<path id="Vector_9" opacity="0.07" d="M6.47 19.25C6.073 19.25 5.75 18.918 5.75 18.51V17.49C5.75 17.082 6.073 16.75 6.47 16.75H17.53C17.927 16.75 18.25 17.082 18.25 17.49V18.51C18.25 18.918 17.927 19.25 17.53 19.25H6.47Z" fill="black"/>
<path id="Vector_10" d="M17.5295 19H6.4705C6.2115 19 6 18.7795 6 18.51V17.49C6 17.2205 6.2115 17 6.4705 17H17.5295C17.7885 17 18 17.2205 18 17.49V18.51C18 18.7795 17.7885 19 17.5295 19Z" fill="white"/>
</g>
<defs>
<linearGradient id="paint0_linear_206_9576" x1="0.9175" y1="3.42302" x2="20.1725" y2="22.6785" gradientUnits="userSpaceOnUse">
<stop stop-color="#0077D2"/>
<stop offset="1" stop-color="#0B59A2"/>
</linearGradient>
</defs>
</svg>
