<svg width="24" height="24" viewBox="0 0 24 24" fill="none" xmlns="http://www.w3.org/2000/svg">
<g id="top-view-bird">
<path id="Vector" d="M6.8765 12.0095L1.145 17.741C1.08524 17.8014 1.04187 17.8761 1.01899 17.9579C0.996118 18.0398 0.99449 18.1261 1.01426 18.2088C1.03404 18.2914 1.07456 18.3677 1.132 18.4303C1.18944 18.493 1.2619 18.5399 1.34254 18.5668L2.71972 19.0299C4.29582 19.5633 5.98956 19.6459 7.6101 19.2685C9.23064 18.8911 10.7136 18.0686 11.8918 16.8937L12.1993 16.5862C12.4176 16.3675 12.5817 16.1009 12.6786 15.8076C12.7755 15.5142 12.8025 15.2023 12.7575 14.8967L12.2537 11.4494C12.2333 11.3093 12.1834 11.1752 12.1074 11.0558C12.0314 10.9363 11.931 10.8343 11.8128 10.7564C11.6946 10.6785 11.5613 10.6265 11.4216 10.6038C11.2818 10.5811 11.1389 10.5882 11.0021 10.6246L7.7598 11.4989C7.42575 11.5888 7.12117 11.7649 6.8765 12.0095Z" fill="url(#paint0_linear_206_9587)"/>
<path id="Vector_2" d="M12.0095 6.8765L17.741 1.145C17.8014 1.08524 17.8761 1.04187 17.9579 1.019C18.0398 0.996121 18.1261 0.994493 18.2088 1.01427C18.2914 1.03404 18.3677 1.07456 18.4303 1.132C18.4929 1.18944 18.5399 1.2619 18.5667 1.34254L19.0299 2.71972C19.5633 4.29583 19.6459 5.98957 19.2685 7.61011C18.891 9.23065 18.0685 10.7136 16.8937 11.8918L16.5861 12.1993C16.3675 12.4176 16.1009 12.5817 15.8075 12.6786C15.5142 12.7755 15.2023 12.8025 14.8967 12.7575L11.4494 12.2537C11.3093 12.2333 11.1752 12.1834 11.0557 12.1074C10.9363 12.0314 10.8343 11.931 10.7564 11.8128C10.6785 11.6946 10.6265 11.5613 10.6038 11.4216C10.5811 11.2818 10.5882 11.1389 10.6246 11.0021L11.4988 7.75982C11.5888 7.42576 11.7649 7.12117 12.0095 6.8765Z" fill="url(#paint1_linear_206_9587)"/>
<path id="Vector_3" d="M15.9652 16.3167L18.5206 20.0752C18.6348 20.2422 18.715 20.4301 18.7565 20.6281C18.7979 20.8261 18.7999 21.0303 18.7624 21.2291C18.7248 21.4279 18.6483 21.6173 18.5374 21.7864C18.4265 21.9556 18.2833 22.1013 18.116 22.215C17.9487 22.3287 17.7606 22.4084 17.5625 22.4493C17.3644 22.4902 17.1602 22.4916 16.9615 22.4535C16.7628 22.4153 16.5736 22.3384 16.4048 22.227C16.2359 22.1156 16.0907 21.972 15.9774 21.8044C15.8498 21.6151 15.7651 21.4002 15.7294 21.1748L15.0348 16.6833C15.017 16.5683 15.0389 16.4507 15.0968 16.3498C15.1547 16.2489 15.2453 16.1707 15.3535 16.1281C15.4617 16.0854 15.5813 16.0809 15.6924 16.1152C15.8036 16.1495 15.8998 16.2206 15.9652 16.3168L15.9652 16.3167Z" fill="url(#paint2_linear_206_9587)"/>
<path id="Vector_4" d="M16.6833 15.0348L21.1748 15.7294C21.3743 15.7603 21.5659 15.8301 21.7384 15.935C21.911 16.0399 22.0612 16.1777 22.1805 16.3407C22.2998 16.5036 22.3858 16.6884 22.4337 16.8846C22.4815 17.0808 22.4903 17.2845 22.4594 17.484C22.4285 17.6836 22.3587 17.8751 22.2538 18.0477C22.1489 18.2202 22.0111 18.3704 21.8481 18.4897C21.6852 18.609 21.5004 18.695 21.3042 18.7429C21.108 18.7907 20.9043 18.7995 20.7048 18.7686C20.4793 18.7329 20.2645 18.6483 20.0752 18.5206L16.3167 15.9652C16.2205 15.8998 16.1494 15.8036 16.1151 15.6925C16.0808 15.5813 16.0854 15.4618 16.128 15.3535C16.1707 15.2453 16.2489 15.1548 16.3498 15.0968C16.4507 15.0389 16.5683 15.0171 16.6832 15.0348L16.6833 15.0348Z" fill="url(#paint3_linear_206_9587)"/>
<path id="Vector_5" d="M16.3535 15.6465L20.3107 18.1893C20.4805 18.2982 20.6272 18.4395 20.7424 18.6051C20.8576 18.7707 20.939 18.9574 20.982 19.1545C21.0251 19.3516 21.0288 19.5552 20.993 19.7538C20.9573 19.9523 20.8827 20.1419 20.7737 20.3116C20.6646 20.4813 20.5232 20.6279 20.3574 20.7429C20.1917 20.8579 20.0049 20.9391 19.8077 20.9819C19.6106 21.0247 19.4069 21.0282 19.2084 20.9922C19.0099 20.9562 18.8205 20.8814 18.6509 20.7722C18.4663 20.6525 18.309 20.4953 18.1893 20.3107L15.6465 16.3536C15.5833 16.2553 15.5557 16.1384 15.5682 16.0222C15.5807 15.9061 15.6325 15.7977 15.7151 15.7151C15.7977 15.6325 15.9061 15.5807 16.0222 15.5682C16.1384 15.5557 16.2553 15.5833 16.3535 15.6465V15.6465Z" fill="url(#paint4_linear_206_9587)"/>
<path id="Vector_6" d="M4.52887 4.86704L6 7.50001L7.5 6.00001L4.8675 4.5284C4.82016 4.50292 4.76587 4.49338 4.71268 4.50119C4.65949 4.509 4.61023 4.53375 4.57222 4.57176C4.53421 4.60978 4.50946 4.65903 4.50165 4.71223C4.49385 4.76542 4.50339 4.81971 4.52887 4.86704Z" fill="url(#paint5_linear_206_9587)"/>
<path id="Vector_7" d="M16.8885 16.8885C18.2553 15.5217 17.2541 12.3591 14.7136 9.76387C12.3788 7.3788 8 7.99999 8 7.99999C8 7.99999 7.37881 12.3788 9.76388 14.7136C12.3591 17.2541 15.5217 18.2553 16.8885 16.8885Z" fill="url(#paint6_linear_206_9587)"/>
<path id="Vector_8" d="M8 10.5C9.38071 10.5 10.5 9.38071 10.5 8C10.5 6.61929 9.38071 5.5 8 5.5C6.61929 5.5 5.5 6.61929 5.5 8C5.5 9.38071 6.61929 10.5 8 10.5Z" fill="url(#paint7_linear_206_9587)"/>
</g>
<defs>
<linearGradient id="paint0_linear_206_9587" x1="3.60989" y1="9.26339" x2="8.89597" y2="19.5205" gradientUnits="userSpaceOnUse">
<stop stop-color="#FCFCFC"/>
<stop offset="0.95" stop-color="#C3C9CD"/>
</linearGradient>
<linearGradient id="paint1_linear_206_9587" x1="12.5649" y1="-0.754072" x2="21.0973" y2="8.72191" gradientUnits="userSpaceOnUse">
<stop stop-color="#FCFCFC"/>
<stop offset="0.95" stop-color="#C3C9CD"/>
</linearGradient>
<linearGradient id="paint2_linear_206_9587" x1="15.8619" y1="15.1407" x2="20.4663" y2="19.1191" gradientUnits="userSpaceOnUse">
<stop stop-color="#FCFCFC"/>
<stop offset="0.95" stop-color="#C3C9CD"/>
</linearGradient>
<linearGradient id="paint3_linear_206_9587" x1="17.5069" y1="14.469" x2="19.3979" y2="19.1855" gradientUnits="userSpaceOnUse">
<stop stop-color="#FCFCFC"/>
<stop offset="0.95" stop-color="#C3C9CD"/>
</linearGradient>
<linearGradient id="paint4_linear_206_9587" x1="2.4295" y1="2.429" x2="26.075" y2="26.074" gradientUnits="userSpaceOnUse">
<stop stop-color="#32BDEF"/>
<stop offset="1" stop-color="#1EA2E4"/>
</linearGradient>
<linearGradient id="paint5_linear_206_9587" x1="2.4295" y1="2.42951" x2="26.0745" y2="26.0745" gradientUnits="userSpaceOnUse">
<stop stop-color="#F44F5A"/>
<stop offset="0.443" stop-color="#EE3D4A"/>
<stop offset="1" stop-color="#E52030"/>
</linearGradient>
<linearGradient id="paint6_linear_206_9587" x1="2.4295" y1="2.42949" x2="26.0745" y2="26.0745" gradientUnits="userSpaceOnUse">
<stop stop-color="#32BDEF"/>
<stop offset="1" stop-color="#1EA2E4"/>
</linearGradient>
<linearGradient id="paint7_linear_206_9587" x1="2.4295" y1="2.4295" x2="26.0745" y2="26.0745" gradientUnits="userSpaceOnUse">
<stop stop-color="#32BDEF"/>
<stop offset="1" stop-color="#1EA2E4"/>
</linearGradient>
</defs>
</svg>
