<svg width="24" height="24" viewBox="0 0 24 24" fill="none" xmlns="http://www.w3.org/2000/svg">
<g id="translator">
<path id="Vector" d="M7.5 1.5C6.99651 1.49997 6.49589 1.57582 6.015 1.725C5.85997 1.77 5.70497 1.83 5.555 1.89C5.405 1.955 5.26 2.03 5.115 2.105H5.11C4.32 2.53524 3.66062 3.17053 3.2013 3.94399C2.74198 4.71744 2.49971 5.60044 2.5 6.5C2.50067 6.82562 2.53248 7.15044 2.595 7.47C2.615 7.55 2.63 7.63 2.65 7.705C2.65093 7.72044 2.65431 7.73562 2.66 7.75C2.695 7.89 2.74 8.025 2.785 8.16C2.825 8.275 2.865 8.385 2.915 8.495C2.95992 8.59608 3.00787 8.69443 3.05819 8.7915C3.00204 8.68658 2.96508 8.6127 2.975 8.635C2.96706 8.64518 2.96189 8.65723 2.96 8.67L1.785 11.34C1.75315 11.4124 1.74449 11.4928 1.7602 11.5703C1.77592 11.6478 1.81525 11.7186 1.87278 11.7728C1.93032 11.8271 2.00324 11.8622 2.08152 11.8733C2.15981 11.8844 2.23963 11.8711 2.31 11.835L4.67 10.635C4.5 10.5 4.5 10.5 4.44 10.45C4.97517 10.8688 5.59153 11.1719 6.25 11.34C6.31213 11.3597 6.37564 11.3748 6.44 11.385C6.49221 11.4003 6.54581 11.4103 6.6 11.415C6.69073 11.4353 6.78255 11.4503 6.875 11.46C6.955 11.47 7.035 11.48 7.12 11.485C7.245 11.495 7.37 11.5 7.5 11.5C8.39957 11.5003 9.28258 11.2581 10.056 10.7987C10.8295 10.3394 11.4648 9.68002 11.895 8.89V8.885C11.97 8.74 12.045 8.595 12.11 8.445C12.17 8.295 12.23 8.14 12.275 7.985C12.5074 7.2366 12.5607 6.44406 12.4306 5.67128C12.3005 4.89851 11.9906 4.16711 11.526 3.53607C11.0613 2.90502 10.4549 2.39199 9.7556 2.03832C9.05629 1.68466 8.28366 1.50026 7.5 1.5ZM3.09891 8.86664C3.14929 8.95935 3.20141 9.05102 3.26001 9.13999C3.20706 9.0596 3.14905 8.95813 3.09891 8.86664Z" fill="url(#paint0_linear_206_9612)"/>
<path id="Vector_2" d="M17.6875 16.3857V15.509C18.6529 14.8392 19.4375 13.8691 19.4375 13.0088V12.4103H19.4777C19.579 12.4163 19.6793 12.3876 19.7621 12.329C19.8449 12.2703 19.9052 12.1852 19.9332 12.0877L20.0837 11.3454C20.1034 11.195 20.0638 11.0429 19.9733 10.9213C19.8828 10.7996 19.7485 10.718 19.5988 10.6937C19.7483 9.96635 19.8406 9.22845 19.875 8.48672C19.8381 7.98795 19.6811 7.50551 19.4173 7.08062C19.1534 6.65573 18.7907 6.30101 18.36 6.04677C18.4973 5.71503 18.5661 5.359 18.5625 5H15.5958C14.1613 5 13.5729 5.58821 13.3867 5.83894C13.3567 5.87239 13.3317 5.91003 13.3125 5.95068C12.5381 6.06444 11.125 7.19473 11.125 8.48672C11.1508 9.22882 11.2462 9.96686 11.41 10.6911C11.2584 10.7138 11.1218 10.7951 11.0295 10.9174C10.9372 11.0397 10.8966 11.1934 10.9163 11.3454L11.0668 12.0877C11.0948 12.1852 11.1551 12.2703 11.2379 12.3289C11.3207 12.3876 11.421 12.4163 11.5223 12.4103H11.5625V13.0088C11.5625 13.8691 12.3471 14.8393 13.3125 15.509V16.3858C10.5188 17.0052 8.5 18.7539 8.5 20.63V21.1282C8.50018 21.2429 8.52296 21.3565 8.56704 21.4624C8.61111 21.5683 8.67562 21.6644 8.75688 21.7454C8.83814 21.8263 8.93455 21.8905 9.04061 21.9342C9.14667 21.9779 9.2603 22.0002 9.375 22H21.625C21.7397 22.0002 21.8533 21.9779 21.9594 21.9342C22.0655 21.8905 22.1619 21.8263 22.2431 21.7454C22.3244 21.6644 22.3889 21.5683 22.433 21.4624C22.477 21.3565 22.4998 21.2429 22.5 21.1282V20.63C22.5 18.7539 20.4812 17.0052 17.6875 16.3857Z" fill="url(#paint1_linear_206_9612)"/>
<path id="Vector_3" d="M13.992 11.5H16.992V12.5H13.992V11.5Z" fill="white"/>
<path id="Vector_4" d="M14.0465 13.5L15.492 9L16.945 13.5H18L15.992 7.5H14.992L12.992 13.5H14.0465Z" fill="white"/>
<g id="Group">
<path id="Vector_5" d="M5.032 8.61152C6.70775 7.44002 8.07029 5.87506 9 4.05402L9.895 4.50002C8.93266 6.50628 7.46685 8.22894 5.6405 9.50002L5.032 8.61152Z" fill="url(#paint2_linear_206_9612)"/>
<path id="Vector_6" d="M9.5 9.5C7.94924 8.65365 6.61874 7.45519 5.6155 6.001L6.5 5.5C7.6665 7.4165 9.9905 8.63 9.9905 8.63L9.5 9.5ZM4.5 4H10.5V5H4.5V4Z" fill="url(#paint3_linear_206_9612)"/>
<path id="Vector_7" d="M7 3H8V5H7V3Z" fill="url(#paint4_linear_206_9612)"/>
</g>
</g>
<defs>
<linearGradient id="paint0_linear_206_9612" x1="1.7515" y1="6.6895" x2="12.5" y2="6.6895" gradientUnits="userSpaceOnUse">
<stop stop-color="#42A3F2"/>
<stop offset="1" stop-color="#42A4EB"/>
</linearGradient>
<linearGradient id="paint1_linear_206_9612" x1="8.5" y1="13.5" x2="22.5" y2="13.5" gradientUnits="userSpaceOnUse">
<stop stop-color="#1D59B3"/>
<stop offset="1" stop-color="#195BBC"/>
</linearGradient>
<linearGradient id="paint2_linear_206_9612" x1="5.032" y1="6.77702" x2="9.895" y2="6.77702" gradientUnits="userSpaceOnUse">
<stop stop-color="#11408A"/>
<stop offset="1" stop-color="#103F8F"/>
</linearGradient>
<linearGradient id="paint3_linear_206_9612" x1="4.5" y1="6.75" x2="10.5" y2="6.75" gradientUnits="userSpaceOnUse">
<stop stop-color="#11408A"/>
<stop offset="1" stop-color="#103F8F"/>
</linearGradient>
<linearGradient id="paint4_linear_206_9612" x1="7" y1="4" x2="8" y2="4" gradientUnits="userSpaceOnUse">
<stop stop-color="#11408A"/>
<stop offset="1" stop-color="#103F8F"/>
</linearGradient>
</defs>
</svg>
