<svg width="24" height="24" viewBox="0 0 24 24" fill="none" xmlns="http://www.w3.org/2000/svg">
<g id="trash-can">
<path id="Vector" d="M17.382 2H6.618C6.239 2 5.893 2.214 5.7235 2.553L5 4H19L18.2765 2.553C18.107 2.214 17.7605 2 17.382 2Z" fill="url(#paint0_linear_206_9621)"/>
<path id="Vector_2" d="M19 4H5C4.4475 4 4 4.4475 4 5V5.5H20V5C20 4.4475 19.5525 4 19 4Z" fill="url(#paint1_linear_206_9621)"/>
<path id="Vector_3" d="M19.25 5.5H4.75L5.5635 20.554C5.592 21.0845 6.0305 21.5 6.562 21.5H17.438C17.9695 21.5 18.408 21.0845 18.4365 20.554L19.25 5.5Z" fill="url(#paint2_linear_206_9621)"/>
</g>
<defs>
<linearGradient id="paint0_linear_206_9621" x1="10.1149" y1="2.08718" x2="10.1722" y2="4.29109" gradientUnits="userSpaceOnUse">
<stop stop-color="#32BDEF"/>
<stop offset="1" stop-color="#1EA2E4"/>
</linearGradient>
<linearGradient id="paint1_linear_206_9621" x1="9.04457" y1="4.02303" x2="9.13261" y2="5.83357" gradientUnits="userSpaceOnUse">
<stop stop-color="#7DD8F3"/>
<stop offset="1" stop-color="#45B0D0"/>
</linearGradient>
<linearGradient id="paint2_linear_206_9621" x1="8.1565" y1="4.197" x2="15.693" y2="20.0105" gradientUnits="userSpaceOnUse">
<stop stop-color="#2AA4F4"/>
<stop offset="1" stop-color="#007AD9"/>
</linearGradient>
</defs>
</svg>
