<svg width="24" height="24" viewBox="0 0 24 24" fill="none" xmlns="http://www.w3.org/2000/svg">
<g id="travel-diary">
<path id="Vector" d="M20.5 3V21C20.5 21.1313 20.4742 21.2614 20.424 21.3827C20.3737 21.5041 20.3001 21.6143 20.2072 21.7072C20.1143 21.8001 20.0041 21.8737 19.8827 21.924C19.7614 21.9742 19.6313 22 19.5 22H17V2H19.5C19.6313 1.99996 19.7614 2.02581 19.8827 2.07605C20.0041 2.12629 20.1143 2.19995 20.2072 2.29281C20.3001 2.38568 20.3737 2.49593 20.424 2.61727C20.4742 2.73862 20.5 2.86867 20.5 3Z" fill="#1783BD"/>
<path id="Vector_2" d="M19.5 3V21C19.5 21.1313 19.4742 21.2614 19.424 21.3827C19.3737 21.5041 19.3001 21.6143 19.2072 21.7072C19.1143 21.8001 19.0041 21.8737 18.8827 21.924C18.7614 21.9742 18.6313 22 18.5 22H15.5V2H18.5C18.6313 1.99996 18.7614 2.02581 18.8827 2.07605C19.0041 2.12629 19.1143 2.19995 19.2072 2.29281C19.3001 2.38568 19.3737 2.49593 19.424 2.61727C19.4742 2.73862 19.5 2.86867 19.5 3Z" fill="url(#paint0_linear_206_9625)"/>
<path id="Vector_3" d="M3.5 3V21C3.49996 21.1313 3.52581 21.2614 3.57605 21.3827C3.62629 21.5041 3.69995 21.6143 3.79281 21.7072C3.88568 21.8001 3.99593 21.8737 4.11727 21.924C4.23862 21.9742 4.36867 22 4.5 22H5.5V2H4.5C4.36867 1.99996 4.23862 2.02581 4.11727 2.07605C3.99593 2.12629 3.88568 2.19995 3.79281 2.29281C3.69995 2.38568 3.62629 2.49593 3.57605 2.61727C3.52581 2.73862 3.49996 2.86867 3.5 3Z" fill="url(#paint1_linear_206_9625)"/>
<path id="Vector_4" d="M17.5 2H5.5V22H17.5C17.6313 22 17.7614 21.9742 17.8827 21.924C18.0041 21.8737 18.1143 21.8001 18.2072 21.7072C18.3001 21.6143 18.3737 21.5041 18.424 21.3827C18.4742 21.2614 18.5 21.1313 18.5 21V3C18.5 2.86867 18.4742 2.73862 18.424 2.61727C18.3737 2.49593 18.3001 2.38568 18.2072 2.29281C18.1143 2.19995 18.0041 2.12629 17.8827 2.07605C17.7614 2.02581 17.6313 1.99996 17.5 2Z" fill="url(#paint2_linear_206_9625)"/>
<g id="Group">
<g id="Group_2" opacity="0.05">
<path id="Vector_5" d="M10.7207 14.6934L11.1532 15.9909C11.1827 16.079 11.187 16.1736 11.1657 16.2641C11.1444 16.3545 11.0984 16.4372 11.0327 16.5029L10.7657 16.7699C10.7395 16.7961 10.7079 16.8162 10.673 16.8286C10.6382 16.8411 10.601 16.8457 10.5642 16.842C10.5274 16.8384 10.4918 16.8266 10.4601 16.8076C10.4283 16.7886 10.4012 16.7627 10.3807 16.7319L9.13569 14.8644L10.7207 14.6934ZM11.0676 14.1531L10.6671 14.1963L9.08205 14.3673L8.2623 14.4557L8.71966 15.1418L9.96466 17.0093C10.0262 17.1016 10.1075 17.1791 10.2027 17.2363C10.2978 17.2934 10.4045 17.3287 10.5149 17.3396C10.6254 17.3505 10.7369 17.3368 10.8414 17.2994C10.9459 17.2621 11.0408 17.202 11.1192 17.1235L11.3862 16.8565C11.5181 16.7254 11.6106 16.5601 11.6532 16.3791C11.6959 16.1982 11.687 16.0089 11.6275 15.8328L11.195 14.5353L11.0676 14.1531V14.1531Z" fill="black"/>
<path id="Vector_6" d="M13.9087 11.5054L15.5602 15.7984C15.5949 15.8886 15.6027 15.987 15.5826 16.0816C15.5626 16.1762 15.5155 16.263 15.4472 16.3314L15.1672 16.6114C15.1423 16.6363 15.1125 16.6557 15.0797 16.6682C15.0468 16.6808 15.0117 16.6863 14.9766 16.6844C14.9415 16.6824 14.9072 16.6731 14.8759 16.657C14.8447 16.6409 14.8171 16.6184 14.7952 16.5909L12.1412 13.2734L13.9087 11.5054ZM14.0991 10.6077L13.5551 11.1519L11.7876 12.9199L11.4712 13.2363L11.7507 13.5857L14.4047 16.9032C14.4706 16.9856 14.5531 17.0532 14.6469 17.1015C14.7407 17.1498 14.8436 17.1778 14.9489 17.1836C15.0543 17.1894 15.1596 17.173 15.2582 17.1353C15.3567 17.0976 15.4462 17.0396 15.5207 16.9649L15.8007 16.6849C15.9374 16.5481 16.0315 16.3746 16.0716 16.1853C16.1118 15.9961 16.0962 15.7994 16.0268 15.6188L14.3753 11.3258L14.0991 10.6077L14.0991 10.6077Z" fill="black"/>
<path id="Vector_7" d="M7.85097 12.8212C7.90475 12.8212 7.95817 12.8299 8.00919 12.8469L9.30669 13.2794L9.13569 14.8644L7.26819 13.6194C7.23745 13.5988 7.21165 13.5717 7.19265 13.54C7.17365 13.5082 7.1619 13.4727 7.15827 13.4359C7.15464 13.3991 7.1592 13.3619 7.17164 13.3271C7.18407 13.2922 7.20407 13.2606 7.23019 13.2344L7.49719 12.9674C7.59112 12.8738 7.71834 12.8212 7.85096 12.8212M7.85096 12.3212C7.71973 12.3209 7.58973 12.3465 7.46844 12.3966C7.34716 12.4467 7.23699 12.5203 7.14428 12.6132L6.87664 12.8808C6.79831 12.9592 6.73832 13.054 6.70097 13.1583C6.66362 13.2626 6.64984 13.3739 6.66062 13.4842C6.67139 13.5945 6.70646 13.7011 6.7633 13.7962C6.82013 13.8913 6.89733 13.9727 6.98935 14.0344L8.85835 15.2804L9.54438 15.7378L9.63282 14.918L9.80382 13.333L9.84703 12.9325L9.46482 12.8051L8.16732 12.3725C8.06533 12.3385 7.95851 12.3211 7.85098 12.3212L7.85096 12.3212Z" fill="black"/>
<path id="Vector_8" d="M8.02229 8.40699C8.08363 8.407 8.14444 8.41831 8.20169 8.44035L12.4947 10.0913L10.7267 11.8593L7.40919 9.20535C7.38171 9.18339 7.35918 9.15589 7.34307 9.12462C7.32696 9.09336 7.31763 9.05905 7.3157 9.02393C7.31376 8.98882 7.31926 8.95369 7.33184 8.92085C7.34442 8.888 7.36379 8.85819 7.38869 8.83335L7.66869 8.55335C7.71513 8.50692 7.77026 8.4701 7.83094 8.44499C7.89161 8.41988 7.95663 8.40696 8.0223 8.40699M8.0223 7.90699C7.89092 7.90662 7.76078 7.9323 7.6394 7.98256C7.51802 8.03281 7.40781 8.10664 7.31515 8.19977L7.03515 8.4798C6.9605 8.55439 6.90243 8.6439 6.86475 8.74247C6.82707 8.84104 6.81062 8.94646 6.81648 9.05182C6.82234 9.15719 6.85037 9.26013 6.89875 9.35392C6.94713 9.4477 7.01476 9.53022 7.09723 9.59607L10.4144 12.2498L10.7638 12.5294L11.0803 12.2129L12.8483 10.4449L13.3923 9.90086L12.6742 9.62467L8.38118 7.97367C8.26668 7.92952 8.14501 7.90692 8.0223 7.90699V7.90699Z" fill="black"/>
<path id="Vector_9" d="M15.5002 7.50001C15.6979 7.49999 15.8913 7.55864 16.0557 7.66853C16.2201 7.77842 16.3482 7.9346 16.4239 8.11733C16.4995 8.30006 16.5192 8.50111 16.4806 8.69506C16.4419 8.88901 16.3466 9.06713 16.2067 9.20689L10.1962 15.2174C10.0086 15.4045 9.75441 15.5094 9.48948 15.5092C9.22455 15.509 8.97052 15.4037 8.78319 15.2164C8.59586 15.029 8.49053 14.775 8.49034 14.5101C8.49015 14.2452 8.59512 13.991 8.78219 13.8034L14.7932 7.79289C14.8859 7.6999 14.9961 7.62615 15.1175 7.57589C15.2388 7.52563 15.3689 7.49984 15.5002 7.50001ZM15.5002 7.00001C15.3031 6.99947 15.1079 7.03803 14.9259 7.11344C14.7439 7.18885 14.5786 7.29962 14.4396 7.43934L8.42865 13.4498C8.14737 13.7311 7.98934 14.1126 7.98934 14.5104C7.98934 14.9081 8.14736 15.2896 8.42863 15.5709C8.70991 15.8522 9.0914 16.0102 9.48918 16.0102C9.88697 16.0102 10.2685 15.8522 10.5497 15.5709L16.5602 9.56043C16.7701 9.35074 16.913 9.08353 16.971 8.7926C17.0289 8.50166 16.9993 8.20008 16.8858 7.92599C16.7723 7.6519 16.5801 7.41762 16.3335 7.25279C16.0868 7.08797 15.7968 6.99999 15.5002 7.00001Z" fill="black"/>
</g>
<g id="Group_3" opacity="0.07">
<path id="Vector_10" d="M10.7207 14.6934L11.1532 15.9909C11.1827 16.079 11.187 16.1736 11.1657 16.264C11.1444 16.3545 11.0984 16.4372 11.0327 16.5029L10.7657 16.7699C10.7395 16.7961 10.7079 16.8161 10.673 16.8286C10.6382 16.8411 10.601 16.8457 10.5642 16.842C10.5274 16.8384 10.4918 16.8266 10.4601 16.8076C10.4283 16.7885 10.4012 16.7627 10.3807 16.7319L9.13569 14.8644L10.7207 14.6934ZM10.8942 14.4232L10.6939 14.4448L9.10887 14.6158L8.699 14.6601L8.92768 15.0031L10.1727 16.8706C10.2137 16.9321 10.2679 16.9838 10.3314 17.0219C10.3948 17.06 10.4659 17.0835 10.5396 17.0908C10.6132 17.0981 10.6875 17.0889 10.7572 17.064C10.8269 17.0391 10.8901 16.999 10.9425 16.9467L11.2095 16.6797C11.3083 16.5814 11.3777 16.4573 11.4097 16.3216C11.4416 16.1859 11.435 16.0439 11.3904 15.9118L10.9579 14.6143L10.8942 14.4232V14.4232Z" fill="black"/>
<path id="Vector_11" d="M13.9087 11.5053L15.5602 15.7983C15.5949 15.8886 15.6027 15.987 15.5826 16.0816C15.5626 16.1762 15.5155 16.2629 15.4472 16.3313L15.1672 16.6113C15.1423 16.6362 15.1125 16.6556 15.0797 16.6682C15.0468 16.6808 15.0117 16.6863 14.9766 16.6843C14.9415 16.6824 14.9072 16.6731 14.8759 16.657C14.8446 16.6409 14.8171 16.6183 14.7952 16.5908L12.1412 13.2733L13.9087 11.5053ZM14.0039 11.0565L13.7319 11.3286L11.9644 13.0966L11.8062 13.2548L11.946 13.4295L14.6 16.747C14.6439 16.8019 14.6989 16.847 14.7614 16.8792C14.8239 16.9114 14.8926 16.9301 14.9628 16.934C15.033 16.9378 15.1033 16.9269 15.1689 16.9017C15.2346 16.8766 15.2943 16.8379 15.344 16.7881L15.624 16.5081C15.7265 16.4055 15.797 16.2754 15.8271 16.1335C15.8572 15.9916 15.8455 15.844 15.7935 15.7086L14.142 11.4156L14.0039 11.0565L14.0039 11.0565Z" fill="black"/>
<path id="Vector_12" d="M7.85096 12.8212C7.90474 12.8212 7.95817 12.8298 8.00918 12.8469L9.30668 13.2794L9.13568 14.8644L7.26818 13.6194C7.23745 13.5988 7.21165 13.5717 7.19265 13.5399C7.17364 13.5082 7.1619 13.4727 7.15827 13.4359C7.15463 13.399 7.1592 13.3619 7.17163 13.3271C7.18407 13.2922 7.20406 13.2606 7.23018 13.2344L7.49718 12.9674C7.59112 12.8738 7.71833 12.8212 7.85096 12.8212M7.85096 12.5712C7.75249 12.5709 7.65495 12.5901 7.56395 12.6278C7.47295 12.6654 7.39029 12.7206 7.32073 12.7903L7.0534 13.0576C7.00118 13.1099 6.96119 13.1731 6.9363 13.2427C6.91141 13.3123 6.90224 13.3865 6.90944 13.46C6.91665 13.5336 6.94005 13.6046 6.97797 13.6681C7.01589 13.7315 7.06739 13.7857 7.12877 13.8269L8.99701 15.0724L9.34001 15.3011L9.38423 14.8912L9.55523 13.3062L9.57683 13.1059L9.38573 13.0422L8.08823 12.6097C8.01172 12.5842 7.9316 12.5712 7.85095 12.5712L7.85096 12.5712Z" fill="black"/>
<path id="Vector_13" d="M8.02228 8.40699C8.08362 8.407 8.14444 8.41831 8.20168 8.44035L12.4947 10.0913L10.7267 11.8593L7.40919 9.20535C7.38171 9.18339 7.35918 9.15589 7.34306 9.12462C7.32695 9.09336 7.31762 9.05905 7.31569 9.02393C7.31375 8.98882 7.31926 8.95369 7.33184 8.92084C7.34441 8.888 7.36379 8.85818 7.38869 8.83335L7.66869 8.55335C7.71513 8.50692 7.77026 8.4701 7.83093 8.44499C7.8916 8.41988 7.95663 8.40696 8.02229 8.40699M8.02229 8.15699C7.92376 8.1567 7.82615 8.17596 7.73511 8.21365C7.64408 8.25134 7.56142 8.30671 7.49192 8.37656L7.21192 8.65656C7.16214 8.70627 7.12342 8.76594 7.09829 8.83165C7.07316 8.89736 7.06219 8.96763 7.06608 9.03788C7.06998 9.10812 7.08866 9.17675 7.12091 9.23928C7.15316 9.30181 7.19824 9.35682 7.25321 9.40073L10.5705 12.0546L10.7452 12.1944L10.9034 12.0362L12.6714 10.2682L12.9435 9.99612L12.5844 9.85803L8.29141 8.20703C8.20554 8.17392 8.11429 8.15697 8.02227 8.15703L8.02229 8.15699Z" fill="black"/>
<path id="Vector_14" d="M15.5002 7.5C15.6979 7.49999 15.8913 7.55864 16.0557 7.66853C16.2201 7.77841 16.3482 7.9346 16.4239 8.11733C16.4995 8.30006 16.5192 8.50111 16.4806 8.69506C16.4419 8.88901 16.3466 9.06713 16.2067 9.20688L10.1962 15.2174C10.0086 15.4045 9.75441 15.5094 9.48948 15.5092C9.22455 15.509 8.97052 15.4037 8.78319 15.2164C8.59585 15.029 8.49053 14.775 8.49034 14.5101C8.49015 14.2452 8.59511 13.991 8.78218 13.8034L14.7932 7.79288C14.8859 7.6999 14.9961 7.62615 15.1175 7.57589C15.2388 7.52563 15.3689 7.49984 15.5002 7.5ZM15.5002 7.25C15.336 7.24956 15.1733 7.28168 15.0216 7.34452C14.8699 7.40736 14.7322 7.49967 14.6164 7.61609L8.6054 13.6266C8.37101 13.861 8.23932 14.1789 8.23932 14.5104C8.23932 14.8419 8.37099 15.1598 8.60539 15.3942C8.83978 15.6286 9.15768 15.7602 9.48917 15.7602C9.82065 15.7602 10.1386 15.6286 10.373 15.3942L16.3835 9.38367C16.5583 9.20895 16.6775 8.98629 16.7258 8.74384C16.7741 8.5014 16.7494 8.25007 16.6549 8.02166C16.5603 7.79325 16.4001 7.59801 16.1946 7.46066C15.9891 7.3233 15.7474 7.24999 15.5002 7.25Z" fill="black"/>
</g>
<path id="Vector_15" d="M9.13569 14.8644L10.3807 16.7319C10.4012 16.7626 10.4283 16.7885 10.4601 16.8075C10.4918 16.8266 10.5274 16.8384 10.5642 16.842C10.601 16.8456 10.6382 16.841 10.673 16.8286C10.7079 16.8161 10.7395 16.796 10.7657 16.7699L11.0327 16.5029C11.0984 16.4371 11.1444 16.3544 11.1657 16.264C11.187 16.1736 11.1827 16.079 11.1532 15.9909L10.7207 14.6934L9.13569 14.8644Z" fill="url(#paint3_linear_206_9625)"/>
<path id="Vector_16" d="M12.1412 13.2734L14.7952 16.5909C14.8171 16.6184 14.8446 16.6409 14.8759 16.657C14.9072 16.6731 14.9415 16.6824 14.9766 16.6844C15.0117 16.6863 15.0468 16.6808 15.0797 16.6682C15.1125 16.6556 15.1424 16.6363 15.1672 16.6114L15.4472 16.3314C15.5155 16.263 15.5626 16.1762 15.5827 16.0816C15.6027 15.987 15.5949 15.8886 15.5602 15.7984L13.9087 11.5054L12.1412 13.2734Z" fill="url(#paint4_linear_206_9625)"/>
<path id="Vector_17" d="M9.30669 13.2794L8.00919 12.8469C7.92107 12.8175 7.82652 12.8133 7.7361 12.8346C7.64569 12.8558 7.56297 12.9018 7.49719 12.9674L7.23019 13.2344C7.20407 13.2606 7.18407 13.2922 7.17164 13.3271C7.1592 13.3619 7.15464 13.3991 7.15827 13.4359C7.1619 13.4727 7.17364 13.5082 7.19265 13.54C7.21165 13.5717 7.23745 13.5988 7.26819 13.6194L9.13569 14.8644L9.30669 13.2794Z" fill="url(#paint5_linear_206_9625)"/>
<path id="Vector_18" d="M12.4947 10.0914L8.20168 8.44038C8.11143 8.40566 8.01304 8.39786 7.91844 8.41792C7.82384 8.43797 7.73709 8.48503 7.66868 8.55338L7.38868 8.83338C7.36378 8.85822 7.34441 8.88804 7.33183 8.92088C7.31925 8.95372 7.31374 8.98885 7.31568 9.02397C7.31761 9.05909 7.32694 9.0934 7.34306 9.12466C7.35917 9.15592 7.3817 9.18343 7.40918 9.20538L10.7267 11.8594L12.4947 10.0914Z" fill="url(#paint6_linear_206_9625)"/>
<path id="Vector_19" d="M16.2072 7.79288C16.1143 7.70002 16.0041 7.62637 15.8828 7.57612C15.7615 7.52586 15.6315 7.5 15.5002 7.5C15.3689 7.5 15.2389 7.52586 15.1176 7.57612C14.9962 7.62637 14.886 7.70002 14.7932 7.79288L8.78218 13.8034C8.59512 13.991 8.49015 14.2452 8.49034 14.5101C8.49053 14.775 8.59586 15.029 8.78319 15.2164C8.97052 15.4037 9.22455 15.509 9.48948 15.5092C9.75441 15.5094 10.0086 15.4044 10.1962 15.2174L16.2067 9.20688C16.2996 9.1141 16.3734 9.00391 16.4237 8.88262C16.474 8.76133 16.5 8.6313 16.5 8.49998C16.5 8.36866 16.4742 8.23862 16.424 8.11729C16.3737 7.99596 16.3001 7.88572 16.2072 7.79288Z" fill="url(#paint7_linear_206_9625)"/>
</g>
</g>
<defs>
<linearGradient id="paint0_linear_206_9625" x1="17.486" y1="12" x2="19.057" y2="12" gradientUnits="userSpaceOnUse">
<stop offset="0.441" stop-color="#999998"/>
<stop offset="0.653" stop-color="#C1C1C0"/>
<stop offset="0.88" stop-color="#E5E5E5"/>
<stop offset="1" stop-color="#F3F3F3"/>
</linearGradient>
<linearGradient id="paint1_linear_206_9625" x1="1.819" y1="4.286" x2="7.8455" y2="20.7025" gradientUnits="userSpaceOnUse">
<stop stop-color="#0176D0"/>
<stop offset="1" stop-color="#16538C"/>
</linearGradient>
<linearGradient id="paint2_linear_206_9625" x1="8.39" y1="2.577" x2="15.6075" y2="22.2375" gradientUnits="userSpaceOnUse">
<stop stop-color="#A8E2F7"/>
<stop offset="1" stop-color="#47C1FF"/>
</linearGradient>
<linearGradient id="paint3_linear_206_9625" x1="9.1355" y1="15.7685" x2="11.179" y2="15.7685" gradientUnits="userSpaceOnUse">
<stop stop-color="#3079D6"/>
<stop offset="1" stop-color="#297CD2"/>
</linearGradient>
<linearGradient id="paint4_linear_206_9625" x1="12.141" y1="14.095" x2="15.5935" y2="14.095" gradientUnits="userSpaceOnUse">
<stop stop-color="#3079D6"/>
<stop offset="1" stop-color="#297CD2"/>
</linearGradient>
<linearGradient id="paint5_linear_206_9625" x1="7.15701" y1="13.843" x2="9.30651" y2="13.843" gradientUnits="userSpaceOnUse">
<stop stop-color="#3079D6"/>
<stop offset="1" stop-color="#297CD2"/>
</linearGradient>
<linearGradient id="paint6_linear_206_9625" x1="7.3155" y1="10.133" x2="12.4945" y2="10.133" gradientUnits="userSpaceOnUse">
<stop stop-color="#3079D6"/>
<stop offset="1" stop-color="#297CD2"/>
</linearGradient>
<linearGradient id="paint7_linear_206_9625" x1="8.4895" y1="11.505" x2="16.5" y2="11.505" gradientUnits="userSpaceOnUse">
<stop stop-color="#42A3F2"/>
<stop offset="1" stop-color="#42A4EB"/>
</linearGradient>
</defs>
</svg>
