<svg width="24" height="24" viewBox="0 0 24 24" fill="none" xmlns="http://www.w3.org/2000/svg">
<g id="twitter">
<path id="Vector" d="M23.0525 5.51C22.277 5.8535 21.443 6.0825 20.563 6.191C21.4575 5.66 22.146 4.813 22.469 3.812C21.632 4.3025 20.7045 4.663 19.718 4.853C18.93 4.018 17.806 3.5 16.561 3.5C14.1695 3.5 12.2305 5.4215 12.2305 7.791C12.2305 8.1265 12.27 8.453 12.3435 8.77C8.7455 8.5895 5.554 6.879 3.419 4.283C3.044 4.9175 2.833 5.66 2.833 6.444C2.833 7.9335 3.5955 9.245 4.7585 10.0175C4.0485 9.996 3.3805 9.7985 2.7955 9.4815C2.7955 9.4945 2.7955 9.5135 2.7955 9.532C2.7955 11.6135 4.2885 13.347 6.2675 13.7415C5.906 13.8405 5.5235 13.8955 5.1295 13.8955C4.85 13.8955 4.5775 13.864 4.3135 13.8165C4.8645 15.5175 6.463 16.761 8.357 16.798C6.875 17.947 5.0085 18.635 2.979 18.635C2.6285 18.635 2.2855 18.615 1.9465 18.574C3.865 19.7885 6.1415 20.5 8.5855 20.5C16.549 20.5 20.906 13.9605 20.906 8.287C20.906 8.101 20.9 7.916 20.8915 7.733C21.7415 7.1325 22.474 6.3755 23.0525 5.51Z" fill="url(#paint0_linear_206_9680)"/>
</g>
<defs>
<linearGradient id="paint0_linear_206_9680" x1="5.1705" y1="4.156" x2="20.399" y2="19.3845" gradientUnits="userSpaceOnUse">
<stop stop-color="#2AA4F4"/>
<stop offset="1" stop-color="#007AD9"/>
</linearGradient>
</defs>
</svg>
