<svg width="24" height="24" viewBox="0 0 24 24" fill="none" xmlns="http://www.w3.org/2000/svg">
<g id="typing">
<path id="Vector" d="M21 4H3C2.4475 4 2 4.4475 2 5V18C2 18.5525 2.4475 19 3 19H7V22.999C7 23.4445 7.5385 23.6675 7.8535 23.3525L12.206 19H21C21.5525 19 22 18.5525 22 18V5C22 4.4475 21.5525 4 21 4Z" fill="url(#paint0_linear_206_9692)"/>
<path id="Vector_2" opacity="0.05" d="M7.5 13.5C8.60457 13.5 9.5 12.6046 9.5 11.5C9.5 10.3954 8.60457 9.5 7.5 9.5C6.39543 9.5 5.5 10.3954 5.5 11.5C5.5 12.6046 6.39543 13.5 7.5 13.5Z" fill="black"/>
<path id="Vector_3" opacity="0.07" d="M7.5 13.25C8.4665 13.25 9.25 12.4665 9.25 11.5C9.25 10.5335 8.4665 9.75 7.5 9.75C6.5335 9.75 5.75 10.5335 5.75 11.5C5.75 12.4665 6.5335 13.25 7.5 13.25Z" fill="black"/>
<path id="Vector_4" d="M7.5 13C8.32843 13 9 12.3284 9 11.5C9 10.6716 8.32843 10 7.5 10C6.67157 10 6 10.6716 6 11.5C6 12.3284 6.67157 13 7.5 13Z" fill="white"/>
<path id="Vector_5" opacity="0.05" d="M12 13.5C13.1046 13.5 14 12.6046 14 11.5C14 10.3954 13.1046 9.5 12 9.5C10.8954 9.5 10 10.3954 10 11.5C10 12.6046 10.8954 13.5 12 13.5Z" fill="black"/>
<path id="Vector_6" opacity="0.07" d="M12 13.25C12.9665 13.25 13.75 12.4665 13.75 11.5C13.75 10.5335 12.9665 9.75 12 9.75C11.0335 9.75 10.25 10.5335 10.25 11.5C10.25 12.4665 11.0335 13.25 12 13.25Z" fill="black"/>
<path id="Vector_7" d="M12 13C12.8284 13 13.5 12.3284 13.5 11.5C13.5 10.6716 12.8284 10 12 10C11.1716 10 10.5 10.6716 10.5 11.5C10.5 12.3284 11.1716 13 12 13Z" fill="white"/>
<path id="Vector_8" opacity="0.05" d="M16.5 13.5C17.6046 13.5 18.5 12.6046 18.5 11.5C18.5 10.3954 17.6046 9.5 16.5 9.5C15.3954 9.5 14.5 10.3954 14.5 11.5C14.5 12.6046 15.3954 13.5 16.5 13.5Z" fill="black"/>
<path id="Vector_9" opacity="0.07" d="M16.5 13.25C17.4665 13.25 18.25 12.4665 18.25 11.5C18.25 10.5335 17.4665 9.75 16.5 9.75C15.5335 9.75 14.75 10.5335 14.75 11.5C14.75 12.4665 15.5335 13.25 16.5 13.25Z" fill="black"/>
<path id="Vector_10" d="M16.5 13C17.3284 13 18 12.3284 18 11.5C18 10.6716 17.3284 10 16.5 10C15.6716 10 15 10.6716 15 11.5C15 12.3284 15.6716 13 16.5 13Z" fill="white"/>
</g>
<defs>
<linearGradient id="paint0_linear_206_9692" x1="6.343" y1="2.296" x2="17.79" y2="20.9205" gradientUnits="userSpaceOnUse">
<stop stop-color="#33BEF0"/>
<stop offset="1" stop-color="#0A85D9"/>
</linearGradient>
</defs>
</svg>
