<svg width="24" height="24" viewBox="0 0 24 24" fill="none" xmlns="http://www.w3.org/2000/svg">
<g id="undo">
<path id="Vector" d="M8.99999 11.366C6.65099 11.055 0.985994 10.3275 1.24199 10.5835L7.97899 17.3205C8.35549 17.6975 8.99999 17.431 8.99999 16.898V11.366Z" fill="url(#paint0_linear_206_9715)"/>
<path id="Vector_2" d="M14 7.49999H8.99999V3.10199C8.99999 2.56899 8.35549 2.30199 7.97899 2.67899L1.24249 9.41549C0.919494 9.73849 0.919494 10.262 1.24249 10.5845L2.91599 12.258C3.07749 12.4195 3.28849 12.5 3.49999 12.5H14C15.657 12.5 17 13.843 17 15.5V20.5C17 21.0525 17.4475 21.5 18 21.5H21C21.5525 21.5 22 21.0525 22 20.5V15.5C22 11.0815 18.4185 7.49999 14 7.49999Z" fill="url(#paint1_linear_206_9715)"/>
</g>
<defs>
<linearGradient id="paint0_linear_206_9715" x1="5.11649" y1="17.674" x2="5.11649" y2="11.8975" gradientUnits="userSpaceOnUse">
<stop offset="0.365" stop-color="#199AE0"/>
<stop offset="0.699" stop-color="#1898DE"/>
<stop offset="0.819" stop-color="#1691D8"/>
<stop offset="0.905" stop-color="#1186CC"/>
<stop offset="0.974" stop-color="#0A75BC"/>
<stop offset="1" stop-color="#076CB3"/>
</linearGradient>
<linearGradient id="paint1_linear_206_9715" x1="8.77849" y1="18.0075" x2="18.4335" y2="8.35249" gradientUnits="userSpaceOnUse">
<stop stop-color="#32BDEF"/>
<stop offset="1" stop-color="#1EA2E4"/>
</linearGradient>
</defs>
</svg>
