<svg width="24" height="24" viewBox="0 0 24 24" fill="none" xmlns="http://www.w3.org/2000/svg">
<g id="ungroup-objects">
<path id="Vector" d="M16 16H3.5V3.5H16V16ZM4.5 15H15V4.5H4.5V15Z" fill="#64717C"/>
<path id="Vector_2" d="M20.5 21H8V15.5H9V20H19.5V9.5H15.5V8.5H20.5V21Z" fill="#64717C"/>
<path id="Vector_3" d="M4 5.5C4.82843 5.5 5.5 4.82843 5.5 4C5.5 3.17157 4.82843 2.5 4 2.5C3.17157 2.5 2.5 3.17157 2.5 4C2.5 4.82843 3.17157 5.5 4 5.5Z" fill="url(#paint0_linear_206_9718)"/>
<path id="Vector_4" d="M15.5 5.5C16.3284 5.5 17 4.82843 17 4C17 3.17157 16.3284 2.5 15.5 2.5C14.6716 2.5 14 3.17157 14 4C14 4.82843 14.6716 5.5 15.5 5.5Z" fill="url(#paint1_linear_206_9718)"/>
<path id="Vector_5" d="M4 17C4.82843 17 5.5 16.3284 5.5 15.5C5.5 14.6716 4.82843 14 4 14C3.17157 14 2.5 14.6716 2.5 15.5C2.5 16.3284 3.17157 17 4 17Z" fill="url(#paint2_linear_206_9718)"/>
<path id="Vector_6" d="M15.5 17C16.3284 17 17 16.3284 17 15.5C17 14.6716 16.3284 14 15.5 14C14.6716 14 14 14.6716 14 15.5C14 16.3284 14.6716 17 15.5 17Z" fill="url(#paint3_linear_206_9718)"/>
<path id="Vector_7" d="M8.5 21.5C9.32843 21.5 10 20.8284 10 20C10 19.1716 9.32843 18.5 8.5 18.5C7.67157 18.5 7 19.1716 7 20C7 20.8284 7.67157 21.5 8.5 21.5Z" fill="url(#paint4_linear_206_9718)"/>
<path id="Vector_8" d="M20 21.5C20.8284 21.5 21.5 20.8284 21.5 20C21.5 19.1716 20.8284 18.5 20 18.5C19.1716 18.5 18.5 19.1716 18.5 20C18.5 20.8284 19.1716 21.5 20 21.5Z" fill="url(#paint5_linear_206_9718)"/>
<path id="Vector_9" d="M20 10C20.8284 10 21.5 9.32843 21.5 8.5C21.5 7.67157 20.8284 7 20 7C19.1716 7 18.5 7.67157 18.5 8.5C18.5 9.32843 19.1716 10 20 10Z" fill="url(#paint6_linear_206_9718)"/>
</g>
<defs>
<linearGradient id="paint0_linear_206_9718" x1="3.0055" y1="3.0055" x2="5.1065" y2="5.1065" gradientUnits="userSpaceOnUse">
<stop stop-color="#33BEF0"/>
<stop offset="1" stop-color="#0A85D9"/>
</linearGradient>
<linearGradient id="paint1_linear_206_9718" x1="14.5055" y1="3.0055" x2="16.606" y2="5.1065" gradientUnits="userSpaceOnUse">
<stop stop-color="#33BEF0"/>
<stop offset="1" stop-color="#0A85D9"/>
</linearGradient>
<linearGradient id="paint2_linear_206_9718" x1="3.0055" y1="14.5055" x2="5.1065" y2="16.606" gradientUnits="userSpaceOnUse">
<stop stop-color="#33BEF0"/>
<stop offset="1" stop-color="#0A85D9"/>
</linearGradient>
<linearGradient id="paint3_linear_206_9718" x1="14.5055" y1="14.5055" x2="16.606" y2="16.606" gradientUnits="userSpaceOnUse">
<stop stop-color="#33BEF0"/>
<stop offset="1" stop-color="#0A85D9"/>
</linearGradient>
<linearGradient id="paint4_linear_206_9718" x1="7.5055" y1="19.0055" x2="9.606" y2="21.106" gradientUnits="userSpaceOnUse">
<stop stop-color="#33BEF0"/>
<stop offset="1" stop-color="#0A85D9"/>
</linearGradient>
<linearGradient id="paint5_linear_206_9718" x1="19.0055" y1="19.0055" x2="21.106" y2="21.106" gradientUnits="userSpaceOnUse">
<stop stop-color="#33BEF0"/>
<stop offset="1" stop-color="#0A85D9"/>
</linearGradient>
<linearGradient id="paint6_linear_206_9718" x1="19.0055" y1="7.5055" x2="21.106" y2="9.606" gradientUnits="userSpaceOnUse">
<stop stop-color="#33BEF0"/>
<stop offset="1" stop-color="#0A85D9"/>
</linearGradient>
</defs>
</svg>
