<svg width="24" height="24" viewBox="0 0 24 24" fill="none" xmlns="http://www.w3.org/2000/svg">
<g id="unpin">
<path id="Vector" d="M4.55 20.75L2.9 21.1L3.25 19.45C3.25 19.35 3.3 19.25 3.4 19.2L9.2 13.4L10.6 14.8L4.8 20.6C4.75 20.65 4.65 20.7 4.55 20.75Z" fill="url(#paint0_linear_206_9735)"/>
<path id="Vector_2" d="M14.6 14.35L9.65 9.39999L17.15 3.54999L20.45 6.84999L14.6 14.35Z" fill="#6D75CF"/>
<path id="Vector_3" d="M8.68843 13.886L7.94598 14.6285L9.36022 16.0427L10.1027 15.3002L8.68843 13.886Z" fill="url(#paint1_linear_206_9735)"/>
<path id="Vector_4" d="M13.65 18.85L5.15 10.35L6.1 9.39998C7.25 8.24998 9.15 8.24998 10.35 9.39998L14.6 13.65C15.75 14.8 15.75 16.7 14.6 17.9L13.65 18.85Z" fill="#353C9F"/>
<path id="Vector_5" d="M18.95 8.35002L15.65 5.05002C15.25 4.65002 15.25 3.95002 15.65 3.55002L16 3.20002C16.4 2.80002 17.1 2.80002 17.5 3.20002L20.8 6.50002C21.2 6.90002 21.2 7.60002 20.8 8.00002L20.45 8.35002C20.05 8.75002 19.35 8.75002 18.95 8.35002Z" fill="url(#paint2_linear_206_9735)"/>
<path id="Vector_6" d="M22.45 21.35L2.65 1.55001C2.55 1.50001 2.45 1.50001 2.35 1.55001L1.55 2.35001C1.5 2.45001 1.5 2.55001 1.55 2.65001L21.35 22.45C21.4 22.5 21.55 22.5 21.6 22.45L22.4 21.65C22.5 21.55 22.5 21.45 22.45 21.35Z" fill="#E52030"/>
</g>
<defs>
<linearGradient id="paint0_linear_206_9735" x1="5.3277" y1="13.5182" x2="9.13526" y2="20.8595" gradientUnits="userSpaceOnUse">
<stop stop-color="#7DD8F3"/>
<stop offset="1" stop-color="#45B0D0"/>
</linearGradient>
<linearGradient id="paint1_linear_206_9735" x1="8.27888" y1="14.4189" x2="10.1536" y2="15.3289" gradientUnits="userSpaceOnUse">
<stop stop-color="#32BDEF"/>
<stop offset="1" stop-color="#1EA2E4"/>
</linearGradient>
<linearGradient id="paint2_linear_206_9735" x1="15.3475" y1="5.77202" x2="21.109" y2="5.77202" gradientUnits="userSpaceOnUse">
<stop stop-color="#464EB0"/>
<stop offset="1" stop-color="#343B9E"/>
</linearGradient>
</defs>
</svg>
