<svg width="24" height="24" viewBox="0 0 24 24" fill="none" xmlns="http://www.w3.org/2000/svg">
<g id="upload">
<path id="Vector" d="M15.8945 12.3945L12.5305 9.03048C12.2375 8.73748 11.7625 8.73748 11.47 9.03048L8.106 12.3945C7.882 12.618 8.0405 13 8.3565 13H10.5V21C10.5 21.276 10.724 21.5 11 21.5H13C13.276 21.5 13.5 21.276 13.5 21V13H15.6435C15.9595 13 16.118 12.618 15.8945 12.3945Z" fill="url(#paint0_linear_206_9742)"/>
<path id="Vector_2" d="M21.914 4.914L19.5 2.5V7.5C19.5 7.776 19.724 8 20 8H22C22.276 8 22.5 7.776 22.5 7.5V6.3285C22.5 5.798 22.2895 5.2895 21.914 4.914Z" fill="url(#paint1_linear_206_9742)"/>
<path id="Vector_3" d="M4.5 2.5L2.086 4.914C1.7105 5.2895 1.5 5.798 1.5 6.3285V7.5C1.5 7.776 1.724 8 2 8H4C4.276 8 4.5 7.776 4.5 7.5V2.5Z" fill="url(#paint2_linear_206_9742)"/>
<path id="Vector_4" d="M19.5 2.5H4.5V5.5H19.5V2.5Z" fill="url(#paint3_linear_206_9742)"/>
</g>
<defs>
<linearGradient id="paint0_linear_206_9742" x1="11.1275" y1="9.13448" x2="14.2725" y2="21.7815" gradientUnits="userSpaceOnUse">
<stop stop-color="#32BDEF"/>
<stop offset="1" stop-color="#1EA2E4"/>
</linearGradient>
<linearGradient id="paint1_linear_206_9742" x1="21" y1="2.2565" x2="21" y2="8.141" gradientUnits="userSpaceOnUse">
<stop stop-color="#32BDEF"/>
<stop offset="1" stop-color="#1EA2E4"/>
</linearGradient>
<linearGradient id="paint2_linear_206_9742" x1="3" y1="2.2565" x2="3" y2="8.141" gradientUnits="userSpaceOnUse">
<stop stop-color="#32BDEF"/>
<stop offset="1" stop-color="#1EA2E4"/>
</linearGradient>
<linearGradient id="paint3_linear_206_9742" x1="4.5" y1="4" x2="19.5" y2="4" gradientUnits="userSpaceOnUse">
<stop stop-color="#0362B0"/>
<stop offset="0.112" stop-color="#036ABD"/>
<stop offset="0.258" stop-color="#036FC5"/>
<stop offset="0.5" stop-color="#0370C8"/>
<stop offset="0.742" stop-color="#036FC5"/>
<stop offset="0.888" stop-color="#036ABD"/>
<stop offset="1" stop-color="#0362B0"/>
</linearGradient>
</defs>
</svg>
