<svg width="24" height="24" viewBox="0 0 24 24" fill="none" xmlns="http://www.w3.org/2000/svg">
<g id="upload-to-ftp">
<path id="Vector" d="M11.207 5.207L9.939 3.939C9.658 3.658 9.2765 3.5 8.8785 3.5H2.5C1.9475 3.5 1.5 3.9475 1.5 4.5V8.4L2.5 19.5H21.5V6.5L12.7895 5.5H11.9145C11.649 5.5 11.3945 5.3945 11.207 5.207Z" fill="url(#paint0_linear_206_9747)"/>
<path id="Vector_2" d="M10.293 7.207L11.927 5.573C11.9735 5.5265 12.037 5.5 12.1035 5.5H14.155L22.5 13.6935V19.5C22.5 20.0525 22.0525 20.5 21.5 20.5H2.5C1.9475 20.5 1.5 20.0525 1.5 19.5V7.75C1.5 7.612 1.612 7.5 1.75 7.5H9.586C9.851 7.5 10.1055 7.3945 10.293 7.207Z" fill="url(#paint1_linear_206_9747)"/>
<path id="Vector_3" opacity="0.05" d="M16.29 16.91C16.13 17.28 15.78 17.505 15.375 17.505H14V20.5H10V17.505H8.625C8.22 17.505 7.87 17.28 7.71 16.91C7.545 16.545 7.61 16.135 7.88 15.835L10.885 12.495C11.17 12.18 11.575 12 12 12C12.425 12 12.83 12.18 13.115 12.495L16.12 15.835C16.39 16.135 16.455 16.545 16.29 16.91Z" fill="black"/>
<path id="Vector_4" opacity="0.07" d="M16.06 16.81C15.94 17.085 15.68 17.255 15.375 17.255H13.75V20.5H10.25V17.255H8.625C8.32 17.255 8.06 17.085 7.94 16.81C7.815 16.535 7.865 16.225 8.065 16.005L11.07 12.665C11.31 12.4 11.645 12.25 12 12.25C12.355 12.25 12.69 12.4 12.93 12.665L15.935 16.005C16.135 16.225 16.185 16.535 16.06 16.81Z" fill="black"/>
<path id="Vector_5" d="M8.6225 17.005H10.5V22.005C10.5 22.281 10.724 22.505 11 22.505H13C13.276 22.505 13.5 22.281 13.5 22.005V17.005H15.3775C15.8105 17.005 16.0385 16.4925 15.749 16.1705L12.7435 12.831C12.3465 12.3895 11.654 12.3895 11.257 12.831L8.2515 16.1705C7.9615 16.4925 8.19 17.005 8.6225 17.005Z" fill="url(#paint2_linear_206_9747)"/>
<path id="Vector_6" opacity="0.05" d="M22.5 11.495V14.985C22.33 14.995 22.165 15 22 15C19.61 15 17.35 14.06 15.64 12.36C13.83 10.54 12.875 8.045 13.015 5.5H16.505V5.52C16.45 7.035 17 8.535 18.015 9.635C19.1 10.82 20.645 11.5 22.25 11.5C22.33 11.5 22.4 11.5 22.47 11.495H22.5Z" fill="black"/>
<path id="Vector_7" opacity="0.07" d="M22.5 11.745V14.735C22.33 14.745 22.165 14.75 22 14.75C19.675 14.75 17.48 13.84 15.82 12.18C14.055 10.415 13.125 7.98 13.265 5.5H16.255V5.51C16.195 7.09 16.77 8.655 17.83 9.805C18.965 11.04 20.575 11.75 22.25 11.75H22.265C22.335 11.75 22.41 11.75 22.485 11.745H22.5Z" fill="black"/>
<path id="Vector_8" d="M15.995 12.005C14.346 10.3505 13.368 8.037 13.5145 5.5H16.005C15.945 7.145 16.53 8.765 17.645 9.975C18.825 11.26 20.505 12 22.25 12C22.33 12 22.415 12 22.5 11.995V14.4855C19.963 14.632 17.6495 13.654 15.995 12.005Z" fill="url(#paint3_linear_206_9747)"/>
<path id="Vector_9" d="M15.5 5.75C15.5 5.665 15.5 5.58 15.505 5.5H18.01C17.945 6.65 18.345 7.78 19.115 8.625C19.92 9.5 21.06 10 22.25 10C22.335 10 22.415 10 22.5 9.99V12.495C22.42 12.5 22.335 12.5 22.25 12.5C18.53 12.5 15.5 9.47 15.5 5.75Z" fill="#199AE0"/>
<path id="Vector_10" d="M17.5 5.75C17.5 5.665 17.5 5.585 17.505 5.5H20.045C20.145 6.13 20.445 6.69 20.88 7.12C21.31 7.555 21.87 7.855 22.5 7.955V10.495C22.415 10.5 22.335 10.5 22.25 10.5C19.63 10.5 17.5 8.37 17.5 5.75Z" fill="#199AE0"/>
<path id="Vector_11" d="M19.5105 5.504C19.512 5.5025 19.513 5.5015 19.515 5.5H21.5C22.0525 5.5 22.5 5.9465 22.5 6.499V8.471C22.498 8.489 22.498 8.489 22.496 8.4895C20.7825 8.638 19.362 7.218 19.5105 5.504Z" fill="url(#paint4_linear_206_9747)"/>
</g>
<defs>
<linearGradient id="paint0_linear_206_9747" x1="11.5" y1="3.3625" x2="11.5" y2="7.254" gradientUnits="userSpaceOnUse">
<stop stop-color="#EBA600"/>
<stop offset="1" stop-color="#C28200"/>
</linearGradient>
<linearGradient id="paint1_linear_206_9747" x1="12" y1="5.427" x2="12" y2="20.4915" gradientUnits="userSpaceOnUse">
<stop stop-color="#FFD869"/>
<stop offset="1" stop-color="#FEC52B"/>
</linearGradient>
<linearGradient id="paint2_linear_206_9747" x1="14.9575" y1="22.4345" x2="9.6845" y2="12.9525" gradientUnits="userSpaceOnUse">
<stop stop-color="#007AD9"/>
<stop offset="1" stop-color="#2AA4F4"/>
</linearGradient>
<linearGradient id="paint3_linear_206_9747" x1="18" y1="5.48112" x2="18" y2="14.4675" gradientUnits="userSpaceOnUse">
<stop stop-color="#2AA4F4"/>
<stop offset="1" stop-color="#007AD9"/>
</linearGradient>
<linearGradient id="paint4_linear_206_9747" x1="20.9999" y1="5.49371" x2="20.9999" y2="8.48935" gradientUnits="userSpaceOnUse">
<stop stop-color="#2AA4F4"/>
<stop offset="1" stop-color="#007AD9"/>
</linearGradient>
</defs>
</svg>
