<svg width="24" height="24" viewBox="0 0 24 24" fill="none" xmlns="http://www.w3.org/2000/svg">
<g id="user-manual">
<path id="Vector" d="M21.5 4H12V20H21.5C22.0525 20 22.5 19.5525 22.5 19V5C22.5 4.4475 22.0525 4 21.5 4Z" fill="#0078D4"/>
<path id="Vector_2" d="M12 4H2.5C1.9475 4 1.5 4.4475 1.5 5V19C1.5 19.5525 1.9475 20 2.5 20H12V4Z" fill="#1B9DE2"/>
<path id="Vector_3" d="M10.5 19C10.5 19.8285 11.1715 20.5 12 20.5V17.5C11.1715 17.5 10.5 18.1715 10.5 19Z" fill="#1B9DE2"/>
<path id="Vector_4" d="M13.5 19C13.5 18.1715 12.8285 17.5 12 17.5V20.5C12.8285 20.5 13.5 19.8285 13.5 19Z" fill="#0078D4"/>
<path id="Vector_5" d="M12 4H3C2.724 4 2.5 4.224 2.5 4.5V18.5C2.5 18.776 2.724 19 3 19H12V4Z" fill="white"/>
<path id="Vector_6" d="M21 4H12V19H21C21.276 19 21.5 18.776 21.5 18.5V4.5C21.5 4.224 21.276 4 21 4Z" fill="#F0F0F0"/>
<path id="Vector_7" d="M10.25 7H4.25C4.112 7 4 6.888 4 6.75V6.25C4 6.112 4.112 6 4.25 6H10.25C10.388 6 10.5 6.112 10.5 6.25V6.75C10.5 6.888 10.388 7 10.25 7Z" fill="url(#paint0_linear_206_9795)"/>
<path id="Vector_8" d="M10.25 9H4.25C4.112 9 4 8.888 4 8.75V8.25C4 8.112 4.112 8 4.25 8H10.25C10.388 8 10.5 8.112 10.5 8.25V8.75C10.5 8.888 10.388 9 10.25 9Z" fill="url(#paint1_linear_206_9795)"/>
<path id="Vector_9" d="M10.25 11H4.25C4.112 11 4 10.888 4 10.75V10.25C4 10.112 4.112 10 4.25 10H10.25C10.388 10 10.5 10.112 10.5 10.25V10.75C10.5 10.888 10.388 11 10.25 11Z" fill="url(#paint2_linear_206_9795)"/>
<path id="Vector_10" d="M10.25 13H4.25C4.112 13 4 12.888 4 12.75V12.25C4 12.112 4.112 12 4.25 12H10.25C10.388 12 10.5 12.112 10.5 12.25V12.75C10.5 12.888 10.388 13 10.25 13Z" fill="url(#paint3_linear_206_9795)"/>
<path id="Vector_11" d="M10.25 15H4.25C4.112 15 4 14.888 4 14.75V14.25C4 14.112 4.112 14 4.25 14H10.25C10.388 14 10.5 14.112 10.5 14.25V14.75C10.5 14.888 10.388 15 10.25 15Z" fill="url(#paint4_linear_206_9795)"/>
<path id="Vector_12" d="M9.25 17H4.25C4.112 17 4 16.888 4 16.75V16.25C4 16.112 4.112 16 4.25 16H9.25C9.388 16 9.5 16.112 9.5 16.25V16.75C9.5 16.888 9.388 17 9.25 17Z" fill="url(#paint5_linear_206_9795)"/>
<path id="Vector_13" d="M16.5 8.366C17.35 8.366 17.825 7.832 17.825 7.172C17.825 6.512 17.3235 6 16.5 6C15.6765 6 15.175 6.512 15.175 7.172C15.175 7.832 15.65 8.366 16.5 8.366Z" fill="#0D62AB"/>
<path id="Vector_14" d="M17.5 9.5H15.5V17H17.5V9.5Z" fill="#0D62AB"/>
</g>
<defs>
<linearGradient id="paint0_linear_206_9795" x1="6.37478" y1="6.04359" x2="6.4056" y2="7.14543" gradientUnits="userSpaceOnUse">
<stop stop-color="#32BDEF"/>
<stop offset="1" stop-color="#1EA2E4"/>
</linearGradient>
<linearGradient id="paint1_linear_206_9795" x1="6.37478" y1="8.04359" x2="6.4056" y2="9.14543" gradientUnits="userSpaceOnUse">
<stop stop-color="#32BDEF"/>
<stop offset="1" stop-color="#1EA2E4"/>
</linearGradient>
<linearGradient id="paint2_linear_206_9795" x1="6.37478" y1="10.0436" x2="6.4056" y2="11.1454" gradientUnits="userSpaceOnUse">
<stop stop-color="#32BDEF"/>
<stop offset="1" stop-color="#1EA2E4"/>
</linearGradient>
<linearGradient id="paint3_linear_206_9795" x1="6.37478" y1="12.0436" x2="6.4056" y2="13.1454" gradientUnits="userSpaceOnUse">
<stop stop-color="#32BDEF"/>
<stop offset="1" stop-color="#1EA2E4"/>
</linearGradient>
<linearGradient id="paint4_linear_206_9795" x1="6.37478" y1="14.0436" x2="6.4056" y2="15.1454" gradientUnits="userSpaceOnUse">
<stop stop-color="#32BDEF"/>
<stop offset="1" stop-color="#1EA2E4"/>
</linearGradient>
<linearGradient id="paint5_linear_206_9795" x1="6.00943" y1="16.0436" x2="6.04584" y2="17.1451" gradientUnits="userSpaceOnUse">
<stop stop-color="#32BDEF"/>
<stop offset="1" stop-color="#1EA2E4"/>
</linearGradient>
</defs>
</svg>
