<svg width="20" height="20" viewBox="0 0 20 20" fill="none" xmlns="http://www.w3.org/2000/svg">
<g id="user">
<path id="Vector" d="M10 13.0556C12.9148 13.0556 15.2778 10.6926 15.2778 7.77778C15.2778 4.86294 12.9148 2.5 10 2.5C7.08517 2.5 4.72223 4.86294 4.72223 7.77778C4.72223 10.6926 7.08517 13.0556 10 13.0556Z" fill="url(#paint0_radial_208_5451)"/>
<path id="Vector_2" d="M9.99999 11.6667C12.4546 11.6667 14.4444 9.67681 14.4444 7.22222C14.4444 4.76762 12.4546 2.77777 9.99999 2.77777C7.54539 2.77777 5.55554 4.76762 5.55554 7.22222C5.55554 9.67681 7.54539 11.6667 9.99999 11.6667Z" fill="url(#paint1_linear_208_5451)"/>
<path id="Vector_3" d="M1.18777 20H18.8122C18.2644 15.6167 14.5322 12.2222 10 12.2222C5.46777 12.2222 1.73555 15.6167 1.18777 20Z" fill="url(#paint2_radial_208_5451)"/>
<path id="Vector_4" d="M2.31055 20H17.6894C17.1489 16.2322 13.9172 13.3333 9.99999 13.3333C6.08277 13.3333 2.8511 16.2322 2.31055 20Z" fill="url(#paint3_linear_208_5451)"/>
</g>
<defs>
<radialGradient id="paint0_radial_208_5451" cx="0" cy="0" r="1" gradientUnits="userSpaceOnUse" gradientTransform="translate(10 7.77778) scale(5.27778)">
<stop/>
<stop offset="1" stop-opacity="0"/>
</radialGradient>
<linearGradient id="paint1_linear_208_5451" x1="6.98499" y1="4.20722" x2="13.1861" y2="10.4083" gradientUnits="userSpaceOnUse">
<stop stop-color="#75DAFF"/>
<stop offset="1" stop-color="#1EA2E4"/>
</linearGradient>
<radialGradient id="paint2_radial_208_5451" cx="0" cy="0" r="1" gradientUnits="userSpaceOnUse" gradientTransform="translate(10 21.2022) scale(8.99944)">
<stop/>
<stop offset="1" stop-opacity="0"/>
</radialGradient>
<linearGradient id="paint3_linear_208_5451" x1="5.78555" y1="14.6895" x2="14.4533" y2="23.3572" gradientUnits="userSpaceOnUse">
<stop stop-color="#75DAFF"/>
<stop offset="1" stop-color="#1EA2E4"/>
</linearGradient>
</defs>
</svg>
