<svg width="24" height="24" viewBox="0 0 24 24" fill="none" xmlns="http://www.w3.org/2000/svg">
<g id="vector">
<path id="Vector" d="M4.012 15.25C4.0095 15.1645 4.008 15.0785 4.008 14.992C4.008 10.578 7.586 7 12 7C16.414 7 19.992 10.578 19.992 14.992C19.992 15.0785 19.9905 15.164 19.988 15.25" stroke="#ABB4BE" stroke-miterlimit="10" stroke-linecap="round" stroke-linejoin="round"/>
<path id="Vector_2" d="M2.25 7.25H21.25" stroke="#ABB4BE" stroke-miterlimit="10" stroke-linecap="round" stroke-linejoin="round"/>
<path id="Vector_3" d="M13.5 9.75H10.5C9.95 9.75 9.5 9.3 9.5 8.75V5.75C9.5 5.2 9.95 4.75 10.5 4.75H13.5C14.05 4.75 14.5 5.2 14.5 5.75V8.75C14.5 9.3 14.05 9.75 13.5 9.75Z" fill="url(#paint0_linear_206_9820)"/>
<path id="Vector_4" d="M21.5 20.25H18.5C17.95 20.25 17.5 19.8 17.5 19.25V16.25C17.5 15.7 17.95 15.25 18.5 15.25H21.5C22.05 15.25 22.5 15.7 22.5 16.25V19.25C22.5 19.8 22.05 20.25 21.5 20.25Z" fill="url(#paint1_linear_206_9820)"/>
<path id="Vector_5" d="M5.5 20.25H2.5C1.95 20.25 1.5 19.8 1.5 19.25V16.25C1.5 15.7 1.95 15.25 2.5 15.25H5.5C6.05 15.25 6.5 15.7 6.5 16.25V19.25C6.5 19.8 6.05 20.25 5.5 20.25Z" fill="url(#paint2_linear_206_9820)"/>
<path id="Vector_6" d="M22 8.75C22.8284 8.75 23.5 8.07843 23.5 7.25C23.5 6.42157 22.8284 5.75 22 5.75C21.1716 5.75 20.5 6.42157 20.5 7.25C20.5 8.07843 21.1716 8.75 22 8.75Z" fill="url(#paint3_linear_206_9820)"/>
<path id="Vector_7" d="M2 8.75C2.82843 8.75 3.5 8.07843 3.5 7.25C3.5 6.42157 2.82843 5.75 2 5.75C1.17157 5.75 0.5 6.42157 0.5 7.25C0.5 8.07843 1.17157 8.75 2 8.75Z" fill="url(#paint4_linear_206_9820)"/>
</g>
<defs>
<linearGradient id="paint0_linear_206_9820" x1="11.2925" y1="4.6105" x2="12.624" y2="9.5795" gradientUnits="userSpaceOnUse">
<stop stop-color="#2AA4F4"/>
<stop offset="1" stop-color="#007AD9"/>
</linearGradient>
<linearGradient id="paint1_linear_206_9820" x1="19.293" y1="15.1105" x2="20.624" y2="20.0795" gradientUnits="userSpaceOnUse">
<stop stop-color="#2AA4F4"/>
<stop offset="1" stop-color="#007AD9"/>
</linearGradient>
<linearGradient id="paint2_linear_206_9820" x1="3.2925" y1="15.1105" x2="4.624" y2="20.0795" gradientUnits="userSpaceOnUse">
<stop stop-color="#2AA4F4"/>
<stop offset="1" stop-color="#007AD9"/>
</linearGradient>
<linearGradient id="paint3_linear_206_9820" x1="21.0055" y1="6.2555" x2="23.106" y2="8.356" gradientUnits="userSpaceOnUse">
<stop stop-color="#33BEF0"/>
<stop offset="1" stop-color="#0A85D9"/>
</linearGradient>
<linearGradient id="paint4_linear_206_9820" x1="1.0055" y1="6.2555" x2="3.106" y2="8.356" gradientUnits="userSpaceOnUse">
<stop stop-color="#33BEF0"/>
<stop offset="1" stop-color="#0A85D9"/>
</linearGradient>
</defs>
</svg>
