<svg width="24" height="24" viewBox="0 0 24 24" fill="none" xmlns="http://www.w3.org/2000/svg">
<g id="video-call">
<path id="Vector" d="M22.292 6.54547L17 9.49997V12H23V6.99997L22.292 6.54547Z" fill="#0E6F38"/>
<path id="Vector_2" d="M16 19H2C1.4475 19 1 18.5525 1 18V6C1 5.4475 1.4475 5 2 5H16C16.5525 5 17 5.4475 17 6V18C17 18.5525 16.5525 19 16 19Z" fill="url(#paint0_linear_206_9833)"/>
<path id="Vector_3" d="M22.5 7.5C22.7761 7.5 23 7.27614 23 7C23 6.72386 22.7761 6.5 22.5 6.5C22.2239 6.5 22 6.72386 22 7C22 7.27614 22.2239 7.5 22.5 7.5Z" fill="#0E6F38"/>
<path id="Vector_4" d="M22.292 17.4545L17 14.5V12H23V17L22.292 17.4545Z" fill="#0E6F38"/>
<path id="Vector_5" d="M22.5 17.5C22.7761 17.5 23 17.2761 23 17C23 16.7239 22.7761 16.5 22.5 16.5C22.2239 16.5 22 16.7239 22 17C22 17.2761 22.2239 17.5 22.5 17.5Z" fill="#0E6F38"/>
</g>
<defs>
<linearGradient id="paint0_linear_206_9833" x1="8.1215" y1="5.479" x2="9.983" y2="19.296" gradientUnits="userSpaceOnUse">
<stop stop-color="#21AD64"/>
<stop offset="1" stop-color="#149753"/>
</linearGradient>
</defs>
</svg>
