<svg width="24" height="24" viewBox="0 0 24 24" fill="none" xmlns="http://www.w3.org/2000/svg">
<g id="video-playlist">
<path id="Vector" d="M20 3H4C3.4475 3 3 3.4475 3 4V7H21V4C21 3.4475 20.5525 3 20 3Z" fill="url(#paint0_linear_206_9857)"/>
<path id="Vector_2" d="M20.5 5H3.5C2.9475 5 2.5 5.4475 2.5 6V8.5H21.5V6C21.5 5.4475 21.0525 5 20.5 5Z" fill="url(#paint1_linear_206_9857)"/>
<path id="Vector_3" d="M21 7H3C2.4475 7 2 7.4475 2 8V20C2 20.5525 2.4475 21 3 21H21C21.5525 21 22 20.5525 22 20V8C22 7.4475 21.5525 7 21 7Z" fill="url(#paint2_linear_206_9857)"/>
<path id="Vector_4" opacity="0.05" d="M15.9205 13.552C15.9205 13.552 11.3535 10.4975 10.8045 10.1415C10.2555 9.78499 9.5 10.0445 9.5 10.8395V17.482C9.5 18.378 10.241 18.729 10.804 18.3585C11.3675 17.9885 15.92 14.948 15.92 14.948C16.154 14.792 16.2935 14.531 16.2935 14.25C16.294 13.969 16.1545 13.708 15.9205 13.552Z" fill="black"/>
<path id="Vector_5" opacity="0.07" d="M10.7215 10.3555L13.2525 12.043L15.5175 13.553C15.9035 13.8415 16.026 13.9905 16.026 14.25C16.026 14.4515 15.9625 14.6505 15.7835 14.77L13.2525 16.4575L10.7215 18.145C10.577 18.2415 9.75 18.5325 9.75 17.2735V14.25V11.2265C9.75 9.95802 10.456 10.1785 10.7215 10.3555Z" fill="black"/>
<path id="Vector_6" d="M10 17.5885V10.9115C10 10.5835 10.3655 10.388 10.6385 10.57L15.6465 13.9085C15.8905 14.071 15.8905 14.429 15.6465 14.592L10.6385 17.9305C10.3655 18.1125 10 17.9165 10 17.5885Z" fill="white"/>
</g>
<defs>
<linearGradient id="paint0_linear_206_9857" x1="12" y1="3.0925" x2="12" y2="6.889" gradientUnits="userSpaceOnUse">
<stop stop-color="#0D61A9"/>
<stop offset="1" stop-color="#16528C"/>
</linearGradient>
<linearGradient id="paint1_linear_206_9857" x1="12" y1="5.033" x2="12" y2="8.5675" gradientUnits="userSpaceOnUse">
<stop stop-color="#199AE0"/>
<stop offset="1" stop-color="#0782D8"/>
</linearGradient>
<linearGradient id="paint2_linear_206_9857" x1="10.235" y1="6.7635" x2="13.627" y2="20.67" gradientUnits="userSpaceOnUse">
<stop stop-color="#32BDEF"/>
<stop offset="1" stop-color="#1EA2E4"/>
</linearGradient>
</defs>
</svg>
