<svg width="24" height="24" viewBox="0 0 24 24" fill="none" xmlns="http://www.w3.org/2000/svg">
<g id="video-camera">
<path id="Vector" d="M19 3H13V4H19V3Z" fill="#58646E"/>
<path id="Vector_2" d="M13.5 4.5C13.771 4.5 14 4.729 14 5V7.0855L6.979 7.0185L8.2205 4.761C8.285 4.642 8.4115 4.5 8.65 4.5H13.5ZM13.5 3H8.65C7.9 3 7.25 3.4 6.9 4.05L5.25 7.05L5 8.5L15.5 8.6V5C15.5 3.9 14.6 3 13.5 3Z" fill="url(#paint0_linear_206_9839)"/>
<path id="Vector_3" d="M16.5 20H1.5C0.95 20 0.5 19.55 0.5 19V8C0.5 7.45 0.95 7 1.5 7H16.5C17.05 7 17.5 7.45 17.5 8V19C17.5 19.55 17.05 20 16.5 20Z" fill="url(#paint1_linear_206_9839)"/>
<path id="Vector_4" d="M19.5 16.5L21.707 18.707C21.8945 18.8945 22.149 19 22.414 19H23V8H22.414C22.149 8 21.8945 8.1055 21.707 8.293L19.5 10.5V16.5Z" fill="url(#paint2_linear_206_9839)"/>
<path id="Vector_5" d="M22.5 19H23C23.276 19 23.5 18.776 23.5 18.5V8.5C23.5 8.224 23.276 8 23 8H22.5C22.224 8 22 8.224 22 8.5V18.5C22 18.776 22.224 19 22.5 19Z" fill="url(#paint3_linear_206_9839)"/>
<path id="Vector_6" d="M19.5 10.5H17.5V16.5H19.5V10.5Z" fill="#58646E"/>
<path id="Vector_7" d="M19.5 4.5H18.1665C17.9665 4.5 17.833 4.3665 17.833 4.1665V2.8335C17.833 2.6335 17.9665 2.5 18.1665 2.5H19.5C20.0665 2.5 20.5 2.9335 20.5 3.5C20.5 4.0665 20.0665 4.5 19.5 4.5Z" fill="url(#paint4_linear_206_9839)"/>
<path id="Vector_8" d="M11.5 18H4.5C3.3955 18 2.5 17.1045 2.5 16V11C2.5 9.8955 3.3955 9 4.5 9H11.5C12.6045 9 13.5 9.8955 13.5 11V16C13.5 17.1045 12.6045 18 11.5 18Z" fill="url(#paint5_linear_206_9839)"/>
<path id="Vector_9" d="M11.5 10H4.5C3.9475 10 3.5 10.4475 3.5 11V15.5C3.5 16.3285 4.1715 17 5 17H11.274C11.951 17 12.5 16.451 12.5 15.774V11C12.5 10.4475 12.0525 10 11.5 10Z" fill="url(#paint6_radial_206_9839)"/>
<path id="Vector_10" d="M12.5 15.744L9.81 13.054C9.521 12.765 9.0545 12.759 8.758 13.04L6.5 15.1785V17H11.5C12.0525 17 12.5 16.5525 12.5 16V15.744Z" fill="#436DCD"/>
<path id="Vector_11" d="M11.5 17L6.8605 12.3605C6.508 12.008 5.939 12.0005 5.577 12.343L3.5 14.311V16C3.5 16.5525 3.9475 17 4.5 17H11.5Z" fill="url(#paint7_linear_206_9839)"/>
<path id="Vector_12" d="M10.5 12C10.7761 12 11 11.7761 11 11.5C11 11.2239 10.7761 11 10.5 11C10.2239 11 10 11.2239 10 11.5C10 11.7761 10.2239 12 10.5 12Z" fill="white"/>
</g>
<defs>
<linearGradient id="paint0_linear_206_9839" x1="10.25" y1="3" x2="10.25" y2="8.6" gradientUnits="userSpaceOnUse">
<stop stop-color="#889097"/>
<stop offset="1" stop-color="#64717C"/>
</linearGradient>
<linearGradient id="paint1_linear_206_9839" x1="9" y1="7.103" x2="9" y2="19.959" gradientUnits="userSpaceOnUse">
<stop stop-color="#889097"/>
<stop offset="1" stop-color="#64717C"/>
</linearGradient>
<linearGradient id="paint2_linear_206_9839" x1="17.7605" y1="13.5" x2="21.7145" y2="13.5" gradientUnits="userSpaceOnUse">
<stop stop-color="#889097"/>
<stop offset="1" stop-color="#64717C"/>
</linearGradient>
<linearGradient id="paint3_linear_206_9839" x1="22.75" y1="7.915" x2="22.75" y2="19.0985" gradientUnits="userSpaceOnUse">
<stop stop-color="#889097"/>
<stop offset="1" stop-color="#64717C"/>
</linearGradient>
<linearGradient id="paint4_linear_206_9839" x1="19.1665" y1="2.528" x2="19.1665" y2="4.5185" gradientUnits="userSpaceOnUse">
<stop stop-color="#889097"/>
<stop offset="1" stop-color="#64717C"/>
</linearGradient>
<linearGradient id="paint5_linear_206_9839" x1="8" y1="6.9815" x2="8" y2="20.0275" gradientUnits="userSpaceOnUse">
<stop stop-color="#9EA7B0"/>
<stop offset="1" stop-color="#6F7D8A"/>
</linearGradient>
<radialGradient id="paint6_radial_206_9839" cx="0" cy="0" r="1" gradientUnits="userSpaceOnUse" gradientTransform="translate(14.1195 15.926) scale(5.2365)">
<stop stop-color="#BD8AF5"/>
<stop offset="0.137" stop-color="#B88BF5"/>
<stop offset="0.309" stop-color="#A88FF3"/>
<stop offset="0.499" stop-color="#8F96F2"/>
<stop offset="0.702" stop-color="#6B9EEF"/>
<stop offset="0.913" stop-color="#3EAAEC"/>
<stop offset="1" stop-color="#29AFEA"/>
</radialGradient>
<linearGradient id="paint7_linear_206_9839" x1="7.5" y1="12.08" x2="7.5" y2="17.0855" gradientUnits="userSpaceOnUse">
<stop stop-color="#124787"/>
<stop offset="0.923" stop-color="#173B75"/>
<stop offset="1" stop-color="#173A73"/>
</linearGradient>
</defs>
</svg>
