<svg width="24" height="24" viewBox="0 0 24 24" fill="none" xmlns="http://www.w3.org/2000/svg">
<g id="view-module">
<path id="Vector" d="M8.5 3.5L1.5 12V19.5C1.5 20 2 20.5 2.5 20.5H17H17.75H21.5C22.0525 20.5 22.5 20 22.5 19.5V12L15.5 3.5H8.5Z" fill="url(#paint0_linear_206_9873)"/>
<path id="Vector_2" opacity="0.05" d="M1.5 11.5H8V3.5H9V11.5H15V3.5H16V11.5H22.5V12.5H16V20.5H15V12.5H9V20.5H8V12.5H1.5V11.5Z" fill="black"/>
<path id="Vector_3" opacity="0.05" d="M8.75 3.5V11.75H15.25V3.5H15.75V11.75H22.5V12.25H15.75V20.5H15.25V12.25H8.75V20.5H8.25V12.25H1.5V11.75H8.25V3.5H8.75Z" fill="black"/>
<path id="Vector_4" d="M8.5 12V3.5H2.5C1.9475 3.5 1.5 3.9475 1.5 4.5V12H8.5Z" fill="url(#paint1_linear_206_9873)"/>
<path id="Vector_5" d="M15.5 12H8.5V20.5H15.5V12Z" fill="url(#paint2_linear_206_9873)"/>
<path id="Vector_6" d="M22.5 12V4.5C22.5 3.9475 22.0525 3.5 21.5 3.5H15.5V12H22.5Z" fill="url(#paint3_linear_206_9873)"/>
</g>
<defs>
<linearGradient id="paint0_linear_206_9873" x1="10.9055" y1="21.994" x2="14.207" y2="3.272" gradientUnits="userSpaceOnUse">
<stop stop-color="#007AD9"/>
<stop offset="1" stop-color="#2AA4F4"/>
</linearGradient>
<linearGradient id="paint1_linear_206_9873" x1="4.195" y1="3.1855" x2="5.8325" y2="12.4705" gradientUnits="userSpaceOnUse">
<stop stop-color="#A3FFFF"/>
<stop offset="0.223" stop-color="#9DFBFF"/>
<stop offset="0.53" stop-color="#8BF1FF"/>
<stop offset="0.885" stop-color="#6EE0FF"/>
<stop offset="1" stop-color="#63DAFF"/>
</linearGradient>
<linearGradient id="paint2_linear_206_9873" x1="11.1675" y1="11.5295" x2="12.8325" y2="20.9705" gradientUnits="userSpaceOnUse">
<stop stop-color="#A3FFFF"/>
<stop offset="0.223" stop-color="#9DFBFF"/>
<stop offset="0.53" stop-color="#8BF1FF"/>
<stop offset="0.885" stop-color="#6EE0FF"/>
<stop offset="1" stop-color="#63DAFF"/>
</linearGradient>
<linearGradient id="paint3_linear_206_9873" x1="18.0895" y1="3.0435" x2="19.7545" y2="12.484" gradientUnits="userSpaceOnUse">
<stop stop-color="#A3FFFF"/>
<stop offset="0.223" stop-color="#9DFBFF"/>
<stop offset="0.53" stop-color="#8BF1FF"/>
<stop offset="0.885" stop-color="#6EE0FF"/>
<stop offset="1" stop-color="#63DAFF"/>
</linearGradient>
</defs>
</svg>
