<svg width="24" height="24" viewBox="0 0 24 24" fill="none" xmlns="http://www.w3.org/2000/svg">
<g id="visa">
<path id="Vector" d="M21.5625 4.5H2.4375C1.6435 4.5 1 5.1435 1 5.9375V18.0625C1 18.8565 1.6435 19.5 2.4375 19.5H21.5625C22.3565 19.5 23 18.8565 23 18.0625V5.9375C23 5.1435 22.3565 4.5 21.5625 4.5Z" fill="url(#paint0_linear_206_9880)"/>
<path id="Vector_2" opacity="0.05" d="M12.8665 15.5C12.1785 15.493 11.443 15.3545 10.9905 15.146L10.6615 14.9945L10.5725 15.4095H8.0485L8.9705 11.099L7.1645 15.4095H4.8585L3.5635 10.403C3.533 10.2835 3.5185 10.251 3.512 10.243C3.509 10.24 3.495 10.231 3.4525 10.2075C3.1655 10.0515 2.649 9.8815 2.1035 9.7625L1.618 9.657L1.84 8.6055H4.8C5.39 8.6055 5.8655 9.0055 5.9825 9.6L6.2955 11.263L7.3475 8.6055H12.0275L11.837 9.5C12.3645 8.8775 13.2595 8.5 14.3555 8.5C14.8915 8.5 15.392 8.5915 15.931 8.788L16.34 8.9375L15.8545 11.2025L15.287 10.942C14.877 10.753 14.5095 10.7135 14.274 10.7135C14.1915 10.7135 14.1255 10.719 14.081 10.7245C14.0485 10.7285 14.0195 10.734 13.9945 10.74C14.1085 10.81 14.26 10.8905 14.351 10.938C14.888 11.2195 15.65 11.619 15.9 12.4325L17.196 9.3385C17.3855 8.887 17.807 8.606 18.296 8.606H19.984L21.405 15.4095H18.995L18.8135 14.543H17.6445L17.331 15.4095H14.653L14.814 15.025C14.299 15.3295 13.6355 15.5 12.869 15.5H12.8665ZM11.683 12.9675C12.035 13.1325 12.3665 13.288 12.9545 13.288L13.0065 13.2875C13.1625 13.285 13.3035 13.249 13.3755 13.214C13.317 13.167 13.189 13.0815 12.9135 12.9475C12.1065 12.555 11.603 12.0685 11.409 11.4965L11.148 12.7185L11.683 12.9675Z" fill="black"/>
<path id="Vector_3" opacity="0.07" d="M12.8665 15.25C12.2135 15.2435 11.5185 15.114 11.095 14.919L10.9135 14.8355L11.293 13.061L11.5775 13.194C11.936 13.362 12.311 13.538 12.9545 13.538L13.009 13.5375C13.2695 13.5335 13.659 13.4445 13.662 13.2165C13.663 13.1225 13.586 12.9965 13.0235 12.7225C12.66 12.5455 11.555 12.0065 11.5695 10.915C11.579 9.64099 12.725 8.75049 14.3555 8.75049C14.862 8.75049 15.3355 8.83749 15.8455 9.02349L16.05 9.09799L15.6755 10.8455L15.392 10.715C14.9405 10.507 14.535 10.4635 14.2745 10.4635C14.178 10.4635 14.1005 10.47 14.049 10.4765C13.7445 10.516 13.631 10.644 13.629 10.72C13.6265 10.839 13.965 11.017 14.237 11.16C14.8705 11.492 15.7375 11.9475 15.733 13.0155C15.727 14.352 14.5765 15.25 12.869 15.25H12.8665ZM19.198 15.1595L19.0165 14.293H17.469L17.1555 15.1595H15.0285L17.4265 9.43499C17.5765 9.07749 17.91 8.85599 18.296 8.85599H19.781L21.0975 15.1595H19.198ZM18.6635 12.603L18.4515 11.5865L18.0825 12.603H18.6635ZM8.358 15.1595L9.7065 8.85599H11.7185L10.3705 15.1595H8.358ZM5.05201 15.1595L3.80601 10.3405C3.744 10.0975 3.714 10.0645 3.57201 9.98749C3.26601 9.82099 2.72401 9.64149 2.15701 9.51849L1.91451 9.46599L2.0435 8.85599H4.80101C5.26801 8.85599 5.64501 9.17449 5.73851 9.64899L6.21101 12.1595L7.51801 8.85599H9.6405L6.9985 15.1595H5.05201Z" fill="black"/>
<path id="Vector_4" d="M11.819 10.918C11.8085 11.754 12.564 12.22 13.133 12.4975C13.7175 12.782 13.914 12.9645 13.912 13.219C13.9075 13.6085 13.4455 13.7805 13.013 13.787C12.2585 13.7985 11.82 13.5835 11.4715 13.4205L11.2 14.692C11.55 14.853 12.1975 14.994 12.8695 15C14.446 15 15.478 14.2215 15.4835 13.015C15.4895 11.4835 13.365 11.3985 13.3795 10.714C13.3845 10.5065 13.5825 10.285 14.0165 10.2285C14.2315 10.2 14.8245 10.1785 15.4965 10.488L15.7605 9.258C15.399 9.126 14.934 9 14.3555 9C12.8715 9 11.8275 9.789 11.819 10.918ZM18.296 9.106C18.008 9.106 17.7655 9.274 17.657 9.5315L15.405 14.9095H16.9805L17.294 14.043H19.2195L19.4015 14.9095H20.79L19.578 9.106H18.296ZM18.5165 10.674L18.971 12.8535H17.7255L18.5165 10.674ZM9.90901 9.106L8.66701 14.9095H10.1685L11.41 9.106H9.90901ZM7.68751 9.106L6.12451 13.056L5.49251 9.6975C5.41851 9.3225 5.12551 9.106 4.80001 9.106H2.24501L2.21001 9.2745C2.73451 9.3885 3.33051 9.572 3.69151 9.7685C3.91251 9.8885 3.97551 9.9935 4.04801 10.2785L5.24551 14.91H6.83251L9.26501 9.1065L7.68751 9.106Z" fill="white"/>
</g>
<defs>
<linearGradient id="paint0_linear_206_9880" x1="10.1875" y1="5.5305" x2="14.374" y2="20.473" gradientUnits="userSpaceOnUse">
<stop stop-color="#00B3EE"/>
<stop offset="1" stop-color="#0082D8"/>
</linearGradient>
</defs>
</svg>
