<svg width="24" height="24" viewBox="0 0 24 24" fill="none" xmlns="http://www.w3.org/2000/svg">
<g id="web-application-firewall">
<path id="Vector" d="M2 19V7.5H22V19C22 19.55 21.55 20 21 20H3C2.45 20 2 19.55 2 19Z" fill="url(#paint0_linear_206_9903)"/>
<path id="Vector_2" d="M22 5V7.5H2V5C2 4.45 2.45 4 3 4H21C21.55 4 22 4.45 22 5Z" fill="url(#paint1_linear_206_9903)"/>
<path id="Vector_3" d="M8.25 6.5H20.75C20.888 6.5 21 6.388 21 6.25V5.25C21 5.112 20.888 5 20.75 5H8.25C8.112 5 8 5.112 8 5.25V6.25C8 6.388 8.112 6.5 8.25 6.5Z" fill="url(#paint2_linear_206_9903)"/>
<path id="Vector_4" d="M3.75 6.5C4.16421 6.5 4.5 6.16421 4.5 5.75C4.5 5.33579 4.16421 5 3.75 5C3.33579 5 3 5.33579 3 5.75C3 6.16421 3.33579 6.5 3.75 6.5Z" fill="url(#paint3_linear_206_9903)"/>
<path id="Vector_5" d="M6.25 6.5C6.66421 6.5 7 6.16421 7 5.75C7 5.33579 6.66421 5 6.25 5C5.83579 5 5.5 5.33579 5.5 5.75C5.5 6.16421 5.83579 6.5 6.25 6.5Z" fill="url(#paint4_linear_206_9903)"/>
<path id="Vector_6" opacity="0.05" d="M22 14.685V19C22 19.55 21.55 20 21 20H14.435C14.31 19.72 14.21 19.425 14.135 19.12C14.045 18.745 14 18.37 14 18V15.75C14 15.335 14.335 15 14.75 15C16.16 15 16.76 14.59 17.34 14.195C17.84 13.855 18.36 13.5 19.25 13.5C20.14 13.5 20.66 13.855 21.16 14.195C21.415 14.365 21.67 14.545 22 14.685Z" fill="black"/>
<path id="Vector_7" opacity="0.07" d="M22 14.955V19C22 19.55 21.55 20 21 20H14.715C14.575 19.7 14.46 19.385 14.38 19.06C14.295 18.705 14.25 18.35 14.25 18V15.75C14.25 15.475 14.475 15.25 14.75 15.25C16.235 15.25 16.895 14.8 17.48 14.405C17.97 14.065 18.44 13.75 19.25 13.75C20.06 13.75 20.53 14.065 21.02 14.405C21.3 14.59 21.6 14.8 22 14.955Z" fill="black"/>
<path id="Vector_8" d="M23.75 15.5C20.9695 15.5 20.9305 14 19.25 14C17.5695 14 17.5305 15.5 14.75 15.5C14.612 15.5 14.5 15.612 14.5 15.75C14.5 15.75 14.5 17.214 14.5 18C14.5 18.3445 14.5445 18.678 14.623 19C15.357 22.002 19.143 23.9765 19.143 23.9765C19.143 23.9765 19.196 24 19.25 24C19.301 24 19.357 23.9765 19.357 23.9765C19.357 23.9765 23.143 22.0015 23.877 19C23.9555 18.678 24 18.3445 24 18C24 17.214 24 15.75 24 15.75C24 15.612 23.888 15.5 23.75 15.5Z" fill="url(#paint5_linear_206_9903)"/>
</g>
<defs>
<linearGradient id="paint0_linear_206_9903" x1="8.30571" y1="7.69191" x2="12.742" y2="21.3773" gradientUnits="userSpaceOnUse">
<stop stop-color="#7DD8F3"/>
<stop offset="1" stop-color="#45B0D0"/>
</linearGradient>
<linearGradient id="paint1_linear_206_9903" x1="2.307" y1="3.8705" x2="21.468" y2="7.7665" gradientUnits="userSpaceOnUse">
<stop stop-color="#0077D2"/>
<stop offset="1" stop-color="#0B59A2"/>
</linearGradient>
<linearGradient id="paint2_linear_206_9903" x1="8" y1="5.75" x2="21" y2="5.75" gradientUnits="userSpaceOnUse">
<stop stop-color="#7DD8F3"/>
<stop offset="1" stop-color="#45B0D0"/>
</linearGradient>
<linearGradient id="paint3_linear_206_9903" x1="3.3755" y1="5.208" x2="4.016" y2="6.1345" gradientUnits="userSpaceOnUse">
<stop stop-color="#75DAFF"/>
<stop offset="1" stop-color="#49BEF1"/>
</linearGradient>
<linearGradient id="paint4_linear_206_9903" x1="5.8755" y1="5.208" x2="6.516" y2="6.1345" gradientUnits="userSpaceOnUse">
<stop stop-color="#75DAFF"/>
<stop offset="1" stop-color="#49BEF1"/>
</linearGradient>
<linearGradient id="paint5_linear_206_9903" x1="17.3955" y1="13.9865" x2="22.315" y2="23.0355" gradientUnits="userSpaceOnUse">
<stop stop-color="#21AD64"/>
<stop offset="1" stop-color="#088242"/>
</linearGradient>
</defs>
</svg>
