<svg width="24" height="24" viewBox="0 0 24 24" fill="none" xmlns="http://www.w3.org/2000/svg">
<g id="website-bug">
<path id="Vector" d="M2 19V7.5H22V19C22 19.55 21.55 20 21 20H3C2.45 20 2 19.55 2 19Z" fill="url(#paint0_linear_206_9932)"/>
<path id="Vector_2" d="M22 5V7.5H2V5C2 4.45 2.45 4 3 4H21C21.55 4 22 4.45 22 5Z" fill="url(#paint1_linear_206_9932)"/>
<path id="Vector_3" d="M3.75 6.5C4.16421 6.5 4.5 6.16421 4.5 5.75C4.5 5.33579 4.16421 5 3.75 5C3.33579 5 3 5.33579 3 5.75C3 6.16421 3.33579 6.5 3.75 6.5Z" fill="url(#paint2_linear_206_9932)"/>
<path id="Vector_4" opacity="0.05" d="M21.919 15.75H21.916C21.796 15.5835 21.667 15.427 21.5305 15.2805L22 14.8105V13.691C21.8625 13.5675 21.6865 13.5 21.5 13.5C21.3 13.5 21.1115 13.578 20.9695 13.7195L20.3195 14.369C19.8225 14.124 19.295 14 18.75 14C18.205 14 17.6775 14.124 17.18 14.369L16.53 13.7195C16.3885 13.578 16.2 13.5 16 13.5C15.8 13.5 15.6115 13.578 15.4695 13.7195C15.3275 13.861 15.2505 14.049 15.2505 14.25C15.2505 14.451 15.328 14.6385 15.4695 14.7805L15.9695 15.2805C15.833 15.427 15.704 15.5835 15.584 15.75H15.571L15.424 15.9795C15.3045 16.1645 15.194 16.3615 15.0955 16.5665L14.566 16.3195C14.4665 16.2735 14.36 16.25 14.25 16.25C13.959 16.25 13.692 16.4205 13.5705 16.6835C13.4855 16.8655 13.4765 17.07 13.546 17.258C13.6155 17.4465 13.753 17.5965 13.9335 17.6795L14.621 18.0005C14.5565 18.327 14.5175 18.662 14.505 19H13.75C13.3365 19 13 19.3365 13 19.75C13 19.8375 13.0155 19.922 13.043 20H21C21.55 20 22 19.55 22 19V15.868L21.919 15.75Z" fill="black"/>
<path id="Vector_5" opacity="0.07" d="M22 19V16.335C21.957 16.26 21.9125 16.1865 21.866 16.115L21.7885 16H21.786C21.6035 15.733 21.4 15.4915 21.178 15.279L21.8535 14.6035C22.0485 14.4085 22.0485 14.0915 21.8535 13.8965C21.7595 13.802 21.6335 13.75 21.5 13.75C21.3665 13.75 21.2405 13.802 21.1465 13.8965L20.3665 14.676C19.8575 14.393 19.314 14.25 18.75 14.25C18.186 14.25 17.6425 14.393 17.1335 14.676L16.3535 13.8965C16.2595 13.802 16.1335 13.75 16 13.75C15.8665 13.75 15.7405 13.802 15.6465 13.8965C15.4515 14.0915 15.4515 14.4085 15.6465 14.6035L16.322 15.279C16.1 15.4915 15.8965 15.733 15.714 16H15.7075L15.634 16.1145C15.4765 16.359 15.337 16.6225 15.2185 16.8995L14.461 16.546C14.3945 16.5155 14.323 16.5 14.25 16.5C14.056 16.5 13.878 16.614 13.797 16.789C13.7405 16.9105 13.7345 17.0465 13.781 17.1725C13.827 17.2975 13.9185 17.3975 14.0395 17.4535L14.9075 17.8585C14.8025 18.309 14.75 18.776 14.75 19.25H13.75C13.474 19.25 13.25 19.474 13.25 19.75C13.25 19.841 13.2745 19.9265 13.317 20H21C21.55 20 22 19.55 22 19Z" fill="black"/>
<path id="Vector_6" d="M6.25 6.5C6.66421 6.5 7 6.16421 7 5.75C7 5.33579 6.66421 5 6.25 5C5.83579 5 5.5 5.33579 5.5 5.75C5.5 6.16421 5.83579 6.5 6.25 6.5Z" fill="url(#paint3_linear_206_9932)"/>
<path id="Vector_7" d="M8.75 6.5C9.16421 6.5 9.5 6.16421 9.5 5.75C9.5 5.33579 9.16421 5 8.75 5C8.33579 5 8 5.33579 8 5.75C8 6.16421 8.33579 6.5 8.75 6.5Z" fill="url(#paint4_linear_206_9932)"/>
<path id="Vector_8" d="M13.75 20H16C16.138 20 16.25 19.888 16.25 19.75C16.25 19.612 16.138 19.5 16 19.5H13.75C13.612 19.5 13.5 19.612 13.5 19.75C13.5 19.888 13.612 20 13.75 20Z" fill="url(#paint5_linear_206_9932)"/>
<path id="Vector_9" d="M23.75 19.5H21.5C21.362 19.5 21.25 19.612 21.25 19.75C21.25 19.888 21.362 20 21.5 20H23.75C23.888 20 24 19.888 24 19.75C24 19.612 23.888 19.5 23.75 19.5Z" fill="url(#paint6_linear_206_9932)"/>
<path id="Vector_10" d="M23.3555 17.2265L21.3165 18.1775C21.1915 18.236 21.0425 18.1815 20.9845 18.0565C20.926 17.9315 20.9805 17.7825 21.1055 17.724L23.145 16.773C23.27 16.7145 23.419 16.7685 23.4775 16.894C23.5345 17.0195 23.481 17.1685 23.3555 17.2265Z" fill="url(#paint7_linear_206_9932)"/>
<path id="Vector_11" d="M23.1595 22.199L21.3165 20.9085C21.2035 20.829 21.0475 20.8565 20.968 20.97C20.8885 21.083 20.916 21.239 21.0295 21.318L22.8725 22.6085C22.9855 22.688 23.1415 22.6605 23.2205 22.547C23.2995 22.4335 23.273 22.278 23.1595 22.199Z" fill="url(#paint8_linear_206_9932)"/>
<path id="Vector_12" d="M14.1445 17.2265L16.184 18.1775C16.309 18.236 16.458 18.1815 16.516 18.0565C16.5745 17.9315 16.5205 17.7825 16.395 17.724L14.3555 16.773C14.2305 16.7145 14.0815 16.7685 14.023 16.894C13.9655 17.0195 14.019 17.1685 14.1445 17.2265Z" fill="url(#paint9_linear_206_9932)"/>
<path id="Vector_13" d="M14.3405 22.199L16.1835 20.9085C16.2965 20.829 16.4525 20.8565 16.5315 20.97C16.611 21.083 16.5835 21.239 16.47 21.318L14.627 22.6085C14.514 22.688 14.358 22.6605 14.2785 22.547C14.1995 22.434 14.2275 22.278 14.3405 22.199Z" fill="url(#paint10_linear_206_9932)"/>
<path id="Vector_14" d="M17.0215 15.625L15.8235 14.427C15.726 14.3295 15.726 14.171 15.8235 14.0735C15.921 13.976 16.0795 13.976 16.177 14.0735L17.375 15.2715L17.0215 15.625Z" fill="url(#paint11_linear_206_9932)"/>
<path id="Vector_15" d="M20.4785 15.625L21.6765 14.427C21.774 14.3295 21.774 14.171 21.6765 14.0735C21.579 13.976 21.4205 13.976 21.323 14.0735L20.125 15.2715L20.4785 15.625Z" fill="url(#paint12_linear_206_9932)"/>
<path id="Vector_16" d="M15.8435 16.25C15.3165 17.068 15 18.112 15 19.25C15 21.873 16.679 24 18.75 24C20.821 24 22.5 21.873 22.5 19.25C22.5 18.112 22.1835 17.068 21.656 16.25H15.8435Z" fill="url(#paint13_linear_206_9932)"/>
<path id="Vector_17" d="M18.5 23.984C18.583 23.991 18.6655 24 18.75 24C18.8345 24 18.917 23.991 19 23.984V16.875H18.5V23.984Z" fill="url(#paint14_linear_206_9932)"/>
<path id="Vector_18" d="M18.75 17.25C19.871 17.25 20.9125 16.9595 21.782 16.4625C21.1005 15.275 19.9975 14.5 18.75 14.5C17.5025 14.5 16.3995 15.275 15.718 16.4625C16.5875 16.9595 17.629 17.25 18.75 17.25Z" fill="url(#paint15_linear_206_9932)"/>
</g>
<defs>
<linearGradient id="paint0_linear_206_9932" x1="8.30571" y1="7.69191" x2="12.742" y2="21.3773" gradientUnits="userSpaceOnUse">
<stop stop-color="#7DD8F3"/>
<stop offset="1" stop-color="#45B0D0"/>
</linearGradient>
<linearGradient id="paint1_linear_206_9932" x1="2.307" y1="3.8705" x2="21.468" y2="7.7665" gradientUnits="userSpaceOnUse">
<stop stop-color="#0077D2"/>
<stop offset="1" stop-color="#0B59A2"/>
</linearGradient>
<linearGradient id="paint2_linear_206_9932" x1="3.3755" y1="5.208" x2="4.016" y2="6.1345" gradientUnits="userSpaceOnUse">
<stop stop-color="#75DAFF"/>
<stop offset="1" stop-color="#49BEF1"/>
</linearGradient>
<linearGradient id="paint3_linear_206_9932" x1="5.8755" y1="5.208" x2="6.516" y2="6.1345" gradientUnits="userSpaceOnUse">
<stop stop-color="#75DAFF"/>
<stop offset="1" stop-color="#49BEF1"/>
</linearGradient>
<linearGradient id="paint4_linear_206_9932" x1="8.3755" y1="5.208" x2="9.016" y2="6.1345" gradientUnits="userSpaceOnUse">
<stop stop-color="#75DAFF"/>
<stop offset="1" stop-color="#49BEF1"/>
</linearGradient>
<linearGradient id="paint5_linear_206_9932" x1="13.493" y1="19.75" x2="15.1475" y2="19.75" gradientUnits="userSpaceOnUse">
<stop stop-color="#6D7479"/>
<stop offset="0.425" stop-color="#565C60"/>
<stop offset="1" stop-color="#323538"/>
</linearGradient>
<linearGradient id="paint6_linear_206_9932" x1="24.0065" y1="19.75" x2="22.3525" y2="19.75" gradientUnits="userSpaceOnUse">
<stop stop-color="#6D7479"/>
<stop offset="0.425" stop-color="#565C60"/>
<stop offset="1" stop-color="#323538"/>
</linearGradient>
<linearGradient id="paint7_linear_206_9932" x1="23.482" y1="16.9475" x2="22.1665" y2="17.5025" gradientUnits="userSpaceOnUse">
<stop stop-color="#6D7479"/>
<stop offset="0.425" stop-color="#565C60"/>
<stop offset="1" stop-color="#323538"/>
</linearGradient>
<linearGradient id="paint8_linear_206_9932" x1="23.2665" y1="22.434" x2="22.1565" y2="21.794" gradientUnits="userSpaceOnUse">
<stop stop-color="#6D7479"/>
<stop offset="0.425" stop-color="#565C60"/>
<stop offset="1" stop-color="#323538"/>
</linearGradient>
<linearGradient id="paint9_linear_206_9932" x1="14.018" y1="16.9475" x2="15.3335" y2="17.5025" gradientUnits="userSpaceOnUse">
<stop stop-color="#6D7479"/>
<stop offset="0.425" stop-color="#565C60"/>
<stop offset="1" stop-color="#323538"/>
</linearGradient>
<linearGradient id="paint10_linear_206_9932" x1="14.233" y1="22.434" x2="15.344" y2="21.794" gradientUnits="userSpaceOnUse">
<stop stop-color="#6D7479"/>
<stop offset="0.425" stop-color="#565C60"/>
<stop offset="1" stop-color="#323538"/>
</linearGradient>
<linearGradient id="paint11_linear_206_9932" x1="16.0145" y1="13.928" x2="16.804" y2="15.18" gradientUnits="userSpaceOnUse">
<stop stop-color="#6D7479"/>
<stop offset="0.425" stop-color="#565C60"/>
<stop offset="1" stop-color="#323538"/>
</linearGradient>
<linearGradient id="paint12_linear_206_9932" x1="21.5825" y1="14.0315" x2="20.654" y2="15.1465" gradientUnits="userSpaceOnUse">
<stop stop-color="#6D7479"/>
<stop offset="0.425" stop-color="#565C60"/>
<stop offset="1" stop-color="#323538"/>
</linearGradient>
<linearGradient id="paint13_linear_206_9932" x1="18.75" y1="16.2825" x2="18.75" y2="23.915" gradientUnits="userSpaceOnUse">
<stop stop-color="#FED100"/>
<stop offset="1" stop-color="#E36001"/>
</linearGradient>
<linearGradient id="paint14_linear_206_9932" x1="18.75" y1="16.811" x2="18.75" y2="24.1515" gradientUnits="userSpaceOnUse">
<stop stop-color="#DBB500"/>
<stop offset="0.998" stop-color="#B54C01"/>
</linearGradient>
<linearGradient id="paint15_linear_206_9932" x1="18.75" y1="14.54" x2="18.75" y2="17.329" gradientUnits="userSpaceOnUse">
<stop stop-color="#6D7479"/>
<stop offset="0.512" stop-color="#4D5256"/>
<stop offset="1" stop-color="#323538"/>
</linearGradient>
</defs>
</svg>
