<svg width="24" height="24" viewBox="0 0 24 24" fill="none" xmlns="http://www.w3.org/2000/svg">
<g id="wedding-dress">
<path id="Vector" d="M21.9725 20.1955C22.0225 20.7655 21.879 21.3465 21.519 21.7915C21.2175 22.164 20.74 22.5 20 22.5C18.885 22.5 17.5 21.5 17.5 21.5C17.5 21.5 16.445 23 14.78 23C13.115 23 12 22 12 22C12 22 10.89 23 9.225 23C7.56 23 6.5 21.5 6.5 21.5C6.5 21.5 5.11 22.5 4 22.5C3.2505 22.5 2.772 22.1555 2.4715 21.777C2.123 21.337 1.983 20.7685 2.031 20.209C2.4085 15.8 6.784 9.3285 9.5 7C9.5 6.665 9.465 6.33 9.405 6C9.17 4.655 8.53 3.41 8.2 2.835C8.04 2.555 8.025 2.215 8.16 1.925C8.36 1.5 8.8 1 9.78 1C10.701 1 11.211 1.571 11.621 2.061C11.819 2.2975 12.181 2.2975 12.379 2.061C12.789 1.571 13.299 1 14.225 1C15.205 1 15.645 1.5 15.84 1.925C15.98 2.215 15.96 2.555 15.8 2.835C15.47 3.41 14.83 4.655 14.595 6C14.535 6.33 14.5 6.665 14.5 7C17.213 9.326 21.587 15.7865 21.9725 20.1955Z" fill="url(#paint0_linear_206_9951)"/>
<path id="Vector_2" d="M21.411 20.5C21.1995 20.5 21.007 20.633 20.9455 20.8355C20.834 21.2015 20.5215 21.5 20 21.5C19.4085 21.5 18.4535 20.953 18.0855 20.689C17.91 20.5625 17.707 20.5015 17.505 20.5015C17.192 20.5015 16.883 20.647 16.686 20.919C16.678 20.93 15.89 22 14.78 22C13.541 22 12.67 21.2575 12.6675 21.2555C12.4795 21.0865 12.2415 21.003 12.0025 21.003C11.765 21.003 11.5265 21.086 11.3365 21.2515C11.3285 21.259 10.4625 22 9.225 22C8.1135 22 7.3205 20.9285 7.3165 20.923C7.1625 20.705 6.928 20.558 6.665 20.514C6.6105 20.5045 6.555 20.5 6.5 20.5C6.292 20.5 6.087 20.565 5.916 20.688C5.548 20.953 4.595 21.5 4 21.5C3.477 21.5 3.1665 21.2035 3.0575 20.839C2.9965 20.635 2.8035 20.5 2.5905 20.5C2.2495 20.5 2.0165 20.8345 2.123 21.1585C2.324 21.7695 2.838 22.5 4 22.5C5.11 22.5 6.5 21.5 6.5 21.5C6.5 21.5 7.56 23 9.225 23C10.89 23 12 22 12 22C12 22 13.115 23 14.78 23C16.445 23 17.5 21.5 17.5 21.5C17.5 21.5 18.885 22.5 20 22.5C21.161 22.5 21.6755 21.7705 21.878 21.1595C21.9855 20.835 21.7525 20.5 21.411 20.5Z" fill="#EB6773"/>
<path id="Vector_3" d="M9.405 6C9.465 6.33 9.5 6.665 9.5 7H14.5C14.5 6.665 14.535 6.33 14.595 6H9.405Z" fill="#EB6773"/>
</g>
<defs>
<linearGradient id="paint0_linear_206_9951" x1="12.002" y1="1" x2="12.002" y2="23" gradientUnits="userSpaceOnUse">
<stop stop-color="#DFE9F2"/>
<stop offset="0.391" stop-color="#D6E0E9"/>
<stop offset="1" stop-color="#BFC8D1"/>
</linearGradient>
</defs>
</svg>
