<svg width="24" height="24" viewBox="0 0 24 24" fill="none" xmlns="http://www.w3.org/2000/svg">
<g id="wedding-rings">
<path id="Vector" d="M16 20C11.5885 20 8 16.4115 8 12C8 7.5885 11.5885 4 16 4C20.4115 4 24 7.5885 24 12C24 16.4115 20.4115 20 16 20ZM16 6.5C12.967 6.5 10.5 8.9675 10.5 12C10.5 15.0325 12.967 17.5 16 17.5C19.033 17.5 21.5 15.0325 21.5 12C21.5 8.9675 19.033 6.5 16 6.5Z" fill="#EDBE00"/>
<path id="Vector_2" opacity="0.05" d="M11.67 8.60501C11.725 8.54001 11.775 8.47501 11.835 8.41001C11.94 8.28501 12.055 8.16501 12.175 8.05001C12.235 7.99001 12.3 7.93001 12.36 7.88001C11.77 7.25501 11.04 6.76001 10.25 6.44501C10.185 6.50501 10.125 6.57001 10.065 6.64001C10.01 6.70501 9.95 6.77001 9.895 6.84001C9.835 6.90501 9.78 6.97501 9.725 7.04501C9.67 7.11501 9.615 7.18501 9.56 7.25501C9.615 7.27001 9.67 7.29001 9.725 7.31001C10.44 7.57501 11.105 8.01001 11.635 8.56501C11.645 8.58001 11.66 8.59001 11.67 8.60501Z" fill="black"/>
<path id="Vector_3" opacity="0.07" d="M10.065 6.64001C10.01 6.70501 9.95 6.77001 9.895 6.84001C9.835 6.90501 9.78 6.97501 9.725 7.04501C9.755 7.05501 9.78 7.06501 9.81 7.07501C10.565 7.35001 11.26 7.81002 11.82 8.39502C11.825 8.40002 11.83 8.40501 11.835 8.41001C11.94 8.28501 12.055 8.16501 12.175 8.05001C11.585 7.43001 10.86 6.94501 10.065 6.64001Z" fill="black"/>
<path id="Vector_4" d="M14.43 7.255C14.38 7.185 14.33 7.115 14.27 7.045C14.22 6.975 14.16 6.91 14.105 6.84C14.045 6.77 13.985 6.7 13.93 6.635C13.87 6.57 13.805 6.505 13.745 6.44C13.365 6.045 12.94 5.69 12.48 5.38C12.4 5.325 12.32 5.275 12.24 5.225C12.16 5.175 12.08 5.125 12 5.08C11.915 5.03 11.83 4.985 11.74 4.935C11.66 4.89 11.575 4.845 11.485 4.805C10.435 4.29 9.25 4 8 4C3.59 4 0 7.59 0 12C0 16.41 3.59 20 8 20C9.25 20 10.435 19.71 11.485 19.195C11.575 19.155 11.66 19.11 11.74 19.065C11.83 19.015 11.915 18.97 12 18.92C11.9 18.86 11.8 18.805 11.705 18.74C11.61 18.68 11.515 18.62 11.42 18.555L11.41 18.545C11.24 18.43 11.075 18.305 10.915 18.17C10.765 18.05 10.625 17.92 10.485 17.79C10.42 17.73 10.36 17.67 10.305 17.61C10.24 17.55 10.18 17.485 10.12 17.42C10.045 17.335 9.97 17.25 9.895 17.16L9.64 17.25C9.555 17.275 9.47 17.3 9.385 17.32C8.94 17.44 8.48 17.5 8 17.5C4.965 17.5 2.5 15.035 2.5 12C2.5 8.965 4.965 6.5 8 6.5C8.48 6.5 8.94 6.56 9.385 6.68C9.47 6.7 9.555 6.725 9.64 6.75L9.895 6.84C9.975 6.87 10.055 6.9 10.135 6.935C10.215 6.97 10.295 7.005 10.375 7.045C10.835 7.265 11.26 7.545 11.64 7.885C11.705 7.935 11.765 7.995 11.825 8.05C11.885 8.11 11.945 8.165 12 8.225C12.06 8.285 12.115 8.35 12.17 8.415C12.225 8.48 12.28 8.545 12.33 8.61C13.065 9.55 13.5 10.72 13.5 12C13.5 13.28 13.065 14.45 12.33 15.39C12.28 15.455 12.225 15.52 12.17 15.585C12.115 15.65 12.06 15.715 12 15.775C12.035 15.81 12.075 15.85 12.11 15.89C12.14 15.92 12.175 15.95 12.205 15.98C12.21 15.99 12.22 15.995 12.225 16C12.25 16.025 12.275 16.045 12.3 16.07C12.51 16.26 12.735 16.435 12.97 16.585C13.055 16.645 13.145 16.7 13.24 16.755C13.515 16.915 13.805 17.05 14.105 17.16C14.16 17.09 14.22 17.025 14.27 16.955C14.33 16.885 14.38 16.815 14.43 16.745C15.415 15.415 16 13.775 16 12C16 10.225 15.415 8.585 14.43 7.255Z" fill="#E3A600"/>
<g id="Group">
<path id="Vector_5" opacity="0.05" d="M12.17 15.585C12.115 15.65 12.06 15.715 12 15.775C12.035 15.81 12.075 15.85 12.11 15.89C12.14 15.92 12.175 15.95 12.205 15.98C12.21 15.99 12.22 15.995 12.225 16C12.25 16.025 12.275 16.045 12.3 16.07C12.51 16.26 12.735 16.435 12.97 16.585C13.055 16.645 13.145 16.7 13.24 16.755C13.515 16.915 13.805 17.055 14.105 17.16C14.16 17.09 14.22 17.025 14.27 16.955C14.33 16.885 14.38 16.815 14.43 16.745C13.62 16.48 12.9 16.005 12.33 15.39C12.28 15.455 12.225 15.52 12.17 15.585Z" fill="black"/>
<path id="Vector_6" opacity="0.07" d="M12.17 15.585C12.115 15.65 12.06 15.715 12 15.775C12.035 15.81 12.075 15.85 12.11 15.89C12.14 15.92 12.175 15.95 12.205 15.98C12.21 15.99 12.22 15.995 12.225 16C12.25 16.025 12.275 16.045 12.3 16.07C12.51 16.26 12.735 16.435 12.97 16.585C13.055 16.645 13.145 16.7 13.24 16.755C13.515 16.915 13.805 17.055 14.105 17.16C14.16 17.09 14.22 17.025 14.27 16.955C13.46 16.675 12.74 16.2 12.17 15.585Z" fill="black"/>
</g>
</g>
</svg>
