<svg width="24" height="24" viewBox="0 0 24 24" fill="none" xmlns="http://www.w3.org/2000/svg">
<g id="wheelchair">
<path id="Vector" d="M14.5 10.54C14.5 10.795 14.275 11 14 11H7.81C7.755 11 7.7 10.995 7.645 10.985C7.595 10.995 7.545 11 7.5 11H6.5V10L5.205 4.855C5.085 4.42 5.345 3.975 5.775 3.86C6.21 3.74 6.655 4 6.77 4.43L8.135 9.5H13.375C13.995 9.5 14.5 9.965 14.5 10.54Z" fill="url(#paint0_linear_206_9963)"/>
<path id="Vector_2" d="M7.81 11H7.5C7.545 11 7.595 10.995 7.645 10.985C7.7 10.995 7.755 11 7.81 11Z" fill="url(#paint1_linear_206_9963)"/>
<path id="Vector_3" d="M16.5 11H7V14.5H16.5V11Z" fill="url(#paint2_linear_206_9963)"/>
<path id="Vector_4" d="M22.5 18H21.98C21.555 18 21.18 17.735 21.035 17.335L19.365 12.66C19.01 11.665 18.07 11 17.01 11H16.75V10.23C16.75 9.82 16.675 9.41 16.49 9.04C16.03 8.13 15.15 7.66 14.22 7.655L6.325 7.745L4.985 2.38C4.93 2.155 4.73 2 4.5 2H2.5C2.225 2 2 2.225 2 2.5C2 2.775 2.225 3 2.5 3H4.11L7 14.56V16.19H8V15H15.75V16.5C15.75 16.775 15.975 17 16.25 17C16.525 17 16.75 16.775 16.75 16.5V12H17.01C17.645 12 18.21 12.4 18.425 12.995L20.33 18.335C20.475 18.735 20.85 19 21.275 19H22.5C22.775 19 23 18.775 23 18.5C23 18.225 22.775 18 22.5 18ZM15.75 14H7.89L7.39 12H15.75V14ZM15.75 11H7.14L6.575 8.745L14.235 8.655C14.635 8.655 15.015 8.8 15.305 9.085C15.59 9.37 15.75 9.75 15.75 10.155V11Z" fill="url(#paint3_linear_206_9963)"/>
<path id="Vector_5" d="M7.75 21C9.26878 21 10.5 19.7688 10.5 18.25C10.5 16.7312 9.26878 15.5 7.75 15.5C6.23122 15.5 5 16.7312 5 18.25C5 19.7688 6.23122 21 7.75 21Z" fill="url(#paint4_linear_206_9963)"/>
<path id="Vector_6" d="M7.75 20C8.7165 20 9.5 19.2165 9.5 18.25C9.5 17.2835 8.7165 16.5 7.75 16.5C6.7835 16.5 6 17.2835 6 18.25C6 19.2165 6.7835 20 7.75 20Z" fill="url(#paint5_linear_206_9963)"/>
<path id="Vector_7" d="M16.25 21C17.4926 21 18.5 19.9926 18.5 18.75C18.5 17.5074 17.4926 16.5 16.25 16.5C15.0074 16.5 14 17.5074 14 18.75C14 19.9926 15.0074 21 16.25 21Z" fill="url(#paint6_linear_206_9963)"/>
<path id="Vector_8" d="M16.25 20C16.9404 20 17.5 19.4404 17.5 18.75C17.5 18.0596 16.9404 17.5 16.25 17.5C15.5596 17.5 15 18.0596 15 18.75C15 19.4404 15.5596 20 16.25 20Z" fill="url(#paint7_linear_206_9963)"/>
<path id="Vector_9" d="M20.5 19H22.75C23.164 19 23.5 18.664 23.5 18.25C23.5 17.836 23.164 17.5 22.75 17.5H20L20.5 19Z" fill="url(#paint8_linear_206_9963)"/>
</g>
<defs>
<linearGradient id="paint0_linear_206_9963" x1="9.838" y1="11" x2="9.838" y2="3.8305" gradientUnits="userSpaceOnUse">
<stop stop-color="#3079D6"/>
<stop offset="1" stop-color="#297CD2"/>
</linearGradient>
<linearGradient id="paint1_linear_206_9963" x1="7.655" y1="11" x2="7.655" y2="10.985" gradientUnits="userSpaceOnUse">
<stop stop-color="#3079D6"/>
<stop offset="1" stop-color="#297CD2"/>
</linearGradient>
<linearGradient id="paint2_linear_206_9963" x1="11.75" y1="8.199" x2="11.75" y2="15.4315" gradientUnits="userSpaceOnUse">
<stop stop-color="#D95F6A"/>
<stop offset="0.014" stop-color="#D85C67"/>
<stop offset="0.142" stop-color="#CE424E"/>
<stop offset="0.285" stop-color="#C72F3A"/>
<stop offset="0.449" stop-color="#C2212C"/>
<stop offset="0.65" stop-color="#BF1824"/>
<stop offset="1" stop-color="#BE1622"/>
</linearGradient>
<linearGradient id="paint3_linear_206_9963" x1="12.5" y1="19" x2="12.5" y2="2" gradientUnits="userSpaceOnUse">
<stop offset="0.477" stop-color="#45494D"/>
<stop offset="0.9" stop-color="#6D7882"/>
</linearGradient>
<linearGradient id="paint4_linear_206_9963" x1="7.75" y1="25.7465" x2="7.75" y2="13.706" gradientUnits="userSpaceOnUse">
<stop offset="0.477" stop-color="#45494D"/>
<stop offset="0.9" stop-color="#6D7882"/>
</linearGradient>
<linearGradient id="paint5_linear_206_9963" x1="7.75" y1="9.6745" x2="7.75" y2="18.579" gradientUnits="userSpaceOnUse">
<stop stop-color="#A1AAB3"/>
<stop offset="1" stop-color="#8F979E"/>
</linearGradient>
<linearGradient id="paint6_linear_206_9963" x1="16.25" y1="24.8835" x2="16.25" y2="15.032" gradientUnits="userSpaceOnUse">
<stop offset="0.477" stop-color="#45494D"/>
<stop offset="0.9" stop-color="#6D7882"/>
</linearGradient>
<linearGradient id="paint7_linear_206_9963" x1="16.25" y1="9.6745" x2="16.25" y2="18.579" gradientUnits="userSpaceOnUse">
<stop stop-color="#A1AAB3"/>
<stop offset="1" stop-color="#8F979E"/>
</linearGradient>
<linearGradient id="paint8_linear_206_9963" x1="21.75" y1="19" x2="21.75" y2="17.5" gradientUnits="userSpaceOnUse">
<stop stop-color="#3079D6"/>
<stop offset="1" stop-color="#297CD2"/>
</linearGradient>
</defs>
</svg>
