<svg width="24" height="24" viewBox="0 0 24 24" fill="none" xmlns="http://www.w3.org/2000/svg">
<g id="window-cloud">
<path id="Vector" d="M2 19V7.5H22V19C22 19.55 21.55 20 21 20H3C2.45 20 2 19.55 2 19Z" fill="url(#paint0_linear_206_9973)"/>
<path id="Vector_2" d="M22 5V7.5H2V5C2 4.45 2.45 4 3 4H21C21.55 4 22 4.45 22 5Z" fill="url(#paint1_linear_206_9973)"/>
<path id="Vector_3" d="M3.75 6.5C4.16421 6.5 4.5 6.16421 4.5 5.75C4.5 5.33579 4.16421 5 3.75 5C3.33579 5 3 5.33579 3 5.75C3 6.16421 3.33579 6.5 3.75 6.5Z" fill="url(#paint2_linear_206_9973)"/>
<path id="Vector_4" d="M6.25 6.5C6.66421 6.5 7 6.16421 7 5.75C7 5.33579 6.66421 5 6.25 5C5.83579 5 5.5 5.33579 5.5 5.75C5.5 6.16421 5.83579 6.5 6.25 6.5Z" fill="url(#paint3_linear_206_9973)"/>
<path id="Vector_5" d="M8.75 6.5C9.16421 6.5 9.5 6.16421 9.5 5.75C9.5 5.33579 9.16421 5 8.75 5C8.33579 5 8 5.33579 8 5.75C8 6.16421 8.33579 6.5 8.75 6.5Z" fill="url(#paint4_linear_206_9973)"/>
<path id="Vector_6" opacity="0.05" d="M22 17.6575C21.827 17.6055 21.653 17.561 21.481 17.537C20.7775 16.295 19.426 15.5 18 15.5C16.169 15.5 14.568 16.7605 14.1245 18.5235C13.26 18.6335 12.472 19.1245 11.989 19.8635L11.899 20H21C21.55 20 22 19.55 22 19V17.6575Z" fill="black"/>
<path id="Vector_7" opacity="0.07" d="M21 20C21.55 20 22 19.55 22 19V17.913C21.7835 17.843 21.5575 17.793 21.323 17.7695C20.68 16.538 19.3915 15.75 18 15.75C16.219 15.75 14.6775 17.0275 14.328 18.7555C13.4365 18.8105 12.66 19.2935 12.198 20H21Z" fill="black"/>
<path id="Vector_8" d="M21.1625 18.008C20.602 16.8225 19.3985 16 18 16C16.236 16 14.7805 17.3065 14.539 19.004C14.526 19.0035 14.5135 19 14.5 19C13.1195 19 12 20.1195 12 21.5C12 22.8805 13.1195 24 14.5 24C15.4295 24 20.078 24 21 24C22.657 24 24 22.657 24 21C24 19.398 22.7435 18.093 21.1625 18.008Z" fill="url(#paint5_linear_206_9973)"/>
</g>
<defs>
<linearGradient id="paint0_linear_206_9973" x1="8.30571" y1="7.69191" x2="12.742" y2="21.3773" gradientUnits="userSpaceOnUse">
<stop stop-color="#7DD8F3"/>
<stop offset="1" stop-color="#45B0D0"/>
</linearGradient>
<linearGradient id="paint1_linear_206_9973" x1="2.307" y1="3.8705" x2="21.468" y2="7.7665" gradientUnits="userSpaceOnUse">
<stop stop-color="#0077D2"/>
<stop offset="1" stop-color="#0B59A2"/>
</linearGradient>
<linearGradient id="paint2_linear_206_9973" x1="3.3755" y1="5.208" x2="4.016" y2="6.1345" gradientUnits="userSpaceOnUse">
<stop stop-color="#75DAFF"/>
<stop offset="1" stop-color="#49BEF1"/>
</linearGradient>
<linearGradient id="paint3_linear_206_9973" x1="5.8755" y1="5.208" x2="6.516" y2="6.1345" gradientUnits="userSpaceOnUse">
<stop stop-color="#75DAFF"/>
<stop offset="1" stop-color="#49BEF1"/>
</linearGradient>
<linearGradient id="paint4_linear_206_9973" x1="8.3755" y1="5.208" x2="9.016" y2="6.1345" gradientUnits="userSpaceOnUse">
<stop stop-color="#75DAFF"/>
<stop offset="1" stop-color="#49BEF1"/>
</linearGradient>
<linearGradient id="paint5_linear_206_9973" x1="16.2405" y1="16.3855" x2="19.081" y2="24.1685" gradientUnits="userSpaceOnUse">
<stop stop-color="#2AA4F4"/>
<stop offset="1" stop-color="#007AD9"/>
</linearGradient>
</defs>
</svg>
