<svg width="24" height="24" viewBox="0 0 24 24" fill="none" xmlns="http://www.w3.org/2000/svg">
<g id="windows-calendar">
<path id="Vector" d="M21 7H3V4C3 3.4475 3.4475 3 4 3H20C20.5525 3 21 3.4475 21 4V7Z" fill="url(#paint0_linear_206_9996)"/>
<path id="Vector_2" d="M3 7V20C3 20.5525 3.4475 21 4 21H20C20.5525 21 21 20.5525 21 20V7H3Z" fill="url(#paint1_linear_206_9996)"/>
<path id="Vector_3" d="M10.5 11.5H9.5C9.224 11.5 9 11.276 9 11V10C9 9.724 9.224 9.5 9.5 9.5H10.5C10.776 9.5 11 9.724 11 10V11C11 11.276 10.776 11.5 10.5 11.5Z" fill="white"/>
<path id="Vector_4" d="M14.5 11.5H13.5C13.224 11.5 13 11.276 13 11V10C13 9.724 13.224 9.5 13.5 9.5H14.5C14.776 9.5 15 9.724 15 10V11C15 11.276 14.776 11.5 14.5 11.5Z" fill="white"/>
<path id="Vector_5" d="M18.5 11.5H17.5C17.224 11.5 17 11.276 17 11V10C17 9.724 17.224 9.5 17.5 9.5H18.5C18.776 9.5 19 9.724 19 10V11C19 11.276 18.776 11.5 18.5 11.5Z" fill="white"/>
<path id="Vector_6" d="M10.5 15H9.5C9.224 15 9 14.776 9 14.5V13.5C9 13.224 9.224 13 9.5 13H10.5C10.776 13 11 13.224 11 13.5V14.5C11 14.776 10.776 15 10.5 15Z" fill="white"/>
<path id="Vector_7" d="M6.5 15H5.5C5.224 15 5 14.776 5 14.5V13.5C5 13.224 5.224 13 5.5 13H6.5C6.776 13 7 13.224 7 13.5V14.5C7 14.776 6.776 15 6.5 15Z" fill="white"/>
<path id="Vector_8" d="M14.5 15H13.5C13.224 15 13 14.776 13 14.5V13.5C13 13.224 13.224 13 13.5 13H14.5C14.776 13 15 13.224 15 13.5V14.5C15 14.776 14.776 15 14.5 15Z" fill="white"/>
<path id="Vector_9" d="M10.5 18.5H9.5C9.224 18.5 9 18.276 9 18V17C9 16.724 9.224 16.5 9.5 16.5H10.5C10.776 16.5 11 16.724 11 17V18C11 18.276 10.776 18.5 10.5 18.5Z" fill="white"/>
<path id="Vector_10" d="M6.5 18.5H5.5C5.224 18.5 5 18.276 5 18V17C5 16.724 5.224 16.5 5.5 16.5H6.5C6.776 16.5 7 16.724 7 17V18C7 18.276 6.776 18.5 6.5 18.5Z" fill="white"/>
<path id="Vector_11" d="M14.5 18.5H13.5C13.224 18.5 13 18.276 13 18V17C13 16.724 13.224 16.5 13.5 16.5H14.5C14.776 16.5 15 16.724 15 17V18C15 18.276 14.776 18.5 14.5 18.5Z" fill="white"/>
<path id="Vector_12" d="M18.5 15H17.5C17.224 15 17 14.776 17 14.5V13.5C17 13.224 17.224 13 17.5 13H18.5C18.776 13 19 13.224 19 13.5V14.5C19 14.776 18.776 15 18.5 15Z" fill="white"/>
<path id="Vector_13" opacity="0.05" d="M7 3V4.75C7 4.888 6.8875 5 6.75 5C6.6125 5 6.5 4.888 6.5 4.75V3H5.5V4.75C5.5 5.439 6.0605 6 6.75 6C7.4395 6 8 5.439 8 4.75V3H7Z" fill="black"/>
<path id="Vector_14" opacity="0.07" d="M7.25 3V4.75C7.25 5.0255 7.026 5.25 6.75 5.25C6.474 5.25 6.25 5.0255 6.25 4.75V3H5.75V4.75C5.75 5.3015 6.1985 5.75 6.75 5.75C7.3015 5.75 7.75 5.3015 7.75 4.75V3H7.25Z" fill="black"/>
<path id="Vector_15" opacity="0.05" d="M17.5 3V4.75C17.5 4.888 17.3875 5 17.25 5C17.1125 5 17 4.888 17 4.75V3H16V4.75C16 5.439 16.5605 6 17.25 6C17.9395 6 18.5 5.439 18.5 4.75V3H17.5Z" fill="black"/>
<path id="Vector_16" opacity="0.07" d="M17.75 3V4.75C17.75 5.0255 17.526 5.25 17.25 5.25C16.974 5.25 16.75 5.0255 16.75 4.75V3H16.25V4.75C16.25 5.3015 16.6985 5.75 17.25 5.75C17.8015 5.75 18.25 5.3015 18.25 4.75V3H17.75Z" fill="black"/>
<path id="Vector_17" d="M17.25 5.5C16.836 5.5 16.5 5.164 16.5 4.75V2.25C16.5 1.836 16.836 1.5 17.25 1.5C17.664 1.5 18 1.836 18 2.25V4.75C18 5.164 17.664 5.5 17.25 5.5Z" fill="#54DAFF"/>
<path id="Vector_18" d="M6.75 5.5C6.336 5.5 6 5.164 6 4.75V2.25C6 1.836 6.336 1.5 6.75 1.5C7.164 1.5 7.5 1.836 7.5 2.25V4.75C7.5 5.164 7.164 5.5 6.75 5.5Z" fill="#54DAFF"/>
</g>
<defs>
<linearGradient id="paint0_linear_206_9996" x1="11.51" y1="2.181" x2="12.5315" y2="9.022" gradientUnits="userSpaceOnUse">
<stop offset="0.042" stop-color="#076DB4"/>
<stop offset="0.85" stop-color="#0461AF"/>
</linearGradient>
<linearGradient id="paint1_linear_206_9996" x1="10.8175" y1="3.2085" x2="13.7835" y2="29.0965" gradientUnits="userSpaceOnUse">
<stop stop-color="#33BEF0"/>
<stop offset="1" stop-color="#0A85D9"/>
</linearGradient>
</defs>
</svg>
