<svg width="24" height="24" viewBox="0 0 24 24" fill="none" xmlns="http://www.w3.org/2000/svg">
<g id="window-favorite">
<path id="Vector" d="M2 19V7.5H22V19C22 19.55 21.55 20 21 20H3C2.45 20 2 19.55 2 19Z" fill="url(#paint0_linear_206_9982)"/>
<path id="Vector_2" d="M22 5V7.5H2V5C2 4.45 2.45 4 3 4H21C21.55 4 22 4.45 22 5Z" fill="url(#paint1_linear_206_9982)"/>
<path id="Vector_3" d="M3.75 6.5C4.16421 6.5 4.5 6.16421 4.5 5.75C4.5 5.33579 4.16421 5 3.75 5C3.33579 5 3 5.33579 3 5.75C3 6.16421 3.33579 6.5 3.75 6.5Z" fill="url(#paint2_linear_206_9982)"/>
<path id="Vector_4" d="M6.25 6.5C6.66421 6.5 7 6.16421 7 5.75C7 5.33579 6.66421 5 6.25 5C5.83579 5 5.5 5.33579 5.5 5.75C5.5 6.16421 5.83579 6.5 6.25 6.5Z" fill="url(#paint3_linear_206_9982)"/>
<path id="Vector_5" d="M8.75 6.5C9.16421 6.5 9.5 6.16421 9.5 5.75C9.5 5.33579 9.16421 5 8.75 5C8.33579 5 8 5.33579 8 5.75C8 6.16421 8.33579 6.5 8.75 6.5Z" fill="url(#paint4_linear_206_9982)"/>
<path id="Vector_6" opacity="0.05" d="M21.75 16C20.787 16 19.977 16.5465 19.5 16.9625C19.023 16.5465 18.213 16 17.25 16C16.513 16 15.821 16.2975 15.3 16.837C14.784 17.371 14.5 18.075 14.5005 18.8185C14.5005 19.2575 14.6675 19.671 14.858 20H21C21.55 20 22 19.55 22 19V16.012C21.9175 16.004 21.8345 16 21.75 16Z" fill="black"/>
<path id="Vector_7" opacity="0.07" d="M21.75 16.25C20.7235 16.25 19.866 16.9495 19.5 17.301C19.134 16.95 18.2765 16.25 17.25 16.25C16.582 16.25 15.953 16.52 15.4795 17.0105C15.0095 17.4975 14.75 18.1395 14.7505 18.818C14.7505 19.259 14.95 19.683 15.152 19.9995H21C21.55 19.9995 22 19.5495 22 18.9995V16.2625C21.918 16.2545 21.8345 16.25 21.75 16.25Z" fill="black"/>
<path id="Vector_8" d="M19.5 17.6595C19.5 17.6595 20.5075 16.5 21.75 16.5C22.9925 16.5 24 17.5525 24 18.8185C24 19.6035 23.25 20.364 23.25 20.364L19.8795 23.8375C19.67 24.0535 19.33 24.0535 19.1205 23.8375L15.7505 20.364C15.7505 20.364 15.0005 19.603 15.0005 18.8185C15 17.5525 16.0075 16.5 17.25 16.5C18.4925 16.5 19.5 17.6595 19.5 17.6595Z" fill="url(#paint5_linear_206_9982)"/>
</g>
<defs>
<linearGradient id="paint0_linear_206_9982" x1="8.30571" y1="7.69191" x2="12.742" y2="21.3773" gradientUnits="userSpaceOnUse">
<stop stop-color="#7DD8F3"/>
<stop offset="1" stop-color="#45B0D0"/>
</linearGradient>
<linearGradient id="paint1_linear_206_9982" x1="2.307" y1="3.8705" x2="21.468" y2="7.7665" gradientUnits="userSpaceOnUse">
<stop stop-color="#0077D2"/>
<stop offset="1" stop-color="#0B59A2"/>
</linearGradient>
<linearGradient id="paint2_linear_206_9982" x1="3.3755" y1="5.208" x2="4.016" y2="6.1345" gradientUnits="userSpaceOnUse">
<stop stop-color="#75DAFF"/>
<stop offset="1" stop-color="#49BEF1"/>
</linearGradient>
<linearGradient id="paint3_linear_206_9982" x1="5.8755" y1="5.208" x2="6.516" y2="6.1345" gradientUnits="userSpaceOnUse">
<stop stop-color="#75DAFF"/>
<stop offset="1" stop-color="#49BEF1"/>
</linearGradient>
<linearGradient id="paint4_linear_206_9982" x1="8.3755" y1="5.208" x2="9.016" y2="6.1345" gradientUnits="userSpaceOnUse">
<stop stop-color="#75DAFF"/>
<stop offset="1" stop-color="#49BEF1"/>
</linearGradient>
<linearGradient id="paint5_linear_206_9982" x1="17.751" y1="16.0205" x2="21.984" y2="22.54" gradientUnits="userSpaceOnUse">
<stop stop-color="#F44F5A"/>
<stop offset="0.443" stop-color="#EE3D4A"/>
<stop offset="1" stop-color="#E52030"/>
</linearGradient>
</defs>
</svg>
