<svg width="24" height="24" viewBox="0 0 24 24" fill="none" xmlns="http://www.w3.org/2000/svg">
<g id="windows-client">
<path id="Vector" d="M20.5 17.5H3.5C2.9475 17.5 2.5 17.0525 2.5 16.5V4.5C2.5 3.9475 2.9475 3.5 3.5 3.5H20.5C21.0525 3.5 21.5 3.9475 21.5 4.5V16.5C21.5 17.0525 21.0525 17.5 20.5 17.5Z" fill="url(#paint0_linear_206_10015)"/>
<path id="Vector_2" d="M20.5 4.5H3.5V16.5H20.5V4.5Z" fill="url(#paint1_radial_206_10015)"/>
<path id="Vector_3" d="M16.5 19H14V17.5H10V19H7.5C7.224 19 7 19.224 7 19.5V20.5C7 20.776 7.224 21 7.5 21H16.5C16.776 21 17 20.776 17 20.5V19.5C17 19.224 16.776 19 16.5 19Z" fill="url(#paint2_linear_206_10015)"/>
<path id="Vector_4" opacity="0.05" d="M12 7.25V9.75C12 10.164 12.336 10.5 12.75 10.5H15.25C15.664 10.5 16 10.164 16 9.75V7.25C16 6.836 15.664 6.5 15.25 6.5H12.75C12.336 6.5 12 6.836 12 7.25Z" fill="black"/>
<path id="Vector_5" opacity="0.07" d="M15.25 10.25H12.75C12.474 10.25 12.25 10.026 12.25 9.75V7.25C12.25 6.974 12.474 6.75 12.75 6.75H15.25C15.526 6.75 15.75 6.974 15.75 7.25V9.75C15.75 10.026 15.526 10.25 15.25 10.25Z" fill="black"/>
<path id="Vector_6" opacity="0.05" d="M8 7.25V9.75C8 10.164 8.336 10.5 8.75 10.5H11.25C11.664 10.5 12 10.164 12 9.75V7.25C12 6.836 11.664 6.5 11.25 6.5H8.75C8.336 6.5 8 6.836 8 7.25Z" fill="black"/>
<path id="Vector_7" opacity="0.07" d="M11.25 10.25H8.75C8.474 10.25 8.25 10.026 8.25 9.75V7.25C8.25 6.974 8.474 6.75 8.75 6.75H11.25C11.526 6.75 11.75 6.974 11.75 7.25V9.75C11.75 10.026 11.526 10.25 11.25 10.25Z" fill="black"/>
<path id="Vector_8" opacity="0.05" d="M8 11.25V13.75C8 14.164 8.336 14.5 8.75 14.5H11.25C11.664 14.5 12 14.164 12 13.75V11.25C12 10.836 11.664 10.5 11.25 10.5H8.75C8.336 10.5 8 10.836 8 11.25Z" fill="black"/>
<path id="Vector_9" opacity="0.07" d="M11.25 14.25H8.75C8.474 14.25 8.25 14.026 8.25 13.75V11.25C8.25 10.974 8.474 10.75 8.75 10.75H11.25C11.526 10.75 11.75 10.974 11.75 11.25V13.75C11.75 14.026 11.526 14.25 11.25 14.25Z" fill="black"/>
<path id="Vector_10" opacity="0.05" d="M12 11.25V13.75C12 14.164 12.336 14.5 12.75 14.5H15.25C15.664 14.5 16 14.164 16 13.75V11.25C16 10.836 15.664 10.5 15.25 10.5H12.75C12.336 10.5 12 10.836 12 11.25Z" fill="black"/>
<path id="Vector_11" opacity="0.07" d="M15.25 14.25H12.75C12.474 14.25 12.25 14.026 12.25 13.75V11.25C12.25 10.974 12.474 10.75 12.75 10.75H15.25C15.526 10.75 15.75 10.974 15.75 11.25V13.75C15.75 14.026 15.526 14.25 15.25 14.25Z" fill="black"/>
<path id="Vector_12" d="M11.25 10H8.75C8.612 10 8.5 9.888 8.5 9.75V7.25C8.5 7.112 8.612 7 8.75 7H11.25C11.388 7 11.5 7.112 11.5 7.25V9.75C11.5 9.888 11.388 10 11.25 10Z" fill="white"/>
<path id="Vector_13" d="M11.25 14H8.75C8.612 14 8.5 13.888 8.5 13.75V11.25C8.5 11.112 8.612 11 8.75 11H11.25C11.388 11 11.5 11.112 11.5 11.25V13.75C11.5 13.888 11.388 14 11.25 14Z" fill="white"/>
<path id="Vector_14" d="M15.25 14H12.75C12.612 14 12.5 13.888 12.5 13.75V11.25C12.5 11.112 12.612 11 12.75 11H15.25C15.388 11 15.5 11.112 15.5 11.25V13.75C15.5 13.888 15.388 14 15.25 14Z" fill="white"/>
<path id="Vector_15" d="M15.25 10H12.75C12.612 10 12.5 9.888 12.5 9.75V7.25C12.5 7.112 12.612 7 12.75 7H15.25C15.388 7 15.5 7.112 15.5 7.25V9.75C15.5 9.888 15.388 10 15.25 10Z" fill="white"/>
</g>
<defs>
<linearGradient id="paint0_linear_206_10015" x1="4.3315" y1="4.0295" x2="19.061" y2="16.4575" gradientUnits="userSpaceOnUse">
<stop stop-color="#A1AAB3"/>
<stop offset="1" stop-color="#8F979E"/>
</linearGradient>
<radialGradient id="paint1_radial_206_10015" cx="0" cy="0" r="1" gradientUnits="userSpaceOnUse" gradientTransform="translate(23.5404 29.4681) scale(34.9077 30.9965)">
<stop offset="0.323" stop-color="#23D9D6"/>
<stop offset="0.427" stop-color="#23D4D7"/>
<stop offset="0.542" stop-color="#21C7DC"/>
<stop offset="0.664" stop-color="#1FB0E2"/>
<stop offset="0.789" stop-color="#1C91EC"/>
<stop offset="0.917" stop-color="#1969F8"/>
<stop offset="0.944" stop-color="#1860FB"/>
</radialGradient>
<linearGradient id="paint2_linear_206_10015" x1="12" y1="17.4925" x2="12" y2="21.007" gradientUnits="userSpaceOnUse">
<stop stop-color="#484B4F"/>
<stop offset="0.23" stop-color="#656D75"/>
<stop offset="0.367" stop-color="#727D86"/>
</linearGradient>
</defs>
</svg>
