<svg width="24" height="24" viewBox="0 0 24 24" fill="none" xmlns="http://www.w3.org/2000/svg">
<g id="windows-10">
<path id="Vector" d="M10 12.513L2.5055 12.5L2.506 18.001C2.506 18.5005 2.8745 18.923 3.369 18.9915L10 19.909V12.513Z" fill="url(#paint0_linear_206_9991)"/>
<path id="Vector_2" d="M11 12.515V20.0475L20.361 21.3425C20.962 21.4255 21.498 20.959 21.498 20.352L21.5 12.533L11 12.515Z" fill="url(#paint1_linear_206_9991)"/>
<path id="Vector_3" d="M10 4.12805L3.361 5.06805C2.8675 5.13805 2.5005 5.56055 2.501 6.05905L2.507 11.5001H10V4.12805Z" fill="url(#paint2_linear_206_9991)"/>
<path id="Vector_4" d="M11 3.98648V11.5H21.4975V3.65148C21.4975 3.04348 20.9595 2.57598 20.3575 2.66148L11 3.98648Z" fill="url(#paint3_linear_206_9991)"/>
</g>
<defs>
<linearGradient id="paint0_linear_206_9991" x1="4.8515" y1="13.0595" x2="8.2925" y2="18.795" gradientUnits="userSpaceOnUse">
<stop stop-color="#1784D8"/>
<stop offset="1" stop-color="#0864C5"/>
</linearGradient>
<linearGradient id="paint1_linear_206_9991" x1="12.302" y1="13.565" x2="22.2725" y2="20.4475" gradientUnits="userSpaceOnUse">
<stop stop-color="#31ABEC"/>
<stop offset="1" stop-color="#1582D5"/>
</linearGradient>
<linearGradient id="paint2_linear_206_9991" x1="4.071" y1="5.84955" x2="12.894" y2="13.7906" gradientUnits="userSpaceOnUse">
<stop stop-color="#31ABEC"/>
<stop offset="1" stop-color="#1582D5"/>
</linearGradient>
<linearGradient id="paint3_linear_206_9991" x1="12.9565" y1="5.07348" x2="28.0155" y2="15.309" gradientUnits="userSpaceOnUse">
<stop stop-color="#54DAFF"/>
<stop offset="1" stop-color="#25A2E5"/>
</linearGradient>
</defs>
</svg>
