<svg width="24" height="24" viewBox="0 0 24 24" fill="none" xmlns="http://www.w3.org/2000/svg">
<g id="workflow">
<path id="Vector" d="M6 9C7.65685 9 9 7.65685 9 6C9 4.34315 7.65685 3 6 3C4.34315 3 3 4.34315 3 6C3 7.65685 4.34315 9 6 9Z" fill="#33C481"/>
<path id="Vector_2" d="M20 21H16C15.4475 21 15 20.5525 15 20V16C15 15.4475 15.4475 15 16 15H20C20.5525 15 21 15.4475 21 16V20C21 20.5525 20.5525 21 20 21Z" fill="url(#paint0_linear_206_10042)"/>
<path id="Vector_3" d="M17.499 9.04251L14.9575 6.50101C14.6805 6.22401 14.6805 5.77551 14.9575 5.49901L17.499 2.95751C17.776 2.68051 18.2245 2.68051 18.501 2.95751L21.0425 5.49901C21.3195 5.77601 21.3195 6.22451 21.0425 6.50101L18.501 9.04251C18.2245 9.31901 17.7755 9.31901 17.499 9.04251Z" fill="url(#paint1_linear_206_10042)"/>
<path id="Vector_4" d="M6 14C5.724 14 5.5 13.776 5.5 13.5V11C5.5 10.724 5.724 10.5 6 10.5C6.276 10.5 6.5 10.724 6.5 11V13.5C6.5 13.776 6.276 14 6 14Z" fill="#7A848D"/>
<path id="Vector_5" d="M18 13.5C17.724 13.5 17.5 13.276 17.5 13V10.5C17.5 10.224 17.724 10 18 10C18.276 10 18.5 10.224 18.5 10.5V13C18.5 13.276 18.276 13.5 18 13.5Z" fill="#7A848D"/>
<path id="Vector_6" d="M13 6.5H10.5C10.224 6.5 10 6.276 10 6C10 5.724 10.224 5.5 10.5 5.5H13C13.276 5.5 13.5 5.724 13.5 6C13.5 6.276 13.276 6.5 13 6.5Z" fill="#7A848D"/>
<path id="Vector_7" d="M9 21H3C2.82 21 2.6535 20.903 2.565 20.7465C2.476 20.59 2.4785 20.3975 2.5715 20.243L5.5715 15.243C5.752 14.9415 6.2485 14.9415 6.429 15.243L9.429 20.243C9.522 20.3975 9.524 20.59 9.4355 20.7465C9.3465 20.903 9.18 21 9 21Z" fill="#ED6C47"/>
<path id="Vector_8" d="M6.5 11.5H5.5C5.298 11.5 5.1155 11.378 5.038 11.1915C4.9605 11.0045 5.0035 10.7895 5.1465 10.6465L5.6465 10.1465C5.842 9.951 6.158 9.951 6.3535 10.1465L6.8535 10.6465C6.9965 10.7895 7.0395 11.0045 6.962 11.1915C6.8845 11.378 6.702 11.5 6.5 11.5Z" fill="#7A848D"/>
<path id="Vector_9" d="M12.5 6.49997V5.49997C12.5 5.29797 12.622 5.11547 12.8085 5.03797C12.9955 4.96047 13.2105 5.00347 13.3535 5.14647L13.8535 5.64647C14.049 5.84197 14.049 6.15797 13.8535 6.35347L13.3535 6.85347C13.2105 6.99647 12.9955 7.03947 12.8085 6.96197C12.622 6.88447 12.5 6.70197 12.5 6.49997Z" fill="#7A848D"/>
<path id="Vector_10" d="M17.5 12.5H18.5C18.702 12.5 18.8845 12.622 18.962 12.8085C19.0395 12.9955 18.9965 13.2105 18.8535 13.3535L18.3535 13.8535C18.158 14.049 17.842 14.049 17.6465 13.8535L17.1465 13.3535C17.0035 13.2105 16.9605 12.9955 17.038 12.8085C17.1155 12.622 17.298 12.5 17.5 12.5Z" fill="#7A848D"/>
</g>
<defs>
<linearGradient id="paint0_linear_206_10042" x1="15" y1="18" x2="21" y2="18" gradientUnits="userSpaceOnUse">
<stop stop-color="#C965EB"/>
<stop offset="1" stop-color="#C767E5"/>
</linearGradient>
<linearGradient id="paint1_linear_206_10042" x1="14.75" y1="6.00001" x2="21.2505" y2="6.00001" gradientUnits="userSpaceOnUse">
<stop stop-color="#42A3F2"/>
<stop offset="1" stop-color="#42A4EB"/>
</linearGradient>
</defs>
</svg>
