<svg width="24" height="24" viewBox="0 0 24 24" fill="none" xmlns="http://www.w3.org/2000/svg">
<g id="worldwide-delivery">
<path id="Vector" d="M21 11C21 15.97 16.97 20 12 20C7.03 20 3 15.97 3 11C3 6.03 7.0295 2 12 2C16.9705 2 21 6.0295 21 11Z" fill="url(#paint0_linear_206_10053)"/>
<path id="Vector_2" d="M16.512 14.202L16.8515 14.493V14.8325L16.415 15.3175C16.3665 15.366 16.318 15.463 16.2695 15.5115L15.93 16.239C15.8815 16.336 15.7845 16.4815 15.6875 16.53L14.96 17.112L14.9115 17.1605L14.0865 17.888L13.7955 18.1305L13.456 18.3245L13.262 18.4215L12.971 18.664L12.8255 19.43L12.396 19.99L12.2455 19.46L12.0975 18.9065L12.2915 18.567L12.243 18.1305L12.4855 17.7425L12.631 16.8205C12.6795 16.481 12.534 16.1415 12.243 15.947C12.0975 15.85 12.0005 15.7045 11.9035 15.559L11.6125 14.88L11.3215 14.686V14.4435L11.4185 14.1525L11.467 13.8615L11.855 13.522L11.273 12.9885C11.2245 12.94 11.2245 12.94 11.176 12.8915L10.7395 12.552C10.7395 12.552 10.691 12.552 10.691 12.5035L9.9635 12.0185C9.915 11.97 9.8665 11.97 9.7695 11.9215L9.333 11.776C9.2845 11.776 9.236 11.7275 9.1875 11.7275L8.4115 11.291C8.3145 11.2425 8.2175 11.1455 8.169 11.0485L7.684 10.418C7.6355 10.321 7.587 10.2725 7.5385 10.1755L7.199 9.205C7.1505 9.108 7.102 9.011 7.0535 8.9625L7.005 8.8655C6.908 8.72 6.811 8.526 6.811 8.332V8.0895C6.811 7.9925 6.811 7.8955 6.8595 7.7985L7.199 6.925C7.2475 6.7795 7.2475 6.634 7.2475 6.4885L7.005 4.8875L6.615 4.79L6.0815 5.1295L5.984 4.79L7.0515 4.0135V3.771L7.6335 3.5285C7.8275 3.4315 8.0215 3.4315 8.2155 3.48L10.1075 3.965L10.4955 4.0135L11.126 3.965L11.175 4.305L10.253 5.324L10.3985 5.712L10.6895 5.6635L11.3685 6.0515L11.708 5.906L11.805 4.887H12.193L12.8235 5.178C12.969 5.2265 13.1145 5.372 13.2115 5.5175L13.3085 5.663C13.357 5.7115 13.4055 5.8085 13.5025 5.857L13.8905 6.1965C13.9875 6.2935 14.036 6.342 14.133 6.439L14.521 7.1665L14.327 7.3605L13.6965 7.5545L13.3085 7.603L12.6295 8.088L12.581 8.1365L12.387 8.282C12.2415 8.379 12.1445 8.5245 12.096 8.67L12.0475 8.767C11.999 8.9125 11.902 9.058 11.805 9.155L11.223 9.6885L10.9805 9.834L9.331 10.125L9.2825 10.2705C9.234 10.513 9.2825 10.804 9.4765 10.998L9.7675 11.3375C9.8645 11.4345 10.01 11.5315 10.1555 11.58L10.6405 11.774C10.7375 11.8225 10.8345 11.871 10.9315 11.968L11.902 12.89L12.096 12.6475L12.3385 12.502C12.5325 12.405 12.7265 12.3565 12.9205 12.405L13.6965 12.5505L13.9875 12.7445L14.812 13.181L16.413 14.103C16.4635 14.105 16.512 14.1535 16.512 14.202ZM13.5525 4.1595L13.7465 4.5475L14.28 5.081L14.571 5.2265L14.7165 5.081V4.208L14.959 3.8685L15.056 3.626L14.1825 2.8985C14.0855 2.8015 13.9885 2.753 13.843 2.7045L13.504 2.51C13.31 2.413 13.1645 2.3645 12.9705 2.3645C12.728 2.3645 12.534 2.3645 12.2915 2.4615L12.097 2.51L12 2.7525L12.291 3.0435L13.5525 4.1595ZM19.229 7.992L19.132 7.167L19.4715 7.0215L19.908 7.895L20.337 7.6175C19.5275 5.625 18.0265 3.992 16.1305 3.0095L17.725 6.0515L18.744 6.9735V7.2645L18.5015 7.3615L18.744 8.235H19.0835L19.229 7.992ZM18.911 16.762C20.214 15.2005 21 13.1925 21 11C21 10.1625 20.877 9.355 20.6625 8.5855L20.393 8.477L20.296 8.8165L19.908 8.3315L19.2775 8.574L18.938 8.962L19.0835 9.35L18.7925 9.738V11.7755L19.423 12.649L19.811 12.455L20.102 12.1155L20.3445 12.3095C20.393 13.474 19.085 16.151 19.085 16.151L18.911 16.762Z" fill="url(#paint1_linear_206_10053)"/>
<path id="Vector_3" d="M21 21H15.5V11H21.5C21.776 11 22 11.224 22 11.5V20C22 20.5525 21.5525 21 21 21Z" fill="url(#paint2_linear_206_10053)"/>
<path id="Vector_4" d="M15.5 21H3C2.4475 21 2 20.5525 2 20V11.5C2 11.224 2.224 11 2.5 11H16.5V20C16.5 20.5525 16.0525 21 15.5 21Z" fill="url(#paint3_linear_206_10053)"/>
<path id="Vector_5" d="M16.5 11H2.309C2.1195 11 1.9465 11.107 1.862 11.2765L0.680998 13.6385C0.597998 13.8045 0.718498 14 0.904498 14H14.691C14.8805 14 15.0535 13.893 15.138 13.7235L16.5 11Z" fill="url(#paint4_linear_206_10053)"/>
<path id="Vector_6" d="M16.5 11H21.691C21.8805 11 22.0535 11.107 22.138 11.2765L23.319 13.6385C23.402 13.8045 23.2815 14 23.0955 14H18.309C18.1195 14 17.9465 13.893 17.862 13.7235L16.5 11Z" fill="url(#paint5_linear_206_10053)"/>
</g>
<defs>
<linearGradient id="paint0_linear_206_10053" x1="5.636" y1="4.636" x2="18.474" y2="17.474" gradientUnits="userSpaceOnUse">
<stop stop-color="#00BFFE"/>
<stop offset="1" stop-color="#1D55C4"/>
</linearGradient>
<linearGradient id="paint1_linear_206_10053" x1="6.008" y1="2.946" x2="19.9825" y2="16.921" gradientUnits="userSpaceOnUse">
<stop stop-color="#84E1FE"/>
<stop offset="1" stop-color="#167CF7"/>
</linearGradient>
<linearGradient id="paint2_linear_206_10053" x1="14.634" y1="11.9105" x2="22.371" y2="19.877" gradientUnits="userSpaceOnUse">
<stop stop-color="#EBA600"/>
<stop offset="1" stop-color="#C28200"/>
</linearGradient>
<linearGradient id="paint3_linear_206_10053" x1="3.576" y1="9.8605" x2="14.991" y2="21.6145" gradientUnits="userSpaceOnUse">
<stop stop-color="#FFD869"/>
<stop offset="1" stop-color="#FEC52B"/>
</linearGradient>
<linearGradient id="paint4_linear_206_10053" x1="8.577" y1="13.87" x2="8.577" y2="-1.9855" gradientUnits="userSpaceOnUse">
<stop stop-color="#EBA600"/>
<stop offset="1" stop-color="#C28200"/>
</linearGradient>
<linearGradient id="paint5_linear_206_10053" x1="19.923" y1="13.8645" x2="19.923" y2="11.786" gradientUnits="userSpaceOnUse">
<stop stop-color="#FFD869"/>
<stop offset="1" stop-color="#FEC52B"/>
</linearGradient>
</defs>
</svg>
