<svg width="24" height="24" viewBox="0 0 24 24" fill="none" xmlns="http://www.w3.org/2000/svg">
<g id="wrench">
<path id="Vector" d="M14.25 13.2895L10.7105 9.75L5.4585 15.002C3.5445 15.0245 2 16.581 2 18.5C2 20.433 3.567 22 5.5 22C7.419 22 8.9755 20.455 8.998 18.5415L14.25 13.2895Z" fill="url(#paint0_linear_206_10060)"/>
<path id="Vector_2" d="M18.95 8.55898C17.981 9.52798 16.41 9.52798 15.441 8.55898C14.472 7.58998 14.472 6.01898 15.441 5.04998C15.6775 4.81348 16.6305 3.86048 17.601 2.88998C17.834 2.65698 17.7305 2.25048 17.411 2.17198C16.624 1.97848 15.7775 1.93798 14.897 2.10398C12.3145 2.59098 10.3005 4.75198 10.0325 7.36648C9.6415 11.1785 12.823 14.3595 16.635 13.9675C19.249 13.699 21.41 11.685 21.896 9.10248C22.062 8.22198 22.021 7.37598 21.8275 6.58948C21.749 6.26998 21.3425 6.16648 21.1095 6.39948C20.1395 7.36948 19.1865 8.32248 18.95 8.55898Z" fill="url(#paint1_linear_206_10060)"/>
<path id="Vector_3" d="M5.5 20.5C6.60457 20.5 7.5 19.6046 7.5 18.5C7.5 17.3954 6.60457 16.5 5.5 16.5C4.39543 16.5 3.5 17.3954 3.5 18.5C3.5 19.6046 4.39543 20.5 5.5 20.5Z" fill="url(#paint2_linear_206_10060)"/>
<path id="Vector_4" d="M5.5 19.5C6.05228 19.5 6.5 19.0523 6.5 18.5C6.5 17.9477 6.05228 17.5 5.5 17.5C4.94772 17.5 4.5 17.9477 4.5 18.5C4.5 19.0523 4.94772 19.5 5.5 19.5Z" fill="url(#paint3_linear_206_10060)"/>
</g>
<defs>
<linearGradient id="paint0_linear_206_10060" x1="3.2175" y1="20.7825" x2="11.841" y2="12.159" gradientUnits="userSpaceOnUse">
<stop offset="0.503" stop-color="#A1AAB3"/>
<stop offset="0.658" stop-color="#9EA7AF"/>
<stop offset="0.796" stop-color="#949DA5"/>
<stop offset="0.928" stop-color="#848C92"/>
<stop offset="1" stop-color="#787F85"/>
</linearGradient>
<linearGradient id="paint1_linear_206_10060" x1="11.4205" y1="4.00098" x2="19.774" y2="12.3545" gradientUnits="userSpaceOnUse">
<stop stop-color="#A1AAB3"/>
<stop offset="1" stop-color="#8F979E"/>
</linearGradient>
<linearGradient id="paint2_linear_206_10060" x1="6.8945" y1="19.8945" x2="4.091" y2="17.091" gradientUnits="userSpaceOnUse">
<stop stop-color="white"/>
<stop offset="0.242" stop-color="#F2F2F2"/>
<stop offset="1" stop-color="#CCCCCC"/>
</linearGradient>
<linearGradient id="paint3_linear_206_10060" x1="4.5645" y1="17.5645" x2="6.2055" y2="19.2055" gradientUnits="userSpaceOnUse">
<stop stop-color="#0D61A9"/>
<stop offset="0.363" stop-color="#0E5FA4"/>
<stop offset="0.78" stop-color="#135796"/>
<stop offset="1" stop-color="#16528C"/>
</linearGradient>
</defs>
</svg>
