<svg width="24" height="24" viewBox="0 0 24 24" fill="none" xmlns="http://www.w3.org/2000/svg">
<g id="x2">
<path id="Vector" d="M21 19C21 20.1045 20.1045 21 19 21H5C3.8955 21 3 20.1045 3 19V5C3 3.8955 3.8955 3 5 3H19C20.1045 3 21 3.8955 21 5V19Z" fill="url(#paint0_linear_206_10065)"/>
<path id="Vector_2" opacity="0.05" d="M12.55 18.5L11.8045 17.1875L11.0475 18.5H8.56L10.5295 15.6585L8.69 12.75H11.152L11.8745 14.1105L12.636 12.75H13.9915V11.5955L14.1905 11.445C14.345 11.329 14.5045 11.226 14.665 11.1385C14.8255 11.0505 14.9965 10.975 15.1735 10.915C15.3475 10.855 15.5345 10.809 15.7285 10.7795C15.9175 10.751 16.119 10.7365 16.328 10.7365C16.6775 10.7365 17.0045 10.7845 17.2975 10.879C17.608 10.9795 17.8785 11.131 18.102 11.3285C18.3315 11.531 18.5105 11.786 18.6335 12.085C18.752 12.3745 18.8125 12.704 18.8125 13.064C18.8125 13.383 18.7715 13.677 18.6905 13.938C18.61 14.197 18.4945 14.4415 18.3475 14.665C18.206 14.881 18.0325 15.088 17.8335 15.2795C17.6515 15.4545 17.449 15.635 17.2255 15.8195C17.039 15.97 16.8575 16.114 16.6775 16.254C16.5355 16.364 16.4055 16.471 16.2885 16.5765H18.9145V18.5H12.55ZM13.8525 16.7435C13.8525 16.7425 13.853 16.7419 13.853 16.7409C13.9245 16.5199 14.02 16.309 14.139 16.1135C14.2565 15.921 14.3935 15.7404 14.546 15.5754C14.6905 15.419 14.8445 15.2685 15.0085 15.1235C15.1665 14.983 15.3285 14.847 15.4925 14.7165C15.648 14.594 15.7985 14.471 15.9465 14.347C16.0775 14.2365 16.1975 14.127 16.306 14.02C16.4 13.9275 16.4805 13.832 16.5455 13.736C16.603 13.6505 16.649 13.559 16.681 13.4645C16.71 13.379 16.7245 13.282 16.7245 13.1765C16.7245 13.067 16.71 12.976 16.6805 12.905C16.6545 12.842 16.6225 12.7945 16.58 12.7559C16.534 12.7145 16.4785 12.683 16.41 12.66C16.33 12.6325 16.237 12.619 16.134 12.619C15.935 12.619 15.7245 12.6685 15.5085 12.7655C15.2825 12.8675 15.058 13.026 14.841 13.2375L14.487 13.583L13.125 15.6515L13.8525 16.7435Z" fill="black"/>
<path id="Vector_3" opacity="0.07" d="M15.735 16.827C15.7415 16.8165 15.7475 16.807 15.7545 16.7965C15.831 16.682 15.935 16.564 16.0625 16.446C16.199 16.319 16.354 16.1895 16.526 16.057C16.7045 15.9185 16.885 15.7755 17.068 15.6275C17.2865 15.4475 17.484 15.271 17.662 15.1C17.8475 14.9215 18.0085 14.729 18.1405 14.528C18.2745 14.3245 18.38 14.101 18.4535 13.864C18.527 13.626 18.5645 13.357 18.5645 13.064C18.5645 12.7365 18.5105 12.439 18.404 12.18C18.2955 11.9165 18.1385 11.6925 17.9375 11.5155C17.74 11.3405 17.4995 11.2065 17.222 11.1165C16.9535 11.03 16.653 10.986 16.329 10.986C16.131 10.986 15.942 10.9995 15.767 11.026C15.5875 11.0535 15.415 11.0955 15.2555 11.1505C15.0945 11.2055 14.936 11.275 14.786 11.3575C14.635 11.4395 14.4855 11.536 14.342 11.644L14.2425 11.719V13H12.7835L11.8695 14.6325L11.0015 13H9.14401L10.8295 15.665L9.03751 18.25H10.9025L11.806 16.684L12.695 18.25H18.6655V16.827H15.735ZM15.1745 15.3105C15.017 15.45 14.869 15.595 14.73 15.745C14.588 15.899 14.461 16.067 14.3525 16.2435C14.244 16.4215 14.156 16.6145 14.0915 16.817C14.032 17.002 14.003 17.2025 13.997 17.411L12.8255 15.6515L14.293 13.422L14.6665 13.0575C14.9045 12.8255 15.1535 12.6505 15.406 12.5365C15.654 12.4245 15.899 12.368 16.134 12.368C16.264 12.368 16.3835 12.386 16.49 12.422C16.591 12.456 16.6755 12.5045 16.7475 12.5695C16.818 12.633 16.8715 12.7115 16.912 12.809C16.9535 12.91 16.9745 13.033 16.9745 13.175C16.9745 13.3075 16.9555 13.4315 16.918 13.543C16.879 13.658 16.8235 13.77 16.753 13.8745C16.6795 13.9835 16.5885 14.092 16.4825 14.1965C16.3695 14.308 16.2445 14.422 16.108 14.5375C15.9585 14.663 15.806 14.7875 15.649 14.9115C15.488 15.04 15.3295 15.173 15.1745 15.3105Z" fill="black"/>
<path id="Vector_4" d="M14.107 13.25H12.9295L11.867 15.1475H11.8535C11.7945 15.0265 11.7345 14.909 11.6725 14.795L10.8515 13.25H9.5985L11.13 15.6715L9.515 18H10.758L11.6065 16.5295C11.724 16.329 11.789 16.214 11.8015 16.1865H11.82C11.8915 16.325 11.953 16.44 12.0055 16.5295L12.841 18H14.0885L12.5255 15.653L14.107 13.25Z" fill="white"/>
<path id="Vector_5" d="M18.416 18V17.077H15.4145V17.0534C15.4145 16.9204 15.459 16.7885 15.547 16.6569C15.6355 16.5254 15.7505 16.3945 15.8925 16.2625C16.0345 16.131 16.1945 15.997 16.3725 15.859C16.5505 15.721 16.729 15.5795 16.9085 15.434C17.1215 15.258 17.315 15.0865 17.488 14.9195C17.661 14.7525 17.809 14.576 17.931 14.3905C18.053 14.205 18.1475 14.005 18.214 13.79C18.2805 13.575 18.3135 13.333 18.3135 13.064C18.3135 12.767 18.266 12.5045 18.172 12.2755C18.078 12.0465 17.944 11.8555 17.7705 11.7025C17.5975 11.549 17.3885 11.4335 17.1445 11.3545C16.9005 11.276 16.628 11.2365 16.328 11.2365C16.1425 11.2365 15.9675 11.2485 15.8035 11.2735C15.64 11.2985 15.4835 11.336 15.335 11.3875C15.1865 11.4385 15.0425 11.502 14.904 11.5775C14.7645 11.6535 14.627 11.7419 14.491 11.8444V12.8785C14.751 12.625 15.0215 12.4345 15.3025 12.308C15.584 12.181 15.861 12.1175 16.133 12.1175C16.2905 12.1175 16.436 12.14 16.569 12.185C16.702 12.23 16.817 12.2965 16.9145 12.384C17.0115 12.4725 17.0875 12.582 17.1415 12.7135C17.1955 12.845 17.223 12.9985 17.223 13.175C17.223 13.3355 17.1995 13.485 17.153 13.623C17.1065 13.761 17.0415 13.891 16.958 14.015C16.8745 14.1385 16.774 14.258 16.656 14.3745C16.539 14.49 16.409 14.609 16.2665 14.729C16.115 14.856 15.961 14.982 15.8025 15.1075C15.6455 15.2325 15.4905 15.3625 15.3385 15.497C15.187 15.6315 15.045 15.7705 14.9115 15.9145C14.7785 16.058 14.663 16.2115 14.564 16.3735C14.465 16.536 14.3865 16.7095 14.3275 16.893C14.2685 17.077 14.239 17.2745 14.239 17.485V18H18.416Z" fill="white"/>
</g>
<defs>
<linearGradient id="paint0_linear_206_10065" x1="3.4125" y1="2.7685" x2="20.7345" y2="21.39" gradientUnits="userSpaceOnUse">
<stop stop-color="#33BEF0"/>
<stop offset="1" stop-color="#0A85D9"/>
</linearGradient>
</defs>
</svg>
