<svg width="24" height="24" viewBox="0 0 24 24" fill="none" xmlns="http://www.w3.org/2000/svg">
<g id="xml-transformer">
<path id="Vector" d="M19.5 8V19.5C19.5 20.6 18.6 21.5 17.5 21.5H6.15C5.25 21.5 4.5 20.75 4.5 19.85V4.35C4.5 3.35 5.3 2.5 6.35 2.5H14L19.5 8Z" fill="url(#paint0_linear_206_10071)"/>
<path id="Vector_2" d="M14 2.5V7C14 7.55 14.45 8 15 8H19.5L14 2.5Z" fill="url(#paint1_linear_206_10071)"/>
<path id="Vector_3" d="M4.6 9.45L3.05 7.3C2.8 6.95 3.05 6.5 3.45 6.5H6.5C6.9 6.5 7.15 6.95 6.9 7.3L5.35 9.45C5.2 9.7 4.8 9.7 4.6 9.45Z" fill="#2D7AD4"/>
<path id="Vector_4" d="M19.4 15.05L20.95 17.2C21.2 17.55 20.95 18 20.55 18H17.5C17.1 18 16.85 17.55 17.1 17.2L18.65 15.05C18.8 14.8 19.2 14.8 19.4 15.05Z" fill="#2D7AD4"/>
<path id="Vector_5" d="M5 7.55V4C5 3.45 5.45 3 6 3H14" stroke="#2D7AD4" stroke-miterlimit="10"/>
<path id="Vector_6" d="M19 16.5V20C19 20.55 18.55 21 18 21H9.5" stroke="#2D7AD4" stroke-miterlimit="10"/>
<path id="Vector_7" d="M12 21.5H6C5.15 21.5 4.5 20.85 4.5 20V12.25C4.5 12.1 4.6 12 4.75 12H5.25C5.4 12 5.5 12.1 5.5 12.25V20C5.5 20.3 5.7 20.5 6 20.5H12V21.5Z" fill="#2D7AD4"/>
<path id="Vector_8" d="M19.25 12.5H18.75C18.6 12.5 18.5 12.4 18.5 12.25V8H19.5V12.25C19.5 12.4 19.4 12.5 19.25 12.5Z" fill="#2C7BD4"/>
<path id="Vector_9" d="M10.25 14.6H9.40001L8.85001 13.55C8.85001 13.5 8.80001 13.45 8.80001 13.35C8.80001 13.4 8.75001 13.45 8.75001 13.55L8.20001 14.55H7.35001L8.35001 12.95L7.45001 11.35H8.30001L8.75001 12.3C8.80001 12.35 8.80001 12.45 8.85001 12.55C8.85001 12.5 8.90001 12.4 8.95001 12.3L9.45001 11.35H10.25L9.30001 12.9L10.25 14.6Z" fill="#0D61A9"/>
<path id="Vector_10" d="M14.35 14.6H13.65V12.7C13.65 12.5 13.65 12.25 13.7 12.05C13.65 12.25 13.65 12.4 13.6 12.45L12.85 14.6H12.25L11.5 12.5C11.5 12.45 11.45 12.3 11.4 12.05C11.4 12.35 11.45 12.65 11.45 12.85V14.6H10.8V11.45H11.85L12.5 13.3C12.55 13.45 12.6 13.6 12.6 13.75C12.65 13.6 12.7 13.4 12.75 13.3L13.4 11.45H14.4V14.6H14.35Z" fill="#0D61A9"/>
<path id="Vector_11" d="M17.05 14.6H15.15V11.45H15.85V14.05H17V14.6H17.05Z" fill="#0D61A9"/>
</g>
<defs>
<linearGradient id="paint0_linear_206_10071" x1="9.22929" y1="2.79171" x2="19.7783" y2="18.8491" gradientUnits="userSpaceOnUse">
<stop stop-color="#7DD8F3"/>
<stop offset="1" stop-color="#45B0D0"/>
</linearGradient>
<linearGradient id="paint1_linear_206_10071" x1="14.2645" y1="7.736" x2="16.8" y2="5.2" gradientUnits="userSpaceOnUse">
<stop stop-color="#3079D6"/>
<stop offset="1" stop-color="#297CD2"/>
</linearGradient>
</defs>
</svg>
