<svg width="24" height="24" viewBox="0 0 24 24" fill="none" xmlns="http://www.w3.org/2000/svg">
<g id="youtube">
<path id="Vector" d="M22.506 17.28C22.2865 18.4 21.354 19.2535 20.202 19.4135C18.3915 19.68 15.374 20 11.9725 20C8.626 20 5.6085 19.68 3.743 19.4135C2.591 19.2535 1.658 18.4 1.439 17.28C1.2195 16.0535 1 14.24 1 12C1 9.76 1.2195 7.9465 1.439 6.72C1.6585 5.6 2.591 4.7465 3.743 4.5865C5.5535 4.32 8.571 4 11.9725 4C15.374 4 18.3365 4.32 20.202 4.5865C21.354 4.7465 22.287 5.6 22.506 6.72C22.7255 7.9465 23 9.76 23 12C22.945 14.24 22.7255 16.0535 22.506 17.28Z" fill="url(#paint0_linear_206_10083)"/>
<path id="Vector_2" opacity="0.05" d="M16.176 11.22L10.458 7.40803C10.1695 7.21553 9.801 7.19753 9.4955 7.36153C9.19 7.52503 9 7.84153 9 8.18803V15.812C9 16.1585 9.19 16.4755 9.4955 16.639C9.6345 16.7135 9.786 16.75 9.9375 16.75C10.1195 16.75 10.3005 16.697 10.4575 16.5925L16.1755 12.7805C16.437 12.606 16.593 12.3145 16.593 12.0005C16.5935 11.686 16.437 11.3945 16.176 11.22Z" fill="black"/>
<path id="Vector_3" opacity="0.07" d="M10.3405 7.61856L15.7355 11.2156C16.08 11.4631 16.312 11.6846 16.312 11.9721C16.312 12.2596 16.2 12.4601 15.9545 12.6391C15.769 12.7741 10.432 16.3211 10.432 16.3211C9.9815 16.6231 9.25 16.5591 9.25 15.5716V8.37206C9.25 7.36956 10.042 7.41956 10.3405 7.61856Z" fill="black"/>
<path id="Vector_4" d="M9.5 15.784V8.21645C9.5 7.84495 9.914 7.62295 10.2235 7.82945L15.8995 11.6135C16.176 11.7975 16.176 12.2035 15.8995 12.388L10.2235 16.172C9.914 16.3775 9.5 16.156 9.5 15.784Z" fill="white"/>
</g>
<defs>
<linearGradient id="paint0_linear_206_10083" x1="4.908" y1="4.9355" x2="20.623" y2="20.6505" gradientUnits="userSpaceOnUse">
<stop stop-color="#F44F5A"/>
<stop offset="0.443" stop-color="#EE3D4A"/>
<stop offset="1" stop-color="#E52030"/>
</linearGradient>
</defs>
</svg>
