<svg width="24" height="24" viewBox="0 0 24 24" fill="none" xmlns="http://www.w3.org/2000/svg">
<g id="zoom-in-2">
<path id="Vector" d="M17.9915 16.224L16.2235 17.992L20.1585 21.927C20.256 22.0245 20.4145 22.0245 20.512 21.927L21.926 20.513C22.0235 20.4155 22.0235 20.257 21.926 20.1595L17.9915 16.224Z" fill="url(#paint0_linear_206_10094)"/>
<path id="Vector_2" d="M15.8005 14.0325L14.0325 15.8005L16.224 17.9915L17.9915 16.224L15.8005 14.0325Z" fill="url(#paint1_radial_206_10094)"/>
<path id="Vector_3" d="M10 18C14.4183 18 18 14.4183 18 10C18 5.58172 14.4183 2 10 2C5.58172 2 2 5.58172 2 10C2 14.4183 5.58172 18 10 18Z" fill="url(#paint2_linear_206_10094)"/>
<path id="Vector_4" d="M9.5 5.5H10.5C10.776 5.5 11 5.724 11 6V14C11 14.276 10.776 14.5 10.5 14.5H9.5C9.224 14.5 9 14.276 9 14V6C9 5.724 9.224 5.5 9.5 5.5Z" fill="url(#paint3_linear_206_10094)"/>
<path id="Vector_5" d="M14.5 9.5V10.5C14.5 10.776 14.276 11 14 11H6C5.724 11 5.5 10.776 5.5 10.5V9.5C5.5 9.224 5.724 9 6 9H14C14.276 9 14.5 9.224 14.5 9.5Z" fill="url(#paint4_linear_206_10094)"/>
</g>
<defs>
<linearGradient id="paint0_linear_206_10094" x1="19.1113" y1="16.2119" x2="19.1113" y2="21.9793" gradientUnits="userSpaceOnUse">
<stop stop-color="#2AA4F4"/>
<stop offset="1" stop-color="#007AD9"/>
</linearGradient>
<radialGradient id="paint1_radial_206_10094" cx="0" cy="0" r="1" gradientUnits="userSpaceOnUse" gradientTransform="translate(10.012 10.048) scale(9.802)">
<stop offset="0.693" stop-color="#006185"/>
<stop offset="0.921" stop-color="#35C1F1"/>
</radialGradient>
<linearGradient id="paint2_linear_206_10094" x1="5.54467" y1="-0.383567" x2="16.3904" y2="15.5378" gradientUnits="userSpaceOnUse">
<stop stop-color="#FCFCFC"/>
<stop offset="0.95" stop-color="#C3C9CD"/>
</linearGradient>
<linearGradient id="paint3_linear_206_10094" x1="9" y1="10" x2="11" y2="10" gradientUnits="userSpaceOnUse">
<stop stop-color="#3079D6"/>
<stop offset="1" stop-color="#297CD2"/>
</linearGradient>
<linearGradient id="paint4_linear_206_10094" x1="5.5" y1="10" x2="14.5" y2="10" gradientUnits="userSpaceOnUse">
<stop stop-color="#3079D6"/>
<stop offset="1" stop-color="#297CD2"/>
</linearGradient>
</defs>
</svg>
