<svg width="24" height="24" viewBox="0 0 24 24" fill="none" xmlns="http://www.w3.org/2000/svg">
<path d="M12 22C17.5228 22 22 17.5228 22 12C22 6.4772 17.5228 2 12 2C6.4772 2 2 6.4772 2 12C2 17.5228 6.4772 22 12 22Z" fill="url(#paint0_linear_56_7)"/>
<path d="M15.6739 14.347C15.6739 10.748 10.3609 11.451 10.3609 9.325C10.3609 8.215 11.6089 8.156 11.9989 8.156C12.9369 8.156 13.8419 8.408 14.5319 8.731C14.7499 8.834 14.9999 8.683 14.9999 8.443V7.396C14.9999 7.045 14.8679 6.837 14.6569 6.754C14.1839 6.57 13.5049 6.435 12.4999 6.402V5.25C12.4999 5.112 12.3879 5 12.2499 5H11.7499C11.6119 5 11.4999 5.112 11.4999 5.25V6.421C9.94093 6.573 8.32593 7.453 8.32593 9.499C8.32593 13.23 13.6389 12.489 13.6389 14.454C13.6389 15.072 13.2439 15.604 12.0009 15.604C10.7509 15.604 9.60193 15.168 8.96693 14.842C8.75293 14.733 8.50093 14.891 8.50093 15.131V16.323C8.50093 16.551 8.63893 16.755 8.84993 16.845C9.60293 17.165 10.6129 17.407 11.5019 17.478V18.751C11.5019 18.889 11.6139 19.001 11.7519 19.001H12.2519C12.3899 19.001 12.5019 18.889 12.5019 18.751V17.48C14.8319 17.286 15.6739 15.725 15.6739 14.347Z" fill="white"/>
<defs>
<linearGradient id="paint0_linear_56_7" x1="2" y1="12" x2="22" y2="12" gradientUnits="userSpaceOnUse">
<stop stop-color="#21AD64"/>
<stop offset="1" stop-color="#088242"/>
</linearGradient>
</defs>
</svg>
