<?xml version="1.0" encoding="UTF-8"?>
<svg xmlns="http://www.w3.org/2000/svg" xmlns:xlink="http://www.w3.org/1999/xlink" viewBox="0 0 96 96" width="96px" height="96px">
<defs>
<linearGradient id="linear0" gradientUnits="userSpaceOnUse" x1="26.5525" y1="110.724998" x2="145.447495" y2="110.724998" gradientTransform="matrix(0.55814,0,0,0.55814,0,0)">
<stop offset="0" style="stop-color:rgb(100%,81.176472%,32.941177%);stop-opacity:1;"/>
<stop offset="0.261" style="stop-color:rgb(99.215686%,79.607844%,30.19608%);stop-opacity:1;"/>
<stop offset="0.639" style="stop-color:rgb(96.862745%,75.686276%,22.745098%);stop-opacity:1;"/>
<stop offset="1" style="stop-color:rgb(94.117647%,70.588237%,12.941177%);stop-opacity:1;"/>
</linearGradient>
<linearGradient id="linear1" gradientUnits="userSpaceOnUse" x1="81.29232" y1="120.259247" x2="86.34536" y2="111.540283" gradientTransform="matrix(0.55814,0,0,0.55814,0,0)">
<stop offset="0" style="stop-color:rgb(94.117647%,70.588237%,12.941177%);stop-opacity:0;"/>
<stop offset="0.512" style="stop-color:rgb(91.37255%,67.058825%,7.058824%);stop-opacity:0.512;"/>
<stop offset="1" style="stop-color:rgb(87.843138%,62.352943%,0%);stop-opacity:1;"/>
</linearGradient>
<linearGradient id="linear2" gradientUnits="userSpaceOnUse" x1="107.231247" y1="62.56403" x2="107.231247" y2="88.103813" gradientTransform="matrix(0.55814,0,0,0.55814,0,0)">
<stop offset="0" style="stop-color:rgb(89.803922%,64.705884%,1.960784%);stop-opacity:1;"/>
<stop offset="0.01" style="stop-color:rgb(91.37255%,65.882355%,1.568628%);stop-opacity:1;"/>
<stop offset="0.06" style="stop-color:rgb(95.686275%,69.411767%,0.784314%);stop-opacity:1;"/>
<stop offset="0.129" style="stop-color:rgb(98.431373%,71.372551%,0%);stop-opacity:1;"/>
<stop offset="0.323" style="stop-color:rgb(99.215686%,71.764708%,0%);stop-opacity:1;"/>
</linearGradient>
<linearGradient id="linear3" gradientUnits="userSpaceOnUse" x1="94.430222" y1="29.97831" x2="118.152611" y2="64.466347" gradientTransform="matrix(0.55814,0,0,0.55814,0,0)">
<stop offset="0" style="stop-color:rgb(99.607843%,87.058824%,0%);stop-opacity:1;"/>
<stop offset="1" style="stop-color:rgb(100%,81.568629%,0%);stop-opacity:1;"/>
</linearGradient>
</defs>
<g id="surface23923764">
<path style=" stroke:none;fill-rule:nonzero;fill:rgb(92.54902%,94.117647%,94.509804%);fill-opacity:1;" d="M 8.160156 96 C 3.652344 96 0 92.347656 0 87.839844 L 0 8.160156 C 0 3.652344 3.652344 0 8.160156 0 L 87.839844 0 C 92.347656 0 96 3.652344 96 8.160156 L 96 87.839844 C 96 92.347656 92.347656 96 87.839844 96 Z M 8.160156 96 "/>
<path style=" stroke:none;fill-rule:nonzero;fill:rgb(78.823531%,55.686277%,0%);fill-opacity:1;" d="M 76.441406 59.429688 C 76.441406 61.613281 74.671875 63.378906 72.488281 63.378906 C 70.308594 63.378906 68.539062 61.613281 68.539062 59.429688 C 68.539062 57.25 70.308594 55.480469 72.488281 55.480469 C 74.671875 55.480469 76.441406 57.25 76.441406 59.429688 Z M 76.441406 59.429688 "/>
<path style=" stroke:none;fill-rule:nonzero;fill:rgb(78.823531%,55.686277%,0%);fill-opacity:1;" d="M 51.492188 75.519531 L 74.355469 62.894531 L 70.972656 55.78125 L 51.160156 64.960938 Z M 51.492188 75.519531 "/>
<path style=" stroke:none;fill-rule:nonzero;fill:url(#linear0);" d="M 81.179688 61.011719 C 81.179688 58.828125 79.410156 57.058594 77.230469 57.058594 C 76.691406 57.058594 76.179688 57.167969 75.714844 57.363281 L 75.695312 57.371094 C 75.691406 57.371094 75.691406 57.371094 75.6875 57.375 L 55.898438 66.539062 L 53.53125 64.960938 C 55.710938 64.960938 57.480469 63.191406 57.480469 61.011719 C 57.480469 59.539062 56.667969 58.273438 55.476562 57.59375 L 55.484375 57.566406 L 33.914062 46.71875 L 33.875 46.71875 C 32.882812 46.265625 31.785156 46 30.621094 46 C 29.484375 46 28.414062 46.25 27.4375 46.679688 L 27.402344 46.679688 L 14.820312 52.320312 L 14.820312 72.859375 L 27.601562 66.984375 L 52.742188 77.269531 C 53.226562 77.480469 53.757812 77.601562 54.320312 77.601562 C 55.007812 77.601562 55.644531 77.410156 56.207031 77.097656 L 56.234375 77.097656 L 79.097656 64.476562 L 79.09375 64.472656 C 80.328125 63.804688 81.179688 62.515625 81.179688 61.011719 Z M 81.179688 61.011719 "/>
<path style=" stroke:none;fill-rule:nonzero;fill:rgb(100%,87.058824%,52.941179%);fill-opacity:1;" d="M 55.898438 61.011719 C 55.898438 62.320312 54.839844 63.378906 53.53125 63.378906 C 52.222656 63.378906 51.160156 62.320312 51.160156 61.011719 C 51.160156 59.699219 52.222656 58.640625 53.53125 58.640625 C 54.839844 58.640625 55.898438 59.699219 55.898438 61.011719 Z M 55.898438 61.011719 "/>
<path style=" stroke:none;fill-rule:nonzero;fill:url(#linear1);" d="M 55.898438 66.539062 L 53.546875 64.964844 C 51.566406 64.867188 50.003906 64.222656 36.941406 59.414062 L 36.941406 64.960938 L 55.191406 72.441406 C 55.191406 72.441406 53.898438 68.832031 55.898438 66.539062 Z M 55.898438 66.539062 "/>
<path style=" stroke:none;fill-rule:nonzero;fill:url(#linear2);" d="M 63.011719 44.421875 C 63.011719 43.777344 63.324219 43.210938 63.800781 42.847656 L 63.800781 40.25 C 63.328125 39.976562 63.011719 39.472656 63.011719 38.890625 C 63.011719 38.308594 63.328125 37.804688 63.800781 37.53125 L 63.800781 34.941406 L 55.898438 34.941406 L 55.898438 46.796875 C 55.898438 47.296875 56.097656 47.777344 56.453125 48.132812 L 56.925781 48.605469 C 57.28125 48.960938 57.761719 49.160156 58.261719 49.160156 L 61.4375 49.160156 C 61.9375 49.160156 62.417969 48.960938 62.769531 48.605469 L 63.246094 48.132812 C 63.601562 47.777344 63.800781 47.296875 63.800781 46.796875 L 63.800781 45.992188 C 63.324219 45.628906 63.011719 45.0625 63.011719 44.421875 Z M 63.011719 44.421875 "/>
<path style=" stroke:none;fill-rule:nonzero;fill:url(#linear3);" d="M 70.121094 24.671875 C 70.121094 18.996094 65.523438 14.398438 59.851562 14.398438 C 54.179688 14.398438 49.578125 18.996094 49.578125 24.671875 C 49.578125 24.9375 49.601562 25.199219 49.621094 25.460938 L 49.578125 25.460938 L 49.578125 31.78125 C 49.578125 33.523438 50.996094 34.941406 52.738281 34.941406 L 66.960938 34.941406 C 68.703125 34.941406 70.121094 33.523438 70.121094 31.78125 L 70.121094 25.460938 L 70.082031 25.460938 C 70.097656 25.199219 70.121094 24.9375 70.121094 24.671875 Z M 59.851562 19.140625 C 62.03125 19.140625 63.800781 20.90625 63.800781 23.089844 C 63.800781 25.273438 62.03125 27.039062 59.851562 27.039062 C 57.667969 27.039062 55.898438 25.273438 55.898438 23.089844 C 55.898438 20.90625 57.667969 19.140625 59.851562 19.140625 Z M 59.851562 19.140625 "/>
</g>
</svg>
