<?xml version="1.0" encoding="UTF-8"?>
<svg xmlns="http://www.w3.org/2000/svg" xmlns:xlink="http://www.w3.org/1999/xlink" viewBox="0 0 96 96" width="96px" height="96px">
<defs>
<linearGradient id="linear0" gradientUnits="userSpaceOnUse" x1="68.398666" y1="22.31127" x2="104.851196" y2="137.015198" gradientTransform="matrix(0.55814,0,0,0.55814,0,0)">
<stop offset="0" style="stop-color:rgb(78.039217%,46.666667%,25.098041%);stop-opacity:1;"/>
<stop offset="1" style="stop-color:rgb(69.01961%,38.431373%,16.862746%);stop-opacity:1;"/>
</linearGradient>
<linearGradient id="linear1" gradientUnits="userSpaceOnUse" x1="88.866669" y1="123.885872" x2="88.866669" y2="135.143265" gradientTransform="matrix(0.55814,0,0,0.55814,0,0)">
<stop offset="0.442" style="stop-color:rgb(52.941179%,52.941179%,52.549022%);stop-opacity:1;"/>
<stop offset="0.594" style="stop-color:rgb(62.352943%,62.352943%,61.960787%);stop-opacity:1;"/>
<stop offset="0.859" style="stop-color:rgb(76.47059%,76.47059%,76.47059%);stop-opacity:1;"/>
<stop offset="1" style="stop-color:rgb(81.960785%,81.960785%,81.960785%);stop-opacity:1;"/>
</linearGradient>
<linearGradient id="linear2" gradientUnits="userSpaceOnUse" x1="91.532669" y1="46.37693" x2="86.131866" y2="23.91087" gradientTransform="matrix(0.55814,0,0,0.55814,0,0)">
<stop offset="0" style="stop-color:rgb(76.47059%,80.392158%,85.09804%);stop-opacity:1;"/>
<stop offset="1" style="stop-color:rgb(62.352943%,65.490198%,69.01961%);stop-opacity:1;"/>
</linearGradient>
<radialGradient id="radial0" gradientUnits="userSpaceOnUse" cx="129.1978" cy="126.832802" fx="129.1978" fy="126.832802" r="34.374199" gradientTransform="matrix(0.55814,0,0,0.55814,0,0)">
<stop offset="0" style="stop-color:rgb(0%,0%,0%);stop-opacity:1;"/>
<stop offset="1" style="stop-color:rgb(0%,0%,0%);stop-opacity:0;"/>
</radialGradient>
<linearGradient id="linear3" gradientUnits="userSpaceOnUse" x1="108.729797" y1="106.579803" x2="149.270203" y2="147.120193" gradientTransform="matrix(1.600002,0,0,1.600002,0,0)">
<stop offset="0" style="stop-color:rgb(53.333336%,56.470591%,59.215689%);stop-opacity:1;"/>
<stop offset="1" style="stop-color:rgb(39.215687%,44.313726%,48.627451%);stop-opacity:1;"/>
</linearGradient>
<radialGradient id="radial1" gradientUnits="userSpaceOnUse" cx="129" cy="126.849998" fx="129" fy="126.849998" r="25.799999" gradientTransform="matrix(1.600002,0,0,1.600002,0,0)">
<stop offset="0" style="stop-color:rgb(0%,0%,0%);stop-opacity:1;"/>
<stop offset="1" style="stop-color:rgb(0%,0%,0%);stop-opacity:0;"/>
</radialGradient>
<radialGradient id="radial2" gradientUnits="userSpaceOnUse" cx="128.850937" cy="104.449867" fx="128.850937" fy="104.449867" r="51.10693" gradientTransform="matrix(1.600002,0,0,1.600002,0,0)">
<stop offset="0" style="stop-color:rgb(98.039216%,98.039216%,98.431373%);stop-opacity:1;"/>
<stop offset="1" style="stop-color:rgb(78.431374%,80.392158%,81.960785%);stop-opacity:1;"/>
</radialGradient>
</defs>
<g id="surface23934853">
<path style=" stroke:none;fill-rule:nonzero;fill:rgb(92.54902%,94.117647%,94.509804%);fill-opacity:1;" d="M 8.160156 96 C 3.652344 96 0 92.347656 0 87.839844 L 0 8.160156 C 0 3.652344 3.652344 0 8.160156 0 L 87.839844 0 C 92.347656 0 96 3.652344 96 8.160156 L 96 87.839844 C 96 92.347656 92.347656 96 87.839844 96 Z M 8.160156 96 "/>
<path style=" stroke:none;fill-rule:nonzero;fill:url(#linear0);" d="M 72 16.398438 L 52.800781 16.398438 C 52.800781 18.167969 51.367188 19.601562 49.601562 19.601562 C 47.832031 19.601562 46.398438 18.167969 46.398438 16.398438 L 27.199219 16.398438 C 25.433594 16.398438 24 17.832031 24 19.601562 L 24 77.199219 C 24 78.96875 25.433594 80.398438 27.199219 80.398438 L 72 80.398438 C 73.769531 80.398438 75.199219 78.96875 75.199219 77.199219 L 75.199219 19.601562 C 75.199219 17.832031 73.769531 16.398438 72 16.398438 Z M 72 16.398438 "/>
<path style=" stroke:none;fill-rule:nonzero;fill:url(#linear1);" d="M 70.398438 77.199219 L 28.800781 77.199219 C 27.917969 77.199219 27.199219 76.484375 27.199219 75.601562 L 27.199219 61.199219 L 72 61.199219 L 72 75.601562 C 72 76.484375 71.28125 77.199219 70.398438 77.199219 Z M 70.398438 77.199219 "/>
<path style=" stroke:none;fill-rule:nonzero;fill:rgb(95.294118%,95.294118%,95.294118%);fill-opacity:1;" d="M 70.398438 74 L 28.800781 74 C 27.917969 74 27.199219 73.28125 27.199219 72.398438 L 27.199219 21.199219 C 27.199219 20.316406 27.917969 19.601562 28.800781 19.601562 L 70.398438 19.601562 C 71.28125 19.601562 72 20.316406 72 21.199219 L 72 72.398438 C 72 73.28125 71.28125 74 70.398438 74 Z M 70.398438 74 "/>
<path style=" stroke:none;fill-rule:nonzero;fill:rgb(25.882354%,64.313728%,92.156863%);fill-opacity:1;" d="M 64.800781 38.800781 L 34.398438 38.800781 C 33.957031 38.800781 33.601562 38.441406 33.601562 38 L 33.601562 36.398438 C 33.601562 35.957031 33.957031 35.601562 34.398438 35.601562 L 64.800781 35.601562 C 65.242188 35.601562 65.601562 35.957031 65.601562 36.398438 L 65.601562 38 C 65.601562 38.441406 65.242188 38.800781 64.800781 38.800781 Z M 64.800781 38.800781 "/>
<path style=" stroke:none;fill-rule:nonzero;fill:rgb(25.882354%,64.313728%,92.156863%);fill-opacity:1;" d="M 58.398438 45.199219 L 34.398438 45.199219 C 33.957031 45.199219 33.601562 44.839844 33.601562 44.398438 L 33.601562 42.800781 C 33.601562 42.359375 33.957031 42 34.398438 42 L 58.398438 42 C 58.839844 42 59.199219 42.359375 59.199219 42.800781 L 59.199219 44.398438 C 59.199219 44.839844 58.839844 45.199219 58.398438 45.199219 Z M 58.398438 45.199219 "/>
<path style=" stroke:none;fill-rule:nonzero;fill:rgb(25.882354%,64.313728%,92.156863%);fill-opacity:1;" d="M 64.800781 51.601562 L 34.398438 51.601562 C 33.957031 51.601562 33.601562 51.242188 33.601562 50.800781 L 33.601562 49.199219 C 33.601562 48.757812 33.957031 48.398438 34.398438 48.398438 L 64.800781 48.398438 C 65.242188 48.398438 65.601562 48.757812 65.601562 49.199219 L 65.601562 50.800781 C 65.601562 51.242188 65.242188 51.601562 64.800781 51.601562 Z M 64.800781 51.601562 "/>
<path style=" stroke:none;fill-rule:nonzero;fill:rgb(25.882354%,64.313728%,92.156863%);fill-opacity:1;" d="M 64.800781 64.398438 L 34.398438 64.398438 C 33.957031 64.398438 33.601562 64.042969 33.601562 63.601562 L 33.601562 62 C 33.601562 61.558594 33.957031 61.199219 34.398438 61.199219 L 64.800781 61.199219 C 65.242188 61.199219 65.601562 61.558594 65.601562 62 L 65.601562 63.601562 C 65.601562 64.042969 65.242188 64.398438 64.800781 64.398438 Z M 64.800781 64.398438 "/>
<path style=" stroke:none;fill-rule:nonzero;fill:rgb(25.882354%,64.313728%,92.156863%);fill-opacity:1;" d="M 58.398438 58 L 34.398438 58 C 33.957031 58 33.601562 57.640625 33.601562 57.199219 L 33.601562 55.601562 C 33.601562 55.160156 33.957031 54.800781 34.398438 54.800781 L 58.398438 54.800781 C 58.839844 54.800781 59.199219 55.160156 59.199219 55.601562 L 59.199219 57.199219 C 59.199219 57.640625 58.839844 58 58.398438 58 Z M 58.398438 58 "/>
<path style=" stroke:none;fill-rule:nonzero;fill:url(#linear2);" d="M 60.800781 22.800781 L 60.800781 16.398438 L 54.105469 16.398438 C 53.445312 14.539062 51.6875 13.199219 49.601562 13.199219 C 47.511719 13.199219 45.753906 14.539062 45.09375 16.398438 L 38.398438 16.398438 L 38.398438 22.800781 C 38.398438 23.683594 39.117188 24.398438 40 24.398438 L 59.199219 24.398438 C 60.082031 24.398438 60.800781 23.683594 60.800781 22.800781 Z M 49.601562 16.398438 C 50.484375 16.398438 51.199219 17.117188 51.199219 18 C 51.199219 18.882812 50.484375 19.601562 49.601562 19.601562 C 48.71875 19.601562 48 18.882812 48 18 C 48 17.117188 48.71875 16.398438 49.601562 16.398438 Z M 49.601562 16.398438 "/>
<path style=" stroke:none;fill-rule:nonzero;fill:url(#radial0);" d="M 72 51.601562 C 61.398438 51.601562 52.800781 60.195312 52.800781 70.800781 C 52.800781 74.300781 53.753906 77.574219 55.390625 80.398438 L 72 80.398438 C 73.769531 80.398438 75.199219 78.96875 75.199219 77.199219 L 75.199219 51.886719 C 74.15625 51.710938 73.09375 51.601562 72 51.601562 Z M 72 51.601562 "/>
<path style=" stroke:none;fill-rule:nonzero;fill:url(#linear3);" d="M 88 70.800781 C 88 79.636719 80.835938 86.800781 72 86.800781 C 63.164062 86.800781 56 79.636719 56 70.800781 C 56 61.964844 63.164062 54.800781 72 54.800781 C 80.835938 54.800781 88 61.964844 88 70.800781 Z M 88 70.800781 "/>
<path style=" stroke:none;fill-rule:nonzero;fill:url(#radial1);" d="M 86.398438 70.800781 C 86.398438 78.753906 79.953125 85.199219 72 85.199219 C 64.046875 85.199219 57.601562 78.753906 57.601562 70.800781 C 57.601562 62.847656 64.046875 56.398438 72 56.398438 C 79.953125 56.398438 86.398438 62.847656 86.398438 70.800781 Z M 86.398438 70.800781 "/>
<path style=" stroke:none;fill-rule:nonzero;fill:url(#radial2);" d="M 84.800781 70.800781 C 84.800781 77.871094 79.070312 83.601562 72 83.601562 C 64.929688 83.601562 59.199219 77.871094 59.199219 70.800781 C 59.199219 63.730469 64.929688 58 72 58 C 79.070312 58 84.800781 63.730469 84.800781 70.800781 Z M 84.800781 70.800781 "/>
<path style=" stroke:none;fill-rule:nonzero;fill:rgb(84.705883%,23.137255%,0.392157%);fill-opacity:1;" d="M 76.671875 79.867188 C 76.375 80.019531 76.015625 79.902344 75.863281 79.609375 L 71.46875 71.074219 C 71.316406 70.777344 71.433594 70.417969 71.726562 70.265625 C 72.019531 70.113281 72.382812 70.230469 72.535156 70.523438 L 76.929688 79.058594 C 77.078125 79.355469 76.964844 79.71875 76.671875 79.867188 Z M 76.671875 79.867188 "/>
<path style=" stroke:none;fill-rule:nonzero;fill:rgb(27.058825%,28.627452%,30.19608%);fill-opacity:1;" d="M 72 71.398438 C 71.847656 71.398438 71.691406 71.339844 71.574219 71.222656 C 71.34375 70.992188 71.34375 70.609375 71.574219 70.375 L 78.363281 63.585938 C 78.597656 63.355469 78.980469 63.355469 79.210938 63.585938 C 79.445312 63.820312 79.445312 64.203125 79.210938 64.433594 L 72.425781 71.222656 C 72.308594 71.339844 72.152344 71.398438 72 71.398438 Z M 72 71.398438 "/>
<path style=" stroke:none;fill-rule:nonzero;fill:rgb(27.058825%,28.627452%,30.19608%);fill-opacity:1;" d="M 72 71.800781 C 71.855469 71.800781 71.707031 71.769531 71.566406 71.699219 L 65.335938 68.710938 C 64.839844 68.472656 64.628906 67.875 64.867188 67.378906 C 65.105469 66.878906 65.707031 66.667969 66.203125 66.910156 L 72.433594 69.898438 C 72.929688 70.136719 73.140625 70.734375 72.902344 71.230469 C 72.730469 71.589844 72.371094 71.800781 72 71.800781 Z M 72 71.800781 "/>
<path style=" stroke:none;fill-rule:nonzero;fill:rgb(11.764706%,12.54902%,12.941177%);fill-opacity:1;" d="M 73.601562 70.800781 C 73.601562 71.683594 72.882812 72.398438 72 72.398438 C 71.117188 72.398438 70.398438 71.683594 70.398438 70.800781 C 70.398438 69.917969 71.117188 69.199219 72 69.199219 C 72.882812 69.199219 73.601562 69.917969 73.601562 70.800781 Z M 73.601562 70.800781 "/>
</g>
</svg>
