<?xml version="1.0" encoding="UTF-8"?>
<svg xmlns="http://www.w3.org/2000/svg" xmlns:xlink="http://www.w3.org/1999/xlink" viewBox="0 0 96 96" width="96px" height="96px">
<defs>
<radialGradient id="radial0" gradientUnits="userSpaceOnUse" cx="85.836601" cy="71.440872" fx="85.836601" fy="71.440872" r="65.259666" gradientTransform="matrix(0.55814,0,0,0.55814,0,0)">
<stop offset="0.655" style="stop-color:rgb(52.941179%,7.058824%,20%);stop-opacity:1;"/>
<stop offset="0.718" style="stop-color:rgb(55.686277%,7.450981%,21.176471%);stop-opacity:1;"/>
<stop offset="0.812" style="stop-color:rgb(63.921571%,8.627451%,24.313726%);stop-opacity:1;"/>
<stop offset="0.9" style="stop-color:rgb(73.725492%,9.803922%,28.235295%);stop-opacity:1;"/>
</radialGradient>
<linearGradient id="linear0" gradientUnits="userSpaceOnUse" x1="59.767132" y1="26.070141" x2="112.023598" y2="116.897598" gradientTransform="matrix(0.55814,0,0,0.55814,0,0)">
<stop offset="0" style="stop-color:rgb(100%,85.490197%,10.980392%);stop-opacity:1;"/>
<stop offset="1" style="stop-color:rgb(99.607843%,71.764708%,1.960784%);stop-opacity:1;"/>
</linearGradient>
</defs>
<g id="surface24016234">
<path style=" stroke:none;fill-rule:nonzero;fill:rgb(92.54902%,94.117647%,94.509804%);fill-opacity:1;" d="M 8.160156 96 C 3.652344 96 0 92.347656 0 87.839844 L 0 8.160156 C 0 3.652344 3.652344 0 8.160156 0 L 87.839844 0 C 92.347656 0 96 3.652344 96 8.160156 L 96 87.839844 C 96 92.347656 92.347656 96 87.839844 96 Z M 8.160156 96 "/>
<path style=" stroke:none;fill-rule:nonzero;fill:url(#radial0);" d="M 64 54.023438 L 32 54.023438 L 32 83.199219 C 32 84.441406 33.355469 85.210938 34.421875 84.570312 L 48 76.425781 L 61.578125 84.570312 C 62.644531 85.210938 64 84.441406 64 83.199219 Z M 64 54.023438 "/>
<path style=" stroke:none;fill-rule:nonzero;fill:url(#linear0);" d="M 75.257812 37.269531 L 73.242188 36.0625 C 72.386719 35.546875 71.804688 34.699219 71.542969 33.734375 C 71.539062 33.71875 71.535156 33.699219 71.53125 33.679688 C 71.261719 32.707031 71.34375 31.671875 71.832031 30.789062 L 72.972656 28.738281 C 74.140625 26.636719 72.648438 24.050781 70.246094 24.011719 L 67.875 23.96875 C 66.871094 23.949219 65.9375 23.503906 65.230469 22.796875 C 65.222656 22.789062 65.21875 22.78125 65.210938 22.773438 C 64.496094 22.0625 64.054688 21.132812 64.035156 20.128906 L 63.996094 17.757812 C 63.957031 15.355469 61.367188 13.863281 59.269531 15.03125 L 57.214844 16.171875 C 56.332031 16.660156 55.296875 16.742188 54.324219 16.472656 C 54.308594 16.46875 54.289062 16.464844 54.269531 16.460938 C 53.304688 16.195312 52.460938 15.617188 51.945312 14.761719 L 50.734375 12.746094 C 49.5 10.6875 46.511719 10.6875 45.277344 12.746094 L 44.074219 14.753906 C 43.554688 15.617188 42.699219 16.199219 41.730469 16.464844 C 41.71875 16.46875 41.707031 16.472656 41.699219 16.472656 C 40.714844 16.746094 39.671875 16.664062 38.78125 16.167969 L 36.738281 15.035156 C 34.636719 13.867188 32.050781 15.359375 32.011719 17.761719 L 31.96875 20.128906 C 31.949219 21.128906 31.503906 22.0625 30.796875 22.773438 C 30.789062 22.777344 30.777344 22.785156 30.773438 22.792969 C 30.0625 23.507812 29.132812 23.949219 28.128906 23.964844 L 25.761719 24.007812 C 23.359375 24.046875 21.867188 26.628906 23.03125 28.734375 L 24.171875 30.785156 C 24.664062 31.671875 24.742188 32.703125 24.476562 33.675781 C 24.46875 33.695312 24.464844 33.714844 24.457031 33.730469 C 24.195312 34.695312 23.613281 35.542969 22.757812 36.058594 L 20.746094 37.265625 C 18.6875 38.503906 18.6875 41.488281 20.746094 42.726562 L 22.757812 43.933594 C 23.617188 44.449219 24.195312 45.296875 24.457031 46.261719 C 24.464844 46.277344 24.464844 46.296875 24.472656 46.316406 C 24.738281 47.289062 24.660156 48.324219 24.167969 49.207031 L 23.027344 51.257812 C 21.863281 53.359375 23.355469 55.945312 25.757812 55.984375 L 28.125 56.027344 C 29.132812 56.042969 30.0625 56.488281 30.769531 57.199219 C 30.777344 57.207031 30.785156 57.214844 30.792969 57.222656 C 31.503906 57.929688 31.945312 58.863281 31.964844 59.863281 L 32.003906 62.234375 C 32.042969 64.636719 34.632812 66.128906 36.730469 64.960938 L 38.785156 63.820312 C 39.667969 63.332031 40.703125 63.25 41.675781 63.519531 C 41.691406 63.523438 41.710938 63.527344 41.730469 63.53125 C 42.695312 63.796875 43.539062 64.375 44.054688 65.230469 L 45.265625 67.246094 C 46.5 69.304688 49.488281 69.304688 50.722656 67.246094 L 51.933594 65.230469 C 52.449219 64.375 53.292969 63.796875 54.257812 63.53125 C 54.277344 63.527344 54.296875 63.523438 54.3125 63.519531 C 55.285156 63.25 56.324219 63.332031 57.203125 63.820312 L 59.257812 64.960938 C 61.355469 66.128906 63.945312 64.636719 63.984375 62.234375 L 64.023438 59.863281 C 64.042969 58.859375 64.488281 57.929688 65.195312 57.222656 C 65.203125 57.214844 65.210938 57.207031 65.21875 57.199219 C 65.929688 56.488281 66.859375 56.042969 67.863281 56.027344 L 70.230469 55.984375 C 72.632812 55.945312 74.125 53.359375 72.960938 51.257812 L 71.820312 49.207031 C 71.328125 48.320312 71.25 47.289062 71.515625 46.316406 C 71.523438 46.296875 71.523438 46.28125 71.53125 46.261719 C 71.792969 45.296875 72.371094 44.449219 73.230469 43.933594 L 75.242188 42.726562 C 77.316406 41.492188 77.316406 38.507812 75.257812 37.269531 Z M 75.257812 37.269531 "/>
<path style="fill:none;stroke-width:7.16667;stroke-linecap:butt;stroke-linejoin:miter;stroke:rgb(100%,87.450981%,14.901961%);stroke-opacity:1;stroke-miterlimit:10;" d="M 57.333333 71.666667 C 57.333333 55.835612 70.168945 43 86 43 C 101.831055 43 114.666667 55.835612 114.666667 71.666667 C 114.666667 87.497721 101.831055 100.333333 86 100.333333 C 70.168945 100.333333 57.333333 87.497721 57.333333 71.666667 Z M 57.333333 71.666667 " transform="matrix(0.55814,0,0,0.55814,0,0)"/>
</g>
</svg>
