<?xml version="1.0" encoding="UTF-8"?>
<svg xmlns="http://www.w3.org/2000/svg" xmlns:xlink="http://www.w3.org/1999/xlink" viewBox="0 0 96 96" width="96px" height="96px">
<defs>
<linearGradient id="linear0" gradientUnits="userSpaceOnUse" x1="127.208328" y1="129" x2="138.675003" y2="129" gradientTransform="matrix(0.55814,0,0,0.55814,0,0)">
<stop offset="0" style="stop-color:rgb(100%,85.490197%,10.980392%);stop-opacity:1;"/>
<stop offset="1" style="stop-color:rgb(99.607843%,71.764708%,1.960784%);stop-opacity:1;"/>
</linearGradient>
<linearGradient id="linear1" gradientUnits="userSpaceOnUse" x1="132.941666" y1="57.625729" x2="132.941666" y2="66.168404" gradientTransform="matrix(0.55814,0,0,0.55814,0,0)">
<stop offset="0" style="stop-color:rgb(100%,85.490197%,10.980392%);stop-opacity:1;"/>
<stop offset="1" style="stop-color:rgb(99.607843%,71.764708%,1.960784%);stop-opacity:1;"/>
</linearGradient>
<linearGradient id="linear2" gradientUnits="userSpaceOnUse" x1="132.941666" y1="146.483795" x2="132.941666" y2="70.454071" gradientTransform="matrix(0.55814,0,0,0.55814,0,0)">
<stop offset="0" style="stop-color:rgb(95.686275%,30.980393%,35.294119%);stop-opacity:1;"/>
<stop offset="0.443" style="stop-color:rgb(93.333334%,23.921569%,29.019609%);stop-opacity:1;"/>
<stop offset="1" style="stop-color:rgb(89.803922%,12.54902%,18.82353%);stop-opacity:1;"/>
</linearGradient>
<linearGradient id="linear3" gradientUnits="userSpaceOnUse" x1="132.941666" y1="101.623329" x2="132.941666" y2="88.998528" gradientTransform="matrix(1.600002,0,0,1.600002,0,0)">
<stop offset="0" style="stop-color:rgb(100%,85.490197%,10.980392%);stop-opacity:1;"/>
<stop offset="1" style="stop-color:rgb(99.607843%,71.764708%,1.960784%);stop-opacity:1;"/>
</linearGradient>
<linearGradient id="linear4" gradientUnits="userSpaceOnUse" x1="91.45813" y1="61.550201" x2="105.995003" y2="47.013329" gradientTransform="matrix(0.55814,0,0,0.55814,0,0)">
<stop offset="0" style="stop-color:rgb(18.82353%,47.450981%,83.92157%);stop-opacity:1;"/>
<stop offset="1" style="stop-color:rgb(16.078432%,48.627451%,82.352942%);stop-opacity:1;"/>
</linearGradient>
</defs>
<g id="surface24005717">
<path style=" stroke:none;fill-rule:nonzero;fill:rgb(94.901961%,94.901961%,94.901961%);fill-opacity:1;" d="M 8.160156 96 C 3.652344 96 0 92.347656 0 87.839844 L 0 8.160156 C 0 3.652344 3.652344 0 8.160156 0 L 87.839844 0 C 92.347656 0 96 3.652344 96 8.160156 L 96 87.839844 C 96 92.347656 92.347656 96 87.839844 96 Z M 8.160156 96 "/>
<path style=" stroke:none;fill-rule:nonzero;fill:rgb(1.960784%,43.921569%,57.647061%);fill-opacity:1;" d="M 74.199219 71.011719 C 73.757812 71.011719 73.398438 71.371094 73.398438 71.8125 L 73.398438 76 C 73.398438 76.441406 73.757812 76.800781 74.199219 76.800781 C 74.640625 76.800781 75 76.441406 75 76 L 75 71.8125 C 75 71.371094 74.640625 71.011719 74.199219 71.011719 Z M 74.199219 71.011719 "/>
<path style=" stroke:none;fill-rule:nonzero;fill:url(#linear0);" d="M 71 70.398438 C 71 70.398438 72.226562 75.199219 74.199219 75.199219 C 76.175781 75.199219 77.398438 70.398438 77.398438 70.398438 L 74.199219 68.800781 Z M 71 70.398438 "/>
<path style=" stroke:none;fill-rule:nonzero;fill:rgb(70.19608%,8.235294%,13.725491%);fill-opacity:1;" d="M 79 52.800781 L 75.800781 52.800781 L 75.800781 38.398438 L 79 38.398438 C 79.882812 38.398438 80.601562 39.117188 80.601562 40 L 80.601562 51.199219 C 80.601562 52.082031 79.882812 52.800781 79 52.800781 Z M 79 52.800781 "/>
<path style=" stroke:none;fill-rule:nonzero;fill:url(#linear1);" d="M 75.800781 36.800781 L 72.601562 36.800781 L 72.601562 33.601562 C 72.601562 32.71875 73.316406 32 74.199219 32 C 75.082031 32 75.800781 32.71875 75.800781 33.601562 Z M 75.800781 36.800781 "/>
<path style=" stroke:none;fill-rule:nonzero;fill:url(#linear2);" d="M 77.398438 70.398438 L 71 70.398438 L 71 36.800781 C 71 35.917969 71.71875 35.199219 72.601562 35.199219 L 75.800781 35.199219 C 76.683594 35.199219 77.398438 35.917969 77.398438 36.800781 Z M 77.398438 70.398438 "/>
<path style=" stroke:none;fill-rule:nonzero;fill:url(#linear3);" d="M 71 51.199219 L 77.398438 51.199219 L 77.398438 54.398438 L 71 54.398438 Z M 71 51.199219 "/>
<path style=" stroke:none;fill-rule:nonzero;fill:rgb(31.37255%,90.196079%,100%);fill-opacity:1;" d="M 67.800781 35.199219 L 67.800781 75.199219 C 67.800781 76.96875 66.367188 78.398438 64.601562 78.398438 L 24.601562 78.398438 C 22.832031 78.398438 21.398438 76.96875 21.398438 75.199219 L 21.398438 20.800781 C 21.398438 19.03125 22.832031 17.601562 24.601562 17.601562 L 50.199219 17.601562 Z M 67.800781 35.199219 "/>
<path style=" stroke:none;fill-rule:nonzero;fill:url(#linear4);" d="M 50.199219 17.601562 L 50.199219 32 C 50.199219 33.769531 51.632812 35.199219 53.398438 35.199219 L 67.800781 35.199219 Z M 50.199219 17.601562 "/>
<path style=" stroke:none;fill-rule:nonzero;fill:rgb(1.960784%,43.921569%,57.647061%);fill-opacity:1;" d="M 57.398438 43.199219 L 31.800781 43.199219 C 31.359375 43.199219 31 42.839844 31 42.398438 L 31 40.800781 C 31 40.359375 31.359375 40 31.800781 40 L 57.398438 40 C 57.839844 40 58.199219 40.359375 58.199219 40.800781 L 58.199219 42.398438 C 58.199219 42.839844 57.839844 43.199219 57.398438 43.199219 Z M 57.398438 43.199219 "/>
<path style=" stroke:none;fill-rule:nonzero;fill:rgb(1.960784%,43.921569%,57.647061%);fill-opacity:1;" d="M 54.199219 49.601562 L 31.800781 49.601562 C 31.359375 49.601562 31 49.242188 31 48.800781 L 31 47.199219 C 31 46.757812 31.359375 46.398438 31.800781 46.398438 L 54.199219 46.398438 C 54.640625 46.398438 55 46.757812 55 47.199219 L 55 48.800781 C 55 49.242188 54.640625 49.601562 54.199219 49.601562 Z M 54.199219 49.601562 "/>
<path style=" stroke:none;fill-rule:nonzero;fill:rgb(1.960784%,43.921569%,57.647061%);fill-opacity:1;" d="M 55.800781 56 L 31.800781 56 C 31.359375 56 31 55.640625 31 55.199219 L 31 53.601562 C 31 53.160156 31.359375 52.800781 31.800781 52.800781 L 55.800781 52.800781 C 56.242188 52.800781 56.601562 53.160156 56.601562 53.601562 L 56.601562 55.199219 C 56.601562 55.640625 56.242188 56 55.800781 56 Z M 55.800781 56 "/>
<path style=" stroke:none;fill-rule:nonzero;fill:rgb(1.960784%,43.921569%,57.647061%);fill-opacity:1;" d="M 31.265625 75.199219 C 30.960938 75.199219 30.664062 75.042969 30.5 74.757812 C 30.253906 74.335938 30.394531 73.792969 30.816406 73.542969 C 30.839844 73.53125 31.691406 73.019531 32.734375 72.070312 C 31.804688 70.675781 31.265625 68.710938 31.265625 66.398438 C 31.265625 62.160156 32.910156 59.199219 35.265625 59.199219 C 37.5625 59.199219 38.378906 61.917969 38.378906 64.246094 C 38.378906 67.636719 36.820312 70.28125 35.210938 72.109375 C 35.617188 72.378906 36.082031 72.53125 36.601562 72.53125 C 37.867188 72.53125 39.035156 72.160156 40.007812 71.566406 C 39.484375 70.621094 39.265625 69.445312 39.265625 68.355469 C 39.265625 66.398438 40.164062 63.644531 42.160156 63.644531 C 42.894531 63.644531 44.597656 63.992188 44.597656 67.238281 C 44.597656 68.738281 43.90625 70.320312 42.726562 71.609375 C 42.84375 71.628906 42.96875 71.644531 43.101562 71.644531 C 44.0625 71.644531 44.542969 71.125 45.3125 70.214844 C 46.109375 69.265625 47.105469 68.089844 49.042969 68.089844 C 49.535156 68.089844 49.933594 68.488281 49.933594 68.976562 C 49.933594 69.46875 49.539062 69.867188 49.042969 69.867188 C 47.984375 69.867188 47.453125 70.433594 46.671875 71.363281 C 45.898438 72.28125 44.9375 73.421875 43.101562 73.421875 C 42.351562 73.421875 41.726562 73.230469 41.21875 72.902344 C 39.933594 73.765625 38.351562 74.308594 36.601562 74.308594 C 35.605469 74.308594 34.707031 73.984375 33.945312 73.390625 C 32.777344 74.445312 31.816406 75.019531 31.714844 75.078125 C 31.574219 75.160156 31.417969 75.199219 31.265625 75.199219 Z M 35.265625 60.976562 C 34.195312 60.976562 33.042969 63.15625 33.042969 66.398438 C 33.042969 67.980469 33.375 69.574219 34.019531 70.742188 C 35.355469 69.167969 36.601562 66.96875 36.601562 64.246094 C 36.601562 62.980469 36.238281 60.976562 35.265625 60.976562 Z M 42.164062 65.421875 C 41.742188 65.421875 41.042969 66.84375 41.042969 68.355469 C 41.042969 68.765625 41.085938 69.667969 41.410156 70.421875 C 42.296875 69.46875 42.824219 68.316406 42.824219 67.238281 C 42.824219 66.695312 42.757812 65.421875 42.164062 65.421875 Z M 42.164062 65.421875 "/>
</g>
</svg>
