<svg width="191" height="191" viewBox="0 0 191 191" fill="none" xmlns="http://www.w3.org/2000/svg">
<path d="M168.887 8H22.1129C14.3186 8 8 14.3186 8 22.1129V168.887C8 176.681 14.3186 183 22.1129 183H168.887C176.681 183 183 176.681 183 168.887V22.1129C183 14.3186 176.681 8 168.887 8Z" fill="white"/>
<path d="M168.887 8H22.1129C14.3186 8 8 14.3186 8 22.1129V168.887C8 176.681 14.3186 183 22.1129 183H168.887C176.681 183 183 176.681 183 168.887V22.1129C183 14.3186 176.681 8 168.887 8Z" fill="url(#paint0_linear_12_113)" fill-opacity="0.2"/>
<path d="M168.887 8H22.1129C14.3186 8 8 14.3186 8 22.1129V168.887C8 176.681 14.3186 183 22.1129 183H168.887C176.681 183 183 176.681 183 168.887V22.1129C183 14.3186 176.681 8 168.887 8Z" stroke="#D5EAF6" stroke-width="15" stroke-linecap="round"/>
<path d="M129.6 100.886H129.629C129.629 100.886 118.857 116.686 109.8 128.429C101.971 138.571 99.6857 147.257 99.0286 151.457C98.7714 153 97.5143 154.143 96 154.143C94.4857 154.143 93.2286 153 92.9714 151.457C92.3143 147.257 90.0286 138.571 82.2 128.429C81 126.857 79.7714 125.229 78.5429 123.571L108.114 88.4286L131.914 60.2C134.543 65.7143 136 71.8857 136 78.4286C136 86.7143 133.629 94.4 129.6 100.886Z" fill="#48B564"/>
<path d="M108.114 88.4286L78.5429 123.571C70.4857 112.771 62.3714 100.886 62.3714 100.886H62.4C61.5429 99.5143 60.7714 98.1143 60.1143 96.6571L83.8857 68.4286C81.6286 71.1429 80.2857 74.6286 80.2857 78.4286C80.2857 87.1143 87.3143 94.1429 96 94.1429C100.886 94.1429 105.257 91.9143 108.114 88.4286Z" fill="#FCC60E"/>
<path d="M108.571 39.1143L84.0857 68.2L65.3429 51.8571C72.6571 42.7714 83.6857 37 96 37C100.4 37 104.629 37.7429 108.571 39.1143Z" fill="#2C85EB"/>
<path d="M84.0857 68.2L83.8857 68.4286L60.1143 96.6571C57.4857 91.1429 56 84.9714 56 78.4286C56 68.3143 59.5143 59.0286 65.3429 51.8571L84.0857 68.2Z" fill="#ED5748"/>
<path d="M108.114 88.4286C110.371 85.7143 111.714 82.2286 111.714 78.4286C111.714 69.7429 104.686 62.7143 96 62.7143C91.1143 62.7143 86.7429 64.9429 83.8857 68.4286L108.571 39.1143C118.829 42.6 127.229 50.2857 131.914 60.2L108.114 88.4286Z" fill="#5695F6"/>
<defs>
<linearGradient id="paint0_linear_12_113" x1="95.5" y1="16.4677" x2="95.5" y2="174.532" gradientUnits="userSpaceOnUse">
<stop stop-color="white"/>
<stop offset="0.472222" stop-color="#0D5176" stop-opacity="0.527778"/>
<stop offset="0.940972" stop-color="#12A6F7" stop-opacity="0.465278"/>
<stop offset="1" stop-opacity="0"/>
</linearGradient>
</defs>
</svg>
