<svg width="191" height="191" viewBox="0 0 191 191" fill="none" xmlns="http://www.w3.org/2000/svg">
<g filter="url(#filter0_i_12_15)">
<path d="M168.887 8H22.1129C14.3186 8 8 14.3186 8 22.1129V168.887C8 176.681 14.3186 183 22.1129 183H168.887C176.681 183 183 176.681 183 168.887V22.1129C183 14.3186 176.681 8 168.887 8Z" fill="white"/>
<path d="M168.887 8H22.1129C14.3186 8 8 14.3186 8 22.1129V168.887C8 176.681 14.3186 183 22.1129 183H168.887C176.681 183 183 176.681 183 168.887V22.1129C183 14.3186 176.681 8 168.887 8Z" fill="url(#paint0_linear_12_15)" fill-opacity="0.2"/>
<path d="M168.887 8H22.1129C14.3186 8 8 14.3186 8 22.1129V168.887C8 176.681 14.3186 183 22.1129 183H168.887C176.681 183 183 176.681 183 168.887V22.1129C183 14.3186 176.681 8 168.887 8Z" stroke="#D5EAF6" stroke-width="15" stroke-linecap="round"/>
</g>
<path d="M133.5 147.357C133.5 148.373 134.73 148.881 135.443 148.158L144.818 138.744C145.629 137.914 145.629 136.586 144.818 135.766L135.443 126.342C134.73 125.619 133.5 126.127 133.5 127.143V147.357Z" fill="#20C997"/>
<path d="M57.9238 127.143C57.9238 126.127 56.7031 125.619 55.9805 126.342L46.6152 135.756C45.7949 136.586 45.7949 137.914 46.6152 138.734L55.9805 148.158C56.7031 148.881 57.9238 148.373 57.9238 147.357V127.143Z" fill="#20C997"/>
<path d="M81 66C81 72.9043 75.4043 78.5 68.5 78.5C61.5957 78.5 56 72.9043 56 66C56 59.0957 61.5957 53.5 68.5 53.5C75.4043 53.5 81 59.0957 81 66Z" fill="url(#paint1_linear_12_15)"/>
<path d="M68.5 83.5C56.0684 83.5 46 93.5684 46 106V113.5C46 116.264 48.2363 118.5 51 118.5H86C88.7637 118.5 91 116.264 91 113.5V106C91 93.5684 80.9316 83.5 68.5 83.5Z" fill="url(#paint2_linear_12_15)"/>
<path d="M136 66C136 72.9043 130.404 78.5 123.5 78.5C116.596 78.5 111 72.9043 111 66C111 59.0957 116.596 53.5 123.5 53.5C130.404 53.5 136 59.0957 136 66Z" fill="url(#paint3_linear_12_15)"/>
<path d="M123.5 83.5C111.068 83.5 101 93.5684 101 106V113.5C101 116.264 103.236 118.5 106 118.5H141C143.764 118.5 146 116.264 146 113.5V106C146 93.5684 135.932 83.5 123.5 83.5Z" fill="url(#paint4_linear_12_15)"/>
<path d="M74.75 141H54.75C54.0566 141 53.5 140.443 53.5 139.75V134.75C53.5 134.057 54.0566 133.5 54.75 133.5H74.75C75.4434 133.5 76 134.057 76 134.75V139.75C76 140.443 75.4434 141 74.75 141Z" fill="#20C997"/>
<path d="M134.75 141H114.75C114.057 141 113.5 140.443 113.5 139.75V134.75C113.5 134.057 114.057 133.5 114.75 133.5H134.75C135.443 133.5 136 134.057 136 134.75V139.75C136 140.443 135.443 141 134.75 141Z" fill="#20C997"/>
<path d="M89.75 141H84.75C84.0566 141 83.5 140.443 83.5 139.75V134.75C83.5 134.057 84.0566 133.5 84.75 133.5H89.75C90.4434 133.5 91 134.057 91 134.75V139.75C91 140.443 90.4434 141 89.75 141Z" fill="#20C997"/>
<path d="M104.75 141H99.75C99.0566 141 98.5 140.443 98.5 139.75V134.75C98.5 134.057 99.0566 133.5 99.75 133.5H104.75C105.443 133.5 106 134.057 106 134.75V139.75C106 140.443 105.443 141 104.75 141Z" fill="#20C997"/>
<defs>
<filter id="filter0_i_12_15" x="0.5" y="0.5" width="190" height="194" filterUnits="userSpaceOnUse" color-interpolation-filters="sRGB">
<feFlood flood-opacity="0" result="BackgroundImageFix"/>
<feBlend mode="normal" in="SourceGraphic" in2="BackgroundImageFix" result="shape"/>
<feColorMatrix in="SourceAlpha" type="matrix" values="0 0 0 0 0 0 0 0 0 0 0 0 0 0 0 0 0 0 127 0" result="hardAlpha"/>
<feOffset dy="4"/>
<feGaussianBlur stdDeviation="2"/>
<feComposite in2="hardAlpha" operator="arithmetic" k2="-1" k3="1"/>
<feColorMatrix type="matrix" values="0 0 0 0 0.8375 0 0 0 0 0.732812 0 0 0 0 0.732812 0 0 0 0.25 0"/>
<feBlend mode="normal" in2="shape" result="effect1_innerShadow_12_15"/>
</filter>
<linearGradient id="paint0_linear_12_15" x1="95.5" y1="16.4677" x2="95.5" y2="174.532" gradientUnits="userSpaceOnUse">
<stop stop-color="white"/>
<stop offset="0.472222" stop-color="#0D5176" stop-opacity="0.527778"/>
<stop offset="0.940972" stop-color="#12A6F7" stop-opacity="0.465278"/>
<stop offset="1" stop-opacity="0"/>
</linearGradient>
<linearGradient id="paint1_linear_12_15" x1="60.02" y1="57.52" x2="77.46" y2="74.96" gradientUnits="userSpaceOnUse">
<stop stop-color="#0D61A9"/>
<stop offset="1" stop-color="#16528C"/>
</linearGradient>
<linearGradient id="paint2_linear_12_15" x1="53.175" y1="90.8024" x2="84.6925" y2="122.317" gradientUnits="userSpaceOnUse">
<stop stop-color="#0D61A9"/>
<stop offset="1" stop-color="#16528C"/>
</linearGradient>
<linearGradient id="paint3_linear_12_15" x1="115.02" y1="57.52" x2="132.46" y2="74.96" gradientUnits="userSpaceOnUse">
<stop stop-color="#32BDEF"/>
<stop offset="1" stop-color="#1EA2E4"/>
</linearGradient>
<linearGradient id="paint4_linear_12_15" x1="108.175" y1="90.8024" x2="139.692" y2="122.317" gradientUnits="userSpaceOnUse">
<stop stop-color="#32BDEF"/>
<stop offset="1" stop-color="#1EA2E4"/>
</linearGradient>
</defs>
</svg>
