<svg width="24" height="24" viewBox="0 0 24 24" fill="none" xmlns="http://www.w3.org/2000/svg">
<path d="M20.6932 5.18176H3.30682C2.585 5.18176 2 5.76676 2 6.48858V17.5113C2 18.2331 2.585 18.8181 3.30682 18.8181H20.6932C21.415 18.8181 22 18.2331 22 17.5113V6.48858C22 5.76676 21.415 5.18176 20.6932 5.18176Z" fill="url(#paint0_linear_40_5973)"/>
<path d="M13.1877 7.90906V16.0909H11.4295V9.89588C11.3327 9.98133 11.2186 10.0622 11.0864 10.1386C10.9541 10.215 10.8136 10.2836 10.665 10.345C10.5159 10.4063 10.3618 10.4586 10.2018 10.5013C10.0418 10.5441 9.88364 10.575 9.72727 10.5936V9.10906C10.185 8.97497 10.6164 8.80406 11.0223 8.59542C11.4277 8.38724 11.7941 8.15815 12.1218 7.90906H13.1877Z" fill="#1D59B3"/>
<defs>
<linearGradient id="paint0_linear_40_5973" x1="10.1955" y1="5.55949" x2="13.855" y2="18.6204" gradientUnits="userSpaceOnUse">
<stop stop-color="#75DAFF"/>
<stop offset="1" stop-color="#1EA2E4"/>
</linearGradient>
</defs>
</svg>
