<svg width="24" height="24" viewBox="0 0 24 24" fill="none" xmlns="http://www.w3.org/2000/svg">
<path d="M17.7143 2.95239H12C12 3.47858 11.5738 3.90477 11.0476 3.90477C10.5214 3.90477 10.0952 3.47858 10.0952 2.95239H4.38095C3.85476 2.95239 3.42857 3.37858 3.42857 3.90477V21.0476C3.42857 21.5738 3.85476 22 4.38095 22H17.7143C18.2405 22 18.6667 21.5738 18.6667 21.0476V3.90477C18.6667 3.37858 18.2405 2.95239 17.7143 2.95239Z" fill="url(#paint0_linear_40_5986)"/>
<path d="M17.2381 21.0477H4.85714C4.59428 21.0477 4.38095 20.8343 4.38095 20.5715V16.2858H17.7143V20.5715C17.7143 20.8343 17.501 21.0477 17.2381 21.0477Z" fill="url(#paint1_linear_40_5986)"/>
<path d="M17.2381 20.0953H4.85714C4.59428 20.0953 4.38095 19.8819 4.38095 19.6191V4.38098C4.38095 4.11812 4.59428 3.90479 4.85714 3.90479H17.2381C17.501 3.90479 17.7143 4.11812 17.7143 4.38098V19.6191C17.7143 19.8819 17.501 20.0953 17.2381 20.0953Z" fill="#F3F3F3"/>
<path d="M14.381 4.85714V2.95238H12.3886C12.1919 2.39857 11.6686 2 11.0476 2C10.4267 2 9.90334 2.39857 9.70668 2.95238H7.71429V4.85714C7.71429 5.12 7.92763 5.33333 8.19048 5.33333H13.9048C14.1676 5.33333 14.381 5.12 14.381 4.85714ZM11.0476 2.95238C11.3105 2.95238 11.5238 3.16571 11.5238 3.42857C11.5238 3.69143 11.3105 3.90476 11.0476 3.90476C10.7848 3.90476 10.5714 3.69143 10.5714 3.42857C10.5714 3.16571 10.7848 2.95238 11.0476 2.95238Z" fill="url(#paint2_linear_40_5986)"/>
<path d="M12 7.00006V11.0477H10.5714V7.00006C10.5714 6.86863 10.6781 6.76196 10.8095 6.76196H11.7619C11.8933 6.76196 12 6.86863 12 7.00006Z" fill="url(#paint3_linear_40_5986)"/>
<path d="M10.5714 7.71423V11.0476H9.14285V7.95233C9.14285 7.8209 9.24952 7.71423 9.38095 7.71423H10.5714Z" fill="url(#paint4_linear_40_5986)"/>
<path d="M9.14287 8.66663V11.0476H7.71429V8.90472C7.71429 8.77329 7.82096 8.66663 7.95239 8.66663H9.14287Z" fill="#0078D4"/>
<path d="M7.71429 9.61902V11.0476H6.28572V9.85711C6.28572 9.72569 6.39239 9.61902 6.52382 9.61902H7.71429Z" fill="#0D62AB"/>
<path d="M6.7619 15.8096C6.7619 17.1243 7.82809 18.1905 9.14285 18.1905C10.4576 18.1905 11.5238 17.1243 11.5238 15.8096H9.14285H6.7619Z" fill="#D35230"/>
<path d="M9.14285 13.4286V15.8095H11.5238C11.5238 14.4948 10.4576 13.4286 9.14285 13.4286Z" fill="#FF8F6B"/>
<path d="M9.14285 13.4286C7.82809 13.4286 6.7619 14.4948 6.7619 15.8095H9.14285V13.4286Z" fill="#ED6C47"/>
<path opacity="0.05" d="M18.6667 11.5238H13.4286C12.9024 11.5238 12.4762 11.95 12.4762 12.4762V21.0476C12.4762 21.5738 12.9024 22 13.4286 22H18.6667V11.5238Z" fill="black"/>
<path opacity="0.07" d="M18.6667 12H13.6667C13.2724 12 12.9524 12.32 12.9524 12.7143V21.2857C12.9524 21.68 13.2724 22 13.6667 22H18.6667V12Z" fill="black"/>
<path d="M20.0952 12.4762H13.9048C13.6419 12.4762 13.4286 12.6895 13.4286 12.9524V21.5238C13.4286 21.7867 13.6419 22 13.9048 22H20.0952C20.3581 22 20.5714 21.7867 20.5714 21.5238V12.9524C20.5714 12.6895 20.3581 12.4762 20.0952 12.4762Z" fill="url(#paint5_linear_40_5986)"/>
<path d="M19.381 14.8572H14.619C14.4876 14.8572 14.381 14.7505 14.381 14.6191V13.6667C14.381 13.5353 14.4876 13.4286 14.619 13.4286H19.381C19.5124 13.4286 19.619 13.5353 19.619 13.6667V14.6191C19.619 14.7505 19.5124 14.8572 19.381 14.8572Z" fill="url(#paint6_linear_40_5986)"/>
<path d="M17.4762 17.2381H16.5238C16.3924 17.2381 16.2857 17.1315 16.2857 17V16.0477C16.2857 15.9162 16.3924 15.8096 16.5238 15.8096H17.4762C17.6076 15.8096 17.7143 15.9162 17.7143 16.0477V17C17.7143 17.1315 17.6076 17.2381 17.4762 17.2381Z" fill="#CAD2D9"/>
<path d="M15.5714 17.2381H14.619C14.4876 17.2381 14.381 17.1315 14.381 17V16.0477C14.381 15.9162 14.4876 15.8096 14.619 15.8096H15.5714C15.7029 15.8096 15.8095 15.9162 15.8095 16.0477V17C15.8095 17.1315 15.7029 17.2381 15.5714 17.2381Z" fill="#CAD2D9"/>
<path d="M17.4762 19.1428H16.5238C16.3924 19.1428 16.2857 19.0361 16.2857 18.9047V17.9523C16.2857 17.8209 16.3924 17.7142 16.5238 17.7142H17.4762C17.6076 17.7142 17.7143 17.8209 17.7143 17.9523V18.9047C17.7143 19.0361 17.6076 19.1428 17.4762 19.1428Z" fill="#CAD2D9"/>
<path d="M15.5714 19.1428H14.619C14.4876 19.1428 14.381 19.0361 14.381 18.9047V17.9523C14.381 17.8209 14.4876 17.7142 14.619 17.7142H15.5714C15.7029 17.7142 15.8095 17.8209 15.8095 17.9523V18.9047C15.8095 19.0361 15.7029 19.1428 15.5714 19.1428Z" fill="#CAD2D9"/>
<path d="M17.4762 21.0476H16.5238C16.3924 21.0476 16.2857 20.9409 16.2857 20.8095V19.8571C16.2857 19.7257 16.3924 19.619 16.5238 19.619H17.4762C17.6076 19.619 17.7143 19.7257 17.7143 19.8571V20.8095C17.7143 20.9409 17.6076 21.0476 17.4762 21.0476Z" fill="#CAD2D9"/>
<path d="M15.5714 21.0476H14.619C14.4876 21.0476 14.381 20.9409 14.381 20.8095V19.8571C14.381 19.7257 14.4876 19.619 14.619 19.619H15.5714C15.7029 19.619 15.8095 19.7257 15.8095 19.8571V20.8095C15.8095 20.9409 15.7029 21.0476 15.5714 21.0476Z" fill="#CAD2D9"/>
<path d="M19.381 17.2381H18.4286C18.2971 17.2381 18.1905 17.1315 18.1905 17V16.0477C18.1905 15.9162 18.2971 15.8096 18.4286 15.8096H19.381C19.5124 15.8096 19.619 15.9162 19.619 16.0477V17C19.619 17.1315 19.5124 17.2381 19.381 17.2381Z" fill="#CAD2D9"/>
<path d="M19.381 21.0476H18.4286C18.2971 21.0476 18.1905 20.9409 18.1905 20.8095V17.9523C18.1905 17.8209 18.2971 17.7142 18.4286 17.7142H19.381C19.5124 17.7142 19.619 17.8209 19.619 17.9523V20.8095C19.619 20.9409 19.5124 21.0476 19.381 21.0476Z" fill="url(#paint7_linear_40_5986)"/>
<path d="M15.5714 9.14281H13.1905C13.059 9.14281 12.9524 9.03614 12.9524 8.90472V8.42852C12.9524 8.2971 13.059 8.19043 13.1905 8.19043H15.5714C15.7029 8.19043 15.8095 8.2971 15.8095 8.42852V8.90472C15.8095 9.03614 15.7029 9.14281 15.5714 9.14281Z" fill="#E0E0E0"/>
<path d="M15.5714 11.0476H13.1905C13.059 11.0476 12.9524 10.9409 12.9524 10.8095V10.3333C12.9524 10.2019 13.059 10.0952 13.1905 10.0952H15.5714C15.7029 10.0952 15.8095 10.2019 15.8095 10.3333V10.8095C15.8095 10.9409 15.7029 11.0476 15.5714 11.0476Z" fill="#E0E0E0"/>
<defs>
<linearGradient id="paint0_linear_40_5986" x1="7.64762" y1="1.77763" x2="13.7029" y2="20.8314" gradientUnits="userSpaceOnUse">
<stop stop-color="#C77740"/>
<stop offset="1" stop-color="#B0622B"/>
</linearGradient>
<linearGradient id="paint1_linear_40_5986" x1="11.0476" y1="18.6505" x2="11.0476" y2="20.5205" gradientUnits="userSpaceOnUse">
<stop offset="0.442" stop-color="#878786"/>
<stop offset="0.594" stop-color="#9F9F9E"/>
<stop offset="0.859" stop-color="#C3C3C3"/>
<stop offset="1" stop-color="#D1D1D1"/>
</linearGradient>
<linearGradient id="paint2_linear_40_5986" x1="11.4905" y1="5.77524" x2="10.5933" y2="2.04333" gradientUnits="userSpaceOnUse">
<stop stop-color="#C3CDD9"/>
<stop offset="1" stop-color="#9FA7B0"/>
</linearGradient>
<linearGradient id="paint3_linear_40_5986" x1="11.0933" y1="6.94878" x2="13.0802" y2="10.5907" gradientUnits="userSpaceOnUse">
<stop stop-color="#32BDEF"/>
<stop offset="1" stop-color="#1EA2E4"/>
</linearGradient>
<linearGradient id="paint4_linear_40_5986" x1="9.45933" y1="7.21765" x2="11.6482" y2="8.59472" gradientUnits="userSpaceOnUse">
<stop stop-color="#FCFCFC"/>
<stop offset="0.95" stop-color="#C3C9CD"/>
</linearGradient>
<linearGradient id="paint5_linear_40_5986" x1="13.71" y1="12.6852" x2="20.061" y2="21.4743" gradientUnits="userSpaceOnUse">
<stop stop-color="#899198"/>
<stop offset="1" stop-color="#787E85"/>
</linearGradient>
<linearGradient id="paint6_linear_40_5986" x1="14.9752" y1="13.2048" x2="19.4614" y2="15.2829" gradientUnits="userSpaceOnUse">
<stop stop-color="#4FE5FF"/>
<stop offset="1" stop-color="#2EB7ED"/>
</linearGradient>
<linearGradient id="paint7_linear_40_5986" x1="18.9048" y1="17.8452" x2="18.9048" y2="20.9623" gradientUnits="userSpaceOnUse">
<stop stop-color="#11498A"/>
<stop offset="1" stop-color="#0F417A"/>
</linearGradient>
</defs>
</svg>
