<svg width="24" height="24" viewBox="0 0 24 24" fill="none" xmlns="http://www.w3.org/2000/svg">
<path d="M22 6.25V20.75H18V6.25C18 5.974 18.224 5.75 18.5 5.75H21.5C21.776 5.75 22 5.974 22 6.25Z" fill="url(#paint0_linear_40_5977)"/>
<path d="M3.6465 9.27497L8.8995 4.02197L10.228 5.35047L4.975 10.6035C4.7795 10.799 4.463 10.799 4.268 10.6035L3.6465 9.982C3.451 9.787 3.451 9.47047 3.6465 9.27497Z" fill="url(#paint1_linear_40_5977)"/>
<path d="M18 8.75V20.75H14V9.25C14 8.974 14.224 8.75 14.5 8.75H18Z" fill="url(#paint2_linear_40_5977)"/>
<path d="M14 11.75V20.75H10V12.25C10 11.974 10.224 11.75 10.5 11.75H14Z" fill="url(#paint3_linear_40_5977)"/>
<path d="M10 14.75V20.75H6V15.25C6 14.974 6.224 14.75 6.5 14.75H10Z" fill="#0078D4"/>
<path d="M6 17.75V20.75H2V18.25C2 17.974 2.224 17.75 2.5 17.75H6Z" fill="#0D62AB"/>
<path d="M11 7.1465V3.75C11 3.474 10.776 3.25 10.5 3.25H7.1035C6.881 3.25 6.769 3.5195 6.9265 3.677L10.573 7.3235C10.7305 7.4805 11 7.369 11 7.1465Z" fill="url(#paint4_linear_40_5977)"/>
<defs>
<linearGradient id="paint0_linear_40_5977" x1="19.2611" y1="5.98029" x2="26.6411" y2="9.7747" gradientUnits="userSpaceOnUse">
<stop stop-color="#7DD8F3"/>
<stop offset="1" stop-color="#45B0D0"/>
</linearGradient>
<linearGradient id="paint1_linear_40_5977" x1="5.62116" y1="4.12527" x2="8.94814" y2="10.5399" gradientUnits="userSpaceOnUse">
<stop stop-color="#7DD8F3"/>
<stop offset="1" stop-color="#45B0D0"/>
</linearGradient>
<linearGradient id="paint2_linear_40_5977" x1="15.4614" y1="9.27309" x2="21.0246" y2="19.4705" gradientUnits="userSpaceOnUse">
<stop stop-color="#32BDEF"/>
<stop offset="1" stop-color="#1EA2E4"/>
</linearGradient>
<linearGradient id="paint3_linear_40_5977" x1="10.8862" y1="10.4092" x2="16.8865" y2="14.3241" gradientUnits="userSpaceOnUse">
<stop stop-color="#FCFCFC"/>
<stop offset="0.95" stop-color="#C3C9CD"/>
</linearGradient>
<linearGradient id="paint4_linear_40_5977" x1="8.1604" y1="3.31367" x2="10.2109" y2="7.26745" gradientUnits="userSpaceOnUse">
<stop stop-color="#7DD8F3"/>
<stop offset="1" stop-color="#45B0D0"/>
</linearGradient>
</defs>
</svg>
