<svg width="24" height="24" viewBox="0 0 24 24" fill="none" xmlns="http://www.w3.org/2000/svg">
<path d="M15.9535 2C15.9535 2.25674 15.7451 2.46512 15.4884 2.46512C15.2316 2.46512 15.0233 2.25674 15.0233 2H14.093C14.093 2.25674 13.8847 2.46512 13.6279 2.46512C13.3712 2.46512 13.1628 2.25674 13.1628 2H12.2326C12.2326 2.25674 12.0242 2.46512 11.7674 2.46512C11.5107 2.46512 11.3023 2.25674 11.3023 2H10.3721C10.3721 2.25674 10.1637 2.46512 9.90698 2.46512C9.65024 2.46512 9.44186 2.25674 9.44186 2H8.51163C8.51163 2.25674 8.30326 2.46512 8.04652 2.46512C7.78977 2.46512 7.5814 2.25674 7.5814 2H6.65117C6.65117 2.25674 6.44279 2.46512 6.18605 2.46512C5.92931 2.46512 5.72093 2.25674 5.72093 2H4.7907C4.7907 2.25674 4.58233 2.46512 4.32559 2.46512C4.06884 2.46512 3.86047 2.25674 3.86047 2H3.39535C3.13861 2 2.93024 2.20837 2.93024 2.46512V18.7442C2.93024 19.2581 3.34652 19.6744 3.86047 19.6744H15.9535C16.4674 19.6744 16.8837 19.2581 16.8837 18.7442V2.46512C16.8837 2.20837 16.6754 2 16.4186 2H15.9535Z" fill="url(#paint0_linear_40_110)"/>
<path d="M14.7907 5.72093H5.02326C4.89489 5.72093 4.7907 5.61674 4.7907 5.48837V4.55814C4.7907 4.42977 4.89489 4.32558 5.02326 4.32558H14.7907C14.9191 4.32558 15.0233 4.42977 15.0233 4.55814V5.48837C15.0233 5.61674 14.9191 5.72093 14.7907 5.72093Z" fill="#057093"/>
<path d="M14.7907 8.97675H13.8605C13.7321 8.97675 13.6279 8.87256 13.6279 8.74419V8.27907C13.6279 8.1507 13.7321 8.04651 13.8605 8.04651H14.7907C14.9191 8.04651 15.0233 8.1507 15.0233 8.27907V8.74419C15.0233 8.87256 14.9191 8.97675 14.7907 8.97675Z" fill="#057093"/>
<path d="M11.0698 8.97675H5.02326C4.89489 8.97675 4.7907 8.87256 4.7907 8.74419V8.27907C4.7907 8.1507 4.89489 8.04651 5.02326 8.04651H11.0698C11.1981 8.04651 11.3023 8.1507 11.3023 8.27907V8.74419C11.3023 8.87256 11.1981 8.97675 11.0698 8.97675Z" fill="#057093"/>
<path d="M14.7907 10.8372H13.8605C13.7321 10.8372 13.6279 10.733 13.6279 10.6047V10.1395C13.6279 10.0112 13.7321 9.90698 13.8605 9.90698H14.7907C14.9191 9.90698 15.0233 10.0112 15.0233 10.1395V10.6047C15.0233 10.733 14.9191 10.8372 14.7907 10.8372Z" fill="#057093"/>
<path d="M9.67442 10.8372H5.02326C4.89489 10.8372 4.7907 10.733 4.7907 10.6047V10.1395C4.7907 10.0112 4.89489 9.90698 5.02326 9.90698H9.67442C9.8028 9.90698 9.90698 10.0112 9.90698 10.1395V10.6047C9.90698 10.733 9.8028 10.8372 9.67442 10.8372Z" fill="#057093"/>
<path d="M14.7907 12.6977H13.8605C13.7321 12.6977 13.6279 12.5935 13.6279 12.4651V12C13.6279 11.8716 13.7321 11.7674 13.8605 11.7674H14.7907C14.9191 11.7674 15.0233 11.8716 15.0233 12V12.4651C15.0233 12.5935 14.9191 12.6977 14.7907 12.6977Z" fill="#057093"/>
<path d="M11.0698 12.6977H5.02326C4.89489 12.6977 4.7907 12.5935 4.7907 12.4651V12C4.7907 11.8716 4.89489 11.7674 5.02326 11.7674H11.0698C11.1981 11.7674 11.3023 11.8716 11.3023 12V12.4651C11.3023 12.5935 11.1981 12.6977 11.0698 12.6977Z" fill="#057093"/>
<path d="M14.7907 14.5581H13.8605C13.7321 14.5581 13.6279 14.454 13.6279 14.3256V13.8605C13.6279 13.7321 13.7321 13.6279 13.8605 13.6279H14.7907C14.9191 13.6279 15.0233 13.7321 15.0233 13.8605V14.3256C15.0233 14.454 14.9191 14.5581 14.7907 14.5581Z" fill="#057093"/>
<path d="M9.67442 14.5581H5.02326C4.89489 14.5581 4.7907 14.454 4.7907 14.3256V13.8605C4.7907 13.7321 4.89489 13.6279 5.02326 13.6279H9.67442C9.8028 13.6279 9.90698 13.7321 9.90698 13.8605V14.3256C9.90698 14.454 9.8028 14.5581 9.67442 14.5581Z" fill="#057093"/>
<path d="M14.7907 17.3488H12.9302C12.8019 17.3488 12.6977 17.2447 12.6977 17.1163V16.6512C12.6977 16.5228 12.8019 16.4186 12.9302 16.4186H14.7907C14.9191 16.4186 15.0233 16.5228 15.0233 16.6512V17.1163C15.0233 17.2447 14.9191 17.3488 14.7907 17.3488Z" fill="#057093"/>
<path d="M11.0698 17.3488H6.88373C6.75535 17.3488 6.65117 17.2447 6.65117 17.1163V16.6512C6.65117 16.5228 6.75535 16.4186 6.88373 16.4186H11.0698C11.1981 16.4186 11.3023 16.5228 11.3023 16.6512V17.1163C11.3023 17.2447 11.1981 17.3488 11.0698 17.3488Z" fill="#057093"/>
<path d="M16.4186 11.7674C13.3409 11.7674 10.8372 14.2712 10.8372 17.3488C10.8372 18.1795 11.0247 18.9656 11.3512 19.6744H15.9535C16.4674 19.6744 16.8837 19.2581 16.8837 18.7442V11.7912C16.7298 11.7781 16.5758 11.7674 16.4186 11.7674Z" fill="url(#paint1_radial_40_110)"/>
<path d="M16.4186 22C18.9874 22 21.0698 19.9176 21.0698 17.3488C21.0698 14.7801 18.9874 12.6977 16.4186 12.6977C13.8499 12.6977 11.7674 14.7801 11.7674 17.3488C11.7674 19.9176 13.8499 22 16.4186 22Z" fill="url(#paint2_linear_40_110)"/>
<path d="M16.6512 19.6744H16.186C16.0577 19.6744 15.9535 19.5702 15.9535 19.4419V15.2558C15.9535 15.1274 16.0577 15.0233 16.186 15.0233H16.6512C16.7795 15.0233 16.8837 15.1274 16.8837 15.2558V19.4419C16.8837 19.5702 16.7795 19.6744 16.6512 19.6744Z" fill="white"/>
<path d="M14.093 17.5814V17.1163C14.093 16.9879 14.1972 16.8837 14.3256 16.8837H18.5116C18.64 16.8837 18.7442 16.9879 18.7442 17.1163V17.5814C18.7442 17.7098 18.64 17.814 18.5116 17.814H14.3256C14.1972 17.814 14.093 17.7098 14.093 17.5814Z" fill="white"/>
<defs>
<linearGradient id="paint0_linear_40_110" x1="7.32958" y1="2.27136" x2="17.1426" y2="17.2085" gradientUnits="userSpaceOnUse">
<stop stop-color="#7DD8F3"/>
<stop offset="1" stop-color="#45B0D0"/>
</linearGradient>
<radialGradient id="paint1_radial_40_110" cx="0" cy="0" r="1" gradientUnits="userSpaceOnUse" gradientTransform="translate(16.2749 17.3042) scale(5.5707)">
<stop/>
<stop offset="0.979" stop-opacity="0"/>
</radialGradient>
<linearGradient id="paint2_linear_40_110" x1="11.7674" y1="17.3488" x2="21.0698" y2="17.3488" gradientUnits="userSpaceOnUse">
<stop stop-color="#21AD64"/>
<stop offset="1" stop-color="#088242"/>
</linearGradient>
</defs>
</svg>
