<svg width="24" height="24" viewBox="0 0 24 24" fill="none" xmlns="http://www.w3.org/2000/svg">
<path d="M20.1818 3.81818V7.45455H8.81818V2.90909H19.2727C19.7727 2.90909 20.1818 3.31818 20.1818 3.81818Z" fill="url(#paint0_linear_40_93)"/>
<path d="M17.5277 6.09091C17.2014 6.09091 16.9005 5.91591 16.7386 5.63273L15.4441 3.36682C15.2818 3.08409 14.9805 2.90909 14.6541 2.90909H9.27273V6.09091H17.5277Z" fill="url(#paint1_linear_40_93)"/>
<path d="M11.2836 5.63273L9.98909 3.36682C9.82727 3.08409 9.52591 2.90909 9.19955 2.90909H2.90909C2.40682 2.90909 2 3.31591 2 3.81818V16.5455C2 17.0455 2.40909 17.4545 2.90909 17.4545H19.2727C19.7727 17.4545 20.1818 17.0455 20.1818 16.5455V7C20.1818 6.49773 19.775 6.09091 19.2727 6.09091H12.0732C11.7468 6.09091 11.4455 5.91591 11.2836 5.63273Z" fill="url(#paint2_linear_40_93)"/>
<path d="M17.4545 11.0909C14.4468 11.0909 12 13.5377 12 16.5455C12 16.855 12.0264 17.1586 12.0764 17.4545H19.2727C19.7727 17.4545 20.1818 17.0455 20.1818 16.5455V11.8232C19.3791 11.3577 18.4473 11.0909 17.4545 11.0909Z" fill="url(#paint3_radial_40_93)"/>
<path d="M17.4545 21.0909C19.9649 21.0909 22 19.0558 22 16.5455C22 14.0351 19.9649 12 17.4545 12C14.9442 12 12.9091 14.0351 12.9091 16.5455C12.9091 19.0558 14.9442 21.0909 17.4545 21.0909Z" fill="url(#paint4_linear_40_93)"/>
<path d="M17.6818 18.8182H17.2273C17.1018 18.8182 17 18.7164 17 18.5909V14.5C17 14.3745 17.1018 14.2727 17.2273 14.2727H17.6818C17.8073 14.2727 17.9091 14.3745 17.9091 14.5V18.5909C17.9091 18.7164 17.8073 18.8182 17.6818 18.8182Z" fill="white"/>
<path d="M15.1818 16.7727V16.3182C15.1818 16.1927 15.2836 16.0909 15.4091 16.0909H19.5C19.6255 16.0909 19.7273 16.1927 19.7273 16.3182V16.7727C19.7273 16.8982 19.6255 17 19.5 17H15.4091C15.2836 17 15.1818 16.8982 15.1818 16.7727Z" fill="white"/>
<defs>
<linearGradient id="paint0_linear_40_93" x1="19.3695" y1="7.26091" x2="7.50864" y2="2.55273" gradientUnits="userSpaceOnUse">
<stop stop-color="#3079D6"/>
<stop offset="1" stop-color="#297CD2"/>
</linearGradient>
<linearGradient id="paint1_linear_40_93" x1="12.2887" y1="3.04779" x2="12.5335" y2="6.53922" gradientUnits="userSpaceOnUse">
<stop stop-color="#32BDEF"/>
<stop offset="1" stop-color="#1EA2E4"/>
</linearGradient>
<linearGradient id="paint2_linear_40_93" x1="6.02803" y1="0.74221" x2="14.9318" y2="17.0805" gradientUnits="userSpaceOnUse">
<stop stop-color="#FCFCFC"/>
<stop offset="0.95" stop-color="#C3C9CD"/>
</linearGradient>
<radialGradient id="paint3_radial_40_93" cx="0" cy="0" r="1" gradientUnits="userSpaceOnUse" gradientTransform="translate(17.3095 16.4195) scale(5.19364)">
<stop/>
<stop offset="0.979" stop-opacity="0"/>
</radialGradient>
<linearGradient id="paint4_linear_40_93" x1="12.9091" y1="16.5455" x2="22" y2="16.5455" gradientUnits="userSpaceOnUse">
<stop stop-color="#21AD64"/>
<stop offset="1" stop-color="#088242"/>
</linearGradient>
</defs>
</svg>
