<svg width="24" height="24" viewBox="0 0 24 24" fill="none" xmlns="http://www.w3.org/2000/svg">
<path d="M19.9864 9.13778L19.7983 10.3946L19.7708 10.5781L18.6929 17.7932C18.6149 18.2886 18.1929 18.651 17.6929 18.651H4.29004C3.79006 18.651 3.36807 18.2886 3.29009 17.7932L2.22135 10.5781L2.19383 10.3946L2.00576 9.13778C1.95989 8.83046 2.19382 8.55983 2.50573 8.55983H19.4864C19.7983 8.55983 20.0322 8.83046 19.9864 9.13778Z" fill="url(#paint0_linear_40_33)"/>
<path d="M11.6336 2.4134C11.2667 2.04645 10.7162 2.04645 10.3493 2.4134L4.38634 8.37636C4.01939 8.74331 4.01939 9.29374 4.38634 9.66069C4.56982 9.84416 4.79916 9.9359 5.02851 9.9359C5.25785 9.9359 5.4872 9.84416 5.67067 9.66069L11.6336 3.69773C12.0006 3.33078 12.0006 2.78036 11.6336 2.4134Z" fill="url(#paint1_linear_40_33)"/>
<path d="M17.8259 8.6057L11.6336 2.4134C11.2667 2.04645 10.7162 2.04645 10.3493 2.4134C9.98234 2.78036 9.98234 3.33078 10.3493 3.69773L16.5416 9.89003C16.7251 10.0735 16.9544 10.1652 17.1838 10.1652C17.4131 10.1652 17.6424 10.0735 17.8259 9.89003C18.1929 9.52308 18.1929 8.97265 17.8259 8.6057Z" fill="url(#paint2_linear_40_33)"/>
<path opacity="0.05" d="M16.5416 9.89003C16.7251 10.0735 16.9544 10.1652 17.1838 10.1652C17.4131 10.1652 17.6425 10.0735 17.8259 9.89003C18.1929 9.52308 18.1929 8.97265 17.8259 8.6057L17.3214 8.10114H14.7527L16.5416 9.89003Z" fill="#0E0500"/>
<path opacity="0.05" d="M5.02851 9.9359C5.25785 9.9359 5.4872 9.84416 5.67067 9.66069L7.23021 8.10114H4.66156L4.38634 8.37636C4.01939 8.74331 4.01939 9.29374 4.38634 9.66069C4.56982 9.84416 4.79916 9.9359 5.02851 9.9359Z" fill="#0E0500"/>
<path opacity="0.07" d="M5.02851 9.9359C5.25785 9.9359 5.4872 9.84416 5.67067 9.66069L7.00087 8.33049H4.43221L4.38634 8.37636C4.01939 8.74331 4.01939 9.29374 4.38634 9.66069C4.56982 9.84416 4.79916 9.9359 5.02851 9.9359Z" fill="black"/>
<path opacity="0.07" d="M16.5416 9.89003C16.7251 10.0735 16.9544 10.1652 17.1838 10.1652C17.4131 10.1652 17.6425 10.0735 17.8259 9.89003C18.1929 9.52308 18.1929 8.97265 17.8259 8.6057L17.5507 8.33049H14.9821L16.5416 9.89003Z" fill="black"/>
<path d="M19.9864 9.13778C20.0322 8.83046 19.7983 8.55983 19.4864 8.55983H2.50573C2.19382 8.55983 1.95989 8.83046 2.00576 9.13778L2.19383 10.3946H19.7983L19.9864 9.13778Z" fill="url(#paint3_linear_40_33)"/>
<path d="M9.38605 17.7336C9.00625 17.7336 8.69801 17.4254 8.69801 17.0456V12C8.69801 11.6202 9.00625 11.312 9.38605 11.312C9.76584 11.312 10.0741 11.6202 10.0741 12V17.0456C10.0741 17.4254 9.76584 17.7336 9.38605 17.7336Z" fill="#0D62AB"/>
<path d="M6.17523 17.7336C5.79544 17.7336 5.4872 17.4254 5.4872 17.0456V12C5.4872 11.6202 5.79544 11.312 6.17523 11.312C6.55503 11.312 6.86326 11.6202 6.86326 12V17.0456C6.86326 17.4254 6.55503 17.7336 6.17523 17.7336Z" fill="#0D62AB"/>
<path d="M12.5969 17.7336C12.2171 17.7336 11.9088 17.4254 11.9088 17.0456V12C11.9088 11.6202 12.2171 11.312 12.5969 11.312C12.9767 11.312 13.2849 11.6202 13.2849 12V17.0456C13.2849 17.4254 12.9767 17.7336 12.5969 17.7336Z" fill="#0D62AB"/>
<path d="M15.8077 17.7336C15.4279 17.7336 15.1197 17.4254 15.1197 17.0456V12C15.1197 11.6202 15.4279 11.312 15.8077 11.312C16.1875 11.312 16.4957 11.6202 16.4957 12V17.0456C16.4957 17.4254 16.1875 17.7336 15.8077 17.7336Z" fill="#0D62AB"/>
<path d="M17.4131 11.7707C14.378 11.7707 11.9088 14.2398 11.9088 17.2749C11.9088 17.7506 11.9758 18.2102 12.09 18.651H17.6929C18.1929 18.651 18.6149 18.2886 18.6929 17.7932L19.529 12.1949C18.8772 11.9225 18.1626 11.7707 17.4131 11.7707Z" fill="url(#paint4_radial_40_33)"/>
<path d="M17.4131 21.8618C19.9464 21.8618 22 19.8082 22 17.2749C22 14.7417 19.9464 12.688 17.4131 12.688C14.8799 12.688 12.8262 14.7417 12.8262 17.2749C12.8262 19.8082 14.8799 21.8618 17.4131 21.8618Z" fill="url(#paint5_linear_40_33)"/>
<path d="M17.6425 19.5684H17.1838C17.0572 19.5684 16.9544 19.4656 16.9544 19.339V15.2108C16.9544 15.0842 17.0572 14.9815 17.1838 14.9815H17.6425C17.7691 14.9815 17.8718 15.0842 17.8718 15.2108V19.339C17.8718 19.4656 17.7691 19.5684 17.6425 19.5684Z" fill="white"/>
<path d="M15.1197 17.5043V17.0456C15.1197 16.919 15.2224 16.8162 15.349 16.8162H19.4772C19.6038 16.8162 19.7065 16.919 19.7065 17.0456V17.5043C19.7065 17.6309 19.6038 17.7336 19.4772 17.7336H15.349C15.2224 17.7336 15.1197 17.6309 15.1197 17.5043Z" fill="white"/>
<defs>
<linearGradient id="paint0_linear_40_33" x1="10.9961" y1="9.87535" x2="10.9961" y2="22.7255" gradientUnits="userSpaceOnUse">
<stop stop-color="#199BE2"/>
<stop offset="1" stop-color="#0078D4"/>
</linearGradient>
<linearGradient id="paint1_linear_40_33" x1="10.7951" y1="3.42114" x2="4.27305" y2="9.54739" gradientUnits="userSpaceOnUse">
<stop stop-color="#575C61"/>
<stop offset="0.155" stop-color="#737B80"/>
<stop offset="0.507" stop-color="#70787D"/>
<stop offset="0.75" stop-color="#686F74"/>
<stop offset="0.961" stop-color="#5A6065"/>
<stop offset="1" stop-color="#575C61"/>
</linearGradient>
<linearGradient id="paint2_linear_40_33" x1="10.0741" y1="6.15172" x2="18.1011" y2="6.15172" gradientUnits="userSpaceOnUse">
<stop stop-color="#737B80"/>
<stop offset="1" stop-color="#575C61"/>
</linearGradient>
<linearGradient id="paint3_linear_40_33" x1="8.57343" y1="8.63981" x2="8.61093" y2="10.6623" gradientUnits="userSpaceOnUse">
<stop stop-color="#32BDEF"/>
<stop offset="1" stop-color="#1EA2E4"/>
</linearGradient>
<radialGradient id="paint4_radial_40_33" cx="0" cy="0" r="1" gradientUnits="userSpaceOnUse" gradientTransform="translate(16.9879 16.9479) scale(4.93274)">
<stop/>
<stop offset="1" stop-opacity="0"/>
</radialGradient>
<linearGradient id="paint5_linear_40_33" x1="12.8262" y1="17.2749" x2="22" y2="17.2749" gradientUnits="userSpaceOnUse">
<stop stop-color="#21AD64"/>
<stop offset="1" stop-color="#088242"/>
</linearGradient>
</defs>
</svg>
