<svg width="24" height="24" viewBox="0 0 24 24" fill="none" xmlns="http://www.w3.org/2000/svg">
<path d="M16.8837 7.11628V18.7442C16.8837 19.2581 16.4674 19.6744 15.9535 19.6744H3.86047C3.34652 19.6744 2.93024 19.2581 2.93024 18.7442V2.93023C2.93024 2.41628 3.34652 2 3.86047 2H11.7674L16.8837 7.11628Z" fill="url(#paint0_linear_40_51)"/>
<path d="M11.7674 2V6.18605C11.7674 6.7 12.1837 7.11628 12.6977 7.11628H16.8837L11.7674 2Z" fill="url(#paint1_linear_40_51)"/>
<path d="M16.4186 22C18.9873 22 21.0698 19.9176 21.0698 17.3488C21.0698 14.7801 18.9873 12.6977 16.4186 12.6977C13.8499 12.6977 11.7674 14.7801 11.7674 17.3488C11.7674 19.9176 13.8499 22 16.4186 22Z" fill="url(#paint2_linear_40_51)"/>
<path d="M16.6512 19.6744H16.186C16.0577 19.6744 15.9535 19.5702 15.9535 19.4419V15.2558C15.9535 15.1274 16.0577 15.0233 16.186 15.0233H16.6512C16.7795 15.0233 16.8837 15.1274 16.8837 15.2558V19.4419C16.8837 19.5702 16.7795 19.6744 16.6512 19.6744Z" fill="white"/>
<path d="M14.093 17.5814V17.1163C14.093 16.9879 14.1972 16.8837 14.3256 16.8837H18.5116C18.64 16.8837 18.7442 16.9879 18.7442 17.1163V17.5814C18.7442 17.7098 18.64 17.814 18.5116 17.814H14.3256C14.1972 17.814 14.093 17.7098 14.093 17.5814Z" fill="white"/>
<defs>
<linearGradient id="paint0_linear_40_51" x1="7.32958" y1="2.27136" x2="17.1426" y2="17.2085" gradientUnits="userSpaceOnUse">
<stop stop-color="#7DD8F3"/>
<stop offset="1" stop-color="#45B0D0"/>
</linearGradient>
<linearGradient id="paint1_linear_40_51" x1="12.0135" y1="6.8707" x2="14.3721" y2="4.51163" gradientUnits="userSpaceOnUse">
<stop stop-color="#3079D6"/>
<stop offset="1" stop-color="#297CD2"/>
</linearGradient>
<linearGradient id="paint2_linear_40_51" x1="11.7674" y1="17.3488" x2="21.0698" y2="17.3488" gradientUnits="userSpaceOnUse">
<stop stop-color="#21AD64"/>
<stop offset="1" stop-color="#088242"/>
</linearGradient>
</defs>
</svg>
