<svg width="24" height="24" viewBox="0 0 24 24" fill="none" xmlns="http://www.w3.org/2000/svg">
<path d="M6.22269 11.9451C6.01526 11.9451 5.82969 11.8002 5.78597 11.5887L4.54807 5.57496C4.46287 5.16232 4.09529 4.86255 3.67418 4.86255H2.89218C2.64549 4.86255 2.44609 4.66315 2.44609 4.41646C2.44609 4.16977 2.64549 3.97037 2.89218 3.97037H3.67418C4.51729 3.97037 5.252 4.56947 5.42196 5.39518L6.65986 11.4089C6.70938 11.6498 6.55414 11.8858 6.31281 11.9358C6.28292 11.942 6.25214 11.9451 6.22269 11.9451Z" fill="url(#paint0_linear_40_169)"/>
<path d="M18.5054 20.4757C19.2444 20.4757 19.8436 19.8765 19.8436 19.1375C19.8436 18.3984 19.2444 17.7992 18.5054 17.7992C17.7663 17.7992 17.1671 18.3984 17.1671 19.1375C17.1671 19.8765 17.7663 20.4757 18.5054 20.4757Z" fill="#5C5F61"/>
<path opacity="0.15" d="M18.5054 19.5835C18.7517 19.5835 18.9514 19.3838 18.9514 19.1375C18.9514 18.8911 18.7517 18.6914 18.5054 18.6914C18.259 18.6914 18.0593 18.8911 18.0593 19.1375C18.0593 19.3838 18.259 19.5835 18.5054 19.5835Z" fill="black"/>
<path d="M8.69136 20.4757C9.43047 20.4757 10.0296 19.8765 10.0296 19.1375C10.0296 18.3984 9.43047 17.7992 8.69136 17.7992C7.95225 17.7992 7.35309 18.3984 7.35309 19.1375C7.35309 19.8765 7.95225 20.4757 8.69136 20.4757Z" fill="#5C5F61"/>
<path opacity="0.15" d="M8.69136 19.5835C8.93773 19.5835 9.13745 19.3838 9.13745 19.1375C9.13745 18.8911 8.93773 18.6914 8.69136 18.6914C8.44499 18.6914 8.24527 18.8911 8.24527 19.1375C8.24527 19.3838 8.44499 19.5835 8.69136 19.5835Z" fill="black"/>
<path d="M20.2897 18.2453H7.79918C6.8151 18.2453 6.01482 17.445 6.01482 16.4609C6.01482 15.4768 6.8151 14.6765 7.79918 14.6765H18.9514C19.1981 14.6765 19.3975 14.8759 19.3975 15.1226C19.3975 15.3693 19.1981 15.5687 18.9514 15.5687H7.79918C7.30714 15.5687 6.907 15.9689 6.907 16.4609C6.907 16.9529 7.30714 17.3531 7.79918 17.3531H20.2897C20.5364 17.3531 20.7358 17.5525 20.7358 17.7992C20.7358 18.0459 20.5364 18.2453 20.2897 18.2453Z" fill="url(#paint1_linear_40_169)"/>
<path d="M3.78436 4.41646C3.78436 4.90894 3.38467 5.30864 2.89218 5.30864C2.3997 5.30864 2 4.90894 2 4.41646C2 3.92397 2.3997 3.52428 2.89218 3.52428C3.38467 3.52428 3.78436 3.92397 3.78436 4.41646Z" fill="url(#paint2_linear_40_169)"/>
<path d="M6.32262 14.8434C6.40292 15.2645 6.77094 15.5687 7.19919 15.5687H19.9801C20.4164 15.5687 20.7885 15.2533 20.8603 14.8233L21.7806 9.30118L5.02137 8.01198L6.32262 14.8434Z" fill="url(#paint3_linear_40_169)"/>
<path d="M21.5883 7.50162L4.67654 6.20082L5.02137 8.01195L21.7801 9.30115L21.9938 8.01998C22.0371 7.76169 21.8493 7.5217 21.5883 7.50162Z" fill="url(#paint4_linear_40_169)"/>
<path opacity="0.05" d="M15.6058 11.1078H14.4905V9.99259C14.4905 9.62323 14.1908 9.32346 13.8214 9.32346H13.3753C13.0059 9.32346 12.7062 9.62323 12.7062 9.99259V11.1078H11.591C11.2216 11.1078 10.9218 11.4076 10.9218 11.777V12.223C10.9218 12.5924 11.2216 12.8922 11.591 12.8922H12.7062V14.0074C12.7062 14.3768 13.0059 14.6765 13.3753 14.6765H13.8214C14.1908 14.6765 14.4905 14.3768 14.4905 14.0074V12.8922H15.6058C15.9751 12.8922 16.2749 12.5924 16.2749 12.223V11.777C16.2749 11.4076 15.9751 11.1078 15.6058 11.1078Z" fill="black"/>
<path opacity="0.07" d="M15.6058 11.3309H14.2675V9.99259C14.2675 9.74635 14.0676 9.5465 13.8214 9.5465H13.3753C13.1291 9.5465 12.9292 9.74635 12.9292 9.99259V11.3309H11.591C11.3447 11.3309 11.1449 11.5307 11.1449 11.777V12.223C11.1449 12.4693 11.3447 12.6691 11.591 12.6691H12.9292V14.0074C12.9292 14.2537 13.1291 14.4535 13.3753 14.4535H13.8214C14.0676 14.4535 14.2675 14.2537 14.2675 14.0074V12.6691H15.6058C15.852 12.6691 16.0519 12.4693 16.0519 12.223V11.777C16.0519 11.5307 15.852 11.3309 15.6058 11.3309Z" fill="black"/>
<path d="M13.8214 14.2305H13.3753C13.2522 14.2305 13.1523 14.1305 13.1523 14.0074V9.99259C13.1523 9.86947 13.2522 9.76955 13.3753 9.76955H13.8214C13.9445 9.76955 14.0444 9.86947 14.0444 9.99259V14.0074C14.0444 14.1305 13.9445 14.2305 13.8214 14.2305Z" fill="white"/>
<path d="M11.3679 12.223V11.777C11.3679 11.6538 11.4678 11.5539 11.591 11.5539H15.6058C15.7289 11.5539 15.8288 11.6538 15.8288 11.777V12.223C15.8288 12.3462 15.7289 12.4461 15.6058 12.4461H11.591C11.4678 12.4461 11.3679 12.3462 11.3679 12.223Z" fill="white"/>
<defs>
<linearGradient id="paint0_linear_40_169" x1="4.55788" y1="11.9451" x2="4.55788" y2="3.97037" gradientUnits="userSpaceOnUse">
<stop stop-color="#92A3B0"/>
<stop offset="0.015" stop-color="#A3B5C4"/>
<stop offset="0.032" stop-color="#AEC2D1"/>
<stop offset="0.046" stop-color="#B2C6D6"/>
</linearGradient>
<linearGradient id="paint1_linear_40_169" x1="13.3753" y1="18.2453" x2="13.3753" y2="14.6765" gradientUnits="userSpaceOnUse">
<stop stop-color="#92A3B0"/>
<stop offset="0.015" stop-color="#A3B5C4"/>
<stop offset="0.032" stop-color="#AEC2D1"/>
<stop offset="0.046" stop-color="#B2C6D6"/>
</linearGradient>
<linearGradient id="paint2_linear_40_169" x1="2.33724" y1="3.86152" x2="3.50957" y2="5.03385" gradientUnits="userSpaceOnUse">
<stop stop-color="#199AE0"/>
<stop offset="1" stop-color="#0782D8"/>
</linearGradient>
<linearGradient id="paint3_linear_40_169" x1="5.02137" y1="11.7903" x2="21.7806" y2="11.7903" gradientUnits="userSpaceOnUse">
<stop stop-color="#3079D6"/>
<stop offset="1" stop-color="#297CD2"/>
</linearGradient>
<linearGradient id="paint4_linear_40_169" x1="4.67654" y1="7.75099" x2="22" y2="7.75099" gradientUnits="userSpaceOnUse">
<stop stop-color="#42A3F2"/>
<stop offset="1" stop-color="#42A4EB"/>
</linearGradient>
</defs>
</svg>
