<svg width="24" height="24" viewBox="0 0 24 24" fill="none" xmlns="http://www.w3.org/2000/svg">
<path d="M10.3499 9.63418C12.458 9.63418 14.167 7.92521 14.167 5.81709C14.167 3.70897 12.458 2 10.3499 2C8.24179 2 6.53281 3.70897 6.53281 5.81709C6.53281 7.92521 8.24179 9.63418 10.3499 9.63418Z" fill="url(#paint0_linear_40_102)"/>
<path d="M10.3499 11.0656C6.66069 11.0656 3.67 14.0563 3.67 17.7455V19.1769C3.67 19.7042 4.09704 20.1312 4.62427 20.1312H16.0755C16.6027 20.1312 17.0298 19.7042 17.0298 19.1769V17.7455C17.0298 14.0563 14.0391 11.0656 10.3499 11.0656Z" fill="url(#paint1_linear_40_102)"/>
<path d="M20.33 17.0298C20.33 19.7746 18.1046 22 15.3598 22C12.6151 22 10.3897 19.7746 10.3897 17.0298C10.3897 14.2851 12.6151 12.0596 15.3598 12.0596C18.1046 12.0596 20.33 14.2851 20.33 17.0298Z" fill="url(#paint2_linear_40_102)"/>
<path opacity="0.05" d="M17.8449 16.2843H16.1054V14.5447C16.1054 14.2701 15.8829 14.0477 15.6083 14.0477H15.1113C14.8367 14.0477 14.6143 14.2701 14.6143 14.5447V16.2843H12.8747C12.6002 16.2843 12.3778 16.5067 12.3778 16.7813V17.2783C12.3778 17.5529 12.6002 17.7754 12.8747 17.7754H14.6143V19.5149C14.6143 19.7895 14.8367 20.0119 15.1113 20.0119H15.6083C15.8829 20.0119 16.1054 19.7895 16.1054 19.5149V17.7754H17.8449C18.1196 17.7754 18.342 17.5529 18.342 17.2783V16.7813C18.342 16.5067 18.1196 16.2843 17.8449 16.2843Z" fill="black"/>
<path opacity="0.07" d="M17.8449 16.4084H15.9811V14.5446C15.9811 14.3388 15.8141 14.1719 15.6083 14.1719H15.1113C14.9056 14.1719 14.7386 14.3388 14.7386 14.5446V16.4084H12.8747C12.669 16.4084 12.502 16.5754 12.502 16.7812V17.2782C12.502 17.484 12.669 17.651 12.8747 17.651H14.7386V19.5147C14.7386 19.7206 14.9056 19.8875 15.1113 19.8875H15.6083C15.8141 19.8875 15.9811 19.7206 15.9811 19.5147V17.651H17.8449C18.0507 17.651 18.2177 17.484 18.2177 17.2782V16.7812C18.2177 16.5754 18.0507 16.4084 17.8449 16.4084Z" fill="black"/>
<path d="M15.1113 14.2962H15.6083C15.7455 14.2962 15.8569 14.4075 15.8569 14.5447V19.5149C15.8569 19.652 15.7455 19.7634 15.6083 19.7634H15.1113C14.9741 19.7634 14.8629 19.652 14.8629 19.5149V14.5447C14.8629 14.4075 14.9741 14.2962 15.1113 14.2962Z" fill="white"/>
<path d="M18.0934 16.7813V17.2783C18.0934 17.4155 17.9821 17.5268 17.8449 17.5268H12.8747C12.7375 17.5268 12.6262 17.4155 12.6262 17.2783V16.7813C12.6262 16.6441 12.7375 16.5328 12.8747 16.5328H17.8449C17.9821 16.5328 18.0934 16.6441 18.0934 16.7813Z" fill="white"/>
<defs>
<linearGradient id="paint0_linear_40_102" x1="7.76049" y1="3.22767" x2="13.0863" y2="8.55346" gradientUnits="userSpaceOnUse">
<stop stop-color="#32BDEF"/>
<stop offset="1" stop-color="#1EA2E4"/>
</linearGradient>
<linearGradient id="paint1_linear_40_102" x1="5.86149" y1="12.7871" x2="14.7711" y2="21.6966" gradientUnits="userSpaceOnUse">
<stop stop-color="#32BDEF"/>
<stop offset="1" stop-color="#1EA2E4"/>
</linearGradient>
<linearGradient id="paint2_linear_40_102" x1="11.8454" y1="13.5154" x2="18.8742" y2="20.5442" gradientUnits="userSpaceOnUse">
<stop stop-color="#21AD64"/>
<stop offset="1" stop-color="#088242"/>
</linearGradient>
</defs>
</svg>
