<svg width="24" height="24" viewBox="0 0 24 24" fill="none" xmlns="http://www.w3.org/2000/svg">
<path d="M10.3499 9.63418C12.458 9.63418 14.167 7.92521 14.167 5.81709C14.167 3.70897 12.458 2 10.3499 2C8.24178 2 6.53281 3.70897 6.53281 5.81709C6.53281 7.92521 8.24178 9.63418 10.3499 9.63418Z" fill="url(#paint0_linear_62_105)"/>
<path d="M10.3499 11.0657C6.66067 11.0657 3.66998 14.0563 3.66998 17.7456V19.1769C3.66998 19.7042 4.09702 20.1312 4.62425 20.1312H16.0755C16.6027 20.1312 17.0298 19.7042 17.0298 19.1769V17.7456C17.0298 14.0563 14.0391 11.0657 10.3499 11.0657Z" fill="url(#paint1_linear_62_105)"/>
<path opacity="0.05" d="M17.8449 16.2843H16.1053V14.5448C16.1053 14.2701 15.8829 14.0477 15.6083 14.0477H15.1113C14.8367 14.0477 14.6143 14.2701 14.6143 14.5448V16.2843H12.8747C12.6002 16.2843 12.3777 16.5067 12.3777 16.7813V17.2784C12.3777 17.5529 12.6002 17.7754 12.8747 17.7754H14.6143V19.515C14.6143 19.7895 14.8367 20.0119 15.1113 20.0119H15.6083C15.8829 20.0119 16.1053 19.7895 16.1053 19.515V17.7754H17.8449C18.1195 17.7754 18.3419 17.5529 18.3419 17.2784V16.7813C18.3419 16.5067 18.1195 16.2843 17.8449 16.2843Z" fill="black"/>
<path opacity="0.07" d="M17.8449 16.4084H15.9811V14.5446C15.9811 14.3388 15.8141 14.1719 15.6083 14.1719H15.1113C14.9056 14.1719 14.7386 14.3388 14.7386 14.5446V16.4084H12.8747C12.669 16.4084 12.502 16.5754 12.502 16.7812V17.2782C12.502 17.484 12.669 17.651 12.8747 17.651H14.7386V19.5147C14.7386 19.7206 14.9056 19.8875 15.1113 19.8875H15.6083C15.8141 19.8875 15.9811 19.7206 15.9811 19.5147V17.651H17.8449C18.0507 17.651 18.2177 17.484 18.2177 17.2782V16.7812C18.2177 16.5754 18.0507 16.4084 17.8449 16.4084Z" fill="black"/>
<path d="M20.33 17.0299C20.33 19.7747 18.1046 22 15.3598 22C12.6151 22 10.3896 19.7747 10.3896 17.0299C10.3896 14.2851 12.6151 12.0597 15.3598 12.0597C18.1046 12.0597 20.33 14.2851 20.33 17.0299Z" fill="url(#paint2_linear_62_105)"/>
<path d="M15.1113 14.2963H15.6083C15.7455 14.2963 15.8569 14.4076 15.8569 14.5447V19.5149C15.8569 19.652 15.7455 19.7634 15.6083 19.7634H15.1113C14.9741 19.7634 14.8629 19.652 14.8629 19.5149V14.5447C14.8629 14.4076 14.9741 14.2963 15.1113 14.2963Z" fill="white"/>
<path d="M18.0934 16.7812V17.2782C18.0934 17.4154 17.9821 17.5267 17.8449 17.5267H12.8747C12.7375 17.5267 12.6262 17.4154 12.6262 17.2782V16.7812C12.6262 16.644 12.7375 16.5327 12.8747 16.5327H17.8449C17.9821 16.5327 18.0934 16.644 18.0934 16.7812Z" fill="white"/>
<defs>
<linearGradient id="paint0_linear_62_105" x1="8.39315" y1="2.20019" x2="9.23969" y2="10.122" gradientUnits="userSpaceOnUse">
<stop stop-color="#C3CDD9"/>
<stop offset="1" stop-color="#9FA7B0"/>
</linearGradient>
<linearGradient id="paint1_linear_62_105" x1="6.9256" y1="11.3034" x2="7.61192" y2="20.7681" gradientUnits="userSpaceOnUse">
<stop stop-color="#C3CDD9"/>
<stop offset="1" stop-color="#9FA7B0"/>
</linearGradient>
<linearGradient id="paint2_linear_62_105" x1="11.8454" y1="13.5155" x2="18.8743" y2="20.5443" gradientUnits="userSpaceOnUse">
<stop stop-color="#21AD64"/>
<stop offset="1" stop-color="#088242"/>
</linearGradient>
</defs>
</svg>
