<svg width="24" height="24" viewBox="0 0 24 24" fill="none" xmlns="http://www.w3.org/2000/svg">
<path d="M11.5173 4.40622L10.3902 3.27911C10.1404 3.02933 9.80133 2.88889 9.44756 2.88889H2.88889C2.39778 2.88889 2 3.28667 2 3.77778V17.1111C2 17.6022 2.39778 18 2.88889 18H19.7778C20.2689 18 20.6667 17.6022 20.6667 17.1111V5.55556C20.6667 5.06444 20.2689 4.66667 19.7778 4.66667H12.1458C11.9102 4.66667 11.684 4.57289 11.5173 4.40622Z" fill="url(#paint0_linear_40_58)"/>
<path d="M10.2604 6.184L11.7129 4.73156C11.7542 4.69022 11.8107 4.66667 11.8698 4.66667H19.7778C20.2689 4.66667 20.6667 5.06445 20.6667 5.55556V17.1111C20.6667 17.6022 20.2689 18 19.7778 18H2.88889C2.39778 18 2 17.6022 2 17.1111V6.66667C2 6.544 2.09956 6.44445 2.22222 6.44445H9.632C9.86756 6.44445 10.0938 6.35067 10.2604 6.184Z" fill="url(#paint1_linear_40_58)"/>
<path d="M17.5556 21.1111C20.0101 21.1111 22 19.1212 22 16.6667C22 14.2121 20.0101 12.2222 17.5556 12.2222C15.101 12.2222 13.1111 14.2121 13.1111 16.6667C13.1111 19.1212 15.101 21.1111 17.5556 21.1111Z" fill="url(#paint2_linear_40_58)"/>
<path d="M17.7778 18.8889H17.3333C17.2107 18.8889 17.1111 18.7893 17.1111 18.6667V14.6667C17.1111 14.544 17.2107 14.4444 17.3333 14.4444H17.7778C17.9004 14.4444 18 14.544 18 14.6667V18.6667C18 18.7893 17.9004 18.8889 17.7778 18.8889Z" fill="white"/>
<path d="M15.3333 16.8889V16.4444C15.3333 16.3218 15.4329 16.2222 15.5556 16.2222H19.5556C19.6782 16.2222 19.7778 16.3218 19.7778 16.4444V16.8889C19.7778 17.0116 19.6782 17.1111 19.5556 17.1111H15.5556C15.4329 17.1111 15.3333 17.0116 15.3333 16.8889Z" fill="white"/>
<defs>
<linearGradient id="paint0_linear_40_58" x1="11.3333" y1="2.75911" x2="11.3333" y2="6.43422" gradientUnits="userSpaceOnUse">
<stop stop-color="#EBA600"/>
<stop offset="1" stop-color="#C28200"/>
</linearGradient>
<linearGradient id="paint1_linear_40_58" x1="11.3333" y1="4.60178" x2="11.3333" y2="17.9924" gradientUnits="userSpaceOnUse">
<stop stop-color="#FFD869"/>
<stop offset="1" stop-color="#FEC52B"/>
</linearGradient>
<linearGradient id="paint2_linear_40_58" x1="13.1111" y1="16.6667" x2="22" y2="16.6667" gradientUnits="userSpaceOnUse">
<stop stop-color="#21AD64"/>
<stop offset="1" stop-color="#088242"/>
</linearGradient>
</defs>
</svg>
