<svg width="24" height="24" viewBox="0 0 24 24" fill="none" xmlns="http://www.w3.org/2000/svg">
<path d="M18.1905 2H2.95238C2.42619 2 2 2.42619 2 2.95238V17.2381C2 17.7643 2.42619 18.1905 2.95238 18.1905H18.1905C18.7167 18.1905 19.1429 17.7643 19.1429 17.2381V2.95238C19.1429 2.42619 18.7167 2 18.1905 2Z" fill="url(#paint0_linear_40_65)"/>
<path d="M14.4119 10.1262C13.8648 9.57905 12.9809 9.56714 12.419 10.099L7.71428 14.5562V19.1429H18.1905C18.7167 19.1429 19.1429 18.7167 19.1429 18.1905V14.8571L14.4119 10.1262Z" fill="url(#paint1_linear_40_65)"/>
<path d="M13.6667 7.71429C14.5871 7.71429 15.3333 6.9681 15.3333 6.04762C15.3333 5.12714 14.5871 4.38095 13.6667 4.38095C12.7462 4.38095 12 5.12714 12 6.04762C12 6.9681 12.7462 7.71429 13.6667 7.71429Z" fill="#FFF8DE"/>
<path d="M2.95238 19.1429H18.1905C18.5767 19.1429 18.9081 18.9119 19.0571 18.581L8.69762 8.22146C8.15048 7.67431 7.26667 7.66241 6.70476 8.19431L2 12.6514V18.1905C2 18.7167 2.42619 19.1429 2.95238 19.1429Z" fill="url(#paint2_linear_40_65)"/>
<path opacity="0.3" d="M19.1429 19.1429V11.8557C18.5462 11.6448 17.9071 11.5238 17.2381 11.5238C14.0824 11.5238 11.5238 14.0824 11.5238 17.2381C11.5238 17.9071 11.6448 18.5462 11.8557 19.1429H19.1429Z" fill="url(#paint3_radial_40_65)"/>
<path d="M17.2381 22C19.868 22 22 19.868 22 17.2381C22 14.6082 19.868 12.4762 17.2381 12.4762C14.6082 12.4762 12.4762 14.6082 12.4762 17.2381C12.4762 19.868 14.6082 22 17.2381 22Z" fill="url(#paint4_linear_40_65)"/>
<path d="M17.4762 19.619H17C16.8686 19.619 16.7619 19.5124 16.7619 19.381V15.0952C16.7619 14.9638 16.8686 14.8571 17 14.8571H17.4762C17.6076 14.8571 17.7143 14.9638 17.7143 15.0952V19.381C17.7143 19.5124 17.6076 19.619 17.4762 19.619Z" fill="white"/>
<path d="M14.8571 17.4762V17C14.8571 16.8686 14.9638 16.7619 15.0952 16.7619H19.381C19.5124 16.7619 19.6191 16.8686 19.6191 17V17.4762C19.6191 17.6076 19.5124 17.7143 19.381 17.7143H15.0952C14.9638 17.7143 14.8571 17.6076 14.8571 17.4762Z" fill="white"/>
<defs>
<linearGradient id="paint0_linear_40_65" x1="7.4049" y1="2.24857" x2="15.1433" y2="18.0465" gradientUnits="userSpaceOnUse">
<stop stop-color="#7DD8F3"/>
<stop offset="1" stop-color="#45B0D0"/>
</linearGradient>
<linearGradient id="paint1_linear_40_65" x1="7.71428" y1="14.4252" x2="19.1429" y2="14.4252" gradientUnits="userSpaceOnUse">
<stop stop-color="#3CCBF4"/>
<stop offset="1" stop-color="#1FA0E5"/>
</linearGradient>
<linearGradient id="paint2_linear_40_65" x1="10.5286" y1="7.80289" x2="10.5286" y2="19.1429" gradientUnits="userSpaceOnUse">
<stop stop-color="#28AFEA"/>
<stop offset="1" stop-color="#0B88DA"/>
</linearGradient>
<radialGradient id="paint3_radial_40_65" cx="0" cy="0" r="1" gradientUnits="userSpaceOnUse" gradientTransform="translate(17.2371 17.2533) scale(5.80286)">
<stop offset="0.348"/>
<stop offset="0.936" stop-opacity="0.098"/>
<stop offset="1" stop-opacity="0"/>
</radialGradient>
<linearGradient id="paint4_linear_40_65" x1="12.4762" y1="17.2381" x2="22" y2="17.2381" gradientUnits="userSpaceOnUse">
<stop stop-color="#21AD64"/>
<stop offset="1" stop-color="#088242"/>
</linearGradient>
</defs>
</svg>
