<svg width="24" height="25" viewBox="0 0 24 25" fill="none" xmlns="http://www.w3.org/2000/svg">
<path d="M3.79951 18C2.80575 18 2 17.3733 2 16.6004V5.39962C2 4.6267 2.80575 4 3.79951 4H18.2005C19.1942 4 20 4.6267 20 5.39962V16.6004C20 17.3733 19.1942 18 18.2005 18H3.79951Z" fill="#95B8D6" fill-opacity="0.2"/>
<path d="M14.3663 17.2739H7.99863C7.83517 17.2739 7.68594 17.3615 7.61306 17.5002L6.31917 19.9549C6.17555 20.227 6.38429 20.5469 6.70475 20.5469H15.6602C15.9806 20.5469 16.1894 20.227 16.0457 19.9549L14.7519 17.5002C14.679 17.3615 14.5297 17.2739 14.3663 17.2739Z" fill="#ABABAB"/>
<path d="M10.8552 17.7103C15.1934 17.7103 18.7103 14.1934 18.7103 9.85516C18.7103 5.51687 15.1934 2 10.8552 2C6.51687 2 3 5.51687 3 9.85516C3 14.1934 6.51687 17.7103 10.8552 17.7103Z" fill="url(#paint0_linear_167_5497)"/>
<path d="M10.8552 16.183C14.2294 16.183 16.9647 13.4477 16.9647 10.0734C16.9647 6.69921 14.2294 3.96387 10.8552 3.96387C7.48095 3.96387 4.74561 6.69921 4.74561 10.0734C4.74561 13.4477 7.48095 16.183 10.8552 16.183Z" fill="url(#paint1_radial_167_5497)"/>
<path d="M10.8552 14.6557C13.5063 14.6557 15.6555 12.5065 15.6555 9.8553C15.6555 7.20413 13.5063 5.05493 10.8552 5.05493C8.20398 5.05493 6.05478 7.20413 6.05478 9.8553C6.05478 12.5065 8.20398 14.6557 10.8552 14.6557Z" fill="white"/>
<path d="M10.8552 13.3464C12.7833 13.3464 14.3463 11.7833 14.3463 9.85519C14.3463 7.92707 12.7833 6.36401 10.8552 6.36401C8.92704 6.36401 7.36398 7.92707 7.36398 9.85519C7.36398 11.7833 8.92704 13.3464 10.8552 13.3464Z" fill="url(#paint2_linear_167_5497)"/>
<path d="M22 18C22 20.7613 19.7613 23 17 23C14.2387 23 12 20.7613 12 18C12 15.2387 14.2387 13 17 13C19.7613 13 22 15.2387 22 18Z" fill="url(#paint3_linear_167_5497)"/>
<path opacity="0.05" d="M19.5 17.2502H17.75V15.5002C17.75 15.224 17.5262 15.0002 17.25 15.0002H16.75C16.4737 15.0002 16.25 15.224 16.25 15.5002V17.2502H14.5C14.2237 17.2502 14 17.474 14 17.7502V18.2502C14 18.5265 14.2237 18.7502 14.5 18.7502H16.25V20.5002C16.25 20.7765 16.4737 21.0002 16.75 21.0002H17.25C17.5262 21.0002 17.75 20.7765 17.75 20.5002V18.7502H19.5C19.7762 18.7502 20 18.5265 20 18.2502V17.7502C20 17.474 19.7762 17.2502 19.5 17.2502Z" fill="black"/>
<path opacity="0.07" d="M19.5 17.375H17.625V15.5C17.625 15.293 17.457 15.125 17.25 15.125H16.75C16.543 15.125 16.375 15.293 16.375 15.5V17.375H14.5C14.293 17.375 14.125 17.543 14.125 17.75V18.25C14.125 18.457 14.293 18.625 14.5 18.625H16.375V20.5C16.375 20.707 16.543 20.875 16.75 20.875H17.25C17.457 20.875 17.625 20.707 17.625 20.5V18.625H19.5C19.707 18.625 19.875 18.457 19.875 18.25V17.75C19.875 17.543 19.707 17.375 19.5 17.375Z" fill="black"/>
<path d="M16.75 15.2502H17.25C17.388 15.2502 17.5 15.3622 17.5 15.5002V20.5002C17.5 20.6382 17.388 20.7502 17.25 20.7502H16.75C16.612 20.7502 16.5 20.6382 16.5 20.5002V15.5002C16.5 15.3622 16.612 15.2502 16.75 15.2502Z" fill="white"/>
<path d="M19.75 17.7498V18.2498C19.75 18.3878 19.638 18.4998 19.5 18.4998H14.5C14.362 18.4998 14.25 18.3878 14.25 18.2498V17.7498C14.25 17.6118 14.362 17.4998 14.5 17.4998H19.5C19.638 17.4998 19.75 17.6118 19.75 17.7498Z" fill="white"/>
<defs>
<linearGradient id="paint0_linear_167_5497" x1="10.8552" y1="2.75715" x2="10.8552" y2="18.4675" gradientUnits="userSpaceOnUse">
<stop stop-color="#889097"/>
<stop offset="1" stop-color="#64717C"/>
</linearGradient>
<radialGradient id="paint1_radial_167_5497" cx="0" cy="0" r="1" gradientUnits="userSpaceOnUse" gradientTransform="translate(10.8552 10.0734) scale(6.10957)">
<stop stop-color="white"/>
<stop offset="1" stop-opacity="0"/>
</radialGradient>
<linearGradient id="paint2_linear_167_5497" x1="11.437" y1="14.801" x2="10.2733" y2="5.49122" gradientUnits="userSpaceOnUse">
<stop stop-color="#397CBA"/>
<stop offset="1" stop-color="#3B83C7" stop-opacity="0.34"/>
</linearGradient>
<linearGradient id="paint3_linear_167_5497" x1="13.4645" y1="14.4645" x2="20.5355" y2="21.5355" gradientUnits="userSpaceOnUse">
<stop stop-color="#21AD64"/>
<stop offset="1" stop-color="#088242"/>
</linearGradient>
</defs>
</svg>
