<svg width="25" height="26" viewBox="0 0 25 26" fill="none" xmlns="http://www.w3.org/2000/svg">
<g id="add-user-call">
<g id="Group 33">
<g id="Group 31">
<path id="Vector" d="M4.49959 20C3.67146 20 3 19.4181 3 18.7004V8.29965C3 7.58193 3.67146 7 4.49959 7H16.5004C17.3285 7 18 7.58193 18 8.29965V18.7004C18 19.4181 17.3285 20 16.5004 20H4.49959Z" fill="#95B8D6" fill-opacity="0.2"/>
<path id="Vector_2" d="M17.0347 7.01011C17.0347 8.67162 15.6871 10.0171 14.0278 10.0171C12.3663 10.0171 11.0208 8.67162 11.0208 7.01011C11.0208 5.35074 12.3663 4.00317 14.0278 4.00317C15.6871 4.00317 17.0347 5.35074 17.0347 7.01011Z" fill="url(#paint0_linear_167_5461)"/>
<path id="Vector_3" d="M14.0278 11.0208C11.26 11.0208 9.01549 13.2076 9.01549 15.907V20.9599C9.01549 21.56 9.51309 22.0448 10.1281 22.0448H17.9253C18.5403 22.0448 19.0379 21.56 19.0379 20.9599V15.907C19.0379 13.2076 16.7955 11.0208 14.0278 11.0208Z" fill="url(#paint1_linear_167_5461)"/>
<path id="Vector_4" d="M10.0171 5.00694C10.0171 6.66631 8.67165 8.01388 7.01015 8.01388C5.35078 8.01388 4.0032 6.66631 4.0032 5.00694C4.0032 3.34543 5.35078 2 7.01015 2C8.67165 2 10.0171 3.34543 10.0171 5.00694Z" fill="url(#paint2_linear_167_5461)"/>
<path id="Vector_5" d="M7.01014 9.01538C4.24239 9.01538 2 11.2022 2 13.9017V20.9599C2 21.56 2.4976 22.0447 3.11265 22.0447H10.9098C11.5248 22.0447 12.0224 21.56 12.0224 20.9599V13.9017C12.0224 11.2022 9.7779 9.01538 7.01014 9.01538Z" fill="url(#paint3_linear_167_5461)"/>
<path id="Vector_6" opacity="0.05" d="M19.8131 18.4736H18.2823V16.9427C18.2823 16.7011 18.0866 16.5054 17.845 16.5054H17.4076C17.1659 16.5054 16.9702 16.7011 16.9702 16.9427V18.4736H15.4394C15.1978 18.4736 15.002 18.6693 15.002 18.9109V19.3483C15.002 19.5899 15.1978 19.7857 15.4394 19.7857H16.9702V21.3165C16.9702 21.5581 17.1659 21.7538 17.4076 21.7538H17.845C18.0866 21.7538 18.2823 21.5581 18.2823 21.3165V19.7857H19.8131C20.0548 19.7857 20.2505 19.5899 20.2505 19.3483V18.9109C20.2505 18.6693 20.0548 18.4736 19.8131 18.4736Z" fill="black"/>
<path id="Vector_7" opacity="0.07" d="M19.8131 18.5832H18.173V16.943C18.173 16.7619 18.026 16.615 17.845 16.615H17.4076C17.2265 16.615 17.0796 16.7619 17.0796 16.943V18.5832H15.4394C15.2583 18.5832 15.1114 18.7301 15.1114 18.9112V19.3486C15.1114 19.5296 15.2583 19.6766 15.4394 19.6766H17.0796V21.3168C17.0796 21.4978 17.2265 21.6448 17.4076 21.6448H17.845C18.026 21.6448 18.173 21.4978 18.173 21.3168V19.6766H19.8131C19.9942 19.6766 20.1412 19.5296 20.1412 19.3486V18.9112C20.1412 18.7301 19.9942 18.5832 19.8131 18.5832Z" fill="black"/>
<g id="Group 32">
<path id="Vector_8" d="M23 19C23 21.7613 20.7613 24 18 24C15.2387 24 13 21.7613 13 19C13 16.2387 15.2387 14 18 14C20.7613 14 23 16.2387 23 19Z" fill="url(#paint4_linear_167_5461)"/>
<path id="Vector_9" d="M17.75 16.2498H18.25C18.388 16.2498 18.5 16.3618 18.5 16.4998V21.4998C18.5 21.6378 18.388 21.7498 18.25 21.7498H17.75C17.612 21.7498 17.5 21.6378 17.5 21.4998V16.4998C17.5 16.3618 17.612 16.2498 17.75 16.2498Z" fill="white"/>
<path id="Vector_10" d="M20.75 18.75V19.25C20.75 19.388 20.638 19.5 20.5 19.5H15.5C15.362 19.5 15.25 19.388 15.25 19.25V18.75C15.25 18.612 15.362 18.5 15.5 18.5H20.5C20.638 18.5 20.75 18.612 20.75 18.75Z" fill="white"/>
</g>
</g>
</g>
</g>
<defs>
<linearGradient id="paint0_linear_167_5461" x1="11.9874" y1="4.97063" x2="16.1826" y2="9.16633" gradientUnits="userSpaceOnUse">
<stop stop-color="#D0D0D0"/>
<stop offset="1" stop-color="#A4A6A8"/>
</linearGradient>
<linearGradient id="paint1_linear_167_5461" x1="12.6775" y1="11.5007" x2="15.0159" y2="23.1907" gradientUnits="userSpaceOnUse">
<stop stop-color="#C5C5C5"/>
<stop offset="1" stop-color="#A4A6A8"/>
</linearGradient>
<linearGradient id="paint2_linear_167_5461" x1="4.97117" y1="2.96603" x2="9.16636" y2="7.16172" gradientUnits="userSpaceOnUse">
<stop stop-color="white"/>
<stop offset="1" stop-color="#BABABA"/>
</linearGradient>
<linearGradient id="paint3_linear_167_5461" x1="5.47884" y1="9.58522" x2="8.20965" y2="23.2393" gradientUnits="userSpaceOnUse">
<stop stop-color="#E2E2E2"/>
<stop offset="1" stop-color="#BABABA"/>
</linearGradient>
<linearGradient id="paint4_linear_167_5461" x1="14.4645" y1="15.4645" x2="21.5355" y2="22.5355" gradientUnits="userSpaceOnUse">
<stop stop-color="#21AD64"/>
<stop offset="1" stop-color="#088242"/>
</linearGradient>
</defs>
</svg>
