<svg width="25" height="25" viewBox="0 0 25 25" fill="none" xmlns="http://www.w3.org/2000/svg">
<path d="M4.72104 19.6427C3.85185 19.6427 3.14709 18.9379 3.14709 18.0687V5.47287C3.14709 4.60368 3.85185 3.89893 4.72104 3.89893H17.3169C18.1861 3.89893 18.8908 4.60368 18.8908 5.47287V18.0687C18.8908 18.9379 18.1861 19.6427 17.3169 19.6427H4.72104Z" fill="#95B8D6" fill-opacity="0.57"/>
<path d="M17.5347 6.75841C17.5347 8.41991 16.1871 9.76535 14.5278 9.76535C12.8663 9.76535 11.5208 8.41991 11.5208 6.75841C11.5208 5.09904 12.8663 3.75146 14.5278 3.75146C16.1871 3.75146 17.5347 5.09904 17.5347 6.75841Z" fill="url(#paint0_linear_166_5429)"/>
<path d="M14.5278 10.769C11.76 10.769 9.51549 12.9559 9.51549 15.6553V20.7082C9.51549 21.3083 10.0131 21.7931 10.6281 21.7931H18.4253C19.0403 21.7931 19.5379 21.3083 19.5379 20.7082V15.6553C19.5379 12.9559 17.2955 10.769 14.5278 10.769Z" fill="url(#paint1_linear_166_5429)"/>
<path d="M10.5171 4.75523C10.5171 6.4146 9.17165 7.76217 7.51015 7.76217C5.85078 7.76217 4.5032 6.4146 4.5032 4.75523C4.5032 3.09373 5.85078 1.74829 7.51015 1.74829C9.17165 1.74829 10.5171 3.09373 10.5171 4.75523Z" fill="url(#paint2_linear_166_5429)"/>
<path d="M7.51014 8.76367C4.74239 8.76367 2.5 10.9505 2.5 13.65V20.7081C2.5 21.3083 2.9976 21.793 3.61265 21.793H11.4098C12.0248 21.793 12.5224 21.3083 12.5224 20.7081V13.65C12.5224 10.9505 10.2779 8.76367 7.51014 8.76367Z" fill="url(#paint3_linear_166_5429)"/>
<path d="M22.5 18.8781C22.5 21.2935 20.5417 23.2519 18.1263 23.2519C15.7109 23.2519 13.7525 21.2935 13.7525 18.8781C13.7525 16.4627 15.7109 14.5044 18.1263 14.5044C20.5417 14.5044 22.5 16.4627 22.5 18.8781Z" fill="url(#paint4_linear_166_5429)"/>
<path opacity="0.05" d="M20.3131 18.2218H18.7823V16.691C18.7823 16.4494 18.5866 16.2537 18.345 16.2537H17.9076C17.6659 16.2537 17.4702 16.4494 17.4702 16.691V18.2218H15.9394C15.6978 18.2218 15.502 18.4176 15.502 18.6592V19.0966C15.502 19.3382 15.6978 19.534 15.9394 19.534H17.4702V21.0648C17.4702 21.3064 17.6659 21.5021 17.9076 21.5021H18.345C18.5866 21.5021 18.7823 21.3064 18.7823 21.0648V19.534H20.3131C20.5548 19.534 20.7505 19.3382 20.7505 19.0966V18.6592C20.7505 18.4176 20.5548 18.2218 20.3131 18.2218Z" fill="black"/>
<path opacity="0.07" d="M20.3131 18.3315H18.673V16.6913C18.673 16.5102 18.526 16.3633 18.345 16.3633H17.9076C17.7265 16.3633 17.5796 16.5102 17.5796 16.6913V18.3315H15.9394C15.7583 18.3315 15.6114 18.4784 15.6114 18.6595V19.0969C15.6114 19.2779 15.7583 19.4249 15.9394 19.4249H17.5796V21.065C17.5796 21.2461 17.7265 21.3931 17.9076 21.3931H18.345C18.526 21.3931 18.673 21.2461 18.673 21.065V19.4249H20.3131C20.4942 19.4249 20.6412 19.2779 20.6412 19.0969V18.6595C20.6412 18.4784 20.4942 18.3315 20.3131 18.3315Z" fill="black"/>
<path d="M17.9076 16.4724H18.3449C18.4657 16.4724 18.5636 16.5704 18.5636 16.6911V21.0648C18.5636 21.1855 18.4657 21.2835 18.3449 21.2835H17.9076C17.7869 21.2835 17.6889 21.1855 17.6889 21.0648V16.6911C17.6889 16.5704 17.7869 16.4724 17.9076 16.4724Z" fill="white"/>
<path d="M20.5318 18.6594V19.0967C20.5318 19.2174 20.4339 19.3154 20.3131 19.3154H15.9394C15.8187 19.3154 15.7207 19.2174 15.7207 19.0967V18.6594C15.7207 18.5386 15.8187 18.4407 15.9394 18.4407H20.3131C20.4339 18.4407 20.5318 18.5386 20.5318 18.6594Z" fill="white"/>
<defs>
<linearGradient id="paint0_linear_166_5429" x1="12.4874" y1="4.71892" x2="16.6826" y2="8.91462" gradientUnits="userSpaceOnUse">
<stop stop-color="#D0D0D0"/>
<stop offset="1" stop-color="#A4A6A8"/>
</linearGradient>
<linearGradient id="paint1_linear_166_5429" x1="13.1775" y1="11.249" x2="15.5159" y2="22.939" gradientUnits="userSpaceOnUse">
<stop stop-color="#C5C5C5"/>
<stop offset="1" stop-color="#A4A6A8"/>
</linearGradient>
<linearGradient id="paint2_linear_166_5429" x1="5.47117" y1="2.71432" x2="9.66636" y2="6.91001" gradientUnits="userSpaceOnUse">
<stop stop-color="white"/>
<stop offset="1" stop-color="#BABABA"/>
</linearGradient>
<linearGradient id="paint3_linear_166_5429" x1="5.97884" y1="9.33351" x2="8.70965" y2="22.9876" gradientUnits="userSpaceOnUse">
<stop stop-color="#E2E2E2"/>
<stop offset="1" stop-color="#BABABA"/>
</linearGradient>
<linearGradient id="paint4_linear_166_5429" x1="15.0336" y1="15.7855" x2="21.2189" y2="21.9708" gradientUnits="userSpaceOnUse">
<stop stop-color="#21AD64"/>
<stop offset="1" stop-color="#088242"/>
</linearGradient>
</defs>
</svg>
