<svg width="24" height="26" viewBox="0 0 24 26" fill="none" xmlns="http://www.w3.org/2000/svg">
<path d="M5.49959 20C4.67146 20 4 19.3733 4 18.6004V7.39962C4 6.6267 4.67146 6 5.49959 6H17.5004C18.3285 6 19 6.6267 19 7.39962V18.6004C19 19.3733 18.3285 20 17.5004 20H5.49959Z" fill="#95B8D6" fill-opacity="0.2"/>
<path d="M20.8872 3.52782C20.8872 3.52782 18.935 3.36038 17.4055 4.12206C15.8761 4.88373 12.7313 6.97886 13.2582 7.80383C13.7748 7.41585 14.3547 7.67723 14.6386 7.96924C14.8203 8.15915 15.6637 9.04947 16.2314 9.65187C16.5479 9.98676 17.0482 10.0664 17.4525 9.84382L21.3405 7.71399C21.7632 7.48119 21.9633 6.98498 21.8204 6.52757L20.8872 3.52782Z" fill="#ABABAB"/>
<path d="M3.52793 20.8871C3.52793 20.8871 3.36048 18.9349 4.12216 17.4054C4.88384 15.8759 6.97896 12.7312 7.80394 13.258C7.41596 13.7747 7.67734 14.3546 7.96935 14.6385C8.15925 14.8202 9.04958 15.6635 9.65198 16.2312C9.98687 16.5477 10.0665 17.048 9.84393 17.4524L7.71409 21.3404C7.4813 21.7631 6.98509 21.9632 6.52767 21.8203L3.52793 20.8871Z" fill="#ABABAB"/>
<path d="M10.3565 10.3565C7.26483 13.4501 4.99818 17.0502 3.52791 20.8872L2.55999 20.3277C2.08828 20.052 1.87387 19.4741 2.07603 18.9657C3.55038 15.2573 5.78232 11.7818 8.78206 8.78206C11.7818 5.78232 15.2573 3.55038 18.9657 2.07603C19.4741 1.87387 20.0541 2.08828 20.3277 2.55999L20.8872 3.52791C17.0502 4.99818 13.4501 7.26483 10.3565 10.3565Z" fill="#EDEDED"/>
<path d="M10.3565 10.3565C7.26483 13.4501 4.99818 17.0502 3.52791 20.8872L2.55999 20.3277C2.08828 20.052 1.87387 19.4741 2.07603 18.9657C3.55038 15.2573 5.78232 11.7818 8.78206 8.78206C11.7818 5.78232 15.2573 3.55038 18.9657 2.07603C19.4741 1.87387 20.0541 2.08828 20.3277 2.55999L20.8872 3.52791C17.0502 4.99818 13.4501 7.26483 10.3565 10.3565Z" fill="url(#paint0_linear_167_5496)" fill-opacity="0.2"/>
<path d="M22 19C22 21.7613 19.7613 24 17 24C14.2387 24 12 21.7613 12 19C12 16.2387 14.2387 14 17 14C19.7613 14 22 16.2387 22 19Z" fill="url(#paint1_linear_167_5496)"/>
<path opacity="0.05" d="M19.5 18.25H17.75V16.5C17.75 16.2237 17.5263 16 17.25 16H16.75C16.4737 16 16.25 16.2237 16.25 16.5V18.25H14.5C14.2237 18.25 14 18.4737 14 18.75V19.25C14 19.5263 14.2237 19.75 14.5 19.75H16.25V21.5C16.25 21.7763 16.4737 22 16.75 22H17.25C17.5263 22 17.75 21.7763 17.75 21.5V19.75H19.5C19.7763 19.75 20 19.5263 20 19.25V18.75C20 18.4737 19.7763 18.25 19.5 18.25Z" fill="black"/>
<path opacity="0.07" d="M19.5 18.3752H17.625V16.5002C17.625 16.2932 17.457 16.1252 17.25 16.1252H16.75C16.543 16.1252 16.375 16.2932 16.375 16.5002V18.3752H14.5C14.293 18.3752 14.125 18.5432 14.125 18.7502V19.2502C14.125 19.4572 14.293 19.6252 14.5 19.6252H16.375V21.5002C16.375 21.7072 16.543 21.8752 16.75 21.8752H17.25C17.457 21.8752 17.625 21.7072 17.625 21.5002V19.6252H19.5C19.707 19.6252 19.875 19.4572 19.875 19.2502V18.7502C19.875 18.5432 19.707 18.3752 19.5 18.3752Z" fill="black"/>
<path d="M16.75 16.2502H17.25C17.388 16.2502 17.5 16.3622 17.5 16.5002V21.5002C17.5 21.6382 17.388 21.7502 17.25 21.7502H16.75C16.612 21.7502 16.5 21.6382 16.5 21.5002V16.5002C16.5 16.3622 16.612 16.2502 16.75 16.2502Z" fill="white"/>
<path d="M19.75 18.75V19.25C19.75 19.388 19.638 19.5 19.5 19.5H14.5C14.362 19.5 14.25 19.388 14.25 19.25V18.75C14.25 18.612 14.362 18.5 14.5 18.5H19.5C19.638 18.5 19.75 18.612 19.75 18.75Z" fill="white"/>
<defs>
<linearGradient id="paint0_linear_167_5496" x1="22.4181" y1="3.65552" x2="2" y2="21.3144" gradientUnits="userSpaceOnUse">
<stop stop-color="white"/>
<stop offset="0.9999" stop-color="white" stop-opacity="0.55"/>
<stop offset="1" stop-opacity="0"/>
</linearGradient>
<linearGradient id="paint1_linear_167_5496" x1="13.4645" y1="15.4645" x2="20.5355" y2="22.5355" gradientUnits="userSpaceOnUse">
<stop stop-color="#21AD64"/>
<stop offset="1" stop-color="#088242"/>
</linearGradient>
</defs>
</svg>
