<svg width="24" height="24" viewBox="0 0 24 24" fill="none" xmlns="http://www.w3.org/2000/svg">
<path d="M22 12C22 17.5225 17.5225 22 12 22C6.4775 22 2 17.5225 2 12C2 6.4775 6.4775 2 12 2C17.5225 2 22 6.4775 22 12Z" fill="url(#paint0_linear_40_6030)"/>
<path opacity="0.05" d="M17 10.5H13.5V7C13.5 6.4475 13.0525 6 12.5 6H11.5C10.9475 6 10.5 6.4475 10.5 7V10.5H7C6.4475 10.5 6 10.9475 6 11.5V12.5C6 13.0525 6.4475 13.5 7 13.5H10.5V17C10.5 17.5525 10.9475 18 11.5 18H12.5C13.0525 18 13.5 17.5525 13.5 17V13.5H17C17.5525 13.5 18 13.0525 18 12.5V11.5C18 10.9475 17.5525 10.5 17 10.5Z" fill="black"/>
<path opacity="0.07" d="M17 10.75H13.25V7C13.25 6.586 12.914 6.25 12.5 6.25H11.5C11.086 6.25 10.75 6.586 10.75 7V10.75H7C6.586 10.75 6.25 11.086 6.25 11.5V12.5C6.25 12.914 6.586 13.25 7 13.25H10.75V17C10.75 17.414 11.086 17.75 11.5 17.75H12.5C12.914 17.75 13.25 17.414 13.25 17V13.25H17C17.414 13.25 17.75 12.914 17.75 12.5V11.5C17.75 11.086 17.414 10.75 17 10.75Z" fill="black"/>
<path d="M11.5 6.5H12.5C12.776 6.5 13 6.724 13 7V17C13 17.276 12.776 17.5 12.5 17.5H11.5C11.224 17.5 11 17.276 11 17V7C11 6.724 11.224 6.5 11.5 6.5Z" fill="white"/>
<path d="M17.5 11.5V12.5C17.5 12.776 17.276 13 17 13H7C6.724 13 6.5 12.776 6.5 12.5V11.5C6.5 11.224 6.724 11 7 11H17C17.276 11 17.5 11.224 17.5 11.5Z" fill="white"/>
<defs>
<linearGradient id="paint0_linear_40_6030" x1="4.929" y1="4.929" x2="19.071" y2="19.071" gradientUnits="userSpaceOnUse">
<stop stop-color="#21AD64"/>
<stop offset="1" stop-color="#088242"/>
</linearGradient>
</defs>
</svg>
