<svg width="24" height="24" viewBox="0 0 24 24" fill="none" xmlns="http://www.w3.org/2000/svg">
<path d="M20.5 3V21C20.5 21.5525 20.0525 22 19.5 22H17V2H19.5C20.0525 2 20.5 2.4475 20.5 3Z" fill="#1783BD"/>
<path d="M19.5 3V21C19.5 21.5525 19.0525 22 18.5 22H15.5V2H18.5C19.0525 2 19.5 2.4475 19.5 3Z" fill="url(#paint0_linear_40_75)"/>
<path d="M3.5 3V21C3.5 21.5525 3.9475 22 4.5 22H5.5V2H4.5C3.9475 2 3.5 2.4475 3.5 3Z" fill="url(#paint1_linear_40_75)"/>
<path d="M17.5 2H5.5V22H17.5C18.0525 22 18.5 21.5525 18.5 21V3C18.5 2.4475 18.0525 2 17.5 2Z" fill="url(#paint2_linear_40_75)"/>
<path d="M12.7625 13.7635H12.7305C12.4815 14.4425 12.0305 14.782 11.376 14.782C10.8855 14.782 9.739 14.5725 9.739 12.772C9.739 11.113 10.663 10.021 11.8665 10.021C12.396 10.021 12.7285 10.229 12.8635 10.645H12.885L12.9385 10.117H14.138C13.978 11.631 13.898 12.621 13.898 13.087C13.898 13.5845 14.033 13.8335 14.303 13.8335C14.5875 13.8335 15.284 13.5125 15.284 11.7915C15.284 10.9595 14.8885 8.9495 12.2715 8.9495C10.371 8.9495 8.726 10.4375 8.726 12.607C8.726 14.0705 9.5035 15.7955 12.085 15.7955C12.885 15.7955 13.617 15.6425 14.2815 15.337V16.3555C13.6735 16.615 12.8915 16.7445 11.9355 16.7445C9.907 16.7445 7.4995 15.6595 7.4995 12.5855C7.5 10.2825 9.126 8 12.208 8C14.3955 8 16.5 9.195 16.5 11.732C16.5 13.4925 15.506 14.782 13.978 14.782C13.016 14.782 12.7525 14.077 12.7625 13.7635ZM12.0535 10.9485C11.1875 10.9485 10.971 12.2155 10.971 12.7615C10.971 13.6975 11.49 13.844 11.707 13.844C12.178 13.844 12.784 13.4115 12.784 11.866C12.784 11.5815 12.7175 11.3575 12.584 11.194C12.4505 11.03 12.2735 10.9485 12.0535 10.9485Z" fill="white"/>
<defs>
<linearGradient id="paint0_linear_40_75" x1="17.486" y1="12.0005" x2="19.057" y2="12.0005" gradientUnits="userSpaceOnUse">
<stop offset="0.441" stop-color="#999998"/>
<stop offset="0.653" stop-color="#C1C1C0"/>
<stop offset="0.88" stop-color="#E5E5E5"/>
<stop offset="1" stop-color="#F3F3F3"/>
</linearGradient>
<linearGradient id="paint1_linear_40_75" x1="1.819" y1="4.286" x2="7.8455" y2="20.7025" gradientUnits="userSpaceOnUse">
<stop stop-color="#0176D0"/>
<stop offset="1" stop-color="#16538C"/>
</linearGradient>
<linearGradient id="paint2_linear_40_75" x1="8.39" y1="2.577" x2="15.6075" y2="22.2375" gradientUnits="userSpaceOnUse">
<stop stop-color="#33BEF0"/>
<stop offset="1" stop-color="#22A5E2"/>
</linearGradient>
</defs>
</svg>
