<svg width="24" height="24" viewBox="0 0 24 24" fill="none" xmlns="http://www.w3.org/2000/svg">
<path d="M22 5V7.5H2V5C2 4.45 2.45 4 3 4H21C21.55 4 22 4.45 22 5Z" fill="url(#paint0_linear_40_128)"/>
<path d="M2 19V7H22V19C22 19.55 21.55 20 21 20H3C2.45 20 2 19.55 2 19Z" fill="url(#paint1_linear_40_128)"/>
<path d="M12.5 15H11.5C11.224 15 11 14.776 11 14.5V9.5C11 9.224 11.224 9 11.5 9H12.5C12.776 9 13 9.224 13 9.5V14.5C13 14.776 12.776 15 12.5 15Z" fill="url(#paint2_linear_40_128)"/>
<path d="M8 12.5H7C6.724 12.5 6.5 12.276 6.5 12V9.5C6.5 9.224 6.724 9 7 9H8C8.276 9 8.5 9.224 8.5 9.5V12C8.5 12.276 8.276 12.5 8 12.5Z" fill="url(#paint3_linear_40_128)"/>
<path d="M17.5 11H16.5C16.224 11 16 10.776 16 10.5V9.5C16 9.224 16.224 9 16.5 9H17.5C17.776 9 18 9.224 18 9.5V10.5C18 10.776 17.776 11 17.5 11Z" fill="url(#paint4_linear_40_128)"/>
<path d="M8.9225 13.5H6.077C5.7585 13.5 5.5 13.2415 5.5 12.9225V12.077C5.5 11.7585 5.7585 11.5 6.0775 11.5H8.923C9.2415 11.5 9.5 11.7585 9.5 12.0775V12.923C9.5 13.2415 9.2415 13.5 8.9225 13.5Z" fill="url(#paint5_linear_40_128)"/>
<path d="M18.4225 12.5H15.577C15.2585 12.5 15 12.2415 15 11.9225V11.077C15 10.7585 15.2585 10.5 15.5775 10.5H18.423C18.7415 10.5 19 10.7585 19 11.0775V11.923C19 12.2415 18.7415 12.5 18.4225 12.5Z" fill="url(#paint6_linear_40_128)"/>
<path d="M6.5 13.5V17.5C6.5 17.776 6.724 18 7 18H8C8.276 18 8.5 17.776 8.5 17.5V13.5H6.5Z" fill="url(#paint7_linear_40_128)"/>
<path d="M11 14V17.5C11 17.776 11.224 18 11.5 18H12.5C12.776 18 13 17.776 13 17.5V14H11Z" fill="url(#paint8_linear_40_128)"/>
<path d="M16 12.5V17.5C16 17.776 16.224 18 16.5 18H17.5C17.776 18 18 17.776 18 17.5V12.5H16Z" fill="url(#paint9_linear_40_128)"/>
<path d="M13.4225 16H10.577C10.2585 16 10 15.7415 10 15.4225V14.577C10 14.2585 10.2585 14 10.5775 14H13.423C13.7415 14 14 14.2585 14 14.5775V15.423C14 15.7415 13.7415 16 13.4225 16Z" fill="url(#paint10_linear_40_128)"/>
<defs>
<linearGradient id="paint0_linear_40_128" x1="2.307" y1="3.8705" x2="21.468" y2="7.7665" gradientUnits="userSpaceOnUse">
<stop stop-color="#0077D2"/>
<stop offset="1" stop-color="#0B59A2"/>
</linearGradient>
<linearGradient id="paint1_linear_40_128" x1="6.43083" y1="5.06335" x2="13.4421" y2="20.8979" gradientUnits="userSpaceOnUse">
<stop stop-color="#FCFCFC"/>
<stop offset="0.95" stop-color="#C3C9CD"/>
</linearGradient>
<linearGradient id="paint2_linear_40_128" x1="12" y1="8.9895" x2="12" y2="13.907" gradientUnits="userSpaceOnUse">
<stop stop-color="#0D61A9"/>
<stop offset="1" stop-color="#16528C"/>
</linearGradient>
<linearGradient id="paint3_linear_40_128" x1="7.5" y1="9.053" x2="7.5" y2="11.4025" gradientUnits="userSpaceOnUse">
<stop stop-color="#0D61A9"/>
<stop offset="1" stop-color="#16528C"/>
</linearGradient>
<linearGradient id="paint4_linear_40_128" x1="17" y1="9.069" x2="17" y2="10.478" gradientUnits="userSpaceOnUse">
<stop stop-color="#0D61A9"/>
<stop offset="1" stop-color="#16528C"/>
</linearGradient>
<linearGradient id="paint5_linear_40_128" x1="7.5" y1="11.5265" x2="7.5" y2="13.384" gradientUnits="userSpaceOnUse">
<stop stop-color="#2AA4F4"/>
<stop offset="1" stop-color="#007AD9"/>
</linearGradient>
<linearGradient id="paint6_linear_40_128" x1="17" y1="10.569" x2="17" y2="12.5815" gradientUnits="userSpaceOnUse">
<stop stop-color="#2AA4F4"/>
<stop offset="1" stop-color="#007AD9"/>
</linearGradient>
<linearGradient id="paint7_linear_40_128" x1="7.5" y1="13.33" x2="7.5" y2="17.9825" gradientUnits="userSpaceOnUse">
<stop stop-color="#2AA4F4"/>
<stop offset="1" stop-color="#007AD9"/>
</linearGradient>
<linearGradient id="paint8_linear_40_128" x1="12" y1="15.101" x2="12" y2="17.8045" gradientUnits="userSpaceOnUse">
<stop stop-color="#2AA4F4"/>
<stop offset="1" stop-color="#007AD9"/>
</linearGradient>
<linearGradient id="paint9_linear_40_128" x1="17" y1="12.436" x2="17" y2="18.278" gradientUnits="userSpaceOnUse">
<stop stop-color="#2AA4F4"/>
<stop offset="1" stop-color="#007AD9"/>
</linearGradient>
<linearGradient id="paint10_linear_40_128" x1="12" y1="13.8405" x2="12" y2="16.1335" gradientUnits="userSpaceOnUse">
<stop stop-color="#2AA4F4"/>
<stop offset="1" stop-color="#007AD9"/>
</linearGradient>
</defs>
</svg>
