<svg width="24" height="24" viewBox="0 0 24 24" fill="none" xmlns="http://www.w3.org/2000/svg">
<path d="M12 15.1133C7.46821 15.1133 3.79488 17.6369 3.79488 20.3882V20.9744C3.79488 21.541 4.25385 22 4.82052 22H19.1795C19.7462 22 20.2051 21.541 20.2051 20.9744V20.3882C20.2051 17.6369 16.5318 15.1133 12 15.1133Z" fill="url(#paint0_linear_40_150)"/>
<path d="M14.5641 14.861C14.5641 18.9185 12 20.9744 12 20.9744C12 20.9744 9.4359 18.9185 9.4359 14.861C9.4359 13.5087 9.4359 12.7692 9.4359 12.7692H14.5641C14.5641 12.7692 14.5641 13.5087 14.5641 14.861Z" fill="white"/>
<path d="M14.5641 14.861C14.5641 18.9185 12 20.9744 12 20.9744C12 20.9744 9.4359 18.9185 9.4359 14.861C9.4359 13.5087 9.4359 12.7692 9.4359 12.7692H14.5641C14.5641 12.7692 14.5641 13.5087 14.5641 14.861Z" fill="white"/>
<path d="M14.5641 14.8205C14.5641 15.7933 12 16.8718 12 16.8718C12 16.8718 9.4359 15.7933 9.4359 14.8205C9.4359 13.4682 9.4359 11.2128 9.4359 11.2128H14.5641C14.5641 11.2128 14.5641 13.4682 14.5641 14.8205Z" fill="#D6A121"/>
<path d="M10.9744 17.3846L11.4872 17.8974L11.0867 19.9728C11.5831 20.6354 12 20.9744 12 20.9744C12 20.9744 12.4169 20.6354 12.9133 19.9728L12.5128 17.8974L13.0256 17.3846L12 16.8718L10.9744 17.3846Z" fill="#D32F2F"/>
<path d="M16.5723 8.66667H16.3021V10.7179H16.6626C16.9267 10.7179 17.1518 10.5579 17.1964 10.3385L17.3728 9.46513C17.4574 9.04769 17.0754 8.66667 16.5723 8.66667Z" fill="url(#paint1_linear_40_150)"/>
<path d="M7.42769 8.66667H7.69795V10.7179H7.33744C7.07333 10.7179 6.84821 10.5579 6.80359 10.3385L6.62718 9.46513C6.54257 9.04769 6.92462 8.66667 7.42769 8.66667Z" fill="url(#paint2_linear_40_150)"/>
<path d="M12 2.7179C9.72256 2.7179 7.38461 3.06405 7.38461 7.98713C7.38461 8.38097 7.38461 11.001 7.38461 11.4221C7.38461 13.1795 10.1538 15.3333 12 15.3333C13.8462 15.3333 16.6154 13.1795 16.6154 11.4221C16.6154 11.001 16.6154 8.38149 16.6154 7.98713C16.6154 3.06405 14.2774 2.7179 12 2.7179Z" fill="url(#paint3_radial_40_150)"/>
<path d="M12 2.27945C9.76718 2.27945 9.4359 3.11842 9.4359 3.11842C8.52821 3.25227 6.8718 4.58201 6.8718 6.10201C6.8718 6.95022 7.00769 7.57688 7.38462 9.69175C7.6641 6.33534 8.53795 5.07637 9.4359 5.07637C10.0856 5.07637 10.6015 5.58919 12 5.58919C13.181 5.58919 13.4744 5.07637 14.5641 5.07637C16.1026 5.07637 16.6154 9.16252 16.6154 9.69175C16.9236 8.14816 17.1282 6.84304 17.1282 6.10201C17.1282 4.34355 15.1841 2.27945 12 2.27945Z" fill="url(#paint4_radial_40_150)"/>
<path d="M12.1123 2C9.97693 2 9.43744 3.11897 9.43744 3.11897C9.4159 3.71333 9.70513 4.23795 9.70513 4.23795C9.70513 4.23795 10.0949 5.07692 12.3205 5.07692C13.6641 5.07692 15.5897 4.23846 15.5897 2C15.5897 2 15.1574 2 12.1123 2Z" fill="url(#paint5_radial_40_150)"/>
<defs>
<linearGradient id="paint0_linear_40_150" x1="7.27488" y1="15.4292" x2="16.6544" y2="24.8087" gradientUnits="userSpaceOnUse">
<stop stop-color="#0D61A9"/>
<stop offset="1" stop-color="#16528C"/>
</linearGradient>
<linearGradient id="paint1_linear_40_150" x1="16.5728" y1="9.69231" x2="17.2569" y2="9.69231" gradientUnits="userSpaceOnUse">
<stop stop-color="#C48F0C"/>
<stop offset="0.251" stop-color="#D19B16"/>
<stop offset="0.619" stop-color="#DCA51F"/>
<stop offset="1" stop-color="#E0A922"/>
</linearGradient>
<linearGradient id="paint2_linear_40_150" x1="7.42718" y1="9.69231" x2="6.74308" y2="9.69231" gradientUnits="userSpaceOnUse">
<stop stop-color="#C48F0C"/>
<stop offset="0.251" stop-color="#D19B16"/>
<stop offset="0.619" stop-color="#DCA51F"/>
<stop offset="1" stop-color="#E0A922"/>
</linearGradient>
<radialGradient id="paint3_radial_40_150" cx="0" cy="0" r="1" gradientUnits="userSpaceOnUse" gradientTransform="translate(11.9993 9.02512) scale(5.5265)">
<stop stop-color="#FFCF54"/>
<stop offset="0.261" stop-color="#FDCB4D"/>
<stop offset="0.639" stop-color="#F7C13A"/>
<stop offset="1" stop-color="#F0B421"/>
</radialGradient>
<radialGradient id="paint4_radial_40_150" cx="0" cy="0" r="1" gradientUnits="userSpaceOnUse" gradientTransform="translate(7.61295 2.85303) scale(13.0725)">
<stop stop-color="#C26715"/>
<stop offset="0.508" stop-color="#B85515"/>
<stop offset="1" stop-color="#AD3F16"/>
</radialGradient>
<radialGradient id="paint5_radial_40_150" cx="0" cy="0" r="1" gradientUnits="userSpaceOnUse" gradientTransform="translate(11.2638 3.72834) scale(14.4399 15.0993)">
<stop stop-color="#C26715"/>
<stop offset="0.508" stop-color="#B85515"/>
<stop offset="1" stop-color="#AD3F16"/>
</radialGradient>
</defs>
</svg>
