<svg width="24" height="24" viewBox="0 0 24 24" fill="none" xmlns="http://www.w3.org/2000/svg">
<path d="M3.33334 6.88886L11.3333 3.70931V9.55553C11.3333 9.80086 11.1342 9.99997 10.8889 9.99997H3.33334V6.88886Z" fill="url(#paint0_linear_40_208)"/>
<path d="M2 3.70931V9.55553C2 9.80086 2.19911 9.99997 2.44444 9.99997H10.8889C10.9982 9.99997 11.0969 9.95908 11.1742 9.89375L2 3.70931Z" fill="url(#paint1_linear_40_208)"/>
<path opacity="0.05" d="M2 3.55556H11.3333V3.93156L7.48444 6.92044C7.00311 7.29422 6.33022 7.29422 5.84889 6.92044L2 3.93156V3.55556Z" fill="black"/>
<path opacity="0.07" d="M2 3.44444H11.3333V3.82044L7.32578 6.73422C6.93422 7.024 6.39911 7.024 6.00756 6.73422L2 3.82044V3.44444Z" fill="black"/>
<path d="M2.44444 2.88889H10.8889C11.1342 2.88889 11.3333 3.088 11.3333 3.33333V3.70933L7.16711 6.548C6.86533 6.75378 6.468 6.75378 6.16622 6.548L2 3.70933V3.33333C2 3.088 2.19911 2.88889 2.44444 2.88889Z" fill="url(#paint2_linear_40_208)"/>
<path d="M21.8373 19.7093L13.4489 6.3498C13.4489 6.3498 13.2231 5.88314 12.6667 5.88314C12.1102 5.88314 11.8844 6.3498 11.8844 6.3498L3.496 19.7093C3.496 19.7093 3.33334 19.9276 3.33334 20.2222C3.33334 20.7133 3.73111 21.1111 4.22222 21.1111H21.1111C21.6022 21.1111 22 20.7133 22 20.2222C22 19.9276 21.8373 19.7093 21.8373 19.7093Z" fill="url(#paint3_linear_40_208)"/>
<path d="M12.6729 19.3333C12.3476 19.3333 12.0791 19.2347 11.8676 19.0373C11.656 18.84 11.5502 18.6013 11.5502 18.3204C11.5502 18.0276 11.6569 17.7876 11.8707 17.6004C12.084 17.4133 12.3516 17.32 12.6729 17.32C12.9982 17.32 13.2649 17.4147 13.472 17.6036C13.6796 17.7929 13.7831 18.0316 13.7831 18.3204C13.7831 18.6133 13.6804 18.8551 13.4751 19.0462C13.2698 19.2373 13.0022 19.3333 12.6729 19.3333ZM13.6604 10.7649L13.4467 16.176C13.44 16.3413 13.304 16.472 13.1387 16.472H12.1702C12.0044 16.472 11.8684 16.3409 11.8622 16.1751L11.66 10.7644C11.6533 10.5898 11.7933 10.4444 11.968 10.4444H13.3529C13.5276 10.4444 13.6676 10.5898 13.6604 10.7649Z" fill="url(#paint4_radial_40_208)"/>
<defs>
<linearGradient id="paint0_linear_40_208" x1="6.11467" y1="5.03064" x2="11.4649" y2="13.0382" gradientUnits="userSpaceOnUse">
<stop stop-color="#28AFEA"/>
<stop offset="1" stop-color="#0B88DA"/>
</linearGradient>
<linearGradient id="paint1_linear_40_208" x1="1.64622" y1="6.53553" x2="9.40711" y2="11.3698" gradientUnits="userSpaceOnUse">
<stop stop-color="#28AFEA"/>
<stop offset="1" stop-color="#0B88DA"/>
</linearGradient>
<linearGradient id="paint2_linear_40_208" x1="4.94267" y1="2.94744" x2="5.87837" y2="7.36295" gradientUnits="userSpaceOnUse">
<stop stop-color="#7DD8F3"/>
<stop offset="1" stop-color="#45B0D0"/>
</linearGradient>
<linearGradient id="paint3_linear_40_208" x1="-135.223" y1="-151.277" x2="18.4022" y2="24.9187" gradientUnits="userSpaceOnUse">
<stop stop-color="#FFDA1C"/>
<stop offset="1" stop-color="#FEB705"/>
</linearGradient>
<radialGradient id="paint4_radial_40_208" cx="0" cy="0" r="1" gradientUnits="userSpaceOnUse" gradientTransform="translate(10.084 10.3471) scale(9.93911 9.93911)">
<stop stop-color="#4B4B4B"/>
<stop offset="0.531" stop-color="#393939"/>
<stop offset="1" stop-color="#252525"/>
</radialGradient>
</defs>
</svg>
