<svg width="24" height="24" viewBox="0 0 24 24" fill="none" xmlns="http://www.w3.org/2000/svg">
<path d="M17.641 7.64103V20.4615C17.6402 20.7333 17.5319 20.9937 17.3397 21.1858C17.1476 21.378 16.8872 21.4864 16.6154 21.4872H3.28205C3.01028 21.4864 2.74987 21.378 2.55769 21.1858C2.36553 20.9937 2.25721 20.7333 2.25641 20.4615V3.02564C2.25637 2.89094 2.28288 2.75756 2.33441 2.6331C2.38594 2.50865 2.46149 2.39557 2.55673 2.30032C2.65198 2.20508 2.76506 2.12953 2.88951 2.078C3.01397 2.02647 3.14735 1.99996 3.28205 2H12L17.641 7.64103Z" fill="url(#paint0_linear_40_238)"/>
<path d="M12 2V6.61538C12 6.75008 12.0265 6.88347 12.0779 7.00793C12.1295 7.13238 12.205 7.24546 12.3003 7.34071C12.3956 7.43595 12.5086 7.5115 12.6331 7.56303C12.7575 7.61456 12.891 7.64107 13.0256 7.64103H17.641L12 2Z" fill="url(#paint1_linear_40_238)"/>
<path d="M18.7372 18.0833L17.8269 18.9936L20.7954 21.9622C20.8074 21.9742 20.8215 21.9836 20.8372 21.9902C20.8528 21.9966 20.8696 22 20.8866 22C20.9035 22 20.9202 21.9966 20.9359 21.9902C20.9515 21.9836 20.9657 21.9742 20.9776 21.9622L21.7057 21.2341C21.7177 21.2221 21.7273 21.2079 21.7337 21.1922C21.7402 21.1766 21.7436 21.1598 21.7436 21.1429C21.7436 21.126 21.7402 21.1092 21.7337 21.0935C21.7273 21.0779 21.7177 21.0637 21.7057 21.0518L18.7372 18.0833Z" fill="url(#paint2_linear_40_238)"/>
<path d="M4.5641 10.2051H14.5641V11.2308H4.5641C4.4961 11.2308 4.43088 11.2038 4.38279 11.1557C4.33471 11.1076 4.30769 11.0424 4.30769 10.9744V10.4615C4.30769 10.3935 4.33471 10.3283 4.38279 10.2802C4.43088 10.2321 4.4961 10.2051 4.5641 10.2051Z" fill="#057093"/>
<path d="M15.3333 12.7692H4.5641C4.42249 12.7692 4.30769 12.884 4.30769 13.0256V13.5385C4.30769 13.6801 4.42249 13.7949 4.5641 13.7949H15.3333C15.475 13.7949 15.5897 13.6801 15.5897 13.5385V13.0256C15.5897 12.884 15.475 12.7692 15.3333 12.7692Z" fill="#057093"/>
<path d="M15.3333 15.3333H4.5641C4.42249 15.3333 4.30769 15.4481 4.30769 15.5897V16.1026C4.30769 16.2442 4.42249 16.359 4.5641 16.359H15.3333C15.475 16.359 15.5897 16.2442 15.5897 16.1026V15.5897C15.5897 15.4481 15.475 15.3333 15.3333 15.3333Z" fill="#057093"/>
<path d="M18.0379 17.3846L17.1282 18.2944L18.2564 19.4231L19.1667 18.5128L18.0379 17.3846Z" fill="url(#paint3_radial_40_238)"/>
<path d="M14.5639 10.2056C15.3863 10.2058 16.1936 10.4258 16.9026 10.8428C17.6115 11.2597 18.196 11.8586 18.5958 12.5772C18.9956 13.296 19.1961 14.1084 19.1765 14.9307C19.1569 15.7528 18.9181 16.5549 18.4845 17.2537C18.0509 17.9525 17.4385 18.5229 16.7106 18.9056C15.9827 19.2884 15.1656 19.4696 14.3442 19.4307C13.5227 19.3918 12.7265 19.1341 12.0381 18.6841C11.3495 18.2343 10.7938 17.6085 10.4284 16.8718C10.3462 16.7063 10.6827 16.4486 10.6204 16.2726C10.5614 16.1057 10.1028 16.0211 10.0631 15.8462C9.91056 15.1709 9.91056 14.4702 10.0632 13.7949C10.1029 13.6199 10.5698 13.5213 10.6287 13.3545C10.6916 13.1768 10.3477 12.9315 10.431 12.7645C10.8135 11.9958 11.4031 11.3489 12.1332 10.8969C12.8633 10.4448 13.7051 10.2054 14.5639 10.2056Z" fill="url(#paint4_linear_40_238)"/>
<path d="M9.69231 7.64103H4.5559C4.41429 7.64103 4.29949 7.75583 4.29949 7.89744V8.41026C4.29949 8.55187 4.41429 8.66667 4.5559 8.66667H9.69231C9.83395 8.66667 9.94872 8.55187 9.94872 8.41026V7.89744C9.94872 7.75583 9.83395 7.64103 9.69231 7.64103Z" fill="#057093"/>
<path d="M9.69231 5.07692H4.5559C4.41429 5.07692 4.29949 5.19172 4.29949 5.33333V5.84615C4.29949 5.98776 4.41429 6.10256 4.5559 6.10256H9.69231C9.83395 6.10256 9.94872 5.98776 9.94872 5.84615V5.33333C9.94872 5.19172 9.83395 5.07692 9.69231 5.07692Z" fill="#057093"/>
<path opacity="0.05" d="M14.5641 9.69231C13.204 9.69231 11.8996 10.2326 10.9379 11.1944C9.97621 12.156 9.4359 13.4604 9.4359 14.8205C9.4359 16.1806 9.97621 17.485 10.9379 18.4467C11.8996 19.4084 13.204 19.9487 14.5641 19.9487C15.524 19.9514 16.4649 19.6811 17.2769 19.1692L17.641 19.5333V18.8051L17.3385 18.5026C16.6402 19.0292 15.8067 19.3467 14.935 19.4177C14.0633 19.4888 13.1893 19.3107 12.415 18.9041C11.6406 18.4974 10.9978 17.8792 10.5614 17.1212C10.125 16.3633 9.91303 15.4969 9.95026 14.6231C9.98739 13.7493 10.2721 12.904 10.7713 12.1858C11.2704 11.4677 11.9634 10.9062 12.7694 10.5668C13.5755 10.2274 14.4613 10.124 15.3239 10.2688C16.1864 10.4136 16.9901 10.8006 17.641 11.3846V10.7231C16.7552 10.0533 15.6747 9.69133 14.5641 9.69231Z" fill="black"/>
<path opacity="0.07" d="M14.5641 10.2051C15.7003 10.2041 16.7966 10.6243 17.641 11.3846V11.0462C16.9406 10.4733 16.0947 10.1069 15.1977 9.98769C14.3008 9.86851 13.3885 10.0013 12.5629 10.3713C11.7372 10.7413 11.0309 11.3338 10.5229 12.0826C10.0149 12.8313 9.72533 13.7066 9.68667 14.6106C9.648 15.5145 9.86174 16.4114 10.304 17.2007C10.7462 17.9901 11.3994 18.6407 12.1905 19.0798C12.9815 19.519 13.8792 19.7292 14.783 19.687C15.6868 19.6448 16.5609 19.3519 17.3077 18.841L17.641 19.1744V18.8051L17.3385 18.5026C16.7543 18.9428 16.0737 19.2378 15.353 19.3633C14.6324 19.4887 13.8922 19.4409 13.1936 19.224C12.495 19.007 11.8581 18.627 11.3353 18.1153C10.8124 17.6037 10.4188 16.975 10.1869 16.2812C9.95487 15.5875 9.89118 14.8485 10.0011 14.1252C10.111 13.4021 10.3913 12.7154 10.8189 12.1218C11.2465 11.5283 11.8091 11.0449 12.4603 10.7117C13.1115 10.3784 13.8326 10.2048 14.5641 10.2051Z" fill="black"/>
<path d="M16.1026 13.0256V14.0513C16.1026 14.1193 16.0756 14.1845 16.0275 14.2326C15.9794 14.2807 15.9142 14.3077 15.8462 14.3077H9.97949C10.0356 13.7718 10.1885 13.2506 10.4308 12.7692H15.8462C15.9142 12.7692 15.9794 12.7962 16.0275 12.8443C16.0756 12.8924 16.1026 12.9576 16.1026 13.0256Z" fill="url(#paint5_linear_40_238)"/>
<path d="M16.1026 16.1026V17.1282C16.1026 17.1962 16.0756 17.2614 16.0275 17.3095C15.9794 17.3576 15.9142 17.3846 15.8462 17.3846H10.7282C10.4145 16.9165 10.1886 16.3952 10.0615 15.8462H15.8462C15.9142 15.8462 15.9794 15.8731 16.0275 15.9212C16.0756 15.9693 16.1026 16.0346 16.1026 16.1026Z" fill="url(#paint6_linear_40_238)"/>
<defs>
<linearGradient id="paint0_linear_40_238" x1="7.10696" y1="2.29919" x2="17.9265" y2="18.7683" gradientUnits="userSpaceOnUse">
<stop stop-color="#7DD8F3"/>
<stop offset="1" stop-color="#45B0D0"/>
</linearGradient>
<linearGradient id="paint1_linear_40_238" x1="12.2713" y1="7.37026" x2="14.8718" y2="4.76923" gradientUnits="userSpaceOnUse">
<stop stop-color="#3079D6"/>
<stop offset="1" stop-color="#297CD2"/>
</linearGradient>
<linearGradient id="paint2_linear_40_238" x1="18.6946" y1="17.4998" x2="21.3495" y2="21.3972" gradientUnits="userSpaceOnUse">
<stop stop-color="#FCFCFC"/>
<stop offset="0.95" stop-color="#C3C9CD"/>
</linearGradient>
<radialGradient id="paint3_radial_40_238" cx="0" cy="0" r="1" gradientUnits="userSpaceOnUse" gradientTransform="translate(14.8318 15.2072) scale(5.04718)">
<stop offset="0.693" stop-color="#006185"/>
<stop offset="0.921" stop-color="#35C1F1"/>
</radialGradient>
<linearGradient id="paint4_linear_40_238" x1="11.0108" y1="11.2677" x2="21.0492" y2="21.3062" gradientUnits="userSpaceOnUse">
<stop stop-color="#A3FFFF"/>
<stop offset="0.223" stop-color="#9DFBFF"/>
<stop offset="0.53" stop-color="#8BF1FF"/>
<stop offset="0.885" stop-color="#6EE0FF"/>
<stop offset="1" stop-color="#63DAFF"/>
</linearGradient>
<linearGradient id="paint5_linear_40_238" x1="8.03692" y1="13.5385" x2="15.6662" y2="13.5385" gradientUnits="userSpaceOnUse">
<stop stop-color="#3B8FBF"/>
<stop offset="1" stop-color="#057093"/>
</linearGradient>
<linearGradient id="paint6_linear_40_238" x1="8.03692" y1="16.6154" x2="15.6662" y2="16.6154" gradientUnits="userSpaceOnUse">
<stop stop-color="#3B8FBF"/>
<stop offset="1" stop-color="#057093"/>
</linearGradient>
</defs>
</svg>
