<svg width="24" height="24" viewBox="0 0 24 24" fill="none" xmlns="http://www.w3.org/2000/svg">
<path d="M18.5379 10.8317V21.2369H14.3274V10.8317C14.3274 10.5427 14.5632 10.3091 14.8537 10.3091H18.0116C18.3021 10.3091 18.5379 10.5433 18.5379 10.8317Z" fill="url(#paint0_linear_40_184)"/>
<path d="M14.3274 3.51153V21.2368H10.1168V3.51153C10.1168 3.22311 10.3526 2.98889 10.6432 2.98889H13.8011C14.0916 2.98889 14.3274 3.22311 14.3274 3.51153Z" fill="url(#paint1_linear_40_184)"/>
<path d="M10.1168 7.17158V21.2368H5.90631V7.17158C5.90631 6.88263 6.1421 6.64895 6.43263 6.64895H9.59053C9.88105 6.64895 10.1168 6.88316 10.1168 7.17158Z" fill="#0078D4"/>
<path d="M21.4737 21.9342H2.52632C2.23579 21.9342 2 21.7 2 21.4116V2.58842C2 2.3 2.23579 2.06579 2.52632 2.06579C2.81684 2.06579 3.05263 2.3 3.05263 2.58842V20.8884H21.4737C21.7642 20.8884 22 21.1226 22 21.4111C22 21.6995 21.7642 21.9342 21.4737 21.9342Z" fill="#ABB4BE"/>
<defs>
<linearGradient id="paint0_linear_40_184" x1="15.8657" y1="10.7854" x2="20.5169" y2="20.6403" gradientUnits="userSpaceOnUse">
<stop stop-color="#32BDEF"/>
<stop offset="1" stop-color="#1EA2E4"/>
</linearGradient>
<linearGradient id="paint1_linear_40_184" x1="11.0497" y1="0.270455" x2="19.1276" y2="3.00662" gradientUnits="userSpaceOnUse">
<stop stop-color="#FCFCFC"/>
<stop offset="0.95" stop-color="#C3C9CD"/>
</linearGradient>
</defs>
</svg>
