<svg width="24" height="24" viewBox="0 0 24 24" fill="none" xmlns="http://www.w3.org/2000/svg">
<path d="M17.5 2H6.5C4.01444 2 2 4.01444 2 6.5V17.5C2 19.985 4.01444 22 6.5 22H17.5C19.9856 22 22 19.985 22 17.5V6.5C22 4.01444 19.9856 2 17.5 2Z" fill="url(#paint0_linear_40_264)"/>
<path opacity="0.05" d="M5.49999 15.8761C4.73443 15.8761 4.1111 15.2572 4.1111 14.4961C4.1111 13.735 4.73443 13.1161 5.49999 13.1161H7.60999L10.315 8.50003L9.52443 7.15059C9.33665 6.82948 9.28499 6.45559 9.37888 6.0967C9.47277 5.73781 9.7011 5.4367 10.0211 5.25003C10.2344 5.12559 10.4767 5.06003 10.7222 5.06003C11.2139 5.06003 11.6733 5.32337 11.9211 5.74726L11.925 5.75392L11.9283 5.74781C12.1756 5.32392 12.635 5.06059 13.1272 5.06059C13.3733 5.06059 13.6156 5.1267 13.8289 5.25114C14.49 5.63892 14.7122 6.4917 14.3244 7.15226L10.8294 13.1167H12.6783L12.8411 13.2806C12.9644 13.4044 13.0772 13.545 13.1872 13.7106L13.2967 13.8939C13.5683 14.4 13.6289 14.9594 13.4739 15.4794L13.3567 15.8761H5.49999Z" fill="black"/>
<path opacity="0.07" d="M5.5 15.5983C4.88722 15.5983 4.38889 15.1039 4.38889 14.4961C4.38889 13.8883 4.88722 13.3939 5.5 13.3939H7.76889L10.6367 8.50005L9.76333 7.01004C9.61333 6.75393 9.57166 6.45449 9.64722 6.16671C9.72222 5.87949 9.90445 5.63893 10.1606 5.48949C10.3311 5.39004 10.525 5.33727 10.7217 5.33727C11.115 5.33727 11.4828 5.54782 11.6811 5.88671L11.9245 6.30282L12.1678 5.88727C12.3656 5.54838 12.7333 5.33782 13.1267 5.33782C13.3233 5.33782 13.5172 5.3906 13.6878 5.49004C14.2167 5.8006 14.3939 6.48282 14.0839 7.01116L10.3445 13.3939H12.5622L12.6433 13.4756C12.7533 13.5861 12.855 13.7128 12.9545 13.8633L13.0572 14.0356C13.2895 14.4694 13.3411 14.95 13.2072 15.4L13.1483 15.5983H5.5Z" fill="black"/>
<path d="M12.7233 14.0167C12.6411 13.8922 12.55 13.7756 12.4467 13.6717H9.86L13.845 6.87057C14.0778 6.47334 13.9444 5.96279 13.5478 5.73001C13.15 5.49723 12.6394 5.63057 12.4078 6.02779L11.9244 6.85223L11.4411 6.02723C11.2089 5.63001 10.6983 5.49723 10.3011 5.72946C9.90389 5.96168 9.77055 6.47223 10.0033 6.86946L10.9589 8.50001L7.92832 13.6717H5.49999C5.03943 13.6717 4.66666 14.0411 4.66666 14.4961C4.66666 14.9511 5.03943 15.3206 5.49999 15.3206H12.9411C13.0489 14.9578 13.0194 14.5528 12.8183 14.1772L12.7233 14.0167Z" fill="white"/>
<path opacity="0.05" d="M6.72223 18.7661C6.47612 18.7661 6.2339 18.7 6.02057 18.575C5.70057 18.3872 5.47279 18.0861 5.3789 17.7272C5.28557 17.3683 5.33723 16.9939 5.52501 16.6739L5.92112 15.9972L6.16557 15.9483C6.36612 15.9089 6.55334 15.8889 6.73779 15.8889L6.80334 15.8894C7.4039 15.9072 7.94779 16.1639 8.34001 16.6117L8.60446 16.9128L7.92168 18.0794C7.67279 18.5033 7.2139 18.7661 6.72223 18.7661Z" fill="black"/>
<path opacity="0.07" d="M6.72221 18.4883C6.52555 18.4883 6.3311 18.4356 6.1611 18.3356C5.90555 18.1856 5.72277 17.9444 5.64777 17.6572C5.57277 17.37 5.61388 17.0706 5.76443 16.8144L6.09777 16.2456L6.21999 16.2211C6.40277 16.1844 6.57221 16.1667 6.73777 16.1667L6.79999 16.1672C7.31832 16.1828 7.79054 16.4056 8.1311 16.7944L8.26332 16.945L7.68166 17.9389C7.48332 18.2778 7.11555 18.4883 6.72221 18.4883Z" fill="black"/>
<path d="M6.79222 16.4454C6.61611 16.4404 6.44333 16.4599 6.27444 16.4938L6.00389 16.9554C5.77111 17.3527 5.90444 17.8632 6.30166 18.096C6.43389 18.1738 6.57944 18.2104 6.72222 18.2104C7.00833 18.2104 7.28722 18.0627 7.44166 17.7988L7.92222 16.9782C7.65166 16.6693 7.26111 16.4593 6.79444 16.4454H6.79222Z" fill="white"/>
<path opacity="0.05" d="M17.1272 18.7661C16.6356 18.7661 16.1761 18.5028 15.9283 18.0794L12.58 12.3656L12.5706 12.3367C12.3389 11.6206 12.3845 10.8822 12.6895 10.2294L13.6167 8.64171L16.2389 13.1167H18.5C19.2656 13.1167 19.8889 13.7356 19.8889 14.4967C19.8889 15.2578 19.2656 15.8767 18.5 15.8767H17.8561L18.3239 16.675C18.5117 16.995 18.5633 17.3689 18.47 17.7283C18.3767 18.0878 18.1483 18.3883 17.8283 18.5761C17.6161 18.7 17.3739 18.7661 17.1272 18.7661Z" fill="black"/>
<path opacity="0.07" d="M17.1272 18.4883C16.7339 18.4883 16.3661 18.2783 16.1678 17.9394L12.8345 12.2517L12.825 12.2228C12.6245 11.6017 12.665 10.9356 12.9406 10.3472L13.6161 9.19117L16.0789 13.3939H18.5C19.1128 13.3939 19.6111 13.8883 19.6111 14.4961C19.6111 15.1039 19.1128 15.5983 18.5 15.5983H17.3717L18.0845 16.815C18.235 17.0711 18.2761 17.3706 18.2011 17.6578C18.1261 17.945 17.9439 18.1861 17.6878 18.3361C17.5183 18.4356 17.3245 18.4883 17.1272 18.4883Z" fill="black"/>
<path d="M18.5 13.6718H15.9206L13.6167 9.74061L13.1928 10.4646C12.9461 10.9923 12.9128 11.589 13.09 12.1373L16.4078 17.799C16.5628 18.0634 16.8411 18.2107 17.1272 18.2107C17.27 18.2107 17.4156 18.174 17.5478 18.0962C17.945 17.8634 18.0778 17.3529 17.845 16.9557L16.8867 15.3207H18.5C18.9606 15.3207 19.3333 14.9512 19.3333 14.4962C19.3333 14.0412 18.9606 13.6718 18.5 13.6718Z" fill="white"/>
<defs>
<linearGradient id="paint0_linear_40_264" x1="12" y1="1.23167" x2="12" y2="20.9422" gradientUnits="userSpaceOnUse">
<stop stop-color="#33BEF0"/>
<stop offset="1" stop-color="#0A85D9"/>
</linearGradient>
</defs>
</svg>
