<svg width="24" height="24" viewBox="0 0 24 24" fill="none" xmlns="http://www.w3.org/2000/svg">
<path d="M19.5 17.4167H2.83333V19.5C2.83333 19.9604 3.20624 20.3333 3.66666 20.3333H18.6667C19.1271 20.3333 19.5 19.9604 19.5 19.5V17.4167Z" fill="#C48C00"/>
<path d="M19.5 11.5833H2.83333V9.5C2.83333 9.03958 3.20624 8.66667 3.66666 8.66667H18.6667C19.1271 8.66667 19.5 9.03958 19.5 9.5V11.5833Z" fill="#FAD500"/>
<path d="M19.5 11.5833H2.83333V14.5H19.5V11.5833Z" fill="#EDBE00"/>
<path d="M19.5 14.5H2.83333V17.4167H19.5V14.5Z" fill="#E3A600"/>
<path d="M12.4167 14.0833C12.4167 13.3929 11.8571 12.8333 11.1667 12.8333C10.4762 12.8333 9.91666 13.3929 9.91666 14.0833C9.91666 14.6267 10.2654 15.0846 10.75 15.2567V16.5833C10.75 16.8133 10.9367 17 11.1667 17C11.3967 17 11.5833 16.8133 11.5833 16.5833V15.2567C12.0679 15.0846 12.4167 14.6267 12.4167 14.0833Z" fill="url(#paint0_linear_40_276)"/>
<path d="M14.6967 6.16667H16.4288C15.8642 3.77917 13.7271 2 11.1667 2C8.175 2 5.75 4.425 5.75 7.41667V8.66667H7.41667V7.41667C7.41667 5.34542 9.09542 3.66667 11.1667 3.66667C12.7983 3.66667 14.1817 4.71125 14.6967 6.16667Z" fill="url(#paint1_linear_40_276)"/>
<path opacity="0.05" d="M19.5 13.9917V19.5C19.5 19.9583 19.125 20.3333 18.6667 20.3333H13.1583C12.6875 19.6125 12.4167 18.7583 12.4167 17.8333C12.4167 15.3042 14.4708 13.25 17 13.25C17.925 13.25 18.7792 13.5208 19.5 13.9917Z" fill="black"/>
<path opacity="0.07" d="M19.5 14.2458V19.5C19.5 19.9583 19.125 20.3333 18.6667 20.3333H13.4125C12.9167 19.625 12.625 18.7625 12.625 17.8333C12.625 15.4208 14.5875 13.4583 17 13.4583C17.9292 13.4583 18.7917 13.75 19.5 14.2458Z" fill="black"/>
<path d="M21.1667 17.8333C21.1667 20.1342 19.3008 22 17 22C14.6992 22 12.8333 20.1342 12.8333 17.8333C12.8333 15.5325 14.6992 13.6667 17 13.6667C19.3008 13.6667 21.1667 15.5325 21.1667 17.8333Z" fill="url(#paint2_linear_40_276)"/>
<path d="M16.4358 19.6475L14.7692 17.9808C14.6879 17.8996 14.6879 17.7675 14.7692 17.6863L15.0637 17.3917C15.145 17.3104 15.2771 17.3104 15.3583 17.3917L16.5833 18.6163L18.8496 16.35C18.9308 16.2688 19.0629 16.2688 19.1442 16.35L19.4387 16.6446C19.52 16.7258 19.52 16.8579 19.4387 16.9392L16.7304 19.6475C16.6492 19.7288 16.5175 19.7288 16.4358 19.6475Z" fill="white"/>
<defs>
<linearGradient id="paint0_linear_40_276" x1="11.1667" y1="16.7387" x2="11.1667" y2="13.3146" gradientUnits="userSpaceOnUse">
<stop stop-color="#4B4B4B"/>
<stop offset="1" stop-color="#3B3B3B"/>
</linearGradient>
<linearGradient id="paint1_linear_40_276" x1="11.0892" y1="8.51958" x2="11.0892" y2="1.87667" gradientUnits="userSpaceOnUse">
<stop stop-color="#92A3B0"/>
<stop offset="0.015" stop-color="#A3B5C4"/>
<stop offset="0.032" stop-color="#AEC2D1"/>
<stop offset="0.046" stop-color="#B2C6D6"/>
</linearGradient>
<linearGradient id="paint2_linear_40_276" x1="14.0537" y1="14.8871" x2="19.9462" y2="20.7796" gradientUnits="userSpaceOnUse">
<stop stop-color="#21AD64"/>
<stop offset="1" stop-color="#088242"/>
</linearGradient>
</defs>
</svg>
