<svg width="24" height="24" viewBox="0 0 24 24" fill="none" xmlns="http://www.w3.org/2000/svg">
<path d="M19.8947 20.9474C19.8947 21.5289 19.4237 22 18.8421 22H5.1579C4.57632 22 4.10527 21.5289 4.10527 20.9474V3.05263C4.10527 2.47105 4.57632 2 5.1579 2H18.8421C19.4237 2 19.8947 2.47105 19.8947 3.05263V20.9474Z" fill="url(#paint0_linear_40_322)"/>
<path d="M13.1337 10.3253C13.0884 10.0758 12.8705 9.89474 12.6163 9.89474H11.3837C11.1295 9.89474 10.9116 10.0747 10.8663 10.3247C10.7216 11.12 10.4332 12.8474 10.4216 14.0337C10.4137 14.8274 10.9726 15.5495 11.7574 15.6663C12.7369 15.8121 13.579 15.0568 13.579 14.1053C13.579 12.9184 13.2816 11.1374 13.1337 10.3253ZM12 14.6316C11.7095 14.6316 11.4737 14.3958 11.4737 14.1053C11.4737 13.8147 11.7095 13.5789 12 13.5789C12.2905 13.5789 12.5263 13.8147 12.5263 14.1053C12.5263 14.3958 12.2905 14.6316 12 14.6316Z" fill="url(#paint1_linear_40_322)"/>
<path d="M11.7142 8.31578H11.2337C11.0753 8.31578 10.9474 8.18788 10.9474 8.02999V7.54946C10.9474 7.39157 11.0753 7.26367 11.2332 7.26367H11.7137C11.8716 7.26367 11.9995 7.39157 11.9995 7.54946V8.02999C12 8.18788 11.8721 8.31578 11.7142 8.31578Z" fill="#E97C01"/>
<path d="M12.7668 9.36841H12.2863C12.1279 9.36841 12 9.24052 12 9.08262V8.60209C12 8.4442 12.1279 8.31631 12.2858 8.31631H12.7663C12.9242 8.31631 13.0521 8.4442 13.0521 8.60209V9.08262C13.0526 9.24052 12.9247 9.36841 12.7668 9.36841Z" fill="#E97C01"/>
<path d="M11.7142 6.21052H11.2337C11.0753 6.21052 10.9474 6.08262 10.9474 5.92473V5.4442C10.9474 5.28631 11.0753 5.15841 11.2332 5.15841H11.7137C11.8716 5.15841 11.9995 5.28631 11.9995 5.4442V5.92473C12 6.08262 11.8721 6.21052 11.7142 6.21052Z" fill="#E97C01"/>
<path d="M12.7668 7.26315H12.2863C12.1279 7.26315 12 7.13525 12 6.97736V6.49683C12 6.33894 12.1279 6.21104 12.2858 6.21104H12.7663C12.9242 6.21104 13.0521 6.33894 13.0521 6.49683V6.97736C13.0526 7.13525 12.9247 7.26315 12.7668 7.26315Z" fill="#E97C01"/>
<path d="M11.7142 4.10526H11.2337C11.0753 4.10526 10.9474 3.97737 10.9474 3.81947V3.33842C10.9474 3.18053 11.0753 3.05263 11.2332 3.05263H11.7137C11.8721 3.05263 12 3.18053 12 3.33842V3.81895C12 3.97737 11.8721 4.10526 11.7142 4.10526Z" fill="#E97C01"/>
<path d="M12.7668 5.15789H12.2863C12.1279 5.15789 12 5.03 12 4.8721V4.39105C12 4.23316 12.1279 4.10526 12.2858 4.10526H12.7663C12.9247 4.10526 13.0526 4.23316 13.0526 4.39105V4.87158C13.0526 5.03 12.9247 5.15789 12.7668 5.15789Z" fill="#E97C01"/>
<path d="M12.7668 3.05263H12.2863C12.1279 3.05263 12 2.92474 12 2.76684V2.28579C12 2.12789 12.1279 2 12.2858 2H12.7663C12.9247 2 13.0526 2.12789 13.0526 2.28579V2.76632C13.0526 2.92474 12.9247 3.05263 12.7668 3.05263Z" fill="#E97C01"/>
<defs>
<linearGradient id="paint0_linear_40_322" x1="4.10527" y1="12" x2="19.8947" y2="12" gradientUnits="userSpaceOnUse">
<stop stop-color="#FEDE00"/>
<stop offset="1" stop-color="#FFD000"/>
</linearGradient>
<linearGradient id="paint1_linear_40_322" x1="10.4216" y1="12.7895" x2="13.579" y2="12.7895" gradientUnits="userSpaceOnUse">
<stop stop-color="#4B4B4B"/>
<stop offset="1" stop-color="#3B3B3B"/>
</linearGradient>
</defs>
</svg>
