<svg width="24" height="24" viewBox="0 0 24 24" fill="none" xmlns="http://www.w3.org/2000/svg">
<path d="M12.1971 5.53048L10.9895 4.32286C10.7219 4.05524 10.3586 3.90476 9.97952 3.90476H2.95238C2.42619 3.90476 2 4.33095 2 4.85714V19.1429C2 19.669 2.42619 20.0952 2.95238 20.0952H21.0476C21.5738 20.0952 22 19.669 22 19.1429V6.7619C22 6.23571 21.5738 5.80952 21.0476 5.80952H12.8705C12.6181 5.80952 12.3757 5.70905 12.1971 5.53048Z" fill="url(#paint0_linear_40_303)"/>
<path d="M10.8505 7.43524L12.4067 5.87905C12.451 5.83476 12.5114 5.80952 12.5748 5.80952H21.0476C21.5738 5.80952 22 6.23571 22 6.76191V19.1429C22 19.669 21.5738 20.0952 21.0476 20.0952H2.95238C2.42619 20.0952 2 19.669 2 19.1429V7.95238C2 7.82095 2.10667 7.71429 2.2381 7.71429H10.1771C10.4295 7.71429 10.6719 7.61381 10.8505 7.43524Z" fill="url(#paint1_linear_40_303)"/>
<path d="M17.7143 6.04762V6.52381C17.7143 6.65524 17.6076 6.76191 17.4762 6.76191H16.7619C16.4991 6.76191 16.2857 6.54857 16.2857 6.28572C16.2857 6.02286 16.4991 5.80952 16.7619 5.80952H17.4762C17.6076 5.80952 17.7143 5.91619 17.7143 6.04762ZM16.7619 7.2381C16.7619 6.97524 16.5486 6.76191 16.2857 6.76191H15.5714C15.44 6.76191 15.3333 6.86857 15.3333 7V7.47619C15.3333 7.60762 15.44 7.71429 15.5714 7.71429H16.2857C16.5486 7.71429 16.7619 7.50095 16.7619 7.2381ZM16.2857 8.19048C16.2857 8.45333 16.4991 8.66667 16.7619 8.66667H17.4762C17.6076 8.66667 17.7143 8.56 17.7143 8.42857V7.95238C17.7143 7.82095 17.6076 7.71429 17.4762 7.71429H16.7619C16.4991 7.71429 16.2857 7.92762 16.2857 8.19048ZM16.7619 9.14286C16.7619 8.88 16.5486 8.66667 16.2857 8.66667H15.5714C15.44 8.66667 15.3333 8.77333 15.3333 8.90476V9.38095C15.3333 9.51238 15.44 9.61905 15.5714 9.61905H16.2857C16.5486 9.61905 16.7619 9.40571 16.7619 9.14286ZM16.2857 10.0952C16.2857 10.3581 16.4991 10.5714 16.7619 10.5714H17.4762C17.6076 10.5714 17.7143 10.4648 17.7143 10.3333V9.85714C17.7143 9.72571 17.6076 9.61905 17.4762 9.61905H16.7619C16.4991 9.61905 16.2857 9.83238 16.2857 10.0952ZM16.2857 12C16.2857 12.2629 16.4991 12.4762 16.7619 12.4762H17.4762C17.6076 12.4762 17.7143 12.3695 17.7143 12.2381V11.7619C17.7143 11.6305 17.6076 11.5238 17.4762 11.5238H16.7619C16.4991 11.5238 16.2857 11.7371 16.2857 12ZM16.7619 11.0476C16.7619 10.7848 16.5486 10.5714 16.2857 10.5714H15.5714C15.44 10.5714 15.3333 10.6781 15.3333 10.8095V11.2857C15.3333 11.4171 15.44 11.5238 15.5714 11.5238H16.2857C16.5486 11.5238 16.7619 11.3105 16.7619 11.0476Z" fill="#C28200"/>
<path d="M17.7752 13.3562C17.7405 13.1229 17.5405 12.9524 17.3043 12.9524H15.7429C15.5071 12.9524 15.3071 13.1229 15.2724 13.3562C15.1443 14.2143 14.8571 16.1719 14.8571 16.5238C14.8571 17.4443 15.6033 18.1905 16.5238 18.1905C17.4443 18.1905 18.1905 17.4443 18.1905 16.5238C18.1905 16.1719 17.9033 14.2143 17.7752 13.3562ZM16.5238 17.2381C16.1295 17.2381 15.8095 16.9181 15.8095 16.5238C15.8095 16.1295 16.1295 15.8095 16.5238 15.8095C16.9181 15.8095 17.2381 16.1295 17.2381 16.5238C17.2381 16.9181 16.9181 17.2381 16.5238 17.2381Z" fill="url(#paint2_linear_40_303)"/>
<defs>
<linearGradient id="paint0_linear_40_303" x1="12" y1="3.76571" x2="12" y2="7.70333" gradientUnits="userSpaceOnUse">
<stop stop-color="#EBA600"/>
<stop offset="1" stop-color="#C28200"/>
</linearGradient>
<linearGradient id="paint1_linear_40_303" x1="12" y1="5.74" x2="12" y2="20.0871" gradientUnits="userSpaceOnUse">
<stop stop-color="#FFD869"/>
<stop offset="1" stop-color="#FEC52B"/>
</linearGradient>
<linearGradient id="paint2_linear_40_303" x1="16.5238" y1="12.9257" x2="16.5238" y2="18.4671" gradientUnits="userSpaceOnUse">
<stop stop-color="#4B4B4B"/>
<stop offset="1" stop-color="#3B3B3B"/>
</linearGradient>
</defs>
</svg>
