<svg width="24" height="24" viewBox="0 0 24 24" fill="none" xmlns="http://www.w3.org/2000/svg">
<path d="M21.7308 18.2137H2.26924V7.96448C2.26924 7.61147 2.44115 7.28116 2.73037 7.07898L7.25355 3.9127C7.52061 3.72565 7.8574 3.66943 8.1704 3.75863L14.763 5.64207C15.0679 5.72911 15.396 5.67829 15.6598 5.50205L20.7534 2.10656C21.1707 1.82815 21.7308 2.12764 21.7308 2.6304V18.2137Z" fill="url(#paint0_linear_40_345)"/>
<path d="M20.6496 22H3.35044C2.75308 22 2.26924 21.5162 2.26924 20.9188V15.4917C2.26924 15.1631 2.41845 14.8528 2.67523 14.6473L7.31031 10.9394C7.54331 10.7529 7.84334 10.6712 8.13851 10.7134L14.8003 11.6649C15.0841 11.7054 15.3722 11.6313 15.602 11.4594L20.8658 7.51194C21.2221 7.24489 21.7308 7.49897 21.7308 7.94442V20.9188C21.7308 21.5162 21.2469 22 20.6496 22Z" fill="url(#paint1_linear_40_345)"/>
<defs>
<linearGradient id="paint0_linear_40_345" x1="10.8766" y1="4.01271" x2="12.3654" y2="12.4687" gradientUnits="userSpaceOnUse">
<stop stop-color="#0078D3"/>
<stop offset="1" stop-color="#0858A1"/>
</linearGradient>
<linearGradient id="paint1_linear_40_345" x1="8.40517" y1="7.62705" x2="14.3724" y2="22.9664" gradientUnits="userSpaceOnUse">
<stop stop-color="#7DD8F3"/>
<stop offset="1" stop-color="#45B0D0"/>
</linearGradient>
</defs>
</svg>
