<svg width="24" height="24" viewBox="0 0 24 24" fill="none" xmlns="http://www.w3.org/2000/svg">
<path d="M21 2.25001H3C2.4475 2.25001 2 2.69751 2 3.25001V16.25C2 16.8025 2.4475 17.25 3 17.25H7V21.249C7 21.6945 7.5385 21.9175 7.8535 21.6025L12.206 17.25H21C21.5525 17.25 22 16.8025 22 16.25V3.25001C22 2.69751 21.5525 2.25001 21 2.25001Z" fill="url(#paint0_linear_40_288)"/>
<path opacity="0.05" d="M11.726 4.25001C10.802 4.25001 9.6525 4.71751 9.1425 4.94751C8.9795 5.02101 8.8775 5.18201 8.8775 5.36051V7.63601C8.8775 7.92301 9.213 8.07651 9.4295 7.88851C9.908 7.47301 10.6545 6.97801 11.495 6.97801C11.7425 6.97801 12.0375 7.05601 12.0375 7.42751C12.0375 8.40801 10.065 8.75751 10.065 10.838C10.065 11.112 10.1945 11.591 10.282 11.8825C10.326 12.029 10.46 12.13 10.6135 12.1295L12.7655 12.124C13.013 12.1235 13.1845 11.86 13.0645 11.6435C12.928 11.3975 12.876 11.1345 12.876 11.0365C12.876 10.6405 13.07 10.369 13.5815 9.93551C14.232 9.38401 15.123 8.62901 15.123 7.13701C15.1225 5.32951 13.853 4.25001 11.726 4.25001Z" fill="black"/>
<path opacity="0.07" d="M9.323 5.11601C9.7715 4.89451 10.7135 4.50001 11.726 4.50001C14.2195 4.50001 14.8725 6.02301 14.8725 7.13801C14.8725 8.50501 14.076 9.18901 13.433 9.73401C13.009 10.0935 12.721 10.3625 12.613 10.7195C12.5735 10.85 12.583 11.077 12.6675 11.2915C12.7695 11.5495 13.04 11.878 12.403 11.878L10.7615 11.8805C10.5955 11.8805 10.4995 11.787 10.473 11.6955C10.4215 11.519 10.3575 11.254 10.334 11.0055C10.323 10.888 10.319 10.7775 10.3245 10.6815C10.435 8.83451 12.2875 8.58801 12.2875 7.42801C12.2875 7.08201 12.081 6.94301 11.883 6.86601C11.5855 6.74951 11.241 6.77101 11.049 6.81651C10.5825 6.92751 10.1625 7.11601 9.8375 7.33001C9.612 7.47851 9.344 7.46551 9.263 7.38051C9.206 7.42201 9.127 7.12601 9.127 7.05551V5.49201C9.127 5.46201 9.135 5.36951 9.1435 5.34201C9.173 5.24751 9.23 5.16201 9.323 5.11601Z" fill="black"/>
<path opacity="0.05" d="M11.666 12.2629C10.881 12.2629 10.046 12.7844 10.046 13.7504C10.046 14.7244 10.881 15.2499 11.666 15.2499C12.6095 15.2499 13.268 14.6334 13.268 13.7504C13.268 12.7739 12.462 12.2629 11.666 12.2629Z" fill="black"/>
<path opacity="0.07" d="M11.666 14.9999C11.001 14.9999 10.296 14.5674 10.296 13.7504C10.296 12.9374 11.0125 12.5129 11.666 12.5129C12.325 12.5129 13.018 12.9144 13.018 13.7504C13.018 14.5394 12.41 14.9999 11.666 14.9999Z" fill="black"/>
<path d="M10.7035 11.6305C10.6595 11.516 10.565 11.1755 10.565 10.839C10.565 8.92301 12.5375 8.84951 12.5375 7.42851C12.5375 6.53401 11.6535 6.47851 11.495 6.47851C10.491 6.47851 9.707 7.05251 9.3775 7.34251V5.35701C9.7165 5.15451 10.491 4.75001 11.726 4.75001C14.586 4.75001 14.622 6.71601 14.622 7.13801C14.622 9.40751 12.28 9.57551 12.28 11.03C12.28 11.3335 12.39 11.5555 12.4385 11.6305H10.7035ZM11.666 14.75C11.1215 14.75 10.546 14.4105 10.546 13.7505C10.546 13.0905 11.144 12.763 11.666 12.763C12.188 12.763 12.768 13.0555 12.768 13.7505C12.768 14.4455 12.2105 14.75 11.666 14.75Z" fill="white"/>
<defs>
<linearGradient id="paint0_linear_40_288" x1="6.343" y1="0.54601" x2="17.79" y2="19.1705" gradientUnits="userSpaceOnUse">
<stop stop-color="#33BEF0"/>
<stop offset="1" stop-color="#0A85D9"/>
</linearGradient>
</defs>
</svg>
