<svg width="24" height="24" viewBox="0 0 24 24" fill="none" xmlns="http://www.w3.org/2000/svg">
<path d="M14.0389 14.8518H13.9786C13.396 16.5916 12.2552 17.4611 10.556 17.4611C9.47216 17.4611 8.59805 17.0545 7.93543 16.2419C7.27168 15.4287 6.94008 14.3341 6.94008 12.9592C6.94008 11.1383 7.39518 9.62584 8.30537 8.42015C9.215 7.21445 10.4145 6.61217 11.9033 6.61217C12.47 6.61217 12.9753 6.76782 13.4203 7.07911C13.8652 7.39097 14.1523 7.76485 14.282 8.20134H14.3181C14.3395 8.00284 14.3886 7.61992 14.4658 7.05317C14.485 6.91331 14.6045 6.8056 14.7455 6.8056H16.2061C16.3719 6.8056 16.5011 6.95222 16.4864 7.11746C16.1249 11.1834 15.9439 13.2559 15.9439 13.3348C15.9439 14.937 16.3601 15.7378 17.1936 15.7378C17.9543 15.7378 18.5854 15.2911 19.0867 14.3967C19.5886 13.5029 19.839 12.3434 19.839 10.92C19.839 8.8166 19.1617 7.09941 17.8066 5.76796C16.4514 4.43763 14.573 3.77162 12.1695 3.77162C9.86353 3.77162 7.95404 4.57692 6.44156 6.1864C4.92852 7.79644 4.17228 9.81135 4.17228 12.2306C4.17228 14.6172 4.90032 16.5425 6.35697 18.007C7.81306 19.4716 9.77555 20.2041 12.2433 20.2041C14.0045 20.2041 15.5362 19.9306 16.8383 19.3853C17.0261 19.3069 17.2308 19.4372 17.2308 19.6408V20.8842C17.2308 21.001 17.162 21.1076 17.0537 21.1504C15.6681 21.7008 13.9594 21.976 11.9275 21.976C8.94995 21.976 6.55097 21.0861 4.73058 19.3063C2.90963 17.5266 2 15.1964 2 12.3158C2 9.35459 2.96264 6.89921 4.88792 4.94912C6.81376 2.99903 9.27309 2.02398 12.267 2.02398C15.0743 2.02398 17.3983 2.84113 19.239 4.47541C21.0797 6.1097 22 8.24194 22 10.871C22 12.7968 21.5004 14.377 20.5011 15.6103C19.5023 16.8442 18.282 17.4606 16.8422 17.4606C14.9812 17.4611 14.0468 16.5916 14.0389 14.8518ZM12.1091 8.33499C11.2192 8.33499 10.5008 8.77148 9.95545 9.64558C9.409 10.5191 9.13605 11.6075 9.13605 12.9102C9.13605 13.7837 9.31989 14.4734 9.68814 14.9793C10.0558 15.4845 10.5476 15.7378 11.1623 15.7378C12.0522 15.7378 12.756 15.2793 13.2742 14.3606C13.7919 13.4425 14.0508 12.2267 14.0508 10.7136C14.0513 9.12789 13.4034 8.33499 12.1091 8.33499Z" fill="url(#paint0_linear_40_342)"/>
<defs>
<linearGradient id="paint0_linear_40_342" x1="2.01748" y1="1.91232" x2="17.9408" y2="17.8356" gradientUnits="userSpaceOnUse">
<stop stop-color="#33BEF0"/>
<stop offset="1" stop-color="#0A85D9"/>
</linearGradient>
</defs>
</svg>
