<svg width="24" height="24" viewBox="0 0 24 24" fill="none" xmlns="http://www.w3.org/2000/svg">
<path d="M9.12638 22C7.49295 22 5.859 21.3778 4.61616 20.1328C2.14101 17.6535 2.27946 13.4649 4.75671 10.9876L12.1927 3.55164C13.0686 2.6757 14.2172 2.08666 15.4537 2.0098C16.8745 1.92137 18.2253 2.43409 19.2207 3.43057C20.2172 4.42652 20.7299 5.77727 20.6414 7.19751C20.5646 8.4335 19.975 9.58264 19.0996 10.4586L11.7973 17.7609C11.2088 18.3494 10.445 18.7584 9.61646 18.8311C8.59524 18.9205 7.62034 18.5636 6.90706 17.8498C6.19326 17.1366 5.83636 16.1617 5.92585 15.1404C5.99849 14.3119 6.40751 13.5475 6.99603 12.9596L12.0858 7.87025C12.1885 7.7676 12.3553 7.7676 12.458 7.87025L13.2023 8.61458C13.305 8.71723 13.305 8.8841 13.2023 8.98675L8.07094 14.1182C7.79879 14.3903 7.59034 14.7314 7.52243 15.1104C7.41294 15.719 7.60192 16.3117 8.02409 16.7339C8.70999 17.4198 9.90493 17.4208 10.5924 16.7339L18.1047 9.22153C18.7285 8.59616 19.0722 7.76655 19.0722 6.88377C19.0722 6.00099 18.7285 5.17085 18.1042 4.54707C17.4799 3.92328 16.6497 3.57901 15.7675 3.57901C14.8852 3.57901 14.0551 3.92275 13.4308 4.54707L5.73687 12.2405C3.86814 14.1097 3.86814 17.1508 5.73687 19.02C7.60665 20.8888 10.6477 20.8882 12.5164 19.02L19.9787 11.5577C20.0814 11.4551 20.2482 11.4551 20.3509 11.5577L21.0952 12.3021C21.1979 12.4047 21.1979 12.5716 21.0952 12.6742L13.6329 20.1365C12.3911 21.3788 10.7588 22 9.12638 22Z" fill="url(#paint0_linear_40_309)"/>
<defs>
<linearGradient id="paint0_linear_40_309" x1="6.89185" y1="-0.979456" x2="20.8386" y2="17.7993" gradientUnits="userSpaceOnUse">
<stop stop-color="#FCFCFC"/>
<stop offset="0.95" stop-color="#C3C9CD"/>
</linearGradient>
</defs>
</svg>
