<svg width="24" height="24" viewBox="0 0 24 24" fill="none" xmlns="http://www.w3.org/2000/svg">
<path d="M19.8947 7.78947V20.9474C19.8947 21.5289 19.4237 22 18.8421 22H5.1579C4.57632 22 4.10527 21.5289 4.10527 20.9474V3.05263C4.10527 2.47105 4.57632 2 5.1579 2H14.1053L19.8947 7.78947Z" fill="url(#paint0_linear_40_312)"/>
<path d="M14.1053 2V6.73684C14.1053 7.31842 14.5763 7.78947 15.1579 7.78947H19.8947L14.1053 2Z" fill="url(#paint1_linear_40_312)"/>
<path d="M13.3158 11.4737H6.4737C6.32844 11.4737 6.21054 11.3558 6.21054 11.2105V10.6842C6.21054 10.5389 6.32844 10.4211 6.4737 10.4211H13.3158C13.4611 10.4211 13.579 10.5389 13.579 10.6842V11.2105C13.579 11.3558 13.4611 11.4737 13.3158 11.4737Z" fill="#057093"/>
<path d="M13.3158 15.6842H6.4737C6.32844 15.6842 6.21054 15.5663 6.21054 15.4211V14.8947C6.21054 14.7495 6.32844 14.6316 6.4737 14.6316H13.3158C13.4611 14.6316 13.579 14.7495 13.579 14.8947V15.4211C13.579 15.5663 13.4611 15.6842 13.3158 15.6842Z" fill="#057093"/>
<path d="M13.3158 19.8947H6.4737C6.32844 19.8947 6.21054 19.7768 6.21054 19.6316V19.1053C6.21054 18.96 6.32844 18.8421 6.4737 18.8421H13.3158C13.4611 18.8421 13.579 18.96 13.579 19.1053V19.6316C13.579 19.7768 13.4611 19.8947 13.3158 19.8947Z" fill="#057093"/>
<path d="M16 12.0526L14.9474 11C14.8421 10.8947 14.8421 10.7368 14.9474 10.6316L15.3158 10.2632C15.4211 10.1579 15.579 10.1579 15.6842 10.2632L16.1579 10.7368L17.6842 9.21055C17.7895 9.10528 17.9474 9.10528 18.0526 9.21055L18.4211 9.57897C18.5263 9.68423 18.5263 9.84213 18.4211 9.94737L16.3158 12.0526C16.3158 12.1579 16.1053 12.1579 16 12.0526Z" fill="url(#paint2_linear_40_312)"/>
<path d="M16 20.4737L14.9474 19.4211C14.8421 19.3158 14.8421 19.1579 14.9474 19.0526L15.3158 18.6842C15.4211 18.579 15.579 18.579 15.6842 18.6842L16.1579 19.1579L17.6842 17.6316C17.7895 17.5263 17.9474 17.5263 18.0526 17.6316L18.4211 18C18.5263 18.1053 18.5263 18.2632 18.4211 18.3684L16.3158 20.4737C16.3158 20.5789 16.1053 20.5789 16 20.4737Z" fill="url(#paint3_linear_40_312)"/>
<path d="M17.2105 14.7895L17.9474 14.0526C18.0526 13.9474 18.0526 13.7895 17.9474 13.6842L17.5789 13.3158C17.4737 13.2105 17.3158 13.2105 17.2105 13.3158L16.4737 14.0526L15.7368 13.3158C15.6316 13.2105 15.4737 13.2105 15.3684 13.3158L15 13.6842C14.8947 13.7895 14.8947 13.9474 15 14.0526L15.7368 14.7895L15 15.5263C14.8947 15.6316 14.8947 15.7895 15 15.8947L15.3684 16.2632C15.4737 16.3684 15.6316 16.3684 15.7368 16.2632L16.4737 15.5263L17.2105 16.2632C17.3158 16.3684 17.4737 16.3684 17.5789 16.2632L17.9474 15.8947C18.0526 15.7895 18.0526 15.6316 17.9474 15.5263L17.2105 14.7895Z" fill="url(#paint4_linear_40_312)"/>
<defs>
<linearGradient id="paint0_linear_40_312" x1="9.08347" y1="2.30706" x2="20.1877" y2="19.2096" gradientUnits="userSpaceOnUse">
<stop stop-color="#7DD8F3"/>
<stop offset="1" stop-color="#45B0D0"/>
</linearGradient>
<linearGradient id="paint1_linear_40_312" x1="14.3837" y1="7.51105" x2="17.0526" y2="4.84211" gradientUnits="userSpaceOnUse">
<stop stop-color="#3079D6"/>
<stop offset="1" stop-color="#297CD2"/>
</linearGradient>
<linearGradient id="paint2_linear_40_312" x1="15.8104" y1="8.95983" x2="17.8165" y2="11.5232" gradientUnits="userSpaceOnUse">
<stop stop-color="#FCFCFC"/>
<stop offset="0.495" stop-color="#F4F4F4"/>
<stop offset="0.946" stop-color="#E8E8E8"/>
<stop offset="1" stop-color="#E8E8E8"/>
</linearGradient>
<linearGradient id="paint3_linear_40_312" x1="15.8104" y1="17.3808" x2="17.8165" y2="19.9442" gradientUnits="userSpaceOnUse">
<stop stop-color="#FCFCFC"/>
<stop offset="0.495" stop-color="#F4F4F4"/>
<stop offset="0.946" stop-color="#E8E8E8"/>
<stop offset="1" stop-color="#E8E8E8"/>
</linearGradient>
<linearGradient id="paint4_linear_40_312" x1="15.7265" y1="13.059" x2="17.8626" y2="15.3138" gradientUnits="userSpaceOnUse">
<stop stop-color="#FCFCFC"/>
<stop offset="0.495" stop-color="#F4F4F4"/>
<stop offset="0.946" stop-color="#E8E8E8"/>
<stop offset="1" stop-color="#E8E8E8"/>
</linearGradient>
</defs>
</svg>
