<svg width="24" height="24" viewBox="0 0 24 24" fill="none" xmlns="http://www.w3.org/2000/svg">
<path d="M18.9832 12C18.9832 14.8884 17.6479 17.4637 15.5626 19.1463L17.2284 20.8121C17.3995 20.9832 17.679 20.9947 17.8568 20.8305C20.239 18.6353 21.7368 15.4947 21.7368 12C21.7368 8.50531 20.239 5.36479 17.8568 3.16953C17.679 3.00532 17.3995 3.01689 17.2284 3.18795L15.5626 4.85374C17.6479 6.53637 18.9832 9.11163 18.9832 12Z" fill="#0078D4"/>
<path d="M16.0458 12.0001C16.0458 14.078 15.0263 15.9138 13.4642 17.0485L15.5621 19.1464C17.6474 17.4638 18.9826 14.8885 18.9826 12.0001C18.9826 9.11164 17.6474 6.53638 15.5621 4.85375L13.4642 6.95164C15.0263 8.08638 16.0458 9.92221 16.0458 12.0001Z" fill="url(#paint0_linear_40_333)"/>
<path d="M16.0458 12C16.0458 9.9221 15.0263 8.08629 13.4642 6.95156L11.34 9.07577C12.3905 9.62893 13.1079 10.73 13.1079 12C13.1079 13.27 12.3905 14.3711 11.34 14.9242L13.4642 17.0484C15.0263 15.9137 16.0458 14.0779 16.0458 12Z" fill="url(#paint1_linear_40_333)"/>
<path d="M8.41579 12L11.34 14.9242C12.3905 14.3711 13.1079 13.27 13.1079 12C13.1079 10.73 12.3905 9.629 11.34 9.07584L8.41579 12Z" fill="url(#paint2_linear_40_333)"/>
<path d="M5.42105 16.2105H3.31578C2.73421 16.2105 2.26315 15.7395 2.26315 15.1579V8.84211C2.26315 8.26053 2.73421 7.78947 3.31578 7.78947H5.42105V16.2105Z" fill="#5C6369"/>
<path d="M10.1579 21.4737L5.42105 16.2105V7.78948L10.1579 2.52632V21.4737Z" fill="#727D86"/>
<path d="M10.6842 2C10.3937 2 10.1579 2.23579 10.1579 2.52632V21.4737C10.1579 21.7642 10.3937 22 10.6842 22C10.9747 22 11.2105 21.7642 11.2105 21.4737V2.52632C11.2105 2.23579 10.9747 2 10.6842 2Z" fill="url(#paint3_linear_40_333)"/>
<defs>
<linearGradient id="paint0_linear_40_333" x1="14.6867" y1="2.72453" x2="23.6191" y2="7.78726" gradientUnits="userSpaceOnUse">
<stop stop-color="#FCFCFC"/>
<stop offset="0.95" stop-color="#C3C9CD"/>
</linearGradient>
<linearGradient id="paint1_linear_40_333" x1="13.0593" y1="7.39168" x2="16.8295" y2="17.0544" gradientUnits="userSpaceOnUse">
<stop stop-color="#32BDEF"/>
<stop offset="1" stop-color="#1EA2E4"/>
</linearGradient>
<linearGradient id="paint2_linear_40_333" x1="9.89516" y1="9.16563" x2="13.1213" y2="14.1559" gradientUnits="userSpaceOnUse">
<stop stop-color="#7DD8F3"/>
<stop offset="1" stop-color="#45B0D0"/>
</linearGradient>
<linearGradient id="paint3_linear_40_333" x1="5.63315" y1="5.61474" x2="14.33" y2="16.6089" gradientUnits="userSpaceOnUse">
<stop stop-color="#A1AAB3"/>
<stop offset="1" stop-color="#8F979E"/>
</linearGradient>
</defs>
</svg>
