<svg width="24" height="24" viewBox="0 0 24 24" fill="none" xmlns="http://www.w3.org/2000/svg">
<path d="M9.39131 4.17391C9.39131 3.94261 9.39131 3.64 9.39131 3.30435C9.39131 2.58391 8.8074 2 8.08696 2C7.36653 2 6.78262 2.58391 6.78262 3.30435C6.78262 3.64 6.78262 3.94261 6.78262 4.17391H5.04348C4.56522 4.17391 4.17392 4.56522 4.17392 5.04348V6.78261H5.04348C5.76522 6.78261 6.34783 7.36522 6.34783 8.08696C6.34783 8.8087 5.76522 9.3913 5.04348 9.3913H4.17392V12H12V4.17391H9.39131Z" fill="url(#paint0_linear_40_365)"/>
<path d="M9.3913 12C9.3913 11.7687 9.3913 11.4661 9.3913 11.1304C9.3913 10.41 8.80739 9.82609 8.08696 9.82609C7.36652 9.82609 6.78261 10.41 6.78261 11.1304C6.78261 11.4661 6.78261 11.7687 6.78261 12H4.17391V14.6087C3.94261 14.6087 3.64 14.6087 3.30435 14.6087C2.58391 14.6087 2 15.1926 2 15.913C2 16.6335 2.58391 17.2174 3.30435 17.2174C3.64 17.2174 3.94261 17.2174 4.17391 17.2174V18.9565C4.17391 19.437 4.56304 19.8261 5.04348 19.8261H12V12H9.3913Z" fill="#CF1928"/>
<path d="M18.9565 14.6087H19.8261V12H12V14.6087C11.7687 14.6087 11.4661 14.6087 11.1304 14.6087C10.41 14.6087 9.82608 15.1926 9.82608 15.913C9.82608 16.6335 10.41 17.2174 11.1304 17.2174C11.4661 17.2174 11.7687 17.2174 12 17.2174V19.8261H14.6087C14.6087 20.0574 14.6087 20.36 14.6087 20.6957C14.6087 21.4161 15.1926 22 15.913 22C16.6335 22 17.2174 21.4161 17.2174 20.6957C17.2174 20.36 17.2174 20.0574 17.2174 19.8261H18.9565C19.4348 19.8261 19.8261 19.4348 19.8261 18.9565V17.2174H18.9565C18.2348 17.2174 17.6522 16.6348 17.6522 15.913C17.6522 15.1913 18.2348 14.6087 18.9565 14.6087Z" fill="#FAD500"/>
<path d="M20.6957 6.78261C20.36 6.78261 20.0574 6.78261 19.8261 6.78261V5.04348C19.8261 4.56304 19.437 4.17391 18.9565 4.17391H12V12H14.6087C14.6087 12.2313 14.6087 12.5339 14.6087 12.8696C14.6087 13.59 15.1926 14.1739 15.913 14.1739C16.6335 14.1739 17.2174 13.59 17.2174 12.8696C17.2174 12.5339 17.2174 12.2313 17.2174 12H19.8261V9.3913C20.0574 9.3913 20.36 9.3913 20.6957 9.3913C21.4161 9.3913 22 8.80739 22 8.08696C22 7.36652 21.4161 6.78261 20.6957 6.78261Z" fill="#0D62AB"/>
<path d="M12.8696 6.78261C12.1491 6.78261 11.5652 6.78261 11.5652 6.78261V9.3913C11.5652 9.3913 12.1491 9.3913 12.8696 9.3913C13.59 9.3913 14.1739 8.80739 14.1739 8.08696C14.1739 7.36652 13.59 6.78261 12.8696 6.78261Z" fill="url(#paint1_linear_40_365)"/>
<defs>
<linearGradient id="paint0_linear_40_365" x1="7.03318" y1="2.43591" x2="9.46419" y2="12.898" gradientUnits="userSpaceOnUse">
<stop stop-color="#32BDEF"/>
<stop offset="1" stop-color="#1EA2E4"/>
</linearGradient>
<linearGradient id="paint1_linear_40_365" x1="12.5183" y1="6.89632" x2="13.0247" y2="9.68084" gradientUnits="userSpaceOnUse">
<stop stop-color="#32BDEF"/>
<stop offset="1" stop-color="#1EA2E4"/>
</linearGradient>
</defs>
</svg>
