<svg width="24" height="24" viewBox="0 0 24 24" fill="none" xmlns="http://www.w3.org/2000/svg">
<path d="M17.9083 19.2004C17.8456 19.2013 17.7833 19.1897 17.7251 19.1665C17.6666 19.1404 17.6128 19.1046 17.5661 19.0606C17.4773 18.9687 17.4273 18.8462 17.4263 18.7185C17.4263 18.5907 17.4771 18.4681 17.5674 18.3777C17.6579 18.2873 17.7805 18.2366 17.9083 18.2366C18.0361 18.2366 18.1587 18.2873 18.2491 18.3777C18.3394 18.4681 18.3902 18.5907 18.3902 18.7185C18.3908 18.7819 18.3787 18.8448 18.3547 18.9036C18.3307 18.9623 18.2952 19.0157 18.2504 19.0606C18.2055 19.1055 18.1521 19.1409 18.0934 19.1649C18.0346 19.1889 17.9717 19.201 17.9083 19.2004Z" fill="#057093"/>
<path d="M6.90116 20.8919C6.88867 20.8298 6.88863 20.7659 6.90107 20.7038C6.91349 20.6417 6.93814 20.5828 6.97357 20.5302C7.00899 20.4778 7.05448 20.4329 7.10742 20.3982C7.16034 20.3635 7.21965 20.3396 7.28189 20.328C7.34394 20.3155 7.40786 20.3155 7.46994 20.3279C7.53201 20.3403 7.591 20.3649 7.64346 20.4004C7.69593 20.4358 7.74083 20.4813 7.77555 20.5343C7.81027 20.5872 7.8341 20.6465 7.8457 20.7087C7.8699 20.8339 7.8434 20.9637 7.77201 21.0694C7.70063 21.1751 7.59019 21.2482 7.46498 21.2726C7.43476 21.2782 7.40416 21.2815 7.37344 21.2824C7.2615 21.2827 7.15299 21.2438 7.06673 21.1724C6.98047 21.1011 6.9219 21.0018 6.90116 20.8919ZM8.65544 20.545C8.64339 20.483 8.64368 20.4192 8.65629 20.3573C8.66889 20.2954 8.69356 20.2366 8.72889 20.1842C8.76423 20.1319 8.80953 20.087 8.86221 20.0522C8.9149 20.0173 8.97393 19.9932 9.03594 19.9811C9.09804 19.9683 9.16209 19.9679 9.22431 19.9803C9.28654 19.9925 9.34568 20.0171 9.39825 20.0525C9.45082 20.088 9.49575 20.1337 9.5304 20.1868C9.56504 20.2399 9.5887 20.2995 9.59999 20.3618C9.61246 20.4236 9.61262 20.4871 9.60046 20.5489C9.5883 20.6107 9.56405 20.6695 9.52911 20.7219C9.49417 20.7743 9.44923 20.8193 9.39686 20.8543C9.34449 20.8892 9.28573 20.9135 9.22395 20.9257C9.19246 20.9332 9.16007 20.9364 9.12771 20.9351C9.01603 20.9347 8.90796 20.8955 8.82186 20.8244C8.73576 20.7533 8.67694 20.6546 8.65544 20.545ZM10.4095 20.1981C10.3862 20.0729 10.4131 19.9436 10.4843 19.8381C10.5555 19.7324 10.6654 19.6591 10.7902 19.6338C10.8525 19.6213 10.9168 19.6212 10.9792 19.6337C11.0415 19.646 11.1009 19.6706 11.1537 19.7059C11.2065 19.7414 11.2519 19.7868 11.2871 19.8398C11.3223 19.8927 11.3468 19.9521 11.3589 20.0146C11.3822 20.1397 11.3553 20.269 11.2841 20.3745C11.2129 20.48 11.103 20.5533 10.9782 20.5783C10.9484 20.5863 10.9176 20.5896 10.8867 20.5883C10.7744 20.588 10.6657 20.5489 10.5788 20.4779C10.4919 20.4069 10.4321 20.3081 10.4095 20.1981ZM12.1684 19.8508C12.156 19.7887 12.1559 19.7248 12.1684 19.6628C12.1809 19.6007 12.2055 19.5417 12.2409 19.4893C12.2763 19.4368 12.3218 19.3919 12.3747 19.3572C12.4276 19.3224 12.4869 19.2986 12.5492 19.287C12.6112 19.2745 12.6751 19.2745 12.7372 19.287C12.7993 19.2994 12.8583 19.3241 12.9107 19.3594C12.9632 19.3949 13.0082 19.4404 13.0429 19.4933C13.0776 19.5462 13.1015 19.6055 13.1132 19.6677C13.1257 19.7297 13.1257 19.7937 13.1133 19.8557C13.1009 19.9178 13.0763 19.9768 13.0408 20.0293C13.0055 20.0817 12.9599 20.1267 12.9069 20.1614C12.854 20.1961 12.7948 20.2199 12.7325 20.2315C12.7022 20.2374 12.6716 20.2407 12.6407 20.2414C12.5288 20.2416 12.4203 20.2026 12.3341 20.1313C12.2479 20.06 12.1893 19.9608 12.1684 19.8508ZM13.9227 19.5086C13.8987 19.3829 13.9253 19.2526 13.9965 19.1463C14.0677 19.0399 14.178 18.9658 14.3035 18.9401C14.3658 18.9275 14.43 18.9274 14.4924 18.9399C14.5548 18.9522 14.6141 18.9768 14.667 19.0122C14.7199 19.0475 14.7652 19.093 14.8004 19.146C14.8356 19.199 14.86 19.2584 14.8722 19.3208C14.8961 19.446 14.8695 19.5756 14.7982 19.6813C14.7269 19.787 14.6165 19.8601 14.4915 19.8846C14.4596 19.8901 14.4273 19.8932 14.395 19.8941C14.284 19.8937 14.1765 19.8551 14.0906 19.785C14.0046 19.7148 13.9453 19.6173 13.9227 19.5086ZM15.6817 19.1618C15.6689 19.0997 15.6684 19.0358 15.6803 18.9735C15.6923 18.9113 15.7165 18.8521 15.7514 18.7993C15.7864 18.7464 15.8314 18.701 15.884 18.6657C15.9365 18.6303 15.9956 18.6057 16.0578 18.5933C16.1201 18.5804 16.1844 18.58 16.247 18.5921C16.3094 18.6044 16.3689 18.6289 16.4218 18.6644C16.4747 18.6998 16.5201 18.7455 16.5552 18.7986C16.5903 18.8518 16.6145 18.9113 16.6263 18.974C16.6505 19.0992 16.624 19.2289 16.5527 19.3347C16.4814 19.4404 16.3709 19.5135 16.2457 19.5378C16.2155 19.5432 16.1848 19.5464 16.154 19.5472C16.0428 19.5476 15.935 19.5093 15.8488 19.4391C15.7627 19.3688 15.7037 19.2708 15.6817 19.1618Z" fill="#057093"/>
<path d="M5.61446 21.6293C5.55143 21.6285 5.48914 21.6154 5.43115 21.5907C5.37367 21.5673 5.32132 21.5329 5.27702 21.4895C5.23151 21.444 5.19544 21.3899 5.17089 21.3304C5.1456 21.2727 5.13254 21.2103 5.13254 21.1473C5.13254 21.0843 5.1456 21.022 5.17089 20.9642C5.19417 20.9041 5.2304 20.8497 5.27702 20.8052C5.32132 20.7617 5.37367 20.7273 5.43115 20.704C5.51909 20.6656 5.61675 20.6554 5.7107 20.6748C5.74243 20.6802 5.77325 20.69 5.80225 20.704C5.83195 20.7135 5.85976 20.7281 5.88437 20.7473C5.91045 20.764 5.93468 20.7833 5.95663 20.8052C6.00166 20.851 6.03759 20.905 6.06253 20.9642C6.08584 21.0225 6.09735 21.0846 6.09639 21.1474C6.097 21.2108 6.08496 21.2737 6.06096 21.3325C6.03696 21.3912 6.00149 21.4446 5.95661 21.4895C5.91173 21.5344 5.85836 21.5698 5.79962 21.5938C5.74086 21.6178 5.67792 21.6299 5.61446 21.6293Z" fill="#057093"/>
<path d="M4.75182 19.2583C4.72747 19.1325 4.7538 19.002 4.82511 18.8954C4.89641 18.7889 5.00689 18.7148 5.13254 18.6893C5.25775 18.6655 5.38732 18.6921 5.49296 18.7634C5.5986 18.8347 5.67172 18.945 5.69635 19.07C5.70919 19.1318 5.70961 19.1955 5.6976 19.2574C5.68558 19.3192 5.66138 19.3782 5.62638 19.4307C5.59138 19.4831 5.5463 19.5281 5.49376 19.563C5.44122 19.5979 5.38226 19.622 5.32033 19.6338C5.2889 19.6418 5.25647 19.6451 5.22408 19.6437C5.1129 19.6442 5.00503 19.6059 4.91889 19.5356C4.83276 19.4654 4.77371 19.3673 4.75182 19.2583ZM4.36141 17.2727C4.34855 17.211 4.34811 17.1473 4.36009 17.0854C4.37208 17.0235 4.39627 16.9646 4.43124 16.9121C4.46622 16.8596 4.51128 16.8147 4.56381 16.7798C4.61634 16.7449 4.67529 16.7208 4.73722 16.7089C4.79924 16.6959 4.86319 16.6955 4.92541 16.7074C4.98763 16.7194 5.04687 16.7435 5.09973 16.7783C5.15259 16.8132 5.19802 16.8583 5.23343 16.9108C5.26882 16.9633 5.29347 17.0223 5.30597 17.0845C5.33027 17.2103 5.30391 17.3407 5.23263 17.4473C5.16133 17.5538 5.05087 17.6279 4.92525 17.6534C4.89502 17.6589 4.86442 17.662 4.83371 17.6629C4.72184 17.6632 4.61339 17.6243 4.52714 17.5531C4.44088 17.4818 4.38226 17.3827 4.36141 17.2727ZM3.96609 15.2919C3.94217 15.1661 3.96868 15.0359 4.03992 14.9296C4.11116 14.8232 4.22139 14.7491 4.34681 14.7233C4.40917 14.7108 4.47339 14.7107 4.53579 14.723C4.59819 14.7354 4.65754 14.76 4.71039 14.7953C4.76326 14.8308 4.8086 14.8762 4.84381 14.9292C4.87902 14.9822 4.9034 15.0416 4.91556 15.104C4.9388 15.2292 4.9119 15.3584 4.84067 15.4639C4.76944 15.5694 4.6596 15.6426 4.53484 15.6679C4.50303 15.6733 4.47087 15.6765 4.4386 15.6772C4.32777 15.6762 4.22061 15.6374 4.13473 15.5675C4.04886 15.4974 3.98939 15.4001 3.96609 15.2918V15.2919ZM3.57592 13.3063C3.55159 13.1804 3.57794 13.0501 3.64924 12.9436C3.72055 12.8372 3.83103 12.7631 3.95664 12.7377C4.08186 12.7139 4.21141 12.7405 4.31704 12.8118C4.42266 12.8831 4.49579 12.9934 4.52046 13.1184C4.53301 13.1808 4.53309 13.245 4.52073 13.3073C4.50836 13.3698 4.48377 13.4291 4.44839 13.4819C4.41301 13.5348 4.36751 13.5801 4.31454 13.6153C4.26158 13.6505 4.20217 13.6748 4.13974 13.687C4.10943 13.6912 4.07881 13.693 4.0482 13.6921C3.93714 13.6918 3.82957 13.6533 3.74358 13.583C3.65757 13.5127 3.59837 13.415 3.57592 13.3063ZM3.18556 11.3206C3.17273 11.2586 3.17245 11.1946 3.18473 11.1323C3.19701 11.0701 3.22161 11.0111 3.25709 10.9585C3.29257 10.906 3.33821 10.8611 3.39131 10.8264C3.44441 10.7918 3.5039 10.7682 3.56628 10.7569C3.62801 10.7444 3.69159 10.7443 3.75337 10.7564C3.81515 10.7686 3.87392 10.7928 3.9263 10.8277C3.9787 10.8627 4.02366 10.9076 4.05864 10.96C4.09361 11.0123 4.1179 11.0711 4.1301 11.1329C4.14248 11.1953 4.14246 11.2593 4.13002 11.3217C4.11759 11.3841 4.09299 11.4432 4.05763 11.4961C4.02226 11.5489 3.97684 11.5942 3.92395 11.6295C3.87105 11.6646 3.81174 11.6891 3.74938 11.7014C3.7192 11.7072 3.68858 11.7105 3.65784 11.7113C3.5459 11.7116 3.4374 11.6726 3.35113 11.6013C3.26488 11.53 3.2063 11.4306 3.18556 11.3206ZM2.79024 9.33554C2.76705 9.21036 2.79395 9.08107 2.86516 8.97552C2.93637 8.86997 3.04619 8.79663 3.17096 8.77127C3.23331 8.75876 3.29753 8.75869 3.35992 8.77107C3.4223 8.78346 3.48161 8.80805 3.53446 8.84342C3.58732 8.8788 3.63266 8.92427 3.66787 8.97722C3.7031 9.03018 3.72751 9.08957 3.73971 9.15199C3.76361 9.27725 3.737 9.40689 3.66567 9.5126C3.59434 9.61832 3.4841 9.69153 3.35899 9.71626C3.3291 9.72381 3.29827 9.72698 3.26745 9.72568C3.1552 9.72535 3.04648 9.68638 2.95958 9.61534C2.87267 9.54429 2.81286 9.44549 2.79022 9.33554H2.79024ZM2.39985 7.35467C2.37549 7.22885 2.40183 7.0985 2.47314 6.99201C2.54445 6.88552 2.65496 6.81153 2.78057 6.78615C2.90632 6.76275 3.03623 6.78949 3.14252 6.86064C3.2488 6.93178 3.32304 7.0417 3.34932 7.16687C3.37265 7.29258 3.34587 7.42243 3.27473 7.52865C3.20359 7.63489 3.09373 7.70909 2.9686 7.73539C2.93679 7.74085 2.90463 7.74401 2.87236 7.74481C2.7609 7.74346 2.65326 7.70403 2.5673 7.63306C2.48135 7.56209 2.42225 7.46385 2.39983 7.35467H2.39985Z" fill="#057093"/>
<path d="M2.48194 5.75921C2.41871 5.76093 2.35595 5.74787 2.29864 5.72109C2.2404 5.69647 2.18672 5.66227 2.1398 5.61989C2.0724 5.55236 2.02674 5.46623 2.00866 5.37255C1.99059 5.27888 2.00093 5.18194 2.03838 5.09419C2.06182 5.03524 2.09623 4.98127 2.13978 4.93514C2.23306 4.84934 2.35518 4.80171 2.48192 4.80171C2.60867 4.80171 2.73079 4.84934 2.82407 4.93514C2.86749 4.98134 2.90182 5.03531 2.92527 5.09421C2.95663 5.16715 2.96927 5.24676 2.96205 5.32581C2.95485 5.40488 2.92799 5.48089 2.88396 5.54694C2.83993 5.613 2.78009 5.66702 2.70988 5.70409C2.63968 5.74115 2.56133 5.76011 2.48194 5.75921Z" fill="#057093"/>
<path d="M3.76371 5.02221C3.74047 4.89708 3.76735 4.76781 3.83859 4.66232C3.90981 4.55683 4.01967 4.48359 4.14443 4.4584C4.20653 4.4455 4.27057 4.44519 4.33278 4.45745C4.395 4.46971 4.45413 4.4943 4.50669 4.52979C4.55924 4.56528 4.60415 4.61093 4.63876 4.66406C4.67339 4.71719 4.69702 4.77671 4.70825 4.83912C4.72078 4.90084 4.72098 4.96441 4.70885 5.02619C4.69672 5.08799 4.6725 5.14677 4.63758 5.19917C4.60265 5.25156 4.55771 5.29653 4.50535 5.3315C4.45299 5.36647 4.39423 5.39075 4.33245 5.40293C4.30092 5.41073 4.26842 5.4139 4.23598 5.41235C4.12452 5.41112 4.01685 5.37172 3.93091 5.30073C3.84498 5.22974 3.78597 5.13144 3.76371 5.02221ZM5.52293 4.67489C5.51044 4.61318 5.51027 4.54962 5.52241 4.48785C5.53456 4.42607 5.55878 4.3673 5.5937 4.31491C5.62861 4.26253 5.67353 4.21755 5.72588 4.18257C5.77823 4.14759 5.83696 4.12329 5.89873 4.11108C5.96111 4.09827 6.02541 4.09798 6.0879 4.11023C6.1504 4.12249 6.20983 4.14704 6.26274 4.18246C6.31567 4.21789 6.36102 4.26347 6.39616 4.31658C6.43131 4.36968 6.45555 4.42924 6.46748 4.4918C6.49175 4.61705 6.46529 4.74681 6.39388 4.85255C6.32249 4.95828 6.21202 5.03133 6.08676 5.05561C6.05658 5.06144 6.02596 5.06475 5.99523 5.06549C5.88329 5.06577 5.77478 5.02687 5.68852 4.95552C5.60226 4.88419 5.54367 4.78491 5.52293 4.67491V4.67489ZM7.27696 4.32804C7.25276 4.2028 7.27926 4.07306 7.35065 3.96734C7.42203 3.86162 7.53247 3.78856 7.65768 3.76423C7.71977 3.75138 7.7838 3.75109 7.846 3.76337C7.9082 3.77565 7.96731 3.80026 8.01985 3.83573C8.07239 3.87121 8.1173 3.91685 8.15194 3.96995C8.18657 4.02306 8.21022 4.08256 8.2215 4.14495C8.23405 4.20701 8.23412 4.27094 8.22172 4.33303C8.20931 4.39512 8.18468 4.45412 8.14924 4.5066C8.11381 4.55907 8.06828 4.60397 8.01533 4.63868C7.96237 4.67339 7.90303 4.69721 7.84078 4.70876C7.81057 4.71439 7.77997 4.71769 7.74925 4.71864C7.63733 4.71884 7.52886 4.67991 7.44261 4.60859C7.35637 4.53726 7.29777 4.43802 7.27696 4.32806V4.32804ZM9.03124 3.98118C9.00794 3.85603 9.03481 3.72675 9.10605 3.62125C9.17729 3.51576 9.28717 3.44252 9.41196 3.41737C9.47432 3.40483 9.53855 3.40474 9.60094 3.41711C9.66334 3.42948 9.72267 3.45407 9.77554 3.48945C9.8284 3.52484 9.87374 3.57033 9.90896 3.6233C9.94417 3.67628 9.96856 3.73569 9.9807 3.79813C10.0039 3.92326 9.97704 4.05249 9.90578 4.15797C9.83456 4.26343 9.72474 4.33669 9.60001 4.36194C9.56812 4.36739 9.53588 4.37055 9.50353 4.37135C9.39206 4.37013 9.28438 4.33074 9.19844 4.25974C9.11249 4.18874 9.05348 4.09043 9.03124 3.9812V3.98118ZM10.7902 3.63433C10.7777 3.57228 10.7777 3.50835 10.7901 3.44628C10.8025 3.3842 10.8272 3.32522 10.8626 3.27276C10.898 3.2203 10.9435 3.1754 10.9965 3.14067C11.0494 3.10596 11.1087 3.08211 11.171 3.07052C11.233 3.05796 11.2969 3.05788 11.359 3.07028C11.4211 3.08269 11.4802 3.10732 11.5326 3.14276C11.5851 3.1782 11.6299 3.22372 11.6646 3.27667C11.6993 3.32964 11.7232 3.38897 11.7347 3.45124C11.7472 3.51329 11.7472 3.57721 11.7348 3.63927C11.7224 3.70134 11.6977 3.76032 11.6623 3.81278C11.6269 3.86524 11.5814 3.91013 11.5285 3.94486C11.4755 3.97959 11.4163 4.00344 11.354 4.01505C11.3238 4.02051 11.2932 4.02366 11.2625 4.02447C11.1506 4.02472 11.0422 3.98586 10.9559 3.91463C10.8698 3.84339 10.8111 3.74425 10.7902 3.63435V3.63433ZM12.5444 3.28701C12.5212 3.16187 12.5481 3.03261 12.6193 2.92712C12.6906 2.82165 12.8004 2.7484 12.9252 2.72319C12.9875 2.71068 13.0517 2.71062 13.1141 2.72301C13.1764 2.73539 13.2358 2.75998 13.2886 2.79537C13.3415 2.83075 13.3868 2.87621 13.4219 2.92917C13.4571 2.98212 13.4816 3.0415 13.4937 3.10391C13.5171 3.22903 13.4902 3.35828 13.4189 3.46378C13.3478 3.56927 13.2379 3.64252 13.1132 3.66773C13.0814 3.67357 13.0491 3.67687 13.0167 3.67761C12.905 3.67711 12.7969 3.63793 12.7108 3.56672C12.6247 3.49551 12.5659 3.39667 12.5444 3.28702V3.28701Z" fill="#057093"/>
<path d="M14.7758 3.33076C14.6968 3.32987 14.6193 3.30984 14.5498 3.27237C14.4803 3.23491 14.4211 3.18113 14.3769 3.11568C14.3329 3.05021 14.3053 2.97503 14.2967 2.89659C14.288 2.81814 14.2986 2.73877 14.3275 2.66529C14.3545 2.60869 14.3903 2.55674 14.4336 2.5114C14.5015 2.44482 14.5872 2.39935 14.6804 2.38046C14.7736 2.36159 14.8703 2.37012 14.9588 2.40504C15.0184 2.42962 15.0724 2.46576 15.1179 2.5114C15.2054 2.6022 15.2554 2.72275 15.2577 2.84884C15.2566 2.9766 15.2066 3.09909 15.1179 3.191C15.0266 3.28083 14.9037 3.33105 14.7758 3.33076Z" fill="#057093"/>
<path d="M17.0456 16.8293C17.0203 16.704 17.0457 16.5738 17.1162 16.4672C17.1866 16.3606 17.2964 16.2862 17.4216 16.2604C17.5474 16.2364 17.6775 16.2629 17.7839 16.3341C17.8903 16.4054 17.9644 16.5156 17.9902 16.6411C18.0145 16.767 17.9882 16.8974 17.9168 17.0039C17.8455 17.1105 17.7351 17.1845 17.6095 17.2101C17.5792 17.2156 17.5486 17.2186 17.5179 17.2195C17.406 17.2197 17.2976 17.1809 17.2114 17.1096C17.1251 17.0383 17.0665 16.9392 17.0456 16.8293ZM16.6505 14.8437C16.6265 14.7185 16.6531 14.5889 16.7245 14.4832C16.7958 14.3776 16.9061 14.3044 17.0313 14.28C17.1565 14.2545 17.2867 14.2799 17.3932 14.3504C17.4998 14.4209 17.5741 14.5307 17.5997 14.656C17.6237 14.7817 17.5972 14.9119 17.526 15.0183C17.4547 15.1247 17.3444 15.1988 17.219 15.2244C17.1872 15.2299 17.155 15.2331 17.1227 15.2339C17.0113 15.2326 16.9036 15.1933 16.8177 15.1223C16.7318 15.0513 16.6727 14.953 16.6505 14.8437ZM16.2601 12.8628C16.2358 12.737 16.2622 12.6067 16.3335 12.5002C16.4048 12.3938 16.5152 12.3198 16.6408 12.2943C16.7029 12.282 16.7668 12.2821 16.8288 12.2945C16.8908 12.3071 16.9497 12.3317 17.0021 12.3671C17.0546 12.4025 17.0995 12.448 17.1342 12.5008C17.169 12.5537 17.1929 12.6129 17.2047 12.675C17.2175 12.7368 17.218 12.8004 17.206 12.8624C17.194 12.9243 17.1698 12.9832 17.1348 13.0356C17.0999 13.0882 17.0548 13.1332 17.0022 13.1681C16.9497 13.2029 16.8908 13.227 16.8288 13.2389C16.7972 13.2464 16.7649 13.2496 16.7324 13.2483C16.6211 13.2488 16.5133 13.2107 16.4271 13.1403C16.3409 13.07 16.2819 12.9719 16.2601 12.8629V12.8628ZM15.8697 10.8773C15.8569 10.8152 15.8567 10.7512 15.869 10.689C15.8813 10.6268 15.9059 10.5677 15.9413 10.5152C15.9768 10.4626 16.0225 10.4177 16.0755 10.3831C16.1286 10.3485 16.1881 10.3248 16.2504 10.3134C16.3121 10.301 16.3757 10.3008 16.4375 10.313C16.4993 10.3252 16.5581 10.3494 16.6104 10.3844C16.6629 10.4193 16.7078 10.4643 16.7428 10.5166C16.7778 10.5689 16.8021 10.6277 16.8143 10.6895C16.8268 10.7518 16.8269 10.8161 16.8146 10.8784C16.8022 10.9408 16.7777 11.0002 16.7423 11.053C16.7068 11.1058 16.6613 11.1512 16.6084 11.1864C16.5554 11.2216 16.4959 11.2459 16.4336 11.258C16.4033 11.2639 16.3728 11.2672 16.342 11.2679C16.2301 11.2681 16.1216 11.2292 16.0353 11.1579C15.949 11.0865 15.8904 10.9873 15.8697 10.8773ZM15.4746 8.8917C15.4515 8.76656 15.4784 8.63734 15.5496 8.53188C15.6209 8.42641 15.7306 8.35315 15.8554 8.32789C15.9811 8.30361 16.1115 8.32998 16.218 8.40127C16.3245 8.47258 16.3984 8.58303 16.4239 8.70861C16.4478 8.83382 16.4212 8.96343 16.3499 9.06909C16.2786 9.17474 16.1682 9.24785 16.0432 9.27242C16.0114 9.27827 15.9792 9.28158 15.9469 9.2823C15.8354 9.28106 15.7277 9.2416 15.6417 9.17052C15.5558 9.09943 15.4968 9.00102 15.4746 8.8917ZM15.0843 6.91131C15.0609 6.78559 15.0876 6.65571 15.1588 6.54947C15.2299 6.44321 15.3398 6.36904 15.465 6.34279C15.5906 6.31939 15.7204 6.34607 15.8266 6.41713C15.933 6.48819 16.0072 6.59799 16.0335 6.72306C16.0574 6.84833 16.0308 6.97796 15.9595 7.08368C15.8881 7.1894 15.7779 7.2626 15.6528 7.28734C15.6212 7.29491 15.5889 7.29808 15.5565 7.29676C15.4455 7.29641 15.3381 7.25793 15.2521 7.18775C15.1661 7.11757 15.1068 7.01997 15.0843 6.91131ZM14.6938 4.92572C14.681 4.86364 14.6807 4.79961 14.693 4.73741C14.7053 4.67521 14.7299 4.6161 14.7653 4.56355C14.8008 4.51101 14.8465 4.46611 14.8996 4.43148C14.9527 4.39685 15.0122 4.37318 15.0745 4.36191C15.1363 4.3494 15.1998 4.3492 15.2617 4.36135C15.3235 4.37349 15.3823 4.39774 15.4346 4.43268C15.4871 4.46763 15.5321 4.51259 15.567 4.56498C15.602 4.61736 15.6263 4.67615 15.6384 4.73794C15.6512 4.80031 15.6516 4.86461 15.6394 4.92711C15.6271 4.9896 15.6025 5.04903 15.5671 5.10194C15.5317 5.15486 15.486 5.20019 15.4329 5.2353C15.3798 5.27041 15.3202 5.2946 15.2577 5.30646C15.2274 5.31192 15.1969 5.31507 15.1661 5.31588C15.0542 5.31616 14.9458 5.2773 14.8595 5.20605C14.7733 5.1348 14.7146 5.03562 14.6938 4.9257V4.92572Z" fill="#057093"/>
<path d="M21.9999 6.10651V20.7667C22.0034 20.9915 21.9175 21.2085 21.7612 21.3702C21.605 21.5319 21.391 21.6251 21.1662 21.6293H10.3036C10.0787 21.6251 9.86477 21.5319 9.7085 21.3702C9.55224 21.2085 9.46642 20.9915 9.46986 20.7667V6.10651C9.46642 5.88167 9.55224 5.66464 9.7085 5.50295C9.86477 5.34126 10.0787 5.2481 10.3036 5.24387H21.1662C21.391 5.2481 21.605 5.34126 21.7612 5.50295C21.9175 5.66464 22.0034 5.88167 21.9999 6.10651Z" fill="url(#paint0_linear_40_466)"/>
<path d="M19.8312 9.09926H11.6385C11.5746 9.09924 11.5133 9.07385 11.4681 9.02866C11.423 8.98348 11.3976 8.9222 11.3976 8.8583V8.37638C11.3976 8.31247 11.423 8.2512 11.4681 8.20602C11.5133 8.16083 11.5746 8.13543 11.6385 8.13541H19.8312C19.8951 8.13543 19.9564 8.16083 20.0016 8.20602C20.0467 8.2512 20.0722 8.31247 20.0722 8.37638V8.8583C20.0722 8.9222 20.0467 8.98348 20.0016 9.02866C19.9564 9.07385 19.8951 9.09924 19.8312 9.09926Z" fill="url(#paint1_linear_40_466)"/>
<path d="M18.8674 11.027H11.6385C11.5746 11.027 11.5133 11.0015 11.4681 10.9564C11.423 10.9112 11.3976 10.8499 11.3976 10.786V10.3041C11.3976 10.2402 11.423 10.1789 11.4681 10.1337C11.5133 10.0886 11.5746 10.0631 11.6385 10.0631H18.8674C18.9313 10.0631 18.9926 10.0886 19.0378 10.1337C19.0829 10.1789 19.1083 10.2402 19.1083 10.3041V10.786C19.1083 10.8499 19.0829 10.9112 19.0378 10.9564C18.9926 11.0015 18.9313 11.027 18.8674 11.027Z" fill="url(#paint2_linear_40_466)"/>
<path d="M19.8312 12.9547H11.6385C11.5746 12.9547 11.5133 12.9292 11.4681 12.8841C11.423 12.8389 11.3976 12.7776 11.3976 12.7137V12.2318C11.3976 12.1679 11.423 12.1066 11.4681 12.0614C11.5133 12.0163 11.5746 11.9908 11.6385 11.9908H19.8312C19.8951 11.9908 19.9564 12.0163 20.0016 12.0614C20.0467 12.1066 20.0722 12.1679 20.0722 12.2318V12.7137C20.0722 12.7776 20.0467 12.8389 20.0016 12.8841C19.9564 12.9292 19.8951 12.9547 19.8312 12.9547Z" fill="url(#paint3_linear_40_466)"/>
<path d="M19.8312 16.8101H11.6385C11.5746 16.8101 11.5133 16.7846 11.4681 16.7395C11.423 16.6943 11.3976 16.633 11.3976 16.5691V16.0872C11.3976 16.0233 11.423 15.962 11.4681 15.9168C11.5133 15.8717 11.5746 15.8462 11.6385 15.8462H19.8312C19.8951 15.8462 19.9564 15.8717 20.0016 15.9168C20.0467 15.962 20.0722 16.0233 20.0722 16.0872V16.5691C20.0722 16.633 20.0467 16.6943 20.0016 16.7395C19.9564 16.7846 19.8951 16.8101 19.8312 16.8101Z" fill="url(#paint4_linear_40_466)"/>
<path d="M18.8674 14.8824H11.6385C11.5746 14.8824 11.5133 14.8569 11.4681 14.8118C11.423 14.7666 11.3976 14.7053 11.3976 14.6414V14.1595C11.3976 14.0956 11.423 14.0343 11.4681 13.9891C11.5133 13.944 11.5746 13.9185 11.6385 13.9185H18.8674C18.9313 13.9185 18.9926 13.944 19.0378 13.9891C19.0829 14.0343 19.1083 14.0956 19.1083 14.1595V14.6414C19.1083 14.7053 19.0829 14.7666 19.0378 14.8118C18.9926 14.8569 18.9313 14.8824 18.8674 14.8824Z" fill="url(#paint5_linear_40_466)"/>
<path d="M18.8674 18.7378H11.6385C11.5746 18.7378 11.5133 18.7123 11.4681 18.6672C11.423 18.622 11.3976 18.5607 11.3976 18.4968V18.0149C11.3976 17.951 11.423 17.8897 11.4681 17.8445C11.5133 17.7994 11.5746 17.7739 11.6385 17.7739H18.8674C18.9313 17.7739 18.9926 17.7994 19.0378 17.8445C19.0829 17.8897 19.1083 17.951 19.1083 18.0149V18.4968C19.1083 18.5607 19.0829 18.622 19.0378 18.6672C18.9926 18.7123 18.9313 18.7378 18.8674 18.7378Z" fill="url(#paint6_linear_40_466)"/>
<path d="M10.4337 11.2124V15.6607C10.4355 15.6991 10.4485 15.7361 10.4712 15.7672C10.494 15.7982 10.5254 15.8217 10.5615 15.8349C10.5977 15.8481 10.6369 15.8503 10.6743 15.8411C10.7116 15.832 10.7454 15.812 10.7714 15.7837L12.7639 13.6367C12.8149 13.5825 12.8433 13.5109 12.8433 13.4365C12.8433 13.3621 12.8149 13.2906 12.7639 13.2364L10.7714 11.0894C10.7454 11.0611 10.7116 11.041 10.6743 11.032C10.6369 11.0228 10.5977 11.0249 10.5615 11.0381C10.5254 11.0513 10.494 11.0749 10.4712 11.1059C10.4485 11.1368 10.4355 11.174 10.4337 11.2124Z" fill="url(#paint7_linear_40_466)"/>
<path d="M11.3976 12.4727V14.4004H7.06023C6.93242 14.4004 6.80983 14.3496 6.71946 14.2593C6.62908 14.1689 6.57831 14.0463 6.57831 13.9185V12.9547C6.57831 12.8269 6.62908 12.7043 6.71946 12.6138C6.80983 12.5235 6.93242 12.4727 7.06023 12.4727H11.3976Z" fill="url(#paint8_linear_40_466)"/>
<path opacity="0.05" d="M13.118 12.9065L11.1229 10.7619C11.0313 10.6628 10.9121 10.5934 10.7807 10.5628C10.6492 10.532 10.5117 10.5414 10.3856 10.5897C10.2596 10.6379 10.1509 10.7228 10.0736 10.8333C9.99622 10.944 9.95381 11.0752 9.95179 11.2101V11.9908H9.46986V12.4727H10.4337V11.2101C10.435 11.1603 10.4561 11.1129 10.4922 11.0786C10.5284 11.0443 10.5767 11.0257 10.6265 11.027C10.6537 11.0265 10.6807 11.0318 10.7055 11.0426C10.7305 11.0535 10.7528 11.0695 10.7711 11.0896L12.7662 13.2342C12.8152 13.2903 12.8421 13.3622 12.8421 13.4366C12.8421 13.511 12.8152 13.5829 12.7662 13.639L10.7711 15.7836C10.7528 15.8037 10.7305 15.8198 10.7055 15.8306C10.6807 15.8414 10.6537 15.8467 10.6265 15.8462C10.5767 15.8475 10.5284 15.8289 10.4922 15.7945C10.4561 15.7602 10.435 15.7129 10.4337 15.6631V14.4004H9.46986V14.8824H9.95179V15.6631C9.95381 15.798 9.99622 15.9292 10.0736 16.0398C10.1509 16.1504 10.2596 16.2353 10.3856 16.2835C10.5117 16.3318 10.6492 16.3411 10.7807 16.3104C10.9121 16.2797 11.0313 16.2103 11.1229 16.1113L13.118 13.9667C13.2527 13.8231 13.3277 13.6335 13.3277 13.4366C13.3277 13.2397 13.2527 13.0502 13.118 12.9065Z" fill="black"/>
<path opacity="0.07" d="M12.9397 13.0703L10.9494 10.9258C10.8904 10.8621 10.8139 10.8176 10.7295 10.7977C10.6452 10.7778 10.5568 10.7834 10.4756 10.814C10.3945 10.8444 10.3242 10.8984 10.2738 10.9689C10.2235 11.0395 10.1953 11.1234 10.1928 11.2101V12.2318H9.46986V12.4727H10.4337V11.2101C10.435 11.1603 10.4561 11.1129 10.4922 11.0786C10.5284 11.0443 10.5767 11.0257 10.6265 11.027C10.6537 11.0265 10.6807 11.0318 10.7055 11.0426C10.7305 11.0534 10.7528 11.0695 10.7711 11.0896L12.7662 13.2342C12.8152 13.2903 12.8421 13.3622 12.8421 13.4366C12.8421 13.511 12.8152 13.5829 12.7662 13.639L10.7711 15.7836C10.7528 15.8037 10.7305 15.8197 10.7055 15.8306C10.6807 15.8414 10.6537 15.8467 10.6265 15.8462C10.5767 15.8475 10.5284 15.8289 10.4922 15.7945C10.4561 15.7602 10.435 15.7129 10.4337 15.6631V14.4004H9.46986V14.6414H10.1928V15.6631C10.1953 15.7497 10.2235 15.8337 10.2738 15.9042C10.3242 15.9748 10.3945 16.0288 10.4756 16.0593C10.5568 16.0898 10.6452 16.0955 10.7295 16.0755C10.8139 16.0556 10.8904 16.011 10.9494 15.9474L12.9397 13.8028C13.0326 13.7035 13.0843 13.5726 13.0843 13.4366C13.0843 13.3006 13.0326 13.1697 12.9397 13.0703Z" fill="black"/>
<defs>
<linearGradient id="paint0_linear_40_466" x1="13.4204" y1="5.49543" x2="22.6296" y2="19.0738" gradientUnits="userSpaceOnUse">
<stop stop-color="#7DD8F3"/>
<stop offset="1" stop-color="#45B0D0"/>
</linearGradient>
<linearGradient id="paint1_linear_40_466" x1="13.3194" y1="7.99183" x2="13.425" y2="9.38801" gradientUnits="userSpaceOnUse">
<stop stop-color="#FCFCFC"/>
<stop offset="0.95" stop-color="#C3C9CD"/>
</linearGradient>
<linearGradient id="paint2_linear_40_466" x1="13.1058" y1="9.91953" x2="13.2245" y2="11.3136" gradientUnits="userSpaceOnUse">
<stop stop-color="#FCFCFC"/>
<stop offset="0.95" stop-color="#C3C9CD"/>
</linearGradient>
<linearGradient id="paint3_linear_40_466" x1="13.3194" y1="11.8472" x2="13.425" y2="13.2434" gradientUnits="userSpaceOnUse">
<stop stop-color="#FCFCFC"/>
<stop offset="0.95" stop-color="#C3C9CD"/>
</linearGradient>
<linearGradient id="paint4_linear_40_466" x1="13.3194" y1="15.7026" x2="13.425" y2="17.0988" gradientUnits="userSpaceOnUse">
<stop stop-color="#FCFCFC"/>
<stop offset="0.95" stop-color="#C3C9CD"/>
</linearGradient>
<linearGradient id="paint5_linear_40_466" x1="13.1058" y1="13.7749" x2="13.2245" y2="15.169" gradientUnits="userSpaceOnUse">
<stop stop-color="#FCFCFC"/>
<stop offset="0.95" stop-color="#C3C9CD"/>
</linearGradient>
<linearGradient id="paint6_linear_40_466" x1="13.1058" y1="17.6303" x2="13.2245" y2="19.0244" gradientUnits="userSpaceOnUse">
<stop stop-color="#FCFCFC"/>
<stop offset="0.95" stop-color="#C3C9CD"/>
</linearGradient>
<linearGradient id="paint7_linear_40_466" x1="10.6901" y1="10.2043" x2="12.1277" y2="16.7811" gradientUnits="userSpaceOnUse">
<stop stop-color="#057093"/>
<stop offset="1" stop-color="#057093"/>
</linearGradient>
<linearGradient id="paint8_linear_40_466" x1="8.43613" y1="10.6968" x2="9.87371" y2="17.2737" gradientUnits="userSpaceOnUse">
<stop stop-color="#057093"/>
<stop offset="1" stop-color="#057093"/>
</linearGradient>
</defs>
</svg>
