<svg width="24" height="24" viewBox="0 0 24 24" fill="none" xmlns="http://www.w3.org/2000/svg">
<path d="M21.7035 9.66153C20.509 9.64703 19.3525 9.02453 18.712 7.91503C18.0955 6.84703 18.108 5.59053 18.631 4.56853C17.5685 3.62503 16.31 2.89903 14.916 2.47453C14.2885 3.41803 13.2175 4.04003 12 4.04003C10.7825 4.04003 9.7115 3.41803 9.0845 2.47453C7.6905 2.89903 6.432 3.62503 5.3695 4.56853C5.8925 5.59053 5.905 6.84703 5.2885 7.91503C4.648 9.02453 3.4915 9.64703 2.297 9.66153C2.11 10.425 2 11.219 2 12.04C2 12.682 2.0665 13.3075 2.182 13.916C3.4165 13.8905 4.6275 14.52 5.2885 15.665C5.9725 16.85 5.882 18.267 5.1785 19.3375C6.2195 20.311 7.465 21.0655 8.8485 21.525C9.4135 20.352 10.6105 19.54 12 19.54C13.3895 19.54 14.5865 20.352 15.1515 21.5255C16.535 21.066 17.7805 20.3115 18.8215 19.338C18.118 18.2675 18.0275 16.8505 18.7115 15.6655C19.3725 14.5205 20.583 13.891 21.818 13.9165C21.9335 13.3075 22 12.682 22 12.04C22 11.219 21.89 10.425 21.7035 9.66153Z" fill="url(#paint0_linear_40_403)"/>
<g opacity="0.05">
<path d="M9.1115 9.54708V10.6146L6.124 11.8931V11.9201L9.1115 13.1221V14.1901L4.922 12.2791V11.5526L9.1115 9.54708ZM9.6115 8.75358L8.8955 9.09608L4.706 11.1011L4.422 11.2371V11.5521V12.2786V12.6001L4.7145 12.7336L8.904 14.6446L9.6115 14.9671V14.1901V13.1226V12.7846L9.298 12.6586L7.3955 11.8931L9.308 11.0746L9.6115 10.9446V10.6146V9.54708V8.75358Z" fill="black"/>
<path d="M14.1395 8.04008L11.004 15.5401H9.73899L12.861 8.04008H14.1395ZM14.8905 7.54008H14.1395H12.861H12.5275L12.3995 7.84808L9.27749 15.3481L8.98949 16.0401H9.73899H11.004H11.337L11.4655 15.7331L14.601 8.23308L14.8905 7.54008Z" fill="black"/>
<path d="M14.8885 9.5026L19.078 11.4941V12.2206L14.8885 14.1316V13.0686L17.885 11.8711V11.8531L14.8885 10.5701V9.5026ZM14.3885 8.7111V9.5026V10.5701V10.9001L14.6915 11.0301L16.599 11.8466L14.703 12.6046L14.3885 12.7301V13.0686V14.1316V14.9091L15.096 14.5866L19.2855 12.6756L19.578 12.5421V12.2206V11.4941V11.1781L19.2925 11.0426L15.103 9.0511L14.3885 8.7111Z" fill="black"/>
</g>
<g opacity="0.07">
<path d="M9.1115 9.54705V10.6146L6.124 11.8931V11.9201L9.1115 13.1221V14.1901L4.922 12.2791V11.5526L9.1115 9.54705ZM9.3615 9.15055L9.0035 9.32205L4.814 11.3271L4.672 11.3951V11.5526V12.2791V12.4401L4.8185 12.5066L9.008 14.4176L9.3615 14.5791V14.1901V13.1226V12.9536L9.205 12.8906L6.744 11.9001L9.21 10.8446L9.3615 10.7796V10.6146V9.54705V9.15055Z" fill="black"/>
<path d="M14.1395 8.04008L11.004 15.5401H9.73899L12.861 8.04008H14.1395ZM14.515 7.79008H14.1395H12.861H12.6945L12.6305 7.94408L9.50849 15.4441L9.36449 15.7901H9.73949H11.0045H11.171L11.235 15.6366L14.3705 8.13658L14.515 7.79008Z" fill="black"/>
<path d="M14.8885 9.50261L19.078 11.4941V12.2206L14.8885 14.1316V13.0686L17.885 11.8711V11.8531L14.8885 10.5701V9.50261ZM14.6385 9.10661V9.50211V10.5696V10.7346L14.79 10.7996L17.253 11.8541L14.796 12.8361L14.639 12.8991V13.0686V14.1316V14.5206L14.9925 14.3591L19.182 12.4481L19.3285 12.3816V12.2206V11.4941V11.3361L19.186 11.2681L14.9965 9.27661L14.6385 9.10661Z" fill="black"/>
</g>
<path d="M9.1115 14.19L4.922 12.279V11.5525L9.1115 9.54752V10.615L6.124 11.8935V11.9205L9.1115 13.1225V14.19Z" fill="url(#paint1_linear_40_403)"/>
<path d="M14.1395 8.04008L11.004 15.5401H9.739L12.861 8.04008H14.1395Z" fill="url(#paint2_linear_40_403)"/>
<path d="M19.078 12.2206L14.8885 14.1316V13.0686L17.885 11.8711V11.8531L14.8885 10.5701V9.50259L19.078 11.4941V12.2206Z" fill="url(#paint3_linear_40_403)"/>
<defs>
<linearGradient id="paint0_linear_40_403" x1="2.6635" y1="2.71203" x2="19.0415" y2="19.0895" gradientUnits="userSpaceOnUse">
<stop stop-color="#889097"/>
<stop offset="0.331" stop-color="#848C94"/>
<stop offset="0.669" stop-color="#78828B"/>
<stop offset="1" stop-color="#64717C"/>
</linearGradient>
<linearGradient id="paint1_linear_40_403" x1="7.017" y1="8.86602" x2="7.017" y2="26.2355" gradientUnits="userSpaceOnUse">
<stop stop-color="white"/>
<stop offset="0.242" stop-color="#F2F2F2"/>
<stop offset="1" stop-color="#CCCCCC"/>
</linearGradient>
<linearGradient id="paint2_linear_40_403" x1="11.9395" y1="8.86608" x2="11.9395" y2="26.2356" gradientUnits="userSpaceOnUse">
<stop stop-color="white"/>
<stop offset="0.242" stop-color="#F2F2F2"/>
<stop offset="1" stop-color="#CCCCCC"/>
</linearGradient>
<linearGradient id="paint3_linear_40_403" x1="16.983" y1="8.86609" x2="16.983" y2="26.2356" gradientUnits="userSpaceOnUse">
<stop stop-color="white"/>
<stop offset="0.242" stop-color="#F2F2F2"/>
<stop offset="1" stop-color="#CCCCCC"/>
</linearGradient>
</defs>
</svg>
