<svg width="24" height="24" viewBox="0 0 24 24" fill="none" xmlns="http://www.w3.org/2000/svg">
<path d="M5.84777 12.6671L14.9042 21.7236C15.2728 22.0921 15.8699 22.0921 16.2385 21.7236L18.1522 19.8098C18.5208 19.4413 18.5208 18.8441 18.1522 18.4756L9.09579 9.41911C8.72722 9.05055 8.13009 9.05055 7.76153 9.41911L5.84777 11.3329C5.47968 11.7014 5.47968 12.2986 5.84777 12.6671Z" fill="url(#paint0_linear_40_384)"/>
<path d="M9.09578 14.5809L18.1522 5.52444C18.5208 5.15588 18.5208 4.55875 18.1522 4.19019L16.2385 2.27642C15.8699 1.90786 15.2728 1.90786 14.9042 2.27642L5.84776 11.3329C5.4792 11.7014 5.4792 12.2986 5.84776 12.6671L7.76153 14.5809C8.13009 14.949 8.72722 14.949 9.09578 14.5809Z" fill="url(#paint1_linear_40_384)"/>
<defs>
<linearGradient id="paint0_linear_40_384" x1="17.6923" y1="21.2636" x2="9.55816" y2="13.1295" gradientUnits="userSpaceOnUse">
<stop offset="0.365" stop-color="#199AE0"/>
<stop offset="0.699" stop-color="#1898DE"/>
<stop offset="0.819" stop-color="#1691D8"/>
<stop offset="0.905" stop-color="#1186CC"/>
<stop offset="0.974" stop-color="#0A75BC"/>
<stop offset="1" stop-color="#076CB3"/>
</linearGradient>
<linearGradient id="paint1_linear_40_384" x1="6.86631" y1="13.5623" x2="17.3404" y2="3.08831" gradientUnits="userSpaceOnUse">
<stop stop-color="#32BDEF"/>
<stop offset="1" stop-color="#1EA2E4"/>
</linearGradient>
</defs>
</svg>
