<svg width="24" height="24" viewBox="0 0 24 24" fill="none" xmlns="http://www.w3.org/2000/svg">
<path d="M21 21H5C4.4475 21 4 20.5525 4 20V10C4 9.4475 4.4475 9 5 9H21C21.5525 9 22 9.4475 22 10V20C22 20.5525 21.5525 21 21 21Z" fill="url(#paint0_linear_40_388)"/>
<path d="M9 18.5C9 18.776 8.776 19 8.5 19H6.5C6.224 19 6 18.776 6 18.5C6 18.224 6.224 18 6.5 18H8.5C8.776 18 9 18.224 9 18.5Z" fill="url(#paint1_linear_40_388)"/>
<path d="M12.5 18.5C12.5 18.776 12.276 19 12 19H10C9.724 19 9.5 18.776 9.5 18.5C9.5 18.224 9.724 18 10 18H12C12.276 18 12.5 18.224 12.5 18.5Z" fill="url(#paint2_linear_40_388)"/>
<path d="M16 18.5C16 18.776 15.776 19 15.5 19H13.5C13.224 19 13 18.776 13 18.5C13 18.224 13.224 18 13.5 18H15.5C15.776 18 16 18.224 16 18.5Z" fill="url(#paint3_linear_40_388)"/>
<path d="M19.5 18.5C19.5 18.776 19.276 19 19 19H17C16.724 19 16.5 18.776 16.5 18.5C16.5 18.224 16.724 18 17 18H19C19.276 18 19.5 18.224 19.5 18.5Z" fill="url(#paint4_linear_40_388)"/>
<path opacity="0.05" d="M21 9H4V16H19.1595C20.176 16 21 15.176 21 14.1595V9Z" fill="black"/>
<path opacity="0.07" d="M20.5 9H4V15.5H19.0805C19.8645 15.5 20.5 14.8645 20.5 14.0805V9Z" fill="black"/>
<path d="M19 15H3C2.4475 15 2 14.5525 2 14V4C2 3.4475 2.4475 3 3 3H19C19.5525 3 20 3.4475 20 4V14C20 14.5525 19.5525 15 19 15Z" fill="url(#paint5_linear_40_388)"/>
<path d="M7 12.5C7 12.776 6.776 13 6.5 13H4.5C4.224 13 4 12.776 4 12.5C4 12.224 4.224 12 4.5 12H6.5C6.776 12 7 12.224 7 12.5Z" fill="url(#paint6_linear_40_388)"/>
<path d="M10.5 12.5C10.5 12.776 10.276 13 10 13H8C7.724 13 7.5 12.776 7.5 12.5C7.5 12.224 7.724 12 8 12H10C10.276 12 10.5 12.224 10.5 12.5Z" fill="url(#paint7_linear_40_388)"/>
<path d="M14 12.5C14 12.776 13.776 13 13.5 13H11.5C11.224 13 11 12.776 11 12.5C11 12.224 11.224 12 11.5 12H13.5C13.776 12 14 12.224 14 12.5Z" fill="url(#paint8_linear_40_388)"/>
<path d="M17.5 12.5C17.5 12.776 17.276 13 17 13H15C14.724 13 14.5 12.776 14.5 12.5C14.5 12.224 14.724 12 15 12H17C17.276 12 17.5 12.224 17.5 12.5Z" fill="url(#paint9_linear_40_388)"/>
<path d="M15.934 9.5H18.0655C18.3055 9.5 18.5 9.3055 18.5 9.066V6.9345C18.5 6.6945 18.3055 6.5 18.066 6.5H15.9345C15.6945 6.5 15.5 6.6945 15.5 6.934V9.0655C15.5 9.3055 15.6945 9.5 15.934 9.5Z" fill="#BBD2DE"/>
<defs>
<linearGradient id="paint0_linear_40_388" x1="9.6245" y1="6.8225" x2="15.439" y2="20.9085" gradientUnits="userSpaceOnUse">
<stop stop-color="#F44F5A"/>
<stop offset="0.443" stop-color="#EE3D4A"/>
<stop offset="1" stop-color="#E52030"/>
</linearGradient>
<linearGradient id="paint1_linear_40_388" x1="6.157" y1="19.0545" x2="8.4705" y2="18.0995" gradientUnits="userSpaceOnUse">
<stop stop-color="#FF6B75"/>
<stop offset="0.651" stop-color="#FF5965"/>
<stop offset="1" stop-color="#FF4D5B"/>
</linearGradient>
<linearGradient id="paint2_linear_40_388" x1="9.657" y1="19.0545" x2="11.9705" y2="18.0995" gradientUnits="userSpaceOnUse">
<stop stop-color="#FF6B75"/>
<stop offset="0.651" stop-color="#FF5965"/>
<stop offset="1" stop-color="#FF4D5B"/>
</linearGradient>
<linearGradient id="paint3_linear_40_388" x1="13.157" y1="19.0545" x2="15.4705" y2="18.0995" gradientUnits="userSpaceOnUse">
<stop stop-color="#FF6B75"/>
<stop offset="0.651" stop-color="#FF5965"/>
<stop offset="1" stop-color="#FF4D5B"/>
</linearGradient>
<linearGradient id="paint4_linear_40_388" x1="16.657" y1="19.0545" x2="18.9705" y2="18.0995" gradientUnits="userSpaceOnUse">
<stop stop-color="#FF6B75"/>
<stop offset="0.651" stop-color="#FF5965"/>
<stop offset="1" stop-color="#FF4D5B"/>
</linearGradient>
<linearGradient id="paint5_linear_40_388" x1="7.6245" y1="0.8225" x2="13.439" y2="14.9085" gradientUnits="userSpaceOnUse">
<stop stop-color="#32BDEF"/>
<stop offset="1" stop-color="#1EA2E4"/>
</linearGradient>
<linearGradient id="paint6_linear_40_388" x1="4.157" y1="13.0545" x2="6.4705" y2="12.0995" gradientUnits="userSpaceOnUse">
<stop stop-color="#5BC8EF"/>
<stop offset="1" stop-color="#42BEFC"/>
</linearGradient>
<linearGradient id="paint7_linear_40_388" x1="7.657" y1="13.0545" x2="9.9705" y2="12.0995" gradientUnits="userSpaceOnUse">
<stop stop-color="#5BC8EF"/>
<stop offset="1" stop-color="#42BEFC"/>
</linearGradient>
<linearGradient id="paint8_linear_40_388" x1="11.157" y1="13.0545" x2="13.4705" y2="12.0995" gradientUnits="userSpaceOnUse">
<stop stop-color="#5BC8EF"/>
<stop offset="1" stop-color="#42BEFC"/>
</linearGradient>
<linearGradient id="paint9_linear_40_388" x1="14.657" y1="13.0545" x2="16.9705" y2="12.0995" gradientUnits="userSpaceOnUse">
<stop stop-color="#5BC8EF"/>
<stop offset="1" stop-color="#42BEFC"/>
</linearGradient>
</defs>
</svg>
