<svg width="24" height="24" viewBox="0 0 24 24" fill="none" xmlns="http://www.w3.org/2000/svg">
<path d="M19.9325 8.91513H8.03374V4.06748H19.4918C19.7351 4.06748 19.9325 4.26491 19.9325 4.50818V8.91513Z" fill="url(#paint0_linear_40_456)"/>
<path d="M15.5256 8.91513H4.50817C4.26491 8.91513 4.06747 8.7177 4.06747 8.47444V4.50818C4.06747 4.26491 4.26491 4.06748 4.50817 4.06748H15.5256C15.7688 4.06748 15.9663 4.26491 15.9663 4.50818V8.47444C15.9663 8.7177 15.7688 8.91513 15.5256 8.91513Z" fill="url(#paint1_linear_40_456)"/>
<path opacity="0.05" d="M19.9325 7.59305H4.06747V8.47444C4.06747 8.7177 4.26491 8.91513 4.50817 8.91513H8.03373H15.5256H19.9325V7.59305Z" fill="black"/>
<path opacity="0.07" d="M19.9325 7.81339H4.06747V8.47444C4.06747 8.7177 4.26491 8.91513 4.50817 8.91513H8.03373H15.5256H19.9325V7.81339Z" fill="black"/>
<path d="M19.9325 19.9325H15.0849V8.03374H20.3732C20.6165 8.03374 20.8139 8.23118 20.8139 8.47444V19.0511C20.8139 19.5381 20.4195 19.9325 19.9325 19.9325Z" fill="url(#paint2_linear_40_456)"/>
<path d="M15.0849 19.9325H4.06749C3.58052 19.9325 3.1861 19.5381 3.1861 19.0511V8.47444C3.1861 8.23118 3.38353 8.03374 3.62679 8.03374H15.9663V19.0511C15.9663 19.5381 15.5718 19.9325 15.0849 19.9325Z" fill="url(#paint3_linear_40_456)"/>
<path d="M15.9663 8.03374H3.45844C3.29142 8.03374 3.13894 8.12805 3.06446 8.27745L2.02353 10.3593C1.95038 10.5056 2.05659 10.6779 2.22053 10.6779H14.3718C14.5388 10.6779 14.6913 10.5836 14.7658 10.4342L15.9663 8.03374Z" fill="url(#paint4_linear_40_456)"/>
<path d="M15.9663 8.03374H20.5416C20.7086 8.03374 20.8611 8.12805 20.9355 8.27745L21.9765 10.3593C22.0496 10.5056 21.9434 10.6779 21.7795 10.6779H17.5607C17.3937 10.6779 17.2412 10.5836 17.1667 10.4342L15.9663 8.03374Z" fill="url(#paint5_linear_40_456)"/>
<defs>
<linearGradient id="paint0_linear_40_456" x1="12.2305" y1="4.87263" x2="18.9066" y2="11.5298" gradientUnits="userSpaceOnUse">
<stop stop-color="#C26715"/>
<stop offset="0.508" stop-color="#B85515"/>
<stop offset="1" stop-color="#AD3F16"/>
</linearGradient>
<linearGradient id="paint1_linear_40_456" x1="4.63685" y1="2.29589" x2="13.7509" y2="9.40298" gradientUnits="userSpaceOnUse">
<stop stop-color="#EBA84B"/>
<stop offset="1" stop-color="#D97218"/>
</linearGradient>
<linearGradient id="paint2_linear_40_456" x1="13.5574" y1="9.59204" x2="21.8936" y2="18.1755" gradientUnits="userSpaceOnUse">
<stop stop-color="#EBA600"/>
<stop offset="1" stop-color="#C28200"/>
</linearGradient>
<linearGradient id="paint3_linear_40_456" x1="3.811" y1="7.78475" x2="15.389" y2="19.7064" gradientUnits="userSpaceOnUse">
<stop stop-color="#FFD869"/>
<stop offset="1" stop-color="#FEC52B"/>
</linearGradient>
<linearGradient id="paint4_linear_40_456" x1="8.983" y1="10.5633" x2="8.983" y2="-3.41156" gradientUnits="userSpaceOnUse">
<stop stop-color="#EBA600"/>
<stop offset="1" stop-color="#C28200"/>
</linearGradient>
<linearGradient id="paint5_linear_40_456" x1="18.9833" y1="10.5585" x2="18.9833" y2="8.72652" gradientUnits="userSpaceOnUse">
<stop stop-color="#FFD869"/>
<stop offset="1" stop-color="#FEC52B"/>
</linearGradient>
</defs>
</svg>
