<svg width="24" height="24" viewBox="0 0 24 24" fill="none" xmlns="http://www.w3.org/2000/svg">
<path d="M18.8421 2C18.8421 2.29053 18.6063 2.52632 18.3158 2.52632C18.0253 2.52632 17.7895 2.29053 17.7895 2H16.7368C16.7368 2.29053 16.5011 2.52632 16.2105 2.52632C15.92 2.52632 15.6842 2.29053 15.6842 2H14.6316C14.6316 2.29053 14.3958 2.52632 14.1053 2.52632C13.8147 2.52632 13.579 2.29053 13.579 2H12.5263C12.5263 2.29053 12.2905 2.52632 12 2.52632C11.7095 2.52632 11.4737 2.29053 11.4737 2H10.4211C10.4211 2.29053 10.1853 2.52632 9.89474 2.52632C9.60422 2.52632 9.36843 2.29053 9.36843 2H8.3158C8.3158 2.29053 8.08001 2.52632 7.78948 2.52632C7.49895 2.52632 7.26317 2.29053 7.26317 2H6.21053C6.21053 2.29053 5.97474 2.52632 5.68422 2.52632C5.39369 2.52632 5.1579 2.29053 5.1579 2H4.63159C4.34106 2 4.10527 2.23579 4.10527 2.52632V20.9474C4.10527 21.5289 4.57632 22 5.1579 22H18.8421C19.4237 22 19.8947 21.5289 19.8947 20.9474V2.52632C19.8947 2.23579 19.659 2 19.3684 2H18.8421Z" fill="url(#paint0_linear_40_417)"/>
<path d="M17.5263 6.21052H6.4737C6.32844 6.21052 6.21054 6.09263 6.21054 5.94737V4.89473C6.21054 4.74947 6.32844 4.63158 6.4737 4.63158H17.5263C17.6716 4.63158 17.7895 4.74947 17.7895 4.89473V5.94737C17.7895 6.09263 17.6716 6.21052 17.5263 6.21052Z" fill="#057093"/>
<path d="M17.5263 9.89473H16.4737C16.3284 9.89473 16.2105 9.77684 16.2105 9.63158V9.10526C16.2105 8.96 16.3284 8.8421 16.4737 8.8421H17.5263C17.6716 8.8421 17.7895 8.96 17.7895 9.10526V9.63158C17.7895 9.77684 17.6716 9.89473 17.5263 9.89473Z" fill="#057093"/>
<path d="M13.3158 9.89473H6.4737C6.32844 9.89473 6.21054 9.77684 6.21054 9.63158V9.10526C6.21054 8.96 6.32844 8.8421 6.4737 8.8421H13.3158C13.4611 8.8421 13.579 8.96 13.579 9.10526V9.63158C13.579 9.77684 13.4611 9.89473 13.3158 9.89473Z" fill="#057093"/>
<path d="M17.5263 12H16.4737C16.3284 12 16.2105 11.8821 16.2105 11.7368V11.2105C16.2105 11.0653 16.3284 10.9474 16.4737 10.9474H17.5263C17.6716 10.9474 17.7895 11.0653 17.7895 11.2105V11.7368C17.7895 11.8821 17.6716 12 17.5263 12Z" fill="#057093"/>
<path d="M11.7369 12H6.4737C6.32844 12 6.21054 11.8821 6.21054 11.7368V11.2105C6.21054 11.0653 6.32844 10.9474 6.4737 10.9474H11.7369C11.8821 10.9474 12 11.0653 12 11.2105V11.7368C12 11.8821 11.8821 12 11.7369 12Z" fill="#057093"/>
<path d="M17.5263 14.1053H16.4737C16.3284 14.1053 16.2105 13.9874 16.2105 13.8421V13.3158C16.2105 13.1705 16.3284 13.0526 16.4737 13.0526H17.5263C17.6716 13.0526 17.7895 13.1705 17.7895 13.3158V13.8421C17.7895 13.9874 17.6716 14.1053 17.5263 14.1053Z" fill="#057093"/>
<path d="M13.3158 14.1053H6.4737C6.32844 14.1053 6.21054 13.9874 6.21054 13.8421V13.3158C6.21054 13.1705 6.32844 13.0526 6.4737 13.0526H13.3158C13.4611 13.0526 13.579 13.1705 13.579 13.3158V13.8421C13.579 13.9874 13.4611 14.1053 13.3158 14.1053Z" fill="#057093"/>
<path d="M17.5263 16.2105H16.4737C16.3284 16.2105 16.2105 16.0926 16.2105 15.9474V15.4211C16.2105 15.2758 16.3284 15.1579 16.4737 15.1579H17.5263C17.6716 15.1579 17.7895 15.2758 17.7895 15.4211V15.9474C17.7895 16.0926 17.6716 16.2105 17.5263 16.2105Z" fill="#057093"/>
<path d="M11.7369 16.2105H6.4737C6.32844 16.2105 6.21054 16.0926 6.21054 15.9474V15.4211C6.21054 15.2758 6.32844 15.1579 6.4737 15.1579H11.7369C11.8821 15.1579 12 15.2758 12 15.4211V15.9474C12 16.0926 11.8821 16.2105 11.7369 16.2105Z" fill="#057093"/>
<path d="M17.5263 19.3684H15.4211C15.2758 19.3684 15.1579 19.2505 15.1579 19.1053V18.5789C15.1579 18.4337 15.2758 18.3158 15.4211 18.3158H17.5263C17.6716 18.3158 17.7895 18.4337 17.7895 18.5789V19.1053C17.7895 19.2505 17.6716 19.3684 17.5263 19.3684Z" fill="#057093"/>
<path d="M13.3158 19.3684H8.57895C8.43369 19.3684 8.3158 19.2505 8.3158 19.1053V18.5789C8.3158 18.4337 8.43369 18.3158 8.57895 18.3158H13.3158C13.4611 18.3158 13.579 18.4337 13.579 18.5789V19.1053C13.579 19.2505 13.4611 19.3684 13.3158 19.3684Z" fill="#057093"/>
<defs>
<linearGradient id="paint0_linear_40_417" x1="9.08347" y1="2.30706" x2="20.1877" y2="19.2096" gradientUnits="userSpaceOnUse">
<stop stop-color="#7DD8F3"/>
<stop offset="1" stop-color="#45B0D0"/>
</linearGradient>
</defs>
</svg>
