<svg width="24" height="24" viewBox="0 0 24 24" fill="none" xmlns="http://www.w3.org/2000/svg">
<path d="M2.5 13H21.5C21.776 13 22 12.776 22 12.5V11.5C22 11.224 21.776 11 21.5 11H2.5C2.224 11 2 11.224 2 11.5V12.5C2 12.776 2.224 13 2.5 13Z" fill="#0076D7"/>
<path d="M4.5 9.5H19.5V6.5C19.5 6.224 19.276 6 19 6H5C4.724 6 4.5 6.224 4.5 6.5V9.5Z" fill="#0076D7"/>
<path d="M20.5 9.5H3.5C3.224 9.5 3 9.724 3 10V19.5C3 20.6045 3.8955 21.5 5 21.5H19C20.1045 21.5 21 20.6045 21 19.5V10C21 9.724 20.776 9.5 20.5 9.5Z" fill="url(#paint0_linear_40_431)"/>
<path d="M17 19C17.2761 19 17.5 18.7761 17.5 18.5C17.5 18.2239 17.2761 18 17 18C16.7239 18 16.5 18.2239 16.5 18.5C16.5 18.7761 16.7239 19 17 19Z" fill="white"/>
<path d="M7 19C7.27614 19 7.5 18.7761 7.5 18.5C7.5 18.2239 7.27614 18 7 18C6.72386 18 6.5 18.2239 6.5 18.5C6.5 18.7761 6.72386 19 7 19Z" fill="white"/>
<path d="M12 17C12.2761 17 12.5 16.7761 12.5 16.5C12.5 16.2239 12.2761 16 12 16C11.7239 16 11.5 16.2239 11.5 16.5C11.5 16.7761 11.7239 17 12 17Z" fill="white"/>
<path d="M14 17C14.2761 17 14.5 16.7761 14.5 16.5C14.5 16.2239 14.2761 16 14 16C13.7239 16 13.5 16.2239 13.5 16.5C13.5 16.7761 13.7239 17 14 17Z" fill="white"/>
<path d="M16 17C16.2761 17 16.5 16.7761 16.5 16.5C16.5 16.2239 16.2761 16 16 16C15.7239 16 15.5 16.2239 15.5 16.5C15.5 16.7761 15.7239 17 16 17Z" fill="white"/>
<path d="M18 17C18.2761 17 18.5 16.7761 18.5 16.5C18.5 16.2239 18.2761 16 18 16C17.7239 16 17.5 16.2239 17.5 16.5C17.5 16.7761 17.7239 17 18 17Z" fill="white"/>
<path d="M6 17C6.27614 17 6.5 16.7761 6.5 16.5C6.5 16.2239 6.27614 16 6 16C5.72386 16 5.5 16.2239 5.5 16.5C5.5 16.7761 5.72386 17 6 17Z" fill="white"/>
<path d="M8 17C8.27614 17 8.5 16.7761 8.5 16.5C8.5 16.2239 8.27614 16 8 16C7.72386 16 7.5 16.2239 7.5 16.5C7.5 16.7761 7.72386 17 8 17Z" fill="white"/>
<path d="M10 17C10.2761 17 10.5 16.7761 10.5 16.5C10.5 16.2239 10.2761 16 10 16C9.72386 16 9.5 16.2239 9.5 16.5C9.5 16.7761 9.72386 17 10 17Z" fill="white"/>
<path d="M11 15C11.2761 15 11.5 14.7761 11.5 14.5C11.5 14.2239 11.2761 14 11 14C10.7239 14 10.5 14.2239 10.5 14.5C10.5 14.7761 10.7239 15 11 15Z" fill="white"/>
<path d="M13 15C13.2761 15 13.5 14.7761 13.5 14.5C13.5 14.2239 13.2761 14 13 14C12.7239 14 12.5 14.2239 12.5 14.5C12.5 14.7761 12.7239 15 13 15Z" fill="white"/>
<path d="M15 15C15.2761 15 15.5 14.7761 15.5 14.5C15.5 14.2239 15.2761 14 15 14C14.7239 14 14.5 14.2239 14.5 14.5C14.5 14.7761 14.7239 15 15 15Z" fill="white"/>
<path d="M17 15C17.2761 15 17.5 14.7761 17.5 14.5C17.5 14.2239 17.2761 14 17 14C16.7239 14 16.5 14.2239 16.5 14.5C16.5 14.7761 16.7239 15 17 15Z" fill="white"/>
<path d="M7 15C7.27614 15 7.5 14.7761 7.5 14.5C7.5 14.2239 7.27614 14 7 14C6.72386 14 6.5 14.2239 6.5 14.5C6.5 14.7761 6.72386 15 7 15Z" fill="white"/>
<path d="M9 15C9.27614 15 9.5 14.7761 9.5 14.5C9.5 14.2239 9.27614 14 9 14C8.72386 14 8.5 14.2239 8.5 14.5C8.5 14.7761 8.72386 15 9 15Z" fill="white"/>
<path d="M15.5 18.5C15.5 18.7765 15.276 19 15 19H9C8.724 19 8.5 18.7765 8.5 18.5C8.5 18.2235 8.724 18 9 18H15C15.276 18 15.5 18.2235 15.5 18.5Z" fill="white"/>
<path d="M4.5 9.5V10.5C4.5 11.0525 4.9475 11.5 5.5 11.5H7.5C7.5 12.0525 7.9475 12.5 8.5 12.5H15C15.5525 12.5 16 12.0525 16 11.5H18.5C19.0525 11.5 19.5 11.0525 19.5 10.5V9.5H4.5Z" fill="#58646E"/>
<path d="M18.5 3.5C18.5 2.9475 18.0525 2.5 17.5 2.5H6.5C5.9475 2.5 5.5 2.9475 5.5 3.5V10.5H8.5V11C8.5 11.276 8.724 11.5 9 11.5H14.5C14.776 11.5 15 11.276 15 11V10.5H18.5V3.5Z" fill="url(#paint1_linear_40_431)"/>
<path d="M15.991 6.56555H8.491C8.353 6.56555 8.241 6.45355 8.241 6.31555V5.81555C8.241 5.67755 8.353 5.56555 8.491 5.56555H15.991C16.129 5.56555 16.241 5.67755 16.241 5.81555V6.31555C16.241 6.45405 16.1295 6.56555 15.991 6.56555Z" fill="#057093"/>
<path d="M14.491 8.56555H8.491C8.353 8.56555 8.241 8.45355 8.241 8.31555V7.81555C8.241 7.67755 8.353 7.56555 8.491 7.56555H14.491C14.629 7.56555 14.741 7.67755 14.741 7.81555V8.31555C14.741 8.45405 14.6295 8.56555 14.491 8.56555Z" fill="#057093"/>
<defs>
<linearGradient id="paint0_linear_40_431" x1="12" y1="9.5785" x2="12" y2="21.5405" gradientUnits="userSpaceOnUse">
<stop stop-color="#889097"/>
<stop offset="1" stop-color="#64717C"/>
</linearGradient>
<linearGradient id="paint1_linear_40_431" x1="9.59871" y1="2.63818" x2="13.062" y2="12.2835" gradientUnits="userSpaceOnUse">
<stop stop-color="#7DD8F3"/>
<stop offset="1" stop-color="#45B0D0"/>
</linearGradient>
</defs>
</svg>
