<svg width="24" height="24" viewBox="0 0 24 24" fill="none" xmlns="http://www.w3.org/2000/svg">
<path d="M9.55837 2H5.3965C4.97579 2 4.58664 2.2235 4.37418 2.58689L2.30376 6.13663C2.08868 6.50527 2.08868 6.96069 2.30376 7.32881L4.37418 10.8785C4.58611 11.2419 4.97527 11.4654 5.3965 11.4654H9.55837C9.97908 11.4654 10.3682 11.2419 10.5807 10.8785L12.6511 7.32881C12.8662 6.96017 12.8662 6.50475 12.6511 6.13663L10.5807 2.58689C10.3688 2.2235 9.97961 2 9.55837 2Z" fill="url(#paint0_linear_40_520)"/>
<path d="M18.6878 7.27518H14.7767C14.3481 7.27518 13.9532 7.50657 13.7444 7.88047L11.7576 11.4302C11.5567 11.7894 11.5567 12.2269 11.7576 12.5861L13.7444 16.1358C13.9537 16.5097 14.3487 16.7411 14.7767 16.7411H18.6878C19.1164 16.7411 19.5113 16.5097 19.7201 16.1358L21.7069 12.5861C21.9078 12.2269 21.9078 11.7894 21.7069 11.4302L19.7201 7.88047C19.5113 7.50657 19.1164 7.27518 18.6878 7.27518Z" fill="url(#paint1_linear_40_520)"/>
<path d="M9.59571 12.534H5.41596C4.99578 12.534 4.60662 12.757 4.39469 13.1199L2.31797 16.6696C2.10183 17.0388 2.10183 17.4953 2.31797 17.8644L4.39469 21.4142C4.60715 21.777 4.99578 22 5.41596 22H9.59571C10.0159 22 10.4051 21.777 10.617 21.4142L12.6937 17.8644C12.9099 17.4953 12.9099 17.0388 12.6937 16.6696L10.617 13.1199C10.4051 12.757 10.0164 12.534 9.59571 12.534Z" fill="url(#paint2_linear_40_520)"/>
<path d="M8.98883 8.50786C9.80585 8.50786 10.4682 7.84555 10.4682 7.02854C10.4682 6.21154 9.80585 5.54922 8.98883 5.54922C8.17183 5.54922 7.50951 6.21154 7.50951 7.02854C7.50951 7.84555 8.17183 8.50786 8.98883 8.50786Z" fill="url(#paint3_linear_40_520)"/>
<path opacity="0.05" d="M8.98883 5.54974C9.80554 5.54974 10.4682 6.21183 10.4682 7.02906C10.4682 7.84628 9.80606 8.50838 8.98883 8.50838C8.17161 8.50838 7.50952 7.84628 7.50952 7.02906C7.50952 6.21183 8.17213 5.54974 8.98883 5.54974ZM8.98883 4.95811C7.84713 4.95811 6.91789 5.88683 6.91789 7.02906C6.91789 8.17128 7.84661 9.1 8.98883 9.1C10.1311 9.1 11.0598 8.17128 11.0598 7.02906C11.0598 5.88683 10.1311 4.95811 8.98883 4.95811Z" fill="black"/>
<path opacity="0.07" d="M8.98884 5.54974C9.80554 5.54974 10.4682 6.21183 10.4682 7.02906C10.4682 7.84628 9.80607 8.50838 8.98884 8.50838C8.17161 8.50838 7.50952 7.84628 7.50952 7.02906C7.50952 6.21183 8.17214 5.54974 8.98884 5.54974ZM8.98884 5.25366C8.01017 5.25366 7.21397 6.04985 7.21397 7.02853C7.21397 8.00721 8.01017 8.8034 8.98884 8.8034C9.96752 8.8034 10.7637 8.00721 10.7637 7.02853C10.7637 6.04985 9.96752 5.25366 8.98884 5.25366Z" fill="black"/>
<path d="M15.5771 12.6014C16.3942 12.6014 17.0565 11.9391 17.0565 11.122C17.0565 10.305 16.3942 9.64269 15.5771 9.64269C14.7601 9.64269 14.0978 10.305 14.0978 11.122C14.0978 11.9391 14.7601 12.6014 15.5771 12.6014Z" fill="url(#paint4_linear_40_520)"/>
<path opacity="0.05" d="M15.5771 9.64269C16.3938 9.64269 17.0565 10.3048 17.0565 11.122C17.0565 11.9393 16.3944 12.6014 15.5771 12.6014C14.7599 12.6014 14.0978 11.9393 14.0978 11.122C14.0978 10.3048 14.7604 9.64269 15.5771 9.64269ZM15.5771 9.05107C14.4354 9.05107 13.5062 9.97981 13.5062 11.122C13.5062 12.2643 14.4349 13.193 15.5771 13.193C16.7194 13.193 17.6481 12.2643 17.6481 11.122C17.6481 9.97981 16.7188 9.05107 15.5771 9.05107Z" fill="black"/>
<path opacity="0.07" d="M15.5771 9.64269C16.3938 9.64269 17.0565 10.3048 17.0565 11.122C17.0565 11.9393 16.3944 12.6014 15.5771 12.6014C14.7599 12.6014 14.0978 11.9393 14.0978 11.122C14.0978 10.3048 14.7604 9.64269 15.5771 9.64269ZM15.5771 9.34714C14.5985 9.34714 13.8023 10.1434 13.8023 11.122C13.8023 12.1007 14.5985 12.8969 15.5771 12.8969C16.5558 12.8969 17.352 12.1007 17.352 11.122C17.352 10.1434 16.5558 9.34714 15.5771 9.34714Z" fill="black"/>
<path d="M4.55194 7.91623C5.20542 7.91623 5.73518 7.38647 5.73518 6.73298C5.73518 6.07949 5.20542 5.54974 4.55194 5.54974C3.89845 5.54974 3.36869 6.07949 3.36869 6.73298C3.36869 7.38647 3.89845 7.91623 4.55194 7.91623Z" fill="#F8C23B"/>
<path d="M6.3268 10.2827C6.65354 10.2827 6.91842 10.0179 6.91842 9.69109C6.91842 9.36435 6.65354 9.09947 6.3268 9.09947C6.00005 9.09947 5.73518 9.36435 5.73518 9.69109C5.73518 10.0179 6.00005 10.2827 6.3268 10.2827Z" fill="#F8C23B"/>
<path d="M7.51005 4.36649C7.83679 4.36649 8.10167 4.10161 8.10167 3.77487C8.10167 3.44812 7.83679 3.18324 7.51005 3.18324C7.1833 3.18324 6.91843 3.44812 6.91843 3.77487C6.91843 4.10161 7.1833 4.36649 7.51005 4.36649Z" fill="#F8C23B"/>
<path d="M19.1269 13.7846C19.6171 13.7846 20.0146 13.3871 20.0146 12.8969C20.0146 12.4066 19.6171 12.0092 19.1269 12.0092C18.6366 12.0092 18.2392 12.4066 18.2392 12.8969C18.2392 13.3871 18.6366 13.7846 19.1269 13.7846Z" fill="#F8C23B"/>
<path d="M18.8313 10.2343C19.1581 10.2343 19.423 9.9694 19.423 9.64269C19.423 9.31595 19.1581 9.05107 18.8313 9.05107C18.5046 9.05107 18.2397 9.31595 18.2397 9.64269C18.2397 9.9694 18.5046 10.2343 18.8313 10.2343Z" fill="#F8C23B"/>
<path d="M16.1688 15.5595C16.659 15.5595 17.0565 15.162 17.0565 14.6718C17.0565 14.1814 16.659 13.7841 16.1688 13.7841C15.6785 13.7841 15.2811 14.1814 15.2811 14.6718C15.2811 15.162 15.6785 15.5595 16.1688 15.5595Z" fill="#F8C23B"/>
<path d="M7.81926 17.2675C8.63627 17.2675 9.29858 16.6052 9.29858 15.7882C9.29858 14.9712 8.63627 14.3089 7.81926 14.3089C7.00226 14.3089 6.33994 14.9712 6.33994 15.7882C6.33994 16.6052 7.00226 17.2675 7.81926 17.2675Z" fill="url(#paint5_linear_40_520)"/>
<path opacity="0.05" d="M7.82031 14.3089C8.12428 14.3089 8.43087 14.402 8.69486 14.596C9.35327 15.0793 9.49474 16.0054 9.01145 16.6638C8.72168 17.0582 8.27258 17.267 7.81821 17.267C7.51425 17.267 7.20766 17.1739 6.94366 16.9799C6.28525 16.4966 6.14379 15.5705 6.62708 14.9121C6.91684 14.5182 7.36595 14.3089 7.82031 14.3089ZM7.82084 13.7173C7.16348 13.7173 6.53925 14.0333 6.15062 14.5624C5.47486 15.4827 5.67364 16.7811 6.59395 17.4569C6.95207 17.7198 7.37541 17.8586 7.81821 17.8586C8.47557 17.8586 9.0998 17.5426 9.48843 17.0135C10.1642 16.0932 9.9654 14.7948 9.0451 14.1191C8.68697 13.8561 8.26364 13.7173 7.82084 13.7173Z" fill="black"/>
<path opacity="0.07" d="M7.82031 14.3089C8.12427 14.3089 8.43087 14.402 8.69486 14.596C9.35327 15.0793 9.49474 16.0054 9.01145 16.6638C8.72168 17.0583 8.27257 17.267 7.81821 17.267C7.51425 17.267 7.20765 17.1739 6.94366 16.9799C6.28525 16.4966 6.14379 15.5705 6.62708 14.9121C6.91684 14.5182 7.36595 14.3089 7.82031 14.3089ZM7.82084 14.0134C7.25761 14.0134 6.72226 14.2842 6.38885 14.7375C5.80932 15.5263 5.97971 16.6391 6.76854 17.2186C7.07513 17.4437 7.43799 17.5631 7.81821 17.5631C8.38143 17.5631 8.91679 17.2923 9.24967 16.839C9.8292 16.0501 9.65881 14.9374 8.86998 14.3578C8.56286 14.1322 8.2 14.0134 7.82084 14.0134Z" fill="black"/>
<path d="M6.33995 20.8168C6.99343 20.8168 7.52319 20.287 7.52319 19.6335C7.52319 18.98 6.99343 18.4503 6.33995 18.4503C5.68646 18.4503 5.1567 18.98 5.1567 19.6335C5.1567 20.287 5.68646 20.8168 6.33995 20.8168Z" fill="#F8C23B"/>
<path d="M9.89021 19.6335C10.217 19.6335 10.4818 19.3687 10.4818 19.0419C10.4818 18.7151 10.217 18.4503 9.89021 18.4503C9.56342 18.4503 9.29858 18.7151 9.29858 19.0419C9.29858 19.3687 9.56342 19.6335 9.89021 19.6335Z" fill="#F8C23B"/>
<path d="M4.56508 17.267C4.89182 17.267 5.1567 17.0022 5.1567 16.6754C5.1567 16.3486 4.89182 16.0838 4.56508 16.0838C4.23834 16.0838 3.97346 16.3486 3.97346 16.6754C3.97346 17.0022 4.23834 17.267 4.56508 17.267Z" fill="#F8C23B"/>
<defs>
<linearGradient id="paint0_linear_40_520" x1="2.14337" y1="6.73298" x2="12.812" y2="6.73298" gradientUnits="userSpaceOnUse">
<stop stop-color="#FA67A6"/>
<stop offset="0.245" stop-color="#FA6CA8"/>
<stop offset="0.541" stop-color="#FA7BAE"/>
<stop offset="0.861" stop-color="#FA93B8"/>
<stop offset="1" stop-color="#FAA0BD"/>
</linearGradient>
<linearGradient id="paint1_linear_40_520" x1="11.6073" y1="12.0076" x2="21.8579" y2="12.0076" gradientUnits="userSpaceOnUse">
<stop stop-color="#FAA0BD"/>
<stop offset="0.139" stop-color="#FA93B8"/>
<stop offset="0.459" stop-color="#FA7BAE"/>
<stop offset="0.755" stop-color="#FA6CA8"/>
<stop offset="1" stop-color="#FA67A6"/>
</linearGradient>
<linearGradient id="paint2_linear_40_520" x1="3.84892" y1="20.9235" x2="11.1619" y2="13.6105" gradientUnits="userSpaceOnUse">
<stop stop-color="#FA67A6"/>
<stop offset="0.245" stop-color="#FA6CA8"/>
<stop offset="0.541" stop-color="#FA7BAE"/>
<stop offset="0.861" stop-color="#FA93B8"/>
<stop offset="1" stop-color="#FAA0BD"/>
</linearGradient>
<linearGradient id="paint3_linear_40_520" x1="7.51004" y1="7.02854" x2="10.4682" y2="7.02854" gradientUnits="userSpaceOnUse">
<stop stop-color="#424EBD"/>
<stop offset="1" stop-color="#6673CF"/>
</linearGradient>
<linearGradient id="paint4_linear_40_520" x1="14.0983" y1="11.122" x2="17.0565" y2="11.122" gradientUnits="userSpaceOnUse">
<stop stop-color="#424EBD"/>
<stop offset="1" stop-color="#6673CF"/>
</linearGradient>
<linearGradient id="paint5_linear_40_520" x1="6.33994" y1="15.7882" x2="9.29858" y2="15.7882" gradientUnits="userSpaceOnUse">
<stop stop-color="#424EBD"/>
<stop offset="1" stop-color="#6673CF"/>
</linearGradient>
</defs>
</svg>
