<svg width="20" height="16" viewBox="0 0 20 16" fill="none" xmlns="http://www.w3.org/2000/svg">
<path d="M10.4348 0.869568H9.56522V3.47826H10.4348V0.869568Z" fill="white"/>
<path d="M2.17391 9.13043H3.04348V13.4783H2.17391C1.88843 13.4783 1.60575 13.422 1.34199 13.3128C1.07824 13.2036 0.838591 13.0434 0.636722 12.8416C0.229036 12.4338 0 11.8809 0 11.3043C0 10.7278 0.229036 10.1749 0.636722 9.76713C1.04441 9.35948 1.59736 9.13043 2.17391 9.13043Z" fill="url(#paint0_linear_40_490)"/>
<path d="M16.9565 9.13043H17.8261C18.4026 9.13043 18.9556 9.35948 19.3633 9.76713C19.771 10.1749 20 10.7278 20 11.3043C20 11.8809 19.771 12.4338 19.3633 12.8416C18.9556 13.2492 18.4026 13.4783 17.8261 13.4783H16.9565V9.13043Z" fill="url(#paint1_linear_40_490)"/>
<path d="M10 3.04348C12.0756 3.04348 14.0662 3.86801 15.5339 5.33569C17.0016 6.80339 17.8261 8.794 17.8261 10.8696V14.3478C17.8261 14.5784 17.7344 14.7997 17.5714 14.9627C17.4083 15.1257 17.1871 15.2174 16.9565 15.2174H3.04348C2.81285 15.2174 2.59168 15.1257 2.4286 14.9627C2.26553 14.7997 2.17391 14.5784 2.17391 14.3478V10.8696C2.17391 8.794 2.99844 6.80339 4.46612 5.33569C5.9338 3.86801 7.92439 3.04348 10 3.04348Z" fill="url(#paint2_linear_40_490)"/>
<path d="M6.52174 13.4783C7.96248 13.4783 9.13044 12.3104 9.13044 10.8696C9.13044 9.42878 7.96248 8.26087 6.52174 8.26087C5.081 8.26087 3.91304 9.42878 3.91304 10.8696C3.91304 12.3104 5.081 13.4783 6.52174 13.4783Z" fill="url(#paint3_linear_40_490)"/>
<path d="M13.4783 13.4783C14.919 13.4783 16.087 12.3104 16.087 10.8696C16.087 9.42878 14.919 8.26087 13.4783 8.26087C12.0375 8.26087 10.8696 9.42878 10.8696 10.8696C10.8696 12.3104 12.0375 13.4783 13.4783 13.4783Z" fill="url(#paint4_linear_40_490)"/>
<path d="M13.4783 12.6087C14.4388 12.6087 15.2174 11.8301 15.2174 10.8696C15.2174 9.90904 14.4388 9.13043 13.4783 9.13043C12.5177 9.13043 11.7391 9.90904 11.7391 10.8696C11.7391 11.8301 12.5177 12.6087 13.4783 12.6087Z" fill="white"/>
<path d="M13.4783 11.7391C13.9585 11.7391 14.3478 11.3498 14.3478 10.8696C14.3478 10.3893 13.9585 10 13.4783 10C12.998 10 12.6087 10.3893 12.6087 10.8696C12.6087 11.3498 12.998 11.7391 13.4783 11.7391Z" fill="url(#paint5_linear_40_490)"/>
<path d="M6.52174 12.6087C7.48223 12.6087 8.26087 11.8301 8.26087 10.8696C8.26087 9.90904 7.48223 9.13043 6.52174 9.13043C5.56124 9.13043 4.78261 9.90904 4.78261 10.8696C4.78261 11.8301 5.56124 12.6087 6.52174 12.6087Z" fill="white"/>
<path d="M6.52174 11.7391C7.00198 11.7391 7.39131 11.3498 7.39131 10.8696C7.39131 10.3893 7.00198 10 6.52174 10C6.0415 10 5.65218 10.3893 5.65218 10.8696C5.65218 11.3498 6.0415 11.7391 6.52174 11.7391Z" fill="url(#paint6_linear_40_490)"/>
<path d="M10 1.73913C10.4803 1.73913 10.8696 1.34981 10.8696 0.869565C10.8696 0.389322 10.4803 0 10 0C9.51974 0 9.13044 0.389322 9.13044 0.869565C9.13044 1.34981 9.51974 1.73913 10 1.73913Z" fill="url(#paint7_linear_40_490)"/>
<defs>
<linearGradient id="paint0_linear_40_490" x1="0.741658" y1="9.24444" x2="1.4224" y2="13.7037" gradientUnits="userSpaceOnUse">
<stop stop-color="#C3CDD9"/>
<stop offset="1" stop-color="#9FA7B0"/>
</linearGradient>
<linearGradient id="paint1_linear_40_490" x1="17.6982" y1="9.24444" x2="18.3789" y2="13.7037" gradientUnits="userSpaceOnUse">
<stop stop-color="#C3CDD9"/>
<stop offset="1" stop-color="#9FA7B0"/>
</linearGradient>
<linearGradient id="paint2_linear_40_490" x1="5.98815" y1="3.36271" x2="7.04281" y2="16.0519" gradientUnits="userSpaceOnUse">
<stop stop-color="#C3CDD9"/>
<stop offset="1" stop-color="#9FA7B0"/>
</linearGradient>
<linearGradient id="paint3_linear_40_490" x1="5.18446" y1="8.39768" x2="5.763" y2="13.8116" gradientUnits="userSpaceOnUse">
<stop stop-color="#64717C"/>
<stop offset="1" stop-color="#6D7E90"/>
</linearGradient>
<linearGradient id="paint4_linear_40_490" x1="12.141" y1="8.39768" x2="12.7195" y2="13.8116" gradientUnits="userSpaceOnUse">
<stop stop-color="#64717C"/>
<stop offset="1" stop-color="#6D7E90"/>
</linearGradient>
<linearGradient id="paint5_linear_40_490" x1="13.0325" y1="10.0456" x2="13.2253" y2="11.8503" gradientUnits="userSpaceOnUse">
<stop stop-color="#C3CDD9"/>
<stop offset="1" stop-color="#9FA7B0"/>
</linearGradient>
<linearGradient id="paint6_linear_40_490" x1="6.07598" y1="10.0456" x2="6.26883" y2="11.8503" gradientUnits="userSpaceOnUse">
<stop stop-color="#C3CDD9"/>
<stop offset="1" stop-color="#9FA7B0"/>
</linearGradient>
<linearGradient id="paint7_linear_40_490" x1="9.55424" y1="0.0456039" x2="9.74709" y2="1.85026" gradientUnits="userSpaceOnUse">
<stop stop-color="#C3CDD9"/>
<stop offset="1" stop-color="#9FA7B0"/>
</linearGradient>
</defs>
</svg>
