<svg width="24" height="24" viewBox="0 0 24 24" fill="none" xmlns="http://www.w3.org/2000/svg">
<path d="M12.4348 5.26087H11.5652V7.86957H12.4348V5.26087Z" fill="url(#paint0_linear_40_489)"/>
<path d="M4.17391 13.5217H5.04348V17.8696H4.17391C3.88843 17.8696 3.60575 17.8133 3.34199 17.7041C3.07824 17.5949 2.83859 17.4347 2.63672 17.2329C2.22904 16.8251 2 16.2722 2 15.6956C2 15.1191 2.22904 14.5662 2.63672 14.1584C3.04441 13.7508 3.59736 13.5217 4.17391 13.5217Z" fill="url(#paint1_linear_40_489)"/>
<path d="M18.9565 13.5217H19.8261C20.4026 13.5217 20.9556 13.7508 21.3633 14.1584C21.771 14.5662 22 15.1191 22 15.6956C22 16.2722 21.771 16.8251 21.3633 17.2329C20.9556 17.6405 20.4026 17.8696 19.8261 17.8696H18.9565V13.5217Z" fill="url(#paint2_linear_40_489)"/>
<path d="M12 7.43478C14.0756 7.43478 16.0662 8.25931 17.5339 9.72699C19.0016 11.1947 19.8261 13.1853 19.8261 15.2609V18.7391C19.8261 18.9697 19.7344 19.191 19.5714 19.354C19.4083 19.517 19.1871 19.6087 18.9565 19.6087H5.04348C4.81285 19.6087 4.59168 19.517 4.4286 19.354C4.26553 19.191 4.17391 18.9697 4.17391 18.7391V15.2609C4.17391 13.1853 4.99844 11.1947 6.46612 9.72699C7.9338 8.25931 9.92439 7.43478 12 7.43478Z" fill="url(#paint3_linear_40_489)"/>
<path d="M8.52174 17.8696C9.96248 17.8696 11.1304 16.7017 11.1304 15.2609C11.1304 13.8201 9.96248 12.6522 8.52174 12.6522C7.081 12.6522 5.91304 13.8201 5.91304 15.2609C5.91304 16.7017 7.081 17.8696 8.52174 17.8696Z" fill="url(#paint4_linear_40_489)"/>
<path d="M15.4783 17.8696C16.919 17.8696 18.087 16.7017 18.087 15.2609C18.087 13.8201 16.919 12.6522 15.4783 12.6522C14.0375 12.6522 12.8696 13.8201 12.8696 15.2609C12.8696 16.7017 14.0375 17.8696 15.4783 17.8696Z" fill="url(#paint5_linear_40_489)"/>
<path d="M15.4783 17C16.4388 17 17.2174 16.2214 17.2174 15.2609C17.2174 14.3003 16.4388 13.5217 15.4783 13.5217C14.5177 13.5217 13.7391 14.3003 13.7391 15.2609C13.7391 16.2214 14.5177 17 15.4783 17Z" fill="url(#paint6_linear_40_489)"/>
<path d="M15.4783 16.1304C15.9585 16.1304 16.3478 15.7411 16.3478 15.2609C16.3478 14.7806 15.9585 14.3913 15.4783 14.3913C14.998 14.3913 14.6087 14.7806 14.6087 15.2609C14.6087 15.7411 14.998 16.1304 15.4783 16.1304Z" fill="url(#paint7_linear_40_489)"/>
<path d="M8.52174 17C9.48223 17 10.2609 16.2214 10.2609 15.2609C10.2609 14.3003 9.48223 13.5217 8.52174 13.5217C7.56124 13.5217 6.78261 14.3003 6.78261 15.2609C6.78261 16.2214 7.56124 17 8.52174 17Z" fill="url(#paint8_linear_40_489)"/>
<path d="M8.52174 16.1304C9.00198 16.1304 9.39131 15.7411 9.39131 15.2609C9.39131 14.7806 9.00198 14.3913 8.52174 14.3913C8.0415 14.3913 7.65218 14.7806 7.65218 15.2609C7.65218 15.7411 8.0415 16.1304 8.52174 16.1304Z" fill="url(#paint9_linear_40_489)"/>
<path d="M12 6.13043C12.4803 6.13043 12.8696 5.74111 12.8696 5.26087C12.8696 4.78063 12.4803 4.3913 12 4.3913C11.5197 4.3913 11.1304 4.78063 11.1304 5.26087C11.1304 5.74111 11.5197 6.13043 12 6.13043Z" fill="url(#paint10_linear_40_489)"/>
<defs>
<linearGradient id="paint0_linear_40_489" x1="12" y1="5.74305" x2="12" y2="7.68174" gradientUnits="userSpaceOnUse">
<stop stop-color="#0077D2"/>
<stop offset="1" stop-color="#0B59A2"/>
</linearGradient>
<linearGradient id="paint1_linear_40_489" x1="3.52174" y1="13.3987" x2="3.52174" y2="19.9504" gradientUnits="userSpaceOnUse">
<stop stop-color="#0077D2"/>
<stop offset="1" stop-color="#0B59A2"/>
</linearGradient>
<linearGradient id="paint2_linear_40_489" x1="20.4783" y1="13.3987" x2="20.4783" y2="19.9504" gradientUnits="userSpaceOnUse">
<stop stop-color="#0077D2"/>
<stop offset="1" stop-color="#0B59A2"/>
</linearGradient>
<linearGradient id="paint3_linear_40_489" x1="12" y1="7.40924" x2="12" y2="19.5648" gradientUnits="userSpaceOnUse">
<stop stop-color="#2AA4F4"/>
<stop offset="1" stop-color="#007AD9"/>
</linearGradient>
<linearGradient id="paint4_linear_40_489" x1="8.52174" y1="12.6757" x2="8.52174" y2="20.6935" gradientUnits="userSpaceOnUse">
<stop stop-color="#0077D2"/>
<stop offset="1" stop-color="#0B59A2"/>
</linearGradient>
<linearGradient id="paint5_linear_40_489" x1="15.4783" y1="12.6757" x2="15.4783" y2="20.6935" gradientUnits="userSpaceOnUse">
<stop stop-color="#0077D2"/>
<stop offset="1" stop-color="#0B59A2"/>
</linearGradient>
<linearGradient id="paint6_linear_40_489" x1="14.5097" y1="13.0036" x2="16.8675" y2="16.4647" gradientUnits="userSpaceOnUse">
<stop stop-color="#FCFCFC"/>
<stop offset="0.95" stop-color="#C3C9CD"/>
</linearGradient>
<linearGradient id="paint7_linear_40_489" x1="15.4783" y1="12.6757" x2="15.4783" y2="20.6935" gradientUnits="userSpaceOnUse">
<stop stop-color="#0077D2"/>
<stop offset="1" stop-color="#0B59A2"/>
</linearGradient>
<linearGradient id="paint8_linear_40_489" x1="7.55319" y1="13.0036" x2="9.91096" y2="16.4647" gradientUnits="userSpaceOnUse">
<stop stop-color="#FCFCFC"/>
<stop offset="0.95" stop-color="#C3C9CD"/>
</linearGradient>
<linearGradient id="paint9_linear_40_489" x1="8.52174" y1="12.6757" x2="8.52174" y2="20.6935" gradientUnits="userSpaceOnUse">
<stop stop-color="#0077D2"/>
<stop offset="1" stop-color="#0B59A2"/>
</linearGradient>
<linearGradient id="paint10_linear_40_489" x1="12" y1="4.38765" x2="12" y2="6.12416" gradientUnits="userSpaceOnUse">
<stop stop-color="#2AA4F4"/>
<stop offset="1" stop-color="#007AD9"/>
</linearGradient>
</defs>
</svg>
