<svg width="24" height="24" viewBox="0 0 24 24" fill="none" xmlns="http://www.w3.org/2000/svg">
<path d="M12.0365 21.5V6.5C20.8755 6.5 21.9 15.589 22 20.4785C22.011 21.04 21.561 21.5 20.9995 21.5H12.0365Z" fill="url(#paint0_linear_40_502)"/>
<path d="M3.0005 21.5C2.439 21.5 1.989 21.04 2 20.4785C2.1 15.589 3.1245 6.5 11.9635 6.5V21.5H3.0005Z" fill="url(#paint1_linear_40_502)"/>
<path d="M12 11C14.4853 11 16.5 8.98528 16.5 6.5C16.5 4.01472 14.4853 2 12 2C9.51472 2 7.5 4.01472 7.5 6.5C7.5 8.98528 9.51472 11 12 11Z" fill="url(#paint2_radial_40_502)"/>
<path d="M14.5 4.5C14.303 4.5 14.1205 4.559 13.9655 4.6575C13.8025 3.717 12.987 3 12 3C11.013 3 10.1975 3.717 10.0345 4.6575C9.8795 4.559 9.697 4.5 9.5 4.5C8.9475 4.5 8.5 4.9475 8.5 5.5C8.5 6.0525 8.9475 6.5 9.5 6.5C9.8385 6.5 10.1365 6.331 10.3175 6.0735C10.6725 6.6295 11.2915 7 12 7C12.7085 7 13.3275 6.6295 13.6825 6.0735C13.8635 6.331 14.1615 6.5 14.5 6.5C15.0525 6.5 15.5 6.0525 15.5 5.5C15.5 4.9475 15.0525 4.5 14.5 4.5Z" fill="url(#paint3_linear_40_502)"/>
<path d="M12 4C11.4475 4 11 4.4475 11 5C11 5.5525 11.4475 6 12 6C12.5525 6 13 5.5525 13 5C13 4.4475 12.5525 4 12 4Z" fill="url(#paint4_linear_40_502)"/>
<path d="M17.4992 13.4998H16.9997V16.4998H17.6662C18.1537 16.4998 18.5702 16.2653 18.6522 15.9448L18.9787 14.6673C19.1342 14.0573 18.4282 13.4998 17.4992 13.4998Z" fill="url(#paint5_linear_40_502)"/>
<path d="M6.5005 13.5H7V16.5H6.3335C5.846 16.5 5.4295 16.2655 5.3475 15.945L5.021 14.6675C4.8655 14.0575 5.5715 13.5 6.5005 13.5Z" fill="url(#paint6_linear_40_502)"/>
<path d="M12 6.45703C14.9605 6.45703 18 7.65703 18 14.057C18 14.5695 18 15.9965 18 16.5435C18 18.8285 14.3255 22 12 22C9.6745 22 6 18.8285 6 16.544C6 15.997 6 14.5695 6 14.0575C6 7.65703 9.0395 6.45703 12 6.45703Z" fill="url(#paint7_radial_40_502)"/>
<path d="M12 5C6 5 4.5 8.5 4.5 10.5C4.5 12.5 6 15 6 15C6 10 8.5 12.5 8.5 8C11 14.5 18 10.5 18 15C18 15 19.5 12.422 19.5 10.5C19.5 8.5 18 5 12 5Z" fill="url(#paint8_radial_40_502)"/>
<defs>
<linearGradient id="paint0_linear_40_502" x1="12.0365" y1="14" x2="22" y2="14" gradientUnits="userSpaceOnUse">
<stop stop-color="#A3FFFF"/>
<stop offset="0.223" stop-color="#9DFBFF"/>
<stop offset="0.53" stop-color="#8BF1FF"/>
<stop offset="0.885" stop-color="#6EE0FF"/>
<stop offset="1" stop-color="#63DAFF"/>
</linearGradient>
<linearGradient id="paint1_linear_40_502" x1="11.9635" y1="14" x2="2" y2="14" gradientUnits="userSpaceOnUse">
<stop stop-color="#A3FFFF"/>
<stop offset="0.223" stop-color="#9DFBFF"/>
<stop offset="0.53" stop-color="#8BF1FF"/>
<stop offset="0.885" stop-color="#6EE0FF"/>
<stop offset="1" stop-color="#63DAFF"/>
</linearGradient>
<radialGradient id="paint2_radial_40_502" cx="0" cy="0" r="1" gradientUnits="userSpaceOnUse" gradientTransform="translate(9.537 2.1635) scale(11.174)">
<stop stop-color="#C26715"/>
<stop offset="0.508" stop-color="#B85515"/>
<stop offset="1" stop-color="#AD3F16"/>
</radialGradient>
<linearGradient id="paint3_linear_40_502" x1="12" y1="3.047" x2="12" y2="7.018" gradientUnits="userSpaceOnUse">
<stop stop-color="#A3FFFF"/>
<stop offset="0.223" stop-color="#9DFBFF"/>
<stop offset="0.53" stop-color="#8BF1FF"/>
<stop offset="0.885" stop-color="#6EE0FF"/>
<stop offset="1" stop-color="#63DAFF"/>
</linearGradient>
<linearGradient id="paint4_linear_40_502" x1="11" y1="5" x2="13" y2="5" gradientUnits="userSpaceOnUse">
<stop stop-color="#33BEF0"/>
<stop offset="1" stop-color="#0A85D9"/>
</linearGradient>
<linearGradient id="paint5_linear_40_502" x1="17.5002" y1="14.9998" x2="18.7637" y2="14.9998" gradientUnits="userSpaceOnUse">
<stop stop-color="#C48F0C"/>
<stop offset="0.251" stop-color="#D19B16"/>
<stop offset="0.619" stop-color="#DCA51F"/>
<stop offset="1" stop-color="#E0A922"/>
</linearGradient>
<linearGradient id="paint6_linear_40_502" x1="6.5" y1="15" x2="5.236" y2="15" gradientUnits="userSpaceOnUse">
<stop stop-color="#C48F0C"/>
<stop offset="0.251" stop-color="#D19B16"/>
<stop offset="0.619" stop-color="#DCA51F"/>
<stop offset="1" stop-color="#E0A922"/>
</linearGradient>
<radialGradient id="paint7_radial_40_502" cx="0" cy="0" r="1" gradientUnits="userSpaceOnUse" gradientTransform="translate(11.9949 14.2283) rotate(180) scale(6.94223)">
<stop stop-color="#FFCF54"/>
<stop offset="0.261" stop-color="#FDCB4D"/>
<stop offset="0.639" stop-color="#F7C13A"/>
<stop offset="1" stop-color="#F0B421"/>
</radialGradient>
<radialGradient id="paint8_radial_40_502" cx="0" cy="0" r="1" gradientUnits="userSpaceOnUse" gradientTransform="translate(7.895 5.1815) scale(15.098)">
<stop stop-color="#C26715"/>
<stop offset="0.508" stop-color="#B85515"/>
<stop offset="1" stop-color="#AD3F16"/>
</radialGradient>
</defs>
</svg>
