<svg width="24" height="24" viewBox="0 0 24 24" fill="none" xmlns="http://www.w3.org/2000/svg">
<path d="M18.8421 15.6842H4.10526V22H18.8421V15.6842Z" fill="url(#paint0_linear_40_6062)"/>
<path d="M6.21053 4.10526H16.7368V3.05263C16.7368 2.47158 16.2653 2 15.6842 2H7.26316C6.6821 2 6.21053 2.47158 6.21053 3.05263V4.10526Z" fill="url(#paint1_linear_40_6062)"/>
<path d="M4.10526 5.1579V15.6842H18.8421V5.1579H4.10526Z" fill="url(#paint2_linear_40_6062)"/>
<path d="M16.7368 17.7895H14.6316V19.8947H16.7368V17.7895Z" fill="#005094"/>
<path d="M13.5789 17.7895H9.89474V22H13.5789V17.7895Z" fill="#005094"/>
<path d="M16.7368 11.4737H14.6316V13.5789H16.7368V11.4737Z" fill="#0D62AB"/>
<path d="M12.5263 11.4737H10.4211V13.5789H12.5263V11.4737Z" fill="#0D62AB"/>
<path d="M8.31579 7.26315H6.21053V9.36842H8.31579V7.26315Z" fill="#0D62AB"/>
<path d="M8.31579 11.4737H6.21053V13.5789H8.31579V11.4737Z" fill="#0D62AB"/>
<path d="M8.31579 17.7895H6.21053V19.8947H8.31579V17.7895Z" fill="#005094"/>
<path d="M12.5263 7.26315H10.4211V9.36842H12.5263V7.26315Z" fill="#0D62AB"/>
<path d="M16.7368 7.26315H14.6316V9.36842H16.7368V7.26315Z" fill="#0D62AB"/>
<path d="M18.8421 5.1579H4.10526C3.81421 5.1579 3.57895 4.92211 3.57895 4.63159C3.57895 4.34106 3.81421 4.10527 4.10526 4.10527H18.8421C19.1332 4.10527 19.3684 4.34106 19.3684 4.63159C19.3684 4.92211 19.1332 5.1579 18.8421 5.1579Z" fill="url(#paint3_linear_40_6062)"/>
<path opacity="0.05" d="M18.3158 18.3158C17.1547 18.3158 16.2105 19.26 16.2105 20.4211V20.9474C16.2105 21.5279 16.6826 22 17.2632 22H19.3684C19.9489 22 20.4211 21.5279 20.4211 20.9474V20.4211C20.4211 19.26 19.4768 18.3158 18.3158 18.3158Z" fill="black"/>
<defs>
<linearGradient id="paint0_linear_40_6062" x1="7.37008" y1="14.7434" x2="9.84537" y2="23.2218" gradientUnits="userSpaceOnUse">
<stop stop-color="#FCFCFC"/>
<stop offset="0.95" stop-color="#C3C9CD"/>
</linearGradient>
<linearGradient id="paint1_linear_40_6062" x1="8.54255" y1="1.68637" x2="8.95279" y2="4.69753" gradientUnits="userSpaceOnUse">
<stop stop-color="#FCFCFC"/>
<stop offset="0.95" stop-color="#C3C9CD"/>
</linearGradient>
<linearGradient id="paint2_linear_40_6062" x1="7.37008" y1="3.58976" x2="13.4035" y2="15.9893" gradientUnits="userSpaceOnUse">
<stop stop-color="#FCFCFC"/>
<stop offset="0.95" stop-color="#C3C9CD"/>
</linearGradient>
<linearGradient id="paint3_linear_40_6062" x1="9.06027" y1="4.1513" x2="9.07203" y2="5.29834" gradientUnits="userSpaceOnUse">
<stop stop-color="#0D61A9"/>
<stop offset="1" stop-color="#16528C"/>
</linearGradient>
</defs>
</svg>
