<svg width="24" height="24" viewBox="0 0 24 24" fill="none" xmlns="http://www.w3.org/2000/svg">
<path d="M12 4.05128C6.71999 4.05128 5.41025 12.5769 5.41025 12.5769C5.41025 14.0949 6.11538 15.4246 7.59127 15.7769C8.85589 16.079 10.4472 16.359 12 16.359C13.5528 16.359 15.1441 16.079 16.4082 15.7774C17.8846 15.4251 18.5892 14.0949 18.5892 12.5774C18.5897 12.5769 17.28 4.05128 12 4.05128Z" fill="url(#paint0_radial_40_609)"/>
<path d="M12 15.1133C7.4682 15.1133 3.79487 17.6369 3.79487 20.3882V20.9744C3.79487 21.541 4.25384 22 4.82051 22H19.1795C19.7462 22 20.2051 21.541 20.2051 20.9744V20.3882C20.2051 17.6369 16.5318 15.1133 12 15.1133Z" fill="url(#paint1_linear_40_609)"/>
<path d="M14.3077 17.8974C15.0158 17.8974 15.5897 17.3235 15.5897 16.6154C15.5897 15.9073 15.0158 15.3333 14.3077 15.3333C13.5996 15.3333 13.0256 15.9073 13.0256 16.6154C13.0256 17.3235 13.5996 17.8974 14.3077 17.8974Z" fill="#9AAAB8"/>
<path d="M15.5897 18.9231C15.5897 21.121 12 22 12 22C12 22 12 19.4769 12 18.9231C12 18.0733 13.2015 17.3846 14.0513 17.3846C14.901 17.3846 15.5897 18.0733 15.5897 18.9231Z" fill="#9AAAB8"/>
<path d="M9.69231 17.8974C10.4004 17.8974 10.9744 17.3235 10.9744 16.6154C10.9744 15.9073 10.4004 15.3333 9.69231 15.3333C8.98425 15.3333 8.41026 15.9073 8.41026 16.6154C8.41026 17.3235 8.98425 17.8974 9.69231 17.8974Z" fill="#9AAAB8"/>
<path d="M8.41026 18.9231C8.41026 21.121 12 22 12 22C12 22 12 19.4769 12 18.9231C12 18.0733 10.7985 17.3846 9.94872 17.3846C9.09897 17.3846 8.41026 18.0733 8.41026 18.9231Z" fill="#9AAAB8"/>
<path d="M14.5641 14.861C14.5641 18.9185 12 20.9744 12 20.9744C12 20.9744 9.43589 18.9185 9.43589 14.861C9.43589 13.5087 9.43589 12.7692 9.43589 12.7692H14.5641C14.5641 12.7692 14.5641 13.5087 14.5641 14.861Z" fill="white"/>
<path d="M14.5641 14.861C14.5641 18.9185 12 20.9744 12 20.9744C12 20.9744 9.43589 18.9185 9.43589 14.861C9.43589 13.5087 9.43589 12.7692 9.43589 12.7692H14.5641C14.5641 12.7692 14.5641 13.5087 14.5641 14.861Z" fill="white"/>
<path d="M14.5641 15.3333C14.5641 16.3062 12 18.4103 12 18.4103C12 18.4103 9.43589 16.3062 9.43589 15.3333C9.43589 13.981 9.43589 11.7256 9.43589 11.7256H14.5641C14.5641 11.7256 14.5641 13.981 14.5641 15.3333Z" fill="#D6A121"/>
<path d="M12 3.5749C14.0246 3.5749 16.1026 3.93028 16.1026 8.56054C16.1026 8.93131 16.1026 11.5021 16.1026 11.898C16.1026 13.5518 13.5903 15.8462 12 15.8462C10.4097 15.8462 7.89743 13.5518 7.89743 11.8985C7.89743 11.5026 7.89743 8.93182 7.89743 8.56105C7.89743 4.05131 9.97538 3.5749 12 3.5749Z" fill="url(#paint2_radial_40_609)"/>
<path d="M12 2C9.33948 2 8.92307 3.53846 8.92307 3.53846C7.84153 3.69795 5.33333 4.05128 5.33333 12.5015C5.33333 14.4508 6.30923 15.1667 6.66666 15.3749C5.33333 8.00872 10.2441 9.19795 9.43589 4.5641C11.5108 10.6221 17.7913 4.59179 17.5749 15.1969C18.1933 14.7267 18.6667 13.7831 18.6667 12.5015C18.6667 5.42154 15.7944 2 12 2Z" fill="url(#paint3_radial_40_609)"/>
<defs>
<radialGradient id="paint0_radial_40_609" cx="0" cy="0" r="1" gradientUnits="userSpaceOnUse" gradientTransform="translate(11.8738 10.4128) scale(7.03077)">
<stop offset="0.376" stop-color="#261103"/>
<stop offset="0.68" stop-color="#431D06"/>
<stop offset="1" stop-color="#662C09"/>
</radialGradient>
<linearGradient id="paint1_linear_40_609" x1="10.3415" y1="14.8246" x2="12.5385" y2="22.3826" gradientUnits="userSpaceOnUse">
<stop stop-color="#8795A1"/>
<stop offset="1" stop-color="#6D7882"/>
</linearGradient>
<radialGradient id="paint2_radial_40_609" cx="0" cy="0" r="1" gradientUnits="userSpaceOnUse" gradientTransform="translate(11.9993 9.71057) rotate(180) scale(5.02292 5.31487)">
<stop stop-color="#FFCF54"/>
<stop offset="0.261" stop-color="#FDCB4D"/>
<stop offset="0.639" stop-color="#F7C13A"/>
<stop offset="1" stop-color="#F0B421"/>
</radialGradient>
<radialGradient id="paint3_radial_40_609" cx="0" cy="0" r="1" gradientUnits="userSpaceOnUse" gradientTransform="translate(8.35076 2.24308) scale(16.5856 16.5856)">
<stop stop-color="#C26715"/>
<stop offset="0.508" stop-color="#B85515"/>
<stop offset="1" stop-color="#AD3F16"/>
</radialGradient>
</defs>
</svg>
