<svg width="24" height="24" viewBox="0 0 24 24" fill="none" xmlns="http://www.w3.org/2000/svg">
<path d="M2.45455 18.3636V5.63636H18.8182V18.3636C18.8182 18.8636 18.4091 19.2727 17.9091 19.2727H3.36364C2.86364 19.2727 2.45455 18.8636 2.45455 18.3636Z" fill="url(#paint0_linear_40_690)"/>
<path d="M18.8182 3.81818V6.54545H2.45455V3.81818C2.45455 3.31818 2.86364 2.90909 3.36364 2.90909H17.9091C18.4091 2.90909 18.8182 3.31818 18.8182 3.81818Z" fill="url(#paint1_linear_40_690)"/>
<path opacity="0.05" d="M15.8636 5.86363C15.1105 5.86363 14.5 5.25318 14.5 4.5V2.90909H17.2273V4.5C17.2273 5.25318 16.6168 5.86363 15.8636 5.86363Z" fill="black"/>
<path opacity="0.07" d="M15.8636 5.52272C15.2986 5.52272 14.8409 5.065 14.8409 4.5V2.90909H16.8864V4.5C16.8864 5.065 16.4286 5.52272 15.8636 5.52272Z" fill="black"/>
<path opacity="0.05" d="M5.40909 5.86363C4.65591 5.86363 4.04545 5.25318 4.04545 4.5V2.90909H6.77273V4.5C6.77273 5.25318 6.16227 5.86363 5.40909 5.86363Z" fill="black"/>
<path opacity="0.07" d="M5.40909 5.52272C4.84409 5.52272 4.38636 5.065 4.38636 4.5V2.90909H6.43182V4.5C6.43182 5.065 5.97409 5.52272 5.40909 5.52272Z" fill="black"/>
<path d="M5.40909 5.18182C5.03273 5.18182 4.72727 4.87636 4.72727 4.5V2.68182C4.72727 2.30545 5.03273 2 5.40909 2C5.78545 2 6.09091 2.30545 6.09091 2.68182V4.5C6.09091 4.87636 5.78545 5.18182 5.40909 5.18182Z" fill="#3CCBF4"/>
<path d="M17 9.04546V10.4091C17 10.5345 16.8982 10.6364 16.7727 10.6364H15.4091C15.2836 10.6364 15.1818 10.5345 15.1818 10.4091V9.04546C15.1818 8.92 15.2836 8.81818 15.4091 8.81818H16.7727C16.8982 8.81818 17 8.92 17 9.04546ZM13.3636 9.04546V10.4091C13.3636 10.5345 13.2618 10.6364 13.1364 10.6364H11.7727C11.6473 10.6364 11.5455 10.5345 11.5455 10.4091V9.04546C11.5455 8.92 11.6473 8.81818 11.7727 8.81818H13.1364C13.2618 8.81818 13.3636 8.92 13.3636 9.04546ZM9.72727 9.04546V10.4091C9.72727 10.5345 9.62545 10.6364 9.5 10.6364H8.13636C8.01091 10.6364 7.90909 10.5345 7.90909 10.4091V9.04546C7.90909 8.92 8.01091 8.81818 8.13636 8.81818H9.5C9.62545 8.81818 9.72727 8.92 9.72727 9.04546Z" fill="white"/>
<path d="M17 12.2273V13.5909C17 13.7164 16.8982 13.8182 16.7727 13.8182H15.4091C15.2836 13.8182 15.1818 13.7164 15.1818 13.5909V12.2273C15.1818 12.1018 15.2836 12 15.4091 12H16.7727C16.8982 12 17 12.1018 17 12.2273ZM13.3636 12.2273V13.5909C13.3636 13.7164 13.2618 13.8182 13.1364 13.8182H11.7727C11.6473 13.8182 11.5455 13.7164 11.5455 13.5909V12.2273C11.5455 12.1018 11.6473 12 11.7727 12H13.1364C13.2618 12 13.3636 12.1018 13.3636 12.2273ZM9.72727 12.2273V13.5909C9.72727 13.7164 9.62545 13.8182 9.5 13.8182H8.13636C8.01091 13.8182 7.90909 13.7164 7.90909 13.5909V12.2273C7.90909 12.1018 8.01091 12 8.13636 12H9.5C9.62545 12 9.72727 12.1018 9.72727 12.2273ZM6.09091 12.2273V13.5909C6.09091 13.7164 5.98909 13.8182 5.86364 13.8182H4.5C4.37455 13.8182 4.27273 13.7164 4.27273 13.5909V12.2273C4.27273 12.1018 4.37455 12 4.5 12H5.86364C5.98909 12 6.09091 12.1018 6.09091 12.2273Z" fill="white"/>
<path d="M13.3636 15.4091V16.7727C13.3636 16.8982 13.2618 17 13.1364 17H11.7727C11.6473 17 11.5455 16.8982 11.5455 16.7727V15.4091C11.5455 15.2836 11.6473 15.1818 11.7727 15.1818H13.1364C13.2618 15.1818 13.3636 15.2836 13.3636 15.4091ZM9.72727 15.4091V16.7727C9.72727 16.8982 9.62545 17 9.5 17H8.13636C8.01091 17 7.90909 16.8982 7.90909 16.7727V15.4091C7.90909 15.2836 8.01091 15.1818 8.13636 15.1818H9.5C9.62545 15.1818 9.72727 15.2836 9.72727 15.4091ZM6.09091 15.4091V16.7727C6.09091 16.8982 5.98909 17 5.86364 17H4.5C4.37455 17 4.27273 16.8982 4.27273 16.7727V15.4091C4.27273 15.2836 4.37455 15.1818 4.5 15.1818H5.86364C5.98909 15.1818 6.09091 15.2836 6.09091 15.4091Z" fill="white"/>
<path d="M15.8636 5.18182C15.4873 5.18182 15.1818 4.87636 15.1818 4.5V2.68182C15.1818 2.30545 15.4873 2 15.8636 2C16.24 2 16.5455 2.30545 16.5455 2.68182V4.5C16.5455 4.87636 16.24 5.18182 15.8636 5.18182Z" fill="#3CCBF4"/>
<path d="M17 12C13.9877 12 11.5455 14.4423 11.5455 17.4545C11.5455 18.0932 11.6609 18.7032 11.8623 19.2727H17.9091C18.4091 19.2727 18.8182 18.8636 18.8182 18.3636V12.3168C18.2486 12.1155 17.6386 12 17 12Z" fill="url(#paint2_radial_40_690)"/>
<path d="M17 22C19.5104 22 21.5455 19.9649 21.5455 17.4545C21.5455 14.9442 19.5104 12.9091 17 12.9091C14.4896 12.9091 12.4545 14.9442 12.4545 17.4545C12.4545 19.9649 14.4896 22 17 22Z" fill="url(#paint3_linear_40_690)"/>
<path d="M17.2273 19.7273H16.7727C16.6473 19.7273 16.5455 19.6255 16.5455 19.5V15.4091C16.5455 15.2836 16.6473 15.1818 16.7727 15.1818H17.2273C17.3527 15.1818 17.4545 15.2836 17.4545 15.4091V19.5C17.4545 19.6255 17.3527 19.7273 17.2273 19.7273Z" fill="white"/>
<path d="M14.7273 17.6818V17.2273C14.7273 17.1018 14.8291 17 14.9545 17H19.0455C19.1709 17 19.2727 17.1018 19.2727 17.2273V17.6818C19.2727 17.8073 19.1709 17.9091 19.0455 17.9091H14.9545C14.8291 17.9091 14.7273 17.8073 14.7273 17.6818Z" fill="white"/>
<defs>
<linearGradient id="paint0_linear_40_690" x1="2.64273" y1="6.39181" x2="14.8986" y2="15.3432" gradientUnits="userSpaceOnUse">
<stop stop-color="#28AFEA"/>
<stop offset="1" stop-color="#047ED6"/>
</linearGradient>
<linearGradient id="paint1_linear_40_690" x1="2.64545" y1="3.18545" x2="18.4536" y2="6.4" gradientUnits="userSpaceOnUse">
<stop stop-color="#0077D2"/>
<stop offset="1" stop-color="#0B59A2"/>
</linearGradient>
<radialGradient id="paint2_radial_40_690" cx="0" cy="0" r="1" gradientUnits="userSpaceOnUse" gradientTransform="translate(17.0095 17.4736) scale(5.34409)">
<stop/>
<stop offset="1" stop-opacity="0"/>
</radialGradient>
<linearGradient id="paint3_linear_40_690" x1="15.2227" y1="14.3495" x2="19.7395" y2="22.2409" gradientUnits="userSpaceOnUse">
<stop stop-color="#21AD64"/>
<stop offset="1" stop-color="#088242"/>
</linearGradient>
</defs>
</svg>
