<svg width="24" height="24" viewBox="0 0 24 24" fill="none" xmlns="http://www.w3.org/2000/svg">
<path d="M2.52631 20.9474V6.21053H21.4737V20.9474C21.4737 21.5263 21 22 20.4211 22H3.57895C3 22 2.52631 21.5263 2.52631 20.9474Z" fill="url(#paint0_linear_40_622)"/>
<path d="M21.4737 4.10527V7.26316H2.52631V4.10527C2.52631 3.52632 3 3.05264 3.57895 3.05264H20.4211C21 3.05264 21.4737 3.52632 21.4737 4.10527Z" fill="url(#paint1_linear_40_622)"/>
<path opacity="0.05" d="M18.0526 6.47369C17.1805 6.47369 16.4737 5.76685 16.4737 4.89474V3.05264H19.6316V4.89474C19.6316 5.76685 18.9247 6.47369 18.0526 6.47369Z" fill="black"/>
<path opacity="0.07" d="M18.0526 6.07895C17.3984 6.07895 16.8684 5.54895 16.8684 4.89474V3.05264H19.2368V4.89474C19.2368 5.54895 18.7068 6.07895 18.0526 6.07895Z" fill="black"/>
<path opacity="0.05" d="M5.94737 6.47369C5.07526 6.47369 4.36842 5.76685 4.36842 4.89474V3.05264H7.52631V4.89474C7.52631 5.76685 6.81947 6.47369 5.94737 6.47369Z" fill="black"/>
<path opacity="0.07" d="M5.94737 6.07895C5.29316 6.07895 4.76316 5.54895 4.76316 4.89474V3.05264H7.13158V4.89474C7.13158 5.54895 6.60158 6.07895 5.94737 6.07895Z" fill="black"/>
<path d="M5.94737 5.68421C5.51158 5.68421 5.15789 5.33053 5.15789 4.89474V2.78947C5.15789 2.35368 5.51158 2 5.94737 2C6.38316 2 6.73684 2.35368 6.73684 2.78947V4.89474C6.73684 5.33053 6.38316 5.68421 5.94737 5.68421Z" fill="#3CCBF4"/>
<path d="M19.3684 10.1579V11.7368C19.3684 11.8821 19.2505 12 19.1053 12H17.5263C17.3811 12 17.2632 11.8821 17.2632 11.7368V10.1579C17.2632 10.0126 17.3811 9.89474 17.5263 9.89474H19.1053C19.2505 9.89474 19.3684 10.0126 19.3684 10.1579ZM15.1579 10.1579V11.7368C15.1579 11.8821 15.04 12 14.8947 12H13.3158C13.1705 12 13.0526 11.8821 13.0526 11.7368V10.1579C13.0526 10.0126 13.1705 9.89474 13.3158 9.89474H14.8947C15.04 9.89474 15.1579 10.0126 15.1579 10.1579ZM10.9474 10.1579V11.7368C10.9474 11.8821 10.8295 12 10.6842 12H9.10526C8.96 12 8.8421 11.8821 8.8421 11.7368V10.1579C8.8421 10.0126 8.96 9.89474 9.10526 9.89474H10.6842C10.8295 9.89474 10.9474 10.0126 10.9474 10.1579Z" fill="white"/>
<path d="M19.3684 13.8421V15.4211C19.3684 15.5663 19.2505 15.6842 19.1053 15.6842H17.5263C17.3811 15.6842 17.2632 15.5663 17.2632 15.4211V13.8421C17.2632 13.6968 17.3811 13.5789 17.5263 13.5789H19.1053C19.2505 13.5789 19.3684 13.6968 19.3684 13.8421ZM15.1579 13.8421V15.4211C15.1579 15.5663 15.04 15.6842 14.8947 15.6842H13.3158C13.1705 15.6842 13.0526 15.5663 13.0526 15.4211V13.8421C13.0526 13.6968 13.1705 13.5789 13.3158 13.5789H14.8947C15.04 13.5789 15.1579 13.6968 15.1579 13.8421ZM10.9474 13.8421V15.4211C10.9474 15.5663 10.8295 15.6842 10.6842 15.6842H9.10526C8.96 15.6842 8.8421 15.5663 8.8421 15.4211V13.8421C8.8421 13.6968 8.96 13.5789 9.10526 13.5789H10.6842C10.8295 13.5789 10.9474 13.6968 10.9474 13.8421ZM6.73684 13.8421V15.4211C6.73684 15.5663 6.61895 15.6842 6.47368 15.6842H4.89473C4.74947 15.6842 4.63158 15.5663 4.63158 15.4211V13.8421C4.63158 13.6968 4.74947 13.5789 4.89473 13.5789H6.47368C6.61895 13.5789 6.73684 13.6968 6.73684 13.8421Z" fill="white"/>
<path d="M15.1579 17.5263V19.1053C15.1579 19.2505 15.04 19.3684 14.8947 19.3684H13.3158C13.1705 19.3684 13.0526 19.2505 13.0526 19.1053V17.5263C13.0526 17.3811 13.1705 17.2632 13.3158 17.2632H14.8947C15.04 17.2632 15.1579 17.3811 15.1579 17.5263ZM10.9474 17.5263V19.1053C10.9474 19.2505 10.8295 19.3684 10.6842 19.3684H9.10526C8.96 19.3684 8.8421 19.2505 8.8421 19.1053V17.5263C8.8421 17.3811 8.96 17.2632 9.10526 17.2632H10.6842C10.8295 17.2632 10.9474 17.3811 10.9474 17.5263ZM6.73684 17.5263V19.1053C6.73684 19.2505 6.61895 19.3684 6.47368 19.3684H4.89473C4.74947 19.3684 4.63158 19.2505 4.63158 19.1053V17.5263C4.63158 17.3811 4.74947 17.2632 4.89473 17.2632H6.47368C6.61895 17.2632 6.73684 17.3811 6.73684 17.5263Z" fill="white"/>
<path d="M18.0526 5.68421C17.6168 5.68421 17.2632 5.33053 17.2632 4.89474V2.78947C17.2632 2.35368 17.6168 2 18.0526 2C18.4884 2 18.8421 2.35368 18.8421 2.78947V4.89474C18.8421 5.33053 18.4884 5.68421 18.0526 5.68421Z" fill="#3CCBF4"/>
<defs>
<linearGradient id="paint0_linear_40_622" x1="2.74421" y1="7.08526" x2="21.3547" y2="20.6779" gradientUnits="userSpaceOnUse">
<stop stop-color="#28AFEA"/>
<stop offset="1" stop-color="#047ED6"/>
</linearGradient>
<linearGradient id="paint1_linear_40_622" x1="2.74737" y1="3.37264" x2="21.0516" y2="7.09474" gradientUnits="userSpaceOnUse">
<stop stop-color="#0077D2"/>
<stop offset="1" stop-color="#0B59A2"/>
</linearGradient>
</defs>
</svg>
