<svg width="24" height="24" viewBox="0 0 24 24" fill="none" xmlns="http://www.w3.org/2000/svg">
<path d="M2.52632 20.9474V6.21053H21.4737V20.9474C21.4737 21.5263 21 22 20.4211 22H3.57895C3 22 2.52632 21.5263 2.52632 20.9474Z" fill="url(#paint0_linear_40_655)"/>
<path opacity="0.05" d="M13.3395 9.42214H12.2158C12.1011 9.42214 11.9879 9.46056 11.8974 9.52951C11.5779 9.77267 11.2142 10 10.8163 10.2042C10.42 10.4079 9.99158 10.5774 9.54368 10.709C9.32105 10.7742 9.16526 10.9821 9.16526 11.2137V12.779C9.16526 12.9295 9.23 13.0732 9.34263 13.1732C9.46053 13.2768 9.61526 13.3211 9.75316 13.3016C9.93895 13.2795 10.1321 13.2426 10.3268 13.1905C10.5168 13.14 10.7037 13.0768 10.8805 13.0037C10.9068 12.9926 10.9337 12.9816 10.96 12.9705V18.5763C10.96 18.8668 11.1963 19.1026 11.4863 19.1026H13.34C13.63 19.1026 13.8663 18.8668 13.8663 18.5763V9.94846C13.8658 9.65846 13.63 9.42214 13.3395 9.42214Z" fill="black"/>
<path opacity="0.07" d="M13.3395 9.6853H12.2158C12.1584 9.6853 12.1021 9.70424 12.0563 9.7395C11.7237 9.99214 11.3468 10.2274 10.9363 10.4384C10.5263 10.6489 10.0821 10.8253 9.61737 10.9616C9.50526 10.9947 9.42842 11.0974 9.42842 11.2137V12.7789C9.42842 12.8542 9.46053 12.9258 9.51684 12.9758C9.57263 13.0253 9.64632 13.0521 9.72263 13.04C9.89895 13.0195 10.08 12.9842 10.2595 12.9363C10.4374 12.8889 10.6132 12.83 10.7805 12.7605C10.9363 12.6963 11.0853 12.6242 11.2237 12.5463V18.5763C11.2237 18.7216 11.3416 18.8395 11.4868 18.8395H13.3405C13.4858 18.8395 13.6037 18.7216 13.6037 18.5763V9.94845C13.6026 9.80319 13.4853 9.6853 13.3395 9.6853Z" fill="black"/>
<path d="M21.4737 4.10527V7.26316H2.52632V4.10527C2.52632 3.52632 3 3.05264 3.57895 3.05264H20.4211C21 3.05264 21.4737 3.52632 21.4737 4.10527Z" fill="url(#paint1_linear_40_655)"/>
<path opacity="0.05" d="M18.0526 6.47369C17.1805 6.47369 16.4737 5.76685 16.4737 4.89474V3.05264H19.6316V4.89474C19.6316 5.76685 18.9247 6.47369 18.0526 6.47369Z" fill="black"/>
<path opacity="0.07" d="M18.0526 6.07895C17.3984 6.07895 16.8684 5.54895 16.8684 4.89474V3.05264H19.2368V4.89474C19.2368 5.54895 18.7068 6.07895 18.0526 6.07895Z" fill="black"/>
<path opacity="0.05" d="M5.94737 6.47369C5.07526 6.47369 4.36842 5.76685 4.36842 4.89474V3.05264H7.52632V4.89474C7.52632 5.76685 6.81947 6.47369 5.94737 6.47369Z" fill="black"/>
<path opacity="0.07" d="M5.94737 6.07895C5.29316 6.07895 4.76316 5.54895 4.76316 4.89474V3.05264H7.13158V4.89474C7.13158 5.54895 6.60158 6.07895 5.94737 6.07895Z" fill="black"/>
<path d="M5.94737 5.68421C5.51158 5.68421 5.15789 5.33053 5.15789 4.89474V2.78947C5.15789 2.35368 5.51158 2 5.94737 2C6.38316 2 6.73684 2.35368 6.73684 2.78947V4.89474C6.73684 5.33053 6.38316 5.68421 5.94737 5.68421Z" fill="#3CCBF4"/>
<path d="M18.0526 5.68421C17.6168 5.68421 17.2632 5.33053 17.2632 4.89474V2.78947C17.2632 2.35368 17.6168 2 18.0526 2C18.4884 2 18.8421 2.35368 18.8421 2.78947V4.89474C18.8421 5.33053 18.4884 5.68421 18.0526 5.68421Z" fill="#3CCBF4"/>
<path d="M13.34 9.94846V18.5763H11.4863V12.0437C11.3842 12.1342 11.2637 12.2195 11.1242 12.2995C10.9847 12.38 10.8368 12.4526 10.68 12.5174C10.5232 12.5821 10.3605 12.6374 10.1916 12.6821C10.0226 12.7274 9.85579 12.7595 9.69105 12.7795V11.2142C10.1737 11.0726 10.6289 10.8926 11.0563 10.6726C11.4842 10.4532 11.8705 10.2116 12.2158 9.94898H13.34V9.94846Z" fill="white"/>
<defs>
<linearGradient id="paint0_linear_40_655" x1="2.74421" y1="7.08526" x2="21.3547" y2="20.6779" gradientUnits="userSpaceOnUse">
<stop stop-color="#28AFEA"/>
<stop offset="1" stop-color="#047ED6"/>
</linearGradient>
<linearGradient id="paint1_linear_40_655" x1="2.74737" y1="3.37264" x2="21.0516" y2="7.09474" gradientUnits="userSpaceOnUse">
<stop stop-color="#0077D2"/>
<stop offset="1" stop-color="#0B59A2"/>
</linearGradient>
</defs>
</svg>
