<svg width="24" height="24" viewBox="0 0 24 24" fill="none" xmlns="http://www.w3.org/2000/svg">
<path d="M21.014 3.53695C21.014 3.53695 19.0493 3.36959 17.5099 4.13589C15.9704 4.90219 12.8042 7.01215 13.3352 7.84371C13.8541 7.45214 14.4383 7.71477 14.7231 8.0095C14.9078 8.20055 15.7551 9.09737 16.3278 9.70367C16.6457 10.0405 17.1504 10.12 17.5567 9.89734L21.4714 7.75161C21.8961 7.51898 22.0977 7.01952 21.954 6.55742L21.014 3.53695Z" fill="url(#paint0_linear_62_153)"/>
<path d="M3.53698 21.0139C3.53698 21.0139 3.36962 19.0492 4.13592 17.5098C4.90222 15.9703 7.01218 12.8041 7.84374 13.3351C7.45217 13.854 7.7148 14.4382 8.00953 14.723C8.20058 14.9077 9.0974 15.7551 9.7037 16.3277C10.0405 16.6456 10.12 17.1503 9.89738 17.5566L7.75164 21.4713C7.51901 21.896 7.01955 22.0976 6.55745 21.9539L3.53698 21.0139Z" fill="url(#paint1_linear_62_153)"/>
<path d="M10.4137 10.4136C7.30007 13.5267 5.01801 17.1519 3.53698 21.014L2.56437 20.4508C2.08806 20.175 1.87333 19.5914 2.07649 19.0798C3.56014 15.3472 5.80746 11.8478 8.82741 8.82741C11.8473 5.80694 15.3478 3.56014 19.0804 2.07649C19.5919 1.87333 20.1756 2.08806 20.4514 2.56437L21.0145 3.53698C17.152 5.01801 13.5268 7.30007 10.4137 10.4136Z" fill="url(#paint2_linear_62_153)"/>
<defs>
<linearGradient id="paint0_linear_62_153" x1="17.6379" y1="3.52148" x2="17.6379" y2="10.0227" gradientUnits="userSpaceOnUse">
<stop stop-color="#F3F3F3"/>
<stop offset="1" stop-color="#C3C3C3"/>
</linearGradient>
<linearGradient id="paint1_linear_62_153" x1="6.77214" y1="13.2758" x2="6.77214" y2="21.9999" gradientUnits="userSpaceOnUse">
<stop stop-color="#F3F3F3"/>
<stop offset="1" stop-color="#C3C3C3"/>
</linearGradient>
<linearGradient id="paint2_linear_62_153" x1="6.6336" y1="2.49859" x2="8.74196" y2="22.2289" gradientUnits="userSpaceOnUse">
<stop stop-color="#C3CDD9"/>
<stop offset="1" stop-color="#9FA7B0"/>
</linearGradient>
</defs>
</svg>
