<svg width="24" height="24" viewBox="0 0 24 24" fill="none" xmlns="http://www.w3.org/2000/svg">
<path d="M21.014 3.53697C21.014 3.53697 19.0493 3.3696 17.5099 4.1359C15.9704 4.9022 12.8042 7.01216 13.3352 7.84373C13.8541 7.45215 14.4383 7.71478 14.7231 8.00951C14.9078 8.20056 15.7552 9.09739 16.3278 9.70369C16.6457 10.0405 17.1504 10.12 17.5567 9.89736L21.4714 7.75162C21.8961 7.519 22.0977 7.01953 21.954 6.55744L21.014 3.53697Z" fill="url(#paint0_linear_40_604)"/>
<path d="M3.53698 21.014C3.53698 21.014 3.36962 19.0493 4.13592 17.5098C4.90222 15.9704 7.01218 12.8041 7.84374 13.3352C7.45217 13.8541 7.7148 14.4383 8.00953 14.723C8.20058 14.9078 9.0974 15.7551 9.7037 16.3278C10.0405 16.6456 10.12 17.1504 9.89738 17.5567L7.75164 21.4713C7.51901 21.8961 7.01955 22.0976 6.55745 21.954L3.53698 21.014Z" fill="url(#paint1_linear_40_604)"/>
<path d="M10.4137 10.4137C7.30007 13.5268 5.01801 17.152 3.53698 21.014L2.56437 20.4508C2.08806 20.1751 1.87333 19.5914 2.07649 19.0798C3.56014 15.3473 5.80746 11.8479 8.82741 8.82743C11.8473 5.80696 15.3478 3.56016 19.0804 2.07651C19.5919 1.87335 20.1756 2.08809 20.4514 2.56439L21.0145 3.53701C17.152 5.01803 13.5268 7.30009 10.4137 10.4137Z" fill="url(#paint2_linear_40_604)"/>
<defs>
<linearGradient id="paint0_linear_40_604" x1="17.638" y1="3.50786" x2="17.638" y2="9.99925" gradientUnits="userSpaceOnUse">
<stop stop-color="#2AA4F4"/>
<stop offset="1" stop-color="#007AD9"/>
</linearGradient>
<linearGradient id="paint1_linear_40_604" x1="6.77214" y1="13.2576" x2="6.77214" y2="21.9685" gradientUnits="userSpaceOnUse">
<stop stop-color="#2AA4F4"/>
<stop offset="1" stop-color="#007AD9"/>
</linearGradient>
<linearGradient id="paint2_linear_40_604" x1="11.5072" y1="1.96014" x2="11.5072" y2="20.9454" gradientUnits="userSpaceOnUse">
<stop stop-color="#2AA4F4"/>
<stop offset="1" stop-color="#007AD9"/>
</linearGradient>
</defs>
</svg>
