<svg width="24" height="24" viewBox="0 0 24 24" fill="none" xmlns="http://www.w3.org/2000/svg">
<path d="M5.80952 17.9524C5.80952 17.6881 5.59762 17.4762 5.33333 17.4762H3.42857C3.16428 17.4762 2.95238 17.6881 2.95238 17.9524V20.8095C2.95238 21.0738 3.16428 21.2857 3.42857 21.2857H5.33333C5.59762 21.2857 5.80952 21.0738 5.80952 20.8095V17.9524ZM21.0476 17.9524C21.0476 17.6881 20.8357 17.4762 20.5714 17.4762H18.6667C18.4024 17.4762 18.1905 17.6881 18.1905 17.9524V20.8095C18.1905 21.0738 18.4024 21.2857 18.6667 21.2857H20.5714C20.8357 21.2857 21.0476 21.0738 21.0476 20.8095V17.9524Z" fill="#455A64"/>
<path d="M21.5238 12.2381H2.47619C2.2119 12.2381 2 12.45 2 12.7143V13.6667C2 13.931 2.2119 14.1429 2.47619 14.1429H21.5238C21.7881 14.1429 22 13.931 22 13.6667V12.7143C22 12.45 21.7881 12.2381 21.5238 12.2381Z" fill="#2196F3"/>
<path d="M20.0952 13.6667L19.1429 13.1924C18.9829 13.1924 5.01523 13.1905 4.85714 13.1905L3.90476 13.6667C3.37857 13.6667 2.95238 14.569 2.95238 15.0952V18.9048C2.95238 19.169 3.16428 19.381 3.42857 19.381H20.5714C20.8357 19.381 21.0476 19.169 21.0476 18.9048V15.0952C21.0476 14.569 20.6214 13.6667 20.0952 13.6667Z" fill="#2196F3"/>
<path d="M19.5167 13.6686C19.45 13.2443 19.3343 12.5805 19.1429 11.5238C18.6667 8.90476 17.7571 7 16.0476 7H7.95238C6.24286 7 5.30333 9.14286 4.85714 11.5238C4.66381 12.56 4.54857 13.2352 4.47952 13.6686H19.5167Z" fill="#2196F3"/>
<path d="M20.0952 17.4762C20.0952 17.7405 19.8833 17.9524 19.619 17.9524H4.38095C4.11666 17.9524 3.90475 17.7405 3.90475 17.4762V16.0476C3.90475 15.7833 4.11666 15.5714 4.38095 15.5714H19.619C19.8833 15.5714 20.0952 15.7833 20.0952 16.0476V17.4762Z" fill="#263238"/>
<path d="M5.80952 16.7619C5.80952 17.1562 5.48952 17.4762 5.09524 17.4762C4.70095 17.4762 4.38095 17.1562 4.38095 16.7619C4.38095 16.3676 4.70095 16.0476 5.09524 16.0476C5.48952 16.0476 5.80952 16.3676 5.80952 16.7619ZM19.619 16.7619C19.619 17.1562 19.299 17.4762 18.9048 17.4762C18.5105 17.4762 18.1905 17.1562 18.1905 16.7619C18.1905 16.3676 18.5105 16.0476 18.9048 16.0476C19.299 16.0476 19.619 16.3676 19.619 16.7619Z" fill="#FFEB3B"/>
<path d="M16.0476 7H7.95239C6.43096 7 5.52096 8.6981 5.02382 10.7495C5.71763 11.0819 6.4743 11.2743 7.23049 11.2857C8.25572 11.2757 9.13334 10.92 9.76906 10.2562C10.2391 9.76381 10.4852 9.25714 10.6491 8.90476H18.1095C18.2005 8.90476 18.2867 8.88905 18.3752 8.88C17.8438 7.71952 17.0972 7 16.0476 7Z" fill="#90CAF9"/>
<path d="M18.2052 11.6929C17.7848 9.38096 17.1691 7.95238 16.0476 7.95238H7.95238C6.91047 7.95238 6.19809 9.54286 5.79285 11.6986C5.67571 12.3238 5.58809 12.8091 5.52333 13.1905H18.4714C18.4062 12.8129 18.3205 12.3276 18.2052 11.6929Z" fill="#E3F2FD"/>
<path d="M18.1905 5.09524C18.1905 5.09524 11.7105 5.09857 10.3457 5.09619C10.1662 5.09572 10.0057 4.99619 9.92429 4.83667C9.74762 4.49238 9.56905 3.96048 9.08048 3.44952C8.66429 3.01429 8.06381 2.72238 7.22143 2.71429C6.10048 2.73095 4.92429 3.25476 4.11143 4.10524C3.65238 4.58572 3.42857 5.09524 3.42857 5.09524H7.2381C7.2381 5.09524 7.71762 5.55476 7.71762 6.52381C7.71762 7.49286 7.2381 7.95238 7.2381 7.95238H3.42857C3.42857 7.95238 3.65238 8.46191 4.11143 8.94238C4.92429 9.79286 6.10048 10.3171 7.22143 10.3333C8.06334 10.3252 8.66429 10.0333 9.08 9.5981C9.56762 9.08762 9.74667 8.55619 9.92334 8.21191C10.0052 8.05191 10.1686 7.95238 10.3486 7.95238H18.1095C18.8829 7.95238 19.5767 7.37333 19.6167 6.60048C19.66 5.77667 19.0048 5.09524 18.1905 5.09524Z" fill="#607D8B"/>
</svg>
