<svg width="24" height="24" viewBox="0 0 24 24" fill="none" xmlns="http://www.w3.org/2000/svg">
<path d="M6.76191 20.8095V17.4762H3.42857V20.8095C3.42862 20.9358 3.4788 21.0569 3.5681 21.1462C3.65739 21.2355 3.77849 21.2857 3.90476 21.2857H6.28572C6.41199 21.2857 6.53309 21.2355 6.62238 21.1462C6.71168 21.0569 6.76186 20.9358 6.76191 20.8095Z" fill="#565B5E"/>
<path d="M20.5714 20.8095V17.4762H17.2381V20.8095C17.2381 20.9358 17.2883 21.0569 17.3776 21.1462C17.467 21.2355 17.588 21.2857 17.7143 21.2857H20.0952C20.2215 21.2857 20.3426 21.2355 20.4319 21.1462C20.5212 21.0569 20.5714 20.9358 20.5714 20.8095Z" fill="#565B5E"/>
<path d="M19.1429 12.2381L17.9057 7.7018C17.8507 7.50023 17.731 7.32233 17.565 7.19551C17.399 7.0687 17.1958 7 16.9869 7H7.01314C6.80421 7 6.60109 7.0687 6.43505 7.19551C6.26901 7.32233 6.14929 7.50023 6.09432 7.7018L4.85714 12.2381L3.71429 13.7619C3.52883 14.0091 3.42857 14.3099 3.42857 14.619V18.4286C3.42857 18.6811 3.52892 18.9234 3.70752 19.102C3.88613 19.2806 4.12836 19.381 4.38095 19.381H19.619C19.8716 19.381 20.1139 19.2806 20.2925 19.102C20.471 18.9234 20.5714 18.6811 20.5714 18.4286V14.619C20.5714 14.3099 20.4711 14.0091 20.2857 13.7619L19.1429 12.2381Z" fill="url(#paint0_linear_40_707)"/>
<path d="M5.57143 17C6.22891 17 6.7619 16.467 6.7619 15.8095C6.7619 15.152 6.22891 14.619 5.57143 14.619C4.91394 14.619 4.38095 15.152 4.38095 15.8095C4.38095 16.467 4.91394 17 5.57143 17Z" fill="white"/>
<path d="M18.4286 17C19.0861 17 19.6191 16.467 19.6191 15.8095C19.6191 15.152 19.0861 14.619 18.4286 14.619C17.7711 14.619 17.2381 15.152 17.2381 15.8095C17.2381 16.467 17.7711 17 18.4286 17Z" fill="white"/>
<path d="M7.71428 15.5714L8.42714 16.9973C8.51719 17.1499 8.64708 17.275 8.80286 17.3594C8.95864 17.4438 9.13444 17.4842 9.31142 17.4762H14.6886C14.8655 17.4842 15.0413 17.4438 15.1971 17.3594C15.3529 17.275 15.4828 17.1499 15.5729 16.9973L16.2857 15.5714H7.71428Z" fill="url(#paint1_linear_40_707)"/>
<path d="M21.0476 12.7143H19.1429V11.7619C19.1429 11.6369 19.1674 11.513 19.2152 11.3974C19.2631 11.2818 19.3332 11.1769 19.4217 11.0884C19.5102 10.9999 19.6151 10.9298 19.7308 10.8819C19.8463 10.8341 19.9702 10.8095 20.0952 10.8095H21.5238C21.6501 10.8095 21.7711 10.8597 21.8605 10.949C21.9498 11.0384 22 11.1594 22 11.2857V11.7619C22 11.887 21.9754 12.0109 21.9276 12.1264C21.8797 12.242 21.8096 12.347 21.7211 12.4354C21.6327 12.5239 21.5277 12.594 21.4121 12.6419C21.2966 12.6897 21.1727 12.7143 21.0476 12.7143Z" fill="url(#paint2_linear_40_707)"/>
<path d="M2.95238 12.7143H4.85714V11.7619C4.85718 11.6369 4.83257 11.513 4.78471 11.3974C4.73687 11.2818 4.66671 11.1769 4.57828 11.0884C4.48983 10.9999 4.38483 10.9298 4.26927 10.8819C4.1537 10.8341 4.02984 10.8095 3.90476 10.8095H2.47619C2.34991 10.8095 2.22882 10.8597 2.13952 10.949C2.05023 11.0384 2.00005 11.1594 2 11.2857V11.7619C1.99996 11.887 2.02457 12.0109 2.07243 12.1264C2.12028 12.242 2.19043 12.347 2.27887 12.4354C2.36731 12.5239 2.47231 12.594 2.58788 12.6419C2.70345 12.6897 2.8273 12.7143 2.95238 12.7143Z" fill="url(#paint3_linear_40_707)"/>
<path d="M18.0714 12.7143L17.0319 8.67381C16.9806 8.46766 16.8618 8.28461 16.6944 8.15386C16.527 8.02311 16.3206 7.95219 16.1081 7.95239H7.89191C7.67947 7.95219 7.47308 8.02311 7.30565 8.15386C7.13822 8.28461 7.01938 8.46766 6.9681 8.67381L5.92857 12.7143H18.0714Z" fill="url(#paint4_linear_40_707)"/>
<path d="M16.7619 4.80477V5.38572C16.7618 5.44506 16.7499 5.50378 16.727 5.55854C16.7042 5.61329 16.6707 5.66298 16.6286 5.70477L16.419 5.91429C16.3773 5.95641 16.3276 5.98988 16.2729 6.01276C16.2181 6.03564 16.1593 6.04749 16.1 6.04762H10.5714V4.14286H12.4762C12.4762 4.26916 12.5264 4.39028 12.6156 4.47957C12.705 4.56888 12.8261 4.61905 12.9524 4.61905C13.0787 4.61905 13.1998 4.56888 13.2891 4.47957C13.3784 4.39028 13.4286 4.26916 13.4286 4.14286H14.381C14.381 4.26916 14.4311 4.39028 14.5204 4.47957C14.6097 4.56888 14.7309 4.61905 14.8571 4.61905C14.9834 4.61905 15.1046 4.56888 15.1939 4.47957C15.2831 4.39028 15.3333 4.26916 15.3333 4.14286H16.1C16.1593 4.14299 16.2181 4.15484 16.2729 4.17772C16.3275 4.2006 16.3772 4.23407 16.419 4.27619L16.6286 4.48572C16.6707 4.5275 16.7042 4.57719 16.727 4.63195C16.7499 4.68669 16.7618 4.74542 16.7619 4.80477Z" fill="url(#paint5_linear_40_707)"/>
<path d="M7.2381 5.09524C7.2381 5.56614 7.37774 6.02648 7.63936 6.41803C7.90098 6.80957 8.27284 7.11474 8.7079 7.29495C9.14296 7.47516 9.62169 7.52232 10.0836 7.43044C10.5454 7.33857 10.9696 7.11181 11.3027 6.77883C11.6356 6.44585 11.8624 6.0216 11.9543 5.55974C12.0461 5.09788 11.999 4.61915 11.8188 4.18409C11.6386 3.74903 11.3333 3.37717 10.9418 3.11555C10.5503 2.85392 10.09 2.71429 9.61905 2.71429C8.98759 2.71432 8.382 2.96517 7.9355 3.41169C7.48898 3.85819 7.23813 4.46378 7.2381 5.09524ZM9.14286 5.09524C9.14286 5.18942 9.11494 5.28149 9.06261 5.3598C9.01028 5.43811 8.93591 5.49914 8.8489 5.53518C8.76189 5.57122 8.66614 5.58066 8.57376 5.56228C8.48139 5.54391 8.39655 5.49855 8.32996 5.43195C8.26336 5.36536 8.218 5.28052 8.19963 5.18814C8.18125 5.09576 8.19069 5.00002 8.22673 4.91301C8.26276 4.826 8.3238 4.75163 8.40211 4.69931C8.48042 4.64697 8.57249 4.61905 8.66667 4.61905C8.7292 4.61905 8.79113 4.63136 8.84891 4.65529C8.90668 4.67922 8.95917 4.7143 9.00339 4.75852C9.04761 4.80273 9.08269 4.85523 9.10662 4.913C9.13055 4.97078 9.14286 5.03271 9.14286 5.09524Z" fill="url(#paint6_linear_40_707)"/>
<path opacity="0.05" d="M11.0476 7C10.6355 7.3091 10.1342 7.47619 9.61905 7.47619C9.10389 7.47619 8.60261 7.3091 8.19048 7H7.49524C7.76207 7.29953 8.08924 7.53924 8.45527 7.70338C8.8213 7.86751 9.21791 7.95237 9.61905 7.95237C10.0202 7.95237 10.4168 7.86751 10.7829 7.70338C11.1489 7.53924 11.476 7.29953 11.7429 7H11.0476Z" fill="black"/>
<path opacity="0.07" d="M11.0476 7C10.6355 7.3091 10.1342 7.47619 9.61906 7.47619C9.10389 7.47619 8.60262 7.3091 8.19049 7H7.82382C8.309 7.4587 8.95136 7.71428 9.61906 7.71428C10.2868 7.71428 10.9291 7.4587 11.4143 7H11.0476Z" fill="black"/>
<defs>
<linearGradient id="paint0_linear_40_707" x1="7.54334" y1="4.23714" x2="13.6552" y2="21.0295" gradientUnits="userSpaceOnUse">
<stop stop-color="#42A3F2"/>
<stop offset="1" stop-color="#42A4EB"/>
</linearGradient>
<linearGradient id="paint1_linear_40_707" x1="7.71428" y1="16.5238" x2="16.2857" y2="16.5238" gradientUnits="userSpaceOnUse">
<stop stop-color="#3079D6"/>
<stop offset="1" stop-color="#297CD2"/>
</linearGradient>
<linearGradient id="paint2_linear_40_707" x1="16.4243" y1="0.56381" x2="23.0267" y2="18.7038" gradientUnits="userSpaceOnUse">
<stop stop-color="#42A3F2"/>
<stop offset="1" stop-color="#42A4EB"/>
</linearGradient>
<linearGradient id="paint3_linear_40_707" x1="1.04381" y1="5.21" x2="7.85238" y2="23.9167" gradientUnits="userSpaceOnUse">
<stop stop-color="#42A3F2"/>
<stop offset="1" stop-color="#42A4EB"/>
</linearGradient>
<linearGradient id="paint4_linear_40_707" x1="12" y1="14.7943" x2="12" y2="5.2562" gradientUnits="userSpaceOnUse">
<stop stop-color="#3079D6"/>
<stop offset="1" stop-color="#297CD2"/>
</linearGradient>
<linearGradient id="paint5_linear_40_707" x1="15.2838" y1="7.02191" x2="11.6048" y2="3.18667" gradientUnits="userSpaceOnUse">
<stop stop-color="#E5A505"/>
<stop offset="0.01" stop-color="#E9A804"/>
<stop offset="0.06" stop-color="#F4B102"/>
<stop offset="0.129" stop-color="#FBB600"/>
<stop offset="0.323" stop-color="#FDB700"/>
</linearGradient>
<linearGradient id="paint6_linear_40_707" x1="11.6343" y1="6.48143" x2="7.70334" y2="3.77762" gradientUnits="userSpaceOnUse">
<stop stop-color="#FEDE00"/>
<stop offset="1" stop-color="#FFD000"/>
</linearGradient>
</defs>
</svg>
