<svg width="24" height="24" viewBox="0 0 24 24" fill="none" xmlns="http://www.w3.org/2000/svg">
<path d="M19.8804 3.52174H3.25C2.55957 3.52174 2 4.0813 2 4.77174V15.3152C2 16.0056 2.55957 16.5652 3.25 16.5652H19.8804C20.5709 16.5652 21.1304 16.0056 21.1304 15.3152V4.77174C21.1304 4.0813 20.5709 3.52174 19.8804 3.52174Z" fill="url(#paint0_linear_40_681)"/>
<path d="M21.1304 5.69565H2V7.43478H21.1304V5.69565Z" fill="url(#paint1_linear_40_681)"/>
<path d="M19.3913 10.0435H3.73913C3.49913 10.0435 3.30434 9.84869 3.30434 9.60869V8.73913C3.30434 8.49913 3.49913 8.30434 3.73913 8.30434H19.3913C19.6313 8.30434 19.8261 8.49913 19.8261 8.73913V9.60869C19.8261 9.84869 19.6313 10.0435 19.3913 10.0435Z" fill="#A8E7FF"/>
<path d="M17.6522 10.913C14.7752 10.913 12.4348 13.2535 12.4348 16.1304C12.4348 16.2774 12.4448 16.4213 12.457 16.5652H19.8804C20.5709 16.5652 21.1304 16.0056 21.1304 15.3152V12.2526C20.2061 11.4226 18.9891 10.913 17.6522 10.913Z" fill="url(#paint2_radial_40_681)"/>
<path d="M17.6522 20.4783C20.0534 20.4783 22 18.5317 22 16.1304C22 13.7292 20.0534 11.7826 17.6522 11.7826C15.251 11.7826 13.3044 13.7292 13.3044 16.1304C13.3044 18.5317 15.251 20.4783 17.6522 20.4783Z" fill="url(#paint3_linear_40_681)"/>
<path d="M17.6522 19.6087C19.5731 19.6087 21.1304 18.0514 21.1304 16.1304C21.1304 14.2095 19.5731 12.6522 17.6522 12.6522C15.7312 12.6522 14.1739 14.2095 14.1739 16.1304C14.1739 18.0514 15.7312 19.6087 17.6522 19.6087Z" fill="#F5BE00"/>
<path d="M16.6813 17.7326V17.0848C16.9165 17.2287 17.167 17.3009 17.4326 17.3009C17.6326 17.3009 17.7891 17.2535 17.9017 17.1582C18.0143 17.063 18.0709 16.9339 18.0709 16.7704C18.0709 16.4296 17.83 16.2591 17.3483 16.2591C17.1913 16.2591 17.0017 16.2735 16.7791 16.3022V14.3791H18.6852V14.9987H17.4274V15.6874C17.5283 15.6778 17.6235 15.673 17.713 15.673C18.0665 15.673 18.3435 15.7661 18.5435 15.9513C18.7435 16.1369 18.8435 16.3869 18.8435 16.7004C18.8435 17.0474 18.7243 17.3313 18.4857 17.5513C18.2474 17.7717 17.9239 17.8813 17.5157 17.8813C17.1852 17.8817 16.907 17.8322 16.6813 17.7326Z" fill="#FEE119"/>
<defs>
<linearGradient id="paint0_linear_40_681" x1="9.98913" y1="4.41782" x2="13.6296" y2="17.4113" gradientUnits="userSpaceOnUse">
<stop stop-color="#32BDEF"/>
<stop offset="1" stop-color="#1EA2E4"/>
</linearGradient>
<linearGradient id="paint1_linear_40_681" x1="2" y1="6.56521" x2="21.1304" y2="6.56521" gradientUnits="userSpaceOnUse">
<stop stop-color="#45494D"/>
<stop offset="1" stop-color="#6D7479"/>
</linearGradient>
<radialGradient id="paint2_radial_40_681" cx="0" cy="0" r="1" gradientUnits="userSpaceOnUse" gradientTransform="translate(17.4487 16.1443) scale(5.13435)">
<stop/>
<stop offset="0.979" stop-opacity="0"/>
</radialGradient>
<linearGradient id="paint3_linear_40_681" x1="14.6678" y1="13.1461" x2="20.72" y2="19.1983" gradientUnits="userSpaceOnUse">
<stop stop-color="#FEDE00"/>
<stop offset="1" stop-color="#FFD000"/>
</linearGradient>
</defs>
</svg>
