<svg width="24" height="24" viewBox="0 0 24 24" fill="none" xmlns="http://www.w3.org/2000/svg">
<path d="M11.7333 14.3859C11.703 14.3033 11.6662 14.2231 11.6235 14.1462C11.5916 14.0625 11.5514 13.9822 11.5036 13.9065C11.3376 13.6139 11.1327 13.3451 10.8944 13.1075C10.6581 12.8678 10.3891 12.6627 10.0953 12.4983C10.0198 12.4517 9.94142 12.4101 9.86064 12.3734C9.78074 12.3335 9.70087 12.2985 9.62093 12.2636C8.92488 11.9834 8.16182 11.914 7.42665 12.0641C6.69147 12.2141 6.01664 12.577 5.48605 13.1075L3.11399 15.4796C2.40032 16.1975 2.00039 17.1691 2.00189 18.1814C2.00339 19.1937 2.40619 20.1641 3.12198 20.8799C3.83779 21.5957 4.80819 21.9985 5.82049 22C6.83279 22.0015 7.80437 21.6016 8.5223 20.8879L10.8944 18.5158C11.4233 17.9853 11.7849 17.311 11.934 16.5768C12.0832 15.8426 12.0134 15.0808 11.7333 14.3859ZM9.48111 17.1026L7.10905 19.4746C6.76668 19.817 6.30232 20.0094 5.81814 20.0094C5.33396 20.0094 4.86961 19.817 4.52724 19.4746C4.18488 19.1322 3.99253 18.6679 3.99253 18.1837C3.99253 17.6995 4.18488 17.2352 4.52724 16.8928L6.8993 14.5208C7.16492 14.2546 7.50718 14.0782 7.87809 14.0164C7.98178 13.9965 8.08712 13.9864 8.1927 13.9864C8.2095 13.9855 8.22633 13.9872 8.24264 13.9914C8.35182 13.9906 8.46072 14.0024 8.56724 14.0264C8.91356 14.0985 9.23122 14.2704 9.48111 14.5208C9.73504 14.7679 9.90752 15.0868 9.9755 15.4346C9.99945 15.5412 10.0112 15.6501 10.0105 15.7592C10.0197 15.883 10.0114 16.0074 9.98548 16.1288C9.92567 16.4989 9.74891 16.8402 9.48111 17.1026ZM10.8944 13.1075C10.6581 12.8678 10.3891 12.6627 10.0953 12.4983L8.56724 14.0264C8.91356 14.0986 9.23122 14.2704 9.48111 14.5208C9.73504 14.768 9.90752 15.0869 9.9755 15.4346L11.5036 13.9066C11.3376 13.6139 11.1327 13.3451 10.8944 13.1075Z" fill="#0078D4"/>
<path d="M20.882 3.11987C20.1648 2.40282 19.1921 2 18.1778 2C17.1636 2 16.1909 2.40282 15.4737 3.11987L13.1016 5.49194C12.5727 6.02247 12.2111 6.6967 12.062 7.4309C11.9128 8.1651 11.9826 8.92693 12.2627 9.62182C12.293 9.70445 12.3298 9.78459 12.3725 9.86153C12.4044 9.94522 12.4445 10.0255 12.4924 10.1012C12.6584 10.3939 12.8633 10.6626 13.1016 10.9002C13.3379 11.1399 13.6069 11.3451 13.9006 11.5095C13.9761 11.5559 14.0545 11.5977 14.1353 11.6343C14.2152 11.6743 14.2951 11.7091 14.375 11.7442C15.0714 12.0228 15.834 12.0913 16.5688 11.9414C17.3037 11.7913 17.9785 11.4294 18.5099 10.9002L20.882 8.52818C21.5968 7.80974 21.9981 6.8375 21.9981 5.82403C21.9981 4.81055 21.5968 3.8383 20.882 3.11987ZM19.4687 7.11493L17.0967 9.48699C16.8324 9.75496 16.4895 9.93165 16.1179 9.99137C15.9982 10.0172 15.8754 10.0256 15.7533 10.0163C15.6442 10.017 15.5352 10.0053 15.4287 9.98134C15.0826 9.90886 14.765 9.73706 14.5149 9.48696C14.2648 9.23685 14.093 8.91928 14.0205 8.57308C13.9965 8.46656 13.9848 8.35767 13.9855 8.24848C13.9762 8.12475 13.9846 8.00031 14.0105 7.87894C14.0703 7.50882 14.2471 7.16757 14.5149 6.90519L16.8869 4.53312C17.2293 4.19076 17.6936 3.99842 18.1778 3.99842C18.4175 3.99842 18.6549 4.04564 18.8765 4.13738C19.098 4.22913 19.2992 4.3636 19.4687 4.53312C19.6382 4.70264 19.7728 4.9039 19.8644 5.12539C19.9562 5.34689 20.0035 5.58428 20.0035 5.82403C20.0035 6.06377 19.9562 6.30117 19.8644 6.52265C19.7728 6.74415 19.6382 6.94541 19.4687 7.11493Z" fill="#0078D4"/>
<path d="M9.0017 15.9989C8.80418 15.9989 8.61111 15.9403 8.4469 15.8305C8.28268 15.7208 8.15469 15.5649 8.07911 15.3824C8.00353 15.1999 7.98375 14.9991 8.02227 14.8053C8.06079 14.6116 8.1559 14.4337 8.29554 14.294L14.2882 8.30143C14.4754 8.11414 14.7294 8.00893 14.9943 8.00893C15.2592 8.00893 15.5131 8.11414 15.7004 8.30143C15.8877 8.48871 15.9929 8.74273 15.9929 9.00759C15.9929 9.27245 15.8877 9.52646 15.7004 9.71374L9.70786 15.7063C9.61523 15.7992 9.50517 15.8729 9.38398 15.9231C9.2628 15.9734 9.13288 15.9991 9.0017 15.9989Z" fill="#1B9DE2"/>
<path opacity="0.05" d="M9.86063 12.3734C9.78073 12.3335 9.70085 12.2985 9.62093 12.2636L7.94301 13.9415C7.91995 13.9651 7.89827 13.9902 7.87809 14.0164C7.98178 13.9965 8.08712 13.9864 8.1927 13.9864C8.2095 13.9856 8.22633 13.9872 8.24264 13.9914C8.35181 13.9906 8.46072 14.0024 8.56724 14.0264L10.0953 12.4983C10.0198 12.4517 9.94141 12.4101 9.86063 12.3734ZM11.6235 14.1462C11.5916 14.0625 11.5514 13.9822 11.5036 13.9065L9.97549 15.4346C9.99944 15.5412 10.0111 15.6501 10.0104 15.7592C10.0197 15.883 10.0113 16.0074 9.98548 16.1288C10.0116 16.1068 10.0367 16.0834 10.0604 16.0589L11.7333 14.3859C11.703 14.3033 11.6662 14.2231 11.6235 14.1462ZM15.7533 10.0163C15.6442 10.017 15.5352 10.0053 15.4287 9.98135L13.9006 11.5095C13.9761 11.5559 14.0545 11.5977 14.1353 11.6343C14.2152 11.6743 14.2951 11.7092 14.375 11.7442L16.053 10.0663C16.076 10.0426 16.0977 10.0175 16.1179 9.99137C15.9982 10.0172 15.8754 10.0256 15.7533 10.0163ZM13.9855 8.24852C13.9762 8.12479 13.9846 8.00035 14.0105 7.87898C13.9843 7.90094 13.9593 7.92427 13.9356 7.9489L12.2627 9.62182C12.293 9.70445 12.3298 9.78459 12.3725 9.86153C12.4044 9.94523 12.4445 10.0255 12.4924 10.1012L14.0205 8.57312C13.9965 8.4666 13.9848 8.3577 13.9855 8.24852Z" fill="black"/>
<path opacity="0.07" d="M9.86063 12.3734L8.24264 13.9914C8.35181 13.9907 8.46072 14.0024 8.56724 14.0264L10.0953 12.4983C10.0198 12.4517 9.94141 12.4101 9.86063 12.3734ZM11.5036 13.9065L9.97549 15.4346C9.99944 15.5411 10.0111 15.6501 10.0104 15.7592L11.6235 14.1462C11.5916 14.0625 11.5514 13.9822 11.5036 13.9065ZM15.4287 9.98138L13.9006 11.5095C13.9761 11.5559 14.0545 11.5977 14.1353 11.6343L15.7533 10.0163C15.6442 10.017 15.5352 10.0054 15.4287 9.98138ZM13.9855 8.24853L12.3725 9.86153C12.4044 9.94523 12.4445 10.0255 12.4924 10.1012L14.0205 8.57313C13.9965 8.46661 13.9848 8.3577 13.9855 8.24853Z" fill="black"/>
</svg>
