<svg width="24" height="24" viewBox="0 0 24 24" fill="none" xmlns="http://www.w3.org/2000/svg">
<path d="M2 4.63158H15.6842V14.1053H3.05263C2.47105 14.1053 2 13.6342 2 13.0526V4.63158Z" fill="url(#paint0_linear_40_668)"/>
<path d="M15.6842 4.63158V3.57895C15.6842 2.99737 15.2132 2.52631 14.6316 2.52631H3.05263C2.47105 2.52631 2 2.99737 2 3.57895V4.63158H15.6842Z" fill="url(#paint1_linear_40_668)"/>
<path d="M7.26316 11.4737H4.63158C4.34105 11.4737 4.10526 11.2379 4.10526 10.9474V7.78947C4.10526 7.49894 4.34105 7.26315 4.63158 7.26315H7.26316C7.55368 7.26315 7.78947 7.49894 7.78947 7.78947V10.9474C7.78947 11.2379 7.55368 11.4737 7.26316 11.4737Z" fill="url(#paint2_linear_40_668)"/>
<path d="M13.0526 11.4737H10.4211C10.1305 11.4737 9.89474 11.2379 9.89474 10.9474V7.78947C9.89474 7.49894 10.1305 7.26315 10.4211 7.26315H13.0526C13.3432 7.26315 13.5789 7.49894 13.5789 7.78947V10.9474C13.5789 11.2379 13.3432 11.4737 13.0526 11.4737Z" fill="url(#paint3_linear_40_668)"/>
<path opacity="0.05" d="M15.6842 14.1053V9.36842H9.36842C8.4979 9.36842 7.78947 10.0768 7.78947 10.9474V14.1053H15.6842Z" fill="black"/>
<path opacity="0.07" d="M15.6842 14.1053V9.63158H9.36842C8.64316 9.63158 8.05263 10.2221 8.05263 10.9474V14.1053H15.6842Z" fill="black"/>
<path d="M8.31579 12H22V20.4211C22 21.0026 21.5289 21.4737 20.9474 21.4737H9.36842C8.78684 21.4737 8.31579 21.0026 8.31579 20.4211V12Z" fill="url(#paint4_linear_40_668)"/>
<path d="M22 12V10.9474C22 10.3658 21.5289 9.89474 20.9474 9.89474H9.36842C8.78684 9.89474 8.31579 10.3658 8.31579 10.9474V12H22Z" fill="url(#paint5_linear_40_668)"/>
<path d="M13.5789 18.8421H10.9474C10.6568 18.8421 10.4211 18.6063 10.4211 18.3158V15.1579C10.4211 14.8674 10.6568 14.6316 10.9474 14.6316H13.5789C13.8695 14.6316 14.1053 14.8674 14.1053 15.1579V18.3158C14.1053 18.6063 13.8695 18.8421 13.5789 18.8421Z" fill="url(#paint6_linear_40_668)"/>
<path d="M19.3684 18.8421H16.7368C16.4463 18.8421 16.2105 18.6063 16.2105 18.3158V15.1579C16.2105 14.8674 16.4463 14.6316 16.7368 14.6316H19.3684C19.6589 14.6316 19.8947 14.8674 19.8947 15.1579V18.3158C19.8947 18.6063 19.6589 18.8421 19.3684 18.8421Z" fill="url(#paint7_linear_40_668)"/>
<defs>
<linearGradient id="paint0_linear_40_668" x1="3.47" y1="3.68789" x2="11.7716" y2="11.9895" gradientUnits="userSpaceOnUse">
<stop stop-color="#7DD8F3"/>
<stop offset="1" stop-color="#45B0D0"/>
</linearGradient>
<linearGradient id="paint1_linear_40_668" x1="2" y1="3.57895" x2="15.6842" y2="3.57895" gradientUnits="userSpaceOnUse">
<stop stop-color="#0077D2"/>
<stop offset="1" stop-color="#0B59A2"/>
</linearGradient>
<linearGradient id="paint2_linear_40_668" x1="5.94737" y1="7.26315" x2="5.94737" y2="12.2305" gradientUnits="userSpaceOnUse">
<stop stop-color="#199AE0"/>
<stop offset="1" stop-color="#0782D8"/>
</linearGradient>
<linearGradient id="paint3_linear_40_668" x1="11.7368" y1="7.26315" x2="11.7368" y2="12.2305" gradientUnits="userSpaceOnUse">
<stop stop-color="#199AE0"/>
<stop offset="1" stop-color="#0782D8"/>
</linearGradient>
<linearGradient id="paint4_linear_40_668" x1="8.31579" y1="16.7368" x2="22" y2="16.7368" gradientUnits="userSpaceOnUse">
<stop stop-color="#9DFFCE"/>
<stop offset="1" stop-color="#50D18D"/>
</linearGradient>
<linearGradient id="paint5_linear_40_668" x1="8.31579" y1="10.9474" x2="22" y2="10.9474" gradientUnits="userSpaceOnUse">
<stop stop-color="#21AD64"/>
<stop offset="1" stop-color="#088242"/>
</linearGradient>
<linearGradient id="paint6_linear_40_668" x1="10.4211" y1="16.7368" x2="14.1053" y2="16.7368" gradientUnits="userSpaceOnUse">
<stop offset="0.824" stop-color="#135D36"/>
<stop offset="0.931" stop-color="#125933"/>
<stop offset="1" stop-color="#11522F"/>
</linearGradient>
<linearGradient id="paint7_linear_40_668" x1="16.2105" y1="16.7368" x2="19.8947" y2="16.7368" gradientUnits="userSpaceOnUse">
<stop offset="0.824" stop-color="#135D36"/>
<stop offset="0.931" stop-color="#125933"/>
<stop offset="1" stop-color="#11522F"/>
</linearGradient>
</defs>
</svg>
