<svg width="24" height="24" viewBox="0 0 24 24" fill="none" xmlns="http://www.w3.org/2000/svg">
<path d="M8 9H20C20.5525 9 21 9.50867 21 10.1367V18.0935C21 18.7215 20.5525 19.2302 20 19.2302H19.5V22.6869C19.5 23.0012 19.138 23.1188 18.992 22.8523L17 19.2302H8C7.4475 19.2302 7 18.7215 7 18.0935V10.1367C7 9.50867 7.4475 9 8 9Z" fill="url(#paint0_linear_62_124)"/>
<path opacity="0.05" d="M16.6592 11.8361H6.82306V9.24768H17.6946V10.8008C17.6946 11.3728 17.2313 11.8361 16.6592 11.8361Z" fill="black"/>
<path opacity="0.07" d="M16.4004 11.5773H6.82306V9.24768H17.4358V10.5419C17.4358 11.114 16.9724 11.5773 16.4004 11.5773Z" fill="black"/>
<path d="M16.1415 2H3.7169C3.14485 2 2.68152 2.46334 2.68152 3.03539V10.2831C2.68152 10.8551 3.14485 11.3185 3.7169 11.3185H4.2346V14.5577C4.2346 14.8176 4.57524 14.9154 4.71295 14.6949L6.82306 11.3185H16.1415C16.7136 11.3185 17.1769 10.8551 17.1769 10.2831V3.03539C17.1769 2.46334 16.7136 2 16.1415 2Z" fill="url(#paint1_linear_62_124)"/>
<path opacity="0.05" d="M6.04653 6.65927H13.8119C14.2406 6.65927 14.5885 6.31138 14.5885 5.88273V5.36504C14.5885 4.93639 14.2406 4.5885 13.8119 4.5885H6.04653C5.61788 4.5885 5.26999 4.93639 5.26999 5.36504V5.88273C5.26999 6.31138 5.61788 6.65927 6.04653 6.65927Z" fill="black"/>
<path opacity="0.07" d="M6.04652 6.40037H13.8119C14.0977 6.40037 14.3296 6.16844 14.3296 5.88268V5.36498C14.3296 5.07922 14.0977 4.84729 13.8119 4.84729H6.04652C5.76075 4.84729 5.52882 5.07922 5.52882 5.36498V5.88268C5.52882 6.16844 5.76075 6.40037 6.04652 6.40037Z" fill="black"/>
<path d="M14.0708 5.36505V5.88274C14.0708 6.02562 13.9548 6.14159 13.8119 6.14159H6.04652C5.90364 6.14159 5.78767 6.02562 5.78767 5.88274V5.36505C5.78767 5.22216 5.90364 5.1062 6.04652 5.1062H13.8119C13.9548 5.1062 14.0708 5.22216 14.0708 5.36505Z" fill="url(#paint2_linear_62_124)"/>
<path opacity="0.05" d="M6.04653 8.72995H12.7765C13.2052 8.72995 13.5531 8.38206 13.5531 7.95341V7.43572C13.5531 7.00707 13.2052 6.65918 12.7765 6.65918H6.04653C5.61788 6.65918 5.26999 7.00707 5.26999 7.43572V7.95341C5.26999 8.38206 5.61788 8.72995 6.04653 8.72995Z" fill="black"/>
<path opacity="0.07" d="M6.04652 8.47117H12.7765C13.0623 8.47117 13.2942 8.23924 13.2942 7.95348V7.43578C13.2942 7.15002 13.0623 6.91809 12.7765 6.91809H6.04652C5.76075 6.91809 5.52882 7.15002 5.52882 7.43578V7.95348C5.52882 8.23924 5.76075 8.47117 6.04652 8.47117Z" fill="black"/>
<path d="M13.0354 7.43573V7.95342C13.0354 8.0963 12.9194 8.21227 12.7765 8.21227H6.04652C5.90364 8.21227 5.78767 8.0963 5.78767 7.95342V7.43573C5.78767 7.29284 5.90364 7.17688 6.04652 7.17688H12.7765C12.9194 7.17688 13.0354 7.29284 13.0354 7.43573Z" fill="url(#paint3_linear_62_124)"/>
<path opacity="0.05" d="M9.75002 14.5001H17.2502C17.6642 14.5001 18.0002 14.08 18.0002 13.5625V12.9375C18.0002 12.42 17.6642 12 17.2502 12H9.75002C9.33601 12 9 12.42 9 12.9375V13.5625C9 14.08 9.33601 14.5001 9.75002 14.5001Z" fill="black"/>
<path opacity="0.07" d="M9.75001 14.1875H17.2502C17.5262 14.1875 17.7502 13.9075 17.7502 13.5625V12.9375C17.7502 12.5925 17.5262 12.3125 17.2502 12.3125H9.75001C9.47401 12.3125 9.25 12.5925 9.25 12.9375V13.5625C9.25 13.9075 9.47401 14.1875 9.75001 14.1875Z" fill="black"/>
<path d="M17.5002 12.9375V13.5625C17.5002 13.735 17.3882 13.875 17.2502 13.875H9.75001C9.612 13.875 9.5 13.735 9.5 13.5625V12.9375C9.5 12.765 9.612 12.625 9.75001 12.625H17.2502C17.3882 12.625 17.5002 12.765 17.5002 12.9375Z" fill="url(#paint4_linear_62_124)"/>
<path opacity="0.05" d="M9.75002 17.0001H16.2502C16.6642 17.0001 17.0002 16.58 17.0002 16.0625V15.4375C17.0002 14.92 16.6642 14.5 16.2502 14.5H9.75002C9.33601 14.5 9 14.92 9 15.4375V16.0625C9 16.58 9.33601 17.0001 9.75002 17.0001Z" fill="black"/>
<path opacity="0.07" d="M9.75001 16.6875H16.2502C16.5262 16.6875 16.7502 16.4075 16.7502 16.0625V15.4375C16.7502 15.0925 16.5262 14.8125 16.2502 14.8125H9.75001C9.47401 14.8125 9.25 15.0925 9.25 15.4375V16.0625C9.25 16.4075 9.47401 16.6875 9.75001 16.6875Z" fill="black"/>
<path d="M16.5002 15.4375V16.0625C16.5002 16.235 16.3882 16.375 16.2502 16.375H9.75001C9.612 16.375 9.5 16.235 9.5 16.0625V15.4375C9.5 15.265 9.612 15.125 9.75001 15.125H16.2502C16.3882 15.125 16.5002 15.265 16.5002 15.4375Z" fill="url(#paint5_linear_62_124)"/>
<defs>
<linearGradient id="paint0_linear_62_124" x1="10.4116" y1="9.36711" x2="11.9641" y2="23.8946" gradientUnits="userSpaceOnUse">
<stop stop-color="white"/>
<stop offset="1" stop-color="#F2F2F2"/>
</linearGradient>
<linearGradient id="paint1_linear_62_124" x1="6.21387" y1="2.33609" x2="7.47364" y2="15.6688" gradientUnits="userSpaceOnUse">
<stop stop-color="#C3CDD9"/>
<stop offset="1" stop-color="#9FA7B0"/>
</linearGradient>
<linearGradient id="paint2_linear_62_124" x1="7.80616" y1="5.13335" x2="7.82067" y2="6.21982" gradientUnits="userSpaceOnUse">
<stop stop-color="#ECECEC"/>
<stop offset="1" stop-color="#EDEDED"/>
</linearGradient>
<linearGradient id="paint3_linear_62_124" x1="7.55385" y1="7.20403" x2="7.57043" y2="8.29044" gradientUnits="userSpaceOnUse">
<stop stop-color="#ECECEC"/>
<stop offset="1" stop-color="#EDEDED"/>
</linearGradient>
<linearGradient id="paint4_linear_62_124" x1="10.7864" y1="12.826" x2="11.0524" y2="14.5285" gradientUnits="userSpaceOnUse">
<stop stop-color="#0D61A9"/>
<stop offset="1" stop-color="#16528C"/>
</linearGradient>
<linearGradient id="paint5_linear_62_124" x1="10.6256" y1="15.326" x2="10.9274" y2="17.0161" gradientUnits="userSpaceOnUse">
<stop stop-color="#0D61A9"/>
<stop offset="1" stop-color="#16528C"/>
</linearGradient>
</defs>
</svg>
