<svg width="24" height="24" viewBox="0 0 24 24" fill="none" xmlns="http://www.w3.org/2000/svg">
<path d="M11.5265 2C16.7567 2 20.9963 6.23961 20.9963 11.4698C20.9963 13.1918 20.5294 14.8017 19.7264 16.1928L21.8874 21.1095C22.127 21.6545 21.5507 22.1985 21.0204 21.9286L16.402 19.5768C14.9763 20.4362 13.312 20.9395 11.5265 20.9395C6.29637 20.9395 2.05676 16.6999 2.05676 11.4698C2.05676 6.23961 6.29637 2 11.5265 2Z" fill="url(#paint0_linear_40_734)"/>
<path opacity="0.05" d="M6.56578 10.0493C6.16852 10.0493 5.84466 9.73064 5.84466 9.33906V8.86557C5.84466 8.474 6.16852 8.15534 6.56578 8.15534H16.4868C16.8845 8.15534 17.2084 8.474 17.2084 8.86557V9.33906C17.2084 9.73064 16.8845 10.0493 16.4872 10.0493H6.56578Z" fill="black"/>
<path opacity="0.07" d="M6.56578 9.81255C6.29873 9.81255 6.0814 9.59995 6.0814 9.33906V8.86557C6.0814 8.60468 6.29873 8.39208 6.56578 8.39208H16.4868C16.7538 8.39208 16.9711 8.60468 16.9711 8.86557V9.33906C16.9711 9.59995 16.7538 9.81255 16.4868 9.81255H6.56578Z" fill="black"/>
<path d="M16.7349 8.86557V9.33906C16.7349 9.46974 16.6236 9.57581 16.4868 9.57581H6.56625C6.42942 9.57581 6.31815 9.46974 6.31815 9.33906V8.86557C6.31815 8.73489 6.42942 8.62883 6.56625 8.62883H16.4868C16.6236 8.62883 16.7349 8.73489 16.7349 8.86557Z" fill="white"/>
<path opacity="0.05" d="M6.56578 14.7842C6.16852 14.7842 5.84466 14.4655 5.84466 14.0739V13.6004C5.84466 13.2089 6.16852 12.8902 6.56578 12.8902H16.4868C16.8845 12.8902 17.2084 13.2089 17.2084 13.6004V14.0739C17.2084 14.4655 16.8845 14.7842 16.4872 14.7842H6.56578Z" fill="black"/>
<path opacity="0.07" d="M6.56578 14.5474C6.29873 14.5474 6.0814 14.3348 6.0814 14.0739V13.6004C6.0814 13.3395 6.29873 13.127 6.56578 13.127H16.4868C16.7538 13.127 16.9711 13.3395 16.9711 13.6004V14.0739C16.9711 14.3348 16.7538 14.5474 16.4868 14.5474H6.56578Z" fill="black"/>
<path d="M16.7349 13.6005V14.0739C16.7349 14.2046 16.6236 14.3107 16.4868 14.3107H6.56625C6.42942 14.3107 6.31815 14.2046 6.31815 14.0739V13.6005C6.31815 13.4698 6.42942 13.3637 6.56625 13.3637H16.4868C16.6236 13.3637 16.7349 13.4698 16.7349 13.6005Z" fill="white"/>
<path opacity="0.05" d="M6.5672 12.4167C6.169 12.4167 5.84466 12.0981 5.84466 11.7065V11.233C5.84466 10.8414 6.169 10.5228 6.5672 10.5228H15.5384C15.937 10.5228 16.2614 10.8414 16.2614 11.233V11.7065C16.2614 12.0981 15.937 12.4167 15.5388 12.4167H6.5672Z" fill="black"/>
<path opacity="0.07" d="M6.5672 12.18C6.29921 12.18 6.0814 11.9674 6.0814 11.7065V11.233C6.0814 10.9721 6.29921 10.7595 6.5672 10.7595H15.5384C15.8064 10.7595 16.0242 10.9721 16.0242 11.233V11.7065C16.0242 11.9674 15.8064 12.18 15.5384 12.18H6.5672Z" fill="black"/>
<path d="M15.7879 11.233V11.7065C15.7879 11.8372 15.6762 11.9432 15.5388 11.9432H6.5672C6.42989 11.9432 6.31815 11.8372 6.31815 11.7065V11.233C6.31815 11.1023 6.42989 10.9963 6.5672 10.9963H15.5384C15.6762 10.9963 15.7879 11.1023 15.7879 11.233Z" fill="white"/>
<defs>
<linearGradient id="paint0_linear_40_734" x1="6.69599" y1="3.32292" x2="18.1795" y2="22.6905" gradientUnits="userSpaceOnUse">
<stop stop-color="#33BEF0"/>
<stop offset="1" stop-color="#0A85D9"/>
</linearGradient>
</defs>
</svg>
