<svg width="24" height="24" viewBox="0 0 24 24" fill="none" xmlns="http://www.w3.org/2000/svg">
<path d="M21.0952 2.31204H4.80952C4.30952 2.31204 3.90475 2.70966 3.90475 3.20109V14.7568C3.90475 15.2478 4.30952 15.6454 4.80952 15.6454H21.0952C21.5952 15.6454 22 15.2478 22 14.7563V3.20109C22 2.70966 21.5952 2.31204 21.0952 2.31204Z" fill="url(#paint0_linear_40_722)"/>
<path opacity="0.05" d="M21.0476 15.6454V4.66823C21.0476 3.89394 20.4176 3.26442 19.6433 3.26442H3.90475V15.6454H21.0476Z" fill="black"/>
<path opacity="0.07" d="M20.8095 15.6454V4.66823C20.8095 4.02537 20.2862 3.50252 19.6433 3.50252H3.90475V15.6454H20.8095Z" fill="black"/>
<path d="M19.6433 3.74062H2.9281C2.41524 3.74062 2 4.15585 2 4.66871V16.6225C2 17.1349 2.41524 17.5501 2.9281 17.5501H6.7619V21.223C6.7619 21.6363 7.26143 21.8435 7.55381 21.5511L11.5548 17.5501H19.6433C20.1562 17.5501 20.5714 17.1349 20.5714 16.622V4.66871C20.5714 4.15585 20.1562 3.74062 19.6433 3.74062Z" fill="url(#paint1_linear_40_722)"/>
<defs>
<linearGradient id="paint0_linear_40_722" x1="7.88428" y1="0.732518" x2="18.14" y2="17.4187" gradientUnits="userSpaceOnUse">
<stop stop-color="#0176D0"/>
<stop offset="1" stop-color="#16538C"/>
</linearGradient>
<linearGradient id="paint1_linear_40_722" x1="6.0581" y1="2.14014" x2="16.6362" y2="19.3506" gradientUnits="userSpaceOnUse">
<stop stop-color="#33BEF0"/>
<stop offset="1" stop-color="#0A85D9"/>
</linearGradient>
</defs>
</svg>
