<svg width="24" height="24" viewBox="0 0 24 24" fill="none" xmlns="http://www.w3.org/2000/svg">
<path d="M16.3478 19.6087H12.8796C12.6391 19.6087 12.4448 19.4139 12.4448 19.1739C12.4448 18.9339 12.6391 18.7391 12.8796 18.7391H16.3478C17.7865 18.7391 18.9565 17.5691 18.9565 16.1304V15.2609C18.9565 15.0209 19.1509 14.8261 19.3913 14.8261C19.6317 14.8261 19.8261 15.0209 19.8261 15.2609V16.1304C19.8261 18.0483 18.2657 19.6087 16.3478 19.6087Z" fill="url(#paint0_linear_40_746)"/>
<path d="M19.6087 10.913H18.5217V15.2609H19.6087C20.9296 15.2609 22 14.2874 22 13.087C22 11.8865 20.9296 10.913 19.6087 10.913Z" fill="url(#paint1_linear_40_746)"/>
<path d="M4.3913 10.913H5.47826V15.2609H4.3913C3.07043 15.2609 2 14.2874 2 13.087C2 11.8865 3.07043 10.913 4.3913 10.913Z" fill="url(#paint2_linear_40_746)"/>
<path d="M12 8.73913C11.7596 8.73913 11.5652 8.54435 11.5652 8.30435V5.26087C11.5652 5.02087 11.7596 4.82609 12 4.82609C12.2404 4.82609 12.4348 5.02087 12.4348 5.26087V8.30435C12.4348 8.54435 12.2404 8.73913 12 8.73913Z" fill="url(#paint3_linear_40_746)"/>
<path d="M16.3478 18.7391H7.65217C6.2113 18.7391 5.04348 17.5713 5.04348 16.1304V10.0435C5.04348 8.60261 6.2113 7.43478 7.65217 7.43478H16.3478C17.7887 7.43478 18.9565 8.60261 18.9565 10.0435V16.1304C18.9565 17.5713 17.7887 18.7391 16.3478 18.7391Z" fill="url(#paint4_linear_40_746)"/>
<path d="M6.78261 14.7683V11.4061C6.78261 10.6535 7.39261 10.0435 8.14478 10.0435H15.8548C16.6074 10.0435 17.2174 10.6535 17.2174 11.4057V14.7678C17.2174 15.5204 16.6074 16.1304 15.8552 16.1304H8.14478C7.39261 16.1304 6.78261 15.5204 6.78261 14.7683Z" fill="url(#paint5_linear_40_746)"/>
<path d="M12 3.95652C12.4804 3.95652 12.8696 4.34565 12.8696 4.82609C12.8696 5.30652 12.4804 5.69565 12 5.69565C11.5196 5.69565 11.1304 5.30652 11.1304 4.82609C11.1304 4.34565 11.5196 3.95652 12 3.95652Z" fill="url(#paint6_linear_40_746)"/>
<path opacity="0.05" d="M9.3913 15.2609C8.67217 15.2609 8.08696 14.6756 8.08696 13.9565V12.2174C8.08696 11.4983 8.67217 10.913 9.3913 10.913C10.1104 10.913 10.6957 11.4983 10.6957 12.2174V13.9565C10.6957 14.6756 10.1104 15.2609 9.3913 15.2609Z" fill="black"/>
<path opacity="0.07" d="M9.3913 15.0435C8.79174 15.0435 8.30435 14.5556 8.30435 13.9565V12.2174C8.30435 11.6183 8.79174 11.1304 9.3913 11.1304C9.99087 11.1304 10.4783 11.6183 10.4783 12.2174V13.9565C10.4783 14.5556 9.99087 15.0435 9.3913 15.0435Z" fill="black"/>
<path d="M9.3913 11.3478C9.87174 11.3478 10.2609 11.737 10.2609 12.2174V13.9565C10.2609 14.437 9.87174 14.8261 9.3913 14.8261C8.91087 14.8261 8.52174 14.437 8.52174 13.9565V12.2174C8.52174 11.737 8.91087 11.3478 9.3913 11.3478Z" fill="url(#paint7_linear_40_746)"/>
<path opacity="0.05" d="M14.6087 15.2609C13.8896 15.2609 13.3043 14.6756 13.3043 13.9565V12.2174C13.3043 11.4983 13.8896 10.913 14.6087 10.913C15.3278 10.913 15.913 11.4983 15.913 12.2174V13.9565C15.913 14.6756 15.3278 15.2609 14.6087 15.2609Z" fill="black"/>
<path opacity="0.07" d="M14.6087 15.0435C14.0091 15.0435 13.5217 14.5556 13.5217 13.9565V12.2174C13.5217 11.6183 14.0091 11.1304 14.6087 11.1304C15.2083 11.1304 15.6957 11.6183 15.6957 12.2174V13.9565C15.6957 14.5556 15.2083 15.0435 14.6087 15.0435Z" fill="black"/>
<path d="M14.6087 11.3478C15.0891 11.3478 15.4783 11.737 15.4783 12.2174V13.9565C15.4783 14.437 15.0891 14.8261 14.6087 14.8261C14.1283 14.8261 13.7391 14.437 13.7391 13.9565V12.2174C13.7391 11.737 14.1283 11.3478 14.6087 11.3478Z" fill="url(#paint8_linear_40_746)"/>
<path opacity="0.05" d="M13.7391 18.7391H10.2609C10.2609 18.2609 10.6522 17.8696 11.1304 17.8696H12.8696C13.3478 17.8696 13.7391 18.2609 13.7391 18.7391Z" fill="black"/>
<path opacity="0.07" d="M13.5217 18.7391H10.4783C10.4783 18.3783 10.7696 18.087 11.1304 18.087H12.8696C13.2304 18.087 13.5217 18.3783 13.5217 18.7391Z" fill="black"/>
<path d="M12.8696 20.0435H11.1304C10.8904 20.0435 10.6957 19.8487 10.6957 19.6087V18.7391C10.6957 18.4991 10.8904 18.3044 11.1304 18.3044H12.8696C13.1096 18.3044 13.3043 18.4991 13.3043 18.7391V19.6087C13.3043 19.8487 13.1096 20.0435 12.8696 20.0435Z" fill="url(#paint9_linear_40_746)"/>
<defs>
<linearGradient id="paint0_linear_40_746" x1="16.1352" y1="17.8161" x2="16.1352" y2="15.5722" gradientUnits="userSpaceOnUse">
<stop stop-color="#0077D2"/>
<stop offset="1" stop-color="#0B59A2"/>
</linearGradient>
<linearGradient id="paint1_linear_40_746" x1="20.2609" y1="11.2143" x2="20.2609" y2="20.0178" gradientUnits="userSpaceOnUse">
<stop stop-color="#0077D2"/>
<stop offset="1" stop-color="#0B59A2"/>
</linearGradient>
<linearGradient id="paint2_linear_40_746" x1="3.73913" y1="11.2143" x2="3.73913" y2="20.0178" gradientUnits="userSpaceOnUse">
<stop stop-color="#0077D2"/>
<stop offset="1" stop-color="#0B59A2"/>
</linearGradient>
<linearGradient id="paint3_linear_40_746" x1="12.0587" y1="5.16609" x2="11.9126" y2="9.19044" gradientUnits="userSpaceOnUse">
<stop stop-color="#0077D2"/>
<stop offset="1" stop-color="#0B59A2"/>
</linearGradient>
<linearGradient id="paint4_linear_40_746" x1="8.1258" y1="5.75074" x2="15.1034" y2="18.3575" gradientUnits="userSpaceOnUse">
<stop stop-color="#FCFCFC"/>
<stop offset="0.95" stop-color="#C3C9CD"/>
</linearGradient>
<linearGradient id="paint5_linear_40_746" x1="12" y1="10.3922" x2="12" y2="19.1604" gradientUnits="userSpaceOnUse">
<stop stop-color="#0077D2"/>
<stop offset="1" stop-color="#0B59A2"/>
</linearGradient>
<linearGradient id="paint6_linear_40_746" x1="12" y1="3.99" x2="12" y2="5.63174" gradientUnits="userSpaceOnUse">
<stop stop-color="#0077D2"/>
<stop offset="1" stop-color="#0B59A2"/>
</linearGradient>
<linearGradient id="paint7_linear_40_746" x1="9.07006" y1="11.4012" x2="11.1728" y2="13.4283" gradientUnits="userSpaceOnUse">
<stop stop-color="#7DD8F3"/>
<stop offset="1" stop-color="#45B0D0"/>
</linearGradient>
<linearGradient id="paint8_linear_40_746" x1="14.2875" y1="11.4012" x2="16.3902" y2="13.4283" gradientUnits="userSpaceOnUse">
<stop stop-color="#7DD8F3"/>
<stop offset="1" stop-color="#45B0D0"/>
</linearGradient>
<linearGradient id="paint9_linear_40_746" x1="12" y1="18.4004" x2="12" y2="20.2139" gradientUnits="userSpaceOnUse">
<stop stop-color="#4C4C4C"/>
<stop offset="1" stop-color="#343434"/>
</linearGradient>
</defs>
</svg>
