<svg width="24" height="24" viewBox="0 0 24 24" fill="none" xmlns="http://www.w3.org/2000/svg">
<path d="M19.8947 7.78947V20.9474C19.8947 21.5289 19.4237 22 18.8421 22H5.1579C4.57632 22 4.10527 21.5289 4.10527 20.9474V3.05263C4.10527 2.47105 4.57632 2 5.1579 2H14.1053L15.6842 6.21053L19.8947 7.78947Z" fill="url(#paint0_linear_40_787)"/>
<path d="M14.1053 2V6.73684C14.1053 7.31842 14.5763 7.78947 15.1579 7.78947H19.8947L14.1053 2Z" fill="url(#paint1_linear_40_787)"/>
<path d="M10.679 18.1953L7.3837 14.9C7.22265 14.7389 7.22265 14.4784 7.3837 14.3174L7.96633 13.7347C8.12738 13.5737 8.38791 13.5737 8.54896 13.7347L10.9705 16.1563L15.4516 11.6753C15.6126 11.5142 15.8732 11.5142 16.0342 11.6753L16.6168 12.2579C16.7779 12.4189 16.7779 12.6795 16.6168 12.8405L11.2616 18.1953C11.1005 18.3558 10.84 18.3558 10.679 18.1953Z" fill="#057093"/>
<defs>
<linearGradient id="paint0_linear_40_787" x1="9.08347" y1="2.30706" x2="20.1877" y2="19.2096" gradientUnits="userSpaceOnUse">
<stop stop-color="#7DD8F3"/>
<stop offset="1" stop-color="#45B0D0"/>
</linearGradient>
<linearGradient id="paint1_linear_40_787" x1="14.3837" y1="7.51105" x2="17.0526" y2="4.84211" gradientUnits="userSpaceOnUse">
<stop stop-color="#3079D6"/>
<stop offset="1" stop-color="#297CD2"/>
</linearGradient>
</defs>
</svg>
