<svg width="24" height="24" viewBox="0 0 24 24" fill="none" xmlns="http://www.w3.org/2000/svg">
<path d="M6.22269 11.9451C6.01526 11.9451 5.82969 11.7997 5.78597 11.5892L4.54807 5.57496C4.46287 5.16188 4.09573 4.86255 3.67418 4.86255H2.89218C2.64594 4.86255 2.44609 4.6627 2.44609 4.41646C2.44609 4.17022 2.64594 3.97037 2.89218 3.97037H3.67418C4.51684 3.97037 5.252 4.56947 5.42196 5.39474L6.65986 11.4089C6.70938 11.6503 6.55414 11.8862 6.31281 11.9358C6.28292 11.9425 6.25258 11.9451 6.22269 11.9451Z" fill="url(#paint0_linear_40_802)"/>
<path d="M18.5054 20.4757C19.2444 20.4757 19.8436 19.8765 19.8436 19.1375C19.8436 18.3984 19.2444 17.7992 18.5054 17.7992C17.7663 17.7992 17.1671 18.3984 17.1671 19.1375C17.1671 19.8765 17.7663 20.4757 18.5054 20.4757Z" fill="#5C5F61"/>
<path opacity="0.15" d="M18.5054 19.5835C18.7517 19.5835 18.9514 19.3838 18.9514 19.1375C18.9514 18.8911 18.7517 18.6914 18.5054 18.6914C18.259 18.6914 18.0593 18.8911 18.0593 19.1375C18.0593 19.3838 18.259 19.5835 18.5054 19.5835Z" fill="black"/>
<path d="M8.69136 20.4757C9.43047 20.4757 10.0296 19.8765 10.0296 19.1375C10.0296 18.3984 9.43047 17.7992 8.69136 17.7992C7.95225 17.7992 7.35309 18.3984 7.35309 19.1375C7.35309 19.8765 7.95225 20.4757 8.69136 20.4757Z" fill="#5C5F61"/>
<path opacity="0.15" d="M8.69136 19.5835C8.93773 19.5835 9.13745 19.3838 9.13745 19.1375C9.13745 18.8911 8.93773 18.6914 8.69136 18.6914C8.44499 18.6914 8.24527 18.8911 8.24527 19.1375C8.24527 19.3838 8.44499 19.5835 8.69136 19.5835Z" fill="black"/>
<path d="M20.2897 18.2453H7.79918C6.8151 18.2453 6.01482 17.445 6.01482 16.4609C6.01482 15.4768 6.8151 14.6765 7.79918 14.6765H18.9514C19.1977 14.6765 19.3975 14.8764 19.3975 15.1226C19.3975 15.3689 19.1977 15.5687 18.9514 15.5687H7.79918C7.30714 15.5687 6.907 15.9689 6.907 16.4609C6.907 16.9529 7.30714 17.3531 7.79918 17.3531H20.2897C20.536 17.3531 20.7358 17.5529 20.7358 17.7992C20.7358 18.0454 20.536 18.2453 20.2897 18.2453Z" fill="url(#paint1_linear_40_802)"/>
<path d="M3.78436 4.41646C3.78436 4.90894 3.38467 5.30864 2.89218 5.30864C2.3997 5.30864 2 4.90894 2 4.41646C2 3.92397 2.3997 3.52428 2.89218 3.52428C3.38467 3.52428 3.78436 3.92397 3.78436 4.41646Z" fill="url(#paint2_linear_40_802)"/>
<path d="M6.32262 14.8434C6.40291 15.2645 6.77094 15.5687 7.19918 15.5687H19.9801C20.4164 15.5687 20.7884 15.2533 20.8603 14.8233L21.7806 9.30115L5.02137 8.01195L6.32262 14.8434Z" fill="url(#paint3_linear_40_802)"/>
<path d="M21.5883 7.50162L4.67654 6.20082L5.02137 8.01195L21.7801 9.30115L21.9938 8.01998C22.0371 7.76169 21.8493 7.5217 21.5883 7.50162Z" fill="url(#paint4_linear_40_802)"/>
<path opacity="0.05" d="M14.731 13.8035C14.3523 13.8035 14.0444 13.4962 14.0444 13.1184V12.8922H10.7487C10.3522 12.8922 10.0296 12.5692 10.0296 12.1731V11.3813C10.0296 10.9847 10.3522 10.6617 10.7487 10.6617H14.0444V10.4356C14.0444 10.0577 14.3523 9.75037 14.731 9.75037C14.9148 9.75037 15.087 9.82308 15.2168 9.95512L16.5385 11.2965C16.7991 11.5615 16.7995 11.9924 16.5394 12.2574L15.2163 13.5988C15.087 13.7308 14.9148 13.8035 14.731 13.8035Z" fill="black"/>
<path opacity="0.07" d="M14.731 13.5805C14.4754 13.5805 14.2675 13.3731 14.2675 13.1184V12.6691H10.7487C10.4753 12.6691 10.2527 12.4465 10.2527 12.1731V11.3813C10.2527 11.1078 10.4753 10.8852 10.7487 10.8852H14.2675V10.436C14.2675 10.1813 14.4754 9.97386 14.731 9.97386C14.8541 9.97386 14.9701 10.0225 15.058 10.1121L16.3802 11.4535C16.5559 11.632 16.5559 11.9233 16.3806 12.1017L15.058 13.4431C14.9701 13.5319 14.8541 13.5805 14.731 13.5805Z" fill="black"/>
<path d="M16.2214 11.6092L14.8992 10.2678C14.7493 10.1157 14.4905 10.2219 14.4905 10.4356V11.1078H10.7487C10.598 11.1078 10.4757 11.23 10.4757 11.3808V12.1726C10.4757 12.3239 10.598 12.4461 10.7487 12.4461H14.4905V13.1183C14.4905 13.332 14.7493 13.4382 14.8992 13.2861L16.2214 11.9447C16.3128 11.8514 16.3128 11.7025 16.2214 11.6092Z" fill="white"/>
<defs>
<linearGradient id="paint0_linear_40_802" x1="4.55744" y1="11.9451" x2="4.55744" y2="3.97037" gradientUnits="userSpaceOnUse">
<stop stop-color="#92A3B0"/>
<stop offset="0.015" stop-color="#A3B5C4"/>
<stop offset="0.032" stop-color="#AEC2D1"/>
<stop offset="0.046" stop-color="#B2C6D6"/>
</linearGradient>
<linearGradient id="paint1_linear_40_802" x1="13.3753" y1="18.2453" x2="13.3753" y2="14.6765" gradientUnits="userSpaceOnUse">
<stop stop-color="#92A3B0"/>
<stop offset="0.015" stop-color="#A3B5C4"/>
<stop offset="0.032" stop-color="#AEC2D1"/>
<stop offset="0.046" stop-color="#B2C6D6"/>
</linearGradient>
<linearGradient id="paint2_linear_40_802" x1="2.33724" y1="3.86152" x2="3.50957" y2="5.03385" gradientUnits="userSpaceOnUse">
<stop stop-color="#199AE0"/>
<stop offset="1" stop-color="#0782D8"/>
</linearGradient>
<linearGradient id="paint3_linear_40_802" x1="5.02137" y1="11.7903" x2="21.7806" y2="11.7903" gradientUnits="userSpaceOnUse">
<stop stop-color="#3079D6"/>
<stop offset="1" stop-color="#297CD2"/>
</linearGradient>
<linearGradient id="paint4_linear_40_802" x1="4.67654" y1="7.75099" x2="22" y2="7.75099" gradientUnits="userSpaceOnUse">
<stop stop-color="#42A3F2"/>
<stop offset="1" stop-color="#42A4EB"/>
</linearGradient>
</defs>
</svg>
