<svg width="24" height="24" viewBox="0 0 24 24" fill="none" xmlns="http://www.w3.org/2000/svg">
<path d="M20.8889 2H3.11111C2.49722 2 2 2.49722 2 3.11111V20.8889C2 21.5028 2.49722 22 3.11111 22H20.8889C21.5028 22 22 21.5028 22 20.8889V3.11111C22 2.49722 21.5028 2 20.8889 2Z" fill="url(#paint0_linear_40_764)"/>
<path opacity="0.018" d="M19.2222 20.2828H4.77778C4.19222 20.2828 3.71722 19.8078 3.71722 19.2222V4.77778C3.71722 4.19222 4.19222 3.71722 4.77778 3.71722H19.2222C19.8078 3.71722 20.2828 4.19222 20.2828 4.77778V19.2222C20.2828 19.8078 19.8078 20.2828 19.2222 20.2828Z" fill="black"/>
<path opacity="0.036" d="M19.2222 20.2322H4.77778C4.22 20.2322 3.76778 19.78 3.76778 19.2222V4.77778C3.76778 4.22 4.22 3.76778 4.77778 3.76778H19.2222C19.78 3.76778 20.2322 4.22 20.2322 4.77778V19.2222C20.2322 19.78 19.78 20.2322 19.2222 20.2322Z" fill="black"/>
<path opacity="0.054" d="M19.2222 20.1817H4.77779C4.24779 20.1817 3.81834 19.7522 3.81834 19.2222V4.77779C3.81834 4.24779 4.24779 3.81834 4.77779 3.81834H19.2222C19.7522 3.81834 20.1817 4.24779 20.1817 4.77779V19.2222C20.1817 19.7522 19.7522 20.1817 19.2222 20.1817Z" fill="black"/>
<path opacity="0.073" d="M19.2222 20.1311H4.77779C4.27556 20.1311 3.8689 19.7239 3.8689 19.2222V4.77779C3.8689 4.27556 4.27612 3.8689 4.77779 3.8689H19.2222C19.7244 3.8689 20.1311 4.27612 20.1311 4.77779V19.2222C20.1311 19.7245 19.7244 20.1311 19.2222 20.1311Z" fill="black"/>
<path opacity="0.091" d="M19.2222 20.0805H4.77777C4.30332 20.0805 3.91943 19.6961 3.91943 19.2222V4.77777C3.91943 4.30332 4.30388 3.91943 4.77777 3.91943H19.2222C19.6967 3.91943 20.0806 4.30388 20.0806 4.77777V19.2222C20.0806 19.6967 19.6967 20.0805 19.2222 20.0805Z" fill="black"/>
<path opacity="0.109" d="M19.2222 20.0306H4.77779C4.33167 20.0306 3.96945 19.6689 3.96945 19.2222V4.77779C3.96945 4.33167 4.33112 3.96945 4.77779 3.96945H19.2222C19.6683 3.96945 20.0306 4.33112 20.0306 4.77779V19.2222C20.0306 19.6683 19.6683 20.0306 19.2222 20.0306Z" fill="black"/>
<path opacity="0.127" d="M19.2222 19.98H4.77777C4.35943 19.98 4.01999 19.6405 4.01999 19.2222V4.77777C4.01999 4.35943 4.35943 4.01999 4.77777 4.01999H19.2222C19.6406 4.01999 19.98 4.35943 19.98 4.77777V19.2222C19.98 19.6405 19.6406 19.98 19.2222 19.98Z" fill="black"/>
<path opacity="0.145" d="M19.2222 19.9294H4.77778C4.38722 19.9294 4.07056 19.6128 4.07056 19.2222V4.77778C4.07056 4.38722 4.38722 4.07056 4.77778 4.07056H19.2222C19.6128 4.07056 19.9295 4.38722 19.9295 4.77778V19.2222C19.9295 19.6128 19.6128 19.9294 19.2222 19.9294Z" fill="black"/>
<path opacity="0.164" d="M19.2222 19.8789H4.77778C4.415 19.8789 4.12111 19.585 4.12111 19.2222V4.77778C4.12111 4.415 4.415 4.12111 4.77778 4.12111H19.2222C19.585 4.12111 19.8789 4.415 19.8789 4.77778V19.2222C19.8789 19.585 19.585 19.8789 19.2222 19.8789Z" fill="black"/>
<path opacity="0.182" d="M19.2222 19.8283H4.77777C4.44333 19.8283 4.17166 19.5572 4.17166 19.2222V4.77777C4.17166 4.44333 4.44277 4.17166 4.77777 4.17166H19.2222C19.5567 4.17166 19.8283 4.44277 19.8283 4.77777V19.2222C19.8283 19.5567 19.5567 19.8283 19.2222 19.8283Z" fill="black"/>
<path opacity="0.2" d="M19.2222 19.7778H4.77778C4.47112 19.7778 4.22223 19.5289 4.22223 19.2222V4.77778C4.22223 4.47112 4.47112 4.22223 4.77778 4.22223H19.2222C19.5289 4.22223 19.7778 4.47112 19.7778 4.77778V19.2222C19.7778 19.5289 19.5289 19.7778 19.2222 19.7778Z" fill="black"/>
<path d="M19.2222 19.7778H4.77778C4.47112 19.7778 4.22223 19.5289 4.22223 19.2222V4.77778C4.22223 4.47112 4.47112 4.22223 4.77778 4.22223H19.2222C19.5289 4.22223 19.7778 4.47112 19.7778 4.77778V19.2222C19.7778 19.5289 19.5289 19.7778 19.2222 19.7778Z" fill="url(#paint1_radial_40_764)"/>
<path d="M10.4961 16.8372L6.05166 12.3928C5.83444 12.1756 5.83444 11.8239 6.05166 11.6072L6.83722 10.8217C7.05444 10.6045 7.40611 10.6045 7.62278 10.8217L10.8889 14.0878L16.9328 8.0439C17.15 7.82668 17.5017 7.82668 17.7183 8.0439L18.5039 8.82945C18.7211 9.04668 18.7211 9.39834 18.5039 9.61501L11.2817 16.8372C11.065 17.0545 10.7128 17.0545 10.4961 16.8372Z" fill="#16528C"/>
<defs>
<linearGradient id="paint0_linear_40_764" x1="2.61167" y1="2.61167" x2="22.2956" y2="22.2956" gradientUnits="userSpaceOnUse">
<stop stop-color="#33BEF0"/>
<stop offset="1" stop-color="#22A5E2"/>
</linearGradient>
<radialGradient id="paint1_radial_40_764" cx="0" cy="0" r="1" gradientUnits="userSpaceOnUse" gradientTransform="translate(7.688 6.13726) scale(15.3033)">
<stop stop-color="#FAFAFB"/>
<stop offset="0.293" stop-color="#F6F7F8"/>
<stop offset="0.566" stop-color="#EBECEE"/>
<stop offset="0.832" stop-color="#D8DCDF"/>
<stop offset="1" stop-color="#C8CDD1"/>
</radialGradient>
</defs>
</svg>
