<svg width="24" height="24" viewBox="0 0 24 24" fill="none" xmlns="http://www.w3.org/2000/svg">
<path d="M22 5.5531V19.5655C22 20.4626 21.2759 21.1867 20.3788 21.1867H3.62118C2.72413 21.1867 2 20.4626 2 19.5655V5.5531H22Z" fill="#C0C9CC"/>
<path d="M22 5.55309V13.6212H2V5.55309H7.1986V4.43448L8.81978 2.81329V5.55309H14.7641V2.81329L16.3853 4.43448V5.55309H22Z" fill="url(#paint0_linear_40_816)"/>
<path d="M14.7641 2.81329H8.81978V4.43448H14.7641V2.81329Z" fill="url(#paint1_linear_40_816)"/>
<path d="M7.7552 19.9222L8.50635 21.1867H8.05242C7.89571 20.7922 7.78763 20.3653 7.7552 19.9222Z" fill="white"/>
<path d="M8.52796 21.1867C8.48473 21.1111 8.45231 21.03 8.42529 20.9489C8.42529 20.9381 8.41988 20.9219 8.40908 20.9057C8.37125 20.7976 8.33342 20.6841 8.3064 20.5707C8.28479 20.5004 8.26857 20.4356 8.25777 20.3653C8.25236 20.3599 8.25236 20.3491 8.25236 20.3437C8.22534 20.2194 8.20373 20.0951 8.19292 19.9654C8.17671 19.8357 8.1713 19.7006 8.1713 19.5655C8.1713 17.4148 9.91137 15.6747 12.0621 15.6747V15.2424C12.7376 15.2424 13.3807 15.3991 13.9481 15.6747C15.391 16.3718 16.3853 17.8525 16.3853 19.5655C16.3853 20.1383 16.2718 20.6841 16.0719 21.1867H8.53337" fill="white"/>
<path d="M8.50635 21.1867H3.57255C3.46987 20.6625 3.41583 20.1221 3.41583 19.5655C3.41583 17.8579 3.913 16.2637 4.77222 14.9235H4.78303L7.7552 19.9222L8.50635 21.1867Z" fill="url(#paint2_linear_40_816)"/>
<path d="M20.7085 19.5655C20.7085 20.1167 20.6544 20.6625 20.5571 21.1867H15.5909C15.8233 20.6949 15.953 20.1437 15.953 19.5655C15.953 17.4147 14.2129 15.6747 12.0621 15.6747V10.9192C14.3804 10.9192 16.4826 11.8325 18.0335 13.324C18.1794 13.4591 18.3145 13.5996 18.4442 13.7401C18.709 14.0319 18.9522 14.3399 19.1737 14.6587C19.2872 14.8209 19.3899 14.9884 19.4926 15.1559C19.5952 15.3234 19.6925 15.4963 19.779 15.6747C20.368 16.8473 20.7085 18.1659 20.7085 19.5655Z" fill="url(#paint3_linear_40_816)"/>
<path d="M15.0884 19.5655C15.0884 20.16 14.9154 20.7166 14.6128 21.1867H9.51148C9.20886 20.7166 9.03593 20.16 9.03593 19.5655C9.03593 17.8957 10.3923 16.5393 12.0621 16.5393C13.732 16.5393 15.0884 17.8957 15.0884 19.5655Z" fill="url(#paint4_linear_40_816)"/>
<path d="M8.52796 21.1867C8.48473 21.111 8.45231 21.03 8.42529 20.9489C8.45771 21.03 8.49554 21.111 8.53337 21.1867" fill="url(#paint5_linear_40_816)"/>
<path d="M19.7736 15.6747H12.0621C9.91138 15.6747 8.17131 17.4147 8.17131 19.5655C8.17131 19.7006 8.17671 19.8357 8.19292 19.9654C8.20373 20.0951 8.22535 20.2194 8.25237 20.3437C8.25237 20.3491 8.25236 20.3599 8.25777 20.3653C8.26858 20.4356 8.28479 20.5004 8.3064 20.5707C8.33342 20.6841 8.36585 20.7976 8.40908 20.9057C8.41989 20.9219 8.42529 20.9381 8.42529 20.9489C8.45231 21.03 8.48473 21.111 8.52797 21.1867H8.50635L7.7552 19.9222L4.78303 14.9235H4.77222C4.85869 14.7884 4.95055 14.6533 5.04242 14.5182C5.1559 14.3615 5.27479 14.2102 5.39908 14.0589C5.50716 13.9292 5.61524 13.8049 5.72872 13.6806C5.82059 13.5833 5.90705 13.4915 5.99892 13.405C6.06377 13.3402 6.13402 13.2753 6.19887 13.2159C6.43664 12.9943 6.68522 12.789 6.94461 12.5998C7.0689 12.5026 7.1986 12.4161 7.32829 12.3296C7.80924 12.0108 8.32802 11.746 8.86841 11.5299C8.99271 11.4812 9.117 11.4326 9.24669 11.3893C9.28992 11.3731 9.33856 11.3569 9.38719 11.3407C9.5385 11.2921 9.68981 11.2488 9.84653 11.2056C10.0195 11.157 10.1978 11.1192 10.3815 11.0813C10.5653 11.0489 10.7436 11.0165 10.9327 10.9949C11.0786 10.9732 11.2245 10.957 11.3704 10.9462C11.4407 10.9408 11.5109 10.9354 11.5812 10.9354C11.7433 10.9246 11.9 10.9192 12.0621 10.9192C14.3804 10.9192 16.4826 11.8325 18.0335 13.324C18.1794 13.4591 18.3145 13.5996 18.4442 13.7401C18.709 14.0319 18.9522 14.3399 19.1737 14.6587C19.2872 14.8209 19.3899 14.9884 19.4926 15.1559C19.5898 15.3234 19.6871 15.4963 19.7736 15.6747Z" fill="url(#paint6_linear_40_816)"/>
<defs>
<linearGradient id="paint0_linear_40_816" x1="12" y1="1.16671" x2="12" y2="15.3477" gradientUnits="userSpaceOnUse">
<stop stop-color="#BAC1C6"/>
<stop offset="0.703" stop-color="#9CA5AD"/>
</linearGradient>
<linearGradient id="paint1_linear_40_816" x1="11.7919" y1="0.909484" x2="11.7919" y2="5.65091" gradientUnits="userSpaceOnUse">
<stop offset="0.117" stop-color="#889097"/>
<stop offset="0.465" stop-color="#64717C"/>
</linearGradient>
<linearGradient id="paint2_linear_40_816" x1="3.31802" y1="17.598" x2="8.85058" y2="20.5399" gradientUnits="userSpaceOnUse">
<stop stop-color="#4CAF50"/>
<stop offset="0.489" stop-color="#4AAF50"/>
<stop offset="0.665" stop-color="#43AD50"/>
<stop offset="0.79" stop-color="#38AA50"/>
<stop offset="0.892" stop-color="#27A550"/>
<stop offset="0.978" stop-color="#11A050"/>
<stop offset="1" stop-color="#0A9E50"/>
</linearGradient>
<linearGradient id="paint3_linear_40_816" x1="16.3853" y1="21.1867" x2="16.3853" y2="13.7946" gradientUnits="userSpaceOnUse">
<stop stop-color="#FFD747"/>
<stop offset="0.482" stop-color="#FFD645"/>
<stop offset="0.655" stop-color="#FED43E"/>
<stop offset="0.779" stop-color="#FCCF33"/>
<stop offset="0.879" stop-color="#FAC922"/>
<stop offset="0.964" stop-color="#F7C10C"/>
<stop offset="1" stop-color="#F5BC00"/>
</linearGradient>
<linearGradient id="paint4_linear_40_816" x1="9.94974" y1="17.3996" x2="14.1745" y2="21.625" gradientUnits="userSpaceOnUse">
<stop stop-color="#2AA4F4"/>
<stop offset="1" stop-color="#007AD9"/>
</linearGradient>
<linearGradient id="paint5_linear_40_816" x1="8.49392" y1="21.0586" x2="8.46095" y2="21.0792" gradientUnits="userSpaceOnUse">
<stop stop-color="#F7572F"/>
<stop offset="0.523" stop-color="#F7552D"/>
<stop offset="0.712" stop-color="#F75026"/>
<stop offset="0.846" stop-color="#F7461B"/>
<stop offset="0.954" stop-color="#F7390A"/>
<stop offset="1" stop-color="#F73100"/>
</linearGradient>
<linearGradient id="paint6_linear_40_816" x1="17.3061" y1="11.6541" x2="6.69333" y2="18.2853" gradientUnits="userSpaceOnUse">
<stop stop-color="#F7572F"/>
<stop offset="0.523" stop-color="#F7552D"/>
<stop offset="0.712" stop-color="#F75026"/>
<stop offset="0.846" stop-color="#F7461B"/>
<stop offset="0.954" stop-color="#F7390A"/>
<stop offset="1" stop-color="#F73100"/>
</linearGradient>
</defs>
</svg>
