<svg width="24" height="24" viewBox="0 0 24 24" fill="none" xmlns="http://www.w3.org/2000/svg">
<path d="M4.77778 7.55556C3.25 7.55556 2 6.30556 2 4.77778C2 3.25 3.25 2 4.77778 2C6.30556 2 7.55556 3.25 7.55556 4.77778C7.55556 6.30556 6.30556 7.55556 4.77778 7.55556Z" fill="url(#paint0_linear_40_834)"/>
<path d="M12 7.55556C10.4722 7.55556 9.22222 6.30556 9.22222 4.77778C9.22222 3.25 10.4722 2 12 2C13.5278 2 14.7778 3.25 14.7778 4.77778C14.7778 6.30556 13.5278 7.55556 12 7.55556Z" fill="url(#paint1_linear_40_834)"/>
<path d="M19.2222 7.55556C17.6944 7.55556 16.4444 6.30556 16.4444 4.77778C16.4444 3.25 17.6944 2 19.2222 2C20.75 2 22 3.25 22 4.77778C22 6.30556 20.75 7.55556 19.2222 7.55556Z" fill="url(#paint2_linear_40_834)"/>
<path d="M4.77778 14.7778C3.25 14.7778 2 13.5278 2 12C2 10.4722 3.25 9.22223 4.77778 9.22223C6.30556 9.22223 7.55556 10.4722 7.55556 12C7.55556 13.5278 6.30556 14.7778 4.77778 14.7778Z" fill="url(#paint3_linear_40_834)"/>
<path d="M12 14.7778C10.4722 14.7778 9.22222 13.5278 9.22222 12C9.22222 10.4722 10.4722 9.22223 12 9.22223C13.5278 9.22223 14.7778 10.4722 14.7778 12C14.7778 13.5278 13.5278 14.7778 12 14.7778Z" fill="url(#paint4_linear_40_834)"/>
<path d="M19.2222 14.7778C17.6944 14.7778 16.4444 13.5278 16.4444 12C16.4444 10.4722 17.6944 9.22223 19.2222 9.22223C20.75 9.22223 22 10.4722 22 12C22 13.5278 20.75 14.7778 19.2222 14.7778Z" fill="url(#paint5_linear_40_834)"/>
<path d="M4.77778 22C3.25 22 2 20.75 2 19.2222C2 17.6944 3.25 16.4444 4.77778 16.4444C6.30556 16.4444 7.55556 17.6944 7.55556 19.2222C7.55556 20.75 6.30556 22 4.77778 22Z" fill="url(#paint6_linear_40_834)"/>
<path d="M12 22C10.4722 22 9.22222 20.75 9.22222 19.2222C9.22222 17.6944 10.4722 16.4444 12 16.4444C13.5278 16.4444 14.7778 17.6944 14.7778 19.2222C14.7778 20.75 13.5278 22 12 22Z" fill="url(#paint7_linear_40_834)"/>
<path d="M19.2222 22C17.6944 22 16.4444 20.75 16.4444 19.2222C16.4444 17.6944 17.6944 16.4444 19.2222 16.4444C20.75 16.4444 22 17.6944 22 19.2222C22 20.75 20.75 22 19.2222 22Z" fill="url(#paint8_linear_40_834)"/>
<defs>
<linearGradient id="paint0_linear_40_834" x1="4.77778" y1="1.84611" x2="4.77778" y2="7.27111" gradientUnits="userSpaceOnUse">
<stop stop-color="#32BDEF"/>
<stop offset="1" stop-color="#1EA2E4"/>
</linearGradient>
<linearGradient id="paint1_linear_40_834" x1="12" y1="1.84611" x2="12" y2="7.27111" gradientUnits="userSpaceOnUse">
<stop stop-color="#32BDEF"/>
<stop offset="1" stop-color="#1EA2E4"/>
</linearGradient>
<linearGradient id="paint2_linear_40_834" x1="19.2222" y1="1.84611" x2="19.2222" y2="7.27111" gradientUnits="userSpaceOnUse">
<stop stop-color="#32BDEF"/>
<stop offset="1" stop-color="#1EA2E4"/>
</linearGradient>
<linearGradient id="paint3_linear_40_834" x1="4.77778" y1="9.08056" x2="4.77778" y2="14.2822" gradientUnits="userSpaceOnUse">
<stop stop-color="#32BDEF"/>
<stop offset="1" stop-color="#1EA2E4"/>
</linearGradient>
<linearGradient id="paint4_linear_40_834" x1="12" y1="9.08056" x2="12" y2="14.2822" gradientUnits="userSpaceOnUse">
<stop stop-color="#32BDEF"/>
<stop offset="1" stop-color="#1EA2E4"/>
</linearGradient>
<linearGradient id="paint5_linear_40_834" x1="19.2222" y1="9.08056" x2="19.2222" y2="14.2822" gradientUnits="userSpaceOnUse">
<stop stop-color="#32BDEF"/>
<stop offset="1" stop-color="#1EA2E4"/>
</linearGradient>
<linearGradient id="paint6_linear_40_834" x1="4.77778" y1="16.6456" x2="4.77778" y2="21.6583" gradientUnits="userSpaceOnUse">
<stop stop-color="#32BDEF"/>
<stop offset="1" stop-color="#1EA2E4"/>
</linearGradient>
<linearGradient id="paint7_linear_40_834" x1="12" y1="16.6456" x2="12" y2="21.6583" gradientUnits="userSpaceOnUse">
<stop stop-color="#32BDEF"/>
<stop offset="1" stop-color="#1EA2E4"/>
</linearGradient>
<linearGradient id="paint8_linear_40_834" x1="19.2222" y1="16.6456" x2="19.2222" y2="21.6583" gradientUnits="userSpaceOnUse">
<stop stop-color="#32BDEF"/>
<stop offset="1" stop-color="#1EA2E4"/>
</linearGradient>
</defs>
</svg>
