<svg width="24" height="24" viewBox="0 0 24 24" fill="none" xmlns="http://www.w3.org/2000/svg">
<path d="M21.6945 5.89542C22.1018 5.48807 22.1018 4.82808 21.6945 4.42073L19.5793 2.30552C19.1719 1.89816 18.5119 1.89816 18.1046 2.30552L12 8.41009L5.89542 2.30552C5.48807 1.89816 4.82808 1.89816 4.42073 2.30552L2.30552 4.42073C1.89816 4.82808 1.89816 5.48807 2.30552 5.89542L8.41009 12L2.30552 18.1046C1.89816 18.5119 1.89816 19.1719 2.30552 19.5793L4.42073 21.6945C4.82808 22.1018 5.48807 22.1018 5.89542 21.6945L21.6945 5.89542Z" fill="url(#paint0_linear_40_848)"/>
<path d="M12 15.5899L18.1046 21.6945C18.5119 22.1018 19.1719 22.1018 19.5793 21.6945L21.6945 19.5793C22.1018 19.1719 22.1018 18.5119 21.6945 18.1046L15.5899 12L12 15.5899Z" fill="url(#paint1_linear_40_848)"/>
<defs>
<linearGradient id="paint0_linear_40_848" x1="3.33391" y1="3.33391" x2="13.872" y2="13.8721" gradientUnits="userSpaceOnUse">
<stop stop-color="#F44F5A"/>
<stop offset="0.443" stop-color="#EE3D4A"/>
<stop offset="1" stop-color="#E52030"/>
</linearGradient>
<linearGradient id="paint1_linear_40_848" x1="13.7752" y1="13.7752" x2="20.6877" y2="20.6877" gradientUnits="userSpaceOnUse">
<stop stop-color="#A8142E"/>
<stop offset="0.179" stop-color="#BA1632"/>
<stop offset="0.243" stop-color="#C21734"/>
</linearGradient>
</defs>
</svg>
