<svg width="24" height="24" viewBox="0 0 24 24" fill="none" xmlns="http://www.w3.org/2000/svg">
<path d="M22 13.4583C22 16.2208 19.7625 18.4583 17 18.4583C16.25 18.4583 6.725 18.4583 5.95833 18.4583C3.77083 18.4583 2 16.6875 2 14.5C2 12.6083 3.325 11.025 5.10417 10.6333C5.8125 7.7125 8.44167 5.54167 11.5833 5.54167C13.8792 5.54167 15.9 6.70001 17.1 8.46251C19.8167 8.51251 22 10.7292 22 13.4583Z" fill="url(#paint0_linear_40_952)"/>
<path opacity="0.05" d="M10.75 14.3779V15.75C10.75 16.0946 10.4696 16.375 10.125 16.375H8.75292C8.49958 16.375 8.27292 16.2238 8.17542 15.9892C8.07875 15.755 8.13167 15.4875 8.31083 15.3079L8.43208 15.1867C8.03958 14.5388 7.83333 13.8042 7.83333 13.0417C7.83333 10.8354 9.55792 9.00833 11.7588 8.88208C11.93 8.87208 12.0963 8.93458 12.2192 9.05125C12.3446 9.17 12.4167 9.33625 12.4167 9.50875V9.92625C12.4167 10.2517 12.1588 10.525 11.8296 10.5479C10.5229 10.6367 9.5 11.7317 9.5 13.0417C9.5 13.3488 9.56 13.6542 9.67583 13.9433L9.68333 13.9358C9.8625 13.7567 10.13 13.7029 10.3646 13.8004C10.5992 13.8979 10.75 14.1246 10.75 14.3779ZM15.5667 10.8975L15.6892 10.775C15.8688 10.5954 15.9217 10.3283 15.8246 10.0937C15.7271 9.85958 15.5004 9.70833 15.2471 9.70833H13.875C13.5304 9.70833 13.25 9.98875 13.25 10.3333V11.7054C13.25 11.9587 13.4013 12.1854 13.6358 12.2829C13.87 12.3796 14.1379 12.3262 14.3171 12.1475L14.3279 12.1367C14.4413 12.4242 14.5 12.7304 14.5 13.0417C14.5 14.3517 13.4771 15.4467 12.1704 15.5354C11.8413 15.5588 11.5833 15.8317 11.5833 16.1575V16.575C11.5833 16.7471 11.6554 16.9133 11.7808 17.0325C11.8958 17.1417 12.05 17.2029 12.2075 17.2029C12.2188 17.2029 12.23 17.2025 12.2413 17.2017C14.4421 17.075 16.1667 15.2479 16.1667 13.0417C16.1667 12.2804 15.9604 11.5458 15.5667 10.8975Z" fill="black"/>
<path opacity="0.07" d="M10.5417 14.3779V15.75C10.5417 15.98 10.355 16.1667 10.125 16.1667H8.75292C8.58417 16.1667 8.4325 16.0658 8.36792 15.9096C8.30333 15.7533 8.33875 15.575 8.45833 15.4554L8.6975 15.2163C8.26792 14.5679 8.04167 13.82 8.04167 13.0417C8.04167 10.9458 9.68 9.21 11.7708 9.09C11.8817 9.08292 11.9942 9.125 12.0758 9.20292C12.16 9.28209 12.2079 9.39375 12.2079 9.50875V9.92625C12.2079 10.1463 12.0392 10.3242 11.815 10.34C10.4 10.4358 9.29167 11.6229 9.29167 13.0417C9.29167 13.4771 9.4025 13.9075 9.61292 14.3004L9.83 14.0833C9.94917 13.9642 10.1271 13.9279 10.2842 13.9929C10.4408 14.0575 10.5417 14.2092 10.5417 14.3779ZM15.3012 10.8683L15.5417 10.6279C15.6612 10.5083 15.6967 10.33 15.6321 10.1738C15.5675 10.0175 15.4158 9.91667 15.2471 9.91667H13.875C13.645 9.91667 13.4583 10.1033 13.4583 10.3333V11.7054C13.4583 11.8742 13.5592 12.0258 13.7154 12.0904C13.8721 12.155 14.0504 12.1192 14.1696 12L14.3912 11.7783C14.5992 12.1679 14.7083 12.5996 14.7083 13.0417C14.7083 14.4604 13.6 15.6475 12.1846 15.7433C11.9604 15.7592 11.7917 15.9371 11.7917 16.1571V16.5746C11.7917 16.6896 11.8396 16.8013 11.9237 16.8804C12.0004 16.9533 12.1025 16.9938 12.2071 16.9938C12.2146 16.9938 12.2217 16.9933 12.2292 16.9929C14.32 16.8733 15.9583 15.1375 15.9583 13.0417C15.9583 12.2646 15.7317 11.5171 15.3012 10.8683Z" fill="black"/>
<path d="M12 9.92583C12 10.0371 11.9117 10.1242 11.8004 10.1317C10.285 10.2346 9.08333 11.5008 9.08333 13.0417C9.08333 13.6325 9.26833 14.1771 9.57167 14.6367L9.97792 14.2304C10.1087 14.0996 10.3333 14.1925 10.3333 14.3779V15.75C10.3333 15.865 10.24 15.9583 10.125 15.9583H8.75292C8.5675 15.9583 8.47417 15.7337 8.60542 15.6025L8.96792 15.24C8.51792 14.6221 8.25 13.8633 8.25 13.0417C8.25 11.0467 9.81542 9.41083 11.7825 9.29791C11.9008 9.29124 12 9.39041 12 9.50874V9.92583ZM15.0308 10.8442L15.3946 10.4804C15.5254 10.3496 15.4325 10.125 15.2471 10.125H13.875C13.76 10.125 13.6667 10.2183 13.6667 10.3333V11.7054C13.6667 11.8908 13.8913 11.9842 14.0225 11.8529L14.4333 11.4421C14.7371 11.9017 14.9167 12.4504 14.9167 13.0417C14.9167 14.5825 13.715 15.8487 12.1996 15.9517C12.0883 15.9592 12 16.0462 12 16.1575V16.5746C12 16.6929 12.0992 16.7921 12.2175 16.7854C14.1846 16.6725 15.75 15.0367 15.75 13.0417C15.75 12.22 15.4812 11.4621 15.0308 10.8442Z" fill="white"/>
<defs>
<linearGradient id="paint0_linear_40_952" x1="7.93417" y1="6.1075" x2="14.5717" y2="18.7479" gradientUnits="userSpaceOnUse">
<stop stop-color="#2AA4F4"/>
<stop offset="1" stop-color="#007AD9"/>
</linearGradient>
</defs>
</svg>
