<svg width="24" height="24" viewBox="0 0 24 24" fill="none" xmlns="http://www.w3.org/2000/svg">
<path d="M21.9837 14.9175C21.9837 17.6653 19.7355 19.9134 16.9878 19.9134C16.2384 19.9134 6.70449 19.9134 5.9551 19.9134C3.7902 19.9134 2 18.1649 2 15.9583C2 14.0849 3.33224 12.5028 5.08082 12.0865C5.78857 9.17221 8.45306 7.00731 11.5755 7.00731C13.8653 7.00731 15.9053 8.17302 17.071 9.92159C19.8188 9.96323 21.9837 12.2114 21.9837 14.9175Z" fill="url(#paint0_linear_40_911)"/>
<path opacity="0.05" d="M17.071 9.92159C15.9886 8.29791 14.1984 7.21547 12.1167 7.04893C12.0751 7.1322 11.9918 7.21547 11.9918 7.29873C11.9502 7.54853 11.9918 7.75669 12.1584 7.92322L13.9902 9.75506V11.4204C13.9902 11.7951 14.2816 12.0865 14.6563 12.0865H16.28L18.1118 13.9183C18.2367 14.0432 18.4033 14.1265 18.6114 14.1265C18.9029 14.1265 19.1526 13.96 19.2775 13.6685L20.1518 11.0873C19.3192 10.3795 18.2367 9.96322 17.071 9.92159Z" fill="black"/>
<path opacity="0.07" d="M17.071 9.92159C16.0302 8.38118 14.3233 7.29873 12.4082 7.04893C12.3249 7.1322 12.2416 7.21547 12.2 7.34036C12.1584 7.50689 12.2 7.67342 12.3249 7.79832L14.1984 9.67179V11.4204C14.1984 11.6702 14.4065 11.8783 14.6563 11.8783H16.4049L18.2784 13.7518C18.3616 13.8351 18.4865 13.8767 18.6114 13.8767C18.8196 13.8767 18.9861 13.7518 19.0694 13.5436L19.9853 10.9208C19.1526 10.2963 18.1535 9.96322 17.071 9.92159Z" fill="black"/>
<path d="M21.6506 4.09302L12.5747 7.21546C12.3665 7.29873 12.3249 7.50689 12.4914 7.67342L18.4449 13.6269C18.5698 13.7518 18.8196 13.7102 18.9029 13.5436L21.9837 4.42608C22.0253 4.21791 21.8588 4.05138 21.6506 4.09302Z" fill="#CCCCCC"/>
<path d="M15.4473 10.6293L18.4033 13.5853C18.5282 13.7102 18.778 13.6685 18.8612 13.502L21.9837 4.42608C22.0253 4.34281 21.9837 4.21792 21.9004 4.17628L15.4473 10.6293Z" fill="#999999"/>
<path d="M20.7347 5.342L14.4065 9.58852V11.4204C14.4065 11.5453 14.5314 11.6702 14.6563 11.6702H16.4882L20.7347 5.342Z" fill="#64717C"/>
<defs>
<linearGradient id="paint0_linear_40_911" x1="7.92932" y1="7.57268" x2="14.5614" y2="20.2028" gradientUnits="userSpaceOnUse">
<stop stop-color="#2AA4F4"/>
<stop offset="1" stop-color="#007AD9"/>
</linearGradient>
</defs>
</svg>
