<svg width="24" height="24" viewBox="0 0 24 24" fill="none" xmlns="http://www.w3.org/2000/svg">
<path d="M22 13.4583C22 16.2208 19.7625 18.4583 17 18.4583C16.25 18.4583 6.725 18.4583 5.95833 18.4583C3.77083 18.4583 2 16.6875 2 14.5C2 12.6083 3.325 11.025 5.10417 10.6333C5.8125 7.7125 8.44167 5.54167 11.5833 5.54167C13.8792 5.54167 15.9 6.70001 17.1 8.46251C19.8167 8.51251 22 10.7292 22 13.4583Z" fill="url(#paint0_linear_40_888)"/>
<path opacity="0.05" d="M12.0746 14.6775C11.9771 14.4429 11.7504 14.2917 11.4971 14.2917H11.1667V9.91667C11.1667 9.57209 10.8862 9.29167 10.5417 9.29167H10.125C9.78041 9.29167 9.49999 9.57209 9.49999 9.91667V14.2917H9.16958C8.91624 14.2917 8.68958 14.4429 8.59208 14.6775C8.49499 14.9117 8.54833 15.1788 8.72749 15.3588L9.89124 16.5225C10.0129 16.6446 10.1729 16.705 10.3333 16.705C10.4937 16.705 10.6533 16.6442 10.7754 16.5225L11.9392 15.3588C12.1183 15.1788 12.1717 14.9113 12.0746 14.6775Z" fill="black"/>
<path opacity="0.07" d="M11.8821 14.7571C11.8171 14.6008 11.6662 14.5 11.4971 14.5H10.9583V9.91667C10.9583 9.68667 10.7712 9.5 10.5417 9.5H10.125C9.89542 9.5 9.70833 9.68667 9.70833 9.91667V14.5H9.16958C9.00042 14.5 8.84958 14.6008 8.78458 14.7571C8.72 14.9129 8.75542 15.0917 8.875 15.2113L10.0388 16.375C10.12 16.4563 10.2267 16.4967 10.3333 16.4967C10.44 16.4967 10.5467 16.4563 10.6279 16.375L11.7917 15.2113C11.9112 15.0917 11.9467 14.9129 11.8821 14.7571Z" fill="black"/>
<path d="M11.4971 14.7083H10.75V9.91668C10.75 9.80168 10.6567 9.70834 10.5417 9.70834H10.125C10.01 9.70834 9.91666 9.80168 9.91666 9.91668V14.7083H9.16958C8.98416 14.7083 8.89083 14.9329 9.02208 15.0642L10.1858 16.2279C10.2671 16.3092 10.3992 16.3092 10.4804 16.2279L11.6442 15.0642C11.7754 14.9329 11.6825 14.7083 11.4971 14.7083Z" fill="white"/>
<path opacity="0.05" d="M11.9254 10.9892C12.0229 11.2238 12.2496 11.375 12.5029 11.375H12.8333V15.75C12.8333 16.0946 13.1138 16.375 13.4583 16.375H13.875C14.2196 16.375 14.5 16.0946 14.5 15.75V11.375H14.8304C15.0838 11.375 15.3104 11.2238 15.4079 10.9892C15.505 10.755 15.4517 10.4879 15.2725 10.3079L14.1088 9.14417C13.9871 9.02209 13.8271 8.96167 13.6667 8.96167C13.5063 8.96167 13.3467 9.0225 13.2246 9.14417L12.0608 10.3079C11.8817 10.4879 11.8283 10.7554 11.9254 10.9892Z" fill="black"/>
<path opacity="0.07" d="M12.1179 10.9096C12.1829 11.0658 12.3338 11.1667 12.5029 11.1667H13.0417V15.75C13.0417 15.98 13.2288 16.1667 13.4583 16.1667H13.875C14.1046 16.1667 14.2917 15.98 14.2917 15.75V11.1667H14.8304C14.9996 11.1667 15.1504 11.0658 15.2154 10.9096C15.28 10.7538 15.2446 10.575 15.125 10.4554L13.9613 9.29168C13.88 9.21043 13.7733 9.17001 13.6667 9.17001C13.56 9.17001 13.4533 9.21043 13.3721 9.29168L12.2083 10.4554C12.0888 10.575 12.0533 10.7538 12.1179 10.9096Z" fill="black"/>
<path d="M12.5029 10.9583H13.25V15.75C13.25 15.865 13.3433 15.9583 13.4583 15.9583H13.875C13.99 15.9583 14.0833 15.865 14.0833 15.75V10.9583H14.8304C15.0158 10.9583 15.1092 10.7338 14.9779 10.6025L13.8142 9.43876C13.7329 9.35751 13.6008 9.35751 13.5196 9.43876L12.3558 10.6025C12.2246 10.7338 12.3175 10.9583 12.5029 10.9583Z" fill="white"/>
<defs>
<linearGradient id="paint0_linear_40_888" x1="7.93417" y1="6.1075" x2="14.5717" y2="18.7479" gradientUnits="userSpaceOnUse">
<stop stop-color="#2AA4F4"/>
<stop offset="1" stop-color="#007AD9"/>
</linearGradient>
</defs>
</svg>
