<svg width="24" height="24" viewBox="0 0 24 24" fill="none" xmlns="http://www.w3.org/2000/svg">
<path d="M19.8947 7.78947V20.9474C19.8947 21.5289 19.4237 22 18.8421 22H5.1579C4.57632 22 4.10527 21.5289 4.10527 20.9474V3.05263C4.10527 2.47105 4.57632 2 5.1579 2H14.1053L19.8947 7.78947Z" fill="url(#paint0_linear_40_943)"/>
<path d="M14.1053 2V6.73684C14.1053 7.31842 14.5763 7.78947 15.1579 7.78947H19.8947L14.1053 2Z" fill="url(#paint1_linear_40_943)"/>
<path d="M6.80054 14.7853L8.8858 16.8705C8.97054 16.9553 9.10843 16.9553 9.19317 16.8705L9.63369 16.43C9.71843 16.3453 9.71843 16.2074 9.63369 16.1226L7.54843 14.0374C7.46369 13.9526 7.3258 13.9526 7.24106 14.0374L6.80054 14.4779C6.7158 14.5626 6.7158 14.7005 6.80054 14.7853Z" fill="#0078D4"/>
<path d="M7.54843 15.2258L9.63369 13.1405C9.71843 13.0558 9.71843 12.9179 9.63369 12.8331L9.19317 12.3926C9.10843 12.3079 8.97054 12.3079 8.8858 12.3926L6.80054 14.4779C6.7158 14.5626 6.7158 14.7005 6.80054 14.7853L7.24106 15.2258C7.3258 15.3105 7.46369 15.3105 7.54843 15.2258Z" fill="#0078D4"/>
<path d="M17.1995 14.7853L15.1142 16.8705C15.0295 16.9553 14.8916 16.9553 14.8068 16.8705L14.3663 16.43C14.2816 16.3453 14.2816 16.2074 14.3663 16.1226L16.4516 14.0374C16.5363 13.9526 16.6742 13.9526 16.7589 14.0374L17.1995 14.4779C17.2842 14.5626 17.2842 14.7005 17.1995 14.7853Z" fill="#0078D4"/>
<path d="M16.4516 15.2258L14.3663 13.1405C14.2816 13.0558 14.2816 12.9179 14.3663 12.8331L14.8068 12.3926C14.8916 12.3079 15.0295 12.3079 15.1142 12.3926L17.1995 14.4779C17.2842 14.5626 17.2842 14.7005 17.1995 14.7853L16.7589 15.2258C16.6742 15.3105 16.5363 15.3105 16.4516 15.2258Z" fill="#0078D4"/>
<path d="M13.3705 9.91684H12.579C12.4753 9.91684 12.3858 9.98947 12.3642 10.091L10.4684 19.1484C10.4469 19.2505 10.5253 19.3468 10.6295 19.3468H11.4211C11.5248 19.3468 11.6142 19.2742 11.6358 19.1726L13.5316 10.1153C13.5532 10.0126 13.4748 9.91684 13.3705 9.91684Z" fill="#0078D4"/>
<defs>
<linearGradient id="paint0_linear_40_943" x1="9.08347" y1="2.30706" x2="20.1877" y2="19.2096" gradientUnits="userSpaceOnUse">
<stop stop-color="#7DD8F3"/>
<stop offset="1" stop-color="#45B0D0"/>
</linearGradient>
<linearGradient id="paint1_linear_40_943" x1="14.3837" y1="7.51158" x2="17.0526" y2="4.84211" gradientUnits="userSpaceOnUse">
<stop stop-color="#3079D6"/>
<stop offset="1" stop-color="#297CD2"/>
</linearGradient>
</defs>
</svg>
