<svg width="24" height="24" viewBox="0 0 24 24" fill="none" xmlns="http://www.w3.org/2000/svg">
<path d="M21.0476 4.38095C21.5738 4.38095 22 4.80714 22 5.33333V7.71428H2V5.33333C2 4.80714 2.42619 4.38095 2.95238 4.38095H21.0476Z" fill="url(#paint0_linear_40_928)"/>
<path d="M22 6.7619H2V18.6667C2 19.1929 2.42619 19.619 2.95238 19.619H21.0476C21.5738 19.619 22 19.1929 22 18.6667V6.7619Z" fill="url(#paint1_linear_40_928)"/>
<path d="M20.5714 6.28571C20.8344 6.28571 21.0476 6.07251 21.0476 5.80952C21.0476 5.54653 20.8344 5.33333 20.5714 5.33333C20.3085 5.33333 20.0952 5.54653 20.0952 5.80952C20.0952 6.07251 20.3085 6.28571 20.5714 6.28571Z" fill="url(#paint2_linear_40_928)"/>
<path d="M19.1429 6.28571C19.4058 6.28571 19.6191 6.07251 19.6191 5.80952C19.6191 5.54653 19.4058 5.33333 19.1429 5.33333C18.8799 5.33333 18.6667 5.54653 18.6667 5.80952C18.6667 6.07251 18.8799 6.28571 19.1429 6.28571Z" fill="url(#paint3_linear_40_928)"/>
<path opacity="0.05" d="M18.0738 12.9724L16.9681 10.9448C16.8429 10.7148 16.6019 10.5714 16.3395 10.5714H15.6681C15.441 10.5714 15.2362 10.6881 15.1205 10.8829C15.0043 11.0781 15 11.3133 15.109 11.5133L16.1533 13.4286L15.1086 15.3433C14.9995 15.5433 15.0043 15.7786 15.12 15.9733C15.2362 16.1686 15.4405 16.2852 15.6676 16.2852H16.339C16.6014 16.2852 16.8424 16.1419 16.9676 15.9119L18.0738 13.8843C18.23 13.599 18.23 13.2581 18.0738 12.9724Z" fill="black"/>
<path opacity="0.07" d="M17.8652 13.0867L16.7591 11.0586C16.6752 10.9048 16.5143 10.8095 16.3395 10.8095H15.6681C15.5257 10.8095 15.3976 10.8824 15.3252 11.0048C15.2524 11.1271 15.25 11.2743 15.3181 11.3995L16.4248 13.4286L15.3181 15.4576C15.25 15.5829 15.2524 15.73 15.3252 15.8524C15.3976 15.9748 15.5257 16.0476 15.6681 16.0476H16.3395C16.5143 16.0476 16.6752 15.9524 16.7591 15.7986L17.8652 13.7705C17.9819 13.5567 17.9819 13.3005 17.8652 13.0867Z" fill="black"/>
<path opacity="0.05" d="M5.92619 12.9724L7.03191 10.9448C7.15715 10.7148 7.3981 10.5714 7.66048 10.5714H8.33191C8.55905 10.5714 8.76381 10.6881 8.87953 10.8829C8.99572 11.0781 9 11.3133 8.89095 11.5133L7.84667 13.4286L8.89143 15.3433C9.00048 15.5433 8.99572 15.7786 8.88 15.9733C8.76381 16.169 8.55905 16.2857 8.33191 16.2857H7.66048C7.3981 16.2857 7.15715 16.1424 7.03191 15.9124L5.92572 13.8848C5.77 13.599 5.77 13.2581 5.92619 12.9724Z" fill="black"/>
<path opacity="0.07" d="M6.13476 13.0867L7.24095 11.0586C7.32476 10.9048 7.48571 10.8095 7.66047 10.8095H8.3319C8.47428 10.8095 8.60238 10.8824 8.67476 11.0048C8.74761 11.1271 8.74999 11.2743 8.6819 11.3995L7.57523 13.4286L8.6819 15.4576C8.74999 15.5829 8.74761 15.73 8.67476 15.8524C8.60238 15.9748 8.47428 16.0476 8.3319 16.0476H7.66047C7.48571 16.0476 7.32476 15.9524 7.24095 15.7986L6.13476 13.7705C6.01809 13.5567 6.01809 13.3005 6.13476 13.0867Z" fill="black"/>
<path d="M16.6957 13.4286L15.5267 15.5714C15.4681 15.6786 15.5457 15.8095 15.6681 15.8095H16.3395C16.4271 15.8095 16.5081 15.7614 16.55 15.6848L17.6562 13.6567C17.7338 13.5148 17.7338 13.3429 17.6562 13.2005L16.55 11.1724C16.5081 11.0957 16.4271 11.0476 16.3395 11.0476H15.6681C15.5462 11.0476 15.4686 11.1781 15.5267 11.2857L16.6957 13.4286Z" fill="url(#paint4_linear_40_928)"/>
<path d="M7.30429 13.4286L8.47334 15.5714C8.53191 15.6786 8.45429 15.8095 8.33191 15.8095H7.66048C7.57286 15.8095 7.49191 15.7614 7.45 15.6848L6.34381 13.6567C6.26619 13.5148 6.26619 13.3429 6.34381 13.2005L7.45 11.1724C7.49191 11.0957 7.57286 11.0476 7.66048 11.0476H8.33191C8.45381 11.0476 8.53143 11.1781 8.47334 11.2857L7.30429 13.4286Z" fill="url(#paint5_linear_40_928)"/>
<path opacity="0.05" d="M14.259 8.94762C14.1343 8.77143 13.9314 8.66667 13.7162 8.66667H13.2033C12.9052 8.66667 12.6386 8.85524 12.54 9.13572L9.65714 17.3052C9.58571 17.5081 9.61762 17.7338 9.7419 17.9105C9.86619 18.0857 10.0686 18.1905 10.2838 18.1905H10.7967C11.0948 18.1905 11.3619 18.0019 11.46 17.721L14.3433 9.55239C14.4143 9.34953 14.3829 9.12334 14.259 8.94762Z" fill="black"/>
<path opacity="0.07" d="M14.0643 9.08475C13.9848 8.97237 13.8543 8.90475 13.7162 8.90475H13.2033C13.0062 8.90475 12.83 9.02952 12.7648 9.21475L9.88143 17.3838C9.83571 17.5138 9.85571 17.659 9.93571 17.7719C10.0152 17.8843 10.1457 17.9519 10.2838 17.9519H10.7967C10.9943 17.9519 11.1705 17.8267 11.2352 17.6414L14.1186 9.47285C14.1643 9.34285 14.1438 9.19761 14.0643 9.08475Z" fill="black"/>
<path d="M13.7162 9.14285H13.2033C13.1071 9.14285 13.0214 9.20333 12.9895 9.29428L10.1062 17.4633C10.0629 17.5857 10.1538 17.7143 10.2838 17.7143H10.7967C10.8929 17.7143 10.9786 17.6538 11.0105 17.5629L13.8938 9.39381C13.9371 9.27142 13.8462 9.14285 13.7162 9.14285Z" fill="url(#paint6_linear_40_928)"/>
<defs>
<linearGradient id="paint0_linear_40_928" x1="5.216" y1="4.91695" x2="5.97016" y2="9.44192" gradientUnits="userSpaceOnUse">
<stop stop-color="#0D61A9"/>
<stop offset="1" stop-color="#16528C"/>
</linearGradient>
<linearGradient id="paint1_linear_40_928" x1="6.5345" y1="5.33238" x2="15.3515" y2="18.724" gradientUnits="userSpaceOnUse">
<stop stop-color="#7DD8F3"/>
<stop offset="1" stop-color="#45B0D0"/>
</linearGradient>
<linearGradient id="paint2_linear_40_928" x1="20.2484" y1="5.48647" x2="20.9128" y2="6.15085" gradientUnits="userSpaceOnUse">
<stop stop-color="#0D61A9"/>
<stop offset="1" stop-color="#16528C"/>
</linearGradient>
<linearGradient id="paint3_linear_40_928" x1="18.8198" y1="5.48647" x2="19.4842" y2="6.15085" gradientUnits="userSpaceOnUse">
<stop stop-color="#0D61A9"/>
<stop offset="1" stop-color="#16528C"/>
</linearGradient>
<linearGradient id="paint4_linear_40_928" x1="15.8617" y1="11.8133" x2="18.397" y2="12.9887" gradientUnits="userSpaceOnUse">
<stop stop-color="#0D61A9"/>
<stop offset="1" stop-color="#16528C"/>
</linearGradient>
<linearGradient id="paint5_linear_40_928" x1="6.64059" y1="11.8133" x2="9.17581" y2="12.9887" gradientUnits="userSpaceOnUse">
<stop stop-color="#0D61A9"/>
<stop offset="1" stop-color="#16528C"/>
</linearGradient>
<linearGradient id="paint6_linear_40_928" x1="10.7078" y1="10.5211" x2="15.1461" y2="12.4937" gradientUnits="userSpaceOnUse">
<stop stop-color="#0D61A9"/>
<stop offset="1" stop-color="#16528C"/>
</linearGradient>
</defs>
</svg>
