<svg width="24" height="24" viewBox="0 0 24 24" fill="none" xmlns="http://www.w3.org/2000/svg">
<path d="M20.9474 16.7368H3.05263C2.47105 16.7368 2 17.2079 2 17.7895V20.9474C2 21.5284 2.47105 22 3.05263 22H8.31579H20.9474C21.5289 22 22 21.5284 22 20.9474V17.7895C22 17.2079 21.5289 16.7368 20.9474 16.7368Z" fill="#D7DFE2"/>
<path d="M11.4737 16.7368V22H5.90947L7.26315 16.7368H11.4737Z" fill="#184686"/>
<path d="M17.7895 22V16.7368H20.9474C21.5289 16.7368 22 17.2079 22 17.7895V20.9474C22 21.529 21.5289 22 20.9474 22H17.7895Z" fill="#3CCBF4"/>
<path d="M16.7368 16.7368V22H12.5263V16.7368H16.7368Z" fill="#0A68B6"/>
<path opacity="0.05" d="M5.79632 16.7368V21.979L14.6905 16.7368H5.79632Z" fill="black"/>
<path opacity="0.05" d="M5.79632 16.7368V22H6.27895L15.2084 16.7368H5.79632Z" fill="black"/>
<path d="M20.6105 11.7205L19.0068 8.99999C18.7116 8.49894 18.0663 8.33263 17.5653 8.62736L2.14947 17.7137C2.09474 17.7458 2.04632 17.7837 2 17.8232V19.5332L3.38053 21.8753C3.40737 21.921 3.43947 21.9605 3.47158 22H5.24263L20.2384 13.1621C20.7389 12.8668 20.9058 12.2216 20.6105 11.7205Z" fill="#D7DFE2"/>
<path d="M13.9384 10.7658L16.6111 15.3L12.9837 17.4379L10.3111 12.9037L13.9384 10.7658Z" fill="#23B368"/>
<path opacity="0.05" d="M10.6574 12.6995L5.38895 21.9137L7.77579 20.5068L13.4247 11.0684L10.6574 12.6995Z" fill="black"/>
<path d="M17.5174 14.7653L14.8447 10.2311L17.5653 8.62737C18.0663 8.33211 18.7116 8.49895 19.0068 8.99948L20.6105 11.72C20.9058 12.2211 20.7389 12.8663 20.2384 13.1616L17.5174 14.7653Z" fill="#30DC80"/>
<path opacity="0.05" d="M10.6574 12.6995L5.38895 21.9137L7.30158 20.7863L12.9511 11.3474L10.6574 12.6995Z" fill="black"/>
<path d="M9.40421 13.4379L12.0768 17.9721L6.48947 21.2637L5.77737 15.5758L9.40421 13.4379Z" fill="#0A8645"/>
<path d="M15.1284 5.14631L12.4184 3.52525C11.9195 3.22683 11.2732 3.38947 10.9747 3.88841L2 18.8947V20.5763C2.04737 20.6174 2.09737 20.6568 2.15263 20.69L4.34316 22H6.2679C6.28 21.9821 6.29526 21.9668 6.30684 21.9479L15.4916 6.58999C15.79 6.09104 15.6274 5.44473 15.1284 5.14631Z" fill="#D7DFE2"/>
<path d="M8.81316 7.50211L13.33 10.2037L11.1689 13.8174L6.65211 11.1158L8.81316 7.50211Z" fill="#F8BE00"/>
<path d="M6.1121 12.0195L10.6289 14.721L7.19473 20.4579L3.95105 15.6332L6.1121 12.0195Z" fill="#FF8F3B"/>
<path opacity="0.05" d="M6.09842 22H6.26789H7.37895C7.63158 21.72 7.78947 21.3532 7.78947 20.9474V9.21422L6.09842 12.0416V22Z" fill="black"/>
<path opacity="0.05" d="M6.09842 22H6.26789H6.9921C7.31473 21.76 7.52631 21.3795 7.52631 20.9474V9.65421L6.09842 12.0416V22Z" fill="black"/>
<path d="M13.8705 9.29999L9.35368 6.59841L10.9747 3.88841C11.2732 3.38947 11.9195 3.22683 12.4184 3.52525L15.1284 5.14631C15.6274 5.44473 15.79 6.09104 15.4916 6.58999L13.8705 9.29999Z" fill="#FEDE00"/>
<path d="M6.21053 22H3.05263C2.47105 22 2 21.5289 2 20.9474V3.05263C2 2.47105 2.47105 2 3.05263 2H6.21053C6.79211 2 7.26316 2.47105 7.26316 3.05263V20.9474C7.26316 21.5289 6.79211 22 6.21053 22Z" fill="url(#paint0_linear_40_978)"/>
<path d="M7.26316 6.21053H2V3.05263C2 2.47105 2.47105 2 3.05263 2H6.21053C6.79211 2 7.26316 2.47105 7.26316 3.05263V6.21053Z" fill="#FF8DB6"/>
<path d="M2 7.26315H7.26316V11.4737H2V7.26315Z" fill="#F95568"/>
<path d="M2 12.5263H7.26316V16.7368H2V12.5263Z" fill="#CE0D24"/>
<path d="M4.63158 18.8421C4.34105 18.8421 4.10526 19.0779 4.10526 19.3684C4.10526 19.6589 4.34105 19.8947 4.63158 19.8947C4.9221 19.8947 5.15789 19.6589 5.15789 19.3684C5.15789 19.0779 4.9221 18.8421 4.63158 18.8421Z" fill="#455A64"/>
<defs>
<linearGradient id="paint0_linear_40_978" x1="4.63158" y1="12" x2="4.63158" y2="23.5116" gradientUnits="userSpaceOnUse">
<stop stop-color="#C8CDD1"/>
<stop offset="1" stop-color="#B3B3B3"/>
</linearGradient>
</defs>
</svg>
