<svg width="24" height="24" viewBox="0 0 24 24" fill="none" xmlns="http://www.w3.org/2000/svg">
<path d="M17.25 8.85925H14.875V19.3593H17.25V8.85925Z" fill="#C28200"/>
<path d="M16 18.7343L4.03372 19.2329L4.03322 19.2389L18.5111 21.7658C18.5782 21.2612 18.8425 20.8038 19.2461 20.4937C19.6498 20.1836 20.1599 20.0462 20.6647 20.1114L21.2897 16.5303L16 18.7343Z" fill="#C28200"/>
<path d="M20 4.23425H4C4 4.76468 3.78929 5.27339 3.41421 5.64846C3.03914 6.02354 2.53043 6.23425 2 6.23425V17.2343C2.53043 17.2343 3.03914 17.445 3.41421 17.8201C3.78929 18.1952 4 18.7039 4 19.2343H20C20 18.7039 20.2107 18.1952 20.5858 17.8201C20.9609 17.445 21.4696 17.2343 22 17.2343V6.23425C21.4696 6.23425 20.9609 6.02354 20.5858 5.64846C20.2107 5.27339 20 4.76468 20 4.23425ZM16 18.2343C15.9011 18.2343 15.8044 18.205 15.7222 18.15C15.64 18.0951 15.5759 18.017 15.5381 17.9256C15.5002 17.8343 15.4903 17.7337 15.5096 17.6368C15.5289 17.5398 15.5765 17.4507 15.6464 17.3807C15.7164 17.3108 15.8055 17.2632 15.9025 17.2439C15.9994 17.2246 16.1 17.2345 16.1913 17.2724C16.2827 17.3102 16.3608 17.3743 16.4157 17.4565C16.4707 17.5387 16.5 17.6354 16.5 17.7343C16.5 17.8669 16.4473 17.994 16.3535 18.0878C16.2597 18.1816 16.1326 18.2343 16 18.2343ZM16 16.2343C15.9011 16.2343 15.8044 16.205 15.7222 16.15C15.64 16.0951 15.5759 16.017 15.5381 15.9256C15.5002 15.8343 15.4903 15.7337 15.5096 15.6368C15.5289 15.5398 15.5765 15.4507 15.6464 15.3807C15.7164 15.3108 15.8055 15.2632 15.9025 15.2439C15.9994 15.2246 16.1 15.2345 16.1913 15.2724C16.2827 15.3102 16.3608 15.3743 16.4157 15.4565C16.4707 15.5387 16.5 15.6354 16.5 15.7343C16.5 15.8669 16.4473 15.994 16.3535 16.0878C16.2597 16.1816 16.1326 16.2343 16 16.2343ZM16 14.2343C15.9011 14.2343 15.8044 14.205 15.7222 14.15C15.64 14.0951 15.5759 14.017 15.5381 13.9256C15.5002 13.8343 15.4903 13.7337 15.5096 13.6368C15.5289 13.5398 15.5765 13.4507 15.6464 13.3807C15.7164 13.3108 15.8055 13.2632 15.9025 13.2439C15.9994 13.2246 16.1 13.2345 16.1913 13.2724C16.2827 13.3102 16.3608 13.3743 16.4157 13.4565C16.4707 13.5387 16.5 13.6354 16.5 13.7343C16.5 13.8669 16.4473 13.994 16.3535 14.0878C16.2597 14.1816 16.1326 14.2343 16 14.2343ZM16 12.2343C15.9011 12.2343 15.8044 12.205 15.7222 12.15C15.64 12.0951 15.5759 12.017 15.5381 11.9256C15.5002 11.8343 15.4903 11.7337 15.5096 11.6368C15.5289 11.5398 15.5765 11.4507 15.6464 11.3807C15.7164 11.3108 15.8055 11.2632 15.9025 11.2439C15.9994 11.2246 16.1 11.2345 16.1913 11.2724C16.2827 11.3102 16.3608 11.3743 16.4157 11.4565C16.4707 11.5387 16.5 11.6354 16.5 11.7343C16.5 11.8669 16.4473 11.994 16.3535 12.0878C16.2597 12.1816 16.1326 12.2343 16 12.2343ZM16 10.2343C15.9011 10.2343 15.8044 10.205 15.7222 10.15C15.64 10.0951 15.5759 10.017 15.5381 9.92555C15.5002 9.83425 15.4903 9.73369 15.5096 9.6367C15.5289 9.53971 15.5765 9.45062 15.6464 9.3807C15.7164 9.31077 15.8055 9.26315 15.9025 9.24386C15.9994 9.22456 16.1 9.23447 16.1913 9.27231C16.2827 9.31015 16.3608 9.37424 16.4157 9.45646C16.4707 9.53869 16.5 9.63536 16.5 9.73425C16.5 9.86685 16.4473 9.99395 16.3535 10.0878C16.2597 10.1816 16.1326 10.2343 16 10.2343ZM16 8.23425C15.9011 8.23425 15.8044 8.20493 15.7222 8.14999C15.64 8.09504 15.5759 8.01695 15.5381 7.92559C15.5002 7.83423 15.4903 7.7337 15.5096 7.6367C15.5289 7.53971 15.5765 7.45062 15.6464 7.3807C15.7164 7.31077 15.8055 7.26315 15.9025 7.24386C15.9994 7.22456 16.1 7.23447 16.1913 7.27231C16.2827 7.31015 16.3608 7.37424 16.4157 7.45646C16.4707 7.53869 16.5 7.63536 16.5 7.73425C16.5 7.86684 16.4473 7.99399 16.3535 8.08775C16.2597 8.18151 16.1326 8.2342 16 8.23425ZM16 6.23425C15.9011 6.23425 15.8044 6.20493 15.7222 6.14998C15.64 6.09504 15.5759 6.01695 15.5381 5.92559C15.5002 5.83423 15.4903 5.7337 15.5096 5.6367C15.5289 5.53971 15.5765 5.45062 15.6464 5.3807C15.7164 5.31077 15.8055 5.26315 15.9025 5.24386C15.9994 5.22456 16.1 5.23447 16.1913 5.27231C16.2827 5.31015 16.3608 5.37424 16.4157 5.45646C16.4707 5.53869 16.5 5.63536 16.5 5.73425C16.5 5.86684 16.4473 5.99399 16.3535 6.08775C16.2597 6.18151 16.1326 6.2342 16 6.23425Z" fill="url(#paint0_linear_40_1014)"/>
<path d="M13.5 9.73425H11C10.7239 9.73425 10.5 9.95815 10.5 10.2343C10.5 10.5104 10.7239 10.7343 11 10.7343H13.5C13.7761 10.7343 14 10.5104 14 10.2343C14 9.95815 13.7761 9.73425 13.5 9.73425Z" fill="#C2620E"/>
<path d="M9 9.73425H4C3.72386 9.73425 3.5 9.95815 3.5 10.2343C3.5 10.5104 3.72386 10.7343 4 10.7343H9C9.27614 10.7343 9.5 10.5104 9.5 10.2343C9.5 9.95815 9.27614 9.73425 9 9.73425Z" fill="#C2620E"/>
<path d="M13.5 12.7343H4C3.72386 12.7343 3.5 12.9582 3.5 13.2343C3.5 13.5104 3.72386 13.7343 4 13.7343H13.5C13.7761 13.7343 14 13.5104 14 13.2343C14 12.9582 13.7761 12.7343 13.5 12.7343Z" fill="#C2620E"/>
<path d="M8.5 3.73425V4.23425H8V3.73425C8 3.46903 7.89464 3.21468 7.70711 3.02714C7.51957 2.83961 7.26522 2.73425 7 2.73425C6.73478 2.73425 6.48043 2.83961 6.29289 3.02714C6.10536 3.21468 6 3.46903 6 3.73425V6.73425C6 6.86686 6.05268 6.99404 6.14645 7.0878C6.24021 7.18157 6.36739 7.23425 6.5 7.23425C6.63261 7.23425 6.75979 7.18157 6.85355 7.0878C6.94732 6.99404 7 6.86686 7 6.73425V4.98425C7 4.91795 7.02634 4.85436 7.07322 4.80747C7.12011 4.76059 7.1837 4.73425 7.25 4.73425C7.3163 4.73425 7.37989 4.76059 7.42678 4.80747C7.47366 4.85436 7.5 4.91795 7.5 4.98425V6.73425C7.5 6.99947 7.39464 7.25382 7.20711 7.44136C7.01957 7.62889 6.76522 7.73425 6.5 7.73425C6.23478 7.73425 5.98043 7.62889 5.79289 7.44136C5.60536 7.25382 5.5 6.99947 5.5 6.73425V3.73425C5.5 3.33643 5.65804 2.95489 5.93934 2.67359C6.22064 2.39229 6.60218 2.23425 7 2.23425C7.39782 2.23425 7.77936 2.39229 8.06066 2.67359C8.34196 2.95489 8.5 3.33643 8.5 3.73425Z" fill="url(#paint1_linear_40_1014)"/>
<defs>
<linearGradient id="paint0_linear_40_1014" x1="6.4075" y1="2.78475" x2="17.9975" y2="21.3318" gradientUnits="userSpaceOnUse">
<stop stop-color="#FFD869"/>
<stop offset="1" stop-color="#FEC52B"/>
</linearGradient>
<linearGradient id="paint1_linear_40_1014" x1="5.5" y1="4.98425" x2="8.5" y2="4.98425" gradientUnits="userSpaceOnUse">
<stop stop-color="#3079D6"/>
<stop offset="1" stop-color="#297CD2"/>
</linearGradient>
</defs>
</svg>
