<svg width="24" height="24" viewBox="0 0 24 24" fill="none" xmlns="http://www.w3.org/2000/svg">
<path d="M21.9126 21.3093L20.1788 17.3648C20.7074 16.3911 21.0075 15.2751 21.0075 14.0893C21.0075 10.2928 17.9297 7.21501 14.1332 7.21501C10.3366 7.21501 7.25884 10.2928 7.25884 14.0893C7.25884 17.8859 10.3366 20.9637 14.1332 20.9637C15.372 20.9637 16.5311 20.6313 17.5348 20.0582L21.2398 21.9446C21.6513 22.1541 22.0984 21.7317 21.9126 21.3093Z" fill="url(#paint0_linear_40_1052)"/>
<path d="M10.8145 14.3264H18.4C18.5309 14.3264 18.6371 14.2202 18.6371 14.0893V13.6153C18.6371 13.4844 18.5309 13.3782 18.4 13.3782H10.8145C10.6837 13.3782 10.5775 13.4844 10.5775 13.6153V14.0893C10.5775 14.2202 10.6837 14.3264 10.8145 14.3264Z" fill="url(#paint1_linear_40_1052)"/>
<path d="M10.8145 16.2228H16.9777C17.1086 16.2228 17.2148 16.1166 17.2148 15.9857V15.5116C17.2148 15.3808 17.1086 15.2746 16.9777 15.2746H10.8145C10.6837 15.2746 10.5775 15.3808 10.5775 15.5116V15.9857C10.5775 16.1166 10.6837 16.2228 10.8145 16.2228Z" fill="url(#paint2_linear_40_1052)"/>
<path opacity="0.15" d="M7.25884 14.0893C7.25884 14.745 7.35651 15.3765 7.52765 15.9772C8.13781 16.1317 8.77262 16.2228 9.43018 16.2228C13.7245 16.2228 17.2062 12.7206 17.2062 8.40024C17.2062 8.24332 17.192 8.09019 17.183 7.93563C16.2628 7.47861 15.2302 7.21501 14.1332 7.21501C10.3366 7.21501 7.25884 10.2928 7.25884 14.0893Z" fill="url(#paint3_radial_40_1052)"/>
<path d="M9.39226 2C5.85743 2 2.99202 4.86541 2.99202 8.40024C2.99202 9.3764 3.21674 10.2976 3.60786 11.1253C3.6017 11.1395 3.59411 11.1509 3.5889 11.167L2.08745 14.5833C1.9016 15.0062 2.34867 15.4287 2.76019 15.2191L5.77968 13.6816C6.80798 14.3866 8.05105 14.8005 9.39226 14.8005C12.9271 14.8005 15.7925 11.9351 15.7925 8.40024C15.7925 4.86541 12.9271 2 9.39226 2Z" fill="url(#paint4_linear_40_1052)"/>
<path d="M5.59952 7.68911H13.185C13.3158 7.68911 13.422 7.58291 13.422 7.45206V6.97797C13.422 6.84712 13.3158 6.74092 13.185 6.74092H5.59952C5.46867 6.74092 5.36248 6.84712 5.36248 6.97797V7.45206C5.36248 7.58291 5.46867 7.68911 5.59952 7.68911Z" fill="url(#paint5_linear_40_1052)"/>
<path d="M5.59952 9.58547H11.7627C11.8936 9.58547 11.9998 9.47927 11.9998 9.34842V8.87433C11.9998 8.74348 11.8936 8.63728 11.7627 8.63728H5.59952C5.46867 8.63728 5.36248 8.74348 5.36248 8.87433V9.34842C5.36248 9.47927 5.46867 9.58547 5.59952 9.58547Z" fill="url(#paint6_linear_40_1052)"/>
<defs>
<linearGradient id="paint0_linear_40_1052" x1="10.6268" y1="8.17552" x2="19.1334" y2="22.5225" gradientUnits="userSpaceOnUse">
<stop stop-color="#0176D0"/>
<stop offset="1" stop-color="#16538C"/>
</linearGradient>
<linearGradient id="paint1_linear_40_1052" x1="13.7439" y1="12.0242" x2="15.5512" y2="15.8515" gradientUnits="userSpaceOnUse">
<stop stop-color="#199AE0"/>
<stop offset="1" stop-color="#0782D8"/>
</linearGradient>
<linearGradient id="paint2_linear_40_1052" x1="13.1594" y1="14.1884" x2="14.7016" y2="17.4549" gradientUnits="userSpaceOnUse">
<stop stop-color="#199AE0"/>
<stop offset="1" stop-color="#0782D8"/>
</linearGradient>
<radialGradient id="paint3_radial_40_1052" cx="0" cy="0" r="1" gradientUnits="userSpaceOnUse" gradientTransform="translate(9.48233 8.5145) scale(7.63904)">
<stop offset="0.627"/>
<stop offset="1" stop-opacity="0"/>
</radialGradient>
<linearGradient id="paint4_linear_40_1052" x1="5.36105" y1="3.39099" x2="10.9473" y2="15.2243" gradientUnits="userSpaceOnUse">
<stop stop-color="#33BEF0"/>
<stop offset="1" stop-color="#22A5E2"/>
</linearGradient>
<linearGradient id="paint5_linear_40_1052" x1="8.52894" y1="5.38691" x2="10.3362" y2="9.21426" gradientUnits="userSpaceOnUse">
<stop stop-color="#199AE0"/>
<stop offset="1" stop-color="#0782D8"/>
</linearGradient>
<linearGradient id="paint6_linear_40_1052" x1="7.94438" y1="7.55114" x2="9.4866" y2="10.8176" gradientUnits="userSpaceOnUse">
<stop stop-color="#199AE0"/>
<stop offset="1" stop-color="#0782D8"/>
</linearGradient>
</defs>
</svg>
