<svg width="24" height="22" viewBox="0 0 24 22" fill="none" xmlns="http://www.w3.org/2000/svg">
<path opacity="0.05" d="M22 14V2.474C22 1.661 21.3385 1 20.5255 1H4V14H22Z" fill="black"/>
<path opacity="0.07" d="M21.75 14V2.474C21.75 1.799 21.2005 1.25 20.5255 1.25H4V14H21.75Z" fill="black"/>
<path d="M20.5255 1.5H2.9745C2.436 1.5 2 1.936 2 2.4745V15.026C2 15.564 2.436 16 2.9745 16H7V19.8565C7 20.2905 7.5245 20.508 7.8315 20.201L12.0325 16H20.5255C21.064 16 21.5 15.564 21.5 15.0255V2.4745C21.5 1.936 21.064 1.5 20.5255 1.5Z" fill="url(#paint0_linear_6_837)"/>
<defs>
<linearGradient id="paint0_linear_6_837" x1="6.261" y1="-0.1805" x2="17.368" y2="17.8905" gradientUnits="userSpaceOnUse">
<stop stop-color="#33BEF0"/>
<stop offset="1" stop-color="#0A85D9"/>
</linearGradient>
</defs>
</svg>
