<svg width="24" height="24" viewBox="0 0 24 24" fill="none" xmlns="http://www.w3.org/2000/svg">
<path d="M18.1905 9.14285C16.0867 9.14285 14.381 10.8486 14.381 12.9524V20.0952C14.381 20.6214 14.8071 21.0476 15.3333 21.0476H21.0476C21.5738 21.0476 22 20.6214 22 20.0952V12.9524C22 10.8486 20.2943 9.14285 18.1905 9.14285Z" fill="url(#paint0_linear_40_1061)"/>
<path d="M12 7.71428C9.89619 7.71428 8.19048 9.41999 8.19048 11.5238V20.0952C8.19048 20.6214 8.61667 21.0476 9.14286 21.0476H14.8571C15.3833 21.0476 15.8095 20.6214 15.8095 20.0952V11.5238C15.8095 9.41999 14.1038 7.71428 12 7.71428Z" fill="url(#paint1_linear_40_1061)"/>
<path d="M5.80952 9.14285C3.70571 9.14285 2 10.8486 2 12.9524V20.0952C2 20.6214 2.42619 21.0476 2.95238 21.0476H8.66667C9.19286 21.0476 9.61905 20.6214 9.61905 20.0952V12.9524C9.61905 10.8486 7.91333 9.14285 5.80952 9.14285Z" fill="url(#paint2_linear_40_1061)"/>
<path d="M18.1905 8.19047C19.2425 8.19047 20.0952 7.33768 20.0952 6.28571C20.0952 5.23374 19.2425 4.38095 18.1905 4.38095C17.1385 4.38095 16.2857 5.23374 16.2857 6.28571C16.2857 7.33768 17.1385 8.19047 18.1905 8.19047Z" fill="url(#paint3_linear_40_1061)"/>
<path d="M5.80952 8.19047C6.86149 8.19047 7.71428 7.33768 7.71428 6.28571C7.71428 5.23374 6.86149 4.38095 5.80952 4.38095C4.75755 4.38095 3.90475 5.23374 3.90475 6.28571C3.90475 7.33768 4.75755 8.19047 5.80952 8.19047Z" fill="url(#paint4_linear_40_1061)"/>
<path d="M12 6.7619C13.052 6.7619 13.9048 5.90911 13.9048 4.85714C13.9048 3.80517 13.052 2.95238 12 2.95238C10.948 2.95238 10.0952 3.80517 10.0952 4.85714C10.0952 5.90911 10.948 6.7619 12 6.7619Z" fill="url(#paint5_linear_40_1061)"/>
<path d="M12 14.381C13.052 14.381 13.9048 13.5282 13.9048 12.4762C13.9048 11.4242 13.052 10.5714 12 10.5714C10.948 10.5714 10.0952 11.4242 10.0952 12.4762C10.0952 13.5282 10.948 14.381 12 14.381Z" fill="url(#paint6_linear_40_1061)"/>
<path d="M11.7462 15.3414C9.72143 15.4729 8.19048 17.2443 8.19048 19.2733V20.5714C8.19048 20.8343 8.40381 21.0476 8.66667 21.0476H15.3333C15.5962 21.0476 15.8095 20.8343 15.8095 20.5714V19.1429C15.8095 16.9548 13.9652 15.1981 11.7462 15.3414Z" fill="url(#paint7_linear_40_1061)"/>
<defs>
<linearGradient id="paint0_linear_40_1061" x1="15.8757" y1="6.38428" x2="18.9562" y2="19.6581" gradientUnits="userSpaceOnUse">
<stop stop-color="#0D61A9"/>
<stop offset="1" stop-color="#16528C"/>
</linearGradient>
<linearGradient id="paint1_linear_40_1061" x1="10.21" y1="7.9319" x2="13.2657" y2="21.0976" gradientUnits="userSpaceOnUse">
<stop stop-color="#0D61A9"/>
<stop offset="1" stop-color="#16528C"/>
</linearGradient>
<linearGradient id="paint2_linear_40_1061" x1="4.17857" y1="9.33142" x2="7.25905" y2="22.6052" gradientUnits="userSpaceOnUse">
<stop stop-color="#0D61A9"/>
<stop offset="1" stop-color="#16528C"/>
</linearGradient>
<linearGradient id="paint3_linear_40_1061" x1="16.8981" y1="4.99333" x2="19.5557" y2="7.65095" gradientUnits="userSpaceOnUse">
<stop stop-color="#0D61A9"/>
<stop offset="1" stop-color="#16528C"/>
</linearGradient>
<linearGradient id="paint4_linear_40_1061" x1="4.51714" y1="4.99333" x2="7.17475" y2="7.65095" gradientUnits="userSpaceOnUse">
<stop stop-color="#0D61A9"/>
<stop offset="1" stop-color="#16528C"/>
</linearGradient>
<linearGradient id="paint5_linear_40_1061" x1="10.7076" y1="3.56476" x2="13.3652" y2="6.22238" gradientUnits="userSpaceOnUse">
<stop stop-color="#0D61A9"/>
<stop offset="1" stop-color="#16528C"/>
</linearGradient>
<linearGradient id="paint6_linear_40_1061" x1="10.7076" y1="11.1838" x2="13.3652" y2="13.8414" gradientUnits="userSpaceOnUse">
<stop stop-color="#32BDEF"/>
<stop offset="1" stop-color="#1EA2E4"/>
</linearGradient>
<linearGradient id="paint7_linear_40_1061" x1="10.3876" y1="15.6195" x2="12.691" y2="21.1995" gradientUnits="userSpaceOnUse">
<stop stop-color="#32BDEF"/>
<stop offset="1" stop-color="#1EA2E4"/>
</linearGradient>
</defs>
</svg>
