<svg width="24" height="24" viewBox="0 0 24 24" fill="none" xmlns="http://www.w3.org/2000/svg">
<path d="M10 15.0355C5.5815 15.0355 2 17.496 2 20.1785V20.75C2 21.3025 2.4475 21.75 3 21.75H17C17.5525 21.75 18 21.3025 18 20.75V20.1785C18 17.496 14.4185 15.0355 10 15.0355Z" fill="url(#paint0_linear_40_1083)"/>
<path d="M12.5 16.25C12.5 17.1985 11.085 18.25 10 18.25C8.915 18.25 7.5 17.1985 7.5 16.25C7.5 14.9315 7.5 12.7325 7.5 12.7325H12.5C12.5 12.7325 12.5 14.9315 12.5 16.25Z" fill="#D6A121"/>
<path d="M14.458 8.75H14.1945V10.75H14.546C14.8035 10.75 15.023 10.594 15.0665 10.38L15.2385 9.5285C15.321 9.1215 14.9485 8.75 14.458 8.75Z" fill="url(#paint1_linear_40_1083)"/>
<path d="M5.542 8.75H5.8055V10.75H5.454C5.1965 10.75 4.977 10.594 4.9335 10.38L4.7615 9.5285C4.679 9.1215 5.0515 8.75 5.542 8.75Z" fill="url(#paint2_linear_40_1083)"/>
<path d="M10 2.95C7.7795 2.95 5.5 3.2875 5.5 8.0875C5.5 8.4715 5.5 11.026 5.5 11.4365C5.5 13.15 8.2 15.25 10 15.25C11.8 15.25 14.5 13.15 14.5 11.4365C14.5 11.026 14.5 8.472 14.5 8.0875C14.5 3.2875 12.2205 2.95 10 2.95Z" fill="url(#paint3_radial_40_1083)"/>
<path d="M10 2.52251C7.823 2.52251 7.5 3.34051 7.5 3.34051C6.615 3.47101 5 4.76751 5 6.24951C5 7.07651 5.1325 7.68751 5.5 9.74951C5.7725 6.47701 6.6245 5.24951 7.5 5.24951C8.1335 5.24951 8.6365 5.74951 10 5.74951C11.1515 5.74951 11.4375 5.24951 12.5 5.24951C14 5.24951 14.5 9.23351 14.5 9.74951C14.8005 8.24451 15 6.97201 15 6.24951C15 4.53501 13.1045 2.52251 10 2.52251Z" fill="url(#paint4_radial_40_1083)"/>
<path d="M10.1095 2.25C8.0275 2.25 7.5015 3.341 7.5015 3.341C7.4805 3.9205 7.7625 4.432 7.7625 4.432C7.7625 4.432 8.1425 5.25 10.3125 5.25C11.6225 5.25 13.5 4.4325 13.5 2.25C13.5 2.25 13.0785 2.25 10.1095 2.25Z" fill="url(#paint5_radial_40_1083)"/>
<path d="M21.5 3.25H15C14.724 3.25 14.5 3.474 14.5 3.75V10.949C14.5 11.1965 14.828 11.284 14.9515 11.07L16 9.25H21.5C21.776 9.25 22 9.026 22 8.75V3.75C22 3.474 21.776 3.25 21.5 3.25Z" fill="url(#paint6_linear_40_1083)"/>
<defs>
<linearGradient id="paint0_linear_40_1083" x1="8.9665" y1="15.0695" x2="10.321" y2="22.0105" gradientUnits="userSpaceOnUse">
<stop stop-color="#20AFB5"/>
<stop offset="1" stop-color="#16979D"/>
</linearGradient>
<linearGradient id="paint1_linear_40_1083" x1="14.4585" y1="9.75" x2="15.1255" y2="9.75" gradientUnits="userSpaceOnUse">
<stop stop-color="#C48F0C"/>
<stop offset="0.251" stop-color="#D19B16"/>
<stop offset="0.619" stop-color="#DCA51F"/>
<stop offset="1" stop-color="#E0A922"/>
</linearGradient>
<linearGradient id="paint2_linear_40_1083" x1="5.5415" y1="9.75" x2="4.8745" y2="9.75" gradientUnits="userSpaceOnUse">
<stop stop-color="#C48F0C"/>
<stop offset="0.251" stop-color="#D19B16"/>
<stop offset="0.619" stop-color="#DCA51F"/>
<stop offset="1" stop-color="#E0A922"/>
</linearGradient>
<radialGradient id="paint3_radial_40_1083" cx="0" cy="0" r="1" gradientUnits="userSpaceOnUse" gradientTransform="translate(10.0001 9.09998) scale(5.38834)">
<stop stop-color="#FFCF54"/>
<stop offset="0.261" stop-color="#FDCB4D"/>
<stop offset="0.639" stop-color="#F7C13A"/>
<stop offset="1" stop-color="#F0B421"/>
</radialGradient>
<radialGradient id="paint4_radial_40_1083" cx="0" cy="0" r="1" gradientUnits="userSpaceOnUse" gradientTransform="translate(5.72305 3.08174) scale(12.7457)">
<stop stop-color="#C26715"/>
<stop offset="0.508" stop-color="#B85515"/>
<stop offset="1" stop-color="#AD3F16"/>
</radialGradient>
<radialGradient id="paint5_radial_40_1083" cx="0" cy="0" r="1" gradientUnits="userSpaceOnUse" gradientTransform="translate(9.2829 3.93512) scale(14.0789 14.7218)">
<stop stop-color="#C26715"/>
<stop offset="0.508" stop-color="#B85515"/>
<stop offset="1" stop-color="#AD3F16"/>
</radialGradient>
<linearGradient id="paint6_linear_40_1083" x1="18.25" y1="3.314" x2="18.25" y2="11.6705" gradientUnits="userSpaceOnUse">
<stop stop-color="#33BEF0"/>
<stop offset="1" stop-color="#0A85D9"/>
</linearGradient>
</defs>
</svg>
