<svg width="24" height="24" viewBox="0 0 24 24" fill="none" xmlns="http://www.w3.org/2000/svg">
<path d="M21.0476 4.38095H2.95238C2.42619 4.38095 2 4.80714 2 5.33333V18.6667C2 19.1929 2.42619 19.619 2.95238 19.619H21.0476C21.5738 19.619 22 19.1929 22 18.6667V5.33333C22 4.80714 21.5738 4.38095 21.0476 4.38095Z" fill="url(#paint0_linear_40_1122)"/>
<path d="M8.19047 14.3809C10.2944 14.3809 12 12.6753 12 10.5714C12 8.46748 10.2944 6.7619 8.19047 6.7619C6.08653 6.7619 4.38095 8.46748 4.38095 10.5714C4.38095 12.6753 6.08653 14.3809 8.19047 14.3809Z" fill="#0370C8"/>
<path d="M8.19048 10.0952V6.79523C8.19048 6.50999 8.44048 6.2838 8.72381 6.31904C9.66381 6.43714 10.5443 6.86428 11.221 7.54095C11.8976 8.21761 12.3248 9.09809 12.4429 10.0381C12.4786 10.3214 12.2524 10.5714 11.9667 10.5714H8.66667C8.40381 10.5714 8.19048 10.3581 8.19048 10.0952Z" fill="url(#paint1_linear_40_1122)"/>
<path d="M18.9048 17.7143H12L11.5238 17.2381L12 16.7619H18.9048C19.0362 16.7619 19.1429 16.8686 19.1429 17V17.4762C19.1429 17.6076 19.0362 17.7143 18.9048 17.7143Z" fill="#0370C8"/>
<path d="M12 16.7619V17.7143H5.09523C4.96381 17.7143 4.85714 17.6076 4.85714 17.4762V17C4.85714 16.8686 4.96381 16.7619 5.09523 16.7619H12Z" fill="url(#paint2_linear_40_1122)"/>
<path d="M18.4286 8.19047H15.5714C15.1771 8.19047 14.8571 7.87047 14.8571 7.47619C14.8571 7.0819 15.1771 6.7619 15.5714 6.7619H18.4286C18.8229 6.7619 19.1429 7.0819 19.1429 7.47619C19.1429 7.87047 18.8229 8.19047 18.4286 8.19047Z" fill="url(#paint3_linear_40_1122)"/>
<path d="M18.4286 11.0476H15.5714C15.1771 11.0476 14.8571 10.7276 14.8571 10.3333C14.8571 9.93905 15.1771 9.61905 15.5714 9.61905H18.4286C18.8229 9.61905 19.1429 9.93905 19.1429 10.3333C19.1429 10.7276 18.8229 11.0476 18.4286 11.0476Z" fill="#0370C8"/>
<path d="M18.4286 13.9048H15.5714C15.1771 13.9048 14.8571 13.5848 14.8571 13.1905C14.8571 12.7962 15.1771 12.4762 15.5714 12.4762H18.4286C18.8229 12.4762 19.1429 12.7962 19.1429 13.1905C19.1429 13.5848 18.8229 13.9048 18.4286 13.9048Z" fill="#0370C8"/>
<defs>
<linearGradient id="paint0_linear_40_1122" x1="-1.99286" y1="5.54476" x2="32.4348" y2="21.4276" gradientUnits="userSpaceOnUse">
<stop stop-color="#33D7F0"/>
<stop offset="0.187" stop-color="#2FD1ED"/>
<stop offset="0.445" stop-color="#24BFE3"/>
<stop offset="0.744" stop-color="#13A2D4"/>
<stop offset="1" stop-color="#0083C4"/>
</linearGradient>
<linearGradient id="paint1_linear_40_1122" x1="8.19048" y1="8.44342" x2="12.4466" y2="8.44342" gradientUnits="userSpaceOnUse">
<stop stop-color="#FFD869"/>
<stop offset="0.765625" stop-color="#F2C032"/>
<stop offset="1" stop-color="#FFD869"/>
</linearGradient>
<linearGradient id="paint2_linear_40_1122" x1="4.85714" y1="17.2381" x2="12" y2="17.2381" gradientUnits="userSpaceOnUse">
<stop stop-color="#FFD869"/>
<stop offset="0.765625" stop-color="#F2C032"/>
<stop offset="1" stop-color="#FFD869"/>
</linearGradient>
<linearGradient id="paint3_linear_40_1122" x1="15.8066" y1="6.54908" x2="16.256" y2="8.52824" gradientUnits="userSpaceOnUse">
<stop stop-color="#FCFCFC"/>
<stop offset="0.95" stop-color="#C3C9CD"/>
</linearGradient>
</defs>
</svg>
