<svg width="24" height="24" viewBox="0 0 24 24" fill="none" xmlns="http://www.w3.org/2000/svg">
<path d="M19.4359 2H6.10259C5.53592 2 5.07695 2.45897 5.07695 3.02564V19.4358C5.07695 20.0025 5.53592 20.4615 6.10259 20.4615H19.4359C20.0025 20.4615 20.4615 20.0025 20.4615 19.4358V3.02564C20.4615 2.45897 20.0025 2 19.4359 2Z" fill="url(#paint0_linear_40_1114)"/>
<path d="M18.4102 3.02564V4.56409C18.4102 4.84717 18.1805 5.07691 17.8974 5.07691H4.05131C3.76823 5.07691 3.53849 4.84717 3.53849 4.56409V3.02564C3.53849 2.45897 3.99746 2 4.56413 2H19.4359C18.8692 2 18.4102 2.45897 18.4102 3.02564Z" fill="url(#paint1_linear_40_1114)"/>
<path d="M17.641 10.7179H7.89745C7.75591 10.7179 7.64104 10.8328 7.64104 10.9743V12C7.64104 12.1415 7.75591 12.2564 7.89745 12.2564H17.641C17.7825 12.2564 17.8974 12.1415 17.8974 12V10.9743C17.8974 10.8328 17.7825 10.7179 17.641 10.7179Z" fill="#66D7FF"/>
<path d="M17.641 7.64101H7.89745C7.75591 7.64101 7.64104 7.75588 7.64104 7.89742V8.92305C7.64104 9.06459 7.75591 9.17946 7.89745 9.17946H17.641C17.7825 9.17946 17.8974 9.06459 17.8974 8.92305V7.89742C17.8974 7.75588 17.7825 7.64101 17.641 7.64101Z" fill="#66D7FF"/>
<path d="M16.4733 21.9563L15.3333 21.1963L14.1933 21.9563C14.0231 22.0702 13.7949 21.9481 13.7949 21.743V17.0938H16.8718V21.743C16.8718 21.9481 16.6436 22.0702 16.4733 21.9563Z" fill="url(#paint2_linear_40_1114)"/>
<path d="M17.76 16.1159L17.5805 16.0082C17.5041 15.962 17.4523 15.8866 17.4292 15.801C17.4287 15.7995 17.4282 15.7979 17.4277 15.7964C17.4036 15.7097 17.4108 15.6174 17.4549 15.5389L17.5564 15.3559C17.6605 15.1687 17.5272 14.9384 17.3133 14.9348L17.102 14.9312C17.0123 14.9297 16.9297 14.8897 16.8667 14.8266C16.8661 14.8256 16.8656 14.8251 16.8646 14.8246C16.801 14.7615 16.7615 14.6784 16.76 14.5892L16.7564 14.3779C16.7528 14.1641 16.5226 14.0313 16.3354 14.1348L16.1538 14.2374C16.0749 14.281 15.9831 14.2882 15.8964 14.2646C15.8949 14.2641 15.8933 14.2636 15.8913 14.263C15.8051 14.2395 15.7297 14.1882 15.6841 14.1118L15.5764 13.9323C15.4662 13.7487 15.2005 13.7487 15.0903 13.9323L14.9831 14.1107C14.9369 14.1877 14.8605 14.24 14.7744 14.2636C14.7733 14.2641 14.7728 14.2641 14.7718 14.2646C14.6841 14.2887 14.5913 14.2815 14.5123 14.2374L14.3303 14.1364C14.1431 14.0323 13.9128 14.1656 13.9092 14.3795L13.9051 14.5902C13.9036 14.6795 13.8636 14.7625 13.8005 14.8256C13.7995 14.8261 13.799 14.8271 13.7985 14.8277C13.7354 14.8912 13.6523 14.9307 13.5631 14.9323L13.3518 14.9359C13.138 14.9395 13.0051 15.1697 13.1087 15.3569L13.2103 15.54C13.2539 15.6189 13.261 15.7107 13.2374 15.7974C13.2369 15.7989 13.2364 15.801 13.2359 15.802C13.2123 15.8882 13.1605 15.9636 13.0846 16.0092L12.9051 16.1169C12.7215 16.2271 12.7215 16.4928 12.9051 16.603L13.0846 16.7107C13.161 16.7569 13.2128 16.8323 13.2359 16.9179C13.2364 16.9194 13.2369 16.921 13.2374 16.9225C13.2615 17.0092 13.2544 17.1015 13.2103 17.18L13.1087 17.363C13.0046 17.5502 13.138 17.7805 13.3518 17.7841L13.5631 17.7876C13.6528 17.7892 13.7354 17.8292 13.7985 17.8923C13.799 17.8928 13.7995 17.8933 13.8005 17.8943C13.8641 17.9574 13.9036 18.0405 13.9051 18.1297L13.9087 18.341C13.9123 18.5548 14.1426 18.6876 14.3297 18.5841L14.5128 18.4825C14.5918 18.4389 14.6836 18.4318 14.7703 18.4553C14.7718 18.4559 14.7738 18.4559 14.7754 18.4564C14.8615 18.48 14.9369 18.5312 14.9826 18.6076L15.0903 18.7871C15.2005 18.9707 15.4662 18.9707 15.5764 18.7871L15.6841 18.6076C15.7303 18.5312 15.8056 18.4794 15.8913 18.4564C15.8928 18.4559 15.8949 18.4559 15.8964 18.4553C15.9831 18.4312 16.0754 18.4384 16.1538 18.4825L16.3369 18.5841C16.5241 18.6882 16.7544 18.5548 16.7579 18.341L16.7615 18.1297C16.7631 18.04 16.8031 17.9574 16.8661 17.8943C16.8672 17.8938 16.8677 17.8933 16.8682 17.8923C16.9313 17.8287 17.0144 17.7892 17.1036 17.7876L17.3149 17.7841C17.5287 17.7805 17.6615 17.5502 17.5579 17.363L17.4564 17.18C17.4128 17.101 17.4056 17.0092 17.4292 16.9225C17.4297 16.921 17.4297 16.9194 17.4302 16.9179C17.4538 16.8318 17.5051 16.7564 17.5815 16.7107L17.761 16.603C17.9436 16.4918 17.9436 16.2261 17.76 16.1159Z" fill="url(#paint3_linear_40_1114)"/>
<defs>
<linearGradient id="paint0_linear_40_1114" x1="12.7692" y1="20.1538" x2="12.7692" y2="3.22153" gradientUnits="userSpaceOnUse">
<stop stop-color="#199AE0"/>
<stop offset="1" stop-color="#0782D8"/>
</linearGradient>
<linearGradient id="paint1_linear_40_1114" x1="11.4872" y1="2.07436" x2="11.4872" y2="4.93281" gradientUnits="userSpaceOnUse">
<stop stop-color="#66D7FF"/>
<stop offset="1" stop-color="#42BCF1"/>
</linearGradient>
<linearGradient id="paint2_linear_40_1114" x1="14.5447" y1="17.2224" x2="15.3973" y2="22.2263" gradientUnits="userSpaceOnUse">
<stop stop-color="#ECECEC"/>
<stop offset="1" stop-color="#EDEDED"/>
</linearGradient>
<linearGradient id="paint3_linear_40_1114" x1="14.0297" y1="14.0933" x2="16.6267" y2="18.6066" gradientUnits="userSpaceOnUse">
<stop stop-color="#FFDA1C"/>
<stop offset="1" stop-color="#FEB705"/>
</linearGradient>
</defs>
</svg>
