<svg width="24" height="24" viewBox="0 0 24 24" fill="none" xmlns="http://www.w3.org/2000/svg">
<path d="M17.6098 14.6829H3.95123V20.5366H17.6098V14.6829Z" fill="url(#paint0_linear_40_1093)"/>
<path d="M5.90244 3.95122H15.6585V2.97561C15.6585 2.43707 15.2215 2 14.6829 2H6.87805C6.33952 2 5.90244 2.43707 5.90244 2.97561V3.95122Z" fill="url(#paint1_linear_40_1093)"/>
<path d="M3.95123 4.92683V14.6829H17.6098V4.92683H3.95123Z" fill="url(#paint2_linear_40_1093)"/>
<path d="M15.6585 16.6341H13.7073V18.5854H15.6585V16.6341Z" fill="#005094"/>
<path d="M12.7317 16.6341H9.31708V20.5366H12.7317V16.6341Z" fill="#005094"/>
<path d="M15.6585 10.7805H13.7073V12.7317H15.6585V10.7805Z" fill="#0D62AB"/>
<path d="M11.7561 10.7805H9.80488V12.7317H11.7561V10.7805Z" fill="#0D62AB"/>
<path d="M7.85366 6.87805H5.90244V8.82927H7.85366V6.87805Z" fill="#0D62AB"/>
<path d="M7.85366 10.7805H5.90244V12.7317H7.85366V10.7805Z" fill="#0D62AB"/>
<path d="M7.85366 16.6341H5.90244V18.5854H7.85366V16.6341Z" fill="#005094"/>
<path d="M11.7561 6.87805H9.80488V8.82927H11.7561V6.87805Z" fill="#0D62AB"/>
<path d="M15.6585 6.87805H13.7073V8.82927H15.6585V6.87805Z" fill="#0D62AB"/>
<path d="M17.6098 4.92683H3.95122C3.68147 4.92683 3.46342 4.70829 3.46342 4.43902C3.46342 4.16975 3.68147 3.95122 3.95122 3.95122H17.6098C17.8795 3.95122 18.0976 4.16975 18.0976 4.43902C18.0976 4.70829 17.8795 4.92683 17.6098 4.92683Z" fill="url(#paint3_linear_40_1093)"/>
<path d="M20.5366 21.0244V14.1951C20.5366 13.6561 20.1 13.2195 19.561 13.2195H14.6829C14.1439 13.2195 13.7073 13.6561 13.7073 14.1951V21.0244C13.7073 21.5634 14.1439 22 14.6829 22H19.561C20.1 22 20.5366 21.5634 20.5366 21.0244Z" fill="url(#paint4_linear_40_1093)"/>
<path opacity="0.05" d="M17.122 17.1219C16.0459 17.1219 15.1707 17.9971 15.1707 19.0732V19.561C15.1707 20.099 15.6083 20.5366 16.1463 20.5366H18.0976C18.6356 20.5366 19.0732 20.099 19.0732 19.561V19.0732C19.0732 17.9971 18.198 17.1219 17.122 17.1219Z" fill="black"/>
<path opacity="0.07" d="M17.122 17.3659C16.1805 17.3659 15.4146 18.1317 15.4146 19.0732V19.561C15.4146 19.9644 15.7429 20.2927 16.1463 20.2927H18.0976C18.501 20.2927 18.8293 19.9644 18.8293 19.561V19.0732C18.8293 18.1317 18.0634 17.3659 17.122 17.3659Z" fill="black"/>
<path d="M17.122 17.6098C17.9301 17.6098 18.5854 16.9545 18.5854 16.1463C18.5854 15.3381 17.9301 14.6829 17.122 14.6829C16.3138 14.6829 15.6585 15.3381 15.6585 16.1463C15.6585 16.9545 16.3138 17.6098 17.122 17.6098Z" fill="url(#paint5_radial_40_1093)"/>
<path d="M17.122 17.6098C16.3137 17.6098 15.6585 18.2649 15.6585 19.0732V19.561C15.6585 19.8302 15.8771 20.0488 16.1463 20.0488H18.0976C18.3668 20.0488 18.5854 19.8302 18.5854 19.561V19.0732C18.5854 18.2649 17.9302 17.6098 17.122 17.6098Z" fill="white"/>
<path d="M17.122 17.122C17.6608 17.122 18.0976 16.6852 18.0976 16.1463C18.0976 15.6075 17.6608 15.1707 17.122 15.1707C16.5831 15.1707 16.1463 15.6075 16.1463 16.1463C16.1463 16.6852 16.5831 17.122 17.122 17.122Z" fill="white"/>
<defs>
<linearGradient id="paint0_linear_40_1093" x1="6.97716" y1="13.8109" x2="9.27132" y2="21.669" gradientUnits="userSpaceOnUse">
<stop stop-color="#FCFCFC"/>
<stop offset="0.95" stop-color="#C3C9CD"/>
</linearGradient>
<linearGradient id="paint1_linear_40_1093" x1="8.06383" y1="1.70932" x2="8.44405" y2="4.50015" gradientUnits="userSpaceOnUse">
<stop stop-color="#FCFCFC"/>
<stop offset="0.95" stop-color="#C3C9CD"/>
</linearGradient>
<linearGradient id="paint2_linear_40_1093" x1="6.97716" y1="3.47344" x2="12.5691" y2="14.9657" gradientUnits="userSpaceOnUse">
<stop stop-color="#FCFCFC"/>
<stop offset="0.95" stop-color="#C3C9CD"/>
</linearGradient>
<linearGradient id="paint3_linear_40_1093" x1="8.54366" y1="3.99388" x2="8.55457" y2="5.05699" gradientUnits="userSpaceOnUse">
<stop stop-color="#0D61A9"/>
<stop offset="1" stop-color="#16528C"/>
</linearGradient>
<linearGradient id="paint4_linear_40_1093" x1="15.8605" y1="13.3543" x2="20.764" y2="20.7077" gradientUnits="userSpaceOnUse">
<stop stop-color="#7DD8F3"/>
<stop offset="1" stop-color="#45B0D0"/>
</linearGradient>
<radialGradient id="paint5_radial_40_1093" cx="0" cy="0" r="1" gradientUnits="userSpaceOnUse" gradientTransform="translate(17.1212 16.1458) scale(1.46336)">
<stop/>
<stop offset="1" stop-opacity="0"/>
</radialGradient>
</defs>
</svg>
