<svg width="24" height="24" viewBox="0 0 24 24" fill="none" xmlns="http://www.w3.org/2000/svg">
<path d="M18.9465 12.8696C18.9422 12.8696 18.9383 12.8696 18.9339 12.8696C18.6939 12.8626 18.5048 12.6622 18.5117 12.4226C18.5135 12.3522 18.5148 12.2817 18.5148 12.2109C18.5148 8.61827 15.5922 5.69566 12 5.69566C8.40782 5.69566 5.48521 8.61827 5.48521 12.2104C5.48521 12.2813 5.48652 12.3517 5.48826 12.4222C5.49521 12.6622 5.30608 12.8622 5.06608 12.8696C4.83521 12.8596 4.62608 12.6874 4.61912 12.447C4.61695 12.3687 4.61565 12.29 4.61565 12.2104C4.61565 8.1387 7.92826 4.8261 12 4.8261C16.0717 4.8261 19.3843 8.1387 19.3843 12.2104C19.3843 12.29 19.383 12.3678 19.3809 12.447C19.3739 12.6826 19.1809 12.8696 18.9465 12.8696Z" fill="#ABB4BE"/>
<path d="M20.0435 5.91305H3.52174C3.28174 5.91305 3.08696 5.7187 3.08696 5.47827C3.08696 5.23784 3.28174 5.04349 3.52174 5.04349H20.0435C20.2835 5.04349 20.4783 5.23784 20.4783 5.47827C20.4783 5.7187 20.2835 5.91305 20.0435 5.91305Z" fill="#ABB4BE"/>
<path d="M13.3043 7.65218H10.6956C10.2174 7.65218 9.82608 7.26087 9.82608 6.78261V4.17392C9.82608 3.69566 10.2174 3.30435 10.6956 3.30435H13.3043C13.7826 3.30435 14.1739 3.69566 14.1739 4.17392V6.78261C14.1739 7.26087 13.7826 7.65218 13.3043 7.65218Z" fill="url(#paint0_linear_40_1180)"/>
<path d="M20.2609 16.7826H17.6522C17.1739 16.7826 16.7826 16.3913 16.7826 15.913V13.3043C16.7826 12.8261 17.1739 12.4348 17.6522 12.4348H20.2609C20.7391 12.4348 21.1304 12.8261 21.1304 13.3043V15.913C21.1304 16.3913 20.7391 16.7826 20.2609 16.7826Z" fill="url(#paint1_linear_40_1180)"/>
<path d="M6.34783 16.7826H3.73913C3.26087 16.7826 2.86957 16.3913 2.86957 15.913V13.3043C2.86957 12.8261 3.26087 12.4348 3.73913 12.4348H6.34783C6.82609 12.4348 7.21739 12.8261 7.21739 13.3043V15.913C7.21739 16.3913 6.82609 16.7826 6.34783 16.7826Z" fill="url(#paint2_linear_40_1180)"/>
<path d="M20.6956 6.78262C21.416 6.78262 22 6.19864 22 5.47827C22 4.75789 21.416 4.17392 20.6956 4.17392C19.9753 4.17392 19.3913 4.75789 19.3913 5.47827C19.3913 6.19864 19.9753 6.78262 20.6956 6.78262Z" fill="url(#paint3_linear_40_1180)"/>
<path d="M3.30435 6.78262C4.02472 6.78262 4.6087 6.19864 4.6087 5.47827C4.6087 4.75789 4.02472 4.17392 3.30435 4.17392C2.58397 4.17392 2 4.75789 2 5.47827C2 6.19864 2.58397 6.78262 3.30435 6.78262Z" fill="url(#paint4_linear_40_1180)"/>
<path d="M13.3044 18.3044H10.6957C10.6957 16.5487 9.14131 15.3091 9.12696 15.2987C8.95913 15.1713 8.90566 14.9417 9.00087 14.7539L11.6122 9.6287C11.687 9.48305 11.8365 9.39131 12 9.39131C12.1635 9.39131 12.3135 9.48305 12.3874 9.62914L14.9961 14.7544C15.0922 14.9426 15.0387 15.1726 14.8691 15.2996C14.8561 15.3091 13.3044 16.5487 13.3044 18.3044Z" fill="url(#paint5_linear_40_1180)"/>
<path d="M12.4348 14.2944V9.82609C12.4348 9.58609 12.24 9.39131 12 9.39131C11.76 9.39131 11.5652 9.58609 11.5652 9.82609V14.2944C11.3065 14.4448 11.1304 14.7222 11.1304 15.0435C11.1304 15.5239 11.5196 15.9131 12 15.9131C12.4804 15.9131 12.8696 15.5239 12.8696 15.0435C12.8696 14.7226 12.6935 14.4452 12.4348 14.2944Z" fill="url(#paint6_linear_40_1180)"/>
<path opacity="0.05" d="M10.6239 17.6522C10.6691 17.86 10.6956 18.0778 10.6956 18.3043H13.3043C13.3043 18.0778 13.3309 17.86 13.3761 17.6522H10.6239Z" fill="black"/>
<path opacity="0.05" d="M10.66 17.8696C10.6809 18.0109 10.6957 18.1548 10.6957 18.3044H13.3044C13.3044 18.1548 13.3191 18.0109 13.34 17.8696H10.66Z" fill="black"/>
<path d="M13.3709 18.087H10.6291C10.4165 18.087 10.2352 18.2404 10.2004 18.4504L9.82608 20.6957H14.1739L13.7996 18.4504C13.7648 18.2404 13.5835 18.087 13.3709 18.087Z" fill="url(#paint7_linear_40_1180)"/>
<defs>
<linearGradient id="paint0_linear_40_1180" x1="11.3848" y1="3.18305" x2="12.5426" y2="7.50392" gradientUnits="userSpaceOnUse">
<stop stop-color="#2AA4F4"/>
<stop offset="1" stop-color="#007AD9"/>
</linearGradient>
<linearGradient id="paint1_linear_40_1180" x1="18.3417" y1="12.3135" x2="19.4991" y2="16.6343" gradientUnits="userSpaceOnUse">
<stop stop-color="#2AA4F4"/>
<stop offset="1" stop-color="#007AD9"/>
</linearGradient>
<linearGradient id="paint2_linear_40_1180" x1="4.42826" y1="12.3135" x2="5.58609" y2="16.6343" gradientUnits="userSpaceOnUse">
<stop stop-color="#2AA4F4"/>
<stop offset="1" stop-color="#007AD9"/>
</linearGradient>
<linearGradient id="paint3_linear_40_1180" x1="19.8309" y1="4.61348" x2="21.6574" y2="6.44001" gradientUnits="userSpaceOnUse">
<stop stop-color="#33BEF0"/>
<stop offset="1" stop-color="#0A85D9"/>
</linearGradient>
<linearGradient id="paint4_linear_40_1180" x1="2.43957" y1="4.61348" x2="4.26609" y2="6.44001" gradientUnits="userSpaceOnUse">
<stop stop-color="#33BEF0"/>
<stop offset="1" stop-color="#0A85D9"/>
</linearGradient>
<linearGradient id="paint5_linear_40_1180" x1="-0.385215" y1="13.8478" x2="15.3344" y2="13.8478" gradientUnits="userSpaceOnUse">
<stop stop-color="#E36001"/>
<stop offset="1" stop-color="#FED100"/>
</linearGradient>
<linearGradient id="paint6_linear_40_1180" x1="12" y1="15.9131" x2="12" y2="2.24044" gradientUnits="userSpaceOnUse">
<stop stop-color="#C18310"/>
<stop offset="1" stop-color="#EBA601"/>
</linearGradient>
<linearGradient id="paint7_linear_40_1180" x1="10.4165" y1="18.1196" x2="13.5835" y2="21.2861" gradientUnits="userSpaceOnUse">
<stop stop-color="#F44F5A"/>
<stop offset="0.443" stop-color="#EE3D4A"/>
<stop offset="1" stop-color="#E52030"/>
</linearGradient>
</defs>
</svg>
