<svg width="24" height="24" viewBox="0 0 24 24" fill="none" xmlns="http://www.w3.org/2000/svg">
<path d="M18.1903 4.85727H2.95237C2.42619 4.85727 2 5.28346 2 5.80964V21.0476C2 21.5738 2.42619 22 2.95237 22H18.1903C18.7165 22 19.1427 21.5738 19.1427 21.0476V5.80964C19.1427 5.28346 18.7165 4.85727 18.1903 4.85727Z" fill="url(#paint0_linear_40_1155)"/>
<path opacity="0.05" d="M19.1427 5.80964C19.1427 5.28346 18.7165 4.85727 18.1903 4.85727H16.338L8.10091 13.0962C8.03614 13.161 7.98995 13.2424 7.96757 13.3315L7.16282 16.5253C7.1152 16.7134 7.28615 16.8843 7.47424 16.8367L10.6685 16.0329C10.7575 16.0105 10.839 15.9643 10.9042 15.8991L19.1427 7.65915V5.80964Z" fill="black"/>
<path opacity="0.07" d="M19.1427 5.80964C19.1427 5.28346 18.7165 4.85727 18.1903 4.85727H16.6746L8.29804 13.2358C8.2447 13.2891 8.20661 13.3558 8.18851 13.4291L7.47233 16.2719C7.43328 16.4267 7.57376 16.5667 7.72804 16.5276L10.5709 15.8119C10.6442 15.7934 10.7109 15.7557 10.7642 15.7024L19.1427 7.32249V5.80964Z" fill="black"/>
<path d="M21.8432 3.52918L20.4708 2.15681C20.2622 1.94777 19.9222 1.94777 19.7132 2.15681L19.0675 2.80348L21.197 4.93298L21.8436 4.28727C22.0522 4.07775 22.0522 3.73871 21.8432 3.52918Z" fill="#C94F60"/>
<path d="M8.43042 13.44L7.71423 16.2857L10.5604 15.5691L10.859 13.1001L8.43042 13.44Z" fill="#F0F0F0"/>
<path d="M19.3803 6.74868L10.5609 15.5686L8.43138 13.4391L17.2508 4.61917L19.3803 6.74868Z" fill="url(#paint1_linear_40_1155)"/>
<path d="M17.2489 4.61965L19.0651 2.80252L21.196 4.93202L19.3799 6.74915L17.2489 4.61965Z" fill="url(#paint2_linear_40_1155)"/>
<path d="M8.07709 14.8467L7.71423 16.2857L9.15279 15.9229L8.07709 14.8467Z" fill="#575757"/>
<defs>
<linearGradient id="paint0_linear_40_1155" x1="2" y1="13.4286" x2="19.1427" y2="13.4286" gradientUnits="userSpaceOnUse">
<stop stop-color="#33BEF0"/>
<stop offset="1" stop-color="#0A85D9"/>
</linearGradient>
<linearGradient id="paint1_linear_40_1155" x1="8.43138" y1="10.0939" x2="19.3803" y2="10.0939" gradientUnits="userSpaceOnUse">
<stop stop-color="#FFD869"/>
<stop offset="0.765625" stop-color="#F2C032"/>
<stop offset="1" stop-color="#FFD869"/>
</linearGradient>
<linearGradient id="paint2_linear_40_1155" x1="19.2227" y1="2.93728" x2="19.2227" y2="6.85772" gradientUnits="userSpaceOnUse">
<stop stop-color="#DEDEDE"/>
<stop offset="1" stop-color="#D6D6D6"/>
</linearGradient>
</defs>
</svg>
