<svg width="24" height="24" viewBox="0 0 24 24" fill="none" xmlns="http://www.w3.org/2000/svg">
<path d="M12 5.88575C12 4.7603 12.9126 3.84767 14.0381 3.84767C15.0734 3.84767 15.9191 4.62257 16.0496 5.6223C17.6504 5.91321 18.8651 7.31155 18.8651 8.99651C18.8651 9.11622 18.8587 9.23421 18.8471 9.35092C19.6507 10.1305 20.1523 11.2204 20.1523 12.4291C20.1523 13.6395 19.649 14.731 18.8428 15.5111C18.8565 15.6261 18.8651 15.7428 18.8651 15.8616C18.8651 17.4342 17.6556 18.7227 16.1165 18.8522C15.7883 19.6164 15.0297 20.1523 14.1453 20.1523C12.9607 20.1523 12 19.1916 12 18.007C12 17.8426 12 6.18095 12 5.88575Z" fill="url(#paint0_linear_40_1194)"/>
<path d="M12 5.88575C12 4.7603 11.0874 3.84767 9.96192 3.84767C8.92657 3.84767 8.08087 4.62257 7.95044 5.6223C6.34958 5.91321 5.13488 7.31155 5.13488 8.99651C5.13488 9.11622 5.14132 9.23421 5.1529 9.35092C4.34925 10.1305 3.84767 11.2204 3.84767 12.4291C3.84767 13.6395 4.35097 14.731 5.15719 15.5111C5.14346 15.6261 5.13488 15.7428 5.13488 15.8616C5.13488 17.4342 6.34443 18.7227 7.8835 18.8522C8.21174 19.6164 8.97034 20.1523 9.85465 20.1523C11.0393 20.1523 12 19.1916 12 18.007C12 17.8426 12 6.18095 12 5.88575Z" fill="url(#paint1_linear_40_1194)"/>
<path d="M12 15.8616C12 16.546 11.5559 16.9725 11.0526 17.1046C10.8565 17.1561 10.7128 17.3205 10.7128 17.523C10.7128 17.8092 10.9861 18.0091 11.2633 17.9383C12.1914 17.7011 12.8581 16.8738 12.8581 15.8616H12Z" fill="url(#paint2_linear_40_1194)"/>
<path d="M9.04929 9.85466H9.05015C9.25224 9.85466 9.41743 9.70964 9.46592 9.51355C9.58606 9.02699 9.96106 8.71934 10.3755 8.61122C10.5699 8.56016 10.7128 8.39668 10.7128 8.19588V8.08518C10.7128 7.88309 10.5678 7.71789 10.3717 7.66941C9.88512 7.54927 9.57747 7.17426 9.46935 6.75978C9.41829 6.56498 9.25481 6.4221 9.05401 6.4221H9.04929C8.76825 6.4221 8.56487 6.68899 8.63438 6.96144C8.75666 7.44243 9.04028 7.85219 9.42344 8.13838C9.03985 8.42414 8.75666 8.8339 8.63438 9.31532C8.56487 9.58778 8.76825 9.85466 9.04929 9.85466Z" fill="url(#paint3_linear_40_1194)"/>
<path d="M9.8169 12C9.60537 12 9.43289 12.1575 9.39427 12.3656C9.27456 13.0126 8.83348 13.2649 8.43315 13.2829C7.97877 13.0662 7.46517 12.9272 6.89451 12.8779C6.64222 12.8564 6.4221 13.0525 6.4221 13.3057C6.4221 13.5232 6.58515 13.7141 6.80226 13.73C7.98907 13.8175 8.82833 14.3281 9.30459 15.2519C9.40199 15.4403 9.63155 15.5184 9.82935 15.4424C10.0705 15.3497 10.1752 15.0644 10.0538 14.8362C9.85938 14.471 9.61481 14.1544 9.32733 13.8862C9.76928 13.6279 10.1275 13.1709 10.2438 12.49C10.2876 12.233 10.0773 12 9.8169 12Z" fill="url(#paint4_linear_40_1194)"/>
<path d="M15.9959 9.85036C15.596 9.83234 15.155 9.58005 15.0348 8.93301C14.9966 8.72491 14.8241 8.56744 14.6122 8.56744C14.3517 8.56744 14.1411 8.80043 14.1848 9.05701C14.3011 9.73752 14.6594 10.1945 15.1009 10.4536C14.8138 10.7218 14.5693 11.0385 14.3749 11.404C14.2535 11.6319 14.3582 11.9172 14.5993 12.0103C14.7971 12.0867 15.0267 12.0086 15.1241 11.8198C15.6008 10.896 16.44 10.385 17.6268 10.2975C17.8439 10.2811 18.007 10.0906 18.007 9.8731C18.007 9.61995 17.7869 9.42387 17.5346 9.44575C16.9639 9.49466 16.4503 9.63368 15.9959 9.85036Z" fill="url(#paint5_linear_40_1194)"/>
<path d="M12 11.5709H11.1419C11.1419 12.5831 11.8086 13.4104 12.7367 13.6476C13.0139 13.7189 13.2872 13.5185 13.2872 13.2323C13.2872 13.0298 13.1435 12.8654 12.9474 12.814C12.4441 12.6818 12 12.2553 12 11.5709Z" fill="url(#paint6_linear_40_1194)"/>
<path d="M15.3772 14.5744C15.1751 14.5744 15.0108 14.7177 14.9597 14.9134C14.8512 15.327 14.544 15.7012 14.0578 15.8213C13.8613 15.8698 13.7163 16.035 13.7163 16.2375V16.3482C13.7163 16.5494 13.8592 16.7129 14.0535 16.7635C14.468 16.8717 14.8426 17.1789 14.9632 17.6654C15.0116 17.8619 15.1773 18.007 15.3794 18.007C15.6608 18.007 15.8642 17.7397 15.7947 17.4672C15.6724 16.9862 15.3888 16.5765 15.0056 16.2907C15.3884 16.0054 15.6711 15.5965 15.7943 15.1168C15.8642 14.843 15.6595 14.5744 15.3772 14.5744Z" fill="url(#paint7_linear_40_1194)"/>
<path d="M20.4557 3.54431C20.2879 3.37655 20.0163 3.37655 19.849 3.54431C19.7653 3.62798 19.0745 4.31878 18.9908 4.40245C18.8231 4.57022 18.8231 4.84182 18.9908 5.00916C19.1586 5.17692 19.4302 5.17692 19.5975 5.00916C19.6812 4.92549 20.372 4.23469 20.4557 4.15102C20.6234 3.98368 20.6234 3.71165 20.4557 3.54431Z" fill="#FFD000"/>
<path d="M17.5453 2.03271C17.3265 1.94218 17.0755 2.04601 16.9845 2.26484C16.939 2.37425 16.5653 3.27658 16.5203 3.38599C16.4297 3.60482 16.5336 3.85583 16.7524 3.94679C16.9712 4.03732 17.2222 3.93349 17.3132 3.71466C17.3587 3.60525 17.7324 2.70292 17.7774 2.5935C17.868 2.37425 17.7641 2.12324 17.5453 2.03271Z" fill="#FFD000"/>
<path d="M21.7897 6.4547C21.6991 6.23587 21.4481 6.13161 21.2289 6.22257C21.1195 6.26805 20.2171 6.64177 20.1077 6.68682C19.8889 6.77736 19.7846 7.02836 19.8756 7.24762C19.9661 7.46644 20.2171 7.57071 20.4364 7.47974C20.5458 7.43426 21.4481 7.06054 21.5575 7.01549C21.7764 6.92453 21.8806 6.67352 21.7897 6.4547Z" fill="#FFD000"/>
<path d="M3.54433 3.54431C3.37656 3.71208 3.37656 3.98368 3.54433 4.15102C3.628 4.23469 4.3188 4.92549 4.40247 5.00916C4.57023 5.17692 4.84183 5.17692 5.00917 5.00916C5.17694 4.84139 5.17694 4.56979 5.00917 4.40245C4.9255 4.31878 4.2347 3.62798 4.15103 3.54431C3.98369 3.37655 3.71166 3.37655 3.54433 3.54431Z" fill="#FFD000"/>
<path d="M2.03271 6.4547C1.94218 6.67353 2.04601 6.92453 2.26484 7.01549C2.37425 7.06098 3.27658 7.4347 3.38599 7.47975C3.60482 7.57028 3.85582 7.46645 3.94679 7.24762C4.03732 7.0288 3.93348 6.77779 3.71466 6.68683C3.60525 6.64135 2.70291 6.26763 2.5935 6.22257C2.37425 6.13204 2.12324 6.23588 2.03271 6.4547Z" fill="#FFD000"/>
<path d="M6.4547 2.21035C6.23587 2.30088 6.13161 2.55189 6.22257 2.77114C6.26805 2.88056 6.64177 3.78289 6.68682 3.8923C6.77736 4.11113 7.02836 4.21539 7.24762 4.12443C7.46644 4.03389 7.57071 3.78289 7.47975 3.56363C7.43426 3.45422 7.06054 2.55189 7.01549 2.44247C6.92453 2.22365 6.67352 2.11939 6.4547 2.21035Z" fill="#FFD000"/>
<path d="M3.54433 20.4557C3.71209 20.6234 3.98369 20.6234 4.15103 20.4557C4.2347 20.372 4.9255 19.6812 5.00917 19.5975C5.17694 19.4298 5.17694 19.1582 5.00917 18.9908C4.84141 18.8231 4.5698 18.8231 4.40247 18.9908C4.3188 19.0745 3.628 19.7653 3.54433 19.849C3.37656 20.0163 3.37656 20.2883 3.54433 20.4557Z" fill="#FFD000"/>
<path d="M6.4547 21.9673C6.67353 22.0578 6.92453 21.954 7.01549 21.7352C7.06098 21.6257 7.4347 20.7234 7.47975 20.614C7.57028 20.3952 7.46645 20.1442 7.24762 20.0532C7.0288 19.9627 6.77779 20.0665 6.68683 20.2853C6.64135 20.3947 6.26763 21.2971 6.22257 21.4065C6.13204 21.6257 6.23588 21.8767 6.4547 21.9673Z" fill="#FFD000"/>
<path d="M2.21035 17.5453C2.30088 17.7641 2.55189 17.8684 2.77115 17.7774C2.88056 17.7319 3.78289 17.3582 3.8923 17.3132C4.11113 17.2226 4.21539 16.9716 4.12443 16.7524C4.0339 16.5336 3.78289 16.4293 3.56364 16.5203C3.45422 16.5657 2.55189 16.9395 2.44247 16.9845C2.22365 17.0755 2.11939 17.3265 2.21035 17.5453Z" fill="#FFD000"/>
<path d="M20.4557 20.4557C20.6234 20.2879 20.6234 20.0163 20.4557 19.849C20.372 19.7653 19.6812 19.0745 19.5975 18.9908C19.4298 18.8231 19.1582 18.8231 18.9908 18.9908C18.8231 19.1586 18.8231 19.4302 18.9908 19.5975C19.0745 19.6812 19.7653 20.372 19.849 20.4557C20.0163 20.6234 20.2883 20.6234 20.4557 20.4557Z" fill="#FFD000"/>
<path d="M21.9673 17.5453C22.0578 17.3265 21.954 17.0755 21.7352 16.9845C21.6257 16.939 20.7234 16.5653 20.614 16.5202C20.3952 16.4297 20.1442 16.5335 20.0532 16.7524C19.9627 16.9712 20.0665 17.2222 20.2853 17.3132C20.3947 17.3586 21.2971 17.7324 21.4065 17.7774C21.6257 17.868 21.8768 17.7641 21.9673 17.5453Z" fill="#FFD000"/>
<path d="M17.5453 21.7897C17.7641 21.6991 17.8684 21.4481 17.7774 21.2289C17.7319 21.1194 17.3582 20.2171 17.3132 20.1077C17.2226 19.8889 16.9716 19.7846 16.7524 19.8756C16.5336 19.9661 16.4293 20.2171 16.5203 20.4364C16.5657 20.5458 16.9395 21.4481 16.9845 21.5575C17.0755 21.7764 17.3265 21.8806 17.5453 21.7897Z" fill="#FFD000"/>
<defs>
<linearGradient id="paint0_linear_40_1194" x1="11.6143" y1="3.1101" x2="17.6405" y2="19.2019" gradientUnits="userSpaceOnUse">
<stop stop-color="#FF6181"/>
<stop offset="1" stop-color="#C41F40"/>
</linearGradient>
<linearGradient id="paint1_linear_40_1194" x1="6.44354" y1="4.60112" x2="11.7061" y2="21.4112" gradientUnits="userSpaceOnUse">
<stop stop-color="#FFA1A6"/>
<stop offset="1" stop-color="#F24472"/>
</linearGradient>
<linearGradient id="paint2_linear_40_1194" x1="7.02409" y1="4.80751" x2="13.6275" y2="21.3481" gradientUnits="userSpaceOnUse">
<stop stop-color="#FF6181"/>
<stop offset="1" stop-color="#C41F40"/>
</linearGradient>
<linearGradient id="paint3_linear_40_1194" x1="8.05514" y1="4.71913" x2="14.1728" y2="20.0438" gradientUnits="userSpaceOnUse">
<stop stop-color="#FF6181"/>
<stop offset="1" stop-color="#C41F40"/>
</linearGradient>
<linearGradient id="paint4_linear_40_1194" x1="5.54637" y1="5.87932" x2="11.876" y2="21.7343" gradientUnits="userSpaceOnUse">
<stop stop-color="#FF6181"/>
<stop offset="1" stop-color="#C41F40"/>
</linearGradient>
<linearGradient id="paint5_linear_40_1194" x1="12.384" y1="2.52443" x2="19.1934" y2="17.3192" gradientUnits="userSpaceOnUse">
<stop stop-color="#FFA1A6"/>
<stop offset="1" stop-color="#F24472"/>
</linearGradient>
<linearGradient id="paint6_linear_40_1194" x1="8.33703" y1="4.17421" x2="15.2923" y2="19.2856" gradientUnits="userSpaceOnUse">
<stop stop-color="#FFA1A6"/>
<stop offset="1" stop-color="#F24472"/>
</linearGradient>
<linearGradient id="paint7_linear_40_1194" x1="9.5144" y1="4.27374" x2="16.3688" y2="19.1668" gradientUnits="userSpaceOnUse">
<stop stop-color="#FFA1A6"/>
<stop offset="1" stop-color="#F24472"/>
</linearGradient>
</defs>
</svg>
