<svg width="24" height="24" viewBox="0 0 24 24" fill="none" xmlns="http://www.w3.org/2000/svg">
<path d="M19.8804 3.52174H3.25C2.55957 3.52174 2 4.08131 2 4.77174V15.3152C2 16.0057 2.55957 16.5652 3.25 16.5652H19.8804C20.5709 16.5652 21.1304 16.0057 21.1304 15.3152V4.77174C21.1304 4.08131 20.5709 3.52174 19.8804 3.52174Z" fill="url(#paint0_linear_40_1216)"/>
<path d="M5.91304 10.0435C5.91304 10.2835 5.71826 10.4783 5.47826 10.4783H3.73913C3.49913 10.4783 3.30434 10.2835 3.30434 10.0435C3.30434 9.80349 3.49913 9.6087 3.73913 9.6087H5.47826C5.71826 9.6087 5.91304 9.80349 5.91304 10.0435Z" fill="url(#paint1_linear_40_1216)"/>
<path d="M9.3913 10.0435C9.3913 10.2835 9.19652 10.4783 8.95652 10.4783H7.21739C6.97739 10.4783 6.78261 10.2835 6.78261 10.0435C6.78261 9.80349 6.97739 9.6087 7.21739 9.6087H8.95652C9.19652 9.6087 9.3913 9.80349 9.3913 10.0435Z" fill="url(#paint2_linear_40_1216)"/>
<path d="M12.8696 10.0435C12.8696 10.2835 12.6748 10.4783 12.4348 10.4783H10.6957C10.4557 10.4783 10.2609 10.2835 10.2609 10.0435C10.2609 9.80349 10.4557 9.6087 10.6957 9.6087H12.4348C12.6748 9.6087 12.8696 9.80349 12.8696 10.0435Z" fill="url(#paint3_linear_40_1216)"/>
<path d="M16.3478 10.0435C16.3478 10.2835 16.153 10.4783 15.913 10.4783H14.1739C13.9339 10.4783 13.7391 10.2835 13.7391 10.0435C13.7391 9.80349 13.9339 9.6087 14.1739 9.6087H15.913C16.153 9.6087 16.3478 9.80349 16.3478 10.0435Z" fill="url(#paint4_linear_40_1216)"/>
<path d="M19.8261 10.0435C19.8261 10.2835 19.6313 10.4783 19.3913 10.4783H17.6522C17.4122 10.4783 17.2174 10.2835 17.2174 10.0435C17.2174 9.80349 17.4122 9.6087 17.6522 9.6087H19.3913C19.6313 9.6087 19.8261 9.80349 19.8261 10.0435Z" fill="url(#paint5_linear_40_1216)"/>
<path d="M16.7883 8.30436H19.3856C19.6287 8.30436 19.8261 8.10697 19.8261 7.86392V5.70131C19.8261 5.45827 19.6287 5.26088 19.3856 5.26088H16.7883C16.5452 5.26088 16.3478 5.45827 16.3478 5.70131V7.86392C16.3478 8.10697 16.5452 8.30436 16.7883 8.30436Z" fill="#BBD2DE"/>
<path d="M7 13.087H3.52174C3.40174 13.087 3.30434 12.9896 3.30434 12.8696V12.4348C3.30434 12.3148 3.40174 12.2174 3.52174 12.2174H7C7.12 12.2174 7.21739 12.3148 7.21739 12.4348V12.8696C7.21739 12.9896 7.12 13.087 7 13.087Z" fill="#0078D4"/>
<path d="M11.7826 13.087H8.30435C8.18435 13.087 8.08696 12.9896 8.08696 12.8696V12.4348C8.08696 12.3148 8.18435 12.2174 8.30435 12.2174H11.7826C11.9026 12.2174 12 12.3148 12 12.4348V12.8696C12 12.9896 11.9026 13.087 11.7826 13.087Z" fill="#0078D4"/>
<path d="M9.60869 14.8261H3.52174C3.40174 14.8261 3.30434 14.7287 3.30434 14.6087V14.1739C3.30434 14.0539 3.40174 13.9565 3.52174 13.9565H9.60869C9.72869 13.9565 9.82608 14.0539 9.82608 14.1739V14.6087C9.82608 14.7287 9.72869 14.8261 9.60869 14.8261Z" fill="#0078D4"/>
<path opacity="0.05" d="M12.4348 13.087C11.9552 13.087 11.5652 13.477 11.5652 13.9565V16.5652H19.8804C20.5709 16.5652 21.1304 16.0057 21.1304 15.3152V13.087H12.4348Z" fill="black"/>
<path opacity="0.07" d="M12.4348 13.3044C12.0752 13.3044 11.7826 13.597 11.7826 13.9565V16.5652H19.8804C20.5709 16.5652 21.1304 16.0057 21.1304 15.3152V13.3044H12.4348Z" fill="black"/>
<path d="M12.8696 20.4783H12.4348C12.1948 20.4783 12 20.2835 12 20.0435V19.1465H12.8696V20.4783Z" fill="#52BF8D"/>
<path d="M21.1304 13.5217H12.8696V18.7391H21.1304V13.5217Z" fill="#33C481"/>
<path d="M12.8696 19.6087H12.4348C12.1948 19.6087 12 19.4139 12 19.1739V18.2143H12.8696V19.6087Z" fill="#59D19A"/>
<path d="M12.8696 18.7391H12.4348C12.1948 18.7391 12 18.5444 12 18.3044V13.9565C12 13.7165 12.1948 13.5217 12.4348 13.5217H12.8696V18.7391Z" fill="#61E3A7"/>
<path d="M21.1304 18.7391H12.8696V19.6087H21.1304V18.7391Z" fill="#21A366"/>
<path d="M21.1304 19.6087H12.8696V20.4783H21.1304V19.6087Z" fill="url(#paint6_linear_40_1216)"/>
<path d="M15.4783 17.8696C16.4388 17.8696 17.2174 17.091 17.2174 16.1304C17.2174 15.1699 16.4388 14.3913 15.4783 14.3913C14.5177 14.3913 13.7391 15.1699 13.7391 16.1304C13.7391 17.091 14.5177 17.8696 15.4783 17.8696Z" fill="#61E3A7"/>
<path d="M18.087 17.8696C18.327 17.8696 18.5217 17.6749 18.5217 17.4348C18.5217 17.1947 18.327 17 18.087 17C17.8469 17 17.6522 17.1947 17.6522 17.4348C17.6522 17.6749 17.8469 17.8696 18.087 17.8696Z" fill="#61E3A7"/>
<path d="M19.8261 17.8696C20.0662 17.8696 20.2609 17.6749 20.2609 17.4348C20.2609 17.1947 20.0662 17 19.8261 17C19.586 17 19.3913 17.1947 19.3913 17.4348C19.3913 17.6749 19.586 17.8696 19.8261 17.8696Z" fill="#61E3A7"/>
<path d="M21.5652 20.4783H21.1304V19.1465H22V20.0435C22 20.2835 21.8052 20.4783 21.5652 20.4783Z" fill="#52BF8D"/>
<path d="M21.5652 19.6087H21.1304V18.2143H22V19.1739C22 19.4139 21.8052 19.6087 21.5652 19.6087Z" fill="#59D19A"/>
<path d="M21.5652 18.7391H21.1304V13.5217H21.5652C21.8052 13.5217 22 13.7165 22 13.9565V18.3044C22 18.5444 21.8052 18.7391 21.5652 18.7391Z" fill="#61E3A7"/>
<defs>
<linearGradient id="paint0_linear_40_1216" x1="9.98913" y1="4.41783" x2="13.6296" y2="17.4113" gradientUnits="userSpaceOnUse">
<stop stop-color="#32BDEF"/>
<stop offset="1" stop-color="#1EA2E4"/>
</linearGradient>
<linearGradient id="paint1_linear_40_1216" x1="3.44087" y1="10.5257" x2="5.45261" y2="9.69523" gradientUnits="userSpaceOnUse">
<stop stop-color="#5BC8EF"/>
<stop offset="1" stop-color="#42BEFC"/>
</linearGradient>
<linearGradient id="paint2_linear_40_1216" x1="6.91913" y1="10.5257" x2="8.93087" y2="9.69523" gradientUnits="userSpaceOnUse">
<stop stop-color="#5BC8EF"/>
<stop offset="1" stop-color="#42BEFC"/>
</linearGradient>
<linearGradient id="paint3_linear_40_1216" x1="10.3974" y1="10.5257" x2="12.4091" y2="9.69523" gradientUnits="userSpaceOnUse">
<stop stop-color="#5BC8EF"/>
<stop offset="1" stop-color="#42BEFC"/>
</linearGradient>
<linearGradient id="paint4_linear_40_1216" x1="13.8756" y1="10.5257" x2="15.8874" y2="9.69523" gradientUnits="userSpaceOnUse">
<stop stop-color="#5BC8EF"/>
<stop offset="1" stop-color="#42BEFC"/>
</linearGradient>
<linearGradient id="paint5_linear_40_1216" x1="17.3539" y1="10.5257" x2="19.3657" y2="9.69523" gradientUnits="userSpaceOnUse">
<stop stop-color="#5BC8EF"/>
<stop offset="1" stop-color="#42BEFC"/>
</linearGradient>
<linearGradient id="paint6_linear_40_1216" x1="14.0794" y1="19.7361" x2="14.2074" y2="20.9524" gradientUnits="userSpaceOnUse">
<stop stop-color="#21AD64"/>
<stop offset="1" stop-color="#088242"/>
</linearGradient>
</defs>
</svg>
