<svg width="24" height="24" viewBox="0 0 24 24" fill="none" xmlns="http://www.w3.org/2000/svg">
<path d="M21.1304 17.2174H2.86957C2.62957 17.2174 2.43478 17.4122 2.43478 17.6522V19.3913C2.43478 19.6313 2.62957 19.8261 2.86957 19.8261H21.1304C21.3704 19.8261 21.5652 19.6313 21.5652 19.3913V17.6522C21.5652 17.4122 21.3704 17.2174 21.1304 17.2174Z" fill="#E3A600"/>
<path d="M5.47826 13.677H11.5652L7.73 8.69131C7.51479 8.41174 7.07348 8.49131 6.97 8.8287L5.47826 13.677Z" fill="#C48C00"/>
<path d="M7.21739 8.52174C7.69763 8.52174 8.08695 8.13242 8.08695 7.65217C8.08695 7.17193 7.69763 6.78261 7.21739 6.78261C6.73715 6.78261 6.34782 7.17193 6.34782 7.65217C6.34782 8.13242 6.73715 8.52174 7.21739 8.52174Z" fill="#E3A600"/>
<path d="M18.5217 13.677H12.4348L16.27 8.69131C16.4852 8.41174 16.9265 8.49131 17.03 8.8287L18.5217 13.677Z" fill="#C48C00"/>
<path d="M2.86956 17.2174H21.1304L21.5113 9.60349C21.5352 9.12827 21.0304 8.80958 20.6117 9.03523L15.913 11.5652L12.7904 6.36088C12.4322 5.76392 11.5674 5.76392 11.2096 6.36088L8.08696 11.5652L3.38826 9.03523C2.96956 8.80958 2.46478 9.12827 2.4887 9.60349L2.86956 17.2174Z" fill="#EDBE00"/>
<path d="M19.3913 15.4783C19.8716 15.4783 20.2609 14.8943 20.2609 14.1739C20.2609 13.4536 19.8716 12.8696 19.3913 12.8696C18.911 12.8696 18.5217 13.4536 18.5217 14.1739C18.5217 14.8943 18.911 15.4783 19.3913 15.4783Z" fill="url(#paint0_radial_40_1242)"/>
<path d="M12 5.91305C12.4803 5.91305 12.8696 5.52373 12.8696 5.04348C12.8696 4.56324 12.4803 4.17392 12 4.17392C11.5197 4.17392 11.1304 4.56324 11.1304 5.04348C11.1304 5.52373 11.5197 5.91305 12 5.91305Z" fill="#FAD500"/>
<path d="M21.1304 8.95652C21.6107 8.95652 22 8.5672 22 8.08696C22 7.60671 21.6107 7.21739 21.1304 7.21739C20.6502 7.21739 20.2609 7.60671 20.2609 8.08696C20.2609 8.5672 20.6502 8.95652 21.1304 8.95652Z" fill="#FAD500"/>
<path d="M16.7826 8.52174C17.2629 8.52174 17.6522 8.13242 17.6522 7.65217C17.6522 7.17193 17.2629 6.78261 16.7826 6.78261C16.3023 6.78261 15.913 7.17193 15.913 7.65217C15.913 8.13242 16.3023 8.52174 16.7826 8.52174Z" fill="#E3A600"/>
<path d="M2.86957 8.95652C3.34981 8.95652 3.73913 8.5672 3.73913 8.08696C3.73913 7.60671 3.34981 7.21739 2.86957 7.21739C2.38932 7.21739 2 7.60671 2 8.08696C2 8.5672 2.38932 8.95652 2.86957 8.95652Z" fill="#FAD500"/>
<path d="M12 15.913C12.9605 15.913 13.7391 15.1344 13.7391 14.1739C13.7391 13.2134 12.9605 12.4348 12 12.4348C11.0395 12.4348 10.2609 13.2134 10.2609 14.1739C10.2609 15.1344 11.0395 15.913 12 15.913Z" fill="url(#paint1_radial_40_1242)"/>
<path d="M12 15.4783C12.7203 15.4783 13.3043 14.8943 13.3043 14.1739C13.3043 13.4536 12.7203 12.8696 12 12.8696C11.2796 12.8696 10.6956 13.4536 10.6956 14.1739C10.6956 14.8943 11.2796 15.4783 12 15.4783Z" fill="#FFE44A"/>
<path d="M19.6087 15.0435C19.9689 15.0435 20.2609 14.6542 20.2609 14.1739C20.2609 13.6937 19.9689 13.3044 19.6087 13.3044C19.2485 13.3044 18.9565 13.6937 18.9565 14.1739C18.9565 14.6542 19.2485 15.0435 19.6087 15.0435Z" fill="#FFE44A"/>
<path d="M4.60869 15.4783C5.08894 15.4783 5.47826 14.8943 5.47826 14.1739C5.47826 13.4536 5.08894 12.8696 4.60869 12.8696C4.12845 12.8696 3.73913 13.4536 3.73913 14.1739C3.73913 14.8943 4.12845 15.4783 4.60869 15.4783Z" fill="url(#paint2_radial_40_1242)"/>
<path d="M4.3913 15.0435C4.75148 15.0435 5.04348 14.6542 5.04348 14.1739C5.04348 13.6937 4.75148 13.3044 4.3913 13.3044C4.03112 13.3044 3.73913 13.6937 3.73913 14.1739C3.73913 14.6542 4.03112 15.0435 4.3913 15.0435Z" fill="#FFE44A"/>
<defs>
<radialGradient id="paint0_radial_40_1242" cx="0" cy="0" r="1" gradientUnits="userSpaceOnUse" gradientTransform="translate(19.3913 14.1738) scale(0.869565 1.30435)">
<stop stop-color="#AD8A00"/>
<stop offset="1" stop-color="#EDBE00"/>
</radialGradient>
<radialGradient id="paint1_radial_40_1242" cx="0" cy="0" r="1" gradientUnits="userSpaceOnUse" gradientTransform="translate(12 14.1739) scale(1.73913)">
<stop stop-color="#AD8A00"/>
<stop offset="1" stop-color="#EDBE00"/>
</radialGradient>
<radialGradient id="paint2_radial_40_1242" cx="0" cy="0" r="1" gradientUnits="userSpaceOnUse" gradientTransform="translate(4.60869 14.1738) rotate(180) scale(0.869565 1.30435)">
<stop stop-color="#AD8A00"/>
<stop offset="1" stop-color="#EDBE00"/>
</radialGradient>
</defs>
</svg>
