<svg width="24" height="24" viewBox="0 0 24 24" fill="none" xmlns="http://www.w3.org/2000/svg">
<path d="M14.6939 19.7995L15.9653 20.044C17.3834 20.3374 18.7037 19.3105 18.8015 17.8924L19.0949 14.7139L20.513 14.1271C21.002 13.9315 21.1976 13.3447 20.9042 12.8557L19.0949 9.82396C18.8015 6.10758 16.6988 2.489 11.2709 2.489C5.89195 2.489 2.95797 6.10758 2.95797 10.313C2.95797 12.1222 3.59367 14.176 4.57166 15.4963C5.45186 16.7188 5.89195 18.1858 5.89195 19.6528V21.022C5.89195 21.5623 6.32961 22 6.86995 22H13.7159C14.2563 22 14.6939 21.5623 14.6939 21.022V19.7995Z" fill="url(#paint0_radial_40_1279)"/>
<path d="M11.2709 2H10.2929C10.023 2 9.80394 2.21907 9.80394 2.489V11.291H11.7599V2.489C11.7599 2.21907 11.5409 2 11.2709 2Z" fill="url(#paint1_linear_40_1279)"/>
<path d="M19.0949 17.6479H14.2489C13.1301 17.6479 12.1247 17.0264 11.6245 16.0259L10.3443 13.466L11.2191 13.0284L12.4993 15.5888C12.8328 16.2557 13.5032 16.6699 14.2489 16.6699H19.0949V17.6479Z" fill="url(#paint2_linear_40_1279)"/>
<path d="M10.7819 15.2029C12.4024 15.2029 13.7159 13.8894 13.7159 12.2689C13.7159 10.6485 12.4024 9.33496 10.7819 9.33496C9.16154 9.33496 7.84794 10.6485 7.84794 12.2689C7.84794 13.8894 9.16154 15.2029 10.7819 15.2029Z" fill="#0B5CA8"/>
<path d="M10.7819 13.7359C11.5921 13.7359 12.2489 13.0791 12.2489 12.2689C12.2489 11.4588 11.5921 10.802 10.7819 10.802C9.97176 10.802 9.31494 11.4588 9.31494 12.2689C9.31494 13.0791 9.97176 13.7359 10.7819 13.7359Z" fill="#45D7F9"/>
<path d="M19.0949 18.1369C19.635 18.1369 20.0729 17.6991 20.0729 17.1589C20.0729 16.6188 19.635 16.1809 19.0949 16.1809C18.5547 16.1809 18.1169 16.6188 18.1169 17.1589C18.1169 17.6991 18.5547 18.1369 19.0949 18.1369Z" fill="url(#paint3_linear_40_1279)"/>
<defs>
<radialGradient id="paint0_radial_40_1279" cx="0" cy="0" r="1" gradientUnits="userSpaceOnUse" gradientTransform="translate(6.85088 1.99511) scale(27.5139)">
<stop stop-color="#FFCF54"/>
<stop offset="0.261" stop-color="#FDCB4D"/>
<stop offset="0.639" stop-color="#F7C13A"/>
<stop offset="1" stop-color="#F0B421"/>
</radialGradient>
<linearGradient id="paint1_linear_40_1279" x1="10.001" y1="2.23472" x2="11.6" y2="11.7252" gradientUnits="userSpaceOnUse">
<stop stop-color="#26ABE7"/>
<stop offset="1" stop-color="#086DBF"/>
</linearGradient>
<linearGradient id="paint2_linear_40_1279" x1="14.289" y1="12.511" x2="15.2631" y2="18.2934" gradientUnits="userSpaceOnUse">
<stop stop-color="#26ABE7"/>
<stop offset="1" stop-color="#086DBF"/>
</linearGradient>
<linearGradient id="paint3_linear_40_1279" x1="18.6294" y1="16.3262" x2="19.5516" y2="17.976" gradientUnits="userSpaceOnUse">
<stop stop-color="#3079D6"/>
<stop offset="1" stop-color="#297CD2"/>
</linearGradient>
</defs>
</svg>
