<svg width="24" height="24" viewBox="0 0 24 24" fill="none" xmlns="http://www.w3.org/2000/svg">
<path d="M19.185 7.30167L4.33876 15.8731L4.81495 16.6979L19.6611 8.12645L19.185 7.30167Z" fill="#64717C"/>
<path d="M4.33883 8.12668L19.185 16.6981L19.6611 15.8733L4.81502 7.3019L4.33883 8.12668Z" fill="#64717C"/>
<path d="M12.4762 20.5714V3.42857H11.5238V20.5714H12.4762Z" fill="#64717C"/>
<path d="M12 4.85714C12.789 4.85714 13.4286 4.21755 13.4286 3.42857C13.4286 2.63959 12.789 2 12 2C11.211 2 10.5714 2.63959 10.5714 3.42857C10.5714 4.21755 11.211 4.85714 12 4.85714Z" fill="url(#paint0_linear_40_1263)"/>
<path d="M4.38095 9.14286C5.16993 9.14286 5.80952 8.50327 5.80952 7.71429C5.80952 6.92531 5.16993 6.28572 4.38095 6.28572C3.59197 6.28572 2.95238 6.92531 2.95238 7.71429C2.95238 8.50327 3.59197 9.14286 4.38095 9.14286Z" fill="url(#paint1_linear_40_1263)"/>
<path d="M4.38095 17.7143C5.16993 17.7143 5.80952 17.0747 5.80952 16.2857C5.80952 15.4968 5.16993 14.8571 4.38095 14.8571C3.59197 14.8571 2.95238 15.4968 2.95238 16.2857C2.95238 17.0747 3.59197 17.7143 4.38095 17.7143Z" fill="url(#paint2_linear_40_1263)"/>
<path d="M19.619 9.14286C20.408 9.14286 21.0476 8.50327 21.0476 7.71429C21.0476 6.92531 20.408 6.28572 19.619 6.28572C18.8301 6.28572 18.1905 6.92531 18.1905 7.71429C18.1905 8.50327 18.8301 9.14286 19.619 9.14286Z" fill="url(#paint3_linear_40_1263)"/>
<path d="M19.619 17.7143C20.408 17.7143 21.0476 17.0747 21.0476 16.2857C21.0476 15.4968 20.408 14.8571 19.619 14.8571C18.8301 14.8571 18.1905 15.4968 18.1905 16.2857C18.1905 17.0747 18.8301 17.7143 19.619 17.7143Z" fill="url(#paint4_linear_40_1263)"/>
<path d="M12 22C12.789 22 13.4286 21.3604 13.4286 20.5714C13.4286 19.7825 12.789 19.1429 12 19.1429C11.211 19.1429 10.5714 19.7825 10.5714 20.5714C10.5714 21.3604 11.211 22 12 22Z" fill="url(#paint5_linear_40_1263)"/>
<path d="M17.2381 12C17.2381 14.8929 14.8929 17.2381 12 17.2381C9.10714 17.2381 6.76191 14.8929 6.76191 12C6.76191 9.10714 9.10714 6.7619 12 6.7619C14.8929 6.7619 17.2381 9.10714 17.2381 12Z" fill="url(#paint6_radial_40_1263)"/>
<path d="M12 17.2381C13.5176 17.2381 14.8805 16.5886 15.8371 15.5571C15.189 14.0805 13.7162 13.0476 12 13.0476C10.2838 13.0476 8.81095 14.0805 8.16286 15.5571C9.11952 16.5886 10.4824 17.2381 12 17.2381Z" fill="url(#paint7_radial_40_1263)"/>
<path d="M12 12.9524C13.315 12.9524 14.381 11.8864 14.381 10.5714C14.381 9.25647 13.315 8.19048 12 8.19048C10.685 8.19048 9.61905 9.25647 9.61905 10.5714C9.61905 11.8864 10.685 12.9524 12 12.9524Z" fill="url(#paint8_radial_40_1263)"/>
<path d="M12 12.4762C13.052 12.4762 13.9048 11.6234 13.9048 10.5714C13.9048 9.51946 13.052 8.66667 12 8.66667C10.948 8.66667 10.0952 9.51946 10.0952 10.5714C10.0952 11.6234 10.948 12.4762 12 12.4762Z" fill="url(#paint9_linear_40_1263)"/>
<path d="M12 17.2381C13.3133 17.2381 14.511 16.751 15.4305 15.9524C14.909 14.5624 13.5719 13.5714 12 13.5714C10.4281 13.5714 9.09095 14.5624 8.56952 15.9524C9.48905 16.751 10.6867 17.2381 12 17.2381Z" fill="url(#paint10_linear_40_1263)"/>
<defs>
<linearGradient id="paint0_linear_40_1263" x1="11.0529" y1="2.48143" x2="13.0533" y2="4.48238" gradientUnits="userSpaceOnUse">
<stop stop-color="#33BEF0"/>
<stop offset="1" stop-color="#0A85D9"/>
</linearGradient>
<linearGradient id="paint1_linear_40_1263" x1="3.43381" y1="6.76715" x2="5.43476" y2="8.76763" gradientUnits="userSpaceOnUse">
<stop stop-color="#33BEF0"/>
<stop offset="1" stop-color="#0A85D9"/>
</linearGradient>
<linearGradient id="paint2_linear_40_1263" x1="3.43381" y1="15.3386" x2="5.43476" y2="17.3391" gradientUnits="userSpaceOnUse">
<stop stop-color="#33BEF0"/>
<stop offset="1" stop-color="#0A85D9"/>
</linearGradient>
<linearGradient id="paint3_linear_40_1263" x1="18.6719" y1="6.76715" x2="20.6724" y2="8.76763" gradientUnits="userSpaceOnUse">
<stop stop-color="#33BEF0"/>
<stop offset="1" stop-color="#0A85D9"/>
</linearGradient>
<linearGradient id="paint4_linear_40_1263" x1="18.6719" y1="15.3386" x2="20.6724" y2="17.3391" gradientUnits="userSpaceOnUse">
<stop stop-color="#33BEF0"/>
<stop offset="1" stop-color="#0A85D9"/>
</linearGradient>
<linearGradient id="paint5_linear_40_1263" x1="11.0529" y1="19.6243" x2="13.0533" y2="21.6248" gradientUnits="userSpaceOnUse">
<stop stop-color="#33BEF0"/>
<stop offset="1" stop-color="#0A85D9"/>
</linearGradient>
<radialGradient id="paint6_radial_40_1263" cx="0" cy="0" r="1" gradientUnits="userSpaceOnUse" gradientTransform="translate(8.64143 7.91238) scale(10.5581)">
<stop stop-color="#0370C8"/>
<stop offset="0.484" stop-color="#036FC5"/>
<stop offset="0.775" stop-color="#036ABD"/>
<stop offset="1" stop-color="#0362B0"/>
</radialGradient>
<radialGradient id="paint7_radial_40_1263" cx="0" cy="0" r="1" gradientUnits="userSpaceOnUse" gradientTransform="translate(12 17.2662) scale(4.22714)">
<stop/>
<stop offset="1" stop-opacity="0"/>
</radialGradient>
<radialGradient id="paint8_radial_40_1263" cx="0" cy="0" r="1" gradientUnits="userSpaceOnUse" gradientTransform="translate(11.9998 10.571) scale(2.38086)">
<stop/>
<stop offset="1" stop-opacity="0"/>
</radialGradient>
<linearGradient id="paint9_linear_40_1263" x1="10.7076" y1="9.27905" x2="13.3652" y2="11.9367" gradientUnits="userSpaceOnUse">
<stop stop-color="#75DAFF"/>
<stop offset="1" stop-color="#1EA2E4"/>
</linearGradient>
<linearGradient id="paint10_linear_40_1263" x1="10.1686" y1="13.8881" x2="13.8038" y2="17.5238" gradientUnits="userSpaceOnUse">
<stop stop-color="#75DAFF"/>
<stop offset="1" stop-color="#1EA2E4"/>
</linearGradient>
</defs>
</svg>
