<svg width="24" height="24" viewBox="0 0 24 24" fill="none" xmlns="http://www.w3.org/2000/svg">
<path d="M12 10.4211C14.3254 10.4211 16.2105 8.53594 16.2105 6.21053C16.2105 3.88512 14.3254 2 12 2C9.67459 2 7.78947 3.88512 7.78947 6.21053C7.78947 8.53594 9.67459 10.4211 12 10.4211Z" fill="url(#paint0_linear_40_1259)"/>
<path d="M12 12C7.93052 12 4.63158 15.2989 4.63158 19.3684V20.9474C4.63158 21.5289 5.10263 22 5.68421 22H18.3158C18.8974 22 19.3684 21.5289 19.3684 20.9474V19.3684C19.3684 15.2989 16.0695 12 12 12Z" fill="url(#paint1_linear_40_1259)"/>
<defs>
<linearGradient id="paint0_linear_40_1259" x1="9.14368" y1="3.35421" x2="15.0184" y2="9.22895" gradientUnits="userSpaceOnUse">
<stop stop-color="#32BDEF"/>
<stop offset="1" stop-color="#1EA2E4"/>
</linearGradient>
<linearGradient id="paint1_linear_40_1259" x1="7.04895" y1="13.8989" x2="16.8768" y2="23.7268" gradientUnits="userSpaceOnUse">
<stop stop-color="#32BDEF"/>
<stop offset="1" stop-color="#1EA2E4"/>
</linearGradient>
</defs>
</svg>
