<svg width="24" height="24" viewBox="0 0 24 24" fill="none" xmlns="http://www.w3.org/2000/svg">
<path d="M9.77778 14.2222H3.11111C2.49722 14.2222 2 13.725 2 13.1111V3.11111C2 2.49722 2.49722 2 3.11111 2H9.77778C10.3917 2 10.8889 2.49722 10.8889 3.11111V13.1111C10.8889 13.725 10.3917 14.2222 9.77778 14.2222Z" fill="#0078D4"/>
<path d="M20.8889 7.55556H14.2222C13.6083 7.55556 13.1111 7.05833 13.1111 6.44444V3.11111C13.1111 2.49722 13.6083 2 14.2222 2H20.8889C21.5028 2 22 2.49722 22 3.11111V6.44444C22 7.05833 21.5028 7.55556 20.8889 7.55556Z" fill="url(#paint0_linear_40_1287)"/>
<path d="M9.77778 22H3.11111C2.49722 22 2 21.5028 2 20.8889V17.5556C2 16.9417 2.49722 16.4444 3.11111 16.4444H9.77778C10.3917 16.4444 10.8889 16.9417 10.8889 17.5556V20.8889C10.8889 21.5028 10.3917 22 9.77778 22Z" fill="url(#paint1_linear_40_1287)"/>
<path d="M20.8889 22H14.2222C13.6083 22 13.1111 21.5028 13.1111 20.8889V10.8889C13.1111 10.275 13.6083 9.77777 14.2222 9.77777H20.8889C21.5028 9.77777 22 10.275 22 10.8889V20.8889C22 21.5028 21.5028 22 20.8889 22Z" fill="#0078D4"/>
<defs>
<linearGradient id="paint0_linear_40_1287" x1="16.3587" y1="2.24217" x2="17.046" y2="8.29014" gradientUnits="userSpaceOnUse">
<stop stop-color="#32BDEF"/>
<stop offset="1" stop-color="#1EA2E4"/>
</linearGradient>
<linearGradient id="paint1_linear_40_1287" x1="5.24756" y1="16.6867" x2="5.93494" y2="22.7346" gradientUnits="userSpaceOnUse">
<stop stop-color="#32BDEF"/>
<stop offset="1" stop-color="#1EA2E4"/>
</linearGradient>
</defs>
</svg>
