<svg width="24" height="24" viewBox="0 0 24 24" fill="none" xmlns="http://www.w3.org/2000/svg">
<path d="M15.2065 2H4.29768C3.79542 2 3.38861 2.40681 3.38861 2.90907V19.2723C3.38861 19.7746 3.79542 20.1814 4.29768 20.1814H15.2065C15.7088 20.1814 16.1156 19.7746 16.1156 19.2723V2.90907C16.1156 2.40681 15.7088 2 15.2065 2Z" fill="url(#paint0_linear_40_1299)"/>
<path d="M9.70255 18.3633C10.4556 18.3633 11.0662 17.7527 11.0662 16.9997C11.0662 16.2466 10.4556 15.636 9.70255 15.636C8.94948 15.636 8.33894 16.2466 8.33894 16.9997C8.33894 17.7527 8.94948 18.3633 9.70255 18.3633Z" fill="url(#paint1_radial_40_1299)"/>
<path d="M9.70256 17.9087C10.2046 17.9087 10.6116 17.5017 10.6116 16.9996C10.6116 16.4976 10.2046 16.0906 9.70256 16.0906C9.20048 16.0906 8.79349 16.4976 8.79349 16.9996C8.79349 17.5017 9.20048 17.9087 9.70256 17.9087Z" fill="white"/>
<path d="M14.0206 6.54536H5.38446C5.25901 6.54536 5.1572 6.44354 5.1572 6.31809V4.04541C5.1572 3.91996 5.25901 3.81815 5.38446 3.81815H14.0206C14.1461 3.81815 14.2479 3.91996 14.2479 4.04541V6.31809C14.2479 6.44354 14.1461 6.54536 14.0206 6.54536Z" fill="url(#paint2_linear_40_1299)"/>
<path d="M12.8843 5.63627C13.1353 5.63627 13.3388 5.43277 13.3388 5.18174C13.3388 4.93071 13.1353 4.7272 12.8843 4.7272C12.6333 4.7272 12.4298 4.93071 12.4298 5.18174C12.4298 5.43277 12.6333 5.63627 12.8843 5.63627Z" fill="url(#paint3_linear_40_1299)"/>
<path d="M14.0206 10.1816H5.38446C5.25901 10.1816 5.1572 10.0798 5.1572 9.95435V7.68167C5.1572 7.55622 5.25901 7.45441 5.38446 7.45441H14.0206C14.1461 7.45441 14.2479 7.55622 14.2479 7.68167V9.95435C14.2479 10.0798 14.1461 10.1816 14.0206 10.1816Z" fill="url(#paint4_linear_40_1299)"/>
<path d="M12.8843 9.27257C13.1353 9.27257 13.3388 9.06906 13.3388 8.81803C13.3388 8.567 13.1353 8.36349 12.8843 8.36349C12.6333 8.36349 12.4298 8.567 12.4298 8.81803C12.4298 9.06906 12.6333 9.27257 12.8843 9.27257Z" fill="url(#paint5_linear_40_1299)"/>
<path d="M14.0206 13.8179H5.38446C5.25901 13.8179 5.1572 13.7161 5.1572 13.5906V11.318C5.1572 11.1925 5.25901 11.0907 5.38446 11.0907H14.0206C14.1461 11.0907 14.2479 11.1925 14.2479 11.318V13.5906C14.2479 13.7161 14.1461 13.8179 14.0206 13.8179Z" fill="url(#paint6_linear_40_1299)"/>
<path d="M12.8843 12.9089C13.1353 12.9089 13.3388 12.7053 13.3388 12.4543C13.3388 12.2033 13.1353 11.9998 12.8843 11.9998C12.6333 11.9998 12.4298 12.2033 12.4298 12.4543C12.4298 12.7053 12.6333 12.9089 12.8843 12.9089Z" fill="url(#paint7_linear_40_1299)"/>
<path opacity="0.07" d="M13.1611 14.1861V20.1814H13.3884L16.1156 20.2496V13.2088C14.9702 13.2725 13.1611 13.4816 13.1611 14.1861Z" fill="black"/>
<path opacity="0.05" d="M12.9339 14.1861V20.1814H16.1156V12.977C14.7611 13.0407 12.9339 13.2952 12.9339 14.1861Z" fill="black"/>
<path d="M20.6114 18.4205H13.3884C13.3884 18.4205 13.3884 20.8714 13.3884 21.0455C13.3884 21.5727 15.0052 22 17.0001 22C18.9951 22 20.6114 21.5727 20.6114 21.0455C20.6114 20.8709 20.6114 18.4205 20.6114 18.4205Z" fill="url(#paint8_linear_40_1299)"/>
<path d="M20.6114 16.1633H13.3884C13.3884 16.1633 13.3884 18.7464 13.3884 18.9296C13.3884 19.485 15.0052 19.9355 17.0001 19.9355C18.9951 19.9355 20.6114 19.4855 20.6114 18.9296C20.6114 18.7464 20.6114 16.1633 20.6114 16.1633Z" fill="url(#paint9_linear_40_1299)"/>
<path d="M20.6114 14.1843H13.3884C13.3884 14.1843 13.3884 16.3102 13.3884 16.4933C13.3884 16.9697 15.0052 17.356 17.0001 17.356C18.9951 17.356 20.6114 16.9697 20.6114 16.4933C20.6114 16.3102 20.6114 14.1843 20.6114 14.1843Z" fill="url(#paint10_linear_40_1299)"/>
<path d="M16.9997 14.9584C18.9943 14.9584 20.6114 14.6118 20.6114 14.1843C20.6114 13.7568 18.9943 13.4102 16.9997 13.4102C15.005 13.4102 13.3879 13.7568 13.3879 14.1843C13.3879 14.6118 15.005 14.9584 16.9997 14.9584Z" fill="url(#paint11_linear_40_1299)"/>
<defs>
<linearGradient id="paint0_linear_40_1299" x1="3.62361" y1="2.60999" x2="15.4547" y2="18.9819" gradientUnits="userSpaceOnUse">
<stop stop-color="#2AA4F4"/>
<stop offset="1" stop-color="#007AD9"/>
</linearGradient>
<radialGradient id="paint1_radial_40_1299" cx="0" cy="0" r="1" gradientUnits="userSpaceOnUse" gradientTransform="translate(9.70255 16.9997) scale(1.36361)">
<stop offset="0.582" stop-opacity="0.2"/>
<stop offset="1" stop-opacity="0"/>
</radialGradient>
<linearGradient id="paint2_linear_40_1299" x1="5.1572" y1="5.18175" x2="14.2479" y2="5.18175" gradientUnits="userSpaceOnUse">
<stop stop-color="#1D59B3"/>
<stop offset="1" stop-color="#195BBC"/>
</linearGradient>
<linearGradient id="paint3_linear_40_1299" x1="12.7164" y1="4.74116" x2="13.1659" y2="5.60787" gradientUnits="userSpaceOnUse">
<stop stop-color="#7DD8F3"/>
<stop offset="1" stop-color="#45B0D0"/>
</linearGradient>
<linearGradient id="paint4_linear_40_1299" x1="5.1572" y1="8.81801" x2="14.2479" y2="8.81801" gradientUnits="userSpaceOnUse">
<stop stop-color="#1D59B3"/>
<stop offset="1" stop-color="#195BBC"/>
</linearGradient>
<linearGradient id="paint5_linear_40_1299" x1="12.7164" y1="8.37745" x2="13.1659" y2="9.24417" gradientUnits="userSpaceOnUse">
<stop stop-color="#7DD8F3"/>
<stop offset="1" stop-color="#45B0D0"/>
</linearGradient>
<linearGradient id="paint6_linear_40_1299" x1="5.1572" y1="12.4543" x2="14.2479" y2="12.4543" gradientUnits="userSpaceOnUse">
<stop stop-color="#1D59B3"/>
<stop offset="1" stop-color="#195BBC"/>
</linearGradient>
<linearGradient id="paint7_linear_40_1299" x1="12.7164" y1="12.0138" x2="13.1659" y2="12.8805" gradientUnits="userSpaceOnUse">
<stop stop-color="#7DD8F3"/>
<stop offset="1" stop-color="#45B0D0"/>
</linearGradient>
<linearGradient id="paint8_linear_40_1299" x1="15.8959" y1="18.5771" x2="16.1915" y2="22.4554" gradientUnits="userSpaceOnUse">
<stop stop-color="#0D61A9"/>
<stop offset="1" stop-color="#16528C"/>
</linearGradient>
<linearGradient id="paint9_linear_40_1299" x1="16.0273" y1="16.3278" x2="16.4189" y2="20.4501" gradientUnits="userSpaceOnUse">
<stop stop-color="#32BDEF"/>
<stop offset="1" stop-color="#1EA2E4"/>
</linearGradient>
<linearGradient id="paint10_linear_40_1299" x1="16.9999" y1="14.1777" x2="16.9999" y2="17.3446" gradientUnits="userSpaceOnUse">
<stop stop-color="#2AA4F4"/>
<stop offset="1" stop-color="#007AD9"/>
</linearGradient>
<linearGradient id="paint11_linear_40_1299" x1="14.9883" y1="13.1796" x2="15.3106" y2="15.3879" gradientUnits="userSpaceOnUse">
<stop stop-color="#FCFCFC"/>
<stop offset="0.95" stop-color="#C3C9CD"/>
</linearGradient>
</defs>
</svg>
