<svg width="24" height="24" viewBox="0 0 24 24" fill="none" xmlns="http://www.w3.org/2000/svg">
<path d="M2.52632 20.9474V6.21054H21.4737V20.9474C21.4737 21.5263 21 22 20.4211 22H3.57895C3.00001 22 2.52632 21.5263 2.52632 20.9474Z" fill="url(#paint0_linear_40_1316)"/>
<path opacity="0.05" d="M12.8663 13.8374L11.4737 12.3926L9.67422 10.5263C9.45001 10.2932 9.11159 10.2216 8.81001 10.3411C8.51001 10.4621 8.3158 10.75 8.3158 11.0737V12H3.05264H4.36843C3.93317 12 3.57896 12.3542 3.57896 12.7895V15.9474C3.57896 16.3826 3.93317 16.7368 4.36843 16.7368H3.05264H8.3158V17.6637C8.3158 17.9874 8.51001 18.2753 8.81054 18.3963C8.9058 18.4342 9.00528 18.4537 9.10633 18.4537C9.31791 18.4537 9.52527 18.3653 9.67422 18.2111L11.4737 16.3447L12.8663 14.9C13.1526 14.6016 13.1526 14.1358 12.8663 13.8374Z" fill="black"/>
<path opacity="0.07" d="M12.6769 14.02L9.48475 10.7089C9.33475 10.5532 9.10685 10.5063 8.90843 10.5858C8.70791 10.6663 8.57896 10.8579 8.57896 11.0737V12.2632H3.05264H4.36843C4.07791 12.2632 3.84212 12.4989 3.84212 12.7895V15.9474C3.84212 16.2379 4.07791 16.4737 4.36843 16.4737H3.05264H8.57896V17.6637C8.57896 17.8795 8.70791 18.0711 8.90843 18.1521C8.97264 18.1779 9.03949 18.1905 9.10633 18.1905C9.24633 18.1905 9.38264 18.1342 9.48475 18.0284L12.6769 14.7174C12.8653 14.5216 12.8653 14.2158 12.6769 14.02Z" fill="black"/>
<path d="M8.84211 11.0737V12.5263H4.36843C4.22317 12.5263 4.10527 12.6442 4.10527 12.7895V15.9474C4.10527 16.0927 4.22317 16.2106 4.36843 16.2106H8.84211V17.6637C8.84211 17.9006 9.13053 18.0169 9.29474 17.8463L12.4874 14.5353C12.5768 14.4427 12.5768 14.2958 12.4874 14.2027L9.29474 10.8916C9.13053 10.7206 8.84211 10.8369 8.84211 11.0737Z" fill="url(#paint1_linear_40_1316)"/>
<path d="M21.4737 4.10527V7.26317H2.52632V4.10527C2.52632 3.52633 3.00001 3.05264 3.57895 3.05264H20.4211C21 3.05264 21.4737 3.52633 21.4737 4.10527Z" fill="url(#paint2_linear_40_1316)"/>
<path opacity="0.05" d="M18.0526 6.4737C17.1805 6.4737 16.4737 5.76685 16.4737 4.89475V3.05264H19.6316V4.89475C19.6316 5.76685 18.9247 6.4737 18.0526 6.4737Z" fill="black"/>
<path opacity="0.07" d="M18.0526 6.07896C17.3984 6.07896 16.8684 5.54896 16.8684 4.89475V3.05264H19.2368V4.89475C19.2368 5.54896 18.7068 6.07896 18.0526 6.07896Z" fill="black"/>
<path opacity="0.05" d="M5.94737 6.4737C5.07527 6.4737 4.36842 5.76685 4.36842 4.89475V3.05264H7.52632V4.89475C7.52632 5.76685 6.81948 6.4737 5.94737 6.4737Z" fill="black"/>
<path opacity="0.07" d="M5.94738 6.07896C5.29317 6.07896 4.76317 5.54896 4.76317 4.89475V3.05264H7.13159V4.89475C7.13159 5.54896 6.60159 6.07896 5.94738 6.07896Z" fill="black"/>
<path d="M5.94737 5.68421C5.51158 5.68421 5.1579 5.33053 5.1579 4.89474V2.78947C5.1579 2.35368 5.51158 2 5.94737 2C6.38316 2 6.73685 2.35368 6.73685 2.78947V4.89474C6.73685 5.33053 6.38316 5.68421 5.94737 5.68421Z" fill="#3CCBF4"/>
<path d="M18.0526 5.68421C17.6169 5.68421 17.2632 5.33053 17.2632 4.89474V2.78947C17.2632 2.35368 17.6169 2 18.0526 2C18.4884 2 18.8421 2.35368 18.8421 2.78947V4.89474C18.8421 5.33053 18.4884 5.68421 18.0526 5.68421Z" fill="#3CCBF4"/>
<defs>
<linearGradient id="paint0_linear_40_1316" x1="4.01474" y1="5.81422" x2="20.3142" y2="22.1063" gradientUnits="userSpaceOnUse">
<stop stop-color="#28AFEA"/>
<stop offset="1" stop-color="#047ED6"/>
</linearGradient>
<linearGradient id="paint1_linear_40_1316" x1="6.76919" y1="10.9194" x2="9.92832" y2="18.1502" gradientUnits="userSpaceOnUse">
<stop stop-color="#7DD8F3"/>
<stop offset="1" stop-color="#45B0D0"/>
</linearGradient>
<linearGradient id="paint2_linear_40_1316" x1="2.74737" y1="3.37264" x2="21.0516" y2="7.09475" gradientUnits="userSpaceOnUse">
<stop stop-color="#0077D2"/>
<stop offset="1" stop-color="#0B59A2"/>
</linearGradient>
</defs>
</svg>
