<svg width="24" height="24" viewBox="0 0 24 24" fill="none" xmlns="http://www.w3.org/2000/svg">
<path d="M2.47619 14.6189H6.7619C7.02476 14.6189 7.2381 14.4056 7.2381 14.1427C7.2381 13.8799 7.02476 13.6665 6.7619 13.6665H2.47619C2.21333 13.6665 2 13.8799 2 14.1427C2 14.4056 2.21333 14.6189 2.47619 14.6189Z" fill="url(#paint0_linear_40_1329)"/>
<path d="M2.75142 9.33606L6.6357 11.1475C6.87427 11.2584 7.15761 11.1556 7.26856 10.917C7.37951 10.6784 7.27666 10.3951 7.03808 10.2842L3.1538 8.47272C2.91523 8.36177 2.63189 8.46463 2.52094 8.7032C2.40999 8.9413 2.51285 9.22463 2.75142 9.33606Z" fill="url(#paint1_linear_40_1329)"/>
<path d="M4.10762 18.9899L7.6181 16.5318C7.83334 16.3808 8.13048 16.4332 8.28143 16.6489C8.43238 16.8646 8.38 17.1613 8.16429 17.3122L4.65381 19.7703C4.43857 19.9213 4.14143 19.8689 3.99048 19.6532C3.84 19.438 3.89238 19.1408 4.10762 18.9899Z" fill="url(#paint2_linear_40_1329)"/>
<path d="M22 14.1427C22 13.8799 21.7867 13.6665 21.5238 13.6665H17.2381C16.9752 13.6665 16.7619 13.8799 16.7619 14.1427C16.7619 14.4056 16.9752 14.6189 17.2381 14.6189H21.5238C21.7867 14.6189 22 14.4056 22 14.1427Z" fill="url(#paint3_linear_40_1329)"/>
<path d="M21.479 8.7032C21.3681 8.46463 21.0848 8.36177 20.8462 8.47272L16.9619 10.2842C16.7233 10.3951 16.6205 10.6784 16.7314 10.917C16.8424 11.1556 17.1257 11.2584 17.3643 11.1475L21.2486 9.33606C21.4871 9.22463 21.59 8.9413 21.479 8.7032Z" fill="url(#paint4_linear_40_1329)"/>
<path d="M20.0095 19.6532C19.8586 19.8689 19.5614 19.9213 19.3462 19.7703L15.8357 17.3122C15.62 17.1613 15.5676 16.8646 15.7186 16.6489C15.8695 16.4332 16.1667 16.3808 16.3819 16.5318L19.8924 18.9899C20.1076 19.1408 20.16 19.438 20.0095 19.6532Z" fill="url(#paint5_linear_40_1329)"/>
<path d="M9.1838 5.80939L6.90142 3.52701C6.7157 3.34129 6.7157 3.03939 6.90142 2.85367C7.08713 2.66796 7.38904 2.66796 7.57475 2.85367L9.85713 5.13605L9.1838 5.80939Z" fill="url(#paint6_linear_40_1329)"/>
<path d="M14.8162 5.80939L17.0986 3.52701C17.2843 3.34129 17.2843 3.03939 17.0986 2.85367C16.9129 2.66796 16.6109 2.66796 16.4252 2.85367L14.1429 5.13605L14.8162 5.80939Z" fill="url(#paint7_linear_40_1329)"/>
<path d="M12 10.6903C14.1039 10.6903 15.8095 9.22462 15.8095 7.41654C15.8095 5.60846 14.1039 4.14273 12 4.14273C9.89606 4.14273 8.19048 5.60846 8.19048 7.41654C8.19048 9.22462 9.89606 10.6903 12 10.6903Z" fill="url(#paint8_linear_40_1329)"/>
<path d="M19.1429 11.4046C19.1429 18.1237 14.0762 20.5332 12.4762 21.1237C12.1762 21.238 12 21.2856 12 21.2856C12 21.2856 11.8238 21.238 11.5238 21.1237C9.92381 20.5332 4.85715 18.1237 4.85715 11.4046C4.85715 7.49511 7.8 6.59511 11.5238 6.52844C11.681 6.52368 11.8381 6.52368 12 6.52368C12.1619 6.52368 12.3191 6.52368 12.4762 6.52844C16.2 6.59463 19.1429 7.49463 19.1429 11.4046Z" fill="url(#paint9_linear_40_1329)"/>
<path d="M12.4762 6.52844V21.1237C12.1762 21.238 12 21.2856 12 21.2856C12 21.2856 11.8238 21.238 11.5238 21.1237V6.52844C11.6809 6.52368 11.8381 6.52368 12 6.52368C12.1619 6.52368 12.319 6.52368 12.4762 6.52844Z" fill="url(#paint10_linear_40_1329)"/>
<defs>
<linearGradient id="paint0_linear_40_1329" x1="1.98714" y1="14.1427" x2="5.1381" y2="14.1427" gradientUnits="userSpaceOnUse">
<stop stop-color="#6D7479"/>
<stop offset="0.425" stop-color="#565C60"/>
<stop offset="1" stop-color="#323538"/>
</linearGradient>
<linearGradient id="paint1_linear_40_1329" x1="2.51047" y1="8.80415" x2="5.01666" y2="9.86178" gradientUnits="userSpaceOnUse">
<stop stop-color="#6D7479"/>
<stop offset="0.425" stop-color="#565C60"/>
<stop offset="1" stop-color="#323538"/>
</linearGradient>
<linearGradient id="paint2_linear_40_1329" x1="3.90381" y1="19.437" x2="6.01905" y2="18.2184" gradientUnits="userSpaceOnUse">
<stop stop-color="#6D7479"/>
<stop offset="0.425" stop-color="#565C60"/>
<stop offset="1" stop-color="#323538"/>
</linearGradient>
<linearGradient id="paint3_linear_40_1329" x1="22.0129" y1="14.1427" x2="18.8619" y2="14.1427" gradientUnits="userSpaceOnUse">
<stop stop-color="#6D7479"/>
<stop offset="0.425" stop-color="#565C60"/>
<stop offset="1" stop-color="#323538"/>
</linearGradient>
<linearGradient id="paint4_linear_40_1329" x1="21.4895" y1="8.80415" x2="18.9833" y2="9.86178" gradientUnits="userSpaceOnUse">
<stop stop-color="#6D7479"/>
<stop offset="0.425" stop-color="#565C60"/>
<stop offset="1" stop-color="#323538"/>
</linearGradient>
<linearGradient id="paint5_linear_40_1329" x1="20.0957" y1="19.437" x2="17.9805" y2="18.2184" gradientUnits="userSpaceOnUse">
<stop stop-color="#6D7479"/>
<stop offset="0.425" stop-color="#565C60"/>
<stop offset="1" stop-color="#323538"/>
</linearGradient>
<linearGradient id="paint6_linear_40_1329" x1="7.26523" y1="2.57653" x2="8.76951" y2="4.96129" gradientUnits="userSpaceOnUse">
<stop stop-color="#6D7479"/>
<stop offset="0.425" stop-color="#565C60"/>
<stop offset="1" stop-color="#323538"/>
</linearGradient>
<linearGradient id="paint7_linear_40_1329" x1="16.919" y1="2.77367" x2="15.1505" y2="4.89748" gradientUnits="userSpaceOnUse">
<stop stop-color="#6D7479"/>
<stop offset="0.425" stop-color="#565C60"/>
<stop offset="1" stop-color="#323538"/>
</linearGradient>
<linearGradient id="paint8_linear_40_1329" x1="12" y1="7.70987" x2="12" y2="2.15416" gradientUnits="userSpaceOnUse">
<stop offset="0.002" stop-color="#454545"/>
<stop offset="0.013" stop-color="#464646"/>
<stop offset="0.562" stop-color="#626262"/>
<stop offset="1" stop-color="#6D6D6D"/>
</linearGradient>
<linearGradient id="paint9_linear_40_1329" x1="12" y1="5.91178" x2="12" y2="25.7023" gradientUnits="userSpaceOnUse">
<stop stop-color="#199AE0"/>
<stop offset="1" stop-color="#0782D8"/>
</linearGradient>
<linearGradient id="paint10_linear_40_1329" x1="12" y1="4.64559" x2="12" y2="21.1565" gradientUnits="userSpaceOnUse">
<stop stop-color="#0D61A9"/>
<stop offset="1" stop-color="#16528C"/>
</linearGradient>
</defs>
</svg>
