<svg width="24" height="24" viewBox="0 0 24 24" fill="none" xmlns="http://www.w3.org/2000/svg">
<path d="M2.90909 18.3636V7.90906H21.0909V18.3636C21.0909 18.8636 20.6818 19.2727 20.1818 19.2727H3.81818C3.31818 19.2727 2.90909 18.8636 2.90909 18.3636Z" fill="url(#paint0_linear_78_53)"/>
<path d="M21.0909 5.63639V7.90911H2.90909V5.63639C2.90909 5.13639 3.31818 4.72729 3.81818 4.72729H20.1818C20.6818 4.72729 21.0909 5.13639 21.0909 5.63639Z" fill="url(#paint1_linear_78_53)"/>
<path d="M4.49999 6.99999C4.87655 6.99999 5.18181 6.69473 5.18181 6.31817C5.18181 5.94162 4.87655 5.63635 4.49999 5.63635C4.12344 5.63635 3.81818 5.94162 3.81818 6.31817C3.81818 6.69473 4.12344 6.99999 4.49999 6.99999Z" fill="url(#paint2_linear_78_53)"/>
<path d="M6.77272 6.99999C7.14928 6.99999 7.45454 6.69473 7.45454 6.31817C7.45454 5.94162 7.14928 5.63635 6.77272 5.63635C6.39617 5.63635 6.0909 5.94162 6.0909 6.31817C6.0909 6.69473 6.39617 6.99999 6.77272 6.99999Z" fill="url(#paint3_linear_78_53)"/>
<path d="M9.04545 6.99999C9.422 6.99999 9.72727 6.69473 9.72727 6.31817C9.72727 5.94162 9.422 5.63635 9.04545 5.63635C8.6689 5.63635 8.36363 5.94162 8.36363 6.31817C8.36363 6.69473 8.6689 6.99999 9.04545 6.99999Z" fill="url(#paint4_linear_78_53)"/>
<path d="M8.40908 14.0606H9.90907C10.0011 14.0606 10.0757 13.986 10.0757 13.894C10.0757 13.802 10.0011 13.7273 9.90907 13.7273H8.40908C8.31708 13.7273 8.24242 13.802 8.24242 13.894C8.24242 13.986 8.31708 14.0606 8.40908 14.0606Z" fill="url(#paint5_linear_78_53)"/>
<path d="M15.0757 13.7273H13.5757C13.4837 13.7273 13.4091 13.802 13.4091 13.894C13.4091 13.986 13.4837 14.0606 13.5757 14.0606H15.0757C15.1677 14.0606 15.2424 13.986 15.2424 13.894C15.2424 13.802 15.1677 13.7273 15.0757 13.7273Z" fill="url(#paint6_linear_78_53)"/>
<path d="M14.8127 12.2115L13.4534 12.8455C13.3701 12.8845 13.2707 12.8482 13.2321 12.7648C13.1931 12.6815 13.2294 12.5822 13.3127 12.5432L14.6724 11.9092C14.7557 11.8702 14.855 11.9062 14.894 11.9898C14.932 12.0735 14.8964 12.1728 14.8127 12.2115Z" fill="url(#paint7_linear_78_53)"/>
<path d="M14.6821 15.5266L13.4534 14.6663C13.3781 14.6133 13.2741 14.6316 13.2211 14.7073C13.1681 14.7826 13.1864 14.8866 13.2621 14.9393L14.4907 15.7996C14.5661 15.8526 14.6701 15.8343 14.7227 15.7586C14.7754 15.6829 14.7577 15.5793 14.6821 15.5266Z" fill="url(#paint8_linear_78_53)"/>
<path d="M8.67208 12.2115L10.0317 12.8455C10.1151 12.8845 10.2144 12.8482 10.2531 12.7648C10.2921 12.6815 10.2561 12.5822 10.1724 12.5432L8.81274 11.9092C8.72941 11.8702 8.63008 11.9062 8.59108 11.9898C8.55274 12.0735 8.58841 12.1728 8.67208 12.2115Z" fill="url(#paint9_linear_78_53)"/>
<path d="M8.80275 15.5266L10.0314 14.6663C10.1067 14.6133 10.2107 14.6316 10.2634 14.7073C10.3164 14.7826 10.2981 14.8866 10.2224 14.9393L8.99375 15.7996C8.91841 15.8526 8.81441 15.8343 8.76141 15.7586C8.70875 15.6833 8.72742 15.5793 8.80275 15.5266Z" fill="url(#paint10_linear_78_53)"/>
<path d="M10.5901 11.1439L9.79141 10.3452C9.72641 10.2802 9.72641 10.1745 9.79141 10.1095C9.85641 10.0445 9.96208 10.0445 10.0271 10.1095L10.8257 10.9082L10.5901 11.1439Z" fill="url(#paint11_linear_78_53)"/>
<path d="M12.8947 11.1439L13.6934 10.3452C13.7584 10.2802 13.7584 10.1745 13.6934 10.1095C13.6284 10.0445 13.5227 10.0445 13.4577 10.1095L12.6591 10.9082L12.8947 11.1439Z" fill="url(#paint12_linear_78_53)"/>
<path d="M9.80475 11.5605C9.45342 12.1059 9.24242 12.8019 9.24242 13.5605C9.24242 15.3092 10.3617 16.7272 11.7424 16.7272C13.1231 16.7272 14.2424 15.3092 14.2424 13.5605C14.2424 12.8019 14.0314 12.1059 13.6797 11.5605H9.80475Z" fill="url(#paint13_linear_78_53)"/>
<path d="M11.5757 16.7166C11.6311 16.7213 11.6861 16.7273 11.7424 16.7273C11.7987 16.7273 11.8537 16.7213 11.9091 16.7166V11.9773H11.5757V16.7166Z" fill="url(#paint14_linear_78_53)"/>
<path d="M11.7424 12.2272C12.4897 12.2272 13.1841 12.0336 13.7637 11.7022C13.3094 10.9106 12.5741 10.3939 11.7424 10.3939C10.9107 10.3939 10.1754 10.9106 9.72108 11.7022C10.3007 12.0336 10.9951 12.2272 11.7424 12.2272Z" fill="url(#paint15_linear_78_53)"/>
<defs>
<linearGradient id="paint0_linear_78_53" x1="11.9091" y1="9.22729" x2="12.4091" y2="25.7273" gradientUnits="userSpaceOnUse">
<stop stop-color="white"/>
<stop offset="1" stop-color="#E9E9E9"/>
</linearGradient>
<linearGradient id="paint1_linear_78_53" x1="3.18818" y1="4.60957" x2="20.6073" y2="8.15139" gradientUnits="userSpaceOnUse">
<stop stop-color="#0077D2"/>
<stop offset="1" stop-color="#0B59A2"/>
</linearGradient>
<linearGradient id="paint2_linear_78_53" x1="4.15954" y1="5.82544" x2="4.74181" y2="6.66772" gradientUnits="userSpaceOnUse">
<stop stop-color="#75DAFF"/>
<stop offset="1" stop-color="#49BEF1"/>
</linearGradient>
<linearGradient id="paint3_linear_78_53" x1="6.43227" y1="5.82544" x2="7.01454" y2="6.66772" gradientUnits="userSpaceOnUse">
<stop stop-color="#75DAFF"/>
<stop offset="1" stop-color="#49BEF1"/>
</linearGradient>
<linearGradient id="paint4_linear_78_53" x1="8.705" y1="5.82544" x2="9.28727" y2="6.66772" gradientUnits="userSpaceOnUse">
<stop stop-color="#75DAFF"/>
<stop offset="1" stop-color="#49BEF1"/>
</linearGradient>
<linearGradient id="paint5_linear_78_53" x1="8.23775" y1="13.894" x2="9.34074" y2="13.894" gradientUnits="userSpaceOnUse">
<stop stop-color="#6D7479"/>
<stop offset="0.425" stop-color="#565C60"/>
<stop offset="1" stop-color="#323538"/>
</linearGradient>
<linearGradient id="paint6_linear_78_53" x1="15.2467" y1="13.894" x2="14.1441" y2="13.894" gradientUnits="userSpaceOnUse">
<stop stop-color="#6D7479"/>
<stop offset="0.425" stop-color="#565C60"/>
<stop offset="1" stop-color="#323538"/>
</linearGradient>
<linearGradient id="paint7_linear_78_53" x1="14.897" y1="12.0255" x2="14.0201" y2="12.3955" gradientUnits="userSpaceOnUse">
<stop stop-color="#6D7479"/>
<stop offset="0.425" stop-color="#565C60"/>
<stop offset="1" stop-color="#323538"/>
</linearGradient>
<linearGradient id="paint8_linear_78_53" x1="14.7534" y1="15.6833" x2="14.0134" y2="15.2566" gradientUnits="userSpaceOnUse">
<stop stop-color="#6D7479"/>
<stop offset="0.425" stop-color="#565C60"/>
<stop offset="1" stop-color="#323538"/>
</linearGradient>
<linearGradient id="paint9_linear_78_53" x1="8.58774" y1="12.0255" x2="9.46474" y2="12.3955" gradientUnits="userSpaceOnUse">
<stop stop-color="#6D7479"/>
<stop offset="0.425" stop-color="#565C60"/>
<stop offset="1" stop-color="#323538"/>
</linearGradient>
<linearGradient id="paint10_linear_78_53" x1="8.73108" y1="15.6833" x2="9.47174" y2="15.2566" gradientUnits="userSpaceOnUse">
<stop stop-color="#6D7479"/>
<stop offset="0.425" stop-color="#565C60"/>
<stop offset="1" stop-color="#323538"/>
</linearGradient>
<linearGradient id="paint11_linear_78_53" x1="9.91874" y1="10.0125" x2="10.4451" y2="10.8472" gradientUnits="userSpaceOnUse">
<stop stop-color="#6D7479"/>
<stop offset="0.425" stop-color="#565C60"/>
<stop offset="1" stop-color="#323538"/>
</linearGradient>
<linearGradient id="paint12_linear_78_53" x1="13.6307" y1="10.0815" x2="13.0117" y2="10.8249" gradientUnits="userSpaceOnUse">
<stop stop-color="#6D7479"/>
<stop offset="0.425" stop-color="#565C60"/>
<stop offset="1" stop-color="#323538"/>
</linearGradient>
<linearGradient id="paint13_linear_78_53" x1="10.4608" y1="11.696" x2="11.0524" y2="17.0532" gradientUnits="userSpaceOnUse">
<stop stop-color="#C3CDD9"/>
<stop offset="1" stop-color="#9FA7B0"/>
</linearGradient>
<linearGradient id="paint14_linear_78_53" x1="11.6293" y1="12.7411" x2="12.0921" y2="12.7736" gradientUnits="userSpaceOnUse">
<stop stop-color="#0D61A9"/>
<stop offset="1" stop-color="#16528C"/>
</linearGradient>
<linearGradient id="paint15_linear_78_53" x1="11.7424" y1="10.4206" x2="11.7424" y2="12.2799" gradientUnits="userSpaceOnUse">
<stop stop-color="#6D7479"/>
<stop offset="0.512" stop-color="#4D5256"/>
<stop offset="1" stop-color="#323538"/>
</linearGradient>
</defs>
</svg>
