<svg width="24" height="24" viewBox="0 0 24 24" fill="none" xmlns="http://www.w3.org/2000/svg">
<path d="M2.5 6.25006H5.5C5.776 6.25006 6 6.47406 6 6.75006V21.2501H2V6.75006C2 6.47406 2.224 6.25006 2.5 6.25006Z" fill="url(#paint0_linear_40_1352)"/>
<path d="M14.475 2.89656L19.728 8.14956L18.3995 9.47806L13.1465 4.22506C12.951 4.02956 12.951 3.71306 13.1465 3.51806L13.768 2.89656C13.963 2.70106 14.2795 2.70106 14.475 2.89656Z" fill="url(#paint1_linear_40_1352)"/>
<path d="M9.5 9.25006C9.776 9.25006 10 9.47406 10 9.75006V21.2501H6V9.25006H9.5Z" fill="url(#paint2_linear_40_1352)"/>
<path d="M13.5 12.2501C13.776 12.2501 14 12.4741 14 12.7501V21.2501H10V12.2501H13.5Z" fill="url(#paint3_linear_40_1352)"/>
<path d="M17.5 15.2501C17.776 15.2501 18 15.4741 18 15.7501V21.2501H14V15.2501H17.5Z" fill="#0078D4"/>
<path d="M21.5 18.2501C21.776 18.2501 22 18.4741 22 18.7501V21.2501H18V18.2501H21.5Z" fill="#0D62AB"/>
<path d="M16.6035 10.2501H20C20.276 10.2501 20.5 10.0261 20.5 9.75006V6.35356C20.5 6.13106 20.2305 6.01906 20.073 6.17656L16.4265 9.82306C16.2695 9.98056 16.381 10.2501 16.6035 10.2501Z" fill="url(#paint4_linear_40_1352)"/>
<defs>
<linearGradient id="paint0_linear_40_1352" x1="3.26114" y1="6.48035" x2="10.6411" y2="10.2748" gradientUnits="userSpaceOnUse">
<stop stop-color="#7DD8F3"/>
<stop offset="1" stop-color="#45B0D0"/>
</linearGradient>
<linearGradient id="paint1_linear_40_1352" x1="15.1212" y1="2.85323" x2="18.4481" y2="9.26789" gradientUnits="userSpaceOnUse">
<stop stop-color="#7DD8F3"/>
<stop offset="1" stop-color="#45B0D0"/>
</linearGradient>
<linearGradient id="paint2_linear_40_1352" x1="7.4614" y1="9.77315" x2="13.0246" y2="19.9706" gradientUnits="userSpaceOnUse">
<stop stop-color="#32BDEF"/>
<stop offset="1" stop-color="#1EA2E4"/>
</linearGradient>
<linearGradient id="paint3_linear_40_1352" x1="10.8862" y1="10.9093" x2="16.8865" y2="14.8242" gradientUnits="userSpaceOnUse">
<stop stop-color="#FCFCFC"/>
<stop offset="0.95" stop-color="#C3C9CD"/>
</linearGradient>
<linearGradient id="paint4_linear_40_1352" x1="17.6606" y1="6.16661" x2="19.7113" y2="10.1204" gradientUnits="userSpaceOnUse">
<stop stop-color="#7DD8F3"/>
<stop offset="1" stop-color="#45B0D0"/>
</linearGradient>
</defs>
</svg>
