<svg width="24" height="24" viewBox="0 0 24 24" fill="none" xmlns="http://www.w3.org/2000/svg">
<path d="M11.5173 4.40622L10.3902 3.27911C10.1404 3.02933 9.80133 2.88889 9.44756 2.88889H2.88889C2.39778 2.88889 2 3.28666 2 3.77777V17.1111C2 17.6022 2.39778 18 2.88889 18H19.7778C20.2689 18 20.6667 17.6022 20.6667 17.1111V5.55555C20.6667 5.06444 20.2689 4.66666 19.7778 4.66666H12.1458C11.9102 4.66666 11.684 4.57289 11.5173 4.40622Z" fill="url(#paint0_linear_40_1361)"/>
<path d="M10.2604 6.18399L11.7129 4.73155C11.7542 4.69021 11.8107 4.66666 11.8698 4.66666H19.7778C20.2689 4.66666 20.6667 5.06443 20.6667 5.55555V17.1111C20.6667 17.6022 20.2689 18 19.7778 18H2.88889C2.39778 18 2 17.6022 2 17.1111V6.66666C2 6.54399 2.09956 6.44443 2.22222 6.44443H9.632C9.86756 6.44443 10.0938 6.35066 10.2604 6.18399Z" fill="url(#paint1_linear_40_1361)"/>
<path d="M22 16.6667C22 19.1209 20.0098 21.1111 17.5556 21.1111C15.1013 21.1111 13.1111 19.1209 13.1111 16.6667C13.1111 14.2125 15.1013 12.2222 17.5556 12.2222C20.0098 12.2222 22 14.2125 22 16.6667Z" fill="url(#paint2_linear_40_1361)"/>
<path d="M19.1271 14.7809L19.4413 15.0951C19.528 15.1818 19.528 15.3227 19.4413 15.4093L16.2987 18.552C16.212 18.6387 16.0711 18.6387 15.9844 18.552L15.6702 18.2378C15.5836 18.1511 15.5836 18.0102 15.6702 17.9235L18.8129 14.7809C18.8996 14.6942 19.04 14.6942 19.1271 14.7809Z" fill="white"/>
<path d="M19.4413 18.2382L19.1271 18.5525C19.0404 18.6391 18.8996 18.6391 18.8129 18.5525L15.6702 15.4098C15.5836 15.3231 15.5836 15.1822 15.6702 15.0956L15.9844 14.7813C16.0711 14.6947 16.212 14.6947 16.2987 14.7813L19.4413 17.924C19.528 18.0107 19.528 18.1511 19.4413 18.2382Z" fill="white"/>
<defs>
<linearGradient id="paint0_linear_40_1361" x1="11.3333" y1="2.75911" x2="11.3333" y2="6.43422" gradientUnits="userSpaceOnUse">
<stop stop-color="#EBA600"/>
<stop offset="1" stop-color="#C28200"/>
</linearGradient>
<linearGradient id="paint1_linear_40_1361" x1="11.3333" y1="4.60177" x2="11.3333" y2="17.9924" gradientUnits="userSpaceOnUse">
<stop stop-color="#FFD869"/>
<stop offset="1" stop-color="#FEC52B"/>
</linearGradient>
<linearGradient id="paint2_linear_40_1361" x1="14.4129" y1="13.524" x2="20.6982" y2="19.8089" gradientUnits="userSpaceOnUse">
<stop stop-color="#F44F5A"/>
<stop offset="0.443" stop-color="#EE3D4A"/>
<stop offset="1" stop-color="#E52030"/>
</linearGradient>
</defs>
</svg>
