<svg width="24" height="24" viewBox="0 0 24 24" fill="none" xmlns="http://www.w3.org/2000/svg">
<path d="M3.11111 2H20.8889C21.5028 2 22 2.49722 22 3.11111V20.8889C22 21.5028 21.5028 22 20.8889 22H3.11111C2.49722 22 2 21.5028 2 20.8889V3.11111C2 2.49722 2.49722 2 3.11111 2Z" fill="url(#paint0_radial_40_1401)"/>
<path d="M22 20.8889V18.6667H2V20.8889C2 21.5028 2.49722 22 3.11111 22H20.8889C21.5028 22 22 21.5028 22 20.8889Z" fill="url(#paint1_linear_40_1401)"/>
<path opacity="0.05" d="M3.38889 21.4445C2.92944 21.4445 2.55556 21.0706 2.55556 20.6111V20.0556C2.55556 19.5961 2.92944 19.2222 3.38889 19.2222H3.94444C4.40389 19.2222 4.77778 19.5961 4.77778 20.0556V20.6111C4.77778 21.0706 4.40389 21.4445 3.94444 21.4445H3.38889Z" fill="black"/>
<path opacity="0.07" d="M3.38889 21.1667C3.08278 21.1667 2.83333 20.9172 2.83333 20.6111V20.0556C2.83333 19.7494 3.08278 19.5 3.38889 19.5H3.94444C4.25056 19.5 4.5 19.7494 4.5 20.0556V20.6111C4.5 20.9172 4.25056 21.1667 3.94444 21.1667H3.38889Z" fill="black"/>
<path d="M3.94444 20.8889H3.38889C3.23556 20.8889 3.11111 20.7644 3.11111 20.6111V20.0555C3.11111 19.9022 3.23556 19.7778 3.38889 19.7778H3.94444C4.09778 19.7778 4.22222 19.9022 4.22222 20.0555V20.6111C4.22222 20.7644 4.09778 20.8889 3.94444 20.8889Z" fill="white"/>
<path opacity="0.05" d="M4.5 6.99999C4.04056 6.99999 3.66667 6.6261 3.66667 6.16666V4.49999C3.66667 4.04055 4.04056 3.66666 4.5 3.66666H6.16667C6.62611 3.66666 7 4.04055 7 4.49999V6.16666C7 6.6261 6.62611 6.99999 6.16667 6.99999H4.5Z" fill="black"/>
<path opacity="0.07" d="M4.5 6.72224C4.19389 6.72224 3.94444 6.47279 3.94444 6.16668V4.50001C3.94444 4.1939 4.19389 3.94446 4.5 3.94446H6.16667C6.47278 3.94446 6.72222 4.1939 6.72222 4.50001V6.16668C6.72222 6.47279 6.47278 6.72224 6.16667 6.72224H4.5Z" fill="black"/>
<path d="M6.16667 6.44445H4.5C4.34667 6.44445 4.22222 6.32001 4.22222 6.16667V4.50001C4.22222 4.34667 4.34667 4.22223 4.5 4.22223H6.16667C6.32 4.22223 6.44444 4.34667 6.44444 4.50001V6.16667C6.44444 6.32001 6.32 6.44445 6.16667 6.44445Z" fill="white"/>
<path opacity="0.05" d="M4.5 11.4444C4.04056 11.4444 3.66667 11.0706 3.66667 10.6111V8.94445C3.66667 8.485 4.04056 8.11111 4.5 8.11111H6.16667C6.62611 8.11111 7 8.485 7 8.94445V10.6111C7 11.0706 6.62611 11.4444 6.16667 11.4444H4.5Z" fill="black"/>
<path opacity="0.07" d="M4.5 11.1667C4.19389 11.1667 3.94444 10.9172 3.94444 10.6111V8.94444C3.94444 8.63833 4.19389 8.38889 4.5 8.38889H6.16667C6.47278 8.38889 6.72222 8.63833 6.72222 8.94444V10.6111C6.72222 10.9172 6.47278 11.1667 6.16667 11.1667H4.5Z" fill="black"/>
<path d="M6.16667 10.8889H4.5C4.34667 10.8889 4.22222 10.7644 4.22222 10.6111V8.94443C4.22222 8.7911 4.34667 8.66666 4.5 8.66666H6.16667C6.32 8.66666 6.44444 8.7911 6.44444 8.94443V10.6111C6.44444 10.7644 6.32 10.8889 6.16667 10.8889Z" fill="white"/>
<defs>
<radialGradient id="paint0_radial_40_1401" cx="0" cy="0" r="1" gradientUnits="userSpaceOnUse" gradientTransform="translate(25.575 43.6134) scale(41.067 51.6608)">
<stop offset="0.323" stop-color="#23D9D6"/>
<stop offset="0.427" stop-color="#23D4D7"/>
<stop offset="0.542" stop-color="#21C7DC"/>
<stop offset="0.664" stop-color="#1FB0E2"/>
<stop offset="0.789" stop-color="#1C91EC"/>
<stop offset="0.917" stop-color="#1969F8"/>
<stop offset="0.944" stop-color="#1860FB"/>
</radialGradient>
<linearGradient id="paint1_linear_40_1401" x1="8.943" y1="18.8124" x2="9.03609" y2="22.4427" gradientUnits="userSpaceOnUse">
<stop stop-color="#0D61A9"/>
<stop offset="1" stop-color="#16528C"/>
</linearGradient>
</defs>
</svg>
