<svg width="24" height="24" viewBox="0 0 24 24" fill="none" xmlns="http://www.w3.org/2000/svg">
<path d="M17.9919 16.2239L16.2239 17.9919L20.1589 21.9269C20.2564 22.0244 20.4149 22.0244 20.5124 21.9269L21.9264 20.5129C22.0239 20.4154 22.0239 20.2569 21.9264 20.1594L17.9919 16.2239Z" fill="url(#paint0_linear_40_1420)"/>
<path d="M15.8009 14.0324L14.0329 15.8004L16.2244 17.9914L17.9919 16.2239L15.8009 14.0324Z" fill="url(#paint1_radial_40_1420)"/>
<path d="M10.0004 17.9999C14.4187 17.9999 18.0004 14.4182 18.0004 9.99994C18.0004 5.58166 14.4187 1.99994 10.0004 1.99994C5.58216 1.99994 2.00044 5.58166 2.00044 9.99994C2.00044 14.4182 5.58216 17.9999 10.0004 17.9999Z" fill="url(#paint2_linear_40_1420)"/>
<path d="M10.0004 14.4999C12.4857 14.4999 14.5004 12.4852 14.5004 9.99994C14.5004 7.51466 12.4857 5.49994 10.0004 5.49994C7.51516 5.49994 5.50044 7.51466 5.50044 9.99994C5.50044 12.4852 7.51516 14.4999 10.0004 14.4999Z" fill="url(#paint3_linear_40_1420)"/>
<path d="M10.0004 11.9999C11.105 11.9999 12.0004 11.1045 12.0004 9.99994C12.0004 8.89537 11.105 7.99994 10.0004 7.99994C8.89587 7.99994 8.00044 8.89537 8.00044 9.99994C8.00044 11.1045 8.89587 11.9999 10.0004 11.9999Z" fill="url(#paint4_radial_40_1420)"/>
<path d="M8.75044 9.49994C9.16465 9.49994 9.50044 9.16415 9.50044 8.74994C9.50044 8.33573 9.16465 7.99994 8.75044 7.99994C8.33623 7.99994 8.00044 8.33573 8.00044 8.74994C8.00044 9.16415 8.33623 9.49994 8.75044 9.49994Z" fill="white"/>
<defs>
<linearGradient id="paint0_linear_40_1420" x1="17.5034" y1="15.3634" x2="21.419" y2="21.1108" gradientUnits="userSpaceOnUse">
<stop stop-color="#FCFCFC"/>
<stop offset="0.95" stop-color="#C3C9CD"/>
</linearGradient>
<radialGradient id="paint1_radial_40_1420" cx="0" cy="0" r="1" gradientUnits="userSpaceOnUse" gradientTransform="translate(10.0124 10.0479) scale(9.802)">
<stop offset="0.693" stop-color="#006185"/>
<stop offset="0.921" stop-color="#35C1F1"/>
</radialGradient>
<linearGradient id="paint2_linear_40_1420" x1="5.54511" y1="-0.383628" x2="16.3908" y2="15.5377" gradientUnits="userSpaceOnUse">
<stop stop-color="#FCFCFC"/>
<stop offset="0.95" stop-color="#C3C9CD"/>
</linearGradient>
<linearGradient id="paint3_linear_40_1420" x1="7.13594" y1="7.13544" x2="12.9459" y2="12.9454" gradientUnits="userSpaceOnUse">
<stop stop-color="#32BDEF"/>
<stop offset="1" stop-color="#32BDEF"/>
</linearGradient>
<radialGradient id="paint4_radial_40_1420" cx="0" cy="0" r="1" gradientUnits="userSpaceOnUse" gradientTransform="translate(8.82194 7.07394) scale(5.191)">
<stop stop-color="#4B4B4B"/>
<stop offset="0.531" stop-color="#393939"/>
<stop offset="1" stop-color="#252525"/>
</radialGradient>
</defs>
</svg>
