<svg width="24" height="24" viewBox="0 0 24 24" fill="none" xmlns="http://www.w3.org/2000/svg">
<path d="M7.8625 4.79877C7.866 4.79927 7.8685 4.80077 7.872 4.80127L7.8725 4.80027L7.8625 4.79877Z" fill="url(#paint0_linear_40_1428)"/>
<path d="M13.049 18.4877L14 12.1187H20.6785C21.3325 12.1187 21.928 11.6482 21.9935 10.9977C22.0685 10.2492 21.483 9.61874 20.75 9.61874C20.6315 9.61874 3.016 9.61874 3.016 9.61874C2.366 10.3492 2 11.2922 2 12.2757V17.6187C2 19.2757 3.343 20.6187 5 20.6187H10.5765C11.8145 20.6187 12.866 19.7127 13.049 18.4877Z" fill="url(#paint1_linear_40_1428)"/>
<path d="M20.75 11.6187C21.1642 11.6187 21.5 11.2829 21.5 10.8687C21.5 10.4545 21.1642 10.1187 20.75 10.1187C20.3358 10.1187 20 10.4545 20 10.8687C20 11.2829 20.3358 11.6187 20.75 11.6187Z" fill="#FFF0C9"/>
<path d="M11.5 4.63026C11.5 3.77026 10.966 3.38126 10.254 3.38126L3.189 9.42426C3.127 9.48626 3.071 9.55326 3.013 9.61876H10.366C8.426 8.48226 10.1625 7.64926 9.961 6.78376C9.961 6.78376 11.5 6.42376 11.5 4.63026Z" fill="url(#paint2_linear_40_1428)"/>
<path d="M22 18.6188C22 17.9968 21.1555 16.4783 20.7335 15.7588C20.629 15.5803 20.3705 15.5803 20.266 15.7588C19.8445 16.4783 19 17.9968 19 18.6188C19 19.4478 19.6715 20.1188 20.5 20.1188C21.3285 20.1188 22 19.4478 22 18.6188Z" fill="url(#paint3_linear_40_1428)"/>
<defs>
<linearGradient id="paint0_linear_40_1428" x1="7.86848" y1="4.80118" x2="7.86832" y2="4.80217" gradientUnits="userSpaceOnUse">
<stop stop-color="#FFC430"/>
<stop offset="0.57" stop-color="#F8BD29"/>
<stop offset="1" stop-color="#F0B421"/>
</linearGradient>
<linearGradient id="paint1_linear_40_1428" x1="12.6985" y1="10.3167" x2="-0.779" y2="23.2947" gradientUnits="userSpaceOnUse">
<stop stop-color="#FFC430"/>
<stop offset="0.41" stop-color="#FEC130"/>
<stop offset="0.72" stop-color="#FCB730"/>
<stop offset="0.998" stop-color="#F7A72F"/>
<stop offset="1" stop-color="#F7A72F"/>
</linearGradient>
<linearGradient id="paint2_linear_40_1428" x1="6.7465" y1="6.31326" x2="10.9115" y2="10.5368" gradientUnits="userSpaceOnUse">
<stop offset="0.282" stop-color="#FFC430"/>
<stop offset="0.401" stop-color="#F8BD2D"/>
<stop offset="0.574" stop-color="#E5AA23"/>
<stop offset="0.78" stop-color="#C58A14"/>
<stop offset="1" stop-color="#9C6000"/>
</linearGradient>
<linearGradient id="paint3_linear_40_1428" x1="19.273" y1="15.9068" x2="21.203" y2="20.1488" gradientUnits="userSpaceOnUse">
<stop stop-color="#F44F5A"/>
<stop offset="0.443" stop-color="#EE3D4A"/>
<stop offset="1" stop-color="#E52030"/>
</linearGradient>
</defs>
</svg>
