<svg width="24" height="24" viewBox="0 0 24 24" fill="none" xmlns="http://www.w3.org/2000/svg">
<path d="M22 12C22 17.5225 17.5225 22 12 22C6.4775 22 2 17.5225 2 12C2 6.4775 6.4775 2 12 2C17.5225 2 22 6.4775 22 12Z" fill="url(#paint0_linear_40_6051)"/>
<path d="M15 14.0109C15 10.9269 10.6625 11.529 10.6625 9.70671C10.6625 8.75529 11.6811 8.70514 12 8.70514C12.7655 8.70514 13.5045 8.92071 14.0679 9.198C14.2455 9.28586 14.4496 9.15643 14.4496 8.95071V8.05286C14.4496 7.752 14.3419 7.57329 14.1696 7.503C13.7833 7.34529 13.2285 7.23043 12.4083 7.20171V6.21429C12.4083 6.096 12.3168 6 12.2041 6H11.7959C11.6832 6 11.5917 6.096 11.5917 6.21429V7.218C10.3195 7.34871 9 8.10214 9 9.85629C9 13.0534 13.3375 12.4196 13.3375 14.103C13.3375 14.6323 13.0154 15.0883 12 15.0883C10.9793 15.0883 10.0415 14.7146 9.52259 14.4356C9.34785 14.3417 9.14208 14.4776 9.14208 14.6833V15.705C9.14208 15.9009 9.25435 16.0753 9.42624 16.1516C10.0411 16.4259 10.8662 16.6333 11.5917 16.6941V17.7857C11.5917 17.904 11.6832 18 11.7959 18H12.2041C12.3168 18 12.4083 17.904 12.4083 17.7857V16.6967C14.3121 16.5296 15 15.192 15 14.0109Z" fill="white"/>
<defs>
<linearGradient id="paint0_linear_40_6051" x1="4.929" y1="4.929" x2="19.071" y2="19.071" gradientUnits="userSpaceOnUse">
<stop stop-color="#21AD64"/>
<stop offset="1" stop-color="#088242"/>
</linearGradient>
</defs>
</svg>
