<svg width="24" height="24" viewBox="0 0 24 24" fill="none" xmlns="http://www.w3.org/2000/svg">
<path d="M2 12C2 6.4775 6.4775 2 12 2C17.5225 2 22 6.4775 22 12C22 17.5225 17.5225 22 12 22C6.4775 22 2 17.5225 2 12Z" fill="url(#paint0_radial_40_1491)"/>
<path d="M20.5 12C20.5 10.3805 20.1635 8.8545 19.5805 7.5H20.9215C20.7475 7.1555 20.559 6.82 20.3475 6.5H19.0915C17.569 3.792 14.9605 2 12 2C9.0395 2 6.431 3.792 4.9085 6.5H3.6525C3.441 6.82 3.2525 7.1555 3.0785 7.5H4.4195C3.8365 8.8545 3.5 10.3805 3.5 12C3.5 13.6195 3.8365 15.1455 4.4195 16.5H3.0785C3.2525 16.8445 3.441 17.18 3.6525 17.5H4.9085C6.431 20.208 9.0395 22 12 22C14.9605 22 17.569 20.208 19.0915 17.5H20.3475C20.559 17.18 20.7475 16.8445 20.9215 16.5H19.5805C20.1635 15.1455 20.5 13.6195 20.5 12ZM19.5 12C19.5 13.64 19.1265 15.1745 18.4855 16.5H15.589C15.8605 15.0835 16 13.5265 16 12C16 10.4735 15.8605 8.9165 15.589 7.5H18.4855C19.1265 8.8255 19.5 10.36 19.5 12ZM12 21C11.155 21 10.2545 19.6815 9.663 17.5H14.3375C13.7455 19.6815 12.845 21 12 21ZM9.424 16.5C9.1605 15.2065 9 13.6855 9 12C9 10.3145 9.1605 8.7935 9.424 7.5H14.576C14.8395 8.7935 15 10.3145 15 12C15 13.6855 14.8395 15.2065 14.576 16.5H9.424ZM12 3C12.845 3 13.7455 4.3185 14.337 6.5H9.6625C10.2545 4.3185 11.155 3 12 3ZM17.9235 6.5H15.368C15.055 5.2505 14.6285 4.158 14.092 3.3635C15.6315 3.9015 16.9645 5.016 17.9235 6.5ZM9.908 3.3635C9.3715 4.1585 8.945 5.2505 8.632 6.5H6.0765C7.0355 5.016 8.3685 3.9015 9.908 3.3635ZM4.5 12C4.5 10.36 4.8735 8.8255 5.5145 7.5H8.411C8.1395 8.9165 8 10.4735 8 12C8 13.5265 8.1395 15.0835 8.411 16.5H5.5145C4.8735 15.1745 4.5 13.64 4.5 12ZM6.0765 17.5H8.632C8.945 18.7495 9.3715 19.842 9.908 20.6365C8.3685 20.0985 7.0355 18.984 6.0765 17.5ZM14.092 20.6365C14.6285 19.8415 15.055 18.7495 15.368 17.5H17.9235C16.9645 18.984 15.6315 20.0985 14.092 20.6365Z" fill="url(#paint1_radial_40_1491)"/>
<path opacity="0.05" d="M16.838 9.384L16.186 11.271L15.535 9.384H13.3165V10.5815C13.216 10.3905 13.1 10.2095 12.9505 10.051C12.49 9.5625 11.8865 9.315 11.1565 9.315C10.392 9.315 9.7635 9.5715 9.2885 10.078C9.254 10.115 9.2295 10.1585 9.1975 10.197V9.6185L8.8705 9.4985C8.54 9.377 8.1385 9.315 7.678 9.315C6.893 9.315 6.239 9.572 5.7355 10.079C5.233 10.585 4.978 11.244 4.978 12.0375C4.978 12.789 5.209 13.4075 5.664 13.875C6.1235 14.3455 6.7465 14.5845 7.5165 14.5845C8.0755 14.5845 8.546 14.494 8.915 14.316L9.197 14.1795V13.7435C9.228 13.7795 9.2515 13.8205 9.285 13.855C9.7535 14.339 10.3605 14.5845 11.0895 14.5845C11.8355 14.5845 12.454 14.3315 12.928 13.833C13.088 13.6645 13.2105 13.472 13.316 13.2685V14.5125H15.154V13.809L15.403 14.5125H16.873L17.102 13.848V14.5125H19.0205V9.384H16.838ZM8.445 12.585C8.22 12.717 7.9765 12.7815 7.702 12.7815C7.46 12.7815 7.287 12.7185 7.158 12.5825C7.0215 12.4385 6.958 12.2445 6.958 11.9715C6.958 11.684 7.0265 11.4805 7.1725 11.3305C7.316 11.184 7.5005 11.1155 7.754 11.1155C8.0145 11.1155 8.2455 11.175 8.442 11.2925L8.64 11.4105C8.6065 11.599 8.5875 11.7955 8.5875 12.0035C8.5875 12.1695 8.6035 12.3265 8.6265 12.4795L8.445 12.585ZM11.4825 12.619C11.389 12.734 11.281 12.781 11.108 12.781C10.9465 12.781 10.841 12.7315 10.743 12.61C10.6255 12.4645 10.566 12.244 10.566 11.954C10.566 11.6675 10.627 11.4445 10.7475 11.2905C10.845 11.1655 10.9565 11.115 11.1315 11.115C11.294 11.115 11.3955 11.1615 11.4835 11.276C11.5945 11.4215 11.6535 11.6615 11.6535 11.971C11.653 12.262 11.5955 12.48 11.4825 12.619Z" fill="black"/>
<g opacity="0.07">
<path d="M11.1565 9.56451C10.4635 9.56451 9.8965 9.79451 9.471 10.2485C9.218 10.5185 9.0495 10.845 8.9475 11.2135V9.79301L8.784 9.73301C8.481 9.62151 8.1085 9.56501 7.678 9.56501C6.9615 9.56501 6.368 9.79701 5.913 10.255C5.459 10.7125 5.2285 11.3125 5.2285 12.0375C5.2285 12.722 5.4355 13.2815 5.8435 13.7005C6.2535 14.121 6.8165 14.3345 7.517 14.3345C8.0385 14.3345 8.472 14.2525 8.8065 14.091L8.9475 14.0225V12.761C9.0485 13.111 9.2155 13.4225 9.465 13.681C9.8845 14.1145 10.4315 14.3345 11.09 14.3345C11.765 14.3345 12.3225 14.108 12.747 13.6605C13.168 13.217 13.3815 12.631 13.3815 11.919C13.3815 11.2245 13.175 10.6535 12.768 10.2215C12.3575 9.78601 11.815 9.56451 11.1565 9.56451ZM8.5715 12.801C8.307 12.956 8.0225 13.0315 7.702 13.0315C7.3905 13.0315 7.153 12.9405 6.9765 12.754C6.796 12.5635 6.708 12.307 6.708 11.9715C6.708 11.6195 6.8015 11.353 6.9935 11.156C7.1845 10.9605 7.433 10.8655 7.754 10.8655C8.0595 10.8655 8.3345 10.937 8.5705 11.0775L8.9285 11.2915C8.874 11.5145 8.837 11.748 8.837 12.003C8.837 12.2165 8.865 12.4145 8.9065 12.6045L8.5715 12.801ZM11.677 12.7765C11.536 12.9505 11.355 13.031 11.108 13.031C10.871 13.031 10.6935 12.9475 10.5485 12.767C10.3935 12.5755 10.3155 12.302 10.3155 11.954C10.3155 11.61 10.3945 11.335 10.5505 11.1365C10.6955 10.9515 10.88 10.8655 11.131 10.8655C11.371 10.8655 11.546 10.948 11.6815 11.1245C11.8285 11.3165 11.903 11.6015 11.903 11.9715C11.903 12.3215 11.8265 12.5925 11.677 12.7765Z" fill="black"/>
<path d="M17.016 9.634L16.1855 12.0375L15.357 9.634H13.567V14.2625H14.905V12.355L15.5805 14.2625H16.696L17.353 12.3555V14.2625H18.7715V9.634H17.016Z" fill="black"/>
</g>
<path d="M8.698 13.866C8.3965 14.012 8.003 14.085 7.5175 14.085C6.884 14.085 6.386 13.8985 6.0235 13.5265C5.661 13.1545 5.479 12.658 5.479 12.038C5.479 11.3775 5.683 10.842 6.091 10.4315C6.499 10.021 7.0285 9.81549 7.679 9.81549C8.0825 9.81549 8.422 9.86649 8.6985 9.96799V10.8635C8.422 10.6985 8.107 10.616 7.754 10.616C7.3665 10.616 7.0535 10.738 6.815 10.9815C6.577 11.225 6.458 11.555 6.458 11.9715C6.458 12.371 6.5705 12.689 6.795 12.926C7.0195 13.163 7.322 13.2815 7.702 13.2815C8.065 13.2815 8.397 13.1935 8.698 13.0165V13.866Z" fill="white"/>
<path d="M11.0905 14.0845C10.4995 14.0845 10.0175 13.892 9.645 13.507C9.273 13.122 9.0865 12.621 9.0865 12.0025C9.0865 11.35 9.276 10.822 9.654 10.419C10.032 10.016 10.533 9.81451 11.157 9.81451C11.7465 9.81451 12.223 10.0075 12.5865 10.3935C12.9505 10.779 13.132 11.288 13.132 11.9195C13.132 12.5685 12.9435 13.0915 12.5665 13.489C12.189 13.886 11.6975 14.0845 11.0905 14.0845ZM11.131 10.615C10.805 10.615 10.5455 10.7375 10.3535 10.982C10.1615 11.227 10.0655 11.551 10.0655 11.954C10.0655 12.3625 10.1615 12.686 10.3535 12.924C10.5455 13.162 10.797 13.281 11.108 13.281C11.4285 13.281 11.6825 13.1655 11.8705 12.934C12.059 12.703 12.1525 12.382 12.1525 11.971C12.1525 11.543 12.0615 11.21 11.879 10.972C11.6975 10.734 11.448 10.615 11.131 10.615Z" fill="white"/>
<path d="M18.5215 14.0125H17.603V11.542C17.603 11.275 17.6145 10.9805 17.6375 10.658H17.6145C17.5665 10.911 17.523 11.094 17.4845 11.205L16.517 14.0125H15.7565L14.772 11.234C14.745 11.1595 14.7015 10.9675 14.642 10.6585H14.616C14.641 11.0655 14.6535 11.4225 14.6535 11.7295V14.0125H13.8155V9.88351H15.1775L16.0215 12.331C16.089 12.527 16.1375 12.7235 16.1685 12.921H16.1855C16.2375 12.6925 16.292 12.494 16.3495 12.325L17.1935 9.88351H18.5205V14.0125H18.5215Z" fill="white"/>
<defs>
<radialGradient id="paint0_radial_40_1491" cx="0" cy="0" r="1" gradientUnits="userSpaceOnUse" gradientTransform="translate(5.166 4.5905) scale(20.0205)">
<stop stop-color="#6FCEFC"/>
<stop offset="1" stop-color="#167CF7"/>
</radialGradient>
<radialGradient id="paint1_radial_40_1491" cx="0" cy="0" r="1" gradientUnits="userSpaceOnUse" gradientTransform="translate(5.6325 4.24) scale(20.0775 20.0775)">
<stop offset="0.001" stop-color="#54C0F5"/>
<stop offset="0.998" stop-color="#0B69DB"/>
</radialGradient>
</defs>
</svg>
