<svg width="24" height="24" viewBox="0 0 24 24" fill="none" xmlns="http://www.w3.org/2000/svg">
<path d="M8.78225 19.3564L2.25239 12.8265C1.91587 12.49 1.91587 11.9448 2.25239 11.6083L3.99974 9.86094C4.33626 9.52442 4.88146 9.52442 5.21798 9.86094L11.7478 16.3908C12.0843 16.7273 12.0843 17.2725 11.7478 17.609L10.0005 19.3564C9.66396 19.6925 9.11876 19.6925 8.78225 19.3564Z" fill="url(#paint0_linear_40_1502)"/>
<path d="M7.0349 16.3908L18.782 4.64365C19.1185 4.30714 19.6638 4.30714 20.0003 4.64365L21.7476 6.391C22.0841 6.72752 22.0841 7.27272 21.7476 7.60924L10.0005 19.3564C9.66397 19.6929 9.11876 19.6929 8.78225 19.3564L7.0349 17.609C6.69882 17.2725 6.69882 16.7273 7.0349 16.3908Z" fill="url(#paint1_linear_40_1502)"/>
<defs>
<linearGradient id="paint0_linear_40_1502" x1="10.8005" y1="18.409" x2="3.10498" y2="10.7135" gradientUnits="userSpaceOnUse">
<stop offset="0.108" stop-color="#0D7044"/>
<stop offset="0.433" stop-color="#11945A"/>
</linearGradient>
<linearGradient id="paint1_linear_40_1502" x1="20.8738" y1="5.51749" x2="7.90879" y2="18.483" gradientUnits="userSpaceOnUse">
<stop stop-color="#2AC782"/>
<stop offset="1" stop-color="#21B876"/>
</linearGradient>
</defs>
</svg>
