<svg width="24" height="24" viewBox="0 0 24 24" fill="none" xmlns="http://www.w3.org/2000/svg">
<path d="M21.0224 9.27286L13.6462 4.87762C13.2152 4.55238 12.6686 4.38095 12.0638 4.38095H4.58857C3.13714 4.38095 2 5.46952 2 6.85857V16.8919C2 18.3443 3.20952 19.619 4.58857 19.619H19.4114C20.8629 19.619 22 18.5305 22 17.1414V11.2481C22 10.4786 21.6438 9.75857 21.0224 9.27286Z" fill="url(#paint0_linear_40_1506)"/>
<path d="M6.03381 12.9524H13.4286V15.3333H10.5714C10.5757 14.7738 10.3048 14.3876 10.0952 14.381C9.88286 14.3743 9.57858 14.7529 9.56286 15.3333H8.19048C8.18667 14.7681 7.91715 14.3843 7.71429 14.381C7.51 14.3776 7.22477 14.7581 7.21 15.3333H6.03334L4.85715 14.36V13.4286L6.03381 12.9524Z" fill="#CCD8DC"/>
<path d="M18.9843 11.9324C18.8886 11.5481 18.5876 11.2395 18.19 11.1286C17.8009 11.0205 16.4552 11.0205 16.0662 11.1286C15.6686 11.2391 13.9705 12.3138 13.2343 12.9819C12.8452 13.3353 12.8719 14.9576 13.2343 15.3033C13.8424 15.8838 15.6686 17.0462 16.0662 17.1567C16.4552 17.2648 17.8009 17.2648 18.19 17.1567C18.5876 17.0462 18.8886 16.7372 18.9843 16.3529C19.1119 15.8414 19.1429 15.0419 19.1429 14.1429C19.1429 13.2438 19.1119 12.4448 18.9843 11.9324ZM17.8838 15.6586C17.8462 15.8457 17.6876 15.9795 17.499 15.9872C17.3205 15.9943 17.1305 15.9995 17.0876 15.9986C16.8381 15.9948 16.6529 15.7691 16.6924 15.52C16.7567 15.1138 16.7724 14.6443 16.7724 14.1433C16.7724 13.6424 16.7567 13.1733 16.6924 12.7672C16.6529 12.5181 16.8386 12.2924 17.0881 12.2886C17.1386 12.2876 17.3252 12.2929 17.499 12.2995C17.6876 12.3067 17.8462 12.441 17.8838 12.6276C17.9667 13.0438 18.039 13.5719 18.039 14.1433C18.039 14.7148 17.9667 15.2424 17.8838 15.6586Z" fill="#2A2D30"/>
<path d="M11.6081 5.80951H4.93429C4.10286 5.80951 3.42857 6.44903 3.42857 7.23808V8.66665C3.42857 8.92951 3.65334 9.14284 3.93048 9.14284H16.2591C16.78 9.14284 16.9562 8.48284 16.4981 8.2476L12.3243 5.98141C12.1048 5.86856 11.8586 5.80951 11.6081 5.80951Z" fill="url(#paint1_linear_40_1506)"/>
<path opacity="0.07" d="M17.1276 11.0476C17.5614 11.0476 17.9948 11.0748 18.1895 11.1286C18.5871 11.2395 18.8881 11.5481 18.9838 11.9324C19.1119 12.4448 19.1429 13.2443 19.1429 14.1429C19.1429 15.0414 19.1119 15.841 18.9843 16.3529C18.8886 16.7372 18.5876 17.0462 18.19 17.1567C17.9952 17.211 17.5614 17.2381 17.1276 17.2381C16.6938 17.2381 16.2605 17.211 16.0657 17.1572C15.6743 17.0486 13.9033 15.9229 13.2667 15.3333H10.5714C10.5757 14.7738 10.3048 14.3876 10.0952 14.381C10.0933 14.381 10.0914 14.381 10.0895 14.381C9.87762 14.381 9.57857 14.7581 9.56286 15.3333H8.19047C8.18667 14.7681 7.91714 14.3843 7.71428 14.381C7.71333 14.381 7.71238 14.381 7.7119 14.381C7.50809 14.381 7.22476 14.7605 7.21047 15.3333H6.03333L4.85714 14.36V13.4286L6.03381 12.9524H13.2681C14.02 12.2829 15.6738 11.2376 16.0657 11.1286C16.2605 11.0748 16.6943 11.0476 17.1276 11.0476ZM17.1005 15.9986C17.161 15.9986 17.3348 15.9938 17.499 15.9872C17.6876 15.9795 17.8462 15.8457 17.8838 15.6586C17.9667 15.2424 18.039 14.7148 18.039 14.1433C18.039 13.5719 17.9667 13.0438 17.8838 12.6276C17.8462 12.441 17.6876 12.3067 17.499 12.2995C17.339 12.2933 17.1681 12.2886 17.1024 12.2886C17.0967 12.2886 17.0919 12.2886 17.0876 12.2886C16.8381 12.2924 16.6524 12.5181 16.6919 12.7672C16.7562 13.1733 16.7719 13.6424 16.7719 14.1433C16.7719 14.6443 16.7562 15.1138 16.6919 15.52C16.6524 15.7691 16.8376 15.9948 17.0871 15.9986C17.0905 15.9986 17.0952 15.9986 17.1005 15.9986ZM17.1276 10.5714C16.8767 10.5714 16.2581 10.581 15.9381 10.67C15.4643 10.8019 13.9005 11.8005 13.0914 12.4762H6.03381H5.94095L5.85524 12.511L4.67857 12.9872L4.38095 13.1076V13.4286V14.36V14.5838L4.55333 14.7267L5.72952 15.7L5.8619 15.8095H6.03333H7.21H7.67428L7.68619 15.3453C7.68762 15.2814 7.69381 15.2233 7.70238 15.1714C7.70952 15.2214 7.71381 15.2762 7.71428 15.3362L7.71762 15.8095H8.19047H9.56286H10.0262L10.039 15.3462C10.0419 15.2486 10.0552 15.1648 10.0733 15.0953C10.0871 15.1614 10.0957 15.2395 10.0952 15.3295L10.0914 15.8095H10.5714H13.0876C13.8329 16.4386 15.4748 17.4872 15.9386 17.6157C16.2581 17.7048 16.8767 17.7143 17.1276 17.7143C17.3786 17.7143 17.9971 17.7048 18.3171 17.6157C18.8757 17.4605 19.3081 17.021 19.4462 16.4686C19.5671 15.9819 19.619 15.2867 19.619 14.1429C19.619 12.9995 19.5671 12.3038 19.4462 11.8172C19.3086 11.2653 18.8762 10.8257 18.3176 10.6695C17.9971 10.581 17.379 10.5714 17.1276 10.5714ZM17.1733 15.5214C17.2395 15.0586 17.2481 14.5448 17.2481 14.1433C17.2481 13.7419 17.239 13.2286 17.1729 12.7657C17.2414 12.7672 17.3338 12.77 17.4267 12.7733C17.5167 13.2414 17.5624 13.7024 17.5624 14.1433C17.5624 14.5843 17.5167 15.0448 17.4262 15.5133C17.3324 15.5167 17.2395 15.5195 17.1733 15.5214Z" fill="black"/>
<defs>
<linearGradient id="paint0_linear_40_1506" x1="12" y1="4.91476" x2="12" y2="19.8452" gradientUnits="userSpaceOnUse">
<stop stop-color="#00B4F0"/>
<stop offset="1" stop-color="#0082DB"/>
</linearGradient>
<linearGradient id="paint1_linear_40_1506" x1="3.42857" y1="7.47618" x2="16.7619" y2="7.47618" gradientUnits="userSpaceOnUse">
<stop stop-color="#007AD9"/>
<stop offset="1" stop-color="#007DD5"/>
</linearGradient>
</defs>
</svg>
