<svg width="24" height="24" viewBox="0 0 24 24" fill="none" xmlns="http://www.w3.org/2000/svg">
<path d="M22 13.4583C22 16.2208 19.7625 18.4583 17 18.4583C16.25 18.4583 6.725 18.4583 5.95833 18.4583C3.77083 18.4583 2 16.6875 2 14.5C2 12.6083 3.325 11.025 5.10417 10.6333C5.8125 7.71249 8.44167 5.54166 11.5833 5.54166C13.8792 5.54166 15.9 6.69999 17.1 8.46249C19.8167 8.51249 22 10.7292 22 13.4583Z" fill="url(#paint0_linear_40_1532)"/>
<path opacity="0.05" d="M13.25 13.0417V10.125C13.25 9.66457 12.8771 9.29166 12.4167 9.29166H11.5833C11.1229 9.29166 10.75 9.66457 10.75 10.125V13.0417H9.64666C9.09 13.0417 8.81083 13.715 9.20458 14.1087L11.4108 16.315C11.7362 16.6404 12.2637 16.6404 12.5892 16.315L14.7954 14.1087C15.1892 13.715 14.9104 13.0417 14.3533 13.0417H13.25Z" fill="black"/>
<path opacity="0.07" d="M13.0417 13.25V10.125C13.0417 9.78 12.7617 9.5 12.4167 9.5H11.5833C11.2383 9.5 10.9583 9.78 10.9583 10.125V13.25H9.69958C9.30875 13.25 9.11291 13.7225 9.38916 13.9992L11.5262 16.1367C11.7875 16.3979 12.2112 16.3979 12.4725 16.1367L14.6096 13.9992C14.8858 13.7229 14.6904 13.25 14.2992 13.25H13.0417Z" fill="black"/>
<path d="M14.2471 13.4583H12.8333V10.125C12.8333 9.89498 12.6467 9.70831 12.4167 9.70831H11.5833C11.3533 9.70831 11.1667 9.89498 11.1667 10.125V13.4583H9.75292C9.52792 13.4583 9.41542 13.7304 9.57458 13.8891L11.6429 15.9575C11.84 16.1546 12.16 16.1546 12.3571 15.9575L14.4254 13.8891C14.5846 13.7304 14.4721 13.4583 14.2471 13.4583Z" fill="white"/>
<defs>
<linearGradient id="paint0_linear_40_1532" x1="7.93417" y1="6.10749" x2="14.5717" y2="18.7479" gradientUnits="userSpaceOnUse">
<stop stop-color="#2AA4F4"/>
<stop offset="1" stop-color="#007AD9"/>
</linearGradient>
</defs>
</svg>
