<svg width="24" height="24" viewBox="0 0 24 24" fill="none" xmlns="http://www.w3.org/2000/svg">
<path d="M7.65217 18.0869V16.7826H16.3478V18.0869L21.9999 18.3135V18.9565C21.9999 19.2174 21.826 19.3913 21.5651 19.3913H2.43482C2.17395 19.3913 2.00004 19.2174 2.00004 18.9565V18.3478L7.65217 18.0869Z" fill="url(#paint0_linear_40_1669)"/>
<path d="M19.826 16.3478H4.17393C3.69568 16.3478 3.30437 15.9565 3.30437 15.4782V5.47832C3.30437 5.00007 3.69568 4.60876 4.17393 4.60876H19.826C20.3042 4.60876 20.6956 5.00007 20.6956 5.47832V15.4782C20.6956 15.9565 20.3042 16.3478 19.826 16.3478Z" fill="url(#paint1_linear_40_1669)"/>
<path d="M19.826 5.47833H4.17393V15.4783H19.826V5.47833Z" fill="url(#paint2_radial_40_1669)"/>
<path d="M21.9668 18.2174L20.7103 16.6956C20.5369 16.4782 20.2769 16.3478 20.0169 16.3478H3.98481C3.72481 16.3478 3.46481 16.4782 3.29133 16.6956L2.03482 18.2608C1.9483 18.3913 2.03482 18.5652 2.16482 18.5652H8.66434C8.83781 18.5652 8.96781 18.4782 9.05434 18.3043L9.22781 17.913C9.31433 17.7826 9.44433 17.6521 9.61781 17.6521H14.2973C14.4708 17.6521 14.6008 17.7391 14.6873 17.913L14.8608 18.3043C14.9473 18.4348 15.0773 18.5652 15.2508 18.5652H21.7503C21.9668 18.5217 22.0534 18.3478 21.9668 18.2174Z" fill="url(#paint3_linear_40_1669)"/>
<path d="M16.5651 8.087H10.0435C9.92346 8.087 9.82607 7.98961 9.82607 7.86961V7.43483C9.82607 7.31483 9.92346 7.21744 10.0435 7.21744H16.5651C16.6851 7.21744 16.7825 7.31483 16.7825 7.43483V7.86961C16.7825 7.98961 16.6851 8.087 16.5651 8.087Z" fill="white"/>
<path d="M7.65218 13.087V7.43483C7.65218 7.31483 7.74957 7.21744 7.86957 7.21744H8.30435C8.42434 7.21744 8.52173 7.31483 8.52173 7.43483V13.087C8.52173 13.207 8.42434 13.3043 8.30435 13.3043H7.86957C7.74957 13.3043 7.65218 13.207 7.65218 13.087Z" fill="white"/>
<path d="M16.5651 9.82613H10.0435C9.92346 9.82613 9.82607 9.72874 9.82607 9.60874V9.17396C9.82607 9.05396 9.92346 8.95657 10.0435 8.95657H16.5651C16.6851 8.95657 16.7825 9.05396 16.7825 9.17396V9.60874C16.7825 9.72874 16.6851 9.82613 16.5651 9.82613Z" fill="white"/>
<path d="M16.5651 11.5652H10.0435C9.92346 11.5652 9.82607 11.4678 9.82607 11.3478V10.9131C9.82607 10.7931 9.92346 10.6957 10.0435 10.6957H16.5651C16.6851 10.6957 16.7825 10.7931 16.7825 10.9131V11.3478C16.7825 11.4678 16.6851 11.5652 16.5651 11.5652Z" fill="white"/>
<path d="M14.826 13.3043H10.0435C9.92346 13.3043 9.82607 13.207 9.82607 13.087V12.6522C9.82607 12.5322 9.92346 12.4348 10.0435 12.4348H14.826C14.946 12.4348 15.0434 12.5322 15.0434 12.6522V13.087C15.0434 13.207 14.946 13.3043 14.826 13.3043Z" fill="white"/>
<defs>
<linearGradient id="paint0_linear_40_1669" x1="12" y1="16.7769" x2="12" y2="19.3965" gradientUnits="userSpaceOnUse">
<stop stop-color="#A1AAB3"/>
<stop offset="1" stop-color="#8F979E"/>
</linearGradient>
<linearGradient id="paint1_linear_40_1669" x1="5.20175" y1="4.74268" x2="18.259" y2="15.7591" gradientUnits="userSpaceOnUse">
<stop stop-color="#A1AAB3"/>
<stop offset="1" stop-color="#8F979E"/>
</linearGradient>
<radialGradient id="paint2_radial_40_1669" cx="0" cy="0" r="1" gradientUnits="userSpaceOnUse" gradientTransform="translate(22.6264 26.2844) scale(34.1515 30.325)">
<stop offset="0.323" stop-color="#23D9D6"/>
<stop offset="0.427" stop-color="#23D4D7"/>
<stop offset="0.542" stop-color="#21C7DC"/>
<stop offset="0.664" stop-color="#1FB0E2"/>
<stop offset="0.789" stop-color="#1C91EC"/>
<stop offset="0.917" stop-color="#1969F8"/>
<stop offset="0.944" stop-color="#1860FB"/>
</radialGradient>
<linearGradient id="paint3_linear_40_1669" x1="12" y1="16.343" x2="12" y2="18.5261" gradientUnits="userSpaceOnUse">
<stop stop-color="#484B4F"/>
<stop offset="0.028" stop-color="#565B61"/>
<stop offset="0.066" stop-color="#626A72"/>
<stop offset="0.114" stop-color="#6B757D"/>
<stop offset="0.181" stop-color="#717B84"/>
<stop offset="0.367" stop-color="#727D86"/>
</linearGradient>
</defs>
</svg>
