<svg width="24" height="24" viewBox="0 0 24 24" fill="none" xmlns="http://www.w3.org/2000/svg">
<path d="M18.8594 4.5C18.169 4.5 17.6094 3.94032 17.6094 3.25C17.6094 2.55969 18.169 2 18.8594 2C19.5497 2 20.1094 2.55969 20.1094 3.25C20.1094 3.94032 19.5497 4.5 18.8594 4.5Z" fill="url(#paint0_radial_40_1571)"/>
<path d="M18.5469 14.1875L18.8594 14.5C18.8594 15.1032 17.9437 15.75 18.5469 15.75H19.4844C19.8281 15.75 20.1406 15.8906 20.3688 16.1156C20.5806 16.3303 20.7174 16.62 20.7328 16.94C20.7672 17.6597 20.1344 18.25 19.414 18.25H18.0781C17.8624 18.25 17.6656 18.3375 17.525 18.4782C17.3844 18.6187 17.2969 18.8156 17.2969 19.0312C17.2969 19.2469 17.3844 19.4438 17.525 19.5843C17.6656 19.725 17.8624 19.8125 18.0781 19.8125C18.3781 19.8125 18.6531 19.9343 18.85 20.1343C19.0409 20.3222 19.1606 20.5812 19.1713 20.8653C19.1944 21.4891 18.6409 22 18.0169 22H4.32811C4.02811 22 3.75311 21.8782 3.55624 21.6782C3.3653 21.4903 3.24561 21.2313 3.23499 20.9472C3.21186 20.3234 3.7653 19.8125 4.38936 19.8125H7.92186C8.09374 19.8125 8.24999 19.7437 8.36249 19.6281C8.4903 19.5037 8.56093 19.3257 8.54468 19.1322C8.51655 18.8032 8.21718 18.5625 7.88686 18.5625H6.12499C5.77811 18.5625 5.46561 18.4219 5.24061 18.1969C4.96249 17.915 4.81343 17.5043 4.89905 17.065C5.01499 16.4716 5.56749 16.0625 6.17218 16.0625H6.20311C6.41874 16.0625 6.61561 15.975 6.75624 15.8343C6.88655 15.7041 6.97124 15.5257 6.9828 15.3287C7.0103 14.8737 6.60905 14.5 6.15311 14.5H4.48436C3.79374 14.5 3.23436 13.9406 3.23436 13.25C3.23436 13.25 2.23124 11.0625 2.92186 11.0625L4.17186 10.4375H5.26561C5.69718 10.4375 6.04686 10.0878 6.04686 9.65625C6.04686 9.22469 5.69718 8.875 5.26561 8.875H4.48436C3.96655 8.875 3.54686 8.45532 3.54686 7.9375C3.54686 7.41968 3.96655 7 4.48436 7H8.54686C8.89061 7 9.20311 6.85938 9.43124 6.63438C9.64311 6.41969 9.77999 6.13 9.7953 5.81C9.82968 5.09032 9.19686 4.5 8.47655 4.5H6.04686C5.70311 4.5 5.39061 4.35938 5.16249 4.13437C4.95061 3.91968 4.81343 3.63 4.79843 3.31C4.76405 2.59031 5.39686 2 6.11718 2H15.7344C16.0781 2 16.3906 2.14062 16.6188 2.36562C16.8306 2.58031 16.9674 2.87 16.9828 3.19C17.0172 3.90969 16.3844 4.5 15.664 4.5H15.1094C14.85 4.5 14.6156 4.60625 14.4469 4.775C14.2634 4.95844 14.1537 5.21969 14.1744 5.50593C14.2103 6.00562 14.6615 6.375 15.1622 6.375H15.8906C16.1906 6.375 16.4656 6.49687 16.6625 6.69688C16.8534 6.88468 16.9731 7.14375 16.9838 7.42781C17.0069 8.05156 16.4534 8.5625 15.8294 8.5625H15.4219C15.1624 8.5625 14.9281 8.66875 14.7594 8.8375C14.5759 9.02094 14.4662 9.28218 14.4869 9.56843C14.5228 10.0681 14.974 10.4375 15.4747 10.4375H20.4219C20.8531 10.4375 21.2437 10.6125 21.5281 10.8937C21.7969 11.1656 21.9687 11.5343 21.9834 11.9432C22.0153 12.8332 21.2372 13.5625 20.3465 13.5625H19.6406C19.0374 13.5625 18.5469 13.5843 18.5469 14.1875Z" fill="url(#paint1_radial_40_1571)"/>
<path d="M4.59779 9.66718C3.18936 9.66718 2.01561 10.2647 2.01561 12.0675C2.01561 13.4956 2.80467 14.395 4.63404 14.395C5.96404 14.395 6.52529 13.8537 6.75999 13.44C6.87749 13.2328 6.72311 12.9766 6.48529 12.9766H5.74217C5.64561 12.9766 5.54686 13.01 5.48529 13.0847C4.98124 13.6925 3.50967 13.5641 3.35499 12.4884C3.34124 12.3918 3.41154 12.3031 3.50904 12.3031C4.08217 12.3031 5.97311 12.3031 6.72342 12.3031C6.89592 12.3031 7.03436 12.1631 7.03436 11.9906V11.7766C7.03436 10.9468 6.50749 9.66718 4.59779 9.66718ZM5.37374 11.3187H3.70904C3.57342 11.3187 3.50374 11.1591 3.59217 11.0559C4.04717 10.5243 5.10749 10.5047 5.50842 11.0816C5.57749 11.1812 5.49499 11.3187 5.37374 11.3187Z" fill="url(#paint2_linear_40_1571)"/>
<path d="M7.34624 7.96875C7.17374 7.96875 7.03374 8.10875 7.03374 8.28125V13.5368C7.03374 13.6737 7.02936 13.835 7.02468 13.9734C7.02186 14.0581 7.05343 14.1406 7.11218 14.2016C7.17124 14.2625 7.25218 14.2968 7.33718 14.2968H8.0328C8.19811 14.2968 8.33499 14.1681 8.34468 14.0031C8.34499 13.9997 8.34499 13.9966 8.3453 13.9931C8.62405 14.2075 9.11061 14.4559 9.8703 14.4559C11.2781 14.4559 12.2344 13.4787 12.2344 12.0784C12.2344 10.7759 11.3559 9.72813 9.8728 9.72813C9.10218 9.72813 8.62624 9.95906 8.3553 10.1647V8.28125C8.3553 8.10875 8.2153 7.96875 8.0428 7.96875H7.34624ZM9.61561 10.7293C11.3338 10.7337 11.234 13.4547 9.6228 13.4547C7.94905 13.4547 7.94249 10.7341 9.61561 10.7293Z" fill="url(#paint3_linear_40_1571)"/>
<path d="M14.7072 9.71439C13.3131 9.71439 12.7774 10.2166 12.574 10.6128C12.469 10.8175 12.6269 11.06 12.8565 11.06H13.5634C13.6662 11.06 13.7559 11.0031 13.8159 10.9197C13.9124 10.7859 14.1337 10.6222 14.6324 10.6222C15.4444 10.6222 15.5797 11.0543 15.5897 11.0797C15.6265 11.1743 15.6328 11.2753 15.6324 11.3766C15.6324 11.4628 15.5624 11.5328 15.4762 11.5328L14.634 11.5331C12.9924 11.5331 12.1247 12.0134 12.1247 12.9878C12.1247 13.9468 12.9265 14.4688 14.0099 14.4688C14.8512 14.4688 15.3674 14.2041 15.6562 13.9759C15.6565 13.9831 15.6569 13.9903 15.6572 13.9975C15.664 14.165 15.8015 14.2972 15.9694 14.2972H16.5881C16.6744 14.2972 16.7565 14.2616 16.8156 14.1991C16.8747 14.1363 16.9056 14.0522 16.9003 13.9659C16.8937 13.8588 16.8887 13.7428 16.8887 13.6472V11.455C16.8894 10.0169 15.7299 9.71439 14.7072 9.71439ZM15.3803 12.5028C15.4822 12.5043 15.554 12.6022 15.5294 12.7013C15.2756 13.7188 13.4924 13.7016 13.4924 12.9978C13.4924 12.4968 14.6853 12.4922 15.3803 12.5028Z" fill="url(#paint4_linear_40_1571)"/>
<path d="M16.5662 10.3559C16.4553 10.1478 16.6062 9.89658 16.8422 9.89658H17.6422C17.7606 9.89658 17.8687 9.96345 17.9219 10.0694L19.0706 12.3713C19.1281 12.4866 19.2928 12.4866 19.3503 12.3713L20.4962 10.07C20.549 9.96376 20.6574 9.89688 20.7759 9.89688H21.4744C21.7078 9.89688 21.8587 10.1435 21.7528 10.3513L18.9769 15.7997C18.9234 15.9044 18.8159 15.9703 18.6984 15.9703H17.9256C17.6903 15.9703 17.5394 15.72 17.649 15.5119L18.4384 14.0157C18.4624 13.9697 18.4625 13.915 18.4381 13.8694L16.5662 10.3559Z" fill="url(#paint5_linear_40_1571)"/>
<defs>
<radialGradient id="paint0_radial_40_1571" cx="0" cy="0" r="1" gradientUnits="userSpaceOnUse" gradientTransform="translate(12.8047 11.9609) scale(7.25188)">
<stop stop-color="#F4E9C3"/>
<stop offset="0.219" stop-color="#F8EECD"/>
<stop offset="0.644" stop-color="#FDF4DC"/>
<stop offset="1" stop-color="#FFF6E1"/>
</radialGradient>
<radialGradient id="paint1_radial_40_1571" cx="0" cy="0" r="1" gradientUnits="userSpaceOnUse" gradientTransform="translate(12.3319 12) scale(9.82783 8.845)">
<stop stop-color="#F4E9C3"/>
<stop offset="0.219" stop-color="#F8EECD"/>
<stop offset="0.644" stop-color="#FDF4DC"/>
<stop offset="1" stop-color="#FFF6E1"/>
</radialGradient>
<linearGradient id="paint2_linear_40_1571" x1="4.52499" y1="14.395" x2="4.52499" y2="9.66718" gradientUnits="userSpaceOnUse">
<stop stop-color="#FF634D"/>
<stop offset="0.204" stop-color="#FE6464"/>
<stop offset="0.521" stop-color="#FC6581"/>
<stop offset="0.794" stop-color="#FA6694"/>
<stop offset="0.989" stop-color="#FA669A"/>
<stop offset="1" stop-color="#FA669A"/>
</linearGradient>
<linearGradient id="paint3_linear_40_1571" x1="9.62936" y1="15.8009" x2="9.62936" y2="8.54156" gradientUnits="userSpaceOnUse">
<stop stop-color="#155CDE"/>
<stop offset="0.278" stop-color="#1F7FE5"/>
<stop offset="0.569" stop-color="#279CEB"/>
<stop offset="0.82" stop-color="#2CAFEF"/>
<stop offset="1" stop-color="#2EB5F0"/>
</linearGradient>
<linearGradient id="paint4_linear_40_1571" x1="14.5134" y1="17.5253" x2="14.5134" y2="8.28282" gradientUnits="userSpaceOnUse">
<stop stop-color="#FEAA53"/>
<stop offset="0.612" stop-color="#FFCD49"/>
<stop offset="1" stop-color="#FFDE44"/>
</linearGradient>
<linearGradient id="paint5_linear_40_1571" x1="19.1581" y1="8.7347" x2="19.1581" y2="20.7688" gradientUnits="userSpaceOnUse">
<stop stop-color="#42D778"/>
<stop offset="0.996" stop-color="#34B171"/>
<stop offset="1" stop-color="#34B171"/>
</linearGradient>
</defs>
</svg>
