<svg width="24" height="24" viewBox="0 0 24 24" fill="none" xmlns="http://www.w3.org/2000/svg">
<path d="M2.9525 4H21.0475C21.5735 4 22 4.434 22 4.9695V19.03C22 19.566 21.5735 20 21.0475 20H2.9525C2.4265 20 2 19.566 2 19.0305V4.9695C2 4.434 2.4265 4 2.9525 4Z" fill="url(#paint0_linear_40_1579)"/>
<path d="M20 6C20 5.724 19.776 5.5 19.5 5.5H4.5C4.224 5.5 4 5.724 4 6V18C4 18.276 4.224 18.5 4.5 18.5H19.5C19.776 18.5 20 18.276 20 18C20 18 20 6.035 20 6ZM10 10.5H14V13.5H10V10.5ZM9 13.5H5V10.5H9V13.5ZM14 9.5H10V6.5H14V9.5ZM15 6.5H19V9.5H15V6.5ZM15 10.5H19V13.5H15V10.5ZM9 6.5V9.5H5V6.5H9ZM5 17.5V14.5H9V17.5H5ZM10 14.5H14V17.5H10V14.5ZM15 17.5V14.5H19V17.5H15Z" fill="#8AF2FF"/>
<path d="M22 16.5H20.205L18.605 6.4215C18.5665 6.1785 18.357 6 18.111 6C17.865 6 17.6555 6.1785 17.617 6.4215L16.0175 16.5H15.187L14.1565 11.401C14.1095 11.168 13.905 11 13.6665 11C13.428 11 13.2235 11.168 13.1765 11.401L12.1465 16.5H11.3125L9.7155 6.918C9.6755 6.677 9.4665 6.5 9.222 6.5C8.9775 6.5 8.769 6.677 8.729 6.918L7.132 16.5H6.3105L5.2705 10.4155C5.2295 10.176 5.0215 10 4.778 10C4.5345 10 4.326 10.176 4.285 10.4155L3.245 16.5H2V17.5H3.6665C3.91 17.5 4.1185 17.324 4.1595 17.0845L4.7775 13.4675L5.3955 17.0845C5.437 17.324 5.6455 17.5 5.889 17.5H7.5555C7.8 17.5 8.0085 17.323 8.0485 17.082L9.222 10.0415L10.3955 17.082C10.436 17.323 10.6445 17.5 10.889 17.5H12.5555C12.7935 17.5 12.9985 17.332 13.0455 17.099L13.6665 14.025L14.2875 17.099C14.335 17.332 14.54 17.5 14.778 17.5H16.4445C16.6905 17.5 16.9 17.3215 16.9385 17.0785L18.1115 9.6895L19.2845 17.0785C19.3225 17.3215 19.532 17.5 19.778 17.5H22V16.5Z" fill="#0D62AB"/>
<defs>
<linearGradient id="paint0_linear_40_1579" x1="8.30571" y1="4.24565" x2="15.1581" y2="20.7605" gradientUnits="userSpaceOnUse">
<stop stop-color="#7DD8F3"/>
<stop offset="1" stop-color="#45B0D0"/>
</linearGradient>
</defs>
</svg>
