<svg width="24" height="24" viewBox="0 0 24 24" fill="none" xmlns="http://www.w3.org/2000/svg">
<path d="M18.1905 2H2.95241C2.42622 2 2.00003 2.42619 2.00003 2.95238V17.2381C2.00003 17.7643 2.42622 18.1905 2.95241 18.1905H18.1905C18.7167 18.1905 19.1429 17.7643 19.1429 17.2381V2.95238C19.1429 2.42619 18.7167 2 18.1905 2Z" fill="url(#paint0_linear_40_1584)"/>
<path d="M14.4119 10.1262C13.8648 9.57903 12.981 9.56712 12.4191 10.099L7.71431 14.5562V19.1428H18.1905C18.7167 19.1428 19.1429 18.7166 19.1429 18.1905V14.8571L14.4119 10.1262Z" fill="url(#paint1_linear_40_1584)"/>
<path d="M13.6667 7.71428C14.5872 7.71428 15.3334 6.96809 15.3334 6.04762C15.3334 5.12714 14.5872 4.38095 13.6667 4.38095C12.7462 4.38095 12 5.12714 12 6.04762C12 6.96809 12.7462 7.71428 13.6667 7.71428Z" fill="#FFF8DE"/>
<path d="M2.95241 19.1428H18.1905C18.5767 19.1428 18.9081 18.9119 19.0572 18.5809L8.69765 8.22142C8.15051 7.67427 7.2667 7.66237 6.70479 8.19427L2.00003 12.6514V18.1905C2.00003 18.7167 2.42622 19.1428 2.95241 19.1428Z" fill="url(#paint2_linear_40_1584)"/>
<path opacity="0.05" d="M19.1429 13.2381V17.4286L17.4286 19.1429H13.2381L19.1429 13.2381Z" fill="black"/>
<path opacity="0.07" d="M19.1429 13.5762V17.0905L17.0905 19.1429H13.5762L19.1429 13.5762Z" fill="black"/>
<path d="M21.8958 13.4957L20.9805 12.581C20.8415 12.4414 20.6148 12.4414 20.4753 12.581L20.0448 13.0119L21.4643 14.4314L21.8953 14.001C22.0348 13.861 22.0348 13.6352 21.8958 13.4957Z" fill="#C94F60"/>
<path d="M12.9538 20.1029L12.4762 22L14.3738 21.5224L14.5729 19.8767L12.9538 20.1029Z" fill="#F0F0F0"/>
<path d="M20.2538 15.6419L14.3738 21.5219L12.9543 20.1024L18.8343 14.2224L20.2538 15.6419Z" fill="#EDBE00"/>
<path d="M18.8329 14.2224L20.0438 13.011L21.4643 14.4305L20.2534 15.6419L18.8329 14.2224Z" fill="url(#paint3_linear_40_1584)"/>
<path d="M12.7181 21.0405L12.4762 22L13.4353 21.7581L12.7181 21.0405Z" fill="#787878"/>
<defs>
<linearGradient id="paint0_linear_40_1584" x1="7.40493" y1="2.24857" x2="15.1434" y2="18.0465" gradientUnits="userSpaceOnUse">
<stop stop-color="#7DD8F3"/>
<stop offset="1" stop-color="#45B0D0"/>
</linearGradient>
<linearGradient id="paint1_linear_40_1584" x1="7.71431" y1="14.4252" x2="19.1429" y2="14.4252" gradientUnits="userSpaceOnUse">
<stop stop-color="#3CCBF4"/>
<stop offset="1" stop-color="#1FA0E5"/>
</linearGradient>
<linearGradient id="paint2_linear_40_1584" x1="10.5286" y1="7.80285" x2="10.5286" y2="19.1428" gradientUnits="userSpaceOnUse">
<stop stop-color="#28AFEA"/>
<stop offset="1" stop-color="#0B88DA"/>
</linearGradient>
<linearGradient id="paint3_linear_40_1584" x1="20.1486" y1="13.101" x2="20.1486" y2="15.7148" gradientUnits="userSpaceOnUse">
<stop stop-color="#DEDEDE"/>
<stop offset="1" stop-color="#D6D6D6"/>
</linearGradient>
</defs>
</svg>
