<svg width="24" height="24" viewBox="0 0 24 24" fill="none" xmlns="http://www.w3.org/2000/svg">
<path d="M6.25005 22C6.66426 22 7.00005 21.6642 7.00005 21.25C7.00005 20.8358 6.66426 20.5 6.25005 20.5C5.83584 20.5 5.50005 20.8358 5.50005 21.25C5.50005 21.6642 5.83584 22 6.25005 22Z" fill="url(#paint0_linear_40_1617)"/>
<path d="M6.61154 12.5L6.70304 16.128L5.51704 21.09L6.96454 21.479L8.73404 17L9.51254 13.0745L6.61154 12.5Z" fill="url(#paint1_linear_40_1617)"/>
<path d="M17.9995 22C17.7595 22 17.5475 21.8265 17.507 21.582L16.007 12.582C15.9615 12.31 16.1455 12.052 16.418 12.007C16.6905 11.959 16.948 12.1455 16.993 12.418L18.493 21.418C18.5385 21.69 18.3545 21.948 18.082 21.993C18.054 21.998 18.027 22 17.9995 22Z" fill="#C26715"/>
<path d="M11 9C12.1046 9 13 8.10457 13 7C13 5.89543 12.1046 5 11 5C9.89548 5 9.00005 5.89543 9.00005 7C9.00005 8.10457 9.89548 9 11 9Z" fill="url(#paint2_linear_40_1617)"/>
<path d="M8.50005 14C9.60462 14 10.5 13.1046 10.5 12C10.5 10.8954 9.60462 10 8.50005 10C7.39548 10 6.50005 10.8954 6.50005 12C6.50005 13.1046 7.39548 14 8.50005 14Z" fill="url(#paint3_linear_40_1617)"/>
<path d="M13.25 22C13.6642 22 14 21.6642 14 21.25C14 20.8358 13.6642 20.5 13.25 20.5C12.8358 20.5 12.5 20.8358 12.5 21.25C12.5 21.6642 12.8358 22 13.25 22Z" fill="url(#paint4_linear_40_1617)"/>
<path d="M16.75 13C17.1642 13 17.5 12.6642 17.5 12.25C17.5 11.8358 17.1642 11.5 16.75 11.5C16.3358 11.5 16 11.8358 16 12.25C16 12.6642 16.3358 13 16.75 13Z" fill="url(#paint5_linear_40_1617)"/>
<path d="M13.9595 21.0105L12.3655 15.9385L10.8025 12.2915C10.8025 12.2915 10.73 10.735 12.2265 9.11001L13.7255 10.9835L16.316 12.857L17.2285 11.7165L14.7845 9.50051L12.6955 5.94251L9.77155 5.43301C7.32755 7.24301 6.50005 10.499 6.50005 12L7.06305 13.3805L10.2095 16.6785L12.5935 21.6055L13.9595 21.0105Z" fill="url(#paint6_linear_40_1617)"/>
<path d="M13.5 4C13.5 5.104 14.395 6 15.499 6C16.6055 6 17.5 5.104 17.5 4C17.5 2.896 16.6055 2 15.499 2C14.395 2 13.5 2.896 13.5 4Z" fill="url(#paint7_linear_40_1617)"/>
<defs>
<linearGradient id="paint0_linear_40_1617" x1="6.02077" y1="20.5656" x2="6.26645" y2="22.1625" gradientUnits="userSpaceOnUse">
<stop stop-color="#0D61A9"/>
<stop offset="1" stop-color="#16528C"/>
</linearGradient>
<linearGradient id="paint1_linear_40_1617" x1="6.90408" y1="12.8927" x2="9.92599" y2="21.6332" gradientUnits="userSpaceOnUse">
<stop stop-color="#0D61A9"/>
<stop offset="1" stop-color="#16528C"/>
</linearGradient>
<linearGradient id="paint2_linear_40_1617" x1="11" y1="4.99161" x2="11" y2="8.98556" gradientUnits="userSpaceOnUse">
<stop stop-color="#2AA4F4"/>
<stop offset="1" stop-color="#007AD9"/>
</linearGradient>
<linearGradient id="paint3_linear_40_1617" x1="8.50005" y1="9.99161" x2="8.50005" y2="13.9856" gradientUnits="userSpaceOnUse">
<stop stop-color="#2AA4F4"/>
<stop offset="1" stop-color="#007AD9"/>
</linearGradient>
<linearGradient id="paint4_linear_40_1617" x1="13.25" y1="20.4969" x2="13.25" y2="21.9946" gradientUnits="userSpaceOnUse">
<stop stop-color="#2AA4F4"/>
<stop offset="1" stop-color="#007AD9"/>
</linearGradient>
<linearGradient id="paint5_linear_40_1617" x1="16.75" y1="11.4969" x2="16.75" y2="12.9946" gradientUnits="userSpaceOnUse">
<stop stop-color="#2AA4F4"/>
<stop offset="1" stop-color="#007AD9"/>
</linearGradient>
<linearGradient id="paint6_linear_40_1617" x1="11.8643" y1="5.39909" x2="11.8643" y2="21.5471" gradientUnits="userSpaceOnUse">
<stop stop-color="#2AA4F4"/>
<stop offset="1" stop-color="#007AD9"/>
</linearGradient>
<linearGradient id="paint7_linear_40_1617" x1="13.5" y1="4" x2="17.5" y2="4" gradientUnits="userSpaceOnUse">
<stop stop-color="#FFCF54"/>
<stop offset="0.261" stop-color="#FDCB4D"/>
<stop offset="0.639" stop-color="#F7C13A"/>
<stop offset="1" stop-color="#F0B421"/>
</linearGradient>
</defs>
</svg>
