<svg width="24" height="24" viewBox="0 0 24 24" fill="none" xmlns="http://www.w3.org/2000/svg">
<path d="M22 2.78665L19.615 5.17165L21.5256 7.08221C21.7006 7.25721 22 7.13332 22 6.8861V2.78665Z" fill="url(#paint0_linear_40_1720)"/>
<path d="M2.78556 21.9989L5.17056 19.6139L7.08111 21.5244C7.25611 21.6994 7.13222 21.9989 6.88445 21.9989H2.78556Z" fill="url(#paint1_linear_40_1720)"/>
<path d="M21.4444 2.0011H17.1167C16.8667 2.0011 16.7444 2.3011 16.9167 2.47332L18.4389 3.99554L3.99444 18.4378L2.47222 16.9155C2.3 16.7433 2 16.8655 2 17.1155V21.4433C2 21.7489 2.25 21.9989 2.55556 21.9989H3.33889C3.48889 21.9989 3.62778 21.9378 3.73333 21.8378L21.8389 3.73443C21.9389 3.62888 22 3.48999 22 3.33999V2.55665C22 2.2511 21.75 2.0011 21.4444 2.0011Z" fill="url(#paint2_linear_40_1720)"/>
<defs>
<linearGradient id="paint0_linear_40_1720" x1="22.8687" y1="6.04097" x2="21.1374" y2="4.30974" gradientUnits="userSpaceOnUse">
<stop offset="0.365" stop-color="#199AE0"/>
<stop offset="0.699" stop-color="#1898DE"/>
<stop offset="0.819" stop-color="#1691D8"/>
<stop offset="0.905" stop-color="#1186CC"/>
<stop offset="0.974" stop-color="#0A75BC"/>
<stop offset="1" stop-color="#076CB3"/>
</linearGradient>
<linearGradient id="paint1_linear_40_1720" x1="6.0395" y1="22.8678" x2="4.30827" y2="21.1366" gradientUnits="userSpaceOnUse">
<stop offset="0.365" stop-color="#199AE0"/>
<stop offset="0.699" stop-color="#1898DE"/>
<stop offset="0.819" stop-color="#1691D8"/>
<stop offset="0.905" stop-color="#1186CC"/>
<stop offset="0.974" stop-color="#0A75BC"/>
<stop offset="1" stop-color="#076CB3"/>
</linearGradient>
<linearGradient id="paint2_linear_40_1720" x1="5.02445" y1="58.1911" x2="21.7606" y2="-56.865" gradientUnits="userSpaceOnUse">
<stop stop-color="#32BDEF"/>
<stop offset="1" stop-color="#1EA2E4"/>
</linearGradient>
</defs>
</svg>
