<svg width="24" height="24" viewBox="0 0 24 24" fill="none" xmlns="http://www.w3.org/2000/svg">
<path d="M4.85714 12.9524L22 6.1391V18.6667C22 19.1929 21.5738 19.6191 21.0476 19.6191H4.85714V12.9524Z" fill="url(#paint0_linear_40_4346)"/>
<path d="M2 6.1391V18.6667C2 19.1929 2.42619 19.6191 2.95238 19.6191H21.0476C21.2814 19.6191 21.4929 19.5315 21.6586 19.3915L2 6.1391Z" fill="url(#paint1_linear_40_4346)"/>
<path opacity="0.05" d="M2 5.80957H22V6.61528L13.7524 13.02C12.7214 13.8205 11.2786 13.8205 10.2476 13.02L2 6.61528V5.80957Z" fill="black"/>
<path opacity="0.07" d="M2 5.57147H22V6.37719L13.4124 12.621C12.5733 13.2419 11.4267 13.2419 10.5876 12.621L2 6.37719V5.57147Z" fill="black"/>
<path d="M2.95238 4.38098H21.0476C21.5738 4.38098 22 4.80717 22 5.33336V6.13908L13.0724 12.2219C12.4252 12.6629 11.5743 12.6629 10.9276 12.2219L2 6.13908V5.33336C2 4.80717 2.42619 4.38098 2.95238 4.38098Z" fill="url(#paint2_linear_40_4346)"/>
<defs>
<linearGradient id="paint0_linear_40_4346" x1="10.8171" y1="8.97053" x2="22.2819" y2="26.13" gradientUnits="userSpaceOnUse">
<stop stop-color="#28AFEA"/>
<stop offset="1" stop-color="#0B88DA"/>
</linearGradient>
<linearGradient id="paint1_linear_40_4346" x1="1.2419" y1="12.1953" x2="17.8719" y2="22.5543" gradientUnits="userSpaceOnUse">
<stop stop-color="#28AFEA"/>
<stop offset="1" stop-color="#0B88DA"/>
</linearGradient>
<linearGradient id="paint2_linear_40_4346" x1="8.30571" y1="4.50644" x2="10.3108" y2="13.9682" gradientUnits="userSpaceOnUse">
<stop stop-color="#7DD8F3"/>
<stop offset="1" stop-color="#45B0D0"/>
</linearGradient>
</defs>
</svg>
