<svg width="24" height="24" viewBox="0 0 24 24" fill="none" xmlns="http://www.w3.org/2000/svg">
<path d="M18.8421 7.78947V20.9474C18.8421 21.5289 18.371 22 17.7895 22H4.10526C3.52368 22 3.05263 21.5289 3.05263 20.9474V3.05263C3.05263 2.47105 3.52368 2 4.10526 2H13.0526L18.8421 7.78947Z" fill="url(#paint0_linear_40_1752)"/>
<path d="M13.0526 2V6.73684C13.0526 7.31842 13.5237 7.78947 14.1053 7.78947H18.8421L13.0526 2Z" fill="url(#paint1_linear_40_1752)"/>
<path opacity="0.05" d="M18.8421 10.4211H13.0526C12.4711 10.4211 12 10.8921 12 11.4737V20.9474C12 21.5289 12.4711 22 13.0526 22H18.8421V10.4211Z" fill="black"/>
<path opacity="0.07" d="M18.8421 10.9474H13.3158C12.88 10.9474 12.5263 11.301 12.5263 11.7368V21.2105C12.5263 21.6463 12.88 22 13.3158 22H18.8421V10.9474Z" fill="black"/>
<path d="M20.421 11.4737H13.5789C13.2884 11.4737 13.0526 11.7095 13.0526 12V21.4737C13.0526 21.7642 13.2884 22 13.5789 22H20.421C20.7116 22 20.9474 21.7642 20.9474 21.4737V12C20.9474 11.7095 20.7116 11.4737 20.421 11.4737Z" fill="url(#paint2_linear_40_1752)"/>
<path d="M19.6316 14.1053H14.3684C14.2231 14.1053 14.1053 13.9874 14.1053 13.8421V12.7895C14.1053 12.6442 14.2231 12.5263 14.3684 12.5263H19.6316C19.7768 12.5263 19.8947 12.6442 19.8947 12.7895V13.8421C19.8947 13.9874 19.7768 14.1053 19.6316 14.1053Z" fill="url(#paint3_linear_40_1752)"/>
<path d="M17.5263 16.7368H16.4737C16.3284 16.7368 16.2105 16.619 16.2105 16.4737V15.4211C16.2105 15.2758 16.3284 15.1579 16.4737 15.1579H17.5263C17.6716 15.1579 17.7895 15.2758 17.7895 15.4211V16.4737C17.7895 16.619 17.6716 16.7368 17.5263 16.7368Z" fill="#CAD2D9"/>
<path d="M15.421 16.7368H14.3684C14.2231 16.7368 14.1053 16.619 14.1053 16.4737V15.4211C14.1053 15.2758 14.2231 15.1579 14.3684 15.1579H15.421C15.5663 15.1579 15.6842 15.2758 15.6842 15.4211V16.4737C15.6842 16.619 15.5663 16.7368 15.421 16.7368Z" fill="#CAD2D9"/>
<path d="M17.5263 18.8421H16.4737C16.3284 18.8421 16.2105 18.7242 16.2105 18.5789V17.5263C16.2105 17.381 16.3284 17.2632 16.4737 17.2632H17.5263C17.6716 17.2632 17.7895 17.381 17.7895 17.5263V18.5789C17.7895 18.7242 17.6716 18.8421 17.5263 18.8421Z" fill="#CAD2D9"/>
<path d="M15.421 18.8421H14.3684C14.2231 18.8421 14.1053 18.7242 14.1053 18.5789V17.5263C14.1053 17.381 14.2231 17.2632 14.3684 17.2632H15.421C15.5663 17.2632 15.6842 17.381 15.6842 17.5263V18.5789C15.6842 18.7242 15.5663 18.8421 15.421 18.8421Z" fill="#CAD2D9"/>
<path d="M17.5263 20.9474H16.4737C16.3284 20.9474 16.2105 20.8295 16.2105 20.6842V19.6316C16.2105 19.4863 16.3284 19.3684 16.4737 19.3684H17.5263C17.6716 19.3684 17.7895 19.4863 17.7895 19.6316V20.6842C17.7895 20.8295 17.6716 20.9474 17.5263 20.9474Z" fill="#CAD2D9"/>
<path d="M15.421 20.9474H14.3684C14.2231 20.9474 14.1053 20.8295 14.1053 20.6842V19.6316C14.1053 19.4863 14.2231 19.3684 14.3684 19.3684H15.421C15.5663 19.3684 15.6842 19.4863 15.6842 19.6316V20.6842C15.6842 20.8295 15.5663 20.9474 15.421 20.9474Z" fill="#CAD2D9"/>
<path d="M19.6316 16.7368H18.5789C18.4337 16.7368 18.3158 16.619 18.3158 16.4737V15.4211C18.3158 15.2758 18.4337 15.1579 18.5789 15.1579H19.6316C19.7768 15.1579 19.8947 15.2758 19.8947 15.4211V16.4737C19.8947 16.619 19.7768 16.7368 19.6316 16.7368Z" fill="#CAD2D9"/>
<path d="M19.6316 20.9474H18.5789C18.4337 20.9474 18.3158 20.8295 18.3158 20.6842V17.5263C18.3158 17.381 18.4337 17.2632 18.5789 17.2632H19.6316C19.7768 17.2632 19.8947 17.381 19.8947 17.5263V20.6842C19.8947 20.8295 19.7768 20.9474 19.6316 20.9474Z" fill="url(#paint4_linear_40_1752)"/>
<defs>
<linearGradient id="paint0_linear_40_1752" x1="8.03083" y1="2.30706" x2="19.135" y2="19.2096" gradientUnits="userSpaceOnUse">
<stop stop-color="#7DD8F3"/>
<stop offset="1" stop-color="#45B0D0"/>
</linearGradient>
<linearGradient id="paint1_linear_40_1752" x1="13.331" y1="7.51105" x2="16" y2="4.84211" gradientUnits="userSpaceOnUse">
<stop stop-color="#3079D6"/>
<stop offset="1" stop-color="#297CD2"/>
</linearGradient>
<linearGradient id="paint2_linear_40_1752" x1="13.3637" y1="11.7047" x2="20.3832" y2="21.419" gradientUnits="userSpaceOnUse">
<stop stop-color="#899198"/>
<stop offset="1" stop-color="#787E85"/>
</linearGradient>
<linearGradient id="paint3_linear_40_1752" x1="14.7621" y1="12.2789" x2="19.7205" y2="14.5758" gradientUnits="userSpaceOnUse">
<stop stop-color="#4FE5FF"/>
<stop offset="1" stop-color="#2EB7ED"/>
</linearGradient>
<linearGradient id="paint4_linear_40_1752" x1="19.1053" y1="17.4079" x2="19.1053" y2="20.8532" gradientUnits="userSpaceOnUse">
<stop stop-color="#11498A"/>
<stop offset="1" stop-color="#0F417A"/>
</linearGradient>
</defs>
</svg>
