<svg width="24" height="24" viewBox="0 0 24 24" fill="none" xmlns="http://www.w3.org/2000/svg">
<path d="M2.45454 18.3636V5.63635H18.8182V18.3636C18.8182 18.8636 18.4091 19.2727 17.9091 19.2727H3.36364C2.86364 19.2727 2.45454 18.8636 2.45454 18.3636Z" fill="url(#paint0_linear_40_1782)"/>
<path d="M10.4759 8.63773L9.51182 10.7995L7.15819 11.0482C7.00683 11.0641 6.94592 11.2518 7.05865 11.3541L8.81683 12.9386L8.32592 15.2545C8.29456 15.4036 8.4541 15.5195 8.58592 15.4432L10.6364 14.26L12.6868 15.4427C12.8186 15.5186 12.9782 15.4027 12.9468 15.2541L12.4559 12.9382L14.2141 11.3536C14.3273 11.2518 14.2664 11.0641 14.1145 11.0477L11.7609 10.7991L10.7968 8.63728C10.735 8.49864 10.5377 8.49864 10.4759 8.63773Z" fill="white"/>
<path d="M18.8182 3.81818V6.54545H2.45454V3.81818C2.45454 3.31818 2.86364 2.90909 3.36364 2.90909H17.9091C18.4091 2.90909 18.8182 3.31818 18.8182 3.81818Z" fill="url(#paint1_linear_40_1782)"/>
<path opacity="0.05" d="M15.8636 5.86363C15.1105 5.86363 14.5 5.25318 14.5 4.5V2.90909H17.2273V4.5C17.2273 5.25318 16.6168 5.86363 15.8636 5.86363Z" fill="black"/>
<path opacity="0.07" d="M15.8636 5.52272C15.2986 5.52272 14.8409 5.065 14.8409 4.5V2.90909H16.8864V4.5C16.8864 5.065 16.4286 5.52272 15.8636 5.52272Z" fill="black"/>
<path opacity="0.05" d="M5.40909 5.86363C4.65591 5.86363 4.04546 5.25318 4.04546 4.5V2.90909H6.77273V4.5C6.77273 5.25318 6.16227 5.86363 5.40909 5.86363Z" fill="black"/>
<path opacity="0.07" d="M5.4091 5.52272C4.8441 5.52272 4.38637 5.065 4.38637 4.5V2.90909H6.43182V4.5C6.43182 5.065 5.9741 5.52272 5.4091 5.52272Z" fill="black"/>
<path d="M5.40908 5.18182C5.03272 5.18182 4.72726 4.87636 4.72726 4.5V2.68182C4.72726 2.30545 5.03272 2 5.40908 2C5.78545 2 6.0909 2.30545 6.0909 2.68182V4.5C6.0909 4.87636 5.78545 5.18182 5.40908 5.18182Z" fill="#3CCBF4"/>
<path d="M15.8636 5.18182C15.4873 5.18182 15.1818 4.87636 15.1818 4.5V2.68182C15.1818 2.30545 15.4873 2 15.8636 2C16.24 2 16.5455 2.30545 16.5455 2.68182V4.5C16.5455 4.87636 16.24 5.18182 15.8636 5.18182Z" fill="#3CCBF4"/>
<path opacity="0.2" d="M18.01 19.2727C18.4559 19.2714 18.8168 18.9105 18.8182 18.4645V12.3573C18.2268 12.1318 17.5895 12 16.9191 12C13.9514 12 11.5455 14.4059 11.5455 17.3736C11.5455 18.0441 11.6773 18.6814 11.9027 19.2727H18.01Z" fill="url(#paint2_radial_40_1782)"/>
<path d="M17 22C19.5104 22 21.5455 19.9649 21.5455 17.4545C21.5455 14.9442 19.5104 12.9091 17 12.9091C14.4896 12.9091 12.4545 14.9442 12.4545 17.4545C12.4545 19.9649 14.4896 22 17 22Z" fill="url(#paint3_linear_40_1782)"/>
<path d="M17 21.0909C19.0083 21.0909 20.6364 19.4628 20.6364 17.4545C20.6364 15.4463 19.0083 13.8182 17 13.8182C14.9917 13.8182 13.3636 15.4463 13.3636 17.4545C13.3636 19.4628 14.9917 21.0909 17 21.0909Z" fill="url(#paint4_radial_40_1782)"/>
<path d="M18.3182 20.0455C18.2273 20.0909 18.1364 20.0455 18.0909 19.9545L16.8636 17.5455C16.8182 17.4545 16.8636 17.3636 16.9545 17.3182C17.0454 17.2727 17.1364 17.3182 17.1818 17.4091L18.4091 19.8182C18.4545 19.8636 18.4091 20 18.3182 20.0455Z" fill="#D83B01"/>
<path d="M17 17.6364C16.9545 17.6364 16.9091 17.6364 16.8636 17.5909C16.8182 17.5455 16.8182 17.4091 16.8636 17.3637L18.7727 15.4546C18.8182 15.4091 18.9545 15.4091 19 15.4546C19.0455 15.5 19.0455 15.6364 19 15.6818L17.0909 17.5909C17.0909 17.5909 17.0455 17.6364 17 17.6364Z" fill="#45494D"/>
<path d="M17 17.7273C16.9545 17.7273 16.9091 17.7273 16.8636 17.6818L15.0909 16.8182C14.9545 16.7727 14.9091 16.5909 14.9545 16.4546C15 16.3182 15.1818 16.2727 15.3182 16.3182L17.0909 17.1818C17.2273 17.2273 17.2727 17.4091 17.2273 17.5455C17.2273 17.6818 17.0909 17.7273 17 17.7273Z" fill="#45494D"/>
<path d="M17 17.9091C17.251 17.9091 17.4545 17.7055 17.4545 17.4545C17.4545 17.2035 17.251 17 17 17C16.749 17 16.5455 17.2035 16.5455 17.4545C16.5455 17.7055 16.749 17.9091 17 17.9091Z" fill="#1E2021"/>
<defs>
<linearGradient id="paint0_linear_40_1782" x1="2.64273" y1="6.39181" x2="15.7795" y2="15.9868" gradientUnits="userSpaceOnUse">
<stop stop-color="#28AFEA"/>
<stop offset="1" stop-color="#047ED6"/>
</linearGradient>
<linearGradient id="paint1_linear_40_1782" x1="2.64545" y1="3.18545" x2="18.4536" y2="6.4" gradientUnits="userSpaceOnUse">
<stop stop-color="#0077D2"/>
<stop offset="1" stop-color="#0B59A2"/>
</linearGradient>
<radialGradient id="paint2_radial_40_1782" cx="0" cy="0" r="1" gradientUnits="userSpaceOnUse" gradientTransform="translate(16.8145 17.3127) scale(5.10636)">
<stop offset="0.847"/>
<stop offset="1" stop-opacity="0"/>
</radialGradient>
<linearGradient id="paint3_linear_40_1782" x1="13.7859" y1="14.2405" x2="20.2141" y2="20.6686" gradientUnits="userSpaceOnUse">
<stop stop-color="#889097"/>
<stop offset="1" stop-color="#64717C"/>
</linearGradient>
<radialGradient id="paint4_radial_40_1782" cx="0" cy="0" r="1" gradientUnits="userSpaceOnUse" gradientTransform="translate(16.9764 13.9027) scale(8.10364)">
<stop stop-color="#FAFAFB"/>
<stop offset="1" stop-color="#C8CDD1"/>
</radialGradient>
</defs>
</svg>
