<svg width="24" height="24" viewBox="0 0 24 24" fill="none" xmlns="http://www.w3.org/2000/svg">
<path d="M2.45454 18.3636V5.63635H18.8182V18.3636C18.8182 18.8636 18.4091 19.2727 17.9091 19.2727H3.36364C2.86364 19.2727 2.45454 18.8636 2.45454 18.3636Z" fill="url(#paint0_linear_40_1768)"/>
<path d="M10.4759 8.63773L9.51183 10.7995L7.15819 11.0482C7.00683 11.0641 6.94592 11.2518 7.05865 11.3541L8.81683 12.9386L8.32592 15.2545C8.29456 15.4036 8.4541 15.5195 8.58592 15.4432L10.6364 14.26L12.6868 15.4427C12.8186 15.5186 12.9782 15.4027 12.9468 15.2541L12.4559 12.9382L14.2141 11.3536C14.3273 11.2518 14.2664 11.0641 14.1146 11.0477L11.7609 10.7991L10.7968 8.63728C10.735 8.49864 10.5377 8.49864 10.4759 8.63773Z" fill="white"/>
<path d="M18.8182 3.81818V6.54545H2.45454V3.81818C2.45454 3.31818 2.86364 2.90909 3.36364 2.90909H17.9091C18.4091 2.90909 18.8182 3.31818 18.8182 3.81818Z" fill="url(#paint1_linear_40_1768)"/>
<path opacity="0.05" d="M15.8636 5.86363C15.1105 5.86363 14.5 5.25318 14.5 4.5V2.90909H17.2273V4.5C17.2273 5.25318 16.6168 5.86363 15.8636 5.86363Z" fill="black"/>
<path opacity="0.07" d="M15.8636 5.52272C15.2986 5.52272 14.8409 5.065 14.8409 4.5V2.90909H16.8864V4.5C16.8864 5.065 16.4286 5.52272 15.8636 5.52272Z" fill="black"/>
<path opacity="0.05" d="M5.40909 5.86363C4.65591 5.86363 4.04546 5.25318 4.04546 4.5V2.90909H6.77273V4.5C6.77273 5.25318 6.16227 5.86363 5.40909 5.86363Z" fill="black"/>
<path opacity="0.07" d="M5.4091 5.52272C4.8441 5.52272 4.38637 5.065 4.38637 4.5V2.90909H6.43182V4.5C6.43182 5.065 5.9741 5.52272 5.4091 5.52272Z" fill="black"/>
<path d="M5.40908 5.18182C5.03272 5.18182 4.72726 4.87636 4.72726 4.5V2.68182C4.72726 2.30545 5.03272 2 5.40908 2C5.78545 2 6.0909 2.30545 6.0909 2.68182V4.5C6.0909 4.87636 5.78545 5.18182 5.40908 5.18182Z" fill="#3CCBF4"/>
<path d="M15.8636 5.18182C15.4873 5.18182 15.1818 4.87636 15.1818 4.5V2.68182C15.1818 2.30545 15.4873 2 15.8636 2C16.24 2 16.5455 2.30545 16.5455 2.68182V4.5C16.5455 4.87636 16.24 5.18182 15.8636 5.18182Z" fill="#3CCBF4"/>
<path d="M17 12C13.9877 12 11.5455 14.4423 11.5455 17.4545C11.5455 18.0932 11.6609 18.7032 11.8623 19.2727H17.9091C18.4091 19.2727 18.8182 18.8636 18.8182 18.3636V12.3168C18.2486 12.1155 17.6386 12 17 12Z" fill="url(#paint2_radial_40_1768)"/>
<path d="M21.5455 17.4545C21.5455 19.9645 19.51 22 17 22C14.49 22 12.4545 19.9645 12.4545 17.4545C12.4545 14.9445 14.49 12.9091 17 12.9091C19.51 12.9091 21.5455 14.9445 21.5455 17.4545Z" fill="url(#paint3_linear_40_1768)"/>
<path d="M16.3846 19.4336L14.5664 17.6155C14.4777 17.5268 14.4777 17.3827 14.5664 17.2941L14.8877 16.9727C14.9764 16.8841 15.1205 16.8841 15.2091 16.9727L16.5455 18.3086L19.0177 15.8364C19.1064 15.7477 19.2505 15.7477 19.3391 15.8364L19.6605 16.1577C19.7491 16.2464 19.7491 16.3905 19.6605 16.4791L16.7059 19.4336C16.6173 19.5223 16.4736 19.5223 16.3846 19.4336Z" fill="white"/>
<defs>
<linearGradient id="paint0_linear_40_1768" x1="2.64273" y1="6.39181" x2="15.7795" y2="15.9868" gradientUnits="userSpaceOnUse">
<stop stop-color="#28AFEA"/>
<stop offset="1" stop-color="#047ED6"/>
</linearGradient>
<linearGradient id="paint1_linear_40_1768" x1="2.64545" y1="3.18545" x2="18.4536" y2="6.4" gradientUnits="userSpaceOnUse">
<stop stop-color="#0077D2"/>
<stop offset="1" stop-color="#0B59A2"/>
</linearGradient>
<radialGradient id="paint2_radial_40_1768" cx="0" cy="0" r="1" gradientUnits="userSpaceOnUse" gradientTransform="translate(17.0095 17.4736) scale(5.34409)">
<stop/>
<stop offset="1" stop-opacity="0"/>
</radialGradient>
<linearGradient id="paint3_linear_40_1768" x1="13.7859" y1="14.2405" x2="20.2141" y2="20.6682" gradientUnits="userSpaceOnUse">
<stop stop-color="#21AD64"/>
<stop offset="1" stop-color="#088242"/>
</linearGradient>
</defs>
</svg>
