<svg width="24" height="24" viewBox="0 0 24 24" fill="none" xmlns="http://www.w3.org/2000/svg">
<path d="M7.75006 20H3.75006C3.61206 20 3.50006 19.888 3.50006 19.75V18.75C3.50006 18.612 3.61206 18.5 3.75006 18.5H7.75006C7.88806 18.5 8.00006 18.612 8.00006 18.75V19.75C8.00006 19.888 7.88806 20 7.75006 20Z" fill="url(#paint0_linear_40_1800)"/>
<path d="M19.7501 20H15.7501C15.6121 20 15.5001 19.888 15.5001 19.75V18.75C15.5001 18.612 15.6121 18.5 15.7501 18.5H19.7501C19.8881 18.5 20.0001 18.612 20.0001 18.75V19.75C20.0001 19.888 19.8881 20 19.7501 20Z" fill="url(#paint1_linear_40_1800)"/>
<path d="M19.5001 21.272C19.5001 21.475 19.7456 21.5765 19.8886 21.4325L21.7631 19.548C21.9266 19.383 21.9266 19.117 21.7631 18.9525L19.8886 17.068C19.7456 16.9235 19.5001 17.025 19.5001 17.228V21.272Z" fill="url(#paint2_linear_40_1800)"/>
<path d="M4.38556 17.228C4.38556 17.025 4.14006 16.9235 3.99706 17.0675L2.12256 18.952C1.95906 19.117 1.95906 19.383 2.12256 19.5475L3.99706 21.432C4.14006 21.5765 4.38556 21.475 4.38556 21.272V17.228Z" fill="url(#paint3_linear_40_1800)"/>
<path d="M6.50006 7.49997C7.88077 7.49997 9.00006 6.38068 9.00006 4.99997C9.00006 3.61926 7.88077 2.49997 6.50006 2.49997C5.11935 2.49997 4.00006 3.61926 4.00006 4.99997C4.00006 6.38068 5.11935 7.49997 6.50006 7.49997Z" fill="url(#paint4_linear_40_1800)"/>
<path d="M6.50006 8.49997C4.01456 8.49997 2.00006 10.5145 2.00006 13V14.5C2.00006 15.0525 2.44756 15.5 3.00006 15.5H10.0001C10.5526 15.5 11.0001 15.0525 11.0001 14.5V13C11.0001 10.5145 8.98556 8.49997 6.50006 8.49997Z" fill="url(#paint5_linear_40_1800)"/>
<path d="M17.5001 7.49997C18.8808 7.49997 20.0001 6.38068 20.0001 4.99997C20.0001 3.61926 18.8808 2.49997 17.5001 2.49997C16.1194 2.49997 15.0001 3.61926 15.0001 4.99997C15.0001 6.38068 16.1194 7.49997 17.5001 7.49997Z" fill="url(#paint6_linear_40_1800)"/>
<path d="M17.5001 8.49997C15.0146 8.49997 13.0001 10.5145 13.0001 13V14.5C13.0001 15.0525 13.4476 15.5 14.0001 15.5H21.0001C21.5526 15.5 22.0001 15.0525 22.0001 14.5V13C22.0001 10.5145 19.9856 8.49997 17.5001 8.49997Z" fill="url(#paint7_linear_40_1800)"/>
<path d="M10.7501 20H9.75006C9.61206 20 9.50006 19.888 9.50006 19.75V18.75C9.50006 18.612 9.61206 18.5 9.75006 18.5H10.7501C10.8881 18.5 11.0001 18.612 11.0001 18.75V19.75C11.0001 19.888 10.8881 20 10.7501 20Z" fill="url(#paint8_linear_40_1800)"/>
<path d="M13.7501 20H12.7501C12.6121 20 12.5001 19.888 12.5001 19.75V18.75C12.5001 18.612 12.6121 18.5 12.7501 18.5H13.7501C13.8881 18.5 14.0001 18.612 14.0001 18.75V19.75C14.0001 19.888 13.8881 20 13.7501 20Z" fill="url(#paint9_linear_40_1800)"/>
<defs>
<linearGradient id="paint0_linear_40_1800" x1="5.14414" y1="18.5654" x2="5.24403" y2="20.2134" gradientUnits="userSpaceOnUse">
<stop stop-color="#32BDEF"/>
<stop offset="1" stop-color="#1EA2E4"/>
</linearGradient>
<linearGradient id="paint1_linear_40_1800" x1="17.1442" y1="18.5654" x2="17.2441" y2="20.2134" gradientUnits="userSpaceOnUse">
<stop stop-color="#32BDEF"/>
<stop offset="1" stop-color="#1EA2E4"/>
</linearGradient>
<linearGradient id="paint2_linear_40_1800" x1="20.3717" y1="17.1963" x2="21.8946" y2="21.636" gradientUnits="userSpaceOnUse">
<stop stop-color="#32BDEF"/>
<stop offset="1" stop-color="#1EA2E4"/>
</linearGradient>
<linearGradient id="paint3_linear_40_1800" x1="2.87153" y1="17.1961" x2="4.39442" y2="21.6358" gradientUnits="userSpaceOnUse">
<stop stop-color="#32BDEF"/>
<stop offset="1" stop-color="#1EA2E4"/>
</linearGradient>
<linearGradient id="paint4_linear_40_1800" x1="4.80406" y1="3.30397" x2="8.29206" y2="6.79197" gradientUnits="userSpaceOnUse">
<stop stop-color="#0D61A9"/>
<stop offset="1" stop-color="#16528C"/>
</linearGradient>
<linearGradient id="paint5_linear_40_1800" x1="3.43506" y1="9.96047" x2="9.73856" y2="16.2635" gradientUnits="userSpaceOnUse">
<stop stop-color="#0D61A9"/>
<stop offset="1" stop-color="#16528C"/>
</linearGradient>
<linearGradient id="paint6_linear_40_1800" x1="15.8041" y1="3.30397" x2="19.2921" y2="6.79197" gradientUnits="userSpaceOnUse">
<stop stop-color="#32BDEF"/>
<stop offset="1" stop-color="#1EA2E4"/>
</linearGradient>
<linearGradient id="paint7_linear_40_1800" x1="14.4351" y1="9.96047" x2="20.7386" y2="16.2635" gradientUnits="userSpaceOnUse">
<stop stop-color="#32BDEF"/>
<stop offset="1" stop-color="#1EA2E4"/>
</linearGradient>
<linearGradient id="paint8_linear_40_1800" x1="9.50006" y1="19.25" x2="11.0001" y2="19.25" gradientUnits="userSpaceOnUse">
<stop stop-color="#33BEF0"/>
<stop offset="1" stop-color="#32C3EF"/>
</linearGradient>
<linearGradient id="paint9_linear_40_1800" x1="12.5001" y1="19.25" x2="14.0001" y2="19.25" gradientUnits="userSpaceOnUse">
<stop stop-color="#33BEF0"/>
<stop offset="1" stop-color="#32C3EF"/>
</linearGradient>
</defs>
</svg>
