<svg width="24" height="24" viewBox="0 0 24 24" fill="none" xmlns="http://www.w3.org/2000/svg">
<path d="M12.0067 22C11.3597 22 10.8267 21.804 10.4067 21.412C9.98671 21.02 9.77621 20.5455 9.77621 19.988C9.77621 19.406 9.98871 18.9295 10.4122 18.5575C10.8372 18.186 11.3687 18 12.0067 18C12.6537 18 13.1822 18.1875 13.5952 18.564C14.0062 18.9395 14.2127 19.4145 14.2127 19.988C14.2127 20.57 14.0082 21.051 13.6007 21.4305C13.1927 21.81 12.6612 22 12.0067 22Z" fill="url(#paint0_linear_40_1812)"/>
<path d="M14.3322 2.5195L13.8187 15.5195C13.8082 15.788 13.5877 16 13.3192 16H10.6537C10.3847 16 10.1642 15.7875 10.1542 15.5185L9.66772 2.5185C9.65722 2.2355 9.88422 2 10.1677 2H13.8332C14.1167 2 14.3437 2.236 14.3322 2.5195Z" fill="url(#paint1_linear_40_1812)"/>
<defs>
<linearGradient id="paint0_linear_40_1812" x1="9.32771" y1="1.874" x2="12.2267" y2="21.559" gradientUnits="userSpaceOnUse">
<stop stop-color="#33BEF0"/>
<stop offset="1" stop-color="#0A85D9"/>
</linearGradient>
<linearGradient id="paint1_linear_40_1812" x1="11.0722" y1="1.972" x2="14.3082" y2="21.388" gradientUnits="userSpaceOnUse">
<stop stop-color="#33BEF0"/>
<stop offset="1" stop-color="#0A85D9"/>
</linearGradient>
</defs>
</svg>
