<svg width="24" height="24" viewBox="0 0 24 24" fill="none" xmlns="http://www.w3.org/2000/svg">
<path d="M12 20.0952C17.5229 20.0952 22 16.4708 22 12C22 7.52912 17.5229 3.90475 12 3.90475C6.47715 3.90475 2 7.52912 2 12C2 16.4708 6.47715 20.0952 12 20.0952Z" fill="url(#paint0_radial_40_1816)"/>
<path d="M12 17.2381C15.6819 17.2381 18.6667 14.2533 18.6667 10.5714C18.6667 6.88953 15.6819 3.90475 12 3.90475C8.31811 3.90475 5.33334 6.88953 5.33334 10.5714C5.33334 14.2533 8.31811 17.2381 12 17.2381Z" fill="url(#paint1_linear_40_1816)"/>
<path d="M12 13.9048C13.841 13.9048 15.3333 12.4124 15.3333 10.5714C15.3333 8.73048 13.841 7.2381 12 7.2381C10.159 7.2381 8.66666 8.73048 8.66666 10.5714C8.66666 12.4124 10.159 13.9048 12 13.9048Z" fill="url(#paint2_radial_40_1816)"/>
<path d="M9.61905 9.14286C10.145 9.14286 10.5714 8.71646 10.5714 8.19048C10.5714 7.6645 10.145 7.2381 9.61905 7.2381C9.09306 7.2381 8.66666 7.6645 8.66666 8.19048C8.66666 8.71646 9.09306 9.14286 9.61905 9.14286Z" fill="white"/>
<defs>
<radialGradient id="paint0_radial_40_1816" cx="0" cy="0" r="1" gradientUnits="userSpaceOnUse" gradientTransform="translate(12.067 9.46148) scale(10.6115 10.7378)">
<stop offset="0.55" stop-color="#E4E4E6"/>
<stop offset="0.73" stop-color="#E1E2E4"/>
<stop offset="0.854" stop-color="#D8DADC"/>
<stop offset="0.961" stop-color="#C9CDCF"/>
<stop offset="1" stop-color="#C1C6C9"/>
</radialGradient>
<linearGradient id="paint1_linear_40_1816" x1="7.75667" y1="6.32809" x2="16.3633" y2="14.9348" gradientUnits="userSpaceOnUse">
<stop stop-color="#32BDEF"/>
<stop offset="1" stop-color="#1EA2E4"/>
</linearGradient>
<radialGradient id="paint2_radial_40_1816" cx="0" cy="0" r="1" gradientUnits="userSpaceOnUse" gradientTransform="translate(10.0362 5.69429) scale(8.6519)">
<stop stop-color="#4B4B4B"/>
<stop offset="0.531" stop-color="#393939"/>
<stop offset="1" stop-color="#252525"/>
</radialGradient>
</defs>
</svg>
