<svg width="24" height="24" viewBox="0 0 24 24" fill="none" xmlns="http://www.w3.org/2000/svg">
<path d="M7.85846 9.24771H20.2831C20.8551 9.24771 21.3185 9.71105 21.3185 10.2831V17.5308C21.3185 18.1029 20.8551 18.5662 20.2831 18.5662H19.7654V21.7148C19.7654 22.0011 19.3906 22.1082 19.2394 21.8654L17.1769 18.5662H7.85846C7.28641 18.5662 6.82307 18.1029 6.82307 17.5308V10.2831C6.82307 9.71105 7.28641 9.24771 7.85846 9.24771Z" fill="url(#paint0_linear_40_1826)"/>
<path d="M15.9277 15.9777H15.2853C15.1735 15.9777 15.0746 15.9052 15.0404 15.7986L14.8028 15.0562H13.33L13.0949 15.7981C13.0613 15.9052 12.9619 15.9777 12.8501 15.9777H12.2154C12.1243 15.9777 12.0606 15.8871 12.0916 15.8012L13.4728 12.0065C13.5101 11.904 13.6074 11.8362 13.7162 11.8362H14.4585C14.5683 11.8362 14.6656 11.905 14.7024 12.0086L16.0515 15.8022C16.082 15.8876 16.0189 15.9777 15.9277 15.9777ZM14.589 14.3403C14.589 14.3403 14.0884 12.7199 14.0749 12.5754H14.0516C14.0418 12.6966 13.5288 14.3403 13.5288 14.3403H14.589Z" fill="white"/>
<path opacity="0.05" d="M16.6592 11.8362H6.82307V9.24771H17.6946V10.8008C17.6946 11.3728 17.2313 11.8362 16.6592 11.8362Z" fill="black"/>
<path opacity="0.07" d="M16.4004 11.5773H6.82307V9.24771H17.4358V10.5419C17.4358 11.114 16.9724 11.5773 16.4004 11.5773Z" fill="black"/>
<path d="M16.1415 2H3.71691C3.14486 2 2.68153 2.46334 2.68153 3.03539V10.2831C2.68153 10.8551 3.14486 11.3185 3.71691 11.3185H4.23461V14.5577C4.23461 14.8176 4.57525 14.9154 4.71295 14.6949L6.82307 11.3185H16.1415C16.7136 11.3185 17.1769 10.8551 17.1769 10.2831V3.03539C17.1769 2.46334 16.7136 2 16.1415 2Z" fill="url(#paint1_linear_40_1826)"/>
<path d="M10.7306 8.27445C11.3223 8.94952 11.9995 8.86772 12.2708 8.79732C12.3272 8.78282 12.381 8.82579 12.381 8.88377V9.49258C12.381 9.54953 12.3432 9.59871 12.2873 9.61061C12.1729 9.63598 11.9726 9.66911 11.6956 9.66911C10.6933 9.66911 10.0524 8.68498 9.77237 8.42251C8.78047 8.42251 7.80048 7.63562 7.80048 6.23836C7.80048 4.62885 8.87469 3.93307 9.98773 3.93307C11.6138 3.93307 12.0626 5.22731 12.0626 6.15035C12.0626 7.58592 11.1779 8.13157 10.7306 8.27445ZM9.95408 4.77691C9.35873 4.77691 8.83172 5.23559 8.83172 6.18763C8.83172 7.17021 9.35925 7.58592 9.92975 7.58592C10.5292 7.58592 11.0309 7.17332 11.0309 6.20575C11.0309 5.21074 10.5499 4.77691 9.95408 4.77691Z" fill="white"/>
<defs>
<linearGradient id="paint0_linear_40_1826" x1="12.6176" y1="9.18921" x2="16.507" y2="21.8163" gradientUnits="userSpaceOnUse">
<stop stop-color="#0176D0"/>
<stop offset="1" stop-color="#16538C"/>
</linearGradient>
<linearGradient id="paint1_linear_40_1826" x1="5.87932" y1="0.834673" x2="13.3838" y2="13.045" gradientUnits="userSpaceOnUse">
<stop stop-color="#33BEF0"/>
<stop offset="1" stop-color="#22A5E2"/>
</linearGradient>
</defs>
</svg>
