<svg width="24" height="24" viewBox="0 0 24 24" fill="none" xmlns="http://www.w3.org/2000/svg">
<path d="M20.913 19.8261H3.08696C2.48652 19.8261 2 19.3396 2 18.7391V5.26088C2 4.66044 2.48652 4.17392 3.08696 4.17392H8.12913C8.78957 4.17392 9.41391 4.47392 9.82652 4.99001L10.913 6.34783H20.913C21.5135 6.34783 22 6.83435 22 7.43479V18.7391C22 19.3396 21.5135 19.8261 20.913 19.8261Z" fill="url(#paint0_linear_40_1862)"/>
<path d="M2 18.4674V18.7391C2 19.3396 2.48652 19.8261 3.08696 19.8261H20.913C21.5135 19.8261 22 19.3396 22 18.7391V18.4674H2Z" fill="url(#paint1_linear_40_1862)"/>
<path d="M20.913 6.78262H10.913L10.3752 7.14088C9.87565 7.47436 9.28826 7.65219 8.68739 7.65219H3.08696C2.48652 7.65219 2 8.13871 2 8.73915V18.3044C2 18.9048 2.48652 19.3913 3.08696 19.3913H20.913C21.5135 19.3913 22 18.9048 22 18.3044V7.86958C22 7.26915 21.5135 6.78262 20.913 6.78262Z" fill="url(#paint2_linear_40_1862)"/>
<path d="M20.913 19.3913H3.08696C2.48652 19.3913 2 18.9048 2 18.3044V9.17393C2 8.57349 2.48652 8.08697 3.08696 8.08697H8.85043C9.4513 8.08697 10.0387 7.90915 10.5387 7.57567L11.0761 7.21741H20.913C21.5135 7.21741 22 7.70393 22 8.30436V18.3044C22 18.9048 21.5135 19.3913 20.913 19.3913Z" fill="url(#paint3_radial_40_1862)"/>
<path d="M16.3374 12.0961C16.3117 12.0174 16.2439 11.96 16.1617 11.9483L13.4204 11.5513L12.1948 9.07739C12.1213 8.92957 11.8783 8.92957 11.8052 9.07739L10.5796 11.5513L7.83827 11.9483C7.75653 11.96 7.68827 12.0174 7.66261 12.0961C7.63696 12.1748 7.6587 12.2613 7.71783 12.3191L9.70087 14.2443L9.23305 16.9626C9.21914 17.0443 9.25218 17.1265 9.31914 17.1752C9.38609 17.2239 9.47522 17.2304 9.54783 17.1922L12 15.9087L14.4517 17.1926C14.4835 17.2091 14.5183 17.2174 14.5526 17.2174C14.5978 17.2174 14.6426 17.2035 14.6804 17.1757C14.7474 17.127 14.7804 17.0443 14.7665 16.963L14.2987 14.2448L16.2817 12.3196C16.3413 12.2617 16.3626 12.1748 16.3374 12.0961Z" fill="url(#paint4_linear_40_1862)"/>
<defs>
<linearGradient id="paint0_linear_40_1862" x1="-1.48609" y1="6.04696" x2="18.69" y2="16.5796" gradientUnits="userSpaceOnUse">
<stop stop-color="#FAC017"/>
<stop offset="0.909" stop-color="#E1AB2D"/>
</linearGradient>
<linearGradient id="paint1_linear_40_1862" x1="8.89783" y1="19.0813" x2="21.1152" y2="19.3009" gradientUnits="userSpaceOnUse">
<stop stop-color="#E3A917"/>
<stop offset="0.464" stop-color="#D79C1E"/>
</linearGradient>
<linearGradient id="paint2_linear_40_1862" x1="-0.556087" y1="7.54958" x2="17.2035" y2="15.3818" gradientUnits="userSpaceOnUse">
<stop offset="0.34" stop-color="#FFEFB2"/>
<stop offset="0.485" stop-color="#FFEDAD"/>
<stop offset="0.652" stop-color="#FFE99F"/>
<stop offset="0.828" stop-color="#FEE289"/>
<stop offset="1" stop-color="#FED86B"/>
</linearGradient>
<radialGradient id="paint3_radial_40_1862" cx="0" cy="0" r="1" gradientUnits="userSpaceOnUse" gradientTransform="translate(18.0157 23.4422) scale(23.4239)">
<stop offset="0.199" stop-color="#FEC832"/>
<stop offset="0.601" stop-color="#FCD667"/>
<stop offset="0.68" stop-color="#FDDA75"/>
<stop offset="0.886" stop-color="#FEE496"/>
<stop offset="1" stop-color="#FFE8A2"/>
</radialGradient>
<linearGradient id="paint4_linear_40_1862" x1="10.1439" y1="10.0004" x2="14.3857" y2="17.3474" gradientUnits="userSpaceOnUse">
<stop stop-color="#C78902"/>
<stop offset="1" stop-color="#986700"/>
</linearGradient>
</defs>
</svg>
