<svg width="24" height="24" viewBox="0 0 24 24" fill="none" xmlns="http://www.w3.org/2000/svg">
<path d="M6.22269 11.9451C6.01526 11.9451 5.82969 11.7997 5.78597 11.5892L4.54807 5.57496C4.46287 5.16188 4.09573 4.86255 3.67418 4.86255H2.89218C2.64594 4.86255 2.44609 4.6627 2.44609 4.41646C2.44609 4.17022 2.64594 3.97037 2.89218 3.97037H3.67418C4.51684 3.97037 5.252 4.56947 5.42196 5.39474L6.65986 11.4089C6.70938 11.6503 6.55414 11.8862 6.31281 11.9358C6.28292 11.9425 6.25258 11.9451 6.22269 11.9451Z" fill="url(#paint0_linear_40_1848)"/>
<path d="M18.5054 20.4757C19.2444 20.4757 19.8436 19.8765 19.8436 19.1374C19.8436 18.3984 19.2444 17.7992 18.5054 17.7992C17.7663 17.7992 17.1671 18.3984 17.1671 19.1374C17.1671 19.8765 17.7663 20.4757 18.5054 20.4757Z" fill="#5C5F61"/>
<path opacity="0.15" d="M18.5054 19.5835C18.7517 19.5835 18.9514 19.3838 18.9514 19.1374C18.9514 18.8911 18.7517 18.6913 18.5054 18.6913C18.259 18.6913 18.0593 18.8911 18.0593 19.1374C18.0593 19.3838 18.259 19.5835 18.5054 19.5835Z" fill="black"/>
<path d="M8.69136 20.4757C9.43047 20.4757 10.0296 19.8765 10.0296 19.1374C10.0296 18.3984 9.43047 17.7992 8.69136 17.7992C7.95225 17.7992 7.35309 18.3984 7.35309 19.1374C7.35309 19.8765 7.95225 20.4757 8.69136 20.4757Z" fill="#5C5F61"/>
<path opacity="0.15" d="M8.69136 19.5835C8.93773 19.5835 9.13745 19.3838 9.13745 19.1374C9.13745 18.8911 8.93773 18.6913 8.69136 18.6913C8.44499 18.6913 8.24527 18.8911 8.24527 19.1374C8.24527 19.3838 8.44499 19.5835 8.69136 19.5835Z" fill="black"/>
<path d="M20.2897 18.2453H7.79918C6.8151 18.2453 6.01482 17.445 6.01482 16.4609C6.01482 15.4768 6.8151 14.6765 7.79918 14.6765H18.9514C19.1977 14.6765 19.3975 14.8764 19.3975 15.1226C19.3975 15.3689 19.1977 15.5687 18.9514 15.5687H7.79918C7.30714 15.5687 6.907 15.9689 6.907 16.4609C6.907 16.9529 7.30714 17.3531 7.79918 17.3531H20.2897C20.536 17.3531 20.7358 17.5529 20.7358 17.7992C20.7358 18.0454 20.536 18.2453 20.2897 18.2453Z" fill="url(#paint1_linear_40_1848)"/>
<path d="M3.78436 4.41644C3.78436 4.90893 3.38467 5.30862 2.89218 5.30862C2.3997 5.30862 2 4.90893 2 4.41644C2 3.92396 2.3997 3.52426 2.89218 3.52426C3.38467 3.52426 3.78436 3.92396 3.78436 4.41644Z" fill="url(#paint2_linear_40_1848)"/>
<path d="M6.32262 14.8434C6.40292 15.2645 6.77094 15.5687 7.19919 15.5687H19.9801C20.4164 15.5687 20.7885 15.2533 20.8603 14.8233L21.7806 9.30114L5.02137 8.01193L6.32262 14.8434Z" fill="url(#paint3_linear_40_1848)"/>
<path d="M21.5883 7.50161L4.67654 6.20081L5.02137 8.01193L21.7801 9.30114L21.9938 8.01996C22.0371 7.76168 21.8493 7.52168 21.5883 7.50161Z" fill="url(#paint4_linear_40_1848)"/>
<path opacity="0.05" d="M13.5984 14.6765C13.3914 14.6765 13.1978 14.594 13.0523 14.4446L11.0481 12.3787C10.9896 12.3194 10.4757 11.7756 10.4757 11.1489C10.4757 10.1425 11.276 9.32346 12.2601 9.32346C12.8217 9.32346 13.2999 9.61297 13.5984 9.85163C13.8968 9.61297 14.375 9.32346 14.9366 9.32346C15.9207 9.32346 16.721 10.1425 16.721 11.1489C16.721 11.7765 16.2058 12.3207 16.1469 12.381L14.1439 14.4455C13.9989 14.594 13.8053 14.6765 13.5984 14.6765Z" fill="black"/>
<path opacity="0.07" d="M13.5984 14.4535C13.4525 14.4535 13.3151 14.395 13.2125 14.2893L11.2082 12.2235C11.1886 12.2034 10.6988 11.7002 10.6988 11.1488C10.6988 10.2656 11.3991 9.54648 12.2601 9.54648C12.8512 9.54648 13.3499 9.91807 13.5984 10.1442C13.8468 9.91807 14.3456 9.54648 14.9366 9.54648C15.7976 9.54648 16.4979 10.2651 16.4979 11.1488C16.4979 11.7006 16.0081 12.2034 15.9872 12.2248L13.9838 14.2898C13.8816 14.395 13.7442 14.4535 13.5984 14.4535Z" fill="black"/>
<path d="M13.5984 10.4592C13.5984 10.4592 14.1975 9.76953 14.9366 9.76953C15.6758 9.76953 16.2749 10.3954 16.2749 11.1488C16.2749 11.6159 15.8288 12.0682 15.8288 12.0682L13.8241 14.1345C13.6996 14.263 13.4971 14.263 13.3726 14.1345L11.3679 12.0678C11.3679 12.0678 10.9218 11.615 10.9218 11.1484C10.9218 10.3954 11.5209 9.76953 12.2601 9.76953C12.9993 9.76953 13.5984 10.4592 13.5984 10.4592Z" fill="url(#paint5_linear_40_1848)"/>
<defs>
<linearGradient id="paint0_linear_40_1848" x1="4.55744" y1="11.9451" x2="4.55744" y2="3.97037" gradientUnits="userSpaceOnUse">
<stop stop-color="#92A3B0"/>
<stop offset="0.015" stop-color="#A3B5C4"/>
<stop offset="0.032" stop-color="#AEC2D1"/>
<stop offset="0.046" stop-color="#B2C6D6"/>
</linearGradient>
<linearGradient id="paint1_linear_40_1848" x1="13.3753" y1="18.2453" x2="13.3753" y2="14.6765" gradientUnits="userSpaceOnUse">
<stop stop-color="#92A3B0"/>
<stop offset="0.015" stop-color="#A3B5C4"/>
<stop offset="0.032" stop-color="#AEC2D1"/>
<stop offset="0.046" stop-color="#B2C6D6"/>
</linearGradient>
<linearGradient id="paint2_linear_40_1848" x1="2.33724" y1="3.86151" x2="3.50957" y2="5.03383" gradientUnits="userSpaceOnUse">
<stop stop-color="#199AE0"/>
<stop offset="1" stop-color="#0782D8"/>
</linearGradient>
<linearGradient id="paint3_linear_40_1848" x1="5.02137" y1="11.7903" x2="21.7806" y2="11.7903" gradientUnits="userSpaceOnUse">
<stop stop-color="#3079D6"/>
<stop offset="1" stop-color="#297CD2"/>
</linearGradient>
<linearGradient id="paint4_linear_40_1848" x1="4.67654" y1="7.75097" x2="22" y2="7.75097" gradientUnits="userSpaceOnUse">
<stop stop-color="#42A3F2"/>
<stop offset="1" stop-color="#42A4EB"/>
</linearGradient>
<linearGradient id="paint5_linear_40_1848" x1="12.5581" y1="9.48448" x2="15.0758" y2="13.3619" gradientUnits="userSpaceOnUse">
<stop stop-color="#F44F5A"/>
<stop offset="0.443" stop-color="#EE3D4A"/>
<stop offset="1" stop-color="#E52030"/>
</linearGradient>
</defs>
</svg>
