<svg width="24" height="24" viewBox="0 0 24 24" fill="none" xmlns="http://www.w3.org/2000/svg">
<path d="M21 4.49997H3C2.4475 4.49997 2 4.05247 2 3.49997C2 2.94747 2.4475 2.49997 3 2.49997H21C21.5525 2.49997 22 2.94747 22 3.49997C22 4.05247 21.5525 4.49997 21 4.49997Z" fill="url(#paint0_linear_40_1897)"/>
<path d="M14 13H10L3.5 4.49997H20.5L14 13Z" fill="url(#paint1_linear_40_1897)"/>
<path d="M14 13H10V20.9995C10 21.371 10.391 21.613 10.7235 21.4465L13.447 20.0845C13.786 19.9155 14 19.569 14 19.1905V13Z" fill="url(#paint2_linear_40_1897)"/>
<defs>
<linearGradient id="paint0_linear_40_1897" x1="2" y1="3.49997" x2="22" y2="3.49997" gradientUnits="userSpaceOnUse">
<stop stop-color="#42A3F2"/>
<stop offset="1" stop-color="#42A4EB"/>
</linearGradient>
<linearGradient id="paint1_linear_40_1897" x1="3.7965" y1="8.74997" x2="20.9105" y2="8.74997" gradientUnits="userSpaceOnUse">
<stop stop-color="#3079D6"/>
<stop offset="1" stop-color="#297CD2"/>
</linearGradient>
<linearGradient id="paint2_linear_40_1897" x1="10" y1="17.25" x2="14" y2="17.25" gradientUnits="userSpaceOnUse">
<stop stop-color="#1D59B3"/>
<stop offset="1" stop-color="#195BBC"/>
</linearGradient>
</defs>
</svg>
