<svg width="24" height="24" viewBox="0 0 24 24" fill="none" xmlns="http://www.w3.org/2000/svg">
<path d="M18.0521 16.3312C21.3039 12.9884 21.2302 7.64318 17.8875 4.39146C14.5448 1.13973 9.19948 1.21338 5.94776 4.55564C2.75936 7.83317 2.75936 13.0536 5.94776 16.3312C5.9562 16.3401 5.96183 16.3499 5.97027 16.3589L5.99795 16.3865C6.02 16.409 6.04204 16.4311 6.06456 16.4531L11.3367 21.7252C11.703 22.0916 12.2969 22.0916 12.6632 21.7252L17.9353 16.4531C17.9578 16.4311 17.9799 16.409 18.0019 16.3865L18.0296 16.3589C18.0385 16.3499 18.0442 16.3396 18.0521 16.3312Z" fill="url(#paint0_linear_40_1902)"/>
<path opacity="0.05" d="M11.5309 15.6107C11.0135 15.6107 10.5927 15.1899 10.5927 14.6725V11.858H7.77814C7.26074 11.858 6.83997 11.4372 6.83997 10.9198V9.9816C6.83997 9.4642 7.26074 9.04342 7.77814 9.04342H10.5927V6.22889C10.5927 5.71148 11.0135 5.29071 11.5309 5.29071H12.469C12.9864 5.29071 13.4072 5.71148 13.4072 6.22889V9.04342H16.2217C16.7392 9.04342 17.1599 9.4642 17.1599 9.9816V10.9198C17.1599 11.4372 16.7392 11.858 16.2217 11.858H13.4072V14.6725C13.4072 15.1899 12.9864 15.6107 12.469 15.6107H11.5309Z" fill="black"/>
<path opacity="0.07" d="M11.5309 15.3761C11.1429 15.3761 10.8272 15.0604 10.8272 14.6725V11.6234H7.77815C7.39021 11.6234 7.07451 11.3077 7.07451 10.9198V9.98159C7.07451 9.59365 7.39021 9.27795 7.77815 9.27795H10.8272V6.22887C10.8272 5.84094 11.1429 5.52524 11.5309 5.52524H12.469C12.857 5.52524 13.1727 5.84094 13.1727 6.22887V9.27795H16.2218C16.6097 9.27795 16.9254 9.59365 16.9254 9.98159V10.9198C16.9254 11.3077 16.6097 11.6234 16.2218 11.6234H13.1727V14.6725C13.1727 15.0604 12.857 15.3761 12.469 15.3761H11.5309Z" fill="black"/>
<path d="M16.2217 9.51251H12.9381V6.22889C12.9381 5.96995 12.728 5.7598 12.469 5.7598H11.5309C11.2719 5.7598 11.0618 5.96995 11.0618 6.22889V9.51251H7.77814C7.51921 9.51251 7.30906 9.72266 7.30906 9.9816V10.9198C7.30906 11.1787 7.51921 11.3889 7.77814 11.3889H11.0618V14.6725C11.0618 14.9314 11.2719 15.1416 11.5309 15.1416H12.469C12.728 15.1416 12.9381 14.9314 12.9381 14.6725V11.3889H16.2217C16.4807 11.3889 16.6908 11.1787 16.6908 10.9198V9.9816C16.6908 9.72266 16.4807 9.51251 16.2217 9.51251Z" fill="white"/>
<defs>
<linearGradient id="paint0_linear_40_1902" x1="6.02844" y1="4.47402" x2="17.9714" y2="16.4175" gradientUnits="userSpaceOnUse">
<stop stop-color="#D43A02"/>
<stop offset="1" stop-color="#B9360C"/>
</linearGradient>
</defs>
</svg>
