<svg width="24" height="24" viewBox="0 0 24 24" fill="none" xmlns="http://www.w3.org/2000/svg">
<path d="M13.3733 2C13.0973 2 12.8733 2.224 12.8733 2.5V3.5H13.8733V2.5C13.8733 2.224 13.6493 2 13.3733 2Z" fill="url(#paint0_linear_40_1921)"/>
<path d="M16.3728 22C16.1408 22 15.9323 21.8375 15.8833 21.601L13.3733 9.468L10.8628 21.6015C10.8068 21.872 10.5403 22.044 10.2718 21.99C10.0013 21.934 9.82731 21.669 9.88331 21.399L12.8833 6.899C12.9318 6.6665 13.1358 6.5 13.3733 6.5C13.6108 6.5 13.8148 6.6665 13.8628 6.899L16.8628 21.399C16.9183 21.669 16.7448 21.9335 16.4743 21.99C16.4408 21.9965 16.4063 22 16.3728 22Z" fill="url(#paint1_linear_40_1921)"/>
<path d="M19.8733 3H6.87331C6.59731 3 6.37331 3.224 6.37331 3.5V18C6.37331 18.276 6.59731 18.5 6.87331 18.5H19.8733C20.1493 18.5 20.3733 18.276 20.3733 18V3.5C20.3733 3.224 20.1493 3 19.8733 3Z" fill="#0078D4"/>
<path d="M6.36331 3.5C6.25881 10.574 3.99881 14.7675 3.17181 16.0635C3.05081 16.2535 3.18731 16.5 3.41281 16.5H16.6478C16.7988 16.5 16.9393 16.4325 17.0353 16.316C17.7103 15.497 20.2688 11.8435 20.3688 3.5H6.36331Z" fill="url(#paint2_linear_40_1921)"/>
<path d="M20.3733 3H6.37331C6.09731 3 5.87331 3.224 5.87331 3.5C5.87331 3.776 6.09731 4 6.37331 4H20.3733C20.6493 4 20.8733 3.776 20.8733 3.5C20.8733 3.224 20.6493 3 20.3733 3Z" fill="url(#paint3_linear_40_1921)"/>
<defs>
<linearGradient id="paint0_linear_40_1921" x1="13.2204" y1="2.0656" x2="13.5786" y2="3.61764" gradientUnits="userSpaceOnUse">
<stop stop-color="#0D61A9"/>
<stop offset="1" stop-color="#16528C"/>
</linearGradient>
<linearGradient id="paint1_linear_40_1921" x1="9.87331" y1="14.25" x2="16.8733" y2="14.25" gradientUnits="userSpaceOnUse">
<stop stop-color="#0F5695"/>
<stop offset="0.963" stop-color="#134575"/>
</linearGradient>
<linearGradient id="paint2_linear_40_1921" x1="11.7478" y1="15.974" x2="11.7478" y2="3.4115" gradientUnits="userSpaceOnUse">
<stop stop-color="#33BEF0"/>
<stop offset="1" stop-color="#0A85D9"/>
</linearGradient>
<linearGradient id="paint3_linear_40_1921" x1="10.6026" y1="3.01535" x2="10.6444" y2="4.22379" gradientUnits="userSpaceOnUse">
<stop stop-color="#7DD8F3"/>
<stop offset="1" stop-color="#45B0D0"/>
</linearGradient>
</defs>
</svg>
