<svg width="24" height="24" viewBox="0 0 24 24" fill="none" xmlns="http://www.w3.org/2000/svg">
<path d="M4.64526 19.3689C4.35474 19.3689 4.11895 19.1337 4.11895 18.8431C4.11895 18.5521 4.35421 18.3168 4.64474 18.3163L18.3158 18.3031C18.4563 18.3031 18.5884 18.2484 18.6879 18.1484C18.7874 18.0494 18.8416 17.9168 18.8416 17.7763L18.8295 6.2105C18.8295 5.9205 18.5932 5.68471 18.3032 5.68471H18.3026L4.63158 5.69787C4.63158 5.69787 4.63158 5.69787 4.63105 5.69787C4.34053 5.69787 4.10474 5.46261 4.10474 5.17208C4.10474 4.88103 4.34 4.64576 4.63053 4.64524L18.3016 4.63208C18.3021 4.63208 18.3026 4.63208 18.3032 4.63208C19.1732 4.63208 19.8816 5.33945 19.8821 6.20945L19.8942 17.7752C19.8942 18.1973 19.7305 18.5937 19.4332 18.8921C19.1353 19.1905 18.7389 19.3552 18.3168 19.3558L4.64526 19.3689Z" fill="#64717C"/>
<path d="M6.21263 7.77315L3.06895 7.78946C2.49053 7.78999 2.01684 7.31736 2.01632 6.73894L2 3.59525C1.99947 3.01683 2.47211 2.54315 3.05053 2.54262L6.19421 2.52631C6.77263 2.52578 7.24632 2.99841 7.24684 3.57683L7.26316 6.72052C7.26368 7.29894 6.79105 7.77262 6.21263 7.77315Z" fill="url(#paint0_linear_40_1928)"/>
<path d="M14.6337 7.77315L11.49 7.78946C10.9116 7.78999 10.4379 7.31736 10.4374 6.73894L10.4211 3.59525C10.4205 3.01683 10.8932 2.54315 11.4716 2.54262L14.6153 2.52631C15.1937 2.52578 15.6674 2.99841 15.6679 3.57683L15.6842 6.72052C15.6847 7.29894 15.2121 7.77262 14.6337 7.77315Z" fill="url(#paint1_linear_40_1928)"/>
<path d="M20.9495 14.6153L17.8058 14.6316C17.2274 14.6321 16.7537 14.1595 16.7532 13.581L16.7368 10.4374C16.7363 9.85893 17.2089 9.38525 17.7874 9.38472L20.9311 9.36841C21.5095 9.36788 21.9832 9.84051 21.9837 10.4189L22 13.5626C22.0005 14.141 21.5279 14.6147 20.9495 14.6153Z" fill="url(#paint2_linear_40_1928)"/>
<path d="M14.6337 21.4574L11.49 21.4737C10.9116 21.4742 10.4379 21.0016 10.4374 20.4231L10.4211 17.2795C10.4205 16.701 10.8932 16.2274 11.4716 16.2268L14.6153 16.2105C15.1937 16.21 15.6674 16.6826 15.6679 17.261L15.6842 20.4047C15.6847 20.9831 15.2121 21.4568 14.6337 21.4574Z" fill="url(#paint3_linear_40_1928)"/>
<path d="M6.21263 21.4574L3.06895 21.4737C2.49053 21.4742 2.01684 21.0016 2.01632 20.4231L2 17.2795C1.99947 16.701 2.47211 16.2274 3.05053 16.2268L6.19421 16.2105C6.77263 16.21 7.24632 16.6826 7.24684 17.261L7.26316 20.4047C7.26368 20.9831 6.79105 21.4568 6.21263 21.4574Z" fill="url(#paint4_linear_40_1928)"/>
<defs>
<linearGradient id="paint0_linear_40_1928" x1="3.83895" y1="2.58157" x2="5.38053" y2="7.59262" gradientUnits="userSpaceOnUse">
<stop stop-color="#2AA4F4"/>
<stop offset="1" stop-color="#007AD9"/>
</linearGradient>
<linearGradient id="paint1_linear_40_1928" x1="12.26" y1="2.58157" x2="13.8016" y2="7.59262" gradientUnits="userSpaceOnUse">
<stop stop-color="#2AA4F4"/>
<stop offset="1" stop-color="#007AD9"/>
</linearGradient>
<linearGradient id="paint2_linear_40_1928" x1="18.5758" y1="9.42367" x2="20.1174" y2="14.4342" gradientUnits="userSpaceOnUse">
<stop stop-color="#2AA4F4"/>
<stop offset="1" stop-color="#007AD9"/>
</linearGradient>
<linearGradient id="paint3_linear_40_1928" x1="12.26" y1="16.2658" x2="13.8016" y2="21.2768" gradientUnits="userSpaceOnUse">
<stop stop-color="#2AA4F4"/>
<stop offset="1" stop-color="#007AD9"/>
</linearGradient>
<linearGradient id="paint4_linear_40_1928" x1="3.83895" y1="16.2658" x2="5.38053" y2="21.2768" gradientUnits="userSpaceOnUse">
<stop stop-color="#2AA4F4"/>
<stop offset="1" stop-color="#007AD9"/>
</linearGradient>
</defs>
</svg>
