<svg width="24" height="24" viewBox="0 0 24 24" fill="none" xmlns="http://www.w3.org/2000/svg">
<path d="M17.7143 8.66449H6.28569L9.41368 21.2952C9.46814 21.4975 9.58775 21.6762 9.754 21.8036C9.92025 21.9309 10.1239 22 10.3333 22H13.6354C13.8449 22 14.0486 21.9309 14.2148 21.8036C14.381 21.6762 14.5007 21.4975 14.5551 21.2952L17.7143 8.66449Z" fill="url(#paint0_linear_40_1936)"/>
<path d="M14.8571 8.66449H9.14284L10.9078 21.1925C10.9424 21.4173 11.0563 21.6224 11.2289 21.7705C11.4016 21.9186 11.6216 22 11.849 22H12.1197C12.3472 22 12.5671 21.9186 12.7398 21.7705C12.9125 21.6224 13.0265 21.4173 13.061 21.1925L14.8571 8.66449Z" fill="url(#paint1_linear_40_1936)"/>
<path d="M7.23999 6.28354C6.84131 6.2826 6.45859 6.44006 6.17601 6.7213C5.89344 7.00253 5.73415 7.38449 5.7332 7.78317C5.7332 8.61139 7.23999 10.5682 7.23999 10.5682C7.23999 10.5682 8.74676 8.61139 8.74676 7.78317C8.74581 7.38449 8.58653 7.00253 8.30395 6.7213C8.02138 6.44006 7.63865 6.2826 7.23999 6.28354Z" fill="url(#paint2_linear_40_1936)"/>
<path d="M10.9684 8.42584C10.7674 8.081 10.4382 7.82973 10.0525 7.72689C9.66683 7.62404 9.25614 7.678 8.91015 7.87698C8.18948 8.29109 7.23999 10.5682 7.23999 10.5682C7.23999 10.5682 9.69603 10.8884 10.4168 10.4743C10.5879 10.3764 10.738 10.2458 10.8585 10.0896C10.9788 9.93355 11.0673 9.75519 11.1186 9.56482C11.1698 9.37444 11.1829 9.17581 11.1572 8.98034C11.1314 8.78487 11.0672 8.59642 10.9684 8.42584Z" fill="url(#paint3_linear_40_1936)"/>
<path d="M10.9684 12.7105C11.0673 12.5399 11.1314 12.3515 11.1572 12.156C11.183 11.9605 11.1699 11.762 11.1187 11.5716C11.0674 11.3812 10.979 11.2028 10.8586 11.0467C10.7382 10.8906 10.5881 10.7599 10.4169 10.662C9.69604 10.2479 7.23999 10.5682 7.23999 10.5682C7.23999 10.5682 8.18926 12.8452 8.90993 13.2593C9.25597 13.4584 9.66667 13.5123 10.0524 13.4094C10.4381 13.3066 10.7674 13.0553 10.9684 12.7105Z" fill="url(#paint4_linear_40_1936)"/>
<path d="M7.23999 14.8529C7.63865 14.8538 8.02138 14.6963 8.30395 14.415C8.58653 14.1338 8.74581 13.7519 8.74676 13.3532C8.74676 12.5249 7.23999 10.5682 7.23999 10.5682C7.23999 10.5682 5.7332 12.5249 5.7332 13.3532C5.73415 13.7519 5.89344 14.1338 6.17601 14.415C6.45859 14.6963 6.84131 14.8538 7.23999 14.8529Z" fill="url(#paint5_linear_40_1936)"/>
<path d="M3.51157 12.7105C3.71255 13.0553 4.04184 13.3066 4.4275 13.4094C4.81315 13.5123 5.22383 13.4584 5.56983 13.2593C6.29071 12.8452 7.23999 10.5682 7.23999 10.5682C7.23999 10.5682 4.78394 10.2479 4.06327 10.662C3.8921 10.7599 3.74199 10.8906 3.62154 11.0467C3.50108 11.2027 3.41268 11.3811 3.36142 11.5715C3.31014 11.7619 3.29702 11.9605 3.32278 12.156C3.34855 12.3515 3.41271 12.5399 3.51157 12.7105Z" fill="url(#paint6_linear_40_1936)"/>
<path d="M5.57006 7.87703C5.39949 7.77747 5.21094 7.71253 5.01524 7.68596C4.81953 7.65938 4.62051 7.67168 4.42957 7.72214C4.23862 7.77261 4.05951 7.86025 3.90249 7.98006C3.74547 8.09986 3.61363 8.24946 3.51453 8.4203C3.41542 8.59113 3.35099 8.77984 3.32494 8.97561C3.29888 9.17139 3.31171 9.37039 3.36269 9.5612C3.41366 9.75201 3.50178 9.93088 3.622 10.0876C3.74222 10.2443 3.89218 10.3757 4.06327 10.4744C4.78394 10.8885 7.24 10.5682 7.24 10.5682C7.24 10.5682 5.99432 8.94838 5.77067 8.03274C5.71016 7.97311 5.64283 7.92085 5.57006 7.87703Z" fill="url(#paint7_linear_40_1936)"/>
<path d="M7.23998 9.61688C7.05203 9.61778 6.86855 9.67433 6.7127 9.77941C6.55686 9.88448 6.43564 10.0334 6.36433 10.2073C6.29303 10.3812 6.27483 10.5723 6.31204 10.7565C6.34926 10.9407 6.44023 11.1099 6.57345 11.2425C6.70666 11.375 6.87618 11.4652 7.06059 11.5015C7.245 11.5379 7.43604 11.5187 7.6096 11.4466C7.78316 11.3745 7.93147 11.2525 8.0358 11.0962C8.14013 10.9399 8.19581 10.7562 8.19581 10.5682C8.19517 10.3153 8.09413 10.073 7.91488 9.8946C7.73563 9.71621 7.49287 9.61631 7.23998 9.61688Z" fill="url(#paint8_linear_40_1936)"/>
<path d="M16.7599 6.28354C16.3612 6.2826 15.9786 6.44006 15.696 6.7213C15.4134 7.00253 15.2541 7.38449 15.2531 7.78317C15.2531 8.61139 16.7599 10.5682 16.7599 10.5682C16.7599 10.5682 18.2667 8.61139 18.2667 7.78317C18.2657 7.38449 18.1065 7.00253 17.8239 6.7213C17.5413 6.44006 17.1586 6.2826 16.7599 6.28354Z" fill="url(#paint9_linear_40_1936)"/>
<path d="M20.4884 8.42584C20.2873 8.081 19.9581 7.82973 19.5724 7.72689C19.1868 7.62404 18.7761 7.678 18.4301 7.87698C17.7094 8.29109 16.7599 10.5682 16.7599 10.5682C16.7599 10.5682 19.216 10.8884 19.9367 10.4743C20.1078 10.3764 20.2579 10.2458 20.3784 10.0896C20.4989 9.93355 20.5872 9.75519 20.6385 9.56482C20.6898 9.37444 20.7029 9.17581 20.6772 8.98034C20.6513 8.78487 20.5872 8.59642 20.4884 8.42584Z" fill="url(#paint10_linear_40_1936)"/>
<path d="M20.4884 12.7105C20.5872 12.5399 20.6514 12.3515 20.6772 12.156C20.703 11.9605 20.6899 11.762 20.6386 11.5716C20.5873 11.3812 20.499 11.2028 20.3786 11.0467C20.2581 10.8906 20.108 10.7599 19.9369 10.662C19.216 10.2479 16.7599 10.5682 16.7599 10.5682C16.7599 10.5682 17.7092 12.8452 18.4299 13.2593C18.7759 13.4584 19.1866 13.5123 19.5723 13.4094C19.958 13.3066 20.2873 13.0553 20.4884 12.7105Z" fill="url(#paint11_linear_40_1936)"/>
<path d="M16.7599 14.8529C17.1586 14.8538 17.5413 14.6963 17.8239 14.415C18.1065 14.1338 18.2657 13.7519 18.2667 13.3532C18.2667 12.5249 16.7599 10.5682 16.7599 10.5682C16.7599 10.5682 15.2531 12.5249 15.2531 13.3532C15.2541 13.7519 15.4134 14.1338 15.696 14.415C15.9786 14.6963 16.3612 14.8538 16.7599 14.8529Z" fill="url(#paint12_linear_40_1936)"/>
<path d="M13.0315 12.7105C13.2325 13.0553 13.5618 13.3066 13.9474 13.4094C14.3331 13.5123 14.7438 13.4584 15.0898 13.2593C15.8107 12.8452 16.7599 10.5682 16.7599 10.5682C16.7599 10.5682 14.3039 10.2479 13.5832 10.662C13.4121 10.7599 13.2619 10.8906 13.1415 11.0467C13.021 11.2027 12.9327 11.3811 12.8813 11.5715C12.8301 11.7619 12.8169 11.9605 12.8428 12.156C12.8685 12.3515 12.9327 12.5399 13.0315 12.7105Z" fill="url(#paint13_linear_40_1936)"/>
<path d="M15.09 7.87703C14.9194 7.77754 14.7309 7.71268 14.5352 7.68615C14.3396 7.65963 14.1406 7.67196 13.9497 7.72245C13.7587 7.77293 13.5797 7.86058 13.4227 7.98036C13.2658 8.10015 13.134 8.24974 13.0348 8.42054C12.9358 8.59134 12.8714 8.78 12.8453 8.97574C12.8192 9.17147 12.8321 9.37042 12.8829 9.56121C12.9339 9.75199 13.022 9.93084 13.1422 10.0875C13.2623 10.2443 13.4122 10.3757 13.5832 10.4744C14.3039 10.8885 16.7599 10.5682 16.7599 10.5682C16.7599 10.5682 15.5143 8.94839 15.2906 8.03274C15.2301 7.97312 15.1628 7.92085 15.09 7.87703Z" fill="url(#paint14_linear_40_1936)"/>
<path d="M16.7599 9.61688C16.572 9.61778 16.3885 9.67433 16.2327 9.7794C16.0768 9.88448 15.9556 10.0334 15.8843 10.2073C15.8129 10.3812 15.7948 10.5723 15.832 10.7565C15.8692 10.9407 15.9602 11.1099 16.0934 11.2425C16.2267 11.375 16.3961 11.4652 16.5806 11.5015C16.7649 11.5379 16.956 11.5187 17.1295 11.4466C17.3031 11.3745 17.4514 11.2525 17.5557 11.0963C17.6601 10.9399 17.7158 10.7562 17.7158 10.5682C17.7151 10.3153 17.6141 10.073 17.4349 9.8946C17.2556 9.71621 17.0129 9.61631 16.7599 9.61688Z" fill="url(#paint15_linear_40_1936)"/>
<path d="M12 2C11.6015 1.99921 11.219 2.15676 10.9367 2.43799C10.6543 2.71922 10.4952 3.1011 10.4944 3.49963C10.4944 4.32785 12 6.28462 12 6.28462C12 6.28462 13.5056 4.32783 13.5056 3.49961C13.5049 3.10109 13.3458 2.71921 13.0634 2.43799C12.781 2.15676 12.3986 1.99921 12 2Z" fill="url(#paint16_linear_40_1936)"/>
<path d="M15.7255 4.14234C15.5249 3.79756 15.1959 3.54627 14.8105 3.44342C14.4251 3.34056 14.0147 3.39452 13.6688 3.59347C12.9487 4.00758 12 6.28464 12 6.28464C12 6.28464 14.4542 6.60491 15.1743 6.1908C15.3453 6.09285 15.4953 5.96205 15.6157 5.80594C15.7361 5.64984 15.8244 5.47148 15.8756 5.28113C15.9269 5.09079 15.94 4.89219 15.9142 4.69676C15.8885 4.50133 15.8244 4.31291 15.7255 4.14234Z" fill="url(#paint17_linear_40_1936)"/>
<path d="M15.7255 8.42695C15.8244 8.25639 15.8885 8.06799 15.9143 7.87256C15.9401 7.67713 15.9269 7.47854 15.8758 7.28819C15.8246 7.09784 15.7363 6.91948 15.6159 6.76337C15.4955 6.60724 15.3455 6.47644 15.1745 6.37847C14.4542 5.96436 12 6.28466 12 6.28466C12 6.28466 12.9486 8.56172 13.6687 8.97584C14.0145 9.17479 14.4249 9.22875 14.8104 9.12589C15.1958 9.02303 15.5249 8.77173 15.7255 8.42695Z" fill="url(#paint18_linear_40_1936)"/>
<path d="M12 10.5693C12.3986 10.5701 12.781 10.4125 13.0634 10.1313C13.3458 9.85004 13.5049 9.46816 13.5056 9.06964C13.5056 8.24142 12 6.28464 12 6.28464C12 6.28464 10.4944 8.24142 10.4944 9.06964C10.4952 9.46816 10.6543 9.85004 10.9367 10.1313C11.219 10.4125 11.6015 10.5701 12 10.5693Z" fill="url(#paint19_linear_40_1936)"/>
<path d="M8.27448 8.42695C8.47512 8.77172 8.80412 9.02301 9.18953 9.12587C9.57495 9.22872 9.98541 9.17477 10.3311 8.97581C11.0515 8.5617 12 6.28462 12 6.28462C12 6.28462 9.54587 5.96434 8.82573 6.37843C8.65466 6.47639 8.50464 6.60719 8.38428 6.7633C8.26392 6.91941 8.1756 7.09778 8.12437 7.28813C8.07315 7.47848 8.06004 7.67708 8.0858 7.87252C8.11156 8.06795 8.17568 8.25637 8.27448 8.42695Z" fill="url(#paint20_linear_40_1936)"/>
<path d="M10.3314 3.59347C10.1608 3.49451 9.97245 3.43013 9.77701 3.40399C9.58157 3.37786 9.38291 3.39048 9.19235 3.44114C9.00179 3.49181 8.82309 3.57951 8.66643 3.69927C8.50978 3.81901 8.37826 3.96845 8.27937 4.13903C8.18048 4.30962 8.11618 4.49802 8.09012 4.69347C8.06406 4.88892 8.07676 5.08758 8.1275 5.27812C8.17825 5.46865 8.26603 5.64733 8.38583 5.80393C8.50564 5.96054 8.65512 6.09201 8.82575 6.19082C9.54587 6.60492 12.0001 6.28465 12.0001 6.28465C12.0001 6.28465 10.7553 4.66485 10.5319 3.74922C10.4714 3.68959 10.4041 3.6373 10.3314 3.59347Z" fill="url(#paint21_linear_40_1936)"/>
<path d="M12 5.33335C11.8121 5.3341 11.6285 5.39053 11.4726 5.49552C11.3167 5.6005 11.1953 5.74934 11.1239 5.92322C11.0525 6.09712 11.0342 6.28827 11.0713 6.47256C11.1084 6.65683 11.1993 6.82599 11.3325 6.95864C11.4657 7.0913 11.6352 7.18153 11.8196 7.21792C12.0041 7.25432 12.1951 7.23526 12.3688 7.16314C12.5424 7.09103 12.6908 6.96909 12.795 6.81274C12.8994 6.65638 12.9551 6.47261 12.9551 6.28462C12.9546 6.03183 12.8537 5.7896 12.6746 5.61121C12.4954 5.43282 12.2528 5.33287 12 5.33335Z" fill="url(#paint22_linear_40_1936)"/>
<path opacity="0.05" d="M15.2524 13.3524C15.2568 13.2672 15.2695 13.1827 15.2905 13.1C15.231 13.161 15.1638 13.2139 15.0905 13.2571C14.92 13.357 14.7316 13.4222 14.5359 13.449C14.3402 13.4759 14.1411 13.4639 13.9501 13.4137C13.759 13.3634 13.5798 13.276 13.4227 13.1564C13.2655 13.0367 13.1334 12.8873 13.0342 12.7166C12.9348 12.5459 12.8702 12.3572 12.844 12.1614C12.8177 11.9657 12.8303 11.7666 12.8811 11.5758C12.9319 11.3848 13.0199 11.2059 13.14 11.0491C13.2601 10.8923 13.4099 10.7607 13.5809 10.6619C13.6585 10.6221 13.7399 10.5902 13.8238 10.5666C13.7394 10.5468 13.6578 10.5165 13.5809 10.4762C13.4021 10.3705 13.2466 10.2296 13.1238 10.0619C12.9836 10.222 12.8108 10.3503 12.6169 10.4382C12.4231 10.526 12.2128 10.5715 12 10.5715C11.7872 10.5715 11.5768 10.526 11.383 10.4382C11.1892 10.3503 11.0164 10.222 10.8762 10.0619C10.7534 10.2296 10.5979 10.3705 10.419 10.4762C10.3422 10.5165 10.2606 10.5468 10.1762 10.5666C10.2601 10.5902 10.3415 10.6221 10.419 10.6619C10.59 10.7607 10.7399 10.8923 10.86 11.0491C10.9801 11.2059 11.0681 11.3848 11.1188 11.5758C11.1696 11.7666 11.1823 11.9657 11.156 12.1614C11.1298 12.3572 11.0651 12.5459 10.9658 12.7166C10.8665 12.8873 10.7345 13.0367 10.5773 13.1564C10.4201 13.276 10.2408 13.3634 10.0498 13.4137C9.85883 13.4639 9.65976 13.4759 9.46408 13.449C9.2684 13.4222 9.07993 13.357 8.90949 13.2571C8.83617 13.2139 8.76892 13.161 8.70953 13.1C8.73044 13.1827 8.74317 13.2672 8.74755 13.3524C8.74754 13.6545 8.6561 13.9493 8.48525 14.1984C8.31441 14.4474 8.07217 14.6389 7.79041 14.7476L7.84761 14.981L7.90945 15.2144C8.2088 15.106 8.47784 14.9276 8.69408 14.6939C8.91032 14.4603 9.06747 14.1783 9.15236 13.8715C9.31875 13.9149 9.48994 13.9374 9.66192 13.9382C10.0099 13.9373 10.3517 13.8454 10.6532 13.6717C10.9547 13.4979 11.2056 13.2484 11.3809 12.9477C11.5116 12.7241 11.5966 12.4767 11.6308 12.2201C11.6652 11.9634 11.6482 11.7025 11.5809 11.4525C11.5315 11.2719 11.4578 11.0988 11.3618 10.9382C11.7747 11.0842 12.2252 11.0842 12.6381 10.9382C12.5421 11.0988 12.4684 11.2719 12.419 11.4525C12.3517 11.7025 12.3348 11.9634 12.369 12.2201C12.4034 12.4767 12.4884 12.7241 12.619 12.9477C12.7943 13.2484 13.0451 13.4979 13.3467 13.6717C13.6483 13.8454 13.99 13.9373 14.338 13.9382C14.51 13.9374 14.6811 13.9149 14.8475 13.8715C14.9308 14.1766 15.0863 14.457 15.301 14.6891C15.5157 14.9212 15.7832 15.0982 16.081 15.2048L16.138 14.9763L16.1952 14.7429C15.917 14.6319 15.6786 14.4401 15.5106 14.1923C15.3425 13.9444 15.2526 13.6519 15.2524 13.3524Z" fill="black"/>
<path opacity="0.07" d="M15.2524 13.3524C15.2568 13.2672 15.2695 13.1827 15.2905 13.1C15.231 13.161 15.1638 13.2139 15.0905 13.2571C14.92 13.357 14.7316 13.4222 14.5359 13.449C14.3402 13.4759 14.1411 13.4639 13.9501 13.4137C13.759 13.3634 13.5798 13.276 13.4227 13.1564C13.2655 13.0367 13.1334 12.8873 13.0342 12.7166C12.9348 12.5459 12.8702 12.3572 12.844 12.1614C12.8177 11.9657 12.8303 11.7666 12.8811 11.5758C12.9319 11.3848 13.0199 11.2059 13.14 11.0491C13.2601 10.8923 13.4099 10.7607 13.5809 10.6619C13.6585 10.6221 13.7399 10.5902 13.8238 10.5666C13.7394 10.5468 13.6578 10.5165 13.5809 10.4762C13.4021 10.3705 13.2466 10.2296 13.1238 10.0619C12.9836 10.222 12.8108 10.3503 12.6169 10.4382C12.4231 10.526 12.2128 10.5715 12 10.5715C11.7872 10.5715 11.5768 10.526 11.383 10.4382C11.1892 10.3503 11.0164 10.222 10.8762 10.0619C10.7534 10.2296 10.5979 10.3705 10.419 10.4762C10.3422 10.5165 10.2606 10.5468 10.1762 10.5666C10.2601 10.5902 10.3415 10.6221 10.419 10.6619C10.59 10.7607 10.7399 10.8923 10.86 11.0491C10.9801 11.2059 11.0681 11.3848 11.1188 11.5758C11.1696 11.7666 11.1823 11.9657 11.156 12.1614C11.1298 12.3572 11.0651 12.5459 10.9658 12.7166C10.8665 12.8873 10.7345 13.0367 10.5773 13.1564C10.4201 13.276 10.2408 13.3634 10.0498 13.4137C9.85883 13.4639 9.65976 13.4759 9.46408 13.449C9.2684 13.4222 9.07993 13.357 8.90949 13.2571C8.83617 13.2139 8.76892 13.161 8.70953 13.1C8.73044 13.1827 8.74317 13.2672 8.74755 13.3524C8.74754 13.6545 8.6561 13.9493 8.48525 14.1984C8.31441 14.4474 8.07217 14.6389 7.79041 14.7476L7.84761 14.981C8.14817 14.8707 8.41229 14.6792 8.61067 14.4279C8.80904 14.1766 8.9339 13.8751 8.97142 13.5572C9.19 13.6496 9.42462 13.6982 9.66193 13.7001C9.96844 13.6997 10.2695 13.619 10.5351 13.4661C10.8008 13.3132 11.0218 13.0934 11.1762 12.8287C11.387 12.4594 11.456 12.026 11.3701 11.6095C11.2842 11.1931 11.0493 10.8224 10.7095 10.5667C10.7748 10.5169 10.8369 10.4628 10.8952 10.4048C11.204 10.6662 11.5954 10.8096 12 10.8096C12.4046 10.8096 12.796 10.6662 13.1048 10.4048C13.163 10.4628 13.225 10.5169 13.2905 10.5667C12.9507 10.8224 12.7158 11.1931 12.6299 11.6095C12.544 12.026 12.6129 12.4594 12.8238 12.8287C12.9781 13.0934 13.1991 13.3132 13.4648 13.4661C13.7305 13.619 14.0315 13.6997 14.338 13.7001C14.5753 13.6982 14.81 13.6496 15.0286 13.5571C15.0671 13.8722 15.1908 14.1708 15.3863 14.4208C15.5818 14.6708 15.8417 14.8628 16.1381 14.9762L16.1953 14.7428C15.9171 14.6319 15.6787 14.4401 15.5106 14.1923C15.3425 13.9444 15.2526 13.6519 15.2524 13.3524Z" fill="black"/>
<defs>
<linearGradient id="paint0_linear_40_1936" x1="7.95941" y1="10.6175" x2="17.2778" y2="18.6034" gradientUnits="userSpaceOnUse">
<stop stop-color="#21AD64"/>
<stop offset="1" stop-color="#088242"/>
</linearGradient>
<linearGradient id="paint1_linear_40_1936" x1="9.77474" y1="6.417" x2="15.4462" y2="21.9994" gradientUnits="userSpaceOnUse">
<stop stop-color="#21AD64"/>
<stop offset="1" stop-color="#088242"/>
</linearGradient>
<linearGradient id="paint2_linear_40_1936" x1="5.80331" y1="8.42606" x2="8.69856" y2="8.42606" gradientUnits="userSpaceOnUse">
<stop stop-color="#F44F5A"/>
<stop offset="0.443" stop-color="#EE3D4A"/>
<stop offset="1" stop-color="#E52030"/>
</linearGradient>
<linearGradient id="paint3_linear_40_1936" x1="8.4676" y1="7.97937" x2="9.63284" y2="10.7299" gradientUnits="userSpaceOnUse">
<stop stop-color="#F44F5A"/>
<stop offset="0.443" stop-color="#EE3D4A"/>
<stop offset="1" stop-color="#E52030"/>
</linearGradient>
<linearGradient id="paint4_linear_40_1936" x1="9.85427" y1="10.3265" x2="8.32379" y2="13.0051" gradientUnits="userSpaceOnUse">
<stop stop-color="#F44F5A"/>
<stop offset="0.443" stop-color="#EE3D4A"/>
<stop offset="1" stop-color="#E52030"/>
</linearGradient>
<linearGradient id="paint5_linear_40_1936" x1="8.80285" y1="12.7108" x2="5.69236" y2="12.7108" gradientUnits="userSpaceOnUse">
<stop stop-color="#F44F5A"/>
<stop offset="0.443" stop-color="#EE3D4A"/>
<stop offset="1" stop-color="#E52030"/>
</linearGradient>
<linearGradient id="paint6_linear_40_1936" x1="6.14522" y1="12.9427" x2="4.59616" y2="10.3184" gradientUnits="userSpaceOnUse">
<stop stop-color="#F44F5A"/>
<stop offset="0.443" stop-color="#EE3D4A"/>
<stop offset="1" stop-color="#E52030"/>
</linearGradient>
<linearGradient id="paint7_linear_40_1936" x1="4.60569" y1="10.8446" x2="6.06379" y2="8.29322" gradientUnits="userSpaceOnUse">
<stop stop-color="#F44F5A"/>
<stop offset="0.443" stop-color="#EE3D4A"/>
<stop offset="1" stop-color="#E52030"/>
</linearGradient>
<linearGradient id="paint8_linear_40_1936" x1="6.3476" y1="9.67607" x2="7.91284" y2="11.2413" gradientUnits="userSpaceOnUse">
<stop stop-color="#FED100"/>
<stop offset="1" stop-color="#E36001"/>
</linearGradient>
<linearGradient id="paint9_linear_40_1936" x1="15.3233" y1="8.42606" x2="18.2186" y2="8.42606" gradientUnits="userSpaceOnUse">
<stop stop-color="#F44F5A"/>
<stop offset="0.443" stop-color="#EE3D4A"/>
<stop offset="1" stop-color="#E52030"/>
</linearGradient>
<linearGradient id="paint10_linear_40_1936" x1="17.9871" y1="7.97937" x2="19.1529" y2="10.7299" gradientUnits="userSpaceOnUse">
<stop stop-color="#F44F5A"/>
<stop offset="0.443" stop-color="#EE3D4A"/>
<stop offset="1" stop-color="#E52030"/>
</linearGradient>
<linearGradient id="paint11_linear_40_1936" x1="19.3743" y1="10.3265" x2="17.8438" y2="13.0051" gradientUnits="userSpaceOnUse">
<stop stop-color="#F44F5A"/>
<stop offset="0.443" stop-color="#EE3D4A"/>
<stop offset="1" stop-color="#E52030"/>
</linearGradient>
<linearGradient id="paint12_linear_40_1936" x1="18.3229" y1="12.7108" x2="15.2124" y2="12.7108" gradientUnits="userSpaceOnUse">
<stop stop-color="#F44F5A"/>
<stop offset="0.443" stop-color="#EE3D4A"/>
<stop offset="1" stop-color="#E52030"/>
</linearGradient>
<linearGradient id="paint13_linear_40_1936" x1="15.6652" y1="12.9427" x2="14.1162" y2="10.3184" gradientUnits="userSpaceOnUse">
<stop stop-color="#F44F5A"/>
<stop offset="0.443" stop-color="#EE3D4A"/>
<stop offset="1" stop-color="#E52030"/>
</linearGradient>
<linearGradient id="paint14_linear_40_1936" x1="14.1257" y1="10.8447" x2="15.5838" y2="8.29322" gradientUnits="userSpaceOnUse">
<stop stop-color="#F44F5A"/>
<stop offset="0.443" stop-color="#EE3D4A"/>
<stop offset="1" stop-color="#E52030"/>
</linearGradient>
<linearGradient id="paint15_linear_40_1936" x1="15.8676" y1="9.67607" x2="17.4329" y2="11.2413" gradientUnits="userSpaceOnUse">
<stop stop-color="#FED100"/>
<stop offset="1" stop-color="#E36001"/>
</linearGradient>
<linearGradient id="paint16_linear_40_1936" x1="10.5648" y1="4.14271" x2="13.4576" y2="4.14271" gradientUnits="userSpaceOnUse">
<stop stop-color="#2AA4F4"/>
<stop offset="1" stop-color="#007AD9"/>
</linearGradient>
<linearGradient id="paint17_linear_40_1936" x1="13.2262" y1="3.69606" x2="14.3914" y2="6.44607" gradientUnits="userSpaceOnUse">
<stop stop-color="#2AA4F4"/>
<stop offset="1" stop-color="#007AD9"/>
</linearGradient>
<linearGradient id="paint18_linear_40_1936" x1="14.6128" y1="6.04367" x2="13.0824" y2="8.72177" gradientUnits="userSpaceOnUse">
<stop stop-color="#2AA4F4"/>
<stop offset="1" stop-color="#007AD9"/>
</linearGradient>
<linearGradient id="paint19_linear_40_1936" x1="13.5614" y1="8.42701" x2="10.4533" y2="8.42701" gradientUnits="userSpaceOnUse">
<stop stop-color="#2AA4F4"/>
<stop offset="1" stop-color="#007AD9"/>
</linearGradient>
<linearGradient id="paint20_linear_40_1936" x1="10.9067" y1="8.65939" x2="9.3576" y2="6.03557" gradientUnits="userSpaceOnUse">
<stop stop-color="#2AA4F4"/>
<stop offset="1" stop-color="#007AD9"/>
</linearGradient>
<linearGradient id="paint21_linear_40_1936" x1="9.3676" y1="6.56082" x2="10.8252" y2="4.00986" gradientUnits="userSpaceOnUse">
<stop stop-color="#2AA4F4"/>
<stop offset="1" stop-color="#007AD9"/>
</linearGradient>
<linearGradient id="paint22_linear_40_1936" x1="11.1081" y1="5.39272" x2="12.6724" y2="6.95748" gradientUnits="userSpaceOnUse">
<stop stop-color="#FED100"/>
<stop offset="1" stop-color="#E36001"/>
</linearGradient>
</defs>
</svg>
