<svg width="24" height="24" viewBox="0 0 24 24" fill="none" xmlns="http://www.w3.org/2000/svg">
<path d="M14.3077 11.4872V10.4615H6.10256V5.84616H5.07692V19.1795C5.07692 19.4626 5.30666 19.6923 5.58974 19.6923H14.3077V18.6667H6.10256V11.4872H14.3077Z" fill="url(#paint0_linear_40_1980)"/>
<path d="M8.92308 2.76923H5.58974L5.22718 2.40667C5.13077 2.31025 5.00051 2.25641 4.86462 2.25641H2.51282C2.22974 2.25641 2 2.48615 2 2.76923V7.1282C2 7.55128 2.34615 7.89743 2.76923 7.89743H8.92308C9.34615 7.89743 9.69231 7.55128 9.69231 7.1282V3.53846C9.69231 3.11538 9.34615 2.76923 8.92308 2.76923Z" fill="url(#paint1_linear_40_1980)"/>
<path d="M8.92308 2.76925L5.58974 2.75797L5.17897 3.14361C5.08359 3.23232 4.95846 3.28207 4.82769 3.28207H2.51282C2.22974 3.28207 2 3.51181 2 3.79489V7.12822C2 7.5513 2.34615 7.89745 2.76923 7.89745H8.92308C9.34615 7.89745 9.69231 7.5513 9.69231 7.12822V3.53848C9.69231 3.12822 9.33333 2.76925 8.92308 2.76925Z" fill="url(#paint2_linear_40_1980)"/>
<path d="M21.2308 8.41025H17.8974L17.5349 8.04769C17.4385 7.95128 17.3082 7.89743 17.1723 7.89743H14.8205C14.5374 7.89743 14.3077 8.12717 14.3077 8.41025V12.7692C14.3077 13.1923 14.6538 13.5385 15.0769 13.5385H21.2308C21.6538 13.5385 22 13.1923 22 12.7692V9.17948C22 8.7564 21.6538 8.41025 21.2308 8.41025Z" fill="url(#paint3_linear_40_1980)"/>
<path d="M21.2308 8.41027L17.8974 8.39899L17.4867 8.78463C17.3913 8.87335 17.2662 8.92309 17.1354 8.92309H14.8205C14.5374 8.92309 14.3077 9.15283 14.3077 9.43591V12.7692C14.3077 13.1923 14.6538 13.5385 15.0769 13.5385H21.2308C21.6538 13.5385 22 13.1923 22 12.7692V9.1795C22 8.76924 21.641 8.41027 21.2308 8.41027Z" fill="url(#paint4_linear_40_1980)"/>
<path d="M21.2308 16.6154H17.8974L17.5349 16.2528C17.4385 16.1564 17.3082 16.1026 17.1723 16.1026H14.8205C14.5374 16.1026 14.3077 16.3323 14.3077 16.6154V20.9744C14.3077 21.3974 14.6538 21.7436 15.0769 21.7436H21.2308C21.6538 21.7436 22 21.3974 22 20.9744V17.3846C22 16.9615 21.6538 16.6154 21.2308 16.6154Z" fill="url(#paint5_linear_40_1980)"/>
<path d="M21.2308 16.6154L17.8974 16.6041L17.4867 16.9898C17.3913 17.0785 17.2662 17.1282 17.1354 17.1282H14.8205C14.5374 17.1282 14.3077 17.358 14.3077 17.641V20.9744C14.3077 21.3975 14.6538 21.7436 15.0769 21.7436H21.2308C21.6538 21.7436 22 21.3975 22 20.9744V17.3846C22 16.9744 21.641 16.6154 21.2308 16.6154Z" fill="url(#paint6_linear_40_1980)"/>
<defs>
<linearGradient id="paint0_linear_40_1980" x1="1.27384" y1="12.7692" x2="14.4549" y2="12.7692" gradientUnits="userSpaceOnUse">
<stop stop-color="#A1AAB3"/>
<stop offset="1" stop-color="#8F979E"/>
</linearGradient>
<linearGradient id="paint1_linear_40_1980" x1="2" y1="5.07692" x2="9.69231" y2="5.07692" gradientUnits="userSpaceOnUse">
<stop stop-color="#EBA600"/>
<stop offset="1" stop-color="#C28200"/>
</linearGradient>
<linearGradient id="paint2_linear_40_1980" x1="5.3359" y1="2.67386" x2="6.28667" y2="7.6354" gradientUnits="userSpaceOnUse">
<stop stop-color="#FFD869"/>
<stop offset="1" stop-color="#FEC52B"/>
</linearGradient>
<linearGradient id="paint3_linear_40_1980" x1="14.3077" y1="10.7179" x2="22" y2="10.7179" gradientUnits="userSpaceOnUse">
<stop stop-color="#EBA600"/>
<stop offset="1" stop-color="#C28200"/>
</linearGradient>
<linearGradient id="paint4_linear_40_1980" x1="17.6436" y1="8.31488" x2="18.5944" y2="13.2764" gradientUnits="userSpaceOnUse">
<stop stop-color="#FFD869"/>
<stop offset="1" stop-color="#FEC52B"/>
</linearGradient>
<linearGradient id="paint5_linear_40_1980" x1="14.3077" y1="18.9231" x2="22" y2="18.9231" gradientUnits="userSpaceOnUse">
<stop stop-color="#EBA600"/>
<stop offset="1" stop-color="#C28200"/>
</linearGradient>
<linearGradient id="paint6_linear_40_1980" x1="17.6436" y1="16.52" x2="18.5944" y2="21.4816" gradientUnits="userSpaceOnUse">
<stop stop-color="#FFD869"/>
<stop offset="1" stop-color="#FEC52B"/>
</linearGradient>
</defs>
</svg>
