<svg width="24" height="24" viewBox="0 0 24 24" fill="none" xmlns="http://www.w3.org/2000/svg">
<path d="M6.28571 10.0952C7.60068 10.0952 8.66667 9.02923 8.66667 7.71427C8.66667 6.3993 7.60068 5.33331 6.28571 5.33331C4.97075 5.33331 3.90476 6.3993 3.90476 7.71427C3.90476 9.02923 4.97075 10.0952 6.28571 10.0952Z" fill="url(#paint0_linear_40_1989)"/>
<path d="M6.28571 11.0476C3.91857 11.0476 2 12.9662 2 15.3333V19.619C2 20.1452 2.42619 20.5714 2.95238 20.5714H9.61905C10.1452 20.5714 10.5714 20.1452 10.5714 19.619V15.3333C10.5714 12.9662 8.65286 11.0476 6.28571 11.0476Z" fill="url(#paint1_linear_40_1989)"/>
<path d="M17.7143 10.0952C19.0292 10.0952 20.0952 9.02923 20.0952 7.71427C20.0952 6.3993 19.0292 5.33331 17.7143 5.33331C16.3993 5.33331 15.3333 6.3993 15.3333 7.71427C15.3333 9.02923 16.3993 10.0952 17.7143 10.0952Z" fill="url(#paint2_linear_40_1989)"/>
<path d="M17.7143 11.0476C15.3471 11.0476 13.4286 12.9662 13.4286 15.3333V19.619C13.4286 20.1452 13.8548 20.5714 14.381 20.5714H21.0476C21.5738 20.5714 22 20.1452 22 19.619V15.3333C22 12.9662 20.0814 11.0476 17.7143 11.0476Z" fill="url(#paint3_linear_40_1989)"/>
<path d="M12 8.19046C13.315 8.19046 14.381 7.12447 14.381 5.80951C14.381 4.49455 13.315 3.42856 12 3.42856C10.685 3.42856 9.61905 4.49455 9.61905 5.80951C9.61905 7.12447 10.685 8.19046 12 8.19046Z" fill="url(#paint4_linear_40_1989)"/>
<path opacity="0.05" d="M17.2381 19.6191V13.4286C17.2381 12.6186 17.0481 11.8538 16.7181 11.1686C14.8324 11.6186 13.4286 13.31 13.4286 15.3333V19.6191C13.4286 20.1452 13.8548 20.5714 14.381 20.5714H16.9733C17.1371 20.29 17.2381 19.9676 17.2381 19.6191Z" fill="black"/>
<path opacity="0.067" d="M16.9205 19.619V13.4285C16.9205 12.6566 16.7371 11.9285 16.419 11.2776C14.69 11.8104 13.4286 13.4223 13.4286 15.3333V19.619C13.4286 20.1452 13.8548 20.5714 14.381 20.5714H16.4267C16.7114 20.3838 16.9205 20.0266 16.9205 19.619Z" fill="black"/>
<path opacity="0.09" d="M16.6033 19.619V13.4285C16.6033 12.6942 16.4267 12.0028 16.1205 11.3866C14.5476 12.0023 13.4286 13.5347 13.4286 15.3333V19.619C13.4286 20.1452 13.8548 20.5714 14.381 20.5714H15.88C16.2852 20.4776 16.6033 20.0857 16.6033 19.619Z" fill="black"/>
<path opacity="0.05" d="M6.7619 19.6191V13.4286C6.7619 12.6186 6.9519 11.8538 7.2819 11.1686C9.16762 11.6186 10.5714 13.31 10.5714 15.3333V19.6191C10.5714 20.1452 10.1452 20.5714 9.61904 20.5714H7.02666C6.86285 20.29 6.7619 19.9676 6.7619 19.6191Z" fill="black"/>
<path opacity="0.067" d="M7.07952 19.619V13.4285C7.07952 12.6566 7.26285 11.9285 7.58095 11.2776C9.31 11.8104 10.5714 13.4223 10.5714 15.3333V19.619C10.5714 20.1452 10.1452 20.5714 9.61905 20.5714H7.57333C7.28857 20.3838 7.07952 20.0266 7.07952 19.619Z" fill="black"/>
<path opacity="0.09" d="M7.39667 19.619V13.4285C7.39667 12.6942 7.57333 12.0028 7.87952 11.3866C9.45238 12.0023 10.5714 13.5347 10.5714 15.3333V19.619C10.5714 20.1452 10.1452 20.5714 9.61905 20.5714H8.12C7.71476 20.4776 7.39667 20.0857 7.39667 19.619Z" fill="black"/>
<path d="M12 9.14285C9.63286 9.14285 7.71429 11.0614 7.71429 13.4286V19.619C7.71429 20.1452 8.14048 20.5714 8.66667 20.5714H15.3333C15.8595 20.5714 16.2857 20.1452 16.2857 19.619V13.4286C16.2857 11.0614 14.3671 9.14285 12 9.14285Z" fill="url(#paint5_linear_40_1989)"/>
<defs>
<linearGradient id="paint0_linear_40_1989" x1="4.67048" y1="6.09903" x2="7.99238" y2="9.42093" gradientUnits="userSpaceOnUse">
<stop stop-color="#199AE0"/>
<stop offset="1" stop-color="#0782D8"/>
</linearGradient>
<linearGradient id="paint1_linear_40_1989" x1="2.68143" y1="13.1819" x2="10.0943" y2="20.5943" gradientUnits="userSpaceOnUse">
<stop stop-color="#199AE0"/>
<stop offset="1" stop-color="#0782D8"/>
</linearGradient>
<linearGradient id="paint2_linear_40_1989" x1="16.0991" y1="6.09903" x2="19.421" y2="9.42093" gradientUnits="userSpaceOnUse">
<stop stop-color="#0D61A9"/>
<stop offset="1" stop-color="#16528C"/>
</linearGradient>
<linearGradient id="paint3_linear_40_1989" x1="14.11" y1="13.1819" x2="21.5229" y2="20.5943" gradientUnits="userSpaceOnUse">
<stop stop-color="#0D61A9"/>
<stop offset="1" stop-color="#16528C"/>
</linearGradient>
<linearGradient id="paint4_linear_40_1989" x1="10.3848" y1="4.19427" x2="13.7067" y2="7.51618" gradientUnits="userSpaceOnUse">
<stop stop-color="#32BDEF"/>
<stop offset="1" stop-color="#1EA2E4"/>
</linearGradient>
<linearGradient id="paint5_linear_40_1989" x1="10.6576" y1="9.64619" x2="13.0486" y2="21.6" gradientUnits="userSpaceOnUse">
<stop stop-color="#32BDEF"/>
<stop offset="1" stop-color="#1EA2E4"/>
</linearGradient>
</defs>
</svg>
