<svg width="24" height="24" viewBox="0 0 24 24" fill="none" xmlns="http://www.w3.org/2000/svg">
<path d="M20.913 19.8261H3.08696C2.48652 19.8261 2 19.3396 2 18.7391V5.26088C2 4.66044 2.48652 4.17392 3.08696 4.17392H8.12913C8.78957 4.17392 9.41391 4.47392 9.82652 4.99001L10.913 6.34783H20.913C21.5135 6.34783 22 6.83435 22 7.43479V18.7391C22 19.3396 21.5135 19.8261 20.913 19.8261Z" fill="url(#paint0_linear_40_2002)"/>
<path d="M2 18.4674V18.7391C2 19.3396 2.48652 19.8261 3.08696 19.8261H20.913C21.5135 19.8261 22 19.3396 22 18.7391V18.4674H2Z" fill="url(#paint1_linear_40_2002)"/>
<path d="M20.913 6.78262H10.913L10.3752 7.14088C9.87565 7.47436 9.28826 7.65219 8.68739 7.65219H3.08696C2.48652 7.65219 2 8.13871 2 8.73915V18.3044C2 18.9048 2.48652 19.3913 3.08696 19.3913H20.913C21.5135 19.3913 22 18.9048 22 18.3044V7.86958C22 7.26915 21.5135 6.78262 20.913 6.78262Z" fill="url(#paint2_linear_40_2002)"/>
<path d="M20.913 19.3913H3.08696C2.48652 19.3913 2 18.9048 2 18.3044V9.17393C2 8.57349 2.48652 8.08697 3.08696 8.08697H8.85043C9.4513 8.08697 10.0387 7.90915 10.5387 7.57567L11.0761 7.21741H20.913C21.5135 7.21741 22 7.70393 22 8.30436V18.3044C22 18.9048 21.5135 19.3913 20.913 19.3913Z" fill="url(#paint3_radial_40_2002)"/>
<path d="M15.587 17.2174H15.2665L12.3039 9.59911C12.2061 9.34868 11.7935 9.34868 11.6961 9.59911L8.73348 17.2174H8.41305C8.23305 17.2174 8.08696 17.3635 8.08696 17.5435C8.08696 17.7235 8.23305 17.8696 8.41305 17.8696H9.71739C9.89739 17.8696 10.0435 17.7235 10.0435 17.5435C10.0435 17.3635 9.89739 17.2174 9.71739 17.2174H9.43348L10.2365 15.1522H13.7635L14.5665 17.2174H14.2826C14.1026 17.2174 13.9565 17.3635 13.9565 17.5435C13.9565 17.7235 14.1026 17.8696 14.2826 17.8696H15.587C15.767 17.8696 15.913 17.7235 15.913 17.5435C15.913 17.3635 15.767 17.2174 15.587 17.2174ZM10.49 14.5L12 10.6169L13.51 14.5H10.49Z" fill="url(#paint4_linear_40_2002)"/>
<defs>
<linearGradient id="paint0_linear_40_2002" x1="-1.48609" y1="6.04696" x2="18.69" y2="16.5796" gradientUnits="userSpaceOnUse">
<stop stop-color="#FAC017"/>
<stop offset="0.909" stop-color="#E1AB2D"/>
</linearGradient>
<linearGradient id="paint1_linear_40_2002" x1="8.89783" y1="19.0813" x2="21.1152" y2="19.3009" gradientUnits="userSpaceOnUse">
<stop stop-color="#E3A917"/>
<stop offset="0.464" stop-color="#D79C1E"/>
</linearGradient>
<linearGradient id="paint2_linear_40_2002" x1="-0.556087" y1="7.54958" x2="17.2035" y2="15.3818" gradientUnits="userSpaceOnUse">
<stop offset="0.34" stop-color="#FFEFB2"/>
<stop offset="0.485" stop-color="#FFEDAD"/>
<stop offset="0.652" stop-color="#FFE99F"/>
<stop offset="0.828" stop-color="#FEE289"/>
<stop offset="1" stop-color="#FED86B"/>
</linearGradient>
<radialGradient id="paint3_radial_40_2002" cx="0" cy="0" r="1" gradientUnits="userSpaceOnUse" gradientTransform="translate(18.0157 23.4422) scale(23.4239)">
<stop offset="0.199" stop-color="#FEC832"/>
<stop offset="0.601" stop-color="#FCD667"/>
<stop offset="0.68" stop-color="#FDDA75"/>
<stop offset="0.886" stop-color="#FEE496"/>
<stop offset="1" stop-color="#FFE8A2"/>
</radialGradient>
<linearGradient id="paint4_linear_40_2002" x1="8.80261" y1="11.1996" x2="13.4087" y2="19.1774" gradientUnits="userSpaceOnUse">
<stop stop-color="#C78902"/>
<stop offset="0.914" stop-color="#986700"/>
</linearGradient>
</defs>
</svg>
