<svg width="24" height="24" viewBox="0 0 24 24" fill="none" xmlns="http://www.w3.org/2000/svg">
<path d="M12.4497 5.99301C12.2837 5.9 12.099 5.81856 11.897 5.74913C11.694 5.67927 11.4769 5.64455 11.2446 5.64455C10.8658 5.64455 10.5454 5.76605 10.2833 6.00814C10.0207 6.25068 9.8365 6.58757 9.73058 7.01924L9.41194 8.38414H11.1849L10.6767 10.5261H8.94333L7.60869 16.3337C7.43557 17.1174 7.22329 17.78 6.97096 18.3212C6.71819 18.8619 6.42803 19.3002 6.09915 19.6362C5.77028 19.9713 5.40001 20.2121 4.98836 20.3581C4.57627 20.504 4.12501 20.577 3.6337 20.577C3.36802 20.577 3.08097 20.5508 2.77212 20.4974C2.46327 20.444 2.2056 20.3776 2 20.298L2.32888 18.1961C2.47484 18.2758 2.61592 18.339 2.7521 18.3853C2.88783 18.4315 3.03246 18.4551 3.18555 18.4551C3.35823 18.4551 3.51933 18.4271 3.66885 18.371C3.81838 18.3141 3.95768 18.2113 4.08718 18.0622C4.21668 17.9126 4.33773 17.7053 4.45077 17.4396C4.56336 17.1739 4.66616 16.8286 4.75962 16.4035L6.08447 10.5261H4.75962L5.26784 8.38414H6.55308L6.90154 6.90977C7.14675 5.78073 7.62026 4.91738 8.32118 4.3197C9.02165 3.72203 9.90014 3.42297 10.9562 3.42297C11.3082 3.42297 11.6584 3.45769 12.0073 3.52756C12.3562 3.59742 12.6531 3.68554 12.8987 3.79146L12.4497 5.99301ZM18.0535 12.8852L20.0668 17.4236H17.9213C17.3512 17.4236 16.8439 17.0613 16.6588 16.5219L16.1559 15.0573C16.1083 14.922 16.0642 14.7765 16.0233 14.6203C15.9819 14.4641 15.9441 14.3128 15.9089 14.1655H15.8644C15.7763 14.3128 15.6877 14.4628 15.5996 14.6159C15.5115 14.769 15.4198 14.9042 15.3255 15.0222L13.5333 17.424H10.2486L14.2748 12.8504L12.3411 8.38281H14.4661C15.0509 8.38281 15.5671 8.76331 15.7411 9.32137L16.1911 10.7668C16.2493 10.9199 16.2996 11.0864 16.341 11.2657C16.3824 11.445 16.4118 11.5937 16.4291 11.7116H16.4643C16.5351 11.5821 16.629 11.4308 16.7469 11.2568C16.8648 11.0832 16.9707 10.9315 17.0646 10.802L18.8305 8.38281H22L18.0535 12.8852Z" fill="url(#paint0_linear_40_2027)"/>
<defs>
<linearGradient id="paint0_linear_40_2027" x1="12" y1="3.38699" x2="12" y2="20.5151" gradientUnits="userSpaceOnUse">
<stop stop-color="#2AA4F4"/>
<stop offset="1" stop-color="#007AD9"/>
</linearGradient>
</defs>
</svg>
