<svg width="24" height="24" viewBox="0 0 24 24" fill="none" xmlns="http://www.w3.org/2000/svg">
<path d="M18.1522 12.6671L9.09578 21.7236C8.72722 22.0922 8.13009 22.0922 7.76153 21.7236L5.84776 19.8098C5.4792 19.4413 5.4792 18.8441 5.84776 18.4756L14.9042 9.41912C15.2728 9.05056 15.8699 9.05056 16.2385 9.41912L18.1522 11.3329C18.5203 11.7014 18.5203 12.2986 18.1522 12.6671Z" fill="url(#paint0_linear_40_2030)"/>
<path d="M14.9042 14.5809L5.84776 5.52444C5.4792 5.15588 5.4792 4.55875 5.84776 4.19019L7.76153 2.27642C8.13009 1.90786 8.72722 1.90786 9.09578 2.27642L18.1522 11.3329C18.5208 11.7014 18.5208 12.2986 18.1522 12.6671L16.2385 14.5809C15.8699 14.949 15.2728 14.949 14.9042 14.5809Z" fill="url(#paint1_linear_40_2030)"/>
<defs>
<linearGradient id="paint0_linear_40_2030" x1="6.30775" y1="21.2636" x2="14.4418" y2="13.1295" gradientUnits="userSpaceOnUse">
<stop offset="0.365" stop-color="#199AE0"/>
<stop offset="0.699" stop-color="#1898DE"/>
<stop offset="0.819" stop-color="#1691D8"/>
<stop offset="0.905" stop-color="#1186CC"/>
<stop offset="0.974" stop-color="#0A75BC"/>
<stop offset="1" stop-color="#076CB3"/>
</linearGradient>
<linearGradient id="paint1_linear_40_2030" x1="17.1337" y1="13.5623" x2="6.65965" y2="3.08831" gradientUnits="userSpaceOnUse">
<stop stop-color="#32BDEF"/>
<stop offset="1" stop-color="#1EA2E4"/>
</linearGradient>
</defs>
</svg>
