<svg width="24" height="24" viewBox="0 0 24 24" fill="none" xmlns="http://www.w3.org/2000/svg">
<path d="M19 4H5C3.35 4 2 5.35 2 7V17C2 18.65 3.35 20 5 20H19C20.65 20 22 18.65 22 17V7C22 5.35 20.65 4 19 4Z" fill="url(#paint0_linear_40_2049)"/>
<path d="M3.25 15.5H4.25C4.388 15.5 4.5 15.612 4.5 15.75V17.5H3V15.75C3 15.612 3.112 15.5 3.25 15.5Z" fill="url(#paint1_linear_40_2049)"/>
<path d="M20.75 15.5H19.75C19.612 15.5 19.5 15.612 19.5 15.75V17.5H21V15.75C21 15.612 20.888 15.5 20.75 15.5Z" fill="url(#paint2_linear_40_2049)"/>
<path d="M3.25 8.5H4.25C4.388 8.5 4.5 8.388 4.5 8.25V6.5H3V8.25C3 8.388 3.112 8.5 3.25 8.5Z" fill="url(#paint3_linear_40_2049)"/>
<path d="M20.75 8.5H19.75C19.612 8.5 19.5 8.388 19.5 8.25V6.5H21V8.25C21 8.388 20.888 8.5 20.75 8.5Z" fill="url(#paint4_linear_40_2049)"/>
<path d="M6.25 17.5H3C3.75 18.4375 4.3125 19 5.0625 19H6.25C6.388 19 6.5 18.888 6.5 18.75V17.75C6.5 17.612 6.388 17.5 6.25 17.5Z" fill="url(#paint5_linear_40_2049)"/>
<path d="M17.5 17.75V18.75C17.5 18.888 17.612 19 17.75 19H18.9375C19.6875 19 20.25 18.4375 21 17.5H17.75C17.612 17.5 17.5 17.612 17.5 17.75Z" fill="url(#paint6_linear_40_2049)"/>
<path d="M6.5 6.25V5.25C6.5 5.112 6.388 5 6.25 5H5.0625C4.3125 5 3.75 5.5625 3 6.5H6.25C6.388 6.5 6.5 6.388 6.5 6.25Z" fill="url(#paint7_linear_40_2049)"/>
<path d="M17.75 6.5H21C20.25 5.5625 19.6875 5 18.9375 5H17.75C17.612 5 17.5 5.112 17.5 5.25V6.25C17.5 6.388 17.612 6.5 17.75 6.5Z" fill="url(#paint8_linear_40_2049)"/>
<path d="M6.5 6.25V5.25C6.5 5.112 6.388 5 6.25 5H5.0625C4.3125 5 3.75 5.5625 3 6.5H6.25C6.388 6.5 6.5 6.388 6.5 6.25Z" fill="url(#paint9_linear_40_2049)"/>
<defs>
<linearGradient id="paint0_linear_40_2049" x1="8.30571" y1="4.24565" x2="15.1581" y2="20.7605" gradientUnits="userSpaceOnUse">
<stop stop-color="#7DD8F3"/>
<stop offset="1" stop-color="#45B0D0"/>
</linearGradient>
<linearGradient id="paint1_linear_40_2049" x1="3.75" y1="15.5" x2="3.75" y2="17.5" gradientUnits="userSpaceOnUse">
<stop offset="0.478" stop-color="#199AE0"/>
<stop offset="0.868" stop-color="#1186CC"/>
<stop offset="1" stop-color="#076CB3"/>
</linearGradient>
<linearGradient id="paint2_linear_40_2049" x1="20.25" y1="15.5" x2="20.25" y2="17.5" gradientUnits="userSpaceOnUse">
<stop offset="0.478" stop-color="#199AE0"/>
<stop offset="0.868" stop-color="#1186CC"/>
<stop offset="1" stop-color="#076CB3"/>
</linearGradient>
<linearGradient id="paint3_linear_40_2049" x1="3.75" y1="8.5" x2="3.75" y2="6.5" gradientUnits="userSpaceOnUse">
<stop offset="0.478" stop-color="#199AE0"/>
<stop offset="0.868" stop-color="#1186CC"/>
<stop offset="1" stop-color="#076CB3"/>
</linearGradient>
<linearGradient id="paint4_linear_40_2049" x1="20.25" y1="8.5" x2="20.25" y2="6.5" gradientUnits="userSpaceOnUse">
<stop offset="0.478" stop-color="#199AE0"/>
<stop offset="0.868" stop-color="#1186CC"/>
<stop offset="1" stop-color="#076CB3"/>
</linearGradient>
<linearGradient id="paint5_linear_40_2049" x1="4.1685" y1="14.3165" x2="4.9955" y2="19.0065" gradientUnits="userSpaceOnUse">
<stop stop-color="#32BDEF"/>
<stop offset="0.661" stop-color="#25ABE8"/>
<stop offset="1" stop-color="#1EA2E4"/>
</linearGradient>
<linearGradient id="paint6_linear_40_2049" x1="18.67" y1="14.846" x2="19.361" y2="18.765" gradientUnits="userSpaceOnUse">
<stop stop-color="#32BDEF"/>
<stop offset="0.661" stop-color="#25ABE8"/>
<stop offset="1" stop-color="#1EA2E4"/>
</linearGradient>
<linearGradient id="paint7_linear_40_2049" x1="4.1825" y1="2.645" x2="4.8735" y2="6.564" gradientUnits="userSpaceOnUse">
<stop stop-color="#32BDEF"/>
<stop offset="0.661" stop-color="#25ABE8"/>
<stop offset="1" stop-color="#1EA2E4"/>
</linearGradient>
<linearGradient id="paint8_linear_40_2049" x1="18.458" y1="1.894" x2="19.285" y2="6.584" gradientUnits="userSpaceOnUse">
<stop stop-color="#32BDEF"/>
<stop offset="0.661" stop-color="#25ABE8"/>
<stop offset="1" stop-color="#1EA2E4"/>
</linearGradient>
<linearGradient id="paint9_linear_40_2049" x1="4.1825" y1="2.645" x2="4.8735" y2="6.564" gradientUnits="userSpaceOnUse">
<stop stop-color="#32BDEF"/>
<stop offset="0.661" stop-color="#25ABE8"/>
<stop offset="1" stop-color="#1EA2E4"/>
</linearGradient>
</defs>
</svg>
