<svg width="24" height="24" viewBox="0 0 24 24" fill="none" xmlns="http://www.w3.org/2000/svg">
<path d="M10.5488 2.6C10.541 2.5722 10.5366 2.5239 10.5366 2.4878C10.5366 2.21854 10.7551 2 11.0244 2C11.139 2 11.2195 2.04293 11.2507 2.05512C11.8473 2.28829 15.9439 4.22 14.9966 9.80488C16.3722 8.9761 15.8805 7.36585 16.3302 7.36585C16.4995 7.36585 16.5683 7.42878 16.6717 7.57659C18.1776 9.72488 19.3171 12.2863 19.3171 14.6829C19.3171 18.7239 16.041 22 12 22C7.55658 22 4.68292 18.2571 4.68292 14.6829C4.68292 8.73805 11.6893 7.64049 10.5488 2.6Z" fill="url(#paint0_linear_40_2061)"/>
<path d="M11.8141 10.3971C11.8141 10.3971 11.6912 10.2927 11.5122 10.2927C11.2429 10.2927 11.0244 10.5112 11.0244 10.7805C11.5122 13.7073 8.09755 14.6829 8.09755 18.0976C8.09755 20.2527 9.84487 22 12 22C14.1551 22 15.9024 20.2527 15.9024 18.0976C15.9024 15.3171 13.4532 11.6054 11.8141 10.3971Z" fill="url(#paint1_linear_40_2061)"/>
<defs>
<linearGradient id="paint0_linear_40_2061" x1="12" y1="1.95805" x2="12" y2="21.9278" gradientUnits="userSpaceOnUse">
<stop stop-color="#2AA4F4"/>
<stop offset="1" stop-color="#007AD9"/>
</linearGradient>
<linearGradient id="paint1_linear_40_2061" x1="12" y1="10.5473" x2="12" y2="21.8439" gradientUnits="userSpaceOnUse">
<stop stop-color="#A3FFFF"/>
<stop offset="0.223" stop-color="#9DFBFF"/>
<stop offset="0.53" stop-color="#8BF1FF"/>
<stop offset="0.885" stop-color="#6EE0FF"/>
<stop offset="1" stop-color="#63DAFF"/>
</linearGradient>
</defs>
</svg>
