<svg width="24" height="24" viewBox="0 0 24 24" fill="none" xmlns="http://www.w3.org/2000/svg">
<path d="M21 3.25H12V20.25H21C21.5525 20.25 22 19.8025 22 19.25V4.25C22 3.6975 21.5525 3.25 21 3.25Z" fill="#0078D4"/>
<path d="M12 3.25H3C2.4475 3.25 2 3.6975 2 4.25V19.25C2 19.8025 2.4475 20.25 3 20.25H12V3.25Z" fill="#1B9DE2"/>
<path d="M10.5 19.25C10.5 20.0785 11.1715 20.75 12 20.75V17.75C11.1715 17.75 10.5 18.4215 10.5 19.25Z" fill="#1B9DE2"/>
<path d="M13.5 19.25C13.5 18.4215 12.8285 17.75 12 17.75V20.75C12.8285 20.75 13.5 20.0785 13.5 19.25Z" fill="#0078D4"/>
<path d="M12 3.25H3.5C3.224 3.25 3 3.474 3 3.75V18.75C3 19.026 3.224 19.25 3.5 19.25H12V3.25Z" fill="white"/>
<path d="M20.5 3.25H12V19.25H20.5C20.776 19.25 21 19.026 21 18.75V3.75C21 3.474 20.776 3.25 20.5 3.25Z" fill="#F0F0F0"/>
<path d="M10.25 9.25H4.75C4.612 9.25 4.5 9.138 4.5 9V8.5C4.5 8.362 4.612 8.25 4.75 8.25H10.25C10.388 8.25 10.5 8.362 10.5 8.5V9C10.5 9.138 10.388 9.25 10.25 9.25Z" fill="url(#paint0_linear_40_2075)"/>
<path d="M10.25 11.25H4.75C4.612 11.25 4.5 11.138 4.5 11V10.5C4.5 10.362 4.612 10.25 4.75 10.25H10.25C10.388 10.25 10.5 10.362 10.5 10.5V11C10.5 11.138 10.388 11.25 10.25 11.25Z" fill="url(#paint1_linear_40_2075)"/>
<path d="M10.25 13.25H4.75C4.612 13.25 4.5 13.138 4.5 13V12.5C4.5 12.362 4.612 12.25 4.75 12.25H10.25C10.388 12.25 10.5 12.362 10.5 12.5V13C10.5 13.138 10.388 13.25 10.25 13.25Z" fill="url(#paint2_linear_40_2075)"/>
<path d="M9.25 15.25H4.75C4.612 15.25 4.5 15.138 4.5 15V14.5C4.5 14.362 4.612 14.25 4.75 14.25H9.25C9.388 14.25 9.5 14.362 9.5 14.5V15C9.5 15.138 9.388 15.25 9.25 15.25Z" fill="url(#paint3_linear_40_2075)"/>
<path d="M18.993 13.342C18.993 10.9005 15.3885 11.377 15.3885 9.9345C15.3885 9.1815 16.235 9.1415 16.5 9.1415C17.1365 9.1415 17.7505 9.312 18.2185 9.5315C18.366 9.6005 18.5355 9.4985 18.5355 9.3355V8.625C18.5355 8.3865 18.446 8.2455 18.303 8.19C17.982 8.065 17.521 7.974 16.8395 7.9515V7.1695C16.8395 7.076 16.7635 7 16.67 7H16.3305C16.237 7 16.161 7.076 16.161 7.1695V7.964C15.1035 8.0675 14.0075 8.664 14.0075 10.0525C14.0075 12.5835 17.612 12.0815 17.612 13.4145C17.612 13.8335 17.3445 14.1945 16.5005 14.1945C15.6525 14.1945 14.873 13.8985 14.4415 13.6775C14.2965 13.603 14.1255 13.711 14.1255 13.874V14.683C14.1255 14.838 14.219 14.976 14.3615 15.0365C14.8725 15.2535 15.558 15.418 16.161 15.466V16.33C16.161 16.4235 16.237 16.4995 16.3305 16.4995H16.67C16.7635 16.4995 16.8395 16.4235 16.8395 16.33V15.4675C18.421 15.336 18.993 14.277 18.993 13.342Z" fill="#0D62AB"/>
<defs>
<linearGradient id="paint0_linear_40_2075" x1="6.6921" y1="8.29359" x2="6.72549" y2="9.39528" gradientUnits="userSpaceOnUse">
<stop stop-color="#32BDEF"/>
<stop offset="1" stop-color="#1EA2E4"/>
</linearGradient>
<linearGradient id="paint1_linear_40_2075" x1="6.6921" y1="10.2936" x2="6.72549" y2="11.3953" gradientUnits="userSpaceOnUse">
<stop stop-color="#32BDEF"/>
<stop offset="1" stop-color="#1EA2E4"/>
</linearGradient>
<linearGradient id="paint2_linear_40_2075" x1="6.6921" y1="12.2936" x2="6.72549" y2="13.3953" gradientUnits="userSpaceOnUse">
<stop stop-color="#32BDEF"/>
<stop offset="1" stop-color="#1EA2E4"/>
</linearGradient>
<linearGradient id="paint3_linear_40_2075" x1="6.32675" y1="14.2936" x2="6.3668" y2="15.3948" gradientUnits="userSpaceOnUse">
<stop stop-color="#32BDEF"/>
<stop offset="1" stop-color="#1EA2E4"/>
</linearGradient>
</defs>
</svg>
