<svg width="24" height="24" viewBox="0 0 24 24" fill="none" xmlns="http://www.w3.org/2000/svg">
<path d="M9.39225 2C5.85742 2 2.99201 4.86541 2.99201 8.40024C2.99201 9.3764 3.21673 10.2976 3.60785 11.1253C3.60169 11.1395 3.59411 11.1509 3.58889 11.167L2.08744 14.5833C1.9016 15.0062 2.34867 15.4287 2.76018 15.2191L5.77967 13.6816C6.80797 14.3866 8.05104 14.8005 9.39225 14.8005C12.9271 14.8005 15.7925 11.9351 15.7925 8.40024C15.7925 4.86541 12.9271 2 9.39225 2Z" fill="url(#paint0_linear_40_2092)"/>
<path d="M21.9126 21.3093L20.1788 17.3649C20.7074 16.3911 21.0075 15.2751 21.0075 14.0894C21.0075 10.2928 17.9297 7.21503 14.1332 7.21503C10.3367 7.21503 7.25885 10.2928 7.25885 14.0894C7.25885 17.8859 10.3367 20.9637 14.1332 20.9637C15.372 20.9637 16.5311 20.6314 17.5348 20.0582L21.2398 21.9446C21.6513 22.1541 22.0984 21.7317 21.9126 21.3093Z" fill="url(#paint1_linear_40_2092)"/>
<path d="M13.5007 15.6297C13.4695 15.5481 13.4021 15.3063 13.4021 15.0669C13.4021 13.7044 14.805 13.6522 14.805 12.6415C14.805 12.0052 14.1763 11.9659 14.064 11.9659C13.35 11.9659 12.7924 12.3741 12.5582 12.5803V11.168C12.7991 11.0243 13.35 10.7366 14.2285 10.7366C16.2623 10.7366 16.2879 12.1347 16.2879 12.4348C16.2879 14.0486 14.6224 14.1685 14.6224 15.2025C14.6224 15.4182 14.7007 15.5761 14.7348 15.6292H13.5007V15.6297ZM14.1853 17.848C13.798 17.848 13.3889 17.6062 13.3889 17.1373C13.3889 16.6679 13.8141 16.4352 14.1853 16.4352C14.5565 16.4352 14.969 16.6433 14.969 17.1373C14.969 17.6313 14.5727 17.848 14.1853 17.848Z" fill="white"/>
<defs>
<linearGradient id="paint0_linear_40_2092" x1="5.36105" y1="3.39099" x2="10.9473" y2="15.2243" gradientUnits="userSpaceOnUse">
<stop stop-color="#33BEF0"/>
<stop offset="1" stop-color="#22A5E2"/>
</linearGradient>
<linearGradient id="paint1_linear_40_2092" x1="10.6268" y1="8.17554" x2="19.1334" y2="22.5225" gradientUnits="userSpaceOnUse">
<stop stop-color="#0176D0"/>
<stop offset="1" stop-color="#16538C"/>
</linearGradient>
</defs>
</svg>
