<svg width="24" height="24" viewBox="0 0 24 24" fill="none" xmlns="http://www.w3.org/2000/svg">
<path d="M22 12C22 17.5225 17.5225 22 12 22C6.4775 22 2 17.5225 2 12C2 6.4775 6.4775 2 12 2C17.5225 2 22 6.4775 22 12Z" fill="url(#paint0_linear_40_2104)"/>
<path opacity="0.05" d="M16.828 11.5C16.9415 11.266 17 11.012 17 10.75C17 9.785 16.215 9 15.25 9H12.0905L12.2125 8.267C12.495 8.01 13 7.422 13 6.5C13 5.673 12.327 5 11.5 5H11.26L7.767 9.366C7.2725 9.9845 7 10.7605 7 11.552V15C7 16.103 7.897 17 9 17H14.25C15.215 17 16 16.215 16 15.25C16 15.164 15.993 15.078 15.98 14.992C16.3105 14.6665 16.5 14.2235 16.5 13.75C16.5 13.664 16.493 13.578 16.48 13.492C16.8105 13.1665 17 12.7235 17 12.25C17 11.988 16.9415 11.734 16.828 11.5Z" fill="black"/>
<path opacity="0.07" d="M12.75 6.50001C12.75 5.89851 12.318 5.39751 11.752 5.29351C11.673 5.26551 11.4555 5.41601 11.367 5.41601L11.1875 5.49001L7.9615 9.52201C7.5015 10.097 7.2495 10.816 7.2495 11.552V15C7.2495 15.8955 7.9275 16.6345 8.7955 16.729C8.8615 16.7425 9.0975 16.75 9.1675 16.75H14.0545C14.1345 16.75 14.407 16.739 14.4805 16.719C15.1965 16.6175 15.7495 15.9975 15.7495 15.25C15.7495 15.1605 15.7405 15.072 15.7235 14.9855C15.7375 14.935 15.748 14.8845 15.756 14.834C16.0595 14.569 16.2495 14.1795 16.2495 13.75C16.2495 13.6605 16.2405 13.572 16.2235 13.486C16.2375 13.4355 16.2485 13.385 16.256 13.334C16.5595 13.069 16.749 12.6795 16.749 12.25C16.749 11.9775 16.671 11.7215 16.535 11.5C16.671 11.2785 16.749 11.0225 16.749 10.75C16.749 10.073 16.2835 9.50351 15.665 9.35551C15.541 9.28851 14.951 9.25001 14.8005 9.25001H11.9955L11.83 9.03351L11.9525 8.29701C11.9845 8.26801 12.049 8.06701 12.088 8.02151C12.2235 7.86451 12.75 7.35751 12.75 6.50001Z" fill="black"/>
<path d="M16.5 10.75C16.5 10.0595 15.9405 9.5 15.25 9.5H11.5L11.75 8C11.75 8 12.5 7.5 12.5 6.5C12.5 5.9475 12.0525 5.5 11.5 5.5L8.1575 9.6785C7.732 10.21 7.5 10.871 7.5 11.5525V15C7.5 15.8285 8.1715 16.5 9 16.5H14.25C14.9405 16.5 15.5 15.9405 15.5 15.25C15.5 15.0925 15.4675 14.9435 15.4145 14.805C15.7655 14.5835 16 14.1955 16 13.75C16 13.5925 15.9675 13.4435 15.9145 13.305C16.2655 13.0835 16.5 12.6955 16.5 12.25C16.5 11.9675 16.4025 11.7095 16.2445 11.5C16.4025 11.2905 16.5 11.0325 16.5 10.75Z" fill="url(#paint1_linear_40_2104)"/>
<defs>
<linearGradient id="paint0_linear_40_2104" x1="4.929" y1="4.929" x2="19.071" y2="19.071" gradientUnits="userSpaceOnUse">
<stop stop-color="#21AD64"/>
<stop offset="1" stop-color="#088242"/>
</linearGradient>
<linearGradient id="paint1_linear_40_2104" x1="9.146" y1="5.906" x2="13.5665" y2="16.738" gradientUnits="userSpaceOnUse">
<stop stop-color="#FFCF54"/>
<stop offset="0.261" stop-color="#FDCB4D"/>
<stop offset="0.639" stop-color="#F7C13A"/>
<stop offset="1" stop-color="#F0B421"/>
</linearGradient>
</defs>
</svg>
