<svg width="24" height="24" viewBox="0 0 24 24" fill="none" xmlns="http://www.w3.org/2000/svg">
<path d="M22 14.929C22 15.0998 21.9512 15.2707 21.8633 15.422L15.4147 14.929L21.8633 14.4359C21.9512 14.5872 22 14.7581 22 14.929Z" fill="#EBA400"/>
<path d="M22 14.929C22 15.0998 21.9512 15.2707 21.8633 15.422L19.115 20.3036C18.9441 20.6014 18.6219 20.7869 18.2753 20.7869H5.6661C5.49524 20.7869 5.32926 20.743 5.18282 20.6551L5.62216 14.929H22Z" fill="url(#paint0_linear_40_2132)"/>
<path d="M13.8155 5.98092L5.18282 20.6551H5.17793C5.03149 20.5721 4.90945 20.4501 4.82158 20.2987L2.1318 15.4806C1.95607 15.1779 1.95607 14.802 2.1318 14.4994L8.29729 3.70121C8.38516 3.54988 8.5072 3.42784 8.65365 3.34485H8.65853L13.8155 5.98092Z" fill="url(#paint1_linear_40_2132)"/>
<path d="M22 14.929H15.4152L8.65852 3.34488C8.80497 3.25701 8.97095 3.21307 9.1418 3.21307H14.8582C15.2048 3.21307 15.527 3.39858 15.6978 3.69635L21.8633 14.4359C21.9512 14.5872 22 14.7581 22 14.929Z" fill="url(#paint2_linear_40_2132)"/>
<defs>
<linearGradient id="paint0_linear_40_2132" x1="19.4811" y1="20.5409" x2="8.2514" y2="15.3048" gradientUnits="userSpaceOnUse">
<stop stop-color="#2A96F4"/>
<stop offset="0.535" stop-color="#2895F3"/>
<stop offset="0.728" stop-color="#2190EE"/>
<stop offset="0.865" stop-color="#1687E7"/>
<stop offset="0.976" stop-color="#057BDC"/>
<stop offset="1" stop-color="#0077D9"/>
</linearGradient>
<linearGradient id="paint1_linear_40_2132" x1="1.75201" y1="14.9826" x2="12.0688" y2="9.02657" gradientUnits="userSpaceOnUse">
<stop stop-color="#4CAF50"/>
<stop offset="0.486" stop-color="#4AAE50"/>
<stop offset="0.661" stop-color="#43A94E"/>
<stop offset="0.786" stop-color="#38A14C"/>
<stop offset="0.887" stop-color="#279648"/>
<stop offset="0.972" stop-color="#118844"/>
<stop offset="1" stop-color="#088242"/>
</linearGradient>
<linearGradient id="paint2_linear_40_2132" x1="15.3293" y1="3.21307" x2="15.3293" y2="14.929" gradientUnits="userSpaceOnUse">
<stop stop-color="#FFD747"/>
<stop offset="0.482" stop-color="#FED645"/>
<stop offset="0.655" stop-color="#FDD13E"/>
<stop offset="0.779" stop-color="#F9C833"/>
<stop offset="0.879" stop-color="#F4BC22"/>
<stop offset="0.964" stop-color="#EEAD0C"/>
<stop offset="1" stop-color="#EBA400"/>
</linearGradient>
</defs>
</svg>
