<svg width="24" height="24" viewBox="0 0 24 24" fill="none" xmlns="http://www.w3.org/2000/svg">
<path d="M18.1111 5.88889H5.88889V18.1111H18.1111V5.88889Z" fill="white"/>
<path d="M12.9333 10.2889L13.4933 11.0889L14.3733 10.4489V15.0889H15.3333V9.00891H14.5333L12.9333 10.2889Z" fill="#1E88E5"/>
<path d="M11.4128 11.8583C11.76 11.5394 11.9756 11.0972 11.9756 10.6089C11.9756 9.63832 11.1239 8.84888 10.0772 8.84888C9.18722 8.84888 8.42611 9.40943 8.22722 10.2117L9.14778 10.4455C9.23944 10.0767 9.63 9.80888 10.0772 9.80888C10.6006 9.80888 11.0267 10.1678 11.0267 10.6089C11.0267 11.05 10.6006 11.4089 10.0772 11.4089H9.52333V12.3689H10.0772C10.6778 12.3689 11.1844 12.7861 11.1844 13.28C11.1844 13.7822 10.7033 14.1911 10.1117 14.1911C9.57722 14.1911 9.12056 13.8522 9.04833 13.4033L8.11111 13.5567C8.25667 14.4655 9.11667 15.1511 10.1111 15.1511C11.2261 15.1511 12.1333 14.3117 12.1333 13.28C12.1333 12.7117 11.8533 12.2017 11.4128 11.8583Z" fill="#1E88E5"/>
<path d="M17.5556 22H6.44444L5.88889 19.7778L6.44444 17.5555H17.5556L18.1111 19.7778L17.5556 22Z" fill="#FBC02D"/>
<path d="M19.7778 18.1111L22 17.5556V6.44444L19.7778 5.88889L17.5556 6.44444V17.5556L19.7778 18.1111Z" fill="#4CAF50"/>
<path d="M17.5556 6.44444L18.1111 4.22222L17.5556 2H3.66667C2.74611 2 2 2.74611 2 3.66667V17.5556L4.22222 18.1111L6.44444 17.5556V6.44444H17.5556Z" fill="#1E88E5"/>
<path d="M17.5556 17.5555V22L22 17.5555H17.5556Z" fill="#E53935"/>
<path d="M20.3333 2H17.5556V6.44444H22V3.66667C22 2.74611 21.2539 2 20.3333 2Z" fill="#3d7abe"/>
<path d="M3.66667 22H6.44444V17.5555H2V20.3333C2 21.2539 2.74611 22 3.66667 22Z" fill="#3d7abe"/>
</svg>
