<svg width="24" height="24" viewBox="0 0 24 24" fill="none" xmlns="http://www.w3.org/2000/svg">
<path d="M17.7366 12.9073H17.7415C17.7415 12.9073 15.9024 15.6049 14.3561 17.6097C13.0195 19.3415 12.6293 20.8244 12.5171 21.5415C12.4732 21.8049 12.2585 22 12 22C11.7415 22 11.5268 21.8049 11.4829 21.5415C11.3707 20.8244 10.9805 19.3415 9.64391 17.6097C9.43903 17.3415 9.22927 17.0634 9.01952 16.7805L14.0683 10.7805L18.1317 5.96097C18.5805 6.90243 18.8293 7.95609 18.8293 9.07316C18.8293 10.4878 18.4244 11.8 17.7366 12.9073Z" fill="#48B564"/>
<path d="M14.0683 10.7805L9.01951 16.7805C7.6439 14.9366 6.25853 12.9073 6.25853 12.9073H6.26341C6.11707 12.6732 5.98536 12.4341 5.87317 12.1854L9.93171 7.36584C9.54634 7.82926 9.31707 8.42438 9.31707 9.07316C9.31707 10.5561 10.5171 11.7561 12 11.7561C12.8341 11.7561 13.5805 11.3756 14.0683 10.7805Z" fill="#FCC60E"/>
<path d="M14.1463 2.36098L9.96585 7.32683L6.76585 4.53659C8.01463 2.98537 9.89756 2 12 2C12.7512 2 13.4732 2.12683 14.1463 2.36098Z" fill="#2C85EB"/>
<path d="M9.96585 7.32683L9.93171 7.36586L5.87317 12.1854C5.42439 11.2439 5.17073 10.1902 5.17073 9.07318C5.17073 7.34635 5.77073 5.76098 6.76585 4.53659L9.96585 7.32683Z" fill="#ED5748"/>
<path d="M14.0683 10.7805C14.4537 10.3171 14.6829 9.72194 14.6829 9.07316C14.6829 7.59023 13.4829 6.39023 12 6.39023C11.1659 6.39023 10.4195 6.77072 9.93172 7.36584L14.1464 2.36096C15.8976 2.95608 17.3317 4.26828 18.1317 5.96096L14.0683 10.7805Z" fill="#5695F6"/>
</svg>
