<svg width="24" height="24" viewBox="0 0 24 24" fill="none" xmlns="http://www.w3.org/2000/svg">
<path d="M3.05263 3.05263V14.1053C3.05263 14.3958 3.28842 14.6316 3.57895 14.6316H13.0526C13.3432 14.6316 13.5789 14.3958 13.5789 14.1053V3.05263C13.5789 2.47105 13.1079 2 12.5263 2H4.10526C3.52368 2 3.05263 2.47105 3.05263 3.05263Z" fill="#0D62AB"/>
<path d="M5.68421 7.78946H4.63158V8.84209H5.68421V7.78946Z" fill="url(#paint0_linear_40_2186)"/>
<path d="M5.68421 5.6842H4.63158V6.73684H5.68421V5.6842Z" fill="url(#paint1_linear_40_2186)"/>
<path d="M5.68421 9.89474H4.63158V10.9474H5.68421V9.89474Z" fill="url(#paint2_linear_40_2186)"/>
<path d="M5.68421 12H4.63158V13.0526H5.68421V12Z" fill="url(#paint3_linear_40_2186)"/>
<path d="M13.5789 4.10527H3.05263C2.76158 4.10527 2.52631 3.86948 2.52631 3.57896C2.52631 3.28843 2.76158 3.05264 3.05263 3.05264H13.5789C13.87 3.05264 14.1053 3.28843 14.1053 3.57896C14.1053 3.86948 13.87 4.10527 13.5789 4.10527Z" fill="#0078D4"/>
<path d="M6.73684 6.73684V17.7895C6.73684 18.08 6.97263 18.3158 7.26316 18.3158H16.7368C17.0274 18.3158 17.2632 18.08 17.2632 17.7895V6.73684C17.2632 6.15526 16.7921 5.6842 16.2105 5.6842H7.78947C7.20789 5.6842 6.73684 6.15526 6.73684 6.73684Z" fill="url(#paint4_linear_40_2186)"/>
<path d="M9.36842 11.4737H8.31579V12.5263H9.36842V11.4737Z" fill="#0078D4"/>
<path d="M9.36842 9.36841H8.31579V10.421H9.36842V9.36841Z" fill="#0078D4"/>
<path d="M9.36842 13.5789H8.31579V14.6316H9.36842V13.5789Z" fill="#0078D4"/>
<path d="M9.36842 15.6842H8.31579V16.7368H9.36842V15.6842Z" fill="#0078D4"/>
<path d="M17.2632 7.78948H6.73684C6.44579 7.78948 6.21053 7.55369 6.21053 7.26316C6.21053 6.97264 6.44579 6.73685 6.73684 6.73685H17.2632C17.5542 6.73685 17.7895 6.97264 17.7895 7.26316C17.7895 7.55369 17.5542 7.78948 17.2632 7.78948Z" fill="url(#paint5_linear_40_2186)"/>
<path d="M10.4211 10.421V21.4737C10.4211 21.7642 10.6568 22 10.9474 22H20.4211C20.7116 22 20.9474 21.7642 20.9474 21.4737V10.421C20.9474 9.83946 20.4763 9.36841 19.8947 9.36841H11.4737C10.8921 9.36841 10.4211 9.83946 10.4211 10.421Z" fill="url(#paint6_linear_40_2186)"/>
<path d="M17.2632 15.1579H16.2105V16.2105H17.2632V15.1579Z" fill="url(#paint7_linear_40_2186)"/>
<path d="M15.1579 15.1579H14.1053V16.2105H15.1579V15.1579Z" fill="url(#paint8_linear_40_2186)"/>
<path d="M13.0526 15.1579H12V16.2105H13.0526V15.1579Z" fill="url(#paint9_linear_40_2186)"/>
<path d="M17.2632 13.0526H16.2105V14.1053H17.2632V13.0526Z" fill="url(#paint10_linear_40_2186)"/>
<path d="M15.1579 13.0526H14.1053V14.1053H15.1579V13.0526Z" fill="url(#paint11_linear_40_2186)"/>
<path d="M19.3684 15.1579H18.3158V16.2105H19.3684V15.1579Z" fill="url(#paint12_linear_40_2186)"/>
<path d="M19.3684 13.0526H18.3158V14.1053H19.3684V13.0526Z" fill="url(#paint13_linear_40_2186)"/>
<path d="M13.0526 13.0526H12V14.1053H13.0526V13.0526Z" fill="url(#paint14_linear_40_2186)"/>
<path d="M17.2632 17.2632H16.2105V18.3158H17.2632V17.2632Z" fill="url(#paint15_linear_40_2186)"/>
<path d="M15.1579 17.2632H14.1053V18.3158H15.1579V17.2632Z" fill="url(#paint16_linear_40_2186)"/>
<path d="M13.0526 17.2632H12V18.3158H13.0526V17.2632Z" fill="url(#paint17_linear_40_2186)"/>
<path d="M19.3684 17.2632H18.3158V18.3158H19.3684V17.2632Z" fill="url(#paint18_linear_40_2186)"/>
<path d="M17.2632 19.3684H16.2105V20.421H17.2632V19.3684Z" fill="url(#paint19_linear_40_2186)"/>
<path d="M15.1579 19.3684H14.1053V20.421H15.1579V19.3684Z" fill="url(#paint20_linear_40_2186)"/>
<path d="M19.3684 19.3684H18.3158V20.421H19.3684V19.3684Z" fill="url(#paint21_linear_40_2186)"/>
<path d="M13.0526 19.3684H12V20.421H13.0526V19.3684Z" fill="url(#paint22_linear_40_2186)"/>
<path d="M20.9474 11.4737H10.421C10.13 11.4737 9.89473 11.2379 9.89473 10.9474C9.89473 10.6568 10.13 10.4211 10.421 10.4211H20.9474C21.2384 10.4211 21.4737 10.6568 21.4737 10.9474C21.4737 11.2379 21.2384 11.4737 20.9474 11.4737Z" fill="url(#paint23_linear_40_2186)"/>
<defs>
<linearGradient id="paint0_linear_40_2186" x1="4.86478" y1="7.63265" x2="5.57831" y2="8.6801" gradientUnits="userSpaceOnUse">
<stop stop-color="#FCFCFC"/>
<stop offset="0.95" stop-color="#C3C9CD"/>
</linearGradient>
<linearGradient id="paint1_linear_40_2186" x1="4.86478" y1="5.52739" x2="5.57831" y2="6.57485" gradientUnits="userSpaceOnUse">
<stop stop-color="#FCFCFC"/>
<stop offset="0.95" stop-color="#C3C9CD"/>
</linearGradient>
<linearGradient id="paint2_linear_40_2186" x1="4.86478" y1="9.73793" x2="5.57831" y2="10.7854" gradientUnits="userSpaceOnUse">
<stop stop-color="#FCFCFC"/>
<stop offset="0.95" stop-color="#C3C9CD"/>
</linearGradient>
<linearGradient id="paint3_linear_40_2186" x1="4.86478" y1="11.8432" x2="5.57831" y2="12.8906" gradientUnits="userSpaceOnUse">
<stop stop-color="#FCFCFC"/>
<stop offset="0.95" stop-color="#C3C9CD"/>
</linearGradient>
<linearGradient id="paint4_linear_40_2186" x1="9.06886" y1="3.80244" x2="18.0862" y2="14.8335" gradientUnits="userSpaceOnUse">
<stop stop-color="#FCFCFC"/>
<stop offset="0.95" stop-color="#C3C9CD"/>
</linearGradient>
<linearGradient id="paint5_linear_40_2186" x1="8.77575" y1="6.58004" x2="8.87035" y2="8.1077" gradientUnits="userSpaceOnUse">
<stop stop-color="#FCFCFC"/>
<stop offset="0.95" stop-color="#C3C9CD"/>
</linearGradient>
<linearGradient id="paint6_linear_40_2186" x1="12.7531" y1="7.48664" x2="21.7704" y2="18.5177" gradientUnits="userSpaceOnUse">
<stop stop-color="#FCFCFC"/>
<stop offset="0.95" stop-color="#C3C9CD"/>
</linearGradient>
<linearGradient id="paint7_linear_40_2186" x1="16.4437" y1="15.0011" x2="17.1573" y2="16.0485" gradientUnits="userSpaceOnUse">
<stop stop-color="#FCFCFC"/>
<stop offset="0.95" stop-color="#C3C9CD"/>
</linearGradient>
<linearGradient id="paint8_linear_40_2186" x1="14.3384" y1="15.0011" x2="15.052" y2="16.0485" gradientUnits="userSpaceOnUse">
<stop stop-color="#FCFCFC"/>
<stop offset="0.95" stop-color="#C3C9CD"/>
</linearGradient>
<linearGradient id="paint9_linear_40_2186" x1="12.2332" y1="15.0011" x2="12.9467" y2="16.0485" gradientUnits="userSpaceOnUse">
<stop stop-color="#FCFCFC"/>
<stop offset="0.95" stop-color="#C3C9CD"/>
</linearGradient>
<linearGradient id="paint10_linear_40_2186" x1="16.4437" y1="12.8958" x2="17.1573" y2="13.9433" gradientUnits="userSpaceOnUse">
<stop stop-color="#FCFCFC"/>
<stop offset="0.95" stop-color="#C3C9CD"/>
</linearGradient>
<linearGradient id="paint11_linear_40_2186" x1="14.3384" y1="12.8958" x2="15.052" y2="13.9433" gradientUnits="userSpaceOnUse">
<stop stop-color="#FCFCFC"/>
<stop offset="0.95" stop-color="#C3C9CD"/>
</linearGradient>
<linearGradient id="paint12_linear_40_2186" x1="18.5489" y1="15.0011" x2="19.2625" y2="16.0485" gradientUnits="userSpaceOnUse">
<stop stop-color="#FCFCFC"/>
<stop offset="0.95" stop-color="#C3C9CD"/>
</linearGradient>
<linearGradient id="paint13_linear_40_2186" x1="18.5489" y1="12.8958" x2="19.2625" y2="13.9433" gradientUnits="userSpaceOnUse">
<stop stop-color="#FCFCFC"/>
<stop offset="0.95" stop-color="#C3C9CD"/>
</linearGradient>
<linearGradient id="paint14_linear_40_2186" x1="12.2332" y1="12.8958" x2="12.9467" y2="13.9433" gradientUnits="userSpaceOnUse">
<stop stop-color="#FCFCFC"/>
<stop offset="0.95" stop-color="#C3C9CD"/>
</linearGradient>
<linearGradient id="paint15_linear_40_2186" x1="16.4437" y1="17.1063" x2="17.1573" y2="18.1538" gradientUnits="userSpaceOnUse">
<stop stop-color="#FCFCFC"/>
<stop offset="0.95" stop-color="#C3C9CD"/>
</linearGradient>
<linearGradient id="paint16_linear_40_2186" x1="14.3384" y1="17.1063" x2="15.052" y2="18.1538" gradientUnits="userSpaceOnUse">
<stop stop-color="#FCFCFC"/>
<stop offset="0.95" stop-color="#C3C9CD"/>
</linearGradient>
<linearGradient id="paint17_linear_40_2186" x1="12.2332" y1="17.1063" x2="12.9467" y2="18.1538" gradientUnits="userSpaceOnUse">
<stop stop-color="#FCFCFC"/>
<stop offset="0.95" stop-color="#C3C9CD"/>
</linearGradient>
<linearGradient id="paint18_linear_40_2186" x1="18.5489" y1="17.1063" x2="19.2625" y2="18.1538" gradientUnits="userSpaceOnUse">
<stop stop-color="#FCFCFC"/>
<stop offset="0.95" stop-color="#C3C9CD"/>
</linearGradient>
<linearGradient id="paint19_linear_40_2186" x1="16.4437" y1="19.2116" x2="17.1573" y2="20.259" gradientUnits="userSpaceOnUse">
<stop stop-color="#FCFCFC"/>
<stop offset="0.95" stop-color="#C3C9CD"/>
</linearGradient>
<linearGradient id="paint20_linear_40_2186" x1="14.3384" y1="19.2116" x2="15.052" y2="20.259" gradientUnits="userSpaceOnUse">
<stop stop-color="#FCFCFC"/>
<stop offset="0.95" stop-color="#C3C9CD"/>
</linearGradient>
<linearGradient id="paint21_linear_40_2186" x1="18.5489" y1="19.2116" x2="19.2625" y2="20.259" gradientUnits="userSpaceOnUse">
<stop stop-color="#FCFCFC"/>
<stop offset="0.95" stop-color="#C3C9CD"/>
</linearGradient>
<linearGradient id="paint22_linear_40_2186" x1="12.2332" y1="19.2116" x2="12.9467" y2="20.259" gradientUnits="userSpaceOnUse">
<stop stop-color="#FCFCFC"/>
<stop offset="0.95" stop-color="#C3C9CD"/>
</linearGradient>
<linearGradient id="paint23_linear_40_2186" x1="12.8984" y1="10.3607" x2="13.0223" y2="11.8004" gradientUnits="userSpaceOnUse">
<stop stop-color="#FCFCFC"/>
<stop offset="0.495" stop-color="#F4F4F4"/>
<stop offset="0.946" stop-color="#E8E8E8"/>
<stop offset="1" stop-color="#E8E8E8"/>
</linearGradient>
</defs>
</svg>
