<svg width="24" height="24" viewBox="0 0 24 24" fill="none" xmlns="http://www.w3.org/2000/svg">
<path d="M11.2791 4.23364L10.1264 3.08091C9.87091 2.82546 9.52409 2.68182 9.16227 2.68182H2.90909C2.40682 2.68182 2 3.08864 2 3.59091V6.54546L2.90909 16.3182C2.90909 16.8205 3.31591 17.2273 3.81818 17.2273H18.3636C18.8659 17.2273 19.2727 16.8205 19.2727 16.3182V5.86364C19.2727 5.36137 18.8659 4.95455 18.3636 4.95455L11.9218 4.50001C11.6809 4.50001 11.4495 4.4041 11.2791 4.23364Z" fill="url(#paint0_linear_40_2164)"/>
<path d="M9.99364 6.05182L11.4791 4.56636C11.5214 4.52409 11.5791 4.5 11.6395 4.5H19.2727C19.775 4.5 20.1818 4.90682 20.1818 5.40909V17.2273C20.1818 17.7295 19.775 18.1364 19.2727 18.1364H2.90909C2.40682 18.1364 2 17.7295 2 17.2273V6.54545C2 6.42 2.10182 6.31818 2.22727 6.31818H9.35091C9.59182 6.31818 9.82318 6.22227 9.99364 6.05182Z" fill="url(#paint1_linear_40_2164)"/>
<path opacity="0.05" d="M19.2727 13.5909C18.2682 13.5909 17.4545 14.4046 17.4545 15.4091C17.4545 16.4046 18.2545 17.2136 19.25 17.2273H19.2727C19.6045 17.2273 19.9136 17.1364 20.1818 16.9818V13.8364C19.9136 13.6818 19.6045 13.5909 19.2727 13.5909ZM19.2727 17.2273H19.25C18.7818 17.2273 18.3136 17.3318 17.8909 17.5318C17.2 16.7591 16.2227 16.3182 15.1818 16.3182C13.8409 16.3182 12.6636 17.05 12.0364 18.1364H19.2727C19.7273 18.1364 20.1091 17.8 20.1727 17.3591C19.8864 17.2773 19.5864 17.2273 19.2727 17.2273ZM15.1818 11.7727C13.9273 11.7727 12.9091 12.7909 12.9091 14.0455C12.9091 15.3 13.9273 16.3182 15.1818 16.3182C16.4364 16.3182 17.4545 15.3 17.4545 14.0455C17.4545 12.7909 16.4364 11.7727 15.1818 11.7727Z" fill="black"/>
<path opacity="0.07" d="M19.2727 13.8182C18.3955 13.8182 17.6818 14.5318 17.6818 15.4091C17.6818 16.2864 18.3955 17 19.2727 17C19.6091 17 19.9273 16.8955 20.1818 16.7091V14.1091C19.9273 13.9227 19.6091 13.8182 19.2727 13.8182ZM19.25 17.4545C18.7545 17.4545 18.2682 17.5773 17.8364 17.8182C17.1909 17.0182 16.2136 16.5455 15.1818 16.5455C13.9682 16.5455 12.9045 17.1773 12.3045 18.1364H19.2727C19.65 18.1364 19.9727 17.9045 20.1091 17.5773C19.8364 17.5 19.55 17.4545 19.25 17.4545ZM15.1818 12C14.0545 12 13.1364 12.9182 13.1364 14.0455C13.1364 15.1727 14.0545 16.0909 15.1818 16.0909C16.3091 16.0909 17.2273 15.1727 17.2273 14.0455C17.2273 12.9182 16.3091 12 15.1818 12Z" fill="black"/>
<path d="M15.1818 15.8636C16.186 15.8636 17 15.0496 17 14.0454C17 13.0413 16.186 12.2273 15.1818 12.2273C14.1776 12.2273 13.3636 13.0413 13.3636 14.0454C13.3636 15.0496 14.1776 15.8636 15.1818 15.8636Z" fill="url(#paint2_linear_40_2164)"/>
<path d="M19.25 17.6818C17.7627 17.6818 16.5455 18.8791 16.5455 20.3427V20.9191C16.5455 21.1409 16.7259 21.3182 16.9514 21.3182H21.5945C21.8195 21.3182 22 21.1409 22 20.9191V20.3427C21.955 18.835 20.7377 17.6818 19.25 17.6818Z" fill="#0078D4"/>
<path d="M15.1818 16.7727C13.4245 16.7727 12 18.1973 12 19.9546V20.8636C12 21.1146 12.2036 21.3182 12.4545 21.3182H17.9091C18.16 21.3182 18.3636 21.1146 18.3636 20.8636V19.9546C18.3636 18.1973 16.9391 16.7727 15.1818 16.7727Z" fill="url(#paint3_linear_40_2164)"/>
<path d="M19.2727 16.7727C20.0258 16.7727 20.6364 16.1622 20.6364 15.4091C20.6364 14.656 20.0258 14.0455 19.2727 14.0455C18.5196 14.0455 17.9091 14.656 17.9091 15.4091C17.9091 16.1622 18.5196 16.7727 19.2727 16.7727Z" fill="#0078D4"/>
<defs>
<linearGradient id="paint0_linear_40_2164" x1="10.6364" y1="2.55682" x2="10.6364" y2="6.09455" gradientUnits="userSpaceOnUse">
<stop stop-color="#EBA600"/>
<stop offset="1" stop-color="#C28200"/>
</linearGradient>
<linearGradient id="paint1_linear_40_2164" x1="11.0909" y1="4.43364" x2="11.0909" y2="18.1286" gradientUnits="userSpaceOnUse">
<stop stop-color="#FFD869"/>
<stop offset="1" stop-color="#FEC52B"/>
</linearGradient>
<linearGradient id="paint2_linear_40_2164" x1="13.3636" y1="14.0454" x2="17" y2="14.0454" gradientUnits="userSpaceOnUse">
<stop stop-color="#32BDEF"/>
<stop offset="1" stop-color="#1EA2E4"/>
</linearGradient>
<linearGradient id="paint3_linear_40_2164" x1="12" y1="19.0455" x2="18.3636" y2="19.0455" gradientUnits="userSpaceOnUse">
<stop stop-color="#32BDEF"/>
<stop offset="1" stop-color="#1EA2E4"/>
</linearGradient>
</defs>
</svg>
