<svg width="24" height="24" viewBox="0 0 24 24" fill="none" xmlns="http://www.w3.org/2000/svg">
<path d="M20.9936 5.51498L18.8236 7.68498C18.6841 7.82448 18.4461 7.72598 18.4461 7.52898V6.18798H13.4461C13.2736 6.18798 13.1336 6.04798 13.1336 5.87548V4.62548C13.1336 4.45298 13.2736 4.31298 13.4461 4.31298H18.4461V2.97148C18.4461 2.77448 18.6841 2.67598 18.8236 2.81548L20.9936 4.98548C21.1401 5.13148 21.1401 5.36898 20.9936 5.51498Z" fill="url(#paint0_linear_40_2219)"/>
<path d="M13.6341 5.25C13.6341 7.0445 12.1786 8.5 10.3841 8.5C8.58956 8.5 7.13406 7.0445 7.13406 5.25C7.13406 3.4555 8.58956 2 10.3841 2C12.1786 2 13.6341 3.4555 13.6341 5.25Z" fill="url(#paint1_linear_40_2219)"/>
<path d="M4.31406 16.1375C4.31456 16.134 4.31606 16.1315 4.31656 16.128L4.31556 16.1275L4.31406 16.1375Z" fill="url(#paint2_linear_40_2219)"/>
<path d="M18.0031 10.951L11.6341 10V4.82151C11.6341 4.16751 11.1636 3.57201 10.5131 3.50651C9.76456 3.43151 9.13406 4.01701 9.13406 4.75001C9.13406 4.86851 9.13406 20.984 9.13406 20.984C9.86456 21.634 10.8076 22 11.7911 22H17.1341C18.7911 22 20.1341 20.657 20.1341 19V13.4235C20.1341 12.1855 19.2281 11.134 18.0031 10.951Z" fill="url(#paint3_linear_40_2219)"/>
<path d="M11.6341 10V13L12.9391 10.195L11.6341 10Z" fill="url(#paint4_linear_40_2219)"/>
<path d="M10.3841 5.5C10.7983 5.5 11.1341 5.16421 11.1341 4.75C11.1341 4.33579 10.7983 4 10.3841 4C9.96985 4 9.63406 4.33579 9.63406 4.75C9.63406 5.16421 9.96985 5.5 10.3841 5.5Z" fill="#FFF0C9"/>
<path d="M4.14556 12.5C3.28556 12.5 2.89656 13.034 2.89656 13.746L8.93906 20.8105C9.00106 20.8725 9.06856 20.9285 9.13356 20.9865V13.634C7.99706 15.574 7.16406 13.8375 6.29856 14.039C6.29906 14.039 5.93906 12.5 4.14556 12.5Z" fill="url(#paint5_linear_40_2219)"/>
<defs>
<linearGradient id="paint0_linear_40_2219" x1="13.1341" y1="5.24998" x2="21.1036" y2="5.24998" gradientUnits="userSpaceOnUse">
<stop stop-color="#0D61A9"/>
<stop offset="1" stop-color="#16528C"/>
</linearGradient>
<linearGradient id="paint1_linear_40_2219" x1="8.92206" y1="2.405" x2="11.9411" y2="8.2805" gradientUnits="userSpaceOnUse">
<stop stop-color="#75DAFF"/>
<stop offset="1" stop-color="#1EA2E4"/>
</linearGradient>
<linearGradient id="paint2_linear_40_2219" x1="4.326" y1="16.1356" x2="4.32698" y2="16.1357" gradientUnits="userSpaceOnUse">
<stop stop-color="#FFC430"/>
<stop offset="0.57" stop-color="#F8BD29"/>
<stop offset="1" stop-color="#F0B421"/>
</linearGradient>
<linearGradient id="paint3_linear_40_2219" x1="10.1296" y1="12.022" x2="22.4161" y2="24.781" gradientUnits="userSpaceOnUse">
<stop stop-color="#FFC430"/>
<stop offset="0.41" stop-color="#FEC130"/>
<stop offset="0.72" stop-color="#FCB730"/>
<stop offset="0.998" stop-color="#F7A72F"/>
<stop offset="1" stop-color="#F7A72F"/>
</linearGradient>
<linearGradient id="paint4_linear_40_2219" x1="12.0901" y1="11.4905" x2="11.2156" y2="11.0145" gradientUnits="userSpaceOnUse">
<stop offset="0.282" stop-color="#FFC430"/>
<stop offset="0.401" stop-color="#F8BD2D"/>
<stop offset="0.574" stop-color="#E5AA23"/>
<stop offset="0.78" stop-color="#C58A14"/>
<stop offset="1" stop-color="#9C6000"/>
</linearGradient>
<linearGradient id="paint5_linear_40_2219" x1="5.82856" y1="17.253" x2="10.0521" y2="13.088" gradientUnits="userSpaceOnUse">
<stop offset="0.282" stop-color="#FFC430"/>
<stop offset="0.401" stop-color="#F8BD2D"/>
<stop offset="0.574" stop-color="#E5AA23"/>
<stop offset="0.78" stop-color="#C58A14"/>
<stop offset="1" stop-color="#9C6000"/>
</linearGradient>
</defs>
</svg>
