<svg width="24" height="24" viewBox="0 0 24 24" fill="none" xmlns="http://www.w3.org/2000/svg">
<path d="M19.8947 14.6316H18.5132L19.8947 3.57894C19.8947 2.99736 19.4237 2.52631 18.8421 2.52631H16.7368C16.1553 2.52631 15.6842 2.99736 15.6842 3.57894L14.3026 14.6316H3.05263C2.47105 14.6316 2 15.1026 2 15.6842V17.7895C2 18.3705 2.47105 18.8421 3.05263 18.8421H13.7763L13.5789 20.421C13.5789 21.0021 14.05 21.4737 14.6316 21.4737H16.7368C17.3184 21.4737 17.7895 21.0021 17.7895 20.421L17.9868 18.8421H19.8947C20.4763 18.8421 20.9474 18.3705 20.9474 17.7895V15.6842C20.9474 15.1026 20.4763 14.6316 19.8947 14.6316Z" fill="url(#paint0_linear_40_2228)"/>
<path d="M20.9474 5.15789H10.2237L10.4211 3.57894C10.4211 2.99736 9.95 2.52631 9.36842 2.52631H7.26316C6.68158 2.52631 6.21053 2.99736 6.21053 3.57894L6.01316 5.15789H4.10526C3.52368 5.15789 3.05263 5.62894 3.05263 6.21052V8.31578C3.05263 8.89683 3.52368 9.36841 4.10526 9.36841H5.48684L4.10526 20.421C4.10526 21.0021 4.57632 21.4737 5.15789 21.4737H7.26316C7.84474 21.4737 8.31579 21.0021 8.31579 20.421L9.69737 9.36841H20.9474C21.5289 9.36841 22 8.89683 22 8.31578V6.21052C22 5.62894 21.5289 5.15789 20.9474 5.15789Z" fill="url(#paint1_linear_40_2228)"/>
<defs>
<linearGradient id="paint0_linear_40_2228" x1="11.4737" y1="2.48656" x2="11.4737" y2="21.4053" gradientUnits="userSpaceOnUse">
<stop stop-color="#2AA4F4"/>
<stop offset="1" stop-color="#007AD9"/>
</linearGradient>
<linearGradient id="paint1_linear_40_2228" x1="12.5263" y1="2.48656" x2="12.5263" y2="21.4053" gradientUnits="userSpaceOnUse">
<stop stop-color="#2AA4F4"/>
<stop offset="1" stop-color="#007AD9"/>
</linearGradient>
</defs>
</svg>
