<svg width="24" height="24" viewBox="0 0 24 24" fill="none" xmlns="http://www.w3.org/2000/svg">
<path d="M19.1429 21.0476H12V20.0952H19.1429C19.4057 20.0952 19.619 19.8819 19.619 19.6191V15.3333H20.5714V19.6191C20.5714 20.4067 19.9305 21.0476 19.1429 21.0476Z" fill="#727D86"/>
<path d="M12 2.95239C6.28571 2.95239 4.87381 7.23811 4.87381 7.23811H5.03762C5.66619 7.23811 6.25381 6.96953 6.70476 6.53239C8.07619 5.20239 9.94286 4.38096 12 4.38096C14.0571 4.38096 15.9238 5.20239 17.2952 6.53239C17.7462 6.96953 18.3343 7.23811 18.9624 7.23811H19.1262C19.1262 7.23811 17.7143 2.95239 12 2.95239Z" fill="url(#paint0_linear_40_2236)"/>
<path d="M4.38095 13.9048V10.5714C4.38095 6.37048 7.79905 2.95238 12 2.95238C16.201 2.95238 19.619 6.37048 19.619 10.5714V13.9048H20.5714C20.5714 12.129 20.5714 11.151 20.5714 10.5714C20.5714 5.83762 16.7338 2 12 2C7.26619 2 3.42857 5.83762 3.42857 10.5714C3.42857 11.151 3.42857 12.129 3.42857 13.9048H4.38095Z" fill="#727D86"/>
<path d="M19.619 12.4762L20.2924 13.1495C20.471 13.3281 20.5714 13.5705 20.5714 13.8229V17.3195C20.5714 17.5719 20.471 17.8143 20.2924 17.9929L19.619 18.6667V12.4762Z" fill="#5C6369"/>
<path d="M19.6191 18.6667H17.2381C16.7119 18.6667 16.2857 18.2405 16.2857 17.7143V13.4286C16.2857 12.9024 16.7119 12.4762 17.2381 12.4762H19.6191V18.6667Z" fill="#727D86"/>
<path d="M19.6191 12.4762H18.6667V18.6667H19.6191V12.4762Z" fill="url(#paint1_linear_40_2236)"/>
<path d="M4.38095 12.4762L3.70762 13.1495C3.52905 13.3281 3.42857 13.5705 3.42857 13.8229V17.3195C3.42857 17.5719 3.52905 17.8143 3.70762 17.9929L4.38095 18.6667V12.4762Z" fill="#5C6369"/>
<path d="M4.38095 18.6667H6.7619C7.28809 18.6667 7.71428 18.2405 7.71428 17.7143V13.4286C7.71428 12.9024 7.28809 12.4762 6.7619 12.4762H4.38095V18.6667Z" fill="#727D86"/>
<path d="M4.38095 12.4762H5.33333V18.6667H4.38095V12.4762Z" fill="url(#paint2_linear_40_2236)"/>
<path d="M13.4286 20.5714C13.4286 21.3605 12.789 22 12 22C11.211 22 10.5714 21.3605 10.5714 20.5714C10.5714 19.7824 11.211 19.1429 12 19.1429C12.789 19.1429 13.4286 19.7824 13.4286 20.5714Z" fill="url(#paint3_linear_40_2236)"/>
<defs>
<linearGradient id="paint0_linear_40_2236" x1="4.87381" y1="5.09525" x2="19.1262" y2="5.09525" gradientUnits="userSpaceOnUse">
<stop stop-color="#3079D6"/>
<stop offset="1" stop-color="#297CD2"/>
</linearGradient>
<linearGradient id="paint1_linear_40_2236" x1="17.3571" y1="13.7857" x2="20.9286" y2="17.3571" gradientUnits="userSpaceOnUse">
<stop stop-color="#33BEF0"/>
<stop offset="1" stop-color="#0A85D9"/>
</linearGradient>
<linearGradient id="paint2_linear_40_2236" x1="6.64286" y1="13.7857" x2="3.07143" y2="17.3571" gradientUnits="userSpaceOnUse">
<stop stop-color="#33BEF0"/>
<stop offset="1" stop-color="#0A85D9"/>
</linearGradient>
<linearGradient id="paint3_linear_40_2236" x1="10.99" y1="19.5614" x2="13.01" y2="21.5814" gradientUnits="userSpaceOnUse">
<stop stop-color="#33BEF0"/>
<stop offset="1" stop-color="#0A85D9"/>
</linearGradient>
</defs>
</svg>
