<svg width="24" height="24" viewBox="0 0 24 24" fill="none" xmlns="http://www.w3.org/2000/svg">
<path d="M11.5833 17.9375H9.91625C9.68625 17.9375 9.5 17.7508 9.5 17.5208V12.9375H4.5L4.49958 17.5208C4.49958 17.7508 4.31292 17.9375 4.08292 17.9375H2.41667C2.18667 17.9375 2 17.7508 2 17.5208V6.68751C2 6.45751 2.18667 6.27084 2.41667 6.27084H4.08292C4.31292 6.27084 4.49958 6.45751 4.49958 6.68751L4.5 10.8542H9.5V6.68751C9.5 6.45751 9.68625 6.27084 9.91625 6.27084H11.5833C11.8133 6.27084 12 6.45751 12 6.68751V17.5208C12 17.7508 11.8133 17.9375 11.5833 17.9375Z" fill="url(#paint0_linear_40_2232)"/>
<path d="M17 15.8542H21.5833C21.8133 15.8542 22 16.0408 22 16.2708V17.5208C22 17.7508 21.8133 17.9375 21.5833 17.9375H14.5C14.27 17.9375 14.0833 17.7508 14.0833 17.5208V17.0579C14.0833 16.4608 14.1854 15.9246 14.3896 15.4496C14.5937 14.9746 14.8504 14.5483 15.16 14.1708C15.4692 13.7933 15.8071 13.4596 16.1746 13.1692C16.5412 12.8787 16.8908 12.6167 17.2221 12.3833C17.5704 12.1388 17.875 11.9054 18.1371 11.6829C18.3996 11.4604 18.6204 11.2392 18.7996 11.0192C18.9787 10.7992 19.1129 10.5767 19.2012 10.3512C19.2896 10.1258 19.3333 9.88583 19.3333 9.63042C19.3333 9.13083 19.19 8.75375 18.9029 8.49833C18.6158 8.24292 18.1771 8.11542 17.5862 8.11542C16.6821 8.11542 15.6908 8.4725 14.8279 9.10833C14.6917 9.20833 14.5 9.1075 14.5 8.93875V7.34125C14.5 7.19417 14.575 7.055 14.7021 6.98125C15.7017 6.39958 16.935 6.0625 18.1492 6.0625C18.7508 6.0625 19.2908 6.14 19.7683 6.29458C20.2458 6.44958 20.65 6.67083 20.9817 6.95833C21.3129 7.24625 21.565 7.595 21.7392 8.00458C21.9125 8.415 22 8.8725 22 9.3775C22 9.915 21.9154 10.3929 21.7471 10.8108C21.5787 11.2292 21.3554 11.6092 21.0767 11.9512C20.7975 12.2933 20.4762 12.6071 20.1117 12.8921C19.7475 13.1771 19.3692 13.4529 18.9771 13.7188C18.7121 13.9033 18.4567 14.0867 18.2112 14.2687C17.9654 14.4508 17.7487 14.63 17.5612 14.8062C17.3733 14.9829 17.2242 15.155 17.1142 15.3233C17.0033 15.4913 17 15.7021 17 15.8542Z" fill="url(#paint1_linear_40_2232)"/>
<defs>
<linearGradient id="paint0_linear_40_2232" x1="7" y1="6.24637" x2="7" y2="17.8954" gradientUnits="userSpaceOnUse">
<stop stop-color="#2AA4F4"/>
<stop offset="1" stop-color="#007AD9"/>
</linearGradient>
<linearGradient id="paint1_linear_40_2232" x1="18.0417" y1="6.03759" x2="18.0417" y2="17.8947" gradientUnits="userSpaceOnUse">
<stop stop-color="#2AA4F4"/>
<stop offset="1" stop-color="#007AD9"/>
</linearGradient>
</defs>
</svg>
