<svg width="24" height="24" viewBox="0 0 24 24" fill="none" xmlns="http://www.w3.org/2000/svg">
<path d="M12 6.16876C12 6.16876 14.2386 3.66876 17 3.66876C19.7614 3.66876 22 5.93781 22 8.66876C22 13.3683 14.6352 18.7345 12.5462 20.1616C12.2152 20.3878 11.7848 20.3878 11.4538 20.1616C9.36476 18.7345 2 13.3683 2 8.66876C2 5.93781 4.23857 3.66876 7 3.66876C9.76143 3.66876 12 6.16876 12 6.16876Z" fill="url(#paint0_linear_40_2248)"/>
<path d="M13.2714 13.7812C13.3243 13.9535 13.471 14.0812 13.6491 14.1102C13.8248 14.1378 14.0067 14.065 14.1124 13.9193L14.9814 12.7164H17C17.2633 12.7164 17.4762 12.5031 17.4762 12.2402C17.4762 11.9774 17.2633 11.764 17 11.764H14.7381C14.5853 11.764 14.4419 11.8374 14.3519 11.9616L13.8991 12.5883L13.05 9.84211C12.99 9.64687 12.8119 9.51211 12.6076 9.50687C12.4053 9.49878 12.2191 9.6264 12.1481 9.8183L10.6281 13.9416L9.73335 7.7083C9.70239 7.49116 9.52668 7.32402 9.30906 7.30211C9.08716 7.27878 8.8862 7.41021 8.81287 7.6164L7.28239 11.9235L6.02478 10.0683C5.93049 9.92973 5.76954 9.84878 5.60478 9.85973C5.43763 9.86878 5.28811 9.96449 5.21001 10.1116L4.33239 11.764H2.9062C3.08001 12.0835 3.27382 12.4012 3.48525 12.7164H4.61906C4.79525 12.7164 4.95716 12.6193 5.03954 12.4635L5.68097 11.2569L7.02239 13.2369C7.12287 13.3854 7.2943 13.4659 7.47716 13.4421C7.65525 13.4197 7.80525 13.2983 7.86525 13.1293L9.06478 9.75306L9.95287 15.9388C9.98382 16.1545 10.1576 16.3216 10.3743 16.345C10.3914 16.3464 10.4081 16.3474 10.4248 16.3474C10.6219 16.3474 10.8014 16.2245 10.8714 16.0359L12.5557 11.4669L13.2714 13.7812Z" fill="#FFEBEE"/>
<path d="M17.2381 11.2878C16.7119 11.2878 16.2857 11.714 16.2857 12.2402C16.2857 12.7664 16.7119 13.1926 17.2381 13.1926C17.7643 13.1926 18.1905 12.7664 18.1905 12.2402C18.1905 11.714 17.7643 11.2878 17.2381 11.2878Z" fill="#FFEBEE"/>
<defs>
<linearGradient id="paint0_linear_40_2248" x1="7.99762" y1="2.65305" x2="17.3967" y2="17.1278" gradientUnits="userSpaceOnUse">
<stop stop-color="#F44F5A"/>
<stop offset="0.443" stop-color="#EE3D4A"/>
<stop offset="1" stop-color="#E52030"/>
</linearGradient>
</defs>
</svg>
