<svg width="24" height="24" viewBox="0 0 24 24" fill="none" xmlns="http://www.w3.org/2000/svg">
<path d="M7.26316 5.68422C7.26316 6.26528 6.79158 6.73686 6.21053 6.73686C5.62948 6.73686 5.1579 6.26528 5.1579 5.68422C5.1579 5.10317 5.62948 4.63159 6.21053 4.63159C6.79158 4.63159 7.26316 5.10317 7.26316 5.68422Z" fill="url(#paint0_linear_40_2253)"/>
<path d="M13.0526 5.68421C13.0526 6.84684 12.11 7.78948 10.9474 7.78948C9.78473 7.78948 8.8421 6.84684 8.8421 5.68421C8.8421 4.52158 9.78473 3.57895 10.9474 3.57895C12.11 3.57895 13.0526 4.52158 13.0526 5.68421Z" fill="url(#paint1_linear_40_2253)"/>
<path d="M20.9474 17.2632C20.9474 18.4258 20.0047 19.3684 18.8421 19.3684C17.6795 19.3684 16.7368 18.4258 16.7368 17.2632C16.7368 16.1005 17.6795 15.1579 18.8421 15.1579C20.0047 15.1579 20.9474 16.1005 20.9474 17.2632Z" fill="url(#paint2_linear_40_2253)"/>
<path d="M17.2631 11.4737C17.2631 12.3458 16.5563 13.0526 15.6842 13.0526C14.8121 13.0526 14.1053 12.3458 14.1053 11.4737C14.1053 10.6016 14.8121 9.89474 15.6842 9.89474C16.5563 9.89474 17.2631 10.6016 17.2631 11.4737Z" fill="url(#paint3_linear_40_2253)"/>
<path d="M12 17.2632C12 18.1353 11.2932 18.8421 10.421 18.8421C9.54894 18.8421 8.8421 18.1353 8.8421 17.2632C8.8421 16.391 9.54894 15.6842 10.421 15.6842C11.2932 15.6842 12 16.391 12 17.2632Z" fill="url(#paint4_linear_40_2253)"/>
<path d="M7.26316 11.4737C7.26316 12.0547 6.79158 12.5263 6.21053 12.5263C5.62948 12.5263 5.1579 12.0547 5.1579 11.4737C5.1579 10.8926 5.62948 10.4211 6.21053 10.4211C6.79158 10.4211 7.26316 10.8926 7.26316 11.4737Z" fill="url(#paint5_linear_40_2253)"/>
<path d="M7.26316 17.2632C7.26316 17.8442 6.79158 18.3158 6.21053 18.3158C5.62948 18.3158 5.1579 17.8442 5.1579 17.2632C5.1579 16.6821 5.62948 16.2105 6.21053 16.2105C6.79158 16.2105 7.26316 16.6821 7.26316 17.2632Z" fill="url(#paint6_linear_40_2253)"/>
<path d="M15.6842 17.2632C15.6842 17.8442 15.2126 18.3158 14.6316 18.3158C14.0505 18.3158 13.5789 17.8442 13.5789 17.2632C13.5789 16.6821 14.0505 16.2105 14.6316 16.2105C15.2126 16.2105 15.6842 16.6821 15.6842 17.2632Z" fill="url(#paint7_linear_40_2253)"/>
<path d="M20.4211 11.4737C20.4211 12.0547 19.9495 12.5263 19.3684 12.5263C18.7874 12.5263 18.3158 12.0547 18.3158 11.4737C18.3158 10.8926 18.7874 10.4211 19.3684 10.4211C19.9495 10.4211 20.4211 10.8926 20.4211 11.4737Z" fill="url(#paint8_linear_40_2253)"/>
<path d="M20.4211 5.68422C20.4211 6.26528 19.9495 6.73686 19.3684 6.73686C18.7874 6.73686 18.3158 6.26528 18.3158 5.68422C18.3158 5.10317 18.7874 4.63159 19.3684 4.63159C19.9495 4.63159 20.4211 5.10317 20.4211 5.68422Z" fill="url(#paint9_linear_40_2253)"/>
<path d="M16.7368 5.68422C16.7368 6.26528 16.2653 6.73686 15.6842 6.73686C15.1032 6.73686 14.6316 6.26528 14.6316 5.68422C14.6316 5.10317 15.1032 4.63159 15.6842 4.63159C16.2653 4.63159 16.7368 5.10317 16.7368 5.68422Z" fill="url(#paint10_linear_40_2253)"/>
<path d="M21.4737 22H2.52632C2.23579 22 2 21.7642 2 21.4737V2.52632C2 2.23579 2.23579 2 2.52632 2C2.81684 2 3.05263 2.23579 3.05263 2.52632V20.9474H21.4737C21.7642 20.9474 22 21.1832 22 21.4737C22 21.7642 21.7642 22 21.4737 22Z" fill="#ABB4BE"/>
<defs>
<linearGradient id="paint0_linear_40_2253" x1="5.73685" y1="4.76264" x2="6.71474" y2="6.6658" gradientUnits="userSpaceOnUse">
<stop stop-color="#33BEF0"/>
<stop offset="1" stop-color="#0A85D9"/>
</linearGradient>
<linearGradient id="paint1_linear_40_2253" x1="10.0005" y1="3.84158" x2="11.9563" y2="7.64684" gradientUnits="userSpaceOnUse">
<stop stop-color="#33BEF0"/>
<stop offset="1" stop-color="#0A85D9"/>
</linearGradient>
<linearGradient id="paint2_linear_40_2253" x1="17.8947" y1="15.4205" x2="19.8511" y2="19.2258" gradientUnits="userSpaceOnUse">
<stop stop-color="#33BEF0"/>
<stop offset="1" stop-color="#0A85D9"/>
</linearGradient>
<linearGradient id="paint3_linear_40_2253" x1="14.9737" y1="10.0916" x2="16.441" y2="12.9458" gradientUnits="userSpaceOnUse">
<stop stop-color="#33BEF0"/>
<stop offset="1" stop-color="#0A85D9"/>
</linearGradient>
<linearGradient id="paint4_linear_40_2253" x1="9.71052" y1="15.881" x2="11.1779" y2="18.7353" gradientUnits="userSpaceOnUse">
<stop stop-color="#33BEF0"/>
<stop offset="1" stop-color="#0A85D9"/>
</linearGradient>
<linearGradient id="paint5_linear_40_2253" x1="5.73685" y1="10.5521" x2="6.71474" y2="12.4553" gradientUnits="userSpaceOnUse">
<stop stop-color="#33BEF0"/>
<stop offset="1" stop-color="#0A85D9"/>
</linearGradient>
<linearGradient id="paint6_linear_40_2253" x1="5.73685" y1="16.3416" x2="6.71474" y2="18.2448" gradientUnits="userSpaceOnUse">
<stop stop-color="#33BEF0"/>
<stop offset="1" stop-color="#0A85D9"/>
</linearGradient>
<linearGradient id="paint7_linear_40_2253" x1="14.1579" y1="16.3416" x2="15.1358" y2="18.2448" gradientUnits="userSpaceOnUse">
<stop stop-color="#33BEF0"/>
<stop offset="1" stop-color="#0A85D9"/>
</linearGradient>
<linearGradient id="paint8_linear_40_2253" x1="18.8947" y1="10.5521" x2="19.8726" y2="12.4553" gradientUnits="userSpaceOnUse">
<stop stop-color="#33BEF0"/>
<stop offset="1" stop-color="#0A85D9"/>
</linearGradient>
<linearGradient id="paint9_linear_40_2253" x1="18.8947" y1="4.76264" x2="19.8726" y2="6.6658" gradientUnits="userSpaceOnUse">
<stop stop-color="#33BEF0"/>
<stop offset="1" stop-color="#0A85D9"/>
</linearGradient>
<linearGradient id="paint10_linear_40_2253" x1="15.2105" y1="4.76264" x2="16.1884" y2="6.6658" gradientUnits="userSpaceOnUse">
<stop stop-color="#33BEF0"/>
<stop offset="1" stop-color="#0A85D9"/>
</linearGradient>
</defs>
</svg>
