<svg width="24" height="24" viewBox="0 0 24 24" fill="none" xmlns="http://www.w3.org/2000/svg">
<path d="M17.4194 2H3.11111C2.49722 2 2 2.49722 2 3.11111V20.8889C2 21.5028 2.49722 22 3.11111 22H18.6667V3.24722C18.6667 2.55833 18.1083 2 17.4194 2Z" fill="url(#paint0_linear_40_2275)"/>
<path d="M12.5556 2H20.8889C21.5028 2 22 2.49722 22 3.11111V20.8889C22 21.5028 21.5028 22 20.8889 22H12.5556V2Z" fill="url(#paint1_linear_40_2275)"/>
<path d="M4.59278 4.77777H3.85166C3.74944 4.77777 3.66666 4.69499 3.66666 4.59277V3.85166C3.66666 3.74943 3.74944 3.66666 3.85166 3.66666H4.59222C4.695 3.66666 4.77778 3.74943 4.77778 3.85166V4.59221C4.77778 4.69499 4.695 4.77777 4.59278 4.77777Z" fill="#057093"/>
<path d="M10.6483 4.77777H6.12944C5.99666 4.77777 5.88889 4.66999 5.88889 4.53721V3.90721C5.88889 3.77443 5.99666 3.66666 6.12944 3.66666H10.6483C10.7811 3.66666 10.8889 3.77443 10.8889 3.90721V4.53721C10.8889 4.66999 10.7811 4.77777 10.6483 4.77777Z" fill="#057093"/>
<path d="M4.59278 7H3.85166C3.74944 7 3.66666 6.91722 3.66666 6.815V6.07444C3.66666 5.97166 3.74944 5.88889 3.85166 5.88889H4.59222C4.695 5.88889 4.77778 5.97166 4.77778 6.07389V6.81444C4.77778 6.91722 4.695 7 4.59278 7Z" fill="#057093"/>
<path d="M10.6483 7H6.12944C5.99666 7 5.88889 6.89222 5.88889 6.75944V6.12944C5.88889 5.99666 5.99666 5.88889 6.12944 5.88889H10.6483C10.7811 5.88889 10.8889 5.99666 10.8889 6.12944V6.75944C10.8889 6.89222 10.7811 7 10.6483 7Z" fill="#057093"/>
<path d="M4.59278 9.22223H3.85166C3.74944 9.22223 3.66666 9.13945 3.66666 9.03723V8.29667C3.66666 8.19389 3.74944 8.11111 3.85166 8.11111H4.59222C4.695 8.11111 4.77778 8.19389 4.77778 8.29611V9.03667C4.77778 9.13945 4.695 9.22223 4.59278 9.22223Z" fill="#057093"/>
<path d="M10.6483 9.22223H6.12944C5.99666 9.22223 5.88889 9.11445 5.88889 8.98167V8.35167C5.88889 8.21889 5.99666 8.11111 6.12944 8.11111H10.6483C10.7811 8.11111 10.8889 8.21889 10.8889 8.35167V8.98167C10.8889 9.11445 10.7811 9.22223 10.6483 9.22223Z" fill="#057093"/>
<path d="M4.59278 11.4445H3.85166C3.74944 11.4445 3.66666 11.3617 3.66666 11.2595V10.5189C3.66666 10.4161 3.74944 10.3333 3.85166 10.3333H4.59222C4.695 10.3333 4.77778 10.4161 4.77778 10.5183V11.2589C4.77778 11.3617 4.695 11.4445 4.59278 11.4445Z" fill="#057093"/>
<path d="M10.6483 11.4445H6.12944C5.99666 11.4445 5.88889 11.3367 5.88889 11.2039V10.5739C5.88889 10.4411 5.99666 10.3333 6.12944 10.3333H10.6483C10.7811 10.3333 10.8889 10.4411 10.8889 10.5739V11.2039C10.8889 11.3367 10.7811 11.4445 10.6483 11.4445Z" fill="#057093"/>
<path opacity="0.05" d="M16.7222 10.5089C16.5094 10.5089 16.3083 10.4295 16.155 10.2861L13.8972 8.16446C13.7261 8.00335 13.6317 7.78723 13.6317 7.55557C13.6317 7.3239 13.7256 7.10779 13.8961 6.94723L16.155 4.82501C16.3083 4.68112 16.5094 4.60223 16.7222 4.60223C17.13 4.60223 17.4672 4.88501 17.5233 5.2739L17.5317 5.37223L17.5322 9.74L17.5244 9.82834C17.4672 10.2278 17.1306 10.5089 16.7222 10.5089Z" fill="black"/>
<path opacity="0.07" d="M16.7222 10.2311C16.5806 10.2311 16.4461 10.1783 16.345 10.0833L14.0872 7.96167C13.9722 7.85389 13.9094 7.70945 13.9094 7.55556C13.9094 7.40167 13.9722 7.25723 14.0867 7.14945L16.345 5.02778C16.4461 4.93278 16.58 4.88 16.7222 4.88C16.9906 4.88 17.2122 5.06223 17.2483 5.31334L17.2544 5.39278V9.73999L17.2483 9.79945C17.2122 10.0489 16.9911 10.2311 16.7222 10.2311Z" fill="black"/>
<path d="M16.9739 5.35334C16.9461 5.16056 16.6817 5.09223 16.5356 5.23001L14.2778 7.35167C14.2178 7.40778 14.1878 7.48167 14.1878 7.55556C14.1878 7.62945 14.2178 7.70334 14.2778 7.75945L16.5356 9.88113C16.6817 10.0189 16.9461 9.95057 16.9739 9.75778C16.9756 9.74501 16.9767 9.73167 16.9767 9.71834V5.39223C16.9767 5.37889 16.9761 5.36612 16.9739 5.35334Z" fill="url(#paint2_linear_40_2275)"/>
<defs>
<linearGradient id="paint0_linear_40_2275" x1="5.69235" y1="-0.979459" x2="19.9698" y2="16.4863" gradientUnits="userSpaceOnUse">
<stop stop-color="#FCFCFC"/>
<stop offset="0.95" stop-color="#C3C9CD"/>
</linearGradient>
<linearGradient id="paint1_linear_40_2275" x1="12.5556" y1="12" x2="22" y2="12" gradientUnits="userSpaceOnUse">
<stop stop-color="#1951A8"/>
<stop offset="0.175" stop-color="#1955B0"/>
<stop offset="0.505" stop-color="#195AB9"/>
<stop offset="1" stop-color="#195BBC"/>
</linearGradient>
<linearGradient id="paint2_linear_40_2275" x1="15.0671" y1="5.23117" x2="17.9496" y2="8.46287" gradientUnits="userSpaceOnUse">
<stop stop-color="#7DD8F3"/>
<stop offset="1" stop-color="#45B0D0"/>
</linearGradient>
</defs>
</svg>
