<svg width="24" height="24" viewBox="0 0 24 24" fill="none" xmlns="http://www.w3.org/2000/svg">
<path d="M19.2727 3.13971H2.90909C2.40909 3.13971 2 3.5488 2 4.0488V15.867C2 16.367 2.40909 16.7761 2.90909 16.7761H6.54545V20.4124C6.54545 20.8215 7.04545 21.0033 7.31818 20.7306L11.2727 16.7761H19.2727C19.7727 16.7761 20.1818 16.367 20.1818 15.867V4.0488C20.1818 3.5488 19.7727 3.13971 19.2727 3.13971Z" fill="url(#paint0_linear_40_2290)"/>
<path opacity="0.05" d="M17.6364 11.0488C17.5455 10.867 17.2727 10.5488 16.7727 10.5488C16.3182 10.5488 16 10.867 15.9545 11.0033L12.3182 16.7761H19.2727C19.7727 16.7761 20.1818 16.367 20.1818 15.867V15.0943L17.6364 11.0488Z" fill="black"/>
<path opacity="0.07" d="M17.4091 11.1397C17.3182 11.0033 17.1364 10.7306 16.7727 10.7306C16.4091 10.7306 16.1818 10.9579 16.1364 11.0943L12.5909 16.7761H19.2727C19.7727 16.7761 20.1818 16.367 20.1818 15.867V15.5488L17.4091 11.1397Z" fill="black"/>
<path d="M21.9091 18.7306L17.2273 11.2306C17.2273 11.2306 17.0909 10.9579 16.7727 10.9579C16.4545 10.9579 16.3182 11.2306 16.3182 11.2306L11.6364 18.7306C11.6364 18.7306 11.5455 18.867 11.5455 19.0033C11.5455 19.2761 11.7727 19.5033 12.0455 19.5033H21.5C21.7727 19.5033 22 19.2761 22 19.0033C22 18.8215 21.9091 18.7306 21.9091 18.7306Z" fill="url(#paint1_linear_40_2290)"/>
<path d="M16.7727 18.5943C16.5909 18.5943 16.4091 18.5488 16.2727 18.4124C16.1364 18.2761 16.0909 18.0943 16.0909 17.9124C16.0909 17.7306 16.1364 17.5488 16.2727 17.4124C16.4091 17.2761 16.5455 17.2306 16.7727 17.2306C16.9545 17.2306 17.1364 17.2761 17.2727 17.4124C17.4091 17.5488 17.4545 17.6852 17.4545 17.9124C17.4545 18.0943 17.4091 18.2761 17.2727 18.4124C17.1364 18.5488 17 18.5943 16.7727 18.5943Z" fill="url(#paint2_radial_40_2290)"/>
<path d="M17.4545 13.7761L17.3182 16.6397C17.3182 16.7306 17.2273 16.7761 17.0909 16.7761H16.4091C16.3182 16.7761 16.1818 16.6852 16.1818 16.6397L16.0909 13.7761C16.0909 13.6852 16.1818 13.5943 16.3182 13.5943H17.2727C17.3636 13.5943 17.4545 13.6852 17.4545 13.7761Z" fill="url(#paint3_radial_40_2290)"/>
<defs>
<linearGradient id="paint0_linear_40_2290" x1="5.94818" y1="1.59062" x2="16.3545" y2="18.522" gradientUnits="userSpaceOnUse">
<stop stop-color="#33BEF0"/>
<stop offset="1" stop-color="#0A85D9"/>
</linearGradient>
<linearGradient id="paint1_linear_40_2290" x1="-66.055" y1="-77.0453" x2="19.985" y2="21.6356" gradientUnits="userSpaceOnUse">
<stop stop-color="#FFDA1C"/>
<stop offset="1" stop-color="#FEB705"/>
</linearGradient>
<radialGradient id="paint2_radial_40_2290" cx="0" cy="0" r="1" gradientUnits="userSpaceOnUse" gradientTransform="translate(15.1955 17.2167) scale(2.63727 2.925)">
<stop stop-color="#4B4B4B"/>
<stop offset="0.531" stop-color="#393939"/>
<stop offset="1" stop-color="#252525"/>
</radialGradient>
<radialGradient id="paint3_radial_40_2290" cx="0" cy="0" r="1" gradientUnits="userSpaceOnUse" gradientTransform="translate(15.184 13.564) scale(4.86095 3.74515)">
<stop stop-color="#4B4B4B"/>
<stop offset="0.531" stop-color="#393939"/>
<stop offset="1" stop-color="#252525"/>
</radialGradient>
</defs>
</svg>
