<svg width="24" height="24" viewBox="0 0 24 24" fill="none" xmlns="http://www.w3.org/2000/svg">
<path d="M21.3791 18.5209L12.8 4.8577C12.8 4.8577 12.5691 4.38043 12 4.38043C11.4309 4.38043 11.2 4.8577 11.2 4.8577L2.62091 18.5209C2.62091 18.5209 2.45454 18.7441 2.45454 19.0454C2.45454 19.5477 2.86136 19.9545 3.36364 19.9545H20.6364C21.1386 19.9545 21.5455 19.5477 21.5455 19.0454C21.5455 18.7441 21.3791 18.5209 21.3791 18.5209Z" fill="url(#paint0_linear_40_2298)"/>
<path d="M12.0064 18.1363C11.6736 18.1363 11.3991 18.0354 11.1827 17.8336C10.9664 17.6318 10.8582 17.3877 10.8582 17.1004C10.8582 16.8009 10.9673 16.5554 11.1859 16.3641C11.4041 16.1727 11.6777 16.0773 12.0064 16.0773C12.3391 16.0773 12.6118 16.1741 12.8236 16.3673C13.0359 16.5609 13.1418 16.805 13.1418 17.1004C13.1418 17.4 13.0368 17.6473 12.8268 17.8427C12.6168 18.0382 12.3432 18.1363 12.0064 18.1363ZM13.0164 9.37317L12.7977 14.9073C12.7909 15.0763 12.6518 15.21 12.4827 15.21H11.4923C11.3227 15.21 11.1836 15.0759 11.1773 14.9063L10.9705 9.37271C10.9636 9.19408 11.1068 9.04544 11.2855 9.04544H12.7018C12.8805 9.04544 13.0236 9.19408 13.0164 9.37317Z" fill="url(#paint1_radial_40_2298)"/>
<path d="M4.55727 7.24545L3.27136 5.95954C3.18273 5.8709 3.18273 5.72681 3.27136 5.63818L3.59273 5.31681C3.68136 5.22818 3.82546 5.22818 3.91409 5.31681L5.2 6.60272C5.28864 6.69136 5.28864 6.83545 5.2 6.92409L4.87864 7.24545C4.79 7.33409 4.64591 7.33409 4.55727 7.24545Z" fill="#CF1928"/>
<path d="M3.59091 9.95453H2.22727C2.10182 9.95453 2 9.85271 2 9.72726V9.27271C2 9.14726 2.10182 9.04544 2.22727 9.04544H3.59091C3.71636 9.04544 3.81818 9.14726 3.81818 9.27271V9.72726C3.81818 9.85271 3.71636 9.95453 3.59091 9.95453Z" fill="#CF1928"/>
<path d="M7.68182 5.86362H7.22727C7.10182 5.86362 7 5.7618 7 5.63635V4.27271C7 4.14726 7.10182 4.04544 7.22727 4.04544H7.68182C7.80727 4.04544 7.90909 4.14726 7.90909 4.27271V5.63635C7.90909 5.7618 7.80727 5.86362 7.68182 5.86362Z" fill="#CF1928"/>
<path d="M19.1214 7.24545L18.8 6.92409C18.7114 6.83545 18.7114 6.69136 18.8 6.60272L20.0859 5.31681C20.1745 5.22818 20.3186 5.22818 20.4073 5.31681L20.7286 5.63818C20.8173 5.72681 20.8173 5.8709 20.7286 5.95954L19.4427 7.24545C19.3541 7.33409 19.21 7.33409 19.1214 7.24545Z" fill="#CF1928"/>
<path d="M20.1818 9.72726V9.27271C20.1818 9.14726 20.2836 9.04544 20.4091 9.04544H21.7727C21.8982 9.04544 22 9.14726 22 9.27271V9.72726C22 9.85271 21.8982 9.95453 21.7727 9.95453H20.4091C20.2836 9.95453 20.1818 9.85271 20.1818 9.72726Z" fill="#CF1928"/>
<path d="M16.0909 5.63635V4.27271C16.0909 4.14726 16.1927 4.04544 16.3182 4.04544H16.7727C16.8982 4.04544 17 4.14726 17 4.27271V5.63635C17 5.7618 16.8982 5.86362 16.7727 5.86362H16.3182C16.1927 5.86362 16.0909 5.7618 16.0909 5.63635Z" fill="#CF1928"/>
<defs>
<linearGradient id="paint0_linear_40_2298" x1="-139.25" y1="-156.352" x2="17.8664" y2="23.8486" gradientUnits="userSpaceOnUse">
<stop stop-color="#FFDA1C"/>
<stop offset="1" stop-color="#FEB705"/>
</linearGradient>
<radialGradient id="paint1_radial_40_2298" cx="0" cy="0" r="1" gradientUnits="userSpaceOnUse" gradientTransform="translate(9.35864 8.9459) scale(10.165 10.165)">
<stop stop-color="#4B4B4B"/>
<stop offset="0.531" stop-color="#393939"/>
<stop offset="1" stop-color="#252525"/>
</radialGradient>
</defs>
</svg>
