<svg width="24" height="24" viewBox="0 0 24 24" fill="none" xmlns="http://www.w3.org/2000/svg">
<path d="M21.9996 12.0003C21.9996 17.5224 17.5221 21.9999 12 21.9999C6.4779 21.9999 2.0004 17.5224 2.0004 12.0003C2.0004 6.4782 6.4779 2.0007 12 2.0007C17.5221 2.0007 21.9996 6.4782 21.9996 12.0003Z" fill="#339AF0"/>
<path d="M12 12.0004L5.00028 19.143C1.05848 15.277 0.991518 8.94248 4.85743 5.00067L12 12.0004Z" fill="url(#paint0_linear_40_2308)"/>
<path d="M20.4997 12.0004C20.4997 16.6966 16.6962 20.5 12 20.5C7.30376 20.5 3.50034 16.6966 3.50034 12.0004C3.50034 7.30415 7.30376 3.50073 12 3.50073C16.6962 3.50073 20.4997 7.30415 20.4997 12.0004Z" fill="#F2F2F2"/>
<path d="M12 18.3752C11.7947 18.3752 11.625 18.2055 11.625 18.0002V12.0004C11.625 11.7951 11.7947 11.6254 12 11.6254C12.2053 11.6254 12.375 11.7951 12.375 12.0004V18.0002C12.375 18.2055 12.2053 18.3752 12 18.3752Z" fill="#FFCC30"/>
<path d="M12 12.3754C11.9018 12.3754 11.808 12.3397 11.7366 12.2638C11.5893 12.1209 11.5893 11.8799 11.7366 11.737L15.9775 7.49165C16.1248 7.34434 16.3614 7.34434 16.5087 7.49165C16.6561 7.63897 16.6561 7.87556 16.5087 8.02288L12.2634 12.2638C12.192 12.3397 12.0982 12.3754 12 12.3754Z" fill="#45494D"/>
<path d="M12 12.6254C11.9107 12.6254 11.817 12.6075 11.7277 12.5629L7.83499 10.6969C7.5225 10.5451 7.39304 10.1746 7.54482 9.86211C7.69214 9.54962 8.06712 9.42017 8.37515 9.56748L12.2678 11.4379C12.5803 11.5853 12.7143 11.9602 12.5625 12.2727C12.4553 12.4959 12.2321 12.6254 12 12.6254Z" fill="#45494D"/>
<path d="M13 12.0004C13 12.5539 12.5535 13.0003 12 13.0003C11.4465 13.0003 11 12.5539 11 12.0004C11 11.4468 11.4465 11.0004 12 11.0004C12.5535 11.0004 13 11.4468 13 12.0004Z" fill="#1E2021"/>
<path d="M8.64299 6.48277L4.43334 7.02739C4.16549 7.06311 3.93783 6.83544 3.97354 6.56759L4.51816 2.35794C4.5628 2.01867 4.9735 1.88028 5.21456 2.12134L8.87959 5.78637C9.12065 6.02743 8.98226 6.43813 8.64299 6.48277Z" fill="#339AF0"/>
<defs>
<linearGradient id="paint0_linear_40_2308" x1="5.12578" y1="5.38216" x2="7.65018" y2="15.1538" gradientUnits="userSpaceOnUse">
<stop stop-color="#F2F2F2"/>
<stop offset="0.148" stop-color="#EEF1EF"/>
<stop offset="0.282" stop-color="#E4ECE8"/>
<stop offset="0.409" stop-color="#BFCEDA"/>
<stop offset="0.533" stop-color="#339AF0"/>
<stop offset="0.654" stop-color="#339AF0"/>
<stop offset="0.773" stop-color="#339AF0"/>
<stop offset="0.889" stop-color="#339AF0"/>
<stop offset="1" stop-color="#339AF0"/>
</linearGradient>
</defs>
</svg>
