<svg width="24" height="24" viewBox="0 0 24 24" fill="none" xmlns="http://www.w3.org/2000/svg">
<path d="M11.2776 4.23215L10.125 3.07955C9.86932 2.82387 9.52435 2.68182 9.16315 2.68182H2.90909C2.40584 2.68182 2 3.08767 2 3.59091V6.54546L2.90909 16.3182C2.90909 16.8214 3.31494 17.2273 3.81818 17.2273H18.3636C18.8669 17.2273 19.2727 16.8214 19.2727 16.3182V5.86364C19.2727 5.3604 18.8669 4.95455 18.3636 4.95455L11.9229 4.50001C11.6794 4.50001 11.4481 4.4026 11.2776 4.23215Z" fill="url(#paint0_linear_40_2318)"/>
<path d="M9.99513 6.05033L11.4805 4.56494C11.5211 4.52435 11.5779 4.5 11.6388 4.5H19.2727C19.776 4.5 20.1818 4.90584 20.1818 5.40909V17.2273C20.1818 17.7305 19.776 18.1364 19.2727 18.1364H2.90909C2.40584 18.1364 2 17.7305 2 17.2273V6.54545C2 6.41964 2.10146 6.31818 2.22727 6.31818H9.34984C9.59334 6.31818 9.82467 6.22078 9.99513 6.05033Z" fill="url(#paint1_linear_40_2318)"/>
<path d="M20.1818 12.0446V17.2273C20.1818 17.7265 19.7719 18.1364 19.2727 18.1364H12.1745C12.0609 17.698 12 17.2435 12 16.7727C12 13.7573 14.4391 11.3182 17.4545 11.3182C18.4489 11.3182 19.3823 11.582 20.1818 12.0446Z" fill="url(#paint2_radial_40_2318)"/>
<path d="M22 16.7727C22 19.2808 19.9627 21.3182 17.4545 21.3182C14.9464 21.3182 12.9091 19.2808 12.9091 16.7727C12.9091 14.2646 14.9464 12.2273 17.4545 12.2273C19.9627 12.2273 22 14.2646 22 16.7727Z" fill="#1F77B6"/>
<path d="M17.4545 16.7727L14.2727 20.0195C12.4789 18.2622 12.4505 15.3847 14.2078 13.5909L17.4545 16.7727Z" fill="url(#paint3_linear_40_2318)"/>
<path d="M21.0909 16.7727C21.0909 18.7817 19.4635 20.4091 17.4545 20.4091C15.4456 20.4091 13.8182 18.7817 13.8182 16.7727C13.8182 14.7638 15.4456 13.1364 17.4545 13.1364C19.4635 13.1364 21.0909 14.7638 21.0909 16.7727Z" fill="#F2F2F2"/>
<path d="M17.4545 19.6704C17.3612 19.6704 17.2841 19.5933 17.2841 19.5V16.7727C17.2841 16.6794 17.3612 16.6023 17.4545 16.6023C17.5479 16.6023 17.625 16.6794 17.625 16.7727V19.5C17.625 19.5933 17.5479 19.6704 17.4545 19.6704Z" fill="#D83B01"/>
<path d="M17.4545 16.9432C17.4099 16.9432 17.3653 16.927 17.3328 16.8945C17.2679 16.8255 17.2679 16.72 17.3328 16.651L19.2646 14.7232C19.3295 14.6583 19.4391 14.6583 19.5041 14.7232C19.569 14.7882 19.569 14.8977 19.5041 14.9627L17.5763 16.8945C17.5438 16.927 17.4992 16.9432 17.4545 16.9432Z" fill="#45494D"/>
<path d="M17.4545 17.0568C17.414 17.0568 17.3734 17.0487 17.3328 17.0284L15.5633 16.1802C15.4213 16.1112 15.3604 15.9407 15.4294 15.7987C15.4984 15.6607 15.6648 15.5998 15.8068 15.6688L17.5763 16.517C17.7183 16.586 17.7792 16.7524 17.7102 16.8945C17.6615 16.9959 17.5601 17.0568 17.4545 17.0568Z" fill="#45494D"/>
<path d="M17.9091 16.7727C17.9091 17.0243 17.7062 17.2273 17.4545 17.2273C17.2029 17.2273 17 17.0243 17 16.7727C17 16.5211 17.2029 16.3182 17.4545 16.3182C17.7062 16.3182 17.9091 16.5211 17.9091 16.7727Z" fill="#1E2021"/>
<path d="M15.4578 14.78L13.5666 14.9261C13.4489 14.9342 13.3515 14.8287 13.3758 14.711L13.7167 12.8482C13.7411 12.698 13.9278 12.6453 14.0333 12.7589L15.5795 14.4756C15.681 14.5893 15.608 14.7679 15.4578 14.78Z" fill="#1F77B6"/>
<defs>
<linearGradient id="paint0_linear_40_2318" x1="10.6364" y1="2.55682" x2="10.6364" y2="6.09455" gradientUnits="userSpaceOnUse">
<stop stop-color="#EBA600"/>
<stop offset="1" stop-color="#C28200"/>
</linearGradient>
<linearGradient id="paint1_linear_40_2318" x1="11.0909" y1="4.43364" x2="11.0909" y2="18.1286" gradientUnits="userSpaceOnUse">
<stop stop-color="#FFD869"/>
<stop offset="1" stop-color="#FEC52B"/>
</linearGradient>
<radialGradient id="paint2_radial_40_2318" cx="0" cy="0" r="1" gradientUnits="userSpaceOnUse" gradientTransform="translate(17.4545 16.7973) scale(5.36455)">
<stop/>
<stop offset="1" stop-opacity="0"/>
</radialGradient>
<linearGradient id="paint3_linear_40_2318" x1="14.3295" y1="13.7645" x2="15.4773" y2="18.2059" gradientUnits="userSpaceOnUse">
<stop stop-color="#F2F2F2"/>
<stop offset="0.148" stop-color="#EEF1EF"/>
<stop offset="0.282" stop-color="#E4ECE8"/>
<stop offset="0.409" stop-color="#D1E4DA"/>
<stop offset="0.533" stop-color="#96BFE0"/>
<stop offset="0.654" stop-color="#96C3CC"/>
<stop offset="0.773" stop-color="#6DAABB"/>
<stop offset="0.889" stop-color="#3E75A7"/>
<stop offset="1" stop-color="#1F77B6"/>
</linearGradient>
</defs>
</svg>
