<svg width="24" height="24" viewBox="0 0 24 24" fill="none" xmlns="http://www.w3.org/2000/svg">
<path d="M12.1971 5.53047L10.9895 4.32285C10.7219 4.05523 10.3586 3.90475 9.97952 3.90475H2.95238C2.42619 3.90475 2 4.33095 2 4.85714V19.1428C2 19.669 2.42619 20.0952 2.95238 20.0952H21.0476C21.5738 20.0952 22 19.669 22 19.1428V6.7619C22 6.23571 21.5738 5.80952 21.0476 5.80952H12.8705C12.6181 5.80952 12.3757 5.70904 12.1971 5.53047Z" fill="url(#paint0_linear_40_2331)"/>
<path d="M10.8505 7.43522L12.4067 5.87903C12.451 5.83475 12.5114 5.80951 12.5748 5.80951H21.0476C21.5738 5.80951 22 6.2357 22 6.76189V19.1428C22 19.669 21.5738 20.0952 21.0476 20.0952H2.95238C2.42619 20.0952 2 19.669 2 19.1428V7.95237C2 7.82094 2.10667 7.71427 2.2381 7.71427H10.1771C10.4295 7.71427 10.6719 7.61379 10.8505 7.43522Z" fill="url(#paint1_linear_40_2331)"/>
<path d="M12 18.6667C14.6299 18.6667 16.7619 16.5347 16.7619 13.9048C16.7619 11.2749 14.6299 9.14285 12 9.14285C9.37008 9.14285 7.2381 11.2749 7.2381 13.9048C7.2381 16.5347 9.37008 18.6667 12 18.6667Z" fill="url(#paint2_linear_40_2331)"/>
<path d="M13.2452 13.9047L14.75 12.8509C14.8576 12.7757 14.8838 12.6271 14.8086 12.5195L14.2624 11.7395C14.1872 11.6319 14.0386 11.6057 13.931 11.6809L12.7143 12.5328V11.0476C12.7143 10.9162 12.6076 10.8095 12.4762 10.8095H11.5238C11.3924 10.8095 11.2857 10.9162 11.2857 11.0476V12.5328L10.0691 11.6809C9.96144 11.6057 9.81287 11.6319 9.73763 11.7395L9.19144 12.5195C9.1162 12.6271 9.14239 12.7757 9.25001 12.8509L10.7548 13.9047L9.25001 14.9586C9.14239 15.0338 9.1162 15.1824 9.19144 15.29L9.73763 16.07C9.81287 16.1776 9.96144 16.2038 10.0691 16.1286L11.2857 15.2767V16.7619C11.2857 16.8933 11.3924 17 11.5238 17H12.4762C12.6076 17 12.7143 16.8933 12.7143 16.7619V15.2767L13.931 16.1286C14.0386 16.2038 14.1872 16.1776 14.2624 16.07L14.8086 15.29C14.8838 15.1824 14.8576 15.0338 14.75 14.9586L13.2452 13.9047Z" fill="white"/>
<defs>
<linearGradient id="paint0_linear_40_2331" x1="12" y1="3.76571" x2="12" y2="7.70333" gradientUnits="userSpaceOnUse">
<stop stop-color="#EBA600"/>
<stop offset="1" stop-color="#C28200"/>
</linearGradient>
<linearGradient id="paint1_linear_40_2331" x1="12" y1="5.73999" x2="12" y2="20.0871" gradientUnits="userSpaceOnUse">
<stop stop-color="#FFD869"/>
<stop offset="1" stop-color="#FEC52B"/>
</linearGradient>
<linearGradient id="paint2_linear_40_2331" x1="11.0229" y1="9.2" x2="12.9167" y2="18.3171" gradientUnits="userSpaceOnUse">
<stop stop-color="#33BEF0"/>
<stop offset="1" stop-color="#22A5E2"/>
</linearGradient>
</defs>
</svg>
