<svg width="24" height="24" viewBox="0 0 24 24" fill="none" xmlns="http://www.w3.org/2000/svg">
<path d="M2 20V6.5H22V20C22 20.55 21.55 21 21 21H3C2.45 21 2 20.55 2 20Z" fill="url(#paint0_linear_40_2342)"/>
<path d="M22 4V6.5H2V4C2 3.45 2.45 3 3 3H21C21.55 3 22 3.45 22 4Z" fill="url(#paint1_linear_40_2342)"/>
<path d="M3.75 5.5C4.16421 5.5 4.5 5.16421 4.5 4.75C4.5 4.33579 4.16421 4 3.75 4C3.33579 4 3 4.33579 3 4.75C3 5.16421 3.33579 5.5 3.75 5.5Z" fill="url(#paint2_linear_40_2342)"/>
<path d="M6.25 5.5C6.66421 5.5 7 5.16421 7 4.75C7 4.33579 6.66421 4 6.25 4C5.83579 4 5.5 4.33579 5.5 4.75C5.5 5.16421 5.83579 5.5 6.25 5.5Z" fill="url(#paint3_linear_40_2342)"/>
<path d="M8.75 5.5C9.16421 5.5 9.5 5.16421 9.5 4.75C9.5 4.33579 9.16421 4 8.75 4C8.33579 4 8 4.33579 8 4.75C8 5.16421 8.33579 5.5 8.75 5.5Z" fill="url(#paint4_linear_40_2342)"/>
<path d="M12.049 18.5C14.8104 18.5 17.049 16.2614 17.049 13.5C17.049 10.7386 14.8104 8.5 12.049 8.5C9.28758 8.5 7.049 10.7386 7.049 13.5C7.049 16.2614 9.28758 18.5 12.049 18.5Z" fill="url(#paint5_radial_40_2342)"/>
<path d="M13.3415 17.622H10.6585C10.6585 17.81 10.6585 18.1585 10.6585 18.1585C10.6585 18.91 11.249 19.5 12 19.5C12.751 19.5 13.3415 18.91 13.3415 18.1585C13.3415 18.1585 13.3415 17.81 13.3415 17.622Z" fill="url(#paint6_radial_40_2342)"/>
<path d="M14.649 13.649C14.649 12.192 13.457 11 12 11C10.543 11 9.351 12.192 9.351 13.649C9.351 14.9735 10.6755 16.033 10.6755 17.3575V17.6225H13.3245V17.3575C13.3245 16.0325 14.649 14.973 14.649 13.649Z" fill="#FEFEFE"/>
<defs>
<linearGradient id="paint0_linear_40_2342" x1="8.30571" y1="6.72262" x2="14.0852" y2="22.0926" gradientUnits="userSpaceOnUse">
<stop stop-color="#7DD8F3"/>
<stop offset="1" stop-color="#45B0D0"/>
</linearGradient>
<linearGradient id="paint1_linear_40_2342" x1="2.307" y1="2.8705" x2="21.468" y2="6.7665" gradientUnits="userSpaceOnUse">
<stop stop-color="#0077D2"/>
<stop offset="1" stop-color="#0B59A2"/>
</linearGradient>
<linearGradient id="paint2_linear_40_2342" x1="3.3755" y1="4.208" x2="4.016" y2="5.1345" gradientUnits="userSpaceOnUse">
<stop stop-color="#75DAFF"/>
<stop offset="1" stop-color="#49BEF1"/>
</linearGradient>
<linearGradient id="paint3_linear_40_2342" x1="5.8755" y1="4.208" x2="6.516" y2="5.1345" gradientUnits="userSpaceOnUse">
<stop stop-color="#75DAFF"/>
<stop offset="1" stop-color="#49BEF1"/>
</linearGradient>
<linearGradient id="paint4_linear_40_2342" x1="8.3755" y1="4.208" x2="9.016" y2="5.1345" gradientUnits="userSpaceOnUse">
<stop stop-color="#75DAFF"/>
<stop offset="1" stop-color="#49BEF1"/>
</linearGradient>
<radialGradient id="paint5_radial_40_2342" cx="0" cy="0" r="1" gradientUnits="userSpaceOnUse" gradientTransform="translate(12.049 13.5) scale(5)">
<stop offset="0.078" stop-color="white"/>
<stop offset="0.202" stop-color="#FFF5A3"/>
<stop offset="0.216" stop-color="#FFF392"/>
<stop offset="0.263" stop-color="#FFEE5F"/>
<stop offset="0.307" stop-color="#FFEA37"/>
<stop offset="0.347" stop-color="#FFE71A"/>
<stop offset="0.382" stop-color="#FFE508"/>
<stop offset="0.408" stop-color="#FFE402"/>
<stop offset="0.545" stop-color="#FDDE02"/>
<stop offset="0.736" stop-color="#F9CC01"/>
<stop offset="0.956" stop-color="#F2AF00"/>
<stop offset="1" stop-color="#F0A800"/>
</radialGradient>
<radialGradient id="paint6_radial_40_2342" cx="0" cy="0" r="1" gradientUnits="userSpaceOnUse" gradientTransform="translate(11.3765 17.478) scale(2.7005)">
<stop stop-color="#6E757B"/>
<stop offset="1" stop-color="#4A4E52"/>
</radialGradient>
</defs>
</svg>
