<svg width="24" height="24" viewBox="0 0 24 24" fill="none" xmlns="http://www.w3.org/2000/svg">
<path d="M12 20.5366C17.1187 20.5366 21.2683 16.387 21.2683 11.2683C21.2683 6.14955 17.1187 2 12 2C6.88126 2 2.7317 6.14955 2.7317 11.2683C2.7317 16.387 6.88126 20.5366 12 20.5366Z" fill="url(#paint0_radial_40_2337)"/>
<path d="M14.439 18.5854H9.56097C9.56097 18.9269 9.56097 19.561 9.56097 19.561C9.56097 20.9269 10.6341 22 12 22C13.3659 22 14.439 20.9269 14.439 19.561C14.439 19.561 14.439 18.9269 14.439 18.5854Z" fill="url(#paint1_radial_40_2337)"/>
<path d="M16.878 11.2683C16.878 8.58538 14.6829 6.39026 12 6.39026C9.31707 6.39026 7.12195 8.58538 7.12195 11.2683C7.12195 13.7073 9.56097 15.6586 9.56097 18.0976V18.5854H14.439V18.0976C14.439 15.6586 16.878 13.7073 16.878 11.2683Z" fill="#FEFEFE"/>
<defs>
<radialGradient id="paint0_radial_40_2337" cx="0" cy="0" r="1" gradientUnits="userSpaceOnUse" gradientTransform="translate(12 11.2683) scale(9.26829)">
<stop offset="0.078" stop-color="white"/>
<stop offset="0.202" stop-color="#FFF5A3"/>
<stop offset="0.216" stop-color="#FFF392"/>
<stop offset="0.263" stop-color="#FFEE5F"/>
<stop offset="0.307" stop-color="#FFEA37"/>
<stop offset="0.347" stop-color="#FFE71A"/>
<stop offset="0.382" stop-color="#FFE508"/>
<stop offset="0.408" stop-color="#FFE402"/>
<stop offset="0.545" stop-color="#FDDE02"/>
<stop offset="0.736" stop-color="#F9CC01"/>
<stop offset="0.956" stop-color="#F2AF00"/>
<stop offset="1" stop-color="#F0A800"/>
</radialGradient>
<radialGradient id="paint1_radial_40_2337" cx="0" cy="0" r="1" gradientUnits="userSpaceOnUse" gradientTransform="translate(10.8668 18.3234) scale(4.91024)">
<stop stop-color="#6E757B"/>
<stop offset="1" stop-color="#4A4E52"/>
</radialGradient>
</defs>
</svg>
