<svg width="24" height="24" viewBox="0 0 24 24" fill="none" xmlns="http://www.w3.org/2000/svg">
<path d="M3.05263 5.1579H20.9474C21.5289 5.1579 22 5.62895 22 6.21053V19.8947C22 20.4763 21.5289 20.9474 20.9474 20.9474H3.05263C2.47105 20.9474 2 20.4763 2 19.8947V6.21053C2 5.62895 2.47105 5.1579 3.05263 5.1579Z" fill="url(#paint0_linear_40_2352)"/>
<path opacity="0.05" d="M10.9474 15.6842C10.9474 13.94 9.53368 12.5263 7.78947 12.5263C6.04526 12.5263 4.63158 13.94 4.63158 15.6842V17.2632C4.63158 17.8448 5.10263 18.3158 5.68421 18.3158H9.89473C10.4763 18.3158 10.9474 17.8448 10.9474 17.2632V15.6842Z" fill="black"/>
<path opacity="0.07" d="M7.78947 12.7895C6.19052 12.7895 4.89473 14.0853 4.89473 15.6842C4.89473 15.7442 4.89473 17.2632 4.89473 17.2632C4.89473 17.699 5.24841 18.0526 5.6842 18.0526H9.89473C10.3305 18.0526 10.6842 17.699 10.6842 17.2632C10.6842 17.2632 10.6842 15.7384 10.6842 15.6842C10.6842 14.0853 9.38841 12.7895 7.78947 12.7895Z" fill="black"/>
<path opacity="0.05" d="M18.3158 11.4737C18.1232 11.4737 13.2453 11.4737 13.0526 11.4737C12.4711 11.4737 12 11.9447 12 12.5263C12 13.1079 12.4711 13.579 13.0526 13.579C13.2453 13.579 18.1232 13.579 18.3158 13.579C18.8974 13.579 19.3684 13.1079 19.3684 12.5263C19.3684 11.9447 18.8974 11.4737 18.3158 11.4737Z" fill="black"/>
<path opacity="0.07" d="M13.0526 11.7368C12.6168 11.7368 12.2632 12.0905 12.2632 12.5263C12.2632 12.9621 12.6168 13.3158 13.0526 13.3158C13.1489 13.3158 18.2195 13.3158 18.3158 13.3158C18.7516 13.3158 19.1053 12.9621 19.1053 12.5263C19.1053 12.0905 18.7516 11.7368 18.3158 11.7368C18.2195 11.7368 13.1489 11.7368 13.0526 11.7368Z" fill="black"/>
<path opacity="0.05" d="M18.3158 14.1053C18.1232 14.1053 13.2453 14.1053 13.0526 14.1053C12.4711 14.1053 12 14.5763 12 15.1579C12 15.7395 12.4711 16.2105 13.0526 16.2105C13.2453 16.2105 18.1232 16.2105 18.3158 16.2105C18.8974 16.2105 19.3684 15.7395 19.3684 15.1579C19.3684 14.5763 18.8974 14.1053 18.3158 14.1053Z" fill="black"/>
<path opacity="0.07" d="M13.0526 14.3684C12.6168 14.3684 12.2632 14.7221 12.2632 15.1579C12.2632 15.5937 12.6168 15.9474 13.0526 15.9474C13.1489 15.9474 18.2195 15.9474 18.3158 15.9474C18.7516 15.9474 19.1053 15.5937 19.1053 15.1579C19.1053 14.7221 18.7516 14.3684 18.3158 14.3684C18.2195 14.3684 13.1489 14.3684 13.0526 14.3684Z" fill="black"/>
<path d="M7.78947 12.5263C8.95217 12.5263 9.89473 11.5838 9.89473 10.4211C9.89473 9.25835 8.95217 8.3158 7.78947 8.3158C6.62676 8.3158 5.6842 9.25835 5.6842 10.4211C5.6842 11.5838 6.62676 12.5263 7.78947 12.5263Z" fill="url(#paint1_radial_40_2352)"/>
<path d="M13.5789 3.05264H10.421C10.1305 3.05264 9.89473 3.28843 9.89473 3.57896V6.73685C9.89473 7.02738 10.1305 7.26317 10.421 7.26317H13.5789C13.8695 7.26317 14.1053 7.02738 14.1053 6.73685V3.57896C14.1053 3.28843 13.8695 3.05264 13.5789 3.05264ZM12 6.21054C11.7095 6.21054 11.4737 5.97475 11.4737 5.68422C11.4737 5.3937 11.7095 5.15791 12 5.15791C12.2905 5.15791 12.5263 5.3937 12.5263 5.68422C12.5263 5.97475 12.2905 6.21054 12 6.21054Z" fill="url(#paint2_linear_40_2352)"/>
<path d="M6.21053 10.421C6.21053 9.54894 6.91737 8.8421 7.78948 8.8421C8.66158 8.8421 9.36842 9.54894 9.36842 10.421C9.36842 11.2932 8.66158 12 7.78948 12C6.91737 12 6.21053 11.2932 6.21053 10.421ZM7.78948 13.0526C6.33632 13.0526 5.1579 14.231 5.1579 15.6842V17.2632C5.1579 17.5537 5.39369 17.7895 5.68421 17.7895H9.89474C10.1853 17.7895 10.4211 17.5537 10.4211 17.2632V15.6842C10.4211 14.231 9.24263 13.0526 7.78948 13.0526Z" fill="url(#paint3_linear_40_2352)"/>
<path d="M18.3158 14.6316H13.0526C12.7621 14.6316 12.5263 14.8674 12.5263 15.1579C12.5263 15.4484 12.7621 15.6842 13.0526 15.6842H18.3158C18.6063 15.6842 18.8421 15.4484 18.8421 15.1579C18.8421 14.8674 18.6063 14.6316 18.3158 14.6316Z" fill="url(#paint4_linear_40_2352)"/>
<path d="M18.3158 12H13.0526C12.7621 12 12.5263 12.2358 12.5263 12.5263C12.5263 12.8168 12.7621 13.0526 13.0526 13.0526H18.3158C18.6063 13.0526 18.8421 12.8168 18.8421 12.5263C18.8421 12.2358 18.6063 12 18.3158 12Z" fill="url(#paint5_linear_40_2352)"/>
<defs>
<linearGradient id="paint0_linear_40_2352" x1="10.5426" y1="4.86527" x2="13.3716" y2="20.7574" gradientUnits="userSpaceOnUse">
<stop stop-color="#0370C8"/>
<stop offset="0.484" stop-color="#036FC5"/>
<stop offset="0.775" stop-color="#036ABD"/>
<stop offset="1" stop-color="#0362B0"/>
</linearGradient>
<radialGradient id="paint1_radial_40_2352" cx="0" cy="0" r="1" gradientUnits="userSpaceOnUse" gradientTransform="translate(7.78947 10.4211) scale(2.10526)">
<stop/>
<stop offset="0.009" stop-opacity="0.991"/>
<stop offset="1" stop-opacity="0"/>
</radialGradient>
<linearGradient id="paint2_linear_40_2352" x1="11.6258" y1="3.07054" x2="12.4437" y2="7.6337" gradientUnits="userSpaceOnUse">
<stop stop-color="#75DAFF"/>
<stop offset="1" stop-color="#1EA2E4"/>
</linearGradient>
<linearGradient id="paint3_linear_40_2352" x1="6.8173" y1="8.97947" x2="12.1873" y2="15.0699" gradientUnits="userSpaceOnUse">
<stop stop-color="#7DD8F3"/>
<stop offset="1" stop-color="#45B0D0"/>
</linearGradient>
<linearGradient id="paint4_linear_40_2352" x1="14.5176" y1="14.6478" x2="14.6268" y2="15.9119" gradientUnits="userSpaceOnUse">
<stop stop-color="#7DD8F3"/>
<stop offset="1" stop-color="#45B0D0"/>
</linearGradient>
<linearGradient id="paint5_linear_40_2352" x1="14.5176" y1="12.0162" x2="14.6268" y2="13.2803" gradientUnits="userSpaceOnUse">
<stop stop-color="#7DD8F3"/>
<stop offset="1" stop-color="#45B0D0"/>
</linearGradient>
</defs>
</svg>
