<svg width="24" height="24" viewBox="0 0 24 24" fill="none" xmlns="http://www.w3.org/2000/svg">
<path d="M19.8947 7.78947V20.9474C19.8947 21.5289 19.4237 22 18.8421 22H5.15789C4.57632 22 4.10526 21.5289 4.10526 20.9474V3.05263C4.10526 2.47105 4.57632 2 5.15789 2H14.1053L19.8947 7.78947Z" fill="url(#paint0_linear_40_2372)"/>
<path d="M14.1053 2V6.73684C14.1053 7.31842 14.5763 7.78947 15.1579 7.78947H19.8947L14.1053 2Z" fill="url(#paint1_linear_40_2372)"/>
<path d="M17.2632 17.2632L14.3905 14.3905C14.0363 14.0363 13.4653 14.029 13.1016 14.3732L10.2458 17.079V18.3158H16.7368C17.0274 18.3158 17.2632 18.08 17.2632 17.7895V17.2632Z" fill="url(#paint2_linear_40_2372)"/>
<path d="M15.6842 13.0526C16.2656 13.0526 16.7368 12.5814 16.7368 12C16.7368 11.4186 16.2656 10.9474 15.6842 10.9474C15.1028 10.9474 14.6316 11.4186 14.6316 12C14.6316 12.5814 15.1028 13.0526 15.6842 13.0526Z" fill="white"/>
<path d="M15.9768 18.3158L11.1095 13.4485C10.6289 12.9679 9.85263 12.9574 9.35947 13.4248L6.73684 15.909V17.2632C6.73684 17.8448 7.20789 18.3158 7.78947 18.3158H15.9768Z" fill="url(#paint3_linear_40_2372)"/>
<defs>
<linearGradient id="paint0_linear_40_2372" x1="9.08346" y1="2.30706" x2="20.1877" y2="19.2096" gradientUnits="userSpaceOnUse">
<stop stop-color="#7DD8F3"/>
<stop offset="1" stop-color="#45B0D0"/>
</linearGradient>
<linearGradient id="paint1_linear_40_2372" x1="14.3837" y1="7.51158" x2="17.0526" y2="4.84211" gradientUnits="userSpaceOnUse">
<stop stop-color="#3079D6"/>
<stop offset="1" stop-color="#297CD2"/>
</linearGradient>
<linearGradient id="paint2_linear_40_2372" x1="11.8004" y1="13.4948" x2="13.936" y2="18.7378" gradientUnits="userSpaceOnUse">
<stop stop-color="#FCFCFC"/>
<stop offset="0.95" stop-color="#C3C9CD"/>
</linearGradient>
<linearGradient id="paint3_linear_40_2372" x1="11.3568" y1="13.0695" x2="11.3568" y2="18.4069" gradientUnits="userSpaceOnUse">
<stop stop-color="#124787"/>
<stop offset="0.923" stop-color="#173B75"/>
<stop offset="1" stop-color="#173A73"/>
</linearGradient>
</defs>
</svg>
