<svg width="24" height="24" viewBox="0 0 24 24" fill="none" xmlns="http://www.w3.org/2000/svg">
<path d="M20.8889 2H3.11111C2.49722 2 2 2.49722 2 3.11111V19.7778C2 20.3917 2.49722 20.8889 3.11111 20.8889H20.8889C21.5028 20.8889 22 20.3917 22 19.7778V3.11111C22 2.49722 21.5028 2 20.8889 2Z" fill="url(#paint0_linear_40_2366)"/>
<path d="M16.4806 11.4806C15.8422 10.8422 14.8111 10.8283 14.1556 11.4489L8.66666 16.6489V22H20.8889C21.5028 22 22 21.5028 22 20.8889V17L16.4806 11.4806Z" fill="url(#paint1_linear_40_2366)"/>
<path d="M15.6111 8.66666C16.685 8.66666 17.5556 7.7961 17.5556 6.72222C17.5556 5.64833 16.685 4.77777 15.6111 4.77777C14.5372 4.77777 13.6667 5.64833 13.6667 6.72222C13.6667 7.7961 14.5372 8.66666 15.6111 8.66666Z" fill="white"/>
<path d="M3.11111 22H20.8889C21.3394 22 21.7261 21.7306 21.9 21.3444L9.81389 9.25834C9.17556 8.62 8.14444 8.60611 7.48889 9.22667L2 14.4267V20.8889C2 21.5028 2.49722 22 3.11111 22Z" fill="url(#paint2_linear_40_2366)"/>
<defs>
<linearGradient id="paint0_linear_40_2366" x1="8.30571" y1="2.29" x2="17.3339" y2="20.7209" gradientUnits="userSpaceOnUse">
<stop stop-color="#7DD8F3"/>
<stop offset="1" stop-color="#45B0D0"/>
</linearGradient>
<linearGradient id="paint1_linear_40_2366" x1="8.66666" y1="16.4961" x2="22" y2="16.4961" gradientUnits="userSpaceOnUse">
<stop stop-color="#3CCBF4"/>
<stop offset="1" stop-color="#1FA0E5"/>
</linearGradient>
<linearGradient id="paint2_linear_40_2366" x1="11.95" y1="8.77" x2="11.95" y2="22" gradientUnits="userSpaceOnUse">
<stop stop-color="#28AFEA"/>
<stop offset="1" stop-color="#0B88DA"/>
</linearGradient>
</defs>
</svg>
