<svg width="24" height="24" viewBox="0 0 24 24" fill="none" xmlns="http://www.w3.org/2000/svg">
<path d="M4.66666 14.6222L20.6667 8.26309V19.9555C20.6667 20.4467 20.2689 20.8444 19.7778 20.8444H4.66666V14.6222Z" fill="url(#paint0_linear_40_2379)"/>
<path d="M2 8.26309V19.9555C2 20.4467 2.39778 20.8444 2.88889 20.8444H19.7778C19.996 20.8444 20.1933 20.7627 20.348 20.632L2 8.26309Z" fill="url(#paint1_linear_40_2379)"/>
<path opacity="0.05" d="M2 7.95554H20.6667V8.70754L12.9689 14.6853C12.0067 15.4324 10.66 15.4324 9.69778 14.6853L2 8.70754V7.95554Z" fill="black"/>
<path opacity="0.07" d="M2 7.73331H20.6667V8.48531L12.6516 14.3129C11.8684 14.8924 10.7982 14.8924 10.0151 14.3129L2 8.48531V7.73331Z" fill="black"/>
<path d="M2.88889 6.62222H19.7778C20.2689 6.62222 20.6667 7.02 20.6667 7.51111V8.26311L12.3342 13.9404C11.7302 14.352 10.936 14.352 10.3324 13.9404L2 8.26311V7.51111C2 7.02 2.39778 6.62222 2.88889 6.62222Z" fill="url(#paint2_linear_40_2379)"/>
<path opacity="0.3" d="M19.7778 6.62222H11.8529C11.808 6.91289 11.7778 7.208 11.7778 7.51111C11.7778 10.7022 14.3644 13.2889 17.5556 13.2889C18.7022 13.2889 19.768 12.9507 20.6667 12.3747V7.51111C20.6667 7.02 20.2689 6.62222 19.7778 6.62222Z" fill="url(#paint3_radial_40_2379)"/>
<path d="M22 7.6C22 10.0444 20 12.0444 17.5556 12.0444C15.1111 12.0444 13.1111 10.0444 13.1111 7.6C13.1111 5.15555 15.1111 3.15555 17.5556 3.15555C20 3.15555 22 5.11111 22 7.6Z" fill="url(#paint4_linear_40_2379)"/>
<path d="M17.5591 10.1778C17.364 10.1778 17.2027 10.1186 17.076 10.0004C16.9489 9.8822 16.8858 9.73864 16.8858 9.5702C16.8858 9.39464 16.9498 9.25064 17.0778 9.1382C17.2058 9.02575 17.3662 8.96975 17.5591 8.96975C17.7542 8.96975 17.9142 9.02664 18.0387 9.13998C18.1631 9.25331 18.2253 9.39687 18.2253 9.5702C18.2253 9.74575 18.1636 9.89109 18.0404 10.0058C17.9173 10.1204 17.7569 10.1778 17.5591 10.1778ZM18.152 5.03687L18.024 8.28353C18.02 8.38264 17.9387 8.46131 17.8391 8.46131H17.2578C17.1582 8.46131 17.0764 8.38264 17.0729 8.28309L16.9511 5.03642C16.9476 4.93153 17.0316 4.84442 17.1364 4.84442H17.9671C18.072 4.84442 18.156 4.93153 18.152 5.03687Z" fill="white"/>
<defs>
<linearGradient id="paint0_linear_40_2379" x1="10.2293" y1="10.9058" x2="20.9298" y2="26.9213" gradientUnits="userSpaceOnUse">
<stop stop-color="#28AFEA"/>
<stop offset="1" stop-color="#0B88DA"/>
</linearGradient>
<linearGradient id="paint1_linear_40_2379" x1="1.29244" y1="13.9155" x2="16.8138" y2="23.584" gradientUnits="userSpaceOnUse">
<stop stop-color="#28AFEA"/>
<stop offset="1" stop-color="#0B88DA"/>
</linearGradient>
<linearGradient id="paint2_linear_40_2379" x1="7.88533" y1="6.73932" x2="9.75671" y2="15.5703" gradientUnits="userSpaceOnUse">
<stop stop-color="#7DD8F3"/>
<stop offset="1" stop-color="#45B0D0"/>
</linearGradient>
<radialGradient id="paint3_radial_40_2379" cx="0" cy="0" r="1" gradientUnits="userSpaceOnUse" gradientTransform="translate(17.5511 7.54311) scale(5.72222)">
<stop offset="0.348"/>
<stop offset="0.936" stop-opacity="0.098"/>
<stop offset="1" stop-opacity="0"/>
</radialGradient>
<linearGradient id="paint4_linear_40_2379" x1="14.5284" y1="4.56444" x2="20.7373" y2="10.7733" gradientUnits="userSpaceOnUse">
<stop stop-color="#F44F5A"/>
<stop offset="0.443" stop-color="#EE3D4A"/>
<stop offset="1" stop-color="#E52030"/>
</linearGradient>
</defs>
</svg>
