<svg width="24" height="24" viewBox="0 0 24 24" fill="none" xmlns="http://www.w3.org/2000/svg">
<path d="M11.6458 6.73686H2.35421C2.15842 6.73686 2 6.57843 2 6.38264V4.98528C2 4.79001 2.15842 4.63159 2.35421 4.63159H11.6463C11.8416 4.63159 12 4.79001 12 4.9858V6.38317C12 6.57843 11.8416 6.73686 11.6458 6.73686Z" fill="url(#paint0_linear_40_2448)"/>
<path d="M21.649 6.73686H20.2453C20.0516 6.73686 19.8947 6.58001 19.8947 6.3858V4.98212C19.8947 4.78843 20.0516 4.63159 20.2458 4.63159H21.6495C21.8432 4.63159 22 4.78843 22 4.98264V6.38633C22 6.58001 21.8432 6.73686 21.649 6.73686Z" fill="url(#paint1_linear_40_2448)"/>
<path d="M17.9763 6.73686H16.0242C15.8363 6.73686 15.6842 6.58475 15.6842 6.39738V4.97159C15.6842 4.7837 15.8363 4.63159 16.0237 4.63159H17.9758C18.1637 4.63159 18.3158 4.7837 18.3158 4.97107V6.39686C18.3158 6.58475 18.1637 6.73686 17.9763 6.73686Z" fill="url(#paint2_linear_40_2448)"/>
<path d="M11.6458 15.1579H2.35421C2.15842 15.1579 2 14.9995 2 14.8037V13.4064C2 13.2111 2.15842 13.0527 2.35421 13.0527H11.6463C11.8416 13.0527 12 13.2111 12 13.4069V14.8043C12 14.9995 11.8416 15.1579 11.6458 15.1579Z" fill="url(#paint3_linear_40_2448)"/>
<path d="M21.649 15.1579H20.2453C20.0516 15.1579 19.8947 15.0011 19.8947 14.8069V13.4032C19.8947 13.2095 20.0516 13.0527 20.2458 13.0527H21.6495C21.8432 13.0527 22 13.2095 22 13.4037V14.8074C22 15.0011 21.8432 15.1579 21.649 15.1579Z" fill="url(#paint4_linear_40_2448)"/>
<path d="M17.9763 15.1579H16.0242C15.8363 15.1579 15.6842 15.0058 15.6842 14.8185V13.3927C15.6842 13.2048 15.8363 13.0527 16.0237 13.0527H17.9758C18.1637 13.0527 18.3158 13.2048 18.3158 13.3921V14.8179C18.3158 15.0058 18.1637 15.1579 17.9763 15.1579Z" fill="url(#paint5_linear_40_2448)"/>
<path d="M21.649 10.9474H20.2453C20.0516 10.9474 19.8947 10.7905 19.8947 10.5963V9.19263C19.8947 8.99894 20.0516 8.8421 20.2458 8.8421H21.6495C21.8432 8.8421 22 8.99894 22 9.19315V10.5968C22 10.7905 21.8432 10.9474 21.649 10.9474Z" fill="url(#paint6_linear_40_2448)"/>
<path d="M17.9763 10.9474H16.0242C15.8363 10.9474 15.6842 10.7953 15.6842 10.6079V9.1821C15.6842 8.99421 15.8363 8.8421 16.0237 8.8421H17.9758C18.1637 8.8421 18.3158 8.99421 18.3158 9.18158V10.6074C18.3158 10.7953 18.1637 10.9474 17.9763 10.9474Z" fill="url(#paint7_linear_40_2448)"/>
<path d="M7.96474 10.9474H2.35105C2.15684 10.9474 2 10.7905 2 10.5963V9.19263C2 8.99894 2.15684 8.8421 2.35105 8.8421H7.96526C8.15895 8.8421 8.31579 8.99894 8.31579 9.19315V10.5968C8.31579 10.7905 8.15895 10.9474 7.96474 10.9474Z" fill="url(#paint8_linear_40_2448)"/>
<path d="M21.649 19.3684H20.2453C20.0516 19.3684 19.8947 19.2116 19.8947 19.0174V17.6137C19.8947 17.42 20.0516 17.2632 20.2458 17.2632H21.6495C21.8432 17.2632 22 17.42 22 17.6142V19.0179C22 19.2116 21.8432 19.3684 21.649 19.3684Z" fill="url(#paint9_linear_40_2448)"/>
<path d="M17.9763 19.3684H16.0242C15.8363 19.3684 15.6842 19.2163 15.6842 19.029V17.6032C15.6842 17.4153 15.8363 17.2632 16.0237 17.2632H17.9758C18.1637 17.2632 18.3158 17.4153 18.3158 17.6027V19.0284C18.3158 19.2163 18.1637 19.3684 17.9763 19.3684Z" fill="url(#paint10_linear_40_2448)"/>
<path d="M7.96474 19.3684H2.35105C2.15684 19.3684 2 19.2116 2 19.0174V17.6137C2 17.42 2.15684 17.2632 2.35105 17.2632H7.96526C8.15895 17.2632 8.31579 17.42 8.31579 17.6142V19.0179C8.31579 19.2116 8.15895 19.3684 7.96474 19.3684Z" fill="url(#paint11_linear_40_2448)"/>
<defs>
<linearGradient id="paint0_linear_40_2448" x1="2" y1="5.68422" x2="12" y2="5.68422" gradientUnits="userSpaceOnUse">
<stop offset="0.003" stop-color="#42A3F2"/>
<stop offset="1" stop-color="#42A4EB"/>
</linearGradient>
<linearGradient id="paint1_linear_40_2448" x1="19.8947" y1="5.68422" x2="22" y2="5.68422" gradientUnits="userSpaceOnUse">
<stop offset="0.003" stop-color="#42A3F2"/>
<stop offset="1" stop-color="#42A4EB"/>
</linearGradient>
<linearGradient id="paint2_linear_40_2448" x1="15.6842" y1="5.68422" x2="18.3158" y2="5.68422" gradientUnits="userSpaceOnUse">
<stop offset="0.003" stop-color="#42A3F2"/>
<stop offset="1" stop-color="#42A4EB"/>
</linearGradient>
<linearGradient id="paint3_linear_40_2448" x1="2" y1="14.1053" x2="12" y2="14.1053" gradientUnits="userSpaceOnUse">
<stop offset="0.003" stop-color="#42A3F2"/>
<stop offset="1" stop-color="#42A4EB"/>
</linearGradient>
<linearGradient id="paint4_linear_40_2448" x1="19.8947" y1="14.1053" x2="22" y2="14.1053" gradientUnits="userSpaceOnUse">
<stop offset="0.003" stop-color="#42A3F2"/>
<stop offset="1" stop-color="#42A4EB"/>
</linearGradient>
<linearGradient id="paint5_linear_40_2448" x1="15.6842" y1="14.1053" x2="18.3158" y2="14.1053" gradientUnits="userSpaceOnUse">
<stop offset="0.003" stop-color="#42A3F2"/>
<stop offset="1" stop-color="#42A4EB"/>
</linearGradient>
<linearGradient id="paint6_linear_40_2448" x1="19.8947" y1="9.89473" x2="22" y2="9.89473" gradientUnits="userSpaceOnUse">
<stop offset="0.003" stop-color="#42A3F2"/>
<stop offset="1" stop-color="#42A4EB"/>
</linearGradient>
<linearGradient id="paint7_linear_40_2448" x1="15.6842" y1="9.89473" x2="18.3158" y2="9.89473" gradientUnits="userSpaceOnUse">
<stop offset="0.003" stop-color="#42A3F2"/>
<stop offset="1" stop-color="#42A4EB"/>
</linearGradient>
<linearGradient id="paint8_linear_40_2448" x1="2" y1="9.89473" x2="8.31579" y2="9.89473" gradientUnits="userSpaceOnUse">
<stop offset="0.003" stop-color="#42A3F2"/>
<stop offset="1" stop-color="#42A4EB"/>
</linearGradient>
<linearGradient id="paint9_linear_40_2448" x1="19.8947" y1="18.3158" x2="22" y2="18.3158" gradientUnits="userSpaceOnUse">
<stop offset="0.003" stop-color="#42A3F2"/>
<stop offset="1" stop-color="#42A4EB"/>
</linearGradient>
<linearGradient id="paint10_linear_40_2448" x1="15.6842" y1="18.3158" x2="18.3158" y2="18.3158" gradientUnits="userSpaceOnUse">
<stop offset="0.003" stop-color="#42A3F2"/>
<stop offset="1" stop-color="#42A4EB"/>
</linearGradient>
<linearGradient id="paint11_linear_40_2448" x1="2" y1="18.3158" x2="8.31579" y2="18.3158" gradientUnits="userSpaceOnUse">
<stop offset="0.003" stop-color="#42A3F2"/>
<stop offset="1" stop-color="#42A4EB"/>
</linearGradient>
</defs>
</svg>
