<svg width="24" height="24" viewBox="0 0 24 24" fill="none" xmlns="http://www.w3.org/2000/svg">
<path d="M4.10526 10.421C3.95105 10.421 3.7979 10.3537 3.69421 10.2237C3.51263 9.99683 3.54947 9.66525 3.77632 9.4842L9.03947 5.27368C9.1879 5.15473 9.3879 5.12631 9.56368 5.19578L14.5421 7.18736L19.5658 3.16841C19.7921 2.98683 20.1242 3.02368 20.3053 3.25052C20.4868 3.47736 20.45 3.80894 20.2232 3.98999L14.96 8.20052C14.8116 8.31894 14.6116 8.34789 14.4358 8.27841L9.45737 6.28683L4.43368 10.3058C4.33684 10.3831 4.22105 10.421 4.10526 10.421Z" fill="url(#paint0_linear_40_2393)"/>
<path d="M4.10526 20.9473C4.39594 20.9473 4.63158 20.7117 4.63158 20.421C4.63158 20.1304 4.39594 19.8947 4.10526 19.8947C3.81459 19.8947 3.57895 20.1304 3.57895 20.421C3.57895 20.7117 3.81459 20.9473 4.10526 20.9473Z" fill="#64717C"/>
<path d="M4.10526 18.8421C4.39594 18.8421 4.63158 18.6064 4.63158 18.3158C4.63158 18.0252 4.39594 17.7895 4.10526 17.7895C3.81459 17.7895 3.57895 18.0252 3.57895 18.3158C3.57895 18.6064 3.81459 18.8421 4.10526 18.8421Z" fill="#64717C"/>
<path d="M4.10526 16.7368C4.39594 16.7368 4.63158 16.5012 4.63158 16.2105C4.63158 15.9199 4.39594 15.6842 4.10526 15.6842C3.81459 15.6842 3.57895 15.9199 3.57895 16.2105C3.57895 16.5012 3.81459 16.7368 4.10526 16.7368Z" fill="#64717C"/>
<path d="M4.10526 14.6316C4.39594 14.6316 4.63158 14.3959 4.63158 14.1052C4.63158 13.8146 4.39594 13.5789 4.10526 13.5789C3.81459 13.5789 3.57895 13.8146 3.57895 14.1052C3.57895 14.3959 3.81459 14.6316 4.10526 14.6316Z" fill="#64717C"/>
<path d="M9.36842 20.9473C9.6591 20.9473 9.89474 20.7117 9.89474 20.421C9.89474 20.1304 9.6591 19.8947 9.36842 19.8947C9.07775 19.8947 8.84211 20.1304 8.84211 20.421C8.84211 20.7117 9.07775 20.9473 9.36842 20.9473Z" fill="#64717C"/>
<path d="M9.36842 18.8421C9.6591 18.8421 9.89474 18.6064 9.89474 18.3158C9.89474 18.0252 9.6591 17.7895 9.36842 17.7895C9.07775 17.7895 8.84211 18.0252 8.84211 18.3158C8.84211 18.6064 9.07775 18.8421 9.36842 18.8421Z" fill="#64717C"/>
<path d="M9.36842 16.7368C9.6591 16.7368 9.89474 16.5012 9.89474 16.2105C9.89474 15.9199 9.6591 15.6842 9.36842 15.6842C9.07775 15.6842 8.84211 15.9199 8.84211 16.2105C8.84211 16.5012 9.07775 16.7368 9.36842 16.7368Z" fill="#64717C"/>
<path d="M9.36842 12.5263C9.6591 12.5263 9.89474 12.2906 9.89474 12C9.89474 11.7093 9.6591 11.4737 9.36842 11.4737C9.07775 11.4737 8.84211 11.7093 8.84211 12C8.84211 12.2906 9.07775 12.5263 9.36842 12.5263Z" fill="#64717C"/>
<path d="M4.10526 12.5263C4.39594 12.5263 4.63158 12.2906 4.63158 12C4.63158 11.7093 4.39594 11.4737 4.10526 11.4737C3.81459 11.4737 3.57895 11.7093 3.57895 12C3.57895 12.2906 3.81459 12.5263 4.10526 12.5263Z" fill="#64717C"/>
<path d="M9.36842 14.6316C9.6591 14.6316 9.89474 14.3959 9.89474 14.1052C9.89474 13.8146 9.6591 13.5789 9.36842 13.5789C9.07775 13.5789 8.84211 13.8146 8.84211 14.1052C8.84211 14.3959 9.07775 14.6316 9.36842 14.6316Z" fill="#64717C"/>
<path d="M9.36842 10.421C9.6591 10.421 9.89474 10.1854 9.89474 9.89472C9.89474 9.60405 9.6591 9.36841 9.36842 9.36841C9.07775 9.36841 8.84211 9.60405 8.84211 9.89472C8.84211 10.1854 9.07775 10.421 9.36842 10.421Z" fill="#64717C"/>
<path d="M4.10526 10.421C4.39594 10.421 4.63158 10.1854 4.63158 9.89472C4.63158 9.60405 4.39594 9.36841 4.10526 9.36841C3.81459 9.36841 3.57895 9.60405 3.57895 9.89472C3.57895 10.1854 3.81459 10.421 4.10526 10.421Z" fill="#64717C"/>
<path d="M9.36842 8.31578C9.6591 8.31578 9.89474 8.08014 9.89474 7.78947C9.89474 7.4988 9.6591 7.26315 9.36842 7.26315C9.07775 7.26315 8.84211 7.4988 8.84211 7.78947C8.84211 8.08014 9.07775 8.31578 9.36842 8.31578Z" fill="#64717C"/>
<path d="M14.6316 20.9473C14.9222 20.9473 15.1579 20.7117 15.1579 20.421C15.1579 20.1304 14.9222 19.8947 14.6316 19.8947C14.3409 19.8947 14.1053 20.1304 14.1053 20.421C14.1053 20.7117 14.3409 20.9473 14.6316 20.9473Z" fill="#64717C"/>
<path d="M14.6316 18.8421C14.9222 18.8421 15.1579 18.6064 15.1579 18.3158C15.1579 18.0252 14.9222 17.7895 14.6316 17.7895C14.3409 17.7895 14.1053 18.0252 14.1053 18.3158C14.1053 18.6064 14.3409 18.8421 14.6316 18.8421Z" fill="#64717C"/>
<path d="M14.6316 16.7368C14.9222 16.7368 15.1579 16.5012 15.1579 16.2105C15.1579 15.9199 14.9222 15.6842 14.6316 15.6842C14.3409 15.6842 14.1053 15.9199 14.1053 16.2105C14.1053 16.5012 14.3409 16.7368 14.6316 16.7368Z" fill="#64717C"/>
<path d="M14.6316 12.5263C14.9222 12.5263 15.1579 12.2906 15.1579 12C15.1579 11.7093 14.9222 11.4737 14.6316 11.4737C14.3409 11.4737 14.1053 11.7093 14.1053 12C14.1053 12.2906 14.3409 12.5263 14.6316 12.5263Z" fill="#64717C"/>
<path d="M14.6316 14.6316C14.9222 14.6316 15.1579 14.3959 15.1579 14.1052C15.1579 13.8146 14.9222 13.5789 14.6316 13.5789C14.3409 13.5789 14.1053 13.8146 14.1053 14.1052C14.1053 14.3959 14.3409 14.6316 14.6316 14.6316Z" fill="#64717C"/>
<path d="M19.8947 20.9473C20.1854 20.9473 20.4211 20.7117 20.4211 20.421C20.4211 20.1304 20.1854 19.8947 19.8947 19.8947C19.6041 19.8947 19.3684 20.1304 19.3684 20.421C19.3684 20.7117 19.6041 20.9473 19.8947 20.9473Z" fill="#64717C"/>
<path d="M19.8947 18.8421C20.1854 18.8421 20.4211 18.6064 20.4211 18.3158C20.4211 18.0252 20.1854 17.7895 19.8947 17.7895C19.6041 17.7895 19.3684 18.0252 19.3684 18.3158C19.3684 18.6064 19.6041 18.8421 19.8947 18.8421Z" fill="#64717C"/>
<path d="M19.8947 16.7368C20.1854 16.7368 20.4211 16.5012 20.4211 16.2105C20.4211 15.9199 20.1854 15.6842 19.8947 15.6842C19.6041 15.6842 19.3684 15.9199 19.3684 16.2105C19.3684 16.5012 19.6041 16.7368 19.8947 16.7368Z" fill="#64717C"/>
<path d="M19.8947 12.5263C20.1854 12.5263 20.4211 12.2906 20.4211 12C20.4211 11.7093 20.1854 11.4737 19.8947 11.4737C19.6041 11.4737 19.3684 11.7093 19.3684 12C19.3684 12.2906 19.6041 12.5263 19.8947 12.5263Z" fill="#64717C"/>
<path d="M19.8947 14.6316C20.1854 14.6316 20.4211 14.3959 20.4211 14.1052C20.4211 13.8146 20.1854 13.5789 19.8947 13.5789C19.6041 13.5789 19.3684 13.8146 19.3684 14.1052C19.3684 14.3959 19.6041 14.6316 19.8947 14.6316Z" fill="#64717C"/>
<path d="M19.8947 10.421C20.1854 10.421 20.4211 10.1854 20.4211 9.89472C20.4211 9.60405 20.1854 9.36841 19.8947 9.36841C19.6041 9.36841 19.3684 9.60405 19.3684 9.89472C19.3684 10.1854 19.6041 10.421 19.8947 10.421Z" fill="#64717C"/>
<path d="M14.6316 10.421C14.9222 10.421 15.1579 10.1854 15.1579 9.89472C15.1579 9.60405 14.9222 9.36841 14.6316 9.36841C14.3409 9.36841 14.1053 9.60405 14.1053 9.89472C14.1053 10.1854 14.3409 10.421 14.6316 10.421Z" fill="#64717C"/>
<path d="M19.8947 8.31578C20.1854 8.31578 20.4211 8.08014 20.4211 7.78947C20.4211 7.4988 20.1854 7.26315 19.8947 7.26315C19.6041 7.26315 19.3684 7.4988 19.3684 7.78947C19.3684 8.08014 19.6041 8.31578 19.8947 8.31578Z" fill="#64717C"/>
<path d="M14.6316 8.31578C14.9222 8.31578 15.1579 8.08014 15.1579 7.78947C15.1579 7.4988 14.9222 7.26315 14.6316 7.26315C14.3409 7.26315 14.1053 7.4988 14.1053 7.78947C14.1053 8.08014 14.3409 8.31578 14.6316 8.31578Z" fill="#64717C"/>
<path d="M19.8947 6.21053C20.1854 6.21053 20.4211 5.97489 20.4211 5.68421C20.4211 5.39354 20.1854 5.1579 19.8947 5.1579C19.6041 5.1579 19.3684 5.39354 19.3684 5.68421C19.3684 5.97489 19.6041 6.21053 19.8947 6.21053Z" fill="#64717C"/>
<path d="M21.4737 20.421H2.52632C2.23579 20.421 2 20.6568 2 20.9473C2 21.2379 2.23579 21.4737 2.52632 21.4737H21.4737C21.7642 21.4737 22 21.2379 22 20.9473C22 20.6568 21.7642 20.421 21.4737 20.421Z" fill="#ABB4BE"/>
<path d="M4.10526 10.9474C4.68661 10.9474 5.15789 10.4761 5.15789 9.89473C5.15789 9.31339 4.68661 8.8421 4.10526 8.8421C3.52392 8.8421 3.05263 9.31339 3.05263 9.89473C3.05263 10.4761 3.52392 10.9474 4.10526 10.9474Z" fill="#33C481"/>
<path d="M9.36842 6.73682C9.94979 6.73682 10.4211 6.26554 10.4211 5.68419C10.4211 5.10285 9.94979 4.63156 9.36842 4.63156C8.78707 4.63156 8.31579 5.10285 8.31579 5.68419C8.31579 6.26554 8.78707 6.73682 9.36842 6.73682Z" fill="#33C481"/>
<path d="M14.6316 8.84211C15.2129 8.84211 15.6842 8.37083 15.6842 7.78948C15.6842 7.20813 15.2129 6.73685 14.6316 6.73685C14.0502 6.73685 13.5789 7.20813 13.5789 7.78948C13.5789 8.37083 14.0502 8.84211 14.6316 8.84211Z" fill="#33C481"/>
<path d="M19.8947 4.63157C20.4761 4.63157 20.9474 4.16029 20.9474 3.57894C20.9474 2.99759 20.4761 2.52631 19.8947 2.52631C19.3134 2.52631 18.8421 2.99759 18.8421 3.57894C18.8421 4.16029 19.3134 4.63157 19.8947 4.63157Z" fill="#33C481"/>
<defs>
<linearGradient id="paint0_linear_40_2393" x1="6.04534" y1="4.13212" x2="9.87153" y2="12.878" gradientUnits="userSpaceOnUse">
<stop stop-color="#21AD64"/>
<stop offset="1" stop-color="#088242"/>
</linearGradient>
</defs>
</svg>
