<svg width="24" height="24" viewBox="0 0 24 24" fill="none" xmlns="http://www.w3.org/2000/svg">
<path d="M20.8889 2H3.11111C2.49722 2 2 2.49722 2 3.11111V20.8889C2 21.5028 2.49722 22 3.11111 22H20.8889C21.5028 22 22 21.5028 22 20.8889V3.11111C22 2.49722 21.5028 2 20.8889 2Z" fill="url(#paint0_linear_40_2429)"/>
<path opacity="0.05" d="M4.77778 20.3333H19.2222C19.8361 20.3333 20.3333 19.8361 20.3333 19.2222V4.77777C20.3333 4.16388 19.8361 3.66666 19.2222 3.66666H4.77778C4.16389 3.66666 3.66667 4.16388 3.66667 4.77777V19.2222C3.66667 19.8361 4.16389 20.3333 4.77778 20.3333Z" fill="black"/>
<path opacity="0.07" d="M4.77778 20.0556H19.2222C19.6822 20.0556 20.0556 19.6822 20.0556 19.2222V4.77779C20.0556 4.31779 19.6822 3.94446 19.2222 3.94446H4.77778C4.31778 3.94446 3.94444 4.31779 3.94444 4.77779V19.2222C3.94444 19.6822 4.31778 20.0556 4.77778 20.0556Z" fill="black"/>
<path d="M19.2222 19.7778H4.77778C4.47111 19.7778 4.22222 19.5289 4.22222 19.2222V4.77778C4.22222 4.47112 4.47111 4.22223 4.77778 4.22223H19.2222C19.5289 4.22223 19.7778 4.47112 19.7778 4.77778V19.2222C19.7778 19.5289 19.5289 19.7778 19.2222 19.7778Z" fill="url(#paint1_radial_40_2429)"/>
<path d="M17.2778 13.1083H6.72222C6.56889 13.1083 6.44444 12.9839 6.44444 12.8306V11.1694C6.44444 11.0161 6.56889 10.8917 6.72222 10.8917H17.2778C17.4311 10.8917 17.5556 11.0161 17.5556 11.1694V12.8306C17.5556 12.9839 17.4311 13.1083 17.2778 13.1083Z" fill="#16528C"/>
<defs>
<linearGradient id="paint0_linear_40_2429" x1="2.61167" y1="2.61167" x2="22.2956" y2="22.2956" gradientUnits="userSpaceOnUse">
<stop stop-color="#33BEF0"/>
<stop offset="1" stop-color="#22A5E2"/>
</linearGradient>
<radialGradient id="paint1_radial_40_2429" cx="0" cy="0" r="1" gradientUnits="userSpaceOnUse" gradientTransform="translate(7.68801 6.13756) scale(15.3033)">
<stop stop-color="#FAFAFB"/>
<stop offset="0.293" stop-color="#F6F7F8"/>
<stop offset="0.566" stop-color="#EBECEE"/>
<stop offset="0.832" stop-color="#D8DCDF"/>
<stop offset="1" stop-color="#C8CDD1"/>
</radialGradient>
</defs>
</svg>
