<svg width="24" height="24" viewBox="0 0 24 24" fill="none" xmlns="http://www.w3.org/2000/svg">
<path d="M17 17C14.8071 17 13.2858 15.5212 12 13.8896C10.7142 15.5212 9.19292 17 7 17C4.43 17 2 14.57 2 12C2 9.43 4.43 7 7 7C9.19292 7 10.7142 8.47875 12 10.1104C13.2858 8.47875 14.8071 7 17 7C19.57 7 22 9.43 22 12C22 14.57 19.57 17 17 17ZM13.4137 12C14.5229 13.4767 15.6217 14.7271 17 14.7271C18.4433 14.7271 19.7271 13.2021 19.7271 12C19.7271 10.7979 18.4433 9.27292 17 9.27292C15.6217 9.27292 14.5233 10.5233 13.4137 12ZM7 9.27292C5.55667 9.27292 4.27292 10.7979 4.27292 12C4.27292 13.2021 5.55667 14.7271 7 14.7271C8.37833 14.7271 9.47667 13.4767 10.5863 12C9.47667 10.5233 8.37833 9.27292 7 9.27292Z" fill="url(#paint0_radial_40_2436)"/>
<path d="M17 14.7271C13.6637 14.7271 12 7 7 7C7 7.74083 7 8.50542 7 9.27292C10.3996 9.27292 12 17 17 17C17.0333 17 17.0662 16.995 17.0996 16.9942C17.0454 16.2383 17.02 15.4825 17.0092 14.7262C17.0062 14.7267 17.0033 14.7271 17 14.7271Z" fill="#FCD400"/>
<defs>
<radialGradient id="paint0_radial_40_2436" cx="0" cy="0" r="1" gradientUnits="userSpaceOnUse" gradientTransform="translate(12 12) scale(6.19013)">
<stop stop-color="#F47400"/>
<stop offset="1" stop-color="#FCD400"/>
</radialGradient>
</defs>
</svg>
