<svg width="24" height="24" viewBox="0 0 24 24" fill="none" xmlns="http://www.w3.org/2000/svg">
<path d="M2 8.5322V19.5549C2 20.0258 2.42636 20.4072 2.95227 20.4072H21.0477C21.5736 20.4072 22 20.0258 22 19.5549V8.5322C22 8.0613 21.5736 7.67993 21.0477 7.67993H2.95227C2.42636 7.67993 2 8.0613 2 8.5322Z" fill="url(#paint0_linear_40_2467)"/>
<path d="M17 7.67993H12V20.4072H17V7.67993Z" fill="url(#paint1_linear_40_2467)"/>
<path d="M7.45455 7.67993H6.54546V20.4072H7.45455V7.67993Z" fill="url(#paint2_linear_40_2467)"/>
<path d="M17.1332 3.59271H11.8668C11.5809 3.59271 11.4382 3.93817 11.64 4.13999L14.1032 6.60317C14.3223 6.82226 14.6777 6.82226 14.8968 6.60317L17.36 4.13999C17.5618 3.93817 17.4191 3.59271 17.1332 3.59271Z" fill="url(#paint3_linear_40_2467)"/>
<defs>
<linearGradient id="paint0_linear_40_2467" x1="8.30572" y1="7.87533" x2="12.8887" y2="21.7611" gradientUnits="userSpaceOnUse">
<stop stop-color="#7DD8F3"/>
<stop offset="1" stop-color="#45B0D0"/>
</linearGradient>
<linearGradient id="paint1_linear_40_2467" x1="14.5" y1="7.65323" x2="14.5" y2="20.3613" gradientUnits="userSpaceOnUse">
<stop stop-color="#2AA4F4"/>
<stop offset="1" stop-color="#007AD9"/>
</linearGradient>
<linearGradient id="paint2_linear_40_2467" x1="6.87759" y1="8.23472" x2="11.6534" y2="10.1106" gradientUnits="userSpaceOnUse">
<stop stop-color="#32BDEF"/>
<stop offset="1" stop-color="#1EA2E4"/>
</linearGradient>
<linearGradient id="paint3_linear_40_2467" x1="11.5455" y1="5.18009" x2="17.4545" y2="5.18009" gradientUnits="userSpaceOnUse">
<stop stop-color="#FFD869"/>
<stop offset="0.765625" stop-color="#F2C032"/>
<stop offset="1" stop-color="#FFD869"/>
</linearGradient>
</defs>
</svg>
