<svg width="24" height="24" viewBox="0 0 24 24" fill="none" xmlns="http://www.w3.org/2000/svg">
<path d="M14.7824 13.8653L12.3624 16.1362C12.1628 16.3357 11.8386 16.3357 11.639 16.1362L9.21809 13.8653C9.05666 13.7043 9.17095 13.4286 9.39856 13.4286H14.6014C14.829 13.4286 14.9433 13.7043 14.7824 13.8653Z" fill="url(#paint0_linear_40_2462)"/>
<path d="M12.4757 3.42859H11.5233C11.2605 3.42859 11.0471 3.64192 11.0471 3.90478V13.4286H9.39952C9.17095 13.4286 9.05666 13.7048 9.21857 13.8667L11.6376 16.1381C11.8376 16.3333 12.1614 16.3333 12.3614 16.1381L12.9519 15.5857V3.90478C12.9519 3.64192 12.7386 3.42859 12.4757 3.42859Z" fill="url(#paint1_linear_40_2462)"/>
<path d="M17.7143 20.5715H6.28571C4.71 20.5715 3.42857 19.29 3.42857 17.7143V11.5238C3.42857 11.261 3.21524 11.0476 2.95238 11.0476C2.42667 11.0476 2 10.621 2 10.0953C2 9.56955 2.42667 9.14288 2.95238 9.14288C4.26524 9.14288 5.33333 10.211 5.33333 11.5238V17.7143C5.33333 18.2395 5.76048 18.6667 6.28571 18.6667H17.7143C18.2395 18.6667 18.6667 18.2395 18.6667 17.7143V11.5238C18.6667 10.211 19.7348 9.14288 21.0476 9.14288C21.5733 9.14288 22 9.56955 22 10.0953C22 10.621 21.5733 11.0476 21.0476 11.0476C20.7848 11.0476 20.5714 11.261 20.5714 11.5238V17.7143C20.5714 19.29 19.29 20.5715 17.7143 20.5715Z" fill="#64717C"/>
<defs>
<linearGradient id="paint0_linear_40_2462" x1="14.9809" y1="14.8572" x2="12.8467" y2="14.8572" gradientUnits="userSpaceOnUse">
<stop offset="0.365" stop-color="#199AE0"/>
<stop offset="0.699" stop-color="#1898DE"/>
<stop offset="0.819" stop-color="#1691D8"/>
<stop offset="0.905" stop-color="#1186CC"/>
<stop offset="0.974" stop-color="#0A75BC"/>
<stop offset="1" stop-color="#076CB3"/>
</linearGradient>
<linearGradient id="paint1_linear_40_2462" x1="9.30904" y1="4.00002" x2="14.2967" y2="17.7038" gradientUnits="userSpaceOnUse">
<stop stop-color="#32BDEF"/>
<stop offset="1" stop-color="#1EA2E4"/>
</linearGradient>
</defs>
</svg>
