<svg width="24" height="24" viewBox="0 0 24 24" fill="none" xmlns="http://www.w3.org/2000/svg">
<path d="M17.5623 21.9894L6.45709 22C4.01394 22.0022 2.01333 20.0055 2.01055 17.5623L2 6.45709C1.99778 4.01394 3.9945 2.01333 6.43766 2.01055L17.5429 2C19.9861 1.99778 21.9867 3.9945 21.9894 6.43766L22 17.5429C22.0028 19.9866 20.0055 21.9872 17.5623 21.9894Z" fill="url(#paint0_radial_40_2491)"/>
<path d="M17.5623 21.9894L6.45709 22C4.01394 22.0022 2.01333 20.0055 2.01055 17.5623L2 6.45709C1.99778 4.01394 3.9945 2.01333 6.43766 2.01055L17.5429 2C19.9861 1.99778 21.9867 3.9945 21.9894 6.43766L22 17.5429C22.0028 19.9866 20.0055 21.9872 17.5623 21.9894Z" fill="url(#paint1_radial_40_2491)"/>
<path d="M12.0003 15.8871C9.85752 15.8871 8.11344 14.1436 8.11344 12.0003C8.11344 9.85699 9.85752 8.11346 12.0003 8.11346C14.143 8.11346 15.8871 9.85699 15.8871 12.0003C15.8871 14.1436 14.143 15.8871 12.0003 15.8871ZM12.0003 9.22399C10.4694 9.22399 9.22397 10.4694 9.22397 12.0003C9.22397 13.5312 10.4694 14.7766 12.0003 14.7766C13.5311 14.7766 14.7766 13.5312 14.7766 12.0003C14.7766 10.4694 13.5311 9.22399 12.0003 9.22399Z" fill="white"/>
<path d="M16.1647 8.66872C16.6247 8.66872 16.9976 8.29581 16.9976 7.83582C16.9976 7.37583 16.6247 7.00293 16.1647 7.00293C15.7048 7.00293 15.3319 7.37583 15.3319 7.83582C15.3319 8.29581 15.7048 8.66872 16.1647 8.66872Z" fill="white"/>
<path d="M15.3318 19.2187H8.6687C6.52594 19.2187 4.78186 17.4752 4.78186 15.3318V8.6687C4.78186 6.52538 6.52594 4.78186 8.6687 4.78186H15.3318C17.4746 4.78186 19.2187 6.52538 19.2187 8.6687V15.3318C19.2187 17.4752 17.4746 19.2187 15.3318 19.2187ZM8.6687 5.89239C7.13784 5.89239 5.89239 7.13784 5.89239 8.6687V15.3318C5.89239 16.8627 7.13784 18.1082 8.6687 18.1082H15.3318C16.8627 18.1082 18.1082 16.8627 18.1082 15.3318V8.6687C18.1082 7.13784 16.8627 5.89239 15.3318 5.89239H8.6687Z" fill="white"/>
<defs>
<radialGradient id="paint0_radial_40_2491" cx="0" cy="0" r="1" gradientUnits="userSpaceOnUse" gradientTransform="translate(9.43497 22.0144) scale(24.9307)">
<stop stop-color="#FFDD55"/>
<stop offset="0.328" stop-color="#FF543F"/>
<stop offset="0.348" stop-color="#FC5245"/>
<stop offset="0.504" stop-color="#E64771"/>
<stop offset="0.643" stop-color="#D53E91"/>
<stop offset="0.761" stop-color="#CC39A4"/>
<stop offset="0.841" stop-color="#C837AB"/>
</radialGradient>
<radialGradient id="paint1_radial_40_2491" cx="0" cy="0" r="1" gradientUnits="userSpaceOnUse" gradientTransform="translate(5.2183 1.7503) scale(16.554 11.03)">
<stop stop-color="#4168C9"/>
<stop offset="0.999" stop-color="#4168C9" stop-opacity="0"/>
</radialGradient>
</defs>
</svg>
