<svg width="24" height="24" viewBox="0 0 24 24" fill="none" xmlns="http://www.w3.org/2000/svg">
<path d="M17.8537 7.36585V19.561C17.8537 20.1 17.4171 20.5366 16.878 20.5366H4.19512C3.6561 20.5366 3.21951 20.1 3.21951 19.561V2.97561C3.21951 2.43659 3.6561 2 4.19512 2H12.4878L17.8537 7.36585Z" fill="url(#paint0_linear_40_2511)"/>
<path opacity="0.05" d="M17.8537 19.561V11.7561C15.9068 11.7561 14.439 12.5951 14.439 13.7073V15.6781C14.2771 15.6649 14.1142 15.6585 13.9512 15.6585C12.0044 15.6585 10.5366 16.4976 10.5366 17.6098V20.5366H16.8781C17.4171 20.5366 17.8537 20.1 17.8537 19.561Z" fill="black"/>
<path opacity="0.07" d="M17.8537 19.561V12C16.0756 12 14.6829 12.7502 14.6829 13.7073V15.9478C14.4415 15.9176 14.1961 15.9024 13.9512 15.9024C12.1732 15.9024 10.7805 16.6527 10.7805 17.6098V20.5366H16.878C17.4171 20.5366 17.8537 20.1 17.8537 19.561Z" fill="black"/>
<path d="M12.4878 2V6.39024C12.4878 6.92927 12.9244 7.36585 13.4634 7.36585H17.8537L12.4878 2Z" fill="url(#paint1_linear_40_2511)"/>
<path d="M11.1459 12.9034C11.1459 10.3961 7.44391 10.8859 7.44391 9.4044C7.44391 8.63075 8.31318 8.59026 8.58538 8.59026C9.23903 8.59026 9.86928 8.76538 10.3503 8.99124C10.502 9.06245 10.6761 8.95709 10.6761 8.78977V8.06002C10.6761 7.81514 10.5839 7.67026 10.4371 7.61319C10.1073 7.48489 9.63416 7.39172 8.93367 7.36831V6.56538C8.93367 6.46928 8.85562 6.39124 8.75952 6.39124H8.41123C8.31513 6.39124 8.23708 6.46928 8.23708 6.56538V7.38148C7.15123 7.48782 6.02538 8.1005 6.02538 9.52635C6.02538 12.1254 9.72733 11.6102 9.72733 12.979C9.72733 13.4093 9.45269 13.78 8.58586 13.78C7.71464 13.78 6.91464 13.4761 6.47172 13.2493C6.32196 13.1722 6.14635 13.2824 6.14635 13.4498V14.2805C6.14635 14.44 6.24245 14.5815 6.38879 14.6439C6.91367 14.8668 7.61757 15.0356 8.23659 15.0849V15.9722C8.23659 16.0683 8.31464 16.1463 8.41074 16.1463H8.75903C8.85513 16.1463 8.93318 16.0683 8.93318 15.9722V15.0868C10.5585 14.9512 11.1459 13.8634 11.1459 12.9034Z" fill="#0D61A9"/>
<path d="M20.7805 18.5854H14.9268C14.9268 18.7566 14.9268 19.3898 14.9268 19.561C14.9268 20.3693 16.2371 21.0244 17.8537 21.0244C19.4702 21.0244 20.7805 20.3693 20.7805 19.561C20.7805 19.3898 20.7805 18.7566 20.7805 18.5854Z" fill="url(#paint2_linear_40_2511)"/>
<path d="M20.7805 17.6097H14.9268C14.9268 17.781 14.9268 18.4141 14.9268 18.5854C14.9268 19.3936 16.2371 20.0488 17.8537 20.0488C19.4702 20.0488 20.7805 19.3936 20.7805 18.5854C20.7805 18.4141 20.7805 17.781 20.7805 17.6097Z" fill="url(#paint3_linear_40_2511)"/>
<path d="M20.7805 16.6342H14.9268C14.9268 16.8054 14.9268 17.4385 14.9268 17.6098C14.9268 18.4181 16.2371 19.0732 17.8537 19.0732C19.4702 19.0732 20.7805 18.4181 20.7805 17.6098C20.7805 17.4385 20.7805 16.8054 20.7805 16.6342Z" fill="url(#paint4_linear_40_2511)"/>
<path d="M20.7805 15.6585H14.9268C14.9268 15.8297 14.9268 16.4629 14.9268 16.6341C14.9268 17.4424 16.2371 18.0975 17.8537 18.0975C19.4702 18.0975 20.7805 17.4424 20.7805 16.6341C20.7805 16.4629 20.7805 15.8297 20.7805 15.6585Z" fill="url(#paint5_linear_40_2511)"/>
<path d="M20.7805 14.6829H14.9268C14.9268 14.8541 14.9268 15.4873 14.9268 15.6585C14.9268 16.4668 16.2371 17.1219 17.8537 17.1219C19.4702 17.1219 20.7805 16.4668 20.7805 15.6585C20.7805 15.4873 20.7805 14.8541 20.7805 14.6829Z" fill="url(#paint6_linear_40_2511)"/>
<path d="M20.7805 13.7073H14.9268C14.9268 13.8786 14.9268 14.5117 14.9268 14.6829C14.9268 15.4912 16.2371 16.1464 17.8537 16.1464C19.4702 16.1464 20.7805 15.4912 20.7805 14.6829C20.7805 14.5117 20.7805 13.8786 20.7805 13.7073Z" fill="url(#paint7_linear_40_2511)"/>
<path d="M17.8537 15.1707C19.4702 15.1707 20.7805 14.5155 20.7805 13.7073C20.7805 12.8991 19.4702 12.2439 17.8537 12.2439C16.2372 12.2439 14.9268 12.8991 14.9268 13.7073C14.9268 14.5155 16.2372 15.1707 17.8537 15.1707Z" fill="url(#paint8_linear_40_2511)"/>
<path d="M17.8537 14.6829C19.066 14.6829 20.0488 14.2461 20.0488 13.7073C20.0488 13.1685 19.066 12.7317 17.8537 12.7317C16.6414 12.7317 15.6585 13.1685 15.6585 13.7073C15.6585 14.2461 16.6414 14.6829 17.8537 14.6829Z" fill="#FFC800"/>
<path opacity="0.05" d="M14.9268 15.7346C14.9268 17.3854 14.9268 19.4571 14.9268 19.561C14.9268 20.2702 15.9361 20.861 17.2751 20.9956C17.3327 20.8488 17.3659 20.6961 17.3659 20.5366V17.6097C17.3659 16.6932 16.3673 15.9634 14.9268 15.7346Z" fill="black"/>
<path opacity="0.07" d="M14.9268 15.9825C14.9268 17.5854 14.9268 19.462 14.9268 19.561C14.9268 20.2244 15.8107 20.7844 17.022 20.9635C17.0849 20.8274 17.122 20.6849 17.122 20.5366V17.6098C17.122 16.8366 16.2132 16.1991 14.9268 15.9825Z" fill="black"/>
<path d="M16.878 19.561H11.0244C11.0244 19.7322 11.0244 20.3654 11.0244 20.5366C11.0244 21.3449 12.3346 22 13.9512 22C15.5678 22 16.878 21.3449 16.878 20.5366C16.878 20.3654 16.878 19.7322 16.878 19.561Z" fill="url(#paint9_linear_40_2511)"/>
<path d="M16.878 18.5854H11.0244C11.0244 18.7566 11.0244 19.3898 11.0244 19.561C11.0244 20.3693 12.3346 21.0244 13.9512 21.0244C15.5678 21.0244 16.878 20.3693 16.878 19.561C16.878 19.3898 16.878 18.7566 16.878 18.5854Z" fill="url(#paint10_linear_40_2511)"/>
<path d="M16.878 17.6097H11.0244C11.0244 17.781 11.0244 18.4141 11.0244 18.5854C11.0244 19.3936 12.3346 20.0488 13.9512 20.0488C15.5678 20.0488 16.878 19.3936 16.878 18.5854C16.878 18.4141 16.878 17.781 16.878 17.6097Z" fill="url(#paint11_linear_40_2511)"/>
<path d="M13.9512 19.0732C15.5677 19.0732 16.878 18.418 16.878 17.6098C16.878 16.8016 15.5677 16.1464 13.9512 16.1464C12.3347 16.1464 11.0244 16.8016 11.0244 17.6098C11.0244 18.418 12.3347 19.0732 13.9512 19.0732Z" fill="url(#paint12_linear_40_2511)"/>
<path d="M13.9512 18.5854C15.1635 18.5854 16.1463 18.1486 16.1463 17.6098C16.1463 17.0709 15.1635 16.6342 13.9512 16.6342C12.7389 16.6342 11.7561 17.0709 11.7561 17.6098C11.7561 18.1486 12.7389 18.5854 13.9512 18.5854Z" fill="#FFC800"/>
<defs>
<linearGradient id="paint0_linear_40_2511" x1="7.83345" y1="2.2846" x2="18.1252" y2="17.9503" gradientUnits="userSpaceOnUse">
<stop stop-color="#7DD8F3"/>
<stop offset="1" stop-color="#45B0D0"/>
</linearGradient>
<linearGradient id="paint1_linear_40_2511" x1="12.7459" y1="7.10781" x2="15.2195" y2="4.63415" gradientUnits="userSpaceOnUse">
<stop stop-color="#3079D6"/>
<stop offset="1" stop-color="#297CD2"/>
</linearGradient>
<linearGradient id="paint2_linear_40_2511" x1="17.7132" y1="18.1503" x2="18.1742" y2="21.2703" gradientUnits="userSpaceOnUse">
<stop stop-color="#FEDE00"/>
<stop offset="1" stop-color="#FFD000"/>
</linearGradient>
<linearGradient id="paint3_linear_40_2511" x1="17.7132" y1="17.1746" x2="18.1742" y2="20.2946" gradientUnits="userSpaceOnUse">
<stop stop-color="#E5A505"/>
<stop offset="0.116" stop-color="#EAA804"/>
<stop offset="0.595" stop-color="#F8B301"/>
<stop offset="1" stop-color="#FDB700"/>
</linearGradient>
<linearGradient id="paint4_linear_40_2511" x1="17.7132" y1="16.199" x2="18.1742" y2="19.319" gradientUnits="userSpaceOnUse">
<stop stop-color="#FEDE00"/>
<stop offset="1" stop-color="#FFD000"/>
</linearGradient>
<linearGradient id="paint5_linear_40_2511" x1="17.7132" y1="15.2234" x2="18.1742" y2="18.3434" gradientUnits="userSpaceOnUse">
<stop stop-color="#E5A505"/>
<stop offset="0.116" stop-color="#EAA804"/>
<stop offset="0.595" stop-color="#F8B301"/>
<stop offset="1" stop-color="#FDB700"/>
</linearGradient>
<linearGradient id="paint6_linear_40_2511" x1="17.7132" y1="14.2478" x2="18.1742" y2="17.3678" gradientUnits="userSpaceOnUse">
<stop stop-color="#FEDE00"/>
<stop offset="1" stop-color="#FFD000"/>
</linearGradient>
<linearGradient id="paint7_linear_40_2511" x1="17.7132" y1="13.2722" x2="18.1742" y2="16.3922" gradientUnits="userSpaceOnUse">
<stop stop-color="#E5A505"/>
<stop offset="0.116" stop-color="#EAA804"/>
<stop offset="0.595" stop-color="#F8B301"/>
<stop offset="1" stop-color="#FDB700"/>
</linearGradient>
<linearGradient id="paint8_linear_40_2511" x1="16.2581" y1="12.1117" x2="19.4839" y2="15.3376" gradientUnits="userSpaceOnUse">
<stop stop-color="#FEDE00"/>
<stop offset="1" stop-color="#FFD000"/>
</linearGradient>
<linearGradient id="paint9_linear_40_2511" x1="13.8107" y1="19.1259" x2="14.2717" y2="22.2459" gradientUnits="userSpaceOnUse">
<stop stop-color="#E5A505"/>
<stop offset="0.116" stop-color="#EAA804"/>
<stop offset="0.595" stop-color="#F8B301"/>
<stop offset="1" stop-color="#FDB700"/>
</linearGradient>
<linearGradient id="paint10_linear_40_2511" x1="13.8107" y1="18.1503" x2="14.2717" y2="21.2703" gradientUnits="userSpaceOnUse">
<stop stop-color="#FEDE00"/>
<stop offset="1" stop-color="#FFD000"/>
</linearGradient>
<linearGradient id="paint11_linear_40_2511" x1="13.8107" y1="17.1746" x2="14.2717" y2="20.2946" gradientUnits="userSpaceOnUse">
<stop stop-color="#E5A505"/>
<stop offset="0.116" stop-color="#EAA804"/>
<stop offset="0.595" stop-color="#F8B301"/>
<stop offset="1" stop-color="#FDB700"/>
</linearGradient>
<linearGradient id="paint12_linear_40_2511" x1="12.3556" y1="16.0142" x2="15.5815" y2="19.24" gradientUnits="userSpaceOnUse">
<stop stop-color="#FEDE00"/>
<stop offset="1" stop-color="#FFD000"/>
</linearGradient>
</defs>
</svg>
