<svg width="24" height="24" viewBox="0 0 24 24" fill="none" xmlns="http://www.w3.org/2000/svg">
<path d="M19.2222 22H4.77778L2 20.3333V3.66667L5.05556 2H18.9444L22 3.66667V20.3333L19.2222 22Z" fill="url(#paint0_linear_40_2540)"/>
<path d="M21.7222 18.6667H20.6111C20.4578 18.6667 20.3333 18.7911 20.3333 18.9445V20.3334H22V18.9445C22 18.7911 21.8756 18.6667 21.7222 18.6667Z" fill="url(#paint1_linear_40_2540)"/>
<path d="M21.7222 5.33335H20.6111C20.4578 5.33335 20.3333 5.20891 20.3333 5.05558V3.66669H22V5.05558C22 5.20891 21.8756 5.33335 21.7222 5.33335Z" fill="url(#paint2_linear_40_2540)"/>
<path d="M18.6667 20.6111V21.7222C18.6667 21.8755 18.7911 22 18.9444 22H19.7083C20.5417 22 21.1667 21.375 22 20.3333H18.9444C18.7911 20.3333 18.6667 20.4578 18.6667 20.6111Z" fill="url(#paint3_linear_40_2540)"/>
<path d="M18.9444 3.66667H22C21.1667 2.625 20.5417 2 19.7083 2H18.9444C18.7911 2 18.6667 2.12444 18.6667 2.27778V3.38889C18.6667 3.54222 18.7911 3.66667 18.9444 3.66667Z" fill="url(#paint4_linear_40_2540)"/>
<path d="M2 18.9445V20.3334H3.66667V18.9445C3.66667 18.7911 3.54222 18.6667 3.38889 18.6667H2.27778C2.12444 18.6667 2 18.7911 2 18.9445Z" fill="url(#paint5_linear_40_2540)"/>
<path d="M2 5.05558V3.66669H3.66667V5.05558C3.66667 5.20891 3.54222 5.33335 3.38889 5.33335H2.27778C2.12444 5.33335 2 5.20891 2 5.05558Z" fill="url(#paint6_linear_40_2540)"/>
<path d="M5.05556 20.3333H2C2.83333 21.375 3.45833 22 4.29167 22H5.05556C5.20889 22 5.33333 21.8755 5.33333 21.7222V20.6111C5.33333 20.4578 5.20889 20.3333 5.05556 20.3333Z" fill="url(#paint7_linear_40_2540)"/>
<path d="M5.33333 3.38889V2.27778C5.33333 2.12444 5.20889 2 5.05556 2H4.29167C3.45833 2 2.83333 2.625 2 3.66667H5.05556C5.20889 3.66667 5.33333 3.54222 5.33333 3.38889Z" fill="url(#paint8_linear_40_2540)"/>
<path d="M3.38889 7H2.27778C2.12444 7 2 7.12444 2 7.27778V8.94444C2 9.09778 2.12444 9.22222 2.27778 9.22222H3.38889C3.54222 9.22222 3.66667 9.09778 3.66667 8.94444V7.27778C3.66667 7.12444 3.54222 7 3.38889 7Z" fill="url(#paint9_linear_40_2540)"/>
<path d="M3.38889 10.8889H2.27778C2.12444 10.8889 2 11.0134 2 11.1667V12.8334C2 12.9867 2.12444 13.1111 2.27778 13.1111H3.38889C3.54222 13.1111 3.66667 12.9867 3.66667 12.8334V11.1667C3.66667 11.0134 3.54222 10.8889 3.38889 10.8889Z" fill="url(#paint10_linear_40_2540)"/>
<path d="M3.38889 14.7778H2.27778C2.12444 14.7778 2 14.9022 2 15.0555V16.7222C2 16.8755 2.12444 17 2.27778 17H3.38889C3.54222 17 3.66667 16.8755 3.66667 16.7222V15.0555C3.66667 14.9022 3.54222 14.7778 3.38889 14.7778Z" fill="url(#paint11_linear_40_2540)"/>
<path d="M21.7222 7H20.6111C20.4578 7 20.3333 7.12444 20.3333 7.27778V8.94444C20.3333 9.09778 20.4578 9.22222 20.6111 9.22222H21.7222C21.8756 9.22222 22 9.09778 22 8.94444V7.27778C22 7.12444 21.8756 7 21.7222 7Z" fill="url(#paint12_linear_40_2540)"/>
<path d="M21.7222 10.8889H20.6111C20.4578 10.8889 20.3333 11.0134 20.3333 11.1667V12.8334C20.3333 12.9867 20.4578 13.1111 20.6111 13.1111H21.7222C21.8756 13.1111 22 12.9867 22 12.8334V11.1667C22 11.0134 21.8756 10.8889 21.7222 10.8889Z" fill="url(#paint13_linear_40_2540)"/>
<path d="M21.7222 14.7778H20.6111C20.4578 14.7778 20.3333 14.9022 20.3333 15.0555V16.7222C20.3333 16.8755 20.4578 17 20.6111 17H21.7222C21.8756 17 22 16.8755 22 16.7222V15.0555C22 14.9022 21.8756 14.7778 21.7222 14.7778Z" fill="url(#paint14_linear_40_2540)"/>
<path d="M17 3.38889V2.27778C17 2.12444 16.8755 2 16.7222 2H15.0555C14.9022 2 14.7778 2.12444 14.7778 2.27778V3.38889C14.7778 3.54222 14.9022 3.66667 15.0555 3.66667H16.7222C16.8755 3.66667 17 3.54222 17 3.38889Z" fill="url(#paint15_linear_40_2540)"/>
<path d="M13.1111 3.38889V2.27778C13.1111 2.12444 12.9867 2 12.8333 2H11.1667C11.0133 2 10.8889 2.12444 10.8889 2.27778V3.38889C10.8889 3.54222 11.0133 3.66667 11.1667 3.66667H12.8333C12.9867 3.66667 13.1111 3.54222 13.1111 3.38889Z" fill="url(#paint16_linear_40_2540)"/>
<path d="M9.22222 3.38889V2.27778C9.22222 2.12444 9.09778 2 8.94444 2H7.27778C7.12444 2 7 2.12444 7 2.27778V3.38889C7 3.54222 7.12444 3.66667 7.27778 3.66667H8.94444C9.09778 3.66667 9.22222 3.54222 9.22222 3.38889Z" fill="url(#paint17_linear_40_2540)"/>
<path d="M17 21.7222V20.6111C17 20.4578 16.8755 20.3333 16.7222 20.3333H15.0555C14.9022 20.3333 14.7778 20.4578 14.7778 20.6111V21.7222C14.7778 21.8755 14.9022 22 15.0555 22H16.7222C16.8755 22 17 21.8755 17 21.7222Z" fill="url(#paint18_linear_40_2540)"/>
<path d="M13.1111 21.7222V20.6111C13.1111 20.4578 12.9867 20.3333 12.8333 20.3333H11.1667C11.0133 20.3333 10.8889 20.4578 10.8889 20.6111V21.7222C10.8889 21.8755 11.0133 22 11.1667 22H12.8333C12.9867 22 13.1111 21.8755 13.1111 21.7222Z" fill="url(#paint19_linear_40_2540)"/>
<path d="M9.22222 21.7222V20.6111C9.22222 20.4578 9.09778 20.3333 8.94444 20.3333H7.27778C7.12444 20.3333 7 20.4578 7 20.6111V21.7222C7 21.8755 7.12444 22 7.27778 22H8.94444C9.09778 22 9.22222 21.8755 9.22222 21.7222Z" fill="url(#paint20_linear_40_2540)"/>
<defs>
<linearGradient id="paint0_linear_40_2540" x1="8.30571" y1="2.30706" x2="18.1954" y2="21.3752" gradientUnits="userSpaceOnUse">
<stop stop-color="#7DD8F3"/>
<stop offset="1" stop-color="#45B0D0"/>
</linearGradient>
<linearGradient id="paint1_linear_40_2540" x1="21.1667" y1="18.6667" x2="21.1667" y2="20.3334" gradientUnits="userSpaceOnUse">
<stop offset="0.478" stop-color="#199AE0"/>
<stop offset="0.868" stop-color="#1186CC"/>
<stop offset="1" stop-color="#076CB3"/>
</linearGradient>
<linearGradient id="paint2_linear_40_2540" x1="21.1667" y1="5.33335" x2="21.1667" y2="3.66669" gradientUnits="userSpaceOnUse">
<stop offset="0.478" stop-color="#199AE0"/>
<stop offset="0.868" stop-color="#1186CC"/>
<stop offset="1" stop-color="#076CB3"/>
</linearGradient>
<linearGradient id="paint3_linear_40_2540" x1="19.7211" y1="17.5678" x2="20.45" y2="21.7011" gradientUnits="userSpaceOnUse">
<stop stop-color="#32BDEF"/>
<stop offset="0.661" stop-color="#25ABE8"/>
<stop offset="1" stop-color="#1EA2E4"/>
</linearGradient>
<linearGradient id="paint4_linear_40_2540" x1="19.4856" y1="-1.26722" x2="20.3656" y2="3.72222" gradientUnits="userSpaceOnUse">
<stop stop-color="#32BDEF"/>
<stop offset="0.661" stop-color="#25ABE8"/>
<stop offset="1" stop-color="#1EA2E4"/>
</linearGradient>
<linearGradient id="paint5_linear_40_2540" x1="2.83389" y1="18.6667" x2="2.83389" y2="20.3334" gradientUnits="userSpaceOnUse">
<stop offset="0.478" stop-color="#199AE0"/>
<stop offset="0.868" stop-color="#1186CC"/>
<stop offset="1" stop-color="#076CB3"/>
</linearGradient>
<linearGradient id="paint6_linear_40_2540" x1="2.83333" y1="5.33335" x2="2.83333" y2="3.66669" gradientUnits="userSpaceOnUse">
<stop offset="0.478" stop-color="#199AE0"/>
<stop offset="0.868" stop-color="#1186CC"/>
<stop offset="1" stop-color="#076CB3"/>
</linearGradient>
<linearGradient id="paint7_linear_40_2540" x1="4.27889" y1="17.5678" x2="3.55" y2="21.7011" gradientUnits="userSpaceOnUse">
<stop stop-color="#32BDEF"/>
<stop offset="0.661" stop-color="#25ABE8"/>
<stop offset="1" stop-color="#1EA2E4"/>
</linearGradient>
<linearGradient id="paint8_linear_40_2540" x1="4.51444" y1="-1.26722" x2="3.63444" y2="3.72222" gradientUnits="userSpaceOnUse">
<stop stop-color="#32BDEF"/>
<stop offset="0.661" stop-color="#25ABE8"/>
<stop offset="1" stop-color="#1EA2E4"/>
</linearGradient>
<linearGradient id="paint9_linear_40_2540" x1="2" y1="8.11111" x2="3.66667" y2="8.11111" gradientUnits="userSpaceOnUse">
<stop stop-color="#199AE0"/>
<stop offset="1" stop-color="#199AE0"/>
</linearGradient>
<linearGradient id="paint10_linear_40_2540" x1="2" y1="12" x2="3.66667" y2="12" gradientUnits="userSpaceOnUse">
<stop stop-color="#199AE0"/>
<stop offset="1" stop-color="#199AE0"/>
</linearGradient>
<linearGradient id="paint11_linear_40_2540" x1="2" y1="15.8889" x2="3.66667" y2="15.8889" gradientUnits="userSpaceOnUse">
<stop stop-color="#199AE0"/>
<stop offset="1" stop-color="#199AE0"/>
</linearGradient>
<linearGradient id="paint12_linear_40_2540" x1="20.3333" y1="8.11111" x2="22" y2="8.11111" gradientUnits="userSpaceOnUse">
<stop stop-color="#199AE0"/>
<stop offset="1" stop-color="#199AE0"/>
</linearGradient>
<linearGradient id="paint13_linear_40_2540" x1="20.3333" y1="12" x2="22" y2="12" gradientUnits="userSpaceOnUse">
<stop stop-color="#199AE0"/>
<stop offset="1" stop-color="#199AE0"/>
</linearGradient>
<linearGradient id="paint14_linear_40_2540" x1="20.3333" y1="15.8889" x2="22" y2="15.8889" gradientUnits="userSpaceOnUse">
<stop stop-color="#199AE0"/>
<stop offset="1" stop-color="#199AE0"/>
</linearGradient>
<linearGradient id="paint15_linear_40_2540" x1="15.8889" y1="2" x2="15.8889" y2="3.66667" gradientUnits="userSpaceOnUse">
<stop stop-color="#199AE0"/>
<stop offset="1" stop-color="#199AE0"/>
</linearGradient>
<linearGradient id="paint16_linear_40_2540" x1="12" y1="2" x2="12" y2="3.66667" gradientUnits="userSpaceOnUse">
<stop stop-color="#199AE0"/>
<stop offset="1" stop-color="#199AE0"/>
</linearGradient>
<linearGradient id="paint17_linear_40_2540" x1="8.11111" y1="2" x2="8.11111" y2="3.66667" gradientUnits="userSpaceOnUse">
<stop stop-color="#199AE0"/>
<stop offset="1" stop-color="#199AE0"/>
</linearGradient>
<linearGradient id="paint18_linear_40_2540" x1="15.8889" y1="20.3333" x2="15.8889" y2="22" gradientUnits="userSpaceOnUse">
<stop stop-color="#199AE0"/>
<stop offset="1" stop-color="#199AE0"/>
</linearGradient>
<linearGradient id="paint19_linear_40_2540" x1="12" y1="20.3333" x2="12" y2="22" gradientUnits="userSpaceOnUse">
<stop stop-color="#199AE0"/>
<stop offset="1" stop-color="#199AE0"/>
</linearGradient>
<linearGradient id="paint20_linear_40_2540" x1="8.11111" y1="20.3333" x2="8.11111" y2="22" gradientUnits="userSpaceOnUse">
<stop stop-color="#199AE0"/>
<stop offset="1" stop-color="#199AE0"/>
</linearGradient>
</defs>
</svg>
