<svg width="24" height="24" viewBox="0 0 24 24" fill="none" xmlns="http://www.w3.org/2000/svg">
<path d="M16.878 2H7.12195C6.58292 2 6.14634 2.43659 6.14634 2.97561V21.0244C6.14634 21.5634 6.58292 22 7.12195 22H16.878C17.4171 22 17.8537 21.5634 17.8537 21.0244V2.97561C17.8537 2.43659 17.4171 2 16.878 2Z" fill="url(#paint0_linear_40_2573)"/>
<path d="M8.58537 2H15.4146L15.1493 2.7961C15.0166 3.19463 14.6434 3.46341 14.2234 3.46341H9.7761C9.3561 3.46341 8.98341 3.19463 8.85073 2.7961L8.58537 2Z" fill="url(#paint1_linear_40_2573)"/>
<path d="M13.7073 2.9756C13.842 2.9756 13.9512 2.8664 13.9512 2.7317C13.9512 2.59699 13.842 2.48779 13.7073 2.48779C13.5726 2.48779 13.4634 2.59699 13.4634 2.7317C13.4634 2.8664 13.5726 2.9756 13.7073 2.9756Z" fill="url(#paint2_linear_40_2573)"/>
<path d="M12.7317 2.48779C12.6863 2.48779 10.8259 2.48779 10.7805 2.48779C10.6459 2.48779 10.5366 2.59706 10.5366 2.7317C10.5366 2.86633 10.6459 2.9756 10.7805 2.9756C10.8259 2.9756 12.6863 2.9756 12.7317 2.9756C12.8663 2.9756 12.9756 2.86633 12.9756 2.7317C12.9756 2.59706 12.8663 2.48779 12.7317 2.48779Z" fill="url(#paint3_linear_40_2573)"/>
<defs>
<linearGradient id="paint0_linear_40_2573" x1="8.37512" y1="1.77951" x2="15.5019" y2="21.8746" gradientUnits="userSpaceOnUse">
<stop stop-color="#32BDEF"/>
<stop offset="1" stop-color="#1EA2E4"/>
</linearGradient>
<linearGradient id="paint1_linear_40_2573" x1="12" y1="1.99693" x2="12" y2="3.45814" gradientUnits="userSpaceOnUse">
<stop stop-color="#2AA4F4"/>
<stop offset="1" stop-color="#007AD9"/>
</linearGradient>
<linearGradient id="paint2_linear_40_2573" x1="13.6328" y1="2.50913" x2="13.7127" y2="3.02845" gradientUnits="userSpaceOnUse">
<stop stop-color="#0D61A9"/>
<stop offset="1" stop-color="#16528C"/>
</linearGradient>
<linearGradient id="paint3_linear_40_2573" x1="11.3833" y1="2.50913" x2="11.3996" y2="3.04023" gradientUnits="userSpaceOnUse">
<stop stop-color="#0D61A9"/>
<stop offset="1" stop-color="#16528C"/>
</linearGradient>
</defs>
</svg>
