<svg width="24" height="24" viewBox="0 0 24 24" fill="none" xmlns="http://www.w3.org/2000/svg">
<path d="M19.381 16.2857C20.0385 16.2857 20.5714 15.7528 20.5714 15.0953C20.5714 14.4377 20.0385 13.9048 19.381 13.9048C18.7234 13.9048 18.1905 14.4377 18.1905 15.0953C18.1905 15.7528 18.7234 16.2857 19.381 16.2857Z" fill="#C98E00"/>
<path d="M13.0529 19.9443L19.9429 16.1395L18.9238 13.9957L12.9524 16.7619L13.0529 19.9443Z" fill="#C98E00"/>
<path d="M22 15.5714C22 14.9138 21.4671 14.3809 20.8095 14.3809C20.6476 14.3809 20.4933 14.4138 20.3529 14.4724L20.3524 14.4719L20.3471 14.4743C20.3462 14.4747 20.3452 14.4752 20.3443 14.4757L14.381 17.2381L13.6667 16.7619C14.3243 16.7619 14.8571 16.229 14.8571 15.5714C14.8571 15.1286 14.6124 14.7467 14.2538 14.5414L14.2557 14.5338L7.75524 11.2643H7.74333C7.44333 11.1281 7.11286 11.0476 6.7619 11.0476C6.42 11.0476 6.09667 11.1224 5.80238 11.2524H5.7919L2 12.9524V19.1428L5.85238 17.3724L13.429 20.4714H13.4295C13.5757 20.5352 13.7357 20.5714 13.9048 20.5714C14.1119 20.5714 14.3038 20.5138 14.4738 20.4205L14.4819 20.42L21.3719 16.6157L21.3714 16.6148C21.7438 16.4138 22 16.0248 22 15.5714Z" fill="url(#paint0_linear_40_2592)"/>
<path d="M13.6667 16.2857C14.0611 16.2857 14.381 15.9659 14.381 15.5715C14.381 15.177 14.0611 14.8572 13.6667 14.8572C13.2722 14.8572 12.9524 15.177 12.9524 15.5715C12.9524 15.9659 13.2722 16.2857 13.6667 16.2857Z" fill="#FFDE87"/>
<path d="M14.381 17.2381L13.6719 16.7629C13.0743 16.7343 12.6043 16.54 8.66667 15.09V16.7619L14.1671 19.0162C14.1671 19.0162 13.7776 17.9291 14.381 17.2381Z" fill="url(#paint1_linear_40_2592)"/>
<path d="M16.7619 3.42859C15.71 3.42859 14.8571 4.28145 14.8571 5.33335V8.66668C13.979 8.66668 13.2862 9.45906 13.4538 10.3667C13.5571 10.9281 14.0138 11.3886 14.5743 11.4962C15.3157 11.6386 15.9724 11.2067 16.1981 10.571H19.619C20.1452 10.571 20.5714 10.1448 20.5714 9.61859V4.38097C20.5714 3.85478 20.1452 3.42859 19.619 3.42859H16.7619Z" fill="url(#paint2_linear_40_2592)"/>
<path d="M12.9524 10.5714H10.0952C9.56905 10.5714 9.14286 10.1453 9.14286 9.61907V4.38097C9.14286 3.85478 9.56905 3.42859 10.0952 3.42859H12.9524C14.0043 3.42859 14.8571 4.28145 14.8571 5.33335V10.5714C14.8571 10.5714 14.0043 10.5714 12.9524 10.5714Z" fill="url(#paint3_linear_40_2592)"/>
<defs>
<linearGradient id="paint0_linear_40_2592" x1="2" y1="15.8095" x2="22" y2="15.8095" gradientUnits="userSpaceOnUse">
<stop stop-color="#FFCF54"/>
<stop offset="0.261" stop-color="#FDCB4D"/>
<stop offset="0.639" stop-color="#F7C13A"/>
<stop offset="1" stop-color="#F0B421"/>
</linearGradient>
<linearGradient id="paint1_linear_40_2592" x1="11.2081" y1="17.4134" x2="12.0586" y2="15.9467" gradientUnits="userSpaceOnUse">
<stop stop-color="#F0B421" stop-opacity="0"/>
<stop offset="0.512" stop-color="#E9AB12" stop-opacity="0.512"/>
<stop offset="1" stop-color="#E09F00"/>
</linearGradient>
<linearGradient id="paint2_linear_40_2592" x1="16.0383" y1="3.78145" x2="17.8029" y2="12.3439" gradientUnits="userSpaceOnUse">
<stop stop-color="#32BDEF"/>
<stop offset="1" stop-color="#1EA2E4"/>
</linearGradient>
<linearGradient id="paint3_linear_40_2592" x1="10.9445" y1="3.53826" x2="14.8892" y2="9.62278" gradientUnits="userSpaceOnUse">
<stop stop-color="#7DD8F3"/>
<stop offset="1" stop-color="#45B0D0"/>
</linearGradient>
</defs>
</svg>
