<svg width="24" height="24" viewBox="0 0 24 24" fill="none" xmlns="http://www.w3.org/2000/svg">
<path d="M21.5122 12C21.5122 17.3878 17.1439 21.7561 11.7561 21.7561C6.36829 21.7561 2 17.3878 2 12C2 6.61219 6.36829 2.2439 11.7561 2.2439C17.1439 2.2439 21.5122 6.61219 21.5122 12Z" fill="url(#paint0_radial_40_2601)"/>
<path d="M20.0488 12C20.0488 10.7976 19.8541 9.64975 19.5141 8.58536H20.8854C20.7605 8.25121 20.619 7.92536 20.4595 7.60975H19.1512C17.7829 4.4317 14.9859 2.2439 11.7561 2.2439C8.52634 2.2439 5.72927 4.4317 4.36049 7.60975H3.05219C2.89268 7.92536 2.75171 8.25121 2.62634 8.58536H3.99756C3.65805 9.64975 3.46341 10.7976 3.46341 12C3.46341 13.2024 3.65805 14.3502 3.99805 15.4146H2.62683C2.75171 15.7488 2.89317 16.0746 3.05268 16.3902H4.36098C5.72976 19.5683 8.52683 21.7561 11.7566 21.7561C14.9863 21.7561 17.7834 19.5683 19.1522 16.3902H20.4605C20.62 16.0746 20.761 15.7488 20.8863 15.4146H19.5151C19.8541 14.3502 20.0488 13.2024 20.0488 12ZM19.0732 12C19.0732 13.2102 18.8678 14.3644 18.4971 15.4146H15.4195C15.5771 14.3093 15.6585 13.1463 15.6585 12C15.6585 10.8537 15.5776 9.69073 15.4195 8.58536H18.4971C18.8678 9.6356 19.0732 10.7898 19.0732 12ZM11.7561 20.7805C10.8117 20.7805 9.79463 19.1 9.24293 16.3902H14.2693C13.7176 19.1 12.7005 20.7805 11.7561 20.7805ZM9.07317 15.4146C8.91951 14.3839 8.82927 13.2385 8.82927 12C8.82927 10.7615 8.91951 9.61609 9.07317 8.58536H14.439C14.5927 9.61609 14.6829 10.7615 14.6829 12C14.6829 13.2385 14.5927 14.3839 14.439 15.4146H9.07317ZM11.7561 3.21951C12.7005 3.21951 13.7176 4.89999 14.2693 7.60975H9.24293C9.79463 4.89999 10.8117 3.21951 11.7561 3.21951ZM18.0829 7.60975H15.2576C14.9459 5.98536 14.4561 4.55024 13.7971 3.57414C15.6205 4.21121 17.1483 5.67707 18.0829 7.60975ZM9.71512 3.57414C9.05658 4.55073 8.56634 5.98536 8.25463 7.60975H5.42927C6.3639 5.67707 7.89171 4.21121 9.71512 3.57414ZM4.43902 12C4.43902 10.7898 4.64439 9.6356 5.01512 8.58536H8.09268C7.93463 9.69073 7.85366 10.8537 7.85366 12C7.85366 13.1463 7.93463 14.3093 8.09268 15.4146H5.01512C4.64439 14.3644 4.43902 13.2102 4.43902 12ZM5.42927 16.3902H8.25463C8.56634 18.0146 9.0561 19.4498 9.71512 20.4258C7.89171 19.7888 6.3639 18.3229 5.42927 16.3902ZM13.7971 20.4258C14.4556 19.4493 14.9459 18.0146 15.2576 16.3902H18.0829C17.1483 18.3229 15.6205 19.7888 13.7971 20.4258Z" fill="url(#paint1_radial_40_2601)"/>
<path opacity="0.07" d="M14.9268 4.19515V9.26734C14.9268 9.48734 15.0698 9.67368 15.2829 9.73076C15.3254 9.74149 15.3683 9.74734 15.4102 9.74734C15.578 9.74734 15.7346 9.65905 15.8224 9.50686L16.7751 7.8532H20.5771C19.7015 5.99466 18.2644 4.45466 16.4751 3.46295H15.6585C15.2551 3.46344 14.9268 3.79173 14.9268 4.19515Z" fill="black"/>
<path opacity="0.07" d="M8.34146 7.36584H3.16976C2.48634 8.62877 2.08537 10.0624 2.02098 11.5829C2.14829 11.6893 2.30976 11.7561 2.4878 11.7561H7.22488L8.17756 13.4093C8.26536 13.5619 8.42195 13.6502 8.59024 13.6502C8.63219 13.6502 8.67463 13.6444 8.71756 13.6337C8.93073 13.5766 9.07366 13.3902 9.07366 13.1702V8.09755C9.07317 7.69414 8.74488 7.36584 8.34146 7.36584Z" fill="black"/>
<path opacity="0.05" d="M14.6829 4.19509V9.26729C14.6829 9.59948 14.8985 9.88046 15.22 9.96631C15.2844 9.98338 15.3488 9.99217 15.4122 9.99217C15.6659 9.99217 15.9015 9.85899 16.0341 9.62875L16.9161 8.09753H20.6946C19.76 5.96095 18.081 4.2307 15.9868 3.21948H15.6585C15.1205 3.21948 14.6829 3.65704 14.6829 4.19509Z" fill="black"/>
<path opacity="0.05" d="M18.5854 11.0244H12.7317C12.1937 11.0244 11.7561 11.462 11.7561 12V17.0722C11.7561 17.4044 11.9717 17.6854 12.2932 17.7712C12.3576 17.7883 12.422 17.7971 12.4854 17.7971C12.739 17.7971 12.9746 17.6639 13.1073 17.4337L13.9893 15.9025H18.5854C19.1234 15.9025 19.561 15.4649 19.561 14.9269V12C19.561 11.462 19.1234 11.0244 18.5854 11.0244Z" fill="black"/>
<path opacity="0.05" d="M8.34146 7.12195H3.3161C2.50488 8.52195 2.02976 10.139 2.00683 11.8678C2.14927 11.9498 2.31219 12 2.4878 12H7.0839L7.96634 13.5312C8.09854 13.7615 8.33463 13.8946 8.58829 13.8946C8.65171 13.8946 8.7161 13.8859 8.78049 13.8688C9.10146 13.7829 9.31707 13.5019 9.31707 13.1698V8.09756C9.31707 7.55951 8.87951 7.12195 8.34146 7.12195Z" fill="black"/>
<path d="M2.4878 7.60974H8.34146C8.61073 7.60974 8.82927 7.82828 8.82927 8.09755V13.1697C8.82927 13.4112 8.50927 13.4966 8.38878 13.2878L7.36585 11.5122H2.4878C2.21854 11.5122 2 11.2936 2 11.0244V8.09755C2 7.82828 2.21854 7.60974 2.4878 7.60974Z" fill="url(#paint2_linear_40_2601)"/>
<path d="M21.5122 3.70734H15.6585C15.3893 3.70734 15.1707 3.92587 15.1707 4.19514V9.26734C15.1707 9.5088 15.4907 9.59417 15.6112 9.38539L16.6341 7.60978H21.5122C21.7815 7.60978 22 7.39124 22 7.12197V4.19514C22 3.92587 21.7815 3.70734 21.5122 3.70734Z" fill="url(#paint3_linear_40_2601)"/>
<path d="M18.5854 11.5122H12.7317C12.4624 11.5122 12.2439 11.7307 12.2439 12V17.0722C12.2439 17.3137 12.5639 17.399 12.6844 17.1903L13.7073 15.4146H18.5854C18.8546 15.4146 19.0732 15.1961 19.0732 14.9268V12C19.0732 11.7307 18.8546 11.5122 18.5854 11.5122Z" fill="#FF8F6B"/>
<path opacity="0.07" d="M18.5854 11.2683H12.7317C12.3283 11.2683 12 11.5966 12 12V17.0722C12 17.2922 12.1429 17.4786 12.3561 17.5356C12.3985 17.5464 12.4415 17.5522 12.4834 17.5522C12.6512 17.5522 12.8078 17.4639 12.8956 17.3117L13.8483 15.6581H18.5854C18.9888 15.6581 19.3171 15.3298 19.3171 14.9264V11.9995C19.3171 11.5966 18.9888 11.2683 18.5854 11.2683Z" fill="black"/>
<defs>
<radialGradient id="paint0_radial_40_2601" cx="0" cy="0" r="1" gradientUnits="userSpaceOnUse" gradientTransform="translate(4.95707 4.89658) scale(19.959)">
<stop stop-color="#6FCEFC"/>
<stop offset="1" stop-color="#167CF7"/>
</radialGradient>
<radialGradient id="paint1_radial_40_2601" cx="0" cy="0" r="1" gradientUnits="userSpaceOnUse" gradientTransform="translate(5.26634 4.21951) scale(19.96)">
<stop offset="0.001" stop-color="#54C0F5"/>
<stop offset="0.998" stop-color="#0B69DB"/>
</radialGradient>
<linearGradient id="paint2_linear_40_2601" x1="4.39805" y1="8.14291" x2="8.18098" y2="13.4205" gradientUnits="userSpaceOnUse">
<stop stop-color="#F44F5A"/>
<stop offset="0.443" stop-color="#EE3D4A"/>
<stop offset="1" stop-color="#E52030"/>
</linearGradient>
<linearGradient id="paint3_linear_40_2601" x1="17.3039" y1="4.32978" x2="19.9863" y2="9.29221" gradientUnits="userSpaceOnUse">
<stop stop-color="#FFDA1C"/>
<stop offset="1" stop-color="#FEB705"/>
</linearGradient>
</defs>
</svg>
