<svg width="24" height="24" viewBox="0 0 24 24" fill="none" xmlns="http://www.w3.org/2000/svg">
<path d="M19.381 17.2381C20.0385 17.2381 20.5714 16.7052 20.5714 16.0477C20.5714 15.3901 20.0385 14.8572 19.381 14.8572C18.7234 14.8572 18.1905 15.3901 18.1905 16.0477C18.1905 16.7052 18.7234 17.2381 19.381 17.2381Z" fill="#C98E00"/>
<path d="M13.0529 20.8967L19.9429 17.0919L18.9238 14.9481L12.9524 17.7143L13.0529 20.8967Z" fill="#C98E00"/>
<path d="M22 16.5238C22 15.8662 21.4671 15.3333 20.8095 15.3333C20.6476 15.3333 20.4933 15.3662 20.3529 15.4248L20.3524 15.4243L20.3471 15.4267C20.3462 15.4271 20.3452 15.4276 20.3443 15.4281L14.381 18.1905L13.6667 17.7143C14.3243 17.7143 14.8571 17.1814 14.8571 16.5238C14.8571 16.081 14.6124 15.699 14.2538 15.4938L14.2557 15.4862L7.75524 12.2167H7.74333C7.44333 12.0805 7.11286 12 6.7619 12C6.42 12 6.09667 12.0748 5.80238 12.2048H5.7919L2 13.9048V20.0952L5.85238 18.3248L13.429 21.4238H13.4295C13.5757 21.4876 13.7357 21.5238 13.9048 21.5238C14.1119 21.5238 14.3038 21.4662 14.4738 21.3729L14.4819 21.3724L21.3719 17.5681L21.3714 17.5671C21.7438 17.3662 22 16.9771 22 16.5238Z" fill="url(#paint0_linear_40_2631)"/>
<path d="M13.6667 17.2381C14.0611 17.2381 14.3809 16.9183 14.3809 16.5238C14.3809 16.1293 14.0611 15.8095 13.6667 15.8095C13.2722 15.8095 12.9524 16.1293 12.9524 16.5238C12.9524 16.9183 13.2722 17.2381 13.6667 17.2381Z" fill="#FFDE87"/>
<path d="M14.381 18.1905L13.6719 17.7153C13.0743 17.6867 12.6043 17.4924 8.66667 16.0424V17.7143L14.1671 19.9686C14.1671 19.9686 13.7776 18.8815 14.381 18.1905Z" fill="url(#paint1_linear_40_2631)"/>
<path d="M16.5238 11.5238C16.5238 11.33 16.6181 11.1591 16.7619 11.0505V10.2672C16.62 10.1848 16.5238 10.0329 16.5238 9.85716C16.5238 9.68145 16.62 9.52954 16.7619 9.44716V8.66669H14.381V12.2405C14.381 12.391 14.441 12.5357 14.5471 12.6424L14.6905 12.7857C14.7971 12.8924 14.9419 12.9524 15.0924 12.9524H16.05C16.201 12.9524 16.3452 12.8924 16.4519 12.7857L16.5952 12.6424C16.7019 12.5357 16.7619 12.3914 16.7619 12.2405V11.9972C16.6181 11.8886 16.5238 11.7176 16.5238 11.5238Z" fill="url(#paint2_linear_40_2631)"/>
<path d="M18.6667 5.57143C18.6667 3.86191 17.281 2.4762 15.5714 2.4762C13.8619 2.4762 12.4762 3.86191 12.4762 5.57143C12.4762 5.65191 12.4824 5.73048 12.4881 5.80953H12.4762V7.71429C12.4762 8.24001 12.9029 8.66667 13.4286 8.66667H17.7143C18.24 8.66667 18.6667 8.24001 18.6667 7.71429V5.80953H18.6548C18.6605 5.73048 18.6667 5.65191 18.6667 5.57143ZM15.5714 3.90477C16.2291 3.90477 16.7619 4.43762 16.7619 5.09524C16.7619 5.75286 16.2291 6.28572 15.5714 6.28572C14.9138 6.28572 14.381 5.75286 14.381 5.09524C14.381 4.43762 14.9138 3.90477 15.5714 3.90477Z" fill="url(#paint3_linear_40_2631)"/>
<defs>
<linearGradient id="paint0_linear_40_2631" x1="2" y1="16.7619" x2="22" y2="16.7619" gradientUnits="userSpaceOnUse">
<stop stop-color="#FFCF54"/>
<stop offset="0.261" stop-color="#FDCB4D"/>
<stop offset="0.639" stop-color="#F7C13A"/>
<stop offset="1" stop-color="#F0B421"/>
</linearGradient>
<linearGradient id="paint1_linear_40_2631" x1="11.2081" y1="18.3658" x2="12.0581" y2="16.8991" gradientUnits="userSpaceOnUse">
<stop stop-color="#F0B421" stop-opacity="0"/>
<stop offset="0.512" stop-color="#E9AB12" stop-opacity="0.512"/>
<stop offset="1" stop-color="#E09F00"/>
</linearGradient>
<linearGradient id="paint2_linear_40_2631" x1="15.5714" y1="8.6605" x2="15.5714" y2="12.9567" gradientUnits="userSpaceOnUse">
<stop stop-color="#E5A505"/>
<stop offset="0.01" stop-color="#E9A804"/>
<stop offset="0.06" stop-color="#F4B102"/>
<stop offset="0.129" stop-color="#FBB600"/>
<stop offset="0.323" stop-color="#FDB700"/>
</linearGradient>
<linearGradient id="paint3_linear_40_2631" x1="13.4181" y1="3.17905" x2="17.4086" y2="8.98048" gradientUnits="userSpaceOnUse">
<stop stop-color="#FEDE00"/>
<stop offset="1" stop-color="#FFD000"/>
</linearGradient>
</defs>
</svg>
