<svg width="24" height="24" viewBox="0 0 24 24" fill="none" xmlns="http://www.w3.org/2000/svg">
<path d="M22 15.9342H2V9.14475C2 8.77633 2.21053 8.46054 2.47368 8.25002L11.1579 2.77633C11.6842 2.46054 12.3158 2.46054 12.8421 2.77633L21.5263 8.25002C21.8421 8.46054 22 8.77633 22 9.14475V15.9342Z" fill="url(#paint0_linear_40_2648)"/>
<path d="M19.3684 17.2501H4.63158V7.77638C4.63158 7.46059 4.8421 7.25006 5.15789 7.25006H18.8421C19.1579 7.25006 19.3684 7.46059 19.3684 7.77638V17.2501Z" fill="url(#paint1_linear_40_2648)"/>
<path d="M22 9.35535V20.5659C22 21.0922 21.5789 21.4606 21.0526 21.4606H4.42105L6.94737 18.1448L22 9.35535Z" fill="url(#paint2_linear_40_2648)"/>
<path d="M2 9.35535V20.5659C2 21.0922 2.42105 21.4606 2.94737 21.4606H21.1053C21.4211 21.4606 21.6842 21.3027 21.8421 21.0922L2 9.35535Z" fill="url(#paint3_linear_40_2648)"/>
<path d="M13.8421 10.4079H12.5263V9.09214C12.5263 8.93424 12.421 8.82898 12.2632 8.82898H11.7368C11.5789 8.82898 11.4737 8.93424 11.4737 9.09214V10.4079H10.1579C9.99999 10.4079 9.89473 10.5132 9.89473 10.6711V11.1974C9.89473 11.3553 9.99999 11.4606 10.1579 11.4606H11.4737V12.7763C11.4737 12.9342 11.5789 13.0395 11.7368 13.0395H12.2632C12.421 13.0395 12.5263 12.9342 12.5263 12.7763V11.4606H13.8421C14 11.4606 14.1053 11.3553 14.1053 11.1974V10.6711C14.1053 10.5132 14 10.4079 13.8421 10.4079Z" fill="url(#paint4_linear_40_2648)"/>
<defs>
<linearGradient id="paint0_linear_40_2648" x1="9.32684" y1="3.41581" x2="12.6016" y2="14.4684" gradientUnits="userSpaceOnUse">
<stop stop-color="#0078D3"/>
<stop offset="1" stop-color="#0858A1"/>
</linearGradient>
<linearGradient id="paint1_linear_40_2648" x1="12" y1="7.46901" x2="12" y2="14.7411" gradientUnits="userSpaceOnUse">
<stop stop-color="white"/>
<stop offset="0.24" stop-color="#F8F8F7"/>
<stop offset="1" stop-color="#E3E3E1"/>
</linearGradient>
<linearGradient id="paint2_linear_40_2648" x1="12.9926" y1="15.1111" x2="19.3668" y2="24.2338" gradientUnits="userSpaceOnUse">
<stop stop-color="#3CCBF4"/>
<stop offset="1" stop-color="#1FA0E5"/>
</linearGradient>
<linearGradient id="paint3_linear_40_2648" x1="0.986316" y1="14.7427" x2="20.4011" y2="24.158" gradientUnits="userSpaceOnUse">
<stop stop-color="#28AFEA"/>
<stop offset="1" stop-color="#0B88DA"/>
</linearGradient>
<linearGradient id="paint4_linear_40_2648" x1="10.9479" y1="9.11003" x2="13.061" y2="12.7737" gradientUnits="userSpaceOnUse">
<stop stop-color="#F44F5A"/>
<stop offset="0.443" stop-color="#EE3D4A"/>
<stop offset="1" stop-color="#E52030"/>
</linearGradient>
</defs>
</svg>
