<svg width="24" height="24" viewBox="0 0 24 24" fill="none" xmlns="http://www.w3.org/2000/svg">
<path d="M7 5.5H17C19.7615 5.5 22 7.7385 22 10.5V21C22 21.5525 21.5525 22 21 22H7V5.5Z" fill="url(#paint0_linear_40_2640)"/>
<path d="M7 5.5C4.2385 5.5 2 7.7385 2 10.5V21C2 21.5525 2.4475 22 3 22H11C11.5525 22 12 21.5525 12 21V10.5C12 7.7385 9.7615 5.5 7 5.5Z" fill="url(#paint1_linear_40_2640)"/>
<path d="M8.5 11.5H5C4.724 11.5 4.5 11.276 4.5 11C4.5 10.724 4.724 10.5 5 10.5H8.5C8.776 10.5 9 10.724 9 11C9 11.276 8.776 11.5 8.5 11.5Z" fill="url(#paint2_linear_40_2640)"/>
<path d="M15 2.5H14V10H15V2.5Z" fill="#CF1928"/>
<path d="M16.5 4H14V2.5C14 2.224 14.224 2 14.5 2H16.5C16.776 2 17 2.224 17 2.5V3.5C17 3.776 16.776 4 16.5 4Z" fill="#CF1928"/>
<path d="M15 11C15.5523 11 16 10.5523 16 10C16 9.44772 15.5523 9 15 9C14.4477 9 14 9.44772 14 10C14 10.5523 14.4477 11 15 11Z" fill="#D9414F"/>
<defs>
<linearGradient id="paint0_linear_40_2640" x1="14.5" y1="5.46539" x2="14.5" y2="21.9404" gradientUnits="userSpaceOnUse">
<stop stop-color="#2AA4F4"/>
<stop offset="1" stop-color="#007AD9"/>
</linearGradient>
<linearGradient id="paint1_linear_40_2640" x1="3.6025" y1="6.485" x2="10.0915" y2="23.4725" gradientUnits="userSpaceOnUse">
<stop stop-color="#32BDEF"/>
<stop offset="1" stop-color="#1EA2E4"/>
</linearGradient>
<linearGradient id="paint2_linear_40_2640" x1="6.75" y1="10.4979" x2="6.75" y2="11.4964" gradientUnits="userSpaceOnUse">
<stop stop-color="#2AA4F4"/>
<stop offset="1" stop-color="#007AD9"/>
</linearGradient>
</defs>
</svg>
