<svg width="24" height="24" viewBox="0 0 24 24" fill="none" xmlns="http://www.w3.org/2000/svg">
<path d="M19.5 22H4.5C3.9475 22 3.5 21.5525 3.5 21V3C3.5 2.4475 3.9475 2 4.5 2H19.5C20.0525 2 20.5 2.4475 20.5 3V21C20.5 21.5525 20.0525 22 19.5 22Z" fill="url(#paint0_linear_40_2655)"/>
<path opacity="0.05" d="M14.586 3C14.851 3 15.1055 3.1055 15.293 3.293L19.207 7.207C19.3945 7.3945 19.5 7.649 19.5 7.914V20.5C19.5 20.776 19.276 21 19 21H5C4.724 21 4.5 20.776 4.5 20.5V3.5C4.5 3.224 4.724 3 5 3H14.586ZM14.586 2.5H5C4.4485 2.5 4 2.9485 4 3.5V20.5C4 21.0515 4.4485 21.5 5 21.5H19C19.5515 21.5 20 21.0515 20 20.5V7.914C20 7.5135 19.844 7.1365 19.5605 6.8535L15.6465 2.9395C15.363 2.656 14.9865 2.5 14.586 2.5Z" fill="black"/>
<path opacity="0.07" d="M14.586 3C14.851 3 15.1055 3.1055 15.293 3.293L19.207 7.207C19.3945 7.3945 19.5 7.649 19.5 7.914V20.5C19.5 20.776 19.276 21 19 21H5C4.724 21 4.5 20.776 4.5 20.5V3.5C4.5 3.224 4.724 3 5 3H14.586ZM14.586 2.75H5C4.5865 2.75 4.25 3.0865 4.25 3.5V20.5C4.25 20.9135 4.5865 21.25 5 21.25H19C19.4135 21.25 19.75 20.9135 19.75 20.5V7.914C19.75 7.58 19.62 7.266 19.384 7.03L15.47 3.116C15.2335 2.88 14.9195 2.75 14.586 2.75Z" fill="black"/>
<path d="M5 3C4.724 3 4.5 3.224 4.5 3.5V20.5C4.5 20.776 4.724 21 5 21H19C19.276 21 19.5 20.776 19.5 20.5V7.914C19.5 7.649 19.3945 7.3945 19.207 7.207L15.293 3.293C15.1055 3.1055 14.851 3 14.586 3H5Z" fill="url(#paint1_linear_40_2655)"/>
<path d="M8.75 17H6.25C6.112 17 6 16.888 6 16.75V16.25C6 16.112 6.112 16 6.25 16H8.75C8.888 16 9 16.112 9 16.25V16.75C9 16.888 8.888 17 8.75 17Z" fill="#C0EDC0"/>
<path d="M12.75 17H10.25C10.112 17 10 16.888 10 16.75V16.25C10 16.112 10.112 16 10.25 16H12.75C12.888 16 13 16.112 13 16.25V16.75C13 16.888 12.888 17 12.75 17Z" fill="#C0EDC0"/>
<path d="M16.75 17H14.25C14.112 17 14 16.888 14 16.75V16.25C14 16.112 14.112 16 14.25 16H16.75C16.888 16 17 16.112 17 16.25V16.75C17 16.888 16.888 17 16.75 17Z" fill="#C0EDC0"/>
<path d="M8.75 15.5H6.25C6.112 15.5 6 15.388 6 15.25V14.75C6 14.612 6.112 14.5 6.25 14.5H8.75C8.888 14.5 9 14.612 9 14.75V15.25C9 15.388 8.888 15.5 8.75 15.5Z" fill="#C0EDC0"/>
<path d="M12.75 15.5H10.25C10.112 15.5 10 15.388 10 15.25V14.75C10 14.612 10.112 14.5 10.25 14.5H12.75C12.888 14.5 13 14.612 13 14.75V15.25C13 15.388 12.888 15.5 12.75 15.5Z" fill="#C0EDC0"/>
<path d="M16.75 15.5H14.25C14.112 15.5 14 15.388 14 15.25V14.75C14 14.612 14.112 14.5 14.25 14.5H16.75C16.888 14.5 17 14.612 17 14.75V15.25C17 15.388 16.888 15.5 16.75 15.5Z" fill="#C0EDC0"/>
<path d="M8.75 14H6.25C6.112 14 6 13.888 6 13.75V13.25C6 13.112 6.112 13 6.25 13H8.75C8.888 13 9 13.112 9 13.25V13.75C9 13.888 8.888 14 8.75 14Z" fill="#C0EDC0"/>
<path d="M12.75 14H10.25C10.112 14 10 13.888 10 13.75V13.25C10 13.112 10.112 13 10.25 13H12.75C12.888 13 13 13.112 13 13.25V13.75C13 13.888 12.888 14 12.75 14Z" fill="#C0EDC0"/>
<path d="M16.75 14H14.25C14.112 14 14 13.888 14 13.75V13.25C14 13.112 14.112 13 14.25 13H16.75C16.888 13 17 13.112 17 13.25V13.75C17 13.888 16.888 14 16.75 14Z" fill="#C0EDC0"/>
<path d="M8.75 12.5H6.25C6.112 12.5 6 12.388 6 12.25V11.75C6 11.612 6.112 11.5 6.25 11.5H8.75C8.888 11.5 9 11.612 9 11.75V12.25C9 12.388 8.888 12.5 8.75 12.5Z" fill="#9FDD9F"/>
<path d="M12.75 12.5H10.25C10.112 12.5 10 12.388 10 12.25V11.75C10 11.612 10.112 11.5 10.25 11.5H12.75C12.888 11.5 13 11.612 13 11.75V12.25C13 12.388 12.888 12.5 12.75 12.5Z" fill="#9FDD9F"/>
<path d="M16.75 12.5H14.25C14.112 12.5 14 12.388 14 12.25V11.75C14 11.612 14.112 11.5 14.25 11.5H16.75C16.888 11.5 17 11.612 17 11.75V12.25C17 12.388 16.888 12.5 16.75 12.5Z" fill="#9FDD9F"/>
<path d="M8.75 18.5H6.25C6.112 18.5 6 18.388 6 18.25V17.75C6 17.612 6.112 17.5 6.25 17.5H8.75C8.888 17.5 9 17.612 9 17.75V18.25C9 18.388 8.888 18.5 8.75 18.5Z" fill="#C0EDC0"/>
<path d="M12.75 18.5H10.25C10.112 18.5 10 18.388 10 18.25V17.75C10 17.612 10.112 17.5 10.25 17.5H12.75C12.888 17.5 13 17.612 13 17.75V18.25C13 18.388 12.888 18.5 12.75 18.5Z" fill="#C0EDC0"/>
<path d="M16.75 18.5H14.25C14.112 18.5 14 18.388 14 18.25V17.75C14 17.612 14.112 17.5 14.25 17.5H16.75C16.888 17.5 17 17.612 17 17.75V18.25C17 18.388 16.888 18.5 16.75 18.5Z" fill="#C0EDC0"/>
<path d="M13.5 19.5H12V16.2185C12 16.098 12.112 16 12.25 16H13.25C13.388 16 13.5 16.098 13.5 16.219V19.5Z" fill="url(#paint2_linear_40_2655)"/>
<path d="M14.9895 19.5H13.5105C13.5045 19.5 13.5 19.4955 13.5 19.4895V15.25C13.5 15.112 13.612 15 13.75 15H14.75C14.888 15 15 15.112 15 15.25V19.4895C15 19.4955 14.9955 19.5 14.9895 19.5Z" fill="url(#paint3_linear_40_2655)"/>
<path d="M16.5 19.5H15V17.7C15 17.5895 15.112 17.5 15.25 17.5H16.25C16.388 17.5 16.5 17.5895 16.5 17.7V19.5Z" fill="url(#paint4_linear_40_2655)"/>
<path d="M18 19.5H16.5V16.75C16.5 16.612 16.612 16.5 16.75 16.5H17.75C17.888 16.5 18 16.612 18 16.75V19.5Z" fill="url(#paint5_linear_40_2655)"/>
<defs>
<linearGradient id="paint0_linear_40_2655" x1="5.98965" y1="4.929" x2="19.9469" y2="16.7927" gradientUnits="userSpaceOnUse">
<stop stop-color="#21AD64"/>
<stop offset="1" stop-color="#088242"/>
</linearGradient>
<linearGradient id="paint1_linear_40_2655" x1="12" y1="9.1665" x2="12" y2="30.5015" gradientUnits="userSpaceOnUse">
<stop stop-color="#F9F9F9"/>
<stop offset="0.26" stop-color="#F0F1F2"/>
<stop offset="0.678" stop-color="#D9DCDF"/>
<stop offset="1" stop-color="#C2C8CC"/>
</linearGradient>
<linearGradient id="paint2_linear_40_2655" x1="12.75" y1="15.9815" x2="12.75" y2="20.1035" gradientUnits="userSpaceOnUse">
<stop stop-color="#2AA4F4"/>
<stop offset="1" stop-color="#007AD9"/>
</linearGradient>
<linearGradient id="paint3_linear_40_2655" x1="14.25" y1="15.479" x2="14.25" y2="20.19" gradientUnits="userSpaceOnUse">
<stop stop-color="#D43A02"/>
<stop offset="1" stop-color="#B9360C"/>
</linearGradient>
<linearGradient id="paint4_linear_40_2655" x1="15.75" y1="16.2835" x2="15.75" y2="20.052" gradientUnits="userSpaceOnUse">
<stop stop-color="#FFD747"/>
<stop offset="0.21" stop-color="#FFD645"/>
<stop offset="0.44" stop-color="#FED43E"/>
<stop offset="0.651" stop-color="#FCCF33"/>
<stop offset="0.766" stop-color="#FAC922"/>
<stop offset="0.897" stop-color="#F7C10C"/>
<stop offset="1" stop-color="#F5BC00"/>
</linearGradient>
<linearGradient id="paint5_linear_40_2655" x1="17.25" y1="15.479" x2="17.25" y2="20.19" gradientUnits="userSpaceOnUse">
<stop stop-color="#4CAF50"/>
<stop offset="0.489" stop-color="#4AAF50"/>
<stop offset="0.665" stop-color="#43AD50"/>
<stop offset="0.79" stop-color="#38AA50"/>
<stop offset="0.892" stop-color="#27A550"/>
<stop offset="0.978" stop-color="#11A050"/>
<stop offset="1" stop-color="#0A9E50"/>
</linearGradient>
</defs>
</svg>
