<svg width="24" height="24" viewBox="0 0 24 24" fill="none" xmlns="http://www.w3.org/2000/svg">
<path d="M19.3171 2.97562V19.5611C19.3164 19.8197 19.2133 20.0674 19.0305 20.2501C18.8478 20.433 18.6001 20.536 18.3415 20.5368H5.65848C5.39996 20.536 5.15225 20.433 4.96945 20.2501C4.78666 20.0674 4.68362 19.8197 4.68286 19.5611V2.97562C4.68282 2.84749 4.70804 2.72061 4.75706 2.60222C4.80607 2.48384 4.87794 2.37628 4.96853 2.28567C5.05914 2.19508 5.1667 2.12321 5.28508 2.0742C5.40347 2.02518 5.53035 1.99996 5.65848 2H18.3415C18.4696 1.99996 18.5966 2.02518 18.7149 2.0742C18.8333 2.12321 18.9408 2.19508 19.0315 2.28567C19.1221 2.37628 19.1939 2.48384 19.243 2.60222C19.292 2.72061 19.3171 2.84749 19.3171 2.97562Z" fill="url(#paint0_linear_40_2697)"/>
<path d="M16.3856 17.7319H13.4691L13.469 21.8542C13.469 21.88 13.4759 21.9054 13.4889 21.9276C13.5019 21.9499 13.5205 21.9683 13.5429 21.9811C13.5655 21.9938 13.5908 22.0003 13.6166 21.9999C13.6425 21.9996 13.6677 21.9925 13.6898 21.9791L14.9269 21.2685L16.1647 21.9792C16.1868 21.9925 16.212 21.9996 16.2379 22C16.2636 22.0003 16.289 21.9938 16.3116 21.9811C16.334 21.9684 16.3526 21.95 16.3656 21.9276C16.3786 21.9054 16.3855 21.88 16.3855 21.8543L16.3856 17.7319Z" fill="url(#paint1_radial_40_2697)"/>
<path opacity="0.05" d="M17.8537 16.6343C17.8546 16.5036 17.8213 16.3749 17.7571 16.2612C17.6929 16.1473 17.6002 16.0523 17.4879 15.9855L17.444 15.9611L17.4683 15.9172C17.5321 15.8027 17.565 15.6739 17.5642 15.5429C17.5632 15.412 17.5283 15.2835 17.463 15.17C17.3977 15.0566 17.3041 14.9619 17.1914 14.8954C17.0786 14.8289 16.9505 14.7927 16.8196 14.7903H16.7708V14.7416C16.7661 14.5434 16.6846 14.3548 16.5436 14.2155C16.4025 14.0763 16.2129 13.9973 16.0147 13.9952C15.8847 13.9951 15.757 14.0288 15.6439 14.0928L15.6 14.1172L15.5756 14.0733C15.5081 13.9615 15.4129 13.8693 15.2993 13.8052C15.1856 13.7411 15.0574 13.7074 14.9269 13.7074C14.7964 13.7074 14.6681 13.7411 14.5545 13.8052C14.4408 13.8693 14.3456 13.9615 14.2781 14.0733L14.2537 14.1172L14.2098 14.0928C14.0983 14.0294 13.9722 13.9958 13.8439 13.9952C13.6452 13.9972 13.4549 14.0759 13.3131 14.2151C13.1712 14.3542 13.0887 14.5429 13.0829 14.7416V14.7903H13.0342C12.9032 14.7927 12.7751 14.8289 12.6624 14.8954C12.5497 14.9619 12.456 15.0566 12.3907 15.17C12.3254 15.2835 12.2905 15.412 12.2897 15.5429C12.2887 15.6739 12.3217 15.8027 12.3854 15.9172L12.4098 15.9611L12.3659 15.9855C12.2543 16.053 12.1619 16.1482 12.0978 16.2619C12.0337 16.3755 12 16.5037 12 16.6343C12 16.7647 12.0337 16.893 12.0978 17.0066C12.1619 17.1203 12.2543 17.2155 12.3659 17.283L12.4098 17.3074L12.3854 17.3513C12.3237 17.4616 12.2907 17.5855 12.2893 17.7118C12.2879 17.8382 12.3182 17.9628 12.3774 18.0744C12.4366 18.186 12.5227 18.281 12.6281 18.3507C12.7335 18.4203 12.8546 18.4625 12.9805 18.4733V20.5367H13.4683V18.0928C13.4095 18.031 13.3291 17.9944 13.2439 17.9904H13.0439C12.9974 17.9896 12.9518 17.9768 12.9116 17.9533C12.8714 17.9298 12.838 17.8963 12.8145 17.8561C12.7909 17.8159 12.7782 17.7704 12.7774 17.7238C12.7765 17.6773 12.7877 17.6313 12.8098 17.5904L12.9073 17.4147C12.9486 17.3404 12.959 17.2528 12.9366 17.1708L12.9317 17.166C12.9227 17.1248 12.9056 17.086 12.8813 17.0516C12.857 17.0172 12.8261 16.9881 12.7903 16.966L12.6195 16.8635C12.5794 16.8401 12.5462 16.8066 12.523 16.7665C12.4999 16.7263 12.4878 16.6806 12.4878 16.6343C12.4878 16.5878 12.4999 16.5423 12.523 16.5021C12.5462 16.4618 12.5794 16.4283 12.6195 16.405L12.7903 16.3025C12.8261 16.2804 12.857 16.2512 12.8813 16.2169C12.9056 16.1825 12.9227 16.1436 12.9317 16.1025L12.9366 16.0977C12.959 16.0156 12.9486 15.9281 12.9073 15.8538L12.8146 15.6781C12.7916 15.6377 12.7794 15.5919 12.7795 15.5454C12.7795 15.4987 12.7917 15.453 12.8149 15.4126C12.8381 15.3722 12.8714 15.3385 12.9115 15.3149C12.9517 15.2913 12.9974 15.2786 13.0439 15.2781H13.2439C13.3286 15.2721 13.4083 15.2357 13.4683 15.1757C13.5284 15.1157 13.5647 15.036 13.5707 14.9513V14.7513C13.5704 14.7038 13.5827 14.6571 13.6064 14.616C13.6301 14.5748 13.6644 14.5409 13.7057 14.5175C13.747 14.494 13.7938 14.4821 13.8413 14.4829C13.8888 14.4838 13.9351 14.4973 13.9756 14.522L14.1464 14.6147C14.192 14.6417 14.2445 14.6553 14.2976 14.6537C14.3303 14.6529 14.363 14.6497 14.3951 14.644V14.6391C14.4363 14.6301 14.4751 14.613 14.5095 14.5887C14.5438 14.5644 14.573 14.5335 14.5951 14.4976L14.6976 14.3269C14.7215 14.2867 14.7554 14.2535 14.796 14.2304C14.8366 14.2073 14.8826 14.1952 14.9293 14.1952C14.976 14.1952 15.022 14.2073 15.0626 14.2304C15.1032 14.2535 15.1371 14.2867 15.161 14.3269L15.2634 14.4976C15.2846 14.5333 15.3128 14.5642 15.3464 14.5885C15.3799 14.6129 15.4182 14.63 15.4586 14.6391C15.4593 14.6391 15.4598 14.6392 15.4604 14.6394C15.461 14.6397 15.4616 14.6401 15.4621 14.6405C15.4625 14.641 15.4629 14.6415 15.4631 14.6421C15.4634 14.6427 15.4635 14.6433 15.4635 14.644C15.494 14.6497 15.525 14.6529 15.5561 14.6537C15.6092 14.6553 15.6616 14.6417 15.7074 14.6147L15.883 14.5172C15.9237 14.4962 15.9687 14.4845 16.0147 14.483C16.0854 14.4844 16.1528 14.5132 16.2028 14.5631C16.2528 14.6132 16.2815 14.6806 16.283 14.7513L16.2878 14.9513C16.2901 15.0359 16.325 15.1164 16.3854 15.1757C16.4448 15.2366 16.5248 15.2731 16.6098 15.2781H16.8098C16.8563 15.2789 16.9019 15.2917 16.9421 15.3152C16.9823 15.3387 17.0158 15.3722 17.0393 15.4124C17.0628 15.4525 17.0756 15.498 17.0763 15.5446C17.0772 15.5912 17.066 15.6372 17.044 15.6781L16.9464 15.8538C16.9256 15.8904 16.9126 15.9311 16.9084 15.9731C16.9042 16.0151 16.9088 16.0576 16.922 16.0977V16.1025C16.9438 16.1839 16.994 16.2548 17.0635 16.3025L17.2342 16.405C17.2743 16.4283 17.3076 16.4618 17.3307 16.5021C17.3537 16.5423 17.3659 16.5878 17.3659 16.6343C17.3659 16.6806 17.3537 16.7263 17.3307 16.7665C17.3076 16.8066 17.2743 16.8401 17.2342 16.8635L17.0635 16.966C17.0277 16.9881 16.9967 17.0172 16.9724 17.0516C16.9481 17.086 16.931 17.1248 16.922 17.166L16.9171 17.1708C16.8947 17.2528 16.9051 17.3404 16.9464 17.4147L17.044 17.5904C17.066 17.6313 17.0772 17.6773 17.0763 17.7238C17.0756 17.7704 17.0628 17.8159 17.0393 17.8561C17.0158 17.8963 16.9823 17.9298 16.9421 17.9533C16.9019 17.9768 16.8563 17.9896 16.8098 17.9904H16.6098C16.5246 17.9944 16.4442 18.031 16.3854 18.0928V20.5367H16.8732V18.4733C16.9991 18.4625 17.1202 18.4203 17.2256 18.3507C17.331 18.281 17.4171 18.186 17.4763 18.0744C17.5356 17.9628 17.5658 17.8382 17.5644 17.7118C17.563 17.5855 17.53 17.4616 17.4683 17.3513L17.444 17.3074L17.4879 17.283C17.6002 17.2162 17.6929 17.1212 17.7571 17.0073C17.8213 16.8936 17.8546 16.7649 17.8537 16.6343Z" fill="black"/>
<path opacity="0.07" d="M17.361 16.1952L17.1903 16.0928C17.1739 16.0787 17.162 16.06 17.1561 16.0391C17.15 16.0165 17.1518 15.9924 17.161 15.9709L17.2537 15.8001C17.2981 15.723 17.3214 15.6354 17.3214 15.5465C17.3214 15.4575 17.2981 15.37 17.2537 15.2928C17.2087 15.2157 17.1448 15.1515 17.068 15.1063C16.9911 15.061 16.9039 15.0362 16.8147 15.0343H16.6147C16.5937 15.0318 16.5745 15.0213 16.561 15.005C16.5525 14.9977 16.5455 14.9887 16.5405 14.9787C16.5355 14.9686 16.5325 14.9577 16.5318 14.9465L16.5269 14.7465C16.5263 14.6571 16.5023 14.5695 16.4572 14.4923C16.4121 14.4152 16.3477 14.3512 16.2702 14.3067C16.1926 14.2624 16.1048 14.239 16.0155 14.2391C15.9262 14.2392 15.8384 14.2628 15.761 14.3074L15.5903 14.405C15.5795 14.4094 15.5677 14.411 15.5561 14.4099C15.5461 14.4106 15.536 14.409 15.5269 14.405C15.5041 14.4004 15.4835 14.3884 15.4683 14.3708L15.3659 14.2001C15.3212 14.1235 15.257 14.0602 15.1799 14.0165C15.1028 13.9728 15.0154 13.9503 14.9269 13.9513C14.8384 13.9509 14.7512 13.9737 14.6743 14.0173C14.5972 14.0609 14.533 14.1239 14.4878 14.2001L14.3854 14.3708C14.3731 14.3871 14.356 14.399 14.3366 14.405H14.3269C14.3177 14.409 14.3076 14.4106 14.2976 14.4099C14.286 14.4106 14.2744 14.409 14.2634 14.405L14.0927 14.3074C14.0169 14.264 13.9313 14.2405 13.8439 14.2391C13.7088 14.2403 13.5794 14.2939 13.483 14.3885C13.3866 14.483 13.3306 14.6114 13.3268 14.7465V14.9465C13.3249 14.9651 13.3162 14.9825 13.3025 14.9952L13.2781 15.0147V15.0196C13.2664 15.0274 13.253 15.0324 13.239 15.0343H13.039C12.9504 15.0366 12.8638 15.0617 12.7877 15.1071C12.7115 15.1526 12.6484 15.2169 12.6043 15.2939C12.5602 15.3708 12.5367 15.4578 12.5359 15.5464C12.5351 15.635 12.5572 15.7225 12.6 15.8001L12.6976 15.9709C12.7038 15.9897 12.7055 16.0098 12.7024 16.0294L12.6976 16.0391C12.6917 16.06 12.6798 16.0787 12.6634 16.0928L12.4927 16.1952C12.4168 16.2407 12.3541 16.305 12.3104 16.382C12.2668 16.459 12.2439 16.5459 12.2439 16.6343C12.2439 16.7228 12.2668 16.8097 12.3104 16.8866C12.3541 16.9635 12.4168 17.0278 12.4927 17.0733L12.6634 17.1757C12.6798 17.1899 12.6917 17.2085 12.6976 17.2294C12.705 17.2516 12.705 17.2756 12.6976 17.2977L12.6 17.4684C12.5572 17.5461 12.5351 17.6335 12.5359 17.7222C12.5366 17.8108 12.5602 17.8978 12.6043 17.9748C12.6484 18.0517 12.7115 18.1159 12.7877 18.1614C12.8638 18.2069 12.9504 18.2319 13.039 18.2343H13.2244V20.5368H13.4683V18.0928C13.4095 18.0312 13.3291 17.9945 13.2439 17.9904H13.0439C12.9974 17.9896 12.9518 17.9768 12.9116 17.9533C12.8714 17.9298 12.838 17.8963 12.8144 17.8561C12.7909 17.816 12.7782 17.7705 12.7774 17.7238C12.7765 17.6773 12.7877 17.6314 12.8098 17.5904L12.9073 17.4148C12.9486 17.3404 12.959 17.2529 12.9366 17.1709L12.9317 17.166C12.9227 17.1249 12.9056 17.086 12.8813 17.0516C12.857 17.0173 12.8261 16.9881 12.7903 16.966L12.6195 16.8635C12.5794 16.8402 12.5462 16.8068 12.523 16.7665C12.4999 16.7263 12.4878 16.6807 12.4878 16.6343C12.4878 16.5878 12.4999 16.5423 12.523 16.5021C12.5462 16.4619 12.5794 16.4283 12.6195 16.405L12.7903 16.3026C12.8261 16.2804 12.857 16.2512 12.8813 16.2169C12.9056 16.1826 12.9227 16.1436 12.9317 16.1026L12.9366 16.0977C12.959 16.0157 12.9486 15.9281 12.9073 15.8538L12.8146 15.6782C12.7915 15.6377 12.7794 15.5919 12.7795 15.5454C12.7795 15.4988 12.7917 15.453 12.8149 15.4126C12.8381 15.3722 12.8714 15.3386 12.9115 15.3149C12.9517 15.2914 12.9974 15.2788 13.0439 15.2782H13.2439C13.3286 15.2721 13.4083 15.2358 13.4683 15.1757C13.5284 15.1157 13.5647 15.036 13.5707 14.9513V14.7513C13.5704 14.7038 13.5827 14.6572 13.6064 14.616C13.6301 14.5749 13.6644 14.5409 13.7057 14.5175C13.7469 14.4941 13.7938 14.4822 13.8413 14.4829C13.8887 14.4838 13.9351 14.4973 13.9756 14.5221L14.1464 14.6147C14.192 14.6418 14.2445 14.6553 14.2976 14.6538C14.3303 14.653 14.363 14.6497 14.3951 14.644V14.6391C14.4362 14.6302 14.4751 14.613 14.5095 14.5887C14.5438 14.5644 14.573 14.5335 14.5951 14.4977L14.6976 14.3269C14.7215 14.2868 14.7554 14.2536 14.796 14.2304C14.8366 14.2073 14.8826 14.1952 14.9293 14.1952C14.976 14.1952 15.022 14.2073 15.0626 14.2304C15.1032 14.2536 15.1371 14.2868 15.161 14.3269L15.2634 14.4977C15.2846 14.5333 15.3128 14.5642 15.3464 14.5886C15.3799 14.6129 15.4181 14.6301 15.4586 14.6391C15.4593 14.6391 15.4598 14.6392 15.4604 14.6395C15.461 14.6397 15.4616 14.6401 15.4621 14.6405C15.4625 14.641 15.4629 14.6416 15.4631 14.6422C15.4634 14.6427 15.4635 14.6433 15.4635 14.644C15.494 14.6497 15.525 14.653 15.5561 14.6538C15.6092 14.6553 15.6616 14.6418 15.7074 14.6147L15.883 14.5172C15.9237 14.4962 15.9687 14.4846 16.0147 14.483C16.0854 14.4844 16.1528 14.5132 16.2028 14.5631C16.2528 14.6132 16.2815 14.6806 16.283 14.7513L16.2878 14.9513C16.2901 15.0359 16.325 15.1164 16.3854 15.1757C16.4448 15.2366 16.5248 15.2731 16.6098 15.2782H16.8098C16.8563 15.2789 16.9019 15.2917 16.9421 15.3152C16.9823 15.3388 17.0158 15.3722 17.0393 15.4124C17.0628 15.4526 17.0756 15.4981 17.0763 15.5447C17.0772 15.5912 17.066 15.6372 17.044 15.6782L16.9464 15.8538C16.9255 15.8905 16.9126 15.9311 16.9084 15.9732C16.9042 16.0151 16.9088 16.0576 16.922 16.0977V16.1026C16.9438 16.1839 16.994 16.2549 17.0635 16.3026L17.2342 16.405C17.2743 16.4283 17.3076 16.4619 17.3306 16.5021C17.3537 16.5423 17.3659 16.5878 17.3659 16.6343C17.3659 16.6807 17.3537 16.7263 17.3306 16.7665C17.3076 16.8068 17.2743 16.8402 17.2342 16.8635L17.0635 16.966C17.0277 16.9881 16.9967 17.0173 16.9723 17.0516C16.948 17.086 16.931 17.1249 16.922 17.166L16.9171 17.1709C16.8946 17.2529 16.9051 17.3404 16.9464 17.4148L17.044 17.5904C17.066 17.6314 17.0772 17.6773 17.0763 17.7238C17.0756 17.7705 17.0628 17.816 17.0393 17.8561C17.0158 17.8963 16.9823 17.9298 16.9421 17.9533C16.9019 17.9768 16.8563 17.9896 16.8098 17.9904H16.6098C16.5246 17.9945 16.4442 18.0312 16.3854 18.0928V20.5368H16.6293V18.2343H16.8147C16.9033 18.2319 16.9899 18.2069 17.066 18.1614C17.1421 18.1159 17.2053 18.0517 17.2494 17.9748C17.2935 17.8978 17.317 17.8108 17.3178 17.7222C17.3186 17.6335 17.2964 17.5461 17.2537 17.4684L17.1561 17.2977C17.1487 17.2772 17.1487 17.2548 17.1561 17.2343C17.1606 17.2115 17.1726 17.1909 17.1903 17.1757L17.361 17.0733C17.4375 17.0286 17.5009 16.9644 17.5446 16.8874C17.5883 16.8103 17.6108 16.723 17.6098 16.6343C17.6102 16.5458 17.5875 16.4587 17.5439 16.3817C17.5002 16.3046 17.4372 16.2404 17.361 16.1952Z" fill="black"/>
<path d="M12.4878 5.41467H7.60972C7.34031 5.41467 7.12191 5.63307 7.12191 5.90248C7.12191 6.17189 7.34031 6.39029 7.60972 6.39029H12.4878C12.7572 6.39029 12.9756 6.17189 12.9756 5.90248C12.9756 5.63307 12.7572 5.41467 12.4878 5.41467Z" fill="#057093"/>
<path d="M14.4391 7.8537H7.60972C7.34031 7.8537 7.12191 8.0721 7.12191 8.34151C7.12191 8.61092 7.34031 8.82932 7.60972 8.82932H14.4391C14.7084 8.82932 14.9269 8.61092 14.9269 8.34151C14.9269 8.0721 14.7084 7.8537 14.4391 7.8537Z" fill="#057093"/>
<path d="M16.3903 10.2928H7.60972C7.34031 10.2928 7.12191 10.5112 7.12191 10.7806C7.12191 11.05 7.34031 11.2684 7.60972 11.2684H16.3903C16.6597 11.2684 16.8781 11.05 16.8781 10.7806C16.8781 10.5112 16.6597 10.2928 16.3903 10.2928Z" fill="#057093"/>
<path d="M16.3903 5.41467H14.439C14.1697 5.41467 13.9512 5.63307 13.9512 5.90248C13.9512 6.17189 14.1697 6.39029 14.439 6.39029H16.3903C16.6597 6.39029 16.8781 6.17189 16.8781 5.90248C16.8781 5.63307 16.6597 5.41467 16.3903 5.41467Z" fill="#057093"/>
<path d="M10.5366 12.7318H7.60972C7.34031 12.7318 7.12191 12.9503 7.12191 13.2196C7.12191 13.489 7.34031 13.7074 7.60972 13.7074H10.5366C10.8059 13.7074 11.0244 13.489 11.0244 13.2196C11.0244 12.9503 10.8059 12.7318 10.5366 12.7318Z" fill="#057093"/>
<path d="M17.2361 16.4035L17.0656 16.301C16.994 16.2564 16.9424 16.1858 16.9217 16.104L16.9205 16.0993C16.8966 16.0175 16.9058 15.9295 16.9461 15.8544L17.0428 15.6805C17.0653 15.6399 17.077 15.594 17.0766 15.5474C17.0762 15.5008 17.0639 15.4552 17.0405 15.4149C17.0173 15.3746 16.984 15.3409 16.9439 15.3173C16.9038 15.2937 16.8582 15.2809 16.8117 15.2801L16.611 15.2766C16.5262 15.2739 16.4459 15.2383 16.3871 15.1773L16.3851 15.1754C16.3239 15.1165 16.2882 15.0361 16.2856 14.9514L16.2823 14.7506C16.2815 14.704 16.2686 14.6585 16.245 14.6184C16.2214 14.5783 16.1878 14.545 16.1475 14.5217C16.1072 14.4985 16.0615 14.486 16.015 14.4856C15.9684 14.4852 15.9226 14.4969 15.8819 14.5195L15.708 14.6161C15.6329 14.6564 15.5449 14.6657 15.4631 14.6418L15.4585 14.6405C15.3766 14.6199 15.306 14.5683 15.2614 14.4966L15.159 14.3261C15.135 14.2862 15.1011 14.2532 15.0606 14.2303C15.02 14.2073 14.9744 14.1953 14.9277 14.1953C14.8812 14.1953 14.8354 14.2073 14.795 14.2303C14.7545 14.2532 14.7206 14.2862 14.6966 14.3261L14.5947 14.4959C14.5497 14.5681 14.4786 14.6201 14.3961 14.6411L14.3935 14.6418C14.311 14.666 14.2222 14.6567 14.1466 14.6158L13.9733 14.5197C13.9326 14.4972 13.8868 14.4855 13.8402 14.4859C13.7937 14.4863 13.748 14.4987 13.7076 14.522C13.6673 14.5452 13.6338 14.5786 13.6102 14.6187C13.5866 14.6588 13.5737 14.7043 13.5729 14.7509L13.5693 14.9514C13.5665 15.036 13.5308 15.1163 13.47 15.1753L13.468 15.1771C13.4092 15.2382 13.3289 15.2738 13.2441 15.2764L13.0434 15.2798C12.9969 15.2806 12.9513 15.2934 12.9111 15.317C12.871 15.3407 12.8378 15.3743 12.8144 15.4146C12.7912 15.4549 12.7787 15.5005 12.7784 15.5472C12.778 15.5937 12.7897 15.6396 12.8123 15.6802L12.909 15.8541C12.9493 15.9292 12.9585 16.0172 12.9345 16.0991L12.9331 16.1037C12.9124 16.1854 12.8608 16.2561 12.7891 16.3007L12.6186 16.4032C12.5787 16.4272 12.5457 16.461 12.5227 16.5015C12.4998 16.542 12.4878 16.5878 12.4878 16.6343C12.4878 16.6808 12.4998 16.7266 12.5227 16.7672C12.5457 16.8077 12.5787 16.8415 12.6186 16.8655L12.7891 16.968C12.8608 17.0125 12.9124 17.0832 12.9331 17.165L12.9343 17.1696C12.9582 17.2515 12.949 17.3394 12.9087 17.4145L12.812 17.5885C12.7894 17.6291 12.7778 17.675 12.7782 17.7215C12.7784 17.7681 12.7909 17.8137 12.8142 17.854C12.8375 17.8944 12.8707 17.928 12.9109 17.9516C12.951 17.9752 12.9966 17.9881 13.0431 17.9888L13.2438 17.9922C13.3286 17.9949 13.4089 18.0305 13.4677 18.0916L13.4697 18.0934C13.5307 18.1523 13.5663 18.2327 13.569 18.3173L13.5724 18.518C13.5732 18.5646 13.586 18.6101 13.6096 18.6502C13.6332 18.6903 13.6668 18.7237 13.7071 18.7469C13.7474 18.7702 13.7931 18.7826 13.8396 18.783C13.8862 18.7834 13.932 18.7718 13.9727 18.7491L14.1467 18.6526C14.2218 18.6122 14.3097 18.603 14.3915 18.6269L14.3961 18.6281C14.478 18.6488 14.5486 18.7004 14.5932 18.7721L14.6957 18.9425C14.7196 18.9824 14.7535 19.0155 14.7941 19.0384C14.8346 19.0613 14.8803 19.0733 14.9269 19.0733C14.9734 19.0733 15.0192 19.0613 15.0596 19.0384C15.1001 19.0155 15.1341 18.9824 15.158 18.9425L15.2604 18.7721C15.305 18.7004 15.3757 18.6488 15.4575 18.6281L15.4622 18.6269C15.544 18.603 15.6319 18.6122 15.7071 18.6526L15.8809 18.7491C15.9216 18.7718 15.9676 18.7835 16.0141 18.7831C16.0606 18.7827 16.1063 18.7702 16.1466 18.747C16.1869 18.7237 16.2205 18.6904 16.2441 18.6503C16.2678 18.6101 16.2805 18.5646 16.2813 18.518L16.2847 18.3173C16.2875 18.2327 16.3231 18.1523 16.384 18.0934L16.386 18.0916C16.4448 18.0305 16.5251 17.9949 16.6099 17.9922L16.8106 17.9888C16.8571 17.988 16.9027 17.9752 16.9428 17.9516C16.9829 17.928 17.0162 17.8943 17.0395 17.854C17.0628 17.8137 17.0752 17.7681 17.0756 17.7215C17.076 17.675 17.0642 17.6291 17.0417 17.5885L16.945 17.4145C16.9047 17.3394 16.8956 17.2515 16.9195 17.1696L16.9206 17.165C16.9413 17.0832 16.9929 17.0125 17.0645 16.968L17.2351 16.8654C17.2752 16.8417 17.3083 16.808 17.3315 16.7675C17.3545 16.7271 17.3667 16.6813 17.3669 16.6348C17.367 16.5882 17.355 16.5424 17.3321 16.5018C17.3091 16.4613 17.2761 16.4274 17.2361 16.4035Z" fill="url(#paint2_linear_40_2697)"/>
<defs>
<linearGradient id="paint0_linear_40_2697" x1="9.29685" y1="2.2846" x2="19.5887" y2="17.9505" gradientUnits="userSpaceOnUse">
<stop stop-color="#7DD8F3"/>
<stop offset="1" stop-color="#45B0D0"/>
</linearGradient>
<radialGradient id="paint1_radial_40_2697" cx="0" cy="0" r="1" gradientUnits="userSpaceOnUse" gradientTransform="translate(14.9191 15.7694) scale(4.16443)">
<stop offset="0.655" stop-color="#871233"/>
<stop offset="0.718" stop-color="#8E1336"/>
<stop offset="0.812" stop-color="#A3163E"/>
<stop offset="0.9" stop-color="#BC1948"/>
</radialGradient>
<linearGradient id="paint2_linear_40_2697" x1="13.6873" y1="14.4787" x2="16.1576" y2="18.7729" gradientUnits="userSpaceOnUse">
<stop stop-color="#FFDA1C"/>
<stop offset="1" stop-color="#FEB705"/>
</linearGradient>
</defs>
</svg>
