<svg width="24" height="24" viewBox="0 0 24 24" fill="none" xmlns="http://www.w3.org/2000/svg">
<path d="M20.8889 2H3.11111C2.49722 2 2 2.49722 2 3.11111V20.8889C2 21.5028 2.49722 22 3.11111 22H20.8889C21.5028 22 22 21.5028 22 20.8889V3.11111C22 2.49722 21.5028 2 20.8889 2Z" fill="url(#paint0_linear_40_2742)"/>
<path opacity="0.05" d="M9.985 16.6978C9.68834 16.6978 9.40889 16.5822 9.19945 16.3716L7.62834 14.8005C7.41834 14.5911 7.30278 14.3122 7.30278 14.015C7.30278 13.7183 7.41834 13.4394 7.62834 13.2294L14.7783 6.07831L13.525 4.82497C13.2361 4.53664 13.1506 4.10719 13.3067 3.73053C13.4661 3.34831 13.8217 3.11108 14.235 3.11108H19.435C20.2367 3.11108 20.8889 3.76331 20.8889 4.56442V9.76497C20.8889 10.3194 20.4372 10.77 19.8817 10.77C19.6156 10.77 19.365 10.6655 19.175 10.475L17.9217 9.22164L10.7711 16.3716C10.5611 16.5816 10.2822 16.6978 9.985 16.6978Z" fill="black"/>
<path opacity="0.07" d="M9.98501 16.42C9.76279 16.42 9.55334 16.3333 9.39557 16.1755L7.82445 14.6044C7.66723 14.4472 7.58057 14.2377 7.58057 14.0155C7.58057 13.7933 7.66723 13.5839 7.82445 13.4261L15.1711 6.07885L13.7217 4.6294C13.5128 4.42107 13.4511 4.10996 13.5639 3.83774C13.6789 3.56107 13.9361 3.3894 14.2356 3.3894H19.4356C20.0839 3.3894 20.6111 3.91663 20.6111 4.56496V9.76552C20.6111 10.1666 20.2839 10.4927 19.8817 10.4927C19.69 10.4927 19.5089 10.4166 19.3711 10.2789L17.9217 8.8294L10.5745 16.1755C10.4172 16.3327 10.2078 16.42 9.98501 16.42Z" fill="black"/>
<path d="M13.9178 4.4328L15.5639 6.07891L8.0211 13.6222C7.80388 13.8395 7.80388 14.1911 8.0211 14.4078L9.59221 15.9789C9.80944 16.1961 10.1611 16.1961 10.3778 15.9789L17.9211 8.43613L19.5672 10.0822C19.85 10.365 20.3333 10.165 20.3333 9.76502V4.56446C20.3333 4.06835 19.9317 3.66669 19.4355 3.66669H14.235C13.835 3.66669 13.635 4.15002 13.9178 4.4328Z" fill="#0D62AB"/>
<defs>
<linearGradient id="paint0_linear_40_2742" x1="8.30571" y1="2.30706" x2="18.1954" y2="21.3752" gradientUnits="userSpaceOnUse">
<stop stop-color="#7DD8F3"/>
<stop offset="1" stop-color="#45B0D0"/>
</linearGradient>
</defs>
</svg>
