<svg width="24" height="24" viewBox="0 0 24 24" fill="none" xmlns="http://www.w3.org/2000/svg">
<path d="M20.913 19.8261H3.08696C2.48652 19.8261 2 19.3395 2 18.7391V5.26085C2 4.66041 2.48652 4.17389 3.08696 4.17389H8.12913C8.78957 4.17389 9.41391 4.47389 9.82652 4.98998L10.913 6.3478H20.913C21.5135 6.3478 22 6.83432 22 7.43476V18.7391C22 19.3395 21.5135 19.8261 20.913 19.8261Z" fill="url(#paint0_linear_40_2735)"/>
<path d="M2 18.4673V18.7391C2 19.3395 2.48652 19.826 3.08696 19.826H20.913C21.5135 19.826 22 19.3395 22 18.7391V18.4673H2Z" fill="url(#paint1_linear_40_2735)"/>
<path d="M20.913 6.78259H10.913L10.3752 7.14085C9.87565 7.47433 9.28826 7.65216 8.68739 7.65216H3.08696C2.48652 7.65216 2 8.13868 2 8.73911V18.3043C2 18.9048 2.48652 19.3913 3.08696 19.3913H20.913C21.5135 19.3913 22 18.9048 22 18.3043V7.86955C22 7.26911 21.5135 6.78259 20.913 6.78259Z" fill="url(#paint2_linear_40_2735)"/>
<path d="M20.913 19.3913H3.08696C2.48652 19.3913 2 18.9047 2 18.3043V9.17387C2 8.57343 2.48652 8.08691 3.08696 8.08691H8.85043C9.4513 8.08691 10.0387 7.90909 10.5387 7.57561L11.0761 7.21735H20.913C21.5135 7.21735 22 7.70387 22 8.3043V18.3043C22 18.9047 21.5135 19.3913 20.913 19.3913Z" fill="url(#paint3_radial_40_2735)"/>
<path d="M10.6957 16.3478H9.82609C8.14783 16.3478 6.78261 14.9826 6.78261 13.3043C6.78261 11.6261 8.14783 10.2609 9.82609 10.2609H10.6957C10.9357 10.2609 11.1304 10.4556 11.1304 10.6956C11.1304 10.9356 10.9357 11.1304 10.6957 11.1304H9.82609C8.62739 11.1304 7.65217 12.1056 7.65217 13.3043C7.65217 14.503 8.62739 15.4783 9.82609 15.4783H10.6957C10.9357 15.4783 11.1304 15.673 11.1304 15.913C11.1304 16.153 10.9357 16.3478 10.6957 16.3478ZM17.2174 13.3043C17.2174 11.6261 15.8522 10.2609 14.1739 10.2609H13.3043C13.0643 10.2609 12.8696 10.4556 12.8696 10.6956C12.8696 10.9356 13.0643 11.1304 13.3043 11.1304H14.1739C15.3726 11.1304 16.3478 12.1056 16.3478 13.3043C16.3478 14.503 15.3726 15.4783 14.1739 15.4783H13.3043C13.0643 15.4783 12.8696 15.673 12.8696 15.913C12.8696 16.153 13.0643 16.3478 13.3043 16.3478H14.1739C15.8522 16.3478 17.2174 14.9826 17.2174 13.3043ZM14.6087 13.3043C14.6087 13.0643 14.4139 12.8696 14.1739 12.8696H9.82609C9.58609 12.8696 9.3913 13.0643 9.3913 13.3043C9.3913 13.5443 9.58609 13.7391 9.82609 13.7391H14.1739C14.4139 13.7391 14.6087 13.5443 14.6087 13.3043Z" fill="url(#paint4_linear_40_2735)"/>
<defs>
<linearGradient id="paint0_linear_40_2735" x1="-1.48609" y1="6.04693" x2="18.69" y2="16.5795" gradientUnits="userSpaceOnUse">
<stop stop-color="#FAC017"/>
<stop offset="0.909" stop-color="#E1AB2D"/>
</linearGradient>
<linearGradient id="paint1_linear_40_2735" x1="8.89783" y1="19.0813" x2="21.1152" y2="19.3008" gradientUnits="userSpaceOnUse">
<stop stop-color="#E3A917"/>
<stop offset="0.464" stop-color="#D79C1E"/>
</linearGradient>
<linearGradient id="paint2_linear_40_2735" x1="-0.556087" y1="7.54955" x2="17.2035" y2="15.3817" gradientUnits="userSpaceOnUse">
<stop offset="0.34" stop-color="#FFEFB2"/>
<stop offset="0.485" stop-color="#FFEDAD"/>
<stop offset="0.652" stop-color="#FFE99F"/>
<stop offset="0.828" stop-color="#FEE289"/>
<stop offset="1" stop-color="#FED86B"/>
</linearGradient>
<radialGradient id="paint3_radial_40_2735" cx="0" cy="0" r="1" gradientUnits="userSpaceOnUse" gradientTransform="translate(18.0157 23.4421) scale(23.4239)">
<stop offset="0.199" stop-color="#FEC832"/>
<stop offset="0.601" stop-color="#FCD667"/>
<stop offset="0.68" stop-color="#FDDA75"/>
<stop offset="0.886" stop-color="#FEE496"/>
<stop offset="1" stop-color="#FFE8A2"/>
</radialGradient>
<linearGradient id="paint4_linear_40_2735" x1="9.93522" y1="9.72782" x2="14.0648" y2="16.8809" gradientUnits="userSpaceOnUse">
<stop stop-color="#C78902"/>
<stop offset="1" stop-color="#986700"/>
</linearGradient>
</defs>
</svg>
