<svg width="24" height="24" viewBox="0 0 24 24" fill="none" xmlns="http://www.w3.org/2000/svg">
<path d="M20.9474 17.5263H3.05263C2.47105 17.5263 2 17.0553 2 16.4737V3.84212C2 3.26054 2.47105 2.78949 3.05263 2.78949H20.9474C21.5289 2.78949 22 3.26054 22 3.84212V16.4737C22 17.0553 21.5289 17.5263 20.9474 17.5263Z" fill="url(#paint0_linear_40_2748)"/>
<path d="M20.9474 3.8421H3.05263V16.4737H20.9474V3.8421Z" fill="url(#paint1_radial_40_2748)"/>
<path d="M14.1053 17.5263H9.89473V19.6316H14.1053V17.5263Z" fill="url(#paint2_linear_40_2748)"/>
<path d="M16.7368 19.1053H7.26316C6.97264 19.1053 6.73685 19.3411 6.73685 19.6316V20.6842C6.73685 20.9748 6.97264 21.2105 7.26316 21.2105H16.7368C17.0274 21.2105 17.2632 20.9748 17.2632 20.6842V19.6316C17.2632 19.3411 17.0274 19.1053 16.7368 19.1053Z" fill="url(#paint3_linear_40_2748)"/>
<path opacity="0.05" d="M13.579 6.47369C12.8611 6.47369 12.3379 6.83211 12 7.17843C11.6621 6.83211 11.139 6.47369 10.4211 6.47369C9.26001 6.47369 8.3158 7.4179 8.3158 8.57896V12.2632C8.3158 13.1337 9.02422 13.8421 9.89474 13.8421H14.1053C14.9758 13.8421 15.6842 13.1337 15.6842 12.2632V8.57896C15.6842 7.4179 14.74 6.47369 13.579 6.47369Z" fill="black"/>
<path opacity="0.07" d="M13.5789 6.73688C12.7984 6.73688 12.2763 7.22214 12 7.5753C11.7237 7.22214 11.2016 6.73688 10.4211 6.73688C9.40526 6.73688 8.57895 7.56319 8.57895 8.57898V12.2632C8.57895 12.989 9.16948 13.579 9.89474 13.579H14.1053C14.8305 13.579 15.4211 12.989 15.4211 12.2632V8.57898C15.4211 7.56319 14.5947 6.73688 13.5789 6.73688Z" fill="black"/>
<path d="M13.5789 7C12.5263 7 12 8.05263 12 8.05263C12 8.05263 11.4737 7 10.421 7C9.54894 7 8.8421 7.70684 8.8421 8.57895V12.2632C8.8421 12.8447 9.31315 13.3158 9.89473 13.3158H14.1053C14.6868 13.3158 15.1579 12.8447 15.1579 12.2632V8.57895C15.1579 7.70684 14.451 7 13.5789 7ZM10.421 10.1579C10.1305 10.1579 9.89473 9.92211 9.89473 9.63158C9.89473 9.34105 10.1305 9.10526 10.421 9.10526C10.7116 9.10526 10.9474 9.34105 10.9474 9.63158C10.9474 9.92211 10.7116 10.1579 10.421 10.1579ZM13.0584 11.4079L12.3468 12.1195C12.1553 12.3111 11.8447 12.3111 11.6532 12.1195L10.9416 11.4079C10.8684 11.3347 10.92 11.2105 11.0232 11.2105H12.9768C13.08 11.2105 13.1316 11.3347 13.0584 11.4079ZM13.5789 10.1579C13.2884 10.1579 13.0526 9.92211 13.0526 9.63158C13.0526 9.34105 13.2884 9.10526 13.5789 9.10526C13.8695 9.10526 14.1053 9.34105 14.1053 9.63158C14.1053 9.92211 13.8695 10.1579 13.5789 10.1579Z" fill="white"/>
<defs>
<linearGradient id="paint0_linear_40_2748" x1="3.92789" y1="3.34686" x2="19.4326" y2="16.429" gradientUnits="userSpaceOnUse">
<stop stop-color="#A1AAB3"/>
<stop offset="1" stop-color="#8F979E"/>
</linearGradient>
<radialGradient id="paint1_radial_40_2748" cx="0" cy="0" r="1" gradientUnits="userSpaceOnUse" gradientTransform="translate(24.1488 30.1235) scale(36.7449 32.6279)">
<stop offset="0.323" stop-color="#23D9D6"/>
<stop offset="0.427" stop-color="#23D4D7"/>
<stop offset="0.542" stop-color="#21C7DC"/>
<stop offset="0.664" stop-color="#1FB0E2"/>
<stop offset="0.789" stop-color="#1C91EC"/>
<stop offset="0.917" stop-color="#1969F8"/>
<stop offset="0.944" stop-color="#1860FB"/>
</radialGradient>
<linearGradient id="paint2_linear_40_2748" x1="12" y1="17.5221" x2="12" y2="19.6358" gradientUnits="userSpaceOnUse">
<stop stop-color="#484B4F"/>
<stop offset="0.23" stop-color="#656D75"/>
<stop offset="0.367" stop-color="#727D86"/>
</linearGradient>
<linearGradient id="paint3_linear_40_2748" x1="12" y1="19.1011" x2="12" y2="21.2148" gradientUnits="userSpaceOnUse">
<stop stop-color="#A1AAB3"/>
<stop offset="1" stop-color="#8F979E"/>
</linearGradient>
</defs>
</svg>
