<svg width="24" height="24" viewBox="0 0 24 24" fill="none" xmlns="http://www.w3.org/2000/svg">
<path d="M12 3.36365C7.23046 3.36365 3.36364 7.23047 3.36364 12C3.36364 16.7696 7.23046 20.6364 12 20.6364C16.7695 20.6364 20.6364 16.7696 20.6364 12C20.6364 7.23047 16.7695 3.36365 12 3.36365ZM12 18.8182C8.23455 18.8182 5.18182 15.7655 5.18182 12C5.18182 8.23456 8.23455 5.18183 12 5.18183C15.7655 5.18183 18.8182 8.23456 18.8182 12C18.8182 15.7655 15.7655 18.8182 12 18.8182Z" fill="url(#paint0_linear_40_2788)"/>
<path d="M12.4545 6.54545H11.5455C11.2945 6.54545 11.0909 6.34182 11.0909 6.09091V2.45455C11.0909 2.20364 11.2945 2 11.5455 2H12.4545C12.7055 2 12.9091 2.20364 12.9091 2.45455V6.09091C12.9091 6.34182 12.7055 6.54545 12.4545 6.54545Z" fill="url(#paint1_linear_40_2788)"/>
<path d="M12.4545 22H11.5455C11.2945 22 11.0909 21.7963 11.0909 21.5454V17.9091C11.0909 17.6582 11.2945 17.4545 11.5455 17.4545H12.4545C12.7055 17.4545 12.9091 17.6582 12.9091 17.9091V21.5454C12.9091 21.7963 12.7055 22 12.4545 22Z" fill="url(#paint2_linear_40_2788)"/>
<path d="M17.4545 12.4545V11.5454C17.4545 11.2945 17.6582 11.0909 17.9091 11.0909H21.5455C21.7964 11.0909 22 11.2945 22 11.5454V12.4545C22 12.7054 21.7964 12.9091 21.5455 12.9091H17.9091C17.6582 12.9091 17.4545 12.7054 17.4545 12.4545Z" fill="url(#paint3_linear_40_2788)"/>
<path d="M2 12.4545V11.5454C2 11.2945 2.20364 11.0909 2.45455 11.0909H6.09091C6.34182 11.0909 6.54545 11.2945 6.54545 11.5454V12.4545C6.54545 12.7054 6.34182 12.9091 6.09091 12.9091H2.45455C2.20364 12.9091 2 12.7054 2 12.4545Z" fill="url(#paint4_linear_40_2788)"/>
<path d="M13.025 12L15.0755 9.94957C15.2173 9.8082 15.2173 9.57866 15.0755 9.43684L14.5627 8.92411C14.4214 8.78229 14.1914 8.78229 14.05 8.92411L12 10.975L9.94954 8.92457C9.80818 8.78275 9.57864 8.78275 9.43682 8.92457L8.92409 9.43729C8.78227 9.57866 8.78227 9.8082 8.92409 9.95002L10.975 12L8.92454 14.0505C8.78273 14.1918 8.78273 14.4214 8.92454 14.5632L9.43727 15.0759C9.57864 15.2177 9.80818 15.2177 9.95 15.0759L12 13.025L14.0505 15.0755C14.1918 15.2173 14.4214 15.2173 14.5632 15.0755L15.0759 14.5627C15.2177 14.4214 15.2177 14.1914 15.0759 14.05L13.025 12Z" fill="url(#paint5_linear_40_2788)"/>
<defs>
<linearGradient id="paint0_linear_40_2788" x1="7.19027" y1="0.790478" x2="18.8987" y2="17.9783" gradientUnits="userSpaceOnUse">
<stop stop-color="#FCFCFC"/>
<stop offset="0.95" stop-color="#C3C9CD"/>
</linearGradient>
<linearGradient id="paint1_linear_40_2788" x1="11.7552" y1="2.19814" x2="13.6435" y2="6.3519" gradientUnits="userSpaceOnUse">
<stop stop-color="#32BDEF"/>
<stop offset="1" stop-color="#1EA2E4"/>
</linearGradient>
<linearGradient id="paint2_linear_40_2788" x1="11.7552" y1="17.6527" x2="13.6435" y2="21.8064" gradientUnits="userSpaceOnUse">
<stop stop-color="#32BDEF"/>
<stop offset="1" stop-color="#1EA2E4"/>
</linearGradient>
<linearGradient id="paint3_linear_40_2788" x1="19.1153" y1="11.1702" x2="19.2603" y2="13.1645" gradientUnits="userSpaceOnUse">
<stop stop-color="#32BDEF"/>
<stop offset="1" stop-color="#1EA2E4"/>
</linearGradient>
<linearGradient id="paint4_linear_40_2788" x1="3.66068" y1="11.1702" x2="3.80575" y2="13.1645" gradientUnits="userSpaceOnUse">
<stop stop-color="#32BDEF"/>
<stop offset="1" stop-color="#1EA2E4"/>
</linearGradient>
<linearGradient id="paint5_linear_40_2788" x1="10.3309" y1="8.85911" x2="13.2709" y2="14.3909" gradientUnits="userSpaceOnUse">
<stop stop-color="#F44F5A"/>
<stop offset="0.443" stop-color="#EE3D4A"/>
<stop offset="1" stop-color="#E52030"/>
</linearGradient>
</defs>
</svg>
