<svg width="24" height="24" viewBox="0 0 24 24" fill="none" xmlns="http://www.w3.org/2000/svg">
<path d="M17.3701 2H4.37012C3.81762 2 3.37012 2.4475 3.37012 3V21C3.37012 21.5525 3.81762 22 4.37012 22H17.3701C17.9226 22 18.3701 21.5525 18.3701 21V3C18.3701 2.4475 17.9226 2 17.3701 2Z" fill="url(#paint0_linear_40_2796)"/>
<path opacity="0.05" d="M18.3701 8.42951L17.0771 7.13651C16.4471 6.50651 15.3701 6.95301 15.3701 7.84401V9.50001H9.37012C8.81762 9.50001 8.37012 9.94751 8.37012 10.5V13.5C8.37012 14.0525 8.81762 14.5 9.37012 14.5H15.3701V16.156C15.3701 17.047 16.4471 17.493 17.0771 16.863L18.3701 15.5705V8.42951Z" fill="black"/>
<path opacity="0.07" d="M18.3701 8.92946L17.0686 7.62796C16.6261 7.18546 15.8701 7.49896 15.8701 8.12446V9.99996H9.62012C9.20612 9.99996 8.87012 10.336 8.87012 10.75V13.25C8.87012 13.664 9.20612 14 9.62012 14H15.8701V15.8755C15.8701 16.501 16.6261 16.814 17.0686 16.372L18.3701 15.0705V8.92946Z" fill="black"/>
<path d="M16.3701 8.40501V10.5H9.87012C9.59412 10.5 9.37012 10.724 9.37012 11V13C9.37012 13.276 9.59412 13.5 9.87012 13.5H16.3701V15.595C16.3701 15.955 16.8051 16.135 17.0596 15.8805L20.4101 12.53C20.7031 12.237 20.7031 11.762 20.4101 11.4695L17.0596 8.11901C16.8051 7.86451 16.3701 8.04501 16.3701 8.40501Z" fill="url(#paint1_linear_40_2796)"/>
<defs>
<linearGradient id="paint0_linear_40_2796" x1="3.96162" y1="2.4395" x2="17.2986" y2="20.896" gradientUnits="userSpaceOnUse">
<stop stop-color="#2AA4F4"/>
<stop offset="1" stop-color="#007AD9"/>
</linearGradient>
<linearGradient id="paint1_linear_40_2796" x1="12.9201" y1="8.12276" x2="16.0603" y2="16.6444" gradientUnits="userSpaceOnUse">
<stop stop-color="#7DD8F3"/>
<stop offset="1" stop-color="#45B0D0"/>
</linearGradient>
</defs>
</svg>
