<svg width="24" height="24" viewBox="0 0 24 24" fill="none" xmlns="http://www.w3.org/2000/svg">
<path d="M11.638 3.5884L2.2425 18.2647C1.59441 19.2767 2.32136 20.6051 3.52327 20.6051H20.4769C21.6788 20.6051 22.4058 19.2758 21.7572 18.2638L12.3518 3.5884C12.185 3.32781 11.8048 3.32826 11.638 3.5884Z" fill="url(#paint0_linear_40_2802)"/>
<path d="M12.6205 4.01213L12.3763 3.63053C12.2099 3.37039 11.7798 3.37039 11.6131 3.63053L11.3688 4.01213C11.2337 4.22288 11.2954 4.50296 11.5061 4.63802C11.6597 4.73636 11.8501 4.73092 11.9947 4.63847C12.0681 4.6856 12.1533 4.70962 12.2394 4.70962C12.3232 4.70962 12.4075 4.68651 12.4832 4.63802C12.694 4.50296 12.7556 4.22288 12.6205 4.01213Z" fill="url(#paint1_linear_40_2802)"/>
<path d="M7.4186 11.4734C7.56816 11.4734 7.71409 11.3995 7.80066 11.2644L8.28196 10.513C8.41702 10.3023 8.35538 10.0217 8.14464 9.88713C7.93299 9.75117 7.65336 9.81371 7.51876 10.0245L7.03745 10.7759C6.90239 10.9866 6.96403 11.2672 7.17477 11.4018C7.25046 11.4503 7.33521 11.4734 7.4186 11.4734Z" fill="url(#paint2_linear_40_2802)"/>
<path d="M6.70071 12.1418C6.48951 12.0054 6.20943 12.0684 6.07483 12.2791L5.59352 13.0305C5.45846 13.2413 5.5201 13.5218 5.73084 13.6564C5.80653 13.7049 5.89128 13.728 5.97467 13.728C6.12423 13.728 6.27016 13.6541 6.35672 13.5191L6.83803 12.7677C6.97309 12.5569 6.91145 12.2764 6.70071 12.1418Z" fill="url(#paint3_linear_40_2802)"/>
<path d="M5.73992 19.7004H4.84755C4.59693 19.7004 4.39434 19.903 4.39434 20.1536C4.39434 20.4043 4.59693 20.6069 4.84755 20.6069H5.73992C5.99055 20.6069 6.19313 20.4043 6.19313 20.1536C6.19313 19.903 5.99055 19.7004 5.73992 19.7004Z" fill="url(#paint4_linear_40_2802)"/>
<path d="M8.41702 19.7004H7.52465C7.27403 19.7004 7.07144 19.903 7.07144 20.1536C7.07144 20.4043 7.27403 20.6069 7.52465 20.6069H8.41702C8.66765 20.6069 8.87023 20.4043 8.87023 20.1536C8.87023 19.903 8.66765 19.7004 8.41702 19.7004Z" fill="url(#paint5_linear_40_2802)"/>
<path d="M3.81376 16.6508C3.60302 16.5153 3.32249 16.5765 3.18788 16.7882L2.70612 17.5396C2.57106 17.7503 2.63225 18.0304 2.84344 18.1655C2.91913 18.2139 3.00388 18.2371 3.08727 18.2371C3.23638 18.2371 3.38276 18.1636 3.46933 18.0281L3.95109 17.2767C4.08614 17.066 4.02496 16.7859 3.81376 16.6508Z" fill="url(#paint6_linear_40_2802)"/>
<path d="M13.3094 6.76811C13.3955 6.90316 13.5419 6.97704 13.6915 6.97704C13.7753 6.97704 13.8596 6.95392 13.9353 6.90543C14.146 6.77083 14.2077 6.49029 14.0726 6.27955L13.5913 5.52813C13.4567 5.31784 13.1766 5.25484 12.9654 5.39081C12.7547 5.52541 12.6931 5.80594 12.8281 6.01669L13.3094 6.76811Z" fill="url(#paint7_linear_40_2802)"/>
<path d="M3.27128 19.642C3.11538 19.569 2.99573 19.4299 2.94225 19.2604C2.86702 19.022 2.61322 18.8896 2.37347 18.9644C2.13509 19.0397 2.00229 19.2944 2.07753 19.5332C2.20669 19.9429 2.50128 20.2815 2.88515 20.4627C2.94769 20.4917 3.01295 20.5058 3.07776 20.5058C3.24817 20.5058 3.41087 20.4097 3.48837 20.2457C3.59487 20.0186 3.49789 19.7485 3.27128 19.642Z" fill="url(#paint8_linear_40_2802)"/>
<path d="M4.91326 15.7739L5.39457 15.0224C5.52963 14.8117 5.46799 14.5312 5.25725 14.3966C5.04605 14.2601 4.76597 14.3231 4.63137 14.5339L4.15006 15.2853C4.015 15.496 4.07664 15.7766 4.28738 15.9112C4.36307 15.9597 4.44782 15.9828 4.53121 15.9828C4.68076 15.9828 4.82715 15.9089 4.91326 15.7739Z" fill="url(#paint9_linear_40_2802)"/>
<path d="M9.58811 7.63239C9.37647 7.49597 9.09684 7.55897 8.96223 7.76971L8.48092 8.52113C8.34587 8.73188 8.4075 9.01241 8.61825 9.14702C8.69392 9.19551 8.77868 9.21862 8.86207 9.21862C9.01163 9.21862 9.15757 9.14475 9.24413 9.00969L9.72544 8.25827C9.86049 8.04753 9.79886 7.76699 9.58811 7.63239Z" fill="url(#paint10_linear_40_2802)"/>
<path d="M10.0622 6.89232C10.1379 6.94081 10.2226 6.96392 10.306 6.96392C10.4556 6.96392 10.6015 6.89005 10.6881 6.75499L11.1694 6.00357C11.3044 5.79283 11.2428 5.51229 11.032 5.37769C10.8208 5.24127 10.5408 5.30427 10.4062 5.51501L9.92486 6.26643C9.79025 6.47718 9.85143 6.75771 10.0622 6.89232Z" fill="url(#paint11_linear_40_2802)"/>
<path d="M19.1259 19.7004H18.2335C17.9829 19.7004 17.7803 19.903 17.7803 20.1536C17.7803 20.4043 17.9829 20.6069 18.2335 20.6069H19.1259C19.3765 20.6069 19.5791 20.4043 19.5791 20.1536C19.5791 19.903 19.3765 19.7004 19.1259 19.7004Z" fill="url(#paint12_linear_40_2802)"/>
<path d="M19.3661 14.5466C19.2315 14.3363 18.9514 14.2733 18.7402 14.4092C18.5295 14.5438 18.4678 14.8244 18.6029 15.0351L19.0842 15.7865C19.1703 15.9216 19.3167 15.9955 19.4663 15.9955C19.5501 15.9955 19.6344 15.9724 19.7101 15.9239C19.9208 15.7893 19.9825 15.5087 19.8474 15.298L19.3661 14.5466Z" fill="url(#paint13_linear_40_2802)"/>
<path d="M11.0946 19.7004H10.2022C9.9516 19.7004 9.74901 19.903 9.74901 20.1536C9.74901 20.4043 9.9516 20.6069 10.2022 20.6069H11.0946C11.3452 20.6069 11.5478 20.4043 11.5478 20.1536C11.5478 19.903 11.3448 19.7004 11.0946 19.7004Z" fill="url(#paint14_linear_40_2802)"/>
<path d="M18.2666 13.6692C18.4774 13.5341 18.539 13.254 18.4039 13.0433L17.9222 12.2914C17.7871 12.0802 17.5066 12.0181 17.2963 12.1541C17.0856 12.2891 17.0239 12.5692 17.159 12.78L17.6407 13.5318C17.7268 13.6669 17.8737 13.7408 18.0228 13.7408C18.1062 13.7412 18.1909 13.7181 18.2666 13.6692Z" fill="url(#paint15_linear_40_2802)"/>
<path d="M20.9097 18.2501C20.9936 18.2501 21.0779 18.227 21.1536 18.1785C21.3643 18.0439 21.4259 17.7634 21.2909 17.5527L20.8096 16.8012C20.675 16.5905 20.3953 16.5284 20.1837 16.6639C19.973 16.7985 19.9113 17.079 20.0464 17.2898L20.5277 18.0412C20.6142 18.1763 20.7602 18.2501 20.9097 18.2501Z" fill="url(#paint16_linear_40_2802)"/>
<path d="M21.6176 18.9808C21.3811 18.9028 21.1236 19.0306 21.0443 19.2681C20.9881 19.4372 20.8662 19.575 20.7099 19.6457C20.4819 19.7494 20.3808 20.0173 20.4842 20.2457C20.5603 20.4129 20.7248 20.5117 20.8975 20.5117C20.96 20.5117 21.0235 20.499 21.0842 20.4714C21.4704 20.2965 21.769 19.962 21.905 19.5541C21.9838 19.3162 21.8556 19.0601 21.6176 18.9808Z" fill="url(#paint17_linear_40_2802)"/>
<path d="M15.3792 9.1597C15.59 9.0251 15.6516 8.74456 15.5165 8.53382L15.0352 7.7824C14.9006 7.57211 14.6201 7.50912 14.4094 7.64508C14.1986 7.77968 14.137 8.06022 14.272 8.27096L14.7533 9.02238C14.8394 9.15744 14.9858 9.23131 15.1354 9.23131C15.2188 9.23131 15.3035 9.20865 15.3792 9.1597Z" fill="url(#paint18_linear_40_2802)"/>
<path d="M13.7717 19.7004H12.8793C12.6287 19.7004 12.4261 19.903 12.4261 20.1536C12.4261 20.4043 12.6287 20.6069 12.8793 20.6069H13.7717C14.0223 20.6069 14.2249 20.4043 14.2249 20.1536C14.2249 19.903 14.0223 19.7004 13.7717 19.7004Z" fill="url(#paint19_linear_40_2802)"/>
<path d="M16.4488 19.7004H15.5564C15.3058 19.7004 15.1032 19.903 15.1032 20.1536C15.1032 20.4043 15.3058 20.6069 15.5564 20.6069H16.4488C16.6994 20.6069 16.902 20.4043 16.902 20.1536C16.902 19.903 16.6994 19.7004 16.4488 19.7004Z" fill="url(#paint20_linear_40_2802)"/>
<path d="M16.4787 10.0372C16.3437 9.82553 16.0631 9.76434 15.8528 9.89985C15.6416 10.0349 15.5804 10.315 15.7155 10.5257L16.1973 11.2771C16.2834 11.4127 16.4302 11.4861 16.5793 11.4861C16.6632 11.4861 16.7475 11.463 16.8231 11.4145C17.0343 11.2794 17.0955 10.9993 16.9605 10.7886L16.4787 10.0372Z" fill="url(#paint21_linear_40_2802)"/>
<path d="M12.001 18.3775C11.6692 18.3775 11.3955 18.2769 11.1798 18.0757C10.9641 17.8745 10.8562 17.6311 10.8562 17.3447C10.8562 17.046 10.965 16.8013 11.183 16.6105C11.4005 16.4197 11.6733 16.3245 12.001 16.3245C12.3327 16.3245 12.6047 16.421 12.8159 16.6137C13.0275 16.8067 13.1331 17.0501 13.1331 17.3447C13.1331 17.6433 13.0284 17.8899 12.819 18.0848C12.6097 18.2796 12.3368 18.3775 12.001 18.3775ZM13.008 9.64012L12.79 15.1579C12.7832 15.3265 12.6446 15.4598 12.476 15.4598H11.4884C11.3194 15.4598 11.1807 15.3261 11.1743 15.157L10.9681 9.63966C10.9613 9.46155 11.1041 9.31335 11.2822 9.31335H12.6944C12.8725 9.31335 13.0153 9.46155 13.008 9.64012Z" fill="url(#paint22_radial_40_2802)"/>
<defs>
<linearGradient id="paint0_linear_40_2802" x1="2" y1="11.9991" x2="22" y2="11.9991" gradientUnits="userSpaceOnUse">
<stop stop-color="#FFD869"/>
<stop offset="0.765625" stop-color="#F2C032"/>
<stop offset="1" stop-color="#FFD869"/>
</linearGradient>
<linearGradient id="paint1_linear_40_2802" x1="7.73403" y1="-2.46332" x2="22.9696" y2="21.5663" gradientUnits="userSpaceOnUse">
<stop stop-color="#FED100"/>
<stop offset="1" stop-color="#E36001"/>
</linearGradient>
<linearGradient id="paint2_linear_40_2802" x1="1.75348" y1="1.32828" x2="16.989" y2="25.3583" gradientUnits="userSpaceOnUse">
<stop stop-color="#FED100"/>
<stop offset="1" stop-color="#E36001"/>
</linearGradient>
<linearGradient id="paint3_linear_40_2802" x1="-0.29639" y1="2.62802" x2="14.9392" y2="26.6576" gradientUnits="userSpaceOnUse">
<stop stop-color="#FED100"/>
<stop offset="1" stop-color="#E36001"/>
</linearGradient>
<linearGradient id="paint4_linear_40_2802" x1="-4.23476" y1="5.12523" x2="11.0008" y2="29.1548" gradientUnits="userSpaceOnUse">
<stop stop-color="#FED100"/>
<stop offset="1" stop-color="#E36001"/>
</linearGradient>
<linearGradient id="paint5_linear_40_2802" x1="-2.32495" y1="3.91425" x2="12.9106" y2="27.9439" gradientUnits="userSpaceOnUse">
<stop stop-color="#FED100"/>
<stop offset="1" stop-color="#E36001"/>
</linearGradient>
<linearGradient id="paint6_linear_40_2802" x1="-4.39475" y1="5.22634" x2="10.8408" y2="29.2564" gradientUnits="userSpaceOnUse">
<stop stop-color="#FED100"/>
<stop offset="1" stop-color="#E36001"/>
</linearGradient>
<linearGradient id="paint7_linear_40_2802" x1="7.91713" y1="-2.57933" x2="23.1527" y2="21.4503" gradientUnits="userSpaceOnUse">
<stop stop-color="#FED100"/>
<stop offset="1" stop-color="#E36001"/>
</linearGradient>
<linearGradient id="paint8_linear_40_2802" x1="-5.83913" y1="6.14222" x2="9.39641" y2="30.1718" gradientUnits="userSpaceOnUse">
<stop stop-color="#FED100"/>
<stop offset="1" stop-color="#E36001"/>
</linearGradient>
<linearGradient id="paint9_linear_40_2802" x1="-2.34534" y1="3.9274" x2="12.8902" y2="27.957" gradientUnits="userSpaceOnUse">
<stop stop-color="#FED100"/>
<stop offset="1" stop-color="#E36001"/>
</linearGradient>
<linearGradient id="paint10_linear_40_2802" x1="3.80243" y1="0.0293531" x2="19.038" y2="24.059" gradientUnits="userSpaceOnUse">
<stop stop-color="#FED100"/>
<stop offset="1" stop-color="#E36001"/>
</linearGradient>
<linearGradient id="paint11_linear_40_2802" x1="5.85186" y1="-1.26998" x2="21.0874" y2="22.7596" gradientUnits="userSpaceOnUse">
<stop stop-color="#FED100"/>
<stop offset="1" stop-color="#E36001"/>
</linearGradient>
<linearGradient id="paint12_linear_40_2802" x1="5.31343" y1="-0.92874" x2="20.5485" y2="23.1013" gradientUnits="userSpaceOnUse">
<stop stop-color="#FED100"/>
<stop offset="1" stop-color="#E36001"/>
</linearGradient>
<linearGradient id="paint13_linear_40_2802" x1="7.95748" y1="-2.60513" x2="23.193" y2="21.4249" gradientUnits="userSpaceOnUse">
<stop stop-color="#FED100"/>
<stop offset="1" stop-color="#E36001"/>
</linearGradient>
<linearGradient id="paint14_linear_40_2802" x1="-0.415568" y1="2.70373" x2="14.82" y2="26.7333" gradientUnits="userSpaceOnUse">
<stop stop-color="#FED100"/>
<stop offset="1" stop-color="#E36001"/>
</linearGradient>
<linearGradient id="paint15_linear_40_2802" x1="7.94751" y1="-2.59877" x2="23.183" y2="21.4308" gradientUnits="userSpaceOnUse">
<stop stop-color="#FED100"/>
<stop offset="1" stop-color="#E36001"/>
</linearGradient>
<linearGradient id="paint16_linear_40_2802" x1="7.96742" y1="-2.61155" x2="23.203" y2="21.4181" gradientUnits="userSpaceOnUse">
<stop stop-color="#FED100"/>
<stop offset="1" stop-color="#E36001"/>
</linearGradient>
<linearGradient id="paint17_linear_40_2802" x1="7.29032" y1="-2.18179" x2="22.5259" y2="21.8478" gradientUnits="userSpaceOnUse">
<stop stop-color="#FED100"/>
<stop offset="1" stop-color="#E36001"/>
</linearGradient>
<linearGradient id="paint18_linear_40_2802" x1="7.9271" y1="-2.58612" x2="23.1626" y2="21.444" gradientUnits="userSpaceOnUse">
<stop stop-color="#FED100"/>
<stop offset="1" stop-color="#E36001"/>
</linearGradient>
<linearGradient id="paint19_linear_40_2802" x1="1.49425" y1="1.49276" x2="16.7298" y2="25.5228" gradientUnits="userSpaceOnUse">
<stop stop-color="#FED100"/>
<stop offset="1" stop-color="#E36001"/>
</linearGradient>
<linearGradient id="paint20_linear_40_2802" x1="3.40362" y1="0.282235" x2="18.6392" y2="24.3118" gradientUnits="userSpaceOnUse">
<stop stop-color="#FED100"/>
<stop offset="1" stop-color="#E36001"/>
</linearGradient>
<linearGradient id="paint21_linear_40_2802" x1="7.93707" y1="-2.59242" x2="23.1726" y2="21.4376" gradientUnits="userSpaceOnUse">
<stop stop-color="#FED100"/>
<stop offset="1" stop-color="#E36001"/>
</linearGradient>
<radialGradient id="paint22_radial_40_2802" cx="0" cy="0" r="1" gradientUnits="userSpaceOnUse" gradientTransform="translate(9.36106 9.2141) scale(10.1351 10.1351)">
<stop stop-color="#4B4B4B"/>
<stop offset="0.531" stop-color="#393939"/>
<stop offset="1" stop-color="#252525"/>
</radialGradient>
</defs>
</svg>
