<svg width="24" height="24" viewBox="0 0 24 24" fill="none" xmlns="http://www.w3.org/2000/svg">
<path d="M22 15.9222H2V9.13382C2 8.77276 2.18526 8.43645 2.49053 8.24382L11.1568 2.77013C11.6721 2.44487 12.3279 2.44487 12.8432 2.77013L21.5095 8.24382C21.8147 8.43697 22 8.77276 22 9.13382V15.9222Z" fill="url(#paint0_linear_40_2827)"/>
<path d="M19.8947 17.7896H4.10526V8.84223C4.10526 8.55171 4.34105 8.31592 4.63158 8.31592H19.3684C19.6589 8.31592 19.8947 8.55171 19.8947 8.84223V17.7896Z" fill="url(#paint1_linear_40_2827)"/>
<path d="M22 9.36853V20.5559C22 21.0627 21.5821 21.4738 21.0663 21.4738H4.4L6.92789 18.1438L22 9.36853Z" fill="url(#paint2_linear_40_2827)"/>
<path d="M2 9.36853V20.5559C2 21.0627 2.41789 21.4738 2.93368 21.4738H21.0668C21.3616 21.4738 21.6211 21.337 21.7921 21.1275L2 9.36853Z" fill="url(#paint3_linear_40_2827)"/>
<defs>
<linearGradient id="paint0_linear_40_2827" x1="9.32684" y1="3.42908" x2="12.6016" y2="14.4817" gradientUnits="userSpaceOnUse">
<stop stop-color="#0078D3"/>
<stop offset="1" stop-color="#0858A1"/>
</linearGradient>
<linearGradient id="paint1_linear_40_2827" x1="12" y1="8.52329" x2="12" y2="15.4128" gradientUnits="userSpaceOnUse">
<stop stop-color="white"/>
<stop offset="0.24" stop-color="#F8F8F7"/>
<stop offset="1" stop-color="#E3E3E1"/>
</linearGradient>
<linearGradient id="paint2_linear_40_2827" x1="12.9926" y1="15.1243" x2="19.3668" y2="24.247" gradientUnits="userSpaceOnUse">
<stop stop-color="#3CCBF4"/>
<stop offset="1" stop-color="#1FA0E5"/>
</linearGradient>
<linearGradient id="paint3_linear_40_2827" x1="0.986316" y1="14.7559" x2="20.4011" y2="24.1712" gradientUnits="userSpaceOnUse">
<stop stop-color="#28AFEA"/>
<stop offset="1" stop-color="#0B88DA"/>
</linearGradient>
</defs>
</svg>
