<svg width="24" height="24" viewBox="0 0 24 24" fill="none" xmlns="http://www.w3.org/2000/svg">
<path d="M12 4.63158C11.7095 4.63158 11.4737 4.39579 11.4737 4.10526V2.52632C11.4737 2.23579 11.7095 2 12 2C12.2905 2 12.5263 2.23579 12.5263 2.52632V4.10526C12.5263 4.39579 12.2905 4.63158 12 4.63158Z" fill="#16538C"/>
<path d="M15.4211 22C15.0958 22 14.7916 21.7974 14.6768 21.4737L12 13.9068L9.32316 21.4737C9.17789 21.8847 8.72526 22.0995 8.31579 21.9547C7.90474 21.8095 7.68947 21.3584 7.83474 20.9474L11.2558 11.2763C11.3674 10.9605 11.6653 10.75 12 10.75C12.3347 10.75 12.6326 10.9605 12.7442 11.2763L16.1653 20.9474C16.3105 21.3584 16.0953 21.8095 15.6842 21.9547C15.5974 21.9858 15.5084 22 15.4211 22Z" fill="#16538C"/>
<path d="M21.4737 3.05261H2.52632C2.23579 3.05261 2 3.28945 2 3.58103V17.7868C2 18.0789 2.23579 18.3158 2.52632 18.3158H21.4737C21.7642 18.3158 22 18.0789 22 17.7873V3.58103C22 3.28945 21.7642 3.05261 21.4737 3.05261Z" fill="url(#paint0_linear_40_2893)"/>
<path d="M18.3158 15.6842H5.68421C5.39369 15.6842 5.1579 15.4484 5.1579 15.1579C5.1579 14.8674 5.39369 14.6316 5.68421 14.6316H18.3158C18.6063 14.6316 18.8421 14.8674 18.8421 15.1579C18.8421 15.4484 18.6063 15.6842 18.3158 15.6842Z" fill="white"/>
<path d="M8.8421 9.89471H6.73684C6.44632 9.89471 6.21053 10.1305 6.21053 10.421V13.0526C6.21053 13.3431 6.44632 13.5789 6.73684 13.5789H8.8421C9.13263 13.5789 9.36842 13.3431 9.36842 13.0526V10.421C9.36842 10.1305 9.13263 9.89471 8.8421 9.89471Z" fill="url(#paint1_linear_40_2893)"/>
<path d="M17.2632 5.6842H15.1579C14.8674 5.6842 14.6316 5.91999 14.6316 6.21052V13.0526C14.6316 13.3432 14.8674 13.5789 15.1579 13.5789H17.2632C17.5537 13.5789 17.7895 13.3432 17.7895 13.0526V6.21052C17.7895 5.91999 17.5537 5.6842 17.2632 5.6842Z" fill="url(#paint2_linear_40_2893)"/>
<path d="M13.0526 7.78949H10.9474C10.6568 7.78949 10.4211 8.02528 10.4211 8.31581V13.0526C10.4211 13.3432 10.6568 13.579 10.9474 13.579H13.0526C13.3432 13.579 13.5789 13.3432 13.5789 13.0526V8.31581C13.5789 8.02528 13.3432 7.78949 13.0526 7.78949Z" fill="url(#paint3_linear_40_2893)"/>
<defs>
<linearGradient id="paint0_linear_40_2893" x1="7.13" y1="1.52524" x2="17.35" y2="20.7463" gradientUnits="userSpaceOnUse">
<stop stop-color="#0077D2"/>
<stop offset="1" stop-color="#0B59A2"/>
</linearGradient>
<linearGradient id="paint1_linear_40_2893" x1="6.91013" y1="9.34586" x2="9.5245" y2="12.6355" gradientUnits="userSpaceOnUse">
<stop stop-color="#FCFCFC"/>
<stop offset="0.95" stop-color="#C3C9CD"/>
</linearGradient>
<linearGradient id="paint2_linear_40_2893" x1="15.6273" y1="5.80541" x2="20.2463" y2="9.36779" gradientUnits="userSpaceOnUse">
<stop stop-color="#7DD8F3"/>
<stop offset="1" stop-color="#45B0D0"/>
</linearGradient>
<linearGradient id="paint3_linear_40_2893" x1="11.5748" y1="8.04186" x2="13.4903" y2="13.7873" gradientUnits="userSpaceOnUse">
<stop stop-color="#32BDEF"/>
<stop offset="1" stop-color="#1EA2E4"/>
</linearGradient>
</defs>
</svg>
