<svg width="24" height="24" viewBox="0 0 24 24" fill="none" xmlns="http://www.w3.org/2000/svg">
<path d="M18.25 13.3637H9.84091C9.58955 13.3637 9.38636 13.16 9.38636 12.9091C9.38636 12.6582 9.58955 12.4546 9.84091 12.4546H18.25C18.5014 12.4546 18.7045 12.6582 18.7045 12.9091C18.7045 13.16 18.5014 13.3637 18.25 13.3637Z" fill="url(#paint0_linear_40_2902)"/>
<path d="M7.45455 17.4545C7.20318 17.4545 7 17.2509 7 17V9.27272C7 9.02181 7.20318 8.81818 7.45455 8.81818C7.70591 8.81818 7.90909 9.02181 7.90909 9.27272V17C7.90909 17.2509 7.70591 17.4545 7.45455 17.4545Z" fill="url(#paint1_linear_40_2902)"/>
<path d="M20.6364 17.4545C20.385 17.4545 20.1818 17.2509 20.1818 17V9.27272C20.1818 9.02181 20.385 8.81818 20.6364 8.81818C20.8877 8.81818 21.0909 9.02181 21.0909 9.27272V17C21.0909 17.2509 20.8877 17.4545 20.6364 17.4545Z" fill="url(#paint2_linear_40_2902)"/>
<path d="M20.6364 15.6364C20.5227 15.6364 20.4086 15.5941 20.3209 15.5087L14.0455 9.45003L7.77 15.5087C7.59 15.6832 7.30227 15.6782 7.12727 15.4978C6.95318 15.3173 6.95818 15.0291 7.13864 14.855L13.7295 8.49139C13.9055 8.32139 14.185 8.32139 14.3609 8.49139L20.9518 14.855C21.1323 15.0291 21.1373 15.3173 20.9632 15.4978C20.8741 15.59 20.7555 15.6364 20.6364 15.6364Z" fill="url(#paint3_linear_40_2902)"/>
<path d="M4.72727 6.54547H3.36364C2.61045 6.54547 2 7.15593 2 7.90911V9.27274C2 9.52365 2.20364 9.72729 2.45455 9.72729H5.63636C5.88727 9.72729 6.09091 9.52365 6.09091 9.27274V7.90911C6.09091 7.15593 5.48045 6.54547 4.72727 6.54547Z" fill="url(#paint4_linear_40_2902)"/>
<path d="M20.6364 6.54547H7.45454C6.70136 6.54547 6.09091 7.15593 6.09091 7.90911V9.27274C6.09091 9.52365 6.29454 9.72729 6.54545 9.72729H21.5455C21.7964 9.72729 22 9.52365 22 9.27274V7.90911C22 7.15593 21.3895 6.54547 20.6364 6.54547Z" fill="url(#paint5_linear_40_2902)"/>
<path opacity="0.05" d="M15.8773 9.95457L15.6409 9.72729H14.3318L14.5682 9.95457L14.8045 10.1818H16.1136L15.8773 9.95457ZM12.2136 9.95457L11.9773 10.1818H13.2864L13.5227 9.95457L13.7591 9.72729H12.45L12.2136 9.95457ZM20.1818 9.72729V10.1818H21.0909V9.72729H20.1818ZM7 9.72729V10.1818H7.90909V9.72729H7Z" fill="black"/>
<path opacity="0.07" d="M15.6409 9.72729H14.3318L14.5682 9.95457H15.8773L15.6409 9.72729ZM12.2136 9.95457H13.5227L13.7591 9.72729H12.45L12.2136 9.95457ZM20.1818 9.72729V9.95457H21.0909V9.72729H20.1818ZM7 9.72729V9.95457H7.90909V9.72729H7Z" fill="black"/>
<defs>
<linearGradient id="paint0_linear_40_2902" x1="14.0455" y1="8.02277" x2="14.0455" y2="17.0332" gradientUnits="userSpaceOnUse">
<stop stop-color="#DFE9F2"/>
<stop offset="0.391" stop-color="#D6E0E9"/>
<stop offset="1" stop-color="#BFC8D1"/>
</linearGradient>
<linearGradient id="paint1_linear_40_2902" x1="7.45455" y1="8.02272" x2="7.45455" y2="17.0332" gradientUnits="userSpaceOnUse">
<stop stop-color="#DFE9F2"/>
<stop offset="0.391" stop-color="#D6E0E9"/>
<stop offset="1" stop-color="#BFC8D1"/>
</linearGradient>
<linearGradient id="paint2_linear_40_2902" x1="20.6364" y1="8.02272" x2="20.6364" y2="17.0332" gradientUnits="userSpaceOnUse">
<stop stop-color="#DFE9F2"/>
<stop offset="0.391" stop-color="#D6E0E9"/>
<stop offset="1" stop-color="#BFC8D1"/>
</linearGradient>
<linearGradient id="paint3_linear_40_2902" x1="14.0455" y1="8.02276" x2="14.0455" y2="17.0332" gradientUnits="userSpaceOnUse">
<stop stop-color="#DFE9F2"/>
<stop offset="0.391" stop-color="#D6E0E9"/>
<stop offset="1" stop-color="#BFC8D1"/>
</linearGradient>
<linearGradient id="paint4_linear_40_2902" x1="4.04545" y1="4.48047" x2="4.04545" y2="11.6591" gradientUnits="userSpaceOnUse">
<stop stop-color="#C26715"/>
<stop offset="0.346" stop-color="#BE6015"/>
<stop offset="0.686" stop-color="#B54E16"/>
<stop offset="0.979" stop-color="#AD3F16"/>
</linearGradient>
<linearGradient id="paint5_linear_40_2902" x1="14.0455" y1="4.48047" x2="14.0455" y2="11.6591" gradientUnits="userSpaceOnUse">
<stop stop-color="#C26715"/>
<stop offset="0.346" stop-color="#BE6015"/>
<stop offset="0.686" stop-color="#B54E16"/>
<stop offset="0.979" stop-color="#AD3F16"/>
</linearGradient>
</defs>
</svg>
