<svg width="24" height="24" viewBox="0 0 24 24" fill="none" xmlns="http://www.w3.org/2000/svg">
<path d="M12 15.1133C7.46821 15.1133 3.79487 17.6369 3.79487 20.3882V20.9744C3.79487 21.541 4.25385 22 4.82051 22H19.1795C19.7462 22 20.2051 21.541 20.2051 20.9744V20.3882C20.2051 17.6369 16.5318 15.1133 12 15.1133Z" fill="url(#paint0_linear_40_2929)"/>
<path d="M12 20.8215C12 20.8215 15.0769 18.5128 15.0769 16.0513C15.0769 15.8959 15.0769 15.7143 15.0769 15.522C14.1262 15.2625 13.0892 15.1138 12 15.1138C10.9108 15.1138 9.87385 15.2625 8.92308 15.522C8.92308 15.7143 8.92308 15.8959 8.92308 16.0513C8.92308 18.5128 12 20.8215 12 20.8215Z" fill="#75DAFF"/>
<path d="M14.5641 15.8462C14.5641 17.8974 12 19.9487 12 19.9487C12 19.9487 9.4359 17.8974 9.4359 15.8462C9.4359 14.4939 9.4359 11.2128 9.4359 11.2128H14.5641C14.5641 11.2128 14.5641 14.4939 14.5641 15.8462Z" fill="#D6A121"/>
<path d="M16.5723 8.66669H16.3021V10.718H16.6626C16.9267 10.718 17.1518 10.558 17.1964 10.3385L17.3728 9.46515C17.4574 9.04771 17.0754 8.66669 16.5723 8.66669Z" fill="url(#paint1_linear_40_2929)"/>
<path d="M7.42769 8.66669H7.69795V10.718H7.33744C7.07333 10.718 6.84821 10.558 6.80359 10.3385L6.62718 9.46515C6.54257 9.04771 6.92462 8.66669 7.42769 8.66669Z" fill="url(#paint2_linear_40_2929)"/>
<path d="M12 2.71796C9.72257 2.71796 7.38462 3.06411 7.38462 7.98719C7.38462 8.38103 7.38462 11.001 7.38462 11.422C7.38462 13.1795 10.1538 15.3333 12 15.3333C13.8462 15.3333 16.6154 13.1795 16.6154 11.422C16.6154 11.001 16.6154 8.38155 16.6154 7.98719C16.6154 3.06411 14.2774 2.71796 12 2.71796Z" fill="url(#paint3_radial_40_2929)"/>
<path d="M6.8718 7.641C6.8718 8.4892 7.00769 8.60305 7.38462 10.7179L8.41026 6.61536H15.5897C15.5897 6.61536 16.6154 10.1887 16.6154 10.7179C16.9236 9.17433 17.1282 8.38202 17.1282 7.641H6.8718Z" fill="url(#paint4_radial_40_2929)"/>
<path d="M17.1282 7.64103C17.1282 7.64103 14.5641 7.64103 12 7.64103C9.4359 7.64103 6.8718 7.64103 6.8718 7.64103C6.8718 5.58974 7.38462 3.02564 7.38462 3.02564C7.38462 3.02564 8.47487 2 12 2C15.5256 2 16.6154 3.02564 16.6154 3.02564C16.6154 3.02564 17.1282 5.58974 17.1282 7.64103Z" fill="url(#paint5_linear_40_2929)"/>
<path d="M11.4872 3.53845H12.5128V6.61538H11.4872V3.53845Z" fill="#E52030"/>
<path d="M10.4615 4.56409H13.5385V5.58973H10.4615V4.56409Z" fill="#E52030"/>
<defs>
<linearGradient id="paint0_linear_40_2929" x1="9.79539" y1="10.6446" x2="12.078" y2="20.9164" gradientUnits="userSpaceOnUse">
<stop stop-color="#75DAFF"/>
<stop offset="1" stop-color="#1EA2E4"/>
</linearGradient>
<linearGradient id="paint1_linear_40_2929" x1="16.5728" y1="9.69233" x2="17.2569" y2="9.69233" gradientUnits="userSpaceOnUse">
<stop stop-color="#C48F0C"/>
<stop offset="0.251" stop-color="#D19B16"/>
<stop offset="0.619" stop-color="#DCA51F"/>
<stop offset="1" stop-color="#E0A922"/>
</linearGradient>
<linearGradient id="paint2_linear_40_2929" x1="7.42718" y1="9.69233" x2="6.74308" y2="9.69233" gradientUnits="userSpaceOnUse">
<stop stop-color="#C48F0C"/>
<stop offset="0.251" stop-color="#D19B16"/>
<stop offset="0.619" stop-color="#DCA51F"/>
<stop offset="1" stop-color="#E0A922"/>
</linearGradient>
<radialGradient id="paint3_radial_40_2929" cx="0" cy="0" r="1" gradientUnits="userSpaceOnUse" gradientTransform="translate(11.9997 9.02518) scale(5.5265)">
<stop stop-color="#FFCF54"/>
<stop offset="0.261" stop-color="#FDCB4D"/>
<stop offset="0.639" stop-color="#F7C13A"/>
<stop offset="1" stop-color="#F0B421"/>
</radialGradient>
<radialGradient id="paint4_radial_40_2929" cx="0" cy="0" r="1" gradientUnits="userSpaceOnUse" gradientTransform="translate(7.61339 6.93236) scale(11.4242)">
<stop stop-color="#C26715"/>
<stop offset="0.508" stop-color="#B85515"/>
<stop offset="1" stop-color="#AD3F16"/>
</radialGradient>
<linearGradient id="paint5_linear_40_2929" x1="10.9072" y1="1.66359" x2="15.4646" y2="21.6528" gradientUnits="userSpaceOnUse">
<stop stop-color="#75DAFF"/>
<stop offset="1" stop-color="#1EA2E4"/>
</linearGradient>
</defs>
</svg>
