<svg width="24" height="24" viewBox="0 0 24 24" fill="none" xmlns="http://www.w3.org/2000/svg">
<path d="M12 6.76192C13.052 6.76192 13.9048 5.90913 13.9048 4.85715C13.9048 3.80518 13.052 2.95239 12 2.95239C10.948 2.95239 10.0952 3.80518 10.0952 4.85715C10.0952 5.90913 10.948 6.76192 12 6.76192Z" fill="url(#paint0_linear_40_2946)"/>
<path d="M20.0952 7.71431C21.1472 7.71431 22 6.86152 22 5.80955C22 4.75758 21.1472 3.90479 20.0952 3.90479C19.0432 3.90479 18.1905 4.75758 18.1905 5.80955C18.1905 6.86152 19.0432 7.71431 20.0952 7.71431Z" fill="url(#paint1_linear_40_2946)"/>
<path d="M15.3333 13.1905H8.66667V11.5238C8.66667 9.68287 10.1591 8.19049 12 8.19049C13.841 8.19049 15.3333 9.68287 15.3333 11.5238V13.1905Z" fill="url(#paint2_linear_40_2946)"/>
<path d="M20.0952 9.14288C19.0433 9.14288 18.1905 9.99574 18.1905 11.0476V14.8481L15.6291 15.3515C15.1895 15.4357 14.8571 15.8215 14.8571 16.2857V20.3334C14.8571 20.7276 15.1771 21.0476 15.5714 21.0476C15.9657 21.0476 16.2481 20.7191 16.2948 20.3334C16.3124 20.1872 16.6714 17.2381 16.6714 17.2381H20.0952C21.1471 17.2381 22 16.3853 22 15.3334V11.0476C22 9.99574 21.1471 9.14288 20.0952 9.14288Z" fill="url(#paint3_linear_40_2946)"/>
<path d="M3.90476 7.71431C4.95673 7.71431 5.80952 6.86152 5.80952 5.80955C5.80952 4.75758 4.95673 3.90479 3.90476 3.90479C2.85279 3.90479 2 4.75758 2 5.80955C2 6.86152 2.85279 7.71431 3.90476 7.71431Z" fill="url(#paint4_linear_40_2946)"/>
<path d="M3.90476 9.14288C4.95667 9.14288 5.80952 9.99574 5.80952 11.0476V14.8481L8.37095 15.3515C8.81048 15.4357 9.14286 15.8215 9.14286 16.2857V20.3334C9.14286 20.7276 8.82286 21.0476 8.42857 21.0476C8.03429 21.0476 7.7519 20.7191 7.70524 20.3334C7.68762 20.1872 7.32857 17.2381 7.32857 17.2381H3.90476C2.85286 17.2381 2 16.3853 2 15.3334V11.0476C2 9.99574 2.85286 9.14288 3.90476 9.14288Z" fill="url(#paint5_linear_40_2946)"/>
<path d="M16.2857 13.9048H7.71429C7.45143 13.9048 7.2381 13.6914 7.2381 13.4286V12.9524C7.2381 12.6895 7.45143 12.4762 7.71429 12.4762H16.2857C16.5486 12.4762 16.7619 12.6895 16.7619 12.9524V13.4286C16.7619 13.6914 16.5486 13.9048 16.2857 13.9048Z" fill="#33CCFF"/>
<defs>
<linearGradient id="paint0_linear_40_2946" x1="10.5933" y1="3.45049" x2="13.3219" y2="6.17906" gradientUnits="userSpaceOnUse">
<stop stop-color="#0D61A9"/>
<stop offset="1" stop-color="#16528C"/>
</linearGradient>
<linearGradient id="paint1_linear_40_2946" x1="19.1643" y1="3.96907" x2="20.9733" y2="7.54574" gradientUnits="userSpaceOnUse">
<stop stop-color="#199AE0"/>
<stop offset="1" stop-color="#0782D8"/>
</linearGradient>
<linearGradient id="paint2_linear_40_2946" x1="10.4019" y1="8.60144" x2="12.6519" y2="13.3619" gradientUnits="userSpaceOnUse">
<stop stop-color="#0D61A9"/>
<stop offset="1" stop-color="#16528C"/>
</linearGradient>
<linearGradient id="paint3_linear_40_2946" x1="14.1281" y1="-0.99045" x2="20.9257" y2="25.2553" gradientUnits="userSpaceOnUse">
<stop stop-color="#199AE0"/>
<stop offset="1" stop-color="#0782D8"/>
</linearGradient>
<linearGradient id="paint4_linear_40_2946" x1="4.83571" y1="3.96907" x2="3.02667" y2="7.54574" gradientUnits="userSpaceOnUse">
<stop stop-color="#199AE0"/>
<stop offset="1" stop-color="#0782D8"/>
</linearGradient>
<linearGradient id="paint5_linear_40_2946" x1="9.8719" y1="-0.99045" x2="3.07429" y2="25.2553" gradientUnits="userSpaceOnUse">
<stop stop-color="#199AE0"/>
<stop offset="1" stop-color="#0782D8"/>
</linearGradient>
</defs>
</svg>
