<svg width="24" height="24" viewBox="0 0 24 24" fill="none" xmlns="http://www.w3.org/2000/svg">
<path d="M7.85845 9.24768H20.2831C20.8551 9.24768 21.3185 9.71102 21.3185 10.2831V17.5308C21.3185 18.1028 20.8551 18.5662 20.2831 18.5662H19.7654V21.7148C19.7654 22.001 19.3906 22.1082 19.2394 21.8654L17.1769 18.5662H7.85845C7.2864 18.5662 6.82307 18.1028 6.82307 17.5308V10.2831C6.82307 9.71102 7.2864 9.24768 7.85845 9.24768Z" fill="url(#paint0_linear_40_2994)"/>
<path opacity="0.05" d="M16.6592 11.8361H6.82307V9.24768H17.6946V10.8008C17.6946 11.3728 17.2313 11.8361 16.6592 11.8361Z" fill="black"/>
<path opacity="0.07" d="M16.4004 11.5773H6.82307V9.24768H17.4358V10.5419C17.4358 11.114 16.9724 11.5773 16.4004 11.5773Z" fill="black"/>
<path d="M16.1415 2H3.71691C3.14486 2 2.68153 2.46334 2.68153 3.03539V10.2831C2.68153 10.8551 3.14486 11.3185 3.71691 11.3185H4.23461V14.5577C4.23461 14.8176 4.57525 14.9154 4.71295 14.6949L6.82307 11.3185H16.1415C16.7136 11.3185 17.1769 10.8551 17.1769 10.2831V3.03539C17.1769 2.46334 16.7136 2 16.1415 2Z" fill="url(#paint1_linear_40_2994)"/>
<path opacity="0.05" d="M6.04653 6.65921H13.8119C14.2406 6.65921 14.5885 6.31132 14.5885 5.88267V5.36498C14.5885 4.93633 14.2406 4.58844 13.8119 4.58844H6.04653C5.61788 4.58844 5.26999 4.93633 5.26999 5.36498V5.88267C5.26999 6.31132 5.61788 6.65921 6.04653 6.65921Z" fill="black"/>
<path opacity="0.07" d="M6.04653 6.40037H13.8119C14.0977 6.40037 14.3296 6.16844 14.3296 5.88268V5.36498C14.3296 5.07922 14.0977 4.84729 13.8119 4.84729H6.04653C5.76077 4.84729 5.52884 5.07922 5.52884 5.36498V5.88268C5.52884 6.16844 5.76077 6.40037 6.04653 6.40037Z" fill="black"/>
<path d="M14.0708 5.36499V5.88268C14.0708 6.02556 13.9548 6.14153 13.8119 6.14153H6.04653C5.90364 6.14153 5.78768 6.02556 5.78768 5.88268V5.36499C5.78768 5.2221 5.90364 5.10614 6.04653 5.10614H13.8119C13.9548 5.10614 14.0708 5.2221 14.0708 5.36499Z" fill="white"/>
<path opacity="0.05" d="M6.04653 8.73001H12.7765C13.2052 8.73001 13.5531 8.38212 13.5531 7.95347V7.43578C13.5531 7.00713 13.2052 6.65924 12.7765 6.65924H6.04653C5.61788 6.65924 5.26999 7.00713 5.26999 7.43578V7.95347C5.26999 8.38212 5.61788 8.73001 6.04653 8.73001Z" fill="black"/>
<path opacity="0.07" d="M6.04653 8.47117H12.7765C13.0623 8.47117 13.2942 8.23924 13.2942 7.95348V7.43578C13.2942 7.15002 13.0623 6.91809 12.7765 6.91809H6.04653C5.76077 6.91809 5.52884 7.15002 5.52884 7.43578V7.95348C5.52884 8.23924 5.76077 8.47117 6.04653 8.47117Z" fill="black"/>
<path d="M13.0354 7.43579V7.95348C13.0354 8.09636 12.9194 8.21233 12.7765 8.21233H6.04653C5.90364 8.21233 5.78768 8.09636 5.78768 7.95348V7.43579C5.78768 7.2929 5.90364 7.17694 6.04653 7.17694H12.7765C12.9194 7.17694 13.0354 7.2929 13.0354 7.43579Z" fill="white"/>
<defs>
<linearGradient id="paint0_linear_40_2994" x1="12.6176" y1="9.18918" x2="16.507" y2="21.8162" gradientUnits="userSpaceOnUse">
<stop stop-color="#0176D0"/>
<stop offset="1" stop-color="#16538C"/>
</linearGradient>
<linearGradient id="paint1_linear_40_2994" x1="5.87932" y1="0.834673" x2="13.3838" y2="13.045" gradientUnits="userSpaceOnUse">
<stop stop-color="#33BEF0"/>
<stop offset="1" stop-color="#22A5E2"/>
</linearGradient>
</defs>
</svg>
