<svg width="24" height="24" viewBox="0 0 24 24" fill="none" xmlns="http://www.w3.org/2000/svg">
<path d="M21.6343 11.7791L18.3127 9.84418V15.4991H21.9977V12.4112C21.9977 12.1507 21.8592 11.9103 21.6343 11.7791Z" fill="#103262"/>
<path d="M6.87748 5.17151H11.755V9.56124H6.87748V5.17151Z" fill="#0084D7"/>
<path d="M11.755 5.17151H16.6325V9.56124H11.755V5.17151Z" fill="#33AFEC"/>
<path d="M16.6325 5.17151H21.5099V9.56124H16.6325V5.17151Z" fill="#54DAFF"/>
<path d="M11.755 9.56128H16.6325V13.951H11.755V9.56128Z" fill="#027AD4"/>
<path d="M11.755 13.951H16.6325V18.3407H11.755V13.951Z" fill="#0553A4"/>
<path d="M16.6325 9.56128H21.5099V13.951H16.6325V9.56128Z" fill="#25A2E5"/>
<path d="M16.6325 13.951H21.5099V18.3407H16.6325V13.951Z" fill="#0262B8"/>
<path opacity="0.019" d="M6.87748 18.3407H21.5099V12.1161L14.6766 16.0181L6.87748 12.1161V18.3407Z" fill="black"/>
<path opacity="0.038" d="M6.87748 18.3407H21.5099V12.2321L14.6766 16.1341L6.87748 12.2321V18.3407Z" fill="black"/>
<path opacity="0.057" d="M6.87748 18.3407H21.5099V12.3483L14.6766 16.2503L6.87748 12.3483V18.3407Z" fill="black"/>
<path opacity="0.076" d="M6.87748 18.3407H21.5099V12.4644L14.6766 16.3663L6.87748 12.4644V18.3407Z" fill="black"/>
<path opacity="0.095" d="M6.87748 18.3407H21.5099V12.5804L14.6766 16.4824L6.87748 12.5804V18.3407Z" fill="black"/>
<path opacity="0.114" d="M6.87748 18.3407H21.5099V12.697L14.6766 16.5989L6.87748 12.697V18.3407Z" fill="black"/>
<path opacity="0.133" d="M6.87748 18.3407H21.5099V12.813L14.6766 16.715L6.87748 12.813V18.3407Z" fill="black"/>
<path opacity="0.152" d="M6.87748 18.3407H21.5099V12.9291L14.6766 16.8311L6.87748 12.9291V18.3407Z" fill="black"/>
<path opacity="0.171" d="M6.87748 18.3407H21.5099V13.0452L14.6766 16.9472L6.87748 13.0452V18.3407Z" fill="black"/>
<path opacity="0.191" d="M6.87748 18.3407H21.5099V13.1613L14.6766 17.0633L6.87748 13.1613V18.3407Z" fill="black"/>
<path opacity="0.209" d="M6.87748 18.3407H21.5099V13.2774L14.6766 17.1794L6.87748 13.2774V18.3407Z" fill="black"/>
<path opacity="0.229" d="M6.87748 18.3407H21.5099V13.3935L14.6766 17.2955L6.87748 13.3935V18.3407Z" fill="black"/>
<path opacity="0.248" d="M6.87748 18.3407H21.5099V13.5096L14.6766 17.4116L6.87748 13.5096V18.3407Z" fill="black"/>
<path opacity="0.267" d="M6.87748 18.3407H21.5099V13.6257L14.6766 17.5277L6.87748 13.6257V18.3407Z" fill="black"/>
<path opacity="0.286" d="M6.87748 18.3407H21.5099V13.7418L14.6766 17.6437L6.87748 13.7418V18.3407Z" fill="black"/>
<path opacity="0.305" d="M6.87748 18.3407H21.5099V13.8583L14.6766 17.7603L6.87748 13.8583V18.3407Z" fill="black"/>
<path opacity="0.324" d="M6.87748 18.3407H21.5099V13.9744L14.6766 17.8764L6.87748 13.9744V18.3407Z" fill="black"/>
<path opacity="0.343" d="M6.87748 18.3408H21.5099V14.0905L14.6766 17.9925L6.87748 14.0905V18.3408Z" fill="black"/>
<path opacity="0.362" d="M6.87748 18.3408H21.5099V14.2066L14.6766 18.1086L6.87748 14.2066V18.3408Z" fill="black"/>
<path opacity="0.381" d="M6.87748 18.3407H21.5099V14.3226L14.6766 18.2246L6.87748 14.3226V18.3407Z" fill="black"/>
<path opacity="0.4" d="M6.87748 18.3407H21.5099V14.4387L14.6766 18.3407L6.87748 14.4387V18.3407Z" fill="black"/>
<path d="M8.06807 20.7795H21.0241C21.5626 20.7795 21.9991 20.3459 21.9996 19.8069C22.0011 17.6018 21.9977 12.4112 21.9977 12.4112C21.9977 12.4112 21.9943 12.5195 21.1436 13.0023C20.293 13.4852 7.72811 20.5678 7.72811 20.5678C7.72811 20.5678 7.84224 20.7795 8.06807 20.7795Z" fill="url(#paint0_linear_40_3006)"/>
<path d="M21.5099 5.17151H6.87748V4.19602C6.87748 3.65705 7.31402 3.22052 7.85298 3.22052H20.5344C21.0734 3.22052 21.5099 3.65705 21.5099 4.19602V5.17151Z" fill="url(#paint1_linear_40_3006)"/>
<path d="M6.87748 12.4877V19.804C6.87748 20.3429 7.31402 20.7795 7.85298 20.7795H15.1692H21.0241C21.2495 20.7795 21.4548 20.7004 21.6197 20.5722L6.87748 12.4877Z" fill="url(#paint2_linear_40_3006)"/>
<path opacity="0.05" d="M10.9351 6.63477H6.87748V18.3407H10.9351C11.9267 18.3407 12.7305 17.5369 12.7305 16.5453V8.43017C12.7305 7.43857 11.9267 6.63477 10.9351 6.63477Z" fill="black"/>
<path opacity="0.07" d="M10.8834 17.853H6.87748V6.79718H10.8834C11.7242 6.79718 12.4056 7.47856 12.4056 8.31944V16.3307C12.4051 17.1716 11.7238 17.853 10.8834 17.853Z" fill="black"/>
<path opacity="0.09" d="M10.8312 17.3652H6.87748V6.96008H10.8312C11.5208 6.96008 12.0798 7.51904 12.0798 8.20872V16.1166C12.0803 16.8063 11.5208 17.3652 10.8312 17.3652Z" fill="black"/>
<path d="M10.7795 16.8775H2.9755C2.43653 16.8775 2 16.4409 2 15.902V8.09799C2 7.55903 2.43653 7.1225 2.9755 7.1225H10.7795C11.3184 7.1225 11.755 7.55903 11.755 8.09799V15.902C11.755 16.4409 11.3184 16.8775 10.7795 16.8775Z" fill="url(#paint3_linear_40_3006)"/>
<path d="M6.87749 9.41058C5.36011 9.41058 4.44607 10.57 4.44607 12C4.44607 13.4301 5.35669 14.5895 6.87749 14.5895C8.39878 14.5895 9.30892 13.4301 9.30892 12.0005C9.30892 10.57 8.39488 9.41058 6.87749 9.41058ZM6.87749 13.7155C6.01662 13.7155 5.50204 12.9477 5.50204 12.0005C5.50204 11.0533 6.01906 10.2856 6.87749 10.2856C7.73593 10.2856 8.25343 11.0538 8.25343 12.0005C8.25343 12.9473 7.73788 13.7155 6.87749 13.7155Z" fill="white"/>
<defs>
<linearGradient id="paint0_linear_40_3006" x1="19.5224" y1="12.2717" x2="16.2842" y2="17.8647" gradientUnits="userSpaceOnUse">
<stop stop-color="#31ABEC"/>
<stop offset="1" stop-color="#1582D5"/>
</linearGradient>
<linearGradient id="paint1_linear_40_3006" x1="7.20184" y1="3.70437" x2="20.6734" y2="4.71986" gradientUnits="userSpaceOnUse">
<stop offset="0.042" stop-color="#076DB4"/>
<stop offset="0.85" stop-color="#0461AF"/>
</linearGradient>
<linearGradient id="paint2_linear_40_3006" x1="14.2683" y1="16.496" x2="12.0662" y2="20.3405" gradientUnits="userSpaceOnUse">
<stop stop-color="#33ACEE"/>
<stop offset="1" stop-color="#1B8EDF"/>
</linearGradient>
<linearGradient id="paint3_linear_40_3006" x1="2.25851" y1="7.381" x2="11.4672" y2="16.5897" gradientUnits="userSpaceOnUse">
<stop stop-color="#1784D8"/>
<stop offset="1" stop-color="#0864C5"/>
</linearGradient>
</defs>
</svg>
