<svg width="24" height="24" viewBox="0 0 24 24" fill="none" xmlns="http://www.w3.org/2000/svg">
<path d="M3.09852 6.3623C3.00519 6.55373 2.95233 6.76564 2.95233 6.98659V16.6233C2.95233 17.1538 3.24614 17.6405 3.71567 17.8876L11.1129 21.781C11.3905 21.9272 11.6952 22 12 22V11.0476L3.09852 6.3623Z" fill="url(#paint0_linear_40_3074)"/>
<path d="M12 11.0476V22C12.3048 22 12.6095 21.9272 12.8871 21.781L20.2843 17.8876C20.7539 17.6405 21.0477 17.1538 21.0477 16.6233V6.98659C21.0477 6.76564 20.9948 6.55373 20.9015 6.3623L12 11.0476Z" fill="url(#paint1_linear_40_3074)"/>
<path d="M12 11.0476L20.9015 6.36229C20.762 6.07562 20.5296 5.83705 20.2305 5.69562L12.8152 2.18322C12.2991 1.93893 11.7005 1.93893 11.1843 2.18322L3.76948 5.69562C3.47043 5.83752 3.23805 6.0761 3.09853 6.36229L12 11.0476Z" fill="url(#paint2_linear_40_3074)"/>
<path d="M6.84663 8.33612C6.79235 8.4466 6.76187 8.56946 6.76187 8.69755V14.2766C6.76187 14.5838 6.93187 14.8657 7.20378 15.0085L11.4867 17.2623C11.6476 17.3471 11.8238 17.3895 12.0005 17.3895V11.0485L6.84663 8.33612Z" fill="#25A2E5"/>
<path d="M12 11.0485V17.3895C12.1762 17.3895 12.3529 17.3471 12.5138 17.2623L16.7967 15.0085C17.0686 14.8657 17.2386 14.5838 17.2386 14.2766V8.69755C17.2386 8.56946 17.2081 8.44707 17.1538 8.33612L12 11.0485Z" fill="#027AD4"/>
<path d="M12 11.0485L17.1534 8.3361C17.0724 8.17038 16.9381 8.03228 16.7648 7.9499L12.4719 5.91656C12.1729 5.77513 11.8267 5.77513 11.5276 5.91656L7.23473 7.9499C7.0614 8.03181 6.92711 8.1699 6.84616 8.3361L12 11.0485Z" fill="#54DAFF"/>
<defs>
<linearGradient id="paint0_linear_40_3074" x1="2.95233" y1="14.1814" x2="12" y2="14.1814" gradientUnits="userSpaceOnUse">
<stop stop-color="#1D59B3"/>
<stop offset="1" stop-color="#195BBC"/>
</linearGradient>
<linearGradient id="paint1_linear_40_3074" x1="12" y1="14.1814" x2="21.0477" y2="14.1814" gradientUnits="userSpaceOnUse">
<stop stop-color="#11408A"/>
<stop offset="1" stop-color="#103F8F"/>
</linearGradient>
<linearGradient id="paint2_linear_40_3074" x1="3.09853" y1="6.52372" x2="20.9015" y2="6.52372" gradientUnits="userSpaceOnUse">
<stop stop-color="#3079D6"/>
<stop offset="1" stop-color="#297CD2"/>
</linearGradient>
</defs>
</svg>
