<svg width="24" height="24" viewBox="0 0 24 24" fill="none" xmlns="http://www.w3.org/2000/svg">
<path d="M12 14.2222C13.2273 14.2222 14.2222 13.2273 14.2222 12C14.2222 10.7727 13.2273 9.77777 12 9.77777C10.7727 9.77777 9.77777 10.7727 9.77777 12C9.77777 13.2273 10.7727 14.2222 12 14.2222Z" fill="url(#paint0_linear_40_3082)"/>
<path d="M4.22222 14.2222C5.44952 14.2222 6.44444 13.2273 6.44444 12C6.44444 10.7727 5.44952 9.77777 4.22222 9.77777C2.99492 9.77777 2 10.7727 2 12C2 13.2273 2.99492 14.2222 4.22222 14.2222Z" fill="url(#paint1_linear_40_3082)"/>
<path d="M19.7778 14.2222C21.0051 14.2222 22 13.2273 22 12C22 10.7727 21.0051 9.77777 19.7778 9.77777C18.5504 9.77777 17.5556 10.7727 17.5556 12C17.5556 13.2273 18.5504 14.2222 19.7778 14.2222Z" fill="url(#paint2_linear_40_3082)"/>
<defs>
<linearGradient id="paint0_linear_40_3082" x1="10.5011" y1="10.5011" x2="13.8078" y2="13.8078" gradientUnits="userSpaceOnUse">
<stop stop-color="#32BDEF"/>
<stop offset="1" stop-color="#1EA2E4"/>
</linearGradient>
<linearGradient id="paint1_linear_40_3082" x1="2.72333" y1="10.5011" x2="6.03" y2="13.8078" gradientUnits="userSpaceOnUse">
<stop stop-color="#32BDEF"/>
<stop offset="1" stop-color="#1EA2E4"/>
</linearGradient>
<linearGradient id="paint2_linear_40_3082" x1="18.2789" y1="10.5011" x2="21.5856" y2="13.8078" gradientUnits="userSpaceOnUse">
<stop stop-color="#32BDEF"/>
<stop offset="1" stop-color="#1EA2E4"/>
</linearGradient>
</defs>
</svg>
