<svg width="24" height="24" viewBox="0 0 24 24" fill="none" xmlns="http://www.w3.org/2000/svg">
<path d="M19.2955 18.4445H3.29555V19.3333C3.29555 19.8245 3.69333 20.2222 4.18444 20.2222H18.4067C18.8978 20.2222 19.2955 19.8245 19.2955 19.3333V18.4445Z" fill="url(#paint0_linear_40_3087)"/>
<path d="M19.2955 18.4445H3.29555V10L11.2955 2.44446L19.2955 10V18.4445Z" fill="url(#paint1_linear_40_3087)"/>
<path d="M9.07332 12.2222H13.5178C13.7631 12.2222 13.9622 12.4213 13.9622 12.6667V20.2222H8.62888V12.6667C8.62888 12.4213 8.82799 12.2222 9.07332 12.2222Z" fill="#DE490D"/>
<path d="M17.5178 12.2222C14.5769 12.2222 12.1844 14.6147 12.1844 17.5556C12.1844 18.5276 12.4502 19.4369 12.9062 20.2222H18.4067C18.8978 20.2222 19.2955 19.8245 19.2955 19.3333V12.5333C18.7387 12.3356 18.1418 12.2222 17.5178 12.2222Z" fill="url(#paint2_radial_40_3087)"/>
<path opacity="0.05" d="M11.2955 2.88892C11.0849 2.88892 10.8742 2.96358 10.7062 3.11247L8.32444 5.25069L3.29555 10V12.3956L11.2955 5.30136L19.2955 12.3956V10L14.2667 5.25069L11.8849 3.11247C11.7169 2.96358 11.5062 2.88892 11.2955 2.88892Z" fill="black"/>
<path opacity="0.07" d="M11.2955 2.44446C11.0849 2.44446 10.8742 2.51868 10.7062 2.66668L8.32444 4.7929L3.29555 9.51512V11.8969L11.2955 4.84312L19.2955 11.8969V9.51512L14.2667 4.7929L11.8849 2.66668C11.7169 2.51868 11.5062 2.44446 11.2955 2.44446Z" fill="black"/>
<path d="M20.4044 9.78089L11.8849 2.22356C11.7169 2.07467 11.5062 2 11.2955 2C11.0849 2 10.8742 2.07467 10.7062 2.22356L2.18665 9.78089C1.99998 9.94711 1.98709 10.2342 2.1582 10.4164L2.88531 11.192C3.04931 11.3671 3.32265 11.3804 3.50309 11.2218L11.2955 4.41244L19.088 11.2222C19.268 11.3804 19.5418 11.3676 19.7058 11.1924L20.4329 10.4169C20.604 10.2342 20.5911 9.94711 20.4044 9.78089Z" fill="url(#paint3_linear_40_3087)"/>
<path d="M17.5178 22C19.9723 22 21.9622 20.0101 21.9622 17.5555C21.9622 15.101 19.9723 13.1111 17.5178 13.1111C15.0632 13.1111 13.0733 15.101 13.0733 17.5555C13.0733 20.0101 15.0632 22 17.5178 22Z" fill="url(#paint4_linear_40_3087)"/>
<path opacity="0.05" d="M17.4066 21.112C17.1004 21.112 16.8511 20.8627 16.8511 20.5564V20.3804C16.5293 20.3231 16.2071 20.2307 15.9431 20.1187C15.684 20.0076 15.5173 19.756 15.5173 19.4773V18.948C15.5173 18.6236 15.7809 18.3591 16.1049 18.3591C16.1964 18.3591 16.2884 18.3813 16.3706 18.4231C16.5044 18.4916 16.9795 18.7133 17.5177 18.7133C17.7497 18.7133 17.804 18.6631 17.8044 18.6622C17.7609 18.5738 17.3751 18.4307 17.1897 18.3622C16.4933 18.1044 15.44 17.7147 15.44 16.4444C15.44 15.5707 15.9635 14.9316 16.8506 14.7044V14.5556C16.8506 14.2493 17.1 14 17.4062 14H17.6284C17.9346 14 18.184 14.2493 18.184 14.5556V14.6542C18.4475 14.6844 18.6697 14.736 18.8595 14.8098C18.9622 14.8502 19.2955 15.0191 19.2955 15.5093V15.9747C19.2955 16.2987 19.0315 16.5622 18.7071 16.5622C18.6195 16.5622 18.5342 16.5431 18.4542 16.5053C18.2844 16.4258 17.9364 16.292 17.5177 16.292C17.4124 16.292 17.2342 16.308 17.2342 16.3667C17.2342 16.4733 17.668 16.6418 17.9009 16.732C18.5764 16.9947 19.5955 17.3907 19.5955 18.5987C19.5955 19.2716 19.2217 20.1133 18.1849 20.3684V20.556C18.1849 20.8622 17.9355 21.1116 17.6293 21.1116L17.4066 21.112Z" fill="black"/>
<path opacity="0.05" d="M17.4066 20.8898C17.2231 20.8898 17.0733 20.7405 17.0733 20.5565V20.1902C16.7115 20.1418 16.3333 20.0427 16.0298 19.9138C15.8533 19.8382 15.7395 19.6667 15.7395 19.4773V18.948C15.7395 18.7458 15.9035 18.5813 16.1049 18.5813C16.1618 18.5813 16.2191 18.5951 16.2698 18.6209C16.4142 18.6951 16.9289 18.9356 17.5178 18.9356C18.0235 18.9356 18.0235 18.7258 18.0235 18.6467C18.0235 18.4485 17.7378 18.3285 17.2671 18.1538C16.5902 17.9031 15.6626 17.5596 15.6626 16.444C15.6626 15.4787 16.3582 15.0138 17.0733 14.8827V14.5556C17.0733 14.3716 17.2231 14.2222 17.4066 14.2222H17.6289C17.8124 14.2222 17.9622 14.3716 17.9622 14.5556V14.8569C18.2955 14.8805 18.564 14.9333 18.7791 15.0169C18.868 15.052 19.0738 15.1689 19.0738 15.5093V15.9747C19.0738 16.176 18.9093 16.34 18.7075 16.34C18.6524 16.34 18.5995 16.328 18.5493 16.304C18.3626 16.2165 17.9804 16.0698 17.5182 16.0698C17.1826 16.0698 17.0124 16.1698 17.0124 16.3667C17.0124 16.608 17.3182 16.744 17.8209 16.9396C18.476 17.1942 19.3733 17.5427 19.3733 18.5991C19.3733 19.2409 18.9991 20.0156 17.9626 20.188V20.5569C17.9626 20.7409 17.8129 20.8902 17.6293 20.8902H17.4066V20.8898Z" fill="black"/>
<path d="M19.1507 18.5987C19.1507 16.9991 16.7893 17.3116 16.7893 16.3667C16.7893 15.8733 17.344 15.8471 17.5173 15.8471C17.9342 15.8471 18.3364 15.9591 18.6431 16.1027C18.74 16.1485 18.8511 16.0813 18.8511 15.9747V15.5093C18.8511 15.3533 18.7924 15.2609 18.6987 15.224C18.4884 15.1422 18.1867 15.0822 17.74 15.0676V14.5556C17.74 14.4942 17.6902 14.4445 17.6289 14.4445H17.4067C17.3453 14.4445 17.2955 14.4942 17.2955 14.5556V15.076C16.6027 15.1436 15.8849 15.5347 15.8849 16.444C15.8849 18.1022 18.2462 17.7729 18.2462 18.6462C18.2462 18.9209 18.0706 19.1573 17.5182 19.1573C16.9626 19.1573 16.452 18.9636 16.1698 18.8187C16.0746 18.7702 15.9626 18.8405 15.9626 18.9471V19.4769C15.9626 19.5782 16.024 19.6689 16.1178 19.7089C16.4524 19.8511 16.9013 19.9587 17.2964 19.9902V20.556C17.2964 20.6173 17.3462 20.6671 17.4075 20.6671H17.6298C17.6911 20.6671 17.7409 20.6173 17.7409 20.556V19.9911C18.7764 19.9049 19.1507 19.2111 19.1507 18.5987Z" fill="white"/>
<defs>
<linearGradient id="paint0_linear_40_3087" x1="3.29555" y1="19.3333" x2="19.2955" y2="19.3333" gradientUnits="userSpaceOnUse">
<stop stop-color="#C8D3DE"/>
<stop offset="1" stop-color="#C8D3DE"/>
</linearGradient>
<linearGradient id="paint1_linear_40_3087" x1="6.89333" y1="5.70579" x2="14.5778" y2="20.572" gradientUnits="userSpaceOnUse">
<stop stop-color="#FCFCFC"/>
<stop offset="0.495" stop-color="#F4F4F4"/>
<stop offset="0.946" stop-color="#E8E8E8"/>
<stop offset="1" stop-color="#E8E8E8"/>
</linearGradient>
<radialGradient id="paint2_radial_40_3087" cx="0" cy="0" r="1" gradientUnits="userSpaceOnUse" gradientTransform="translate(17.2151 17.2436) scale(4.93111)">
<stop/>
<stop offset="1" stop-opacity="0"/>
</radialGradient>
<linearGradient id="paint3_linear_40_3087" x1="11.2955" y1="1.85956" x2="11.2955" y2="11.6427" gradientUnits="userSpaceOnUse">
<stop stop-color="#D43A02"/>
<stop offset="1" stop-color="#B9360C"/>
</linearGradient>
<linearGradient id="paint4_linear_40_3087" x1="13.0733" y1="17.5555" x2="21.9622" y2="17.5555" gradientUnits="userSpaceOnUse">
<stop stop-color="#21AD64"/>
<stop offset="1" stop-color="#088242"/>
</linearGradient>
</defs>
</svg>
