<svg width="24" height="24" viewBox="0 0 24 24" fill="none" xmlns="http://www.w3.org/2000/svg">
<path d="M19.25 20H13.75C12.923 20 12.25 19.327 12.25 18.5V5.5C12.25 4.673 12.923 4 13.75 4H19.25C19.5265 4 19.75 4.224 19.75 4.5C19.75 4.776 19.5265 5 19.25 5H13.75C13.474 5 13.25 5.2245 13.25 5.5V18.5C13.25 18.7755 13.474 19 13.75 19H19.25C19.5265 19 19.75 19.224 19.75 19.5C19.75 19.776 19.5265 20 19.25 20Z" fill="#64717C"/>
<path d="M12.75 11.5H6.75V12.5H12.75V11.5Z" fill="#64717C"/>
<path d="M8.25 15.5H3.25C2.6975 15.5 2.25 15.0525 2.25 14.5V9.5C2.25 8.9475 2.6975 8.5 3.25 8.5H8.25C8.8025 8.5 9.25 8.9475 9.25 9.5V14.5C9.25 15.0525 8.8025 15.5 8.25 15.5Z" fill="url(#paint0_linear_40_3104)"/>
<path d="M21.25 7H17.25C16.974 7 16.75 6.776 16.75 6.5V2.5C16.75 2.224 16.974 2 17.25 2H21.25C21.526 2 21.75 2.224 21.75 2.5V6.5C21.75 6.776 21.526 7 21.25 7Z" fill="url(#paint1_linear_40_3104)"/>
<path d="M21.25 14.5H17.25C16.974 14.5 16.75 14.276 16.75 14V10C16.75 9.724 16.974 9.5 17.25 9.5H21.25C21.526 9.5 21.75 9.724 21.75 10V14C21.75 14.276 21.526 14.5 21.25 14.5Z" fill="#DBE0E2"/>
<path d="M21.25 22H17.25C16.974 22 16.75 21.776 16.75 21.5V17.5C16.75 17.224 16.974 17 17.25 17H21.25C21.526 17 21.75 17.224 21.75 17.5V21.5C21.75 21.776 21.526 22 21.25 22Z" fill="url(#paint2_linear_40_3104)"/>
<defs>
<linearGradient id="paint0_linear_40_3104" x1="5.75" y1="15.471" x2="5.75" y2="8.85" gradientUnits="userSpaceOnUse">
<stop stop-color="#3079D6"/>
<stop offset="1" stop-color="#297CD2"/>
</linearGradient>
<linearGradient id="paint1_linear_40_3104" x1="16.75" y1="4.5" x2="21.75" y2="4.5" gradientUnits="userSpaceOnUse">
<stop stop-color="#42A3F2"/>
<stop offset="1" stop-color="#42A4EB"/>
</linearGradient>
<linearGradient id="paint2_linear_40_3104" x1="16.75" y1="19.5" x2="21.75" y2="19.5" gradientUnits="userSpaceOnUse">
<stop stop-color="#42A3F2"/>
<stop offset="1" stop-color="#42A4EB"/>
</linearGradient>
</defs>
</svg>
