<svg width="24" height="24" viewBox="0 0 24 24" fill="none" xmlns="http://www.w3.org/2000/svg">
<path d="M14.9012 5.95349C14.9012 8.13674 13.1309 9.90698 10.9477 9.90698C8.76442 9.90698 6.99419 8.13674 6.99419 5.95349C6.99419 3.77023 8.76442 2 10.9477 2C13.1309 2 14.9012 3.77023 14.9012 5.95349Z" fill="url(#paint0_linear_40_3150)"/>
<path d="M13.9709 5.95349C13.9709 7.62326 12.6174 8.97675 10.9477 8.97675C9.27791 8.97675 7.92442 7.62326 7.92442 5.95349C7.92442 4.28373 9.27791 2.93024 10.9477 2.93024C12.6174 2.93024 13.9709 4.28373 13.9709 5.95349Z" fill="url(#paint1_linear_40_3150)"/>
<path d="M13.0407 5.9535C13.0407 7.10931 12.1035 8.04652 10.9477 8.04652C9.79186 8.04652 8.85465 7.10931 8.85465 5.9535C8.85465 4.79768 9.79186 3.86047 10.9477 3.86047C12.1035 3.86047 13.0407 4.79768 13.0407 5.9535Z" fill="url(#paint2_linear_40_3150)"/>
<path d="M5.30116 16.5472C5.30166 16.5437 5.30316 16.5412 5.30366 16.5377L5.30266 16.5372L5.30116 16.5472Z" fill="url(#paint3_linear_40_3150)"/>
<path d="M18.0351 11.7218L12.1105 10.8372V6.02C12.1105 5.41163 11.6728 4.85767 11.0677 4.79674C10.3714 4.72697 9.78488 5.27163 9.78488 5.95349C9.78488 6.06372 9.78488 21.0549 9.78488 21.0549C10.4644 21.6595 11.3416 22 12.2565 22H17.2267C18.7681 22 20.0174 20.7507 20.0174 19.2093V14.0218C20.0174 12.8702 19.1747 11.8921 18.0351 11.7218Z" fill="url(#paint4_linear_40_3150)"/>
<path d="M12.1105 10.8372V13.6279L13.3244 11.0186L12.1105 10.8372Z" fill="url(#paint5_linear_40_3150)"/>
<path d="M10.9477 6.65115C11.333 6.65115 11.6453 6.33878 11.6453 5.95347C11.6453 5.56816 11.333 5.2558 10.9477 5.2558C10.5624 5.2558 10.25 5.56816 10.25 5.95347C10.25 6.33878 10.5624 6.65115 10.9477 6.65115Z" fill="#FFF0C9"/>
<path d="M5.14442 13.1628C4.34442 13.1628 3.98256 13.6595 3.98256 14.3219L9.60349 20.8935C9.66116 20.9512 9.72395 21.0032 9.78442 21.0572V14.2177C8.72721 16.0223 7.95233 14.407 7.14721 14.5944C7.14767 14.5944 6.81279 13.1628 5.14442 13.1628Z" fill="url(#paint6_linear_40_3150)"/>
<defs>
<linearGradient id="paint0_linear_40_3150" x1="9.16907" y1="2.49302" x2="12.8421" y2="9.63954" gradientUnits="userSpaceOnUse">
<stop stop-color="#0D61A9"/>
<stop offset="1" stop-color="#16528C"/>
</linearGradient>
<linearGradient id="paint1_linear_40_3150" x1="9.58767" y1="3.30698" x2="12.3965" y2="8.7721" gradientUnits="userSpaceOnUse">
<stop stop-color="#199AE0"/>
<stop offset="1" stop-color="#0782D8"/>
</linearGradient>
<linearGradient id="paint2_linear_40_3150" x1="10.0063" y1="4.1214" x2="11.9505" y2="7.90512" gradientUnits="userSpaceOnUse">
<stop stop-color="#75DAFF"/>
<stop offset="1" stop-color="#1EA2E4"/>
</linearGradient>
<linearGradient id="paint3_linear_40_3150" x1="5.29999" y1="16.5421" x2="5.30098" y2="16.5423" gradientUnits="userSpaceOnUse">
<stop stop-color="#FFC430"/>
<stop offset="0.57" stop-color="#F8BD29"/>
<stop offset="1" stop-color="#F0B421"/>
</linearGradient>
<linearGradient id="paint4_linear_40_3150" x1="10.7109" y1="12.7181" x2="22.1402" y2="24.587" gradientUnits="userSpaceOnUse">
<stop stop-color="#FFC430"/>
<stop offset="0.41" stop-color="#FEC130"/>
<stop offset="0.72" stop-color="#FCB730"/>
<stop offset="0.998" stop-color="#F7A72F"/>
<stop offset="1" stop-color="#F7A72F"/>
</linearGradient>
<linearGradient id="paint5_linear_40_3150" x1="12.5347" y1="12.2237" x2="11.7212" y2="11.7809" gradientUnits="userSpaceOnUse">
<stop offset="0.282" stop-color="#FFC430"/>
<stop offset="0.401" stop-color="#F8BD2D"/>
<stop offset="0.574" stop-color="#E5AA23"/>
<stop offset="0.78" stop-color="#C58A14"/>
<stop offset="1" stop-color="#9C6000"/>
</linearGradient>
<linearGradient id="paint6_linear_40_3150" x1="6.71047" y1="17.5846" x2="10.6393" y2="13.7102" gradientUnits="userSpaceOnUse">
<stop offset="0.282" stop-color="#FFC430"/>
<stop offset="0.401" stop-color="#F8BD2D"/>
<stop offset="0.574" stop-color="#E5AA23"/>
<stop offset="0.78" stop-color="#C58A14"/>
<stop offset="1" stop-color="#9C6000"/>
</linearGradient>
</defs>
</svg>
