<svg width="24" height="24" viewBox="0 0 24 24" fill="none" xmlns="http://www.w3.org/2000/svg">
<path d="M17.5714 19.6191H6.42857C5.28571 19.6191 4.38095 18.7143 4.38095 17.5715V6.4286C4.38095 5.28574 5.28571 4.38098 6.42857 4.38098H17.5238C18.6667 4.38098 19.5714 5.28574 19.5714 6.4286V17.5238C19.619 18.7143 18.7143 19.6191 17.5714 19.6191ZM6.42857 5.33336C5.80952 5.33336 5.33333 5.80955 5.33333 6.4286V17.5238C5.33333 18.1429 5.80952 18.6191 6.42857 18.6191H17.5238C18.1429 18.6191 18.619 18.1429 18.619 17.5238V6.4286C18.619 5.80955 18.1429 5.33336 17.5238 5.33336H6.42857Z" fill="url(#paint0_linear_40_3175)"/>
<path d="M7.71429 13.4286C7.71429 13.9524 7.28571 14.381 6.7619 14.381H2.95238C2.42857 14.381 2 13.9524 2 13.4286V10.5715C2 10.0477 2.42857 9.61908 2.95238 9.61908H6.7619C7.28571 9.61908 7.71429 10.0477 7.71429 10.5715V13.4286Z" fill="url(#paint1_linear_40_3175)"/>
<path d="M14.8571 6.28572C14.8571 6.80953 14.4286 7.2381 13.9048 7.2381H10.0952C9.57142 7.2381 9.14285 6.80953 9.14285 6.28572V3.42858C9.14285 2.90477 9.57142 2.4762 10.0952 2.4762H13.9048C14.4286 2.4762 14.8571 2.90477 14.8571 3.42858V6.28572Z" fill="url(#paint2_linear_40_3175)"/>
<path d="M14.8571 20.5714C14.8571 21.0952 14.4286 21.5238 13.9048 21.5238H10.0952C9.57142 21.5238 9.14285 21.0952 9.14285 20.5714V17.7143C9.14285 17.1905 9.57142 16.7619 10.0952 16.7619H13.9048C14.4286 16.7619 14.8571 17.1905 14.8571 17.7143V20.5714Z" fill="url(#paint3_linear_40_3175)"/>
<path d="M22 13.4286C22 13.9524 21.5714 14.381 21.0476 14.381H17.2381C16.7143 14.381 16.2857 13.9524 16.2857 13.4286V10.5715C16.2857 10.0477 16.7143 9.61908 17.2381 9.61908H21.0476C21.5714 9.61908 22 10.0477 22 10.5715V13.4286Z" fill="url(#paint4_linear_40_3175)"/>
<path d="M6.7619 10.5714H2.95238V13.4286H6.7619V10.5714Z" fill="url(#paint5_linear_40_3175)"/>
<path d="M13.9048 3.42859H10.0952V6.28573H13.9048V3.42859Z" fill="url(#paint6_linear_40_3175)"/>
<path d="M13.9048 17.7143H10.0952V20.5714H13.9048V17.7143Z" fill="url(#paint7_linear_40_3175)"/>
<path d="M21.0476 10.5714H17.2381V13.4286H21.0476V10.5714Z" fill="url(#paint8_linear_40_3175)"/>
<defs>
<linearGradient id="paint0_linear_40_3175" x1="7.28762" y1="3.18193" x2="16.649" y2="20.7881" gradientUnits="userSpaceOnUse">
<stop stop-color="#C8D3DE"/>
<stop offset="1" stop-color="#C8D3DE"/>
</linearGradient>
<linearGradient id="paint1_linear_40_3175" x1="3.3981" y1="9.25622" x2="6.31571" y2="14.7438" gradientUnits="userSpaceOnUse">
<stop stop-color="#2AA4F4"/>
<stop offset="1" stop-color="#007AD9"/>
</linearGradient>
<linearGradient id="paint2_linear_40_3175" x1="10.5409" y1="2.11334" x2="13.459" y2="7.60048" gradientUnits="userSpaceOnUse">
<stop stop-color="#2AA4F4"/>
<stop offset="1" stop-color="#007AD9"/>
</linearGradient>
<linearGradient id="paint3_linear_40_3175" x1="10.5409" y1="16.399" x2="13.459" y2="21.8867" gradientUnits="userSpaceOnUse">
<stop stop-color="#2AA4F4"/>
<stop offset="1" stop-color="#007AD9"/>
</linearGradient>
<linearGradient id="paint4_linear_40_3175" x1="17.6843" y1="9.25622" x2="20.6014" y2="14.7438" gradientUnits="userSpaceOnUse">
<stop stop-color="#2AA4F4"/>
<stop offset="1" stop-color="#007AD9"/>
</linearGradient>
<linearGradient id="paint5_linear_40_3175" x1="4.15346" y1="10.6153" x2="5.3214" y2="13.6178" gradientUnits="userSpaceOnUse">
<stop stop-color="#7DD8F3"/>
<stop offset="1" stop-color="#45B0D0"/>
</linearGradient>
<linearGradient id="paint6_linear_40_3175" x1="11.2963" y1="3.47246" x2="12.4643" y2="6.47493" gradientUnits="userSpaceOnUse">
<stop stop-color="#7DD8F3"/>
<stop offset="1" stop-color="#45B0D0"/>
</linearGradient>
<linearGradient id="paint7_linear_40_3175" x1="11.2963" y1="17.7582" x2="12.4643" y2="20.7607" gradientUnits="userSpaceOnUse">
<stop stop-color="#7DD8F3"/>
<stop offset="1" stop-color="#45B0D0"/>
</linearGradient>
<linearGradient id="paint8_linear_40_3175" x1="18.4391" y1="10.6153" x2="19.6071" y2="13.6178" gradientUnits="userSpaceOnUse">
<stop stop-color="#7DD8F3"/>
<stop offset="1" stop-color="#45B0D0"/>
</linearGradient>
</defs>
</svg>
