<svg width="24" height="24" viewBox="0 0 24 24" fill="none" xmlns="http://www.w3.org/2000/svg">
<path d="M22 5V7.5H2V5C2 4.45 2.45 4 3 4H21C21.55 4 22 4.45 22 5Z" fill="url(#paint0_linear_40_3230)"/>
<path d="M2 19V7H22V19C22 19.55 21.55 20 21 20H3C2.45 20 2 19.55 2 19Z" fill="url(#paint1_linear_40_3230)"/>
<path opacity="0.05" d="M11.5 18C10.9485 18 10.5 17.5515 10.5 17V15H8.5C7.9485 15 7.5 14.5515 7.5 14V13C7.5 12.4485 7.9485 12 8.5 12H10.5V10C10.5 9.4485 10.9485 9 11.5 9H12.5C13.0515 9 13.5 9.4485 13.5 10V12H15.5C16.0515 12 16.5 12.4485 16.5 13V14C16.5 14.5515 16.0515 15 15.5 15H13.5V17C13.5 17.5515 13.0515 18 12.5 18H11.5Z" fill="black"/>
<path opacity="0.07" d="M11.5 17.75C11.0865 17.75 10.75 17.4135 10.75 17V14.75H8.5C8.0865 14.75 7.75 14.4135 7.75 14V13C7.75 12.5865 8.0865 12.25 8.5 12.25H10.75V10C10.75 9.5865 11.0865 9.25 11.5 9.25H12.5C12.9135 9.25 13.25 9.5865 13.25 10V12.25H15.5C15.9135 12.25 16.25 12.5865 16.25 13V14C16.25 14.4135 15.9135 14.75 15.5 14.75H13.25V17C13.25 17.4135 12.9135 17.75 12.5 17.75H11.5Z" fill="black"/>
<path d="M15.5 12.5H13V10C13 9.724 12.776 9.5 12.5 9.5H11.5C11.224 9.5 11 9.724 11 10V12.5H8.5C8.224 12.5 8 12.724 8 13V14C8 14.276 8.224 14.5 8.5 14.5H11V17C11 17.276 11.224 17.5 11.5 17.5H12.5C12.776 17.5 13 17.276 13 17V14.5H15.5C15.776 14.5 16 14.276 16 14V13C16 12.724 15.776 12.5 15.5 12.5Z" fill="white"/>
<defs>
<linearGradient id="paint0_linear_40_3230" x1="2.307" y1="3.8705" x2="21.468" y2="7.7665" gradientUnits="userSpaceOnUse">
<stop stop-color="#0077D2"/>
<stop offset="1" stop-color="#0B59A2"/>
</linearGradient>
<linearGradient id="paint1_linear_40_3230" x1="6.6375" y1="5.398" x2="15.89" y2="18.782" gradientUnits="userSpaceOnUse">
<stop stop-color="#7DD8F3"/>
<stop offset="1" stop-color="#45B0D0"/>
</linearGradient>
</defs>
</svg>
