<svg width="24" height="24" viewBox="0 0 24 24" fill="none" xmlns="http://www.w3.org/2000/svg">
<path d="M20.1818 8.14681V4.04544C20.1818 3.92605 20.1584 3.80783 20.1127 3.69751C20.067 3.5872 20.0001 3.48697 19.9156 3.40254C19.8312 3.31813 19.731 3.25116 19.6206 3.20549C19.5104 3.15982 19.3921 3.13632 19.2727 3.13635H2.90909C2.7897 3.13632 2.67147 3.15982 2.56115 3.20549C2.45085 3.25116 2.35062 3.31813 2.26619 3.40254C2.18177 3.48697 2.11481 3.5872 2.06914 3.69751C2.02346 3.80783 1.99996 3.92605 2 4.04544V8.14681C2.28205 8.35635 2.51116 8.6289 2.66902 8.94281C2.82687 9.25672 2.90909 9.60317 2.90909 9.95453C2.90909 10.3059 2.82687 10.6524 2.66902 10.9663C2.51116 11.2802 2.28205 11.5527 2 11.7623V15.8636C1.99996 15.983 2.02346 16.1013 2.06914 16.2115C2.11481 16.3219 2.18177 16.4221 2.26619 16.5065C2.35062 16.591 2.45085 16.6579 2.56115 16.7036C2.67147 16.7493 2.7897 16.7727 2.90909 16.7727H19.2727C19.3921 16.7727 19.5104 16.7493 19.6206 16.7036C19.731 16.6579 19.8312 16.591 19.9156 16.5065C20.0001 16.4221 20.067 16.3219 20.1127 16.2115C20.1584 16.1013 20.1818 15.983 20.1818 15.8636V11.7623C19.8997 11.5527 19.6706 11.2802 19.5128 10.9663C19.3549 10.6524 19.2727 10.3059 19.2727 9.95453C19.2727 9.60317 19.3549 9.25672 19.5128 8.94281C19.6706 8.6289 19.8997 8.35635 20.1818 8.14681ZM16.0909 15.8636C16.001 15.8636 15.9131 15.837 15.8384 15.787C15.7636 15.7371 15.7054 15.6661 15.671 15.583C15.6365 15.5 15.6275 15.4085 15.6451 15.3204C15.6626 15.2323 15.7059 15.1513 15.7695 15.0876C15.8331 15.0241 15.9141 14.9808 16.0023 14.9633C16.0904 14.9457 16.1818 14.9547 16.2648 14.9892C16.3479 15.0235 16.4189 15.0818 16.4688 15.1565C16.5188 15.2313 16.5455 15.3192 16.5455 15.4091C16.5455 15.5296 16.4975 15.6452 16.4123 15.7304C16.327 15.8157 16.2115 15.8636 16.0909 15.8636ZM16.0909 14.0454C16.001 14.0454 15.9131 14.0188 15.8384 13.9688C15.7636 13.9189 15.7054 13.8479 15.671 13.7648C15.6365 13.6818 15.6275 13.5904 15.6451 13.5023C15.6626 13.4141 15.7059 13.3331 15.7695 13.2694C15.8331 13.2059 15.9141 13.1626 16.0023 13.1451C16.0904 13.1275 16.1818 13.1365 16.2648 13.171C16.3479 13.2054 16.4189 13.2636 16.4688 13.3384C16.5188 13.4131 16.5455 13.501 16.5455 13.5909C16.5455 13.7114 16.4975 13.827 16.4123 13.9123C16.327 13.9975 16.2115 14.0454 16.0909 14.0454ZM16.0909 12.2273C16.001 12.2273 15.9131 12.2006 15.8384 12.1506C15.7636 12.1007 15.7054 12.0297 15.671 11.9466C15.6365 11.8636 15.6275 11.7722 15.6451 11.6841C15.6626 11.5959 15.7059 11.5149 15.7695 11.4513C15.8331 11.3877 15.9141 11.3444 16.0023 11.3269C16.0904 11.3094 16.1818 11.3184 16.2648 11.3528C16.3479 11.3872 16.4189 11.4454 16.4688 11.5202C16.5188 11.5949 16.5455 11.6828 16.5455 11.7727C16.5455 11.8933 16.4975 12.0088 16.4123 12.0941C16.327 12.1794 16.2115 12.2273 16.0909 12.2273ZM16.0909 10.4091C16.001 10.4091 15.9131 10.3824 15.8384 10.3324C15.7636 10.2825 15.7054 10.2115 15.671 10.1284C15.6365 10.0454 15.6275 9.95399 15.6451 9.8659C15.6626 9.77772 15.7059 9.69672 15.7695 9.63308C15.8331 9.56953 15.9141 9.52626 16.0023 9.50872C16.0904 9.49117 16.1818 9.50017 16.2648 9.53463C16.3479 9.56899 16.4189 9.62726 16.4688 9.70199C16.5188 9.77672 16.5455 9.86462 16.5455 9.95453C16.5455 10.0751 16.4975 10.1906 16.4123 10.2759C16.327 10.3612 16.2115 10.4091 16.0909 10.4091ZM16.0909 8.5909C16.001 8.5909 15.9131 8.56426 15.8384 8.51426C15.7636 8.46435 15.7054 8.39335 15.671 8.31026C15.6365 8.22726 15.6275 8.13584 15.6451 8.04767C15.6626 7.9595 15.7059 7.87851 15.7695 7.81494C15.8331 7.75137 15.9141 7.70808 16.0023 7.69054C16.0904 7.673 16.1818 7.68201 16.2648 7.71641C16.3479 7.75081 16.4189 7.80907 16.4688 7.88382C16.5188 7.95857 16.5455 8.04645 16.5455 8.13635C16.5455 8.2569 16.4975 8.37244 16.4123 8.45772C16.327 8.54299 16.2115 8.5909 16.0909 8.5909ZM16.0909 6.77272C16.001 6.77272 15.9131 6.74606 15.8384 6.69612C15.7636 6.64616 15.7054 6.57517 15.671 6.49212C15.6365 6.40906 15.6275 6.31767 15.6451 6.22949C15.6626 6.14132 15.7059 6.06033 15.7695 5.99676C15.8331 5.93319 15.9141 5.8899 16.0023 5.87236C16.0904 5.85482 16.1818 5.86383 16.2648 5.89823C16.3479 5.93263 16.4189 5.99089 16.4688 6.06563C16.5188 6.14039 16.5455 6.22827 16.5455 6.31817C16.5455 6.43871 16.4975 6.5543 16.4123 6.63953C16.327 6.72477 16.2115 6.77267 16.0909 6.77272ZM16.0909 4.95453C16.001 4.95453 15.9131 4.92788 15.8384 4.87793C15.7636 4.82798 15.7054 4.75699 15.671 4.67393C15.6365 4.59088 15.6275 4.49949 15.6451 4.41131C15.6626 4.32313 15.7059 4.24214 15.7695 4.17858C15.8331 4.11501 15.9141 4.07172 16.0023 4.05418C16.0904 4.03663 16.1818 4.04564 16.2648 4.08004C16.3479 4.11444 16.4189 4.17271 16.4688 4.24745C16.5188 4.32221 16.5455 4.41009 16.5455 4.49999C16.5455 4.62053 16.4975 4.73612 16.4123 4.82135C16.327 4.90659 16.2115 4.95449 16.0909 4.95453Z" fill="url(#paint0_linear_40_3222)"/>
<path d="M17.4545 20.8636C19.9649 20.8636 22 18.8285 22 16.3182C22 13.8078 19.9649 11.7727 17.4545 11.7727C14.9442 11.7727 12.9091 13.8078 12.9091 16.3182C12.9091 18.8285 14.9442 20.8636 17.4545 20.8636Z" fill="url(#paint1_linear_40_3222)"/>
<path d="M17.6818 18.5909H17.2273C17.167 18.5909 17.1092 18.5669 17.0665 18.5244C17.024 18.4817 17 18.4239 17 18.3637V14.2727C17 14.2125 17.024 14.1547 17.0665 14.112C17.1092 14.0695 17.167 14.0455 17.2273 14.0455H17.6818C17.7421 14.0455 17.7999 14.0695 17.8425 14.112C17.8851 14.1547 17.9091 14.2125 17.9091 14.2727V18.3637C17.9091 18.4239 17.8851 18.4817 17.8425 18.5244C17.7999 18.5669 17.7421 18.5909 17.6818 18.5909Z" fill="white"/>
<path d="M15.1818 16.5455V16.0909C15.1818 16.0306 15.2058 15.9728 15.2484 15.9302C15.291 15.8876 15.3488 15.8636 15.4091 15.8636H19.5C19.5603 15.8636 19.6181 15.8876 19.6607 15.9302C19.7033 15.9728 19.7273 16.0306 19.7273 16.0909V16.5455C19.7273 16.6057 19.7033 16.6636 19.6607 16.7062C19.6181 16.7487 19.5603 16.7727 19.5 16.7727H15.4091C15.3488 16.7727 15.291 16.7487 15.2484 16.7062C15.2058 16.6636 15.1818 16.6057 15.1818 16.5455Z" fill="white"/>
<path opacity="0.05" d="M17.4545 11.3182C17.097 11.3188 16.7405 11.3569 16.3909 11.4318C16.4531 11.4864 16.4987 11.5572 16.5227 11.6364C16.5373 11.6804 16.5449 11.7264 16.5455 11.7727C16.5449 11.8032 16.5419 11.8336 16.5364 11.8636C16.8387 11.8033 17.1463 11.7728 17.4545 11.7727C18.4389 11.7718 19.3966 12.0927 20.1818 12.6864V12.1273C19.3713 11.5969 18.4232 11.3156 17.4545 11.3182ZM15.6364 11.7727C15.6354 11.7326 15.6415 11.6926 15.6545 11.6546C14.7128 12.0182 13.9032 12.6582 13.332 13.4906C12.7609 14.323 12.455 15.3087 12.4545 16.3182C12.4545 16.4727 12.4636 16.6227 12.4773 16.7727H12.9318C12.9182 16.6227 12.9091 16.4727 12.9091 16.3182C12.9089 15.4091 13.1818 14.521 13.6925 13.7688C14.203 13.0167 14.9277 12.4353 15.7727 12.1C15.717 12.0452 15.6776 11.9759 15.6591 11.9C15.6424 11.8597 15.6346 11.8163 15.6364 11.7727Z" fill="black"/>
<path opacity="0.07" d="M17.4545 11.5455C17.1417 11.5457 16.8297 11.5762 16.5227 11.6364C16.5373 11.6804 16.5449 11.7264 16.5455 11.7727C16.5449 11.8033 16.5419 11.8337 16.5364 11.8637C16.8387 11.8033 17.1463 11.7728 17.4545 11.7727C18.4389 11.7719 19.3966 12.0927 20.1818 12.6864V12.4046C19.3828 11.8444 18.4304 11.5444 17.4545 11.5455ZM12.6818 16.3182C12.6818 16.4727 12.6909 16.6227 12.7 16.7727H12.9318C12.9182 16.6227 12.9091 16.4727 12.9091 16.3182C12.9089 15.4091 13.1818 14.521 13.6925 13.7688C14.203 13.0167 14.9277 12.4354 15.7727 12.1C15.717 12.0452 15.6776 11.9759 15.6591 11.9C14.7798 12.2571 14.027 12.8681 13.4966 13.6551C12.9664 14.442 12.6826 15.3692 12.6818 16.3182Z" fill="black"/>
<defs>
<linearGradient id="paint0_linear_40_3222" x1="5.94818" y1="1.58726" x2="16.3545" y2="18.5186" gradientUnits="userSpaceOnUse">
<stop stop-color="#FFD869"/>
<stop offset="1" stop-color="#FEC52B"/>
</linearGradient>
<linearGradient id="paint1_linear_40_3222" x1="15.32" y1="12.3041" x2="19.5891" y2="20.3323" gradientUnits="userSpaceOnUse">
<stop stop-color="#21AD64"/>
<stop offset="1" stop-color="#088242"/>
</linearGradient>
</defs>
</svg>
