<svg width="24" height="24" viewBox="0 0 24 24" fill="none" xmlns="http://www.w3.org/2000/svg">
<path d="M19.7778 4.66669H11.2569C11.0213 4.66669 10.7951 4.57292 10.6284 4.40625L9.50133 3.27914C9.25156 3.02936 8.91244 2.88892 8.55867 2.88892H2.88889C2.39778 2.88892 2 3.28669 2 3.7778V17.1111C2 17.6022 2.39778 18 2.88889 18H6.44444C6.44444 17.5089 6.84222 17.1111 7.33333 17.1111C7.82444 17.1111 8.22222 17.5089 8.22222 18H14.4444C14.4444 17.5089 14.8422 17.1111 15.3333 17.1111C15.8244 17.1111 16.2222 17.5089 16.2222 18H19.7778C20.2689 18 20.6667 17.6022 20.6667 17.1111V5.55558C20.6667 5.06447 20.2689 4.66669 19.7778 4.66669Z" fill="url(#paint0_linear_40_3213)"/>
<path d="M5.55555 8.22225C5.55555 7.4858 6.15244 6.88892 6.88889 6.88892C7.62533 6.88892 8.22222 7.4858 8.22222 8.22225C8.22222 8.95869 7.62533 9.55558 6.88889 9.55558C6.15244 9.55558 5.55555 8.95869 5.55555 8.22225ZM6.88889 10.4445C5.66178 10.4445 4.66666 11.4396 4.66666 12.6667V14.4445C4.66666 14.6898 4.86578 14.8889 5.11111 14.8889H8.66666C8.912 14.8889 9.11111 14.6898 9.11111 14.4445V12.6667C9.11111 11.4396 8.116 10.4445 6.88889 10.4445Z" fill="#057093"/>
<path d="M17.5556 12.6667H12.2222C11.9769 12.6667 11.7778 12.8658 11.7778 13.1111C11.7778 13.3565 11.9769 13.5556 12.2222 13.5556H17.5556C17.8009 13.5556 18 13.3565 18 13.1111C18 12.8658 17.8009 12.6667 17.5556 12.6667Z" fill="#057093"/>
<path d="M17.5556 10.8889H12.2222C11.9769 10.8889 11.7778 11.088 11.7778 11.3334C11.7778 11.5787 11.9769 11.7778 12.2222 11.7778H17.5556C17.8009 11.7778 18 11.5787 18 11.3334C18 11.088 17.8009 10.8889 17.5556 10.8889Z" fill="#057093"/>
<path d="M17.5556 9.11115H12.2222C11.9769 9.11115 11.7778 9.31026 11.7778 9.55559C11.7778 9.80092 11.9769 10 12.2222 10H17.5556C17.8009 10 18 9.80092 18 9.55559C18 9.31026 17.8009 9.11115 17.5556 9.11115Z" fill="#057093"/>
<path d="M17.5556 12.2222L18.5907 12.8031L19.7778 12.8178L20.384 13.8382L21.4044 14.4445L21.4191 15.6316L22 16.6667L21.4191 17.7018L21.4044 18.8889L20.384 19.4951L19.7778 20.5156L18.5907 20.5302L17.5556 21.1111L16.5204 20.5302L15.3333 20.5156L14.7271 19.4951L13.7067 18.8889L13.692 17.7018L13.1111 16.6667L13.692 15.6316L13.7067 14.4445L14.7271 13.8382L15.3333 12.8178L16.5204 12.8031L17.5556 12.2222Z" fill="#FDB700"/>
<path d="M17.5556 19.7778C19.2738 19.7778 20.6667 18.3849 20.6667 16.6667C20.6667 14.9485 19.2738 13.5556 17.5556 13.5556C15.8373 13.5556 14.4444 14.9485 14.4444 16.6667C14.4444 18.3849 15.8373 19.7778 17.5556 19.7778Z" fill="url(#paint1_linear_40_3213)"/>
<defs>
<linearGradient id="paint0_linear_40_3213" x1="7.88533" y1="3.12092" x2="14.4111" y2="18.6636" gradientUnits="userSpaceOnUse">
<stop stop-color="#7DD8F3"/>
<stop offset="1" stop-color="#45B0D0"/>
</linearGradient>
<linearGradient id="paint1_linear_40_3213" x1="14.4444" y1="16.6667" x2="20.6667" y2="16.6667" gradientUnits="userSpaceOnUse">
<stop stop-color="#FEDE00"/>
<stop offset="1" stop-color="#FFD000"/>
</linearGradient>
</defs>
</svg>
