<svg width="24" height="24" viewBox="0 0 24 24" fill="none" xmlns="http://www.w3.org/2000/svg">
<path d="M21.7411 7.88908C21.7411 7.88908 20.7393 6.7009 19.4543 6.26954C18.1693 5.83863 15.2284 5.24954 15.0607 6.00908C15.5684 6.07999 15.7475 6.55226 15.742 6.87499C15.7384 7.08454 15.7111 8.05681 15.692 8.71408C15.6816 9.07862 15.9189 9.40453 16.2689 9.50681L19.647 10.4927C20.0134 10.5995 20.4043 10.4336 20.5816 10.0959L21.7411 7.88908Z" fill="url(#paint0_linear_40_3262)"/>
<path d="M2.25841 7.88908C2.25841 7.88908 3.26022 6.7009 4.54522 6.26954C5.83022 5.83863 8.77113 5.24954 8.93886 6.00908C8.43113 6.07999 8.25204 6.55226 8.25749 6.87499C8.26113 7.08454 8.2884 8.05681 8.30749 8.71408C8.31795 9.07862 8.08067 9.40453 7.73067 9.50681L4.3525 10.4927C3.98613 10.5995 3.59522 10.4336 3.41795 10.0959L2.25841 7.88908Z" fill="url(#paint1_linear_40_3262)"/>
<path d="M11.9998 5.8132C8.52887 5.8132 5.23614 6.56183 2.25842 7.8891L2.03024 7.0332C1.91842 6.6141 2.12433 6.16911 2.52251 5.99729C5.42978 4.7432 8.6325 4.04547 11.9998 4.04547C15.367 4.04547 18.5698 4.7432 21.4775 5.99683C21.8757 6.16865 22.0816 6.61365 21.9698 7.03274L21.7416 7.88865C18.7634 6.56138 15.4707 5.8132 11.9998 5.8132Z" fill="url(#paint2_linear_40_3262)"/>
<path d="M11.9998 15.4091C12.7529 15.4091 13.3634 14.7985 13.3634 14.0455C13.3634 13.2924 12.7529 12.6818 11.9998 12.6818C11.2467 12.6818 10.6361 13.2924 10.6361 14.0455C10.6361 14.7985 11.2467 15.4091 11.9998 15.4091Z" fill="#1B9DE2"/>
<path d="M11.9998 19.9546C12.7529 19.9546 13.3634 19.344 13.3634 18.5909C13.3634 17.8378 12.7529 17.2273 11.9998 17.2273C11.2467 17.2273 10.6361 17.8378 10.6361 18.5909C10.6361 19.344 11.2467 19.9546 11.9998 19.9546Z" fill="#1B9DE2"/>
<path d="M16.5452 15.4091C17.2983 15.4091 17.9088 14.7985 17.9088 14.0455C17.9088 13.2924 17.2983 12.6818 16.5452 12.6818C15.7921 12.6818 15.1816 13.2924 15.1816 14.0455C15.1816 14.7985 15.7921 15.4091 16.5452 15.4091Z" fill="#1B9DE2"/>
<path d="M16.5452 19.9546C17.2983 19.9546 17.9088 19.344 17.9088 18.5909C17.9088 17.8378 17.2983 17.2273 16.5452 17.2273C15.7921 17.2273 15.1816 17.8378 15.1816 18.5909C15.1816 19.344 15.7921 19.9546 16.5452 19.9546Z" fill="#1B9DE2"/>
<path d="M7.45432 15.4091C8.20744 15.4091 8.81795 14.7985 8.81795 14.0455C8.81795 13.2924 8.20744 12.6818 7.45432 12.6818C6.7012 12.6818 6.09068 13.2924 6.09068 14.0455C6.09068 14.7985 6.7012 15.4091 7.45432 15.4091Z" fill="#1B9DE2"/>
<path d="M7.45432 19.9546C8.20744 19.9546 8.81795 19.344 8.81795 18.5909C8.81795 17.8378 8.20744 17.2273 7.45432 17.2273C6.7012 17.2273 6.09068 17.8378 6.09068 18.5909C6.09068 19.344 6.7012 19.9546 7.45432 19.9546Z" fill="#1B9DE2"/>
<defs>
<linearGradient id="paint0_linear_40_3262" x1="17.3798" y1="5.85608" x2="17.9706" y2="11.1105" gradientUnits="userSpaceOnUse">
<stop stop-color="#0D61A9"/>
<stop offset="1" stop-color="#16528C"/>
</linearGradient>
<linearGradient id="paint1_linear_40_3262" x1="4.57752" y1="5.85608" x2="5.1683" y2="11.1105" gradientUnits="userSpaceOnUse">
<stop stop-color="#0D61A9"/>
<stop offset="1" stop-color="#16528C"/>
</linearGradient>
<linearGradient id="paint2_linear_40_3262" x1="12" y1="4.03741" x2="12" y2="7.87523" gradientUnits="userSpaceOnUse">
<stop stop-color="#2AA4F4"/>
<stop offset="1" stop-color="#007AD9"/>
</linearGradient>
</defs>
</svg>
