<svg width="24" height="24" viewBox="0 0 24 24" fill="none" xmlns="http://www.w3.org/2000/svg">
<path d="M21.0476 7.71432H7.71428C7.19047 7.71432 6.7619 7.28575 6.7619 6.76194V5.80956C6.7619 5.28575 7.19047 4.85718 7.71428 4.85718H21.0476C21.5714 4.85718 22 5.28575 22 5.80956V6.76194C22 7.28575 21.5714 7.71432 21.0476 7.71432Z" fill="#727D86"/>
<path d="M21.0476 13.4286H7.71428C7.19047 13.4286 6.7619 13 6.7619 12.4762V11.5239C6.7619 11 7.19047 10.5715 7.71428 10.5715H21.0476C21.5714 10.5715 22 11 22 11.5239V12.4762C22 13 21.5714 13.4286 21.0476 13.4286Z" fill="#727D86"/>
<path d="M21.0476 19.1429H7.71428C7.19047 19.1429 6.7619 18.7143 6.7619 18.1905V17.2381C6.7619 16.7143 7.19047 16.2858 7.71428 16.2858H21.0476C21.5714 16.2858 22 16.7143 22 17.2381V18.1905C22 18.7143 21.5714 19.1429 21.0476 19.1429Z" fill="#727D86"/>
<path d="M2.81 8.19051V5.5086C2.69 5.57955 2.56571 5.63384 2.43714 5.67098C2.30857 5.7086 2.16286 5.73574 2 5.75289V4.92146C2.23143 4.88193 2.44714 4.8186 2.64667 4.73336C2.84619 4.64717 3.05048 4.53003 3.25952 4.38098H3.90476V8.19051H2.81Z" fill="url(#paint0_linear_40_3254)"/>
<path d="M2 13.9048V13.6043C2 13.3919 2.02619 13.2072 2.07905 13.0505C2.1319 12.8938 2.21524 12.7467 2.32857 12.6091C2.44238 12.4715 2.63952 12.2948 2.92143 12.0786C3.1219 11.9219 3.25524 11.8091 3.32095 11.7405C3.38714 11.6715 3.43619 11.6053 3.46857 11.5405C3.50095 11.4762 3.51714 11.4062 3.51714 11.3315C3.51714 11.0824 3.36619 10.9577 3.06286 10.9577C2.75476 10.9577 2.46381 11.0681 2.18905 11.2896V10.3777C2.39857 10.2734 2.59429 10.2 2.77619 10.1581C2.96 10.1162 3.14667 10.0953 3.33857 10.0953C3.75048 10.0953 4.06952 10.1929 4.29476 10.3881C4.52 10.5834 4.63286 10.8567 4.63286 11.2086C4.63286 11.4786 4.57333 11.7077 4.45571 11.8958C4.33809 12.0838 4.11857 12.28 3.79857 12.4838C3.55381 12.6405 3.39095 12.7553 3.31095 12.8277C3.23095 12.9 3.19 12.9615 3.1881 13.0119H4.66667V13.9048H2Z" fill="url(#paint1_linear_40_3254)"/>
<path d="M4.66667 18.5015C4.66667 18.8558 4.52762 19.131 4.25 19.3262C3.97238 19.5215 3.57524 19.6191 3.0581 19.6191C2.86571 19.6191 2.67524 19.6039 2.48619 19.5743C2.29762 19.5443 2.13524 19.5043 2 19.4548V18.5967C2.12381 18.6653 2.26571 18.7191 2.42476 18.7586C2.58429 18.7981 2.74524 18.8177 2.90857 18.8177C3.09762 18.8177 3.24238 18.7862 3.34333 18.7239C3.44429 18.6615 3.49476 18.572 3.49476 18.4553C3.49476 18.3372 3.43286 18.2448 3.30905 18.1777C3.18476 18.111 3.01143 18.0777 2.78952 18.0777H2.40571V17.271H2.74476C2.96857 17.271 3.13429 17.2386 3.24048 17.1748C3.34667 17.1105 3.40048 17.0272 3.40048 16.9243C3.40048 16.8267 3.36048 16.7496 3.27952 16.6929C3.19905 16.6362 3.07571 16.6081 2.90905 16.6081C2.65143 16.6081 2.39429 16.6767 2.13619 16.8139V15.9943C2.4581 15.871 2.79762 15.8096 3.15286 15.8096C3.59333 15.8096 3.93857 15.8924 4.18857 16.0586C4.43857 16.2248 4.56381 16.4548 4.56381 16.7496C4.56381 16.9791 4.49619 17.1715 4.3619 17.3277C4.22762 17.4834 4.03905 17.5853 3.79714 17.6334V17.6462C4.06571 17.6805 4.27762 17.7753 4.43286 17.93C4.58905 18.0853 4.66667 18.2758 4.66667 18.5015Z" fill="url(#paint2_linear_40_3254)"/>
<defs>
<linearGradient id="paint0_linear_40_3254" x1="2.6959" y1="4.54704" x2="4.04523" y2="8.25705" gradientUnits="userSpaceOnUse">
<stop stop-color="#32BDEF"/>
<stop offset="1" stop-color="#1EA2E4"/>
</linearGradient>
<linearGradient id="paint1_linear_40_3254" x1="2.97427" y1="10.2614" x2="3.99656" y2="14.1965" gradientUnits="userSpaceOnUse">
<stop stop-color="#32BDEF"/>
<stop offset="1" stop-color="#1EA2E4"/>
</linearGradient>
<linearGradient id="paint2_linear_40_3254" x1="2.97427" y1="15.9757" x2="3.99656" y2="19.9108" gradientUnits="userSpaceOnUse">
<stop stop-color="#32BDEF"/>
<stop offset="1" stop-color="#1EA2E4"/>
</linearGradient>
</defs>
</svg>
