<svg width="24" height="24" viewBox="0 0 24 24" fill="none" xmlns="http://www.w3.org/2000/svg">
<path d="M12 5.58972C6.72001 5.58972 5.41026 12.5769 5.41026 12.5769C5.41026 14.0949 6.11539 15.4246 7.59129 15.7769C8.8559 16.079 10.4472 16.359 12 16.359C13.5528 16.359 15.1441 16.079 16.4082 15.7774C17.8846 15.4251 18.5892 14.0949 18.5892 12.5774C18.5898 12.5769 17.28 5.58972 12 5.58972Z" fill="url(#paint0_radial_40_3279)"/>
<path d="M12 15.1133C7.46821 15.1133 3.79488 17.6369 3.79488 20.3882V20.9744C3.79488 21.541 4.25385 22 4.82052 22H19.1795C19.7462 22 20.2051 21.541 20.2051 20.9744V20.3882C20.2051 17.6369 16.5318 15.1133 12 15.1133Z" fill="url(#paint1_linear_40_3279)"/>
<path d="M12 20.8215C12 20.8215 15.0769 18.5128 15.0769 16.0513C15.0769 15.8959 15.0769 15.7143 15.0769 15.522C14.1262 15.2625 13.0892 15.1138 12 15.1138C10.9108 15.1138 9.87385 15.2625 8.92308 15.522C8.92308 15.7143 8.92308 15.8959 8.92308 16.0513C8.92308 18.5128 12 20.8215 12 20.8215Z" fill="#75DAFF"/>
<path d="M14.5641 15.8462C14.5641 17.8974 12 19.9487 12 19.9487C12 19.9487 9.4359 17.8974 9.4359 15.8462C9.4359 14.4939 9.4359 11.2128 9.4359 11.2128H14.5641C14.5641 11.2128 14.5641 14.4939 14.5641 15.8462Z" fill="#D6A121"/>
<path d="M12 3.57483C14.0246 3.57483 16.1026 3.93021 16.1026 8.56047C16.1026 8.93124 16.1026 11.502 16.1026 11.8979C16.1026 13.5518 13.5903 15.8461 12 15.8461C10.4098 15.8461 7.89745 13.5518 7.89745 11.8984C7.89745 11.5025 7.89745 8.93175 7.89745 8.56098C7.89745 4.05124 9.97539 3.57483 12 3.57483Z" fill="url(#paint2_radial_40_3279)"/>
<path d="M12 3.02563C9.3395 3.02563 8.92309 4.5641 8.92309 4.5641C8.58104 4.61435 8.61898 4.16205 8.11642 4.5641C8.11642 4.5641 5.33334 6.62205 5.33334 12.5015C5.33334 14.4508 6.30924 15.1667 6.66668 15.3749C5.33334 8.00871 10.2441 10.7364 9.43591 6.10256C11.5108 12.1605 17.7913 4.59179 17.5749 15.1969C18.1933 14.7267 18.6667 13.7831 18.6667 12.5015C18.6667 7.33794 15.8857 4.5641 15.8857 4.5641C15.8857 4.5641 13.7057 3.02563 12 3.02563Z" fill="url(#paint3_radial_40_3279)"/>
<path d="M16.1026 7.12821H7.89745C7.89745 5.07692 8.41027 3.02564 8.41027 3.02564C8.41027 3.02564 8.47488 2 12 2C15.5257 2 15.5898 3.02564 15.5898 3.02564C15.5898 3.02564 16.1026 5.07692 16.1026 7.12821Z" fill="url(#paint4_linear_40_3279)"/>
<path d="M11.4872 3.02563H12.5128V6.10256H11.4872V3.02563Z" fill="#E52030"/>
<path d="M10.4615 4.05127H13.5385V5.07691H10.4615V4.05127Z" fill="#E52030"/>
<defs>
<radialGradient id="paint0_radial_40_3279" cx="0" cy="0" r="1" gradientUnits="userSpaceOnUse" gradientTransform="translate(11.8739 11.1559) scale(6.65846)">
<stop offset="0.376" stop-color="#261103"/>
<stop offset="0.68" stop-color="#431D06"/>
<stop offset="1" stop-color="#662C09"/>
</radialGradient>
<linearGradient id="paint1_linear_40_3279" x1="9.79539" y1="10.6446" x2="12.078" y2="20.9164" gradientUnits="userSpaceOnUse">
<stop stop-color="#75DAFF"/>
<stop offset="1" stop-color="#1EA2E4"/>
</linearGradient>
<radialGradient id="paint2_radial_40_3279" cx="0" cy="0" r="1" gradientUnits="userSpaceOnUse" gradientTransform="translate(12.0232 9.71105) rotate(180) scale(5.02292 5.31487)">
<stop stop-color="#FFCF54"/>
<stop offset="0.261" stop-color="#FDCB4D"/>
<stop offset="0.639" stop-color="#F7C13A"/>
<stop offset="1" stop-color="#F0B421"/>
</radialGradient>
<radialGradient id="paint3_radial_40_3279" cx="0" cy="0" r="1" gradientUnits="userSpaceOnUse" gradientTransform="translate(8.35078 3.25025) scale(15.8113)">
<stop stop-color="#C26715"/>
<stop offset="0.508" stop-color="#B85515"/>
<stop offset="1" stop-color="#AD3F16"/>
</radialGradient>
<linearGradient id="paint4_linear_40_3279" x1="10.98" y1="1.72564" x2="15.0292" y2="19.4846" gradientUnits="userSpaceOnUse">
<stop stop-color="#75DAFF"/>
<stop offset="1" stop-color="#1EA2E4"/>
</linearGradient>
</defs>
</svg>
