<svg width="24" height="24" viewBox="0 0 24 24" fill="none" xmlns="http://www.w3.org/2000/svg">
<path d="M21.4737 19.3684C21.4737 19.9494 21.0021 20.421 20.4211 20.421H8.31579C7.73474 20.421 7.26316 19.9494 7.26316 19.3684V4.63155C7.26316 4.0505 7.73474 3.57892 8.31579 3.57892H20.4211C21.0021 3.57892 21.4737 4.0505 21.4737 4.63155V19.3684Z" fill="url(#paint0_linear_40_3291)"/>
<path d="M11.2105 9.89471H12.7895C12.9347 9.89471 13.0526 10.0126 13.0526 10.1579V11.7368C13.0526 11.8821 12.9347 12 12.7895 12H11.2105C11.0653 12 10.9474 11.8821 10.9474 11.7368V10.1579C10.9474 10.0126 11.0653 9.89471 11.2105 9.89471ZM14.3684 9.89471H15.9474C16.0926 9.89471 16.2105 10.0126 16.2105 10.1579V11.7368C16.2105 11.8821 16.0926 12 15.9474 12H14.3684C14.2232 12 14.1053 11.8821 14.1053 11.7368V10.1579C14.1053 10.0126 14.2232 9.89471 14.3684 9.89471ZM17.5263 9.89471H19.1053C19.2505 9.89471 19.3684 10.0126 19.3684 10.1579V11.7368C19.3684 11.8821 19.2505 12 19.1053 12H17.5263C17.3811 12 17.2632 11.8821 17.2632 11.7368V10.1579C17.2632 10.0126 17.3811 9.89471 17.5263 9.89471ZM11.2105 13.0526H12.7895C12.9347 13.0526 13.0526 13.1705 13.0526 13.3158V14.8947C13.0526 15.04 12.9347 15.1579 12.7895 15.1579H11.2105C11.0653 15.1579 10.9474 15.04 10.9474 14.8947V13.3158C10.9474 13.1705 11.0653 13.0526 11.2105 13.0526ZM14.3684 13.0526H15.9474C16.0926 13.0526 16.2105 13.1705 16.2105 13.3158V14.8947C16.2105 15.04 16.0926 15.1579 15.9474 15.1579H14.3684C14.2232 15.1579 14.1053 15.04 14.1053 14.8947V13.3158C14.1053 13.1705 14.2232 13.0526 14.3684 13.0526ZM17.5263 13.0526H19.1053C19.2505 13.0526 19.3684 13.1705 19.3684 13.3158V14.8947C19.3684 15.04 19.2505 15.1579 19.1053 15.1579H17.5263C17.3811 15.1579 17.2632 15.04 17.2632 14.8947V13.3158C17.2632 13.1705 17.3811 13.0526 17.5263 13.0526ZM11.2105 16.2105H12.7895C12.9347 16.2105 13.0526 16.3284 13.0526 16.4737V18.0526C13.0526 18.1979 12.9347 18.3158 12.7895 18.3158H11.2105C11.0653 18.3158 10.9474 18.1979 10.9474 18.0526V16.4737C10.9474 16.3284 11.0653 16.2105 11.2105 16.2105ZM14.3684 16.2105H15.9474C16.0926 16.2105 16.2105 16.3284 16.2105 16.4737V18.0526C16.2105 18.1979 16.0926 18.3158 15.9474 18.3158H14.3684C14.2232 18.3158 14.1053 18.1979 14.1053 18.0526V16.4737C14.1053 16.3284 14.2232 16.2105 14.3684 16.2105ZM17.5263 16.2105H19.1053C19.2505 16.2105 19.3684 16.3284 19.3684 16.4737V18.0526C19.3684 18.1979 19.2505 18.3158 19.1053 18.3158H17.5263C17.3811 18.3158 17.2632 18.1979 17.2632 18.0526V16.4737C17.2632 16.3284 17.3811 16.2105 17.5263 16.2105Z" fill="#CAD2D9"/>
<path d="M5.68422 2C2.52632 2 2.52632 3.05263 2.52632 3.57895C2.52632 4.10526 2.52632 19.8947 2.52632 20.4211C2.52632 20.9474 2.49001 22 5.68422 22C8.87843 22 8.84211 20.9474 8.84211 20.4211C8.84211 19.8947 8.84211 4.10526 8.84211 3.57895C8.84211 3.05263 8.84211 2 5.68422 2Z" fill="url(#paint1_linear_40_3291)"/>
<path d="M18.8421 7.78947H11.4737C11.1832 7.78947 10.9474 7.55368 10.9474 7.26315V6.21052C10.9474 5.91999 11.1832 5.6842 11.4737 5.6842H18.8421C19.1326 5.6842 19.3684 5.91999 19.3684 6.21052V7.26315C19.3684 7.55368 19.1326 7.78947 18.8421 7.78947Z" fill="url(#paint2_linear_40_3291)"/>
<defs>
<linearGradient id="paint0_linear_40_3291" x1="13.2837" y1="3.32208" x2="15.3842" y2="20.1273" gradientUnits="userSpaceOnUse">
<stop stop-color="#0D61A9"/>
<stop offset="1" stop-color="#16528C"/>
</linearGradient>
<linearGradient id="paint1_linear_40_3291" x1="4.26001" y1="2.04158" x2="7.09632" y2="21.8932" gradientUnits="userSpaceOnUse">
<stop stop-color="#199AE0"/>
<stop offset="1" stop-color="#0782D8"/>
</linearGradient>
<linearGradient id="paint2_linear_40_3291" x1="11.9705" y1="5.26052" x2="19.0326" y2="8.53157" gradientUnits="userSpaceOnUse">
<stop stop-color="#4FE5FF"/>
<stop offset="1" stop-color="#2EB7ED"/>
</linearGradient>
</defs>
</svg>
