<svg width="24" height="24" viewBox="0 0 24 24" fill="none" xmlns="http://www.w3.org/2000/svg">
<path d="M7.03038 17.3592C5.54636 17.3592 4.33663 16.8759 3.40217 15.9098C2.46772 14.9437 2 13.6852 2 12.1335C2 10.4955 2.47454 9.17031 3.42361 8.15839C4.37317 7.14646 5.63113 6.64075 7.19701 6.64075C8.67567 6.64075 9.87176 7.12552 10.7848 8.09359C11.6978 9.06215 12.1543 10.3386 12.1543 11.924C12.1543 13.5522 11.6812 14.8652 10.7346 15.8625C9.78747 16.8603 8.55338 17.3592 7.03038 17.3592ZM7.13172 8.64998C6.31273 8.64998 5.66231 8.9574 5.18047 9.57128C4.69862 10.1861 4.45794 10.9993 4.45794 12.0112C4.45794 13.0373 4.69862 13.8494 5.18047 14.4467C5.66231 15.0445 6.29324 15.3427 7.07423 15.3427C7.8786 15.3427 8.51733 15.0523 8.98992 14.4716C9.46202 13.8913 9.69734 13.085 9.69734 12.0546C9.69734 10.9798 9.46835 10.1442 9.01087 9.54643C8.55338 8.94912 7.92684 8.64998 7.13172 8.64998Z" fill="url(#paint0_linear_40_3297)"/>
<path d="M21.4867 17.178H19.8141C19.6436 17.178 19.4838 17.0928 19.3888 16.951L16.2088 12.6163V16.6655C16.2088 16.9486 15.9793 17.1775 15.6968 17.1775H14.3872C14.1041 17.1775 13.8751 16.9481 13.8751 16.6655V7.32577C13.8751 7.04271 14.1046 6.81372 14.3872 6.81372H15.6968C15.9798 6.81372 16.2088 7.04319 16.2088 7.32577V11.2015L19.2446 7.04319C19.3396 6.89996 19.4999 6.81372 19.6719 6.81372H21.1705C21.5895 6.81372 21.8316 7.28972 21.5841 7.62833L18.5659 11.7574L21.9018 16.3654C22.1469 16.7045 21.9052 17.178 21.4867 17.178Z" fill="url(#paint1_linear_40_3297)"/>
<defs>
<linearGradient id="paint0_linear_40_3297" x1="7.07715" y1="6.61827" x2="7.07715" y2="17.3206" gradientUnits="userSpaceOnUse">
<stop stop-color="#2AA4F4"/>
<stop offset="1" stop-color="#007AD9"/>
</linearGradient>
<linearGradient id="paint1_linear_40_3297" x1="17.9375" y1="6.79198" x2="17.9375" y2="17.1406" gradientUnits="userSpaceOnUse">
<stop stop-color="#2AA4F4"/>
<stop offset="1" stop-color="#007AD9"/>
</linearGradient>
</defs>
</svg>
