<svg width="24" height="24" viewBox="0 0 24 24" fill="none" xmlns="http://www.w3.org/2000/svg">
<path d="M12 4.85714C12.7889 4.85714 13.4286 4.21755 13.4286 3.42857C13.4286 2.63959 12.7889 2 12 2C11.211 2 10.5714 2.63959 10.5714 3.42857C10.5714 4.21755 11.211 4.85714 12 4.85714Z" fill="#21A366"/>
<path d="M4.38095 9.14285C5.16993 9.14285 5.80952 8.50326 5.80952 7.71428C5.80952 6.9253 5.16993 6.28571 4.38095 6.28571C3.59197 6.28571 2.95238 6.9253 2.95238 7.71428C2.95238 8.50326 3.59197 9.14285 4.38095 9.14285Z" fill="#21A366"/>
<path d="M4.38095 17.7143C5.16993 17.7143 5.80952 17.0746 5.80952 16.2857C5.80952 15.4967 5.16993 14.8571 4.38095 14.8571C3.59197 14.8571 2.95238 15.4967 2.95238 16.2857C2.95238 17.0746 3.59197 17.7143 4.38095 17.7143Z" fill="#21A366"/>
<path d="M19.619 9.14285C20.408 9.14285 21.0476 8.50326 21.0476 7.71428C21.0476 6.9253 20.408 6.28571 19.619 6.28571C18.8301 6.28571 18.1905 6.9253 18.1905 7.71428C18.1905 8.50326 18.8301 9.14285 19.619 9.14285Z" fill="#21A366"/>
<path d="M19.619 17.7143C20.408 17.7143 21.0476 17.0746 21.0476 16.2857C21.0476 15.4967 20.408 14.8571 19.619 14.8571C18.8301 14.8571 18.1905 15.4967 18.1905 16.2857C18.1905 17.0746 18.8301 17.7143 19.619 17.7143Z" fill="#21A366"/>
<path d="M12 22C12.7889 22 13.4286 21.3604 13.4286 20.5715C13.4286 19.7825 12.7889 19.1429 12 19.1429C11.211 19.1429 10.5714 19.7825 10.5714 20.5715C10.5714 21.3604 11.211 22 12 22Z" fill="#21A366"/>
<path d="M17.2381 12C17.2381 14.8929 14.8929 17.2381 12 17.2381C9.10714 17.2381 6.7619 14.8929 6.7619 12C6.7619 9.10714 9.10714 6.7619 12 6.7619C14.8929 6.7619 17.2381 9.10714 17.2381 12Z" fill="url(#paint0_radial_40_3301)"/>
<path d="M12 17.2381C13.5176 17.2381 14.8805 16.5886 15.8371 15.5571C15.189 14.0805 13.7162 13.0476 12 13.0476C10.2838 13.0476 8.81094 14.0805 8.16284 15.5571C9.11951 16.5886 10.4824 17.2381 12 17.2381Z" fill="url(#paint1_radial_40_3301)"/>
<path d="M12 12.9524C13.3149 12.9524 14.3809 11.8864 14.3809 10.5714C14.3809 9.25648 13.3149 8.19049 12 8.19049C10.685 8.19049 9.61905 9.25648 9.61905 10.5714C9.61905 11.8864 10.685 12.9524 12 12.9524Z" fill="url(#paint2_radial_40_3301)"/>
<path d="M12 12.4762C13.052 12.4762 13.9048 11.6234 13.9048 10.5714C13.9048 9.51948 13.052 8.66669 12 8.66669C10.948 8.66669 10.0952 9.51948 10.0952 10.5714C10.0952 11.6234 10.948 12.4762 12 12.4762Z" fill="url(#paint3_linear_40_3301)"/>
<path d="M12 17.2381C13.3133 17.2381 14.5109 16.751 15.4305 15.9524C14.909 14.5624 13.5719 13.5715 12 13.5715C10.4281 13.5715 9.09095 14.5624 8.56951 15.9524C9.48904 16.751 10.6867 17.2381 12 17.2381Z" fill="url(#paint4_linear_40_3301)"/>
<defs>
<radialGradient id="paint0_radial_40_3301" cx="0" cy="0" r="1" gradientUnits="userSpaceOnUse" gradientTransform="translate(8.64143 7.91238) scale(10.5581)">
<stop stop-color="#0370C8"/>
<stop offset="0.484" stop-color="#036FC5"/>
<stop offset="0.775" stop-color="#036ABD"/>
<stop offset="1" stop-color="#0362B0"/>
</radialGradient>
<radialGradient id="paint1_radial_40_3301" cx="0" cy="0" r="1" gradientUnits="userSpaceOnUse" gradientTransform="translate(12 17.2662) scale(4.22714)">
<stop/>
<stop offset="1" stop-opacity="0"/>
</radialGradient>
<radialGradient id="paint2_radial_40_3301" cx="0" cy="0" r="1" gradientUnits="userSpaceOnUse" gradientTransform="translate(11.9996 10.5707) scale(2.38086)">
<stop/>
<stop offset="1" stop-opacity="0"/>
</radialGradient>
<linearGradient id="paint3_linear_40_3301" x1="10.7076" y1="9.27907" x2="13.3652" y2="11.9367" gradientUnits="userSpaceOnUse">
<stop stop-color="#75DAFF"/>
<stop offset="1" stop-color="#1EA2E4"/>
</linearGradient>
<linearGradient id="paint4_linear_40_3301" x1="10.1686" y1="13.8881" x2="13.8038" y2="17.5239" gradientUnits="userSpaceOnUse">
<stop stop-color="#75DAFF"/>
<stop offset="1" stop-color="#1EA2E4"/>
</linearGradient>
</defs>
</svg>
