<svg width="24" height="24" viewBox="0 0 24 24" fill="none" xmlns="http://www.w3.org/2000/svg">
<path d="M21.0476 4.38097V6.28573H2.95238V4.38097C2.95238 3.85716 3.38095 3.42859 3.90476 3.42859H20.0952C20.619 3.42859 21.0476 3.85716 21.0476 4.38097Z" fill="url(#paint0_linear_40_3368)"/>
<path d="M17.7143 5.33336C17.9772 5.33336 18.1905 5.12016 18.1905 4.85717C18.1905 4.59418 17.9772 4.38098 17.7143 4.38098C17.4513 4.38098 17.2381 4.59418 17.2381 4.85717C17.2381 5.12016 17.4513 5.33336 17.7143 5.33336Z" fill="url(#paint1_linear_40_3368)"/>
<path d="M19.619 5.33336C19.882 5.33336 20.0952 5.12016 20.0952 4.85717C20.0952 4.59418 19.882 4.38098 19.619 4.38098C19.3561 4.38098 19.1429 4.59418 19.1429 4.85717C19.1429 5.12016 19.3561 5.33336 19.619 5.33336Z" fill="url(#paint2_linear_40_3368)"/>
<path d="M2.95238 9.61908H21.0476V19.1429H2.95238V9.61908Z" fill="url(#paint3_linear_40_3368)"/>
<path d="M2.95238 19.1429H21.0476V19.6191C21.0476 20.1453 20.6214 20.5715 20.0952 20.5715H3.90476C3.37857 20.5715 2.95238 20.1453 2.95238 19.6191V19.1429Z" fill="#0A85D9"/>
<path d="M20.5714 9.14288H3.42857L2 10.5715V11.0476C2 11.5738 2.42619 12 2.95238 12H21.0476C21.5738 12 22 11.5738 22 11.0476V10.5715L20.5714 9.14288Z" fill="url(#paint4_linear_40_3368)"/>
<path d="M21.0476 6.28571H2.95238L2 10.5714H22L21.0476 6.28571Z" fill="url(#paint5_linear_40_3368)"/>
<path d="M10.5714 19.1429H5.80952V13.4286H10.5714V19.1429Z" fill="url(#paint6_linear_40_3368)"/>
<path d="M18.1905 17.7143H12.4762V13.4286H18.1905V17.7143Z" fill="url(#paint7_linear_40_3368)"/>
<defs>
<linearGradient id="paint0_linear_40_3368" x1="6.96122" y1="3.00295" x2="7.40382" y2="7.11777" gradientUnits="userSpaceOnUse">
<stop stop-color="#FCFCFC"/>
<stop offset="0.95" stop-color="#C3C9CD"/>
</linearGradient>
<linearGradient id="paint1_linear_40_3368" x1="17.7143" y1="4.37898" x2="17.7143" y2="5.32992" gradientUnits="userSpaceOnUse">
<stop stop-color="#2AA4F4"/>
<stop offset="1" stop-color="#007AD9"/>
</linearGradient>
<linearGradient id="paint2_linear_40_3368" x1="19.619" y1="4.37898" x2="19.619" y2="5.32992" gradientUnits="userSpaceOnUse">
<stop stop-color="#2AA4F4"/>
<stop offset="1" stop-color="#007AD9"/>
</linearGradient>
<linearGradient id="paint3_linear_40_3368" x1="8.65755" y1="9.7653" x2="11.5849" y2="20.4889" gradientUnits="userSpaceOnUse">
<stop stop-color="#7DD8F3"/>
<stop offset="1" stop-color="#45B0D0"/>
</linearGradient>
<linearGradient id="paint4_linear_40_3368" x1="6.43083" y1="8.71725" x2="6.8321" y2="12.8406" gradientUnits="userSpaceOnUse">
<stop stop-color="#FCFCFC"/>
<stop offset="0.95" stop-color="#C3C9CD"/>
</linearGradient>
<linearGradient id="paint5_linear_40_3368" x1="12" y1="6.27672" x2="12" y2="10.556" gradientUnits="userSpaceOnUse">
<stop stop-color="#2AA4F4"/>
<stop offset="1" stop-color="#007AD9"/>
</linearGradient>
<linearGradient id="paint6_linear_40_3368" x1="8.19048" y1="13.4166" x2="8.19048" y2="19.1222" gradientUnits="userSpaceOnUse">
<stop stop-color="#2AA4F4"/>
<stop offset="1" stop-color="#007AD9"/>
</linearGradient>
<linearGradient id="paint7_linear_40_3368" x1="15.3333" y1="13.4196" x2="15.3333" y2="17.6989" gradientUnits="userSpaceOnUse">
<stop stop-color="#2AA4F4"/>
<stop offset="1" stop-color="#007AD9"/>
</linearGradient>
</defs>
</svg>
