<svg width="24" height="24" viewBox="0 0 24 24" fill="none" xmlns="http://www.w3.org/2000/svg">
<path d="M2 17.5237V6.3042H21.5122V17.5237C21.5122 18.0603 21.0732 18.4993 20.5366 18.4993H2.97561C2.43902 18.4993 2 18.0603 2 17.5237Z" fill="url(#paint0_linear_40_3383)"/>
<path d="M21.5122 3.8652V6.30422H2V3.8652C2 3.32861 2.43902 2.88959 2.97561 2.88959H20.5366C21.0732 2.88959 21.5122 3.32861 21.5122 3.8652Z" fill="url(#paint1_linear_40_3383)"/>
<path d="M18.8293 9.71884H7.60976C7.47513 9.71884 7.36586 9.60957 7.36586 9.47493V8.98713C7.36586 8.85249 7.47513 8.74323 7.60976 8.74323H18.8293C18.9639 8.74323 19.0732 8.85249 19.0732 8.98713V9.47493C19.0732 9.60957 18.9639 9.71884 18.8293 9.71884Z" fill="url(#paint2_linear_40_3383)"/>
<path d="M18.8293 11.6701H7.60976C7.47513 11.6701 7.36586 11.5608 7.36586 11.4262V10.9384C7.36586 10.8037 7.47513 10.6945 7.60976 10.6945H18.8293C18.9639 10.6945 19.0732 10.8037 19.0732 10.9384V11.4262C19.0732 11.5608 18.9639 11.6701 18.8293 11.6701Z" fill="url(#paint3_linear_40_3383)"/>
<path d="M18.8293 13.6213H7.60976C7.47513 13.6213 7.36586 13.512 7.36586 13.3774V12.8896C7.36586 12.755 7.47513 12.6457 7.60976 12.6457H18.8293C18.9639 12.6457 19.0732 12.755 19.0732 12.8896V13.3774C19.0732 13.512 18.9639 13.6213 18.8293 13.6213Z" fill="url(#paint4_linear_40_3383)"/>
<path d="M19.0732 15.5725H7.60976C7.47513 15.5725 7.36586 15.4633 7.36586 15.3286V14.8408C7.36586 14.7062 7.47513 14.5969 7.60976 14.5969H19.0732V15.5725Z" fill="url(#paint5_linear_40_3383)"/>
<path d="M4.68293 9.71884H5.17073C5.30537 9.71884 5.41464 9.60957 5.41464 9.47493V8.98713C5.41464 8.85249 5.30537 8.74323 5.17073 8.74323H4.68293C4.54829 8.74323 4.43903 8.85249 4.43903 8.98713V9.47493C4.43903 9.60957 4.54829 9.71884 4.68293 9.71884Z" fill="url(#paint6_linear_40_3383)"/>
<path d="M4.68293 11.6701H5.17073C5.30537 11.6701 5.41464 11.5608 5.41464 11.4262V10.9384C5.41464 10.8037 5.30537 10.6945 5.17073 10.6945H4.68293C4.54829 10.6945 4.43903 10.8037 4.43903 10.9384V11.4262C4.43903 11.5608 4.54829 11.6701 4.68293 11.6701Z" fill="url(#paint7_linear_40_3383)"/>
<path d="M4.68293 13.6213H5.17073C5.30537 13.6213 5.41464 13.512 5.41464 13.3774V12.8896C5.41464 12.755 5.30537 12.6457 5.17073 12.6457H4.68293C4.54829 12.6457 4.43903 12.755 4.43903 12.8896V13.3774C4.43903 13.512 4.54829 13.6213 4.68293 13.6213Z" fill="url(#paint8_linear_40_3383)"/>
<path d="M4.68293 15.5725H5.17073C5.30537 15.5725 5.41464 15.4633 5.41464 15.3286V14.8408C5.41464 14.7062 5.30537 14.5969 5.17073 14.5969H4.68293C4.54829 14.5969 4.43903 14.7062 4.43903 14.8408V15.3286C4.43903 15.4633 4.54829 15.5725 4.68293 15.5725Z" fill="url(#paint9_linear_40_3383)"/>
<path opacity="0.05" d="M21.5122 17.5238H20.5366V15.0847C20.5366 14.5467 20.099 14.1091 19.561 14.1091H18.5854C18.0473 14.1091 17.6098 14.5467 17.6098 15.0847V17.5238H16.4425C16.1244 17.5238 15.8405 17.7135 15.7186 18.0077C15.6522 18.1682 15.6468 18.3394 15.6878 18.4994H20.5366C21.0732 18.4994 21.5122 18.0604 21.5122 17.5238Z" fill="black"/>
<path opacity="0.07" d="M21.4771 17.7677H20.2927V15.0847C20.2927 14.6813 19.9644 14.353 19.561 14.353H18.5854C18.182 14.353 17.8537 14.6813 17.8537 15.0847V17.7677H16.4425C16.2234 17.7677 16.0278 17.8984 15.9439 18.1008C15.8898 18.2321 15.8951 18.373 15.9444 18.4994H20.5366C20.9883 18.4994 21.3678 18.1867 21.4771 17.7677Z" fill="black"/>
<path d="M21.7039 18.0116H20.0488V15.0847C20.0488 14.8155 19.8303 14.5969 19.561 14.5969H18.5854C18.3161 14.5969 18.0976 14.8155 18.0976 15.0847V18.0116H16.4424C16.179 18.0116 16.0473 18.3301 16.2337 18.516L18.6551 20.9374C18.8859 21.1681 19.2605 21.1681 19.4912 20.9374L21.9127 18.516C22.099 18.3301 21.9673 18.0116 21.7039 18.0116Z" fill="url(#paint10_linear_40_3383)"/>
<defs>
<linearGradient id="paint0_linear_40_3383" x1="6.62439" y1="4.64225" x2="15.48" y2="17.452" gradientUnits="userSpaceOnUse">
<stop stop-color="#7DD8F3"/>
<stop offset="1" stop-color="#45B0D0"/>
</linearGradient>
<linearGradient id="paint1_linear_40_3383" x1="2.29951" y1="2.76325" x2="20.9932" y2="6.56422" gradientUnits="userSpaceOnUse">
<stop stop-color="#0077D2"/>
<stop offset="1" stop-color="#0B59A2"/>
</linearGradient>
<linearGradient id="paint2_linear_40_3383" x1="13.2195" y1="8.74323" x2="13.2195" y2="9.71884" gradientUnits="userSpaceOnUse">
<stop offset="0.0260417" stop-color="#057093" stop-opacity="0.53"/>
<stop offset="0.494792" stop-color="#057093" stop-opacity="0.756203"/>
<stop offset="0.9375" stop-color="#057093" stop-opacity="0.756203"/>
<stop offset="1" stop-color="#057093"/>
</linearGradient>
<linearGradient id="paint3_linear_40_3383" x1="13.2195" y1="10.6945" x2="13.2195" y2="11.6701" gradientUnits="userSpaceOnUse">
<stop offset="0.0260417" stop-color="#057093" stop-opacity="0.53"/>
<stop offset="0.494792" stop-color="#057093" stop-opacity="0.756203"/>
<stop offset="0.9375" stop-color="#057093" stop-opacity="0.756203"/>
<stop offset="1" stop-color="#057093"/>
</linearGradient>
<linearGradient id="paint4_linear_40_3383" x1="13.2195" y1="12.6457" x2="13.2195" y2="13.6213" gradientUnits="userSpaceOnUse">
<stop offset="0.0260417" stop-color="#057093" stop-opacity="0.53"/>
<stop offset="0.494792" stop-color="#057093" stop-opacity="0.756203"/>
<stop offset="0.9375" stop-color="#057093" stop-opacity="0.756203"/>
<stop offset="1" stop-color="#057093"/>
</linearGradient>
<linearGradient id="paint5_linear_40_3383" x1="13.2195" y1="14.5969" x2="13.2195" y2="15.5725" gradientUnits="userSpaceOnUse">
<stop offset="0.0260417" stop-color="#057093" stop-opacity="0.53"/>
<stop offset="0.494792" stop-color="#057093" stop-opacity="0.756203"/>
<stop offset="0.9375" stop-color="#057093" stop-opacity="0.756203"/>
<stop offset="1" stop-color="#057093"/>
</linearGradient>
<linearGradient id="paint6_linear_40_3383" x1="4.92683" y1="8.74323" x2="4.92683" y2="9.71884" gradientUnits="userSpaceOnUse">
<stop offset="0.0260417" stop-color="#057093" stop-opacity="0.53"/>
<stop offset="0.494792" stop-color="#057093" stop-opacity="0.756203"/>
<stop offset="0.9375" stop-color="#057093" stop-opacity="0.756203"/>
<stop offset="1" stop-color="#057093"/>
</linearGradient>
<linearGradient id="paint7_linear_40_3383" x1="4.92683" y1="10.6945" x2="4.92683" y2="11.6701" gradientUnits="userSpaceOnUse">
<stop offset="0.0260417" stop-color="#057093" stop-opacity="0.53"/>
<stop offset="0.494792" stop-color="#057093" stop-opacity="0.756203"/>
<stop offset="0.9375" stop-color="#057093" stop-opacity="0.756203"/>
<stop offset="1" stop-color="#057093"/>
</linearGradient>
<linearGradient id="paint8_linear_40_3383" x1="4.92683" y1="12.6457" x2="4.92683" y2="13.6213" gradientUnits="userSpaceOnUse">
<stop offset="0.0260417" stop-color="#057093" stop-opacity="0.53"/>
<stop offset="0.494792" stop-color="#057093" stop-opacity="0.756203"/>
<stop offset="0.9375" stop-color="#057093" stop-opacity="0.756203"/>
<stop offset="1" stop-color="#057093"/>
</linearGradient>
<linearGradient id="paint9_linear_40_3383" x1="4.92683" y1="14.5969" x2="4.92683" y2="15.5725" gradientUnits="userSpaceOnUse">
<stop offset="0.0260417" stop-color="#057093" stop-opacity="0.53"/>
<stop offset="0.494792" stop-color="#057093" stop-opacity="0.756203"/>
<stop offset="0.9375" stop-color="#057093" stop-opacity="0.756203"/>
<stop offset="1" stop-color="#057093"/>
</linearGradient>
<linearGradient id="paint10_linear_40_3383" x1="16.1464" y1="17.8537" x2="22" y2="17.8537" gradientUnits="userSpaceOnUse">
<stop stop-color="#FFD869"/>
<stop offset="0.765625" stop-color="#F2C032"/>
<stop offset="1" stop-color="#FFD869"/>
</linearGradient>
</defs>
</svg>
