<svg width="24" height="24" viewBox="0 0 24 24" fill="none" xmlns="http://www.w3.org/2000/svg">
<path d="M17.4761 19.1424H5.0954C4.56922 19.1424 4.14304 18.7163 4.14304 18.1901V2.95236C4.14304 2.42618 4.56922 2 5.0954 2H17.4761C18.0022 2 18.4284 2.42618 18.4284 2.95236V18.1901C18.4284 18.7163 18.0022 19.1424 17.4761 19.1424Z" fill="url(#paint0_linear_40_3398)"/>
<path d="M16.5237 18.1901V16.7615H2.23833V18.1901C2.23833 18.7163 2.66451 19.1424 3.19069 19.1424H17.4761C16.9499 19.1424 16.5237 18.7163 16.5237 18.1901Z" fill="url(#paint1_linear_40_3398)"/>
<path d="M15.8094 8.19032H9.6191C9.48768 8.19032 9.38101 8.08365 9.38101 7.95223V6.99987C9.38101 6.86844 9.48768 6.76178 9.6191 6.76178H15.8094C15.9409 6.76178 16.0475 6.86844 16.0475 6.99987V7.95223C16.0475 8.08365 15.9409 8.19032 15.8094 8.19032Z" fill="url(#paint2_linear_40_3398)"/>
<path d="M15.8094 11.0474H9.6191C9.48768 11.0474 9.38101 10.9408 9.38101 10.8093V9.85699C9.38101 9.72556 9.48768 9.6189 9.6191 9.6189H15.8094C15.9409 9.6189 16.0475 9.72556 16.0475 9.85699V10.8093C16.0475 10.9408 15.9409 11.0474 15.8094 11.0474Z" fill="url(#paint3_linear_40_3398)"/>
<path d="M15.8094 13.9045H9.6191C9.48768 13.9045 9.38101 13.7978 9.38101 13.6664V12.714C9.38101 12.5826 9.48768 12.476 9.6191 12.476H15.8094C15.9409 12.476 16.0475 12.5826 16.0475 12.714V13.6664C16.0475 13.7978 15.9409 13.9045 15.8094 13.9045Z" fill="url(#paint4_linear_40_3398)"/>
<path opacity="0.05" d="M14.6718 19.1424H18.4284V11.9998H14.3966C13.9942 11.9998 13.6666 12.3559 13.6666 12.7935V13.1107C13.6666 13.4535 13.8633 13.7445 14.1428 13.8554V14.063C14.1428 14.4049 14.3395 14.6954 14.619 14.8073C14.6257 15.7949 15.0885 16.6925 15.8528 17.2377C15.2275 17.6844 14.8085 18.3682 14.6718 19.1424Z" fill="black"/>
<path d="M7.71439 8.19032H6.76203C6.63061 8.19032 6.52394 8.08365 6.52394 7.95223V6.99987C6.52394 6.86844 6.63061 6.76178 6.76203 6.76178H7.71439C7.84581 6.76178 7.95248 6.86844 7.95248 6.99987V7.95223C7.95248 8.08365 7.84581 8.19032 7.71439 8.19032Z" fill="url(#paint5_linear_40_3398)"/>
<path d="M7.71439 11.0474H6.76203C6.63061 11.0474 6.52394 10.9408 6.52394 10.8093V9.85699C6.52394 9.72556 6.63061 9.6189 6.76203 9.6189H7.71439C7.84581 9.6189 7.95248 9.72556 7.95248 9.85699V10.8093C7.95248 10.9408 7.84581 11.0474 7.71439 11.0474Z" fill="url(#paint6_linear_40_3398)"/>
<path d="M7.71439 13.9045H6.76203C6.63061 13.9045 6.52394 13.7978 6.52394 13.6664V12.714C6.52394 12.5826 6.63061 12.476 6.76203 12.476H7.71439C7.84581 12.476 7.95248 12.5826 7.95248 12.714V13.6664C7.95248 13.7978 7.84581 13.9045 7.71439 13.9045Z" fill="url(#paint7_linear_40_3398)"/>
<path opacity="0.07" d="M14.9156 19.1425H18.4284V12.2379H14.3966C14.1252 12.2379 13.9047 12.4869 13.9047 12.7936V13.1107C13.9047 13.4112 14.1171 13.6564 14.3809 13.6659V14.063C14.3809 14.3626 14.5928 14.6078 14.8571 14.6183V14.7859C14.8571 15.8435 15.4323 16.7839 16.3075 17.2377C15.5875 17.6115 15.0766 18.3163 14.9156 19.1425Z" fill="black"/>
<path d="M20.8093 14.7859V13.2278H15.0952V14.7859C15.0952 15.9321 15.8361 16.9316 16.8932 17.2097L16.9999 17.2377L16.8932 17.2658C15.8361 17.5439 15.0952 18.5434 15.0952 19.6896V21.2477H20.8093V19.6896C20.8093 18.5434 20.0684 17.5439 19.0113 17.2658L18.9046 17.2377L19.0113 17.2097C20.0684 16.9316 20.8093 15.9321 20.8093 14.7859Z" fill="url(#paint8_radial_40_3398)"/>
<path d="M18.3627 19.3648C18.3241 19.1405 18.1375 18.9667 17.9022 18.9667C17.667 18.9667 17.4803 19.1405 17.4418 19.3648C16.8137 19.6243 15.897 20.2915 15.897 21.2476H19.9069C19.9069 20.2919 18.9908 19.6248 18.3627 19.3648Z" fill="url(#paint9_linear_40_3398)"/>
<path d="M17.9022 18.491C18.1652 18.491 18.3784 18.2779 18.3784 18.0148C18.3784 17.7519 18.1652 17.5386 17.9022 17.5386C17.6393 17.5386 17.4261 17.7519 17.4261 18.0148C17.4261 18.2779 17.6393 18.491 17.9022 18.491Z" fill="url(#paint10_linear_40_3398)"/>
<path d="M21.0293 14.3806H14.8752C14.7337 14.3806 14.619 14.2383 14.619 14.063V13.4283H21.2855V14.063C21.2855 14.2383 21.1707 14.3806 21.0293 14.3806Z" fill="url(#paint11_linear_40_3398)"/>
<path d="M21.2855 20.4124V21.0471H14.619V20.4124C14.619 20.2372 14.7337 20.0948 14.8752 20.0948H21.0288C21.1707 20.0948 21.2855 20.2372 21.2855 20.4124Z" fill="url(#paint12_linear_40_3398)"/>
<path d="M21.5079 13.4283H14.3966C14.2566 13.4283 14.1428 13.2859 14.1428 13.1107V12.7931C14.1428 12.6183 14.2566 12.476 14.3966 12.476H21.5074C21.6479 12.476 21.7617 12.6183 21.7617 12.7936V13.1112C21.7617 13.2859 21.6479 13.4283 21.5079 13.4283Z" fill="url(#paint13_linear_40_3398)"/>
<path d="M16.0475 15.8092C16.0475 16.5235 17.7408 17.2377 17.9522 17.2377C18.1637 17.2377 19.857 16.5235 19.857 15.8092H16.0475Z" fill="url(#paint14_linear_40_3398)"/>
<path d="M14.3933 21.0472H21.4107C21.5493 21.0472 21.6612 21.1896 21.6612 21.3648V21.6824C21.6612 21.8576 21.5488 22 21.4107 22H14.3933C14.2552 21.9995 14.1428 21.8572 14.1428 21.6819V21.3643C14.1428 21.1896 14.2552 21.0472 14.3933 21.0472Z" fill="url(#paint15_linear_40_3398)"/>
<defs>
<linearGradient id="paint0_linear_40_3398" x1="6.50108" y1="2.68094" x2="16.7075" y2="19.5124" gradientUnits="userSpaceOnUse">
<stop stop-color="#7DD8F3"/>
<stop offset="1" stop-color="#45B0D0"/>
</linearGradient>
<linearGradient id="paint1_linear_40_3398" x1="9.85719" y1="16.8968" x2="9.85719" y2="19.1472" gradientUnits="userSpaceOnUse">
<stop stop-color="#0176D0"/>
<stop offset="1" stop-color="#16538C"/>
</linearGradient>
<linearGradient id="paint2_linear_40_3398" x1="12.7143" y1="6.76178" x2="12.7143" y2="8.19032" gradientUnits="userSpaceOnUse">
<stop offset="0.0260417" stop-color="#057093" stop-opacity="0.53"/>
<stop offset="0.494792" stop-color="#057093" stop-opacity="0.756203"/>
<stop offset="0.9375" stop-color="#057093" stop-opacity="0.756203"/>
<stop offset="1" stop-color="#057093"/>
</linearGradient>
<linearGradient id="paint3_linear_40_3398" x1="12.7143" y1="9.6189" x2="12.7143" y2="11.0474" gradientUnits="userSpaceOnUse">
<stop offset="0.0260417" stop-color="#057093" stop-opacity="0.53"/>
<stop offset="0.494792" stop-color="#057093" stop-opacity="0.756203"/>
<stop offset="0.9375" stop-color="#057093" stop-opacity="0.756203"/>
<stop offset="1" stop-color="#057093"/>
</linearGradient>
<linearGradient id="paint4_linear_40_3398" x1="12.7143" y1="12.476" x2="12.7143" y2="13.9045" gradientUnits="userSpaceOnUse">
<stop offset="0.0260417" stop-color="#057093" stop-opacity="0.53"/>
<stop offset="0.494792" stop-color="#057093" stop-opacity="0.756203"/>
<stop offset="0.9375" stop-color="#057093" stop-opacity="0.756203"/>
<stop offset="1" stop-color="#057093"/>
</linearGradient>
<linearGradient id="paint5_linear_40_3398" x1="7.23821" y1="6.76178" x2="7.23821" y2="8.19032" gradientUnits="userSpaceOnUse">
<stop offset="0.0260417" stop-color="#057093" stop-opacity="0.53"/>
<stop offset="0.494792" stop-color="#057093" stop-opacity="0.756203"/>
<stop offset="0.9375" stop-color="#057093" stop-opacity="0.756203"/>
<stop offset="1" stop-color="#057093"/>
</linearGradient>
<linearGradient id="paint6_linear_40_3398" x1="7.23821" y1="9.6189" x2="7.23821" y2="11.0474" gradientUnits="userSpaceOnUse">
<stop offset="0.0260417" stop-color="#057093" stop-opacity="0.53"/>
<stop offset="0.494792" stop-color="#057093" stop-opacity="0.756203"/>
<stop offset="0.9375" stop-color="#057093" stop-opacity="0.756203"/>
<stop offset="1" stop-color="#057093"/>
</linearGradient>
<linearGradient id="paint7_linear_40_3398" x1="7.23821" y1="12.476" x2="7.23821" y2="13.9045" gradientUnits="userSpaceOnUse">
<stop offset="0.0260417" stop-color="#057093" stop-opacity="0.53"/>
<stop offset="0.494792" stop-color="#057093" stop-opacity="0.756203"/>
<stop offset="0.9375" stop-color="#057093" stop-opacity="0.756203"/>
<stop offset="1" stop-color="#057093"/>
</linearGradient>
<radialGradient id="paint8_radial_40_3398" cx="0" cy="0" r="1" gradientUnits="userSpaceOnUse" gradientTransform="translate(17.9522 17.2377) scale(3.48135)">
<stop stop-color="#FAFAFB"/>
<stop offset="1" stop-color="#C8CDD1"/>
</radialGradient>
<linearGradient id="paint9_linear_40_3398" x1="17.9022" y1="21.7362" x2="17.9022" y2="19.0405" gradientUnits="userSpaceOnUse">
<stop stop-color="#FFD869"/>
<stop offset="1" stop-color="#FFD869"/>
</linearGradient>
<linearGradient id="paint10_linear_40_3398" x1="17.4261" y1="18.0148" x2="18.3784" y2="18.0148" gradientUnits="userSpaceOnUse">
<stop stop-color="#FFD869"/>
<stop offset="0.765625" stop-color="#F2C032"/>
<stop offset="1" stop-color="#FFD869"/>
</linearGradient>
<linearGradient id="paint11_linear_40_3398" x1="16.0959" y1="13.2864" x2="16.2296" y2="14.6608" gradientUnits="userSpaceOnUse">
<stop stop-color="#FCFCFC"/>
<stop offset="0.95" stop-color="#C3C9CD"/>
</linearGradient>
<linearGradient id="paint12_linear_40_3398" x1="15.2616" y1="20.1308" x2="15.7053" y2="22.0618" gradientUnits="userSpaceOnUse">
<stop stop-color="#A1AAB3"/>
<stop offset="1" stop-color="#8F979E"/>
</linearGradient>
<linearGradient id="paint13_linear_40_3398" x1="16.7877" y1="12.5176" x2="16.8076" y2="13.5551" gradientUnits="userSpaceOnUse">
<stop stop-color="#0D61A9"/>
<stop offset="1" stop-color="#16528C"/>
</linearGradient>
<linearGradient id="paint14_linear_40_3398" x1="16.0475" y1="16.5235" x2="19.857" y2="16.5235" gradientUnits="userSpaceOnUse">
<stop stop-color="#FFD869"/>
<stop offset="0.765625" stop-color="#F2C032"/>
<stop offset="1" stop-color="#FFD869"/>
</linearGradient>
<linearGradient id="paint15_linear_40_3398" x1="16.7528" y1="21.0889" x2="16.773" y2="22.1269" gradientUnits="userSpaceOnUse">
<stop stop-color="#0D61A9"/>
<stop offset="1" stop-color="#16528C"/>
</linearGradient>
</defs>
</svg>
