<svg width="24" height="24" viewBox="0 0 24 24" fill="none" xmlns="http://www.w3.org/2000/svg">
<path d="M19.8947 20.9474C19.8947 21.5289 19.4237 22 18.8421 22H5.15789C4.57632 22 4.10526 21.5289 4.10526 20.9474V3.05263C4.10526 2.47105 4.57632 2 5.15789 2H18.8421C19.4237 2 19.8947 2.47105 19.8947 3.05263V20.9474Z" fill="url(#paint0_linear_40_3426)"/>
<path d="M14.8947 12H7C6.85473 12 6.73684 11.8821 6.73684 11.7369V11.2105C6.73684 11.0653 6.85473 10.9474 7 10.9474H14.8947C15.04 10.9474 15.1579 11.0653 15.1579 11.2105V11.7369C15.1579 11.8821 15.04 12 14.8947 12Z" fill="url(#paint1_linear_40_3426)"/>
<path d="M17 7.78947H7C6.85473 7.78947 6.73684 7.67157 6.73684 7.52631V5.94736C6.73684 5.8021 6.85473 5.6842 7 5.6842H17C17.1453 5.6842 17.2632 5.8021 17.2632 5.94736V7.52631C17.2632 7.67157 17.1453 7.78947 17 7.78947Z" fill="url(#paint2_linear_40_3426)"/>
<path d="M17 12H16.4737C16.3284 12 16.2105 11.8821 16.2105 11.7369V11.2105C16.2105 11.0653 16.3284 10.9474 16.4737 10.9474H17C17.1453 10.9474 17.2632 11.0653 17.2632 11.2105V11.7369C17.2632 11.8821 17.1453 12 17 12Z" fill="url(#paint3_linear_40_3426)"/>
<path d="M13.8421 14.1052H7C6.85473 14.1052 6.73684 13.9873 6.73684 13.8421V13.3158C6.73684 13.1705 6.85473 13.0526 7 13.0526H13.8421C13.9874 13.0526 14.1053 13.1705 14.1053 13.3158V13.8421C14.1053 13.9873 13.9874 14.1052 13.8421 14.1052Z" fill="url(#paint4_linear_40_3426)"/>
<path d="M17 14.1052H16.4737C16.3284 14.1052 16.2105 13.9873 16.2105 13.8421V13.3158C16.2105 13.1705 16.3284 13.0526 16.4737 13.0526H17C17.1453 13.0526 17.2632 13.1705 17.2632 13.3158V13.8421C17.2632 13.9873 17.1453 14.1052 17 14.1052Z" fill="url(#paint5_linear_40_3426)"/>
<path d="M14.8947 16.2105H7C6.85473 16.2105 6.73684 16.0926 6.73684 15.9474V15.4211C6.73684 15.2758 6.85473 15.1579 7 15.1579H14.8947C15.04 15.1579 15.1579 15.2758 15.1579 15.4211V15.9474C15.1579 16.0926 15.04 16.2105 14.8947 16.2105Z" fill="url(#paint6_linear_40_3426)"/>
<path d="M17 16.2105H16.4737C16.3284 16.2105 16.2105 16.0926 16.2105 15.9474V15.4211C16.2105 15.2758 16.3284 15.1579 16.4737 15.1579H17C17.1453 15.1579 17.2632 15.2758 17.2632 15.4211V15.9474C17.2632 16.0926 17.1453 16.2105 17 16.2105Z" fill="url(#paint7_linear_40_3426)"/>
<path d="M13.8421 18.3158H7C6.85473 18.3158 6.73684 18.1979 6.73684 18.0527V17.5263C6.73684 17.3811 6.85473 17.2632 7 17.2632H13.8421C13.9874 17.2632 14.1053 17.3811 14.1053 17.5263V18.0527C14.1053 18.1979 13.9874 18.3158 13.8421 18.3158Z" fill="url(#paint8_linear_40_3426)"/>
<path d="M17 18.3158H16.4737C16.3284 18.3158 16.2105 18.1979 16.2105 18.0527V17.5263C16.2105 17.3811 16.3284 17.2632 16.4737 17.2632H17C17.1453 17.2632 17.2632 17.3811 17.2632 17.5263V18.0527C17.2632 18.1979 17.1453 18.3158 17 18.3158Z" fill="url(#paint9_linear_40_3426)"/>
<defs>
<linearGradient id="paint0_linear_40_3426" x1="9.08346" y1="2.30706" x2="20.1877" y2="19.2096" gradientUnits="userSpaceOnUse">
<stop stop-color="#7DD8F3"/>
<stop offset="1" stop-color="#45B0D0"/>
</linearGradient>
<linearGradient id="paint1_linear_40_3426" x1="10.9474" y1="10.9474" x2="10.9474" y2="12" gradientUnits="userSpaceOnUse">
<stop offset="0.0260417" stop-color="#057093" stop-opacity="0.53"/>
<stop offset="0.494792" stop-color="#057093" stop-opacity="0.756203"/>
<stop offset="0.9375" stop-color="#057093" stop-opacity="0.756203"/>
<stop offset="1" stop-color="#057093"/>
</linearGradient>
<linearGradient id="paint2_linear_40_3426" x1="12" y1="5.6842" x2="12" y2="7.78947" gradientUnits="userSpaceOnUse">
<stop offset="0.0260417" stop-color="#057093" stop-opacity="0.53"/>
<stop offset="0.494792" stop-color="#057093" stop-opacity="0.756203"/>
<stop offset="0.9375" stop-color="#057093" stop-opacity="0.756203"/>
<stop offset="1" stop-color="#057093"/>
</linearGradient>
<linearGradient id="paint3_linear_40_3426" x1="16.7368" y1="10.9474" x2="16.7368" y2="12" gradientUnits="userSpaceOnUse">
<stop offset="0.0260417" stop-color="#057093" stop-opacity="0.53"/>
<stop offset="0.494792" stop-color="#057093" stop-opacity="0.756203"/>
<stop offset="0.9375" stop-color="#057093" stop-opacity="0.756203"/>
<stop offset="1" stop-color="#057093"/>
</linearGradient>
<linearGradient id="paint4_linear_40_3426" x1="10.421" y1="13.0526" x2="10.421" y2="14.1052" gradientUnits="userSpaceOnUse">
<stop offset="0.0260417" stop-color="#057093" stop-opacity="0.53"/>
<stop offset="0.494792" stop-color="#057093" stop-opacity="0.756203"/>
<stop offset="0.9375" stop-color="#057093" stop-opacity="0.756203"/>
<stop offset="1" stop-color="#057093"/>
</linearGradient>
<linearGradient id="paint5_linear_40_3426" x1="16.7368" y1="13.0526" x2="16.7368" y2="14.1052" gradientUnits="userSpaceOnUse">
<stop offset="0.0260417" stop-color="#057093" stop-opacity="0.53"/>
<stop offset="0.494792" stop-color="#057093" stop-opacity="0.756203"/>
<stop offset="0.9375" stop-color="#057093" stop-opacity="0.756203"/>
<stop offset="1" stop-color="#057093"/>
</linearGradient>
<linearGradient id="paint6_linear_40_3426" x1="10.9474" y1="15.1579" x2="10.9474" y2="16.2105" gradientUnits="userSpaceOnUse">
<stop offset="0.0260417" stop-color="#057093" stop-opacity="0.53"/>
<stop offset="0.494792" stop-color="#057093" stop-opacity="0.756203"/>
<stop offset="0.9375" stop-color="#057093" stop-opacity="0.756203"/>
<stop offset="1" stop-color="#057093"/>
</linearGradient>
<linearGradient id="paint7_linear_40_3426" x1="16.7368" y1="15.1579" x2="16.7368" y2="16.2105" gradientUnits="userSpaceOnUse">
<stop offset="0.0260417" stop-color="#057093" stop-opacity="0.53"/>
<stop offset="0.494792" stop-color="#057093" stop-opacity="0.756203"/>
<stop offset="0.9375" stop-color="#057093" stop-opacity="0.756203"/>
<stop offset="1" stop-color="#057093"/>
</linearGradient>
<linearGradient id="paint8_linear_40_3426" x1="10.421" y1="17.2632" x2="10.421" y2="18.3158" gradientUnits="userSpaceOnUse">
<stop offset="0.0260417" stop-color="#057093" stop-opacity="0.53"/>
<stop offset="0.494792" stop-color="#057093" stop-opacity="0.756203"/>
<stop offset="0.9375" stop-color="#057093" stop-opacity="0.756203"/>
<stop offset="1" stop-color="#057093"/>
</linearGradient>
<linearGradient id="paint9_linear_40_3426" x1="16.7368" y1="17.2632" x2="16.7368" y2="18.3158" gradientUnits="userSpaceOnUse">
<stop offset="0.0260417" stop-color="#057093" stop-opacity="0.53"/>
<stop offset="0.494792" stop-color="#057093" stop-opacity="0.756203"/>
<stop offset="0.9375" stop-color="#057093" stop-opacity="0.756203"/>
<stop offset="1" stop-color="#057093"/>
</linearGradient>
</defs>
</svg>
