<svg width="24" height="24" viewBox="0 0 24 24" fill="none" xmlns="http://www.w3.org/2000/svg">
<path d="M2 16.5452V6.09082H20.1816V16.5452C20.1816 17.0452 19.7725 17.4543 19.2725 17.4543H2.90908C2.40909 17.4543 2 17.0452 2 16.5452Z" fill="url(#paint0_linear_40_3438)"/>
<path d="M20.1816 3.81814V6.09084H2V3.81814C2 3.31814 2.40909 2.90906 2.90908 2.90906H19.2725C19.7725 2.90906 20.1816 3.31814 20.1816 3.81814Z" fill="url(#paint1_linear_40_3438)"/>
<path d="M7.68175 5.18174H19.0453C19.1707 5.18174 19.2725 5.07992 19.2725 4.95447V4.04539C19.2725 3.91993 19.1707 3.81812 19.0453 3.81812H7.68175C7.5563 3.81812 7.45448 3.91993 7.45448 4.04539V4.95447C7.45448 5.07992 7.5563 5.18174 7.68175 5.18174Z" fill="url(#paint2_linear_40_3438)"/>
<path d="M3.59089 5.18174C3.96744 5.18174 4.2727 4.87648 4.2727 4.49993C4.2727 4.12338 3.96744 3.81812 3.59089 3.81812C3.21434 3.81812 2.90908 4.12338 2.90908 4.49993C2.90908 4.87648 3.21434 5.18174 3.59089 5.18174Z" fill="url(#paint3_linear_40_3438)"/>
<path d="M5.86359 5.18174C6.24014 5.18174 6.5454 4.87648 6.5454 4.49993C6.5454 4.12338 6.24014 3.81812 5.86359 3.81812C5.48704 3.81812 5.18178 4.12338 5.18178 4.49993C5.18178 4.87648 5.48704 5.18174 5.86359 5.18174Z" fill="url(#paint4_linear_40_3438)"/>
<path d="M20.6325 18.9198L19.8289 19.7234L21.163 21.0575C21.2075 21.102 21.2793 21.102 21.3239 21.0575L21.9666 20.4148C22.0111 20.3702 22.0111 20.2984 21.9666 20.2539L20.6325 18.9198Z" fill="url(#paint5_linear_40_3438)"/>
<path d="M19.6362 17.9239L18.833 18.7271L19.8289 19.7234L20.6325 18.9198L19.6362 17.9239Z" fill="url(#paint6_radial_40_3438)"/>
<path d="M6.07177 12.3867C6.07177 10.8376 3.78498 11.1403 3.78498 10.2249C3.78498 9.74715 4.32225 9.72169 4.48997 9.72169C4.8936 9.72169 5.28314 9.83033 5.58041 9.96942C5.67405 10.014 5.78177 9.94896 5.78177 9.84533V9.39488C5.78177 9.24397 5.72496 9.15443 5.63405 9.11852C5.43042 9.03943 5.13815 8.98125 4.70542 8.96715V8.47125C4.70588 8.41171 4.6577 8.36353 4.59815 8.36353H4.3827C4.32316 8.36353 4.27497 8.41171 4.27497 8.47125V8.97534C3.60407 9.04079 2.90908 9.41942 2.90908 10.2999C2.90908 11.9058 5.19587 11.5867 5.19587 12.4326C5.19587 12.6985 5.02587 12.9276 4.49088 12.9276C3.9527 12.9276 3.45817 12.7398 3.18499 12.5994C3.09271 12.5526 2.98453 12.6203 2.98453 12.7239V13.2371C2.98453 13.3353 3.04408 13.423 3.13453 13.4616C3.45862 13.5994 3.89361 13.7035 4.27588 13.7339V14.2816C4.27588 14.3412 4.32406 14.3894 4.38361 14.3894H4.59861C4.65815 14.3894 4.70633 14.3412 4.70633 14.2816V13.7344C5.7095 13.6516 6.07177 12.9798 6.07177 12.3867Z" fill="url(#paint7_linear_40_3438)"/>
<path opacity="0.05" d="M7.91811 11.0908C7.41176 11.0908 6.99994 10.6789 6.99994 10.173V9.73577C6.99994 9.22987 7.41176 8.81805 7.91811 8.81805H18.8089C19.3148 8.81805 19.7271 9.22987 19.7271 9.73577V10.173C19.7271 10.6789 19.3153 11.0908 18.8089 11.0908H7.91811Z" fill="black"/>
<path opacity="0.07" d="M7.91812 10.8635C7.53721 10.8635 7.22721 10.5535 7.22721 10.1731V9.7358C7.22721 9.35535 7.53721 9.04535 7.91812 9.04535H18.8089C19.1898 9.04535 19.4998 9.35535 19.4998 9.7358V10.1731C19.4998 10.5535 19.1898 10.8635 18.8089 10.8635H7.91812Z" fill="black"/>
<path d="M18.8094 10.6363H7.91766C7.66175 10.6363 7.45448 10.429 7.45448 10.1731V9.73582C7.45448 9.47991 7.66175 9.27264 7.91766 9.27264H18.8094C19.0653 9.27264 19.2725 9.47991 19.2725 9.73582V10.1731C19.2725 10.429 19.0653 10.6363 18.8094 10.6363Z" fill="white"/>
<path opacity="0.05" d="M7.91811 13.8181C7.41176 13.8181 6.99994 13.4062 6.99994 12.9003V12.4631C6.99994 11.9572 7.41176 11.5453 7.91811 11.5453H18.8089C19.3148 11.5453 19.7271 11.9572 19.7271 12.4631V12.9003C19.7271 13.4062 19.3153 13.8181 18.8089 13.8181H7.91811Z" fill="black"/>
<path opacity="0.07" d="M7.91812 13.5907C7.53721 13.5907 7.22721 13.2807 7.22721 12.9003V12.463C7.22721 12.0826 7.53721 11.7726 7.91812 11.7726H18.8089C19.1898 11.7726 19.4998 12.0826 19.4998 12.463V12.9003C19.4998 13.2807 19.1898 13.5907 18.8089 13.5907H7.91812Z" fill="black"/>
<path d="M18.8094 13.3635H7.91766C7.66175 13.3635 7.45448 13.1562 7.45448 12.9003V12.4631C7.45448 12.2071 7.66175 11.9999 7.91766 11.9999H18.8094C19.0653 11.9999 19.2725 12.2071 19.2725 12.4631V12.9003C19.2725 13.1562 19.0653 13.3635 18.8094 13.3635Z" fill="white"/>
<path d="M16.9998 11.5453C14.4935 11.5453 12.4544 13.5844 12.4544 16.0908C12.4544 16.5657 12.5285 17.0235 12.664 17.4544H19.2725C19.7725 17.4544 20.1816 17.0453 20.1816 16.5453V12.8503C19.3612 12.0444 18.238 11.5453 16.9998 11.5453Z" fill="url(#paint8_radial_40_3438)"/>
<path d="M16.9998 19.7271C19.0081 19.7271 20.6362 18.099 20.6362 16.0907C20.6362 14.0825 19.0081 12.4544 16.9998 12.4544C14.9916 12.4544 13.3635 14.0825 13.3635 16.0907C13.3635 18.099 14.9916 19.7271 16.9998 19.7271Z" fill="url(#paint9_linear_40_3438)"/>
<defs>
<linearGradient id="paint0_linear_40_3438" x1="6.30904" y1="4.5422" x2="14.5608" y2="16.4784" gradientUnits="userSpaceOnUse">
<stop stop-color="#7DD8F3"/>
<stop offset="1" stop-color="#45B0D0"/>
</linearGradient>
<linearGradient id="paint1_linear_40_3438" x1="2.27909" y1="2.79133" x2="19.698" y2="6.33311" gradientUnits="userSpaceOnUse">
<stop stop-color="#0077D2"/>
<stop offset="1" stop-color="#0B59A2"/>
</linearGradient>
<linearGradient id="paint2_linear_40_3438" x1="7.45448" y1="4.49993" x2="19.2725" y2="4.49993" gradientUnits="userSpaceOnUse">
<stop stop-color="#7DD8F3"/>
<stop offset="1" stop-color="#45B0D0"/>
</linearGradient>
<linearGradient id="paint3_linear_40_3438" x1="3.25044" y1="4.0072" x2="3.83271" y2="4.84947" gradientUnits="userSpaceOnUse">
<stop stop-color="#75DAFF"/>
<stop offset="1" stop-color="#49BEF1"/>
</linearGradient>
<linearGradient id="paint4_linear_40_3438" x1="5.52314" y1="4.0072" x2="6.10541" y2="4.84947" gradientUnits="userSpaceOnUse">
<stop stop-color="#75DAFF"/>
<stop offset="1" stop-color="#49BEF1"/>
</linearGradient>
<linearGradient id="paint5_linear_40_3438" x1="20.3099" y1="18.5963" x2="21.7816" y2="20.7568" gradientUnits="userSpaceOnUse">
<stop stop-color="#FCFCFC"/>
<stop offset="0.95" stop-color="#C3C9CD"/>
</linearGradient>
<radialGradient id="paint6_radial_40_3438" cx="0" cy="0" r="1" gradientUnits="userSpaceOnUse" gradientTransform="translate(17.0053 16.1125) scale(4.4554)">
<stop offset="0.693" stop-color="#006185"/>
<stop offset="0.921" stop-color="#35C1F1"/>
</radialGradient>
<linearGradient id="paint7_linear_40_3438" x1="4.007" y1="8.62707" x2="5.77962" y2="14.6745" gradientUnits="userSpaceOnUse">
<stop stop-color="#0D61A9"/>
<stop offset="1" stop-color="#16528C"/>
</linearGradient>
<radialGradient id="paint8_radial_40_3438" cx="0" cy="0" r="1" gradientUnits="userSpaceOnUse" gradientTransform="translate(17.0435 16.1535) scale(4.30904)">
<stop/>
<stop offset="1" stop-opacity="0"/>
</radialGradient>
<linearGradient id="paint9_linear_40_3438" x1="14.4794" y1="13.5703" x2="19.5766" y2="18.6675" gradientUnits="userSpaceOnUse">
<stop stop-color="#A3FFFF"/>
<stop offset="0.223" stop-color="#9DFBFF"/>
<stop offset="0.53" stop-color="#8BF1FF"/>
<stop offset="0.885" stop-color="#6EE0FF"/>
<stop offset="1" stop-color="#63DAFF"/>
</linearGradient>
</defs>
</svg>
