<svg width="24" height="24" viewBox="0 0 24 24" fill="none" xmlns="http://www.w3.org/2000/svg">
<rect x="4" y="7" width="16" height="13" rx="2" fill="url(#paint0_linear_74_12)"/>
<path d="M8.17507 19.7499H4.5751C4.4509 19.7499 4.3501 19.6491 4.3501 19.5249V18.6249C4.3501 18.5007 4.4509 18.3999 4.5751 18.3999H8.17507C8.29927 18.3999 8.40007 18.5007 8.40007 18.6249V19.5249C8.40007 19.6491 8.29927 19.7499 8.17507 19.7499Z" fill="url(#paint1_linear_74_12)"/>
<path d="M18.975 19.7499H15.375C15.2508 19.7499 15.15 19.6491 15.15 19.5249V18.6249C15.15 18.5007 15.2508 18.3999 15.375 18.3999H18.975C19.0992 18.3999 19.2 18.5007 19.2 18.6249V19.5249C19.2 19.6491 19.0992 19.7499 18.975 19.7499Z" fill="url(#paint2_linear_74_12)"/>
<path d="M18.75 20.8947C18.75 21.0774 18.9709 21.1688 19.0996 21.0392L20.7867 19.3431C20.9338 19.1946 20.9338 18.9552 20.7867 18.8072L19.0996 17.1112C18.9709 16.9811 18.75 17.0725 18.75 17.2552V20.8947Z" fill="url(#paint3_linear_74_12)"/>
<path d="M5.14705 17.2552C5.14705 17.0725 4.9261 16.9811 4.7974 17.1107L3.11036 18.8068C2.96321 18.9553 2.96321 19.1947 3.11036 19.3427L4.7974 21.0387C4.9261 21.1688 5.14705 21.0774 5.14705 20.8947V17.2552Z" fill="url(#paint4_linear_74_12)"/>
<path d="M7.0501 8.49997C8.29273 8.49997 9.30008 7.49262 9.30008 6.24999C9.30008 5.00735 8.29273 4 7.0501 4C5.80746 4 4.80011 5.00735 4.80011 6.24999C4.80011 7.49262 5.80746 8.49997 7.0501 8.49997Z" fill="url(#paint5_linear_74_12)"/>
<path d="M7.05007 9.40002C4.81313 9.40002 3.00009 11.2131 3.00009 13.45V14.8C3.00009 15.2972 3.40284 15.7 3.90009 15.7H10.2C10.6973 15.7 11.1 15.2972 11.1 14.8V13.45C11.1 11.2131 9.287 9.40002 7.05007 9.40002Z" fill="url(#paint6_linear_74_12)"/>
<path d="M16.95 8.49997C18.1927 8.49997 19.2 7.49262 19.2 6.24999C19.2 5.00735 18.1927 4 16.95 4C15.7074 4 14.7 5.00735 14.7 6.24999C14.7 7.49262 15.7074 8.49997 16.95 8.49997Z" fill="url(#paint7_linear_74_12)"/>
<path d="M16.95 9.40002C14.7131 9.40002 12.9 11.2131 12.9 13.45V14.8C12.9 15.2972 13.3028 15.7 13.8 15.7H20.1C20.5972 15.7 21 15.2972 21 14.8V13.45C21 11.2131 19.1869 9.40002 16.95 9.40002Z" fill="url(#paint8_linear_74_12)"/>
<path d="M10.8751 19.7499H9.97506C9.85086 19.7499 9.75006 19.6491 9.75006 19.5249V18.6249C9.75006 18.5007 9.85086 18.3999 9.97506 18.3999H10.8751C10.9993 18.3999 11.1001 18.5007 11.1001 18.6249V19.5249C11.1001 19.6491 10.9993 19.7499 10.8751 19.7499Z" fill="url(#paint9_linear_74_12)"/>
<path d="M13.575 19.7499H12.675C12.5508 19.7499 12.45 19.6491 12.45 19.5249V18.6249C12.45 18.5007 12.5508 18.3999 12.675 18.3999H13.575C13.6992 18.3999 13.8 18.5007 13.8 18.6249V19.5249C13.8 19.6491 13.6992 19.7499 13.575 19.7499Z" fill="url(#paint10_linear_74_12)"/>
<defs>
<linearGradient id="paint0_linear_74_12" x1="7.899" y1="7.34089" x2="9.07476" y2="20.8826" gradientUnits="userSpaceOnUse">
<stop stop-color="#C3CDD9" stop-opacity="0.72"/>
<stop offset="1" stop-color="#9FA7B0"/>
</linearGradient>
<linearGradient id="paint1_linear_74_12" x1="5.82976" y1="18.4588" x2="5.91966" y2="19.942" gradientUnits="userSpaceOnUse">
<stop stop-color="#32BDEF"/>
<stop offset="1" stop-color="#1EA2E4"/>
</linearGradient>
<linearGradient id="paint2_linear_74_12" x1="16.6297" y1="18.4588" x2="16.7196" y2="19.942" gradientUnits="userSpaceOnUse">
<stop stop-color="#32BDEF"/>
<stop offset="1" stop-color="#1EA2E4"/>
</linearGradient>
<linearGradient id="paint3_linear_74_12" x1="19.5344" y1="17.2266" x2="20.905" y2="21.2223" gradientUnits="userSpaceOnUse">
<stop stop-color="#32BDEF"/>
<stop offset="1" stop-color="#1EA2E4"/>
</linearGradient>
<linearGradient id="paint4_linear_74_12" x1="3.78443" y1="17.2265" x2="5.15502" y2="21.2222" gradientUnits="userSpaceOnUse">
<stop stop-color="#32BDEF"/>
<stop offset="1" stop-color="#1EA2E4"/>
</linearGradient>
<linearGradient id="paint5_linear_74_12" x1="5.52371" y1="4.7236" x2="8.66289" y2="7.86278" gradientUnits="userSpaceOnUse">
<stop stop-color="#0D61A9"/>
<stop offset="1" stop-color="#16528C"/>
</linearGradient>
<linearGradient id="paint6_linear_74_12" x1="4.29158" y1="10.7145" x2="9.9647" y2="16.3871" gradientUnits="userSpaceOnUse">
<stop stop-color="#0D61A9"/>
<stop offset="1" stop-color="#16528C"/>
</linearGradient>
<linearGradient id="paint7_linear_74_12" x1="15.7966" y1="4.118" x2="16.2956" y2="8.78751" gradientUnits="userSpaceOnUse">
<stop offset="0.365372" stop-color="white"/>
<stop offset="0.714333" stop-color="#EDEDED"/>
<stop offset="0.88621" stop-color="#DBDBDB"/>
<stop offset="1" stop-color="#DADADA"/>
</linearGradient>
<linearGradient id="paint8_linear_74_12" x1="14.8739" y1="9.56522" x2="15.4197" y2="16.1318" gradientUnits="userSpaceOnUse">
<stop offset="0.365372" stop-color="white"/>
<stop offset="0.714333" stop-color="#EDEDED"/>
<stop offset="0.88621" stop-color="#DBDBDB"/>
<stop offset="1" stop-color="#DADADA"/>
</linearGradient>
<linearGradient id="paint9_linear_74_12" x1="10.0561" y1="18.2498" x2="11.0637" y2="19.2336" gradientUnits="userSpaceOnUse">
<stop stop-color="#7DD8F3"/>
<stop offset="1" stop-color="#45B0D0"/>
</linearGradient>
<linearGradient id="paint10_linear_74_12" x1="12.7561" y1="18.2498" x2="13.7637" y2="19.2336" gradientUnits="userSpaceOnUse">
<stop stop-color="#7DD8F3"/>
<stop offset="1" stop-color="#45B0D0"/>
</linearGradient>
</defs>
</svg>
