<svg width="24" height="24" viewBox="0 0 24 24" fill="none" xmlns="http://www.w3.org/2000/svg">
<path d="M21.5238 3.90479H21.0476C21.0476 4.16764 20.8343 4.38098 20.5714 4.38098C20.3086 4.38098 20.0952 4.16764 20.0952 3.90479H19.1429C19.1429 4.16764 18.9295 4.38098 18.6667 4.38098C18.4038 4.38098 18.1905 4.16764 18.1905 3.90479H17.2381C17.2381 4.16764 17.0248 4.38098 16.7619 4.38098C16.499 4.38098 16.2857 4.16764 16.2857 3.90479H15.3333C15.3333 4.16764 15.12 4.38098 14.8571 4.38098C14.5943 4.38098 14.381 4.16764 14.381 3.90479H13.4286C13.4286 4.16764 13.2152 4.38098 12.9524 4.38098C12.6895 4.38098 12.4762 4.16764 12.4762 3.90479H11.5238C11.5238 4.16764 11.3105 4.38098 11.0476 4.38098C10.7848 4.38098 10.5714 4.16764 10.5714 3.90479H9.61905C9.61905 4.16764 9.40571 4.38098 9.14286 4.38098C8.88 4.38098 8.66667 4.16764 8.66667 3.90479H7.71429C7.71429 4.16764 7.50095 4.38098 7.2381 4.38098C6.97524 4.38098 6.7619 4.16764 6.7619 3.90479H5.80952C5.80952 4.16764 5.59619 4.38098 5.33333 4.38098C5.07048 4.38098 4.85714 4.16764 4.85714 3.90479H3.90476C3.90476 4.16764 3.69143 4.38098 3.42857 4.38098C3.16571 4.38098 2.95238 4.16764 2.95238 3.90479H2.47619C2.21333 3.90479 2 4.11812 2 4.38098V19.1429C2 19.6691 2.42619 20.0953 2.95238 20.0953H21.0476C21.5738 20.0953 22 19.6691 22 19.1429V4.38098C22 4.11812 21.7867 3.90479 21.5238 3.90479Z" fill="url(#paint0_linear_40_3471)"/>
<path d="M11.7619 8.66668H4.61905C4.48762 8.66668 4.38095 8.56001 4.38095 8.42858V7.95239C4.38095 7.82096 4.48762 7.71429 4.61905 7.71429H11.7619C11.8933 7.71429 12 7.82096 12 7.95239V8.42858C12 8.56001 11.8933 8.66668 11.7619 8.66668Z" fill="url(#paint1_linear_40_3471)"/>
<path d="M10.3333 10.5715H4.61905C4.48762 10.5715 4.38095 10.4648 4.38095 10.3334V9.85717C4.38095 9.72575 4.48762 9.61908 4.61905 9.61908H10.3333C10.4648 9.61908 10.5714 9.72575 10.5714 9.85717V10.3334C10.5714 10.4648 10.4648 10.5715 10.3333 10.5715Z" fill="url(#paint2_linear_40_3471)"/>
<path d="M19.9871 14.2319C19.9871 11.5395 16.0119 12.0653 16.0119 10.4743C16.0119 9.64382 16.9452 9.60001 17.2376 9.60001C17.9391 9.60001 18.6167 9.78811 19.1329 10.0305C19.2957 10.1067 19.4824 9.99382 19.4824 9.8143V9.03097C19.4824 8.76811 19.3833 8.6124 19.2257 8.55097C18.8714 8.41335 18.3633 8.31287 17.6114 8.28811V7.42573C17.6114 7.3224 17.5276 7.23859 17.4243 7.23859H17.05C16.9467 7.23859 16.8629 7.3224 16.8629 7.42573V8.30192C15.6971 8.41573 14.4876 9.07382 14.4876 10.6053C14.4876 13.3962 18.4624 12.8429 18.4624 14.3129C18.4624 14.7748 18.1671 15.1734 17.2367 15.1734C16.3014 15.1734 15.4419 14.8467 14.9662 14.6034C14.8062 14.5215 14.6176 14.64 14.6176 14.82V15.7119C14.6176 15.8829 14.7205 16.0353 14.8781 16.1019C15.4419 16.3415 16.1976 16.5224 16.8624 16.5757V17.5286C16.8624 17.6319 16.9462 17.7157 17.0495 17.7157H17.4238C17.5271 17.7157 17.611 17.6319 17.611 17.5286V16.5762C19.3567 16.431 19.9871 15.2629 19.9871 14.2319Z" fill="#0078D4"/>
<path d="M7.2381 17.7143C7.01334 17.7143 6.8162 17.6091 6.69667 17.4262C6.6162 17.3024 6.57525 17.1486 6.57525 16.9691C6.57525 16.6572 6.74144 16.1133 7.00572 15.5695C6.93287 15.09 6.79525 14.5772 6.57667 14.2062C6.43667 13.9676 6.32525 13.9048 6.28572 13.9048C5.78906 13.9048 5.41763 14.9486 5.32429 15.4248C5.27382 15.6829 5.02667 15.8505 4.76525 15.8005C4.50715 15.75 4.33858 15.4995 4.38953 15.2414C4.43572 15.0076 4.87858 12.9524 6.28572 12.9524C7.00096 12.9524 7.45572 13.6552 7.72001 14.4638C8.0162 14.13 8.34286 13.9048 8.66667 13.9048C9.61572 13.9048 9.92763 15.0057 10.1557 15.81C10.1638 15.8376 10.1719 15.8667 10.1805 15.8962C10.201 15.8557 10.2205 15.8167 10.2381 15.781C10.5419 15.1691 10.8862 14.4762 11.5238 14.4762C11.7872 14.4762 12 14.6895 12 14.9524C12 15.2019 11.8081 15.4072 11.5633 15.4272C11.43 15.5224 11.2105 15.9638 11.091 16.2048C10.8157 16.7595 10.5776 17.2381 10.0952 17.2381C9.57048 17.2381 9.41715 16.6967 9.23953 16.07C9.14572 15.7381 8.89572 14.8572 8.66667 14.8572C8.51239 14.9167 8.23334 15.3081 7.98906 15.7467C8.01334 15.9657 8.02429 16.1672 8.02429 16.3362C8.02429 16.6562 7.99144 16.9224 7.92572 17.1276C7.75715 17.6572 7.38858 17.7143 7.2381 17.7143Z" fill="url(#paint3_linear_40_3471)"/>
<defs>
<linearGradient id="paint0_linear_40_3471" x1="8.30571" y1="4.15336" x2="15.2976" y2="20.8062" gradientUnits="userSpaceOnUse">
<stop stop-color="#7DD8F3"/>
<stop offset="1" stop-color="#45B0D0"/>
</linearGradient>
<linearGradient id="paint1_linear_40_3471" x1="6.06888" y1="7.57242" x2="6.18618" y2="8.9499" gradientUnits="userSpaceOnUse">
<stop stop-color="#FCFCFC"/>
<stop offset="0.95" stop-color="#C3C9CD"/>
</linearGradient>
<linearGradient id="paint2_linear_40_3471" x1="5.7524" y1="9.4772" x2="5.89623" y2="10.8496" gradientUnits="userSpaceOnUse">
<stop stop-color="#FCFCFC"/>
<stop offset="0.95" stop-color="#C3C9CD"/>
</linearGradient>
<linearGradient id="paint3_linear_40_3471" x1="6.06849" y1="12.243" x2="8.56877" y2="18.1159" gradientUnits="userSpaceOnUse">
<stop stop-color="#FCFCFC"/>
<stop offset="0.95" stop-color="#C3C9CD"/>
</linearGradient>
</defs>
</svg>
