<svg width="24" height="24" viewBox="0 0 24 24" fill="none" xmlns="http://www.w3.org/2000/svg">
<path d="M6.28571 10.0953C7.60068 10.0953 8.66667 9.02929 8.66667 7.71433C8.66667 6.39936 7.60068 5.33337 6.28571 5.33337C4.97075 5.33337 3.90476 6.39936 3.90476 7.71433C3.90476 9.02929 4.97075 10.0953 6.28571 10.0953Z" fill="url(#paint0_linear_40_3497)"/>
<path d="M6.28571 11.0476C3.91857 11.0476 2 12.9662 2 15.3333V19.619C2 20.1452 2.42619 20.5714 2.95238 20.5714H9.61905C10.1452 20.5714 10.5714 20.1452 10.5714 19.619V15.3333C10.5714 12.9662 8.65286 11.0476 6.28571 11.0476Z" fill="url(#paint1_linear_40_3497)"/>
<path d="M17.7143 10.0953C19.0292 10.0953 20.0952 9.02929 20.0952 7.71433C20.0952 6.39936 19.0292 5.33337 17.7143 5.33337C16.3993 5.33337 15.3333 6.39936 15.3333 7.71433C15.3333 9.02929 16.3993 10.0953 17.7143 10.0953Z" fill="url(#paint2_linear_40_3497)"/>
<path d="M17.7143 11.0476C15.3471 11.0476 13.4286 12.9662 13.4286 15.3333V19.619C13.4286 20.1452 13.8548 20.5714 14.381 20.5714H21.0476C21.5738 20.5714 22 20.1452 22 19.619V15.3333C22 12.9662 20.0814 11.0476 17.7143 11.0476Z" fill="url(#paint3_linear_40_3497)"/>
<path d="M12 8.19049C13.315 8.19049 14.381 7.1245 14.381 5.80954C14.381 4.49458 13.315 3.42859 12 3.42859C10.685 3.42859 9.61905 4.49458 9.61905 5.80954C9.61905 7.1245 10.685 8.19049 12 8.19049Z" fill="url(#paint4_linear_40_3497)"/>
<path opacity="0.05" d="M17.2381 19.6191V13.4286C17.2381 12.6186 17.0481 11.8538 16.7181 11.1686C14.8324 11.6186 13.4286 13.31 13.4286 15.3333V19.6191C13.4286 20.1452 13.8548 20.5714 14.381 20.5714H16.9733C17.1371 20.29 17.2381 19.9676 17.2381 19.6191Z" fill="black"/>
<path opacity="0.067" d="M16.9205 19.6191V13.4286C16.9205 12.6567 16.7371 11.9286 16.419 11.2776C14.69 11.8105 13.4286 13.4224 13.4286 15.3334V19.6191C13.4286 20.1453 13.8548 20.5715 14.381 20.5715H16.4267C16.7114 20.3838 16.9205 20.0267 16.9205 19.6191Z" fill="black"/>
<path opacity="0.09" d="M16.6033 19.6191V13.4286C16.6033 12.6943 16.4267 12.0029 16.1205 11.3867C14.5476 12.0024 13.4286 13.5348 13.4286 15.3334V19.6191C13.4286 20.1453 13.8548 20.5715 14.381 20.5715H15.88C16.2852 20.4777 16.6033 20.0858 16.6033 19.6191Z" fill="black"/>
<path opacity="0.05" d="M6.7619 19.6191V13.4286C6.7619 12.6186 6.9519 11.8538 7.2819 11.1686C9.16762 11.6186 10.5714 13.31 10.5714 15.3333V19.6191C10.5714 20.1452 10.1452 20.5714 9.61904 20.5714H7.02666C6.86285 20.29 6.7619 19.9676 6.7619 19.6191Z" fill="black"/>
<path opacity="0.067" d="M7.07952 19.6191V13.4286C7.07952 12.6567 7.26285 11.9286 7.58095 11.2776C9.31 11.8105 10.5714 13.4224 10.5714 15.3334V19.6191C10.5714 20.1453 10.1452 20.5715 9.61905 20.5715H7.57333C7.28857 20.3838 7.07952 20.0267 7.07952 19.6191Z" fill="black"/>
<path opacity="0.09" d="M7.39667 19.6191V13.4286C7.39667 12.6943 7.57333 12.0029 7.87952 11.3867C9.45238 12.0024 10.5714 13.5348 10.5714 15.3334V19.6191C10.5714 20.1453 10.1452 20.5715 9.61905 20.5715H8.12C7.71476 20.4777 7.39667 20.0858 7.39667 19.6191Z" fill="black"/>
<path d="M12 9.14288C9.63286 9.14288 7.71429 11.0615 7.71429 13.4286V19.6191C7.71429 20.1453 8.14048 20.5715 8.66667 20.5715H15.3333C15.8595 20.5715 16.2857 20.1453 16.2857 19.6191V13.4286C16.2857 11.0615 14.3671 9.14288 12 9.14288Z" fill="url(#paint5_linear_40_3497)"/>
<defs>
<linearGradient id="paint0_linear_40_3497" x1="4.67048" y1="6.09909" x2="7.99238" y2="9.42099" gradientUnits="userSpaceOnUse">
<stop stop-color="#199AE0"/>
<stop offset="1" stop-color="#0782D8"/>
</linearGradient>
<linearGradient id="paint1_linear_40_3497" x1="2.68143" y1="13.1819" x2="10.0943" y2="20.5943" gradientUnits="userSpaceOnUse">
<stop stop-color="#199AE0"/>
<stop offset="1" stop-color="#0782D8"/>
</linearGradient>
<linearGradient id="paint2_linear_40_3497" x1="16.0991" y1="6.09909" x2="19.421" y2="9.42099" gradientUnits="userSpaceOnUse">
<stop stop-color="#0D61A9"/>
<stop offset="1" stop-color="#16528C"/>
</linearGradient>
<linearGradient id="paint3_linear_40_3497" x1="14.11" y1="13.1819" x2="21.5229" y2="20.5943" gradientUnits="userSpaceOnUse">
<stop stop-color="#0D61A9"/>
<stop offset="1" stop-color="#16528C"/>
</linearGradient>
<linearGradient id="paint4_linear_40_3497" x1="10.7795" y1="3.55346" x2="11.3075" y2="8.49477" gradientUnits="userSpaceOnUse">
<stop stop-color="#F2F5F9"/>
<stop offset="1" stop-color="#EAEAEA"/>
</linearGradient>
<linearGradient id="paint5_linear_40_3497" x1="9.80304" y1="9.44257" x2="11.478" y2="21.1985" gradientUnits="userSpaceOnUse">
<stop stop-color="#F2F5F9"/>
<stop offset="1" stop-color="#EAEAEA"/>
</linearGradient>
</defs>
</svg>
