<svg width="24" height="24" viewBox="0 0 24 24" fill="none" xmlns="http://www.w3.org/2000/svg">
<path d="M19.6316 19.57C19.4863 19.57 19.3684 19.6879 19.3684 19.8332V21.2105C19.3684 21.3558 19.4863 21.4737 19.6316 21.4737C19.7768 21.4737 19.8947 21.3558 19.8947 21.2105V19.8332C19.8947 19.6879 19.7768 19.57 19.6316 19.57Z" fill="url(#paint0_linear_40_3527)"/>
<path d="M18.5789 19.3684C18.5789 19.3684 18.9821 20.9474 19.6316 20.9474C20.2811 20.9474 20.6842 19.3684 20.6842 19.3684L19.6316 18.8421L18.5789 19.3684Z" fill="url(#paint1_linear_40_3527)"/>
<path d="M21.2105 13.5789H20.1579V8.8421H21.2105C21.5011 8.8421 21.7368 9.07789 21.7368 9.36842V13.0526C21.7368 13.3432 21.5011 13.5789 21.2105 13.5789Z" fill="#B31523"/>
<path d="M20.1579 8.31576H19.1053V7.26313C19.1053 6.97261 19.3411 6.73682 19.6316 6.73682C19.9221 6.73682 20.1579 6.97261 20.1579 7.26313V8.31576Z" fill="url(#paint2_linear_40_3527)"/>
<path d="M20.6842 19.3684H18.5789V8.31581C18.5789 8.02528 18.8147 7.78949 19.1053 7.78949H20.1579C20.4484 7.78949 20.6842 8.02528 20.6842 8.31581V19.3684Z" fill="url(#paint3_linear_40_3527)"/>
<path d="M20.6842 13.0526H18.5789V14.1052H20.6842V13.0526Z" fill="url(#paint4_linear_40_3527)"/>
<path d="M17.5263 7.78947V20.9474C17.5263 21.5289 17.0553 22 16.4737 22H3.31579C2.73421 22 2.26316 21.5289 2.26316 20.9474V3.05263C2.26316 2.47105 2.73421 2 3.31579 2H11.7368L17.5263 7.78947Z" fill="url(#paint5_linear_40_3527)"/>
<path d="M11.7368 2V6.73684C11.7368 7.31842 12.2079 7.78947 12.7895 7.78947H17.5263L11.7368 2Z" fill="url(#paint6_linear_40_3527)"/>
<path d="M14.1053 10.421H5.68421C5.53895 10.421 5.42105 10.3031 5.42105 10.1579V9.63157C5.42105 9.4863 5.53895 9.36841 5.68421 9.36841H14.1053C14.2505 9.36841 14.3684 9.4863 14.3684 9.63157V10.1579C14.3684 10.3031 14.2505 10.421 14.1053 10.421Z" fill="url(#paint7_linear_40_3527)"/>
<path d="M13.0526 12.5263H5.68421C5.53895 12.5263 5.42105 12.4084 5.42105 12.2632V11.7369C5.42105 11.5916 5.53895 11.4737 5.68421 11.4737H13.0526C13.1979 11.4737 13.3158 11.5916 13.3158 11.7369V12.2632C13.3158 12.4084 13.1979 12.5263 13.0526 12.5263Z" fill="url(#paint8_linear_40_3527)"/>
<path d="M13.5789 14.6316H5.68421C5.53895 14.6316 5.42105 14.5137 5.42105 14.3684V13.8421C5.42105 13.6968 5.53895 13.5789 5.68421 13.5789H13.5789C13.7242 13.5789 13.8421 13.6968 13.8421 13.8421V14.3684C13.8421 14.5137 13.7242 14.6316 13.5789 14.6316Z" fill="url(#paint9_linear_40_3527)"/>
<path d="M5.50895 20.9474C5.40842 20.9474 5.31052 20.8958 5.25684 20.8021C5.17579 20.6632 5.2221 20.4842 5.36105 20.4021C5.36842 20.3979 5.64842 20.23 5.99158 19.9174C5.68631 19.4589 5.50895 18.8126 5.50895 18.0521C5.50895 16.6579 6.05 15.6842 6.82473 15.6842C7.58 15.6842 7.84789 16.5784 7.84789 17.3442C7.84789 18.46 7.33579 19.33 6.80631 19.9305C6.94 20.0195 7.09263 20.0695 7.26316 20.0695C7.68052 20.0695 8.06421 19.9468 8.38368 19.7521C8.2121 19.441 8.14 19.0542 8.14 18.6958C8.14 18.0521 8.43579 17.1458 9.09263 17.1458C9.33368 17.1458 9.89421 17.261 9.89421 18.3284C9.89421 18.8221 9.66631 19.3426 9.27895 19.7658C9.31737 19.7732 9.35842 19.7774 9.4021 19.7774C9.71737 19.7774 9.87631 19.6074 10.1295 19.3074C10.3916 18.9958 10.7184 18.6079 11.3568 18.6079C11.5184 18.6079 11.6495 18.7389 11.6495 18.9005C11.6495 19.0621 11.5189 19.1932 11.3568 19.1932C11.0084 19.1932 10.8337 19.38 10.5768 19.6847C10.3221 19.9868 10.0053 20.3626 9.4021 20.3626C9.15473 20.3626 8.95 20.2995 8.78263 20.1921C8.36 20.4753 7.83947 20.6547 7.26316 20.6547C6.93631 20.6547 6.64052 20.5479 6.38947 20.3526C6.00631 20.6995 5.68947 20.8879 5.65631 20.9074C5.61 20.9347 5.55895 20.9474 5.50895 20.9474ZM6.82473 16.2689C6.47158 16.2689 6.09368 16.9858 6.09368 18.0521C6.09368 18.5732 6.2021 19.0974 6.41421 19.481C6.85316 18.9632 7.26316 18.24 7.26316 17.3442C7.26316 16.9284 7.14421 16.2689 6.82473 16.2689ZM9.09316 17.731C8.95473 17.731 8.72526 18.1984 8.72526 18.6963C8.72526 18.831 8.73895 19.1274 8.84579 19.3758C9.13737 19.0621 9.31 18.6826 9.31 18.3289C9.31 18.1495 9.28895 17.731 9.09316 17.731Z" fill="url(#paint10_linear_40_3527)"/>
<defs>
<linearGradient id="paint0_linear_40_3527" x1="19.6316" y1="19.57" x2="19.6316" y2="21.4737" gradientUnits="userSpaceOnUse">
<stop offset="0.0260417" stop-color="#057093" stop-opacity="0.53"/>
<stop offset="0.494792" stop-color="#057093" stop-opacity="0.756203"/>
<stop offset="0.9375" stop-color="#057093" stop-opacity="0.756203"/>
<stop offset="1" stop-color="#057093"/>
</linearGradient>
<linearGradient id="paint1_linear_40_3527" x1="18.5789" y1="19.8947" x2="20.6842" y2="19.8947" gradientUnits="userSpaceOnUse">
<stop stop-color="#FFDA1C"/>
<stop offset="1" stop-color="#FEB705"/>
</linearGradient>
<linearGradient id="paint2_linear_40_3527" x1="19.6316" y1="6.7905" x2="19.6316" y2="8.35892" gradientUnits="userSpaceOnUse">
<stop stop-color="#FFDA1C"/>
<stop offset="1" stop-color="#FEB705"/>
</linearGradient>
<linearGradient id="paint3_linear_40_3527" x1="19.6316" y1="23.1048" x2="19.6316" y2="9.14581" gradientUnits="userSpaceOnUse">
<stop stop-color="#F44F5A"/>
<stop offset="0.443" stop-color="#EE3D4A"/>
<stop offset="1" stop-color="#E52030"/>
</linearGradient>
<linearGradient id="paint4_linear_40_3527" x1="19.6316" y1="14.8684" x2="19.6316" y2="12.5505" gradientUnits="userSpaceOnUse">
<stop stop-color="#FFDA1C"/>
<stop offset="1" stop-color="#FEB705"/>
</linearGradient>
<linearGradient id="paint5_linear_40_3527" x1="7.07541" y1="2.30706" x2="18.3246" y2="18.8595" gradientUnits="userSpaceOnUse">
<stop stop-color="#7DD8F3"/>
<stop offset="1" stop-color="#45B0D0"/>
</linearGradient>
<linearGradient id="paint6_linear_40_3527" x1="12.0153" y1="7.51105" x2="14.6842" y2="4.84211" gradientUnits="userSpaceOnUse">
<stop stop-color="#3079D6"/>
<stop offset="1" stop-color="#297CD2"/>
</linearGradient>
<linearGradient id="paint7_linear_40_3527" x1="9.89474" y1="9.36841" x2="9.89474" y2="10.421" gradientUnits="userSpaceOnUse">
<stop offset="0.0260417" stop-color="#057093" stop-opacity="0.53"/>
<stop offset="0.494792" stop-color="#057093" stop-opacity="0.756203"/>
<stop offset="0.9375" stop-color="#057093" stop-opacity="0.756203"/>
<stop offset="1" stop-color="#057093"/>
</linearGradient>
<linearGradient id="paint8_linear_40_3527" x1="9.36842" y1="11.4737" x2="9.36842" y2="12.5263" gradientUnits="userSpaceOnUse">
<stop offset="0.0260417" stop-color="#057093" stop-opacity="0.53"/>
<stop offset="0.494792" stop-color="#057093" stop-opacity="0.756203"/>
<stop offset="0.9375" stop-color="#057093" stop-opacity="0.756203"/>
<stop offset="1" stop-color="#057093"/>
</linearGradient>
<linearGradient id="paint9_linear_40_3527" x1="9.63158" y1="13.5789" x2="9.63158" y2="14.6316" gradientUnits="userSpaceOnUse">
<stop offset="0.0260417" stop-color="#057093" stop-opacity="0.53"/>
<stop offset="0.494792" stop-color="#057093" stop-opacity="0.756203"/>
<stop offset="0.9375" stop-color="#057093" stop-opacity="0.756203"/>
<stop offset="1" stop-color="#057093"/>
</linearGradient>
<linearGradient id="paint10_linear_40_3527" x1="8.43321" y1="15.6842" x2="8.43321" y2="20.9474" gradientUnits="userSpaceOnUse">
<stop offset="0.0260417" stop-color="#057093" stop-opacity="0.53"/>
<stop offset="0.494792" stop-color="#057093" stop-opacity="0.756203"/>
<stop offset="0.9375" stop-color="#057093" stop-opacity="0.756203"/>
<stop offset="1" stop-color="#057093"/>
</linearGradient>
</defs>
</svg>
