<svg width="24" height="24" viewBox="0 0 24 24" fill="none" xmlns="http://www.w3.org/2000/svg">
<path d="M3.53698 2.9863C3.53698 2.9863 3.36962 4.951 4.13592 6.49044C4.90222 8.02988 7.01218 11.1961 7.84374 10.6651C7.45217 10.1461 7.7148 9.56196 8.00953 9.27723C8.20058 9.09249 9.0974 8.24514 9.7037 7.67252C10.0405 7.35463 10.12 6.84991 9.89738 6.4436L7.75164 2.52894C7.51901 2.10421 7.01955 1.90264 6.55745 2.04632L3.53698 2.9863Z" fill="url(#paint0_linear_40_3541)"/>
<path d="M21.014 20.4633C21.014 20.4633 19.0493 20.6306 17.5099 19.8643C15.9704 19.098 12.8042 16.9881 13.3352 16.1565C13.8541 16.5481 14.4383 16.2854 14.7231 15.9907C14.9078 15.7997 15.7552 14.9028 16.3278 14.2965C16.6457 13.9597 17.1504 13.8802 17.5567 14.1029L21.4714 16.2486C21.8961 16.4812 22.0977 16.9807 21.954 17.4428L21.014 20.4633Z" fill="url(#paint1_linear_40_3541)"/>
<path d="M10.4137 13.5866C13.5273 16.7002 17.152 18.9822 21.0145 20.4627L20.4514 21.4354C20.1756 21.9117 19.5919 22.1264 19.0804 21.9232C15.3478 20.4396 11.8484 18.1923 8.82793 15.1723C5.80746 12.1524 3.56014 8.65247 2.07649 4.91991C1.87333 4.40887 2.08806 3.8252 2.56437 3.54941L3.53698 2.98627C5.01801 6.8483 7.30007 10.4735 10.4137 13.5866Z" fill="url(#paint2_linear_40_3541)"/>
<defs>
<linearGradient id="paint0_linear_40_3541" x1="4.56692" y1="3.40314" x2="10.3988" y2="7.74911" gradientUnits="userSpaceOnUse">
<stop stop-color="#0D61A9"/>
<stop offset="1" stop-color="#16528C"/>
</linearGradient>
<linearGradient id="paint1_linear_40_3541" x1="14.6787" y1="15.0229" x2="19.0247" y2="20.8548" gradientUnits="userSpaceOnUse">
<stop stop-color="#0D61A9"/>
<stop offset="1" stop-color="#16528C"/>
</linearGradient>
<linearGradient id="paint2_linear_40_3541" x1="2.14881" y1="3.21616" x2="18.2019" y2="18.5722" gradientUnits="userSpaceOnUse">
<stop stop-color="#33BEF0"/>
<stop offset="1" stop-color="#0A85D9"/>
</linearGradient>
</defs>
</svg>
