<svg width="24" height="24" viewBox="0 0 24 24" fill="none" xmlns="http://www.w3.org/2000/svg">
<path d="M18.1905 2H2.95238C2.42619 2 2 2.42619 2 2.95238V17.2381C2 17.7643 2.42619 18.1905 2.95238 18.1905H18.1905C18.7167 18.1905 19.1429 17.7643 19.1429 17.2381V2.95238C19.1429 2.42619 18.7167 2 18.1905 2Z" fill="url(#paint0_linear_40_3546)"/>
<path d="M14.4119 10.1262C13.8648 9.57909 12.981 9.56718 12.419 10.0991L7.71429 14.5562V19.1429H18.1905C18.7167 19.1429 19.1429 18.7167 19.1429 18.1905V14.8572L14.4119 10.1262Z" fill="url(#paint1_linear_40_3546)"/>
<path d="M13.6667 7.71431C14.5871 7.71431 15.3333 6.96812 15.3333 6.04765C15.3333 5.12717 14.5871 4.38098 13.6667 4.38098C12.7462 4.38098 12 5.12717 12 6.04765C12 6.96812 12.7462 7.71431 13.6667 7.71431Z" fill="#FFF8DE"/>
<path d="M2.95238 19.1428H18.1905C18.5767 19.1428 18.9081 18.9119 19.0571 18.5809L8.69762 8.22145C8.15048 7.6743 7.26667 7.6624 6.70476 8.1943L2 12.6514V18.1905C2 18.7167 2.42619 19.1428 2.95238 19.1428Z" fill="url(#paint2_linear_40_3546)"/>
<path opacity="0.05" d="M19.1429 19.1429H12V14.8572C12 14.0681 12.6395 13.4286 13.4286 13.4286H19.1429V19.1429Z" fill="black"/>
<path opacity="0.05" d="M19.1429 19.1429H12.2381V14.8572C12.2381 14.1995 12.771 13.6667 13.4286 13.6667H19.1429V19.1429Z" fill="black"/>
<path d="M21.0476 22H13.4286C12.9024 22 12.4762 21.5738 12.4762 21.0476V14.8572C12.4762 14.331 12.9024 13.9048 13.4286 13.9048H21.0476C21.5738 13.9048 22 14.331 22 14.8572V21.0476C22 21.5738 21.5738 22 21.0476 22Z" fill="url(#paint3_linear_40_3546)"/>
<path d="M13.9048 16.5238V16.0476C13.9048 15.9162 14.0114 15.8095 14.1429 15.8095H20.3333C20.4648 15.8095 20.5714 15.9162 20.5714 16.0476V16.5238C20.5714 16.6552 20.4648 16.7619 20.3333 16.7619H14.1429C14.0114 16.7619 13.9048 16.6552 13.9048 16.5238ZM14.1429 20.0952H20.3333C20.4648 20.0952 20.5714 19.9886 20.5714 19.8571V19.3809C20.5714 19.2495 20.4648 19.1428 20.3333 19.1428H14.1429C14.0114 19.1428 13.9048 19.2495 13.9048 19.3809V19.8571C13.9048 19.9886 14.0114 20.0952 14.1429 20.0952Z" fill="url(#paint4_linear_40_3546)"/>
<path d="M15.8095 17.2381C16.3355 17.2381 16.7619 16.8117 16.7619 16.2857C16.7619 15.7597 16.3355 15.3333 15.8095 15.3333C15.2835 15.3333 14.8571 15.7597 14.8571 16.2857C14.8571 16.8117 15.2835 17.2381 15.8095 17.2381Z" fill="url(#paint5_linear_40_3546)"/>
<path d="M18.6667 20.5714C19.1927 20.5714 19.619 20.1451 19.619 19.6191C19.619 19.0931 19.1927 18.6667 18.6667 18.6667C18.1407 18.6667 17.7143 19.0931 17.7143 19.6191C17.7143 20.1451 18.1407 20.5714 18.6667 20.5714Z" fill="url(#paint6_linear_40_3546)"/>
<defs>
<linearGradient id="paint0_linear_40_3546" x1="7.4049" y1="2.24857" x2="15.1433" y2="18.0465" gradientUnits="userSpaceOnUse">
<stop stop-color="#7DD8F3"/>
<stop offset="1" stop-color="#45B0D0"/>
</linearGradient>
<linearGradient id="paint1_linear_40_3546" x1="7.71429" y1="14.4253" x2="19.1429" y2="14.4253" gradientUnits="userSpaceOnUse">
<stop stop-color="#3CCBF4"/>
<stop offset="1" stop-color="#1FA0E5"/>
</linearGradient>
<linearGradient id="paint2_linear_40_3546" x1="10.5286" y1="7.80288" x2="10.5286" y2="19.1428" gradientUnits="userSpaceOnUse">
<stop stop-color="#28AFEA"/>
<stop offset="1" stop-color="#0B88DA"/>
</linearGradient>
<linearGradient id="paint3_linear_40_3546" x1="15.311" y1="7.02431" x2="18.3195" y2="24.0857" gradientUnits="userSpaceOnUse">
<stop stop-color="#F9F9F9"/>
<stop offset="0.966" stop-color="#C4C9CD"/>
<stop offset="1" stop-color="#C2C8CC"/>
</linearGradient>
<linearGradient id="paint4_linear_40_3546" x1="16.2629" y1="12.4205" x2="17.8048" y2="21.1667" gradientUnits="userSpaceOnUse">
<stop stop-color="#28AFEA"/>
<stop offset="1" stop-color="#0B88DA"/>
</linearGradient>
<linearGradient id="paint5_linear_40_3546" x1="14.8571" y1="16.2857" x2="16.7619" y2="16.2857" gradientUnits="userSpaceOnUse">
<stop stop-color="#1D59B3"/>
<stop offset="1" stop-color="#195BBC"/>
</linearGradient>
<linearGradient id="paint6_linear_40_3546" x1="17.7143" y1="19.6191" x2="19.619" y2="19.6191" gradientUnits="userSpaceOnUse">
<stop stop-color="#1D59B3"/>
<stop offset="1" stop-color="#195BBC"/>
</linearGradient>
</defs>
</svg>
