<svg width="24" height="24" viewBox="0 0 24 24" fill="none" xmlns="http://www.w3.org/2000/svg">
<path d="M3.81319 21.6154L2 22L2.38462 20.1868C2.38462 20.0769 2.43956 19.967 2.54945 19.9121L8.92308 13.5385L10.4615 15.0769L4.08791 21.4505C4.03297 21.5055 3.92308 21.5604 3.81319 21.6154Z" fill="url(#paint0_linear_40_3559)"/>
<path d="M14.8571 14.5824L9.41759 9.14281L17.6593 2.71423L21.2857 6.34061L14.8571 14.5824Z" fill="#C94F60"/>
<path d="M8.91036 13.523L8.09448 14.3389L9.64859 15.893L10.4645 15.0771L8.91036 13.523Z" fill="url(#paint1_linear_40_3559)"/>
<path d="M14.3626 18.978L5.02197 9.63735L6.17582 8.48351C7.43955 7.21977 9.52747 7.21977 10.8461 8.48351L15.5165 13.1538C16.7802 14.4176 16.7802 16.5055 15.5165 17.8242L14.3626 18.978Z" fill="#BF2336"/>
<path d="M19.6374 7.98901L16.011 4.36264C15.5714 3.92308 15.5714 3.15385 16.011 2.71429L16.3956 2.32967C16.8352 1.89011 17.6044 1.89011 18.044 2.32967L21.6703 5.95604C22.1099 6.3956 22.1099 7.16484 21.6703 7.6044L21.2857 7.98901C20.8462 8.42857 20.0769 8.42857 19.6374 7.98901Z" fill="#BF2336"/>
<defs>
<linearGradient id="paint0_linear_40_3559" x1="4.6678" y1="13.6683" x2="8.85194" y2="21.7357" gradientUnits="userSpaceOnUse">
<stop stop-color="#7DD8F3"/>
<stop offset="1" stop-color="#45B0D0"/>
</linearGradient>
<linearGradient id="paint1_linear_40_3559" x1="8.46031" y1="14.1086" x2="10.5204" y2="15.1086" gradientUnits="userSpaceOnUse">
<stop stop-color="#32BDEF"/>
<stop offset="1" stop-color="#1EA2E4"/>
</linearGradient>
</defs>
</svg>
