<svg width="24" height="24" viewBox="0 0 24 24" fill="none" xmlns="http://www.w3.org/2000/svg">
<path d="M2.52632 20.9474V6.21051H21.4737V20.9474C21.4737 21.5263 21 22 20.4211 22H3.57895C3.00001 22 2.52632 21.5263 2.52632 20.9474Z" fill="url(#paint0_linear_40_3566)"/>
<path d="M21.4737 4.10524V7.26314H2.52632V4.10524C2.52632 3.5263 3.00001 3.05261 3.57895 3.05261H20.4211C21 3.05261 21.4737 3.5263 21.4737 4.10524Z" fill="url(#paint1_linear_40_3566)"/>
<path opacity="0.05" d="M18.0526 6.47366C17.1805 6.47366 16.4737 5.76682 16.4737 4.89472V3.05261H19.6316V4.89472C19.6316 5.76682 18.9247 6.47366 18.0526 6.47366Z" fill="black"/>
<path opacity="0.07" d="M18.0526 6.07893C17.3984 6.07893 16.8684 5.54893 16.8684 4.89472V3.05261H19.2368V4.89472C19.2368 5.54893 18.7068 6.07893 18.0526 6.07893Z" fill="black"/>
<path d="M18.0526 5.68421C17.6169 5.68421 17.2632 5.33053 17.2632 4.89474V2.78947C17.2632 2.35368 17.6169 2 18.0526 2C18.4884 2 18.8421 2.35368 18.8421 2.78947V4.89474C18.8421 5.33053 18.4884 5.68421 18.0526 5.68421Z" fill="#3CCBF4"/>
<path opacity="0.05" d="M5.94737 6.47366C5.07527 6.47366 4.36842 5.76682 4.36842 4.89472V3.05261H7.52632V4.89472C7.52632 5.76682 6.81948 6.47366 5.94737 6.47366Z" fill="black"/>
<path opacity="0.07" d="M5.94738 6.07893C5.29317 6.07893 4.76317 5.54893 4.76317 4.89472V3.05261H7.13159V4.89472C7.13159 5.54893 6.60159 6.07893 5.94738 6.07893Z" fill="black"/>
<path d="M5.94737 5.68421C5.51158 5.68421 5.1579 5.33053 5.1579 4.89474V2.78947C5.1579 2.35368 5.51158 2 5.94737 2C6.38316 2 6.73685 2.35368 6.73685 2.78947V4.89474C6.73685 5.33053 6.38316 5.68421 5.94737 5.68421Z" fill="#3CCBF4"/>
<path opacity="0.05" d="M13.5789 15.1579V18.3158C13.5789 18.8974 14.05 19.3684 14.6316 19.3684H17.7895C18.3711 19.3684 18.8421 18.8974 18.8421 18.3158V15.1579C18.8421 14.5763 18.3711 14.1053 17.7895 14.1053H14.6316C14.05 14.1053 13.5789 14.5763 13.5789 15.1579Z" fill="black"/>
<path opacity="0.07" d="M17.7895 19.1053H14.6316C14.1958 19.1053 13.8421 18.7516 13.8421 18.3158V15.1579C13.8421 14.7221 14.1958 14.3684 14.6316 14.3684H17.7895C18.2253 14.3684 18.579 14.7221 18.579 15.1579V18.3158C18.579 18.7516 18.2253 19.1053 17.7895 19.1053Z" fill="black"/>
<path d="M18.3158 15.1579V18.3158C18.3158 18.6063 18.08 18.8421 17.7895 18.8421H14.6316C14.3411 18.8421 14.1053 18.6063 14.1053 18.3158V15.1579C14.1053 14.8674 14.3411 14.6316 14.6316 14.6316H17.7895C18.08 14.6316 18.3158 14.8674 18.3158 15.1579Z" fill="white"/>
<defs>
<linearGradient id="paint0_linear_40_3566" x1="2.74422" y1="7.08525" x2="21.3547" y2="20.6779" gradientUnits="userSpaceOnUse">
<stop stop-color="#28AFEA"/>
<stop offset="1" stop-color="#047ED6"/>
</linearGradient>
<linearGradient id="paint1_linear_40_3566" x1="2.74737" y1="3.37261" x2="21.0516" y2="7.09472" gradientUnits="userSpaceOnUse">
<stop stop-color="#0077D2"/>
<stop offset="1" stop-color="#0B59A2"/>
</linearGradient>
</defs>
</svg>
