<svg width="24" height="24" viewBox="0 0 24 24" fill="none" xmlns="http://www.w3.org/2000/svg">
<path d="M20.8889 22H3.11111C2.49722 22 2 21.5028 2 20.8889V3.11111C2 2.49722 2.49722 2 3.11111 2H20.8889C21.5028 2 22 2.49722 22 3.11111V20.8889C22 21.5028 21.5028 22 20.8889 22Z" fill="url(#paint0_linear_40_3591)"/>
<path d="M5.8889 8.66668H4.77778C4.47112 8.66668 4.22223 8.41779 4.22223 8.11112V7.00001C4.22223 6.69335 4.47112 6.44446 4.77778 6.44446H5.8889C6.19556 6.44446 6.44445 6.69335 6.44445 7.00001V8.11112C6.44445 8.41779 6.19556 8.66668 5.8889 8.66668Z" fill="url(#paint1_linear_40_3591)"/>
<path d="M19.2222 8.66668H8.66667C8.36 8.66668 8.11111 8.41779 8.11111 8.11112V7.00001C8.11111 6.69335 8.36 6.44446 8.66667 6.44446H19.2222C19.5289 6.44446 19.7778 6.69335 19.7778 7.00001V8.11112C19.7778 8.41779 19.5289 8.66668 19.2222 8.66668Z" fill="#057093"/>
<path d="M5.8889 13.1111H4.77778C4.47112 13.1111 4.22223 12.8622 4.22223 12.5556V11.4445C4.22223 11.1378 4.47112 10.8889 4.77778 10.8889H5.8889C6.19556 10.8889 6.44445 11.1378 6.44445 11.4445V12.5556C6.44445 12.8622 6.19556 13.1111 5.8889 13.1111Z" fill="url(#paint2_linear_40_3591)"/>
<path d="M19.2222 13.1111H8.66667C8.36 13.1111 8.11111 12.8622 8.11111 12.5556V11.4445C8.11111 11.1378 8.36 10.8889 8.66667 10.8889H19.2222C19.5289 10.8889 19.7778 11.1378 19.7778 11.4445V12.5556C19.7778 12.8622 19.5289 13.1111 19.2222 13.1111Z" fill="#057093"/>
<path d="M5.8889 17.5555H4.77778C4.47112 17.5555 4.22223 17.3066 4.22223 17V15.8889C4.22223 15.5822 4.47112 15.3333 4.77778 15.3333H5.8889C6.19556 15.3333 6.44445 15.5822 6.44445 15.8889V17C6.44445 17.3066 6.19556 17.5555 5.8889 17.5555Z" fill="url(#paint3_linear_40_3591)"/>
<path d="M19.2222 17.5555H8.66667C8.36 17.5555 8.11111 17.3066 8.11111 17V15.8889C8.11111 15.5822 8.36 15.3333 8.66667 15.3333H19.2222C19.5289 15.3333 19.7778 15.5822 19.7778 15.8889V17C19.7778 17.3066 19.5289 17.5555 19.2222 17.5555Z" fill="#057093"/>
<defs>
<linearGradient id="paint0_linear_40_3591" x1="8.30571" y1="2.30706" x2="18.1954" y2="21.3752" gradientUnits="userSpaceOnUse">
<stop stop-color="#7DD8F3"/>
<stop offset="1" stop-color="#45B0D0"/>
</linearGradient>
<linearGradient id="paint1_linear_40_3591" x1="5.03412" y1="6.54132" x2="5.46546" y2="8.91332" gradientUnits="userSpaceOnUse">
<stop stop-color="#32BDEF"/>
<stop offset="1" stop-color="#1EA2E4"/>
</linearGradient>
<linearGradient id="paint2_linear_40_3591" x1="5.03412" y1="10.9858" x2="5.46546" y2="13.3578" gradientUnits="userSpaceOnUse">
<stop stop-color="#32BDEF"/>
<stop offset="1" stop-color="#1EA2E4"/>
</linearGradient>
<linearGradient id="paint3_linear_40_3591" x1="5.03412" y1="15.4302" x2="5.46546" y2="17.8022" gradientUnits="userSpaceOnUse">
<stop stop-color="#32BDEF"/>
<stop offset="1" stop-color="#1EA2E4"/>
</linearGradient>
</defs>
</svg>
