<svg width="24" height="24" viewBox="0 0 24 24" fill="none" xmlns="http://www.w3.org/2000/svg">
<path d="M5.65737 2.23102L3.8421 3.13628V12H19.1053L19.6258 11.101L5.65737 2.23102Z" fill="#0883D9"/>
<path d="M20.1579 12H18.0526C18.0526 11.4184 18.5237 10.9474 19.1053 10.9474C19.6868 10.9474 20.1579 11.4184 20.1579 12Z" fill="#0883D9"/>
<path d="M4.97842 4.27263C5.60599 4.27263 6.11473 3.76388 6.11473 3.13632C6.11473 2.50875 5.60599 2 4.97842 2C4.35085 2 3.8421 2.50875 3.8421 3.13632C3.8421 3.76388 4.35085 4.27263 4.97842 4.27263Z" fill="#0883D9"/>
<path d="M5.65737 21.7689L3.8421 20.8637V12H19.1053L19.6258 12.8989L5.65737 21.7689Z" fill="#0370C8"/>
<path d="M20.1579 12H18.0526C18.0526 12.5816 18.5237 13.0526 19.1053 13.0526C19.6868 13.0526 20.1579 12.5816 20.1579 12Z" fill="#0370C8"/>
<path d="M4.97842 22C5.60599 22 6.11473 21.4913 6.11473 20.8637C6.11473 20.2361 5.60599 19.7274 4.97842 19.7274C4.35085 19.7274 3.8421 20.2361 3.8421 20.8637C3.8421 21.4913 4.35085 22 4.97842 22Z" fill="#0370C8"/>
</svg>
