<svg width="24" height="24" viewBox="0 0 24 24" fill="none" xmlns="http://www.w3.org/2000/svg">
<path d="M20.9474 9.89474H14.1053V3.05263C14.1053 2.47105 13.6342 2 13.0526 2H10.9474C10.3658 2 9.89474 2.47105 9.89474 3.05263V9.89474H3.05263C2.47105 9.89474 2 10.3658 2 10.9474V13.0526C2 13.6342 2.47105 14.1053 3.05263 14.1053H20.9474C21.5289 14.1053 22 13.6342 22 13.0526V10.9474C22 10.3658 21.5289 9.89474 20.9474 9.89474Z" fill="url(#paint0_linear_40_3587)"/>
<path d="M14.1053 14.1053H9.89474V20.9474C9.89474 21.529 10.3658 22 10.9474 22H13.0526C13.6342 22 14.1053 21.529 14.1053 20.9474V14.1053Z" fill="url(#paint1_linear_40_3587)"/>
<defs>
<linearGradient id="paint0_linear_40_3587" x1="12" y1="1.97461" x2="12" y2="14.0616" gradientUnits="userSpaceOnUse">
<stop stop-color="#2AA4F4"/>
<stop offset="1" stop-color="#007AD9"/>
</linearGradient>
<linearGradient id="paint1_linear_40_3587" x1="12" y1="14.0888" x2="12" y2="21.9715" gradientUnits="userSpaceOnUse">
<stop stop-color="#2AA4F4"/>
<stop offset="1" stop-color="#007AD9"/>
</linearGradient>
</defs>
</svg>
