<svg width="24" height="24" viewBox="0 0 24 24" fill="none" xmlns="http://www.w3.org/2000/svg">
<path d="M16.8837 7.11628V18.7442C16.8837 19.2581 16.4674 19.6744 15.9535 19.6744H3.86047C3.34652 19.6744 2.93024 19.2581 2.93024 18.7442V2.93023C2.93024 2.41628 3.34652 2 3.86047 2H11.7674L16.8837 7.11628Z" fill="url(#paint0_linear_40_6083)"/>
<path d="M11.7675 2V6.18605C11.7675 6.7 12.1837 7.11628 12.6977 7.11628H16.8837L11.7675 2Z" fill="url(#paint1_linear_40_6083)"/>
<path d="M13.8605 9.44189H5.95351C5.82513 9.44189 5.72095 9.3377 5.72095 9.20933V8.74422C5.72095 8.61584 5.82513 8.51166 5.95351 8.51166H13.8605C13.9889 8.51166 14.093 8.61584 14.093 8.74422V9.20933C14.093 9.3377 13.9889 9.44189 13.8605 9.44189Z" fill="#057093"/>
<path d="M12.9302 11.3023H5.95351C5.82513 11.3023 5.72095 11.1981 5.72095 11.0697V10.6046C5.72095 10.4763 5.82513 10.3721 5.95351 10.3721H12.9302C13.0586 10.3721 13.1628 10.4763 13.1628 10.6046V11.0697C13.1628 11.1981 13.0586 11.3023 12.9302 11.3023Z" fill="#057093"/>
<path d="M13.8605 13.1628H5.95351C5.82513 13.1628 5.72095 13.0586 5.72095 12.9302V12.4651C5.72095 12.3367 5.82513 12.2325 5.95351 12.2325H13.8605C13.9889 12.2325 14.093 12.3367 14.093 12.4651V12.9302C14.093 13.0586 13.9889 13.1628 13.8605 13.1628Z" fill="#057093"/>
<path d="M12.9302 15.0233H5.95351C5.82513 15.0233 5.72095 14.9191 5.72095 14.7907V14.3256C5.72095 14.1972 5.82513 14.093 5.95351 14.093H12.9302C13.0586 14.093 13.1628 14.1972 13.1628 14.3256V14.7907C13.1628 14.9191 13.0586 15.0233 12.9302 15.0233Z" fill="#057093"/>
<path opacity="0.05" d="M16.8837 18.7442V12.2442C16.8084 12.2381 16.7326 12.2325 16.6512 12.2325C15.8242 12.2325 15.3409 12.5618 14.873 12.8809C14.3344 13.2484 13.7768 13.6279 12.4651 13.6279C12.0805 13.6279 11.7675 13.9409 11.7675 14.3256V16.4186C11.7675 16.7623 11.8107 17.1125 11.8954 17.4591C12.0982 18.2884 12.5261 19.0293 13.0368 19.6744H15.9535C16.4675 19.6744 16.8837 19.2581 16.8837 18.7442Z" fill="black"/>
<path opacity="0.07" d="M16.8837 18.7442V12.4767C16.8093 12.4702 16.733 12.4651 16.6512 12.4651C15.8958 12.4651 15.4628 12.7604 15.0042 13.073C14.4623 13.4423 13.8488 13.8604 12.4651 13.8604C12.2088 13.8604 12 14.0688 12 14.3256V16.4186C12 16.7437 12.0409 17.0753 12.1214 17.4042C12.3307 18.2595 12.7898 19.0214 13.3316 19.6744H15.9535C16.4674 19.6744 16.8837 19.2581 16.8837 18.7442Z" fill="black"/>
<path d="M20.8372 14.093C18.2507 14.093 18.2144 12.6977 16.6512 12.6977C15.0879 12.6977 15.0516 14.093 12.4651 14.093C12.3368 14.093 12.2326 14.1972 12.2326 14.3256C12.2326 14.3256 12.2326 15.6875 12.2326 16.4186C12.2326 16.7391 12.274 17.0493 12.3475 17.3489C13.0302 20.1414 16.5521 21.9782 16.5521 21.9782L16.553 21.9763C16.5828 21.9907 16.6158 22 16.6512 22C16.6865 22 16.7196 21.9907 16.7498 21.9763L16.7507 21.9782C16.7507 21.9782 20.2726 20.1409 20.9554 17.3489C21.0284 17.0493 21.0698 16.7391 21.0698 16.4186C21.0698 15.6875 21.0698 14.3256 21.0698 14.3256C21.0698 14.1972 20.9656 14.093 20.8372 14.093Z" fill="url(#paint2_linear_40_6083)"/>
<path d="M16.6512 13.6279C17.033 13.6279 17.22 13.7451 17.6432 14.0335C18.1679 14.3912 18.8586 14.8619 20.1395 14.9898V16.4186C20.1395 16.6503 20.1098 16.8889 20.0516 17.1275C19.5907 19.0121 17.4763 20.4596 16.6512 20.9619C15.8246 20.4586 13.7116 19.0117 13.2512 17.1279C13.1925 16.8889 13.1628 16.6503 13.1628 16.4186V14.9898C14.4437 14.8619 15.1344 14.3912 15.6591 14.0335C16.0823 13.7451 16.2693 13.6279 16.6512 13.6279Z" fill="url(#paint3_linear_40_6083)"/>
<defs>
<linearGradient id="paint0_linear_40_6083" x1="6.09384" y1="0.0348664" x2="18.8539" y2="9.87082" gradientUnits="userSpaceOnUse">
<stop stop-color="#7DD8F3"/>
<stop offset="1" stop-color="#45B0D0"/>
</linearGradient>
<linearGradient id="paint1_linear_40_6083" x1="12.0135" y1="6.87023" x2="14.3721" y2="4.51163" gradientUnits="userSpaceOnUse">
<stop stop-color="#3079D6"/>
<stop offset="1" stop-color="#297CD2"/>
</linearGradient>
<linearGradient id="paint2_linear_40_6083" x1="15.6228" y1="12.8303" x2="18.8205" y2="21.7298" gradientUnits="userSpaceOnUse">
<stop stop-color="#FFDA1C"/>
<stop offset="1" stop-color="#FEB705"/>
</linearGradient>
<linearGradient id="paint3_linear_40_6083" x1="16.6512" y1="13.6279" x2="16.6512" y2="21.4889" gradientUnits="userSpaceOnUse">
<stop stop-color="#EBC70F"/>
<stop offset="1" stop-color="#E3A405"/>
</linearGradient>
</defs>
</svg>
