<svg width="24" height="24" viewBox="0 0 24 24" fill="none" xmlns="http://www.w3.org/2000/svg">
<path d="M18.5697 2H5.43028C4.39367 2 3.55322 2.84046 3.55322 3.87706V17.0165C3.55322 18.0531 4.39367 18.8936 5.43028 18.8936H8.50444L11.336 21.7251C11.7025 22.0916 12.2966 22.0916 12.6631 21.7251L15.4956 18.8936H18.5697C19.6063 18.8936 20.4468 18.0531 20.4468 17.0165V3.87706C20.4468 2.84046 19.6063 2 18.5697 2Z" fill="url(#paint0_linear_40_3600)"/>
<path d="M3.55322 3.87706V4.34633H20.4468V3.87706C20.4468 2.84046 19.6063 2 18.5697 2H5.43028C4.39367 2 3.55322 2.84046 3.55322 3.87706Z" fill="url(#paint1_linear_40_3600)"/>
<path d="M7.54198 7.63122H5.19565C5.06613 7.63122 4.96101 7.5261 4.96101 7.39659V6.92732C4.96101 6.7978 5.06613 6.69269 5.19565 6.69269H7.54198C7.67149 6.69269 7.77661 6.7978 7.77661 6.92732V7.39659C7.77661 7.5261 7.67149 7.63122 7.54198 7.63122Z" fill="#057093"/>
<path d="M18.8044 7.63122H9.41904C9.28953 7.63122 9.18441 7.5261 9.18441 7.39659V6.92732C9.18441 6.7978 9.28953 6.69269 9.41904 6.69269H18.8044C18.9339 6.69269 19.039 6.7978 19.039 6.92732V7.39659C19.039 7.5261 18.9339 7.63122 18.8044 7.63122Z" fill="#057093"/>
<path d="M7.54198 9.50823H5.19565C5.06613 9.50823 4.96101 9.40312 4.96101 9.2736V8.80434C4.96101 8.67482 5.06613 8.5697 5.19565 8.5697H7.54198C7.67149 8.5697 7.77661 8.67482 7.77661 8.80434V9.2736C7.77661 9.40312 7.67149 9.50823 7.54198 9.50823Z" fill="#057093"/>
<path d="M18.8044 9.50823H9.41904C9.28953 9.50823 9.18441 9.40312 9.18441 9.2736V8.80434C9.18441 8.67482 9.28953 8.5697 9.41904 8.5697H18.8044C18.9339 8.5697 19.039 8.67482 19.039 8.80434V9.2736C19.039 9.40312 18.9339 9.50823 18.8044 9.50823Z" fill="#057093"/>
<path d="M7.54198 11.3853H5.19565C5.06613 11.3853 4.96101 11.2802 4.96101 11.1507V10.6814C4.96101 10.5519 5.06613 10.4468 5.19565 10.4468H7.54198C7.67149 10.4468 7.77661 10.5519 7.77661 10.6814V11.1507C7.77661 11.2802 7.67149 11.3853 7.54198 11.3853Z" fill="#057093"/>
<path d="M18.8044 11.3853H9.41904C9.28953 11.3853 9.18441 11.2802 9.18441 11.1507V10.6814C9.18441 10.5519 9.28953 10.4468 9.41904 10.4468H18.8044C18.9339 10.4468 19.039 10.5519 19.039 10.6814V11.1507C19.039 11.2802 18.9339 11.3853 18.8044 11.3853Z" fill="#057093"/>
<path d="M7.54198 13.2624H5.19565C5.06613 13.2624 4.96101 13.1573 4.96101 13.0278V12.5585C4.96101 12.429 5.06613 12.3239 5.19565 12.3239H7.54198C7.67149 12.3239 7.77661 12.429 7.77661 12.5585V13.0278C7.77661 13.1573 7.67149 13.2624 7.54198 13.2624Z" fill="#057093"/>
<path d="M18.8044 13.2624H9.41904C9.28953 13.2624 9.18441 13.1573 9.18441 13.0278V12.5585C9.18441 12.429 9.28953 12.3239 9.41904 12.3239H18.8044C18.9339 12.3239 19.039 12.429 19.039 12.5585V13.0278C19.039 13.1573 18.9339 13.2624 18.8044 13.2624Z" fill="#057093"/>
<path d="M7.54198 15.1395H5.19565C5.06613 15.1395 4.96101 15.0343 4.96101 14.9048V14.4356C4.96101 14.306 5.06613 14.2009 5.19565 14.2009H7.54198C7.67149 14.2009 7.77661 14.306 7.77661 14.4356V14.9048C7.77661 15.0343 7.67149 15.1395 7.54198 15.1395Z" fill="#057093"/>
<path d="M18.8044 15.1395H9.41904C9.28953 15.1395 9.18441 15.0343 9.18441 14.9048V14.4356C9.18441 14.306 9.28953 14.2009 9.41904 14.2009H18.8044C18.9339 14.2009 19.039 14.306 19.039 14.4356V14.9048C19.039 15.0343 18.9339 15.1395 18.8044 15.1395Z" fill="#057093"/>
<defs>
<linearGradient id="paint0_linear_40_3600" x1="4.3322" y1="2.77898" x2="21.138" y2="19.5848" gradientUnits="userSpaceOnUse">
<stop stop-color="#7DD8F3"/>
<stop offset="1" stop-color="#45B0D0"/>
</linearGradient>
<linearGradient id="paint1_linear_40_3600" x1="3.55322" y1="3.17316" x2="20.4468" y2="3.17316" gradientUnits="userSpaceOnUse">
<stop stop-color="#0077D2"/>
<stop offset="1" stop-color="#0B59A2"/>
</linearGradient>
</defs>
</svg>
