<svg width="24" height="24" viewBox="0 0 24 24" fill="none" xmlns="http://www.w3.org/2000/svg">
<rect x="5" y="8" width="16" height="10" rx="2" fill="url(#paint0_linear_62_83)"/>
<path d="M19.8947 4.54382H8.49121C8.2491 4.54382 8.05261 4.74031 8.05261 4.98242V14.6315C8.05261 14.8736 8.2491 15.0701 8.49121 15.0701H19.8947C20.1368 15.0701 20.3333 14.8736 20.3333 14.6315V4.98242C20.3333 4.74031 20.1368 4.54382 19.8947 4.54382Z" fill="url(#paint1_linear_62_83)"/>
<path opacity="0.05" d="M11.3421 8.49121C11.2671 8.49121 8.05261 8.49121 8.05261 8.49121V10.6842C8.05261 10.6842 11.2671 10.6842 11.3421 10.6842C11.9478 10.6842 12.4386 10.1934 12.4386 9.5877C12.4386 8.982 11.9478 8.49121 11.3421 8.49121Z" fill="black"/>
<path opacity="0.07" d="M11.3421 8.71045C11.2658 8.71045 8.05261 8.71045 8.05261 8.71045V10.4648C8.05261 10.4648 11.2658 10.4648 11.3421 10.4648C11.8267 10.4648 12.2193 10.0723 12.2193 9.58764C12.2193 9.10299 11.8267 8.71045 11.3421 8.71045Z" fill="black"/>
<path d="M5.42104 8.0526C4.45613 8.0526 3.66666 7.26312 3.66666 6.29821C3.66666 5.3333 4.45613 4.54382 5.42104 4.54382C6.38595 4.54382 7.17543 5.3333 7.17543 6.29821C7.17543 7.26312 6.38595 8.0526 5.42104 8.0526Z" fill="url(#paint2_linear_62_83)"/>
<path d="M11.3421 8.92981H5.42104C4.45218 8.92981 3.66666 9.71534 3.66666 10.6842V14.6316C3.66666 14.8737 3.86315 15.0702 4.10525 15.0702H6.73683C6.97894 15.0702 7.17543 14.8737 7.17543 14.6316V10.6842C7.17543 10.4421 7.37192 10.2456 7.61402 10.2456H11.3421C11.7053 10.2456 12 9.95086 12 9.5877C12 9.22455 11.7053 8.92981 11.3421 8.92981Z" fill="url(#paint3_linear_62_83)"/>
<path d="M5.42104 19.4562C4.45613 19.4562 3.66666 18.6667 3.66666 17.7018C3.66666 16.7369 4.45613 15.9474 5.42104 15.9474C6.38595 15.9474 7.17543 16.7369 7.17543 17.7018C7.17543 18.6667 6.38595 19.4562 5.42104 19.4562Z" fill="url(#paint4_linear_62_83)"/>
<path d="M9.807 19.4562C8.84209 19.4562 8.05261 18.6667 8.05261 17.7018C8.05261 16.7369 8.84209 15.9474 9.807 15.9474C10.7719 15.9474 11.5614 16.7369 11.5614 17.7018C11.5614 18.6667 10.7719 19.4562 9.807 19.4562Z" fill="url(#paint5_linear_62_83)"/>
<path d="M14.193 19.4562C13.2281 19.4562 12.4386 18.6667 12.4386 17.7018C12.4386 16.7369 13.2281 15.9474 14.193 15.9474C15.1579 15.9474 15.9474 16.7369 15.9474 17.7018C15.9474 18.6667 15.1579 19.4562 14.193 19.4562Z" fill="url(#paint6_linear_62_83)"/>
<path d="M18.5789 19.4562C17.614 19.4562 16.8246 18.6667 16.8246 17.7018C16.8246 16.7369 17.614 15.9474 18.5789 15.9474C19.5439 15.9474 20.3333 16.7369 20.3333 17.7018C20.3333 18.6667 19.5439 19.4562 18.5789 19.4562Z" fill="url(#paint7_linear_62_83)"/>
<defs>
<linearGradient id="paint0_linear_62_83" x1="8.899" y1="8.26222" x2="9.59685" y2="18.7109" gradientUnits="userSpaceOnUse">
<stop stop-color="#D1D1D1" stop-opacity="0.62"/>
<stop offset="1" stop-color="#C6C6C6"/>
</linearGradient>
<linearGradient id="paint1_linear_62_83" x1="10.0273" y1="6.23645" x2="17.2841" y2="14.7027" gradientUnits="userSpaceOnUse">
<stop stop-color="#0D61A9"/>
<stop offset="1" stop-color="#16528C"/>
</linearGradient>
<linearGradient id="paint2_linear_62_83" x1="4.5217" y1="4.63583" x2="4.91078" y2="8.2768" gradientUnits="userSpaceOnUse">
<stop offset="0.365372" stop-color="white"/>
<stop offset="0.714333" stop-color="#EDEDED"/>
<stop offset="0.88621" stop-color="#DBDBDB"/>
<stop offset="1" stop-color="#DADADA"/>
</linearGradient>
<linearGradient id="paint3_linear_62_83" x1="5.69739" y1="9.09082" x2="6.2017" y2="15.4956" gradientUnits="userSpaceOnUse">
<stop offset="0.365372" stop-color="white"/>
<stop offset="0.714333" stop-color="#EDEDED"/>
<stop offset="0.88621" stop-color="#DBDBDB"/>
<stop offset="1" stop-color="#DADADA"/>
</linearGradient>
<linearGradient id="paint4_linear_62_83" x1="4.5217" y1="16.0394" x2="4.91078" y2="19.6804" gradientUnits="userSpaceOnUse">
<stop offset="0.365372" stop-color="white"/>
<stop offset="0.714333" stop-color="#EDEDED"/>
<stop offset="0.88621" stop-color="#DBDBDB"/>
<stop offset="1" stop-color="#DADADA"/>
</linearGradient>
<linearGradient id="paint5_linear_62_83" x1="8.90766" y1="16.0394" x2="9.29674" y2="19.6804" gradientUnits="userSpaceOnUse">
<stop offset="0.365372" stop-color="white"/>
<stop offset="0.714333" stop-color="#EDEDED"/>
<stop offset="0.88621" stop-color="#DBDBDB"/>
<stop offset="1" stop-color="#DADADA"/>
</linearGradient>
<linearGradient id="paint6_linear_62_83" x1="13.2936" y1="16.0394" x2="13.6827" y2="19.6804" gradientUnits="userSpaceOnUse">
<stop offset="0.365372" stop-color="white"/>
<stop offset="0.714333" stop-color="#EDEDED"/>
<stop offset="0.88621" stop-color="#DBDBDB"/>
<stop offset="1" stop-color="#DADADA"/>
</linearGradient>
<linearGradient id="paint7_linear_62_83" x1="17.6796" y1="16.0394" x2="18.0687" y2="19.6804" gradientUnits="userSpaceOnUse">
<stop offset="0.365372" stop-color="white"/>
<stop offset="0.714333" stop-color="#EDEDED"/>
<stop offset="0.88621" stop-color="#DBDBDB"/>
<stop offset="1" stop-color="#DADADA"/>
</linearGradient>
</defs>
</svg>
