<svg width="24" height="24" viewBox="0 0 24 24" fill="none" xmlns="http://www.w3.org/2000/svg">
<path d="M21.5238 4.14288H2.47619V17.4762H21.5238V4.14288Z" fill="url(#paint0_radial_40_3635)"/>
<path d="M11.5238 17.4762H12.4762V20.3333H11.5238V17.4762Z" fill="#64717C"/>
<path d="M21.5238 4.61906H2.47619C2.21333 4.61906 2 4.40572 2 4.14287V3.19048C2 2.92763 2.21333 2.71429 2.47619 2.71429H21.5238C21.7867 2.71429 22 2.92763 22 3.19048V4.14287C22 4.40572 21.7867 4.61906 21.5238 4.61906Z" fill="url(#paint1_linear_40_3635)"/>
<path d="M21.5238 17H2.47619V17.9524H21.5238V17Z" fill="url(#paint2_linear_40_3635)"/>
<path d="M11.0476 20.3334C11.0476 20.8591 11.4743 21.2857 12 21.2857C12.5257 21.2857 12.9524 20.8591 12.9524 20.3334C12.9524 19.8076 12.5257 19.381 12 19.381C11.4743 19.381 11.0476 19.8076 11.0476 20.3334Z" fill="#ABB4BE"/>
<path d="M7.71429 7.4762C5.87333 7.4762 4.38095 8.96858 4.38095 10.8095C4.38095 12.6505 5.87333 14.1429 7.71429 14.1429C9.55524 14.1429 11.0476 12.6505 11.0476 10.8095H7.71429V7.4762Z" fill="white"/>
<path d="M8.66667 6.5238V9.85714H12C12 8.01618 10.5076 6.5238 8.66667 6.5238Z" fill="white"/>
<path d="M19.381 7.95238H14.1429C14.0114 7.95238 13.9048 7.84571 13.9048 7.71429V7.2381C13.9048 7.10667 14.0114 7 14.1429 7H19.381C19.5124 7 19.619 7.10667 19.619 7.2381V7.71429C19.619 7.84571 19.5124 7.95238 19.381 7.95238Z" fill="white"/>
<path d="M18.4286 8.90479H14.1429C14.0114 8.90479 13.9048 9.01145 13.9048 9.14288V9.61907C13.9048 9.7505 14.0114 9.85717 14.1429 9.85717H18.4286C18.56 9.85717 18.6667 9.7505 18.6667 9.61907V9.14288C18.6667 9.01145 18.56 8.90479 18.4286 8.90479Z" fill="white"/>
<path d="M19.381 10.8095H14.1429C14.0114 10.8095 13.9048 10.9162 13.9048 11.0476V11.5238C13.9048 11.6552 14.0114 11.7619 14.1429 11.7619H19.381C19.5124 11.7619 19.619 11.6552 19.619 11.5238V11.0476C19.619 10.9162 19.5124 10.8095 19.381 10.8095Z" fill="white"/>
<path d="M18.4286 12.7143H14.1429C14.0114 12.7143 13.9048 12.821 13.9048 12.9524V13.4286C13.9048 13.56 14.0114 13.6667 14.1429 13.6667H18.4286C18.56 13.6667 18.6667 13.56 18.6667 13.4286V12.9524C18.6667 12.821 18.56 12.7143 18.4286 12.7143Z" fill="white"/>
<path d="M21.5238 17.9524C21.7868 17.9524 22 17.7391 22 17.4762C22 17.2132 21.7868 17 21.5238 17C21.2609 17 21.0476 17.2132 21.0476 17.4762C21.0476 17.7391 21.2609 17.9524 21.5238 17.9524Z" fill="url(#paint3_linear_40_3635)"/>
<path d="M2.47619 17.9524C2.73918 17.9524 2.95238 17.7391 2.95238 17.4762C2.95238 17.2132 2.73918 17 2.47619 17C2.2132 17 2 17.2132 2 17.4762C2 17.7391 2.2132 17.9524 2.47619 17.9524Z" fill="url(#paint4_linear_40_3635)"/>
<defs>
<radialGradient id="paint0_radial_40_3635" cx="0" cy="0" r="1" gradientUnits="userSpaceOnUse" gradientTransform="translate(26.4334 22.3159) scale(36.4157 27.6138)">
<stop offset="0.131" stop-color="#23D9D6"/>
<stop offset="0.214" stop-color="#21BDDD"/>
<stop offset="0.364" stop-color="#1E90E7"/>
<stop offset="0.508" stop-color="#1B6CF0"/>
<stop offset="0.642" stop-color="#1953F6"/>
<stop offset="0.764" stop-color="#1843FA"/>
<stop offset="0.862" stop-color="#183EFB"/>
</radialGradient>
<linearGradient id="paint1_linear_40_3635" x1="9.307" y1="2.79732" x2="9.34336" y2="4.89708" gradientUnits="userSpaceOnUse">
<stop stop-color="#32BDEF"/>
<stop offset="1" stop-color="#1EA2E4"/>
</linearGradient>
<linearGradient id="paint2_linear_40_3635" x1="9.43524" y1="17.0415" x2="9.44479" y2="18.0916" gradientUnits="userSpaceOnUse">
<stop stop-color="#32BDEF"/>
<stop offset="1" stop-color="#1EA2E4"/>
</linearGradient>
<linearGradient id="paint3_linear_40_3635" x1="21.3956" y1="17.0415" x2="21.5805" y2="18.0581" gradientUnits="userSpaceOnUse">
<stop stop-color="#32BDEF"/>
<stop offset="1" stop-color="#1EA2E4"/>
</linearGradient>
<linearGradient id="paint4_linear_40_3635" x1="2.34795" y1="17.0415" x2="2.53282" y2="18.0581" gradientUnits="userSpaceOnUse">
<stop stop-color="#32BDEF"/>
<stop offset="1" stop-color="#1EA2E4"/>
</linearGradient>
</defs>
</svg>
