<svg width="24" height="24" viewBox="0 0 24 24" fill="none" xmlns="http://www.w3.org/2000/svg">
<path d="M20.8889 2H3.11111C2.49722 2 2 2.49722 2 3.11111V20.8889C2 21.5028 2.49722 22 3.11111 22H20.8889C21.5028 22 22 21.5028 22 20.8889V3.11111C22 2.49722 21.5028 2 20.8889 2Z" fill="url(#paint0_linear_40_3650)"/>
<path opacity="0.05" d="M12 17.2778C15.5284 17.2778 18.3889 14.9149 18.3889 12C18.3889 9.08517 15.5284 6.72223 12 6.72223C8.47151 6.72223 5.61111 9.08517 5.61111 12C5.61111 14.9149 8.47151 17.2778 12 17.2778Z" fill="black"/>
<path opacity="0.07" d="M12 17C15.3751 17 18.1111 14.7614 18.1111 12C18.1111 9.23858 15.3751 7 12 7C8.62492 7 5.88889 9.23858 5.88889 12C5.88889 14.7614 8.62492 17 12 17Z" fill="black"/>
<path d="M12 16.7222C15.2217 16.7222 17.8333 14.608 17.8333 12C17.8333 9.39198 15.2217 7.27777 12 7.27777C8.77834 7.27777 6.16667 9.39198 6.16667 12C6.16667 14.608 8.77834 16.7222 12 16.7222Z" fill="url(#paint1_radial_40_3650)"/>
<path d="M12 15.0555C14.1478 15.0555 15.8889 13.3144 15.8889 11.1667C15.8889 9.01888 14.1478 7.27777 12 7.27777C9.85222 7.27777 8.11111 9.01888 8.11111 11.1667C8.11111 13.3144 9.85222 15.0555 12 15.0555Z" fill="url(#paint2_linear_40_3650)"/>
<path d="M12 13.3889C13.2273 13.3889 14.2222 12.394 14.2222 11.1667C14.2222 9.93935 13.2273 8.94446 12 8.94446C10.7727 8.94446 9.77778 9.93935 9.77778 11.1667C9.77778 12.394 10.7727 13.3889 12 13.3889Z" fill="url(#paint3_radial_40_3650)"/>
<path d="M13.1111 10.0556C13.4179 10.0556 13.6667 9.80679 13.6667 9.50001C13.6667 9.19319 13.4179 8.94446 13.1111 8.94446C12.8043 8.94446 12.5556 9.19319 12.5556 9.50001C12.5556 9.80679 12.8043 10.0556 13.1111 10.0556Z" fill="white"/>
<defs>
<linearGradient id="paint0_linear_40_3650" x1="2.34833" y1="2.21444" x2="22.7739" y2="22.9239" gradientUnits="userSpaceOnUse">
<stop stop-color="#33BEF0"/>
<stop offset="1" stop-color="#0A85D9"/>
</linearGradient>
<radialGradient id="paint1_radial_40_3650" cx="0" cy="0" r="1" gradientUnits="userSpaceOnUse" gradientTransform="translate(12.039 10.5195) scale(6.19033 6.26402)">
<stop offset="0.55" stop-color="#E4E4E6"/>
<stop offset="0.73" stop-color="#E1E2E4"/>
<stop offset="0.854" stop-color="#D8DADC"/>
<stop offset="0.961" stop-color="#C9CDCF"/>
<stop offset="1" stop-color="#C1C6C9"/>
</radialGradient>
<linearGradient id="paint2_linear_40_3650" x1="9.52444" y1="8.6911" x2="14.5456" y2="13.7122" gradientUnits="userSpaceOnUse">
<stop stop-color="#32BDEF"/>
<stop offset="1" stop-color="#1EA2E4"/>
</linearGradient>
<radialGradient id="paint3_radial_40_3650" cx="0" cy="0" r="1" gradientUnits="userSpaceOnUse" gradientTransform="translate(10.6906 7.91557) scale(5.76778)">
<stop stop-color="#4B4B4B"/>
<stop offset="0.531" stop-color="#393939"/>
<stop offset="1" stop-color="#252525"/>
</radialGradient>
</defs>
</svg>
