<svg width="24" height="24" viewBox="0 0 24 24" fill="none" xmlns="http://www.w3.org/2000/svg">
<path d="M21 20H3C2.45 20 2 19.55 2 19V8.5C2 7.95 2.45 7.5 3 7.5H21C21.55 7.5 22 7.95 22 8.5V19C22 19.55 21.55 20 21 20Z" fill="url(#paint0_linear_40_3665)"/>
<path d="M19.25 16.5H4.75C4.336 16.5 4 16.164 4 15.75C4 15.336 4.336 15 4.75 15H19.25C19.664 15 20 15.336 20 15.75C20 16.164 19.664 16.5 19.25 16.5Z" fill="#252525"/>
<path d="M17.5 21.5H6.5C5.9475 21.5 5.5 21.0525 5.5 20.5V16H18.5V20.5C18.5 21.0525 18.0525 21.5 17.5 21.5Z" fill="url(#paint1_linear_40_3665)"/>
<path d="M20 7.5H4V5.5C4 5.224 4.224 5 4.5 5H19.5C19.776 5 20 5.224 20 5.5V7.5Z" fill="#0076D7"/>
<path d="M6.5 2.5H17.5C18.0525 2.5 18.5 2.9475 18.5 3.5V7.5H5.5V3.5C5.5 2.9475 5.9475 2.5 6.5 2.5Z" fill="url(#paint2_linear_40_3665)"/>
<path d="M18.5 15H5.5V16H18.5V15Z" fill="#199AE0"/>
<path d="M18.979 12.012C19.5313 12.012 19.979 11.5643 19.979 11.012C19.979 10.4597 19.5313 10.012 18.979 10.012C18.4267 10.012 17.979 10.4597 17.979 11.012C17.979 11.5643 18.4267 12.012 18.979 12.012Z" fill="#EEF2F3"/>
<path d="M19 11.5C19.2761 11.5 19.5 11.2761 19.5 11C19.5 10.7239 19.2761 10.5 19 10.5C18.7239 10.5 18.5 10.7239 18.5 11C18.5 11.2761 18.7239 11.5 19 11.5Z" fill="url(#paint3_linear_40_3665)"/>
<defs>
<linearGradient id="paint0_linear_40_3665" x1="12" y1="7.392" x2="12" y2="19.95" gradientUnits="userSpaceOnUse">
<stop offset="0.9" stop-color="#6D7882"/>
<stop offset="0.917" stop-color="#45494D"/>
</linearGradient>
<linearGradient id="paint1_linear_40_3665" x1="9.59871" y1="16.0844" x2="10.9918" y2="22.4331" gradientUnits="userSpaceOnUse">
<stop stop-color="#7DD8F3"/>
<stop offset="1" stop-color="#45B0D0"/>
</linearGradient>
<linearGradient id="paint2_linear_40_3665" x1="9.59871" y1="2.57676" x2="10.7593" y2="8.39464" gradientUnits="userSpaceOnUse">
<stop stop-color="#7DD8F3"/>
<stop offset="1" stop-color="#45B0D0"/>
</linearGradient>
<linearGradient id="paint3_linear_40_3665" x1="18.6625" y1="10.663" x2="19.4065" y2="11.407" gradientUnits="userSpaceOnUse">
<stop stop-color="#32BDEF"/>
<stop offset="1" stop-color="#1EA2E4"/>
</linearGradient>
</defs>
</svg>
