<svg width="24" height="24" viewBox="0 0 24 24" fill="none" xmlns="http://www.w3.org/2000/svg">
<path d="M16.348 13.6366H7.65201V21.5647C7.65201 21.9025 8.02072 22.1112 8.31029 21.9373L12 19.7238L15.6897 21.9373C15.9797 22.1112 16.348 21.9025 16.348 21.5647V13.6366Z" fill="url(#paint0_radial_40_3689)"/>
<path d="M19.4068 9.08383L18.8598 8.75513C18.6267 8.61512 18.4693 8.38511 18.398 8.12293C18.3963 8.11815 18.3959 8.11336 18.3941 8.10815C18.3215 7.84379 18.3433 7.56204 18.4763 7.32247L18.7863 6.76462C19.1033 6.19417 18.6981 5.4911 18.045 5.48023L17.4011 5.46892C17.128 5.46414 16.8749 5.34283 16.6828 5.15022C16.6806 5.14804 16.6789 5.1463 16.6767 5.14413C16.4828 4.95152 16.3623 4.69803 16.3575 4.42541L16.3467 3.78148C16.3358 3.12884 15.6327 2.72318 15.0623 3.04015L14.5044 3.35016C14.264 3.4832 13.9831 3.50494 13.7188 3.43233C13.714 3.43059 13.7092 3.43016 13.704 3.42842C13.4418 3.35711 13.2118 3.19972 13.0718 2.96666L12.7431 2.41969C12.4074 1.8601 11.5956 1.8601 11.26 2.41969L10.933 2.96449C10.7921 3.19928 10.5595 3.35798 10.296 3.43016C10.293 3.43103 10.2904 3.4319 10.2873 3.43233C10.0204 3.50581 9.73731 3.48407 9.49513 3.34929L8.93946 3.04102C8.369 2.72405 7.66593 3.12928 7.65506 3.78234L7.64332 4.42541C7.63854 4.69759 7.51723 4.95152 7.32462 5.1437C7.32244 5.14544 7.31983 5.14761 7.31853 5.14978C7.12592 5.34327 6.87243 5.46371 6.60024 5.46849L5.95631 5.47936C5.30368 5.49023 4.89801 6.19243 5.21498 6.76375L5.52499 7.3216C5.65804 7.56204 5.67978 7.84292 5.60717 8.10728C5.60499 8.11206 5.60412 8.11728 5.60238 8.12206C5.53108 8.38424 5.37325 8.61425 5.14063 8.75425L4.59365 9.08296C4.03407 9.41863 4.03407 10.2304 4.59365 10.5661L5.14063 10.8948C5.37368 11.0348 5.53108 11.2648 5.60238 11.527C5.60412 11.5318 5.60456 11.5365 5.6063 11.5418C5.67891 11.8061 5.65717 12.0879 5.52412 12.3274L5.21411 12.8853C4.89714 13.4557 5.30237 14.1588 5.95544 14.1697L6.59938 14.1805C6.87243 14.1853 7.12548 14.3066 7.31766 14.4993C7.31983 14.5014 7.32157 14.5032 7.32375 14.5053C7.51723 14.698 7.63767 14.9514 7.64245 15.2236L7.65332 15.8676C7.66419 16.5202 8.36726 16.9259 8.93772 16.6089L9.49556 16.2989C9.736 16.1658 10.0169 16.1441 10.2812 16.2167C10.286 16.2184 10.2912 16.2189 10.296 16.2206C10.5582 16.2919 10.7882 16.4493 10.9282 16.6824L11.2569 17.2293C11.5926 17.7889 12.4044 17.7889 12.74 17.2293L13.0687 16.6824C13.2087 16.4493 13.4387 16.2919 13.7009 16.2206C13.7057 16.2189 13.7109 16.2184 13.7157 16.2167C13.9801 16.1441 14.2618 16.1658 14.5014 16.2989L15.0592 16.6089C15.6297 16.9259 16.3328 16.5206 16.3436 15.8676L16.3545 15.2236C16.3593 14.9506 16.4806 14.6975 16.6732 14.5053C16.6754 14.5032 16.6771 14.5014 16.6793 14.4993C16.8719 14.3058 17.1254 14.1853 17.3976 14.1805L18.0415 14.1697C18.6941 14.1588 19.0998 13.4557 18.7828 12.8853L18.4728 12.3274C18.3398 12.087 18.318 11.8061 18.3907 11.5418C18.3924 11.537 18.3928 11.5322 18.3946 11.527C18.4659 11.2648 18.6233 11.0348 18.8563 10.8948L19.4033 10.5661C19.9664 10.2308 19.9664 9.41993 19.4068 9.08383Z" fill="url(#paint1_linear_40_3689)"/>
<path d="M12 14.1736C14.4013 14.1736 16.348 12.2269 16.348 9.82564C16.348 7.42432 14.4013 5.47766 12 5.47766C9.59867 5.47766 7.65201 7.42432 7.65201 9.82564C7.65201 12.2269 9.59867 14.1736 12 14.1736Z" stroke="#FFDF26" stroke-miterlimit="10"/>
<defs>
<radialGradient id="paint0_radial_40_3689" cx="0" cy="0" r="1" gradientUnits="userSpaceOnUse" gradientTransform="translate(11.9752 9.79126) scale(9.89817)">
<stop offset="0.655" stop-color="#871233"/>
<stop offset="0.718" stop-color="#8E1336"/>
<stop offset="0.812" stop-color="#A3163E"/>
<stop offset="0.9" stop-color="#BC1948"/>
</radialGradient>
<linearGradient id="paint1_linear_40_3689" x1="8.02116" y1="2.90971" x2="15.9471" y2="16.6859" gradientUnits="userSpaceOnUse">
<stop stop-color="#FFDA1C"/>
<stop offset="1" stop-color="#FEB705"/>
</linearGradient>
</defs>
</svg>
