<svg width="24" height="24" viewBox="0 0 24 24" fill="none" xmlns="http://www.w3.org/2000/svg">
<path d="M5.114 7.94253L3.66 6.48853C2.613 8.06903 2 9.96203 2 12C2 13.834 2.4965 15.5515 3.3595 17.029C3.506 17.28 3.8565 17.3155 4.062 17.1095L4.882 16.2895C5.0195 16.152 5.045 15.943 4.953 15.772C4.3485 14.6475 4 13.366 4 12C4 10.517 4.4105 9.13353 5.114 7.94253Z" fill="url(#paint0_linear_40_3694)"/>
<path d="M20 12C20 13.483 19.5895 14.8665 18.886 16.0575L20.34 17.5115C21.387 15.931 22 14.0375 22 12C22 10.166 21.5035 8.44851 20.6405 6.97101C20.494 6.72001 20.1435 6.68501 19.938 6.89051L19.118 7.71051C18.9805 7.84801 18.955 8.05701 19.047 8.22801C19.6515 9.35251 20 10.634 20 12Z" fill="url(#paint1_linear_40_3694)"/>
<path d="M7.7105 4.882C7.848 5.0195 8.057 5.045 8.228 4.953C9.3525 4.3485 10.634 4 12 4C13.483 4 14.8665 4.4105 16.0575 5.114L17.512 3.6595C15.931 2.613 14.038 2 12 2C10.175 2 8.466 2.4915 6.9935 3.3465C6.733 3.498 6.678 3.8495 6.891 4.0625L7.7105 4.882Z" fill="url(#paint2_linear_40_3694)"/>
<path d="M16.2895 19.118C16.152 18.9805 15.943 18.955 15.772 19.047C14.6475 19.6515 13.366 20 12 20C10.517 20 9.1335 19.5895 7.9425 18.886L6.4885 20.34C8.069 21.387 9.9625 22 12 22C13.834 22 15.5515 21.5035 17.029 20.6405C17.28 20.494 17.3155 20.1435 17.1095 19.938L16.2895 19.118Z" fill="#0078D4"/>
<path d="M17.967 6.03752L15.55 5.95452C15.379 5.94852 15.294 5.74402 15.4115 5.61902L17.74 3.13152C17.861 3.00202 18.078 3.08302 18.085 3.26002L18.1855 5.81852C18.19 5.94102 18.0895 6.04152 17.967 6.03752Z" fill="url(#paint3_linear_40_3694)"/>
<path d="M6.033 17.9625L8.45 18.0455C8.621 18.0515 8.706 18.256 8.5885 18.381L6.26 20.8685C6.139 20.998 5.922 20.917 5.915 20.74L5.8145 18.1815C5.81 18.059 5.9105 17.9585 6.033 17.9625Z" fill="#0078D4"/>
<path d="M17.9625 17.967L18.0455 15.55C18.0515 15.379 18.256 15.294 18.381 15.4115L20.8685 17.74C20.998 17.861 20.917 18.078 20.74 18.085L18.1815 18.1855C18.059 18.19 17.9585 18.0895 17.9625 17.967Z" fill="url(#paint4_linear_40_3694)"/>
<path d="M6.0375 6.03298L5.9545 8.44998C5.9485 8.62098 5.744 8.70598 5.619 8.58848L3.131 6.25998C3.0015 6.13898 3.0825 5.92198 3.2595 5.91498L5.818 5.81448C5.941 5.80998 6.0415 5.91048 6.0375 6.03298Z" fill="url(#paint5_linear_40_3694)"/>
<defs>
<linearGradient id="paint0_linear_40_3694" x1="2.9818" y1="6.65364" x2="8.51994" y2="9.74536" gradientUnits="userSpaceOnUse">
<stop stop-color="#7DD8F3"/>
<stop offset="1" stop-color="#45B0D0"/>
</linearGradient>
<linearGradient id="paint1_linear_40_3694" x1="19.5759" y1="5.15468" x2="25.2165" y2="7.55222" gradientUnits="userSpaceOnUse">
<stop stop-color="#FCFCFC"/>
<stop offset="0.95" stop-color="#C3C9CD"/>
</linearGradient>
<linearGradient id="paint2_linear_40_3694" x1="10.6881" y1="2.13574" x2="10.8685" y2="5.56005" gradientUnits="userSpaceOnUse">
<stop stop-color="#32BDEF"/>
<stop offset="1" stop-color="#1EA2E4"/>
</linearGradient>
<linearGradient id="paint3_linear_40_3694" x1="16.3905" y1="3.19738" x2="16.9937" y2="6.3569" gradientUnits="userSpaceOnUse">
<stop stop-color="#32BDEF"/>
<stop offset="1" stop-color="#1EA2E4"/>
</linearGradient>
<linearGradient id="paint4_linear_40_3694" x1="18.6203" y1="14.9357" x2="20.5019" y2="17.8357" gradientUnits="userSpaceOnUse">
<stop stop-color="#FCFCFC"/>
<stop offset="0.95" stop-color="#C3C9CD"/>
</linearGradient>
<linearGradient id="paint5_linear_40_3694" x1="4.00388" y1="5.85776" x2="5.36268" y2="8.60882" gradientUnits="userSpaceOnUse">
<stop stop-color="#7DD8F3"/>
<stop offset="1" stop-color="#45B0D0"/>
</linearGradient>
</defs>
</svg>
