<svg width="24" height="24" viewBox="0 0 24 24" fill="none" xmlns="http://www.w3.org/2000/svg">
<path d="M6.21053 4.10526V2.52632C6.21053 2.23579 6.44632 2 6.73684 2C7.02737 2 7.26316 2.23579 7.26316 2.52632V4.10526H6.21053Z" fill="#E3A600"/>
<path d="M8.31579 4.10526V2.52632C8.31579 2.23579 8.55158 2 8.8421 2C9.13263 2 9.36842 2.23579 9.36842 2.52632V4.10526H8.31579Z" fill="#E3A600"/>
<path d="M10.4211 4.10526V2.52632C10.4211 2.23579 10.6568 2 10.9474 2C11.2379 2 11.4737 2.23579 11.4737 2.52632V4.10526H10.4211Z" fill="#E3A600"/>
<path d="M12.5263 4.10526V2.52632C12.5263 2.23579 12.7621 2 13.0526 2C13.3432 2 13.5789 2.23579 13.5789 2.52632V4.10526H12.5263Z" fill="#E3A600"/>
<path d="M14.6316 4.10526V2.52632C14.6316 2.23579 14.8674 2 15.1579 2C15.4484 2 15.6842 2.23579 15.6842 2.52632V4.10526H14.6316Z" fill="#E3A600"/>
<path d="M16.7368 4.10526V2.52632C16.7368 2.23579 16.9726 2 17.2632 2C17.5537 2 17.7895 2.23579 17.7895 2.52632V4.10526H16.7368Z" fill="#E3A600"/>
<path d="M18.8421 19.8948H5.15789C4.57632 19.8948 4.10526 19.4237 4.10526 18.8421V5.15792C4.10526 4.57634 4.57632 4.10529 5.15789 4.10529H18.8421C19.4237 4.10529 19.8947 4.57634 19.8947 5.15792V18.8421C19.8947 19.4237 19.4237 19.8948 18.8421 19.8948Z" fill="url(#paint0_linear_40_3704)"/>
<path opacity="0.05" d="M16.4 18.3158H7.59842C6.54105 18.3158 5.68421 17.4589 5.68421 16.4016V7.59999C5.68421 6.5421 6.54211 5.6842 7.6 5.6842H16.4C17.4579 5.6842 18.3158 6.5421 18.3158 7.59999V16.4C18.3158 17.4579 17.4579 18.3158 16.4 18.3158Z" fill="black"/>
<path opacity="0.07" d="M16.2958 17.7895H7.70421C6.87947 17.7895 6.21053 17.1205 6.21053 16.2958V7.70419C6.21053 6.87946 6.87947 6.21051 7.70421 6.21051H16.2958C17.1205 6.21051 17.7895 6.87946 17.7895 7.70419V16.2958C17.7895 17.1205 17.1205 17.7895 16.2958 17.7895Z" fill="black"/>
<path d="M16.2105 17.2631H7.78947C7.20789 17.2631 6.73684 16.7921 6.73684 16.2105V7.78945C6.73684 7.20787 7.20789 6.73682 7.78947 6.73682H16.2105C16.7921 6.73682 17.2632 7.20787 17.2632 7.78945V16.2105C17.2632 16.7921 16.7921 17.2631 16.2105 17.2631Z" fill="url(#paint1_linear_40_3704)"/>
<path d="M6.21053 19.8947V21.4737C6.21053 21.7642 6.44632 22 6.73684 22C7.02737 22 7.26316 21.7642 7.26316 21.4737V19.8947H6.21053Z" fill="#E3A600"/>
<path d="M8.31579 19.8947V21.4737C8.31579 21.7642 8.55158 22 8.8421 22C9.13263 22 9.36842 21.7642 9.36842 21.4737V19.8947H8.31579Z" fill="#E3A600"/>
<path d="M10.4211 19.8947V21.4737C10.4211 21.7642 10.6568 22 10.9474 22C11.2379 22 11.4737 21.7642 11.4737 21.4737V19.8947H10.4211Z" fill="#E3A600"/>
<path d="M12.5263 19.8947V21.4737C12.5263 21.7642 12.7621 22 13.0526 22C13.3432 22 13.5789 21.7642 13.5789 21.4737V19.8947H12.5263Z" fill="#E3A600"/>
<path d="M14.6316 19.8947V21.4737C14.6316 21.7642 14.8674 22 15.1579 22C15.4484 22 15.6842 21.7642 15.6842 21.4737V19.8947H14.6316Z" fill="#E3A600"/>
<path d="M16.7368 19.8947V21.4737C16.7368 21.7642 16.9726 22 17.2632 22C17.5537 22 17.7895 21.7642 17.7895 21.4737V19.8947H16.7368Z" fill="#E3A600"/>
<path d="M19.8947 17.7894H21.4737C21.7642 17.7894 22 17.5537 22 17.2631C22 16.9726 21.7642 16.7368 21.4737 16.7368H19.8947V17.7894Z" fill="#E3A600"/>
<path d="M19.8947 15.6842H21.4737C21.7642 15.6842 22 15.4484 22 15.1579C22 14.8674 21.7642 14.6316 21.4737 14.6316H19.8947V15.6842Z" fill="#E3A600"/>
<path d="M19.8947 13.5789H21.4737C21.7642 13.5789 22 13.3431 22 13.0526C22 12.7621 21.7642 12.5263 21.4737 12.5263H19.8947V13.5789Z" fill="#E3A600"/>
<path d="M19.8947 11.4737H21.4737C21.7642 11.4737 22 11.2379 22 10.9474C22 10.6569 21.7642 10.4211 21.4737 10.4211H19.8947V11.4737Z" fill="#E3A600"/>
<path d="M19.8947 9.36843H21.4737C21.7642 9.36843 22 9.13264 22 8.84211C22 8.55159 21.7642 8.3158 21.4737 8.3158H19.8947V9.36843Z" fill="#E3A600"/>
<path d="M19.8947 7.26314H21.4737C21.7642 7.26314 22 7.02735 22 6.73683C22 6.4463 21.7642 6.21051 21.4737 6.21051H19.8947V7.26314Z" fill="#E3A600"/>
<path d="M4.10526 17.7894H2.52632C2.23579 17.7894 2 17.5537 2 17.2631C2 16.9726 2.23579 16.7368 2.52632 16.7368H4.10526V17.7894Z" fill="#E3A600"/>
<path d="M4.10526 15.6842H2.52632C2.23579 15.6842 2 15.4484 2 15.1579C2 14.8674 2.23579 14.6316 2.52632 14.6316H4.10526V15.6842Z" fill="#E3A600"/>
<path d="M4.10526 13.5789H2.52632C2.23579 13.5789 2 13.3431 2 13.0526C2 12.7621 2.23579 12.5263 2.52632 12.5263H4.10526V13.5789Z" fill="#E3A600"/>
<path d="M4.10526 11.4737H2.52632C2.23579 11.4737 2 11.2379 2 10.9474C2 10.6569 2.23579 10.4211 2.52632 10.4211H4.10526V11.4737Z" fill="#E3A600"/>
<path d="M4.10526 9.36843H2.52632C2.23579 9.36843 2 9.13264 2 8.84211C2 8.55159 2.23579 8.3158 2.52632 8.3158H4.10526V9.36843Z" fill="#E3A600"/>
<path d="M4.10526 7.26314H2.52632C2.23579 7.26314 2 7.02735 2 6.73683C2 6.4463 2.23579 6.21051 2.52632 6.21051H4.10526V7.26314Z" fill="#E3A600"/>
<path d="M18.3158 6.21053C18.6064 6.21053 18.8421 5.97489 18.8421 5.68421C18.8421 5.39354 18.6064 5.1579 18.3158 5.1579C18.0252 5.1579 17.7895 5.39354 17.7895 5.68421C17.7895 5.97489 18.0252 6.21053 18.3158 6.21053Z" fill="url(#paint2_linear_40_3704)"/>
<path d="M5.68421 18.8421C5.97489 18.8421 6.21053 18.6064 6.21053 18.3158C6.21053 18.0252 5.97489 17.7895 5.68421 17.7895C5.39354 17.7895 5.1579 18.0252 5.1579 18.3158C5.1579 18.6064 5.39354 18.8421 5.68421 18.8421Z" fill="url(#paint3_linear_40_3704)"/>
<path d="M18.3158 18.8421C18.6064 18.8421 18.8421 18.6064 18.8421 18.3158C18.8421 18.0252 18.6064 17.7895 18.3158 17.7895C18.0252 17.7895 17.7895 18.0252 17.7895 18.3158C17.7895 18.6064 18.0252 18.8421 18.3158 18.8421Z" fill="url(#paint4_linear_40_3704)"/>
<path d="M5.68421 6.21053C5.97489 6.21053 6.21053 5.97489 6.21053 5.68421C6.21053 5.39354 5.97489 5.1579 5.68421 5.1579C5.39354 5.1579 5.1579 5.39354 5.1579 5.68421C5.1579 5.97489 5.39354 6.21053 5.68421 6.21053Z" fill="url(#paint5_linear_40_3704)"/>
<defs>
<linearGradient id="paint0_linear_40_3704" x1="12.0295" y1="3.7216" x2="11.9774" y2="18.3484" gradientUnits="userSpaceOnUse">
<stop stop-color="#899198"/>
<stop offset="1" stop-color="#787E85"/>
</linearGradient>
<linearGradient id="paint1_linear_40_3704" x1="11.9484" y1="6.80155" x2="12.0874" y2="20.8563" gradientUnits="userSpaceOnUse">
<stop stop-color="#CCCCCC"/>
<stop offset="0.396" stop-color="#BBBBBB"/>
<stop offset="1" stop-color="#999999"/>
</linearGradient>
<linearGradient id="paint2_linear_40_3704" x1="18.3158" y1="5.15211" x2="18.3158" y2="5.98474" gradientUnits="userSpaceOnUse">
<stop stop-color="#4C4C4C"/>
<stop offset="1" stop-color="#343434"/>
</linearGradient>
<linearGradient id="paint3_linear_40_3704" x1="5.68421" y1="17.7837" x2="5.68421" y2="18.6163" gradientUnits="userSpaceOnUse">
<stop stop-color="#4C4C4C"/>
<stop offset="1" stop-color="#343434"/>
</linearGradient>
<linearGradient id="paint4_linear_40_3704" x1="18.3158" y1="17.7837" x2="18.3158" y2="18.6163" gradientUnits="userSpaceOnUse">
<stop stop-color="#4C4C4C"/>
<stop offset="1" stop-color="#343434"/>
</linearGradient>
<linearGradient id="paint5_linear_40_3704" x1="5.68421" y1="5.15211" x2="5.68421" y2="5.98474" gradientUnits="userSpaceOnUse">
<stop stop-color="#4C4C4C"/>
<stop offset="1" stop-color="#343434"/>
</linearGradient>
</defs>
</svg>
