<svg width="24" height="24" viewBox="0 0 24 24" fill="none" xmlns="http://www.w3.org/2000/svg">
<path d="M18.3158 2H5.68421C5.10263 2 4.63158 2.47105 4.63158 3.05263V6.21053H19.3684V3.05263C19.3684 2.47105 18.8974 2 18.3158 2Z" fill="url(#paint0_linear_40_3764)"/>
<path d="M18.8421 4.10529H5.15789C4.57632 4.10529 4.10526 4.57634 4.10526 5.15792V7.7895H19.8947V5.15792C19.8947 4.57634 19.4237 4.10529 18.8421 4.10529Z" fill="url(#paint1_linear_40_3764)"/>
<path d="M19.3684 6.21051H4.63158C4.05 6.21051 3.57895 6.68156 3.57895 7.26314V20.421H20.4211V7.26314C20.4211 6.68156 19.95 6.21051 19.3684 6.21051Z" fill="url(#paint2_linear_40_3764)"/>
<path d="M20.9474 15.6842H15.5226C15.0468 15.6842 14.6547 16.0126 14.5132 16.4668C14.18 17.5379 13.1811 18.3158 12 18.3158C10.8189 18.3158 9.82 17.5379 9.48684 16.4668C9.34526 16.0126 8.95316 15.6842 8.47737 15.6842H3.05263C2.7621 15.6842 2.52631 15.92 2.52631 16.2105V20.421C2.52631 21.2932 3.23316 22 4.10526 22H19.8947C20.7668 22 21.4737 21.2932 21.4737 20.421V16.2105C21.4737 15.92 21.2379 15.6842 20.9474 15.6842Z" fill="url(#paint3_linear_40_3764)"/>
<path d="M16.2011 11.0163H8.30631C8.16105 11.0163 8.04316 10.8984 8.04316 10.7532V10.2268C8.04316 10.0816 8.16105 9.96368 8.30631 9.96368H16.2011C16.3463 9.96368 16.4642 10.0816 16.4642 10.2268V10.7532C16.4642 10.8989 16.3468 11.0163 16.2011 11.0163Z" fill="#0D61A9"/>
<path d="M14.6221 13.1215H8.30631C8.16105 13.1215 8.04316 13.0036 8.04316 12.8584V12.3321C8.04316 12.1868 8.16105 12.0689 8.30631 12.0689H14.6221C14.7674 12.0689 14.8853 12.1868 14.8853 12.3321V12.8584C14.8853 13.0042 14.7679 13.1215 14.6221 13.1215Z" fill="#0D61A9"/>
<defs>
<linearGradient id="paint0_linear_40_3764" x1="12" y1="2.09737" x2="12" y2="6.09368" gradientUnits="userSpaceOnUse">
<stop stop-color="#0D61A9"/>
<stop offset="1" stop-color="#16528C"/>
</linearGradient>
<linearGradient id="paint1_linear_40_3764" x1="12" y1="4.14002" x2="12" y2="7.86055" gradientUnits="userSpaceOnUse">
<stop stop-color="#199AE0"/>
<stop offset="1" stop-color="#0782D8"/>
</linearGradient>
<linearGradient id="paint2_linear_40_3764" x1="10.1884" y1="6.35156" x2="13.5147" y2="19.9889" gradientUnits="userSpaceOnUse">
<stop stop-color="#32BDEF"/>
<stop offset="1" stop-color="#1EA2E4"/>
</linearGradient>
<linearGradient id="paint3_linear_40_3764" x1="12" y1="15.7216" x2="12" y2="21.8384" gradientUnits="userSpaceOnUse">
<stop stop-color="#FFD869"/>
<stop offset="1" stop-color="#FEC52B"/>
</linearGradient>
</defs>
</svg>
