<svg width="24" height="24" viewBox="0 0 24 24" fill="none" xmlns="http://www.w3.org/2000/svg">
<path d="M19.3489 22H4.65111C3.83667 22 3.17667 21.34 3.17667 20.5256V3.47444C3.17667 2.66 3.83667 2 4.65111 2H19.3494C20.1639 2 20.8239 2.66 20.8239 3.47444V20.5256C20.8233 21.34 20.1633 22 19.3489 22Z" fill="url(#paint0_linear_40_3778)"/>
<path d="M17.2778 7.55558H6.72222C6.56889 7.55558 6.44444 7.43114 6.44444 7.2778V6.16669C6.44444 6.01336 6.56889 5.88892 6.72222 5.88892H17.2778C17.4311 5.88892 17.5556 6.01336 17.5556 6.16669V7.2778C17.5556 7.43114 17.4311 7.55558 17.2778 7.55558Z" fill="#057093"/>
<path d="M17.2778 10.8889H16.1667C16.0133 10.8889 15.8889 10.7644 15.8889 10.6111V10.0555C15.8889 9.90222 16.0133 9.77777 16.1667 9.77777H17.2778C17.4311 9.77777 17.5556 9.90222 17.5556 10.0555V10.6111C17.5556 10.7644 17.4311 10.8889 17.2778 10.8889Z" fill="#057093"/>
<path d="M12.8333 10.8889H6.72222C6.56889 10.8889 6.44444 10.7644 6.44444 10.6111V10.0555C6.44444 9.90222 6.56889 9.77777 6.72222 9.77777H12.8333C12.9867 9.77777 13.1111 9.90222 13.1111 10.0555V10.6111C13.1111 10.7644 12.9867 10.8889 12.8333 10.8889Z" fill="#057093"/>
<path d="M17.2778 13.1111H16.1667C16.0133 13.1111 15.8889 12.9867 15.8889 12.8333V12.2778C15.8889 12.1244 16.0133 12 16.1667 12H17.2778C17.4311 12 17.5556 12.1244 17.5556 12.2778V12.8333C17.5556 12.9867 17.4311 13.1111 17.2778 13.1111Z" fill="#057093"/>
<path d="M11.1667 13.1111H6.72222C6.56889 13.1111 6.44444 12.9867 6.44444 12.8333V12.2778C6.44444 12.1244 6.56889 12 6.72222 12H11.1667C11.32 12 11.4444 12.1244 11.4444 12.2778V12.8333C11.4444 12.9867 11.32 13.1111 11.1667 13.1111Z" fill="#057093"/>
<path d="M17.2778 15.3333H16.1667C16.0133 15.3333 15.8889 15.2089 15.8889 15.0556V14.5C15.8889 14.3467 16.0133 14.2222 16.1667 14.2222H17.2778C17.4311 14.2222 17.5556 14.3467 17.5556 14.5V15.0556C17.5556 15.2089 17.4311 15.3333 17.2778 15.3333Z" fill="#057093"/>
<path d="M12.8333 15.3333H6.72222C6.56889 15.3333 6.44444 15.2089 6.44444 15.0556V14.5C6.44444 14.3467 6.56889 14.2222 6.72222 14.2222H12.8333C12.9867 14.2222 13.1111 14.3467 13.1111 14.5V15.0556C13.1111 15.2089 12.9867 15.3333 12.8333 15.3333Z" fill="#057093"/>
<path d="M17.2778 17.5556H16.1667C16.0133 17.5556 15.8889 17.4311 15.8889 17.2778V16.7222C15.8889 16.5689 16.0133 16.4445 16.1667 16.4445H17.2778C17.4311 16.4445 17.5556 16.5689 17.5556 16.7222V17.2778C17.5556 17.4311 17.4311 17.5556 17.2778 17.5556Z" fill="#057093"/>
<path d="M11.1667 17.5556H6.72222C6.56889 17.5556 6.44444 17.4311 6.44444 17.2778V16.7222C6.44444 16.5689 6.56889 16.4445 6.72222 16.4445H11.1667C11.32 16.4445 11.4444 16.5689 11.4444 16.7222V17.2778C11.4444 17.4311 11.32 17.5556 11.1667 17.5556Z" fill="#057093"/>
<path d="M18.6667 3.11111H19.7778V4.22222C19.7778 4.52889 20.0267 4.77778 20.3333 4.77778C20.64 4.77778 20.8889 4.52889 20.8889 4.22222V3.11111C20.8889 2.5 20.3889 2 19.7778 2H18.6667C18.36 2 18.1111 2.24889 18.1111 2.55556C18.1111 2.86222 18.36 3.11111 18.6667 3.11111Z" fill="#64717C"/>
<path d="M4.22222 4.22222V3.11111H5.33333C5.64 3.11111 5.88889 2.86222 5.88889 2.55556C5.88889 2.24889 5.64 2 5.33333 2H4.22222C3.61111 2 3.11111 2.5 3.11111 3.11111V4.22222C3.11111 4.52889 3.36 4.77778 3.66667 4.77778C3.97333 4.77778 4.22222 4.52889 4.22222 4.22222Z" fill="#64717C"/>
<path d="M19.7778 19.7778V20.8889H18.6667C18.36 20.8889 18.1111 21.1378 18.1111 21.4445C18.1111 21.7511 18.36 22 18.6667 22H19.7778C20.3889 22 20.8889 21.5 20.8889 20.8889V19.7778C20.8889 19.4711 20.64 19.2222 20.3333 19.2222C20.0267 19.2222 19.7778 19.4711 19.7778 19.7778Z" fill="#64717C"/>
<path d="M5.33333 20.8889H4.22222V19.7778C4.22222 19.4711 3.97333 19.2222 3.66667 19.2222C3.36 19.2222 3.11111 19.4711 3.11111 19.7778V20.8889C3.11111 21.5 3.61111 22 4.22222 22H5.33333C5.64 22 5.88889 21.7511 5.88889 21.4445C5.88889 21.1378 5.64 20.8889 5.33333 20.8889Z" fill="#64717C"/>
<path d="M7.55556 3.11111C7.86238 3.11111 8.11111 2.86238 8.11111 2.55556C8.11111 2.24873 7.86238 2 7.55556 2C7.24873 2 7 2.24873 7 2.55556C7 2.86238 7.24873 3.11111 7.55556 3.11111Z" fill="#64717C"/>
<path d="M9.77778 3.11111C10.0846 3.11111 10.3333 2.86238 10.3333 2.55556C10.3333 2.24873 10.0846 2 9.77778 2C9.47096 2 9.22222 2.24873 9.22222 2.55556C9.22222 2.86238 9.47096 3.11111 9.77778 3.11111Z" fill="#64717C"/>
<path d="M12 3.11111C12.3068 3.11111 12.5556 2.86238 12.5556 2.55556C12.5556 2.24873 12.3068 2 12 2C11.6932 2 11.4444 2.24873 11.4444 2.55556C11.4444 2.86238 11.6932 3.11111 12 3.11111Z" fill="#64717C"/>
<path d="M16.4444 3.11111C16.7512 3.11111 17 2.86238 17 2.55556C17 2.24873 16.7512 2 16.4444 2C16.1377 2 15.8889 2.24873 15.8889 2.55556C15.8889 2.86238 16.1377 3.11111 16.4444 3.11111Z" fill="#64717C"/>
<path d="M19.7778 3.11111C20.0846 3.11111 20.3333 2.86238 20.3333 2.55556C20.3333 2.24873 20.0846 2 19.7778 2C19.471 2 19.2222 2.24873 19.2222 2.55556C19.2222 2.86238 19.471 3.11111 19.7778 3.11111Z" fill="#64717C"/>
<path d="M14.2222 3.11111C14.529 3.11111 14.7778 2.86238 14.7778 2.55556C14.7778 2.24873 14.529 2 14.2222 2C13.9154 2 13.6667 2.24873 13.6667 2.55556C13.6667 2.86238 13.9154 3.11111 14.2222 3.11111Z" fill="#64717C"/>
<path d="M7.55556 22C7.86238 22 8.11111 21.7512 8.11111 21.4445C8.11111 21.1377 7.86238 20.8889 7.55556 20.8889C7.24873 20.8889 7 21.1377 7 21.4445C7 21.7512 7.24873 22 7.55556 22Z" fill="#64717C"/>
<path d="M9.77778 22C10.0846 22 10.3333 21.7512 10.3333 21.4445C10.3333 21.1377 10.0846 20.8889 9.77778 20.8889C9.47096 20.8889 9.22222 21.1377 9.22222 21.4445C9.22222 21.7512 9.47096 22 9.77778 22Z" fill="#64717C"/>
<path d="M12 22C12.3068 22 12.5556 21.7512 12.5556 21.4445C12.5556 21.1377 12.3068 20.8889 12 20.8889C11.6932 20.8889 11.4444 21.1377 11.4444 21.4445C11.4444 21.7512 11.6932 22 12 22Z" fill="#64717C"/>
<path d="M16.4444 22C16.7512 22 17 21.7512 17 21.4445C17 21.1377 16.7512 20.8889 16.4444 20.8889C16.1377 20.8889 15.8889 21.1377 15.8889 21.4445C15.8889 21.7512 16.1377 22 16.4444 22Z" fill="#64717C"/>
<path d="M19.7778 22C20.0846 22 20.3333 21.7512 20.3333 21.4445C20.3333 21.1377 20.0846 20.8889 19.7778 20.8889C19.471 20.8889 19.2222 21.1377 19.2222 21.4445C19.2222 21.7512 19.471 22 19.7778 22Z" fill="#64717C"/>
<path d="M14.2222 22C14.529 22 14.7778 21.7512 14.7778 21.4445C14.7778 21.1377 14.529 20.8889 14.2222 20.8889C13.9154 20.8889 13.6667 21.1377 13.6667 21.4445C13.6667 21.7512 13.9154 22 14.2222 22Z" fill="#64717C"/>
<path d="M20.3333 7.00003C20.6401 7.00003 20.8889 6.75129 20.8889 6.44447C20.8889 6.13765 20.6401 5.88892 20.3333 5.88892C20.0266 5.88892 19.7778 6.13765 19.7778 6.44447C19.7778 6.75129 20.0266 7.00003 20.3333 7.00003Z" fill="#64717C"/>
<path d="M20.3333 9.2222C20.6401 9.2222 20.8889 8.97346 20.8889 8.66664C20.8889 8.35982 20.6401 8.11108 20.3333 8.11108C20.0266 8.11108 19.7778 8.35982 19.7778 8.66664C19.7778 8.97346 20.0266 9.2222 20.3333 9.2222Z" fill="#64717C"/>
<path d="M20.3333 11.4444C20.6401 11.4444 20.8889 11.1956 20.8889 10.8889C20.8889 10.5821 20.6401 10.3333 20.3333 10.3333C20.0266 10.3333 19.7778 10.5821 19.7778 10.8889C19.7778 11.1956 20.0266 11.4444 20.3333 11.4444Z" fill="#64717C"/>
<path d="M20.3333 15.8889C20.6401 15.8889 20.8889 15.6401 20.8889 15.3333C20.8889 15.0265 20.6401 14.7778 20.3333 14.7778C20.0266 14.7778 19.7778 15.0265 19.7778 15.3333C19.7778 15.6401 20.0266 15.8889 20.3333 15.8889Z" fill="#64717C"/>
<path d="M20.3333 18.1111C20.6401 18.1111 20.8889 17.8623 20.8889 17.5556C20.8889 17.2488 20.6401 17 20.3333 17C20.0266 17 19.7778 17.2488 19.7778 17.5556C19.7778 17.8623 20.0266 18.1111 20.3333 18.1111Z" fill="#64717C"/>
<path d="M20.3333 13.6667C20.6401 13.6667 20.8889 13.4179 20.8889 13.1111C20.8889 12.8043 20.6401 12.5555 20.3333 12.5555C20.0266 12.5555 19.7778 12.8043 19.7778 13.1111C19.7778 13.4179 20.0266 13.6667 20.3333 13.6667Z" fill="#64717C"/>
<path d="M3.66667 7.00003C3.97349 7.00003 4.22222 6.75129 4.22222 6.44447C4.22222 6.13765 3.97349 5.88892 3.66667 5.88892C3.35984 5.88892 3.11111 6.13765 3.11111 6.44447C3.11111 6.75129 3.35984 7.00003 3.66667 7.00003Z" fill="#64717C"/>
<path d="M3.66667 9.2222C3.97349 9.2222 4.22222 8.97346 4.22222 8.66664C4.22222 8.35982 3.97349 8.11108 3.66667 8.11108C3.35984 8.11108 3.11111 8.35982 3.11111 8.66664C3.11111 8.97346 3.35984 9.2222 3.66667 9.2222Z" fill="#64717C"/>
<path d="M3.66667 11.4444C3.97349 11.4444 4.22222 11.1956 4.22222 10.8889C4.22222 10.5821 3.97349 10.3333 3.66667 10.3333C3.35984 10.3333 3.11111 10.5821 3.11111 10.8889C3.11111 11.1956 3.35984 11.4444 3.66667 11.4444Z" fill="#64717C"/>
<path d="M3.66667 15.8889C3.97349 15.8889 4.22222 15.6401 4.22222 15.3333C4.22222 15.0265 3.97349 14.7778 3.66667 14.7778C3.35984 14.7778 3.11111 15.0265 3.11111 15.3333C3.11111 15.6401 3.35984 15.8889 3.66667 15.8889Z" fill="#64717C"/>
<path d="M3.66667 18.1111C3.97349 18.1111 4.22222 17.8623 4.22222 17.5556C4.22222 17.2488 3.97349 17 3.66667 17C3.35984 17 3.11111 17.2488 3.11111 17.5556C3.11111 17.8623 3.35984 18.1111 3.66667 18.1111Z" fill="#64717C"/>
<path d="M3.66667 13.6667C3.97349 13.6667 4.22222 13.4179 4.22222 13.1111C4.22222 12.8043 3.97349 12.5555 3.66667 12.5555C3.35984 12.5555 3.11111 12.8043 3.11111 13.1111C3.11111 13.4179 3.35984 13.6667 3.66667 13.6667Z" fill="#64717C"/>
<defs>
<linearGradient id="paint0_linear_40_3778" x1="8.74059" y1="2.30706" x2="19.3116" y2="20.291" gradientUnits="userSpaceOnUse">
<stop stop-color="#7DD8F3"/>
<stop offset="1" stop-color="#45B0D0"/>
</linearGradient>
</defs>
</svg>
