<svg width="24" height="24" viewBox="0 0 24 24" fill="none" xmlns="http://www.w3.org/2000/svg">
<path d="M17.9919 16.2239L16.2239 17.9919L20.1589 21.9269C20.2564 22.0244 20.4149 22.0244 20.5124 21.9269L21.9264 20.5129C22.0239 20.4154 22.0239 20.2569 21.9264 20.1594L17.9919 16.2239Z" fill="url(#paint0_linear_40_3772)"/>
<path d="M15.8009 14.0324L14.0329 15.8004L16.2244 17.9914L17.9919 16.2239L15.8009 14.0324Z" fill="url(#paint1_radial_40_3772)"/>
<path d="M10.0004 17.9999C14.4187 17.9999 18.0004 14.4182 18.0004 9.99994C18.0004 5.58166 14.4187 1.99994 10.0004 1.99994C5.58216 1.99994 2.00044 5.58166 2.00044 9.99994C2.00044 14.4182 5.58216 17.9999 10.0004 17.9999Z" fill="url(#paint2_linear_40_3772)"/>
<path d="M13.1494 12.0109C13.1494 8.92694 8.59594 9.52894 8.59594 7.70694C8.59594 6.75544 9.66544 6.70544 9.99994 6.70544C10.8034 6.70544 11.5794 6.92094 12.1709 7.19844C12.3574 7.28594 12.5714 7.15644 12.5714 6.95094V6.05344C12.5714 5.75244 12.4579 5.57394 12.2774 5.50344C11.8719 5.34594 11.2894 5.23094 10.4284 5.20244V4.21444C10.4289 4.09594 10.3329 3.99994 10.2144 3.99994H9.78594C9.66744 3.99994 9.57144 4.09594 9.57144 4.21444V5.21794C8.23594 5.34844 6.85094 6.10244 6.85094 7.85594C6.85094 11.0529 11.4039 10.4189 11.4039 12.1029C11.4039 12.6324 11.0659 13.0884 9.99994 13.0884C8.92844 13.0884 7.94444 12.7144 7.39944 12.4354C7.21644 12.3414 7.00044 12.4774 7.00044 12.6834V13.7049C7.00044 13.9009 7.11844 14.0749 7.29894 14.1519C7.94444 14.4264 8.81044 14.6339 9.57194 14.6944V15.7859C9.57194 15.9044 9.66794 16.0004 9.78644 16.0004H10.2149C10.3334 16.0004 10.4294 15.9044 10.4294 15.7859V14.6969C12.4269 14.5294 13.1494 13.1919 13.1494 12.0109Z" fill="#0D61A9"/>
<defs>
<linearGradient id="paint0_linear_40_3772" x1="17.5034" y1="15.3634" x2="21.419" y2="21.1108" gradientUnits="userSpaceOnUse">
<stop stop-color="#FCFCFC"/>
<stop offset="0.95" stop-color="#C3C9CD"/>
</linearGradient>
<radialGradient id="paint1_radial_40_3772" cx="0" cy="0" r="1" gradientUnits="userSpaceOnUse" gradientTransform="translate(10.0124 10.0479) scale(9.802)">
<stop offset="0.693" stop-color="#006185"/>
<stop offset="0.921" stop-color="#35C1F1"/>
</radialGradient>
<linearGradient id="paint2_linear_40_3772" x1="7.04501" y1="2.24559" x2="14.9568" y2="17.5001" gradientUnits="userSpaceOnUse">
<stop stop-color="#7DD8F3"/>
<stop offset="1" stop-color="#45B0D0"/>
</linearGradient>
</defs>
</svg>
