<svg width="24" height="24" viewBox="0 0 24 24" fill="none" xmlns="http://www.w3.org/2000/svg">
<path d="M11.1028 20.6543C15.81 20.6543 19.6259 16.8384 19.6259 12.1312C19.6259 7.42405 15.81 3.60815 11.1028 3.60815C6.39568 3.60815 2.57979 7.42405 2.57979 12.1312C2.57979 16.8384 6.39568 20.6543 11.1028 20.6543Z" fill="url(#paint0_radial_40_3832)"/>
<path d="M13.3458 18.8599H8.85994C8.85994 19.1793 8.85994 19.7571 8.85994 19.7571C8.85994 20.9956 9.86431 22 11.1028 22C12.3414 22 13.3458 20.9956 13.3458 19.7571C13.3458 19.7571 13.3458 19.1793 13.3458 18.8599Z" fill="url(#paint1_radial_40_3832)"/>
<path d="M15.5887 12.1312C15.5887 9.65369 13.5804 7.64539 11.1028 7.64539C8.62532 7.64539 6.61702 9.65369 6.61702 12.1312C6.61702 14.3741 8.85993 16.1684 8.85993 18.4113V18.8599H13.3457V18.4113C13.3457 16.1684 15.5887 14.3741 15.5887 12.1312Z" fill="#FEFEFE"/>
<path d="M16.9344 8.99114C18.4209 8.99114 19.6259 7.78611 19.6259 6.29964C19.6259 4.81318 18.4209 3.60815 16.9344 3.60815C15.4479 3.60815 14.2429 4.81318 14.2429 6.29964C14.2429 7.78611 15.4479 8.99114 16.9344 8.99114Z" fill="url(#paint2_linear_40_3832)"/>
<path d="M21.2924 5.25356C20.7572 5.3213 20.2091 5.07099 19.9224 4.57441C19.6358 4.07828 19.6927 3.47808 20.0193 3.04878C19.5129 2.5679 18.8956 2.20366 18.2079 2C17.9998 2.49837 17.5081 2.84917 16.9344 2.84917C16.3607 2.84917 15.869 2.49882 15.6609 2C14.9732 2.20321 14.356 2.5679 13.8495 3.04878C14.1756 3.47808 14.2326 4.07828 13.9464 4.57441C13.6598 5.07054 13.1116 5.3213 12.5764 5.25356C12.4957 5.58955 12.4486 5.93855 12.4486 6.29966C12.4486 6.66076 12.4957 7.00976 12.5764 7.34575C13.1116 7.27801 13.6598 7.52832 13.9464 8.0249C14.2331 8.52103 14.1761 9.12124 13.8495 9.55053C14.356 10.0314 14.9732 10.3957 15.6609 10.5993C15.869 10.1009 16.3607 9.75015 16.9344 9.75015C17.5081 9.75015 17.9998 10.1005 18.2079 10.5993C18.8956 10.3961 19.5129 10.0314 20.0193 9.55053C19.6932 9.12124 19.6362 8.52103 19.9224 8.0249C20.2091 7.52877 20.7572 7.27801 21.2924 7.34575C21.3731 7.00976 21.4202 6.66076 21.4202 6.29966C21.4202 5.93855 21.3731 5.58955 21.2924 5.25356ZM16.9344 8.71527C15.6003 8.71527 14.5188 7.63374 14.5188 6.29966C14.5188 4.96557 15.6003 3.88404 16.9344 3.88404C18.2685 3.88404 19.35 4.96557 19.35 6.29966C19.35 7.63374 18.2685 8.71527 16.9344 8.71527Z" fill="url(#paint3_linear_40_3832)"/>
<path d="M16.9344 7.64541C17.6776 7.64541 18.2801 7.0429 18.2801 6.29966C18.2801 5.55643 17.6776 4.95392 16.9344 4.95392C16.1912 4.95392 15.5887 5.55643 15.5887 6.29966C15.5887 7.0429 16.1912 7.64541 16.9344 7.64541Z" fill="url(#paint4_linear_40_3832)"/>
<defs>
<radialGradient id="paint0_radial_40_3832" cx="0" cy="0" r="1" gradientUnits="userSpaceOnUse" gradientTransform="translate(11.1028 12.1312) scale(8.52305)">
<stop offset="0.078" stop-color="white"/>
<stop offset="0.202" stop-color="#FFF5A3"/>
<stop offset="0.216" stop-color="#FFF392"/>
<stop offset="0.263" stop-color="#FFEE5F"/>
<stop offset="0.307" stop-color="#FFEA37"/>
<stop offset="0.347" stop-color="#FFE71A"/>
<stop offset="0.382" stop-color="#FFE508"/>
<stop offset="0.408" stop-color="#FFE402"/>
<stop offset="0.545" stop-color="#FDDE02"/>
<stop offset="0.736" stop-color="#F9CC01"/>
<stop offset="0.956" stop-color="#F2AF00"/>
<stop offset="1" stop-color="#F0A800"/>
</radialGradient>
<radialGradient id="paint1_radial_40_3832" cx="0" cy="0" r="1" gradientUnits="userSpaceOnUse" gradientTransform="translate(10.0608 18.619) scale(4.51542)">
<stop stop-color="#6E757B"/>
<stop offset="1" stop-color="#4A4E52"/>
</radialGradient>
<linearGradient id="paint2_linear_40_3832" x1="18.8095" y1="8.17472" x2="15.0342" y2="4.39945" gradientUnits="userSpaceOnUse">
<stop stop-color="white"/>
<stop offset="0.242" stop-color="#F2F2F2"/>
<stop offset="1" stop-color="#CCCCCC"/>
</linearGradient>
<linearGradient id="paint3_linear_40_3832" x1="14.2568" y1="3.62207" x2="20.7734" y2="10.1386" gradientUnits="userSpaceOnUse">
<stop stop-color="#889097"/>
<stop offset="0.331" stop-color="#848C94"/>
<stop offset="0.669" stop-color="#78828B"/>
<stop offset="1" stop-color="#64717C"/>
</linearGradient>
<linearGradient id="paint4_linear_40_3832" x1="16.0565" y1="5.42179" x2="17.9015" y2="7.26681" gradientUnits="userSpaceOnUse">
<stop stop-color="#0D61A9"/>
<stop offset="0.363" stop-color="#0E5FA4"/>
<stop offset="0.78" stop-color="#135796"/>
<stop offset="1" stop-color="#16528C"/>
</linearGradient>
</defs>
</svg>
