<svg width="24" height="24" viewBox="0 0 24 24" fill="none" xmlns="http://www.w3.org/2000/svg">
<path d="M8.82946 3.2196H7.36606C7.13289 3.2196 6.91436 3.33034 6.77631 3.51814L2.14219 9.8259C1.98024 10.0469 1.95488 10.3396 2.07683 10.5844C2.19878 10.8298 2.44707 10.9864 2.72073 10.9908L4.91583 11.0244C4.91974 11.0244 4.92315 11.0244 4.92705 11.0244C5.15242 11.0244 5.36559 10.9205 5.50461 10.742L8.69922 6.63421H8.82946C10.2704 6.63421 11.0246 5.7752 11.0246 4.92691C11.0246 4.07862 10.2704 3.2196 8.82946 3.2196Z" fill="url(#paint0_linear_40_3840)"/>
<path d="M21.8581 9.82541L17.224 3.51765C17.086 3.33034 16.8674 3.2196 16.6343 3.2196H15.1709C14.5592 3.2196 14.028 3.3757 13.6343 3.67082C13.2158 3.98448 12.9758 4.44252 12.9758 4.92691C12.9758 5.7752 13.7299 6.63421 15.1709 6.63421H15.3011L18.4957 10.742C18.6348 10.9205 18.8479 11.0244 19.0733 11.0244C19.0772 11.0244 19.0811 11.0244 19.0845 11.0244L21.2796 10.9908C21.5538 10.9864 21.802 10.8298 21.9235 10.5844C22.0455 10.3391 22.0201 10.0464 21.8581 9.82541Z" fill="url(#paint1_linear_40_3840)"/>
<path d="M21.8172 9.77472C21.6781 9.61765 21.4786 9.5274 21.2684 9.5274H2.73194C2.52218 9.5274 2.32267 9.61765 2.18316 9.77472C2.04414 9.93228 1.97975 10.1415 2.0056 10.3498L3.01242 18.4293C3.17925 19.7698 4.32412 20.7805 5.67484 20.7805H9.20214C9.85237 20.7805 10.4377 20.419 10.729 19.8366L11.2329 18.8293H12.7675L13.2714 19.8371C13.5626 20.419 14.1475 20.7805 14.7982 20.7805H18.3255C19.6762 20.7805 20.8206 19.7698 20.9879 18.4293L21.9942 10.3493C22.0206 10.141 21.9557 9.93179 21.8172 9.77472Z" fill="url(#paint2_linear_40_3840)"/>
<defs>
<linearGradient id="paint0_linear_40_3840" x1="6.51241" y1="11.0244" x2="6.51241" y2="3.2196" gradientUnits="userSpaceOnUse">
<stop stop-color="#006185"/>
<stop offset="0.25" stop-color="#35C1F1"/>
</linearGradient>
<linearGradient id="paint1_linear_40_3840" x1="17.4879" y1="11.0244" x2="17.4879" y2="3.2196" gradientUnits="userSpaceOnUse">
<stop stop-color="#006185"/>
<stop offset="0.25" stop-color="#35C1F1"/>
</linearGradient>
<linearGradient id="paint2_linear_40_3840" x1="12.0002" y1="9.5274" x2="12.0002" y2="20.7805" gradientUnits="userSpaceOnUse">
<stop stop-color="#A3FFFF"/>
<stop offset="0.223" stop-color="#9DFBFF"/>
<stop offset="0.53" stop-color="#8BF1FF"/>
<stop offset="0.885" stop-color="#6EE0FF"/>
<stop offset="1" stop-color="#63DAFF"/>
</linearGradient>
</defs>
</svg>
