<svg width="24" height="24" viewBox="0 0 24 24" fill="none" xmlns="http://www.w3.org/2000/svg">
<path d="M2.00139 4.78482L2.00028 3.12847C1.99972 2.51789 2.49873 2.01776 3.10932 2.01721L20.8718 2C21.4824 1.99945 21.9825 2.49846 21.9831 3.10905L21.9847 4.78316C21.9853 5.09012 21.7366 5.33879 21.4297 5.33879H2.55702C2.25061 5.33935 2.00194 5.09123 2.00139 4.78482ZM21.4369 12.0003H13.1102C12.8038 12.0003 12.5551 12.249 12.5551 12.5554V15.8858C12.5551 16.1922 12.8038 16.4409 13.1102 16.4409H21.4402C21.7472 16.4409 21.9958 16.1922 21.9953 15.8853L21.9919 12.5548C21.9914 12.2484 21.7433 12.0003 21.4369 12.0003ZM12.5551 18.1061V21.4355C12.5551 21.7424 12.8037 21.9911 13.1107 21.9906L20.8907 21.9828C21.5013 21.9822 22.0003 21.4821 21.9997 20.8715L21.9969 18.105C21.9964 17.7986 21.7483 17.5505 21.4419 17.5505H13.1102C12.8038 17.5511 12.5551 17.7997 12.5551 18.1061ZM12.5551 7.00458V10.335C12.5551 10.6414 12.8038 10.8901 13.1102 10.8901H21.4347C21.7416 10.8901 21.9903 10.6414 21.9897 10.3345L21.9864 7.00402C21.9858 6.69762 21.7377 6.4495 21.4313 6.4495H13.1102C12.8038 6.4495 12.5551 6.69818 12.5551 7.00458ZM10.8898 6.4495H2.55868C2.25173 6.4495 2.00305 6.69818 2.00361 7.00514L2.01693 20.891C2.01748 21.5015 2.51761 22.0006 3.12819 22L10.8904 21.9928C11.1968 21.9922 11.4449 21.7441 11.4449 21.4377V7.00458C11.4449 6.69818 11.1962 6.4495 10.8898 6.4495Z" fill="url(#paint0_linear_40_3845)"/>
<defs>
<linearGradient id="paint0_linear_40_3845" x1="12" y1="2.06772" x2="12" y2="22.0216" gradientUnits="userSpaceOnUse">
<stop stop-color="#33BEF0"/>
<stop offset="1" stop-color="#0A85D9"/>
</linearGradient>
</defs>
</svg>
