<svg width="24" height="24" viewBox="0 0 24 24" fill="none" xmlns="http://www.w3.org/2000/svg">
<rect x="3" y="14" width="18" height="7" rx="2" fill="url(#paint0_linear_74_19)"/>
<path d="M4 11C4 6.582 7.582 3 12 3C16.418 3 20 6.582 20 11C20 15.418 16.418 19 12 19C7.582 19 4 15.418 4 11Z" fill="url(#paint1_radial_74_19)"/>
<path d="M18.8 11C18.8 9.7044 18.5308 8.4836 18.0644 7.4H19.1372C18.998 7.1244 18.8472 6.856 18.678 6.6H17.6732C16.4552 4.4336 14.3684 3 12 3C9.63159 3 7.54479 4.4336 6.32679 6.6H5.32199C5.15279 6.856 5.00199 7.1244 4.86279 7.4H5.93559C5.46919 8.4836 5.19999 9.7044 5.19999 11C5.19999 12.2956 5.46919 13.5164 5.93559 14.6H4.86279C5.00199 14.8756 5.15279 15.144 5.32199 15.4H6.32679C7.54479 17.5664 9.63159 19 12 19C14.3684 19 16.4552 17.5664 17.6732 15.4H18.678C18.8472 15.144 18.998 14.8756 19.1372 14.6H18.0644C18.5308 13.5164 18.8 12.2956 18.8 11ZM18 11C18 12.312 17.7012 13.5396 17.1884 14.6H14.8712C15.0884 13.4668 15.2 12.2212 15.2 11C15.2 9.7788 15.0884 8.5332 14.8712 7.4H17.1884C17.7012 8.4604 18 9.688 18 11ZM12 18.2C11.324 18.2 10.6036 17.1452 10.1304 15.4H13.87C13.3964 17.1452 12.676 18.2 12 18.2ZM9.93919 14.6C9.72839 13.5652 9.59999 12.3484 9.59999 11C9.59999 9.6516 9.72839 8.4348 9.93919 7.4H14.0608C14.2716 8.4348 14.4 9.6516 14.4 11C14.4 12.3484 14.2716 13.5652 14.0608 14.6H9.93919ZM12 3.8C12.676 3.8 13.3964 4.8548 13.8696 6.6H10.13C10.6036 4.8548 11.324 3.8 12 3.8ZM16.7388 6.6H14.6944C14.444 5.6004 14.1028 4.7264 13.6736 4.0908C14.9052 4.5212 15.9716 5.4128 16.7388 6.6ZM10.3264 4.0908C9.89719 4.7268 9.55599 5.6004 9.30559 6.6H7.26119C8.02839 5.4128 9.09479 4.5212 10.3264 4.0908ZM5.99999 11C5.99999 9.688 6.29879 8.4604 6.81159 7.4H9.12879C8.91159 8.5332 8.79999 9.7788 8.79999 11C8.79999 12.2212 8.91159 13.4668 9.12879 14.6H6.81159C6.29879 13.5396 5.99999 12.312 5.99999 11ZM7.26119 15.4H9.30559C9.55599 16.3996 9.89719 17.2736 10.3264 17.9092C9.09479 17.4788 8.02839 16.5872 7.26119 15.4ZM13.6736 17.9092C14.1028 17.2732 14.444 16.3996 14.6944 15.4H16.7388C15.9716 16.5872 14.9052 17.4788 13.6736 17.9092Z" fill="url(#paint2_radial_74_19)"/>
<defs>
<linearGradient id="paint0_linear_74_19" x1="7.38637" y1="14.1836" x2="7.69116" y2="21.5176" gradientUnits="userSpaceOnUse">
<stop stop-color="#C3CDD9" stop-opacity="0.72"/>
<stop offset="1" stop-color="#9FA7B0"/>
</linearGradient>
<radialGradient id="paint1_radial_74_19" cx="0" cy="0" r="1" gradientUnits="userSpaceOnUse" gradientTransform="translate(6.5328 5.0724) scale(16.0164)">
<stop stop-color="#6FCEFC"/>
<stop offset="1" stop-color="#167CF7"/>
</radialGradient>
<radialGradient id="paint2_radial_74_19" cx="0" cy="0" r="1" gradientUnits="userSpaceOnUse" gradientTransform="translate(6.90599 4.792) scale(16.062 16.062)">
<stop offset="0.001" stop-color="#54C0F5"/>
<stop offset="0.998" stop-color="#0B69DB"/>
</radialGradient>
</defs>
</svg>
