<svg width="24" height="24" viewBox="0 0 24 24" fill="none" xmlns="http://www.w3.org/2000/svg">
<path d="M14.439 19.561H2.7317V21.0244C2.7317 21.5634 3.16829 22 3.70731 22H13.4634C14.0024 22 14.439 21.5634 14.439 21.0244V19.561Z" fill="url(#paint0_linear_40_3858)"/>
<path d="M14.439 16.1464H2.7317V19.561H14.439V16.1464Z" fill="#0078D4"/>
<path d="M14.439 11.2683H2.7317V16.1464H14.439V11.2683Z" fill="#1B9DE2"/>
<path d="M14.439 4.43903H2.7317V11.2683H14.439V4.43903Z" fill="url(#paint1_linear_40_3858)"/>
<path d="M14.439 4.43902H2.7317V2.97561C2.7317 2.43659 3.16829 2 3.70731 2H13.4634C14.0024 2 14.439 2.43659 14.439 2.97561V4.43902Z" fill="url(#paint2_linear_40_3858)"/>
<path d="M6.63414 3.58535C6.8362 3.58535 6.99999 3.42155 6.99999 3.21949C6.99999 3.01743 6.8362 2.85364 6.63414 2.85364C6.43208 2.85364 6.26829 3.01743 6.26829 3.21949C6.26829 3.42155 6.43208 3.58535 6.63414 3.58535Z" fill="#0C63AD"/>
<path d="M10.2927 2.85364C10.198 2.85364 7.94829 2.85364 7.85365 2.85364C7.6517 2.85364 7.4878 3.01754 7.4878 3.21949C7.4878 3.42144 7.6517 3.58535 7.85365 3.58535C7.94829 3.58535 10.198 3.58535 10.2927 3.58535C10.4946 3.58535 10.6585 3.42144 10.6585 3.21949C10.6585 3.01754 10.4946 2.85364 10.2927 2.85364Z" fill="#0C63AD"/>
<path opacity="0.07" d="M14.439 5.65851H9.69073C9.21561 5.65851 8.82927 6.04485 8.82927 6.51997V14.5536C8.82927 15.0288 9.21561 15.4151 9.69073 15.4151H11.7561V17.6429C11.7561 17.9478 12.0049 18.1961 12.3107 18.1961C12.4566 18.1961 12.5946 18.1385 12.699 18.0336L14.439 16.2931V5.65851Z" fill="black"/>
<path opacity="0.05" d="M14.439 5.41461H9.69073C9.08146 5.41461 8.58536 5.91022 8.58536 6.51998V14.5536C8.58536 15.1629 9.08146 15.6585 9.69073 15.6585H11.5122V17.6424C11.5122 18.0819 11.8702 18.4395 12.3107 18.4395C12.5215 18.4395 12.721 18.3566 12.8717 18.2058L14.439 16.638V5.41461Z" fill="black"/>
<path d="M20.6512 5.90247H9.69024C9.34975 5.90247 9.07317 6.17905 9.07317 6.51954V14.5532C9.07317 14.8942 9.34975 15.1708 9.69024 15.1708H12V17.6425C12 17.9176 12.3322 18.0551 12.5268 17.8605L15.2166 15.1708H20.6507C20.9917 15.1708 21.2683 14.8942 21.2683 14.5537V6.51954C21.2683 6.17905 20.9917 5.90247 20.6512 5.90247Z" fill="url(#paint3_linear_40_3858)"/>
<path d="M15.1707 9.30196C14.9688 9.30196 14.8049 9.13806 14.8049 8.93611V7.62489C14.8049 7.42294 14.9688 7.25903 15.1707 7.25903C15.3727 7.25903 15.5366 7.42294 15.5366 7.62489V8.93611C15.5366 9.13806 15.3727 9.30196 15.1707 9.30196Z" fill="#FFD600"/>
<path d="M17.8537 10.4297C17.8537 8.74046 16.16 7.4312 14.3146 7.98095C13.2078 8.31071 12.4878 9.38193 12.4878 10.5366V12.2439H17.8537C17.8537 12.2439 17.8537 10.4966 17.8537 10.4297Z" fill="#F5BE00"/>
<path d="M15.9127 12.9654C15.9127 13.3751 15.5805 13.7073 15.1707 13.7073C14.761 13.7073 14.4288 13.3751 14.4288 12.9654H15.9127Z" fill="url(#paint4_linear_40_3858)"/>
<path d="M18.3585 12.6385L17.8537 12.2439H12.4878L11.9829 12.6385C11.9059 12.698 11.8522 12.7878 11.8522 12.8946C11.8522 13.0741 11.9946 13.22 12.1702 13.22H18.1717C18.3473 13.22 18.4898 13.0741 18.4898 12.8946C18.4893 12.7878 18.4361 12.698 18.3585 12.6385Z" fill="url(#paint5_linear_40_3858)"/>
<defs>
<linearGradient id="paint0_linear_40_3858" x1="6.7959" y1="19.6676" x2="6.881" y2="22.3229" gradientUnits="userSpaceOnUse">
<stop stop-color="#0D61A9"/>
<stop offset="1" stop-color="#16528C"/>
</linearGradient>
<linearGradient id="paint1_linear_40_3858" x1="7.00897" y1="4.73672" x2="7.79892" y2="12.1835" gradientUnits="userSpaceOnUse">
<stop stop-color="#32BDEF"/>
<stop offset="1" stop-color="#1EA2E4"/>
</linearGradient>
<linearGradient id="paint2_linear_40_3858" x1="6.42286" y1="2.03744" x2="6.73803" y2="4.95431" gradientUnits="userSpaceOnUse">
<stop stop-color="#7DD8F3"/>
<stop offset="1" stop-color="#45B0D0"/>
</linearGradient>
<linearGradient id="paint3_linear_40_3858" x1="10.0932" y1="5.76832" x2="20.2644" y2="15.483" gradientUnits="userSpaceOnUse">
<stop stop-color="#F44F5A"/>
<stop offset="0.443" stop-color="#EE3D4A"/>
<stop offset="1" stop-color="#E52030"/>
</linearGradient>
<linearGradient id="paint4_linear_40_3858" x1="15.1707" y1="13.6922" x2="15.1707" y2="12.9391" gradientUnits="userSpaceOnUse">
<stop offset="0.486" stop-color="#FBC300"/>
<stop offset="1" stop-color="#DBAA00"/>
</linearGradient>
<linearGradient id="paint5_linear_40_3858" x1="15.1707" y1="12.2424" x2="15.1707" y2="13.2205" gradientUnits="userSpaceOnUse">
<stop stop-color="#FEDE00"/>
<stop offset="1" stop-color="#FFD000"/>
</linearGradient>
</defs>
</svg>
