<svg width="24" height="24" viewBox="0 0 24 24" fill="none" xmlns="http://www.w3.org/2000/svg">
<rect x="4" y="8" width="16" height="9" rx="2" fill="url(#paint0_linear_40_1826)"/>
<path d="M8.88889 9.43567H18.2222C18.652 9.43567 19 9.78317 19 10.2122V15.648C19 16.077 18.652 16.4245 18.2222 16.4245H17.8333V18.786C17.8333 19.0007 17.5518 19.0811 17.4382 18.899L15.8889 16.4245H8.88889C8.45917 16.4245 8.11111 16.077 8.11111 15.648V10.2122C8.11111 9.78317 8.45917 9.43567 8.88889 9.43567Z" fill="url(#paint1_linear_40_1826)"/>
<path d="M14.9505 14.4832H14.4679C14.3839 14.4832 14.3096 14.4289 14.2839 14.3489L14.1054 13.7921H12.999L12.8225 14.3485C12.7972 14.4289 12.7225 14.4832 12.6385 14.4832H12.1618C12.0933 14.4832 12.0455 14.4153 12.0688 14.3508L13.1064 11.5048C13.1344 11.4279 13.2075 11.3771 13.2892 11.3771H13.8468C13.9293 11.3771 14.0024 11.4287 14.03 11.5064L15.0434 14.3516C15.0664 14.4157 15.0189 14.4832 14.9505 14.4832ZM13.9448 13.2551C13.9448 13.2551 13.5688 12.0399 13.5587 11.9315H13.5412C13.5338 12.0224 13.1484 13.2551 13.1484 13.2551H13.9448Z" fill="white"/>
<path opacity="0.05" d="M15.5 11.377H8.11111V9.43567H16.2778V10.6005C16.2778 11.0295 15.9297 11.377 15.5 11.377Z" fill="black"/>
<path opacity="0.07" d="M15.3056 11.1829H8.11111V9.43567H16.0833V10.4063C16.0833 10.8354 15.7353 11.1829 15.3056 11.1829Z" fill="black"/>
<path d="M15.1111 4H5.77778C5.34806 4 5 4.3475 5 4.77654V10.2123C5 10.6414 5.34806 10.9889 5.77778 10.9889H6.16667V13.4183C6.16667 13.6132 6.42256 13.6866 6.526 13.5212L8.11111 10.9889H15.1111C15.5408 10.9889 15.8889 10.6414 15.8889 10.2123V4.77654C15.8889 4.3475 15.5408 4 15.1111 4Z" fill="url(#paint2_linear_40_1826)"/>
<path d="M11.0464 8.70586C11.4909 9.21217 11.9996 9.15082 12.2034 9.09801C12.2458 9.08714 12.2862 9.11937 12.2862 9.16286V9.61946C12.2862 9.66217 12.2578 9.69906 12.2158 9.70799C12.1299 9.72701 11.9794 9.75186 11.7713 9.75186C11.0184 9.75186 10.537 9.01376 10.3266 8.81691C9.5815 8.81691 8.84534 8.22674 8.84534 7.1788C8.84534 5.97166 9.65228 5.44983 10.4884 5.44983C11.7099 5.44983 12.0471 6.4205 12.0471 7.11279C12.0471 8.18946 11.3824 8.5987 11.0464 8.70586ZM10.4631 6.08271C10.0159 6.08271 9.62 6.42672 9.62 7.14075C9.62 7.87768 10.0163 8.18946 10.4448 8.18946C10.8952 8.18946 11.272 7.88001 11.272 7.15433C11.272 6.40808 10.9107 6.08271 10.4631 6.08271Z" fill="white"/>
<defs>
<linearGradient id="paint0_linear_40_1826" x1="7.899" y1="8.236" x2="8.46474" y2="17.6477" gradientUnits="userSpaceOnUse">
<stop stop-color="#D1D1D1" stop-opacity="0.62"/>
<stop offset="1" stop-color="#C6C6C6"/>
</linearGradient>
<linearGradient id="paint1_linear_40_1826" x1="12.4639" y1="9.39179" x2="15.3772" y2="18.8647" gradientUnits="userSpaceOnUse">
<stop stop-color="#0176D0"/>
<stop offset="1" stop-color="#16538C"/>
</linearGradient>
<linearGradient id="paint2_linear_40_1826" x1="7.65349" y1="4.25207" x2="8.59684" y2="14.2519" gradientUnits="userSpaceOnUse">
<stop offset="0.365372" stop-color="white"/>
<stop offset="0.714333" stop-color="#EDEDED"/>
<stop offset="0.88621" stop-color="#DBDBDB"/>
<stop offset="1" stop-color="#DADADA"/>
</linearGradient>
</defs>
</svg>
