<svg width="24" height="24" viewBox="0 0 24 24" fill="none" xmlns="http://www.w3.org/2000/svg">
<path d="M20.9474 10.4211C21.5289 10.4211 22 9.95 22 9.36842V3.05263C22 2.47105 21.5289 2 20.9474 2H14.6316C14.05 2 13.5789 2.47105 13.5789 3.05263V4.63158H12V6.73684H13.5789V9.36842C13.5789 9.95 14.05 10.4211 14.6316 10.4211H17.7895V12.5263H19.8947V10.4211H20.9474ZM15.6842 8.31579V4.10526H19.8947V8.31579H15.6842Z" fill="url(#paint0_linear_40_3874)"/>
<path d="M19.8947 17.7895H17.7895V19.8948H19.8947V17.7895Z" fill="url(#paint1_linear_40_3874)"/>
<path d="M22 15.6842H19.8947V17.7895H22V15.6842Z" fill="url(#paint2_linear_40_3874)"/>
<path d="M20.9474 22C21.5289 22 22 21.5289 22 20.9473V19.8947H19.8947V22H20.9474Z" fill="url(#paint3_linear_40_3874)"/>
<path d="M17.7895 15.6842H15.6842V17.7895H17.7895V15.6842Z" fill="url(#paint4_linear_40_3874)"/>
<path d="M17.7895 19.8947H15.6842V22H17.7895V19.8947Z" fill="url(#paint5_linear_40_3874)"/>
<path d="M7.26316 16.7368H5.15789V18.8421H7.26316V16.7368Z" fill="url(#paint6_linear_40_3874)"/>
<path d="M7.26316 5.1579H5.15789V7.26316H7.26316V5.1579Z" fill="url(#paint7_linear_40_3874)"/>
<path d="M18.8421 5.1579H16.7368V7.26316H18.8421V5.1579Z" fill="url(#paint8_linear_40_3874)"/>
<path d="M22 12.5263H19.8947V14.6316H22V12.5263Z" fill="url(#paint9_linear_40_3874)"/>
<path d="M13.5789 12.5263V10.4211H10.4211V12.5263H8.31579V13.579H6.21053V12.5263H4.10526V13.579H3.05263C2.47105 13.579 2 14.05 2 14.6316V20.9474C2 21.529 2.47105 22 3.05263 22H9.36842C9.95 22 10.4211 21.529 10.4211 20.9474V18.8421H12.5263V19.8948H14.6316V14.6316H15.6842H17.7895V12.5263H15.6842H13.5789ZM8.31579 19.8948H4.10526V15.6842H8.31579V19.8948ZM12.5263 16.7369H10.4211V14.6316H11.4737H12.5263V16.7369Z" fill="url(#paint10_linear_40_3874)"/>
<path d="M8.31579 10.4211H9.36842C9.95 10.4211 10.4211 9.95 10.4211 9.36842V8.84211H12V6.73684H10.4211V3.05263C10.4211 2.47105 9.95 2 9.36842 2H3.05263C2.47105 2 2 2.47105 2 3.05263V9.36842C2 9.95 2.47105 10.4211 3.05263 10.4211H6.21053V12.5263H8.31579V10.4211ZM4.10526 8.31579V4.10526H8.31579V8.31579H4.10526Z" fill="url(#paint11_linear_40_3874)"/>
<defs>
<linearGradient id="paint0_linear_40_3874" x1="15.7179" y1="2.26" x2="26.2216" y2="22.8068" gradientUnits="userSpaceOnUse">
<stop stop-color="#2AA4F4"/>
<stop offset="1" stop-color="#007AD9"/>
</linearGradient>
<linearGradient id="paint1_linear_40_3874" x1="18.2889" y1="17.7595" x2="20.7926" y2="22.6574" gradientUnits="userSpaceOnUse">
<stop stop-color="#2AA4F4"/>
<stop offset="1" stop-color="#007AD9"/>
</linearGradient>
<linearGradient id="paint2_linear_40_3874" x1="20.3942" y1="15.6542" x2="22.8979" y2="20.5521" gradientUnits="userSpaceOnUse">
<stop stop-color="#2AA4F4"/>
<stop offset="1" stop-color="#007AD9"/>
</linearGradient>
<linearGradient id="paint3_linear_40_3874" x1="20.3821" y1="19.8421" x2="22.5647" y2="24.111" gradientUnits="userSpaceOnUse">
<stop stop-color="#2AA4F4"/>
<stop offset="1" stop-color="#007AD9"/>
</linearGradient>
<linearGradient id="paint4_linear_40_3874" x1="16.1837" y1="15.6542" x2="18.6874" y2="20.5521" gradientUnits="userSpaceOnUse">
<stop stop-color="#2AA4F4"/>
<stop offset="1" stop-color="#007AD9"/>
</linearGradient>
<linearGradient id="paint5_linear_40_3874" x1="16.1837" y1="19.8647" x2="18.6874" y2="24.7626" gradientUnits="userSpaceOnUse">
<stop stop-color="#2AA4F4"/>
<stop offset="1" stop-color="#007AD9"/>
</linearGradient>
<linearGradient id="paint6_linear_40_3874" x1="5.65737" y1="16.7068" x2="8.16105" y2="21.6047" gradientUnits="userSpaceOnUse">
<stop stop-color="#2AA4F4"/>
<stop offset="1" stop-color="#007AD9"/>
</linearGradient>
<linearGradient id="paint7_linear_40_3874" x1="5.65737" y1="5.1279" x2="8.16105" y2="10.0258" gradientUnits="userSpaceOnUse">
<stop stop-color="#2AA4F4"/>
<stop offset="1" stop-color="#007AD9"/>
</linearGradient>
<linearGradient id="paint8_linear_40_3874" x1="17.2363" y1="5.1279" x2="19.74" y2="10.0258" gradientUnits="userSpaceOnUse">
<stop stop-color="#2AA4F4"/>
<stop offset="1" stop-color="#007AD9"/>
</linearGradient>
<linearGradient id="paint9_linear_40_3874" x1="20.3942" y1="12.4963" x2="22.8979" y2="17.3942" gradientUnits="userSpaceOnUse">
<stop stop-color="#2AA4F4"/>
<stop offset="1" stop-color="#007AD9"/>
</linearGradient>
<linearGradient id="paint10_linear_40_3874" x1="7.30316" y1="11.7942" x2="17.3368" y2="31.4221" gradientUnits="userSpaceOnUse">
<stop stop-color="#2AA4F4"/>
<stop offset="1" stop-color="#007AD9"/>
</linearGradient>
<linearGradient id="paint11_linear_40_3874" x1="4.18053" y1="2.23895" x2="14.6837" y2="22.7858" gradientUnits="userSpaceOnUse">
<stop stop-color="#2AA4F4"/>
<stop offset="1" stop-color="#007AD9"/>
</linearGradient>
</defs>
</svg>
