<svg width="24" height="24" viewBox="0 0 24 24" fill="none" xmlns="http://www.w3.org/2000/svg">
<path d="M15.6364 9.38635C15.6364 7.57908 14.0082 5.63635 12 5.63635C9.99182 5.63635 8.36364 7.57908 8.36364 9.38635C8.36364 11.1936 9.99182 15.1818 12 15.1818C14.0082 15.1818 15.6364 11.1936 15.6364 9.38635Z" fill="#CDD2D6"/>
<path d="M12 12H4.92227C4.56318 12 4.27273 12.2668 4.27273 12.5968V20.9491C4.27273 21.2786 4.56318 21.5455 4.92227 21.5455H12V12Z" fill="#ED3675"/>
<path d="M12 12H19.0777C19.4368 12 19.7273 12.2668 19.7273 12.5968V20.9491C19.7273 21.2786 19.4368 21.5455 19.0777 21.5455H12V12Z" fill="url(#paint0_linear_40_3892)"/>
<path d="M11.0909 21.0909C11.0909 21.5932 11.4977 22 12 22V20.1818C11.4977 20.1818 11.0909 20.5886 11.0909 21.0909Z" fill="#ED3675"/>
<path d="M12.9091 21.0909C12.9091 20.5886 12.5023 20.1818 12 20.1818V22C12.5023 22 12.9091 21.5932 12.9091 21.0909Z" fill="url(#paint1_linear_40_3892)"/>
<path d="M4.5 17.9091H3.81818C3.56727 17.9091 3.36364 17.7054 3.36364 17.4545V16.0909C3.36364 15.84 3.56727 15.6364 3.81818 15.6364H4.5C5.12773 15.6364 5.63636 16.145 5.63636 16.7727C5.63636 17.4004 5.12773 17.9091 4.5 17.9091Z" fill="url(#paint2_linear_40_3892)"/>
<path d="M20.1818 17.9091H19.5C18.8723 17.9091 18.3636 17.4004 18.3636 16.7727C18.3636 16.145 18.8723 15.6364 19.5 15.6364H20.1818C20.4327 15.6364 20.6364 15.84 20.6364 16.0909V17.4545C20.6364 17.7054 20.4327 17.9091 20.1818 17.9091Z" fill="url(#paint3_linear_40_3892)"/>
<path d="M9.27273 7.00001C9.7748 7.00001 10.1818 6.18598 10.1818 5.18183C10.1818 4.17767 9.7748 3.36365 9.27273 3.36365C8.77065 3.36365 8.36364 4.17767 8.36364 5.18183C8.36364 6.18598 8.77065 7.00001 9.27273 7.00001Z" fill="#CDD2D6"/>
<path d="M14.7273 7.00001C15.2294 7.00001 15.6364 6.18598 15.6364 5.18183C15.6364 4.17767 15.2294 3.36365 14.7273 3.36365C14.2252 3.36365 13.8182 4.17767 13.8182 5.18183C13.8182 6.18598 14.2252 7.00001 14.7273 7.00001Z" fill="#CDD2D6"/>
<path d="M10.1818 5.18182H9.27273V7.00001H10.1818V5.18182Z" fill="#CDD2D6"/>
<path d="M14.7273 5.18182H13.8182V7.00001H14.7273V5.18182Z" fill="#CDD2D6"/>
<path d="M11.7682 2.22909L11.2168 5.89591C11.1305 6.47182 11.505 7 12 7C12.495 7 12.8695 6.47182 12.7832 5.89591L12.2318 2.22909C12.1855 1.92364 11.8145 1.92364 11.7682 2.22909Z" fill="url(#paint4_linear_40_3892)"/>
<path d="M14.0455 11.0909C14.422 11.0909 14.7273 10.7857 14.7273 10.4091C14.7273 10.0326 14.422 9.72729 14.0455 9.72729C13.6689 9.72729 13.3636 10.0326 13.3636 10.4091C13.3636 10.7857 13.6689 11.0909 14.0455 11.0909Z" fill="url(#paint5_linear_40_3892)"/>
<path d="M9.95455 11.0909C10.3311 11.0909 10.6364 10.7857 10.6364 10.4091C10.6364 10.0326 10.3311 9.72729 9.95455 9.72729C9.57799 9.72729 9.27273 10.0326 9.27273 10.4091C9.27273 10.7857 9.57799 11.0909 9.95455 11.0909Z" fill="url(#paint6_linear_40_3892)"/>
<path d="M14.2727 7.00001C14.2727 6.21546 13.255 5.18182 12 5.18182C10.745 5.18182 9.72727 6.21546 9.72727 7.00001C9.72727 7.78455 10.745 7.9091 12 7.9091C13.255 7.9091 14.2727 7.78455 14.2727 7.00001Z" fill="#ED3675"/>
<path d="M9.72727 7C9.72727 7.34091 9.72727 8.36364 9.72727 8.36364C9.72727 8.36364 10.2955 7.90909 12 7.90909C12 7 9.72727 7 9.72727 7Z" fill="#ED3675"/>
<defs>
<linearGradient id="paint0_linear_40_3892" x1="15.8636" y1="22.2168" x2="15.8636" y2="10.6127" gradientUnits="userSpaceOnUse">
<stop stop-color="#BD1949"/>
<stop offset="0.108" stop-color="#C31A4B"/>
<stop offset="0.38" stop-color="#CA1B4D"/>
<stop offset="1" stop-color="#CC1B4E"/>
</linearGradient>
<linearGradient id="paint1_linear_40_3892" x1="12.4545" y1="22.2809" x2="12.4545" y2="9.57137" gradientUnits="userSpaceOnUse">
<stop stop-color="#BD1949"/>
<stop offset="0.108" stop-color="#C31A4B"/>
<stop offset="0.38" stop-color="#CA1B4D"/>
<stop offset="1" stop-color="#CC1B4E"/>
</linearGradient>
<linearGradient id="paint2_linear_40_3892" x1="4.5" y1="18.7645" x2="4.5" y2="12.9804" gradientUnits="userSpaceOnUse">
<stop offset="0.002" stop-color="#454545"/>
<stop offset="0.013" stop-color="#464646"/>
<stop offset="0.875" stop-color="#626262"/>
<stop offset="1" stop-color="#6D6D6D"/>
</linearGradient>
<linearGradient id="paint3_linear_40_3892" x1="19.5" y1="18.7645" x2="19.5" y2="12.9804" gradientUnits="userSpaceOnUse">
<stop offset="0.002" stop-color="#454545"/>
<stop offset="0.013" stop-color="#464646"/>
<stop offset="0.875" stop-color="#626262"/>
<stop offset="1" stop-color="#6D6D6D"/>
</linearGradient>
<linearGradient id="paint4_linear_40_3892" x1="11.2045" y1="4.5" x2="12.7955" y2="4.5" gradientUnits="userSpaceOnUse">
<stop offset="0.002" stop-color="#454545"/>
<stop offset="0.013" stop-color="#464646"/>
<stop offset="0.875" stop-color="#626262"/>
<stop offset="1" stop-color="#6D6D6D"/>
</linearGradient>
<linearGradient id="paint5_linear_40_3892" x1="14.0455" y1="7.10684" x2="14.0455" y2="10.86" gradientUnits="userSpaceOnUse">
<stop stop-color="#4C4C4C"/>
<stop offset="1" stop-color="#343434"/>
</linearGradient>
<linearGradient id="paint6_linear_40_3892" x1="9.95455" y1="7.10684" x2="9.95455" y2="10.86" gradientUnits="userSpaceOnUse">
<stop stop-color="#4C4C4C"/>
<stop offset="1" stop-color="#343434"/>
</linearGradient>
</defs>
</svg>
