<svg width="24" height="24" viewBox="0 0 24 24" fill="none" xmlns="http://www.w3.org/2000/svg">
<path d="M15.9535 2C15.9535 2.25674 15.7451 2.46512 15.4884 2.46512C15.2316 2.46512 15.0233 2.25674 15.0233 2H14.093C14.093 2.25674 13.8847 2.46512 13.6279 2.46512C13.3712 2.46512 13.1628 2.25674 13.1628 2H12.2326C12.2326 2.25674 12.0242 2.46512 11.7674 2.46512C11.5107 2.46512 11.3023 2.25674 11.3023 2H10.3721C10.3721 2.25674 10.1637 2.46512 9.90698 2.46512C9.65024 2.46512 9.44186 2.25674 9.44186 2H8.51163C8.51163 2.25674 8.30326 2.46512 8.04652 2.46512C7.78977 2.46512 7.5814 2.25674 7.5814 2H6.65117C6.65117 2.25674 6.44279 2.46512 6.18605 2.46512C5.92931 2.46512 5.72093 2.25674 5.72093 2H4.7907C4.7907 2.25674 4.58233 2.46512 4.32559 2.46512C4.06884 2.46512 3.86047 2.25674 3.86047 2H3.39535C3.13861 2 2.93024 2.20837 2.93024 2.46512V18.7442C2.93024 19.2581 3.34652 19.6744 3.86047 19.6744H15.9535C16.4674 19.6744 16.8837 19.2581 16.8837 18.7442V2.46512C16.8837 2.20837 16.6754 2 16.4186 2H15.9535Z" fill="url(#paint0_linear_40_3927)"/>
<path d="M14.7907 5.72091H5.02325C4.89488 5.72091 4.7907 5.61672 4.7907 5.48835V4.55812C4.7907 4.42975 4.89488 4.32556 5.02325 4.32556H14.7907C14.9191 4.32556 15.0233 4.42975 15.0233 4.55812V5.48835C15.0233 5.61672 14.9191 5.72091 14.7907 5.72091Z" fill="#057093"/>
<path d="M14.7907 8.97674H13.8605C13.7321 8.97674 13.6279 8.87256 13.6279 8.74418V8.27907C13.6279 8.15069 13.7321 8.04651 13.8605 8.04651H14.7907C14.9191 8.04651 15.0233 8.15069 15.0233 8.27907V8.74418C15.0233 8.87256 14.9191 8.97674 14.7907 8.97674Z" fill="#057093"/>
<path d="M11.0698 8.97674H5.02325C4.89488 8.97674 4.7907 8.87256 4.7907 8.74418V8.27907C4.7907 8.15069 4.89488 8.04651 5.02325 8.04651H11.0698C11.1981 8.04651 11.3023 8.15069 11.3023 8.27907V8.74418C11.3023 8.87256 11.1981 8.97674 11.0698 8.97674Z" fill="#057093"/>
<path d="M14.7907 10.8372H13.8605C13.7321 10.8372 13.6279 10.733 13.6279 10.6047V10.1395C13.6279 10.0112 13.7321 9.90698 13.8605 9.90698H14.7907C14.9191 9.90698 15.0233 10.0112 15.0233 10.1395V10.6047C15.0233 10.733 14.9191 10.8372 14.7907 10.8372Z" fill="#057093"/>
<path d="M9.67442 10.8372H5.02325C4.89488 10.8372 4.7907 10.733 4.7907 10.6047V10.1395C4.7907 10.0112 4.89488 9.90698 5.02325 9.90698H9.67442C9.80279 9.90698 9.90697 10.0112 9.90697 10.1395V10.6047C9.90697 10.733 9.80279 10.8372 9.67442 10.8372Z" fill="#057093"/>
<path d="M14.7907 12.6977H13.8605C13.7321 12.6977 13.6279 12.5935 13.6279 12.4651V12C13.6279 11.8716 13.7321 11.7675 13.8605 11.7675H14.7907C14.9191 11.7675 15.0233 11.8716 15.0233 12V12.4651C15.0233 12.5935 14.9191 12.6977 14.7907 12.6977Z" fill="#057093"/>
<path d="M11.0698 12.6977H5.02325C4.89488 12.6977 4.7907 12.5935 4.7907 12.4651V12C4.7907 11.8716 4.89488 11.7675 5.02325 11.7675H11.0698C11.1981 11.7675 11.3023 11.8716 11.3023 12V12.4651C11.3023 12.5935 11.1981 12.6977 11.0698 12.6977Z" fill="#057093"/>
<path d="M14.7907 14.5582H13.8605C13.7321 14.5582 13.6279 14.454 13.6279 14.3256V13.8605C13.6279 13.7321 13.7321 13.6279 13.8605 13.6279H14.7907C14.9191 13.6279 15.0233 13.7321 15.0233 13.8605V14.3256C15.0233 14.454 14.9191 14.5582 14.7907 14.5582Z" fill="#057093"/>
<path d="M9.67442 14.5582H5.02325C4.89488 14.5582 4.7907 14.454 4.7907 14.3256V13.8605C4.7907 13.7321 4.89488 13.6279 5.02325 13.6279H9.67442C9.80279 13.6279 9.90697 13.7321 9.90697 13.8605V14.3256C9.90697 14.454 9.80279 14.5582 9.67442 14.5582Z" fill="#057093"/>
<path d="M14.7907 17.3488H12.9302C12.8019 17.3488 12.6977 17.2446 12.6977 17.1163V16.6511C12.6977 16.5228 12.8019 16.4186 12.9302 16.4186H14.7907C14.9191 16.4186 15.0233 16.5228 15.0233 16.6511V17.1163C15.0233 17.2446 14.9191 17.3488 14.7907 17.3488Z" fill="#057093"/>
<path d="M11.0698 17.3488H6.88373C6.75535 17.3488 6.65117 17.2446 6.65117 17.1163V16.6511C6.65117 16.5228 6.75535 16.4186 6.88373 16.4186H11.0698C11.1981 16.4186 11.3023 16.5228 11.3023 16.6511V17.1163C11.3023 17.2446 11.1981 17.3488 11.0698 17.3488Z" fill="#057093"/>
<path d="M16.4186 11.7675C13.3409 11.7675 10.8372 14.2712 10.8372 17.3489C10.8372 18.1795 11.0247 18.9656 11.3512 19.6744H15.9535C16.4675 19.6744 16.8837 19.2582 16.8837 18.7442V11.7912C16.7298 11.7782 16.5758 11.7675 16.4186 11.7675Z" fill="url(#paint1_radial_40_3927)"/>
<path d="M16.4186 22C18.9873 22 21.0698 19.9176 21.0698 17.3489C21.0698 14.7801 18.9873 12.6977 16.4186 12.6977C13.8499 12.6977 11.7674 14.7801 11.7674 17.3489C11.7674 19.9176 13.8499 22 16.4186 22Z" fill="url(#paint2_linear_40_3927)"/>
<path opacity="0.05" d="M16.3023 21.0707C15.9819 21.0707 15.7209 20.8098 15.7209 20.4893V20.3051C15.3842 20.2451 15.047 20.1484 14.7707 20.0312C14.4996 19.9149 14.3251 19.6517 14.3251 19.36V18.8061C14.3251 18.4665 14.6009 18.1898 14.94 18.1898C15.0358 18.1898 15.1321 18.213 15.2182 18.2568C15.3582 18.3284 15.8554 18.5605 16.4186 18.5605C16.6614 18.5605 16.7182 18.5079 16.7186 18.507C16.673 18.4144 16.2693 18.2647 16.0754 18.193C15.3465 17.9233 14.2442 17.5154 14.2442 16.1861C14.2442 15.2717 14.7921 14.6028 15.7205 14.3651V14.2093C15.7205 13.8889 15.9814 13.6279 16.3019 13.6279H16.5344C16.8549 13.6279 17.1158 13.8889 17.1158 14.2093V14.3126C17.3916 14.3442 17.6242 14.3982 17.8228 14.4754C17.9302 14.5177 18.2791 14.6944 18.2791 15.2075V15.6944C18.2791 16.0335 18.0028 16.3093 17.6633 16.3093C17.5716 16.3093 17.4823 16.2893 17.3986 16.2498C17.2209 16.1665 16.8568 16.0265 16.4186 16.0265C16.3084 16.0265 16.1219 16.0433 16.1219 16.1047C16.1219 16.2163 16.5758 16.3926 16.8195 16.487C17.5265 16.7619 18.593 17.1763 18.593 18.4405C18.593 19.1447 18.2019 20.0256 17.1168 20.2926V20.4889C17.1168 20.8093 16.8558 21.0703 16.5354 21.0703L16.3023 21.0707Z" fill="black"/>
<path opacity="0.05" d="M16.3023 20.8381C16.1102 20.8381 15.9535 20.6819 15.9535 20.4893V20.1061C15.5749 20.0554 15.1791 19.9516 14.8614 19.8168C14.6767 19.7377 14.5577 19.5581 14.5577 19.36V18.8061C14.5577 18.5944 14.7293 18.4223 14.94 18.4223C14.9995 18.4223 15.0595 18.4368 15.1126 18.4637C15.2637 18.5414 15.8023 18.793 16.4186 18.793C16.9479 18.793 16.9479 18.5735 16.9479 18.4907C16.9479 18.2833 16.6488 18.1577 16.1563 17.9749C15.4479 17.7126 14.4772 17.353 14.4772 16.1856C14.4772 15.1754 15.2051 14.6888 15.9535 14.5516V14.2093C15.9535 14.0168 16.1102 13.8605 16.3023 13.8605H16.5349C16.727 13.8605 16.8837 14.0168 16.8837 14.2093V14.5247C17.2326 14.5493 17.5135 14.6047 17.7386 14.6921C17.8316 14.7288 18.047 14.8512 18.047 15.2075V15.6944C18.047 15.9051 17.8749 16.0768 17.6637 16.0768C17.606 16.0768 17.5507 16.0642 17.4981 16.0391C17.3028 15.9474 16.9028 15.794 16.4191 15.794C16.0679 15.794 15.8898 15.8986 15.8898 16.1047C15.8898 16.3572 16.2098 16.4995 16.7358 16.7042C17.4214 16.9707 18.3605 17.3354 18.3605 18.4409C18.3605 19.1126 17.9688 19.9233 16.8842 20.1037V20.4898C16.8842 20.6823 16.7274 20.8386 16.5353 20.8386H16.3023V20.8381Z" fill="black"/>
<path d="M18.1274 18.4405C18.1274 16.7665 15.6563 17.0935 15.6563 16.1046C15.6563 15.5884 16.2367 15.5609 16.4181 15.5609C16.8544 15.5609 17.2753 15.6781 17.5963 15.8284C17.6977 15.8763 17.8139 15.806 17.8139 15.6944V15.2074C17.8139 15.0442 17.7526 14.9474 17.6544 14.9088C17.4344 14.8233 17.1186 14.7605 16.6512 14.7451V14.2093C16.6512 14.1451 16.5991 14.093 16.5349 14.093H16.3023C16.2381 14.093 16.186 14.1451 16.186 14.2093V14.7539C15.4609 14.8246 14.7098 15.2339 14.7098 16.1856C14.7098 17.9209 17.1809 17.5763 17.1809 18.4902C17.1809 18.7777 16.9972 19.0251 16.4191 19.0251C15.8377 19.0251 15.3033 18.8223 15.0079 18.6707C14.9084 18.62 14.7912 18.6935 14.7912 18.8051V19.3595C14.7912 19.4656 14.8553 19.5605 14.9535 19.6023C15.3037 19.7512 15.7735 19.8637 16.187 19.8967V20.4888C16.187 20.553 16.2391 20.6051 16.3033 20.6051H16.5358C16.6 20.6051 16.6521 20.553 16.6521 20.4888V19.8977C17.7358 19.8074 18.1274 19.0814 18.1274 18.4405Z" fill="white"/>
<defs>
<linearGradient id="paint0_linear_40_3927" x1="7.32958" y1="2.27136" x2="17.1426" y2="17.2085" gradientUnits="userSpaceOnUse">
<stop stop-color="#7DD8F3"/>
<stop offset="1" stop-color="#45B0D0"/>
</linearGradient>
<radialGradient id="paint1_radial_40_3927" cx="0" cy="0" r="1" gradientUnits="userSpaceOnUse" gradientTransform="translate(16.2749 17.3042) scale(5.5707)">
<stop/>
<stop offset="0.979" stop-opacity="0"/>
</radialGradient>
<linearGradient id="paint2_linear_40_3927" x1="11.7674" y1="17.3489" x2="21.0698" y2="17.3489" gradientUnits="userSpaceOnUse">
<stop stop-color="#21AD64"/>
<stop offset="1" stop-color="#088242"/>
</linearGradient>
</defs>
</svg>
