<svg width="24" height="24" viewBox="0 0 24 24" fill="none" xmlns="http://www.w3.org/2000/svg">
<path d="M21.4737 20.9473V7.78945C21.4737 7.20787 21.0026 6.73682 20.4211 6.73682H3.57895C2.99737 6.73682 2.52632 7.20787 2.52632 7.78945V20.9473C2.52632 21.5289 2.99737 22 3.57895 22H20.4211C21.0026 22 21.4737 21.5289 21.4737 20.9473Z" fill="url(#paint0_linear_40_3946)"/>
<path d="M5.68422 9.36841H18.3158C18.8974 9.36841 19.3684 9.83946 19.3684 10.421C19.3684 11.0026 18.8974 11.4737 18.3158 11.4737H5.68422C5.10264 11.4737 4.63159 11.0026 4.63159 10.421C4.63159 9.83946 5.10264 9.36841 5.68422 9.36841Z" fill="url(#paint1_linear_40_3946)"/>
<path d="M17.7895 10.9474V2.52632C17.7895 2.23579 17.5537 2 17.2632 2H16.7368C16.7368 2.29053 16.5011 2.52632 16.2105 2.52632C15.92 2.52632 15.6842 2.29053 15.6842 2H14.6316C14.6316 2.29053 14.3958 2.52632 14.1053 2.52632C13.8147 2.52632 13.5789 2.29053 13.5789 2H12.5263C12.5263 2.29053 12.2905 2.52632 12 2.52632C11.7095 2.52632 11.4737 2.29053 11.4737 2H10.4211C10.4211 2.29053 10.1853 2.52632 9.89474 2.52632C9.60421 2.52632 9.36842 2.29053 9.36842 2H8.31579C8.31579 2.29053 8.08 2.52632 7.78947 2.52632C7.49895 2.52632 7.26316 2.29053 7.26316 2H6.73684C6.44631 2 6.21053 2.23579 6.21053 2.52632V10.9474H17.7895Z" fill="url(#paint2_linear_40_3946)"/>
<path d="M6.21053 13.0526H17.7895C18.3711 13.0526 18.8421 13.5237 18.8421 14.1052V15.1579C18.8421 15.7395 18.3711 16.2105 17.7895 16.2105H6.21053C5.62895 16.2105 5.1579 15.7395 5.1579 15.1579V14.1052C5.1579 13.5237 5.62895 13.0526 6.21053 13.0526Z" fill="url(#paint3_linear_40_3946)"/>
<path d="M18.3158 20.4211H16.7368C16.4463 20.4211 16.2105 20.1853 16.2105 19.8948V18.3158C16.2105 18.0253 16.4463 17.7895 16.7368 17.7895H18.3158C18.6063 17.7895 18.8421 18.0253 18.8421 18.3158V19.8948C18.8421 20.1853 18.6063 20.4211 18.3158 20.4211Z" fill="url(#paint4_linear_40_3946)"/>
<path d="M7.26316 20.4211H5.68421C5.39369 20.4211 5.1579 20.1853 5.1579 19.8948V18.3158C5.1579 18.0253 5.39369 17.7895 5.68421 17.7895H7.26316C7.55369 17.7895 7.78948 18.0253 7.78948 18.3158V19.8948C7.78948 20.1853 7.55369 20.4211 7.26316 20.4211ZM10.9474 20.4211H9.36842C9.0779 20.4211 8.84211 20.1853 8.84211 19.8948V18.3158C8.84211 18.0253 9.0779 17.7895 9.36842 17.7895H10.9474C11.2379 17.7895 11.4737 18.0253 11.4737 18.3158V19.8948C11.4737 20.1853 11.2379 20.4211 10.9474 20.4211ZM14.6316 20.4211H13.0526C12.7621 20.4211 12.5263 20.1853 12.5263 19.8948V18.3158C12.5263 18.0253 12.7621 17.7895 13.0526 17.7895H14.6316C14.9221 17.7895 15.1579 18.0253 15.1579 18.3158V19.8948C15.1579 20.1853 14.9221 20.4211 14.6316 20.4211Z" fill="#CAD2D9"/>
<path d="M17.7895 10.4211H6.21053V11.4737H17.7895V10.4211Z" fill="url(#paint5_linear_40_3946)"/>
<path opacity="0.05" d="M11.9142 9.42523C11.58 9.42523 11.3068 9.15576 11.3011 8.8226C11.0868 8.77576 10.88 8.71155 10.7021 8.63576C10.4342 8.52155 10.2611 8.26049 10.2611 7.97049V7.55734C10.2611 7.20523 10.5468 6.91891 10.899 6.91891H10.9311C10.5442 6.66734 10.2005 6.27207 10.2005 5.60628C10.2005 4.89839 10.6168 4.3426 11.3005 4.11523C11.3105 3.78628 11.5816 3.52155 11.9132 3.52155H12.0863C12.3974 3.52155 12.6547 3.75418 12.6942 4.0547C12.8505 4.08102 12.9884 4.11734 13.1111 4.16523C13.2184 4.20734 13.5653 4.3826 13.5653 4.87786V5.24049C13.5653 5.59155 13.279 5.87786 12.9274 5.87786H12.86C13.3253 6.11628 13.799 6.5126 13.799 7.28576C13.799 7.83997 13.5063 8.54102 12.7 8.80155V8.81155C12.7 9.14944 12.4253 9.4247 12.0868 9.4247H11.9142V9.42523Z" fill="black"/>
<path opacity="0.07" d="M11.9142 9.1621C11.7216 9.1621 11.5642 9.00526 11.5642 8.8121V8.6042C11.2979 8.5621 11.0268 8.48789 10.8053 8.39368C10.6347 8.32105 10.5242 8.15473 10.5242 7.97052V7.55736C10.5242 7.35052 10.6921 7.1821 10.8989 7.1821H10.9621L11.0684 7.22315C11.1763 7.27841 11.5611 7.45841 12 7.45841C12.3047 7.45841 12.3047 7.36368 12.3047 7.32315C12.3047 7.21999 12.01 7.11105 11.7737 7.02368C11.2521 6.83052 10.4637 6.53894 10.4637 5.60683C10.4637 4.95262 10.8879 4.46526 11.5632 4.31578V4.13473C11.5632 3.9421 11.72 3.78473 11.9132 3.78473H12.0863C12.2789 3.78473 12.4363 3.94157 12.4363 4.13473V4.28683C12.6668 4.30894 12.8584 4.34947 13.0158 4.41105C13.1026 4.44526 13.3021 4.55841 13.3021 4.87841V5.24104C13.3021 5.44736 13.1337 5.61526 12.9274 5.61526H12.8679L12.7642 5.57841C12.6263 5.51368 12.3411 5.40473 11.9995 5.40473C11.7974 5.40473 11.6947 5.45262 11.6947 5.54683C11.6947 5.67736 11.9216 5.77473 12.2674 5.90894C12.8026 6.11683 13.5353 6.40157 13.5353 7.28631C13.5353 7.80736 13.2421 8.43315 12.4363 8.59999V8.81262C12.4363 9.00526 12.2795 9.16262 12.0863 9.16262H11.9142V9.1621Z" fill="black"/>
<path d="M13.2726 7.28686C13.2726 6.04002 11.4321 6.2837 11.4321 5.54686C11.4321 5.16212 11.8647 5.1416 11.9995 5.1416C12.3242 5.1416 12.6379 5.22897 12.8768 5.34107C12.9526 5.37686 13.039 5.32423 13.039 5.24107V4.87844C13.039 4.75686 12.9932 4.68475 12.92 4.65581C12.7563 4.59212 12.5211 4.54528 12.1726 4.5337V4.13475C12.1726 4.08686 12.1337 4.04791 12.0858 4.04791H11.9126C11.8647 4.04791 11.8258 4.08686 11.8258 4.13475V4.54054C11.2858 4.59318 10.7263 4.89791 10.7263 5.60686C10.7263 6.89949 12.5668 6.64265 12.5668 7.3237C12.5668 7.53791 12.43 7.72212 11.9995 7.72212C11.5663 7.72212 11.1684 7.57107 10.9484 7.45791C10.8742 7.42002 10.7868 7.47476 10.7868 7.55791V7.97107C10.7868 8.05002 10.8347 8.12054 10.9079 8.15212C11.1689 8.26318 11.5189 8.34686 11.8268 8.3716V8.81265C11.8268 8.86054 11.8658 8.89949 11.9137 8.89949H12.0868C12.1347 8.89949 12.1737 8.86054 12.1737 8.81265V8.37212C12.9811 8.30476 13.2726 7.76423 13.2726 7.28686Z" fill="white"/>
<defs>
<linearGradient id="paint0_linear_40_3946" x1="12" y1="6.45682" x2="12" y2="22.0573" gradientUnits="userSpaceOnUse">
<stop stop-color="#899198"/>
<stop offset="1" stop-color="#787E85"/>
</linearGradient>
<linearGradient id="paint1_linear_40_3946" x1="12" y1="11.4847" x2="12" y2="9.44683" gradientUnits="userSpaceOnUse">
<stop stop-color="#0D61A9"/>
<stop offset="1" stop-color="#16528C"/>
</linearGradient>
<linearGradient id="paint2_linear_40_3946" x1="9.8612" y1="2.13737" x2="13.5993" y2="11.4644" gradientUnits="userSpaceOnUse">
<stop stop-color="#7DD8F3"/>
<stop offset="1" stop-color="#45B0D0"/>
</linearGradient>
<linearGradient id="paint3_linear_40_3946" x1="5.48053" y1="12.9221" x2="18.2911" y2="16.2816" gradientUnits="userSpaceOnUse">
<stop stop-color="#4FE5FF"/>
<stop offset="1" stop-color="#2EB7ED"/>
</linearGradient>
<linearGradient id="paint4_linear_40_3946" x1="16.5959" y1="18.1749" x2="18.4567" y2="20.0357" gradientUnits="userSpaceOnUse">
<stop stop-color="#21AD64"/>
<stop offset="1" stop-color="#088242"/>
</linearGradient>
<linearGradient id="paint5_linear_40_3946" x1="10.4409" y1="10.467" x2="10.4601" y2="11.6274" gradientUnits="userSpaceOnUse">
<stop stop-color="#32BDEF"/>
<stop offset="1" stop-color="#1EA2E4"/>
</linearGradient>
</defs>
</svg>
