<svg width="24" height="24" viewBox="0 0 24 24" fill="none" xmlns="http://www.w3.org/2000/svg">
<path d="M3.57895 3.57892V19.3684C3.57895 19.95 4.05 20.421 4.63158 20.421H20.4211V4.63155C20.4211 4.04997 19.95 3.57892 19.3684 3.57892H3.57895ZM19.3684 19.3684H4.63158V4.63155H19.3684V19.3684Z" fill="#64717C"/>
<path d="M12.5263 9.89471H2V15.1579H12.5263V9.89471Z" fill="url(#paint0_linear_40_3958)"/>
<path d="M2 3.05263V9.89474H12.5263V3.05263C12.5263 2.47105 12.0553 2 11.4737 2H3.05263C2.47105 2 2 2.47105 2 3.05263Z" fill="#0078D4"/>
<path d="M6.73684 3.57892H5.6842V4.63155H6.73684V3.57892Z" fill="#005094"/>
<path d="M4.63158 3.57892H3.57895V4.63155H4.63158V3.57892Z" fill="#005094"/>
<path d="M6.73684 7.78949H5.6842V8.84212H6.73684V7.78949Z" fill="#005094"/>
<path d="M4.63158 7.78949H3.57895V8.84212H4.63158V7.78949Z" fill="#005094"/>
<path d="M6.73684 5.6842H5.6842V6.73684H6.73684V5.6842Z" fill="#005094"/>
<path d="M8.84211 3.57892H7.78947V4.63155H8.84211V3.57892Z" fill="#005094"/>
<path d="M8.84211 7.78949H7.78947V8.84212H8.84211V7.78949Z" fill="#005094"/>
<path d="M10.9474 7.78949H9.89473V8.84212H10.9474V7.78949Z" fill="#005094"/>
<path d="M8.84211 5.6842H7.78947V6.73684H8.84211V5.6842Z" fill="#005094"/>
<path d="M10.9474 3.57892H9.89473V4.63155H10.9474V3.57892Z" fill="#005094"/>
<path d="M10.9474 5.6842H9.89473V6.73684H10.9474V5.6842Z" fill="#005094"/>
<path d="M4.63158 5.6842H3.57895V6.73684H4.63158V5.6842Z" fill="#005094"/>
<path d="M8.84211 10.9474H7.78947V12H8.84211V10.9474Z" fill="#004885"/>
<path d="M6.73684 10.9474H5.6842V12H6.73684V10.9474Z" fill="#004885"/>
<path d="M4.63158 10.9474H3.57895V12H4.63158V10.9474Z" fill="#004885"/>
<path d="M8.84211 13.0526H7.78947V14.1052H8.84211V13.0526Z" fill="#004885"/>
<path d="M10.9474 10.9474H9.89473V12H10.9474V10.9474Z" fill="#004885"/>
<path d="M10.9474 13.0526H9.89473V14.1052H10.9474V13.0526Z" fill="#004885"/>
<path d="M6.73684 13.0526H5.6842V14.1052H6.73684V13.0526Z" fill="#004885"/>
<path d="M4.63158 13.0526H3.57895V14.1052H4.63158V13.0526Z" fill="#004885"/>
<path d="M22 16.7368H11.4737V22H22V16.7368Z" fill="#0078D4"/>
<path d="M11.4737 9.89473V16.7368H22V9.89473C22 9.31315 21.5289 8.8421 20.9474 8.8421H12.5263C11.9447 8.8421 11.4737 9.31315 11.4737 9.89473Z" fill="url(#paint1_linear_40_3958)"/>
<path d="M18.3158 10.4211H17.2632V11.4737H18.3158V10.4211Z" fill="#0D62AB"/>
<path d="M16.2105 10.4211H15.1579V11.4737H16.2105V10.4211Z" fill="#0D62AB"/>
<path d="M14.1053 10.4211H13.0526V11.4737H14.1053V10.4211Z" fill="#0D62AB"/>
<path d="M20.4211 10.4211H19.3684V11.4737H20.4211V10.4211Z" fill="#0D62AB"/>
<path d="M18.3158 14.6316H17.2632V15.6842H18.3158V14.6316Z" fill="#0D62AB"/>
<path d="M16.2105 14.6316H15.1579V15.6842H16.2105V14.6316Z" fill="#0D62AB"/>
<path d="M14.1053 14.6316H13.0526V15.6842H14.1053V14.6316Z" fill="#0D62AB"/>
<path d="M18.3158 12.5263H17.2632V13.5789H18.3158V12.5263Z" fill="#0D62AB"/>
<path d="M16.2105 12.5263H15.1579V13.5789H16.2105V12.5263Z" fill="#0D62AB"/>
<path d="M20.4211 14.6316H19.3684V15.6842H20.4211V14.6316Z" fill="#0D62AB"/>
<path d="M20.4211 12.5263H19.3684V13.5789H20.4211V12.5263Z" fill="#0D62AB"/>
<path d="M14.1053 12.5263H13.0526V13.5789H14.1053V12.5263Z" fill="#0D62AB"/>
<path d="M18.3158 17.7895H17.2632V18.8421H18.3158V17.7895Z" fill="#005094"/>
<path d="M16.2105 17.7895H15.1579V18.8421H16.2105V17.7895Z" fill="#005094"/>
<path d="M14.1053 17.7895H13.0526V18.8421H14.1053V17.7895Z" fill="#005094"/>
<path d="M20.4211 17.7895H19.3684V18.8421H20.4211V17.7895Z" fill="#005094"/>
<path d="M18.3158 19.8947H17.2632V20.9473H18.3158V19.8947Z" fill="#005094"/>
<path d="M16.2105 19.8947H15.1579V20.9473H16.2105V19.8947Z" fill="#005094"/>
<path d="M20.4211 19.8947H19.3684V20.9473H20.4211V19.8947Z" fill="#005094"/>
<path d="M14.1053 19.8947H13.0526V20.9473H14.1053V19.8947Z" fill="#005094"/>
<defs>
<linearGradient id="paint0_linear_40_3958" x1="2" y1="12.5263" x2="12.5263" y2="12.5263" gradientUnits="userSpaceOnUse">
<stop stop-color="#0D61A9"/>
<stop offset="1" stop-color="#16528C"/>
</linearGradient>
<linearGradient id="paint1_linear_40_3958" x1="13.8057" y1="7.666" x2="18.4656" y2="16.7867" gradientUnits="userSpaceOnUse">
<stop stop-color="#FCFCFC"/>
<stop offset="0.95" stop-color="#C3C9CD"/>
</linearGradient>
</defs>
</svg>
