<svg width="24" height="24" viewBox="0 0 24 24" fill="none" xmlns="http://www.w3.org/2000/svg">
<path d="M19.7778 4.66669H18.4444V18H19.7778C20.2689 18 20.6667 17.6022 20.6667 17.1111V5.55558C20.6667 5.06446 20.2689 4.66669 19.7778 4.66669Z" fill="url(#paint0_linear_40_4013)"/>
<path d="M18.8889 17.1111V3.7778C18.8889 3.28669 18.4911 2.88892 18 2.88892H2.88889C2.39778 2.88892 2 3.28669 2 3.7778V17.1111C2 17.6022 2.39778 18 2.88889 18H19.7778C19.2867 18 18.8889 17.6022 18.8889 17.1111Z" fill="url(#paint1_linear_40_4013)"/>
<path d="M17.1111 7.33338H3.77778C3.53245 7.33338 3.33334 7.13427 3.33334 6.88894V6.00005C3.33334 5.75471 3.53245 5.5556 3.77778 5.5556H17.1111C17.3564 5.5556 17.5556 5.75471 17.5556 6.00005V6.88894C17.5556 7.13427 17.3564 7.33338 17.1111 7.33338Z" fill="white"/>
<path d="M9.11111 15.7778H3.77778C3.53245 15.7778 3.33334 15.5787 3.33334 15.3334V9.55559C3.33334 9.31026 3.53245 9.11115 3.77778 9.11115H9.11111C9.35645 9.11115 9.55556 9.31026 9.55556 9.55559V15.3334C9.55556 15.5787 9.35645 15.7778 9.11111 15.7778Z" fill="white"/>
<path d="M17.5556 10.4445H11.3333V9.55559C11.3333 9.31026 11.5324 9.11115 11.7778 9.11115H17.1111C17.3564 9.11115 17.5556 9.31026 17.5556 9.55559V10.4445Z" fill="white"/>
<path d="M17.5556 10.4445H11.3333V11.7778H17.5556V10.4445Z" fill="url(#paint2_linear_40_4013)"/>
<path d="M17.5556 11.7778H11.3333V13.1112H17.5556V11.7778Z" fill="url(#paint3_linear_40_4013)"/>
<path d="M17.5556 13.1111H11.3333V14.4445H17.5556V13.1111Z" fill="url(#paint4_linear_40_4013)"/>
<path d="M17.1111 15.7778H11.7778C11.5324 15.7778 11.3333 15.5787 11.3333 15.3333V14.4445H17.5556V15.3333C17.5556 15.5787 17.3564 15.7778 17.1111 15.7778Z" fill="url(#paint5_linear_40_4013)"/>
<path d="M17.5556 11.3334C14.6147 11.3334 12.2222 13.7258 12.2222 16.6667C12.2222 17.1276 12.2871 17.5729 12.3978 18H19.7778C20.2689 18 20.6667 17.6023 20.6667 17.1112V12.3436C19.7898 11.7107 18.7173 11.3334 17.5556 11.3334Z" fill="url(#paint6_radial_40_4013)"/>
<path d="M22 16.6667C22 19.1209 20.0098 21.1111 17.5556 21.1111C15.1013 21.1111 13.1111 19.1209 13.1111 16.6667C13.1111 14.2125 15.1013 12.2222 17.5556 12.2222C20.0098 12.2222 22 14.2125 22 16.6667Z" fill="url(#paint7_linear_40_4013)"/>
<path opacity="0.05" d="M17.56 19.5721C16.7924 19.5721 16.0667 19.2907 15.5142 18.7805C14.4404 17.7863 14.2564 16.1218 15.0582 14.9098L14.9342 14.7858C14.7631 14.6147 14.7129 14.3601 14.8053 14.1369C14.8973 13.9138 15.1129 13.7698 15.3547 13.7698H16.7031C17.0658 13.7698 17.3613 14.0654 17.3613 14.4281V15.7765C17.3613 16.1049 17.0938 16.3721 16.7649 16.3721C16.6111 16.3721 16.4653 16.3129 16.3538 16.2058C16.2991 16.3841 16.284 16.5734 16.3102 16.7592C16.3609 17.1147 16.5573 17.4241 16.8631 17.6294C17.0662 17.7663 17.3067 17.8383 17.5582 17.8383C17.8098 17.8383 18.0502 17.7663 18.2533 17.6294C18.5627 17.4214 18.7613 17.1085 18.812 16.7485C18.8627 16.3916 18.76 16.0294 18.5302 15.7556C18.3258 15.5112 18.3391 15.1587 18.5618 14.9361L18.9427 14.5552C19.0555 14.4423 19.2116 14.3778 19.372 14.3778C19.544 14.3778 19.7076 14.4512 19.8204 14.5796C20.8902 15.7952 20.7929 17.6805 19.6031 18.7818C19.052 19.2912 18.3262 19.5721 17.56 19.5721Z" fill="black"/>
<path opacity="0.07" d="M17.5596 19.3498C16.8484 19.3498 16.176 19.0894 15.6653 18.6174C14.6151 17.645 14.4902 16.0125 15.3476 14.8858L15.0911 14.629C14.984 14.5218 14.952 14.3623 15.0102 14.2223C15.068 14.0827 15.2031 13.9921 15.3542 13.9921H16.7027C16.9431 13.9921 17.1387 14.1876 17.1387 14.4281V15.7765C17.1387 15.9823 16.9707 16.1498 16.7644 16.1498C16.6658 16.1498 16.5724 16.1107 16.5018 16.0401L16.2818 15.8201C16.1111 16.1103 16.0418 16.4534 16.0898 16.7907C16.1498 17.2094 16.3796 17.573 16.7387 17.8143C16.9782 17.9752 17.2618 18.061 17.5582 18.061C17.8547 18.061 18.1382 17.9756 18.3778 17.8143C18.7396 17.5707 18.9724 17.2036 19.0324 16.7801C19.092 16.361 18.9711 15.9356 18.7013 15.613C18.5711 15.4574 18.5791 15.2338 18.7196 15.0934L19.1004 14.7125C19.172 14.641 19.2711 14.6001 19.3724 14.6001C19.4804 14.6001 19.5836 14.6463 19.6542 14.7263C20.6449 15.8525 20.5542 17.5983 19.4524 18.6187C18.9427 19.0898 18.2702 19.3498 17.5596 19.3498Z" fill="black"/>
<path d="M19.4889 14.8729C19.4293 14.8049 19.3222 14.8049 19.2582 14.8689L18.8773 15.2498C18.8169 15.3103 18.8178 15.4045 18.8724 15.4698C19.5058 16.2267 19.3827 17.4063 18.5022 17.9983C17.9387 18.3774 17.1787 18.3774 16.6151 17.9983C15.7356 17.4067 15.6209 16.2334 16.2529 15.4769L16.6591 15.8831C16.7542 15.9783 16.9164 15.9107 16.9164 15.7765V14.428C16.9164 14.3098 16.8204 14.2138 16.7022 14.2138H15.3538C15.2196 14.2138 15.1524 14.376 15.2471 14.4711L15.6462 14.8703C14.7302 15.9023 14.78 17.4956 15.8151 18.4538C16.7849 19.3516 18.3307 19.352 19.3009 18.4543C20.3347 17.4991 20.3969 15.9054 19.4889 14.8729Z" fill="white"/>
<defs>
<linearGradient id="paint0_linear_40_4013" x1="18.8969" y1="11.3334" x2="20.7449" y2="11.3334" gradientUnits="userSpaceOnUse">
<stop stop-color="#0B59A2"/>
<stop offset="1" stop-color="#0077D2"/>
</linearGradient>
<linearGradient id="paint1_linear_40_4013" x1="10.8889" y1="2.85722" x2="10.8889" y2="17.9454" gradientUnits="userSpaceOnUse">
<stop stop-color="#2AA4F4"/>
<stop offset="1" stop-color="#007AD9"/>
</linearGradient>
<linearGradient id="paint2_linear_40_4013" x1="12.7118" y1="10.2458" x2="12.9894" y2="12.1477" gradientUnits="userSpaceOnUse">
<stop stop-color="#FCFCFC"/>
<stop offset="0.95" stop-color="#C3C9CD"/>
</linearGradient>
<linearGradient id="paint3_linear_40_4013" x1="12.7118" y1="11.5792" x2="12.9894" y2="13.4811" gradientUnits="userSpaceOnUse">
<stop stop-color="#FCFCFC"/>
<stop offset="0.95" stop-color="#C3C9CD"/>
</linearGradient>
<linearGradient id="paint4_linear_40_4013" x1="12.7118" y1="12.9125" x2="12.9894" y2="14.8144" gradientUnits="userSpaceOnUse">
<stop stop-color="#FCFCFC"/>
<stop offset="0.95" stop-color="#C3C9CD"/>
</linearGradient>
<linearGradient id="paint5_linear_40_4013" x1="12.7118" y1="14.2458" x2="12.9894" y2="16.1477" gradientUnits="userSpaceOnUse">
<stop stop-color="#FCFCFC"/>
<stop offset="0.95" stop-color="#C3C9CD"/>
</linearGradient>
<radialGradient id="paint6_radial_40_4013" cx="0" cy="0" r="1" gradientUnits="userSpaceOnUse" gradientTransform="translate(17.5222 16.6903) scale(5.31289)">
<stop/>
<stop offset="1" stop-opacity="0"/>
</radialGradient>
<linearGradient id="paint7_linear_40_4013" x1="13.0071" y1="12.1182" x2="19.8329" y2="18.944" gradientUnits="userSpaceOnUse">
<stop stop-color="#05ACB3"/>
<stop offset="1" stop-color="#038387"/>
</linearGradient>
</defs>
</svg>
