<svg width="24" height="24" viewBox="0 0 24 24" fill="none" xmlns="http://www.w3.org/2000/svg">
<path d="M19.6813 21.8417H4.31873C3.78824 21.8417 3.35857 21.412 3.35857 20.8815V10.7998L12 2.63849L20.6414 10.7998V20.8815C20.6414 21.412 20.2118 21.8417 19.6813 21.8417Z" fill="url(#paint0_linear_40_4029)"/>
<path opacity="0.05" d="M12 3.11853C11.7724 3.11853 11.5449 3.19918 11.3634 3.36001L8.79067 5.66967L3.35857 10.7998V13.3874L12 5.7244L20.6414 13.3874V10.7998L15.2093 5.66967L12.6366 3.36001C12.4551 3.19918 12.2276 3.11853 12 3.11853Z" fill="black"/>
<path opacity="0.07" d="M12 2.63849C11.7724 2.63849 11.5449 2.71866 11.3634 2.87853L8.79067 5.17523L3.35857 10.2761V12.8488L12 5.22948L20.6414 12.8488V10.2761L15.2093 5.17523L12.6366 2.87853C12.4551 2.71866 12.2276 2.63849 12 2.63849Z" fill="black"/>
<path d="M21.8392 10.5631L12.6366 2.39987C12.4551 2.23904 12.2276 2.15839 12 2.15839C11.7724 2.15839 11.5449 2.23904 11.3634 2.39987L2.16077 10.5631C1.95914 10.7427 1.94521 11.0528 2.13004 11.2496L2.91545 12.0874C3.0926 12.2765 3.38785 12.2909 3.58276 12.1196L12 4.76426L20.4172 12.12C20.6117 12.2909 20.9074 12.277 21.0845 12.0879L21.87 11.2501C22.0548 11.0528 22.0409 10.7427 21.8392 10.5631Z" fill="#21A366"/>
<path d="M14.4004 15.6933C14.4004 13.3423 10.9299 13.8017 10.9299 12.4129C10.9299 11.688 11.7451 11.6496 12 11.6496C12.6126 11.6496 13.204 11.8137 13.6548 12.0255C13.7969 12.0922 13.9602 11.9933 13.9602 11.8368V11.1527C13.9602 10.9232 13.8738 10.7873 13.736 10.7335C13.4268 10.6135 12.9832 10.5257 12.3269 10.5041V9.7513C12.3269 9.66105 12.254 9.58807 12.1637 9.58807H11.8373C11.747 9.58807 11.674 9.66105 11.674 9.7513V10.5161C10.6553 10.615 9.59961 11.1896 9.59961 12.5262C9.59961 14.9631 13.0701 14.4796 13.0701 15.7629C13.0701 16.1661 12.8123 16.5137 12 16.5137C11.1834 16.5137 10.433 16.2285 10.0178 16.0164C9.87806 15.9448 9.71339 16.0485 9.71339 16.2055V16.9842C9.71339 17.1335 9.80316 17.2665 9.94095 17.3246C10.433 17.5334 11.0931 17.6918 11.6736 17.7379V18.5699C11.6736 18.6602 11.7465 18.7331 11.8368 18.7331H12.1632C12.2535 18.7331 12.3265 18.6602 12.3265 18.5699V17.7398C13.8498 17.6131 14.4004 16.5934 14.4004 15.6933Z" fill="white"/>
<defs>
<linearGradient id="paint0_linear_40_4029" x1="5.88965" y1="5.45079" x2="19.3932" y2="17.604" gradientUnits="userSpaceOnUse">
<stop stop-color="#21AD64"/>
<stop offset="1" stop-color="#088242"/>
</linearGradient>
</defs>
</svg>
