<svg width="24" height="24" viewBox="0 0 24 24" fill="none" xmlns="http://www.w3.org/2000/svg">
<path d="M21 2.25H3C2.4475 2.25 2 2.6975 2 3.25V16.25C2 16.8025 2.4475 17.25 3 17.25H7V21.249C7 21.6945 7.5385 21.9175 7.8535 21.6025L12.206 17.25H21C21.5525 17.25 22 16.8025 22 16.25V3.25C22 2.6975 21.5525 2.25 21 2.25Z" fill="url(#paint0_linear_40_4053)"/>
<path opacity="0.05" d="M17.914 6.543C17.856 6.3075 17.6745 6.1205 17.4405 6.055C17.2035 5.99 16.949 6.0555 16.7755 6.2295L15.875 7.13C15.6665 7.337 15.3275 7.3365 15.1205 7.1295C15.0195 7.0285 14.964 6.8945 14.964 6.752C14.964 6.6095 15.0195 6.4755 15.121 6.374L16.02 5.4745C16.1935 5.301 16.2605 5.047 16.1945 4.81C16.129 4.5755 15.9425 4.394 15.707 4.3365C15.2915 4.2345 14.8675 4.223 14.4475 4.3025C13.1495 4.5465 12.1495 5.6295 12.016 6.9355C11.978 7.307 12.0115 7.6745 12.105 8.024L11.4215 8.7075L9.629 6.9145L9.581 6.624C9.5385 6.3645 9.39 6.1295 9.1745 5.979L7.7155 4.9605C7.417 4.751 7.0135 4.786 6.7565 5.044L6.294 5.5065C6.0375 5.764 6.002 6.1665 6.21 6.465L7.2305 7.9245C7.381 8.14 7.616 8.288 7.8745 8.3305L8.1655 8.379L9.9575 10.1725L7.44 12.69C6.855 13.275 6.855 14.226 7.44 14.811C7.7225 15.094 8.0995 15.25 8.5 15.25C8.9005 15.25 9.2775 15.094 9.5605 14.8105L14.2255 10.1455C14.477 10.2125 14.737 10.25 15.002 10.25C15.106 10.25 15.2105 10.2445 15.3155 10.234C16.621 10.0995 17.7035 9.0995 17.948 7.802C18.0275 7.3805 18.016 6.9565 17.914 6.543Z" fill="black"/>
<path opacity="0.05" d="M14.3035 10.9325C14.108 10.737 13.792 10.737 13.5965 10.9325L12.182 12.3465C12.088 12.4405 12.0355 12.567 12.0355 12.7C12.0355 12.833 12.088 12.96 12.182 13.0535L13.939 14.8105C14.2225 15.094 14.5995 15.25 15 15.25C15.4005 15.25 15.7775 15.094 16.0605 14.8105C16.6455 14.2255 16.6455 13.2745 16.0605 12.6895L14.3035 10.9325Z" fill="black"/>
<path opacity="0.07" d="M17.671 6.60249C17.6345 6.45249 17.523 6.33799 17.3735 6.29649C17.2235 6.25449 17.0625 6.29699 16.9525 6.40649L16.0525 7.30649C15.747 7.61249 15.2495 7.61199 14.944 7.30649C14.796 7.15849 14.7145 6.96199 14.7145 6.75249C14.7145 6.54299 14.7965 6.34649 14.9445 6.19849L15.844 5.29799C15.954 5.18849 15.996 5.02749 15.954 4.87799C15.913 4.72999 15.7955 4.61599 15.6475 4.57949C15.2675 4.48599 14.8795 4.47599 14.494 4.54849C13.3045 4.77249 12.3875 5.76499 12.265 6.96099C12.225 7.35099 12.27 7.73599 12.3865 8.09649L11.4215 9.0615L9.3955 7.03549L9.334 6.66549C9.3025 6.47199 9.192 6.29749 9.0315 6.18499L7.572 5.16599C7.373 5.02599 7.1045 5.04999 6.933 5.22149L6.471 5.68349C6.3 5.85499 6.2765 6.12349 6.415 6.32199L7.435 7.78199C7.5475 7.94249 7.7225 8.05249 7.915 8.08399L8.2855 8.14499L10.311 10.1725L7.617 12.8665C7.1295 13.354 7.1295 14.147 7.617 14.634C7.852 14.87 8.166 15 8.5 15C8.834 15 9.148 14.87 9.384 14.634L14.1615 9.8565C14.432 9.9435 14.7125 10.0005 15.0025 10.0005C15.098 10.0005 15.194 9.9955 15.2905 9.9855C16.4865 9.863 17.4785 8.946 17.7025 7.75649C17.775 7.36949 17.7645 6.98149 17.671 6.60249Z" fill="black"/>
<path opacity="0.07" d="M13.95 10.9325L12.1825 12.7L14.1165 14.6335C14.352 14.87 14.666 15 15 15C15.334 15 15.648 14.87 15.884 14.634C16.3715 14.1465 16.3715 13.3535 15.884 12.8665L13.95 10.9325Z" fill="black"/>
<path d="M11 10.508L8.405 7.91103L7.9555 7.83653C7.8275 7.81553 7.7135 7.74353 7.6395 7.63753L6.62 6.17803C6.551 6.07903 6.5625 5.94503 6.648 5.85953L7.11 5.39753C7.1955 5.31203 7.3295 5.30053 7.4285 5.36953L8.8885 6.38903C8.995 6.46303 9.0665 6.57703 9.088 6.70503L9.1625 7.15453L11.759 9.751L11 10.508Z" fill="white"/>
<path d="M16.229 7.48303C15.8255 7.88653 15.1705 7.88653 14.767 7.48303C14.3635 7.07953 14.3635 6.42453 14.767 6.02103C14.8655 5.92253 15.2625 5.52553 15.667 5.12103C15.764 5.02403 15.721 4.85453 15.5875 4.82203C15.2595 4.74153 14.907 4.72453 14.54 4.79353C13.464 4.99653 12.625 5.89703 12.513 6.98603C12.35 8.5745 13.6755 9.8995 15.264 9.7365C16.3535 9.6245 17.2535 8.7855 17.456 7.70953C17.525 7.34253 17.508 6.99003 17.4275 6.66253C17.3945 6.52953 17.2255 6.48603 17.1285 6.58303C16.7245 6.98753 16.3275 7.38453 16.229 7.48303Z" fill="white"/>
<path d="M13.043 7.79303C13.043 7.79303 7.9885 12.8475 7.793 13.043C7.4025 13.4335 7.4025 14.0665 7.793 14.457C8.1835 14.8475 8.8165 14.8475 9.207 14.457C9.4025 14.2615 14.457 9.207 14.457 9.207L13.043 7.79303Z" fill="white"/>
<path d="M12.536 12.7C12.536 12.7 14.0975 14.2615 14.293 14.457C14.6835 14.8475 15.3165 14.8475 15.707 14.457C16.0975 14.0665 16.0975 13.4335 15.707 13.043C15.5115 12.8475 13.95 11.286 13.95 11.286L12.536 12.7Z" fill="white"/>
<defs>
<linearGradient id="paint0_linear_40_4053" x1="6.343" y1="0.546" x2="17.79" y2="19.1705" gradientUnits="userSpaceOnUse">
<stop stop-color="#33BEF0"/>
<stop offset="1" stop-color="#0A85D9"/>
</linearGradient>
</defs>
</svg>
