<svg width="24" height="24" viewBox="0 0 24 24" fill="none" xmlns="http://www.w3.org/2000/svg">
<path d="M12 20.0952C12.789 20.0952 13.4286 19.4556 13.4286 18.6667C13.4286 17.8777 12.789 17.2381 12 17.2381C11.211 17.2381 10.5714 17.8777 10.5714 18.6667C10.5714 19.4556 11.211 20.0952 12 20.0952Z" fill="url(#paint0_linear_40_4095)"/>
<path d="M21.0476 3.90479H12V19.1429H21.0476C21.1727 19.1429 21.2966 19.1183 21.4121 19.0705C21.5277 19.0226 21.6327 18.9525 21.7211 18.864C21.8096 18.7755 21.8797 18.6706 21.9276 18.555C21.9754 18.4395 22 18.3155 22 18.1905V4.85717C22 4.73209 21.9754 4.60823 21.9276 4.49266C21.8797 4.3771 21.8096 4.2721 21.7211 4.18365C21.6327 4.09521 21.5277 4.02506 21.4121 3.97721C21.2966 3.92937 21.1727 3.90475 21.0476 3.90479Z" fill="url(#paint1_linear_40_4095)"/>
<path d="M12 3.90479H2.95238C2.8273 3.90475 2.70345 3.92937 2.58788 3.97721C2.47231 4.02506 2.36731 4.09521 2.27887 4.18365C2.19043 4.2721 2.12028 4.3771 2.07243 4.49266C2.02457 4.60823 1.99996 4.73209 2 4.85717V18.1905C1.99996 18.3155 2.02457 18.4395 2.07243 18.555C2.12028 18.6706 2.19043 18.7755 2.27887 18.864C2.36731 18.9525 2.47231 19.0226 2.58788 19.0705C2.70345 19.1183 2.8273 19.1429 2.95238 19.1429H12V3.90479Z" fill="url(#paint2_linear_40_4095)"/>
<path d="M20.3333 8.19048H15.5714C15.5083 8.19046 15.4477 8.16536 15.4031 8.12072C15.3585 8.07607 15.3333 8.01553 15.3333 7.95238V7.47619C15.3333 7.41305 15.3585 7.35251 15.4031 7.30786C15.4477 7.26321 15.5083 7.23812 15.5714 7.2381H20.3333C20.3965 7.23812 20.457 7.26321 20.5017 7.30786C20.5463 7.35251 20.5714 7.41305 20.5714 7.47619V7.95238C20.5714 8.01553 20.5463 8.07607 20.5017 8.12072C20.457 8.16536 20.3965 8.19046 20.3333 8.19048Z" fill="url(#paint3_linear_40_4095)"/>
<path d="M19.381 10.0953H15.5714C15.5083 10.0953 15.4477 10.0701 15.4031 10.0255C15.3585 9.98088 15.3333 9.92031 15.3333 9.85717V9.38098C15.3333 9.31784 15.3585 9.25729 15.4031 9.21265C15.4477 9.168 15.5083 9.1429 15.5714 9.14288H19.381C19.4441 9.1429 19.5047 9.168 19.5493 9.21265C19.5939 9.25729 19.6191 9.31784 19.6191 9.38098V9.85717C19.6191 9.92031 19.5939 9.98088 19.5493 10.0255C19.5047 10.0701 19.4441 10.0953 19.381 10.0953Z" fill="url(#paint4_linear_40_4095)"/>
<path d="M20.3333 12H15.5714C15.5083 12 15.4477 11.9749 15.4031 11.9303C15.3585 11.8857 15.3333 11.8251 15.3333 11.762V11.2858C15.3333 11.2226 15.3585 11.162 15.4031 11.1174C15.4477 11.0728 15.5083 11.0477 15.5714 11.0477H20.3333C20.3965 11.0477 20.457 11.0728 20.5017 11.1174C20.5463 11.162 20.5714 11.2226 20.5714 11.2858V11.762C20.5714 11.8251 20.5463 11.8857 20.5017 11.9303C20.457 11.9749 20.3965 12 20.3333 12Z" fill="url(#paint5_linear_40_4095)"/>
<path d="M20.3333 13.9048H15.5714C15.5083 13.9048 15.4477 13.8796 15.4031 13.8351C15.3585 13.7904 15.3333 13.7298 15.3333 13.6667V13.1905C15.3333 13.1273 15.3585 13.0668 15.4031 13.0221C15.4477 12.9775 15.5083 12.9524 15.5714 12.9524H20.3333C20.3965 12.9524 20.457 12.9775 20.5017 13.0221C20.5463 13.0668 20.5714 13.1273 20.5714 13.1905V13.6667C20.5714 13.7298 20.5463 13.7904 20.5017 13.8351C20.457 13.8796 20.3965 13.9048 20.3333 13.9048Z" fill="url(#paint6_linear_40_4095)"/>
<path d="M19.381 15.8096H15.5714C15.5083 15.8096 15.4477 15.7844 15.4031 15.7398C15.3585 15.6952 15.3333 15.6346 15.3333 15.5715V15.0953C15.3333 15.0321 15.3585 14.9716 15.4031 14.9269C15.4477 14.8823 15.5083 14.8572 15.5714 14.8572H19.381C19.4441 14.8572 19.5047 14.8823 19.5493 14.9269C19.5939 14.9716 19.6191 15.0321 19.6191 15.0953V15.5715C19.6191 15.6346 19.5939 15.6952 19.5493 15.7398C19.5047 15.7844 19.4441 15.8096 19.381 15.8096Z" fill="url(#paint7_linear_40_4095)"/>
<path d="M14.1429 7.2381H13.6667C13.5351 7.2381 13.4286 7.3447 13.4286 7.47619V7.95238C13.4286 8.08388 13.5351 8.19048 13.6667 8.19048H14.1429C14.2744 8.19048 14.381 8.08388 14.381 7.95238V7.47619C14.381 7.3447 14.2744 7.2381 14.1429 7.2381Z" fill="url(#paint8_linear_40_4095)"/>
<path d="M14.1429 9.14288H13.6667C13.5351 9.14288 13.4286 9.24948 13.4286 9.38098V9.85717C13.4286 9.98869 13.5351 10.0953 13.6667 10.0953H14.1429C14.2744 10.0953 14.381 9.98869 14.381 9.85717V9.38098C14.381 9.24948 14.2744 9.14288 14.1429 9.14288Z" fill="url(#paint9_linear_40_4095)"/>
<path d="M14.1429 11.0477H13.6667C13.5351 11.0477 13.4286 11.1542 13.4286 11.2858V11.762C13.4286 11.8935 13.5351 12 13.6667 12H14.1429C14.2744 12 14.381 11.8935 14.381 11.762V11.2858C14.381 11.1542 14.2744 11.0477 14.1429 11.0477Z" fill="url(#paint10_linear_40_4095)"/>
<path d="M14.1429 12.9524H13.6667C13.5351 12.9524 13.4286 13.059 13.4286 13.1905V13.6667C13.4286 13.7982 13.5351 13.9048 13.6667 13.9048H14.1429C14.2744 13.9048 14.381 13.7982 14.381 13.6667V13.1905C14.381 13.059 14.2744 12.9524 14.1429 12.9524Z" fill="url(#paint11_linear_40_4095)"/>
<path d="M14.1429 14.8572H13.6667C13.5351 14.8572 13.4286 14.9637 13.4286 15.0953V15.5715C13.4286 15.703 13.5351 15.8096 13.6667 15.8096H14.1429C14.2744 15.8096 14.381 15.703 14.381 15.5715V15.0953C14.381 14.9637 14.2744 14.8572 14.1429 14.8572Z" fill="url(#paint12_linear_40_4095)"/>
<path d="M9.25482 14.381C9.21434 14.381 9.17426 14.3731 9.13688 14.3576C9.09949 14.3421 9.06555 14.3193 9.037 14.2906L5.95565 11.2092C5.92704 11.1806 5.90435 11.1467 5.88887 11.1093C5.87339 11.072 5.86542 11.0319 5.86542 10.9914C5.86542 10.951 5.87339 10.9109 5.88887 10.8736C5.90435 10.8362 5.92704 10.8023 5.95565 10.7736C5.98425 10.745 6.01821 10.7224 6.05558 10.7068C6.09295 10.6914 6.13301 10.6834 6.17346 10.6834C6.21391 10.6834 6.25397 10.6914 6.29134 10.7068C6.32871 10.7224 6.36267 10.745 6.39127 10.7736L9.47264 13.855C9.51568 13.8981 9.545 13.953 9.55686 14.0127C9.56873 14.0725 9.56263 14.1345 9.53932 14.1907C9.51602 14.247 9.47655 14.2951 9.42592 14.329C9.37528 14.3628 9.31574 14.3809 9.25482 14.381Z" fill="#0176D0"/>
<path d="M4.30151 8.66772L6.69345 11.0856L5.80404 11.9749L4.1637 10.3346C4.06316 10.2341 3.9834 10.1147 3.92898 9.9834C3.87457 9.85207 3.84656 9.71121 3.84656 9.56907C3.84656 9.42689 3.87457 9.2861 3.92898 9.15475C3.9834 9.0234 4.06316 8.90405 4.1637 8.80352L4.30151 8.66772Z" fill="#0176D0"/>
<path d="M5.1674 14.381C5.10604 14.3811 5.04604 14.3629 4.995 14.3289C4.94396 14.2948 4.90416 14.2463 4.88067 14.1897C4.85716 14.133 4.85101 14.0706 4.86298 14.0104C4.87495 13.9502 4.90451 13.895 4.94791 13.8516L8.36103 10.4384C8.4192 10.3803 8.4981 10.3477 8.58036 10.3477C8.66262 10.3477 8.74152 10.3803 8.79969 10.4384C8.85786 10.4966 8.89054 10.5756 8.89054 10.6578C8.89054 10.74 8.85786 10.819 8.79969 10.8771L5.38691 14.2899C5.3287 14.3481 5.24976 14.3809 5.1674 14.381Z" fill="url(#paint13_linear_40_4095)"/>
<path d="M10.0236 11.1291C10.6652 10.4875 10.7569 9.53898 10.2283 9.01048C9.6998 8.48198 8.75126 8.57365 8.1097 9.21523C7.46814 9.85682 7.37649 10.8054 7.90501 11.3339C8.43353 11.8623 9.38207 11.7707 10.0236 11.1291Z" fill="url(#paint14_linear_40_4095)"/>
<defs>
<linearGradient id="paint0_linear_40_4095" x1="7.27857" y1="5.69429" x2="16.2324" y2="30.2943" gradientUnits="userSpaceOnUse">
<stop offset="0.002" stop-color="#427FDB"/>
<stop offset="0.397" stop-color="#2668CB"/>
<stop offset="0.763" stop-color="#1358BF"/>
<stop offset="1" stop-color="#0C52BB"/>
</linearGradient>
<linearGradient id="paint1_linear_40_4095" x1="14.0205" y1="3.72907" x2="23.2148" y2="28.991" gradientUnits="userSpaceOnUse">
<stop offset="0.002" stop-color="#427FDB"/>
<stop offset="0.397" stop-color="#2668CB"/>
<stop offset="0.763" stop-color="#1358BF"/>
<stop offset="1" stop-color="#0C52BB"/>
</linearGradient>
<linearGradient id="paint2_linear_40_4095" x1="5.38714" y1="6.70098" x2="12.8229" y2="27.1305" gradientUnits="userSpaceOnUse">
<stop stop-color="#33BEF0"/>
<stop offset="1" stop-color="#22A5E2"/>
</linearGradient>
<linearGradient id="paint3_linear_40_4095" x1="16.3391" y1="3.28191" x2="24.0957" y2="24.5929" gradientUnits="userSpaceOnUse">
<stop stop-color="#33BEF0"/>
<stop offset="1" stop-color="#22A5E2"/>
</linearGradient>
<linearGradient id="paint4_linear_40_4095" x1="15.1176" y1="3.13955" x2="22.6376" y2="23.7995" gradientUnits="userSpaceOnUse">
<stop stop-color="#33BEF0"/>
<stop offset="1" stop-color="#22A5E2"/>
</linearGradient>
<linearGradient id="paint5_linear_40_4095" x1="14.6129" y1="2.34862" x2="22.3695" y2="23.66" gradientUnits="userSpaceOnUse">
<stop stop-color="#33BEF0"/>
<stop offset="1" stop-color="#22A5E2"/>
</linearGradient>
<linearGradient id="paint6_linear_40_4095" x1="13.75" y1="1.88239" x2="21.5067" y2="23.1933" gradientUnits="userSpaceOnUse">
<stop stop-color="#33BEF0"/>
<stop offset="1" stop-color="#22A5E2"/>
</linearGradient>
<linearGradient id="paint7_linear_40_4095" x1="12.6076" y1="1.95765" x2="20.1276" y2="22.6177" gradientUnits="userSpaceOnUse">
<stop stop-color="#33BEF0"/>
<stop offset="1" stop-color="#22A5E2"/>
</linearGradient>
<linearGradient id="paint8_linear_40_4095" x1="12.9424" y1="5.07048" x2="18.9529" y2="21.5833" gradientUnits="userSpaceOnUse">
<stop stop-color="#33BEF0"/>
<stop offset="1" stop-color="#22A5E2"/>
</linearGradient>
<linearGradient id="paint9_linear_40_4095" x1="12.2738" y1="5.13812" x2="18.2838" y2="21.651" gradientUnits="userSpaceOnUse">
<stop stop-color="#33BEF0"/>
<stop offset="1" stop-color="#22A5E2"/>
</linearGradient>
<linearGradient id="paint10_linear_40_4095" x1="11.6052" y1="5.20529" x2="17.6152" y2="21.7181" gradientUnits="userSpaceOnUse">
<stop stop-color="#33BEF0"/>
<stop offset="1" stop-color="#22A5E2"/>
</linearGradient>
<linearGradient id="paint11_linear_40_4095" x1="10.9362" y1="5.27287" x2="16.9467" y2="21.7857" gradientUnits="userSpaceOnUse">
<stop stop-color="#33BEF0"/>
<stop offset="1" stop-color="#22A5E2"/>
</linearGradient>
<linearGradient id="paint12_linear_40_4095" x1="10.2676" y1="5.34051" x2="16.2776" y2="21.8529" gradientUnits="userSpaceOnUse">
<stop stop-color="#33BEF0"/>
<stop offset="1" stop-color="#22A5E2"/>
</linearGradient>
<linearGradient id="paint13_linear_40_4095" x1="6.12874" y1="10.4096" x2="8.12316" y2="14.2551" gradientUnits="userSpaceOnUse">
<stop stop-color="#7DD8F3"/>
<stop offset="1" stop-color="#45B0D0"/>
</linearGradient>
<linearGradient id="paint14_linear_40_4095" x1="7.70994" y1="9.67378" x2="10.5047" y2="10.7953" gradientUnits="userSpaceOnUse">
<stop stop-color="#7DD8F3"/>
<stop offset="1" stop-color="#45B0D0"/>
</linearGradient>
</defs>
</svg>
