<svg width="24" height="24" viewBox="0 0 24 24" fill="none" xmlns="http://www.w3.org/2000/svg">
<path d="M19.8947 3.05263V20.9474C19.8947 21.5289 19.4237 22 18.8421 22H5.15789C4.57632 22 4.10526 21.5289 4.10526 20.9474V3.05263C4.10526 2.47105 4.57632 2 5.15789 2H18.8421C19.4237 2 19.8947 2.47105 19.8947 3.05263Z" fill="url(#paint0_linear_40_4115)"/>
<path d="M8.31579 7.26316C8.89714 7.26316 9.36842 6.79188 9.36842 6.21053C9.36842 5.62918 8.89714 5.1579 8.31579 5.1579C7.73444 5.1579 7.26316 5.62918 7.26316 6.21053C7.26316 6.79188 7.73444 7.26316 8.31579 7.26316Z" fill="url(#paint1_linear_40_4115)"/>
<path d="M8.31579 7.78949C7.44368 7.78949 6.73684 8.49633 6.73684 9.36844V10.1053C6.73684 10.2795 6.87842 10.4211 7.05263 10.4211H9.57894C9.75315 10.4211 9.89473 10.2795 9.89473 10.1053V9.36844C9.89473 8.49633 9.18789 7.78949 8.31579 7.78949Z" fill="url(#paint2_linear_40_4115)"/>
<path d="M14.6316 14.1053H7.26316C6.97263 14.1053 6.73684 14.3411 6.73684 14.6316C6.73684 14.9221 6.97263 15.1579 7.26316 15.1579H14.6316C14.9221 15.1579 15.1579 14.9221 15.1579 14.6316C15.1579 14.3411 14.9221 14.1053 14.6316 14.1053Z" fill="url(#paint3_linear_40_4115)"/>
<path d="M16.7368 12H7.26316C6.97263 12 6.73684 12.2358 6.73684 12.5263C6.73684 12.8168 6.97263 13.0526 7.26316 13.0526H16.7368C17.0274 13.0526 17.2632 12.8168 17.2632 12.5263C17.2632 12.2358 17.0274 12 16.7368 12Z" fill="url(#paint4_linear_40_4115)"/>
<path d="M14.6316 18.3158H7.26316C6.97263 18.3158 6.73684 18.5516 6.73684 18.8421C6.73684 19.1326 6.97263 19.3684 7.26316 19.3684H14.6316C14.9221 19.3684 15.1579 19.1326 15.1579 18.8421C15.1579 18.5516 14.9221 18.3158 14.6316 18.3158Z" fill="url(#paint5_linear_40_4115)"/>
<path d="M16.7368 16.2105H7.26316C6.97263 16.2105 6.73684 16.4463 6.73684 16.7368C6.73684 17.0274 6.97263 17.2631 7.26316 17.2631H16.7368C17.0274 17.2631 17.2632 17.0274 17.2632 16.7368C17.2632 16.4463 17.0274 16.2105 16.7368 16.2105Z" fill="url(#paint6_linear_40_4115)"/>
<path d="M16.7368 7.78949H12.5263C12.2358 7.78949 12 8.02528 12 8.31581C12 8.60633 12.2358 8.84212 12.5263 8.84212H16.7368C17.0274 8.84212 17.2632 8.60633 17.2632 8.31581C17.2632 8.02528 17.0274 7.78949 16.7368 7.78949Z" fill="url(#paint7_linear_40_4115)"/>
<path d="M16.7368 5.6842H12.5263C12.2358 5.6842 12 5.91999 12 6.21052C12 6.50105 12.2358 6.73684 12.5263 6.73684H16.7368C17.0274 6.73684 17.2632 6.50105 17.2632 6.21052C17.2632 5.91999 17.0274 5.6842 16.7368 5.6842Z" fill="url(#paint8_linear_40_4115)"/>
<defs>
<linearGradient id="paint0_linear_40_4115" x1="9.08346" y1="2.30706" x2="20.1877" y2="19.2096" gradientUnits="userSpaceOnUse">
<stop stop-color="#7DD8F3"/>
<stop offset="1" stop-color="#45B0D0"/>
</linearGradient>
<linearGradient id="paint1_linear_40_4115" x1="7.994" y1="5.24996" x2="8.33881" y2="7.49123" gradientUnits="userSpaceOnUse">
<stop stop-color="#0D61A9"/>
<stop offset="1" stop-color="#16528C"/>
</linearGradient>
<linearGradient id="paint2_linear_40_4115" x1="7.8331" y1="7.90457" x2="8.19484" y2="10.7261" gradientUnits="userSpaceOnUse">
<stop stop-color="#0D61A9"/>
<stop offset="1" stop-color="#16528C"/>
</linearGradient>
<linearGradient id="paint3_linear_40_4115" x1="9.66021" y1="14.1513" x2="9.68226" y2="15.298" gradientUnits="userSpaceOnUse">
<stop stop-color="#0D61A9"/>
<stop offset="1" stop-color="#16528C"/>
</linearGradient>
<linearGradient id="paint4_linear_40_4115" x1="10.391" y1="12.046" x2="10.4087" y2="13.1929" gradientUnits="userSpaceOnUse">
<stop stop-color="#0D61A9"/>
<stop offset="1" stop-color="#16528C"/>
</linearGradient>
<linearGradient id="paint5_linear_40_4115" x1="9.66021" y1="18.3618" x2="9.68226" y2="19.5085" gradientUnits="userSpaceOnUse">
<stop stop-color="#0D61A9"/>
<stop offset="1" stop-color="#16528C"/>
</linearGradient>
<linearGradient id="paint6_linear_40_4115" x1="10.391" y1="16.2565" x2="10.4087" y2="17.4035" gradientUnits="userSpaceOnUse">
<stop stop-color="#0D61A9"/>
<stop offset="1" stop-color="#16528C"/>
</linearGradient>
<linearGradient id="paint7_linear_40_4115" x1="13.8271" y1="7.83552" x2="13.8624" y2="8.9816" gradientUnits="userSpaceOnUse">
<stop stop-color="#0D61A9"/>
<stop offset="1" stop-color="#16528C"/>
</linearGradient>
<linearGradient id="paint8_linear_40_4115" x1="13.8271" y1="5.73024" x2="13.8624" y2="6.87631" gradientUnits="userSpaceOnUse">
<stop stop-color="#0D61A9"/>
<stop offset="1" stop-color="#16528C"/>
</linearGradient>
</defs>
</svg>
