<svg width="24" height="24" viewBox="0 0 24 24" fill="none" xmlns="http://www.w3.org/2000/svg">
<path d="M2 19V7.5H22V19C22 19.55 21.55 20 21 20H3C2.45 20 2 19.55 2 19Z" fill="url(#paint0_linear_40_4132)"/>
<path d="M22 5V7.5H2V5C2 4.45 2.45 4 3 4H21C21.55 4 22 4.45 22 5Z" fill="url(#paint1_linear_40_4132)"/>
<path d="M8.25 6.5H20.75C20.888 6.5 21 6.388 21 6.25V5.25C21 5.112 20.888 5 20.75 5H8.25C8.112 5 8 5.112 8 5.25V6.25C8 6.388 8.112 6.5 8.25 6.5Z" fill="url(#paint2_linear_40_4132)"/>
<path d="M3.75 6.5C4.16421 6.5 4.5 6.16421 4.5 5.75C4.5 5.33579 4.16421 5 3.75 5C3.33579 5 3 5.33579 3 5.75C3 6.16421 3.33579 6.5 3.75 6.5Z" fill="url(#paint3_linear_40_4132)"/>
<path d="M6.25 6.5C6.66421 6.5 7 6.16421 7 5.75C7 5.33579 6.66421 5 6.25 5C5.83579 5 5.5 5.33579 5.5 5.75C5.5 6.16421 5.83579 6.5 6.25 6.5Z" fill="url(#paint4_linear_40_4132)"/>
<path d="M7.5 13C8.05228 13 8.5 12.5523 8.5 12C8.5 11.4477 8.05228 11 7.5 11C6.94772 11 6.5 11.4477 6.5 12C6.5 12.5523 6.94772 13 7.5 13Z" fill="url(#paint5_linear_40_4132)"/>
<path d="M7.5 13.5C6.6715 13.5 6 14.1715 6 15V16.2C6 16.3655 6.1345 16.5 6.3 16.5H8.7C8.8655 16.5 9 16.3655 9 16.2V15C9 14.1715 8.3285 13.5 7.5 13.5Z" fill="url(#paint6_linear_40_4132)"/>
<path d="M17.5 13.5H11.5C11.224 13.5 11 13.724 11 14C11 14.276 11.224 14.5 11.5 14.5H17.5C17.776 14.5 18 14.276 18 14C18 13.724 17.776 13.5 17.5 13.5Z" fill="url(#paint7_linear_40_4132)"/>
<path d="M15.5 15.5H11.5C11.224 15.5 11 15.724 11 16C11 16.276 11.224 16.5 11.5 16.5H15.5C15.776 16.5 16 16.276 16 16C16 15.724 15.776 15.5 15.5 15.5Z" fill="url(#paint8_linear_40_4132)"/>
<path d="M17.5 11.5H11.5C11.224 11.5 11 11.724 11 12C11 12.276 11.224 12.5 11.5 12.5H17.5C17.776 12.5 18 12.276 18 12C18 11.724 17.776 11.5 17.5 11.5Z" fill="url(#paint9_linear_40_4132)"/>
<defs>
<linearGradient id="paint0_linear_40_4132" x1="6.43083" y1="5.63784" x2="12.9943" y2="21.054" gradientUnits="userSpaceOnUse">
<stop stop-color="#FCFCFC"/>
<stop offset="0.95" stop-color="#C3C9CD"/>
</linearGradient>
<linearGradient id="paint1_linear_40_4132" x1="2.307" y1="3.8705" x2="21.468" y2="7.7665" gradientUnits="userSpaceOnUse">
<stop stop-color="#0077D2"/>
<stop offset="1" stop-color="#0B59A2"/>
</linearGradient>
<linearGradient id="paint2_linear_40_4132" x1="8" y1="5.75" x2="21" y2="5.75" gradientUnits="userSpaceOnUse">
<stop stop-color="#7DD8F3"/>
<stop offset="1" stop-color="#45B0D0"/>
</linearGradient>
<linearGradient id="paint3_linear_40_4132" x1="3.3755" y1="5.208" x2="4.016" y2="6.1345" gradientUnits="userSpaceOnUse">
<stop stop-color="#75DAFF"/>
<stop offset="1" stop-color="#49BEF1"/>
</linearGradient>
<linearGradient id="paint4_linear_40_4132" x1="5.8755" y1="5.208" x2="6.516" y2="6.1345" gradientUnits="userSpaceOnUse">
<stop stop-color="#75DAFF"/>
<stop offset="1" stop-color="#49BEF1"/>
</linearGradient>
<linearGradient id="paint5_linear_40_4132" x1="7.1943" y1="11.0875" x2="7.52187" y2="13.2167" gradientUnits="userSpaceOnUse">
<stop stop-color="#0D61A9"/>
<stop offset="1" stop-color="#16528C"/>
</linearGradient>
<linearGradient id="paint6_linear_40_4132" x1="7.04145" y1="13.6312" x2="7.5328" y2="16.825" gradientUnits="userSpaceOnUse">
<stop stop-color="#0D61A9"/>
<stop offset="1" stop-color="#16528C"/>
</linearGradient>
<linearGradient id="paint7_linear_40_4132" x1="13.43" y1="13.5437" x2="13.454" y2="14.633" gradientUnits="userSpaceOnUse">
<stop stop-color="#0D61A9"/>
<stop offset="1" stop-color="#16528C"/>
</linearGradient>
<linearGradient id="paint8_linear_40_4132" x1="12.7357" y1="15.5437" x2="12.7693" y2="16.6325" gradientUnits="userSpaceOnUse">
<stop stop-color="#0D61A9"/>
<stop offset="1" stop-color="#16528C"/>
</linearGradient>
<linearGradient id="paint9_linear_40_4132" x1="13.43" y1="11.5437" x2="13.454" y2="12.633" gradientUnits="userSpaceOnUse">
<stop stop-color="#0D61A9"/>
<stop offset="1" stop-color="#16528C"/>
</linearGradient>
</defs>
</svg>
