<svg width="24" height="24" viewBox="0 0 24 24" fill="none" xmlns="http://www.w3.org/2000/svg">
<path d="M5.27975 20.949C4.66404 21.5647 2 21.9997 2 21.9997C2 21.9997 2.43499 19.3357 3.0507 18.72C3.6664 18.1043 4.66404 18.1043 5.27975 18.72C5.89546 19.3357 5.89546 20.3338 5.27975 20.949Z" fill="url(#paint0_linear_40_4161)"/>
<path d="M4.7544 20.3601C4.44707 20.668 3.11479 20.8855 3.11479 20.8855C3.11479 20.8855 3.33228 19.5532 3.64014 19.2458C3.94799 18.938 4.44707 18.938 4.7544 19.2458C5.06226 19.5532 5.06226 20.0523 4.7544 20.3601Z" fill="url(#paint1_linear_40_4161)"/>
<path d="M5.7762 19.6809L4.31941 18.2241C4.13449 18.0392 4.114 17.7465 4.27056 17.5375L5.57342 15.8007L8.20016 18.4274L6.46336 19.7303C6.25375 19.8868 5.96113 19.8658 5.7762 19.6809Z" fill="url(#paint2_linear_40_4161)"/>
<path d="M21.3691 2.00181C20.2385 2.08219 17.9354 2.38742 16.7738 3.54896L16.3389 3.98395L20.0163 7.66139L20.4513 7.2264C21.6128 6.06485 21.9181 3.76173 21.9984 2.63118C22.0242 2.27131 21.7289 1.97607 21.3691 2.00181Z" fill="url(#paint3_linear_40_4161)"/>
<path d="M16.7738 3.54858L5.21629 15.1065L8.89361 18.7837L20.4512 7.22577L16.7738 3.54858Z" fill="url(#paint4_linear_40_4161)"/>
<path d="M5.21618 15.1066L4.99869 15.3241C4.58839 15.7344 4.58839 16.3995 4.99869 16.8098L7.19044 19.0016C7.60074 19.4119 8.26583 19.4119 8.67613 19.0016L8.89362 18.7841L5.21618 15.1066Z" fill="url(#paint5_linear_40_4161)"/>
<path d="M15.4605 10.3785C16.476 10.3785 17.2992 9.55527 17.2992 8.53977C17.2992 7.52427 16.476 6.70105 15.4605 6.70105C14.445 6.70105 13.6218 7.52427 13.6218 8.53977C13.6218 9.55527 14.445 10.3785 15.4605 10.3785Z" fill="url(#paint6_linear_40_4161)"/>
<path d="M15.4605 9.85312C16.1859 9.85312 16.7738 9.26511 16.7738 8.53975C16.7738 7.81439 16.1859 7.22638 15.4605 7.22638C14.7351 7.22638 14.1471 7.81439 14.1471 8.53975C14.1471 9.26511 14.7351 9.85312 15.4605 9.85312Z" fill="#0078D4"/>
<path d="M11.783 14.0559C12.7985 14.0559 13.6218 13.2327 13.6218 12.2172C13.6218 11.2017 12.7985 10.3785 11.783 10.3785C10.7675 10.3785 9.94432 11.2017 9.94432 12.2172C9.94432 13.2327 10.7675 14.0559 11.783 14.0559Z" fill="url(#paint7_linear_40_4161)"/>
<path d="M11.783 13.5306C12.5084 13.5306 13.0964 12.9426 13.0964 12.2172C13.0964 11.4918 12.5084 10.9039 11.783 10.9039C11.0576 10.9039 10.4697 11.4918 10.4697 12.2172C10.4697 12.9426 11.0576 13.5306 11.783 13.5306Z" fill="#0078D4"/>
<path d="M12.0457 15.632V19.1817C12.0457 19.5999 11.8797 20.0008 11.5839 20.296L9.94432 21.9361L8.89362 18.784L12.0457 15.632Z" fill="url(#paint8_linear_40_4161)"/>
<path d="M8.36827 11.9545H4.81849C4.40032 11.9545 3.99948 12.1205 3.70423 12.4163L2.06409 14.0559L5.21618 15.1066L8.36827 11.9545Z" fill="url(#paint9_linear_40_4161)"/>
<defs>
<linearGradient id="paint0_linear_40_4161" x1="4.41663" y1="18.3949" x2="3.57405" y2="22.3578" gradientUnits="userSpaceOnUse">
<stop stop-color="#F44F5A"/>
<stop offset="0.443" stop-color="#EE3D4A"/>
<stop offset="1" stop-color="#E52030"/>
</linearGradient>
<linearGradient id="paint1_linear_40_4161" x1="3.13738" y1="20.8629" x2="4.58576" y2="19.4145" gradientUnits="userSpaceOnUse">
<stop stop-color="#FFCF7B"/>
<stop offset="0.195" stop-color="#FECD76"/>
<stop offset="0.439" stop-color="#FAC666"/>
<stop offset="0.71" stop-color="#F3BC4D"/>
<stop offset="0.997" stop-color="#EAAD29"/>
<stop offset="1" stop-color="#EAAD29"/>
</linearGradient>
<linearGradient id="paint2_linear_40_4161" x1="5.05943" y1="15.1997" x2="7.79409" y2="19.2143" gradientUnits="userSpaceOnUse">
<stop stop-color="#FCFCFC"/>
<stop offset="0.95" stop-color="#C3C9CD"/>
</linearGradient>
<linearGradient id="paint3_linear_40_4161" x1="18.1238" y1="2.08716" x2="20.9232" y2="7.48454" gradientUnits="userSpaceOnUse">
<stop stop-color="#7DD8F3"/>
<stop offset="1" stop-color="#45B0D0"/>
</linearGradient>
<linearGradient id="paint4_linear_40_4161" x1="9.59914" y1="11.0441" x2="13.8744" y2="14.8516" gradientUnits="userSpaceOnUse">
<stop stop-color="#32BDEF"/>
<stop offset="1" stop-color="#1EA2E4"/>
</linearGradient>
<linearGradient id="paint5_linear_40_4161" x1="6.016" y1="15.1711" x2="8.09417" y2="19.178" gradientUnits="userSpaceOnUse">
<stop stop-color="#7DD8F3"/>
<stop offset="1" stop-color="#45B0D0"/>
</linearGradient>
<linearGradient id="paint6_linear_40_4161" x1="14.7812" y1="6.75751" x2="16.5996" y2="10.2636" gradientUnits="userSpaceOnUse">
<stop stop-color="#7DD8F3"/>
<stop offset="1" stop-color="#45B0D0"/>
</linearGradient>
<linearGradient id="paint7_linear_40_4161" x1="11.1038" y1="10.4349" x2="12.9222" y2="13.9411" gradientUnits="userSpaceOnUse">
<stop stop-color="#7DD8F3"/>
<stop offset="1" stop-color="#45B0D0"/>
</linearGradient>
<linearGradient id="paint8_linear_40_4161" x1="9.59193" y1="14.6928" x2="13.9729" y2="17.9084" gradientUnits="userSpaceOnUse">
<stop stop-color="#FCFCFC"/>
<stop offset="0.95" stop-color="#C3C9CD"/>
</linearGradient>
<linearGradient id="paint9_linear_40_4161" x1="3.46073" y1="11.485" x2="4.86223" y2="15.5997" gradientUnits="userSpaceOnUse">
<stop stop-color="#FCFCFC"/>
<stop offset="0.95" stop-color="#C3C9CD"/>
</linearGradient>
</defs>
</svg>
