<svg width="24" height="24" viewBox="0 0 24 24" fill="none" xmlns="http://www.w3.org/2000/svg">
<path d="M2.75365 11.7803C3.02228 11.7803 4.43162 11.7803 4.70025 11.7803C4.96888 11.7803 5.1869 11.9984 5.1869 12.267C5.1869 16.0298 8.23722 19.0801 12 19.0801C15.7628 19.0801 18.8131 16.0298 18.8131 12.267H21.733C21.733 17.6425 17.3755 22 12 22C6.62446 22 2.267 17.6425 2.267 12.267C2.267 11.9984 2.48502 11.7803 2.75365 11.7803Z" fill="url(#paint0_radial_40_4175)"/>
<path d="M7.19189 2.2342L9.7614 7.28903C9.93416 7.6292 9.60957 8.0083 9.24701 7.89005L5.6059 6.70311C5.28665 6.59897 5.11243 6.25588 5.21658 5.93663L6.40352 2.29552C6.52128 1.93296 7.01913 1.89403 7.19189 2.2342Z" fill="url(#paint1_linear_40_4175)"/>
<path d="M18.8131 12.267C18.8131 8.50422 15.7628 5.4539 12 5.4539C10.9045 5.4539 9.87285 5.71863 8.95551 6.17852L7.6508 3.5691C8.96086 2.91261 10.4349 2.534 12 2.534C17.3755 2.534 21.733 6.89146 21.733 12.267C21.733 17.6425 17.3755 22 12 22C14.3461 21.636 18.8131 19.5132 18.8131 12.267Z" fill="url(#paint2_linear_40_4175)"/>
<defs>
<radialGradient id="paint0_radial_40_4175" cx="0" cy="0" r="1" gradientUnits="userSpaceOnUse" gradientTransform="translate(9.91568 12.814) rotate(180) scale(10.6012)">
<stop offset="0.266" stop-color="#0071D4"/>
<stop offset="0.535" stop-color="#006FD2"/>
<stop offset="0.673" stop-color="#0068CA"/>
<stop offset="0.782" stop-color="#005DBD"/>
<stop offset="0.876" stop-color="#004DAA"/>
<stop offset="0.959" stop-color="#003891"/>
<stop offset="1" stop-color="#002B82"/>
</radialGradient>
<linearGradient id="paint1_linear_40_4175" x1="10.2719" y1="0.862334" x2="0.256637" y2="19.6913" gradientUnits="userSpaceOnUse">
<stop stop-color="#32BDEF"/>
<stop offset="1" stop-color="#1EA2E4"/>
</linearGradient>
<linearGradient id="paint2_linear_40_4175" x1="17.1692" y1="4.4767" x2="7.73061" y2="22.2209" gradientUnits="userSpaceOnUse">
<stop stop-color="#32BDEF"/>
<stop offset="1" stop-color="#1EA2E4"/>
</linearGradient>
</defs>
</svg>
