<svg width="24" height="24" viewBox="0 0 24 24" fill="none" xmlns="http://www.w3.org/2000/svg">
<path d="M3.57895 21.4737C3.00001 21.4737 2.52632 21 2.52632 20.4211V16.2105C2.52632 15.6316 3.00001 15.1579 3.57895 15.1579H7.78948C8.36843 15.1579 8.84211 15.6316 8.84211 16.2105V20.4211C8.84211 21 8.36843 21.4737 7.78948 21.4737H3.57895Z" fill="url(#paint0_linear_40_4197)"/>
<path d="M9.89473 21.4737C9.31579 21.4737 8.8421 21 8.8421 20.4211V16.2105C8.8421 15.6316 9.31579 15.1579 9.89473 15.1579H14.1053C14.6842 15.1579 15.1579 15.6316 15.1579 16.2105V20.4211C15.1579 21 14.6842 21.4737 14.1053 21.4737H9.89473Z" fill="url(#paint1_linear_40_4197)"/>
<path d="M16.2105 21.4737C15.6316 21.4737 15.1579 21 15.1579 20.4211V16.2105C15.1579 15.6316 15.6316 15.1579 16.2105 15.1579H20.4211C21 15.1579 21.4737 15.6316 21.4737 16.2105V20.4211C21.4737 21 21 21.4737 20.4211 21.4737H16.2105Z" fill="url(#paint2_linear_40_4197)"/>
<path d="M3.57895 15.1579C3.00001 15.1579 2.52632 14.6842 2.52632 14.1053V9.89473C2.52632 9.31579 3.00001 8.8421 3.57895 8.8421H7.78948C8.36843 8.8421 8.84211 9.31579 8.84211 9.89473V14.1053C8.84211 14.6842 8.36843 15.1579 7.78948 15.1579H3.57895Z" fill="url(#paint3_linear_40_4197)"/>
<path d="M9.89473 15.1579C9.31579 15.1579 8.8421 14.6842 8.8421 14.1053V9.89473C8.8421 9.31579 9.31579 8.8421 9.89473 8.8421H14.1053C14.6842 8.8421 15.1579 9.31579 15.1579 9.89473V14.1053C15.1579 14.6842 14.6842 15.1579 14.1053 15.1579H9.89473Z" fill="url(#paint4_linear_40_4197)"/>
<path d="M16.2105 15.1579C15.6316 15.1579 15.1579 14.6842 15.1579 14.1053V9.89473C15.1579 9.31579 15.6316 8.8421 16.2105 8.8421H20.4211C21 8.8421 21.4737 9.31579 21.4737 9.89473V14.1053C21.4737 14.6842 21 15.1579 20.4211 15.1579H16.2105Z" fill="url(#paint5_linear_40_4197)"/>
<path d="M3.57895 8.8421C3.00001 8.8421 2.52632 8.36841 2.52632 7.78946V3.57894C2.52632 2.99999 3.00001 2.52631 3.57895 2.52631H7.78948C8.36843 2.52631 8.84211 2.99999 8.84211 3.57894V7.78946C8.84211 8.36841 8.36843 8.8421 7.78948 8.8421H3.57895Z" fill="url(#paint6_linear_40_4197)"/>
<path d="M9.89473 8.8421C9.31579 8.8421 8.8421 8.36841 8.8421 7.78946V3.57894C8.8421 2.99999 9.31579 2.52631 9.89473 2.52631H14.1053C14.6842 2.52631 15.1579 2.99999 15.1579 3.57894V7.78946C15.1579 8.36841 14.6842 8.8421 14.1053 8.8421H9.89473Z" fill="url(#paint7_linear_40_4197)"/>
<path d="M16.2105 8.8421C15.6316 8.8421 15.1579 8.36841 15.1579 7.78946V3.57894C15.1579 2.99999 15.6316 2.52631 16.2105 2.52631H20.4211C21 2.52631 21.4737 2.99999 21.4737 3.57894V7.78946C21.4737 8.36841 21 8.8421 20.4211 8.8421H16.2105Z" fill="url(#paint8_linear_40_4197)"/>
<path d="M22 3.57895C22 2.68421 21.3158 2 20.4211 2H16.2105C15.7979 2 15.4347 2.15 15.1579 2.39474C14.8811 2.15 14.5179 2 14.1053 2H9.89474C9.48211 2 9.11895 2.15 8.84211 2.39474C8.56526 2.15 8.20211 2 7.78947 2H3.57895C2.68421 2 2 2.68421 2 3.57895V7.78947C2 8.20211 2.15 8.56526 2.39474 8.84211C2.15 9.11895 2 9.48211 2 9.89474V14.1053C2 14.5179 2.15 14.8811 2.39474 15.1579C2.15 15.4347 2 15.7979 2 16.2105V20.4211C2 21.3158 2.68421 22 3.57895 22H7.78947C8.20211 22 8.56526 21.85 8.84211 21.6053C9.11895 21.8495 9.48211 22 9.89474 22H14.1053C14.5179 22 14.8811 21.85 15.1579 21.6053C15.4347 21.8495 15.7979 22 16.2105 22H20.4211C21.3158 22 22 21.3158 22 20.4211V16.2105C22 15.7979 21.85 15.4347 21.6053 15.1579C21.8495 14.8811 22 14.5179 22 14.1053V9.89474C22 9.48211 21.85 9.11895 21.6053 8.84211C21.8495 8.56526 22 8.20211 22 7.78947V3.57895ZM16.2105 3.05263H20.4211C20.7368 3.05263 20.9474 3.26316 20.9474 3.57895V7.78947C20.9474 8.10526 20.7368 8.31579 20.4211 8.31579H16.2105C15.8947 8.31579 15.6842 8.10526 15.6842 7.78947V3.57895C15.6842 3.26316 15.8947 3.05263 16.2105 3.05263ZM20.9474 9.89474V14.1053C20.9474 14.4211 20.7368 14.6316 20.4211 14.6316H16.2105C15.8947 14.6316 15.6842 14.4211 15.6842 14.1053V9.89474C15.6842 9.57895 15.8947 9.36842 16.2105 9.36842H20.4211C20.7368 9.36842 20.9474 9.57895 20.9474 9.89474ZM3.05263 14.1053V9.89474C3.05263 9.57895 3.26316 9.36842 3.57895 9.36842H7.78947C8.10526 9.36842 8.31579 9.57895 8.31579 9.89474V14.1053C8.31579 14.4211 8.10526 14.6316 7.78947 14.6316H3.57895C3.26316 14.6316 3.05263 14.4211 3.05263 14.1053ZM9.36842 14.1053V9.89474C9.36842 9.57895 9.57895 9.36842 9.89474 9.36842H14.1053C14.4211 9.36842 14.6316 9.57895 14.6316 9.89474V14.1053C14.6316 14.4211 14.4211 14.6316 14.1053 14.6316H9.89474C9.57895 14.6316 9.36842 14.4211 9.36842 14.1053ZM9.89474 3.05263H14.1053C14.4211 3.05263 14.6316 3.26316 14.6316 3.57895V7.78947C14.6316 8.10526 14.4211 8.31579 14.1053 8.31579H9.89474C9.57895 8.31579 9.36842 8.10526 9.36842 7.78947V3.57895C9.36842 3.26316 9.57895 3.05263 9.89474 3.05263ZM3.05263 3.57895C3.05263 3.26316 3.26316 3.05263 3.57895 3.05263H7.78947C8.10526 3.05263 8.31579 3.26316 8.31579 3.57895V7.78947C8.31579 8.10526 8.10526 8.31579 7.78947 8.31579H3.57895C3.26316 8.31579 3.05263 8.10526 3.05263 7.78947V3.57895ZM7.78947 20.9474H3.57895C3.26316 20.9474 3.05263 20.7368 3.05263 20.4211V16.2105C3.05263 15.8947 3.26316 15.6842 3.57895 15.6842H7.78947C8.10526 15.6842 8.31579 15.8947 8.31579 16.2105V20.4211C8.31579 20.7368 8.10526 20.9474 7.78947 20.9474ZM14.1053 20.9474H9.89474C9.57895 20.9474 9.36842 20.7368 9.36842 20.4211V16.2105C9.36842 15.8947 9.57895 15.6842 9.89474 15.6842H14.1053C14.4211 15.6842 14.6316 15.8947 14.6316 16.2105V20.4211C14.6316 20.7368 14.4211 20.9474 14.1053 20.9474ZM20.9474 20.4211C20.9474 20.7368 20.7368 20.9474 20.4211 20.9474H16.2105C15.8947 20.9474 15.6842 20.7368 15.6842 20.4211V16.2105C15.6842 15.8947 15.8947 15.6842 16.2105 15.6842H20.4211C20.7368 15.6842 20.9474 15.8947 20.9474 16.2105V20.4211Z" fill="url(#paint9_linear_40_4197)"/>
<defs>
<linearGradient id="paint0_linear_40_4197" x1="4.94632" y1="14.8437" x2="6.42211" y2="21.7879" gradientUnits="userSpaceOnUse">
<stop stop-color="#FFDA1C"/>
<stop offset="1" stop-color="#FEB705"/>
</linearGradient>
<linearGradient id="paint1_linear_40_4197" x1="11.2621" y1="14.8437" x2="12.7379" y2="21.7879" gradientUnits="userSpaceOnUse">
<stop stop-color="#2AA4F4"/>
<stop offset="1" stop-color="#007AD9"/>
</linearGradient>
<linearGradient id="paint2_linear_40_4197" x1="17.5779" y1="14.8437" x2="19.0537" y2="21.7879" gradientUnits="userSpaceOnUse">
<stop stop-color="#21AD64"/>
<stop offset="1" stop-color="#088242"/>
</linearGradient>
<linearGradient id="paint3_linear_40_4197" x1="4.94632" y1="8.52789" x2="6.42211" y2="15.4721" gradientUnits="userSpaceOnUse">
<stop stop-color="#21AD64"/>
<stop offset="1" stop-color="#088242"/>
</linearGradient>
<linearGradient id="paint4_linear_40_4197" x1="11.2621" y1="8.52789" x2="12.7379" y2="15.4721" gradientUnits="userSpaceOnUse">
<stop stop-color="#F45560"/>
<stop offset="1" stop-color="#CF1928"/>
</linearGradient>
<linearGradient id="paint5_linear_40_4197" x1="17.5779" y1="8.52789" x2="19.0537" y2="15.4721" gradientUnits="userSpaceOnUse">
<stop stop-color="#F9F9F9"/>
<stop offset="0.168" stop-color="#F1F2F3"/>
<stop offset="0.376" stop-color="#E5E7E9"/>
<stop offset="0.607" stop-color="#DDE0E2"/>
<stop offset="1" stop-color="#C2C8CC"/>
</linearGradient>
<linearGradient id="paint6_linear_40_4197" x1="4.94632" y1="2.2121" x2="6.42211" y2="9.15631" gradientUnits="userSpaceOnUse">
<stop stop-color="#2AA4F4"/>
<stop offset="1" stop-color="#007AD9"/>
</linearGradient>
<linearGradient id="paint7_linear_40_4197" x1="11.2621" y1="2.2121" x2="12.7379" y2="9.15631" gradientUnits="userSpaceOnUse">
<stop stop-color="#F9F9F9"/>
<stop offset="0.168" stop-color="#F1F2F3"/>
<stop offset="0.376" stop-color="#E5E7E9"/>
<stop offset="0.607" stop-color="#DDE0E2"/>
<stop offset="1" stop-color="#C2C8CC"/>
</linearGradient>
<linearGradient id="paint8_linear_40_4197" x1="17.5779" y1="2.2121" x2="19.0537" y2="9.15631" gradientUnits="userSpaceOnUse">
<stop stop-color="#FFDA1C"/>
<stop offset="1" stop-color="#FEB705"/>
</linearGradient>
<linearGradient id="paint9_linear_40_4197" x1="2" y1="12" x2="22" y2="12" gradientUnits="userSpaceOnUse">
<stop stop-color="#41474A"/>
<stop offset="1" stop-color="#323538"/>
</linearGradient>
</defs>
</svg>
