<svg width="24" height="24" viewBox="0 0 24 24" fill="none" xmlns="http://www.w3.org/2000/svg">
<path d="M17.0906 3.00562H2.99938C2.44972 3.00562 2 3.45533 2 4.00499V19.995C2 20.5447 2.44972 20.9944 2.99938 20.9944H18.9894C19.539 20.9944 19.9888 20.5447 19.9888 19.995V5.9038C19.9888 5.65396 19.8888 5.40412 19.6889 5.20424L17.7901 3.30543C17.5903 3.10555 17.3404 3.00562 17.0906 3.00562Z" fill="url(#paint0_linear_40_4228)"/>
<path d="M18.99 18.9956H17.99V19.9956H18.99V18.9956Z" fill="url(#paint1_linear_40_4228)"/>
<path d="M3.99937 18.9956H2.99937V19.9956H3.99937V18.9956Z" fill="url(#paint2_linear_40_4228)"/>
<path d="M15.9913 20.9944H5.9975C5.44784 20.9944 4.99812 20.5447 4.99812 19.995V13.9988C4.99812 13.4491 5.44784 12.9994 5.9975 12.9994H15.9913C16.5409 12.9994 16.9906 13.4491 16.9906 13.9988V19.995C16.9906 20.5447 16.5409 20.9944 15.9913 20.9944Z" fill="url(#paint3_linear_40_4228)"/>
<path opacity="0.05" d="M19.9888 7.80261L12.0437 15.7477L11.4441 18.1961C11.3941 18.396 11.594 18.5959 11.7939 18.5459L14.2424 17.9463L19.9888 12.1999V7.80261Z" fill="black"/>
<path opacity="0.07" d="M19.9888 8.1524L12.4435 15.6977L12.1936 16.1974L11.7439 17.8963C11.6939 18.0962 11.8938 18.2461 12.0437 18.1961L13.7427 17.7464L14.2423 17.4965L19.9888 11.8501V8.1524Z" fill="black"/>
<path d="M21.8876 9.05183L20.9382 8.10242C20.7883 7.95251 20.5384 7.95251 20.3885 8.10242L19.9388 8.55214L21.4379 10.0512L21.8876 9.60148C22.0375 9.45158 22.0375 9.20173 21.8876 9.05183Z" fill="#C94F60"/>
<path d="M12.4934 15.9975L11.9938 17.9963L13.9925 17.4966L14.1924 15.7477L12.4934 15.9975Z" fill="#F0F0F0"/>
<path d="M20.1387 11.3004L13.9925 17.4966L12.4934 15.9975L18.6396 9.85132L20.1387 11.3004Z" fill="#EDBE00"/>
<path d="M18.6396 9.85133L19.8888 8.60211L21.3879 10.1012L20.1387 11.3504L18.6396 9.85133Z" fill="url(#paint4_linear_40_4228)"/>
<path d="M12.2438 16.9969L11.9938 17.9969L12.9938 17.7469L12.2438 16.9969Z" fill="#787878"/>
<path d="M15.4916 9.50156H5.49781C4.94815 9.50156 4.49844 9.05184 4.49844 8.50218V3.00562H16.4909V8.50218C16.4909 9.05184 16.0412 9.50156 15.4916 9.50156Z" fill="#1FA4E6"/>
<path opacity="0.07" d="M15.4916 9.25171H7.49656C6.797 9.25171 6.24734 8.70206 6.24734 8.00249V3.00562H16.7408V8.00249C16.7408 8.70206 16.1911 9.25171 15.4916 9.25171Z" fill="black"/>
<path d="M6.49719 3.00562V8.00249C6.49719 8.55215 6.94691 9.00187 7.49657 9.00187H15.4916C16.0412 9.00187 16.4909 8.55215 16.4909 8.00249V3.00562H6.49719Z" fill="url(#paint5_radial_40_4228)"/>
<path d="M14.4922 4.005H12.4934V8.00251H14.4922V4.005Z" fill="#177CAD"/>
<defs>
<linearGradient id="paint0_linear_40_4228" x1="1.85759" y1="3.82011" x2="19.4176" y2="21.3796" gradientUnits="userSpaceOnUse">
<stop stop-color="#32BDEF"/>
<stop offset="1" stop-color="#1EA2E4"/>
</linearGradient>
<linearGradient id="paint1_linear_40_4228" x1="17.9915" y1="18.9971" x2="19.0035" y2="20.0091" gradientUnits="userSpaceOnUse">
<stop stop-color="#0D61A9"/>
<stop offset="1" stop-color="#16528C"/>
</linearGradient>
<linearGradient id="paint2_linear_40_4228" x1="3.00087" y1="18.9971" x2="4.01287" y2="20.0091" gradientUnits="userSpaceOnUse">
<stop stop-color="#0D61A9"/>
<stop offset="1" stop-color="#16528C"/>
</linearGradient>
<linearGradient id="paint3_linear_40_4228" x1="5.91255" y1="11.9151" x2="16.4735" y2="22.476" gradientUnits="userSpaceOnUse">
<stop stop-color="white"/>
<stop offset="0.242" stop-color="#F2F2F2"/>
<stop offset="1" stop-color="#CCCCCC"/>
</linearGradient>
<linearGradient id="paint4_linear_40_4228" x1="20.0447" y1="8.65808" x2="20.0447" y2="11.4009" gradientUnits="userSpaceOnUse">
<stop stop-color="#DEDEDE"/>
<stop offset="1" stop-color="#D6D6D6"/>
</linearGradient>
<radialGradient id="paint5_radial_40_4228" cx="0" cy="0" r="1" gradientUnits="userSpaceOnUse" gradientTransform="translate(7.78289 1.31067) scale(11.9275)">
<stop stop-color="#FAFAFB"/>
<stop offset="0.523" stop-color="#E2E4E7"/>
<stop offset="1" stop-color="#C8CDD1"/>
</radialGradient>
</defs>
</svg>
