<svg width="24" height="24" viewBox="0 0 24 24" fill="none" xmlns="http://www.w3.org/2000/svg">
<path d="M18.7778 2H3.11111C2.5 2 2 2.5 2 3.11111V20.8889C2 21.5 2.5 22 3.11111 22H20.8889C21.5 22 22 21.5 22 20.8889V5.22222C22 4.94444 21.8889 4.66667 21.6667 4.44444L19.5556 2.33333C19.3333 2.11111 19.0556 2 18.7778 2Z" fill="url(#paint0_linear_40_4217)"/>
<path opacity="0.05" d="M18.6667 2H6.44444V7.55556C6.44444 8.5 7.16666 9.22222 8.11111 9.22222H17C17.9444 9.22222 18.6667 8.5 18.6667 7.55556V2Z" fill="black"/>
<path d="M17 9.22222H5.88889C5.27778 9.22222 4.77778 8.72222 4.77778 8.11111V2H18.1111V8.11111C18.1111 8.72222 17.6111 9.22222 17 9.22222Z" fill="#1FA4E6"/>
<path opacity="0.07" d="M17 8.94444H8.11111C7.33333 8.94444 6.72222 8.33333 6.72222 7.55556V2H18.3889V7.55556C18.3889 8.33333 17.7778 8.94444 17 8.94444Z" fill="black"/>
<path d="M7 2V7.55556C7 8.16667 7.5 8.66667 8.11111 8.66667H17C17.6111 8.66667 18.1111 8.16667 18.1111 7.55556V2H7Z" fill="url(#paint1_radial_40_4217)"/>
<path d="M15.8889 3.11108H13.6667V7.55553H15.8889V3.11108Z" fill="#177CAD"/>
<path d="M20.8889 19.7778H19.7778V20.8889H20.8889V19.7778Z" fill="url(#paint2_linear_40_4217)"/>
<path d="M4.22223 19.7778H3.11111V20.8889H4.22223V19.7778Z" fill="url(#paint3_linear_40_4217)"/>
<path d="M17.5556 22H6.44445C5.83334 22 5.33334 21.5 5.33334 20.8889V14.2222C5.33334 13.6111 5.83334 13.1111 6.44445 13.1111H17.5556C18.1667 13.1111 18.6667 13.6111 18.6667 14.2222V20.8889C18.6667 21.5 18.1667 22 17.5556 22Z" fill="url(#paint4_linear_40_4217)"/>
<defs>
<linearGradient id="paint0_linear_40_4217" x1="1.84167" y1="2.90556" x2="21.365" y2="22.4283" gradientUnits="userSpaceOnUse">
<stop stop-color="#32BDEF"/>
<stop offset="1" stop-color="#1EA2E4"/>
</linearGradient>
<radialGradient id="paint1_radial_40_4217" cx="0" cy="0" r="1" gradientUnits="userSpaceOnUse" gradientTransform="translate(8.42944 0.115555) scale(13.2611)">
<stop stop-color="#FAFAFB"/>
<stop offset="0.523" stop-color="#E2E4E7"/>
<stop offset="1" stop-color="#C8CDD1"/>
</radialGradient>
<linearGradient id="paint2_linear_40_4217" x1="19.7794" y1="19.7794" x2="20.9039" y2="20.9039" gradientUnits="userSpaceOnUse">
<stop stop-color="#0D61A9"/>
<stop offset="1" stop-color="#16528C"/>
</linearGradient>
<linearGradient id="paint3_linear_40_4217" x1="3.11278" y1="19.7794" x2="4.23723" y2="20.9039" gradientUnits="userSpaceOnUse">
<stop stop-color="#0D61A9"/>
<stop offset="1" stop-color="#16528C"/>
</linearGradient>
<linearGradient id="paint4_linear_40_4217" x1="6.35" y1="11.9055" x2="18.0917" y2="23.6472" gradientUnits="userSpaceOnUse">
<stop stop-color="white"/>
<stop offset="0.242" stop-color="#F2F2F2"/>
<stop offset="1" stop-color="#CCCCCC"/>
</linearGradient>
</defs>
</svg>
