<svg width="24" height="24" viewBox="0 0 24 24" fill="none" xmlns="http://www.w3.org/2000/svg">
<path d="M4.85714 21.0476V7.71429H22V21.0476C22 21.5714 21.5714 22 21.0476 22H5.80952C5.28571 22 4.85714 21.5714 4.85714 21.0476Z" fill="url(#paint0_linear_40_4245)"/>
<path d="M22 5.8095V8.66664H4.85714V5.8095C4.85714 5.28569 5.28571 4.85712 5.80952 4.85712H21.0476C21.5714 4.85712 22 5.28569 22 5.8095Z" fill="url(#paint1_linear_40_4245)"/>
<path d="M20.0952 11.2857V12.7143C20.0952 12.8457 19.9886 12.9524 19.8571 12.9524H18.4286C18.2971 12.9524 18.1905 12.8457 18.1905 12.7143V11.2857C18.1905 11.1543 18.2971 11.0476 18.4286 11.0476H19.8571C19.9886 11.0476 20.0952 11.1543 20.0952 11.2857ZM16.2857 11.2857V12.7143C16.2857 12.8457 16.179 12.9524 16.0476 12.9524H14.619C14.4876 12.9524 14.381 12.8457 14.381 12.7143V11.2857C14.381 11.1543 14.4876 11.0476 14.619 11.0476H16.0476C16.179 11.0476 16.2857 11.1543 16.2857 11.2857ZM12.4762 11.2857V12.7143C12.4762 12.8457 12.3695 12.9524 12.2381 12.9524H10.8095C10.6781 12.9524 10.5714 12.8457 10.5714 12.7143V11.2857C10.5714 11.1543 10.6781 11.0476 10.8095 11.0476H12.2381C12.3695 11.0476 12.4762 11.1543 12.4762 11.2857Z" fill="white"/>
<path d="M20.0952 14.6191V16.0476C20.0952 16.1791 19.9886 16.2857 19.8571 16.2857H18.4286C18.2971 16.2857 18.1905 16.1791 18.1905 16.0476V14.6191C18.1905 14.4876 18.2971 14.381 18.4286 14.381H19.8571C19.9886 14.381 20.0952 14.4876 20.0952 14.6191ZM16.2857 14.6191V16.0476C16.2857 16.1791 16.179 16.2857 16.0476 16.2857H14.619C14.4876 16.2857 14.381 16.1791 14.381 16.0476V14.6191C14.381 14.4876 14.4876 14.381 14.619 14.381H16.0476C16.179 14.381 16.2857 14.4876 16.2857 14.6191ZM12.4762 14.6191V16.0476C12.4762 16.1791 12.3695 16.2857 12.2381 16.2857H10.8095C10.6781 16.2857 10.5714 16.1791 10.5714 16.0476V14.6191C10.5714 14.4876 10.6781 14.381 10.8095 14.381H12.2381C12.3695 14.381 12.4762 14.4876 12.4762 14.6191ZM8.66667 14.6191V16.0476C8.66667 16.1791 8.56 16.2857 8.42857 16.2857H7C6.86857 16.2857 6.76191 16.1791 6.76191 16.0476V14.6191C6.76191 14.4876 6.86857 14.381 7 14.381H8.42857C8.56 14.381 8.66667 14.4876 8.66667 14.6191Z" fill="white"/>
<path d="M16.2857 17.9524V19.381C16.2857 19.5124 16.179 19.6191 16.0476 19.6191H14.619C14.4876 19.6191 14.381 19.5124 14.381 19.381V17.9524C14.381 17.821 14.4876 17.7143 14.619 17.7143H16.0476C16.179 17.7143 16.2857 17.821 16.2857 17.9524ZM12.4762 17.9524V19.381C12.4762 19.5124 12.3695 19.6191 12.2381 19.6191H10.8095C10.6781 19.6191 10.5714 19.5124 10.5714 19.381V17.9524C10.5714 17.821 10.6781 17.7143 10.8095 17.7143H12.2381C12.3695 17.7143 12.4762 17.821 12.4762 17.9524ZM8.66667 17.9524V19.381C8.66667 19.5124 8.56 19.6191 8.42857 19.6191H7C6.86857 19.6191 6.76191 19.5124 6.76191 19.381V17.9524C6.76191 17.821 6.86857 17.7143 7 17.7143H8.42857C8.56 17.7143 8.66667 17.821 8.66667 17.9524Z" fill="white"/>
<path opacity="0.2" d="M4.85714 5.8095V13.7309C5.72429 14.1433 6.69048 14.3809 7.71429 14.3809C11.3962 14.3809 14.381 11.3962 14.381 7.71426C14.381 6.69045 14.1433 5.72426 13.731 4.85712H5.80952C5.28571 4.85712 4.85714 5.28569 4.85714 5.8095Z" fill="url(#paint2_radial_40_4245)"/>
<path d="M7.71429 13.4286C10.8702 13.4286 13.4286 10.8702 13.4286 7.71429C13.4286 4.55837 10.8702 2 7.71429 2C4.55837 2 2 4.55837 2 7.71429C2 10.8702 4.55837 13.4286 7.71429 13.4286Z" fill="url(#paint3_linear_40_4245)"/>
<path d="M7.71428 12.9524C10.6072 12.9524 12.9524 10.6072 12.9524 7.71429C12.9524 4.82137 10.6072 2.4762 7.71428 2.4762C4.82136 2.4762 2.47619 4.82137 2.47619 7.71429C2.47619 10.6072 4.82136 12.9524 7.71428 12.9524Z" fill="url(#paint4_radial_40_4245)"/>
<path d="M7.71429 12.4762C10.3442 12.4762 12.4762 10.3442 12.4762 7.7143C12.4762 5.08437 10.3442 2.95239 7.71429 2.95239C5.08436 2.95239 2.95238 5.08437 2.95238 7.7143C2.95238 10.3442 5.08436 12.4762 7.71429 12.4762Z" fill="url(#paint5_radial_40_4245)"/>
<path d="M7.71428 7.95243C7.65333 7.95243 7.59238 7.92909 7.54571 7.8829C7.45286 7.79005 7.45286 7.63909 7.54571 7.54624L9.97 5.12195C10.0629 5.02909 10.2138 5.02909 10.3067 5.12195C10.3995 5.21481 10.3995 5.36576 10.3067 5.45862L7.88238 7.8829C7.83619 7.92909 7.77524 7.95243 7.71428 7.95243Z" fill="#45494D"/>
<path d="M7.71381 8.07142C7.66047 8.07142 7.60571 8.05952 7.55476 8.0338L4.69762 6.60523C4.52095 6.51666 4.44952 6.30238 4.53762 6.12619C4.62619 5.94952 4.84047 5.87809 5.01666 5.96619L7.87381 7.39476C8.05047 7.48333 8.1219 7.69761 8.03381 7.8738C7.97095 7.99952 7.84476 8.07142 7.71381 8.07142Z" fill="#45494D"/>
<path d="M7.71429 8.42857C8.10877 8.42857 8.42857 8.10877 8.42857 7.71429C8.42857 7.3198 8.10877 7 7.71429 7C7.3198 7 7 7.3198 7 7.71429C7 8.10877 7.3198 8.42857 7.71429 8.42857Z" fill="#1E2021"/>
<path opacity="0.05" d="M18.9048 7.95235C18.1157 7.95235 17.4762 7.31283 17.4762 6.52378V4.85712H20.3333V6.52378C20.3333 7.31283 19.6938 7.95235 18.9048 7.95235Z" fill="black"/>
<path opacity="0.07" d="M18.9048 7.59521C18.3129 7.59521 17.8333 7.11569 17.8333 6.52378V4.85712H19.9762V6.52378C19.9762 7.11569 19.4967 7.59521 18.9048 7.59521Z" fill="black"/>
<path d="M18.9048 7.23812C18.5105 7.23812 18.1905 6.91812 18.1905 6.52383V4.61907C18.1905 4.22479 18.5105 3.90479 18.9048 3.90479C19.299 3.90479 19.619 4.22479 19.619 4.61907V6.52383C19.619 6.91812 19.299 7.23812 18.9048 7.23812Z" fill="#3CCBF4"/>
<defs>
<linearGradient id="paint0_linear_40_4245" x1="5.05429" y1="8.50572" x2="21.8924" y2="20.8038" gradientUnits="userSpaceOnUse">
<stop stop-color="#28AFEA"/>
<stop offset="1" stop-color="#047ED6"/>
</linearGradient>
<linearGradient id="paint1_linear_40_4245" x1="5.05714" y1="5.14664" x2="21.6181" y2="8.51426" gradientUnits="userSpaceOnUse">
<stop stop-color="#0077D2"/>
<stop offset="1" stop-color="#0B59A2"/>
</linearGradient>
<radialGradient id="paint2_radial_40_4245" cx="0" cy="0" r="1" gradientUnits="userSpaceOnUse" gradientTransform="translate(7.70429 7.65188) scale(6.68714)">
<stop offset="0.847"/>
<stop offset="1" stop-opacity="0"/>
</radialGradient>
<linearGradient id="paint3_linear_40_4245" x1="3.67381" y1="3.67381" x2="11.7548" y2="11.7548" gradientUnits="userSpaceOnUse">
<stop stop-color="#889097"/>
<stop offset="1" stop-color="#64717C"/>
</linearGradient>
<radialGradient id="paint4_radial_40_4245" cx="0" cy="0" r="1" gradientUnits="userSpaceOnUse" gradientTransform="translate(7.71428 7.71429) scale(5.2381)">
<stop/>
<stop offset="1" stop-opacity="0"/>
</radialGradient>
<radialGradient id="paint5_radial_40_4245" cx="0" cy="0" r="1" gradientUnits="userSpaceOnUse" gradientTransform="translate(7.68333 3.06287) scale(10.6114)">
<stop stop-color="#FAFAFB"/>
<stop offset="1" stop-color="#C8CDD1"/>
</radialGradient>
</defs>
</svg>
