<svg width="24" height="24" viewBox="0 0 24 24" fill="none" xmlns="http://www.w3.org/2000/svg">
<path d="M4.66667 11.1111L20.6667 4.75549V16.4444C20.6667 16.9333 20.2667 17.3333 19.7778 17.3333H4.66667V11.1111Z" fill="url(#paint0_linear_40_4262)"/>
<path d="M2 4.75549V16.4444C2 16.9333 2.4 17.3333 2.88889 17.3333H19.7778C20 17.3333 20.1778 17.2444 20.3556 17.1111L2 4.75549Z" fill="url(#paint1_linear_40_4262)"/>
<path opacity="0.05" d="M2 4.4444H20.6667V5.19995L12.9778 11.1555C12 11.9111 10.6667 11.9111 9.68889 11.1555L2 5.19995V4.4444Z" fill="black"/>
<path opacity="0.07" d="M2 4.22217H20.6667V4.97772L12.6667 10.7999C11.8667 11.3777 10.8 11.3777 10.0444 10.7999L2 4.97772V4.22217Z" fill="black"/>
<path d="M2.88889 3.11108H19.7778C20.2667 3.11108 20.6667 3.51108 20.6667 3.99997V4.75553L12.3556 10.4444C11.7333 10.8444 10.9778 10.8444 10.3556 10.4444L2 4.75553V3.99997C2 3.51108 2.4 3.11108 2.88889 3.11108Z" fill="url(#paint2_linear_40_4262)"/>
<path d="M17.5556 11.1111C14.6222 11.1111 12.2222 13.5111 12.2222 16.4444C12.2222 16.7555 12.2667 17.0222 12.3111 17.3333H19.7778C20.2667 17.3333 20.6667 16.9333 20.6667 16.4444V12.1333C19.7778 11.4666 18.7111 11.1111 17.5556 11.1111Z" fill="url(#paint3_radial_40_4262)"/>
<path d="M17.5556 20.8889C20.0101 20.8889 22 18.899 22 16.4444C22 13.9899 20.0101 12 17.5556 12C15.101 12 13.1111 13.9899 13.1111 16.4444C13.1111 18.899 15.101 20.8889 17.5556 20.8889Z" fill="url(#paint4_linear_40_4262)"/>
<path d="M17.5556 20.4444C19.7647 20.4444 21.5556 18.6536 21.5556 16.4444C21.5556 14.2352 19.7647 12.4444 17.5556 12.4444C15.3464 12.4444 13.5556 14.2352 13.5556 16.4444C13.5556 18.6536 15.3464 20.4444 17.5556 20.4444Z" fill="url(#paint5_radial_40_4262)"/>
<path d="M17.5556 20C19.5192 20 21.1111 18.4081 21.1111 16.4444C21.1111 14.4808 19.5192 12.8889 17.5556 12.8889C15.5919 12.8889 14 14.4808 14 16.4444C14 18.4081 15.5919 20 17.5556 20Z" fill="url(#paint6_radial_40_4262)"/>
<path d="M18.8444 18.9777C18.7556 19.0222 18.6667 18.9777 18.6222 18.8889L17.4222 16.5333C17.3778 16.4444 17.4222 16.3555 17.5111 16.3111C17.6 16.2666 17.6889 16.3111 17.7333 16.4L18.9333 18.7555C18.9778 18.8 18.9333 18.9333 18.8444 18.9777Z" fill="#D83B01"/>
<path d="M17.5556 16.6222C17.5111 16.6222 17.4667 16.6222 17.4222 16.5778C17.3778 16.5333 17.3778 16.4 17.4222 16.3556L19.2889 14.4889C19.3333 14.4445 19.4667 14.4445 19.5111 14.4889C19.5556 14.5333 19.5556 14.6667 19.5111 14.7111L17.6444 16.5778C17.6444 16.5778 17.6 16.6222 17.5556 16.6222Z" fill="#45494D"/>
<path d="M17.5556 16.7111C17.5111 16.7111 17.4667 16.7111 17.4222 16.6667L15.6889 15.8222C15.5556 15.7778 15.5111 15.6 15.5556 15.4667C15.6 15.3333 15.7778 15.2889 15.9111 15.3333L17.6444 16.1778C17.7778 16.2222 17.8222 16.4 17.7778 16.5333C17.7778 16.6667 17.6444 16.7111 17.5556 16.7111Z" fill="#45494D"/>
<path d="M17.5556 16.8889C17.801 16.8889 18 16.6899 18 16.4444C18 16.199 17.801 16 17.5556 16C17.3101 16 17.1111 16.199 17.1111 16.4444C17.1111 16.6899 17.3101 16.8889 17.5556 16.8889Z" fill="#1E2021"/>
<defs>
<linearGradient id="paint0_linear_40_4262" x1="10.2293" y1="7.3946" x2="20.9298" y2="23.4102" gradientUnits="userSpaceOnUse">
<stop stop-color="#28AFEA"/>
<stop offset="1" stop-color="#0B88DA"/>
</linearGradient>
<linearGradient id="paint1_linear_40_4262" x1="1.29244" y1="10.4044" x2="16.8138" y2="20.0728" gradientUnits="userSpaceOnUse">
<stop stop-color="#28AFEA"/>
<stop offset="1" stop-color="#0B88DA"/>
</linearGradient>
<linearGradient id="paint2_linear_40_4262" x1="7.88533" y1="3.22828" x2="9.75973" y2="12.0661" gradientUnits="userSpaceOnUse">
<stop stop-color="#7DD8F3"/>
<stop offset="1" stop-color="#45B0D0"/>
</linearGradient>
<radialGradient id="paint3_radial_40_4262" cx="0" cy="0" r="1" gradientUnits="userSpaceOnUse" gradientTransform="translate(17.5084 16.4778) scale(5.27067)">
<stop/>
<stop offset="1" stop-opacity="0"/>
</radialGradient>
<linearGradient id="paint4_linear_40_4262" x1="14.4129" y1="13.3018" x2="20.6982" y2="19.5871" gradientUnits="userSpaceOnUse">
<stop stop-color="#889097"/>
<stop offset="1" stop-color="#64717C"/>
</linearGradient>
<radialGradient id="paint5_radial_40_4262" cx="0" cy="0" r="1" gradientUnits="userSpaceOnUse" gradientTransform="translate(17.5556 16.4444) scale(4)">
<stop/>
<stop offset="1" stop-opacity="0"/>
</radialGradient>
<radialGradient id="paint6_radial_40_4262" cx="0" cy="0" r="1" gradientUnits="userSpaceOnUse" gradientTransform="translate(17.5324 12.9715) scale(7.92356)">
<stop stop-color="#FAFAFB"/>
<stop offset="1" stop-color="#C8CDD1"/>
</radialGradient>
</defs>
</svg>
