<svg width="24" height="24" viewBox="0 0 24 24" fill="none" xmlns="http://www.w3.org/2000/svg">
<path d="M2 16.5452V6.09082H20.1816V16.5452C20.1816 17.0452 19.7725 17.4543 19.2725 17.4543H2.90908C2.40909 17.4543 2 17.0452 2 16.5452Z" fill="url(#paint0_linear_40_4311)"/>
<path d="M20.1816 3.81814V6.09084H2V3.81814C2 3.31814 2.40909 2.90906 2.90908 2.90906H19.2725C19.7725 2.90906 20.1816 3.31814 20.1816 3.81814Z" fill="url(#paint1_linear_40_4311)"/>
<path d="M7.68175 5.18174H19.0453C19.1707 5.18174 19.2725 5.07992 19.2725 4.95447V4.04539C19.2725 3.91993 19.1707 3.81812 19.0453 3.81812H7.68175C7.5563 3.81812 7.45448 3.91993 7.45448 4.04539V4.95447C7.45448 5.07992 7.5563 5.18174 7.68175 5.18174Z" fill="url(#paint2_linear_40_4311)"/>
<path d="M3.5909 5.18174C3.96745 5.18174 4.27271 4.87648 4.27271 4.49993C4.27271 4.12338 3.96745 3.81812 3.5909 3.81812C3.21435 3.81812 2.90909 4.12338 2.90909 4.49993C2.90909 4.87648 3.21435 5.18174 3.5909 5.18174Z" fill="url(#paint3_linear_40_4311)"/>
<path d="M5.86359 5.18174C6.24014 5.18174 6.5454 4.87648 6.5454 4.49993C6.5454 4.12338 6.24014 3.81812 5.86359 3.81812C5.48704 3.81812 5.18178 4.12338 5.18178 4.49993C5.18178 4.87648 5.48704 5.18174 5.86359 5.18174Z" fill="url(#paint4_linear_40_4311)"/>
<path d="M20.6325 18.9198L19.8289 19.7234L21.163 21.0575C21.2075 21.102 21.2793 21.102 21.3239 21.0575L21.9666 20.4148C22.0111 20.3702 22.0111 20.2984 21.9666 20.2539L20.6325 18.9198Z" fill="url(#paint5_linear_40_4311)"/>
<path d="M19.6362 17.9239L18.833 18.7271L19.8289 19.7234L20.6325 18.9198L19.6362 17.9239Z" fill="url(#paint6_radial_40_4311)"/>
<path d="M16.9998 11.5453C14.4935 11.5453 12.4544 13.5844 12.4544 16.0908C12.4544 16.5657 12.5285 17.0235 12.664 17.4544H19.2725C19.7725 17.4544 20.1816 17.0453 20.1816 16.5453V12.8503C19.3612 12.0444 18.238 11.5453 16.9998 11.5453Z" fill="url(#paint7_radial_40_4311)"/>
<path d="M16.9998 19.7271C19.0081 19.7271 20.6362 18.099 20.6362 16.0907C20.6362 14.0825 19.0081 12.4544 16.9998 12.4544C14.9916 12.4544 13.3635 14.0825 13.3635 16.0907C13.3635 18.099 14.9916 19.7271 16.9998 19.7271Z" fill="url(#paint8_linear_40_4311)"/>
<defs>
<linearGradient id="paint0_linear_40_4311" x1="7.7324" y1="6.26528" x2="11.7653" y2="18.7064" gradientUnits="userSpaceOnUse">
<stop stop-color="#7DD8F3"/>
<stop offset="1" stop-color="#45B0D0"/>
</linearGradient>
<linearGradient id="paint1_linear_40_4311" x1="2.27909" y1="2.79133" x2="19.698" y2="6.33311" gradientUnits="userSpaceOnUse">
<stop stop-color="#0077D2"/>
<stop offset="1" stop-color="#0B59A2"/>
</linearGradient>
<linearGradient id="paint2_linear_40_4311" x1="7.45448" y1="4.49993" x2="19.2725" y2="4.49993" gradientUnits="userSpaceOnUse">
<stop stop-color="#7DD8F3"/>
<stop offset="1" stop-color="#45B0D0"/>
</linearGradient>
<linearGradient id="paint3_linear_40_4311" x1="3.33902" y1="3.83905" x2="4.01331" y2="5.13914" gradientUnits="userSpaceOnUse">
<stop stop-color="#7DD8F3"/>
<stop offset="1" stop-color="#45B0D0"/>
</linearGradient>
<linearGradient id="paint4_linear_40_4311" x1="5.61171" y1="3.83905" x2="6.286" y2="5.13914" gradientUnits="userSpaceOnUse">
<stop stop-color="#7DD8F3"/>
<stop offset="1" stop-color="#45B0D0"/>
</linearGradient>
<linearGradient id="paint5_linear_40_4311" x1="20.5134" y1="18.9532" x2="21.587" y2="21.023" gradientUnits="userSpaceOnUse">
<stop stop-color="#7DD8F3"/>
<stop offset="1" stop-color="#45B0D0"/>
</linearGradient>
<radialGradient id="paint6_radial_40_4311" cx="0" cy="0" r="1" gradientUnits="userSpaceOnUse" gradientTransform="translate(17.0053 16.1125) scale(4.4554)">
<stop offset="0.693" stop-color="#006185"/>
<stop offset="0.921" stop-color="#35C1F1"/>
</radialGradient>
<radialGradient id="paint7_radial_40_4311" cx="0" cy="0" r="1" gradientUnits="userSpaceOnUse" gradientTransform="translate(16.9707 16.0521) scale(4.38859)">
<stop/>
<stop offset="1" stop-opacity="0"/>
</radialGradient>
<linearGradient id="paint8_linear_40_4311" x1="14.9747" y1="11.371" x2="19.9045" y2="18.6079" gradientUnits="userSpaceOnUse">
<stop stop-color="#FCFCFC"/>
<stop offset="0.95" stop-color="#C3C9CD"/>
</linearGradient>
</defs>
</svg>
