<svg width="24" height="24" viewBox="0 0 24 24" fill="none" xmlns="http://www.w3.org/2000/svg">
<path d="M2 16.5453V5.18176H20.1816V15.6362C20.1816 16.6362 19.3634 17.4544 18.3635 17.4544H2.90908C2.40909 17.4544 2 17.0453 2 16.5453Z" fill="url(#paint0_linear_40_4332)"/>
<path d="M17.6816 9.27261H7.22722C7.10176 9.27261 6.99995 9.17079 6.99995 9.04534V8.5908C6.99995 8.46534 7.10176 8.36353 7.22722 8.36353H17.6816C17.8071 8.36353 17.9089 8.46534 17.9089 8.5908V9.04534C17.9089 9.17079 17.8071 9.27261 17.6816 9.27261Z" fill="#0F94BF"/>
<path d="M17.6816 11.5453H7.22722C7.10176 11.5453 6.99995 11.4435 6.99995 11.318V10.8635C6.99995 10.738 7.10176 10.6362 7.22722 10.6362H17.6816C17.8071 10.6362 17.9089 10.738 17.9089 10.8635V11.318C17.9089 11.4435 17.8071 11.5453 17.6816 11.5453Z" fill="#0F94BF"/>
<path d="M17.6816 13.818H7.22722C7.10176 13.818 6.99995 13.7162 6.99995 13.5907V13.1362C6.99995 13.0108 7.10176 12.9089 7.22722 12.9089H17.6816C17.8071 12.9089 17.9089 13.0108 17.9089 13.1362V13.5907C17.9089 13.7162 17.8071 13.818 17.6816 13.818Z" fill="#0F94BF"/>
<path d="M20.1816 3.81814V5.18176H2V3.81814C2 3.31814 2.40909 2.90906 2.90908 2.90906H19.2725C19.7725 2.90906 20.1816 3.31814 20.1816 3.81814Z" fill="url(#paint1_linear_40_4332)"/>
<path d="M4.49998 9.27261H4.95452C5.07997 9.27261 5.18179 9.17079 5.18179 9.04534V8.5908C5.18179 8.46534 5.07997 8.36353 4.95452 8.36353H4.49998C4.37452 8.36353 4.27271 8.46534 4.27271 8.5908V9.04534C4.27271 9.17079 4.37452 9.27261 4.49998 9.27261Z" fill="#0F94BF"/>
<path d="M4.49998 11.5453H4.95452C5.07997 11.5453 5.18179 11.4435 5.18179 11.318V10.8635C5.18179 10.738 5.07997 10.6362 4.95452 10.6362H4.49998C4.37452 10.6362 4.27271 10.738 4.27271 10.8635V11.318C4.27271 11.4435 4.37452 11.5453 4.49998 11.5453Z" fill="#0F94BF"/>
<path d="M4.49998 13.818H4.95452C5.07997 13.818 5.18179 13.7162 5.18179 13.5907V13.1362C5.18179 13.0108 5.07997 12.9089 4.95452 12.9089H4.49998C4.37452 12.9089 4.27271 13.0108 4.27271 13.1362V13.5907C4.27271 13.7162 4.37452 13.818 4.49998 13.818Z" fill="#0F94BF"/>
<path opacity="0.15" d="M20.1816 12.9171C19.3525 11.8103 18.0348 11.0908 16.5453 11.0908C14.0349 11.0908 11.9999 13.1257 11.9999 15.6362C11.9999 16.283 12.1372 16.8971 12.3808 17.4543H18.3635C19.3634 17.4543 20.1816 16.6362 20.1816 15.6362V12.9171Z" fill="url(#paint2_radial_40_4332)"/>
<path d="M20.178 18.4653L19.3743 19.2689L21.163 21.0575C21.2075 21.1021 21.2793 21.1021 21.3239 21.0575L21.9666 20.4148C22.0111 20.3702 22.0111 20.2984 21.9666 20.2539L20.178 18.4653Z" fill="url(#paint3_linear_40_4332)"/>
<path d="M19.1816 17.4693L18.3784 18.2725L19.3743 19.2688L20.178 18.4652L19.1816 17.4693Z" fill="url(#paint4_radial_40_4332)"/>
<path d="M16.5453 19.2725C18.5535 19.2725 20.1816 17.6445 20.1816 15.6362C20.1816 13.628 18.5535 11.9999 16.5453 11.9999C14.537 11.9999 12.909 13.628 12.909 15.6362C12.909 17.6445 14.537 19.2725 16.5453 19.2725Z" fill="url(#paint5_linear_40_4332)"/>
<defs>
<linearGradient id="paint0_linear_40_4332" x1="6.10995" y1="3.79951" x2="14.5289" y2="15.9775" gradientUnits="userSpaceOnUse">
<stop stop-color="#7DD8F3"/>
<stop offset="1" stop-color="#45B0D0"/>
</linearGradient>
<linearGradient id="paint1_linear_40_4332" x1="2.36727" y1="2.35452" x2="19.6134" y2="5.8613" gradientUnits="userSpaceOnUse">
<stop stop-color="#0077D2"/>
<stop offset="1" stop-color="#0B59A2"/>
</linearGradient>
<radialGradient id="paint2_radial_40_4332" cx="0" cy="0" r="1" gradientUnits="userSpaceOnUse" gradientTransform="translate(16.5535 15.6325) scale(4.51859)">
<stop/>
<stop offset="1" stop-opacity="0"/>
</radialGradient>
<linearGradient id="paint3_linear_40_4332" x1="20.2022" y1="18.5055" x2="21.5005" y2="21.0089" gradientUnits="userSpaceOnUse">
<stop stop-color="#7DD8F3"/>
<stop offset="1" stop-color="#45B0D0"/>
</linearGradient>
<radialGradient id="paint4_radial_40_4332" cx="0" cy="0" r="1" gradientUnits="userSpaceOnUse" gradientTransform="translate(16.5507 15.658) scale(4.4554)">
<stop offset="0.693" stop-color="#006185"/>
<stop offset="0.921" stop-color="#35C1F1"/>
</radialGradient>
<linearGradient id="paint5_linear_40_4332" x1="14.5201" y1="10.9164" x2="19.45" y2="18.1534" gradientUnits="userSpaceOnUse">
<stop stop-color="#FCFCFC"/>
<stop offset="0.95" stop-color="#C3C9CD"/>
</linearGradient>
</defs>
</svg>
