<svg width="24" height="24" viewBox="0 0 24 24" fill="none" xmlns="http://www.w3.org/2000/svg">
<path d="M2 16.5455V6.09094H20.1818V16.5455C20.1818 17.0455 19.7727 17.4546 19.2727 17.4546H2.90909C2.40909 17.4546 2 17.0455 2 16.5455Z" fill="url(#paint0_linear_40_4353)"/>
<path d="M20.1818 3.81821V6.09094H2V3.81821C2 3.31821 2.40909 2.90912 2.90909 2.90912H19.2727C19.7727 2.90912 20.1818 3.31821 20.1818 3.81821Z" fill="url(#paint1_linear_40_4353)"/>
<path d="M3.59091 5.18187C3.96746 5.18187 4.27273 4.87661 4.27273 4.50006C4.27273 4.1235 3.96746 3.81824 3.59091 3.81824C3.21436 3.81824 2.90909 4.1235 2.90909 4.50006C2.90909 4.87661 3.21436 5.18187 3.59091 5.18187Z" fill="url(#paint2_linear_40_4353)"/>
<path opacity="0.05" d="M19.4195 12.1791C18.9623 11.8673 18.49 11.5455 17.6818 11.5455C16.8736 11.5455 16.4014 11.8673 15.9441 12.1791C15.4177 12.5382 14.8732 12.9091 13.5909 12.9091C13.215 12.9091 12.9091 13.215 12.9091 13.5909V15.6364C12.9091 15.9709 12.9514 16.3132 13.0341 16.6537C13.1014 16.9291 13.1959 17.1964 13.3114 17.4546H19.2727C19.7727 17.4546 20.1818 17.0455 20.1818 16.5455V12.6255C19.8841 12.4955 19.65 12.3359 19.4195 12.1791Z" fill="black"/>
<path opacity="0.07" d="M19.2918 12.3669C18.8436 12.0614 18.42 11.7728 17.6818 11.7728C16.9436 11.7728 16.52 12.0614 16.0718 12.3669C15.5427 12.7278 14.9427 13.1364 13.5909 13.1364C13.34 13.1364 13.1364 13.34 13.1364 13.5909V15.6364C13.1364 15.9532 13.1764 16.2773 13.255 16.5996C13.3273 16.8955 13.4314 17.1809 13.5591 17.4546H19.2727C19.7727 17.4546 20.1818 17.0455 20.1818 16.5455V12.8705C19.8182 12.7255 19.5468 12.5405 19.2918 12.3669Z" fill="black"/>
<path d="M5.86364 5.18187C6.24019 5.18187 6.54546 4.87661 6.54546 4.50006C6.54546 4.1235 6.24019 3.81824 5.86364 3.81824C5.48708 3.81824 5.18182 4.1235 5.18182 4.50006C5.18182 4.87661 5.48708 5.18187 5.86364 5.18187Z" fill="url(#paint3_linear_40_4353)"/>
<path d="M17.6818 21.091C17.5564 21.091 17.4545 20.9891 17.4545 20.8637C17.4545 20.7382 17.5564 20.6364 17.6818 20.6364V21.091Z" fill="url(#paint4_linear_40_4353)"/>
<path d="M17.9091 20.8637C17.9091 20.9891 17.8073 21.091 17.6818 21.091V20.6364C17.8073 20.6364 17.9091 20.7382 17.9091 20.8637Z" fill="#185C37"/>
<path d="M21.7727 13.8182C21.8983 13.8182 22 13.7165 22 13.5909C22 13.4654 21.8983 13.3636 21.7727 13.3636C21.6472 13.3636 21.5455 13.4654 21.5455 13.5909C21.5455 13.7165 21.6472 13.8182 21.7727 13.8182Z" fill="#21A366"/>
<path d="M13.5909 13.8182C13.7165 13.8182 13.8182 13.7165 13.8182 13.5909C13.8182 13.4654 13.7165 13.3636 13.5909 13.3636C13.4654 13.3636 13.3636 13.4654 13.3636 13.5909C13.3636 13.7165 13.4654 13.8182 13.5909 13.8182Z" fill="#33C481"/>
<path d="M17.6818 20.8637L17.7791 21.0696C17.7791 21.0696 21.2209 19.2741 21.8882 16.5455H17.6818V20.8637Z" fill="#185C37"/>
<path d="M22 13.5909L21.7727 13.3636C19.245 13.3636 19.2095 12 17.6818 12V16.5455H21.8882C21.9595 16.2527 22 15.9495 22 15.6364C22 14.9218 22 13.5909 22 13.5909Z" fill="#21A366"/>
<path d="M17.6818 20.8637L17.5845 21.0696C17.5845 21.0696 14.1427 19.2741 13.4755 16.5455H17.6818V20.8637Z" fill="url(#paint5_linear_40_4353)"/>
<path d="M13.3636 13.5909L13.5909 13.3636C16.1186 13.3636 16.1541 12 17.6818 12V16.5455H13.4759C13.4041 16.2527 13.3636 15.9495 13.3636 15.6364C13.3636 14.9218 13.3636 13.5909 13.3636 13.5909Z" fill="#33C481"/>
<defs>
<linearGradient id="paint0_linear_40_4353" x1="6.02803" y1="4.39807" x2="11.9948" y2="18.4128" gradientUnits="userSpaceOnUse">
<stop stop-color="#FCFCFC"/>
<stop offset="0.95" stop-color="#C3C9CD"/>
</linearGradient>
<linearGradient id="paint1_linear_40_4353" x1="2.27909" y1="2.79139" x2="19.6982" y2="6.33321" gradientUnits="userSpaceOnUse">
<stop stop-color="#0077D2"/>
<stop offset="1" stop-color="#0B59A2"/>
</linearGradient>
<linearGradient id="paint2_linear_40_4353" x1="3.33903" y1="3.83917" x2="4.01333" y2="5.13927" gradientUnits="userSpaceOnUse">
<stop stop-color="#7DD8F3"/>
<stop offset="1" stop-color="#45B0D0"/>
</linearGradient>
<linearGradient id="paint3_linear_40_4353" x1="5.61176" y1="3.83917" x2="6.28606" y2="5.13927" gradientUnits="userSpaceOnUse">
<stop stop-color="#7DD8F3"/>
<stop offset="1" stop-color="#45B0D0"/>
</linearGradient>
<linearGradient id="paint4_linear_40_4353" x1="17.4878" y1="20.703" x2="17.745" y2="20.8315" gradientUnits="userSpaceOnUse">
<stop stop-color="#21AD64"/>
<stop offset="1" stop-color="#088242"/>
</linearGradient>
<linearGradient id="paint5_linear_40_4353" x1="14.0915" y1="17.208" x2="17.282" y2="20.1745" gradientUnits="userSpaceOnUse">
<stop stop-color="#21AD64"/>
<stop offset="1" stop-color="#088242"/>
</linearGradient>
</defs>
</svg>
