<svg width="24" height="24" viewBox="0 0 24 24" fill="none" xmlns="http://www.w3.org/2000/svg">
<path d="M19.7778 3.11111H20.8889V4.22222C20.8889 4.52889 21.1378 4.77778 21.4444 4.77778C21.7511 4.77778 22 4.52889 22 4.22222V3.11111C22 2.5 21.5 2 20.8889 2H19.7778C19.4711 2 19.2222 2.24889 19.2222 2.55556C19.2222 2.86222 19.4711 3.11111 19.7778 3.11111Z" fill="#64717C"/>
<path d="M3.11111 4.22222V3.11111H4.22222C4.52889 3.11111 4.77778 2.86222 4.77778 2.55556C4.77778 2.24889 4.52889 2 4.22222 2H3.11111C2.5 2 2 2.5 2 3.11111V4.22222C2 4.52889 2.24889 4.77778 2.55556 4.77778C2.86222 4.77778 3.11111 4.52889 3.11111 4.22222Z" fill="#64717C"/>
<path d="M20.8889 19.7778V20.8889H19.7778C19.4711 20.8889 19.2222 21.1378 19.2222 21.4445C19.2222 21.7511 19.4711 22 19.7778 22H20.8889C21.5 22 22 21.5 22 20.8889V19.7778C22 19.4711 21.7511 19.2222 21.4444 19.2222C21.1378 19.2222 20.8889 19.4711 20.8889 19.7778Z" fill="#64717C"/>
<path d="M4.22222 20.8889H3.11111V19.7778C3.11111 19.4711 2.86222 19.2222 2.55556 19.2222C2.24889 19.2222 2 19.4711 2 19.7778V20.8889C2 21.5 2.5 22 3.11111 22H4.22222C4.52889 22 4.77778 21.7511 4.77778 21.4445C4.77778 21.1378 4.52889 20.8889 4.22222 20.8889Z" fill="#64717C"/>
<path d="M6.44444 3.11111C6.75127 3.11111 7 2.86238 7 2.55556C7 2.24873 6.75127 2 6.44444 2C6.13762 2 5.88889 2.24873 5.88889 2.55556C5.88889 2.86238 6.13762 3.11111 6.44444 3.11111Z" fill="#64717C"/>
<path d="M8.66667 3.11111C8.97349 3.11111 9.22222 2.86238 9.22222 2.55556C9.22222 2.24873 8.97349 2 8.66667 2C8.35984 2 8.11111 2.24873 8.11111 2.55556C8.11111 2.86238 8.35984 3.11111 8.66667 3.11111Z" fill="#64717C"/>
<path d="M10.8889 3.11111C11.1957 3.11111 11.4444 2.86238 11.4444 2.55556C11.4444 2.24873 11.1957 2 10.8889 2C10.5821 2 10.3333 2.24873 10.3333 2.55556C10.3333 2.86238 10.5821 3.11111 10.8889 3.11111Z" fill="#64717C"/>
<path d="M15.3333 3.11111C15.6401 3.11111 15.8889 2.86238 15.8889 2.55556C15.8889 2.24873 15.6401 2 15.3333 2C15.0266 2 14.7778 2.24873 14.7778 2.55556C14.7778 2.86238 15.0266 3.11111 15.3333 3.11111Z" fill="#64717C"/>
<path d="M17.5556 3.11111C17.8623 3.11111 18.1111 2.86238 18.1111 2.55556C18.1111 2.24873 17.8623 2 17.5556 2C17.2488 2 17 2.24873 17 2.55556C17 2.86238 17.2488 3.11111 17.5556 3.11111Z" fill="#64717C"/>
<path d="M13.1111 3.11111C13.4179 3.11111 13.6667 2.86238 13.6667 2.55556C13.6667 2.24873 13.4179 2 13.1111 2C12.8043 2 12.5556 2.24873 12.5556 2.55556C12.5556 2.86238 12.8043 3.11111 13.1111 3.11111Z" fill="#64717C"/>
<path d="M6.44444 22C6.75127 22 7 21.7512 7 21.4445C7 21.1377 6.75127 20.8889 6.44444 20.8889C6.13762 20.8889 5.88889 21.1377 5.88889 21.4445C5.88889 21.7512 6.13762 22 6.44444 22Z" fill="#64717C"/>
<path d="M8.66667 22C8.97349 22 9.22222 21.7512 9.22222 21.4445C9.22222 21.1377 8.97349 20.8889 8.66667 20.8889C8.35984 20.8889 8.11111 21.1377 8.11111 21.4445C8.11111 21.7512 8.35984 22 8.66667 22Z" fill="#64717C"/>
<path d="M10.8889 22C11.1957 22 11.4444 21.7512 11.4444 21.4445C11.4444 21.1377 11.1957 20.8889 10.8889 20.8889C10.5821 20.8889 10.3333 21.1377 10.3333 21.4445C10.3333 21.7512 10.5821 22 10.8889 22Z" fill="#64717C"/>
<path d="M15.3333 22C15.6401 22 15.8889 21.7512 15.8889 21.4445C15.8889 21.1377 15.6401 20.8889 15.3333 20.8889C15.0266 20.8889 14.7778 21.1377 14.7778 21.4445C14.7778 21.7512 15.0266 22 15.3333 22Z" fill="#64717C"/>
<path d="M17.5556 22C17.8623 22 18.1111 21.7512 18.1111 21.4445C18.1111 21.1377 17.8623 20.8889 17.5556 20.8889C17.2488 20.8889 17 21.1377 17 21.4445C17 21.7512 17.2488 22 17.5556 22Z" fill="#64717C"/>
<path d="M13.1111 22C13.4179 22 13.6667 21.7512 13.6667 21.4445C13.6667 21.1377 13.4179 20.8889 13.1111 20.8889C12.8043 20.8889 12.5556 21.1377 12.5556 21.4445C12.5556 21.7512 12.8043 22 13.1111 22Z" fill="#64717C"/>
<path d="M21.4444 7.00003C21.7512 7.00003 22 6.75129 22 6.44447C22 6.13765 21.7512 5.88892 21.4444 5.88892C21.1377 5.88892 20.8889 6.13765 20.8889 6.44447C20.8889 6.75129 21.1377 7.00003 21.4444 7.00003Z" fill="#64717C"/>
<path d="M21.4444 9.2222C21.7512 9.2222 22 8.97346 22 8.66664C22 8.35982 21.7512 8.11108 21.4444 8.11108C21.1377 8.11108 20.8889 8.35982 20.8889 8.66664C20.8889 8.97346 21.1377 9.2222 21.4444 9.2222Z" fill="#64717C"/>
<path d="M21.4444 11.4444C21.7512 11.4444 22 11.1956 22 10.8889C22 10.5821 21.7512 10.3333 21.4444 10.3333C21.1377 10.3333 20.8889 10.5821 20.8889 10.8889C20.8889 11.1956 21.1377 11.4444 21.4444 11.4444Z" fill="#64717C"/>
<path d="M21.4444 15.8889C21.7512 15.8889 22 15.6401 22 15.3333C22 15.0265 21.7512 14.7778 21.4444 14.7778C21.1377 14.7778 20.8889 15.0265 20.8889 15.3333C20.8889 15.6401 21.1377 15.8889 21.4444 15.8889Z" fill="#64717C"/>
<path d="M21.4444 18.1111C21.7512 18.1111 22 17.8623 22 17.5556C22 17.2488 21.7512 17 21.4444 17C21.1377 17 20.8889 17.2488 20.8889 17.5556C20.8889 17.8623 21.1377 18.1111 21.4444 18.1111Z" fill="#64717C"/>
<path d="M21.4444 13.6667C21.7512 13.6667 22 13.4179 22 13.1111C22 12.8043 21.7512 12.5555 21.4444 12.5555C21.1377 12.5555 20.8889 12.8043 20.8889 13.1111C20.8889 13.4179 21.1377 13.6667 21.4444 13.6667Z" fill="#64717C"/>
<path d="M2.55556 7.00003C2.86238 7.00003 3.11111 6.75129 3.11111 6.44447C3.11111 6.13765 2.86238 5.88892 2.55556 5.88892C2.24873 5.88892 2 6.13765 2 6.44447C2 6.75129 2.24873 7.00003 2.55556 7.00003Z" fill="#64717C"/>
<path d="M2.55556 9.2222C2.86238 9.2222 3.11111 8.97346 3.11111 8.66664C3.11111 8.35982 2.86238 8.11108 2.55556 8.11108C2.24873 8.11108 2 8.35982 2 8.66664C2 8.97346 2.24873 9.2222 2.55556 9.2222Z" fill="#64717C"/>
<path d="M2.55556 11.4444C2.86238 11.4444 3.11111 11.1956 3.11111 10.8889C3.11111 10.5821 2.86238 10.3333 2.55556 10.3333C2.24873 10.3333 2 10.5821 2 10.8889C2 11.1956 2.24873 11.4444 2.55556 11.4444Z" fill="#64717C"/>
<path d="M2.55556 15.8889C2.86238 15.8889 3.11111 15.6401 3.11111 15.3333C3.11111 15.0265 2.86238 14.7778 2.55556 14.7778C2.24873 14.7778 2 15.0265 2 15.3333C2 15.6401 2.24873 15.8889 2.55556 15.8889Z" fill="#64717C"/>
<path d="M2.55556 18.1111C2.86238 18.1111 3.11111 17.8623 3.11111 17.5556C3.11111 17.2488 2.86238 17 2.55556 17C2.24873 17 2 17.2488 2 17.5556C2 17.8623 2.24873 18.1111 2.55556 18.1111Z" fill="#64717C"/>
<path d="M2.55556 13.6667C2.86238 13.6667 3.11111 13.4179 3.11111 13.1111C3.11111 12.8043 2.86238 12.5555 2.55556 12.5555C2.24873 12.5555 2 12.8043 2 13.1111C2 13.4179 2.24873 13.6667 2.55556 13.6667Z" fill="#64717C"/>
<path d="M18.9444 14.2222H5.05556C4.90278 14.2222 4.77778 14.0972 4.77778 13.9444V13.3889C4.77778 13.2361 4.90278 13.1111 5.05556 13.1111H18.9444C19.0972 13.1111 19.2222 13.2361 19.2222 13.3889V13.9444C19.2222 14.0972 19.0972 14.2222 18.9444 14.2222Z" fill="url(#paint0_linear_40_4369)"/>
<path d="M16.7222 10.8889H5.05556C4.90278 10.8889 4.77778 10.7639 4.77778 10.6111V10.0555C4.77778 9.90277 4.90278 9.77777 5.05556 9.77777H16.7222C16.875 9.77777 17 9.90277 17 10.0555V10.6111C17 10.7639 16.875 10.8889 16.7222 10.8889Z" fill="url(#paint1_linear_40_4369)"/>
<path d="M18.9444 7.55557H5.05556C4.90278 7.55557 4.77778 7.43057 4.77778 7.27779V6.72224C4.77778 6.56946 4.90278 6.44446 5.05556 6.44446H18.9444C19.0972 6.44446 19.2222 6.56946 19.2222 6.72224V7.27779C19.2222 7.43057 19.0972 7.55557 18.9444 7.55557Z" fill="url(#paint2_linear_40_4369)"/>
<path d="M16.7222 17.5556H5.05556C4.90278 17.5556 4.77778 17.4306 4.77778 17.2778V16.7222C4.77778 16.5695 4.90278 16.4445 5.05556 16.4445H16.7222C16.875 16.4445 17 16.5695 17 16.7222V17.2778C17 17.4306 16.875 17.5556 16.7222 17.5556Z" fill="url(#paint3_linear_40_4369)"/>
<defs>
<linearGradient id="paint0_linear_40_4369" x1="12" y1="13.1088" x2="12" y2="14.2182" gradientUnits="userSpaceOnUse">
<stop stop-color="#2AA4F4"/>
<stop offset="1" stop-color="#007AD9"/>
</linearGradient>
<linearGradient id="paint1_linear_40_4369" x1="10.8889" y1="9.77544" x2="10.8889" y2="10.8849" gradientUnits="userSpaceOnUse">
<stop stop-color="#2AA4F4"/>
<stop offset="1" stop-color="#007AD9"/>
</linearGradient>
<linearGradient id="paint2_linear_40_4369" x1="12" y1="6.44212" x2="12" y2="7.55156" gradientUnits="userSpaceOnUse">
<stop stop-color="#2AA4F4"/>
<stop offset="1" stop-color="#007AD9"/>
</linearGradient>
<linearGradient id="paint3_linear_40_4369" x1="10.8889" y1="16.4421" x2="10.8889" y2="17.5516" gradientUnits="userSpaceOnUse">
<stop stop-color="#2AA4F4"/>
<stop offset="1" stop-color="#007AD9"/>
</linearGradient>
</defs>
</svg>
