<svg width="24" height="24" viewBox="0 0 24 24" fill="none" xmlns="http://www.w3.org/2000/svg">
<path d="M18.4444 20.4444C19.1808 20.4444 19.7778 19.8475 19.7778 19.1111C19.7778 18.3747 19.1808 17.7778 18.4444 17.7778C17.7081 17.7778 17.1111 18.3747 17.1111 19.1111C17.1111 19.8475 17.7081 20.4444 18.4444 20.4444Z" fill="#5C5F61"/>
<path opacity="0.15" d="M18.4444 19.5555C18.6899 19.5555 18.8889 19.3565 18.8889 19.1111C18.8889 18.8656 18.6899 18.6666 18.4444 18.6666C18.199 18.6666 18 18.8656 18 19.1111C18 19.3565 18.199 19.5555 18.4444 19.5555Z" fill="black"/>
<path d="M8.66667 20.4444C9.40305 20.4444 10 19.8475 10 19.1111C10 18.3747 9.40305 17.7778 8.66667 17.7778C7.93029 17.7778 7.33333 18.3747 7.33333 19.1111C7.33333 19.8475 7.93029 20.4444 8.66667 20.4444Z" fill="#5C5F61"/>
<path opacity="0.15" d="M8.66667 19.5555C8.91212 19.5555 9.11111 19.3565 9.11111 19.1111C9.11111 18.8656 8.91212 18.6666 8.66667 18.6666C8.42121 18.6666 8.22222 18.8656 8.22222 19.1111C8.22222 19.3565 8.42121 19.5555 8.66667 19.5555Z" fill="black"/>
<path d="M6.90178 13.7778H21.5422C21.7951 13.7778 22 13.9769 22 14.2222V15.1111C22 15.3564 21.7951 15.5555 21.5427 15.5555H6.90178C6.64933 15.5555 6.44444 15.3564 6.44444 15.1111V14.2222C6.44444 13.9769 6.64933 13.7778 6.90178 13.7778Z" fill="url(#paint0_linear_40_4403)"/>
<path d="M20.2222 18.2222H7.64178C6.98711 18.2222 6.43422 17.7538 6.32667 17.108L4.41422 5.63156C4.34222 5.20133 3.97333 4.88889 3.53689 4.88889H2.88889C2.64356 4.88889 2.44444 4.68978 2.44444 4.44444C2.44444 4.19911 2.64356 4 2.88889 4H3.53689C4.40933 4 5.14711 4.62489 5.29067 5.48533L7.20356 16.9618C7.23956 17.1769 7.424 17.3333 7.64178 17.3333H20.2222C20.4676 17.3333 20.6667 17.5324 20.6667 17.7778C20.6667 18.0231 20.4676 18.2222 20.2222 18.2222Z" fill="url(#paint1_linear_40_4403)"/>
<path d="M3.77778 4.44443C3.77778 4.9351 3.37956 5.33332 2.88889 5.33332C2.39822 5.33332 2 4.9351 2 4.44443C2 3.95376 2.39822 3.55554 2.88889 3.55554C3.37956 3.55554 3.77778 3.95376 3.77778 4.44443Z" fill="url(#paint2_linear_40_4403)"/>
<path d="M20.4444 13.7777H8V5.3333C8 5.08797 8.19911 4.88885 8.44444 4.88885H20C20.2453 4.88885 20.4444 5.08797 20.4444 5.3333V13.7777Z" fill="#E3A600"/>
<defs>
<linearGradient id="paint0_linear_40_4403" x1="6.44444" y1="14.6667" x2="22" y2="14.6667" gradientUnits="userSpaceOnUse">
<stop stop-color="#3079D6"/>
<stop offset="1" stop-color="#297CD2"/>
</linearGradient>
<linearGradient id="paint1_linear_40_4403" x1="11.5556" y1="18.1467" x2="11.5556" y2="13.4364" gradientUnits="userSpaceOnUse">
<stop stop-color="#92A3B0"/>
<stop offset="0.015" stop-color="#A3B5C4"/>
<stop offset="0.032" stop-color="#AEC2D1"/>
<stop offset="0.046" stop-color="#B2C6D6"/>
</linearGradient>
<linearGradient id="paint2_linear_40_4403" x1="2.336" y1="3.89154" x2="3.504" y2="5.05954" gradientUnits="userSpaceOnUse">
<stop stop-color="#199AE0"/>
<stop offset="1" stop-color="#0782D8"/>
</linearGradient>
</defs>
</svg>
