<svg width="24" height="24" viewBox="0 0 24 24" fill="none" xmlns="http://www.w3.org/2000/svg">
<path d="M4.67831 11.1073L20.7482 4.72046V16.464C20.7482 16.9572 20.3487 17.3568 19.8554 17.3568H4.67831V11.1073Z" fill="url(#paint0_linear_40_4413)"/>
<path d="M2 4.72046V16.464C2 16.9572 2.39952 17.3568 2.89277 17.3568H19.8554C20.0746 17.3568 20.2728 17.2746 20.4282 17.1434L2 4.72046Z" fill="url(#paint1_linear_40_4413)"/>
<path opacity="0.05" d="M2 4.41156H20.7482V5.16685L13.0168 11.1707C12.0504 11.9211 10.6978 11.9211 9.73141 11.1707L2 5.16685V4.41156Z" fill="black"/>
<path opacity="0.07" d="M2 4.18835H20.7482V4.94364L12.6981 10.7967C11.9116 11.3787 10.8367 11.3787 10.0501 10.7967L2 4.94364V4.18835Z" fill="black"/>
<path d="M2.89277 3.07239H19.8554C20.3487 3.07239 20.7482 3.4719 20.7482 3.96516V4.72045L12.3794 10.4226C11.7727 10.8359 10.975 10.8359 10.3688 10.4226L2 4.72045V3.96516C2 3.4719 2.39952 3.07239 2.89277 3.07239Z" fill="url(#paint2_linear_40_4413)"/>
<path opacity="0.05" d="M20.7482 15.1753L19.1502 13.5772C18.9971 13.4237 18.7953 13.3393 18.5815 13.3393C18.1351 13.3393 17.7722 13.7018 17.7722 14.1468V15.7199H14.6475C14.073 15.7199 13.606 16.1868 13.606 16.7613V17.3568H20.7482V15.1753Z" fill="black"/>
<path opacity="0.07" d="M20.7482 15.4908L18.9921 13.7347C18.8814 13.6236 18.7359 13.5624 18.5819 13.5624C18.2587 13.5624 17.9958 13.8245 17.9958 14.1468V15.943H14.6479C14.1966 15.943 13.8297 16.3099 13.8297 16.7612V17.3567H20.7482V15.4908Z" fill="black"/>
<path d="M18.2186 14.1468V16.1663H14.6475C14.3189 16.1663 14.0524 16.4328 14.0524 16.7613V17.9518C14.0524 18.2804 14.3189 18.5469 14.6475 18.5469H18.2186V20.5663C18.2186 20.8877 18.6074 21.0484 18.8341 20.8212L21.7887 17.8666C22.0704 17.5849 22.0704 17.1278 21.7887 16.8466L18.8341 13.8919C18.6074 13.6647 18.2186 13.8254 18.2186 14.1468Z" fill="url(#paint3_linear_40_4413)"/>
<defs>
<linearGradient id="paint0_linear_40_4413" x1="10.2653" y1="7.37467" x2="21.0125" y2="23.4602" gradientUnits="userSpaceOnUse">
<stop stop-color="#28AFEA"/>
<stop offset="1" stop-color="#0B88DA"/>
</linearGradient>
<linearGradient id="paint1_linear_40_4413" x1="1.28935" y1="10.3976" x2="16.8785" y2="20.1083" gradientUnits="userSpaceOnUse">
<stop stop-color="#28AFEA"/>
<stop offset="1" stop-color="#0B88DA"/>
</linearGradient>
<linearGradient id="paint2_linear_40_4413" x1="7.91105" y1="3.18999" x2="9.7906" y2="12.0596" gradientUnits="userSpaceOnUse">
<stop stop-color="#7DD8F3"/>
<stop offset="1" stop-color="#45B0D0"/>
</linearGradient>
<linearGradient id="paint3_linear_40_4413" x1="15.2163" y1="14.8315" x2="20.2378" y2="20.4193" gradientUnits="userSpaceOnUse">
<stop stop-color="#21AD64"/>
<stop offset="1" stop-color="#088242"/>
</linearGradient>
</defs>
</svg>
