<svg width="24" height="24" viewBox="0 0 24 24" fill="none" xmlns="http://www.w3.org/2000/svg">
<path d="M20.6932 5.18182H3.30682C2.585 5.18182 2 5.76682 2 6.48864V17.5114C2 18.2332 2.585 18.8182 3.30682 18.8182H20.6932C21.415 18.8182 22 18.2332 22 17.5114V6.48864C22 5.76682 21.415 5.18182 20.6932 5.18182Z" fill="url(#paint0_linear_40_4447)"/>
<path opacity="0.05" d="M20.8359 13.4109C20.8355 13.4105 20.8355 13.4105 20.8359 13.4109L19.7059 9.65686C19.6214 9.37595 19.3677 9.18731 19.0746 9.18731H17.7373C17.4482 9.18731 17.1882 9.38094 17.1059 9.65821L16.5332 11.5846C16.55 11.4087 16.5509 11.2496 16.5509 11.1337C16.5509 10.5514 16.5509 9.18731 14.685 9.18731H12.8405C12.4773 9.18731 12.1814 9.48276 12.1814 9.84594V9.94049C12.1591 9.90003 12.1309 9.86186 12.0959 9.82913C11.605 9.36459 10.9605 9.10822 10.28 9.10822C9.74955 9.10822 9.23774 9.26412 8.80092 9.55867C8.46592 9.78412 8.19183 10.081 7.99546 10.4273H7.85001C7.67319 10.4273 7.51228 10.53 7.43774 10.69L7.13637 11.3373C7.12774 11.3555 7.1241 11.375 7.11819 11.3941C7.07183 11.3273 7.02274 11.2659 6.96819 11.2141C7.01319 11.185 7.0541 11.15 7.09137 11.11C7.21637 10.9741 7.27955 10.7914 7.2641 10.6073C7.18955 9.70822 6.8391 9.18731 5.26864 9.18731C4.31046 9.18731 3.11774 9.18732 3.10592 10.8391C3.10228 11.2964 3.29046 11.7155 3.59819 12.02C3.48319 12.0509 3.37728 12.1137 3.2941 12.2009C3.1691 12.3318 3.10228 12.5118 3.11137 12.6941C3.17364 13.9391 3.94137 14.1827 5.24592 14.1827L5.37955 14.1846C5.43728 14.1859 5.50092 14.1873 5.5691 14.1873C5.96955 14.1873 6.51774 14.1405 6.91955 13.7473C7.1291 13.5418 7.26274 13.2655 7.33137 12.9327C7.39728 12.9687 7.47183 12.9882 7.5491 12.9882H8.01501C8.47728 13.7673 9.33592 14.2559 10.2805 14.2559C10.8073 14.2559 11.315 14.1023 11.7496 13.8114C11.8746 13.7277 11.95 13.5887 11.9514 13.4382L11.9596 12.6255C11.9614 12.4323 11.8409 12.2591 11.6596 12.1937C11.55 12.1541 11.4332 12.1591 11.3309 12.2014L11.3955 12.0605C11.4227 12.0009 11.4364 11.9377 11.4368 11.8746C11.4855 11.8332 11.5255 11.7814 11.5536 11.7209L11.855 11.0737C11.8714 11.0387 11.8827 11.0023 11.8896 10.965C11.9 10.9491 11.91 10.9323 11.9186 10.915L12.1818 10.38V13.5237C12.1818 13.8873 12.4773 14.1827 12.8409 14.1827H13.5318C13.895 14.1827 14.1905 13.8873 14.1905 13.5237V13.07H14.9618C15.675 13.07 16.0664 12.7864 16.2832 12.4264L15.9873 13.4218C15.9341 13.6 15.9686 13.795 16.08 13.9441C16.1914 14.0932 16.3686 14.1823 16.5546 14.1823H17.3264C17.6218 14.1823 17.8832 13.9832 17.9614 13.6991L18.0232 13.4764H18.8068L18.8755 13.7091C18.9573 13.9877 19.2173 14.1827 19.5077 14.1827H20.2623C20.4509 14.1827 20.6305 14.0927 20.7432 13.9414C20.855 13.79 20.89 13.5914 20.8359 13.4109ZM14.19 11.2305V10.9905H14.43C14.4623 10.9905 14.4886 10.9909 14.5105 10.9923C14.5132 11.0273 14.515 11.0755 14.515 11.1414C14.515 11.1759 14.5146 11.2055 14.5136 11.2296C14.4882 11.23 14.4577 11.2305 14.4209 11.2305H14.19Z" fill="black"/>
<path opacity="0.07" d="M6.20955 11.1805H6.60728C6.72728 11.1805 6.84273 11.13 6.9241 11.0414C7.00637 10.9523 7.04728 10.8323 7.03773 10.7114C6.96955 9.89003 6.68728 9.49957 5.26864 9.49957C4.27864 9.49957 3.34364 9.49957 3.33319 10.9259C3.32819 11.5709 3.76682 12.1282 4.37637 12.3091C4.37591 12.3091 4.37546 12.3091 4.37501 12.3091H3.76955C3.65091 12.3091 3.54046 12.3564 3.45864 12.4427C3.37637 12.5291 3.33228 12.6473 3.33819 12.7682C3.38637 13.7314 3.85001 14.0409 5.24591 14.0409L5.38455 14.0432C5.44319 14.0441 5.50682 14.0455 5.57319 14.0455C5.94591 14.0455 6.41955 14.0037 6.76001 13.6705C7.02455 13.4118 7.15819 13.0196 7.15819 12.5059C7.15864 11.5873 6.75091 11.2882 6.20955 11.1805ZM4.85228 11.045C4.85228 11.0446 4.83955 11.0237 4.83955 10.9441C4.83955 10.7882 4.83955 10.7718 5.25819 10.7718C5.51319 10.7718 5.56001 10.8077 5.57091 10.8314C5.60182 10.9641 5.68501 11.0705 5.7941 11.13C5.75001 11.1268 5.70546 11.1241 5.66091 11.1223L5.45955 11.1127C5.18455 11.1014 4.90001 11.0882 4.85228 11.045ZM5.65682 12.4659C5.65819 12.4691 5.66455 12.4891 5.66682 12.6046C5.67046 12.6546 5.67001 12.6832 5.65501 12.6996C5.64455 12.7109 5.57773 12.7691 5.32864 12.7691L5.20001 12.77C4.82046 12.7768 4.81455 12.7555 4.79864 12.6668C4.77228 12.525 4.68091 12.41 4.5591 12.3514C4.6041 12.3591 4.64955 12.3641 4.69591 12.3677L4.8591 12.3791C5.25819 12.4077 5.60319 12.4318 5.65682 12.4659Z" fill="black"/>
<path opacity="0.07" d="M14.685 9.5H12.8404C12.6027 9.5 12.4086 9.69364 12.4086 9.93136V13.6091C12.4086 13.8473 12.6023 14.0409 12.8404 14.0409H13.5314C13.7691 14.0409 13.9627 13.8473 13.9627 13.6091V12.9282H14.9614C16.1618 12.9282 16.3236 12.0646 16.3236 11.2191C16.3236 10.3264 16.125 9.5 14.685 9.5ZM14.7427 11.2268C14.7427 11.4523 14.7218 11.5064 14.7154 11.5164C14.6968 11.5286 14.6309 11.5436 14.4214 11.5436H13.9627V10.8491H14.43C14.7427 10.8486 14.7427 10.8486 14.7427 11.2268Z" fill="black"/>
<path opacity="0.07" d="M20.6182 13.5618L19.4882 9.80773C19.4327 9.62364 19.2668 9.5 19.075 9.5H17.7377C17.5482 9.5 17.3782 9.62682 17.3241 9.80864L16.2055 13.5723C16.1727 13.6818 16.1941 13.8023 16.2623 13.8941C16.3318 13.9877 16.4382 14.0409 16.5545 14.0409H17.3264C17.52 14.0409 17.6909 13.9105 17.7423 13.7241L17.85 13.335H18.9768L19.0936 13.7309C19.1473 13.9136 19.3177 14.0414 19.5077 14.0414H20.2623C20.3809 14.0414 20.4895 13.9868 20.5609 13.8914C20.6323 13.7959 20.6523 13.6759 20.6182 13.5618ZM18.6273 12.0846H18.2118L18.4164 11.3646L18.6273 12.0846Z" fill="black"/>
<path opacity="0.07" d="M10.2805 9.42096C9.79545 9.42096 9.32773 9.56323 8.92818 9.83232C8.58636 10.0628 8.31318 10.3746 8.13272 10.74H7.85C7.76182 10.74 7.68136 10.7909 7.64409 10.8714L7.34272 11.5187C7.31 11.5891 7.31545 11.6714 7.35727 11.7364C7.39909 11.8023 7.47091 11.8414 7.54863 11.8414H7.65545C7.65136 11.8482 7.64772 11.8546 7.645 11.8619L7.34182 12.5241C7.30954 12.5946 7.31545 12.6764 7.35727 12.7419C7.39909 12.8069 7.47091 12.8459 7.54863 12.8459H8.14818C8.55182 13.6209 9.37227 14.1137 10.28 14.1137C10.7618 14.1137 11.2259 13.9732 11.6232 13.7078C11.6855 13.6659 11.7236 13.5959 11.7241 13.5209L11.7323 12.7082C11.7332 12.6119 11.6732 12.525 11.5823 12.4919C11.4923 12.4605 11.39 12.4873 11.3286 12.5623C11.325 12.5669 10.9455 13.0246 10.3532 13.0246C10.1123 13.0246 9.88636 12.9614 9.69318 12.845H10.6782C10.7668 12.845 10.8477 12.7932 10.885 12.7123L11.1886 12.05C11.22 11.9819 11.2155 11.9023 11.1768 11.8382C11.2509 11.8264 11.315 11.7787 11.3473 11.7096L11.6486 11.0623C11.6636 11.03 11.6709 10.9955 11.67 10.9605C11.6882 10.9428 11.7032 10.9219 11.7145 10.8987L11.9877 10.3432C12.0318 10.2541 12.0123 10.1464 11.94 10.0778C11.4918 9.65505 10.9023 9.42096 10.2805 9.42096ZM9.585 10.7405C10.0245 10.3991 10.6909 10.3996 11.1282 10.7405H9.585Z" fill="black"/>
<path d="M4.61227 10.8582C4.61227 10.4978 4.795 10.4591 5.25818 10.4591C5.62136 10.4591 5.75182 10.5232 5.79182 10.6941C5.815 10.7923 5.89273 10.8678 5.99318 10.8678H6.60682C6.72636 10.8678 6.82045 10.7641 6.81045 10.645C6.76 10.0309 6.66773 9.64185 5.26864 9.64185C4.14773 9.64185 3.56864 9.71548 3.56045 10.8428C3.55591 11.4837 4.07273 12.0096 4.71227 12.0555C5.76227 12.1309 5.89273 12.12 5.89273 12.4741C5.89273 12.555 5.98364 12.9114 5.32909 12.9114C4.89818 12.9114 4.63591 12.9509 4.575 12.6228C4.55682 12.5255 4.47409 12.4514 4.375 12.4514H3.76955C3.65091 12.4514 3.55909 12.5532 3.56545 12.6718C3.60455 13.4646 3.905 13.7282 5.24591 13.7282C5.79 13.7282 6.93136 13.8814 6.93136 12.42C6.93136 11.4446 6.45727 11.3028 5.65 11.2637C4.84727 11.2246 4.61227 11.2528 4.61227 10.8582Z" fill="white"/>
<path d="M14.685 9.64185H12.8405C12.7277 9.64185 12.6364 9.73321 12.6364 9.84594V13.5237C12.6364 13.6364 12.7277 13.7278 12.8405 13.7278H13.5314C13.6441 13.7278 13.7355 13.6364 13.7355 13.5237V12.6155C13.7355 12.6155 14.8568 12.6155 14.9614 12.6155C15.8495 12.6155 16.0964 12.1205 16.0964 11.1337C16.0964 10.2628 15.925 9.64185 14.685 9.64185ZM14.4214 11.685H13.7355V10.5359H14.43C14.8682 10.5359 14.9696 10.6332 14.9696 11.1409C14.97 11.6318 14.8868 11.685 14.4214 11.685Z" fill="white"/>
<path d="M20.4005 13.5414L19.2705 9.7873C19.2445 9.70094 19.165 9.64185 19.075 9.64185H17.7377C17.6473 9.64185 17.5677 9.70139 17.5418 9.78775L16.4227 13.5514C16.3964 13.6396 16.4627 13.7278 16.5545 13.7278H17.3264C17.4182 13.7278 17.4986 13.6664 17.5232 13.5778L17.6773 13.0214H19.1468L19.3118 13.5809C19.3373 13.6678 19.4173 13.7278 19.5077 13.7278H20.2623C20.3586 13.7282 20.4282 13.6346 20.4005 13.5414ZM17.9114 12.2259L18.4136 10.4591L18.9309 12.2259H17.9114Z" fill="white"/>
<path d="M10.2804 9.56274C9.84045 9.56274 9.41681 9.69183 9.05545 9.93547C8.70636 10.1709 8.43818 10.4986 8.27863 10.8818H7.84999L7.54863 11.5291H8.12408C8.12045 11.5836 8.11727 11.635 8.11727 11.6818C8.11727 11.7436 8.1209 11.8073 8.12681 11.8709H7.85181L7.54863 12.5336H8.29136C8.63408 13.3127 9.41363 13.8009 10.2804 13.8009C10.7168 13.8009 11.1373 13.6741 11.4973 13.4336L11.5054 12.6209C11.5054 12.6209 11.0609 13.1668 10.3541 13.1668C9.86363 13.1668 9.40908 12.9382 9.12908 12.5332H10.6791L10.9827 11.8705H8.87727C8.86772 11.8018 8.86181 11.7323 8.86181 11.6636C8.86181 11.6191 8.86454 11.5736 8.86863 11.5286H11.1418L11.4432 10.8814H9.08227C9.35272 10.4364 9.8359 10.1605 10.3541 10.1605C10.8041 10.1605 11.2254 10.3623 11.5109 10.7136L11.7836 10.1582C11.3777 9.77456 10.8441 9.56274 10.2804 9.56274Z" fill="url(#paint1_linear_40_4447)"/>
<defs>
<linearGradient id="paint0_linear_40_4447" x1="10.3523" y1="6.11864" x2="14.1582" y2="19.7032" gradientUnits="userSpaceOnUse">
<stop stop-color="#1D59B3"/>
<stop offset="1" stop-color="#195BBC"/>
</linearGradient>
<linearGradient id="paint1_linear_40_4447" x1="7.54863" y1="11.6823" x2="11.7836" y2="11.6823" gradientUnits="userSpaceOnUse">
<stop stop-color="#FEDE00"/>
<stop offset="1" stop-color="#FFD000"/>
</linearGradient>
</defs>
</svg>
