<svg width="24" height="24" viewBox="0 0 24 24" fill="none" xmlns="http://www.w3.org/2000/svg">
<path d="M14.4161 14.7038C13.6861 14.7966 12.9377 14.4547 12.5463 13.7769C12.1554 13.0997 12.2331 12.2807 12.6782 11.6948C11.9868 11.0383 11.1447 10.5409 10.2061 10.2635C9.9221 10.9436 9.25098 11.4221 8.46776 11.4221C7.68455 11.4221 7.01342 10.9436 6.72943 10.2635C5.7908 10.5414 4.94871 11.0383 4.25733 11.6948C4.7024 12.2807 4.78011 13.0997 4.3892 13.7769C3.9983 14.4542 3.24994 14.7966 2.51947 14.7038C2.40974 15.1625 2.34521 15.6391 2.34521 16.1318C2.34521 16.6244 2.40974 17.101 2.51947 17.5597C3.24947 17.467 3.99783 17.8094 4.3892 18.4866C4.78011 19.1638 4.7024 19.9829 4.25733 20.5687C4.94871 21.2253 5.7908 21.7226 6.72943 22C7.01342 21.3199 7.68455 20.8414 8.46776 20.8414C9.25098 20.8414 9.9221 21.3199 10.2061 22C11.1447 21.7221 11.9868 21.2253 12.6782 20.5687C12.2331 19.9829 12.155 19.1638 12.5463 18.4866C12.9372 17.8094 13.6856 17.467 14.4161 17.5597C14.5258 17.101 14.5903 16.6244 14.5903 16.1318C14.5903 15.6391 14.5258 15.1625 14.4161 14.7038Z" fill="url(#paint0_linear_40_4483)"/>
<path d="M8.46776 19.4285C10.2885 19.4285 11.7645 17.9525 11.7645 16.1318C11.7645 14.311 10.2885 12.835 8.46776 12.835C6.64701 12.835 5.17101 14.311 5.17101 16.1318C5.17101 17.9525 6.64701 19.4285 8.46776 19.4285Z" fill="url(#paint1_linear_40_4483)"/>
<path d="M8.46777 18.1386C9.57608 18.1386 10.4745 17.2401 10.4745 16.1318C10.4745 15.0235 9.57608 14.125 8.46777 14.125C7.35944 14.125 6.46098 15.0235 6.46098 16.1318C6.46098 17.2401 7.35944 18.1386 8.46777 18.1386Z" fill="url(#paint2_linear_40_4483)"/>
<path d="M14.4161 14.7038C13.6861 14.7966 12.9377 14.4547 12.5463 13.7769C12.1554 13.0997 12.2331 12.2807 12.6782 11.6948C11.9868 11.0383 11.1447 10.5409 10.2061 10.2635C9.9221 10.9436 9.25098 11.4221 8.46776 11.4221C7.68455 11.4221 7.01342 10.9436 6.72943 10.2635C5.7908 10.5414 4.94871 11.0383 4.25733 11.6948C4.7024 12.2807 4.78011 13.0997 4.3892 13.7769C3.9983 14.4542 3.24994 14.7966 2.51947 14.7038C2.40974 15.1625 2.34521 15.6391 2.34521 16.1318C2.34521 16.6244 2.40974 17.101 2.51947 17.5597C3.24947 17.467 3.99783 17.8094 4.3892 18.4866C4.78011 19.1638 4.7024 19.9829 4.25733 20.5687C4.94871 21.2253 5.7908 21.7226 6.72943 22C7.01342 21.3199 7.68455 20.8414 8.46776 20.8414C9.25098 20.8414 9.9221 21.3199 10.2061 22C11.1447 21.7221 11.9868 21.2253 12.6782 20.5687C12.2331 19.9829 12.155 19.1638 12.5463 18.4866C12.9372 17.8094 13.6856 17.467 14.4161 17.5597C14.5258 17.101 14.5903 16.6244 14.5903 16.1318C14.5903 15.6391 14.5258 15.1625 14.4161 14.7038Z" fill="url(#paint3_linear_40_4483)"/>
<path d="M8.46776 19.4285C10.2885 19.4285 11.7645 17.9525 11.7645 16.1318C11.7645 14.311 10.2885 12.835 8.46776 12.835C6.64701 12.835 5.17101 14.311 5.17101 16.1318C5.17101 17.9525 6.64701 19.4285 8.46776 19.4285Z" fill="url(#paint4_linear_40_4483)"/>
<path d="M8.46776 18.0156C9.50819 18.0156 10.3516 17.1722 10.3516 16.1318C10.3516 15.0913 9.50819 14.2479 8.46776 14.2479C7.42733 14.2479 6.5839 15.0913 6.5839 16.1318C6.5839 17.1722 7.42733 18.0156 8.46776 18.0156Z" fill="url(#paint5_linear_40_4483)"/>
<path d="M21.0284 4.7104C20.451 4.94636 19.7639 4.8305 19.2953 4.36189C18.8266 3.89328 18.7108 3.20614 18.9467 2.62921C18.237 2.24349 17.4387 2.02166 16.6098 2C16.5264 2.61885 16.0823 3.15763 15.4413 3.32953C14.8004 3.50144 14.1462 3.25701 13.7647 2.76249C13.0573 3.19531 12.4776 3.78731 12.0556 4.47586C12.5482 4.85782 12.7917 5.51105 12.6203 6.15109C12.4488 6.79113 11.9115 7.23525 11.2936 7.31955C11.3044 7.7194 11.3562 8.12302 11.464 8.52617C11.5719 8.92931 11.7292 9.30514 11.9199 9.65648C12.4973 9.42053 13.1845 9.53639 13.6531 10.005C14.1217 10.4736 14.2376 11.1607 14.0016 11.7377C14.7114 12.1234 15.5096 12.3452 16.3385 12.3669C16.4219 11.748 16.866 11.2092 17.507 11.0373C18.148 10.8654 18.8022 11.1099 19.1836 11.6044C19.891 11.1716 20.4708 10.5796 20.8928 9.89102C20.4001 9.50907 20.1566 8.85584 20.3281 8.2158C20.4995 7.57576 21.0369 7.13164 21.6548 7.04733C21.644 6.64749 21.5922 6.24387 21.4843 5.84072C21.3765 5.43805 21.2191 5.06222 21.0284 4.7104Z" fill="url(#paint6_linear_40_4483)"/>
<path d="M16.4742 9.97621C18.0166 9.97621 19.267 8.72583 19.267 7.18339C19.267 5.64096 18.0166 4.39056 16.4742 4.39056C14.9318 4.39056 13.6813 5.64096 13.6813 7.18339C13.6813 8.72583 14.9318 9.97621 16.4742 9.97621Z" fill="url(#paint7_linear_40_4483)"/>
<path d="M16.4742 8.88365C17.4132 8.88365 18.1744 8.12244 18.1744 7.18346C18.1744 6.24447 17.4132 5.48328 16.4742 5.48328C15.5352 5.48328 14.774 6.24447 14.774 7.18346C14.774 8.12244 15.5352 8.88365 16.4742 8.88365Z" fill="url(#paint8_linear_40_4483)"/>
<path d="M21.0284 4.7104C20.451 4.94636 19.7639 4.8305 19.2953 4.36189C18.8266 3.89328 18.7108 3.20614 18.9467 2.62921C18.237 2.24349 17.4387 2.02166 16.6098 2C16.5264 2.61885 16.0823 3.15763 15.4413 3.32953C14.8004 3.50144 14.1462 3.25701 13.7647 2.76249C13.0573 3.19531 12.4776 3.78731 12.0556 4.47586C12.5482 4.85782 12.7917 5.51105 12.6203 6.15109C12.4488 6.79113 11.9115 7.23525 11.2936 7.31955C11.3044 7.7194 11.3562 8.12302 11.464 8.52617C11.5719 8.92931 11.7292 9.30514 11.9199 9.65648C12.4973 9.42053 13.1845 9.53639 13.6531 10.005C14.1217 10.4736 14.2376 11.1607 14.0016 11.7377C14.7114 12.1234 15.5096 12.3452 16.3385 12.3669C16.4219 11.748 16.866 11.2092 17.507 11.0373C18.148 10.8654 18.8022 11.1099 19.1836 11.6044C19.891 11.1716 20.4708 10.5796 20.8928 9.89102C20.4001 9.50907 20.1566 8.85584 20.3281 8.2158C20.4995 7.57576 21.0369 7.13164 21.6548 7.04733C21.644 6.64749 21.5922 6.24387 21.4843 5.84072C21.3765 5.43805 21.2191 5.06222 21.0284 4.7104Z" fill="url(#paint9_linear_40_4483)"/>
<path d="M16.4742 9.97621C18.0166 9.97621 19.267 8.72583 19.267 7.18339C19.267 5.64096 18.0166 4.39056 16.4742 4.39056C14.9318 4.39056 13.6813 5.64096 13.6813 7.18339C13.6813 8.72583 14.9318 9.97621 16.4742 9.97621Z" fill="url(#paint10_linear_40_4483)"/>
<path d="M16.4742 8.77954C17.3556 8.77954 18.0703 8.06495 18.0703 7.18344C18.0703 6.30194 17.3556 5.58734 16.4742 5.58734C15.5926 5.58734 14.8781 6.30194 14.8781 7.18344C14.8781 8.06495 15.5926 8.77954 16.4742 8.77954Z" fill="url(#paint11_linear_40_4483)"/>
<defs>
<linearGradient id="paint0_linear_40_4483" x1="4.29784" y1="11.9619" x2="13.0145" y2="20.6785" gradientUnits="userSpaceOnUse">
<stop stop-color="#889097"/>
<stop offset="0.331" stop-color="#848C94"/>
<stop offset="0.669" stop-color="#78828B"/>
<stop offset="1" stop-color="#64717C"/>
</linearGradient>
<linearGradient id="paint1_linear_40_4483" x1="10.7647" y1="18.4287" x2="6.14025" y2="13.8043" gradientUnits="userSpaceOnUse">
<stop stop-color="white"/>
<stop offset="0.242" stop-color="#F2F2F2"/>
<stop offset="1" stop-color="#CCCCCC"/>
</linearGradient>
<linearGradient id="paint2_linear_40_4483" x1="6.59003" y1="14.254" x2="9.88395" y2="17.548" gradientUnits="userSpaceOnUse">
<stop stop-color="#0D61A9"/>
<stop offset="0.363" stop-color="#0E5FA4"/>
<stop offset="0.78" stop-color="#135796"/>
<stop offset="1" stop-color="#16528C"/>
</linearGradient>
<linearGradient id="paint3_linear_40_4483" x1="4.29784" y1="11.9619" x2="13.0145" y2="20.6785" gradientUnits="userSpaceOnUse">
<stop stop-color="#889097"/>
<stop offset="0.331" stop-color="#848C94"/>
<stop offset="0.669" stop-color="#78828B"/>
<stop offset="1" stop-color="#64717C"/>
</linearGradient>
<linearGradient id="paint4_linear_40_4483" x1="10.7647" y1="18.4287" x2="6.14025" y2="13.8043" gradientUnits="userSpaceOnUse">
<stop stop-color="white"/>
<stop offset="0.242" stop-color="#F2F2F2"/>
<stop offset="1" stop-color="#CCCCCC"/>
</linearGradient>
<linearGradient id="paint5_linear_40_4483" x1="6.70494" y1="14.369" x2="9.7973" y2="17.4613" gradientUnits="userSpaceOnUse">
<stop stop-color="#0D61A9"/>
<stop offset="0.363" stop-color="#0E5FA4"/>
<stop offset="0.78" stop-color="#135796"/>
<stop offset="1" stop-color="#16528C"/>
</linearGradient>
<linearGradient id="paint6_linear_40_4483" x1="12.1477" y1="4.6857" x2="21.1915" y2="9.90777" gradientUnits="userSpaceOnUse">
<stop stop-color="#889097"/>
<stop offset="0.331" stop-color="#848C94"/>
<stop offset="0.669" stop-color="#78828B"/>
<stop offset="1" stop-color="#64717C"/>
</linearGradient>
<linearGradient id="paint7_linear_40_4483" x1="18.8572" y1="8.55948" x2="14.0592" y2="5.78931" gradientUnits="userSpaceOnUse">
<stop stop-color="white"/>
<stop offset="0.242" stop-color="#F2F2F2"/>
<stop offset="1" stop-color="#CCCCCC"/>
</linearGradient>
<linearGradient id="paint8_linear_40_4483" x1="14.5259" y1="6.05881" x2="17.9435" y2="8.03203" gradientUnits="userSpaceOnUse">
<stop stop-color="#0D61A9"/>
<stop offset="0.363" stop-color="#0E5FA4"/>
<stop offset="0.78" stop-color="#135796"/>
<stop offset="1" stop-color="#16528C"/>
</linearGradient>
<linearGradient id="paint9_linear_40_4483" x1="12.1477" y1="4.6857" x2="21.1915" y2="9.90777" gradientUnits="userSpaceOnUse">
<stop stop-color="#889097"/>
<stop offset="0.331" stop-color="#848C94"/>
<stop offset="0.669" stop-color="#78828B"/>
<stop offset="1" stop-color="#64717C"/>
</linearGradient>
<linearGradient id="paint10_linear_40_4483" x1="18.4197" y1="9.12895" x2="14.5022" y2="5.21146" gradientUnits="userSpaceOnUse">
<stop stop-color="white"/>
<stop offset="0.242" stop-color="#F2F2F2"/>
<stop offset="1" stop-color="#CCCCCC"/>
</linearGradient>
<linearGradient id="paint11_linear_40_4483" x1="14.9807" y1="5.69001" x2="17.6002" y2="8.30952" gradientUnits="userSpaceOnUse">
<stop stop-color="#0D61A9"/>
<stop offset="0.363" stop-color="#0E5FA4"/>
<stop offset="0.78" stop-color="#135796"/>
<stop offset="1" stop-color="#16528C"/>
</linearGradient>
</defs>
</svg>
