<svg width="24" height="24" viewBox="0 0 24 24" fill="none" xmlns="http://www.w3.org/2000/svg">
<path d="M19.381 17.3598C20.0385 17.3598 20.5714 16.8268 20.5714 16.1693C20.5714 15.5118 20.0385 14.9788 19.381 14.9788C18.7234 14.9788 18.1905 15.5118 18.1905 16.1693C18.1905 16.8268 18.7234 17.3598 19.381 17.3598Z" fill="#C98E00"/>
<path d="M13.0529 21.0184L19.9429 17.2136L18.9238 15.0698L12.9524 17.836L13.0529 21.0184Z" fill="#C98E00"/>
<path d="M22 16.6455C22 15.9879 21.4671 15.455 20.8095 15.455C20.6476 15.455 20.4933 15.4879 20.3529 15.5465L20.3524 15.546L20.3471 15.5484C20.3462 15.5488 20.3452 15.5493 20.3443 15.5498L14.381 18.3122L13.6667 17.836C14.3243 17.836 14.8571 17.3031 14.8571 16.6455C14.8571 16.2027 14.6124 15.8208 14.2538 15.6155L14.2557 15.6079L7.75524 12.3384H7.74333C7.44333 12.2022 7.11286 12.1217 6.7619 12.1217C6.42 12.1217 6.09667 12.1965 5.80238 12.3265H5.7919L2 14.0265V20.2169L5.85238 18.4465L13.429 21.5455H13.4295C13.5757 21.6093 13.7357 21.6455 13.9048 21.6455C14.1119 21.6455 14.3038 21.5879 14.4738 21.4946L14.4819 21.4941L21.3719 17.6898L21.3714 17.6888C21.7438 17.4879 22 17.0988 22 16.6455Z" fill="url(#paint0_linear_40_4472)"/>
<path d="M13.6667 17.3598C14.0611 17.3598 14.3809 17.04 14.3809 16.6455C14.3809 16.251 14.0611 15.9312 13.6667 15.9312C13.2722 15.9312 12.9524 16.251 12.9524 16.6455C12.9524 17.04 13.2722 17.3598 13.6667 17.3598Z" fill="#FFDE87"/>
<path d="M14.3809 18.3122L13.6719 17.8369C13.0743 17.8083 12.6043 17.6141 8.66666 16.1641V17.836L14.1671 20.0903C14.1671 20.0903 13.7776 19.0031 14.3809 18.3122Z" fill="url(#paint1_linear_40_4472)"/>
<path d="M15.3333 11.1065C17.148 11.1065 18.6191 9.6354 18.6191 7.82075C18.6191 6.00609 17.148 4.53503 15.3333 4.53503C13.5187 4.53503 12.0476 6.00609 12.0476 7.82075C12.0476 9.6354 13.5187 11.1065 15.3333 11.1065Z" fill="url(#paint2_linear_40_4472)"/>
<path d="M15.3333 9.82074C16.4379 9.82074 17.3333 8.92531 17.3333 7.82074C17.3333 6.71617 16.4379 5.82074 15.3333 5.82074C14.2288 5.82074 13.3333 6.71617 13.3333 7.82074C13.3333 8.92531 14.2288 9.82074 15.3333 9.82074Z" fill="url(#paint3_linear_40_4472)"/>
<path d="M20.8781 6.4617C20.1957 6.45312 19.5348 6.09789 19.1686 5.4636C18.8162 4.85312 18.8233 4.13503 19.1224 3.55122C18.5152 3.01217 17.7962 2.59741 16.9995 2.35455C16.641 2.8936 16.029 3.24932 15.3333 3.24932C14.6376 3.24932 14.0257 2.8936 13.6671 2.35503C12.8705 2.59741 12.1514 3.01217 11.5443 3.5517C11.8429 4.13551 11.8505 4.8536 11.4981 5.46408C11.1319 6.09789 10.471 6.4536 9.78857 6.46217C9.68191 6.89789 9.61905 7.3517 9.61905 7.82074C9.61905 8.18741 9.65714 8.54503 9.72286 8.89265C10.4286 8.87789 11.12 9.23789 11.4981 9.89217C11.889 10.5693 11.8371 11.3788 11.4352 11.9907C12.03 12.5469 12.7419 12.9784 13.5324 13.2407C13.8552 12.5703 14.539 12.1064 15.3333 12.1064C16.1276 12.1064 16.8114 12.5703 17.1343 13.2407C17.9248 12.9779 18.6367 12.5469 19.2314 11.9907C18.8295 11.3788 18.7776 10.5693 19.1686 9.89217C19.5462 9.23789 20.2381 8.87836 20.9438 8.89265C21.0095 8.54503 21.0476 8.18741 21.0476 7.82074C21.0476 7.3517 20.9848 6.89789 20.8781 6.4617ZM15.3333 10.8207C13.6767 10.8207 12.3333 9.47741 12.3333 7.82074C12.3333 6.16408 13.6767 4.82074 15.3333 4.82074C16.99 4.82074 18.3333 6.16408 18.3333 7.82074C18.3333 9.47741 16.99 10.8207 15.3333 10.8207Z" fill="url(#paint4_linear_40_4472)"/>
<defs>
<linearGradient id="paint0_linear_40_4472" x1="2" y1="16.8836" x2="22" y2="16.8836" gradientUnits="userSpaceOnUse">
<stop stop-color="#FFCF54"/>
<stop offset="0.261" stop-color="#FDCB4D"/>
<stop offset="0.639" stop-color="#F7C13A"/>
<stop offset="1" stop-color="#F0B421"/>
</linearGradient>
<linearGradient id="paint1_linear_40_4472" x1="11.2081" y1="18.4874" x2="12.0586" y2="17.0207" gradientUnits="userSpaceOnUse">
<stop stop-color="#F0B421" stop-opacity="0"/>
<stop offset="0.512" stop-color="#E9AB12" stop-opacity="0.512"/>
<stop offset="1" stop-color="#E09F00"/>
</linearGradient>
<linearGradient id="paint2_linear_40_4472" x1="17.6224" y1="10.1098" x2="13.0133" y2="5.50075" gradientUnits="userSpaceOnUse">
<stop stop-color="white"/>
<stop offset="0.242" stop-color="#F2F2F2"/>
<stop offset="1" stop-color="#CCCCCC"/>
</linearGradient>
<linearGradient id="paint3_linear_40_4472" x1="13.4619" y1="5.94931" x2="16.7448" y2="9.23217" gradientUnits="userSpaceOnUse">
<stop stop-color="#0D61A9"/>
<stop offset="0.363" stop-color="#0E5FA4"/>
<stop offset="0.78" stop-color="#135796"/>
<stop offset="1" stop-color="#16528C"/>
</linearGradient>
<linearGradient id="paint4_linear_40_4472" x1="9.9981" y1="2.49027" x2="19.3567" y2="11.8493" gradientUnits="userSpaceOnUse">
<stop stop-color="#889097"/>
<stop offset="0.331" stop-color="#848C94"/>
<stop offset="0.669" stop-color="#78828B"/>
<stop offset="1" stop-color="#64717C"/>
</linearGradient>
</defs>
</svg>
