<svg width="24" height="24" viewBox="0 0 24 24" fill="none" xmlns="http://www.w3.org/2000/svg">
<path d="M12 17.79C15.1756 17.79 17.75 15.2156 17.75 12.04C17.75 8.86434 15.1756 6.28998 12 6.28998C8.82436 6.28998 6.25 8.86434 6.25 12.04C6.25 15.2156 8.82436 17.79 12 17.79Z" fill="url(#paint0_linear_40_4515)"/>
<path d="M12 15.54C13.933 15.54 15.5 13.973 15.5 12.04C15.5 10.107 13.933 8.53998 12 8.53998C10.067 8.53998 8.5 10.107 8.5 12.04C8.5 13.973 10.067 15.54 12 15.54Z" fill="url(#paint1_linear_40_4515)"/>
<path d="M21.7035 9.66149C20.509 9.64699 19.3525 9.02449 18.712 7.91499C18.0955 6.84699 18.108 5.59049 18.631 4.56849C17.5685 3.62499 16.31 2.89899 14.916 2.47449C14.2885 3.41799 13.2175 4.03999 12 4.03999C10.7825 4.03999 9.7115 3.41799 9.0845 2.47449C7.6905 2.89899 6.432 3.62499 5.3695 4.56849C5.8925 5.59049 5.905 6.84699 5.2885 7.91499C4.648 9.02449 3.4915 9.64699 2.297 9.66149C2.11 10.425 2 11.219 2 12.04C2 12.682 2.0665 13.3075 2.182 13.916C3.4165 13.8905 4.6275 14.52 5.2885 15.665C5.9725 16.85 5.882 18.267 5.1785 19.3375C6.2195 20.311 7.465 21.0655 8.8485 21.525C9.4135 20.352 10.6105 19.54 12 19.54C13.3895 19.54 14.5865 20.352 15.1515 21.5255C16.535 21.066 17.7805 20.3115 18.8215 19.338C18.118 18.2675 18.0275 16.8505 18.7115 15.6655C19.3725 14.5205 20.583 13.891 21.818 13.9165C21.9335 13.3075 22 12.682 22 12.04C22 11.219 21.89 10.425 21.7035 9.66149ZM12 17.29C9.1005 17.29 6.75 14.9395 6.75 12.04C6.75 9.14049 9.1005 6.78999 12 6.78999C14.8995 6.78999 17.25 9.14049 17.25 12.04C17.25 14.9395 14.8995 17.29 12 17.29Z" fill="url(#paint2_linear_40_4515)"/>
<defs>
<linearGradient id="paint0_linear_40_4515" x1="16.006" y1="16.046" x2="7.9405" y2="7.98048" gradientUnits="userSpaceOnUse">
<stop stop-color="white"/>
<stop offset="0.242" stop-color="#F2F2F2"/>
<stop offset="1" stop-color="#CCCCCC"/>
</linearGradient>
<linearGradient id="paint1_linear_40_4515" x1="8.725" y1="8.76498" x2="14.47" y2="14.51" gradientUnits="userSpaceOnUse">
<stop stop-color="#0D61A9"/>
<stop offset="0.363" stop-color="#0E5FA4"/>
<stop offset="0.78" stop-color="#135796"/>
<stop offset="1" stop-color="#16528C"/>
</linearGradient>
<linearGradient id="paint2_linear_40_4515" x1="2.663" y1="2.71199" x2="19.041" y2="19.0895" gradientUnits="userSpaceOnUse">
<stop stop-color="#889097"/>
<stop offset="0.331" stop-color="#848C94"/>
<stop offset="0.669" stop-color="#78828B"/>
<stop offset="1" stop-color="#64717C"/>
</linearGradient>
</defs>
</svg>
