<svg width="24" height="24" viewBox="0 0 24 24" fill="none" xmlns="http://www.w3.org/2000/svg">
<path d="M19.5863 19.6658H4.25465C3.00963 19.6658 2 18.6562 2 17.4111C2 16.1661 3.00963 15.1565 4.25465 15.1565H19.5863C20.8313 15.1565 21.8409 16.1661 21.8409 17.4111C21.8409 18.6562 20.8313 19.6658 19.5863 19.6658Z" fill="url(#paint0_linear_40_4526)"/>
<path d="M4.70559 18.7641C5.45272 18.7641 6.05838 18.1584 6.05838 17.4113C6.05838 16.6642 5.45272 16.0585 4.70559 16.0585C3.95846 16.0585 3.3528 16.6642 3.3528 17.4113C3.3528 18.1584 3.95846 18.7641 4.70559 18.7641Z" fill="url(#paint1_linear_40_4526)"/>
<path d="M8.31303 18.7641C9.06015 18.7641 9.66582 18.1584 9.66582 17.4113C9.66582 16.6642 9.06015 16.0585 8.31303 16.0585C7.5659 16.0585 6.96024 16.6642 6.96024 17.4113C6.96024 18.1584 7.5659 18.7641 8.31303 18.7641Z" fill="url(#paint2_linear_40_4526)"/>
<path d="M11.9205 18.7641C12.6676 18.7641 13.2733 18.1584 13.2733 17.4113C13.2733 16.6642 12.6676 16.0585 11.9205 16.0585C11.1734 16.0585 10.5677 16.6642 10.5677 17.4113C10.5677 18.1584 11.1734 18.7641 11.9205 18.7641Z" fill="url(#paint3_linear_40_4526)"/>
<path d="M15.5279 18.7641C16.275 18.7641 16.8807 18.1584 16.8807 17.4113C16.8807 16.6642 16.275 16.0585 15.5279 16.0585C14.7808 16.0585 14.1751 16.6642 14.1751 17.4113C14.1751 18.1584 14.7808 18.7641 15.5279 18.7641Z" fill="url(#paint4_linear_40_4526)"/>
<path d="M19.1354 18.7641C19.8825 18.7641 20.4881 18.1584 20.4881 17.4113C20.4881 16.6642 19.8825 16.0585 19.1354 16.0585C18.3883 16.0585 17.7826 16.6642 17.7826 17.4113C17.7826 18.1584 18.3883 18.7641 19.1354 18.7641Z" fill="url(#paint5_linear_40_4526)"/>
<path d="M6.50931 14.5555V4.93532C6.50931 4.60479 6.77987 4.33423 7.1104 4.33423H16.7301C17.0611 4.33423 17.3316 4.60479 17.3316 4.93532V14.555C17.3316 14.886 17.0611 15.1566 16.7305 15.1566H7.1104C6.77987 15.1566 6.50931 14.886 6.50931 14.5555Z" fill="url(#paint6_linear_40_4526)"/>
<path d="M13.4234 5.83718H10.4171V4.33423H13.4234V5.83718Z" fill="#FFF8E6"/>
<path opacity="0.05" d="M17.3316 8.39258H14.626C14.1287 8.39258 13.7242 8.79706 13.7242 9.29444V10.1963C13.7242 10.6937 14.1287 11.0982 14.626 11.0982H17.3316V8.39258Z" fill="black"/>
<path opacity="0.07" d="M17.3316 8.61804H14.626C14.2531 8.61804 13.9496 8.92152 13.9496 9.29444V10.1963C13.9496 10.5692 14.2531 10.8727 14.626 10.8727H17.3316V8.61804Z" fill="black"/>
<path d="M19.1354 7.31349V8.8435H14.6261C14.3771 8.8435 14.1751 9.04552 14.1751 9.29443V10.1963C14.1751 10.4452 14.3771 10.6472 14.6261 10.6472H19.1354V12.1772C19.1354 12.4207 19.4298 12.5425 19.6016 12.3702L21.84 10.1318C22.0533 9.91852 22.0533 9.5722 21.84 9.35891L19.6016 7.1205C19.4298 6.94824 19.1354 7.06999 19.1354 7.31349Z" fill="url(#paint7_linear_40_4526)"/>
<defs>
<linearGradient id="paint0_linear_40_4526" x1="11.9205" y1="20.5293" x2="11.9205" y2="16.0385" gradientUnits="userSpaceOnUse">
<stop stop-color="#737B80"/>
<stop offset="1" stop-color="#575C61"/>
</linearGradient>
<linearGradient id="paint1_linear_40_4526" x1="5.64803" y1="18.3537" x2="3.75052" y2="16.4562" gradientUnits="userSpaceOnUse">
<stop stop-color="white"/>
<stop offset="0.242" stop-color="#F2F2F2"/>
<stop offset="1" stop-color="#CCCCCC"/>
</linearGradient>
<linearGradient id="paint2_linear_40_4526" x1="9.25547" y1="18.3537" x2="7.35796" y2="16.4562" gradientUnits="userSpaceOnUse">
<stop stop-color="white"/>
<stop offset="0.242" stop-color="#F2F2F2"/>
<stop offset="1" stop-color="#CCCCCC"/>
</linearGradient>
<linearGradient id="paint3_linear_40_4526" x1="12.8629" y1="18.3537" x2="10.9654" y2="16.4562" gradientUnits="userSpaceOnUse">
<stop stop-color="white"/>
<stop offset="0.242" stop-color="#F2F2F2"/>
<stop offset="1" stop-color="#CCCCCC"/>
</linearGradient>
<linearGradient id="paint4_linear_40_4526" x1="16.4704" y1="18.3537" x2="14.5728" y2="16.4562" gradientUnits="userSpaceOnUse">
<stop stop-color="white"/>
<stop offset="0.242" stop-color="#F2F2F2"/>
<stop offset="1" stop-color="#CCCCCC"/>
</linearGradient>
<linearGradient id="paint5_linear_40_4526" x1="20.0778" y1="18.3537" x2="18.1803" y2="16.4562" gradientUnits="userSpaceOnUse">
<stop stop-color="white"/>
<stop offset="0.242" stop-color="#F2F2F2"/>
<stop offset="1" stop-color="#CCCCCC"/>
</linearGradient>
<linearGradient id="paint6_linear_40_4526" x1="6.99812" y1="2.61844" x2="14.3668" y2="13.287" gradientUnits="userSpaceOnUse">
<stop stop-color="#FFD869"/>
<stop offset="1" stop-color="#FEC52B"/>
</linearGradient>
<linearGradient id="paint7_linear_40_4526" x1="16.6422" y1="7.12288" x2="18.7227" y2="12.9234" gradientUnits="userSpaceOnUse">
<stop stop-color="#7DD8F3"/>
<stop offset="1" stop-color="#45B0D0"/>
</linearGradient>
</defs>
</svg>
