<svg width="24" height="24" viewBox="0 0 24 24" fill="none" xmlns="http://www.w3.org/2000/svg">
<path d="M20.421 22H3.57894C3.28842 22 3.05263 21.7642 3.05263 21.4737V19.8948H20.9474V21.4737C20.9474 21.7642 20.7116 22 20.421 22Z" fill="#1B9DE2"/>
<path d="M20.9474 19.8947H3.05263V3.05263C3.05263 2.47105 3.52368 2 4.10526 2H19.8947C20.4763 2 20.9474 2.47105 20.9474 3.05263V19.8947Z" fill="#0078D4"/>
<path d="M15.6842 6.21049C16.2656 6.21049 16.7368 5.7392 16.7368 5.15786C16.7368 4.57651 16.2656 4.10522 15.6842 4.10522C15.1028 4.10522 14.6316 4.57651 14.6316 5.15786C14.6316 5.7392 15.1028 6.21049 15.6842 6.21049Z" fill="url(#paint0_linear_40_4545)"/>
<path d="M8.31578 6.21049C8.89713 6.21049 9.36842 5.7392 9.36842 5.15786C9.36842 4.57651 8.89713 4.10522 8.31578 4.10522C7.73444 4.10522 7.26315 4.57651 7.26315 5.15786C7.26315 5.7392 7.73444 6.21049 8.31578 6.21049Z" fill="url(#paint1_linear_40_4545)"/>
<path opacity="0.05" d="M12 12C9.38842 12 7.26315 9.8747 7.26315 7.26312V5.15786C7.26315 4.5768 7.73473 4.10522 8.31578 4.10522C8.89684 4.10522 9.36842 4.5768 9.36842 5.15786V7.26312C9.36842 8.71417 10.5489 9.8947 12 9.8947C13.451 9.8947 14.6316 8.71417 14.6316 7.26312V5.15786C14.6316 4.5768 15.1032 4.10522 15.6842 4.10522C16.2653 4.10522 16.7368 4.5768 16.7368 5.15786V7.26312C16.7368 9.8747 14.6116 12 12 12Z" fill="black"/>
<path opacity="0.1" d="M12 11.4737C9.53315 11.4737 7.52631 9.46683 7.52631 6.99999V5.15788C7.52631 4.72209 7.87999 4.36841 8.31578 4.36841C8.75157 4.36841 9.10525 4.72209 9.10525 5.15788V6.99999C9.10525 8.5963 10.4037 9.89472 12 9.89472C13.5963 9.89472 14.8947 8.5963 14.8947 6.99999V5.15788C14.8947 4.72209 15.2484 4.36841 15.6842 4.36841C16.12 4.36841 16.4737 4.72209 16.4737 5.15788V6.99999C16.4737 9.46683 14.4668 11.4737 12 11.4737Z" fill="black"/>
<path d="M8.31578 5.15784V6.73678C8.31578 8.77152 9.96525 10.421 12 10.421C14.0347 10.421 15.6842 8.77152 15.6842 6.73678V5.15784" stroke="white" stroke-miterlimit="10" stroke-linecap="round" stroke-linejoin="round"/>
<defs>
<linearGradient id="paint0_linear_40_4545" x1="15.3624" y1="4.19729" x2="15.7073" y2="6.43856" gradientUnits="userSpaceOnUse">
<stop stop-color="#0D61A9"/>
<stop offset="1" stop-color="#16528C"/>
</linearGradient>
<linearGradient id="paint1_linear_40_4545" x1="7.994" y1="4.19729" x2="8.33881" y2="6.43856" gradientUnits="userSpaceOnUse">
<stop stop-color="#0D61A9"/>
<stop offset="1" stop-color="#16528C"/>
</linearGradient>
</defs>
</svg>
