<svg width="24" height="24" viewBox="0 0 24 24" fill="none" xmlns="http://www.w3.org/2000/svg">
<path d="M20.2927 21.0243H3.70732V5.41457C3.70732 4.87555 4.14391 4.43896 4.68293 4.43896H19.3171C19.8561 4.43896 20.2927 4.87555 20.2927 5.41457V21.0243Z" fill="url(#paint0_linear_40_4581)"/>
<path d="M19.8049 22H4.19513C3.92586 22 3.70732 21.7815 3.70732 21.5122V20.5366H20.2927V21.5122C20.2927 21.7815 20.0742 22 19.8049 22Z" fill="url(#paint1_linear_40_4581)"/>
<path d="M15.4146 8.34148C15.9535 8.34148 16.3902 7.90468 16.3902 7.36587C16.3902 6.82706 15.9535 6.39026 15.4146 6.39026C14.8758 6.39026 14.439 6.82706 14.439 7.36587C14.439 7.90468 14.8758 8.34148 15.4146 8.34148Z" fill="#0078D4"/>
<path d="M8.58537 8.34148C9.12418 8.34148 9.56098 7.90468 9.56098 7.36587C9.56098 6.82706 9.12418 6.39026 8.58537 6.39026C8.04656 6.39026 7.60976 6.82706 7.60976 7.36587C7.60976 7.90468 8.04656 8.34148 8.58537 8.34148Z" fill="#0078D4"/>
<path d="M12 2C9.8483 2 8.09756 3.75073 8.09756 5.90244V7.36585C8.09756 7.63512 8.3161 7.85366 8.58537 7.85366C8.85464 7.85366 9.07317 7.63512 9.07317 7.36585V5.90244C9.07317 4.28829 10.3859 2.97561 12 2.97561C13.6142 2.97561 14.9268 4.28829 14.9268 5.90244V7.36585C14.9268 7.63512 15.1454 7.85366 15.4146 7.85366C15.6839 7.85366 15.9024 7.63512 15.9024 7.36585V5.90244C15.9024 3.75073 14.1517 2 12 2Z" fill="#B2C6D6"/>
<path d="M11.5122 13.2195H12.4878V20.5366H11.5122V13.2195Z" fill="url(#paint2_linear_40_4581)"/>
<path d="M12.4878 20.5366H11.5122V22H12.4878V20.5366Z" fill="url(#paint3_linear_40_4581)"/>
<path d="M12.4878 13.2195H16.8781C17.1473 13.2195 17.3659 13.438 17.3659 13.7073V20.5366H12.4878V13.2195Z" fill="url(#paint4_linear_40_4581)"/>
<path d="M17.3659 20.5366H12.4878V22H17.3659V20.5366Z" fill="#0078D4"/>
<path d="M7.12195 13.2195H11.5122V20.5366H6.63415V13.7073C6.63415 13.438 6.85268 13.2195 7.12195 13.2195Z" fill="url(#paint5_linear_40_4581)"/>
<path d="M11.5122 20.5366H6.63415V22H11.5122V20.5366Z" fill="#0078D4"/>
<path d="M13.9512 18.5854C14.2206 18.5854 14.439 18.3669 14.439 18.0975C14.439 17.8282 14.2206 17.6097 13.9512 17.6097C13.6819 17.6097 13.4634 17.8282 13.4634 18.0975C13.4634 18.3669 13.6819 18.5854 13.9512 18.5854Z" fill="#0078D4"/>
<path d="M10.0488 18.5854C10.3181 18.5854 10.5366 18.3669 10.5366 18.0975C10.5366 17.8282 10.3181 17.6097 10.0488 17.6097C9.77938 17.6097 9.56098 17.8282 9.56098 18.0975C9.56098 18.3669 9.77938 18.5854 10.0488 18.5854Z" fill="#0078D4"/>
<defs>
<linearGradient id="paint0_linear_40_4581" x1="8.93645" y1="4.6936" x2="17.1378" y2="20.5063" gradientUnits="userSpaceOnUse">
<stop stop-color="#7DD8F3"/>
<stop offset="1" stop-color="#45B0D0"/>
</linearGradient>
<linearGradient id="paint1_linear_40_4581" x1="9.76678" y1="20.6004" x2="9.79267" y2="22.2137" gradientUnits="userSpaceOnUse">
<stop stop-color="#32BDEF"/>
<stop offset="1" stop-color="#1EA2E4"/>
</linearGradient>
<linearGradient id="paint2_linear_40_4581" x1="11.5122" y1="16.878" x2="12.4878" y2="16.878" gradientUnits="userSpaceOnUse">
<stop stop-color="#3079D6"/>
<stop offset="1" stop-color="#297CD2"/>
</linearGradient>
<linearGradient id="paint3_linear_40_4581" x1="11.5122" y1="21.2683" x2="12.4878" y2="21.2683" gradientUnits="userSpaceOnUse">
<stop stop-color="#1D59B3"/>
<stop offset="1" stop-color="#195BBC"/>
</linearGradient>
<linearGradient id="paint4_linear_40_4581" x1="13.5685" y1="12.1294" x2="18.8972" y2="17.3444" gradientUnits="userSpaceOnUse">
<stop stop-color="#FCFCFC"/>
<stop offset="0.95" stop-color="#C3C9CD"/>
</linearGradient>
<linearGradient id="paint5_linear_40_4581" x1="7.71484" y1="12.1294" x2="13.0435" y2="17.3444" gradientUnits="userSpaceOnUse">
<stop stop-color="#FCFCFC"/>
<stop offset="0.95" stop-color="#C3C9CD"/>
</linearGradient>
</defs>
</svg>
