<svg width="24" height="24" viewBox="0 0 24 24" fill="none" xmlns="http://www.w3.org/2000/svg">
<path d="M20.8889 2H3.11111C2.49722 2 2 2.49722 2 3.11111V20.8889C2 21.5028 2.49722 22 3.11111 22H20.8889C21.5028 22 22 21.5028 22 20.8889V3.11111C22 2.49722 21.5028 2 20.8889 2Z" fill="url(#paint0_linear_40_4596)"/>
<path d="M7.09778 14.255C7.09778 11.4117 8.88222 9.5167 12.6728 5.72559L15.5161 8.56892C11.7256 12.3594 8.04556 15.2028 11.8367 20.8889C11.8367 20.8889 7.09778 18.0456 7.09778 14.255Z" fill="#057093"/>
<path d="M16.4444 5.88894V12.0384C16.4444 12.4345 15.9656 12.6328 15.6856 12.3528L8.87001 5.53672C8.59001 5.25672 8.78834 4.77783 9.1839 4.77783H15.3333C15.9472 4.77783 16.4444 5.27505 16.4444 5.88894Z" fill="#057093"/>
<defs>
<linearGradient id="paint0_linear_40_4596" x1="8.30571" y1="2.30706" x2="18.1954" y2="21.3752" gradientUnits="userSpaceOnUse">
<stop stop-color="#7DD8F3"/>
<stop offset="1" stop-color="#45B0D0"/>
</linearGradient>
</defs>
</svg>
