<svg width="24" height="24" viewBox="0 0 24 24" fill="none" xmlns="http://www.w3.org/2000/svg">
<path d="M2 16.5454V5.18176H20.1818V16.5454C20.1818 17.0454 19.7727 17.4545 19.2727 17.4545H2.90909C2.40909 17.4545 2 17.0454 2 16.5454Z" fill="url(#paint0_linear_40_4601)"/>
<path d="M17.6818 9.27274H7.22727C7.09091 9.27274 7 9.18183 7 9.04547V8.59092C7 8.45456 7.09091 8.36365 7.22727 8.36365H17.6818C17.8182 8.36365 17.9091 8.45456 17.9091 8.59092V9.04547C17.9091 9.18183 17.8182 9.27274 17.6818 9.27274Z" fill="#0F94BF"/>
<path d="M17.6818 11.5454H7.22727C7.09091 11.5454 7 11.4545 7 11.3182V10.8636C7 10.7273 7.09091 10.6364 7.22727 10.6364H17.6818C17.8182 10.6364 17.9091 10.7273 17.9091 10.8636V11.3182C17.9091 11.4545 17.8182 11.5454 17.6818 11.5454Z" fill="#0F94BF"/>
<path d="M17.6818 13.8181H7.22727C7.09091 13.8181 7 13.7272 7 13.5909V13.1363C7 13 7.09091 12.9091 7.22727 12.9091H17.6818C17.8182 12.9091 17.9091 13 17.9091 13.1363V13.5909C17.9091 13.7272 17.8182 13.8181 17.6818 13.8181Z" fill="#0F94BF"/>
<path d="M20.1818 3.81815V5.18178H2V3.81815C2 3.31815 2.40909 2.90906 2.90909 2.90906H19.2727C19.7727 2.90906 20.1818 3.31815 20.1818 3.81815Z" fill="url(#paint1_linear_40_4601)"/>
<path d="M4.5 9.27274H4.95455C5.09091 9.27274 5.18182 9.18183 5.18182 9.04547V8.59092C5.18182 8.45456 5.09091 8.36365 4.95455 8.36365H4.5C4.36364 8.36365 4.27273 8.45456 4.27273 8.59092V9.04547C4.27273 9.18183 4.36364 9.27274 4.5 9.27274Z" fill="#0F94BF"/>
<path d="M4.5 11.5454H4.95455C5.09091 11.5454 5.18182 11.4545 5.18182 11.3182V10.8636C5.18182 10.7273 5.09091 10.6364 4.95455 10.6364H4.5C4.36364 10.6364 4.27273 10.7273 4.27273 10.8636V11.3182C4.27273 11.4545 4.36364 11.5454 4.5 11.5454Z" fill="#0F94BF"/>
<path d="M4.5 13.8181H4.95455C5.09091 13.8181 5.18182 13.7272 5.18182 13.5909V13.1363C5.18182 13 5.09091 12.9091 4.95455 12.9091H4.5C4.36364 12.9091 4.27273 13 4.27273 13.1363V13.5909C4.27273 13.7272 4.36364 13.8181 4.5 13.8181Z" fill="#0F94BF"/>
<path opacity="0.05" d="M17.2273 12.9091C14.3636 12.9091 12 14.8636 12 17.2272C12 17.3181 12 17.3636 12 17.4545H19.2727C19.7727 17.4545 20.1818 17.0454 20.1818 16.5454V13.6818C19.3182 13.1818 18.3182 12.9091 17.2273 12.9091Z" fill="black"/>
<path opacity="0.07" d="M17.2273 13.1364C14.4545 13.1364 12.2273 14.9545 12.2273 17.2273C12.2273 17.3182 12.2273 17.3636 12.2273 17.4545H19.2727C19.7727 17.4545 20.1818 17.0454 20.1818 16.5454V13.9545C19.3636 13.4545 18.3182 13.1364 17.2273 13.1364Z" fill="black"/>
<path d="M17.2273 21.0909C19.8632 21.0909 22 19.3611 22 17.2273C22 15.0935 19.8632 13.3636 17.2273 13.3636C14.5914 13.3636 12.4545 15.0935 12.4545 17.2273C12.4545 19.3611 14.5914 21.0909 17.2273 21.0909Z" fill="url(#paint2_radial_40_4601)"/>
<path d="M17.2273 19.7273C18.9845 19.7273 20.4091 18.3027 20.4091 16.5455C20.4091 14.7882 18.9845 13.3636 17.2273 13.3636C15.47 13.3636 14.0455 14.7882 14.0455 16.5455C14.0455 18.3027 15.47 19.7273 17.2273 19.7273Z" fill="url(#paint3_linear_40_4601)"/>
<path d="M17.2273 18.3637C18.2315 18.3637 19.0455 17.5497 19.0455 16.5455C19.0455 15.5413 18.2315 14.7273 17.2273 14.7273C16.2231 14.7273 15.4091 15.5413 15.4091 16.5455C15.4091 17.5497 16.2231 18.3637 17.2273 18.3637Z" fill="url(#paint4_radial_40_4601)"/>
<path d="M18.1364 15.6364C18.3874 15.6364 18.5909 15.4328 18.5909 15.1818C18.5909 14.9308 18.3874 14.7273 18.1364 14.7273C17.8854 14.7273 17.6818 14.9308 17.6818 15.1818C17.6818 15.4328 17.8854 15.6364 18.1364 15.6364Z" fill="white"/>
<defs>
<linearGradient id="paint0_linear_40_4601" x1="6.12227" y1="3.81767" x2="14.6936" y2="16.2159" gradientUnits="userSpaceOnUse">
<stop stop-color="#7DD8F3"/>
<stop offset="1" stop-color="#45B0D0"/>
</linearGradient>
<linearGradient id="paint1_linear_40_4601" x1="2.36727" y1="2.35451" x2="19.6136" y2="5.86133" gradientUnits="userSpaceOnUse">
<stop stop-color="#0077D2"/>
<stop offset="1" stop-color="#0B59A2"/>
</linearGradient>
<radialGradient id="paint2_radial_40_4601" cx="0" cy="0" r="1" gradientUnits="userSpaceOnUse" gradientTransform="translate(17.259 16.0162) scale(5.06482 5.12511)">
<stop offset="0.55" stop-color="#E4E4E6"/>
<stop offset="0.73" stop-color="#E1E2E4"/>
<stop offset="0.854" stop-color="#D8DADC"/>
<stop offset="0.961" stop-color="#C9CDCF"/>
<stop offset="1" stop-color="#C1C6C9"/>
</radialGradient>
<linearGradient id="paint3_linear_40_4601" x1="15.2018" y1="14.52" x2="19.31" y2="18.6282" gradientUnits="userSpaceOnUse">
<stop stop-color="#32BDEF"/>
<stop offset="1" stop-color="#1EA2E4"/>
</linearGradient>
<radialGradient id="paint4_radial_40_4601" cx="0" cy="0" r="1" gradientUnits="userSpaceOnUse" gradientTransform="translate(16.1559 13.8855) scale(4.71909)">
<stop stop-color="#4B4B4B"/>
<stop offset="0.531" stop-color="#393939"/>
<stop offset="1" stop-color="#252525"/>
</radialGradient>
</defs>
</svg>
