<svg width="24" height="24" viewBox="0 0 24 24" fill="none" xmlns="http://www.w3.org/2000/svg">
<path d="M21.5 21.25H2.5C2.2235 21.25 2 21.0265 2 20.75C2 20.4735 2.2235 20.25 2.5 20.25H21.5C21.7765 20.25 22 20.4735 22 20.75C22 21.0265 21.7765 21.25 21.5 21.25Z" fill="#64717C"/>
<path d="M2.5005 17.75C2.356 17.75 2.213 17.688 2.1145 17.568C1.9385 17.3545 1.9695 17.0395 2.1825 16.8645C2.203 16.8475 2.996 16.185 3.9635 15.0815C3.78 14.823 3.6045 14.5425 3.438 14.241C2.537 12.612 2 10.559 2 8.75C2 5.105 3.374 2.75 5.5 2.75C7.6855 2.75 8.5 5.5105 8.5 7.25C8.5 10.403 6.801 13.2135 5.2595 15.114C5.9 15.81 6.6555 16.25 7.5 16.25C8.875 16.25 9.9775 15.8035 10.8235 15.0855C9.972 14.0115 9.5 12.3405 9.5 10.703C9.5 7.998 10.4815 6.25 12 6.25C13.234 6.25 14 7.5915 14 9.75C14 11.675 13.405 13.612 12.241 15.0345C12.476 15.1735 12.73 15.25 13 15.25C15.6 15.25 15.998 10.7545 16.0015 10.709C16.023 10.4495 16.2395 10.25 16.5 10.25C17.4895 10.25 17.784 11.3265 18.0435 12.277C18.2325 12.9675 18.4465 13.75 18.8135 13.75C19.053 13.75 19.2575 12.93 19.3925 12.3875C19.67 11.2745 20.05 9.75 21.5 9.75C21.7765 9.75 22 9.9735 22 10.25C22 10.5265 21.7765 10.75 21.5 10.75C20.8775 10.75 20.6455 11.494 20.363 12.6295C20.115 13.6235 19.8345 14.75 18.8135 14.75C17.6825 14.75 17.348 13.525 17.079 12.5405C17.0185 12.3205 16.94 12.0315 16.8505 11.7835C16.5375 13.3615 15.608 16.25 13 16.25C12.4545 16.25 11.9645 16.075 11.5345 15.771C10.5035 16.6825 9.155 17.25 7.5 17.25C6.464 17.25 5.475 16.7715 4.613 15.8725C3.6685 16.9275 2.9015 17.567 2.818 17.636C2.7245 17.713 2.6125 17.75 2.5005 17.75ZM12 7.25C11.131 7.25 10.5 8.702 10.5 10.703C10.5 12.0585 10.883 13.4725 11.5275 14.357C12.5255 13.104 13 11.394 13 9.75C13 8.278 12.589 7.25 12 7.25ZM5.5 3.75C3.773 3.75 3 6.261 3 8.75C3 10.4735 3.598 12.7065 4.624 14.286C6.022 12.5125 7.5 9.9895 7.5 7.25C7.5 6.1535 6.9965 3.75 5.5 3.75Z" fill="#0D62AB"/>
</svg>
