<svg width="24" height="24" viewBox="0 0 24 24" fill="none" xmlns="http://www.w3.org/2000/svg">
<path d="M18.0525 7.78947V20.9474C18.0525 21.5289 17.5815 22 16.9999 22H3.31566C2.73408 22 2.26303 21.5289 2.26303 20.9474V3.05263C2.26303 2.47105 2.73408 2 3.31566 2H12.263L18.0525 7.78947Z" fill="url(#paint0_linear_40_4641)"/>
<path d="M12.263 2V6.73684C12.263 7.31842 12.7341 7.78947 13.3157 7.78947H18.0525L12.263 2Z" fill="url(#paint1_linear_40_4641)"/>
<path d="M14.6315 10.421H5.68409C5.53882 10.421 5.42093 10.3031 5.42093 10.1579V9.63157C5.42093 9.4863 5.53882 9.36841 5.68409 9.36841H14.6315C14.7767 9.36841 14.8946 9.4863 14.8946 9.63157V10.1579C14.8946 10.3031 14.7767 10.421 14.6315 10.421Z" fill="#057093"/>
<path d="M13.5788 12.5263H5.68409C5.53882 12.5263 5.42093 12.4084 5.42093 12.2631V11.7368C5.42093 11.5915 5.53882 11.4736 5.68409 11.4736H13.5788C13.7241 11.4736 13.842 11.5915 13.842 11.7368V12.2631C13.842 12.4084 13.7241 12.5263 13.5788 12.5263Z" fill="#057093"/>
<path d="M14.1051 14.6316H5.68409C5.53882 14.6316 5.42093 14.5137 5.42093 14.3685V13.8421C5.42093 13.6969 5.53882 13.579 5.68409 13.579H14.1051C14.2504 13.579 14.3683 13.6969 14.3683 13.8421V14.3685C14.3683 14.5137 14.2504 14.6316 14.1051 14.6316Z" fill="#057093"/>
<path d="M5.68409 16.7368C5.53882 16.7368 5.42093 16.6189 5.42093 16.4737V15.9474C5.42093 15.8021 5.53882 15.6842 5.68409 15.6842H11.4736C11.6188 15.6842 11.7367 15.8021 11.7367 15.9474V16.4737C11.7367 16.6189 11.6188 16.7368 11.4736 16.7368" fill="#057093"/>
<path d="M12.0025 20.6868L12.9593 19.73" stroke="#057093" stroke-width="0.5" stroke-miterlimit="10" stroke-linecap="round" stroke-linejoin="round"/>
<path d="M19.9962 12.3648L19.2199 11.5885C19.0672 11.4358 18.8199 11.4358 18.6678 11.5885L16.062 14.1943C15.9093 14.3469 15.9093 14.5943 16.062 14.7464L16.8383 15.5227L19.9962 12.3648Z" fill="#B31523"/>
<path d="M19.6315 12.0484L20.6336 11.0463C20.7651 10.9147 20.9783 10.9147 21.1099 11.0463L21.6383 11.5742C21.7699 11.7058 21.7699 11.9189 21.6383 12.0505L20.6362 13.0526L19.6315 12.0484Z" fill="url(#paint2_linear_40_4641)"/>
<path d="M12.3799 18.7353L12.0672 19.9784C11.9699 20.3642 12.3199 20.7142 12.7062 20.6174L13.9494 20.3042L14.1694 18.4847L12.3799 18.7353Z" fill="url(#paint3_linear_40_4641)"/>
<path d="M21.0562 13.1968L13.9272 20.3263L12.3583 18.7573L19.4872 11.6279C19.693 11.4221 20.0262 11.4221 20.2314 11.6279L21.0562 12.4526C21.262 12.6579 21.262 12.9915 21.0562 13.1968Z" fill="url(#paint4_linear_40_4641)"/>
<path d="M15.8336 15.2794L16.4972 14.6152L18.0672 16.1842L17.4036 16.8484L15.8336 15.2794Z" fill="url(#paint5_linear_40_4641)"/>
<defs>
<linearGradient id="paint0_linear_40_4641" x1="7.24123" y1="2.30706" x2="18.3455" y2="19.2096" gradientUnits="userSpaceOnUse">
<stop stop-color="#7DD8F3"/>
<stop offset="1" stop-color="#45B0D0"/>
</linearGradient>
<linearGradient id="paint1_linear_40_4641" x1="12.5415" y1="7.51105" x2="15.2104" y2="4.84211" gradientUnits="userSpaceOnUse">
<stop stop-color="#3079D6"/>
<stop offset="1" stop-color="#297CD2"/>
</linearGradient>
<linearGradient id="paint2_linear_40_4641" x1="20.6841" y1="11.0195" x2="20.6841" y2="13.1105" gradientUnits="userSpaceOnUse">
<stop stop-color="#FFDA1C"/>
<stop offset="1" stop-color="#FEB705"/>
</linearGradient>
<linearGradient id="paint3_linear_40_4641" x1="12.0504" y1="19.559" x2="14.1694" y2="19.559" gradientUnits="userSpaceOnUse">
<stop stop-color="#FFDA1C"/>
<stop offset="1" stop-color="#FEB705"/>
</linearGradient>
<linearGradient id="paint4_linear_40_4641" x1="12.3578" y1="15.9" x2="21.2104" y2="15.9" gradientUnits="userSpaceOnUse">
<stop stop-color="#F44F5A"/>
<stop offset="0.443" stop-color="#EE3D4A"/>
<stop offset="1" stop-color="#E52030"/>
</linearGradient>
<linearGradient id="paint5_linear_40_4641" x1="16.9504" y1="14.6916" x2="16.9504" y2="16.91" gradientUnits="userSpaceOnUse">
<stop stop-color="#FFDA1C"/>
<stop offset="1" stop-color="#FEB705"/>
</linearGradient>
</defs>
</svg>
