<svg width="24" height="24" viewBox="0 0 24 24" fill="none" xmlns="http://www.w3.org/2000/svg">
<path d="M12.5128 2H11.4872C6.66667 2 2.25641 5.07692 2.25641 10.2051C2.25641 13.7949 3.79487 14.8205 3.79487 14.8205C3.94872 14.9744 4.10256 15.1282 4.30769 15.2821V16.359C4.30769 18.4103 7.38461 18.9231 7.38461 18.9231V20.9744C7.38461 21.541 7.84359 22 8.41025 22H15.5897C16.1564 22 16.6154 21.541 16.6154 20.9744V18.9231C16.6154 18.9231 19.6923 18.4103 19.6923 16.359V15.2821C19.8974 15.1282 20.0513 14.9744 20.2051 14.8205C20.2051 14.8205 21.7436 13.2821 21.7436 10.2051C21.7436 5.07692 17.3333 2 12.5128 2Z" fill="url(#paint0_linear_40_4666)"/>
<path opacity="0.05" d="M15.0308 10.9457C14.7026 10.9457 14.3723 10.998 14.0492 11.1016C13.5149 11.2467 13.0636 11.6139 12.7559 12.1606C12.3579 12.8667 12.2528 13.8026 12.4815 14.6026C12.9487 16.0057 14.0508 16.8375 15.4323 16.8375C15.8185 16.8375 16.2174 16.7718 16.6195 16.6421C17.1108 16.4667 18.6154 15.6877 17.6651 12.9113C17.3462 11.7236 16.3103 10.9457 15.0308 10.9457Z" fill="black"/>
<path opacity="0.05" d="M12.0374 15.3113L11.961 15.3287L11.8846 15.3462C10.8538 15.5846 9.69231 17.822 9.69231 18.8718C9.69231 19.5851 10.2097 20.1026 10.9231 20.1026C11.3482 20.1026 11.7497 19.8826 12.0497 19.4985C12.3472 19.8954 12.6974 20.1026 13.0769 20.1026C13.7903 20.1026 14.3077 19.5851 14.3077 18.8718C14.3077 17.7164 13.0969 15.7185 12.1841 15.3677L12.1108 15.3395L12.0374 15.3113Z" fill="black"/>
<path opacity="0.05" d="M8.87692 10.9042C7.65846 10.9042 6.66307 11.679 6.27948 12.9262C5.81538 14.2821 6.01384 15.1667 6.26256 15.6688C6.49538 16.1385 6.88256 16.4929 7.32564 16.6406C7.74359 16.7585 8.14 16.817 8.51589 16.817C9.9482 16.817 11.0513 15.9919 11.4662 14.6093C11.7062 13.9606 11.6554 13.1098 11.3277 12.4042C11.0385 11.7816 10.5569 11.3211 9.97077 11.1083C9.60564 10.9729 9.23743 10.9042 8.87692 10.9042Z" fill="black"/>
<path opacity="0.07" d="M8.87692 11.1605C7.77538 11.1605 6.87384 11.8662 6.5241 13.0015C6.08666 14.28 6.26461 15.0964 6.49179 15.5549C6.69435 15.9641 7.02769 16.2708 7.40615 16.3969C7.79384 16.5062 8.16358 16.56 8.51538 16.56C9.82871 16.56 10.8395 15.8031 11.22 14.5349C11.4405 13.938 11.3944 13.1569 11.0949 12.5113C10.8349 11.9508 10.4041 11.538 9.88256 11.3482C9.54563 11.2241 9.20666 11.1605 8.87692 11.1605ZM15.0308 11.2021C14.7292 11.2021 14.4251 11.2503 14.1272 11.3457C13.6533 11.4749 13.2523 11.801 12.979 12.2862C12.6133 12.9349 12.5174 13.7954 12.7277 14.5323C13.1564 15.819 14.1661 16.581 15.4318 16.581C15.7908 16.581 16.1641 16.5195 16.54 16.398C16.9733 16.2431 18.2959 15.5482 17.422 12.9939C17.1313 11.9118 16.1908 11.2021 15.0308 11.2021ZM12.019 15.5785L11.9426 15.5959C11.101 15.7903 9.94871 17.8523 9.94871 18.8718C9.94871 19.4457 10.3492 19.8462 10.9231 19.8462C11.4313 19.8462 11.8251 19.4667 12.0487 19.019C12.2759 19.44 12.621 19.8462 13.0769 19.8462C13.6508 19.8462 14.0513 19.4457 14.0513 18.8718C14.0513 17.839 12.8979 15.9169 12.0918 15.6067L12.019 15.5785Z" fill="black"/>
<path d="M13.7949 18.8718C13.7949 19.3334 13.4872 19.5898 13.0769 19.5898C12.5128 19.5898 12.1026 18.6154 12 18.2052C12 18.718 11.5897 19.5898 10.9231 19.5898C10.5128 19.5898 10.2051 19.3334 10.2051 18.8718C10.2051 17.8975 11.3333 16 12 15.8462C12.6667 16.1026 13.7949 17.8975 13.7949 18.8718ZM14.2051 11.5898C13.0769 11.8975 12.6667 13.3846 12.9744 14.4616C13.4872 16 14.8718 16.6667 16.4615 16.1539C17.1795 15.8975 17.8461 15.0257 17.1795 13.077C16.8205 11.7436 15.4872 11.1795 14.2051 11.5898ZM9.79486 11.5898C8.41025 11.077 7.17948 11.7436 6.76922 13.077C6.10256 15.0257 6.87179 15.9487 7.48717 16.1539C9.1282 16.6154 10.5128 16 10.9744 14.4616C11.3333 13.4872 10.9231 12 9.79486 11.5898Z" fill="url(#paint1_linear_40_4666)"/>
<defs>
<linearGradient id="paint0_linear_40_4666" x1="12" y1="2" x2="12" y2="22" gradientUnits="userSpaceOnUse">
<stop stop-color="#FFCF7B"/>
<stop offset="0.196" stop-color="#FECD76"/>
<stop offset="0.439" stop-color="#FAC666"/>
<stop offset="0.709" stop-color="#F3BC4D"/>
<stop offset="0.995" stop-color="#EAAD2A"/>
<stop offset="1" stop-color="#EAAD29"/>
</linearGradient>
<linearGradient id="paint1_linear_40_4666" x1="11.9831" y1="11.417" x2="11.9831" y2="19.5898" gradientUnits="userSpaceOnUse">
<stop stop-color="#5E5E5E"/>
<stop offset="1" stop-color="#545454"/>
</linearGradient>
</defs>
</svg>
