<svg width="24" height="24" viewBox="0 0 24 24" fill="none" xmlns="http://www.w3.org/2000/svg">
<path d="M2.52632 10.9474H21.4737C21.7642 10.9474 22 11.1832 22 11.4737V12.5263C22 12.8169 21.7642 13.0527 21.4737 13.0527H2.52632C2.23579 13.0527 2 12.8169 2 12.5263V11.4737C2 11.1832 2.23579 10.9474 2.52632 10.9474Z" fill="#0078D4"/>
<path d="M2.52632 3.57898H21.4737C21.7642 3.57898 22 3.81477 22 4.1053V5.15793C22 5.44845 21.7642 5.68424 21.4737 5.68424H2.52632C2.23579 5.68424 2 5.44845 2 5.15793V4.1053C2 3.81477 2.23579 3.57898 2.52632 3.57898Z" fill="#0078D4"/>
<path d="M2.52632 18.3158H21.4737C21.7642 18.3158 22 18.5516 22 18.8421V19.8947C22 20.1853 21.7642 20.4211 21.4737 20.4211H2.52632C2.23579 20.4211 2 20.1853 2 19.8947V18.8421C2 18.5516 2.23579 18.3158 2.52632 18.3158Z" fill="#0078D4"/>
<path d="M14.1053 4.63163C14.1053 5.79426 13.1626 6.73689 12 6.73689C10.8374 6.73689 9.89474 5.79426 9.89474 4.63163C9.89474 3.469 10.8374 2.52637 12 2.52637C13.1626 2.52637 14.1053 3.469 14.1053 4.63163ZM18.8421 12.0001C18.8421 13.1627 17.8995 14.1053 16.7368 14.1053C15.5742 14.1053 14.6316 13.1627 14.6316 12.0001C14.6316 10.8374 15.5742 9.89479 16.7368 9.89479C17.8995 9.89479 18.8421 10.8374 18.8421 12.0001ZM10.4211 19.3685C10.4211 20.5311 9.47842 21.4737 8.31579 21.4737C7.15316 21.4737 6.21053 20.5311 6.21053 19.3685C6.21053 18.2058 7.15316 17.2632 8.31579 17.2632C9.47842 17.2632 10.4211 18.2058 10.4211 19.3685Z" fill="url(#paint0_linear_40_4674)"/>
<defs>
<linearGradient id="paint0_linear_40_4674" x1="10.8255" y1="3.3523" x2="16.1299" y2="22.7986" gradientUnits="userSpaceOnUse">
<stop stop-color="#32BDEF"/>
<stop offset="1" stop-color="#1EA2E4"/>
</linearGradient>
</defs>
</svg>
