<svg width="24" height="24" viewBox="0 0 24 24" fill="none" xmlns="http://www.w3.org/2000/svg">
<path d="M18.9767 8.51165V21.0698C18.9767 21.5837 18.5605 22 18.0465 22H5.95349C5.43954 22 5.02326 21.5837 5.02326 21.0698V8.51165C5.02326 7.9977 5.43954 7.58142 5.95349 7.58142H18.0465C18.5605 7.58142 18.9767 7.9977 18.9767 8.51165Z" fill="url(#paint0_linear_40_4705)"/>
<path d="M17.5814 7.58142H6.41861V10.8372H17.5814V7.58142Z" fill="#666666"/>
<path d="M17.1521 11.3023H6.84791C6.6107 11.3023 6.41861 11.0939 6.41861 10.8372C6.41861 10.5804 6.6107 10.3721 6.84791 10.3721H17.1521C17.3893 10.3721 17.5814 10.5804 17.5814 10.8372C17.5814 11.0939 17.3893 11.3023 17.1521 11.3023Z" fill="#666666"/>
<path d="M16.6512 11.3023H7.34884V2.93023C7.34884 2.41628 7.76512 2 8.27907 2H15.7209C16.2349 2 16.6512 2.41628 16.6512 2.93023V11.3023Z" fill="url(#paint1_linear_40_4705)"/>
<path opacity="0.05" d="M10.7581 20.6047C10.1605 20.6047 9.67442 20.1186 9.67442 19.5209V17.0372C9.67442 16.4395 10.1605 15.9535 10.7581 15.9535H13.2419C13.8395 15.9535 14.3256 16.4395 14.3256 17.0372V19.5209C14.3256 20.1186 13.8395 20.6047 13.2419 20.6047H10.7581Z" fill="black"/>
<path opacity="0.07" d="M10.7581 20.3721C10.2888 20.3721 9.90698 19.9902 9.90698 19.5209V17.0372C9.90698 16.5679 10.2888 16.186 10.7581 16.186H13.2419C13.7112 16.186 14.093 16.5679 14.093 17.0372V19.5209C14.093 19.9902 13.7112 20.3721 13.2419 20.3721H10.7581Z" fill="black"/>
<path d="M11.0698 16.4186V18.0465H10.1395V17.0372C10.1395 16.6976 10.4186 16.4186 10.7581 16.4186H11.0698ZM10.1395 19.5209C10.1395 19.8604 10.4186 20.1395 10.7581 20.1395H11.0698V18.5116H10.1395V19.5209ZM11.5349 16.4186V18.0465H12.4651V16.4186H11.5349ZM11.5349 20.1395H12.4651V18.5116H11.5349V20.1395ZM13.2419 16.4186H12.9302V18.0465H13.8605V17.0372C13.8605 16.6976 13.5814 16.4186 13.2419 16.4186ZM12.9302 20.1395H13.2419C13.5814 20.1395 13.8605 19.8604 13.8605 19.5209V18.5116H12.9302V20.1395Z" fill="url(#paint2_linear_40_4705)"/>
<path d="M9.67442 8.04656C10.445 8.04656 11.0698 7.42184 11.0698 6.65121C11.0698 5.88058 10.445 5.25586 9.67442 5.25586C8.90379 5.25586 8.27907 5.88058 8.27907 6.65121C8.27907 7.42184 8.90379 8.04656 9.67442 8.04656Z" fill="url(#paint3_radial_40_4705)"/>
<path d="M9.67442 7.69764C10.2524 7.69764 10.7209 7.2291 10.7209 6.65113C10.7209 6.07315 10.2524 5.60461 9.67442 5.60461C9.09645 5.60461 8.62791 6.07315 8.62791 6.65113C8.62791 7.2291 9.09645 7.69764 9.67442 7.69764Z" fill="url(#paint4_linear_40_4705)"/>
<path opacity="0.05" d="M13.1298 8.7577C11.9935 8.7577 11.0698 7.81258 11.0698 6.65119C11.0698 5.48979 11.9935 4.54468 13.1298 4.54468H14.4316C14.9163 4.54468 15.3107 4.93724 15.3107 5.42003V7.88282C15.3107 8.36561 14.9163 8.75817 14.4316 8.75817H13.1298V8.7577Z" fill="black"/>
<path opacity="0.07" d="M13.1298 8.52513C12.1223 8.52513 11.3023 7.6842 11.3023 6.65118C11.3023 5.61815 12.1223 4.77722 13.1298 4.77722H14.4316C14.7884 4.77722 15.0781 5.06559 15.0781 5.42001V7.8828C15.0781 8.23722 14.7884 8.52559 14.4316 8.52559H13.1298V8.52513Z" fill="black"/>
<path d="M11.5349 6.65116C11.5349 7.55767 12.2488 8.29256 13.1293 8.29256H14.4316C14.66 8.29256 14.8456 8.10884 14.8456 7.88232V5.42C14.8456 5.19349 14.6605 5.00977 14.4316 5.00977H13.1293C12.2488 5.00977 11.5349 5.74465 11.5349 6.65116Z" fill="url(#paint5_linear_40_4705)"/>
<defs>
<linearGradient id="paint0_linear_40_4705" x1="8.15721" y1="7.56375" x2="15.7707" y2="21.8819" gradientUnits="userSpaceOnUse">
<stop stop-color="#A1AAB3"/>
<stop offset="1" stop-color="#8F979E"/>
</linearGradient>
<linearGradient id="paint1_linear_40_4705" x1="12" y1="2.31163" x2="12" y2="11.4312" gradientUnits="userSpaceOnUse">
<stop stop-color="#0077D2"/>
<stop offset="0.693" stop-color="#0077D2"/>
<stop offset="0.781" stop-color="#0272CA"/>
<stop offset="0.92" stop-color="#0763B2"/>
<stop offset="1" stop-color="#0B59A2"/>
</linearGradient>
<linearGradient id="paint2_linear_40_4705" x1="10.9991" y1="16.3967" x2="12.9386" y2="20.0446" gradientUnits="userSpaceOnUse">
<stop stop-color="#FFDA1C"/>
<stop offset="1" stop-color="#FEB705"/>
</linearGradient>
<radialGradient id="paint3_radial_40_4705" cx="0" cy="0" r="1" gradientUnits="userSpaceOnUse" gradientTransform="translate(9.67442 6.65121) scale(1.39535)">
<stop/>
<stop offset="0.009" stop-opacity="0.991"/>
<stop offset="0.98" stop-opacity="0"/>
</radialGradient>
<linearGradient id="paint4_linear_40_4705" x1="8.18233" y1="6.65113" x2="15.6521" y2="6.65113" gradientUnits="userSpaceOnUse">
<stop stop-color="#75DAFF"/>
<stop offset="1" stop-color="#1EA2E4"/>
</linearGradient>
<linearGradient id="paint5_linear_40_4705" x1="8.19767" y1="6.65116" x2="15.5819" y2="6.65116" gradientUnits="userSpaceOnUse">
<stop stop-color="#75DAFF"/>
<stop offset="1" stop-color="#1EA2E4"/>
</linearGradient>
</defs>
</svg>
