<svg width="24" height="24" viewBox="0 0 24 24" fill="none" xmlns="http://www.w3.org/2000/svg">
<path d="M7.96157 22C7.84286 22 7.72364 21.9592 7.62661 21.8761C5.53266 20.0852 2.75227 18.6477 2.72388 18.6338C2.47046 18.5032 2.37033 18.1925 2.50091 17.9386C2.63098 17.6857 2.9422 17.585 3.19562 17.7151C3.31382 17.7755 6.1097 19.2206 8.29706 21.0916C8.51383 21.2764 8.53912 21.6026 8.35383 21.8194C8.25164 21.9386 8.10712 22 7.96157 22ZM16.822 7.54886C16.7012 7.54886 16.5794 7.50654 16.4813 7.42034C16.4602 7.40228 14.3791 5.5664 12.3002 3.22317C12.1107 3.00949 12.1304 2.68329 12.3435 2.49439C12.5567 2.30497 12.8829 2.32458 13.0723 2.53775C15.1069 4.83143 17.1425 6.62705 17.1626 6.64511C17.3768 6.83299 17.398 7.15918 17.2096 7.37337C17.1074 7.4895 16.965 7.54886 16.822 7.54886ZM18.0948 4.98369C17.9817 4.98369 17.8677 4.94653 17.7727 4.87014C17.7324 4.83814 16.7755 4.06498 15.896 2.81284C15.7324 2.58007 15.7887 2.258 16.022 2.09387C16.2553 1.92974 16.5773 1.98652 16.741 2.21981C17.5317 3.34601 18.4096 4.05775 18.4184 4.06446C18.6403 4.24356 18.6759 4.5682 18.4973 4.79014C18.3957 4.91762 18.246 4.98369 18.0948 4.98369Z" fill="url(#paint0_linear_40_4751)"/>
<path d="M21.8119 6.59053C21.5002 5.97324 20.679 5.9464 20.0143 6.37943C18.7394 7.20989 19.0553 8.52034 19.0553 8.52034C17.8857 9.30383 18.7007 11.8726 16.1861 9.92112C15.4661 9.36215 8.58764 3.64033 8.58764 3.64033C8.17835 3.30432 7.57448 3.35852 7.23177 3.76316C6.89783 4.15852 6.93293 4.74691 7.31229 5.09891L11.3298 8.77325C11.5998 9.01996 11.6215 9.43751 11.3784 9.71105C11.1327 9.9877 10.7084 10.0125 10.4328 9.76576L5.46763 5.33065C5.07383 4.97556 4.46686 5.00394 4.10763 5.39311L4.09782 5.40394C3.73085 5.80033 3.76027 6.42072 4.16286 6.78201L9.00416 11.086C9.22094 11.279 9.25397 11.6058 9.07952 11.838C8.887 12.0945 8.51848 12.1363 8.27332 11.9294L3.80879 8.16215C3.41343 7.82615 2.82246 7.86228 2.47046 8.24421L2.44517 8.27157C2.07666 8.67054 2.10814 9.29402 2.51485 9.65325L6.8617 13.469C7.0377 13.6233 7.05887 13.8902 6.90867 14.0703C6.75383 14.2566 6.47564 14.2788 6.29293 14.1198L3.92079 12.0569C3.52595 11.7074 2.92466 11.7379 2.56698 12.1255L2.53756 12.1575C2.17782 12.5508 2.19949 13.1609 2.58969 13.5237C4.18557 15.0076 8.07977 18.3072 9.73965 19.5944C12.1108 21.4577 15.1198 21.4277 16.8875 20.1028C17.9404 18.9611 18.6811 17.9691 20.1278 15.9893C20.9123 14.9162 21.0016 11.9237 21.1921 9.79002C21.3459 8.07853 21.8119 6.59053 21.8119 6.59053Z" fill="url(#paint1_linear_40_4751)"/>
<defs>
<linearGradient id="paint0_linear_40_4751" x1="6.02537" y1="-0.979459" x2="20.383" y2="16.0585" gradientUnits="userSpaceOnUse">
<stop stop-color="#FCFCFC"/>
<stop offset="0.95" stop-color="#C3C9CD"/>
</linearGradient>
<linearGradient id="paint1_linear_40_4751" x1="9.45474" y1="3.34665" x2="16.3843" y2="20.5911" gradientUnits="userSpaceOnUse">
<stop stop-color="#FFC430"/>
<stop offset="0.41" stop-color="#FEC130"/>
<stop offset="0.72" stop-color="#FCB730"/>
<stop offset="0.998" stop-color="#F7A72F"/>
<stop offset="1" stop-color="#F7A72F"/>
</linearGradient>
</defs>
</svg>
