<svg width="24" height="24" viewBox="0 0 24 24" fill="none" xmlns="http://www.w3.org/2000/svg">
<path d="M11.5395 20.1907C16.5627 20.1907 20.6349 16.1185 20.6349 11.0954C20.6349 6.07213 16.5627 2 11.5395 2C6.51631 2 2.44418 6.07213 2.44418 11.0954C2.44418 16.1185 6.51631 20.1907 11.5395 20.1907Z" fill="url(#paint0_linear_40_4736)"/>
<path d="M11.5395 14.7334C13.4986 14.7334 15.0867 13.1453 15.0867 11.1862C15.0867 9.22717 13.4986 7.63904 11.5395 7.63904C9.58049 7.63904 7.99236 9.22717 7.99236 11.1862C7.99236 13.1453 9.58049 14.7334 11.5395 14.7334Z" fill="url(#paint1_linear_40_4736)"/>
<path d="M11.5395 12.5962C12.3181 12.5962 12.9493 11.965 12.9493 11.1864C12.9493 10.4077 12.3181 9.77661 11.5395 9.77661C10.761 9.77661 10.1298 10.4077 10.1298 11.1864C10.1298 11.965 10.761 12.5962 11.5395 12.5962Z" fill="white"/>
<path d="M19.8618 21.9643L18.3611 21.2367L16.8603 21.9643C16.7239 22.0552 16.542 21.9188 16.542 21.7824V18.5081H20.1801V21.7824C20.1801 21.9643 19.9982 22.0552 19.8618 21.9643Z" fill="url(#paint2_linear_40_4736)"/>
<path opacity="0.07" d="M20.3166 13.5056C20.0892 13.3692 19.8618 13.2328 19.5889 13.2328H19.2706L18.9977 13.0509C18.7704 12.9599 18.5884 12.9144 18.3611 12.9144C18.1337 12.9144 17.9518 12.9599 17.7699 13.0509L17.4515 13.2328H17.1332C16.7239 13.2328 16.3146 13.4602 16.0872 13.824L15.9053 14.0968L15.6325 14.2787C15.2686 14.5061 15.0413 14.8699 15.0413 15.3247V15.643L14.8594 15.9614C14.632 16.3252 14.632 16.78 14.8594 17.1438L15.0413 17.4166V17.735C15.0413 18.1443 15.2686 18.5536 15.6325 18.7809L15.9053 18.9628L15.9508 19.0083C18.0882 17.8714 19.6344 15.8704 20.3166 13.5056Z" fill="black"/>
<path opacity="0.07" d="M20.2256 13.733C20.0437 13.5511 19.8163 13.4602 19.5889 13.4602H19.1796L18.8158 13.2783C18.6794 13.1873 18.4975 13.1418 18.3156 13.1418C18.1337 13.1418 17.9972 13.1873 17.8153 13.2783L17.4515 13.4602H17.0422C16.6784 13.4602 16.3601 13.6421 16.2237 13.9604L16.0872 14.2788L15.7689 14.4607C15.496 14.6426 15.2686 14.9609 15.2686 15.2793V15.6885L15.0867 16.0524C14.9048 16.3707 14.9048 16.7345 15.0867 17.0074L15.2686 17.3712V17.7805C15.2686 18.1443 15.4505 18.4626 15.7689 18.5991L16.0872 18.8264L16.1327 18.9174C18.0882 17.7805 19.5889 15.9159 20.2256 13.733Z" fill="black"/>
<path d="M18.7249 13.4602L19.1342 13.6876H19.5889C19.8618 13.6876 20.0892 13.824 20.2256 14.0514L20.453 14.4607L20.8623 14.6881C21.0897 14.8245 21.2261 15.0519 21.2261 15.3248V15.7795L21.4535 16.1888C21.5899 16.4162 21.5899 16.6891 21.4535 16.9165L21.2261 17.3258V17.7805C21.2261 18.0534 21.0897 18.2808 20.8623 18.4172L20.453 18.6446L20.2256 19.0539C20.0892 19.2813 19.8618 19.4177 19.5889 19.4177H19.1342L18.7249 19.6451C18.4975 19.7815 18.2246 19.7815 17.9973 19.6451L17.588 19.4177H17.1332C16.8603 19.4177 16.6329 19.2813 16.4965 19.0539L16.2691 18.6446L15.8598 18.4172C15.6325 18.2808 15.496 18.0534 15.496 17.7805V17.3258L15.2686 16.9165C15.1322 16.6891 15.1322 16.4162 15.2686 16.1888L15.496 15.7795V15.3248C15.496 15.0519 15.6325 14.8245 15.8598 14.6881L16.2691 14.4607L16.4965 14.0514C16.6329 13.824 16.8603 13.6876 17.1332 13.6876H17.588L17.9973 13.4602C18.2246 13.3238 18.4975 13.3238 18.7249 13.4602Z" fill="url(#paint3_linear_40_4736)"/>
<path d="M18.3611 19.0084C19.7174 19.0084 20.8168 17.909 20.8168 16.5527C20.8168 15.1964 19.7174 14.0969 18.3611 14.0969C17.0048 14.0969 15.9053 15.1964 15.9053 16.5527C15.9053 17.909 17.0048 19.0084 18.3611 19.0084Z" fill="url(#paint4_linear_40_4736)"/>
<defs>
<linearGradient id="paint0_linear_40_4736" x1="8.10787" y1="1.39198" x2="14.6101" y2="19.7764" gradientUnits="userSpaceOnUse">
<stop stop-color="#7DD8F3"/>
<stop offset="1" stop-color="#45B0D0"/>
</linearGradient>
<linearGradient id="paint1_linear_40_4736" x1="8.00736" y1="11.1835" x2="15.0717" y2="11.1835" gradientUnits="userSpaceOnUse">
<stop stop-color="#3079D6"/>
<stop offset="1" stop-color="#297CD2"/>
</linearGradient>
<linearGradient id="paint2_linear_40_4736" x1="16.542" y1="20.2607" x2="20.1801" y2="20.2607" gradientUnits="userSpaceOnUse">
<stop stop-color="#1D59B3"/>
<stop offset="1" stop-color="#195BBC"/>
</linearGradient>
<linearGradient id="paint3_linear_40_4736" x1="15.1663" y1="16.5527" x2="21.5558" y2="16.5527" gradientUnits="userSpaceOnUse">
<stop stop-color="#FFD869"/>
<stop offset="0.765625" stop-color="#F2C032"/>
<stop offset="1" stop-color="#FFD869"/>
</linearGradient>
<linearGradient id="paint4_linear_40_4736" x1="16.9934" y1="13.3652" x2="20.3228" y2="18.2526" gradientUnits="userSpaceOnUse">
<stop stop-color="#FCFCFC"/>
<stop offset="0.95" stop-color="#C3C9CD"/>
</linearGradient>
</defs>
</svg>
