<svg width="24" height="24" viewBox="0 0 24 24" fill="none" xmlns="http://www.w3.org/2000/svg">
<path d="M3.17636 6.66406C2.52682 6.66406 2 7.19088 2 7.84043L11.1682 16.9913C11.3977 17.2209 11.6991 17.3359 12 17.3359V6.66406H3.17636Z" fill="url(#paint0_linear_40_4746)"/>
<path d="M22 7.84043C22 7.19088 21.4732 6.66406 20.8236 6.66406H12V17.3359C12.3009 17.3359 12.6023 17.2209 12.8318 16.9913L22 7.84043Z" fill="url(#paint1_linear_40_4746)"/>
<path d="M22 7.84043C22 7.19088 21.4732 6.66406 20.8236 6.66406H12V17.3359C12.3009 17.3359 12.6023 17.2209 12.8318 16.9913L22 7.84043Z" fill="#199AE0"/>
<defs>
<linearGradient id="paint0_linear_40_4746" x1="7" y1="17.6068" x2="7" y2="11.0454" gradientUnits="userSpaceOnUse">
<stop stop-color="#32BDEF"/>
<stop offset="1" stop-color="#1EA2E4"/>
</linearGradient>
<linearGradient id="paint1_linear_40_4746" x1="17" y1="17.6068" x2="17" y2="11.0454" gradientUnits="userSpaceOnUse">
<stop offset="0.365" stop-color="#199AE0"/>
<stop offset="0.699" stop-color="#1898DE"/>
<stop offset="0.819" stop-color="#1691D8"/>
<stop offset="0.905" stop-color="#1186CC"/>
<stop offset="0.974" stop-color="#0A75BC"/>
<stop offset="1" stop-color="#076CB3"/>
</linearGradient>
</defs>
</svg>
