<svg width="24" height="24" viewBox="0 0 24 24" fill="none" xmlns="http://www.w3.org/2000/svg">
<rect x="4" y="6" width="16" height="15" rx="2" fill="url(#paint0_linear_62_32)"/>
<path d="M17.3335 18.5H6.6665V15.8335C6.6665 12.888 9.0545 10.5 12 10.5C14.9455 10.5 17.3335 12.888 17.3335 15.8335V18.5Z" fill="url(#paint1_linear_62_32)"/>
<path d="M12 9C13.6569 9 15 7.65685 15 6C15 4.34315 13.6569 3 12 3C10.3431 3 9 4.34315 9 6C9 7.65685 10.3431 9 12 9Z" fill="url(#paint2_linear_62_32)"/>
<path d="M4.5 15.5H19.5L18.6395 20.6645C18.559 21.1465 18.1415 21.5 17.653 21.5H6.347C5.858 21.5 5.441 21.1465 5.3605 20.6645L4.5 15.5Z" fill="url(#paint3_linear_62_32)"/>
<path d="M19.5 16H4.5C4.224 16 4 15.776 4 15.5V15C4 14.724 4.224 14.5 4.5 14.5H19.5C19.776 14.5 20 14.724 20 15V15.5C20 15.776 19.776 16 19.5 16Z" fill="url(#paint4_linear_62_32)"/>
<defs>
<linearGradient id="paint0_linear_62_32" x1="7.899" y1="6.39333" x2="9.46049" y2="21.9798" gradientUnits="userSpaceOnUse">
<stop stop-color="#D1D1D1" stop-opacity="0.62"/>
<stop offset="1" stop-color="#C6C6C6"/>
</linearGradient>
<linearGradient id="paint1_linear_62_32" x1="9.26592" y1="10.7098" x2="9.93453" y2="19.0524" gradientUnits="userSpaceOnUse">
<stop offset="0.365372" stop-color="white"/>
<stop offset="0.714333" stop-color="#EDEDED"/>
<stop offset="0.88621" stop-color="#DBDBDB"/>
<stop offset="1" stop-color="#DADADA"/>
</linearGradient>
<linearGradient id="paint2_linear_62_32" x1="10.4621" y1="3.15733" x2="11.1275" y2="9.38338" gradientUnits="userSpaceOnUse">
<stop offset="0.365372" stop-color="white"/>
<stop offset="0.714333" stop-color="#EDEDED"/>
<stop offset="0.88621" stop-color="#DBDBDB"/>
<stop offset="1" stop-color="#DADADA"/>
</linearGradient>
<linearGradient id="paint3_linear_62_32" x1="6.912" y1="16.4648" x2="9.79862" y2="23.6814" gradientUnits="userSpaceOnUse">
<stop stop-color="#0D61A9"/>
<stop offset="1" stop-color="#16528C"/>
</linearGradient>
<linearGradient id="paint4_linear_62_32" x1="7.899" y1="14.5393" x2="7.91477" y2="16.1135" gradientUnits="userSpaceOnUse">
<stop offset="0.365372" stop-color="white"/>
<stop offset="0.714333" stop-color="#EDEDED"/>
<stop offset="0.88621" stop-color="#DBDBDB"/>
<stop offset="1" stop-color="#DADADA"/>
</linearGradient>
</defs>
</svg>
