<svg width="24" height="24" viewBox="0 0 24 24" fill="none" xmlns="http://www.w3.org/2000/svg">
<path d="M10.8737 4.33451C6.25692 4.83905 2.54603 8.56857 2.0574 13.1877C1.82286 15.4086 2.31876 17.4999 3.33148 19.2563C3.49739 19.5435 3.79739 19.7272 4.1292 19.7272H19.8705C20.1868 19.7272 20.4873 19.5672 20.6468 19.294C21.5064 17.8181 22 16.1036 22 14.2727C22 8.37903 16.9005 3.67588 10.8737 4.33451Z" fill="url(#paint0_radial_40_4755)"/>
<path d="M11.0173 5.6896C7.01191 6.12051 3.74693 9.30639 3.21648 13.2996C2.92103 15.5245 3.46239 17.6064 4.55693 19.2972C4.72829 19.5618 5.01602 19.7272 5.33102 19.7272H7.57464C7.91918 19.7272 8.23372 19.5327 8.38781 19.2245L8.5669 18.8659C8.72099 18.5582 9.03599 18.3636 9.38008 18.3636H14.62C14.9646 18.3636 15.2791 18.5582 15.4332 18.8663L15.6123 19.225C15.7664 19.5327 16.0814 19.7272 16.4255 19.7272H18.6687C18.9827 19.7272 19.2709 19.5627 19.4418 19.2991C20.3377 17.9159 20.8636 16.2709 20.8636 14.5C20.8636 9.28094 16.3528 5.11551 11.0173 5.6896Z" fill="url(#paint1_linear_40_4755)"/>
<path d="M11.6687 13.6986L17.4246 10.9409C17.5114 10.8995 17.615 10.9359 17.6564 11.0227C17.6941 11.1013 17.6673 11.1936 17.5978 11.2413L12.3314 14.8472C12.0282 15.055 11.6146 14.9772 11.4069 14.674C11.1992 14.3709 11.2769 13.9572 11.5801 13.7495C11.6078 13.7304 11.6396 13.7127 11.6687 13.6986Z" fill="#CF2E2E"/>
<path d="M12.0001 15.1817C12.5021 15.1817 12.9091 14.7747 12.9091 14.2726C12.9091 13.7705 12.5021 13.3635 12.0001 13.3635C11.498 13.3635 11.091 13.7705 11.091 14.2726C11.091 14.7747 11.498 15.1817 12.0001 15.1817Z" fill="#ED5555"/>
<path d="M12.0001 8.36355C12.2511 8.36355 12.4546 8.16005 12.4546 7.90901C12.4546 7.65798 12.2511 7.45447 12.0001 7.45447C11.7491 7.45447 11.5455 7.65798 11.5455 7.90901C11.5455 8.16005 11.7491 8.36355 12.0001 8.36355Z" fill="#666666"/>
<path d="M18.3637 14.7272C18.6147 14.7272 18.8182 14.5237 18.8182 14.2727C18.8182 14.0217 18.6147 13.8181 18.3637 13.8181C18.1127 13.8181 17.9091 14.0217 17.9091 14.2727C17.9091 14.5237 18.1127 14.7272 18.3637 14.7272Z" fill="#666666"/>
<path d="M5.63647 14.7272C5.8875 14.7272 6.09101 14.5237 6.09101 14.2727C6.09101 14.0217 5.8875 13.8181 5.63647 13.8181C5.38543 13.8181 5.18192 14.0217 5.18192 14.2727C5.18192 14.5237 5.38543 14.7272 5.63647 14.7272Z" fill="#666666"/>
<path d="M8.81827 9.21634C9.0693 9.21634 9.27281 9.01283 9.27281 8.76179C9.27281 8.51076 9.0693 8.30725 8.81827 8.30725C8.56723 8.30725 8.36372 8.51076 8.36372 8.76179C8.36372 9.01283 8.56723 9.21634 8.81827 9.21634Z" fill="#666666"/>
<path d="M6.48919 17.909C6.74023 17.909 6.94373 17.7054 6.94373 17.4544C6.94373 17.2034 6.74023 16.9999 6.48919 16.9999C6.23815 16.9999 6.03465 17.2034 6.03465 17.4544C6.03465 17.7054 6.23815 17.909 6.48919 17.909Z" fill="#666666"/>
<path d="M6.48919 11.5454C6.74023 11.5454 6.94373 11.3419 6.94373 11.0909C6.94373 10.8399 6.74023 10.6364 6.48919 10.6364C6.23815 10.6364 6.03465 10.8399 6.03465 11.0909C6.03465 11.3419 6.23815 11.5454 6.48919 11.5454Z" fill="#666666"/>
<path d="M17.5109 17.909C17.7619 17.909 17.9655 17.7054 17.9655 17.4544C17.9655 17.2034 17.7619 16.9999 17.5109 16.9999C17.2599 16.9999 17.0564 17.2034 17.0564 17.4544C17.0564 17.7054 17.2599 17.909 17.5109 17.909Z" fill="#666666"/>
<path d="M15.1819 9.21634C15.4329 9.21634 15.6364 9.01283 15.6364 8.76179C15.6364 8.51076 15.4329 8.30725 15.1819 8.30725C14.9309 8.30725 14.7273 8.51076 14.7273 8.76179C14.7273 9.01283 14.9309 9.21634 15.1819 9.21634Z" fill="#666666"/>
<defs>
<radialGradient id="paint0_radial_40_4755" cx="0" cy="0" r="1" gradientUnits="userSpaceOnUse" gradientTransform="translate(16.7205 19.0772) scale(15.8658 15.8658)">
<stop stop-color="#9E6FD9"/>
<stop offset="0.173" stop-color="#AA73C7"/>
<stop offset="0.522" stop-color="#CA7F97"/>
<stop offset="1" stop-color="#FC914D"/>
</radialGradient>
<linearGradient id="paint1_linear_40_4755" x1="9.8028" y1="5.90869" x2="14.0287" y2="22.42" gradientUnits="userSpaceOnUse">
<stop stop-color="#4B4B4B"/>
<stop offset="0.531" stop-color="#393939"/>
<stop offset="1" stop-color="#252525"/>
</linearGradient>
</defs>
</svg>
