<svg width="24" height="24" viewBox="0 0 24 24" fill="none" xmlns="http://www.w3.org/2000/svg">
<path d="M6.86111 7.55556H2.69444C2.31278 7.55556 2 7.24333 2 6.86111V2.69444C2 2.31278 2.31278 2 2.69444 2H6.86111C7.24333 2 7.55556 2.31278 7.55556 2.69444V6.86111C7.55556 7.24333 7.24333 7.55556 6.86111 7.55556Z" fill="url(#paint0_linear_40_4769)"/>
<path d="M14.0833 7.55556H9.91667C9.535 7.55556 9.22222 7.24333 9.22222 6.86111V2.69444C9.22222 2.31278 9.535 2 9.91667 2H14.0833C14.4656 2 14.7778 2.31278 14.7778 2.69444V6.86111C14.7778 7.24333 14.4656 7.55556 14.0833 7.55556Z" fill="url(#paint1_linear_40_4769)"/>
<path d="M21.3056 7.55556H17.1389C16.7572 7.55556 16.4444 7.24333 16.4444 6.86111V2.69444C16.4444 2.31278 16.7572 2 17.1389 2H21.3056C21.6878 2 22 2.31278 22 2.69444V6.86111C22 7.24333 21.6878 7.55556 21.3056 7.55556Z" fill="url(#paint2_linear_40_4769)"/>
<path d="M6.86111 14.7777H2.69444C2.31278 14.7777 2 14.4655 2 14.0833V9.91661C2 9.53495 2.31278 9.22217 2.69444 9.22217H6.86111C7.24333 9.22217 7.55556 9.53495 7.55556 9.91661V14.0833C7.55556 14.4655 7.24333 14.7777 6.86111 14.7777Z" fill="url(#paint3_linear_40_4769)"/>
<path d="M14.0833 14.7777H9.91667C9.535 14.7777 9.22222 14.4655 9.22222 14.0833V9.91661C9.22222 9.53439 9.535 9.22217 9.91667 9.22217H14.0833C14.4656 9.22217 14.7778 9.53495 14.7778 9.91661V14.0833C14.7778 14.4655 14.4656 14.7777 14.0833 14.7777Z" fill="url(#paint4_linear_40_4769)"/>
<path d="M21.3056 14.7777H17.1389C16.7572 14.7777 16.4444 14.4655 16.4444 14.0833V9.91661C16.4444 9.53439 16.7572 9.22217 17.1389 9.22217H21.3056C21.6878 9.22217 22 9.53495 22 9.91661V14.0833C22 14.4655 21.6878 14.7777 21.3056 14.7777Z" fill="url(#paint5_linear_40_4769)"/>
<path d="M6.86111 22H2.69444C2.31278 22 2 21.6878 2 21.3056V17.1389C2 16.7572 2.31278 16.4445 2.69444 16.4445H6.86111C7.24333 16.4445 7.55556 16.7572 7.55556 17.1389V21.3056C7.55556 21.6878 7.24333 22 6.86111 22Z" fill="url(#paint6_linear_40_4769)"/>
<path d="M14.0833 22H9.91667C9.535 22 9.22222 21.6878 9.22222 21.3056V17.1389C9.22222 16.7567 9.535 16.4445 9.91667 16.4445H14.0833C14.4656 16.4445 14.7778 16.7572 14.7778 17.1389V21.3056C14.7778 21.6878 14.4656 22 14.0833 22Z" fill="url(#paint7_linear_40_4769)"/>
<path d="M21.3056 22H17.1389C16.7572 22 16.4444 21.6878 16.4444 21.3056V17.1389C16.4444 16.7567 16.7572 16.4445 17.1389 16.4445H21.3056C21.6878 16.4445 22 16.7572 22 17.1389V21.3056C22 21.6878 21.6878 22 21.3056 22Z" fill="url(#paint8_linear_40_4769)"/>
<defs>
<linearGradient id="paint0_linear_40_4769" x1="4.77778" y1="1.84611" x2="4.77778" y2="7.27111" gradientUnits="userSpaceOnUse">
<stop stop-color="#32BDEF"/>
<stop offset="1" stop-color="#1EA2E4"/>
</linearGradient>
<linearGradient id="paint1_linear_40_4769" x1="12" y1="1.84611" x2="12" y2="7.27111" gradientUnits="userSpaceOnUse">
<stop stop-color="#32BDEF"/>
<stop offset="1" stop-color="#1EA2E4"/>
</linearGradient>
<linearGradient id="paint2_linear_40_4769" x1="19.2222" y1="1.84611" x2="19.2222" y2="7.27111" gradientUnits="userSpaceOnUse">
<stop stop-color="#32BDEF"/>
<stop offset="1" stop-color="#1EA2E4"/>
</linearGradient>
<linearGradient id="paint3_linear_40_4769" x1="4.77778" y1="9.0805" x2="4.77778" y2="14.2822" gradientUnits="userSpaceOnUse">
<stop stop-color="#32BDEF"/>
<stop offset="1" stop-color="#1EA2E4"/>
</linearGradient>
<linearGradient id="paint4_linear_40_4769" x1="12" y1="9.0805" x2="12" y2="14.2822" gradientUnits="userSpaceOnUse">
<stop stop-color="#32BDEF"/>
<stop offset="1" stop-color="#1EA2E4"/>
</linearGradient>
<linearGradient id="paint5_linear_40_4769" x1="19.2222" y1="9.0805" x2="19.2222" y2="14.2822" gradientUnits="userSpaceOnUse">
<stop stop-color="#32BDEF"/>
<stop offset="1" stop-color="#1EA2E4"/>
</linearGradient>
<linearGradient id="paint6_linear_40_4769" x1="4.77778" y1="16.6456" x2="4.77778" y2="21.6583" gradientUnits="userSpaceOnUse">
<stop stop-color="#32BDEF"/>
<stop offset="1" stop-color="#1EA2E4"/>
</linearGradient>
<linearGradient id="paint7_linear_40_4769" x1="12" y1="16.6456" x2="12" y2="21.6583" gradientUnits="userSpaceOnUse">
<stop stop-color="#32BDEF"/>
<stop offset="1" stop-color="#1EA2E4"/>
</linearGradient>
<linearGradient id="paint8_linear_40_4769" x1="19.2222" y1="16.6456" x2="19.2222" y2="21.6583" gradientUnits="userSpaceOnUse">
<stop stop-color="#32BDEF"/>
<stop offset="1" stop-color="#1EA2E4"/>
</linearGradient>
</defs>
</svg>
