<svg width="24" height="24" viewBox="0 0 24 24" fill="none" xmlns="http://www.w3.org/2000/svg">
<path d="M12.4418 2.75223L15.0926 8.69853L21.5664 9.38229C21.983 9.42633 22.1505 9.94265 21.8393 10.2228L17.0036 14.5805L18.3542 20.9492C18.4413 21.3591 18.0019 21.678 17.639 21.4689L11.9999 18.2156L6.36093 21.4684C5.99799 21.6775 5.55909 21.3586 5.64571 20.9487L6.9963 14.58L2.16058 10.2224C1.84943 9.94217 2.01734 9.42584 2.43351 9.38181L8.90727 8.69804L11.5581 2.75174C11.7285 2.36946 12.2714 2.36946 12.4418 2.75223Z" fill="url(#paint0_linear_40_4786)"/>
<path d="M21.5664 9.38235L15.0926 8.69859L12.4418 2.75229C12.3566 2.56066 12.178 2.46533 11.9999 2.46533V18.2157L17.639 21.469C18.0019 21.678 18.4413 21.3591 18.3542 20.9493L17.0036 14.5805L21.8393 10.2229C22.1505 9.94271 21.983 9.42639 21.5664 9.38235Z" fill="url(#paint1_radial_40_4786)"/>
<defs>
<linearGradient id="paint0_linear_40_4786" x1="4.74563" y1="3.32034" x2="18.8192" y2="22.1474" gradientUnits="userSpaceOnUse">
<stop stop-color="#FFDA1C"/>
<stop offset="1" stop-color="#FEB705"/>
</linearGradient>
<radialGradient id="paint1_radial_40_4786" cx="0" cy="0" r="1" gradientUnits="userSpaceOnUse" gradientTransform="translate(10.2458 10.2292) scale(11.1808)">
<stop stop-color="#FAFAFB"/>
<stop offset="0.293" stop-color="#F6F7F8"/>
<stop offset="0.566" stop-color="#EBECEE"/>
<stop offset="0.832" stop-color="#D8DCDF"/>
<stop offset="1" stop-color="#C8CDD1"/>
</radialGradient>
</defs>
</svg>
