<svg width="24" height="24" viewBox="0 0 24 24" fill="none" xmlns="http://www.w3.org/2000/svg">
<path d="M17.4194 2H3.11111C2.49722 2 2 2.49722 2 3.11111V19.2222H18.6667V3.24722C18.6667 2.55833 18.1083 2 17.4194 2Z" fill="url(#paint0_linear_40_4793)"/>
<path d="M12 2H17.5556C18.1694 2 18.6667 2.49722 18.6667 3.11111V18.6667H12V2Z" fill="url(#paint1_linear_40_4793)"/>
<path d="M2 18.6666H20.8889C21.5028 18.6666 22 19.1638 22 19.7777V20.8888C22 21.5027 21.5028 22 20.8889 22H3.11111C2.49722 22 2 21.5027 2 20.8888V18.6666Z" fill="url(#paint2_linear_40_4793)"/>
<path opacity="0.05" d="M3.94445 5.33331C3.485 5.33331 3.11111 4.95942 3.11111 4.49997V3.94442C3.11111 3.48497 3.485 3.11108 3.94445 3.11108H10.0556C10.515 3.11108 10.8889 3.48497 10.8889 3.94442V4.49997C10.8889 4.95942 10.515 5.33331 10.0556 5.33331H3.94445Z" fill="black"/>
<path opacity="0.07" d="M3.94444 5.05558C3.63833 5.05558 3.38889 4.80614 3.38889 4.50003V3.94447C3.38889 3.63836 3.63833 3.38892 3.94444 3.38892H10.0556C10.3617 3.38892 10.6111 3.63836 10.6111 3.94447V4.50003C10.6111 4.80614 10.3617 5.05558 10.0556 5.05558H3.94444Z" fill="black"/>
<path d="M3.94445 3.66663H10.0556C10.2089 3.66663 10.3333 3.79107 10.3333 3.9444V4.49996C10.3333 4.65329 10.2089 4.77774 10.0556 4.77774H3.94445C3.79112 4.77774 3.66667 4.65329 3.66667 4.49996V3.9444C3.66667 3.79107 3.79112 3.66663 3.94445 3.66663Z" fill="white"/>
<path opacity="0.05" d="M3.94445 8.11114C3.485 8.11114 3.11111 7.73725 3.11111 7.2778V6.72225C3.11111 6.2628 3.485 5.88892 3.94445 5.88892H10.0556C10.515 5.88892 10.8889 6.2628 10.8889 6.72225V7.2778C10.8889 7.73725 10.515 8.11114 10.0556 8.11114H3.94445Z" fill="black"/>
<path opacity="0.07" d="M3.94444 7.83329C3.63833 7.83329 3.38889 7.58385 3.38889 7.27774V6.72218C3.38889 6.41607 3.63833 6.16663 3.94444 6.16663H10.0556C10.3617 6.16663 10.6111 6.41607 10.6111 6.72218V7.27774C10.6111 7.58385 10.3617 7.83329 10.0556 7.83329H3.94444Z" fill="black"/>
<path d="M3.94445 6.44446H10.0556C10.2089 6.44446 10.3333 6.5689 10.3333 6.72224V7.27779C10.3333 7.43112 10.2089 7.55557 10.0556 7.55557H3.94445C3.79112 7.55557 3.66667 7.43112 3.66667 7.27779V6.72224C3.66667 6.5689 3.79112 6.44446 3.94445 6.44446Z" fill="white"/>
<path opacity="0.05" d="M13.3889 17.5556C12.9294 17.5556 12.5556 17.1817 12.5556 16.7223V16.1667C12.5556 15.7073 12.9294 15.3334 13.3889 15.3334H17.2778C17.7372 15.3334 18.1111 15.7073 18.1111 16.1667V16.7223C18.1111 17.1817 17.7372 17.5556 17.2778 17.5556H13.3889Z" fill="black"/>
<path opacity="0.07" d="M13.3889 17.2778C13.0828 17.2778 12.8333 17.0283 12.8333 16.7222V16.1666C12.8333 15.8605 13.0828 15.6111 13.3889 15.6111H17.2778C17.5839 15.6111 17.8333 15.8605 17.8333 16.1666V16.7222C17.8333 17.0283 17.5839 17.2778 17.2778 17.2778H13.3889Z" fill="black"/>
<path d="M13.3889 15.8889H17.2778C17.4311 15.8889 17.5556 16.0134 17.5556 16.1667V16.7222C17.5556 16.8756 17.4311 17 17.2778 17H13.3889C13.2356 17 13.1111 16.8756 13.1111 16.7222V16.1667C13.1111 16.0134 13.2356 15.8889 13.3889 15.8889Z" fill="white"/>
<path opacity="0.05" d="M3.94445 21.4444C3.485 21.4444 3.11111 21.0705 3.11111 20.6111V20.0555C3.11111 19.5961 3.485 19.2222 3.94445 19.2222H4.5C4.95945 19.2222 5.33334 19.5961 5.33334 20.0555V20.6111C5.33334 21.0705 4.95945 21.4444 4.5 21.4444H3.94445Z" fill="black"/>
<path opacity="0.07" d="M3.94444 21.1667C3.63833 21.1667 3.38889 20.9172 3.38889 20.6111V20.0556C3.38889 19.7494 3.63833 19.5 3.94444 19.5H4.5C4.80611 19.5 5.05555 19.7494 5.05555 20.0556V20.6111C5.05555 20.9172 4.80611 21.1667 4.5 21.1667H3.94444Z" fill="black"/>
<path d="M4.50001 20.8889H3.94445C3.79112 20.8889 3.66667 20.7645 3.66667 20.6112V20.0556C3.66667 19.9023 3.79112 19.7778 3.94445 19.7778H4.50001C4.65334 19.7778 4.77778 19.9023 4.77778 20.0556V20.6112C4.77778 20.7645 4.65334 20.8889 4.50001 20.8889Z" fill="white"/>
<defs>
<linearGradient id="paint0_linear_40_4793" x1="2" y1="10.6111" x2="18.6667" y2="10.6111" gradientUnits="userSpaceOnUse">
<stop stop-color="#42A3F2"/>
<stop offset="1" stop-color="#42A4EB"/>
</linearGradient>
<linearGradient id="paint1_linear_40_4793" x1="12" y1="10.3333" x2="18.6667" y2="10.3333" gradientUnits="userSpaceOnUse">
<stop stop-color="#1951A8"/>
<stop offset="0.175" stop-color="#1955B0"/>
<stop offset="0.505" stop-color="#195AB9"/>
<stop offset="1" stop-color="#195BBC"/>
</linearGradient>
<linearGradient id="paint2_linear_40_4793" x1="8.943" y1="18.8124" x2="9.03609" y2="22.4426" gradientUnits="userSpaceOnUse">
<stop stop-color="#0D61A9"/>
<stop offset="1" stop-color="#16528C"/>
</linearGradient>
</defs>
</svg>
