<svg width="24" height="24" viewBox="0 0 24 24" fill="none" xmlns="http://www.w3.org/2000/svg">
<path d="M17.5 15.1757V4.9552H2V15.1757C2 15.6252 2.349 15.9932 2.775 15.9932H16.725C17.151 15.9932 17.5 15.6252 17.5 15.1757Z" fill="url(#paint0_linear_40_4810)"/>
<path opacity="0.05" d="M7.275 7.50671C6.572 7.50671 6 8.08021 6 8.78621V15.9932H16.725C17.151 15.9932 17.5 15.6252 17.5 15.1757V7.50671H7.275Z" fill="black"/>
<path opacity="0.07" d="M7.275 7.75671C6.71 7.75671 6.25 8.21871 6.25 8.78621V15.9932H16.725C17.151 15.9932 17.5 15.6252 17.5 15.1757V7.75671H7.275Z" fill="black"/>
<path d="M2 3.78621V5.10121H17.5V3.78621C17.5 3.35721 17.151 3.00671 16.725 3.00671H2.775C2.3485 3.00671 2 3.35721 2 3.78621Z" fill="url(#paint1_linear_40_4810)"/>
<path d="M22 20.1757V9.9552H6.5V20.1757C6.5 20.6252 6.849 20.9932 7.275 20.9932H21.225C21.651 20.9932 22 20.6252 22 20.1757Z" fill="url(#paint2_linear_40_4810)"/>
<path d="M6.5 8.78621V10.1012H22V8.78621C22 8.35721 21.651 8.00671 21.225 8.00671H7.275C6.8485 8.00671 6.5 8.35721 6.5 8.78621Z" fill="url(#paint3_linear_40_4810)"/>
<defs>
<linearGradient id="paint0_linear_40_4810" x1="2" y1="10.4742" x2="17.5" y2="10.4742" gradientUnits="userSpaceOnUse">
<stop stop-color="#199AE0"/>
<stop offset="1" stop-color="#0782D8"/>
</linearGradient>
<linearGradient id="paint1_linear_40_4810" x1="1.096" y1="4.05421" x2="17.3825" y2="4.05421" gradientUnits="userSpaceOnUse">
<stop stop-color="#004C87"/>
<stop offset="1" stop-color="#003A70"/>
</linearGradient>
<linearGradient id="paint2_linear_40_4810" x1="11.3869" y1="10.1247" x2="15.7273" y2="21.8762" gradientUnits="userSpaceOnUse">
<stop stop-color="#7DD8F3"/>
<stop offset="1" stop-color="#45B0D0"/>
</linearGradient>
<linearGradient id="paint3_linear_40_4810" x1="10.064" y1="9.05421" x2="27.8085" y2="9.05421" gradientUnits="userSpaceOnUse">
<stop stop-color="#2AA4F4"/>
<stop offset="1" stop-color="#007AD9"/>
</linearGradient>
</defs>
</svg>
