<svg width="24" height="24" viewBox="0 0 24 24" fill="none" xmlns="http://www.w3.org/2000/svg">
<path d="M12 4.63158C11.7095 4.63158 11.4737 4.39579 11.4737 4.10526V2.52632C11.4737 2.23579 11.7095 2 12 2C12.2905 2 12.5263 2.23579 12.5263 2.52632V4.10526C12.5263 4.39579 12.2905 4.63158 12 4.63158Z" fill="#16538C"/>
<path d="M15.4211 22C15.0958 22 14.7916 21.7974 14.6768 21.4737L12 13.9068L9.32317 21.4737C9.1779 21.8847 8.72527 22.0995 8.3158 21.9547C7.90474 21.8095 7.68948 21.3584 7.83474 20.9474L11.2558 11.2763C11.3674 10.9605 11.6653 10.75 12 10.75C12.3347 10.75 12.6326 10.9605 12.7442 11.2763L16.1653 20.9474C16.3105 21.3584 16.0953 21.8095 15.6842 21.9547C15.5974 21.9858 15.5084 22 15.4211 22Z" fill="#16538C"/>
<path d="M21.4737 3.11841H2.52632C2.23579 3.11841 2 3.3542 2 3.64472V17.7895C2 18.08 2.23579 18.3158 2.52632 18.3158H21.4737C21.7642 18.3158 22 18.08 22 17.7895V3.64472C22 3.3542 21.7642 3.11841 21.4737 3.11841Z" fill="url(#paint0_linear_40_4818)"/>
<path d="M6.21053 14.1053C6.07579 14.1053 5.94106 14.0537 5.83842 13.9511C5.63263 13.7453 5.63263 13.4127 5.83842 13.2069L9.78579 9.25952C9.99158 9.05373 10.3242 9.05373 10.53 9.25952L13.3158 12.0453L16.6279 8.7332C16.8337 8.52741 17.1663 8.52741 17.3721 8.7332C17.5779 8.93899 17.5779 9.27162 17.3721 9.47741L13.6879 13.1616C13.4821 13.3674 13.1495 13.3674 12.9437 13.1616L10.1579 10.3758L6.58263 13.9511C6.48 14.0537 6.34527 14.1053 6.21053 14.1053Z" fill="white"/>
<path d="M15.6842 7.78943L18.3158 10.421V7.78943H15.6842Z" fill="white"/>
<defs>
<linearGradient id="paint0_linear_40_4818" x1="8.943" y1="3.783" x2="10.8531" y2="20.1218" gradientUnits="userSpaceOnUse">
<stop stop-color="#0D61A9"/>
<stop offset="1" stop-color="#16528C"/>
</linearGradient>
</defs>
</svg>
