<svg width="24" height="24" viewBox="0 0 24 24" fill="none" xmlns="http://www.w3.org/2000/svg">
<path d="M11 3.5H11.5V2H11C10.724 2 10.5 2.224 10.5 2.5V3C10.5 3.276 10.724 3.5 11 3.5Z" fill="#0669BC"/>
<path d="M4.5 2H4V3.5H4.5C4.776 3.5 5 3.276 5 3V2.5C5 2.224 4.776 2 4.5 2Z" fill="#0669BC"/>
<path d="M18 12V15.75C18 18.3735 15.8735 20.5 13.25 20.5C10.6265 20.5 8.5 18.3735 8.5 15.75V12C10.9855 12 13 9.9855 13 7.5V3C13 2.4475 12.5525 2 12 2H11.5V7.5C11.5 9.157 10.157 10.5 8.5 10.5H7C5.343 10.5 4 9.157 4 7.5V2H3.5C2.9475 2 2.5 2.4475 2.5 3V7.5C2.5 9.9855 4.5145 12 7 12V15.75C7 19.202 9.798 22 13.25 22C16.702 22 19.5 19.202 19.5 15.75V12H18Z" fill="url(#paint0_linear_40_4825)"/>
<path d="M18.75 14.5C20.2688 14.5 21.5 13.2688 21.5 11.75C21.5 10.2312 20.2688 9 18.75 9C17.2312 9 16 10.2312 16 11.75C16 13.2688 17.2312 14.5 18.75 14.5Z" fill="#0B5CA8"/>
<path d="M18.75 13C19.4404 13 20 12.4404 20 11.75C20 11.0596 19.4404 10.5 18.75 10.5C18.0596 10.5 17.5 11.0596 17.5 11.75C17.5 12.4404 18.0596 13 18.75 13Z" fill="#45D7F9"/>
<defs>
<linearGradient id="paint0_linear_40_4825" x1="9.5615" y1="1.4035" x2="13.2045" y2="23.025" gradientUnits="userSpaceOnUse">
<stop stop-color="#26ABE7"/>
<stop offset="1" stop-color="#086DBF"/>
</linearGradient>
</defs>
</svg>
