<svg width="24" height="24" viewBox="0 0 24 24" fill="none" xmlns="http://www.w3.org/2000/svg">
<path d="M22 13.75V20.75H18V13.25H21.5C21.776 13.25 22 13.474 22 13.75Z" fill="#61E3A7"/>
<path d="M18 13.25V20.75H14V13.25H18Z" fill="#33C481"/>
<path d="M14 9.25V20.75H10V9.25C10 8.974 10.224 8.75 10.5 8.75H13.5C13.776 8.75 14 8.974 14 9.25Z" fill="#21A366"/>
<path d="M10 11.75V20.75H6V12.25C6 11.974 6.224 11.75 6.5 11.75H10Z" fill="url(#paint0_linear_40_4832)"/>
<path d="M6 14.75V20.75H2V15.25C2 14.974 2.224 14.75 2.5 14.75H6Z" fill="#185C37"/>
<path d="M2.3035 8.73149L8.3135 4.36499L9.418 5.88499L3.408 10.2515C3.1845 10.414 2.8715 10.3645 2.7095 10.141L2.193 9.42999C2.03 9.20699 2.0795 8.89399 2.3035 8.73149Z" fill="#33C481"/>
<path d="M9.8995 7.78005L10.431 4.42555C10.474 4.15305 10.288 3.89655 10.0155 3.85355L6.661 3.32205C6.441 3.28705 6.2885 3.53605 6.4195 3.71605L9.4505 7.88805C9.581 8.06755 9.8645 7.99955 9.8995 7.78005Z" fill="#33C481"/>
<path d="M18.3325 10.031C18.7795 9.959 19.003 9.7245 19.003 9.3275C19.003 9.006 18.7795 8.7435 18.3325 8.54C18.1395 8.4565 17.9095 8.36 17.648 8.2595C16.9165 7.974 16.417 7.665 16.15 7.332C15.9245 7.0515 15.7945 6.719 15.759 6.3345C15.7085 5.7835 15.8815 5.214 16.2505 4.8185C16.5995 4.4435 17.0655 4.226 17.6485 4.1655V3.4955C17.6475 3.36 17.7525 3.25 17.8815 3.25H18.098C18.227 3.25 18.332 3.36 18.332 3.4955V4.1455C18.9085 4.174 19.3575 4.263 19.6785 4.412C19.761 4.4505 19.809 4.54 19.809 4.635V5.403C19.809 5.5795 19.6355 5.701 19.483 5.626C19.131 5.454 18.7475 5.344 18.332 5.297C18.1195 5.2725 17.864 5.265 17.6315 5.3095C17.236 5.387 16.996 5.6495 16.9955 6.03C16.995 6.368 17.2095 6.6415 17.6475 6.8765C17.8885 7.0075 18.123 7.098 18.332 7.162C19.018 7.397 19.507 7.7175 19.804 8.0505C20.101 8.3835 20.2495 8.786 20.2495 9.2585C20.2495 9.803 20.084 10.242 19.7525 10.5745C19.421 10.9075 18.9475 11.11 18.332 11.182V12.004C18.332 12.1395 18.227 12.2495 18.098 12.2495H17.8815C17.7525 12.2495 17.6475 12.1395 17.6475 12.004V11.2115C17.0645 11.2085 16.519 11.081 16.01 10.829C15.9275 10.788 15.8755 10.6975 15.8755 10.6015V9.847C15.8755 9.664 16.0585 9.536 16.214 9.6185C16.349 9.69 16.5065 9.7585 16.6865 9.824C17.046 9.955 17.3665 10.0305 17.6475 10.0505C17.8875 10.0655 18.1165 10.06 18.3325 10.031Z" fill="url(#paint1_linear_40_4832)"/>
<defs>
<linearGradient id="paint0_linear_40_4832" x1="6.5858" y1="13.0681" x2="11.3095" y2="15.1675" gradientUnits="userSpaceOnUse">
<stop stop-color="#21AD64"/>
<stop offset="1" stop-color="#088242"/>
</linearGradient>
<linearGradient id="paint1_linear_40_4832" x1="16.4093" y1="4.56798" x2="21.4997" y2="7.11281" gradientUnits="userSpaceOnUse">
<stop stop-color="#21AD64"/>
<stop offset="1" stop-color="#088242"/>
</linearGradient>
</defs>
</svg>
