<svg width="24" height="24" viewBox="0 0 24 24" fill="none" xmlns="http://www.w3.org/2000/svg">
<path d="M20.6932 5.18176H3.30682C2.585 5.18176 2 5.76676 2 6.48858V17.5113C2 18.2331 2.585 18.8181 3.30682 18.8181H20.6932C21.415 18.8181 22 18.2331 22 17.5113V6.48858C22 5.76676 21.415 5.18176 20.6932 5.18176Z" fill="url(#paint0_linear_40_4842)"/>
<path opacity="0.05" d="M20.1336 12.4559C20.1582 12.3477 20.1609 12.0804 20.1609 11.9704C20.1609 11.3145 20.0109 10.7818 19.7105 10.3809C19.3791 9.95313 18.8841 9.72722 18.2786 9.72722C17.5864 9.72722 17.0336 10.019 16.6864 10.5268C16.6332 10.4163 16.5718 10.3159 16.5018 10.2263C16.2182 9.85722 15.8036 9.66222 15.3036 9.66222C15.1095 9.66222 14.9236 9.69767 14.7464 9.76813L14.7395 9.73085H13.2791C13.3577 9.58358 13.4023 9.41494 13.4023 9.23631C13.4023 8.65494 12.9332 8.18176 12.3568 8.18176C11.7745 8.18176 11.3009 8.65494 11.3009 9.23631C11.3009 9.39722 11.3377 9.54994 11.4027 9.68631C11.2364 9.67222 11.0841 9.69085 10.9423 9.73176H9.80409V9.7304H8.99454V8.62767L7.17591 8.9304L7.03591 9.78949L6.69454 9.8454L6.68364 9.91358C6.41636 9.81449 6.05409 9.72722 5.60909 9.72722C5.12227 9.72722 4.705 9.86176 4.40818 10.1104C4.05864 10.3918 3.87454 10.795 3.87454 11.2759C3.87454 11.5795 3.94364 11.8227 4.05909 12.02L3.79409 13.7613L4.06864 13.9154C4.36409 14.08 4.92591 14.2727 5.54 14.2727C6.05364 14.2727 6.48409 14.1413 6.77045 13.904C6.89364 13.8109 7.02727 13.6772 7.13409 13.4909C7.21591 13.6668 7.32954 13.8154 7.475 13.9354C7.74818 14.1531 8.11454 14.2586 8.59545 14.2586C8.81727 14.2586 8.98636 14.2345 9.11454 14.2077V14.2727H11.1518V11.664C11.1918 11.6554 11.2509 11.6509 11.3305 11.6504V14.2727H12.9091V15.719L14.9436 15.3777L14.9505 14.2581C14.9714 14.2586 14.9927 14.259 15.0132 14.259C15.3918 14.259 15.9341 14.1604 16.3645 13.6904C16.4523 13.5945 16.5305 13.4877 16.5982 13.37C16.6805 13.5086 16.7782 13.6318 16.8918 13.7395C17.2582 14.0931 17.7664 14.2727 18.4023 14.2727C18.9609 14.2727 19.4882 14.1368 19.8482 13.9004L20.0936 13.739L19.9464 12.8113H20.0536L20.1336 12.4559ZM9.11454 11.4777V12.3768L9.05136 12.3959C9.03818 12.4 9.01727 12.405 8.99364 12.4095V11.4777H9.11454ZM6.97591 11.6913C6.97454 11.69 6.97364 11.6886 6.97227 11.6872L6.97591 11.665V11.6913Z" fill="black"/>
<path opacity="0.07" d="M19.5305 10.5196C19.2441 10.1501 18.8109 9.9546 18.2786 9.9546C17.4836 9.9546 16.8968 10.3951 16.6445 11.1287C16.5818 10.816 16.4741 10.5605 16.3223 10.3651C16.08 10.0496 15.7373 9.88915 15.3036 9.88915C15.0414 9.88915 14.8014 9.96233 14.5773 10.111L14.5496 9.95778H13.1364H12.7514C13.0036 9.81687 13.1746 9.54642 13.1746 9.23596C13.1746 8.7796 12.8073 8.40869 12.3564 8.40869C11.8996 8.40869 11.5277 8.7796 11.5277 9.23596C11.5277 9.54642 11.7009 9.81687 11.9564 9.95778H11.6336L11.565 9.94233C11.4632 9.9196 11.3791 9.90915 11.3009 9.90915C11.0986 9.90915 10.915 9.96278 10.7646 10.061L10.7477 9.95869H9.53455V9.95733H8.76637V8.89596L7.37319 9.12778L7.23273 9.98687L6.89182 10.0432L6.86046 10.2382L6.81819 10.2173C6.61501 10.1191 6.18819 9.9546 5.6091 9.9546C5.17637 9.9546 4.80955 10.0705 4.55091 10.2869C4.25728 10.5237 4.10182 10.8655 4.10182 11.276C4.10182 12.0637 4.64728 12.3687 5.23682 12.5814C5.53182 12.6873 5.59682 12.7441 5.61819 12.7441C5.62137 12.7441 5.67591 12.7687 5.47682 12.7687C5.23501 12.7687 4.81091 12.6387 4.53182 12.4791L4.2441 12.3146L4.04273 13.6401L4.18 13.7169C4.45091 13.8682 4.96955 14.0455 5.54 14.0455C6.00046 14.0455 6.38091 13.9323 6.63319 13.7237C6.94728 13.4851 7.10637 13.1328 7.10637 12.6773C7.10728 11.8737 6.5541 11.5669 5.95546 11.3546C5.80819 11.2991 5.71819 11.2587 5.66455 11.2332C5.90364 11.2337 6.20819 11.3169 6.4791 11.4555L6.75637 11.5973L6.81319 11.2523H7.20319V12.671C7.20319 13.1651 7.34091 13.5296 7.61637 13.7573C7.85091 13.9437 8.16228 14.031 8.59546 14.031C8.92364 14.031 9.12591 13.9732 9.24728 13.9387L9.34182 13.9119V14.0455H10.9246V11.5232C10.9923 11.4669 11.1005 11.4228 11.3164 11.4228C11.3636 11.4223 11.4146 11.4223 11.4841 11.4323L11.5577 11.4423V14.0455H13.1364V15.4505L14.7177 15.1855L14.725 14.0073C14.8236 14.0232 14.9209 14.0319 15.0136 14.0319C15.3468 14.0319 15.8227 13.9464 16.1973 13.5369C16.3791 13.3378 16.5132 13.0837 16.5982 12.7755C16.6855 13.106 16.8364 13.3737 17.0496 13.5764C17.3723 13.8878 17.8277 14.0455 18.4027 14.0455C18.9182 14.0455 19.4 13.9232 19.7241 13.7105L19.8468 13.6296L19.6809 12.5837H19.8727L19.9123 12.406C19.9336 12.3114 19.9336 11.9837 19.9336 11.9701C19.9332 11.3651 19.7986 10.8773 19.5305 10.5196ZM9.34182 12.5441L9.11819 12.6128C9.07137 12.6269 8.93773 12.6551 8.85955 12.6551C8.80591 12.6551 8.78955 12.6446 8.78955 12.6446C8.78955 12.6441 8.76637 12.6164 8.76637 12.5073V11.2501H9.12728V11.0437L9.34182 11.0614V12.5441ZM15.1277 11.8982C15.1291 12.2696 15.0646 12.4769 15.0091 12.5869C14.9314 12.7164 14.8273 12.7432 14.7264 12.7278V11.3028C14.8414 11.2091 14.9232 11.2078 14.9273 11.2078C15.075 11.2078 15.1277 11.5641 15.1277 11.8982ZM18.5246 12.7582C18.3714 12.7582 18.2646 12.7305 18.1959 12.6719C18.17 12.6501 18.1477 12.621 18.1295 12.5841H19.3105C19.0755 12.6996 18.8114 12.7582 18.5246 12.7582ZM18.0932 11.4441C18.1259 11.2591 18.1818 11.1655 18.2605 11.1655C18.3477 11.1655 18.3918 11.306 18.4141 11.4441H18.0932Z" fill="black"/>
<path d="M17.8395 11.6714C17.8709 11.1709 18.0005 10.9382 18.2605 10.9382C18.5095 10.9382 18.6459 11.1777 18.6632 11.6714H17.8395ZM19.7059 11.9705C19.7059 11.4114 19.5832 10.9691 19.3509 10.6591C19.1055 10.3423 18.7391 10.1818 18.2786 10.1818C17.3295 10.1818 16.735 10.8845 16.735 12.01C16.735 12.6391 16.8918 13.1132 17.2068 13.4123C17.4873 13.6827 17.89 13.8182 18.4023 13.8182C18.8782 13.8182 19.3191 13.7041 19.5986 13.5205L19.4768 12.7532C19.2009 12.9036 18.8814 12.9855 18.5245 12.9855C18.3109 12.9855 18.1582 12.9386 18.05 12.8455C17.9309 12.7459 17.8645 12.5855 17.8409 12.3564H19.69C19.7018 12.3041 19.7059 12.0482 19.7059 11.9705ZM15.2077 12.6968C15.1073 12.8682 14.9664 12.9605 14.8032 12.9605C14.6936 12.9605 14.5886 12.9364 14.4991 12.8936V11.2036C14.6936 11.0032 14.8691 10.9805 14.9273 10.9805C15.2141 10.9805 15.355 11.29 15.355 11.8973C15.3564 12.2427 15.3041 12.5118 15.2077 12.6968ZM16.1423 10.5041C15.9432 10.2445 15.6609 10.1164 15.3036 10.1164C14.98 10.1164 14.6932 10.2536 14.4245 10.5418L14.36 10.1855H13.3636V15.1818L14.4914 14.9927L14.4991 13.7205C14.675 13.7755 14.8532 13.8045 15.0132 13.8045C15.2982 13.8045 15.7086 13.7332 16.0291 13.3836C16.3323 13.0518 16.4818 12.5373 16.4818 11.8559C16.4818 11.2536 16.3705 10.7968 16.1423 10.5041ZM11.785 10.1855H12.9091V13.8182H11.785V10.1855ZM12.3564 9.83317C12.6827 9.83317 12.9473 9.56317 12.9473 9.23635C12.9473 8.90317 12.6818 8.63635 12.3564 8.63635C12.0209 8.63635 11.755 8.90317 11.755 9.23635C11.755 9.56363 12.0209 9.83317 12.3564 9.83317ZM11.3014 10.1364C10.9809 10.1364 10.72 10.3055 10.6236 10.605L10.5555 10.1864H9.56909V13.8182H10.6973V11.4318C10.8391 11.2582 11.0377 11.1955 11.3164 11.1955C11.3741 11.1955 11.4327 11.1955 11.5155 11.2073V10.1645C11.4323 10.1459 11.3636 10.1364 11.3014 10.1364ZM9.12727 11.025L9.26727 10.185H8.53954V9.16453L7.57182 9.32544L7.43136 10.185L7.09091 10.2409L6.965 11.0255H7.43045V12.6718C7.43045 13.0995 7.53864 13.3986 7.75773 13.58C7.94909 13.7323 8.21727 13.8041 8.59545 13.8041C8.89273 13.8041 9.06954 13.7532 9.185 13.7205V12.83C9.12454 12.8486 8.96682 12.8823 8.85954 12.8823C8.64136 12.8823 8.53909 12.7686 8.53909 12.5073V11.0232H9.12727V11.025ZM5.87773 11.5682C5.55636 11.4477 5.36955 11.3532 5.36955 11.2032C5.36955 11.0782 5.47364 11.0059 5.66318 11.0059C5.99818 11.0059 6.34909 11.1336 6.58273 11.2532L6.71909 10.4218C6.52909 10.33 6.14227 10.1818 5.60909 10.1818C5.22727 10.1818 4.91136 10.2818 4.69364 10.4641C4.45182 10.6591 4.32909 10.9382 4.32909 11.2759C4.32909 11.8882 4.70364 12.1477 5.31364 12.3677C5.70318 12.5077 5.83818 12.6073 5.83818 12.7623C5.83818 12.9086 5.71364 12.9959 5.47682 12.9959C5.19318 12.9959 4.73091 12.855 4.41909 12.6764L4.29091 13.5186C4.55273 13.665 5.03455 13.8182 5.54 13.8182C5.94318 13.8182 6.27727 13.7227 6.49545 13.5427C6.75364 13.3464 6.87909 13.0532 6.87909 12.6768C6.88 12.0482 6.49591 11.7868 5.87773 11.5682Z" fill="white"/>
<defs>
<linearGradient id="paint0_linear_40_4842" x1="10.3523" y1="6.11858" x2="14.1582" y2="19.7027" gradientUnits="userSpaceOnUse">
<stop stop-color="#00B3EE"/>
<stop offset="1" stop-color="#0082D8"/>
</linearGradient>
</defs>
</svg>
