<svg width="24" height="24" viewBox="0 0 24 24" fill="none" xmlns="http://www.w3.org/2000/svg">
<path d="M19.8947 3.05263V20.9474C19.8947 21.5289 19.4237 22 18.8421 22H5.15789C4.57632 22 4.10526 21.5289 4.10526 20.9474V3.05263C4.10526 2.47105 4.57632 2 5.15789 2H18.8421C19.4237 2 19.8947 2.47105 19.8947 3.05263Z" fill="url(#paint0_linear_40_4881)"/>
<path d="M12 12.5264H6.73684C6.44631 12.5264 6.21053 12.7622 6.21053 13.0527C6.21053 13.3432 6.44631 13.579 6.73684 13.579H12C12.2905 13.579 12.5263 13.3432 12.5263 13.0527C12.5263 12.7622 12.2905 12.5264 12 12.5264Z" fill="url(#paint1_linear_40_4881)"/>
<path d="M12 10.421H6.73684C6.44631 10.421 6.21053 10.6568 6.21053 10.9473C6.21053 11.2379 6.44631 11.4737 6.73684 11.4737H12C12.2905 11.4737 12.5263 11.2379 12.5263 10.9473C12.5263 10.6568 12.2905 10.421 12 10.421Z" fill="url(#paint2_linear_40_4881)"/>
<path d="M17.2632 11.4737C17.5538 11.4737 17.7895 11.238 17.7895 10.9473C17.7895 10.6567 17.5538 10.421 17.2632 10.421C16.9725 10.421 16.7368 10.6567 16.7368 10.9473C16.7368 11.238 16.9725 11.4737 17.2632 11.4737Z" fill="url(#paint3_linear_40_4881)"/>
<path d="M12 8.3158H6.73684C6.44631 8.3158 6.21053 8.55159 6.21053 8.84211C6.21053 9.13264 6.44631 9.36843 6.73684 9.36843H12C12.2905 9.36843 12.5263 9.13264 12.5263 8.84211C12.5263 8.55159 12.2905 8.3158 12 8.3158Z" fill="url(#paint4_linear_40_4881)"/>
<path d="M17.2632 9.36843C17.5538 9.36843 17.7895 9.13279 17.7895 8.84211C17.7895 8.55144 17.5538 8.3158 17.2632 8.3158C16.9725 8.3158 16.7368 8.55144 16.7368 8.84211C16.7368 9.13279 16.9725 9.36843 17.2632 9.36843Z" fill="url(#paint5_linear_40_4881)"/>
<path d="M12 6.21057H6.73684C6.44631 6.21057 6.21053 6.44636 6.21053 6.73689C6.21053 7.02741 6.44631 7.2632 6.73684 7.2632H12C12.2905 7.2632 12.5263 7.02741 12.5263 6.73689C12.5263 6.44636 12.2905 6.21057 12 6.21057Z" fill="url(#paint6_linear_40_4881)"/>
<path d="M17.2632 7.2632C17.5538 7.2632 17.7895 7.02756 17.7895 6.73689C17.7895 6.44621 17.5538 6.21057 17.2632 6.21057C16.9725 6.21057 16.7368 6.44621 16.7368 6.73689C16.7368 7.02756 16.9725 7.2632 17.2632 7.2632Z" fill="url(#paint7_linear_40_4881)"/>
<path d="M17.2632 13.579C17.5538 13.579 17.7895 13.3433 17.7895 13.0527C17.7895 12.7621 17.5538 12.5264 17.2632 12.5264C16.9725 12.5264 16.7368 12.7621 16.7368 13.0527C16.7368 13.3433 16.9725 13.579 17.2632 13.579Z" fill="url(#paint8_linear_40_4881)"/>
<path d="M12 14.6316H6.73684C6.44631 14.6316 6.21053 14.8674 6.21053 15.1579C6.21053 15.4484 6.44631 15.6842 6.73684 15.6842H12C12.2905 15.6842 12.5263 15.4484 12.5263 15.1579C12.5263 14.8674 12.2905 14.6316 12 14.6316Z" fill="url(#paint9_linear_40_4881)"/>
<path d="M17.2632 15.6842C17.5538 15.6842 17.7895 15.4485 17.7895 15.1579C17.7895 14.8673 17.5538 14.6316 17.2632 14.6316C16.9725 14.6316 16.7368 14.8673 16.7368 15.1579C16.7368 15.4485 16.9725 15.6842 17.2632 15.6842Z" fill="url(#paint10_linear_40_4881)"/>
<path d="M12 16.7368H6.73684C6.44631 16.7368 6.21053 16.9726 6.21053 17.2631C6.21053 17.5537 6.44631 17.7894 6.73684 17.7894H12C12.2905 17.7894 12.5263 17.5537 12.5263 17.2631C12.5263 16.9726 12.2905 16.7368 12 16.7368Z" fill="url(#paint11_linear_40_4881)"/>
<path d="M17.2632 17.7894C17.5538 17.7894 17.7895 17.5538 17.7895 17.2631C17.7895 16.9725 17.5538 16.7368 17.2632 16.7368C16.9725 16.7368 16.7368 16.9725 16.7368 17.2631C16.7368 17.5538 16.9725 17.7894 17.2632 17.7894Z" fill="url(#paint12_linear_40_4881)"/>
<path d="M14.6316 18.3158C14.3411 18.3158 14.1053 18.08 14.1053 17.7895V6.21052C14.1053 5.91999 14.3411 5.6842 14.6316 5.6842C14.9221 5.6842 15.1579 5.91999 15.1579 6.21052V17.7895C15.1579 18.08 14.9221 18.3158 14.6316 18.3158Z" fill="url(#paint13_linear_40_4881)"/>
<defs>
<linearGradient id="paint0_linear_40_4881" x1="9.08346" y1="2.30706" x2="20.1877" y2="19.2096" gradientUnits="userSpaceOnUse">
<stop stop-color="#7DD8F3"/>
<stop offset="1" stop-color="#45B0D0"/>
</linearGradient>
<linearGradient id="paint1_linear_40_4881" x1="8.40305" y1="12.5724" x2="8.43245" y2="13.7188" gradientUnits="userSpaceOnUse">
<stop stop-color="#0D61A9"/>
<stop offset="1" stop-color="#16528C"/>
</linearGradient>
<linearGradient id="paint2_linear_40_4881" x1="8.40305" y1="10.467" x2="8.43245" y2="11.6134" gradientUnits="userSpaceOnUse">
<stop stop-color="#0D61A9"/>
<stop offset="1" stop-color="#16528C"/>
</linearGradient>
<linearGradient id="paint3_linear_40_4881" x1="17.1022" y1="10.467" x2="17.2746" y2="11.5877" gradientUnits="userSpaceOnUse">
<stop stop-color="#0D61A9"/>
<stop offset="1" stop-color="#16528C"/>
</linearGradient>
<linearGradient id="paint4_linear_40_4881" x1="8.40305" y1="8.36183" x2="8.43245" y2="9.50823" gradientUnits="userSpaceOnUse">
<stop stop-color="#0D61A9"/>
<stop offset="1" stop-color="#16528C"/>
</linearGradient>
<linearGradient id="paint5_linear_40_4881" x1="17.1022" y1="8.36183" x2="17.2746" y2="9.48246" gradientUnits="userSpaceOnUse">
<stop stop-color="#0D61A9"/>
<stop offset="1" stop-color="#16528C"/>
</linearGradient>
<linearGradient id="paint6_linear_40_4881" x1="8.40305" y1="6.2566" x2="8.43245" y2="7.403" gradientUnits="userSpaceOnUse">
<stop stop-color="#0D61A9"/>
<stop offset="1" stop-color="#16528C"/>
</linearGradient>
<linearGradient id="paint7_linear_40_4881" x1="17.1022" y1="6.2566" x2="17.2746" y2="7.37723" gradientUnits="userSpaceOnUse">
<stop stop-color="#0D61A9"/>
<stop offset="1" stop-color="#16528C"/>
</linearGradient>
<linearGradient id="paint8_linear_40_4881" x1="17.1022" y1="12.5724" x2="17.2746" y2="13.693" gradientUnits="userSpaceOnUse">
<stop stop-color="#0D61A9"/>
<stop offset="1" stop-color="#16528C"/>
</linearGradient>
<linearGradient id="paint9_linear_40_4881" x1="8.40305" y1="14.6776" x2="8.43245" y2="15.824" gradientUnits="userSpaceOnUse">
<stop stop-color="#0D61A9"/>
<stop offset="1" stop-color="#16528C"/>
</linearGradient>
<linearGradient id="paint10_linear_40_4881" x1="17.1022" y1="14.6776" x2="17.2746" y2="15.7982" gradientUnits="userSpaceOnUse">
<stop stop-color="#0D61A9"/>
<stop offset="1" stop-color="#16528C"/>
</linearGradient>
<linearGradient id="paint11_linear_40_4881" x1="8.40305" y1="16.7828" x2="8.43245" y2="17.9292" gradientUnits="userSpaceOnUse">
<stop stop-color="#0D61A9"/>
<stop offset="1" stop-color="#16528C"/>
</linearGradient>
<linearGradient id="paint12_linear_40_4881" x1="17.1022" y1="16.7828" x2="17.2746" y2="17.9034" gradientUnits="userSpaceOnUse">
<stop stop-color="#0D61A9"/>
<stop offset="1" stop-color="#16528C"/>
</linearGradient>
<linearGradient id="paint13_linear_40_4881" x1="14.4706" y1="6.23659" x2="20.2357" y2="9.35933" gradientUnits="userSpaceOnUse">
<stop stop-color="#0D61A9"/>
<stop offset="1" stop-color="#16528C"/>
</linearGradient>
</defs>
</svg>
