<svg width="24" height="24" viewBox="0 0 24 24" fill="none" xmlns="http://www.w3.org/2000/svg">
<path d="M6.87805 2.00476L7.19317 2.33159C7.39902 2.54525 7.72293 2.59647 7.98488 2.45744L8.38537 2.24379L8.58439 2.65208C8.71463 2.91939 9.00585 3.06769 9.29854 3.01598L9.74585 2.93696L9.80829 3.38671C9.84927 3.68086 10.0805 3.91257 10.3756 3.95354L10.8254 4.01598L10.7459 4.4633C10.6937 4.75598 10.8424 5.04769 11.1098 5.17744L11.518 5.37647L11.3044 5.77696C11.1644 6.03939 11.2156 6.36232 11.4298 6.56866L11.7561 6.88281L11.4293 7.19793C11.2156 7.40379 11.1644 7.72769 11.3039 7.98964L11.5176 8.39013L11.1093 8.58915C10.842 8.71939 10.6937 9.01061 10.7454 9.3033L10.8249 9.75061L10.3751 9.81305C10.081 9.85403 9.84976 10.0852 9.80781 10.3804L9.74537 10.8301L9.29805 10.7506C9.00537 10.6984 8.71366 10.8472 8.5839 11.1145L8.38488 11.5228L7.98439 11.3092C7.72195 11.1692 7.39902 11.2204 7.19268 11.4345L6.87805 11.7609L6.56293 11.434C6.35707 11.2204 6.03317 11.1692 5.77122 11.3087L5.37073 11.5218L5.17171 11.1135C5.04146 10.8462 4.75024 10.6974 4.45756 10.7496L4.01073 10.8292L3.94829 10.3794C3.90732 10.0852 3.6761 9.85403 3.38098 9.81208L2.93122 9.74964L3.01024 9.30232C3.06244 9.00964 2.91366 8.71793 2.64634 8.58818L2.23805 8.38915L2.45122 7.98866C2.59122 7.72622 2.54 7.4033 2.32585 7.19696L2 6.88281L2.32683 6.56769C2.54049 6.36183 2.59171 6.03793 2.45268 5.77598L2.23902 5.37549L2.64732 5.17647C2.91463 5.04622 3.06293 4.755 3.01122 4.46232L2.93171 4.01549L3.38146 3.95305C3.67561 3.91208 3.90732 3.68086 3.94829 3.38622L4.01073 2.93647L4.45805 3.01549C4.75073 3.06769 5.04244 2.91891 5.1722 2.65159L5.37122 2.2433L5.77171 2.45647C6.03415 2.59647 6.35707 2.54525 6.56341 2.3311L6.87805 2.00476Z" fill="url(#paint0_radial_40_4873)"/>
<path d="M6.87805 3.95593C5.26146 3.95593 3.95122 5.26618 3.95122 6.88276C3.95122 8.49935 5.26146 9.80959 6.87805 9.80959C8.49463 9.80959 9.80488 8.49935 9.80488 6.88276C9.80488 5.26618 8.49463 3.95593 6.87805 3.95593Z" fill="url(#paint1_linear_40_4873)"/>
<path opacity="0.05" d="M5.17172 11.1134L5.37074 11.5217L5.77123 11.3086C5.94586 11.2154 6.14586 11.2144 6.32245 11.2827L11.278 6.32713C11.2102 6.15103 11.2112 5.95152 11.3044 5.77688L11.518 5.37639L11.1098 5.17737C10.9941 5.12127 10.9068 5.03152 10.842 4.9281L4.92342 10.8466C5.02635 10.911 5.11562 10.9983 5.17172 11.1134Z" fill="black"/>
<path opacity="0.07" d="M5.17171 11.1136L5.37073 11.5219L5.77122 11.3087C5.80341 11.2916 5.83854 11.2858 5.87219 11.2745L11.2707 5.876C11.282 5.84283 11.2873 5.80869 11.3044 5.77698L11.518 5.37649L11.1098 5.17747C11.0966 5.17112 11.0878 5.16039 11.0756 5.15308L5.1483 11.0804C5.15513 11.0926 5.16585 11.1009 5.17171 11.1136Z" fill="black"/>
<path d="M12.6478 4.03985L4.04878 12.6389C3.28098 13.4067 3.28098 14.6516 4.04878 15.4194L10.0488 21.4194C10.8166 22.1872 12.0615 22.1872 12.8293 21.4194L21.4283 12.8203C21.7941 12.4545 22 11.9579 22 11.4408V5.41936C22 4.34619 21.122 3.46814 20.0488 3.46814H14.0278C13.5102 3.46814 13.0141 3.67351 12.6478 4.03985ZM19.0732 7.37058C18.5366 7.37058 18.0976 6.93155 18.0976 6.39497C18.0976 5.85838 18.5366 5.41936 19.0732 5.41936C19.6098 5.41936 20.0488 5.85838 20.0488 6.39497C20.0488 6.93155 19.6098 7.37058 19.0732 7.37058Z" fill="url(#paint2_linear_40_4873)"/>
<path d="M16.6834 12.7711L8.70683 14.455L7.88488 13.6331L15.8546 11.9419L16.6834 12.7711ZM10.7078 11.6931C10.3644 11.3497 10.1961 10.9638 10.2044 10.536C10.2127 10.1082 10.4005 9.71019 10.7683 9.34238C11.1702 8.94043 11.601 8.73311 12.06 8.72092C12.519 8.70872 12.9351 8.88872 13.3083 9.2614C13.6654 9.61848 13.8376 10.0038 13.8259 10.418C13.8137 10.8326 13.6141 11.2326 13.2273 11.6194C12.8302 12.0165 12.4034 12.2209 11.9478 12.2321C11.4912 12.2433 11.078 12.0638 10.7078 11.6931ZM11.2668 17.1502C10.9234 16.8068 10.7546 16.4214 10.7634 15.9936C10.7712 15.5658 10.9595 15.1677 11.3273 14.7989C11.7293 14.3975 12.16 14.1902 12.619 14.178C13.078 14.1658 13.4941 14.3458 13.8673 14.7185C14.2263 15.078 14.401 15.4628 14.3893 15.8736C14.378 16.2848 14.1795 16.6833 13.7927 17.0692C13.3956 17.4668 12.9678 17.6721 12.5093 17.6858C12.0507 17.6994 11.6376 17.5204 11.2668 17.1502ZM12.6951 9.83409C12.3673 9.50628 11.9751 9.57019 11.5195 10.0263C11.0883 10.4575 11.0288 10.8292 11.341 11.1414C11.66 11.4599 12.0439 11.395 12.4927 10.9463C12.9307 10.5077 12.9985 10.137 12.6951 9.83409ZM13.2444 15.2809C12.9185 14.955 12.5278 15.0209 12.0722 15.476C11.641 15.9072 11.5839 16.2809 11.9 16.5975C12.219 16.9165 12.6029 16.8516 13.0517 16.4024C13.261 16.1936 13.3795 15.9887 13.4088 15.7892C13.438 15.5897 13.3834 15.4199 13.2444 15.2809Z" fill="white"/>
<defs>
<radialGradient id="paint0_radial_40_4873" cx="0" cy="0" r="1" gradientUnits="userSpaceOnUse" gradientTransform="translate(6.87805 6.88281) scale(5.17171)">
<stop stop-color="#FED100"/>
<stop offset="0.306" stop-color="#FDCF00"/>
<stop offset="0.482" stop-color="#FBC600"/>
<stop offset="0.625" stop-color="#F8B800"/>
<stop offset="0.75" stop-color="#F3A500"/>
<stop offset="0.863" stop-color="#ED8B01"/>
<stop offset="0.967" stop-color="#E66C01"/>
<stop offset="1" stop-color="#E36001"/>
</radialGradient>
<linearGradient id="paint1_linear_40_4873" x1="2.52195" y1="2.41788" x2="8.96829" y2="9.02569" gradientUnits="userSpaceOnUse">
<stop stop-color="#FED100"/>
<stop offset="1" stop-color="#E36001"/>
</linearGradient>
<linearGradient id="paint2_linear_40_4873" x1="9.37659" y1="2.95204" x2="18.701" y2="21.7569" gradientUnits="userSpaceOnUse">
<stop stop-color="#32BDEF"/>
<stop offset="1" stop-color="#1EA2E4"/>
</linearGradient>
</defs>
</svg>
