<svg width="24" height="24" viewBox="0 0 24 24" fill="none" xmlns="http://www.w3.org/2000/svg">
<path d="M18.7442 2.69763H2.93023C2.41628 2.69763 2 3.11391 2 3.62786V16.6511C2 17.1651 2.41628 17.5814 2.93023 17.5814H18.7442C19.2581 17.5814 19.6744 17.1651 19.6744 16.6511V3.62786C19.6744 3.11391 19.2581 2.69763 18.7442 2.69763Z" fill="url(#paint0_linear_40_4929)"/>
<path d="M5.95348 9.67443H4.55813C4.42976 9.67443 4.32558 9.57024 4.32558 9.44187V8.04652C4.32558 7.91815 4.42976 7.81396 4.55813 7.81396H5.95348C6.08186 7.81396 6.18604 7.91815 6.18604 8.04652V9.44187C6.18604 9.57024 6.08186 9.67443 5.95348 9.67443Z" fill="#057093"/>
<path d="M8.74418 9.67443H7.34883C7.22046 9.67443 7.11627 9.57024 7.11627 9.44187V8.04652C7.11627 7.91815 7.22046 7.81396 7.34883 7.81396H8.74418C8.87255 7.81396 8.97674 7.91815 8.97674 8.04652V9.44187C8.97674 9.57024 8.87255 9.67443 8.74418 9.67443Z" fill="#057093"/>
<path d="M11.5349 9.67443H10.1395C10.0112 9.67443 9.90698 9.57024 9.90698 9.44187V8.04652C9.90698 7.91815 10.0112 7.81396 10.1395 7.81396H11.5349C11.6633 7.81396 11.7674 7.91815 11.7674 8.04652V9.44187C11.7674 9.57024 11.6633 9.67443 11.5349 9.67443Z" fill="#057093"/>
<path d="M14.3256 9.67443H12.9302C12.8019 9.67443 12.6977 9.57024 12.6977 9.44187V8.04652C12.6977 7.91815 12.8019 7.81396 12.9302 7.81396H14.3256C14.454 7.81396 14.5581 7.91815 14.5581 8.04652V9.44187C14.5581 9.57024 14.454 9.67443 14.3256 9.67443Z" fill="#057093"/>
<path d="M17.1163 9.67443H15.7209C15.5926 9.67443 15.4884 9.57024 15.4884 9.44187V8.04652C15.4884 7.91815 15.5926 7.81396 15.7209 7.81396H17.1163C17.2447 7.81396 17.3488 7.91815 17.3488 8.04652V9.44187C17.3488 9.57024 17.2447 9.67443 17.1163 9.67443Z" fill="#057093"/>
<path d="M5.95348 12.4651H4.55813C4.42976 12.4651 4.32558 12.3609 4.32558 12.2325V10.8372C4.32558 10.7088 4.42976 10.6046 4.55813 10.6046H5.95348C6.08186 10.6046 6.18604 10.7088 6.18604 10.8372V12.2325C6.18604 12.3609 6.08186 12.4651 5.95348 12.4651Z" fill="#057093"/>
<path d="M8.74418 12.4651H7.34883C7.22046 12.4651 7.11627 12.3609 7.11627 12.2325V10.8372C7.11627 10.7088 7.22046 10.6046 7.34883 10.6046H8.74418C8.87255 10.6046 8.97674 10.7088 8.97674 10.8372V12.2325C8.97674 12.3609 8.87255 12.4651 8.74418 12.4651Z" fill="#057093"/>
<path d="M11.5349 12.4651H10.1395C10.0112 12.4651 9.90698 12.3609 9.90698 12.2325V10.8372C9.90698 10.7088 10.0112 10.6046 10.1395 10.6046H11.5349C11.6633 10.6046 11.7674 10.7088 11.7674 10.8372V12.2325C11.7674 12.3609 11.6633 12.4651 11.5349 12.4651Z" fill="#057093"/>
<path d="M14.3256 12.4651H12.9302C12.8019 12.4651 12.6977 12.3609 12.6977 12.2325V10.8372C12.6977 10.7088 12.8019 10.6046 12.9302 10.6046H14.3256C14.454 10.6046 14.5581 10.7088 14.5581 10.8372V12.2325C14.5581 12.3609 14.454 12.4651 14.3256 12.4651Z" fill="#057093"/>
<path d="M17.1163 12.4651H15.7209C15.5926 12.4651 15.4884 12.3609 15.4884 12.2325V10.8372C15.4884 10.7088 15.5926 10.6046 15.7209 10.6046H17.1163C17.2447 10.6046 17.3488 10.7088 17.3488 10.8372V12.2325C17.3488 12.3609 17.2447 12.4651 17.1163 12.4651Z" fill="#057093"/>
<path d="M16.8837 10.1395C13.5498 10.1395 10.8372 12.8521 10.8372 16.186C10.8372 16.666 10.8935 17.1335 11 17.5814H18.7442C19.2581 17.5814 19.6744 17.1651 19.6744 16.6512V10.8232C18.8391 10.3865 17.8898 10.1395 16.8837 10.1395Z" fill="url(#paint1_radial_40_4929)"/>
<path d="M16.8837 21.3023C19.7094 21.3023 22 19.0117 22 16.186C22 13.3603 19.7094 11.0697 16.8837 11.0697C14.058 11.0697 11.7674 13.3603 11.7674 16.186C11.7674 19.0117 14.058 21.3023 16.8837 21.3023Z" fill="url(#paint2_linear_40_4929)"/>
<path d="M16.8837 20.2791C19.1443 20.2791 20.9768 18.4465 20.9768 16.186C20.9768 13.9255 19.1443 12.093 16.8837 12.093C14.6232 12.093 12.7907 13.9255 12.7907 16.186C12.7907 18.4465 14.6232 20.2791 16.8837 20.2791Z" fill="#F5BE00"/>
<path d="M15.7414 18.0717V17.3089C16.0181 17.4786 16.313 17.5633 16.6256 17.5633C16.8609 17.5633 17.0451 17.5075 17.1777 17.3954C17.3102 17.2833 17.3767 17.1312 17.3767 16.9391C17.3767 16.5377 17.0935 16.3372 16.5265 16.3372C16.3419 16.3372 16.1186 16.354 15.8572 16.3879V14.1256H18.1V14.8544H16.62V15.6651C16.7386 15.654 16.8507 15.6484 16.9563 15.6484C17.3726 15.6484 17.6981 15.7577 17.9335 15.9758C18.1688 16.1944 18.2865 16.4884 18.2865 16.8572C18.2865 17.2656 18.146 17.5996 17.8656 17.8582C17.5851 18.1172 17.2047 18.2465 16.7242 18.2465C16.3344 18.2465 16.007 18.1884 15.7414 18.0717Z" fill="#FEE119"/>
<path d="M15.5679 5.95345H6.10651C5.89349 5.95345 5.72093 5.7809 5.72093 5.56787V4.94369C5.72093 4.73066 5.89349 4.55811 6.10651 4.55811H15.5679C15.7809 4.55811 15.9535 4.73066 15.9535 4.94369V5.56787C15.9535 5.7809 15.7809 5.95345 15.5679 5.95345Z" fill="#057093"/>
<defs>
<linearGradient id="paint0_linear_40_4929" x1="7.57249" y1="2.92614" x2="14.1775" y2="18.0488" gradientUnits="userSpaceOnUse">
<stop stop-color="#7DD8F3"/>
<stop offset="1" stop-color="#45B0D0"/>
</linearGradient>
<radialGradient id="paint1_radial_40_4929" cx="0" cy="0" r="1" gradientUnits="userSpaceOnUse" gradientTransform="translate(16.8888 16.3837) scale(6.0986)">
<stop/>
<stop offset="1" stop-opacity="0"/>
</radialGradient>
<linearGradient id="paint2_linear_40_4929" x1="13.3721" y1="12.6744" x2="20.494" y2="19.7962" gradientUnits="userSpaceOnUse">
<stop stop-color="#FEDE00"/>
<stop offset="1" stop-color="#FFD000"/>
</linearGradient>
</defs>
</svg>
