<svg width="24" height="24" viewBox="0 0 24 24" fill="none" xmlns="http://www.w3.org/2000/svg">
<path d="M19.3455 13.2323L17.3446 11.2314C17.2127 11.0995 17.3065 10.8739 17.4929 10.8739H21.7909C21.9767 10.8739 22.0701 11.0991 21.9383 11.231L19.9373 13.2319C19.7743 13.3957 19.5089 13.3957 19.3455 13.2323Z" fill="url(#paint0_linear_40_4952)"/>
<path d="M4.6546 10.768L6.65555 12.769C6.78739 12.9008 6.69359 13.1264 6.50728 13.1264H2.20927C2.0234 13.1264 1.93003 12.9008 2.06144 12.769L4.06239 10.768C4.22579 10.6042 4.4912 10.6042 4.6546 10.768Z" fill="url(#paint1_linear_40_4952)"/>
<path d="M12.3018 20.64C7.71502 20.8 3.8 17.3479 3.38979 12.7806L5.11193 12.6259C5.44002 16.2789 8.57177 19.0402 12.2413 18.9123C14.6524 18.828 16.8272 17.5022 18.0116 15.4222C18.127 15.219 18.3747 15.1334 18.5843 15.2367L19.3607 15.6193C19.579 15.7269 19.671 15.9967 19.5526 16.2093C18.0816 18.8483 15.3419 20.5341 12.3018 20.64Z" fill="url(#paint2_linear_40_4952)"/>
<path d="M14.2963 20.3362C12.0312 20.382 9.75618 19.5373 8.02626 17.8074C7.86416 17.6453 7.70854 17.4832 7.56503 17.309C8.83027 18.3668 10.4746 18.9719 12.2413 18.911C14.6529 18.8284 16.8293 17.5018 18.012 15.4205C18.1283 15.2186 18.3725 15.133 18.5865 15.2372L19.3598 15.6193C19.5768 15.7261 19.6715 15.9984 19.5522 16.2093C18.4127 18.2539 16.5125 19.728 14.2963 20.3362Z" fill="#88B0CE"/>
<path d="M11.6983 3.35986C16.2851 3.19949 20.1997 6.65199 20.6103 11.2193L18.8882 11.374C18.5601 7.72098 15.4284 4.95967 11.7589 5.08762C9.34769 5.17191 7.17297 6.49767 5.98857 8.57772C5.87315 8.78089 5.62546 8.86648 5.41581 8.76316L4.63947 8.38061C4.42117 8.27298 4.3291 8.00324 4.44754 7.79057C5.91854 5.15159 8.6578 3.4662 11.6983 3.35986Z" fill="url(#paint3_linear_40_4952)"/>
<path d="M9.70345 3.66339C11.9685 3.61757 14.2435 4.46221 15.9739 6.19257C16.136 6.35467 16.2912 6.5172 16.4347 6.6914C15.1694 5.63365 13.5255 5.02805 11.7589 5.089C9.34726 5.17156 7.17081 6.49818 5.98813 8.57953C5.87186 8.7814 5.62763 8.86699 5.41366 8.76281L4.64033 8.38069C4.42334 8.27392 4.32867 8.0016 4.44798 7.79065C5.58743 5.74647 7.48723 4.27202 9.70345 3.66339Z" fill="#88B0CE"/>
<path d="M12.0001 14.6109C13.4325 14.6109 14.5937 13.4497 14.5937 12.0173C14.5937 10.5849 13.4325 9.42371 12.0001 9.42371C10.5676 9.42371 9.40648 10.5849 9.40648 12.0173C9.40648 13.4497 10.5676 14.6109 12.0001 14.6109Z" fill="url(#paint4_linear_40_4952)"/>
<path d="M16.1943 10.9889C15.6782 10.9828 15.1781 10.7135 14.9014 10.2337C14.6347 9.77206 14.6403 9.22914 14.8664 8.78736C14.4069 8.37931 13.8631 8.06548 13.2606 7.8822C12.9891 8.29026 12.5261 8.55913 12.0001 8.55913C11.474 8.55913 11.011 8.29026 10.7396 7.88263C10.137 8.06635 9.59279 8.38017 9.13372 8.7878C9.35979 9.22957 9.36541 9.7725 9.09871 10.2342C8.82206 10.714 8.32193 10.9828 7.8058 10.9893C7.72497 11.3191 7.67742 11.6624 7.67742 12.0172C7.67742 12.2948 7.70595 12.5649 7.75609 12.8282C8.28951 12.8169 8.81298 13.0893 9.09871 13.5842C9.39438 14.0964 9.35547 14.709 9.05116 15.1719C9.50115 15.5929 10.0397 15.9189 10.6376 16.1177C10.8818 15.6107 11.3992 15.2597 12.0001 15.2597C12.6009 15.2597 13.1183 15.6107 13.3626 16.1181C13.9604 15.9197 14.499 15.5934 14.949 15.1723C14.6447 14.7098 14.6058 14.0973 14.9014 13.5851C15.1872 13.0901 15.7106 12.8182 16.2445 12.829C16.2937 12.5649 16.3227 12.2948 16.3227 12.0172C16.3227 11.6624 16.2752 11.3191 16.1943 10.9889ZM12.0001 14.2866C10.7469 14.2866 9.73068 13.2704 9.73068 12.0172C9.73068 10.7641 10.7469 9.74786 12.0001 9.74786C13.2532 9.74786 14.2695 10.7641 14.2695 12.0172C14.2695 13.2704 13.2532 14.2866 12.0001 14.2866Z" fill="url(#paint5_linear_40_4952)"/>
<path d="M12.0001 13.314C12.7162 13.314 13.2969 12.7334 13.2969 12.0173C13.2969 11.3011 12.7162 10.7205 12.0001 10.7205C11.2839 10.7205 10.7033 11.3011 10.7033 12.0173C10.7033 12.7334 11.2839 13.314 12.0001 13.314Z" fill="url(#paint6_linear_40_4952)"/>
<defs>
<linearGradient id="paint0_linear_40_4952" x1="18.328" y1="10.5043" x2="19.4756" y2="13.7075" gradientUnits="userSpaceOnUse">
<stop stop-color="#FCFCFC"/>
<stop offset="0.95" stop-color="#C3C9CD"/>
</linearGradient>
<linearGradient id="paint1_linear_40_4952" x1="3.04505" y1="10.2755" x2="4.19297" y2="13.479" gradientUnits="userSpaceOnUse">
<stop stop-color="#FCFCFC"/>
<stop offset="0.95" stop-color="#C3C9CD"/>
</linearGradient>
<linearGradient id="paint2_linear_40_4952" x1="6.98204" y1="11.4312" x2="10.517" y2="21.9234" gradientUnits="userSpaceOnUse">
<stop stop-color="#FCFCFC"/>
<stop offset="0.95" stop-color="#C3C9CD"/>
</linearGradient>
<linearGradient id="paint3_linear_40_4952" x1="7.98777" y1="2.1598" x2="11.5228" y2="12.6521" gradientUnits="userSpaceOnUse">
<stop stop-color="#FCFCFC"/>
<stop offset="0.95" stop-color="#C3C9CD"/>
</linearGradient>
<linearGradient id="paint4_linear_40_4952" x1="13.8069" y1="13.8241" x2="10.169" y2="10.1862" gradientUnits="userSpaceOnUse">
<stop stop-color="white"/>
<stop offset="0.242" stop-color="#F2F2F2"/>
<stop offset="1" stop-color="#CCCCCC"/>
</linearGradient>
<linearGradient id="paint5_linear_40_4952" x1="7.96401" y1="7.98508" x2="15.0436" y2="15.0643" gradientUnits="userSpaceOnUse">
<stop stop-color="#889097"/>
<stop offset="0.331" stop-color="#848C94"/>
<stop offset="0.669" stop-color="#78828B"/>
<stop offset="1" stop-color="#64717C"/>
</linearGradient>
<linearGradient id="paint6_linear_40_4952" x1="10.7867" y1="10.8039" x2="12.9152" y2="12.9324" gradientUnits="userSpaceOnUse">
<stop stop-color="#0D61A9"/>
<stop offset="0.363" stop-color="#0E5FA4"/>
<stop offset="0.78" stop-color="#135796"/>
<stop offset="1" stop-color="#16528C"/>
</linearGradient>
</defs>
</svg>
