<svg width="24" height="24" viewBox="0 0 24 24" fill="none" xmlns="http://www.w3.org/2000/svg">
<path d="M12.1971 5.5305L10.9895 4.32288C10.7219 4.05526 10.3586 3.90479 9.97952 3.90479H2.95238C2.42619 3.90479 2 4.33098 2 4.85717V19.1429C2 19.6691 2.42619 20.0953 2.95238 20.0953H21.0476C21.5738 20.0953 22 19.6691 22 19.1429V6.76193C22 6.23574 21.5738 5.80955 21.0476 5.80955H12.8705C12.6181 5.80955 12.3757 5.70907 12.1971 5.5305Z" fill="url(#paint0_linear_40_4947)"/>
<path d="M10.8505 7.43528L12.4067 5.87909C12.451 5.83481 12.5114 5.80957 12.5748 5.80957H21.0476C21.5738 5.80957 22 6.23576 22 6.76195V19.1429C22 19.6691 21.5738 20.0953 21.0476 20.0953H2.95238C2.42619 20.0953 2 19.6691 2 19.1429V7.95243C2 7.821 2.10667 7.71433 2.2381 7.71433H10.1771C10.4295 7.71433 10.6719 7.61386 10.8505 7.43528Z" fill="url(#paint1_linear_40_4947)"/>
<path d="M12 10.3438C12 10.471 11.899 10.5705 11.7719 10.5791C10.04 10.6967 8.66666 12.1438 8.66666 13.9048C8.66666 14.58 8.87809 15.2024 9.22476 15.7276L9.68904 15.2633C9.83856 15.1138 10.0952 15.22 10.0952 15.4319V17C10.0952 17.1314 9.98856 17.2381 9.85714 17.2381H8.28904C8.07714 17.2381 7.97047 16.9814 8.12047 16.8314L8.53476 16.4172C8.02047 15.711 7.71428 14.8438 7.71428 13.9048C7.71428 11.6248 9.50333 9.75527 11.7514 9.62622C11.8867 9.6186 12 9.73193 12 9.86717V10.3438ZM15.4638 11.3933L15.8795 10.9776C16.029 10.8281 15.9228 10.5714 15.7109 10.5714H14.1429C14.0114 10.5714 13.9048 10.6781 13.9048 10.8095V12.3776C13.9048 12.5895 14.1614 12.6962 14.3114 12.5462L14.7809 12.0767C15.1281 12.6019 15.3333 13.2291 15.3333 13.9048C15.3333 15.6657 13.96 17.1129 12.2281 17.2305C12.1009 17.2391 12 17.3386 12 17.4657V17.9424C12 18.0776 12.1133 18.191 12.2486 18.1833C14.4967 18.0543 16.2857 16.1848 16.2857 13.9048C16.2857 12.9657 15.9786 12.0995 15.4638 11.3933Z" fill="url(#paint2_linear_40_4947)"/>
<defs>
<linearGradient id="paint0_linear_40_4947" x1="12" y1="3.76574" x2="12" y2="7.70336" gradientUnits="userSpaceOnUse">
<stop stop-color="#EBA600"/>
<stop offset="1" stop-color="#C28200"/>
</linearGradient>
<linearGradient id="paint1_linear_40_4947" x1="12" y1="5.74005" x2="12" y2="20.0872" gradientUnits="userSpaceOnUse">
<stop stop-color="#FFD869"/>
<stop offset="1" stop-color="#FEC52B"/>
</linearGradient>
<linearGradient id="paint2_linear_40_4947" x1="10.8643" y1="10.0019" x2="13.14" y2="17.8233" gradientUnits="userSpaceOnUse">
<stop stop-color="#0370C8"/>
<stop offset="0.484" stop-color="#036FC5"/>
<stop offset="0.775" stop-color="#036ABD"/>
<stop offset="1" stop-color="#0362B0"/>
</linearGradient>
</defs>
</svg>
