<svg width="24" height="24" viewBox="0 0 24 24" fill="none" xmlns="http://www.w3.org/2000/svg">
<path d="M20.89 20.8727L3.12722 20.89L3.10999 3.12721L20.8722 3.10999L20.89 20.8727Z" fill="url(#paint0_linear_40_4968)"/>
<path d="M21.9828 3.10889C21.9822 2.49889 21.4828 2 20.8728 2C20.8722 2 20.8722 2 20.8717 2L3.10889 2.01722C2.49833 2.01778 1.99944 2.51778 2 3.12833L2.01722 20.8911C2.01778 21.5011 2.51722 22 3.12722 22C3.12778 22 3.12778 22 3.12833 22L20.8911 21.9828C21.5017 21.9822 22.0006 21.4822 22 20.8717L21.9828 3.10889ZM9.77778 14.2222V9.77778H14.2222V14.2222H9.77778ZM14.2222 15.8889V20.3333H9.77778V15.8889H14.2222ZM8.11111 14.2222H3.66667V9.77778H8.11111V14.2222ZM15.8889 9.77778H20.3333V14.2222H15.8889V9.77778ZM20.3333 8.11111H15.8889V3.66667H20.3333V8.11111ZM14.2222 3.66667V8.11111H9.77778V3.66667H14.2222ZM8.11111 3.66667V8.11111H3.66667V3.66667H8.11111ZM3.66667 15.8889H8.11111V20.3333H3.66667V15.8889ZM15.8889 20.3333V15.8889H20.3333V20.3333H15.8889Z" fill="url(#paint1_linear_40_4968)"/>
<defs>
<linearGradient id="paint0_linear_40_4968" x1="10.2144" y1="1.87443" x2="13.7856" y2="22.1255" gradientUnits="userSpaceOnUse">
<stop stop-color="#FAFAFB"/>
<stop offset="0.293" stop-color="#F6F7F8"/>
<stop offset="0.566" stop-color="#EBECEE"/>
<stop offset="0.832" stop-color="#D8DCDF"/>
<stop offset="1" stop-color="#C8CDD1"/>
</linearGradient>
<linearGradient id="paint1_linear_40_4968" x1="10.0217" y1="0.781111" x2="13.9783" y2="23.2189" gradientUnits="userSpaceOnUse">
<stop stop-color="#33BEF0"/>
<stop offset="1" stop-color="#22A5E2"/>
</linearGradient>
</defs>
</svg>
