<svg width="24" height="24" viewBox="0 0 24 24" fill="none" xmlns="http://www.w3.org/2000/svg">
<path d="M12.802 4.2407L4.34462 12.6981C3.58935 13.4534 3.58935 14.6776 4.34462 15.4329L10.2457 21.334C11.001 22.0892 12.2252 22.0892 12.9805 21.334L21.4384 12.876C21.7979 12.5165 22 12.0286 22 11.5197V5.59755C22 4.54228 21.1363 3.67859 20.081 3.67859H14.1594C13.6499 3.67859 13.162 3.8807 12.802 4.2407Z" fill="url(#paint0_linear_40_4982)"/>
<path d="M10.8615 2.65172L2.55619 10.9576C1.8146 11.6991 1.8146 12.9018 2.55619 13.6434L8.35149 19.4387C9.09307 20.1803 10.2957 20.1803 11.0373 19.4387L19.3431 11.1328C19.6963 10.7791 19.8947 10.2997 19.8947 9.79966V3.98436C19.8947 2.94751 19.0468 2.09961 18.01 2.09961H12.1947C11.6947 2.09961 11.2152 2.29803 10.8615 2.65172ZM17.0679 5.96858C16.5494 5.96858 16.1258 5.54437 16.1258 5.02647C16.1258 4.50857 16.55 4.08436 17.0679 4.08436C17.5858 4.08436 18.01 4.50857 18.01 5.02647C18.01 5.54437 17.5863 5.96858 17.0679 5.96858Z" fill="url(#paint1_linear_40_4982)"/>
<defs>
<linearGradient id="paint0_linear_40_4982" x1="7.58727" y1="23.4829" x2="19.6342" y2="-0.813022" gradientUnits="userSpaceOnUse">
<stop stop-color="#0077D2"/>
<stop offset="1" stop-color="#0B59A2"/>
</linearGradient>
<linearGradient id="paint1_linear_40_4982" x1="5.06252" y1="2.26224" x2="17.6347" y2="14.8344" gradientUnits="userSpaceOnUse">
<stop stop-color="#32BDEF"/>
<stop offset="1" stop-color="#1EA2E4"/>
</linearGradient>
</defs>
</svg>
