<svg width="24" height="24" viewBox="0 0 24 24" fill="none" xmlns="http://www.w3.org/2000/svg">
<path d="M16.3478 2.86951H11.1304C11.1304 3.34994 10.7413 3.73907 10.2609 3.73907C9.78044 3.73907 9.39131 3.34994 9.39131 2.86951H4.17392C3.69348 2.86951 3.30435 3.25864 3.30435 3.73907V19.3912C3.30435 19.8717 3.69348 20.2608 4.17392 20.2608H16.3478C16.8283 20.2608 17.2174 19.8717 17.2174 19.3912V3.73907C17.2174 3.25864 16.8283 2.86951 16.3478 2.86951Z" fill="url(#paint0_linear_40_4995)"/>
<path d="M15.913 19.3913H4.6087C4.3687 19.3913 4.17392 19.1965 4.17392 18.9565V15.0435H16.3478V18.9565C16.3478 19.1965 16.153 19.3913 15.913 19.3913Z" fill="url(#paint1_linear_40_4995)"/>
<path d="M15.913 18.5217H4.6087C4.3687 18.5217 4.17392 18.327 4.17392 18.087V4.17392C4.17392 3.93392 4.3687 3.73914 4.6087 3.73914H15.913C16.153 3.73914 16.3478 3.93392 16.3478 4.17392V18.087C16.3478 18.327 16.153 18.5217 15.913 18.5217Z" fill="#F3F3F3"/>
<path d="M14.3913 8.95648H6.13043C6.01043 8.95648 5.91304 8.85909 5.91304 8.73909V8.30431C5.91304 8.18431 6.01043 8.08691 6.13043 8.08691H14.3913C14.5113 8.08691 14.6087 8.18431 14.6087 8.30431V8.73909C14.6087 8.85909 14.5113 8.95648 14.3913 8.95648Z" fill="#42A4EB"/>
<path d="M12.6522 10.6956H6.13043C6.01043 10.6956 5.91304 10.5982 5.91304 10.4782V10.0434C5.91304 9.92344 6.01043 9.82605 6.13043 9.82605H12.6522C12.7722 9.82605 12.8696 9.92344 12.8696 10.0434V10.4782C12.8696 10.5982 12.7722 10.6956 12.6522 10.6956Z" fill="#42A4EB"/>
<path d="M14.3913 12.4348H6.13043C6.01043 12.4348 5.91304 12.3374 5.91304 12.2174V11.7826C5.91304 11.6626 6.01043 11.5652 6.13043 11.5652H14.3913C14.5113 11.5652 14.6087 11.6626 14.6087 11.7826V12.2174C14.6087 12.3374 14.5113 12.4348 14.3913 12.4348Z" fill="#42A4EB"/>
<path d="M14.3913 15.913H6.13043C6.01043 15.913 5.91304 15.8156 5.91304 15.6956V15.2608C5.91304 15.1408 6.01043 15.0435 6.13043 15.0435H14.3913C14.5113 15.0435 14.6087 15.1408 14.6087 15.2608V15.6956C14.6087 15.8156 14.5113 15.913 14.3913 15.913Z" fill="#42A4EB"/>
<path d="M12.6522 14.1739H6.13043C6.01043 14.1739 5.91304 14.0765 5.91304 13.9565V13.5217C5.91304 13.4017 6.01043 13.3043 6.13043 13.3043H12.6522C12.7722 13.3043 12.8696 13.4017 12.8696 13.5217V13.9565C12.8696 14.0765 12.7722 14.1739 12.6522 14.1739Z" fill="#42A4EB"/>
<path d="M13.3043 4.6087V2.86957H11.4852C11.3057 2.36391 10.8278 2 10.2609 2C9.69391 2 9.21609 2.36391 9.03652 2.86957H7.21739V4.6087C7.21739 4.8487 7.41217 5.04348 7.65217 5.04348H12.8696C13.1096 5.04348 13.3043 4.8487 13.3043 4.6087ZM10.2609 2.86957C10.5009 2.86957 10.6957 3.06435 10.6957 3.30435C10.6957 3.54435 10.5009 3.73913 10.2609 3.73913C10.0209 3.73913 9.82609 3.54435 9.82609 3.30435C9.82609 3.06435 10.0209 2.86957 10.2609 2.86957Z" fill="url(#paint2_linear_40_4995)"/>
<path d="M16.3478 12.4348C13.4665 12.4348 11.1304 14.7709 11.1304 17.6522C11.1304 18.6035 11.3891 19.4931 11.8343 20.2609H16.3478C16.8283 20.2609 17.2174 19.8718 17.2174 19.3913V12.5131C16.9339 12.4652 16.6448 12.4348 16.3478 12.4348Z" fill="url(#paint3_radial_40_4995)"/>
<path d="M16.3478 22C18.749 22 20.6957 20.0534 20.6957 17.6521C20.6957 15.2509 18.749 13.3043 16.3478 13.3043C13.9466 13.3043 12 15.2509 12 17.6521C12 20.0534 13.9466 22 16.3478 22Z" fill="url(#paint4_linear_40_4995)"/>
<path d="M16.3478 21.5652C18.509 21.5652 20.2609 19.8133 20.2609 17.6522C20.2609 15.491 18.509 13.7391 16.3478 13.7391C14.1867 13.7391 12.4348 15.491 12.4348 17.6522C12.4348 19.8133 14.1867 21.5652 16.3478 21.5652Z" fill="url(#paint5_radial_40_4995)"/>
<path d="M16.3478 21.1305C18.2688 21.1305 19.8261 19.5732 19.8261 17.6522C19.8261 15.7313 18.2688 14.174 16.3478 14.174C14.4269 14.174 12.8696 15.7313 12.8696 17.6522C12.8696 19.5732 14.4269 21.1305 16.3478 21.1305Z" fill="url(#paint6_radial_40_4995)"/>
<path d="M17.617 20.116C17.537 20.1573 17.4387 20.1256 17.3974 20.0456L16.203 17.7265C16.1617 17.6465 16.1935 17.5482 16.2735 17.5069C16.3535 17.4656 16.4517 17.4973 16.493 17.5773L17.6874 19.8965C17.7283 19.9765 17.697 20.0752 17.617 20.116Z" fill="#D83B01"/>
<path d="M16.3478 17.8153C16.3061 17.8153 16.2643 17.7992 16.2326 17.7675C16.1691 17.704 16.1691 17.6005 16.2326 17.537L18.0774 15.6923C18.1409 15.6288 18.2443 15.6288 18.3078 15.6923C18.3713 15.7557 18.3713 15.8592 18.3078 15.9227L16.463 17.7675C16.4313 17.7992 16.3896 17.8153 16.3478 17.8153Z" fill="#45494D"/>
<path d="M16.3478 17.9239C16.3083 17.9239 16.2683 17.9152 16.2304 17.897L14.5374 17.0848C14.4022 17.02 14.3452 16.8578 14.41 16.7222C14.4748 16.587 14.6374 16.5296 14.7726 16.5948L16.4657 17.407C16.6009 17.4718 16.6578 17.6339 16.5931 17.7696C16.5461 17.867 16.4487 17.9239 16.3478 17.9239Z" fill="#45494D"/>
<path d="M16.3478 18.087C16.5879 18.087 16.7826 17.8923 16.7826 17.6522C16.7826 17.4121 16.5879 17.2174 16.3478 17.2174C16.1077 17.2174 15.913 17.4121 15.913 17.6522C15.913 17.8923 16.1077 18.087 16.3478 18.087Z" fill="#1E2021"/>
<defs>
<linearGradient id="paint0_linear_40_4995" x1="7.15653" y1="1.7969" x2="12.6852" y2="19.1939" gradientUnits="userSpaceOnUse">
<stop stop-color="#C77740"/>
<stop offset="1" stop-color="#B0622B"/>
</linearGradient>
<linearGradient id="paint1_linear_40_4995" x1="10.2609" y1="17.2026" x2="10.2609" y2="18.91" gradientUnits="userSpaceOnUse">
<stop offset="0.442" stop-color="#878786"/>
<stop offset="0.594" stop-color="#9F9F9E"/>
<stop offset="0.859" stop-color="#C3C3C3"/>
<stop offset="1" stop-color="#D1D1D1"/>
</linearGradient>
<linearGradient id="paint2_linear_40_4995" x1="10.6652" y1="5.44696" x2="9.84609" y2="2.03957" gradientUnits="userSpaceOnUse">
<stop stop-color="#C3CDD9"/>
<stop offset="1" stop-color="#9FA7B0"/>
</linearGradient>
<radialGradient id="paint3_radial_40_4995" cx="0" cy="0" r="1" gradientUnits="userSpaceOnUse" gradientTransform="translate(16.3778 17.6496) scale(5.21348)">
<stop/>
<stop offset="1" stop-opacity="0"/>
</radialGradient>
<linearGradient id="paint4_linear_40_4995" x1="13.2735" y1="14.5778" x2="19.4222" y2="20.7265" gradientUnits="userSpaceOnUse">
<stop stop-color="#889097"/>
<stop offset="1" stop-color="#64717C"/>
</linearGradient>
<radialGradient id="paint5_radial_40_4995" cx="0" cy="0" r="1" gradientUnits="userSpaceOnUse" gradientTransform="translate(16.3478 17.6522) scale(3.91304)">
<stop/>
<stop offset="1" stop-opacity="0"/>
</radialGradient>
<radialGradient id="paint6_radial_40_4995" cx="0" cy="0" r="1" gradientUnits="userSpaceOnUse" gradientTransform="translate(16.3252 14.2548) scale(7.7513)">
<stop stop-color="#FAFAFB"/>
<stop offset="1" stop-color="#C8CDD1"/>
</radialGradient>
</defs>
</svg>
