<svg width="24" height="24" viewBox="0 0 24 24" fill="none" xmlns="http://www.w3.org/2000/svg">
<path d="M18.1904 9.14282C16.0867 9.14282 14.3809 10.8486 14.3809 12.9524V20.0952C14.3809 20.6214 14.8071 21.0476 15.3333 21.0476H21.0476C21.5738 21.0476 22 20.6214 22 20.0952V12.9524C22 10.8486 20.2943 9.14282 18.1904 9.14282Z" fill="url(#paint0_linear_40_5014)"/>
<path d="M12 7.71436C9.89618 7.71436 8.19049 9.42009 8.19049 11.5239V20.0953C8.19049 20.6215 8.61668 21.0477 9.14286 21.0477H14.8571C15.3834 21.0477 15.8096 20.6215 15.8096 20.0953V11.5239C15.8096 9.42009 14.1038 7.71436 12 7.71436Z" fill="url(#paint1_linear_40_5014)"/>
<path d="M5.80951 9.14282C3.70571 9.14282 2 10.8486 2 12.9524V20.0952C2 20.6214 2.42619 21.0476 2.95238 21.0476H8.66665C9.19287 21.0476 9.61906 20.6214 9.61906 20.0952V12.9524C9.61906 10.8486 7.91333 9.14282 5.80951 9.14282Z" fill="url(#paint2_linear_40_5014)"/>
<path d="M18.1905 8.19051C19.2425 8.19051 20.0952 7.33771 20.0952 6.28573C20.0952 5.23377 19.2425 4.38098 18.1905 4.38098C17.1385 4.38098 16.2857 5.23377 16.2857 6.28573C16.2857 7.33771 17.1385 8.19051 18.1905 8.19051Z" fill="url(#paint3_linear_40_5014)"/>
<path d="M5.80955 8.19051C6.86148 8.19051 7.71428 7.33771 7.71428 6.28573C7.71428 5.23377 6.86148 4.38098 5.80955 4.38098C4.75756 4.38098 3.90477 5.23377 3.90477 6.28573C3.90477 7.33771 4.75756 8.19051 5.80955 8.19051Z" fill="url(#paint4_linear_40_5014)"/>
<path d="M12 6.76192C13.052 6.76192 13.9047 5.90912 13.9047 4.85716C13.9047 3.80518 13.052 2.95239 12 2.95239C10.948 2.95239 10.0952 3.80518 10.0952 4.85716C10.0952 5.90912 10.948 6.76192 12 6.76192Z" fill="url(#paint5_linear_40_5014)"/>
<path d="M12 14.381C13.052 14.381 13.9047 13.5282 13.9047 12.4762C13.9047 11.4242 13.052 10.5714 12 10.5714C10.948 10.5714 10.0952 11.4242 10.0952 12.4762C10.0952 13.5282 10.948 14.381 12 14.381Z" fill="url(#paint6_linear_40_5014)"/>
<path d="M11.7462 15.3414C9.72142 15.4729 8.19049 17.2443 8.19049 19.2733V20.5714C8.19049 20.8343 8.40384 21.0476 8.6667 21.0476H15.3333C15.5962 21.0476 15.8096 20.8343 15.8096 20.5714V19.1429C15.8096 16.9548 13.9653 15.1981 11.7462 15.3414Z" fill="url(#paint7_linear_40_5014)"/>
<defs>
<linearGradient id="paint0_linear_40_5014" x1="15.8757" y1="6.38428" x2="18.9562" y2="19.6581" gradientUnits="userSpaceOnUse">
<stop stop-color="#0D61A9"/>
<stop offset="1" stop-color="#16528C"/>
</linearGradient>
<linearGradient id="paint1_linear_40_5014" x1="10.21" y1="7.932" x2="13.2657" y2="21.0977" gradientUnits="userSpaceOnUse">
<stop stop-color="#0D61A9"/>
<stop offset="1" stop-color="#16528C"/>
</linearGradient>
<linearGradient id="paint2_linear_40_5014" x1="4.17857" y1="9.33139" x2="7.25906" y2="22.6052" gradientUnits="userSpaceOnUse">
<stop stop-color="#0D61A9"/>
<stop offset="1" stop-color="#16528C"/>
</linearGradient>
<linearGradient id="paint3_linear_40_5014" x1="16.8981" y1="4.99337" x2="19.5557" y2="7.65099" gradientUnits="userSpaceOnUse">
<stop stop-color="#0D61A9"/>
<stop offset="1" stop-color="#16528C"/>
</linearGradient>
<linearGradient id="paint4_linear_40_5014" x1="4.51715" y1="4.99337" x2="7.17476" y2="7.65099" gradientUnits="userSpaceOnUse">
<stop stop-color="#0D61A9"/>
<stop offset="1" stop-color="#16528C"/>
</linearGradient>
<linearGradient id="paint5_linear_40_5014" x1="10.7076" y1="3.56478" x2="13.3652" y2="6.2224" gradientUnits="userSpaceOnUse">
<stop stop-color="#0D61A9"/>
<stop offset="1" stop-color="#16528C"/>
</linearGradient>
<linearGradient id="paint6_linear_40_5014" x1="10.7076" y1="11.1838" x2="13.3652" y2="13.8414" gradientUnits="userSpaceOnUse">
<stop stop-color="#32BDEF"/>
<stop offset="1" stop-color="#1EA2E4"/>
</linearGradient>
<linearGradient id="paint7_linear_40_5014" x1="10.3876" y1="15.6195" x2="12.691" y2="21.1995" gradientUnits="userSpaceOnUse">
<stop stop-color="#32BDEF"/>
<stop offset="1" stop-color="#1EA2E4"/>
</linearGradient>
</defs>
</svg>
