<svg width="24" height="24" viewBox="0 0 24 24" fill="none" xmlns="http://www.w3.org/2000/svg">
<path d="M21.5455 13.9999H18.5318C18.5235 12.2731 17.8315 10.6198 16.6075 9.40175C15.3835 8.18365 13.7269 7.49983 12 7.49983C10.2732 7.49983 8.61655 8.18365 7.3925 9.40175C6.16846 10.6198 5.47658 12.2731 5.46818 13.9999H2.45455C2.454 13.0933 2.58569 12.1914 2.84545 11.3227C3.43338 9.35143 4.64194 7.62257 6.29134 6.39329C7.94075 5.16402 9.9429 4.5 12 4.5C14.0571 4.5 16.0593 5.16402 17.7086 6.39329C19.3581 7.62257 20.5666 9.35143 21.1545 11.3227C21.4143 12.1914 21.546 13.0933 21.5455 13.9999Z" fill="url(#paint0_linear_40_5023)"/>
<path d="M22 12.2273V15.4092C21.9993 15.6501 21.9033 15.8809 21.7329 16.0512C21.5626 16.2215 21.3318 16.3175 21.0909 16.3182H19.5V11.3182H21.0909C21.1122 11.3173 21.1335 11.3189 21.1545 11.3228C21.3837 11.3387 21.5984 11.4409 21.7553 11.6087C21.9121 11.7766 21.9995 11.9976 22 12.2273Z" fill="#42A4ED"/>
<path d="M4.5 11.3182V16.3182H2.90909C2.6682 16.3175 2.43738 16.2215 2.26705 16.0512C2.09672 15.8809 2.00071 15.6501 2 15.4092V12.2273C2.00044 11.9976 2.0879 11.7766 2.24477 11.6087C2.40165 11.4409 2.61627 11.3387 2.84545 11.3228C2.86643 11.3189 2.88777 11.3173 2.90909 11.3182H4.5Z" fill="#42A4ED"/>
<path d="M20.6364 13.9999V14.0454C20.6375 14.8132 20.535 15.5777 20.3318 16.3181H19.5V13.9999H18.5318C18.5235 12.273 17.8315 10.6198 16.6075 9.4017C15.3835 8.1836 13.7268 7.49978 12 7.49978C10.2731 7.49978 8.61654 8.1836 7.39249 9.4017C6.16846 10.6198 5.47657 12.273 5.46817 13.9999H4.49999V16.3181H3.66817C3.46499 15.5777 3.36256 14.8132 3.36363 14.0454V13.9999C3.36666 13.0878 3.51708 12.1822 3.80908 11.3181C4.38087 9.59778 5.47982 8.10115 6.95005 7.0405C8.42026 5.97987 10.1871 5.40906 12 5.40906C13.8129 5.40906 15.5797 5.97987 17.0499 7.0405C18.5202 8.10115 19.6191 9.59778 20.1909 11.3181C20.4829 12.1822 20.6334 13.0878 20.6364 13.9999Z" fill="url(#paint1_linear_40_5023)"/>
<path d="M12 5.86365C9.83005 5.86367 7.74899 6.72568 6.2146 8.26007C4.68022 9.79446 3.8182 11.8756 3.81818 14.0455H20.1818C20.1818 11.8756 19.3198 9.79446 17.7854 8.26007C16.251 6.72568 14.1699 5.86367 12 5.86365Z" fill="url(#paint2_linear_40_5023)"/>
<path d="M15.2273 19H8.77273C8.18177 19 7.5966 18.8836 7.05062 18.6576C6.50464 18.4314 6.00856 18.0999 5.59068 17.682C5.17281 17.2642 4.84135 16.7681 4.61521 16.2221C4.38907 15.6761 4.2727 15.0909 4.27273 14.5C4.2727 13.909 4.38907 13.3238 4.61521 12.7779C4.84135 12.2319 5.17281 11.7358 5.59068 11.3179C6.00856 10.9001 6.50464 10.5686 7.05062 10.3425C7.5966 10.1163 8.18177 9.99997 8.77273 10H15.2273C15.8183 9.99997 16.4034 10.1163 16.9494 10.3425C17.4954 10.5686 17.9915 10.9001 18.4094 11.3179C18.8272 11.7358 19.1586 12.2319 19.3848 12.7779C19.6109 13.3238 19.7273 13.909 19.7273 14.5C19.7273 15.0909 19.6109 15.6761 19.3848 16.2221C19.1586 16.7681 18.8272 17.2642 18.4094 17.682C17.9915 18.0999 17.4954 18.4314 16.9494 18.6576C16.4034 18.8836 15.8183 19 15.2273 19Z" fill="url(#paint3_radial_40_5023)" fill-opacity="0.5"/>
<path d="M15.2273 19H8.77273C8.18177 19 7.5966 18.8836 7.05062 18.6576C6.50464 18.4314 6.00856 18.0999 5.59068 17.682C5.17281 17.2642 4.84135 16.7681 4.61521 16.2221C4.38907 15.6761 4.2727 15.0909 4.27273 14.5C4.2727 13.909 4.38907 13.3238 4.61521 12.7779C4.84135 12.2319 5.17281 11.7358 5.59068 11.3179C6.00856 10.9001 6.50464 10.5686 7.05062 10.3425C7.5966 10.1163 8.18177 9.99997 8.77273 10H15.2273C15.8183 9.99997 16.4034 10.1163 16.9494 10.3425C17.4954 10.5686 17.9915 10.9001 18.4094 11.3179C18.8272 11.7358 19.1586 12.2319 19.3848 12.7779C19.6109 13.3238 19.7273 13.909 19.7273 14.5C19.7273 15.0909 19.6109 15.6761 19.3848 16.2221C19.1586 16.7681 18.8272 17.2642 18.4094 17.682C17.9915 18.0999 17.4954 18.4314 16.9494 18.6576C16.4034 18.8836 15.8183 19 15.2273 19Z" fill="url(#paint4_linear_40_5023)"/>
<path d="M15.2273 19H8.77273C8.18177 19 7.5966 18.8836 7.05062 18.6576C6.50464 18.4314 6.00856 18.0999 5.59068 17.682C5.17281 17.2642 4.84135 16.7681 4.61521 16.2221C4.38907 15.6761 4.2727 15.0909 4.27273 14.5C4.2727 13.909 4.38907 13.3238 4.61521 12.7779C4.84135 12.2319 5.17281 11.7358 5.59068 11.3179C6.00856 10.9001 6.50464 10.5686 7.05062 10.3425C7.5966 10.1163 8.18177 9.99997 8.77273 10H15.2273C15.8183 9.99997 16.4034 10.1163 16.9494 10.3425C17.4954 10.5686 17.9915 10.9001 18.4094 11.3179C18.8272 11.7358 19.1586 12.2319 19.3848 12.7779C19.6109 13.3238 19.7273 13.909 19.7273 14.5C19.7273 15.0909 19.6109 15.6761 19.3848 16.2221C19.1586 16.7681 18.8272 17.2642 18.4094 17.682C17.9915 18.0999 17.4954 18.4314 16.9494 18.6576C16.4034 18.8836 15.8183 19 15.2273 19Z" fill="url(#paint5_linear_40_5023)"/>
<path d="M15.2045 19.5H8.79545C7.47585 19.4985 6.21072 18.9736 5.27762 18.0405C4.34451 17.1075 3.81965 15.8424 3.81818 14.5227V14.4773C3.81965 13.1576 4.34451 11.8925 5.27762 10.9595C6.21072 10.0263 7.47585 9.50147 8.79545 9.5H15.2045C16.5242 9.50147 17.7893 10.0263 18.7224 10.9595C19.6555 11.8925 20.1804 13.1576 20.1818 14.4773V14.5232C20.1803 15.8427 19.6554 17.1077 18.7223 18.0407C17.7892 18.9737 16.5241 19.4985 15.2045 19.5ZM8.79545 10.4091C7.71688 10.4103 6.68283 10.8394 5.92017 11.602C5.15751 12.3646 4.7285 13.3987 4.72727 14.4773V14.5232C4.7286 15.6017 5.15764 16.6356 5.92031 17.3982C6.68296 18.1607 7.71695 18.5897 8.79545 18.5909H15.2045C16.2832 18.5897 17.3173 18.1608 18.0799 17.3981C18.8426 16.6355 19.2715 15.6014 19.2727 14.5227V14.4773C19.2715 13.3987 18.8425 12.3646 18.0798 11.602C17.3172 10.8394 16.2831 10.4103 15.2045 10.4091H8.79545Z" fill="url(#paint6_linear_40_5023)"/>
<path d="M10.6359 14.9545C10.5325 14.9544 10.4324 14.919 10.3517 14.8544C10.2712 14.7896 10.215 14.6995 10.1925 14.5985C10.1166 14.2968 9.93778 14.0311 9.68688 13.8471C9.43598 13.6632 9.12875 13.5725 8.81818 13.5909C8.50761 13.5725 8.20037 13.6632 7.94947 13.8471C7.69858 14.0311 7.51976 14.2968 7.44388 14.5985C7.41746 14.716 7.34555 14.8181 7.24392 14.8826C7.14229 14.9471 7.01924 14.9687 6.90174 14.9426C6.78423 14.9165 6.68187 14.8449 6.61708 14.7435C6.55228 14.642 6.53036 14.519 6.5561 14.4015C6.67618 13.8975 6.96721 13.4507 7.37965 13.1372C7.79209 12.8236 8.30045 12.6627 8.81818 12.6818C9.33591 12.6627 9.84427 12.8236 10.2567 13.1372C10.6692 13.4507 10.9602 13.8975 11.0803 14.4015C11.1063 14.5192 11.0845 14.6424 11.0197 14.7441C10.955 14.8458 10.8525 14.9176 10.7349 14.9439C10.7024 14.9509 10.6692 14.9545 10.6359 14.9545Z" fill="url(#paint7_linear_40_5023)"/>
<path d="M16.9995 14.9545C16.8962 14.9544 16.796 14.919 16.7154 14.8544C16.6348 14.7896 16.5786 14.6995 16.5561 14.5985C16.4802 14.2968 16.3015 14.0311 16.0505 13.8471C15.7996 13.6632 15.4924 13.5725 15.1818 13.5909C14.8713 13.5725 14.564 13.6632 14.3131 13.8471C14.0622 14.0311 13.8834 14.2968 13.8075 14.5985C13.7811 14.716 13.7092 14.8181 13.6075 14.8826C13.5059 14.9471 13.3829 14.9687 13.2654 14.9426C13.1479 14.9165 13.0455 14.8449 12.9807 14.7435C12.9159 14.642 12.894 14.519 12.9197 14.4015C13.0398 13.8975 13.3308 13.4507 13.7433 13.1372C14.1557 12.8236 14.6641 12.6627 15.1818 12.6818C15.6995 12.6627 16.2079 12.8236 16.6204 13.1372C17.0328 13.4507 17.3238 13.8975 17.4439 14.4015C17.4699 14.5192 17.4482 14.6424 17.3834 14.7441C17.3186 14.8458 17.2162 14.9176 17.0985 14.9439C17.066 14.9509 17.0328 14.9545 16.9995 14.9545Z" fill="url(#paint8_linear_40_5023)"/>
<defs>
<linearGradient id="paint0_linear_40_5023" x1="8.47364" y1="4.64585" x2="11.2548" y2="15.4218" gradientUnits="userSpaceOnUse">
<stop stop-color="#7DD8F3"/>
<stop offset="1" stop-color="#45B0D0"/>
</linearGradient>
<linearGradient id="paint1_linear_40_5023" x1="7.57277" y1="5.69512" x2="8.342" y2="17.0925" gradientUnits="userSpaceOnUse">
<stop stop-color="#C3CDD9"/>
<stop offset="1" stop-color="#9FA7B0"/>
</linearGradient>
<linearGradient id="paint2_linear_40_5023" x1="8.71773" y1="4.30274" x2="13.3132" y2="16.9286" gradientUnits="userSpaceOnUse">
<stop stop-color="#FFD869"/>
<stop offset="1" stop-color="#FEC52B"/>
</linearGradient>
<radialGradient id="paint3_radial_40_5023" cx="0" cy="0" r="1" gradientUnits="userSpaceOnUse" gradientTransform="translate(11.5455 9.04546) rotate(87.3856) scale(9.96491 17.1115)">
<stop stop-color="#EAEAEA" stop-opacity="0.6"/>
<stop offset="1" stop-color="#707D88" stop-opacity="0"/>
</radialGradient>
<linearGradient id="paint4_linear_40_5023" x1="8.03881" y1="10.236" x2="8.62436" y2="19.6453" gradientUnits="userSpaceOnUse">
<stop stop-color="#ECECEC"/>
<stop offset="1" stop-color="#EDEDED"/>
</linearGradient>
<linearGradient id="paint5_linear_40_5023" x1="8.03881" y1="10.236" x2="8.62436" y2="19.6453" gradientUnits="userSpaceOnUse">
<stop stop-color="#9FA7B0"/>
<stop offset="1" stop-color="#C3CDD9"/>
</linearGradient>
<linearGradient id="paint6_linear_40_5023" x1="9.47727" y1="7.56864" x2="15.7291" y2="24.7464" gradientUnits="userSpaceOnUse">
<stop stop-color="#EAC878"/>
<stop offset="1" stop-color="#E6BE6D"/>
</linearGradient>
<linearGradient id="paint7_linear_40_5023" x1="6.58115" y1="12.7078" x2="8.15995" y2="15.7261" gradientUnits="userSpaceOnUse">
<stop stop-color="#33BEF0"/>
<stop offset="1" stop-color="#0A85D9"/>
</linearGradient>
<linearGradient id="paint8_linear_40_5023" x1="12.9448" y1="12.7078" x2="14.5236" y2="15.7261" gradientUnits="userSpaceOnUse">
<stop stop-color="#33BEF0"/>
<stop offset="1" stop-color="#0A85D9"/>
</linearGradient>
</defs>
</svg>
