<svg width="24" height="24" viewBox="0 0 24 24" fill="none" xmlns="http://www.w3.org/2000/svg">
<path d="M21 4H3C2.45 4 2 4.45 2 5V19C2 19.55 2.45 20 3 20H21C21.55 20 22 19.55 22 19V5C22 4.45 21.55 4 21 4Z" fill="url(#paint0_linear_40_5056)"/>
<path d="M20 6V8C20 8.3 19.75 8.5 19.45 8.5H4.55C4.25 8.5 4 8.3 4 8V6C4 5.7 4.25 5.5 4.55 5.5H19.5C19.75 5.5 20 5.7 20 6Z" fill="url(#paint1_linear_40_5056)"/>
<path d="M11 17.65V10.85C11 10.4 10.65 10 10.2 10H4.8C4.35 10 4 10.4 4 10.85V17.65C4 18.1 4.35 18.5 4.8 18.5H10.25C10.65 18.5 11 18.1 11 17.65Z" fill="url(#paint2_linear_40_5056)"/>
<path d="M20 17.65V10.85C20 10.4 19.65 10 19.2 10H13.8C13.35 10 13 10.4 13 10.85V17.65C13 18.1 13.35 18.5 13.8 18.5H19.25C19.65 18.5 20 18.1 20 17.65Z" fill="url(#paint3_linear_40_5056)"/>
<defs>
<linearGradient id="paint0_linear_40_5056" x1="8.30571" y1="4.24565" x2="15.1581" y2="20.7605" gradientUnits="userSpaceOnUse">
<stop stop-color="#7DD8F3"/>
<stop offset="1" stop-color="#45B0D0"/>
</linearGradient>
<linearGradient id="paint1_linear_40_5056" x1="9.5544" y1="5.63119" x2="9.64863" y2="8.89787" gradientUnits="userSpaceOnUse">
<stop stop-color="#0D61A9"/>
<stop offset="1" stop-color="#16528C"/>
</linearGradient>
<linearGradient id="paint2_linear_40_5056" x1="6.43005" y1="10.3717" x2="8.1022" y2="19.3226" gradientUnits="userSpaceOnUse">
<stop stop-color="#0D61A9"/>
<stop offset="1" stop-color="#16528C"/>
</linearGradient>
<linearGradient id="paint3_linear_40_5056" x1="15.43" y1="10.3717" x2="17.1022" y2="19.3226" gradientUnits="userSpaceOnUse">
<stop stop-color="#0D61A9"/>
<stop offset="1" stop-color="#16528C"/>
</linearGradient>
</defs>
</svg>
