<svg width="24" height="24" viewBox="0 0 24 24" fill="none" xmlns="http://www.w3.org/2000/svg">
<path d="M6.73685 12.5264C6.58106 12.5264 6.42685 12.4574 6.32264 12.3253C6.14317 12.0964 6.18264 11.7659 6.41106 11.5864L13.7795 5.7969C14.0079 5.61637 14.3384 5.6569 14.5184 5.88532C14.6979 6.11427 14.6584 6.4448 14.43 6.62427L7.06159 12.4138C6.9658 12.4901 6.85106 12.5264 6.73685 12.5264Z" fill="#64717C"/>
<path d="M14.1047 16.7369C14.0163 16.7369 13.9263 16.7148 13.8442 16.6675L6.47578 12.4569C6.22367 12.3127 6.13578 11.9912 6.27999 11.7391C6.4242 11.4869 6.74631 11.3991 6.99789 11.5433L14.3663 15.7538C14.6184 15.898 14.7063 16.2196 14.5621 16.4717C14.4653 16.6417 14.2874 16.7369 14.1047 16.7369Z" fill="#64717C"/>
<path d="M9.36842 2.52637H3.05263C2.47105 2.52637 2 2.99742 2 3.579V20.4211C2 21.0027 2.47105 21.4737 3.05263 21.4737H9.36842C9.95 21.4737 10.4211 21.0027 10.4211 20.4211V3.579C10.4211 2.99742 9.95 2.52637 9.36842 2.52637Z" fill="url(#paint0_linear_40_5127)"/>
<path d="M6.21052 19.3685C7.08256 19.3685 7.78947 18.6615 7.78947 17.7895C7.78947 16.9175 7.08256 16.2106 6.21052 16.2106C5.33849 16.2106 4.63158 16.9175 4.63158 17.7895C4.63158 18.6615 5.33849 19.3685 6.21052 19.3685Z" fill="url(#paint1_radial_40_5127)"/>
<path d="M6.21053 18.8422C6.79188 18.8422 7.26316 18.3709 7.26316 17.7896C7.26316 17.2082 6.79188 16.7369 6.21053 16.7369C5.62918 16.7369 5.1579 17.2082 5.1579 17.7896C5.1579 18.3709 5.62918 18.8422 6.21053 18.8422Z" fill="white"/>
<path d="M9.10526 6.21061H3.31579C3.17052 6.21061 3.05263 6.09272 3.05263 5.94745V4.3685C3.05263 4.22324 3.17052 4.10535 3.31579 4.10535H9.10526C9.25052 4.10535 9.36842 4.22324 9.36842 4.3685V5.94745C9.36842 6.09272 9.25052 6.21061 9.10526 6.21061Z" fill="#727D86"/>
<path d="M8.31579 5.68422C8.60646 5.68422 8.84211 5.44858 8.84211 5.15791C8.84211 4.86723 8.60646 4.63159 8.31579 4.63159C8.02512 4.63159 7.78947 4.86723 7.78947 5.15791C7.78947 5.44858 8.02512 5.68422 8.31579 5.68422Z" fill="url(#paint2_linear_40_5127)"/>
<path d="M9.10526 9.36845H3.31579C3.17052 9.36845 3.05263 9.25055 3.05263 9.10529V7.52634C3.05263 7.38108 3.17052 7.26318 3.31579 7.26318H9.10526C9.25052 7.26318 9.36842 7.38108 9.36842 7.52634V9.10529C9.36842 9.25055 9.25052 9.36845 9.10526 9.36845Z" fill="#727D86"/>
<path d="M8.31579 8.84218C8.60646 8.84218 8.84211 8.60654 8.84211 8.31587C8.84211 8.02519 8.60646 7.78955 8.31579 7.78955C8.02512 7.78955 7.78947 8.02519 7.78947 8.31587C7.78947 8.60654 8.02512 8.84218 8.31579 8.84218Z" fill="url(#paint3_linear_40_5127)"/>
<path d="M20.1579 9.89474H18.8421V8.3158H16.7368V9.89474H15.4211C15.2758 9.89474 15.1579 10.0126 15.1579 10.1579V10.6842C15.1579 10.8295 15.2758 10.9474 15.4211 10.9474H20.1579C20.3032 10.9474 20.4211 10.8295 20.4211 10.6842V10.1579C20.4211 10.0126 20.3032 9.89474 20.1579 9.89474Z" fill="url(#paint4_linear_40_5127)"/>
<path d="M21.4737 8.84216H14.1053C13.8147 8.84216 13.5789 8.60637 13.5789 8.31584V3.05268C13.5789 2.76216 13.8147 2.52637 14.1053 2.52637H21.4737C21.7642 2.52637 22 2.76216 22 3.05268V8.31584C22 8.60637 21.7642 8.84216 21.4737 8.84216Z" fill="url(#paint5_radial_40_5127)"/>
<path d="M20.1579 20.4211H18.8421V18.8422H16.7368V20.4211H15.4211C15.2758 20.4211 15.1579 20.539 15.1579 20.6843V21.2106C15.1579 21.3558 15.2758 21.4737 15.4211 21.4737H20.1579C20.3032 21.4737 20.4211 21.3558 20.4211 21.2106V20.6843C20.4211 20.539 20.3032 20.4211 20.1579 20.4211Z" fill="url(#paint6_linear_40_5127)"/>
<path d="M21.4737 19.3685H14.1053C13.8147 19.3685 13.5789 19.1327 13.5789 18.8422V13.5791C13.5789 13.2885 13.8147 13.0527 14.1053 13.0527H21.4737C21.7642 13.0527 22 13.2885 22 13.5791V18.8422C22 19.1327 21.7642 19.3685 21.4737 19.3685Z" fill="url(#paint7_radial_40_5127)"/>
<defs>
<linearGradient id="paint0_linear_40_5127" x1="4.05211" y1="3.02321" x2="8.57211" y2="21.8222" gradientUnits="userSpaceOnUse">
<stop stop-color="#C3CDD9"/>
<stop offset="1" stop-color="#9FA7B0"/>
</linearGradient>
<radialGradient id="paint1_radial_40_5127" cx="0" cy="0" r="1" gradientUnits="userSpaceOnUse" gradientTransform="translate(6.21052 17.7895) scale(1.57895)">
<stop offset="0.582" stop-opacity="0.2"/>
<stop offset="1" stop-opacity="0"/>
</radialGradient>
<linearGradient id="paint2_linear_40_5127" x1="8.12136" y1="4.64775" x2="8.64186" y2="5.65134" gradientUnits="userSpaceOnUse">
<stop stop-color="#7DD8F3"/>
<stop offset="1" stop-color="#45B0D0"/>
</linearGradient>
<linearGradient id="paint3_linear_40_5127" x1="8.12136" y1="7.80571" x2="8.64186" y2="8.8093" gradientUnits="userSpaceOnUse">
<stop stop-color="#7DD8F3"/>
<stop offset="1" stop-color="#45B0D0"/>
</linearGradient>
<linearGradient id="paint4_linear_40_5127" x1="17.7895" y1="8.31001" x2="17.7895" y2="10.9526" gradientUnits="userSpaceOnUse">
<stop stop-color="#484B4F"/>
<stop offset="0.374" stop-color="#656D75"/>
<stop offset="0.597" stop-color="#727D86"/>
<stop offset="0.604" stop-color="#86949E"/>
</linearGradient>
<radialGradient id="paint5_radial_40_5127" cx="0" cy="0" r="1" gradientUnits="userSpaceOnUse" gradientTransform="translate(22.21 10.6743) scale(12.33 12.33)">
<stop offset="0.323" stop-color="#23D9D6"/>
<stop offset="0.427" stop-color="#23D4D7"/>
<stop offset="0.542" stop-color="#21C7DC"/>
<stop offset="0.664" stop-color="#1FB0E2"/>
<stop offset="0.789" stop-color="#1C91EC"/>
<stop offset="0.917" stop-color="#1969F8"/>
<stop offset="0.944" stop-color="#1860FB"/>
</radialGradient>
<linearGradient id="paint6_linear_40_5127" x1="17.7895" y1="18.8364" x2="17.7895" y2="21.479" gradientUnits="userSpaceOnUse">
<stop stop-color="#484B4F"/>
<stop offset="0.374" stop-color="#656D75"/>
<stop offset="0.597" stop-color="#727D86"/>
<stop offset="0.604" stop-color="#86949E"/>
</linearGradient>
<radialGradient id="paint7_radial_40_5127" cx="0" cy="0" r="1" gradientUnits="userSpaceOnUse" gradientTransform="translate(22.21 21.2006) scale(12.33 12.33)">
<stop offset="0.323" stop-color="#23D9D6"/>
<stop offset="0.427" stop-color="#23D4D7"/>
<stop offset="0.542" stop-color="#21C7DC"/>
<stop offset="0.664" stop-color="#1FB0E2"/>
<stop offset="0.789" stop-color="#1C91EC"/>
<stop offset="0.917" stop-color="#1969F8"/>
<stop offset="0.944" stop-color="#1860FB"/>
</radialGradient>
</defs>
</svg>
