<svg width="24" height="24" viewBox="0 0 24 24" fill="none" xmlns="http://www.w3.org/2000/svg">
<path d="M14.7547 21V19.699L16.0557 19.949C17.5047 20.25 18.8547 19.199 18.9542 17.75L19.2547 14.5L20.7037 13.9005C21.2037 13.6995 21.4047 13.0995 21.1042 12.5995L19.2547 9.5C18.9537 5.699 16.8057 2 11.2547 2C5.55572 2 2.75472 6.199 2.75472 10.5C2.75472 12.3495 3.40522 13.949 4.40522 15.301C5.30572 16.551 5.75472 18.051 5.75472 19.551V21C5.75472 21.5525 6.20222 22 6.75472 22H13.7547C14.3072 22 14.7547 21.5525 14.7547 21Z" fill="#FFB74D"/>
<path opacity="0.05" d="M14.2022 5H7.80723C7.52523 5 7.25523 5.12 7.06573 5.329C6.87623 5.538 6.78423 5.819 6.81223 6.0995L7.66773 14.1525C7.74423 14.9195 8.38573 15.5 9.15973 15.5H12.8497C13.6237 15.5 14.2652 14.9195 14.3422 14.1495L15.1967 6.103C15.2252 5.8195 15.1327 5.5385 14.9432 5.3295C14.7537 5.1205 14.4842 5 14.2022 5Z" fill="black"/>
<path opacity="0.07" d="M14.2022 5.25H7.80722C7.59572 5.25 7.39322 5.34 7.25122 5.4965C7.10922 5.6535 7.04022 5.864 7.06122 6.0745L7.91622 14.126C7.98022 14.766 8.51472 15.25 9.15972 15.25H12.8497C13.4947 15.25 14.0292 14.766 14.0937 14.1245L14.9487 6.0765C14.9697 5.8645 14.9007 5.654 14.7587 5.497C14.6162 5.34 14.4137 5.25 14.2022 5.25Z" fill="black"/>
<path d="M14.4927 8.0005L14.6997 6.05C14.7292 5.7555 14.4982 5.5 14.2022 5.5H7.80722C7.51122 5.5 7.28022 5.7555 7.30972 6.05L7.51672 8.0005L11.2547 8.5L14.4927 8.0005Z" fill="url(#paint0_linear_40_5142)"/>
<path d="M14.4897 8L13.8432 14.0975C13.7932 14.6095 13.3627 15 12.8482 15H9.16172C8.64722 15 8.21672 14.6095 8.16672 14.0975L7.51972 8H14.4897Z" fill="url(#paint1_linear_40_5142)"/>
<path d="M10.2547 10.5C10.5308 10.5 10.7547 10.2761 10.7547 10C10.7547 9.72386 10.5308 9.5 10.2547 9.5C9.97862 9.5 9.75472 9.72386 9.75472 10C9.75472 10.2761 9.97862 10.5 10.2547 10.5Z" fill="url(#paint2_linear_40_5142)"/>
<path d="M10.2547 13.5C10.5308 13.5 10.7547 13.2761 10.7547 13C10.7547 12.7239 10.5308 12.5 10.2547 12.5C9.97862 12.5 9.75472 12.7239 9.75472 13C9.75472 13.2761 9.97862 13.5 10.2547 13.5Z" fill="url(#paint3_linear_40_5142)"/>
<path d="M12.0047 12.5C12.4189 12.5 12.7547 12.1642 12.7547 11.75C12.7547 11.3358 12.4189 11 12.0047 11C11.5905 11 11.2547 11.3358 11.2547 11.75C11.2547 12.1642 11.5905 12.5 12.0047 12.5Z" fill="url(#paint4_linear_40_5142)"/>
<defs>
<linearGradient id="paint0_linear_40_5142" x1="10.5677" y1="4.796" x2="11.5497" y2="8.734" gradientUnits="userSpaceOnUse">
<stop stop-color="#32BDEF"/>
<stop offset="1" stop-color="#1EA2E4"/>
</linearGradient>
<linearGradient id="paint1_linear_40_5142" x1="11.0047" y1="17.1" x2="11.0047" y2="9.3095" gradientUnits="userSpaceOnUse">
<stop stop-color="#2AA4F4"/>
<stop offset="1" stop-color="#007AD9"/>
</linearGradient>
<linearGradient id="paint2_linear_40_5142" x1="10.2547" y1="11.424" x2="10.2547" y2="7.93" gradientUnits="userSpaceOnUse">
<stop stop-color="#55AEEC"/>
<stop offset="1" stop-color="#BBDEFB"/>
</linearGradient>
<linearGradient id="paint3_linear_40_5142" x1="10.2547" y1="14.462" x2="10.2547" y2="11.2495" gradientUnits="userSpaceOnUse">
<stop stop-color="#55AEEC"/>
<stop offset="1" stop-color="#BBDEFB"/>
</linearGradient>
<linearGradient id="paint4_linear_40_5142" x1="12.0047" y1="13.576" x2="12.0047" y2="9.2985" gradientUnits="userSpaceOnUse">
<stop stop-color="#55AEEC"/>
<stop offset="1" stop-color="#BBDEFB"/>
</linearGradient>
</defs>
</svg>
