<svg width="24" height="24" viewBox="0 0 24 24" fill="none" xmlns="http://www.w3.org/2000/svg">
<path d="M22 10.0115V5.5C22 4.9475 21.5525 4.5 21 4.5H3C2.4475 4.5 2 4.9475 2 5.5V10.0115C2.604 10.4675 3 11.185 3 12C3 12.815 2.604 13.5325 2 13.9885V18.5C2 19.0525 2.4475 19.5 3 19.5H21C21.5525 19.5 22 19.0525 22 18.5V13.9885C21.396 13.532 21 12.815 21 12C21 11.185 21.396 10.4675 22 10.0115ZM17.5 18.5C17.224 18.5 17 18.276 17 18C17 17.724 17.224 17.5 17.5 17.5C17.776 17.5 18 17.724 18 18C18 18.276 17.776 18.5 17.5 18.5ZM17.5 16.5C17.224 16.5 17 16.276 17 16C17 15.724 17.224 15.5 17.5 15.5C17.776 15.5 18 15.724 18 16C18 16.276 17.776 16.5 17.5 16.5ZM17.5 14.5C17.224 14.5 17 14.276 17 14C17 13.724 17.224 13.5 17.5 13.5C17.776 13.5 18 13.724 18 14C18 14.276 17.776 14.5 17.5 14.5ZM17.5 12.5C17.224 12.5 17 12.276 17 12C17 11.724 17.224 11.5 17.5 11.5C17.776 11.5 18 11.724 18 12C18 12.276 17.776 12.5 17.5 12.5ZM17.5 10.5C17.224 10.5 17 10.276 17 10C17 9.724 17.224 9.5 17.5 9.5C17.776 9.5 18 9.724 18 10C18 10.276 17.776 10.5 17.5 10.5ZM17.5 8.5C17.224 8.5 17 8.276 17 8C17 7.724 17.224 7.5 17.5 7.5C17.776 7.5 18 7.724 18 8C18 8.276 17.776 8.5 17.5 8.5ZM17.5 6.5C17.224 6.5 17 6.276 17 6C17 5.724 17.224 5.5 17.5 5.5C17.776 5.5 18 5.724 18 6C18 6.276 17.776 6.5 17.5 6.5Z" fill="url(#paint0_linear_40_3100)"/>
<defs>
<linearGradient id="paint0_linear_40_3100" x1="6.343" y1="2.796" x2="17.79" y2="21.4205" gradientUnits="userSpaceOnUse">
<stop stop-color="#FFD869"/>
<stop offset="1" stop-color="#FEC52B"/>
</linearGradient>
</defs>
</svg>
