<svg width="24" height="24" viewBox="0 0 24 24" fill="none" xmlns="http://www.w3.org/2000/svg">
<path d="M2.52632 20.9474V6.21057H21.4737V20.9474C21.4737 21.5264 21 22 20.4211 22H3.57895C3.00001 22 2.52632 21.5264 2.52632 20.9474Z" fill="url(#paint0_linear_40_5208)"/>
<path d="M21.4737 4.10524V7.26314H2.52632V4.10524C2.52632 3.5263 3.00001 3.05261 3.57895 3.05261H20.4211C21 3.05261 21.4737 3.5263 21.4737 4.10524Z" fill="url(#paint1_linear_40_5208)"/>
<path opacity="0.05" d="M18.0526 6.47366C17.1805 6.47366 16.4737 5.76682 16.4737 4.89472V3.05261H19.6316V4.89472C19.6316 5.76682 18.9247 6.47366 18.0526 6.47366Z" fill="black"/>
<path opacity="0.07" d="M18.0526 6.07893C17.3984 6.07893 16.8684 5.54893 16.8684 4.89472V3.05261H19.2368V4.89472C19.2368 5.54893 18.7068 6.07893 18.0526 6.07893Z" fill="black"/>
<path opacity="0.05" d="M5.94737 6.47366C5.07527 6.47366 4.36842 5.76682 4.36842 4.89472V3.05261H7.52632V4.89472C7.52632 5.76682 6.81948 6.47366 5.94737 6.47366Z" fill="black"/>
<path opacity="0.07" d="M5.94738 6.07893C5.29317 6.07893 4.76317 5.54893 4.76317 4.89472V3.05261H7.13159V4.89472C7.13159 5.54893 6.60159 6.07893 5.94738 6.07893Z" fill="black"/>
<path d="M5.94737 5.68421C5.51158 5.68421 5.1579 5.33053 5.1579 4.89474V2.78947C5.1579 2.35368 5.51158 2 5.94737 2C6.38316 2 6.73685 2.35368 6.73685 2.78947V4.89474C6.73685 5.33053 6.38316 5.68421 5.94737 5.68421Z" fill="#3CCBF4"/>
<path d="M10.9474 10.1579V11.7369C10.9474 11.8821 10.8295 12 10.6842 12H4.89475C4.74949 12 4.63159 11.8821 4.63159 11.7369V10.1579C4.63159 10.0127 4.74949 9.89478 4.89475 9.89478H10.6842C10.8295 9.89478 10.9474 10.0127 10.9474 10.1579Z" fill="#33C481"/>
<path d="M15.1579 17.5263V19.1053C15.1579 19.2506 15.04 19.3684 14.8947 19.3684H4.89475C4.74949 19.3684 4.63159 19.2506 4.63159 19.1053V17.5263C4.63159 17.3811 4.74949 17.2632 4.89475 17.2632H14.8947C15.04 17.2632 15.1579 17.3811 15.1579 17.5263Z" fill="url(#paint2_linear_40_5208)"/>
<path d="M19.3684 13.8421V15.4211C19.3684 15.5663 19.2505 15.6842 19.1053 15.6842H9.10528C8.96001 15.6842 8.84212 15.5663 8.84212 15.4211V13.8421C8.84212 13.6969 8.96001 13.579 9.10528 13.579H19.1053C19.2505 13.579 19.3684 13.6969 19.3684 13.8421Z" fill="#21A366"/>
<path d="M18.0526 5.68421C17.6169 5.68421 17.2632 5.33053 17.2632 4.89474V2.78947C17.2632 2.35368 17.6169 2 18.0526 2C18.4884 2 18.8421 2.35368 18.8421 2.78947V4.89474C18.8421 5.33053 18.4884 5.68421 18.0526 5.68421Z" fill="#3CCBF4"/>
<defs>
<linearGradient id="paint0_linear_40_5208" x1="12" y1="6.24373" x2="12" y2="22.0332" gradientUnits="userSpaceOnUse">
<stop stop-color="#F0F0F0"/>
<stop offset="1" stop-color="#BBC1C4"/>
</linearGradient>
<linearGradient id="paint1_linear_40_5208" x1="2.74737" y1="3.37261" x2="21.0516" y2="7.09472" gradientUnits="userSpaceOnUse">
<stop stop-color="#0077D2"/>
<stop offset="1" stop-color="#0B59A2"/>
</linearGradient>
<linearGradient id="paint2_linear_40_5208" x1="6.17317" y1="17.5715" x2="6.74572" y2="20.4342" gradientUnits="userSpaceOnUse">
<stop stop-color="#21AD64"/>
<stop offset="1" stop-color="#088242"/>
</linearGradient>
</defs>
</svg>
