<svg width="24" height="24" viewBox="0 0 24 24" fill="none" xmlns="http://www.w3.org/2000/svg">
<path d="M20.4211 22H3.57895C3 22 2.52632 21.5263 2.52632 20.9473V8.84206C2.52632 8.26311 3 7.78943 3.57895 7.78943H20.4211C21 7.78943 21.4737 8.26311 21.4737 8.84206V20.9473C21.4737 21.5263 21 22 20.4211 22Z" fill="url(#paint0_linear_40_5176)"/>
<path d="M18.8421 8.84206H5.15789C4.86737 8.84206 4.63158 8.60627 4.63158 8.31574V7.78943H19.3684V8.31574C19.3684 8.60627 19.1326 8.84206 18.8421 8.84206Z" fill="#586067"/>
<path d="M18.3158 3.05263V8.84211H5.68421V3.05263C5.68421 2.47105 6.15526 2 6.73684 2H17.2632C17.8447 2 18.3158 2.47105 18.3158 3.05263Z" fill="url(#paint1_linear_40_5176)"/>
<path d="M12 20.9474C15.1975 20.9474 17.7895 18.3554 17.7895 15.1579C17.7895 11.9604 15.1975 9.36841 12 9.36841C8.80256 9.36841 6.21053 11.9604 6.21053 15.1579C6.21053 18.3554 8.80256 20.9474 12 20.9474Z" fill="url(#paint2_radial_40_5176)"/>
<path d="M12 20.3042C14.8422 20.3042 17.1463 18.0001 17.1463 15.1579C17.1463 12.3157 14.8422 10.0116 12 10.0116C9.15777 10.0116 6.85368 12.3157 6.85368 15.1579C6.85368 18.0001 9.15777 20.3042 12 20.3042Z" fill="url(#paint3_radial_40_5176)"/>
<path d="M13.8779 18.8037C13.7595 18.8647 13.6142 18.8179 13.5532 18.6995L11.7858 15.2684C11.7247 15.15 11.7716 15.0047 11.89 14.9437C12.0084 14.8826 12.1537 14.9295 12.2147 15.0479L13.9821 18.4789C14.0426 18.5974 13.9963 18.7426 13.8779 18.8037Z" fill="#D83B01"/>
<path d="M12 15.3989C11.9379 15.3989 11.8763 15.3752 11.8295 15.3284C11.7353 15.2342 11.7353 15.0816 11.8295 14.9874L14.5584 12.2584C14.6526 12.1642 14.8053 12.1642 14.8995 12.2584C14.9937 12.3526 14.9937 12.5052 14.8995 12.5995L12.1705 15.3284C12.1237 15.3758 12.0621 15.3989 12 15.3989Z" fill="#45494D"/>
<path d="M11.9995 15.56C11.9411 15.56 11.8821 15.5474 11.8258 15.5205L9.32105 14.3189C9.12105 14.2226 9.03632 13.9826 9.13263 13.7826C9.22895 13.5826 9.46895 13.4979 9.66895 13.5942L12.1737 14.7958C12.3737 14.8921 12.4584 15.1321 12.3621 15.3321C12.2932 15.4758 12.1495 15.56 11.9995 15.56Z" fill="#45494D"/>
<path d="M12 15.8011C12.3552 15.8011 12.6432 15.5131 12.6432 15.1579C12.6432 14.8027 12.3552 14.5148 12 14.5148C11.6448 14.5148 11.3568 14.8027 11.3568 15.1579C11.3568 15.5131 11.6448 15.8011 12 15.8011Z" fill="#1E2021"/>
<path d="M15.1579 6.73682H10.9474C10.6568 6.73682 10.4211 6.97261 10.4211 7.26313C10.4211 7.55366 10.6568 7.78945 10.9474 7.78945H15.1579C15.4484 7.78945 15.6842 7.55366 15.6842 7.26313C15.6842 6.97261 15.4484 6.73682 15.1579 6.73682Z" fill="#057093"/>
<path d="M8.84211 7.78945C9.13278 7.78945 9.36842 7.55381 9.36842 7.26313C9.36842 6.97246 9.13278 6.73682 8.84211 6.73682C8.55143 6.73682 8.31579 6.97246 8.31579 7.26313C8.31579 7.55381 8.55143 7.78945 8.84211 7.78945Z" fill="#057093"/>
<path d="M15.1579 4.63159H10.9474C10.6568 4.63159 10.4211 4.86738 10.4211 5.15791C10.4211 5.44843 10.6568 5.68422 10.9474 5.68422H15.1579C15.4484 5.68422 15.6842 5.44843 15.6842 5.15791C15.6842 4.86738 15.4484 4.63159 15.1579 4.63159Z" fill="#057093"/>
<path d="M8.84211 5.68422C9.13278 5.68422 9.36842 5.44858 9.36842 5.15791C9.36842 4.86723 9.13278 4.63159 8.84211 4.63159C8.55143 4.63159 8.31579 4.86723 8.31579 5.15791C8.31579 5.44858 8.55143 5.68422 8.84211 5.68422Z" fill="#057093"/>
<defs>
<linearGradient id="paint0_linear_40_5176" x1="11.5079" y1="8.19417" x2="12.5511" y2="22.4015" gradientUnits="userSpaceOnUse">
<stop stop-color="#889097"/>
<stop offset="1" stop-color="#64717C"/>
</linearGradient>
<linearGradient id="paint1_linear_40_5176" x1="9.66677" y1="2.10504" x2="11.8223" y2="9.77759" gradientUnits="userSpaceOnUse">
<stop stop-color="#7DD8F3"/>
<stop offset="1" stop-color="#45B0D0"/>
</linearGradient>
<radialGradient id="paint2_radial_40_5176" cx="0" cy="0" r="1" gradientUnits="userSpaceOnUse" gradientTransform="translate(12 15.1579) scale(5.78947)">
<stop/>
<stop offset="1" stop-opacity="0"/>
</radialGradient>
<radialGradient id="paint3_radial_40_5176" cx="0" cy="0" r="1" gradientUnits="userSpaceOnUse" gradientTransform="translate(11.9668 10.1311) scale(11.4679)">
<stop stop-color="#FAFAFB"/>
<stop offset="1" stop-color="#C8CDD1"/>
</radialGradient>
</defs>
</svg>
