<svg width="24" height="24" viewBox="0 0 24 24" fill="none" xmlns="http://www.w3.org/2000/svg">
<path d="M4.5 2.5H3.5V21.5H4.5V2.5Z" fill="#64717C"/>
<path d="M4 3C4.27614 3 4.5 2.77614 4.5 2.5C4.5 2.22386 4.27614 2 4 2C3.72386 2 3.5 2.22386 3.5 2.5C3.5 2.77614 3.72386 3 4 3Z" fill="#64717C"/>
<path d="M4 22C4.27614 22 4.5 21.7761 4.5 21.5C4.5 21.2239 4.27614 21 4 21C3.72386 21 3.5 21.2239 3.5 21.5C3.5 21.7761 3.72386 22 4 22Z" fill="#64717C"/>
<path d="M4 6.5C4.82843 6.5 5.5 5.82843 5.5 5C5.5 4.17157 4.82843 3.5 4 3.5C3.17157 3.5 2.5 4.17157 2.5 5C2.5 5.82843 3.17157 6.5 4 6.5Z" fill="#ABB4BE"/>
<path d="M4 13.5C4.82843 13.5 5.5 12.8284 5.5 12C5.5 11.1716 4.82843 10.5 4 10.5C3.17157 10.5 2.5 11.1716 2.5 12C2.5 12.8284 3.17157 13.5 4 13.5Z" fill="#ABB4BE"/>
<path d="M4 20.5C4.82843 20.5 5.5 19.8284 5.5 19C5.5 18.1716 4.82843 17.5 4 17.5C3.17157 17.5 2.5 18.1716 2.5 19C2.5 19.8284 3.17157 20.5 4 20.5Z" fill="#ABB4BE"/>
<path d="M17.5 2.5H9.5C9.367 2.5 9.24 2.5525 9.1465 2.6465L7.1465 4.6465C6.951 4.842 6.951 5.158 7.1465 5.3535L9.1465 7.3535C9.24 7.4475 9.367 7.5 9.5 7.5H17.5C17.7765 7.5 18 7.276 18 7V3C18 2.724 17.7765 2.5 17.5 2.5Z" fill="url(#paint0_linear_40_5221)"/>
<path d="M17 16.5H9.5C9.367 16.5 9.24 16.5525 9.1465 16.6465L7.1465 18.6465C6.951 18.842 6.951 19.158 7.1465 19.3535L9.1465 21.3535C9.24 21.4475 9.367 21.5 9.5 21.5H17C17.2765 21.5 17.5 21.276 17.5 21V17C17.5 16.724 17.2765 16.5 17 16.5Z" fill="url(#paint1_linear_40_5221)"/>
<path d="M21 9.5H9.5C9.367 9.5 9.24 9.5525 9.1465 9.6465L7.1465 11.6465C6.951 11.842 6.951 12.158 7.1465 12.3535L9.1465 14.3535C9.24 14.4475 9.367 14.5 9.5 14.5H21C21.2765 14.5 21.5 14.276 21.5 14V10C21.5 9.724 21.2765 9.5 21 9.5Z" fill="#0078D4"/>
<defs>
<linearGradient id="paint0_linear_40_5221" x1="10.4681" y1="2.57676" x2="11.8191" y2="8.30764" gradientUnits="userSpaceOnUse">
<stop stop-color="#7DD8F3"/>
<stop offset="1" stop-color="#45B0D0"/>
</linearGradient>
<linearGradient id="paint1_linear_40_5221" x1="9.32609" y1="15.7551" x2="11.464" y2="22.3459" gradientUnits="userSpaceOnUse">
<stop stop-color="#FCFCFC"/>
<stop offset="0.95" stop-color="#C3C9CD"/>
</linearGradient>
</defs>
</svg>
