<svg width="24" height="24" viewBox="0 0 24 24" fill="none" xmlns="http://www.w3.org/2000/svg">
<path d="M2 16.5454V5.18176H20.1818V16.5454C20.1818 17.0454 19.7727 17.4545 19.2727 17.4545H2.90909C2.40909 17.4545 2 17.0454 2 16.5454Z" fill="url(#paint0_linear_40_5191)"/>
<path d="M17.6818 9.27274H7.22727C7.09091 9.27274 7 9.18183 7 9.04547V8.59092C7 8.45456 7.09091 8.36365 7.22727 8.36365H17.6818C17.8182 8.36365 17.9091 8.45456 17.9091 8.59092V9.04547C17.9091 9.18183 17.8182 9.27274 17.6818 9.27274Z" fill="#0F94BF"/>
<path d="M17.6818 11.5454H7.22727C7.09091 11.5454 7 11.4545 7 11.3182V10.8636C7 10.7273 7.09091 10.6364 7.22727 10.6364H17.6818C17.8182 10.6364 17.9091 10.7273 17.9091 10.8636V11.3182C17.9091 11.4545 17.8182 11.5454 17.6818 11.5454Z" fill="#0F94BF"/>
<path d="M17.6818 13.8181H7.22727C7.09091 13.8181 7 13.7272 7 13.5909V13.1363C7 13 7.09091 12.9091 7.22727 12.9091H17.6818C17.8182 12.9091 17.9091 13 17.9091 13.1363V13.5909C17.9091 13.7272 17.8182 13.8181 17.6818 13.8181Z" fill="#0F94BF"/>
<path d="M20.1818 3.81815V5.18178H2V3.81815C2 3.31815 2.40909 2.90906 2.90909 2.90906H19.2727C19.7727 2.90906 20.1818 3.31815 20.1818 3.81815Z" fill="url(#paint1_linear_40_5191)"/>
<path d="M4.5 9.27274H4.95455C5.09091 9.27274 5.18182 9.18183 5.18182 9.04547V8.59092C5.18182 8.45456 5.09091 8.36365 4.95455 8.36365H4.5C4.36364 8.36365 4.27273 8.45456 4.27273 8.59092V9.04547C4.27273 9.18183 4.36364 9.27274 4.5 9.27274Z" fill="#0F94BF"/>
<path d="M4.5 11.5454H4.95455C5.09091 11.5454 5.18182 11.4545 5.18182 11.3182V10.8636C5.18182 10.7273 5.09091 10.6364 4.95455 10.6364H4.5C4.36364 10.6364 4.27273 10.7273 4.27273 10.8636V11.3182C4.27273 11.4545 4.36364 11.5454 4.5 11.5454Z" fill="#0F94BF"/>
<path d="M4.5 13.8181H4.95455C5.09091 13.8181 5.18182 13.7272 5.18182 13.5909V13.1363C5.18182 13 5.09091 12.9091 4.95455 12.9091H4.5C4.36364 12.9091 4.27273 13 4.27273 13.1363V13.5909C4.27273 13.7272 4.36364 13.8181 4.5 13.8181Z" fill="#0F94BF"/>
<path d="M17.4545 11.0908C14.4545 11.0908 12 13.5454 12 16.5454C12 16.8635 12.0455 17.1363 12.0909 17.4545H19.2727C19.7727 17.4545 20.1818 17.0454 20.1818 16.5454V11.8181C19.3636 11.3635 18.4545 11.0908 17.4545 11.0908Z" fill="url(#paint2_radial_40_5191)"/>
<path d="M17.4545 21.0909C19.9649 21.0909 22 19.0558 22 16.5455C22 14.0351 19.9649 12 17.4545 12C14.9442 12 12.9091 14.0351 12.9091 16.5455C12.9091 19.0558 14.9442 21.0909 17.4545 21.0909Z" fill="url(#paint3_linear_40_5191)"/>
<path opacity="0.15" d="M17.4545 20.7727C19.7892 20.7727 21.6818 18.88 21.6818 16.5454C21.6818 14.2108 19.7892 12.3181 17.4545 12.3181C15.1199 12.3181 13.2273 14.2108 13.2273 16.5454C13.2273 18.88 15.1199 20.7727 17.4545 20.7727Z" fill="url(#paint4_radial_40_5191)"/>
<path d="M17.4545 20.409C19.5884 20.409 21.3182 18.6792 21.3182 16.5454C21.3182 14.4116 19.5884 12.6818 17.4545 12.6818C15.3207 12.6818 13.5909 14.4116 13.5909 16.5454C13.5909 18.6792 15.3207 20.409 17.4545 20.409Z" fill="url(#paint5_radial_40_5191)"/>
<path d="M17.4545 16.5454V12.6818C16.4091 12.6818 15.4091 13.1363 14.7273 13.8181L17.4545 16.5454Z" fill="#6EEBFF"/>
<path d="M17 12.7272L17.4545 13.5909L17.9091 12.7272C17.7727 12.7272 17.5909 12.6818 17.4545 12.6818C17.3182 12.6818 17.1364 12.6818 17 12.7272Z" fill="url(#paint6_linear_40_5191)"/>
<path d="M17.7727 16.8636C17.5909 17.0454 17.3182 17.0454 17.1364 16.8636C16.9545 16.6818 14.9545 14.0454 14.9545 14.0454C14.9545 14.0454 17.5909 16.0454 17.7727 16.2272C17.9545 16.409 17.9545 16.6818 17.7727 16.8636Z" fill="url(#paint7_linear_40_5191)"/>
<defs>
<linearGradient id="paint0_linear_40_5191" x1="6.12227" y1="3.81722" x2="14.6936" y2="16.2159" gradientUnits="userSpaceOnUse">
<stop stop-color="#7DD8F3"/>
<stop offset="1" stop-color="#45B0D0"/>
</linearGradient>
<linearGradient id="paint1_linear_40_5191" x1="2.36727" y1="2.35497" x2="19.6136" y2="5.86133" gradientUnits="userSpaceOnUse">
<stop stop-color="#0077D2"/>
<stop offset="1" stop-color="#0B59A2"/>
</linearGradient>
<radialGradient id="paint2_radial_40_5191" cx="0" cy="0" r="1" gradientUnits="userSpaceOnUse" gradientTransform="translate(17.3677 16.7099) scale(5.65)">
<stop/>
<stop offset="0.979" stop-opacity="0"/>
</radialGradient>
<linearGradient id="paint3_linear_40_5191" x1="14.2405" y1="13.3314" x2="20.6686" y2="19.7595" gradientUnits="userSpaceOnUse">
<stop stop-color="#889097"/>
<stop offset="1" stop-color="#64717C"/>
</linearGradient>
<radialGradient id="paint4_radial_40_5191" cx="0" cy="0" r="1" gradientUnits="userSpaceOnUse" gradientTransform="translate(17.4545 16.5454) scale(4.20455)">
<stop/>
<stop offset="0.978" stop-opacity="0.022"/>
<stop offset="1" stop-opacity="0"/>
</radialGradient>
<radialGradient id="paint5_radial_40_5191" cx="0" cy="0" r="1" gradientUnits="userSpaceOnUse" gradientTransform="translate(17.4295 12.7713) scale(8.61)">
<stop stop-color="#FAFAFB"/>
<stop offset="1" stop-color="#C8CDD1"/>
</radialGradient>
<linearGradient id="paint6_linear_40_5191" x1="17.0073" y1="13.1363" x2="17.9018" y2="13.1363" gradientUnits="userSpaceOnUse">
<stop stop-color="#1D59B3"/>
<stop offset="1" stop-color="#195BBC"/>
</linearGradient>
<linearGradient id="paint7_linear_40_5191" x1="16.4316" y1="14.0468" x2="16.4283" y2="17.0012" gradientUnits="userSpaceOnUse">
<stop stop-color="#889097"/>
<stop offset="1" stop-color="#444D54"/>
</linearGradient>
</defs>
</svg>
