<svg width="24" height="24" viewBox="0 0 24 24" fill="none" xmlns="http://www.w3.org/2000/svg">
<path d="M2.45454 18.3636V5.63635H18.8182V18.3636C18.8168 18.865 18.4105 19.2714 17.9091 19.2727H3.36364C2.86227 19.2714 2.45591 18.865 2.45454 18.3636Z" fill="url(#paint0_linear_40_5258)"/>
<path d="M18.8182 3.81815V6.54542H2.45454V3.81815C2.45591 3.31678 2.86227 2.91042 3.36364 2.90906H17.9091C18.4105 2.91042 18.8168 3.31678 18.8182 3.81815Z" fill="url(#paint1_linear_40_5258)"/>
<path opacity="0.05" d="M15.8636 5.8636C15.1105 5.8636 14.5 5.25315 14.5 4.49997V2.90906H17.2273V4.49997C17.2273 5.25315 16.6168 5.8636 15.8636 5.8636Z" fill="black"/>
<path opacity="0.07" d="M15.8636 5.52269C15.2991 5.52269 14.8409 5.06497 14.8409 4.50042V4.49997V2.90906H16.8864V4.49997C16.8864 5.06451 16.4286 5.52269 15.8636 5.52269C15.8641 5.52269 15.8636 5.52269 15.8636 5.52269Z" fill="black"/>
<path opacity="0.05" d="M5.40909 5.8636C4.65591 5.8636 4.04546 5.25315 4.04546 4.49997V2.90906H6.77273V4.49997C6.77273 5.25315 6.16227 5.8636 5.40909 5.8636Z" fill="black"/>
<path opacity="0.07" d="M5.40909 5.52269C4.84454 5.52269 4.38636 5.06497 4.38636 4.50042V4.49997V2.90906H6.43181V4.49997C6.43181 5.06451 5.97409 5.52269 5.40909 5.52269C5.40954 5.52269 5.40909 5.52269 5.40909 5.52269Z" fill="black"/>
<path d="M5.40909 5.18182C5.03273 5.18182 4.72727 4.87636 4.72727 4.5V2.68182C4.72727 2.30545 5.03273 2 5.40909 2C5.78545 2 6.09091 2.30545 6.09091 2.68182V4.5C6.09091 4.87636 5.78545 5.18182 5.40909 5.18182Z" fill="#3CCBF4"/>
<path d="M15.4091 8.81824H16.7727C16.8982 8.81824 17 8.92006 17 9.04551V10.4091C17 10.5346 16.8982 10.6364 16.7727 10.6364H15.4091C15.2836 10.6364 15.1818 10.5346 15.1818 10.4091V9.04551C15.1818 8.92006 15.2836 8.81824 15.4091 8.81824Z" fill="#E52030"/>
<path d="M15.4091 15.1818H16.7727C16.8982 15.1818 17 15.2836 17 15.409V16.7727C17 16.8981 16.8982 16.9999 16.7727 16.9999H15.4091C15.2836 16.9999 15.1818 16.8981 15.1818 16.7727V15.409C15.1818 15.2836 15.2836 15.1818 15.4091 15.1818Z" fill="white"/>
<path d="M11.7727 8.81824H13.1364C13.2618 8.81824 13.3636 8.92006 13.3636 9.04551V10.4091C13.3636 10.5346 13.2618 10.6364 13.1364 10.6364H11.7727C11.6473 10.6364 11.5455 10.5346 11.5455 10.4091V9.04551C11.5455 8.92006 11.6473 8.81824 11.7727 8.81824Z" fill="#E52030"/>
<path d="M8.13636 8.81824H9.5C9.62545 8.81824 9.72727 8.92006 9.72727 9.04551V10.4091C9.72727 10.5346 9.62545 10.6364 9.5 10.6364H8.13636C8.01091 10.6364 7.90909 10.5346 7.90909 10.4091V9.04551C7.90909 8.92006 8.01091 8.81824 8.13636 8.81824Z" fill="#E52030"/>
<path d="M4.5 8.81824H5.86364C5.98909 8.81824 6.09091 8.92006 6.09091 9.04551V10.4091C6.09091 10.5346 5.98909 10.6364 5.86364 10.6364H4.5C4.37455 10.6364 4.27273 10.5346 4.27273 10.4091V9.04551C4.27273 8.92006 4.37455 8.81824 4.5 8.81824Z" fill="#E52030"/>
<path d="M11.7727 12H13.1364C13.2618 12 13.3636 12.1018 13.3636 12.2273V13.5909C13.3636 13.7164 13.2618 13.8182 13.1364 13.8182H11.7727C11.6473 13.8182 11.5455 13.7164 11.5455 13.5909V12.2273C11.5455 12.1018 11.6473 12 11.7727 12Z" fill="white"/>
<path d="M11.7727 15.1818H13.1364C13.2618 15.1818 13.3636 15.2836 13.3636 15.409V16.7727C13.3636 16.8981 13.2618 16.9999 13.1364 16.9999H11.7727C11.6473 16.9999 11.5455 16.8981 11.5455 16.7727V15.409C11.5455 15.2836 11.6473 15.1818 11.7727 15.1818Z" fill="white"/>
<path d="M15.4091 12H16.7727C16.8982 12 17 12.1018 17 12.2273V13.5909C17 13.7164 16.8982 13.8182 16.7727 13.8182H15.4091C15.2836 13.8182 15.1818 13.7164 15.1818 13.5909V12.2273C15.1818 12.1018 15.2836 12 15.4091 12Z" fill="white"/>
<path d="M8.13636 12H9.5C9.62545 12 9.72727 12.1018 9.72727 12.2273V13.5909C9.72727 13.7164 9.62545 13.8182 9.5 13.8182H8.13636C8.01091 13.8182 7.90909 13.7164 7.90909 13.5909V12.2273C7.90909 12.1018 8.01091 12 8.13636 12Z" fill="white"/>
<path d="M4.5 12H5.86364C5.98909 12 6.09091 12.1018 6.09091 12.2273V13.5909C6.09091 13.7164 5.98909 13.8182 5.86364 13.8182H4.5C4.37455 13.8182 4.27273 13.7164 4.27273 13.5909V12.2273C4.27273 12.1018 4.37455 12 4.5 12Z" fill="white"/>
<path d="M8.13636 15.1818H9.5C9.62545 15.1818 9.72727 15.2836 9.72727 15.409V16.7727C9.72727 16.8981 9.62545 16.9999 9.5 16.9999H8.13636C8.01091 16.9999 7.90909 16.8981 7.90909 16.7727V15.409C7.90909 15.2836 8.01091 15.1818 8.13636 15.1818Z" fill="white"/>
<path d="M4.5 15.1818H5.86364C5.98909 15.1818 6.09091 15.2836 6.09091 15.409V16.7727C6.09091 16.8981 5.98909 16.9999 5.86364 16.9999H4.5C4.37455 16.9999 4.27273 16.8981 4.27273 16.7727V15.409C4.27273 15.2836 4.37455 15.1818 4.5 15.1818Z" fill="white"/>
<path d="M15.8636 5.18182C15.4873 5.18182 15.1818 4.87636 15.1818 4.5V2.68182C15.1818 2.30545 15.4873 2 15.8636 2C16.24 2 16.5455 2.30545 16.5455 2.68182V4.5C16.5455 4.87636 16.24 5.18182 15.8636 5.18182Z" fill="#3CCBF4"/>
<path opacity="0.2" d="M18.01 19.2727C18.4559 19.2714 18.8168 18.9105 18.8182 18.4645V12.3573C18.2268 12.1318 17.5895 12 16.9191 12C13.9514 12 11.5455 14.4059 11.5455 17.3736C11.5455 18.0441 11.6773 18.6814 11.9027 19.2727H18.01Z" fill="url(#paint2_radial_40_5258)"/>
<path d="M17 22C19.5104 22 21.5455 19.9649 21.5455 17.4545C21.5455 14.9441 19.5104 12.9091 17 12.9091C14.4896 12.9091 12.4545 14.9441 12.4545 17.4545C12.4545 19.9649 14.4896 22 17 22Z" fill="url(#paint3_linear_40_5258)"/>
<path d="M17 21.091C19.0083 21.091 20.6364 19.4629 20.6364 17.4546C20.6364 15.4463 19.0083 13.8182 17 13.8182C14.9917 13.8182 13.3636 15.4463 13.3636 17.4546C13.3636 19.4629 14.9917 21.091 17 21.091Z" fill="url(#paint4_radial_40_5258)"/>
<path d="M18.3182 20.0455C18.2273 20.091 18.1364 20.0455 18.0909 19.9546L16.8636 17.5455C16.8182 17.4546 16.8636 17.3637 16.9545 17.3182C17.0455 17.2728 17.1364 17.3182 17.1818 17.4092L18.4091 19.8182C18.4545 19.8637 18.4091 20.0001 18.3182 20.0455Z" fill="#D83B01"/>
<path d="M17 17.6363C16.9545 17.6363 16.9091 17.6363 16.8636 17.5909C16.8182 17.5454 16.8182 17.409 16.8636 17.3636L18.7727 15.4545C18.8182 15.409 18.9545 15.409 19 15.4545C19.0455 15.5 19.0455 15.6363 19 15.6818L17.0909 17.5909C17.0909 17.5909 17.0455 17.6363 17 17.6363Z" fill="#45494D"/>
<path d="M17 17.7273C16.9545 17.7273 16.9091 17.7273 16.8636 17.6818L15.0909 16.8182C14.9545 16.7727 14.9091 16.5909 14.9545 16.4546C15 16.3182 15.1818 16.2727 15.3182 16.3182L17.0909 17.1818C17.2273 17.2273 17.2727 17.4091 17.2273 17.5455C17.2273 17.6818 17.0909 17.7273 17 17.7273Z" fill="#45494D"/>
<path d="M17 17.9091C17.251 17.9091 17.4545 17.7055 17.4545 17.4545C17.4545 17.2035 17.251 17 17 17C16.749 17 16.5455 17.2035 16.5455 17.4545C16.5455 17.7055 16.749 17.9091 17 17.9091Z" fill="#1E2021"/>
<defs>
<linearGradient id="paint0_linear_40_5258" x1="2.64273" y1="6.39181" x2="18.7155" y2="18.1309" gradientUnits="userSpaceOnUse">
<stop stop-color="#A8E2F7"/>
<stop offset="1" stop-color="#47C1FF"/>
</linearGradient>
<linearGradient id="paint1_linear_40_5258" x1="2.64545" y1="3.18542" x2="18.4536" y2="6.39997" gradientUnits="userSpaceOnUse">
<stop stop-color="#0077D2"/>
<stop offset="1" stop-color="#0B59A2"/>
</linearGradient>
<radialGradient id="paint2_radial_40_5258" cx="0" cy="0" r="1" gradientUnits="userSpaceOnUse" gradientTransform="translate(16.8145 17.3127) scale(5.10636)">
<stop offset="0.847"/>
<stop offset="1" stop-opacity="0"/>
</radialGradient>
<linearGradient id="paint3_linear_40_5258" x1="13.7859" y1="14.2404" x2="20.2141" y2="20.6686" gradientUnits="userSpaceOnUse">
<stop stop-color="#889097"/>
<stop offset="1" stop-color="#64717C"/>
</linearGradient>
<radialGradient id="paint4_radial_40_5258" cx="0" cy="0" r="1" gradientUnits="userSpaceOnUse" gradientTransform="translate(16.9764 13.9028) scale(8.10364)">
<stop stop-color="#FAFAFB"/>
<stop offset="1" stop-color="#C8CDD1"/>
</radialGradient>
</defs>
</svg>
