<svg width="24" height="24" viewBox="0 0 24 24" fill="none" xmlns="http://www.w3.org/2000/svg">
<path d="M2 16.5454V5.18176H20.1818V16.5454C20.1818 17.0454 19.7727 17.4545 19.2727 17.4545H2.90909C2.40909 17.4545 2 17.0454 2 16.5454Z" fill="url(#paint0_linear_40_5241)"/>
<path d="M17.6818 9.27274H7.22727C7.09091 9.27274 7 9.18183 7 9.04547V8.59092C7 8.45456 7.09091 8.36365 7.22727 8.36365H17.6818C17.8182 8.36365 17.9091 8.45456 17.9091 8.59092V9.04547C17.9091 9.18183 17.8182 9.27274 17.6818 9.27274Z" fill="#0F94BF"/>
<path d="M17.6818 11.5454H7.22727C7.09091 11.5454 7 11.4545 7 11.3182V10.8636C7 10.7273 7.09091 10.6364 7.22727 10.6364H17.6818C17.8182 10.6364 17.9091 10.7273 17.9091 10.8636V11.3182C17.9091 11.4545 17.8182 11.5454 17.6818 11.5454Z" fill="#0F94BF"/>
<path d="M17.6818 13.8181H7.22727C7.09091 13.8181 7 13.7272 7 13.5909V13.1363C7 13 7.09091 12.9091 7.22727 12.9091H17.6818C17.8182 12.9091 17.9091 13 17.9091 13.1363V13.5909C17.9091 13.7272 17.8182 13.8181 17.6818 13.8181Z" fill="#0F94BF"/>
<path d="M20.1818 3.81815V5.18178H2V3.81815C2 3.31815 2.40909 2.90906 2.90909 2.90906H19.2727C19.7727 2.90906 20.1818 3.31815 20.1818 3.81815Z" fill="url(#paint1_linear_40_5241)"/>
<path d="M4.49999 9.27274H4.95454C5.0909 9.27274 5.18181 9.18183 5.18181 9.04547V8.59092C5.18181 8.45456 5.0909 8.36365 4.95454 8.36365H4.49999C4.36363 8.36365 4.27272 8.45456 4.27272 8.59092V9.04547C4.27272 9.18183 4.36363 9.27274 4.49999 9.27274Z" fill="#0F94BF"/>
<path d="M4.49999 11.5454H4.95454C5.0909 11.5454 5.18181 11.4545 5.18181 11.3182V10.8636C5.18181 10.7273 5.0909 10.6364 4.95454 10.6364H4.49999C4.36363 10.6364 4.27272 10.7273 4.27272 10.8636V11.3182C4.27272 11.4545 4.36363 11.5454 4.49999 11.5454Z" fill="#0F94BF"/>
<path d="M4.49999 13.8181H4.95454C5.0909 13.8181 5.18181 13.7272 5.18181 13.5909V13.1363C5.18181 13 5.0909 12.9091 4.95454 12.9091H4.49999C4.36363 12.9091 4.27272 13 4.27272 13.1363V13.5909C4.27272 13.7272 4.36363 13.8181 4.49999 13.8181Z" fill="#0F94BF"/>
<path d="M17.4545 11.0908C14.4545 11.0908 12 13.5454 12 16.5454C12 16.8635 12.0455 17.1363 12.0909 17.4545H19.2727C19.7727 17.4545 20.1818 17.0454 20.1818 16.5454V11.8181C19.3636 11.3635 18.4545 11.0908 17.4545 11.0908Z" fill="url(#paint2_radial_40_5241)"/>
<path d="M17.4545 21.0909C19.9649 21.0909 22 19.0558 22 16.5455C22 14.0351 19.9649 12 17.4545 12C14.9442 12 12.9091 14.0351 12.9091 16.5455C12.9091 19.0558 14.9442 21.0909 17.4545 21.0909Z" fill="url(#paint3_linear_40_5241)"/>
<path d="M17.4545 20.1818C19.4628 20.1818 21.0909 18.5537 21.0909 16.5454C21.0909 14.5371 19.4628 12.9091 17.4545 12.9091C15.4463 12.9091 13.8182 14.5371 13.8182 16.5454C13.8182 18.5537 15.4463 20.1818 17.4545 20.1818Z" fill="url(#paint4_radial_40_5241)"/>
<path d="M18.7727 19.1363C18.6818 19.1818 18.5909 19.1363 18.5455 19.0454L17.3182 16.6363C17.2727 16.5454 17.3182 16.4545 17.4091 16.4091C17.5 16.3636 17.5909 16.4091 17.6364 16.5L18.8636 18.9091C18.9091 18.9545 18.8636 19.0909 18.7727 19.1363Z" fill="#D83B01"/>
<path d="M17.4545 16.7271C17.4091 16.7271 17.3636 16.7271 17.3182 16.6817C17.2727 16.6362 17.2727 16.4999 17.3182 16.4544L19.2273 14.5453C19.2727 14.4999 19.4091 14.4999 19.4545 14.5453C19.5 14.5908 19.5 14.7271 19.4545 14.7726L17.5455 16.6817C17.5455 16.6817 17.5 16.7271 17.4545 16.7271Z" fill="#45494D"/>
<path d="M17.4545 16.8181C17.4091 16.8181 17.3636 16.8181 17.3182 16.7726L15.5455 15.909C15.4091 15.8636 15.3636 15.6817 15.4091 15.5454C15.4545 15.409 15.6364 15.3636 15.7727 15.409L17.5455 16.2727C17.6818 16.3181 17.7273 16.4999 17.6818 16.6363C17.6818 16.7727 17.5455 16.8181 17.4545 16.8181Z" fill="#45494D"/>
<path d="M17.4545 16.9999C17.7055 16.9999 17.9091 16.7964 17.9091 16.5454C17.9091 16.2944 17.7055 16.0908 17.4545 16.0908C17.2035 16.0908 17 16.2944 17 16.5454C17 16.7964 17.2035 16.9999 17.4545 16.9999Z" fill="#1E2021"/>
<defs>
<linearGradient id="paint0_linear_40_5241" x1="6.12227" y1="3.81767" x2="14.6936" y2="16.2159" gradientUnits="userSpaceOnUse">
<stop stop-color="#7DD8F3"/>
<stop offset="1" stop-color="#45B0D0"/>
</linearGradient>
<linearGradient id="paint1_linear_40_5241" x1="2.36727" y1="2.35451" x2="19.6136" y2="5.86133" gradientUnits="userSpaceOnUse">
<stop stop-color="#0077D2"/>
<stop offset="1" stop-color="#0B59A2"/>
</linearGradient>
<radialGradient id="paint2_radial_40_5241" cx="0" cy="0" r="1" gradientUnits="userSpaceOnUse" gradientTransform="translate(17.3677 16.7099) scale(5.65)">
<stop/>
<stop offset="0.979" stop-opacity="0"/>
</radialGradient>
<linearGradient id="paint3_linear_40_5241" x1="14.2405" y1="13.3314" x2="20.6686" y2="19.7595" gradientUnits="userSpaceOnUse">
<stop stop-color="#889097"/>
<stop offset="1" stop-color="#64717C"/>
</linearGradient>
<radialGradient id="paint4_radial_40_5241" cx="0" cy="0" r="1" gradientUnits="userSpaceOnUse" gradientTransform="translate(17.4309 12.9936) scale(8.10364)">
<stop stop-color="#FAFAFB"/>
<stop offset="1" stop-color="#C8CDD1"/>
</radialGradient>
</defs>
</svg>
