<svg width="24" height="24" viewBox="0 0 24 24" fill="none" xmlns="http://www.w3.org/2000/svg">
<path d="M21.5122 7.60981H10.2925C10.0242 7.60981 9.80473 7.3903 9.80473 7.122V6.14638C9.80473 5.87808 10.0242 5.65857 10.2925 5.65857H21.5122C21.7805 5.65857 22 5.87808 22 6.14638V7.122C22 7.3903 21.7805 7.60981 21.5122 7.60981Z" fill="url(#paint0_linear_40_5300)"/>
<path d="M3.83441 8.46002L2.12512 6.75073C1.95829 6.5839 1.95829 6.31316 2.12512 6.14633L2.72952 5.54193C2.89635 5.3751 3.16709 5.3751 3.33392 5.54193L4.13686 6.34487L6.64957 3.83215C6.8164 3.66532 7.08714 3.66532 7.25397 3.83215L7.85836 4.43655C8.0252 4.60338 8.0252 4.87412 7.85836 5.04095L4.43881 8.46002C4.27198 8.62734 4.00124 8.62734 3.83441 8.46002Z" fill="#42A4EB"/>
<path d="M21.5122 13.4635H10.2925C10.0242 13.4635 9.80473 13.2439 9.80473 12.9756V12C9.80473 11.7317 10.0242 11.5122 10.2925 11.5122H21.5122C21.7805 11.5122 22 11.7317 22 12V12.9756C22 13.2439 21.7805 13.4635 21.5122 13.4635Z" fill="url(#paint1_linear_40_5300)"/>
<path d="M3.83441 14.3138L2.12512 12.6045C1.95829 12.4376 1.95829 12.1669 2.12512 12.0001L2.72952 11.3957C2.89635 11.2289 3.16709 11.2289 3.33392 11.3957L4.13686 12.1986L6.64957 9.68591C6.8164 9.51908 7.08714 9.51908 7.25397 9.68591L7.85836 10.2903C8.0252 10.4571 8.0252 10.7279 7.85836 10.8947L4.43881 14.3138C4.27198 14.4811 4.00124 14.4811 3.83441 14.3138Z" fill="#42A4EB"/>
<path d="M21.5122 19.3172H10.2925C10.0242 19.3172 9.80473 19.0977 9.80473 18.8294V17.8538C9.80473 17.5855 10.0242 17.366 10.2925 17.366H21.5122C21.7805 17.366 22 17.5855 22 17.8538V18.8294C22 19.0977 21.7805 19.3172 21.5122 19.3172Z" fill="url(#paint2_linear_40_5300)"/>
<path d="M3.83441 20.1675L2.12512 18.4582C1.95829 18.2914 1.95829 18.0207 2.12512 17.8538L2.72952 17.2495C2.89635 17.0826 3.16709 17.0826 3.33392 17.2495L4.13686 18.0524L6.64957 15.5397C6.8164 15.3728 7.08714 15.3728 7.25397 15.5397L7.85836 16.1441C8.0252 16.3109 8.0252 16.5816 7.85836 16.7485L4.43881 20.1675C4.27198 20.3349 4.00124 20.3349 3.83441 20.1675Z" fill="#42A4EB"/>
<defs>
<linearGradient id="paint0_linear_40_5300" x1="12.354" y1="3.08586" x2="19.1404" y2="9.87228" gradientUnits="userSpaceOnUse">
<stop stop-color="#1D59B3"/>
<stop offset="1" stop-color="#195BBC"/>
</linearGradient>
<linearGradient id="paint1_linear_40_5300" x1="12.354" y1="8.93949" x2="19.1404" y2="15.7259" gradientUnits="userSpaceOnUse">
<stop stop-color="#1D59B3"/>
<stop offset="1" stop-color="#195BBC"/>
</linearGradient>
<linearGradient id="paint2_linear_40_5300" x1="12.354" y1="14.7933" x2="19.1404" y2="21.5797" gradientUnits="userSpaceOnUse">
<stop stop-color="#1D59B3"/>
<stop offset="1" stop-color="#195BBC"/>
</linearGradient>
</defs>
</svg>
