<svg width="24" height="24" viewBox="0 0 24 24" fill="none" xmlns="http://www.w3.org/2000/svg">
<path d="M2.52631 20.9474V6.21057H21.4737V20.9474C21.4737 21.5264 21 22 20.4211 22H3.57895C3 22 2.52631 21.5264 2.52631 20.9474Z" fill="url(#paint0_linear_40_5287)"/>
<path opacity="0.05" d="M16.301 9.45905L10.9474 14.8127L8.22525 12.0906C7.8142 11.6795 7.14789 11.6795 6.73683 12.0906L5.99262 12.8348C5.58157 13.2459 5.58157 13.9122 5.99262 14.3232L10.2031 18.5338C10.6142 18.9448 11.2805 18.9448 11.6916 18.5338L18.5337 11.6916C18.9447 11.2806 18.9447 10.6143 18.5337 10.2033L17.7895 9.45905C17.3784 9.04799 16.7121 9.04799 16.301 9.45905Z" fill="black"/>
<path opacity="0.07" d="M10.3889 18.3479L6.17841 14.1373C5.86999 13.8289 5.86999 13.3289 6.17841 13.021L6.92262 12.2768C7.23105 11.9684 7.73105 11.9684 8.03894 12.2768L10.9474 15.1847L16.4868 9.64526C16.7953 9.33684 17.2953 9.33684 17.6032 9.64526L18.3474 10.3895C18.6558 10.6979 18.6558 11.1979 18.3474 11.5058L11.5053 18.3479C11.1974 18.6558 10.6974 18.6558 10.3889 18.3479Z" fill="black"/>
<path d="M10.5753 18.1615L6.36474 13.951C6.15895 13.7452 6.15895 13.4121 6.36474 13.2068L7.10895 12.4626C7.31474 12.2568 7.6479 12.2568 7.85316 12.4626L10.9474 15.5568L16.6732 9.83098C16.8789 9.62519 17.2121 9.62519 17.4174 9.83098L18.1616 10.5752C18.3674 10.781 18.3674 11.1142 18.1616 11.3194L11.3195 18.1615C11.1142 18.3673 10.7805 18.3673 10.5753 18.1615Z" fill="white"/>
<path d="M21.4737 4.10524V7.26314H2.52631V4.10524C2.52631 3.5263 3 3.05261 3.57895 3.05261H20.4211C21 3.05261 21.4737 3.5263 21.4737 4.10524Z" fill="url(#paint1_linear_40_5287)"/>
<path opacity="0.05" d="M18.0526 6.47366C17.1805 6.47366 16.4737 5.76682 16.4737 4.89472V3.05261H19.6316V4.89472C19.6316 5.76682 18.9247 6.47366 18.0526 6.47366Z" fill="black"/>
<path opacity="0.07" d="M18.0526 6.07893C17.3984 6.07893 16.8684 5.54893 16.8684 4.89472V3.05261H19.2368V4.89472C19.2368 5.54893 18.7068 6.07893 18.0526 6.07893Z" fill="black"/>
<path d="M18.0526 5.68421C17.6168 5.68421 17.2632 5.33053 17.2632 4.89474V2.78947C17.2632 2.35368 17.6168 2 18.0526 2C18.4884 2 18.8421 2.35368 18.8421 2.78947V4.89474C18.8421 5.33053 18.4884 5.68421 18.0526 5.68421Z" fill="#3CCBF4"/>
<path opacity="0.05" d="M5.94736 6.47366C5.07526 6.47366 4.36842 5.76682 4.36842 4.89472V3.05261H7.52631V4.89472C7.52631 5.76682 6.81947 6.47366 5.94736 6.47366Z" fill="black"/>
<path opacity="0.07" d="M5.94736 6.07893C5.29315 6.07893 4.76315 5.54893 4.76315 4.89472V3.05261H7.13157V4.89472C7.13157 5.54893 6.60157 6.07893 5.94736 6.07893Z" fill="black"/>
<path d="M5.94736 5.68421C5.51157 5.68421 5.15789 5.33053 5.15789 4.89474V2.78947C5.15789 2.35368 5.51157 2 5.94736 2C6.38315 2 6.73684 2.35368 6.73684 2.78947V4.89474C6.73684 5.33053 6.38315 5.68421 5.94736 5.68421Z" fill="#3CCBF4"/>
<defs>
<linearGradient id="paint0_linear_40_5287" x1="2.74421" y1="7.08531" x2="21.3547" y2="20.6779" gradientUnits="userSpaceOnUse">
<stop stop-color="#28AFEA"/>
<stop offset="1" stop-color="#047ED6"/>
</linearGradient>
<linearGradient id="paint1_linear_40_5287" x1="2.74737" y1="3.37261" x2="21.0516" y2="7.09472" gradientUnits="userSpaceOnUse">
<stop stop-color="#0077D2"/>
<stop offset="1" stop-color="#0B59A2"/>
</linearGradient>
</defs>
</svg>
