<svg width="24" height="24" viewBox="0 0 24 24" fill="none" xmlns="http://www.w3.org/2000/svg">
<path d="M15.75 5.75C14.5146 5.75 9.48542 5.75 8.25 5.75C4.79833 5.75 2 8.54833 2 12C2 15.4517 4.79833 18.25 8.25 18.25C9.48542 18.25 14.5146 18.25 15.75 18.25C19.2017 18.25 22 15.4517 22 12C22 8.54833 19.2017 5.75 15.75 5.75Z" fill="#0078D4"/>
<path d="M15.75 17.8333C18.9717 17.8333 21.5833 15.2216 21.5833 12C21.5833 8.7783 18.9717 6.16663 15.75 6.16663C12.5283 6.16663 9.91667 8.7783 9.91667 12C9.91667 15.2216 12.5283 17.8333 15.75 17.8333Z" fill="url(#paint0_radial_40_5316)"/>
<path d="M15.75 17C18.5114 17 20.75 14.7614 20.75 12C20.75 9.23857 18.5114 7 15.75 7C12.9886 7 10.75 9.23857 10.75 12C10.75 14.7614 12.9886 17 15.75 17Z" fill="#F9F9F9"/>
<defs>
<radialGradient id="paint0_radial_40_5316" cx="0" cy="0" r="1" gradientUnits="userSpaceOnUse" gradientTransform="translate(15.75 12) scale(5.83333)">
<stop/>
<stop offset="1" stop-opacity="0"/>
</radialGradient>
</defs>
</svg>
