<svg width="24" height="24" viewBox="0 0 24 24" fill="none" xmlns="http://www.w3.org/2000/svg">
<path d="M13.3744 8.25281C13.2027 8.42451 4.278 17.3492 4.10629 17.5209C3.24924 18.378 3.24924 19.7682 4.10629 20.6253C4.96335 21.4823 6.35357 21.4823 7.21063 20.6253C7.38234 20.4536 16.3071 11.5288 16.4788 11.3571L13.3744 8.25281Z" fill="url(#paint0_radial_40_5354)"/>
<path d="M5.90237 19.8047C6.44117 19.8047 6.87796 19.3679 6.87796 18.8291C6.87796 18.2903 6.44117 17.8535 5.90237 17.8535C5.36357 17.8535 4.92677 18.2903 4.92677 18.8291C4.92677 19.3679 5.36357 19.8047 5.90237 19.8047Z" fill="url(#paint1_linear_40_5354)"/>
<path d="M19.768 7.53073C19.0592 8.2395 17.9095 8.2395 17.2007 7.53073C16.4919 6.82197 16.4919 5.67223 17.2007 4.96346C17.3739 4.79029 18.0709 4.09323 18.7812 3.383C18.9514 3.21276 18.8758 2.9152 18.6421 2.85764C18.0665 2.71618 17.447 2.68643 16.8027 2.80789C14.9129 3.16398 13.4393 4.74542 13.2432 6.65807C12.9574 9.44729 15.2851 11.7746 18.0744 11.4882C19.987 11.2917 21.568 9.81801 21.924 7.92829C22.0455 7.28391 22.0157 6.6649 21.8743 6.0893C21.8167 5.85515 21.5192 5.77955 21.3489 5.95027C20.6382 6.66051 19.9411 7.35805 19.768 7.53073Z" fill="url(#paint2_linear_40_5354)"/>
<path d="M18.0973 18.3413L6.14627 6.48784L4.92678 4.68299L2.68291 3.7074L2 4.39031L2.97559 6.63418L4.78044 7.85367L16.7315 19.7071L18.0973 18.3413Z" fill="url(#paint3_linear_40_5354)"/>
<path d="M9.38036 14.1921C9.64377 14.4555 15.6417 20.4535 15.8134 20.6252C16.6705 21.4822 18.0607 21.4822 18.9178 20.6252C19.7748 19.7681 19.7748 18.3779 18.9178 17.5208C18.746 17.3491 12.7481 11.3512 12.4847 11.0878L9.38036 14.1921Z" fill="#AF2031"/>
<path d="M11.5091 10.1121L8.40477 13.2164C8.44623 13.2579 8.82671 13.6383 9.38036 14.192L12.4847 11.0877C11.9311 10.534 11.5506 10.1535 11.5091 10.1121Z" fill="#C94F60"/>
<defs>
<radialGradient id="paint0_radial_40_5354" cx="0" cy="0" r="1" gradientUnits="userSpaceOnUse" gradientTransform="translate(17.9319 6.85966) scale(6.45598)">
<stop offset="0.706" stop-color="#787F85"/>
<stop offset="0.713" stop-color="#7A8187"/>
<stop offset="0.793" stop-color="#90989F"/>
<stop offset="0.868" stop-color="#9DA5AE"/>
<stop offset="0.93" stop-color="#A1AAB3"/>
</radialGradient>
<linearGradient id="paint1_linear_40_5354" x1="4.9897" y1="17.9164" x2="6.59065" y2="19.5174" gradientUnits="userSpaceOnUse">
<stop stop-color="#0D61A9"/>
<stop offset="0.363" stop-color="#0E5FA4"/>
<stop offset="0.78" stop-color="#135796"/>
<stop offset="1" stop-color="#16528C"/>
</linearGradient>
<linearGradient id="paint2_linear_40_5354" x1="14.2588" y1="4.19616" x2="20.3709" y2="10.3082" gradientUnits="userSpaceOnUse">
<stop stop-color="#A1AAB3"/>
<stop offset="1" stop-color="#8F979E"/>
</linearGradient>
<linearGradient id="paint3_linear_40_5354" x1="2" y1="11.7073" x2="18.0973" y2="11.7073" gradientUnits="userSpaceOnUse">
<stop stop-color="#A1AAB3"/>
<stop offset="1" stop-color="#8F979E"/>
</linearGradient>
</defs>
</svg>
