<svg width="24" height="24" viewBox="0 0 24 24" fill="none" xmlns="http://www.w3.org/2000/svg">
<path d="M2 8.75H22V19.25C22 19.8025 21.5525 20.25 21 20.25H3C2.4475 20.25 2 19.8025 2 19.25V8.75Z" fill="url(#paint0_linear_40_5321)"/>
<path d="M22 8.75V7.164C22 6.899 21.8945 6.6445 21.707 6.457L20.793 5.543C20.6055 5.3555 20.351 5.25 20.086 5.25H3.914C3.649 5.25 3.3945 5.3555 3.207 5.543L2.293 6.457C2.1055 6.6445 2 6.899 2 7.164V8.75H22Z" fill="#EB6773"/>
<path d="M15.25 3.75H8.75C8.336 3.75 8 4.086 8 4.5V5.25H16V4.5C16 4.086 15.664 3.75 15.25 3.75Z" fill="url(#paint1_linear_40_5321)"/>
<path opacity="0.018" d="M18.5 11.2044H17.5C16.973 11.2044 16.5455 10.7769 16.5455 10.2499V8.24991C16.5455 7.72291 16.973 7.29541 17.5 7.29541H18.5C19.027 7.29541 19.4545 7.72291 19.4545 8.24991V10.2499C19.4545 10.7769 19.027 11.2044 18.5 11.2044Z" fill="black"/>
<path opacity="0.036" d="M18.5 11.1589H17.5C16.998 11.1589 16.591 10.7519 16.591 10.2499V8.24994C16.591 7.74794 16.998 7.34094 17.5 7.34094H18.5C19.002 7.34094 19.409 7.74794 19.409 8.24994V10.2499C19.409 10.7519 19.002 11.1589 18.5 11.1589Z" fill="black"/>
<path opacity="0.054" d="M18.5 11.1135H17.5C17.023 11.1135 16.6365 10.727 16.6365 10.25V8.24997C16.6365 7.77297 17.023 7.38647 17.5 7.38647H18.5C18.977 7.38647 19.3635 7.77297 19.3635 8.24997V10.25C19.3635 10.727 18.977 11.1135 18.5 11.1135Z" fill="black"/>
<path opacity="0.073" d="M18.5 11.068H17.5C17.048 11.068 16.682 10.7015 16.682 10.25V8.25001C16.682 7.79801 17.0485 7.43201 17.5 7.43201H18.5C18.952 7.43201 19.318 7.79851 19.318 8.25001V10.25C19.318 10.702 18.952 11.068 18.5 11.068Z" fill="black"/>
<path opacity="0.091" d="M18.5 11.0226H17.5C17.073 11.0226 16.7275 10.6766 16.7275 10.25V8.25004C16.7275 7.82304 17.0735 7.47754 17.5 7.47754H18.5C18.927 7.47754 19.2725 7.82354 19.2725 8.25004V10.25C19.2725 10.6771 18.927 11.0226 18.5 11.0226Z" fill="black"/>
<path opacity="0.109" d="M18.5 10.9774H17.5C17.0985 10.9774 16.7725 10.6519 16.7725 10.2499V8.24996C16.7725 7.84846 17.098 7.52246 17.5 7.52246H18.5C18.9015 7.52246 19.2275 7.84796 19.2275 8.24996V10.2499C19.2275 10.6514 18.9015 10.9774 18.5 10.9774Z" fill="black"/>
<path opacity="0.127" d="M18.5 10.932H17.5C17.1235 10.932 16.818 10.6265 16.818 10.25V8.24999C16.818 7.87349 17.1235 7.56799 17.5 7.56799H18.5C18.8765 7.56799 19.182 7.87349 19.182 8.24999V10.25C19.182 10.6265 18.8765 10.932 18.5 10.932Z" fill="black"/>
<path opacity="0.145" d="M18.5 10.8865H17.5C17.1485 10.8865 16.8635 10.6015 16.8635 10.25V8.25002C16.8635 7.89852 17.1485 7.61353 17.5 7.61353H18.5C18.8515 7.61353 19.1365 7.89852 19.1365 8.25002V10.25C19.1365 10.6015 18.8515 10.8865 18.5 10.8865Z" fill="black"/>
<path opacity="0.164" d="M18.5 10.8411H17.5C17.1735 10.8411 16.909 10.5766 16.909 10.2501V8.25006C16.909 7.92356 17.1735 7.65906 17.5 7.65906H18.5C18.8265 7.65906 19.091 7.92356 19.091 8.25006V10.2501C19.091 10.5766 18.8265 10.8411 18.5 10.8411Z" fill="black"/>
<path opacity="0.182" d="M18.5 10.7956H17.5C17.199 10.7956 16.9545 10.5516 16.9545 10.2501V8.25009C16.9545 7.94909 17.1985 7.70459 17.5 7.70459H18.5C18.801 7.70459 19.0455 7.94859 19.0455 8.25009V10.2501C19.0455 10.5511 18.801 10.7956 18.5 10.7956Z" fill="black"/>
<path opacity="0.2" d="M18.5 10.75H17.5C17.224 10.75 17 10.526 17 10.25V8.25C17 7.974 17.224 7.75 17.5 7.75H18.5C18.776 7.75 19 7.974 19 8.25V10.25C19 10.526 18.776 10.75 18.5 10.75Z" fill="black"/>
<path opacity="0.018" d="M6.5 11.2044H5.5C4.973 11.2044 4.5455 10.7769 4.5455 10.2499V8.24991C4.5455 7.72291 4.973 7.29541 5.5 7.29541H6.5C7.027 7.29541 7.4545 7.72291 7.4545 8.24991V10.2499C7.4545 10.7769 7.027 11.2044 6.5 11.2044Z" fill="black"/>
<path opacity="0.036" d="M6.5 11.1588H5.5C4.998 11.1588 4.591 10.7518 4.591 10.2498V8.24982C4.591 7.74782 4.998 7.34082 5.5 7.34082H6.5C7.002 7.34082 7.409 7.74782 7.409 8.24982V10.2498C7.409 10.7518 7.002 11.1588 6.5 11.1588Z" fill="black"/>
<path opacity="0.054" d="M6.50001 11.1134H5.50001C5.02301 11.1134 4.63651 10.7269 4.63651 10.2499V8.24985C4.63651 7.77285 5.02301 7.38635 5.50001 7.38635H6.50001C6.97701 7.38635 7.36351 7.77285 7.36351 8.24985V10.2499C7.36351 10.7269 6.97701 11.1134 6.50001 11.1134Z" fill="black"/>
<path opacity="0.073" d="M6.50001 11.0678H5.50001C5.04801 11.0678 4.68201 10.7013 4.68201 10.2499V8.24988C4.68201 7.79788 5.04851 7.43188 5.50001 7.43188H6.50001C6.95201 7.43188 7.31801 7.79838 7.31801 8.24988V10.2499C7.31801 10.7018 6.95201 11.0678 6.50001 11.0678Z" fill="black"/>
<path opacity="0.091" d="M6.50001 11.0224H5.50001C5.07301 11.0224 4.72751 10.6764 4.72751 10.2499V8.24992C4.72751 7.82292 5.07351 7.47742 5.50001 7.47742H6.50001C6.92701 7.47742 7.27251 7.82342 7.27251 8.24992V10.2499C7.27251 10.6769 6.92701 11.0224 6.50001 11.0224Z" fill="black"/>
<path opacity="0.109" d="M6.50001 10.9775H5.50001C5.09851 10.9775 4.77251 10.652 4.77251 10.25V8.24996C4.77251 7.84846 5.09801 7.52246 5.50001 7.52246H6.50001C6.90151 7.52246 7.22751 7.84796 7.22751 8.24996V10.25C7.22751 10.6515 6.90151 10.9775 6.50001 10.9775Z" fill="black"/>
<path opacity="0.127" d="M6.50001 10.9319H5.50001C5.12351 10.9319 4.81801 10.6264 4.81801 10.2499V8.24987C4.81801 7.87337 5.12351 7.56787 5.50001 7.56787H6.50001C6.87651 7.56787 7.18201 7.87337 7.18201 8.24987V10.2499C7.18201 10.6264 6.87651 10.9319 6.50001 10.9319Z" fill="black"/>
<path opacity="0.145" d="M6.49999 10.8864H5.49999C5.14849 10.8864 4.86349 10.6014 4.86349 10.2499V8.2499C4.86349 7.8984 5.14849 7.6134 5.49999 7.6134H6.49999C6.85149 7.6134 7.13649 7.8984 7.13649 8.2499V10.2499C7.13649 10.6014 6.85149 10.8864 6.49999 10.8864Z" fill="black"/>
<path opacity="0.164" d="M6.5 10.8409H5.5C5.1735 10.8409 4.909 10.5764 4.909 10.2499V8.24994C4.909 7.92344 5.1735 7.65894 5.5 7.65894H6.5C6.8265 7.65894 7.091 7.92344 7.091 8.24994V10.2499C7.091 10.5764 6.8265 10.8409 6.5 10.8409Z" fill="black"/>
<path opacity="0.182" d="M6.5 10.7955H5.5C5.199 10.7955 4.9545 10.5515 4.9545 10.25V8.24997C4.9545 7.94897 5.1985 7.70447 5.5 7.70447H6.5C6.801 7.70447 7.0455 7.94847 7.0455 8.24997V10.25C7.0455 10.551 6.801 10.7955 6.5 10.7955Z" fill="black"/>
<path opacity="0.2" d="M6.5 10.75H5.5C5.224 10.75 5 10.526 5 10.25V8.25C5 7.974 5.224 7.75 5.5 7.75H6.5C6.776 7.75 7 7.974 7 8.25V10.25C7 10.526 6.776 10.75 6.5 10.75Z" fill="black"/>
<path d="M17.5 7.75H18.5C18.776 7.75 19 7.974 19 8.25V10.25C19 10.526 18.776 10.75 18.5 10.75H17.5C17.224 10.75 17 10.526 17 10.25V8.25C17 7.974 17.224 7.75 17.5 7.75Z" fill="white"/>
<path d="M5.5 7.75H6.5C6.776 7.75 7 7.974 7 8.25V10.25C7 10.526 6.776 10.75 6.5 10.75H5.5C5.224 10.75 5 10.526 5 10.25V8.25C5 7.974 5.224 7.75 5.5 7.75Z" fill="white"/>
<defs>
<linearGradient id="paint0_linear_40_5321" x1="12" y1="8.7765" x2="12" y2="20.333" gradientUnits="userSpaceOnUse">
<stop offset="0.88" stop-color="#C71926"/>
<stop offset="0.883" stop-color="#B51623"/>
<stop offset="0.886" stop-color="#9C131F"/>
</linearGradient>
<linearGradient id="paint1_linear_40_5321" x1="8" y1="4.5" x2="16" y2="4.5" gradientUnits="userSpaceOnUse">
<stop stop-color="#5E5E5E"/>
<stop offset="1" stop-color="#545454"/>
</linearGradient>
</defs>
</svg>
