<svg width="24" height="24" viewBox="0 0 24 24" fill="none" xmlns="http://www.w3.org/2000/svg">
<path d="M20.0946 22H3.90544C3.34641 22 2.89362 21.5472 2.89362 20.9882V8.85799C2.89362 8.5332 3.04944 8.22813 3.31302 8.03791L11.4076 2.19161C11.7612 1.93613 12.2388 1.93613 12.5924 2.19161L20.687 8.03791C20.9506 8.22763 21.1064 8.53269 21.1064 8.85799V20.9882C21.1064 21.5472 20.6536 22 20.0946 22Z" fill="url(#paint0_linear_40_5362)"/>
<path opacity="0.05" d="M6.40464 11.8818C5.86331 11.8818 5.42317 11.4325 5.42317 10.8801V9.84802C5.42317 9.29556 5.86331 8.84631 6.40464 8.84631H17.5954C18.1367 8.84631 18.5768 9.29556 18.5768 9.84802V10.8801C18.5768 11.4325 18.1367 11.8818 17.5954 11.8818H6.40464Z" fill="black"/>
<path opacity="0.07" d="M6.40463 11.6288C6.00293 11.6288 5.67612 11.2929 5.67612 10.88V9.84799C5.67612 9.43517 6.00293 9.09924 6.40463 9.09924H17.5954C17.9971 9.09924 18.3239 9.43517 18.3239 9.84799V10.88C18.3239 11.2929 17.9971 11.6288 17.5954 11.6288H6.40463Z" fill="black"/>
<path d="M17.5949 11.3759H6.40514C6.14308 11.3759 5.92908 11.1528 5.92908 10.8801V9.84809C5.92908 9.5754 6.14308 9.35229 6.40514 9.35229H17.5949C17.8569 9.35229 18.0709 9.5754 18.0709 9.84809V10.8801C18.0709 11.1528 17.8569 11.3759 17.5949 11.3759Z" fill="white"/>
<path opacity="0.05" d="M6.40464 15.9291C5.86331 15.9291 5.42317 15.4799 5.42317 14.9274V13.8954C5.42317 13.3429 5.86331 12.8937 6.40464 12.8937H17.5954C18.1367 12.8937 18.5768 13.3429 18.5768 13.8954V14.9274C18.5768 15.4799 18.1367 15.9291 17.5954 15.9291H6.40464Z" fill="black"/>
<path opacity="0.07" d="M6.40463 15.6762C6.00293 15.6762 5.67612 15.3402 5.67612 14.9274V13.8954C5.67612 13.4825 6.00293 13.1466 6.40463 13.1466H17.5954C17.9971 13.1466 18.3239 13.4825 18.3239 13.8954V14.9274C18.3239 15.3402 17.9971 15.6762 17.5954 15.6762H6.40463Z" fill="black"/>
<path d="M17.5949 15.4232H6.40514C6.14308 15.4232 5.92908 15.2001 5.92908 14.9274V13.8953C5.92908 13.6226 6.14308 13.3995 6.40514 13.3995H17.5949C17.8569 13.3995 18.0709 13.6226 18.0709 13.8953V14.9274C18.0709 15.2001 17.8569 15.4232 17.5949 15.4232Z" fill="white"/>
<path opacity="0.05" d="M6.40464 19.9764C5.86331 19.9764 5.42317 19.5271 5.42317 18.9747V17.9426C5.42317 17.3902 5.86331 16.9409 6.40464 16.9409H17.5954C18.1367 16.9409 18.5768 17.3902 18.5768 17.9426V18.9747C18.5768 19.5271 18.1367 19.9764 17.5954 19.9764H6.40464Z" fill="black"/>
<path opacity="0.07" d="M6.40463 19.7234C6.00293 19.7234 5.67612 19.3875 5.67612 18.9747V17.9426C5.67612 17.5298 6.00293 17.1938 6.40463 17.1938H17.5954C17.9971 17.1938 18.3239 17.5298 18.3239 17.9426V18.9747C18.3239 19.3875 17.9971 19.7234 17.5954 19.7234H6.40463Z" fill="black"/>
<path d="M17.5949 19.4704H6.40514C6.14308 19.4704 5.92908 19.2473 5.92908 18.9746V17.9426C5.92908 17.6699 6.14308 17.4468 6.40514 17.4468H17.5949C17.8569 17.4468 18.0709 17.6699 18.0709 17.9426V18.9746C18.0709 19.2473 17.8569 19.4704 17.5949 19.4704Z" fill="white"/>
<defs>
<linearGradient id="paint0_linear_40_5362" x1="0.7865" y1="3.70934" x2="20.2691" y2="23.1924" gradientUnits="userSpaceOnUse">
<stop stop-color="#0077D2"/>
<stop offset="1" stop-color="#0B59A2"/>
</linearGradient>
</defs>
</svg>
