<svg width="24" height="24" viewBox="0 0 24 24" fill="none" xmlns="http://www.w3.org/2000/svg">
<path d="M7.54038 2.11926C7.05503 2.11923 6.57245 2.19235 6.10888 2.33616C5.95943 2.37954 5.81002 2.43737 5.66545 2.49521C5.52085 2.55787 5.38108 2.63017 5.2413 2.70247H5.23648C4.47494 3.11721 3.83932 3.72961 3.39654 4.47521C2.95377 5.22079 2.72023 6.07198 2.72051 6.93914C2.72115 7.25303 2.75182 7.56614 2.81209 7.87419C2.83137 7.95131 2.84583 8.02843 2.86511 8.10073C2.866 8.11561 2.86926 8.13024 2.87474 8.1441C2.90848 8.27906 2.95186 8.4092 2.99524 8.53933C3.0338 8.65019 3.07236 8.75623 3.12056 8.86227C3.16386 8.9597 3.21008 9.05451 3.25859 9.14808C3.20446 9.04694 3.16883 8.97573 3.1784 8.99722C3.17074 9.00703 3.16576 9.01865 3.16394 9.03096L2.03127 11.6048C2.00056 11.6746 1.99222 11.7521 2.00736 11.8268C2.02251 11.9015 2.06043 11.9697 2.11588 12.022C2.17135 12.0743 2.24164 12.1082 2.3171 12.1189C2.39257 12.1296 2.46952 12.1167 2.53735 12.0819L4.81233 10.9252C4.64846 10.795 4.64846 10.795 4.59062 10.7468C5.10651 11.1505 5.70067 11.4427 6.33541 11.6048C6.39531 11.6238 6.45653 11.6383 6.51857 11.6482C6.5689 11.6629 6.62057 11.6725 6.6728 11.6771C6.76027 11.6966 6.84878 11.7111 6.9379 11.7204C7.01502 11.7301 7.09213 11.7397 7.17407 11.7445C7.29457 11.7542 7.41507 11.759 7.54038 11.759C8.40754 11.7593 9.25874 11.5258 10.0043 11.083C10.7499 10.6402 11.3623 10.0046 11.7771 9.24304V9.23822C11.8493 9.09844 11.9216 8.95866 11.9843 8.81407C12.0421 8.66947 12.1 8.52005 12.1434 8.37064C12.3674 7.6492 12.4188 6.88521 12.2934 6.14027C12.1679 5.39534 11.8692 4.69029 11.4213 4.08198C10.9734 3.47367 10.3888 2.97912 9.71472 2.63819C9.04061 2.29727 8.29581 2.11951 7.54038 2.11926ZM3.29784 9.22052C3.34641 9.30989 3.39665 9.39825 3.45314 9.48402C3.4021 9.40653 3.34618 9.30871 3.29784 9.22052Z" fill="url(#paint0_linear_40_5402)"/>
<path d="M17.3609 16.4687V15.6236C18.2915 14.9779 19.0478 14.0428 19.0478 13.2134V12.6365H19.0866C19.1842 12.6423 19.2809 12.6146 19.3607 12.5581C19.4406 12.5015 19.4987 12.4195 19.5257 12.3255L19.6707 11.61C19.6897 11.465 19.6516 11.3184 19.5643 11.2011C19.4771 11.0838 19.3476 11.0052 19.2033 10.9817C19.3474 10.2806 19.4364 9.56928 19.4696 8.85427C19.434 8.37347 19.2827 7.90841 19.0284 7.49883C18.774 7.08925 18.4243 6.7473 18.0091 6.50222C18.1415 6.18243 18.2078 5.83923 18.2044 5.49316H15.3445C13.9617 5.49316 13.3945 6.06018 13.215 6.30188C13.1861 6.33413 13.162 6.37041 13.1435 6.4096C12.397 6.51926 11.0348 7.60883 11.0348 8.85427C11.0597 9.56964 11.1516 10.2811 11.3095 10.9792C11.1634 11.0011 11.0317 11.0795 10.9427 11.1974C10.8538 11.3153 10.8146 11.4634 10.8336 11.61L10.9787 12.3255C11.0057 12.4195 11.0638 12.5015 11.1436 12.558C11.2234 12.6146 11.3201 12.6423 11.4178 12.6365H11.4565V13.2134C11.4565 14.0428 12.2129 14.978 13.1435 15.6236V16.4688C10.4504 17.0659 8.50436 18.7516 8.50436 20.5601V21.0403C8.50453 21.1509 8.52649 21.2604 8.56898 21.3625C8.61146 21.4646 8.67365 21.5572 8.75198 21.6353C8.83031 21.7133 8.92325 21.7752 9.02549 21.8173C9.12773 21.8594 9.23727 21.8809 9.34783 21.8807H21.1565C21.2671 21.8809 21.3766 21.8594 21.4789 21.8173C21.5812 21.7752 21.6741 21.7133 21.7524 21.6353C21.8307 21.5572 21.8929 21.4646 21.9354 21.3625C21.9778 21.2604 21.9998 21.1509 22 21.0403V20.5601C22 18.7516 20.0539 17.0659 17.3609 16.4687Z" fill="url(#paint1_linear_40_5402)"/>
<path d="M13.7985 11.759H16.6904V12.723H13.7985V11.759Z" fill="white"/>
<path d="M13.851 13.6869L15.2445 9.34904L16.6451 13.6869H17.6621L15.7264 7.90308H14.7625L12.8345 13.6869H13.851Z" fill="white"/>
<path d="M5.16129 8.97461C6.77667 7.84532 8.09013 6.33674 8.98634 4.5813L9.8491 5.01123C8.92143 6.94521 7.50843 8.60582 5.74787 9.8311L5.16129 8.97461Z" fill="url(#paint2_linear_40_5402)"/>
<path d="M9.46833 9.83103C7.97344 9.01517 6.69087 7.85989 5.72377 6.45809L6.57641 5.97514C7.70089 7.82259 9.94116 8.99238 9.94116 8.99238L9.46833 9.83103ZM4.64846 4.52917H10.4323V5.49315H4.64846V4.52917Z" fill="url(#paint3_linear_40_5402)"/>
<path d="M7.0584 3.56519H8.02237V5.49313H7.0584V3.56519Z" fill="url(#paint4_linear_40_5402)"/>
<defs>
<linearGradient id="paint0_linear_40_5402" x1="1.99897" y1="7.12181" x2="12.3603" y2="7.12181" gradientUnits="userSpaceOnUse">
<stop stop-color="#42A3F2"/>
<stop offset="1" stop-color="#42A4EB"/>
</linearGradient>
<linearGradient id="paint1_linear_40_5402" x1="8.50436" y1="13.6869" x2="22" y2="13.6869" gradientUnits="userSpaceOnUse">
<stop stop-color="#1D59B3"/>
<stop offset="1" stop-color="#195BBC"/>
</linearGradient>
<linearGradient id="paint2_linear_40_5402" x1="5.16129" y1="7.2062" x2="9.8491" y2="7.2062" gradientUnits="userSpaceOnUse">
<stop stop-color="#11408A"/>
<stop offset="1" stop-color="#103F8F"/>
</linearGradient>
<linearGradient id="paint3_linear_40_5402" x1="4.64846" y1="7.1801" x2="10.4323" y2="7.1801" gradientUnits="userSpaceOnUse">
<stop stop-color="#11408A"/>
<stop offset="1" stop-color="#103F8F"/>
</linearGradient>
<linearGradient id="paint4_linear_40_5402" x1="7.0584" y1="4.52916" x2="8.02237" y2="4.52916" gradientUnits="userSpaceOnUse">
<stop stop-color="#11408A"/>
<stop offset="1" stop-color="#103F8F"/>
</linearGradient>
</defs>
</svg>
