<svg width="24" height="24" viewBox="0 0 24 24" fill="none" xmlns="http://www.w3.org/2000/svg">
<path d="M20.6046 9.90699H7.58139V4.32559C7.58139 4.06885 7.78976 3.86047 8.04651 3.86047H20.1395C20.3963 3.86047 20.6046 4.06885 20.6046 4.32559V9.90699Z" fill="#E3A600"/>
<path d="M20.1395 15.9535H8.04651C7.79069 15.9535 7.58139 15.7442 7.58139 15.4884V9.90698H20.6046V15.4884C20.6046 15.7442 20.3953 15.9535 20.1395 15.9535Z" fill="#C48C00"/>
<path d="M19.6744 20.1396C20.445 20.1396 21.0698 19.5148 21.0698 18.7442C21.0698 17.9736 20.445 17.3489 19.6744 17.3489C18.9038 17.3489 18.2791 17.9736 18.2791 18.7442C18.2791 19.5148 18.9038 20.1396 19.6744 20.1396Z" fill="#5C5F61"/>
<path opacity="0.15" d="M19.6744 19.2093C19.9313 19.2093 20.1395 19.001 20.1395 18.7442C20.1395 18.4873 19.9313 18.2791 19.6744 18.2791C19.4176 18.2791 19.2093 18.4873 19.2093 18.7442C19.2093 19.001 19.4176 19.2093 19.6744 19.2093Z" fill="black"/>
<path d="M8.97674 20.1396C9.74737 20.1396 10.3721 19.5148 10.3721 18.7442C10.3721 17.9736 9.74737 17.3489 8.97674 17.3489C8.20611 17.3489 7.58139 17.9736 7.58139 18.7442C7.58139 19.5148 8.20611 20.1396 8.97674 20.1396Z" fill="#5C5F61"/>
<path opacity="0.15" d="M8.97674 19.2093C9.23362 19.2093 9.44186 19.001 9.44186 18.7442C9.44186 18.4873 9.23362 18.2791 8.97674 18.2791C8.71987 18.2791 8.51163 18.4873 8.51163 18.7442C8.51163 19.001 8.71987 19.2093 8.97674 19.2093Z" fill="black"/>
<path d="M8.51163 17.8139H6.08512C5.37628 17.8139 4.78 17.2827 4.69907 16.5786L3.49302 6.13251C3.46605 5.89809 3.26791 5.72088 3.03116 5.72088H2.46512C2.20837 5.72088 2 5.51297 2 5.25577C2 4.99856 2.20837 4.79065 2.46512 4.79065H3.03116C3.74 4.79065 4.33628 5.32181 4.41721 6.026L5.62326 16.472C5.65023 16.7065 5.84837 16.8837 6.08512 16.8837H8.51163C8.76837 16.8837 8.97674 17.0916 8.97674 17.3488C8.97674 17.606 8.76837 17.8139 8.51163 17.8139Z" fill="url(#paint0_linear_40_5458)"/>
<path d="M6.65117 15.9535H21.5349C21.7916 15.9535 22 16.1619 22 16.4186V17.3488C22 17.6056 21.7916 17.814 21.5349 17.814H6.65117C6.39442 17.814 6.18605 17.6056 6.18605 17.3488V16.4186C6.18605 16.1619 6.39442 15.9535 6.65117 15.9535Z" fill="url(#paint1_linear_40_5458)"/>
<defs>
<linearGradient id="paint0_linear_40_5458" x1="5.48837" y1="17.8139" x2="5.48837" y2="4.79065" gradientUnits="userSpaceOnUse">
<stop stop-color="#92A3B0"/>
<stop offset="0.015" stop-color="#A3B5C4"/>
<stop offset="0.032" stop-color="#AEC2D1"/>
<stop offset="0.046" stop-color="#B2C6D6"/>
</linearGradient>
<linearGradient id="paint1_linear_40_5458" x1="6.18605" y1="16.8837" x2="22" y2="16.8837" gradientUnits="userSpaceOnUse">
<stop stop-color="#3079D6"/>
<stop offset="1" stop-color="#297CD2"/>
</linearGradient>
</defs>
</svg>
