<svg width="24" height="24" viewBox="0 0 24 24" fill="none" xmlns="http://www.w3.org/2000/svg">
<path d="M21.0476 17.7143H14.381V7.23816H19.409C19.8186 7.23816 20.1829 7.50054 20.3124 7.88959L22 12.9524V16.762C22 17.2882 21.5738 17.7143 21.0476 17.7143Z" fill="url(#paint0_linear_40_5468)"/>
<path d="M14.381 17.7143H2.95238C2.42619 17.7143 2 17.2881 2 16.7619V4.85717C2 4.33098 2.42619 3.90479 2.95238 3.90479H13.4286C13.9548 3.90479 14.381 4.33098 14.381 4.85717V17.7143Z" fill="url(#paint1_linear_40_5468)"/>
<path d="M20.5714 17.7143C20.5714 19.0291 19.5057 20.0953 18.1905 20.0953C16.8752 20.0953 15.8095 19.0291 15.8095 17.7143C15.8095 16.3996 16.8752 15.3334 18.1905 15.3334C19.5057 15.3334 20.5714 16.3996 20.5714 17.7143Z" fill="#586169"/>
<path d="M9.14286 17.7143C9.14286 19.0291 8.07667 20.0953 6.7619 20.0953C5.44714 20.0953 4.38095 19.0291 4.38095 17.7143C4.38095 16.3996 5.44714 15.3334 6.7619 15.3334C8.07667 15.3334 9.14286 16.3996 9.14286 17.7143Z" fill="#586169"/>
<path d="M19.1429 17.7143C19.1429 18.2405 18.7167 18.6667 18.1905 18.6667C17.6643 18.6667 17.2381 18.2405 17.2381 17.7143C17.2381 17.1882 17.6643 16.762 18.1905 16.762C18.7167 16.762 19.1429 17.1882 19.1429 17.7143Z" fill="#999999"/>
<path d="M7.71429 17.7143C7.71429 18.2405 7.2881 18.6667 6.76191 18.6667C6.23572 18.6667 5.80952 18.2405 5.80952 17.7143C5.80952 17.1882 6.23572 16.762 6.76191 16.762C7.2881 16.762 7.71429 17.1882 7.71429 17.7143Z" fill="#999999"/>
<path d="M20.0952 12.4763H16.7619C16.4991 12.4763 16.2857 12.2629 16.2857 12.0001V8.66674C16.2857 8.40389 16.4991 8.19055 16.7619 8.19055H19.1429C19.3486 8.19055 19.53 8.3215 19.5948 8.51627L20.5471 11.3734C20.5629 11.422 20.5714 11.4729 20.5714 11.5239V12.0001C20.5714 12.2629 20.3581 12.4763 20.0952 12.4763Z" fill="url(#paint2_linear_40_5468)"/>
<defs>
<linearGradient id="paint0_linear_40_5468" x1="14.1014" y1="7.64864" x2="20.5933" y2="17.9053" gradientUnits="userSpaceOnUse">
<stop stop-color="#42A3F2"/>
<stop offset="1" stop-color="#42A4EB"/>
</linearGradient>
<linearGradient id="paint1_linear_40_5468" x1="3.63857" y1="3.84193" x2="12.4667" y2="17.3548" gradientUnits="userSpaceOnUse">
<stop stop-color="#3079D6"/>
<stop offset="1" stop-color="#297CD2"/>
</linearGradient>
<linearGradient id="paint2_linear_40_5468" x1="20.3543" y1="12.8786" x2="16.6991" y2="9.00484" gradientUnits="userSpaceOnUse">
<stop stop-color="#3079D6"/>
<stop offset="1" stop-color="#297CD2"/>
</linearGradient>
</defs>
</svg>
