<svg width="24" height="24" viewBox="0 0 24 24" fill="none" xmlns="http://www.w3.org/2000/svg">
<path d="M22 20.8889C22 21.5028 21.5028 22 20.8889 22H3.11111C2.49722 22 2 21.5028 2 20.8889V3.11111C2 2.49722 2.49722 2 3.11111 2H20.8889C21.5028 2 22 2.49722 22 3.11111V20.8889Z" fill="url(#paint0_linear_40_5486)"/>
<path opacity="0.05" d="M9.77778 18.1112C7.97778 18.1112 6.24945 17.67 5.03611 16.9012L4.84889 16.7828L5.17778 15.8545L5.39778 15.8801C5.48056 15.8901 5.54556 15.8917 5.61167 15.8917L5.88611 15.8889C6.44 15.8889 7.24834 15.8001 8.02278 15.5684C7.24723 15.3039 6.26389 14.7901 5.95611 13.8378L5.72056 13.1112H6.29111C5.68056 12.5539 5.33334 11.7789 5.33334 10.9206V10.0206L5.67167 10.1767C5.45223 9.75175 5.33611 9.32286 5.33611 8.92008C5.33611 8.33731 5.49056 7.76731 5.78389 7.27231L6.18889 6.59008L6.69223 7.20231C7.80167 8.55286 9.60556 10.0334 11.4444 10.2928V9.77783C11.4444 7.90897 12.8156 6.44453 14.565 6.44453C15.4233 6.44453 16.1667 6.69008 16.725 7.1562C17.3022 7.0112 18.0072 6.74342 18.3856 6.52064L19.6433 5.78064L19.195 7.16953C19.1739 7.2362 19.1472 7.30286 19.115 7.37064L20.1922 6.89342L18.9933 8.68953C18.7439 9.06897 18.5072 9.42953 18.1072 9.76675C18.11 9.91061 18.1111 10.0617 18.1111 10.1278C18.1111 13.9978 15.1906 18.1112 9.77778 18.1112Z" fill="black"/>
<path opacity="0.07" d="M9.77777 17.8334C8.02944 17.8334 6.355 17.4079 5.18444 16.6662L5.365 16.1556C5.46055 16.1668 5.535 16.1695 5.61055 16.1695L5.88888 16.1668C6.785 16.1668 7.99944 15.9618 8.93055 15.5206C7.805 15.3112 6.53833 14.7345 6.22055 13.7518L6.10277 13.389H6.485C6.74944 13.389 6.96 13.3751 7.13222 13.3529C6.18611 12.8779 5.61166 11.9895 5.61166 10.9206V10.4551L6.02111 10.6445C6.14055 10.709 6.29944 10.7829 6.47277 10.8545C5.98388 10.2934 5.61444 9.60174 5.61444 8.92063C5.61444 8.38785 5.75611 7.86674 6.02333 7.41451L6.22555 7.0734L6.47722 7.37951C7.70444 8.8734 9.70166 10.4651 11.7217 10.6018V9.77785C11.7217 8.06451 12.9706 6.72229 14.5644 6.72229C15.4139 6.72229 16.1306 6.97674 16.6483 7.46007C17.2728 7.32007 18.0844 7.02007 18.5256 6.76063L19.1544 6.39062L18.9306 7.08507C18.8244 7.41507 18.5672 7.74729 18.2656 8.04396C18.3622 8.00618 18.4589 7.96618 18.5544 7.92396L19.4306 7.53562L18.7628 8.53618C18.4944 8.94507 18.2594 9.30285 17.8278 9.63674C17.8311 9.80509 17.8333 10.0406 17.8333 10.1273C17.8333 13.8634 15.01 17.8334 9.77777 17.8334Z" fill="black"/>
<path d="M18.6667 7C18.1383 7.31056 17.1828 7.64222 16.5594 7.76222C16.0617 7.23444 15.3517 7 14.565 7C13.0539 7 12 8.28056 12 9.77778V10.8889C9.77778 10.8889 7.61111 9.19611 6.26278 7.55556C6.02556 7.95611 5.89222 8.425 5.89222 8.92056C5.89222 9.93111 6.82056 10.9567 7.55556 11.4444C7.10722 11.4306 6.25834 11.0883 5.88889 10.8889V10.9206C5.88889 12.2356 6.81167 13.1283 8.06222 13.3772C7.83389 13.44 7.55556 13.6667 6.48445 13.6667C6.83222 14.7417 8.58056 15.31 9.77778 15.3333C8.84111 16.0594 7.17111 16.4444 5.88889 16.4444C5.66722 16.4444 5.54722 16.4567 5.33334 16.4317C6.54334 17.1983 8.23334 17.5556 9.77778 17.5556C14.8094 17.5556 17.5556 13.7122 17.5556 10.1278C17.5556 10.01 17.5517 9.61556 17.5456 9.5C18.0833 9.12111 18.3011 8.72444 18.6667 8.17778C18.1767 8.395 17.5561 8.59889 17 8.66667C17.5656 8.33111 18.4628 7.63222 18.6667 7Z" fill="white"/>
<defs>
<linearGradient id="paint0_linear_40_5486" x1="2.465" y1="2.645" x2="21.2594" y2="21.0844" gradientUnits="userSpaceOnUse">
<stop stop-color="#2AA4F4"/>
<stop offset="1" stop-color="#007AD9"/>
</linearGradient>
</defs>
</svg>
