<svg width="24" height="24" viewBox="0 0 24 24" fill="none" xmlns="http://www.w3.org/2000/svg">
<path d="M21 2.25H3C2.4475 2.25 2 2.6975 2 3.25V16.25C2 16.8025 2.4475 17.25 3 17.25H7V21.249C7 21.6945 7.5385 21.9175 7.8535 21.6025L12.206 17.25H21C21.5525 17.25 22 16.8025 22 16.25V3.25C22 2.6975 21.5525 2.25 21 2.25Z" fill="url(#paint0_linear_40_5492)"/>
<path opacity="0.05" d="M7.5 11.75C8.60457 11.75 9.5 10.8546 9.5 9.75C9.5 8.6454 8.60457 7.75 7.5 7.75C6.39543 7.75 5.5 8.6454 5.5 9.75C5.5 10.8546 6.39543 11.75 7.5 11.75Z" fill="black"/>
<path opacity="0.07" d="M7.5 11.5C8.4665 11.5 9.25 10.7165 9.25 9.75C9.25 8.7835 8.4665 8 7.5 8C6.5335 8 5.75 8.7835 5.75 9.75C5.75 10.7165 6.5335 11.5 7.5 11.5Z" fill="black"/>
<path d="M7.5 11.25C8.32843 11.25 9 10.5784 9 9.75C9 8.9216 8.32843 8.25 7.5 8.25C6.67157 8.25 6 8.9216 6 9.75C6 10.5784 6.67157 11.25 7.5 11.25Z" fill="white"/>
<path opacity="0.05" d="M12 11.75C13.1046 11.75 14 10.8546 14 9.75C14 8.6454 13.1046 7.75 12 7.75C10.8954 7.75 10 8.6454 10 9.75C10 10.8546 10.8954 11.75 12 11.75Z" fill="black"/>
<path opacity="0.07" d="M12 11.5C12.9665 11.5 13.75 10.7165 13.75 9.75C13.75 8.7835 12.9665 8 12 8C11.0335 8 10.25 8.7835 10.25 9.75C10.25 10.7165 11.0335 11.5 12 11.5Z" fill="black"/>
<path d="M12 11.25C12.8284 11.25 13.5 10.5784 13.5 9.75C13.5 8.9216 12.8284 8.25 12 8.25C11.1716 8.25 10.5 8.9216 10.5 9.75C10.5 10.5784 11.1716 11.25 12 11.25Z" fill="white"/>
<path opacity="0.05" d="M16.5 11.75C17.6046 11.75 18.5 10.8546 18.5 9.75C18.5 8.6454 17.6046 7.75 16.5 7.75C15.3954 7.75 14.5 8.6454 14.5 9.75C14.5 10.8546 15.3954 11.75 16.5 11.75Z" fill="black"/>
<path opacity="0.07" d="M16.5 11.5C17.4665 11.5 18.25 10.7165 18.25 9.75C18.25 8.7835 17.4665 8 16.5 8C15.5335 8 14.75 8.7835 14.75 9.75C14.75 10.7165 15.5335 11.5 16.5 11.5Z" fill="black"/>
<path d="M16.5 11.25C17.3284 11.25 18 10.5784 18 9.75C18 8.9216 17.3284 8.25 16.5 8.25C15.6716 8.25 15 8.9216 15 9.75C15 10.5784 15.6716 11.25 16.5 11.25Z" fill="white"/>
<defs>
<linearGradient id="paint0_linear_40_5492" x1="6.343" y1="0.546" x2="17.79" y2="19.1705" gradientUnits="userSpaceOnUse">
<stop stop-color="#33BEF0"/>
<stop offset="1" stop-color="#0A85D9"/>
</linearGradient>
</defs>
</svg>
