<svg width="24" height="24" viewBox="0 0 24 24" fill="none" xmlns="http://www.w3.org/2000/svg">
<path d="M20.0952 20.0952H3.90476C3.64143 20.0952 3.42857 20.3081 3.42857 20.5714V21.5238C3.42857 21.7866 3.64143 22 3.90476 22H20.0952C20.3581 22 20.5714 21.7866 20.5714 21.5238V20.5714C20.5714 20.3081 20.3581 20.0952 20.0952 20.0952Z" fill="url(#paint0_linear_40_5515)"/>
<path d="M18.6329 2H15.8095C15.5467 2 15.3333 2.21333 15.3333 2.47619V11.1771C15.3333 13.9476 14.2324 15.3333 12.031 15.3333C9.78762 15.3333 8.66667 13.899 8.66667 11.029V2.47619C8.66667 2.21333 8.45333 2 8.19048 2H5.36714C5.08571 2 4.85714 2.22857 4.85714 2.51V11.0657C4.85714 16.1329 7.20143 18.6667 11.8914 18.6667C16.7257 18.6667 19.1429 16.0729 19.1429 10.8848V2.51C19.1429 2.22857 18.9143 2 18.6329 2Z" fill="url(#paint1_linear_40_5515)"/>
<defs>
<linearGradient id="paint0_linear_40_5515" x1="10.1952" y1="17.1166" x2="16.991" y2="31.9176" gradientUnits="userSpaceOnUse">
<stop stop-color="#FED100"/>
<stop offset="1" stop-color="#E36001"/>
</linearGradient>
<linearGradient id="paint1_linear_40_5515" x1="12" y1="1.96504" x2="12" y2="18.6065" gradientUnits="userSpaceOnUse">
<stop stop-color="#2AA4F4"/>
<stop offset="1" stop-color="#007AD9"/>
</linearGradient>
</defs>
</svg>
