<svg width="24" height="24" viewBox="0 0 24 24" fill="none" xmlns="http://www.w3.org/2000/svg">
<path d="M9.6189 11.3949C7.38173 11.0987 1.98643 10.4059 2.23024 10.6497L8.64651 17.0659C9.00508 17.425 9.6189 17.1712 9.6189 16.6636V11.3949Z" fill="url(#paint0_linear_40_5519)"/>
<path d="M14.3809 7.71306H9.61889V3.52444C9.61889 3.01681 9.00508 2.76252 8.6465 3.12158L2.23071 9.53736C1.9231 9.84499 1.9231 10.3436 2.23071 10.6507L3.82454 12.2445C3.97835 12.3984 4.17931 12.475 4.38074 12.475H14.3809C15.959 12.475 17.238 13.7541 17.238 15.3322V20.0942C17.238 20.6204 17.6642 21.0466 18.1904 21.0466H21.0476C21.5738 21.0466 22 20.6204 22 20.0942V15.3322C22 11.1241 18.589 7.71306 14.3809 7.71306Z" fill="url(#paint1_linear_40_5519)"/>
<defs>
<linearGradient id="paint0_linear_40_5519" x1="5.92028" y1="17.4026" x2="5.92028" y2="11.9011" gradientUnits="userSpaceOnUse">
<stop offset="0.365" stop-color="#199AE0"/>
<stop offset="0.699" stop-color="#1898DE"/>
<stop offset="0.819" stop-color="#1691D8"/>
<stop offset="0.905" stop-color="#1186CC"/>
<stop offset="0.974" stop-color="#0A75BC"/>
<stop offset="1" stop-color="#076CB3"/>
</linearGradient>
<linearGradient id="paint1_linear_40_5519" x1="9.40794" y1="17.7203" x2="18.6033" y2="8.52497" gradientUnits="userSpaceOnUse">
<stop stop-color="#32BDEF"/>
<stop offset="1" stop-color="#1EA2E4"/>
</linearGradient>
</defs>
</svg>
