<svg width="24" height="24" viewBox="0 0 24 24" fill="none" xmlns="http://www.w3.org/2000/svg">
<path d="M11.2448 4.57567L10.0371 3.36805C9.76952 3.10043 9.40619 2.94995 9.02714 2.94995H2.95238C2.42619 2.94995 2 3.37614 2 3.90233V7.61662L2.95238 18.188H21.0476V5.80709L12.7519 4.85471H11.9186C11.6657 4.85471 11.4233 4.75424 11.2448 4.57567Z" fill="url(#paint0_linear_40_5556)"/>
<path d="M10.3743 6.48045L11.9305 4.92426C11.9748 4.87997 12.0352 4.85474 12.0986 4.85474H14.0524L22 12.6581V18.1881C22 18.7143 21.5738 19.1405 21.0476 19.1405H2.95238C2.42619 19.1405 2 18.7143 2 18.1881V6.99759C2 6.86616 2.10667 6.7595 2.2381 6.7595H9.70095C9.95333 6.7595 10.1957 6.65902 10.3743 6.48045Z" fill="url(#paint1_linear_40_5556)"/>
<path opacity="0.05" d="M16.0857 15.7214C15.9333 16.0737 15.6 16.288 15.2143 16.288H13.9048V19.1404H10.0952V16.288H8.78572C8.4 16.288 8.06667 16.0737 7.91429 15.7214C7.75714 15.3737 7.81905 14.9833 8.07619 14.6975L10.9381 11.5166C11.2095 11.2166 11.5952 11.0452 12 11.0452C12.4048 11.0452 12.7905 11.2166 13.0619 11.5166L15.9238 14.6975C16.181 14.9833 16.2429 15.3737 16.0857 15.7214Z" fill="black"/>
<path opacity="0.07" d="M15.8667 15.6262C15.7524 15.8881 15.5048 16.05 15.2143 16.05H13.6667V19.1405H10.3333V16.05H8.78571C8.49524 16.05 8.24762 15.8881 8.13333 15.6262C8.01428 15.3643 8.0619 15.069 8.25238 14.8595L11.1143 11.6786C11.3429 11.4262 11.6619 11.2833 12 11.2833C12.3381 11.2833 12.6571 11.4262 12.8857 11.6786L15.7476 14.8595C15.9381 15.069 15.9857 15.3643 15.8667 15.6262Z" fill="black"/>
<path d="M8.78333 15.8118H10.5714V20.5737C10.5714 20.8366 10.7848 21.0499 11.0476 21.0499H12.9524C13.2152 21.0499 13.4286 20.8366 13.4286 20.5737V15.8118H15.2167C15.629 15.8118 15.8462 15.3237 15.5705 15.0171L12.7081 11.8366C12.33 11.4161 11.6705 11.4161 11.2924 11.8366L8.43 15.0171C8.15381 15.3237 8.37143 15.8118 8.78333 15.8118Z" fill="url(#paint2_linear_40_5556)"/>
<path opacity="0.05" d="M22 10.5643V13.8881C21.8381 13.8976 21.681 13.9024 21.5238 13.9024C19.2476 13.9024 17.0952 13.0071 15.4667 11.3881C13.7429 9.65474 12.8333 7.27855 12.9667 4.85474H16.2905V4.87378C16.2381 6.31664 16.7619 7.74521 17.7286 8.79283C18.7619 9.9214 20.2333 10.569 21.7619 10.569C21.8381 10.569 21.9048 10.569 21.9714 10.5643H22Z" fill="black"/>
<path opacity="0.07" d="M22 10.8024V13.65C21.8381 13.6595 21.681 13.6643 21.5238 13.6643C19.3095 13.6643 17.2191 12.7976 15.6381 11.2166C13.9571 9.53569 13.0714 7.21664 13.2048 4.85474H16.0524V4.86426C15.9952 6.36902 16.5429 7.8595 17.5524 8.95474C18.6333 10.1309 20.1667 10.8071 21.7619 10.8071H21.7762C21.8429 10.8071 21.9143 10.8071 21.9857 10.8024H22Z" fill="black"/>
<path d="M15.8048 11.05C14.2343 9.47426 13.3029 7.27093 13.4424 4.85474H15.8143C15.7571 6.4214 16.3143 7.96426 17.3762 9.11664C18.5 10.3405 20.1 11.0452 21.7619 11.0452C21.8381 11.0452 21.919 11.0452 22 11.0405V13.4124C19.5838 13.5519 17.3805 12.6205 15.8048 11.05Z" fill="url(#paint3_linear_40_5556)"/>
<path d="M15.3333 5.09283C15.3333 5.01188 15.3333 4.93093 15.3381 4.85474H17.7238C17.6619 5.94997 18.0429 7.02616 18.7762 7.83093C19.5429 8.66426 20.6286 9.14045 21.7619 9.14045C21.8429 9.14045 21.9191 9.14045 22 9.13093V11.5166C21.9238 11.5214 21.8429 11.5214 21.7619 11.5214C18.2191 11.5214 15.3333 8.63569 15.3333 5.09283Z" fill="#199AE0"/>
<path d="M17.2381 5.09283C17.2381 5.01188 17.2381 4.93569 17.2429 4.85474H19.6619C19.7571 5.45474 20.0429 5.98807 20.4571 6.39759C20.8667 6.81188 21.4 7.09759 22 7.19283V9.61188C21.9191 9.61664 21.8429 9.61664 21.7619 9.61664C19.2667 9.61664 17.2381 7.58807 17.2381 5.09283Z" fill="#199AE0"/>
<path d="M19.1529 4.85855C19.1543 4.85712 19.1552 4.85616 19.1571 4.85474H21.0476C21.5738 4.85474 22 5.27997 22 5.80616V7.68426C21.9981 7.7014 21.9981 7.7014 21.9962 7.70188C20.3643 7.84331 19.0114 6.49093 19.1529 4.85855Z" fill="url(#paint4_linear_40_5556)"/>
<defs>
<linearGradient id="paint0_linear_40_5556" x1="11.5238" y1="2.819" x2="11.5238" y2="6.52519" gradientUnits="userSpaceOnUse">
<stop stop-color="#EBA600"/>
<stop offset="1" stop-color="#C28200"/>
</linearGradient>
<linearGradient id="paint1_linear_40_5556" x1="12" y1="4.78521" x2="12" y2="19.1324" gradientUnits="userSpaceOnUse">
<stop stop-color="#FFD869"/>
<stop offset="1" stop-color="#FEC52B"/>
</linearGradient>
<linearGradient id="paint2_linear_40_5556" x1="14.8167" y1="20.9828" x2="9.79476" y2="11.9523" gradientUnits="userSpaceOnUse">
<stop stop-color="#007AD9"/>
<stop offset="1" stop-color="#2AA4F4"/>
</linearGradient>
<linearGradient id="paint3_linear_40_5556" x1="17.7143" y1="4.83676" x2="17.7143" y2="13.3952" gradientUnits="userSpaceOnUse">
<stop stop-color="#2AA4F4"/>
<stop offset="1" stop-color="#007AD9"/>
</linearGradient>
<linearGradient id="paint4_linear_40_5556" x1="20.5713" y1="4.84875" x2="20.5713" y2="7.70174" gradientUnits="userSpaceOnUse">
<stop stop-color="#2AA4F4"/>
<stop offset="1" stop-color="#007AD9"/>
</linearGradient>
</defs>
</svg>
