<svg width="24" height="24" viewBox="0 0 24 24" fill="none" xmlns="http://www.w3.org/2000/svg">
<path d="M22 12C22 17.5225 17.5225 22 12 22C6.4775 22 2 17.5225 2 12C2 6.4775 6.4775 2 12 2C17.5225 2 22 6.4775 22 12Z" fill="url(#paint0_linear_40_5569)"/>
<path d="M12 2C6.4775 2 2 6.4775 2 12H12V2Z" fill="url(#paint1_linear_40_5569)"/>
<path d="M10.5 11C10.7761 11 11 10.7761 11 10.5C11 10.2239 10.7761 10 10.5 10C10.2239 10 10 10.2239 10 10.5C10 10.7761 10.2239 11 10.5 11Z" fill="#99F0FF"/>
<path d="M8.5 11C8.77614 11 9 10.7761 9 10.5C9 10.2239 8.77614 10 8.5 10C8.22386 10 8 10.2239 8 10.5C8 10.7761 8.22386 11 8.5 11Z" fill="#99F0FF"/>
<path d="M6.5 11C6.77614 11 7 10.7761 7 10.5C7 10.2239 6.77614 10 6.5 10C6.22386 10 6 10.2239 6 10.5C6 10.7761 6.22386 11 6.5 11Z" fill="#99F0FF"/>
<path d="M4.5 11C4.77614 11 5 10.7761 5 10.5C5 10.2239 4.77614 10 4.5 10C4.22386 10 4 10.2239 4 10.5C4 10.7761 4.22386 11 4.5 11Z" fill="#99F0FF"/>
<path d="M9.5 9C9.77614 9 10 8.77614 10 8.5C10 8.22386 9.77614 8 9.5 8C9.22386 8 9 8.22386 9 8.5C9 8.77614 9.22386 9 9.5 9Z" fill="#99F0FF"/>
<path d="M7.5 9C7.77614 9 8 8.77614 8 8.5C8 8.22386 7.77614 8 7.5 8C7.22386 8 7 8.22386 7 8.5C7 8.77614 7.22386 9 7.5 9Z" fill="#99F0FF"/>
<path d="M5.5 9C5.77614 9 6 8.77614 6 8.5C6 8.22386 5.77614 8 5.5 8C5.22386 8 5 8.22386 5 8.5C5 8.77614 5.22386 9 5.5 9Z" fill="#99F0FF"/>
<path d="M3.5 9C3.77614 9 4 8.77614 4 8.5C4 8.22386 3.77614 8 3.5 8C3.22386 8 3 8.22386 3 8.5C3 8.77614 3.22386 9 3.5 9Z" fill="#99F0FF"/>
<path d="M10.5 7C10.7761 7 11 6.77614 11 6.5C11 6.22386 10.7761 6 10.5 6C10.2239 6 10 6.22386 10 6.5C10 6.77614 10.2239 7 10.5 7Z" fill="#99F0FF"/>
<path d="M8.5 7C8.77614 7 9 6.77614 9 6.5C9 6.22386 8.77614 6 8.5 6C8.22386 6 8 6.22386 8 6.5C8 6.77614 8.22386 7 8.5 7Z" fill="#99F0FF"/>
<path d="M6.5 7C6.77614 7 7 6.77614 7 6.5C7 6.22386 6.77614 6 6.5 6C6.22386 6 6 6.22386 6 6.5C6 6.77614 6.22386 7 6.5 7Z" fill="#99F0FF"/>
<path d="M10.5 3C10.7761 3 11 2.77614 11 2.5C11 2.22386 10.7761 2 10.5 2C10.2239 2 10 2.22386 10 2.5C10 2.77614 10.2239 3 10.5 3Z" fill="#99F0FF"/>
<path d="M8.5 3.00004C8.776 3.00004 9 2.77604 9 2.50004C9 2.48654 8.9935 2.47554 8.9925 2.46204C8.6895 2.55754 8.3925 2.66554 8.1025 2.78854C8.1935 2.91354 8.3335 3.00004 8.5 3.00004Z" fill="#99F0FF"/>
<path d="M4.5 7C4.77614 7 5 6.77614 5 6.5C5 6.22386 4.77614 6 4.5 6C4.22386 6 4 6.22386 4 6.5C4 6.77614 4.22386 7 4.5 7Z" fill="#99F0FF"/>
<path d="M9.5 5C9.77614 5 10 4.77614 10 4.5C10 4.22386 9.77614 4 9.5 4C9.22386 4 9 4.22386 9 4.5C9 4.77614 9.22386 5 9.5 5Z" fill="#99F0FF"/>
<path d="M7.5 5C7.77614 5 8 4.77614 8 4.5C8 4.22386 7.77614 4 7.5 4C7.22386 4 7 4.22386 7 4.5C7 4.77614 7.22386 5 7.5 5Z" fill="#99F0FF"/>
<path d="M5.5 5C5.776 5 6 4.776 6 4.5C6 4.355 5.936 4.227 5.8375 4.1355C5.5795 4.338 5.332 4.5515 5.0955 4.778C5.1855 4.909 5.329 5 5.5 5Z" fill="#99F0FF"/>
<path d="M2.5 11C2.776 11 3 10.776 3 10.5C3 10.224 2.776 10 2.5 10C2.3775 10 2.269 10.049 2.182 10.1225C2.142 10.333 2.111 10.547 2.0845 10.762C2.173 10.9015 2.322 11 2.5 11Z" fill="#99F0FF"/>
<path d="M22 12H12V10H21.799C21.9305 10.6465 22 11.315 22 12ZM6.0185 20H17.9815C18.741 19.431 19.4155 18.7585 19.986 18H4.014C4.5845 18.7585 5.259 19.431 6.0185 20ZM12 2V4H17.9815C16.312 2.7495 14.246 2 12 2ZM19.986 6H12V8H21.162C20.849 7.284 20.4505 6.6165 19.986 6ZM2.838 16H21.1625C21.4405 15.3645 21.658 14.6965 21.7995 14H2.201C2.3425 14.6965 2.56 15.3645 2.838 16Z" fill="url(#paint2_linear_40_5569)"/>
<defs>
<linearGradient id="paint0_linear_40_5569" x1="5.1885" y1="5.1885" x2="19.2885" y2="19.2885" gradientUnits="userSpaceOnUse">
<stop stop-color="#DFE9F2"/>
<stop offset="0.998" stop-color="#9EA7B0"/>
</linearGradient>
<linearGradient id="paint1_linear_40_5569" x1="4.8705" y1="4.8705" x2="18.9635" y2="18.9635" gradientUnits="userSpaceOnUse">
<stop stop-color="#0D61A9"/>
<stop offset="1" stop-color="#16528C"/>
</linearGradient>
<linearGradient id="paint2_linear_40_5569" x1="4.8505" y1="4.9205" x2="19.35" y2="19.42" gradientUnits="userSpaceOnUse">
<stop stop-color="#DB3542"/>
<stop offset="0.996" stop-color="#BA0B1A"/>
</linearGradient>
</defs>
</svg>
