<svg width="24" height="24" viewBox="0 0 24 24" fill="none" xmlns="http://www.w3.org/2000/svg">
<path d="M20.913 19.8261H3.08696C2.48652 19.8261 2 19.3396 2 18.7392V5.26091C2 4.66047 2.48652 4.17395 3.08696 4.17395H8.12913C8.78957 4.17395 9.41391 4.47395 9.82652 4.99004L10.913 6.34786H20.913C21.5135 6.34786 22 6.83439 22 7.43482V18.7392C22 19.3396 21.5135 19.8261 20.913 19.8261Z" fill="url(#paint0_linear_40_5605)"/>
<path d="M2 18.4674V18.7391C2 19.3396 2.48652 19.8261 3.08696 19.8261H20.913C21.5135 19.8261 22 19.3396 22 18.7391V18.4674H2Z" fill="url(#paint1_linear_40_5605)"/>
<path d="M20.913 6.78259H10.913L10.3752 7.14085C9.87565 7.47433 9.28826 7.65216 8.68739 7.65216H3.08696C2.48652 7.65216 2 8.13868 2 8.73911V18.3043C2 18.9048 2.48652 19.3913 3.08696 19.3913H20.913C21.5135 19.3913 22 18.9048 22 18.3043V7.86955C22 7.26911 21.5135 6.78259 20.913 6.78259Z" fill="url(#paint2_linear_40_5605)"/>
<path d="M20.913 19.3913H3.08696C2.48652 19.3913 2 18.9048 2 18.3044V9.17393C2 8.57349 2.48652 8.08697 3.08696 8.08697H8.85043C9.4513 8.08697 10.0387 7.90915 10.5387 7.57567L11.0761 7.21741H20.913C21.5135 7.21741 22 7.70393 22 8.30436V18.3044C22 18.9048 21.5135 19.3913 20.913 19.3913Z" fill="url(#paint3_radial_40_5605)"/>
<path d="M12 8.95654C9.5987 8.95654 7.65217 10.9031 7.65217 13.3044C7.65217 15.7057 9.5987 17.6522 12 17.6522C14.4013 17.6522 16.3478 15.7057 16.3478 13.3044C16.3478 10.9031 14.4013 8.95654 12 8.95654ZM12 10.0435C12.9004 10.0435 13.6304 10.7735 13.6304 11.6739C13.6304 12.5744 12.9004 13.3044 12 13.3044C11.0996 13.3044 10.3696 12.5744 10.3696 11.6739C10.3696 10.7735 11.0996 10.0435 12 10.0435ZM12 16.5648C9.82609 16.5648 9.17391 15.2574 9.17391 14.7174C9.17391 14.177 9.61174 13.7392 10.1522 13.7392C10.6926 13.7392 13.3074 13.7392 13.8478 13.7392C14.3883 13.7392 14.8261 14.177 14.8261 14.7174C14.8261 15.2578 14.1739 16.5648 12 16.5648Z" fill="url(#paint4_linear_40_5605)"/>
<defs>
<linearGradient id="paint0_linear_40_5605" x1="-1.48609" y1="6.04699" x2="18.69" y2="16.5796" gradientUnits="userSpaceOnUse">
<stop stop-color="#FAC017"/>
<stop offset="0.909" stop-color="#E1AB2D"/>
</linearGradient>
<linearGradient id="paint1_linear_40_5605" x1="8.89783" y1="19.0813" x2="21.1152" y2="19.3009" gradientUnits="userSpaceOnUse">
<stop stop-color="#E3A917"/>
<stop offset="0.464" stop-color="#D79C1E"/>
</linearGradient>
<linearGradient id="paint2_linear_40_5605" x1="-0.556087" y1="7.54955" x2="17.2035" y2="15.3817" gradientUnits="userSpaceOnUse">
<stop offset="0.34" stop-color="#FFEFB2"/>
<stop offset="0.485" stop-color="#FFEDAD"/>
<stop offset="0.652" stop-color="#FFE99F"/>
<stop offset="0.828" stop-color="#FEE289"/>
<stop offset="1" stop-color="#FED86B"/>
</linearGradient>
<radialGradient id="paint3_radial_40_5605" cx="0" cy="0" r="1" gradientUnits="userSpaceOnUse" gradientTransform="translate(18.0157 23.4422) scale(23.4239)">
<stop offset="0.199" stop-color="#FEC832"/>
<stop offset="0.601" stop-color="#FCD667"/>
<stop offset="0.68" stop-color="#FDDA75"/>
<stop offset="0.886" stop-color="#FEE496"/>
<stop offset="1" stop-color="#FFE8A2"/>
</radialGradient>
<linearGradient id="paint4_linear_40_5605" x1="9.82565" y1="9.53828" x2="14.1743" y2="17.0705" gradientUnits="userSpaceOnUse">
<stop stop-color="#C78902"/>
<stop offset="1" stop-color="#986700"/>
</linearGradient>
</defs>
</svg>
