<svg width="24" height="24" viewBox="0 0 24 24" fill="none" xmlns="http://www.w3.org/2000/svg">
<path d="M18 13.5C19.3807 13.5 20.5 12.3807 20.5 11C20.5 9.61929 19.3807 8.5 18 8.5C16.6193 8.5 15.5 9.61929 15.5 11C15.5 12.3807 16.6193 13.5 18 13.5Z" fill="url(#paint0_linear_40_5612)"/>
<path d="M6 13.5C7.38071 13.5 8.5 12.3807 8.5 11C8.5 9.61929 7.38071 8.5 6 8.5C4.61929 8.5 3.5 9.61929 3.5 11C3.5 12.3807 4.61929 13.5 6 13.5Z" fill="url(#paint1_linear_40_5612)"/>
<path d="M6 14.5C3.791 14.5 2 16.291 2 18.5V20.9615C2 21.259 2.241 21.5 2.5385 21.5H9.4615C9.759 21.5 10 21.259 10 20.9615V18.5C10 16.291 8.209 14.5 6 14.5Z" fill="url(#paint2_linear_40_5612)"/>
<path d="M18 14.5C15.791 14.5 14 16.291 14 18.5V20.9615C14 21.259 14.241 21.5 14.5385 21.5H21.4615C21.759 21.5 22 21.259 22 20.9615V18.5C22 16.291 20.209 14.5 18 14.5Z" fill="url(#paint3_linear_40_5612)"/>
<path d="M12 10C13.3807 10 14.5 8.88071 14.5 7.5C14.5 6.11929 13.3807 5 12 5C10.6193 5 9.5 6.11929 9.5 7.5C9.5 8.88071 10.6193 10 12 10Z" fill="url(#paint4_linear_40_5612)"/>
<path d="M18 7.5C19.3807 7.5 20.5 6.38071 20.5 5C20.5 3.61929 19.3807 2.5 18 2.5C16.6193 2.5 15.5 3.61929 15.5 5C15.5 6.38071 16.6193 7.5 18 7.5Z" fill="url(#paint5_linear_40_5612)"/>
<path d="M6 7.5C7.38071 7.5 8.5 6.38071 8.5 5C8.5 3.61929 7.38071 2.5 6 2.5C4.61929 2.5 3.5 3.61929 3.5 5C3.5 6.38071 4.61929 7.5 6 7.5Z" fill="url(#paint6_linear_40_5612)"/>
<defs>
<linearGradient id="paint0_linear_40_5612" x1="16.3135" y1="9.3135" x2="20.034" y2="13.0335" gradientUnits="userSpaceOnUse">
<stop stop-color="#32BDEF"/>
<stop offset="1" stop-color="#1EA2E4"/>
</linearGradient>
<linearGradient id="paint1_linear_40_5612" x1="4.3135" y1="9.3135" x2="8.0335" y2="13.0335" gradientUnits="userSpaceOnUse">
<stop stop-color="#32BDEF"/>
<stop offset="1" stop-color="#1EA2E4"/>
</linearGradient>
<linearGradient id="paint2_linear_40_5612" x1="3.853" y1="15.066" x2="7.2295" y2="21.753" gradientUnits="userSpaceOnUse">
<stop stop-color="#32BDEF"/>
<stop offset="1" stop-color="#1EA2E4"/>
</linearGradient>
<linearGradient id="paint3_linear_40_5612" x1="15.853" y1="15.066" x2="19.2295" y2="21.753" gradientUnits="userSpaceOnUse">
<stop stop-color="#32BDEF"/>
<stop offset="1" stop-color="#1EA2E4"/>
</linearGradient>
<linearGradient id="paint4_linear_40_5612" x1="10.304" y1="5.804" x2="13.792" y2="9.292" gradientUnits="userSpaceOnUse">
<stop stop-color="#199AE0"/>
<stop offset="1" stop-color="#0782D8"/>
</linearGradient>
<linearGradient id="paint5_linear_40_5612" x1="16.304" y1="3.304" x2="19.792" y2="6.792" gradientUnits="userSpaceOnUse">
<stop stop-color="#0D61A9"/>
<stop offset="1" stop-color="#16528C"/>
</linearGradient>
<linearGradient id="paint6_linear_40_5612" x1="4.304" y1="3.304" x2="7.792" y2="6.792" gradientUnits="userSpaceOnUse">
<stop stop-color="#0D61A9"/>
<stop offset="1" stop-color="#16528C"/>
</linearGradient>
</defs>
</svg>
