<svg width="24" height="24" viewBox="0 0 24 24" fill="none" xmlns="http://www.w3.org/2000/svg">
<path d="M2 19V6.5H22V19C22 19.55 21.55 20 21 20H3C2.45 20 2 19.55 2 19Z" fill="url(#paint0_linear_40_5643)"/>
<path d="M22 5V6.5H2V5C2 4.45 2.45 4 3 4H21C21.55 4 22 4.45 22 5Z" fill="url(#paint1_linear_40_5643)"/>
<path opacity="0.05" d="M15.05 9.70005L14.9 9.55005H12.9L13.55 10.3501C13.75 10.5501 13.9 10.8001 14 11.0501H12.55L12.05 12.0001L11.55 11.0501H9.99999C10.15 10.8001 10.3 10.6001 10.45 10.3501L11.1 9.55005H9.09999L8.94999 9.70005C8.09999 10.7001 7.64999 11.9001 7.64999 13.3001C7.64999 14.7001 8.09999 15.9001 8.94999 16.8501L9.09999 17.0001H11.1L10.4 16.2001C10.3 16.1001 10.2 15.9501 10.1 15.8001H11.4L11.95 14.8501L12.5 15.8001H13.85C13.75 15.9501 13.65 16.0501 13.55 16.1501L12.85 16.9501H14.85L15 16.8001C15.85 15.8501 16.3 14.6501 16.3 13.2501C16.35 11.9001 15.9 10.7001 15.05 9.70005ZM9.74999 15.0001C9.54999 14.4501 9.39999 13.9001 9.39999 13.2501C9.39999 12.6501 9.49999 12.1001 9.69999 11.6001L10.85 13.4001L9.74999 15.0001ZM13.15 13.4001L14.3 11.6501C14.5 12.1501 14.55 12.7001 14.55 13.2501C14.55 13.9001 14.45 14.5001 14.2 15.0501L13.15 13.4001Z" fill="black"/>
<path opacity="0.07" d="M9.2 16.7L9.15 16.6C8.35 15.7 7.95 14.55 7.95 13.25C7.95 11.9 8.35 10.75 9.15 9.85L9.2 9.75H10.55L10.2 10.15C9.5 11.05 9.1 12.05 9.1 13.25C9.1 14.4 9.45 15.45 10.15 16.3L10.5 16.7H9.2Z" fill="black"/>
<path d="M10.05 16.45H9.35C8.6 15.6 8.2 14.5 8.2 13.25C8.2 12 8.6 10.9 9.35 10H10.05C9.3 10.95 8.9 12 8.9 13.25C8.9 14.5 9.3 15.55 10.05 16.45Z" fill="white"/>
<path opacity="0.07" d="M12.65 15.55L12 14.35L11.3 15.55H9.7L11.15 13.45L9.8 11.3H11.4L12.05 12.5L12.75 11.3H14.25L12.85 13.45L14.25 15.55H12.65Z" fill="black"/>
<path d="M13.8 11.55L12.55 13.45L13.8 15.3H12.8L12.15 14.15C12.1 14.1 12.05 14 12 13.9C12 13.9 11.95 14 11.85 14.15L11.2 15.3H10.2L11.45 13.45L10.25 11.55H11.25L11.9 12.75C11.95 12.85 12 12.95 12.05 13.05L12.9 11.55H13.8Z" fill="white"/>
<path opacity="0.07" d="M13.4 16.7L13.75 16.3C14.45 15.45 14.85 14.4 14.85 13.25C14.85 12.1 14.5 11.05 13.75 10.15L13.4 9.75H14.75L14.8 9.85C15.6 10.8 16 11.95 16 13.25C16 14.55 15.6 15.7 14.75 16.6L14.7 16.7H13.4Z" fill="black"/>
<path d="M14.65 16.45H13.95C14.7 15.55 15.1 14.45 15.1 13.25C15.1 12 14.7 10.95 13.95 10H14.7C15.45 10.9 15.85 12 15.85 13.25C15.85 14.55 15.45 15.6 14.65 16.45Z" fill="white"/>
<defs>
<linearGradient id="paint0_linear_40_5643" x1="6.5345" y1="4.9995" x2="15.963" y2="18.6375" gradientUnits="userSpaceOnUse">
<stop stop-color="#7DD8F3"/>
<stop offset="1" stop-color="#45B0D0"/>
</linearGradient>
<linearGradient id="paint1_linear_40_5643" x1="2.404" y1="3.39" x2="21.375" y2="7.2475" gradientUnits="userSpaceOnUse">
<stop stop-color="#0077D2"/>
<stop offset="1" stop-color="#0B59A2"/>
</linearGradient>
</defs>
</svg>
