<svg width="24" height="24" viewBox="0 0 24 24" fill="none" xmlns="http://www.w3.org/2000/svg">
<path d="M5.05392 14.3913C5.05174 14.317 5.05044 14.2422 5.05044 14.167C5.05044 10.3287 8.16174 7.21741 12 7.21741C15.8383 7.21741 18.9496 10.3287 18.9496 14.167C18.9496 14.2422 18.9483 14.3165 18.9461 14.3913" stroke="#ABB4BE" stroke-miterlimit="10" stroke-linecap="round" stroke-linejoin="round"/>
<path d="M3.52174 7.43481H20.0435" stroke="#ABB4BE" stroke-miterlimit="10" stroke-linecap="round" stroke-linejoin="round"/>
<path d="M13.3043 9.60869H10.6957C10.2174 9.60869 9.82609 9.21739 9.82609 8.73913V6.13043C9.82609 5.65217 10.2174 5.26086 10.6957 5.26086H13.3043C13.7826 5.26086 14.1739 5.65217 14.1739 6.13043V8.73913C14.1739 9.21739 13.7826 9.60869 13.3043 9.60869Z" fill="url(#paint0_linear_40_5654)"/>
<path d="M20.2609 18.7392H17.6522C17.1739 18.7392 16.7826 18.3479 16.7826 17.8696V15.2609C16.7826 14.7827 17.1739 14.3914 17.6522 14.3914H20.2609C20.7391 14.3914 21.1304 14.7827 21.1304 15.2609V17.8696C21.1304 18.3479 20.7391 18.7392 20.2609 18.7392Z" fill="url(#paint1_linear_40_5654)"/>
<path d="M6.34783 18.7392H3.73913C3.26087 18.7392 2.86957 18.3479 2.86957 17.8696V15.2609C2.86957 14.7827 3.26087 14.3914 3.73913 14.3914H6.34783C6.82609 14.3914 7.21739 14.7827 7.21739 15.2609V17.8696C7.21739 18.3479 6.82609 18.7392 6.34783 18.7392Z" fill="url(#paint2_linear_40_5654)"/>
<path d="M20.6957 8.73907C21.416 8.73907 22 8.15509 22 7.43472C22 6.71435 21.416 6.13037 20.6957 6.13037C19.9753 6.13037 19.3913 6.71435 19.3913 7.43472C19.3913 8.15509 19.9753 8.73907 20.6957 8.73907Z" fill="url(#paint3_linear_40_5654)"/>
<path d="M3.30435 8.73907C4.02472 8.73907 4.6087 8.15509 4.6087 7.43472C4.6087 6.71435 4.02472 6.13037 3.30435 6.13037C2.58397 6.13037 2 6.71435 2 7.43472C2 8.15509 2.58397 8.73907 3.30435 8.73907Z" fill="url(#paint4_linear_40_5654)"/>
<defs>
<linearGradient id="paint0_linear_40_5654" x1="11.3848" y1="5.13956" x2="12.5426" y2="9.46043" gradientUnits="userSpaceOnUse">
<stop stop-color="#2AA4F4"/>
<stop offset="1" stop-color="#007AD9"/>
</linearGradient>
<linearGradient id="paint1_linear_40_5654" x1="18.3417" y1="14.2701" x2="19.4991" y2="18.5909" gradientUnits="userSpaceOnUse">
<stop stop-color="#2AA4F4"/>
<stop offset="1" stop-color="#007AD9"/>
</linearGradient>
<linearGradient id="paint2_linear_40_5654" x1="4.42826" y1="14.2701" x2="5.58609" y2="18.5909" gradientUnits="userSpaceOnUse">
<stop stop-color="#2AA4F4"/>
<stop offset="1" stop-color="#007AD9"/>
</linearGradient>
<linearGradient id="paint3_linear_40_5654" x1="19.8309" y1="6.56994" x2="21.6574" y2="8.39646" gradientUnits="userSpaceOnUse">
<stop stop-color="#33BEF0"/>
<stop offset="1" stop-color="#0A85D9"/>
</linearGradient>
<linearGradient id="paint4_linear_40_5654" x1="2.43957" y1="6.56994" x2="4.26609" y2="8.39646" gradientUnits="userSpaceOnUse">
<stop stop-color="#33BEF0"/>
<stop offset="1" stop-color="#0A85D9"/>
</linearGradient>
</defs>
</svg>
