<svg width="24" height="24" viewBox="0 0 24 24" fill="none" xmlns="http://www.w3.org/2000/svg">
<path d="M21.3563 7.04126L16.5454 9.72717V11.9999H22V7.45444L21.3563 7.04126Z" fill="url(#paint0_linear_74_3)"/>
<path d="M15.6364 18.3636H2.90909C2.40682 18.3636 2 17.9568 2 17.4545V6.54544C2 6.04317 2.40682 5.63635 2.90909 5.63635H15.6364C16.1386 5.63635 16.5455 6.04317 16.5455 6.54544V17.4545C16.5455 17.9568 16.1386 18.3636 15.6364 18.3636Z" fill="url(#paint1_linear_74_3)"/>
<path d="M21.5455 7.90909C21.7965 7.90909 22 7.70558 22 7.45455C22 7.20351 21.7965 7 21.5455 7C21.2945 7 21.0909 7.20351 21.0909 7.45455C21.0909 7.70558 21.2945 7.90909 21.5455 7.90909Z" fill="url(#paint2_linear_74_3)"/>
<path d="M21.3563 16.9586L16.5454 14.2727V12H22V16.5455L21.3563 16.9586Z" fill="url(#paint3_linear_74_3)"/>
<path d="M21.5455 17C21.7965 17 22 16.7965 22 16.5455C22 16.2945 21.7965 16.0909 21.5455 16.0909C21.2945 16.0909 21.0909 16.2945 21.0909 16.5455C21.0909 16.7965 21.2945 17 21.5455 17Z" fill="url(#paint4_linear_74_3)"/>
<defs>
<linearGradient id="paint0_linear_74_3" x1="17.8746" y1="7.17129" x2="18.3755" y2="12.3269" gradientUnits="userSpaceOnUse">
<stop stop-color="white"/>
<stop offset="1" stop-color="#FCFCFC"/>
</linearGradient>
<linearGradient id="paint1_linear_74_3" x1="5.54455" y1="5.97009" x2="6.78271" y2="19.2119" gradientUnits="userSpaceOnUse">
<stop stop-color="#C3CDD9"/>
<stop offset="1" stop-color="#9FA7B0"/>
</linearGradient>
<linearGradient id="paint2_linear_74_3" x1="21.3124" y1="7.02384" x2="21.4133" y2="7.96718" gradientUnits="userSpaceOnUse">
<stop stop-color="white"/>
<stop offset="1" stop-color="#FCFCFC"/>
</linearGradient>
<linearGradient id="paint3_linear_74_3" x1="17.8746" y1="12.13" x2="18.3755" y2="17.2856" gradientUnits="userSpaceOnUse">
<stop stop-color="white"/>
<stop offset="1" stop-color="#FCFCFC"/>
</linearGradient>
<linearGradient id="paint4_linear_74_3" x1="21.3124" y1="16.1148" x2="21.4133" y2="17.0581" gradientUnits="userSpaceOnUse">
<stop stop-color="white"/>
<stop offset="1" stop-color="#FCFCFC"/>
</linearGradient>
</defs>
</svg>
