<svg width="24" height="24" viewBox="0 0 24 24" fill="none" xmlns="http://www.w3.org/2000/svg">
<path d="M9.77778 10.8888H3.11111C2.5 10.8888 2 10.3888 2 9.77772V4.22217H10.8889V9.77772C10.8889 10.3888 10.3889 10.8888 9.77778 10.8888Z" fill="url(#paint0_linear_40_5704)"/>
<path d="M10.8889 4.22222H2V3.11111C2 2.49722 2.49722 2 3.11111 2H9.77778C10.3917 2 10.8889 2.49722 10.8889 3.11111V4.22222Z" fill="url(#paint1_linear_40_5704)"/>
<path d="M20.8889 10.8888H14.2222C13.6111 10.8888 13.1111 10.3888 13.1111 9.77772V4.22217H22V9.77772C22 10.3888 21.5 10.8888 20.8889 10.8888Z" fill="url(#paint2_linear_40_5704)"/>
<path d="M22 4.22222H13.1111V3.11111C13.1111 2.49722 13.6083 2 14.2222 2H20.8889C21.5028 2 22 2.49722 22 3.11111V4.22222Z" fill="url(#paint3_linear_40_5704)"/>
<path d="M9.77778 22H3.11111C2.5 22 2 21.5 2 20.8889V15.3334H10.8889V20.8889C10.8889 21.5 10.3889 22 9.77778 22Z" fill="url(#paint4_linear_40_5704)"/>
<path d="M10.8889 15.3333H2V14.2222C2 13.6083 2.49722 13.1111 3.11111 13.1111H9.77778C10.3917 13.1111 10.8889 13.6083 10.8889 14.2222V15.3333Z" fill="url(#paint5_linear_40_5704)"/>
<path d="M20.8889 22H14.2222C13.6111 22 13.1111 21.5 13.1111 20.8889V15.3334H22V20.8889C22 21.5 21.5 22 20.8889 22Z" fill="url(#paint6_linear_40_5704)"/>
<path d="M22 15.3333H13.1111V14.2222C13.1111 13.6083 13.6083 13.1111 14.2222 13.1111H20.8889C21.5028 13.1111 22 13.6083 22 14.2222V15.3333Z" fill="url(#paint7_linear_40_5704)"/>
<defs>
<linearGradient id="paint0_linear_40_5704" x1="2.67167" y1="3.45606" x2="9.27" y2="10.0544" gradientUnits="userSpaceOnUse">
<stop stop-color="#7DD8F3"/>
<stop offset="1" stop-color="#45B0D0"/>
</linearGradient>
<linearGradient id="paint1_linear_40_5704" x1="2" y1="3.11111" x2="10.8889" y2="3.11111" gradientUnits="userSpaceOnUse">
<stop stop-color="#0077D2"/>
<stop offset="1" stop-color="#0B59A2"/>
</linearGradient>
<linearGradient id="paint2_linear_40_5704" x1="13.7828" y1="3.45606" x2="20.3811" y2="10.0544" gradientUnits="userSpaceOnUse">
<stop stop-color="#7DD8F3"/>
<stop offset="1" stop-color="#45B0D0"/>
</linearGradient>
<linearGradient id="paint3_linear_40_5704" x1="13.1111" y1="3.11111" x2="22" y2="3.11111" gradientUnits="userSpaceOnUse">
<stop stop-color="#0077D2"/>
<stop offset="1" stop-color="#0B59A2"/>
</linearGradient>
<linearGradient id="paint4_linear_40_5704" x1="2.67167" y1="14.5673" x2="9.27" y2="21.1656" gradientUnits="userSpaceOnUse">
<stop stop-color="#7DD8F3"/>
<stop offset="1" stop-color="#45B0D0"/>
</linearGradient>
<linearGradient id="paint5_linear_40_5704" x1="2" y1="14.2222" x2="10.8889" y2="14.2222" gradientUnits="userSpaceOnUse">
<stop stop-color="#0077D2"/>
<stop offset="1" stop-color="#0B59A2"/>
</linearGradient>
<linearGradient id="paint6_linear_40_5704" x1="13.7828" y1="14.5673" x2="20.3811" y2="21.1656" gradientUnits="userSpaceOnUse">
<stop stop-color="#7DD8F3"/>
<stop offset="1" stop-color="#45B0D0"/>
</linearGradient>
<linearGradient id="paint7_linear_40_5704" x1="13.1111" y1="14.2222" x2="22" y2="14.2222" gradientUnits="userSpaceOnUse">
<stop stop-color="#0077D2"/>
<stop offset="1" stop-color="#0B59A2"/>
</linearGradient>
</defs>
</svg>
