<svg width="24" height="24" viewBox="0 0 24 24" fill="none" xmlns="http://www.w3.org/2000/svg">
<path d="M8.66667 3.90479L2 12V19.1429C2 19.6191 2.47619 20.0953 2.95238 20.0953H16.7619H17.4762H21.0476C21.5738 20.0953 22 19.6191 22 19.1429V12L15.3333 3.90479H8.66667Z" fill="url(#paint0_linear_40_5714)"/>
<path opacity="0.05" d="M2 11.5238H8.19048V3.90479H9.14286V11.5238H14.8571V3.90479H15.8095V11.5238H22V12.4762H15.8095V20.0953H14.8571V12.4762H9.14286V20.0953H8.19048V12.4762H2V11.5238Z" fill="black"/>
<path opacity="0.05" d="M8.90476 3.90479V11.7619H15.0952V3.90479H15.5714V11.7619H22V12.2381H15.5714V20.0953H15.0952V12.2381H8.90476V20.0953H8.42857V12.2381H2V11.7619H8.42857V3.90479H8.90476Z" fill="black"/>
<path d="M8.66667 12V3.90479H2.95238C2.42619 3.90479 2 4.33098 2 4.85717V12H8.66667Z" fill="url(#paint1_linear_40_5714)"/>
<path d="M15.3333 12H8.66667V20.0952H15.3333V12Z" fill="url(#paint2_linear_40_5714)"/>
<path d="M22 12V4.85717C22 4.33098 21.5738 3.90479 21.0476 3.90479H15.3333V12H22Z" fill="url(#paint3_linear_40_5714)"/>
<defs>
<linearGradient id="paint0_linear_40_5714" x1="10.9576" y1="21.5181" x2="14.1019" y2="3.68764" gradientUnits="userSpaceOnUse">
<stop stop-color="#007AD9"/>
<stop offset="1" stop-color="#2AA4F4"/>
</linearGradient>
<linearGradient id="paint1_linear_40_5714" x1="4.56667" y1="3.60526" x2="6.12619" y2="12.4481" gradientUnits="userSpaceOnUse">
<stop stop-color="#A3FFFF"/>
<stop offset="0.223" stop-color="#9DFBFF"/>
<stop offset="0.53" stop-color="#8BF1FF"/>
<stop offset="0.885" stop-color="#6EE0FF"/>
<stop offset="1" stop-color="#63DAFF"/>
</linearGradient>
<linearGradient id="paint2_linear_40_5714" x1="11.2071" y1="11.5519" x2="12.7929" y2="20.5433" gradientUnits="userSpaceOnUse">
<stop stop-color="#A3FFFF"/>
<stop offset="0.223" stop-color="#9DFBFF"/>
<stop offset="0.53" stop-color="#8BF1FF"/>
<stop offset="0.885" stop-color="#6EE0FF"/>
<stop offset="1" stop-color="#63DAFF"/>
</linearGradient>
<linearGradient id="paint3_linear_40_5714" x1="17.7995" y1="3.47002" x2="19.3852" y2="12.461" gradientUnits="userSpaceOnUse">
<stop stop-color="#A3FFFF"/>
<stop offset="0.223" stop-color="#9DFBFF"/>
<stop offset="0.53" stop-color="#8BF1FF"/>
<stop offset="0.885" stop-color="#6EE0FF"/>
<stop offset="1" stop-color="#63DAFF"/>
</linearGradient>
</defs>
</svg>
