<svg width="24" height="24" viewBox="0 0 24 24" fill="none" xmlns="http://www.w3.org/2000/svg">
<path d="M21.8257 18.656L12.8381 4.34216C12.8381 4.34216 12.5962 3.84216 12 3.84216C11.4038 3.84216 11.1619 4.34216 11.1619 4.34216L2.17429 18.656C2.17429 18.656 2 18.8898 2 19.2055C2 19.7317 2.42619 20.1579 2.95238 20.1579H21.0476C21.5738 20.1579 22 19.7317 22 19.2055C22 18.8898 21.8257 18.656 21.8257 18.656Z" fill="url(#paint0_linear_40_6058)"/>
<path d="M12.0067 18.2531C11.6581 18.2531 11.3705 18.1473 11.1438 17.9359C10.9172 17.7245 10.8038 17.4688 10.8038 17.1678C10.8038 16.854 10.9181 16.5969 11.1472 16.3964C11.3757 16.1959 11.6624 16.0959 12.0067 16.0959C12.3552 16.0959 12.641 16.1973 12.8629 16.3997C13.0852 16.6026 13.1962 16.8583 13.1962 17.1678C13.1962 17.4816 13.0862 17.7407 12.8662 17.9454C12.6462 18.1502 12.3595 18.2531 12.0067 18.2531ZM13.0648 9.07258L12.8357 14.8702C12.8286 15.0473 12.6829 15.1873 12.5057 15.1873H11.4681C11.2905 15.1873 11.1448 15.0469 11.1381 14.8692L10.9214 9.0721C10.9143 8.88496 11.0643 8.72925 11.2514 8.72925H12.7352C12.9224 8.72925 13.0724 8.88496 13.0648 9.07258Z" fill="url(#paint1_radial_40_6058)"/>
<defs>
<linearGradient id="paint0_linear_40_6058" x1="3.98476" y1="8.32883" x2="14.5624" y2="19.4531" gradientUnits="userSpaceOnUse">
<stop stop-color="#FFDA1C"/>
<stop offset="1" stop-color="#FEB705"/>
</linearGradient>
<radialGradient id="paint1_radial_40_6058" cx="0" cy="0" r="1" gradientUnits="userSpaceOnUse" gradientTransform="translate(9.23287 8.62496) scale(10.649 10.649)">
<stop stop-color="#4B4B4B"/>
<stop offset="0.531" stop-color="#393939"/>
<stop offset="1" stop-color="#252525"/>
</radialGradient>
</defs>
</svg>
