<svg width="24" height="24" viewBox="0 0 24 24" fill="none" xmlns="http://www.w3.org/2000/svg">
<path d="M2 16.5454V6.09082H20.1818V16.5454C20.1818 17.0454 19.7727 17.4545 19.2727 17.4545H2.90909C2.40909 17.4545 2 17.0454 2 16.5454Z" fill="url(#paint0_linear_40_5748)"/>
<path d="M20.1818 3.81815V6.09088H2V3.81815C2 3.31815 2.40909 2.90906 2.90909 2.90906H19.2727C19.7727 2.90906 20.1818 3.31815 20.1818 3.81815Z" fill="url(#paint1_linear_40_5748)"/>
<path d="M7.68182 5.18175H19.0455C19.1709 5.18175 19.2727 5.07993 19.2727 4.95448V4.04539C19.2727 3.91993 19.1709 3.81812 19.0455 3.81812H7.68182C7.55636 3.81812 7.45454 3.91993 7.45454 4.04539V4.95448C7.45454 5.07993 7.55636 5.18175 7.68182 5.18175Z" fill="url(#paint2_linear_40_5748)"/>
<path d="M3.59091 5.18175C3.96746 5.18175 4.27272 4.87649 4.27272 4.49993C4.27272 4.12338 3.96746 3.81812 3.59091 3.81812C3.21435 3.81812 2.90909 4.12338 2.90909 4.49993C2.90909 4.87649 3.21435 5.18175 3.59091 5.18175Z" fill="url(#paint3_linear_40_5748)"/>
<path d="M5.86363 5.18175C6.24019 5.18175 6.54545 4.87649 6.54545 4.49993C6.54545 4.12338 6.24019 3.81812 5.86363 3.81812C5.48708 3.81812 5.18182 4.12338 5.18182 4.49993C5.18182 4.87649 5.48708 5.18175 5.86363 5.18175Z" fill="url(#paint4_linear_40_5748)"/>
<path opacity="0.05" d="M20.1818 12.6227V16.5454C20.1818 17.0454 19.7727 17.4545 19.2727 17.4545H13.3045C13.1909 17.2 13.1 16.9318 13.0318 16.6545C12.95 16.3136 12.9091 15.9727 12.9091 15.6363V13.5909C12.9091 13.2136 13.2136 12.909 13.5909 12.909C14.8727 12.909 15.4182 12.5363 15.9455 12.1772C16.4 11.8681 16.8727 11.5454 17.6818 11.5454C18.4909 11.5454 18.9636 11.8681 19.4182 12.1772C19.65 12.3318 19.8818 12.4954 20.1818 12.6227Z" fill="black"/>
<path opacity="0.07" d="M20.1818 12.8682V16.5454C20.1818 17.0454 19.7727 17.4545 19.2727 17.4545H13.5591C13.4318 17.1818 13.3273 16.8954 13.2545 16.6C13.1773 16.2772 13.1364 15.9545 13.1364 15.6363V13.5909C13.1364 13.3409 13.3409 13.1363 13.5909 13.1363C14.9409 13.1363 15.5409 12.7273 16.0727 12.3682C16.5182 12.0591 16.9455 11.7727 17.6818 11.7727C18.4182 11.7727 18.8455 12.0591 19.2909 12.3682C19.5455 12.5363 19.8182 12.7273 20.1818 12.8682Z" fill="black"/>
<path d="M21.7727 13.3636C19.245 13.3636 19.2095 12 17.6818 12C16.1541 12 16.1186 13.3636 13.5909 13.3636C13.4655 13.3636 13.3636 13.4655 13.3636 13.5909C13.3636 13.5909 13.3636 14.9218 13.3636 15.6364C13.3636 15.9495 13.4041 16.2527 13.4755 16.5455C14.1427 19.2745 17.5845 21.0695 17.5845 21.0695C17.5845 21.0695 17.6327 21.0909 17.6818 21.0909C17.7282 21.0909 17.7791 21.0695 17.7791 21.0695C17.7791 21.0695 21.2209 19.2741 21.8882 16.5455C21.9595 16.2527 22 15.9495 22 15.6364C22 14.9218 22 13.5909 22 13.5909C22 13.4655 21.8982 13.3636 21.7727 13.3636Z" fill="url(#paint5_linear_40_5748)"/>
<defs>
<linearGradient id="paint0_linear_40_5748" x1="7.73246" y1="6.26528" x2="11.7655" y2="18.7065" gradientUnits="userSpaceOnUse">
<stop stop-color="#7DD8F3"/>
<stop offset="1" stop-color="#45B0D0"/>
</linearGradient>
<linearGradient id="paint1_linear_40_5748" x1="2.27909" y1="2.79133" x2="19.6982" y2="6.33315" gradientUnits="userSpaceOnUse">
<stop stop-color="#0077D2"/>
<stop offset="1" stop-color="#0B59A2"/>
</linearGradient>
<linearGradient id="paint2_linear_40_5748" x1="7.45454" y1="4.49993" x2="19.2727" y2="4.49993" gradientUnits="userSpaceOnUse">
<stop stop-color="#7DD8F3"/>
<stop offset="1" stop-color="#45B0D0"/>
</linearGradient>
<linearGradient id="paint3_linear_40_5748" x1="3.25045" y1="4.00721" x2="3.83272" y2="4.84948" gradientUnits="userSpaceOnUse">
<stop stop-color="#75DAFF"/>
<stop offset="1" stop-color="#49BEF1"/>
</linearGradient>
<linearGradient id="paint4_linear_40_5748" x1="5.52318" y1="4.00721" x2="6.10545" y2="4.84948" gradientUnits="userSpaceOnUse">
<stop stop-color="#75DAFF"/>
<stop offset="1" stop-color="#49BEF1"/>
</linearGradient>
<linearGradient id="paint5_linear_40_5748" x1="15.9959" y1="11.9877" x2="20.4682" y2="20.2141" gradientUnits="userSpaceOnUse">
<stop stop-color="#21AD64"/>
<stop offset="1" stop-color="#088242"/>
</linearGradient>
</defs>
</svg>
