<svg width="24" height="24" viewBox="0 0 24 24" fill="none" xmlns="http://www.w3.org/2000/svg">
<path d="M2 16.5454V6.09082H20.1818V16.5454C20.1818 17.0454 19.7727 17.4545 19.2727 17.4545H2.90909C2.40909 17.4545 2 17.0454 2 16.5454Z" fill="url(#paint0_linear_40_5781)"/>
<path d="M20.1818 3.81815V6.09088H2V3.81815C2 3.31815 2.40909 2.90906 2.90909 2.90906H19.2727C19.7727 2.90906 20.1818 3.31815 20.1818 3.81815Z" fill="url(#paint1_linear_40_5781)"/>
<path d="M3.59091 5.18175C3.96746 5.18175 4.27273 4.87649 4.27273 4.49993C4.27273 4.12338 3.96746 3.81812 3.59091 3.81812C3.21435 3.81812 2.90909 4.12338 2.90909 4.49993C2.90909 4.87649 3.21435 5.18175 3.59091 5.18175Z" fill="url(#paint2_linear_40_5781)"/>
<path opacity="0.05" d="M20.1082 13.5909H20.1055C19.9964 13.4395 19.8791 13.2972 19.755 13.164L20.1818 12.7368V11.719C20.0568 11.6068 19.8968 11.5454 19.7273 11.5454C19.5455 11.5454 19.3741 11.6163 19.245 11.745L18.6541 12.3354C18.2023 12.1127 17.7227 12 17.2273 12C16.7318 12 16.2523 12.1127 15.8 12.3354L15.2091 11.745C15.0805 11.6163 14.9091 11.5454 14.7273 11.5454C14.5455 11.5454 14.3741 11.6163 14.245 11.745C14.1159 11.8736 14.0459 12.0445 14.0459 12.2272C14.0459 12.41 14.1164 12.5804 14.245 12.7095L14.6995 13.164C14.5755 13.2972 14.4582 13.4395 14.3491 13.5909H14.3373L14.2036 13.7995C14.095 13.9677 13.9945 14.1468 13.905 14.3331L13.4236 14.1086C13.3332 14.0668 13.2364 14.0454 13.1364 14.0454C12.8718 14.0454 12.6291 14.2004 12.5186 14.4395C12.4414 14.605 12.4332 14.7909 12.4964 14.9618C12.5595 15.1331 12.6845 15.2695 12.8486 15.345L13.4736 15.6368C13.415 15.9336 13.3795 16.2381 13.3682 16.5454H12.6818C12.3059 16.5454 12 16.8513 12 17.2272C12 17.3068 12.0141 17.3836 12.0391 17.4545H19.2727C19.7727 17.4545 20.1818 17.0454 20.1818 16.5454V13.6981L20.1082 13.5909Z" fill="black"/>
<path opacity="0.07" d="M20.1818 16.5454V14.1227C20.1427 14.0545 20.1023 13.9877 20.06 13.9227L19.9895 13.8182H19.9873C19.8214 13.5754 19.6364 13.3559 19.4345 13.1627L20.0486 12.5486C20.2259 12.3713 20.2259 12.0832 20.0486 11.9059C19.9632 11.82 19.8486 11.7727 19.7273 11.7727C19.6059 11.7727 19.4914 11.82 19.4059 11.9059L18.6968 12.6145C18.2341 12.3573 17.74 12.2273 17.2273 12.2273C16.7145 12.2273 16.2205 12.3573 15.7577 12.6145L15.0486 11.9059C14.9632 11.82 14.8486 11.7727 14.7273 11.7727C14.6059 11.7727 14.4914 11.82 14.4059 11.9059C14.2286 12.0832 14.2286 12.3713 14.4059 12.5486L15.02 13.1627C14.8182 13.3559 14.6332 13.5754 14.4673 13.8182H14.4614L14.3945 13.9223C14.2514 14.1445 14.1245 14.3841 14.0168 14.6359L13.3282 14.3145C13.2677 14.2868 13.2027 14.2727 13.1364 14.2727C12.96 14.2727 12.7982 14.3763 12.7245 14.5354C12.6732 14.6459 12.6677 14.7695 12.71 14.8841C12.7518 14.9977 12.835 15.0886 12.945 15.1395L13.7341 15.5077C13.6386 15.9173 13.5909 16.3418 13.5909 16.7727H12.6818C12.4309 16.7727 12.2273 16.9763 12.2273 17.2273C12.2273 17.31 12.2495 17.3877 12.2882 17.4545H19.2727C19.7727 17.4545 20.1818 17.0454 20.1818 16.5454Z" fill="black"/>
<path d="M5.86364 5.18175C6.24019 5.18175 6.54545 4.87649 6.54545 4.49993C6.54545 4.12338 6.24019 3.81812 5.86364 3.81812C5.48708 3.81812 5.18182 4.12338 5.18182 4.49993C5.18182 4.87649 5.48708 5.18175 5.86364 5.18175Z" fill="url(#paint3_linear_40_5781)"/>
<path d="M8.13636 5.18175C8.51292 5.18175 8.81818 4.87649 8.81818 4.49993C8.81818 4.12338 8.51292 3.81812 8.13636 3.81812C7.75981 3.81812 7.45455 4.12338 7.45455 4.49993C7.45455 4.87649 7.75981 5.18175 8.13636 5.18175Z" fill="url(#paint4_linear_40_5781)"/>
<path d="M12.6818 17.4545H14.7273C14.8527 17.4545 14.9545 17.3527 14.9545 17.2273C14.9545 17.1018 14.8527 17 14.7273 17H12.6818C12.5564 17 12.4545 17.1018 12.4545 17.2273C12.4545 17.3527 12.5564 17.4545 12.6818 17.4545Z" fill="url(#paint5_linear_40_5781)"/>
<path d="M21.7727 17H19.7273C19.6018 17 19.5 17.1018 19.5 17.2273C19.5 17.3527 19.6018 17.4545 19.7273 17.4545H21.7727C21.8982 17.4545 22 17.3527 22 17.2273C22 17.1018 21.8982 17 21.7727 17Z" fill="url(#paint6_linear_40_5781)"/>
<path d="M21.4141 14.9331L19.5605 15.7977C19.4468 15.8508 19.3114 15.8013 19.2586 15.6877C19.2055 15.574 19.255 15.4386 19.3686 15.3854L21.2227 14.5208C21.3364 14.4677 21.4718 14.5167 21.525 14.6308C21.5768 14.7449 21.5282 14.8804 21.4141 14.9331Z" fill="url(#paint7_linear_40_5781)"/>
<path d="M21.2359 19.4536L19.5605 18.2804C19.4577 18.2082 19.3159 18.2332 19.2436 18.3364C19.1714 18.4391 19.1964 18.5809 19.2995 18.6527L20.975 19.8259C21.0777 19.8982 21.2195 19.8732 21.2914 19.77C21.3632 19.6668 21.3391 19.5254 21.2359 19.4536Z" fill="url(#paint8_linear_40_5781)"/>
<path d="M13.0405 14.9331L14.8945 15.7977C15.0082 15.8508 15.1436 15.8013 15.1964 15.6877C15.2495 15.574 15.2005 15.4386 15.0864 15.3854L13.2323 14.5208C13.1186 14.4677 12.9832 14.5167 12.93 14.6308C12.8777 14.7449 12.9264 14.8804 13.0405 14.9331Z" fill="url(#paint9_linear_40_5781)"/>
<path d="M13.2186 19.4536L14.8941 18.2804C14.9968 18.2082 15.1386 18.2332 15.2105 18.3364C15.2827 18.4391 15.2577 18.5809 15.1545 18.6527L13.4791 19.8259C13.3764 19.8982 13.2345 19.8732 13.1623 19.77C13.0905 19.6673 13.1159 19.5254 13.2186 19.4536Z" fill="url(#paint10_linear_40_5781)"/>
<path d="M15.6559 13.4772L14.5668 12.3881C14.4782 12.2994 14.4782 12.1554 14.5668 12.0667C14.6555 11.9781 14.7995 11.9781 14.8882 12.0667L15.9773 13.1558L15.6559 13.4772Z" fill="url(#paint11_linear_40_5781)"/>
<path d="M18.7986 13.4772L19.8877 12.3881C19.9764 12.2994 19.9764 12.1554 19.8877 12.0667C19.7991 11.9781 19.655 11.9781 19.5664 12.0667L18.4773 13.1558L18.7986 13.4772Z" fill="url(#paint12_linear_40_5781)"/>
<path d="M14.585 14.0454C14.1059 14.789 13.8182 15.7381 13.8182 16.7727C13.8182 19.1572 15.3445 21.0909 17.2273 21.0909C19.11 21.0909 20.6364 19.1572 20.6364 16.7727C20.6364 15.7381 20.3486 14.789 19.8691 14.0454H14.585Z" fill="url(#paint13_linear_40_5781)"/>
<path d="M17 21.0764C17.0755 21.0827 17.1505 21.0909 17.2273 21.0909C17.3041 21.0909 17.3791 21.0827 17.4545 21.0764V14.6136H17V21.0764Z" fill="url(#paint14_linear_40_5781)"/>
<path d="M17.2273 14.9545C18.2464 14.9545 19.1932 14.6904 19.9836 14.2386C19.3641 13.159 18.3614 12.4545 17.2273 12.4545C16.0932 12.4545 15.0905 13.159 14.4709 14.2386C15.2614 14.6904 16.2082 14.9545 17.2273 14.9545Z" fill="url(#paint15_linear_40_5781)"/>
<defs>
<linearGradient id="paint0_linear_40_5781" x1="7.73246" y1="6.26528" x2="11.7655" y2="18.7065" gradientUnits="userSpaceOnUse">
<stop stop-color="#7DD8F3"/>
<stop offset="1" stop-color="#45B0D0"/>
</linearGradient>
<linearGradient id="paint1_linear_40_5781" x1="2.27909" y1="2.79133" x2="19.6982" y2="6.33315" gradientUnits="userSpaceOnUse">
<stop stop-color="#0077D2"/>
<stop offset="1" stop-color="#0B59A2"/>
</linearGradient>
<linearGradient id="paint2_linear_40_5781" x1="3.25045" y1="4.00721" x2="3.83273" y2="4.84948" gradientUnits="userSpaceOnUse">
<stop stop-color="#75DAFF"/>
<stop offset="1" stop-color="#49BEF1"/>
</linearGradient>
<linearGradient id="paint3_linear_40_5781" x1="5.52318" y1="4.00721" x2="6.10545" y2="4.84948" gradientUnits="userSpaceOnUse">
<stop stop-color="#75DAFF"/>
<stop offset="1" stop-color="#49BEF1"/>
</linearGradient>
<linearGradient id="paint4_linear_40_5781" x1="7.79591" y1="4.00721" x2="8.37818" y2="4.84948" gradientUnits="userSpaceOnUse">
<stop stop-color="#75DAFF"/>
<stop offset="1" stop-color="#49BEF1"/>
</linearGradient>
<linearGradient id="paint5_linear_40_5781" x1="12.4482" y1="17.2273" x2="13.9523" y2="17.2273" gradientUnits="userSpaceOnUse">
<stop stop-color="#6D7479"/>
<stop offset="0.425" stop-color="#565C60"/>
<stop offset="1" stop-color="#323538"/>
</linearGradient>
<linearGradient id="paint6_linear_40_5781" x1="22.0059" y1="17.2273" x2="20.5023" y2="17.2273" gradientUnits="userSpaceOnUse">
<stop stop-color="#6D7479"/>
<stop offset="0.425" stop-color="#565C60"/>
<stop offset="1" stop-color="#323538"/>
</linearGradient>
<linearGradient id="paint7_linear_40_5781" x1="21.5291" y1="14.6795" x2="20.3332" y2="15.184" gradientUnits="userSpaceOnUse">
<stop stop-color="#6D7479"/>
<stop offset="0.425" stop-color="#565C60"/>
<stop offset="1" stop-color="#323538"/>
</linearGradient>
<linearGradient id="paint8_linear_40_5781" x1="21.3332" y1="19.6673" x2="20.3241" y2="19.0854" gradientUnits="userSpaceOnUse">
<stop stop-color="#6D7479"/>
<stop offset="0.425" stop-color="#565C60"/>
<stop offset="1" stop-color="#323538"/>
</linearGradient>
<linearGradient id="paint9_linear_40_5781" x1="12.9255" y1="14.6795" x2="14.1214" y2="15.184" gradientUnits="userSpaceOnUse">
<stop stop-color="#6D7479"/>
<stop offset="0.425" stop-color="#565C60"/>
<stop offset="1" stop-color="#323538"/>
</linearGradient>
<linearGradient id="paint10_linear_40_5781" x1="13.1209" y1="19.6673" x2="14.1309" y2="19.0854" gradientUnits="userSpaceOnUse">
<stop stop-color="#6D7479"/>
<stop offset="0.425" stop-color="#565C60"/>
<stop offset="1" stop-color="#323538"/>
</linearGradient>
<linearGradient id="paint11_linear_40_5781" x1="14.7405" y1="11.9344" x2="15.4582" y2="13.0726" gradientUnits="userSpaceOnUse">
<stop stop-color="#6D7479"/>
<stop offset="0.425" stop-color="#565C60"/>
<stop offset="1" stop-color="#323538"/>
</linearGradient>
<linearGradient id="paint12_linear_40_5781" x1="19.8023" y1="12.0285" x2="18.9582" y2="13.0422" gradientUnits="userSpaceOnUse">
<stop stop-color="#6D7479"/>
<stop offset="0.425" stop-color="#565C60"/>
<stop offset="1" stop-color="#323538"/>
</linearGradient>
<linearGradient id="paint13_linear_40_5781" x1="17.2273" y1="14.075" x2="17.2273" y2="21.0136" gradientUnits="userSpaceOnUse">
<stop stop-color="#FED100"/>
<stop offset="1" stop-color="#E36001"/>
</linearGradient>
<linearGradient id="paint14_linear_40_5781" x1="17.2273" y1="14.5555" x2="17.2273" y2="21.2286" gradientUnits="userSpaceOnUse">
<stop stop-color="#DBB500"/>
<stop offset="0.998" stop-color="#B54C01"/>
</linearGradient>
<linearGradient id="paint15_linear_40_5781" x1="17.2273" y1="12.4908" x2="17.2273" y2="15.0263" gradientUnits="userSpaceOnUse">
<stop stop-color="#6D7479"/>
<stop offset="0.512" stop-color="#4D5256"/>
<stop offset="1" stop-color="#323538"/>
</linearGradient>
</defs>
</svg>
