<svg width="24" height="24" viewBox="0 0 24 24" fill="none" xmlns="http://www.w3.org/2000/svg">
<path d="M21.0641 19.4505C21.1095 19.9686 20.9791 20.4968 20.6518 20.9014C20.3777 21.24 19.9436 21.5455 19.2709 21.5455C18.2573 21.5455 16.9982 20.6364 16.9982 20.6364C16.9982 20.6364 16.0391 22 14.5255 22C13.0118 22 11.9982 21.0909 11.9982 21.0909C11.9982 21.0909 10.9891 22 9.47546 22C7.96182 22 6.99818 20.6364 6.99818 20.6364C6.99818 20.6364 5.73455 21.5455 4.72546 21.5455C4.04409 21.5455 3.60909 21.2323 3.33591 20.8882C3.01909 20.4882 2.89182 19.9714 2.93546 19.4627C3.27864 15.4545 7.25637 9.57136 9.72546 7.45455C9.72546 7.15 9.69364 6.84545 9.63909 6.54545C9.42546 5.32273 8.84364 4.19091 8.54364 3.66818C8.39818 3.41364 8.38455 3.10455 8.50728 2.84091C8.68909 2.45455 9.08909 2 9.98 2C10.8173 2 11.2809 2.51909 11.6536 2.96455C11.8336 3.17955 12.1627 3.17955 12.3427 2.96455C12.7155 2.51909 13.1791 2 14.0209 2C14.9118 2 15.3118 2.45455 15.4891 2.84091C15.6164 3.10455 15.5982 3.41364 15.4527 3.66818C15.1527 4.19091 14.5709 5.32273 14.3573 6.54545C14.3027 6.84545 14.2709 7.15 14.2709 7.45455C16.7373 9.56909 20.7136 15.4423 21.0641 19.4505Z" fill="url(#paint0_linear_40_5801)"/>
<path d="M20.5536 19.7273C20.3614 19.7273 20.1864 19.8482 20.1304 20.0323C20.0291 20.365 19.745 20.6364 19.2709 20.6364C18.7332 20.6364 17.865 20.1391 17.5304 19.8991C17.3709 19.7841 17.1864 19.7287 17.0027 19.7287C16.7182 19.7287 16.4373 19.8609 16.2582 20.1082C16.2509 20.1182 15.5345 21.0909 14.5254 21.0909C13.3991 21.0909 12.6073 20.4159 12.605 20.4141C12.4341 20.2605 12.2177 20.1846 12.0004 20.1846C11.7845 20.1846 11.5677 20.26 11.395 20.4105C11.3877 20.4173 10.6005 21.0909 9.47545 21.0909C8.465 21.0909 7.74409 20.1168 7.74045 20.1118C7.60045 19.9137 7.38727 19.78 7.14818 19.74C7.09863 19.7314 7.04818 19.7273 6.99818 19.7273C6.80909 19.7273 6.62272 19.7864 6.46727 19.8982C6.13272 20.1391 5.26636 20.6364 4.72545 20.6364C4.25 20.6364 3.96772 20.3668 3.86863 20.0355C3.81318 19.85 3.63772 19.7273 3.44409 19.7273C3.13409 19.7273 2.92227 20.0314 3.01909 20.3259C3.20181 20.8814 3.66909 21.5455 4.72545 21.5455C5.73454 21.5455 6.99818 20.6364 6.99818 20.6364C6.99818 20.6364 7.96181 22 9.47545 22C10.9891 22 11.9982 21.0909 11.9982 21.0909C11.9982 21.0909 13.0118 22 14.5254 22C16.0391 22 16.9982 20.6364 16.9982 20.6364C16.9982 20.6364 18.2573 21.5455 19.2709 21.5455C20.3264 21.5455 20.7941 20.8823 20.9782 20.3268C21.0759 20.0318 20.8641 19.7273 20.5536 19.7273Z" fill="#EB6773"/>
<path d="M9.6391 6.54541C9.69364 6.84541 9.72546 7.14996 9.72546 7.4545H14.2709C14.2709 7.14996 14.3027 6.84541 14.3573 6.54541H9.6391Z" fill="#EB6773"/>
<defs>
<linearGradient id="paint0_linear_40_5801" x1="12" y1="2" x2="12" y2="22" gradientUnits="userSpaceOnUse">
<stop stop-color="#DFE9F2"/>
<stop offset="0.391" stop-color="#D6E0E9"/>
<stop offset="1" stop-color="#BFC8D1"/>
</linearGradient>
</defs>
</svg>
