<svg width="24" height="24" viewBox="0 0 24 24" fill="none" xmlns="http://www.w3.org/2000/svg">
<path d="M15.3333 18.6667C11.6571 18.6667 8.66667 15.6763 8.66667 12C8.66667 8.32379 11.6571 5.33337 15.3333 5.33337C19.0096 5.33337 22 8.32379 22 12C22 15.6763 19.0096 18.6667 15.3333 18.6667ZM15.3333 7.41671C12.8058 7.41671 10.75 9.47296 10.75 12C10.75 14.5271 12.8058 16.5834 15.3333 16.5834C17.8608 16.5834 19.9167 14.5271 19.9167 12C19.9167 9.47296 17.8608 7.41671 15.3333 7.41671Z" fill="#EDBE00"/>
<path opacity="0.05" d="M11.725 9.17097C11.7708 9.1168 11.8125 9.06264 11.8625 9.00847C11.95 8.90431 12.0458 8.8043 12.1458 8.70847C12.1958 8.65847 12.25 8.60847 12.3 8.5668C11.8083 8.04597 11.2 7.63347 10.5417 7.37097C10.4875 7.42097 10.4375 7.47514 10.3875 7.53347C10.3417 7.58764 10.2917 7.6418 10.2458 7.70014C10.1958 7.7543 10.15 7.81264 10.1042 7.87097C10.0583 7.9293 10.0125 7.98764 9.96666 8.04597C10.0125 8.05847 10.0583 8.07514 10.1042 8.0918C10.7 8.31264 11.2542 8.67514 11.6958 9.13764C11.7042 9.15014 11.7167 9.15847 11.725 9.17097Z" fill="black"/>
<path opacity="0.07" d="M10.3875 7.53345C10.3417 7.58761 10.2917 7.64178 10.2458 7.70011C10.1958 7.75428 10.15 7.81261 10.1042 7.87095C10.1292 7.87928 10.15 7.88761 10.175 7.89595C10.8042 8.12511 11.3833 8.50846 11.85 8.99596C11.8542 9.00012 11.8583 9.00428 11.8625 9.00845C11.95 8.90428 12.0458 8.80428 12.1458 8.70845C11.6542 8.19178 11.05 7.78761 10.3875 7.53345Z" fill="black"/>
<path d="M14.025 8.04587C13.9833 7.98754 13.9417 7.92921 13.8917 7.87087C13.85 7.81254 13.8 7.75837 13.7542 7.70004C13.7042 7.64171 13.6542 7.58337 13.6083 7.52921C13.5583 7.47504 13.5042 7.42087 13.4542 7.36671C13.1375 7.03754 12.7833 6.74171 12.4 6.48337C12.3333 6.43754 12.2667 6.39587 12.2 6.35421C12.1333 6.31254 12.0667 6.27087 12 6.23337C11.9292 6.19171 11.8583 6.15421 11.7833 6.11254C11.7167 6.07504 11.6458 6.03754 11.5708 6.00421C10.6958 5.57504 9.70833 5.33337 8.66667 5.33337C4.99167 5.33337 2 8.32504 2 12C2 15.675 4.99167 18.6667 8.66667 18.6667C9.70833 18.6667 10.6958 18.425 11.5708 17.9959C11.6458 17.9625 11.7167 17.925 11.7833 17.8875C11.8583 17.8459 11.9292 17.8084 12 17.7667C11.9167 17.7167 11.8333 17.6709 11.7542 17.6167C11.675 17.5667 11.5958 17.5167 11.5167 17.4625L11.5083 17.4542C11.3667 17.3584 11.2292 17.2542 11.0958 17.1417C10.9708 17.0417 10.8542 16.9334 10.7375 16.825C10.6833 16.775 10.6333 16.725 10.5875 16.675C10.5333 16.625 10.4833 16.5709 10.4333 16.5167C10.3708 16.4459 10.3083 16.375 10.2458 16.3L10.0333 16.375C9.9625 16.3959 9.89167 16.4167 9.82083 16.4334C9.45 16.5334 9.06667 16.5834 8.66667 16.5834C6.1375 16.5834 4.08333 14.5292 4.08333 12C4.08333 9.47087 6.1375 7.41671 8.66667 7.41671C9.06667 7.41671 9.45 7.46671 9.82083 7.56671C9.89167 7.58337 9.9625 7.60421 10.0333 7.62504L10.2458 7.70004C10.3125 7.72504 10.3792 7.75004 10.4458 7.77921C10.5125 7.80837 10.5792 7.83754 10.6458 7.87087C11.0292 8.05421 11.3833 8.28754 11.7 8.57087C11.7542 8.61254 11.8042 8.66254 11.8542 8.70837C11.9042 8.75837 11.9542 8.80421 12 8.85421C12.05 8.90421 12.0958 8.95837 12.1417 9.01254C12.1875 9.06671 12.2333 9.12087 12.275 9.17504C12.8875 9.95837 13.25 10.9334 13.25 12C13.25 13.0667 12.8875 14.0417 12.275 14.825C12.2333 14.8792 12.1875 14.9334 12.1417 14.9875C12.0958 15.0417 12.05 15.0959 12 15.1459C12.0292 15.175 12.0625 15.2084 12.0917 15.2417C12.1167 15.2667 12.1458 15.2917 12.1708 15.3167C12.175 15.325 12.1833 15.3292 12.1875 15.3334C12.2083 15.3542 12.2292 15.3709 12.25 15.3917C12.425 15.55 12.6125 15.6959 12.8083 15.8209C12.8792 15.8709 12.9542 15.9167 13.0333 15.9625C13.2625 16.0959 13.5042 16.2084 13.7542 16.3C13.8 16.2417 13.85 16.1875 13.8917 16.1292C13.9417 16.0709 13.9833 16.0125 14.025 15.9542C14.8458 14.8459 15.3333 13.4792 15.3333 12C15.3333 10.5209 14.8458 9.15421 14.025 8.04587Z" fill="#E3A600"/>
<path opacity="0.05" d="M12.1417 14.9876C12.0958 15.0417 12.05 15.0959 12 15.1459C12.0292 15.1751 12.0625 15.2084 12.0917 15.2417C12.1167 15.2667 12.1458 15.2917 12.1708 15.3167C12.175 15.3251 12.1833 15.3292 12.1875 15.3334C12.2083 15.3542 12.2292 15.3709 12.25 15.3917C12.425 15.5501 12.6125 15.6959 12.8083 15.8209C12.8792 15.8709 12.9542 15.9167 13.0333 15.9626C13.2625 16.0959 13.5042 16.2126 13.7542 16.3001C13.8 16.2417 13.85 16.1876 13.8917 16.1292C13.9417 16.0709 13.9833 16.0126 14.025 15.9542C13.35 15.7334 12.75 15.3376 12.275 14.8251C12.2333 14.8792 12.1875 14.9334 12.1417 14.9876Z" fill="black"/>
<path opacity="0.07" d="M12.1417 14.9875C12.0958 15.0417 12.05 15.0959 12 15.1459C12.0292 15.175 12.0625 15.2084 12.0917 15.2417C12.1167 15.2667 12.1458 15.2917 12.1708 15.3167C12.175 15.325 12.1833 15.3292 12.1875 15.3334C12.2083 15.3542 12.2292 15.3709 12.25 15.3917C12.425 15.55 12.6125 15.6959 12.8083 15.8209C12.8792 15.8709 12.9542 15.9167 13.0333 15.9625C13.2625 16.0959 13.5042 16.2125 13.7542 16.3C13.8 16.2417 13.85 16.1875 13.8917 16.1292C13.2167 15.8959 12.6167 15.5 12.1417 14.9875Z" fill="black"/>
</svg>
