<svg width="24" height="24" viewBox="0 0 24 24" fill="none" xmlns="http://www.w3.org/2000/svg">
<path d="M13.6279 11.1071C13.6279 11.3443 13.4186 11.535 13.1628 11.535H7.40465C7.35349 11.535 7.30232 11.5303 7.25116 11.521C7.20465 11.5303 7.15814 11.535 7.11628 11.535H6.18605V10.6047L4.98139 5.81869C4.86977 5.41404 5.11163 5.00008 5.51163 4.89311C5.91628 4.78148 6.33023 5.02334 6.43721 5.42334L7.70698 10.1396H12.5814C13.1581 10.1396 13.6279 10.5722 13.6279 11.1071Z" fill="url(#paint0_linear_40_5815)"/>
<path d="M7.40464 11.5349H7.11627C7.15813 11.5349 7.20464 11.5303 7.25116 11.521C7.30232 11.5303 7.35348 11.5349 7.40464 11.5349Z" fill="url(#paint1_linear_40_5815)"/>
<path d="M15.4884 11.5349H6.65117V14.7907H15.4884V11.5349Z" fill="url(#paint2_linear_40_5815)"/>
<path d="M21.0698 18.0466H20.586C20.1907 18.0466 19.8419 17.8001 19.707 17.428L18.1535 13.0791C17.8233 12.1535 16.9488 11.5349 15.9628 11.5349H15.7209V10.8187C15.7209 10.4373 15.6512 10.0559 15.4791 9.71168C15.0512 8.86517 14.2326 8.42796 13.3674 8.42331L6.02326 8.50703L4.77674 3.51633C4.72558 3.30703 4.53953 3.16284 4.32558 3.16284H2.46512C2.2093 3.16284 2 3.37214 2 3.62796C2 3.88377 2.2093 4.09307 2.46512 4.09307H3.96279L6.65116 14.8466V16.3628H7.5814V15.2559H14.7907V16.6512C14.7907 16.907 15 17.1163 15.2558 17.1163C15.5116 17.1163 15.7209 16.907 15.7209 16.6512V12.4652H15.9628C16.5535 12.4652 17.0791 12.8373 17.2791 13.3907L19.0512 18.3582C19.186 18.7303 19.5349 18.9768 19.9302 18.9768H21.0698C21.3256 18.9768 21.5349 18.7675 21.5349 18.5117C21.5349 18.2559 21.3256 18.0466 21.0698 18.0466ZM14.7907 14.3256H7.47907L7.01395 12.4652H14.7907V14.3256ZM14.7907 11.5349H6.78139L6.25581 9.43726L13.3814 9.35354C13.7535 9.35354 14.107 9.48842 14.3767 9.75354C14.6419 10.0187 14.7907 10.3721 14.7907 10.7489V11.5349Z" fill="url(#paint3_linear_40_5815)"/>
<path d="M7.34883 20.8372C8.76165 20.8372 9.90697 19.6919 9.90697 18.2791C9.90697 16.8662 8.76165 15.7209 7.34883 15.7209C5.93602 15.7209 4.7907 16.8662 4.7907 18.2791C4.7907 19.6919 5.93602 20.8372 7.34883 20.8372Z" fill="url(#paint4_linear_40_5815)"/>
<path d="M7.34884 19.9071C8.24791 19.9071 8.97675 19.1782 8.97675 18.2792C8.97675 17.3801 8.24791 16.6512 7.34884 16.6512C6.44977 16.6512 5.72093 17.3801 5.72093 18.2792C5.72093 19.1782 6.44977 19.9071 7.34884 19.9071Z" fill="url(#paint5_linear_40_5815)"/>
<path d="M15.2558 20.8373C16.4117 20.8373 17.3488 19.9002 17.3488 18.7443C17.3488 17.5884 16.4117 16.6512 15.2558 16.6512C14.0999 16.6512 13.1628 17.5884 13.1628 18.7443C13.1628 19.9002 14.0999 20.8373 15.2558 20.8373Z" fill="url(#paint6_linear_40_5815)"/>
<path d="M15.2558 19.907C15.898 19.907 16.4186 19.3864 16.4186 18.7442C16.4186 18.102 15.898 17.5814 15.2558 17.5814C14.6136 17.5814 14.093 18.102 14.093 18.7442C14.093 19.3864 14.6136 19.907 15.2558 19.907Z" fill="url(#paint7_linear_40_5815)"/>
<path d="M19.2093 18.9768H21.3023C21.6874 18.9768 22 18.6642 22 18.2791C22 17.894 21.6874 17.5814 21.3023 17.5814H18.7442L19.2093 18.9768Z" fill="url(#paint8_linear_40_5815)"/>
<defs>
<linearGradient id="paint0_linear_40_5815" x1="9.29116" y1="11.535" x2="9.29116" y2="4.86567" gradientUnits="userSpaceOnUse">
<stop stop-color="#3079D6"/>
<stop offset="1" stop-color="#297CD2"/>
</linearGradient>
<linearGradient id="paint1_linear_40_5815" x1="7.26046" y1="11.5349" x2="7.26046" y2="11.521" gradientUnits="userSpaceOnUse">
<stop stop-color="#3079D6"/>
<stop offset="1" stop-color="#297CD2"/>
</linearGradient>
<linearGradient id="paint2_linear_40_5815" x1="11.0698" y1="8.92933" x2="11.0698" y2="15.6572" gradientUnits="userSpaceOnUse">
<stop stop-color="#D95F6A"/>
<stop offset="0.014" stop-color="#D85C67"/>
<stop offset="0.142" stop-color="#CE424E"/>
<stop offset="0.285" stop-color="#C72F3A"/>
<stop offset="0.449" stop-color="#C2212C"/>
<stop offset="0.65" stop-color="#BF1824"/>
<stop offset="1" stop-color="#BE1622"/>
</linearGradient>
<linearGradient id="paint3_linear_40_5815" x1="11.7674" y1="18.9768" x2="11.7674" y2="3.16284" gradientUnits="userSpaceOnUse">
<stop offset="0.477" stop-color="#45494D"/>
<stop offset="0.9" stop-color="#6D7882"/>
</linearGradient>
<linearGradient id="paint4_linear_40_5815" x1="7.34883" y1="25.2526" x2="7.34883" y2="14.0521" gradientUnits="userSpaceOnUse">
<stop offset="0.477" stop-color="#45494D"/>
<stop offset="0.9" stop-color="#6D7882"/>
</linearGradient>
<linearGradient id="paint5_linear_40_5815" x1="7.34884" y1="10.3019" x2="7.34884" y2="18.5852" gradientUnits="userSpaceOnUse">
<stop stop-color="#A1AAB3"/>
<stop offset="1" stop-color="#8F979E"/>
</linearGradient>
<linearGradient id="paint6_linear_40_5815" x1="15.2558" y1="24.4498" x2="15.2558" y2="15.2857" gradientUnits="userSpaceOnUse">
<stop offset="0.477" stop-color="#45494D"/>
<stop offset="0.9" stop-color="#6D7882"/>
</linearGradient>
<linearGradient id="paint7_linear_40_5815" x1="15.2558" y1="10.3019" x2="15.2558" y2="18.5851" gradientUnits="userSpaceOnUse">
<stop stop-color="#A1AAB3"/>
<stop offset="1" stop-color="#8F979E"/>
</linearGradient>
<linearGradient id="paint8_linear_40_5815" x1="20.3721" y1="18.9768" x2="20.3721" y2="17.5814" gradientUnits="userSpaceOnUse">
<stop stop-color="#3079D6"/>
<stop offset="1" stop-color="#297CD2"/>
</linearGradient>
</defs>
</svg>
