<svg width="24" height="24" viewBox="0 0 24 24" fill="none" xmlns="http://www.w3.org/2000/svg">
<path d="M20.9474 17.5263H3.05263C2.47105 17.5263 2 17.0552 2 16.4736V3.84206C2 3.26048 2.47105 2.78943 3.05263 2.78943H20.9474C21.5289 2.78943 22 3.26048 22 3.84206V16.4736C22 17.0552 21.5289 17.5263 20.9474 17.5263Z" fill="url(#paint0_linear_40_5872)"/>
<path d="M20.9474 3.84204H3.05263V16.4736H20.9474V3.84204Z" fill="url(#paint1_radial_40_5872)"/>
<path d="M16.7368 19.1052H14.1053V17.5262H9.89474V19.1052H7.26316C6.97263 19.1052 6.73684 19.341 6.73684 19.6315V20.6841C6.73684 20.9747 6.97263 21.2105 7.26316 21.2105H16.7368C17.0274 21.2105 17.2632 20.9747 17.2632 20.6841V19.6315C17.2632 19.341 17.0274 19.1052 16.7368 19.1052Z" fill="url(#paint2_linear_40_5872)"/>
<path opacity="0.05" d="M12 6.73674V9.36832C12 9.80411 12.3537 10.1578 12.7895 10.1578H15.4211C15.8568 10.1578 16.2105 9.80411 16.2105 9.36832V6.73674C16.2105 6.30095 15.8568 5.94727 15.4211 5.94727H12.7895C12.3537 5.94727 12 6.30095 12 6.73674Z" fill="black"/>
<path opacity="0.07" d="M15.4211 9.89466H12.7895C12.4989 9.89466 12.2632 9.65887 12.2632 9.36834V6.73677C12.2632 6.44624 12.4989 6.21045 12.7895 6.21045H15.4211C15.7116 6.21045 15.9474 6.44624 15.9474 6.73677V9.36834C15.9474 9.65887 15.7116 9.89466 15.4211 9.89466Z" fill="black"/>
<path opacity="0.05" d="M7.78947 6.73674V9.36832C7.78947 9.80411 8.14316 10.1578 8.57895 10.1578H11.2105C11.6463 10.1578 12 9.80411 12 9.36832V6.73674C12 6.30095 11.6463 5.94727 11.2105 5.94727H8.57895C8.14316 5.94727 7.78947 6.30095 7.78947 6.73674Z" fill="black"/>
<path opacity="0.07" d="M11.2105 9.89466H8.57895C8.28842 9.89466 8.05263 9.65887 8.05263 9.36834V6.73677C8.05263 6.44624 8.28842 6.21045 8.57895 6.21045H11.2105C11.5011 6.21045 11.7368 6.44624 11.7368 6.73677V9.36834C11.7368 9.65887 11.5011 9.89466 11.2105 9.89466Z" fill="black"/>
<path opacity="0.05" d="M7.78947 10.9473V13.5789C7.78947 14.0147 8.14316 14.3684 8.57895 14.3684H11.2105C11.6463 14.3684 12 14.0147 12 13.5789V10.9473C12 10.5115 11.6463 10.1578 11.2105 10.1578H8.57895C8.14316 10.1578 7.78947 10.5115 7.78947 10.9473Z" fill="black"/>
<path opacity="0.07" d="M11.2105 14.1052H8.57895C8.28842 14.1052 8.05263 13.8694 8.05263 13.5789V10.9473C8.05263 10.6568 8.28842 10.421 8.57895 10.421H11.2105C11.5011 10.421 11.7368 10.6568 11.7368 10.9473V13.5789C11.7368 13.8694 11.5011 14.1052 11.2105 14.1052Z" fill="black"/>
<path opacity="0.05" d="M12 10.9473V13.5789C12 14.0147 12.3537 14.3684 12.7895 14.3684H15.4211C15.8568 14.3684 16.2105 14.0147 16.2105 13.5789V10.9473C16.2105 10.5115 15.8568 10.1578 15.4211 10.1578H12.7895C12.3537 10.1578 12 10.5115 12 10.9473Z" fill="black"/>
<path opacity="0.07" d="M15.4211 14.1052H12.7895C12.4989 14.1052 12.2632 13.8694 12.2632 13.5789V10.9473C12.2632 10.6568 12.4989 10.421 12.7895 10.421H15.4211C15.7116 10.421 15.9474 10.6568 15.9474 10.9473V13.5789C15.9474 13.8694 15.7116 14.1052 15.4211 14.1052Z" fill="black"/>
<path d="M11.2105 9.63153H8.57895C8.43368 9.63153 8.31579 9.51363 8.31579 9.36837V6.73679C8.31579 6.59153 8.43368 6.47363 8.57895 6.47363H11.2105C11.3558 6.47363 11.4737 6.59153 11.4737 6.73679V9.36837C11.4737 9.51363 11.3558 9.63153 11.2105 9.63153Z" fill="white"/>
<path d="M11.2105 13.8421H8.57895C8.43368 13.8421 8.31579 13.7242 8.31579 13.5789V10.9474C8.31579 10.8021 8.43368 10.6842 8.57895 10.6842H11.2105C11.3558 10.6842 11.4737 10.8021 11.4737 10.9474V13.5789C11.4737 13.7242 11.3558 13.8421 11.2105 13.8421Z" fill="white"/>
<path d="M15.4211 13.8421H12.7895C12.6442 13.8421 12.5263 13.7242 12.5263 13.5789V10.9474C12.5263 10.8021 12.6442 10.6842 12.7895 10.6842H15.4211C15.5663 10.6842 15.6842 10.8021 15.6842 10.9474V13.5789C15.6842 13.7242 15.5663 13.8421 15.4211 13.8421Z" fill="white"/>
<path d="M15.4211 9.63153H12.7895C12.6442 9.63153 12.5263 9.51363 12.5263 9.36837V6.73679C12.5263 6.59153 12.6442 6.47363 12.7895 6.47363H15.4211C15.5663 6.47363 15.6842 6.59153 15.6842 6.73679V9.36837C15.6842 9.51363 15.5663 9.63153 15.4211 9.63153Z" fill="white"/>
<defs>
<linearGradient id="paint0_linear_40_5872" x1="3.92789" y1="3.3468" x2="19.4326" y2="16.4289" gradientUnits="userSpaceOnUse">
<stop stop-color="#A1AAB3"/>
<stop offset="1" stop-color="#8F979E"/>
</linearGradient>
<radialGradient id="paint1_radial_40_5872" cx="0" cy="0" r="1" gradientUnits="userSpaceOnUse" gradientTransform="translate(24.1478 30.1243) scale(36.7449 32.6279)">
<stop offset="0.323" stop-color="#23D9D6"/>
<stop offset="0.427" stop-color="#23D4D7"/>
<stop offset="0.542" stop-color="#21C7DC"/>
<stop offset="0.664" stop-color="#1FB0E2"/>
<stop offset="0.789" stop-color="#1C91EC"/>
<stop offset="0.917" stop-color="#1969F8"/>
<stop offset="0.944" stop-color="#1860FB"/>
</radialGradient>
<linearGradient id="paint2_linear_40_5872" x1="12" y1="17.5184" x2="12" y2="21.2178" gradientUnits="userSpaceOnUse">
<stop stop-color="#484B4F"/>
<stop offset="0.23" stop-color="#656D75"/>
<stop offset="0.367" stop-color="#727D86"/>
</linearGradient>
</defs>
</svg>
