<svg width="24" height="24" viewBox="0 0 24 24" fill="none" xmlns="http://www.w3.org/2000/svg">
<path d="M21.2308 7.64102H2.76923V4.56409C2.76923 3.99743 3.22821 3.53845 3.79487 3.53845H20.2051C20.7718 3.53845 21.2308 3.99743 21.2308 4.56409V7.64102Z" fill="url(#paint0_linear_40_5852)"/>
<path d="M2.76923 7.64099V20.9743C2.76923 21.541 3.22821 22 3.79487 22H20.2051C20.7718 22 21.2308 21.541 21.2308 20.9743V7.64099H2.76923Z" fill="url(#paint1_linear_40_5852)"/>
<path d="M10.4615 12.2564H9.4359C9.15282 12.2564 8.92308 12.0266 8.92308 11.7435V10.7179C8.92308 10.4348 9.15282 10.2051 9.4359 10.2051H10.4615C10.7446 10.2051 10.9744 10.4348 10.9744 10.7179V11.7435C10.9744 12.0266 10.7446 12.2564 10.4615 12.2564Z" fill="white"/>
<path d="M14.5641 12.2564H13.5385C13.2554 12.2564 13.0256 12.0266 13.0256 11.7435V10.7179C13.0256 10.4348 13.2554 10.2051 13.5385 10.2051H14.5641C14.8472 10.2051 15.0769 10.4348 15.0769 10.7179V11.7435C15.0769 12.0266 14.8472 12.2564 14.5641 12.2564Z" fill="white"/>
<path d="M18.6667 12.2564H17.641C17.358 12.2564 17.1282 12.0266 17.1282 11.7435V10.7179C17.1282 10.4348 17.358 10.2051 17.641 10.2051H18.6667C18.9497 10.2051 19.1795 10.4348 19.1795 10.7179V11.7435C19.1795 12.0266 18.9497 12.2564 18.6667 12.2564Z" fill="white"/>
<path d="M10.4615 15.8462H9.4359C9.15282 15.8462 8.92308 15.6165 8.92308 15.3334V14.3077C8.92308 14.0247 9.15282 13.7949 9.4359 13.7949H10.4615C10.7446 13.7949 10.9744 14.0247 10.9744 14.3077V15.3334C10.9744 15.6165 10.7446 15.8462 10.4615 15.8462Z" fill="white"/>
<path d="M6.35898 15.8462H5.33334C5.05026 15.8462 4.82052 15.6165 4.82052 15.3334V14.3077C4.82052 14.0247 5.05026 13.7949 5.33334 13.7949H6.35898C6.64206 13.7949 6.8718 14.0247 6.8718 14.3077V15.3334C6.8718 15.6165 6.64206 15.8462 6.35898 15.8462Z" fill="white"/>
<path d="M14.5641 15.8462H13.5385C13.2554 15.8462 13.0256 15.6165 13.0256 15.3334V14.3077C13.0256 14.0247 13.2554 13.7949 13.5385 13.7949H14.5641C14.8472 13.7949 15.0769 14.0247 15.0769 14.3077V15.3334C15.0769 15.6165 14.8472 15.8462 14.5641 15.8462Z" fill="white"/>
<path d="M10.4615 19.4359H9.4359C9.15282 19.4359 8.92308 19.2062 8.92308 18.9231V17.8975C8.92308 17.6144 9.15282 17.3846 9.4359 17.3846H10.4615C10.7446 17.3846 10.9744 17.6144 10.9744 17.8975V18.9231C10.9744 19.2062 10.7446 19.4359 10.4615 19.4359Z" fill="white"/>
<path d="M6.35898 19.4359H5.33334C5.05026 19.4359 4.82052 19.2062 4.82052 18.9231V17.8975C4.82052 17.6144 5.05026 17.3846 5.33334 17.3846H6.35898C6.64206 17.3846 6.8718 17.6144 6.8718 17.8975V18.9231C6.8718 19.2062 6.64206 19.4359 6.35898 19.4359Z" fill="white"/>
<path d="M14.5641 19.4359H13.5385C13.2554 19.4359 13.0256 19.2062 13.0256 18.9231V17.8975C13.0256 17.6144 13.2554 17.3846 13.5385 17.3846H14.5641C14.8472 17.3846 15.0769 17.6144 15.0769 17.8975V18.9231C15.0769 19.2062 14.8472 19.4359 14.5641 19.4359Z" fill="white"/>
<path d="M18.6667 15.8462H17.641C17.358 15.8462 17.1282 15.6165 17.1282 15.3334V14.3077C17.1282 14.0247 17.358 13.7949 17.641 13.7949H18.6667C18.9497 13.7949 19.1795 14.0247 19.1795 14.3077V15.3334C19.1795 15.6165 18.9497 15.8462 18.6667 15.8462Z" fill="white"/>
<path opacity="0.05" d="M6.8718 3.53845V5.33332C6.8718 5.47486 6.75641 5.58973 6.61539 5.58973C6.47436 5.58973 6.35898 5.47486 6.35898 5.33332V3.53845H5.33334V5.33332C5.33334 6.03999 5.90821 6.61538 6.61539 6.61538C7.32257 6.61538 7.89744 6.03999 7.89744 5.33332V3.53845H6.8718Z" fill="black"/>
<path opacity="0.07" d="M7.12821 3.53845V5.33332C7.12821 5.61589 6.89846 5.84614 6.61539 5.84614C6.33231 5.84614 6.10257 5.61589 6.10257 5.33332V3.53845H5.58974V5.33332C5.58974 5.89896 6.04974 6.35896 6.61539 6.35896C7.18103 6.35896 7.64103 5.89896 7.64103 5.33332V3.53845H7.12821Z" fill="black"/>
<path opacity="0.05" d="M17.641 3.53845V5.33332C17.641 5.47486 17.5256 5.58973 17.3846 5.58973C17.2436 5.58973 17.1282 5.47486 17.1282 5.33332V3.53845H16.1026V5.33332C16.1026 6.03999 16.6774 6.61538 17.3846 6.61538C18.0918 6.61538 18.6667 6.03999 18.6667 5.33332V3.53845H17.641Z" fill="black"/>
<path opacity="0.07" d="M17.8974 3.53845V5.33332C17.8974 5.61589 17.6677 5.84614 17.3846 5.84614C17.1015 5.84614 16.8718 5.61589 16.8718 5.33332V3.53845H16.359V5.33332C16.359 5.89896 16.819 6.35896 17.3846 6.35896C17.9503 6.35896 18.4103 5.89896 18.4103 5.33332V3.53845H17.8974Z" fill="black"/>
<path d="M17.3846 6.10256C16.96 6.10256 16.6154 5.75795 16.6154 5.33333V2.76923C16.6154 2.34462 16.96 2 17.3846 2C17.8092 2 18.1538 2.34462 18.1538 2.76923V5.33333C18.1538 5.75795 17.8092 6.10256 17.3846 6.10256Z" fill="#54DAFF"/>
<path d="M6.61538 6.10256C6.19077 6.10256 5.84615 5.75795 5.84615 5.33333V2.76923C5.84615 2.34462 6.19077 2 6.61538 2C7.04 2 7.38461 2.34462 7.38461 2.76923V5.33333C7.38461 5.75795 7.04 6.10256 6.61538 6.10256Z" fill="#54DAFF"/>
<defs>
<linearGradient id="paint0_linear_40_5852" x1="11.4974" y1="2.69845" x2="12.5451" y2="9.71486" gradientUnits="userSpaceOnUse">
<stop offset="0.042" stop-color="#076DB4"/>
<stop offset="0.85" stop-color="#0461AF"/>
</linearGradient>
<linearGradient id="paint1_linear_40_5852" x1="10.7872" y1="3.75227" x2="13.8292" y2="30.3041" gradientUnits="userSpaceOnUse">
<stop stop-color="#33BEF0"/>
<stop offset="1" stop-color="#0A85D9"/>
</linearGradient>
</defs>
</svg>
