<svg width="24" height="24" viewBox="0 0 24 24" fill="none" xmlns="http://www.w3.org/2000/svg">
<path d="M2 16.7477V6.05005H20.6047V16.7477C20.6047 17.2594 20.186 17.678 19.6744 17.678H2.93023C2.4186 17.678 2 17.2594 2 16.7477Z" fill="url(#paint0_linear_40_5889)"/>
<path d="M20.6047 3.72442V6.05H2V3.72442C2 3.21279 2.4186 2.79419 2.93023 2.79419H19.6744C20.186 2.79419 20.6047 3.21279 20.6047 3.72442Z" fill="url(#paint1_linear_40_5889)"/>
<path d="M3.62791 5.11971C4.01322 5.11971 4.32558 4.80735 4.32558 4.42204C4.32558 4.03673 4.01322 3.72437 3.62791 3.72437C3.2426 3.72437 2.93023 4.03673 2.93023 4.42204C2.93023 4.80735 3.2426 5.11971 3.62791 5.11971Z" fill="url(#paint2_linear_40_5889)"/>
<path d="M5.95349 5.11971C6.3388 5.11971 6.65116 4.80735 6.65116 4.42204C6.65116 4.03673 6.3388 3.72437 5.95349 3.72437C5.56818 3.72437 5.25581 4.03673 5.25581 4.42204C5.25581 4.80735 5.56818 5.11971 5.95349 5.11971Z" fill="url(#paint3_linear_40_5889)"/>
<path d="M8.27907 5.11971C8.66438 5.11971 8.97674 4.80735 8.97674 4.42204C8.97674 4.03673 8.66438 3.72437 8.27907 3.72437C7.89376 3.72437 7.5814 4.03673 7.5814 4.42204C7.5814 4.80735 7.89376 5.11971 8.27907 5.11971Z" fill="url(#paint4_linear_40_5889)"/>
<path opacity="0.05" d="M20.6047 16.7476V12.8183C20.0721 12.3769 19.4581 12.0379 18.8005 11.8435L18.4005 11.7253L18.2395 12.1104C18.0888 12.4714 17.7391 12.7044 17.3484 12.7044C16.9577 12.7044 16.6079 12.4714 16.4572 12.11L16.2958 11.7249L15.8958 11.8435C15.1288 12.0709 14.4144 12.4844 13.8298 13.0397L13.5279 13.3267L13.78 13.6579C14.0163 13.969 14.0428 14.3881 13.8474 14.7262C13.6758 15.0239 13.3544 15.209 13.0093 15.209C12.9693 15.209 12.9288 15.2067 12.8884 15.2011L12.4744 15.149L12.3777 15.5551C12.2809 15.9574 12.2326 16.3583 12.2326 16.7476C12.2326 17.0528 12.2712 17.3649 12.3302 17.6779H19.6744C20.186 17.6779 20.6047 17.2593 20.6047 16.7476Z" fill="black"/>
<path opacity="0.07" d="M20.6047 16.7477V14.7314C20.4619 14.4146 20.4623 14.0612 20.6047 13.7495V13.1216C20.0647 12.6365 19.4237 12.27 18.7344 12.0663L18.5344 12.0072L18.454 12.1998C18.267 12.6477 17.833 12.937 17.3484 12.937C16.8637 12.937 16.4298 12.6477 16.2428 12.1998L16.1623 12.0072L15.9623 12.0663C15.2307 12.283 14.5484 12.6779 13.9902 13.2081L13.8391 13.3519L13.9651 13.5174C14.2581 13.9035 14.2912 14.4235 14.0488 14.8426C13.8358 15.2119 13.4377 15.4416 13.0093 15.4416C12.9595 15.4416 12.9093 15.4384 12.8591 15.4319L12.6521 15.4058L12.6037 15.6091C12.5116 15.9942 12.4651 16.3774 12.4651 16.7477C12.4651 17.0523 12.5042 17.3644 12.566 17.6779H19.6744C20.186 17.6779 20.6047 17.2593 20.6047 16.7477Z" fill="black"/>
<path d="M21.8674 15.663C21.313 15.7337 20.7442 15.4737 20.447 14.9589C20.1502 14.4444 20.2088 13.8221 20.547 13.377C20.0219 12.8784 19.3819 12.5002 18.6688 12.2896C18.453 12.8063 17.9433 13.1695 17.3484 13.1695C16.7535 13.1695 16.2437 12.8058 16.0279 12.2896C15.3149 12.5007 14.6753 12.8779 14.1498 13.377C14.4879 13.8221 14.547 14.4444 14.2498 14.9589C13.953 15.4733 13.3842 15.7333 12.8293 15.663C12.7465 16.0114 12.6977 16.3733 12.6977 16.7477C12.6977 17.1221 12.7465 17.484 12.8302 17.8323C13.3847 17.7616 13.9535 18.0221 14.2507 18.5365C14.5474 19.0509 14.4888 19.6733 14.1507 20.1184C14.6758 20.617 15.3158 20.9951 16.0288 21.2058C16.2447 20.6891 16.7544 20.3258 17.3493 20.3258C17.9442 20.3258 18.454 20.6895 18.6698 21.2058C19.3828 20.9947 20.0223 20.6175 20.5479 20.1184C20.2098 19.6733 20.1502 19.0509 20.4479 18.5365C20.7447 18.0221 21.3135 17.7621 21.8684 17.8323C21.9512 17.484 22 17.1221 22 16.7477C22 16.3733 21.9512 16.0114 21.8674 15.663Z" fill="url(#paint5_linear_40_5889)"/>
<path d="M17.3488 19.0733C18.6332 19.0733 19.6744 18.0321 19.6744 16.7477C19.6744 15.4633 18.6332 14.4221 17.3488 14.4221C16.0645 14.4221 15.0233 15.4633 15.0233 16.7477C15.0233 18.0321 16.0645 19.0733 17.3488 19.0733Z" fill="url(#paint6_linear_40_5889)"/>
<path d="M17.3488 18.143C18.1194 18.143 18.7442 17.5182 18.7442 16.7476C18.7442 15.977 18.1194 15.3523 17.3488 15.3523C16.5782 15.3523 15.9535 15.977 15.9535 16.7476C15.9535 17.5182 16.5782 18.143 17.3488 18.143Z" fill="url(#paint7_linear_40_5889)"/>
<defs>
<linearGradient id="paint0_linear_40_5889" x1="7.86578" y1="6.22857" x2="11.9926" y2="18.9592" gradientUnits="userSpaceOnUse">
<stop stop-color="#7DD8F3"/>
<stop offset="1" stop-color="#45B0D0"/>
</linearGradient>
<linearGradient id="paint1_linear_40_5889" x1="2.28558" y1="2.67372" x2="20.1098" y2="6.29791" gradientUnits="userSpaceOnUse">
<stop stop-color="#0077D2"/>
<stop offset="1" stop-color="#0B59A2"/>
</linearGradient>
<linearGradient id="paint2_linear_40_5889" x1="3.27954" y1="3.91785" x2="3.87535" y2="4.77971" gradientUnits="userSpaceOnUse">
<stop stop-color="#75DAFF"/>
<stop offset="1" stop-color="#49BEF1"/>
</linearGradient>
<linearGradient id="paint3_linear_40_5889" x1="5.60512" y1="3.91785" x2="6.20093" y2="4.77971" gradientUnits="userSpaceOnUse">
<stop stop-color="#75DAFF"/>
<stop offset="1" stop-color="#49BEF1"/>
</linearGradient>
<linearGradient id="paint4_linear_40_5889" x1="7.9307" y1="3.91785" x2="8.52651" y2="4.77971" gradientUnits="userSpaceOnUse">
<stop stop-color="#75DAFF"/>
<stop offset="1" stop-color="#49BEF1"/>
</linearGradient>
<linearGradient id="paint5_linear_40_5889" x1="14.1809" y1="13.5798" x2="20.8028" y2="20.2016" gradientUnits="userSpaceOnUse">
<stop stop-color="#889097"/>
<stop offset="0.331" stop-color="#848C94"/>
<stop offset="0.669" stop-color="#78828B"/>
<stop offset="1" stop-color="#64717C"/>
</linearGradient>
<linearGradient id="paint6_linear_40_5889" x1="18.9693" y1="18.3682" x2="15.707" y2="15.1058" gradientUnits="userSpaceOnUse">
<stop stop-color="white"/>
<stop offset="0.242" stop-color="#F2F2F2"/>
<stop offset="1" stop-color="#CCCCCC"/>
</linearGradient>
<linearGradient id="paint7_linear_40_5889" x1="16.0433" y1="15.4421" x2="18.3335" y2="17.7323" gradientUnits="userSpaceOnUse">
<stop stop-color="#0D61A9"/>
<stop offset="0.363" stop-color="#0E5FA4"/>
<stop offset="0.78" stop-color="#135796"/>
<stop offset="1" stop-color="#16528C"/>
</linearGradient>
</defs>
</svg>
