<svg width="24" height="24" viewBox="0 0 24 24" fill="none" xmlns="http://www.w3.org/2000/svg">
<path d="M9.8941 12.5382L2.00474 12.5245L2.00526 18.3154C2.00526 18.8412 2.39318 19.2859 2.91373 19.3581L9.8941 20.3239V12.5382Z" fill="url(#paint0_linear_40_5846)"/>
<path d="M10.9468 12.5403V20.4696L20.801 21.8329C21.4337 21.9203 21.9979 21.4292 21.9979 20.7902L22 12.5592L10.9468 12.5403Z" fill="url(#paint1_linear_40_5846)"/>
<path d="M9.8941 3.71143L2.90531 4.70095C2.38581 4.77464 1.99947 5.2194 2 5.74416L2.00632 11.4719H9.8941V3.71143Z" fill="url(#paint2_linear_40_5846)"/>
<path d="M10.9468 3.56244V11.4718H21.9974V3.20979C21.9974 2.56976 21.431 2.07762 20.7973 2.16763L10.9468 3.56244Z" fill="url(#paint3_linear_40_5846)"/>
<defs>
<linearGradient id="paint0_linear_40_5846" x1="4.47434" y1="13.1135" x2="8.09664" y2="19.1512" gradientUnits="userSpaceOnUse">
<stop stop-color="#1784D8"/>
<stop offset="1" stop-color="#0864C5"/>
</linearGradient>
<linearGradient id="paint1_linear_40_5846" x1="12.3174" y1="13.6456" x2="22.8132" y2="20.8907" gradientUnits="userSpaceOnUse">
<stop stop-color="#31ABEC"/>
<stop offset="1" stop-color="#1582D5"/>
</linearGradient>
<linearGradient id="paint2_linear_40_5846" x1="3.65272" y1="5.52363" x2="12.9406" y2="13.8831" gradientUnits="userSpaceOnUse">
<stop stop-color="#31ABEC"/>
<stop offset="1" stop-color="#1582D5"/>
</linearGradient>
<linearGradient id="paint3_linear_40_5846" x1="13.0064" y1="4.70671" x2="28.8588" y2="15.4815" gradientUnits="userSpaceOnUse">
<stop stop-color="#54DAFF"/>
<stop offset="1" stop-color="#25A2E5"/>
</linearGradient>
</defs>
</svg>
