<svg width="24" height="24" viewBox="0 0 24 24" fill="none" xmlns="http://www.w3.org/2000/svg">
<path d="M5.73332 8.93359C7.5006 8.93359 8.93327 7.50092 8.93327 5.73364C8.93327 3.96636 7.5006 2.53369 5.73332 2.53369C3.96604 2.53369 2.53337 3.96636 2.53337 5.73364C2.53337 7.50092 3.96604 8.93359 5.73332 8.93359Z" fill="#33C481"/>
<path d="M20.6664 21.7334H16.3998C15.8105 21.7334 15.3332 21.2561 15.3332 20.6667V16.4001C15.3332 15.8108 15.8105 15.3335 16.3998 15.3335H20.6664C21.2557 15.3335 21.7331 15.8108 21.7331 16.4001V20.6667C21.7331 21.2561 21.2557 21.7334 20.6664 21.7334Z" fill="url(#paint0_linear_40_5901)"/>
<path d="M17.9987 8.97889L15.2878 6.26799C14.9924 5.97253 14.9924 5.49414 15.2878 5.19921L17.9987 2.48832C18.2942 2.19286 18.7726 2.19286 19.0675 2.48832L21.7784 5.19921C22.0739 5.49467 22.0739 5.97307 21.7784 6.26799L19.0675 8.97889C18.7726 9.27381 18.2937 9.27381 17.9987 8.97889Z" fill="url(#paint1_linear_40_5901)"/>
<path d="M5.73332 14.2668C5.43892 14.2668 5.2 14.0279 5.2 13.7335V11.0669C5.2 10.7725 5.43892 10.5336 5.73332 10.5336C6.02772 10.5336 6.26665 10.7725 6.26665 11.0669V13.7335C6.26665 14.0279 6.02772 14.2668 5.73332 14.2668Z" fill="#7A848D"/>
<path d="M18.5331 13.7335C18.2387 13.7335 17.9998 13.4946 17.9998 13.2002V10.5336C17.9998 10.2392 18.2387 10.0002 18.5331 10.0002C18.8275 10.0002 19.0664 10.2392 19.0664 10.5336V13.2002C19.0664 13.4946 18.8275 13.7335 18.5331 13.7335Z" fill="#7A848D"/>
<path d="M13.1999 6.26697H10.5332C10.2388 6.26697 9.99992 6.02804 9.99992 5.73364C9.99992 5.43925 10.2388 5.20032 10.5332 5.20032H13.1999C13.4943 5.20032 13.7332 5.43925 13.7332 5.73364C13.7332 6.02804 13.4943 6.26697 13.1999 6.26697Z" fill="#7A848D"/>
<path d="M8.93327 21.7333H2.53337C2.34137 21.7333 2.16378 21.6299 2.06938 21.4629C1.97444 21.296 1.97711 21.0907 2.07631 20.9259L5.27626 15.5926C5.46879 15.271 5.99838 15.271 6.19091 15.5926L9.39086 20.9259C9.49006 21.0907 9.49219 21.296 9.3978 21.4629C9.30286 21.6299 9.12527 21.7333 8.93327 21.7333Z" fill="#ED6C47"/>
<path d="M6.26664 11.6002H5.19999C4.98453 11.6002 4.78987 11.4701 4.7072 11.2712C4.62454 11.0717 4.6704 10.8424 4.82293 10.6898L5.35626 10.1565C5.56479 9.94799 5.90185 9.94799 6.11038 10.1565L6.64371 10.6898C6.79624 10.8424 6.8421 11.0717 6.75944 11.2712C6.67677 11.4701 6.48211 11.6002 6.26664 11.6002Z" fill="#7A848D"/>
<path d="M12.6665 6.26695V5.2003C12.6665 4.98483 12.7967 4.79017 12.9956 4.7075C13.1951 4.62484 13.4244 4.6707 13.5769 4.82324L14.1103 5.35656C14.3188 5.56509 14.3188 5.90215 14.1103 6.11068L13.5769 6.64401C13.4244 6.79654 13.1951 6.8424 12.9956 6.75974C12.7967 6.67707 12.6665 6.48241 12.6665 6.26695Z" fill="#7A848D"/>
<path d="M17.9998 12.6669H19.0664C19.2819 12.6669 19.4766 12.797 19.5592 12.9959C19.6419 13.1954 19.596 13.4247 19.4435 13.5773L18.9102 14.1106C18.7017 14.3191 18.3646 14.3191 18.1561 14.1106L17.6227 13.5773C17.4702 13.4247 17.4243 13.1954 17.507 12.9959C17.5897 12.797 17.7843 12.6669 17.9998 12.6669Z" fill="#7A848D"/>
<defs>
<linearGradient id="paint0_linear_40_5901" x1="15.3332" y1="18.5334" x2="21.7331" y2="18.5334" gradientUnits="userSpaceOnUse">
<stop stop-color="#C965EB"/>
<stop offset="1" stop-color="#C767E5"/>
</linearGradient>
<linearGradient id="paint1_linear_40_5901" x1="15.0665" y1="5.7336" x2="22.0003" y2="5.7336" gradientUnits="userSpaceOnUse">
<stop stop-color="#42A3F2"/>
<stop offset="1" stop-color="#42A4EB"/>
</linearGradient>
</defs>
</svg>
