<svg width="24" height="24" viewBox="0 0 24 24" fill="none" xmlns="http://www.w3.org/2000/svg">
<path d="M19.9325 11.5594C19.9325 15.9399 16.3805 19.4919 12 19.4919C7.61948 19.4919 4.06747 15.9399 4.06747 11.5594C4.06747 7.17884 7.61904 3.62683 12 3.62683C16.3809 3.62683 19.9325 7.1784 19.9325 11.5594Z" fill="url(#paint0_linear_40_5913)"/>
<path d="M15.9768 14.3816L16.2761 14.6381V14.9373L15.8913 15.3648C15.8486 15.4075 15.8058 15.493 15.7631 15.5358L15.4639 16.177C15.4211 16.2625 15.3356 16.3907 15.2501 16.4335L14.6089 16.9464L14.5662 16.9892L13.839 17.6304L13.5825 17.8441L13.2833 18.0151L13.1123 18.1006L12.8558 18.3144L12.7276 18.9895L12.349 19.4831L12.2164 19.0159L12.0859 18.5281L12.2569 18.2289L12.2142 17.8441L12.4279 17.5022L12.5561 16.6895C12.5989 16.3903 12.4707 16.091 12.2142 15.9196C12.0859 15.8341 12.0004 15.7059 11.9149 15.5776L11.6584 14.9792L11.402 14.8082V14.5944L11.4875 14.338L11.5302 14.0815L11.8722 13.7822L11.3592 13.312C11.3165 13.2693 11.3165 13.2693 11.2737 13.2265L10.889 12.9273C10.889 12.9273 10.8462 12.9273 10.8462 12.8845L10.205 12.4571C10.1623 12.4143 10.1195 12.4143 10.034 12.3716L9.64932 12.2433C9.60657 12.2433 9.56382 12.2006 9.52108 12.2006L8.83712 11.8159C8.75162 11.7731 8.66613 11.6876 8.62338 11.6021L8.1959 11.0464C8.15316 10.9609 8.11041 10.9182 8.06766 10.8327L7.76843 9.97727C7.72568 9.89178 7.68294 9.80628 7.64019 9.76354L7.59744 9.67804C7.51195 9.5498 7.42645 9.37881 7.42645 9.20782V8.99408C7.42645 8.90859 7.42645 8.82309 7.4692 8.7376L7.76843 7.9677C7.81118 7.83946 7.81118 7.71122 7.81118 7.58298L7.59744 6.17187L7.2537 6.08593L6.78348 6.38517L6.69754 6.08593L7.63842 5.40153V5.1878L8.15139 4.97406C8.32238 4.88856 8.49337 4.88856 8.66436 4.93131L10.332 5.35879L10.6739 5.40153L11.2297 5.35879L11.2728 5.65846L10.4602 6.5566L10.5884 6.89858L10.8449 6.85583L11.4434 7.19781L11.7426 7.06957L11.8281 6.17143H12.1701L12.7258 6.42791C12.8541 6.47066 12.9823 6.5989 13.0678 6.72715L13.1533 6.85539C13.196 6.89814 13.2388 6.98363 13.3243 7.02638L13.6663 7.32561C13.7518 7.41111 13.7945 7.45385 13.88 7.53935L14.222 8.18056L14.051 8.35155L13.4953 8.52254L13.1533 8.56529L12.5548 8.99276L12.5121 9.03551L12.3411 9.16375C12.2128 9.24925 12.1273 9.37749 12.0846 9.50573L12.0419 9.59123C11.9991 9.71947 11.9136 9.84771 11.8281 9.93321L11.3151 10.4034L11.1014 10.5317L9.64756 10.7882L9.60481 10.9164C9.56206 11.1301 9.60481 11.3866 9.7758 11.5576L10.0323 11.8568C10.1178 11.9423 10.246 12.0278 10.3743 12.0706L10.8017 12.2416C10.8872 12.2843 10.9727 12.3271 11.0582 12.4126L11.9136 13.2252L12.0846 13.0115L12.2983 12.8832C12.4693 12.7977 12.6403 12.755 12.8113 12.7977L13.4953 12.926L13.7518 13.097L14.4785 13.4817L15.8896 14.2943C15.9341 14.2961 15.9768 14.3388 15.9768 14.3816ZM13.3683 5.53022L13.5393 5.8722L14.0096 6.34242L14.266 6.47066L14.3943 6.34242V5.57296L14.608 5.27373L14.6935 5.05999L13.9236 4.41878C13.8381 4.33329 13.7526 4.29054 13.6244 4.24779L13.3256 4.07636C13.1546 3.99087 13.0264 3.94812 12.8554 3.94812C12.6416 3.94812 12.4707 3.94812 12.2569 4.03361L12.0855 4.07636L12 4.2901L12.2565 4.54658L13.3683 5.53022ZM18.3716 8.90815L18.2861 8.181L18.5853 8.05276L18.97 8.82265L19.3481 8.57807C18.6347 6.8219 17.3117 5.38258 15.6406 4.51662L17.046 7.19781L17.9441 8.01045V8.26694L17.7304 8.35243L17.9441 9.12233H18.2433L18.3716 8.90815ZM18.0913 16.6379C19.2397 15.2617 19.9325 13.4918 19.9325 11.5594C19.9325 10.8212 19.8241 10.1095 19.635 9.43125L19.3975 9.33562L19.312 9.63485L18.97 9.20738L18.4143 9.42112L18.1151 9.7631L18.2433 10.1051L17.9868 10.4471V12.2429L18.5426 13.0128L18.8845 12.8418L19.141 12.5426L19.3548 12.7136C19.3975 13.7399 18.2446 16.0994 18.2446 16.0994L18.0913 16.6379Z" fill="url(#paint1_linear_40_5913)"/>
<path d="M19.9325 20.3732H15.0849V11.5593H20.3732C20.6165 11.5593 20.8139 11.7568 20.8139 12V19.4918C20.8139 19.9788 20.4195 20.3732 19.9325 20.3732Z" fill="url(#paint2_linear_40_5913)"/>
<path d="M15.0849 20.3732H4.06749C3.58052 20.3732 3.1861 19.9788 3.1861 19.4918V12C3.1861 11.7568 3.38353 11.5593 3.62679 11.5593H15.9663V19.4918C15.9663 19.9788 15.5718 20.3732 15.0849 20.3732Z" fill="url(#paint3_linear_40_5913)"/>
<path d="M15.9663 11.5593H3.45844C3.29142 11.5593 3.13894 11.6536 3.06446 11.803L2.02353 13.8849C1.95038 14.0312 2.05659 14.2035 2.22053 14.2035H14.3718C14.5388 14.2035 14.6913 14.1092 14.7658 13.9598L15.9663 11.5593Z" fill="url(#paint4_linear_40_5913)"/>
<path d="M15.9663 11.5593H20.5416C20.7086 11.5593 20.8611 11.6536 20.9355 11.803L21.9765 13.8849C22.0496 14.0312 21.9434 14.2035 21.7795 14.2035H17.5607C17.3937 14.2035 17.2412 14.1092 17.1667 13.9598L15.9663 11.5593Z" fill="url(#paint5_linear_40_5913)"/>
<defs>
<linearGradient id="paint0_linear_40_5913" x1="6.39082" y1="5.95018" x2="17.7061" y2="17.2655" gradientUnits="userSpaceOnUse">
<stop stop-color="#00BFFE"/>
<stop offset="1" stop-color="#1D55C4"/>
</linearGradient>
<linearGradient id="paint1_linear_40_5913" x1="6.71869" y1="4.46065" x2="19.0357" y2="16.7781" gradientUnits="userSpaceOnUse">
<stop stop-color="#84E1FE"/>
<stop offset="1" stop-color="#167CF7"/>
</linearGradient>
<linearGradient id="paint2_linear_40_5913" x1="14.3216" y1="12.3618" x2="21.1409" y2="19.3834" gradientUnits="userSpaceOnUse">
<stop stop-color="#EBA600"/>
<stop offset="1" stop-color="#C28200"/>
</linearGradient>
<linearGradient id="paint3_linear_40_5913" x1="4.57517" y1="10.555" x2="14.6362" y2="20.9149" gradientUnits="userSpaceOnUse">
<stop stop-color="#FFD869"/>
<stop offset="1" stop-color="#FEC52B"/>
</linearGradient>
<linearGradient id="paint4_linear_40_5913" x1="8.983" y1="14.0889" x2="8.983" y2="0.114023" gradientUnits="userSpaceOnUse">
<stop stop-color="#EBA600"/>
<stop offset="1" stop-color="#C28200"/>
</linearGradient>
<linearGradient id="paint5_linear_40_5913" x1="18.9833" y1="14.0841" x2="18.9833" y2="12.2521" gradientUnits="userSpaceOnUse">
<stop stop-color="#FFD869"/>
<stop offset="1" stop-color="#FEC52B"/>
</linearGradient>
</defs>
</svg>
