<svg width="24" height="24" viewBox="0 0 24 24" fill="none" xmlns="http://www.w3.org/2000/svg">
<path d="M14.2502 13.2894L10.7107 9.74988L5.45867 15.0019C3.54467 15.0244 2.00017 16.5809 2.00017 18.4999C2.00017 20.4329 3.56717 21.9999 5.50017 21.9999C7.41917 21.9999 8.97567 20.4549 8.99817 18.5414L14.2502 13.2894Z" fill="url(#paint0_linear_40_5921)"/>
<path d="M18.9502 8.55886C17.9812 9.52786 16.4102 9.52786 15.4412 8.55886C14.4722 7.58986 14.4722 6.01886 15.4412 5.04986C15.6777 4.81336 16.6307 3.86036 17.6012 2.88986C17.8342 2.65686 17.7307 2.25036 17.4112 2.17186C16.6242 1.97836 15.7777 1.93786 14.8972 2.10386C12.3147 2.59086 10.3007 4.75186 10.0327 7.36636C9.64167 11.1784 12.8232 14.3594 16.6352 13.9674C19.2492 13.6989 21.4102 11.6849 21.8962 9.10236C22.0622 8.22186 22.0212 7.37586 21.8277 6.58936C21.7492 6.26986 21.3427 6.16636 21.1097 6.39936C20.1397 7.36936 19.1867 8.32236 18.9502 8.55886Z" fill="url(#paint1_linear_40_5921)"/>
<path d="M5.50017 20.4999C6.60474 20.4999 7.50017 19.6045 7.50017 18.4999C7.50017 17.3953 6.60474 16.4999 5.50017 16.4999C4.3956 16.4999 3.50017 17.3953 3.50017 18.4999C3.50017 19.6045 4.3956 20.4999 5.50017 20.4999Z" fill="url(#paint2_linear_40_5921)"/>
<path d="M5.50017 19.4999C6.05245 19.4999 6.50017 19.0522 6.50017 18.4999C6.50017 17.9476 6.05245 17.4999 5.50017 17.4999C4.94789 17.4999 4.50017 17.9476 4.50017 18.4999C4.50017 19.0522 4.94789 19.4999 5.50017 19.4999Z" fill="url(#paint3_linear_40_5921)"/>
<defs>
<linearGradient id="paint0_linear_40_5921" x1="3.21767" y1="20.7824" x2="11.8412" y2="12.1589" gradientUnits="userSpaceOnUse">
<stop offset="0.503" stop-color="#A1AAB3"/>
<stop offset="0.658" stop-color="#9EA7AF"/>
<stop offset="0.796" stop-color="#949DA5"/>
<stop offset="0.928" stop-color="#848C92"/>
<stop offset="1" stop-color="#787F85"/>
</linearGradient>
<linearGradient id="paint1_linear_40_5921" x1="11.4207" y1="4.00086" x2="19.7742" y2="12.3544" gradientUnits="userSpaceOnUse">
<stop stop-color="#A1AAB3"/>
<stop offset="1" stop-color="#8F979E"/>
</linearGradient>
<linearGradient id="paint2_linear_40_5921" x1="6.89467" y1="19.8944" x2="4.09117" y2="17.0909" gradientUnits="userSpaceOnUse">
<stop stop-color="white"/>
<stop offset="0.242" stop-color="#F2F2F2"/>
<stop offset="1" stop-color="#CCCCCC"/>
</linearGradient>
<linearGradient id="paint3_linear_40_5921" x1="4.56467" y1="17.5644" x2="6.20567" y2="19.2054" gradientUnits="userSpaceOnUse">
<stop stop-color="#0D61A9"/>
<stop offset="0.363" stop-color="#0E5FA4"/>
<stop offset="0.78" stop-color="#135796"/>
<stop offset="1" stop-color="#16528C"/>
</linearGradient>
</defs>
</svg>
