<svg width="24" height="24" viewBox="0 0 24 24" fill="none" xmlns="http://www.w3.org/2000/svg">
<path d="M19.8947 7.78947V19.8947C19.8947 21.0526 18.9474 22 17.7895 22H5.84211C4.89474 22 4.10527 21.2105 4.10527 20.2632V3.94737C4.10527 2.89474 4.94738 2 6.05264 2H14.1053L19.8947 7.78947Z" fill="url(#paint0_linear_40_5934)"/>
<path d="M14.1053 2V6.73684C14.1053 7.31579 14.579 7.78947 15.1579 7.78947H19.8947L14.1053 2Z" fill="url(#paint1_linear_40_5934)"/>
<path d="M4.21053 9.31583L2.57895 7.05268C2.31579 6.68426 2.57895 6.21057 3 6.21057H6.21053C6.63158 6.21057 6.89474 6.68426 6.63158 7.05268L5 9.31583C4.84211 9.57899 4.42106 9.57899 4.21053 9.31583Z" fill="#2D7AD4"/>
<path d="M19.7895 15.2106L21.4211 17.4737C21.6842 17.8421 21.4211 18.3158 21 18.3158H17.7895C17.3684 18.3158 17.1053 17.8421 17.3684 17.4737L19 15.2106C19.1579 14.9474 19.579 14.9474 19.7895 15.2106Z" fill="#2D7AD4"/>
<path d="M4.63158 7.31584V3.579C4.63158 3.00005 5.10526 2.52637 5.68421 2.52637H14.1053" stroke="#2D7AD4" stroke-miterlimit="10"/>
<path d="M19.3684 16.7368V20.421C19.3684 21 18.8947 21.4737 18.3158 21.4737H9.36842" stroke="#2D7AD4" stroke-miterlimit="10"/>
<path d="M12 22H5.68422C4.78948 22 4.10527 21.3158 4.10527 20.4211V12.2632C4.10527 12.1053 4.21053 12 4.36843 12H4.89474C5.05264 12 5.1579 12.1053 5.1579 12.2632V20.4211C5.1579 20.7368 5.36843 20.9474 5.68422 20.9474H12V22Z" fill="#2D7AD4"/>
<path d="M19.6316 12.5263H19.1053C18.9474 12.5263 18.8421 12.421 18.8421 12.2631V7.78943H19.8947V12.2631C19.8947 12.421 19.7895 12.5263 19.6316 12.5263Z" fill="#2C7BD4"/>
<path d="M10.1579 14.7368H9.26317L8.68422 13.6316C8.68422 13.579 8.63159 13.5263 8.63159 13.4211C8.63159 13.4737 8.57895 13.5263 8.57895 13.6316L8.00001 14.6842H7.10527L8.1579 13L7.21053 11.3158H8.10527L8.57895 12.3158C8.63159 12.3684 8.63159 12.4737 8.68422 12.579C8.68422 12.5263 8.73685 12.4211 8.78948 12.3158L9.3158 11.3158H10.1579L9.1579 12.9474L10.1579 14.7368Z" fill="#0D61A9"/>
<path d="M14.4737 14.7368H13.7368V12.7368C13.7368 12.5263 13.7368 12.2631 13.7895 12.0526C13.7368 12.2631 13.7368 12.421 13.6842 12.4737L12.8947 14.7368H12.2632L11.4737 12.5263C11.4737 12.4737 11.4211 12.3158 11.3684 12.0526C11.3684 12.3684 11.4211 12.6842 11.4211 12.8947V14.7368H10.7368V11.421H11.8421L12.5263 13.3684C12.579 13.5263 12.6316 13.6842 12.6316 13.8421C12.6842 13.6842 12.7368 13.4737 12.7895 13.3684L13.4737 11.421H14.5263V14.7368H14.4737Z" fill="#0D61A9"/>
<path d="M17.3158 14.7368H15.3158V11.421H16.0526V14.1579H17.2632V14.7368H17.3158Z" fill="#0D61A9"/>
<defs>
<linearGradient id="paint0_linear_40_5934" x1="9.08347" y1="2.30706" x2="20.1877" y2="19.2096" gradientUnits="userSpaceOnUse">
<stop stop-color="#7DD8F3"/>
<stop offset="1" stop-color="#45B0D0"/>
</linearGradient>
<linearGradient id="paint1_linear_40_5934" x1="14.3837" y1="7.51158" x2="17.0526" y2="4.8421" gradientUnits="userSpaceOnUse">
<stop stop-color="#3079D6"/>
<stop offset="1" stop-color="#297CD2"/>
</linearGradient>
</defs>
</svg>
