<svg width="24" height="24" viewBox="0 0 24 24" fill="none" xmlns="http://www.w3.org/2000/svg">
<path d="M21.5509 16.8C21.3514 17.8182 20.5036 18.5941 19.4564 18.7396C17.8105 18.9818 15.0673 19.2727 11.975 19.2727C8.93273 19.2727 6.18955 18.9818 4.49364 18.7396C3.44636 18.5941 2.59818 17.8182 2.39909 16.8C2.19955 15.685 2 14.0364 2 12C2 9.96366 2.19955 8.31502 2.39909 7.20002C2.59864 6.18184 3.44636 5.40593 4.49364 5.26048C6.13955 5.0182 8.88273 4.72729 11.975 4.72729C15.0673 4.72729 17.7605 5.0182 19.4564 5.26048C20.5036 5.40593 21.3518 6.18184 21.5509 7.20002C21.7505 8.31502 22 9.96366 22 12C21.95 14.0364 21.7505 15.685 21.5509 16.8Z" fill="url(#paint0_linear_40_5947)"/>
<path opacity="0.05" d="M15.7964 11.291L10.5982 7.82555C10.3359 7.65055 10.0009 7.63419 9.72318 7.78328C9.44545 7.93191 9.27273 8.21964 9.27273 8.53464V15.4655C9.27273 15.7805 9.44545 16.0687 9.72318 16.2173C9.84955 16.2851 9.98727 16.3182 10.125 16.3182C10.2905 16.3182 10.455 16.2701 10.5977 16.1751L15.7959 12.7096C16.0336 12.551 16.1755 12.286 16.1755 12.0005C16.1759 11.7146 16.0336 11.4496 15.7964 11.291Z" fill="black"/>
<path opacity="0.07" d="M10.4914 8.01684L15.3959 11.2869C15.7091 11.5119 15.92 11.7132 15.92 11.9746C15.92 12.236 15.8182 12.4182 15.595 12.581C15.4264 12.7037 10.5745 15.9282 10.5745 15.9282C10.165 16.2028 9.5 16.1446 9.5 15.2469V8.70184C9.5 7.79047 10.22 7.83593 10.4914 8.01684Z" fill="black"/>
<path d="M9.72727 15.44V8.56043C9.72727 8.22271 10.1036 8.02089 10.385 8.20862L15.545 11.6487C15.7964 11.8159 15.7964 12.185 15.545 12.3528L10.385 15.7928C10.1036 15.9796 9.72727 15.7782 9.72727 15.44Z" fill="white"/>
<defs>
<linearGradient id="paint0_linear_40_5947" x1="5.55273" y1="5.57775" x2="19.8391" y2="19.8641" gradientUnits="userSpaceOnUse">
<stop stop-color="#F44F5A"/>
<stop offset="0.443" stop-color="#EE3D4A"/>
<stop offset="1" stop-color="#E52030"/>
</linearGradient>
</defs>
</svg>
