<svg width="46" height="45" viewBox="0 0 46 45" fill="none" xmlns="http://www.w3.org/2000/svg">
<path d="M37.7926 36.3623H7.54761V38.0426C7.54761 38.9709 8.29953 39.7229 9.22789 39.7229H36.1123C37.0407 39.7229 37.7926 38.9709 37.7926 38.0426V36.3623Z" fill="url(#paint0_linear_37_16)"/>
<path d="M37.7926 36.3623H7.54761V20.3997L22.6701 6.11731L37.7926 20.3997V36.3623Z" fill="url(#paint1_linear_37_16)"/>
<path opacity="0.05" d="M31.9117 25.8606V21.6599C31.9117 20.9651 31.3462 20.3997 30.6514 20.3997H14.6888C13.994 20.3997 13.4286 20.9651 13.4286 21.6599V25.8606C13.4286 26.5554 13.994 27.1208 14.6888 27.1208C13.994 27.1208 13.4286 27.6862 13.4286 28.381V32.5817C13.4286 33.2765 13.994 33.8419 14.6888 33.8419H30.6514C31.3462 33.8419 31.9117 33.2765 31.9117 32.5817V28.381C31.9117 27.6862 31.3462 27.1208 30.6514 27.1208C31.3462 27.1208 31.9117 26.5554 31.9117 25.8606Z" fill="black"/>
<path opacity="0.05" d="M22.6701 6.95746C22.2719 6.95746 21.8737 7.0986 21.5561 7.38005L17.0538 11.422L7.54761 20.3997V24.928L22.6701 11.5177L37.7926 24.928V20.3997L28.2864 11.422L23.7841 7.38005C23.4666 7.0986 23.0683 6.95746 22.6701 6.95746Z" fill="black"/>
<path opacity="0.07" d="M22.6701 6.11731C22.2719 6.11731 21.8737 6.25761 21.5561 6.53738L17.0538 10.5566L7.54761 19.4831V23.9854L22.6701 10.6515L37.7926 23.9854V19.4831L28.2864 10.5566L23.7841 6.53738C23.4666 6.25761 23.0683 6.11731 22.6701 6.11731Z" fill="black"/>
<path d="M39.8888 19.9855L23.7841 5.69975C23.4666 5.4183 23.0683 5.27716 22.6701 5.27716C22.2719 5.27716 21.8737 5.4183 21.5561 5.69975L5.45145 19.9855C5.09859 20.2997 5.07423 20.8424 5.39768 21.1869L6.77215 22.6529C7.08216 22.9839 7.59885 23.0091 7.93994 22.7092L22.6701 9.83744L37.4003 22.71C37.7405 23.0091 38.258 22.9848 38.5681 22.6538L39.9425 21.1877C40.266 20.8424 40.2416 20.2997 39.8888 19.9855Z" fill="url(#paint2_linear_37_16)"/>
<path opacity="0.07" d="M14.6888 26.7007C14.225 26.7007 13.8487 26.3235 13.8487 25.8606V21.6599C13.8487 21.197 14.225 20.8198 14.6888 20.8198H30.6514C31.1152 20.8198 31.4916 21.197 31.4916 21.6599V25.8606C31.4916 26.3235 31.1152 26.7007 30.6514 26.7007H14.6888Z" fill="black"/>
<path d="M30.6515 26.2806H14.6888C14.4569 26.2806 14.2687 26.0925 14.2687 25.8606V21.6599C14.2687 21.428 14.4569 21.2398 14.6888 21.2398H30.6515C30.8833 21.2398 31.0715 21.428 31.0715 21.6599V25.8606C31.0715 26.0925 30.8833 26.2806 30.6515 26.2806Z" fill="#727D86"/>
<path d="M28.5511 24.6004C29.0151 24.6004 29.3912 24.2242 29.3912 23.7602C29.3912 23.2962 29.0151 22.9201 28.5511 22.9201C28.0871 22.9201 27.7109 23.2962 27.7109 23.7602C27.7109 24.2242 28.0871 24.6004 28.5511 24.6004Z" fill="#50E6FF"/>
<path opacity="0.07" d="M14.6888 33.4218C14.225 33.4218 13.8487 33.0446 13.8487 32.5817V28.381C13.8487 27.9181 14.225 27.5408 14.6888 27.5408H30.6514C31.1152 27.5408 31.4916 27.9181 31.4916 28.381V32.5817C31.4916 33.0446 31.1152 33.4218 30.6514 33.4218H14.6888Z" fill="black"/>
<path d="M30.6515 33.0018H14.6888C14.4569 33.0018 14.2687 32.8136 14.2687 32.5817V28.381C14.2687 28.1491 14.4569 27.9609 14.6888 27.9609H30.6515C30.8833 27.9609 31.0715 28.1491 31.0715 28.381V32.5817C31.0715 32.8136 30.8833 33.0018 30.6515 33.0018Z" fill="#727D86"/>
<path d="M28.5511 31.3215C29.0151 31.3215 29.3912 30.9453 29.3912 30.4813C29.3912 30.0173 29.0151 29.6412 28.5511 29.6412C28.0871 29.6412 27.7109 30.0173 27.7109 30.4813C27.7109 30.9453 28.0871 31.3215 28.5511 31.3215Z" fill="#50E6FF"/>
<defs>
<linearGradient id="paint0_linear_37_16" x1="7.54761" y1="38.0426" x2="37.7926" y2="38.0426" gradientUnits="userSpaceOnUse">
<stop stop-color="#C8D3DE"/>
<stop offset="1" stop-color="#C8D3DE"/>
</linearGradient>
<linearGradient id="paint1_linear_37_16" x1="14.3485" y1="12.2823" x2="28.8745" y2="40.3841" gradientUnits="userSpaceOnUse">
<stop stop-color="#FCFCFC"/>
<stop offset="0.495" stop-color="#F4F4F4"/>
<stop offset="0.946" stop-color="#E8E8E8"/>
<stop offset="1" stop-color="#E8E8E8"/>
</linearGradient>
<linearGradient id="paint2_linear_37_16" x1="22.6701" y1="5.01168" x2="22.6701" y2="23.5048" gradientUnits="userSpaceOnUse">
<stop stop-color="#1EA2E4"/>
<stop offset="1" stop-color="#1186CC"/>
</linearGradient>
</defs>
</svg>
