<svg width="45" height="45" viewBox="0 0 45 45" fill="none" xmlns="http://www.w3.org/2000/svg">
<path d="M32.6777 6.16669H10.2422C9.27964 6.16669 8.5 6.97882 8.5 7.9815V37.0185C8.5 38.0212 9.27964 38.8334 10.2422 38.8334H34.6333V8.20382C34.6333 7.07863 33.7579 6.16669 32.6777 6.16669Z" fill="url(#paint0_linear_40_42)"/>
<path d="M25.3 6.16669H35.1824C35.9104 6.16669 36.5 6.97882 36.5 7.9815V37.0185C36.5 38.0212 35.9104 38.8334 35.1824 38.8334H25.3V6.16669Z" fill="url(#paint1_linear_40_42)"/>
<path d="M12.8126 10.7037H11.6022C11.4352 10.7037 11.3 10.5685 11.3 10.4016V9.1911C11.3 9.02413 11.4352 8.88893 11.6022 8.88893H12.8117C12.9796 8.88893 13.1148 9.02413 13.1148 9.1911V10.4007C13.1148 10.5685 12.9796 10.7037 12.8126 10.7037Z" fill="#727D86"/>
<path d="M22.8071 10.7037H15.4262C15.2094 10.7037 15.0333 10.5277 15.0333 10.3108V9.28184C15.0333 9.06497 15.2094 8.88893 15.4262 8.88893H22.8071C23.024 8.88893 23.2 9.06497 23.2 9.28184V10.3108C23.2 10.5277 23.024 10.7037 22.8071 10.7037Z" fill="#727D86"/>
<path d="M12.8126 14.5148H11.6022C11.4352 14.5148 11.3 14.3796 11.3 14.2127V13.0031C11.3 12.8352 11.4352 12.7 11.6022 12.7H12.8117C12.9796 12.7 13.1148 12.8352 13.1148 13.0022V14.2118C13.1148 14.3796 12.9796 14.5148 12.8126 14.5148Z" fill="#727D86"/>
<path d="M22.8071 14.5148H15.4262C15.2094 14.5148 15.0333 14.3388 15.0333 14.1219V13.0929C15.0333 12.8761 15.2094 12.7 15.4262 12.7H22.8071C23.024 12.7 23.2 12.8761 23.2 13.0929V14.1219C23.2 14.3388 23.024 14.5148 22.8071 14.5148Z" fill="#727D86"/>
<path d="M12.7349 17.963H11.5244C11.3574 17.963 11.2222 17.8278 11.2222 17.6608V16.4513C11.2222 16.2834 11.3574 16.1482 11.5244 16.1482H12.734C12.9018 16.1482 13.037 16.2834 13.037 16.4503V17.6599C13.037 17.8278 12.9018 17.963 12.7349 17.963Z" fill="#727D86"/>
<path d="M22.8071 18.2482H15.4262C15.2094 18.2482 15.0333 18.0721 15.0333 17.8553V16.8263C15.0333 16.6094 15.2094 16.4334 15.4262 16.4334H22.8071C23.024 16.4334 23.2 16.6094 23.2 16.8263V17.8553C23.2 18.0721 23.024 18.2482 22.8071 18.2482Z" fill="#727D86"/>
<path d="M28.8504 20.0645C29.198 20.0645 29.5265 19.9348 29.7769 19.7007L33.4646 16.2353C33.7441 15.9721 33.8983 15.6192 33.8983 15.2408C33.8983 14.8624 33.745 14.5094 33.4664 14.2472L29.7769 10.7809C29.5265 10.5458 29.198 10.417 28.8504 10.417C28.1844 10.417 27.6336 10.8789 27.542 11.514L27.5283 11.6747L27.5274 18.8087L27.5401 18.953C27.6336 19.6054 28.1835 20.0645 28.8504 20.0645Z" fill="black" fill-opacity="0.15"/>
<path d="M28.8504 19.6109C29.0818 19.6109 29.3014 19.5247 29.4665 19.3695L33.1542 15.9041C33.3421 15.7281 33.4446 15.4922 33.4446 15.2408C33.4446 14.9894 33.3421 14.7535 33.1552 14.5775L29.4665 11.1121C29.3014 10.9569 29.0827 10.8707 28.8504 10.8707C28.4121 10.8707 28.0501 11.1684 27.9911 11.5785L27.9811 11.7083V18.8087L27.9911 18.9058C28.0501 19.3132 28.4112 19.6109 28.8504 19.6109Z" fill="black" fill-opacity="0.15"/>
<path d="M28.4394 11.6438C28.4847 11.3289 28.9167 11.2173 29.1553 11.4423L32.843 14.9077C32.941 14.9994 32.99 15.12 32.99 15.2407C32.99 15.3614 32.941 15.4821 32.843 15.5737L29.1553 19.0391C28.9167 19.2642 28.4847 19.1526 28.4394 18.8377C28.4366 18.8168 28.4348 18.795 28.4348 18.7733V11.7073C28.4348 11.6855 28.4366 11.6646 28.4394 11.6438Z" fill="#50E6FF"/>
<path d="M8.5 35.1H25.3V38.8334H10.3667C9.33574 38.8334 8.5 37.9976 8.5 36.9667V35.1Z" fill="#C8D3DE"/>
<defs>
<linearGradient id="paint0_linear_40_42" x1="14.7961" y1="12.8252" x2="31.805" y2="41.0296" gradientUnits="userSpaceOnUse">
<stop stop-color="#FCFCFC"/>
<stop offset="0.495" stop-color="#F4F4F4"/>
<stop offset="0.946" stop-color="#E8E8E8"/>
<stop offset="1" stop-color="#E8E8E8"/>
</linearGradient>
<linearGradient id="paint1_linear_40_42" x1="22.5" y1="5.67511" x2="22.5" y2="39.9178" gradientUnits="userSpaceOnUse">
<stop stop-color="#1EA2E4"/>
<stop offset="1" stop-color="#1186CC"/>
</linearGradient>
</defs>
</svg>
