<svg width="191" height="191" viewBox="0 0 191 191" fill="none" xmlns="http://www.w3.org/2000/svg">
<g clip-path="url(#clip0_12_32)">
<g filter="url(#filter0_i_12_32)">
<path d="M168.887 8H22.1129C14.3186 8 8 14.3186 8 22.1129V168.887C8 176.681 14.3186 183 22.1129 183H168.887C176.681 183 183 176.681 183 168.887V22.1129C183 14.3186 176.681 8 168.887 8Z" fill="white"/>
<path d="M168.887 8H22.1129C14.3186 8 8 14.3186 8 22.1129V168.887C8 176.681 14.3186 183 22.1129 183H168.887C176.681 183 183 176.681 183 168.887V22.1129C183 14.3186 176.681 8 168.887 8Z" fill="url(#paint0_linear_12_32)" fill-opacity="0.2"/>
<path d="M168.887 8H22.1129C14.3186 8 8 14.3186 8 22.1129V168.887C8 176.681 14.3186 183 22.1129 183H168.887C176.681 183 183 176.681 183 168.887V22.1129C183 14.3186 176.681 8 168.887 8Z" stroke="#D5EAF6" stroke-width="15"/>
</g>
<path d="M147.25 49H43.75C40.5875 49 38 51.5875 38 54.75V135.25C38 138.413 40.5875 141 43.75 141H147.25C150.413 141 153 138.413 153 135.25V54.75C153 51.5875 150.413 49 147.25 49Z" fill="url(#paint1_linear_12_32)"/>
<path d="M85.4375 74.875H140.062C140.856 74.875 141.5 74.231 141.5 73.4375V64.8125C141.5 64.019 140.856 63.375 140.062 63.375H85.4375C84.644 63.375 84 64.019 84 64.8125V73.4375C84 74.231 84.644 74.875 85.4375 74.875Z" fill="url(#paint2_linear_12_32)"/>
<path d="M75.375 72H52.375C50.788 72 49.5 70.712 49.5 69.125C49.5 67.538 50.788 66.25 52.375 66.25H75.375C76.962 66.25 78.25 67.538 78.25 69.125C78.25 70.712 76.962 72 75.375 72Z" fill="url(#paint3_linear_12_32)"/>
<path d="M85.4375 92.125H140.062C140.856 92.125 141.5 91.481 141.5 90.6875V82.0625C141.5 81.269 140.856 80.625 140.062 80.625H85.4375C84.644 80.625 84 81.269 84 82.0625V90.6875C84 91.481 84.644 92.125 85.4375 92.125Z" fill="url(#paint4_linear_12_32)"/>
<path d="M75.375 89.25H52.375C50.788 89.25 49.5 87.962 49.5 86.375C49.5 84.788 50.788 83.5 52.375 83.5H75.375C76.962 83.5 78.25 84.788 78.25 86.375C78.25 87.962 76.962 89.25 75.375 89.25Z" fill="url(#paint5_linear_12_32)"/>
<path d="M85.4375 129.5H94.0625C94.856 129.5 95.5 128.856 95.5 128.062V119.438C95.5 118.644 94.856 118 94.0625 118H85.4375C84.644 118 84 118.644 84 119.438V128.062C84 128.856 84.644 129.5 85.4375 129.5Z" fill="url(#paint6_linear_12_32)"/>
<path d="M138.625 109.375H104.125C102.538 109.375 101.25 108.087 101.25 106.5C101.25 104.913 102.538 103.625 104.125 103.625H138.625C140.212 103.625 141.5 104.913 141.5 106.5C141.5 108.087 140.212 109.375 138.625 109.375Z" fill="url(#paint7_linear_12_32)"/>
<path d="M138.625 126.625H104.125C102.538 126.625 101.25 125.337 101.25 123.75C101.25 122.163 102.538 120.875 104.125 120.875H138.625C140.212 120.875 141.5 122.163 141.5 123.75C141.5 125.337 140.212 126.625 138.625 126.625Z" fill="url(#paint8_linear_12_32)"/>
<path d="M92.625 120.875H86.875V126.625H92.625V120.875Z" fill="url(#paint9_linear_12_32)"/>
<path d="M85.4375 112.25H94.0625C94.856 112.25 95.5 111.606 95.5 110.812V102.188C95.5 101.394 94.856 100.75 94.0625 100.75H85.4375C84.644 100.75 84 101.394 84 102.188V110.812C84 111.606 84.644 112.25 85.4375 112.25Z" fill="url(#paint10_linear_12_32)"/>
<path d="M92.625 103.625H86.875V109.375H92.625V103.625Z" fill="url(#paint11_linear_12_32)"/>
<path d="M67.9503 117.386H67.8723C67.1186 119.642 65.6426 120.77 63.4444 120.77C62.0421 120.77 60.9112 120.243 60.054 119.189C59.1952 118.134 58.7662 116.715 58.7662 114.932C58.7662 112.57 59.355 110.609 60.5326 109.045C61.7094 107.481 63.2613 106.7 65.1874 106.7C65.9206 106.7 66.5743 106.902 67.15 107.306C67.7256 107.71 68.097 108.195 68.2648 108.761H68.3115C68.3392 108.504 68.4027 108.007 68.5026 107.272C68.5275 107.091 68.6821 106.951 68.8645 106.951H70.7542C70.9687 106.951 71.1357 107.141 71.1168 107.356C70.6491 112.629 70.4149 115.316 70.4149 115.419C70.4149 117.496 70.9533 118.535 72.0317 118.535C73.0159 118.535 73.8323 117.956 74.4809 116.796C75.1303 115.637 75.4542 114.133 75.4542 112.287C75.4542 109.559 74.578 107.332 72.8248 105.605C71.0715 103.88 68.6413 103.016 65.5317 103.016C62.5484 103.016 60.078 104.061 58.1213 106.148C56.1638 108.236 55.1854 110.849 55.1854 113.987C55.1854 117.082 56.1273 119.578 58.0118 121.478C59.8956 123.377 62.4346 124.327 65.6273 124.327C67.9058 124.327 69.8874 123.972 71.572 123.265C71.815 123.164 72.0798 123.332 72.0798 123.597V125.209C72.0798 125.361 71.9908 125.499 71.8507 125.554C70.0581 126.268 67.8475 126.625 65.2187 126.625C61.3665 126.625 58.2628 125.471 55.9077 123.163C53.5518 120.855 52.375 117.833 52.375 114.097C52.375 110.257 53.6204 107.072 56.1112 104.543C58.6028 102.014 61.7846 100.75 65.658 100.75C69.2899 100.75 72.2965 101.81 74.6779 103.929C77.0593 106.049 78.25 108.814 78.25 112.223C78.25 114.721 77.6036 116.77 76.3107 118.37C75.0186 119.97 73.4398 120.769 71.5771 120.769C69.1695 120.77 67.9606 119.642 67.9503 117.386ZM65.4537 108.934C64.3024 108.934 63.3729 109.501 62.6674 110.634C61.9604 111.767 61.6073 113.178 61.6073 114.868C61.6073 116.001 61.8451 116.895 62.3215 117.551C62.7972 118.206 63.4334 118.535 64.2287 118.535C65.38 118.535 66.2905 117.94 66.961 116.749C67.6308 115.558 67.9657 113.982 67.9657 112.019C67.9664 109.963 67.1281 108.934 65.4537 108.934Z" fill="white"/>
</g>
<defs>
<filter id="filter0_i_12_32" x="0.5" y="0.5" width="190" height="194" filterUnits="userSpaceOnUse" color-interpolation-filters="sRGB">
<feFlood flood-opacity="0" result="BackgroundImageFix"/>
<feBlend mode="normal" in="SourceGraphic" in2="BackgroundImageFix" result="shape"/>
<feColorMatrix in="SourceAlpha" type="matrix" values="0 0 0 0 0 0 0 0 0 0 0 0 0 0 0 0 0 0 127 0" result="hardAlpha"/>
<feOffset dy="4"/>
<feGaussianBlur stdDeviation="2"/>
<feComposite in2="hardAlpha" operator="arithmetic" k2="-1" k3="1"/>
<feColorMatrix type="matrix" values="0 0 0 0 0.8375 0 0 0 0 0.732812 0 0 0 0 0.732812 0 0 0 0.25 0"/>
<feBlend mode="normal" in2="shape" result="effect1_innerShadow_12_32"/>
</filter>
<linearGradient id="paint0_linear_12_32" x1="95.5" y1="16.4677" x2="95.5" y2="174.532" gradientUnits="userSpaceOnUse">
<stop stop-color="white"/>
<stop offset="0.472222" stop-color="#0D5176" stop-opacity="0.527778"/>
<stop offset="0.940972" stop-color="#12A6F7" stop-opacity="0.465278"/>
<stop offset="1" stop-opacity="0"/>
</linearGradient>
<linearGradient id="paint1_linear_12_32" x1="78.5404" y1="48.3589" x2="112.322" y2="141.262" gradientUnits="userSpaceOnUse">
<stop stop-color="#0077D2"/>
<stop offset="1" stop-color="#0B59A2"/>
</linearGradient>
<linearGradient id="paint2_linear_12_32" x1="95.5" y1="140.172" x2="95.5" y2="47.022" gradientUnits="userSpaceOnUse">
<stop stop-color="#7DD8F3"/>
<stop offset="0.377" stop-color="#7BD6F1"/>
<stop offset="0.596" stop-color="#72D0EC"/>
<stop offset="0.775" stop-color="#64C6E4"/>
<stop offset="0.931" stop-color="#50B8D7"/>
<stop offset="1" stop-color="#45B0D0"/>
</linearGradient>
<linearGradient id="paint3_linear_12_32" x1="38" y1="95" x2="153" y2="95" gradientUnits="userSpaceOnUse">
<stop stop-color="#11408A"/>
<stop offset="1" stop-color="#103F8F"/>
</linearGradient>
<linearGradient id="paint4_linear_12_32" x1="95.5" y1="141.414" x2="95.5" y2="47.459" gradientUnits="userSpaceOnUse">
<stop stop-color="#7DD8F3"/>
<stop offset="0.377" stop-color="#7BD6F1"/>
<stop offset="0.596" stop-color="#72D0EC"/>
<stop offset="0.775" stop-color="#64C6E4"/>
<stop offset="0.931" stop-color="#50B8D7"/>
<stop offset="1" stop-color="#45B0D0"/>
</linearGradient>
<linearGradient id="paint5_linear_12_32" x1="38" y1="95" x2="153" y2="95" gradientUnits="userSpaceOnUse">
<stop stop-color="#11408A"/>
<stop offset="1" stop-color="#103F8F"/>
</linearGradient>
<linearGradient id="paint6_linear_12_32" x1="95.5" y1="141.414" x2="95.5" y2="47.459" gradientUnits="userSpaceOnUse">
<stop stop-color="#7DD8F3"/>
<stop offset="0.377" stop-color="#7BD6F1"/>
<stop offset="0.596" stop-color="#72D0EC"/>
<stop offset="0.775" stop-color="#64C6E4"/>
<stop offset="0.931" stop-color="#50B8D7"/>
<stop offset="1" stop-color="#45B0D0"/>
</linearGradient>
<linearGradient id="paint7_linear_12_32" x1="38" y1="95" x2="153" y2="95" gradientUnits="userSpaceOnUse">
<stop stop-color="#11408A"/>
<stop offset="1" stop-color="#103F8F"/>
</linearGradient>
<linearGradient id="paint8_linear_12_32" x1="38" y1="95" x2="153" y2="95" gradientUnits="userSpaceOnUse">
<stop stop-color="#11408A"/>
<stop offset="1" stop-color="#103F8F"/>
</linearGradient>
<linearGradient id="paint9_linear_12_32" x1="95.5" y1="141.414" x2="95.5" y2="47.482" gradientUnits="userSpaceOnUse">
<stop stop-color="#11408A"/>
<stop offset="1" stop-color="#103F8F"/>
</linearGradient>
<linearGradient id="paint10_linear_12_32" x1="95.5" y1="141.414" x2="95.5" y2="47.459" gradientUnits="userSpaceOnUse">
<stop stop-color="#7DD8F3"/>
<stop offset="0.377" stop-color="#7BD6F1"/>
<stop offset="0.596" stop-color="#72D0EC"/>
<stop offset="0.775" stop-color="#64C6E4"/>
<stop offset="0.931" stop-color="#50B8D7"/>
<stop offset="1" stop-color="#45B0D0"/>
</linearGradient>
<linearGradient id="paint11_linear_12_32" x1="95.5" y1="141.414" x2="95.5" y2="47.482" gradientUnits="userSpaceOnUse">
<stop stop-color="#11408A"/>
<stop offset="1" stop-color="#103F8F"/>
</linearGradient>
<clipPath id="clip0_12_32">
<rect width="191" height="191" fill="white"/>
</clipPath>
</defs>
</svg>
